<?xml version="1.0" encoding="UTF-8" standalone="no"?>
<svg
   viewBox="0 0 48 48"
   version="1.1"
   id="svg1"
   sodipodi:docname="eortologio.svg"
   inkscape:version="1.3.2 (091e20e, 2023-11-25, custom)"
   xmlns:inkscape="http://www.inkscape.org/namespaces/inkscape"
   xmlns:sodipodi="http://sodipodi.sourceforge.net/DTD/sodipodi-0.dtd"
   xmlns="http://www.w3.org/2000/svg"
   xmlns:svg="http://www.w3.org/2000/svg">
  <sodipodi:namedview
     id="namedview1"
     pagecolor="#000000"
     bordercolor="#000000"
     borderopacity="0.25"
     inkscape:showpageshadow="2"
     inkscape:pageopacity="0.0"
     inkscape:pagecheckerboard="0"
     inkscape:deskcolor="#d1d1d1"
     inkscape:zoom="14.499333"
     inkscape:cx="24.001105"
     inkscape:cy="25.690838"
     inkscape:window-width="1920"
     inkscape:window-height="1013"
     inkscape:window-x="-9"
     inkscape:window-y="29"
     inkscape:window-maximized="1"
     inkscape:current-layer="svg1" />
  <defs
     id="defs1">
    <rect
       x="5.9572"
       y="15.729098"
       width="35.690944"
       height="25.971302"
       id="rect2" />
    <rect
       x="6.1662246"
       y="15.415561"
       width="35.638688"
       height="26.598376"
       id="rect1" />
    <rect
       x="16.147148"
       y="20.275383"
       width="15.624586"
       height="16.93099"
       id="rect3" />
    <style
       id="style1">.a{fill:none;stroke:#fff;stroke-linecap:round;stroke-linejoin:round;}</style>
  </defs>
  <path
     class="a"
     d="M40.5,5.5H7.5a2,2,0,0,0-2,2v33a2,2,0,0,0,2,2h33a2,2,0,0,0,2-2V7.5A2,2,0,0,0,40.5,5.5Z"
     id="path1"
     style="stroke-linejoin:round;stroke-dasharray:none;stroke-dashoffset:0" />
  <path
     style="fill:#ffffff;fill-opacity:0;stroke:#ffffff;stroke-width:1;stroke-linejoin:round;stroke-dasharray:none;stroke-dashoffset:0"
     d="M 5.3823826,14.997513 42.588755,15.102025"
     id="path2" />
  <path
     style="opacity:1;fill:#ffffff;fill-opacity:0;stroke:#ffffff;stroke-width:1;stroke-linecap:butt;stroke-linejoin:round;stroke-dasharray:none;stroke-opacity:0.998689;paint-order:markers fill stroke"
     id="path4"
     sodipodi:type="arc"
     sodipodi:cx="24"
     sodipodi:cy="24.630646"
     sodipodi:rx="5.2110696"
     sodipodi:ry="5.1048045"
     sodipodi:start="1.5462963"
     sodipodi:end="1.5453044"
     sodipodi:arc-type="arc"
     d="m 24.127659,29.733918 a 5.2110696,5.1048045 0 0 1 -5.337133,-4.976951 5.2110696,5.1048045 0 0 1 5.079232,-5.229531 5.2110696,5.1048045 0 0 1 5.339651,4.974358 5.2110696,5.1048045 0 0 1 -5.076583,5.231998"
     sodipodi:open="true" />
  <path
     style="opacity:1;fill:#ffffff;fill-opacity:0;stroke:#ffffff;stroke-width:1;stroke-linecap:butt;stroke-linejoin:round;stroke-dasharray:none;stroke-opacity:0.998689;paint-order:markers fill stroke"
     id="path5"
     sodipodi:type="arc"
     sodipodi:cx="24.16806"
     sodipodi:cy="30.860554"
     sodipodi:rx="4.9877787"
     sodipodi:ry="4.8392067"
     sodipodi:start="6.2463739"
     sodipodi:end="3.1500064"
     sodipodi:arc-type="arc"
     d="M 29.15246,30.682456 A 4.9877787,4.8392067 0 0 1 26.755244,34.99785 4.9877787,4.8392067 0 0 1 21.703,35.067454 4.9877787,4.8392067 0 0 1 19.180458,30.819838"
     sodipodi:open="true" />
  <path
     style="opacity:1;fill:#ffffff;fill-opacity:0;stroke:#ffffff;stroke-width:1;stroke-linecap:butt;stroke-linejoin:round;stroke-dasharray:none;stroke-opacity:0.998689;paint-order:markers fill stroke"
     d="m 29.187043,30.97972 -0.02801,-7.114691"
     id="path6" />
</svg>
