<?xml version="1.0" encoding="UTF-8" standalone="no"?>
<svg
   id="Layer_2"
   data-name="Layer 2"
   viewBox="0 0 48 48"
   version="1.1"
   xmlns="http://www.w3.org/2000/svg"
   xmlns:svg="http://www.w3.org/2000/svg">
  <defs
     id="defs4">
    <style
       id="style2">.a{fill:none;stroke:#fff;stroke-linecap:round;stroke-linejoin:round;}</style>
  </defs>
  <path
     class="a"
     d="m 23.316231,26.220519 c 0.277689,-0.266433 0.578584,-0.507567 0.899112,-0.720542 1.775374,1.251353 2.291285,2.683721 2.688615,4.78968 0.217116,1.431808 0.275459,2.883213 0.173982,4.32783 0.164185,-0.04877 0.335001,-0.07147 0.506224,-0.06732 0.118497,0.0025 0.236569,0.01501 0.352946,0.03748 C 28.370041,34.667761 35,34.5 35,34.5 l 1,-6.5 1,6.5 c 0,0 4.958504,2.824235 5,3.415696 0.102002,1.453868 -13.397095,6.144236 -13.397095,6.144236 0,0 -0.861085,-4.58238 -1.175926,-5.389485 -0.13334,-0.298303 -0.367318,-0.540227 -0.661003,-0.683451 -0.05839,0.472556 -0.123111,0.945009 -0.191136,1.426875 l -5.188467,-0.08662 c -0.05831,-0.477661 -0.110432,-0.948906 -0.143399,-1.432462 -0.300681,0.132516 -0.544182,0.368019 -0.686659,0.664108 -0.332087,0.793148 -1.349189,5.36627 -1.349189,5.36627 0,0 -13.3576043,-4.717721 -13.207126,-6.167375 C 6.0659213,37.12273 11,34.5 11,34.5 l 1,-6.5 1,6.5 c 0,0 6.83915,0.03694 7.188654,-0.0133 0.119369,-0.01684 0.239762,-0.02538 0.360312,-0.02555 0.170178,-6.92e-4 0.339307,0.02666 0.500591,0.08096 -0.05467,-1.447225 0.05209,-2.896035 0.318356,-4.319609 0.372617,-1.707972 0.829118,-2.956789 1.951422,-3.998763 z m -0.152852,3.482643 c -0.920253,0.867005 -0.323023,2.413567 0.9411,2.437039 v 0 c 0.778226,0.01073 1.419031,-0.609028 1.434286,-1.387177 v 0 c 0.01073,-0.778225 -0.609031,-1.419031 -1.387178,-1.434286 v 0 c -0.367033,-0.0063 -0.721854,0.131824 -0.988208,0.384424 z m -0.259745,11.019487 c 0.960636,-0.922619 2.55761,-0.228704 2.538655,1.103096 -0.01879,0.558454 -0.509198,1.001702 -0.858476,1.500971 -0.553956,0.846265 -0.716238,3.002862 -0.716238,3.002862 0,0 -0.08677,-2.176539 -0.615279,-3.044034 -0.301278,-0.484875 -0.772722,-0.798963 -0.807892,-1.528791 0.0045,-0.399326 0.167591,-0.780477 0.45334,-1.059457 z"
     id="path6" />
  <path
     class="a"
     d="M 10.499821,4.4623384 12.249915,3.4997905 V 10.500149 H 10.499821 14.00001"
     id="path176" />
  <circle
     class="a"
     cx="19.362453"
     cy="5.8624468"
     id="circle26"
     r="2.36"/>
  <path
     class="a"
     d="m 17.261957,9.6251319 c 0.35003,0.5250241 0.962561,0.8750441 1.925111,0.8750441 h 0.175 c 1.312581,0 2.362631,-1.0500531 2.362631,-2.3626212 V 5.7749341"
     id="path52" />
  <path
     class="a"
     d="m 32.862821,9.8876489 c 0.525033,0.4375211 0.962553,0.6125301 2.100117,0.6125301 h 0.262509 c 1.225073,0 2.275125,-1.0500532 2.275125,-2.2751159 0,-1.2250632 -1.050052,-2.2751174 -2.275125,-2.2751174 H 32.862821 V 3.4998205 h 4.637751"
     id="path98" />
  <path
     class="a"
     d="M 29.637518,8.2249814 H 24.999767 L 28.762466,3.4997399 V 10.500097"
     id="path220" />
  <path
     class="a"
     d="M 12,18 V 15.5"
     id="path4784" />
  <path
     class="a"
     d="M 36,18 V 15.5"
     id="path4786" />
  <path
     class="a"
     d="M 12,24 V 21.5"
     id="path5689" />
  <path
     class="a"
     d="M 36,24 V 21.5"
     id="path5691" />
</svg>
