<?xml version="1.0" encoding="UTF-8" standalone="no"?>
<!-- Created with Inkscape (http://www.inkscape.org/) -->

<svg
   width="48"
   height="48"
   viewBox="0 0 48 48"
   version="1.1"
   id="svg5"
   sodipodi:docname="30_day_fitness_challenge.svg"
   inkscape:version="1.1.2 (0a00cf5339, 2022-02-04, custom)"
   xmlns:inkscape="http://www.inkscape.org/namespaces/inkscape"
   xmlns:sodipodi="http://sodipodi.sourceforge.net/DTD/sodipodi-0.dtd"
   xmlns="http://www.w3.org/2000/svg"
   xmlns:svg="http://www.w3.org/2000/svg">
  <sodipodi:namedview
     id="namedview7"
     pagecolor="#505050"
     bordercolor="#eeeeee"
     borderopacity="1"
     inkscape:pageshadow="0"
     inkscape:pageopacity="0"
     inkscape:pagecheckerboard="0"
     inkscape:document-units="px"
     showgrid="false"
     inkscape:zoom="16"
     inkscape:cx="21.9375"
     inkscape:cy="19.90625"
     inkscape:window-width="1920"
     inkscape:window-height="1029"
     inkscape:window-x="0"
     inkscape:window-y="27"
     inkscape:window-maximized="1"
     inkscape:current-layer="layer1" />
  <defs
     id="defs2">
    <style
       id="style836">.a{fill:none;stroke:#fff;stroke-linecap:round;stroke-linejoin:round;}</style>
    <style
       id="style10203">.a{fill:none;stroke:#fff;stroke-linecap:round;stroke-linejoin:round;}</style>
  </defs>
  <g
     inkscape:label="Layer 1"
     inkscape:groupmode="layer"
     id="layer1">
    <circle
       class="a"
       cx="24"
       cy="24"
       r="21.5"
       id="circle10207" />
    <path
       style="fill:none;stroke:#ffffff;stroke-linecap:round;stroke-linejoin:round;stroke-opacity:1"
       id="path10237"
       sodipodi:type="arc"
       sodipodi:cx="24.5"
       sodipodi:cy="24.5"
       sodipodi:rx="16"
       sodipodi:ry="16"
       sodipodi:start="3.9082853"
       sodipodi:end="3.7169371"
       sodipodi:arc-type="arc"
       d="M 12.976654,13.399887 A 16,16 0 0 1 35.036382,12.459043 16,16 0 0 1 37.03102,34.448544 16,16 0 0 1 15.162055,37.492412 16,16 0 0 1 11.075921,15.794019"
       sodipodi:open="true" />
    <circle
       style="fill:none;fill-rule:evenodd;stroke:#ffffff;stroke-linecap:round;stroke-linejoin:round;stroke-opacity:1"
       id="path10395"
       cx="12.014008"
       cy="14.602758"
       r="1.5" />
    <path
       style="fill:none;stroke:#fffffe;stroke-width:1px;stroke-linecap:round;stroke-linejoin:round;stroke-opacity:1"
       d="m 16.183854,19.092331 c 0,0 -0.470538,-3.126671 1.737345,-3.261823 2.195085,-0.134369 3.8768,0.129173 3.974734,1.985635 0.23748,4.501693 -0.01833,6.153104 -2.466205,6.114561"
       id="path10564"
       sodipodi:nodetypes="cssc" />
    <path
       style="fill:none;stroke:#fffffe;stroke-width:1px;stroke-linecap:round;stroke-linejoin:round;stroke-opacity:1"
       d="m 16.078377,29.525825 c 0,0 -0.196192,3.142473 2.01169,3.277625 2.195085,0.134369 3.638148,-0.291148 3.736083,-2.14761 0.23748,-4.501693 0.05145,-6.763679 -2.396422,-6.725136"
       id="path10564-0"
       sodipodi:nodetypes="cssc" />
    <path
       style="fill:none;stroke:#fffffa;stroke-width:1px;stroke-linecap:butt;stroke-linejoin:miter;stroke-opacity:1"
       d="m 28.932267,15.639058 c 0,0 2.452417,-0.238139 2.51381,1.989874 0.06309,2.289485 0.07226,13.092447 0.07226,13.092447 0,0 -0.105954,1.895753 -2.280817,1.96141 -2.431608,0.07341 -3.281934,-0.550911 -3.328145,-1.886085 -0.04621,-1.335175 -0.204136,-12.912328 -0.204136,-12.912328 0,0 -0.283784,-2.310977 3.227028,-2.245318 z"
       id="path13284"
       sodipodi:nodetypes="cscsscc" />
  </g>
</svg>
