<svg width="48" height="48" version="1.1" viewBox="0 0 48 48" xmlns="http://www.w3.org/2000/svg">
 <defs>
  <style>.cls-1{fill:none;stroke:#fff;stroke-linecap:round;stroke-linejoin:round;}</style>
 </defs>
 <g>
  <path d="m27.188 25.305v2.957c0 0.36037 0.2956 0.65252 0.66024 0.65252h11.24c0.35834-0.0086 0.64424-0.29827 0.64414-0.65252v-2.957" fill="none" stroke="#fff"/>
  <path class="st0" d="m16.912 38.268c3.8066 0 6.9212-3.2103 6.9212-7.134s-3.1145-7.134-6.9212-7.134h-6.9212 6.9212c3.8066 0 6.9212-3.2103 6.9212-7.134 0-3.9237-3.1145-7.134-6.9212-7.134"/>
  <path class="st0" d="m5.4922 35.771c2.0763 1.7835 3.8066 2.4969 8.6514 2.4969h2.7685"/>
  <path class="st0" d="m5.4922 12.229c2.0763-1.7835 4.1527-2.4969 8.6514-2.4969h2.7685"/>
  <path class="st0" d="m42.5 28.815c0 5.3505-4.1527 9.631-9.3436 9.631-5.1909 0-9.3436-4.2804-9.3436-9.631v-9.631c0-5.3505 4.1527-9.631 9.3436-9.631 5.1909 0 8.9975 4.2804 8.9975 9.631"/>
 </g>
 <g fill="none" stroke="#fff" stroke-linecap="round">
  <path d="m27.188 25.419c0-3.4607 2.8055-6.2662 6.2662-6.2662 3.4607 0 6.2662 2.8055 6.2662 6.2662" stop-color="#000000" stroke-linejoin="round" style="paint-order:stroke fill markers"/>
  <path d="m37.94 21.044 1.6819-1.6819"/>
  <path d="m28.968 21.044-1.6819-1.6819"/>
 </g>
 <path d="m30.747 25.158c-0.66854 0.0018-1.0044-0.78598-0.53172-1.2467 0.47268-0.46076 1.2809-0.13326 1.279 0.51843 9e-6 0.40382-0.33718 0.73056-0.75144 0.72831z" fill="#fff"/>
 <path d="m36.178 25.158c-0.66854 0.0018-1.0044-0.78598-0.53172-1.2467 0.47268-0.46076 1.2809-0.13326 1.279 0.51843 9e-6 0.40382-0.33718 0.73056-0.75144 0.72831z" fill="#fff"/>
 <style type="text/css">.st0{fill:none;stroke:#FFFFFF;stroke-linecap:round;stroke-linejoin:round;stroke-miterlimit:10;}
	.st1{fill:#FFFFFF;}
	.st2{fill:none;stroke:#FFFFFF;stroke-width:1;stroke-linecap:round;stroke-linejoin:round;stroke-miterlimit:10;}
	.st3{fill:none;stroke:#FFFFFF;stroke-width:1;stroke-linecap:round;stroke-linejoin:round;stroke-miterlimit:10;}
	.st4{fill:none;stroke:#FFFFFF;stroke-width:1;stroke-linecap:round;stroke-linejoin:round;stroke-miterlimit:10;}</style>
</svg>
