<svg viewBox="0 0 48 48" xmlns="http://www.w3.org/2000/svg">
    <style>
        .a{fill:none;stroke:#FFFFFF;stroke-linecap:round;stroke-linejoin:round}
    </style>
    <path class="a" d="M37.3228607,23.4138107H27.2101994c-1.448864,0-2.6234016-1.1745358-2.6234016-2.6233997V10.6777487 c0-1.448864,1.1745377-2.6233997,2.6234016-2.6233997h10.1126614c1.448864,0,2.6234016,1.1745358,2.6234016,2.6233997V20.790411 C39.9462624,22.239275,38.7717247,23.4138107,37.3228607,23.4138107z"/>
    <path class="a" d="M23.3244171,26.5280647c-0.2387218-0.9023685-0.9501133-1.61376-1.8524818-1.8477077 c-0.2196236-0.062067-0.4487953-0.0954895-0.6827431-0.0954895H10.6769361c-1.4466543,0-2.6211653,1.1745129-2.6211653,2.6259403 v1.0646992v9.0475559c0,1.4466553,1.174511,2.6211662,2.6211653,2.6211662h9.0475569"/>
    <path class="a" d="M22.1546803,22.1546803c0.8975945,0.2387218,1.8668041-0.0238724,2.5256767-0.682745"/>
    <path class="a" d="M12.3241167,12.3241167l4.526166-7.8348498c0.7257137-1.2556767,2.3299236-1.6853759,3.5855999-0.9596617 l7.8396244,4.526166"/>
    <path class="a" d="M25.8453197,25.8453197c-0.8975945-0.2387218-1.86203,0.0238724-2.5209026,0.682745 c-0.1623306,0.1575546-0.3007889,0.3389835-0.4201508,0.5442848l-5.0561275,8.7610893 c-0.7257137,1.2509041-0.2960148,2.855114,0.9596615,3.5808296l0.9166927,0.5299606l7.8396244,4.526165 c1.2556763,0.7257156,2.8598862,0.2960167,3.5855999-0.9596596l4.5261669-7.8348503"/>
    <path class="a" d="M8.0557709,28.275507l-4.526166-7.8396244c-0.7257142-1.2556763-0.296015-2.8598862,0.9596617-3.5855999 l7.8348498-4.526166l0.9214659-0.5299625c1.2556772-0.7209396,2.8598881-0.2912407,3.5856018,0.9596615l5.0561275,8.7610903 c0.1193619,0.2053013,0.2053013,0.4201508,0.2673683,0.6397743c0.2387218,0.8975945-0.0238724,1.8668041-0.682745,2.5256767"/>
    <path class="a" d="M26.5280647,23.3244171c-0.6588726,0.6588726-0.9214668,1.6233082-0.682745,2.5209026 c0.062067,0.2196236,0.1480064,0.434473,0.2673683,0.6397743l5.0561275,8.7610912 c0.7257137,1.2556763,2.3299255,1.6853752,3.5856018,0.9596596l0.9214668-0.5299606l7.8348503-4.5261669 c1.2556763-0.7257137,1.6853752-2.3299236,0.9596596-3.5855999l-4.526165-7.8396244"/>
    <path class="a" d="M32.2665329,12.7489014c-2.1101475,0-3.9499855,1.1983881-4.9531574,2.9802923 c1.0031719,1.7819052,2.8430099,2.9802923,4.9531574,2.9802923s3.9499817-1.1983871,4.9531555-2.9802923 C36.2165146,13.9472895,34.3766785,12.7489014,32.2665329,12.7489014z"/>
    <circle class="a" cx="32.2665329" cy="15.7291937" r="1.6838464"/>
    <line class="a" x1="33.4571915" x2="31.0758724" y1="14.5385351" y2="16.9198532"/>
</svg>
