<svg xmlns="http://www.w3.org/2000/svg" xml:space="preserve" id="svg990" width="48" height="48" version="1.1"><defs id="defs987"><style id="style1174">.a{fill:none;stroke:#fff;stroke-linecap:round;stroke-linejoin:round}</style></defs><path id="path1455" d="m42.5 32.967-37 5.893m37-21.444-10.656-1.68m-13.532-2.133L5.5 11.583m35-6.083h-33a2 2 0 0 0-2 2v33a2 2 0 0 0 2 2h33a2 2 0 0 0 2-2v-33a2 2 0 0 0-2-2zM22.462 36.156c.05-4.712-.703-8.98-6.123-8.594a9.757 9.757 0 0 1-2.096-6.042A9.757 9.757 0 0 1 24 11.763a9.757 9.757 0 0 1 9.757 9.757v0a9.64 9.64 0 0 1-2.12 6.042c-5.254-.373-6.138 3.595-6.148 8.111" style="fill:none;stroke:#fff;stroke-linecap:round;stroke-linejoin:round;stroke-opacity:1;stop-color:#000"/></svg>