<?xml version="1.0" encoding="UTF-8"?><svg id="a" xmlns="http://www.w3.org/2000/svg" viewBox="0 0 48 48"><defs><style>.c{fill:none;stroke:#fff;stroke-linecap:round;stroke-linejoin:round;}</style></defs><path class="c" d="m40.5,5.5H7.5c-1.1046,0-2,.8954-2,2v33c0,1.1046.8954,2,2,2h33c1.1046,0,2-.8954,2-2V7.5c0-1.1046-.8954-2-2-2Z"/><path class="c" d="m36.5587,36.0584h0c-1.0677,0-1.9413-.8736-1.9413-1.9413v-1.2618c0-1.0677.8736-1.9413,1.9413-1.9413h0c1.0677,0,1.9413.8736,1.9413,1.9413v1.2618c0,1.0677-.8736,1.9413-1.9413,1.9413Z"/><path class="c" d="m9.5,32.7583c0-1.0677.8736-1.9413,1.9413-1.9413h0c1.0677,0,1.9413.8736,1.9413,1.9413v3.2031"/><line class="c" x1="9.5" y1="30.817" x2="9.5" y2="36.0584"/><path class="c" d="m13.3825,32.7583c0-1.0677.8736-1.9413,1.9413-1.9413h0c1.0677,0,1.9413.8736,1.9413,1.9413v3.2031"/><path class="c" d="m25.722,29.264v5.8238c0,.5824.3882.9706.9706.9706h.2912"/><line class="c" x1="24.6543" y1="30.817" x2="26.7897" y2="30.817"/><path class="c" d="m22.8367,35.0878c-.2912.5824-.9706.9706-1.6501.9706h0c-1.0677,0-1.9413-.8736-1.9413-1.9413v-1.2618c0-1.0677.8736-1.9413,1.9413-1.9413h0c1.0677,0,1.9413.8736,1.9413,1.9413v.6794h-3.8825"/><path class="c" d="m32.2834,35.0878c-.2912.5824-.9706.9706-1.6501.9706h0c-1.0677,0-1.9413-.8736-1.9413-1.9413v-1.2618c0-1.0677.8736-1.9413,1.9413-1.9413h0c1.0677,0,1.9413.8736,1.9413,1.9413v.6794h-3.8825"/><line class="c" x1="25.5868" y1="26.571" x2="25.5868" y2="11.9416"/><path class="c" d="m25.5868,11.9416h6.1263c2.0156,0,3.6495,1.6375,3.6495,3.6574s-1.6339,3.6574-3.6495,3.6574h-6.1263"/><path class="c" d="m25.5868,19.2563h6.1263c2.0156,0,3.6495,1.6375,3.6495,3.6574s-1.6339,3.6574-3.6495,3.6574h-6.1263"/><g id="b"><path class="c" d="m18.6727,19.258c2.0194,0,3.6565-1.6371,3.6565-3.6565s-1.6371-3.6565-3.6565-3.6565"/><path class="c" d="m18.6727,26.571c2.0194,0,3.6565-1.6371,3.6565-3.6565s-1.6371-3.6565-3.6565-3.6565"/><path class="c" d="m12.6385,25.3368c1.0099.8462,2.1003,1.234,4.549,1.234h1.4849"/><path class="c" d="m12.6373,13.1636c1.0121-.8435,2.1036-1.2284,4.5523-1.2218l1.4849.0033"/><line class="c" x1="14.9473" y1="19.258" x2="18.6727" y2="19.258"/></g></svg>