<svg xmlns="http://www.w3.org/2000/svg" xml:space="preserve" width="48" height="48"><path d="M37.272 21.347a5.487 5.487 0 0 0-5.51-5.51v0a5.487 5.487 0 0 0-5.51 5.51v5.51c0 3.062 2.449 5.307 5.51 5.307v0c3.061 0 5.51-2.45 5.51-5.307h-5.51m-13.155 5.318v-16.35l-8.68 10.9h10.699M45.5 24A21.5 21.5 0 0 1 24 45.5 21.5 21.5 0 0 1 2.5 24 21.5 21.5 0 0 1 24 2.5 21.5 21.5 0 0 1 45.5 24Z" class="st5" style="fill:none;stroke:#fff;stroke-width:1;stroke-linecap:round;stroke-linejoin:round;stroke-miterlimit:10;stroke-dasharray:none"/></svg>