<svg xmlns="http://www.w3.org/2000/svg" viewBox="0 0 48 48"><defs><style>.a{fill:none;stroke:#fff;stroke-linecap:round;stroke-linejoin:round;}</style></defs><path class="a" d="M23.8,20.65a3.38,3.38,0,0,0,3-3.75h0a3.39,3.39,0,0,0-3.75-3l-2.19.25a3.4,3.4,0,0,0-3,3.76h0a3.4,3.4,0,0,0,3.76,3l2.18-.26-2.18.26a3.39,3.39,0,0,0-3,3.75h0a3.4,3.4,0,0,0,3.76,3l2.18-.26a3.39,3.39,0,0,0,3-3.75h0a3.4,3.4,0,0,0-3.76-3"/><circle class="a" cx="23.1" cy="21.53" r="12.09"/><circle class="a" cx="24" cy="24" r="21.5"/></svg>