<svg xmlns="http://www.w3.org/2000/svg" viewBox="0 0 48 48"><defs><style>.a{fill:none;stroke:#fff;stroke-linecap:round;stroke-linejoin:round;}</style></defs><path class="a" d="M40.5,42.5H7.5a2,2,0,0,1-2-2V7.5a2,2,0,0,1,2-2h33a2,2,0,0,1,2,2v33A2,2,0,0,1,40.5,42.5Z"/><line class="a" x1="24" y1="5.5" x2="24" y2="42.5"/><line class="a" x1="5.5" y1="24" x2="42.5" y2="24"/><ellipse class="a" cx="14.75" cy="13.06" rx="3.45" ry="3.31"/><path class="a" d="M11.61,18.53a3.42,3.42,0,0,0,2.9,1.22h.24a3.38,3.38,0,0,0,3.45-3.31V13.06"/><path class="a" d="M29.94,13.06a3.31,3.31,0,0,1,6.62,0,3.05,3.05,0,0,1-1,2.34c-1.34,1.18-5.65,4.35-5.65,4.35h6.62"/><path class="a" d="M11.44,31.56a3.31,3.31,0,0,1,6.62,0,3.05,3.05,0,0,1-1,2.34c-1.34,1.18-5.65,4.35-5.65,4.35h6.62"/><ellipse class="a" cx="33.25" cy="31.56" rx="3.45" ry="3.31"/><path class="a" d="M30.11,37A3.42,3.42,0,0,0,33,38.25h.24a3.38,3.38,0,0,0,3.45-3.31V31.56"/></svg>