<?xml version="1.0" encoding="UTF-8"?><svg id="a" xmlns="http://www.w3.org/2000/svg" viewBox="0 0 48 48"><defs><style>.b{fill:none;stroke:#fff;stroke-linecap:round;stroke-linejoin:round;}</style></defs><g><path class="b" d="m10.2724,42.5v-7.5585l5.0075,7.5585v-7.5585"/><path class="b" d="m17.4979,38.7208h2.4641"/><path class="b" d="m21.2772,34.9415h-3.7792v7.5585h3.7792"/><path class="b" d="m23.3669,34.9415l1.8896,7.5585,1.8896-7.5585,1.8896,7.5585,1.8896-7.5585"/><path class="b" d="m32.8698,41.6714c.4635.6034,1.0447.8282,1.8532.8282h1.119c1.0414,0,1.8856-.8442,1.8856-1.8856v-.0081c0-1.0414-.8442-1.8856-1.8856-1.8856h-1.2344c-1.0425,0-1.8875-.8451-1.8875-1.8875h0c0-1.0448.8469-1.8917,1.8917-1.8917h1.1129c.8086,0,1.3897.2248,1.8532.8282"/></g><g><path class="b" d="m26.5634,20.4293,2.7159,6.8501-17.4821-3.058l3.1265-5.3955m15.2735,6.3258c-2.1977,5.0338-3.8599,5.5805-6.1344,5.6992-2.2745.1188-4.6427-1.174-5.5624-3.0091l-6.7033-16.8975m-4.8453,15.6906c0,2.4227,1.8022,4.4702,4.213,4.7864,2.4108.3162,5.0738-1.1765,6.7178-5.1368m-6.0853-2.064v-13.2758m-4.8455,15.6899l.0509-16.2979"/><path class="b" d="m36.2028,12.7516l-3.1254,5.3935m-1.1218,10.9046l-6.5287-16.4458c-.4161-1.0482-1.8898-1.0756-2.3446-.0436l-2.7342,6.2042m9.165-9.61l6.6898,16.8742m-6.7033-16.8975c-1.1388-1.9653-3.2879-3.1278-5.5624-3.0091-2.2745.1188-4.2899,1.4988-5.2163,3.5719m22.3273.6441c0-2.4227-1.8022-4.4702-4.213-4.7864-2.4108-.3162-4.4848.8151-6.4699,5.7524m10.6321,15.3324c0,2.1851-1.4731,4.0977-3.5915,4.6632-2.1184.5655-4.3539-.357-5.4505-2.2494m4.2473-16.2979v13.2758m4.8455-15.6899l-.0509,16.2979"/><path class="b" d="m7.0026,10.3366c0-2.1851,1.4731-4.0977,3.5915-4.6632,2.1184-.5655,4.5479.2702,5.4505,2.2494l6.5287,16.4269c.4161,1.0482,1.8898,1.0756,2.3446.0436l2.7342-6.2042"/><line class="b" x1="18.7209" y1="9.6939" x2="17.709" y2="12.1106"/></g></svg>