<?xml version="1.0" encoding="utf-8"?>
<svg
	version="1.1"
	xmlns="http://www.w3.org/2000/svg"
	xmlns:xlink="http://www.w3.org/1999/xlink"
	viewBox="0 0 48 48"
	xml:space="preserve">
	<path
		fill="none"
		stroke="#FFF"
		stroke-width="1"
		stroke-linejoin="round"
		stroke-linecap="round"
		d="M29.40,1.55L19.76,5.72L23.25,7.93L0.80,44.27L4.34,46.52L14.30,30.46L25.54,30.46L25.54,46.20L37.75,46.20A9.47 9.65 -0.00 0 0 41.89,28.03A7.86 8.84 -0.00 0 0 38.05,11.83L29.40,11.83L29.40,1.55"/>
	<path
		fill="none"
		stroke="#FFF"
		stroke-width="1"
		stroke-linejoin="round"
		stroke-linecap="round"
		d="M16.87,26.28L25.54,26.28L25.54,11.83L29.40,11.83L26.51,10.22L16.87,26.28z"/>
	<path
		fill="none"
		stroke="#FFF"
		stroke-width="1"
		stroke-linejoin="round"
		stroke-linecap="round"
		d="M36.46,25.96L29.40,25.96L29.40,16.32L36.46,16.32C43.21,16.32,43.21,25.96,36.46,25.96zM37.26,41.64C45.14,41.70,43.85,30.14,37.26,30.46L29.40,30.46L29.40,41.64L37.26,41.64z"/>
</svg>
