<?xml version="1.0" encoding="UTF-8" standalone="no"?>
<svg
   xmlns:dc="http://purl.org/dc/elements/1.1/"
   xmlns:cc="http://creativecommons.org/ns#"
   xmlns:rdf="http://www.w3.org/1999/02/22-rdf-syntax-ns#"
   xmlns:svg="http://www.w3.org/2000/svg"
   xmlns="http://www.w3.org/2000/svg"
   xmlns:sodipodi="http://sodipodi.sourceforge.net/DTD/sodipodi-0.dtd"
   xmlns:inkscape="http://www.inkscape.org/namespaces/inkscape"
   viewBox="0 0 48 48"
   version="1.1"
   id="svg16"
   sodipodi:docname="accuweather.svg"
   inkscape:version="1.0.1 (3bc2e813f5, 2020-09-07)">
  <metadata
     id="metadata20">
    <rdf:RDF>
      <cc:Work
         rdf:about="">
        <dc:format>image/svg+xml</dc:format>
        <dc:type
           rdf:resource="http://purl.org/dc/dcmitype/StillImage" />
        <dc:title />
      </cc:Work>
    </rdf:RDF>
  </metadata>
  <sodipodi:namedview
     pagecolor="#ffffff"
     bordercolor="#666666"
     borderopacity="1"
     objecttolerance="10"
     gridtolerance="10"
     guidetolerance="10"
     inkscape:pageopacity="0"
     inkscape:pageshadow="2"
     inkscape:window-width="1920"
     inkscape:window-height="1043"
     id="namedview18"
     showgrid="false"
     inkscape:zoom="16"
     inkscape:cx="19.951201"
     inkscape:cy="23.147871"
     inkscape:window-x="0"
     inkscape:window-y="0"
     inkscape:window-maximized="1"
     inkscape:current-layer="svg16"
     inkscape:document-rotation="0" />
  <defs
     id="defs4">
    <inkscape:path-effect
       effect="spiro"
       id="path-effect913"
       is_visible="true"
       lpeversion="1" />
    <style
       id="style2">.a{fill:none;stroke:#fff;stroke-linecap:round;stroke-linejoin:round;}</style>
  </defs>
  <path
     style="fill:none;stroke:#ffffff;stroke-width:1px;stroke-linecap:round;stroke-linejoin:round;stroke-opacity:1"
     d="m 23.999927,12.751 c -2.944831,0 -5.871529,1.212278 -7.953839,3.294588 -2.08231,2.08231 -3.294588,5.009008 -3.294588,7.953839 0,2.944831 1.212278,5.871529 3.294588,7.953839 2.08231,2.08231 5.009008,3.294588 7.953839,3.294588 2.944831,0 5.871529,-1.212278 7.953839,-3.294588 2.08231,-2.08231 3.294588,-5.009008 3.294588,-7.953839 0,-2.944831 -1.212278,-5.871529 -3.294588,-7.953839 C 29.871456,13.963278 26.944758,12.751 23.999927,12.751 Z"
     id="path911"
     inkscape:path-effect="#path-effect913"
     inkscape:original-d="m 23.999927,12.751 c -0.001,-7.4999509 0.001,14.998902 0,22.496854 -0.001,7.497951 0.001,-14.996903 0,-22.496854 z" />
  <path
     style="fill:none;stroke:#ffffff;stroke-width:0.998847px;stroke-linecap:round;stroke-linejoin:round;stroke-opacity:1"
     d="m 20.22123,9.6288246 3.803906,-4.2984269 3.776974,4.3480067 5.945867,-2.2857245 v 6.1034651 l 5.966347,0.635407 -1.419643,6.076607 4.373923,3.761302 -4.343546,3.637783 1.373252,6.098746 -5.950276,0.767807 v 5.974306 l -5.97742,-2.229034 -3.736989,4.449534 -3.860436,-4.452538 -5.872501,2.239295 V 34.478624 L 8.2793912,33.695918 9.7250275,27.611406 5.3303956,23.962669 9.7483219,20.238057 8.3453263,14.154217 14.290695,13.439804 V 7.455712 l 5.930535,2.1731126"
     id="path915"
     sodipodi:nodetypes="ccccccccccccccccccccccccc" />
</svg>
