<?xml version="1.0" encoding="UTF-8" standalone="no"?>
<svg
   xmlns:dc="http://purl.org/dc/elements/1.1/"
   xmlns:cc="http://creativecommons.org/ns#"
   xmlns:rdf="http://www.w3.org/1999/02/22-rdf-syntax-ns#"
   xmlns:svg="http://www.w3.org/2000/svg"
   xmlns="http://www.w3.org/2000/svg"
   xmlns:sodipodi="http://sodipodi.sourceforge.net/DTD/sodipodi-0.dtd"
   xmlns:inkscape="http://www.inkscape.org/namespaces/inkscape"
   viewBox="0 0 48 48"
   version="1.1"
   id="svg2289"
   sodipodi:docname="square.svg"
   inkscape:version="1.0.1 (3bc2e813f5, 2020-09-07)">
  <metadata
     id="metadata2293">
    <rdf:RDF>
      <cc:Work
         rdf:about="">
        <dc:format>image/svg+xml</dc:format>
        <dc:type
           rdf:resource="http://purl.org/dc/dcmitype/StillImage" />
        <dc:title></dc:title>
      </cc:Work>
    </rdf:RDF>
  </metadata>
  <sodipodi:namedview
     pagecolor="#5a5a5a"
     bordercolor="#666666"
     borderopacity="1"
     objecttolerance="10"
     gridtolerance="10"
     guidetolerance="10"
     inkscape:pageopacity="0"
     inkscape:pageshadow="2"
     inkscape:window-width="3840"
     inkscape:window-height="2096"
     id="namedview2291"
     showgrid="false"
     inkscape:zoom="3.8385417"
     inkscape:cx="24"
     inkscape:cy="24"
     inkscape:window-x="0"
     inkscape:window-y="27"
     inkscape:window-maximized="1"
     inkscape:current-layer="svg2289"
     showguides="true"
     inkscape:guide-bbox="true" />
  <defs
     id="defs2285">
    <style
       id="style2283">.a{fill:none;stroke:#fff;stroke-linecap:round;stroke-linejoin:round;}</style>
  </defs>
  <ellipse
     style="fill:none;stroke:#ffffff;stroke-width:1.04366;stroke-linecap:round;stroke-linejoin:round;stroke-miterlimit:3.42857;stroke-dasharray:none;stroke-opacity:1"
     id="path2989"
     cx="23.994715"
     cy="37.683624"
     rx="1.723204"
     ry="1.6672554" />
  <path
     style="fill:none;stroke:#ffffff;stroke-width:1.04366;stroke-linecap:butt;stroke-linejoin:miter;stroke-miterlimit:3.42857;stroke-dasharray:none;stroke-opacity:1"
     d="m 22.88985,32.758563 h 2.276172 c 0.58423,1.689536 1.315296,1.922137 2.740774,1.545616 l 1.123061,1.882048 c -1.425507,0.897261 -1.510211,2.075704 0,3.243171 l -1.040679,1.743987 c -1.965616,-0.741148 -2.671344,-0.06023 -2.823156,1.632688 H 22.88985 C 22.739402,40.939307 21.666131,40.59973 19.998221,41.176513 L 18.91801,39.366277 c 1.466469,-1.091055 1.368956,-2.164392 0,-3.223322 l 1.187789,-1.990515 c 1.553782,0.496137 2.400424,-0.114912 2.784051,-1.393877 z"
     id="path2993"
     sodipodi:nodetypes="ccccccccccccc" />
  <path
     style="fill:none;stroke:#ffffff;stroke-width:1.04366;stroke-linecap:butt;stroke-linejoin:miter;stroke-miterlimit:3.42857;stroke-dasharray:none;stroke-opacity:1"
     d="m 24.001512,30.445591 1.954641,-3.328808 c 0.316534,-1.578429 -0.717418,-2.33926 -1.814536,-2.33926 -1.097129,0 -2.490667,0.690991 -1.881353,2.401586 z"
     id="path2995"
     sodipodi:nodetypes="cczcc" />
  <path
     style="fill:none;stroke:#ffffff;stroke-width:1.04366;stroke-linecap:butt;stroke-linejoin:miter;stroke-miterlimit:3.42857;stroke-dasharray:none;stroke-opacity:1"
     d="m 19.593647,12.082622 c 3.303426,-0.436905 6.153707,-0.293476 8.886829,0 0.36458,3.928227 -0.06658,7.58549 -0.945632,11.09028 C 24.765829,22.91978 22.981053,22.950437 20.643172,23.115462 19.662756,19.752523 19.11162,16.17536 19.593647,12.082641 Z"
     id="path2997"
     sodipodi:nodetypes="ccccc" />
  <path
     style="fill:none;stroke:#ffffff;stroke-width:1.04366;stroke-linecap:butt;stroke-linejoin:miter;stroke-miterlimit:3.42857;stroke-dasharray:none;stroke-opacity:1"
     d="M 27.982736,10.544776 C 27.199113,8.8627129 25.967717,7.2743991 24.780889,5.9209747 c -0.656693,-0.7488675 -0.833983,-0.7764231 -1.52589,0.00616 -1.149877,1.3005325 -2.336735,2.7728601 -3.212049,4.6126073 2.090915,-0.236731 5.359459,-0.24189 7.939786,0.0051 z"
     id="path2999"
     sodipodi:nodetypes="ccscc" />
  <path
     style="fill:none;stroke:#ffffff;stroke-width:1.04366;stroke-linecap:butt;stroke-linejoin:miter;stroke-miterlimit:3.42857;stroke-dasharray:none;stroke-opacity:1"
     d="m 28.901779,23.385517 c 0.681568,0.125556 1.423813,0.301338 2.050992,0.608142 -0.05203,-1.322736 -0.61504,-2.504263 -1.495606,-3.037674 -0.08554,0.679731 -0.253086,1.485909 -0.555386,2.429532 z"
     id="path3001"
     sodipodi:nodetypes="cccc" />
  <path
     style="fill:none;stroke:#ffffff;stroke-width:1.04366;stroke-linecap:butt;stroke-linejoin:miter;stroke-miterlimit:3.42857;stroke-dasharray:none;stroke-opacity:1"
     d="m 19.113072,23.390945 c -0.681568,0.125551 -1.423813,0.301336 -2.050992,0.608138 0.05203,-1.322735 0.61504,-2.504258 1.495607,-3.037674 0.08553,0.679731 0.253085,1.485909 0.555385,2.429536 z"
     id="path3001-7"
     sodipodi:nodetypes="cccc" />
</svg>
