<svg viewBox="0 0 48 48" xmlns="http://www.w3.org/2000/svg">
    <style>
        .a{fill:none;stroke:#FFFFFF;stroke-linecap:round;stroke-linejoin:round}
    </style>
    <ellipse class="a" cx="33.5" cy="22.6" rx="9.2" ry="17.7" transform="matrix(0.932 -0.3624 0.3624 0.932 -5.9128 13.6766)"/>
    <path class="a" d="M37.5,39.4L9.6,37.9c-3.2,0-5.8-2.6-5.8-5.8c0-1.6,0.8-3.2,1.8-4.3L25.5,7.1"/>
    <path class="a" d="M19.3,38.4c-2-0.2-4.7-3.3-6.4-7.7c-1.7-4.3-1.8-8.3-0.6-9.9"/>
    <path class="a" d="M26.2,28.7"/>
    <path class="a" d="M39.6,20.8l-9.9,8.6c2.9,5.1,6.6,8.1,9.2,7.1C42.1,35.2,42.4,28.2,39.6,20.8z"/>
    <path class="a" d="M37.9,16.9l-10,8.7c-0.1-0.2-0.2-0.5-0.3-0.8c-3-7.7-2.7-14.9,0.5-16.2C30.9,7.6,34.9,11.2,37.9,16.9z"/>
    <path class="a" d="M19.8,38.6L19.8,38.6c0,2.1-1.7,3.7-3.9,3.7S12,40.7,12,38.7c0-0.2,0-0.4,0-0.5"/>
</svg>