<svg width="48" height="48" xmlns="http://www.w3.org/2000/svg" xmlns:svg="http://www.w3.org/2000/svg" enable-background="new 0 0 48.0 48.0" version="1.1" xml:space="preserve">

 <g class="layer">
  <title>Layer 1</title>
  <path d="m14.59,13.43c2.07,-2.08 7.25,-2.08 8.91,3.57c3.52,-6.68 9.74,-8.24 12.85,-3.57" fill="#000000" fill-opacity="0" fill-rule="nonzero" id="svg_1" stroke="#FFFFFF" stroke-linecap="round" stroke-linejoin="round" stroke-opacity="1" stroke-width="1"/>
  <path d="m33.98,22.75c2.13,0 3.86,2.2 3.86,4.92c0,2.72 -1.73,4.92 -3.86,4.92c-2.12,0 -3.85,-2.2 -3.85,-4.92c0,-2.72 1.73,-4.92 3.85,-4.92z" fill="#000000" fill-opacity="0" fill-rule="nonzero" id="svg_2" stroke="#FFFFFF" stroke-linecap="round" stroke-linejoin="round" stroke-opacity="1" stroke-width="1"/>
  <path d="m18.74,23.01c1.47,0 2.67,1.97 2.67,4.4c0,2.43 -1.2,4.4 -2.67,4.4c-1.48,0 -2.68,-1.97 -2.68,-4.4c0,-2.43 1.2,-4.4 2.68,-4.4z" fill="#000000" fill-opacity="0" fill-rule="nonzero" id="svg_3" stroke="#FFFFFF" stroke-linecap="round" stroke-linejoin="round" stroke-opacity="1" stroke-width="1"/>
  <path d="m31.69,17.05c4.86,0 8.8,4.52 8.8,10.1c0,5.58 -3.94,10.1 -8.8,10.1c-4.87,0 -8.81,-4.52 -8.81,-10.1c0,-5.58 3.94,-10.1 8.81,-10.1z" fill="#000000" fill-opacity="0" fill-rule="nonzero" id="svg_4" stroke="#FFFFFF" stroke-linecap="round" stroke-linejoin="round" stroke-opacity="1" stroke-width="1"/>
  <path d="m23.66,31.56c-3.89,8.28 -17.87,7.25 -15.97,-6.74c1.72,-8.29 13.12,-10.36 15.78,-1.77" fill="#000000" fill-opacity="0" fill-rule="nonzero" id="svg_5" stroke="#FFFFFF" stroke-linecap="round" stroke-linejoin="round" stroke-opacity="1" stroke-width="1"/>
 </g>
</svg>