<?xml version="1.0" encoding="UTF-8" standalone="no"?>
<svg
   viewBox="0 0 48 48"
   version="1.1"
   id="svg8"
   xml:space="preserve"
   xmlns="http://www.w3.org/2000/svg"
   xmlns:svg="http://www.w3.org/2000/svg"><defs
     id="defs4"><style
       id="style2">.a{fill:none;stroke:#fff;stroke-linecap:round;stroke-linejoin:round;}</style><style
       id="style822">.cls-1{fill:none;stroke:#000;stroke-linecap:round;stroke-linejoin:round;}</style><style
       id="style913">.cls-1{fill:none;stroke:#fff;stroke-linecap:round;stroke-linejoin:round;}</style></defs><path
     class="a"
     d="m 40.5,5.5 h -33 a 2,2 0 0 0 -2,2 v 33 a 2,2 0 0 0 2,2 h 33 a 2,2 0 0 0 2,-2 v -33 a 2,2 0 0 0 -2,-2 z"
     id="path6"
     style="display:inline;fill:none;fill-opacity:1" /><path
     style="font-variation-settings:normal;opacity:1;vector-effect:none;fill:none;fill-opacity:1;stroke:#ffffff;stroke-width:1;stroke-linecap:round;stroke-linejoin:round;stroke-miterlimit:4;stroke-dasharray:none;stroke-dashoffset:0;stroke-opacity:1;-inkscape-stroke:none;stop-color:#000000;stop-opacity:1"
     d="m 26.615333,13.202373 4.454396,4.37974 -11.422169,11.496825 -5.773296,1.26913 1.592634,-5.748414 z"
     id="path252" /><path
     style="font-variation-settings:normal;opacity:1;vector-effect:none;fill:none;fill-opacity:1;stroke:#ffffff;stroke-width:1;stroke-linecap:round;stroke-linejoin:round;stroke-miterlimit:4;stroke-dasharray:none;stroke-dashoffset:0;stroke-opacity:1;-inkscape-stroke:none;stop-color:#000000;stop-opacity:1"
     d="m 14.396847,32.786787 c 7.837386,1.01256 12.475099,-0.610915 14.458125,-4.205548 0.656638,-1.190285 -0.71928,-2.872081 -2.339178,-0.945627 -2.155062,2.562893 -0.61781,8.827875 4.927209,2.388952 -1.094245,3.288436 -0.131041,3.393645 2.28941,1.244243"
     id="path254" /></svg>
