<?xml version="1.0" encoding="UTF-8"?>
<svg version="1.1" viewBox="0 0 48 48" xml:space="preserve" xmlns="http://www.w3.org/2000/svg"><defs><style>.cls-1{fill:none;stroke:#000;stroke-linecap:round;stroke-linejoin:round;}</style><style>.a{fill:none;stroke:#fff;stroke-linecap:round;stroke-linejoin:round;}</style><style>.a{fill:none;stroke:#fff;stroke-linecap:round;stroke-linejoin:round;}</style></defs><path d="m21.222 25.223c4.5716-10.226 3.1385-14.498 1.3553-14.209-1.9444 0.31464-3.0217 5.9876 2.8814 13.54 5.5648 7.1198 12.111 6.6191 12.582 4.8232 0.4963-1.8896-3.4485-3.5717-14.262-1.0882-11.395 2.6168-14.626 6.6763-13.254 8.2827 1.3486 1.5793 6.0534-0.96015 10.698-11.349z" fill="none" stroke="#fff" stroke-linecap="round" stroke-linejoin="round"/><path class="a" d="m40.5 5.5h-33a2 2 0 0 0-2 2v33a2 2 0 0 0 2 2h33a2 2 0 0 0 2-2v-33a2 2 0 0 0-2-2z"/><path class="st5" transform="translate(-199.62 -48.597)" d="m234.4 64.2c0.4 0.3 0.8 0.4 1.6 0.4h0.4c0.7 0 1.3-0.6 1.3-1.3v0c0-0.7-0.6-1.3-1.3-1.3h-0.9c-0.7 0-1.3-0.6-1.3-1.3v0c0-0.7 0.6-1.3 1.3-1.3h0.4c0.9 0 1.3 0.1 1.6 0.4" fill="none" stroke="#fff" stroke-linecap="round" stroke-linejoin="round" stroke-miterlimit="10"/></svg>
