<svg width="150" height="150" viewBox="0 0 48 48" fill="none" xmlns="http://www.w3.org/2000/svg">
<path fill-rule="evenodd" clip-rule="evenodd" d="M33 12C33 13.6569 31.6569 15 30 15C28.3431 15 27 13.6569 27 12C27 10.3431 28.3431 9 30 9C31.6569 9 33 10.3431 33 12ZM32 12C32 13.1046 31.1046 14 30 14C28.8954 14 28 13.1046 28 12C28 10.8954 28.8954 10 30 10C31.1046 10 32 10.8954 32 12Z" fill="white"/>
<path fill-rule="evenodd" clip-rule="evenodd" d="M36 12C36 14.4166 32.8089 18.6269 31.0811 20.7294C30.5145 21.419 29.4855 21.419 28.9189 20.7294C27.1911 18.6269 24 14.4166 24 12C24 8.68629 26.6863 6 30 6C33.3137 6 36 8.68629 36 12ZM35 12C35 12.408 34.8589 12.9794 34.5541 13.6967C34.2557 14.3987 33.8318 15.1685 33.3412 15.9514C32.3601 17.5168 31.1608 19.0575 30.3085 20.0945C30.142 20.2973 29.858 20.2973 29.6915 20.0945C28.8392 19.0575 27.6399 17.5168 26.6588 15.9514C26.1682 15.1685 25.7443 14.3987 25.4459 13.6967C25.1411 12.9794 25 12.408 25 12C25 9.23858 27.2386 7 30 7C32.7614 7 35 9.23858 35 12Z" fill="white"/>
<path d="M5 37C11.1667 30.5 29 19.012 43 29.412" stroke="white" stroke-linecap="round"/>
<path d="M20 27C16.5 24.5 14 22 5 22" stroke="white" stroke-linecap="round"/>
<path d="M6 41C9 42.1667 16.1 42.4 20.5 38C26 32.5 34.2322 38.6464 36 39C43.5 40.5 46.5 32 31 27" stroke="white" stroke-linecap="round" stroke-linejoin="round" stroke-dasharray="2 4"/>
</svg>
