<svg xmlns="http://www.w3.org/2000/svg" xml:space="preserve" width="48" height="48"><path d="M40.274 5.726h-33a2 2 0 0 0-2 2v33a2 2 0 0 0 2 2h33a2 2 0 0 0 2-2v-33a2 2 0 0 0-2-2zM26.322 23.993a7.356 1.26 0 0 1-7.357 1.259 7.356 1.26 0 0 1-7.356-1.26 7.356 1.26 0 0 1 7.356-1.259 7.356 1.26 0 0 1 7.357 1.26zM7.346 28.104l6.312-8.208h6.199M30.784 24a5.228 4.484 0 0 1-5.229 4.484A5.228 4.484 0 0 1 20.327 24a5.228 4.484 0 0 1 5.228-4.484A5.228 4.484 0 0 1 30.784 24Zm-10.927 4.104h-4.863v-8.208m17.88 8.186v-8.164l6.914 8.164v-8.164" style="fill:none;stroke:#fff;stroke-width:1;stroke-linecap:round;stroke-linejoin:round;stroke-dasharray:none;stroke-opacity:1"/></svg>