<svg width="48" height="48" version="1.1" viewBox="0 0 48 48" xml:space="preserve" xmlns="http://www.w3.org/2000/svg"><g fill="none" stroke="#fff" stroke-linecap="round" stroke-width="1.5"><path d="m21.672 4.4766-15.765 7.1386a0.36743 0.36743 119.88 0 0-0.21393 0.37233l2.1078 20.476a0.49161 0.49161 55.834 0 0 0.26168 0.38555l18.141 9.4617a0.37397 0.37397 172.27 0 0 0.42805-0.05814l12.722-11.869a0.70684 0.70684 116.46 0 0 0.22085-0.44366l2.0513-19.709a0.31475 0.31475 55.891 0 0-0.22715-0.33538l-19.231-5.4561a0.72298 0.72298 175.74 0 0-0.49556 0.036924z" stroke-linejoin="round"/><path d="m5.7978 11.902 21.005 7.6668-0.3075 22.76"/><path d="m41.488 10.216-14.644 9.5097"/></g></svg>
