<?xml version="1.0" encoding="UTF-8" standalone="no"?>
<!-- Created with Inkscape (http://www.inkscape.org/) -->

<svg
   width="48mm"
   height="48mm"
   viewBox="0 0 48 48"
   version="1.1"
   id="svg1"
   xml:space="preserve"
   inkscape:version="1.3.2 (091e20ef0f, 2023-11-25)"
   sodipodi:docname="Affluances.svg"
   xmlns:inkscape="http://www.inkscape.org/namespaces/inkscape"
   xmlns:sodipodi="http://sodipodi.sourceforge.net/DTD/sodipodi-0.dtd"
   xmlns="http://www.w3.org/2000/svg"
   xmlns:svg="http://www.w3.org/2000/svg"><sodipodi:namedview
     id="namedview1"
     pagecolor="#505050"
     bordercolor="#ffffff"
     borderopacity="1"
     inkscape:showpageshadow="0"
     inkscape:pageopacity="0"
     inkscape:pagecheckerboard="1"
     inkscape:deskcolor="#d1d1d1"
     inkscape:document-units="mm"
     inkscape:zoom="2.8284271"
     inkscape:cx="89.979338"
     inkscape:cy="70.180348"
     inkscape:window-width="1024"
     inkscape:window-height="1243"
     inkscape:window-x="0"
     inkscape:window-y="0"
     inkscape:window-maximized="1"
     inkscape:current-layer="layer1" /><defs
     id="defs1" /><g
     inkscape:label="Layer 1"
     inkscape:groupmode="layer"
     id="layer1"><path
       style="color:#000000;fill:none;fill-opacity:0.611587;stroke:#ffffff;stroke-width:0.264583;stroke-linejoin:round;stroke-dasharray:none;stroke-opacity:0.9249481"
       d="m 24.050575,2.7988281 0.0031,8.9351929 c 8.913474,0.09024 12.257105,7.993622 12.314443,12.185984 0.02951,2.157257 -0.906479,4.785751 -1.69915,6.05169 l 7.65124,4.525769 c 1.808192,-3.113789 2.84563,-6.724573 2.84563,-10.56387 v -0.0039 -0.01758 -0.002 C 45.153069,12.298242 35.652355,2.7892323 24.050575,2.7988281 Z"
       id="path4-0"
       sodipodi:nodetypes="ccsccsccsc" /><path
       style="fill:none;fill-opacity:0.682755;stroke:#ffffff;stroke-width:0.264583;stroke-linejoin:round;stroke-dasharray:none;stroke-opacity:0.9249481"
       d="m 24.034172,6.8414182 c -8.447104,0 -17.1623779,6.6541458 -17.134464,17.2451608 0.027914,10.591015 9.026632,17.0591 17.0591,17.0591 8.032468,0 13.628479,-5.557729 15.055036,-8.604331 l -4.345125,-2.566373 c -1.247959,2.615264 -5.128901,6.27391 -10.457632,6.27391 -5.328731,0 -12.301229,-4.225532 -12.301229,-11.887291 0,-7.661759 6.377909,-12.812707 12.128024,-12.629557 z"
       id="path38"
       sodipodi:nodetypes="czzcczzcc" /><path
       style="fill:none;fill-opacity:0.682755;stroke:#ffffff;stroke-width:0.264583;stroke-linejoin:round;stroke-dasharray:none;stroke-opacity:0.9249481"
       d="m 30.706459,28.109555 h -2.830674 l -3.793211,-10.088998 -3.724579,10.088968 -2.2778,-0.02374"
       id="path39"
       sodipodi:nodetypes="ccccc" /><path
       style="fill:none;fill-opacity:0.682755;stroke:#ffffff;stroke-width:0.264583;stroke-linejoin:round;stroke-dasharray:none;stroke-opacity:0.9249481"
       d="m 21.687568,24.821815 h 4.833437"
       id="path40"
       sodipodi:nodetypes="cc" /><path
       style="fill:none;fill-opacity:0.682755;stroke:#ffffff;stroke-width:0.264583;stroke-linejoin:round;stroke-dasharray:none;stroke-opacity:0.9249481"
       d="M 17.173596,28.082119 H 16.898935 16.321193"
       id="path41"
       sodipodi:nodetypes="ccc" /><path
       style="fill:none;fill-opacity:0.682755;stroke:#ffffff;stroke-width:0.264583;stroke-linejoin:round;stroke-dasharray:none;stroke-opacity:0.9249481"
       d="M 14.945835,28.082119 H 14.01697"
       id="path42"
       sodipodi:nodetypes="cc" /><path
       id="path43"
       style="fill:none;fill-opacity:0.682755;stroke:#ffffff;stroke-width:0.249181;stroke-linejoin:round;stroke-opacity:0.9249481"
       d="m 35.087192,23.912453 c 0,6.063297 -4.91439,10.979038 -10.977687,10.980705 -6.063297,0.0017 -10.98039,-4.91137 -10.983724,-10.974667 -0.0033,-6.063297 4.908351,-10.98174 10.971647,-10.986741 6.063296,-0.005 10.983089,4.905332 10.989757,10.968626 z"
       sodipodi:nodetypes="cssscc" /></g></svg>
