<?xml version="1.0" encoding="UTF-8"?>
<svg version="1.1" viewBox="0 0 48 48" xml:space="preserve" xmlns="http://www.w3.org/2000/svg"><defs><style>.a{fill:none;stroke:#fff;stroke-linecap:round;stroke-linejoin:round;}</style></defs><path d="m20 38.92c-1.0773-0.42289-11.439-6.2991-11.969-6.7883-1.6613-1.5307-1.9426-5.1189 0-6.2633l6.1969-3.6507c6.0641-3.4092 6.717-3.6643 8.2938-3.2397 1.1417 0.30741 2.3939 1.2708 2.8734 2.2106 0.22301 0.43713 0.47295 1.4037 0.55543 2.148 0.24521 2.2127 0.26744 2.2091 5.9107-0.96487 5.0461-2.8381 5.4383-3.1758 4.6155-3.974-0.20694-0.20075-2.4012-1.5068-4.8762-2.9022-3.8484-2.1699-4.5724-2.512-5-2.3629-0.44027 0.15353-0.51204 0.31724-0.60079 1.3704-0.11735 1.3926-0.26796 1.6961-0.8418 1.6961-0.55933 0-2.8802-1.3104-3.035-1.7136-0.24092-0.62783-0.10725-2.2006 0.25476-2.9976 0.50779-1.118 1.8333-2.2035 3.0458-2.4944 1.1335-0.27192 2.1134-0.13703 3.2623 0.44906 1.4932 0.76178 10.009 5.5876 10.758 6.0967 0.96014 0.65231 1.7566 2.221 1.7566 3.4598 0 1.2386-0.79647 2.8074-1.7566 3.46-1.9216 1.3061-11.554 6.5236-12.266 6.6438-1.8293 0.30906-4.0193-0.87383-4.8-2.5927-0.20264-0.44614-0.37042-1.2697-0.37283-1.8302-0.0045-1.0432-0.39484-1.6851-1.0201-1.6776-0.15634 2e-3 -2.3993 1.1962-4.9843 2.6541-4.6836 2.6415-4.7 2.6531-4.7 3.3268 0 0.67338 0.01866 0.68663 4.7 3.3384 2.585 1.4642 4.8436 2.6657 5.019 2.6698 0.59572 0.0141 0.95604-0.65582 1.0196-1.8956 0.06003-1.1706 0.07453-1.1979 0.66138-1.2441 0.73997-0.0583 2.6884 1.0638 3.0576 1.7609 0.49923 0.94271-0.02259 3.0462-1.031 4.1558-1.0382 1.1425-3.3282 1.7004-4.7266 1.1514z" fill="none" stroke="#fff"/></svg>
