<?xml version="1.0" encoding="UTF-8" standalone="no"?>
<svg
   id="Layer_2"
   data-name="Layer 2"
   viewBox="0 0 48 48"
   version="1.1"
   xmlns="http://www.w3.org/2000/svg"
   xmlns:svg="http://www.w3.org/2000/svg">
  <defs
     id="defs4">
    <style
       id="style2">.cls-1{fill:none;stroke:#fff;stroke-linecap:round;stroke-linejoin:round;}</style>
  </defs>
  <path
     class="cls-1"
     d="m 39.23,26 c 0.08712,-0.663217 0.133868,-1.331114 0.14,-2 -0.0061,-0.668886 -0.05288,-1.336783 -0.14,-2 l 4.33,-3.39 c 0.404855,-0.309238 0.51252,-0.873401 0.25,-1.31 l -4.1,-7.11 C 39.464261,9.7486808 38.927993,9.5599144 38.46,9.75 l -5.11,2.06 c -1.063306,-0.811518 -2.226081,-1.483642 -3.46,-2 L 29.12,4.38 C 29.04975,3.8829837 28.621932,3.5150599 28.12,3.52 H 19.9 c -0.501932,-0.00494 -0.92975,0.3629837 -1,0.86 l -0.77,5.43 c -1.23551,0.513141 -2.398687,1.185498 -3.46,2 L 9.54,9.75 C 9.0720069,9.5599144 8.5357386,9.7486808 8.29,10.19 l -4.1,7.11 c -0.2625195,0.436599 -0.1548548,1.000762 0.25,1.31 L 8.76,22 c -0.086775,0.663252 -0.1335259,1.331127 -0.14,2 0.00613,0.668886 0.052885,1.336783 0.14,2 L 4.44,29.39 C 4.0351452,29.699238 3.9274805,30.263401 4.19,30.7 l 4.1,7.11 c 0.2457386,0.441319 0.7820069,0.630086 1.25,0.44 l 5.11,-2.06 c 1.063306,0.811518 2.226081,1.483642 3.46,2 l 0.77,5.43 c 0.07025,0.497016 0.498068,0.86494 1,0.86 h 8.2 c 0.501932,0.0049 0.92975,-0.362984 1,-0.86 l 0.77,-5.43 c 1.23551,-0.513141 2.398687,-1.185498 3.46,-2 l 5.11,2.06 c 0.467993,0.190086 1.004261,0.0013 1.25,-0.44 l 4.1,-7.11 c 0.26252,-0.436599 0.154855,-1.000762 -0.25,-1.31 z"
     id="path6" />
  <circle
     class="cls-1"
     cx="24"
     cy="24"
     r="12" />
  <ellipse
     class="cls-1"
     cx="18.5"
     cy="29.5"
     rx="4"
     ry="4" />
  <path
     class="cls-1"
     d="m 12.670888,20.171471 a 11,11 0 0 1 13.607287,1.550354 11,11 0 0 1 1.550354,13.607287" />
</svg>
