<?xml version="1.0" encoding="UTF-8"?>
<svg version="1.1" viewBox="0 0 48 48" xmlns="http://www.w3.org/2000/svg">
 <defs>
  <style>.a{fill:none;stroke:#fff;stroke-linecap:round;stroke-linejoin:round;}</style>
 </defs>
 <path class="a" d="m40.5 5.5h-33a2 2 0 0 0-2 2v33a2 2 0 0 0 2 2h33a2 2 0 0 0 2-2v-33a2 2 0 0 0-2-2z"/>
 <g transform="matrix(.97112 0 0 .97036 -101.98 -98.132)" enable-background="new 0 0 380 200" fill="none" stroke="#fff" stroke-linecap="round" stroke-linejoin="round" stroke-miterlimit="10" stroke-width="1.0301">
  <path class="st0" d="m123.6 121.2v6c0 1.1-0.9 2-2 2-0.6 0-1.1-0.2-1.4-0.6"/>
  <path class="st0" d="m121.6 121.2c1.1 0 2 0.9 2 2v1.3c0 1.1-0.9 2-2 2s-2-0.9-2-2v-1.3c0-1.1 0.9-2 2-2z"/>
 </g>
 <path class="st0" d="m23.709 24.619c-1.0682 0-1.9422-0.87333-1.9422-1.9407v-1.2615c0-1.0674 0.87401-1.9407 1.9422-1.9407 1.0682 0 1.9422 0.87333 1.9422 1.9407v1.2615c0 1.0674-0.87401 1.9407-1.9422 1.9407z" enable-background="new 0 0 380 200" fill="none" stroke="#fff" stroke-linecap="round" stroke-linejoin="round" stroke-miterlimit="10"/>
 <g transform="matrix(.97112 0 0 .97036 -50.332 -98.132)" enable-background="new 0 0 380 200" stroke-width="1.0301">
  <g>
   <path class="st0" d="m63.2 124.5c0 1.1-0.9 2-2 2s-2-0.9-2-2v-1.3c0-1.1 0.9-2 2-2s2 0.9 2 2" fill="none" stroke="#fff" stroke-linecap="round" stroke-linejoin="round" stroke-miterlimit="10" stroke-width="1.0301"/>
  </g>
  <line class="st0" x1="63.2" x2="63.2" y1="126.5" y2="121.2" fill="none" stroke="#fff" stroke-linecap="round" stroke-linejoin="round" stroke-miterlimit="10"/>
 </g>
 <g transform="matrix(.97112 0 0 .97036 -57.262 -98.132)" enable-background="new 0 0 380 200" stroke-width="1.0301">
  <g>
   <path class="st0" d="m93.2 123.2c0-1.1-0.9-2-2-2s-2 0.9-2 2v1.3c0 1.1 0.9 2 2 2s2-0.9 2-2" fill="none" stroke="#fff" stroke-linecap="round" stroke-linejoin="round" stroke-miterlimit="10" stroke-width="1.0301"/>
  </g>
  <line class="st0" x1="93.2" x2="93.2" y1="126.5" y2="118.5" fill="none" stroke="#fff" stroke-linecap="round" stroke-linejoin="round" stroke-miterlimit="10"/>
 </g>
 <g transform="matrix(.97112 0 0 .97036 -20.533 -98.132)" enable-background="new 0 0 380 200" stroke-width="1.0301">
  <g>
   <path class="st0" d="m63.2 124.5c0 1.1-0.9 2-2 2s-2-0.9-2-2v-1.3c0-1.1 0.9-2 2-2s2 0.9 2 2" fill="none" stroke="#fff" stroke-linecap="round" stroke-linejoin="round" stroke-miterlimit="10" stroke-width="1.0301"/>
  </g>
  <line class="st0" x1="63.2" x2="63.2" y1="126.5" y2="121.2" fill="none" stroke="#fff" stroke-linecap="round" stroke-linejoin="round" stroke-miterlimit="10"/>
 </g>
 <ellipse cx="9.1003" cy="30.673" rx=".97112" ry=".97036" fill="#fff"/>
 <ellipse cx="16.113" cy="30.673" rx=".97112" ry=".97036" fill="#fff"/>
 <ellipse cx="23.709" cy="30.673" rx=".97112" ry=".97036" fill="#fff"/>
 <ellipse cx="31.304" cy="30.673" rx=".97112" ry=".97036" fill="#fff"/>
 <ellipse cx="38.9" cy="30.673" rx=".97112" ry=".97036" fill="#fff"/>
</svg>
