<?xml version="1.0" encoding="UTF-8"?>
<!-- Created with Inkscape (http://www.inkscape.org/) -->
<svg version="1.1" viewBox="0 0 48 48" xmlns="http://www.w3.org/2000/svg">
 <g fill="none" stroke="#fff" stroke-linecap="round" stroke-linejoin="round">
  <path class="a" d="m15.38 20.71h3.16"/>
  <path class="a" d="m15.38 10.17h3.16"/>
  <path class="a" d="m16.96 10.17v10.53"/>
  <path class="a" d="m11.29 17.15h-4.477"/>
  <path class="a" d="m12.48 20.71-3.423-10.53-3.555 10.53"/>
  <path class="a" d="m7.212 37.83h-1.712v-10.53h1.712c2.897 0 5.267 2.37 5.267 5.267 0 2.897-2.37 5.267-5.267 5.267z"/>
  <path class="a" d="m28.81 34.27h3.555c0 1.975-1.58 3.555-3.555 3.555-1.975 0-3.555-1.58-3.555-3.555v-3.423c0-1.975 1.58-3.555 3.555-3.555 1.975 0 3.555 1.58 3.555 3.555"/>
  <path class="a" d="m35.52 37.83v-10.53l6.979 10.53v-10.53"/>
  <path class="a" d="m15.38 37.83v-10.53l6.979 10.53v-10.53"/>
 </g>
</svg>
