<?xml version="1.0" encoding="utf-8"?>
<!-- Generator: Adobe Illustrator 26.0.2, SVG Export Plug-In . SVG Version: 6.00 Build 0)  -->
<svg version="1.1" xmlns="http://www.w3.org/2000/svg" xmlns:xlink="http://www.w3.org/1999/xlink" x="0px" y="0px"
	 viewBox="0 0 48 48" style="enable-background:new 0 0 48 48;" xml:space="preserve">
<g id="Layer_1" style="display:none;">
	
		<rect x="-1841.049" y="-83.181" style="display:inline;fill:#282828;stroke:#FFFFFF;stroke-width:0;stroke-miterlimit:10;" width="3706.467" height="4077.28"/>
</g>
<g id="Layer_2">
	<g>
		<path style="fill:none;stroke:#FFFFFF;stroke-linecap:round;stroke-miterlimit:10;" d="M12.602,22.744v-1.63
			c0-4.663,3.815-8.478,8.478-8.478h0c3.441,0,6.42,2.077,7.745,5.04"/>
		<path style="fill:none;stroke:#FFFFFF;stroke-linecap:round;stroke-miterlimit:10;" d="M5.453,34.708L5.453,34.708
			c-2.099,0-3.817-1.718-3.817-3.817v-2.225c0-2.099,1.718-3.817,3.817-3.817h0c2.099,0,3.817,1.718,3.817,3.817v2.225
			C9.27,32.99,7.553,34.708,5.453,34.708z"/>
		
			<line style="fill:none;stroke:#FFFFFF;stroke-linecap:round;stroke-miterlimit:10;" x1="9.27" y1="24.849" x2="9.27" y2="34.708"/>
		
			<line style="fill:none;stroke:#FFFFFF;stroke-linecap:round;stroke-miterlimit:10;" x1="12.742" y1="24.849" x2="12.742" y2="34.708"/>
		
			<line style="fill:none;stroke:#FFFFFF;stroke-linecap:round;stroke-miterlimit:10;" x1="29.097" y1="24.245" x2="29.097" y2="35.309"/>
		
			<line style="fill:none;stroke:#FFFFFF;stroke-linecap:round;stroke-miterlimit:10;" x1="32.03" y1="24.849" x2="38.459" y2="24.849"/>
		
			<line style="fill:none;stroke:#FFFFFF;stroke-linecap:round;stroke-miterlimit:10;" x1="16.261" y1="24.849" x2="16.261" y2="34.708"/>
		<path style="fill:none;stroke:#FFFFFF;stroke-linecap:round;stroke-miterlimit:10;" d="M16.261,28.666
			c0-2.099,1.718-3.817,3.817-3.817h0c0.262,0,0.517,0.027,0.765,0.077"/>
		<path style="fill:none;stroke:#FFFFFF;stroke-linecap:round;stroke-miterlimit:10;" d="M40.049,21.677
			c-0.373-1.007-1.344-1.73-2.477-1.73h-0.227c-1.452,0-2.639,1.188-2.639,2.639v12.777"/>
		
			<line style="fill:none;stroke:#FFFFFF;stroke-linecap:round;stroke-miterlimit:10;" x1="40.692" y1="24.849" x2="46.083" y2="24.849"/>
		<path style="fill:none;stroke:#FFFFFF;stroke-linecap:round;stroke-miterlimit:10;" d="M46.364,34.862
			c-0.172,0.041-0.351,0.062-0.535,0.062h-0.2c-1.279,0-2.326-1.047-2.326-2.326V21.339"/>
		<path style="fill:none;stroke:#FFFFFF;stroke-linecap:round;stroke-miterlimit:10;" d="M26.226,34.83
			c-0.047,0.002-0.093,0.004-0.14,0.004h-0.227c-1.452,0-2.639-1.188-2.639-2.639V19.393"/>
		<circle style="fill:none;stroke:#FFFFFF;stroke-linecap:round;stroke-miterlimit:10;" cx="29.097" cy="20.597" r="0.186"/>
	</g>
</g>
</svg>
