<svg xmlns="http://www.w3.org/2000/svg" xml:space="preserve" id="svg13" version="1.1" viewBox="0 0 48 48">
  <defs id="defs1">
    <style id="style1">
      .cls-1{fill:#fff}
    </style>
  </defs>
  <g id="g2">
    <g id="g1" style="fill:none;stroke:#fff;stroke-opacity:1;stroke-width:7.31690167;stroke-dasharray:none" transform="matrix(.137 0 0 .137 -3.0944141 .63212055)">
      <g id="Layer_6" data-name="Layer 6" style="fill:none;stroke:#fff;stroke-opacity:1;stroke-width:7.31690167;stroke-dasharray:none">
        <path id="path1" d="M115.2 131.89c6.26-6.54 20.19-20.63 42.39-26.14 15.79-3.92 28.51-1.28 33.51 0 83.72 21.41 116.03 201.78 77.79 226.32-10.28 6.6-26.86 2.7-36.77-3.3-32.63-19.78-29.3-72.87-44.44-73.73-5.11-.29-7.15 5.8-20.91 24.94-19.63 27.3-31.49 43.44-49.21 50.87-2.53 1.06-26.91 12.07-41.84 1.23-38.55-28-2.96-155.84 39.49-200.18zm56.31 10.45c-27.39-.52-46.38 38.21-37.98 54.55 10.09 19.62 65.5 18.26 74.77-3.3 7.21-16.78-11.38-50.77-36.79-51.24z" class="cls-1" style="fill:none;stroke:#fff;stroke-opacity:1;stroke-width:7.31690167;stroke-dasharray:none"/>
      </g>
      <g id="Layer_4" data-name="Layer 4" style="fill:none;stroke:#fff;stroke-opacity:1;stroke-width:7.31690167;stroke-dasharray:none">
        <path id="path2" d="M68.93 86.51c-5.293348 24.73733 253.22707 112.12862 267.56 89.66 9.24-14.87-64.9-83.62-163.53-97.57-39.06-5.52-100.95-5.14-104.03 7.91Z" class="cls-1" style="fill:none;stroke:#fff;stroke-width:7.3169;stroke-dasharray:none;stroke-opacity:1"/>
      </g>
      <g id="Layer_5" data-name="Layer 5" style="fill:none;stroke:#fff;stroke-opacity:1;stroke-width:7.31690167;stroke-dasharray:none">
        <path id="path3" d="M172.96 78.6c26.97-16.51 23.7-26.64 51.71-45.09C254.74 13.7 273.13 1.57 279.49 6.9c9.72 8.15-24.57441 42.638668-20.70441 98.65867C232.24463 94.50055 213.90282 87.9638 172.96 78.6Z" style="fill:none;stroke:#fff;stroke-width:7.3169;stroke-dasharray:none;stroke-opacity:1;stroke-miterlimit:10"/>
      </g>
    </g>
  </g>
</svg>
