<?xml version="1.0" encoding="UTF-8"?>
<svg enable-background="new 0 0 48.0 48.0" version="1.1" viewBox="0 0 48 48" xml:space="preserve" xmlns="http://www.w3.org/2000/svg">
	<path d="m17.86 21.88c2.63-1.43 5.27-2.85 7.1-2.05 1.84 0.81 2.87 3.85 0.73 7.63s-7.45 8.29-10.93 11.26c-3.47 2.97-5.12 4.38-5.84 2.41-0.71-1.98-0.49-7.35 1.15-11.13 1.65-3.77 4.72-5.95 7.79-8.12z" fill="none" stroke="#fff" stroke-linecap="round" stroke-linejoin="round"/>
	<path d="m24.39 19.47c0.81-0.93 1.61-1.86 1.72-4.47 0.11-2.6-0.48-6.87 0.34-9.28 0.83-2.4 3.07-2.94 4.47-2.75s1.97 1.11 2.06 1.72c0.1 0.61-0.27 0.91 1.03 1.37 1.31 0.47 4.29 1.09 5.16 1.72 0.87 0.64-0.36 1.29-1.72 1.38-1.36 0.08-2.86-0.4-4.12-0.69-1.27-0.29-2.31-0.39-2.41 1.38-0.1 1.76 0.74 5.38 2.06 7.56 1.33 2.18 3.15 2.93 1.38 6.53s-7.14 10.06-11 13.06c-3.87 3-6.23 2.53-8.6 2.06" fill="none" stroke="#fff" stroke-linecap="round" stroke-linejoin="round"/>
	<path d="m20.26 39.06v3.1" fill="none" stroke="#fff" stroke-linecap="round" stroke-linejoin="round"/>
	<path d="m23.01 37.35v3.6" fill="none" stroke="#fff" stroke-linecap="round" stroke-linejoin="round"/>
	<path d="m17.58 44.38q2.34-3.25 6.47 0.18" fill="none" stroke="#fff" stroke-linecap="round" stroke-linejoin="round"/>
	<path d="m21.16 42.85q2.34-3.25 6.46 0.19" fill="none" stroke="#fff" stroke-linecap="round" stroke-linejoin="round"/>
</svg>
