<svg xmlns="http://www.w3.org/2000/svg" xml:space="preserve" id="svg990" width="48" height="48" version="1.1"><defs id="defs987"><style id="style1174">.a{fill:none;stroke:#fff;stroke-linecap:round;stroke-linejoin:round}</style></defs><path id="path1628" d="M24.097 33.206c-1.239-1.092-1.067-3-4.508-3.629H16.41c-.096 1.375-.38 3.46 2.698 4.546.582.205 2.597-.05 3.218.45l2.064 1.664c.624-1.086.878-2.394 3.547-2.25l1.344.002c2.594.004 2.601-3.323 2.574-4.61H28.74c-2.861.49-3.424 2.836-4.642 3.826zm.321-2.533c-.423-1.018-2.813-2.286-2.835-5.11-.018-2.457 2.483-3.538 2.659-4.92 2.146 3.536 2.35 4.515 2.278 5.715-.134 2.26-1.806 2.415-2.102 4.315zM29.4 13.381c2.198 2.53 8.623 9.907 12.128 14.27 2.626 3.268 2.717 7.939.13 8.155h-7.534c.765-.51 3.565-2.688-.584-7.577l-8.564-9.597Zm-1.276-1.187H19.59S10.705 22.383 6.472 27.65c-2.626 3.269-2.717 7.94-.13 8.156h7.534c-.765-.51-3.565-2.688.584-7.577l13.61-16.035m-8.48 0S10.705 22.383 6.472 27.65c-2.626 3.269-2.717 7.94-.13 8.156h7.534c-.765-.51-3.565-2.688.584-7.577l13.637-16.035Z" style="fill:none;stroke:#fff;stroke-width:1;stroke-linecap:round;stroke-linejoin:round;stroke-dasharray:none;stroke-opacity:1;stop-color:#000"/></svg>