<?xml version="1.0" encoding="UTF-8" standalone="no"?>
<!DOCTYPE svg PUBLIC "-//W3C//DTD SVG 1.1//EN" "http://www.w3.org/Graphics/SVG/1.1/DTD/svg11.dtd">
<svg width="48px" height="48px" version="1.1" xmlns="http://www.w3.org/2000/svg" xmlns:xlink="http://www.w3.org/1999/xlink" xml:space="preserve" xmlns:serif="http://www.serif.com/" style="clip-rule:evenodd;stroke-linecap:round;stroke-linejoin:round;stroke-miterlimit:1.5;">
    <rect id="alchemy_stars" x="0" y="0" width="48" height="48" style="fill:none;"/>
    <path d="M12.232,26.326C13.344,28.298 12.732,29.962 13.917,32.063C14.486,33.073 15.738,33.418 16.716,33.895C17.509,34.283 18.235,34.858 18.978,35.331C19.505,35.667 20.158,36.137 20.804,36.173C22.28,36.255 23.395,35.155 24.411,34.299C25.317,33.535 26.375,32.934 27.212,32.088C28.327,30.961 29.236,29.511 30.437,28.486C31.297,27.752 32.58,28.676 33.28,27.987C34.039,27.242 34.904,25.851 35.334,24.888C35.508,24.498 35.788,24.003 35.545,23.583C35.224,23.029 34.616,22.725 34.129,22.339C33.984,22.225 33.09,23.802 32.319,24.888C31.716,25.737 30.467,26.584 29.306,26.952C27.823,27.423 25.72,27.325 25.1,26.536" style="fill:none;stroke:white;stroke-width:1px;"/>
    <path d="M12.056,25.313C12.086,24.579 12.333,23.501 13.02,22.972C14.804,21.6 16.637,23.316 16.599,25.226C16.584,26 16.366,26.982 15.829,27.571C14.993,28.488 13.553,28.298 12.838,27.377C12.361,26.763 12.025,26.047 12.056,25.313Z" style="fill:none;stroke:white;stroke-width:1px;"/>
    <path d="M16.184,23.644C15.536,22.845 14.579,23.014 14.065,24.261C13.434,25.795 14.176,27.721 16.044,27.289" style="fill:none;stroke:white;stroke-width:1px;"/>
    <path d="M26.229,20.952C25.581,20.154 24.378,20.58 23.865,21.828C23.234,23.362 24.279,25.313 26.147,24.881" style="fill:none;stroke:white;stroke-width:1px;"/>
    <path d="M22.223,22.81C22.253,22.076 22.5,20.998 23.187,20.469C24.971,19.097 26.804,20.813 26.766,22.723C26.751,23.496 26.533,24.479 25.996,25.068C25.16,25.985 23.72,25.795 23.005,24.874C22.528,24.26 22.192,23.544 22.223,22.81Z" style="fill:none;stroke:white;stroke-width:1px;"/>
    <path d="M18.507,23.859C18.536,24.172 18.56,24.481 18.499,24.792C18.268,25.951 17.218,27.228 18.407,28.2C18.569,28.333 18.753,28.425 18.953,28.483" style="fill:none;stroke:white;stroke-width:1px;"/>
    <path d="M18.909,31.076C19.942,31.076 21.407,31.06 22.082,30.156" style="fill:none;stroke:white;stroke-width:1px;"/>
    <path d="M4.557,28.29C5.869,27.36 6.58,25.783 6.663,24.524C6.741,23.322 6.29,22.3 6.318,21.06C6.342,20.013 6.717,19.029 6.849,17.997C6.965,17.084 6.935,16.159 7.088,15.251C7.371,13.582 7.97,11.944 8.685,10.411C9.113,9.494 9.736,8.666 10.263,7.806C10.851,6.846 11.335,5.838 11.94,4.887C12.338,4.261 12.812,3.36 13.588,3.165C15.17,2.768 17.22,5.25 19.111,4.969C20.66,4.739 20.773,2.568 21.869,2.309C24.401,1.71 29.217,4.402 33.716,7.59C37.067,9.965 41.769,11.393 43.219,12.715C45.382,14.685 47.1,18.347 47.1,18.347" style="fill:none;stroke:white;stroke-width:1px;"/>
    <path d="M47.1,18.347C46.973,18.289 44.676,16.234 43.391,15.53C42.151,14.851 39.389,14.126 39.389,14.126C39.389,14.126 41.1,15.776 41.503,16.204C42.583,17.35 44.457,19.409 44.959,21.142C46.257,25.622 45.873,33.207 45.924,33.292" style="fill:none;stroke:white;stroke-width:1px;"/>
    <path d="M45.924,33.292C45.838,33.219 44.323,31.344 44.235,31.261C43.652,30.706 43.013,29.97 42.288,29.721C42.121,29.664 42.439,31.381 42.529,31.949C42.698,33.018 42.27,33.691 41.531,34.443C41.333,34.646 40.539,35.231 40.268,35.337C40.164,35.378 41.137,34.336 41.202,34.115C41.405,33.425 41.304,32.822 40.848,32.265C39.732,30.901 37.187,30.741 35.616,31.089C35.452,31.126 35.311,31.181 35.164,31.261C33.982,31.896 36.083,32.05 36.22,32.551C36.47,33.457 34.198,33.411 33.316,32.646C33.29,32.624 33.298,33.589 33.277,33.701C33.177,34.214 32.549,34.592 32.078,34.695C32.076,34.696 32.179,33.963 32.206,33.769C32.263,33.349 31.899,32.406 31.438,32.295C31.412,32.289 30.352,34.172 29.899,34.66C29.724,34.849 29.158,34.139 28.991,34.104C28.907,34.086 27.838,34.935 27.517,35.072" style="fill:none;stroke:white;stroke-width:1px;"/>
    <path d="M4.557,28.29C4.987,28.207 6.912,26.704 6.94,26.705C7.006,26.709 7.353,28.169 7.17,28.697C6.624,30.267 5.807,31.727 5.184,33.26C5.021,33.659 4.639,34.742 4.816,35.169C4.842,35.232 6.65,33.39 7.202,32.683C7.203,32.682 8.842,36.235 9.408,37.215C9.441,37.272 9.241,34.25 9.266,34.256C9.693,34.358 12.044,36.871 13.266,37.805C13.268,37.807 13.179,37.205 13.139,37.049C13.009,36.53 12.824,36.03 12.599,35.545C12.508,35.35 12.241,34.981 12.263,34.757C12.274,34.647 13.025,35.036 13.246,35.13C13.983,35.444 14.706,35.786 15.421,36.147C15.672,36.274 16.511,36.763 16.511,36.762C16.534,36.728 15.303,34.839 15.303,34.839C15.323,34.827 18.506,35.314 18.876,35.266" style="fill:none;stroke:white;stroke-width:1px;"/>
    <path d="M27.474,31.814C27.474,32.798 27.506,34.219 27.519,35.204C27.522,35.445 27.399,36.095 27.51,36.287C27.547,36.353 28.575,36.478 28.93,36.463C30.319,36.4 31.629,35.821 33.026,36.287C33.293,36.376 33.551,36.562 33.771,36.732C33.796,36.751 32.973,37.766 33.08,37.88C33.847,38.698 35.2,38.081 36.064,38.683C36.778,39.18 36.032,39.804 36.486,40.421C37.035,41.168 38.028,41.71 38.811,42.169C39.355,42.487 39.998,42.772 40.032,43.494C40.081,44.496 38.818,45.228 38.14,45.775" style="fill:none;stroke:white;stroke-width:1px;"/>
    <path d="M27.515,36.295C27.19,37.115 21.651,38.37 19.347,37.636C19.285,37.617 19.232,37.167 19.231,37.124C19.228,36.604 19.338,36.098 19.305,35.573" style="fill:none;stroke:white;stroke-width:1px;"/>
    <path d="M8.837,38.387C11.11,37.965 13.355,37.945 15.634,37.653C16.705,37.515 18.182,37.361 19.231,37.124" style="fill:none;stroke:white;stroke-width:1px;"/>
    <path d="M0.904,45.775C0.904,45.775 0.792,42.763 1.831,42.66C3.686,42.475 6.792,42.503 7.277,42.117C7.629,41.838 7.657,41.326 7.976,41.011C8.207,40.783 8.532,40.802 8.748,40.618C9.215,40.219 8.883,38.916 8.837,38.387" style="fill:none;stroke:white;stroke-width:1px;"/>
    <path d="M18.734,45.775C19.701,44.532 20.503,44.276 21.69,43.271C22.355,42.707 22.926,41.923 23.723,41.536C24.41,41.202 25.412,41.831 25.997,41.35C26.695,40.777 26.756,39.431 26.735,38.604C26.729,38.382 26.534,37.826 26.628,37.632C26.992,36.881 27.01,36.871 27.515,36.295" style="fill:none;stroke:white;stroke-width:1px;"/>
    <path d="M12.081,24.998C12.62,23.143 12.112,21.793 12.493,19.9C12.627,19.236 12.626,18.557 12.73,17.889C12.763,17.677 12.81,16.817 12.918,16.884C13.106,17 13.649,18.43 13.739,18.62C14.146,19.482 14.21,20.672 14.242,20.74C14.246,20.75 15.534,19.618 15.86,18.819C15.915,18.682 16.267,17.609 16.368,17.571C16.393,17.562 16.752,18.22 16.822,18.455C17.138,19.525 16.906,21.551 17.064,21.542C17.222,21.532 17.413,19.399 17.77,18.399C17.981,17.807 18.603,17.075 18.972,17.064C20.246,17.027 20.629,20.185 19.731,20.975C19.687,21.014 20.52,20.287 20.705,19.9C22.8,15.502 20.62,12.234 20.705,12.056C20.726,12.011 21.568,12.311 21.997,12.775C23.855,14.782 24.201,18.112 24.238,18.046C24.625,17.365 24.192,15.341 24.238,15.329C24.466,15.27 24.942,15.762 25.104,15.914C25.885,16.651 26.54,17.624 26.939,18.62C27.079,18.97 27.448,20.257 27.498,20.213C27.666,20.065 27.721,19.575 27.758,19.368C27.958,18.223 27.426,17.345 27.084,16.312C27.056,16.227 27.468,16.856 27.575,17.025C27.878,17.502 28.192,17.971 28.48,18.458C29.076,19.46 29.655,20.721 29.485,21.921C29.409,22.46 29.14,22.845 28.952,23.335C28.933,23.387 30.071,22.693 30.337,22.443C30.87,21.942 31.277,21.37 31.642,20.74C31.75,20.553 32,19.959 32.194,19.867C32.206,19.861 32.508,20.581 32.535,20.845C32.622,21.696 32.212,22.544 31.785,23.276C31.35,24.023 30.829,24.633 29.924,25.324C28.692,26.265 26.755,27.086 25.104,26.541" style="fill:none;stroke:white;stroke-width:1px;"/>
    <path d="M26.573,7.261C28.491,8.753 33.265,14.648 33.286,14.635C33.349,14.597 32.881,8.93 33.217,7.24" style="fill:none;stroke:white;stroke-width:1px;"/>
    <path d="M26.573,7.261C27.973,7.131 29.436,7.012 30.801,7.24C30.848,7.247 31.183,6.281 31.009,5.765" style="fill:none;stroke:white;stroke-width:1px;"/>
    <path d="M6.852,17.973C7.684,18.71 8.203,19.404 8.724,20.377C8.753,20.431 10.264,12.943 10.711,11.225C10.846,10.709 11.229,10.158 11.283,9.635C11.286,9.602 8.969,11.779 7.902,12.278" style="fill:none;stroke:white;stroke-width:1px;"/>
    <path d="M11.283,9.635C12.455,8.327 13.861,7.189 15.126,6.393C16.405,5.588 17.6,5.118 19.121,4.969C20.243,4.859 21.677,4.908 22.762,5.207C24.111,5.578 25.466,6.403 26.573,7.253" style="fill:none;stroke:white;stroke-width:1px;"/>
</svg>
