<?xml version="1.0" encoding="UTF-8"?>
<!-- Created with Inkscape (http://www.inkscape.org/) -->
<svg width="48" height="48" version="1.1" viewBox="0 0 48 48" xml:space="preserve" xmlns="http://www.w3.org/2000/svg"><defs><style>.a{fill:none;stroke:#fff;stroke-linecap:round;stroke-linejoin:round;}</style></defs><g fill="none" stroke="#fff" stroke-linecap="round" stroke-linejoin="round" stroke-width="1.2036"><path d="m14.45 6.6343s5.2249-0.02186 7.1786 5.3393c0 0 1.6811 6.508-4.9523 9.2685 0 0-8.8674 3.1634-9.8892-6.9514 0 0-0.32377-5.8463 5.4821-8.7233 5.6627-2.8061 11.756-2.3171 11.756-2.3171s16.322-0.77238 17.458 10.45l0.18174 26.988s0.10251 2.5443 2.7831 2.408c0 0-12.247 6.5357-17.835-6.3221 0 0-2.031 7.9577-9.5276 7.8214-7.4966-0.1363-9.8137-2.1354-9.8137-2.1354s-6.8009-4.7496-2.6352-13.721c0 0 2.0941-3.6641 6.906-4.498l8.1327-1.6356s7.3272-1.6592 7.1786-11.222c0 0 0.19181-9.0071-8.269-7.634 0 0-3.2331 0.27893-4.1345 2.8853z"/><path d="m26.861 33.806s-0.057 7.2303-5.0409 9.2029c0 0-1.6801-0.59518-2.3927-3.3535-0.69546-2.6923-2.0496-12.557 1.7301-17.471 0 0 1.5229-0.95652 2.9009-1.8457 0 0 1.5246-0.81906 2.7111-2.2117-0.02413 5.0337 0.10665 10.894 0.09141 15.679z"/></g></svg>
