 <svg width="48" height="48" version="1.1" viewBox="0 0 48 48" xmlns="http://www.w3.org/2000/svg"><defs><style>.cls-1{fill:none;stroke:#fff;stroke-miterlimit:10;}</style></defs><path class="cls-1" d="M35.35924,40.6931c-2.38127-5.26508-6.495-8.32355-10.578-11.428Q19.806,25.48238,14.929,21.57105a17.84836,17.84836,0,0,1-2.39671-2.47181c-3.10633-3.68437-3.07568-7.33875.12268-11.33117,3.10147,6.25969,8.90723,9.65538,14.097,13.73994a120.76138,120.76138,0,0,1,9.29731,8.30514,5.054,5.054,0,0,1,1.06779,6.30665C36.44224,37.48629,36.00971,38.97284,35.35924,40.6931Z"/><path class="cls-1" d="M13.45558,24.69909c2.08855,3.96262,5.41643,5.86476,8.47783,8.08374a3.82235,3.82235,0,0,1,1.48827,4.64423c-.53877,1.63536-1.06047,3.27637-1.62756,5.032-3.10972-2.60785-5.95766-4.95394-8.75614-7.3578a4.81413,4.81413,0,0,1-1.32921-5.91273C12.21879,27.90382,12.712,26.61238,13.45558,24.69909Z"/><path class="cls-1" d="M34.91867,22.41224c-2.81334-2.28917-5.34537-4.48379-8.02239-6.48368-2.01355-1.50425-3.05179-3.221-2.23089-5.74374.50137-1.54076,1.0187-3.07631,1.53871-4.64389,2.98128,2.47053,5.86637,4.76282,8.63424,7.18926,1.88514,1.65262,2.63773,3.69715,1.47548,6.17775C35.73662,20.13988,35.30178,21.43874,34.91867,22.41224Z"/></svg>
