<?xml version="1.0" encoding="utf-8"?>
<svg
	version="1.1"
	xmlns="http://www.w3.org/2000/svg"
	xmlns:xlink="http://www.w3.org/1999/xlink"
	x="0%" y="0%"
	width="100%" height="100%"
	viewBox="0 0 48.0 48.0"
	enable-background="new 0 0 48.0 48.0"
	xml:space="preserve">
	<path
		fill="#FFFFFF"
		stroke="#000000"
		fill-opacity="0.000"
		stroke-opacity="1.000"
		fill-rule="nonzero"
		stroke-width="0.48"
		stroke-linejoin="miter"
		stroke-linecap="square"
		d="M24.04,4.94C34.64,4.94,43.24,13.55,43.24,24.17C43.24,34.80,34.64,43.41,24.04,43.41C13.44,43.41,4.84,34.80,4.84,24.17C4.84,13.55,13.44,4.94,24.04,4.94z"/>
	<path
		fill="#FFFFFF"
		stroke="#000000"
		fill-opacity="0.000"
		stroke-opacity="1.000"
		fill-rule="nonzero"
		stroke-width="0.48"
		stroke-linejoin="miter"
		stroke-linecap="square"
		d="M31.30,20.52C35.24,20.52,38.44,23.65,38.44,27.51C38.44,31.37,35.24,34.50,31.30,34.50C27.36,34.50,24.16,31.37,24.16,27.51C24.16,23.65,27.36,20.52,31.30,20.52z"/>
	<path
		fill="#FFFFFF"
		stroke="#000000"
		fill-opacity="0.000"
		stroke-opacity="1.000"
		fill-rule="nonzero"
		stroke-width="0.48"
		stroke-linejoin="miter"
		stroke-linecap="square"
		d="M16.75,20.52C20.69,20.52,23.89,23.65,23.89,27.51C23.89,31.37,20.69,34.50,16.75,34.50C12.80,34.50,9.61,31.37,9.61,27.51C9.61,23.65,12.80,20.52,16.75,20.52z"/>
	<path
		fill="#FFFFFF"
		stroke="#000000"
		fill-opacity="0.000"
		stroke-opacity="1.000"
		fill-rule="nonzero"
		stroke-width="0.48"
		stroke-linejoin="miter"
		stroke-linecap="square"
		d="M31.30,24.56C32.98,24.56,34.34,25.88,34.34,27.51C34.34,29.14,32.98,30.46,31.30,30.46C29.62,30.46,28.26,29.14,28.26,27.51C28.26,25.88,29.62,24.56,31.30,24.56z"/>
	<path
		fill="#FFFFFF"
		stroke="#000000"
		fill-opacity="0.000"
		stroke-opacity="1.000"
		fill-rule="nonzero"
		stroke-width="0.48"
		stroke-linejoin="miter"
		stroke-linecap="square"
		d="M16.64,24.59C18.32,24.59,19.68,25.91,19.68,27.54C19.68,29.17,18.32,30.49,16.64,30.49C14.96,30.49,13.60,29.17,13.60,27.54C13.60,25.91,14.96,24.59,16.64,24.59z"/>
</svg>