<svg viewBox="0 0 48 48" xmlns="http://www.w3.org/2000/svg">
    <style>
        .a{fill:none;stroke:#FFFFFF;stroke-linecap:round;stroke-linejoin:round}
    </style>
    <path class="a" d="M24,31.6960773c0,0,8.1441612,0.1670914,12.0888443-1.8252811  c1.3959808-0.70508,1.6104126-1.3966999,1.6104126-1.3966999c0.1846123-2.6973705,1.3143272-11.0508366-2.6138268-15.262888  C31.3127499,9.1658669,27.1920547,9.3972712,24,9.2127657c-3.1920547,0.1845055-7.3127499-0.0468988-11.0854301,3.9984426  c-3.9281549,4.2120514-2.7984371,12.5655174-2.6138277,15.262888c0,0,0.2144327,0.6916199,1.6104136,1.3966999  C15.8558397,31.8631687,24,31.6960773,24,31.6960773z"/>
    <path class="a" d="M37.8848495,20.7610302C37.3025169,26.0703068,28.1541195,26.1578293,24,26.1578293  s-13.302516-0.0875225-13.8848505-5.3967991"/>
    <path class="a" d="M37.98806,23.6701946c1.8131485-0.1463165,4.1525459-0.7153416,5.2539139,0.5797691  c0.8632812,1.0151424,1.8612175,4.8060684-2.8265457,8.5355244C35.948925,36.3389168,29.134304,36.9456978,24,37.0390472  c-5.134304-0.0933495-11.9489269-0.7001305-16.4154282-4.2535591c-4.6877608-3.7294559-3.6898258-7.5203819-2.8265438-8.5355244  c1.1013684-1.2951107,3.4407654-0.7260857,5.2539148-0.5797691"/>
</svg>