<?xml version="1.0" encoding="UTF-8" standalone="no"?>
<svg
   xmlns:dc="http://purl.org/dc/elements/1.1/"
   xmlns:cc="http://creativecommons.org/ns#"
   xmlns:rdf="http://www.w3.org/1999/02/22-rdf-syntax-ns#"
   xmlns:svg="http://www.w3.org/2000/svg"
   xmlns="http://www.w3.org/2000/svg"
   xmlns:sodipodi="http://sodipodi.sourceforge.net/DTD/sodipodi-0.dtd"
   xmlns:inkscape="http://www.inkscape.org/namespaces/inkscape"
   viewBox="0 0 48 48"
   version="1.1">
  <sodipodi:namedview
     pagecolor="#ffffff"
     bordercolor="#666666"
     borderopacity="1"
     objecttolerance="10"
     gridtolerance="10"
     guidetolerance="10"
     inkscape:pageopacity="0"
     inkscape:pageshadow="2"
     inkscape:window-width="1318"
     inkscape:window-height="742"
     id="namedview10"
     showgrid="false"
     inkscape:zoom="10.364049"
     inkscape:cx="21.34758"
     inkscape:cy="26.937176"
     inkscape:window-x="0"
     inkscape:window-y="0"
     inkscape:window-maximized="1"
     inkscape:current-layer="svg13"
     inkscape:document-rotation="0" />
  <defs
     id="defs4">
    <inkscape:path-effect
       effect="bspline"
       id="path-effect858"
       is_visible="true"
       lpeversion="1"
       weight="33.333333"
       steps="2"
       helper_size="0"
       apply_no_weight="true"
       apply_with_weight="true"
       only_selected="false" />
    <inkscape:path-effect
       effect="bspline"
       id="path-effect854"
       is_visible="true"
       lpeversion="1"
       weight="33.333333"
       steps="2"
       helper_size="0"
       apply_no_weight="true"
       apply_with_weight="true"
       only_selected="false" />
    <inkscape:path-effect
       effect="bspline"
       id="path-effect850"
       is_visible="true"
       lpeversion="1"
       weight="33.333333"
       steps="2"
       helper_size="0"
       apply_no_weight="true"
       apply_with_weight="true"
       only_selected="false" />
    <inkscape:path-effect
       effect="bspline"
       id="path-effect846"
       is_visible="true"
       lpeversion="1"
       weight="33.333333"
       steps="2"
       helper_size="0"
       apply_no_weight="true"
       apply_with_weight="true"
       only_selected="false" />
    <style
       id="style2">.a{fill:none;stroke:#fff;stroke-linecap:round;stroke-linejoin:round;}</style>
    <style
       id="style870">.a{fill:none;stroke:#fff;stroke-linecap:round;stroke-linejoin:round;}</style>
  </defs>
  <path
     style="fill:none;stroke:#feffff;stroke-opacity:1"
     d="m 12.948785,25.041773 a 10.685363,10.740066 0 0 1 5.342681,-9.30117 10.685363,10.740066 0 0 1 10.685363,0 10.685363,10.740066 0 0 1 5.342681,9.30117"
     id="path846" />
  <path
     style="fill:none;stroke:#feffff;stroke-opacity:1"
     d="m 10.509588,25.041651 a 13.444,14.484647 0 0 1 6.722001,-12.544072 13.444,14.484647 0 0 1 13.444,0 13.444,14.484647 0 0 1 6.722,12.544072"
     id="path844" />
  <path
     style="fill:none;stroke:#feffff;stroke-opacity:1"
     d="m 21.889305,22.177296 a 1.8795604,1.8795604 0 0 1 -1.87956,1.87956 1.8795604,1.8795604 0 0 1 -1.879561,-1.87956 1.8795604,1.8795604 0 0 1 1.879561,-1.879561 1.8795604,1.8795604 0 0 1 1.87956,1.879561 z"
     id="path842" />
  <path
     style="fill:none;stroke:#feffff;stroke-opacity:1"
     d="m 29.873903,22.177296 a 1.8795604,1.8795604 0 0 1 -1.87956,1.87956 1.8795604,1.8795604 0 0 1 -1.879561,-1.87956 1.8795604,1.8795604 0 0 1 1.879561,-1.879561 1.8795604,1.8795604 0 0 1 1.87956,1.879561 z"
     id="circle857" />
  <path
     id="path856"
     style="fill:none;stroke:#feffff;stroke-width:1px;stroke-linecap:round;stroke-linejoin:round;stroke-opacity:1"
     d="m 39.921974,30.185615 c -0.01349,-0.204667 -0.02333,-0.353997 -0.04156,-0.293994 -0.01823,0.06 -0.03345,0.359389 -0.03901,0.481707 -0.0056,0.122317 -0.0056,0.138217 -0.01887,0.148125 -0.01331,0.0099 -0.02797,0.01758 -0.03362,0.04136 -0.0056,0.02378 -0.01211,0.05846 -0.03979,0.12677 -0.02769,0.06831 -0.07331,0.169634 -0.0934,0.227269 -0.0201,0.05763 -0.0201,0.07364 -0.03693,0.127125 -0.01684,0.05348 -0.04651,0.142446 -0.05934,0.197603 -0.01283,0.05516 -0.01283,0.07851 -0.02294,0.114772 -0.0101,0.03627 -0.0262,0.08345 -0.04444,0.113262 -0.01823,0.02981 -0.03269,0.04427 -0.03493,0.06311 -0.0022,0.01883 -0.0022,0.04203 -0.0483,0.137265 -0.04606,0.09523 -0.131964,0.260528 -0.184807,0.350194 -0.05284,0.08967 -0.06884,0.105666 -0.107321,0.16577 -0.03848,0.0601 -0.102166,0.162611 -0.161071,0.246881 -0.05891,0.08427 -0.111586,0.150976 -0.162982,0.203354 -0.0514,0.05238 -0.0994,0.09243 -0.198996,0.197419 -0.0996,0.104988 -0.25212,0.273465 -0.323642,0.352468 -0.07152,0.079 -0.506277,0.513758 -0.556382,0.545642 -0.0501,0.03188 -0.138666,0.08824 -0.247131,0.16522 -0.108465,0.07698 -0.237283,0.173591 -0.32205,0.228054 -0.08477,0.05446 -0.124609,0.07036 -0.228435,0.135921 -0.103825,0.06556 -0.272162,0.177912 -0.392331,0.262723 -0.12017,0.08481 -0.192627,0.141166 -0.257532,0.1797 -0.0649,0.03853 -0.121261,0.06269 -0.213814,0.107383 -0.09255,0.04469 -0.221368,0.109102 -0.341956,0.173845 -0.120588,0.06474 -0.233101,0.129051 -0.34563,0.175622 -0.11253,0.04657 -0.225038,0.07878 -0.460836,0.10976 -0.235798,0.03099 -0.595972,0.06319 -0.839616,0.07881 -0.243645,0.01562 -0.371568,0.01562 -0.464604,0.02537 -0.09304,0.0098 -0.149289,0.02586 -0.295999,0.03221 -0.146711,0.0064 -0.385759,0.0064 -0.779074,0.0064 -0.393315,0 -0.940897,0 -1.576983,0 -0.636085,0 -1.360677,0 -1.847764,0 -0.487087,0 -0.73667,0 -0.91752,0 -0.180849,0 -0.292967,0 -0.427339,-0.02507 -0.134371,-0.02507 -0.294588,-0.07327 -0.383565,-0.108481 -0.08898,-0.03521 -0.113136,-0.05937 -0.180605,-0.08847 -0.06747,-0.0291 -0.171926,-0.0612 -0.279764,-0.101469 -0.107838,-0.04027 -0.220551,-0.08857 -0.303619,-0.132495 -0.08307,-0.04392 -0.139425,-0.08418 -0.213199,-0.124784 -0.07377,-0.04061 -0.162335,-0.08086 -0.330761,-0.181401 -0.168427,-0.10054 -0.418727,-0.261799 -0.589161,-0.362774 -0.170435,-0.100975 -0.258995,-0.14123 -0.330498,-0.181372 -0.0715,-0.04014 -0.128585,-0.08088 -0.190323,-0.117671 -0.06174,-0.03679 -0.12604,-0.06899 -0.233277,-0.144938 -0.107238,-0.07595 -0.260103,-0.196608 -0.357424,-0.269382 -0.09732,-0.07277 -0.137483,-0.09693 -0.171528,-0.127461 -0.03404,-0.03053 -0.0659,-0.07044 -0.09874,-0.111574 m 15.788933,-3.763731 c 0,0 0,0 -0.123713,0.138449 -0.123714,0.138449 -0.340391,0.380935 -0.445346,0.502383 -0.104954,0.121447 -0.121057,0.144826 -0.17787,0.19938 -0.05681,0.05455 -0.151836,0.142155 -0.21534,0.197407 -0.0635,0.05525 -0.09475,0.0792 -0.126798,0.09241 -0.03205,0.01321 -0.06426,0.02126 -0.07447,0.03279 -0.01022,0.01153 -0.01022,0.01743 -0.01022,0.01743 0,0 -0.048,0.048 -0.08161,0.07176 -0.03361,0.02376 -0.08944,0.06324 -0.129343,0.08494 -0.0399,0.0217 -0.06323,0.0296 -0.117236,0.06304 -0.05401,0.03344 -0.139108,0.08894 -0.217968,0.131635 -0.07886,0.0427 -0.151012,0.0748 -0.194031,0.101142 -0.04302,0.02634 -0.05898,0.0423 -0.112083,0.05897 -0.0531,0.01667 -0.14152,0.04082 -0.218006,0.07038 -0.07649,0.02956 -0.140895,0.06176 -0.192224,0.07487 -0.05133,0.0131 -0.09159,0.0131 -0.128816,0.02415 -0.03723,0.01105 -0.06943,0.02716 -0.104611,0.03221 -0.03518,0.0051 -0.07534,0.0051 -0.108267,0.01688 -0.03293,0.01183 -0.05709,0.02783 -0.109504,0.04582 -0.05242,0.01799 -0.13272,0.04203 -0.195965,0.05227 -0.06324,0.01024 -0.111346,0.01024 -0.264366,0.01442 -0.15302,0.0042 -0.410653,0.01224 -0.581408,-0.001 -0.170756,-0.01326 -0.25932,-0.04546 -0.333173,-0.06517 -0.07385,-0.0197 -0.130201,-0.02775 -0.227792,-0.08025 -0.09759,-0.0525 -0.242511,-0.149113 -0.320867,-0.21075 -0.07835,-0.06164 -0.09446,-0.09384 -0.12882,-0.128817 -0.03436,-0.03497 -0.08267,-0.06718 -0.11268,-0.100047 -0.03002,-0.03287 -0.04612,-0.07313 -0.06527,-0.100873 -0.01915,-0.02774 -0.03523,-0.03578 -0.0569,-0.05833 -0.02167,-0.02254 -0.05387,-0.0628 -0.114989,-0.124018 -0.06112,-0.06122 -0.149681,-0.141729 -0.246769,-0.22257 -0.09709,-0.08084 -0.201751,-0.161352 -0.30189,-0.245537 -0.100139,-0.08419 -0.196752,-0.172747 -0.310935,-0.25815 -0.114182,-0.0854 -0.243699,-0.166379 -0.327797,-0.222566 -0.0841,-0.05619 -0.124253,-0.08829 -0.156771,-0.103857 -0.03252,-0.01557 -0.04862,-0.01557 -0.0965,-0.05224 -0.04788,-0.03668 -0.136442,-0.109135 -0.22621,-0.170027 -0.08977,-0.06089 -0.178328,-0.109198 -0.262817,-0.157548 -0.08449,-0.04835 -0.165456,-0.09688 -0.212625,-0.128426 -0.04717,-0.03154 -0.06352,-0.04789 -0.08469,-0.05606 -0.02117,-0.0082 -0.03717,-0.0082 -0.05219,-0.0202 -0.01503,-0.01203 -0.03908,-0.03608 -0.06415,-0.0481 -0.02508,-0.01203 -0.04118,-0.01203 -0.105227,-0.06082 -0.06405,-0.04879 -0.184813,-0.145406 -0.311,-0.222284 -0.126188,-0.07688 -0.254299,-0.132934 -0.358101,-0.180955 -0.103803,-0.04802 -0.184005,-0.08807 -0.277127,-0.119974 -0.09312,-0.0319 -0.195906,-0.05596 -0.320515,-0.06713 -0.124609,-0.01118 -0.268308,-0.01118 -0.540778,-0.007 -0.27247,0.0041 -0.673514,0.01218 -1.184127,0.0161 -0.510613,0.0039 -1.130992,0.0039 -1.659327,0.02051 -0.528335,0.01658 -0.963941,0.04896 -1.37995,0.143766 -0.416008,0.09481 -0.811038,0.248165 -1.024221,0.338777 -0.213183,0.09061 -0.245394,0.114771 -0.281788,0.127824 -0.03639,0.01305 -0.07665,0.0211 -0.09101,0.02398 -0.01436,0.0029 -0.08682,0.07533 -0.1088,0.08083 -0.02198,0.0055 -0.05419,0.01355 -0.06441,0.0161 -0.01022,0.0026 -0.05853,0.05086 -0.119126,0.07672 -0.0606,0.02586 -0.169727,0.07242 -0.266785,0.113835 M 8.3903889,30.185615 c 0.01349,-0.204667 0.023332,-0.353997 0.041561,-0.293994 0.018228,0.06 0.03345,0.359389 0.03901,0.481707 0.00556,0.122317 0.00556,0.138217 0.01887,0.148125 0.013309,0.0099 0.027969,0.01758 0.033617,0.04136 0.00565,0.02378 0.012105,0.05846 0.039793,0.12677 0.027688,0.06831 0.073308,0.169634 0.093404,0.227269 0.020096,0.05763 0.020096,0.07364 0.036931,0.127125 0.016835,0.05348 0.046504,0.142446 0.059338,0.197603 0.012833,0.05516 0.012833,0.07851 0.022934,0.114773 0.010101,0.03627 0.026203,0.08345 0.044434,0.113263 0.018231,0.02981 0.032691,0.04428 0.034924,0.06311 0.00223,0.01883 0.00223,0.04203 0.048294,0.137264 0.046061,0.09523 0.1319646,0.260527 0.1848082,0.350193 0.052844,0.08966 0.068845,0.105665 0.1073233,0.165769 0.038478,0.0601 0.1021667,0.162612 0.1610718,0.246883 0.058905,0.08427 0.1115858,0.150975 0.1629825,0.203353 0.051397,0.05238 0.099399,0.09243 0.1989948,0.197419 0.099596,0.104988 0.2521206,0.273465 0.3236427,0.352468 0.07152,0.079 0.506277,0.513758 0.556382,0.545642 0.0501,0.03188 0.138666,0.08824 0.247131,0.16522 0.108465,0.07698 0.237282,0.173591 0.32205,0.228053 0.08477,0.05446 0.124609,0.07036 0.228435,0.135922 0.103825,0.06556 0.272162,0.177912 0.392331,0.262723 0.120169,0.08481 0.192627,0.141167 0.257532,0.1797 0.0649,0.03853 0.121261,0.06269 0.213813,0.107382 0.09255,0.04469 0.221368,0.109103 0.341956,0.173846 0.120589,0.06474 0.233101,0.12905 0.345631,0.175622 0.112529,0.04657 0.225037,0.07878 0.460835,0.10976 0.235798,0.03099 0.595972,0.06319 0.839617,0.07881 0.243644,0.01562 0.371568,0.01562 0.464604,0.02537 0.09304,0.0098 0.149289,0.02586 0.295999,0.03221 0.14671,0.0064 0.385759,0.0064 0.779074,0.0064 0.393315,0 0.940896,0 1.576982,0 0.636086,0 1.360678,0 1.847765,0 0.487087,0 0.736669,0 0.917519,0 0.18085,0 0.292968,0 0.42734,-0.02507 0.134371,-0.02507 0.294588,-0.07327 0.383565,-0.108481 0.08898,-0.03521 0.113136,-0.05937 0.180605,-0.08847 0.06747,-0.0291 0.171926,-0.0612 0.279764,-0.101469 0.107838,-0.04027 0.22055,-0.08857 0.303618,-0.132495 0.08307,-0.04392 0.139426,-0.08418 0.2132,-0.124784 0.07377,-0.04061 0.162335,-0.08086 0.330761,-0.181401 0.168427,-0.10054 0.418727,-0.261799 0.589161,-0.362774 0.170435,-0.100975 0.258995,-0.14123 0.330498,-0.181372 0.0715,-0.04014 0.128585,-0.08088 0.190323,-0.117671 0.06174,-0.03679 0.12604,-0.06899 0.233277,-0.144938 0.107238,-0.07595 0.260103,-0.196608 0.357424,-0.269382 0.09732,-0.07277 0.137483,-0.09693 0.171528,-0.127461 0.03404,-0.03053 0.0659,-0.07044 0.09874,-0.111574 M 8.4308575,29.571613 c 0,0 0,0 0.1237132,0.138449 0.1237131,0.138449 0.3403904,0.380935 0.4453448,0.502383 0.1049544,0.121449 0.1210564,0.144829 0.1778684,0.199381 0.056812,0.05455 0.1518343,0.142154 0.2153392,0.197406 0.063505,0.05525 0.094755,0.0792 0.1268027,0.09241 0.032048,0.01321 0.064252,0.02126 0.074471,0.03279 0.01022,0.01153 0.01022,0.01743 0.01022,0.01743 0,0 0.048004,0.048 0.081611,0.07176 0.033607,0.02376 0.089443,0.06323 0.1293404,0.08493 0.039897,0.0217 0.063231,0.0296 0.1172402,0.06304 0.054009,0.03344 0.1391117,0.08894 0.2179717,0.131636 0.07886,0.0427 0.151012,0.0748 0.194031,0.101142 0.04302,0.02634 0.05898,0.0423 0.112083,0.05897 0.0531,0.01667 0.14152,0.04082 0.218006,0.07038 0.07649,0.02956 0.140895,0.06176 0.192224,0.07487 0.05133,0.0131 0.09159,0.0131 0.128816,0.02415 0.03723,0.01105 0.06944,0.02716 0.104611,0.03221 0.03518,0.0051 0.07534,0.0051 0.108267,0.01688 0.03293,0.01183 0.05709,0.02783 0.109503,0.04582 0.05242,0.01799 0.132719,0.04203 0.195964,0.05227 0.06325,0.01024 0.111347,0.01024 0.264367,0.01442 0.15302,0.0042 0.410653,0.01224 0.581408,-0.001 0.170756,-0.01326 0.25932,-0.04546 0.333173,-0.06517 0.07385,-0.0197 0.130201,-0.02775 0.227792,-0.08025 0.09759,-0.0525 0.242511,-0.149113 0.320867,-0.21075 0.07836,-0.06164 0.09446,-0.09384 0.12882,-0.128817 0.03436,-0.03497 0.08267,-0.06718 0.11268,-0.100047 0.03002,-0.03287 0.04612,-0.07313 0.06527,-0.100873 0.01915,-0.02774 0.03523,-0.03578 0.0569,-0.05833 0.02167,-0.02254 0.05387,-0.0628 0.114989,-0.124018 0.06112,-0.06122 0.149681,-0.141729 0.246769,-0.22257 0.09709,-0.08084 0.201751,-0.161352 0.30189,-0.245537 0.100139,-0.08419 0.196752,-0.172747 0.310935,-0.25815 0.114182,-0.0854 0.243699,-0.166379 0.327797,-0.222566 0.0841,-0.05619 0.124253,-0.08829 0.156771,-0.103857 0.03252,-0.01557 0.04862,-0.01557 0.0965,-0.05224 0.04788,-0.03668 0.136442,-0.109135 0.22621,-0.170027 0.08977,-0.06089 0.178328,-0.109198 0.262817,-0.157548 0.08449,-0.04835 0.165456,-0.09688 0.212625,-0.128426 0.04717,-0.03154 0.06352,-0.04789 0.08469,-0.05606 0.02117,-0.0082 0.03717,-0.0082 0.05219,-0.0202 0.01503,-0.01203 0.03908,-0.03608 0.06415,-0.0481 0.02508,-0.01203 0.04118,-0.01203 0.105227,-0.06082 0.06405,-0.04879 0.184813,-0.145406 0.311,-0.222284 0.126188,-0.07688 0.254299,-0.132934 0.358101,-0.180955 0.103803,-0.04802 0.184005,-0.08807 0.277127,-0.119974 0.09312,-0.0319 0.195906,-0.05596 0.320515,-0.06713 0.124609,-0.01118 0.268308,-0.01118 0.540778,-0.007 0.27247,0.0041 0.673514,0.01218 1.184127,0.0161 0.510613,0.0039 1.130992,0.0039 1.659327,0.02051 0.528335,0.01658 0.963941,0.04896 1.37995,0.143766 0.416008,0.09481 0.811038,0.248165 1.024221,0.338777 0.213183,0.09061 0.245394,0.114771 0.281788,0.127824 0.03639,0.01305 0.07665,0.0211 0.09101,0.02398 0.01436,0.0029 0.08682,0.07533 0.1088,0.08083 0.02198,0.0055 0.05419,0.01355 0.06441,0.0161 0.01022,0.0026 0.05853,0.05086 0.119126,0.07672 0.0606,0.02586 0.169727,0.07242 0.266785,0.113835" />
  <path
     class="a"
     d="m 40.5,5.5 h -33 a 2,2 0 0 0 -2,2 v 33 a 2,2 0 0 0 2,2 h 33 a 2,2 0 0 0 2,-2 v -33 a 2,2 0 0 0 -2,-2 z"
     id="path874"
     style="stroke:#feffff;stroke-opacity:1;stroke-linecap:round" />
</svg>
