<svg xmlns="http://www.w3.org/2000/svg" xml:space="preserve" width="48" height="48"><path d="M40.5 5.5h-33a2 2 0 0 0-2 2v33a2 2 0 0 0 2 2h33a2 2 0 0 0 2-2v-33a2 2 0 0 0-2-2zM7.832 37.458l2.158-6.395 2.158 6.395m-.72-2.158H8.552m10.207-4.237v6.395h3.197m-8.1-6.395v6.395h3.197m12.026-4.237a2.15 2.15 0 0 0-2.159-2.158v0a2.15 2.15 0 0 0-2.158 2.158v2.159c0 1.199.96 2.078 2.158 2.078v0c1.2 0 2.159-.96 2.159-2.078H26.92m7.062 2.078h-3.197v-6.395h3.197m-3.197 3.198h2.078m2.825 3.197v-6.395l4.237 6.395v-6.395M8.89 25.645h30.22M37.42 11.95l1.36-1.91m-4.316 11.125c-5.133.383-4.619-4.794-.49-4.903 2.984-.08 4.626-1.332 4.441-2.847m-7.608.12c.428-1.292 1.643-2.275 3.082-2.275h1.524c1.798 0 3.246 1.504 3.246 3.302v6.603M19.68 13.782c.779-1.506 2.258-2.523 3.956-2.523 2.506 0 4.538 2.217 4.538 4.952 0 2.736-2.032 4.953-4.538 4.953-2.33 0-4.249-1.915-4.508-4.382h3.43m-6.809-4.515c-.63-.65-1.74-1.105-3.022-1.008-3.802.288-4.787 4.806.47 5.406 4.945.565 4.479 4.717-1.578 4.49H9.611V18.74" style="display:inline;fill:none;stroke:#fff;stroke-linecap:round;stroke-linejoin:round"/></svg>