<svg width="48" height="48" version="1.1" viewBox="0 0 48 48" xmlns="http://www.w3.org/2000/svg">
 <g stroke="#fff" stroke-linecap="round" stroke-linejoin="round">
  <path class="st0" d="m42.5 21.393v9.3067c0 3.3-2.6 5.9-5.9 5.9h-6.7l-5.9 5.9-5.9-5.9h-6.3c-3.5 0-6.3-2.6-6.3-5.9v-9.5491m1.0628-13.164c1.0597-1.5125 2.8173-2.4866 4.8372-2.4866h25.2c1.9871 0 3.7815 1.0026 4.8562 2.5528"/>
  <path class="st0" d="m24 25.258c1.6 0 2.9 1.3 2.9 2.9s-1.3 2.9-2.9 2.9-2.9-1.3-2.9-2.9 1.3-2.9 2.9-2.9zm-8.4 0c-1.6 0-2.9 1.3-2.9 2.9s1.3 2.9 2.9 2.9 2.9-1.3 2.9-2.9-1.3-2.9-2.9-2.9z"/>
  <path class="st0" d="m32.4 25.258c1.6 0 2.9 1.3 2.9 2.9s-1.3 2.9-2.9 2.9-2.9-1.3-2.9-2.9 1.3-2.9 2.9-2.9z"/>
  <path d="m19.771 19.608 0.34945-11.319m-8.4792 11.319 1.3711-11.372m10.988-0.10179h-18.025l-3.263 7.0901s-0.82936 3.0564 1.5284 5.1186c2.3578 2.0622 6.1615 1.5706 7.4008-0.73536 0 0 3.9005 4.2292 8.1297 0" fill="none"/>
  <path d="m28.229 19.608-0.34945-11.319m8.4792 11.319-1.3711-11.372m-10.988-0.10179h18.025l3.263 7.0901s0.82936 3.0564-1.5284 5.1186-6.1615 1.5706-7.4008-0.73536c0 0-3.9005 4.2292-8.1297 0 0 0-4.1943 4.2641-8.4584 0" fill="none"/>
 </g>
 <style type="text/css">.st0{fill:none;stroke:#FFFFFF;stroke-linecap:round;stroke-linejoin:round;}</style>
</svg>
