<svg id="Layer_1" data-name="Layer 1" xmlns="http://www.w3.org/2000/svg" viewBox="0 0 48 48"><defs><style>.cls-1,.cls-2{fill:none;stroke:#fff;}.cls-1{stroke-linecap:round;stroke-linejoin:round;}.cls-2{stroke-miterlimit:10;}</style></defs><path class="cls-1" d="M39.5,36.2V15.5h-9a2.00588,2.00588,0,0,1-2-2v-9h-18a2.00588,2.00588,0,0,0-2,2v5.00443"/><path class="cls-1" d="M8.5,24.89514V41.5a2.00588,2.00588,0,0,0,2,2h27a2.034,2.034,0,0,0,2-1.7"/><line class="cls-1" x1="28.5" y1="4.5" x2="39.5" y2="15.5"/><line class="cls-1" x1="15.96685" y1="20.20757" x2="26.95944" y2="20.20757"/><line class="cls-1" x1="15.96685" y1="16.41514" x2="27.01347" y2="16.41514"/><line class="cls-1" x1="15.96685" y1="12.62271" x2="25.14273" y2="12.62271"/><circle class="cls-1" cx="18.6" cy="18.2" r="8.6"/><path class="cls-1" d="M28.50019,11.20944a12.06875,12.06875,0,1,0,1.91565,4.28722"/><path class="cls-2" d="M25.70355,28.00354,40,42.3a1.93326,1.93326,0,0,0,2.73323.06677q.03419-.03257.06677-.06677a1.93334,1.93334,0,0,0,.06666-2.73334Q42.83414,39.53252,42.8,39.5L28.48914,25.18915"/><line class="cls-1" x1="15.96685" y1="24" x2="24.9407" y2="24"/><line class="cls-1" x1="13.14885" y1="11.54844" x2="13.14885" y2="24.89514"/></svg>