<?xml version="1.0" encoding="UTF-8"?><svg xmlns="http://www.w3.org/2000/svg" viewBox="0 0 48 48"><defs><style>.c{fill:none;stroke:#fff;stroke-linecap:round;stroke-linejoin:round;}</style></defs><g id="a"><path class="c" d="m4.5,11.5c0-1.6569,1.3431-3,3-3h8.7181c.8337,0,1.6465.2605,2.325.7451l4.9138,3.5099c.6784.4846,1.4913.7451,2.325.7451h14.7181c1.6569,0,3,1.3431,3,3v20c0,1.6569-1.3431,3-3,3H7.5c-1.6569,0-3-1.3431-3-3V11.5Z"/></g><g id="b"><polygon class="c" points="22.7461 19.3049 24.2478 23.1839 28.1268 24.6856 24.2478 26.1873 22.7461 30.0663 21.2444 26.1873 17.3654 24.6856 21.2444 23.1839 22.7461 19.3049"/><polygon class="c" points="30.3926 26.4589 31.3994 29.0595 34 30.0663 31.3994 31.0731 30.3926 33.6736 29.3858 31.0731 26.7852 30.0663 29.3858 29.0595 30.3926 26.4589"/><polygon class="c" points="16.8853 27.9244 17.6906 30.0045 19.7707 30.8098 17.6906 31.615 16.8853 33.6951 16.0801 31.615 14 30.8098 16.0801 30.0045 16.8853 27.9244"/></g></svg>