<?xml version="1.0" encoding="UTF-8" standalone="no"?>
<svg
   xmlns:dc="http://purl.org/dc/elements/1.1/"
   xmlns:cc="http://creativecommons.org/ns#"
   xmlns:rdf="http://www.w3.org/1999/02/22-rdf-syntax-ns#"
   xmlns:svg="http://www.w3.org/2000/svg"
   xmlns="http://www.w3.org/2000/svg"
   xmlns:sodipodi="http://sodipodi.sourceforge.net/DTD/sodipodi-0.dtd"
   xmlns:inkscape="http://www.inkscape.org/namespaces/inkscape"
   width="56.327103mm"
   height="56.327103mm"
   viewBox="0 0 56.327103 56.327103"
   version="1.1"
   id="svg1098"
   inkscape:version="1.0.2 (e86c870879, 2021-01-15)"
   sodipodi:docname="amazonalexa.svg">
  <defs
     id="defs1092">
    <inkscape:path-effect
       effect="bspline"
       id="path-effect1718"
       is_visible="true"
       lpeversion="1"
       weight="33.333333"
       steps="2"
       helper_size="0"
       apply_no_weight="true"
       apply_with_weight="true"
       only_selected="false" />
    <style
       id="style1720">.a{fill:none;stroke:#fff;stroke-linecap:round;stroke-linejoin:round;}</style>
  </defs>
  <sodipodi:namedview
     id="base"
     pagecolor="#0000ff"
     bordercolor="#666666"
     borderopacity="1.0"
     inkscape:pageopacity="0"
     inkscape:pageshadow="2"
     inkscape:zoom="2.8"
     inkscape:cx="55.660018"
     inkscape:cy="115.97521"
     inkscape:document-units="mm"
     inkscape:current-layer="layer1"
     inkscape:document-rotation="0"
     showgrid="false"
     inkscape:window-width="1920"
     inkscape:window-height="1044"
     inkscape:window-x="0"
     inkscape:window-y="130"
     inkscape:window-maximized="1" />
  <metadata
     id="metadata1095">
    <rdf:RDF>
      <cc:Work
         rdf:about="">
        <dc:format>image/svg+xml</dc:format>
        <dc:type
           rdf:resource="http://purl.org/dc/dcmitype/StillImage" />
        <dc:title></dc:title>
      </cc:Work>
    </rdf:RDF>
  </metadata>
  <g
     inkscape:label="Layer 1"
     inkscape:groupmode="layer"
     id="layer1"
     transform="translate(-105.65998,-69.352394)">
    <path
       style="fill:none;stroke:#ffffff;stroke-width:0.5;stroke-linecap:butt;stroke-linejoin:miter;stroke-miterlimit:4;stroke-dasharray:none;stroke-opacity:1"
       d="m 131.25723,116.18281 c 0.64373,0.0883 1.28774,0.17655 2.0357,0.22409 0.74796,0.0475 1.60013,0.0544 2.67527,-0.0825 1.07513,-0.13686 2.37325,-0.4174 3.49107,-0.77561 1.11782,-0.35821 2.05538,-0.79406 2.79834,-1.16797 0.74295,-0.37392 1.2913,-0.68589 1.78344,-0.99742 0.49213,-0.31152 0.92806,-0.6226 1.34632,-0.94933 0.41826,-0.32673 0.81884,-0.6691 1.25377,-1.06615 0.43492,-0.39705 0.90418,-0.84875 1.33512,-1.3301 0.43094,-0.48136 0.82357,-0.99239 1.22551,-1.57301 0.40193,-0.58063 0.81316,-1.23086 1.16512,-1.88423 0.35195,-0.65338 0.64463,-1.30993 0.87606,-1.86562 0.23142,-0.55569 0.40158,-1.0105 0.59356,-1.63498 0.19199,-0.62448 0.40577,-1.41863 0.56462,-2.20723 0.15885,-0.7886 0.26274,-1.571653 0.3147,-1.963297 0.052,-0.391644 0.058,-2.049613 0.025,-2.362868 -0.033,-0.313254 -0.0989,-0.940021 -0.19705,-1.640829 -0.0982,-0.700809 -0.22856,-1.475623 -0.40007,-2.18684 -0.17151,-0.711217 -0.38418,-1.358813 -0.71943,-2.152493 -0.33526,-0.793679 -0.79313,-1.733399 -1.22257,-2.497347 -0.42944,-0.763949 -0.83047,-1.352076 -1.2192,-1.869912 -0.38873,-0.517836 -0.76518,-0.965335 -1.31628,-1.552098 -0.5511,-0.586763 -1.27684,-1.312735 -1.93558,-1.893509 -0.65874,-0.580774 -1.25047,-1.016271 -1.98003,-1.432572 -0.72957,-0.4163 -1.59694,-0.813302 -2.38117,-1.14045 -0.78424,-0.327148 -1.4853,-0.584396 -2.39222,-0.833982 -0.90692,-0.249585 -2.01963,-0.491442 -3.10679,-0.621502 -1.08716,-0.130059 -2.14866,-0.148252 -3.04067,-0.118667 -0.89201,0.02959 -1.61444,0.106976 -2.37454,0.25155 -0.76009,0.144573 -1.55775,0.356341 -2.48179,0.670228 -0.92404,0.313888 -1.97434,0.729878 -3.06704,1.335254 -1.0927,0.605376 -2.22766,1.400085 -3.02694,2.017605 -0.79929,0.617521 -1.26283,1.0578 -1.75292,1.55649 -0.49009,0.498689 -1.0067,1.05574 -1.52046,1.753715 -0.51377,0.697974 -1.02463,1.536759 -1.44715,2.2964 -0.42251,0.75964 -0.75664,1.440061 -1.03565,2.171892 -0.27901,0.731831 -0.50288,1.514964 -0.69935,2.2406 -0.19646,0.725635 -0.36551,1.393719 -0.45594,2.090998 -0.0904,0.697279 -0.10231,1.423638 -0.076,2.359422 0.0263,0.935783 0.0906,2.080901 0.18876,2.972682 0.0981,0.89178 0.2299,1.53013 0.37026,2.10995 0.14036,0.57982 0.28925,1.10105 0.5349,1.72871 0.24565,0.62766 0.58797,1.36171 1.00609,2.12204 0.41812,0.76034 0.91197,1.54696 1.51107,2.36756 0.59911,0.82059 1.30339,1.67514 2.04896,2.40276 0.74558,0.72763 1.53235,1.32836 2.19701,1.79303 0.66467,0.46467 1.20718,0.7933 1.75057,1.09686 0.5434,0.30355 1.08764,0.58203 1.57289,0.8069 0.48525,0.22486 0.91146,0.39614 1.47436,0.5863 0.56289,0.19016 1.26211,0.39914 1.96166,0.60821 0,0 1.31775,0.31129 1.31775,0.31129 0,0 -0.21877,-4.92308 -0.21877,-4.92308 -0.32024,-0.43756 -0.64026,-0.87481 -1.66808,-1.64469 -1.02782,-0.76988 -2.76326,-1.87194 -3.92652,-2.82229 -1.16326,-0.95036 -1.75422,-1.74906 -2.30808,-2.70296 -0.55386,-0.9539 -1.07051,-2.06295 -1.38902,-3.09841 -0.31851,-1.03546 -0.43875,-1.997249 -0.50368,-2.891119 -0.0649,-0.893871 -0.0745,-1.719756 0.0482,-2.563773 0.12275,-0.844017 0.37789,-1.706016 0.66911,-2.510336 0.29123,-0.80432 0.61853,-1.550863 0.95138,-2.165256 0.33285,-0.614394 0.67121,-1.096534 1.12836,-1.634492 0.45715,-0.537958 1.03301,-1.131642 1.56899,-1.61354 0.53598,-0.481897 1.03198,-0.851936 1.63236,-1.227193 0.60038,-0.375256 1.30505,-0.755689 2.03065,-1.067455 0.72561,-0.311766 1.47203,-0.554845 2.15953,-0.707151 0.68751,-0.152306 1.316,-0.213862 2.06713,-0.229386 0.75113,-0.01552 1.62481,0.01495 2.42474,0.09364 0.79993,0.07868 1.52603,0.205526 2.28637,0.450504 0.76034,0.244978 1.55488,0.607983 2.23438,0.975583 0.67951,0.367601 1.24398,0.739724 1.84136,1.232269 0.59738,0.492545 1.22768,1.105423 1.85272,1.838487 0.62503,0.733063 1.24481,1.586226 1.70264,2.503289 0.45782,0.917063 0.75378,1.897953 0.95085,2.764195 0.19707,0.866243 0.2953,1.617809 0.3474,2.431391 0.0521,0.813581 0.0581,1.689158 0.002,2.448618 -0.0559,0.75946 -0.17372,1.40281 -0.33864,2.09562 -0.16491,0.69281 -0.37692,1.43506 -0.61741,2.12537 -0.2405,0.69031 -0.50946,1.32869 -0.81077,1.92811 -0.30131,0.59942 -0.63497,1.15991 -0.99207,1.72114 -0.3571,0.56122 -0.73762,1.12317 -1.22016,1.71555 -0.48254,0.59238 -1.0671,1.2152 -1.67275,1.81105 -0.60565,0.59585 -1.23238,1.16472 -1.9397,1.70751 -0.70731,0.54279 -1.49521,1.05949 -2.24863,1.5105 -0.75343,0.45102 -1.47237,0.83634 -2.15553,1.1512 -0.68317,0.31487 -1.33058,0.55926 -1.90085,0.75136 -0.57027,0.19209 -1.06357,0.33191 -1.5567,0.47169 z"
       id="path1716"
       inkscape:path-effect="#path-effect1718"
       inkscape:original-d="m 131.25723,116.18281 c 0,0 1.28771,0.17677 1.93119,0.26476 0.85247,0.007 1.70464,0.014 2.55655,0.0206 1.29843,-0.28029 2.59655,-0.56082 3.89442,-0.84163 0.93785,-0.4356 1.87541,-0.87145 2.81272,-1.30757 0.54863,-0.31172 1.09698,-0.62369 1.64508,-0.93593 0.43621,-0.31082 0.87214,-0.6219 1.30781,-0.93325 0.40087,-0.34213 0.80145,-0.6845 1.20178,-1.02715 0.46954,-0.45146 0.9388,-0.90316 1.4078,-1.35513 0.39292,-0.51078 0.78555,-1.02181 1.17792,-1.53311 0.41151,-0.64998 0.82274,-1.30021 1.23371,-1.95071 0.29295,-0.65631 0.58563,-1.31286 0.87805,-1.96969 0.17043,-0.45457 0.34059,-0.90938 0.51049,-1.36446 0.21406,-0.79392 0.42784,-1.58807 0.64137,-2.3825 0.10416,-0.78281 0.20805,-1.565863 0.31167,-2.349191 l 0.006,-1.657969 c -0.0657,-0.626531 -0.13161,-1.2533 -0.19781,-1.880348 -0.13014,-0.774581 -0.26053,-1.549396 -0.3912,-2.32449 -0.21241,-0.647356 -0.42508,-1.29495 -0.63801,-1.942821 -0.45763,-0.93949 -0.91551,-1.879207 -1.37365,-2.819208 -0.40078,-0.587885 -0.80181,-1.176012 -1.20311,-1.764414 -0.3762,-0.447252 -0.75265,-0.89475 -1.12937,-1.342522 -0.7255,-0.725735 -1.45124,-1.451707 -2.17726,-2.177957 -0.59149,-0.435253 -1.18322,-0.870753 -1.77524,-1.306527 -0.86713,-0.396752 -1.7345,-0.793752 -2.60215,-1.191025 -0.70082,-0.256994 -1.40188,-0.514242 -2.10322,-0.77176 -1.11249,-0.241602 -2.2252,-0.48346 -3.3382,-0.725587 -1.06128,-0.01793 -2.12278,-0.03612 -3.18457,-0.05458 -0.7222,0.07766 -1.44463,0.155048 -2.16733,0.232175 -0.79744,0.212042 -1.5951,0.423812 -2.39305,0.635321 -1.05008,0.416272 -2.10038,0.832263 -3.15097,1.247997 -1.13473,0.795 -2.26969,1.589705 -3.40492,2.38416 -0.46329,0.44056 -0.92683,0.880838 -1.39064,1.32086 -0.51636,0.55734 -1.03296,1.114392 -1.54984,1.671191 -0.51062,0.839084 -1.02148,1.67787 -1.53262,2.516409 -0.33388,0.680709 -0.66802,1.361127 -1.00242,2.041293 -0.22362,0.783431 -0.44749,1.566565 -0.67163,2.349451 -0.16879,0.668374 -0.33784,1.336457 -0.50715,2.004289 -0.0116,0.726652 -0.0234,1.453013 -0.0356,2.179122 0.0647,1.145435 0.12903,2.290556 0.19314,3.435441 0.13206,0.63865 0.26385,1.277 0.39538,1.9151 0.14917,0.52153 0.29806,1.04276 0.44669,1.56375 0.3426,0.73433 0.68493,1.46837 1.02699,2.20215 0.49413,0.78691 0.98798,1.57353 1.48157,2.35989 0.70457,0.85485 1.40885,1.7094 2.11289,2.5637 0.78706,0.60101 1.57383,1.20174 2.36035,1.80221 0.54279,0.32891 1.0853,0.65754 1.62755,0.98591 0.54454,0.27876 1.08878,0.55724 1.63277,0.83546 0.42651,0.17155 0.85272,0.34282 1.27869,0.51384 0.69982,0.20934 2.09864,0.62722 2.09864,0.62722 l 1.31775,0.31129 -0.21877,-4.92308 c 0,0 -0.64021,-0.87484 -0.96072,-1.31267 -1.73523,-1.10183 -3.47066,-2.20389 -5.20638,-3.30623 -0.59072,-0.79847 -1.18168,-1.59717 -1.77291,-2.39616 -0.51641,-1.10883 -1.03307,-2.21788 -1.55,-3.32722 -0.11997,-0.96156 -0.24021,-1.923347 -0.36071,-2.885419 -0.009,-0.825648 -0.0189,-1.651529 -0.0288,-2.477693 0.25542,-0.861772 0.51055,-1.723773 0.76543,-2.586057 0.32758,-0.746308 0.65488,-1.492851 0.98192,-2.239672 0.33864,-0.481896 0.677,-0.964037 1.01511,-1.446453 0.57616,-0.593447 1.15202,-1.187136 1.72764,-1.781101 0.49629,-0.369791 0.99229,-0.739831 1.48804,-1.110143 0.70496,-0.380183 1.40963,-0.760615 2.11405,-1.141319 0.74672,-0.242825 1.49314,-0.485904 2.23931,-0.729253 0.62877,-0.06129 1.25726,-0.12285 1.8855,-0.184672 0.87398,0.03074 1.74766,0.06122 2.6211,0.09143 0.72639,0.127111 1.45249,0.253952 2.17833,0.380532 0.79483,0.363285 1.58936,0.726291 2.38365,1.08904 0.56474,0.372397 1.12921,0.744515 1.69341,1.116376 0.6306,0.613169 1.2609,1.22605 1.89095,1.838678 0.62007,0.853462 1.23985,1.706625 1.85938,2.55954 0.29624,0.981193 0.5922,1.962083 0.8879,2.942727 0.0985,0.751863 0.19673,1.503429 0.29469,2.254748 0.006,0.875874 0.0123,1.751449 0.018,2.626776 -0.11754,0.643651 -0.23534,1.287005 -0.35341,1.930115 -0.21175,0.74254 -0.42376,1.48479 -0.63603,2.22678 -0.26871,0.63867 -0.53767,1.27705 -0.8069,1.91518 -0.3334,0.56077 -0.66706,1.12126 -1.00099,1.68149 -0.38027,0.56224 -0.76079,1.12419 -1.14159,1.68589 -0.58432,0.62311 -1.16888,1.24592 -1.75371,1.86848 -0.62649,0.56917 -1.25322,1.13804 -1.88023,1.70667 -0.78767,0.51698 -1.57557,1.03367 -2.36375,1.55011 -0.7187,0.3856 -1.43764,0.77092 -2.15685,1.15599 -0.64717,0.24467 -1.29458,0.48906 -1.94228,0.7332 -0.49287,0.14004 -1.47939,0.41933 -1.47939,0.41933 z"
       sodipodi:nodetypes="cccccccccccccccccccccccccccccccccccccccccccccccccccccccccccccccccccccccccccccccccccccc" />
    <circle
       class="a"
       cx="133.82353"
       cy="97.515945"
       r="27.523472"
       id="circle1724"
       style="stroke-width:1.28016" />
  </g>
</svg>
