<svg xmlns="http://www.w3.org/2000/svg" viewBox="0 0 48 48">
    <style>
        .a{fill:none;stroke:#FFFFFF;stroke-linecap:round;stroke-linejoin:round}
    </style>
    <path class="a" d="M37.8,24.3c0,0.2,0,0.4,0,0.7c0,7.6-6.2,13.8-13.8,13.8S10.2,32.6,10.2,25c0-3.1,1-6.1,2.9-8.5"/>
    <path class="a" d="M27.5,2.9h-7.1c-0.3,0-0.5,0.2-0.5,0.5v12.3c0,0.3,0.2,0.5,0.5,0.5h7.1c0.3,0,0.5-0.2,0.5-0.5V3.5C28.1,3.2,27.8,2.9,27.5,2.9z"/>
    <path class="a" d="M34.6,8c5.9,3.7,9.5,10.1,9.5,17c0,11-9.1,20.1-20.1,20.1S3.9,36,3.9,25c0-6.9,3.5-13.3,9.4-17"/>
</svg>