<svg xmlns="http://www.w3.org/2000/svg" viewBox="0 0 48 48"><defs><style>.a{fill:none;stroke:#fff;stroke-linecap:round;stroke-linejoin:round;}</style></defs><path class="a" d="M36,42.5H12a1.7524,1.7524,0,0,1-1.7-1.7V7.2A1.7524,1.7524,0,0,1,12,5.5H36a1.7524,1.7524,0,0,1,1.7,1.7V40.8A1.7524,1.7524,0,0,1,36,42.5ZM10.3,20.9H37.7"/><path class="a" d="M33.7,33.8H31.3a2.22,2.22,0,0,1-2.2-2.2h0a2.22,2.22,0,0,1,2.2-2.2h2.4a2.22,2.22,0,0,1,2.2,2.2h0A2.0984,2.0984,0,0,1,33.7,33.8Zm-17,0H14.3a2.22,2.22,0,0,1-2.2-2.2h0a2.22,2.22,0,0,1,2.2-2.2h2.4a2.22,2.22,0,0,1,2.2,2.2h0A2.1564,2.1564,0,0,1,16.7,33.8Zm8.5,0H22.8a2.22,2.22,0,0,1-2.2-2.2h0a2.22,2.22,0,0,1,2.2-2.2h2.4a2.22,2.22,0,0,1,2.2,2.2h0A2.0984,2.0984,0,0,1,25.2,33.8ZM35.1,40H29.9a.8963.8963,0,0,1-.9-.9V36.3a.8963.8963,0,0,1,.9-.9h5.2a.8963.8963,0,0,1,.9.9v2.8A.8393.8393,0,0,1,35.1,40ZM16.7,40H14.3A2.2425,2.2425,0,0,1,12,37.8h0a2.22,2.22,0,0,1,2.2-2.2h2.4a2.22,2.22,0,0,1,2.2,2.2h0A2.0192,2.0192,0,0,1,16.7,40Zm8.5,0H22.8a2.22,2.22,0,0,1-2.2-2.2h0a2.22,2.22,0,0,1,2.2-2.2h2.4a2.22,2.22,0,0,1,2.2,2.2h0A2.0984,2.0984,0,0,1,25.2,40Zm8.5-12.4H31.3a2.22,2.22,0,0,1-2.2-2.2h0a2.22,2.22,0,0,1,2.2-2.2h2.4a2.22,2.22,0,0,1,2.2,2.2h0A2.0984,2.0984,0,0,1,33.7,27.6Zm-17,0H14.3a2.22,2.22,0,0,1-2.2-2.2h0a2.22,2.22,0,0,1,2.2-2.2h2.4a2.22,2.22,0,0,1,2.2,2.2h0A2.1564,2.1564,0,0,1,16.7,27.6Zm8.5,0H22.8a2.22,2.22,0,0,1-2.2-2.2h0a2.22,2.22,0,0,1,2.2-2.2h2.4a2.22,2.22,0,0,1,2.2,2.2h0A2.0984,2.0984,0,0,1,25.2,27.6Zm-11-14.4c1.2-2.1,2.5-4.3,4.9-4.3,4.9,0,4.9,8.5,9.8,8.5,2.5,0,3.7-2.1,4.9-4.2"/></svg>