<?xml version="1.0" encoding="UTF-8"?>
<svg version="1.1" viewBox="0 0 48 48" xml:space="preserve" xmlns="http://www.w3.org/2000/svg"><defs><style>.a{fill:none;stroke:#fff;stroke-linecap:round;stroke-linejoin:round;}</style><style>.a{fill:none;stroke:#fff;stroke-linecap:round;stroke-linejoin:round;}</style></defs><circle class="a" cx="24" cy="24" r="21.5"/><rect class="a" x="19.451" y="28.228" width="2.7013" height="12.831" rx=".54027"/><path class="a" d="m28.279 28.228h-0.27012a2.1611 2.1611 0 0 0-2.1611 2.1611v1.4338a0.27008 0.27008 0 0 1-0.08844 0.19987l-2.4433 2.2212a0.54033 0.54033 0 0 0 0 0.7995l2.4433 2.2212a0.27008 0.27008 0 0 1 0.08844 0.19987v1.4338a2.1611 2.1611 0 0 0 2.1611 2.1611h0.27012a0.27015 0.27015 0 0 0 0.27015-0.27015v-4.301a0.54017 0.54017 0 0 0-0.15825-0.38201l-1.2716-1.2716a0.27018 0.27018 0 0 1 0-0.38205l1.2716-1.2716a0.54017 0.54017 0 0 0 0.15825-0.38201v-4.301a0.27015 0.27015 0 0 0-0.27015-0.27015z"/><g fill="none" stroke="#fff" stroke-linecap="round" stroke-linejoin="round" stroke-miterlimit="10"><line class="st0" x1="12.69" x2="21.529" y1="24.914" y2="24.914"/><line class="st0" x1="12.69" x2="17.109" y1="9.6026" y2="7.1617"/><line class="st0" x1="17.109" x2="17.109" y1="7.1617" y2="24.914"/><path class="st0" d="m23.598 12.932c0-3.3286 2.6516-5.9914 5.7452-5.9914 3.0936 0 5.9662 2.6629 5.9662 5.9914 0 1.5533-0.66291 3.1067-1.7678 4.2162-2.4307 1.9971-9.9437 7.7667-9.9437 7.7667h11.711" enable-background="new 0 0 380 200"/></g></svg>
