<svg xmlns="http://www.w3.org/2000/svg" viewBox="0 0 48 48"><defs><style>.a{fill:none;stroke:#fffff4;stroke-linecap:round;stroke-linejoin:round;}</style></defs><path class="a" d="M6.48,18.86A5.25,5.25,0,0,1,4.83,17.4c-.42-.64-.63-1.51.56-2.62a13.21,13.21,0,0,1,6.21-2.86c2.46-.4,4.81.17,7-.25s4.09-1.79,6.6-2.37a20.9,20.9,0,0,1,8.51.26c2.93.59,5.72,1.56,7.41,1.8s2.32-.24,2.41.39a18.14,18.14,0,0,1-.72,4.15m-9.49,4-4.48,4.5m9.54-6.64a2.73,2.73,0,0,1-2.73,2.73h0a2.74,2.74,0,0,1-2.74-2.73h0A2.74,2.74,0,0,1,35.6,15h0a2.73,2.73,0,0,1,2.73,2.73ZM27.05,20.46V12.24m0,4.83A2.05,2.05,0,0,0,25,15h0a2.05,2.05,0,0,0-2.06,2.05v1.34A2.05,2.05,0,0,0,25,20.46h0a2.05,2.05,0,0,0,2.05-2.05M16.41,17.07V15m4.11,5.44V17.07A2.06,2.06,0,0,0,18.46,15h0a2.05,2.05,0,0,0-2.05,2.05v3.39m-2.42,0V15m0,3.39a2.06,2.06,0,0,1-2.06,2.05h0a2.05,2.05,0,0,1-2-2.05V17.07a2.05,2.05,0,0,1,2-2.05h0A2.06,2.06,0,0,1,14,17.07M29.47,15v5.44m0-3.39A2.06,2.06,0,0,1,31.53,15h0m3.21,24V22.59m0,9.66a4.14,4.14,0,0,0-4.15-4.11h0a4.14,4.14,0,0,0-4.15,4.11v2.67A4.14,4.14,0,0,0,30.59,39h0a4.14,4.14,0,0,0,4.15-4.11M13.52,39V22.59m0,9.66a4.14,4.14,0,0,1,4.15-4.11h0a4.15,4.15,0,0,1,4.16,4.11v2.67A4.15,4.15,0,0,1,17.67,39h0a4.14,4.14,0,0,1-4.15-4.11"/></svg>