<svg xmlns="http://www.w3.org/2000/svg" viewBox="0 0 48 48"><defs><style>.a{fill:none;stroke:#fff;stroke-linecap:round;stroke-linejoin:round;}</style></defs><path class="a" d="M43.5,37.5v-27a2,2,0,0,0-2-2H6.5a2,2,0,0,0-2,2v27a2,2,0,0,0,2,2h35A2,2,0,0,0,43.5,37.5Z"/><polyline class="a" points="19.7 30.13 19.7 17.87 27.82 30.13 27.82 17.87"/><polyline class="a" points="16.63 17.87 12.56 30.13 8.5 17.87"/><path class="a" d="M39.5,26v.05a4.06,4.06,0,0,1-4.06,4.06h0a4.07,4.07,0,0,1-4.07-4.06V21.93a4.07,4.07,0,0,1,4.07-4.06h0a4.06,4.06,0,0,1,4.06,4.06V22"/></svg>