<?xml version="1.0" encoding="UTF-8" standalone="no"?>

<svg
   xmlns:dc="http://purl.org/dc/elements/1.1/"
   xmlns:cc="http://creativecommons.org/ns#"
   xmlns:rdf="http://www.w3.org/1999/02/22-rdf-syntax-ns#"
   xmlns:svg="http://www.w3.org/2000/svg"
   xmlns="http://www.w3.org/2000/svg"
   width="48"
   height="48"
   viewBox="0 0 12.7 12.7"
   version="1.1"
   id="svg8">
  <metadata
     id="metadata5">
    <rdf:RDF>
      <cc:Work
         rdf:about="">
        <dc:format>image/svg+xml</dc:format>
        <dc:type
           rdf:resource="http://purl.org/dc/dcmitype/StillImage" />
        <dc:title />
      </cc:Work>
    </rdf:RDF>
  </metadata>
  <path
     id="path1158"
     style="opacity:1;fill:none;stroke:#fffff4;stroke-width:0.26458332px;stroke-linecap:round;stroke-linejoin:round;stroke-opacity:1"
     d="M 1.7154707,4.9905344 C 1.5511395,4.8813459 1.3868715,4.7721995 1.2770687,4.602982 1.1672658,4.4337644 1.1121016,4.2047548 1.4251337,3.9107304 1.7381658,3.616706 2.4190212,3.2576434 3.0697175,3.1529266 3.7204138,3.0482097 4.3410787,3.1976213 4.9081123,3.0888527 5.475146,2.980084 5.9884347,2.6134025 6.6523399,2.4609964 c 0.6639053,-0.1524061 1.4784857,-0.090776 2.2537007,0.067396 0.775215,0.1581724 1.5111534,0.4128504 1.9602954,0.4764251 0.449143,0.063575 0.611342,-0.063665 0.637747,0.1049102 0.02641,0.1685749 -0.08283,0.633365 -0.192,1.0978367 M 8.8029352,5.2585856 7.615401,6.4496064 M 10.139374,4.693686 A 0.72249025,0.72264129 0 0 1 9.4168835,5.4163273 0.72249025,0.72264129 0 0 1 8.6943932,4.693686 0.72249025,0.72264129 0 0 1 9.4168835,3.9710447 0.72249025,0.72264129 0 0 1 10.139374,4.693686 Z M 7.1564641,5.4143915 v -2.175811 m 0.000001,1.278289 c 0,-0.2991741 -0.2447276,-0.5439528 -0.5438391,-0.5439528 v 0 c -0.2991114,0 -0.543839,0.2447787 -0.543839,0.5439528 v 0.3535693 c 0,0.299174 0.2447276,0.5439528 0.543839,0.5439528 v 0 c 0.2991115,0 0.5438391,-0.2447788 0.5438391,-0.5439528 M 4.3409371,4.5168686 V 3.9729159 M 5.4286163,5.4143916 V 4.5168695 c 0,-0.2991741 -0.2447276,-0.5439528 -0.5438391,-0.5439528 v 0 c -0.2991115,0 -0.5438391,0.2447787 -0.5438391,0.5439528 v 0.8975221 m -0.6401849,-0.0000001 V 3.9729159 m -0.0000003,0.8975229 c 0,0.299174 -0.2447276,0.5439528 -0.5438391,0.5439528 v 0 c -0.2991114,0 -0.543839,-0.2447788 -0.543839,-0.5439528 V 4.5168695 c 0,-0.2991741 0.2447276,-0.5439528 0.543839,-0.5439528 v 0 c 0.2991115,0 0.5438391,0.2447787 0.5438391,0.5439528 m 4.095897,-0.5439536 v 1.4414756 m -0.0000007,-0.897522 c 0,-0.2991741 0.2447276,-0.5439528 0.5438391,-0.5439528 v 0 M 9.1898499,10.325967 V 5.9755583 m 0.0000017,2.5558651 c 0,-0.5981812 -0.4940825,-1.0876022 -1.0979612,-1.0876022 v 0 c -0.6038787,0 -1.0979613,0.489421 -1.0979613,1.0876022 v 0.7069415 c 0,0.5981813 0.4940826,1.0876021 1.0979613,1.0876021 v 0 c 0.6038787,0 1.0979612,-0.4894208 1.0979612,-1.0876021 M 3.5780706,10.325967 V 5.9755583 m 0.0000017,2.5558651 c 0,-0.5981812 0.4940826,-1.0876022 1.0979613,-1.0876022 v 0 c 0.6038787,0 1.0979612,0.489421 1.0979612,1.0876022 v 0.7069415 c 0,0.5981813 -0.4940825,1.0876021 -1.0979612,1.0876021 v 0 c -0.6038787,0 -1.0979613,-0.4894208 -1.0979613,-1.0876021" />
</svg>
