<svg viewBox="0 0 48 48" xmlns="http://www.w3.org/2000/svg">
    <style>
        .a{fill:none;stroke:#FFFFFF;stroke-linecap:round;stroke-linejoin:round}
    </style>
    <path class="a" d="M18.1,10.1c-1.1-0.3-2.7-0.7-4.7-0.8C12,9.2,10,9.1,9.9,9.7c-0.1,0.6,2,1.2,4.4,3.2c1.6,1.2,2.2,2,2.9,2.9"/>
    <path class="a" d="M24.2,35.8c-1.4,0.1-4.7-0.7-5.3-1.4c-0.7-0.7,3.3-4.2,5.3-4.5"/>
    <path class="a" d="M37.4,21.1c-0.7-1.1-0.7-0.8-6.1-5.6c-5.9-5.3-5.8-5.5-7.4-6.7c-5.5-3.7-11.8-4.1-12-3.4c-0.2,0.6,4.2,1.7,7.3,6c1.1,1.6,1.6,2.3,1.9,3.4"/>
    <path class="a" d="M9.2,24.5c-0.8,2.1-1.9,4.9-1.2,8.4c1.1,5,5.4,7.5,6.3,8.1c3.2,1.9,6.2,1.9,9.9,1.9c3.8,0,7.6,0,11.1-2.7c2.4-1.9,3.4-4.3,3.8-5.1c1.7-4.1,0.9-8.1-0.1-10.7"/>
    <path class="a" d="M16.5,15c-1.2,0.8-3.6,2.6-5.6,6"/>
    <path class="a" d="M23.2,30.2l0.3-2.1L18,26.6c-0.9,2-0.1,4.2,2.4,5"/>
    <path class="a" d="M24.2,35.8c1.4-0.1,4.2-0.7,5-1.4c0.7-0.7-3-4.2-5-4.5"/>
    <path class="a" d="M25.2,30.2L25,28.1l5.5-1.4c0.9,2-0.3,4.3-2.9,5.2"/>
    <path class="a" d="M28.2,35.1c0.6,1.4-2.7,5.7-4,5.7c-0.9,0-4.3-4.1-4-5.7"/>
    <path class="a" d="M28.3,32.6C34,31.8,38.6,27,40.5,20.3L26.9,24c-0.6,0.7-1.4,1.4-2.7,1.4c-1.3,0-2.5-0.9-3.1-1.6c0,0-13.6-3.7-13.6-3.7c1.9,6.7,6.5,11.5,12.2,12.3"/>
    <path class="a" d="M18.8,34.1c-2.9,0.8-5.1,3.1-5.5,6.1"/>
    <path class="a" d="M34.5,40.6c-0.3-3-2.4-5.5-5.3-6.5"/>
</svg>