<svg viewBox="0 0 48 48" xmlns="http://www.w3.org/2000/svg">
    <style>
        .a{fill:none;stroke:#FFFFFF;stroke-linecap:round;stroke-linejoin:round}
    </style>
    <path class="a" d="M17.4,8.4c-1.2-0.3-3-0.8-5.3-0.9C10.6,7.4,8.3,7.3,8.2,8c-0.1,0.7,2.2,1.3,4.9,3.6c1.8,1.3,2.5,2.2,3.2,3.2"/>
    <path class="a" d="M24.2,37.2c-1.6,0.1-5.3-0.8-5.9-1.6c-0.8-0.8,3.7-4.7,5.9-5"/>
    <path class="a" d="M39,20.8c-0.8-1.2-0.8-0.9-6.8-6.3c-6.6-5.9-6.5-6.2-8.3-7.5c-6.2-4.1-13.2-4.6-13.4-3.8 c-0.2,0.7,4.7,1.9,8.2,6.7c1.2,1.8,1.8,2.6,2.1,3.8"/>
    <path class="a" d="M7.4,24.6C6.5,26.9,5.3,30,6.1,34c1.2,5.6,6,8.4,7.1,9.1c3.6,2.1,6.9,2.1,11.1,2.1c4.3,0,8.5,0,12.4-3 c2.7-2.1,3.8-4.8,4.3-5.7c1.9-4.6,1-9.1-0.1-12"/>
    <path class="a" d="M15.6,13.9c-1.3,0.9-4,2.9-6.3,6.7"/>
    <path class="a" d="M23.1,30.9l0.3-2.4l-6.2-1.7c-1,2.2-0.1,4.7,2.7,5.6"/>
    <path class="a" d="M24.2,37.2c1.6-0.1,4.7-0.8,5.6-1.6c0.8-0.8-3.4-4.7-5.6-5"/>
    <path class="a" d="M25.3,30.9l-0.2-2.4l6.2-1.6c1,2.2-0.3,4.8-3.2,5.8"/>
    <path class="a" d="M28.7,36.4c0.7,1.6-3,6.4-4.5,6.4c-1,0-4.8-4.6-4.5-6.4"/>
    <path class="a" d="M28.8,33.6c6.4-0.9,11.5-6.3,13.7-13.8L27.2,24c-0.7,0.8-1.6,1.6-3,1.6c-1.5,0-2.8-1-3.5-1.8L5.5,19.6 c2.1,7.5,7.3,12.9,13.7,13.8"/>
    <path class="a" d="M18.2,35.3c-3.2,0.9-5.7,3.5-6.2,6.8"/>
    <path class="a" d="M35.8,42.6c-0.3-3.4-2.7-6.2-5.9-7.3"/>
</svg>