<?xml version="1.0" encoding="UTF-8"?><svg id="a" xmlns="http://www.w3.org/2000/svg" viewBox="0 0 48 48"><defs><style>.p{fill:none;stroke:#fff;stroke-linecap:round;stroke-linejoin:round;}</style></defs><path id="b" class="p" d="M10.158,14.1742c.7415-3.321,.9585-6.8781,4.2688-9.0427,2.5402,.6887,3.9596,2.0078,5.456,3.2837,3.8582-1.4849,6.4067-.6244,8.6639,.7578,2.0414-2.0316,4.4333-3.7795,7.8808-4.6729,3.4124,4.3911,2.5907,9.0117,2.4754,11.4424l1.263,7.4262"/><path id="c" class="p" d="M10.158,14.1742c-1.6249,2.1651-2.815,4.57-2.5006,7.8051"/><path id="d" class="p" d="M9.2234,25.2882c-1.4146,4.4846-4.2401,9.1001,.5557,13.0084-.4864-1.5999-.9091-3.1488-.7325-4.2183,1.2656,2.6803,3.591,4.0736,5.7591,5.658-3.0634-5.0262-3.3455-10.3353-2.4501-15.7641"/><path id="e" class="p" d="M39.307,26.6522c1.1497,7.8991,1.9659,15.607-8.487,16.8478,1.399-1.3309,2.1224-3.0256,2.6522-4.8245-1.4055,1.4746-3.2186,2.134-5.2286,2.3996,2.214-1.9121,3.8023-3.9435,3.2079-6.3905-2.4043,2.7491-4.7327,2.8401-7.0725,3.3342,7.8477-4.0493,3.3719-11.6315,3.5615-14.0899"/><path id="f" class="p" d="M39.307,26.6522c-9.9785-2.1319-19.4145-7.0417-30.9676-1.1114l-1.5661-3.0011c12.4985-7.0292,23.0299,.4755,34.4534,1.3893l-1.9197,2.7233Z"/><path id="g" class="p" d="M36.4275,4.5c-1.9859,2.8768-3.4427,6.0381-4.0162,9.6742,2.419,1.1526,4.6669,1.6849,6.5487,.8901"/><path id="h" class="p" d="M14.4268,5.1315c1.3246,2.013,2.5406,4.0257,2.8038,6.0369,.5376-.8683,1.1848-1.7522,2.6522-2.7532"/><g id="i"><polyline id="j" class="p" points="21.6309 17.0575 20.4693 12.7238 18.8079 16.9095"/><line id="k" class="p" x1="19.3627" y1="15.4965" x2="21.2269" y2="15.5942"/></g><g id="l"><polyline id="m" class="p" points="21.8542 12.7964 21.6309 17.0575 23.7614 17.1691"/></g><path id="n" class="p" d="M15.3659,27.4652c-.7301-2.0022-.7619,3.4294,.1516,1.3846"/><path id="o" class="p" d="M24.5491,27.1321c-1.134-1.7632-.8506,3.6658,.101,1.3892"/></svg>