<svg xmlns="http://www.w3.org/2000/svg" viewBox="0 0 48 48"><defs><style>.a{fill:none;stroke:#fff;stroke-linecap:round;stroke-linejoin:round;}</style></defs> <path class="a"                     d="M34.58,28.03C32.92,29.92,28.95,31.99,25.30,32.54L25.28,41.43L23.01,41.43L23.01,32.62C21.08,32.55,17.09,31.26,14.31,27.77C19.36,22.16,27.83,22.76,34.58,28.03z"/> <path class="a"                     d="M14.84,21.53Q12.82,22.61,12.33,24.01C18.18,18.79,28.95,17.63,36.41,24.02C40.42,2.14,9.93,-0.07,11.72,22.53Q13.65,20.76,15.65,20.23Q14.08,21.30,13.10,22.06Q13.89,21.79,14.84,21.53z"/> <path class="a"                     d="M32.72,25.75Q35.19,27.31,34.53,27.92"/> <path class="a"                     d="M20.32,20.98Q24.99,19.60,27.57,20.98"/> <path class="a"                     d="M24.05,19.71L24.05,20.26"/></svg>