<svg viewBox="0 0 48 48" xmlns="http://www.w3.org/2000/svg"><path class="a" d="M29.152 5.284H18.967a.617.617 0 0 0-.617.618v10.185a.617.617 0 0 0 .617.617h10.185a.617.617 0 0 0 .617-.617V5.902a.617.617 0 0 0-.617-.618Z" style="fill:none;stroke:#fff;stroke-width:1;stroke-linecap:round;stroke-linejoin:round;stroke-miterlimit:4;stroke-dasharray:none"/><path class="a" d="m43.595 23.22-3.083-9.706a.617.617 0 0 0-.776-.402l-9.707 3.084a.617.617 0 0 0-.401.775l3.084 9.707a.617.617 0 0 0 .775.402l9.707-3.084a.617.617 0 0 0 .401-.775zm-39.19.06 3.083-9.707a.617.617 0 0 1 .776-.401l9.707 3.084a.617.617 0 0 1 .401.775l-3.084 9.707a.617.617 0 0 1-.775.401l-9.707-3.084a.617.617 0 0 1-.401-.775Zm12.311 19.313-8.132-6.132a.617.617 0 0 1-.121-.865l6.133-8.132a.617.617 0 0 1 .864-.12l8.132 6.132a.617.617 0 0 1 .121.864l-6.133 8.132a.617.617 0 0 1-.864.121zm14.509-.059 8.131-6.133a.617.617 0 0 0 .122-.864l-6.133-8.132a.617.617 0 0 0-.865-.121l-8.131 6.132a.617.617 0 0 0-.122.865l6.133 8.132a.617.617 0 0 0 .865.12z" style="fill:none;stroke:#fff;stroke-width:1;stroke-linecap:round;stroke-linejoin:round;stroke-miterlimit:4;stroke-dasharray:none"/><path style="fill:none;stroke:#fff;stroke-width:1;stroke-linecap:round;stroke-linejoin:round;stroke-opacity:1;stroke-miterlimit:4;stroke-dasharray:none" d="m33.868 38.036-3.643-5.265-2.663 3.02zm0 0 .06-6.96-3.703 1.695"/><g style="fill:none;stroke:#000;stroke-linecap:round;stroke-linejoin:round"><g style="fill:none;stroke:#fff;stroke-linecap:round;stroke-linejoin:round"><path class="st0" d="M179.5 123.3c0-1.1.9-2 2-2v0c1.1 0 2 .9 2 2v3.2m-4-5.2v5.2" style="fill:none;stroke:#fff;stroke-linecap:round;stroke-linejoin:round;stroke-width:1.55894366;stroke-miterlimit:4;stroke-dasharray:none" transform="rotate(73.077 117.175 -4.858) scale(.64146)"/></g><path class="st0" d="M183.5 123.3c0-1.1.9-2 2-2v0c1.1 0 2 .9 2 2v3.2" style="fill:none;stroke:#fff;stroke-linecap:round;stroke-linejoin:round;stroke-width:1.55894366;stroke-miterlimit:4;stroke-dasharray:none" transform="rotate(73.077 117.175 -4.858) scale(.64146)"/></g><path class="a" d="m16.813 38.504 2.613-3.01a.295.295 0 0 0-.03-.416l-3.901-3.388a.295.295 0 0 0-.417.03l-2.613 3.01a.295.295 0 0 0 .03.416l3.901 3.388a.295.295 0 0 0 .417-.03zM14.28 18.465l-4.224-1.274a.267.267 0 0 0-.333.179L8.45 21.593a.267.267 0 0 0 .18.333l4.22 1.274a.267.267 0 0 0 .333-.18l1.274-4.222a.267.267 0 0 0-.179-.333z" style="fill:none;stroke:#fff;stroke-width:1;stroke-linecap:round;stroke-linejoin:round;stroke-miterlimit:4;stroke-dasharray:none"/><path style="fill:none;stroke:#fff;stroke-width:.9486676;stroke-linecap:round;stroke-linejoin:round;stroke-miterlimit:4;stroke-dasharray:none;stroke-opacity:1" d="m26.822 6.103-3.691 1.883.79-1.883m2.901 0-3.694 1.879 1.989.467" transform="translate(-1.832 4.985) scale(1.05411)"/><path style="fill:none;stroke:#fff;stroke-width:.9486676;stroke-linecap:round;stroke-linejoin:round;stroke-miterlimit:4;stroke-dasharray:none;stroke-opacity:1" d="m26.822 6.103-3.691 1.883.79-1.883m2.901 0-3.694 1.879 1.989.467" transform="rotate(180 24.916 8.549) scale(1.05411)"/></svg>