<svg width="48" height="48" viewBox="0 0 48 48" fill="none" xmlns="http://www.w3.org/2000/svg">
<path d="M32.0328 21.4014C32.0328 20.2306 31.0837 19.2814 29.9128 19.2814C28.742 19.2814 27.7928 20.2306 27.7928 21.4014V23.5614C27.7928 24.7322 28.742 25.6814 29.9128 25.6814C31.0837 25.6814 32.0328 24.7322 32.0328 23.5614V21.4014Z" stroke="white" stroke-linecap="round" stroke-linejoin="round"/>
<path d="M21.8854 19.2814H26.1254" stroke="white" stroke-linecap="round" stroke-linejoin="round"/>
<path d="M24.0054 25.6814V19.2814" stroke="white" stroke-linecap="round" stroke-linejoin="round"/>
<path d="M15.5934 25.6814V19.2814L19.8334 25.6814V19.2814" stroke="white" stroke-linecap="round" stroke-linejoin="round"/>
<path d="M34.7392 25.6814V19.2814L38.9792 25.6814V19.2814" stroke="white" stroke-linecap="round" stroke-linejoin="round"/>
<path d="M12.5585 23.5614H9.72302" stroke="white" stroke-linecap="round" stroke-linejoin="round"/>
<path d="M9.02078 25.6814L11.1408 19.2814L13.2608 25.6814" stroke="white" stroke-linecap="round" stroke-linejoin="round"/>
<ellipse cx="19.3755" cy="15.4081" rx="0.5" ry="0.5" fill="white"/>
<ellipse cx="28.8167" cy="15.4081" rx="0.5" ry="0.5" fill="white"/>
<path d="M31.3497 28.69C30.6364 30.008 29.5835 31.1112 28.3002 31.8851C27.0168 32.6591 25.5498 33.0756 24.0512 33.0915C22.5527 33.1074 21.0772 32.7221 19.7777 31.9755C18.4782 31.2289 17.4022 30.1483 16.6611 28.8457" stroke="white" stroke-linecap="round"/>
</svg>
