<?xml version="1.0" encoding="utf-8"?>
<!-- Generator: Adobe Illustrator 27.2.0, SVG Export Plug-In . SVG Version: 6.00 Build 0)  -->
<svg version="1.1" id="Layer_2" xmlns="http://www.w3.org/2000/svg" xmlns:xlink="http://www.w3.org/1999/xlink" x="0px" y="0px"
	 viewBox="0 0 48 48" style="enable-background:new 0 0 48 48;" xml:space="preserve">
<style type="text/css">
	.st0{fill:none;stroke:#FFFFFF;stroke-linecap:round;stroke-linejoin:round;}
</style>
<path class="st0" d="M40.4,31.2v7c0,0.9-0.8,1.6-1.8,1.6H7.7c-1,0-1.8-0.7-1.8-1.6V16.6c0-0.9,0.8-1.6,1.8-1.6h7.4h23.5
	c1,0,1.8,0.7,1.8,1.6v7"/>
<path class="st0" d="M40.4,31.2v7c0,0.9-0.8,1.6-1.8,1.6H7.7c-1,0-1.8-0.7-1.8-1.6V16.6c0-0.9,0.8-1.6,1.8-1.6h7.4h23.5
	c1,0,1.8,0.7,1.8,1.6v7"/>
<polyline class="st0" points="37.3,31.3 37.3,36.9 35.5,36.9 35.5,31.3 "/>
<polyline class="st0" points="37.3,23.5 37.3,17.9 35.5,17.9 35.5,23.5 "/>
<rect x="13.3" y="17.9" class="st0" width="1.8" height="19"/>
<line class="st0" x1="9.7" y1="17.9" x2="9.7" y2="36.9"/>
<line class="st0" x1="18.6" y1="17.9" x2="18.6" y2="36.9"/>
<rect x="21.3" y="17.9" class="st0" width="1.8" height="19"/>
<polygon class="st0" points="28.5,17.9 28.5,23.6 28.5,31.2 28.5,36.9 26.7,36.9 26.7,17.9 "/>
<line class="st0" x1="32.1" y1="31.2" x2="32.1" y2="36.9"/>
<line class="st0" x1="32.1" y1="17.9" x2="32.1" y2="23.6"/>
<path class="st0" d="M35.2,7.8c1-0.4,2.2,0.3,2.6,1.4l1.4,4.1H21.2L35.2,7.8z"/>
<path class="st0" d="M32.9,31.2h7.6c1.1,0,2-0.9,2-2v-3.5c0-1.1-0.9-2-2-2h-7.6c-1.1,0-2,0.9-2,2v3.5C30.9,30.3,31.8,31.2,32.9,31.2
	z"/>
<path class="st0" d="M36.5,23.6h-3.9c-1,0-1.8,0.9-1.8,2v3.5c0,1.1,0.8,2,1.8,2h8.1c1,0,1.8-0.9,1.8-2v-3.5c0-1.1-0.8-2-1.8-2H36.5"
	/>
<ellipse class="st0" cx="34" cy="27.4" rx="0.9" ry="1.1"/>
</svg>
