<?xml version="1.0" encoding="UTF-8" standalone="no"?>
<svg
   viewBox="0 0 48 48"
   version="1.1"
   id="svg1"
   sodipodi:docname="aoe2-companion_v1.svg"
   inkscape:version="1.3.2 (091e20ef0f, 2023-11-25, custom)"
   xml:space="preserve"
   xmlns:inkscape="http://www.inkscape.org/namespaces/inkscape"
   xmlns:sodipodi="http://sodipodi.sourceforge.net/DTD/sodipodi-0.dtd"
   xmlns="http://www.w3.org/2000/svg"
   xmlns:svg="http://www.w3.org/2000/svg"><sodipodi:namedview
     id="namedview1"
     pagecolor="#000000"
     bordercolor="#999999"
     borderopacity="1"
     inkscape:showpageshadow="0"
     inkscape:pageopacity="0"
     inkscape:pagecheckerboard="0"
     inkscape:deskcolor="#d1d1d1"
     inkscape:zoom="11.313709"
     inkscape:cx="23.820659"
     inkscape:cy="23.157746"
     inkscape:window-width="1920"
     inkscape:window-height="1052"
     inkscape:window-x="1920"
     inkscape:window-y="0"
     inkscape:window-maximized="1"
     inkscape:current-layer="svg1" /><defs
     id="defs1"><style
       id="style1">.a{fill:none;stroke:#fff;stroke-linecap:round;stroke-linejoin:round;}</style></defs><path
     id="text6"
     style="font-size:42.1947px;font-family:'Gargi-1.2b';-inkscape-font-specification:'Gargi-1.2b, Normal';text-align:center;text-anchor:middle;fill:none;stroke:#ffffff;stroke-width:1;stroke-linecap:round;stroke-linejoin:round;stroke-dasharray:none"
     d="M 27.995144 17.576189 L 27.995144 12.011748 C 27.995144 10.553625 27.578982 9.5631993 26.746661 9.0404762 C 26.175927 8.6828237 25.260373 8.5039968 24 8.5039968 " /><path
     id="path14"
     style="font-size:42.1947px;font-family:'Gargi-1.2b';-inkscape-font-specification:'Gargi-1.2b, Normal';text-align:center;text-anchor:middle;fill:none;stroke:#ffffff;stroke-width:1;stroke-linecap:round;stroke-linejoin:round;stroke-dasharray:none"
     d="M 24 39.496003 C 25.807325 39.303421 26.925016 38.959523 27.353067 38.464312 C 27.781118 37.9691 27.995144 37.143746 27.995144 35.988253 L 27.995144 31.07225 " /><path
     id="path13"
     style="font-size:42.1947px;font-family:'Gargi-1.2b';-inkscape-font-specification:'Gargi-1.2b, Normal';text-align:center;text-anchor:middle;fill:none;stroke:#ffffff;stroke-width:1;stroke-linecap:round;stroke-linejoin:round;stroke-dasharray:none"
     d="M 24 7.2659672 L 38.981789 7.2659672 L 38.981789 8.5039968 C 37.697637 8.5039968 36.77019 8.6690676 36.199456 8.9992086 C 35.343354 9.4944199 34.915303 10.498602 34.915303 12.011748 L 34.915303 35.988253 C 34.915303 37.391353 35.295793 38.368022 36.056772 38.918257 C 36.675067 39.303421 37.650075 39.496003 38.981789 39.496003 L 38.981789 40.734033 L 24 40.734033 " /><path
     id="path12"
     style="font-size:42.1947px;font-family:'Gargi-1.2b';-inkscape-font-specification:'Gargi-1.2b, Normal';text-align:center;text-anchor:middle;fill:none;stroke:#ffffff;stroke-width:1;stroke-linecap:round;stroke-linejoin:round;stroke-dasharray:none"
     d="M 24 40.734033 L 9.0182116 40.734033 L 9.0182116 39.496003 C 10.825536 39.303421 11.943228 38.959523 12.371278 38.464312 C 12.799329 37.9691 13.013355 37.143746 13.013355 35.988253 L 13.013355 12.011748 C 13.013355 10.553625 12.597194 9.5631993 11.764873 9.0404762 C 11.194139 8.6828237 10.278583 8.5039968 9.0182116 8.5039968 L 9.0182116 7.2659672 L 24 7.2659672 " /><path
     id="path11"
     style="font-size:42.1947px;font-family:'Gargi-1.2b';-inkscape-font-specification:'Gargi-1.2b, Normal';text-align:center;text-anchor:middle;fill:none;stroke:#ffffff;stroke-width:1;stroke-linecap:round;stroke-linejoin:round;stroke-dasharray:none"
     d="M 19.933514 31.07225 L 19.933514 35.988253 C 19.933514 37.391353 20.314005 38.368022 21.074984 38.918257 C 21.693279 39.303421 22.668286 39.496003 24 39.496003 " /><path
     id="path9"
     style="font-size:42.1947px;font-family:'Gargi-1.2b';-inkscape-font-specification:'Gargi-1.2b, Normal';text-align:center;text-anchor:middle;fill:none;stroke:#ffffff;stroke-width:1;stroke-linecap:round;stroke-linejoin:round;stroke-dasharray:none"
     d="M 24 8.5039968 C 22.715848 8.5039968 21.788402 8.6690676 21.217668 8.9992086 C 20.361567 9.4944199 19.933514 10.498602 19.933514 12.011748 L 19.933514 17.576188 " /><path
     id="polyline580-0"
     style="fill:none;stroke:#ffffff;stroke-linecap:round;stroke-linejoin:round;stroke-width:1;stroke-dasharray:none"
     class="t"
     d="m 15.183431,27.999945 2.65,-8 2.65,8 m -0.877797,-2.65 h -3.544403" /><path
     id="polyline412"
     style="fill:none;stroke:#ffffff;stroke-linecap:round;stroke-linejoin:round;stroke-width:1;stroke-dasharray:none"
     class="t"
     d="m 31.995144,27.999999 h -4 v -8 h 4 m -4,4.000001 h 2.608" /><rect
     class="t"
     x="22.239288"
     y="22.699945"
     width="4"
     height="5.3000002"
     rx="2"
     ry="2"
     id="rect373"
     style="fill:none;stroke:#ffffff;stroke-linecap:round;stroke-linejoin:round;stroke-width:1;stroke-dasharray:none" /><path
     style="fill:none;stroke:#ffffff;stroke-width:1;stroke-linecap:round;stroke-linejoin:round;stroke-dasharray:none"
     d="m 6.5,24 h 4.00011"
     id="path8" /><path
     style="fill:none;stroke:#ffffff;stroke-width:1;stroke-linecap:round;stroke-linejoin:round;stroke-dasharray:none"
     d="m 37.5,24 h 4.00011"
     id="path15" /></svg>
