<?xml version="1.0" encoding="UTF-8"?>
<svg version="1.1" viewBox="0 0 48 48" xml:space="preserve" xmlns="http://www.w3.org/2000/svg"><defs><style>.a{fill:none;stroke:#fff;stroke-linecap:round;stroke-linejoin:round;}</style></defs><ellipse cx="19.142" cy="13.455" rx=".88587" ry=".88288" fill="#fff" stroke-width="0"/><ellipse cx="28.334" cy="13.455" rx=".88587" ry=".88288" fill="#fff" stroke-width="0"/><path d="m34.897 17.665a10.897 8.4155 0 0 0-5.4483-7.2882 10.897 8.4155 0 0 0-10.897 0 10.897 8.4155 0 0 0-5.4483 7.2882z" fill="none" stroke="#fff" stroke-linecap="round" stroke-linejoin="round"/><path d="m15.437 5 3.1146 5.3764" fill="none" stroke="#fff" stroke-linecap="round" stroke-linejoin="round"/><path d="m32.563 5-3.1146 5.3764" fill="none" stroke="#fff" stroke-linecap="round" stroke-linejoin="round"/><path d="m21.412 20.885-0.54344 2.7901c-0.91318 0.33439-1.7363 0.81282-2.488 1.4276l-2.6875-0.92403-2.5901 4.4702 2.1528 1.8661c-0.17026 0.93847-0.17026 1.8935 0 2.8576l-2.1528 1.8655 2.5901 4.4684 2.6851-0.92228c0.73913 0.60539 1.5774 1.0973 2.4904 1.4259l0.54344 2.7901h5.1755l0.53296-2.7622c0.96354-0.40382 1.7531-0.84584 2.4985-1.4556l2.6875 0.92403 2.5878-4.4684-2.1504-1.8678c0.16286-0.94002 0.18192-1.8903 0-2.8529l2.1528-1.8702-2.5901-4.4684-2.6851 0.9223c-0.66632-0.54572-1.5444-1.0942-2.4904-1.4253l-0.54344-2.7901zm2.5405 7.6626a3.4482 3.4389 0 0 1 3.4479 3.4386 3.4482 3.4389 0 0 1-3.4479 3.4392 3.4482 3.4389 0 0 1-3.4485-3.4392 3.4482 3.4389 0 0 1 3.4485-3.4386z" fill="none" stroke="#fff" stroke-linecap="round" stroke-linejoin="round"/></svg>
