<svg width="48" height="48" version="1.1" viewBox="0 0 48 48" xmlns="http://www.w3.org/2000/svg">
 <defs>
  <style>.cls-1{fill:none;stroke:#fff;stroke-linecap:round;stroke-linejoin:round;}</style>
  <style>.a{fill:none;stroke:#fff;stroke-linecap:round;stroke-linejoin:round;}</style>
  <style>.cls-1{fill:none;stroke:#fff;stroke-linecap:round;stroke-linejoin:round;}</style>
 </defs>
 <g>
  <path class="cls-1" d="m42.933 24.736 1.9767-2.0222a2.3025 2.3816 0 0 0 0-3.3703 2.3025 2.3816 0 0 0-3.2727 0l-1.9695 2.0222a14.047 14.53 0 0 0-16.422 0l-1.8971-1.9922a2.317 2.3966 0 0 0-3.2799 0 2.3097 2.3891 0 0 0 0 3.3703l1.9695 2.0072a14.076 14.559 0 0 0-2.6718 8.508v6.9577a1.4843 1.5354 0 0 0 1.4843 1.5354h25.269a1.4843 1.5354 0 0 0 1.4481-1.5354v-6.9577a14.054 14.537 0 0 0-2.6356-8.523zm-17.377 10.852a2.6067 2.6962 0 1 1 2.5994-2.6887 2.5993 2.6887 0 0 1-2.6139 2.6887zm11.889 0a2.6067 2.6962 0 1 1 2.5848-2.6887 2.5993 2.6887 0 0 1-2.5994 2.6887z"/>
  <path class="a" d="m11.77 16.556v-1.9071l-4.7387-4.861-1.8105 1.8955 4.7483 4.8725z"/>
  <path class="a" d="m3.5165 7.0751a0.64616 0.66837 0 0 1 0.91174 0l1.0415 1.0746-1.8238 1.8818-1.0414-1.0746a0.64214 0.66421 0 0 1 0-0.94072z"/>
  <path class="cls-1" d="m30.263 16.458v-1.9705h-6.5165c-0.7998 0-1.4481-0.67063-1.4481-1.4979v-6.7405h-13.033c-0.63755 0-1.1788 0.42616-1.3722 1.0181m-0.075874 10.611v16.081c0 0.82728 0.64835 1.4979 1.4481 1.4979h6.1756"/>
  <line class="cls-1" x1="22.298" x2="30.263" y1="6.2492" y2="14.488"/>
  <line class="cls-1" x1="11.77" x2="15.847" y1="30.605" y2="30.605"/>
 </g>
 <g fill="none" stroke="#fff" stroke-linecap="round">
  <path d="m11.77 26.486h4.9102"/>
  <path d="m11.77 22.359h3.591"/>
  <path d="m11.77 18.232h4.2799m6.8766 0h1.4204"/>
  <path d="m18.069 14.113h-4.3805"/>
 </g>
</svg>
