<svg version="1.1" viewBox="0 0 48 48" xmlns="http://www.w3.org/2000/svg">
 <g fill="none" stroke="#fff" stroke-linecap="round" stroke-linejoin="round" stroke-miterlimit="4.05">
  <path d="m30.893 25.498h7.9964v8.2015h-7.9964v-8.2015" style="paint-order:stroke fill markers"/>
  <path d="m38.889 25.498 2.5181-2.5181"/>
  <path d="m30.893 25.498 2.5181-2.5181"/>
  <path d="m38.889 33.7 2.5181-2.5181"/>
  <path d="m33.411 22.98h7.9964"/>
  <path d="m41.407 22.98v8.2015"/>
  <path d="m30.893 33.7c-2.0534 1.1855-5.9926 2.9184-8.121 1.8809"/>
  <path d="m19.632 16.015c0 13.034 18.964 6.5898 14.817-0.59268"/>
  <path d="m20.572 20.289c-4.1016 2.3681-6.2991 10.482-1.165 13.446"/>
  <path d="m19.632 16.015c2.056 1.187 10.234 0.63541 14.817-0.59268 1.1504-0.30825 4.2021-1.2987 3.3607-2.1401-0.84138-0.84138-2.2367-1.4542-3.9982-1.7428-2.4541-9.1589-17.736-1.6847-14.18 4.4756"/>
  <path d="m33.811 11.54c-1.6786 1.6786-10.74 3.5538-14.18 4.4756"/>
  <path d="m32.38 21.714c-2.7846 0.74263-4.9942 0.50782-6.4127-1.072"/>
  <path d="m27.121 26.736 4.8569 3.4796 2.5372-1.1599"/>
  <path d="m28.322 34.955 3.341 5.7868 2.8365-1.6377"/>
  <path d="m22.944 31.223-3.3898 5.8714-4.6382-1.2428-1.8674 3.2344"/>
  <path d="m8.9634 13.644h5.9268"/>
  <path d="m7.7781 17.2h5.9268"/>
  <path d="m6.5927 27.869h5.9268"/>
  <path d="m7.7781 31.425h5.9268"/>
  <path d="m32.152 24.239-1.8911-1.4263"/>
  <circle cx="32.53" cy="18.254" r=".75" fill="#fff" stroke-miterlimit="10" stroke-width="0" style="paint-order:stroke fill markers"/>
  <circle cx="28.019" cy="18.767" r=".75" fill="#fff" stroke-miterlimit="10" stroke-width="0" style="paint-order:stroke fill markers"/>
 </g>
</svg>
