<?xml version="1.0" encoding="UTF-8" standalone="no"?>
<svg
   xmlns:dc="http://purl.org/dc/elements/1.1/"
   xmlns:cc="http://creativecommons.org/ns#"
   xmlns:rdf="http://www.w3.org/1999/02/22-rdf-syntax-ns#"
   xmlns:svg="http://www.w3.org/2000/svg"
   xmlns="http://www.w3.org/2000/svg"
   xmlns:sodipodi="http://sodipodi.sourceforge.net/DTD/sodipodi-0.dtd"
   xmlns:inkscape="http://www.inkscape.org/namespaces/inkscape"
   viewBox="0 0 48 48"
   version="1.1"
   id="svg8"
   sodipodi:docname="appbrainaddetector.svg"
   inkscape:version="1.0.1 (3bc2e813f5, 2020-09-07)">
  <style
     id="style1864" />
  <metadata
     id="metadata12">
    <rdf:RDF>
      <cc:Work
         rdf:about="">
        <dc:format>image/svg+xml</dc:format>
        <dc:type
           rdf:resource="http://purl.org/dc/dcmitype/StillImage" />
        <dc:title></dc:title>
      </cc:Work>
    </rdf:RDF>
  </metadata>
  <sodipodi:namedview
     pagecolor="#595959"
     bordercolor="#666666"
     borderopacity="1"
     objecttolerance="10"
     gridtolerance="10"
     guidetolerance="10"
     inkscape:pageopacity="0"
     inkscape:pageshadow="2"
     inkscape:window-width="3840"
     inkscape:window-height="2098"
     id="namedview10"
     showgrid="false"
     showguides="true"
     inkscape:guide-bbox="true"
     inkscape:zoom="1.480195"
     inkscape:cx="-97.073423"
     inkscape:cy="101.828"
     inkscape:window-x="0"
     inkscape:window-y="25"
     inkscape:window-maximized="1"
     inkscape:current-layer="svg8"
     inkscape:document-rotation="0">
    <inkscape:grid
       type="xygrid"
       id="grid1866" />
  </sodipodi:namedview>
  <defs
     id="defs4">
    <style
       id="style2">.a{fill:none;stroke:#fff;stroke-linecap:round;stroke-linejoin:round;}</style>
  </defs>
  <path
     style="fill:none;stroke:#fdfdfd;stroke-width:1px;stroke-linecap:butt;stroke-linejoin:miter;stroke-opacity:1"
     d="M 23.366975,8.5937116 C 19.624891,11.658447 13.757121,12.682502 8.7779561,12.89879 c 0,6.506166 0.050278,5.775788 0.050278,10.170332 0,4.394544 2.4839369,9.362882 6.0214279,12.102416 8.123837,6.29133 8.123837,6.29133 8.123837,6.29133 h 0.701872 c 0,0 0,0 8.278057,-6.271512 1.414953,-1.071978 5.818623,-5.515285 5.817442,-12.110955 -0.0018,-10.055849 -0.0018,0.938412 -0.0018,-10.055849 C 32.229691,12.600728 27.013186,11.146797 23.366975,8.5937116 Z"
     id="path1854"
     sodipodi:nodetypes="cczsccsscc" />
  <path
     id="path1870"
     style="fill:none;stroke:#fdfdfd;stroke-width:1px;stroke-linecap:butt;stroke-linejoin:miter;stroke-opacity:1"
     d="M 11.654084 25.981256 C 11.22998 27.764526 10.997857 29.674385 10.987312 31.699876 C 10.982812 32.572874 10.811077 37.469027 12.299489 36.214576 " />
  <path
     id="path1926"
     style="fill:none;stroke:#fdfdfd;stroke-width:1px;stroke-linecap:butt;stroke-linejoin:miter;stroke-opacity:1"
     d="M 16.388464 16.748696 C 14.719604 18.630266 13.363006 20.86501 12.426759 23.41291 " />
  <path
     id="path1972"
     style="fill:none;stroke:#fdfdfd;stroke-width:1px;stroke-linecap:butt;stroke-linejoin:miter;stroke-opacity:1"
     d="M 33.21616 12.411638 C 33.51559 11.557158 33.111026 9.8261804 31.497076 9.8585372 C 26.988629 9.9489233 22.684021 11.449319 19.192951 14.133987 " />
  <path
     id="path1872"
     style="fill:none;stroke:#fdfdfd;stroke-width:1px;stroke-linecap:butt;stroke-linejoin:miter;stroke-opacity:1"
     d="M 25.894604 28.402955 C 28.733088 31.775439 31.601288 34.219781 33.500425 34.465963 C 37.100014 34.932571 37.486379 33.542889 36.094827 32.370258 " />
  <path
     id="path2023"
     style="fill:none;stroke:#fdfdfd;stroke-width:1px;stroke-linecap:butt;stroke-linejoin:miter;stroke-opacity:1"
     d="M 18.477902 16.795157 C 19.275697 18.565666 20.278666 20.403996 21.397553 22.196652 " />
  <path
     id="path1977"
     style="fill:none;stroke:#fdfdfd;stroke-width:1px;stroke-linecap:butt;stroke-linejoin:miter;stroke-opacity:1"
     d="M 22.649369 7.3194409 C 22.3554 5.4963645 17.399881 4.5451739 16.666191 8.6533654 C 16.41812 10.042406 16.678884 11.80808 17.300561 13.762292 " />
  <path
     id="path1874"
     style="fill:none;stroke:#fdfdfd;stroke-width:1px;stroke-linecap:butt;stroke-linejoin:miter;stroke-opacity:1"
     d="M 10.198043 24.012172 C 9.5414304 23.921811 8.9191242 23.823194 8.3378497 23.715769 C 4.5379664 23.013513 4.4551964 20.067304 8.3378497 20.385114 " />
  <path
     id="path1946"
     style="fill:none;stroke:#fdfdfd;stroke-width:1px;stroke-linecap:butt;stroke-linejoin:miter;stroke-opacity:1"
     d="M 20.709315 24.786469 C 17.966486 24.699122 15.262675 24.549132 12.840797 24.316555 " />
  <path
     id="path2018"
     style="fill:none;stroke:#fdfdfd;stroke-width:1px;stroke-linecap:butt;stroke-linejoin:miter;stroke-opacity:1"
     d="M 38.280401 22.219256 C 41.882717 22.276076 43.581077 24.165205 38.525581 24.555766 C 36.136906 24.740302 31.865905 24.888615 27.10944 24.886009 " />
  <path
     style="fill:none;stroke:#fdfdfd;stroke-width:1px;stroke-linecap:butt;stroke-linejoin:round;stroke-opacity:1"
     d="m 21.194723,9.8668033 c 0,-0.1336731 -0.312978,-2.2395533 -0.312978,-2.2395533 l 2.69061,-0.2376678 -0.20538,1.2041294"
     id="path1894"
     sodipodi:nodetypes="cccc" />
  <path
     style="fill:none;stroke:#fdfdfd;stroke-width:1px;stroke-linecap:butt;stroke-linejoin:round;stroke-opacity:1"
     d="m 15.635177,14.552903 1.082119,2.930058 3.838814,-1.398504 -1.919908,-2.757422 z"
     id="path1896"
     sodipodi:nodetypes="ccccc" />
  <path
     style="fill:none;stroke:#fdfdfd;stroke-width:1px;stroke-linecap:butt;stroke-linejoin:round;stroke-opacity:1"
     d="m 10.45692,23.318235 2.63005,0.172341 -0.03067,2.732411 -2.702481,-0.399523 z"
     id="path1898" />
  <path
     style="fill:none;stroke:#fdfdfd;stroke-width:1px;stroke-linecap:butt;stroke-linejoin:round;stroke-opacity:1"
     d="m 33.998409,33.155444 0.857408,0.51016 1.697511,-2.252497 -0.753437,-0.603226"
     id="path1900" />
  <path
     style="fill:none;stroke:#fdfdfd;stroke-width:1px;stroke-linecap:butt;stroke-linejoin:round;stroke-opacity:1"
     d="m 14.252651,34.661754 -0.361477,1.90737 c -0.112306,0.521522 -0.462458,0.560205 -0.982088,0.254841 l -2.495465,-1.81925 2.011874,-2.168987"
     id="path1902"
     sodipodi:nodetypes="ccccc" />
  <path
     style="fill:none;stroke:#fdfdfd;stroke-width:1px;stroke-linecap:butt;stroke-linejoin:miter;stroke-opacity:1"
     d="m 22.336002,22.139788 3.681911,0.02992 c 0.838392,0.0068 1.354498,0.429492 1.279922,1.079907 l -0.499937,4.360207 c -0.0834,0.727416 -0.974127,0.914386 -1.336206,0.877844 l -3.804226,-0.383932 c -0.59802,-0.06035 -0.959178,-0.124787 -0.918671,-1.065073 l 0.183373,-4.256601 c 0.02973,-0.690144 0.577128,-0.649071 1.413834,-0.642272 z"
     id="path1904"
     sodipodi:nodetypes="sssssssss" />
</svg>
