<svg xmlns="http://www.w3.org/2000/svg" viewBox="0 0 48 48"><defs><style>.a{fill:none;stroke:#fff;stroke-linecap:round;stroke-linejoin:round;}</style></defs><path class="a" d="M38.84,22.29s4.11,1.55,3.15,4c-.23.59-2-.48-2.77-.07"/><path class="a" d="M27,39.29c.5.5,1.67,3.21,3.46,3.21s2.46-3.93,3.08-4.75"/><path class="a" d="M24,39.36c-6,0-15.22-.31-15.22-13.38S21.92,9.19,24,9.19,39.22,12.92,39.22,26,30,39.36,24,39.36Z"/><path class="a" d="M9.16,22.29s-4.11,1.55-3.15,4c.23.59,2-.48,2.77-.07"/><path class="a" d="M21,39.29c-.5.5-1.67,3.21-3.46,3.21s-2.46-3.93-3.08-4.75"/><path class="a" d="M23.55,22.28c2.23,0,7.27-.69,7.27,2.25,0,2.51-4.65,2.26-7.27,2.26"/><path class="a" d="M23.55,22.28c-2.23,0-7.27-.69-7.27,2.25,0,2.51,4.66,2.26,7.27,2.26"/><path class="a" d="M23.55,22.28c.66,0,1.43-.07,1.42,1.18a1.31,1.31,0,0,1-1.32,1.18,1.26,1.26,0,0,1-1.33-1C22.26,22.21,22.72,22.3,23.55,22.28Z"/><path class="a" d="M27.38,22.24c.66,0,1.48.05,1.33,1.22a1.36,1.36,0,0,1-1.33,1.18,1.25,1.25,0,0,1-1.32-1C25.94,22,26.55,22.27,27.38,22.24Z"/><path class="a" d="M19.91,22.23c.67,0,1.33,0,1.33,1.23a1.32,1.32,0,0,1-1.33,1.18,1.24,1.24,0,0,1-1.32-1C18.59,22.38,19.08,22.26,19.91,22.23Z"/><path class="a" d="M24,9.19a3.46,3.46,0,0,1,2.72-2.85"/><path class="a" d="M20.52,5.5A3.77,3.77,0,0,1,24,9.19"/><path class="a" d="M17.54,14A3.3,3.3,0,0,1,21,17.17a3.74,3.74,0,0,1-3.58,3.44A3.37,3.37,0,0,1,13.84,17C13.84,15,15.71,14,17.54,14Z"/><path class="a" d="M17,15.92a.69.69,0,0,1,.64-.14c.6.14,1.38.88,1,1.5a1.3,1.3,0,0,1-1.72.54c-.61-.28-.19-1.85.11-1.9"/><path class="a" d="M29.57,14a3.31,3.31,0,0,0-3.47,3.22,3.74,3.74,0,0,0,3.58,3.44A3.37,3.37,0,0,0,33.26,17C33.26,15,31.39,14,29.57,14Z"/><path class="a" d="M30.07,15.92a.69.69,0,0,0-.64-.14c-.59.14-1.38.88-1,1.5a1.3,1.3,0,0,0,1.72.54c.61-.28.19-1.85-.11-1.9"/></svg>