<?xml version="1.0" encoding="UTF-8"?><svg id="a" xmlns="http://www.w3.org/2000/svg" viewBox="0 0 48 48"><defs><style>.b{stroke-miterlimit:10;}.b,.c{fill:none;stroke:#fff;}.d{isolation:isolate;}.c{stroke-linecap:round;stroke-linejoin:round;}</style></defs><path class="c" d="M7.8502,13.569c-1.0526,0-1.9,.8455-1.9,1.8958v5.6873h3.1473l-.8391-7.5831h-.4082Zm25.171,0l6.4603,1.1511c1.0865,.1936,1.805,1.2222,1.611,2.3063l-1.0776,6.0215h2.0354v-7.5831c0-1.0503-.8474-1.8958-1.9-1.8958h-7.1291ZM5.9502,27.787c0,.1684,.0282,.3289,.0691,.4841l-.0691-.4841Z"/><path class="c" d="M23.513,15.005c-.0357,.0004-.0717,.0025-.1081,.0065-.5814,.064-.9995,.5638-.9379,1.1205l.546,4.9362c.0033,.0296,.0128,.0565,.0186,.0852,.0044,.0217,.0133,.0414,.019,.0625v-.063h1.1137l.6072-3.394-.2055-1.8578c-.0539-.4872-.4573-.8517-.9468-.8924-.035-.0029-.0705-.0041-.1062-.0037h0Zm-1.829,.2416l-6.5456,.7211-1.7075,.1879,.5529,4.9973h4.3168l.95,.9479h3.1919l-.0738-.6702-.6848-6.184Zm-9.8757,1.0474c-.0358,.0005-.0717,.0029-.1081,.0069-.5814,.064-1.0005,.5638-.9389,1.1205l.4133,3.7314h2.1245l-.4383-3.9623c-.0539-.4872-.4569-.8521-.9463-.8928-.035-.0029-.0705-.0042-.1062-.0037Z"/><path class="c" d="M23.748,6.9418c-.0674,.0007-.1346,.0061-.2031,.0137l-13.848,1.5254c-1.0959,.1207-1.8807,1.098-1.7598,2.1914l1.1602,10.48h9.2031l.9492,.9473h3.8008v-.9473h1.1133l1.2383-6.9219c.0959-.5361,.3978-.9826,.8086-1.2734l-.4707-4.2461c-.1059-.9567-.8677-1.6758-1.791-1.7598-.066-.006-.1338-.0104-.2012-.0098l.0003,.0005Z"/><path class="c" d="M27.311,12.593c-.9279,.0224-1.7386,.6898-1.9084,1.6384l-1.2385,6.9213h3.6363l2.85,1.8958h9.3646l1.0776-6.0215c.194-1.0841-.5245-2.1127-1.611-2.3063l-11.767-2.0967c-.1358-.0242-.2705-.0342-.4031-.031h-.0005Z"/><path class="c" d="M7.85,41.058l-2.85-19.906h13.3l.95,.9479h3.8v-.9479h4.75l2.85,1.8958h12.35l-2.85,18.01-32.3,.0002Z"/><circle class="b" cx="15.788" cy="13.3053" r=".4581"/><circle class="b" cx="18.8604" cy="12.9669" r=".4581"/><path class="c" d="M8.8,25.892l.95,13.27H27.8l.95-13.27H8.8Z"/><path class="c" d="M18.877,36.668v-7.2874h1.1566c1.9573,0,3.5586,1.6397,3.5586,3.6437s-1.6014,3.6437-3.5586,3.6437h-1.1566Z"/><g class="d"><path class="c" d="M12.4205,35.8481c.4448,.5466,.9786,.8198,1.7793,.8198h1.0676c.9786,0,1.7793-.8198,1.7793-1.8219s-.8007-1.8219-1.7793-1.8219h-1.1566c-.9786,0-1.7793-.8198-1.7793-1.8219s.8007-1.8219,1.7793-1.8219h1.0676c.8007,0,1.3345,.1822,1.7793,.8198"/></g><path class="c" d="M31.69,39.378h6.7289"/><path class="c" d="M32.02,37.268h7.2213"/><path class="c" d="M32.222,35.051h6.2527"/><path class="c" d="M31.917,32.766h6.9635"/><path class="c" d="M32.23,30.448h6.9635"/><path class="c" d="M32.37,28.082h6.9635"/><path class="c" d="M32.451,25.697h6.7571"/><path class="c" d="M13.338,15.32l8.2531-.909s-.8309-3.9865-4.5635-3.4958c-4.0973,.5386-3.6896,4.4048-3.6896,4.4048Z"/><path class="c" d="M14.887,11.705l-2.0597-1.5262"/><path class="c" d="M19.269,11.232l1.6389-1.9584"/></svg>