<?xml version="1.0" encoding="UTF-8"?>
<svg version="1.1" viewBox="0 0 48 48" xml:space="preserve" xmlns="http://www.w3.org/2000/svg"><defs><style>.a{fill:none;stroke:#fff;stroke-linecap:round;stroke-linejoin:round;}</style><style>.a{fill:none;stroke:#b1b5bd;stroke-linecap:round;stroke-linejoin:round;isolation:isolate;opacity:0.63;}</style><style>.a{fill:none;stroke:#b1b5bd;stroke-linecap:round;stroke-linejoin:round;isolation:isolate;opacity:0.63;}</style></defs><path d="m7.8502 13.569c-1.0526 0-1.9 0.84552-1.9 1.8958v5.6873h3.1473l-0.83914-7.5831zm25.171 0 6.4603 1.1511c1.0865 0.1936 1.805 1.2222 1.611 2.3063l-1.0776 6.0215h2.0354v-7.5831c0-1.0503-0.8474-1.8958-1.9-1.8958zm-27.071 14.218c0 0.16843 0.02818 0.32887 0.06912 0.48413z" fill="none" stroke="#fff" stroke-linecap="round" stroke-linejoin="round" style="paint-order:stroke fill markers"/><path d="m23.513 15.005c-0.03575 4.27e-4 -0.07174 0.0025-0.10808 0.0065-0.58142 0.06404-0.99954 0.56377-0.93794 1.1205l0.54597 4.9362c0.0033 0.02958 0.01276 0.05653 0.01856 0.08516 0.0044 0.02168 0.01327 0.04139 0.01902 0.06248v-0.06295h1.1137l0.6072-3.394-0.20549-1.8578c-0.0539-0.48717-0.45726-0.8517-0.94675-0.89235-0.03496-0.0029-0.07047-0.0041-0.10623-0.0037zm-1.829 0.2416-6.5456 0.7211-1.7075 0.18791 0.55293 4.9973h4.3168l0.95 0.94789h3.1919l-0.07376-0.67019zm-9.8757 1.0474c-0.03575 5.46e-4 -0.07174 0.0029-0.10808 0.0069-0.58142 0.06404-1.0005 0.56376-0.93887 1.1205l0.41331 3.7314h2.1245l-0.43835-3.9623c-0.0539-0.48717-0.45689-0.85215-0.94629-0.89281-0.03496-0.0029-0.07047-0.0042-0.10622-0.0037z" fill="none" stroke="#fff" stroke-linecap="round" stroke-linejoin="round"/><path d="m23.748 6.9418c-0.0674 6.6e-4 -0.13463 0.00611-0.20312 0.013672l-13.848 1.5254c-1.0959 0.12071-1.8807 1.098-1.7598 2.1914l1.1602 10.48h9.2031l0.94922 0.94726h3.8008v-0.94726h1.1133l1.2383-6.9219c0.09595-0.53612 0.39775-0.98262 0.80859-1.2734l-0.4707-4.2461c-0.10586-0.95675-0.86771-1.6758-1.791-1.7598-0.06595-6e-3 -0.13378-0.010426-0.20117-0.00977z" fill="none" stroke="#fff" stroke-linecap="round" stroke-linejoin="round" style="paint-order:stroke fill markers"/><path d="m27.311 12.593c-0.92787 0.02235-1.7386 0.68984-1.9084 1.6384l-1.2385 6.9213h3.6363l2.85 1.8958h9.3646l1.0776-6.0215c0.19403-1.0841-0.52448-2.1127-1.611-2.3063l-11.767-2.0967c-0.13582-0.0242-0.27055-0.0342-0.4031-0.03101z" fill="none" stroke="#fff" stroke-linecap="round" stroke-linejoin="round" style="paint-order:stroke fill markers"/><path d="m7.85 41.058-2.85-19.906h13.3l0.95 0.94789h3.8v-0.94789h4.75l2.85 1.8958h12.35l-2.85 18.01z" fill="none" stroke="#fff" stroke-linecap="round" stroke-linejoin="round"/><ellipse transform="matrix(.99399 -.10949 .10997 .99393 0 0)" cx="14.229" cy="14.954" rx=".45804" ry=".45705" fill="#fff"/><ellipse transform="matrix(.99399 -.10949 .10997 .99393 0 0)" cx="17.32" cy="14.954" rx=".45804" ry=".45705" fill="#fff"/><path d="m8.8 25.892 0.95 13.27h18.05l0.95-13.27z" fill="none" stroke="#fff" stroke-linecap="round" stroke-linejoin="round"/><path class="st0" d="m18.877 36.668v-7.2874h1.1566c1.9573 0 3.5586 1.6397 3.5586 3.6437s-1.6014 3.6437-3.5586 3.6437z" enable-background="new 0 0 380 200" fill="none" stroke="#fff" stroke-linecap="round" stroke-linejoin="round" stroke-miterlimit="10"/><g transform="matrix(.88966 0 0 .91093 -203.5 -55.336)" enable-background="new 0 0 380 200" stroke-width="1.1108">
		<path class="st0" d="m242.7 100.1c0.5 0.6 1.1 0.9 2 0.9h1.2c1.1 0 2-0.9 2-2s-0.9-2-2-2h-1.3c-1.1 0-2-0.9-2-2s0.9-2 2-2h1.2c0.9 0 1.5 0.2 2 0.9" fill="none" stroke="#fff" stroke-linecap="round" stroke-linejoin="round" stroke-miterlimit="10" stroke-width="1.1108"/>
	</g><path d="m31.69 39.378h6.7289" fill="none" stroke="#fff" stroke-linecap="round" stroke-linejoin="round"/><path d="m32.02 37.268h7.2213" fill="none" stroke="#fff" stroke-linecap="round" stroke-linejoin="round"/><path d="m32.222 35.051h6.2527" fill="none" stroke="#fff" stroke-linecap="round" stroke-linejoin="round"/><path d="m31.917 32.766h6.9635" fill="none" stroke="#fff" stroke-linecap="round" stroke-linejoin="round"/><path d="m32.23 30.448h6.9635" fill="none" stroke="#fff" stroke-linecap="round" stroke-linejoin="round"/><path d="m32.37 28.082h6.9635" fill="none" stroke="#fff" stroke-linecap="round" stroke-linejoin="round"/><path d="m32.451 25.697h6.7571" fill="none" stroke="#fff" stroke-linecap="round" stroke-linejoin="round" stroke-width=".99999"/><path d="m13.338 15.32 8.2531-0.90901s-0.83086-3.9865-4.5635-3.4958c-4.0973 0.53861-3.6896 4.4048-3.6896 4.4048z" fill="none" stroke="#fff" stroke-linecap="round" stroke-linejoin="round"/><path d="m14.887 11.705-2.0597-1.5262" fill="none" stroke="#fff" stroke-linecap="round" stroke-linejoin="round"/><path d="m19.269 11.232 1.6389-1.9584" fill="none" stroke="#fff" stroke-linecap="round" stroke-linejoin="round"/></svg>
