<svg width="48" height="48" version="1.1" viewBox="0 0 48 48" xmlns="http://www.w3.org/2000/svg">
 <g transform="matrix(1.0001 0 0 1.0001 -.0036785 -.002438)" fill="none" stroke="#fff" stroke-linejoin="round">
  <path d="m17.932 12.261h25.748a1.8188 1.8188 50.113 0 1 1.7899 2.1417l-3.4807 19.295a2.4177 2.4177 140.06 0 1-2.3745 1.9885l-26.001 0.05168c-1.3902 0-2.5171-1.1269-2.5171-2.5171s1.1269-2.5171 2.5171-2.5171h2.9687c1.3902 0 2.5171-1.1269 2.5171-2.5171 0-1.3902-1.1269-2.5171-2.5171-2.5171h-4.7702c-1.3902 0-2.5171-1.0946-2.5171-2.4449 0-1.3503 1.1269-2.4449 2.5171-2.4449h6.7184" stroke-linecap="round"/>
  <path d="m17.932 12.261c-1.3902 0-2.5171 1.0946-2.5171 2.4449 0 1.3503 1.1269 2.4449 2.8166 2.5096 1.3904 0.06467 2.2748 0.84819 2.2748 1.8147 0 0.96651-0.88436 1.75-1.9753 1.75" stop-color="#000000" stroke-linecap="round" style="paint-order:markers fill stroke"/>
  <path d="m24.278 30.356 2.2833-12.657h12.254l-2.2833 12.657z"/>
  <circle cx="4.9276" cy="33.313" r="2.4241" stop-color="#000000" stroke-linecap="round" style="paint-order:markers fill stroke"/>
 </g>
</svg>
