<?xml version="1.0" encoding="utf-8"?>
<!-- Generator: Adobe Illustrator 26.5.0, SVG Export Plug-In . SVG Version: 6.00 Build 0)  -->
<svg version="1.1" xmlns:x="&ns_extend;" xmlns:i="&ns_ai;" xmlns:graph="&ns_graphs;"
	 xmlns="http://www.w3.org/2000/svg" xmlns:xlink="http://www.w3.org/1999/xlink" x="0px" y="0px" viewBox="0 0 48 48"
	 style="enable-background:new 0 0 48 48;" xml:space="preserve">
<style type="text/css">
	.st0{display:none;}
	.st1{display:inline;}
	.st2{display:inline;fill:none;stroke:#000000;stroke-miterlimit:10;}
	.st3{display:inline;fill:none;stroke:#000000;stroke-linecap:round;stroke-linejoin:round;stroke-miterlimit:10;}
	.st4{fill:none;stroke:#FFFFFF;stroke-miterlimit:10;}
	.st5{fill:none;stroke:#FFFFFF;stroke-linecap:round;stroke-linejoin:round;stroke-miterlimit:10;}
</style>
<g id="earth">
	<circle class="st4" cx="20.27" cy="27.15" r="10.49"/>
	<path class="st4" d="M12.68,34.22c0.86-0.86,0.3-2.06-0.2-2.61c-0.5-0.55-1.61-1.26-1.76-2.56c-0.15-1.31-1.05-3.21,0.25-4.87
		c1.31-1.66,0.6-1.15,1.91-1.15c0.7,0.05,1.51,0.1,2.11-0.6c0.6-0.7,0.05-0.9,0.9-0.45s0.75,0.85,1.76,1.15s1.51,0.3,1.51-0.75
		s0.7-1.76,0-1.86c-0.7-0.1-1-0.29-1.46-0.7c-0.55-0.5-0.05-1.07,2.01-1.61c1.36-0.35,1.96-0.4,2.81,0.5
		c0.81,0.86,1.46,2.01,0.2,2.76c-1.27,0.76-1,1.76-1.81,2.21c-0.8,0.45-2.76,2.26-3.21,3.36c-0.45,1.1,0.5,2.71,0.1,3.21
		c-0.4,0.5-1.91-0.3-2.26-0.25c-0.35,0.05-0.55,0.35-0.5,1.05s-0.25,1.61,0.7,1.86s1.1,1.05,2.11,0.95c1-0.1,2.66,1.81,2.71,3.26"/>
	<path class="st4" d="M30.66,26.49c-0.8,0.65-0.85,0.75-1.56,1.21s-3.21,0.05-3.11,1.15s0.9,1.1,0.8,2.06
		c-0.1,0.95-0.25,1.71-0.85,2.66s-1.96,2.26-1.96,2.76l0.05,0.55"/>
	<path class="st4" d="M19.26,28.2c0.14-0.48-0.1-0.95,0.9-0.8s0.75,0.5,1.46,0.4c0.7-0.1,1.26-0.2,1.46-0.65
		c0.2-0.45,0.85-0.35,1.1-0.35s0.85-0.8,1.51-0.75s0.9,0.45,0.7,0.6s-0.9,0.95-1.66,1.15c-0.75,0.2-1.36,0.15-1.26,0.55
		s0.8,1.1,0.15,1.31s-1.41,0.45-2.36,0.3C20.32,29.81,18.86,29.61,19.26,28.2z"/>
</g>
<g id="waves">
	<path class="st5" d="M38.44,21.62c-1.61-6.88-5.87-11.45-13.31-12.8"/>
	<path class="st5" d="M42.31,20.32C40.45,12.23,35.33,6.86,26.19,5.3"/>
	<path class="st5" d="M46.33,19.76C44.27,9.67,37.79,3.35,27.4,1.49"/>
</g>
<g id="target">
	<circle class="st5" cx="20.32" cy="27.12" r="14.29"/>
	<line class="st5" x1="20.56" y1="8.51" x2="20.56" y2="14.38"/>
	<line class="st5" x1="38.94" y1="27.11" x2="33.06" y2="27.11"/>
	<line class="st5" x1="20.56" y1="39.92" x2="20.56" y2="45.79"/>
	<line class="st5" x1="7.46" y1="27.11" x2="1.58" y2="27.11"/>
</g>
</svg>
