<?xml version="1.0" encoding="UTF-8"?>
<svg version="1.1" viewBox="0 0 48 48" xml:space="preserve" xmlns="http://www.w3.org/2000/svg"><defs><style>.a{fill:none;stroke:#fff;stroke-linecap:round;stroke-linejoin:round;}</style><style>.c{stroke-width:1px;}.c,.d{fill:none;stroke:#fff;stroke-linecap:round;stroke-linejoin:round;}.e{fill:#fff;stroke-width:0px;}</style></defs><path d="m24.903 32.546c-4.6006 0-8.33-3.7294-8.33-8.33 0-4.6006 3.7294-8.33 8.33-8.33 2.3149 0 4.5252 0.96324 6.1013 2.6588l8e-3 11.334c-1.5764 1.7007-3.7904 2.6674-6.1093 2.6674z" fill="none" stroke="#fff" stroke-linecap="round" stroke-linejoin="round"/><path d="m31.002 7.1981h11.374v34.035h-11.374l0.01083-1.759c-2.5122 1.3512-5.3309 2.0612-8.1943 2.0612-9.5652 1e-6 -17.319-7.7541-17.319-17.319 0-9.5652 7.7541-17.319 17.319-17.319 2.8561 0 5.6678 0.70631 8.1848 2.056z" fill="none" stroke="#fff" stroke-linecap="round" stroke-linejoin="round"/></svg>
