<svg viewBox="0 0 48 48" xmlns="http://www.w3.org/2000/svg"><defs><style>.a{fill:none;stroke:#fff;stroke-linecap:round;stroke-linejoin:round;}</style></defs><path class="a" d="m25.6 21.1c0.38-0.897 0.931-1.71 1.61-2.38 1.36-1.36 3.24-2.2 5.31-2.2 4.15 0 7.52 3.36 7.52 7.5 0 4.14-3.37 7.5-7.52 7.5-2.08 0-3.95-0.84-5.31-2.2-3.09-3.3-3.49-7.72-6.34-10.6-1.36-1.36-3.24-2.2-5.31-2.2-4.15 0-7.52 3.36-7.52 7.5-0 4.14 3.37 7.5 7.52 7.5 2.08 0 3.95-0.84 5.31-2.2 0.68-0.679 1.23-1.49 1.61-2.38" stroke-width=".997"/><line class="a" x1="17.5" x2="13.5" y1="24" y2="24"/><line class="a" x1="34.5" x2="30.5" y1="24" y2="24"/><line class="a" x1="32.5" x2="32.5" y1="26" y2="22"/><circle class="a" cx="24" cy="24" r="21.5"/></svg>