<svg xmlns="http://www.w3.org/2000/svg" viewBox="0 0 48 48"><defs><style>.a{fill:none;stroke:#fff;stroke-linecap:round;stroke-linejoin:round;}</style></defs><path class="a" d="M24.03,35.7633l3.4418,2.3849-4.2549,3.4959C-8.3747,21.4691,7.6891,10.0035,16.34,7.3862c3.7872-1.1456,15.8566-2.8641,23.44,4.5325,8.353,8.1478,2.4406,21.4237-15.75,23.8443Z"/><path class="a" d="M24.9019,12.6055c-5.6874-.47-5.9081,14.7152-11.0306,14.1737-5.0821-.5376-5.11-14.1936,0-14.1737,5.07.0205,3.2216,12.8107,11.0306,14.1737"/><line class="a" x1="22.8317" y1="16.3087" x2="27.3185" y2="16.3087"/><line class="a" x1="25.1174" y1="23.0813" x2="25.1174" y2="16.3087"/><path class="a" d="M30.4922,21.3873A1.6981,1.6981,0,0,1,28.799,23.08h0a1.6981,1.6981,0,0,1-1.6931-1.6931V20.2867a1.6981,1.6981,0,0,1,1.6931-1.6931h0a1.6981,1.6981,0,0,1,1.6932,1.6931"/><line class="a" x1="30.4922" y1="23.0804" x2="30.4922" y2="18.5936"/><line class="a" x1="32.5285" y1="16.3089" x2="32.5285" y2="23.0815"/><line class="a" x1="34.5643" y1="16.3079" x2="34.5643" y2="23.0804"/><line class="a" x1="34.5643" y1="21.6413" x2="37.612" y2="18.5936"/><line class="a" x1="35.4955" y1="20.71" x2="37.9506" y2="23.0804"/></svg>