<?xml version="1.0" encoding="UTF-8"?>
<svg version="1.1" viewBox="0 0 48 48" xml:space="preserve" xmlns="http://www.w3.org/2000/svg"><defs><style>.a{fill:none;stroke:#fff;stroke-linecap:round;stroke-linejoin:round;}</style><style>.a{fill:none;stroke:#fff;stroke-linecap:round;stroke-linejoin:round;}</style><style>.a{fill:none;stroke:#fff;stroke-linecap:round;stroke-linejoin:round;}</style></defs><path d="m30.315 37.791" fill="none" stroke="#fff" stroke-linecap="round" stroke-linejoin="round" stroke-width="1.2642"/><circle cx="24" cy="36.619" r="2.1247" fill="none" stroke="#fff" stroke-linecap="round" stroke-linejoin="round"/><path d="m29.84 37.349c3.8063-0.35748 6.7658-3.5441 6.7658-7.4473v-1.5035h-8.3407v0c-0.93575 0-1.6943-0.75858-1.6943-1.6943v0c0-0.93575 0.75858-1.6943 1.6943-1.6943h8.3407v-3.3628l-8.3407 2.01e-4c-0.93575 0-1.6943-0.75858-1.6943-1.6943v0c0-0.93575 0.75858-1.6943 1.6943-1.6943l8.3407-2.26e-4v-3.3621l-8.3407-3.14e-4c-0.93575 0-1.6943-0.75858-1.6943-1.6943v0c0-0.93575 0.75858-1.6943 1.6943-1.6943l8.1984-0.0023c-0.67775-3.4376-3.696-6.0147-7.3383-6.0147v0h-10.25v0c-3.6423 0-6.6605 2.5771-7.3383 6.0147l8.1984 0.0023c0.93575 0 1.6943 0.75858 1.6943 1.6943v0c0 0.93575-0.75858 1.6943-1.6943 1.6943l-8.3407 3.14e-4v3.3621l8.3407 2.25e-4c0.93575 0 1.6943 0.75858 1.6943 1.6943v0c0 0.93575-0.75858 1.6943-1.6943 1.6943l-8.3407-2e-4v3.3628h8.3407c0.93575 0 1.6943 0.75858 1.6943 1.6943v0c0 0.93575-0.75858 1.6943-1.6943 1.6943v0h-8.3407v1.5035c0 3.9032 2.9596 7.0898 6.7658 7.4473 0.36748 2.9457 2.8714 5.1563 5.8398 5.1563 2.9684 0 5.4723-2.2107 5.8398-5.1563z" fill="none" stroke="#fff" stroke-linecap="round" stroke-linejoin="round"/></svg>
