<svg width="48" height="49" viewBox="0 0 48 49" fill="none" xmlns="http://www.w3.org/2000/svg">
<path d="M36.7279 11.9779C39.6726 14.9226 41.5051 18.7972 41.9133 22.9416C42.3215 27.0859 41.2801 31.2436 38.9665 34.7061C36.6528 38.1687 33.2102 40.7219 29.2251 41.9308C25.2401 43.1397 20.9591 42.9293 17.1117 41.3357C13.2643 39.7421 10.0885 36.8637 8.12542 33.191C6.16234 29.5183 5.53343 25.2786 6.34586 21.1943C7.1583 17.1099 9.3618 13.4336 12.5809 10.7917C15.8 8.14982 19.8356 6.70587 24 6.70587" stroke="white" stroke-linecap="round"/>
<path d="M34.2514 9.92545C32.3116 8.36895 30.3712 7.59053 28.1028 7.26717C28.0428 7.25863 27.9892 7.30528 27.9892 7.36584V20.9105C27.9892 20.9105 27.9892 20.9105 27.9892 20.9105C27.9892 20.9105 27.9892 22.6993 27.9892 24.804" stroke="white" stroke-linecap="round"/>
<path d="M31.7782 16.9277C33.5777 18.7272 34.6976 21.095 34.947 23.6277C35.1965 26.1603 34.56 28.7011 33.1462 30.8171C31.7323 32.9332 29.6285 34.4935 27.1931 35.2322C24.7578 35.971 22.1417 35.8424 19.7905 34.8685C17.4393 33.8947 15.4985 32.1356 14.2989 29.8912C13.0992 27.6468 12.7149 25.0559 13.2114 22.5599C13.7078 20.0639 15.0544 17.8172 17.0217 16.2028C18.9889 14.5883 21.4551 13.7059 24 13.7059" stroke="white" stroke-linecap="round"/>
<path d="M28 24.7059C28 26.915 26.2091 28.7059 24 28.7059C21.7909 28.7059 20 26.915 20 24.7059C20 22.4967 21.7909 20.7059 24 20.7059C26.2091 20.7059 28 22.4967 28 24.7059Z" stroke="white"/>
</svg>
