<?xml version="1.0" encoding="UTF-8"?>
<svg id="b" version="1.1" viewBox="0 0 48 48" xml:space="preserve" xmlns="http://www.w3.org/2000/svg"><defs><style>.c{fill:none;stroke:#fff;stroke-linecap:round;stroke-linejoin:round;}</style><style>.a{fill:none;stroke:#fff;stroke-linecap:round;stroke-linejoin:round;}</style></defs><circle class="a" cx="24" cy="24" r="21.5" fill="none" stroke="#fff" stroke-linecap="round" stroke-linejoin="round"/><path class="a" d="m13.726 12.584-0.31688 13.292-2.9505 2.9505c-0.78105 0.78105-0.78105 2.0474 0 2.8284l7.0925 7.0925c0.78105 0.78105 2.0474 0.78105 2.8284 0l2.9505-2.9505 13.292-0.31688c2.87 0 2.8453-1.8031 0.90999-3.7384l-20.067-20.067c-1.3539-1.3539-3.685-1.3324-3.7384 0.90999z" fill="none" stroke="#fff" stroke-linecap="round" stroke-linejoin="round"/><path d="m38.124 22.594c-4.77e-4 -0.01062-9.68e-4 -0.02125-0.0015-0.03187-0.14328-4.5222-3.0864-8.8235-7.2804-10.547-1.3486-0.59024-2.7924-0.90046-4.243-0.94803" fill="none" stroke="#fdfdfd" stroke-linecap="round" stroke-linejoin="round"/><path d="m34.134 22.745c-0.11843-3.3019-2.4598-6.4435-5.6797-7.3474-0.65458-0.20477-1.3296-0.31501-2.0057-0.33719" fill="none" stroke="#fdfdfd" stroke-linecap="round" stroke-linejoin="round"/></svg>
