<svg width="48" height="48" viewBox="0 0 48 48" fill="none" xmlns="http://www.w3.org/2000/svg">
<path d="M23.5 14C23.5 19.2467 19.2467 23.5 14 23.5C8.7533 23.5 4.5 19.2467 4.5 14C4.5 8.7533 8.7533 4.5 14 4.5C19.2467 4.5 23.5 8.7533 23.5 14Z" stroke="white"/>
<path d="M44.5 25C44.5 27.6921 43.9697 30.3578 42.9395 32.845C41.9093 35.3322 40.3993 37.5921 38.4957 39.4957C36.5921 41.3993 34.3322 42.9093 31.845 43.9395C29.3578 44.9697 26.6921 45.5 24 45.5C21.3079 45.5 18.6422 44.9697 16.155 43.9395C13.6678 42.9093 11.4079 41.3993 9.50431 39.4957C7.60071 37.5921 6.09069 35.3322 5.06047 32.845C4.21733 30.8095 3.70906 28.6544 3.55227 26.4631C3.51556 25.95 3.93739 25.5 4.5 25.5L22.5 25.5C23.6129 25.5 24.4761 24.6021 24.5523 23.5369C24.7091 21.3456 25.2173 19.1905 26.0605 17.155C27.0907 14.6678 28.6007 12.4079 30.5043 10.5043C32.4079 8.60071 34.6678 7.09069 37.155 6.06047C39.1905 5.21733 41.3456 4.70906 43.5369 4.55227C44.05 4.51556 44.5 4.93739 44.5 5.5V25Z" stroke="white"/>
</svg>
