<svg xmlns="http://www.w3.org/2000/svg" viewBox="0 0 48 48"><defs><style>.a{fill:none;stroke:#fff;stroke-linecap:round;stroke-linejoin:round;}</style></defs><circle class="a" cx="24" cy="24" r="13"/><path class="a" d="M44.3452,20.8267l-3.5507-1.02v.0788a17.1782,17.1782,0,0,0-2.0163-4.86l.0626.0626L40.63,11.8576a1.5951,1.5951,0,0,0-.2676-1.9l-2.32-2.32A1.5951,1.5951,0,0,0,36.1424,7.37L32.9107,9.16l.06.06a17.1755,17.1755,0,0,0-4.86-2.0154h.0819l-1.02-3.55A1.5949,1.5949,0,0,0,25.64,2.5H22.36a1.5947,1.5947,0,0,0-1.5329,1.1547l-1.02,3.5508h.0788a17.1759,17.1759,0,0,0-4.86,2.0163l.0627-.0628L11.8575,7.37a1.5951,1.5951,0,0,0-1.9.2675l-2.32,2.32a1.5951,1.5951,0,0,0-.2674,1.9l1.79,3.2318.06-.06a17.1711,17.1711,0,0,0-2.0153,4.86v-.0819l-3.55,1.02A1.595,1.595,0,0,0,2.5,22.36V25.64a1.5951,1.5951,0,0,0,1.1548,1.5331l3.5507,1.02v-.0788a17.1776,17.1776,0,0,0,2.0163,4.86l-.0626-.0626L7.37,36.1424a1.5951,1.5951,0,0,0,.2675,1.9005l2.32,2.32a1.5948,1.5948,0,0,0,1.9.2674l3.2318-1.79-.06-.06a17.1726,17.1726,0,0,0,4.86,2.0154h-.0819l1.0195,3.55A1.5949,1.5949,0,0,0,22.36,45.5H25.64a1.5948,1.5948,0,0,0,1.533-1.1547l1.02-3.5508h-.0788a17.1785,17.1785,0,0,0,4.86-2.0164l-.0628.0629L36.1425,40.63a1.5949,1.5949,0,0,0,1.9-.2674l2.32-2.32a1.5952,1.5952,0,0,0,.2675-1.9005l-1.79-3.2318-.06.06a17.1705,17.1705,0,0,0,2.0153-4.86v.0819l3.55-1.02A1.595,1.595,0,0,0,45.5,25.64V22.36A1.595,1.595,0,0,0,44.3452,20.8267Z"/><circle class="a" cx="27.0814" cy="19.2446" r="2.4713"/><circle class="a" cx="27.0814" cy="28.7554" r="2.4713"/><circle class="a" cx="18.9186" cy="23.8128" r="2.4713"/><line class="a" x1="21.0254" y1="25.0885" x2="24.9721" y2="27.4782"/><line class="a" x1="23.849" y1="21.0536" x2="24.9344" y2="20.4462"/><line class="a" x1="21.0676" y1="22.6101" x2="22.2259" y2="21.9619"/></svg>