<?xml version="1.0" encoding="UTF-8"?>
<svg version="1.1" viewBox="0 0 48 48" xml:space="preserve" xmlns="http://www.w3.org/2000/svg"><defs><style>.a{fill:none;stroke:#fff;stroke-linecap:round;stroke-linejoin:round;}</style></defs><path d="m35.65 10.844q0.79482 0.73207 1.506 1.506l5.7102 0.81574a21.586 21.586 0 0 1 2.1335 5.1454l-3.4721 4.6225s0.06275 1.4223 0 2.1335l3.4721 4.6225a21.376 21.376 0 0 1-2.1335 5.1454l-5.7102 0.81574s-0.98307 1.0249-1.506 1.506l-0.81574 5.7102a21.586 21.586 0 0 1-5.1454 2.1335l-4.6225-3.4721a12.111 12.111 0 0 1-2.1335 0l-4.6225 3.4721a21.376 21.376 0 0 1-5.1454-2.1335l-0.81574-5.7102q-0.7739-0.73207-1.506-1.506l-5.7102-0.81574a21.586 21.586 0 0 1-2.1335-5.1454l3.4721-4.6225s-0.062753-1.4223 0-2.1335l-3.4721-4.6225a21.376 21.376 0 0 1 2.1335-5.1454l5.7102-0.81574q0.73207-0.7739 1.506-1.506l0.81574-5.7102a21.586 21.586 0 0 1 5.1454-2.1335l4.6225 3.4721a12.111 12.111 0 0 1 2.1335 0l4.6225-3.4721a21.376 21.376 0 0 1 5.1454 2.1335z" fill="none" stroke="#fff" stroke-linecap="round" stroke-linejoin="round"/><path d="m28.566 14.339-9.8005 9.8005h10.469l-9.522 9.522" fill="none" stroke="#fff" stroke-linecap="round" stroke-linejoin="round"/></svg>
