<svg xmlns="http://www.w3.org/2000/svg" viewBox="0 0 48 48">
    <style>
        .a{fill:none;stroke:#FFFFFF;stroke-linecap:round;stroke-linejoin:round}
    </style>
    <circle class="a" cx="24" cy="24" r="21.5"/>
    <path class="a" d="M40.6,37.7c-6.2-6.6-14.4-14.5-20.6-21c-1.1-1.1-1.6-2.5-1.6-4c0.1-2.4,2-4.7,4.4-5c2.5-0.4,4.7,0.8,5.8,3.2c4,8.4,9,17,13,25.4"/>
    <path class="a" d="M15.3,26.9c-1.5-0.6-2.4-2-2.3-3.5c0.1-1.5,1.2-2.9,2.8-3.2c0,0,0.4-0.1,0.6-0.1c0.8,0,1.6,0.3,2.2,0.8l15.6,12.9L15.3,26.9z"/>
    <path class="a" d="M11.5,33.4c-1.2,0.1-2.3-0.8-2.4-2C8.9,30.1,9.7,29,11,28.8c0.4-0.1,0.9,0,1.3,0.1c4,0.9,8.8,2.3,12.7,3.2L11.5,33.4z"/>
    <path class="a" d="M6.5,36.3"/>
    <path class="a" d="M8.6,38.8"/>
    <polyline class="a" points="6.4,36.4 15.5,34.6 8.6,39"/>
</svg>