<?xml version="1.0" encoding="UTF-8" standalone="no"?>
<svg
   id="Layer_2"
   data-name="Layer 2"
   viewBox="0 0 48 48"
   version="1.1"
   xmlns="http://www.w3.org/2000/svg"
   xmlns:svg="http://www.w3.org/2000/svg">
  <defs
     id="defs4">
    <style
       id="style2">.cls-1{fill:none;stroke:#fff;stroke-linecap:round;stroke-linejoin:round;}</style>
  </defs>
  <path
     class="cls-1"
     d="M40.72,30.28a62,62,0,0,1-6.3-1.11,3.11,3.11,0,0,0-3,.58c-.53.54-2.06,2.05-3.65,3.61a28.69,28.69,0,0,1-13.1-13.11c1.55-1.59,3-3.11,3.59-3.64a3.11,3.11,0,0,0,.58-3,61.84,61.84,0,0,1-1.11-6.31,2,2,0,0,0-2.3-1.77H6.91A1.5,1.5,0,0,0,5.55,6.9C5,14.59,9.29,22.82,10.16,24.4h0l0,.06.12.23h0a35.44,35.44,0,0,0,13,13h0l.44.25h0C25.72,39,33.67,43,41.1,42.45a1.5,1.5,0,0,0,1.39-1.36V32.58A2,2,0,0,0,40.72,30.28Z" />
  <path
     class="cls-1"
     d="m 29.63385,11.441221 a 6.1999998,6.1999998 0 0 1 5.599297,5.313534" />
  <path
     class="cls-1"
     d="M 24.922173,22.204603 C 23.934597,21.306757 23.23363,20.089117 22.987677,18.694247 l 12.191896,0.106397 c -0.272309,1.400908 -1.003347,2.613853 -2.018332,3.496033 m -3.153112,1.453624 c -0.316579,0.04701 -0.640207,0.06996 -0.968749,0.06709 -0.386628,-0.0034 -0.765827,-0.04237 -1.134171,-0.114085" />
  <circle
     class="cls-1"
     cx="25.9"
     cy="24.1"
     r="2" />
  <circle
     class="cls-1"
     cx="32.1"
     cy="24.1"
     r="2" />
  <path
     class="cls-1"
     d="m 21.5,17 h 1 l 0.487677,1.694243" />
  <path
     class="cls-1"
     d="M 29.634,11.441221 V 16.755 h 5.599" />
</svg>
