<svg width="48" height="48" version="1.1" viewBox="0 0 48 48" xmlns="http://www.w3.org/2000/svg"><g fill="none" stroke="#fff" stroke-linecap="round" stroke-linejoin="round" stroke-miterlimit="7.84"><rect x="16.122" y="8.9597" width="15.756" height="30.081" ry="1.1745" stop-color="#000000" style="paint-order:markers fill stroke"/><path d="m31.878 13.799h5.2771c0.65025 0 1.1737 0.52384 1.1737 1.1745v18.052c0 0.65069-0.52349 1.1745-1.1737 1.1745h-5.1512m-16.186 0h-4.9725c-0.65025 0-1.1737-0.52384-1.1737-1.1745v-18.052c0-0.65069 0.52349-1.1745 1.1737-1.1745h5.2771" stop-color="#000000" style="paint-order:markers fill stroke"/><path d="m38.329 16.775h2.9975c0.65025 0 1.1737 0.52384 1.1737 1.1745v12.101c0 0.65069-0.52349 1.1745-1.1737 1.1745h-2.9975m-28.658 0h-2.9975c-0.65025 0-1.1737-0.52384-1.1737-1.1745v-12.101c0-0.65069 0.52349-1.1745 1.1737-1.1745h2.9975" stop-color="#000000" style="paint-order:markers fill stroke"/></g></svg>
