<svg width="48" height="48" xmlns="http://www.w3.org/2000/svg"><g style="display:inline"><path style="fill:none;stroke:#000;stroke-width:1;stroke-miterlimit:4;stroke-dasharray:none;stroke-opacity:1" d="M21.837 27.999a1.228 1.844 0 0 1-1.228 1.843A1.228 1.844 0 0 1 19.382 28a1.228 1.844 0 0 1 1.227-1.844 1.228 1.844 0 0 1 1.228 1.844zM27.391 28.101a1.228 1.844 0 0 1-1.228 1.844 1.228 1.844 0 0 1-1.227-1.844 1.228 1.844 0 0 1 1.227-1.844 1.228 1.844 0 0 1 1.228 1.844z"/><path style="fill:none;stroke:#000;stroke-width:1;stroke-opacity:1;stroke-miterlimit:4;stroke-dasharray:none" d="M39.165 27.276a3.445 4.082 0 0 1-3.445 4.082 3.445 4.082 0 0 1-3.446-4.082 3.445 4.082 0 0 1 3.446-4.082 3.445 4.082 0 0 1 3.445 4.082z"/><path style="fill:none;fill-opacity:1;stroke:#000;stroke-width:1;stroke-opacity:1;stroke-miterlimit:4;stroke-dasharray:none" d="M34.923 27.38a.488.69 0 0 1-.488.69.488.69 0 0 1-.488-.69.488.69 0 0 1 .488-.691.488.69 0 0 1 .488.69z"/><path style="fill:none;stroke:#000;stroke-width:1;stroke-miterlimit:4;stroke-dasharray:none;stroke-opacity:1" d="M16.067 26.975a3.338 4.28 0 0 1-3.338 4.28 3.338 4.28 0 0 1-3.338-4.28 3.338 4.28 0 0 1 3.338-4.28 3.338 4.28 0 0 1 3.338 4.28z"/><path style="fill:none;fill-opacity:1;stroke:#000;stroke-width:1;stroke-opacity:1;stroke-miterlimit:4;stroke-dasharray:none" d="M15.524 27.289a.539.53 0 0 1-.539.529.539.53 0 0 1-.538-.53.539.53 0 0 1 .538-.529.539.53 0 0 1 .54.53z"/><path style="fill:none;fill-opacity:1;stroke:#000;stroke-width:1;stroke-miterlimit:4;stroke-dasharray:none;stroke-opacity:1" d="M23.822 21.684a7.615 6.625 0 0 0-7.615 6.625 7.615 6.625 0 0 0 7.615 6.624 7.615 6.625 0 0 0 7.615-6.624 7.615 6.625 0 0 0-7.615-6.625zm4.89 11.784a7.51 6.755 0 0 1-1.85.964 1.474 1.483 0 0 0-.07.45 1.474 1.483 0 0 0 1.474 1.481 1.474 1.483 0 0 0 1.474-1.481 1.474 1.483 0 0 0-1.029-1.414zm-9.097.438a1.357 1.483 0 0 0-.457 1.11 1.357 1.483 0 0 0 1.357 1.482 1.357 1.483 0 0 0 1.357-1.482 1.357 1.483 0 0 0-.025-.29 7.51 6.755 0 0 1-2.232-.82zm6.151 1.21a7.51 6.755 0 0 1-1.832.205 7.51 6.755 0 0 1-.833-.055 1.788 1.788 0 0 0-.304.766c0 .819.761 1.483 1.698 1.483.937 0 1.697-.664 1.697-1.483a1.307 1.307 0 0 0-.426-.916z"/><path style="fill:none;stroke:#000;stroke-width:1;stroke-linecap:butt;stroke-linejoin:miter;stroke-opacity:1;stroke-miterlimit:4;stroke-dasharray:none" d="m11.471 20.56.328-.394s.022-.022.175-.087c.152-.066.087-.066.327-.153l.24-.088s.044-.021.197-.065c.153-.044.087-.044.218-.066.131-.021.088-.021.197-.043.11-.022.044 0 .175-.022.13-.022-.044-.022.262-.022s.393-.022.393-.022.044-.022.196 0c.153.022.088 0 .24.022.154.022.197.022.197.022M37.54 21.28l-.24-.317-.216-.17-.185-.193-.201-.216-.263-.186-.231-.054-.193-.046a2.45 2.45 0 0 0-.363-.03c-.1 0-.162-.009-.263-.009-.1 0-.108-.007-.24 0-.13.008-.246 0-.3.008-.054.008-.108.008-.224.015a4.317 4.317 0 0 0-.278.024c-.047.007-.162.007-.162.007"/><path style="fill:none;stroke:#000;stroke-width:1;stroke-opacity:1;stroke-miterlimit:4;stroke-dasharray:none" d="M27.152 8.99c-1.576 0-2.652 1.6-2.652 2.875 0 .403.129.782.354 1.112a6.192 6.192 0 0 0-.637-.016c-2.147.083-4.309.604-6.328 1.475.032-.143.05-.285.05-.424 0-1.208-1.087-2.834-2.43-2.834-1.341 0-3.562 1.423-3.562 2.63 0 .934 1.206 2.143 2.373 2.643-3.831 2.747-6.543 6.88-6.543 11.572 0 8.23 7.668 14.09 16.926 14.09s16.6-5.86 16.6-14.09c0-6.329-7.118-11.945-12.703-14.113.817-.385 1.329-1.156 1.61-2.045.387-1.215-1.48-2.875-3.058-2.875z"/></g></svg>