<svg width="48" height="48" version="1.1" viewBox="0 0 48 48" xml:space="preserve" xmlns="http://www.w3.org/2000/svg"><g fill="none" stroke="#fff" stroke-linecap="round" stroke-linejoin="round" stroke-width=".79136"><path transform="matrix(1.2659 0 0 1.2614 -7.0519 -6.3232)" d="m15.03 38.708h10.629c5.7768 0 11.855-7.8717 5.9977-14.634 5.4534-5.8743 0.57753-14.7-5.9977-14.7h-10.63c5.61e-4 9.7781 2.76e-4 19.556 2.76e-4 29.334z" style="paint-order:stroke fill markers"/><path transform="matrix(1.2659 0 0 1.2614 -7.0519 -6.3232)" d="m31.611 24.087s-2.7987 0.21528-3.9429-0.69595c-3.8891-3.2019-7.1742-3.4803-12.502 0.72258" style="paint-order:stroke fill markers"/><path transform="matrix(1.2659 0 0 1.2614 -7.0519 -6.3232)" d="m31.273 24.106s-3.5743 3.2716-6.2758 3.142c-4.3387 0-5.3667-3.2359-9.8027-3.2321" style="paint-order:stroke fill markers"/></g></svg>
