<?xml version="1.0" encoding="UTF-8" standalone="no"?>
<!-- Created with Inkscape (http://www.inkscape.org/) -->

<svg
   width="48"
   height="48"
   viewBox="0 0 48 48"
   version="1.1"
   id="svg5"
   xml:space="preserve"
   inkscape:version="1.2.2 (732a01da63, 2022-12-09)"
   sodipodi:docname="banano.svg"
   xmlns:inkscape="http://www.inkscape.org/namespaces/inkscape"
   xmlns:sodipodi="http://sodipodi.sourceforge.net/DTD/sodipodi-0.dtd"
   xmlns="http://www.w3.org/2000/svg"
   xmlns:svg="http://www.w3.org/2000/svg"><sodipodi:namedview
     id="namedview7"
     pagecolor="#e5e5e5"
     bordercolor="#000000"
     borderopacity="0.25"
     inkscape:showpageshadow="2"
     inkscape:pageopacity="0"
     inkscape:pagecheckerboard="0"
     inkscape:deskcolor="#d1d1d1"
     inkscape:document-units="mm"
     showgrid="false"
     inkscape:zoom="13.455443"
     inkscape:cx="27.906922"
     inkscape:cy="25.974618"
     inkscape:window-width="1920"
     inkscape:window-height="991"
     inkscape:window-x="-9"
     inkscape:window-y="-9"
     inkscape:window-maximized="1"
     inkscape:current-layer="layer1" /><defs
     id="defs2" /><g
     inkscape:label="Layer 1"
     inkscape:groupmode="layer"
     id="layer1"><path
       fill="#fbdd11"
       fill-rule="evenodd"
       d="M 33.298725,35.019608 C 19.939058,36.693709 13.773058,24.908692 14.883601,23.748423 c 0.729312,-0.762463 1.839855,-0.812188 2.817796,-0.828763 4.475323,-0.132602 10.7905,5.105183 12.083371,5.072033 2.486291,-0.04973 6.215727,-4.011216 8.668865,-7.276545 1.02767,-1.359171 7.4423,-3.414505 6.729562,0.165754 -2.320538,11.63584 -10.160641,13.923227 -11.867894,14.138706 z M 14.717849,12.974497 c 13.343092,-1.640951 19.509091,10.127491 18.398548,11.28776 -0.729312,0.779037 -1.839855,0.828763 -2.817795,0.828763 -4.475323,0.132603 -10.7905,-5.105183 -12.083372,-5.072033 -2.486291,0.04973 -6.215726,4.011216 -8.6688659,7.276545 -1.0276673,1.359172 -7.442297,3.43108 -6.7295603,-0.165754 C 5.1539171,15.477363 12.99402,13.189976 14.717849,12.991073 Z"
       id="path302"
       style="stroke-width:1;fill:none;stroke:#ffffff;stroke-dasharray:none" /></g></svg>
