<?xml version="1.0" encoding="UTF-8"?>
<svg width="48" height="48" version="1.1" viewBox="0 0 48 48" xml:space="preserve" xmlns="http://www.w3.org/2000/svg"><defs><style>.a{fill:none;stroke:#fff;stroke-linecap:round;stroke-linejoin:round;}</style></defs><g transform="matrix(1.1451218,0,0,1.1451218,-3.3471812,-3.5286408)" fill="none" stroke="#fff" stroke-linecap="round" stroke-linejoin="round" stroke-width="1"><path d="m34.773469 12.309606c-14.288461 0.189556-23.716217 11.592268-17.221799 18.422951 6.157432 6.476248 19.053645 0.172312 17.221799-18.422557 1.137674-0.061257 2.413589-0.100847 3.936103-0.101785-0.111511-1.27592-0.271635-2.5969732-0.483728-3.9634114-20.245063-2.105873-38.24810243 15.6034454-24.611387 28.1167534 9.777267 8.971805 27.346742 1.610185 25.095115-24.153342" stop-color="#000000"/><path d="m18.256123 18.819277c1.791682-3.370621 6.845924-8.285461 16.385915-10.5794415" stop-color="#000000"/><path d="m18.244 12.741c-2.778439 3.435478-3.056334 7.914392-2.711531 11.547754" stop-color="#000000"/><path d="m11.201 33.503589c6.443701 3.008873 13.523304 0.551991 15.789346-1.184712" stop-color="#000000"/></g></svg>
