<svg version="1.1" viewBox="0 0 48 48" xmlns="http://www.w3.org/2000/svg">
 <g fill="none" stroke="#fff" stroke-linecap="round" stroke-linejoin="round">
  <path class="st5" d="m12.838 8.2505v12"/>
  <path class="st5" d="m18.745 8.2505v12"/>
  <path class="st5" d="m12.838 14.249 5.9074 2e-6"/>
  <path class="st5" d="m37.462 8.2505v12"/>
  <path class="st5" d="m43.369 8.2505v12"/>
  <path class="st5" d="m37.462 14.249 5.9074 2e-6"/>
  <path class="st5" d="m26.953 8.2505c-3.6879 0-5.9074 2.3004-5.9074 7.8456v4.1538"/>
  <path class="st5" d="m26.953 8.2505v12"/>
  <path class="st5" d="m21.046 16.096 5.9074 2e-6"/>
  <path class="st5" d="m29.254 8.2502c3.6879 0 5.9074 2.3004 5.9074 7.8456"/>
  <path class="st5" d="m29.254 8.2502v12"/>
  <path class="st5" d="m35.161 8.2502v12"/>
 </g>
 <path class="st5" d="m4.6306 8.25h5.9073" stroke="#fff" stroke-linecap="round" stroke-linejoin="round"/>
 <path class="st5" d="m7.5841 20.25v-12" stroke="#fff" stroke-linecap="round" stroke-linejoin="round"/>
 <g fill="none" stroke="#fff" stroke-linecap="round" stroke-linejoin="round">
  <path class="st5" d="m4.6305 27.751c3.6878 0 5.9073 2.3005 5.9073 7.846"/>
  <path class="st5" d="m4.6305 27.751v12"/>
  <path class="st5" d="m10.539 27.751v12"/>
  <path class="st5" d="m24.475 27.751c3.6878 0 5.9073 2.3005 5.9073 7.846"/>
  <path class="st5" d="m24.475 27.751v12"/>
  <path class="st5" d="m30.383 27.751v12"/>
  <path class="st5" d="m13.212 27.75v12"/>
  <path class="st5" d="m15.889 33.75h3.3377"/>
  <path class="st5" d="m21.796 39.75h-5.9074v-12h5.9074"/>
  <path class="st5" d="m17.492 25.45 1.35-0.75 1.35 0.75" stroke-miterlimit="10"/>
 </g>
</svg>
