<?xml version="1.0" encoding="UTF-8" standalone="no"?>
<svg
   viewBox="0 0 48 48"
   version="1.1"
   id="svg8"
   xml:space="preserve"
   xmlns="http://www.w3.org/2000/svg"
   xmlns:svg="http://www.w3.org/2000/svg"><defs
     id="defs4"><style
       id="style2">.a{fill:none;stroke:#fff;stroke-linecap:round;stroke-linejoin:round;}</style><style
       id="style822">.cls-1{fill:none;stroke:#000;stroke-linecap:round;stroke-linejoin:round;}</style><style
       id="style913">.cls-1{fill:none;stroke:#fff;stroke-linecap:round;stroke-linejoin:round;}</style></defs><path
     style="font-variation-settings:normal;opacity:1;vector-effect:none;fill:none;fill-opacity:1;stroke:#ffffff;stroke-width:0.999997;stroke-linecap:round;stroke-linejoin:round;stroke-miterlimit:4;stroke-dasharray:none;stroke-dashoffset:0;stroke-opacity:1;-inkscape-stroke:none;stop-color:#000000;stop-opacity:1"
     d="m 16.600268,9.0365024 c 0.723943,-3.2027201 5.358983,-4.0769064 8.782936,-2.6105499 1.784003,0.7640246 0.433829,4.5040955 1.594861,6.4984615 1.859678,3.194468 4.246241,1.95545 6.284227,1.40443 -0.06169,-0.632574 0.02119,-1.039477 -1.428234,-1.523449 -1.457184,-0.486557 0.770687,-4.30626 5.355876,-2.070938 6.208123,3.026515 5.10866,14.934969 0.666507,22.470871 -1.666336,-0.801332 -2.649066,-2.286272 -3.499171,-3.903836 -0.764308,1.878301 0.30076,3.680377 0.97596,5.498696 -2.607536,-1.769522 -4.588521,-4.055029 -6.1176,-6.712695 -0.114617,3.496999 2.080055,5.993308 3.761014,8.712223 -5.993245,7.815619 -12.368098,6.777919 -18.995505,-0.11902 2.031116,-2.563216 3.652782,-5.393371 3.880035,-8.640811 -1.878498,2.348754 -3.446849,4.843117 -5.451091,6.688894 -0.271646,-1.69119 0.2505,-3.687682 0.785529,-5.68913 -1.008806,0.577199 -1.988329,1.41794 -2.808859,3.689602 -3.0415369,-2.891137 -7.1631628,-17.71812 0.333254,-22.185225 1.17712,-0.6353041 2.338447,-0.515352 3.531144,-0.124798 3.387433,1.109225 1.554046,3.333054 -0.04282,3.703546 1.755733,1.91348 4.333612,0.934842 6.271275,0.301284 -0.08156,-1.784152 0.08511,-3.51865 0.452271,-5.2130525 -1.176542,-0.4443048 -2.36531,-0.8709547 -4.331609,-0.1745031 z"
     id="path2933" /></svg>
