<svg version="1.1" viewBox="0 0 48 48" xmlns="http://www.w3.org/2000/svg">
 <defs>
  <filter id="filter59650" x="-.20985" y="-1289.7" width="1.4197" height="2580.4" color-interpolation-filters="sRGB">
   <feGaussianBlur stdDeviation="0.013061416"/>
  </filter>
 </defs>
 <g fill="none" stroke="#fff">
  <g transform="translate(-4.0221 -3.897)">
   <path d="m22.586 11.557c0.78348-0.78348 2.045-0.78348 2.8284-1e-6l11.314 11.314c0.78347 0.78347 0.78347 2.045 0 2.8284l-4.2426 4.2426c-0.78347 0.78347-2.045 0.78347-2.8284 0m-11.314 0 4.2426-4.2426c0.78348-0.78348 2.045-0.78347 2.8284 1e-6l4.2426 4.2426m-11.314 0c-0.78348 0.78347-2.045 0.78347-2.8284 0l-4.2426-4.2426c-0.78348-0.78347-0.78348-2.045 0-2.8284l11.314-11.314c0.78348-0.78348 2.045-0.78348 2.8284-1e-6" stroke-linecap="round" stroke-linejoin="round" style="paint-order:stroke fill markers"/>
   <path d="m22.586 18.058c0.78348-0.78348 2.045-0.78348 2.8284-1e-6l11.314 11.314c0.78347 0.78347 0.78347 2.045 0 2.8284l-1.6078 1.6078m-4.9249 3.0202c-0.19426-0.09498-0.37655-0.22342-0.53843-0.3853m-11.314 0 4.2426-4.2426c0.78348-0.78348 2.045-0.78347 2.8284 1e-6l4.2426 4.2426m-11.314 0c-0.78347 0.78347-2.045 0.78347-2.8284 0l-4.2426-4.2426c-0.78348-0.78347-0.78348-2.045 0-2.8284l11.314-11.314c0.78348-0.78348 2.045-0.78348 2.8284-1e-6" stroke-linecap="round" stroke-linejoin="round" style="paint-order:stroke fill markers"/>
   <path d="m28.153 14.296 4.46e-4 -1.1525c0-2 2.828-2 2.828 0v3.981" stroke-width="1px"/>
   <path d="m37.18 36.908-1.1562 2.625 2.6562-1.125m-1.5-1.5 6.6761-6.6761m-5.1761 8.1761 6.676-6.676-1.4999-1.5001m-2.5877 13.588c0 0.554-0.446 1-1 1h-9.0008c-0.554 0-1-0.446-1-1v-8.9999c0-0.554 0.446-1 1-1h9.0004m1 2 3.98e-4 7.9999" stroke-linecap="round" stroke-linejoin="round" stroke-width="1px"/>
  </g>
  <g stroke-linecap="round" stroke-linejoin="round" stroke-width="1px">
   <path d="m28.245 32.923 3.532-6.5e-5"/>
   <path d="m28.245 38.923 4-2.3e-5m1.5 0 2.032-4.2e-5"/>
   <path d="m28.245 35.954 2.532-4.12e-4" filter="url(#filter59650)"/>
  </g>
 </g>
</svg>
