<?xml version="1.0" encoding="UTF-8" standalone="no"?>
<svg
   viewBox="0 0 48 48"
   version="1.1"
   id="svg1"
   sodipodi:docname="battles_2.svg"
   inkscape:version="1.3.2 (091e20ef0f, 2023-11-25, custom)"
   xml:space="preserve"
   xmlns:inkscape="http://www.inkscape.org/namespaces/inkscape"
   xmlns:sodipodi="http://sodipodi.sourceforge.net/DTD/sodipodi-0.dtd"
   xmlns="http://www.w3.org/2000/svg"
   xmlns:svg="http://www.w3.org/2000/svg"><sodipodi:namedview
     id="namedview1"
     pagecolor="#ffffff"
     bordercolor="#666666"
     borderopacity="1.0"
     inkscape:showpageshadow="2"
     inkscape:pageopacity="0.0"
     inkscape:pagecheckerboard="0"
     inkscape:deskcolor="#d1d1d1"
     inkscape:zoom="8"
     inkscape:cx="21.375"
     inkscape:cy="2.0625"
     inkscape:window-width="1920"
     inkscape:window-height="1002"
     inkscape:window-x="0"
     inkscape:window-y="0"
     inkscape:window-maximized="1"
     inkscape:current-layer="svg1" /><defs
     id="defs1"><style
       id="style1">.a{fill:none;stroke:#fff;stroke-linecap:round;stroke-linejoin:round;}</style></defs><path
     style="fill:none;stroke:#ffffff;stroke-opacity:1"
     d="m 1.5,24.47155 c 0,0 -1.66188899,-11.935837 0.8539582,-17.0244651 C 3.741976,4.6396384 6.652505,1.7209709 12,1.5 20.693768,1.533747 29.483154,1 35,1 41.668632,1 45.401102,4.8314405 46.353918,8.3873987 47.345202,12.08692 46.5,24.079779 46.5,24.079779 37.210415,7.5119869 12.098351,9.4875111 1.5,24.47155 Z M 40.5,46 C 38.701987,46.384804 12.050251,47.746293 7.5,46 2.9497488,44.253707 1.6075097,42.139695 1.5,33.101014 5.5161674,8.7345418 45.53125,12.78218 46.5,33.406758 47.1875,43.469258 42.298013,45.615196 40.5,46 Z M 6.3891536,26.682176 c 0,0 -1.9351356,10.20637 1.3229424,13.897538 11.481468,7.529911 23.183276,6.306101 33.672286,0.241296 2.333935,-1.349495 1.45449,-14.316473 1.45449,-14.316473 m -22.195231,15.593291 3.968486,2.307569 m 17.453685,-16.850289 -7.214434,1.523445 c 0,0 0.646952,5.232678 -1.787074,5.748973 -2.434026,0.516295 -4.29523,-4.667634 -4.29523,-4.667634 0,0 0.12712,6.896703 3.200339,7.582352 12.933226,3.173099 10.532842,-10.080158 10.096399,-10.187136 z m -21.946249,2.052388 c 0,0 -4.238048,6.51618 -6.412432,4.215893 -2.174384,-2.300287 -0.186586,-5.441896 -0.186586,-5.441896 L 7.2477904,28.091376 c -1.105631,2.087829 -2.0645507,13.406998 10.8979486,9.116884 1.1485,-1.955095 1.973824,-7.600764 1.973824,-7.600764 z m 2.935738,-7.601252 -7.262835,-3.775006 -3.339054,3.187057 6.574533,4.350604 z m 14.282617,-0.973074 -5.879461,-3.068287 -4.451715,4.488679 3.959338,3.869184 z m -17.017247,-4.214442 4.959994,4.913726 5.167472,-4.386751 M 33.5,12 24,2 13.5,12 h 5.10636 L 24,6 28.710791,12 Z M 24,12.5 v 4"
     id="path1"
     sodipodi:nodetypes="cscsscczzcczccsccccczcccczcccccccccccccccccccccccccc" /></svg>
