<?xml version="1.0" encoding="UTF-8" standalone="no"?>
<svg
   xmlns:dc="http://purl.org/dc/elements/1.1/"
   xmlns:cc="http://creativecommons.org/ns#"
   xmlns:rdf="http://www.w3.org/1999/02/22-rdf-syntax-ns#"
   xmlns:svg="http://www.w3.org/2000/svg"
   xmlns="http://www.w3.org/2000/svg"
   xmlns:sodipodi="http://sodipodi.sourceforge.net/DTD/sodipodi-0.dtd"
   xmlns:inkscape="http://www.inkscape.org/namespaces/inkscape"
   viewBox="0 0 48 48"
   version="1.1"
   id="svg2289"
   sodipodi:docname="template.svg"
   inkscape:version="1.0.1 (3bc2e813f5, 2020-09-07)">
  <metadata
     id="metadata2293">
    <rdf:RDF>
      <cc:Work
         rdf:about="">
        <dc:format>image/svg+xml</dc:format>
        <dc:type
           rdf:resource="http://purl.org/dc/dcmitype/StillImage" />
        <dc:title></dc:title>
      </cc:Work>
    </rdf:RDF>
  </metadata>
  <sodipodi:namedview
     pagecolor="#5a5a5a"
     bordercolor="#666666"
     borderopacity="1"
     objecttolerance="10"
     gridtolerance="10"
     guidetolerance="10"
     inkscape:pageopacity="0"
     inkscape:pageshadow="2"
     inkscape:window-width="3840"
     inkscape:window-height="2096"
     id="namedview2291"
     showgrid="false"
     inkscape:zoom="24.615593"
     inkscape:cx="15.138191"
     inkscape:cy="22.467782"
     inkscape:window-x="0"
     inkscape:window-y="27"
     inkscape:window-maximized="1"
     inkscape:current-layer="svg2289"
     inkscape:document-rotation="0" />
  <defs
     id="defs2285">
    <style
       id="style2283">.a{fill:none;stroke:#fff;stroke-linecap:round;stroke-linejoin:round;}</style>
  </defs>
  <path
     style="fill:none;stroke:#ffffff;stroke-width:1px;stroke-linecap:butt;stroke-linejoin:miter;stroke-opacity:1"
     d="m 22.75072,26.73575 c 2.759719,-1.035767 5.561486,-1.650806 8.541195,-0.485368 l 0.625611,6.215587 c -0.763783,2.048832 -2.219277,3.457404 -3.66279,4.877066 -2.218722,-1.094273 -4.107625,-2.65842 -5.258274,-5.274312 z"
     id="path9407"
     sodipodi:nodetypes="cccccc" />
  <path
     style="fill:none;stroke:#ffffff;stroke-width:1;stroke-linecap:round;stroke-linejoin:miter;stroke-miterlimit:4;stroke-dasharray:none;stroke-opacity:1"
     id="path9409"
     sodipodi:type="arc"
     sodipodi:cx="25.977558"
     sodipodi:cy="21.702547"
     sodipodi:rx="2.1504438"
     sodipodi:ry="2.5616198"
     sodipodi:start="3.7467849"
     sodipodi:end="1.5714373"
     sodipodi:arc-type="arc"
     d="m 24.209049,20.24519 a 2.1504438,2.5616198 0 0 1 2.613205,-0.898369 2.1504438,2.5616198 0 0 1 1.261955,2.870058 2.1504438,2.5616198 0 0 1 -2.108029,2.047287"
     sodipodi:open="true" />
  <path
     style="fill:none;stroke:#ffffff;stroke-width:1px;stroke-linecap:butt;stroke-linejoin:miter;stroke-opacity:1"
     d="m 25.97618,24.264166 0.0276,1.552545"
     id="path9413" />
  <path
     style="fill:none;stroke:#ffffff;stroke-width:1px;stroke-linecap:butt;stroke-linejoin:round;stroke-opacity:1"
     d="m 24.209049,20.24519 -1.386745,0.129573 0.950147,-6.209646 c -0.20524,-1.755628 -1.308174,-1.818981 -1.750684,-1.499981 -1.776506,6.20908 -3.492573,12.433348 -3.831199,19.003733 l -7.120096,8.561041 c 1.762844,0.193071 3.568379,0.461731 4.977779,0.02899 l 6.176337,-4.977314 c 0.568186,-0.409264 1.163814,-0.601459 1.87891,0.151366 l 6.582107,6.047173 c 1.589761,0.312687 2.418694,-0.191108 2.704307,-0.700697 L 29.76914,36.030381"
     id="path9415"
     sodipodi:nodetypes="cccccccccccc" />
  <path
     style="fill:none;stroke:#ffffff;stroke-width:1px;stroke-linecap:butt;stroke-linejoin:miter;stroke-opacity:1"
     d="m 23.772451,14.165117 c 0.877618,0.104862 2.763132,1.105582 0.351424,-1.713243 -1.211142,-0.73831 -2.898375,-2.23155 -2.102108,0.213262"
     id="path9417"
     sodipodi:nodetypes="ccc" />
  <path
     style="fill:none;stroke:#ffffff;stroke-width:1px;stroke-linecap:butt;stroke-linejoin:miter;stroke-opacity:1"
     d="M 24.387742,12.849792 31.07092,7.0354223 30.904573,5.7779896 29.580681,5.9489583 23.453449,11.986845"
     id="path9419" />
</svg>
