<svg viewBox="0 0 48 48" xmlns="http://www.w3.org/2000/svg">
    <style>
        .a{fill:none;stroke:#FFFFFF;stroke-linecap:round;stroke-linejoin:round}
    </style>
    <rect class="a" height="8" width="8" x="29.7999992" y="4.5"/>
    <path class="a" d="M35.5,9.3999996L35.5,9.3999996c0,1-0.7999992,1.8000002-1.7999992,1.8000002l0,0l0,0 c-1,0-1.7999992-0.8000002-1.7999992-1.8000002l0,0V7.5999999c0-1,0.7999992-1.7999997,1.7999992-1.7999997l0,0l0,0 c1,0,1.7999992,0.8000002,1.7999992,1.8000002l0,0l0,0"/>
    <rect class="a" height="8" width="8.000001" x="10.1999998" y="4.5"/>
    <path class="a" d="M14.6999998,8.5C15.3999996,8.5,16,9.1000004,16,9.8000002s-0.6000004,1.3000002-1.3000002,1.3000002H12.5 V5.9000001h2.1999998C15.3999996,5.9000001,16,6.5,16,7.1999998S15.3999996,8.5,14.6999998,8.5z"/>
    <line class="a" x1="14.8999996" x2="12.6999998" y1="8.5" y2="8.5"/>
    <rect class="a" height="8" width="8" x="20" y="4.5"/>
    <path class="a" d="M24.3999996,8.5c0.7000008,0,1.2999992,0.6000004,1.2999992,1.3000002 s-0.6000004,1.3000002-1.2999992,1.3000002h-2.2000008V5.9000001h2.2000008c0.7000008,0,1.2999992,0.5999999,1.2999992,1.2999997 S25.2000008,8.5,24.3999996,8.5z"/>
    <line class="a" x1="24.3999996" x2="22.2000008" y1="8.5" y2="8.5"/>
    <rect class="a" height="9.8000011" width="9.8000002" x="10.1999998" y="25.8999996"/>
    <rect class="a" height="15.6999989" width="15.6999989" x="22.1000004" y="16.1000004"/>
    <rect class="a" height="9.5999985" width="6" x="22.1000004" y="33.9000015"/>
</svg>
