<svg version="1.1" viewBox="0 0 48 48" xmlns="http://www.w3.org/2000/svg">
 <defs>
  <style>.c{fill:none;stroke:#fff;stroke-linecap:round;stroke-linejoin:round;}</style>
 </defs>
 <g>
  <path class="c" d="m9.5615 23.821c-2.2626-3.6661-1.1249-8.4721 2.5411-10.735 3.666-2.2625 8.472-1.1251 10.735 2.5406 2.2626 3.6658 1.1254 8.4718-2.5403 10.735-3.6658 2.2627-8.4718 1.1256-10.735-2.5398"/>
  <path class="c" d="m35.7 26.479c-3.0573 1.7649-6.9188 1.2566-9.4151-1.2396-2.4962-2.4962-3.0045-6.3578-1.2396-9.415 1.7652-3.0572 5.3636-4.5477 8.7735-3.6342 3.41 0.91374 5.7811 4.0038 5.7812 7.5341"/>
  <path class="c" d="m24.001 19.724h15.599"/>
  <path class="c" d="m8.4002 19.723v-14.223"/>
 </g>
 <g fill="none" stroke="#fff" stroke-linecap="round" stroke-linejoin="round">
  <path class="st5" d="m33.488 41.491c-0.34448 0.60291-0.99367 1.0093-1.7378 1.0093-1.1046 0-2-0.89543-2-2v-1.3c0-1.1046 0.89543-2 2-2s2 0.89543 2 2v0.65h-4" stroke-miterlimit="10"/>
  <g>
   <path class="st5" d="m35.65 39.2c0-1.1046 0.89543-2 2-2"/>
   <line class="st5" x1="35.65" x2="35.65" y1="37.2" y2="42.5"/>
   <polyline class="st5" transform="translate(-240.15 -22.15)" points="268 59.35 266 64.65 264 59.35"/>
  </g>
 </g>
 <circle class="st6" cx="21.7" cy="34.75" r=".7" fill="#fff"/>
 <g fill="none" stroke="#fff" stroke-linecap="round" stroke-linejoin="round">
  <line class="st5" x1="21.7" x2="21.7" y1="37.2" y2="42.5"/>
  <path class="st5" d="m10.35 42.5v-8h1.8c1.933 0 3.5 1.567 3.5 3.5v1c0 1.933-1.567 3.5-3.5 3.5z" stroke-miterlimit="10"/>
  <path class="st5" d="m17.55 39.2c0-1.1046 0.89543-2 2-2"/>
  <line class="st5" x1="17.55" x2="17.55" y1="37.2" y2="42.5"/>
 </g>
</svg>
