<svg version="1.1" viewBox="0 0 48 48" xmlns="http://www.w3.org/2000/svg">
 <g fill="none" stroke="#fff" stroke-linecap="round" stroke-linejoin="round" stroke-miterlimit="7">
  <path class="st5" d="m29.969 31.477c-0.86119 1.5073-2.4842 2.5232-4.3444 2.5232-2.7614 0-5-2.2386-5-5v-3.25c0-2.7614 2.2386-5 5-5s5 2.2386 5 5v1.625h-10"/>
  <path class="st5" d="m43.344 31.477c-0.86119 1.5073-2.4842 2.5232-4.3444 2.5232-2.7614 0-5-2.2386-5-5v-3.25c0-2.7614 2.2386-5 5-5 2.7614 0 5 2.2386 5 5v1.625h-10"/>
  <path class="st5" d="m12.25 24c2.7614 0 5 2.2386 5 5s-2.2386 5-5 5h-8.25v-20l8.25 9e-6c2.7614 0 5 2.2386 5 5s-2.2386 5-5 5z"/>
  <line class="st5" x1="12.25" x2="4.0002" y1="24" y2="24"/>
  <path d="m44 27.375h-40"/>
 </g>
</svg>
