<svg xmlns="http://www.w3.org/2000/svg" viewBox="0 0 48 48"><defs><style>.a{fill:none;stroke:#fff;stroke-linecap:round;stroke-linejoin:round;}</style></defs> <path class="a"                     d="M6.74,15.34C13.62,11.07,19.78,10.32,21.18,13.21C22.02,18.31,12.53,24.16,6.70,24.91"/> <path class="a"                     d="M6.78,34.57C19.47,33.17,35.22,20.64,27.90,13.85C44.51,22.91,30.58,37.68,16.68,41.83"/> <path class="a"                     d="M30.30,41.94C36.28,36.73,37.13,33.90,37.55,30.28C37.46,35.20,35.90,39.20,33.72,41.83"/> <path class="a"                     d="M34.20,19.40C37.26,24.24,37.55,27.81,37.56,30.54"/> <path class="a"                     d="M16.33,11.54C22.13,11.14,24.94,12.10,28.23,14.04"/> <path class="a"                     d="M6.75,6.24L42.37,6.24L42.37,41.95L6.75,41.95z"/></svg>
