<?xml version="1.0" encoding="UTF-8"?><svg id="b" xmlns="http://www.w3.org/2000/svg" viewBox="0 0 48 48"><defs><style>.c{fill:none;stroke:#fff;stroke-linecap:round;stroke-linejoin:round;}</style></defs><path class="c" d="m7.8,26.1c-.1-.1-.1-.3-.1-.4.4-2,3.5-16.2,4.3-17.7.9-1.6,3-4.7,7.2-4.9,3.6-.3,14.3-.2,17.8-.1.8,0,1.6.1,2.3.4,2.8,1.1,5.3,3.3,4.3,8.3-.5,2.1-2.2,8-10.5,9.1h-13.5l-7.2,5.8c-.1.2-3.2,2.6-4.6-.5Z"/><path class="c" d="m32.2,21.2c-2.8,0-8.6-.1-13-.1l-6.8,5.5c-.1.2-3.3,2.6-4.6-.6h0s0,.1-.1.1c-.7,1.6-3.8,15.8-4.2,17.8,0,.2,0,.4.1.4,1.3,3.1,4.5.7,4.6.6l7.2-5.8h13.5c8.2-1.1,10-7,10.5-9.1.8-3.9-.6-6.1-2.5-7.4-1.5-.9-3.1-1.3-4.7-1.4Z"/></svg>