<svg xmlns="http://www.w3.org/2000/svg" viewBox="0 0 48 48"><defs><style>.a{fill:none;stroke:#fff;stroke-linecap:round;stroke-linejoin:round;}</style></defs>

  <path
     class="a"
     d="m 40.5,5.5 h -33 a 2,2 0 0 0 -2,2 v 33 a 2,2 0 0 0 2,2 h 33 a 2,2 0 0 0 2,-2 v -33 a 2,2 0 0 0 -2,-2 z"
      />
  <path
     class="a"
     d="m 7.789869,13.05392 c 0,-1.1 0.9,-2 2,-2 v 0 c 1.1,0 2,0.9 2,2 v 1.3 c 0,1.1 -0.9,2 -2,2 v 0 c -1.1,0 -2,-0.9 -2,-2"
      />
  <line
     class="a"
     x1="7.789866"
     y1="16.35392"
     x2="7.789866"
     y2="8.35392"
      />
  <path
     class="a"
     d="m 18.101897,15.442105 c -0.3,0.6 -1,1 -1.7,1 v 0 c -1.1,0 -2,-0.9 -2,-2 v -1.3 c 0,-1.1 0.9,-2 2,-2 v 0 c 1.1,0 2,0.9 2,2 v 0.7 h -4"
      />
  <path
     class="a"
     d="m 24.406485,23.288402 -0.522794,-1.55382 c -0.199414,-0.607703 -0.783612,-0.961689 -1.304844,-0.79065 L 9.8379037,25.124789 c -0.5212323,0.171038 -0.7821179,0.802333 -0.5827041,1.410037 l 5.2058244,15.864475"
     />
  <path
     class="a"
     d="m 34.345756,42.465339 5.301145,-16.254622 c 0.198309,-0.608064 -0.06372,-1.238884 -0.585265,-1.408975 l -12.74852,-4.157695 c -0.521542,-0.170092 -1.105097,0.184955 -1.303406,0.79302 l -6.283729,19.267469 c -0.198309,0.608064 0.06372,1.238884 0.585265,1.408975 l 0.976995,0.318629"
     />
  <line
     class="a"
     x1="35.840206"
     y1="28.922024"
     x2="37.689095"
     y2="29.60697"
      />
  <line
     class="a"
     x1="37.02174"
     y1="25.732693"
     x2="38.134544"
     y2="25.566723"
      />
  <line
     class="a"
     x1="38.134544"
     y1="25.566723"
     x2="36.764652"
     y2="29.264496"
      />
  <line
     class="a"
     x1="25.315405"
     y1="25.784292"
     x2="27.164291"
     y2="26.469238"
      />
  <line
     class="a"
     x1="26.496937"
     y1="22.594963"
     x2="27.609741"
     y2="22.428993"
      />
  <line
     class="a"
     x1="27.609741"
     y1="22.428993"
     x2="26.239847"
     y2="26.126766"
      />
  <path
     class="a"
     d="m 13.161185,25.657797 0.115549,4.144787 -2.576639,-3.268382" />
  <path
     class="a"
     d="m 22.863693,22.113969 0.138523,4.144083 -2.594717,-3.254049" />
  <path
     d="m 27.834294,38.013723 c 0.07451,0.12799 0.195705,0.220372 0.338448,0.258073 0.141084,0.03726 0.295851,0.01599 0.421743,-0.05729 l 3.770462,-2.194881 c 0.572808,-0.333446 0.980915,-0.870197 1.151356,-1.508784 0.169219,-0.640685 0.07938,-1.308954 -0.254062,-1.881762 -0.333446,-0.572808 -0.868537,-0.980477 -1.509222,-1.149696 -0.629066,-0.16615 -1.285184,-0.08198 -1.850727,0.2374 -0.335293,-0.559091 -0.865498,-0.958367 -1.496225,-1.124956 -0.639025,-0.168781 -1.305633,-0.07851 -1.878003,0.253278 -0.572808,0.333446 -0.980915,0.870197 -1.150135,1.510882 -0.168781,0.639025 -0.07729,1.307732 0.25616,1.88054 z"
     class="a"  />
  <path
     d="m 20.285085,34.844119 -2.751797,-2.473427 0.912648,-3.997105 3.226493,2.967069"
     class="a" />
  <path
     class="a"
     d="M 21.356941,8.3569108 V 15.35691 c 0,0.6 0.4,1 1,1 h 0.3"
      />
  <path
     class="a"
     d="m 27.650752,16.469775 v 0 c -1.1,0 -2,-0.9 -2,-2 v -1.3 c 0,-1.100001 0.9,-2.000001 2,-2.000001 v 0 c 1.1,0 2,0.9 2,2.000001 v 1.3 c 0,1.1 -0.9,2 -2,2 z"
      />
  <line
     class="a"
     x1="33.058407"
     y1="9.2970896"
     x2="33.058407"
     y2="16.297091"
      />
  <line
     class="a"
     x1="31.95842"
     y1="10.997089"
     x2="34.058426"
     y2="10.997089"
      />
  <path
     class="a"
     d="m 40.169286,15.196591 c -0.3,0.6 -1,1 -1.7,1 v 0 c -1.1,0 -2,-0.9 -2,-2 v -1.3 c 0,-1.1 0.9,-2.000001 2,-2.000001 v 0 c 1.1,0 2,0.900001 2,2.000001 v 0.7 h -4"
      />
</svg>
