<svg xmlns="http://www.w3.org/2000/svg" viewBox="0 0 48 48">
    <style>
        .a{fill:none;stroke:#FFFFFF;stroke-linecap:round;stroke-linejoin:round}
        .b{fill:none;stroke:#FFFFFF}
    </style>
    <path class="a" d="M36.1,33.8c-0.8,1.1-1.5,2.1-2.2,3c-2.4,3.2-5.7,5.4-9.3,7.1c-0.5,0.2-0.8,0.2-1.3,0c-2.5-1.2-4.8-2.7-6.9-4.5c-1.8-1.6-3.1-3.5-4.4-5.6l-0.4-0.6c-1.1-2.1-1.8-4.2-2-6.6c-0.1-1.6-0.1-3.2-0.1-4.8c0-0.2-0.1-0.5-0.3-0.7c-0.7-0.8-1-1.7-1-2.7C8,15,9.8,12.5,13.2,11.3c1.6-0.6,3.3-0.8,5-0.9c1.1,0,2.2,0,3.3,0c0.3,0,0.4-0.1,0.5-0.4c0.6-2.1,1.7-4,3-5.7c0.4-0.5,0.7-0.5,1,0c0.5,0.6,1,1.3,1.5,1.9c0.4,0.6,0.5,0.9,0,1.5c-0.6,0.8-1,1.7-1.3,2.7c0.3,0,0.5,0,0.7,0c1.9,0,3.8-0.1,5.7,0.3c2.1,0.4,4.1,1.2,5.6,2.8c1.5,1.7,2,3.8,1.4,6c-0.1,0.6-0.6,1-0.9,1.5c-0.1,0.2-0.2,0.4-0.2,0.6c0,1.2,0,2.4,0,3.6c0,2.8-0.7,5.4-2.1,7.9L36.1,33.8z"/>
    <path class="b" d="M29.1,33.2l7.2,0"/>
    <path class="b" d="M11.9,33.2l7.5,0"/>
    <path class="b" d="M29.1,20.9l9.7,0"/>
    <path class="b" d="M9.3,20.9l10,0"/>
    <path class="a" d="M25.8,27.1c2.2,0,4,1.8,4,4s-1.8,4-4,4h-6.5V19.1h6.5c2.2,0,4,1.8,4,4S28,27.1,25.8,27.1L25.8,27.1z"/>
    <line class="a" x1="25.7" y1="27.1" x2="19.8" y2="27.1"/>
</svg>