<svg viewBox="0 0 48 48" xmlns="http://www.w3.org/2000/svg">
    <style>
        .a{fill:none;stroke:#FFFFFF;stroke-linecap:round;stroke-linejoin:round}
    </style>
    <path class="a" d="M9.9314823,15.157382c0.4558945,0.0408001,0.9124432,0.0754538,1.3674955,0.1241312 c0.4556637,0.0487404,0.9088764,0.1209717,1.3647985,0.1665878c3.4393082,0.3441057,4.953064-0.7434673,5.7420692-4.1153193 c0.2891464-1.235693,0.3775291-2.5253344,0.9787674-3.6775675c0.1764412-0.3381419,0.3395348-0.6863012,0.5477219-1.0043588 c2.1412926-3.2713439,6.0307274-3.2583334,8.1542683,0.0266352c0.6446724,0.9972548,1.0343876,2.0941529,1.2329082,3.2641501 c0.1618958,0.954175,0.3507175,1.902318,0.6921844,2.8141088c0.6642532,1.7737112,1.936821,2.6764708,3.8298416,2.7355461 c1.0246582,0.0319767,2.0308304-0.1139088,3.04216-0.2348175c1.6524429-0.1975565,3.2577324-0.0696268,4.7353706,0.7890959 c2.1874657,1.2712421,2.9294205,3.6436691,1.8305588,5.9228191c-0.6993637,1.4505329-1.8499603,2.4717674-3.2328835,3.2531776 c-0.9298172,0.5253887-1.8907166,0.9930115-2.7325554,1.6706619c-1.4811821,1.1923084-1.9174805,2.6894779-1.4208221,4.4978561 c0.2852478,1.0386257,0.7781906,1.9893856,1.2213898,2.961977c0.6817207,1.4960136,1.0062523,3.046196,0.6276245,4.6807632 c-0.5936966,2.563076-2.7600899,3.9506645-5.3446198,3.4512215c-1.4984989-0.2895813-2.7606087-1.0105286-3.8488159-2.0617676 c-0.6961079-0.6724586-1.395134-1.3409233-2.1933098-1.8963699c-1.7751217-1.235302-3.2976093-1.229454-5.0791683,0.0188141 c-0.7963161,0.5579567-1.4906311,1.2313652-2.1912956,1.8989525c-1.2748489,1.2146568-2.7492065,2.0340462-4.5396719,2.1072693 c-2.7207823,0.1112747-4.6076546-1.6559067-4.7695427-4.378788c-0.085619-1.4400368,0.2582026-2.7768402,0.8740215-4.0597839 c0.4409285-0.9185791,0.8837757-1.835392,1.1410322-2.8286476c0.4458351-1.7213402,0.0304308-3.1590099-1.3539248-4.3143597 c-0.810545-0.6764622-1.734767-1.1575718-2.6532779-1.6515656c-0.9065957-0.4875832-1.7067041-1.1014977-2.39818-1.8662434 c-2.7641685-3.0570679-1.5833247-7.0160828,2.4059939-8.0500317C8.6069784,15.2342653,9.2631121,15.1638575,9.9314823,15.157382z"/>
</svg>
