<?xml version="1.0" encoding="UTF-8" standalone="no"?>
<svg
   viewBox="0 0 48 48"
   version="1.1"
   id="svg8"
   sodipodi:docname="bigbasket.svg"
   inkscape:version="1.1.2 (b8e25be833, 2022-02-05)"
   xmlns:inkscape="http://www.inkscape.org/namespaces/inkscape"
   xmlns:sodipodi="http://sodipodi.sourceforge.net/DTD/sodipodi-0.dtd"
   xmlns="http://www.w3.org/2000/svg"
   xmlns:svg="http://www.w3.org/2000/svg">
  <sodipodi:namedview
     id="namedview10"
     pagecolor="#000000"
     bordercolor="#666666"
     borderopacity="1.0"
     inkscape:pageshadow="2"
     inkscape:pageopacity="0"
     inkscape:pagecheckerboard="true"
     showgrid="false"
     inkscape:showpageshadow="false"
     inkscape:zoom="17.3125"
     inkscape:cx="24.404332"
     inkscape:cy="21.66065"
     inkscape:window-width="1920"
     inkscape:window-height="1017"
     inkscape:window-x="-8"
     inkscape:window-y="-8"
     inkscape:window-maximized="1"
     inkscape:current-layer="layer1" />
  <defs
     id="defs4">
    <style
       id="style2">.a{fill:none;stroke:#fff;stroke-linecap:round;stroke-linejoin:round;}</style>
  </defs>
  <g
     inkscape:groupmode="layer"
     id="layer2"
     inkscape:label="Square">
    <path
       class="a"
       d="m 40.5,5.5288809 h -33 a 2,2 0 0 0 -2,2 V 40.528881 a 2,2 0 0 0 2,2 h 33 a 2,2 0 0 0 2,-2 V 7.5288809 a 2,2 0 0 0 -2,-2 z"
       id="path6"
       style="fill:none;stroke:#ffffff;stroke-linecap:round;stroke-linejoin:round;stroke-opacity:1" />
  </g>
  <g
     inkscape:groupmode="layer"
     id="layer1"
     inkscape:label="Logo">
    <path
       style="fill:none;stroke:#ffffff;stroke-width:1;stroke-linecap:round;stroke-linejoin:round;stroke-miterlimit:4;stroke-dasharray:none;stroke-opacity:1"
       d="m 13.5,11.528881 0,24.750902"
       id="path2142"
       sodipodi:nodetypes="cc" />
    <path
       style="fill:none;stroke:#ffffff;stroke-width:1;stroke-linecap:round;stroke-linejoin:round;stroke-miterlimit:4;stroke-dasharray:none;stroke-dashoffset:10;stroke-opacity:1;paint-order:stroke fill markers"
       id="path2866"
       sodipodi:type="arc"
       sodipodi:cx="21.182312"
       sodipodi:cy="28.019859"
       sodipodi:rx="7.6668606"
       sodipodi:ry="8.0134306"
       sodipodi:start="6.2806546"
       sodipodi:end="6.2664127"
       sodipodi:open="true"
       sodipodi:arc-type="arc"
       d="m 28.849148,27.99958 a 7.6668606,8.0134306 0 0 1 -7.620136,8.033561 7.6668606,8.0134306 0 0 1 -7.713203,-7.93594 7.6668606,8.0134306 0 0 1 7.56521,-8.090073 7.6668606,8.0134306 0 0 1 7.767075,7.878331" />
    <path
       style="fill:none;stroke:#ffffff;stroke-width:1;stroke-linecap:round;stroke-linejoin:round;stroke-miterlimit:4;stroke-dasharray:none;stroke-opacity:1"
       d="m 22.615523,11.5 0,7.162454"
       id="path3936"
       sodipodi:nodetypes="cc" />
    <path
       style="fill:none;stroke:#ffffff;stroke-width:1;stroke-linecap:round;stroke-linejoin:round;stroke-miterlimit:4;stroke-dasharray:none;stroke-dashoffset:10;stroke-opacity:1;paint-order:stroke fill markers"
       id="path3938"
       sodipodi:type="arc"
       sodipodi:cx="-40.867237"
       sodipodi:cy="5.0944018"
       sodipodi:rx="7.6668606"
       sodipodi:ry="8.0134306"
       sodipodi:start="0.31426155"
       sodipodi:end="4.1891131"
       sodipodi:arc-type="arc"
       d="m -33.575862,7.5714676 a 7.6668606,8.0134306 0 0 1 -7.560292,5.5314344 7.6668606,8.0134306 0 0 1 -7.170667,-6.0718148 7.6668606,8.0134306 0 0 1 3.608298,-8.8778132"
       transform="rotate(-130.02212)"
       sodipodi:open="true" />
  </g>
</svg>
