<?xml version="1.0" encoding="UTF-8" standalone="no"?>
<!-- Created with Inkscape (http://www.inkscape.org/) -->

<svg
   width="48"
   height="48"
   viewBox="0 0 12.7 12.7"
   version="1.1"
   id="svg5"
   inkscape:version="1.1.2 (0a00cf5339, 2022-02-04, custom)"
   sodipodi:docname="bigbasket.svg"
   xmlns:inkscape="http://www.inkscape.org/namespaces/inkscape"
   xmlns:sodipodi="http://sodipodi.sourceforge.net/DTD/sodipodi-0.dtd"
   xmlns="http://www.w3.org/2000/svg"
   xmlns:svg="http://www.w3.org/2000/svg">
  <sodipodi:namedview
     id="namedview7"
     pagecolor="#ffffff"
     bordercolor="#ffffff"
     borderopacity="1"
     inkscape:pageshadow="2"
     inkscape:pageopacity="1"
     inkscape:pagecheckerboard="false"
     inkscape:document-units="mm"
     showgrid="false"
     width="48px"
     units="px"
     inkscape:snap-global="false"
     inkscape:zoom="5.6568543"
     inkscape:cx="33.234019"
     inkscape:cy="44.017397"
     inkscape:window-width="1883"
     inkscape:window-height="1048"
     inkscape:window-x="37"
     inkscape:window-y="0"
     inkscape:window-maximized="1"
     inkscape:current-layer="layer1" />
  <defs
     id="defs2">
    <clipPath
       clipPathUnits="userSpaceOnUse"
       id="clipPath8454">
      <path
         id="path8456"
         style="fill:#ff0000;fill-opacity:1;fill-rule:nonzero;stroke:none"
         d="m 95.877516,10.002859 v 11.478516 c 0.02731,0.01717 0.0543,0.03403 0.08203,0.05078 0.10647,0.06462 0.206433,0.139852 0.308594,0.210938 0.07967,0.05536 0.163423,0.104967 0.248047,0.152343 0.06172,0.03126 0.122859,0.06447 0.183593,0.09766 0.09067,0.04479 0.173971,0.101251 0.259766,0.154296 0.07563,0.03784 0.141219,0.09174 0.214844,0.132813 0.05374,0.0325 0.110041,0.06097 0.166016,0.08984 0.0435,0.02252 0.0883,0.04601 0.130859,0.07031 0.02139,0.01225 0.04442,0.02091 0.06445,0.03516 0.05805,0.04111 0.116039,0.08352 0.173828,0.125 0.0085,0.0091 0.01685,0.01827 0.02539,0.02734 0.05679,0.01537 0.112093,0.03471 0.167969,0.05273 0.09283,0.03224 0.186546,0.0632 0.279296,0.0957 0.116031,0.04685 0.234562,0.08529 0.355469,0.117187 0.114596,0.02881 0.228374,0.06259 0.341797,0.0957 0.127144,0.03451 0.249268,0.08221 0.373047,0.126953 0.05148,0.01757 0.102685,0.03561 0.154297,0.05273 -0.0017,-2.28e-4 0.003,-3.16e-4 0.0039,0 0.0019,2.76e-4 0.0039,0.0016 0.0059,0.002 0.07203,0.01135 0.151478,0.04045 0.21875,0.06445 0.09324,0.03636 0.186081,0.0779 0.275391,0.123047 0.103631,0.05027 0.199401,0.112857 0.296871,0.173828 0.12711,0.07518 0.24297,0.167569 0.35938,0.257812 0.0568,0.044 0.10833,0.08798 0.15625,0.132813 0.0673,-7.13e-4 0.0947,-0.0018 0.19922,-0.0039 0.1154,-0.0023 0.27782,-0.08807 0.3457,0.0059 0.0331,0.04553 0.0251,0.106843 -0.002,0.166016 0.53334,0.02336 1.38371,0.06485 1.49609,0.101562 0.053,0.01731 0.11337,0.0525 0.16407,0.0957 0.005,-0.0013 0.0104,-0.0027 0.0156,-0.0039 0.0283,-0.0063 0.0213,9.39e-4 -0.002,0.01563 0.0614,0.05668 0.10275,0.125072 0.0781,0.191406 -0.0516,0.140848 -0.28101,0.102699 -0.42188,0.154297 -0.54258,0.167265 -1.00854,0.297027 -1.52929,0.517578 0.0383,0.02757 0.0787,0.05507 0.11523,0.08203 0.0887,0.06548 0.17291,0.137073 0.25977,0.205078 0.0261,0.05318 0.12462,0.119553 0.0801,0.158203 -0.1639,0.14109 -0.35732,0.133668 -0.54297,0.08789 0.0264,0.06966 0.0374,0.144257 0.0293,0.214844 -5.3e-4,0.0046 -4.3e-4,0.0091 -0.002,0.01367 0.0337,0.03036 0.0594,0.06666 0.0742,0.113281 v 0.002 c 0.0247,-0.0066 0.0492,-0.01386 0.0742,-0.01953 -0.0374,0.01356 -0.0587,0.02081 -0.0762,0.02539 -9.2e-4,0.0048 -3.6e-4,0.01065 -0.002,0.01563 0.0337,0.01178 0.0672,0.02377 0.10156,0.0332 -0.0169,0.0051 -0.0286,0.008 -0.041,0.01172 0.0277,0.0016 0.0465,0.0034 0.0898,0.0059 -0.0188,0.0132 -0.0351,0.03102 -0.0527,0.04687 0.0163,0.01092 0.0319,0.02267 0.0488,0.03125 -0.0401,-0.0023 -0.0576,-0.0043 -0.084,-0.0059 -0.0123,0.0078 -0.0246,0.01492 -0.0391,0.01758 -0.0156,0.0029 -0.0312,0.0037 -0.0469,0.0059 -0.008,0.03708 -0.0215,0.07051 -0.0527,0.08984 -0.002,0.0013 -0.007,0.0027 -0.01,0.0039 0.28979,0.0141 0.57938,0.02967 0.86914,0.04492 0.28736,0.01514 0.58431,-0.0237 0.86328,0.04687 0.0346,0.0088 0.0695,0.02317 0.10352,0.04102 0.0741,-0.02477 0.16968,-0.0667 0.14843,-0.01758 -0.0137,0.03167 -0.0323,0.06023 -0.0547,0.08398 0.0196,0.01798 0.0383,0.0374 0.0527,0.05859 0.0655,0.0025 0.0817,0.0027 0.16211,0.0059 0.0722,0.0028 0.25006,-0.05468 0.2168,0.0098 -0.0237,0.04561 -0.0567,0.08399 -0.0957,0.115234 0.0349,0.0296 0.0637,0.06385 0.0859,0.105469 0.0339,0.06353 -0.14288,-0.005 -0.21484,-0.0078 -0.0358,-0.0014 -0.0395,-1.11e-4 -0.0723,-0.002 -0.3181,0.08869 -0.76346,0.0073 -0.89844,0.0078 -0.298,0.0012 -0.59654,0.0045 -0.89453,0.0078 -0.0925,0.0086 -0.18483,0.01998 -0.27735,0.0293 0.01,0.0021 0.0196,0.0034 0.0293,0.0059 0.0302,0.0075 0.0682,0.02081 0.0996,0.03906 -0.0378,0.0113 -0.0893,0.03625 -0.12109,0.03516 -0.0582,-0.002 -0.11578,-0.0064 -0.17383,-0.01172 0.1428,0.03459 0.29801,0.0772 0.33399,0.0078 0.0161,0.01703 0.026,0.03607 0.0234,0.05859 -0.0182,0.165686 -0.53192,-0.08788 -0.60743,0.002 -0.0174,-0.05002 -0.007,-0.07751 0.0195,-0.08984 -0.01,-9.07e-4 -0.0195,-4.53e-4 -0.0293,-0.002 -0.0331,0.0038 -0.0665,0.0059 -0.0996,0.0098 -0.11709,0.01359 -0.23318,0.03181 -0.3496,0.05078 0.009,0.03128 0.0157,0.06254 0.0234,0.09375 0.14194,-0.01176 0.28394,-0.02297 0.42578,-0.03516 3.3e-4,0.01842 0.008,0.0442 0.0254,0.07617 -0.14463,0.01232 -0.28883,0.02499 -0.4336,0.03711 7.3e-4,0.0032 5.6e-4,0.0065 0.002,0.0098 0.0507,0.0041 0.10356,0.0076 0.15821,0.01172 0.19536,-0.0061 0.39215,-9.4e-4 0.58593,0.02148 0.0409,0.0047 0.11018,0.01413 0.1875,0.03125 0.25481,0.01557 0.49188,0.02876 0.63672,0.03711 0.34495,0.0199 0.69017,0.03793 1.03516,0.05664 0.26817,0.01456 0.54504,-0.02557 0.80469,0.04297 0.0257,0.0068 0.0486,0.02075 0.0703,0.03516 0.0428,-0.0018 0.0949,-0.0054 0.19922,-0.01172 -0.0379,0.02605 -0.074,0.05945 -0.10938,0.0918 0.0398,0.04389 0.0778,0.09151 0.12109,0.128906 -0.33908,0.01965 -0.16675,0.01222 -0.72851,0.0098 -0.31159,-0.0016 -0.62397,-0.0063 -0.93555,-0.0078 -0.008,0.04033 -0.0315,0.07391 -0.0664,0.101563 0.024,0.02121 0.0364,0.04781 0.0332,0.08398 -0.004,0.0452 -0.0314,0.05745 -0.0723,0.05469 -0.0124,0.03481 -0.0327,0.06462 -0.0605,0.07422 -0.0231,0.008 -0.0467,0.01466 -0.0703,0.01953 0.005,0.0034 0.0107,0.007 0.0156,0.01172 0.0458,0.04376 0.0251,0.110692 0,0.179688 0.0273,0.0078 0.0401,0.01799 0.0234,0.03906 -0.0133,0.01683 -0.0297,0.02726 -0.0488,0.0332 -0.006,0.01992 -0.0114,0.04014 -0.0137,0.05859 -0.22897,0.0966 -0.45389,0.204333 -0.6875,0.289063 -0.0774,0.02807 -0.15449,0.05547 -0.23242,0.08203 0.15916,-0.0031 0.11957,-0.0019 0.4043,-0.0078 0.17693,-0.0037 0.35912,-0.04448 0.53515,-0.04102 0.0787,-0.01259 0.15342,-0.0075 0.22266,0.02734 0.0224,0.01129 0.0329,0.03807 0.0332,0.06836 0.0225,0.05519 0.0209,0.125976 -0.0176,0.152344 -0.11936,0.08169 -0.27255,0.06496 -0.43359,0.02734 -0.11146,-0.0058 -0.22389,-0.01601 -0.33399,-0.01367 -0.31391,0.0067 -0.2641,0.0046 -0.42773,0.0078 -0.0163,0.01636 -0.0324,0.03518 -0.0469,0.05664 -0.0892,0.0048 -0.17837,0.0089 -0.26758,0.01367 0.007,0.0071 0.01,0.01425 0.01,0.02148 0.24316,0.03032 0.50272,0.09014 0.66797,0.214844 -0.11256,-0.009 -0.23068,0.07834 -0.34766,0.07422 -0.14337,-0.005 -0.28553,-0.02297 -0.42773,-0.04297 -0.11356,0.02806 -0.25774,-0.01388 -0.38672,-0.02344 -0.0174,0.105742 -0.0398,0.218106 -0.0703,0.324219 0.13162,-0.01925 0.26598,-0.03863 0.4082,-0.0625 0.22111,-0.0371 0.44548,-0.07007 0.66016,-0.134766 0.0565,-0.01702 0.17994,-0.06221 0.21484,-0.0957 -0.0148,-0.01422 -0.0319,-0.02626 -0.0488,-0.03906 0.0131,0.0012 0.0261,0.0035 0.0391,0.0078 0.0212,0.0071 0.0206,0.01856 0.01,0.03125 0.0472,0.04539 0.0836,0.09861 0.10352,0.160156 0.0322,0.09952 -0.17536,0.121843 -0.2754,0.152344 -0.13862,0.04228 -0.28077,0.07084 -0.42382,0.0957 0.0194,0.0022 0.0387,0.0054 0.0566,0.0098 0.59785,-0.01251 1.4352,-0.0073 1.75586,0.123047 0.10311,0.04192 -0.0503,0.246101 -0.26172,0.435547 0.23782,0.0039 0.47782,-0.0044 0.69922,0.07422 0.0267,0.0095 0.0528,0.03213 0.0762,0.06055 0.005,7.81e-4 0.0105,4.36e-4 0.0156,0.002 0.0209,0.0037 0.0184,0.01446 0.01,0.0293 0.0443,0.07005 0.0589,0.159119 0.008,0.191407 -0.19094,0.115224 -0.44333,0.0406 -0.66602,0.05273 -0.0532,0.0029 -0.10694,0.0051 -0.16016,0.0078 0.0888,0.03113 0.17728,0.0644 0.26368,0.101563 0.0211,0.0091 -0.0472,0.003 -0.0703,0.0039 -0.24266,0.01005 -0.48378,0.02412 -0.72657,0.0293 -0.004,1.73e-4 -0.008,-1.73e-4 -0.0117,0 -0.0326,0.0014 -0.0651,0.0025 -0.0977,0.0039 -0.0164,0.0051 -0.0338,0.01065 -0.0508,0.01563 0.0107,0.02115 0.0148,0.04446 0.0117,0.07031 -0.003,0.02711 -0.0146,0.04485 -0.0332,0.05664 0.0917,-0.0074 0.17801,0.0037 0.25586,0.04883 0.0383,0.02224 0.0302,0.07746 0.004,0.128907 0.023,0.03784 0.0293,0.0765 -0.002,0.09375 -0.0532,0.03027 -0.11004,0.0452 -0.16992,0.05078 -0.0545,0.02654 -0.15582,0.03328 -0.21289,0.04492 -0.25565,0.05218 -0.5157,0.07639 -0.77539,0.101562 -0.0875,0.0085 -0.17605,0.01433 -0.26367,0.02148 0.0169,0.0089 0.031,0.02377 0.0449,0.04102 l 0.002,0.002 c 0.0103,0.0051 0.016,0.01211 0.0156,0.02148 0.0392,0.0634 0.0505,0.148761 0.01,0.191406 0.062,0.05485 0.11575,0.116985 0.16797,0.181641 1.56151,0.793269 2.05662,3.220857 -0.16602,5.945312 -0.18145,0.222433 -0.0973,0.118515 -0.25586,0.306641 -0.22455,0.272998 -0.440979,0.553554 -0.666013,0.826172 -0.13852,0.177409 -0.287449,0.345299 -0.443359,0.505859 0.04653,0.479489 0.08134,0.961069 0.111328,1.441407 H 113.70955 V 10.002859 Z m 0,13.882813 v 0.0059 c 0.0026,-0.002 0.0052,-0.0039 0.0078,-0.0059 -0.0026,7.5e-5 -0.0052,-5.9e-5 -0.0078,0 z m 0,0.351562 v 0.002 c 0.0012,-2.74e-4 0.0027,2.6e-4 0.0039,0 -0.0013,-7.89e-4 -0.0026,-0.0012 -0.0039,-0.002 z m 5.167974,0.06641 c -0.004,0.0023 -0.009,0.0038 -0.0137,0.0059 0.004,0.0064 0.006,0.01317 0.01,0.01953 0.009,-0.0017 0.0183,-0.0024 0.0273,-0.0039 0.0206,-0.0028 0.0626,0.0014 0.0879,0 0.004,-0.0057 0.007,-0.01065 0.01,-0.01563 -0.0404,-0.0017 -0.0808,-0.004 -0.1211,-0.0059 z m 0.11132,0.02148 c -0.0108,0.01731 -0.0219,0.03738 -0.0352,0.06055 -0.0161,0.0031 -0.0325,0.005 -0.0488,0.0078 0.002,0.0053 0.006,0.0103 0.008,0.01563 0.20235,0.04832 0.55432,0.138462 0.65039,0.222656 0.0125,0.01102 0.0101,0.02985 0.004,0.04883 0.29278,-0.09455 0.58963,-0.1827 0.79493,-0.246094 0.0297,-0.0109 0.0605,-0.02113 0.0898,-0.0332 -0.25201,0.0029 -0.50377,-0.04605 -0.75586,-0.06055 -0.23067,-0.01327 -0.46227,-0.02143 -0.69336,-0.03125 l 0.002,0.002 c 0.0109,0.0092 0.002,0.01273 -0.0156,0.01367 z m -4.722652,0.121093 c -0.01196,0.003 -0.02289,0.0062 -0.03516,0.0078 -0.006,8.17e-4 -0.01147,0.0032 -0.01758,0.0039 -6.16e-4,0.002 -0.0012,0.0039 -0.002,0.0059 0.0085,4e-5 0.01702,-1.7e-5 0.02539,0 0.0109,-0.0046 0.02168,-0.01 0.0332,-0.01367 -0.0012,-0.0014 -0.0027,-0.0025 -0.0039,-0.0039 z m 0.125,0.002 v 0.002 c 0.0033,0.0025 0.0065,0.0053 0.0098,0.0078 0.0024,-0.0022 0.0054,-0.0037 0.0078,-0.0059 -0.0059,-4.49e-4 -0.01171,-0.0034 -0.01758,-0.0039 z m 1.076171,0.002 c 0.0078,5.45e-4 0.01561,0.0014 0.02344,0.002 0.0015,-3.78e-4 0.0024,-0.0016 0.0039,-0.002 -0.0012,-3.4e-5 -0.0027,3.4e-5 -0.0039,0 -0.0073,-2.03e-4 -0.01622,2.02e-4 -0.02344,0 z m 3.494141,0.0957 c 4.8e-4,0.0018 -4.8e-4,0.004 0,0.0059 0.011,0.0014 0.0221,0.0025 0.0332,0.0039 -0.0111,-0.0031 -0.0221,-0.0067 -0.0332,-0.0098 z m 0.29102,0.03516 c -0.002,0.01503 -0.008,0.03154 -0.0117,0.06055 -0.0613,-6.6e-5 -0.12245,0.005 -0.1836,0 -0.0221,-0.0018 -0.0499,-0.0045 -0.0781,-0.0078 0.002,0.01402 0.002,0.02721 0.004,0.04102 0.1315,0.0029 0.26517,0.005 0.37891,-0.002 0.055,-0.0034 0.10881,-0.01336 0.16211,-0.02734 -0.006,-0.0016 -0.0278,-0.0036 -0.0371,-0.0059 -0.0727,-0.01727 -0.14454,-0.03606 -0.2168,-0.05469 -0.006,-0.0015 -0.0118,-0.0024 -0.0176,-0.0039 z m 0.10742,0.169922 c -0.11137,0.0068 -0.24193,0.0047 -0.3711,0.002 4e-5,0.05001 -0.006,0.09861 -0.0156,0.144531 0.11988,-0.04877 0.24373,-0.0979 0.38672,-0.146484 z m -2.626956,0.435547 c 0.01268,0.0068 0.02567,0.01427 0.03906,0.01953 -0.0052,-0.0069 -0.009,-0.01305 -0.01367,-0.01953 -0.0085,-1.5e-5 -0.01694,-7.2e-5 -0.02539,0 z m 1.960936,0.09961 c -0.0576,0.03353 -0.12236,0.05837 -0.19336,0.07422 -0.002,0.0015 -0.005,0.0024 -0.008,0.0039 0.0176,0.0059 0.0351,0.01183 0.0527,0.01758 0.0544,0.01771 0.11146,0.02935 0.16797,0.04102 0.0156,5.92e-4 0.0312,0.0014 0.0469,0.002 0.11849,-0.02261 0.13622,-0.0014 0.10742,0.03516 0.0403,0.01167 0.0797,0.02582 0.11719,0.04492 0.004,0.002 0.008,0.0035 0.0117,0.0059 -0.0364,-0.02882 -0.0721,-0.05645 -0.10937,-0.08398 -0.0615,-0.04541 -0.12709,-0.09357 -0.19336,-0.140625 z m -1.318358,0.04883 c 0.01299,0.0034 0.02617,0.0063 0.03906,0.0098 0.01711,0.0015 0.03369,0.0042 0.05078,0.0059 0.0042,4.21e-4 0.01208,0.01038 0.0078,0.0098 -0.02004,-0.0044 -0.03874,-0.01027 -0.05859,-0.01563 -0.03246,-0.0029 -0.06516,-0.0054 -0.09766,-0.0078 -0.0187,0.0033 -0.03784,0.0052 -0.05664,0.0078 0.0072,0.0038 0.01431,0.0079 0.02148,0.01172 0.05108,0.0044 0.103408,0.01117 0.154297,0.01953 0.02018,7.27e-4 0.04038,0.0012 0.06055,0.002 0.004,-0.0091 0.01129,-0.02014 0.02148,-0.0332 -0.04698,-0.0045 -0.09494,-0.0062 -0.142579,-0.0098 z m 1.646488,0.197266 c 0.0466,0.04552 0.0727,0.115757 0.125,0.15625 0.017,0.01342 -0.005,-0.04268 -0.008,-0.06445 -0.0387,-0.03039 -0.0787,-0.06108 -0.11719,-0.0918 z m -0.4961,0.111328 c -0.0659,0.0077 -0.13271,0.01045 -0.19922,0.0098 0.076,0.08173 0.20247,0.119728 0.32032,0.166015 -0.008,-0.04407 -0.0279,-0.08858 -0.0664,-0.128906 -0.0169,-0.01766 -0.0353,-0.03262 -0.0547,-0.04687 z m -0.40039,0.0293 c -0.005,0.0054 -0.0117,0.0097 -0.0195,0.01172 0.008,0.0045 0.0165,0.0068 0.0254,0.01172 -0.002,-0.0079 -0.004,-0.01554 -0.006,-0.02344 z m -0.636716,0.201172 c -0.0046,0.0066 -0.0067,0.01511 -0.01172,0.02148 0.008,0.0041 0.01292,0.0082 0.01758,0.01172 0.03974,-0.0076 0.06823,-0.01859 0.105469,-0.02734 -0.0388,1.24e-4 -0.07618,-0.003 -0.111328,-0.0059 z m 0.0059,0.0332 c -0.002,3.78e-4 -0.0039,0.0016 -0.0059,0.002 0.0026,0.0014 0.0052,0.0025 0.0078,0.0039 4.05e-4,-0.0017 0.0028,-0.0023 -0.002,-0.0059 z m -0.01758,-0.01172 c -0.01183,-0.0061 -0.026,-0.0115 -0.03906,-0.01563 0.0014,0.0019 0.0025,0.004 0.0039,0.0059 0.0099,0.005 0.01946,0.01046 0.0293,0.01563 0.002,-0.0019 0.0042,-0.0037 0.0059,-0.0059 z m 0.775386,-0.01953 c -0.0279,0.04821 -0.0651,0.08677 -0.10546,0.121094 0.12486,7.14e-4 0.25018,-0.0015 0.375,0.002 -0.0951,-0.03037 -0.19443,-0.06742 -0.26954,-0.123047 z m -0.17382,0.04297 c -0.001,0.0027 -0.004,0.0052 -0.006,0.0078 0.002,4.1e-4 0.004,-4.96e-4 0.006,0 -4.4e-4,-0.0027 8.8e-4,-0.0054 0,-0.0078 z m -0.23243,0.248047 c 0.002,0.0017 0.002,0.0042 0.004,0.0059 0.0267,-0.0012 0.0534,-0.0028 0.0801,-0.0039 -0.028,-2.31e-4 -0.056,-0.0015 -0.084,-0.002 z m 1.13477,0.703125 c 0.008,0.0015 0.01,0.008 0.008,0.01953 -8.8e-4,0.0045 -0.002,0.0095 -0.004,0.01367 -0.0104,-0.01018 -0.0231,-0.01924 -0.0371,-0.02734 0.0129,-0.0037 0.0257,-0.0073 0.0332,-0.0059 z m -0.58012,0.09951 c 0.003,0.0073 0.006,0.01511 0.01,0.02344 -0.006,4.89e-4 -0.0118,0.0014 -0.0176,0.002 -2e-4,-0.01089 0.003,-0.01854 0.008,-0.02539 z m -0.685544,0.01367 c -0.05772,0.02814 -0.11658,0.05513 -0.175781,0.08008 0.06627,-0.0044 0.132121,-0.0094 0.191406,-0.01367 -0.0053,-0.02213 -0.0096,-0.04447 -0.01563,-0.06641 z m 1.347654,0.896484 c -0.12019,0.0482 -0.23972,0.101049 -0.36719,0.117188 -0.20023,0.02537 -0.40504,0.01103 -0.60546,-0.01563 0.002,0.05138 0.005,0.102582 0.006,0.154297 10e-4,0.0547 5.6e-4,0.109413 -0.002,0.164062 0.22981,-0.06633 0.46017,-0.130801 0.6914,-0.191406 0.2259,-0.05918 0.45256,-0.114881 0.68164,-0.160156 0.0361,-0.0071 0.0773,-0.02094 0.11719,-0.03516 -0.1392,-0.004 -0.28347,-0.03005 -0.42187,-0.0293 -0.0326,-0.0011 -0.0651,-0.0028 -0.0977,-0.0039 z m -1.369138,0.109375 c -0.0039,6.54e-4 -0.01242,0.0015 -0.01953,0.002 2.45e-4,0.0096 -0.0013,0.01969 -0.002,0.0293 0.0228,-0.0041 0.04516,-0.0061 0.06836,-0.0078 0.0046,-3.46e-4 0.0091,-1.64e-4 0.01367,0 4.43e-4,-0.0025 -4.35e-4,-0.0053 0,-0.0078 -0.03568,-0.01444 -0.04741,-0.01778 -0.06055,-0.01563 z m -0.234375,0.01172 c -0.09761,0.04781 -0.171642,0.08421 -0.273438,0.148438 0.0362,-0.008 0.127943,-0.02919 0.136719,-0.03125 0.04497,-0.01055 0.08847,-0.02308 0.132813,-0.03711 0.0059,-0.02578 0.0074,-0.05327 0.0039,-0.08008 z m -0.716797,0.193359 c -0.0135,0.0019 -0.02743,0.0027 -0.04102,0.0039 0.014,0.0025 0.02605,0.0035 0.03906,0.0059 0.001,-0.0031 3.78e-4,-0.0066 0.002,-0.0098 z m 2.39453,0.05469 c -0.0975,0.02357 -0.19399,0.04882 -0.29101,0.07422 -0.25588,0.06699 -0.51165,0.136842 -0.76563,0.210937 1.8e-4,0.0021 0.002,0.0036 0.002,0.0059 1e-4,0.0082 -0.002,0.01768 -0.004,0.02539 v 0.002 c -9.6e-4,0.01237 -0.003,0.02474 -0.004,0.03711 0.31818,-0.09968 0.6313,-0.202185 0.90625,-0.298828 0.0524,-0.01842 0.1045,-0.03652 0.15625,-0.05664 z m -1.443358,0.01758 c -0.03766,0.01011 -0.07623,0.0181 -0.115234,0.02539 -0.01993,0.02786 -0.04201,0.0527 -0.06641,0.07617 0.04592,0.01049 0.07984,0.01877 0.134766,0.03125 0.0169,-0.04382 0.0331,-0.08781 0.04687,-0.132813 z m 1.376948,0.449219 c -0.0638,1.86e-4 -0.12387,0.0129 -0.17773,0.04102 0.10693,0.04594 0.22738,0.02568 0.35156,-0.01758 -0.06,-0.01229 -0.11826,-0.0236 -0.17383,-0.02344 z m -4.181636,0.574218 c -0.0036,0.0035 -0.0081,0.0063 -0.01172,0.0098 0.0085,-5.1e-5 0.01693,5.1e-5 0.02539,0 -0.0046,-0.0031 -0.0091,-0.0065 -0.01367,-0.0098 z m 2.869141,0 c -0.04785,0.01263 -0.09613,0.02468 -0.144531,0.03516 -6.01e-4,0.0056 -0.0039,0.01028 -0.0078,0.01563 -0.05221,0.07123 -0.126189,0.1227 -0.207031,0.164062 0.03136,0.0028 0.06259,0.0052 0.09375,0.0098 0.06851,-0.0085 0.137441,-0.01803 0.207031,-0.02734 0.02392,-0.06213 0.04302,-0.129618 0.05859,-0.197266 z m 2.154295,1.052735 v 0.002 c 0.003,-1.42e-4 0.007,1.43e-4 0.01,0 -0.003,-1.29e-4 -0.006,-0.0018 -0.01,-0.002 z m -0.69922,0.496094 c 0.0188,0.01027 0.0389,0.02171 0.0586,0.03125 0.0195,-0.0054 0.0394,-0.01318 0.0586,-0.01758 -0.0371,-0.0024 -0.0769,-0.0076 -0.11719,-0.01367 z m -0.70703,0.09961 c -0.0599,0.0023 -0.11626,0.01397 -0.16992,0.03906 0.0391,0.002 0.0755,0.0034 0.11914,0.0059 -0.0554,0.0042 -0.10256,0.0079 -0.15234,0.01172 -0.007,0.0042 -0.0145,0.009 -0.0215,0.01367 0.0759,0.05521 0.16115,0.07588 0.25195,0.07422 0.032,-0.0031 0.0637,-0.0066 0.0957,-0.0098 0.0791,-0.01261 0.1607,-0.03736 0.24414,-0.06641 -0.14771,-0.0083 -0.31085,-0.01762 -0.41601,-0.02344 0.0968,-0.0074 0.14941,-0.01262 0.26562,-0.02148 -0.0742,-0.01704 -0.14791,-0.02608 -0.2168,-0.02344 z m -0.20312,0.05664 c 0.0107,-0.0063 0.0222,-0.01246 0.0332,-0.01758 -0.0327,-0.0017 -0.0691,-0.0045 -0.0996,-0.0059 0.01,0.0093 0.0193,0.01737 0.0293,0.02539 0.0118,-9.04e-4 0.025,-0.0025 0.0371,-0.0039 z" />
    </clipPath>
    <style
       id="style25303">.a{fill:none;stroke:#fff;stroke-linecap:round;stroke-linejoin:round;}</style>
  </defs>
  <g
     inkscape:label="Layer 1"
     inkscape:groupmode="layer"
     id="layer1">
    <path
       id="text2013-3"
       style="font-style:normal;font-weight:normal;font-size:10.5833px;line-height:1.25;font-family:sans-serif;fill:#ffffff;fill-opacity:1;fill-rule:evenodd;stroke:#000000;stroke-width:0.245669;stroke-miterlimit:4;stroke-dasharray:none;stroke-opacity:1"
       transform="matrix(0.26458333,0,0,0.26458333,-19.474984,-0.64658973)"
       d="m 95.876953,10.001953 v 11.722656 c 0.0034,0.003 0.0035,0.0046 0.0098,0.0098 0.01398,0.01149 0.02955,0.02168 0.03711,0.03906 0.0012,0.0028 0.0015,0.0051 0.002,0.0078 -5.84e-4,-0.0022 -0.0017,-0.0044 0,-0.0059 0.0018,-0.0016 0.0019,0.0043 0.0039,0.0059 0.0013,1.4e-5 0.0025,2e-6 0.0039,0 h 0.0098 c 0.03156,5.17e-4 0.03843,0.02172 0.02539,0.03516 0.0012,0.0014 0.0026,0.0025 0.0039,0.0039 h 0.002 c 0.0022,6.69e-4 0.0038,0.0013 0.0059,0.002 0.01096,0.0033 0.01985,0.01168 0.0293,0.01758 0.0072,0.0038 0.01588,0.0065 0.02344,0.0098 0.0064,0.0028 0.01273,0.0056 0.01953,0.0078 0.0072,0.0026 0.0147,0.0049 0.02148,0.0078 0.02502,0.01066 0.04845,0.02403 0.07227,0.03711 0.0049,0.0026 0.02048,0.0097 0.02539,0.01172 0.0049,0.002 0.0088,0.0039 0.01367,0.0059 0.0087,0.0035 0.02879,0.01168 0.03711,0.01758 0.0053,0.0037 0.0088,0.0095 0.01367,0.01367 0.01508,0.007 0.03094,0.01215 0.04492,0.02148 0.0083,0.0055 0.0155,0.01172 0.02344,0.01758 0.02895,0.02128 0.05879,0.0413 0.08789,0.0625 0.341642,0.173512 0.676447,0.332906 1.027344,0.501954 -0.02387,0.0057 -0.04847,0.0166 -0.07227,0.02539 0.01551,0.0085 0.03109,0.0176 0.04687,0.02539 -0.01701,-0.0082 -0.03386,-0.01529 -0.05078,-0.02344 -0.0087,0.0031 -0.01671,0.0054 -0.02539,0.0078 0.262892,0.110446 0.484142,0.213651 0.955079,0.447265 0.09641,0.04783 0.275644,0.04888 0.283203,0.15625 1.5e-4,0.0021 5.8e-5,0.0039 0,0.0059 0.264175,0.09189 0.53089,0.174991 0.783203,0.294922 0.02665,0.01265 -0.008,0.0842 -0.03711,0.08008 -0.176232,-0.0249 -0.349562,-0.06976 -0.521484,-0.117188 0.01294,0.0048 0.02433,0.0089 0.03711,0.01367 0.133458,0.04961 0.267107,0.100423 0.386719,0.144531 0.0014,4.35e-4 0.0025,0.0015 0.0039,0.002 0.166339,0.05261 0.340061,0.109412 0.523438,0.169921 0.0289,0.0073 0.102935,0.02516 0.126953,0.03125 0.1374,0.03529 0.279322,0.0536 0.414062,0.0957 0.006,3.73e-4 0.0121,0.0016 0.0176,0.0059 0.0215,0.0071 0.0434,0.01476 0.0644,0.02344 0.073,-0.147346 0.14809,-0.291942 0.23047,-0.425781 0.42968,-0.677081 0.98961,-1.178386 1.67968,-1.503906 0.70268,-0.338324 1.57445,-0.507597 2.61524,-0.507813 h 0.002 c 1.78283,4.96e-4 3.08429,0.671073 3.9043,2.011719 0.83333,1.341142 1.25,3.365894 1.25,6.074219 0,2.656241 -0.41667,4.694015 -1.25,6.113281 -0.82031,1.419266 -2.10938,2.128906 -3.86719,2.128906 -1.05468,0 -1.93359,-0.175783 -2.63672,-0.527343 -0.70312,-0.364577 -1.26953,-0.89193 -1.69922,-1.582032 -0.0407,-0.06871 -0.0772,-0.144333 -0.11523,-0.216797 -0.0128,0.01132 -0.0259,0.02224 -0.0391,0.0332 -0.001,0.0019 -0.004,0.0054 -0.004,0.0059 -10e-4,0.0025 -0.003,0.0058 -0.004,0.0078 l -0.002,0.002 c -0.005,0.0052 -0.0102,0.0034 -0.0156,0.0039 -0.002,1.71e-4 -0.004,3.54e-4 -0.006,0 -0.008,0.0066 -0.0159,0.01362 -0.0254,0.01953 -0.0209,0.01304 -0.0391,0.02826 -0.0625,0.03711 -0.0124,0.0042 -0.0309,0.0094 -0.043,0.01562 -0.008,0.0038 -0.0139,0.01 -0.0215,0.01367 -0.0213,0.01077 -0.0452,0.01155 -0.0644,0.02734 -0.0244,0.01238 -0.0621,0.03303 -0.0859,0.04297 -0.0145,0.0061 -0.0302,0.01006 -0.0449,0.01563 -0.0453,0.01701 -0.0161,0.0074 -0.06641,0.0293 -0.01266,0.0054 -0.02464,0.01051 -0.03711,0.01563 -0.03942,0.01403 -0.07728,0.03065 -0.117188,0.04297 -0.01096,0.0056 -0.02224,0.01037 -0.0332,0.01563 -0.0102,0.0049 -0.02105,0.0083 -0.03125,0.01367 -0.01058,0.0056 -0.02067,0.01379 -0.03125,0.01953 -0.03439,0.01895 -0.07076,0.03154 -0.107422,0.04492 -0.0079,0.0028 -0.01783,0.0042 -0.02539,0.0078 -0.0342,0.01621 -0.06244,0.03861 -0.0957,0.05664 -0.0068,0.0037 -0.01468,0.0061 -0.02148,0.0098 -0.0083,0.0043 -0.0155,0.01082 -0.02344,0.01563 -0.03817,0.03743 -0.04663,0.04312 -0.08594,0.08594 -0.0175,0.01904 -0.03226,0.04068 -0.05078,0.05859 -0.04445,0.04278 -0.09836,0.07591 -0.148438,0.111328 -0.0198,0.01952 -0.03945,0.04088 -0.0625,0.05664 -0.02634,0.01799 -0.06288,0.01901 -0.08594,0.04297 -0.07453,0.04886 -0.06505,0.04212 -0.138672,0.09961 -0.0099,0.0078 -0.05961,0.05097 -0.07813,0.0625 -0.01504,0.0094 -0.03648,0.01424 -0.05273,0.01953 -0.02132,0.0044 -0.03031,0.0034 -0.04883,0.01367 -0.01096,0.006 -0.02634,0.02852 -0.03125,0.0332 -0.02113,0.01968 -0.06628,0.04758 -0.08594,0.06055 -0.0483,0.02553 -0.09615,0.05278 -0.144531,0.07812 -0.05095,0.02674 -0.05678,0.0329 -0.107422,0.04492 -0.0042,0.001 -0.0091,-0.0041 -0.01367,-0.002 -0.07412,0.03404 -0.139239,0.08119 -0.205078,0.128907 -0.02026,0.01469 -0.03976,0.03116 -0.06055,0.04492 -0.01285,0.0085 -0.02741,0.0142 -0.04102,0.02148 -0.03303,0.02087 -0.03756,0.02305 -0.07422,0.04883 -0.07188,0.05058 -0.140085,0.107945 -0.220703,0.144531 -0.02823,0.01708 -0.05721,0.03464 -0.08594,0.05078 -0.05756,0.03233 -0.0078,6.92e-4 -0.07422,0.03906 -0.104923,0.06061 0.0097,5.55e-4 -0.105469,0.05859 -0.05257,0.02178 -0.103525,0.04505 -0.15625,0.06641 -0.02929,0.01187 -0.05841,0.0219 -0.08789,0.0332 -0.0723,0.02767 -0.144344,0.05673 -0.216797,0.08398 -0.01894,0.0068 -0.03812,0.01171 -0.05664,0.01953 -0.03383,0.01439 -0.05261,0.02754 -0.08398,0.04492 -0.0098,0.0054 -0.01985,0.01004 -0.0293,0.01562 -0.02687,0.01562 -0.0649,0.04223 -0.08984,0.05859 -0.02729,0.01974 -0.06345,0.04428 -0.0918,0.0625 -0.01569,0.0099 -0.03101,0.01973 -0.04687,0.0293 -0.015,0.0091 -0.08021,0.04946 -0.0957,0.05664 -0.0079,0.0036 -0.01708,0.0038 -0.02539,0.0059 -0.0121,0.001 -0.02306,0.004 -0.03516,0.0039 -0.003,-1.7e-5 -0.0054,-0.0026 -0.0078,-0.0039 -0.0013,-7.03e-4 -0.0025,-0.0044 -0.0039,-0.0039 -0.0076,0.0027 -0.01394,0.0079 -0.02148,0.01172 -0.05526,0.02813 -0.03444,0.01891 -0.101562,0.04687 -0.03209,0.01058 -0.06793,0.02363 -0.101563,0.0293 -0.02234,0.0039 -0.04486,-0.0017 -0.06641,0.0059 -0.04604,0.01931 -0.08823,0.04461 -0.130859,0.07031 -0.0155,0.0034 -0.0086,0.015 -0.02148,0.03125 -0.0014,0.0017 -0.0042,0.0023 -0.0059,0.0039 0.0089,-1.1e-5 0.01797,2.24e-4 0.02734,0.002 0.0049,-0.0045 0.01708,-0.0099 0.02539,-0.01367 0.0022,-9.94e-4 0.0067,-0.0036 0.0078,-0.0039 0.0053,-0.0021 0.0095,-0.0037 0.01367,-0.0039 0.03061,-0.0023 0.03935,0.03516 0.002,0.04687 -0.0087,0.0026 -0.01588,0.0068 -0.02344,0.01172 -0.0038,0.01361 -0.01122,0.03062 -0.0098,0.03516 h -0.002 c -0.02041,1.29e-4 -0.04029,-7.1e-5 -0.06055,0 -0.0057,1.93e-4 -0.01153,0.0017 -0.01758,0.002 -0.01209,4.66e-4 -0.02344,-0.0031 -0.03516,-0.0039 -0.01487,-0.0011 -0.02138,-0.008 -0.02539,-0.01563 -0.0028,8.2e-4 -0.0052,0.0035 -0.0078,0.0039 v 2.353516 h 2.597656 l 0.722657,-2.714844 h 0.234375 c 0.299489,0.416666 0.638026,0.813809 1.015636,1.191407 0.39062,0.377612 0.83333,0.709639 1.32812,0.996093 0.50781,0.273449 1.07422,0.494793 1.69922,0.664063 0.625,0.169285 1.32161,0.253906 2.08984,0.253906 1.22395,0 2.33724,-0.234365 3.33985,-0.703125 1.00259,-0.481769 1.85547,-1.191409 2.55859,-2.128906 0.71614,-0.937496 1.26953,-2.096359 1.66016,-3.476563 0.39061,-1.393224 0.58593,-3.007818 0.58593,-4.84375 0,-1.822911 -0.19532,-3.424483 -0.58593,-4.804687 -0.38994,-1.380374 -0.94402,-2.532554 -1.66016,-3.457031 -0.70312,-0.937493 -1.556,-1.640631 -2.55859,-2.109375 -1.00261,-0.468749 -2.1159,-0.703125 -3.33985,-0.703125 -0.78125,1e-6 -1.48437,0.08464 -2.10937,0.253906 -0.625,0.156249 -1.19141,0.377606 -1.69922,0.664062 -0.49479,0.286458 -0.93099,0.625001 -1.30859,1.015625 -0.37762,0.390624 -0.716158,0.813803 -1.015636,1.269532 h -0.15625 c 0.02608,-0.494792 0.05205,-1.002606 0.07813,-1.523438 0.02608,-0.442707 0.04559,-0.91797 0.05859,-1.425781 0.01285,-0.520832 0.01953,-1.009116 0.01953,-1.464844 v -7.34375 z m 0,11.873047 v 0.02539 c 0.107487,0.06246 0.214592,0.125068 0.322266,0.1875 0.07782,0.03098 0.148432,0.06109 0.21875,0.09375 -0.200943,-0.113164 -0.35477,-0.2007 -0.541016,-0.30664 z m 0.722656,0.34375 c 0.162169,0.08928 0.325104,0.176195 0.488282,0.263672 0.05265,0.01715 0.0934,0.03049 0.160156,0.05273 -0.219534,-0.105564 -0.433788,-0.210078 -0.648438,-0.316406 z m 0.527344,0.386719 c -8.74e-4,0.0019 -0.0029,0.0041 -0.0039,0.0059 0.01839,0.0087 0.03858,0.01877 0.05664,0.02734 -0.0097,-0.0073 -0.01793,-0.0158 -0.02734,-0.02344 -0.0083,-0.0033 -0.0171,-0.0063 -0.02539,-0.0098 z m -1.212891,0.06641 c 0.105222,0.05113 0.192976,0.09369 0.296876,0.144531 -0.06538,-0.03383 -0.129763,-0.06867 -0.195313,-0.103515 -0.03391,-0.01355 -0.06756,-0.02767 -0.101563,-0.04102 z m 1.50586,0.06445 c 0.01078,0.0084 0.02261,0.01672 0.0332,0.02539 0.02158,0.0089 0.04286,0.01849 0.06445,0.02734 -0.03148,-0.01691 -0.06483,-0.03495 -0.09766,-0.05273 z m -1.542969,0.0332 v 0.01367 c 0.01893,0.0051 0.03777,0.01046 0.05664,0.01563 -0.01948,-0.0102 -0.03755,-0.01965 -0.05664,-0.0293 z m 1.824219,0.05078 c 0.02872,0.01652 0.05735,0.03207 0.08594,0.04883 0.0872,0.05111 0.185923,0.09464 0.28125,0.140625 0.05439,0.02175 0.108363,0.04315 0.16211,0.06641 -0.222398,-0.110231 -0.388309,-0.190019 -0.529297,-0.25586 z m -0.847656,0.01758 c 0.0073,0.0039 0.01424,0.0078 0.02148,0.01172 0.0071,0.0022 0.01438,0.0037 0.02148,0.0059 -0.01417,-0.0062 -0.0288,-0.01134 -0.04297,-0.01758 z m 0.04297,0.01758 c 0.03898,0.01719 0.07824,0.03351 0.117188,0.05078 0.0018,-7.95e-4 0.0041,-0.0012 0.0059,-0.002 -0.02065,-0.0102 -0.0419,-0.01901 -0.0625,-0.0293 -0.02019,-0.0062 -0.04036,-0.01334 -0.06055,-0.01953 z m 0.117188,0.05078 c -0.0038,0.0017 -0.0075,0.0041 -0.01172,0.0059 0.01726,0.008 0.03274,0.0151 0.05078,0.02344 0.02914,0.0096 0.05872,0.01783 0.08789,0.02734 -0.0072,-0.0032 -0.0143,-0.0066 -0.02148,-0.0098 -0.03516,-0.01567 -0.07028,-0.03129 -0.105469,-0.04687 z m -0.01172,0.0059 c -0.02644,-0.01227 -0.05339,-0.02358 -0.07813,-0.03516 0.0238,0.01379 0.04474,0.026 0.06641,0.03906 h 0.002 c 0.0037,-0.0014 0.0064,-0.0025 0.0098,-0.0039 z M 96.875,22.849609 c -0.0099,-0.003 -0.01945,-0.0067 -0.0293,-0.0098 0.02152,0.01016 0.04942,0.02251 0.07227,0.0332 -0.01428,-0.0082 -0.02848,-0.01556 -0.04297,-0.02344 z m -0.751953,0.05273 c 0.0092,0.007 0.01807,0.01438 0.02734,0.02148 0.0091,0.0029 0.01827,0.0049 0.02734,0.0078 -0.01866,-0.01014 -0.03625,-0.01933 -0.05469,-0.0293 z m 0.03711,0.02734 c 0.0047,0.0036 0.009,0.0081 0.01367,0.01172 l 0.03711,0.01758 c 0.009,0.0011 0.01757,0.0022 0.02539,0.0039 -0.01603,-0.0088 -0.03097,-0.01674 -0.04687,-0.02539 -0.0098,-0.0027 -0.01953,-0.005 -0.0293,-0.0078 z m 0.08203,0.02344 c 0.01293,0.0042 0.02617,0.0076 0.03906,0.01172 -0.002,-0.0011 -0.0038,-0.0028 -0.0059,-0.0039 -0.01102,-0.003 -0.0222,-0.0048 -0.0332,-0.0078 z m -0.365235,0.0332 V 23 c 0.07581,0.02629 0.145238,0.05084 0.212891,0.07422 -0.004,-0.0044 -0.0078,-0.0092 -0.01172,-0.01367 -0.0157,-0.0078 -0.03145,-0.01584 -0.04687,-0.02344 l -0.002,-0.002 c -0.05077,-0.0163 -0.101504,-0.03287 -0.152344,-0.04883 z m 0.150391,0.125 c 0.05088,0.03359 0.10391,0.06856 0.158203,0.105469 0.04544,0.01616 0.0816,0.02951 0.119141,0.04297 -0.04051,-0.02926 -0.07778,-0.06144 -0.115235,-0.09375 -0.05391,-0.01871 -0.108207,-0.03594 -0.162109,-0.05469 z m -0.150391,0.02344 v 0.0078 c 0.0021,0.0011 0.0038,0.0028 0.0059,0.0039 0.0022,-0.0014 0.0047,-0.0031 0.0078,-0.0039 -0.0045,-0.0027 -0.0092,-0.0051 -0.01367,-0.0078 z m 2.451172,0.04102 c 0.01141,0.01125 0.02101,0.02286 0.03125,0.03516 h 0.002 c 0.02835,0.0024 0.0061,-0.01286 -0.0293,-0.0332 -0.0013,-4.95e-4 -0.0026,-0.0015 -0.0039,-0.002 z m 0.03125,0.03516 c -0.0071,-6.19e-4 -0.01436,-0.0013 -0.02148,-0.002 0.01108,0.0058 0.02213,0.0118 0.0332,0.01758 -0.0039,-0.0051 -0.0076,-0.01069 -0.01172,-0.01562 z m 0.01172,0.01562 c 0.0042,0.0055 0.0097,0.0099 0.01367,0.01563 0.01531,0.0055 0.02864,0.0089 0.03906,0.01172 -0.01746,-0.0092 -0.03523,-0.0182 -0.05273,-0.02734 z m 0.0078,-0.03125 c 0.01647,0.01106 0.03119,0.0228 0.04687,0.03516 0.03411,0.02689 0.03088,0.0319 0.0039,0.02539 0.05532,0.02931 0.109778,0.06066 0.164062,0.0918 0.225913,0.05808 0.450628,0.120742 0.675781,0.181641 0.01731,0.0046 0.06741,0.02381 0.05078,0.01758 -0.30149,-0.113384 -0.602554,-0.225164 -0.904296,-0.337891 -0.0126,-0.0044 -0.02452,-0.0089 -0.03711,-0.01367 z m -2.501953,0.0098 v 0.07617 c 0.106061,0.0318 0.211799,0.06417 0.318359,0.0957 -0.0085,-0.0045 -0.01692,-0.0092 -0.02539,-0.01367 -0.09345,-0.02811 -0.179984,-0.06693 -0.244141,-0.130859 -0.01645,-0.0088 -0.03239,-0.0185 -0.04883,-0.02734 z m 0.689453,0 c 0.044,0.02301 0.06659,0.03417 0.113282,0.05859 -0.0025,-0.0052 -0.0052,-0.01056 -0.0078,-0.01563 l -0.06055,-0.03125 c -0.01502,-0.0045 -0.02975,-0.0072 -0.04492,-0.01172 z m -0.175781,0.03125 c 0.04669,0.03498 0.09504,0.06963 0.142578,0.103516 0.07923,0.02801 0.157677,0.0563 0.236328,0.08594 -0.01167,-0.01232 -0.02049,-0.0265 -0.0293,-0.04102 -0.0669,-0.0328 -0.134244,-0.0649 -0.201172,-0.09766 -0.04943,-0.01683 -0.09906,-0.03379 -0.148437,-0.05078 z m 0.310547,0.103516 c 0.0086,0.0062 0.01687,0.01344 0.02539,0.01953 -0.002,-0.0039 -0.004,-0.0078 -0.0059,-0.01172 l -0.002,-0.002 c -0.0059,-0.002 -0.01169,-0.0039 -0.01758,-0.0059 z m -0.32616,0.0039 c 0.0044,0.0029 0.0093,0.0049 0.01367,0.0078 0.03872,0.01627 0.0778,0.03223 0.117187,0.04688 0.0058,0.0022 0.01179,0.0037 0.01758,0.0059 -0.0044,-0.0029 -0.0092,-0.0049 -0.01367,-0.0078 -0.04512,-0.0176 -0.08973,-0.03492 -0.134766,-0.05273 z m -0.498047,0.03516 v 0.07422 c 0.197676,0.109478 0.383665,0.211751 0.570313,0.310547 0.06511,0.01286 0.130164,0.02796 0.195312,0.04102 -0.25909,-0.144462 -0.511699,-0.286745 -0.765625,-0.425782 z m 0.947266,0.02148 c 0.03155,0.02314 0.0628,0.04636 0.09375,0.07031 0.0034,0.0017 0.0064,0.0042 0.0098,0.0059 0.02673,0.01315 0.05339,0.02583 0.08008,0.03906 0.05074,0.01988 0.101681,0.04045 0.152344,0.06055 -0.152278,-0.07971 -0.189435,-0.09914 -0.335937,-0.175781 z m 0.183593,0.115234 c -0.02121,-0.0083 -0.04322,-0.01519 -0.06445,-0.02344 0.01632,0.01275 0.03257,0.02622 0.04883,0.03906 0.0019,10e-4 0.004,8.58e-4 0.0059,0.002 0.0658,0.03494 0.120979,0.05714 0.164062,0.06055 -0.05174,-0.02583 -0.102483,-0.05242 -0.154297,-0.07813 z m -0.06445,-0.02344 c -0.0087,-0.0068 -0.01665,-0.01472 -0.02539,-0.02148 -0.03186,-0.01568 -0.06383,-0.03122 -0.0957,-0.04687 0.02508,0.01691 0.04865,0.03397 0.07227,0.04883 0.0163,0.0063 0.03255,0.0132 0.04883,0.01953 z m 0.273438,-0.0918 c 0.0091,0.0064 0.01849,0.01335 0.02734,0.01953 -0.0092,-0.0079 -0.01273,-0.01201 -0.02148,-0.01953 -0.0019,-2.1e-5 -0.004,1.3e-5 -0.0059,0 z m -1.169922,0.0098 c 0.249968,0.137596 0.504768,0.281098 0.771484,0.429688 0.0045,9.12e-4 0.0092,10e-4 0.01367,0.002 0.0047,-7.29e-4 0.009,-0.0012 0.01367,-0.002 0.06164,-0.0093 0.125516,-0.01266 0.189453,-0.01367 -0.03326,-0.02115 -0.06365,-0.0401 -0.08984,-0.05664 -0.170919,-0.08874 -0.341326,-0.177805 -0.511718,-0.267578 -0.04756,-0.01365 -0.09509,-0.0271 -0.142578,-0.04102 -0.08145,-0.01752 -0.162746,-0.03308 -0.244141,-0.05078 z m 0.996094,0.04297 c 0.0088,0.0046 0.01072,0.0052 0.01953,0.0098 -0.0043,-0.0028 -0.0075,-0.005 -0.01172,-0.0078 -0.0025,-8.08e-4 -0.0053,-0.0011 -0.0078,-0.002 z m 0.06641,0.02148 c 0.03536,0.02254 0.0706,0.04532 0.105469,0.06836 0.01065,0.0056 0.01866,0.01006 0.0293,0.01563 9.08e-4,-0.0016 0.0011,-0.0041 0.002,-0.0059 -0.04408,-0.02626 -0.08849,-0.05228 -0.132813,-0.07813 -0.0012,-3.72e-4 -0.0027,3.73e-4 -0.0039,0 z m -1.232422,0.04687 v 0.132813 c 0.0065,0.0012 0.01302,0.0027 0.01953,0.0039 0.126353,0.02376 0.252345,0.04762 0.378907,0.07227 -0.134443,-0.06943 -0.266452,-0.139149 -0.398438,-0.208985 z m 0.90625,0.07813 c 0.04336,0.02497 0.114804,0.06799 0.142578,0.08398 -0.03108,-0.02163 -0.06624,-0.04693 -0.09961,-0.07031 -0.01338,-0.0038 -0.02905,-0.0098 -0.04297,-0.01367 z m 0.775391,0.01563 c 0.0229,0.0198 0.04802,0.04323 0.07031,0.0625 h 0.002 c 0.08639,0.04444 0.166468,0.08464 0.248047,0.125 0.02118,0.0032 0.04833,0.0081 0.07227,0.01172 -0.06952,-0.04386 -0.177344,-0.113902 -0.201172,-0.128906 -0.05269,-0.02035 -0.105477,-0.0403 -0.158203,-0.06055 -0.011,-0.0035 -0.0222,-0.0063 -0.0332,-0.0098 z m 0.392578,0.199219 c -0.01414,9.89e-4 -0.0299,9.06e-4 -0.04297,0.002 0.0086,0.0042 0.01665,0.0094 0.02539,0.01367 0.02689,0.0077 0.05326,0.01558 0.08008,0.02344 -0.02583,-0.0163 -0.03947,-0.02577 -0.06055,-0.03906 z m 0.002,0 c 0.01495,0.0022 0.02876,0.0054 0.04492,0.0078 -0.0037,-0.0034 -0.006,-0.0063 -0.0098,-0.0098 -0.01065,7.39e-4 -0.02508,0.0012 -0.03516,0.002 z m -0.964844,-0.15625 c 0.104916,0.07287 0.182565,0.124296 0.267578,0.181641 0.02644,0.0037 0.05206,0.0083 0.07813,0.01367 -0.07592,-0.05326 -0.154724,-0.10725 -0.224609,-0.158204 -0.04002,-0.01206 -0.07283,-0.02296 -0.121094,-0.03711 z m -1.111328,0.05273 v 0.06445 c 0.186948,0.0548 0.373893,0.11112 0.560547,0.167968 0.05049,-0.01874 0.103912,-0.03393 0.158203,-0.04883 -0.03586,-0.01801 -0.07134,-0.03624 -0.107422,-0.05469 -0.201643,-0.04093 -0.40273,-0.08199 -0.603515,-0.126953 -0.0026,-5.87e-4 -0.0052,-0.0014 -0.0078,-0.002 z m 1.396485,0.0332 c 0.0015,0.0011 0.0024,0.0029 0.0039,0.0039 0.07087,0.05043 0.143382,0.09869 0.214844,0.148437 0.0631,0.02251 0.125047,0.04977 0.18164,0.08398 0.02745,0.01659 0.05398,0.03442 0.08008,0.05273 0.03456,0.0075 0.06889,0.01605 0.103516,0.02344 -0.03859,-0.02723 -0.07655,-0.05494 -0.115234,-0.08203 -0.07834,-0.05486 -0.156142,-0.108524 -0.232422,-0.162109 -0.0013,-2.86e-4 -0.0025,-0.0017 -0.0039,-0.002 -0.05873,-0.01274 -0.130506,-0.03519 -0.232421,-0.06641 z m 0.792968,0.06641 c 0.01001,0.0091 0.0197,0.01667 0.0293,0.02539 0.01494,0.0023 0.01929,0.0034 0.03516,0.0059 -0.02147,-0.01053 -0.04298,-0.02071 -0.06445,-0.03125 z m -1.410156,0.0625 c 0.002,0.001 0.0039,0.0029 0.0059,0.0039 0.0014,-3.35e-4 0.0025,-0.0016 0.0039,-0.002 -0.0033,-6.59e-4 -0.0065,-0.0013 -0.0098,-0.002 z m 3.080078,0.0098 c 0.01104,0.005 0.02217,0.01063 0.0332,0.01563 0.0066,9.98e-4 0.0129,0.0029 0.01953,0.0039 -0.01757,-0.0063 -0.03519,-0.01319 -0.05273,-0.01953 z m -3.859375,0.02539 v 0.06445 c 0.07576,0.02406 0.181707,0.05748 0.265625,0.08398 0.01041,8.78e-4 0.02086,0.0011 0.03125,0.002 0.0051,4.07e-4 0.01054,0.0015 0.01563,0.002 0.02659,-0.0151 0.05229,-0.03112 0.08008,-0.04492 -0.125094,-0.03438 -0.224677,-0.06054 -0.392578,-0.107422 z m 2.431641,0.02148 c 0.01106,0.008 0.02233,0.01563 0.0332,0.02344 0.01437,0.0046 0.0287,0.009 0.04297,0.01367 -0.02541,-0.01244 -0.05076,-0.02467 -0.07617,-0.03711 z m 1.214844,0.06641 c 0.0092,0.0038 0.01814,0.008 0.02734,0.01172 h 0.002 c 0.01055,0.0043 0.02069,0.0094 0.03125,0.01367 -0.0062,-0.004 -0.01152,-0.0095 -0.01758,-0.01367 h -0.002 l -0.002,-0.002 c -0.01281,-0.0033 -0.02617,-0.0064 -0.03906,-0.0098 z m 0.02734,0.01172 c -0.0111,-7.48e-4 -0.02206,-0.0014 -0.0332,-0.002 0.0012,4.09e-4 0.0027,0.0015 0.0039,0.002 0.01001,2.14e-4 0.01693,-2.35e-4 0.0293,0 z m -3.673828,0.02148 v 0.0039 c 0.0039,3.16e-4 0.0078,-3.19e-4 0.01172,0 -0.0039,-0.0012 -0.0078,-0.0027 -0.01172,-0.0039 z m 2.777344,0.0059 c 0.01568,0.0077 0.0312,0.01576 0.04687,0.02344 0.0025,0.0067 0.0049,0.01316 0.0078,0.01953 l 0.002,0.002 c 0.0603,0.02235 0.118028,0.04556 0.173828,0.06836 -0.05647,-0.0293 -0.111499,-0.06054 -0.167969,-0.08984 -0.0019,-7.35e-4 -0.0039,-0.0012 -0.0059,-0.002 -0.01887,-0.0072 -0.03778,-0.01425 -0.05664,-0.02148 z m 1.419922,0.0039 c 0.0195,0.0094 0.0391,0.0198 0.0586,0.0293 h 0.002 c 0.0381,0.0088 0.0757,0.01851 0.11328,0.0293 0.001,3.01e-4 0.003,-2.38e-4 0.004,0 -0.0107,-0.0069 -0.0206,-0.01506 -0.0215,-0.01563 -0.0348,-0.02037 -0.019,-0.009 -0.0508,-0.0293 -0.008,-0.0043 -0.0115,-0.0081 -0.0137,-0.01172 -0.0181,0.0023 -0.0307,0.0056 -0.0566,0.0039 -0.0117,-7.56e-4 -0.0238,-0.0025 -0.0352,-0.0059 z m -2.886719,0.0039 c 0.03661,0.02011 0.07074,0.04026 0.107422,0.06055 0.08552,0.01652 0.170493,0.03362 0.255859,0.05078 -0.111461,-0.05824 -0.235659,-0.09735 -0.363281,-0.111328 z m 1.714844,0.002 -0.002,0.002 c 0.03032,0.01498 0.06183,0.03 0.0918,0.04492 0.01387,0.0069 0.02177,0.0109 0.03516,0.01758 0.0059,0.0023 0.01372,0.0056 0.01953,0.0078 -0.04495,-0.02275 -0.08986,-0.04552 -0.134766,-0.06836 -0.0027,-8.97e-4 -0.0051,-0.003 -0.0078,-0.0039 z m -0.40625,0.01758 c 0.01277,0.0089 0.02722,0.01927 0.03906,0.02734 0.0011,7.32e-4 0.0028,0.0012 0.0039,0.002 0.06253,0.02016 0.109911,0.03482 0.166016,0.05273 -0.0051,-0.0037 -0.01561,-0.01135 -0.02148,-0.01563 -0.06057,-0.02238 -0.123546,-0.04461 -0.1875,-0.06641 z m 1.199218,0.002 c 0.01095,0.0037 0.01997,0.0079 0.03125,0.01172 0.0071,0.0027 0.01439,0.0052 0.02148,0.0078 0.04394,0.01488 0.0718,0.02239 0.121094,0.03906 -0.01798,-0.01087 -0.06297,-0.03434 -0.111329,-0.05859 -0.01782,2.77e-4 -0.03803,2.71e-4 -0.0625,0 z m -3.818359,0.0059 v 0.06641 c 0.04948,0.0098 0.09894,0.01969 0.148438,0.0293 0.02748,-0.02022 0.05508,-0.04194 0.08398,-0.06055 -0.07777,-0.01034 -0.154803,-0.02289 -0.232422,-0.03516 z m 2.242188,0.01953 c 0.01186,0.0096 0.02314,0.01962 0.03516,0.0293 0.0066,0.0014 0.0129,0.0044 0.01953,0.0059 -0.01851,-0.01136 -0.0362,-0.02376 -0.05469,-0.03516 z m -0.261719,0.02344 c 0.04534,0.03761 0.08665,0.07955 0.128906,0.121094 0.0051,0.0034 0.01052,0.0064 0.01563,0.0098 0.05714,0.01176 0.11473,0.02343 0.171875,0.03516 -0.06754,-0.0477 -0.13565,-0.09478 -0.203125,-0.142578 -0.0033,-6.83e-4 -0.0065,-0.0013 -0.0098,-0.002 -0.03441,-0.0072 -0.06896,-0.01437 -0.103516,-0.02148 z m 2.070312,0 c 0.0019,0.0014 0.0023,0.0014 0.0059,0.0039 0.0025,0.01052 0.0036,0.02132 0.0078,0.03125 7.12e-4,-0.0012 0.0021,-0.0073 0.0039,-0.0098 0.0011,-0.0016 0.0039,-4.48e-4 0.0059,0 0.0087,0.002 0.01708,0.0055 0.02539,0.0078 0.02192,0.0059 0.01935,0.0041 0.03714,0.0039 -0.002,-6.72e-4 -0.005,-5.74e-4 -0.004,-0.002 6.9e-4,-0.0012 6.9e-4,-0.0031 0.002,-0.0039 -0.01765,-0.0071 -0.03493,-0.01563 -0.05271,-0.02148 -0.01019,-0.0034 -0.02106,-0.0064 -0.03125,-0.0098 z m -0.435546,0.02344 c 0.01643,0.01015 0.03236,0.02117 0.04883,0.03125 0.05557,0.02507 0.09776,0.04399 0.15625,0.07031 0.03572,0.01607 0.0718,0.03238 0.107422,0.04883 -0.103887,-0.05335 -0.18914,-0.09654 -0.275391,-0.140625 -0.01232,-0.0029 -0.0248,-0.0068 -0.03711,-0.0098 z m -2.998047,0.01563 c -0.0071,0.0027 -0.0145,0.005 -0.02148,0.0078 0.142835,0.04499 0.321466,0.100447 0.417969,0.13086 0.213354,0.02171 0.415578,0.04247 0.626953,0.06445 -0.0013,-6.25e-4 -0.0026,-0.0013 -0.0039,-0.002 -0.271158,-0.08176 -0.409537,-0.123017 -0.472656,-0.138672 -0.146621,-0.01712 -0.342091,-0.03846 -0.546875,-0.0625 z m 2.269531,0.0059 c 0.0016,0.0017 0.0023,0.0042 0.0039,0.0059 0.01338,0.0043 0.02797,0.0095 0.04102,0.01367 -0.0048,-0.0025 -0.0049,-0.0033 -0.0098,-0.0059 -0.01186,-0.0047 -0.02311,-0.009 -0.03516,-0.01367 z m -0.654297,0.0078 c 0.04171,0.02955 0.08323,0.05843 0.125,0.08789 -0.032,-0.02527 -0.06374,-0.05044 -0.0957,-0.07617 -0.0046,-0.0026 -0.0091,-0.0052 -0.01367,-0.0078 -0.0053,-0.0011 -0.01036,-0.0028 -0.01563,-0.0039 z m 1.791016,0.002 c -0.0085,0.0021 -0.01687,0.0037 -0.02539,0.0059 0.105215,0.03822 0.209458,0.07912 0.312498,0.123047 0.009,-0.02254 0.0197,-0.04414 0.0293,-0.06641 -0.0304,-0.0184 -0.0398,-0.02693 -0.084,-0.05273 -0.0122,9.2e-5 -0.025,0.0014 -0.0371,0.002 -0.004,2.41e-4 -0.008,-4e-5 -0.0117,0 -0.009,7.8e-5 -0.0147,-0.001 -0.0234,0.002 -0.0181,0.0059 -0.0296,0.02553 -0.0508,0.02539 -0.008,-3.6e-4 -0.01588,-7e-4 -0.02344,-0.002 -0.01916,-0.0029 -0.05015,-0.012 -0.06641,-0.02148 -0.0063,-0.0037 -0.01321,-0.0093 -0.01953,-0.01563 z m -2.447266,0.02148 c 0.0035,0.0019 0.0063,0.0039 0.0098,0.0059 0.01161,0.0027 0.0218,0.0052 0.0332,0.0078 0.02903,0.0038 0.05878,0.0078 0.08789,0.01172 -0.04346,-0.0088 -0.08738,-0.01676 -0.130859,-0.02539 z m -1.066406,0.002 c -0.01964,0.0094 -0.03574,0.02302 -0.05469,0.0332 0.03777,0.0072 0.07549,0.01432 0.113281,0.02148 0.05659,0.0057 0.112319,0.01177 0.169922,0.01758 -0.07527,-0.02369 -0.152115,-0.04823 -0.228515,-0.07227 z m 2.404297,0.03711 c 0.02155,0.0097 0.04283,0.01976 0.06445,0.0293 -0.008,-0.0061 -0.01084,-0.0085 -0.01758,-0.01367 -0.01448,-0.0046 -0.03199,-0.01088 -0.04687,-0.01563 z m 0.121093,0.0039 c 0.01099,0.0084 0.0475,0.03691 0.06055,0.04687 h 0.002 c 0.02424,0.0079 0.04887,0.01666 0.07422,0.02344 -0.04032,-0.02083 -0.08333,-0.04264 -0.136719,-0.07031 z m 0.242188,0.0039 c 0.0255,0.02223 0.0494,0.04586 0.07227,0.07031 0.05518,0.01652 0.106945,0.03212 0.158204,0.04687 -0.06494,-0.03349 -0.14403,-0.0756 -0.222657,-0.115235 -0.0024,-8.44e-4 -0.0054,-0.0011 -0.0078,-0.002 z m -3.277344,0.0059 v 0.05273 c 0.01756,-0.01633 0.03455,-0.03326 0.05273,-0.04883 -0.01677,-0.0015 -0.03739,-0.0025 -0.05273,-0.0039 z m 3.994141,0.01562 c 0.07384,0.03793 0.189555,0.09815 0.275385,0.142579 0.006,-0.01493 0.0115,-0.03011 0.0176,-0.04492 -0.0905,-0.02959 -0.180936,-0.06026 -0.292965,-0.09766 z m -2.408203,0.0059 c 0.0092,0.0029 0.01812,0.0068 0.02734,0.0098 -0.0043,-0.0024 -0.0094,-0.0055 -0.01367,-0.0078 -0.0055,-6.37e-4 -0.0081,-0.0013 -0.01367,-0.002 z m -1.216797,0.01172 c -0.0152,0.0096 -0.03213,0.0172 -0.04687,0.02734 0.0044,-0.0035 0.153676,0.0058 0.365234,0.02148 -0.06953,-0.01326 -0.139436,-0.0259 -0.208984,-0.03906 -0.03039,-0.0028 -0.07301,-0.0065 -0.109375,-0.0098 z m -0.04687,0.02734 c -0.0279,0.0192 -0.05371,0.04146 -0.08008,0.0625 0.275655,0.03627 0.555081,0.07124 1.240234,0.15625 0.04433,0.0055 0.08847,0.01021 0.132813,0.01563 -0.08254,-0.02529 -0.165525,-0.05063 -0.248047,-0.07617 -0.153191,-0.03253 -0.307212,-0.06381 -0.460938,-0.09375 -0.420666,-0.04186 -0.577712,-0.05999 -0.583984,-0.06445 z m 2.439453,-0.02344 c 0.04045,0.02817 0.0858,0.05917 0.134766,0.0918 0.0116,0.0066 0.02356,0.0129 0.03516,0.01953 l 0.002,0.002 c 0.01743,0.0026 0.03536,0.0052 0.05273,0.0078 -0.08794,-0.05202 -0.153842,-0.08838 -0.210937,-0.117188 -0.0046,-0.001 -0.0091,-0.0029 -0.01367,-0.0039 z m 0.925781,0.01172 c 8.39e-4,0.005 0.0025,0.01133 0.0039,0.01758 0.0035,-0.0028 0.0079,-0.0048 0.01172,-0.0078 -0.0046,-0.0034 -0.0105,-0.0062 -0.01563,-0.0098 z m 0.01563,0.0098 c 0.0029,0.0021 0.0071,0.0039 0.0098,0.0059 0.0038,0.003 0.0064,0.0064 0.0098,0.0098 0.02304,0.01552 0.02987,0.02135 0.03711,0.02539 -0.02153,-0.0075 -0.04302,-0.01392 -0.06445,-0.02148 v 0.002 c 0.02883,0.01472 0.05714,0.03014 0.08594,0.04492 0.0074,-0.002 0.01426,-0.004 0.02148,-0.0059 -0.02192,-0.0102 -0.02642,-0.01227 -0.0332,-0.01563 0.01312,0.0045 0.02594,0.0091 0.03906,0.01367 0.0012,-3.14e-4 0.0027,3.09e-4 0.0039,0 -0.0056,-0.0057 -0.0099,-0.01163 -0.01563,-0.01758 -0.02337,-0.01459 -0.0486,-0.03025 -0.07422,-0.04687 -0.0019,-8.15e-4 -0.004,-0.0011 -0.0059,-0.002 l -0.002,-0.002 c -0.0045,0.0034 -0.0076,0.0065 -0.01172,0.0098 z m -0.0078,0.01953 c -0.001,-0.004 -0.0031,-0.0081 -0.0039,-0.01172 -0.0028,0.0022 -0.0052,0.0057 -0.0078,0.0078 0.0039,0.0014 0.0078,0.0025 0.01172,0.0039 z m -1.931641,-0.02734 c 0.03827,0.02098 0.07953,0.04279 0.119141,0.06445 0.03395,0.01079 0.06761,0.02241 0.101562,0.0332 -0.02121,-0.02103 -0.04234,-0.04254 -0.06445,-0.0625 -0.05297,-0.01223 -0.106816,-0.02365 -0.15625,-0.03516 z m 1.351563,0 c 0.0032,0.0025 0.01032,0.0092 0.01367,0.01172 0.02532,0.0055 0.05086,0.01012 0.07617,0.01562 -0.02976,-0.0091 -0.05826,-0.01754 -0.08984,-0.02734 z m -0.423829,0.02734 c 0.02278,0.01534 0.04608,0.02993 0.06836,0.04492 0.0059,8.82e-4 0.01166,0.003 0.01758,0.0039 -0.02866,-0.0162 -0.05721,-0.03274 -0.08594,-0.04883 z m 0.921875,0.02539 c 0.0082,0.0043 0.01732,0.0075 0.02539,0.01172 l 0.002,-0.002 -0.0078,-0.0039 c -0.0019,-6.16e-4 -0.0039,-0.0013 -0.0059,-0.002 -0.0045,-0.0014 -0.0092,-0.0025 -0.01367,-0.0039 z m 0.02734,0.0098 c 0.02026,0.01033 0.0403,0.02089 0.06055,0.03125 0.0087,-0.002 0.01803,-0.0035 0.02734,-0.0059 -0.02889,-0.0085 -0.05724,-0.01829 -0.08594,-0.02734 z m 0.06055,0.03125 c -0.0015,3.31e-4 -0.0025,0.0016 -0.0039,0.002 0.02249,0.01188 0.04805,0.02523 0.07031,0.03711 0.0052,0.0014 0.01044,0.0025 0.01563,0.0039 -0.02748,-0.01414 -0.05451,-0.0289 -0.08203,-0.04297 z m -0.0039,0.002 c -0.01875,-0.0099 -0.03942,-0.02121 -0.05859,-0.03125 -0.01325,0.01415 -0.01838,0.02304 -0.01758,0.0293 0.01076,0.003 0.02248,0.0068 0.0332,0.0098 0.01235,-0.0012 0.02633,-0.0041 0.04297,-0.0078 z m -2.5,-0.03906 c 0.01628,0.0051 0.03712,0.01271 0.05273,0.01758 0.421932,0.03234 0.663248,0.04901 -0.05273,-0.01758 z m 1.148437,0.0098 c 0.0132,0.0066 0.02591,0.01293 0.03906,0.01953 0.02481,0.0056 0.05193,0.01214 0.07617,0.01758 -0.01182,-0.0083 -0.02335,-0.01712 -0.03516,-0.02539 -0.02521,-0.0037 -0.05718,-0.0084 -0.08008,-0.01172 z m 1.712891,0.03906 c 0.0033,0.0025 0.0065,0.0053 0.0098,0.0078 0.02025,0.01159 0.04027,0.02361 0.06055,0.03516 0.003,0.0011 0.005,0.0028 0.008,0.0039 0.0168,0.0068 0.0341,0.01406 0.0508,0.02148 0.0157,0.0071 0.0314,0.01408 0.0469,0.02148 0.002,-0.006 0.005,-0.01156 0.008,-0.01758 -0.0612,-0.02425 -0.122945,-0.04699 -0.183533,-0.07227 z m -1.40625,0.0098 c 0.0232,0.01726 0.03695,0.02837 0.05664,0.04297 0.01537,0.0033 0.03149,0.0065 0.04687,0.0098 -0.02309,-0.01435 -0.0462,-0.02923 -0.06836,-0.04492 -0.0084,-0.0017 -0.0278,-0.0063 -0.03516,-0.0078 z m -1.21875,0.0098 c 0.01749,0.0038 0.03525,0.0079 0.05273,0.01172 0.193143,0.04215 0.385706,0.08553 0.578125,0.130859 -0.06918,-0.03333 -0.140401,-0.06828 -0.21289,-0.103516 -0.152137,-0.01451 -0.292051,-0.02691 -0.417969,-0.03906 z m 1.919922,0.002 c 0.0095,0.0041 0.01976,0.0059 0.0293,0.0098 -0.008,-0.0068 -0.01865,-0.0086 -0.0293,-0.0098 z m 0.550781,0.0098 c 0.03864,0.02003 0.07669,0.04228 0.115234,0.0625 0.04886,0.0125 0.09881,0.02364 0.152348,0.03711 -0.0149,-0.0084 -0.03,-0.01692 -0.0449,-0.02539 -0.0041,-0.0023 -0.0077,-0.0055 -0.01172,-0.0078 -0.0019,-7.7e-4 -0.0039,-0.0012 -0.0059,-0.002 -0.01447,-0.0058 -0.02862,-0.01176 -0.04297,-0.01758 -0.0032,-0.0013 -0.0065,-0.0026 -0.0098,-0.0039 -0.05084,-0.01457 -0.10132,-0.02886 -0.152344,-0.04297 z m -3.748047,0.0098 c -0.01185,0.01102 -0.02556,0.01983 -0.03711,0.03125 0.01299,0.0022 0.02615,0.0034 0.03906,0.0059 0.390634,0.07378 1.187429,0.243132 1.949219,0.398438 0.09633,-0.0022 0.192696,-0.0038 0.289063,-0.0059 -0.03651,-0.04414 -0.07331,-0.08813 -0.109376,-0.132813 -0.05185,-0.01538 -0.10454,-0.0295 -0.15625,-0.04492 -0.620488,-0.04287 -1.33094,-0.151101 -1.974609,-0.251953 z m 3.271485,0.0039 c 0.0014,0.0035 0.0029,0.0061 0.0039,0.0098 0.0032,0.0014 0.0066,0.0025 0.0098,0.0039 -0.0035,-0.0037 -0.0061,-0.0081 -0.0098,-0.01172 -9.87e-4,-9.92e-4 -0.0029,-8.68e-4 -0.0039,-0.002 z m 0.197265,0.02539 c 0.01138,0.0096 0.02315,0.02017 0.0332,0.03125 l 0.002,0.002 c 0.05853,0.0088 0.122574,0.01882 0.179688,0.02734 -0.01354,-0.0073 -0.02764,-0.01624 -0.04102,-0.02344 -0.05793,-0.01262 -0.115911,-0.02443 -0.173828,-0.03711 z m -1.25,0.03906 c 0.01074,0.0064 0.02984,0.01677 0.04102,0.02344 h 0.002 v 0.002 c 0.005,0.0015 0.01068,0.0024 0.01563,0.0039 -0.01316,-0.0075 -0.03822,-0.02215 -0.05078,-0.0293 -0.0024,-2.19e-4 -0.0055,2.22e-4 -0.0078,0 z M 96.045,24.531983 c 0.06499,0.0511 0.129998,0.103034 0.1875,0.15625 0.06995,0.06474 0.137662,0.141442 0.203125,0.224609 0.229889,-0.0056 0.459869,-0.01152 0.689453,-0.01758 0.0653,-0.0011 0.130272,-0.0024 0.195312,-0.0039 0.05158,-0.0086 0.103442,-0.0125 0.15625,-0.0039 6.53e-4,1.06e-4 0.0013,-1.1e-4 0.002,0 0.08322,-0.002 0.16642,-0.0039 0.25,-0.0059 -0.248552,-0.04743 -1.018522,-0.193779 -1.683594,-0.349609 z m 2.40039,0.002 c 0.05513,0.0296 0.122933,0.06578 0.185547,0.09961 0.01016,0.003 0.02407,0.0084 0.03516,0.01172 -0.07287,-0.03618 -0.146906,-0.07448 -0.220704,-0.111328 z m 0.277344,0.01953 c 0.09595,0.06827 0.150564,0.09613 0.248047,0.142578 0.0039,-10e-7 0.0079,3.1e-5 0.01172,0 -0.01795,-0.01611 -0.03521,-0.03269 -0.05469,-0.04687 -0.04337,-0.0317 -0.08953,-0.06085 -0.134765,-0.08984 -0.02444,-0.0023 -0.04629,-0.0036 -0.07031,-0.0059 z m 0.9375,0.02148 c 0.03242,0.0066 0.06525,0.01286 0.09766,0.01953 0.02737,0.0056 0.05479,0.0131 0.08203,0.01953 -0.03705,-0.0091 -0.07709,-0.02051 -0.101563,-0.02734 -0.03848,-0.0057 -0.04157,-0.0063 -0.07813,-0.01172 z m -0.703125,0.0078 c 0.05479,0.03685 0.105627,0.07195 0.158203,0.107422 0.02352,-0.0024 0.04712,-0.0059 0.07031,-0.0098 -0.0024,-8.25e-4 -0.0059,-0.0011 -0.0078,-0.002 -0.0552,-0.02488 -0.107686,-0.05359 -0.160156,-0.08398 -0.0197,-0.0037 -0.04132,-0.008 -0.06055,-0.01172 z m -3.080078,0.01758 v 0.326172 c 0.09116,-0.0023 0.182256,-0.0055 0.273438,-0.0078 -0.01146,-0.01361 -0.02145,-0.02746 -0.0332,-0.04102 -0.07467,-0.08615 -0.152911,-0.192141 -0.240235,-0.277344 z m 3.333985,0.0059 c 0.0052,0.0072 0.01131,0.01401 0.01562,0.02148 0.0069,-0.0026 0.01199,-0.007 0.0078,-0.0098 -0.0074,-0.0048 -0.01543,-0.008 -0.02344,-0.01172 z M 98.341797,24.625 c 0.0033,0.0038 0.0065,0.0079 0.0098,0.01172 0.0046,5.17e-4 0.0091,0.0014 0.01367,0.002 -0.0071,-0.0042 -0.01538,-0.0089 -0.02344,-0.01367 z m 0.888672,0.0098 c 0.001,0.0019 9.06e-4,0.0039 0.002,0.0059 0.01054,0.0063 0.02072,0.01322 0.03125,0.01953 h 0.002 c 0.0098,-0.0031 0.01961,-0.0064 0.0293,-0.0098 -0.004,-0.0023 -0.0077,-0.0055 -0.01172,-0.0078 -0.01648,-0.003 -0.03666,-0.0049 -0.05273,-0.0078 z m 0.06445,0.01563 c 0.0012,7.28e-4 0.0027,0.0012 0.0039,0.002 0.0045,-0.0014 0.0092,-0.0025 0.01367,-0.0039 -0.0031,-5.45e-4 -0.0067,-0.0014 -0.0098,-0.002 -0.0027,9.68e-4 -0.0051,0.003 -0.0078,0.0039 z m 0.0039,0.002 c -0.0109,0.0033 -0.02221,0.005 -0.0332,0.0078 0.04031,0.02415 0.08091,0.04791 0.121094,0.07227 0.01555,-0.0011 0.03105,-0.0027 0.04687,-0.0039 -0.04489,-0.02501 -0.09046,-0.05016 -0.134766,-0.07617 z m 0.400391,0 c 0.0077,0.0034 0.01572,0.0063 0.02344,0.0098 0.09409,0.01587 0.198188,0.03469 0.30664,0.05273 0.002,-0.0047 0.004,-0.0089 0.006,-0.01367 -0.005,-0.0028 -0.0107,-0.0051 -0.0156,-0.0078 -0.0574,-0.0087 -0.115855,-0.01934 -0.175776,-0.0293 h -0.002 c -0.0019,-3.11e-4 -0.004,3.16e-4 -0.0059,0 -0.04578,-0.0028 -0.09089,-0.0071 -0.136719,-0.01172 z m 0.177734,0.01367 c 0.04372,0.0083 0.08694,0.01477 0.130856,0.02148 -0.01117,-0.0062 -0.02431,-0.01356 -0.03515,-0.01953 -0.03196,1.8e-5 -0.06369,-4.47e-4 -0.0957,-0.002 z m -0.689453,0.01563 c -0.0214,0.005 -0.04269,0.0098 -0.06445,0.01367 0.02051,0.01384 0.04226,0.02733 0.0625,0.04102 0.03091,0.0022 0.06593,0.0032 0.103515,0.002 -0.02997,-0.01804 -0.05981,-0.03676 -0.08984,-0.05469 h -0.002 c -0.0035,-7.99e-4 -0.0067,-8.73e-4 -0.0098,-0.002 z m 0.320312,0 c 0.01763,0.01307 0.03509,0.02601 0.05273,0.03906 0.04455,-0.0031 0.0889,-0.0073 0.128906,-0.0078 -0.06485,-0.01096 -0.122559,-0.02104 -0.181641,-0.03125 z m -1.019531,0.06641 c 0.01861,0.0098 0.03607,0.02149 0.05469,0.03125 0.02681,0.0076 0.0752,0.02129 0.103515,0.0293 -0.02273,-0.01358 -0.03507,-0.02228 -0.05664,-0.03516 -0.03396,-0.0082 -0.0676,-0.01715 -0.101563,-0.02539 z m 1.4375,0.0059 c 0.0262,0.01153 0.05194,0.02363 0.07813,0.03516 0.002,-0.0072 0.005,-0.01435 0.008,-0.02148 -0.02748,-0.0046 -0.05691,-0.0089 -0.08594,-0.01367 z m -0.794922,0.0332 c 0.03402,0.01284 0.03944,0.01787 -0.01172,0.0098 -0.0091,-0.0015 -0.01824,-0.0043 -0.02734,-0.0059 0.06058,0.02981 0.123015,0.06014 0.183594,0.08984 0.0014,3.28e-4 0.0025,0.0016 0.0039,0.002 0.01462,0.0063 0.02975,0.01198 0.04492,0.01758 0.002,5.07e-4 0.0039,0.0014 0.0059,0.002 -0.05341,-0.03641 -0.107185,-0.07417 -0.162109,-0.111328 -0.005,-5.05e-4 -0.0109,-0.0014 -0.01563,-0.002 -0.0071,-8.96e-4 -0.01435,-0.0011 -0.02148,-0.002 z m 0.431641,0.0039 c -0.02623,5.06e-4 -0.05155,0.0013 -0.07813,0.002 0.07811,0.0478 0.156759,0.094 0.234375,0.142578 0.01093,0.0068 0.0227,0.01507 0.03516,0.02148 0.06227,-0.01751 0.11212,-0.05352 0.140625,-0.117187 0.0032,-0.0071 0.004,-0.01319 0.0059,-0.01953 -0.03672,-0.02409 -0.132519,-0.02934 -0.246094,-0.0293 0.0098,0.0072 0.01954,0.01424 0.0293,0.02148 0.0076,0.0055 0.02561,0.01886 0.03125,0.02344 -0.03318,-0.0096 -0.06632,-0.01944 -0.09961,-0.0293 0.02268,0.02475 0.04514,0.0503 0.06836,0.07422 0.0091,0.0093 -0.02067,-0.01569 -0.03125,-0.02344 -0.02942,-0.02186 -0.05842,-0.04461 -0.08789,-0.06641 z m 0.337891,0.0293 c 0.02404,0.01578 0.02373,0.03943 -0.01367,0.07422 -0.03707,0.03447 -0.07924,0.05418 -0.125,0.06445 0.04972,0.02485 0.109222,0.04718 0.167969,0.07031 0.01887,-0.0634 0.03854,-0.1258 0.05859,-0.1875 -0.02799,-0.01236 -0.05599,-0.02476 -0.08398,-0.03711 -6.63e-4,0.0047 -0.0024,0.01053 -0.0039,0.01562 z m -0.146485,0.136719 c -0.02237,0.0063 -0.04694,0.0095 -0.07227,0.01172 0.02654,-2.33e-4 0.05344,-0.0044 0.07813,-0.0098 -0.0018,-9.27e-4 -0.004,-9.06e-4 -0.0059,-0.002 z m -0.36914,-0.162109 c -0.03874,6.96e-4 -0.07655,0.0024 -0.111328,0.002 0.07146,0.04849 0.141369,0.09476 0.210937,0.142578 0.06206,0.01453 0.122546,0.0278 0.179687,0.0293 -0.09313,-0.05814 -0.185463,-0.116806 -0.279296,-0.173828 z m -0.835938,0.05859 c 0.0032,0.0033 0.0066,0.0065 0.0098,0.0098 0.0033,-4.8e-5 0.0065,4.7e-5 0.0098,0 -0.0064,-0.0035 -0.0131,-0.0064 -0.01953,-0.0098 z m 0.136719,0.07422 c -0.02669,6.6e-4 -0.05339,0.0013 -0.08008,0.002 0.01273,0.02541 0.0257,0.05093 0.03906,0.07617 0.09866,0.01939 0.206099,0.04151 0.296875,0.05859 -0.08576,-0.04485 -0.170736,-0.09059 -0.255859,-0.136719 z m -0.400391,0.0078 c 0.01951,0.0039 0.03534,0.0078 0.05469,0.01172 -0.0033,-0.0038 -0.0065,-0.0079 -0.0098,-0.01172 -0.01497,2.31e-4 -0.02995,-2.13e-4 -0.04492,0 z m -0.263672,0.002 c -0.122412,0.0014 -0.244797,0.0024 -0.367187,0.0039 0.04765,0.02113 0.0925,0.04804 0.134765,0.07813 0.02108,0.0011 0.07437,0.0032 0.08984,0.0039 0.05462,0.0025 0.0528,0.05715 -0.002,0.05469 -0.0032,-1.46e-4 -0.0065,1.46e-4 -0.0098,0 0.03537,0.03165 0.06805,0.06627 0.09961,0.103516 0.187413,-0.0082 0.36228,-0.01304 0.521484,-0.01367 -0.02101,-0.04085 -0.04293,-0.08169 -0.0625,-0.123047 -0.01003,-0.01069 -0.01941,-0.02232 -0.0293,-0.0332 -0.124852,-0.02556 -0.250092,-0.04886 -0.375,-0.07422 z m 1.107422,0.002 c 0.0069,0.004 0.0067,0.0058 0.01367,0.0098 0.0013,3.62e-4 0.0026,-3.64e-4 0.0039,0 -0.006,-0.0029 -0.01155,-0.0069 -0.01758,-0.0098 z m -2.003906,0.0098 c -0.216784,0.0058 -0.433607,0.01185 -0.650391,0.01758 0.01438,0.0019 0.02858,0.0037 0.04297,0.0059 0.156778,-1.64e-4 0.344383,0.009 0.525391,0.01563 0.03098,-0.01507 0.06262,-0.02593 0.09375,-0.03906 -0.0039,6.7e-5 -0.0078,-6.8e-5 -0.01172,0 z m -0.607422,0.02344 c -0.01415,1.5e-5 -0.0235,0.0018 -0.03711,0.002 0.01255,0.0169 0.02474,0.03531 0.03711,0.05273 0.111928,0.01821 0.22379,0.03612 0.335938,0.05273 0.03065,-0.01453 0.06119,-0.02753 0.0918,-0.04297 -0.0072,-3.23e-4 -0.01432,-0.0016 -0.02148,-0.002 -0.135958,-0.01814 -0.270482,-0.04235 -0.40625,-0.0625 z m 3.041016,-0.0059 c 0.07021,0.01729 0.140476,0.03484 0.207031,0.05664 -0.02739,-0.01237 -0.05373,-0.02502 -0.07617,-0.03906 -0.0077,-0.0048 -0.01576,-0.0089 -0.02344,-0.01367 -0.03414,0.0019 -0.06988,-9.82e-4 -0.107422,-0.0039 z m -3.363282,0.0078 c -0.106108,0.0028 -0.212232,0.0053 -0.318359,0.0078 v 0.179687 0.207032 c 0.186597,-0.02344 0.370813,-0.04864 0.558594,-0.06836 -0.01285,-0.01979 -0.02775,-0.03894 -0.04102,-0.05859 -0.169996,-0.02685 -0.361341,-0.05192 -0.507812,-0.07813 0.160893,0.01311 0.321651,0.02723 0.482422,0.04102 -0.04037,-0.05838 -0.08235,-0.116496 -0.126953,-0.173828 -0.06534,-0.01797 -0.118073,-0.03706 -0.07617,-0.04297 0.01053,-0.0015 0.02659,-0.001 0.03906,-0.002 -0.0032,-0.004 -0.0066,-0.0078 -0.0098,-0.01172 z m 3.363282,0.01563 c 0.04563,0.03154 0.0911,0.06574 0.136718,0.09766 0.03115,0.01518 0.06246,0.02969 0.09375,0.04492 0.03393,0.0099 0.06761,0.02112 0.101563,0.03125 0.0073,-0.02601 0.01402,-0.05241 0.02148,-0.07812 -0.0071,-0.0039 -0.01417,-0.008 -0.02148,-0.01172 0.0079,0.0031 0.01563,0.0066 0.02344,0.0098 9.15e-4,-0.0032 9.08e-4,-0.0066 0.002,-0.0098 -0.03946,-0.01665 -0.08025,-0.03022 -0.123047,-0.04102 h -0.002 c -0.002,-4.89e-4 -0.0039,-0.0015 -0.0059,-0.002 -0.07321,-0.01796 -0.14971,-0.02978 -0.226562,-0.04102 z m -0.88086,0.07617 c 0.01943,0.03564 0.03696,0.07205 0.05664,0.107422 0.157262,0.0042 0.313586,0.01246 0.470703,0.02344 -0.02915,-0.01463 -0.05879,-0.02828 -0.08789,-0.04297 -0.147074,-0.02605 -0.292939,-0.05877 -0.439454,-0.08789 z m -1.21875,0.02148 c -0.0745,1.22e-4 -0.148462,0.02027 -0.222656,0.04883 0.145829,0.02041 0.291671,0.04184 0.4375,0.0625 0.015,-8.76e-4 0.03199,-0.0031 0.04687,-0.0039 -0.05467,-0.04925 -0.113372,-0.08281 -0.177734,-0.09766 -0.02843,-0.0066 -0.05572,-0.0098 -0.08398,-0.0098 z m -0.898437,0.002 c 0.02729,0.04036 0.05566,0.07673 0.08203,0.11914 0.02093,-0.02249 0.04201,-0.04358 0.0625,-0.06641 0.01703,-0.0056 0.03382,-0.01482 0.05078,-0.02148 -0.06513,-0.0098 -0.130293,-0.02084 -0.195312,-0.03125 z m 2.914062,0.01563 c 0.02612,0.01823 0.05208,0.03634 0.07813,0.05469 0.0058,0.004 0.01181,0.0077 0.01758,0.01172 0.04303,0.0066 0.08953,0.01485 0.146485,0.02344 -0.02079,-0.0093 -0.04059,-0.01898 -0.05859,-0.02539 -0.04665,-0.01662 -0.09282,-0.03412 -0.138672,-0.05273 -0.0149,-0.0039 -0.03005,-0.0078 -0.04492,-0.01172 z m -2.335937,0.07422 c -0.0519,0.02331 -0.104574,0.04675 -0.15625,0.06836 0.147971,-0.0128 0.28577,-0.0215 0.427734,-0.03125 -0.09058,-0.01258 -0.180918,-0.02437 -0.271484,-0.03711 z m 1.390625,0.208984 c -0.130601,1.19e-4 -0.269913,0.005 -0.414063,0.0098 0.0074,0.01299 0.01244,0.02778 0.01953,0.04102 0.109257,0.01689 0.219086,0.03078 0.328125,0.04883 0.09687,0.01603 0.132345,0.0243 0.21875,0.03906 -0.02532,-0.04536 -0.049,-0.09132 -0.07422,-0.136719 -0.0013,-1.3e-5 -0.0026,2e-5 -0.0039,0 -0.02474,-3.76e-4 -0.04947,-0.002 -0.07422,-0.002 z m 0.650391,0.0293 c 0.206991,0.03012 0.414525,0.05676 0.621093,0.08984 0.003,-0.01267 0.0067,-0.0246 0.0098,-0.03711 -0.210113,-0.02006 -0.420459,-0.03822 -0.630859,-0.05273 z m -1.578126,0.0078 c -0.258962,0.01573 -0.525718,0.03444 -0.800781,0.06055 0.05805,0.107575 0.108585,0.218195 0.16211,0.328125 0.373058,0.01848 0.74612,0.03705 1.11914,0.05664 -10e-4,-0.0031 -9.39e-4,-0.0066 -0.002,-0.0098 -0.13552,-0.01022 -0.262902,-0.01902 -0.410156,-0.0293 -0.01266,-0.01888 -0.05979,-0.05563 -0.03711,-0.05664 0.01536,-6.84e-4 0.02792,-0.0013 0.04297,-0.002 3.45e-4,-0.0013 -2.98e-4,-0.0025 0,-0.0039 -0.02304,-0.0185 0.01148,-0.02887 0.07422,-0.03516 -0.01207,-0.0011 -0.02968,-0.0028 -0.04102,-0.0039 -0.08,-0.0076 -0.01843,-0.006 0.07813,0 0.06891,-0.0047 0.151821,-0.0063 0.242188,-0.0078 -0.03367,-0.08978 -0.07126,-0.174685 -0.113281,-0.253906 -0.113168,-0.01545 -0.171934,-0.02335 -0.314454,-0.04297 z m 0.185547,0.304688 c -0.01267,8.62e-4 -0.02611,0.0028 -0.03711,0.0039 0.08178,0.0074 0.182835,0.01534 0.292969,0.02344 -0.0012,-0.0033 -0.0027,-0.0065 -0.0039,-0.0098 -0.08791,-0.0059 -0.179991,-0.01312 -0.251953,-0.01758 z m -0.111328,0.03906 c 0.0016,0.0013 0.0037,0.0026 0.0059,0.0039 0.07432,-0.0032 0.145819,-0.0053 0.21289,-0.0078 -0.07006,-0.0024 -0.137675,-0.0058 -0.210937,-0.0078 -0.0052,-1.5e-4 -0.0065,0.0056 -0.0078,0.01172 z m 0.0059,0.0039 c -0.002,8.5e-5 -0.0038,-8.9e-5 -0.0059,0 -4.02e-4,0.0015 -0.0014,0.0027 -0.002,0.0039 0.0083,5.79e-4 0.0094,0.0014 0.01758,0.002 -0.0034,-0.0017 -0.0072,-0.0042 -0.0098,-0.0059 z m 1.195312,-0.341797 c 0.02736,0.04838 0.05156,0.0978 0.07813,0.146484 0.275338,0.04916 0.585227,0.101695 0.796875,0.144531 0.01116,-0.05238 0.02332,-0.104845 0.03516,-0.15625 -0.303608,-0.04339 -0.606855,-0.08923 -0.910156,-0.134765 z m -0.712891,0.07031 c 0.03405,0.06924 0.06835,0.138191 0.0957,0.210938 0.01896,-0.0013 0.05119,-1.52e-4 0.06641,-0.002 0.108622,0.0032 0.313993,0.0095 0.460937,0.01367 -0.02386,-0.04495 -0.04755,-0.09011 -0.07227,-0.134765 -0.09787,-0.01669 -0.148849,-0.02852 -0.259766,-0.04687 -0.03037,-0.005 -0.216085,-0.03056 -0.291016,-0.04102 z m -1.83789,0.0332 c -0.151858,0.01697 -0.298722,0.03951 -0.449219,0.05859 v 0.173828 c 0.0681,0.0011 0.138224,0.0047 0.21875,0.0078 0.07582,-0.08086 0.151979,-0.161504 0.230469,-0.240235 z m 0.271484,0.03711 c -0.07153,0.07089 -0.140134,0.143481 -0.210937,0.214843 0.109419,0.0044 0.218742,0.01058 0.328125,0.01563 -0.03875,-0.07677 -0.07517,-0.154923 -0.117188,-0.230468 z m 2.388672,0.06445 c 0.01699,0.0319 0.03453,0.06354 0.05078,0.0957 0.200979,0.0057 0.348004,0.0088 0.572266,0.01563 -0.166484,-0.03248 -0.415532,-0.07462 -0.623047,-0.111328 z m -0.498047,0.15039 c 0.123792,0.0079 0.226799,0.0144 0.34375,0.02148 -0.0013,-0.0026 -0.0026,-0.0052 -0.0039,-0.0078 -0.113303,-0.0053 -0.222421,-0.0084 -0.339844,-0.01367 z m -2.611328,0.01563 v 0.0332 c 0.05,4.8e-5 0.102931,-1.63e-4 0.160156,0 0.0019,-0.002 0.004,-0.0038 0.0059,-0.0059 -0.05545,-0.0086 -0.11076,-0.01785 -0.166016,-0.02734 z m 3.203125,0.0098 c 0.0016,0.0034 0.0042,0.0064 0.0059,0.0098 0.21084,0.01246 0.432938,0.02677 0.638671,0.03906 0.0014,-0.0071 0.0025,-0.0144 0.0039,-0.02148 -0.219123,-0.0068 -0.434891,-0.01771 -0.648438,-0.02734 z m -2.746094,0.02734 c -0.0055,0.0056 -0.01214,0.01 -0.01758,0.01563 0.143222,0.0031 0.286446,0.0064 0.429688,0.0098 -0.0013,-0.0026 -0.0026,-0.0052 -0.0039,-0.0078 -0.127514,-0.006 -0.255004,-0.01254 -0.382813,-0.01758 -0.0059,-2.32e-4 -0.01887,1.98e-4 -0.02539,0 z m -0.457031,0.0039 v 0.177734 c 0.04752,-0.0594 0.09729,-0.117181 0.148438,-0.173828 -0.04948,-0.0014 -0.09897,-0.0021 -0.148438,-0.0039 z m 0.435547,0.01758 c -0.145207,0.150314 -0.285126,0.305403 -0.398438,0.480469 -0.0089,0.01383 -0.01659,0.02727 -0.02539,0.04102 0.01987,0.002 0.04092,0.0039 0.06055,0.0059 0.07096,-0.02121 0.142606,-0.03836 0.214843,-0.04883 0.07198,-0.07827 0.154332,-0.142578 0.25,-0.181641 0.135564,-0.05535 0.280125,-0.08794 0.427735,-0.101562 -0.02488,-0.05406 -0.05424,-0.105084 -0.08008,-0.158203 -0.14991,-0.01107 -0.299876,-0.02076 -0.449219,-0.03711 z m 0.677734,0.0078 c 3.77e-4,7.86e-4 0.0016,0.0012 0.002,0.002 0.04102,0.0012 0.08204,0.0026 0.123046,0.0039 -0.04171,-0.0022 -0.08333,-0.0038 -0.125,-0.0059 z m 1.324219,0.0098 c 3.66e-4,0.0012 -3.64e-4,0.0027 0,0.0039 0.04949,0.0025 0.09895,0.0054 0.148438,0.0078 -0.04694,-0.0034 -0.10088,-0.0082 -0.148438,-0.01172 z m -1.298828,0.04102 c 0.02068,0.04377 0.04463,0.08738 0.06445,0.130859 0.386427,0.01377 0.78454,0.138432 1.128906,0.306641 -0.02342,-0.114217 -0.05655,-0.247462 -0.0957,-0.382813 -0.325297,-0.01138 -0.651671,-0.02428 -0.976562,-0.04492 -0.04039,-0.0026 -0.08069,-0.0071 -0.121094,-0.0098 z m 1.332031,0.06445 c 0.051,0.183481 0.0856,0.360099 0.109375,0.503906 0.07591,0.04514 0.14634,0.09319 0.212891,0.140625 0.115636,0.08241 0.219442,0.179461 0.316406,0.283203 0.06452,0.04615 0.122567,0.0987 0.171875,0.15625 -0.01686,-0.240223 -0.05296,-0.477969 -0.107422,-0.705078 -0.02994,-0.124854 -0.07581,-0.24394 -0.126953,-0.361328 -0.192281,-0.006 -0.38391,-0.01142 -0.576172,-0.01758 z m 0.81836,0.02539 c 0.03324,0.08498 0.06184,0.170812 0.08398,0.259765 0.0885,0.355493 0.135687,0.732122 0.134766,1.111328 0.02888,0.03436 0.05827,0.06804 0.08789,0.101563 0.01881,0.0011 0.02843,8.6e-4 0.04687,0.002 0.04157,-0.506544 0.09456,-0.987307 0.167969,-1.427734 0.0019,-0.01057 0.0039,-0.02072 0.0059,-0.03125 -0.07812,-0.002 -0.156309,-0.0038 -0.234375,-0.0059 -0.09776,-0.0038 -0.195196,-0.0065 -0.292968,-0.0098 z M 96.927734,26.25 c -0.12243,0.0026 -0.240551,0.01882 -0.347656,0.05469 -0.01773,0.0059 -0.03577,0.01361 -0.05273,0.02148 0.158593,0.01061 0.317716,0.0423 0.472656,0.08594 -0.02367,-0.05404 -0.04859,-0.108753 -0.07227,-0.162109 z m 0.248047,0.01367 c 0.03907,0.08827 0.0717,0.161004 0.107422,0.242187 0.0065,0.0025 0.01305,0.0052 0.01953,0.0078 0.174791,0.0032 0.356755,0.01367 0.546875,0.0332 0.09449,0.0097 0.221063,0.02846 0.361329,0.05859 C 97.906685,26.446291 97.53169,26.306754 97.17578,26.26365 Z m -1.248047,0.34375 c -0.0175,0.0065 -0.03344,0.01793 -0.05078,0.02539 v 0.06836 c 0.02202,-0.0064 0.04431,-0.01337 0.06641,-0.01953 0.0108,-0.02312 0.02317,-0.0454 0.03516,-0.06836 -0.01751,-0.0018 -0.03307,-0.0041 -0.05078,-0.0059 z m 1.191407,0.21289 c -0.240604,-0.0015 -0.480379,0.09772 -0.720703,0.134766 -0.05648,0.0424 -0.115601,0.08265 -0.173829,0.123047 0.341874,0.04845 0.711536,0.104271 1.076172,0.158203 -0.03894,-0.131101 -0.08063,-0.262339 -0.111328,-0.394531 -0.0027,-0.006 -0.0051,-0.01161 -0.0078,-0.01758 -0.02119,-0.0018 -0.04133,-0.0038 -0.0625,-0.0039 z m -0.94336,0.02539 c -0.02468,0.0056 -0.04965,0.01144 -0.07422,0.01758 -0.0057,0.01676 -0.01241,0.03336 -0.01758,0.05078 0.03084,-0.02309 0.05844,-0.04317 0.0918,-0.06836 z m 1.25586,0.05664 c 0.035,0.123398 0.07434,0.245746 0.109375,0.36914 0.07614,0.01134 0.152823,0.02156 0.230468,0.0332 -0.08021,-0.165168 -0.191084,-0.314475 -0.339843,-0.402344 z m 1.082031,0.01172 c 7.62e-4,0.0078 0.0012,0.01561 0.002,0.02344 0.110147,0.04933 0.221892,0.101335 0.339844,0.162109 0.0091,0.0047 0.0182,0.01087 0.02734,0.01563 -0.01105,-0.01232 -0.02197,-0.02499 -0.0332,-0.03711 -0.09917,-0.0648 -0.212753,-0.119681 -0.335937,-0.164063 z m -0.53711,0.04688 c 0.01545,0.01171 0.03116,0.02197 0.04688,0.0332 0.05263,0.126019 0.150562,0.243664 0.175781,0.375 0.04246,0.0064 0.07811,0.01105 0.121093,0.01758 -0.003,-0.102593 -0.0086,-0.20311 -0.01562,-0.302735 -0.112535,-0.04721 -0.221223,-0.08636 -0.328126,-0.123046 z m 0.558594,0.226562 c 0.0043,0.07756 0.0061,0.154911 0.0078,0.234375 0.0043,2.98e-4 0.0094,0.0017 0.01367,0.002 0.178435,0.01237 0.337919,0.02306 0.49414,0.0332 -0.09731,-0.05818 -0.189448,-0.107809 -0.267578,-0.148437 -0.08496,-0.04418 -0.167352,-0.08318 -0.248047,-0.121094 z m -2.53125,0.255859 c -0.0077,0.136619 -0.0073,0.277292 -0.0039,0.417969 0.293636,0.05197 0.641875,0.112799 0.925781,0.16211 0.162183,-0.01103 0.324571,-0.02077 0.486328,-0.0293 0.0051,-0.05809 0.0079,-0.116259 0.0059,-0.173829 -0.0031,-0.08838 -0.01774,-0.175236 -0.03516,-0.261718 -0.531664,-0.04105 -0.999941,-0.07895 -1.378906,-0.115235 z m 1.607422,0.132813 c 0.01058,0.06398 0.01881,0.128289 0.02148,0.193359 0.0029,0.0712 0.0017,0.142853 -0.0039,0.214844 0,0 0.002,0 0.002,0 0.06493,-0.06003 0.127573,-0.121286 0.183594,-0.189453 0.02859,-0.03479 0.0617,-0.06955 0.0918,-0.105469 -0.0075,-0.03001 -0.01616,-0.06237 -0.02539,-0.09375 -0.03369,-0.0025 -0.05937,-0.0033 -0.09375,-0.0059 -0.06661,-0.005 -0.111754,-0.0088 -0.175781,-0.01367 z m 0.556641,0.04102 c -0.01061,0.02695 -0.02368,0.0539 -0.03711,0.08008 0.0048,0.02042 0.0094,0.04044 0.01367,0.06055 0.01386,0.06493 0.02587,0.134299 0.03711,0.205079 0.04497,-0.0012 0.08997,-9.73e-4 0.134765,-0.002 0.0051,-0.111242 0.0075,-0.221882 0.0078,-0.332032 -0.05102,-0.0036 -0.10344,-0.0079 -0.15625,-0.01172 z m 0.376953,0.0293 c -7.68e-4,0.102794 -0.0049,0.206633 -0.0098,0.310547 0.149528,-0.0021 0.296631,-0.0045 0.44336,-0.0039 0.05227,-0.0674 0.09602,-0.140033 0.123046,-0.21875 -0.184889,-0.02929 -0.370484,-0.05899 -0.55664,-0.08789 z m 0.820312,0.128907 c -0.0058,0.06133 -0.01292,0.122649 -0.02148,0.183593 0.0171,3.41e-4 0.03373,-3.79e-4 0.05078,0 0.0013,3e-5 0.0026,-2.9e-5 0.0039,0 0.0235,-0.0036 0.04828,-0.0077 0.07227,-0.01172 -0.02378,-0.05534 -0.04577,-0.110171 -0.06641,-0.166016 -0.01288,-0.0021 -0.02617,-0.0038 -0.03906,-0.0059 z m -1.404296,0.191406 c -0.0012,0.0014 -0.0027,0.0025 -0.0039,0.0039 0.0013,-4.5e-5 0.0026,4.5e-5 0.0039,0 -1.95e-4,-0.0013 1.94e-4,-0.0026 0,-0.0039 z m 1.447265,0.214844 c -0.0352,0.0045 -0.07036,0.0097 -0.105469,0.01367 -0.01037,0.05088 -0.02076,0.102022 -0.0332,0.152344 0.06901,-0.01395 0.132031,-0.02512 0.197266,-0.03711 0.002,-0.04277 0.0037,-0.08459 0.0059,-0.126953 -0.02149,-4.83e-4 -0.04296,-0.0015 -0.06445,-0.002 z m -0.332031,0.03516 c -0.03101,0.0026 -0.06261,0.0055 -0.09375,0.0078 -0.03402,0.04491 -0.06806,0.09103 -0.09961,0.136719 0.04498,0.0077 0.105941,0.01745 0.152344,0.02539 0.01557,-0.05621 0.02826,-0.112881 0.04102,-0.169922 z m -0.357422,0.02344 c -0.0653,0.0032 -0.134235,0.0054 -0.201172,0.0078 -0.0014,0.01631 -0.0044,0.03253 -0.0059,0.04883 0.03808,0.0065 0.09956,0.01675 0.138672,0.02344 0.02169,-0.02737 0.04462,-0.05362 0.06836,-0.08008 z m -0.423828,0.01563 c -0.0066,1.8e-4 -0.01288,0.0018 -0.01953,0.002 0.0051,8.69e-4 0.01444,0.0011 0.01953,0.002 1.12e-4,-0.0013 -1.11e-4,-0.0026 0,-0.0039 z m -1.546875,0.002 c -0.01234,8.01e-4 -0.02477,0.0011 -0.03711,0.002 -0.232503,0.01522 -0.462482,0.03385 -0.691407,0.05469 0.0018,0.02576 0.004,0.05297 0.0059,0.07813 0.02016,0.0047 0.04039,0.0089 0.06055,0.01367 0.345569,0.04576 0.692934,0.07374 1.041015,0.0957 -0.0119,-0.04434 0.0087,-0.105063 0.07813,-0.158203 0.01955,-0.01497 0.03185,-0.02415 0.04883,-0.03711 -0.03208,-0.0055 -0.06792,-0.0121 -0.09961,-0.01758 -0.0069,2.9e-4 -0.0126,-2.95e-4 -0.01953,0 -0.132115,-0.01174 -0.258614,-0.02073 -0.386719,-0.03125 z m 0.810547,0.09961 c -0.01719,0.05659 -0.03722,0.112171 -0.06055,0.166016 0.180017,0.0098 0.355364,0.01859 0.525391,0.02539 -0.0024,-0.03733 -0.0069,-0.07456 -0.0098,-0.111328 -0.170292,-0.02917 -0.301114,-0.0536 -0.455078,-0.08008 z m 0.68164,0.117187 c 0.002,0.02718 0.0022,0.05452 0.0039,0.08203 0.0066,2.21e-4 0.01291,0.0017 0.01953,0.002 0.0033,-0.02591 0.0067,-0.05212 0.0098,-0.07813 -0.0088,-0.0015 -0.02447,-0.0044 -0.0332,-0.0059 z M 96.042969,28.625 c 0.0031,0.04076 0.0052,0.07582 0.0078,0.113281 0.08301,0.04183 0.178524,0.07966 0.289063,0.113281 0.191472,0.05824 0.410471,0.05506 0.595703,-0.02344 C 96.63812,28.760947 96.339829,28.694587 96.042969,28.625 Z m 2.410156,0.152344 c 0,0 0,0.002 0,0.002 -0.0035,0.02239 -0.008,0.04415 -0.01172,0.06641 0.13052,-0.0027 0.278472,-0.005 0.429688,-0.0078 0.0079,-0.01781 0.01779,-0.03477 0.02539,-0.05273 -0.144402,-0.0011 -0.292187,-0.0048 -0.441406,-0.0078 0,0 -0.002,0 -0.002,0 z m 0.994141,0.0059 c -0.104298,0.0012 -0.206309,0.0022 -0.31836,0.002 -0.0061,0.0156 -0.01121,0.03138 -0.01758,0.04687 0.01267,-2.34e-4 0.02039,2.37e-4 0.0332,0 0.100305,-0.0019 0.200536,-0.0014 0.300781,-0.002 4.04e-4,-0.01532 0.0015,-0.03161 0.002,-0.04687 z m -3.371094,0.205078 c 8.38e-4,0.0065 0.0011,0.01305 0.002,0.01953 0.01231,-0.0019 0.02501,-0.004 0.03711,-0.0059 -0.01316,-0.0048 -0.02633,-0.0087 -0.03906,-0.01367 z m 3.078125,0.06445 c -0.05569,10e-4 -0.09151,9.87e-4 -0.144531,0.002 0,0 0,0.002 0,0.002 0.04484,0.0095 0.08992,0.01785 0.134765,0.02734 0.02468,-0.01057 0.05036,-0.02022 0.07422,-0.03125 -0.02147,3.54e-4 -0.04299,-3.87e-4 -0.06445,0 z m -1.425781,0.0332 c -0.404479,0.01253 -0.696281,0.02621 -0.964844,0.05273 -0.216293,0.05217 -0.432531,0.106306 -0.648438,0.160156 0.01521,0.123594 0.03066,0.247656 0.04687,0.371094 0.237179,-0.01382 0.4671,-0.04177 0.722657,-0.07617 0.223975,-0.119651 0.449555,-0.253591 0.683593,-0.400391 0.05416,-0.03397 0.108055,-0.07053 0.160157,-0.107421 z m 0.3125,0.03906 c -0.107922,0.08524 -0.217909,0.16636 -0.333985,0.240234 -0.07881,0.05016 -0.156729,0.09916 -0.234375,0.146485 0.145121,-0.02063 0.299924,-0.04311 0.47461,-0.06641 0.01982,-0.0059 0.05585,-0.0149 0.08984,-0.02344 0.0022,-0.09886 0.0044,-0.197907 0.0039,-0.296875 z m 0.341796,0.02344 c -0.01487,0.06773 -0.02992,0.133774 -0.04687,0.199218 0.09458,-0.0244 0.19648,-0.05182 0.304687,-0.08398 0.01108,-0.01662 0.0225,-0.03395 0.0332,-0.05078 -0.04892,-0.01052 -0.08269,-0.0185 -0.132812,-0.0293 -0.05288,-0.01139 -0.105331,-0.02373 -0.158204,-0.03516 z m 0.771485,0.166015 c -0.125022,0.0523 -0.255013,0.09769 -0.382813,0.136719 -0.154314,0.214801 -0.34046,0.407697 -0.542968,0.582031 0,0 0,0.002 0,0.002 -0.01936,0.250716 -0.04557,0.48387 -0.07813,0.685547 -0.06731,0.417016 -0.222602,0.815196 -0.333985,1.222656 -0.0058,0.0084 -0.01191,0.01683 -0.01758,0.02539 0.275447,-0.252879 0.520888,-0.512828 0.710938,-0.746094 0.371666,-0.456179 0.714716,-0.968148 0.925781,-1.52539 -5.1e-5,-0.02269 -0.002,-0.04363 -0.002,-0.06641 0,-0.08814 0.0032,-0.169181 0.0039,-0.255859 -0.09312,-0.02006 -0.187783,-0.04014 -0.283203,-0.06055 z m -3.253906,0.03906 c -0.0078,0.0019 -0.01562,0.0039 -0.02344,0.0059 v 0.318359 c 0.02071,-3.84e-4 0.04608,5.39e-4 0.06641,0 -0.01181,-0.09119 -0.0292,-0.21714 -0.04297,-0.324218 z m 2.521484,0.195312 c -0.05382,0.01396 -0.105063,0.02641 -0.154297,0.03906 -0.0052,0.01639 -0.0103,0.03265 -0.01563,0.04883 -0.0013,0.03005 -0.0024,0.06004 -0.0039,0.08984 0.05977,-0.0579 0.119133,-0.11549 0.173828,-0.177734 z m -0.410156,0.109375 c -0.437727,0.05922 -0.76615,0.108132 -1.058594,0.148438 -0.238398,0.125346 -0.478008,0.234234 -0.722656,0.324218 0.0041,0.02471 0.0074,0.04954 0.01172,0.07422 0.03075,0.176472 0.07132,0.371968 0.117187,0.574219 0.381494,-0.09666 0.765225,-0.252243 1.226563,-0.539063 0.0778,-0.04837 0.15317,-0.100693 0.228515,-0.154296 0.07671,-0.13808 0.146419,-0.279126 0.199219,-0.427735 0,0 -0.002,0 -0.002,0 z m -1.746094,0.224609 c -0.02418,0.0017 -0.04787,0.0044 -0.07227,0.0059 0.001,0.0071 9.18e-4,0.01438 0.002,0.02148 0.02327,-0.0089 0.04714,-0.01812 0.07031,-0.02734 z m -0.388672,0.01367 v 0.121094 c 0.03631,-0.01084 0.07345,-0.01948 0.109375,-0.03125 -0.0043,-0.03019 -0.0094,-0.05873 -0.01367,-0.08984 -0.02939,8.47e-4 -0.06551,-5.22e-4 -0.0957,0 z m 0.142578,0.308594 c -0.04694,0.01487 -0.09499,0.02766 -0.142578,0.04102 v 0.623047 c 0.08854,-0.01341 0.179429,-0.02378 0.265625,-0.04102 -0.05428,-0.235809 -0.09202,-0.433205 -0.123047,-0.623047 z m 3.423828,0.0098 c -0.202404,0.397319 -0.462745,0.770227 -0.746093,1.123047 -0.576027,0.717258 -1.655389,1.691719 -2.609375,1.941406 -0.06932,0.01814 -0.140194,0.02608 -0.210938,0.0293 v 4.646484 c 0.01829,-0.0082 0.03577,-0.01818 0.05078,-0.03125 3.78e-4,-0.0138 0.02905,-0.03724 0.0332,-0.04102 0.02828,-0.01832 0.02943,-0.01791 0.0293,-0.01758 0.0033,-0.0017 0.01162,-0.0077 0.02539,-0.01563 0.0087,-0.0049 0.01865,-0.01071 0.02734,-0.01563 0.02237,-0.01285 0.04455,-0.02338 0.06836,-0.0332 0.01946,-0.0055 0.0276,-0.0082 0.04687,-0.0098 0.02665,-0.0021 0.01046,0.0044 0.04297,-0.002 0.02026,-0.004 0.06887,-0.02048 0.08398,-0.02539 0.06081,-0.02584 0.04026,-0.01547 0.08984,-0.04102 0.022,-0.01134 0.02672,-0.01702 0.05469,-0.01758 0.02334,-4.67e-4 0.02614,0.0023 0.02734,0.0039 9.78e-4,-3.1e-4 0.0045,-0.0014 0.0098,-0.0039 0.0057,-0.0015 0.01229,-0.0011 0.01758,-0.0039 0.0098,-0.0051 0.01827,-0.0136 0.02734,-0.01953 0.03114,-0.0199 0.06471,-0.03668 0.0957,-0.05664 0.02358,-0.01515 0.06168,-0.04433 0.08398,-0.06055 0.02699,-0.01762 0.06698,-0.04377 0.0957,-0.06055 0.01096,-0.0064 0.02224,-0.01134 0.0332,-0.01758 0.03288,-0.01837 0.04928,-0.02909 0.08594,-0.04492 0.0212,-0.0091 0.04291,-0.01742 0.06445,-0.02539 0.07204,-0.02709 0.142995,-0.05452 0.214844,-0.08203 0.02963,-0.01134 0.06036,-0.0213 0.08984,-0.0332 0.02646,-0.01073 0.05205,-0.02404 0.07813,-0.03516 0.0254,-0.01077 0.05085,-0.02067 0.07617,-0.03125 0.05654,-0.02873 0.0543,-0.02678 0.05078,-0.02539 0.0046,-0.0031 0.01785,-0.01281 0.04297,-0.02734 0.0456,-0.02636 0.0473,-0.02655 0.04687,-0.02539 0.0039,-0.0018 0.01485,-0.0073 0.0332,-0.01758 0.02721,-0.01526 0.05324,-0.03075 0.08008,-0.04687 0.0788,-0.03553 0.144695,-0.09125 0.214844,-0.140625 0.03859,-0.02719 0.04493,-0.03052 0.08008,-0.05273 0.01504,-0.0082 0.03056,-0.01407 0.04492,-0.02344 0.01791,-0.01168 0.03377,-0.02652 0.05078,-0.03906 0.05934,-0.04342 0.118701,-0.08628 0.183593,-0.121094 0.01134,-0.0062 0.02344,-0.01011 0.03516,-0.01563 0.0087,-0.002 0.0167,-0.0039 0.02539,-0.0059 0.0079,8.8e-5 0.01745,0.0018 0.02539,0 0.0053,-0.0012 0.0088,-0.0072 0.01367,-0.0098 0.01776,-0.0096 0.03497,-0.01797 0.05273,-0.02734 0.09914,-0.05274 0.05121,-0.02687 0.144532,-0.07617 0.01565,-0.01047 0.05645,-0.03584 0.07422,-0.05273 0.02154,-0.02022 -0.0021,-0.01073 0.0293,-0.03125 0.03492,-0.02283 0.0402,-0.02059 0.08008,-0.03125 0.01058,-0.0034 0.02886,-0.0066 0.03906,-0.01367 0.0053,-0.0037 0.0088,-0.0095 0.01367,-0.01367 0.01614,-0.01337 0.0322,-0.02618 0.04883,-0.03906 0.07699,-0.06012 0.06588,-0.05171 0.144531,-0.103516 0.02305,-0.02604 0.06654,-0.02914 0.09375,-0.04883 0.0042,-0.0029 0.0063,-0.0063 0.0098,-0.0098 0.0053,-0.005 0.01032,-0.01071 0.01563,-0.01563 l 0.01758,-0.01758 c 0.05065,-0.03875 0.106309,-0.07056 0.152344,-0.115234 0.01561,-0.01507 0.02823,-0.0328 0.04297,-0.04883 0.03761,-0.0414 0.05243,-0.05506 0.08984,-0.0918 0.01172,-0.008 0.02306,-0.01622 0.03516,-0.02344 0.0098,-0.0058 0.02142,-0.01018 0.03125,-0.01563 0.0068,-0.0037 0.01115,-0.0077 0.01758,-0.01172 0.01723,-0.01059 0.05683,-0.03465 0.07422,-0.04297 0.01096,-0.0052 0.02382,-0.0093 0.03516,-0.01367 0.03424,-0.01282 0.06944,-0.02295 0.101563,-0.04102 0.0076,-0.0043 0.01393,-0.0096 0.02148,-0.01367 0.01342,-0.0072 0.02703,-0.01288 0.04102,-0.01953 0.0102,-0.0048 0.02142,-0.01055 0.03125,-0.01563 0.04282,-0.01404 0.08248,-0.03169 0.125,-0.04687 0.03443,-0.01259 0.06717,-0.03001 0.101556,-0.04297 0.0158,-0.006 0.0314,-0.01108 0.0469,-0.01758 0.0149,-0.0062 0.0615,-0.02876 0.0781,-0.03711 0.009,-0.0047 0.016,-0.01143 0.0254,-0.01563 0.0147,-0.0067 0.0325,-0.01021 0.0469,-0.01758 0.003,-0.0016 0.005,-0.0043 0.008,-0.0059 0.024,-0.01247 0.0309,-0.0144 0.0566,-0.02344 0.0168,-0.0073 0.0314,-0.01778 0.0469,-0.02734 0.008,-0.0052 0.019,-0.0098 0.0254,-0.01758 0.008,-0.0041 0.0159,-0.0066 0.0234,-0.01172 0.003,-0.0019 0.003,-0.0054 0.006,-0.0078 0.006,-0.0065 0.0147,-0.01149 0.0215,-0.01758 0.01,-0.0084 0.0196,-0.01683 0.0293,-0.02539 -0.33634,-0.647161 -0.589373,-1.405003 -0.748048,-2.289063 -0.143513,-0.87204 -0.222297,-1.853721 -0.244141,-2.93164 z m -1.453125,0.0098 c -0.0041,0.003 -0.0076,0.0068 -0.01172,0.0098 -0.127203,0.223993 -0.268195,0.443012 -0.388672,0.669922 -0.249971,0.236709 -0.458372,0.526032 -0.75,0.708984 -0.07117,0.04465 -0.148897,0.08565 -0.230469,0.119141 0.03531,0.117418 0.07139,0.231927 0.107422,0.33789 0.01875,0.05516 0.133212,0.574507 0.390625,0.457032 0.03244,-0.02269 0.06555,-0.04491 0.09766,-0.06836 0.17067,-0.154966 0.261165,-0.385538 0.396484,-0.574218 0.108926,-0.393334 0.262362,-0.776878 0.328126,-1.179688 0.02429,-0.148806 0.04368,-0.310919 0.06055,-0.480469 z M 97.5625,30.507812 c -0.422268,0.25082 -0.787093,0.393598 -1.154297,0.484376 0.04338,0.178962 0.09119,0.35813 0.140625,0.533203 0.04913,-0.02168 0.09469,-0.04546 0.138672,-0.07227 0.2738,-0.166857 0.471642,-0.436581 0.707031,-0.654297 0.05317,-0.09837 0.109605,-0.194936 0.167969,-0.291016 z m -1.369141,0.53125 c -0.102758,0.02035 -0.20991,0.03504 -0.316406,0.05078 v 0.541015 c 0.151292,0.01685 0.308683,0.0042 0.457031,-0.0332 -0.02135,-0.08419 -0.04276,-0.168228 -0.06445,-0.251953 -0.02916,-0.112566 -0.05279,-0.211176 -0.07617,-0.306641 z m 0.195313,0.765626 c -0.166971,0.0423 -0.341443,0.05524 -0.511719,0.03906 v 1.259766 c 0.03641,-0.0039 0.07337,-0.01037 0.109375,-0.01953 0.296105,-0.07532 0.603283,-0.22088 0.902344,-0.408203 -0.165119,-0.101952 -0.284023,-0.325932 -0.361328,-0.492187 -0.0568,-0.122136 -0.101236,-0.249186 -0.138672,-0.378906 z m -0.353516,6.24414 v 0.002 c -9.45e-4,6.05e-4 -0.0032,0.0016 -0.0039,0.002 v -0.002 c 6.77e-4,-5.52e-4 0.0029,-0.0011 0.0039,-0.002 z"
       clip-path="url(#clipPath8454)" />
    <path
       id="text2013"
       style="font-style:normal;font-weight:normal;font-size:10.5833px;line-height:1.25;font-family:sans-serif;fill:#ffffff;fill-opacity:1;stroke:#000000;stroke-width:0.065;stroke-miterlimit:4;stroke-dasharray:none;stroke-opacity:1"
       d="M 3.0325,2.0384334 V 10.079286 H 3.7197965 L 3.9109992,9.360984 h 0.062012 c 0.079237,0.110242 0.16881,0.215319 0.2687175,0.315226 0.1033526,0.09991 0.2204865,0.187758 0.3513997,0.26355 0.1343583,0.07235 0.284221,0.130914 0.449585,0.1757 0.1653641,0.04479 0.3496779,0.06718 0.5529379,0.06718 0.3238378,0 0.6183953,-0.06201 0.8836668,-0.186036 C 6.7445893,9.869136 6.9702445,9.681377 7.1562791,9.433331 7.3457589,9.185285 7.4921764,8.8786693 7.5955287,8.5134903 7.6988813,8.1448662 7.7505581,7.7176716 7.7505581,7.2319148 7.7505581,6.749603 7.6988813,6.3258535 7.5955287,5.9606745 7.4921764,5.5954955 7.3457589,5.2906027 7.1562791,5.0460017 6.9702445,4.7979556 6.7445893,4.6119192 6.4793178,4.4878963 6.2140463,4.3638731 5.9194888,4.3018611 5.595651,4.3018611 c -0.2067052,0 -0.3927414,0.022394 -0.5581055,0.067179 -0.165364,0.041341 -0.3152266,0.099908 -0.449585,0.1757 C 4.4570473,4.6205321 4.3416358,4.7101052 4.2417284,4.8134578 4.1418209,4.9168102 4.0522478,5.0287765 3.9730109,5.1493546 h -0.041341 c 0.00689,-0.1309132 0.01378,-0.2652729 0.020672,-0.4030763 0.00689,-0.1171329 0.012057,-0.2428796 0.015502,-0.3772379 0.00344,-0.1378035 0.00517,-0.2669953 0.00517,-0.3875733 V 2.0384334 Z m 2.3822834,3.0437419 c 0.4719765,0 0.8164883,0.1774235 1.0335287,0.532267 0.2204855,0.3548438 0.3307291,0.8905595 0.3307291,1.6071371 0,0.7027974 -0.1102436,1.2419581 -0.3307291,1.6174723 C 6.2312717,9.214566 5.890205,9.402325 5.4251186,9.402325 c -0.040097,0 -0.077062,-0.0032 -0.1152382,-0.0052 C 5.0823707,9.385712 4.8867897,9.34245 4.727487,9.262799 4.5414523,9.166337 4.3915897,9.026809 4.2779019,8.84422 4.1676593,8.6581854 4.0884214,8.4308075 4.0401902,8.1620911 3.9954042,7.8899293 3.9730109,7.5798689 3.9730109,7.2319154 c 0,-0.3617341 0.022394,-0.6769621 0.067179,-0.9456788 C 4.0884214,6.01752 4.1676593,5.7935875 4.2779019,5.6144429 4.3915897,5.4352985 4.5397296,5.3026616 4.7223191,5.2165344 4.8783185,5.1414237 5.0676422,5.09947 5.2866259,5.0873434 c 0.00306,-1.693e-4 0.00623,1.569e-4 0.0093,0 0.039264,-0.00201 0.077584,-0.00517 0.1188559,-0.00517 z M 5.3341684,9.39664 h 5.291e-4 z" />
    <path
       style="fill:none;stroke:#ffffff;stroke-width:0.0464746;stroke-linecap:square;stroke-linejoin:miter;stroke-miterlimit:4;stroke-dasharray:none;stroke-opacity:1;paint-order:markers stroke fill"
       d="m 5.7331485,4.2423565 c 0.811713,0.1154153 0,0 0,0 z"
       id="path17375" />
    <path
       style="fill:none;stroke:#ffffff;stroke-width:0.0464746;stroke-linecap:square;stroke-linejoin:miter;stroke-miterlimit:4;stroke-dasharray:none;stroke-opacity:1;paint-order:markers stroke fill"
       d="m 6.6669447,4.5136984 c 0.6563,0.4913951 0,0 0,0 z"
       id="path17375-3" />
    <path
       style="fill:none;stroke:#ffffff;stroke-width:0.0464746;stroke-linecap:square;stroke-linejoin:miter;stroke-miterlimit:4;stroke-dasharray:none;stroke-opacity:1;paint-order:markers stroke fill"
       d="m 6.9681995,4.7504224 c 0.5678955,0.591349 0,0 0,0 z"
       id="path17375-3-5" />
    <path
       style="fill:none;stroke:#ffffff;stroke-width:0.0464746;stroke-linecap:square;stroke-linejoin:miter;stroke-miterlimit:4;stroke-dasharray:none;stroke-opacity:1;paint-order:markers stroke fill"
       d="m 7.3284011,5.1963238 c 0.4134975,0.7079681 0,0 0,0 z"
       id="path17375-3-6" />
    <path
       style="fill:none;stroke:#ffffff;stroke-width:0.0464746;stroke-linecap:square;stroke-linejoin:miter;stroke-miterlimit:4;stroke-dasharray:none;stroke-opacity:1;paint-order:markers stroke fill"
       d="m 7.3227021,9.30379 c 0.3820584,-0.7254176 0,0 0,0 z"
       id="path17375-3-2"
       inkscape:transform-center-x="0.27528604"
       inkscape:transform-center-y="0.056537204" />
    <path
       style="fill:none;stroke:#ffffff;stroke-width:0.0464746;stroke-linecap:square;stroke-linejoin:miter;stroke-miterlimit:4;stroke-dasharray:none;stroke-opacity:1;paint-order:markers stroke fill"
       d="m 7.2045338,9.472203 c -0.5427864,0.614477 0,0 0,0 z"
       id="path17375-3-9" />
    <path
       class="a"
       d="M 10.843937,1.4324261 H 2.1126868 A 0.52916667,0.52916667 0 0 0 1.5835201,1.9615928 v 8.7312502 a 0.52916667,0.52916667 0 0 0 0.5291667,0.529167 h 8.7312502 a 0.52916667,0.52916667 0 0 0 0.529167,-0.529167 V 1.9615928 A 0.52916667,0.52916667 0 0 0 10.843937,1.4324261 Z"
       id="path25307"
       style="stroke-width:0.065;stroke:#000000;stroke-opacity:1;stroke-miterlimit:4;stroke-dasharray:none" />
  </g>
</svg>
