<svg version="1.1" viewBox="0 0 48 48" xmlns="http://www.w3.org/2000/svg">
 <g fill="none" stroke="#fff" stroke-linecap="round" stroke-linejoin="round">
  <g>
   <path d="m28.06 22.706c4.5871-1.7006 7.87-3.8458 4.4744-8.2678 0.23311-8.9127-14.495-10.612-18.189-0.48634-0.41724 1.9502-0.28184 6.1561 1.1672 9.5319 0.53102 1.2755 0.11761 6.4815-1.7533 4.128-0.8811-1.2164-1.6918-1.267-2.0402-1.137-1.6799 3.1582 2.659 5.8481 3.6074 5.8679 2.3684 2.8048 4.3859 2.4554 6.0978 2.5851"/>
   <path d="m30.297 21.762c3.9314 6.1506 1.9257 10.072-3.0153 11.352"/>
   <path d="m19.413 22.382c0.76751 0.72996 1.8799 0.5872 2.6543 0.04378 0.15019-1.4583 1.308-1.4073 1.5069 0.09378 0.93592-0.0189 1.9145-0.13372 2.0978 0.55023 0.10661 0.73191-0.49857 1.1582-1.41 1.0317 0.04234 1.466-0.67873 1.4169-2.3041 1.2724-0.53505 0.24104-1.0225 0.3393-1.5132 0.44706"/>
   <path d="m23.058 18.943c3.9316 1.5709 7.46 1.2413 9.5601-2.1322"/>
   <ellipse cx="24.85" cy="16.821" rx=".87539" ry="1.0213" style="paint-order:markers fill stroke"/>
   <ellipse cx="30.929" cy="15.314" rx=".72951" ry=".97271" style="paint-order:markers fill stroke"/>
   <path d="m21.27 33.799c5.392 10.971 11.138-14.528 0.41268-4.9521"/>
   <path d="m32.291 25.187c8.8507-5.6066 2.101 10.45-1.459 6.4683"/>
   <path d="m25.433 7.0686c-3.2264-2.8613-5.2976-1.7548-6.7115 1.3391-6.0665-1.2986-5.8913 3.7582-4.3771 5.5443-2.6404 1.9453-3.2151 3.8907 0.09727 5.8361-1.2749 0.60436-2.5851 2.7461 1.0699 4.2798-0.92732 0.7587-2.1737 1.4642-0.09727 2.7235"/>
   <path d="m34.303 14.507h2.0634"/>
   <path d="m35.335 13.303v2.3385"/>
  </g>
  <path d="m19.149 39.027v3.4459h1.5511" stroke-width="1px"/>
  <path d="m22.175 42.5v-3.5001" stroke-width=".99994"/>
  <line class="st5" x1="23.66" x2="25.838" y1="39.014" y2="39.014"/>
  <line class="st5" x1="24.749" x2="24.749" y1="42.486" y2="39.014"/>
  <line class="st5" x1="27.295" x2="28.312" y1="40.75" y2="40.75" stroke-width=".98902"/>
  <path d="m28.855 39.021h-1.5604v3.4586h1.5604" stroke-width="1px"/>
 </g>
</svg>
