<?xml version="1.0" encoding="UTF-8" standalone="no"?>
<!-- Created with Inkscape (http://www.inkscape.org/) -->

<svg
   width="48"
   height="48"
   viewBox="0 0 48 48"
   version="1.1"
   id="svg5"
   inkscape:version="1.1.1 (3bf5ae0d25, 2021-09-20)"
   sodipodi:docname="bilibili.svg"
   xmlns:inkscape="http://www.inkscape.org/namespaces/inkscape"
   xmlns:sodipodi="http://sodipodi.sourceforge.net/DTD/sodipodi-0.dtd"
   xmlns="http://www.w3.org/2000/svg"
   xmlns:svg="http://www.w3.org/2000/svg">
  <sodipodi:namedview
     id="namedview7"
     pagecolor="#505050"
     bordercolor="#eeeeee"
     borderopacity="1"
     inkscape:pageshadow="0"
     inkscape:pageopacity="0"
     inkscape:pagecheckerboard="0"
     inkscape:document-units="px"
     showgrid="false"
     inkscape:zoom="11.313709"
     inkscape:cx="29.212348"
     inkscape:cy="20.329319"
     inkscape:window-width="1920"
     inkscape:window-height="1031"
     inkscape:window-x="0"
     inkscape:window-y="20"
     inkscape:window-maximized="1"
     inkscape:current-layer="svg5"
     showguides="true"
     inkscape:guide-bbox="true">
    <inkscape:grid
       type="xygrid"
       id="grid4069" />
  </sodipodi:namedview>
  <defs
     id="defs2">
    <linearGradient
       id="linearGradient3458"
       inkscape:swatch="solid">
      <stop
         style="stop-color:#000000;stop-opacity:1;"
         offset="0"
         id="stop3456" />
    </linearGradient>
  </defs>
  <g
     inkscape:label="Layer 1"
     inkscape:groupmode="layer"
     id="layer1" />
  <path
     id="rect4093"
     style="fill:none;stroke:#ffffff"
     d="M 5,15.59375 C 5,14.59375 5.6050874,14 6.6015625,14 H 24 41.403485 C 42.403516,14 43,14.603245 43,15.602039 V 39.056601 C 43,40.056632 42.398099,41 41.397961,41 L 6.6015625,41 C 5.6028646,41 5,40.40625 5,39.402344 Z"
     sodipodi:nodetypes="cccccccccc" />
  <path
     id="rect4095"
     style="fill:none;stroke:#ffffff"
     d="M 9,19.496094 C 9,18.495903 9.5068863,18 10.503906,18 H 37.494583 C 38.494133,18 39,18.500889 39,19.496094 V 35.5 c 0,1.004028 -0.508221,1.539062 -1.505417,1.539062 L 10.507812,37 C 9.5031461,37 9,36.500618 9,35.5 Z"
     sodipodi:nodetypes="ccccccccc" />
  <path
     style="fill:none;stroke:#ffffff;stroke-width:1px;stroke-linecap:round;stroke-linejoin:miter;stroke-opacity:1"
     d="M 10.936026,7.6949616 22,13.913618"
     id="path4319"
     sodipodi:nodetypes="cc" />
  <path
     style="fill:none;stroke:#ffffff;stroke-width:1px;stroke-linecap:round;stroke-linejoin:miter;stroke-opacity:1"
     d="M 32.900575,4.2896298 26,13.867095"
     id="path4547"
     sodipodi:nodetypes="cc" />
  <path
     style="fill:none;stroke:#ffffff;stroke-width:1px;stroke-linecap:round;stroke-linejoin:miter;stroke-opacity:1"
     d="M 18.47086,30 C 18.431621,34.353145 24,34.392383 24,30"
     id="path5031"
     sodipodi:nodetypes="cc" />
  <path
     style="fill:none;stroke:#ffffff;stroke-width:1px;stroke-linecap:round;stroke-linejoin:miter;stroke-opacity:1"
     d="m 24,30 c -0.03924,4.353145 5.52914,4.392383 5.52914,0"
     id="path6399"
     sodipodi:nodetypes="cc" />
  <path
     style="fill:none;stroke:#ffffff;stroke-width:1px;stroke-linecap:round;stroke-linejoin:miter;stroke-opacity:1"
     d="M 18.324284,23.582216 12.634731,26.25042"
     id="path6594" />
  <path
     style="fill:none;stroke:#ffffff;stroke-width:1px;stroke-linecap:round;stroke-linejoin:miter;stroke-opacity:1"
     d="m 29.271525,22.556281 5.493848,4.602358"
     id="path6629" />
</svg>
