<svg xmlns="http://www.w3.org/2000/svg" viewBox="0 0 48 48"><defs><style>.a{fill:none;stroke:#fff;stroke-linecap:round;stroke-linejoin:round;}</style></defs><rect class="a" x="5.5" y="5.5" width="37" height="37" rx="2"/><path class="a" d="M17.8333,5.5v37"/><path class="a" d="M30.1667,5.5v37"/><path class="a" d="M5.5,17.8333h37"/><path class="a" d="M5.5,30.1667h37"/><line class="a" x1="9.6667" y1="15.6667" x2="13.6667" y2="15.6667"/><line class="a" x1="9.6667" y1="8.7557" x2="11.6667" y2="7.6667"/><line class="a" x1="11.6667" y1="7.6667" x2="11.6667" y2="15.6667"/><path class="a" d="M33.6833,10.3167a2.65,2.65,0,1,1,5.3,0,2.4725,2.4725,0,0,1-.7761,1.8738c-1.0721.9408-4.5239,3.4762-4.5239,3.4762h5.3"/><path class="a" d="M12.3171,36.3343a2,2,0,0,0,2-2h0a2,2,0,0,0-2-1.9995"/><path class="a" d="M12.3171,40.3333a2,2,0,0,0,2-2h0a2,2,0,0,0-2-1.9995"/><path class="a" d="M9.0176,39.6585a3.4067,3.4067,0,0,0,2.4876.6748h.8119"/><path class="a" d="M9.0167,33.0015a3.4069,3.4069,0,0,1,2.4894-.6681l.8119.0018"/><line class="a" x1="10.2801" y1="36.3343" x2="12.3171" y2="36.3343"/></svg>