<?xml version="1.0" encoding="UTF-8"?>
<svg id="a" version="1.1" viewBox="0 0 48 48" xmlns="http://www.w3.org/2000/svg"><defs><style>.b{fill:none;stroke:#fff;stroke-linecap:round;stroke-linejoin:round;}</style></defs><line class="b" x1="22.802" x2="22.802" y1="18.757" y2="28.682"/><polyline class="b" transform="translate(-.7574 -1.1835)" points="29.575 29.741 29.575 19.94 34.075 29.865 38.576 19.94 38.576 29.865"/><path class="b" d="m14.276 23.719c1.3648 0 2.4814 1.1166 2.4814 2.4814s-1.1166 2.4814-2.4814 2.4814h-4.0943v-9.9256h4.0943c1.3648 0 2.4814 1.1166 2.4814 2.4814s-1.1166 2.4814-2.4814 2.4814z"/><line class="b" x1="14.276" x2="10.181" y1="23.719" y2="23.719"/><path class="b" d="m7.3083 13.64c-1.3705 0-2.4882 1.111-2.4815 2.4815l0.0654 13.391c0.0067 1.3705 1.111 2.4815 2.4815 2.4815h33.318c1.3705 0 2.4882-1.111 2.4815-2.4815l-0.0654-13.391c-0.0068-1.3705-1.111-2.4815-2.4815-2.4815h-15.353l-2.4718 2.4718-2.4718-2.4718z"/><g transform="translate(-129.65 -5.9128)"><polyline class="st5" points="164 40.7 164 48.7 168 48.7" fill="none" stroke="#fff" stroke-linecap="round" stroke-linejoin="round" stroke-miterlimit="10"/></g><path class="st5" d="m15.05 40.087v0c0 1.5-1.2 2.7-2.7 2.7v0c-1.5 0-2.7-1.2-2.7-2.6v-2.7c0-1.5 1.2-2.7 2.7-2.6v0c1.5 0 2.6 1.2 2.6 2.6v0" fill="none" stroke="#fff" stroke-linecap="round" stroke-linejoin="round" stroke-miterlimit="10"/><g transform="translate(-75.183 -5.9128)" fill="none" stroke="#fff" stroke-linecap="round" stroke-linejoin="round" stroke-miterlimit="10"><line class="st5" x1="94" x2="96.6" y1="44.7" y2="44.7"/><polyline class="st5" points="98 48.7 94 48.7 94 40.7 98 40.7"/></g><g transform="translate(-137.42 -5.9128)"><polyline class="st5" points="164 40.7 164 48.7 168 48.7" fill="none" stroke="#fff" stroke-linecap="round" stroke-linejoin="round" stroke-miterlimit="10"/></g><path d="m26.309 11.507c-1.0374-0.97808-2.5339-1.5087-3.9637-1.3604v0c-0.427 0.02684-0.84834 0.11868-1.2512 0.26531-0.66065 0.24042-1.2717 0.62815-1.777 1.1182" fill="none" stroke="#fff" stroke-linecap="round" stroke-linejoin="round" style="paint-order:stroke fill markers"/><path d="m27.733 9.1023c-0.31221-0.30217-0.65793-0.57111-1.0339-0.79838-1.1775-0.7723-2.5921-1.1834-4.0002-1.162v0c-1.784-0.02288-3.5224 0.75746-4.7901 1.9982" fill="none" stroke="#fff" stroke-linecap="round" stroke-linejoin="round" style="paint-order:stroke fill markers"/><path d="m29.145 6.9162c-0.65589-0.65145-1.4205-1.1931-2.2708-1.5811-1.4001-0.70611-2.9798-1.0238-4.5442-0.95959v0c-2.1849 0.060512-4.2791 1.053-5.8296 2.5814" fill="none" stroke="#fff" stroke-linecap="round" stroke-linejoin="round" style="paint-order:stroke fill markers"/></svg>
