<?xml version="1.0" encoding="UTF-8" standalone="no"?>
<!-- Created with Inkscape (http://www.inkscape.org/) -->

<svg
   width="48"
   height="48"
   viewBox="0 0 48 48"
   version="1.1"
   id="svg5"
   inkscape:version="1.2.2 (732a01da63, 2022-12-09)"
   sodipodi:docname="biota.svg"
   xml:space="preserve"
   xmlns:inkscape="http://www.inkscape.org/namespaces/inkscape"
   xmlns:sodipodi="http://sodipodi.sourceforge.net/DTD/sodipodi-0.dtd"
   xmlns="http://www.w3.org/2000/svg"
   xmlns:svg="http://www.w3.org/2000/svg"><sodipodi:namedview
     id="namedview7"
     pagecolor="#afafaf"
     bordercolor="#000000"
     borderopacity="0.25"
     inkscape:showpageshadow="2"
     inkscape:pageopacity="0"
     inkscape:pagecheckerboard="0"
     inkscape:deskcolor="#d1d1d1"
     inkscape:document-units="mm"
     showgrid="false"
     inkscape:zoom="9.8333334"
     inkscape:cx="7.0677966"
     inkscape:cy="38.491525"
     inkscape:window-width="1920"
     inkscape:window-height="991"
     inkscape:window-x="-9"
     inkscape:window-y="-9"
     inkscape:window-maximized="1"
     inkscape:current-layer="layer1" /><defs
     id="defs2" /><g
     inkscape:label="Layer 1"
     inkscape:groupmode="layer"
     id="layer1"><path
       style="opacity:1;fill:none;stroke:#ffffff;stroke-width:1;stroke-linecap:round;stroke-miterlimit:1.9;stroke-dasharray:none"
       d="M 8.4538146,7.5723152 V 40.153328"
       id="path3828" /><path
       style="opacity:1;fill:none;stroke:#ffffff;stroke-width:1;stroke-linecap:round;stroke-miterlimit:1.9;stroke-dasharray:none"
       id="path4201"
       sodipodi:type="arc"
       sodipodi:cx="12.626217"
       sodipodi:cy="-7.5723157"
       sodipodi:rx="4.1724019"
       sodipodi:ry="4.1724019"
       sodipodi:start="0"
       sodipodi:end="3.1415927"
       sodipodi:arc-type="arc"
       d="m 16.798619,-7.5723157 a 4.1724019,4.1724019 0 0 1 -2.086201,3.6134061 4.1724019,4.1724019 0 0 1 -4.172402,-10e-8 4.1724019,4.1724019 0 0 1 -2.086201,-3.613406"
       sodipodi:open="true"
       transform="scale(1,-1)" /><path
       style="opacity:1;fill:none;stroke:#ffffff;stroke-width:1;stroke-linecap:round;stroke-miterlimit:1.9;stroke-dasharray:none"
       id="path4203"
       sodipodi:type="arc"
       sodipodi:cx="12.626217"
       sodipodi:cy="40.153328"
       sodipodi:rx="4.1724019"
       sodipodi:ry="4.1724019"
       sodipodi:start="0"
       sodipodi:end="3.1415927"
       sodipodi:arc-type="arc"
       d="m 16.798619,40.153328 a 4.1724019,4.1724019 0 0 1 -2.086201,3.613406 4.1724019,4.1724019 0 0 1 -4.172402,0 4.1724019,4.1724019 0 0 1 -2.086201,-3.613406"
       sodipodi:open="true" /><path
       style="opacity:1;fill:none;stroke:#ffffff;stroke-width:1;stroke-linecap:round;stroke-miterlimit:1.9;stroke-dasharray:none"
       id="path4209"
       sodipodi:type="arc"
       sodipodi:cx="26.529251"
       sodipodi:cy="28.352966"
       sodipodi:rx="15.798657"
       sodipodi:ry="15.798657"
       sodipodi:start="4.0491639"
       sodipodi:end="2.2535194"
       sodipodi:open="true"
       sodipodi:arc-type="arc"
       d="M 16.802627,15.903454 A 15.798657,15.798657 0 0 1 38.21549,17.721438 15.798657,15.798657 0 0 1 38.005989,39.210317 15.798657,15.798657 0 0 1 16.561751,40.610475" /><path
       style="opacity:1;fill:none;stroke:#ffffff;stroke-width:1;stroke-linecap:round;stroke-miterlimit:1.9;stroke-dasharray:none"
       d="M 16.798619,7.5723156 V 15.831488"
       id="path4211" /><circle
       style="opacity:1;fill:none;stroke:#ffffff;stroke-width:1;stroke-linecap:round;stroke-miterlimit:1.9;stroke-dasharray:none"
       id="path4244"
       cx="27.364473"
       cy="27.736088"
       r="11.585565" /><path
       style="opacity:1;fill:none;stroke:#ffffff;stroke-width:1;stroke-linecap:round;stroke-miterlimit:1.9;stroke-dasharray:none"
       d="m 18.353464,5.4321716 c 0,0 -0.814594,-0.9673292 -0.394569,-2.418323 0.420026,-1.4509937 2.176491,-1.7564661 2.176491,-1.7564661 0,0 0.44548,0.4072964 0.407297,1.3491696 0.77641,-0.038185 1.501905,-0.3691124 2.660154,0.3691125 -0.07636,0.8782331 -1.73101,3.7038525 -4.849373,2.456507 z"
       id="path4246" /><path
       id="path2890"
       style="opacity:1;fill:none;stroke:#ffffff;stroke-width:1;stroke-linecap:round;stroke-miterlimit:1.9;stroke-dasharray:none"
       d="m 22.092637,25.377273 a 2.710883,1.6346263 61.004198 0 1 0.0019,3.228117 2.710883,1.6346263 61.004198 0 1 -2.746257,-1.441906 2.710883,1.6346263 61.004198 0 1 -0.0019,-3.228119 2.710883,1.6346263 61.004198 0 1 2.746257,1.441908 z" /><path
       id="ellipse2894"
       style="opacity:1;fill:none;stroke:#ffffff;stroke-width:1;stroke-linecap:round;stroke-miterlimit:1.9;stroke-dasharray:none"
       d="m 26.202134,21.756667 a 2.9949007,1.8282528 78.670901 0 1 -1.113112,3.391093 2.9949007,1.8282528 78.670901 0 1 -2.424931,-2.450524 2.9949007,1.8282528 78.670901 0 1 1.113114,-3.391091 2.9949007,1.8282528 78.670901 0 1 2.424929,2.450522 z" /><path
       id="path2952"
       style="opacity:1;fill:none;stroke:#ffffff;stroke-width:1;stroke-linecap:round;stroke-miterlimit:1.9;stroke-dasharray:none"
       d="m 27.075469,26.670635 c -0.360015,0.0013 -0.46616,0.167964 -0.750304,0.388087 -0.156281,0.125024 -3.638327,3.384129 -3.638327,3.384129 0,0 -2.990661,3.036003 -0.414283,5.132467 2.576375,2.096463 5.178066,-0.70729 5.178066,-0.70729 0,0 2.60169,2.803753 5.178067,0.70729 2.576375,-2.096464 -0.413314,-5.132467 -0.413314,-5.132467 0,0 -3.483019,-3.259105 -3.639298,-3.384129 -0.288206,-0.292354 -0.41903,-0.351156 -0.750304,-0.388082 z"
       sodipodi:nodetypes="sccscscccs" /><path
       id="path5893"
       style="opacity:1;fill:none;stroke:#ffffff;stroke-width:1;stroke-linecap:round;stroke-miterlimit:1.9;stroke-dasharray:none"
       d="m 32.256957,25.377273 a 1.6346263,2.710883 28.995802 0 0 -0.0019,3.228117 1.6346263,2.710883 28.995802 0 0 2.746258,-1.441906 1.6346263,2.710883 28.995802 0 0 0.0019,-3.228119 1.6346263,2.710883 28.995802 0 0 -2.746258,1.441908 z" /><path
       id="path5895"
       style="opacity:1;fill:none;stroke:#ffffff;stroke-width:1;stroke-linecap:round;stroke-miterlimit:1.9;stroke-dasharray:none"
       d="m 28.12158,21.756667 a 1.8282528,2.9949007 11.329099 0 0 1.113113,3.391093 1.8282528,2.9949007 11.329099 0 0 2.42493,-2.450524 1.8282528,2.9949007 11.329099 0 0 -1.113113,-3.391091 1.8282528,2.9949007 11.329099 0 0 -2.42493,2.450522 z" /></g></svg>
