<?xml version="1.0" encoding="UTF-8"?>
<svg version="1.1" viewBox="0 0 48 48" xml:space="preserve" xmlns="http://www.w3.org/2000/svg"><defs><style>.a{fill:none;stroke:#fff;stroke-linecap:round;stroke-linejoin:round;}</style></defs><path class="a" d="m11.025 13.593-4.8275 1.5841 17.802 6.3158 17.802-6.3158-6.0162-1.9742m-11.385-3.736-0.40058-0.13145-0.80261 0.26338" fill="none" stroke="#fff" stroke-linecap="round" stroke-linejoin="round"/><path class="a" d="m7.6011 19.473 1.81 15.846 14.589 6.5725v-15.553z" fill="none" stroke="#fff" stroke-linecap="round" stroke-linejoin="round"/><path class="a" d="m24 26.338v15.553l14.589-6.5725 1.7322-15.846z" fill="none" stroke="#fff" stroke-linecap="round" stroke-linejoin="round"/><path d="m6.1979 15.177v0l0.44493 3.8951 0.95822 0.40116" fill="none" stroke="#fff" stroke-linecap="round" stroke-linejoin="round" stroke-width="1px"/><path d="m41.802 15.177v0l-0.44231 3.8594-1.0386 0.4369" fill="none" stroke="#fff" stroke-linecap="round" stroke-linejoin="round" stroke-width="1px"/><path d="m24 21.493v4.8459" fill="none" stroke="#fff" stroke-linecap="round" stroke-linejoin="round" stroke-width="1px"/><path d="m14.176 37.466-0.74134-19.721" fill="none" stroke="#fff" stroke-linecap="round" stroke-linejoin="round" stroke-width="1px"/><path d="m16.967 38.723-0.23496-19.809" fill="none" stroke="#fff" stroke-linecap="round" stroke-linejoin="round" stroke-width="1px"/><path d="m33.8 37.476 0.74134-19.721" fill="none" stroke="#fff" stroke-linecap="round" stroke-linejoin="round" stroke-width="1px"/><path d="m31.009 38.733 0.23496-19.809" fill="none" stroke="#fff" stroke-linecap="round" stroke-linejoin="round" stroke-width="1px"/><path d="m20.364 14.071c0.021088-0.32712-0.24129-2.5377-0.87079-4.3255-0.62661-1.7796-1.6203-3.1372-1.6203-3.1372l3.9041-0.49994s0.75526 1.3734 1.0242 2.1063c0.32123 0.87544 0.69421 2.71 0.69421 2.71" fill="none" stroke="#fff" stroke-linecap="round" stroke-linejoin="round" stroke-width="1px"/><path d="m20.364 14.071c-4.6365-2.5793-6.1244-0.23684-6.5582 1.8714-0.41258 2.0053 3.456 3.4962 7.4242 1.3409" fill="none" stroke="#fff" stroke-linecap="round" stroke-linejoin="round" stroke-width="1px"/><path d="m20.364 14.071c2.9343-2.474 4.4441 2.1476 3.1362 4.1003-1.938 2.5207-2.6806-2.5585-3.1362-4.1003" fill="none" stroke="#fff" stroke-linecap="round" stroke-linejoin="round" stroke-width="1px"/><path d="m20.364 14.071c-3.8416-2.5697-6.6023-4.1105-8.3053-2.3179-2.7589 2.904 0.49756 4.939 2.5645 5.859" fill="none" stroke="#fff" stroke-linecap="round" stroke-linejoin="round" stroke-width="1px"/><path d="m21.513 13.422c3.677-1.5964 5.6852-1.3067 6.6321 0.80367 0.53229 1.1863-0.09848 3.6471-0.22173 3.844l-5.0951 0.71298" fill="none" stroke="#fafafa" stroke-linecap="round" stroke-linejoin="round" stroke-width="1px"/><path d="m28.219 16.909c5.5383 1.7182 5.2211-1.2046 5.0808-1.8799-0.34042-1.6391-3.7875-3.5081-5.6376-1.6088" fill="none" stroke="#fff" stroke-linecap="round" stroke-linejoin="round" stroke-width="1px"/><path d="m33.071 16.644s2.3004-1.2591 2.6681-2.3966c0.80321-2.4849-3.7924-6.4479-8.2497-1.0235" fill="none" stroke="#fff" stroke-linecap="round" stroke-linejoin="round" stroke-width="1px"/><path d="m22.522 12.861c0.97826-1.7976 1.5739-4.063 5.0804-6.2914l3.5248 0.26432c0.70794 0.35859 1.7422 1.9264-0.49983 3.9625" fill="none" stroke="#fff" stroke-linecap="round" stroke-linejoin="round" stroke-width="1px"/><path d="m31.127 6.8341c-2.4518 1.0535-3.2731 3.5927-4.3672 5.8593" fill="none" stroke="#fff" stroke-linecap="round" stroke-linejoin="round" stroke-width="1px"/><path d="m17.873 6.6087c-1.1374 1.5301 0.08333 4.6536 0.65918 6.2736" fill="none" stroke="#fff" stroke-linecap="round" stroke-linejoin="round" stroke-width="1px"/><path d="m31.244 18.925-3.2545-1.0294" fill="none" stroke="#fff" stroke-linecap="round" stroke-linejoin="round" stroke-width="1px"/><path d="m34.541 17.755-1.991-0.62976" fill="none" stroke="#fff" stroke-linecap="round" stroke-linejoin="round" stroke-width="1px"/></svg>
