<?xml version="1.0" encoding="UTF-8"?>
<svg version="1.1" viewBox="0 0 48 48" xml:space="preserve" xmlns="http://www.w3.org/2000/svg"><defs><style>.a{fill:none;stroke:#fff;stroke-linecap:round;stroke-linejoin:round;}</style></defs><line x1="24" x2="24" y1="19.53" y2="15.06" fill="none" stroke="#fff" stroke-linecap="round" stroke-linejoin="round"/><path d="m24 15.06c8.6059-2.9801 0-10.43 0-10.43s-8.9412 7.4502 0 10.43z" fill="none" stroke="#fff" stroke-linecap="round" stroke-linejoin="round"/><path d="m30.333 26.608a6.3333 6.3326 0 0 1-12.667 0" fill="none" stroke="#fff" stroke-linecap="round" stroke-linejoin="round"/><path d="m17.667 26.608a6.3333 6.3326 0 0 1-6.2029 6.3326c-3.5578 0.0745-6.4637-2.9056-6.4637-6.463v-2.4772a4.452 4.4515 0 0 1 4.4706-4.4701h29.059a4.452 4.4515 0 0 1 4.4706 4.4701v2.4772c0 3.5574-2.9059 6.5375-6.4637 6.463a6.3333 6.3326 0 0 1-6.2029-6.3326" fill="none" stroke="#fff" stroke-linecap="round" stroke-linejoin="round"/><path d="m40.392 31.692v10.188a1.4902 1.49 0 0 1-1.4902 1.49h-29.804a1.4902 1.49 0 0 1-1.4902-1.49v-10.188" fill="none" stroke="#fff" stroke-linecap="round" stroke-linejoin="round"/><path transform="matrix(.51051 0 0 .51051 10.331 17.04)" d="m26.775 34.696 1.7687 3.5837 3.9548 0.57467-2.8618 2.7895 0.67557 3.9389-3.5373-1.8597-3.5373 1.8597 0.67557-3.9389-2.8618-2.7895 3.9548-0.57467z" fill="none" stroke="#fff" stroke-linecap="round" stroke-linejoin="round" stroke-width="1.9588"/></svg>
