<svg width="48" height="48" version="1.1" viewBox="0 0 48 48" xmlns="http://www.w3.org/2000/svg">
 <g transform="matrix(1.1655 0 0 1.1655 -3.634 -4.2851)" fill="none" stroke="#fff" stroke-linecap="round" stroke-linejoin="round">
  <circle cx="24.07" cy="25.759" r="2.8079" stop-color="#000000" style="paint-order:markers fill stroke"/>
  <path d="m20.05 30.295c-2.0433-1.3019-3.3986-3.5877-3.3986-6.1901 0-4.0507 3.2837-7.3344 7.3344-7.3344s7.3344 3.2837 7.3344 7.3344c0 2.5005-1.2513 4.7087-3.1618 6.0326" stop-color="#000000" style="paint-order:markers fill stroke"/>
  <path d="m29.468 16.009c4.4636 1.6299 7.6501 5.9134 7.6501 10.941 0 6.4309-5.2133 11.644-11.644 11.644-4.1417 0-7.7783-2.1623-9.8426-5.4196" stop-color="#000000" style="paint-order:markers fill stroke"/>
  <path d="m10.461 25.577c0-4.9713 3.6131-9.0987 8.3565-9.8996m-5.6895 16.715c-1.6554-1.7901-2.667-4.1844-2.667-6.8149" stop-color="#000000" style="paint-order:markers fill stroke"/>
  <path d="m27.477 42.451c8.3417-1.7381 14.609-9.1307 14.609-17.988-1e-6 -10.149-8.2282-18.377-18.377-18.377-10.149 3e-7 -18.375 8.2282-18.375 18.377 0 4.7991 1.8389 9.1684 4.8516 12.441" stop-color="#000000" style="paint-order:markers fill stroke"/>
 </g>
</svg>
