<?xml version="1.0" encoding="UTF-8" standalone="no"?>
<svg
   xmlns:dc="http://purl.org/dc/elements/1.1/"
   xmlns:cc="http://creativecommons.org/ns#"
   xmlns:rdf="http://www.w3.org/1999/02/22-rdf-syntax-ns#"
   xmlns:svg="http://www.w3.org/2000/svg"
   xmlns="http://www.w3.org/2000/svg"
   xmlns:sodipodi="http://sodipodi.sourceforge.net/DTD/sodipodi-0.dtd"
   xmlns:inkscape="http://www.inkscape.org/namespaces/inkscape"
   viewBox="0 0 48 48"
   version="1.1"
   id="svg2289"
   sodipodi:docname="template.svg"
   inkscape:version="1.0.1 (3bc2e813f5, 2020-09-07)">
  <metadata
     id="metadata2293">
    <rdf:RDF>
      <cc:Work
         rdf:about="">
        <dc:format>image/svg+xml</dc:format>
        <dc:type
           rdf:resource="http://purl.org/dc/dcmitype/StillImage" />
        <dc:title></dc:title>
      </cc:Work>
    </rdf:RDF>
  </metadata>
  <sodipodi:namedview
     pagecolor="#5a5a5a"
     bordercolor="#666666"
     borderopacity="1"
     objecttolerance="10"
     gridtolerance="10"
     guidetolerance="10"
     inkscape:pageopacity="0"
     inkscape:pageshadow="2"
     inkscape:window-width="3840"
     inkscape:window-height="2096"
     id="namedview2291"
     showgrid="false"
     inkscape:zoom="4.3612672"
     inkscape:cx="24"
     inkscape:cy="24"
     inkscape:window-x="0"
     inkscape:window-y="27"
     inkscape:window-maximized="1"
     inkscape:current-layer="svg2289"
     inkscape:document-rotation="0" />
  <defs
     id="defs2285">
    <style
       id="style2283">.a{fill:none;stroke:#fff;stroke-linecap:round;stroke-linejoin:round;}</style>
  </defs>
  <path
     class="a"
     d="M40.5,5.5H7.5a2,2,0,0,0-2,2v33a2,2,0,0,0,2,2h33a2,2,0,0,0,2-2V7.5A2,2,0,0,0,40.5,5.5Z"
     id="path2287"
     style="stroke:#ffffff;stroke-opacity:0.97144008" />
  <path
     style="fill:none;stroke:#ffffff;stroke-width:1px;stroke-linecap:butt;stroke-linejoin:miter;stroke-opacity:0.97144008"
     d="m 14.347764,13.079681 h 6.258947 V 5.5644504"
     id="path2419" />
  <rect
     style="fill:none;stroke:#ffffff;stroke-width:1;stroke-linecap:square;stroke-linejoin:round;stroke-miterlimit:4;stroke-dasharray:none;stroke-opacity:0.97144008"
     id="rect2431"
     width="2.927999"
     height="9.2228947"
     x="16.191303"
     y="20.421196"
     rx="0.63943273"
     ry="0.77880198" />
  <path
     style="fill:none;stroke:#ffffff;stroke-width:1px;stroke-linecap:butt;stroke-linejoin:miter;stroke-opacity:0.97144008"
     d="m 32.412457,26.305952 v 2.878181 c 0,0 -0.941665,0.494506 -2.841831,0.645096 -1.900166,0.15059 -4.064683,-1.52584 -3.936591,-3.643505 0.128092,-2.117665 0.980146,-3.614128 3.676023,-3.614128 2.695877,0 3.108728,1.613699 3.102399,3.734356 z"
     id="path2456-8"
     sodipodi:nodetypes="cczzzc" />
  <path
     style="fill:none;stroke:#ffffff;stroke-width:1px;stroke-linecap:butt;stroke-linejoin:miter;stroke-opacity:0.97144008"
     d="m 28.749171,25.040898 c 0.108746,-0.382321 0.785674,-0.378273 0.917049,0 z"
     id="path2458-5"
     sodipodi:nodetypes="ccc" />
  <path
     style="fill:none;stroke:#ffffff;stroke-width:1px;stroke-linecap:butt;stroke-linejoin:miter;stroke-opacity:0.97144008"
     d="m 31.418215,26.855199 c -0.575503,0.660206 -2.917778,0.304616 -2.962759,0 z"
     id="path2460-0"
     sodipodi:nodetypes="ccc" />
  <rect
     style="fill:none;stroke:#ffffff;stroke-width:1;stroke-linecap:square;stroke-linejoin:round;stroke-miterlimit:4;stroke-dasharray:none;stroke-opacity:0.97144008"
     id="rect2390"
     width="3.9390645"
     height="6.492157"
     x="10.429203"
     y="10.377777"
     ry="0.77880245"
     rx="0.74209476" />
  <rect
     style="fill:none;stroke:#ffffff;stroke-width:1;stroke-linecap:square;stroke-linejoin:round;stroke-miterlimit:4;stroke-dasharray:none;stroke-opacity:0.97144008"
     id="rect2392"
     width="6.3146749"
     height="3.9555211"
     x="12.709843"
     y="33.621208"
     rx="0.74209499"
     ry="0.77880198" />
  <rect
     style="fill:none;stroke:#ffffff;stroke-width:1;stroke-linecap:square;stroke-linejoin:round;stroke-miterlimit:4;stroke-dasharray:none;stroke-opacity:0.97144008"
     id="rect2394"
     width="3.8893559"
     height="3.924499"
     x="33.610283"
     y="8.074954"
     rx="0.74209499"
     ry="0.77880198" />
  <rect
     style="fill:none;stroke:#ffffff;stroke-width:1;stroke-linecap:square;stroke-linejoin:round;stroke-miterlimit:4;stroke-dasharray:none;stroke-opacity:0.97144008"
     id="rect2394-0"
     width="3.8893559"
     height="3.924499"
     x="26.702511"
     y="15.128746"
     rx="0.74209499"
     ry="0.77880198" />
  <rect
     style="fill:none;stroke:#ffffff;stroke-width:1;stroke-linecap:square;stroke-linejoin:round;stroke-miterlimit:4;stroke-dasharray:none;stroke-opacity:0.97144008"
     id="rect2394-8"
     width="3.8893559"
     height="3.924499"
     x="31.270208"
     y="36.020138"
     rx="0.74209499"
     ry="0.77880198" />
  <path
     style="fill:none;stroke:#ffffff;stroke-width:1px;stroke-linecap:butt;stroke-linejoin:miter;stroke-opacity:0.97144008"
     d="M 11.843832,10.404544 V 5.6417901"
     id="path2417" />
  <path
     style="fill:none;stroke:#ffffff;stroke-width:1px;stroke-linecap:butt;stroke-linejoin:miter;stroke-opacity:0.97144008"
     d="M 12.632753,35.669031 H 5.7365282"
     id="path2421" />
  <path
     style="fill:none;stroke:#ffffff;stroke-width:1px;stroke-linecap:butt;stroke-linejoin:miter;stroke-opacity:0.97144008"
     d="m 14.180226,37.63878 v 4.748593"
     id="path2423" />
  <path
     style="fill:none;stroke:#ffffff;stroke-width:1px;stroke-linecap:butt;stroke-linejoin:miter;stroke-opacity:0.97144008"
     d="m 34.237931,40.027587 v 2.377635"
     id="path2425" />
  <path
     style="fill:none;stroke:#ffffff;stroke-width:1px;stroke-linecap:butt;stroke-linejoin:miter;stroke-opacity:0.97144008"
     d="m 37.649124,9.3518462 h 4.599878"
     id="path2427" />
  <path
     style="fill:none;stroke:#ffffff;stroke-width:1px;stroke-linecap:butt;stroke-linejoin:miter;stroke-opacity:0.97144008"
     d="m 33.579017,10.410045 h -5.316058 v 4.75479"
     id="path2429" />
  <path
     id="rect2433"
     style="fill:none;stroke:#ffffff;stroke-width:1;stroke-linecap:square;stroke-linejoin:round;stroke-miterlimit:4;stroke-dasharray:none;stroke-opacity:0.97144008"
     d="M 13.08679,29.737667 H 9.0352899 c -0.3542459,0 -0.639433,-0.347346 -0.639433,-0.778802 v -7.454796 c 0,-0.431456 0.2851871,-0.778802 0.639433,-0.778802 H 13.08679 c 2.705048,0 3.311749,3.844478 1.546031,4.072847 2.326343,0.316505 1.607628,4.939553 -1.546031,4.939553 z"
     sodipodi:nodetypes="cssssccc" />
  <path
     style="fill:none;stroke:#ffffff;stroke-width:1px;stroke-linecap:butt;stroke-linejoin:miter;stroke-opacity:0.97144008"
     d="m 25.878169,26.29771 v 2.878181 c 0,0 -0.941665,0.494506 -2.841831,0.645096 -1.900166,0.15059 -4.064683,-1.52584 -3.936591,-3.643505 0.128092,-2.117665 0.980146,-3.614128 3.676023,-3.614128 2.695877,0 3.108728,1.613699 3.102399,3.734356 z"
     id="path2456"
     sodipodi:nodetypes="cczzzc" />
  <path
     style="fill:none;stroke:#ffffff;stroke-width:1px;stroke-linecap:butt;stroke-linejoin:miter;stroke-opacity:0.97144008"
     d="m 22.214883,25.032656 c 0.108746,-0.382321 0.785674,-0.378273 0.917049,0 z"
     id="path2458"
     sodipodi:nodetypes="ccc" />
  <path
     style="fill:none;stroke:#ffffff;stroke-width:1px;stroke-linecap:butt;stroke-linejoin:miter;stroke-opacity:0.97144008"
     d="m 24.883927,26.846957 c -0.575503,0.660206 -2.917778,0.304616 -2.962759,0 z"
     id="path2460"
     sodipodi:nodetypes="ccc" />
  <path
     id="rect2483"
     style="fill:none;stroke:#ffffff;stroke-width:1;stroke-linecap:square;stroke-linejoin:round;stroke-miterlimit:4;stroke-dasharray:none;stroke-opacity:0.97144008"
     d="m 35.397703,28.831829 c 0,0.431456 -0.285187,0.778802 -0.639433,0.778802 h -1.630018 c -0.354246,0 -0.639433,-0.347346 -0.639433,-0.778802 v -5.651551 c 0,-0.431456 0.285187,-0.778802 0.639433,-0.778802 h 1.630018 c 0.354246,0 0.639433,0.347346 0.639433,0.778802 0.32864,-0.633786 3.300882,-1.304476 4.106077,1.671433 v 4.035029 c 0.04688,0.421084 -0.08145,0.801033 -0.67432,0.674321 H 36.913758 C 36.54584,29.52795 36.437843,29.245575 36.452543,28.845534 v -3.590359 h -1.106732 z"
     sodipodi:nodetypes="cssssssccccccccc" />
  <path
     style="fill:none;stroke:#ffffff;stroke-width:1px;stroke-linecap:butt;stroke-linejoin:miter;stroke-opacity:0.97144008"
     d="M 18.4106,13.123421 V 20.39548"
     id="path2486" />
  <path
     style="fill:none;stroke:#ffffff;stroke-width:1px;stroke-linecap:butt;stroke-linejoin:miter;stroke-opacity:0.97144008"
     d="M 23.584961,22.583069 V 18.226483 H 18.464133"
     id="path2488" />
  <path
     style="fill:none;stroke:#ffffff;stroke-width:1px;stroke-linecap:butt;stroke-linejoin:miter;stroke-opacity:0.97144008"
     d="m 28.100696,19.030397 v 3.640312"
     id="path2490" />
  <path
     style="fill:none;stroke:#ffffff;stroke-width:1px;stroke-linecap:butt;stroke-linejoin:miter;stroke-opacity:0.97144008"
     d="m 17.28918,29.617987 v 4.110715"
     id="path2492" />
  <path
     style="fill:none;stroke:#ffffff;stroke-width:1px;stroke-linecap:butt;stroke-linejoin:miter;stroke-opacity:0.97144008"
     d="m 23.574324,29.861317 v 8.079044 h 7.609117"
     id="path2494" />
  <path
     style="fill:none;stroke:#ffffff;stroke-width:1px;stroke-linecap:butt;stroke-linejoin:miter;stroke-opacity:0.97144008"
     d="m 34.147606,29.680013 v 6.460269"
     id="path2496" />
  <path
     style="fill:none;stroke:#ffffff;stroke-width:1px;stroke-linecap:butt;stroke-linejoin:miter;stroke-opacity:0.97144008"
     d="m 34.266992,32.712249 h 8.637735"
     id="path2498" />
  <path
     style="fill:none;stroke:#ffffff;stroke-width:1px;stroke-linecap:butt;stroke-linejoin:miter;stroke-opacity:0.97144008"
     d="m 35.115898,11.912774 v 5.081448 h 2.616516 v 5.590572"
     id="path2500" />
  <path
     style="fill:none;stroke:#ffffff;stroke-width:1px;stroke-linecap:butt;stroke-linejoin:miter;stroke-opacity:1"
     d="m 11.544724,24.145363 v -0.70057 c 1.511337,0 1.469243,0.70057 0,0.70057 z"
     id="path2504"
     sodipodi:nodetypes="ccc" />
  <path
     style="fill:none;stroke:#ffffff;stroke-width:1px;stroke-linecap:butt;stroke-linejoin:miter;stroke-opacity:1"
     d="m 11.544724,26.970001 v -0.70057 c 1.956586,0.0337 1.958682,0.70057 0,0.70057 z"
     id="path2504-9"
     sodipodi:nodetypes="ccc" />
</svg>
