<?xml version="1.0" encoding="UTF-8" standalone="no"?>
<svg
   xmlns:dc="http://purl.org/dc/elements/1.1/"
   xmlns:cc="http://creativecommons.org/ns#"
   xmlns:rdf="http://www.w3.org/1999/02/22-rdf-syntax-ns#"
   xmlns:svg="http://www.w3.org/2000/svg"
   xmlns="http://www.w3.org/2000/svg"
   xmlns:sodipodi="http://sodipodi.sourceforge.net/DTD/sodipodi-0.dtd"
   xmlns:inkscape="http://www.inkscape.org/namespaces/inkscape"
   viewBox="0 0 48 48"
   version="1.1"
   id="svg2289"
   sodipodi:docname="bleentoro.svg"
   inkscape:version="1.0.1 (3bc2e813f5, 2020-09-07)">
  <metadata
     id="metadata2293">
    <rdf:RDF>
      <cc:Work
         rdf:about="">
        <dc:format>image/svg+xml</dc:format>
        <dc:type
           rdf:resource="http://purl.org/dc/dcmitype/StillImage" />
        <dc:title></dc:title>
      </cc:Work>
    </rdf:RDF>
  </metadata>
  <sodipodi:namedview
     pagecolor="#5a5a5a"
     bordercolor="#666666"
     borderopacity="1"
     objecttolerance="10"
     gridtolerance="10"
     guidetolerance="10"
     inkscape:pageopacity="0"
     inkscape:pageshadow="2"
     inkscape:window-width="3840"
     inkscape:window-height="2096"
     id="namedview2291"
     showgrid="false"
     inkscape:zoom="17.910668"
     inkscape:cx="24"
     inkscape:cy="24.001082"
     inkscape:window-x="0"
     inkscape:window-y="27"
     inkscape:window-maximized="1"
     inkscape:current-layer="svg2289"
     inkscape:document-rotation="0" />
  <defs
     id="defs2285">
    <style
       id="style2283">.a{fill:none;stroke:#fff;stroke-linecap:round;stroke-linejoin:round;}</style>
  </defs>
  <path
     class="a"
     d="M40.5,5.5H7.5a2,2,0,0,0-2,2v33a2,2,0,0,0,2,2h33a2,2,0,0,0,2-2V7.5A2,2,0,0,0,40.5,5.5Z"
     id="path2287"
     style="stroke:#ffffff;stroke-opacity:1;stroke-width:1;stroke-miterlimit:4;stroke-dasharray:none;stroke-linejoin:round;stroke-linecap:round" />
  <path
     style="fill:none;stroke:#ffffff;stroke-width:1;stroke-linecap:round;stroke-linejoin:round;stroke-miterlimit:4;stroke-dasharray:none;stroke-opacity:1"
     d="m 14.373024,13.079681 h 6.233687 V 5.5064822"
     id="path2419"
     sodipodi:nodetypes="ccc" />
  <rect
     style="fill:none;stroke:#ffffff;stroke-width:1;stroke-linecap:round;stroke-linejoin:round;stroke-miterlimit:4;stroke-dasharray:none;stroke-opacity:1"
     id="rect2431"
     width="2.927999"
     height="9.2228947"
     x="16.191303"
     y="20.421196"
     rx="0.63943273"
     ry="0.77880198" />
  <path
     style="fill:none;stroke:#ffffff;stroke-width:1;stroke-linecap:round;stroke-linejoin:round;stroke-miterlimit:4;stroke-dasharray:none;stroke-opacity:1"
     d="m 32.359709,26.305952 v 2.878181 c 0,0 -0.888917,0.494506 -2.789083,0.645096 -1.900166,0.15059 -3.963857,-1.52584 -3.835765,-3.643505 0.128092,-2.117665 0.87932,-3.614128 3.575197,-3.614128 2.695877,0 3.05598,1.613699 3.049651,3.734356 z"
     id="path2456-8"
     sodipodi:nodetypes="cczzzc" />
  <path
     style="fill:none;stroke:#ffffff;stroke-width:1;stroke-linecap:round;stroke-linejoin:round;stroke-opacity:1;stroke-miterlimit:4;stroke-dasharray:none"
     d="m 28.749171,25.040898 c 0.108746,-0.382321 0.785674,-0.378273 0.917049,0 z"
     id="path2458-5"
     sodipodi:nodetypes="ccc" />
  <path
     style="fill:none;stroke:#ffffff;stroke-width:1;stroke-linecap:round;stroke-linejoin:round;stroke-opacity:1;stroke-miterlimit:4;stroke-dasharray:none"
     d="m 31.418215,26.855199 c -0.575503,0.660206 -2.917778,0.304616 -2.962759,0 z"
     id="path2460-0"
     sodipodi:nodetypes="ccc" />
  <rect
     style="fill:none;stroke:#ffffff;stroke-width:1;stroke-linecap:round;stroke-linejoin:round;stroke-miterlimit:4;stroke-dasharray:none;stroke-opacity:1"
     id="rect2390"
     width="3.9390645"
     height="6.492157"
     x="10.429203"
     y="10.377777"
     ry="0.77880245"
     rx="0.74209476" />
  <rect
     style="fill:none;stroke:#ffffff;stroke-width:1;stroke-linecap:round;stroke-linejoin:round;stroke-miterlimit:4;stroke-dasharray:none;stroke-opacity:1"
     id="rect2392"
     width="6.3146749"
     height="3.9555211"
     x="12.709843"
     y="33.621208"
     rx="0.74209499"
     ry="0.77880198" />
  <rect
     style="fill:none;stroke:#ffffff;stroke-width:1;stroke-linecap:round;stroke-linejoin:round;stroke-miterlimit:4;stroke-dasharray:none;stroke-opacity:1"
     id="rect2394"
     width="3.8893559"
     height="3.924499"
     x="33.610283"
     y="8.074954"
     rx="0.74209499"
     ry="0.77880198" />
  <rect
     style="fill:none;stroke:#ffffff;stroke-width:1;stroke-linecap:round;stroke-linejoin:round;stroke-miterlimit:4;stroke-dasharray:none;stroke-opacity:1"
     id="rect2394-0"
     width="3.8893559"
     height="3.924499"
     x="26.702511"
     y="15.128746"
     rx="0.74209499"
     ry="0.77880198" />
  <rect
     style="fill:none;stroke:#ffffff;stroke-width:1;stroke-linecap:round;stroke-linejoin:round;stroke-miterlimit:4;stroke-dasharray:none;stroke-opacity:1"
     id="rect2394-8"
     width="3.8893559"
     height="3.924499"
     x="31.270208"
     y="36.020138"
     rx="0.74209499"
     ry="0.77880198" />
  <path
     style="fill:none;stroke:#ffffff;stroke-width:1;stroke-linecap:round;stroke-linejoin:round;stroke-miterlimit:4;stroke-dasharray:none;stroke-opacity:1"
     d="M 11.843832,10.376889 V 5.5052284"
     id="path2417"
     sodipodi:nodetypes="cc" />
  <path
     style="fill:none;stroke:#ffffff;stroke-width:1;stroke-linecap:round;stroke-linejoin:round;stroke-miterlimit:4;stroke-dasharray:none;stroke-opacity:1"
     d="m 12.702288,35.669031 -7.1953619,0"
     id="path2421"
     sodipodi:nodetypes="cc" />
  <path
     style="fill:none;stroke:#ffffff;stroke-width:1;stroke-linecap:round;stroke-linejoin:round;stroke-miterlimit:4;stroke-dasharray:none;stroke-opacity:1"
     d="m 14.180226,37.589489 v 4.912676"
     id="path2423"
     sodipodi:nodetypes="cc" />
  <path
     style="fill:none;stroke:#ffffff;stroke-width:1;stroke-linecap:round;stroke-linejoin:round;stroke-miterlimit:4;stroke-dasharray:none;stroke-opacity:1"
     d="m 34.237931,39.945349 v 2.555866"
     id="path2425"
     sodipodi:nodetypes="cc" />
  <path
     style="fill:none;stroke:#ffffff;stroke-width:1;stroke-linecap:round;stroke-linejoin:round;stroke-miterlimit:4;stroke-dasharray:none;stroke-opacity:1"
     d="m 37.502754,9.3518462 h 4.993707"
     id="path2427"
     sodipodi:nodetypes="cc" />
  <path
     style="fill:none;stroke:#ffffff;stroke-width:1;stroke-linecap:round;stroke-linejoin:round;stroke-miterlimit:4;stroke-dasharray:none;stroke-opacity:1"
     d="m 33.606284,10.410045 h -5.343325 v 4.724157"
     id="path2429"
     sodipodi:nodetypes="ccc" />
  <path
     id="rect2433"
     style="fill:none;stroke:#ffffff;stroke-width:1;stroke-linecap:round;stroke-linejoin:round;stroke-miterlimit:4;stroke-dasharray:none;stroke-opacity:1"
     d="M 13.08679,29.737667 H 9.0352899 c -0.3542459,0 -0.639433,-0.347346 -0.639433,-0.778802 v -7.454796 c 0,-0.431456 0.2851871,-0.778802 0.639433,-0.778802 H 13.08679 c 2.705048,0 3.311749,3.844478 1.546031,4.072847 2.326343,0.316505 1.607628,4.939553 -1.546031,4.939553 z"
     sodipodi:nodetypes="cssssccc" />
  <path
     style="fill:none;stroke:#ffffff;stroke-width:1;stroke-linecap:round;stroke-linejoin:round;stroke-miterlimit:4;stroke-dasharray:none;stroke-opacity:1"
     d="m 25.732142,26.29771 v 2.878181 c 0,0 -0.795638,0.494506 -2.695804,0.645096 -1.900166,0.15059 -4.042878,-1.52584 -3.914786,-3.643505 0.128092,-2.117665 0.958341,-3.614128 3.654218,-3.614128 2.695877,0 2.962701,1.613699 2.956372,3.734356 z"
     id="path2456"
     sodipodi:nodetypes="cczzzc" />
  <path
     style="fill:none;stroke:#ffffff;stroke-width:1;stroke-linecap:round;stroke-linejoin:round;stroke-opacity:1;stroke-miterlimit:4;stroke-dasharray:none"
     d="m 22.214883,25.032656 c 0.108746,-0.382321 0.785674,-0.378273 0.917049,0 z"
     id="path2458"
     sodipodi:nodetypes="ccc" />
  <path
     style="fill:none;stroke:#ffffff;stroke-width:1;stroke-linecap:round;stroke-linejoin:round;stroke-opacity:1;stroke-miterlimit:4;stroke-dasharray:none"
     d="m 24.883927,26.846957 c -0.575503,0.660206 -2.917778,0.304616 -2.962759,0 z"
     id="path2460"
     sodipodi:nodetypes="ccc" />
  <path
     id="rect2483"
     style="fill:none;stroke:#ffffff;stroke-width:1;stroke-linecap:round;stroke-linejoin:round;stroke-miterlimit:4;stroke-dasharray:none;stroke-opacity:1"
     d="m 35.397703,28.831829 c 0,0.431456 -0.285187,0.778802 -0.639433,0.778802 h -1.630018 c -0.354246,0 -0.639433,-0.347346 -0.639433,-0.778802 v -5.651551 c 0,-0.431456 0.285187,-0.778802 0.639433,-0.778802 h 1.630018 c 0.354246,0 0.639433,0.347346 0.639433,0.778802 0.32864,-0.633786 3.300882,-1.304476 4.106077,1.671433 v 4.035029 c 0.04688,0.421084 -0.08145,0.801033 -0.67432,0.674321 H 36.913758 C 36.54584,29.52795 36.437843,29.245575 36.452543,28.845534 v -3.590359 h -1.106732 z"
     sodipodi:nodetypes="cssssssccccccccc" />
  <path
     style="fill:none;stroke:#ffffff;stroke-width:1;stroke-linecap:round;stroke-linejoin:round;stroke-miterlimit:4;stroke-dasharray:none;stroke-opacity:1"
     d="m 18.4106,13.085405 v 7.336733"
     id="path2486"
     sodipodi:nodetypes="cc" />
  <path
     style="fill:none;stroke:#ffffff;stroke-width:1;stroke-linecap:round;stroke-linejoin:round;stroke-miterlimit:4;stroke-dasharray:none;stroke-opacity:1"
     d="M 23.584961,22.613626 V 18.226483 H 18.41286"
     id="path2488"
     sodipodi:nodetypes="ccc" />
  <path
     style="fill:none;stroke:#ffffff;stroke-width:1;stroke-linecap:round;stroke-linejoin:round;stroke-miterlimit:4;stroke-dasharray:none;stroke-opacity:1"
     d="M 28.100696,19.064665 V 22.69817"
     id="path2490"
     sodipodi:nodetypes="cc" />
  <path
     style="fill:none;stroke:#ffffff;stroke-width:1;stroke-linecap:round;stroke-linejoin:round;stroke-miterlimit:4;stroke-dasharray:none;stroke-opacity:1"
     d="m 17.28918,29.651609 v 3.972033"
     id="path2492"
     sodipodi:nodetypes="cc" />
  <path
     style="fill:none;stroke:#ffffff;stroke-width:1;stroke-linecap:round;stroke-linejoin:round;stroke-miterlimit:4;stroke-dasharray:none;stroke-opacity:1"
     d="m 23.574324,29.767539 v 8.172822 h 7.694079"
     id="path2494"
     sodipodi:nodetypes="ccc" />
  <path
     style="fill:none;stroke:#ffffff;stroke-width:1;stroke-linecap:round;stroke-linejoin:round;stroke-miterlimit:4;stroke-dasharray:none;stroke-opacity:1"
     d="m 34.147606,29.61502 v 6.399979"
     id="path2496"
     sodipodi:nodetypes="cc" />
  <path
     style="fill:none;stroke:#ffffff;stroke-width:1;stroke-linecap:round;stroke-linejoin:round;stroke-miterlimit:4;stroke-dasharray:none;stroke-opacity:1"
     d="m 34.149289,32.712249 h 8.348614"
     id="path2498"
     sodipodi:nodetypes="cc" />
  <path
     style="fill:none;stroke:#ffffff;stroke-width:1;stroke-linecap:round;stroke-linejoin:round;stroke-miterlimit:4;stroke-dasharray:none;stroke-opacity:1"
     d="m 35.115898,12.002254 v 4.991968 h 2.616516 v 5.590572"
     id="path2500"
     sodipodi:nodetypes="cccc" />
  <path
     style="fill:none;stroke:#ffffff;stroke-width:1;stroke-linecap:round;stroke-linejoin:round;stroke-opacity:1;stroke-miterlimit:4;stroke-dasharray:none"
     d="m 11.544724,24.145363 v -0.70057 c 1.511337,0 1.469243,0.70057 0,0.70057 z"
     id="path2504"
     sodipodi:nodetypes="ccc" />
  <path
     style="fill:none;stroke:#ffffff;stroke-width:1;stroke-linecap:round;stroke-linejoin:round;stroke-opacity:1;stroke-miterlimit:4;stroke-dasharray:none"
     d="m 11.544724,26.970001 v -0.70057 c 1.956586,0.0337 1.958682,0.70057 0,0.70057 z"
     id="path2504-9"
     sodipodi:nodetypes="ccc" />
</svg>
