<?xml version="1.0" encoding="UTF-8"?><svg id="a" xmlns="http://www.w3.org/2000/svg" viewBox="0 0 48 48"><defs><style>.d{fill:none;stroke:#fff;stroke-linecap:round;stroke-linejoin:round;}</style></defs><g id="b"><path id="c" class="d" d="m40.5,5.5H7.5c-1.1046,0-2,.8954-2,2v33c0,1.1046.8954,2,2,2h33c1.1046,0,2-.8954,2-2V7.5c0-1.1046-.8954-2-2-2Z"/></g><g><g><line class="d" x1="24.8351" y1="24" x2="19.3315" y2="24"/><path class="d" d="m19.3315,12.5h4.8297c2.1171,0,3.8333,1.7162,3.8333,3.8333v3.8333c0,2.1171-1.7162,3.8333-3.8333,3.8333h.6739c2.1171,0,3.8333,1.7162,3.8333,3.8333v3.8333c0,2.1171-1.7162,3.8333-3.8333,3.8333h-5.5036"/></g><line class="d" x1="19.3315" y1="12.5" x2="19.3315" y2="35.5"/></g></svg>