<?xml version="1.0" encoding="UTF-8" standalone="no"?>
<svg
   viewBox="0 0 48 48"
   version="1.1"
   id="svg8"
   sodipodi:docname="bluecoins.svg"
   inkscape:version="1.1 (c68e22c387, 2021-05-23)"
   xmlns:inkscape="http://www.inkscape.org/namespaces/inkscape"
   xmlns:sodipodi="http://sodipodi.sourceforge.net/DTD/sodipodi-0.dtd"
   xmlns="http://www.w3.org/2000/svg"
   xmlns:svg="http://www.w3.org/2000/svg">
  <sodipodi:namedview
     id="namedview10"
     pagecolor="#5c5c5c"
     bordercolor="#666666"
     borderopacity="1.0"
     inkscape:pageshadow="2"
     inkscape:pageopacity="0"
     inkscape:pagecheckerboard="true"
     showgrid="false"
     inkscape:zoom="22.185475"
     inkscape:cx="14.423851"
     inkscape:cy="25.354426"
     inkscape:window-width="1271"
     inkscape:window-height="1003"
     inkscape:window-x="1157"
     inkscape:window-y="667"
     inkscape:window-maximized="0"
     inkscape:current-layer="svg8"
     inkscape:object-paths="true"
     inkscape:snap-intersection-paths="true"
     inkscape:snap-smooth-nodes="true" />
  <defs
     id="defs4">
    <style
       id="style2">.a{fill:none;stroke:#fff;stroke-linecap:round;stroke-linejoin:round;}</style>
  </defs>
  <path
     id="path856"
     style="font-variation-settings:normal;opacity:1;vector-effect:none;fill:none;fill-opacity:1;fill-rule:evenodd;stroke:#ffffff;stroke-width:1;stroke-linecap:round;stroke-linejoin:round;stroke-miterlimit:4;stroke-dasharray:none;stroke-dashoffset:0;stroke-opacity:1;-inkscape-stroke:none;stop-color:#000000;stop-opacity:1"
     d="m 19.024204,24.171559 c 1.708551,-1.650662 2.677203,-3.921952 2.685778,-6.297613 0,-4.860524 -3.940233,-8.8007576 -8.800759,-8.8007576 -4.8605248,0 -8.8007587,3.9402336 -8.8007587,8.8007576 0.0078,2.278454 0.8989266,4.465088 2.4859563,6.099942"
     sodipodi:nodetypes="ccscc" />
  <path
     id="path856-57"
     style="font-variation-settings:normal;vector-effect:none;fill:none;fill-opacity:1;fill-rule:evenodd;stroke:#ffffff;stroke-width:1;stroke-linecap:round;stroke-linejoin:round;stroke-miterlimit:4;stroke-dasharray:none;stroke-dashoffset:0;stroke-opacity:1;-inkscape-stroke:none;stop-color:#000000"
     d="m 21.556711,28.249011 c -0.655616,-2.283421 -2.206534,-4.204799 -4.300233,-5.327413 -4.291873,-2.281341 -9.6205161,-0.651481 -11.9018571,3.64039 -2.2813413,4.291874 -0.651483,9.620518 3.6403909,11.90186 2.0155442,1.062538 4.3646202,1.30198 6.5530962,0.667958"
     sodipodi:nodetypes="ccscc" />
  <path
     id="path856-57-7"
     style="font-variation-settings:normal;vector-effect:none;fill:none;fill-opacity:1;fill-rule:evenodd;stroke:#ffffff;stroke-width:1;stroke-linecap:round;stroke-linejoin:round;stroke-miterlimit:4;stroke-dasharray:none;stroke-dashoffset:0;stroke-opacity:1;-inkscape-stroke:none;stop-color:#000000"
     d="m 26.279603,28.223311 c -2.291997,-0.624982 -4.739307,-0.296804 -6.785674,0.909938 -4.17783,2.484035 -5.55092,7.884545 -3.066888,12.062373 2.484038,4.17783 7.884546,5.550923 12.062376,3.066888 1.954446,-1.171127 3.378527,-3.054606 3.972681,-5.254241"
     sodipodi:nodetypes="ccscc" />
  <path
     id="path856-57-0"
     style="font-variation-settings:normal;vector-effect:none;fill:none;fill-opacity:1;fill-rule:evenodd;stroke:#ffffff;stroke-width:1;stroke-linecap:round;stroke-linejoin:round;stroke-miterlimit:4;stroke-dasharray:none;stroke-dashoffset:0;stroke-opacity:1;-inkscape-stroke:none;stop-color:#000000"
     d="m 26.400656,19.847632 c 0.634205,2.289459 2.167062,4.225276 4.250158,5.367446 4.270326,2.321428 9.613996,0.741528 11.935422,-3.528786 2.321429,-4.270324 0.741528,-9.613998 -3.528783,-11.9354255 -2.005508,-1.0813649 -4.352238,-1.3427942 -6.546555,-0.729292"
     sodipodi:nodetypes="ccscc" />
  <path
     id="path856-57-4"
     style="font-variation-settings:normal;vector-effect:none;fill:none;fill-opacity:1;fill-rule:evenodd;stroke:#ffffff;stroke-width:1;stroke-linecap:round;stroke-linejoin:round;stroke-miterlimit:4;stroke-dasharray:none;stroke-dashoffset:0;stroke-opacity:1;-inkscape-stroke:none;stop-color:#000000"
     d="m 21.802397,19.798312 c 2.297925,0.602814 4.741952,0.251014 6.776568,-0.975438 C 32.732606,16.2986 34.053469,10.885083 31.529198,6.73144 29.004925,2.5777989 23.591406,1.2569332 19.437763,3.7812057 17.494718,4.9711582 16.088899,6.8683039 15.516017,9.0735732"
     sodipodi:nodetypes="ccscc" />
  <path
     id="path856-57-78"
     style="font-variation-settings:normal;vector-effect:none;fill:none;fill-opacity:1;fill-rule:evenodd;stroke:#ffffff;stroke-width:1;stroke-linecap:round;stroke-linejoin:round;stroke-miterlimit:4;stroke-dasharray:none;stroke-dashoffset:0;stroke-opacity:1;-inkscape-stroke:none;stop-color:#000000"
     d="m 28.536568,24.35577 c -1.609288,1.747582 -2.443702,4.071539 -2.31359,6.443652 0.283719,4.852236 4.44724,8.555747 9.299474,8.272027 4.852237,-0.283728 8.555751,-4.447242 8.272027,-9.299477 -0.14076,-2.274114 -1.158031,-4.404999 -2.837784,-5.944427"
     sodipodi:nodetypes="ccscc" />
</svg>
