<?xml version="1.0" encoding="UTF-8" standalone="no"?>
<!-- Created with Inkscape (http://www.inkscape.org/) -->

<svg
   width="48"
   height="48"
   viewBox="0 0 48 48"
   version="1.1"
   id="svg5"
   xml:space="preserve"
   xmlns="http://www.w3.org/2000/svg"
   xmlns:svg="http://www.w3.org/2000/svg"><defs
     id="defs2"><linearGradient
       id="linearGradient6446"><stop
         style="stop-color:#000000;stop-opacity:1;"
         offset="0"
         id="stop6444" /></linearGradient><linearGradient
       id="linearGradient6440"><stop
         style="stop-color:#000000;stop-opacity:1;"
         offset="0"
         id="stop6438" /></linearGradient><linearGradient
       id="linearGradient6389"><stop
         style="stop-color:#000000;stop-opacity:1;"
         offset="0"
         id="stop6387" /></linearGradient><linearGradient
       id="linearGradient3648"><stop
         style="stop-color:#000000;stop-opacity:1;"
         offset="0"
         id="stop3646" /></linearGradient><style
       id="style7255">.a{fill:none;stroke:#fff;stroke-linecap:round;stroke-linejoin:round;}</style></defs><g
     id="layer1"
     style="display:inline"><path
       class="a"
       d="M 44.84211,0.63158 H 3.157896 A 2.526316,2.5263158 0 0 0 0.63158,3.1578955 V 44.842104 a 2.526316,2.5263158 0 0 0 2.526316,2.526317 H 44.84211 a 2.526316,2.5263158 0 0 0 2.526315,-2.526317 V 3.1578955 A 2.526316,2.5263158 0 0 0 44.84211,0.63158 Z"
       id="path7259"
       style="display:inline;opacity:1;stroke:#ffffff;stroke-width:1.26316" /><path
       style="opacity:1;fill:#000000;fill-opacity:0;stroke:#ffffff;stroke-width:1.109;stroke-linecap:round;stroke-linejoin:round;stroke-dasharray:none;stroke-opacity:1"
       d="M 1.0549808,20.196744 17.423266,9.862505 l 7.883609,7.702959"
       id="path11127" /><path
       style="opacity:1;fill:#ffffff;fill-opacity:0;stroke:#ffffff;stroke-width:1.109;stroke-linecap:round;stroke-linejoin:round;stroke-dasharray:none;stroke-opacity:1"
       d="m 25.647438,21.71783 12.297816,-8.093286 9.181028,7.771994"
       id="path11131" /><path
       style="opacity:1;fill:#ffffff;fill-opacity:0;stroke:#ffffff;stroke-width:1.09921;stroke-linecap:round;stroke-linejoin:round;stroke-dasharray:none;stroke-opacity:1"
       d="M 47.458132,34.551162 H 0.70265839 v 8.052899 H 47.411968 v -8.052899 z"
       id="path11462" /><path
       style="opacity:1;fill:#ffffff;fill-opacity:0;stroke:#ffffff;stroke-width:1.09687;stroke-linecap:round;stroke-linejoin:round;stroke-dasharray:none;stroke-opacity:1"
       d="M 1.0043511,44.703023 H 47.061427"
       id="path11464" /><path
       style="opacity:1;fill:#ffffff;fill-opacity:0;stroke:#ffffff;stroke-width:1.109;stroke-linecap:round;stroke-linejoin:round;stroke-dasharray:none;stroke-opacity:1"
       d="M 1.2659116,32.214147 H 47.501252"
       id="path11466" /><path
       style="opacity:1;fill:#ffffff;fill-opacity:0;stroke:#ffffff;stroke-width:1.109;stroke-linecap:round;stroke-linejoin:round;stroke-dasharray:none;stroke-opacity:1"
       d="m 33.344296,12.820118 c 0,0 -1.261333,-2.8500077 -9.589818,-2.106656 l 4.607776,5.031592 z"
       id="path11482" /><path
       style="opacity:1;fill:#ffffff;fill-opacity:0;stroke:#ffffff;stroke-width:1.109;stroke-linecap:round;stroke-linejoin:round;stroke-dasharray:none;stroke-opacity:1"
       d="m 5.8298411,25.9878 c 0.5562026,0.383927 1.2379495,0.582694 1.9133336,0.557843 0.5928432,-0.02181 1.1784182,-0.214623 1.6682488,-0.549294"
       id="path11502" /><path
       style="fill:#ffffff;fill-opacity:0;stroke:#ffffff;stroke-width:1.109;stroke-linecap:round;stroke-linejoin:round;stroke-dasharray:none;stroke-opacity:1"
       d="M 0.71092756,24.660054 C 1.03563,25.268927 1.5398055,25.780677 2.1437692,26.114422 2.7477329,26.448167 3.4493027,26.602701 4.1375955,26.5536 4.7275366,26.511515 5.3063049,26.320948 5.8058443,26.004306"
       id="path11502-2" /><path
       style="fill:#ffffff;fill-opacity:0;stroke:#ffffff;stroke-width:1.109;stroke-linecap:round;stroke-linejoin:round;stroke-dasharray:none;stroke-opacity:1"
       d="m 9.5253269,25.981797 c 0.5562031,0.383927 1.2379501,0.582694 1.9133341,0.557843 0.592843,-0.02181 1.178418,-0.214623 1.668248,-0.549294"
       id="path11502-6" /><path
       style="fill:#ffffff;fill-opacity:0;stroke:#ffffff;stroke-width:1.109;stroke-linecap:round;stroke-linejoin:round;stroke-dasharray:none;stroke-opacity:1"
       d="m 13.142889,25.987592 c 0.556202,0.383927 1.237949,0.582694 1.913333,0.557843 0.592843,-0.02181 1.178418,-0.214622 1.668249,-0.549294"
       id="path11502-3" /><path
       style="fill:#ffffff;fill-opacity:0;stroke:#ffffff;stroke-width:1.109;stroke-linecap:round;stroke-linejoin:round;stroke-dasharray:none;stroke-opacity:1"
       d="m 16.838374,25.981589 c 0.556203,0.383927 1.23795,0.582694 1.913334,0.557843 0.592843,-0.02181 1.178418,-0.214623 1.668248,-0.549294"
       id="path11502-6-5" /><path
       style="fill:#ffffff;fill-opacity:0;stroke:#ffffff;stroke-width:1.109;stroke-linecap:round;stroke-linejoin:round;stroke-dasharray:none;stroke-opacity:1"
       d="m 20.543241,25.984282 c 0.556202,0.383927 1.237949,0.582694 1.913333,0.557843 0.592843,-0.02181 1.178418,-0.214622 1.668249,-0.549294"
       id="path11502-3-9" /><path
       style="fill:#ffffff;fill-opacity:0;stroke:#ffffff;stroke-width:1.109;stroke-linecap:round;stroke-linejoin:round;stroke-dasharray:none;stroke-opacity:1"
       d="m 24.238726,25.978279 c 0.556203,0.383927 1.23795,0.582694 1.913334,0.557843 0.592843,-0.02181 1.178418,-0.214623 1.668248,-0.549294"
       id="path11502-6-5-1" /><path
       style="fill:#ffffff;fill-opacity:0;stroke:#ffffff;stroke-width:1.109;stroke-linecap:round;stroke-linejoin:round;stroke-dasharray:none;stroke-opacity:1"
       d="m 27.917457,25.986752 c 0.556202,0.383927 1.237949,0.582694 1.913333,0.557843 0.592843,-0.02181 1.178418,-0.214622 1.668249,-0.549294"
       id="path11502-3-9-0" /><path
       style="fill:#ffffff;fill-opacity:0;stroke:#ffffff;stroke-width:1.109;stroke-linecap:round;stroke-linejoin:round;stroke-dasharray:none;stroke-opacity:1"
       d="m 31.612942,25.980749 c 0.556203,0.383927 1.23795,0.582694 1.913334,0.557843 0.592843,-0.02181 1.178418,-0.214623 1.668248,-0.549294"
       id="path11502-6-5-1-9" /><path
       style="fill:#ffffff;fill-opacity:0;stroke:#ffffff;stroke-width:1.109;stroke-linecap:round;stroke-linejoin:round;stroke-dasharray:none;stroke-opacity:1"
       d="m 35.228937,25.986322 c 0.556202,0.383927 1.237949,0.582694 1.913333,0.557843 0.592843,-0.02181 1.178418,-0.214622 1.668249,-0.549294"
       id="path11502-3-9-0-0" /><path
       style="fill:#ffffff;fill-opacity:0;stroke:#ffffff;stroke-width:1.109;stroke-linecap:round;stroke-linejoin:round;stroke-dasharray:none;stroke-opacity:1"
       d="m 38.924422,25.980319 c 0.556203,0.383927 1.23795,0.582694 1.913334,0.557843 0.592843,-0.02181 1.178418,-0.214623 1.668248,-0.549294"
       id="path11502-6-5-1-9-6" /><path
       style="fill:#ffffff;fill-opacity:0;stroke:#ffffff;stroke-width:1.109;stroke-linecap:round;stroke-linejoin:round;stroke-dasharray:none;stroke-opacity:1"
       d="m 42.594574,25.983353 c 0.554118,0.387751 1.237653,0.587039 1.913334,0.557843 0.597165,-0.0258 1.185584,-0.228715 1.671722,-0.576482 0.486138,-0.347766 0.868219,-0.839116 1.085507,-1.395944"
       id="path11502-6-5-1-9-6-6" /></g></svg>
