<?xml version="1.0" encoding="UTF-8" standalone="no"?>
<svg
   xmlns:dc="http://purl.org/dc/elements/1.1/"
   xmlns:cc="http://creativecommons.org/ns#"
   xmlns:rdf="http://www.w3.org/1999/02/22-rdf-syntax-ns#"
   xmlns:svg="http://www.w3.org/2000/svg"
   xmlns="http://www.w3.org/2000/svg"
   xmlns:sodipodi="http://sodipodi.sourceforge.net/DTD/sodipodi-0.dtd"
   xmlns:inkscape="http://www.inkscape.org/namespaces/inkscape"
   width="48pt"
   height="48pt"
   viewBox="0 0 48 48"
   version="1.1"
   id="svg23"
   sodipodi:docname="boc.svg"
   inkscape:version="1.0.1 (3bc2e813f5, 2020-09-07)">
  <defs
     id="defs27" />
  <sodipodi:namedview
     pagecolor="#ffffff"
     bordercolor="#666666"
     borderopacity="1"
     objecttolerance="10"
     gridtolerance="10"
     guidetolerance="10"
     inkscape:pageopacity="0"
     inkscape:pageshadow="2"
     inkscape:window-width="1872"
     inkscape:window-height="1054"
     id="namedview25"
     showgrid="false"
     inkscape:zoom="11.171875"
     inkscape:cx="30.478322"
     inkscape:cy="32"
     inkscape:window-x="0"
     inkscape:window-y="0"
     inkscape:window-maximized="1"
     inkscape:current-layer="svg23" />
  <path
     style="fill:none;stroke:#ffffff;stroke-width:0.75;stroke-linecap:round;stroke-linejoin:round;stroke-miterlimit:4;stroke-opacity:1;stroke-dasharray:none"
     d="M 42.191406,24 C 42.191406,34.046875 34.046875,42.191406 24,42.191406 13.953125,42.191406 5.808594,34.046875 5.808594,24 5.808594,13.953125 13.953125,5.808594 24,5.808594 34.046875,5.808594 42.191406,13.953125 42.191406,24 Z m 0,0"
     id="path2" />
  <path
     style="fill:none;stroke:#ffffff;stroke-width:0.75;stroke-linecap:round;stroke-linejoin:round;stroke-miterlimit:4;stroke-opacity:1;stroke-dasharray:none"
     d="m 26.144531,10.449219 c 6.65625,1.054687 11.5625,6.78125 11.574219,13.519531 0.01563,6.738281 -4.863281,12.488281 -11.511719,13.574219"
     id="path4" />
  <path
     style="fill:none;stroke:#ffffff;stroke-width:0.75;stroke-linecap:round;stroke-linejoin:round;stroke-miterlimit:4;stroke-opacity:1;stroke-dasharray:none"
     d="M 21.703125,10.449219 C 15.046875,11.5 10.144531,17.230469 10.128906,23.96875 c -0.01563,6.738281 4.863282,12.488281 11.511719,13.574219"
     id="path6" />
  <path
     style="fill:none;stroke:#ffffff;stroke-width:0.75;stroke-linecap:butt;stroke-linejoin:miter;stroke-miterlimit:4;stroke-opacity:1;stroke-dasharray:none"
     d="M 20.324219,20.566406 H 27.4375 c 0.570312,0 1.027344,0.460938 1.027344,1.027344 v 4.746094 c 0,0.566406 -0.457032,1.027344 -1.027344,1.027344 h -7.113281 c -0.570313,0 -1.027344,-0.460938 -1.027344,-1.027344 V 21.59375 c 0,-0.566406 0.457031,-1.027344 1.027344,-1.027344 z m 0,0"
     id="path8" />
  <path
     style="fill:none;stroke:#ffffff;stroke-width:0.75;stroke-linecap:round;stroke-linejoin:round;stroke-miterlimit:4;stroke-opacity:1;stroke-dasharray:none"
     d="m 21.703125,10.449219 c 0,0 -0.0078,6.363281 -0.0078,6.363281"
     id="path10" />
  <path
     style="fill:none;stroke:#ffffff;stroke-width:0.75;stroke-linecap:round;stroke-linejoin:round;stroke-miterlimit:4;stroke-opacity:1;stroke-dasharray:none"
     d="m 26.144531,10.449219 c 0,0 -0.0078,6.363281 -0.0078,6.363281"
     id="path12" />
  <path
     style="fill:none;stroke:#ffffff;stroke-width:0.75;stroke-linecap:round;stroke-linejoin:round;stroke-miterlimit:4;stroke-opacity:1;stroke-dasharray:none"
     d="m 21.648438,31.175781 c 0,0 -0.0078,6.367188 -0.0078,6.367188"
     id="path14" />
  <path
     style="fill:none;stroke:#ffffff;stroke-width:0.75;stroke-linecap:round;stroke-linejoin:round;stroke-miterlimit:4;stroke-opacity:1;stroke-dasharray:none"
     d="m 26.09375,31.175781 c 0,0 -0.0078,6.367188 -0.0078,6.367188"
     id="path16" />
  <path
     style="fill:none;stroke:#ffffff;stroke-width:0.75;stroke-linecap:round;stroke-linejoin:round;stroke-miterlimit:4;stroke-opacity:1;stroke-dasharray:none"
     d="m 21.632812,17.023438 c -3.472656,0.519531 -6.035156,3.453124 -6.03125,6.902343 0,3.449219 2.566407,6.378907 6.035157,6.894531"
     id="path18" />
  <path
     style="fill:none;stroke:#ffffff;stroke-width:0.75;stroke-linecap:round;stroke-linejoin:round;stroke-miterlimit:4;stroke-opacity:1;stroke-dasharray:none"
     d="m 26.207031,17.023438 c 3.46875,0.519531 6.03125,3.453124 6.03125,6.902343 -0.0039,3.449219 -2.566406,6.378907 -6.039062,6.894531"
     id="path20" />
</svg>
