<svg id="Layer_2" data-name="Layer 2" xmlns="http://www.w3.org/2000/svg" viewBox="0 0 48 48"><defs><style>.cls-1{fill:none;stroke:#fff;stroke-linecap:round;stroke-linejoin:round;}.cls-2{fill:#fff;}</style></defs><path class="cls-1" d="M40.5,5.5H7.5a2,2,0,0,0-2,2v33a2,2,0,0,0,2,2h33a2,2,0,0,0,2-2V7.5A2,2,0,0,0,40.5,5.5Z"/><line class="cls-1" x1="9.9" y1="31.2" x2="9.9" y2="16.8"/><path class="cls-1" d="M9.9,16.8h6a3.59,3.59,0,0,1,3.6,3.6h0A3.59,3.59,0,0,1,15.9,24h-6"/><path class="cls-1" d="M9.9,24h6a3.59,3.59,0,0,1,3.6,3.6h0a3.59,3.59,0,0,1-3.6,3.6h-6"/><path class="cls-1" d="M25.4,31.2h0a3.59,3.59,0,0,1-3.6-3.6V25.4a3.59,3.59,0,0,1,3.6-3.6h0A3.59,3.59,0,0,1,29,25.4v2.2A3.59,3.59,0,0,1,25.4,31.2Z"/><path class="cls-1" d="M35.4,18.8V29.4a1.79,1.79,0,0,0,1.8,1.8h.7"/><line class="cls-1" x1="31.3" y1="18.8" x2="31.3" y2="31.2"/><line class="cls-1" x1="33.5" y1="21.8" x2="35.4" y2="21.8"/><line class="cls-1" x1="35.4" y1="21.8" x2="37.3" y2="21.8"/><circle class="cls-2" cx="25.4" cy="33.3" r="0.8"/></svg>