<svg xmlns="http://www.w3.org/2000/svg" viewBox="0 0 48 48"><defs><style>.a{fill:none;stroke:#fff;stroke-linecap:round;stroke-linejoin:round;}</style></defs> <path  class="a"  d="M32.83,39.17C32.33,39.28,30.89,41.25,27.65,39.44M14.50,39.18C17.64,41.17,19.18,39.28,19.37,39.31"/> <path  class="a"  d="M25.33,23.04C23.97,24.40,22.43,23.66,21.72,23.05"/> <path  class="a"  d="M14.87,21.82L14.11,22.61"/> <path  class="a"  d="M16.39,21.94L15.63,22.75"/> <path  class="a"  d="M17.81,22.10L17.05,22.95"/> <path  class="a"  d="M29.23,22.18L30.04,22.98"/> <path  class="a"  d="M30.63,21.97L31.43,22.74"/> <path  class="a"  d="M32.08,21.74L32.87,22.48"/> <path class="a"  d="M28.43,16.69C29.03,17.34,28.60,18.27,27.59,17.95C27.55,18.24,27.56,18.52,27.69,18.87C28.57,21.01,31.17,20.18,31.43,18.81C31.96,16.53,29.34,15.75,28.43,16.69z"/> <path  class="a"  d="M16.49,16.63C17.08,17.26,16.66,18.17,15.67,17.86C15.64,18.14,15.64,18.42,15.78,18.76C16.63,20.84,19.16,20.04,19.42,18.70C19.93,16.48,17.38,15.72,16.49,16.63z"/> <path  class="a"  d="M31.95,38.77C41.89,43.02,35.24,29.94,36.24,24.57C39.05,0.81,8.85,0.81,11.13,24.67C10.21,33.17,6.68,43.17,15.77,38.58C19.47,37.38,22.13,43.16,25.24,40.78C28.80,38.73,30.05,37.76,31.95,38.77z"/></svg>