<svg xmlns="http://www.w3.org/2000/svg" viewBox="0 0 48 48"><defs><style>.a{fill:none;stroke:#000;stroke-linecap:round;stroke-linejoin:round;}</style></defs><path class="a" d="M37.42,14.7a4.1,4.1,0,0,0-4.08-4.11h0a4.11,4.11,0,1,0,0,8.21,4.09,4.09,0,0,0,2.88-1.18,4,4,0,0,0,1.19-2.92ZM16.1,29.44l-2-2L7.9,29.42H7.7a.69.69,0,0,1-.53-.2L5.72,27.79a.7.7,0,0,1-.11-.88L7.3,24a13,13,0,0,1,10.07-6.39l2.49-.22q2.17-2.58,4-4.42A26.4,26.4,0,0,1,32,7.12a25.63,25.63,0,0,1,9.77-1.61.79.79,0,0,1,.54.22.68.68,0,0,1,.22.5A25.27,25.27,0,0,1,40.78,16,25.79,25.79,0,0,1,35,24.16c-1.23,1.24-2.71,2.57-4.42,4l-.22,2.48A13,13,0,0,1,24,40.72l-2.89,1.69a.78.78,0,0,1-.37.09.82.82,0,0,1-.52-.2l-1.45-1.46a.69.69,0,0,1-.18-.71l1.93-6.27-1.94-1.94"/><line class="a" x1="30.62" y1="28.16" x2="20.52" y2="33.86"/><line class="a" x1="19.86" y1="17.39" x2="14.15" y2="27.49"/><path class="a" d="M13,35c4-.74,11.1-7.4,11.93-11.93C20.37,23.94,13.71,31,13,35Z"/></svg>