<?xml version="1.0" encoding="UTF-8" standalone="no"?>
<!-- Created with Inkscape (http://www.inkscape.org/) -->

<svg
   width="48"
   height="48"
   viewBox="0 0 48 48"
   version="1.1"
   id="svg1"
   xml:space="preserve"
   xmlns="http://www.w3.org/2000/svg"
   xmlns:svg="http://www.w3.org/2000/svg"><defs
     id="defs1" /><path
     style="opacity:1;fill:none;stroke:#ffffff;stroke-width:1.34272;stroke-linecap:round;stroke-linejoin:round"
     d="m 23.999999,15.845432 18.32866,7.586864 -6.109554,14.021464 c -2.092327,0.414736 -5.021493,-1.32003 -6.109552,-3.50502 -3.819426,4.170358 -8.223729,4.200375 -12.219107,0 -1.530649,1.911006 -3.358259,3.722485 -6.109553,3.50502 L 5.6713405,23.507413 Z"
     id="path1" /><path
     style="opacity:1;fill:none;stroke:#ffffff;stroke-width:1.34272;stroke-linecap:round;stroke-linejoin:round"
     d="M 35.868481,20.758206 V 11.838107 H 11.511784 l -0.0473,9.247582"
     id="path2" /><path
     style="opacity:1;fill:none;stroke:#ffffff;stroke-width:1.34272;stroke-linecap:round;stroke-linejoin:round"
     d="m 36.539843,42.044964 c -2.419469,0.13915 -4.859635,-0.454617 -6.681977,-3.855565 -2.820338,3.336204 -8.352536,4.156604 -12.125562,2e-6 -2.221914,2.5749 -4.334635,3.898392 -6.939186,3.855563"
     id="path3" /><path
     style="opacity:1;fill:none;stroke:#ffffff;stroke-width:1.34272;stroke-linecap:round;stroke-linejoin:round"
     d="M 29.624362,11.838107 V 5.9422244 H 17.088969 v 5.8958826"
     id="path4" /></svg>
