<svg version="1.1" viewBox="0 0 48 48" xmlns="http://www.w3.org/2000/svg">
 <g transform="translate(-21.876 -59.65)" fill="none" stroke="#fff" stroke-linecap="round" stroke-linejoin="round">
  <path class="st5" d="m55.75 82.387c0.50154-0.24937 0.50154-0.74018 0.50154-0.98735v-0.6553" fill="none" stroke="#fff" stroke-linecap="round" stroke-linejoin="round"/>
 </g>
 <circle class="st6" cx="34.124" cy="21" r=".75" fill="#fff"/>
 <g fill="none" stroke="#fff" stroke-linecap="round" stroke-linejoin="round">
  <g transform="translate(-257.13 -27.4)">
   <line class="st5" x1="283.35" x2="288.65" y1="40.65" y2="48.65"/>
   <line class="st5" x1="288.65" x2="283.35" y1="40.65" y2="48.65"/>
  </g>
  <path class="st5" d="m21.224 21.25c-1.4636 0-2.65-1.1864-2.65-2.65v-2.7c0-1.4636 1.1864-2.65 2.65-2.65s2.65 1.1864 2.65 2.65v2.7c0 1.4636-1.1864 2.65-2.65 2.65z" stroke-miterlimit="10"/>
  <g transform="translate(-52.426 -27.4)">
   <path class="st5" d="m66.65 44.65c1.1046 0 2 0.89543 2 2s-0.89543 2-2 2h-3.3v-8l3.3 4e-6c1.1046 0 2 0.89543 2 2s-0.89543 2-2 2z"/>
   <line class="st5" x1="66.65" x2="63.35" y1="44.65" y2="44.65"/>
  </g>
  <g transform="translate(-257.13 -13.9)">
   <line class="st5" x1="283.35" x2="288.65" y1="40.65" y2="48.65"/>
   <line class="st5" x1="288.65" x2="283.35" y1="40.65" y2="48.65"/>
  </g>
  <path class="st5" d="m21.224 34.75c-1.4636 0-2.65-1.1864-2.65-2.65v-2.7c0-1.4636 1.1864-2.65 2.65-2.65 1.4636 0 2.65 1.1864 2.65 2.65v2.7c0 1.4636-1.1864 2.65-2.65 2.65z" stroke-miterlimit="10"/>
  <g transform="translate(-52.426 -13.9)">
   <path class="st5" d="m66.65 44.65c1.1046 0 2 0.89543 2 2s-0.89543 2-2 2h-3.3v-8l3.3 4e-6c1.1046 0 2 0.89543 2 2s-0.89543 2-2 2z"/>
   <line class="st5" x1="66.65" x2="63.35" y1="44.65" y2="44.65"/>
  </g>
 </g>
 <circle class="st6" cx="34.124" cy="34.5" r=".75" fill="#fff"/>
 <line class="st5" x1="34.124" x2="34.124" y1="26.5" y2="32.45" stroke="#fff" stroke-linecap="round" stroke-linejoin="round"/>
 <g fill="none" stroke="#fff" stroke-linecap="round" stroke-linejoin="round">
  <path d="m12.574 38.85 15.35 1e-6" stroke-width="1px"/>
  <path d="m12.574 9.65 20.3 1e-6" stroke-width="1px"/>
  <rect x="5.5" y="5.5" width="37" height="37" rx="1" style="paint-order:stroke fill markers"/>
 </g>
</svg>
