<?xml version="1.0" encoding="UTF-8"?>
<svg id="b" version="1.1" viewBox="0 0 48 48" xmlns="http://www.w3.org/2000/svg">
 <defs>
  <style>.c{stroke-width:1px;}.c,.d{fill:none;stroke:#fff;stroke-linecap:round;stroke-linejoin:round;}.e{fill:#fff;stroke-width:0px;}</style>
 </defs>
 <path class="d" d="m40.5,5.5H7.5c-1.1046,0-2,.8954-2,2v33c0,1.1046.8954,2,2,2h33c1.1046,0,2-.8954,2-2V7.5c0-1.1046-.8954-2-2-2Z"/>
 <g fill="none" stroke="#fff" stroke-linecap="round" stroke-linejoin="round" stroke-miterlimit="10">
  <g transform="matrix(.87653 0 0 .87653 1.3094 2.8887)" stroke-width="1.1409">
   <path class="st5" d="m10.672 24.161c0.89498 0 1.6272 0.73226 1.6272 1.6272s-0.73226 1.6272-1.6272 1.6272h-2.6849v-6.509h2.6849c0.89498 0 1.6272 0.73226 1.6272 1.6272s-0.73226 1.6272-1.6272 1.6272z"/>
   <line class="st5" x1="10.545" x2="8.0326" y1="24.161" y2="24.161"/>
  </g>
  <path class="st5" d="m15.972 26.92c-1.0697 0-1.8542-0.8558-1.8542-1.8542v-1.9256c0-1.0697 0.8558-1.9256 1.8542-1.9256 1.0697 0 1.9256 0.85579 1.9256 1.9256v1.8542c0 1.0697-0.8558 1.9256-1.9256 1.9256z"/>
  <g transform="matrix(.71317 0 0 .71317 -189.93 -7.812)" stroke-width="1.4022">
   <polyline class="st5" points="298.6 40.7 296 44.7 293.4 40.7"/>
   <line class="st5" x1="296" x2="296" y1="48.7" y2="44.7"/>
  </g>
 </g>
 <g>
  <g transform="matrix(.71317 0 0 .71317 -105.86 -7.812)" stroke-width="1.4022">
   <polyline class="st5" points="183.4 48.7 183.4 40.7 188.7 48.7 188.7 40.7" fill="none" stroke="#fff" stroke-linecap="round" stroke-linejoin="round" stroke-miterlimit="10" stroke-width="1.4022"/>
  </g>
  <g transform="matrix(.71317 0 0 .71317 -36.104 -7.812)" fill="none" stroke="#fff" stroke-linecap="round" stroke-linejoin="round" stroke-miterlimit="10" stroke-width="1.4022">
   <line class="st5" x1="94" x2="96.6" y1="44.7" y2="44.7"/>
   <polyline class="st5" points="98 48.7 94 48.7 94 40.7 98 40.7"/>
  </g>
  <g transform="matrix(.87653 0 0 .87653 4.5562 2.8887)">
   <g transform="matrix(.81362 0 0 .81362 -145.9 -12.208)" stroke-width="1.4022">
    <path class="st5" d="m223.4 48.7v-8h2.6c1.5 0 2.7 1.2 2.7 2.7s-1.2 2.7-2.7 2.7h-2.6" fill="none" stroke="#fff" stroke-linecap="round" stroke-linejoin="round" stroke-miterlimit="10" stroke-width="1.4022"/>
   </g>
   <g transform="matrix(.76772 0 0 .76772 -135.38 -9.9485)" stroke-width="1.486">
    <g stroke-width="1.486">
     <line class="st5" x1="226" x2="228.6" y1="46" y2="48.6" fill="none" stroke="#fff" stroke-linecap="round" stroke-linejoin="round" stroke-miterlimit="10" stroke-width="1.486"/>
    </g>
   </g>
  </g>
 </g>
</svg>
