<?xml version="1.0" encoding="UTF-8"?>
<svg width="48" height="48" version="1.1" viewBox=".01 -.004 2.6903 2.6921" xmlns="http://www.w3.org/2000/svg"><path d="m1.8021 1.7159c-0.00924 0.054303-0.069118 0.3661-0.43469 0.3661-0.35666 0-0.44179-0.33933-0.44179-0.3661 0 0-0.018613-0.071413 0.066954-0.056995 0.1042 0.017556 0.26019 0.022214 0.36111 0.022214 0.12084 0 0.29198-0.00888 0.36665-0.016516 0.082446-0.00831 0.085832 0.027565 0.081769 0.051297zm0.57177-0.63301h-0.022214c-0.068011-0.18022-0.32635-0.72079-0.97896-0.72079-0.73845 0-0.96674 0.58652-1.0092 0.72079h-0.027036c-0.13249 0-0.13837 0.14663-0.13837 0.14663v0.35461c0 0.20516 0.20314 0.16116 0.2738 0.16116 0.070654 0 0.073594-0.090836 0.073594-0.090836v-0.5217c-0.011494-0.026856-0.036789-0.045245-0.065881-0.047895 0.054502-0.15627 0.26651-0.61177 0.89305-0.61177 0.5341 0 0.77088 0.39687 0.85984 0.61144-0.029747 0.00227-0.055786 0.020838-0.067616 0.048226v0.52176s0.00294 0.090836 0.073594 0.090836 0.2738 0.043998 0.2738-0.16116v-0.35467s-0.00586-0.14663-0.13837-0.14663z" fill="none" fill-rule="evenodd" stroke="#fff" stroke-linecap="round" stroke-linejoin="round" stroke-width=".056085"/><circle cx="1.3552" cy="1.5416" r=".72353" fill="none" stroke="#fff" stroke-linecap="round" stroke-linejoin="round" stroke-width=".061632"/><path d="m1.1801 1.4242c0 0.061951-0.050222 0.11217-0.11217 0.11217s-0.11217-0.050222-0.11217-0.11217c0-0.061951 0.050222-0.11217 0.11217-0.11217 0.061951 0 0.11217 0.050222 0.11217 0.11217zm0.35013 0c0 0.061951 0.050222 0.11217 0.11217 0.11217s0.11217-0.050222 0.11217-0.11217c0-0.061951-0.050222-0.11217-0.11217-0.11217-0.061951 0-0.11217 0.050222-0.11217 0.11217z" fill="none" stroke="#fff" stroke-linecap="round" stroke-linejoin="round" stroke-width=".047312"/></svg>
