<svg width="48" height="48" version="1.1" viewBox="0 0 48 48" xmlns="http://www.w3.org/2000/svg">
 <defs>
  <style>.a{fill:none;stroke:#fff;stroke-linecap:round;stroke-linejoin:round;}</style>
  <style>.a{fill:none;stroke:#fff;stroke-linecap:round;stroke-linejoin:round;}</style>
 </defs>
 <g fill="none" stroke="#fff">
  <g stroke-linecap="round" stroke-linejoin="round">
   <path d="m14.98 5.832-2.4238 2.5527-0.80664 17.381c-1.5498 0.49707-1.0625 2.9844-1.0625 2.9844l-3.4297 10.656 0.76367 2.7617h31.958l0.76367-2.7617-3.4297-10.656s0.48729-2.4873-1.0625-2.9844l-0.80664-17.381-2.4238-2.5527h-18.039z"/>
   <path d="m11.75 25.766h12.25"/>
   <path d="M 10.688,28.75 H 24"/>
   <path d="m7.2588 39.407h16.741"/>
   <path d="m24 9.812s-4.6128 0.03953-5.9477 0.10712c-1.7366 0.08794-2.7726 0.5499-3.2332 1.9282-0.40364 1.208-0.29153 5.4181-0.15581 6.4614 0.13572 1.0433 0.6103 2.7825 2.5734 3.0043 1.963 0.22184 6.7633 0.14851 6.7633 0.14851s4.8002 0.07333 6.7633-0.14851c1.963-0.22184 2.4377-1.961 2.5734-3.0043 0.13572-1.0433 0.24783-5.2534-0.15581-6.4614-0.46056-1.3783-1.4966-1.8402-3.2332-1.9282-1.3349-0.067602-5.9477-0.10712-5.9477-0.10712z"/>
   <path d="M 36.25,25.766 H 24"/>
   <path d="M 37.312,28.75 H 24"/>
   <path d="M 40.741,39.407 H 24"/>
  </g>
  <path d="m12.404 30.979-1.9863 6.2637h19.557l-1.3398-6.2637h-16.23z" stroke-linejoin="round"/>
  <path d="m31.84 30.978h3.242c1.5232 4.2808 1.505 4.4477 2.1045 6.2633h-3.7774l-1.5693-6.2633" stroke-linecap="round" stroke-linejoin="round"/>
  <path d="m11.113 34.069h18.286"/>
  <path d="m36.161 34.069h-3.4841"/>
  <path d="m14.484 37.085 1.4477-5.9342"/>
  <path d="m18.532 37.212 0.75955-6.0607"/>
  <path d="m22.32 37.051 0.09951-5.9666"/>
  <path d="m26.139 37.088-0.74577-5.8554"/>
 </g>
 <path class="st0" d="m21.436 15.851" stroke-miterlimit="10"/>
 <g>
  <g transform="matrix(.48092 0 0 .48092 -10.161 -53.314)" stroke-width="2.0794">
   <path class="st0" d="m58.085 148.29c0.3-0.4 0.4-0.8 0.4-1.6v-0.5" stroke-width="2.0794"/>
  </g>
  <circle class="st1" cx="23.427" cy="17.468" r=".71674"/>
  <line class="st0" x1="25.319" x2="27.244" y1="15.596" y2="15.596"/>
  <polyline class="st0" transform="matrix(.48092 0 0 .48092 -56.678 -8.3535)" points="161.8 45 160.2 45 160.2 54.6 161.8 54.6" stroke-width="2.0794"/>
  <polyline class="st0" transform="matrix(.48092 0 0 .48092 -52.489 -8.3535)" points="170.4 45 172 45 172 54.6 170.4 54.6" stroke-width="2.0794"/>
 </g>
 <style type="text/css">.st0{fill:none;stroke:#FFFFFF;stroke-linecap:round;stroke-linejoin:round;stroke-miterlimit:10;}
	.st1{fill:#FFFFFF;}
	.st2{fill:none;stroke:#FFFFFF;stroke-width:0.9976;stroke-linecap:round;stroke-linejoin:round;stroke-miterlimit:10;}
	.st3{fill:none;stroke:#FFFFFF;stroke-width:0.9965;stroke-linecap:round;stroke-linejoin:round;stroke-miterlimit:10;}
	.st4{fill:none;stroke:#FFFFFF;stroke-width:0.8662;stroke-linecap:round;stroke-linejoin:round;stroke-miterlimit:10;}</style>
</svg>
