<svg width="48" height="48" xmlns="http://www.w3.org/2000/svg"><g stroke-miterlimit="8.5"><path d="M13.072 41.371a20.522 20.522 0 0 1-9.17-21.516A20.522 20.522 0 0 1 20.836 3.723a20.522 20.522 0 0 1 21.045 10.206 20.522 20.522 0 0 1-2.18 23.287" fill="none" stroke="#fff" stroke-linecap="round" stroke-linejoin="round"/><path d="M39.702 37.216c.968 2.53 1.08 5.561-.246 7.056-1.954 1.623-6.84-5.36-11.69-3.844-5.512 3.02-11.719 2.904-14.694.943" fill="none" stroke="#fff" stroke-linejoin="round"/><path d="M27.338 23.963c2.842 0 5.168 2.326 5.168 5.168s-2.326 5.168-5.168 5.168h-8.527V13.627h8.527c2.842 0 5.168 2.326 5.168 5.168s-2.326 5.168-5.168 5.168zm0 0h-8.527" style="fill:none;stroke:#fff;stroke-width:.8662;stroke-linecap:round;stroke-linejoin:round;stroke-miterlimit:10"/></g></svg>