<svg width="48" height="49" viewBox="0 0 48 49" fill="none" xmlns="http://www.w3.org/2000/svg">
<path d="M22.3664 43.0977C25.0336 43.3279 27.7175 42.9917 30.2425 42.1133C30.5033 42.0226 30.6334 41.7334 30.5359 41.4751L26.6778 31.2591C26.5803 31.0007 26.2922 30.8722 26.0276 30.9513C25.1751 31.2061 24.2807 31.2984 23.3913 31.2216C22.3355 31.1305 21.3137 30.8036 20.4011 30.2649C19.4885 29.7262 18.7085 28.9895 18.1186 28.1092C17.6216 27.3675 17.2703 26.5399 17.0815 25.6704C17.0229 25.4006 16.7711 25.2104 16.4978 25.2498L5.68936 26.8082C5.41604 26.8477 5.22575 27.1013 5.27234 27.3735C5.72335 30.0086 6.72576 32.5208 8.21604 34.7448C9.79917 37.1074 11.8925 39.0844 14.3415 40.5301C16.7906 41.9758 19.533 42.8532 22.3664 43.0977Z" stroke="white"/>
<path d="M12.3444 9.16319C10.2652 10.7783 8.54588 12.8066 7.29363 15.1184C7.16211 15.3612 7.26086 15.6625 7.50705 15.7876L17.2426 20.7345C17.4887 20.8596 17.7882 20.7603 17.9304 20.5236C18.3799 19.7749 18.9649 19.1145 19.6569 18.577C20.3489 18.0395 21.1334 17.636 21.9701 17.3856C22.2346 17.3064 22.4049 17.0408 22.3445 16.7713L19.9595 6.11471C19.8992 5.84524 19.6317 5.67502 19.3639 5.7424C16.8142 6.38391 14.4236 7.54812 12.3444 9.16319Z" stroke="white"/>
<path d="M38.1669 11.5071C36.3689 9.49533 34.1644 7.89098 31.7013 6.79888C31.4489 6.68695 31.1563 6.8092 31.051 7.0645L26.8889 17.1605C26.7837 17.4158 26.9063 17.7065 27.1535 17.8295C27.9571 18.2292 28.6787 18.7789 29.2788 19.4504C29.9902 20.2464 30.5124 21.1929 30.8062 22.2192C31.1001 23.2455 31.1581 24.3249 30.9758 25.3768C30.8221 26.2641 30.5007 27.1125 30.0305 27.877C29.8859 28.1122 29.9357 28.4237 30.1601 28.5846L39.0351 34.9475C39.2595 35.1084 39.5725 35.0573 39.7274 34.8287C41.2392 32.5985 42.2604 30.0704 42.7211 27.4119C43.2102 24.589 43.0546 21.6921 42.2659 18.9378C41.4773 16.1836 40.076 13.6433 38.1669 11.5071Z" stroke="white"/>
<path d="M16.9722 23.2423C16.9888 23.1168 17.0087 22.9918 17.0319 22.8674C17.0826 22.5959 16.9243 22.323 16.6571 22.2533L5.13096 19.2478C4.86375 19.1781 4.59002 19.3381 4.52704 19.607C4.30703 20.5463 4.15527 21.5002 4.07295 22.4614C4.04939 22.7365 4.25997 22.9736 4.5356 22.9903L16.4254 23.7097C16.701 23.7264 16.9362 23.5161 16.9722 23.2423Z" stroke="white"/>
<path d="M24.4996 17.0973C24.6259 17.1062 24.7519 17.1185 24.8775 17.1341C25.1515 17.1683 25.4143 16.9938 25.4677 16.7229L27.7716 5.03631C27.825 4.76538 27.6488 4.50181 27.3766 4.45519C26.4257 4.29232 25.4643 4.19846 24.4999 4.17434C24.2239 4.16744 24 4.39195 24 4.66809L24 16.5796C24 16.8558 24.2241 17.0778 24.4996 17.0973Z" stroke="white"/>
<path d="M28.4597 29.6779C28.3613 29.7575 28.2608 29.8345 28.1583 29.9087C27.9346 30.0707 27.8616 30.3776 28.0074 30.6121L34.2978 40.7273C34.4436 40.9618 34.7523 41.0342 34.983 40.8825C35.7893 40.3528 36.5561 39.7654 37.2775 39.1249C37.4841 38.9416 37.4945 38.6247 37.3061 38.4228L29.1781 29.7154C28.9897 29.5135 28.6743 29.5041 28.4597 29.6779Z" stroke="white"/>
</svg>
