<?xml version="1.0" encoding="UTF-8" standalone="no"?>
<!DOCTYPE svg PUBLIC "-//W3C//DTD SVG 1.1//EN" "http://www.w3.org/Graphics/SVG/1.1/DTD/svg11.dtd">
<svg width="100%" height="100%" viewBox="0 0 48 48" version="1.1" xmlns="http://www.w3.org/2000/svg" xmlns:xlink="http://www.w3.org/1999/xlink" xml:space="preserve" xmlns:serif="http://www.serif.com/" style="fill-rule:evenodd;clip-rule:evenodd;stroke-linejoin:round;stroke-miterlimit:2;">
    <g transform="matrix(1.98173,0,0,1.98173,-24.4626,-23.4578)">
        <g transform="matrix(0.50461,0,0,0.50461,12.3441,11.8371)">
            <path d="M8.692,7.278L8.694,7.274C13.368,5.543 18.55,4.579 24,4.579C30.056,4.579 35.774,5.763 40.838,7.869C40.517,8.877 40.249,9.906 40.04,10.94C39.123,15.49 39.456,19.9 40.988,25.147C38.657,31.379 34.37,36.953 29.204,40.576C19.788,37.114 12.96,31.787 9.472,24.311C11.212,17.273 10.544,12.863 8.692,7.278ZM23.996,37.685C28.085,35.674 33.5,31.032 36.701,23.63C35.351,18.456 35.104,13.999 35.934,9.451C32.211,8.333 28.189,7.719 23.995,7.719C19.954,7.714 15.935,8.293 12.065,9.45C12.896,13.995 12.649,18.459 11.299,23.636C14.492,31.034 19.908,35.675 23.996,37.685ZM29.204,40.576C19.788,37.114 12.96,31.787 9.472,24.311C11.213,17.269 10.543,12.858 8.689,7.269C8.169,7.462 7.66,7.66 7.156,7.869C8.962,13.571 8.887,18.743 7.012,25.152C10.088,33.378 16.583,40.468 24,43.421C25.838,42.676 27.585,41.722 29.204,40.576" style="fill:none;fill-rule:nonzero;stroke:white;stroke-width:1px;"/>
        </g>
        <g transform="matrix(0.50461,0,0,0.50461,12.3501,11.5401)">
            <g transform="matrix(1,0,0,1,-187.913,-24.9041)">
                <path d="M203.4,48.7L203.4,40.7L206,40.7C207.5,40.7 208.7,41.9 208.7,43.4C208.7,44.9 207.5,46.1 206,46.1L203.4,46.1" style="fill:none;fill-rule:nonzero;stroke:white;stroke-width:1px;stroke-linecap:round;stroke-miterlimit:10;"/>
            </g>
            <g transform="matrix(1,0,0,1,-31.5091,-40.9076)">
                <g>
                    <path d="M58,62.7C58,63.8 57.1,64.7 56,64.7C54.9,64.7 54,63.8 54,62.7L54,61.4C54,60.3 54.9,59.4 56,59.4C57.1,59.4 58,60.3 58,61.4" style="fill:none;fill-rule:nonzero;stroke:white;stroke-width:1px;stroke-linecap:round;stroke-miterlimit:10;"/>
                </g>
                <path d="M58,64.7L58,59.3" style="fill:none;fill-rule:nonzero;stroke:white;stroke-width:1px;stroke-linecap:round;stroke-miterlimit:10;"/>
            </g>
            <g transform="matrix(1,0,0,1,-265.511,-40.7778)">
                <path d="M298,62.7L298,65.4C298,66.5 297.1,67.4 296,67.4C295.4,67.4 294.9,67.2 294.6,66.8" style="fill:none;fill-rule:nonzero;stroke:white;stroke-width:1px;stroke-linecap:round;stroke-miterlimit:10;"/>
                <path d="M298,59.3L298,62.6C298,63.7 297.1,64.6 296,64.6C294.9,64.6 294,63.7 294,62.6L294,59.3" style="fill:none;fill-rule:nonzero;stroke:white;stroke-width:1px;stroke-linecap:round;stroke-miterlimit:10;"/>
            </g>
        </g>
    </g>
</svg>
