<svg xmlns="http://www.w3.org/2000/svg" viewBox="0 0 48 48"><defs><style>.cls-1{fill:none;stroke:#fff;stroke-linecap:round;stroke-linejoin:round;}</style></defs><circle class="cls-1" cx="24" cy="24" r="17.01662"/><path class="cls-1" d="M24,6.98339a17.013,17.013,0,0,0-14.962,8.90405H38.96194A17.0129,17.0129,0,0,0,24,6.98339Z"/><path class="cls-1" d="M24,41.01659a17.00549,17.00549,0,0,0,15.07049-9.129H8.92947A17.00558,17.00558,0,0,0,24,41.01659Z"/><path class="cls-1" d="M38.96194,15.88744H9.03805a17.00062,17.00062,0,0,0-.10858,16.00012H39.07052a17.00062,17.00062,0,0,0-.10858-16.00012Z"/><path class="cls-1" d="M35.14695,24a16.9409,16.9409,0,0,0-2.05469-8.11255"/><path class="cls-1" d="M33.20084,31.88756A16.92828,16.92828,0,0,0,35.14695,24"/><path class="cls-1" d="M12.85305,23.775a16.94089,16.94089,0,0,0,2.05468,8.11255"/><path class="cls-1" d="M14.79915,15.88744a16.92828,16.92828,0,0,0-1.9461,7.88757"/><ellipse class="cls-1" cx="24" cy="18.63751" rx="6.6168" ry="2.75007"/></svg>
