<svg xmlns="http://www.w3.org/2000/svg" width="48" height="48"><path d="M38.565 25.265l-5.263-.016m.003-2.504l4.145-.016m-22.212 2.538l-2.31.059m-.398-2.702l2.68.021m.044-.138c.822-4.17 4.627-7.747 9.039-7.747 4.589 0 8.382 3.403 8.995 7.823m-.026 2.69c-.686 4.336-4.441 7.65-8.97 7.65-4.346 0-8.116-3.439-9.008-7.517m15.918-1.464c0 3.851-3.122 6.973-6.973 6.973s-6.973-3.122-6.973-6.973 3.122-6.973 6.973-6.973 6.973 3.122 6.973 6.973zM4.281 20.218C1.565 13.323 6.165 9.439 11.477 8.866c5.433-1.013 10.235.917 14.731-.45 2.03-.599 3.535-1.837 5.246-2.844.84.567 1.87.84 2.765.974-.044.253-2.014 1.947-3.343 2.807-1.605 1.038-2.576 1.279-6.103 1.515-4.616.018-9.741 1.541-12.424 5.955-1.399 2.37-1.681 5.518-.806 9.004.441 1.177 1.295 3.749 1.527 4.412-3.222-2.796-7.056-6.125-8.789-10.021zm34.287 5.059c2.375 5.701-2.586 10.204-7.115 11.138-4.55.647-9.804-.393-13.14-2.856-2.537-1.925-4.537-4.847-5.378-8.23m-.404-2.716c-.234-4.927 3.382-8.141 6.918-9.416 3.961-1.133 7.156-.271 11.026-1.862 2.965-1.659 3.264-2.322 4.941-3.909.52.939.445.855 1.762 1.546-1.275 2.013-2.063 4.462-2.122 6.929.042 1.625.464 3.129 1.943 5.992.161.283.312.559.452.828M22.583 37.374c-.206-.257 1.475.44 2.066.471 5.799 1.627 14.059-.631 15.932-7.564.815-3.478-1.011-6.8-2.531-9.802-1.412-2.427-1.689-5.405-.835-8.067.202-.698.936-2.379 1.148-2.27-.386 2.492.109 5.035 1.207 7.29 1.621 3.648 3.733 7.153 4.542 11.103 1.166 5.266-.085 11.004-5.301 13.005-1.942.945-4.165 1.107-6.257.625-3.605-.941-7.248-3.037-9.971-4.791z" fill="none" stroke="#fff" stroke-linecap="round" stroke-linejoin="round" paint-order="markers fill stroke"/></svg>