<svg version="1.1" viewBox="0 0 48 48" xmlns="http://www.w3.org/2000/svg">
 <g fill="none" stroke="#fff" stroke-linecap="round" stroke-linejoin="round">
  <path class="d" d="m17.526 37.44-2.0259-0.44 0.24553 2.1727"/>
  <path d="m15.5 37c3 5 14 5 17 0" stroke-width="1px"/>
  <g>
   <circle cx="16" cy="29.5" r="4" style="paint-order:stroke fill markers"/>
   <circle cx="32" cy="29.5" r="4" style="paint-order:stroke fill markers"/>
   <circle cx="16" cy="29.5" r="1.5" style="paint-order:stroke fill markers"/>
   <circle cx="32" cy="29.5" r="1.5" style="paint-order:stroke fill markers"/>
  </g>
  <g stroke-width="1px">
   <path d="m20 29.5h8"/>
   <path d="m12 29.5h-4c-1 0-2-1-2-2v-16c0-1 1-2 2-2h32c1 0 2 1 2 2v16c0 1-1 2-2 2h-4"/>
   <path d="m6 21.5 8-2.5h24v-6.5h-32"/>
   <path d="m14 12.5v6.5"/>
   <path d="m23 19v-6.5"/>
   <path d="m32 19v-6.5"/>
  </g>
 </g>
</svg>
