<?xml version="1.0" encoding="UTF-8" standalone="no"?>
<svg
   viewBox="0 0 48 48"
   version="1.1"
   id="svg8"
   xmlns:xlink="http://www.w3.org/1999/xlink"
   xmlns="http://www.w3.org/2000/svg"
   xmlns:svg="http://www.w3.org/2000/svg">
  <defs>
    <style>.a{fill:none;stroke:#fff;stroke-linecap:round;stroke-linejoin:round;}</style>
  </defs>
  <path
     class="a"
     d="M 27.536,28.757 28.242641,29.464466 27.535534,30.87868 28,32 l 1.5,0.5 v 1 L 28,34 27.535534,35.12132 28.242641,36.535534 27.535534,37.242641 26.12132,36.535534 25,37 24.5,38.5 h -1 L 23,37 21.87868,36.535534 20.464466,37.242641 19.757359,36.535534 20.464466,35.12132 20,34 18.5,33.5 v -1 L 20,32 20.464466,30.87868 19.757359,29.464466 20.464466,28.757359 21.87868,29.464466 23,29 23.5,27.5 h 1 l 0.5,1.5 1.12132,0.464466 z"
     id="path7793" />
  <path
     class="a"
     d="M 10,24 V 41.5 H 38 V 24 Z"
     id="path974" />
  <path
     class="a"
     d="M 10,24 H 8.5 v -6 h 31 v 6 H 38"
     id="path976" />
  <path
     class="a"
     d="m 8.5,18 4,-4 H 14"
     id="path1315" />
  <path
     class="a"
     d="m 34,14 h 1.5 l 4,4"
     id="path1317" />
  <path
     class="a"
     id="path2808"
     d="m 14,15.5 a 10,10 0 0 1 10,-10 10,10 0 0 1 10,10 z" />
  <path
     class="a"
     d="M 18,7.5 16,5"
     id="path2949" />
  <path
     class="a"
     d="M 30,7.5 32,5"
     id="path2951" />
  <path
     class="a"
     d="m 22.5,31.5 v 3 h 3 v -3 z"
     id="path12954" />
  <circle
     style="fill:#ffffff"
     id="path2912"
     cx="19.25"
     cy="11.25"
     r="0.75" />
  <circle
     style="fill:#ffffff"
     id="circle3996"
     cx="28.75"
     cy="11.25"
     r="0.75" />
</svg>
