<svg xmlns="http://www.w3.org/2000/svg" viewBox="0 0 48 48">
    <style>
        .a{fill:none;stroke:#FFFFFF;stroke-linecap:round;stroke-linejoin:round}
    </style>
    <path class="a" d="M40.5,5.5h-33c-1.1,0-2,0.9-2,2v33c0,1.1,0.9,2,2,2h33c1.1,0,2-0.9,2-2v-33C42.5,6.4,41.6,5.5,40.5,5.5z"/>
    <line class="a" x1="5.6" y1="24" x2="42.4" y2="24"/>
    <line class="a" x1="24" y1="42.4" x2="24" y2="5.6"/>
    <path class="a" d="M16.7,28.6c2.6,0.5,4.3,2.9,3.8,5.4c-0.3,1.9-1.9,3.5-3.8,3.8"/>
    <path class="a" d="M17,31.7c0.9,0.2,1.4,1,1.3,1.8c-0.1,0.6-0.6,1.2-1.3,1.3"/>
    <path class="a" d="M8.9,31.3v3.9H12l3.1,2.7v-9.4L12,31.3H8.9z"/>
    <path class="a" d="M34.4,34.6v2.9c0,0.2,0.2,0.4,0.4,0.4h2c0.2,0,0.4-0.2,0.4-0.4c0,0,0,0,0,0v-3.7h0.6c0.4,0,0.7-0.3,0.7-0.7c0-0.2-0.1-0.4-0.2-0.5l-4.6-3.9c-0.3-0.3-0.8-0.3-1.1,0l-4.6,3.9c-0.3,0.2-0.3,0.7-0.1,0.9c0.1,0.2,0.3,0.2,0.5,0.2h0.6v3.7c0,0.2,0.2,0.4,0.4,0.4h2c0.2,0,0.4-0.2,0.4-0.4v-2.9L34.4,34.6z"/>
    <polyline class="a" points="32.8,11.3 28.7,15.3 32.8,19.4 28.7,15.3 37.8,15.3 "/>
    <rect x="9.6" y="12.5" class="a" width="8.5" height="6.7"/>
    <polyline class="a" points="12.5,10.5 20,10.5 20,16.9 "/>
</svg>