<?xml version="1.0" encoding="UTF-8" standalone="no"?>
<svg
   version="1.1"
   viewBox="0 0 48 48"
   id="svg1321"
   sodipodi:docname="bvgfahrinfo.svg"
   inkscape:version="1.1.1 (3bf5ae0d25, 2021-09-20, custom)"
   xmlns:inkscape="http://www.inkscape.org/namespaces/inkscape"
   xmlns:sodipodi="http://sodipodi.sourceforge.net/DTD/sodipodi-0.dtd"
   xmlns="http://www.w3.org/2000/svg"
   xmlns:svg="http://www.w3.org/2000/svg">
  <sodipodi:namedview
     id="namedview1323"
     pagecolor="#ffffff"
     bordercolor="#666666"
     borderopacity="1.0"
     inkscape:pageshadow="2"
     inkscape:pageopacity="0.0"
     inkscape:pagecheckerboard="true"
     showgrid="false"
     inkscape:zoom="18.083333"
     inkscape:cx="26.322581"
     inkscape:cy="21.677419"
     inkscape:window-width="1918"
     inkscape:window-height="1058"
     inkscape:window-x="0"
     inkscape:window-y="20"
     inkscape:window-maximized="1"
     inkscape:current-layer="svg1321" />
  <defs
     id="defs1285">
    <style
       id="style1283">.a{fill:none;stroke:#fff;stroke-linecap:round;stroke-linejoin:round;}</style>
  </defs>
  <g
     id="g1516">
    <path
       d="m10.407 22.4v-13.104"
       fill="none"
       stroke="#fff"
       stroke-width="1px"
       id="path1299" />
    <path
       d="m15.394 22.4v-13.104"
       fill="none"
       stroke="#fff"
       stroke-width="1px"
       id="path1301" />
    <path
       d="m20.381 22.4v-13.077"
       fill="none"
       stroke="#fff"
       stroke-width="1px"
       id="path1303" />
    <path
       d="m27.617 22.4v-13.087"
       fill="none"
       stroke="#fff"
       stroke-width="1px"
       id="path1305" />
    <path
       d="m32.604 22.4v-13.098"
       fill="none"
       stroke="#fff"
       stroke-width="1px"
       id="path1307" />
    <path
       d="m37.591 22.4v-13.104"
       fill="none"
       stroke="#fff"
       stroke-width="1px"
       id="path1309" />
    <path
       d="m8.0787 9.295h31.843"
       fill="none"
       stroke="#fff"
       stroke-width="1px"
       id="path1311" />
    <path
       d="m22.472 9.2981v-4.7773"
       fill="none"
       stroke="#fff"
       stroke-width="1px"
       id="path1313" />
    <path
       d="m25.632 9.2981v-4.7773"
       fill="none"
       stroke="#fff"
       stroke-width="1px"
       id="path1315" />
    <path
       d="m19.312 9.3272v-3.9818"
       fill="none"
       stroke="#fff"
       stroke-width="1px"
       id="path1317" />
    <path
       d="m28.793 9.283v-3.9818"
       fill="none"
       stroke="#fff"
       stroke-width="1px"
       id="path1319" />
  </g>
  <g
     id="g1503"
     transform="translate(15.428571,8)">
    <path
       d="M 7.854424,33.001719"
       fill="none"
       stroke="#ffffff"
       id="path42"
       style="stroke-width:1" />
    <path
       class="st4"
       d="m 0.639609,27.395201 c 1.378526,0 2.506411,1.138225 2.506411,2.529389 0,1.391164 -1.127885,2.52939 -2.506411,2.52939 H -3.495967 V 22.336422 h 4.135576 c 1.378526,0 2.506411,1.138225 2.506411,2.529389 0,1.391165 -1.127885,2.52939 -2.506411,2.52939 z"
       id="path545"
       style="fill:none;stroke:#ffffff;stroke-width:0.8662;stroke-linecap:round;stroke-linejoin:round;stroke-miterlimit:10" />
    <polyline
       class="st0"
       points="277.8,93 275.2,101 272.5,93   "
       id="polyline161"
       style="fill:none;stroke:#ffffff;stroke-width:0.794321;stroke-linecap:round;stroke-linejoin:round;stroke-miterlimit:10"
       transform="matrix(1.2532051,0,0,1.2646947,-336.32331,-95.364658)" />
    <path
       class="st0"
       d="m 20.446604,25.66649 c 0,-1.897042 -1.629167,-3.541146 -3.508974,-3.414676 -1.754488,0.126469 -3.133013,1.770573 -3.133013,3.541145 v 3.161737 c 0,1.897042 1.503846,3.414676 3.383654,3.414676 v 0 c 1.879807,0 3.383653,-1.517634 3.383653,-3.414676 h -3.383653"
       id="path81"
       style="fill:none;stroke:#ffffff;stroke-width:1;stroke-linecap:round;stroke-linejoin:round;stroke-miterlimit:10" />
  </g>
</svg>
