<svg xmlns="http://www.w3.org/2000/svg" viewBox="0 0 48 48"><defs><style>.a{fill:none;stroke:#fff;stroke-linecap:round;stroke-linejoin:round;}</style></defs> <path  class="a"  d="M33.15,11.26L36.81,11.26L36.81,16.73L33.15,16.73z"/> <path  class="a"  d="M40.28,10.83L40.28,16.86Q39.92,20.20,36.76,20.44L33.29,20.44L33.29,26.25Q32.51,32.27,26.34,32.92L14.28,32.75Q8.78,32.00,8.08,26.49L8.08,10.87Q8.08,7.74,11.60,7.74L36.16,7.52Q40.07,7.96,40.28,10.83z"/> <path  class="a"  d="M9.79,39.98A1.72 1.77 267.41 1 1 9.68,36.55L38.27,36.40A1.79 1.79 -0.00 1 1 38.38,39.92L9.79,39.98z"/></svg>