<svg xmlns="http://www.w3.org/2000/svg" viewBox="0 0 48 48"><defs><style>.a{fill:none;stroke:#fff;stroke-linecap:round;stroke-linejoin:round;}.b{isolation:isolate;}</style></defs><path class="a" d="M40.5,5.5H7.5a2,2,0,0,0-2,2v33a2,2,0,0,0,2,2h33a2,2,0,0,0,2-2V7.5A2,2,0,0,0,40.5,5.5Z"/><path class="a" d="M41.58,6.4453,6.032,41.8583"/><path class="a" d="M6.5043,6.4453l35.354,35.413"/><g class="b"><path class="a" d="M14.253,27a2.6581,2.6581,0,0,1-2.1,1,2.6888,2.6888,0,0,1-2.7-2.7V22.7a2.6888,2.6888,0,0,1,2.7-2.7,2.8145,2.8145,0,0,1,2.1,1"/><line class="a" x1="8.253" y1="22.9" x2="11.653" y2="22.9"/><line class="a" x1="8.253" y1="24.9" x2="11.653" y2="24.9"/></g><line class="a" x1="22.181" y1="33.395" x2="26.181" y2="33.395"/><line class="a" x1="22" y1="12.402" x2="26" y2="12.402"/><line class="a" x1="24" y1="10.402" x2="24" y2="14.402"/><g class="b"><path class="a" d="M33.67,27.252a2.3842,2.3842,0,0,0,2,.9h1.2a2,2,0,0,0,0-4h-1.3a2,2,0,0,1,0-4h1.2a2.1472,2.1472,0,0,1,2,.9"/><line class="a" x1="36.17" y1="20.152" x2="36.17" y2="19.152"/><line class="a" x1="36.17" y1="29.152" x2="36.17" y2="28.152"/></g><line class="a" x1="22.181" y1="35.757" x2="26.181" y2="35.757"/></svg>