<?xml version="1.0" encoding="UTF-8"?>
<svg version="1.1" viewBox="0 0 48 48" xmlns="http://www.w3.org/2000/svg">
 <defs>
  <style>.a{fill:none;stroke:#fff;stroke-linecap:round;stroke-linejoin:round;}</style>
 </defs>
 <path class="a" d="m40.5 5.5h-33a2 2 0 0 0-2 2v33a2 2 0 0 0 2 2h33a2 2 0 0 0 2-2v-33a2 2 0 0 0-2-2z"/>
 <path d="m41.58 6.4453-35.548 35.413" fill="none" stroke="#fff" stroke-linecap="round" stroke-linejoin="round"/>
 <path d="m6.5043 6.4453 35.354 35.413" fill="none" stroke="#fff" stroke-linecap="round" stroke-linejoin="round"/>
 <g transform="translate(-49.947 -39.9)" enable-background="new 0 0 380 200" fill="none" stroke="#fff" stroke-linecap="round" stroke-linejoin="round" stroke-miterlimit="10">
  <path class="st0" d="m64.2 66.9c-0.5 0.6-1.2 1-2.1 1-1.5 0-2.7-1.2-2.7-2.7v-2.6c0-1.5 1.2-2.7 2.7-2.7 0.8 0 1.6 0.4 2.1 1"/>
  <line class="st0" x1="58.2" x2="61.6" y1="62.8" y2="62.8"/>
  <line class="st0" x1="58.2" x2="61.6" y1="64.8" y2="64.8"/>
 </g>
 <line class="st0" x1="22.181" x2="26.181" y1="33.395" y2="33.395" enable-background="new 0 0 380 200" fill="none" stroke="#fff" stroke-linecap="round" stroke-linejoin="round" stroke-miterlimit="10"/>
 <line class="st0" x1="22" x2="26" y1="12.402" y2="12.402" enable-background="new 0 0 380 200" fill="none" stroke="#fff" stroke-linecap="round" stroke-linejoin="round" stroke-miterlimit="10"/>
 <line class="st0" x1="24" x2="24" y1="10.402" y2="14.402" enable-background="new 0 0 380 200" fill="none" stroke="#fff" stroke-linecap="round" stroke-linejoin="round" stroke-miterlimit="10"/>
 <g transform="translate(-115.03 -24.348)" enable-background="new 0 0 380 200">
  <g>
   <path class="st0" d="m148.7 51.6c0.5 0.6 1.1 0.9 2 0.9h1.2c1.1 0 2-0.9 2-2s-0.9-2-2-2h-1.3c-1.1 0-2-0.9-2-2s0.9-2 2-2h1.2c0.9 0 1.5 0.2 2 0.9" fill="none" stroke="#fff" stroke-linecap="round" stroke-linejoin="round" stroke-miterlimit="10"/>
  </g>
  <line class="st0" x1="151.2" x2="151.2" y1="44.5" y2="43.5" fill="none" stroke="#fff" stroke-linecap="round" stroke-linejoin="round" stroke-miterlimit="10"/>
  <line class="st0" x1="151.2" x2="151.2" y1="53.5" y2="52.5" fill="none" stroke="#fff" stroke-linecap="round" stroke-linejoin="round" stroke-miterlimit="10"/>
 </g>
 <line class="st0" x1="22.181" x2="26.181" y1="35.757" y2="35.757" enable-background="new 0 0 380 200" fill="none" stroke="#fff" stroke-linecap="round" stroke-linejoin="round" stroke-miterlimit="10"/>
</svg>
