<?xml version="1.0" encoding="utf-8"?>
<!DOCTYPE svg PUBLIC "-//W3C//DTD SVG 1.1//EN" "http://www.w3.org/Graphics/SVG/1.1/DTD/svg11.dtd">
<svg version="1.1" id="Layer_1" xmlns="http://www.w3.org/2000/svg" xmlns:xlink="http://www.w3.org/1999/xlink" x="0px" y="0px"
	 width="48px" height="48px" viewBox="0 0 48 48" enable-background="new 0 0 48 48" xml:space="preserve">
<rect display="none" fill="#282828" width="48" height="48"/>
<g display="none">
	<g display="inline">
		<defs>
			<rect id="SVGID_1_" width="48" height="48"/>
		</defs>
		<clipPath id="SVGID_2_">
			<use xlink:href="#SVGID_1_"  overflow="visible"/>
		</clipPath>
		<path clip-path="url(#SVGID_2_)" fill="none" stroke="#FFFFFF" stroke-linecap="round" stroke-linejoin="round" d="M40.5,5.5h-33
			c-1.105,0-2,0.895-2,2v33c0,1.105,0.895,2,2,2h33c1.105,0,2-0.895,2-2v-33C42.5,6.395,41.605,5.5,40.5,5.5z"/>
	</g>
	<g display="inline">
		<defs>
			<rect id="SVGID_3_" width="48" height="48"/>
		</defs>
		<clipPath id="SVGID_4_">
			<use xlink:href="#SVGID_3_"  overflow="visible"/>
		</clipPath>
		<path clip-path="url(#SVGID_4_)" fill="none" stroke="#FFFFFF" stroke-linecap="round" stroke-linejoin="round" d="M25.578,36.143
			c-0.041-4.789,1.063-8.746,7.081-8.498C41.246,5.762,6.235,6.596,15.568,27.514c2.829-0.175,7.521,1.51,6.72,9.146"/>
	</g>
	<g display="inline">
		<defs>
			<rect id="SVGID_5_" width="48" height="48"/>
		</defs>
		<clipPath id="SVGID_6_">
			<use xlink:href="#SVGID_5_"  overflow="visible"/>
		</clipPath>
		
			<line clip-path="url(#SVGID_6_)" fill="none" stroke="#FFFFFF" stroke-linecap="round" stroke-linejoin="round" x1="42.5" y1="33.479" x2="5.5" y2="39.303"/>
	</g>
	<g display="inline">
		<defs>
			<rect id="SVGID_7_" width="48" height="48"/>
		</defs>
		<clipPath id="SVGID_8_">
			<use xlink:href="#SVGID_7_"  overflow="visible"/>
		</clipPath>
		
			<line clip-path="url(#SVGID_8_)" fill="none" stroke="#FFFFFF" stroke-linecap="round" stroke-linejoin="round" x1="5.5" y1="11.04" x2="17.845" y2="13.33"/>
	</g>
	<g display="inline">
		<defs>
			<rect id="SVGID_9_" width="48" height="48"/>
		</defs>
		<clipPath id="SVGID_10_">
			<use xlink:href="#SVGID_9_"  overflow="visible"/>
		</clipPath>
		
			<line clip-path="url(#SVGID_10_)" fill="none" stroke="#FFFFFF" stroke-linecap="round" stroke-linejoin="round" x1="32.355" y1="15.53" x2="42.5" y2="17.011"/>
	</g>
</g>
<image display="none" overflow="visible" enable-background="new    " width="192" height="192" xlink:href="ic_launcher2.png"  transform="matrix(0.2254 0 0 0.2254 2.3584 2.3589)">
</image>
<g>
	<path fill="none" stroke="#FDF8FB" stroke-linecap="round" stroke-linejoin="round" stroke-miterlimit="10" d="M12.768,32.184
		c22.464,0,22.464,0,22.464,0l0,0v5.393H12.768V32.184z"/>
	
		<path fill="none" stroke="#FDF8FB" stroke-width="0.9258" stroke-linecap="round" stroke-linejoin="round" stroke-miterlimit="10" d="
		M35.232,17.356c0,0-0.008,0-8.537,0c0-1.979,0-4.265,0-6.932h-5.392v6.932c-2.408,0-5.223,0-8.536,0v5.392h8.536v6.932h5.392
		c0,0,0-0.008,0-6.932h8.537V17.356z"/>
</g>
</svg>
