<?xml version="1.0" encoding="UTF-8" standalone="no"?>
<svg
   viewBox="0 0 48 48"
   version="1.1"
   id="svg8"
   xml:space="preserve"
   xmlns="http://www.w3.org/2000/svg"
   xmlns:svg="http://www.w3.org/2000/svg"><path
     id="path3937"
     style="opacity:1;vector-effect:none;fill:none;fill-rule:evenodd;stroke:#ffffff;stroke-width:0.999996;stroke-linecap:round;stroke-linejoin:round;stop-color:#000000;stop-opacity:1"
     d="m 42.335416,24.000001 c 0,9.642417 -7.816723,17.459141 -17.459141,17.459141 -3.063056,0 -5.94188,-0.788792 -8.444425,-2.174331 L 5.6645594,41.13392 9.1265995,31.543898 C 8.0308937,29.260493 7.4171338,26.701922 7.4171338,24.000001 c 0,-9.642418 7.8167242,-17.4591412 17.4591412,-17.4591413 9.642418,0 17.459141,7.8167233 17.459141,17.4591413 z" /><defs
     id="defs4"><style
       id="style2">.a{fill:none;stroke:#fff;stroke-linecap:round;stroke-linejoin:round;}</style><style
       id="style822">.cls-1{fill:none;stroke:#000;stroke-linecap:round;stroke-linejoin:round;}</style><style
       id="style913">.cls-1{fill:none;stroke:#fff;stroke-linecap:round;stroke-linejoin:round;}</style><style
       id="style3898">.a{fill:none;stroke:#fff;stroke-linecap:round;stroke-linejoin:round;}</style></defs><g
     id="g3913"
     transform="matrix(0.56832608,0,0,0.56832608,11.29394,12.487923)"
     style="stroke-width:1.75955"><path
       class="a"
       d="m 24,-1.8418375 c 3.204999,-0.028228 7.373945,2.9139361 7.61,7.1753034 V 21.53 c 0,4.202887 -3.407113,7.61 -7.61,7.61 v 0 c -4.202887,0 -7.61,-3.407113 -7.61,-7.61 V 5.3334659 c 0,-4.2028869 4.405001,-7.1470749 7.61,-7.1753034 z"
       id="path3902"
       style="stroke-width:1.75955" /></g><path
     style="font-variation-settings:normal;opacity:1;vector-effect:none;fill:none;fill-opacity:1;stroke:#ffffff;stroke-width:0.999996;stroke-linecap:round;stroke-linejoin:round;stroke-miterlimit:4;stroke-dasharray:none;stroke-dashoffset:0;stroke-opacity:1;-inkscape-stroke:none;stop-color:#000000;stop-opacity:1"
     d="m 20.608804,16.29669 1.951195,0.02315"
     id="path3923" /><path
     style="font-variation-settings:normal;opacity:1;vector-effect:none;fill:none;fill-opacity:1;stroke:#ffffff;stroke-width:0.999996;stroke-linecap:round;stroke-linejoin:round;stroke-miterlimit:4;stroke-dasharray:none;stroke-dashoffset:0;stroke-opacity:1;-inkscape-stroke:none;stop-color:#000000;stop-opacity:1"
     d="m 20.608804,18.518702 1.951195,0.02314"
     id="path3925" /><path
     style="font-variation-settings:normal;opacity:1;vector-effect:none;fill:none;fill-opacity:1;stroke:#ffffff;stroke-width:0.999996;stroke-linecap:round;stroke-linejoin:round;stroke-miterlimit:4;stroke-dasharray:none;stroke-dashoffset:0;stroke-opacity:1;-inkscape-stroke:none;stop-color:#000000;stop-opacity:1"
     d="m 20.608804,20.740715 1.951195,0.02315"
     id="path3927" /><path
     style="font-variation-settings:normal;opacity:1;vector-effect:none;fill:none;fill-opacity:1;stroke:#ffffff;stroke-width:0.999996;stroke-linecap:round;stroke-linejoin:round;stroke-miterlimit:4;stroke-dasharray:none;stroke-dashoffset:0;stroke-opacity:1;-inkscape-stroke:none;stop-color:#000000;stop-opacity:1"
     d="m 18.092827,21.203634 0.105448,3.196123 c 0.145953,4.423773 3.481253,7.099706 6.73549,7.099706 3.254238,0 6.729219,-3.073548 6.828074,-6.602068 l 0.102837,-3.670615"
     id="path3931" /><path
     style="font-variation-settings:normal;opacity:1;vector-effect:none;fill:none;fill-opacity:1;stroke:#ffffff;stroke-width:0.999996;stroke-linecap:round;stroke-linejoin:round;stroke-miterlimit:4;stroke-dasharray:none;stroke-dashoffset:0;stroke-opacity:1;-inkscape-stroke:none;stop-color:#000000;stop-opacity:1"
     d="m 24.898364,31.499371 v 4.147343"
     id="path3933" /><path
     style="font-variation-settings:normal;opacity:1;vector-effect:none;fill:none;fill-opacity:1;stroke:#ffffff;stroke-width:0.999996;stroke-linecap:round;stroke-linejoin:round;stroke-miterlimit:4;stroke-dasharray:none;stroke-dashoffset:0;stroke-opacity:1;-inkscape-stroke:none;stop-color:#000000;stop-opacity:1"
     d="M 30.892545,35.646714 H 18.764061"
     id="path3935" /></svg>
