<?xml version="1.0" encoding="UTF-8" standalone="no"?>
<svg
   viewBox="0 0 48 48"
   version="1.1"
   id="svg8"
   sodipodi:docname="call_protect.svg"
   inkscape:version="1.1.1 (1:1.1+202109281949+c3084ef5ed)"
   xmlns:inkscape="http://www.inkscape.org/namespaces/inkscape"
   xmlns:sodipodi="http://sodipodi.sourceforge.net/DTD/sodipodi-0.dtd"
   xmlns="http://www.w3.org/2000/svg"
   xmlns:svg="http://www.w3.org/2000/svg">
  <sodipodi:namedview
     id="namedview10"
     pagecolor="#505050"
     bordercolor="#ffffff"
     borderopacity="1"
     inkscape:pageshadow="0"
     inkscape:pageopacity="0"
     inkscape:pagecheckerboard="1"
     showgrid="false"
     inkscape:zoom="8"
     inkscape:cx="8.3125"
     inkscape:cy="4.5"
     inkscape:window-width="1920"
     inkscape:window-height="1047"
     inkscape:window-x="0"
     inkscape:window-y="0"
     inkscape:window-maximized="1"
     inkscape:current-layer="layer1"
     inkscape:object-paths="true"
     inkscape:snap-bbox="true"
     inkscape:bbox-paths="false"
     inkscape:bbox-nodes="true"
     inkscape:snap-smooth-nodes="true"
     inkscape:snap-bbox-midpoints="true"
     inkscape:snap-center="true"
     showguides="true"
     inkscape:guide-bbox="true"
     inkscape:object-nodes="true"
     inkscape:snap-midpoints="true"
     inkscape:snap-intersection-paths="true">
    <sodipodi:guide
       position="89.493202,7.606525"
       orientation="0,-1"
       id="guide2059" />
    <sodipodi:guide
       position="90.111921,0.80062224"
       orientation="0,-1"
       id="guide2061" />
    <sodipodi:guide
       position="89.3125,3.9999999"
       orientation="0,-1"
       id="guide2063" />
  </sodipodi:namedview>
  <defs
     id="defs4">
    <inkscape:path-effect
       effect="fillet_chamfer"
       id="path-effect8270"
       is_visible="true"
       lpeversion="1"
       satellites_param="F,0,0,1,0,0,0,1 @ F,0,0,1,0,1.3057741,0,1 @ F,0,0,1,0,1.4530479,0,1 @ F,0,0,1,0,1.0727734,0,1 @ F,0,0,1,0,0.65067539,0,1 @ F,0,0,1,0,0,0,1 @ F,0,0,1,0,0.65067539,0,1 @ F,0,0,1,0,1.0727734,0,1 @ F,0,0,1,0,1.4530479,0,1 @ F,0,0,1,0,1.9452707,0,1"
       unit="px"
       method="auto"
       mode="F"
       radius="0"
       chamfer_steps="1"
       flexible="false"
       use_knot_distance="true"
       apply_no_radius="true"
       apply_with_radius="true"
       only_selected="false"
       hide_knots="false" />
    <style
       id="style2">.a{fill:none;stroke:#fff;stroke-linecap:round;stroke-linejoin:round;}</style>
  </defs>
  <g
     inkscape:groupmode="layer"
     id="layer1"
     inkscape:label="reference"
     style="display:inline" />
  <g
     inkscape:groupmode="layer"
     id="layer2"
     inkscape:label="art"
     style="display:inline">
    <path
       class="a"
       d="m 24,43.5 c 1.69,0 15.25,-7.77 15.25,-16.94 v -20 c -4,0 -15.25,-2 -15.25,-2 0,0 -11.26,2 -15.25,2 v 20 C 8.75,35.73 22.31,43.5 24,43.5 Z"
       id="path6"
       style="fill:none;stroke:#ffffff;stroke-linecap:round;stroke-linejoin:round" />
    <path
       style="opacity:1;fill:none;stroke:#ffffff;stroke-width:0.999998;stroke-linecap:round;stroke-linejoin:round;stop-color:#000000"
       d="m 19.972752,25.486034 c 1.551287,2.406387 3.561348,4.338446 5.8212,5.744595 0.612172,0.380912 1.648784,0.375925 2.285912,0.03808 l 1.487286,-0.788646 a 1.3344408,1.3344408 0 0 0 0.496437,-1.901984 l -1.185206,-1.838514 a 1.6215694,1.6215694 0 0 0 -1.638432,-0.719382 l -1.146496,0.197673 c -0.354133,0.06106 -0.899485,-0.02553 -1.20037,-0.221828 -0.876821,-0.572029 -1.637141,-1.321855 -2.231285,-2.243501 -0.592873,-0.919676 -0.961609,-1.919429 -1.121,-2.954996 -0.05465,-0.355074 0.09123,-0.88767 0.29276,-1.185199 l 0.65379,-0.965215 a 1.6232499,1.6232499 0 0 0 0.02036,-1.789851 l -1.185207,-1.838514 a 1.3199273,1.3199273 0 0 0 -1.927539,-0.320606 l -0.843674,0.666412 c -0.843061,0.665928 -1.479859,2.078276 -1.299342,3.136859 0.413538,2.42505 1.310298,4.796615 2.720802,6.984617 z"
       id="path2087"
       sodipodi:nodetypes="sccccsccccs" />
  </g>
</svg>
