<?xml version="1.0" encoding="UTF-8" standalone="no"?>
<!DOCTYPE svg PUBLIC "-//W3C//DTD SVG 1.1//EN" "http://www.w3.org/Graphics/SVG/1.1/DTD/svg11.dtd">
<svg width="48px" height="48px" version="1.1" xmlns="http://www.w3.org/2000/svg" xmlns:xlink="http://www.w3.org/1999/xlink" xml:space="preserve" xmlns:serif="http://www.serif.com/" style="clip-rule:evenodd;stroke-linecap:round;stroke-linejoin:round;stroke-miterlimit:1.5;">
    <rect id="cameraconnect" x="0" y="0" width="48" height="48" style="fill:none;"/>
    <circle cx="17.456" cy="19.08" r="0.75" style="fill:white;"/>
    <circle cx="27.929" cy="23.607" r="2.218" style="fill:none;stroke:white;stroke-width:1px;"/>
    <path d="M28.798,20.145C30.075,20.465 31.079,21.474 31.394,22.752" style="fill:none;stroke:white;stroke-width:1px;"/>
    <path d="M14.196,19.054L14.196,29.035C14.196,29.783 14.804,30.39 15.552,30.39L24,30.39C26.712,31.759 29.389,31.931 32.015,30.39L35.869,30.39C36.617,30.39 37.225,29.783 37.225,29.035L37.225,19.03" style="fill:none;stroke:white;stroke-width:1px;"/>
    <ellipse cx="27.865" cy="23.671" rx="5.886" ry="5.854" style="fill:none;stroke:white;stroke-width:1px;"/>
    <path d="M37.225,19.03C37.104,16.328 34.132,16.531 33.226,16.264C33.226,16.264 31.218,13.131 30.427,13.08C28.983,12.987 26.562,12.864 25.179,13.01C24.171,13.117 22.66,16.124 22.66,16.124L21.051,16.264C21.051,16.264 20.107,15.499 19.022,15.634C18.043,15.756 17.068,17.125 16.678,17.174C15.549,17.314 14.203,17.934 14.196,19.03" style="fill:none;stroke:white;stroke-width:1px;"/>
    <g>
        <path d="M14.24,39.714C14.24,41.214 13.04,42.414 11.54,42.414C10.04,42.414 8.84,41.214 8.84,39.714L8.84,37.014C8.84,35.514 10.04,34.314 11.54,34.314C13.04,34.314 14.14,35.514 14.14,37.014" style="fill:none;fill-rule:nonzero;stroke:white;stroke-width:1px;stroke-miterlimit:10;"/>
        <g>
            <g>
                <path d="M20.47,40.414C20.47,41.514 19.57,42.414 18.47,42.414C17.37,42.414 16.47,41.514 16.47,40.414L16.47,39.114C16.47,38.014 17.37,37.114 18.47,37.114C19.57,37.114 20.47,38.014 20.47,39.114" style="fill:none;fill-rule:nonzero;stroke:white;stroke-width:1px;stroke-miterlimit:10;"/>
            </g>
            <path d="M20.47,42.414L20.47,37.114" style="fill:none;fill-rule:nonzero;stroke:white;stroke-width:1px;stroke-miterlimit:10;"/>
        </g>
        <g>
            <path d="M26.7,42.414L26.7,39.114C26.7,38.014 25.8,37.114 24.7,37.114C23.6,37.114 22.7,38.014 22.7,39.114L22.7,42.414" style="fill:none;fill-rule:nonzero;stroke:white;stroke-width:1px;stroke-miterlimit:10;"/>
            <path d="M22.7,39.114L22.7,37.114" style="fill:none;fill-rule:nonzero;stroke:white;stroke-width:1px;stroke-miterlimit:10;"/>
        </g>
        <g>
            <path d="M39.16,42.414L39.16,39.114C39.16,38.014 38.26,37.114 37.16,37.114C36.06,37.114 35.16,38.014 35.16,39.114L35.16,42.414" style="fill:none;fill-rule:nonzero;stroke:white;stroke-width:1px;stroke-miterlimit:10;"/>
            <path d="M35.16,39.114L35.16,37.114" style="fill:none;fill-rule:nonzero;stroke:white;stroke-width:1px;stroke-miterlimit:10;"/>
        </g>
        <path d="M30.93,42.414C29.83,42.414 28.93,41.514 28.93,40.414L28.93,39.114C28.93,38.014 29.83,37.114 30.93,37.114C32.03,37.114 32.93,38.014 32.93,39.114L32.93,40.414C32.93,41.514 32.03,42.414 30.93,42.414Z" style="fill:none;fill-rule:nonzero;stroke:white;stroke-width:1px;stroke-miterlimit:10;"/>
    </g>
    <path d="M15.552,6.414C15.552,10.287 12.408,13.431 8.536,13.431" style="fill:none;stroke:white;stroke-width:1px;"/>
    <path d="M18.535,6.414C18.535,11.933 14.054,16.414 8.536,16.414" style="fill:none;stroke:white;stroke-width:1px;"/>
    <path d="M12.472,6.414C12.472,8.587 10.708,10.35 8.536,10.35" style="fill:none;stroke:white;stroke-width:1px;"/>
</svg>
