<svg xmlns="http://www.w3.org/2000/svg" viewBox="0 0 48 48"><defs><style>.a{fill:none;stroke:#fff;stroke-linecap:round;stroke-linejoin:round;}</style></defs><path class="a" d="M23.3879,11.0183c5.2889-.2845,10.7913,2.7617,12.6175,9.7312A8.1545,8.1545,0,0,1,36.0647,37H13.2606c-10.9218-1.4816-12.416-17.3764,0-19.51A12.025,12.025,0,0,1,23.3879,11.0183Z"/><path class="a" d="M24.1139,29.95l-5.3954.5883.74-1.7117L14.614,24.8933l1.5193-1.0423L14.886,21.19l2.8766.6682.7034-1.5652,2.8408,2.6139-.9286-5.7627,1.9312.9586,1.8045-3.4889"/><path class="a" d="M24.1139,34.614V29.95l5.3953.5883-.74-1.7117,4.8449-3.9332L32.0944,23.851,33.3417,21.19l-2.8766.6682-.7034-1.5652-2.8408,2.6139.9286-5.7627-1.9312.9586-1.8044-3.4889"/></svg>