<?xml version="1.0" encoding="UTF-8"?>
<svg id="a" version="1.1" viewBox="0 0 48 48" xml:space="preserve" xmlns="http://www.w3.org/2000/svg"><defs><style>.b{fill:none;stroke:#fff;stroke-linecap:round;stroke-linejoin:round;}</style><style>.a{fill:none;stroke:#fff;stroke-linecap:round;stroke-linejoin:round;}</style><style>.a{fill:none;stroke:#fff;stroke-linecap:round;stroke-linejoin:round;}</style><style>.a{fill:none;stroke:#fff;stroke-linecap:round;stroke-linejoin:round;}</style><style>.a{fill:none;stroke:#fff;stroke-linecap:round;stroke-linejoin:round;}</style></defs><path d="m23.941 9.3296c-1.2202-0.00431-2.2071-0.99468-2.2071-2.2149 0-1.2171 0.98205-2.2062 2.1991-2.2148l9.0972-5.62e-5c1.2232 2e-7 2.2149 0.99164 2.2149 2.2149v9.0814c0 1.2232-0.99164 2.2149-2.2149 2.2149s-2.2149-0.99164-2.2149-2.2149v-2.5405l-12.838 12.838c-0.57366 0.57366-1.3517 0.89594-2.163 0.89594-1.6894 0-3.0589-1.3695-3.0589-3.0589 0-0.81128 0.32228-1.5893 0.89594-2.163l12.838-12.838h-2.5405" fill="none" stroke="#fff" stroke-linecap="round" stroke-linejoin="round" stroke-width=".95525"/><path d="m24.059 38.959c1.2202 0.0043 2.2071 0.99468 2.2071 2.2149 0 1.2171-0.98205 2.2062-2.1991 2.2148l-9.0972 5.6e-5c-1.2232 0-2.2149-0.99164-2.2149-2.2149v-9.0814c0-1.2232 0.99164-2.2149 2.2149-2.2149s2.2149 0.99164 2.2149 2.2149v2.5405l12.838-12.838c0.57366-0.57366 1.3517-0.89594 2.163-0.89594 1.6894 0 3.0589 1.3695 3.0589 3.0589 0 0.81128-0.32228 1.5893-0.89594 2.163l-12.838 12.838h2.5405" fill="none" stroke="#fff" stroke-linecap="round" stroke-linejoin="round" stroke-width=".95525"/></svg>
