<?xml version="1.0" encoding="UTF-8"?>
<svg width="48" height="48" version="1.1" viewBox="0 0 48 48" xmlns="http://www.w3.org/2000/svg">
 <g display="none">
  <rect x=".58546" y=".39031" width="46.837" height="48.008" stroke="#fff" stroke-linecap="round" stroke-linejoin="round"/>
 </g>
 <g fill="none" stroke="#fefefe" stroke-linecap="round" stroke-linejoin="round">
  <path d="m4.3438 29.437c-0.65385-0.35007-1.0416-12.253 0.25122-11.801 2.8973 1.0124 5.155 2.6135 5.155 5.8009 3e-7 3.3137-2.1238 6-5.4375 6"/>
  <circle cx="13.844" cy="23.094" r="1.6442"/>
  <g transform="rotate(45 24.307 23.423)">
   <path d="m4.3438 29.437c-0.65385-0.35007-1.0416-12.253 0.25122-11.801 2.8973 1.0124 5.155 2.6135 5.155 5.8009 3e-7 3.3137-2.1238 6-5.4375 6"/>
   <circle cx="13.844" cy="23.094" r="1.6442"/>
  </g>
  <g transform="rotate(90 24.307 23.423)">
   <path d="m4.3438 29.437c-0.65385-0.35007-1.0416-12.253 0.25122-11.801 2.8973 1.0124 5.155 2.6135 5.155 5.8009 3e-7 3.3137-2.1238 6-5.4375 6"/>
   <circle cx="13.844" cy="23.094" r="1.6442"/>
  </g>
  <g transform="rotate(135 24.307 23.423)">
   <path d="m4.3438 29.437c-0.65385-0.35007-1.0416-12.253 0.25122-11.801 2.8973 1.0124 5.155 2.6135 5.155 5.8009 3e-7 3.3137-2.1238 6-5.4375 6"/>
   <circle cx="13.844" cy="23.094" r="1.6442"/>
  </g>
  <g transform="rotate(180 24.307 23.423)">
   <path d="m4.3438 29.437c-0.65385-0.35007-1.0416-12.253 0.25122-11.801 2.8973 1.0124 5.155 2.6135 5.155 5.8009 3e-7 3.3137-2.1238 6-5.4375 6"/>
   <circle cx="13.844" cy="23.094" r="1.6442"/>
  </g>
  <g transform="rotate(225 24.307 23.423)">
   <path d="m4.3438 29.437c-0.65385-0.35007-1.0416-12.253 0.25122-11.801 2.8973 1.0124 5.155 2.6135 5.155 5.8009 3e-7 3.3137-2.1238 6-5.4375 6"/>
   <circle cx="13.844" cy="23.094" r="1.6442"/>
  </g>
  <g transform="rotate(-90 24.307 23.423)">
   <path d="m4.3438 29.437c-0.65385-0.35007-1.0416-12.253 0.25122-11.801 2.8973 1.0124 5.155 2.6135 5.155 5.8009 3e-7 3.3137-2.1238 6-5.4375 6"/>
   <circle cx="13.844" cy="23.094" r="1.6442"/>
  </g>
  <g transform="rotate(-45 24.307 23.423)">
   <path d="m4.3438 29.437c-0.65385-0.35007-1.0416-12.253 0.25122-11.801 2.8973 1.0124 5.155 2.6135 5.155 5.8009 3e-7 3.3137-2.1238 6-5.4375 6"/>
   <circle cx="13.844" cy="23.094" r="1.6442"/>
  </g>
 </g>
</svg>
