<?xml version="1.0" encoding="UTF-8"?>
<svg version="1.1" viewBox="0 0 48 48" xmlns="http://www.w3.org/2000/svg">
 <defs>
  <style>.a{fill:none;stroke:#fff;stroke-linecap:round;stroke-linejoin:round;}</style>
 </defs>
 <circle class="a" cx="24" cy="24" r="21.5"/>
 <g fill="none" stroke="#fff" stroke-linecap="round" stroke-linejoin="round">
  <path d="m27.818 45.014c0.0031-0.02002 0.01267-0.03776 0.01267-0.05883v-10.57s0.13883 0.03376 0.37554 0.06911c0.11836 0.01762 0.26112 0.03576 0.42321 0.05056 0.1621 0.01481 0.34343 0.02575 0.539 0.02962 0.19556 4e-3 0.4054 9.89e-4 0.62413-0.0136 0.21873-0.01467 0.44652-0.0411 0.67812-0.08218 0.23159-0.04123 0.46679-0.09713 0.70096-0.1727 0.11709-0.03776 0.23395-0.08059 0.34976-0.12835 0.1158-0.04777 0.23069-0.10073 0.34393-0.15956 0.21934-0.11407 0.42097-0.23243 0.60562-0.35219 0.18466-0.11968 0.3524-0.24069 0.50445-0.36048 0.15205-0.11981 0.28807-0.2381 0.40958-0.35219 0.12152-0.11408 0.22848-0.2242 0.32154-0.3269 0.18613-0.20537 0.31753-0.3823 0.40228-0.50787 0.08476-0.12555 0.12307-0.19944 0.12307-0.19944v-4.114c-0.10324-0.14939-0.21931-0.29902-0.34732-0.44658-0.12802-0.14754-0.26817-0.29302-0.41882-0.43391-0.15066-0.14089-0.31185-0.27724-0.48306-0.40667-0.17119-0.12942-0.3523-0.25169-0.54191-0.36483-0.18961-0.11314-0.38804-0.2173-0.59397-0.30939-0.20592-0.09206-0.41957-0.17215-0.63969-0.23836-0.22011-0.06618-0.44642-0.11821-0.6786-0.15372-0.23218-0.03548-0.47003-0.05443-0.71217-0.05443-0.21233 0.0067-0.41222 0.02068-0.60076 0.04376-0.18853 0.02309-0.36553 0.0547-0.53314 0.09393-0.16763 0.03923-0.32565 0.0862-0.47526 0.14058-0.14961 0.05443-0.29068 0.11594-0.42515 0.18486-0.13447 0.06884-0.26209 0.14507-0.3843 0.22766-0.12221 0.08259-0.23934 0.17161-0.3522 0.26707-0.11285 0.0954-0.22149 0.19749-0.32787 0.305-0.10638 0.10754-0.21049 0.22077-0.31327 0.33954-0.14719 0.17006-0.28102 0.34991-0.40278 0.53804-0.12176 0.1881-0.23119 0.38411-0.32981 0.58713-0.09862 0.20303-0.18634 0.41318-0.26416 0.62801-0.07779 0.21484-0.146 0.43463-0.20528 0.65817-0.05928 0.22352-0.10968 0.45048-0.15275 0.67957-0.04305 0.2291-0.07836 0.46022-0.10751 0.69175-0.02915 0.23153-0.05202 0.46331-0.06956 0.69416-0.01753 0.23085-0.03019 0.4608-0.03842 0.68784 0 0 0.01435 11.946 0 12.832-8.71e-4 0.05297 0.01026 0.1026 0.03162 0.14934 0.02129 0.0467 0.0529 0.09032 0.0934 0.13089 0.02524 0.02521 0.05966 0.04683 0.09146 0.06951a21.918 21.918 0 0 0 2.7673-0.29091z"/>
  <path d="m20.171 45.014c-0.0031-0.02002-0.01267-0.03776-0.01267-0.05883v-10.57s-0.13883 0.03376-0.37554 0.06911c-0.11836 0.01762-0.26112 0.03576-0.42321 0.05056-0.1621 0.01481-0.34343 0.02575-0.539 0.02962-0.19556 4e-3 -0.4054 9.89e-4 -0.62413-0.0136-0.21873-0.01467-0.44652-0.0411-0.67812-0.08218-0.23159-0.04123-0.46679-0.09713-0.70096-0.1727-0.11709-0.03776-0.23395-0.08059-0.34976-0.12835-0.1158-0.04777-0.23069-0.10073-0.34393-0.15956-0.21934-0.11407-0.42097-0.23243-0.60562-0.35219-0.18466-0.11968-0.3524-0.24069-0.50445-0.36048-0.15205-0.11981-0.28807-0.2381-0.40958-0.35219-0.12152-0.11408-0.22848-0.2242-0.32154-0.3269-0.18613-0.20537-0.31753-0.3823-0.40228-0.50787-0.08476-0.12555-0.12307-0.19944-0.12307-0.19944v-4.114c0.10324-0.14939 0.21931-0.29902 0.34732-0.44658 0.12802-0.14754 0.26817-0.29302 0.41882-0.43391 0.15066-0.14089 0.31185-0.27724 0.48306-0.40667 0.17119-0.12942 0.3523-0.25169 0.54191-0.36483 0.18961-0.11314 0.38804-0.2173 0.59397-0.30939 0.20592-0.09206 0.41957-0.17215 0.63969-0.23836 0.22011-0.06618 0.44642-0.11821 0.6786-0.15372 0.23218-0.03548 0.47003-0.05443 0.71217-0.05443 0.21233 0.0067 0.41222 0.02068 0.60076 0.04376 0.18853 0.02309 0.36553 0.0547 0.53314 0.09393 0.16763 0.03923 0.32565 0.0862 0.47526 0.14058 0.14961 0.05443 0.29068 0.11594 0.42515 0.18486 0.13447 0.06884 0.26209 0.14507 0.3843 0.22766 0.12221 0.08259 0.23934 0.17161 0.3522 0.26707 0.11285 0.0954 0.22149 0.19749 0.32787 0.305 0.10638 0.10754 0.21049 0.22077 0.31327 0.33954 0.14719 0.17006 0.28102 0.34991 0.40278 0.53804 0.12176 0.1881 0.23119 0.38411 0.32981 0.58713 0.09862 0.20303 0.18634 0.41318 0.26416 0.62801 0.07779 0.21484 0.146 0.43463 0.20528 0.65817 0.05928 0.22352 0.10968 0.45048 0.15275 0.67957 0.04305 0.2291 0.07836 0.46022 0.10751 0.69175 0.02915 0.23153 0.05202 0.46331 0.06956 0.69416 0.01753 0.23085 0.03019 0.4608 0.03842 0.68784 0 0-0.01435 11.946 0 12.832 8.71e-4 0.05297-0.01026 0.1026-0.03162 0.14934-0.02129 0.0467-0.0529 0.09032-0.0934 0.13089-0.02524 0.02521-0.05966 0.04683-0.09146 0.06951a21.918 21.918 0 0 1-2.7673-0.29091z"/>
  <path d="m13.822 5.113a10.224 10.245 0 0 0-0.0501 0.50931 10.224 10.245 0 0 0 0.19653 1.9988 10.224 10.245 0 0 0 0.58179 1.922 10.224 10.245 0 0 0 0.9447 1.7712 10.224 10.245 0 0 0 1.2716 1.5528 10.224 10.245 0 0 0 1.5493 1.274 10.224 10.245 0 0 0 1.7673 0.94664 10.224 10.245 0 0 0 1.9181 0.58276 10.224 10.245 0 0 0 1.9944 0.19701 10.224 10.245 0 0 0 1.9944-0.19701 10.224 10.245 0 0 0 1.9181-0.58276 10.224 10.245 0 0 0 1.7673-0.94664 10.224 10.245 0 0 0 1.5493-1.274 10.224 10.245 0 0 0 1.2716-1.5528 10.224 10.245 0 0 0 0.9447-1.7712 10.224 10.245 0 0 0 0.58179-1.922 10.224 10.245 0 0 0 0.19653-1.9988 10.224 10.245 0 0 0-0.018011-0.4991 21.918 21.918 0 0 0-10.206-2.5233 21.918 21.918 0 0 0-10.174 2.513z"/>
  <rect transform="rotate(-30)" x="17.507" y="27.159" width="2.4934" height="4.6699" rx="1.2356" ry=".72266"/>
  <rect transform="matrix(-.86603 -.5 -.5 .86603 0 0)" x="-24.102" y="3.1375" width="2.4934" height="4.6699" rx="1.2356" ry=".72266"/>
 </g>
 <g fill="#fff">
  <circle cx="19.003" cy="10.408" r=".75"/>
  <circle cx="29.044" cy="10.408" r=".75"/>
  <circle cx="31.495" cy="29.871" r=".75"/>
  <circle cx="16.511" cy="29.871" r=".75"/>
 </g>
</svg>
