<?xml version="1.0" encoding="utf-8"?>
<!-- Generator: Adobe Illustrator 24.1.1, SVG Export Plug-In . SVG Version: 6.00 Build 0)  -->
<svg version="1.1" xmlns="http://www.w3.org/2000/svg" xmlns:xlink="http://www.w3.org/1999/xlink" x="0px" y="0px"
	 viewBox="0 0 48 48" style="enable-background:new 0 0 48 48;" xml:space="preserve">
<g id="Layer_1" style="display:none;">
	<rect x="-2075.794" y="-2887.729" style="display:inline;fill:#282828;" width="3706.467" height="4077.28"/>
</g>
<g id="Layer_2">
	<g>
		<path style="fill:none;stroke:#FFFFFF;stroke-miterlimit:10;" d="M12.652,4.328c2.157-0.696,4.663,0.418,5.567,2.436
			c0.766,1.531,0.557,3.549-0.487,4.872c-1.322,1.67-3.828,2.297-5.707,1.322c-1.253-0.626-2.227-1.809-2.505-3.201
			C9.311,8.713,9.381,7.599,9.937,6.625C10.494,5.511,11.538,4.746,12.652,4.328z"/>
		<path style="fill:none;stroke:#FFFFFF;stroke-linecap:round;stroke-miterlimit:10;" d="M28.936,4.6
			c5.239,1.172,9.698,4.413,12.474,8.819"/>
		<path style="fill:none;stroke:#FFFFFF;stroke-linecap:round;stroke-miterlimit:10;" d="M42.894,31.738
			c-3.018,7.135-10.083,12.141-18.317,12.141c-9.598,0-17.607-6.801-19.47-15.847"/>
	</g>
</g>
</svg>
