<?xml version="1.0" encoding="UTF-8"?>
<svg id="b" version="1.1" viewBox="0 0 48 48" xml:space="preserve" xmlns="http://www.w3.org/2000/svg"><defs><style>.c{stroke-width:1px;}.c,.d{fill:none;stroke:#fff;stroke-linecap:round;stroke-linejoin:round;}.e{fill:#fff;stroke-width:0px;}</style></defs><path d="m26.546 36.451c2.2868-0.9555 2.8069-2.248 1.5617-3.8806-1.4872-1.9498-1.3834-3.8358 0.2708-4.9197 3.207-2.1013 5.5623 2.4012 3.338 6.3809-1.9667 3.5188-0.44986 2.6245 5.8571-3.4533 0 0 3.1803-3.0647 4.7704-4.5971 0.67679-0.65219 1.2576-1.2119 1.2615-1.9566 0.0036-0.74365-0.64331-1.3728-1.194-1.9082-0.86525-0.8412-4.2803-4.1535-6.5006-6.3224-4.7812-4.6706-5.9309-5.1543-4.166-1.7526 1.4676 2.8287 1.0763 5.6754-0.89311 6.4983-2.8795 1.2032-4.9658-2.2686-2.9046-4.8336 1.5385-1.9145 0.8852-3.4487-1.8599-4.3678-5.301-1.7748-7.8656 2.4273-7.8656 12.888 3.4e-5 10.309 2.8592 14.508 8.3242 12.225zm-10.112-0.26518c0-0.22871-0.55047-1.2497-1.2233-2.2689-3.8645-5.854-3.7722-13.085 0.24438-19.136 1.011-1.5231 1.2376-2.3804 0.6291-2.3804-0.19239 0-2.9193 2.5061-6.0598 5.569-7.3048 7.1245-7.1742 6.1066-1.4971 11.671 7.3218 7.1759 7.9066 7.6601 7.9066 6.5457z" fill="none" stroke="#fff" stroke-linecap="round" stroke-linejoin="round" stroke-width="1.1677"/></svg>
