<?xml version="1.0" encoding="UTF-8"?>
<svg width="48" height="48" version="1.1" viewBox="0 0 48 48" xml:space="preserve" xmlns="http://www.w3.org/2000/svg"><defs><style>.a{fill:none;stroke:#fff;stroke-linecap:round;stroke-linejoin:round;}</style></defs><g fill="none" stroke="#fff" stroke-linecap="round" stroke-linejoin="round"><path d="m31.133594 25.018298c-0.494707 3.496993-3.500044 6.186698-7.133596 6.186698-3.979211 0-7.204998-3.225787-7.204998-7.204998s3.225787-7.204998 7.204998-7.204998c3.606842 0 6.594672 2.650595 7.12228 6.11m-0.0057 0.08976-3.262578 0.01124m3.262603 1.987672-3.262603 0.01157" stop-color="#000000"/><path d="m27.754 25.179165c-0.50097 1.596509-1.992207 2.754673-3.754002 2.754673-2.1726 0-3.93384-1.76124-3.93384-3.93384s1.76124-3.93384 3.93384-3.93384c1.776537 0 3.265602 1.177627 3.754002 2.794842" stop-color="#000000"/><g><path d="m34.005903 17.632466 7.466505-7.466505c1.175209-1.1752082 1.275958-2.9666828 0.225894-4.0167465-1.050064-1.0500641-2.841538-0.9493153-4.016747 0.2258937l-7.316119 7.3161188" stop-color="#000000"/><path d="m30.364542 13.690837v-5.808739c0-1.6619949-1.195523-3-2.680538-3s-2.680538 1.3380051-2.680538 3l-0.01928 6.546586c4.551773 0.382586 8.194394 4.021342 8.58735 8.589218" stop-color="#000000"/><path d="m34.005873 17.633682h5.910305c1.661995 0 3 1.195523 3 2.680538s-1.338008 2.677594-3 2.680538l-6.347206 0.01124" stop-color="#000000"/><path d="m13.994097 17.632466-7.466505-7.466505c-1.175209-1.1752082-1.275958-2.9666828-0.225894-4.0167465 1.050064-1.0500641 2.841538-0.9493153 4.016747 0.2258937l7.316119 7.3161188" stop-color="#000000"/><path d="m17.635458 13.690837v-5.808739c0-1.6619949 1.195523-3 2.680538-3s2.680538 1.3380051 2.680538 3l0.01928 6.546586c-4.551773 0.382586-8.194394 4.021342-8.58735 8.589218" stop-color="#000000"/><path d="m13.994127 17.633682h-5.910305c-1.661995 0-3 1.195523-3 2.680538s1.338005 2.680538 3 2.680538l6.347206 0.01157" stop-color="#000000"/><path d="m34.005903 30.367534 7.466505 7.466505c1.175209 1.175208 1.275958 2.966683 0.225894 4.016746-1.050064 1.050065-2.841538 0.949316-4.016747-0.225893l-7.316119-7.316119" stop-color="#000000"/><path d="m30.364542 34.309163v5.808739c0 1.661995-1.195523 3-2.680538 3s-2.680538-1.338005-2.680538-3l-0.01928-6.546586c4.551773-0.382586 8.194394-4.021342 8.58735-8.589218" stop-color="#000000"/><path d="m34.005873 30.366318h5.910305c1.661995 0 3-1.195523 3-2.680538s-1.338005-2.680538-3-2.680538l-6.347206-0.01157" stop-color="#000000"/><path d="m13.994097 30.367534-7.466505 7.466505c-1.175209 1.175208-1.275958 2.966683-0.225894 4.016746 1.050064 1.050065 2.841538 0.949316 4.016747-0.225893l7.316119-7.316119" stop-color="#000000"/><path d="m17.635458 34.309163v5.808739c0 1.661995 1.195523 3 2.680538 3s2.680538-1.338005 2.680538-3l0.01928-6.546586c-4.551773-0.382586-8.194394-4.021342-8.58735-8.589218" stop-color="#000000"/><path d="m13.994127 30.366318h-5.910305c-1.661995 0-3-1.195523-3-2.680538s1.338005-2.680538 3-2.680538l6.347206-0.01157" stop-color="#000000"/></g></g></svg>
