<svg xmlns="http://www.w3.org/2000/svg" xml:space="preserve" id="svg990" width="48" height="48" version="1.1"><defs id="defs987"><style id="style1174">.a{fill:none;stroke:#fff;stroke-linecap:round;stroke-linejoin:round}</style></defs><path id="path12606" d="M21.098 20.565c.282-.807 1.765-1.228 3.044-.473 1.149.679 2.047-.08 3.035-.67v1.618c0 1.434-2.934 2.655-2.934 4.266v1.43m-3.288-5.347v-2.023m15.31 9.996A12.266 12.266 0 0 1 24 41.627a12.266 12.266 0 0 1-12.266-12.265A12.266 12.266 0 0 1 24 17.096a12.266 12.266 0 0 1 12.266 12.266Zm-6.234-10.724a12.266 12.266 0 0 1-12.265 12.266A12.266 12.266 0 0 1 5.5 18.638 12.266 12.266 0 0 1 17.766 6.373 12.266 12.266 0 0 1 30.03 18.638Zm12.469 0a12.266 12.266 0 0 1-12.266 12.266A12.266 12.266 0 0 1 17.97 18.638 12.266 12.266 0 0 1 30.234 6.373 12.266 12.266 0 0 1 42.5 18.638Z" style="fill:none;stroke:#fff;stroke-width:1;stroke-linecap:round;stroke-linejoin:round;stroke-dasharray:none;stroke-opacity:1;stop-color:#000"/></svg>