<?xml version="1.0" encoding="UTF-8" standalone="no"?>
<svg
   xmlns:dc="http://purl.org/dc/elements/1.1/"
   xmlns:cc="http://creativecommons.org/ns#"
   xmlns:rdf="http://www.w3.org/1999/02/22-rdf-syntax-ns#"
   xmlns:svg="http://www.w3.org/2000/svg"
   xmlns="http://www.w3.org/2000/svg"
   xmlns:sodipodi="http://sodipodi.sourceforge.net/DTD/sodipodi-0.dtd"
   xmlns:inkscape="http://www.inkscape.org/namespaces/inkscape"
   viewBox="0 0 48 48"
   version="1.1"
   id="svg8"
   sodipodi:docname="chess.svg"
   inkscape:version="1.0.1 (0767f8302a, 2020-10-17)">
  <metadata
     id="metadata12">
    <rdf:RDF>
      <cc:Work
         rdf:about="">
        <dc:format>image/svg+xml</dc:format>
        <dc:type
           rdf:resource="http://purl.org/dc/dcmitype/StillImage" />
        <dc:title></dc:title>
      </cc:Work>
    </rdf:RDF>
  </metadata>
  <sodipodi:namedview
     pagecolor="#ff00ff"
     bordercolor="#666666"
     borderopacity="1"
     objecttolerance="10"
     gridtolerance="10"
     guidetolerance="10"
     inkscape:pageopacity="0"
     inkscape:pageshadow="2"
     inkscape:window-width="1920"
     inkscape:window-height="1025"
     id="namedview10"
     showgrid="false"
     inkscape:zoom="17.9375"
     inkscape:cx="25.082698"
     inkscape:cy="24.093378"
     inkscape:window-x="1366"
     inkscape:window-y="0"
     inkscape:window-maximized="1"
     inkscape:current-layer="svg8"
     inkscape:document-rotation="0" />
  <defs
     id="defs4">
    <style
       id="style2">.a{fill:none;stroke:#fff;stroke-linecap:round;stroke-linejoin:round;}</style>
    <linearGradient
       id="linearGradient3813">
      <stop
         id="stop3815"
         offset="0"
         style="stop-color:#063289;stop-opacity:1" />
      <stop
         id="stop3817"
         offset="1"
         style="stop-color:#6e98da;stop-opacity:1" />
    </linearGradient>
  </defs>
  <path
     class="a"
     d="M40.5,5.5H7.5a2,2,0,0,0-2,2v33a2,2,0,0,0,2,2h33a2,2,0,0,0,2-2V7.5A2,2,0,0,0,40.5,5.5Z"
     id="path6" />
  <path
     inkscape:connector-curvature="0"
     d="m 28.561879,21.380389 c 5.657478,0.538807 8.890322,4.310459 8.620918,15.625414 H 24.790228 c 0,-4.849267 5.92688,-3.502248 4.849266,-11.314955"
     style="fill:none;fill-opacity:1;stroke:#ffffff;stroke-width:1;stroke-linecap:round;stroke-linejoin:round;stroke-miterlimit:4;stroke-dasharray:none;stroke-opacity:1"
     id="path3384"
     sodipodi:nodetypes="cccc" />
  <path
     inkscape:connector-curvature="0"
     d="m 29.639494,25.690848 c 0.204747,1.567929 -2.990381,3.97101 -4.310459,4.849266 -1.616422,1.077615 -1.519437,2.338424 -2.694037,2.15523 -0.561437,-0.506479 0.759719,-1.637975 0,-1.616422 -0.538807,0 0.102374,0.662733 -0.538807,1.077614 -0.538808,0 -2.156846,0.538808 -2.15523,-2.155229 0,-1.077615 3.232845,-6.465689 3.232845,-6.465689 0,0 1.018346,-1.023734 1.077614,-1.885826 -0.393329,-0.535574 -0.269403,-1.077614 -0.269403,-1.616422 0.538807,-0.538807 1.616422,1.347019 1.616422,1.347019 h 1.077615 c 0,0 0.420269,-1.073305 1.347018,-1.616422 0.538807,0 0.538807,1.616422 0.538807,1.616422"
     style="fill:none;fill-opacity:1;stroke:#ffffff;stroke-width:1;stroke-linecap:round;stroke-linejoin:round;stroke-miterlimit:4;stroke-dasharray:none;stroke-opacity:1"
     id="path3386" />
  <path
     inkscape:connector-curvature="0"
     d="m 21.826787,29.731903 a 0.26940369,0.26940369 0 1 1 -0.538807,0 0.26940369,0.26940369 0 1 1 0.538807,0 z"
     style="fill:none;fill-opacity:1;stroke:#ffffff;stroke-width:1;stroke-linecap:round;stroke-linejoin:round;stroke-miterlimit:4;stroke-dasharray:none;stroke-opacity:1"
     id="path3388" />
  <path
     inkscape:connector-curvature="0"
     d="m 24.754128,24.478531 a 0.26939819,0.80819458 30.000728 1 1 -0.466608,-0.269404 0.26939819,0.80819458 30.000728 1 1 0.466608,0.269404 z"
     style="fill:none;fill-opacity:1;stroke:#ffffff;stroke-width:0.999999;stroke-linecap:round;stroke-linejoin:round;stroke-miterlimit:4;stroke-dasharray:none;stroke-opacity:1"
     id="path3390" />
  <path
     id="path3104"
     style="fill:none;fill-opacity:1;stroke:#ffffff;stroke-width:1;stroke-linecap:butt;stroke-linejoin:round;stroke-miterlimit:4;stroke-dasharray:none;stroke-opacity:1"
     d="M 9.7524437,23.332744 H 21.755555 v -1.333679 l -1.333679,0 c -2.000519,0 -7.335234,0 -9.335753,0 H 9.7524437 Z"
     inkscape:connector-curvature="0"
     sodipodi:nodetypes="ccccccc" />
  <path
     id="path3106"
     style="fill:none;fill-opacity:1;stroke:#ffffff;stroke-width:1;stroke-linecap:butt;stroke-linejoin:round;stroke-miterlimit:4;stroke-dasharray:none;stroke-opacity:1"
     d="m 20.421876,20.220826 v 1.778239 z"
     inkscape:connector-curvature="0"
     sodipodi:nodetypes="ccc" />
  <path
     id="path3108"
     style="fill:none;fill-opacity:1;stroke:#ffffff;stroke-width:1;stroke-linecap:butt;stroke-linejoin:round;stroke-miterlimit:4;stroke-dasharray:none;stroke-opacity:1"
     d="M 10.641563,12.218751 V 9.995953 h 1.778239 v 0.889119 H 14.6426 V 9.995953 h 2.222799 v 0.889119 h 2.222798 V 9.995953 h 1.778239 v 2.222798"
     inkscape:connector-curvature="0" />
  <path
     id="path3110"
     d="m 20.866436,12.218751 -1.333679,1.33368 h -7.557515 l -1.333679,-1.33368"
     inkscape:connector-curvature="0"
     style="fill:none;fill-opacity:1;stroke:#ffffff;stroke-width:1;stroke-linecap:round;stroke-linejoin:round;stroke-miterlimit:4;stroke-dasharray:none;stroke-opacity:1" />
  <path
     id="path3114"
     d="m 19.532757,19.109427 0.889119,1.111399 m -9.335753,0 0.889119,-1.111399"
     inkscape:connector-curvature="0"
     style="fill:none;fill-opacity:1;stroke:#ffffff;stroke-width:1;stroke-linecap:round;stroke-linejoin:round;stroke-miterlimit:4;stroke-dasharray:none;stroke-opacity:1"
     sodipodi:nodetypes="cccc" />
  <path
     id="path3112-6"
     style="fill:none;fill-opacity:1;stroke:#ffffff;stroke-width:1;stroke-linecap:butt;stroke-linejoin:miter;stroke-miterlimit:4;stroke-dasharray:none;stroke-opacity:1"
     d="m 11.975242,19.109427 v -5.556996 h 7.557515 v 5.556996"
     inkscape:connector-curvature="0" />
  <path
     id="path997"
     style="fill:none;fill-opacity:1;stroke:#ffffff;stroke-width:1;stroke-linecap:butt;stroke-linejoin:round;stroke-miterlimit:4;stroke-dasharray:none;stroke-opacity:1"
     d="M 11.086123,21.999065 V 20.220826 Z"
     inkscape:connector-curvature="0"
     sodipodi:nodetypes="ccc" />
</svg>
