<?xml version="1.0" encoding="UTF-8"?>
<svg version="1.1" viewBox="0 0 48 48" xmlns="http://www.w3.org/2000/svg">
    <defs>
        <style>.a{fill:none;stroke:#fff;stroke-linecap:round;stroke-linejoin:round;}</style>
    </defs>
    <path d="m16.63 26.896-4.8251-5.0072c-2.9609-3.0727-6.3509-0.14409-6.2069 2.6704 0.15186 2.9696 3.9094 4.5901 6.298 2.0637l4.7341-5.0072" fill="none" stop-color="#000000" stroke="#fff" stroke-linecap="round" stroke-linejoin="round" style="-inkscape-stroke:none;font-variation-settings:normal"/>
    <path d="m21.538 16.279 4.7341-4.643c3.3957-3.3304 8.8781 1.1614 4.9162 5.0982l-14.384 14.293c-4.1591 4.1328 1.8176 8.3789 5.0982 5.0982l4.2789-4.2789" fill="none" stop-color="#000000" stroke="#fff" stroke-linecap="round" stroke-linejoin="round" style="-inkscape-stroke:none;font-variation-settings:normal"/>
    <path d="m26.181 16.37-4.643-4.9162c-3.1564-3.3421-8.5698 1.3104-5.0982 4.8251l14.657 14.84c3.9728 4.0221-1.7381 8.8473-5.1893 5.4624l-4.7341-4.643" fill="none" stop-color="#000000" stroke="#fff" stroke-linecap="round" stroke-linejoin="round" style="-inkscape-stroke:none;font-variation-settings:normal"/>
    <path d="m31.37 21.468 4.8251 5.0072c2.961 3.0727 6.3509 0.14409 6.2069-2.6704-0.15186-2.9696-3.9094-4.5901-6.298-2.0637l-4.7341 5.0072" fill="none" stop-color="#000000" stroke="#fff" stroke-linecap="round" stroke-linejoin="round" style="-inkscape-stroke:none;font-variation-settings:normal"/>
</svg>
