<svg version="1.1" viewBox="0 0 48 48" xmlns="http://www.w3.org/2000/svg">
 <g stroke="#fff" stroke-linecap="round" stroke-linejoin="round" stroke-miterlimit="5.5">
  <g>
   <path class="st5" d="m22.779 35.22c-2.8202-0.44678-4.7442-3.0952-4.2974-5.9154l0.82422-5.2027c0.44678-2.8202 3.0952-4.7442 5.9154-4.2975 2.8202 0.44678 4.7443 3.0952 4.2975 5.9154l-0.82422 5.2028c-0.44678 2.8202-3.0952 4.7442-5.9154 4.2975z" fill="none"/>
   <line class="st5" x1="5.5022" x2="15.842" y1="19.74" y2="19.74"/>
   <path class="st5" d="m8.4 35.181 2.2723-15.441"/>
   <line class="st5" x1="32.158" x2="42.498" y1="19.74" y2="19.74"/>
   <path class="st5" d="m35.055 35.181 2.2723-15.441"/>
  </g>
  <g fill="none">
   <path d="m21.499 28.022 0.94132 2.2481 4.0605-5.5172"/>
   <path d="m23.362 16.228 2.29-1.1706 1.9242 1.1706"/>
   <line class="st5" x1="28.747" x2="32.208" y1="13.887" y2="12.716"/>
  </g>
 </g>
</svg>
