<?xml version="1.0" encoding="UTF-8"?>
<svg version="1.1" viewBox="0 0 48 48" xml:space="preserve" xmlns="http://www.w3.org/2000/svg"><defs><style>.a{fill:none;stroke:#fff;stroke-linecap:round;stroke-linejoin:round;}</style></defs><g fill="none" stroke="#fff" stroke-linecap="round" stroke-linejoin="round" stroke-width=".83074"><path transform="matrix(1.2037 0 0 1.2037 -4.5378 -4.8074)" d="m17.509 21.662c-1.8056-0.36911-3.5923-0.90019-5.2173-1.7695-0.60437-0.32331-1.1886-0.69577-1.6805-1.1731-0.4919-0.47731-0.88969-1.0661-1.0693-1.7275-0.17311-0.63743-0.13553-1.3296 0.1015-1.9461s0.67166-1.1546 1.2221-1.5197c0.85945-0.57007 1.9677-0.69821 2.9732-0.46906 1.1437 0.26062 2.1477 0.94383 3.0289 1.718 1.0919 0.95933 2.0394 2.0765 2.8629 3.2741 0.90219 1.3121 1.6588 2.7242 2.2515 4.2021-1.5024-0.09075-2.9984-0.28783-4.473-0.58929z"/><path transform="matrix(-1.2037 0 0 1.2037 50.397 -4.8074)" d="m17.509 21.662c-1.8056-0.36911-3.5923-0.90019-5.2173-1.7695-0.60437-0.32331-1.1886-0.69577-1.6805-1.1731-0.4919-0.47731-0.88969-1.0661-1.0693-1.7275-0.17311-0.63743-0.13553-1.3296 0.1015-1.9461s0.67166-1.1546 1.2221-1.5197c0.85945-0.57007 1.9677-0.69821 2.9732-0.46906 1.1437 0.26062 2.1477 0.94383 3.0289 1.718 1.0919 0.95933 2.0394 2.0765 2.8629 3.2741 0.90219 1.3121 1.6588 2.7242 2.2515 4.2021-1.5024-0.09075-2.9984-0.28783-4.473-0.58929z"/><path transform="matrix(1.2037 0 0 -1.2037 -4.5378 50.4)" d="m17.509 21.662c-1.8056-0.36911-3.5923-0.90019-5.2173-1.7695-0.60437-0.32331-1.1886-0.69577-1.6805-1.1731-0.4919-0.47731-0.88969-1.0661-1.0693-1.7275-0.17311-0.63743-0.13553-1.3296 0.1015-1.9461s0.67166-1.1546 1.2221-1.5197c0.85945-0.57007 1.9677-0.69821 2.9732-0.46906 1.1437 0.26062 2.1477 0.94383 3.0289 1.718 1.0919 0.95933 2.0394 2.0765 2.8629 3.2741 0.90219 1.3121 1.6588 2.7242 2.2515 4.2021-1.5024-0.09075-2.9984-0.28783-4.473-0.58929z"/><path transform="matrix(-1.2037 0 0 -1.2037 52.538 52.807)" d="m17.509 21.662c-1.8056-0.36911-3.5923-0.90019-5.2173-1.7695-0.60437-0.32331-1.1886-0.69577-1.6805-1.1731-0.4919-0.47731-0.88969-1.0661-1.0693-1.7275-0.17311-0.63743-0.13553-1.3296 0.1015-1.9461s0.67166-1.1546 1.2221-1.5197c0.85945-0.57007 1.9677-0.69821 2.9732-0.46906 1.1437 0.26062 2.1477 0.94383 3.0289 1.718 1.0919 0.95933 2.0394 2.0765 2.8629 3.2741 0.90219 1.3121 1.6588 2.7242 2.2515 4.2021-1.5024-0.09075-2.9984-0.28783-4.473-0.58929z"/></g></svg>
