<?xml version="1.0" encoding="UTF-8" standalone="no"?>
<!-- Created with Inkscape (http://www.inkscape.org/) -->

<svg
   width="48"
   height="48"
   viewBox="0 0 48 48"
   version="1.1"
   id="svg5"
   xml:space="preserve"
   inkscape:version="1.2 (dc2aedaf03, 2022-05-15)"
   sodipodi:docname="circleoO.svg"
   xmlns:inkscape="http://www.inkscape.org/namespaces/inkscape"
   xmlns:sodipodi="http://sodipodi.sourceforge.net/DTD/sodipodi-0.dtd"
   xmlns="http://www.w3.org/2000/svg"
   xmlns:svg="http://www.w3.org/2000/svg"><sodipodi:namedview
     id="namedview7"
     pagecolor="#ffffff"
     bordercolor="#000000"
     borderopacity="0.25"
     inkscape:showpageshadow="2"
     inkscape:pageopacity="0.0"
     inkscape:pagecheckerboard="0"
     inkscape:deskcolor="#d1d1d1"
     inkscape:document-units="px"
     showgrid="false"
     inkscape:zoom="13.166667"
     inkscape:cx="15.721519"
     inkscape:cy="24.303797"
     inkscape:window-width="1920"
     inkscape:window-height="1005"
     inkscape:window-x="0"
     inkscape:window-y="0"
     inkscape:window-maximized="1"
     inkscape:current-layer="layer2" /><defs
     id="defs2"><inkscape:path-effect
       effect="fillet_chamfer"
       id="path-effect1028"
       is_visible="true"
       lpeversion="1"
       nodesatellites_param="F,0,0,1,0,0,0,1 @ F,0,0,1,0,3,0,1 @ F,0,0,1,0,3,0,1 @ F,0,0,1,0,3,0,1 @ F,0,0,1,0,3,0,1 @ F,0,0,1,0,3,0,1 @ F,0,0,1,0,3,0,1 @ F,0,0,1,0,3,0,1 @ F,0,0,1,0,3,0,1"
       unit="px"
       method="auto"
       mode="F"
       radius="3"
       chamfer_steps="1"
       flexible="false"
       use_knot_distance="true"
       apply_no_radius="true"
       apply_with_radius="true"
       only_selected="false"
       hide_knots="false" /><inkscape:path-effect
       effect="fillet_chamfer"
       id="path-effect4721"
       is_visible="true"
       lpeversion="1"
       nodesatellites_param="F,0,0,1,0,0,0,1 @ F,0,0,1,0,5,0,1 @ F,0,0,1,0,5,0,1 @ F,0,0,1,0,5,0,1 @ F,0,0,1,0,5,0,1 @ F,0,0,1,0,3.2194673,0,1 @ F,0,0,1,0,1.7450749,0,1 @ F,0,0,1,0,1.8392511,0,1 @ F,0,0,1,0,0,0,1"
       unit="px"
       method="auto"
       mode="F"
       radius="5"
       chamfer_steps="1"
       flexible="false"
       use_knot_distance="true"
       apply_no_radius="true"
       apply_with_radius="true"
       only_selected="false"
       hide_knots="false" /><inkscape:path-effect
       effect="fillet_chamfer"
       id="path-effect4596"
       is_visible="true"
       lpeversion="1"
       nodesatellites_param="F,0,0,1,0,0,0,1 @ F,0,0,1,0,1,0,1 @ F,0,0,1,0,1,0,1 @ F,0,0,1,0,1,0,1 @ F,0,0,1,0,1,0,1 @ F,0,0,1,0,1,0,1 @ F,0,0,1,0,1,0,1"
       unit="px"
       method="auto"
       mode="F"
       radius="1"
       chamfer_steps="1"
       flexible="false"
       use_knot_distance="true"
       apply_no_radius="true"
       apply_with_radius="true"
       only_selected="false"
       hide_knots="false" /><inkscape:path-effect
       effect="fillet_chamfer"
       id="path-effect4548"
       is_visible="true"
       lpeversion="1"
       nodesatellites_param="F,0,0,1,0,10,0,1 @ F,0,0,1,0,10,0,1 @ F,0,0,1,0,10,0,1 @ F,0,0,1,0,10,0,1"
       unit="px"
       method="auto"
       mode="F"
       radius="10"
       chamfer_steps="1"
       flexible="false"
       use_knot_distance="true"
       apply_no_radius="true"
       apply_with_radius="true"
       only_selected="false"
       hide_knots="false" /><inkscape:path-effect
       effect="fillet_chamfer"
       id="path-effect4180"
       is_visible="true"
       lpeversion="1"
       nodesatellites_param="C,0,0,1,0,81,0,1 @ C,0,0,1,0,81,0,1 @ C,0,0,1,0,81,0,1 @ C,0,0,1,0,81,0,1 @ C,0,0,1,0,81,0,1 @ C,0,0,1,0,81,0,1 @ C,0,0,1,0,81,0,1 @ C,0,0,1,0,81,0,1"
       unit="px"
       method="auto"
       mode="F"
       radius="81"
       chamfer_steps="1"
       flexible="false"
       use_knot_distance="true"
       apply_no_radius="true"
       apply_with_radius="true"
       only_selected="false"
       hide_knots="false" /><inkscape:path-effect
       effect="fillet_chamfer"
       id="path-effect3266"
       is_visible="true"
       lpeversion="1"
       nodesatellites_param="F,0,0,1,0,0,0,1 @ F,0,0,1,0,1,0,1 @ F,0,0,1,0,1,0,1 @ F,0,0,1,0,1,0,1"
       unit="px"
       method="auto"
       mode="F"
       radius="1"
       chamfer_steps="1"
       flexible="false"
       use_knot_distance="true"
       apply_no_radius="true"
       apply_with_radius="true"
       only_selected="false"
       hide_knots="false" /><inkscape:path-effect
       effect="fillet_chamfer"
       id="path-effect988"
       is_visible="true"
       lpeversion="1"
       nodesatellites_param="F,0,0,1,0,0,0,1 @ F,0,1,1,0,2.2251003,0,1 @ F,0,0,1,0,2.2251003,0,1 @ F,0,0,1,0,2.3830916,0,1 @ F,0,0,1,0,1.8257793,0,1 @ F,0,0,1,0,2.3830916,0,1 @ F,0,0,1,0,0,0,1"
       unit="px"
       method="auto"
       mode="F"
       radius="3"
       chamfer_steps="1"
       flexible="false"
       use_knot_distance="true"
       apply_no_radius="true"
       apply_with_radius="true"
       only_selected="false"
       hide_knots="false" /><inkscape:path-effect
       effect="fillet_chamfer"
       id="path-effect984"
       is_visible="true"
       lpeversion="1"
       nodesatellites_param="F,0,0,1,0,0,0,1 @ F,0,0,1,0,2,0,1 @ F,0,0,1,0,2,0,1 @ F,0,0,1,0,2,0,1 @ F,0,0,1,0,2,0,1 @ F,0,0,1,0,2,0,1 @ F,0,0,1,0,2,0,1 @ F,0,0,1,0,2,0,1 @ F,0,0,1,0,2,0,1 @ F,0,0,1,0,2,0,1"
       unit="px"
       method="auto"
       mode="F"
       radius="2"
       chamfer_steps="1"
       flexible="false"
       use_knot_distance="true"
       apply_no_radius="true"
       apply_with_radius="true"
       only_selected="false"
       hide_knots="false" /><style
       id="style302">.a{fill:none;stroke:#fff;stroke-linecap:round;stroke-linejoin:round;}</style></defs><g
     inkscape:groupmode="layer"
     id="layer2"
     inkscape:label="icon"
     style="display:inline"
     transform="translate(-0.20785189,0.05841923)"><path
       class="a"
       d="M 43.621622,2 H 4.3783784 A 2.3783784,2.3783784 0 0 0 2,4.3783784 V 43.621622 A 2.3783784,2.3783784 0 0 0 4.3783784,46 H 43.621622 A 2.3783784,2.3783784 0 0 0 46,43.621622 V 4.3783784 A 2.3783784,2.3783784 0 0 0 43.621622,2 Z"
       id="path306"
       style="display:none;stroke-width:1;paint-order:normal;stroke-dasharray:none" /><path
       style="color:#000000;fill:#ffffff;stroke-linecap:round;stroke-linejoin:round;stroke-width:1;stroke-dasharray:none"
       d="m 24,19.697266 c -2.373471,0 -4.308594,1.931421 -4.308594,4.302734 0,2.371313 1.935123,4.302734 4.308594,4.302734 2.373471,0 4.308594,-1.931421 4.308594,-4.302734 0,-2.371313 -1.935123,-4.302734 -4.308594,-4.302734 z m 0,1 c 1.833779,0 3.308594,1.472606 3.308594,3.302734 0,1.830128 -1.474815,3.302734 -3.308594,3.302734 -1.833779,0 -3.308594,-1.472606 -3.308594,-3.302734 0,-1.830128 1.474815,-3.302734 3.308594,-3.302734 z"
       id="path4078" /><path
       style="opacity:1;fill:none;stroke:#ffffff;stroke-width:1;stroke-linecap:round;stroke-linejoin:round;stroke-dasharray:none"
       d="M 40.078842,8.3454569 39.526344,9.906333 a 29.657375,29.657375 105.63427 0 0 -1.075541,3.843277 24.157614,24.157614 97.041425 0 0 -0.455436,3.687191 l -0.0021,0.03984 a 29.099904,29.099904 89.024326 0 0 0.06795,3.990008 21.819221,21.819221 79.852848 0 0 0.659691,3.685911 25.417921,25.417921 70.747875 0 0 1.272582,3.643683 35.392613,35.392613 63.304238 0 0 1.620939,3.223472 l 0.02659,0.04738 a 30.99793,30.99793 57.004331 0 0 2.173783,3.347886 69.843544,69.843544 51.828959 0 0 1.936662,2.46362"
       id="path982"
       inkscape:path-effect="#path-effect984"
       inkscape:original-d="m 40.078842,8.3454569 -1.219858,3.4462491 -0.760479,3.647756 -0.208334,4.034514 0.321502,3.744508 0.985627,3.743086 1.438285,3.314071 1.98437,3.535522 1.986835,2.666777 1.144722,1.400659" /><path
       style="opacity:1;fill:none;stroke:#ffffff;stroke-width:1;stroke-linecap:round;stroke-linejoin:round;stroke-dasharray:none"
       d="m 29.267318,19.345452 0.01675,0.982869 a 17.71517,17.71517 85.79251 0 0 0.146504,1.99144 72.555243,72.555243 83.3513 0 1 0.22495,1.929813 l 0.0372,0.359767 a 13.562063,13.562063 79.878891 0 0 0.350508,1.963547 l 0.169083,0.661498 a 15.465166,15.465166 71.962135 0 0 0.618,1.897741 l 0.255946,0.641937 a 14.312585,14.312585 64.265778 0 0 0.866282,1.797254 l 0.337824,0.591527"
       id="path986"
       sodipodi:nodetypes="ccccccc"
       inkscape:path-effect="#path-effect4596"
       inkscape:original-d="m 29.267318,19.345452 0.0338,1.982724 0.251546,1.926702 0.242929,2.349159 0.664373,2.5992 0.996656,2.499717 0.833751,1.459891" /><path
       style="opacity:1;fill:none;stroke:#ffffff;stroke-linecap:round;stroke-linejoin:round;stroke-width:1;stroke-dasharray:none"
       d="M 20.992959,27.07565 8.2697963,39.798813"
       id="path1053" /><path
       id="path1055"
       style="opacity:1;fill:none;stroke:#ffffff;stroke-width:1;stroke-linecap:round;stroke-linejoin:round;stroke-dasharray:none"
       d="m 20.931783,27.349426 c 2.356595,2.036805 2.704819,5.043261 1.966521,7.946717 -0.738298,2.903456 -3.231127,5.387582 -6.32244,6.240157 -3.091313,0.852576 -5.92271,0.316058 -8.2607396,-1.738956"
       sodipodi:nodetypes="cssc" /><path
       style="opacity:1;fill:none;stroke:#ffffff;stroke-width:1;stroke-linecap:round;stroke-linejoin:round;stroke-dasharray:none"
       d="m 27.409554,29.820588 -7.295687,16.099033 h 10.665406 l 7.020811,-8.153136 -5.253592,-5.314199 -2.556488,-1.807369 z"
       id="path1104"
       sodipodi:nodetypes="ccccccc" /><path
       style="opacity:1;fill:none;stroke:#ffffff;stroke-width:1;stroke-linecap:round;stroke-linejoin:round;stroke-dasharray:none"
       d="M 2.2454862,22.520054 19.073422,28.65472"
       id="path1195" /><path
       style="opacity:1;fill:none;stroke:#ffffff;stroke-width:1;stroke-linecap:round;stroke-linejoin:round;stroke-opacity:1;stroke-dasharray:none"
       d="m 13.306902,13.290467 13.087255,5.184168"
       id="path2932" /><path
       style="opacity:1;fill:none;stroke:#ffffff;stroke-width:1;stroke-linecap:round;stroke-linejoin:round;stroke-opacity:1;stroke-dasharray:none"
       d="m 29.033305,15.279937 6.42905,-2.440901"
       id="path3258" /><path
       style="opacity:1;fill:none;stroke:#ffffff;stroke-width:1;stroke-linecap:round;stroke-linejoin:round;stroke-opacity:1;stroke-dasharray:none"
       d="m 5.7420103,5.3144472 0.2373312,-0.0035 a 391.87641,391.87641 178.7165 0 0 5.9983185,-0.1343922 111.09906,111.09906 176.73083 0 0 4.248681,-0.2426838 176.55872,176.55872 175.10951 0 0 3.158165,-0.2702222 96.007157,96.007157 173.26406 0 0 3.33421,-0.3938003 162.58404,162.58404 171.99348 0 0 3.880053,-0.545756 63.604766,63.604766 168.96789 0 0 4.135814,-0.8063264 27.243783,27.243783 162.45774 0 0 2.942762,-0.9302361"
       id="path3260"
       sodipodi:nodetypes="ccccccccc"
       inkscape:path-effect="#path-effect1028"
       inkscape:original-d="M 5.7420103,5.3144472 8.9790153,5.2667112 13.233349,5.1388021 16.395675,4.922277 19.740755,4.6328224 23.63042,4.1587242 27.801525,3.547983 31.23674,2.8098695 33.677345,1.9875303" /><path
       style="opacity:1;fill:#000000;fill-opacity:1;fill-rule:nonzero;stroke:#ffffff;stroke-linecap:round;stroke-linejoin:round;stroke-opacity:0.999945;stroke-width:1;stroke-dasharray:none"
       d="M 43.30807,5.0325266 27.247917,21.09268"
       id="path3630" /><path
       style="opacity:1;fill:#000000;fill-opacity:1;fill-rule:nonzero;stroke:#ffffff;stroke-width:1;stroke-linecap:round;stroke-linejoin:round;stroke-opacity:0.999945;stroke-dasharray:none"
       d="M 5.1429189,5.1253848 20.971611,21.083832"
       id="path4064" /><path
       style="opacity:1;fill:#000000;fill-opacity:1;fill-rule:nonzero;stroke:#ffffff;stroke-width:1;stroke-linecap:round;stroke-linejoin:round;stroke-opacity:0.999945;stroke-dasharray:none"
       d="M 5.1649092,42.755009 21.037772,26.882146"
       id="path4066" /><path
       style="opacity:1;fill:#000000;fill-opacity:1;fill-rule:nonzero;stroke:#ffffff;stroke-width:1;stroke-linecap:round;stroke-linejoin:round;stroke-opacity:0.999945;stroke-dasharray:none"
       d="M 43.073156,42.963394 27.109604,26.999841"
       id="path4068" /><path
       style="display:inline;opacity:1;fill:#000000;fill-opacity:0;fill-rule:nonzero;stroke:#ffffff;stroke-width:0.999996;stroke-linecap:round;stroke-linejoin:round;stroke-opacity:0.999945;paint-order:normal"
       id="rect4234"
       width="44.000004"
       height="44.000008"
       x="2.20785"
       y="1.941577"
       sodipodi:type="rect"
       d="m 12.20785,1.941577 h 24.000004 a 10,10 45 0 1 10,10 l 0,24.000008 a 10,10 135 0 1 -10,10 H 12.20785 a 10,10 45 0 1 -10,-10 V 11.941577 a 10,10 135 0 1 10,-10 z"
       inkscape:path-effect="#path-effect4548" /><g
       id="g466"
       transform="rotate(-7.2039126,60.72032,27.458215)"><circle
         id="path4713"
         style="fill:#ffffff;stroke:none;stroke-width:0.999993"
         cx="16.373789"
         cy="23.94158"
         r="0.75" /><circle
         id="path4715"
         style="fill:#ffffff;stroke:none;stroke-width:1"
         cx="12.587632"
         cy="23.94158"
         r="0.75" /><circle
         id="path4717"
         style="fill:#ffffff;stroke:none;stroke-width:1"
         cx="8.8014755"
         cy="23.94158"
         r="0.75" /><circle
         id="path4719"
         style="fill:#ffffff;fill-opacity:1;stroke:none;stroke-width:1.5;stroke-dasharray:none"
         cx="5.0153184"
         cy="23.94158"
         r="0.75" /></g></g></svg>
