<?xml version="1.0" encoding="UTF-8"?>
<svg version="1.1" viewBox="0 0 48 48" xml:space="preserve" xmlns="http://www.w3.org/2000/svg"><defs><style>.a{fill:none;stroke:#fff;stroke-linecap:round;stroke-linejoin:round;}</style></defs><circle class="a" cx="24" cy="24" r="21.5"/><path d="m21.163 41.545a17.648 17.648 0 0 1-14.646-14.082" fill="none" stroke="#fff" stroke-linecap="round" stroke-linejoin="round"/><path d="m22.909 6.4793a17.648 17.648 0 0 1 0.93281-0.02467 17.648 17.648 0 0 1 17.642 17.198" fill="none" stroke="#fff" stroke-linecap="round" stroke-linejoin="round"/><path d="m22.909 9.69a13.564 13.54 0 0 1 0.51631-0.00981 13.564 13.54 0 0 1 13.564 13.54v0a13.564 13.54 0 0 1-7e-3 0.43402" fill="none" stroke="#fff" stroke-linecap="round" stroke-linejoin="round"/><path d="m21.117 36.562a13.564 13.54 0 0 1-10.583-9.1304" fill="none" stroke="#fff" stroke-linecap="round" stroke-linejoin="round"/><ellipse cx="23.841" cy="23.658" rx="2.3636" ry="2.5032" fill="none" stroke="#fff" stroke-linecap="round" stroke-linejoin="round"/><circle cx="23.841" cy="23.652" r="6.019" fill="none" stroke="#fff" stroke-linecap="round" stroke-linejoin="round"/></svg>
