<?xml version="1.0" encoding="utf-8"?>
<!-- Generator: Adobe Illustrator 24.1.1, SVG Export Plug-In . SVG Version: 6.00 Build 0)  -->
<svg version="1.1" xmlns="http://www.w3.org/2000/svg" xmlns:xlink="http://www.w3.org/1999/xlink" x="0px" y="0px"
	 viewBox="0 0 48 48" style="enable-background:new 0 0 48 48;" xml:space="preserve">
<g id="Layer_1" style="display:none;">
	
		<rect x="-529.219" y="-120.692" style="display:inline;fill:#282828;stroke:#FFFFFF;stroke-width:0;stroke-miterlimit:10;" width="3706.467" height="4077.28"/>
</g>
<g id="Layer_2">
	<g>
		<path style="fill:none;stroke:#FFFFFF;stroke-linecap:round;stroke-linejoin:round;stroke-miterlimit:2;" d="M39.943,19.823
			c0.285,1.248,0.436,2.547,0.436,3.882c0,9.574-7.762,17.336-17.336,17.336S5.708,33.279,5.708,23.705S13.469,6.369,23.044,6.369
			c0.417,0,0.831,0.015,1.241,0.044"/>
		<path style="fill:none;stroke:#FFFFFF;stroke-linecap:round;stroke-linejoin:round;stroke-miterlimit:2;" d="M28.149,2.102
			c9.796,2.306,17.088,11.103,17.088,21.603c0,12.257-9.936,22.193-22.193,22.193c-9.042,0-16.822-5.408-20.28-13.166"/>
		<g>
			<path style="fill:#FFFFFF;" d="M23.585,12.971l0.944,2.904h3.054l-2.47,1.795l0.944,2.904l-2.47-1.795l-2.47,1.795l0.944-2.904
				l-2.47-1.795h3.054L23.585,12.971 M23.585,11.971c-0.433,0-0.817,0.279-0.951,0.691l-0.719,2.213h-2.327
				c-0.433,0-0.817,0.279-0.951,0.691C18.503,15.978,18.65,16.43,19,16.684l1.883,1.368l-0.719,2.213
				c-0.134,0.412,0.013,0.863,0.363,1.118c0.175,0.127,0.382,0.191,0.588,0.191s0.413-0.064,0.588-0.191l1.883-1.368l1.883,1.368
				c0.175,0.127,0.382,0.191,0.588,0.191s0.413-0.064,0.588-0.191c0.35-0.255,0.497-0.706,0.363-1.118l-0.719-2.213l1.883-1.368
				c0.35-0.255,0.497-0.706,0.363-1.118c-0.134-0.412-0.518-0.691-0.951-0.691h-2.327l-0.719-2.213
				C24.402,12.25,24.018,11.971,23.585,11.971L23.585,11.971z"/>
		</g>
	</g>
</g>
</svg>
