<?xml version="1.0" encoding="UTF-8" standalone="no"?>
<svg
   viewBox="0 0 48 48"
   version="1.1"
   id="svg1"
   sodipodi:docname="citykey.svg"
   inkscape:version="1.3.2 (091e20ef0f, 2023-11-25, custom)"
   xml:space="preserve"
   xmlns:inkscape="http://www.inkscape.org/namespaces/inkscape"
   xmlns:sodipodi="http://sodipodi.sourceforge.net/DTD/sodipodi-0.dtd"
   xmlns="http://www.w3.org/2000/svg"
   xmlns:svg="http://www.w3.org/2000/svg"><sodipodi:namedview
     id="namedview1"
     pagecolor="#000000"
     bordercolor="#999999"
     borderopacity="1"
     inkscape:showpageshadow="0"
     inkscape:pageopacity="0"
     inkscape:pagecheckerboard="0"
     inkscape:deskcolor="#d1d1d1"
     inkscape:zoom="11.313709"
     inkscape:cx="26.870058"
     inkscape:cy="22.318058"
     inkscape:window-width="1920"
     inkscape:window-height="1015"
     inkscape:window-x="0"
     inkscape:window-y="0"
     inkscape:window-maximized="1"
     inkscape:current-layer="svg1" /><defs
     id="defs1"><style
       id="style1">.a{fill:none;stroke:#fff;stroke-linecap:round;stroke-linejoin:round;}</style></defs><path
     id="path9"
     style="fill:none;stroke:#ffffff;stroke-width:1;stroke-linecap:round;stroke-linejoin:round"
     d="m 24.528572,16.145624 a 0.52857238,0.52826436 0 0 1 -0.528573,0.528264 0.52857238,0.52826436 0 0 1 -0.528572,-0.528264 0.52857238,0.52826436 0 0 1 0.528572,-0.528264 0.52857238,0.52826436 0 0 1 0.528573,0.528264 z M 23.999999,42.31364 c 0,0 -4.227214,-4.571545 -6.086657,-7.248192 -2.379872,-3.425802 -6.000506,-10.923794 -6.000506,-10.923794 -0.770373,-1.709958 -1.168733,-3.563889 -1.168733,-5.439186 0,-7.316763 5.934867,-13.2481709 13.255896,-13.2481709 7.321029,0 13.255895,5.9314079 13.255895,13.2481709 v 0 c 0,1.875297 -0.398359,3.729229 -1.168733,5.439187 0,0 -3.620632,7.497991 -6.000505,10.923793 -0.769422,1.107573 -1.944262,2.5396 -3.05403,3.834154 l -5.338033,-6.019274 1.475432,-1.702664 -1.387942,-1.841862 1.45006,-1.58459 -1.407359,-1.838973 0.0026,-2.203452 c -2.43234,-0.886435 -4.169018,-3.218655 -4.169018,-5.956261 0,-3.500375 2.839268,-6.337989 6.341684,-6.337989 3.502416,0 6.341685,2.837614 6.341685,6.337989 0,2.780853 -1.791982,5.143411 -4.284823,5.997185 v 8.04458" /></svg>
