<?xml version="1.0" encoding="utf-8"?>
<svg
	version="1.1"
	xmlns="http://www.w3.org/2000/svg"
	xmlns:xlink="http://www.w3.org/1999/xlink"
	x="0%" y="0%"
	width="100%" height="100%"
	viewBox="0 0 48.0 48.0"
	enable-background="new 0 0 48.0 48.0"
	xml:space="preserve">
	<path
fill="none"
		stroke="#FFFFFF"
		stroke-opacity="1.000"
		stroke-linejoin="round"
		stroke-linecap="round"
		d="M16.00,24.75C12.75,28.00,7.50,16.00,13.50,19.00"/>
	<path
fill="none"
		stroke="#FFFFFF"
		stroke-opacity="1.000"
		stroke-linejoin="round"
		stroke-linecap="round"
		d="M19.50,13.12C22.78,9.61,26.06,6.10,29.00,6.50C31.94,6.90,34.56,11.20,35.25,13.75C35.94,16.30,34.71,17.09,34.75,18.25C34.79,19.41,36.10,20.93,36.11,23.34C36.12,25.75,34.82,29.06,33.75,31.75C32.68,34.44,31.84,36.50,30.25,37.00C28.66,37.50,26.32,36.43,24.25,35.00C22.18,33.57,20.39,31.76,18.60,29.96"/>
	<path
fill="none"
		stroke="#FFFFFF"
		stroke-opacity="1.000"
		stroke-linejoin="round"
		stroke-linecap="round"
		d="M9.25,12.75C10.60,8.75,11.95,4.76,16.25,2.75C20.55,0.74,27.79,0.72,32.25,3.75C36.71,6.78,38.40,12.86,38.59,17.00C38.78,21.15,37.47,23.36,37.75,25.25C38.03,27.14,39.89,28.69,41.75,30.25"/>
	<path
fill="none"
		stroke="#FFFFFF"
		stroke-opacity="1.000"
		stroke-linejoin="round"
		stroke-linecap="round"
		d="M33.39,27.83C33.63,27.45,33.86,27.08,33.39,26.83C32.93,26.58,31.76,26.47,30.89,26.58C30.03,26.69,29.47,27.03,28.74,27.51C28.01,27.98,27.10,28.59,27.39,29.58C27.69,30.57,29.19,31.93,30.14,32.33C31.09,32.73,31.49,32.15,31.89,31.58"/>
	<path
fill="none"
		stroke="#FFFFFF"
		stroke-opacity="1.000"
		stroke-linejoin="round"
		stroke-linecap="round"
		d="M36.25,32.00Q43.25,31.00,45.25,38.25"/>
	<path
fill="none"
		stroke="#FFFFFF"
		stroke-opacity="1.000"
		stroke-linejoin="round"
		stroke-linecap="round"
		d="M14.75,35.75Q19.25,41.00,24.68,37.02"/>
	<path
fill="none"
		stroke="#FFFFFF"
		stroke-opacity="1.000"
		stroke-linejoin="round"
		stroke-linecap="round"
		d="M21.19,16.01Q26.75,13.00,29.75,15.25"/>
	<path
fill="none"
		stroke="#FFFFFF"
		stroke-opacity="1.000"
		stroke-linejoin="round"
		stroke-linecap="round"
		d="M35.25,15.20C35.07,14.93,34.88,14.66,34.25,14.75C33.62,14.84,32.54,15.28,32.75,16.75C32.96,18.22,34.44,20.70,34.74,22.17C35.03,23.63,34.13,24.08,33.24,24.52"/>
	<path
fill="none"
		stroke="#FFFFFF"
		stroke-opacity="1.000"
		stroke-linejoin="round"
		stroke-linecap="round"
		d="M1.75,30.50C2.94,27.24,4.13,23.98,5.00,21.25C5.87,18.52,6.41,16.31,7.50,15.25C8.59,14.19,10.21,14.26,12.00,14.50C13.79,14.74,15.74,15.13,16.50,15.75C17.26,16.37,16.82,17.21,16.25,17.50C15.68,17.79,14.96,17.52,14.25,17.25"/>
	<path
fill="none"
		stroke="#FFFFFF"
		stroke-opacity="1.000"
		stroke-linejoin="round"
		stroke-linecap="round"
		d="M17.25,25.75C17.67,25.39,18.10,25.02,18.75,25.00C19.40,24.98,20.29,25.30,20.00,26.00C19.71,26.70,18.25,27.77,17.25,28.75C16.25,29.73,15.71,30.62,14.50,31.25C13.29,31.88,11.40,32.25,10.00,32.75C8.60,33.25,7.67,33.87,6.75,34.50"/>
	<path
fill="none"
		stroke="#FFFFFF"
		stroke-opacity="1.000"
		stroke-linejoin="round"
		stroke-linecap="round"
		d="M0.50,29.50Q1.75,35.50,8.75,35.75"/>
</svg>