<svg width="48" height="49" viewBox="0 0 48 49" fill="none" xmlns="http://www.w3.org/2000/svg">
<path d="M38.4294 22.8207C34.1326 23.6458 25.2521 20.4458 25.1595 19.7267C25.067 19.0077 25.0942 18.5924 25.1595 17.8703C25.3226 16.0691 26.7225 15.2746 26.6034 13.47C26.378 10.0523 23.4217 7.48685 20.0028 7.69447C16.8 7.88897 14.2513 10.2625 14.1586 13.47C14.1547 13.6042 14.1547 13.6795 14.1586 13.8137M38.4294 22.8207C37.9729 24.7809 37.6033 27.3906 36.5115 29.0812C34.7128 31.8662 31.1753 34.2782 29.897 34.4405C29.0979 34.542 28.1848 34.4405 28.1848 34.4405M38.4294 22.8207C36.4535 27.0504 35.5831 27.3586 29.2849 26.121M16.6338 19.1767H11.2896C11.0134 19.1767 10.7896 18.9528 10.7896 18.6767V17.5691C10.7896 17.3178 10.9933 17.114 11.2447 17.114V17.114M16.6338 19.1767L17.6164 18.0099C17.6923 17.9198 17.7339 17.8057 17.7339 17.6878V16.3576C17.7339 16.1864 17.6473 16.0277 17.5028 15.936C16.9057 15.5571 15.2798 14.5252 14.1586 13.8137M16.6338 19.1767V19.6236M14.1586 13.8137C11.9048 14.2998 9.67933 12.9582 9.62187 13.869C9.62037 13.8926 9.61904 13.9178 9.61604 13.9414C9.59591 14.0996 9.52211 14.7549 9.62073 15.1775C9.84499 16.1387 11.2447 17.114 11.2447 17.114M15.9714 16.8719L15.9084 16.9437C15.8135 17.052 15.6765 17.114 15.5325 17.114H11.2447M20.3466 29.8355C20.3466 29.8355 23.1084 32.1715 26.2596 32.1715C29.7154 32.1715 33.6853 29.0232 33.6853 27.3586C33.6853 25.89 30.2475 22.3506 25.1595 22.3506C21.948 22.3506 20.3466 23.6458 20.3466 23.6458M28.1848 34.4405V37.5158C28.1848 37.7919 27.9609 38.0158 27.6848 38.0158H23.9781M28.1848 34.4405H26.2596M23.7844 34.4405C23.7844 34.4405 22.8598 34.4974 22.2718 34.4405C18.025 34.0296 15.6035 30.3676 15.19 26.121C14.9775 23.9392 16.3242 20.7681 16.5892 20.1698C16.6185 20.1036 16.6338 20.033 16.6338 19.9605V19.6236M23.7844 34.4405V36.0719C23.7844 36.348 23.5606 36.5719 23.2844 36.5719H22.7718C22.4957 36.5719 22.2718 36.7958 22.2718 37.0719V37.5158C22.2718 37.7919 22.4957 38.0158 22.7718 38.0158H23.9781M23.7844 34.4405H26.2596M26.2596 34.4405V35.5271C26.2596 35.6598 26.207 35.7869 26.1132 35.8807L23.9781 38.0158M18.9211 19.5347L16.6338 19.6236" stroke="white" stroke-linecap="round"/>
<path d="M28.3961 35.7333C32.6875 35.9968 35.6695 36.9188 35.6695 38.0158C35.6695 39.3181 31.2033 40.3739 25.6941 40.3739C20.1848 40.3739 15.7187 39.3181 15.7187 38.0158C15.7187 36.8714 19.0487 35.9479 23.6232 35.7333" stroke="white" stroke-linecap="round"/>
</svg>
