<svg xmlns="http://www.w3.org/2000/svg" xml:space="preserve" width="48" height="48"><path d="M40.5 5.5h-33a2 2 0 0 0-2 2v33a2 2 0 0 0 2 2h33a2 2 0 0 0 2-2v-33a2 2 0 0 0-2-2zm-1.277 14.757v6.236a3.653 3.653 0 0 1-3.66 3.661h-.167a3.653 3.653 0 0 1-3.661-3.66v-6.237m-2.872 9.194-.16-7.035m-8.228 7.035v-6.09m12.289-8.409-7.453 7.453c-.638.637-1.61.579-2.301 0l-3.084-2.584m-2.299 9.595c-1.19.553-2.68.79-4.01.79a5.04 5.04 0 0 1-5.04-5.04 5.048 5.048 0 0 1 5.04-5.045c1.33-.005 2.82.233 4.01.785" style="display:inline;fill:none;stroke:#fff;stroke-linecap:round;stroke-linejoin:round"/></svg>