<?xml version="1.0" encoding="UTF-8"?>
<svg id="a" version="1.1" viewBox="0 0 48 48" xmlns="http://www.w3.org/2000/svg"><defs><style>.b{fill:none;stroke:#000;stroke-linecap:round;stroke-linejoin:round;}</style></defs><path class="b" d="m43.5 8.3954v16.13l-12.56-16.13v16.13l-12.56-16.13v16.13h-5.8159c-4.4541 0-8.0649-3.6108-8.0649-8.0649s3.6108-8.0649 8.0649-8.0649h2.8289" stroke="#fff"/><g transform="translate(-195.77 -9.0954)" fill="none" stroke="#fff" stroke-linecap="round" stroke-linejoin="round" stroke-miterlimit="10"><path class="st5" d="m223.4 48.7v-8h2.6c1.5 0 2.7 1.2 2.7 2.7s-1.2 2.7-2.7 2.7h-2.6"/><line class="st5" x1="226" x2="228.6" y1="46" y2="48.6"/></g><g transform="translate(-238.9 -9.0954)" fill="none" stroke="#fff" stroke-linecap="round" stroke-linejoin="round" stroke-miterlimit="10"><line class="st5" x1="243.4" x2="248.6" y1="40.7" y2="40.7"/><line class="st5" x1="246" x2="246" y1="48.7" y2="40.7"/></g><g transform="translate(-.78386)"><path class="st5" d="m16.85 31.605v5.3c0 1.5 1.2 2.7 2.6 2.7s2.6-1.2 2.6-2.7v-5.3" fill="none" stroke="#fff" stroke-linecap="round" stroke-linejoin="round" stroke-miterlimit="10"/><g transform="translate(-296.55,-28.375)" fill="#fff"><circle class="st6" cx="317.4" cy="57.4" r=".8"/><circle class="st6" cx="314.6" cy="57.4" r=".8"/></g></g><g transform="translate(-114.6 -9.0954)" fill="none" stroke="#fff" stroke-linecap="round" stroke-linejoin="round" stroke-miterlimit="10"><line class="st5" x1="153.9" x2="153.9" y1="40.7" y2="48.7"/><line class="st5" x1="153.9" x2="158.1" y1="45.9" y2="40.7"/><line class="st5" x1="158.1" x2="154.9" y1="48.7" y2="44.7"/></g></svg>
