<svg viewBox="0 0 48 48" xmlns="http://www.w3.org/2000/svg">
    <style>
        .a{fill:none;stroke:#FFFFFF;stroke-linecap:round;stroke-linejoin:round}
    </style>
    <circle class="a" cx="24" cy="24" r="21.5"/>
    <path class="a" d="M44.980854,28.6375237c-2.3292046-1.1820374-4.6015358-2.7130222-6.7274017-4.5711918 c-2.0593338-1.7828445-3.9686432-3.8707981-5.6743622-6.2408028s-3.0793381-4.8434982-4.1160011-7.3623724 c-1.0869598-2.6058812-1.8171635-5.2467527-2.1984196-7.8307505"/>
    <path class="a" d="M34.8946381,5.4646778c-1.8370209,1.8642321-3.9966717,3.5540857-6.4315491,4.9984789 c-2.3280716,1.4044857-4.9057274,2.5820189-7.6797218,3.469635s-5.5631771,1.4288664-8.2640047,1.6477919 c-2.8228827,0.2205257-5.5690928,0.1024942-8.1467648-0.3462877"/>
    <path class="a" d="M9.7356339,7.9123535c1.204524,2.3241386,2.151906,4.9072704,2.7837286,7.6682301 c0.6081486,2.6424713,0.9228134,5.4592056,0.9134951,8.3735847s-0.352644,5.7241726-0.9906874,8.3641338 c-0.6562424,2.7516251-1.6211605,5.3311501-2.8369541,7.647686"/>
    <path class="a" d="M4.2894464,32.5800171c2.582706-0.4172897,5.3351245-0.513176,8.1527233-0.2617149 c2.7059355,0.2332649,5.4793272,0.7999153,8.2458372,1.7165031c2.7665081,0.916584,5.3375473,2.1093788,7.6501503,3.525135 c2.4174442,1.4758301,4.5660591,3.194416,6.3874359,5.0746002"/>
    <path class="a" d="M26.0796299,45.3950386c0.3929501-2.5867729,1.1530476-5.2283363,2.2585278-7.8350983 c1.0652065-2.4915314,2.4641132-4.9645004,4.1866341-7.313076c1.7225227-2.3485794,3.6576157-4.4189224,5.7286606-6.1805325 c2.1428032-1.8502159,4.4309654-3.3615074,6.7820396-4.5114918"/>
</svg>
