<svg xmlns="http://www.w3.org/2000/svg" xml:space="preserve" id="svg990" width="48" height="48" version="1.1"><defs id="defs987"><style id="style1174">.a{fill:none;stroke:#fff;stroke-linecap:round;stroke-linejoin:round}</style></defs><path id="path8938-6" d="M35.822 22.363v2.182l-7.142 12.39h-5.11m1.76-14.572v2.182l4.162 7.11h2.233m-15.188-9.5-4.298-3.305v-4.458l4.298-3.302h2.004l4.297 3.302v4.458l-4.297 3.304zm-4.359-11.09v19.53M40.5 5.5h-33a2 2 0 0 0-2 2v33a2 2 0 0 0 2 2h33a2 2 0 0 0 2-2v-33a2 2 0 0 0-2-2z" style="fill:none;stroke:#fff;stroke-width:1;stroke-linecap:round;stroke-linejoin:round;stroke-dasharray:none;stroke-opacity:1;stop-color:#000"/></svg>