<?xml version="1.0" encoding="UTF-8" standalone="no"?>
<svg
   xmlns:dc="http://purl.org/dc/elements/1.1/"
   xmlns:cc="http://creativecommons.org/ns#"
   xmlns:rdf="http://www.w3.org/1999/02/22-rdf-syntax-ns#"
   xmlns:svg="http://www.w3.org/2000/svg"
   xmlns="http://www.w3.org/2000/svg"
   xmlns:sodipodi="http://sodipodi.sourceforge.net/DTD/sodipodi-0.dtd"
   xmlns:inkscape="http://www.inkscape.org/namespaces/inkscape"
   width="73.401535mm"
   height="73.401535mm"
   viewBox="0 0 73.401535 73.401535"
   version="1.1"
   id="svg2748"
   inkscape:version="1.0.2 (e86c870879, 2021-01-15)"
   sodipodi:docname="coin.svg">
  <defs
     id="defs2742">
    <inkscape:path-effect
       effect="bspline"
       id="path-effect2813"
       is_visible="true"
       lpeversion="1"
       weight="33.333333"
       steps="2"
       helper_size="0"
       apply_no_weight="true"
       apply_with_weight="true"
       only_selected="false" />
    <inkscape:path-effect
       effect="bspline"
       id="path-effect2800"
       is_visible="true"
       lpeversion="1"
       weight="33.333333"
       steps="2"
       helper_size="0"
       apply_no_weight="true"
       apply_with_weight="true"
       only_selected="false" />
    <inkscape:path-effect
       effect="bspline"
       id="path-effect2796"
       is_visible="true"
       lpeversion="1"
       weight="33.333333"
       steps="2"
       helper_size="0"
       apply_no_weight="true"
       apply_with_weight="true"
       only_selected="false" />
    <inkscape:path-effect
       effect="bspline"
       id="path-effect2792"
       is_visible="true"
       lpeversion="1"
       weight="33.333333"
       steps="2"
       helper_size="0"
       apply_no_weight="true"
       apply_with_weight="true"
       only_selected="false" />
    <inkscape:path-effect
       effect="bspline"
       id="path-effect2788"
       is_visible="true"
       lpeversion="1"
       weight="33.333333"
       steps="2"
       helper_size="0"
       apply_no_weight="true"
       apply_with_weight="true"
       only_selected="false" />
    <inkscape:path-effect
       effect="bspline"
       id="path-effect2770"
       is_visible="true"
       lpeversion="1"
       weight="33.333333"
       steps="2"
       helper_size="0"
       apply_no_weight="true"
       apply_with_weight="true"
       only_selected="false" />
    <style
       id="style2772">.a{fill:none;stroke:#fff;stroke-linecap:round;stroke-linejoin:round;}</style>
    <style
       id="style2815">.a{fill:none;stroke:#fff;stroke-linecap:round;stroke-linejoin:round;}</style>
  </defs>
  <sodipodi:namedview
     id="base"
     pagecolor="#0000ff"
     bordercolor="#666666"
     borderopacity="1.0"
     inkscape:pageopacity="0"
     inkscape:pageshadow="2"
     inkscape:zoom="1.979899"
     inkscape:cx="106.5823"
     inkscape:cy="87.327931"
     inkscape:document-units="mm"
     inkscape:current-layer="layer1"
     inkscape:document-rotation="0"
     showgrid="false"
     inkscape:window-width="1920"
     inkscape:window-height="1044"
     inkscape:window-x="0"
     inkscape:window-y="130"
     inkscape:window-maximized="1" />
  <metadata
     id="metadata2745">
    <rdf:RDF>
      <cc:Work
         rdf:about="">
        <dc:format>image/svg+xml</dc:format>
        <dc:type
           rdf:resource="http://purl.org/dc/dcmitype/StillImage" />
        <dc:title></dc:title>
      </cc:Work>
    </rdf:RDF>
  </metadata>
  <g
     inkscape:label="Layer 1"
     inkscape:groupmode="layer"
     id="layer1"
     transform="translate(-209.73971,-69.132577)">
    <circle
       class="a"
       cx="246.44048"
       cy="105.83334"
       r="29.19998"
       id="circle2776"
       style="stroke-width:1.36028;stroke-miterlimit:4;stroke-dasharray:none" />
    <path
       style="fill:none;stroke:#ffffff;stroke-width:1;stroke-linecap:butt;stroke-linejoin:miter;stroke-miterlimit:4;stroke-dasharray:none;stroke-opacity:1"
       d="m 269.65489,123.47421 c -1.82837,-1.70369 -3.657,-3.40762 -5.06537,-5.23359 -1.40837,-1.82596 -2.39632,-3.77393 -3.0864,-5.65404 -0.69009,-1.88012 -1.08218,-3.69226 -1.15884,-5.62257 -0.0767,-1.9303 0.16219,-3.97859 0.5493,-5.803 0.3871,-1.824409 0.92246,-3.424774 1.66566,-4.905485 0.7432,-1.48071 1.69418,-2.84158 2.66236,-3.880905 0.96819,-1.039324 1.95345,-1.756964 2.78138,-2.350365 0.82792,-0.5934 1.49846,-1.062527 2.16895,-1.531622"
       id="path2786"
       inkscape:path-effect="#path-effect2788"
       inkscape:original-d="m 269.65489,123.47421 c -1.82838,-1.70368 -3.65701,-3.40761 -5.48591,-5.11182 -0.98773,-1.94778 -1.97568,-3.89575 -2.96391,-5.84402 -0.39184,-1.81195 -0.78393,-3.62409 -1.17629,-5.43654 0.23913,-2.04809 0.47798,-4.09638 0.71658,-6.14496 0.53564,-1.600163 1.071,-3.200527 1.6061,-4.801187 0.95128,-1.360657 1.90226,-2.721526 2.85299,-4.082686 0.98556,-0.717403 1.97082,-1.435042 2.95583,-2.152959 0.67083,-0.46888 1.34137,-0.938006 2.01165,-1.407405" />
    <path
       style="fill:none;stroke:#ffffff;stroke-width:1;stroke-linecap:butt;stroke-linejoin:miter;stroke-miterlimit:4;stroke-dasharray:none;stroke-opacity:1"
       d="m 267.17471,85.005432 c -1.28183,0.120364 -2.56389,0.240749 -3.79337,0.458143 -1.22948,0.217394 -2.40628,0.531809 -3.50611,0.877727 -1.09983,0.345917 -2.1226,0.723326 -3.14019,1.225886 -1.0176,0.502559 -2.02988,1.130223 -3.02153,2.060266 -0.99165,0.930042 -1.9625,2.162317 -2.69994,3.07457 -0.73745,0.912253 -1.24145,1.504452 -1.87332,2.619786 -0.63187,1.115334 -1.39154,2.753643 -1.92818,4.318094 -0.53664,1.564456 -0.85024,3.054876 -0.99759,4.547536 -0.14735,1.49266 -0.12848,2.98739 0.10567,4.50839 0.23415,1.521 0.68348,3.06814 1.2195,4.51261 0.53603,1.44447 1.15867,2.7862 1.99581,4.06069 0.83713,1.27449 1.8886,2.48169 2.99402,3.48508 1.10541,1.00339 2.26463,1.80298 3.43116,2.52711 1.16653,0.72413 2.3403,1.37279 3.62438,1.89822 1.28408,0.52543 2.67841,0.92768 3.80206,1.28563 1.12365,0.35795 1.97657,0.67156 2.82919,0.98506"
       id="path2790"
       inkscape:path-effect="#path-effect2792"
       inkscape:original-d="m 267.17471,85.005432 c -1.2818,0.12065 -2.56386,0.241037 -3.84619,0.361158 -1.17658,0.314692 -2.35338,0.629106 -3.53046,0.943262 -1.02254,0.377687 -2.04531,0.755094 -3.06836,1.132245 -1.01207,0.627956 -2.02435,1.255623 -3.03692,1.883037 -0.97063,1.23259 -1.94148,2.464865 -2.91261,3.696901 -0.50376,0.592485 -1.00777,1.184682 -1.51205,1.776626 -0.75942,1.638634 -1.51909,3.276939 -2.27903,4.915011 -0.31335,1.490748 -0.62695,2.981178 -0.94083,4.471368 0.0191,1.49506 0.038,2.98979 0.0566,4.48428 0.44961,1.54746 0.89894,3.0946 1.34801,4.6415 0.62293,1.34204 1.24557,2.68377 1.86796,4.02526 1.05178,1.20752 2.10325,2.41473 3.15448,3.62169 1.15954,0.79989 2.31876,1.59947 3.47774,2.39881 1.17407,0.64896 2.34784,1.29762 3.52136,1.94604 1.39464,0.40252 2.78897,0.80477 4.18305,1.20676 0.85322,0.31389 1.70614,0.6275 2.55881,0.94085" />
    <path
       style="fill:none;stroke:#ffffff;stroke-width:1;stroke-linecap:butt;stroke-linejoin:miter;stroke-miterlimit:4;stroke-dasharray:none;stroke-opacity:1"
       d="m 262.07656,80.905913 c -1.7988,0.198013 -3.59785,0.396053 -5.48082,0.727004 -1.88296,0.330951 -3.84974,0.794817 -5.52049,1.324099 -1.67075,0.529282 -3.04532,1.12396 -4.41846,2.019437 -1.37314,0.895478 -2.74466,2.091662 -4.06467,3.358851 -1.32,1.267188 -2.58838,2.605283 -3.59933,3.933569 -1.01095,1.328287 -1.76437,2.646604 -2.35147,4.020457 -0.5871,1.373853 -1.00782,2.803064 -1.28732,4.25131 -0.2795,1.44825 -0.41779,2.91539 -0.42911,4.53042 -0.0113,1.61504 0.10426,3.37781 0.29343,5.05424 0.18917,1.67643 0.45187,3.2664 0.9199,4.72871 0.46804,1.46232 1.14127,2.79688 1.98227,4.1141 0.84101,1.31722 1.84967,2.61703 2.96471,3.80755 1.11503,1.19053 2.33631,2.27173 3.67464,3.23459 1.33833,0.96285 2.79359,1.80737 4.24002,2.47982 1.44642,0.67246 2.88393,1.17288 4.18709,1.57898 1.30316,0.4061 2.4719,0.71788 3.52245,1.01182 1.05056,0.29394 1.98289,0.57002 2.91491,0.84601"
       id="path2794"
       inkscape:path-effect="#path-effect2796"
       inkscape:original-d="m 262.07656,80.905913 c -1.79877,0.198304 -3.59782,0.396343 -5.39713,0.594118 -1.96658,0.464147 -3.93336,0.928012 -5.90043,1.391621 -1.37436,0.594964 -2.74893,1.18964 -4.12378,1.784063 -1.37132,1.196497 -2.74285,2.392681 -4.11467,3.588625 -1.26816,1.33841 -2.53654,2.676502 -3.8052,4.014356 -0.7532,1.31864 -1.50662,2.636961 -2.26033,3.955047 -0.42048,1.429533 -0.84121,2.858743 -1.26221,4.287717 -0.13803,1.46746 -0.27631,2.9346 -0.41486,4.4015 0.11586,1.76312 0.23145,3.52589 0.34678,5.28844 0.26297,1.5903 0.52567,3.18026 0.78811,4.76999 0.67352,1.33489 1.34675,2.66945 2.01973,4.00378 1.00897,1.30013 2.01763,2.59994 3.02605,3.89952 1.22159,1.08152 2.44288,2.16272 3.66393,3.24369 1.45557,0.84481 2.91083,1.68933 4.36585,2.53359 1.43783,0.50071 2.87534,1.00114 4.31262,1.50131 1.16904,0.31205 2.33778,0.62383 3.50627,0.93535 0.93262,0.27635 1.86495,0.55243 2.79702,0.82825" />
    <circle
       class="a"
       cx="246.44048"
       cy="105.83334"
       r="35.866661"
       id="circle2819"
       style="stroke-width:1.66821" />
  </g>
</svg>
