<svg xmlns="http://www.w3.org/2000/svg" xml:space="preserve" id="svg990" width="48" height="48" version="1.1"><defs id="defs987"><style id="style1174">.a{fill:none;stroke:#fff;stroke-linecap:round;stroke-linejoin:round}</style></defs><path id="path15488" d="M32.137 16.258a14.836 14.836 0 0 1 6.699 12.406v0A14.836 14.836 0 0 1 24 43.5 14.836 14.836 0 0 1 9.164 28.664 14.836 14.836 0 0 1 15.86 16.26m9.764-10.698c.215.44.31.697.236 1.298-.224 1.795.057 2.283.583 3.836.84 2.476 1.67 3.928 1.67 7.91 0 3.444-.745 5.175-.768 8.08-.014 1.877.621 2.878.828 4.266.304 2.049-1.628 2.19-4.11 2.19-2.483 0-4.415-.141-4.11-2.19.206-1.388.842-2.39.827-4.267-.023-2.904-.767-4.635-.767-8.078 0-3.983.83-5.435 1.669-7.911.526-1.553.808-2.04.584-3.836-.075-.6.02-.859.236-1.298-1.014-.713.646-1.062 1.56-1.062.916 0 2.575.349 1.562 1.062z" style="fill:none;stroke:#fff;stroke-width:1;stroke-linecap:round;stroke-linejoin:round;stroke-dasharray:none;stroke-opacity:1;stop-color:#000"/></svg>