<svg xmlns="http://www.w3.org/2000/svg" viewBox="0 0 48 48">
  <defs><style>.a{fill:none;stroke:#fff;stroke-linecap:round;stroke-linejoin:round;}</style></defs>
  <path class="a"
     d="M 7.8305085,7.3220339 24.20339,9.3559322 40.677966,7.4237288 40.474576,40.881356 28.122258,37.573716 c -0.731181,1.213307 -2.007647,1.580368 -3.323591,1.150985"
     />
  <path class="a"
     d="m 31.423729,11.084746 v 5.694915 l -5.491526,-0.305085 4.983051,2.135593 -1.118644,5.186441 3.254237,-4.067796 4.474577,2.847457 -2.542373,-4.779661 3.966102,-2.949152 -5.186441,1.525423 z"
     />
  <path class="a"
     d="M 7.8305085,7.3220339 7.5254237,40.372881 16.985262,38.971378 m 1.218128,-0.835785 3.050847,2.745763 10.779661,-12.305085 2.440678,-5.186441 -5.59322,2.237289 -10.677966,12.508474"
     />
  <path class="a"
     d="M 24.20339,9.349966 V 28.582238"
     />
  <path class="a"
     d="m 12.915254,22.169492 c -0.0081,2.072203 4.284139,2.482611 4.875187,0.496137 2.7679,-0.267863 4.11401,-1.178097 2.955322,-3.64868 1.771026,-3.422224 -0.1681,-3.836218 -1.830509,-4.474576 -1.183799,-2.009686 -2.753293,-2.605159 -5.084746,-0.40678 -3.802746,-0.568218 -3.020505,2.67182 -2.644067,4.067797 -2.0870137,1.802933 -0.44447,5.301048 1.728813,3.966102 z"
     />
  <path class="a"
     d="m 14.215788,23.883851 c 0.996619,4.305085 -0.638249,8.929708 -1.097144,13.234793 0.937052,-7.352912 4.082454,-11.63568 8.949153,-13.525424 -7.136589,5.176187 -0.6828,10.900283 -8.949153,13.525424"
     />
  <path class="a"
     d="m 13.118644,37.118644 c -0.82532,-3.744972 1.339205,-8.677807 -3.7205884,-10.007166 0.5785769,-3.09728 3.2196254,1.541682 4.8177324,-3.227627"
     />
  <ellipse class="a"
     cx="15.748107"
     cy="18.301516"
     rx="1.1865013"
     ry="1.1505467" />
</svg>
