<svg xmlns="http://www.w3.org/2000/svg" viewBox="0 0 48 48"><defs><style>.a{fill:none;stroke:#fff;stroke-linecap:round;stroke-linejoin:round;}</style></defs><line class="a" x1="12.5" y1="37.6354" x2="12.5" y2="20.0021"/><path class="a" d="M30.9422,37.0432a9.6952,9.6952,0,1,1,3.0866-3.0877"/><line class="a" x1="29.1092" y1="32.1252" x2="35.5" y2="38.516"/><path class="a" d="M5.5,15.1758V40.5a2,2,0,0,0,2,2h33a2,2,0,0,0,2-2V7.5a2,2,0,0,0-2-2H15.291"/><circle class="a" cx="9.5" cy="9.4329" r="7"/><path class="a" d="M12.1759,8.1146a2.6785,2.6785,0,0,0-2.82-2.6779,2.7817,2.7817,0,0,0-2.532,2.83v2.4849A2.6788,2.6788,0,0,0,9.5,13.4329h0a2.6788,2.6788,0,0,0,2.6759-2.6817H9.5"/></svg>