<svg id="a" xmlns="http://www.w3.org/2000/svg" viewBox="0 0 48 48"><defs><style>.b{fill:none;stroke:#fff;stroke-linecap:round;stroke-linejoin:round}</style></defs><circle class="b" cx="24" cy="24" r="21.5" id="circle6"/><path class="b" d="M15.77 43.728v-8.04c0-2.485 5.237-4.509 11.88-4.509 6.643 0 11.88 2.086 11.88 4.572v3.089" id="path4292"/><path class="b" d="M27.789 14.38c5.936-.012 8.918 7.928 4.725 12.577-4.193 4.65-11.372 1.364-11.372-5.206 0-4.065 2.974-7.363 6.646-7.37h0zM2.559 24.067l6.184-7.119M3.422 28.813l7.982-9.672M12.276 11.305c-1.56-.184-3.02.362-3.754 1.553-.723 1.174-.57 2.696.262 3.995m2.893 2.3c1.992.744 4.047.234 4.98-1.28.523-.847.712-2.482-.007-3.593"/><path class="b" d="m12.389 11.363-1.634 1.995.842 2.62 3.003.54 1.793-2.104"/></svg>
