<svg xmlns="http://www.w3.org/2000/svg" viewBox="0 0 48 48"><defs><style>.a{fill:none;stroke:#fff;stroke-linecap:round;stroke-linejoin:round;}</style></defs><path class="a" d="M17.3417,30.0228H30.21"/><path class="a" d="M17.3417,33.1143H30.21"/><path class="a" d="M17.689,28.8588s-5.5074-5.6161-.3752-6.5237"/><path class="a" d="M20.6768,28.8588s-4.44-4.7947-3.0719-7.5289,5.2422-1.3094,6.1708.2811"/><path class="a" d="M22.317,20.3459a1.4585,1.4585,0,0,1,1.459-1.5626V17.7585"/><path class="a" d="M23.7757,16.3341V14.8857"/><path class="a" d="M21.5877,17.0287h1.4384"/><path class="a" d="M30.21,31.5685H17.3417"/><path class="a" d="M29.8625,28.8588s5.5074-5.6161.3752-6.5237"/><path class="a" d="M26.8756,28.8588s4.44-4.7947,3.0719-7.5289-5.2422-1.3094-6.1708.2811"/><path class="a" d="M25.2344,20.3459a1.4585,1.4585,0,0,0-1.459-1.5626V17.7585"/><path class="a" d="M23.7757,16.3341V14.8857"/><path class="a" d="M25.9647,17.0287H24.5263"/><path class="a" d="M23.7757,21.6111v7.2478"/><path class="a" d="M37.4039,6.5486H10.612a1.9413,1.9413,0,0,0-1.9846,1.895V41.605A1.9413,1.9413,0,0,0,10.612,43.5H37.4039a1.9414,1.9414,0,0,0,1.9846-1.895V8.4436A1.9414,1.9414,0,0,0,37.4039,6.5486Z"/><path class="a" d="M36.8026,6.3431a1.8814,1.8814,0,0,0-1.9486-1.838L10.3046,6.4173A1.9369,1.9369,0,0,0,8.6163,8.5384"/></svg>