<svg id="Layer_2" data-name="Layer 2" xmlns="http://www.w3.org/2000/svg" viewBox="0 0 48 48"><defs><style>.cls-1{fill:none;stroke:#fff;stroke-linecap:round;stroke-linejoin:round;}</style></defs><path class="cls-1" d="M39.12,20v-7.8c0-1.93-.79-2.56-2.38-3.23-2.14-.91-9.07-3.47-11.21-4.21A5.28,5.28,0,0,0,24,4.5a4.86,4.86,0,0,0-1.51.28C20.33,5.48,13.4,8.12,11.26,9c-1.55.63-2.38,1.3-2.38,3.23V27.94c0,6.78,3.57,9.26,13.87,15.21A2.52,2.52,0,0,0,24,43.5a3.23,3.23,0,0,0,1.23-.35c10.5-5.64,13.87-8.43,13.87-15.21V26.21A1.07,1.07,0,0,0,38,25.14H30.17a6.52,6.52,0,1,1,.06-4.06h7.82A1.06,1.06,0,0,0,39.12,20Z"/><line class="cls-1" x1="24.08" y1="16.5" x2="24.08" y2="14.51"/><line class="cls-1" x1="28.67" y1="18.47" x2="30.07" y2="17.06"/><line class="cls-1" x1="28.55" y1="27.69" x2="29.96" y2="29.09"/><line class="cls-1" x1="23.92" y1="29.54" x2="23.92" y2="31.53"/><line class="cls-1" x1="19.33" y1="27.57" x2="17.93" y2="28.98"/><line class="cls-1" x1="17.48" y1="22.94" x2="15.49" y2="22.94"/><line class="cls-1" x1="19.45" y1="18.35" x2="18.04" y2="16.95"/><circle class="cls-1" cx="24.08" cy="12.66" r="1.85"/><circle class="cls-1" cx="31.38" cy="15.76" r="1.85"/><circle class="cls-1" cx="31.26" cy="30.4" r="1.85"/><circle class="cls-1" cx="23.92" cy="33.38" r="1.85"/><circle class="cls-1" cx="16.62" cy="30.28" r="1.85"/><circle class="cls-1" cx="13.64" cy="22.94" r="1.85"/><circle class="cls-1" cx="16.74" cy="15.64" r="1.85"/></svg>