<?xml version="1.0" encoding="UTF-8" standalone="no"?>
<svg
   xmlns:dc="http://purl.org/dc/elements/1.1/"
   xmlns:cc="http://creativecommons.org/ns#"
   xmlns:rdf="http://www.w3.org/1999/02/22-rdf-syntax-ns#"
   xmlns:svg="http://www.w3.org/2000/svg"
   xmlns="http://www.w3.org/2000/svg"
   xmlns:sodipodi="http://sodipodi.sourceforge.net/DTD/sodipodi-0.dtd"
   xmlns:inkscape="http://www.inkscape.org/namespaces/inkscape"
   viewBox="0 0 48 48"
   version="1.1"
   id="svg8"
   sodipodi:docname="contacttracinggermany.svg"
   inkscape:version="1.0.2 (e86c870879, 2021-01-15)">
  <metadata
     id="metadata12">
    <rdf:RDF>
      <cc:Work
         rdf:about="">
        <dc:format>image/svg+xml</dc:format>
        <dc:type
           rdf:resource="http://purl.org/dc/dcmitype/StillImage" />
        <dc:title />
      </cc:Work>
    </rdf:RDF>
  </metadata>
  <sodipodi:namedview
     pagecolor="#ffffff"
     bordercolor="#666666"
     borderopacity="1"
     objecttolerance="10"
     gridtolerance="10"
     guidetolerance="10"
     inkscape:pageopacity="0"
     inkscape:pageshadow="2"
     inkscape:window-width="1920"
     inkscape:window-height="1015"
     id="namedview10"
     showgrid="true"
     inkscape:zoom="11.313708"
     inkscape:cx="20.341606"
     inkscape:cy="27.647033"
     inkscape:window-x="960"
     inkscape:window-y="32"
     inkscape:window-maximized="1"
     inkscape:current-layer="svg8"
     showguides="true"
     inkscape:guide-bbox="true"
     inkscape:snap-midpoints="true"
     inkscape:snap-others="true"
     inkscape:snap-text-baseline="true"
     inkscape:snap-object-midpoints="true"
     inkscape:snap-center="true"
     inkscape:snap-global="true"
     inkscape:document-rotation="0">
    <inkscape:grid
       type="xygrid"
       id="grid859"
       empspacing="8" />
  </sodipodi:namedview>
  <defs
     id="defs4">
    <style
       id="style2">.a{fill:none;stroke:#fff;stroke-linecap:round;stroke-linejoin:round;}</style>
    <style
       id="style833">.cls-1{fill:#f60;}</style>
  </defs>
  <path
     style="fill:#000000;stroke-width:0.0689595"
     id="path849"
     d="" />
  <path
     id="path865"
     style="fill:none;stroke:#ffffff;stroke-width:1;stroke-linecap:round;stroke-linejoin:round;stroke-miterlimit:4;stroke-dasharray:none;stroke-opacity:1"
     d="M 28.582295,21.625 C 27.476052,23.510826 23.918929,21.484375 25.34375,19.484375 27,17.370511 30,19 28.582295,21.625 Z M 31,29.320019 C 28.574629,30.375 27.412616,27.626877 29.014332,26.742108 31,25.578125 33,28.429186 31,29.320019 Z M 33,39 c 0.623283,-1.389194 -0.864292,-2.719044 -1.428246,-3.93213 -0.906491,0.326458 -1.280249,0.550774 -2.765877,0.676292 C 30,42 20.176777,39.574524 24.438496,34.526971 23,34 22,33.370524 20.214537,32.109608 19.177138,33.06719 18.848267,33.184421 17.718194,34.470274 15,41.73775 8.3220878,32.731392 15.630756,31.770603 16.764383,31 17.225596,30.510774 18.447666,29.413975 17.900582,28.156437 17.646573,27.500758 17.316031,25.351397 15.894124,25.416517 16,25 14.583711,25 7,28 9.4659088,16.482048 15,22 c 1.575285,0.349007 1,0.314207 2.356684,0.271057 C 17.414669,21 17.578583,21 18,19.594948 15.616858,17 17.559805,13.58294 21.40137,15 22.421282,14.375058 22.538544,14 24,13.657477 24,12 23.62682,11.410088 23.5,10.367469 17.546875,5 29.421875,2.484375 26.40197,9.5581639 26.56499,11 26.579528,11 27,12.604336 28.600383,12.45338 31,13 31.676797,13 32,12 32,12 32.340084,10.63208 30.984375,4 41.421875,7.6416199 35,12 c -0.463122,0.430558 -0.569463,0.507911 -1,2 1.021408,1 1.458744,1 2.626292,2 C 35.65852,17 35.585808,17 34,18.316834 17.875,8 16,38.5 34,30 c 1,1 1,1 2.41382,2.374967 C 35.330456,32.935741 35,33.382259 34,34 c 1,1.43883 1.211489,2.018723 2,3.357299 C 42.392804,42 32,45 33,39 Z"
     sodipodi:nodetypes="ccccccccccccccccccccccccccccccccccc" />
</svg>
