<?xml version="1.0" encoding="UTF-8"?>
<svg width="48" height="48" fill="none" version="1.1" viewBox="0 0 48 48" xmlns="http://www.w3.org/2000/svg">
 <g stroke="#fff" stroke-linecap="round" stroke-linejoin="round">
  <path d="m40.5 5.5h-33c-0.53043 0-1.0391 0.21071-1.4142 0.58579-0.37508 0.37507-0.58579 0.88378-0.58579 1.4142v33c0 0.5304 0.21071 1.0391 0.58579 1.4142 0.37507 0.3751 0.88378 0.5858 1.4142 0.5858h33c0.5304 0 1.0391-0.2107 1.4142-0.5858s0.5858-0.8838 0.5858-1.4142v-33c0-0.53043-0.2107-1.0391-0.5858-1.4142-0.3751-0.37508-0.8838-0.58579-1.4142-0.58579z" stroke-miterlimit="6.4"/>
  <path d="m5.5 38h37" stroke-miterlimit="6.4"/>
  <g stroke-miterlimit="7.6">
   <path d="m14.932 19.502c-0.2957 0.5989-0.9857 0.9982-1.6757 0.9982-1.0842 0-1.9714-0.8984-1.9714-1.9963v-1.2976c0-1.098 0.8871-1.9963 1.9714-1.9963 0.69 0 1.38 0.3992 1.6757 0.9981"/>
   <path d="m20.89 20.5c-1.0773 0-1.9588-0.8983-1.9588-1.9963v-1.2976c0-1.098 0.8815-1.9963 1.9588-1.9963s1.9588 0.8984 1.9588 1.9963v1.2976c0 1.098-0.8814 1.9963-1.9588 1.9963z"/>
   <path d="m26.834 17.134c0-1.0942 0.8585-1.9894 1.9078-1.9894" stroke-width=".99999"/>
   <path d="m26.834 15.144v5.3712" stroke-width=".99999"/>
   <path d="m32.731 18.497c0 1.1069 0.8967 2.0124 1.9926 2.0124s1.9926-0.9055 1.9926-2.0124v-1.308c0-1.1068-0.8967-2.0124-1.9926-2.0124s-1.9926 0.9056-1.9926 2.0124" stroke-width=".99999"/>
   <path d="m32.731 15.076v8.0496" stroke-width=".99999"/>
   <path d="m18.92 25.98v5.2679c0 0.4515 0.301 0.7526 0.7526 0.7526h0.2257"/>
   <path d="m22.205 27c0.138 0 0.25-0.1119 0.25-0.25 0-0.138-0.112-0.25-0.25-0.25-0.1381 0-0.25 0.112-0.25 0.25 0 0.1381 0.1119 0.25 0.25 0.25z" stroke-width=".99997"/>
   <path d="m22.205 28.506v3.4941" stroke-width=".99997"/>
   <path d="m27.516 28.034v4.5051c0 0.826-0.6758 1.5018-1.5017 1.5018-0.4505 0-0.826-0.1502-1.0512-0.4505"/>
   <path d="m26.014 27.959c0.8259 0 1.5017 0.6758 1.5017 1.5017v0.9761c0 0.826-0.6758 1.5018-1.5017 1.5018-0.826 0-1.5017-0.6758-1.5017-1.5018v-0.9761c0-0.8259 0.6757-1.5017 1.5017-1.5017z"/>
   <path d="m29.369 26v6.1"/>
   <path d="m29.369 29.539c0-0.8284 0.6778-1.5062 1.5062-1.5062s1.5061 0.6778 1.5061 1.5062v2.4852"/>
   <path d="m35.191 26v5.2c0 0.52 0.3466 0.8666 0.8666 0.8666h0.26" stroke-width=".99996"/>
   <path d="m34.238 27.386h1.9067" stroke-width=".99996"/>
  </g>
 </g>
</svg>
