<?xml version="1.0" encoding="UTF-8" standalone="no"?>
<svg
   xmlns:dc="http://purl.org/dc/elements/1.1/"
   xmlns:cc="http://creativecommons.org/ns#"
   xmlns:rdf="http://www.w3.org/1999/02/22-rdf-syntax-ns#"
   xmlns:svg="http://www.w3.org/2000/svg"
   xmlns="http://www.w3.org/2000/svg"
   xmlns:sodipodi="http://sodipodi.sourceforge.net/DTD/sodipodi-0.dtd"
   xmlns:inkscape="http://www.inkscape.org/namespaces/inkscape"
   width="48"
   height="48"
   viewBox="0 0 48 48"
   version="1.1"
   id="svg8"
   inkscape:version="1.0.2-2 (e86c870879, 2021-01-15)"
   sodipodi:docname="deezer for creators.svg">
  <defs
     id="defs2" />
  <sodipodi:namedview
     id="base"
     pagecolor="#787878"
     bordercolor="#ffffff"
     borderopacity="1"
     inkscape:pageopacity="0"
     inkscape:pageshadow="2"
     inkscape:zoom="7.9195959"
     inkscape:cx="15.341609"
     inkscape:cy="20.984428"
     inkscape:document-units="px"
     inkscape:current-layer="layer1"
     inkscape:document-rotation="0"
     showgrid="false"
     units="px"
     showborder="true"
     inkscape:showpageshadow="false"
     borderlayer="true"
     inkscape:snap-global="true"
     inkscape:object-paths="true"
     inkscape:window-width="1920"
     inkscape:window-height="1009"
     inkscape:window-x="-8"
     inkscape:window-y="-8"
     inkscape:window-maximized="1"
     showguides="true"
     inkscape:guide-bbox="true"
     inkscape:snap-bbox="true"
     inkscape:snap-bbox-midpoints="true"
     inkscape:snap-center="true"
     inkscape:snap-object-midpoints="true" />
  <metadata
     id="metadata5">
    <rdf:RDF>
      <cc:Work
         rdf:about="">
        <dc:format>image/svg+xml</dc:format>
        <dc:type
           rdf:resource="http://purl.org/dc/dcmitype/StillImage" />
        <dc:title />
      </cc:Work>
    </rdf:RDF>
  </metadata>
  <g
     inkscape:label="Calque 1"
     inkscape:groupmode="layer"
     id="layer1">
    <path
       id="path966"
       style="fill:none;stroke:#ffffff;stroke-width:1;stroke-miterlimit:4;stroke-dasharray:none;stop-color:#000000;stroke-linejoin:round;stroke-linecap:round"
       d="m 35.194299,31.819454 c -2.080747,2.074127 -4.902946,3.239372 -7.845686,3.239372 -6.127611,-2e-6 -11.095022,-4.951204 -11.095023,-11.058823 -3e-6,-6.107621 4.967409,-11.058828 11.095023,-11.058829 2.942705,0 5.764874,1.165218 7.845615,3.239301 l 2.942554,-2.931874 c -2.861055,-2.852137 -6.74173,-4.4544858 -10.788169,-4.4544858 -8.425469,10e-7 -15.25566,6.8079098 -15.255657,15.2058898 3e-6,8.397975 6.830192,15.20588 15.255657,15.205881 4.045664,0 7.925663,-1.601738 10.786589,-4.452911 z m 5.883628,5.865225 c -3.641256,3.629333 -8.579833,5.668268 -13.729316,5.668266 -10.72332,-10e-7 -19.4162872,-8.664606 -19.4162902,-19.35294 -3e-6,-10.688337 8.6929672,-19.3529488 19.4162902,-19.3529508 5.14956,-1e-6 10.088203,2.038994 13.729471,5.6684218 L 44.020051,7.3830242 C 39.598518,2.9758982 33.601619,0.4999991 27.348614,0.4999988 14.327438,0.4999996 3.7716898,11.021308 3.7716898,24 c 1e-6,12.978693 10.5557482,23.5 23.5769242,23.500001 6.252631,0 12.249201,-2.475603 16.670672,-6.882262 z M 25.387494,25.955163 C 24.867179,25.436662 24.574858,24.733354 24.574858,24 c 0,-1.526905 1.241853,-2.764707 2.773756,-2.764707 0.73567,0 1.441206,0.291299 1.961391,0.809811 l 2.941498,-2.932924 c -1.300412,-1.295924 -3.064002,-2.023946 -4.902889,-2.023946 -3.829758,0 -6.934391,3.094505 -6.934389,6.911768 1e-6,1.832687 0.730248,3.590349 2.030164,4.886485 z" />
  </g>
</svg>
