<?xml version="1.0" encoding="utf-8"?>
<!-- Generator: Adobe Illustrator 26.0.2, SVG Export Plug-In . SVG Version: 6.00 Build 0)  -->
<svg version="1.1" xmlns="http://www.w3.org/2000/svg" xmlns:xlink="http://www.w3.org/1999/xlink" x="0px" y="0px"
	 viewBox="0 0 48 48" style="enable-background:new 0 0 48 48;" xml:space="preserve">
<g id="Layer_1" style="display:none;">
	
		<rect x="-1004.453" y="-83.181" style="display:inline;fill:#282828;stroke:#FFFFFF;stroke-width:0;stroke-miterlimit:10;" width="3706.467" height="4077.28"/>
</g>
<g id="Layer_2">
	<path style="fill:none;stroke:#FFFFFF;stroke-linecap:round;stroke-miterlimit:10;" d="M35.295,43.211
		c-1.777,0.334-3.569,0.559-5.368,0.721c-2.289,0.206-4.585,0.295-6.876,0.017c-2.708-0.328-5.287-0.991-7.346-2.945
		c-1.734-1.646-2.576-3.725-2.816-6.048c-0.377-3.657-0.044-7.329-0.149-10.025c0-4.122-0.024-7.277,0.01-10.431
		c0.017-1.521,0.296-3.012,0.873-4.432c1.259-3.1,3.708-4.765,6.83-5.559c2.776-0.706,5.602-0.727,8.444-0.512
		c2.047,0.155,6.103,0.733,6.103,0.733"/>
</g>
</svg>
