<?xml version="1.0" encoding="UTF-8" standalone="no"?>
<svg
   xmlns:dc="http://purl.org/dc/elements/1.1/"
   xmlns:cc="http://creativecommons.org/ns#"
   xmlns:rdf="http://www.w3.org/1999/02/22-rdf-syntax-ns#"
   xmlns:svg="http://www.w3.org/2000/svg"
   xmlns="http://www.w3.org/2000/svg"
   xmlns:sodipodi="http://sodipodi.sourceforge.net/DTD/sodipodi-0.dtd"
   xmlns:inkscape="http://www.inkscape.org/namespaces/inkscape"
   viewBox="0 0 48 48"
   version="1.1"
   id="svg2528"
   sodipodi:docname="csoundforandroid.svg"
   inkscape:version="1.0.1 (3bc2e813f5, 2020-09-07)">
  <metadata
     id="metadata2532">
    <rdf:RDF>
      <cc:Work
         rdf:about="">
        <dc:format>image/svg+xml</dc:format>
        <dc:type
           rdf:resource="http://purl.org/dc/dcmitype/StillImage" />
        <dc:title></dc:title>
      </cc:Work>
    </rdf:RDF>
  </metadata>
  <sodipodi:namedview
     pagecolor="#595959"
     bordercolor="#666666"
     borderopacity="1"
     objecttolerance="10"
     gridtolerance="10"
     guidetolerance="10"
     inkscape:pageopacity="0"
     inkscape:pageshadow="2"
     inkscape:window-width="3840"
     inkscape:window-height="2096"
     id="namedview2530"
     showgrid="false"
     inkscape:zoom="42.613636"
     inkscape:cx="24"
     inkscape:cy="24"
     inkscape:window-x="0"
     inkscape:window-y="27"
     inkscape:window-maximized="1"
     inkscape:current-layer="svg2528"
     inkscape:document-rotation="0" />
  <defs
     id="defs2524">
    <style
       id="style2522">.a{fill:none;stroke:#fff;stroke-linecap:round;stroke-linejoin:round;}</style>
  </defs>
  <circle
     class="a"
     cx="24"
     cy="24"
     r="21.5"
     id="circle2526"
     style="stroke-width:1;stroke-miterlimit:4;stroke-dasharray:none;stroke-linejoin:round;stroke-linecap:round" />
  <path
     style="fill:none;stroke:#ffffff;stroke-width:1;stroke-linecap:round;stroke-linejoin:round;stroke-opacity:1;stroke-miterlimit:4;stroke-dasharray:none"
     d="m 19.783719,18.322142 c 0,0 -1.222712,-1.535506 -5.469214,-1.535506 -6.6227834,0 -7.8518211,4.222021 -7.8518211,9.561574 0,5.114232 1.8184955,8.85939 7.4113701,8.914761 5.129145,0.05078 5.60084,-1.187792 6.1861,-1.649422 0.540469,-0.545768 -0.734143,-2.405492 -1.363723,-2.303327 -0.52831,0.30502 -0.977528,0.928618 -3.862429,0.957475 -2.539163,0.0254 -4.534513,-0.585025 -4.534513,-5.821639 0,-3.677748 0.563952,-6.629521 4.064661,-6.629521 1.408541,0 2.560896,0.04018 2.813155,0.659657 0,1.448586 0.0055,1.471551 0.0055,2.443841 l 2.605577,-0.513177 z"
     id="path3159"
     sodipodi:nodetypes="csssccssscccc" />
  <path
     style="fill:none;stroke:#ffffff;stroke-width:1;stroke-linecap:round;stroke-linejoin:round;stroke-opacity:1;stroke-miterlimit:4;stroke-dasharray:none"
     d="m 35.71914,14.780249 v 3.555131 l 2.939164,-0.741299 V 12.18502 c 0,0 -2.235237,-1.430338 -6.460589,-1.400111 -4.225352,0.03023 -7.970451,2.596144 -8.000535,6.925491 -0.03008,4.329347 1.361882,4.483029 3.349603,5.805105 l 5.898577,2.535686 c 1.00208,0.559954 2.016797,1.414221 2.016797,3.015006 0,1.600786 -2.092207,3.076859 -4.238434,3.076859 -2.146228,0 -2.841187,0.05009 -3.840916,-0.706265 v -3.330092 l -3.214638,0.866364 v 5.001553 c 2.125325,1.164378 2.190087,1.806751 6.623113,1.806751 4.433026,0 8.701309,-2.337155 8.788295,-6.460148 0.08699,-4.122993 -1.254799,-4.482052 -2.317959,-5.476831 l -7.027481,-3.397839 c -0.547507,-0.299644 -2.325636,-0.655544 -2.325636,-2.979989 0,-2.324445 2.537814,-3.417617 3.985075,-3.417617 1.447261,0 2.360239,0.20013 3.825564,0.731306 z"
     id="path3161"
     sodipodi:nodetypes="cccczzcczzcccczzcczzc" />
</svg>
