<svg width="48" height="48" xmlns="http://www.w3.org/2000/svg" xmlns:svg="http://www.w3.org/2000/svg" enable-background="new 0 0 48.0 48.0" version="1.1" xml:space="preserve">

 <g class="layer">
  <title>Layer 1</title>
  <path d="m24,7.74c2.52,0 4.56,2.04 4.56,4.57c0,2.52 -2.04,4.56 -4.56,4.56c-2.52,0 -4.56,-2.04 -4.56,-4.56c0,-2.53 2.04,-4.57 4.56,-4.57z" fill="#000000" fill-opacity="0" fill-rule="nonzero" id="svg_1" stroke="#FFFFFF" stroke-linecap="round" stroke-linejoin="round" stroke-opacity="1" stroke-width="1"/>
  <path d="m24,10.31c1.1,0 2,0.89 2,2c0,1.1 -0.9,1.99 -2,1.99c-1.1,0 -2,-0.89 -2,-1.99c0,-1.11 0.9,-2 2,-2z" fill="#000000" fill-opacity="0" fill-rule="nonzero" id="svg_2" stroke="#FFFFFF" stroke-linecap="round" stroke-linejoin="round" stroke-opacity="1" stroke-width="1"/>
  <path d="m36.55,16.87c2.52,0 4.56,2.04 4.56,4.56c0,2.52 -2.04,4.57 -4.56,4.57c-2.52,0 -4.56,-2.05 -4.56,-4.57c0,-2.52 2.04,-4.56 4.56,-4.56z" fill="#000000" fill-opacity="0" fill-rule="nonzero" id="svg_3" stroke="#FFFFFF" stroke-linecap="round" stroke-linejoin="round" stroke-opacity="1" stroke-width="1"/>
  <path d="m36.55,19.44c1.1,0 2,0.89 2,1.99c0,1.11 -0.9,2 -2,2c-1.1,0 -2,-0.89 -2,-2c0,-1.1 0.9,-1.99 2,-1.99z" fill="#000000" fill-opacity="0" fill-rule="nonzero" id="svg_4" stroke="#FFFFFF" stroke-linecap="round" stroke-linejoin="round" stroke-opacity="1" stroke-width="1"/>
  <path d="m31.42,31.13c2.52,0 4.56,2.04 4.56,4.56c0,2.53 -2.04,4.57 -4.56,4.57c-2.52,0 -4.57,-2.04 -4.57,-4.57c0,-2.52 2.05,-4.56 4.57,-4.56z" fill="#000000" fill-opacity="0" fill-rule="nonzero" id="svg_5" stroke="#FFFFFF" stroke-linecap="round" stroke-linejoin="round" stroke-opacity="1" stroke-width="1"/>
  <path d="m31.42,33.7c1.1,0 1.99,0.89 1.99,1.99c0,1.11 -0.89,2 -1.99,2c-1.11,0 -2,-0.89 -2,-2c0,-1.1 0.89,-1.99 2,-1.99z" fill="#000000" fill-opacity="0" fill-rule="nonzero" id="svg_6" stroke="#FFFFFF" stroke-linecap="round" stroke-linejoin="round" stroke-opacity="1" stroke-width="1"/>
  <path d="m16.01,31.13c2.52,0 4.57,2.04 4.57,4.56c0,2.53 -2.05,4.57 -4.57,4.57c-2.52,0 -4.56,-2.04 -4.56,-4.57c0,-2.52 2.04,-4.56 4.56,-4.56z" fill="#000000" fill-opacity="0" fill-rule="nonzero" id="svg_7" stroke="#FFFFFF" stroke-linecap="round" stroke-linejoin="round" stroke-opacity="1" stroke-width="1"/>
  <path d="m16.01,33.7c1.11,0 2,0.89 2,1.99c0,1.11 -0.89,2 -2,2c-1.1,0 -1.99,-0.89 -1.99,-2c0,-1.1 0.89,-1.99 1.99,-1.99z" fill="#000000" fill-opacity="0" fill-rule="nonzero" id="svg_8" stroke="#FFFFFF" stroke-linecap="round" stroke-linejoin="round" stroke-opacity="1" stroke-width="1"/>
  <path d="m11.45,16.87c2.52,0 4.56,2.04 4.56,4.56c0,2.52 -2.04,4.57 -4.56,4.57c-2.52,0 -4.56,-2.05 -4.56,-4.57c0,-2.52 2.04,-4.56 4.56,-4.56z" fill="#000000" fill-opacity="0" fill-rule="nonzero" id="svg_9" stroke="#FFFFFF" stroke-linecap="round" stroke-linejoin="round" stroke-opacity="1" stroke-width="1"/>
  <path d="m11.45,19.44c1.1,0 2,0.89 2,1.99c0,1.11 -0.9,2 -2,2c-1.1,0 -2,-0.89 -2,-2c0,-1.1 0.9,-1.99 2,-1.99z" fill="#000000" fill-opacity="0" fill-rule="nonzero" id="svg_10" stroke="#FFFFFF" stroke-linecap="round" stroke-linejoin="round" stroke-opacity="1" stroke-width="1"/>
  <path d="m24,22.19c1.58,0 2.85,1.28 2.85,2.86c0,1.57 -1.27,2.85 -2.85,2.85c-1.58,0 -2.85,-1.28 -2.85,-2.85c0,-1.58 1.27,-2.86 2.85,-2.86z" fill="#000000" fill-opacity="0" fill-rule="nonzero" id="svg_11" stroke="#FFFFFF" stroke-linecap="round" stroke-linejoin="round" stroke-opacity="1" stroke-width="1"/>
  <path d="m24,19.34c3.15,0 5.7,2.56 5.7,5.71c0,3.15 -2.55,5.7 -5.7,5.7c-3.15,0 -5.7,-2.55 -5.7,-5.7c0,-3.15 2.55,-5.71 5.7,-5.71z" fill="#000000" fill-opacity="0" fill-rule="nonzero" id="svg_12" stroke="#FFFFFF" stroke-linecap="round" stroke-linejoin="round" stroke-opacity="1" stroke-width="1"/>
  <path d="m13.73,16.87q2.28,-2.85 5.71,-3.99" fill="#000000" fill-opacity="0" fill-rule="nonzero" id="svg_13" stroke="#FFFFFF" stroke-linecap="round" stroke-linejoin="round" stroke-opacity="1" stroke-width="1"/>
  <path d="m12.78,32.08q-1.9,-2.09 -2.19,-5.8" fill="#000000" fill-opacity="0" fill-rule="nonzero" id="svg_14" stroke="#FFFFFF" stroke-linecap="round" stroke-linejoin="round" stroke-opacity="1" stroke-width="1"/>
  <path d="m36.84,26.57q0,2.85 -2,5.42" fill="#000000" fill-opacity="0" fill-rule="nonzero" id="svg_15" stroke="#FFFFFF" stroke-linecap="round" stroke-linejoin="round" stroke-opacity="1" stroke-width="1"/>
  <path d="m24,17.44l0,1.14" fill="#000000" fill-opacity="0" fill-rule="nonzero" id="svg_16" stroke="#FFFFFF" stroke-linecap="round" stroke-linejoin="round" stroke-opacity="1" stroke-width="1"/>
  <path d="m29.7,23.14l2.29,-0.76" fill="#000000" fill-opacity="0" fill-rule="nonzero" id="svg_17" stroke="#FFFFFF" stroke-linecap="round" stroke-linejoin="round" stroke-opacity="1" stroke-width="1"/>
  <path d="m19.06,31.51l1.14,-1.52" fill="#000000" fill-opacity="0" fill-rule="nonzero" id="svg_18" stroke="#FFFFFF" stroke-linecap="round" stroke-linejoin="round" stroke-opacity="1" stroke-width="1"/>
 </g>
</svg>