<?xml version="1.0" encoding="UTF-8" standalone="no"?>
<!-- Created with Inkscape (http://www.inkscape.org/) -->

<svg
   width="48"
   height="48"
   viewBox="0 0 48 48"
   version="1.1"
   id="svg5"
   inkscape:version="1.1.1 (3bf5ae0d25, 2021-09-20)"
   sodipodi:docname="darkcroc_theme.svg"
   xmlns:inkscape="http://www.inkscape.org/namespaces/inkscape"
   xmlns:sodipodi="http://sodipodi.sourceforge.net/DTD/sodipodi-0.dtd"
   xmlns="http://www.w3.org/2000/svg"
   xmlns:svg="http://www.w3.org/2000/svg">
  <sodipodi:namedview
     id="namedview7"
     pagecolor="#505050"
     bordercolor="#eeeeee"
     borderopacity="1"
     inkscape:pageshadow="0"
     inkscape:pageopacity="0"
     inkscape:pagecheckerboard="0"
     inkscape:document-units="px"
     showgrid="false"
     units="px"
     inkscape:zoom="11.446291"
     inkscape:cx="14.284103"
     inkscape:cy="28.786617"
     inkscape:window-width="1914"
     inkscape:window-height="1055"
     inkscape:window-x="0"
     inkscape:window-y="19"
     inkscape:window-maximized="1"
     inkscape:current-layer="layer1"
     inkscape:snap-smooth-nodes="false"
     inkscape:object-paths="true"
     inkscape:snap-object-midpoints="true" />
  <defs
     id="defs2">
    <style
       id="style72">.a{fill:none;stroke:#fff;stroke-linecap:round;stroke-linejoin:round;}</style>
  </defs>
  <g
     inkscape:label="Layer 1"
     inkscape:groupmode="layer"
     id="layer1">
    <path
       style="fill:none;stroke:#ffffff;stroke-width:1px;stroke-linecap:round;stroke-linejoin:round;stroke-opacity:1"
       d="m 17.976587,17.976587 -5.57368,-5.57368 M 35.597093,35.597093 29.885008,29.827389 C 28.41333,31.335797 26.317782,32.287296 24,32.287296 c -4.576947,0 -8.287296,-3.710349 -8.287296,-8.287296 0,-4.576947 3.710349,-8.287296 8.287296,-8.287296 2.287732,0 4.358956,0.926987 5.952931,2.332907 l 5.701458,-5.584839 C 32.735131,9.4827457 28.587524,7.5992336 24,7.5992336 14.942107,7.5992336 7.5992334,14.942107 7.5992336,24 c 0,9.057893 7.3428734,16.400766 16.4007664,16.400766 4.524366,0 8.620844,-1.832007 11.588084,-4.794672"
       id="path1005"
       sodipodi:nodetypes="ccccsssccsssc" />
    <path
       style="fill:none;stroke:#ffffff;stroke-width:1px;stroke-linecap:round;stroke-linejoin:round;stroke-opacity:1"
       d="m 18.103238,29.896762 -5.700331,5.700331"
       id="path1007"
       sodipodi:nodetypes="cc" />
  </g>
</svg>
