<svg width="48" height="48" version="1.1" viewBox="0 0 48 48" xmlns="http://www.w3.org/2000/svg">
 <path d="m40.922 37.875h-2.6703l-1.3352-2.3125 1.3352-2.3125h2.6703l1.3352 2.3125zm0-4.625h-2.6703l-1.3352-2.3125 1.3352-2.3125h2.6703l1.3352 2.3125zm0-4.625h-2.6703l-1.3352-2.3125 1.3352-2.3125h2.6703l1.3352 2.3125zm0-4.625h-2.6703l-1.3352-2.3125 1.3352-2.3125h2.6703l1.3352 2.3125zm0-4.625h-2.6703l-1.3352-2.3125 1.3352-2.3125h2.6703l1.3352 2.3125zm0-4.625h-2.6703l-1.3352-2.3125 1.3352-2.3125 2.6703 1e-6 1.3352 2.3125zm0-4.625-2.6703-1e-6 -1.3352-2.3125 1.3352-2.3125 2.6703 1e-7 1.3352 2.3125zm-4.0055 2.3125h-5.0506c-0.5089-1.1099-1.8943-2.2199-0.74778-3.3298 0.40223-0.41341 0.4415-1.4555 1.175-1.2952h4.6234l1.3352 2.3125zm0 4.625h-5.0506l-1.3352-2.3125 1.3352-2.3125h5.0506l1.3352 2.3125zm-4.6234 0h4.6234l1.3352 2.3125-1.3352 2.3125m-4.6234 0h4.6234l1.3352 2.3125-1.3352 2.3125h-5.0506m0.42719 0h4.6234l1.3352 2.3125-1.3352 2.3125h-5.0506m0.42719-2e-6h4.6234l1.3352 2.3125-1.3352 2.3125h-5.0506m0.42719-2e-6h4.6234l1.3352 2.3125-1.3352 2.3125h-5.0506m-1.3352 2.3125h-2.6703l-1.3352-2.3125 1.3352-2.3125h2.6703l1.3352 2.3125zm0-4.625h-2.6703l-1.3352-2.3125 1.3352-2.3125h2.6703l1.3352 2.3125zm0-4.625h-2.6703l-1.3352-2.3125 1.3352-2.3125h2.6703l1.3352 2.3125zm0-4.625h-2.6703l-1.3352-2.3125 1.3352-2.3125h2.6703l1.3352 2.3125c-0.44506 0.77083-0.89011 1.5417-1.3352 2.3125zm0-4.625h-2.6703l-1.3352-2.3125 1.3352-2.3125h2.6703l1.3352 2.3125zm0-4.625h-2.6703l-1.3352-2.3125 1.3352-2.3125h2.6703l1.3352 2.3125zm0-4.625h-2.6703l-1.3352-2.3125 1.3352-2.3125 2.6703 1e-6 1.3352 2.3125zm0-4.625-2.6703-1e-6 -1.3352-2.3125 1.3352-2.3125 2.6703 1e-7 1.3352 2.3125zm-4.0055 2.3125h-5.0506l-1.3352-2.3125 1.3352-2.3125h5.0506l1.3352 2.3125zm0 4.625h-5.0506l-1.3352-2.3125 1.3352-2.3125h5.0506l1.3352 2.3125zm-6.3857 6.9375 1.3352-2.3125h5.0506l1.3352 2.3125-1.3352 2.3125h-5.0506m0 0h5.0506l1.3352 2.3125-1.3352 2.3125h-5.0506m0-2e-6h5.0506l1.3352 2.3125-1.3352 2.3125h-5.0506m5.0506 4.625h-5.0506l-1.3352-2.3125 1.3352-2.3125h5.0506l1.3352 2.3125zm-6.3857-2.3125 1.3352 2.3125-1.3352 2.3125h-2.6703l-1.3352-2.3125 1.3352-2.3125m2.6703-4.625 1.3352 2.3125m-1.3352 2.3125h-2.6703l-1.3352-2.3125 1.3352-2.3125m0-4.625h2.6703m0 0 1.3352 2.3125-1.3352 2.3125h-2.6703l-1.3352-2.3125 1.3352-2.3125m2.6703-4.625 1.3352 2.3125-1.3352 2.3125m-2.6703 0-1.3352-2.3125 1.3352-2.3125m2.6703-4.625 1.3352 2.3125m-1.3352 2.3125h-2.6703l-1.3352-2.3125 1.3352-2.3125m2.6703 0h-2.6703l-1.3352-2.3125 1.3352-2.3125h2.6703l1.3352 2.3125zm-2.6703-4.625-1.3352-2.3125 1.3352-2.3125 2.6703 1e-6 1.3352 2.3125-1.3352 2.3125m-2.6703-4.625-1.3352-2.3125 1.3352-2.3125 2.6703 1e-7 1.3352 2.3125-1.3352 2.3125m-9.0561 2.3125-1.3352-2.3125 1.3352-2.3125h5.0506l1.3352 2.3125-1.3352 2.3125m-5.0506 4.625-1.3352-2.3125 1.3352-2.3125h5.0506l1.3352 2.3125-1.3352 2.3125m-6.3857 2.3125 1.3352-2.3125h5.0506l1.3352 2.3125-1.3352 2.3125m-5.0506 4.625-1.3352-2.3125 1.3352-2.3125h5.0506l1.3352 2.3125-1.3352 2.3125m-5.0506 0h5.0506l1.3352 2.3125-1.3352 2.3125h-5.0506m5.0506-2e-6 1.3352 2.3125-1.3352 2.3125h-5.0506l-1.3352-2.3125m6.3857 2.3125 1.3352 2.3125-1.3352 2.3125h-5.0506l-1.3352-2.3125m1.3352 2.3125-1.3352 2.3125h-2.6703l-1.3352-2.3125 1.3352-2.3125m2.6703-4.625 1.3352 2.3125-1.3352 2.3125h-2.6703l-1.3352-2.3125 1.3352-2.3125m2.6703 0h-2.6703l-1.3352-2.3125 1.3352-2.3125h2.6703l1.3352 2.3125zm1.3352-6.9375-1.3352 2.3125h-2.6703l-1.3352-2.3125 1.3352-2.3125h2.6703m-2.6703 0-1.3352-2.3125 1.3352-2.3125h2.6703l1.3352 2.3125m-4.0055-2.3125-1.3352-2.3125 1.3352-2.3125h2.6703m-2e-7 0h-2.6703l-1.3352-2.3125 1.3352-2.3125 2.6703 1e-6m-2e-7 0-2.6703-1e-6 -1.3352-2.3125 1.3352-2.3125 2.6703 1e-7 1.3352 2.3125m31.174 32.375-1.3352 2.3125h-2.6703l-1.3352-2.3125 1.3352-2.3125h2.6703z" fill="none" stop-color="#000000" stroke="#fff" stroke-linecap="round" stroke-linejoin="round" style="paint-order:stroke fill markers"/>
</svg>
