<?xml version="1.0" encoding="UTF-8" standalone="no"?>
<svg
   xmlns:dc="http://purl.org/dc/elements/1.1/"
   xmlns:cc="http://creativecommons.org/ns#"
   xmlns:rdf="http://www.w3.org/1999/02/22-rdf-syntax-ns#"
   xmlns:svg="http://www.w3.org/2000/svg"
   xmlns="http://www.w3.org/2000/svg"
   xmlns:sodipodi="http://sodipodi.sourceforge.net/DTD/sodipodi-0.dtd"
   xmlns:inkscape="http://www.inkscape.org/namespaces/inkscape"
   width="53.186024mm"
   height="53.186024mm"
   viewBox="0 0 53.186024 53.186024"
   version="1.1"
   id="svg8"
   inkscape:version="1.0.2 (e86c870879, 2021-01-15)"
   sodipodi:docname="daylio.svg">
  <defs
     id="defs2">
    <inkscape:path-effect
       effect="bspline"
       id="path-effect889"
       is_visible="true"
       lpeversion="1"
       weight="33.333333"
       steps="2"
       helper_size="0"
       apply_no_weight="true"
       apply_with_weight="true"
       only_selected="false" />
    <inkscape:path-effect
       effect="bspline"
       id="path-effect885"
       is_visible="true"
       lpeversion="1"
       weight="33.333333"
       steps="2"
       helper_size="0"
       apply_no_weight="true"
       apply_with_weight="true"
       only_selected="false" />
    <inkscape:path-effect
       effect="bspline"
       id="path-effect880"
       is_visible="true"
       lpeversion="1"
       weight="33.333333"
       steps="2"
       helper_size="0"
       apply_no_weight="true"
       apply_with_weight="true"
       only_selected="false" />
    <inkscape:path-effect
       effect="bspline"
       id="path-effect857"
       is_visible="true"
       lpeversion="1"
       weight="33.333333"
       steps="2"
       helper_size="0"
       apply_no_weight="true"
       apply_with_weight="true"
       only_selected="false" />
    <inkscape:path-effect
       effect="bspline"
       id="path-effect853"
       is_visible="true"
       lpeversion="1"
       weight="33.333333"
       steps="2"
       helper_size="0"
       apply_no_weight="true"
       apply_with_weight="true"
       only_selected="false" />
    <style
       id="style891">.a{fill:none;stroke:#fff;stroke-linecap:round;stroke-linejoin:round;}</style>
  </defs>
  <sodipodi:namedview
     id="base"
     pagecolor="#0000ff"
     bordercolor="#666666"
     borderopacity="1.0"
     inkscape:pageopacity="0"
     inkscape:pageshadow="2"
     inkscape:zoom="1.979899"
     inkscape:cx="68.575561"
     inkscape:cy="105.33212"
     inkscape:document-units="mm"
     inkscape:current-layer="layer1"
     inkscape:document-rotation="0"
     showgrid="false"
     inkscape:window-width="1920"
     inkscape:window-height="1044"
     inkscape:window-x="0"
     inkscape:window-y="130"
     inkscape:window-maximized="1" />
  <metadata
     id="metadata5">
    <rdf:RDF>
      <cc:Work
         rdf:about="">
        <dc:format>image/svg+xml</dc:format>
        <dc:type
           rdf:resource="http://purl.org/dc/dcmitype/StillImage" />
        <dc:title></dc:title>
      </cc:Work>
    </rdf:RDF>
  </metadata>
  <g
     inkscape:label="Layer 1"
     inkscape:groupmode="layer"
     id="layer1"
     transform="translate(-71.694815,-96.32485)">
    <path
       style="fill:none;stroke:#ffffff;stroke-width:5;stroke-linecap:round;stroke-linejoin:miter;stroke-miterlimit:4;stroke-dasharray:none;stroke-opacity:1"
       d="m 83.327685,120.05288 c 0,1.62315 0,3.24592 0,4.86888"
       id="path855"
       inkscape:path-effect="#path-effect857"
       inkscape:original-d="m 83.327685,120.05288 c 2.65e-4,1.62315 0,4.86888 0,4.86888" />
    <path
       style="fill:none;stroke:#ffffff;stroke-width:5;stroke-linecap:round;stroke-linejoin:miter;stroke-miterlimit:4;stroke-dasharray:none;stroke-opacity:1"
       d="m 113.23007,120.05288 c 0,1.62315 0,3.24592 0,4.86888"
       id="path855-3"
       inkscape:path-effect="#path-effect880"
       inkscape:original-d="m 113.23007,120.05288 c 2.7e-4,1.62315 0,4.86888 0,4.86888" />
    <path
       style="fill:none;stroke:#ffffff;stroke-width:1;stroke-linecap:butt;stroke-linejoin:miter;stroke-miterlimit:4;stroke-dasharray:none;stroke-opacity:1"
       d="m 85.442638,131.69971 c -0.19229,0.0491 -0.577071,0.14739 -0.955691,0.40038 -0.37862,0.25298 -0.750881,0.66061 -0.97987,1.04403 -0.228989,0.38343 -0.31466,0.74245 -0.265746,1.14951 0.04891,0.40705 0.232232,0.862 0.754957,1.62821 0.522724,0.76622 1.384713,1.84367 2.358794,2.76102 0.974082,0.91735 2.060128,1.67463 3.128863,2.33082 1.068735,0.6562 2.120081,1.21131 3.123913,1.62494 1.003832,0.41364 1.960093,0.68584 2.854882,0.87232 0.894789,0.18647 1.728079,0.28727 2.435971,0.33163 0.707892,0.0444 1.290374,0.0323 2.208749,-0.12469 0.91837,-0.15702 2.17262,-0.45897 3.16744,-0.77746 0.99482,-0.3185 1.73021,-0.6535 2.42784,-1.01774 0.69762,-0.36424 1.35748,-0.7577 2.07432,-1.2352 0.71683,-0.47751 1.49064,-1.03906 2.224,-1.69784 0.73335,-0.65879 1.42626,-1.4148 1.96122,-2.10105 0.53495,-0.68625 0.91196,-1.30277 1.13326,-1.82189 0.22129,-0.51912 0.28685,-0.94097 0.23298,-1.30213 -0.0539,-0.36116 -0.2274,-0.66171 -0.4423,-0.94232 -0.21491,-0.2806 -0.47126,-0.54121 -0.76051,-0.74077 -0.28926,-0.19957 -0.61145,-0.33794 -5.03213,-0.3996 -4.42068,-0.0617 -12.93945,-0.0465 -17.199051,-0.0389 -4.259602,0.008 -4.259602,0.008 -4.451891,0.0567 z"
       id="path883"
       inkscape:path-effect="#path-effect885"
       inkscape:original-d="m 85.634927,131.6506 c -0.384508,0.0985 -0.769281,0.19681 -1.154318,0.29482 -0.37201,0.4079 -0.744271,0.81553 -1.116803,1.22291 -0.08541,0.35929 -0.171079,0.71831 -0.257015,1.07707 0.18359,0.45523 0.366907,0.91018 0.549964,1.36487 0.862289,1.07776 1.724279,2.15521 2.586022,3.23242 1.08635,0.75757 2.172396,1.51485 3.258196,2.27188 1.051652,0.55541 2.103001,1.11052 3.154103,1.66538 0.956564,0.27248 1.912824,0.54469 2.868837,0.81663 0.833589,0.10106 1.666878,0.20186 2.499921,0.30239 0.582774,-0.0118 1.165257,-0.0238 1.747488,-0.0361 1.254578,-0.3017 2.508828,-0.60365 3.762848,-0.90587 0.73569,-0.33476 1.47109,-0.66976 2.20623,-1.00504 0.66015,-0.3932 1.32001,-0.78666 1.97961,-1.18039 0.7741,-0.5613 1.54791,-1.12285 2.32147,-1.68468 0.69321,-0.75578 1.38612,-1.51179 2.07878,-2.26809 0.37729,-0.61627 0.75429,-1.23279 1.13104,-1.84958 0.0658,-0.4216 0.13139,-0.84344 0.19669,-1.26557 -0.17326,-0.30029 -0.34678,-0.60084 -0.52057,-0.90165 -0.2561,-0.26036 -0.51245,-0.52097 -0.76908,-0.78184 -0.32194,-0.13812 -0.64413,-0.2765 -0.9666,-0.41514 -8.51884,0.0155 -17.037609,0.0307 -25.556813,0.0456 z" />
    <path
       style="fill:none;stroke:#ffffff;stroke-width:1;stroke-linecap:butt;stroke-linejoin:miter;stroke-miterlimit:4;stroke-dasharray:none;stroke-opacity:1"
       d="m 90.993278,141.80455 c 0.275474,-0.33129 0.550968,-0.6626 1.103627,-0.97905 0.55266,-0.31645 1.382282,-0.61794 2.172152,-0.83115 0.78987,-0.21321 1.53988,-0.33814 2.202335,-0.411 0.662455,-0.0728 1.237278,-0.0936 1.735275,-0.10555 0.497998,-0.0119 0.91913,-0.0149 1.472137,0.0285 0.553006,0.0434 1.237816,0.13324 1.856386,0.24276 0.61857,0.10952 1.17085,0.23871 1.67201,0.42113 0.50117,0.18242 0.95121,0.41796 1.3774,0.70514 0.4262,0.28718 0.82857,0.6259 1.23067,0.96439"
       id="path887"
       inkscape:path-effect="#path-effect889"
       inkscape:original-d="m 90.993278,141.80455 c 0.27576,-0.33105 0.551254,-0.66236 0.826487,-0.99394 0.829916,-0.30124 1.659536,-0.60274 2.488909,-0.9045 0.750303,-0.12467 1.500312,-0.24961 2.250072,-0.3748 0.575112,-0.0205 1.149935,-0.0413 1.724507,-0.0624 0.421412,-0.003 0.842544,-0.006 1.26342,-0.009 0.685107,0.0901 1.369917,0.1799 2.054477,0.26945 0.55256,0.12946 1.10484,0.25865 1.65686,0.38757 0.45031,0.23582 0.90034,0.47137 1.35012,0.70665 0.40265,0.339 0.80502,0.67772 1.20714,1.01618" />
    <circle
       class="a"
       cx="98.287827"
       cy="122.91786"
       r="25.988626"
       id="circle895"
       style="stroke-width:1.20877" />
  </g>
</svg>
