<?xml version="1.0" encoding="UTF-8"?>
<svg version="1.1" viewBox="0 0 48 48" xmlns="http://www.w3.org/2000/svg">
 <defs>
  <style>.a{fill:none;stroke:#fff;stroke-linecap:round;stroke-linejoin:round;}</style>
 </defs>
 <path class="a" d="m40.5 5.5h-33a2 2 0 0 0-2 2v33a2 2 0 0 0 2 2h33a2 2 0 0 0 2-2v-33a2 2 0 0 0-2-2z"/>
  <path class="a" d="m17.334 25.062c0-1.7445-1.3958-3.1718-3.1018-3.1718-1.706 0-3.1018 1.4273-3.1018 3.1718v2.0616c0 1.7445 1.3958 3.1718 3.1018 3.1718 1.706 0 3.1018-1.4273 3.1018-3.1718"/>
  <line class="a" x1="17.334" x2="17.334" y1="30.296" y2="17.609"/>
  <path class="a" d="m21.249 25.103c0-1.7445 1.3958-3.1718 3.1018-3.1718s3.1018 1.4273 3.1018 3.1718v2.0616c0 1.7445-1.3958 3.1718-3.1018 3.1718s-3.1018-1.4273-3.1018-3.1718"/>
  <line class="a" x1="21.249" x2="21.249" y1="30.336" y2="17.649"/>
  <path class="a" d="m36.869 27.22c0 1.7445-1.3958 3.1718-3.1018 3.1718-1.706 0-3.1018-1.4273-3.1018-3.1718v-2.0616c0-1.7445 1.3958-3.1718 3.1018-3.1718 1.706 0 3.1018 1.4273 3.1018 3.1718"/>
  <line class="a" x1="36.869" x2="36.869" y1="30.391" y2="21.986"/>
</svg>
