<svg xmlns="http://www.w3.org/2000/svg" viewBox="0 0 48 48"><defs><style>.a{fill:none;stroke:#fff;stroke-linecap:round;stroke-linejoin:round;}.st6{fill:#FFFFFF;}</style></defs>
	<path class="a" d="m 36 20 v -16 a 1 1 90 0 0 -1 -1 h -22 a 1 1 90 0 0 -1 1 v 16 a 1 1 90 0 0 1 1 h 22 a 1 1 90 0 0 1 -1 z"/>
	<path class="a" d="M 14 19 v -14 h 2.6 a 7 7 0 0 1 7 7 h 0 a 7 7 0 0 1 -7 7 Z"/>
	<path class="a" d="M 30.5 12 h -4.5 m 4.5 0 a 3.5 3.5 0 1 1 0 7 h -4.5 v -14 h 4.5 a 3.5 3.5 0 0 1 0 7 z"/>

	<path class="a" d="M 10 35 c -0.3 0.6 -1 1 -1.7 1 l 0 0 c -1.1 0 -2 -0.9 -2 -2 v -1.3 c 0 -1.1 0.9 -2 2 -2 l 0 0 c 0.7 0 1.4 0.4 1.7 1"/>
	<path class="a" d="M 17 34 c 0 1.1 -0.9 2 -2 2 h 0 c -1.1 0 -2 -0.9 -2 -2 v -1.3 c 0 -1.1 0.9 -2 2 -2 h 0 c 1.1 0 2 0.9 2 2 v 3.3 v -5.4"/>
	<path class="a" d="M 20 35.5 c 0.4 0.3 0.8 0.4 1.6 0.4 h 0.4 c 0.7 0 1.3 -0.6 1.3 -1.3 l 0 0 c 0 -0.7 -0.6 -1.3 -1.3 -1.3 h -0.9 c -0.7 0 -1.3 -0.6 -1.3 -1.3 v 0 c 0 -0.7 0.6 -1.3 1.3 -1.3 h 0.4 c 0.9 0 1.3 0.1 1.6 0.4"/>

			<g>
				<circle class="st6" cx="26" cy="26.4" r="0.7"/>
				<line class="a" x1="26" y1="30.5" x2="26" y2="36"/>
			</g>

			<g>
				<path class="a" d="M 33 35.8 v -3.1 c 0 -1.1 -0.9 -2 -2 -2 l 0 0 c -1.1 0 -2 0.9 -2 2 v 3.2 v -5.4"/>
			</g>

			<path class="a" d="M 38 36 c -1.1 0 -2 -0.9 -2 -2 v -1.3 c 0 -1.1 0.9 -2 2 -2 l 0 0 c 1.1 0 2 0.9 2 2 v 1.3 c 0 1.1 -0.9 2 -2 2 z"/>
</svg>