<?xml version="1.0" encoding="UTF-8" standalone="no"?>
<svg
   viewBox="0 0 48 48"
   version="1.1"
   id="svg34"
   sodipodi:docname="dbnavigator_beta.svg"
   xml:space="preserve"
   inkscape:version="1.2.2 (b0a8486541, 2022-12-01)"
   xmlns:inkscape="http://www.inkscape.org/namespaces/inkscape"
   xmlns:sodipodi="http://sodipodi.sourceforge.net/DTD/sodipodi-0.dtd"
   xmlns="http://www.w3.org/2000/svg"
   xmlns:svg="http://www.w3.org/2000/svg"><sodipodi:namedview
     id="namedview36"
     pagecolor="#ffffff"
     bordercolor="#000000"
     borderopacity="0.25"
     inkscape:showpageshadow="2"
     inkscape:pageopacity="0.0"
     inkscape:pagecheckerboard="0"
     inkscape:deskcolor="#d1d1d1"
     showgrid="false"
     inkscape:zoom="15.129139"
     inkscape:cx="21.61392"
     inkscape:cy="23.960386"
     inkscape:window-width="1444"
     inkscape:window-height="1236"
     inkscape:window-x="507"
     inkscape:window-y="514"
     inkscape:window-maximized="0"
     inkscape:current-layer="svg34" /><defs
     id="defs4"><style
       id="style2">.a{fill:none;stroke:#fff;stroke-linecap:round;stroke-linejoin:round;}</style><style
       id="style1182">.a{fill:none;stroke:#fff;stroke-linecap:round;stroke-linejoin:round;}</style></defs><path
     class="a"
     d="M23.9609,42.0383a1.5664,1.5664,0,0,1-1.3735.8h0a1.6128,1.6128,0,0,1-1.6158-1.6v-1.04a1.6129,1.6129,0,0,1,1.6158-1.6h0a1.613,1.613,0,0,1,1.6159,1.6v.56H20.9716"
     id="path20"
     style="stroke:#ffffff;stroke-opacity:1" /><path
     class="a"
     d="M26.289,36.998v5.006a.7975.7975,0,0,0,.8536.8344h.256"
     id="path22"
     style="stroke:#ffffff;stroke-opacity:1" /><line
     class="a"
     x1="25.4355"
     y1="38.4163"
     x2="27.2279"
     y2="38.4163"
     id="line24"
     style="stroke:#ffffff;stroke-opacity:1" /><path
     class="a"
     d="M15.7783,40.085a1.6933,1.6933,0,0,1,1.7071-1.6687h0a1.6933,1.6933,0,0,1,1.7071,1.6687V41.17a1.6932,1.6932,0,0,1-1.7071,1.6687h0A1.6932,1.6932,0,0,1,15.7783,41.17"
     id="path26"
     style="stroke:#ffffff;stroke-opacity:1" /><line
     class="a"
     x1="15.7783"
     y1="42.8384"
     x2="15.7783"
     y2="36.1636"
     id="line28"
     style="stroke:#ffffff;stroke-opacity:1" /><path
     class="a"
     d="M32.2217,41.17a1.6932,1.6932,0,0,1-1.7071,1.6687h0A1.6932,1.6932,0,0,1,28.8075,41.17V40.085a1.6933,1.6933,0,0,1,1.7071-1.6687h0a1.6933,1.6933,0,0,1,1.7071,1.6687"
     id="path30"
     style="stroke:#ffffff;stroke-opacity:1" /><line
     class="a"
     x1="32.2217"
     y1="42.8384"
     x2="32.2217"
     y2="38.4163"
     id="line32"
     style="stroke:#ffffff;stroke-opacity:1" /><g
     id="g1209"
     transform="translate(-0.15071198,-5.1712995)"
     style="stroke:#ffffff;stroke-opacity:1"><path
       class="a"
       d="m 43.5112,22.9421 -10.8729,1.8634 c -5.0423,0.8641 -6.964,2.091 -6.964,2.091 L 24.02,24.5335 c 1.9264,-2.88 5.7062,-5.6431 9.3088,-5.1458 l 10.1826,1.4056 v -3.5586 c 0,0 -20.47,-6.929 -26.0042,-4.1837 C 9.4114,17.0673 6.5437,21.9681 4.6281,32 c -0.96,5.0269 3.3066,10.9752 38.8831,-3.4426 z"
       id="path1186"
       style="stroke:#ffffff;stroke-opacity:1" /><path
       class="a"
       d="m 4.52,32.8684 c 0.2684,2.75 8.3532,2.5628 10.9742,1.6053 3.5488,-1.2965 9.0176,-5.842 17.1445,-7.491 l 10.8729,-2.2062"
       id="path1188"
       style="stroke:#ffffff;stroke-opacity:1" /><path
       class="a"
       d="m 9.092,19.8662 c -1.1324,3.3721 0.5268,3.4423 3.9854,3.49 8.609,0.118 15.0316,-8.4233 8.7261,-8.3872 l -7.6772,0.0441"
       id="path1190"
       style="stroke:#ffffff;stroke-opacity:1" /><path
       class="a"
       d="m 6.9321,31.8962 1.3942,-3.75 h 0.6093 a 1.2626,1.2626 0 0 1 1.178,1.875 v 0 a 3.0066,3.0066 0 0 1 -2.5721,1.875 z"
       id="path1192"
       style="stroke:#ffffff;stroke-opacity:1" /><path
       class="a"
       d="m 13.215,29.9836 a 0.5937,0.5937 0 0 1 0.5539,0.8818 1.4138,1.4138 0 0 1 -1.21,0.8818 h -1.455 L 12.4156,28.22 h 1.455 a 0.5938,0.5938 0 0 1 0.554,0.8818 1.4138,1.4138 0 0 1 -1.2096,0.8818 z"
       id="path1194"
       style="stroke:#ffffff;stroke-opacity:1" /><path
       class="a"
       d="M 13.2145,29.9833 H 11.9838"
       id="path1196"
       style="stroke:#ffffff;stroke-opacity:1" /></g></svg>
