<svg id="Layer_1" data-name="Layer 1" xmlns="http://www.w3.org/2000/svg" viewBox="0 0 48 48"><defs><style>.cls-1{fill:none;stroke:#fff;stroke-linecap:round;stroke-linejoin:round;}</style></defs><path class="cls-1" d="M40.5,5.5H7.5a2,2,0,0,0-2,2v33a2,2,0,0,0,2,2h33a2,2,0,0,0,2-2V7.5A2,2,0,0,0,40.5,5.5Z"/><path class="cls-1" d="M16.35,24h11.3a6.75,6.75,0,0,0,6.74-6.75h0a6.75,6.75,0,0,0-6.74-6.75h-14l2.74,2.85"/><path class="cls-1" d="M16.35,24h11.3a6.75,6.75,0,0,1,6.74,6.75h0a6.75,6.75,0,0,1-6.74,6.75H16.35"/><polyline class="cls-1" points="16.35 10.5 13.61 10.5 16.35 13.35"/><polyline class="cls-1" points="16.35 24 13.61 24 16.35 26.85"/><line class="cls-1" x1="16.35" y1="24" x2="16.35" y2="13.35"/><polyline class="cls-1" points="16.35 37.5 13.61 37.5 16.35 34.65 16.35 26.85"/></svg>