<svg xmlns="http://www.w3.org/2000/svg" xml:space="preserve" id="svg990" width="48" height="48" version="1.1"><defs id="defs987"><style id="style1174">.a{fill:none;stroke:#fff;stroke-linecap:round;stroke-linejoin:round}</style></defs><path id="path32663" d="M27.096 34.494c2.42 1.75 8.743-.19 12.933-2.742 1.627-1.786 3.342-4.707 3.471-7.83-3.243-.26-6.6.082-9.773 1.66-2.9 1.94-5.946 5.5-6.63 8.912zm-3.031-1.028c2.701-3.315 5.054-6.63 6.36-9.946-1.042-3.567-3.37-7.368-6.114-10.7-3.424 2.756-5.571 6.52-7.245 9.846 1.533 3.85 3.81 7.316 6.999 10.8zm-3.619 1.358c-9.652.323-14.003-3.103-15.946-9.909 2.185-2.224 14.587.052 15.946 9.909Z" style="fill:none;stroke:#fff;stroke-width:1;stroke-linecap:round;stroke-linejoin:round;stroke-dasharray:none;stroke-opacity:1;stop-color:#000"/></svg>