<svg xmlns="http://www.w3.org/2000/svg" xml:space="preserve" id="svg990" width="48" height="48" version="1.1"><defs id="defs987"><style id="style1174">.a{fill:none;stroke:#fff;stroke-linecap:round;stroke-linejoin:round}</style></defs><path id="path31991" d="M23.071 27.884c-4.734-.731-9.351 4.432-4.431 7.798 4.318 1.579 7.33-1.426 7.886-4.528l-.846-11.708c1.708 1.282 2.958 2.822 4.202 4.365l.975-3.296c-1.897-.72-3.713-1.753-5.261-3.815-.388-1.047-.253-1.71-.258-2.476 1.133.719 2.694 2.655 4.227 4.509l1.38-2.958c-2.06-.818-4.117-1.55-6.176-5.064-.47.597-1.812 1.026-3.078 1.47 1.043 1.978 1.63 3.827 1.606 4.984zM45.5 24c0 11.874-9.626 21.5-21.5 21.5S2.5 35.874 2.5 24 12.126 2.5 24 2.5 45.5 12.126 45.5 24Z" style="fill:none;stroke:#fff;stroke-width:1;stroke-linecap:round;stroke-linejoin:round;stroke-dasharray:none;stroke-opacity:1;stop-color:#000"/></svg>