<svg xmlns="http://www.w3.org/2000/svg" xml:space="preserve" id="svg990" width="48" height="48" version="1.1"><defs id="defs987"><style id="style1174">.a{fill:none;stroke:#fff;stroke-linecap:round;stroke-linejoin:round}</style></defs><path id="path371" d="M5.652 33.021c-.634-1.334.244-2.784.949-3.316.648.371.712 3.746-.949 3.316v0m4.814 6.989c-1.146-.413-2.574-.373-4.005 1.059.987 1.238 3.371 1.15 5.185.152-.368-1.296.439-2.637.96-3.404.418 1.05.906 2.58.243 3.984.985.762 2.073 1.361 3.222 1.861m13.554-18.684c1.013 1.582 1.549 3.164 2.125 4.92.282-1.854.265-3.454.317-5.147m-1.279-1.192c-.473.533-.87 1.283-1.447 1.397-.836-1.57-.744-2.866-.09-4.286.756.443 1.18 1.073 1.559 1.728.49-.878 1.107-1.38 1.718-1.9.168 1.277.127 2.962-.358 4.343-.534-.003-.957-.65-1.382-1.282zm7.757-10.097c0 .495-.35.897-.783.897-.432 0-.782-.402-.782-.897s.35-.897.782-.897c.433 0 .783.402.783.897zm-6.171 0c0 .495-.35.897-.783.897-.432 0-.783-.402-.783-.897s.35-.897.783-.897c.432 0 .783.402.783.897zm-5.978 5.534c.685.41 1.485.756 2.419 1.022-.232 1.18-.556 2.137-.973 2.87M10.85 31.393a10.74 10.74 0 0 1-2.684.194l4.28-3.735c-.802.357-1.905.39-3.06-.22l.122-.048m.918-6.371a11.839 11.839 0 0 0-1.711-.796c1.145-3.494 4.318-5.844 8.95-5.896 5.647-.063 8.52 3.395 9.393 5.849.775 2.178 1.519 5.449 2.274 7.49 1.136 3.067 2.038 2.952 3.7 4.003-1.231.669-2.334.766-3.61.77.948.851 1.8 1.56 3.112 2.036-1.05.986-2.175 1.185-3.206 1.379.41 1.072 1.122 2.075 2.062 3.148-2.233-.255-4.535-1.142-5.9-1.99M9.507 27.585c2.153-.86 3.362-2.132 3.907-3.484-.35-1.011-1.566-2.083-2.989-2.887.646 1.71-.177 2.673-1.71 2.502.057 1.375.283 2.68.792 3.87m9.938 13.02c-.612-.798-1.208-1.677-1.685-2.64m0 0c-.638-1.29-1.062-2.73-1.02-4.325a11.853 11.853 0 0 1-2.105 1.69m-.702-2.926c-1.327 1.555-3.367 2.68-5.479 3.42 1.247-1.2 1.967-2.693 2.395-4.431 1.372-.28 2.55-.823 3.453-1.51-.065 2.118-.534 4.309-1.333 6.318a10.6 10.6 0 0 0 1.666-.871m28.417-2.648c2.053.253 2.19-.97 2.447-1.68-1.485-.557-1.754.364-2.184.885m-3.15 5.366c1.602.615 2.127-.433 3.163-1.377-.804-.333-1.556-.25-2.274.108m-4.358 4.83c1.507 1.89 3.797 1.81 5.068.03-1.106-.494-1.699-1.886-4.174-.8M4.587 30.907c-1.638.432-1.964-1.088-2.087-2.056.517.203 1.034.158 1.551.744m3.723 7.448c-1.936.18-2.869-.931-3.78-2.387.543-.228 1.444-.32 2.207-.088M3.568 24.257c0-11.635 9.169-21.068 20.48-21.068m18.33 11.66a21.475 21.475 0 0 1 2.15 9.408v0c0 4.27-1.253 8.33-3.468 11.73m-.892 1.265a20.84 20.84 0 0 1-2.551 2.788m-.909.78a20.347 20.347 0 0 1-4.684 2.842M10.457 40.02c-.99-.904-1.888-1.9-2.686-2.975m-1.578-2.467a21.513 21.513 0 0 1-2.625-10.32m19.118 19.2c-1.422 1.16-2.934 1.51-4.247 1.314-1.313-.196-2.426-.937-3.048-1.958 1.694-1.486 3.1-1.96 4.292-1.745l.745.236c-.613-.933-.777-2.04-.531-2.861 2.214-.103 4.258 1.71 4.15 3.82-.106-2.11 1.938-3.923 4.152-3.82v0c.245.822.081 1.928-.531 2.861l.745-.236c1.191-.215 2.598.26 4.292 1.745-.623 1.02-1.736 1.762-3.049 1.958-1.312.195-2.825-.154-4.246-1.315m-1.362-8.46c1.65 1.234 1.765 4.463 0 5.339-1.765-.876-1.65-4.105 0-5.339zm-1.855 7.78a4.865 4.865 0 0 0 1.855.376 4.865 4.865 0 0 0 1.855-.375m-2.219-26.595c-.83-1.547-1.084-3.33-1.069-5.057.041-4.848 4.477-8.152 8.898-7.88 6.163.38 8.615 4.793 8.702 9.255.108 5.618-4 7.67-7.173 7.989-.374 3.969.787 5.48 3.77 7.077.53 2.12-.04 4.034-.554 5.882-.505 1.822-.48 2.826-.676 4.279l-.67 4.104m5.898-5.902c-1.562-.916-.478-2.098-.553-3.37.933.235 1.347 1.277 1.356 2.27" style="fill:none;stroke:#fff;stroke-width:1;stroke-linecap:round;stroke-linejoin:round;stroke-dasharray:none;stroke-opacity:1;stop-color:#000"/></svg>