<svg xmlns="http://www.w3.org/2000/svg" viewBox="0 0 48 48"><defs><style>.a{fill:none;stroke:#fff;stroke-linecap:round;stroke-linejoin:round;}</style></defs><path class="a" d="M37.4956,11.9717,25.0341,4.7771a2.0679,2.0679,0,0,0-2.0682,0L10.5044,11.9717A2.0685,2.0685,0,0,0,9.47,13.7629v14.539a2.0682,2.0682,0,0,0,.8407,1.6645l18.0728,13.33a1.0342,1.0342,0,0,0,1.648-.8323V34.85a1.0343,1.0343,0,0,1,.5171-.8956l6.9468-4.0106A2.0683,2.0683,0,0,0,38.53,28.1522V13.7629A2.0685,2.0685,0,0,0,37.4956,11.9717Z"/><circle class="a" cx="31.3748" cy="21.5382" r="3.0932"/><circle class="a" cx="19.002" cy="15.3518" r="3.0932"/><circle class="a" cx="19.002" cy="27.7246" r="3.0932"/><line class="a" x1="21.7663" y1="26.3424" x2="26.0609" y2="24.1951"/><line class="a" x1="21.7663" y1="16.7339" x2="28.6097" y2="20.1557"/></svg>