<svg xmlns="http://www.w3.org/2000/svg" viewBox="0 0 48 48"><defs><style>.a{fill:none;stroke:#fff;stroke-linecap:round;stroke-linejoin:round;}</style></defs> <path class="a"            d="M13.77,6.79L34.45,6.79L34.45,41.68L13.77,41.68z"/> <path class="a"            d="M13.81,37.92L34.45,37.92"/> <path class="a"            d="M21.90,39.34L26.36,39.34A0.31 0.31 0 0 1 26.67,39.65L26.67,40.17A0.31 0.31 0 0 1 26.36,40.48L21.90,40.48A0.31 0.31 0 0 1 21.59,40.17L21.59,39.65A0.31 0.31 0 0 1 21.90,39.34z"/> <path class="a"            d="M39.45,15.22C40.09,15.22,40.61,15.73,40.61,16.36C40.61,16.99,40.09,17.50,39.45,17.50C38.81,17.50,38.29,16.99,38.29,16.36C38.29,15.73,38.81,15.22,39.45,15.22z"/> <path class="a"            d="M39.41,23.04C40.24,23.04,40.91,23.68,40.91,24.46C40.91,25.25,40.24,25.88,39.41,25.88C38.58,25.88,37.91,25.25,37.91,24.46C37.91,23.68,38.58,23.04,39.41,23.04z"/> <path class="a"            d="M37.09,20.97C37.49,20.97,37.81,21.31,37.81,21.73C37.81,22.15,37.49,22.49,37.09,22.49C36.69,22.49,36.37,22.15,36.37,21.73C36.37,21.31,36.69,20.97,37.09,20.97z"/> <path class="a"            d="M37.81,29.59C38.65,29.59,39.34,30.28,39.34,31.13C39.34,31.98,38.65,32.67,37.81,32.67C36.97,32.67,36.28,31.98,36.28,31.13C36.28,30.28,36.97,29.59,37.81,29.59z"/> <path class="a"            d="M8.53,17.25C9.29,17.25,9.91,17.88,9.91,18.66C9.91,19.44,9.29,20.06,8.53,20.06C7.76,20.06,7.14,19.44,7.14,18.66C7.14,17.88,7.76,17.25,8.53,17.25z"/> <path class="a"            d="M8.76,23.41C9.40,23.41,9.92,23.91,9.92,24.53C9.92,25.16,9.40,25.66,8.76,25.66C8.12,25.66,7.60,25.16,7.60,24.53C7.60,23.91,8.12,23.41,8.76,23.41z"/> <path class="a"            d="M10.11,28.75C10.70,28.75,11.19,29.23,11.19,29.83C11.19,30.42,10.70,30.90,10.11,30.90C9.51,30.90,9.03,30.42,9.03,29.83C9.03,29.23,9.51,28.75,10.11,28.75z"/> <path class="a"            d="M12.00,26.59C12.38,26.59,12.68,26.88,12.68,27.25C12.68,27.61,12.38,27.90,12.00,27.90C11.63,27.90,11.33,27.61,11.33,27.25C11.33,26.88,11.63,26.59,12.00,26.59z"/> <path class="a"            d="M26.11,25.64C27.00,25.64,27.72,26.35,27.72,27.22C27.72,28.08,27.00,28.79,26.11,28.79C25.22,28.79,24.50,28.08,24.50,27.22C24.50,26.35,25.22,25.64,26.11,25.64z"/> <path class="a"            d="M21.48,18.84C22.03,18.84,22.47,19.27,22.47,19.79C22.47,20.31,22.03,20.74,21.48,20.74C20.93,20.74,20.49,20.31,20.49,19.79C20.49,19.27,20.93,18.84,21.48,18.84z"/> <path class="a"            d="M22.75,25.34L26.77,23.47L27.99,23.96L29.06,23.04L30.24,24.15L29.30,25.00L29.69,26.22L31.00,26.17L31.00,28.02L29.56,28.05L29.20,28.92L30.27,29.99L29.04,31.20L28.07,30.24L26.82,30.63L26.85,32.31L25.27,32.33L25.18,30.83L24.15,30.16L23.16,31.30L21.84,29.91L22.74,29.15L22.42,28.10L21.06,27.98L21.06,26.26L22.39,26.26L22.75,25.34z"/> <path class="a"            d="M9.05,20.04L9.92,22.04L13.83,22.04"/> <path class="a"            d="M9.98,24.62L13.83,24.62"/> <path class="a"            d="M12.56,27.24L13.76,27.22"/> <path class="a"            d="M11.16,29.88L13.76,29.88"/> <path class="a"            d="M34.45,19.29L36.99,19.23L38.69,17.30"/> <path class="a"            d="M34.57,21.77L36.29,21.77"/> <path class="a"            d="M34.48,24.43L37.81,24.46"/> <path class="a"            d="M34.50,27.00L35.81,27.00L37.00,29.80"/> <path class="a"            d="M19.75,24.99C19.84,28.04,16.90,27.61,16.31,26.96L17.93,26.12L18.17,25.01L17.24,24.44L16.29,24.76L16.28,23.70C16.80,22.74,18.35,22.74,18.95,23.45L28.34,19.15C28.59,17.37,30.56,16.27,31.79,17.72L30.22,18.39L30.04,19.46L31.11,20.09L31.84,19.80L31.93,21.09C30.34,22.12,29.45,21.17,28.58,20.81L19.75,24.99z"/> <path class="a"            d="M22.44,19.78L23.87,19.85"/> <path class="a"            d="M22.35,19.05L23.31,18.22"/> <path class="a"            d="M21.62,17.49L21.60,18.83"/> <path class="a"            d="M19.99,18.21L20.78,19.06"/> <path class="a"            d="M19.33,19.86L20.52,19.85"/> <path class="a"            d="M20.02,21.44L20.86,20.57"/></svg>