<?xml version="1.0" encoding="UTF-8" standalone="no"?>
<svg
   viewBox="0 0 48 48"
   version="1.1"
   id="svg8"
   sodipodi:docname="diabetes_m.svg"
   inkscape:version="1.1 (1:1.1+202106031931+af4d65493e)"
   xmlns:inkscape="http://www.inkscape.org/namespaces/inkscape"
   xmlns:sodipodi="http://sodipodi.sourceforge.net/DTD/sodipodi-0.dtd"
   xmlns="http://www.w3.org/2000/svg"
   xmlns:svg="http://www.w3.org/2000/svg">
  <sodipodi:namedview
     id="namedview10"
     pagecolor="#ffffff"
     bordercolor="#666666"
     borderopacity="1.0"
     inkscape:pageshadow="2"
     inkscape:pageopacity="0.0"
     inkscape:pagecheckerboard="true"
     showgrid="false"
     inkscape:zoom="9.2563498"
     inkscape:cx="21.282687"
     inkscape:cy="16.259109"
     inkscape:window-width="1920"
     inkscape:window-height="1003"
     inkscape:window-x="0"
     inkscape:window-y="0"
     inkscape:window-maximized="1"
     inkscape:current-layer="svg8" />
  <defs
     id="defs4">
    <style
       id="style2">.a{fill:none;stroke:#fff;stroke-linecap:round;stroke-linejoin:round;}</style>
  </defs>
  <path
     id="circle6"
     style="fill:none;stroke:#ffffff;stroke-width:1;stroke-linecap:round;stroke-linejoin:round;stroke-miterlimit:4;stroke-dasharray:none;stroke-opacity:1"
     class="a"
     d="m 24,3.7304531 c 0,-2e-7 -14.2695312,18.3886809 -14.2695312,26.2695309 0,0.497936 0.026398,0.989822 0.076172,1.474609 a 2.0323007,2.0323007 0 0 1 1.4179682,-0.583984 2.0323007,2.0323007 0 0 1 2.033203,2.03125 2.0323007,2.0323007 0 0 1 -2.033203,2.033203 2.0323007,2.0323007 0 0 1 -0.65039,-0.113281 c 1.982995,5.497257 7.244936,9.427734 13.425781,9.427734 7.063854,0 12.926284,-5.13367 14.066406,-11.873047 a 2.0323007,2.0323007 0 0 1 -0.529297,0.07227 2.0323007,2.0323007 0 0 1 -2.03125,-2.033203 2.0323007,2.0323007 0 0 1 2.03125,-2.03125 2.0323007,2.0323007 0 0 1 0.583985,0.08398 C 36.621493,19.99733 24,3.7304531 24,3.7304531 Z" />
  <circle
     style="fill:none;stroke:#ffffff;stroke-width:1;stroke-linecap:round;stroke-linejoin:round;stroke-miterlimit:4;stroke-dasharray:none;stroke-opacity:1"
     id="circle1542"
     cx="16.650879"
     cy="26.42378"
     r="2.0323007" />
  <circle
     style="fill:none;stroke:#ffffff;stroke-width:1;stroke-linecap:round;stroke-linejoin:round;stroke-miterlimit:4;stroke-dasharray:none;stroke-opacity:1"
     id="circle1544"
     cx="21.49983"
     cy="32.293705"
     r="2.0323007" />
  <circle
     style="fill:none;stroke:#ffffff;stroke-width:1;stroke-linecap:round;stroke-linejoin:round;stroke-miterlimit:4;stroke-dasharray:none;stroke-opacity:1"
     id="circle1546"
     cx="27.845398"
     cy="20.099957"
     r="2.0323007" />
  <circle
     style="fill:none;stroke:#ffffff;stroke-width:1;stroke-linecap:round;stroke-linejoin:round;stroke-miterlimit:4;stroke-dasharray:none;stroke-opacity:1"
     id="circle1548"
     cx="31.486839"
     cy="33.90641"
     r="2.0323007" />
  <path
     style="fill:none;stroke:#ffffff;stroke-width:1px;stroke-linecap:round;stroke-linejoin:round;stroke-opacity:1"
     d="m 12.734648,31.556021 2.759435,-3.51983"
     id="path1585" />
  <path
     style="fill:none;stroke:#ffffff;stroke-width:1px;stroke-linecap:round;stroke-linejoin:round;stroke-opacity:1"
     d="m 18.091995,28.001211 2.218703,2.711369"
     id="path1587" />
  <path
     style="fill:none;stroke:#ffffff;stroke-width:1px;stroke-linecap:round;stroke-linejoin:round;stroke-opacity:1"
     d="m 22.649112,30.625854 4.338413,-8.675959"
     id="path1589" />
  <path
     style="fill:none;stroke:#ffffff;stroke-width:1px;stroke-linecap:round;stroke-linejoin:round;stroke-opacity:1"
     d="m 28.580907,22.131718 2.480224,9.719758"
     id="path1591" />
  <path
     style="fill:none;stroke:#ffffff;stroke-width:1px;stroke-linecap:round;stroke-linejoin:round;stroke-opacity:1"
     d="m 33.366575,32.881913 2.238572,-1.730228"
     id="path1593" />
</svg>
