<?xml version="1.0" encoding="UTF-8"?>
<svg version="1.1" viewBox="0 0 48 48" xmlns="http://www.w3.org/2000/svg">
 <defs>
  <style>.a{fill:none;stroke:#fff;stroke-linecap:round;stroke-linejoin:round;}</style>
 </defs>
 <path d="m15.919 33.519 3.9289 3.8797c0.72175 0.55528 1.0973 1.2821 1.061 2.2131l3.0675 3.0034v0.04716l0.02379-0.02359 0.02424 0.02359v-0.04716l3.067-3.0034c-0.03637-0.93108 0.33967-1.6579 1.0614-2.2131l9.2587-9.1428c0.36416-0.63642 1.4958-1.6058 2.5443-1.5511l3.2992-3.0269-3.2992-2.942c-1.0017-0.05741-1.9518-0.65279-2.5443-1.4995l-9.2587-9.1346c-0.58303-0.54023-0.78467-1.2946-1.0614-2.3663l-3.0911-2.9118-3.0914 2.9118c-0.27675 1.0716-0.47795 1.826-1.061 2.3663l-3.618 3.5695" fill="none" stroke="#fff"/>
 <path d="m13.835 16.034-3.2465 3.2029c-0.59246 0.84666-1.5426 1.442-2.5443 1.4995l-3.2992 2.942 3.2992 3.0269c1.0485-0.05475 2.1801 0.91466 2.5443 1.5511l3.1743 3.1346" fill="none" stroke="#fff"/>
 <path d="m20.438 11.196 1.652 1.4001 0.0039 1.074h4.3019l0.0039-1.074 1.652-1.4001zm2.8061 5.2764c-0.38488 0.0011-0.76827 0.0069-1.1424 0.01172l0.01758 5.9598-1.3728 1.2322 1.3904 1.2576 0.06473 6.5875c1.7455 0.06267 2.598 0.10599 4.1058-0.59858l0.04546-5.9889 1.3904-1.2576-1.3747-1.2322 0.01758-5.5302c-0.30718-0.15595-1.6845-0.44542-3.142-0.44133zm-1.0584 17.05 0.0059 0.94514-1.695 1.5271h7.4967l-1.695-1.5271 0.0059-0.94514z" fill="none" stroke="#fff"/>
 <path d="m25.915 13.668c-5.7421 0-14.5 0.0098-14.5 0.0098 0.93748 0.92942 1.8897 1.8668 2.8337 2.8027l-0.14586 15.024-2.8051 2.016s10.827 8.88e-4 15.253 8.88e-4c5.1445 0 10.164-5.5675 7.22-13.523l3.4209 2.5914s-0.64876-1.3219-1.0497-1.9382c-2.1742-3.3413-6.2998-6.9834-10.226-6.9834zm-7.3535 2.8125s3.9456 0.01291 5.7204 0.01291c2.0185 0 3.7731 1.1779 4.7855 2.5446 1.7217 2.3242 1.9062 7.2816 0.02604 9.8608-1.0444 1.4326-3.7349 2.6273-5.0127 2.6273-1.8398 0-5.5194-0.02581-5.5194-0.02581z" fill="none" stroke="#fff"/>
</svg>
