<svg width="48" height="49" viewBox="0 0 48 49" fill="none" xmlns="http://www.w3.org/2000/svg">
<path d="M24.036 42.9813V23.4554M24.036 42.9813L7.29879 34.719C7.23053 34.6853 7.18732 34.6158 7.18732 34.5396V14.9767M24.036 42.9813L40.7015 34.7191C40.7696 34.6853 40.8127 34.6159 40.8127 34.5399V14.9767M24.036 23.4554L7.18732 14.9767M24.036 23.4554L40.8127 14.9767M7.18732 14.9767L23.9463 6.59126C24.0028 6.56302 24.0692 6.56308 24.1256 6.59141L40.8127 14.9767M35.4908 23.2299L37.9437 22.057C38.0132 22.0238 38.0574 21.9536 38.0574 21.8766V19.4936C38.0574 19.3434 37.898 19.2468 37.7648 19.3164L35.3119 20.5983C35.2459 20.6328 35.2045 20.7011 35.2045 20.7756V23.0494C35.2045 23.1966 35.358 23.2933 35.4908 23.2299ZM33.5108 26.2855L31.1014 27.5256C31.0348 27.5599 30.9929 27.6285 30.9929 27.7034V30.0445C30.9929 30.1936 31.1503 30.2903 31.2834 30.2228L33.6928 29.0004C33.76 28.9663 33.8023 28.8974 33.8023 28.822V26.4633C33.8023 26.3136 33.6439 26.217 33.5108 26.2855ZM29.5253 37.2956V34.9896C29.5253 34.8404 29.3679 34.7438 29.2348 34.8112L26.8909 35.9999C26.8237 36.034 26.7814 36.1029 26.7814 36.1783V38.4771C26.7814 38.6261 26.9384 38.7227 27.0714 38.6557L29.4153 37.4742C29.4827 37.4402 29.5253 37.3711 29.5253 37.2956ZM18.4546 37.2952V34.8723C18.4546 34.7202 18.6177 34.6238 18.751 34.6971L21.1172 35.9985C21.1811 36.0336 21.2208 36.1008 21.2208 36.1737V38.4783C21.2208 38.6269 21.0643 38.7236 20.9313 38.6572L18.5652 37.4741C18.4974 37.4402 18.4546 37.3709 18.4546 37.2952ZM10.3217 19.3184L12.745 20.5981C12.8106 20.6327 12.8516 20.7008 12.8516 20.775V23.048C12.8516 23.1955 12.6974 23.2922 12.5646 23.2281L10.1413 22.0572C10.0722 22.0239 10.0283 21.9539 10.0283 21.8772V19.4952C10.0283 19.3446 10.1885 19.248 10.3217 19.3184ZM24.0508 16.3291L26.3714 15.1518C26.5179 15.0775 26.5173 14.868 26.3704 14.7945L24.0498 13.6342C23.9927 13.6057 23.9255 13.6061 23.8687 13.6353L21.6164 14.7956C21.4724 14.8698 21.4717 15.0756 21.6154 15.1507L23.8677 16.328C23.925 16.358 23.9932 16.3584 24.0508 16.3291Z" stroke="white" stroke-linecap="round"/>
</svg>
