<svg xmlns="http://www.w3.org/2000/svg" viewBox="0 0 48 48"><defs><style>.a{fill:none;stroke:#fff;stroke-linecap:round;stroke-linejoin:round;}</style></defs><polyline class="a" points="22.96 28 20.36 20 17.66 28"/><line class="a" x1="18.5604" y1="25.3" x2="22.0604" y2="25.3"/><polyline class="a" points="29.37 20 34.67 20 29.37 28 34.67 28"/><line class="a" x1="24.165" y1="24" x2="28.165" y2="24"/><path class="a" d="M8.4,6.5v35a2,2,0,0,0,2,2h2.33V4.5H10.4A2,2,0,0,0,8.4,6.5Z"/><path class="a" d="M12.73,4.5v39H37.6a2,2,0,0,0,2-2V6.5a2,2,0,0,0-2-2Z"/></svg>