<?xml version="1.0" encoding="UTF-8"?>
<svg id="a" version="1.1" viewBox="0 0 48 48" xml:space="preserve" xmlns="http://www.w3.org/2000/svg"><defs><style>.b{fill:none;stroke:#000;stroke-linecap:round;stroke-linejoin:round;}</style><style>.a{fill:none;stroke:#fff;stroke-linecap:round;stroke-linejoin:round;}</style><style>.a{fill:none;stroke:#fff;stroke-linecap:round;stroke-linejoin:round;}</style></defs><path d="m8.2591 9.8794a3.3035 3.3035 0 0 1 3.3035 3.3035v0a3.3035 3.3035 0 0 1-3.3035 3.3035" fill="none" stroke="#fff" stroke-linecap="round" stroke-linejoin="round"/><path d="m13.675 16.486v-4.1761" fill="none" stroke="#fff" stroke-linecap="round" stroke-linejoin="round"/><circle cx="17.772" cy="14.398" r="2.088" fill="none" stroke="#fff" stroke-linecap="round" stroke-linejoin="round"/><circle cx="13.675" cy="10.495" r=".47918" fill="#fff" fill-rule="evenodd" stroke="#fff" stroke-linecap="round" stroke-linejoin="round" stroke-width=".5"/><circle cx="17.723" cy="19.332" r="1.5865" fill="none" stroke="#fff" stroke-linecap="round" stroke-linejoin="round"/><path d="m21.812 16.486v-4.1761" fill="none" stroke="#fff" stroke-linecap="round" stroke-linejoin="round"/><circle cx="21.812" cy="10.495" r=".47918" fill="#fff" fill-rule="evenodd" stroke="#fff" stroke-linecap="round" stroke-linejoin="round" stroke-width=".5"/><path d="m24.121 16.486v-5.6246" fill="none" stroke="#fff" stroke-linecap="round" stroke-linejoin="round"/><path d="m24.121 12.31h1.234" fill="none" stroke="#fff" stroke-linecap="round" stroke-linejoin="round"/><path d="m31.166 12.31v2.088c0 1.1532-0.93485 2.088-2.088 2.088-1.1532 0-2.088-0.93485-2.088-2.088v-2.088" fill="none" stroke="#fff" stroke-linecap="round" stroke-linejoin="round"/><path d="m35.207 12.31c-1.1532 0-2.088 0.93485-2.088 2.088v2.088" fill="none" stroke="#fff" stroke-linecap="round" stroke-linejoin="round"/><path d="m36.747 16.486v-6.607" fill="none" stroke="#fff" stroke-linecap="round" stroke-linejoin="round"/><path d="m37.222 14.398 2.5189-2.088" fill="none" stroke="#fff" stroke-linecap="round" stroke-linejoin="round"/><path d="m37.222 14.398 2.5189 2.088" fill="none" stroke="#fff" stroke-linecap="round" stroke-linejoin="round"/><path class="a" d="m40.5 5.5h-33a2 2 0 0 0-2 2v33a2 2 0 0 0 2 2h33a2 2 0 0 0 2-2v-33a2 2 0 0 0-2-2z"/><g transform="matrix(.070293 0 0 -.070293 14.027 39.835)" fill="none" stroke="#fff" stroke-linecap="round" stroke-linejoin="round"><g transform="matrix(-.83699 0 0 -.83699 205.61 268.18)" stroke-width="16.997">
	<g fill="none" stroke="#fff" stroke-linecap="round" stroke-linejoin="round" stroke-width="16.997">
		<g fill="none" stroke="#fff" stroke-linecap="round" stroke-linejoin="round">
			<path d="m59.314 88.013c0.804 0.804 1.858 1.206 2.911 1.206s2.107-0.402 2.911-1.206l34.936-34.936c1.608-1.608 1.608-4.214 0-5.822l-58.227-58.228c-1.608-1.608-4.214-1.608-5.822 0l-34.936 34.937c-1.608 1.608-1.608 4.214 0 5.822z" stroke-width="16.997"/>
			<path d="m250.37 197.55-58.227-58.227c-1.608-1.608-4.214-1.608-5.822 0l-34.937 34.937c-0.772 0.772-1.206 1.819-1.206 2.911s0.434 2.139 1.206 2.911l58.229 58.227c0.772 0.772 1.819 1.206 2.911 1.206s2.139-0.434 2.911-1.206l34.934-34.937c1.61-1.608 1.61-4.214 1e-3 -5.822z" stroke-width="16.997"/>
			<path d="m149.68 126.81 40.761-40.761c11.236-11.232 11.236-29.517-2e-3 -40.755-5.436-5.436-12.669-8.436-20.37-8.436h-0.016c-7.7 0-14.933 2.994-20.37 8.432l-40.762 40.764z" stroke-width="16.997"/>
			<path d="m109.34 167.15 19.694-19.694-40.759-40.759-19.694 19.694 20.38 20.38z" stroke-width="16.997"/>
			<path d="m85.757 203.5c-29.515 0-53.525-24.01-53.525-53.525" stroke-width="16.997"/>
			<path d="m86.464 227.5c-43.135 0-78.229-35.093-78.229-78.229" stroke-width="16.997"/><path transform="matrix(14.226 0 0 -14.226 -199.55 566.69)" d="m20.28 29.518-1.4067-1.4067" stroke-width="1.1948"/>
		</g>
	</g>
</g><path d="m232.74 72.602-20.687 20.687m58.545 11.293c7.0299-9.0467 10.487-21.839 9.0467-33.421-3.122-25.323-23.479-42.85-45.522-45.522-11.352-1.3253-23.913 1.9015-32.441 8.4128-4.6674 3.515-7.2028 0.34573 31.058 38.549 27.832 27.889 33.997 33.824 35.092 33.824 0.97951 0 1.7286-0.57622 2.7658-1.8439zm-9.3174-67.118 24.299-44.842c0.24713-0.45596-0.4609-1.4406-0.97951-1.9592-0.9796-0.97957-1.6135-0.97957-27.947-0.97957h-27.025l-1.2101 1.2101c-0.69148 0.63384-1.3843 1.4877-1.2101 1.7863l21.534 36.913" stroke-width="14.226"/></g></svg>
