<?xml version="1.0" encoding="UTF-8" standalone="no"?>
<!-- Created with Inkscape (http://www.inkscape.org/) -->

<svg
   width="48"
   height="48"
   viewBox="0 0 48 48"
   version="1.1"
   id="svg5"
   inkscape:version="1.1.1 (3bf5ae0d25, 2021-09-20)"
   sodipodi:docname="ditmm.svg"
   xmlns:inkscape="http://www.inkscape.org/namespaces/inkscape"
   xmlns:sodipodi="http://sodipodi.sourceforge.net/DTD/sodipodi-0.dtd"
   xmlns="http://www.w3.org/2000/svg"
   xmlns:svg="http://www.w3.org/2000/svg">
  <sodipodi:namedview
     id="namedview7"
     pagecolor="#505050"
     bordercolor="#eeeeee"
     borderopacity="1"
     inkscape:pageshadow="0"
     inkscape:pageopacity="0"
     inkscape:pagecheckerboard="0"
     inkscape:document-units="px"
     showgrid="false"
     units="px"
     inkscape:snap-midpoints="true"
     inkscape:zoom="8"
     inkscape:cx="9.0625"
     inkscape:cy="39.9375"
     inkscape:window-width="1914"
     inkscape:window-height="1055"
     inkscape:window-x="0"
     inkscape:window-y="19"
     inkscape:window-maximized="1"
     inkscape:current-layer="layer1" />
  <defs
     id="defs2">
	

	
	
	
	
	
	
	
	
	
	
	
	
	
	
	
	
	
	
	
	
	
	
	
	
	
	
	
	
	
	
	
	
	
	
	
	
	
	
	
	
	
	
	
	
	
	
	
	
	
	
	
	
	
	
	
	
	
	
	
	
	
	
	
	
	
	
	
	
	
	
	
	
	
	
	
	
	
	
	
	
	
	
	
	
	
	
	
	
	
	
	
	
	
	
	
	
	
	
	
	
	
	
	
	
	
	
	
	
	
	
	
	
	
	
	
	
	
	
	
	
	
	
	
	
	
	
	
	
	
</defs>
  <g
     inkscape:label="Layer 1"
     inkscape:groupmode="layer"
     id="layer1">
    <path
       class="st0"
       d="M -55.99846,-273.50775"
       id="path1522" />
    <path
       class="st0"
       d="M -55.99846,-275.60775"
       id="path1524" />
    <path
       class="st0"
       d="M -45.99846,-273.50775"
       id="path1526" />
    <path
       class="st0"
       d="M -45.99846,-275.60775"
       id="path1528" />
    <path
       class="st0"
       d="M -35.99846,-273.50775"
       id="path1530" />
    <path
       class="st0"
       d="M -35.99846,-275.60775"
       id="path1532" />
    <path
       class="st0"
       d="M -25.99846,-273.50775"
       id="path1534" />
    <path
       class="st0"
       d="M -25.99846,-275.60775"
       id="path1536" />
    <path
       class="st0"
       d="M -15.99846,-273.50775"
       id="path1538" />
    <path
       class="st0"
       d="M -15.99846,-275.60775"
       id="path1540" />
    <path
       class="st0"
       d="M -5.99846,-273.50775"
       id="path1542" />
    <path
       class="st0"
       d="M -5.99846,-275.60775"
       id="path1544" />
    <path
       class="st0"
       d="M 44.00154,-273.50775"
       id="path1546" />
    <path
       class="st0"
       d="M 4.00154,-273.50775"
       id="path1548" />
    <path
       class="st0"
       d="M 4.00154,-275.60775"
       id="path1550" />
    <g
       id="g1554"
       transform="translate(-117.59846,-328.10775)">
		<polyline
   class="st0"
   points="169.2,93 169.2,101 173.2,101   "
   id="polyline1552" />

	</g>
    <g
       id="g1562"
       transform="translate(-117.59846,-328.10775)">
		<line
   class="st0"
   x1="140"
   y1="101"
   x2="142.39999"
   y2="101"
   id="line1556" />

		<line
   class="st0"
   x1="140"
   y1="93"
   x2="142.39999"
   y2="93"
   id="line1558" />

		<line
   class="st0"
   x1="141.2"
   y1="93"
   x2="141.2"
   y2="101"
   id="line1560" />

	</g>
    <g
       id="g1566"
       transform="translate(-117.59846,-328.10775)">
		<line
   class="st0"
   x1="141.2"
   y1="106.5"
   x2="141.2"
   y2="114.5"
   id="line1564" />

	</g>
    <g
       id="g1570"
       transform="translate(-117.59846,-328.10775)">
		<path
   class="st0"
   d="m 149.2,93 h 4 v 6 c 0,1.1 -0.9,2 -2,2 v 0 c -1.1,0 -2,-0.9 -2,-2 v -0.7"
   id="path1568" />

	</g>
    <g
       id="g1574"
       transform="translate(-117.59846,-328.10775)">
		<path
   class="st0"
   d="m 153.2,106.5 v 6 c 0,1.1 -0.9,2 -2,2 v 0 c -1.1,0 -2,-0.9 -2,-2 v -0.7"
   id="path1572" />

	</g>
    <g
       id="g1582"
       transform="translate(-117.59846,-328.10775)">
		<line
   class="st0"
   x1="69.199997"
   y1="84.599998"
   x2="73.199997"
   y2="84.599998"
   id="line1576" />

		<line
   class="st0"
   x1="69.199997"
   y1="77.699997"
   x2="71.199997"
   y2="76.599998"
   id="line1578" />

		<line
   class="st0"
   x1="71.199997"
   y1="76.599998"
   x2="71.199997"
   y2="84.599998"
   id="line1580" />

	</g>
    <g
       id="g1592"
       transform="translate(-117.59846,-328.10775)">
		<line
   class="st0"
   x1="99.199997"
   y1="101"
   x2="103.2"
   y2="101"
   id="line1584" />

		<line
   class="st0"
   x1="99.199997"
   y1="93"
   x2="103.2"
   y2="93"
   id="line1586" />

		<line
   class="st0"
   x1="99.199997"
   y1="97"
   x2="101.8"
   y2="97"
   id="line1588" />

		<line
   class="st0"
   x1="99.199997"
   y1="93"
   x2="99.199997"
   y2="101"
   id="line1590" />

	</g>
    <g
       id="g1598"
       transform="translate(-117.59846,-328.10775)">
		<path
   class="st0"
   d="m 123.9,95.7 c 0,-1.5 -1.3,-2.8 -2.8,-2.7 -1.4,0.1 -2.5,1.4 -2.5,2.8 v 2.5 c 0,1.5 1.2,2.7 2.7,2.7 v 0 c 1.5,0 2.7,-1.2 2.7,-2.7 h -2.7"
   id="path1594" />

		<path
   class="st0"
   d="M 123.9,95.7"
   id="path1596" />

	</g>
    <g
       id="g1604"
       transform="translate(-117.59846,-328.10775)">
		<line
   class="st0"
   x1="227.8"
   y1="101"
   x2="225.2"
   y2="98.400002"
   id="line1600" />

		<path
   class="st0"
   d="m 222.5,98.3 c 0,1.5 1.2,2.7 2.6,2.7 1.5,0 2.7,-1.2 2.7,-2.7 v -2.7 c 0,-1.5 -1.2,-2.7 -2.7,-2.7 -1.5,0 -2.6,1.2 -2.6,2.7 z"
   id="path1602" />

	</g>
    <polyline
       class="st0"
       points="179.2,101 179.2,93 183.2,101 187.2,93 187.2,101  "
       id="polyline1606"
       transform="translate(-117.59846,-328.10775)" />
    <line
       class="st0"
       x1="178.90154"
       y1="-235.10776"
       x2="184.20152"
       y2="-227.10776"
       id="line1608" />
    <line
       class="st0"
       x1="184.20152"
       y1="-235.10776"
       x2="178.90154"
       y2="-227.10776"
       id="line1610" />
    <path
       class="st0"
       d="m -29.09846,-227.10775 v -8 h 1.3 c 2.2,0 4,1.8 4,4 v 0 c 0,2.2 -1.8,4 -4,4 z"
       id="path1612" />
    <g
       id="g1622"
       transform="translate(-117.59846,-328.10775)">
		<path
   class="st0"
   d="M 109.2,101"
   id="path1614" />

		<line
   class="st0"
   x1="109.2"
   y1="93"
   x2="113.2"
   y2="93"
   id="line1616" />

		<line
   class="st0"
   x1="109.2"
   y1="97"
   x2="111.8"
   y2="97"
   id="line1618" />

		<line
   class="st0"
   x1="109.2"
   y1="93"
   x2="109.2"
   y2="101"
   id="line1620" />

	</g>
    <g
       id="g1626"
       transform="translate(-117.59846,-328.10775)">
		<path
   class="st0"
   d="m 212.5,101 v -8 h 2.6 c 1.5,0 2.7,1.2 2.7,2.7 0,1.5 -1.2,2.7 -2.7,2.7 h -2.6"
   id="path1624" />

	</g>
    <g
       id="g1630"
       transform="translate(-117.59846,-328.10775)">
		<path
   class="st0"
   d="m 232.5,101 v -8 h 2.6 c 1.5,0 2.7,1.2 2.7,2.7 0,1.5 -1.2,2.7 -2.7,2.7 h -2.6"
   id="path1628" />

	</g>
    <g
       id="g1636"
       transform="translate(-117.59846,-328.10775)">
		<g
   id="g1634">
			<line
   class="st0"
   x1="235.2"
   y1="98.300003"
   x2="237.8"
   y2="101"
   id="line1632" />

		</g>

	</g>
    <g
       id="g1642"
       transform="translate(-117.59846,-328.10775)">
		<line
   class="st0"
   x1="252.5"
   y1="93"
   x2="257.79999"
   y2="93"
   id="line1638" />

		<line
   class="st0"
   x1="255.2"
   y1="101"
   x2="255.2"
   y2="93"
   id="line1640" />

	</g>
    <g
       id="g1646"
       transform="translate(-117.59846,-328.10775)">
		<polyline
   class="st0"
   points="192.5,101 192.5,93 197.8,101 197.8,93   "
   id="polyline1644" />

	</g>
    <g
       id="g1654"
       transform="translate(-117.59846,-328.10775)">
		<line
   class="st0"
   x1="159"
   y1="93"
   x2="159"
   y2="101"
   id="line1648" />

		<polyline
   class="st0"
   points="163.3,101 160,97 163.3,93   "
   id="polyline1650" />

		<line
   class="st0"
   x1="160"
   y1="97"
   x2="159"
   y2="97"
   id="line1652" />

	</g>
    <g
       id="g1662"
       transform="translate(-117.59846,-328.10775)">
		<line
   class="st0"
   x1="128.5"
   y1="93"
   x2="128.5"
   y2="101"
   id="line1656" />

		<line
   class="st0"
   x1="133.8"
   y1="93"
   x2="133.8"
   y2="101"
   id="line1658" />

		<line
   class="st0"
   x1="128.5"
   y1="97"
   x2="133.8"
   y2="97"
   id="line1660" />

	</g>
    <g
       id="g1666"
       transform="translate(-117.59846,-328.10775)">
		<line
   class="st0"
   x1="62.900002"
   y1="98.300003"
   x2="59.5"
   y2="98.300003"
   id="line1664" />

	</g>
    <g
       id="g1672"
       transform="translate(-117.59846,-328.10775)">
		<polyline
   class="st0"
   points="63.8,101 61.2,93 58.5,101   "
   id="polyline1668" />

		<line
   class="st0"
   x1="59.400002"
   y1="98.300003"
   x2="62.900002"
   y2="98.300003"
   id="line1670" />

	</g>
    <g
       id="g1676"
       transform="translate(-117.59846,-328.10775)">
		<polyline
   class="st0"
   points="277.8,93 275.2,101 272.5,93   "
   id="polyline1674" />

	</g>
    <g
       id="g1680"
       transform="translate(-117.59846,-328.10775)">
		<polyline
   class="st0"
   points="277.2,121.2 275.2,126.5 273.2,121.2   "
   id="polyline1678" />

	</g>
    <g
       id="g1684"
       transform="translate(-117.59846,-328.10775)">
		<polyline
   class="st0"
   points="290.5,121.2 288.8,126.5 287.2,121.2 285.5,126.5 283.9,121.2   "
   id="polyline1682" />

	</g>
    <g
       id="g1690"
       transform="translate(-117.59846,-328.10775)">
		<g
   id="g1688">
			<polyline
   class="st0"
   points="291.2,93 289.2,101 287.2,93 285.2,101 283.2,93    "
   id="polyline1686" />

		</g>

	</g>
    <g
       id="g1696"
       transform="translate(-117.59846,-328.10775)">
		<path
   class="st0"
   d="m 123.6,121.2 v 6 c 0,1.1 -0.9,2 -2,2 v 0 c -0.6,0 -1.1,-0.2 -1.4,-0.6"
   id="path1692" />

		<path
   class="st0"
   d="m 121.6,121.2 v 0 c 1.1,0 2,0.9 2,2 v 1.3 c 0,1.1 -0.9,2 -2,2 v 0 c -1.1,0 -2,-0.9 -2,-2 v -1.3 c 0,-1.1 0.9,-2 2,-2 z"
   id="path1694" />

	</g>
    <g
       id="g1702"
       transform="translate(-117.59846,-328.10775)">
		<path
   class="st0"
   d="m 311.2,124.5 v 2.7 c 0,1.1 -0.9,2 -2,2 v 0 c -0.6,0 -1.1,-0.2 -1.4,-0.6"
   id="path1698" />

		<path
   class="st0"
   d="m 311.2,121.2 v 3.3 c 0,1.1 -0.9,2 -2,2 v 0 c -1.1,0 -2,-0.9 -2,-2 v -3.3"
   id="path1700" />

	</g>
    <g
       id="g1708"
       transform="translate(-117.59846,-328.10775)">
		<line
   class="st0"
   x1="301.20001"
   y1="121.2"
   x2="297.20001"
   y2="126.5"
   id="line1704" />

		<line
   class="st0"
   x1="301.20001"
   y1="126.5"
   x2="297.20001"
   y2="121.2"
   id="line1706" />

	</g>
    <path
       class="st0"
       d="m 87.60154,-201.60775 v 0 c -1.1,0 -2,-0.9 -2,-2 v -1.3 c 0,-1.1 0.9,-2 2,-2 v 0 c 1.1,0 2,0.9 2,2 v 1.3 c 0,1.1 -0.9,2 -2,2 z"
       id="path1710" />
    <g
       id="g1716"
       transform="translate(-117.59846,-328.10775)">
		<path
   class="st0"
   d="m 263.2,121.2 v 3.3 c 0,1.1 0.9,2 2,2 v 0 c 1.1,0 2,-0.9 2,-2 v -3.3"
   id="path1712" />

		<line
   class="st0"
   x1="267.20001"
   y1="124.5"
   x2="267.20001"
   y2="126.5"
   id="line1714" />

	</g>
    <g
       id="g1728"
       transform="translate(-117.59846,-328.10775)">
		<g
   id="g1722">
			<path
   class="st0"
   d="m 179.5,123.3 c 0,-1.1 0.9,-2 2,-2 v 0 c 1.1,0 2,0.9 2,2 v 3.2"
   id="path1718" />

			<line
   class="st0"
   x1="179.5"
   y1="121.3"
   x2="179.5"
   y2="126.5"
   id="line1720" />

		</g>

		<g
   id="g1726">
			<path
   class="st0"
   d="m 183.5,123.3 c 0,-1.1 0.9,-2 2,-2 v 0 c 1.1,0 2,0.9 2,2 v 3.2"
   id="path1724" />

		</g>

	</g>
    <g
       id="g1734"
       transform="translate(-117.59846,-328.10775)">
		<line
   class="st0"
   x1="129.2"
   y1="118.5"
   x2="129.2"
   y2="126.5"
   id="line1730" />

		<path
   class="st0"
   d="m 129.2,123.2 c 0,-1.1 0.9,-2 2,-2 v 0 c 1.1,0 2,0.9 2,2 v 3.3"
   id="path1732" />

	</g>
    <g
       id="g1740"
       transform="translate(-117.59846,-328.10775)">
		<path
   class="st0"
   d="m 234.3,123.2 c 0,-1.1 0.9,-2 2,-2 v 0"
   id="path1736" />

		<line
   class="st0"
   x1="234.3"
   y1="121.2"
   x2="234.3"
   y2="126.5"
   id="line1738" />

	</g>
    <g
       id="g1746"
       transform="translate(-117.59846,-328.10775)">
		<polyline
   class="st0"
   points="311.8,93 309.2,97 306.5,93   "
   id="polyline1742" />

		<line
   class="st0"
   x1="309.20001"
   y1="101"
   x2="309.20001"
   y2="97"
   id="line1744" />

	</g>
    <polyline
       class="st0"
       points="316.5,93 321.8,93 316.5,101 321.8,101  "
       id="polyline1748"
       transform="translate(-117.59846,-328.10775)" />
    <polyline
       class="st0"
       points="317.2,121.2 321.2,121.2 317.2,126.5 321.2,126.5  "
       id="polyline1750"
       transform="translate(-117.59846,-328.10775)" />
    <g
       id="g1758"
       transform="translate(-117.59846,-328.10775)">
		<line
   class="st0"
   x1="159.2"
   y1="118.5"
   x2="159.2"
   y2="126.5"
   id="line1752" />

		<line
   class="st0"
   x1="159.2"
   y1="124.8"
   x2="162.8"
   y2="121.2"
   id="line1754" />

		<line
   class="st0"
   x1="160.3"
   y1="123.7"
   x2="163.2"
   y2="126.5"
   id="line1756" />

	</g>
    <g
       id="g1764"
       transform="translate(-117.59846,-328.10775)">
		<circle
   class="st1"
   cx="141.2"
   cy="118.8"
   r="0.80000001"
   id="circle1760" />

		<line
   class="st0"
   x1="141.2"
   y1="121.2"
   x2="141.2"
   y2="126.5"
   id="line1762" />

	</g>
    <g
       id="g1772"
       transform="translate(-117.59846,-328.10775)">
		<path
   class="st0"
   d="m 64.2,66.9 c -0.5,0.6 -1.2,1 -2.1,1 v 0 c -1.5,0 -2.7,-1.2 -2.7,-2.7 v -2.6 c 0,-1.5 1.2,-2.7 2.7,-2.7 v 0 c 0.8,0 1.6,0.4 2.1,1"
   id="path1766" />

		<line
   class="st0"
   x1="58.200001"
   y1="62.799999"
   x2="61.599998"
   y2="62.799999"
   id="line1768" />

		<line
   class="st0"
   x1="58.200001"
   y1="64.800003"
   x2="61.599998"
   y2="64.800003"
   id="line1770" />

	</g>
    <g
       id="g1776"
       transform="translate(-117.59846,-328.10775)">
		<path
   class="st0"
   d="m 242.7,100.1 c 0.5,0.6 1.1,0.9 2,0.9 h 1.2 c 1.1,0 2,-0.9 2,-2 v 0 c 0,-1.1 -0.9,-2 -2,-2 h -1.3 c -1.1,0 -2,-0.9 -2,-2 v 0 c 0,-1.1 0.9,-2 2,-2 h 1.2 c 0.9,0 1.5,0.2 2,0.9"
   id="path1774" />

	</g>
    <g
       id="g1780"
       transform="translate(-117.59846,-328.10775)">
		<path
   class="st0"
   d="m 78.9,67 c 0.5,0.6 1.1,0.9 2,0.9 h 1.2 c 1.1,0 2,-0.9 2,-2 v 0 c 0,-1.1 -0.9,-2 -2,-2 h -1.3 c -1.1,0 -2,-0.9 -2,-2 v 0 c 0,-1.1 0.9,-2 2,-2 H 82 c 0.9,0 1.5,0.2 2,0.9"
   id="path1778" />

	</g>
    <g
       id="g1784"
       transform="translate(-117.59846,-328.10775)">
		<path
   class="st0"
   d="m 243.5,126 c 0.4,0.3 0.8,0.4 1.6,0.4 h 0.4 c 0.7,0 1.3,-0.6 1.3,-1.3 v 0 c 0,-0.7 -0.6,-1.3 -1.3,-1.3 h -0.9 c -0.7,0 -1.3,-0.6 -1.3,-1.3 v 0 c 0,-0.7 0.6,-1.3 1.3,-1.3 h 0.4 c 0.9,0 1.3,0.1 1.6,0.4"
   id="path1782" />

	</g>
    <g
       id="g1788"
       transform="translate(-117.59846,-328.10775)">
		<path
   class="st0"
   d="m 61,54.6 c 0.3,-0.4 0.4,-0.8 0.4,-1.6 v -0.5"
   id="path1786" />

	</g>
    <g
       id="g1798"
       transform="translate(-117.59846,-328.10775)">
		<g
   id="g1792">
			<path
   class="st0"
   d="m 91.6,84.6 c 1.1,0 2,-0.9 2,-2 v 0 c 0,-1.1 -0.9,-2 -2,-2 h -2 2 c 1.1,0 2,-0.9 2,-2 v 0 c 0,-1.1 -0.9,-2 -2,-2"
   id="path1790" />

		</g>

		<path
   class="st0"
   d="m 88.3,84 c 0.6,0.5 1.1,0.7 2.5,0.7 h 0.8"
   id="path1794" />

		<path
   class="st0"
   d="m 88.3,77.3 c 0.6,-0.5 1.2,-0.7 2.5,-0.7 h 0.8"
   id="path1796" />

	</g>
    <g
       id="g1804"
       transform="translate(-117.59846,-328.10775)">
		<g
   id="g1802">
			<path
   class="st0"
   d="m 141.8,80.6 c 1.1,0 2,-0.9 2,-2 v 0 c 0,-1.1 -0.9,-2 -2,-2 h -1.3 c -1.1,0 -2,0.9 -2,2 v 0 c 0,1.1 0.9,2 2,2 h 1.3 -1.3 c -1.1,0 -2,0.9 -2,2 v 0 c 0,1.1 0.9,2 2,2 h 1.3 c 1.1,0 2,-0.9 2,-2 v 0 c 0,-1.1 -0.9,-2 -2,-2"
   id="path1800" />

		</g>

	</g>
    <g
       id="g1808"
       transform="translate(-117.59846,-328.10775)">
		<polyline
   class="st0"
   points="102.8,84.6 102.8,76.6 98.5,82 103.8,82   "
   id="polyline1806" />

	</g>
    <polyline
       class="st2"
       points="129.2,84.6 133.5,76.6 128.2,76.6  "
       id="polyline1810"
       transform="translate(-117.59846,-328.10775)" />
    <path
       class="st0"
       d="m -9.09846,-244.10775 c 0.6,0.5 1.1,0.7 2.4,0.7 h 0.3 c 1.4,0 2.6,-1.2 2.6,-2.6 v 0 c 0,-1.4 -1.2,-2.6 -2.6,-2.6 h -2.7 v -2.8 h 5.3"
       id="path1812" />
    <g
       id="g1826"
       transform="translate(-117.59846,-328.10775)">
		<g
   id="g1816">
			<path
   class="st0"
   d="m 92,156.5 v -6.6 c 0,-0.8 0.6,-1.4 1.4,-1.4 v 0 c 0.7,0 1.1,0.2 1.4,0.6"
   id="path1814" />

		</g>

		<line
   class="st0"
   x1="88.099998"
   y1="151.2"
   x2="93.699997"
   y2="151.2"
   id="line1818" />

		<g
   id="g1824">
			<g
   id="g1822">
				<path
   class="st0"
   d="m 89.2,156.5 v -6.6 c 0,-0.8 0.6,-1.4 1.4,-1.4 v 0 c 0.2,0 0.3,0 0.5,0"
   id="path1820" />

			</g>

		</g>

	</g>
    <g
       id="g1834"
       transform="translate(-117.59846,-328.10775)">
		<g
   id="g1830">
			<path
   class="st0"
   d="m 110.5,140.5 v -7.2 c 0,-0.4 0.4,-0.8 0.8,-0.8 h 0.9"
   id="path1828" />

		</g>

		<line
   class="st0"
   x1="109.4"
   y1="135.2"
   x2="112.2"
   y2="135.2"
   id="line1832" />

	</g>
    <g
       id="g1842"
       transform="translate(-117.59846,-328.10775)">
		<g
   id="g1838">
			<line
   class="st0"
   x1="255.2"
   y1="119.5"
   x2="255.2"
   y2="126.5"
   id="line1836" />

		</g>

		<line
   class="st0"
   x1="254.10001"
   y1="121.2"
   x2="256.20001"
   y2="121.2"
   id="line1840" />

	</g>
    <g
       id="g1850"
       transform="translate(-117.59846,-328.10775)">
		<g
   id="g1846">
			<path
   class="st0"
   d="m 152.7,121.2 v 6 c 0,1.1 -0.9,2 -2,2 v 0 c -0.5,0 -1,-0.2 -1.4,-0.6"
   id="path1844" />

		</g>

		<circle
   class="st1"
   cx="152.7"
   cy="118.8"
   r="0.80000001"
   id="circle1848" />

	</g>
    <g
       id="g1858"
       transform="translate(-117.59846,-328.10775)">
		<g
   id="g1854">
			<line
   class="st0"
   x1="152.7"
   y1="135.2"
   x2="152.7"
   y2="143.2"
   id="line1852" />

		</g>

		<circle
   class="st1"
   cx="152.7"
   cy="133.5"
   r="0.80000001"
   id="circle1856" />

	</g>
    <g
       id="g1862"
       transform="translate(-117.59846,-328.10775)">
		<line
   class="st0"
   x1="81.400002"
   y1="68.800003"
   x2="81.400002"
   y2="58.799999"
   id="line1860" />

	</g>
    <g
       id="g1868"
       transform="translate(-117.59846,-328.10775)">
		<g
   id="g1866">
			<line
   class="st0"
   x1="170.39999"
   y1="132.5"
   x2="170.39999"
   y2="140.5"
   id="line1864" />

		</g>

	</g>
    <path
       class="st0"
       d="m -14.69846,-202.60775 c -0.3,0.6 -1,1 -1.7,1 v 0 c -1.1,0 -2,-0.9 -2,-2 v -1.3 c 0,-1.1 0.9,-2 2,-2 v 0 c 1.1,0 2,0.9 2,2 v 0.7 h -4"
       id="path1870" />
    <path
       class="st0"
       d="m 52.80154,-209.60775 v 7 c 0,0.6 0.4,1 1,1 h 0.3"
       id="path1872" />
    <g
       id="g1878"
       transform="translate(-117.59846,-328.10775)">
		<path
   class="st0"
   d="m 254.5,133.5 v 6 c 0,0.6 0.4,1 1,1 h 0.3"
   id="path1874" />

		<line
   class="st0"
   x1="253.5"
   y1="135.2"
   x2="255.60001"
   y2="135.2"
   id="line1876" />

	</g>
    <path
       class="st0"
       d="m -34.69846,-202.60775 c -0.3,0.6 -1,1 -1.7,1 v 0 c -1.1,0 -2,-0.9 -2,-2 v -1.3 c 0,-1.1 0.9,-2 2,-2 v 0 c 0.7,0 1.4,0.4 1.7,1"
       id="path1880" />
    <g
       id="g1888"
       transform="translate(-117.59846,-328.10775)">
		<g
   id="g1884">
			<path
   class="st0"
   d="m 266.8,138.5 c 0,1.1 -0.9,2 -2,2 v 0 c -1.1,0 -2,-0.9 -2,-2 v -3.3"
   id="path1882" />

		</g>

		<path
   class="st0"
   d="m 267.6,140.5 c -0.4,0 -0.8,-0.4 -0.8,-0.8 v -4.5"
   id="path1886" />

	</g>
    <g
       id="g1896"
       transform="translate(-117.59846,-328.10775)">
		<g
   id="g1892">
			<path
   class="st0"
   d="m 63.2,138.5 c 0,1.1 -0.9,2 -2,2 v 0 c -1.1,0 -2,-0.9 -2,-2 v -1.3 c 0,-1.1 0.9,-2 2,-2 v 0 c 1.1,0 2,0.9 2,2"
   id="path1890" />

		</g>

		<path
   class="st0"
   d="m 64,140.5 c -0.4,0 -0.8,-0.4 -0.8,-0.8 v -4.5"
   id="path1894" />

	</g>
    <g
       id="g1904"
       transform="translate(-117.59846,-328.10775)">
		<g
   id="g1900">
			<path
   class="st0"
   d="m 63.2,124.5 c 0,1.1 -0.9,2 -2,2 v 0 c -1.1,0 -2,-0.9 -2,-2 v -1.3 c 0,-1.1 0.9,-2 2,-2 v 0 c 1.1,0 2,0.9 2,2"
   id="path1898" />

		</g>

		<line
   class="st0"
   x1="63.200001"
   y1="126.5"
   x2="63.200001"
   y2="121.2"
   id="line1902" />

	</g>
    <g
       id="g1912"
       transform="translate(-117.59846,-328.10775)">
		<g
   id="g1908">
			<line
   class="st0"
   x1="309.29999"
   y1="140.5"
   x2="307.20001"
   y2="135.2"
   id="line1906" />

		</g>

		<path
   class="st0"
   d="m 311.2,135.2 -2.5,7.2 c -0.2,0.5 -0.6,0.8 -1.1,0.8 h -0.3"
   id="path1910" />

	</g>
    <g
       id="g1918"
       transform="translate(-117.59846,-328.10775)">
		<path
   class="st0"
   d="m 197.2,126.5 v -3.3 c 0,-1.1 -0.9,-2 -2,-2 v 0 c -1.1,0 -2,0.9 -2,2 v 3.3"
   id="path1914" />

		<line
   class="st0"
   x1="193.2"
   y1="123.2"
   x2="193.2"
   y2="121.2"
   id="line1916" />

	</g>
    <path
       class="st0"
       d="m -33.79846,-229.80775 v 0 c 0,1.5 -1.2,2.7 -2.7,2.7 v 0 c -1.5,0 -2.7,-1.2 -2.7,-2.7 v -2.7 c 0,-1.5 1.2,-2.7 2.7,-2.7 v 0 c 1.5,0 2.6,1.2 2.6,2.7 v 0"
       id="path1920" />
    <path
       class="st0"
       d="m 84.90154,-229.80775 c 0,1.5 1.2,2.7 2.6,2.7 1.5,0 2.7,-1.2 2.7,-2.7 v -2.7 c 0,-1.5 -1.2,-2.7 -2.7,-2.7 -1.5,0 -2.6,1.2 -2.6,2.7 z"
       id="path1922" />
    <path
       class="st0"
       d="m 144.90154,-235.10775 v 5.3 c 0,1.5 1.2,2.7 2.6,2.7 1.4,0 2.6,-1.2 2.6,-2.7 v -5.3"
       id="path1924" />
    <circle
       class="st1"
       cx="-46.398464"
       cy="-275.60776"
       r="0.80000001"
       id="circle1926" />
    <circle
       class="st1"
       cx="-46.398464"
       cy="-280.90775"
       r="0.80000001"
       id="circle1928" />
    <circle
       class="st1"
       cx="-36.398464"
       cy="-275.60776"
       r="0.80000001"
       id="circle1930" />
    <line
       class="st0"
       x1="-37.098461"
       y1="-238.50775"
       x2="-35.69846"
       y2="-239.00775"
       id="line1934" />
    <polyline
       class="st0"
       points="90.3,89.6 91.2,89.1 92.1,89.6  "
       id="polyline1936"
       transform="translate(-117.59846,-328.10775)" />
    <circle
       class="st0"
       cx="-6.2984571"
       cy="-239.40776"
       r="0.89999998"
       id="circle1938" />
    <g
       id="g1944"
       transform="translate(-117.59846,-328.10775)">
		<circle
   class="st1"
   cx="102.7"
   cy="89.400002"
   r="0.80000001"
   id="circle1940" />

		<circle
   class="st1"
   cx="99.699997"
   cy="89.400002"
   r="0.80000001"
   id="circle1942" />

	</g>
    <line
       class="st0"
       x1="-36.398464"
       y1="-283.60776"
       x2="-36.398464"
       y2="-277.70776"
       id="line1946" />
    <line
       class="st0"
       x1="-24.898462"
       y1="-283.60776"
       x2="-27.898462"
       y2="-273.50775"
       id="line1948" />
    <line
       class="st0"
       x1="-17.898462"
       y1="-283.60776"
       x2="-14.898463"
       y2="-273.50775"
       id="line1950" />
    <line
       class="st0"
       x1="11.301534"
       y1="-278.30774"
       x2="15.301534"
       y2="-278.30774"
       id="line1952" />
    <line
       class="st0"
       x1="74.60154"
       y1="-278.30774"
       x2="78.60154"
       y2="-278.30774"
       id="line1954" />
    <path
       class="st0"
       d="m -5.99846,-283.60775 c 0,0 -2,2.3 -2,5.1 0,2.8 2,5.1 2,5.1"
       id="path1956" />
    <path
       class="st0"
       d="m 2.60154,-283.60775 c 0,0 2,2.3 2,5.1 0,2.8 -2,5.1 -2,5.1"
       id="path1958" />
    <g
       id="g1976"
       transform="translate(-117.59846,-328.10775)">
		<g
   id="g1964">
			<g
   id="g1962">
				<path
   class="st0"
   d="m 68.6,156.5 v -6.6 c 0,-0.8 0.6,-1.4 1.4,-1.4 v 0 c 0.2,0 0.3,0 0.5,0"
   id="path1960" />

			</g>

		</g>

		<g
   id="g1970">
			<g
   id="g1968">
				<path
   class="st0"
   d="m 71.3,156.5 v -6.6 c 0,-0.8 0.6,-1.4 1.4,-1.4 h 0.5 c 0.7,0 1.1,0.2 1.4,0.6"
   id="path1966" />

			</g>

		</g>

		<line
   class="st0"
   x1="74.699997"
   y1="151.2"
   x2="74.699997"
   y2="156.5"
   id="line1972" />

		<line
   class="st0"
   x1="67.5"
   y1="151.2"
   x2="74.699997"
   y2="151.2"
   id="line1974" />

	</g>
    <g
       id="g1982"
       transform="translate(-117.59846,-328.10775)">
		<path
   class="st0"
   d="m 58.5,82 c 0,1.5 1.2,2.7 2.7,2.7 1.5,0 2.6,-1.2 2.6,-2.7 v -2.7 c 0,-1.5 -1.2,-2.7 -2.6,-2.7 -1.4,0 -2.7,1.2 -2.7,2.7 z"
   id="path1978" />

		<line
   class="st3"
   x1="63.200001"
   y1="77.599998"
   x2="59.200001"
   y2="83.699997"
   id="line1980" />

	</g>
    <g
       id="g1992"
       transform="translate(-117.59846,-328.10775)">
		<g
   id="g1986">
			<path
   class="st0"
   d="m 148.7,51.6 c 0.5,0.6 1.1,0.9 2,0.9 h 1.2 c 1.1,0 2,-0.9 2,-2 v 0 c 0,-1.1 -0.9,-2 -2,-2 h -1.3 c -1.1,0 -2,-0.9 -2,-2 v 0 c 0,-1.1 0.9,-2 2,-2 h 1.2 c 0.9,0 1.5,0.2 2,0.9"
   id="path1984" />

		</g>

		<line
   class="st0"
   x1="151.2"
   y1="44.5"
   x2="151.2"
   y2="43.5"
   id="line1988" />

		<line
   class="st0"
   x1="151.2"
   y1="53.5"
   x2="151.2"
   y2="52.5"
   id="line1990" />

	</g>
    <g
       id="g1998"
       transform="translate(-117.59846,-328.10775)">
		<circle
   class="st0"
   cx="121.2"
   cy="82"
   r="2.7"
   id="circle1994" />

		<path
   class="st0"
   d="m 123.6,77.6 c -0.4,-0.6 -1.1,-1 -2.2,-1 h -0.2 c -1.5,0 -2.7,1.2 -2.7,2.7 V 82"
   id="path1996" />

	</g>
    <g
       id="g2004"
       transform="translate(-117.59846,-328.10775)">
		<circle
   class="st0"
   cx="151.2"
   cy="79.300003"
   r="2.7"
   id="circle2000" />

		<path
   class="st0"
   d="m 148.8,83.7 c 0.4,0.6 1.1,1 2.2,1 h 0.2 c 1.5,0 2.7,-1.2 2.7,-2.7 v -2.7"
   id="path2002" />

	</g>
    <path
       class="st0"
       d="m -38.89846,-248.80775 c 0,-1.5 1.2,-2.7 2.6,-2.7 1.4,0 2.7,1.2 2.7,2.7 0,0.7 -0.3,1.4 -0.8,1.9 -1.1,0.9 -4.5,3.5 -4.5,3.5 h 5.3"
       id="path2006" />
    <g
       id="g2014"
       transform="translate(-117.59846,-328.10775)">
		<g
   id="g2010">
			<path
   class="st0"
   d="m 93.2,123.2 c 0,-1.1 -0.9,-2 -2,-2 v 0 c -1.1,0 -2,0.9 -2,2 v 1.3 c 0,1.1 0.9,2 2,2 v 0 c 1.1,0 2,-0.9 2,-2"
   id="path2008" />

		</g>

		<line
   class="st0"
   x1="93.199997"
   y1="126.5"
   x2="93.199997"
   y2="118.5"
   id="line2012" />

	</g>
    <g
       id="g2022"
       transform="translate(-117.59846,-328.10775)">
		<g
   id="g2018">
			<path
   class="st0"
   d="m 69.2,123.2 c 0,-1.1 0.9,-2 2,-2 v 0 c 1.1,0 2,0.9 2,2 v 1.3 c 0,1.1 -0.9,2 -2,2 v 0 c -1.1,0 -2,-0.9 -2,-2"
   id="path2016" />

		</g>

		<line
   class="st0"
   x1="69.199997"
   y1="126.5"
   x2="69.199997"
   y2="118.5"
   id="line2020" />

	</g>
    <g
       id="g2030"
       transform="translate(-117.59846,-328.10775)">
		<g
   id="g2026">
			<path
   class="st0"
   d="m 213.2,124.5 c 0,1.1 0.9,2 2,2 v 0 c 1.1,0 2,-0.9 2,-2 v -1.3 c 0,-1.1 -0.9,-2 -2,-2 v 0 c -1.1,0 -2,0.9 -2,2"
   id="path2024" />

		</g>

		<line
   class="st0"
   x1="213.2"
   y1="121.2"
   x2="213.2"
   y2="129.2"
   id="line2028" />

	</g>
    <g
       id="g2038"
       transform="translate(-117.59846,-328.10775)">
		<g
   id="g2034">
			<path
   class="st0"
   d="m 227.2,124.5 c 0,1.1 -0.9,2 -2,2 v 0 c -1.1,0 -2,-0.9 -2,-2 v -1.3 c 0,-1.1 0.9,-2 2,-2 v 0 c 1.1,0 2,0.9 2,2"
   id="path2032" />

		</g>

		<line
   class="st0"
   x1="227.2"
   y1="121.2"
   x2="227.2"
   y2="129.2"
   id="line2036" />

	</g>
    <polyline
       class="st0"
       points="78.9,151.2 83.3,151.2 83.3,151.2 83.3,156.5  "
       id="polyline2040"
       transform="translate(-117.59846,-328.10775)" />
    <path
       class="st0"
       d="m -37.59846,-171.60775 v -6.6 c 0,-0.8 0.6,-1.4 1.4,-1.4 v 0 h 0.5 c 0.7,0 1.1,0.2 1.4,0.6"
       id="path2042" />
    <g
       id="g2056"
       transform="translate(-117.59846,-328.10775)">
		<g
   id="g2048">
			<g
   id="g2046">
				<path
   class="st0"
   d="m 98.6,156.5 v -6.6 c 0,-0.8 0.6,-1.4 1.4,-1.4 v 0 c 0.2,0 0.3,0 0.5,0"
   id="path2044" />

			</g>

		</g>

		<path
   class="st0"
   d="m 101.5,156.5 v -6.6 c 0,-0.8 0.6,-1.4 1.4,-1.4 v 0 h 0.5 c 0.7,0 1.1,0.2 1.4,0.6"
   id="path2050" />

		<g
   id="g2054">
			<polyline
   class="st0"
   points="97.5,151.2 104.9,151.2 104.9,151.2 104.9,156.5    "
   id="polyline2052" />

		</g>

	</g>
    <path
       class="st4"
       d="m -45.79846,-231.10775 c 1.1,0 2,0.9 2,2 0,1.1 -0.9,2 -2,2 h -3.3 v -8 h 3.3 c 1.1,0 2,0.9 2,2 0,1.1 -0.9,2 -2,2 z"
       id="path2058" />
    <line
       class="st4"
       x1="-45.798458"
       y1="-231.10776"
       x2="-49.098461"
       y2="-231.10776"
       id="line2060" />
    <g
       id="g2070"
       transform="translate(-117.59846,-328.10775)">
		<g
   id="g2066">
			<g
   id="g2064">
				<path
   class="st0"
   d="m 110.3,126.5 v -6.6 c 0,-0.8 0.6,-1.4 1.4,-1.4 v 0 c 0.7,0 1.1,0.2 1.4,0.6"
   id="path2062" />

			</g>

		</g>

		<line
   class="st0"
   x1="109.2"
   y1="121.2"
   x2="112"
   y2="121.2"
   id="line2068" />

	</g>
    <g
       id="g2080"
       transform="translate(-117.59846,-328.10775)">
		<g
   id="g2076">
			<g
   id="g2074">
				<path
   class="st0"
   d="m 110.4,156.5 v -6.6 c 0,-0.8 0.6,-1.4 1.4,-1.4 v 0 c 0.7,0 1.1,0.2 1.4,0.6"
   id="path2072" />

			</g>

		</g>

		<line
   class="st0"
   x1="109.2"
   y1="151.2"
   x2="112"
   y2="151.2"
   id="line2078" />

	</g>
    <polyline
       class="st0"
       points="161.8,45 160.2,45 160.2,54.6 161.8,54.6  "
       id="polyline2086"
       transform="translate(-117.59846,-328.10775)" />
    <polyline
       class="st0"
       points="170.4,45 172,45 172,54.6 170.4,54.6  "
       id="polyline2088"
       transform="translate(-117.59846,-328.10775)" />
    <line
       class="st0"
       x1="76.60154"
       y1="-280.30774"
       x2="76.60154"
       y2="-276.30774"
       id="line2090" />
    <g
       id="g2102"
       transform="translate(-117.59846,-328.10775)">
		<line
   class="st0"
   x1="204.2"
   y1="46.299999"
   x2="204.2"
   y2="44.5"
   id="line2092" />

		<line
   class="st0"
   x1="204.2"
   y1="46.299999"
   x2="203.10001"
   y2="47.700001"
   id="line2094" />

		<line
   class="st0"
   x1="202.60001"
   y1="45.299999"
   x2="204.2"
   y2="46.299999"
   id="line2096" />

		<line
   class="st0"
   x1="204.2"
   y1="46.299999"
   x2="205.3"
   y2="47.700001"
   id="line2098" />

		<line
   class="st0"
   x1="205.8"
   y1="45.299999"
   x2="204.2"
   y2="46.299999"
   id="line2100" />

	</g>
    <circle
       class="st0"
       cx="63.601536"
       cy="-282.10776"
       r="1.5"
       id="circle2104" />
    <circle
       class="st0"
       cx="67.60154"
       cy="-277.10776"
       r="1.5"
       id="circle2106" />
    <line
       class="st0"
       x1="63.001545"
       y1="-275.60776"
       x2="68.201546"
       y2="-283.60776"
       id="line2108" />
    <g
       id="g2116"
       transform="translate(-117.59846,-328.10775)">
		<g
   id="g2114">
			<g
   id="g2112">
				<path
   class="st0"
   d="M 219.6,52.5 H 219 c -0.4,0 -0.9,-0.2 -1.1,-0.6 l -2.8,-3.8 c -0.4,-0.5 -1,-1.1 -1,-2 0,-0.9 0.7,-1.6 1.7,-1.6 0.9,0 1.6,0.7 1.6,1.6 0,0.9 -0.7,1.7 -2.1,2 -1.5,0.3 -2.5,1.1 -2.5,2.5 0,1.1 0.7,1.9 2.1,1.9 1.8,0 2.9,-1.8 4.5,-3.9"
   id="path2110" />

			</g>

		</g>

	</g>
    <g
       id="g2132"
       transform="translate(-117.59846,-328.10775)">
		<g
   id="g2120">
			<path
   class="st0"
   d="m 122.7,149.5 v 6 c 0,0.6 0.4,1 1,1 h 0.3"
   id="path2118" />

		</g>

		<g
   id="g2126">
			<g
   id="g2124">
				<path
   class="st0"
   d="m 119.4,156.5 v -6.6 c 0,-0.8 0.6,-1.4 1.4,-1.4 v 0 c 0.2,0 0.3,0 0.5,0"
   id="path2122" />

			</g>

		</g>

		<g
   id="g2130">
			<line
   class="st0"
   x1="118.2"
   y1="151.2"
   x2="123.7"
   y2="151.2"
   id="line2128" />

		</g>

	</g>
    <line
       class="st0"
       x1="-25.598459"
       y1="-176.90776"
       x2="-29.498461"
       y2="-176.90776"
       id="line2134" />
    <g
       id="g2156"
       transform="translate(-117.59846,-328.10775)">
		<g
   id="g2138">
			<path
   class="st0"
   d="m 134.1,149.5 v 6 c 0,0.6 0.4,1 1,1 h 0.3"
   id="path2136" />

		</g>

		<line
   class="st0"
   x1="135.10001"
   y1="151.2"
   x2="127"
   y2="151.2"
   id="line2140" />

		<g
   id="g2146">
			<g
   id="g2144">
				<path
   class="st0"
   d="m 130.8,156.5 v -6.6 c 0,-0.8 0.6,-1.4 1.4,-1.4 v 0 c 0.2,0 0.3,0 0.5,0"
   id="path2142" />

			</g>

		</g>

		<g
   id="g2154">
			<g
   id="g2152">
				<g
   id="g2150">
					<path
   class="st0"
   d="m 128.1,156.5 v -6.6 c 0,-0.8 0.6,-1.4 1.4,-1.4 v 0 c 0.2,0 0.3,0 0.5,0"
   id="path2148" />

				</g>

			</g>

		</g>

	</g>
    <g
       id="g4055"
       transform="matrix(1.403354,0,0,1.4071093,-9.6407924,-9.7700161)"
       style="stroke-width:0.711627">
      <g
         id="g4044"
         transform="translate(0,0.94067772)"
         style="stroke-width:0.711627">
        <ellipse
           class="st1"
           cx="31.372602"
           cy="30.603449"
           id="circle1932"
           style="fill:#ffffff;stroke:#ffffff;stroke-width:0;stroke-linecap:round;stroke-linejoin:round;stroke-miterlimit:4;stroke-dasharray:none"
           transform="matrix(0.99910094,0.04239462,-0.04321584,0.99906576,0,0)"
           rx="0.53434891"
           ry="0.53301448" />
        <line
           class="st0"
           x1="29.978947"
           y1="29.050417"
           x2="29.941135"
           y2="29.93384"
           id="line2082"
           style="stroke:#ffffff;stroke-width:0.711627" />
        <path
           class="st0"
           d="m 23.665277,18.748755 c 0.07563,-1.766919 0.764188,-3.507553 2.040468,-4.632931 1.276281,-1.125378 2.833817,-1.648641 4.979075,-1.556646 3.677585,0.157704 6.616191,3.23399 6.464934,6.767827 -0.07563,1.766919 -0.764188,3.507554 -2.040468,4.632932 -1.582746,1.112236 -5.029494,2.734592 -5.142937,5.384971"
           id="path2084"
           style="stroke:#ffffff;stroke-width:0.711627" />
      </g>
      <g
         id="g3956"
         transform="matrix(0.95943875,-0.3077095,0.30778801,0.95919402,-4.0816456,4.7356529)"
         style="stroke-width:0.70635">
        <path
           style="fill:none;stroke:#ffffff;stroke-width:0.70635;stroke-linecap:round;stroke-linejoin:round;paint-order:markers fill stroke;stop-color:#000000"
           d="m 10.065848,17.527313 c 0,-2.079039 1.685394,-3.764433 3.764433,-3.764433 2.079039,0 3.764434,1.685394 3.764434,3.764433"
           id="path3559" />
        <path
           style="fill:none;stroke:#ffffff;stroke-width:0.70635;stroke-linecap:round;stroke-linejoin:round;paint-order:markers fill stroke;stop-color:#000000"
           d="m 17.594715,31.513976 c 0,2.07904 -1.685394,3.764434 -3.764434,3.764434 -2.079039,0 -3.764433,-1.685395 -3.764433,-3.764434 V 17.527313"
           id="path3323" />
        <path
           style="fill:none;stroke:#ffffff;stroke-width:0.70635px;stroke-linecap:butt;stroke-linejoin:miter;stroke-opacity:1"
           d="M 17.594715,17.527313 V 31.513976"
           id="path3769" />
        <path
           style="fill:none;stroke:#ffffff;stroke-width:0.70635px;stroke-linecap:butt;stroke-linejoin:miter;stroke-opacity:1"
           d="M 17.594715,24.520644 H 10.065848"
           id="path3771" />
      </g>
    </g>
  </g>
  <style
     type="text/css"
     id="style1515">
	.st0{fill:none;stroke:#FFFFFF;stroke-linecap:round;stroke-linejoin:round;stroke-miterlimit:10;}
	.st1{fill:#FFFFFF;}
	.st2{fill:none;stroke:#FFFFFF;stroke-width:0.9976;stroke-linecap:round;stroke-linejoin:round;stroke-miterlimit:10;}
	.st3{fill:none;stroke:#FFFFFF;stroke-width:0.9965;stroke-linecap:round;stroke-linejoin:round;stroke-miterlimit:10;}
	.st4{fill:none;stroke:#FFFFFF;stroke-width:0.8662;stroke-linecap:round;stroke-linejoin:round;stroke-miterlimit:10;}
</style>
</svg>
