<svg xmlns="http://www.w3.org/2000/svg" viewBox="0 0 48 48"><defs><style>.a{fill:none;stroke:#fff;stroke-linecap:round;stroke-linejoin:round;}.b{fill:#fff;}</style></defs><path class="a" d="M7.5,5.5a2,2,0,0,0-2,2v33a2,2,0,0,0,2,2h33a2,2,0,0,0,2-2V7.5a2,2,0,0,0-2-2Z"/><path class="a" d="M9.5,28.46V18.1213h2.3263A4.5232,4.5232,0,0,1,16.35,22.6446V23.937A4.5233,4.5233,0,0,1,11.8263,28.46Z"/><rect class="a" x="33.3305" y="21.6107" width="5.1695" height="6.8496" rx="2.5848"/><polyline class="a" points="26.111 21.611 31.28 21.611 26.111 28.46 31.28 28.46"/><circle class="b" cx="19.2472" cy="18.4444" r="0.75"/><line class="a" x1="19.2472" y1="21.6107" x2="19.2472" y2="28.4603"/><line class="a" x1="23.2493" y1="19.4783" x2="23.2493" y2="28.4603"/><line class="a" x1="21.8923" y1="21.6107" x2="23.2323" y2="21.6107"/></svg>