<svg viewBox="0 0 48 48" xmlns="http://www.w3.org/2000/svg">
    <style>
        .a{fill:none;stroke:#FFFFFF;stroke-linecap:round;stroke-linejoin:round}
    </style>
    <polygon class="a" points="24,0.6 3.7,12.3 3.7,35.7 24,47.4 44.3,35.7 44.3,12.3"/>
    <polygon class="a" points="24,0.6 10.6,14.8 3.7,35.7 24,38.6 44.3,35.7 37.4,14.8"/>
    <polygon class="a" points="24,38.6 10.6,14.8 37.4,14.8"/>
    <line class="a" x1="24" x2="24" y1="38.6" y2="47.4"/>
    <line class="a" x1="10.6" x2="3.7" y1="14.8" y2="12.3"/>
    <line class="a" x1="37.4" x2="44.3" y1="14.8" y2="12.3"/>
    <path class="a" d="M24.7,23.7c0,0.9,0.7,1.6,1.6,1.6c0.9,0,1.6-0.7,1.6-1.6v-1.6c0-0.9-0.7-1.6-1.6-1.6c-0.8,0-1.6,0.7-1.6,1.6V23.7z"/>
    <line class="a" x1="27.5" x2="25.1" y1="21.1" y2="24.8"/>
    <path class="a" d="M20.1,22.1c0-0.9,0.7-1.6,1.6-1.6s1.6,0.7,1.6,1.6c0,0.4-0.2,0.8-0.5,1.1c-0.7,0.5-2.7,2.1-2.7,2.1h3.2"/>
</svg>