<?xml version="1.0" encoding="UTF-8"?>
<svg width="48" height="48" version="1.1" viewBox="0 0 48 48" xml:space="preserve" xmlns="http://www.w3.org/2000/svg"><defs><style>.a{fill:none;stroke:#fff;stroke-linecap:round;stroke-linejoin:round;}</style></defs><g fill="none" stroke="#fff" stroke-linecap="round" stroke-linejoin="round"><path d="M 5.9702921,14.27853 C 6.9271301,12.925747 12.524265,6.0794642 24,6.0788715 35.475735,6.0794642 41.07287,12.925747 42.029708,14.27853 43.873927,30.116606 33.965978,39.025759 24,41.921131 14.034022,39.025759 4.1260728,30.116606 5.9702921,14.27853 Z" stop-color="#000000"/><g><path transform="matrix(1.4831798 -.02511999 .02511999 1.4831798 -9.3935929 1.2089635)" d="m19.711934 7.5634733 1.849322-0.2602961 0.833984-1.6709933 0.819028 1.678374 1.846924 0.2767999-1.343135 1.2975882 0.307479 1.842065-1.649132-0.8764202-1.656891 0.8616592 0.323915-1.8392461z" stop-color="#000000" stroke-width="1"/><g stroke-miterlimit="10"><path class="st5" d="m14.149434 21.416069v7.752639h1.744344c1.841252 0 3.391779-1.550529 3.391779-3.39178v-0.969081c0-1.841251-1.550527-3.391778-3.391779-3.391778z"/><polyline class="st5" transform="matrix(.96907986 0 0 .96907986 -156.29731 -18.025481)" points="183.4 48.7 183.4 40.7 188.7 48.7 188.7 40.7" stroke-width="1"/><path class="st5" d="m28.81135 28.296536c0.484539 0.581448 1.065987 0.872172 1.93816 0.872172h1.162896c1.065988 0 1.93816-0.872172 1.93816-1.93816s-0.872172-1.93816-1.93816-1.93816h-1.259803c-1.065989 0-1.93816-0.872172-1.93816-1.93816 0-1.065987 0.872171-1.938159 1.93816-1.938159h1.162895c0.872172 0 1.45362 0.193815 1.93816 0.872172"/></g></g></g></svg>
