<?xml version="1.0" encoding="UTF-8" standalone="no"?>
<svg
   xmlns:dc="http://purl.org/dc/elements/1.1/"
   xmlns:cc="http://creativecommons.org/ns#"
   xmlns:rdf="http://www.w3.org/1999/02/22-rdf-syntax-ns#"
   xmlns:svg="http://www.w3.org/2000/svg"
   xmlns="http://www.w3.org/2000/svg"
   xmlns:sodipodi="http://sodipodi.sourceforge.net/DTD/sodipodi-0.dtd"
   xmlns:inkscape="http://www.inkscape.org/namespaces/inkscape"
   width="35.423969mm"
   height="35.423973mm"
   viewBox="0 0 35.42397 35.423973"
   version="1.1"
   id="svg981"
   inkscape:version="1.0.2 (e86c870879, 2021-01-15)"
   sodipodi:docname="dolbyatmos.svg">
  <defs
     id="defs975"><inkscape:path-effect
   effect="bspline"
   id="path-effect2624"
   is_visible="true"
   lpeversion="1"
   weight="33.333333"
   steps="2"
   helper_size="0"
   apply_no_weight="true"
   apply_with_weight="true"
   only_selected="false" />
<inkscape:path-effect
   effect="bspline"
   id="path-effect1003"
   is_visible="true"
   lpeversion="1"
   weight="33.333333"
   steps="2"
   helper_size="0"
   apply_no_weight="true"
   apply_with_weight="true"
   only_selected="false" />
<inkscape:path-effect
   effect="bspline"
   id="path-effect999"
   is_visible="true"
   lpeversion="1"
   weight="33.333333"
   steps="2"
   helper_size="0"
   apply_no_weight="true"
   apply_with_weight="true"
   only_selected="false" />

	
	
	
	
	
	
	
	
	
	
	
	
	
	
	
	
	
	
	
	
	
	
	
	
	
	
	
	
	
	
	
	
	
	
	
	
	
	
	
	
	
	
	
	
	
	
	
	
	
	
	
	
	
	
	
	
	
	
	
	
	
	
	
	
	
	
	
	
	
	
	
	
	
	
	
	
	
	
	
	
	
	
	
	
	
	
	
	
	
	
	
	
	
	
	
	
	
	
	
	
	
	
	
	
	
	
	
	
	
	
	
	
	
	
	
	
	
	
	
	
	
	
	
	
	
	
	
	
	
<style
   id="style2626">.a{fill:none;stroke:#fff;stroke-linecap:round;stroke-linejoin:round;}</style>
</defs>
  <sodipodi:namedview
     id="base"
     pagecolor="#0000ff"
     bordercolor="#666666"
     borderopacity="1.0"
     inkscape:pageopacity="0"
     inkscape:pageshadow="2"
     inkscape:zoom="3.959798"
     inkscape:cx="39.605644"
     inkscape:cy="63.235168"
     inkscape:document-units="mm"
     inkscape:current-layer="layer1"
     inkscape:document-rotation="0"
     showgrid="false"
     inkscape:window-width="1920"
     inkscape:window-height="1044"
     inkscape:window-x="0"
     inkscape:window-y="130"
     inkscape:window-maximized="1" />
  <metadata
     id="metadata978">
    <rdf:RDF>
      <cc:Work
         rdf:about="">
        <dc:format>image/svg+xml</dc:format>
        <dc:type
           rdf:resource="http://purl.org/dc/dcmitype/StillImage" />
        <dc:title></dc:title>
      </cc:Work>
    </rdf:RDF>
  </metadata>
  <g
     inkscape:label="Layer 1"
     inkscape:groupmode="layer"
     id="layer1"
     transform="translate(-161.04385,-59.40163)">
    <path
       style="fill:none;stroke:#ffffff;stroke-width:0.5;stroke-linecap:butt;stroke-linejoin:miter;stroke-miterlimit:4;stroke-dasharray:none;stroke-opacity:1"
       d="m 168.07226,66.454122 c 0,0 0,13.363692 0,13.363692 0,0 4.07678,0 4.07678,0 0.3332,-0.0958 0.66657,-0.191643 1.07586,-0.368311 0.40929,-0.176668 0.89473,-0.434196 1.3123,-0.734607 0.41757,-0.300412 0.76733,-0.643735 1.08162,-1.066794 0.3143,-0.423058 0.59317,-0.925915 0.81827,-1.416001 0.2251,-0.490085 0.39642,-0.967428 0.49847,-1.335091 0.10206,-0.367662 0.13482,-0.625707 0.15495,-1.085315 0.0201,-0.459609 0.0276,-1.120783 -0.0555,-1.760433 -0.0831,-0.63965 -0.25698,-1.257787 -0.48088,-1.800008 -0.2239,-0.542222 -0.49793,-1.00849 -0.8247,-1.425141 -0.32678,-0.416651 -0.70635,-0.783604 -1.13887,-1.101688 -0.43253,-0.318085 -0.91804,-0.587201 -1.3535,-0.78322 -0.43546,-0.19602 -0.82085,-0.318863 -1.67327,-0.387881 -0.85243,-0.06902 -2.17178,-0.08411 -2.8316,-0.09166 -0.65983,-0.0075 -0.65989,-0.0075 -0.65989,-0.0075 z"
       id="path997"
       inkscape:path-effect="#path-effect999"
       inkscape:original-d="m 168.07226,66.454122 v 13.363692 h 4.07678 c 0,0 0.66666,-0.191328 0.99959,-0.287388 0.48573,-0.257273 0.97117,-0.514802 1.45636,-0.772602 0.35004,-0.343072 0.6998,-0.686395 1.0493,-1.02999 0.27915,-0.502614 0.55802,-1.005472 0.83663,-1.508605 0.17159,-0.477098 0.3429,-0.954443 0.51396,-1.432061 0.033,-0.257787 0.0658,-0.515827 0.0983,-0.774138 0.008,-0.660938 0.0152,-1.322115 0.0224,-1.983569 -0.17358,-0.617898 -0.34742,-1.236034 -0.52152,-1.854448 -0.27379,-0.466026 -0.54782,-0.932298 -0.82213,-1.398844 -0.37932,-0.366702 -0.75889,-0.733655 -1.13873,-1.100879 -0.48526,-0.26886 -0.97077,-0.537975 -1.45655,-0.807359 -0.38514,-0.122582 -0.77053,-0.245424 -1.15619,-0.368534 -1.31914,-0.01483 -2.63849,-0.02992 -3.95814,-0.04528 z"
       sodipodi:nodetypes="ccccccccccccccccc" />
    <path
       style="fill:none;stroke:#ffffff;stroke-width:0.5;stroke-linecap:butt;stroke-linejoin:miter;stroke-miterlimit:4;stroke-dasharray:none;stroke-opacity:1"
       d="m 189.37889,66.441124 c 0,0 0,13.41506 0,13.41506 -1.40676,0 -2.81325,0 -3.76396,-0.07277 -0.95072,-0.07277 -1.44543,-0.2184 -1.95208,-0.468438 -0.50664,-0.250038 -1.02519,-0.60459 -1.49837,-1.054144 -0.47318,-0.449554 -0.90091,-0.99417 -1.18495,-1.402758 -0.28404,-0.408587 -0.42431,-0.68115 -0.55018,-0.980874 -0.12587,-0.299724 -0.23728,-0.626595 -0.32341,-1.174271 -0.0861,-0.547677 -0.14687,-1.3161 -0.15428,-1.859286 -0.007,-0.543186 0.0386,-0.861057 0.12352,-1.231862 0.0849,-0.370806 0.20879,-0.794483 0.37709,-1.197331 0.1683,-0.402847 0.38103,-0.784759 0.59318,-1.106285 0.21216,-0.321525 0.42371,-0.58259 0.62501,-0.818901 0.2013,-0.236311 0.39232,-0.447845 0.61375,-0.638164 0.22142,-0.190318 0.47315,-0.359362 0.71997,-0.507616 0.24682,-0.148255 0.48868,-0.275708 0.76471,-0.403984 0.27603,-0.128276 0.58618,-0.257367 0.80987,-0.345092 0.22369,-0.08772 0.36091,-0.134087 1.14662,-0.152721 0.7857,-0.01863 2.21946,-0.0096 3.65351,-5.63e-4 z"
       id="path1001"
       inkscape:path-effect="#path-effect1003"
       inkscape:original-d="m 189.37889,66.441124 v 13.41506 c 0,0 -2.81325,2.64e-4 -4.22027,0 -0.49446,-0.14537 -0.98917,-0.291 -1.48416,-0.436896 -0.51829,-0.354296 -1.03684,-0.708843 -1.55565,-1.06366 -0.42748,-0.544376 -0.8552,-1.088995 -1.2832,-1.633889 -0.14001,-0.272306 -0.28029,-0.544867 -0.42083,-0.817697 -0.11115,-0.326619 -0.22256,-0.653489 -0.33423,-0.98063 -0.0605,-0.768178 -0.12124,-1.536602 -0.18226,-2.3053 0.0463,-0.317607 0.0923,-0.635478 0.138,-0.953615 0.12413,-0.42343 0.24799,-0.847107 0.37159,-1.271058 0.213,-0.381662 0.42573,-0.763574 0.6382,-1.145757 0.21182,-0.260809 0.42337,-0.521873 0.63466,-0.783206 0.19129,-0.211277 0.38232,-0.422809 0.57309,-0.634611 0.252,-0.168781 0.50374,-0.337821 0.75521,-0.507128 0.24213,-0.127193 0.48399,-0.254645 0.72559,-0.382365 0.31042,-0.128829 0.62057,-0.257918 0.93045,-0.387274 0.13748,-0.0461 0.2747,-0.09246 0.41165,-0.139084 1.43435,0.0093 4.30216,0.02711 4.30216,0.02711 z"
       sodipodi:nodetypes="ccccccccccccccccccc" />
    <polyline
       class="st0"
       points="179.2,101 179.2,93 183.2,101 187.2,93 187.2,101  "
       id="polyline1096"
       transform="matrix(0.8113833,0,0,0.8113833,30.110414,7.841556)" />
    <g
       id="g1132"
       transform="matrix(0.8113833,0,0,0.8113833,-35.28837,7.8416215)">
		<line
   class="st0"
   x1="252.5"
   y1="93"
   x2="257.79999"
   y2="93"
   id="line1128" />

		<line
   class="st0"
   x1="255.2"
   y1="101"
   x2="255.2"
   y2="93"
   id="line1130" />

	</g>
    <g
       id="g1162"
       transform="matrix(0.8113833,0,0,0.8113833,116.19559,7.8415773)">
		<polyline
   class="st0"
   points="63.8,101 61.2,93 58.5,101   "
   id="polyline1158" />

		<line
   class="st0"
   x1="59.400002"
   y1="98.300003"
   x2="62.900002"
   y2="98.300003"
   id="line1160" />

	</g>
    <g
       id="g1266"
       transform="matrix(0.8113833,0,0,0.8113833,-7.2917624,7.8416215)">
		<path
   class="st0"
   d="m 242.7,100.1 c 0.5,0.6 1.1,0.9 2,0.9 h 1.2 c 1.1,0 2,-0.9 2,-2 v 0 c 0,-1.1 -0.9,-2 -2,-2 h -1.3 c -1.1,0 -2,-0.9 -2,-2 v 0 c 0,-1.1 0.9,-2 2,-2 h 1.2 c 0.9,0 1.5,0.2 2,0.9"
   id="path1264" />

	</g>
    <path
       class="st0"
       d="m 183.62543,87.641168 c 0,1.217075 0.97366,2.190736 2.10958,2.190736 1.21709,0 2.19075,-0.973661 2.19075,-2.190736 v -2.190733 c 0,-1.217075 -0.97366,-2.190736 -2.19075,-2.190736 -1.21706,0 -2.10958,0.973661 -2.10958,2.190736 z"
       id="path1412"
       style="stroke-width:0.811382" />
    <path
       style="fill:none;stroke:#ffffff;stroke-width:0.5;stroke-linecap:butt;stroke-linejoin:miter;stroke-miterlimit:4;stroke-dasharray:none;stroke-opacity:1"
       d="m 165.05783,64.23982 c 0,0 0,17.815181 0,17.815181 0,0 27.34385,0 27.34385,0 0,0 0,-17.795322 0,-17.795322 0,0 -27.34385,-0.01986 -27.34385,-0.01986 z"
       id="path2622"
       inkscape:path-effect="#path-effect2624"
       inkscape:original-d="m 165.05783,64.23982 v 17.815181 h 27.34385 V 64.259679 Z"
       sodipodi:nodetypes="ccccc" />
    <path
       class="a"
       d="m 194.13727,59.867735 h -30.76292 a 1.8644196,1.8644196 0 0 0 -1.8644,1.86442 v 30.762924 a 1.8644196,1.8644196 0 0 0 1.8644,1.86442 h 30.76292 a 1.8644196,1.8644196 0 0 0 1.86444,-1.86442 V 61.732155 a 1.8644196,1.8644196 0 0 0 -1.86444,-1.86442 z"
       id="path2630"
       style="stroke-width:0.932209" />
  </g>
  <style
     type="text/css"
     id="style1005">
	.st0{fill:none;stroke:#FFFFFF;stroke-linecap:round;stroke-linejoin:round;stroke-miterlimit:10;}
	.st1{fill:#FFFFFF;}
	.st2{fill:none;stroke:#FFFFFF;stroke-width:0.9976;stroke-linecap:round;stroke-linejoin:round;stroke-miterlimit:10;}
	.st3{fill:none;stroke:#FFFFFF;stroke-width:0.9965;stroke-linecap:round;stroke-linejoin:round;stroke-miterlimit:10;}
	.st4{fill:none;stroke:#FFFFFF;stroke-width:0.8662;stroke-linecap:round;stroke-linejoin:round;stroke-miterlimit:10;}
</style>
</svg>
