<?xml version="1.0" encoding="utf-8"?>
<svg
	version="1.1"
	xmlns="http://www.w3.org/2000/svg"
	xmlns:xlink="http://www.w3.org/1999/xlink"
	x="0%" y="0%"
	width="100%" height="100%"
	viewBox="0 0 48.0 48.0"
	enable-background="new 0 0 48.0 48.0"
	xml:space="preserve">
	<path
		fill="none"
		stroke="#FFFFFF"
		stroke-opacity="1.000"
		stroke-linejoin="round"
		stroke-linecap="round"
		d="M17.53,24.55C20.27,24.55,22.50,26.78,22.50,29.53C22.50,32.27,20.27,34.50,17.53,34.50C14.78,34.50,12.55,32.27,12.55,29.53C12.55,26.78,14.78,24.55,17.53,24.55z"/>
	<path
		fill="none"
		stroke="#FFFFFF"
		stroke-opacity="1.000"
		stroke-linejoin="round"
		stroke-linecap="round"
		d="M25.00,2.75L46.50,11.25"/>
	<path
		fill="none"
		stroke="#FFFFFF"
		stroke-opacity="1.000"
		stroke-linejoin="round"
		stroke-linecap="round"
		d="M39.67,8.83L37.25,14.75Q33.00,11.00,27.79,10.71L30.21,4.79"/>
	<path
		fill="none"
		stroke="#FFFFFF"
		stroke-opacity="1.000"
		stroke-linejoin="round"
		stroke-linecap="round"
		d="M43.11,10.00L45.00,16.75"/>
	<path
		fill="none"
		stroke="#FFFFFF"
		stroke-opacity="1.000"
		stroke-linejoin="round"
		stroke-linecap="round"
		d="M29.07,15.25L32.92,15.25L32.85,30.05A15.38 15.38 -0.00 1 1 20.84,14.99L20.84,18.59A11.41 11.41 -0.00 1 0 29.14,30.01L29.07,15.25z"/>
</svg>