<svg xmlns="http://www.w3.org/2000/svg" xml:space="preserve" id="Layer_1" x="0" y="0" style="enable-background:new 0 0 48 48" version="1.1" viewBox="0 0 48 48">
  <style id="style2" type="text/css">
    .st0{fill:none;stroke:#fff;stroke-linecap:round;stroke-linejoin:round}
  </style>
  <path id="path120" d="M29.151 37.714c7.596-1.362 15.364-5.738 15.364-13.713 0-6.528-7.752-11.822-15.362-13.577V8.039c0-1.07.866-1.927 1.936-1.927h1.87V4.372H15.04v1.738h1.87c1.07 0 1.938.848 1.938 1.92v2.395C11.238 12.184 3.485 17.477 3.485 24c0 7.97 7.768 12.346 15.364 13.711v2.259c0 1.07-.869 1.918-1.939 1.918h-1.87v1.738h17.92v-1.738l-1.87-.001a1.928 1.928 0 0 1-1.938-1.927v-2.247zm-10.303-24.44v21.652C14.555 33.31 11.825 29.512 11.825 24c0-4.67 2.707-8.851 7.023-10.726zm10.3 0A11.639 11.639 0 0 1 36.175 24c0 5.51-2.73 9.308-7.023 10.925l-.004-21.65z" style="fill:none;fill-opacity:1;stroke:#fff;stroke-width:1;stroke-linecap:round;stroke-linejoin:round;stroke-miterlimit:3.86400008;stroke-dasharray:none;stroke-opacity:1"/>
</svg>
