<svg id="Layer_2" data-name="Layer 2" xmlns="http://www.w3.org/2000/svg" viewBox="0 0 48 48"><defs><style>.cls-1{fill:none;stroke:#fff;stroke-linecap:round;stroke-linejoin:round;}</style></defs><path class="cls-1" d="M14.5,15.89a3,3,0,0,1,3,3h0a3,3,0,1,1-3-3Zm9.5,0a3,3,0,0,1,3,3h0a3,3,0,1,1-3-3Zm9.5,0a3,3,0,0,1,3,3h0a3,3,0,1,1-3-3ZM14.5,26.1a3,3,0,1,1,0,6h0a3,3,0,0,1-3-3h0a3,3,0,0,1,3-3Zm9.5,0a3,3,0,0,1,0,6h0a3,3,0,0,1-3-3h0a3,3,0,0,1,3-3Zm9.5,0a3,3,0,0,1,0,6h0a3,3,0,0,1-3-3h0a3,3,0,0,1,3-3Z"/><circle class="cls-1" cx="24" cy="24" r="21.5"/></svg>