<svg viewBox="0 0 48 48" xmlns="http://www.w3.org/2000/svg">
    <style>
        .a{fill:none;stroke:#FFFFFF;stroke-linecap:round;stroke-linejoin:round}
    </style>
    <rect class="b" height="4" width="4" x="-6.1" y="32.2"/>
    <path class="a" d="M43.8,17.8c-0.8-1.3-2.1-2.3-3.6-3c-1.6-0.7-3.4-1.1-5.6-1.1h-9.3l-0.8,4h-2.5l0.8-4.1h-5L17,17.7h-2.5l0.8-4h-5l-0.8,4.1H5.4l-1,5h4.1L8,25.3H4l-1,5h4l-0.8,4h5l0.8-4h2.5l-0.8,4.1h5l0.8-4h2.5l-0.8,4h11c2.5,0,4.7-0.5,6.6-1.5c2-1,3.5-2.3,4.5-4.2c1.1-1.8,1.7-3.9,1.7-6.3C45,20.7,44.6,19.2,43.8,17.8z"/>
    <polygon class="a" points="13,25.3 13.5,22.8 16,22.8 15.5,25.3"/>
    <polygon class="a" points="20.5,25.3 21,22.8 23.5,22.8 23,25.3"/>
    <path class="a" d="M36.6,27.2c-1,1.1-2.4,1.7-4.2,1.7h-3.2l2-9.7h2.6c1.4,0,2.4,0.3,3.2,1c0.7,0.6,1.1,1.6,1.1,2.7C38,24.7,37.5,26.1,36.6,27.2z"/>
</svg>