<?xml version="1.0" encoding="UTF-8"?>
<svg width="48" height="48" version="1.1" viewBox="0 0 48 48" xml:space="preserve" xmlns="http://www.w3.org/2000/svg"><defs><style>.a{fill:none;stroke:#fff;stroke-linecap:round;stroke-linejoin:round;}</style></defs><g fill="none" stroke="#fff" stroke-linecap="round" stroke-linejoin="round"><path d="m40.584472 38.799494v1.852443c0 0.947034-0.771488 1.709453-1.729788 1.709453h-31.2519529c-0.9583001 0-1.7297885-0.762419-1.7297885-1.709453v-19.956064c0-0.947034 0.7714884-1.709452 1.7297885-1.709452h13.3237169" stop-color="#000000"/><path d="m40.584474 29.223346v2.901121" stop-color="#000000"/><path d="m40.584546 22.548207h0.972537c0.315766 0 0.569975 0.254209 0.569975 0.569975v5.535851c0 0.315766-0.254209 0.569975-0.569975 0.569975h-0.972537" stop-color="#000000"/><path d="m25.408508 18.986422 13.446176-1e-6c0.958301 0 1.729788 0.762417 1.729788 1.709452v1.852442" stop-color="#000000"/><path d="m20.794792 12.291856h-4.520303c-1.263063 0-2.2799-1.016836-2.2799-2.279899v-2.0934472c0-1.2630627 1.016837-2.2798991 2.2799-2.2798991h13.78581c1.263064 0 2.2799 1.0168364 2.2799 2.2798991v2.0934472c0 1.263063-1.016836 2.279899-2.2799 2.279899h-4.520303" stop-color="#000000"/><path d="m10.514797 22.223751h25.427822c0.315766 0 0.569975 0.254209 0.569975 0.569975v15.760359c0 0.315766-0.254209 0.569974-0.569975 0.569974h-25.427822c-0.315766 0-0.5699747-0.254208-0.5699747-0.569974v-15.760359c0-0.315766 0.2542087-0.569975 0.5699747-0.569975z" stop-color="#000000"/><path d="m40.584546 32.123803h0.972537c0.315766 0 0.569975 0.254209 0.569975 0.569975v5.535852c0 0.315766-0.254209 0.569975-0.569975 0.569975h-0.972537" stop-color="#000000"/><path d="m20.924545 18.986934c-0.0842-0.238469-0.129977-0.495384-0.129977-0.763385v-8.020605c0-1.2630632 1.016837-2.2798994 2.2799-2.2798994h0.185853c1.263063 0 2.279899 1.0168362 2.279899 2.2798994v8.020605c0 0.268001-0.04578 0.524916-0.129977 0.763385" stop-color="#000000"/><path d="m20.926448 18.986421 4.48206 1e-6" stop-color="#000000"/></g></svg>
