<?xml version="1.0" encoding="UTF-8" standalone="no"?>
<svg
   xmlns:dc="http://purl.org/dc/elements/1.1/"
   xmlns:cc="http://creativecommons.org/ns#"
   xmlns:rdf="http://www.w3.org/1999/02/22-rdf-syntax-ns#"
   xmlns:svg="http://www.w3.org/2000/svg"
   xmlns="http://www.w3.org/2000/svg"
   xmlns:sodipodi="http://sodipodi.sourceforge.net/DTD/sodipodi-0.dtd"
   xmlns:inkscape="http://www.inkscape.org/namespaces/inkscape"
   version="1.1"
   id="svg2"
   width="48"
   height="48"
   viewBox="0 0 48 48"
   sodipodi:docname="dsb-mobile.svg"
   inkscape:version="1.0.2-2 (e86c870879, 2021-01-15)">
  <metadata
     id="metadata8">
    <rdf:RDF>
      <cc:Work
         rdf:about="">
        <dc:format>image/svg+xml</dc:format>
        <dc:type
           rdf:resource="http://purl.org/dc/dcmitype/StillImage" />
        <dc:title></dc:title>
      </cc:Work>
    </rdf:RDF>
  </metadata>
  <defs
     id="defs6" />
  <sodipodi:namedview
     pagecolor="#ffffff"
     bordercolor="#666666"
     borderopacity="1"
     objecttolerance="10"
     gridtolerance="10"
     guidetolerance="10"
     inkscape:pageopacity="0"
     inkscape:pageshadow="2"
     inkscape:window-width="1920"
     inkscape:window-height="1017"
     id="namedview4"
     showgrid="false"
     showborder="true"
     inkscape:zoom="3.6166667"
     inkscape:cx="60.575665"
     inkscape:cy="74.860064"
     inkscape:window-x="-8"
     inkscape:window-y="-8"
     inkscape:window-maximized="1"
     inkscape:current-layer="g10"
     inkscape:document-rotation="0"
     inkscape:pagecheckerboard="true" />
  <g
     inkscape:groupmode="layer"
     inkscape:label="Image"
     id="g10">
    <path
       style="fill:#ffffff;stroke-width:0.129815"
       d="m 41.312892,41.601453 c -1.573408,-0.415943 -2.485965,-1.50133 -2.621499,-3.11799 -0.193294,-2.305603 1.034684,-3.753861 3.292198,-3.882766 2.173897,-0.12413 3.498794,1.004676 3.649376,3.109254 l 0.06362,0.889179 h -2.808466 c -3.129805,0 -3.092327,-0.01278 -2.553446,0.871016 0.58446,0.958555 2.107041,1.231789 3.366558,0.604146 l 0.686809,-0.342251 0.409655,0.412412 0.409655,0.412411 -0.324538,0.26346 c -0.839365,0.681397 -2.53976,1.053458 -3.569918,0.781129 z m 2.9838,-4.462744 c -0.534942,-1.852296 -3.594549,-1.852296 -4.147368,0 l -0.08718,0.292085 h 2.159448 2.159448 z M 16.508986,41.27582 c -2.51036,-1.168941 -2.490157,-5.139648 0.03251,-6.389074 0.737202,-0.365122 2.513504,-0.344636 3.230927,0.03726 1.730176,0.921005 2.372131,3.199246 1.403136,4.979608 -0.637355,1.171034 -1.568953,1.682002 -3.062966,1.679998 -0.719218,-9.29e-4 -1.10278,-0.07459 -1.603604,-0.307793 z m 2.861286,-1.301895 c 0.889229,-0.678248 1.142601,-2.045466 0.57054,-3.078688 -0.980842,-1.771543 -3.596119,-1.251405 -3.939929,0.78359 -0.168769,0.998935 0.418928,2.166679 1.289757,2.562728 0.566697,0.257733 1.558124,0.130145 2.079632,-0.26763 z m 6.349541,1.362521 c -0.293983,-0.133501 -0.628537,-0.376966 -0.743453,-0.54103 -0.26807,-0.382726 -0.42074,-0.219287 -0.464607,0.49738 -0.0064,0.104304 -0.218607,0.162269 -0.594102,0.162269 h -0.584167 v -4.803163 -4.803163 h 0.649076 0.649076 v 1.904948 1.904951 l 0.292084,-0.274203 c 1.449879,-1.361111 4.305075,-0.927888 5.179371,0.785871 0.391869,0.768124 0.490842,2.594812 0.184111,3.397977 -0.271948,0.712084 -1.270786,1.646754 -1.990127,1.862273 -0.769628,0.230586 -1.957799,0.1872 -2.577262,-0.09411 z m 2.097667,-1.163911 c 1.006554,-0.457215 1.474297,-1.348345 1.318279,-2.511548 -0.206261,-1.537782 -2.067458,-2.324157 -3.422022,-1.44584 -0.641909,0.41622 -0.961831,0.927706 -1.01349,1.620351 -0.05615,0.752748 0.164137,1.335235 0.697382,1.844082 0.777076,0.741524 1.533424,0.895601 2.419851,0.492955 z M 2.3034176,38.07987 v -3.375196 h 0.6328495 c 0.6071532,0 0.6361983,0.01675 0.7153371,0.412437 l 0.082483,0.412436 0.3556388,-0.331668 c 0.5320768,-0.49621 0.8545886,-0.62302 1.5845189,-0.62302 0.8484816,0 1.4326837,0.248063 1.8549825,0.787663 l 0.3362011,0.429584 0.3885809,-0.415976 c 0.9993079,-1.069763 3.0086706,-1.08986 4.0571706,-0.04058 0.633762,0.634233 0.766898,1.32704 0.766898,3.990737 v 2.142345 l -0.659642,-0.03924 -0.659643,-0.03924 -0.02189,-2.206859 C 11.717863,37.262897 11.682748,36.92311 11.466388,36.5656 10.866979,35.575143 9.257821,35.645647 8.7058104,36.686552 8.528946,37.020054 8.4720959,37.552831 8.429002,39.280658 L 8.374769,41.455063 H 7.7406737 7.1065767 V 39.37385 c 0,-2.28238 -0.1007782,-2.735671 -0.715759,-3.219415 -0.4831545,-0.38005 -1.3757834,-0.381218 -1.9076466,-0.0025 -0.6480547,0.461448 -0.7517908,0.906026 -0.7517908,3.221906 v 2.081213 H 3.0173967 2.303413 Z m 29.8575014,0 v -3.375196 h 0.649076 0.649077 v 3.375196 3.375195 h -0.649077 -0.649076 z m 3.375196,-1.427968 v -4.803163 h 0.713983 0.713984 v 4.803163 4.803163 h -0.713984 -0.713983 z m -3.367677,-3.431044 c -0.08475,-0.102115 -0.135713,-0.406968 -0.113258,-0.67745 0.03147,-0.37907 0.122654,-0.537355 0.397824,-0.69059 0.320542,-0.178503 0.393265,-0.17851 0.712269,-6.4e-5 0.851648,0.476404 0.614249,1.553768 -0.342376,1.553768 -0.275556,0 -0.569603,-0.08342 -0.654459,-0.185664 z M 22.359869,22.109741 C 21.374928,21.912043 20.326555,21.436003 19.527,20.823403 c -0.724875,-0.555382 -1.645756,-1.569519 -1.645756,-1.812418 0,-0.05263 0.214572,-0.198002 0.476827,-0.323063 0.421018,-0.200769 0.489693,-0.204385 0.586784,-0.0309 0.44574,0.79649 1.51075,1.602525 2.821496,2.135398 2.228553,0.905999 5.146023,0.526084 6.60848,-0.860563 0.539452,-0.511488 0.669923,-0.729925 0.805883,-1.349216 0.215466,-0.981447 0.01513,-1.723919 -0.635235,-2.354301 -0.901509,-0.873804 -2.138208,-1.334004 -4.757643,-1.770405 -2.826591,-0.470915 -4.604496,-1.343463 -5.201621,-2.552816 -0.362362,-0.733892 -0.334752,-2.2583008 0.05446,-3.0064847 0.411846,-0.7917027 1.251253,-1.5524732 2.197351,-1.9914987 1.607304,-0.7458498 5.20889,-0.8068072 6.684607,-0.1131394 0.598703,0.2814254 2.301617,1.7323501 2.301617,1.9610379 0,0.066122 -0.173323,0.2256267 -0.385162,0.3544542 L 29.053923,9.3437234 28.312829,8.6540179 C 27.161783,7.5827869 26.516328,7.3785352 24.3071,7.3864271 c -2.009355,0.00718 -2.497666,0.1253379 -3.605343,0.8724115 -0.711033,0.4795569 -1.26441,1.4298017 -1.259878,2.1634234 0.0046,0.738475 0.42718,1.505162 1.044482,1.894848 0.769017,0.48546 1.704755,0.783344 3.881218,1.23555 3.442455,0.715246 4.00128,0.914347 4.935671,1.758514 0.663572,0.599497 0.975138,1.426736 0.972632,2.582428 -0.0029,1.33317 -0.233761,1.968302 -0.977301,2.688596 -0.776593,0.752313 -1.70196,1.233614 -2.832515,1.473248 -0.920658,0.195144 -3.250966,0.225955 -4.106195,0.05429 z M 2.4332326,14.316271 V 6.5199426 l 3.6672816,0.040358 c 3.4244632,0.037686 3.7182681,0.059564 4.4373638,0.3304382 1.620824,0.6105443 3.067941,1.7387541 3.772655,2.941257 1.467524,2.5041441 1.612581,5.5576991 0.385634,8.1179091 -0.577346,1.20472 -1.219523,1.981629 -2.173405,2.629398 -1.852806,1.258216 -3.1535911,1.533295 -7.2505977,1.533295 H 2.4332326 Z m 6.7303269,6.50198 c 1.3158945,-0.249554 2.3625785,-0.78962 3.2795915,-1.692199 0.95546,-0.940418 1.451012,-1.800372 1.737368,-3.01492 0.412346,-1.748936 0.137705,-4.1417 -0.620144,-5.402887 C 12.90669,9.6204067 11.720056,8.5916261 10.529008,8.0801322 L 9.5081631,7.6417317 6.48996,7.5970548 3.4717551,7.552378 v 6.695943 6.695943 h 2.5136785 c 1.3825231,0 2.812681,-0.0567 3.1781259,-0.126011 z M 33.718701,14.31694 V 6.5212796 l 4.121634,0.039203 4.121633,0.039203 0.737115,0.3457249 c 1.966227,0.9222103 2.932285,2.8311587 2.385175,4.7131505 -0.164844,0.567041 -0.370359,0.899177 -0.858317,1.387134 -0.352867,0.352868 -0.826479,0.719321 -1.05247,0.814344 l -0.410893,0.172768 0.598799,0.264877 c 0.667756,0.295379 1.634923,1.196809 1.997679,1.861895 0.187671,0.344084 0.237738,0.722931 0.237738,1.798938 0,1.694628 -0.177606,2.10663 -1.258324,2.919022 -1.375124,1.033699 -2.507943,1.225338 -7.277027,1.231055 l -3.342742,0.004 z m 8.782304,6.33751 c 1.501262,-0.582044 2.122175,-1.366844 2.122175,-2.682316 0,-1.001 -0.126831,-1.310739 -0.855855,-2.090125 -1.050099,-1.12264 -1.458435,-1.217532 -5.472637,-1.271767 l -3.407649,-0.04604 v 3.200871 3.200873 l 3.537465,-0.05125 c 2.851006,-0.04131 3.642066,-0.09181 4.076501,-0.260242 z m 0.100329,-7.50359 c 0.418626,-0.215433 0.788377,-0.545257 1.070975,-0.955336 0.380524,-0.552176 0.43161,-0.726266 0.43161,-1.470817 0,-1.0932382 -0.436826,-1.9478359 -1.281676,-2.5074411 C 41.779738,7.52674 41.251619,7.4434794 37.914134,7.4434794 h -3.027095 v 3.0582876 3.058288 l 3.537465,-0.04008 c 3.493986,-0.03959 3.545322,-0.04413 4.17683,-0.36911 z"
       id="path837" />
  </g>
</svg>
