<?xml version="1.0" encoding="UTF-8"?>
<svg width="48" height="48" version="1.1" viewBox="0 0 48 48" xml:space="preserve" xmlns="http://www.w3.org/2000/svg"><defs><style>.a{fill:none;stroke:#fff;stroke-linecap:round;stroke-linejoin:round;}</style></defs><path d="m19.688459 4.8296026h8.623083c6.094399 0 11.000721 0.777889 11.000721 1.7441476v14.4139558c0 0.966259-4.906322 1.744146-11.000721 1.744146h-8.623083c-6.094398 0-11.0007214-0.777887-11.0007214-1.744146v-14.4139558c0-0.9662586 4.9063234-1.7441476 11.0007214-1.7441476z" fill="none" stop-color="#000000" stroke="#fff" stroke-linecap="round" stroke-linejoin="round"/><path d="m33.820442 23.233651c0.0021 0.01582 0.0034 0.03164 0.0034 0.04754v18.11523c0 0.982782-4.415255 1.773973-9.89967 1.773973-5.484413 0-9.899669-0.791191-9.899669-1.773973v-18.115232c0-0.01582 0.0012-0.03174 0.0034-0.04752" fill="none" stop-color="#000000" stroke="#fff" stroke-linecap="round" stroke-linejoin="round"/></svg>
