<svg xmlns="http://www.w3.org/2000/svg" xml:space="preserve" id="svg990" width="48" height="48" version="1.1"><defs id="defs987"><style id="style1174">.a{fill:none;stroke:#fff;stroke-linecap:round;stroke-linejoin:round}</style></defs><path id="path18998" d="M31.973 36.752c.492-.035.965-.04 1.415-.018m1.52.204a6.78 6.78 0 0 1 1.277.42m1.348.848c.333.288.625.615.875.981m.695 1.448c.173.543.28 1.138.32 1.784m-15.6-8.503c.466.08.893.3 1.28.631m1.008 1.235c.227.377.433.798.615 1.25m.468 1.39c.125.452.232.92.32 1.396m.214 1.542c.035.37.059.739.07 1.101M9.263 40.87a6.22 6.22 0 0 1 .197-1.28m.683-1.515c.228-.339.5-.646.815-.917m1.388-.834c.412-.166.865-.29 1.358-.368m1.42-.094c.508.008 1.049.057 1.622.152m15.903.64a.723.968 0 0 1-.723.967.723.968 0 0 1-.723-.968.723.968 0 0 1 .723-.968.723.968 0 0 1 .723.968zm-7.774-2.96a.922.922 0 0 1-.922.92.922.922 0 0 1-.921-.92.922.922 0 0 1 .921-.923.922.922 0 0 1 .922.922zm-7.209 1.914a.922.922 0 0 1-.922.922.922.922 0 0 1-.921-.922.922.922 0 0 1 .921-.921.922.922 0 0 1 .922.921zm4.573-11.326a2.162 1.602 0 0 1-1.613.536 2.162 1.602 0 0 1-1.615-.536m8.328 0a2.162 1.602 0 0 1-1.613.536 2.162 1.602 0 0 1-1.615-.536m.113 3.863a1.15 1.15 0 0 1-1.149 1.15 1.15 1.15 0 0 1-1.149-1.15 1.15 1.15 0 0 1 1.15-1.149 1.15 1.15 0 0 1 1.148 1.15zM33.34 42.5h7.16a2 2 0 0 0 2-2v-33a2 2 0 0 0-2-2h-33a2 2 0 0 0-2 2v33a2 2 0 0 0 2 2h6.171m.007-12.697a39.1 39.1 0 0 1 1.743-6.1m16.785-3.482c.31.713.467 1.388.446 1.954m-16.853-3.582c1.61-2.718 4.406-3.973 7.72-4.12 3.53-.156 6.485 2.153 8.014 4.505m1.491 10.135c1.273 6.395 1.443 13.387.315 13.387H13.67c-.9-3.999-.855-8.345.007-12.697-3.426-2.102-5.786-5.24-5.83-9.222m23.784 3.275c.555 1.576 1.02 3.391 1.392 5.257 1.923-3.125 4.001-6.126 7.907-7.678m-9.398-2.457c.27.418.497.836.673 1.243 4.506-1.829 10.082-3.73 8.948-8.348-.352-1.434-1.243-3.728-2.11-3.39l-.452.176c-.36.14-.102.8.03 1.176l.395 1.136c.302.865-1.086 1.43-1.5.627-.274-.53-.69-1.241-.794-1.468-.419-.907-1.609-.394-1.36.323l.483 1.396c.398 1.147-.77 2.212-1.323 1.143l-.634-1.229c-.645-1.25-2.075-.694-1.528.624l.981 2.362c.809 1.947-.17 3.27-1.81 4.23m-16.36.896a9.07 9.07 0 0 1 .627-1.282c-1.936-1.467-1.458-3.399-.115-6.422.51-1.149-.675-1.45-1.158-.727l-.944 1.413c-.614.918-1.894.355-1.599-.454l.676-1.85c.188-.514-.724-1.305-1.187-.478l-.772 1.38c-.542.968-2.045.45-1.666-.425l.613-1.415c.425-.98-.818-1.438-1.344-.713m24.349 13.273c-.027.687-.078 1.418-1.02 1.681-.109-.31-.222-.612-.338-.902-2.707-2.955-12.892-3.215-15.585 0-.098.25-.195.499-.288.75-.726-.047-.998-.925-.826-1.814.14-.73.335-1.402.578-2.015-4.758-2.044-11.514-3.911-6.87-10.973" style="fill:none;stroke:#fff;stroke-width:1;stroke-linecap:round;stroke-linejoin:round;stroke-dasharray:none;stroke-opacity:1;stop-color:#000"/></svg>