<svg viewBox="0 0 48 48" xmlns="http://www.w3.org/2000/svg">
    <style>
        .a{fill:none;stroke:#FFFFFF;stroke-linecap:round;stroke-linejoin:round}
    </style>
    <path class="a" d="M42.5411148,34.6380234c-3.5200958,5.3666267-8.4278831,8.4661598-14.8569012,9.1335983 c-4.8247604,0.5008965-9.3298206-0.3761253-13.3857851-3.0697021c-5.3992014-3.5856285-8.598978-8.5871391-9.2217484-15.0923157 c-0.4557219-4.7602558,0.6117711-9.1955547,3.3447142-13.1451006c3.1803198-4.5960851,7.6776657-7.1236787,13.1267548-8.0637932 c1.2558632-0.2166681,2.5238609-0.2845035,4.0040131-0.3063707c2.9905663,0.0134568,6.138319,0.4628758,8.8161659,2.2908721 c5.9698639,4.0752487,6.6618347,11.6177177,1.8872414,15.354353c-2.4098015,1.8859329-4.970808,3.1670113-7.9585495,3.6605186 c-2.8822441,0.4760818-5.7072144,0.1532936-8.4982777-0.6112728"/>
</svg>
