<?xml version="1.0" encoding="UTF-8" standalone="no"?>
<!-- Created with Inkscape (http://www.inkscape.org/) -->

<svg
   width="48"
   height="48"
   viewBox="0 0 48 48"
   version="1.1"
   id="svg5"
   xml:space="preserve"
   inkscape:version="1.2 (dc2aedaf03, 2022-05-15)"
   sodipodi:docname="ear(1).svg"
   xmlns:inkscape="http://www.inkscape.org/namespaces/inkscape"
   xmlns:sodipodi="http://sodipodi.sourceforge.net/DTD/sodipodi-0.dtd"
   xmlns="http://www.w3.org/2000/svg"
   xmlns:svg="http://www.w3.org/2000/svg"><sodipodi:namedview
     id="namedview7"
     pagecolor="#ffffff"
     bordercolor="#000000"
     borderopacity="0.25"
     inkscape:showpageshadow="2"
     inkscape:pageopacity="0.0"
     inkscape:pagecheckerboard="0"
     inkscape:deskcolor="#d1d1d1"
     inkscape:document-units="mm"
     showgrid="false"
     inkscape:zoom="16"
     inkscape:cx="27.78125"
     inkscape:cy="25.25"
     inkscape:window-width="1920"
     inkscape:window-height="1005"
     inkscape:window-x="0"
     inkscape:window-y="0"
     inkscape:window-maximized="1"
     inkscape:current-layer="layer4" /><defs
     id="defs2"><inkscape:path-effect
       effect="fillet_chamfer"
       id="path-effect4172"
       is_visible="true"
       lpeversion="1"
       nodesatellites_param="F,0,0,1,0,5.2916667,0,1 @ F,0,0,1,0,5.2916667,0,1 @ F,0,0,1,0,5.2916667,0,1 @ F,0,0,1,0,5.2916667,0,1"
       unit="px"
       method="auto"
       mode="F"
       radius="20"
       chamfer_steps="1"
       flexible="false"
       use_knot_distance="true"
       apply_no_radius="true"
       apply_with_radius="true"
       only_selected="false"
       hide_knots="false" /><clipPath
       clipPathUnits="userSpaceOnUse"
       id="clipPath2331"><path
         id="path2333"
         style="fill:#ff0000;fill-opacity:1;fill-rule:nonzero;stroke:none"
         d="m -24.957041,-9.2441136 -0.674331,-31.1442254 -16.254026,0.324601 0.674331,31.1442249 z m -7.906164,-0.645033 c -0.006,0.00132 -0.01469,5.205e-4 -0.02352,-0.00343 -0.015,-0.0067 -0.03042,-0.011725 -0.04533,-0.018629 -0.0029,-0.00144 -0.0051,-0.0041 -0.0079,-0.00574 -0.0013,5.099e-4 -0.0023,0.00185 -0.0039,0.00208 -0.006,8.716e-4 -0.0151,-6.987e-4 -0.02356,-0.00543 -0.02138,-0.011866 -0.03992,-0.025199 -0.05946,-0.039832 -0.02018,-0.015461 -0.03989,-0.033642 -0.05968,-0.0496 -0.02364,-0.01873 -0.0464,-0.03796 -0.06961,-0.05721 -0.0183,-0.01511 -0.03775,-0.03024 -0.05569,-0.04577 -0.02925,-0.02531 -0.0026,-0.05518 0.0267,-0.02984 0.01773,0.01536 0.03565,0.03087 0.05373,0.04581 0.02307,0.01914 0.04612,0.0386 0.06961,0.05721 0.0083,0.0067 0.01575,0.0141 0.0239,0.02102 0.0063,-3.99e-4 0.01105,-0.005 0.01957,0.0016 0.01768,0.01358 0.0354,0.027099 0.05361,0.039959 0.01608,0.010981 0.03212,0.021414 0.0495,0.030269 0.01503,0.007 0.03026,0.011629 0.04533,0.018629 0.02636,0.012147 0.02465,0.035066 0.0067,0.038934 z" /></clipPath><clipPath
       clipPathUnits="userSpaceOnUse"
       id="clipPath2403"><path
         id="path2405"
         style="fill:#ff0000;fill-opacity:1;fill-rule:nonzero;stroke:none"
         d="m -12.620872,-39.618767 -0.10537,-9.079392 -5.255507,0.06471 0.10537,9.079392 z m -5.188878,-0.926412 c -0.0037,8.1e-4 -0.0069,4.85e-4 -0.01172,1.44e-4 -0.0043,-3.12e-4 -0.0094,-0.0015 -0.01369,-0.0018 -0.0312,-0.0024 -0.0325,-0.0269 -0.01213,-0.03501 -0.0044,-0.01165 0.007,-0.02489 0.031,-0.02186 0.0036,4.56e-4 0.0062,0.0015 0.0098,0.0019 0.0039,1.34e-4 0.0078,-3e-4 0.01172,-1.44e-4 0.0022,1.51e-4 0.0037,0.0018 0.0059,0.0019 0.0052,2.09e-4 0.01045,-3.55e-4 0.01563,-1.92e-4 0.0012,4.5e-5 0.0013,-3.3e-5 0.002,-2.5e-5 0.0015,4.1e-5 0.0025,-2.04e-4 0.0039,-4.9e-5 6.59e-4,-7.8e-5 4.05e-4,-1.08e-4 0.0039,-4.8e-5 0.03623,6.54e-4 0.0381,0.03528 0.0064,0.03898 -0.0021,2.46e-4 -0.0034,1.16e-4 -0.0059,7.2e-5 -0.0021,-3.6e-5 -0.003,6.4e-5 -0.0039,4.8e-5 -0.0019,7.5e-5 -0.0041,1.21e-4 -0.0059,7.3e-5 -0.0016,4.1e-5 -0.0028,9.3e-5 -0.0039,4.8e-5 -0.0053,-4.25e-4 -0.01054,-0.0015 -0.01564,-0.0018 -2.9e-5,0.0081 -0.0054,0.01517 -0.01738,0.01779 z" /></clipPath><style
       id="style1359">.a{fill:none;stroke:#fff;stroke-linecap:round;stroke-linejoin:round;}</style></defs><g
     inkscape:groupmode="layer"
     id="layer4"
     inkscape:label="background"><path
       class="a"
       d="M 44.95946,0.49999999 H 3.0405405 A 2.5405406,2.5405406 0 0 0 0.49999999,3.0405405 V 44.95946 A 2.5405406,2.5405406 0 0 0 3.0405405,47.500001 H 44.95946 A 2.5405406,2.5405406 0 0 0 47.500001,44.95946 V 3.0405405 A 2.5405406,2.5405406 0 0 0 44.95946,0.49999999 Z"
       id="path1363"
       style="stroke:#ffffff;stroke-width:1;stroke-opacity:1" /></g><g
     inkscape:groupmode="layer"
     id="layer2"
     inkscape:label="icon"><path
       style="display:inline;opacity:1;fill:none;stroke:#ffffff;stroke-width:1;stroke-linejoin:round;stroke-dasharray:none;stroke-opacity:1"
       id="path912"
       sodipodi:type="arc"
       sodipodi:cx="24.026491"
       sodipodi:cy="24.02865"
       sodipodi:rx="11.265801"
       sodipodi:ry="11.296784"
       sodipodi:start="0"
       sodipodi:end="6.2831777"
       sodipodi:open="true"
       sodipodi:arc-type="arc"
       d="M 35.292293,24.02865 A 11.265801,11.296784 0 0 1 24.026513,35.325435 11.265801,11.296784 0 0 1 12.76069,24.028693 11.265801,11.296784 0 0 1 24.026427,12.731866 11.265801,11.296784 0 0 1 35.292293,24.028564" /><path
       style="opacity:1;fill:none;stroke:#ffffff;stroke-width:1;stroke-linejoin:round;stroke-dasharray:none;stroke-opacity:1"
       d="M 18.81643,0.05145638 34.422041,11.176472"
       id="path1015" /><path
       style="opacity:1;fill:none;stroke:#ffffff;stroke-width:0.999999;stroke-linejoin:round;stroke-dasharray:none;stroke-opacity:1"
       id="path1825"
       sodipodi:type="arc"
       sodipodi:cx="-26.202269"
       sodipodi:cy="-23.738359"
       sodipodi:rx="14.822462"
       sodipodi:ry="16.135908"
       sodipodi:start="2.0616269"
       sodipodi:end="4.7495801"
       sodipodi:open="true"
       sodipodi:arc-type="arc"
       d="m -33.188963,-9.5074298 a 14.822462,16.135908 0 0 1 -7.322186,-18.4416682 14.822462,16.135908 0 0 1 14.860017,-11.914011"
       transform="matrix(-0.99980066,-0.01996579,0.02164758,-0.99976566,0,0)"
       clip-path="url(#clipPath2331)" /><path
       style="opacity:1;fill:none;stroke:#ffffff;stroke-width:1;stroke-linejoin:round;stroke-dasharray:none;stroke-opacity:1"
       d="M 25.163301,40.376562 17.326532,40.275574"
       id="path1827" /><path
       style="opacity:1;fill:none;stroke:#ffffff;stroke-width:0.999995;stroke-linejoin:round;stroke-dasharray:none;stroke-opacity:1"
       id="path1829"
       sodipodi:type="arc"
       sodipodi:cx="-17.642254"
       sodipodi:cy="-44.440716"
       sodipodi:rx="4.4650397"
       sodipodi:ry="4.3836322"
       sodipodi:start="5.2374072"
       sodipodi:end="1.618206"
       sodipodi:open="true"
       sodipodi:arc-type="arc"
       d="m -15.404248,-48.233938 a 4.4650397,4.3836322 0 0 1 2.045394,5.030819 4.4650397,4.3836322 0 0 1 -4.495007,3.14111"
       transform="matrix(-0.99992421,-0.01231179,0.01160458,-0.99993266,0,0)"
       clip-path="url(#clipPath2403)" /><path
       style="opacity:1;fill:none;stroke:#ffffff;stroke-width:1;stroke-linejoin:round;stroke-dasharray:none;stroke-opacity:1"
       d="M 0.13727736,27.353649 5.5074308,31.055508"
       id="path1831" /><path
       style="opacity:1;fill:none;stroke:#ffffff;stroke-width:1;stroke-linejoin:round;stroke-dasharray:none;stroke-opacity:1"
       id="path1833"
       sodipodi:type="arc"
       sodipodi:cx="-3.2023733"
       sodipodi:cy="-35.093105"
       sodipodi:rx="4.1115294"
       sodipodi:ry="4.6413784"
       sodipodi:start="2.0854584"
       sodipodi:end="4.728198"
       sodipodi:open="true"
       sodipodi:arc-type="arc"
       d="m -5.2262355,-31.052975 a 4.1115294,4.6413784 0 0 1 -1.9438902,-5.256805 4.1115294,4.6413784 0 0 1 4.032749,-3.424124"
       transform="rotate(179.59299)" /><path
       style="opacity:1;fill:none;stroke:#ffffff;stroke-width:1;stroke-linejoin:round;stroke-dasharray:none;stroke-opacity:1"
       d="m 3.6110482,39.704439 c -1.2463901,0.02265 -2.4212111,-4.37e-4 -3.61907363,-0.0088"
       id="path1835"
       sodipodi:nodetypes="cc" /><path
       style="opacity:1;fill:none;stroke:#ffffff;stroke-width:1;stroke-linejoin:round;stroke-dasharray:none;stroke-opacity:1"
       d="m 18.856654,0.07890803 -0.77965,-0.5648288"
       id="path2089" /><path
       style="opacity:1;fill:none;stroke:#ffffff;stroke-width:1;stroke-linejoin:round;stroke-dasharray:none;stroke-opacity:1"
       d="m 14.711604,48.338533 0.543231,0.344359"
       id="path2481" /><path
       style="opacity:1;fill:none;stroke:#ffffff;stroke-width:1;stroke-linejoin:round;stroke-dasharray:none;stroke-opacity:1"
       d="M 0.17914462,27.384691 -0.38275027,26.961455"
       id="path2485" /></g></svg>
