<?xml version="1.0" encoding="UTF-8"?>
<svg version="1.1" viewBox="0 0 48 48" xml:space="preserve" xmlns="http://www.w3.org/2000/svg"><defs><style>.a{fill:none;stroke:#fff;stroke-linecap:round;stroke-linejoin:round;}</style><style>.a{fill:none;stroke:#fff;stroke-linecap:round;stroke-linejoin:round;}</style></defs><path class="a" d="m40.5 5.5h-33a2 2 0 0 0-2 2v33a2 2 0 0 0 2 2h33a2 2 0 0 0 2-2v-33a2 2 0 0 0-2-2z" stroke="#fff"/><circle cx="23.031" cy="25.389" r="12.726" fill="none" stroke="#fff" stroke-linecap="round" stroke-linejoin="round"/><path d="m35.74 16.286a15.491 15.349 0 0 1-0.53948 18.601" fill="none" stroke="#fff" stroke-linecap="round" stroke-linejoin="round"/><path d="m10.305 25.389v-12.091" fill="none" stroke="#fff" stroke-linecap="round" stroke-linejoin="round" stroke-width="1px"/><path transform="translate(.27573 -.036084)" d="m15.928 24c0.29584-0.97852 0.59168-1.957 1.2237-2.8445s1.6001-1.6837 2.6567-2.1387c1.0566-0.45508 2.2017-0.56896 3.3468-0.68284" fill="none" stroke="#fff" stroke-linecap="round" stroke-linejoin="round" stroke-width="1px"/><path transform="translate(.27573 -.036084)" d="m23.655 19.658c-0.22636-0.80249-0.45272-1.605-0.68031-2.184s-0.4564-0.93468-1.009-1.0784c-0.55263-0.14369-1.429-0.07545-2.2991 0.15851-0.87003 0.23396-1.7336 0.63364-2.439 1.1653-0.7054 0.53169-1.2526 1.1954-1.6346 1.8366-0.38198 0.64126-0.59874 1.2601-0.6911 2.0804-0.09235 0.82029-0.06029 1.842-0.02823 2.8638" fill="none" stroke="#fff" stroke-linecap="round" stroke-linejoin="round" stroke-width="1px"/><path transform="translate(.27573 -.036084)" d="m14.34 26.921c0.89182-0.42582 1.7836-0.85164 2.6755-1.2775" fill="none" stroke="#fff" stroke-linecap="round" stroke-linejoin="round" stroke-width="1px"/><path transform="translate(2.109 1.3951)" d="m13.218 27.456c1.2659-0.60443 2.5318-1.2089 3.7977-1.8133" fill="none" stroke="#fff" stroke-linecap="round" stroke-linejoin="round" stroke-width="1px"/><path transform="translate(2.7296 3.6183)" d="m13.72 27.217c1.0988-0.52465 2.1976-1.0493 3.2964-1.574" fill="none" stroke="#fff" stroke-linecap="round" stroke-linejoin="round" stroke-width="1px"/><path transform="translate(3.5736 5.5597)" d="m14.34 26.921c0.73621-0.35152 1.4724-0.70304 2.2086-1.0546" fill="none" stroke="#fff" stroke-linecap="round" stroke-linejoin="round" stroke-width="1px"/><path transform="translate(.27573 -.036084)" d="m27.542 25c0.97112 1.4625 1.9422 2.925 2.4336 3.8453 0.49136 0.92027 0.50294 1.2982 0.37208 1.598-0.13087 0.29972-0.40417 0.52118-0.6854 0.65159-0.28124 0.13042-0.57039 0.16979-0.82807 0.07199-0.25769-0.0978-0.48389-0.33277-0.90499-0.9217s-1.0371-1.5318-1.6531-2.4747" fill="none" stroke="#fff" stroke-linecap="round" stroke-linejoin="round" stroke-width="1px"/><path transform="translate(.27573 -.036084)" d="m28.834 31.167c-0.13885 0.45174-0.27769 0.90348-0.54814 1.2159-0.27045 0.31244-0.6725 0.48559-1.0713 0.46122-0.39877-0.02438-0.79427-0.24628-1.3036-0.83223-0.50936-0.58595-1.1326-1.5359-1.7558-2.4859" fill="none" stroke="#fff" stroke-linecap="round" stroke-linejoin="round" stroke-width="1px"/><path transform="translate(.27573 -.036084)" d="m25.911 32.012c-0.13063 0.41103-0.26125 0.82206-0.55389 1.1363-0.29264 0.31424-0.74726 0.53168-1.1207 0.49925-0.3734-0.03244-0.66557-0.31474-1.1095-0.91822-0.44391-0.60348-1.0395-1.5281-1.6352-2.4527" fill="none" stroke="#fff" stroke-linecap="round" stroke-linejoin="round" stroke-width="1px"/><path transform="translate(.27573 -.036084)" d="m23.413 33.096c-0.21931 0.38869-0.43862 0.77738-0.8093 1.0506-0.37068 0.27323-0.89269 0.43099-1.294 0.32769-0.40133-0.1033-0.68194-0.46767-0.96254-0.83205" fill="none" stroke="#fff" stroke-linecap="round" stroke-linejoin="round" stroke-width="1px"/><path transform="translate(.27573 -.036084)" d="m25.304 24c1.336-0.61709 2.6721-1.2342 3.4593-1.2342 0.78726 6e-6 1.0257 0.61708 1.1295 1.306 0.10377 0.68887 0.07281 1.4495-0.04643 2.0196-0.11924 0.57011-0.32678 0.94968-0.53431 1.3293" fill="none" stroke="#fff" stroke-linecap="round" stroke-linejoin="round" stroke-width="1px"/><path d="m16.704 11.281a15.491 15.349 0 0 1 16.502 2.2748" fill="none" stroke="#fff" stroke-linecap="round" stroke-linejoin="round"/><circle cx="34.535" cy="14.842" r=".60007" fill="#fff"/></svg>
