<?xml version="1.0" encoding="UTF-8" standalone="no"?>
<svg
   viewBox="0 0 48 48"
   version="1.1"
   id="svg10"
   xmlns="http://www.w3.org/2000/svg"
   xmlns:svg="http://www.w3.org/2000/svg">
  <defs
     id="defs4">
    <style
       id="style2">.a{fill:none;stroke:#fff;stroke-linecap:round;stroke-linejoin:round;}</style>
  </defs>
  <path
     class="a"
     d="M 29.5573,42.5 15.7235,30.6662 H 6.3911 l -3e-4,-13.3324 h 9.3324 L 29.5573,5.5 Z"
     id="path6" />
  <path
     class="a"
     d="m 38.059426,11.170621 c 0,0 5.370577,0.811983 5.368999,2.387011 -0.0018,2.302877 -7.857072,1.178185 -7.857072,3.481058 0,2.302881 7.857072,1.178186 7.857072,3.481062 0,2.302878 -7.857072,1.178182 -7.857072,3.481058 0,2.30288 7.857072,1.178187 7.857072,3.481064 0,2.302874 -7.766234,1.17921 -7.857072,3.481058 -0.0943,2.389623 7.974135,1.589314 7.857072,3.978354 -0.07269,1.48347 -5.107098,2.188093 -5.107098,2.188093"
     id="path1288" />
</svg>
