<svg width="48" height="48" version="1.1" viewBox="0 0 48 48" xmlns="http://www.w3.org/2000/svg">
 <defs>
  <style>.a{fill:none;stroke:#fff;stroke-linecap:round;stroke-linejoin:round;}</style>
 </defs>
 <g fill="none" stroke="#fff" stroke-linejoin="round" stroke-width="1px">
  <path d="m35.059 20.597s-0.69385 1.1946-0.04908 2.7857l-8.353 10.09a1.4867 1.4867 163.54 0 1-1.5916 0.4701l-10.253-3.2267c-0.52681-0.1658-1.3655-0.51763-1.7092-0.94518-0.25442-0.31653-0.50674-0.76583-0.63722-1.3825-0.11404-0.53894-0.10414-1.4469 0.0073-1.9871 0.38442-1.8635 1.7587-1.3152 1.7587-1.3152" stroke-linecap="round"/>
  <path d="m14.232 25.087 10.455 3.5353a1.4777 1.4777 164.59 0 0 1.5969-0.44l9.5192-11.143a0.60031 0.60031 71.484 0 0-0.3269-0.9761l-11.3-2.4972a1.6637 1.6637 161.45 0 0-1.6251 0.54527l-9.561 11.217" stroke-linecap="round"/>
  <path d="m21.591 18.399 7.6273 2.1764 1.9149-2.1587-7.8604-1.8803z"/>
 </g>
</svg>
