<?xml version="1.0" encoding="UTF-8"?>
<svg version="1.1" viewBox="0 0 48 48" xml:space="preserve" xmlns="http://www.w3.org/2000/svg"><defs><style>.a{fill:none;stroke:#fff;stroke-linecap:round;stroke-linejoin:round;}</style></defs><circle class="a" cx="24" cy="24" r="21.5"/><path d="m9.967 26.222c0.8794-0.13511 7.1729-1.2065 7.3501-4.2219 0.23402-3.9821-6.2175-2.8767-7.2623 3.4862-0.73075 4.4503 2.7862 5.8798 5.6481 4.0921 3.5802-2.2364 5.8811-10.547 11.013-9.8058 1.3326 0.19236 2.146 1.1875 2.1835 2.6362 0.03612 1.396-0.63584 2.6799-0.8642 4.0591-0.43264 2.6131 1.2154 3.6724 2.358 3.7616 2.3427 0.18299 4.8416-3.2097 5.5195-5.4045 1.536-4.9725-3.9069-6.6441-5.7244-3.2767m-3.3836 7.2404c-0.89219 1.1453-2.3349 1.6589-3.7647 1.4134-2.0594-0.35368-3.0848-2.1899-2.2922-4.5089m1.5456-5.9425c0.95304-2.8575 1.254-4.3366 1.3422-5.5095-0.30201-1.057-1.3031-0.72152-2.2114-0.46248" fill="none" stroke="#fff" stroke-linecap="round" stroke-linejoin="round" stroke-width="1px"/><path d="m37.375 19.549-1.462 5.2757c-0.20987 0.75734-0.46972 1.4998-0.68776 2.2548-0.10902 0.37752-0.19854 0.7637-0.21345 1.1564-0.01491 0.39266 0.04955 0.79623 0.24346 1.138 0.12387 0.21832 0.30035 0.40827 0.51557 0.53744s0.46945 0.19588 0.71974 0.17693c0.24261-0.01837 0.47456-0.11542 0.67757-0.24952s0.37945-0.30449 0.54634-0.48154c0.66742-0.70806 1.2019-1.541 1.5675-2.4427" fill="none" stroke="#fff" stroke-linecap="round" stroke-linejoin="round" stroke-width="1px"/></svg>
