<svg xmlns="http://www.w3.org/2000/svg" viewBox="0 0 48 48"><defs><style>.a{fill:none;stroke:#fff;stroke-linecap:round;stroke-linejoin:round;}</style></defs><path class="a" d="M38.5,24.81v3.36A2.48,2.48,0,0,1,36,30.65h0a2.45,2.45,0,0,1-1.76-.73"/><path class="a" d="M38.5,20.7v4.11A2.49,2.49,0,0,1,36,27.3h0a2.49,2.49,0,0,1-2.48-2.49V20.7"/><path class="a" d="M14.15,26A2.5,2.5,0,0,1,12,27.3h0A2.49,2.49,0,0,1,9.5,24.81V23.19A2.49,2.49,0,0,1,12,20.7h0a2.49,2.49,0,0,1,2.48,2.49V24h-5"/><path class="a" d="M30.49,24.81A2.49,2.49,0,0,1,28,27.3h0a2.49,2.49,0,0,1-2.48-2.49V23.19A2.49,2.49,0,0,1,28,20.7h0a2.49,2.49,0,0,1,2.49,2.49"/><line class="a" x1="30.49" y1="27.3" x2="30.49" y2="20.7"/><path class="a" d="M17.51,23.19A2.49,2.49,0,0,1,20,20.7h0a2.49,2.49,0,0,1,2.48,2.49v1.62A2.49,2.49,0,0,1,20,27.3h0a2.49,2.49,0,0,1-2.49-2.49"/><line class="a" x1="17.51" y1="27.3" x2="17.51" y2="17.35"/><path class="a" d="M40.5,42.5H7.5a2,2,0,0,1-2-2V7.5a2,2,0,0,1,2-2h33a2,2,0,0,1,2,2v33A2,2,0,0,1,40.5,42.5Z"/></svg>