<?xml version="1.0" encoding="UTF-8" standalone="no"?>
<svg
   xmlns:dc="http://purl.org/dc/elements/1.1/"
   xmlns:cc="http://creativecommons.org/ns#"
   xmlns:rdf="http://www.w3.org/1999/02/22-rdf-syntax-ns#"
   xmlns:svg="http://www.w3.org/2000/svg"
   xmlns="http://www.w3.org/2000/svg"
   xmlns:sodipodi="http://sodipodi.sourceforge.net/DTD/sodipodi-0.dtd"
   xmlns:inkscape="http://www.inkscape.org/namespaces/inkscape"
   width="48"
   height="48"
   viewBox="0 0 48 48"
   version="1.1"
   id="svg8"
   inkscape:version="1.0.2-2 (e86c870879, 2021-01-15)"
   sodipodi:docname="ecole directe.svg">
  <defs
     id="defs2">
    <style
       id="style2584">.a{fill:none;stroke:#fff;stroke-linecap:round;stroke-linejoin:round;}</style>
  </defs>
  <sodipodi:namedview
     id="base"
     pagecolor="#787878"
     bordercolor="#ffffff"
     borderopacity="1"
     inkscape:pageopacity="0"
     inkscape:pageshadow="2"
     inkscape:zoom="11.2"
     inkscape:cx="16.550343"
     inkscape:cy="26.070217"
     inkscape:document-units="px"
     inkscape:current-layer="layer1"
     inkscape:document-rotation="0"
     showgrid="false"
     units="px"
     showborder="true"
     inkscape:showpageshadow="false"
     borderlayer="true"
     inkscape:snap-global="false"
     inkscape:object-paths="true"
     inkscape:window-width="1920"
     inkscape:window-height="1009"
     inkscape:window-x="-8"
     inkscape:window-y="-8"
     inkscape:window-maximized="1"
     showguides="true"
     inkscape:guide-bbox="true"
     inkscape:snap-bbox="true"
     inkscape:snap-bbox-midpoints="true"
     inkscape:snap-center="true"
     inkscape:snap-object-midpoints="true"
     inkscape:snap-smooth-nodes="true" />
  <metadata
     id="metadata5">
    <rdf:RDF>
      <cc:Work
         rdf:about="">
        <dc:format>image/svg+xml</dc:format>
        <dc:type
           rdf:resource="http://purl.org/dc/dcmitype/StillImage" />
        <dc:title />
      </cc:Work>
    </rdf:RDF>
  </metadata>
  <g
     inkscape:label="Calque 1"
     inkscape:groupmode="layer"
     id="layer1">
    <g
       id="g6954"
       transform="translate(-145.94362,-117.21854)"
       style="stroke:#ff00ff" />
    <g
       id="g2635"
       transform="matrix(0.82976586,0,0,0.82658861,4.0860768,12.757176)"
       style="stroke-width:1.20747">
      <path
         class="st5"
         d="m 5.4794199,20.169986 c -0.4589111,0.807553 -1.3237523,1.351856 -2.3150445,1.351856 v 0 c -1.4714915,0 -2.66436996,-1.199363 -2.66436996,-2.678852 v -1.741254 c 0,-1.47949 1.19287846,-2.678853 2.66436996,-2.678853 v 0 c 1.4714916,0 2.66437,1.199363 2.66437,2.678853 v 0.870627 H 0.50000544"
         id="path7070"
         style="fill:none;stroke:#ffffff;stroke-width:1.20747;stroke-linecap:round;stroke-linejoin:round;stroke-miterlimit:10" />
      <line
         class="st5"
         x1="2.2318208"
         y1="12.145854"
         x2="4.0969224"
         y2="11.476141"
         id="line7072"
         style="fill:none;stroke:#ffffff;stroke-width:1.20747;stroke-linecap:round;stroke-linejoin:round;stroke-miterlimit:10" />
      <path
         class="st5"
         d="m 19.088293,21.521842 v 0 c -1.471491,0 -2.66437,-1.199365 -2.66437,-2.678852 v -1.741258 c 0,-1.479488 1.192879,-2.678853 2.66437,-2.678853 v 0 c 1.471492,0 2.66437,1.199365 2.66437,2.678853 v 1.741258 c 0,1.479487 -1.192878,2.678852 -2.66437,2.678852 z"
         id="path6860"
         style="fill:none;stroke:#ffffff;stroke-width:1.20747;stroke-linecap:round;stroke-linejoin:round;stroke-miterlimit:10" />
      <path
         class="st5"
         d="m 24.561287,10.806428 v 9.375988 c 0,0.739743 0.59642,1.339426 1.332185,1.339426 h 0.399629"
         id="path6982"
         style="fill:none;stroke:#ffffff;stroke-width:1.20747;stroke-linecap:round;stroke-linejoin:round;stroke-miterlimit:10" />
      <path
         class="st5"
         d="m 13.6153,20.172575 c -0.459269,0.806136 -1.323332,1.349267 -2.313558,1.349267 v 0 c -1.4714858,0 -2.6643642,-1.199365 -2.6643642,-2.678852 v -1.741258 c 0,-1.479488 1.1928784,-2.678853 2.6643642,-2.678853 v 0 c 0.988324,0 1.850954,0.541046 2.310895,1.344613"
         id="path7000"
         style="fill:none;stroke:#ffffff;stroke-width:1.20747;stroke-linecap:round;stroke-linejoin:round;stroke-miterlimit:10" />
      <path
         class="st5"
         d="m 34.08114,20.169986 c -0.458911,0.807553 -1.323752,1.351856 -2.315044,1.351856 v 0 c -1.471492,0 -2.66437,-1.199363 -2.66437,-2.678852 v -1.741254 c 0,-1.47949 1.192878,-2.678853 2.66437,-2.678853 v 0 c 1.471491,0 2.66437,1.199363 2.66437,2.678853 v 0.870627 h -5.32874"
         id="path7070-9"
         style="fill:none;stroke:#ffffff;stroke-width:1.20747;stroke-linecap:round;stroke-linejoin:round;stroke-miterlimit:10" />
      <path
         id="line7138"
         style="fill:none;stroke:#ffffff;stroke-width:1.20747;stroke-linecap:round;stroke-linejoin:round;stroke-miterlimit:10"
         d="M 5.8287387,37.193573 V 26.478164 m 0,6.295302 c 0,-1.47949 -1.1928784,-2.678852 -2.66437,-2.678852 v 0 c -1.4714916,0 -2.66436997,1.199362 -2.66436997,2.678852 v 1.741254 c 0,1.47949 1.19287837,2.678853 2.66436997,2.678853 v 0 c 1.4714916,0 2.66437,-1.199363 2.66437,-2.678853" />
      <path
         id="line6886"
         style="fill:none;stroke:#ffffff;stroke-width:1.20747;stroke-linecap:round;stroke-linejoin:round;stroke-miterlimit:10"
         d="m 13.04196,30.09461 v 7.098963 m -2e-6,-4.420111 c 0,-1.479487 1.192879,-2.678852 2.66437,-2.678852 v 0" />
      <ellipse
         class="st6"
         cx="9.4353485"
         cy="26.813023"
         id="circle6908"
         style="fill:#ffffff;stroke:none;stroke-width:1.20747"
         rx="0.93252951"
         ry="0.93759823" />
      <line
         class="st5"
         x1="9.4353485"
         y1="30.094614"
         x2="9.4353485"
         y2="37.193573"
         id="line6910"
         style="fill:none;stroke:#ffffff;stroke-width:1.20747;stroke-linecap:round;stroke-linejoin:round;stroke-miterlimit:10" />
      <path
         id="line6956"
         style="fill:none;stroke:#ffffff;stroke-width:1.20747;stroke-linecap:round;stroke-linejoin:round;stroke-miterlimit:10"
         d="m 36.033504,30.094609 h 2.797591 m -1.398794,-2.210034 v 9.308998" />
      <path
         class="st5"
         d="m 24.025913,35.841717 c -0.458911,0.807553 -1.323752,1.351856 -2.315045,1.351856 v 0 c -1.471491,0 -2.66437,-1.199363 -2.66437,-2.678853 v -1.741254 c 0,-1.47949 1.192879,-2.678852 2.66437,-2.678852 v 0 c 1.471492,0 2.66437,1.199362 2.66437,2.678852 v 0.870627 h -5.32874"
         id="path7070-9-7"
         style="fill:none;stroke:#ffffff;stroke-width:1.20747;stroke-linecap:round;stroke-linejoin:round;stroke-miterlimit:10" />
      <path
         class="st5"
         d="m 47.150673,35.841717 c -0.458911,0.807553 -1.323752,1.351856 -2.315045,1.351856 v 0 c -1.471491,0 -2.66437,-1.199363 -2.66437,-2.678853 v -1.741254 c 0,-1.47949 1.192879,-2.678852 2.66437,-2.678852 v 0 c 1.471492,0 2.66437,1.199362 2.66437,2.678852 v 0.870627 h -5.32874"
         id="path7070-9-3"
         style="fill:none;stroke:#ffffff;stroke-width:1.20747;stroke-linecap:round;stroke-linejoin:round;stroke-miterlimit:10" />
      <path
         class="st5"
         d="m 32.693335,35.844306 c -0.459269,0.806136 -1.323333,1.349267 -2.313558,1.349267 v 0 c -1.471489,0 -2.66437,-1.199365 -2.66437,-2.678853 v -1.741258 c 0,-1.479487 1.192881,-2.678852 2.66437,-2.678852 v 0 c 0.988324,0 1.850954,0.541045 2.310895,1.344613"
         id="path7000-9"
         style="fill:none;stroke:#ffffff;stroke-width:1.20747;stroke-linecap:round;stroke-linejoin:round;stroke-miterlimit:10" />
    </g>
    <rect
       class="a"
       x="0.5"
       y="0.5"
       width="47"
       height="47"
       rx="1.516129"
       id="rect2592"
       style="stroke-width:1" />
  </g>
</svg>
