<svg xmlns="http://www.w3.org/2000/svg" viewBox="0 0 48 48"><defs><style>.a{fill:none;stroke:#fff;stroke-linecap:round;stroke-linejoin:round;}</style></defs> <path class="a"             d="M14.00,26.00L22.00,10.50C23.50,7.00,28.50,8.50,26.50,13.00L17.50,30.50C14.50,37.00,12.00,30.50,14.00,26.00z"/> <path class="a"             d="M30.50,22.25L23.50,36.00C20.50,41.50,17.00,38.00,18.50,34.50L26.00,20.00C27.00,18.00,31.50,19.00,30.50,22.25z"/> <path class="a"             d="M26.00,37.00L29.00,31.50C29.90,29.83,30.80,28.17,32.00,28.00C33.20,27.83,34.70,29.17,35.00,30.50C35.30,31.83,34.40,33.17,33.50,34.50C32.50,36.00,31.50,36.50,31.50,36.50C29.50,38.00,24.50,39.50,26.00,37.00"/></svg>