<?xml version="1.0" encoding="UTF-8"?>
<svg version="1.1" viewBox="0 0 48 48" xml:space="preserve" xmlns="http://www.w3.org/2000/svg"><defs><style>.a{fill:none;stroke:#fff;stroke-linecap:round;stroke-linejoin:round;}</style></defs><circle class="a" cx="24" cy="24" r="21.5"/><path d="m24.635 37.151c5.8509-0.83285 11.22-2.7596 10.162-4.0339-1.8647-2.2468-19.972 0.36001-16.797-4.8459 0.98452-1.6145 3.7775-2.881 9.2379-4.1891 6.6372-1.59-8.6126-4.1554-7.2061-6.7836 1.3986-2.6133 10.951-0.54486 12.216-3.5997 0.44972-1.0857-0.04909-2.8943-1.7641-3.7607-2.6986-1.2044-5.9687 0.058557-8.576 1.0551-0.38066 0.38066 6.2826-0.34439 6.2826 1.0249 0 2.28-13.32 0.42516-13.667 3.9138-0.30394 3.0568 8.917 6.4729 9.7304 6.7681-6.3233 0.35938-12.315 1.6926-13.233 5.349-0.48213 1.921 1.564 3.8018 5.6726 5.2145 5.3326 1.8336 12.259 0.51018 12.259 1.2346 0 0.76842-10.667 2.9632-10.667 3.2472 0 0.16731 2.9158-0.10565 6.3492-0.59439z" fill="none" stroke="#fff" stroke-linecap="round" stroke-linejoin="round"/></svg>
