<?xml version="1.0" encoding="UTF-8" standalone="no"?>
<svg
   version="1.2"
   viewBox="0 0 48 48"
   id="svg24"
   xmlns="http://www.w3.org/2000/svg"
   xmlns:svg="http://www.w3.org/2000/svg">
  <defs
     id="defs1" />
  <path
     d="M 12.019524,31.984895 9.7737813,33.04305 C 9.5024602,33.170731 9.178805,33.054757 9.0506862,32.783969 L 3.9460886,21.983333 c -0.1280577,-0.270849 -0.011969,-0.594076 0.2592908,-0.72194 h 1.832e-4 c 0,0 2.245681,-1.058522 2.245681,-1.058522"
     fill="none"
     stroke="#ffffff"
     stroke-linecap="round"
     stroke-linejoin="round"
     stroke-width="1"
     id="path1" />
  <path
     d="m 27.144681,14.060278 2.749851,-0.739623 -0.867764,16.225373 -2.370625,-1.47071"
     fill="none"
     stroke="#ffffff"
     stroke-linecap="round"
     stroke-linejoin="round"
     stroke-width="1"
     id="path2" />
  <path
     d="M 33.098111,16.370001 36.08368,16.084029 32.728655,31.18259 30.968701,29.204569"
     fill="none"
     stroke="#ffffff"
     stroke-linecap="round"
     stroke-linejoin="round"
     stroke-width="1"
     id="path3" />
  <path
     d="m 21.008049,13.037123 2.592908,-1.08779 1.351415,16.743049 -2.413371,-1.028643"
     fill="none"
     stroke="#ffffff"
     stroke-linecap="round"
     stroke-linejoin="round"
     stroke-width="1"
     id="path4" />
  <path
     d="m 14.953858,13.990767 2.370624,-1.42498 3.753183,16.455249 -2.446958,-0.629869"
     fill="none"
     stroke="#ffffff"
     stroke-linecap="round"
     stroke-linejoin="round"
     stroke-width="1"
     id="path5" />
  <path
     d="m 9.3222516,17.509618 2.2802444,-1.95363 6.037093,14.390644 h -2.755958"
     fill="none"
     stroke="#ffffff"
     stroke-linecap="round"
     stroke-linejoin="round"
     stroke-width="1"
     id="path6" />
  <path
     d="M 6.0252397,20.403479 5.0457236,18.330948 8.5711264,16.669387 15.943145,32.26733 12.417132,33.928281 11.593336,32.185624"
     fill="none"
     stroke="#ffffff"
     stroke-linecap="round"
     stroke-linejoin="round"
     stroke-width="1"
     id="path7" />
  <path
     d="M 6.364162,22.75314 4.6703442,23.541786"
     fill="none"
     stroke="#ffffff"
     stroke-linecap="round"
     stroke-linejoin="round"
     stroke-width="1"
     id="path8" />
  <path
     d="M 7.3259075,24.638295 5.6320898,25.426942"
     fill="none"
     stroke="#ffffff"
     stroke-linecap="round"
     stroke-linejoin="round"
     stroke-width="1"
     id="path9" />
  <path
     d="M 8.298584,26.544852 6.6047662,27.333499"
     fill="none"
     stroke="#ffffff"
     stroke-linecap="round"
     stroke-linejoin="round"
     stroke-width="1"
     id="path10" />
  <path
     d="M 9.2167887,28.478178 7.5229709,29.266825"
     fill="none"
     stroke="#ffffff"
     stroke-linecap="round"
     stroke-linejoin="round"
     stroke-width="1"
     id="path11" />
  <path
     d="M 10.169069,30.408393 8.4753122,31.197102"
     fill="none"
     stroke="#ffffff"
     stroke-linecap="round"
     stroke-linejoin="round"
     stroke-width="1"
     id="path12" />
  <circle
     style="fill:none;stroke:#ffffff;stroke-linecap:round;stroke-linejoin:round;stroke-dashoffset:0.5"
     id="path25-8"
     cx="35"
     cy="28.900003"
     r="0.5" />
  <circle
     style="fill:none;stroke:#ffffff;stroke-linecap:round;stroke-linejoin:round;stroke-dashoffset:0.5"
     id="path25-74"
     cx="37.299995"
     cy="24.699999"
     r="0.5" />
  <circle
     style="fill:none;stroke:#ffffff;stroke-linecap:round;stroke-linejoin:round;stroke-dashoffset:0.5"
     id="path25-9"
     cx="36.700005"
     cy="27.700003"
     r="0.5" />
  <circle
     style="fill:none;stroke:#ffffff;stroke-linecap:round;stroke-linejoin:round;stroke-dashoffset:0.5"
     id="path25-0"
     cx="35.600006"
     cy="25.899996"
     r="0.5" />
  <circle
     style="fill:none;stroke:#ffffff;stroke-linecap:round;stroke-linejoin:round;stroke-dashoffset:0.5"
     id="path25-2"
     cx="38"
     cy="21.699999"
     r="0.5" />
  <circle
     style="fill:none;stroke:#ffffff;stroke-linecap:round;stroke-linejoin:round;stroke-dashoffset:0.5"
     id="path25-60"
     cx="36.900002"
     cy="19.9"
     r="0.5" />
  <circle
     style="fill:none;stroke:#ffffff;stroke-linecap:round;stroke-linejoin:round;stroke-dashoffset:0.5"
     id="path25-68"
     cx="12.500002"
     cy="28.799999"
     r="0.5" />
  <circle
     style="fill:none;stroke:#ffffff;stroke-linecap:round;stroke-linejoin:round;stroke-dashoffset:0.5"
     id="path25-7"
     cx="11.300001"
     cy="26.400002"
     r="0.5" />
  <circle
     style="fill:none;stroke:#ffffff;stroke-linecap:round;stroke-linejoin:round;stroke-dashoffset:0.5"
     id="path25-6"
     cx="10.1"
     cy="23.9"
     r="0.5" />
  <path
     d="m 32.554593,31.936901 3.822237,-16.819572 4.519019,1.02384 -3.822237,16.819573 -4.519019,-1.023841"
     fill="none"
     stroke="#ffffff"
     stroke-linecap="round"
     stroke-linejoin="round"
     stroke-width="1"
     id="path24" />
  <circle
     style="fill:none;stroke:#ffffff;stroke-linecap:round;stroke-linejoin:round;stroke-dashoffset:0.5"
     id="path25"
     cx="8.9951153"
     cy="21.463648"
     r="0.5" />
  <circle
     style="fill:none;stroke:#ffffff;stroke-linecap:round;stroke-linejoin:round;stroke-dashoffset:0.5"
     id="path25-29"
     cx="36.299995"
     cy="22.9"
     r="0.5" />
  <path
     style="fill:none;stroke:#ffffff;stroke-linecap:round;stroke-linejoin:round;stroke-dashoffset:0.5"
     d="m 17.639589,29.946632 0.991118,-1.555465"
     id="path27" />
  <path
     style="fill:none;stroke:#ffffff;stroke-linecap:round;stroke-linejoin:round;stroke-dashoffset:0.5"
     d="m 21.077665,29.021036 1.461336,-1.357297"
     id="path28" />
  <path
     style="fill:none;stroke:#ffffff;stroke-linecap:round;stroke-linejoin:round;stroke-dashoffset:0.5"
     d="m 24.952372,28.692382 1.703771,-0.617064"
     id="path29" />
  <path
     style="fill:none;stroke:#ffffff;stroke-linecap:round;stroke-linejoin:round;stroke-dashoffset:0.5"
     d="m 29.026768,29.546028 1.941933,-0.341459"
     id="path30" />
  <path
     style="fill:none;stroke:#ffffff;stroke-linecap:round;stroke-linejoin:round;stroke-dashoffset:0.5"
     d="m 14.953858,13.990767 -3.351362,1.565221"
     id="path31" />
  <path
     style="fill:none;stroke:#ffffff;stroke-linecap:round;stroke-linejoin:round;stroke-dashoffset:0.5"
     d="M 21.008049,13.037123 17.324482,12.565787"
     id="path32" />
  <path
     style="fill:none;stroke:#ffffff;stroke-linecap:round;stroke-linejoin:round;stroke-dashoffset:0.5"
     d="m 23.600957,11.949333 3.543724,2.110945"
     id="path33" />
  <path
     style="fill:none;stroke:#ffffff;stroke-linecap:round;stroke-linejoin:round;stroke-dashoffset:0.5"
     d="m 29.894532,13.320655 3.203579,3.049346"
     id="path34" />
</svg>
