<?xml version="1.0" encoding="UTF-8" standalone="no"?>
<svg
   version="1.2"
   viewBox="0 0 48 48"
   id="svg22"
   xmlns="http://www.w3.org/2000/svg"
   xmlns:svg="http://www.w3.org/2000/svg">
  <defs
     id="defs1" />
  <path
     d="M 40.255187,18.089042 A 7.3144946,7.3144946 0 0 0 29.910951,7.7448073"
     fill="none"
     stroke="#ffffff"
     stroke-linecap="round"
     stroke-linejoin="round"
     stroke-width="1"
     id="path1" />
  <path
     d="M 18.088881,40.255348 A 7.3144946,7.3144946 0 0 1 7.7446453,29.911114"
     fill="none"
     stroke="#ffffff"
     stroke-linecap="round"
     stroke-linejoin="round"
     stroke-width="1"
     id="path2" />
  <path
     d="M 29.910875,7.7448073 7.7446453,29.911036"
     fill="none"
     stroke="#ffffff"
     stroke-linecap="round"
     stroke-linejoin="round"
     stroke-width="1"
     id="path3" />
  <path
     d="M 12.916763,24.738919 23.260998,35.083231"
     fill="none"
     stroke="#ffffff"
     stroke-linecap="round"
     stroke-linejoin="round"
     stroke-width="1"
     id="path4" />
  <path
     d="M 24.738757,12.916925 35.08307,23.261237"
     fill="none"
     stroke="#ffffff"
     stroke-linecap="round"
     stroke-linejoin="round"
     stroke-width="1"
     id="path5" />
  <path
     d="M 18.088957,40.255348 40.255187,18.089042"
     fill="none"
     stroke="#ffffff"
     stroke-linecap="round"
     stroke-linejoin="round"
     stroke-width="1"
     id="path6" />
  <path
     d="m 11.276805,30.057608 a 0.44739002,0.44739005 0 1 0 0.89478,0 0.44739002,0.44739005 0 1 0 -0.89478,0"
     fill="none"
     stroke="#ffffff"
     stroke-linecap="round"
     stroke-linejoin="round"
     stroke-width="1"
     id="path7" />
  <path
     d="m 13.345653,32.126455 a 0.44739002,0.44739005 0 1 0 0.89478,0 0.44739002,0.44739005 0 1 0 -0.89478,0"
     fill="none"
     stroke="#ffffff"
     stroke-linecap="round"
     stroke-linejoin="round"
     stroke-width="1"
     id="path8" />
  <path
     d="m 15.414577,34.195379 a 0.44739002,0.44739005 0 1 0 0.89478,0 0.44739002,0.44739005 0 1 0 -0.89478,0"
     fill="none"
     stroke="#ffffff"
     stroke-linecap="round"
     stroke-linejoin="round"
     stroke-width="1"
     id="path9" />
  <path
     d="m 17.494996,36.264226 a 0.44739002,0.44739005 0 1 0 0.89478,0 0.44739002,0.44739005 0 1 0 -0.89478,0"
     fill="none"
     stroke="#ffffff"
     stroke-linecap="round"
     stroke-linejoin="round"
     stroke-width="1"
     id="path10" />
  <path
     d="m 9.0717781,32.274276 a 0.44739002,0.44740001 0 1 0 0.89478,0 0.44739002,0.44740001 0 1 0 -0.89478,0"
     fill="none"
     stroke="#ffffff"
     stroke-linecap="round"
     stroke-linejoin="round"
     stroke-width="1"
     id="path11" />
  <path
     d="m 11.140625,34.343132 a 0.44739002,0.44739005 0 1 0 0.89478,0 0.44739002,0.44739005 0 1 0 -0.89478,0"
     fill="none"
     stroke="#ffffff"
     stroke-linecap="round"
     stroke-linejoin="round"
     stroke-width="1"
     id="path12" />
  <path
     d="m 13.209472,36.411978 a 0.44739002,0.44739005 0 1 0 0.89478,0 0.44739002,0.44739005 0 1 0 -0.89478,0"
     fill="none"
     stroke="#ffffff"
     stroke-linecap="round"
     stroke-linejoin="round"
     stroke-width="1"
     id="path13" />
  <path
     d="m 15.278319,38.480792 a 0.44739002,0.44742663 0 1 0 0.89478,0 0.44739002,0.44742663 0 1 0 -0.89478,0"
     fill="none"
     stroke="#ffffff"
     stroke-linecap="round"
     stroke-linejoin="round"
     stroke-width="1"
     id="path14" />
  <path
     d="m 31.965352,9.3691033 a 0.44739002,0.44742663 0 1 0 0.894779,0 0.44739002,0.44742663 0 1 0 -0.894779,0"
     fill="none"
     stroke="#ffffff"
     stroke-linecap="round"
     stroke-linejoin="round"
     stroke-width="1"
     id="path15" />
  <path
     d="m 34.0342,11.43795 a 0.44739002,0.44742663 0 1 0 0.894779,0 0.44739002,0.44742663 0 1 0 -0.894779,0"
     fill="none"
     stroke="#ffffff"
     stroke-linecap="round"
     stroke-linejoin="round"
     stroke-width="1"
     id="path16" />
  <path
     d="m 36.103046,13.506832 a 0.44739002,0.44739005 0 1 0 0.89478,0 0.44739002,0.44739005 0 1 0 -0.89478,0"
     fill="none"
     stroke="#ffffff"
     stroke-linecap="round"
     stroke-linejoin="round"
     stroke-width="1"
     id="path17" />
  <path
     d="m 38.171893,15.575679 a 0.44739002,0.44739005 0 1 0 0.89478,0 0.44739002,0.44739005 0 1 0 -0.89478,0"
     fill="none"
     stroke="#ffffff"
     stroke-linecap="round"
     stroke-linejoin="round"
     stroke-width="1"
     id="path18" />
  <path
     d="m 29.748675,11.585738 a 0.44739002,0.44739005 0 1 0 0.89478,0 0.44739002,0.44739005 0 1 0 -0.89478,0"
     fill="none"
     stroke="#ffffff"
     stroke-linecap="round"
     stroke-linejoin="round"
     stroke-width="1"
     id="path19" />
  <path
     d="m 31.817522,13.654584 a 0.44739002,0.44739005 0 1 0 0.89478,0 0.44739002,0.44739005 0 1 0 -0.89478,0"
     fill="none"
     stroke="#ffffff"
     stroke-linecap="round"
     stroke-linejoin="round"
     stroke-width="1"
     id="path20" />
  <path
     d="m 33.886446,15.723508 a 0.44739002,0.44739005 0 1 0 0.89478,0 0.44739002,0.44739005 0 1 0 -0.89478,0"
     fill="none"
     stroke="#ffffff"
     stroke-linecap="round"
     stroke-linejoin="round"
     stroke-width="1"
     id="path21" />
  <path
     d="m 35.955294,17.792321 a 0.44739002,0.44742663 0 1 0 0.894779,0 0.44739002,0.44742663 0 1 0 -0.894779,0"
     fill="none"
     stroke="#ffffff"
     stroke-linecap="round"
     stroke-linejoin="round"
     stroke-width="1"
     id="path22" />
</svg>
