<?xml version="1.0" encoding="UTF-8" standalone="no"?>
<svg
   version="1.2"
   viewBox="0 0 48 48"
   id="svg29"
   xmlns="http://www.w3.org/2000/svg"
   xmlns:svg="http://www.w3.org/2000/svg">
  <defs
     id="defs1" />
  <path
     d="M 5.5,41.800423 V 6.1995766"
     fill="none"
     stroke="#ffffff"
     stroke-linecap="round"
     stroke-linejoin="round"
     stroke-width="1"
     id="path1" />
  <path
     d="m 33.789379,11.51099 8.430349,-7.7e-5"
     fill="none"
     stroke="#ffffff"
     stroke-linecap="round"
     stroke-linejoin="round"
     stroke-width="1"
     id="path2" />
  <path
     d="m 27.887198,11.51099 h 0.671661"
     fill="none"
     stroke="#ffffff"
     stroke-linecap="round"
     stroke-linejoin="round"
     stroke-width="1"
     id="path3" />
  <path
     d="m 22.563977,11.51099 h 0.203355"
     fill="none"
     stroke="#ffffff"
     stroke-linecap="round"
     stroke-linejoin="round"
     stroke-width="1"
     id="path4" />
  <path
     d="m 14.394322,11.51099 h 3.007539"
     fill="none"
     stroke="#ffffff"
     stroke-linecap="round"
     stroke-linejoin="round"
     stroke-width="1"
     id="path5" />
  <path
     d="M 6.0937389,11.51099 H 9.2132471"
     fill="none"
     stroke="#ffffff"
     stroke-linecap="round"
     stroke-linejoin="round"
     stroke-width="1"
     id="path6" />
  <path
     d="M 42.5,41.800423 V 6.1995766"
     fill="none"
     stroke="#ffffff"
     stroke-linecap="round"
     stroke-linejoin="round"
     stroke-width="1"
     id="path7" />
  <path
     d="m 41.081619,19.743532 h 0.607049"
     fill="none"
     stroke="#ffffff"
     stroke-linecap="round"
     stroke-linejoin="round"
     stroke-width="1"
     id="path8" />
  <path
     d="m 35.264324,19.743532 h 0.762429"
     fill="none"
     stroke="#ffffff"
     stroke-linecap="round"
     stroke-linejoin="round"
     stroke-width="1"
     id="path9" />
  <path
     d="m 22.823588,19.743532 h 7.306323"
     fill="none"
     stroke="#ffffff"
     stroke-linecap="round"
     stroke-linejoin="round"
     stroke-width="1"
     id="path10" />
  <path
     d="M 17.177303,19.743532 H 17.72059"
     fill="none"
     stroke="#ffffff"
     stroke-linecap="round"
     stroke-linejoin="round"
     stroke-width="1"
     id="path11" />
  <path
     d="M 6.0937389,19.743532 H 12.110056"
     fill="none"
     stroke="#ffffff"
     stroke-linecap="round"
     stroke-linejoin="round"
     stroke-width="1"
     id="path12" />
  <path
     d="m 38.516385,27.976151 h 3.172283"
     fill="none"
     stroke="#ffffff"
     stroke-linecap="round"
     stroke-linejoin="round"
     stroke-width="1"
     id="path13" />
  <path
     d="m 30.530586,27.976151 h 2.810143"
     fill="none"
     stroke="#ffffff"
     stroke-linecap="round"
     stroke-linejoin="round"
     stroke-width="1"
     id="path14" />
  <path
     d="m 22.806642,27.976151 h 2.579549"
     fill="none"
     stroke="#ffffff"
     stroke-linecap="round"
     stroke-linejoin="round"
     stroke-width="1"
     id="path15" />
  <path
     d="m 17.230695,27.976151 h 0.433407"
     fill="none"
     stroke="#ffffff"
     stroke-linecap="round"
     stroke-linejoin="round"
     stroke-width="1"
     id="path16" />
  <path
     d="M 6.0937389,27.976151 H 12.088079"
     fill="none"
     stroke="#ffffff"
     stroke-linecap="round"
     stroke-linejoin="round"
     stroke-width="1"
     id="path17" />
  <path
     d="m 9.6639101,11.510913 a 2.107607,2.1079574 0 1 0 4.2152139,0 2.107607,2.1079574 0 1 0 -4.2152139,0"
     fill="none"
     stroke="#ffffff"
     stroke-linecap="round"
     stroke-linejoin="round"
     stroke-width="1"
     id="path18" />
  <path
     d="m 17.89516,11.510913 a 2.1076067,2.1079571 0 1 0 4.215213,0 2.1076067,2.1079571 0 1 0 -4.215213,0"
     fill="none"
     stroke="#ffffff"
     stroke-linecap="round"
     stroke-linejoin="round"
     stroke-width="1"
     id="path19" />
  <path
     d="m 23.205614,11.510913 a 2.1076067,2.1079571 0 1 0 4.215213,0 2.1076067,2.1079571 0 1 0 -4.215213,0"
     fill="none"
     stroke="#ffffff"
     stroke-linecap="round"
     stroke-linejoin="round"
     stroke-width="1"
     id="path20" />
  <path
     d="m 29.047128,11.510913 a 2.107607,2.1079574 0 1 0 4.215214,0 2.107607,2.1079574 0 1 0 -4.215214,0"
     fill="none"
     stroke="#ffffff"
     stroke-linecap="round"
     stroke-linejoin="round"
     stroke-width="1"
     id="path21" />
  <path
     d="m 12.553289,19.743532 a 2.107607,2.1079574 0 1 0 4.215214,0 2.107607,2.1079574 0 1 0 -4.215214,0"
     fill="none"
     stroke="#ffffff"
     stroke-linecap="round"
     stroke-linejoin="round"
     stroke-width="1"
     id="path22" />
  <path
     d="m 18.129312,19.743532 a 2.107607,2.1079574 0 1 0 4.215214,0 2.107607,2.1079574 0 1 0 -4.215214,0"
     fill="none"
     stroke="#ffffff"
     stroke-linecap="round"
     stroke-linejoin="round"
     stroke-width="1"
     id="path23" />
  <path
     d="m 30.608895,19.743532 a 2.107607,2.1079574 0 1 0 4.215214,0 2.107607,2.1079574 0 1 0 -4.215214,0"
     fill="none"
     stroke="#ffffff"
     stroke-linecap="round"
     stroke-linejoin="round"
     stroke-width="1"
     id="path24" />
  <path
     d="m 36.450487,19.743532 a 2.107607,2.1079574 0 1 0 4.215214,0 2.107607,2.1079574 0 1 0 -4.215214,0"
     fill="none"
     stroke="#ffffff"
     stroke-linecap="round"
     stroke-linejoin="round"
     stroke-width="1"
     id="path25" />
  <path
     d="m 12.553289,27.976151 a 2.107607,2.1079574 0 1 0 4.215214,0 2.107607,2.1079574 0 1 0 -4.215214,0"
     fill="none"
     stroke="#ffffff"
     stroke-linecap="round"
     stroke-linejoin="round"
     stroke-width="1"
     id="path26" />
  <path
     d="m 18.129312,27.976151 a 2.107607,2.1079574 0 1 0 4.215214,0 2.107607,2.1079574 0 1 0 -4.215214,0"
     fill="none"
     stroke="#ffffff"
     stroke-linecap="round"
     stroke-linejoin="round"
     stroke-width="1"
     id="path27" />
  <path
     d="m 25.829502,27.976151 a 2.1076067,2.1079571 0 1 0 4.215213,0 2.1076067,2.1079571 0 1 0 -4.215213,0"
     fill="none"
     stroke="#ffffff"
     stroke-linecap="round"
     stroke-linejoin="round"
     stroke-width="1"
     id="path28" />
  <path
     d="m 33.826599,27.976151 a 2.107607,2.1079574 0 1 0 4.215214,0 2.107607,2.1079574 0 1 0 -4.215214,0"
     fill="none"
     stroke="#ffffff"
     stroke-linecap="round"
     stroke-linejoin="round"
     stroke-width="1"
     id="path29" />
</svg>
