<?xml version="1.0" encoding="UTF-8" standalone="no"?>
<svg
   viewBox="0 0 48 48"
   version="1.1"
   id="svg1"
   sodipodi:docname="eneba.svg"
   inkscape:version="1.3.2 (091e20ef0f, 2023-11-25, custom)"
   xml:space="preserve"
   xmlns:inkscape="http://www.inkscape.org/namespaces/inkscape"
   xmlns:sodipodi="http://sodipodi.sourceforge.net/DTD/sodipodi-0.dtd"
   xmlns="http://www.w3.org/2000/svg"
   xmlns:svg="http://www.w3.org/2000/svg"><sodipodi:namedview
     id="namedview1"
     pagecolor="#000000"
     bordercolor="#999999"
     borderopacity="1"
     inkscape:showpageshadow="0"
     inkscape:pageopacity="0"
     inkscape:pagecheckerboard="0"
     inkscape:deskcolor="#d1d1d1"
     inkscape:zoom="8"
     inkscape:cx="18.25"
     inkscape:cy="30.0625"
     inkscape:window-width="1920"
     inkscape:window-height="1015"
     inkscape:window-x="0"
     inkscape:window-y="0"
     inkscape:window-maximized="1"
     inkscape:current-layer="svg1" /><defs
     id="defs1"><style
       id="style1">.a{fill:none;stroke:#fff;stroke-linecap:round;stroke-linejoin:round;}</style></defs><path
     id="path14"
     style="fill:none;stroke:#ffffff;stroke-width:1;stroke-linecap:round;stroke-linejoin:round"
     d="m 15.842307,23.284735 c -1.845989,0.052 -3.676192,0.922752 -4.753408,2.462015 -1.2963959,1.853909 -1.4920523,4.359527 -0.719552,6.478871 -0.4772904,0.405762 -2.1325459,1.891567 -1.6353478,2.695351 0.5032069,0.813497 2.4344068,-0.01564 2.9305418,-0.244239 0.58714,0.93516 1.3313,1.761209 2.115049,2.542702 1.340682,1.381304 2.846272,2.64484 4.57025,3.519655 3.565893,2.266921 8.269652,2.605604 12.097206,0.791597 1.072134,-0.669599 2.771793,-1.137949 3.028663,-2.523075 -0.19383,-1.532146 -2.017657,-0.871219 -3.059189,-1.070726 -2.542703,-0.09219 -4.717628,-1.850678 -6.072588,-3.894738 -0.754438,-1.421647 -1.659137,-2.811494 -2.132493,-4.359227 0.311753,-0.211357 2.236921,-1.555748 1.894822,-2.403136 C 23.76619,26.437417 21.832069,26.842523 21.500609,26.917788 20.989131,25.75391 20.143448,24.742635 19.023603,24.109041 18.064385,23.516656 16.949901,23.253537 15.842307,23.284735 Z M 26.055595,5.3026486 23.022571,8.6565711 C 22.196954,8.4512508 21.339586,8.3844773 20.501956,8.4821148 19.058161,8.4158717 17.650628,8.7421647 16.2784,9.1581334 14.427421,9.6863076 12.602967,10.414371 11.016944,11.519837 7.3333869,13.590058 4.8117996,17.575475 4.5998416,21.806218 c 0.082897,1.261434 -0.3095057,2.98062 0.7893275,3.862026 1.4415034,0.553775 1.7214615,-1.365972 2.3897871,-2.189426 1.283708,-2.197047 3.8620928,-3.281427 6.3037178,-3.508753 1.845179,0.0086 3.747297,-0.174857 5.542736,0.353274 1.825693,0.789289 4.023021,0.729799 5.723715,-0.344552 2.601412,-1.506984 3.663788,-5.081976 2.30911,-7.765487 -0.510344,-1.010024 -1.297171,-1.85284 -2.232794,-2.4860024 z M 15.842307,23.284735 c 1.107599,-0.0312 2.222074,0.231918 3.181296,0.824306 1.11985,0.633596 1.965526,1.644865 2.477006,2.808747 0.331461,-0.07526 2.265579,-0.480374 2.605652,0.361997 0.3421,0.847391 -1.583067,2.191778 -1.894822,2.403136 0.473357,1.54774 1.378052,2.937574 2.132493,4.359227 1.354964,2.044069 3.529875,3.80255 6.072588,3.894738 1.041536,0.199508 2.865358,-0.461426 3.059189,1.070726 -0.256872,1.385131 -1.956524,1.853473 -3.028663,2.523075 -3.82757,1.814014 -8.531299,1.475333 -12.097206,-0.791597 -1.723985,-0.874818 -3.229563,-2.138345 -4.57025,-3.519655 -0.783752,-0.781495 -1.527907,-1.607539 -2.115049,-2.542702 -0.496137,0.228593 -2.4273337,1.057737 -2.9305418,0.244239 -0.497199,-0.803786 1.1580574,-2.289589 1.6353478,-2.695351 -0.7725037,-2.119353 -0.5768495,-4.624955 0.719552,-6.478871 1.07722,-1.539269 2.907411,-2.410017 4.753408,-2.462015 z M 32.025702,7.8998672 c -0.243887,-0.00853 -0.488846,0.028095 -0.734816,0.1243 -1.198747,0.9735222 0.326017,2.1720428 0.706469,3.1620208 1.264123,2.20838 0.917964,4.98375 -0.102485,7.21377 -0.927527,1.595314 -1.717085,3.336496 -3.070092,4.629634 -1.594442,1.189147 -2.638639,3.125503 -2.555501,5.135559 0.0089,3.006618 2.578474,5.708933 5.579804,5.872636 2.860042,0.154939 5.682089,-1.736039 6.803044,-4.343963 0.0175,-0.02743 0.03301,-0.05309 0.05015,-0.08069 0,0 4.11215,-1.230548 4.062202,-2.994107 -0.0162,-0.571912 -1.332263,-0.95951 -1.332263,-0.95951 0,0 2.291903,-0.917283 1.938431,-2.156717 -0.258988,-0.908134 -1.493616,-0.416514 -1.493616,-0.416514 0,0 1.791827,-1.300212 1.454368,-2.113102 -0.340141,-0.819344 -2.53588,-0.03926 -2.53588,-0.03926 -0.0041,-0.325499 -0.01975,-0.652059 -0.04797,-0.976956 C 40.789991,15.731381 38.593724,11.558313 35.032553,9.2649777 34.110664,8.8123179 33.082547,7.9368149 32.025702,7.8998672 Z" /></svg>
