<?xml version="1.0" encoding="UTF-8" standalone="no"?>
<!-- Created with Inkscape (http://www.inkscape.org/) -->

<svg
   width="48.0px"
   height="48.0px"
   viewBox="0 0 48.0 48.0"
   version="1.1"
   id="SVGRoot"
   sodipodi:docname="enigmbox.svg"
   inkscape:version="1.1.2 (0a00cf5339, 2022-02-04)"
   xmlns:inkscape="http://www.inkscape.org/namespaces/inkscape"
   xmlns:sodipodi="http://sodipodi.sourceforge.net/DTD/sodipodi-0.dtd"
   xmlns="http://www.w3.org/2000/svg"
   xmlns:svg="http://www.w3.org/2000/svg">
  <sodipodi:namedview
     id="namedview5957"
     pagecolor="#ffffff"
     bordercolor="#666666"
     borderopacity="1.0"
     inkscape:pageshadow="2"
     inkscape:pageopacity="0.0"
     inkscape:pagecheckerboard="0"
     inkscape:document-units="px"
     showgrid="true"
     inkscape:zoom="11.810944"
     inkscape:cx="26.627847"
     inkscape:cy="22.521486"
     inkscape:window-width="960"
     inkscape:window-height="947"
     inkscape:window-x="0"
     inkscape:window-y="32"
     inkscape:window-maximized="0"
     inkscape:current-layer="layer1">
    <inkscape:grid
       type="xygrid"
       id="grid5963" />
  </sodipodi:namedview>
  <defs
     id="defs5952">
    <inkscape:path-effect
       effect="spiro"
       id="path-effect6355"
       is_visible="true"
       lpeversion="1" />
    <inkscape:path-effect
       effect="spiro"
       id="path-effect6339"
       is_visible="true"
       lpeversion="1" />
    <inkscape:path-effect
       effect="spiro"
       id="path-effect6302"
       is_visible="true"
       lpeversion="1" />
    <inkscape:path-effect
       effect="spiro"
       id="path-effect6265"
       is_visible="true"
       lpeversion="1" />
    <inkscape:path-effect
       effect="spiro"
       id="path-effect6228"
       is_visible="true"
       lpeversion="1" />
  </defs>
  <g
     inkscape:label="Layer 1"
     inkscape:groupmode="layer"
     id="layer1">
    <path
       style="fill:none;stroke:#000000;stroke-width:1px;stroke-linecap:round;stroke-linejoin:round;stroke-opacity:1"
       d="m 24,42 h 1 L 40,37 41,19 25,23 H 24 L 8,19 9,37 Z"
       id="path6025" />
    <path
       style="fill:none;stroke:#000000;stroke-width:1px;stroke-linecap:round;stroke-linejoin:round;stroke-opacity:1"
       d="m 8,19 16,-5 h 1 l 16,5 v 0"
       id="path6150" />
    <path
       style="fill:none;stroke:#000000;stroke-width:1px;stroke-linecap:round;stroke-linejoin:miter;stroke-opacity:1"
       d="m 31,33 c 0.723624,0.516875 1.610735,0.801163 2.5,0.801163 0.889265,0 1.776376,-0.284288 2.5,-0.801163 0.385347,-0.275248 0.724752,-0.614653 1,-1"
       id="path6226"
       inkscape:path-effect="#path-effect6228"
       inkscape:original-d="m 31,33 c 1.667667,10e-4 3.334333,10e-4 5,0 1.665667,-10e-4 0.667667,-0.665667 1,-1" />
    <path
       style="fill:none;stroke:#000000;stroke-width:1px;stroke-linecap:round;stroke-linejoin:miter;stroke-opacity:1"
       d="m 31,26 v 2"
       id="path6263"
       inkscape:path-effect="#path-effect6265"
       inkscape:original-d="m 31,26 c 0.001,0.667667 0.001,1.334333 0,2" />
    <path
       style="fill:none;stroke:#000000;stroke-width:1px;stroke-linecap:round;stroke-linejoin:miter;stroke-opacity:1"
       d="M 37,27 V 25"
       id="path6300"
       inkscape:path-effect="#path-effect6302"
       inkscape:original-d="m 37,27 c 10e-4,-0.665667 10e-4,-1.332333 0,-2" />
    <path
       style="fill:none;stroke:#000000;stroke-width:1px;stroke-linecap:butt;stroke-linejoin:miter;stroke-opacity:1"
       d="m 16,35 c -0.1309,-0.1309 -0.31488,-0.207107 -0.5,-0.207107 -0.18512,0 -0.3691,0.07621 -0.5,0.207107 -0.1309,0.1309 -0.207107,0.31488 -0.207107,0.5 0,0.18512 0.07621,0.3691 0.207107,0.5 0.1309,0.1309 0.31488,0.207107 0.5,0.207107 0.18512,0 0.3691,-0.07621 0.5,-0.207107 0.1309,-0.1309 0.207107,-0.31488 0.207107,-0.5 0,-0.18512 -0.07621,-0.3691 -0.207107,-0.5"
       id="path6337"
       inkscape:path-effect="#path-effect6339"
       inkscape:original-d="m 16,35 c -0.332333,0.334333 -0.665667,0.667667 -1,1 -0.334333,0.332333 0.667667,-0.665667 1,-1" />
    <path
       style="fill:none;stroke:#000000;stroke-width:1px;stroke-linecap:round;stroke-linejoin:miter;stroke-opacity:1"
       d="m 16,33 c -0.145423,-0.311912 -0.145423,-0.688088 0,-1 0.100579,-0.215727 0.264076,-0.396412 0.442685,-0.553742 C 16.621295,31.288927 16.816719,31.151863 17,31 c 0.491856,-0.407542 0.895417,-0.924908 1.150909,-1.510345 0.255492,-0.585438 0.360428,-1.238855 0.279403,-1.872454 -0.08103,-0.6336 -0.350626,-1.245001 -0.780007,-1.717912 C 17.220924,25.426378 16.631366,25.096901 16,25 15.348096,24.899946 14.660736,25.052107 14.111968,25.417952 13.5632,25.783798 13.158375,26.35976 13,27"
       id="path6353"
       inkscape:path-effect="#path-effect6355"
       inkscape:original-d="m 16,33 c 0.001,-0.332333 0.001,-0.665667 0,-1 -10e-4,-0.334333 0.667667,-0.665667 1,-1 0.332333,-0.334333 -0.665667,-3.999 -1,-6 -0.334333,-2.001 -1.999,1.334333 -3,2" />
  </g>
</svg>
