<?xml version="1.0" encoding="UTF-8"?>
<svg version="1.1" viewBox="0 0 48 48" xmlns="http://www.w3.org/2000/svg" xmlns:xlink="http://www.w3.org/1999/xlink">
 <defs>
  <style>.a{fill:none;stroke:#fff;stroke-linecap:round;stroke-linejoin:round;}</style>
 </defs>
 <path class="a" d="m38.383 7.8741c-8.8585-3.6693-19.907-3.6693-28.765 0-0.75926 0.3145-1.4288 0.98408-1.7433 1.7433-3.6693 8.8585-3.6693 19.907 0 28.765 0.3145 0.75926 0.98408 1.4288 1.7433 1.7433 8.8585 3.6693 19.907 3.6693 28.765 0 0.75926-0.3145 1.4288-0.98408 1.7433-1.7433 3.6693-8.8585 3.6693-19.907 0-28.765-0.3145-0.75926-0.98408-1.4288-1.7433-1.7433z"/>
 <g transform="translate(-.029429 -.89858)" fill="none" stroke="#fff" stroke-linecap="round" stroke-linejoin="round" stroke-miterlimit="10">
  <g transform="matrix(1.7721 0 0 1.7721 -299.95 -84.969)" stroke-width=".56432">
   <path class="st5" d="m188.3 64.7v-3.3c0-1.1-0.9-2-2-2s-2 0.9-2 2"/>
   <line class="st5" x1="184.3" x2="184.3" y1="64.7" y2="59.3"/>
  </g>
  <path class="st5" d="m20.883 27.734c-0.53162 1.0632-1.7721 1.7721-3.0125 1.7721-1.9493 0-3.5441-1.5948-3.5441-3.5441v-2.3037c0-1.9493 1.5948-3.5441 3.5441-3.5441s3.5441 1.5948 3.5441 3.5441v1.2404h-7.0882"/>
 </g>
 <path id="path5" d="m42.888 24c-1.254-4.9355-3.6954-8.4114-6.7867-11.558-3.0914-3.147-7.1726-5.9561-12.101-7.3144" fill="none" stroke="#fff" stroke-linecap="round" stroke-linejoin="round" stroke-width="1px"/>
 <use xlink:href="#path5"/>
 <use transform="rotate(90 24.002 24.003)" xlink:href="#path5"/>
 <use transform="rotate(180 24.002 24.003)" xlink:href="#path5"/>
 <use transform="rotate(-90 24.002 24.003)" xlink:href="#path5"/>
</svg>
