<?xml version="1.0" encoding="utf-8"?>
<svg
	version="1.1"
	xmlns="http://www.w3.org/2000/svg"
	xmlns:xlink="http://www.w3.org/1999/xlink"
	x="0%" y="0%"
	width="100%" height="100%"
	viewBox="0 0 48.0 48.0"
	enable-background="new 0 0 48.0 48.0"
	xml:space="preserve">
	<path
		fill="none"
		stroke="#FFFFFF"
		stroke-opacity="1.000"
		stroke-linejoin="round"
		stroke-linecap="round"
		d="M25.62,24.51C23.33,24.99,21.03,25.46,19.62,24.51C18.22,23.57,17.72,21.21,17.87,19.51C18.03,17.82,18.83,16.79,19.13,16.01C19.42,15.24,19.21,14.72,19.37,14.26C19.54,13.81,20.08,13.41,20.62,13.01"/>
	<path
		fill="none"
		stroke="#FFFFFF"
		stroke-opacity="1.000"
		stroke-linejoin="round"
		stroke-linecap="round"
		d="M4.38,14.01C4.08,12.25,3.79,10.50,3.87,9.51C3.96,8.53,4.42,8.33,4.62,8.01C4.83,7.70,4.78,7.28,5.13,7.01C5.47,6.75,6.23,6.64,6.68,6.32C7.13,6.00,7.29,5.47,8.00,5.14C8.71,4.81,9.98,4.67,10.88,4.76C11.77,4.86,12.28,5.17,12.68,5.16C13.09,5.16,13.37,4.83,13.64,4.87C13.90,4.91,14.13,5.33,14.62,5.51C15.12,5.69,15.86,5.63,16.27,5.87C16.67,6.10,16.74,6.64,17.07,6.85C17.40,7.07,18.00,6.97,18.37,7.26C18.75,7.56,18.91,8.25,18.87,8.76C18.84,9.27,18.60,9.60,18.55,9.95C18.50,10.31,18.65,10.70,18.62,11.01C18.60,11.33,18.42,11.56,18.32,11.80C18.23,12.04,18.23,12.28,18.12,12.51C18.02,12.74,17.80,12.96,17.58,13.18"/>
	<path
		fill="none"
		stroke="#FFFFFF"
		stroke-opacity="1.000"
		stroke-linejoin="round"
		stroke-linecap="round"
		d="M6.62,18.26C6.86,19.27,7.09,20.27,7.63,21.01C8.16,21.76,9.01,22.25,9.88,22.76C10.74,23.28,11.61,23.81,12.13,24.01C12.64,24.22,12.80,24.09,13.12,24.01C13.45,23.93,13.95,23.90,14.37,23.51C14.80,23.13,15.17,22.39,15.62,21.51C16.08,20.64,16.64,19.63,16.88,18.76C17.11,17.90,17.01,17.19,17.13,16.51C17.24,15.84,17.55,15.21,17.63,14.26C17.70,13.31,17.54,12.04,17.38,10.76C17.09,11.07,16.80,11.37,16.12,11.26C15.45,11.16,14.39,10.65,13.37,10.26C12.36,9.88,11.41,9.62,10.66,9.79C9.91,9.95,9.37,10.52,9.36,10.74C9.34,10.96,9.84,10.82,9.84,11.07C9.83,11.32,9.32,11.96,8.86,12.25C8.39,12.54,7.97,12.47,7.80,13.05C7.63,13.63,7.71,14.85,7.63,15.51C7.54,16.18,7.28,16.30,7.03,16.42"/>
	<path
		fill="none"
		stroke="#FFFFFF"
		stroke-opacity="1.000"
		stroke-linejoin="round"
		stroke-linecap="round"
		d="M37.37,20.01C37.78,20.95,38.19,21.89,39.38,22.51C40.56,23.14,42.51,23.44,43.62,23.26C44.74,23.09,45.03,22.43,45.13,21.76C45.22,21.10,45.14,20.41,45.21,19.68C45.27,18.95,45.49,18.17,45.42,17.50C45.35,16.82,45.01,16.25,44.86,15.71C44.71,15.17,44.75,14.66,44.62,14.18C44.49,13.71,44.20,13.27,43.87,12.76C43.55,12.26,43.21,11.70,42.63,11.76C42.04,11.83,41.22,12.53,40.73,12.78C40.25,13.03,40.09,12.83,39.66,12.93C39.23,13.04,38.53,13.44,38.12,14.26C37.72,15.08,37.62,16.32,37.38,16.76C37.13,17.21,36.75,16.86,36.37,16.51"/>
	<path
		fill="none"
		stroke="#FFFFFF"
		stroke-opacity="1.000"
		stroke-linejoin="round"
		stroke-linecap="round"
		d="M35.25,18.25C34.81,17.44,34.37,16.63,34.00,15.75C33.63,14.87,33.32,13.92,33.50,12.75C33.68,11.58,34.36,10.20,35.50,9.50C36.64,8.80,38.26,8.78,39.88,8.76C40.61,8.65,41.34,8.53,42.12,8.76C42.91,9.00,43.74,9.58,44.12,10.01C44.51,10.45,44.44,10.73,44.37,11.01C45.63,11.76,45.38,12.76,44.63,14.26"/>
	<path
		fill="none"
		stroke="#FFFFFF"
		stroke-opacity="1.000"
		stroke-linejoin="round"
		stroke-linecap="round"
		d="M24.63,37.51C18.62,41.26,14.62,38.51,19.87,28.26C19.27,28.22,18.66,28.18,18.12,29.01C17.59,29.84,17.12,31.54,16.62,32.76C16.13,33.98,15.60,34.73,14.87,35.51C14.15,36.30,13.24,37.13,12.88,38.01C12.51,38.90,12.69,39.83,12.87,40.76"/>
	<path
		fill="none"
		stroke="#FFFFFF"
		stroke-opacity="1.000"
		stroke-linejoin="round"
		stroke-linecap="round"
		d="M25.87,38.51C25.12,39.26,25.62,41.51,23.87,43.26"/>
	<path
		fill="none"
		stroke="#FFFFFF"
		stroke-opacity="1.000"
		stroke-linejoin="round"
		stroke-linecap="round"
		d="M34.75,25.75Q36.75,25.00,38.50,27.00C39.47,27.46,40.44,27.91,41.25,29.00C42.06,30.09,42.72,31.80,43.38,33.51C44.87,30.26,44.88,27.01,42.87,25.76Q45.62,27.01,46.63,28.26"/>
	<path
		fill="none"
		stroke="#FFFFFF"
		stroke-opacity="1.000"
		stroke-linejoin="round"
		stroke-linecap="round"
		d="M32.37,29.01C37.87,31.76,32.62,37.76,30.12,42.76"/>
	<path
		fill="none"
		stroke="#FFFFFF"
		stroke-opacity="1.000"
		stroke-linejoin="round"
		stroke-linecap="round"
		d="M23.37,12.76C24.25,13.19,25.12,13.61,25.63,14.76C26.13,15.91,26.26,17.79,25.88,19.01C25.49,20.24,24.59,20.81,24.81,21.69C25.03,22.56,26.37,23.73,26.38,24.51C26.38,25.30,25.05,25.71,24.61,26.95C24.18,28.19,24.62,30.25,24.37,31.76C24.13,33.28,23.18,34.23,23.12,35.01C23.07,35.79,23.91,36.40,24.37,36.76C24.84,37.13,24.94,37.26,24.87,37.51C24.81,37.77,24.59,38.14,24.37,38.51Q25.87,39.76,26.62,37.01Q29.37,36.76,29.87,31.51Q32.13,31.76,32.38,28.51C33.09,27.86,33.80,27.20,33.88,26.51C33.95,25.83,33.38,25.12,33.37,24.51C33.37,23.91,33.92,23.41,33.87,22.76C33.83,22.12,33.17,21.33,33.13,20.76C33.08,20.20,33.64,19.86,33.62,19.26C33.61,18.67,33.01,17.81,32.83,17.29C32.64,16.77,32.88,16.59,32.87,15.76C32.87,14.94,32.62,13.47,32.00,12.35C31.37,11.23,30.35,10.45,29.29,9.96C28.23,9.47,27.12,9.26,26.38,9.26C25.63,9.27,25.25,9.49,24.88,9.51C24.50,9.54,24.13,9.36,23.47,9.38C22.81,9.41,21.88,9.63,21.13,10.01C20.37,10.39,19.81,10.93,19.59,11.50C19.37,12.07,19.50,12.67,19.63,13.26"/>
	<path
		fill="none"
		stroke="#FFFFFF"
		stroke-opacity="1.000"
		stroke-linejoin="round"
		stroke-linecap="round"
		d="M19.37,39.01Q20.37,36.76,22.12,36.26"/>
	<path
		fill="none"
		stroke="#FFFFFF"
		stroke-opacity="1.000"
		stroke-linejoin="round"
		stroke-linecap="round"
		d="M1.37,25.76Q2.37,24.76,4.13,24.26Q6.62,30.51,10.62,30.01Q12.62,33.76,12.25,35.00Q13.50,33.00,13.00,29.75Q15.37,27.51,13.12,25.26Q15.13,26.01,16.88,27.51"/>
	<path
		fill="none"
		stroke="#FFFFFF"
		stroke-opacity="1.000"
		stroke-linejoin="round"
		stroke-linecap="round"
		d="M11.38,19.76Q13.13,20.76,14.37,20.26"/>
	<path
		fill="none"
		stroke="#FFFFFF"
		stroke-opacity="1.000"
		stroke-linejoin="round"
		stroke-linecap="round"
		d="M19.37,21.51Q20.12,22.51,22.12,22.51"/>
	<path
		fill="none"
		stroke="#FFFFFF"
		stroke-opacity="1.000"
		stroke-linejoin="round"
		stroke-linecap="round"
		d="M42.25,20.51Q43.12,19.76,44.00,20.01"/>
</svg>