<svg viewBox="0 0 48 48" xmlns="http://www.w3.org/2000/svg"><path class="a" d="M41.803 4.04H6.197A2.158 2.158 0 0 0 4.04 6.196v35.606a2.158 2.158 0 0 0 2.158 2.158h35.606a2.158 2.158 0 0 0 2.158-2.158V6.197a2.158 2.158 0 0 0-2.158-2.158Z" style="fill:none;stroke:#fff;stroke-width:1;stroke-linecap:round;stroke-linejoin:round;stroke-miterlimit:4;stroke-dasharray:none"/><g style="stroke:#fff;stroke-width:1.04958;stroke-linecap:round;stroke-linejoin:round;stroke-miterlimit:4;stroke-dasharray:none"><path class="st0" style="stroke:#fff;stroke-width:.352813;stroke-linecap:round;stroke-linejoin:round;stroke-miterlimit:4;stroke-dasharray:none" d="M99.2 101h4m-4-8h4m-4 4h2.6m-2.6-4v8" transform="matrix(2.3944 0 0 2.3944 -224.316 -208.257)"/></g><g style="fill:none;stroke:#fff;stroke-width:.38091;stroke-linecap:round;stroke-linejoin:round;stroke-miterlimit:4;stroke-dasharray:none"><path class="st0" d="M227.2 124.5c0 1.1-.9 2-2 2v0c-1.1 0-2-.9-2-2v-1.3c0-1.1.9-2 2-2v0c1.1 0 2 .9 2 2M227.2 121.2v8" style="fill:none;stroke:#fff;stroke-width:.38091;stroke-linecap:round;stroke-linejoin:round;stroke-miterlimit:4;stroke-dasharray:none" transform="matrix(2.38638 0 0 2.38638 -507.425 -268.299)"/></g></svg>