<?xml version="1.0" encoding="UTF-8"?>
<svg version="1.1" viewBox="0 0 48 48" xmlns="http://www.w3.org/2000/svg">
 <defs>
  <style>.a{fill:none;stroke:#fff;stroke-linecap:round;stroke-linejoin:round;}</style>
 </defs>
 <path d="m2.45363 23.9997a21.545 21.5293 0 0 1 18.7328-21.3451 21.545 21.5293 0 0 1 23.623 15.7729 21.545 21.5293 0 0 1-12.566 25.4626 21.545 21.5293 0 0 1-26.9034-9.12582" style="fill:none;stroke-linecap:round;stroke-linejoin:round;stroke-miterlimit:36.5;stroke:#ffffff"/>
 <path d="m34.8419 31.0357a12.927 12.9176 0 0 1-16.2535 4.69559 12.927 12.9176 0 0 1-6.98264-15.3998 12.927 12.9176 0 0 1 14.2496-9.11509 12.927 12.9176 0 0 1 11.0721 12.7839" style="fill:none;stroke-linecap:round;stroke-linejoin:round;stroke-miterlimit:36.5;stroke:#ffffff"/>
 <path d="m2.45363 23.9997 34.4738 5.65e-4" style="-inkscape-stroke:none;fill:none;font-variation-settings:normal;stop-color:#000000;stroke-linecap:round;stroke-linejoin:round;stroke-width:.999999;stroke:#ffffff"/>
</svg>
