<?xml version="1.0" encoding="UTF-8"?><svg id="b" xmlns="http://www.w3.org/2000/svg" viewBox="0 0 48 48"><defs><style>.h{fill:none;stroke:#fff;stroke-linecap:round;stroke-linejoin:round;}</style></defs><circle id="c" class="h" cx="24" cy="24" r="14.6663"/><path id="d" class="h" d="m42.2943,23.7258c-.1072,2.9206.0993,4.1212,2.7056,4.5942-.2855,1.3954-.7067,2.7414-1.249,4.0236-.5424,1.2822-1.2059,2.5008-1.9763,3.6411-1.7426-1.7016-2.6266-1.232-4.8611,1.0534-1.8392,1.881-2.381,2.3955-.9287,4.7365-1.1404.7704-2.3589,1.434-3.6411,1.9763-1.2822.5423-2.6282.9635-4.0236,1.249-.498-2.6561-1.4179-2.7021-4.32-2.7555-2.802-.0516-3.8719.0494-4.32,2.7555-1.3954-.2855-2.7414-.7067-4.0236-1.249-1.2822-.5424-2.5008-1.2059-3.6411-1.9763,1.8263-2.0418,1.2377-2.5202-.7791-4.7115-2.2162-2.5902-2.7196-2.9295-5.0107-1.0783-.7704-1.1404-1.434-2.3589-1.9763-3.6411-.5423-1.2822-.9635-2.6282-1.249-4.0236,3.0799-.2985,3.1159-.7765,2.9798-4.6192-.1056-2.9825-.224-3.5728-2.9798-4.0208.2855-1.3954.7067-2.7414,1.249-4.0236.5423-1.2822,1.2059-2.5008,1.9763-3.6411,2.6481,1.757,2.9965,1.4136,4.9858-.6046,2.1578-2.1892,2.725-2.8059.8041-5.1852,1.1404-.7704,2.3589-1.434,3.6411-1.9763,1.2822-.5423,2.6282-.9635,4.0236-1.249.3005,2.2284,1.096,2.791,4.32,2.8303,3.5563.0433,4.2255-1.0645,4.32-2.8303,1.3954.2855,2.7414.7067,4.0236,1.249s2.5008,1.2059,3.6411,1.9763c-1.1781,1.618-1.3986,2.8956.7293,4.8112,2.4567,2.2116,3.3428,2.4807,5.0605.9786.7704,1.1404,1.434,2.3589,1.9763,3.6411.5423,1.2822.9635,2.6282,1.249,4.0236-2.3591.1777-2.6061,1.3313-2.7056,4.0458Z"/><path id="e" class="h" d="m17.466,16.066l2.234,2.0914-1.8538,1.8775-2.3053-2.0439c.1108,3.5811,1.7882,3.1949,3.1846,4.0877l7.415,7.1536c.7527,2.5849,1.7617,4.7373,4.5156,3.9452l-2.0201-2.2103,1.7824-1.9013,2.1152,2.0201c.4505-2.0118-.3363-4.1-3.6362-4.6106l-7.0348-6.8922c-.7647-2.3924-1.5429-4.0579-4.3967-3.5173Z"/><path id="f" class="h" d="m31.8235,14.446l-5.4903,6.1343.9151.8812,6.4054-5.4225-1.8301-1.5929Z"/><path id="g" class="h" d="m19.8054,24.8145l-4.5509,4.3907c-.2626.2533-.1344,1.3034.1602,1.9229.2271.4775,1.1217,1.1217,1.1217,1.1217.9822.6129,1.5898.3827,2.2434.2564l4.3266-4.5189-2.8524,1.1858,1.0576-2.628-2.5319,1.0897,1.0256-2.8203Z"/></svg>