<svg version="1.1" viewBox="0 0 48 48" xmlns="http://www.w3.org/2000/svg"><defs><style>.a{fill:none;stroke:#fff;stroke-linecap:round;stroke-linejoin:round;}</style><style>.a{fill:none;stroke:#fff;stroke-linecap:round;stroke-linejoin:round;}</style></defs><path d="m4.48722 12.9962 11.6601 5.6e-5 5.08515-4.95211 5.08787 4.95205h3.07508l1e-5 5.23735h14.1174v16.7677h-11.6546l-5.06258 4.95472-5.08527-4.95472h-3.0778l5.1e-5 -5.2373h-14.1454z" style="-inkscape-stroke:none;fill:none;font-variation-settings:normal;stop-color:#000000;stroke-linecap:round;stroke-linejoin:round;stroke:#fff"/><path class="a" d="m23.9999 19.4117a1.71979 1.7765 0 0 1 1.71982 1.7765v2.1962a1.71979 1.7765 0 0 1-1.71982 1.7765 1.71979 1.7765 0 0 1-1.71981-1.7765v-2.1962a1.71979 1.7765 0 0 1 1.71981-1.7765z" style="stroke:#fff"/><path class="a" d="m20.7675 24.2302a3.29192 3.34216 0 0 0 6.46497 0" style="stroke:#fff"/><line class="a" x1="23.9999" x2="23.9999" y1="26.9399" y2="28.5881" style="stroke:#fff"/><line class="a" x1="31.9679" x2="41.7834" y1="23.8567" y2="23.8567" style="stroke-width:.999983;stroke:#fff"/><line class="a" x1="36.8478" x2="36.8478" y1="21.7184" y2="23.8567" style="stroke-width:.999983;stroke:#fff"/><path class="a" d="m39.9074 23.8567c0 2.95296-4.39463 6.8888-7.86672 7.63552" style="stroke-width:.999983;stroke:#fff"/><path class="a" d="m33.653 24.1587c0.315823 2.2884 4.58993 6.85834 7.76981 7.3335" style="stroke-width:.999983;stroke:#fff"/><line class="a" x1="7.71237" x2="11.2402" y1="26.6802" y2="16.0364" style="stroke-width:.999994;stroke:#fff"/><line class="a" x1="14.6219" x2="11.2402" y1="26.7119" y2="16.0364" style="stroke-width:.999994;stroke:#fff"/><line class="a" x1="13.4907" x2="8.8855" y1="23.1407" y2="23.1407" style="stroke-width:.999994;stroke:#fff"/><path d="m16.1472 12.9962 10.173-5.4e-5" style="-inkscape-stroke:none;fill:none;font-variation-settings:normal;stop-color:#000000;stroke-linecap:round;stroke-linejoin:round;stroke:#fff"/><path d="m21.7103 35.0011h10.1479" style="-inkscape-stroke:none;fill:none;font-variation-settings:normal;stop-color:#000000;stroke-linecap:round;stroke-linejoin:round;stroke:#fff"/><ellipse cx="24" cy="24" rx="6.20201" ry="6.21032" style="fill:none;stroke-linecap:round;stroke-linejoin:round;stroke:#fff"/></svg>
