<?xml version="1.0" encoding="UTF-8" standalone="no"?>
<svg
   viewBox="0 0 48 48"
   version="1.1"
   id="svg8"
   xml:space="preserve"
   xmlns="http://www.w3.org/2000/svg"
   xmlns:svg="http://www.w3.org/2000/svg"><defs
     id="defs4"><style
       id="style2">.a{fill:none;stroke:#fff;stroke-linecap:round;stroke-linejoin:round;}</style><style
       id="style822">.cls-1{fill:none;stroke:#000;stroke-linecap:round;stroke-linejoin:round;}</style><style
       id="style913">.cls-1{fill:none;stroke:#fff;stroke-linecap:round;stroke-linejoin:round;}</style></defs><path
     style="font-variation-settings:normal;opacity:1;vector-effect:none;fill:none;fill-opacity:1;stroke:#ffffff;stroke-width:1;stroke-linecap:round;stroke-linejoin:round;stroke-miterlimit:4;stroke-dasharray:none;stroke-dashoffset:0;stroke-opacity:1;-inkscape-stroke:none;stop-color:#000000;stop-opacity:1"
     d="m 19.91358,10.271578 c -4.588989,5.48765 -9.093762,11.162441 -14.2156454,15.46588 3.6894251,0.508646 6.1663524,3.582059 7.8255504,6.552162 5.801046,10.384357 12.025201,9.868163 17.920047,0.347288 2.5113,-4.056047 7.505659,-8.47607 10.858529,-8.705346 C 37.337547,19.004241 32.713563,13.800241 28.734687,8.0720901 25.848034,14.472271 22.923292,16.854144 19.91358,10.271578 Z"
     id="path3131" /><path
     style="font-variation-settings:normal;opacity:1;vector-effect:none;fill:none;fill-opacity:1;stroke:#ffffff;stroke-width:1;stroke-linecap:round;stroke-linejoin:round;stroke-miterlimit:4;stroke-dasharray:none;stroke-dashoffset:0;stroke-opacity:1;-inkscape-stroke:none;stop-color:#000000;stop-opacity:1"
     d="m 16.162872,23.8158 c 2.430009,-0.518677 8.254895,-7.748304 12.972689,-3.408222 1.020064,0.938397 3.210918,1.231886 3.210918,1.231886 -2.522092,4.629504 -5.092411,8.084337 -7.769998,8.926419 -2.677588,0.842083 -5.462444,-0.928586 -8.413609,-6.750083 z"
     id="path3133" /></svg>
