<svg viewBox="0 0 48 48" xmlns="http://www.w3.org/2000/svg"><defs><style id="style3">.a{stroke:#fff;stroke-opacity:1;fill:none;stroke-linejoin:round;stroke-linecap:round;}</style></defs><path d="m21,14.1c-2.7-0.4-4,1.1-5.9,2.5l-6.5,5 1.2,0.6c1.6,0.8 3.8,0.5 5.3-0.6l8.9-7z" class="a"/><path d="m32.1,17.6-3.3,-0.6c0,0-2.3-0.6-4.4,0.9l-10.3,8.1 1.6,0.9c1.6,0.8 3.7,0.5 5.2-0.6L32.2,17.6" class="a"/><path d="m40,20.9-3.6-0.6c-2.1-0.4-3.2,0.3-5.2,1.9l-11.1,9 1.6,0.9c1.6,0.8 3.85,0.7 5.3-0.5z" class="a"/></svg>
