<?xml version="1.0" encoding="UTF-8"?><svg id="b" xmlns="http://www.w3.org/2000/svg" viewBox="0 0 48 48"><defs><style>.d{fill:none;stroke:#fff;stroke-linecap:round;stroke-linejoin:round;}</style></defs><path id="c" class="d" d="m29.497,14.28c-1.075-3.159-3.174-4.9-5.16-4.918-2.128-.02-3.841,2.652-3.841,5.946v19.387c0,3.294,1.713,5.946,3.841,5.946s3.841-2.652,3.841-5.946v-9.009h4.822v17.752c-1.776-1.809-2.483-1.8-4.995-.894-1.633.589-2.27,1.042-4.778.943-4.541-.177-8.227-8.347-8.227-18.644s3.684-18.573,8.226-18.643l2.848-.044c2.91-.045,2.502-.868,3.303-1.655l2.27,8.294-2.15,1.485Z"/></svg>