<svg xmlns="http://www.w3.org/2000/svg" xml:space="preserve" id="svg990" width="48" height="48" version="1.1"><defs id="defs987"><style id="style1174">.a{fill:none;stroke:#fff;stroke-linecap:round;stroke-linejoin:round}</style></defs><path id="rect438" d="M29.497 14.28c-1.075-3.159-3.174-4.9-5.16-4.918-2.128-.02-3.841 2.652-3.841 5.946v19.387c0 3.294 1.713 5.946 3.841 5.946s3.841-2.652 3.841-5.946v-9.009H33v17.752c-1.776-1.809-2.483-1.8-4.995-.894-1.633.589-2.27 1.042-4.778.943C18.686 43.31 15 35.14 15 24.843 15 14.546 18.684 6.27 23.226 6.2l2.848-.044c2.91-.045 2.502-.868 3.303-1.655l2.27 8.294z" style="fill:none;stroke:#fff;stroke-width:1;stroke-linecap:round;stroke-linejoin:round;stroke-dasharray:none;stroke-opacity:1;stop-color:#000"/></svg>