<?xml version="1.0" encoding="UTF-8" standalone="no"?>
<svg
   id="Layer_2"
   data-name="Layer 2"
   viewBox="0 0 48 48"
   version="1.1"
   xmlns="http://www.w3.org/2000/svg"
   xmlns:svg="http://www.w3.org/2000/svg">
  <defs
     id="defs4">
    <style
       id="style2">.a{fill:none;stroke:#fff;stroke-linecap:round;stroke-linejoin:round;}</style>
  </defs>
  <path
     class="a"
     d="m 36.892305,22.998329 c 2.911762,-5.04332 1.782224,-11.449245 -2.678854,-15.1925335 -4.461078,-3.7432886 -10.965824,-3.7432887 -15.426902,-2e-7 -4.461078,3.7432887 -5.590616,10.1492137 -2.678854,15.1925337 0,0 8.720943,12.464169 10.392305,19.601671 1.309081,-7.106396 10.392305,-19.601671 10.392305,-19.601671 z" />
  <path
     class="a"
     d="m 23.5,11.6 h 6.8 l -2.5,5 h 2.5 l -4.8,7.5 v -5.5 h -2 z"
     id="path2715" />
  <path
     class="a"
     d="m 22.451506,33.359505 c 0,0 -1.673979,1.693021 -1.979461,2.792272 -0.276104,0.993538 0.711022,2.172619 0.230438,3.084973 -0.954388,1.811836 -3.352997,3.686979 -5.311177,3.087696 -0.863881,-0.264383 -1.179415,-2.44022 -1.179415,-2.44022"
     id="path2717" />
  <path
     class="a"
     d="m 12.766402,39.888701 2.78236,-0.21826 -0.217557,-2.533449 1.873078,-1.571497 -0.268791,-2.698794 0.997428,-0.115575 -0.167886,-2.043751 -8.699445,0.604438 0.142795,2.243375 0.934235,-0.03401 0.289491,2.658981 2.096817,1.269525 z"
     id="path2719" />
  <path
     class="a"
     d="m 11.099991,27.755425 0.227655,3.397531"
     id="path2721" />
  <path
     class="a"
     d="m 14.839408,27.464417 0.261485,3.407884"
     id="path2723" />
</svg>
