<svg version="1.1" viewBox="0 0 48 48" xmlns="http://www.w3.org/2000/svg">
 <defs>
  <style>.a{fill:none;stroke:#fff;stroke-linecap:round;stroke-linejoin:round;}</style>
 </defs>
 <g stroke="#fff">
  <path class="a" d="m40.5 5.5h-33a2 2 0 0 0-2 2v33a2 2 0 0 0 2 2h33a2 2 0 0 0 2-2v-33a2 2 0 0 0-2-2z"/>
  <g fill="none" stroke-linecap="round" stroke-linejoin="round">
   <path class="a" d="m18.658 35.634 13.523 6.7737"/>
   <path class="a" d="m42.012 24.472-18.493-8.2305c-1.0091-0.44913-1.4631-1.6313-1.014-2.6404l3.6056-8.1013"/>
   <path class="a" d="m5.6282 38.403 15.471-3.2873c1.0804-0.22957 1.7702-1.2916 1.5406-2.372l-5.7791-27.199"/>
  </g>
 </g>
</svg>
