<svg xmlns="http://www.w3.org/2000/svg" viewBox="0 0 48 48"><defs><style>.a{fill:none;stroke:#fff;stroke-linecap:round;stroke-linejoin:round;}</style></defs><line class="a" x1="24" y1="43.5" x2="24" y2="20.958"/><line class="a" x1="24" y1="20.958" x2="39.4907" y2="13.084"/><line class="a" x1="21.5396" y1="6.4606" x2="24" y2="5.21"/><line class="a" x1="8.5093" y1="13.084" x2="14.0087" y2="10.2886"/><line class="a" x1="24" y1="36.5954" x2="39.4907" y2="28.7214"/><line class="a" x1="24" y1="20.958" x2="8.5093" y2="13.084"/><line class="a" x1="24" y1="36.5954" x2="21.3482" y2="35.2475"/><line class="a" x1="39.4907" y1="13.084" x2="39.4907" y2="28.7214"/><polygon class="a" points="29.624 30.653 26.588 32.196 26.588 28.619 29.624 27.076 29.624 30.653"/><polygon class="a" points="37.188 26.808 34.152 28.351 34.152 24.774 37.188 23.231 37.188 26.808"/><polyline class="a" points="8.509 13.084 8.509 43.5 32.592 43.5 37.188 43.5 37.188 29.892"/><line class="a" x1="24" y1="5.21" x2="39.4907" y2="13.084"/><line class="a" x1="21.3482" y1="35.2475" x2="21.3482" y2="43.5"/><line class="a" x1="15.9666" y1="22.867" x2="18.7134" y2="21.4708"/><line class="a" x1="15.9666" y1="32.3374" x2="18.7134" y2="30.9412"/><line class="a" x1="15.9666" y1="22.867" x2="8.5093" y2="19.0764"/><line class="a" x1="15.9666" y1="32.3374" x2="8.5093" y2="28.5468"/><line class="a" x1="15.9666" y1="22.867" x2="15.9666" y2="32.3374"/><polyline class="a" points="8.509 19.076 11.256 17.68 18.713 21.471 18.713 30.941"/><line class="a" x1="26.7688" y1="16.7747" x2="24" y2="15.3673"/><polygon class="a" points="31.745 14.245 26.769 16.775 26.769 13.625 31.745 11.095 31.745 14.245"/><line class="a" x1="26.7688" y1="13.6246" x2="24" y2="12.2172"/><line class="a" x1="31.7454" y1="11.0951" x2="28.9765" y2="9.6876"/><line class="a" x1="28.9765" y1="9.6876" x2="24" y2="12.2172"/><line class="a" x1="24" y1="15.3673" x2="24" y2="12.2172"/><line class="a" x1="21.6659" y1="14.1809" x2="18.8971" y2="12.7735"/><polyline class="a" points="24 12.994 21.666 14.181 21.666 11.031 26.642 8.501 26.642 10.874"/><line class="a" x1="21.6659" y1="11.0308" x2="18.8971" y2="9.6234"/><line class="a" x1="26.6425" y1="8.5012" x2="23.8736" y2="7.0938"/><line class="a" x1="23.8736" y1="7.0938" x2="18.8971" y2="9.6234"/><line class="a" x1="18.8971" y1="12.7735" x2="18.8971" y2="9.6234"/><line class="a" x1="16.563" y1="11.587" x2="13.7942" y2="10.1796"/><polyline class="a" points="18.897 10.401 16.563 11.587 16.563 8.437 21.54 5.907 21.54 8.28"/><line class="a" x1="16.563" y1="8.437" x2="13.7942" y2="7.0296"/><line class="a" x1="21.5396" y1="5.9074" x2="18.7707" y2="4.5"/><line class="a" x1="18.7707" y1="4.5" x2="13.7942" y2="7.0296"/><line class="a" x1="13.7942" y1="10.1796" x2="13.7942" y2="7.0296"/><line class="a" x1="11.4601" y1="8.9932" x2="13.7942" y2="10.1796"/><line class="a" x1="13.8124" y1="7.7975" x2="11.4601" y2="8.9932"/><line class="a" x1="11.4601" y1="8.9932" x2="11.4601" y2="11.549"/><polyline class="a" points="14.179 27.441 11.812 26.238 11.812 23.231 14.179 24.435"/><line class="a" x1="14.1788" y1="24.4347" x2="14.1788" y2="27.4408"/><line class="a" x1="34.4337" y1="34.6368" x2="37.1877" y2="33.2369"/><line class="a" x1="34.4337" y1="34.6368" x2="34.4337" y2="31.2941"/><line class="a" x1="34.4337" y1="34.6368" x2="30.751" y2="33.1638"/><polyline class="a" points="26.693 38.59 29.447 37.19 29.447 33.809"/><line class="a" x1="26.6934" y1="38.5902" x2="26.6934" y2="35.2263"/><line class="a" x1="26.6934" y1="38.5902" x2="24" y2="37.5129"/></svg>