<svg viewBox="0 0 48 48" xmlns="http://www.w3.org/2000/svg">
    <style>
        .a{fill:none;stroke:#FFFFFF;stroke-linecap:round;stroke-linejoin:round}
    </style>
    <path class="a" d="M15.5106382,18.573H7.6399999c-1.1476002,0-2.0778003,0.9302006-2.0778999,2.0778008v19.7714024c0,1.1475983,0.9303002,2.0778008,2.0778999,2.0778008h32.7200012c1.1475983,0,2.0778008-0.9301987,2.0778999-2.0778008V20.6508026c0-1.1476002-0.9303017-2.0778008-2.0778999-2.0778008h-7.8706398"/>
    <path class="a" d="M14.5204,35.763401h19.2028999c0.2324028,0,0.4207993,0.1883965,0.4207993,0.4207993v2.4854012c0,0.2324028-0.1883965,0.4207993-0.4207993,0.4207993H14.5204c-0.2324018,0-0.4208002-0.1883965-0.4208002-0.4207993v-2.4854012C14.0995998,35.9517975,14.2879982,35.763401,14.5204,35.763401z"/>
    <path class="a" d="M11.1541004,29.7800007h2.5246992c0.2324018,0,0.4208002,0.1883984,0.4208002,0.4207993v2.5247021c0,0.2324028-0.1883984,0.4207993-0.4208002,0.4207993h-2.5246992c-0.2324018,0-0.4208002-0.1883965-0.4208002-0.4207993v-2.5247021C10.7333002,29.968399,10.9216986,29.7800007,11.1541004,29.7800007z"/>
    <path class="a" d="M17.0067997,29.7800007h2.5247021c0.2324009,0,0.4207993,0.1883984,0.4207993,0.4207993v2.5247021c0,0.2324028-0.1883984,0.4207993-0.4207993,0.4207993h-2.5247021c-0.2324009,0-0.4207993-0.1883965-0.4207993-0.4207993v-2.5247021C16.5860004,29.968399,16.7743988,29.7800007,17.0067997,29.7800007z"/>
    <path class="a" d="M28.7122993,29.7800007h2.5247021c0.2324009,0,0.4207993,0.1883984,0.4207993,0.4207993v2.5247021c0,0.2324028-0.1883984,0.4207993-0.4207993,0.4207993h-2.5247021c-0.2324009,0-0.4207993-0.1883965-0.4207993-0.4207993v-2.5247021C28.2915001,29.968399,28.4798985,29.7800007,28.7122993,29.7800007z"/>
    <path class="a" d="M34.5649986,29.7800007h2.5247002c0.2324028,0,0.4207993,0.1883984,0.4207993,0.4207993v2.5247021c0,0.2324028-0.1883965,0.4207993-0.4207993,0.4207993h-2.5247002c-0.2324028,0-0.4207993-0.1883965-0.4207993-0.4207993v-2.5247021C34.1441994,29.968399,34.3325958,29.7800007,34.5649986,29.7800007z"/>
    <path class="a" d="M11.1541004,23.7964993h2.5246992c0.2324018,0,0.4208002,0.1883984,0.4208002,0.4207993v2.5247021c0,0.2324009-0.1883984,0.4207993-0.4208002,0.4207993h-2.5246992c-0.2324018,0-0.4208002-0.1883984-0.4208002-0.4207993v-2.5247021C10.7333002,23.9848976,10.9216986,23.7964993,11.1541004,23.7964993z"/>
    <path class="a" d="M34.5649986,23.7964993h2.5247002c0.2324028,0,0.4207993,0.1883984,0.4207993,0.4207993v2.5247021c0,0.2324009-0.1883965,0.4207993-0.4207993,0.4207993h-2.5247002c-0.2324028,0-0.4207993-0.1883984-0.4207993-0.4207993v-2.5247021C34.1441994,23.9848976,34.3325958,23.7964993,34.5649986,23.7964993z"/>
    <path class="a" d="M19.8843746,26.9713364c-0.0750637,0.1152611-0.2050686,0.1914635-0.3528728,0.1914635h-2.5247021c-0.2324009,0-0.4207993-0.1883965-0.4207993-0.4207993v-2.5247021c0-0.0830975,0.024086-0.1605682,0.0656586-0.2258129"/>
    <path class="a" d="M31.3988762,23.8287621c0.1520519,0.0634212,0.2589226,0.2134991,0.2589226,0.3885365v2.5247021c0,0.2324009-0.1883965,0.4207993-0.4207993,0.4207993h-2.5247002c-0.2264328,0-0.4110928-0.1788464-0.4204273-0.4029846"/>
    <path class="a" d="M22.8595505,29.7800007h2.5247002c0.2324028,0,0.4207993,0.1883984,0.4207993,0.4207993v2.5247021c0,0.232399-0.1883965,0.4207993-0.4207993,0.4207993h-2.5247002c-0.2324028,0-0.4207993-0.1884003-0.4207993-0.4207993v-2.5247021C22.4387512,29.968399,22.6271477,29.7800007,22.8595505,29.7800007z"/>
    <path class="a" d="M24.0000076,28.8723412h-0.0000153c-2.4893532,0-8.4893541-4.8723412-8.4893541-7.1914902V5.5h16.9787216v16.180851C32.4893608,23.7964993,26.4255314,28.8723412,24.0000076,28.8723412z"/>
    <line class="a" x1="22.4893627" x2="17.5176277" y1="10.4587059" y2="12.7386446"/>
    <line class="a" x1="30.5106468" x2="25.5106163" y1="12.7516098" y2="10.4586964"/>
    <polygon class="a" points="25.0731392,24.1276588 22.9268608,24.1276588 21.1010647,19.9042549 26.9095745,19.9042549"/>
</svg>