<svg version="1.1" id="Ebene_1" xmlns="http://www.w3.org/2000/svg" x="0" y="0" viewBox="0 0 48 48" style="enable-background:new 0 0 48 48" xml:space="preserve">
  <style>
    .st0{stroke-miterlimit:10}.st0,.st1{fill:none;stroke:#fff;stroke-linecap:round;stroke-linejoin:round}
  </style>
  <path class="st0" d="M14.3 37.3v-8l5.3 8v-8M28.4 29.3v8M33.7 29.3v8M28.4 33.3h5.3"/>
  <circle class="st1" cx="17" cy="15.2" r="3.5"/>
  <circle class="st1" cx="31" cy="15.2" r="3.5"/>
  <path class="st1" d="M11.2 8.7h25.7c1.5 0 2.8 1.3 2.8 2.8v7.4c0 1.5-1.3 2.8-2.8 2.8H11.2c-1.5 0-2.8-1.3-2.8-2.8v-7.4c0-1.6 1.2-2.8 2.8-2.8zM5.5 5.8l3.7 3.7M11.2 24.7h25.7c1.5 0 2.8 1.3 2.8 2.8v11.7c0 1.5-1.3 2.8-2.8 2.8H11.2c-1.5 0-2.8-1.3-2.8-2.8V27.5c0-1.6 1.2-2.8 2.8-2.8zM42.5 5.8l-3.7 3.7"/>
</svg>
