<?xml version="1.0" encoding="UTF-8"?>
<!-- Created with Inkscape (http://www.inkscape.org/) -->
<svg width="48" height="48" version="1.1" viewBox="0 0 48 48" xmlns="http://www.w3.org/2000/svg">
 <g fill="none" stroke="#fff" stroke-linecap="round" stroke-linejoin="round" stroke-width="1">
  <path d="m11.064 7.2763 0.18181 28.302c0.0745 6.2391 0.04638 6.2375 4.7816 6.3091l15.188 0.04534c4.8175 0.0024 4.8152 0.0035 4.8893-5.9121l-0.000002 -9.8531"/>
  <path d="m5.7305 22.315 15.101-14.685c2.7524-2.265 3.6682-2.2787 6.7008 0.29359l14.87 14.317"/>
  <path d="m16.695 23.722c7.687-7.0739 14.225 0 14.225 0"/>
  <path d="m18.769 25.945c5.4081-5.334 10.149-0.07408 10.149-0.07408"/>
  <path d="m20.917 27.945c3.1856-3.3338 6.0008 0.07409 6.0008 0.07409"/>
 </g>
 <ellipse cx="23.946" cy="30.202" rx=".75" ry=".75" fill="#fff" stroke="#fff" stroke-linecap="round" stroke-linejoin="round" stroke-width="1"/>
</svg>
