<?xml version="1.0" encoding="UTF-8" standalone="no"?>
<!-- Created with Inkscape (http://www.inkscape.org/) -->

<svg
   width="48"
   height="48"
   viewBox="0 0 12.7 12.7"
   version="1.1"
   id="svg5"
   inkscape:version="1.1.1 (3bf5ae0d25, 2021-09-20)"
   sodipodi:docname="guitar.svg"
   inkscape:export-filename="C:\Users\karin\Downloads\guitarphonr.png"
   inkscape:export-xdpi="184.73"
   inkscape:export-ydpi="184.73"
   xmlns:inkscape="http://www.inkscape.org/namespaces/inkscape"
   xmlns:sodipodi="http://sodipodi.sourceforge.net/DTD/sodipodi-0.dtd"
   xmlns="http://www.w3.org/2000/svg"
   xmlns:svg="http://www.w3.org/2000/svg">
  <sodipodi:namedview
     id="namedview7"
     pagecolor="#242424"
     bordercolor="#ffffff"
     borderopacity="1"
     inkscape:pageshadow="2"
     inkscape:pageopacity="0"
     inkscape:pagecheckerboard="0"
     inkscape:document-units="mm"
     showgrid="false"
     units="px"
     inkscape:zoom="8"
     inkscape:cx="46.5"
     inkscape:cy="44.25"
     inkscape:window-width="1920"
     inkscape:window-height="986"
     inkscape:window-x="-11"
     inkscape:window-y="-11"
     inkscape:window-maximized="1"
     inkscape:current-layer="layer1"
     showguides="false" />
  <defs
     id="defs2">
    <inkscape:path-effect
       effect="skeletal"
       id="path-effect9826"
       is_visible="true"
       lpeversion="1"
       pattern="m 1.0340942,4.7524184 0.0026,0.4675319 H 0.82841251 c -0.41202306,0.1697227 -0.3071063,0.8290488 0,0.8679771 0.13895689,0.017614 0.29662509,0.029694 0.38365239,0 0.3897856,-0.1331301 0.2913609,-0.7902689 0,-0.8679771 H 1.0366896 Z"
       copytype="repeated"
       prop_scale="1"
       scale_y_rel="false"
       spacing="0.4"
       normal_offset="0"
       tang_offset="0"
       prop_units="false"
       vertical_pattern="false"
       hide_knot="false"
       fuse_tolerance="0" />
    <inkscape:path-effect
       effect="skeletal"
       id="path-effect1418"
       is_visible="true"
       lpeversion="1"
       pattern="M 1.2567708,5.0436201 A 0.1984375,0.1984375 0 0 1 1.0589982,5.2420565 0.1984375,0.1984375 0 0 1 0.85990024,5.04495 0.1984375,0.1984375 0 0 1 1.0563384,4.8451926 0.1984375,0.1984375 0 0 1 1.2567529,5.0409603"
       copytype="repeated"
       prop_scale="1"
       scale_y_rel="false"
       spacing="0.9"
       normal_offset="0"
       tang_offset="0"
       prop_units="false"
       vertical_pattern="false"
       hide_knot="false"
       fuse_tolerance="0" />
    <inkscape:path-effect
       effect="skeletal"
       id="path-effect7032"
       is_visible="true"
       lpeversion="1"
       pattern="M 5.4818357,9.9136067 A 0.19843753,0.19843764 0 0 1 5.2840631,10.112043 0.19843753,0.19843764 0 0 1 5.0849651,9.9149367 0.19843753,0.19843764 0 0 1 5.2814033,9.7151792 0.19843753,0.19843764 0 0 1 5.4818179,9.9109469"
       copytype="repeated"
       prop_scale="1"
       scale_y_rel="false"
       spacing="0.4"
       normal_offset="0.1"
       tang_offset="0.4"
       prop_units="false"
       vertical_pattern="false"
       hide_knot="false"
       fuse_tolerance="0" />
  </defs>
  <g
     inkscape:label="Layer 1"
     inkscape:groupmode="layer"
     id="layer1">
    <path
       id="path10050"
       style="fill:none;fill-opacity:1;stroke:#ffffff;stroke-width:0.264583;stroke-linecap:round;stroke-linejoin:round;stroke-miterlimit:4;stroke-dasharray:none;stroke-opacity:1"
       d="M 8.3241401,0.8101829 C 7.5146337,0.81879334 6.920062,1.4052813 6.6296699,2.1330995 v 0 L 3.6531074,9.3595317 c 0.1134904,0.091639 1.8701152,0.1176854 1.6205729,2.2654953 -0.036666,0.315583 2.4203774,0.319948 2.5796875,0.165364 C 8.3355127,11.549299 6.8498702,8.6469305 9.4904771,8.2185161 9.7157328,8.1819706 7.8662501,4.0734534 7.9360501,4.2166933 v 0 c 0.1422114,0.037235 0,0 0,0 0.9430276,-0.00313 2.1166719,-0.7519541 2.1166669,-1.694987 V 2.4989687 C 10.040235,1.55593 9.2672138,0.80070327 8.3241401,0.8101829 Z"
       sodipodi:nodetypes="ccccscscccscc" />
    <path
       d="M 7.1565125,2.9382799 C 7.0554181,2.8966392 7.0070526,2.7810702 7.0483543,2.6798369 7.089656,2.5786036 7.2050623,2.5298511 7.3064334,2.5708133 7.4078046,2.6117755 7.4569436,2.7270178 7.4163213,2.8285256 7.375699,2.9300334 7.260622,2.9795583 7.1589786,2.9392764 M 6.6625896,4.137415 C 6.5614952,4.0957743 6.5131297,3.9802053 6.5544314,3.878972 6.5957331,3.7777387 6.7111394,3.7289862 6.8125105,3.7699484 6.9138816,3.8109106 6.9630206,3.9261529 6.9223983,4.0276607 6.881776,4.1291685 6.7666991,4.1786934 6.6650557,4.1384115 M 6.1686666,5.3365501 C 6.0675723,5.2949094 6.0192067,5.1793404 6.0605085,5.0781071 6.1018102,4.9768738 6.2172165,4.9281213 6.3185876,4.9690835 6.4199587,5.0100457 6.4690977,5.125288 6.4284754,5.2267958 6.3878531,5.3283036 6.2727762,5.3778285 6.1711328,5.3375466 M 5.6747437,6.5356852 C 5.5736493,6.4940445 5.5252838,6.3784755 5.5665855,6.2772421 5.6078873,6.1760088 5.7232935,6.1272563 5.8246647,6.1682186 5.9260358,6.2091808 5.9751748,6.324423 5.9345525,6.4259309 5.8939302,6.5274387 5.7788533,6.5769636 5.6772099,6.5366817 M 5.1808208,7.7348203 C 5.0797264,7.6931796 5.0313609,7.5776106 5.0726626,7.4763772 5.1139643,7.3751439 5.2293706,7.3263914 5.3307417,7.3673537 5.4321129,7.4083159 5.4812519,7.5235581 5.4406296,7.625066 5.4000073,7.7265738 5.2849303,7.7760987 5.183287,7.7358167 M 4.6868979,8.9339554 C 4.5858035,8.8923147 4.537438,8.7767456 4.5787397,8.6755123 4.6200414,8.574279 4.7354477,8.5255265 4.8368188,8.5664888 4.93819,8.607451 4.987329,8.7226932 4.9467067,8.8242011 4.9060844,8.9257089 4.7910074,8.9752337 4.689364,8.9349518"
       style="fill:#ffffff;fill-opacity:1;stroke:none;stroke-width:0.264583;stroke-linecap:round;stroke-linejoin:round;stroke-miterlimit:4;stroke-dasharray:none;stroke-opacity:1"
       id="path1271" />
    <path
       d="M 6.4480527,2.4112183 6.0147665,2.2355599 6.0940919,2.0429755 C 6.094082,1.597365 5.4444883,1.4432661 5.2915305,1.7124011 5.2223214,1.834177 5.1511029,1.9753616 5.1454141,2.0671392 5.1200585,2.4782517 5.7651572,2.6375203 5.9479755,2.3977137 l 0.066793,-0.162158 z M 5.9485614,3.6238721 C 5.8041327,3.5653193 5.6597039,3.5067666 5.5152752,3.4482138 L 5.5946006,3.2556294 C 5.5945907,2.8100188 4.944997,2.65592 4.7920392,2.9250549 4.7228301,3.0468308 4.6516116,3.1880155 4.6459228,3.279793 4.6205672,3.6909056 5.2656659,3.8501741 5.4484842,3.6103675 l 0.066793,-0.162158 c 0.1444279,0.058554 0.2888561,0.1171084 0.4332842,0.1756626 z M 5.4490701,4.836526 C 5.3046414,4.7779732 5.1602126,4.7194204 5.0157839,4.6608676 L 5.0951093,4.4682832 C 5.0950994,4.0226726 4.4455057,3.8685738 4.2925479,4.1377087 4.2233388,4.2594846 4.1521203,4.4006693 4.1464315,4.4924469 4.1210759,4.9035594 4.7661746,5.062828 4.9489929,4.8230213 l 0.066793,-0.162158 C 5.1602138,4.7194175 5.304642,4.7779718 5.4490701,4.836526 Z M 4.9495788,6.0491798 4.5162926,5.8735214 4.595618,5.680937 C 4.5956081,5.2353264 3.9460144,5.0812276 3.7930566,5.3503625 3.7238475,5.4721384 3.652629,5.6133231 3.6469402,5.7051007 3.6215846,6.1162132 4.2666833,6.2754818 4.4495016,6.0356752 l 0.066793,-0.162158 z M 4.4500875,7.2618336 4.0168013,7.0861752 4.0961267,6.8935909 C 4.0961168,6.4479803 3.4465231,6.2938814 3.2935653,6.5630164 3.2243562,6.6847923 3.1531377,6.8259769 3.1474489,6.9177545 3.1220933,7.3288671 3.767192,7.4881356 3.9500103,7.248329 L 4.0168033,7.086171 Z M 3.9505962,8.4744875 3.51731,8.2988291 3.5966354,8.1062447 C 3.5966255,7.6606341 2.9470318,7.5065353 2.794074,7.7756702 2.7248649,7.8974461 2.6536464,8.0386308 2.6479576,8.1304083 2.622602,8.5415209 3.2677007,8.7007894 3.450519,8.4609828 l 0.066793,-0.162158 z"
       style="fill:none;fill-opacity:1;stroke:#ffffff;stroke-width:0.264583;stroke-linecap:round;stroke-linejoin:round;stroke-miterlimit:4;stroke-dasharray:none;stroke-opacity:1"
       id="path9699" />
  </g>
</svg>
