<svg xmlns="http://www.w3.org/2000/svg" viewBox="0 0 48 48"><defs><style>.a{fill:none;stroke:#fff;stroke-linecap:round;stroke-linejoin:round;}</style></defs><path class="a" d="M5.5,42.92s3.4166-5.7229,9.5894-1.8043"/><path class="a" d="M18.6605,42.3432s3.5614-2.8609,7.04,0"/><path class="a" d="M31.89,39.5906s-2.7275-12.702-6.9-.273"/><path class="a" d="M17.2851,40.4477s7.9582-7.7044-2.894-5.9126"/><path class="a" d="M20.1935,35.5012l4.7512-1.0739,1.2639-3.34"/><path class="a" d="M18.8251,34.2093l2.3616-2.2875"/><path class="a" d="M26.1766,35.9385l-1.2321-1.5119"/><path class="a" d="M28.35,33.8389s2.4846-3.8636,1.4014-7.5775l.3357-1.85s2.3892-1.1021,2.3261-3.1011"/><path class="a" d="M32.4141,21.3094s1.9391-2.0285,3.7083.747"/><path class="a" d="M36.1224,22.0574S31.91,11.0837,42.5,11.2228"/><path class="a" d="M21.1861,31.9222a4.1082,4.1082,0,0,1-1.0968-3.2491s-4.5688-1.9016-1.7136,1.6846c0,0-4.5838.79-5.0973,1.8825a7.047,7.047,0,0,1,2.9342-4.2392c-1.08-.0218-2.8872.5964-1.1841-1.8744l-2.0149,1.0477-2.1048-.1224s.2625-7.3248,2.5238-9.6774"/><path class="a" d="M13.7572,19.3364s1.8971-2.3186,3.7432.9678l1.0847-1.8106,3.0958.0616s1.4687-2.236-.9727-2.3017l-.04-.5553a2.4879,2.4879,0,0,0-1.2363.3152S19.3161,14.6,18.2253,14.89c.3482-.0813-.3265-2.0657.4951-2.6557m-1.2158.9092c.3759-.9033.3689-.4869.8385-.7549,1.6028-.9146,3.2146-.9755,3.2393.8388"/><path class="a" d="M21.583,13.2274c.1306,1.4049,1.1542,1.049,2.5387-.358,3.1341-2.2419-.6386,3.0948,5.8741-1.3558,0,0-2.8169-4.9389-11.4242-6.4332"/><path class="a" d="M30.8811,7.9062c-.69-.0021-.77.6292-1.0438,1.36s-1.2492.3737-1.2492.3737c-.9536.3843-1.3027.6885-1.3071,1.5414"/><path class="a" d="M39.0564,6.5317s-6.6507,1.0188-5.6325,6.1067"/><path class="a" d="M32.4141,21.3094s-.5943-3.2685-2.077-4.1785.5972.0134,1.2425-1.0337"/><path class="a" d="M25.7657,27.245l-4.7542-6.3765"/><path class="a" d="M27.9226,26.8332l-1.054,2.7652,2.8939.0024"/><path class="a" d="M21.1545,12.0465c1.3842.6486,2.4009-.6621.5614-1.3171-2.4282-.8648.0752-2.6087,1.1474-.77.9039,1.55,2.2735-.5624.7655-1.0751-.3382-.1149-.2011-.4566.1175-.6779"/><path class="a" d="M26.555,13.333c-2.71,2.8781.3269,4.2343,5.3072-1"/><path class="a" d="M27.1578,20.9345s-.0491-1.5724.6577-1.8778-.3416-1.396.2649-1.9489"/><ellipse class="a" cx="22.9629" cy="29.0041" rx="1.2259" ry="1.7327"/><path class="a" d="M24.99,39.3186s2.5359-.2182,2.6257,1.6551"/><path class="a" d="M14.3908,34.5358c1.4694,3.2024,2.7323,2.19-.3828,3.5981"/><path class="a" d="M14.3547,24.6771l.7135-1.4123-1.4521.5209.88-1.8617"/><path class="a" d="M19.2334,22.0855l.5615,2.2275-2.2588,1.8149"/><path class="a" d="M28.3511,42.3423c4.2673-6.1317,5.2578,0,5.2578,0Z"/></svg>