<?xml version="1.0" encoding="UTF-8" standalone="no"?>
<svg
   viewBox="0 0 48 48"
   version="1.1"
   id="svg192"
   sodipodi:docname="fiare.svg"
   xml:space="preserve"
   inkscape:version="1.2.2 (1:1.2.2+202212051550+b0a8486541)"
   xmlns:inkscape="http://www.inkscape.org/namespaces/inkscape"
   xmlns:sodipodi="http://sodipodi.sourceforge.net/DTD/sodipodi-0.dtd"
   xmlns="http://www.w3.org/2000/svg"
   xmlns:svg="http://www.w3.org/2000/svg"><sodipodi:namedview
     id="namedview194"
     pagecolor="#ffffff"
     bordercolor="#666666"
     borderopacity="1.0"
     inkscape:showpageshadow="2"
     inkscape:pageopacity="0.0"
     inkscape:pagecheckerboard="0"
     inkscape:deskcolor="#d1d1d1"
     showgrid="false"
     inkscape:zoom="5.6568543"
     inkscape:cx="19.091883"
     inkscape:cy="29.698485"
     inkscape:window-width="1920"
     inkscape:window-height="1029"
     inkscape:window-x="1360"
     inkscape:window-y="25"
     inkscape:window-maximized="1"
     inkscape:current-layer="svg192" /><defs
     id="defs188"><style
       id="style186">.a{fill:none;stroke:#000;stroke-linecap:round;stroke-linejoin:round;}</style></defs><path
     id="path722"
     style="font-variation-settings:normal;fill:none;fill-opacity:0.441636;stroke:#000000;stroke-width:1;stroke-linecap:round;stroke-linejoin:round;stroke-miterlimit:4;stroke-dasharray:none;stroke-dashoffset:0;stroke-opacity:1;stop-color:#000000"
     d="m 4.8584539,6.9710694 v 6.0918856 l 9.7311601,3.94435 -9.73116,3.946754 v 6.091884 l 9.73116,3.944351 -9.73116,3.946753 v 6.091884 l 17.69673,-6.802924 v -3.233311 -3.230908 c -3.254034,-1.256181 -6.516243,-2.508613 -9.7768,-3.761787 l 9.7768,-3.756982 V 17.012111 13.778799 C 16.665295,11.50508 10.756631,9.2384274 4.8584539,6.9710694 Z" /><path
     id="path722-3"
     style="font-variation-settings:normal;fill:none;fill-opacity:0.441636;stroke:#000000;stroke-width:1;stroke-linecap:round;stroke-linejoin:round;stroke-miterlimit:4;stroke-dasharray:none;stroke-dashoffset:0;stroke-opacity:1;stop-color:#000000"
     d="m 43.141546,6.9710694 v 6.0918856 l -9.731161,3.94435 9.731161,3.946754 v 6.091884 l -9.731161,3.944351 9.731161,3.946753 v 6.091884 L 25.444815,34.226007 v -3.233311 -3.230908 c 3.254034,-1.256181 6.516242,-2.508613 9.7768,-3.761787 l -9.7768,-3.756982 V 17.012111 13.778799 C 31.334704,11.50508 37.243369,9.2384274 43.141546,6.9710694 Z" /></svg>
