<svg width="48" height="49" viewBox="0 0 48 49" fill="none" xmlns="http://www.w3.org/2000/svg">
<path d="M12.0587 7.35443H27.4297C27.982 7.35443 28.4297 7.80215 28.4297 8.35443V23.8217M15.8046 26.9457C18.728 23.6535 20.0972 22.1559 20.731 21.4882C21.0496 21.1525 21.4585 21.2584 21.7652 21.605L24.7419 24.9692C25.352 25.6587 26.4908 25.2272 26.4908 24.3065V10.3552C26.4908 9.80296 26.0431 9.35524 25.4908 9.35524H11.607C10.7188 9.35524 10.2714 10.4268 10.8959 11.0583L13.9759 14.1734C14.3667 14.5686 14.3629 15.2056 13.9697 15.5983C12.739 16.8273 10.1055 19.5103 7.53843 22.4682C4.14897 26.3737 2.11009 38.6898 18.5151 42.9896C19.0114 43.1197 19.3296 42.5091 18.9508 42.1631C14.443 38.0465 10.2974 33.1479 15.8046 26.9457Z" stroke="white" stroke-linecap="round"/>
<path d="M20.9823 42.4191C22.0664 37.4837 26.4656 33.7905 31.7261 33.7905C36.9866 33.7905 41.3858 37.4837 42.47 42.4191C42.5225 42.6581 42.3353 42.9216 42.0199 42.9216H21.4324C21.1169 42.9216 20.9298 42.6581 20.9823 42.4191Z" stroke="white" stroke-linecap="round"/>
<path d="M26.7339 34.9043L24.7736 31.4172" stroke="white" stroke-linecap="round"/>
<path d="M36.7165 34.6131L38.4696 31.2875" stroke="white" stroke-linecap="round"/>
<circle cx="26.7339" cy="38.5405" r="0.5" fill="white"/>
<circle cx="36.7165" cy="38.5405" r="0.5" fill="white"/>
</svg>
