<svg xmlns="http://www.w3.org/2000/svg" xml:space="preserve" id="svg13" version="1.1" viewBox="0 0 48 48">
  <defs id="defs1">
    <style id="style1">
      .a,.b,.c{fill:none;stroke:#fff}.a,.c{stroke-linecap:round}.a{stroke-linejoin:round}.b,.c{stroke-miterlimit:5.052}
    </style>
  </defs>
  <g id="fish" style="fill:none;stroke:#fff;stroke-opacity:1;stroke-width:43.817446;stroke-dasharray:none" transform="matrix(.023 0 0 .023 3.4602411 3.4603208)">
    <g id="body" style="fill:none;stroke:#fff;stroke-opacity:1;stroke-width:43.817446;stroke-dasharray:none">
      <path id="path1-3" fill="#fff" d="M932 772.05H100c-53.02 0-96 42.98-96 96v832c0 53.02 42.98 96 96 96h832c53.02 0 96-42.98 96-96v-832c0-53.02-42.98-96-96-96zm-672 768c-70.69 0-128-57.31-128-128s57.31-128 128-128 128 57.31 128 128-57.31 128-128 128zm320 0c-70.69 0-128-57.31-128-128s57.31-128 128-128 128 57.31 128 128-57.31 128-128 128z" style="fill:none;stroke:#fff;stroke-opacity:1;stroke-width:43.817446;stroke-dasharray:none"/>
    </g>
    <g id="fin-l" style="fill:none;stroke:#fff;stroke-opacity:1;stroke-width:43.817446;stroke-dasharray:none">
      <path id="path2-6" fill="#fff" d="M931.66 643.73H491.72c-52.98 0-95.94-42.95-95.94-95.94V107.86c0-85.47 103.34-128.27 163.77-67.84l439.94 439.94c60.44 60.44 17.63 163.77-67.84 163.77z" style="fill:none;stroke:#fff;stroke-opacity:1;stroke-width:43.817446;stroke-dasharray:none"/>
    </g>
    <g id="fin-b" style="fill:none;stroke:#fff;stroke-opacity:1;stroke-width:43.817446;stroke-dasharray:none">
      <path id="path3-7" fill="#fff" d="M1698.66 1412.05h-445.51c-53.65 0-97.15-43.5-97.15-97.15V869.39c0-86.55 104.64-129.9 165.84-68.7l445.51 445.51c61.2 61.2 17.86 165.84-68.7 165.84z" style="fill:none;stroke:#fff;stroke-opacity:1;stroke-width:43.817446;stroke-dasharray:none"/>
    </g>
    <g id="fin-r" style="fill:none;stroke:#fff;stroke-opacity:1;stroke-width:43.817446;stroke-dasharray:none">
      <path id="path4-5" fill="#fff" d="M1698.66 643.94h-445.51c-53.65 0-97.15-43.5-97.15-97.15v-445.5c0-86.55 104.64-129.9 165.84-68.7l445.51 445.51c61.2 61.2 17.86 165.84-68.7 165.84z" style="fill:none;stroke:#fff;stroke-opacity:1;stroke-width:43.817446;stroke-dasharray:none"/>
    </g>
  </g>
</svg>
