<svg xmlns="http://www.w3.org/2000/svg" viewBox="0 0 48 48"><defs><style>.a{fill:none;stroke:#fff;stroke-linecap:round;stroke-linejoin:round;}</style></defs><path class="a" d="M20.767,14.2117C18.1091,10.7615,15.6045,7.49,13.2533,4.5H6.0462c3.2969,4.1658,6.9515,8.9194,10.6573,13.7752Z"/><path class="a" d="M31.731,18.2241C35.1556,13.5472,38.4781,8.9214,41.57,4.5H34.6956c-2.1723,3.1435-4.5236,6.4148-6.9515,9.7372Z"/><path class="a" d="M31.7566,28.9325l-4.0892,4.0891c2.5813,3.578,5.0859,7.0793,7.4882,10.4528h7.0538c-3.1435-4.4213-6.7471-9.4561-10.4528-14.5419"/><path class="a" d="M16.8568,29.06C12.9722,34.2484,9.113,39.2831,5.7906,43.5H12.64c2.6324-3.348,5.367-6.8748,8.1271-10.5039Z"/></svg>