<svg width="48" height="49" viewBox="0 0 48 49" fill="none" xmlns="http://www.w3.org/2000/svg">
<path d="M13.8703 10.4467C15.6308 12.9234 16.4569 16.0047 16.7413 19.0678C17.0255 22.1287 16.7653 25.1357 16.3844 27.4276C16.3643 27.5485 16.2881 27.6159 16.1898 27.6377C16.0878 27.6604 15.9722 27.6298 15.8901 27.5216C13.1327 23.8893 10.2837 20.7123 6.41428 18.358C6.20195 18.2288 6.12816 18.0052 6.18602 17.8299C6.70809 16.2482 7.68096 14.5141 8.62387 13.1344C9.0938 12.4468 9.54939 11.8574 9.92769 11.4277C10.1173 11.2124 10.2821 11.0433 10.4155 10.9237C10.5475 10.8052 10.6147 10.7667 10.6251 10.7607C10.6263 10.76 10.6268 10.7598 10.6264 10.7599C11.1372 10.572 11.7 10.5053 12.2591 10.4806C12.502 10.4699 12.7365 10.4673 12.9651 10.4648C12.9992 10.4644 13.0332 10.464 13.0671 10.4636C13.3215 10.4606 13.5753 10.4562 13.8004 10.4358C13.8275 10.4333 13.8495 10.4378 13.8625 10.4429C13.8665 10.4445 13.869 10.4459 13.8703 10.4467Z" stroke="white" stroke-linecap="round"/>
<path d="M28.7798 10.168C28.0509 10.1543 25.7765 10.1246 19.7446 10.1229C19.5143 10.1229 19.3664 10.373 19.4788 10.5739C21.04 13.3656 21.4412 14.6697 21.6139 17.4527C21.6304 17.7185 21.8492 17.9282 22.1155 17.9308C24.9262 17.9587 28.1102 18.2216 30.3049 18.3566C30.5977 18.3746 30.841 18.1353 30.8248 17.8423C30.6135 14.0202 29.5624 11.2864 29.2008 10.4462C29.1277 10.2766 28.9644 10.1715 28.7798 10.168Z" stroke="white" stroke-linecap="round"/>
<path d="M36.7143 10.9174C35.978 10.7578 35.3958 10.6057 34.7127 10.6089C34.3819 10.6104 34.1866 10.9572 34.2936 11.2702C35.2006 13.9253 35.6921 19.2906 35.0962 28.4438C35.0784 28.7178 35.4016 28.8684 35.5891 28.6679C37.3581 26.776 39.7094 23.4137 41.2962 19.7723C41.3414 19.6685 41.349 19.551 41.3185 19.4419C40.2535 15.6281 39.1053 13.4092 36.979 11.0693C36.9091 10.9923 36.8159 10.9395 36.7143 10.9174Z" stroke="white" stroke-linecap="round"/>
<path d="M30.3276 22.5167C27.8271 22.263 25.1705 21.9446 22.2525 21.9124C21.985 21.9094 21.7647 22.122 21.7511 22.3892C21.4618 28.0583 20.653 29.7816 20.0828 33.7459C20.0671 33.8551 20.0877 33.9675 20.1432 34.0629C21.167 35.8225 22.7921 37.9246 23.4802 38.7921C23.6566 39.0144 23.9818 39.0403 24.1943 38.852L29.226 34.393C29.3107 34.318 29.3666 34.2214 29.3856 34.1098C29.586 32.9346 30.7607 25.875 30.5925 22.7878C30.5846 22.6435 30.4713 22.5313 30.3276 22.5167Z" stroke="white" stroke-linecap="round"/>
</svg>
