<?xml version="1.0" encoding="UTF-8" standalone="no"?>
<svg
   viewBox="0 0 48 48"
   version="1.1"
   id="svg6238"
   sodipodi:docname="flipkart.svg"
   inkscape:version="1.1 (c68e22c387, 2021-05-23)"
   xmlns:inkscape="http://www.inkscape.org/namespaces/inkscape"
   xmlns:sodipodi="http://sodipodi.sourceforge.net/DTD/sodipodi-0.dtd"
   xmlns="http://www.w3.org/2000/svg"
   xmlns:svg="http://www.w3.org/2000/svg">
  <sodipodi:namedview
     id="namedview6240"
     pagecolor="#505050"
     bordercolor="#eeeeee"
     borderopacity="1"
     inkscape:pageshadow="0"
     inkscape:pageopacity="0"
     inkscape:pagecheckerboard="0"
     showgrid="false"
     inkscape:snap-nodes="false"
     inkscape:snap-others="false"
     inkscape:zoom="12.25"
     inkscape:cx="23.959184"
     inkscape:cy="23.959184"
     inkscape:current-layer="svg6238" />
  <defs
     id="defs6234">
    <style
       id="style6232">.a{fill:none;stroke:#fff;stroke-linecap:round;stroke-linejoin:round;}</style>
  </defs>
  <path
     class="a"
     d="M41.38,19.84H33.52l-7.77-13a2,2,0,0,0-3.5,0l-7.77,13H6.62a3.12,3.12,0,0,0-3,3.93L8,40.08a2.84,2.84,0,0,0,2.74,2.1H37.24A2.84,2.84,0,0,0,40,40.08l4.41-16.31A3.12,3.12,0,0,0,41.38,19.84ZM24,11.84l4.77,8H19.23Z"
     id="path6236" />
  <style
     type="text/css"
     id="style6949">
	.st0{fill:none;stroke:#FFFFFF;stroke-linecap:round;stroke-linejoin:round;stroke-miterlimit:10;}
	.st1{fill:#FFFFFF;}
	.st2{fill:none;stroke:#FFFFFF;stroke-width:0.9976;stroke-linecap:round;stroke-linejoin:round;stroke-miterlimit:10;}
	.st3{fill:none;stroke:#FFFFFF;stroke-width:0.9965;stroke-linecap:round;stroke-linejoin:round;stroke-miterlimit:10;}
	.st4{fill:none;stroke:#FFFFFF;stroke-width:0.8662;stroke-linecap:round;stroke-linejoin:round;stroke-miterlimit:10;}
</style>
  <path
     class="st0"
     d="m 29.754719,42.10374 2.869852,-13.378719 c 0.16779,-0.782205 0.751794,-2.716537 2.653469,-2.600759 1.901676,0.115777 1.412136,0.343426 1.412136,0.343426"
     id="path7262"
     style="fill:none;stroke:#ffffff;stroke-width:1;stroke-linecap:round;stroke-linejoin:round;stroke-miterlimit:10"
     sodipodi:nodetypes="cszc" />
  <line
     class="st0"
     x1="25.819668"
     y1="31.440802"
     x2="35.15992"
     y2="31.440802"
     id="line7266"
     style="fill:none;stroke:#ffffff;stroke-width:1;stroke-linecap:round;stroke-linejoin:round;stroke-miterlimit:10" />
  <line
     class="st0"
     x1="25.819668"
     y1="31.440802"
     x2="35.15992"
     y2="31.440802"
     id="line10174"
     style="fill:none;stroke:#ffffff;stroke-width:1;stroke-linecap:round;stroke-linejoin:round;stroke-miterlimit:10" />
</svg>
