<?xml version="1.0" encoding="UTF-8"?>
<svg id="b" version="1.1" viewBox="0 0 48 48" xml:space="preserve" xmlns="http://www.w3.org/2000/svg"><defs><style>.c{fill:none;stroke:#fff;stroke-linecap:round;stroke-linejoin:round;}</style><style>.a{fill:none;stroke:#fff;stroke-linecap:round;stroke-linejoin:round;}</style></defs><path d="m12.705 27.846 2.8127-0.05546 0.43346-1.25c0.23801-0.68637 0.56832-1.581 0.74131-1.9855 0.17299-0.40451 0.33627-0.7748 0.31453-0.775l-4.3-0.03953-1.25e-4 -2.95 5.8713 0.0029c0.13839-0.03427 0.3707-0.30699 0.62084-0.72882 0.21984-0.37074 0.84792-1.2591 1.3958-1.9741 0.54783-0.715 0.98114-1.3756 0.92342-1.3757l-12.961-0.024269-0.057972 14.459h4.1513zm11.845-5.8555 3.4311 9.1593h4.0515l3.3174-9.1593v9.1593h4.1513l-0.05129-14.459-6.8268 2e-6 -2.5548 7.45-2.6427-7.45-4.0862-0.0051c-0.36684 0.08999-1.3469 2.3315-1.8386 4.2051-0.30352 1.1565-0.71434 3.5791-0.90722 5.35-0.12094 1.1103-0.30465 4.9093-0.20008 4.9093h4.1564z" fill="none" stroke="#fff" stroke-linecap="round" stroke-linejoin="round"/><path class="a" d="m40.5 5.5h-33a2 2 0 0 0-2 2v33a2 2 0 0 0 2 2h33a2 2 0 0 0 2-2v-33a2 2 0 0 0-2-2z"/></svg>
