<?xml version="1.0" encoding="UTF-8"?>
<svg version="1.1" viewBox="0 0 48 48" xmlns="http://www.w3.org/2000/svg">
 <defs>
  <style>.a{fill:none;stroke:#fff;stroke-linecap:round;stroke-linejoin:round;}</style>
 </defs>
 <circle class="a" cx="24" cy="24" r="21.5"/>
 <g transform="matrix(1.2529 0 0 1.2529 -184.79 -32.003)">
  <polyline class="st5" points="164 40.7 164 48.7 168 48.7" fill="none" stroke="#fff" stroke-linecap="round" stroke-linejoin="round" stroke-miterlimit="10"/>
 </g>
 <g transform="matrix(1.2529 0 0 1.2529 -120.82 -32.003)" fill="none" stroke="#fff" stroke-linecap="round" stroke-linejoin="round" stroke-miterlimit="10">
  <path class="st5" d="m104 48.7"/>
  <line class="st5" x1="104" x2="106.6" y1="44.7" y2="44.7"/>
  <polyline class="st5" points="104 48.7 104 40.7 108 40.7"/>
 </g>
 <path class="st5" d="m35.14 29.011v0c-1.8793 0-3.2575-1.5034-3.2575-3.2575v-3.3827c0-1.8793 1.5034-3.3827 3.2575-3.3827v0c1.8793 0 3.3827 1.5034 3.3827 3.3827v3.2575c0 1.8793-1.5034 3.3827-3.3827 3.3827z" fill="none" stroke="#fff" stroke-linecap="round" stroke-linejoin="round" stroke-miterlimit="10" stroke-width="1.2529"/>
</svg>
