<svg viewBox="0 0 48 48" xmlns="http://www.w3.org/2000/svg">
    <style>
        .a{fill:none;stroke:#FFFFFF;stroke-linecap:round;stroke-linejoin:round}
    </style>
    <path class="a" d="M29.75,24c0,0.4099731-0.039978,0.8099976-0.1300049,1.2000122  c-0.1400146,0.7000122-0.4199829,1.3499756-0.7999878,1.9299927c-0.4299927,0.6799927-1.0100098,1.2600098-1.6900024,1.6900024  c-0.5800171,0.3800049-1.2299805,0.6599731-1.9299927,0.7999878C24.8099976,29.710022,24.4099731,29.75,24,29.75  s-0.8099976-0.039978-1.2000122-0.1300049c-0.7000122-0.1400146-1.3499756-0.4199829-1.9299927-0.7999878  c-0.6799927-0.4299927-1.2600098-1.0100098-1.6900024-1.6900024c-0.3800049-0.5800171-0.6599731-1.2299805-0.7999878-1.9299927  C18.289978,24.8099976,18.25,24.4099731,18.25,24s0.039978-0.8099976,0.1300049-1.2000122  c0.1400146-0.7000122,0.4199829-1.3499756,0.7999878-1.9299927c0.4299927-0.6799927,1.0100098-1.2600098,1.6900024-1.6900024  c0.5800171-0.3800049,1.2299805-0.6599731,1.9299927-0.7999878C23.1900024,18.289978,23.5900269,18.25,24,18.25  s0.8099976,0.039978,1.2000122,0.1300049c0.7000122,0.1400146,1.3499756,0.4199829,1.9299927,0.7999878  c0.6799927,0.4299927,1.2600098,1.0100098,1.6900024,1.6900024c0.3800049,0.5800171,0.6599731,1.2299805,0.7999878,1.9299927  C29.710022,23.1900024,29.75,23.5900269,29.75,24z"/>
    <path class="a" d="M25.2000122,29.6199951c0.1099854,2.2000122,1.3900146,4.8400269,3.6099854,7.0599976  c0.2200317,0.2200317,0.460022,0.4299927,0.7000122,0.6000366C28.9099731,41.8900146,24,45.5,24,45.5  s-4.9099731-3.6099854-5.5100098-8.2199707c-0.039978-0.3000488-0.0599976-0.6000366-0.0599976-0.9100342  c0-3.1400146,0.9700317-5.9099731,2.4400024-7.5499878"/>
    <path class="a" d="M18.3800049,25.2000122c-2.2000122,0.1099854-4.8400269,1.3900146-7.0599976,3.6099854  c-0.2200317,0.2200317-0.4299927,0.460022-0.6000366,0.7000122C6.1099854,28.9099731,2.5,24,2.5,24  s3.6099854-4.9099731,8.2199707-5.5100098c0.3000488-0.039978,0.6000366-0.0599976,0.9100342-0.0599976  c3.1400146,0,5.9099731,0.9700317,7.5499878,2.4400024"/>
    <path class="a" d="M20.8699951,28.8200073c-1.4699707,1.6400146-2.4400024,4.4099731-2.4400024,7.5499878  c0,0.3099976,0.0200195,0.6099854,0.0599976,0.9100342c-3.6900024,2.8399658-9.6900024,1.9199829-9.6900024,1.9199829  s-0.9199829-6,1.9199829-9.6900024c0.1700439-0.2399902,0.3800049-0.4799805,0.6000366-0.7000122  c2.2199707-2.2199707,4.8599854-3.5,7.0599976-3.6099854"/>
    <path class="a" d="M19.1799927,20.8699951c-1.6400146-1.4699707-4.4099731-2.4400024-7.5499878-2.4400024  c-0.3099976,0-0.6099854,0.0200195-0.9100342,0.0599976c-2.8399658-3.6900024-1.9199829-9.6900024-1.9199829-9.6900024  s6-0.9199829,9.6900024,1.9199829c0.2399902,0.1700439,0.4799805,0.3800049,0.7000122,0.6000366  c2.2199707,2.2199707,3.5,4.8599854,3.6099854,7.0599976"/>
    <path class="a" d="M28.8200073,27.1300049c1.6400146,1.4699707,4.4099731,2.4400024,7.5499878,2.4400024  c0.3099976,0,0.6099854-0.0200195,0.9100342-0.0599976c2.8399658,3.6900024,1.9199829,9.6900024,1.9199829,9.6900024  s-6,0.9199829-9.6900024-1.9199829c-0.2399902-0.1700439-0.4799805-0.3800049-0.7000122-0.6000366  c-2.2199707-2.2199707-3.5-4.8599854-3.6099854-7.0599976"/>
    <path class="a" d="M22.7999878,18.3800049c-0.1099854-2.2000122-1.3900146-4.8400269-3.6099854-7.0599976  c-0.2200317-0.2200317-0.460022-0.4299927-0.7000122-0.6000366C19.0900269,6.1099854,24,2.5,24,2.5  s4.9099731,3.6099854,5.5100098,8.2199707c0.039978,0.3000488,0.0599976,0.6000366,0.0599976,0.9100342  c0,3.1400146-0.9700317,5.9099731-2.4400024,7.5499878"/>
    <path class="a" d="M27.1300049,19.1799927c1.4699707-1.6400146,2.4400024-4.4099731,2.4400024-7.5499878  c0-0.3099976-0.0200195-0.6099854-0.0599976-0.9100342c3.6900024-2.8399658,9.6900024-1.9199829,9.6900024-1.9199829  s0.9199829,6-1.9199829,9.6900024c-0.1700439,0.2399902-0.3800049,0.4799805-0.6000366,0.7000122  c-2.2199707,2.2199707-4.8599854,3.5-7.0599976,3.6099854"/>
    <path class="a" d="M29.6199951,22.7999878c2.2000122-0.1099854,4.8400269-1.3900146,7.0599976-3.6099854  c0.2200317-0.2200317,0.4299927-0.460022,0.6000366-0.7000122C41.8900146,19.0900269,45.5,24,45.5,24  s-3.6099854,4.9099731-8.2199707,5.5100098c-0.3000488,0.039978-0.6000366,0.0599976-0.9100342,0.0599976  c-3.1400146,0-5.9099731-0.9700317-7.5499878-2.4400024"/>
</svg>
