<svg width="48" height="48" version="1.1" viewBox="0 0 48 48" xml:space="preserve" xmlns="http://www.w3.org/2000/svg"><defs><style>.a{fill:none;stroke:#fff;stroke-linecap:round;stroke-linejoin:round;}</style></defs><g transform="translate(-.081759 -.058343)" fill="none" stroke="#fff"><g stroke-linecap="round" stroke-linejoin="round"><path d="m18.645 17.698c-3.1702-5.3337 0.68472-10.032 5.5571-9.9255 5.1995 0.13901 8.2305 5.5142 5.0685 10.066 5.2137-6.4581 11.733-0.07878 11.467 3.498-0.45842 6.5306-5.0079 7.3242-8.232 6.3686 5.3731 1.5491 6.3183 8.7031 0.13101 12.187-2.8158 1.4064-9.0719-0.52178-8.5388-6.1404-0.13449 9.6121-12.157 7.0651-12.822 1.0164-0.65205-4.2307 1.0397-5.4278 4.2222-7.0216-6.7783 3.0283-9.9119-6.5184-6.9341-9.8786 3.1795-3.7051 7.5508-3.8083 10.081-0.16914z" style="paint-order:stroke fill markers"/><path d="m24.002 13.61v2.6971" style="paint-order:stroke fill markers"/><path d="m32.347 22.331 2.5036-0.88547" style="paint-order:stroke fill markers"/><path d="m13.03 21.432 2.6373 0.91623" style="paint-order:stroke fill markers"/><path d="m18.929 32.014-1.7034 2.4459" style="paint-order:stroke fill markers"/></g><circle class="a" cx="24.039" cy="25.084" r="5.6044"/><path d="m27.322 29.677 3.3516 4.5232" stroke-linecap="round" stroke-linejoin="round" style="paint-order:stroke fill markers"/></g></svg>
