<svg viewBox="0 0 48 48" xmlns="http://www.w3.org/2000/svg">
    <style>
        .a{fill:none;stroke:#FFFFFF;stroke-linecap:round;stroke-linejoin:round}
    </style>
    <circle class="a" cx="24" cy="24" r="21.5"/>
    <path class="a" d="M14.6300001,14C17.2000008,13.5100002,20.4599991,13.21,24,13.21s6.7999992,0.3000002,9.3699989,0.79"/>
    <path class="a" d="M10.4899998,18.8299999C14.3900003,18.2299995,19.0300007,17.8899994,24,17.8899994 s9.6100006,0.3400002,13.5099983,0.9400005"/>
    <path class="a" d="M8.6800003,24.2999992C13.3199997,23.6800003,18.5100002,23.3400002,24,23.3400002 s10.6800003,0.3400002,15.3199997,0.9599991"/>
    <path class="a" d="M14.2120962,18.3600006c1.8667765,1.4815712,3.6256704,3.1080837,5.0218019,5.0669537"/>
    <line class="a" x1="21.3829784" x2="26.6170216" y1="37.2127647" y2="37.2127647"/>
    <path class="a" d="M13.8242836,23.7477741c4.9469929,1.7256298,8.9523125,4.1511612,7.5586948,13.4649906"/>
    <path class="a" d="M34.1757164,23.7477741c-4.9469929,1.7256298-8.9523125,4.1511612-7.5586948,13.4649906"/>
</svg>
