<svg viewBox="0 0 48 48" xmlns="http://www.w3.org/2000/svg">
    <style>
        .a{fill:none;stroke:#FFFFFF;stroke-linecap:round;stroke-linejoin:round}
    </style>
    <line class="a" x1="16.6890907" x2="16.6890907" y1="19.7526131" y2="19.7485218"/>
    <path class="a" d="M12.0661697,26.1715183c-0.7854872,0.1431866-1.6077948,0.2086449-2.4341927,0.2086449  c-2.7451148,0-6.5825477-2.2705498-6.5825477-6.5620918c0-2.0046291,0.9532213-4.0256233,2.4464655-5.3961353  c0.3477421-2.2091837,2.1355438-5.330677,7.5644069-5.330677c1.17414,0,2.2828226,0.196372,3.2769556,0.5359316  c1.0677719-1.7959843,3.8087959-3.350595,6.729826-3.350595c2.9046669,0,4.909296,1.0800452,5.8952465,2.3932824"/>
    <path class="a" d="M38.2960625,13.3696795c-0.8239594-2.2847271-2.5361252-4.1630688-4.8417282-4.900382  c-2.6722603-0.8545718-7.3813457-0.0450706-9.6706181,5.969696c-1.5524578,4.0788956-1.0601006,8.1770916,2.1717625,9.67062  c1.1378326,0.5258179,3.136179,0.5574055,5.2140293,0.1237259c0.654438,0.7388363,1.9403172,1.5152531,4.2520351,2.3918495  c2.7576599,1.0457172,5.8165321,0.5327091,7.2986488-4.9223557C43.6106453,18.4255486,42.177494,14.7111912,38.2960625,13.3696795z  "/>
    <path class="a" d="M42.2010651,23.2709427c1.4605141,1.8287125,2.2419128,4.5083694,2.07827,6.9875641  c-0.196373,2.892395-2.1682739,5.0443001-5.420681,5.4370461c-0.5768433,0.0736389-1.190506,0.090004-1.8450775,0.045002  c-2.4669228-0.1759186-5.7479687-1.7509842-7.1593914-4.3447285c-0.2413731-0.4336548-0.4254723-0.8918552-0.5441132-1.3786926  c-0.7323036,1.4236946-1.791893,2.5037403-3.0642185,3.2114964c-1.2518711,0.6995735-2.7082958,1.039135-4.2588158,0.994133  c-1.0432243-0.0286369-2.1273613-0.2290993-3.2237701-0.6136627c-3.6615162-1.2764168-6.4802704-4.2833595-6.6970978-7.437582  c-0.0572748-0.8141251,0.0572748-1.6405239,0.376379-2.4464664c0.6954842-1.7550735,2.2869139-3.2278614,4.246542-3.9724388  v-0.0040913c1.9309883-0.7323036,4.2179031-0.7609406,6.3616295,0.3354683"/>
    <path class="a" d="M21.9870377,34.2227631c0.5236588,1.3091469,1.3582401,2.9046669,2.1764545,4.2588158  c1.5873394,2.6264725,3.252409,4.4960938,4.4183674,3.8947067c0.52775-0.2700119,0.949131-1.3336906,1.0145874-2.679657  c1.2191429,0.3354683,2.5364685,0.4950218,3.645153,0.4950218c2.5037422,0,4.9297523-2.3073692,5.617054-4.4960976"/>
</svg>
