<?xml version="1.0" encoding="UTF-8"?><svg xmlns="http://www.w3.org/2000/svg" viewBox="0 0 48 48"><defs><style>.cls-1{fill:none;stroke:#fff;stroke-linecap:round;stroke-linejoin:round;}</style></defs><g id="Layer_3"><path class="cls-1" d="m4.5,11.5c0-1.6569,1.3431-3,3-3h8.9635c.6798,0,1.3483.1732,1.9426.5034l7.1879,3.9933c.5942.3301,1.2628.5034,1.9426.5034h12.9635c1.6569,0,3,1.3431,3,3v20c0,1.6569-1.3431,3-3,3H7.5c-1.6569,0-3-1.3431-3-3V11.5Z"/></g><g id="Layer_1"><path class="cls-1" d="m29.1788,23.6788c0-3.2618-3.0155-5.8193-6.4109-5.0368-1.8509.4266-3.3576,1.9209-3.7962,3.7689-.5302,2.2339.3878,4.3049,2.0031,5.4694.3897.281.5968.7509.5968,1.2314v2.6451h4.8568v-2.7444c0-.4219.1788-.8404.5252-1.0813,1.3446-.9352,2.2253-2.4903,2.2253-4.2523Z"/><line class="cls-1" x1="21.5717" y1="34.5" x2="26.4284" y2="34.5"/></g></svg>