<svg xmlns="http://www.w3.org/2000/svg" viewBox="0 0 48 48"><defs><style>.a{fill:none;stroke:#fff;stroke-linecap:round;stroke-linejoin:round;}</style></defs><path class="a" d="M41.6783,13.0436H24.77c-1.9628-.1072-5.9311-4.2372-8.1881-4.2372H6.6806V8.8046A2.1762,2.1762,0,0,0,4.5,10.9763v7.3063h39V14.8652A1.8217,1.8217,0,0,0,41.6783,13.0436Z"/><path class="a" d="M43.5,18.2826H4.5V37.0165a2.1762,2.1762,0,0,0,2.1735,2.1789H41.3194A2.1762,2.1762,0,0,0,43.5,37.0237V18.2826Z"/><path class="a" d="M39.3574,33.32a4.0156,4.0156,0,0,1-3.08,1.4339h0A4.0241,4.0241,0,0,1,32.2534,30.73V26.7783a4.0242,4.0242,0,0,1,4.0241-4.0242h0a4.0159,4.0159,0,0,1,3.0929,1.45"/><line class="a" x1="30.3295" y1="27.296" x2="35.4107" y2="27.296"/><line class="a" x1="30.3295" y1="30.2409" x2="35.4107" y2="30.2409"/></svg>