<?xml version="1.0" encoding="UTF-8"?><svg xmlns="http://www.w3.org/2000/svg" viewBox="0 0 48 48"><defs><style>.cls-1{fill:none;stroke:#fff;stroke-linecap:round;stroke-linejoin:round;}</style></defs><g id="Layer_3"><path class="cls-1" d="m4.5,11.5c0-1.6569,1.3431-3,3-3h8.9635c.6798,0,1.3483.1732,1.9426.5034l7.1879,3.9933c.5942.3301,1.2628.5034,1.9426.5034h12.9635c1.6569,0,3,1.3431,3,3v20c0,1.6569-1.3431,3-3,3H7.5c-1.6569,0-3-1.3431-3-3V11.5Z"/></g><g id="Layer_1"><polygon class="cls-1" points="33 24.2513 24 20.7325 15 24.2513 24 27.7701 33 24.2513"/><path class="cls-1" d="m18.1826,25.4957v2.8161c0,.9056,2.6045,1.6398,5.8174,1.6398s5.8174-.7342,5.8174-1.6398v-2.8161"/><path class="cls-1" d="m25.7862,24.2513c2.489-.1757,4.1592-.0329,5.067.8393s.2623,6.2762.2623,6.2762"/></g></svg>