<?xml version="1.0" encoding="UTF-8"?><svg xmlns="http://www.w3.org/2000/svg" viewBox="0 0 48 48"><defs><style>.cls-1{fill:none;stroke:#fff;stroke-linecap:round;stroke-linejoin:round;}</style></defs><g id="Layer_3"><path class="cls-1" d="m4.5,11.5c0-1.6569,1.3431-3,3-3h8.9635c.6798,0,1.3483.1732,1.9426.5034l7.1879,3.9933c.5942.3301,1.2628.5034,1.9426.5034h12.9635c1.6569,0,3,1.3431,3,3v20c0,1.6569-1.3431,3-3,3H7.5c-1.6569,0-3-1.3431-3-3V11.5Z"/></g><g id="Layer_1"><path class="cls-1" d="m25.84,26.5c1.7673,0,3.2,1.4327,3.2,3.2s-1.4327,3.2-3.2,3.2h-5.28v-12.8h5.28c1.7673,0,3.2,1.4327,3.2,3.2s-1.4327,3.2-3.2,3.2h0Z"/><line class="cls-1" x1="25.84" y1="26.5" x2="20.56" y2="26.5"/><line class="cls-1" x1="20.56" y1="32.9" x2="18.96" y2="32.9"/><line class="cls-1" x1="20.56" y1="20.1" x2="18.96" y2="20.1"/><line class="cls-1" x1="22.16" y1="34.5" x2="22.16" y2="32.9"/><line class="cls-1" x1="25.36" y1="34.5" x2="25.36" y2="32.9"/><line class="cls-1" x1="22.16" y1="20.1" x2="22.16" y2="18.5"/><line class="cls-1" x1="25.36" y1="20.1" x2="25.36" y2="18.5"/></g></svg>