<?xml version="1.0" encoding="UTF-8"?><svg xmlns="http://www.w3.org/2000/svg" viewBox="0 0 48 48"><defs><style>.cls-1{fill:none;stroke:#fff;stroke-linecap:round;stroke-linejoin:round;}</style></defs><g id="Layer_3"><path class="cls-1" d="m4.5,11.5c0-1.6569,1.3431-3,3-3h8.9635c.6798,0,1.3483.1732,1.9426.5034l7.1879,3.9933c.5942.3301,1.2628.5034,1.9426.5034h12.9635c1.6569,0,3,1.3431,3,3v20c0,1.6569-1.3431,3-3,3H7.5c-1.6569,0-3-1.3431-3-3V11.5Z"/></g><g id="Layer_1"><path class="cls-1" d="m28.3277,19.5151c.4275-.0195.8419.1504,1.1327.4644l1.0836,1.0987c.5732.5868.5732,1.5238,0,2.1106l-2.02,2.02-3.2093-3.2244,2.02-2.02c.2639-.2699.6167-.4349.993-.4644v.0151Zm.1963,5.6785l-7.1737,7.1963-4.3242,1.11,1.1187-4.3231,7.1699-7.1926"/></g></svg>