<svg xmlns="http://www.w3.org/2000/svg" viewBox="0 0 48 48"><defs><style>.a{fill:none;stroke:#fff;stroke-linecap:round;stroke-linejoin:round;}</style></defs><path class="a" d="M41.6783,13.0436H24.77c-1.9628-.1072-5.9311-4.2372-8.1881-4.2372H6.6806V8.8046A2.1762,2.1762,0,0,0,4.5,10.9763v7.3063h39V14.8652A1.8217,1.8217,0,0,0,41.6783,13.0436Z"/><path class="a" d="M43.5,18.2826H4.5V37.0165a2.1762,2.1762,0,0,0,2.1735,2.1789H41.3194A2.1762,2.1762,0,0,0,43.5,37.0237V18.2826Z"/><polyline class="a" points="26.278 25.858 28.078 27.329 30.253 26.506 30.627 24.211 28.827 22.739"/><line class="a" x1="35.7177" y1="30.9722" x2="30.2532" y2="26.5058"/><polyline class="a" points="39.693 31.62 37.892 30.149 35.718 30.972 35.344 33.267 37.144 34.739"/></svg>