<?xml version="1.0" encoding="UTF-8"?><svg xmlns="http://www.w3.org/2000/svg" viewBox="0 0 48 48"><defs><style>.cls-1{fill:none;stroke:#fff;stroke-linecap:round;stroke-linejoin:round;}</style></defs><g id="Layer_3"><path class="cls-1" d="m4.5,11.5c0-1.6569,1.3431-3,3-3h8.9635c.6798,0,1.3483.1732,1.9426.5034l7.1879,3.9933c.5942.3301,1.2628.5034,1.9426.5034h12.9635c1.6569,0,3,1.3431,3,3v20c0,1.6569-1.3431,3-3,3H7.5c-1.6569,0-3-1.3431-3-3V11.5Z"/></g><g id="Layer_1"><path class="cls-1" d="m24,20.623c-3.9047,0-7.2919,2.2004-9,5.4267,1.7081,3.2262,5.0953,5.4267,9,5.4267s7.2919-2.2004,9-5.4267c-1.7081-3.2263-5.0953-5.4267-9-5.4267Z"/><circle class="cls-1" cx="24" cy="26.0497" r="3.2532"/></g></svg>