<?xml version="1.0" encoding="UTF-8"?><svg xmlns="http://www.w3.org/2000/svg" viewBox="0 0 48 48"><defs><style>.cls-1{fill:none;stroke:#fff;stroke-linecap:round;stroke-linejoin:round;}</style></defs><g id="Layer_3"><path class="cls-1" d="m4.5,11.5c0-1.6569,1.3431-3,3-3h8.9635c.6798,0,1.3483.1732,1.9426.5034l7.1879,3.9933c.5942.3301,1.2628.5034,1.9426.5034h12.9635c1.6569,0,3,1.3431,3,3v20c0,1.6569-1.3431,3-3,3H7.5c-1.6569,0-3-1.3431-3-3V11.5Z"/></g><g id="Layer_1"><path class="cls-1" d="m28.8381,25.4723c.9165-.3717,2.6326-.816,3.0388-.2697.3653.4912-.1402,2.0413-.7583,3.1271"/><path class="cls-1" d="m16,25.7064c1.158.9196,4.5787,2.3273,8.2231,2.3273,3.4741,0,4.8896-.5543,7.6538-2.8311"/></g></svg>