<svg id="Layer_2" data-name="Layer 2" xmlns="http://www.w3.org/2000/svg" viewBox="0 0 48 48"><defs><style>.cls-1{fill:none;stroke:#fff;stroke-linecap:round;stroke-linejoin:round;}</style></defs><path class="cls-1" d="M37.9,22.81h-11a1.9,1.9,0,0,0-1.9,1.9v7.73a1.89,1.89,0,0,0,1.9,1.89h11a1.88,1.88,0,0,0,1.86-1.9V24.65A1.91,1.91,0,0,0,37.9,22.81ZM27.1,25.05l5.12,3.48a.3.3,0,0,0,.29,0l5.15-3.48"/><path class="cls-1" d="M41.68,13H24.77c-2-.1-5.93-4.23-8.19-4.23H6.68A2.18,2.18,0,0,0,4.5,11h0v7.29h39V14.87A1.83,1.83,0,0,0,41.68,13Z"/><path class="cls-1" d="M43.5,18.28H4.5V37A2.18,2.18,0,0,0,6.67,39.2H41.32A2.18,2.18,0,0,0,43.5,37h0Z"/></svg>