<?xml version="1.0" encoding="UTF-8"?><svg xmlns="http://www.w3.org/2000/svg" viewBox="0 0 48 48"><defs><style>.cls-1{fill:none;stroke:#fff;stroke-linecap:round;stroke-linejoin:round;}</style></defs><g id="Layer_3"><path class="cls-1" d="m4.5,11.5c0-1.6569,1.3431-3,3-3h8.9635c.6798,0,1.3483.1732,1.9426.5034l7.1879,3.9933c.5942.3301,1.2628.5034,1.9426.5034h12.9635c1.6569,0,3,1.3431,3,3v20c0,1.6569-1.3431,3-3,3H7.5c-1.6569,0-3-1.3431-3-3V11.5Z"/></g><g id="Layer_1"><path class="cls-1" d="m24.0002,22.7439c2.0744,0,3.7561,1.6817,3.7561,3.7561,0,2.0744-1.6817,3.7561-3.7561,3.7561-2.0744,0-3.7561-1.6817-3.7561-3.7561,0-2.0744,1.6817-3.7561,3.7561-3.7561Z"/><line class="cls-1" x1="24" y1="19.5" x2="24" y2="20.4191"/><line class="cls-1" x1="31" y1="26.5" x2="30.0809" y2="26.5"/><line class="cls-1" x1="24" y1="33.5" x2="24" y2="32.5809"/><line class="cls-1" x1="17" y1="26.5" x2="17.9191" y2="26.5"/><line class="cls-1" x1="28.9497" y1="21.5503" x2="28.2999" y2="22.2001"/><line class="cls-1" x1="28.9497" y1="31.4497" x2="28.2999" y2="30.7999"/><line class="cls-1" x1="19.0503" y1="31.4497" x2="19.7001" y2="30.7999"/><line class="cls-1" x1="19.0503" y1="21.5503" x2="19.7001" y2="22.2001"/></g></svg>