<?xml version="1.0" encoding="UTF-8"?><svg xmlns="http://www.w3.org/2000/svg" viewBox="0 0 48 48"><defs><style>.cls-1{fill:none;stroke:#fff;stroke-linecap:round;stroke-linejoin:round;}</style></defs><g id="Layer_3"><path class="cls-1" d="m4.5,11.5c0-1.6569,1.3431-3,3-3h8.9635c.6798,0,1.3483.1732,1.9426.5034l7.1879,3.9933c.5942.3301,1.2628.5034,1.9426.5034h12.9635c1.6569,0,3,1.3431,3,3v20c0,1.6569-1.3431,3-3,3H7.5c-1.6569,0-3-1.3431-3-3V11.5Z"/></g><g id="Layer_1"><path class="cls-1" d="m25.2512,32.965c1.2476-.2402,2.4392-.8434,3.4052-1.8094,2.5716-2.5716,2.5716-6.7409,0-9.3124"/><path class="cls-1" d="m22.7426,20.035c-1.2452.2411-2.4342.8438-3.3985,1.8081-2.5716,2.5716-2.5716,6.7409,0,9.3124"/><polygon class="cls-1" points="27.9371 22.5624 26.1872 24.3123 26.1872 19.5 30.9995 19.5 30.9996 19.5 29.2496 21.25 27.9371 22.5624"/><polygon class="cls-1" points="20.0628 30.4376 21.8128 28.6877 21.8128 33.5 17.0004 33.5 18.7504 31.7501 20.0628 30.4376"/></g></svg>