<?xml version="1.0" encoding="UTF-8" standalone="no"?>
<!-- Created with Inkscape (http://www.inkscape.org/) -->

<svg
   xmlns:dc="http://purl.org/dc/elements/1.1/"
   xmlns:cc="http://creativecommons.org/ns#"
   xmlns:rdf="http://www.w3.org/1999/02/22-rdf-syntax-ns#"
   xmlns:svg="http://www.w3.org/2000/svg"
   xmlns="http://www.w3.org/2000/svg"
   xmlns:sodipodi="http://sodipodi.sourceforge.net/DTD/sodipodi-0.dtd"
   xmlns:inkscape="http://www.inkscape.org/namespaces/inkscape"
   width="48"
   height="48"
   viewBox="0 0 12.7 12.7"
   version="1.1"
   id="svg8"
   inkscape:version="0.92.3 (2405546, 2018-03-11)"
   sodipodi:docname="foldersync.svg">
  <defs
     id="defs2" />
  <sodipodi:namedview
     id="base"
     pagecolor="#ffffff"
     bordercolor="#666666"
     borderopacity="1.0"
     inkscape:pageopacity="0.0"
     inkscape:pageshadow="2"
     inkscape:zoom="8.0000004"
     inkscape:cx="50.566551"
     inkscape:cy="41.393907"
     inkscape:document-units="mm"
     inkscape:current-layer="svg8"
     showgrid="false"
     units="px"
     inkscape:window-width="1860"
     inkscape:window-height="1052"
     inkscape:window-x="60"
     inkscape:window-y="0"
     inkscape:window-maximized="1" />
  <metadata
     id="metadata5">
    <rdf:RDF>
      <cc:Work
         rdf:about="">
        <dc:format>image/svg+xml</dc:format>
        <dc:type
           rdf:resource="http://purl.org/dc/dcmitype/StillImage" />
        <dc:title />
      </cc:Work>
    </rdf:RDF>
  </metadata>
  <path
     style="fill:none;stroke:#ffffff;stroke-width:0.26458333;stroke-linecap:round;stroke-linejoin:round;stroke-opacity:1;stroke-miterlimit:4;stroke-dasharray:none"
     d="m 3.8091888,8.2445105 c 0,0 -0.748268,0.9249337 2.0108206,1.2596973 1.7516408,0.2125291 2.5648222,-1.2596973 2.5648222,-1.2596973 0,0 0.9121779,0.00181 1.7338204,-0.0000199 0.490935,-0.00109 1.318347,-0.1793895 1.385004,-1.0158652 0.08664,-1.0872489 -0.810484,-1.3714451 -0.810484,-1.3714451 0,0 0.490423,-1.4506508 -0.8515208,-2.3873296 C 8.2118411,2.33224 6.8869759,3.7644575 6.8869759,3.7644575 c 0,0 -0.7557827,-0.7714738 -1.8569317,-0.5993724 C 3.9341342,3.3363675 3.5014101,4.18097 3.5014101,4.18097 c 0,0 -0.8045136,-0.2332896 -1.3644859,0.4876249 -0.422871,0.5444092 -0.1231115,1.1885854 -0.1231115,1.1885854 0,0 -0.8761598,0.2848394 -0.8207431,1.2800152 0.054447,0.9777668 0.8357944,1.1072951 1.3439668,1.1072951 0.5956928,0 1.2721524,0.0000199 1.2721524,0.0000199 z"
     id="path874"
     inkscape:connector-curvature="0"
     sodipodi:nodetypes="cscsscscscscssc" />
</svg>
