<?xml version="1.0" encoding="UTF-8"?><svg xmlns="http://www.w3.org/2000/svg" viewBox="0 0 48 48"><defs><style>.cls-1{fill:none;stroke:#fff;stroke-linecap:round;stroke-linejoin:round;}</style></defs><g id="Layer_3"><path class="cls-1" d="m4.5,11.5c0-1.6569,1.3431-3,3-3h8.9635c.6798,0,1.3483.1732,1.9426.5034l7.1879,3.9933c.5942.3301,1.2628.5034,1.9426.5034h12.9635c1.6569,0,3,1.3431,3,3v20c0,1.6569-1.3431,3-3,3H7.5c-1.6569,0-3-1.3431-3-3V11.5Z"/></g><g id="Layer_1"><path class="cls-1" d="m23.9999,18.5c-2.9685,0-5.3749,2.4064-5.3749,5.3749,0,4.2064,4.1036,9.2681,5.1786,10.5113.1202.1378.3292.1525.4674.0328l.0328-.0328c1.061-1.2479,5.0711-6.3049,5.0711-10.5113,0-2.9685-2.4064-5.3749-5.3749-5.3749h-.0001Zm0,6.8331c-1.0067,0-1.8228-.8161-1.8228-1.8228s.8161-1.8228,1.8228-1.8228c1.0067,0,1.8228.8161,1.8228,1.8228h0v.0047c-.0026,1.0049-.8179,1.8181-1.8228,1.8181Z"/></g></svg>