<svg data-name="Layer 2" version="1.1" viewBox="0 0 48 48" xml:space="preserve" xmlns="http://www.w3.org/2000/svg"><defs><style>.cls-1{fill:none;stroke:#fff;stroke-linecap:round;stroke-linejoin:round;}</style><style>.a{fill:none;stroke:#fff;stroke-linecap:round;stroke-linejoin:round;}</style></defs><path d="m45.577 38.5a5.0769 5.0769 0 0 1-5.0769 5.0769 5.0769 5.0769 0 0 1-5.0769-5.0769 5.0769 5.0769 0 0 1 5.0769-5.0769 5.0769 5.0769 0 0 1 5.0769 5.0769zm-1.879-0.64949a5.0129 5.0129 0 0 0-6.3958 0m5.3591 1.2549a3.3907 3.3907 0 0 0-4.3154 0m3.2637 1.1955a1.7245 1.7245 0 0 0-2.2033-6e-3v6e-3m-23.046-35.801c-2.46 4.37-5.14 8.27-6.71 15.35a13.68 13.68 0 0 0 0 6.17c0.92 5.44 8.69 12.77 14.35 17.47v0c5.66-4.7 13.43-12 14.35-17.47a13.68 13.68 0 0 0 0-6.17c-1.57-7.08-4.25-11-6.71-15.35l-5 6.94h-5.26zm-3.06 14.37c1.7 0 3.95 1.45 5.7 3.63 2.42 3 3.15 6.4 1.64 7.62s-4.7-0.21-7.11-3.2-3.15-6.4-1.64-7.62a2.12 2.12 0 0 1 1.41-0.43zm21.53 0a2.12 2.12 0 0 1 1.41 0.43c1.51 1.22 0.78 4.63-1.64 7.62s-5.59 4.42-7.11 3.2-0.78-4.63 1.64-7.62c1.76-2.18 4-3.61 5.7-3.63zm-15.25 18 3.84-4.32a0.72 0.72 0 0 1 0.49-0.26h0.09a0.8 0.8 0 0 1 0.59 0.27l3.84 4.32m-4.43-4.6" fill="none" stroke="#fff" stroke-linecap="round" stroke-linejoin="round" stroke-width="1px"/></svg>
