<?xml version="1.0" encoding="utf-8"?>
<!-- Generator: Adobe Illustrator 24.1.1, SVG Export Plug-In . SVG Version: 6.00 Build 0)  -->
<svg version="1.1" xmlns="http://www.w3.org/2000/svg" xmlns:xlink="http://www.w3.org/1999/xlink" x="0px" y="0px"
	 viewBox="0 0 48 48" style="enable-background:new 0 0 48 48;" xml:space="preserve">
<g id="Layer_1" style="display:none;">
	
		<rect x="-704.538" y="-343.288" style="display:inline;fill:#282828;stroke:#FFFFFF;stroke-width:0;stroke-miterlimit:10;" width="3706.467" height="4077.28"/>
</g>
<g id="Layer_2">
	<path id="path1047_2_" style="fill:none;stroke:#FFFFFF;stroke-miterlimit:10;" d="M23.921,35.051c2.471,0,4.569-1.618,4.939-3.727
		c0.06-0.344-0.2-0.665-0.549-0.665h-8.784c-0.347,0-0.606,0.316-0.55,0.659C19.322,33.429,21.31,35.051,23.921,35.051z"/>
	<path style="fill:none;stroke:#FFFFFF;stroke-linejoin:round;stroke-miterlimit:10;" d="M40.73,13.06
		c1.211-0.909,1.817-2.423,1.817-4.089c0-3.028-2.423-5.3-5.452-5.3c-1.968,0-3.634,0.909-4.543,2.423
		c-2.726-1.363-5.754-1.969-8.783-1.969c-3.18,0-6.209,0.757-8.783,1.969c-0.909-1.514-2.575-2.423-4.543-2.423
		c-3.029,0-5.452,2.423-5.452,5.3c0,1.666,0.757,3.029,1.817,4.089c-2.271,3.331-3.482,7.117-3.482,11.357
		c0,11.205,9.086,20.443,20.443,20.443c11.206,0,20.443-9.086,20.443-20.443C44.213,20.176,43.001,16.239,40.73,13.06L40.73,13.06z"
		/>
	<path id="path1051_2_" style="fill:none;stroke:#FFFFFF;stroke-miterlimit:10;" d="M22.909,27.992
		c0.648,0.264,1.37,0.262,2.014-0.011c1.029-0.436,2.48-1.224,2.48-2.202c0-0.909-2.574-1.06-3.482-1.06
		c-0.909,0-3.483,0.151-3.483,1.06C20.34,26.765,21.846,27.559,22.909,27.992z"/>
	<path style="fill:none;stroke:#FFFFFF;stroke-miterlimit:10;" d="M35.733,15.634c-1.817-1.211-5.754-1.817-7.268,0.152
		c0,0-1.969,2.12,0,4.24c1.968,2.121,3.331,4.241,3.786,5.906c0.454,1.817,1.211,2.422,2.574,2.422c1.364,0,4.089-2.12,4.543-5.603
		C39.67,19.268,37.55,16.694,35.733,15.634z"/>
	<path style="fill:none;stroke:#FFFFFF;stroke-miterlimit:10;" d="M31.645,20.025c-0.606,0-1.06-0.454-1.06-1.059
		c0-0.606,0.454-1.06,1.06-1.06c0.606,0,1.059,0.455,1.059,1.06C32.704,19.571,32.25,20.025,31.645,20.025z"/>
	<path style="fill:none;stroke:#FFFFFF;stroke-miterlimit:10;" d="M19.227,15.785c-1.514-1.968-5.452-1.363-7.268-0.152
		c-1.818,1.212-3.937,3.634-3.635,7.117c0.303,3.482,3.029,5.603,4.543,5.603c1.364,0,2.12-0.757,2.574-2.422
		c0.454-1.818,1.968-3.786,3.786-5.906C21.195,17.754,19.227,15.785,19.227,15.785z"/>
	<path style="fill:none;stroke:#FFFFFF;stroke-miterlimit:10;" d="M16.35,20.025c-0.606,0-1.06-0.454-1.06-1.059
		c0-0.606,0.455-1.06,1.06-1.06c0.606,0,1.059,0.455,1.059,1.06C17.41,19.571,16.956,20.025,16.35,20.025z"/>
</g>
</svg>
