<svg xmlns="http://www.w3.org/2000/svg" viewBox="0 0 48 48">
	<defs>
		<style>
			.a {
				fill: none;
				stroke: #fff;
				stroke-linecap: round;
				stroke-linejoin: round;
				stroke-miterlimit: 10
			}
		</style>
	</defs>
	<circle class="a" cx="24" cy="24" r="21.5" />
	<path
		d="m 4.1154533,32.021571 c 0.89538,-1.784138 1.7907516,-3.568259 3.1265733,-4.956599 1.3358216,-1.388341 3.0469624,-2.344503 4.3977224,-2.622576 1.350759,-0.278073 2.210849,0.194717 2.570829,0.716458 0.359981,0.52174 0.219838,1.092418 -0.101855,1.440999 -0.321693,0.348582 -0.824919,0.475057 -1.661252,1.060379 -0.836333,0.585322 -2.005679,1.629423 -2.5945465,3.169981 -0.5888675,1.540557 -0.5959668,3.279303 -0.038865,4.661149 0.5571016,1.381846 1.6795686,2.105584 3.6084056,2.075039 1.928836,-0.03054 4.580208,-0.791373 7.133608,-2.489829 2.553399,-1.698456 4.84991,-4.237777 7.347997,-7.411948 2.498088,-3.174171 5.166278,-6.94834 7.107918,-9.507105 1.941639,-2.558764 3.15649,-3.901812 4.078536,-4.828982 0.922047,-0.927169 1.551192,-1.438358 2.180346,-1.949556"
		class="a" />
	<path
		d="m 16.161062,43.9846 c 1.627776,-0.348742 3.255521,-0.697478 5.090678,-1.700397 1.835157,-1.00292 3.877539,-2.65991 6.442685,-5.993372 2.565146,-3.333462 5.652747,-8.342995 8.030062,-12.109475 2.377316,-3.76648 4.044058,-6.289451 5.134982,-7.755549 1.090924,-1.466097 1.605907,-1.875151 2.1209,-2.284213"
		class="a" />
	<path
		d="m 31.792761,22.53549 c -0.676931,0.10958 -1.35385,0.219158 -2.011578,0.407941 -0.657729,0.188784 -1.296226,0.456762 -1.918195,0.835495 -0.621968,0.378733 -1.227391,0.868212 -1.805656,1.168634 -0.578265,0.300422 -1.129349,0.411778 -1.481516,0.116704 -0.352168,-0.295074 -0.505384,-0.996541 -0.07944,-1.626166 0.42595,-0.629625 1.431016,-1.187332 2.468828,-1.658156 1.037811,-0.470824 2.108243,-0.854709 3.201314,-1.120602 1.093071,-0.265892 2.208671,-0.413763 3.324295,-0.561637"
		class="a" />
	<path
		d="m 37.322082,21.987321 c 1.319171,-0.09041 2.638339,-0.180813 3.622996,-0.250039 0.984658,-0.06923 1.634803,-0.117271 2.310234,-0.162141 0.675432,-0.04487 1.37615,-0.08656 2.076868,-0.128258"
		class="a" />
	<path
		d="m 38.850473,19.747108 c 0.590185,-0.07113 1.180358,-0.142252 2.186479,-0.210262 1.006122,-0.06801 2.428112,-0.132899 3.85013,-0.19779"
		class="a" />
	<path
		d="m 35.930702,6.3112304 c -1.569161,0.051692 -3.13829,0.1033833 -4.674476,0.2611259 -1.536186,0.1577426 -3.039276,0.4215188 -4.353192,0.8063348 -1.313916,0.384816 -2.4385,0.8906258 -3.336806,1.4554143 -0.898307,0.5647885 -1.570229,1.1884876 -2.123681,1.8535366 -0.553453,0.665048 -0.988368,1.371363 -0.958821,2.546823 0.02955,1.17546 0.484231,2.68902 1.903417,3.085714 1.419186,0.396693 3.343204,-0.347668 4.721871,-1.356543 1.378667,-1.008875 1.64549,-1.857949 2.113482,-2.495372 0.467992,-0.637424 1.003364,-0.831375 1.45236,-0.687523 0.448996,0.143853 0.777194,0.637941 0.641349,1.439218 -0.135845,0.801277 -0.735716,1.909643 -1.441144,3.013669 -0.705428,1.104027 -1.516328,2.20358 -2.565624,3.141785 -1.049296,0.938206 -2.336861,1.714949 -3.82399,2.29568 -1.487128,0.580732 -3.067239,0.941114 -4.496305,0.710274 -1.429066,-0.23084 -2.541253,-1.039231 -3.668557,-2.456363 -1.127303,-1.417132 -2.020728,-3.024085 -1.209718,-5.70495 0.81101,-2.680864 2.447885,-4.3160441 4.80055,-6.1945083 2.352664,-1.8784642 4.245904,-2.8280416 6.21653,-3.3764818 1.970626,-0.5484402 4.002445,-0.6922441 6.047921,-0.8370146"
		class="a" />
</svg>