<svg width="48" height="48" version="1.1" viewBox="0 0 48 48" xml:space="preserve" xmlns="http://www.w3.org/2000/svg"><defs><style>.a{fill:none;stroke:#fff;stroke-linecap:round;stroke-linejoin:round;}</style></defs><g transform="matrix(1.166 0 0 1.1659 -3.9122 -4.419)" stroke-width=".85767"><circle class="a" cx="23.945" cy="24.299" r="13.158" stroke-width=".85767"/><g fill="none" stroke="#fff" stroke-linecap="round" stroke-linejoin="round"><path transform="translate(0 .20853)" d="m21.817 11.05a2.3853 2.4242 0 0 1 1.0533-2.354 2.3853 2.4242 0 0 1 2.544-0.048795 2.3853 2.4242 0 0 1 1.1399 2.312" stroke-width=".85767" style="paint-order:stroke fill markers"/><path transform="matrix(.81939 -.57323 .57158 .82055 0 .20853)" d="m3.6668 20.184a2.3305 2.3323 0 0 1 1.1188-2.1929 2.3305 2.3323 0 0 1 2.4601 0.03304 2.3305 2.3323 0 0 1 1.0596 2.2222" stroke-width=".85767" style="paint-order:stroke fill markers"/><path transform="matrix(.79849 .60201 -.6014 .79895 0 .20853)" d="m31.028-8.1652a2.232 2.2325 0 0 1 0.8134-2.3613 2.232 2.2325 0 0 1 2.4936-0.12923 2.232 2.2325 0 0 1 1.053 2.2646" stroke-width=".85767" style="paint-order:stroke fill markers"/><path transform="matrix(.41738 -.90873 .91129 .41176 0 .20853)" d="m-14.884 18.86a2.4934 2.5068 0 0 1 1.0688-2.4443 2.4934 2.5068 0 0 1 2.6543-0.08898 2.4934 2.5068 0 0 1 1.2284 2.3673" stroke-width=".85768" style="paint-order:stroke fill markers"/><path transform="matrix(.39304 .91952 -.9206 .39051 0 .20853)" d="m29.336-25.868a2.2868 2.2929 0 0 1 1.0933-2.1829 2.2868 2.2929 0 0 1 2.4358 0.04413 2.2868 2.2929 0 0 1 1.0139 2.2211" stroke-width=".85767" style="paint-order:stroke fill markers"/><g stroke-width=".85767"><path transform="translate(0 .20853)" d="m10.891 25.875-2.1807 2.7542 3.2933 1.2935" style="paint-order:stroke fill markers"/><path transform="translate(0 .20853)" d="m13.972 32.775 0.04488 3.766 3.5546-0.77813" style="paint-order:stroke fill markers"/><path transform="translate(0 .20853)" d="m21.741 37.098 2.3631 2.9343 2.374-2.9662" style="paint-order:stroke fill markers"/><path transform="translate(0 .20853)" d="m30.4 35.544 3.4349 1.0249 0.21431-3.9954" style="paint-order:stroke fill markers"/><path transform="translate(0 .20853)" d="m35.884 29.765 3.2843-1.1059-1.9473-3.2207" style="paint-order:stroke fill markers"/></g></g></g></svg>
