<?xml version="1.0" encoding="UTF-8" standalone="no"?>
<!-- Created with Inkscape (http://www.inkscape.org/) -->

<svg
   width="48"
   height="48"
   viewBox="0 0 48 48"
   version="1.1"
   id="svg5"
   inkscape:version="1.1 (c4e8f9ed74, 2021-05-24)"
   sodipodi:docname="foursquare.svg"
   xmlns:inkscape="http://www.inkscape.org/namespaces/inkscape"
   xmlns:sodipodi="http://sodipodi.sourceforge.net/DTD/sodipodi-0.dtd"
   xmlns="http://www.w3.org/2000/svg"
   xmlns:svg="http://www.w3.org/2000/svg">
  <sodipodi:namedview
     id="namedview7"
     pagecolor="#505050"
     bordercolor="#eeeeee"
     borderopacity="1"
     inkscape:pageshadow="0"
     inkscape:pageopacity="0"
     inkscape:pagecheckerboard="0"
     inkscape:document-units="px"
     showgrid="false"
     units="px"
     inkscape:zoom="8.1770833"
     inkscape:cx="18.955414"
     inkscape:cy="30.450955"
     inkscape:window-width="1339"
     inkscape:window-height="1055"
     inkscape:window-x="575"
     inkscape:window-y="19"
     inkscape:window-maximized="1"
     inkscape:current-layer="layer1" />
  <defs
     id="defs2">
    <inkscape:path-effect
       effect="fillet_chamfer"
       id="path-effect2140"
       is_visible="true"
       lpeversion="1"
       satellites_param="F,0,0,1,0,1,0,1 @ F,0,0,1,0,1,0,1 @ F,0,0,1,0,1,0,1 @ F,0,0,1,0,1,0,1 @ F,0,0,1,0,1,0,1 @ F,0,0,1,0,1,0,1 @ F,0,0,1,0,1,0,1 @ F,0,0,1,0,1,0,1 @ F,0,0,1,0,1,0,1"
       unit="px"
       method="auto"
       mode="F"
       radius="1"
       chamfer_steps="1"
       flexible="false"
       use_knot_distance="true"
       apply_no_radius="true"
       apply_with_radius="true"
       only_selected="false"
       hide_knots="false" />
  </defs>
  <g
     inkscape:label="Layer 1"
     inkscape:groupmode="layer"
     id="layer1">
    <path
       style="fill:none;stroke:#ffffff;stroke-width:1;stroke-linecap:butt;stroke-linejoin:miter;stroke-miterlimit:4;stroke-dasharray:none;stroke-opacity:1"
       d="M 10.726383,42.094898 10.437577,6.7725706 a 1.0021878,1.0021878 134.46894 0 1 0.99177,-1.0103279 l 25.30313,-0.2621881 a 0.82180658,0.82180658 49.992738 0 1 0.816352,0.9726409 l -1.682762,9.0098975 a 1.2040599,1.2040599 140.28957 0 1 -1.183594,0.983002 H 22.960042 a 1.1241273,1.1241273 138.34438 0 0 -1.116476,0.993194 l -0.183311,1.563099 a 0.889579,0.889579 48.34438 0 0 0.883524,0.993194 l 11.381181,0 a 0.80218641,0.80218641 51.263888 0 1 0.783087,0.976191 l -1.915841,8.622019 a 1.246593,1.246593 141.26389 0 1 -1.216913,0.976191 l -7.664436,0 a 2.3694144,2.3694144 157.11806 0 0 -1.697617,0.716471 l -10.781064,11.07244 a 0.41119633,0.41119633 21.883828 0 1 -0.705793,-0.283496 z"
       id="path2138"
       inkscape:path-effect="#path-effect2140"
       inkscape:original-d="M 10.734559,43.094865 10.429401,5.772604 37.732423,5.4896933 35.682473,16.465595 H 21.960042 l -0.416263,3.549487 H 34.92496 l -2.349667,10.574401 h -9.664436 z" />
  </g>
</svg>
