<svg version="1.1" viewBox="0 0 48 48" xmlns="http://www.w3.org/2000/svg">
 <defs>
  <style>.a{fill:none;stroke:#fff;stroke-linecap:round;stroke-linejoin:round;}</style>
 </defs>
 <g fill="none" stroke="#fff" stroke-linecap="round" stroke-linejoin="round">
  <path class="a" d="M 24,40 C 36,33 39.25,27.25 38.25,12.5 26,6 22,6 9.75,12.5 8.75,27 12.25,33 24,40 Z"/>
  <g stroke-width="1px">
   <path d="m12.5 14c-1.7383 7.4781 1.9001 14.356 6.5 20.5-2.2284-7.6211 1.8661-12.395 7-16-4.272 0.92767-8.5598 0.92051-13.5-4.5z"/>
   <path d="m26 18.5c-3.767-0.09597-7.1835-1.4187-9.759-5.6848-0.4225 0.93654-0.91525 1.6389-0.99564 3.7158"/>
   <path d="m24 37.5c0.05608-4.469 2.1377-8.4879 6.5-12 4.243-2.765 5.536-6.5624 5-11-2.0481 3.161-5.7597 4.8974-9 6.5s-9.4329 8.7814-2.5 16.5z"/>
  </g>
 </g>
</svg>
