<?xml version="1.0" encoding="UTF-8"?>
<svg version="1.1" viewBox="0 0 48 48" xmlns="http://www.w3.org/2000/svg">
 <defs>
  <style>.a{fill:none;stroke:#fff;stroke-linecap:round;stroke-linejoin:round;}</style>
 </defs>
 <g fill="none" stroke="#fff" stroke-linecap="round">
  <rect x="4.58722" y="5.44926" width="38.8256" height="37.1015" ry="5.38791" stroke-linejoin="round" style="paint-order:stroke fill markers"/>
  <g>
   <path d="m4.93776 31.6793s2.13672-2.10082 2.85754-3.20739c0.720819-1.10656 1.22445-2.85183 1.22445-2.85183s-0.124126-3.88311 2.52435-4.51531c2.64848-0.632202 3.66054 1.94974 3.66054 1.94974s0.426035 0.996848 0.229998 4.01444c-0.196038 3.01759-0.612776 3.79796-0.612776 3.79796l15.1825-1.57013s3.01175-0.22575 3.218 2.48718c0.206258 2.71293-2.55722 3.17332-2.55722 3.17332l-13.2602 1.58047"/>
   <path d="m17.7927 39.4652 6.11809-0.776989s0.914764-0.557319 1.24869-1.45621c0.333923-0.898892 0.318903-1.07666 0.318903-1.07666"/>
   <path d="m21.2086 42.3685c1.61994-1.16477 1.33617-2.92419 1.31333-2.90829"/>
  </g>
  <g>
   <path d="m43.0622 16.3207s-2.13672 2.10082-2.85754 3.20739-1.22445 2.85183-1.22445 2.85183 0.124127 3.88311-2.52435 4.51531c-2.64848 0.632202-3.66054-1.94974-3.66054-1.94974s-0.426035-0.996848-0.229998-4.01444c0.196038-3.01759 0.612776-3.79796 0.612776-3.79796l-15.1825 1.57013s-3.01175 0.22575-3.218-2.48718c-0.206258-2.71293 2.55722-3.17332 2.55722-3.17332l13.2602-1.58047"/>
   <path d="m30.2073 8.53475-6.11809 0.776989s-0.914764 0.557319-1.24869 1.45621c-0.333923 0.898892-0.318903 1.07666-0.318903 1.07666"/>
   <path d="m26.7914 5.63153c-1.61994 1.16477-1.33617 2.92419-1.31333 2.90829"/>
  </g>
 </g>
</svg>
