<svg version="1.1" viewBox="0 0 48 48" xmlns="http://www.w3.org/2000/svg">
<defs>
<style>.a{fill:none;stroke:#fff;stroke-linecap:round;stroke-linejoin:round;}</style>
</defs>
<path class="a" d="m14.1 26.4c5.97-.773 15 1.5 17.8 2.43 3.47 1.17 5.6 4.44 9.33 7.22.917.685 2.09-1.61 2.02-2.75-.282-4.59-9.32-6.71-11-9.26-1.44-2.13 3.58-2.51 1.34-4.94-2-2.17-2.62 2.2-3.68 1.39-3.24-2.5-8.06-.139-7.79-1.18.343-1.31 8.58-6 6.44-7.33-3.41-2.25-8.24 4.61-9.36 5.53-.876.287-1.83-.435-2.74-.301-1.7.0832-4.38 1.29-4.44 2.57-.115 2.24 3.82 1.63 3.72 2.8-.228 2.85-11 1.4-11 5.03s6.17-.81 9.31-1.21z"/>
</svg>
