<?xml version="1.0" encoding="UTF-8"?>
<svg version="1.1" viewBox="0 0 48 48" xml:space="preserve" xmlns="http://www.w3.org/2000/svg"><defs><style>.a{fill:none;stroke:#fff;stroke-linecap:round;stroke-linejoin:round;}</style></defs><path d="m25.106 4.7042-8.6454 0.02621c-2.2708 0.0069-2.432 1.4676-1.6681 3.7217 2.9847 8.8073 8.835 26.404 0.8182 27.142-5.4346 0.5002-9.723-13.738 0.4965-16.228 2.6711-0.65072 8.2234-0.63142 8.2234-0.63142" fill="none" stroke="#fff" stroke-linecap="round" stroke-linejoin="round"/><path d="m24.659 22.632c5.7528 5.6959 4.5851-2.4191 9.4687-2.9747 1.9774-0.22495 3.4546 0.88676 3.9169 3.6884 0.41283 2.5017-1.777 5.1756-4.7054 4.7452-1.2299-0.18078-3.2179-1.8895-3.2179-1.8895-3.1538 9.8542-2.9086 12.838-1.7287 17.095" fill="none" stroke="#fff" stroke-linecap="round" stroke-linejoin="round"/></svg>
