<?xml version="1.0" encoding="utf-8"?>
<!-- Generator: Adobe Illustrator 27.2.0, SVG Export Plug-In . SVG Version: 6.00 Build 0)  -->
<svg version="1.1" id="Layer_3" xmlns="http://www.w3.org/2000/svg" xmlns:xlink="http://www.w3.org/1999/xlink" x="0px" y="0px"
	 viewBox="0 0 48 48" style="enable-background:new 0 0 48 48;" xml:space="preserve">
<style type="text/css">
	.st0{fill:none;stroke:#FFFFFF;stroke-linecap:round;stroke-linejoin:round;stroke-miterlimit:10;}
</style>
<path class="st0" d="M17.7,9.6h12.5c0.8,0,1.5,0.7,1.5,1.5v23.6c0,0.8-0.7,1.5-1.5,1.5H17.7c-0.8,0-1.5-0.7-1.5-1.5V11.1
	C16.2,10.3,16.9,9.6,17.7,9.6z"/>
<path class="st0" d="M46.3,16.7l-10.4-6c-0.8-0.5-1.9-0.2-2.4,0.6l-1.8,3.1v20c0,1-0.8,1.7-1.7,1.7h-3.1l6.1,3.5
	c0.8,0.5,1.9,0.2,2.4-0.6l11.6-20C47.5,18.3,47.2,17.2,46.3,16.7z"/>
<path class="st0" d="M18,36.2c-1,0-1.7-0.8-1.7-1.7v-20l-1.8-3.1c-0.5-0.8-1.6-1.1-2.4-0.6l-10.4,6c-0.8,0.5-1.1,1.6-0.6,2.4
	l11.6,20c0.5,0.8,1.6,1.1,2.4,0.6l6.1-3.5H18z"/>
<polyline class="st0" points="16.2,20.8 19.9,24.9 24,20.4 27.8,24.9 31.8,20.4 "/>
</svg>
