<?xml version="1.0" encoding="UTF-8" standalone="no"?>
<svg
   version="1.1"
   viewBox="0 0 48 48"
   id="svg26"
   xmlns="http://www.w3.org/2000/svg"
   xmlns:svg="http://www.w3.org/2000/svg">
  <defs
     id="defs4">
    <style
       id="style2">.a{fill:none;stroke:#fff;stroke-linecap:round;stroke-linejoin:round;}</style>
  </defs>
  <path
     class="a"
     d="M 22.68,12.340825 22.69,3.1908249"
     id="path14" />
  <path
     class="a"
     d="M 5.64,12.910826 V 2.5108249 h 5.200001"
     id="path2371" />
  <path
     class="a"
     d="M 5.64,7.7108253 H 9.0200083"
     id="path2373" />
  <path
     class="a"
     d="M 12.770004,14.210829 V 5.410825 h 2.859995 c 1.650004,0 2.970003,1.3200016 2.970003,2.9700031 0,1.6500009 -1.319999,2.9700039 -2.970003,2.9700039 h -2.859995"
     id="path18" />
  <path
     class="a"
     d="m 27.9,14.1 v -9"
     id="path4292" />
  <path
     class="a"
     d="m 25.25,5 h 5.3"
     id="path4294" />
  <path
     class="a"
     d="m 32,3 h 5.3 L 32,12 h 5.3"
     id="path8603" />
  <path
     class="a"
     d="M 18.599997,14.210998 15.84,11.341"
     id="path10244" />
  <path
     class="a"
     d="M 40.5,3.5 40,8.5"
     id="path10850" />
  <circle
     style="fill:#fff"
     id="path10874"
     cx="39.849998"
     cy="10.5"
     r="0.8" />
  <circle
     class="a"
     id="path2581"
     cx="24"
     cy="43"
     r="2.5" />
  <path
     id="circle2988"
     class="a"
     d="m 19.403806,38.403806 a 6.5,6.5 0 0 1 9.192388,0" />
  <path
     id="circle2990"
     class="a"
     d="m 17.282485,36.282486 a 9.5,9.5 0 0 1 13.435029,-10e-7" />
  <path
     id="circle2992"
     class="a"
     d="m 14.454058,33.454059 a 13.5,13.5 0 0 1 18.92383,-0.165146" />
  <path
     id="circle2994"
     class="a"
     d="m 12.332738,31.332738 a 16.5,16.5 0 0 1 23.334523,0" />
  <path
     id="ellipse2996"
     class="a"
     d="m 9.5043107,28.504 c 8.0057473,-8.005747 20.9856293,-8.005748 28.9913773,-1e-6" />
  <path
     id="circle2998"
     class="a"
     d="m 7.3829904,26.382991 a 23.5,23.5 0 0 1 33.2340186,-1e-6" />
  <path
     class="a"
     d="M 7.3829904,26.382991 C 5.7574325,28.016271 7.7826807,29.919978 9.5043107,28.504"
     id="path4978" />
  <path
     class="a"
     d="m 40.617009,26.38299 c 1.625558,1.63328 -0.39969,3.536987 -2.12132,2.121009"
     id="path6046" />
  <path
     style="fill:none;stroke:#ffffff;stroke-width:1px;stroke-linecap:round;stroke-linejoin:round;stroke-opacity:1"
     d="m 12.332738,31.33305 c -1.625558,1.63328 0.39969,3.536987 2.12132,2.121009"
     id="path6280" />
  <path
     style="fill:none;stroke:#ffffff;stroke-width:1px;stroke-linecap:round;stroke-linejoin:round;stroke-opacity:1"
     d="m 17.282485,36.282486 c -1.625558,1.63328 0.39969,3.536987 2.12132,2.121009"
     id="path6282" />
  <path
     class="a"
     d="m 35.667261,31.332738 c 1.625558,1.63328 -0.39969,3.536987 -2.12132,2.121009"
     id="path6284" />
  <path
     class="a"
     d="m 30.717514,36.282797 c 1.625558,1.63328 -0.39969,3.536987 -2.12132,2.121009"
     id="path6286" />
</svg>
