<?xml version="1.0" encoding="utf-8"?>
<!-- Generator: Adobe Illustrator 27.2.0, SVG Export Plug-In . SVG Version: 6.00 Build 0)  -->
<svg version="1.1" id="Layer_2" xmlns="http://www.w3.org/2000/svg" xmlns:xlink="http://www.w3.org/1999/xlink" x="0px" y="0px"
	 viewBox="0 0 48 48" style="enable-background:new 0 0 48 48;" xml:space="preserve">
<style type="text/css">
	.st0{fill:none;stroke:#FFFFFF;stroke-linecap:round;stroke-linejoin:round;stroke-miterlimit:10;}
</style>
<path class="st0" d="M38.7,34.8c0,14.8-38.7,10.8-27.4-4.9c2.6,1.2,5.8-0.8,6-3.6c4-1.4,9.4-1.4,13.4,0c0.2,2.8,3.4,4.8,6,3.6
	C38,31.3,38.7,33,38.7,34.8z"/>
<path class="st0" d="M17.3,25.9c0.1,5.6-8.7,5.6-8.6,0C8.6,20.3,17.4,20.3,17.3,25.9z"/>
<path class="st0" d="M39.3,25.9c0.1,5.6-8.7,5.6-8.6,0C30.6,20.3,39.4,20.3,39.3,25.9z"/>
<circle class="st0" cx="13" cy="25.9" r="0.3"/>
<circle class="st0" cx="35" cy="25.9" r="0.3"/>
<circle class="st0" cx="25.3" cy="33.3" r="0.3"/>
<circle class="st0" cx="22.7" cy="33.3" r="0.3"/>
<path class="st0" d="M9.9,37.7c9.4,2.8,18.7,2.8,28.1,0"/>
<line class="st0" x1="24" y1="22.9" x2="24" y2="17.1"/>
<g>
	<path class="st0" d="M16.6,16.5c1.1-5.7,3.6-10,7.4-12.8c3.8,2.8,6.3,7,7.4,12.8C26.5,15.1,21.5,15.1,16.6,16.5z"/>
	<path class="st0" d="M16.6,16.5c-2.7-1-5.2-1-7.6,0C10.8,8,16.7,5,24,3.7c7.3,1.2,13.2,4.2,15,12.8c-2.5-1-4.9-1-7.6,0"/>
</g>
</svg>
