<svg viewBox="0 0 48 48" xmlns="http://www.w3.org/2000/svg">
    <style>
        .a{fill:none;stroke:#FFFFFF;stroke-linecap:round;stroke-linejoin:round}
    </style>
    <path class="a" d="M9.4238615,25.9012051c2.906229-3.6894722,8.4334421-6.7414551,14.357173-6.7414551l0.0000019,0.0016785  h8.0732098c5.370657,0,9.7247906-4.3541346,9.7247906-9.7247553v-1.564333L22.2537174,8.3467007l-0.3896713,0.0056524  c-1.8805828,0.1016483-3.9700832,1.1294737-5.4779549,2.6034641c-0.7567272,0.7398043-1.3666525,1.5869093-1.7337456,2.4904757  L6.8815928,31.9583893c-1.2593527,2.9987526,0.1524901,6.4492874,3.1512423,7.7086411  c2.9987183,1.2593536,6.4549065-0.1524887,7.7086411-3.1512413l3.8694248-9.2112904"/>
    <path class="a" d="M29.8249226,19.1614285c-0.6127987,3.1841564-3.3283424,7.2077293-8.2140217,8.1430702  c-3.3330479,0.8549957-7.1407728,1.3875389-10.0738459,2.9697571c-4.5796084,2.4704266-3.2292624,9.5274105,0.6174011,9.8513393"/>
</svg>
