<?xml version="1.0" encoding="UTF-8" standalone="no"?>
<svg
   xmlns:dc="http://purl.org/dc/elements/1.1/"
   xmlns:cc="http://creativecommons.org/ns#"
   xmlns:rdf="http://www.w3.org/1999/02/22-rdf-syntax-ns#"
   xmlns:svg="http://www.w3.org/2000/svg"
   xmlns="http://www.w3.org/2000/svg"
   xmlns:sodipodi="http://sodipodi.sourceforge.net/DTD/sodipodi-0.dtd"
   xmlns:inkscape="http://www.inkscape.org/namespaces/inkscape"
   viewBox="0 0 48 48"
   version="1.1"
   id="svg2289"
   sodipodi:docname="template.svg"
   inkscape:version="1.0.1 (3bc2e813f5, 2020-09-07)">
  <metadata
     id="metadata2293">
    <rdf:RDF>
      <cc:Work
         rdf:about="">
        <dc:format>image/svg+xml</dc:format>
        <dc:type
           rdf:resource="http://purl.org/dc/dcmitype/StillImage" />
        <dc:title></dc:title>
      </cc:Work>
    </rdf:RDF>
  </metadata>
  <sodipodi:namedview
     pagecolor="#5a5a5a"
     bordercolor="#666666"
     borderopacity="1"
     objecttolerance="10"
     gridtolerance="10"
     guidetolerance="10"
     inkscape:pageopacity="0"
     inkscape:pageshadow="2"
     inkscape:window-width="3840"
     inkscape:window-height="2096"
     id="namedview2291"
     showgrid="false"
     inkscape:zoom="5.3267046"
     inkscape:cx="19.436198"
     inkscape:cy="35.296654"
     inkscape:window-x="0"
     inkscape:window-y="27"
     inkscape:window-maximized="1"
     inkscape:current-layer="svg2289"
     inkscape:document-rotation="0" />
  <defs
     id="defs2285">
    <style
       id="style2283">.a{fill:none;stroke:#fff;stroke-linecap:round;stroke-linejoin:round;}</style>
  </defs>
  <path
     style="fill:none;stroke:#f8f8f8;stroke-width:1px;stroke-linecap:butt;stroke-linejoin:miter;stroke-opacity:1"
     d="M 8.4137973,42.953369 C 9.3716057,41.134451 10.80516,40.196906 12.446509,39.644327 l -0.462392,-0.965089 c -0.856218,-0.15297 -1.738031,-0.107272 -2.6686956,0.317588 -0.5458137,-1.049191 0.3972748,-2.537585 1.5840616,-4.097866 -0.503029,-0.931 -0.497759,-1.887305 0.359303,-2.886015 -1.7586005,-1.892081 -1.084773,-3.261601 0.798827,-4.371225 0.608224,-1.997716 4.507499,-4.155735 6.08596,-4.145321 2.112762,0.06442 6.390649,3.671037 8.39342,6.769463 2.816783,1.168593 3.408893,3.539449 3.467457,6.198646 -3.224392,0.310537 -5.964855,-1.530366 -8.542761,-4.093965"
     id="path8521"
     sodipodi:nodetypes="ccccccccccc" />
  <path
     style="fill:none;stroke:#f8f8f8;stroke-width:1px;stroke-linecap:butt;stroke-linejoin:miter;stroke-opacity:1"
     d="M 26.536993,30.265862 C 25.476899,29.506951 24.78527,29.441146 24.11414,29.4139"
     id="path8523"
     sodipodi:nodetypes="cc" />
  <path
     style="fill:none;stroke:#f8f8f8;stroke-width:1px;stroke-linecap:butt;stroke-linejoin:bevel;stroke-opacity:1"
     d="m 28.739553,36.577826 -0.843397,3.19256 c 1.374926,0.488378 3.540836,1.989534 4.347088,3.257909 1.175945,-1.029529 2.532377,-3.586299 3.666161,-3.306097"
     id="path8525"
     sodipodi:nodetypes="cccc" />
  <path
     style="fill:none;stroke:#f8f8f8;stroke-width:1px;stroke-linecap:butt;stroke-linejoin:miter;stroke-opacity:1"
     d="m 39.940481,42.890917 c -1.125346,-1.47533 -2.363395,-2.734341 -4.031076,-3.168719 l 0.332594,-0.846857 c 0.766581,-0.156221 1.541131,-0.221379 2.356346,0.178132 0.445376,-1.452032 -0.100701,-2.825323 -1.040631,-4.167335 0.464222,-1.726415 0.25111,-2.818817 -0.625645,-2.964461 2.434684,-2.299606 0.902504,-4.307067 -0.800649,-4.418416 -0.407276,-1.517691 -4.154337,-4.022516 -5.987813,-4.227961 -1.950557,0.119001 -4.93539,2.499451 -5.798297,3.827551"
     id="path8527"
     sodipodi:nodetypes="ccccccccc" />
  <path
     style="fill:none;stroke:#f8f8f8;stroke-width:1px;stroke-linecap:butt;stroke-linejoin:miter;stroke-opacity:1"
     d="m 10.899483,34.89896 c 0.07386,0.753521 0.245095,1.499754 1.054093,2.198262 2.729018,-0.101945 5.282706,-0.516622 6.502473,-3.310561 l -0.760447,-1.110339"
     id="path8529"
     sodipodi:nodetypes="cccc" />
  <path
     style="fill:none;stroke:#f8f8f8;stroke-width:1px;stroke-linecap:butt;stroke-linejoin:miter;stroke-opacity:1"
     d="M 28.060729,39.827495 C 25.436514,38.295583 22.87704,39.230052 20.63474,42.89242 h -4.061176 c -1.170171,-1.787315 -2.415271,-3.31773 -4.127055,-3.248093"
     id="path8531"
     sodipodi:nodetypes="cccc" />
  <path
     style="fill:none;stroke:#f8f8f8;stroke-width:1px;stroke-linecap:butt;stroke-linejoin:miter;stroke-opacity:1"
     d="m 37.557714,34.886138 c -0.174865,0.914248 -0.605025,1.595323 -1.035209,2.263435 -2.809437,0.07973 -4.399666,-1.481077 -6.0683,-2.894557 0.09729,-0.594229 0.342544,-0.976842 0.546252,-1.418874"
     id="path8533"
     sodipodi:nodetypes="cccc" />
  <path
     style="fill:none;stroke:#f8f8f8;stroke-width:1px;stroke-linecap:butt;stroke-linejoin:miter;stroke-opacity:1"
     d="m 11.258786,32.012945 c 0.980355,0.214805 1.509949,-0.395336 1.980562,-0.960358 2.373028,3.605226 6.260631,1.019597 6.203997,-1.374636 -0.05246,-2.217684 -3.077697,-6.1129 -6.525495,-1.306056 L 12.057613,27.64172"
     id="path8535"
     sodipodi:nodetypes="ccscc" />
  <path
     style="fill:none;stroke:#f8f8f8;stroke-width:1;stroke-linecap:round;stroke-linejoin:bevel;stroke-miterlimit:10;stroke-dasharray:none;stroke-opacity:1"
     id="path8537"
     sodipodi:type="arc"
     sodipodi:cx="16.892241"
     sodipodi:cy="28.821795"
     sodipodi:rx="0.62753999"
     sodipodi:ry="0.6411947"
     sodipodi:start="1.842003"
     sodipodi:end="1.3080056"
     sodipodi:open="true"
     sodipodi:arc-type="arc"
     d="m 16.724126,29.439552 a 0.62753999,0.6411947 0 0 1 -0.453485,-0.705776 0.62753999,0.6411947 0 0 1 0.62424,-0.553171 0.62753999,0.6411947 0 0 1 0.619662,0.558519 0.62753999,0.6411947 0 0 1 -0.459282,0.701852" />
  <path
     style="fill:none;stroke:#f8f8f8;stroke-width:1;stroke-linecap:round;stroke-linejoin:bevel;stroke-miterlimit:10;stroke-dasharray:none;stroke-opacity:1"
     id="path8537-1"
     sodipodi:type="arc"
     sodipodi:cx="32.653748"
     sodipodi:cy="29.353899"
     sodipodi:rx="0.62753999"
     sodipodi:ry="0.6411947"
     sodipodi:start="1.842003"
     sodipodi:end="1.3080056"
     sodipodi:open="true"
     sodipodi:arc-type="arc"
     d="m 32.485633,29.971657 a 0.62753999,0.6411947 0 0 1 -0.453485,-0.705776 0.62753999,0.6411947 0 0 1 0.62424,-0.553171 0.62753999,0.6411947 0 0 1 0.619662,0.558519 0.62753999,0.6411947 0 0 1 -0.459282,0.701852" />
  <path
     style="fill:none;stroke:#f8f8f8;stroke-width:1;stroke-linecap:round;stroke-linejoin:bevel;stroke-miterlimit:10;stroke-dasharray:none;stroke-opacity:1"
     id="path8562"
     sodipodi:type="arc"
     sodipodi:cx="12.001389"
     sodipodi:cy="30.041449"
     sodipodi:rx="0.036797006"
     sodipodi:ry="0.29053032"
     sodipodi:start="1.842003"
     sodipodi:end="1.3080056"
     sodipodi:open="true"
     sodipodi:arc-type="arc"
     d="m 11.991531,30.32136 a 0.03679701,0.29053032 0 0 1 -0.02659,-0.319793 0.03679701,0.29053032 0 0 1 0.0366,-0.250646 0.03679701,0.29053032 0 0 1 0.03633,0.253069 0.03679701,0.29053032 0 0 1 -0.02693,0.318015" />
  <path
     style="fill:none;stroke:#f8f8f8;stroke-width:1;stroke-linecap:round;stroke-linejoin:bevel;stroke-miterlimit:10;stroke-dasharray:none;stroke-opacity:1"
     id="path8562-7"
     sodipodi:type="arc"
     sodipodi:cx="36.373333"
     sodipodi:cy="29.869387"
     sodipodi:rx="0.036797006"
     sodipodi:ry="0.29053032"
     sodipodi:start="1.842003"
     sodipodi:end="1.3080056"
     sodipodi:open="true"
     sodipodi:arc-type="arc"
     d="m 36.363475,30.149298 a 0.03679701,0.29053032 0 0 1 -0.02659,-0.319793 0.03679701,0.29053032 0 0 1 0.0366,-0.250646 0.03679701,0.29053032 0 0 1 0.03634,0.253069 0.03679701,0.29053032 0 0 1 -0.02693,0.318015" />
  <path
     style="fill:none;stroke:#f8f8f8;stroke-width:1px;stroke-linecap:butt;stroke-linejoin:miter;stroke-opacity:1"
     d="m 36.13142,27.503261 c -0.21841,0.170106 0.319104,-1.036497 -0.795031,0.771925 0.114711,-2.408897 -6.408738,-3.111359 -6.409271,1.183968 -5.1e-4,4.102651 6.231859,4.239589 6.286718,1.44481 0.477729,1.048024 0.883779,1.407844 1.718233,1.017713"
     id="path8579"
     sodipodi:nodetypes="ccscc" />
  <path
     style="fill:none;stroke:#f8f8f8;stroke-width:1;stroke-linecap:round;stroke-linejoin:bevel;stroke-miterlimit:10;stroke-dasharray:none;stroke-opacity:1"
     id="path8581"
     sodipodi:type="arc"
     sodipodi:cx="23.896332"
     sodipodi:cy="23.702106"
     sodipodi:rx="18.414307"
     sodipodi:ry="18.414307"
     sodipodi:start="2.4312369"
     sodipodi:end="0.68096484"
     sodipodi:open="true"
     sodipodi:arc-type="arc"
     d="M 9.9358947,35.710141 A 18.414307,18.414307 0 0 1 11.075091,10.4846 a 18.414307,18.414307 0 0 1 25.248525,-0.371066 18.414307,18.414307 0 0 1 1.88,25.18117" />
  <path
     style="fill:none;stroke:#ffffff;stroke-width:1px;stroke-linecap:butt;stroke-linejoin:miter;stroke-opacity:1"
     d="m 7.9480601,42.89242 32.4149449,0"
     id="path8583"
     sodipodi:nodetypes="cc" />
</svg>
