<?xml version="1.0" encoding="UTF-8" standalone="no"?>
<svg
   width="48"
   height="48"
   version="1.1"
   viewBox="0 0 48 48"
   id="svg1111"
   sodipodi:docname="fruit_ninja.svg"
   inkscape:version="1.1.1 (3bf5ae0d25, 2021-09-20)"
   xmlns:inkscape="http://www.inkscape.org/namespaces/inkscape"
   xmlns:sodipodi="http://sodipodi.sourceforge.net/DTD/sodipodi-0.dtd"
   xmlns="http://www.w3.org/2000/svg"
   xmlns:svg="http://www.w3.org/2000/svg">
  <defs
     id="defs1115" />
  <sodipodi:namedview
     id="namedview1113"
     pagecolor="#505050"
     bordercolor="#eeeeee"
     borderopacity="1"
     inkscape:pageshadow="0"
     inkscape:pageopacity="0"
     inkscape:pagecheckerboard="0"
     showgrid="false"
     inkscape:zoom="8.09375"
     inkscape:cx="23.413127"
     inkscape:cy="33.791506"
     inkscape:window-width="1914"
     inkscape:window-height="1055"
     inkscape:window-x="0"
     inkscape:window-y="19"
     inkscape:window-maximized="1"
     inkscape:current-layer="svg1111" />
  <g
     transform="translate(.012405 .013043)"
     fill="none"
     stroke="#fff"
     id="g1109">
    <g
       stroke-linecap="round"
       stroke-linejoin="round"
       id="g1099">
      <path
         d="m3.5633 17.667c3e-7 -6.1088 4.9521-11.061 11.061-11.061 1.9086 1e-7 3.6415 0.14221 5.3089 0.78126 1.6674 0.63905 3.7777 1.7671 6.272 4.7766 2.4942 3.0096-14.374 20.269-17.165 17.426-2.0216-2.0596-3.4906-4.8155-4.2018-6.2933-0.71125-1.4778-1.2752-3.5738-1.2752-5.6292z"
         stop-color="#000000"
         style="paint-order:markers fill stroke"
         id="path1069" />
      <path
         d="m41.63 33.917c0.0076 0.16866 0.01149 0.3383 0.01149 0.50884 0 6.1088-4.9521 11.061-11.061 11.061-0.87879 0-3.7385-0.51331-6.3474-2.0026"
         stop-color="#000000"
         style="paint-order:markers fill stroke"
         id="path1071" />
      <path
         d="m17.531 37.398c1.0348 1.6599 6.6807 0.0086 12.611-3.6883 5.9298-3.6968 9.8979-8.0393 8.8631-9.6991"
         stop-color="#000000"
         style="paint-order:markers fill stroke"
         id="path1073" />
      <path
         d="m39.004 24.011c-1.0348-1.6599-6.6807-0.0085-12.611 3.6883-5.9298 3.6968-9.8979 8.0393-8.8631 9.6991 0 0 4.0154 4.3061 6.7018 6.0865"
         stop-color="#000000"
         style="paint-order:markers fill stroke"
         id="path1075" />
      <path
         d="m39.004 24.011s2.6185 6.5224 2.625 9.9067"
         id="path1077" />
      <path
         d="m37.286 16.574s3.5135-5.4983 3.8718-5.5227c-1.8021 0.96334-6.1187 1.4502-6.1187 1.4502-8.0302 4.8041-26.108 27.402-26.108 27.402s20.768-20.555 28.356-23.33z"
         id="path1079" />
      <path
         d="m28.115 29.018 0.12651-0.57675"
         id="path1081" />
      <path
         d="m24.355 31.649-1.0763 0.30635"
         id="path1083" />
      <path
         d="m21.255 35.289 1.0458-0.77054"
         id="path1085" />
      <path
         d="m27.239 33.904 0.13862-0.64006"
         id="path1087" />
      <path
         d="m33.157 28.619 0.9969-0.31885"
         id="path1089" />
      <path
         d="m32.889 26.664 1.0275-0.80438"
         id="path1091" />
      <path
         d="m26.105 9.5895c0.89607-0.83272 3.9575-3.7143 4.5244-6.0844m5.7289-1.0182c-2.5267 3.1083-4.8059 6.3442-8.4009 8.9016m7.9282-3.1785c-2.5327 0.81117-6.7288 5.004-8.3745 6.5849"
         id="path1093" />
      <path
         d="m 31.33,23.499 c 1.676974,-1.770154 3.582366,-3.579773 6.308613,-5.203833 M 36.56794,21.6908 c 3.2501,-2.8992 5.2598,-5.4018 7.7228,-8.3637"
         id="path1095"
         sodipodi:nodetypes="cccc" />
      <path
         d="m44.412 17.973c-2.3805 1.4107-3.7163 2.6311-4.9417 3.8014"
         id="path1097" />
    </g>
    <path
       d="m6.8832 9.7667c-2.3494 5.4734 2.5771 12.15 8.554 17.116"
       id="path1101" />
    <path
       d="m23.801 18.233c-1.535-2.0743-7.836-11.26-16.918-8.4662"
       id="path1103" />
    <path
       d="m25.986 35.998s4.3178 8.0902 9.6594 8.2641"
       id="path1105" />
    <path
       d="m36.015 29.277s5.3762 7.5 2.3352 13.022"
       id="path1107" />
  </g>
</svg>
