<svg xmlns="http://www.w3.org/2000/svg" xml:space="preserve" id="svg990" width="48" height="48" version="1.1"><defs id="defs987"><style id="style1174">.a{fill:none;stroke:#fff;stroke-linecap:round;stroke-linejoin:round}</style></defs><path id="path11211" d="M19.194 35.7a1.39 1.39 0 0 1-1.39 1.39 1.39 1.39 0 0 1-1.39-1.39 1.39 1.39 0 0 1 1.39-1.39 1.39 1.39 0 0 1 1.39 1.39zm11.734-8.688a1.39 1.39 0 0 1-1.39 1.39 1.39 1.39 0 0 1-1.39-1.39 1.39 1.39 0 0 1 1.39-1.39 1.39 1.39 0 0 1 1.39 1.39zm-10.3-7.394a1.39 1.39 0 0 1-1.391 1.39 1.39 1.39 0 0 1-1.39-1.39 1.39 1.39 0 0 1 1.39-1.39 1.39 1.39 0 0 1 1.39 1.39zm4.855 16.001A6.166 6.166 0 0 1 24 35.8a6.166 6.166 0 0 1-6.166-6.166A6.166 6.166 0 0 1 24 23.468a6.166 6.166 0 0 1 4.846 2.353m1.176 2.488a6.166 6.166 0 0 1 .144 1.325 6.166 6.166 0 0 1-1.806 4.36m-2.752 4.16a8.67 8.67 0 0 1-1.608.15 8.67 8.67 0 0 1-5.157-1.701m-1.922-1.965a8.67 8.67 0 0 1-1.59-5.004A8.67 8.67 0 0 1 24 20.964a8.67 8.67 0 0 1 8.67 8.67 8.67 8.67 0 0 1-2.54 6.13m-4.083-4.083a2.895 2.895 0 1 0-4.095-4.095 2.895 2.895 0 0 0 4.095 4.095l6.458 6.458M25.73 40.66a11.162 11.162 0 0 1-1.731.135 11.162 11.162 0 0 1-11.162-11.162 11.162 11.162 0 0 1 5.164-9.414m2.494-1.184A11.162 11.162 0 0 1 24 18.472a11.162 11.162 0 0 1 11.162 11.162v0a11.162 11.162 0 0 1-3.27 7.894m5.974-7.894A13.866 13.866 0 0 1 24 43.5a13.866 13.866 0 0 1-13.866-13.866A13.866 13.866 0 0 1 24 15.768a13.866 13.866 0 0 1 13.866 13.866ZM31.992 6.767c2.054 1.498-2.275 7.732-7.126 6.945-.436-3.872 4.445-8.9 7.126-6.945zm-8.923 6.891c-7.544.546-10.288-7.428-8.67-8.657 2.777-2.11 9.342 2.74 8.67 8.657z" style="display:inline;fill:none;stroke:#fff;stroke-width:1;stroke-linecap:round;stroke-linejoin:round;stroke-dasharray:none;stroke-opacity:1;stop-color:#000"/></svg>