<svg width="48" height="48" version="1.1" viewBox="0 0 48 48" xml:space="preserve" xmlns="http://www.w3.org/2000/svg"><defs><style>.a{fill:none;stroke:#fff;stroke-linecap:round;stroke-linejoin:round;}</style></defs><g transform="matrix(1.173 0 0 1.173 -4.1517 -4.1517)" fill="none" stroke="#fff" stroke-linecap="round" stroke-linejoin="round" stroke-width=".85253"><circle class="a" cx="24" cy="24" r="18.281"/><circle class="a" cx="24" cy="24" r="11.525"/><path d="m6.7795 19.307 6.0457 1.7167" style="paint-order:stroke fill markers"/><path d="m15.701 32.345-4.5092 4.5217" style="paint-order:stroke fill markers"/><path d="m27.016 35.155 1.6562 6.2768" style="paint-order:stroke fill markers"/><path d="m35.157 26.982 6.4507 1.7422" style="paint-order:stroke fill markers"/><path d="m32.099 15.783 4.7316-4.5218" style="paint-order:stroke fill markers"/><path d="m20.985 12.689-1.5997-5.9703" style="paint-order:stroke fill markers"/><circle class="a" cx="24" cy="24" r="9.5187"/><circle class="a" cx="21.872" cy="18.759" r="1.9608"/><path d="m15.029 25.801 3.4741-3.1726 3.5239 3.0726 0.24848 0.25862 5.6785-5.3686 5.0251 5.0251" style="paint-order:stroke fill markers"/><path d="m22.196 25.997-4.8762 4.5209" style="paint-order:stroke fill markers"/></g></svg>
