<?xml version="1.0" encoding="UTF-8" standalone="no"?>
<!-- Created with Inkscape (http://www.inkscape.org/) -->

<svg
   width="48"
   height="48"
   viewBox="0 0 48 48"
   version="1.1"
   id="svg5"
   inkscape:version="1.1.1 (3bf5ae0d25, 2021-09-20)"
   sodipodi:docname="funkwhale.svg"
   xmlns:inkscape="http://www.inkscape.org/namespaces/inkscape"
   xmlns:sodipodi="http://sodipodi.sourceforge.net/DTD/sodipodi-0.dtd"
   xmlns="http://www.w3.org/2000/svg"
   xmlns:svg="http://www.w3.org/2000/svg">
  <sodipodi:namedview
     id="namedview7"
     pagecolor="#505050"
     bordercolor="#eeeeee"
     borderopacity="1"
     inkscape:pageshadow="0"
     inkscape:pageopacity="0"
     inkscape:pagecheckerboard="0"
     inkscape:document-units="px"
     showgrid="false"
     units="px"
     inkscape:zoom="8.09375"
     inkscape:cx="-4.3243243"
     inkscape:cy="27.737452"
     inkscape:window-width="1531"
     inkscape:window-height="1055"
     inkscape:window-x="383"
     inkscape:window-y="19"
     inkscape:window-maximized="1"
     inkscape:current-layer="layer1" />
  <defs
     id="defs2" />
  <g
     inkscape:label="Layer 1"
     inkscape:groupmode="layer"
     id="layer1">
    <path
       style="fill:none;stroke:#ffffff;stroke-linecap:round;stroke-linejoin:round;stroke-miterlimit:7.84;paint-order:markers fill stroke;stop-color:#000000"
       d="m 39.60858,22.361156 c 0,8.620381 -6.988199,15.60858 -15.60858,15.60858 -8.620381,0 -15.6085796,-6.988199 -15.6085796,-15.60858"
       id="path888" />
    <path
       style="fill:none;stroke:#ffffff;stroke-linecap:round;stroke-linejoin:round;stroke-miterlimit:7.84;paint-order:markers fill stroke;stop-color:#000000"
       d="m 33.563457,22.361156 c 0,5.281752 -4.281705,9.563457 -9.563457,9.563457 -5.281752,0 -9.563457,-4.281705 -9.563457,-9.563457"
       id="circle1022" />
    <path
       style="fill:none;stroke:#ffffff;stroke-linecap:round;stroke-linejoin:round;stroke-miterlimit:7.84;paint-order:markers fill stroke;stop-color:#000000"
       d="m 28.609055,22.361156 c 10e-7,2.545511 -2.063544,4.609056 -4.609055,4.609056 -2.545511,0 -4.609056,-2.063545 -4.609055,-4.609056"
       id="circle1024" />
    <path
       style="fill:none;stroke:#ffffff;stroke-width:1px;stroke-linecap:round;stroke-linejoin:round;stroke-opacity:1"
       d="m 23.755188,22.248145 c -2.268476,0 -0.605431,-5.267904 -2.906653,-6.261653 -2.478545,-1.070323 -7.821561,-1.008074 -8.426664,-7.7027855 0,0 4.068476,0.1859767 6.59987,1.2689751 2.531393,1.0829984 4.067496,1.0099694 5.238013,3.8655094 0,0 0.446689,-2.49148 4.212706,-3.5324149 3.766017,-1.0409345 6.766885,-1.0864371 6.766885,-1.0864371 0,0 0.492308,2.828598 -1.641885,4.79621 -2.134192,1.967611 -6.718362,1.917832 -7.122455,3.924944 -0.413067,2.051687 -0.451342,4.727652 -2.719817,4.727652 z"
       id="path2062"
       sodipodi:nodetypes="zscscscssz" />
  </g>
</svg>
