<?xml version="1.0" encoding="UTF-8"?>
<svg id="a" version="1.1" viewBox="0 0 48 48" xml:space="preserve" xmlns="http://www.w3.org/2000/svg"><defs><style>.b{fill:none;stroke:#fff;stroke-linecap:round;stroke-linejoin:round;}</style><style>.a{fill:none;stroke:#fff;stroke-linecap:round;stroke-linejoin:round;}</style><style>.a{fill:none;stroke:#fff;stroke-linecap:round;stroke-linejoin:round;}</style><style>.a{fill:none;stroke:#fff;stroke-linecap:round;stroke-linejoin:round;}</style><style>.a{fill:none;stroke:#fff;stroke-linecap:round;stroke-linejoin:round;}</style><style>.a{fill:none;stroke:#fff;stroke-linecap:round;stroke-linejoin:round;}</style><style>.a{fill:none;stroke:#fff;stroke-linecap:round;stroke-linejoin:round;}</style></defs><style type="text/css">
	.st0{fill:#FEFEFE;}
	.st1{fill:#B81B3F;}
	.st2{fill:#F3AB17;}
	.st3{fill:#171715;}
</style><path d="m15.537 28.332c0 4.6716 3.7871 8.4587 8.4587 8.4587 4.6716 0 8.4587-3.7871 8.4587-8.4587v0c0.13855-10.48-13.554-5.4722-14.315-14.037 0.0027-3.2097 2.6286-5.8116 5.8653-5.8116 3.2367 0 5.8585 2.602 5.8559 5.8116" fill="none" stroke="#fff" stroke-linecap="round" stroke-linejoin="round"/><path d="m31.829 20.61c-2.0798-2.0595-4.8947-3.2157-7.8289-3.2157-6.1295 0-11.098 4.9442-11.098 11.043s4.9689 11.043 11.098 11.043c6.1295 0 11.098-4.9442 11.098-11.043v0l-5.749 0.04946" fill="none" stroke="#fff" stroke-linecap="round" stroke-linejoin="round"/><ellipse cx="24" cy="24" rx="16.436" ry="21.5" fill="none" stroke="#fff" stroke-linecap="round" stroke-linejoin="round"/></svg>
