<?xml version="1.0" encoding="UTF-8"?><svg id="a" xmlns="http://www.w3.org/2000/svg" viewBox="0 0 48 48"><defs><style>.g{fill:none;stroke:#fff;stroke-linecap:round;stroke-linejoin:round;}</style></defs><path id="b" class="g" d="m25.7392,5.5c.6214,2.7217,1.8945,5.102,5.8804,6.0616-3.8866,1.1038-5.0465,2.6521-5.7592,6.0009-.873-3.4172-1.6937-5.2818-5.941-6.0009,3.6471-1.023,5.0905-3.1533,5.8198-6.0616Z"/><path id="c" class="g" d="m35.0145,14.2286c-1.0531,3.935-3.2649,6.6482-7.4566,7.2739,5.0009.7987,6.6491,3.9531,7.4566,7.6982.6749-4.4044,3.2255-6.7715,7.2141-7.577-3.8735-1.0491-6.4838-3.4353-7.2141-7.3951Z"/><path id="d" class="g" d="m12.5159,20.4523h-3.3072c-1.9042,0-3.4372,1.5328-3.4372,3.4368v15.174c0,1.904,1.533,3.4368,3.4372,3.4368h15.8243c1.9042,0,3.4372-1.5328,3.4372-3.4368v-1.8226l-4.9882-.0249.0214-5.7649-5.637.0857.0857-5.8292-5.4869.0857.0506-5.3407Z"/><path id="e" class="g" d="m17.9522,25.6216v-5.2291h5.3369v5.2291h-5.3369Z"/><path id="f" class="g" d="m23.5035,31.4762v-5.8546h5.1639v5.8546h-5.1639Z"/></svg>