<svg xmlns="http://www.w3.org/2000/svg" viewBox="0 0 48 48"><defs><style>.a{fill:none;stroke:#fff;stroke-linecap:round;stroke-linejoin:round;}</style></defs><path class="a" d="M24,19.3642V5.5M22.7,18.9309l2.6-2.6-2.6-2.6,2.6-2.5995-2.6-2.6,2.6-2.5995"/><path class="a" d="M24.8665,21.0972a16.8817,16.8817,0,0,1,1.733,3.717,9.1049,9.1049,0,0,0,1.7452,3.75c1.3134,2.0546,9.9527-9.6334,9.9527-9.6334l-4.7658,9.5316,7.7986-3.466-8.2318,6.9321,9.0983.4332-10.3981,1.3L37.8642,40.16l-7.7986-4.7658,2.6,7.1054-4.5943-5.7537s-.8212-3.9707-1.094-4.67a1.23,1.23,0,0,0-.5839-.5923c-.0506.4095-.086.8189-.145,1.2365l-4.4958-.0751c-.0506-.4139-.1164-.8222-.145-1.2413a1.1737,1.1737,0,0,0-.5839.5755c-.2877.6873-1.094,4.65-1.094,4.65L15.3349,42.5l2.6-7.1054L10.1358,40.16l6.0656-6.4988-10.3981-1.3,9.0983-.4332L6.67,24.9965l7.7986,3.466L9.7026,18.9309s8.5937,11.7492,9.9527,9.568a9.56,9.56,0,0,0,1.7452-3.7429,17.7288,17.7288,0,0,1,1.733-3.6588Zm-.29,15.0138A5.6426,5.6426,0,0,0,24,38.713a6.3148,6.3148,0,0,0-.5769-2.6377c-.3026-.3913-.8439-.6956-.7705-1.3245a1.35,1.35,0,0,1,2.6948,0C25.3866,35.4,24.9213,35.7108,24.5769,36.111Z"/><circle class="a" cx="24" cy="27.1628" r="1.2998"/><path class="a" d="M29.1991,15.8981V13.7318m0,12.5645V24.13m0-3.0328V18.9309"/><path class="a" d="M18.8009,15.8981V13.7318m0,12.5645V24.13m0-3.0328V18.9309"/><path class="a" d="M36.5644,13.5585l.4333-3.0327m-1.3,9.0983.4332-3.0328"/><path class="a" d="M11.4356,13.5585l-.4333-3.0327m1.3,9.0983-.4332-3.0328"/></svg>