<?xml version="1.0" encoding="UTF-8" standalone="no"?>
<!-- Created with Inkscape (http://www.inkscape.org/) -->

<svg
   width="48"
   height="48"
   viewBox="0 0 12.7 12.7"
   version="1.1"
   id="svg5"
   inkscape:version="1.1.2 (0a00cf5339, 2022-02-04)"
   sodipodi:docname="gallery.svg"
   xmlns:inkscape="http://www.inkscape.org/namespaces/inkscape"
   xmlns:sodipodi="http://sodipodi.sourceforge.net/DTD/sodipodi-0.dtd"
   xmlns="http://www.w3.org/2000/svg"
   xmlns:svg="http://www.w3.org/2000/svg">
  <sodipodi:namedview
     id="namedview7"
     pagecolor="#505050"
     bordercolor="#ffffff"
     borderopacity="1"
     inkscape:pageshadow="0"
     inkscape:pageopacity="0"
     inkscape:pagecheckerboard="1"
     inkscape:document-units="mm"
     showgrid="false"
     units="px"
     width="48px"
     inkscape:zoom="12.98156"
     inkscape:cx="24.14964"
     inkscape:cy="23.302284"
     inkscape:window-width="1920"
     inkscape:window-height="950"
     inkscape:window-x="0"
     inkscape:window-y="32"
     inkscape:window-maximized="1"
     inkscape:current-layer="svg5" />
  <defs
     id="defs2">
    <style
       id="style2363">.a{fill:none;stroke:#000;stroke-linecap:round;stroke-linejoin:round;}</style>
  </defs>
  <g
     inkscape:groupmode="layer"
     id="layer2"
     inkscape:label="Layer 2"
     style="opacity:1">
    <path
       style="fill:none;stroke:#ffffff;stroke-width:0.264583px;stroke-linecap:round;stroke-linejoin:round;stroke-opacity:1;paint-order:stroke fill markers"
       d="m 9.6046572,2.0727566 1.2341638,0.00651 c 0,0 0.41879,0.079646 0.48703,0.4268745 l -0.0188,6.2634862 -1.810675,-0.00758 C 9.5324697,6.5322837 9.6084349,5.2208602 9.6046572,2.0727566 Z"
       id="path2277"
       sodipodi:nodetypes="cccccc" />
    <path
       style="fill:none;stroke:#ffffff;stroke-width:0.264583px;stroke-linecap:round;stroke-linejoin:round;stroke-opacity:1;paint-order:stroke fill markers"
       d="m 3.2607964,7.1984943 c 0,0 1.5737134,-0.2228239 2.7497818,1.5573716 l 1.9910813,-0.018852 c 0,0 -1.4365411,-3.480496 -4.7113888,-3.2764499 z"
       id="path2281" />
    <circle
       class="a"
       cx="7.9324203"
       cy="5.4197297"
       r="1.0478259"
       id="circle2367"
       style="opacity:1;fill:none;stroke:#fffffd;stroke-width:0.264583;stroke-linecap:round;stroke-linejoin:round;stroke-miterlimit:4;stroke-dasharray:none;stroke-opacity:1" />
    <path
       style="fill:none;stroke:#ffffff;stroke-width:0.264583;stroke-linecap:round;stroke-linejoin:round;stroke-miterlimit:4;stroke-dasharray:none;stroke-opacity:1;paint-order:stroke fill markers"
       d="M 1.4840559,5.4846128 3.2902707,5.460566"
       id="path7383"
       sodipodi:nodetypes="cc" />
    <path
       style="display:inline;opacity:1;fill:none;stroke:#fffffe;stroke-width:0.264583px;stroke-linecap:round;stroke-linejoin:round;stroke-opacity:1;paint-order:stroke fill markers"
       d="M 9.6046572,2.0727566 1.8761198,2.0604186 c 0,0 -0.3614687,0.1032779 -0.4417581,0.3492915 l -0.05794,7.5763295 c 0,0 0.075479,0.5305884 0.5406102,0.6048434 0.4651307,0.07426 8.7227081,-3.43e-4 8.7227081,-3.43e-4 0,0 0.590475,-0.03117 0.645275,-0.501636 0.0548,-0.4704677 0.02203,-1.3192838 0.02203,-1.3192838 L 3.1965544,8.7902072 3.2182394,3.8686845 9.572706,3.8386405 Z"
       id="path7927" />
  </g>
</svg>
