<svg version="1.1" viewBox="0 0 48 48" xmlns="http://www.w3.org/2000/svg"><defs><style>.a{fill:none;stroke:#fff;stroke-linecap:round;stroke-linejoin:round;}</style></defs><rect x="16.0774" y="5.77813" width="2.11268" height="2.11268" fill="none" stroke="#fff" stroke-linecap="round" stroke-linejoin="round"/><rect x="36.6761" y="12.6443" width="2.11268" height="2.11268" fill="none" stroke="#fff" stroke-linecap="round" stroke-linejoin="round"/><rect x="16.0774" y="40.1092" width="2.11268" height="2.11268" fill="none" stroke="#fff" stroke-linecap="round" stroke-linejoin="round"/><rect x="36.6761" y="33.243" width="2.11268" height="2.11268" fill="none" stroke="#fff" stroke-linecap="round" stroke-linejoin="round"/><path d="m14.757 9.21124h-5.54574v8.97884h2.11268v-6.86616h3.43306v-2.11268" fill="none" stop-color="#000000" stroke="#fff" stroke-linecap="round" stroke-linejoin="round" style="-inkscape-stroke:none;font-variation-settings:normal"/><path d="m12.6443 19.5106h8.97898v2.11268h-8.97898v-2.11268" fill="none" stop-color="#000000" stroke="#fff" stroke-linecap="round" stroke-linejoin="round" style="-inkscape-stroke:none;font-variation-settings:normal"/><path d="m29.8099 21.6233v-3.4332h-3.4331v-3.4331h-6.8662v-2.11268h8.97888v3.4331h6.8662v5.54588h-5.54578" fill="none" stop-color="#000000" stroke="#fff" stroke-linecap="round" stroke-linejoin="round" style="-inkscape-stroke:none;font-variation-settings:normal"/><path d="m12.6443 26.3768h8.97898v2.11268h-8.97898z" fill="none" stop-color="#000000" stroke="#fff" stroke-linecap="round" stroke-linejoin="round" style="-inkscape-stroke:none;font-variation-settings:normal"/><path d="m29.8099 26.3768v3.4331h-3.4331v3.4331h-6.8662v2.11268h8.97888v-3.4331h6.8662v-5.54578h-5.54578" fill="none" stop-color="#000000" stroke="#fff" stroke-linecap="round" stroke-linejoin="round" style="-inkscape-stroke:none;font-variation-settings:normal"/><path d="m9.21124 29.8099v8.97888h5.54574v-2.11268h-3.43306v-6.8662h-2.11268" fill="none" stop-color="#000000" stroke="#fff" stroke-linecap="round" stroke-linejoin="round" style="-inkscape-stroke:none;font-variation-settings:normal"/></svg>
