<?xml version="1.0" encoding="UTF-8"?><svg viewBox="0 0 48 48" xmlns="http://www.w3.org/2000/svg"><defs><style>.a{fill:none;stroke:#fff;stroke-linecap:round;stroke-linejoin:round;}</style></defs><path class="a" d="M 45.5,24 A 21.5,21.5 0 0 1 24,45.5 21.5,21.5 0 0 1 2.5,24 21.5,21.5 0 0 1 24,2.5 21.5,21.5 0 0 1 45.5,24 Z"/><path class="a" d="m12.343 12.343 23.205 23.205"/><path class="a" d="m12.343 35.548 23.205-23.205"/><path class="a" d="m26.054 9.0984c0-1.195-1.0356-2.2306-2.2306-2.1509-1.1153 0.079664-1.9916 1.1153-1.9916 2.2306v1.9916c0 1.195 0.95597 2.1509 2.1509 2.1509 1.195 0 2.1509-0.95597 2.1509-2.1509h-2.1509"/><path class="a" d="m26.054 9.0984"/><line class="a" x1="35.344" x2="35.344" y1="20.511" y2="26.884"/><line class="a" x1="39.566" x2="39.566" y1="20.511" y2="26.884"/><line class="a" x1="35.344" x2="39.566" y1="23.697" y2="23.697"/><path class="a" d="m20.87 40.498v-6.3731l3.1866 6.3731 3.1866-6.3731v6.3731"/><path class="a" d="m8.0603 20.091v6.3731h3.1866"/></svg>
