<svg viewBox="0 0 48 48" xmlns="http://www.w3.org/2000/svg">
    <style>
        .a{fill:none;stroke:#FFFFFF;stroke-linecap:round;stroke-linejoin:round}
    </style>
    <path class="a" d="M43.5,14.4468126V9.1750174c0-1.2129798-0.8954315-2.1962938-2-2.1962938h-5.6063766"/>
    <path class="a" d="M35.8936234,41.0212784H41.5c1.1045685,0,2-0.9833183,2-2.1962967v-5.2717896"/>
    <path class="a" d="M4.5,33.5531921v5.2717896c0,1.2129784,0.8954306,2.1962967,2,2.1962967h5.6063766"/>
    <path class="a" d="M12.1063776,6.9787235H6.5c-1.1045694,0-2,0.983314-2,2.1962938v5.2717953"/>
    <path class="a" d="M40.0556564,37.3404274h-9.1981258c-0.3964176,0-0.7690182-0.1892509-1.0028477-0.5093613L21.8589821,25.884985 c-0.8201847-1.1228294-0.8201847-2.6471405,0-3.7699699l7.9957008-10.9460802 c0.2338295-0.3201113,0.6064301-0.5093603,1.0028477-0.5093603h9.1981258c0.5139542,0,0.8108711,0.5830755,0.5085754,0.9987288 l-8.3427696,11.4713106c-0.3773804,0.518898-0.3773804,1.2218742,0,1.7407722l8.3427696,11.4713116 C40.8665276,36.7573509,40.5696106,37.3404274,40.0556564,37.3404274z"/>
    <path class="a" d="M24.2769051,18.8048782l-5.5777702-7.6359434c-0.2338295-0.3201113-0.6064281-0.5093603-1.0028477-0.5093603 H7.9443445c-0.5139546,0-0.8108711,0.5830755-0.5085778,0.9987288l8.3427715,11.4713106 c0.3773794,0.518898,0.3773794,1.2218742,0,1.7407722L7.4357667,36.3416977 c-0.3022933,0.4156532-0.0053768,0.9987297,0.5085778,0.9987297h9.7519426c0.3964195,0,0.7690182-0.1892509,1.0028477-0.5093613 l5.5777702-7.6359444"/>
</svg>
