<?xml version="1.0" encoding="UTF-8"?>
<svg id="a" version="1.1" viewBox="0 0 48 48" xml:space="preserve" xmlns="http://www.w3.org/2000/svg"><defs><style>.b{fill:none;stroke:#fff;stroke-linecap:round;stroke-linejoin:round;}</style></defs><path d="m36.887 24.526h6.9141v5.3699c-1.8049 2.287-4.5578 3.6214-7.4713 3.6214-5.2565 0-9.5176-4.2611-9.5176-9.5176s4.2611-9.5176 9.5176-9.5176c2.9053 0 5.6515 1.327 7.4568 3.6032" fill="none" stroke="#fff" stroke-linecap="round" stroke-linejoin="round"/><path d="m35.982 36.283c-6.7837 0-12.283-5.4993-12.283-12.283s5.4993-12.283 12.283-12.283c2.5567-1.1e-5 5.0497 0.7978 7.1322 2.2836-3.5413-6.0632-10.027-9.79-17.038-9.79-10.904 0-19.744 8.8598-19.744 19.789s8.8397 19.789 19.744 19.789c7.035-2.88e-4 13.538-3.7524 17.062-9.8235-2.0948 1.5166-4.5931 2.3179-7.1556 2.3179z" fill="none" stroke="#fff" stroke-linecap="round" stroke-linejoin="round"/><path d="m37.557 7.9007c-5.0661 3.1106-11.089 4.638-17.025 4.3174-3.8233-0.20651-7.6042-1.1666-11.063-2.809" fill="none" stroke="#fff" stroke-linecap="round" stroke-linejoin="round"/><path d="m23.967 21.45c-2.3242 0.26344-4.6726 0.31413-7.0059 0.15119-4.2446-0.29638-8.4386-1.3039-12.355-2.9681" fill="none" stroke="#fff" stroke-linecap="round" stroke-linejoin="round"/><path d="m25.221 29.922c-3.279 0.6433-6.6467 0.83202-9.9769 0.55909-3.7575-0.30796-7.4662-1.2045-10.949-2.6471" fill="none" stroke="#fff" stroke-linecap="round" stroke-linejoin="round"/><path d="m37.348 36.208c-4.9107 1.6529-10.082 2.53-15.263 2.5891-4.7675 0.05431-9.5423-0.58328-14.128-1.8866" fill="none" stroke="#fff" stroke-linecap="round" stroke-linejoin="round"/></svg>
