<?xml version="1.0" encoding="UTF-8" standalone="no"?>
<svg
   xmlns:dc="http://purl.org/dc/elements/1.1/"
   xmlns:cc="http://creativecommons.org/ns#"
   xmlns:rdf="http://www.w3.org/1999/02/22-rdf-syntax-ns#"
   xmlns:svg="http://www.w3.org/2000/svg"
   xmlns="http://www.w3.org/2000/svg"
   xmlns:sodipodi="http://sodipodi.sourceforge.net/DTD/sodipodi-0.dtd"
   xmlns:inkscape="http://www.inkscape.org/namespaces/inkscape"
   width="48"
   height="48"
   viewBox="0 0 48 48"
   version="1.1"
   id="svg8"
   inkscape:version="1.0.2-2 (e86c870879, 2021-01-15)"
   sodipodi:docname="g-compris.svg">
  <defs
     id="defs2" />
  <sodipodi:namedview
     id="base"
     pagecolor="#787878"
     bordercolor="#ffffff"
     borderopacity="1"
     inkscape:pageopacity="0"
     inkscape:pageshadow="2"
     inkscape:zoom="2.8"
     inkscape:cx="-24.554076"
     inkscape:cy="26.606354"
     inkscape:document-units="px"
     inkscape:current-layer="layer1"
     inkscape:document-rotation="0"
     showgrid="false"
     units="px"
     showborder="true"
     inkscape:showpageshadow="false"
     borderlayer="true"
     inkscape:snap-global="true"
     inkscape:object-paths="true"
     inkscape:window-width="1920"
     inkscape:window-height="1009"
     inkscape:window-x="-8"
     inkscape:window-y="-8"
     inkscape:window-maximized="1"
     showguides="true"
     inkscape:guide-bbox="true"
     inkscape:snap-bbox="true"
     inkscape:snap-bbox-midpoints="true"
     inkscape:snap-center="true"
     inkscape:snap-object-midpoints="true"
     inkscape:snap-smooth-nodes="true" />
  <metadata
     id="metadata5">
    <rdf:RDF>
      <cc:Work
         rdf:about="">
        <dc:format>image/svg+xml</dc:format>
        <dc:type
           rdf:resource="http://purl.org/dc/dcmitype/StillImage" />
        <dc:title />
      </cc:Work>
    </rdf:RDF>
  </metadata>
  <g
     inkscape:label="Calque 1"
     inkscape:groupmode="layer"
     id="layer1">
    <path
       style="fill:none;stroke:#ffffff;stroke-width:1.00157;stroke-linecap:round;stroke-linejoin:round;stroke-miterlimit:4;stroke-dasharray:none;stroke-opacity:1"
       d="m 39.021988,28.926069 4.611427,4.615762 c -9.043306,9.051808 -23.705403,9.051808 -32.748709,0 -9.0433046,-9.051809 -9.0433026,-23.7276835 2e-6,-32.7794935 l 4.611428,4.61576"
       id="path15589" />
    <path
       style="fill:none;stroke:#ffffff;stroke-width:1.00157;stroke-linecap:round;stroke-linejoin:round;stroke-miterlimit:4;stroke-dasharray:none;stroke-opacity:1"
       d="M 43.894717,17.152078 A 16.635657,16.651296 0 0 1 27.259063,33.803379 16.635657,16.651296 0 0 1 10.623405,17.152078 16.635657,16.651296 0 0 1 27.259063,0.5007875 16.635657,16.651296 0 0 1 43.894717,17.152078 Z"
       id="path15587" />
    <path
       style="fill:none;stroke:#ffffff;stroke-width:1.00157;stroke-linecap:round;stroke-linejoin:round;stroke-miterlimit:4;stroke-dasharray:none;stroke-opacity:1"
       d="M 14.360644,47.498676 A 21.717354,21.73777 0 0 1 27.258707,43.2497 21.717354,21.73777 0 0 1 40.157478,47.499213"
       id="path15583" />
    <path
       style="fill:none;stroke:#ffffff;stroke-width:1.00157;stroke-linecap:round;stroke-linejoin:round;stroke-miterlimit:4;stroke-dasharray:none;stroke-opacity:1"
       d="M 27.259061,43.2497 V 40.330687"
       id="path1007" />
    <path
       class="st5"
       d="M 33.142619,11.855301 C 32.134308,8.0922411 28.266359,5.8590601 24.50328,6.8673761 v 0 c -3.76305,1.008305 -5.996231,4.8762749 -4.987921,8.6393389 l 1.860145,6.94216 c 1.00831,3.763063 4.876284,5.996225 8.639336,4.987917 v 0 c 3.76305,-1.008305 5.996234,-4.876265 4.987923,-8.639328 l -6.813628,1.825705"
       id="path7478"
       style="fill:none;stroke:#ffffff;stroke-width:1;stroke-linecap:round;stroke-linejoin:round;stroke-miterlimit:10" />
  </g>
</svg>
