<?xml version="1.0" encoding="UTF-8" standalone="no"?>
<svg
   viewBox="0 0 48 48"
   version="1.1"
   id="svg8"
   xml:space="preserve"
   xmlns="http://www.w3.org/2000/svg"
   xmlns:svg="http://www.w3.org/2000/svg"><defs
     id="defs4"><style
       id="style2">.a{fill:none;stroke:#fff;stroke-linecap:round;stroke-linejoin:round;}</style></defs><ellipse
     style="fill:none;stroke:#ffffff;stroke-width:0.999994;stroke-linecap:round;stroke-linejoin:round;stroke-dashoffset:0.5"
     id="path526-4"
     cx="17.721233"
     cy="27.647652"
     rx="1.271539"
     ry="1.9715295" /><path
     style="opacity:1;fill:none;stroke:#ffffff;stroke-width:0.999994;stroke-linecap:round;stroke-linejoin:round;stroke-dashoffset:0.5"
     d="M 33.540919,35.447908 C 37.846729,32.991322 38.751691,27.620049 38.63876,20.107606 38.525829,12.595164 32.647533,6.4091032 23.789537,6.3808449 14.931543,6.3525858 9.8938847,13.531085 9.2676974,20.084223 8.6415091,26.637364 10.370676,33.418907 14.239248,35.360501"
     id="path354" /><path
     style="opacity:1;fill:none;stroke:#ffffff;stroke-width:0.999994;stroke-linecap:round;stroke-linejoin:round;stroke-dashoffset:0.5"
     d="m 38.63876,20.107606 c 3.423801,0.976725 5.725031,3.711327 6.64123,6.664614 -2.771074,1.956073 -5.478008,3.463154 -8.124367,4.546219"
     id="path452" /><path
     style="opacity:1;fill:none;stroke:#ffffff;stroke-width:0.999994;stroke-linecap:round;stroke-linejoin:round;stroke-dashoffset:0.5"
     d="m 9.2676974,20.084223 c -2.4086028,0.469074 -6.0734976,3.670316 -6.5476903,6.711383 2.069156,1.798566 5.0326078,3.179795 8.0167169,4.551382"
     id="path454" /><path
     style="opacity:1;fill:none;stroke:#ffffff;stroke-width:0.999994;stroke-linecap:round;stroke-linejoin:round;stroke-dashoffset:0.5"
     d="m 9.6184677,32.548218 c 9.5838033,7.307832 21.2109743,6.028598 28.6227573,-0.04682 l -0.04683,4.162456 c -6.360116,5.460549 -18.52333,7.64342 -28.7162952,0.0233 z"
     id="path456" /><path
     style="opacity:1;fill:none;stroke:#ffffff;stroke-width:0.999994;stroke-linecap:round;stroke-linejoin:round;stroke-dashoffset:0.5"
     d="M 21.412946,37.407326 C 11.253397,35.614787 12.695481,29.153298 12.307695,23.428221 20.641409,19.602486 29.366141,19.861085 35.388302,23.358092 36.106712,34.563078 31.387284,36.827005 25.6955,37.492158"
     id="path458" /><path
     style="opacity:1;fill:none;stroke:#ffffff;stroke-width:0.999994;stroke-linecap:round;stroke-linejoin:round;stroke-dashoffset:0.5"
     d="m 27.601228,20.914336 c -0.437649,1.619749 0.616209,2.845681 1.286151,4.174195 -2.39506,-0.961466 -5.093614,-1.280241 -6.491675,-4.352999 0.392498,1.550504 -2.098097,3.075268 -8.684932,4.563456 1.12524,-1.065878 2.45542,-2.037165 2.814299,-3.456749"
     id="path460" /><path
     style="opacity:1;fill:none;stroke:#ffffff;stroke-width:0.999994;stroke-linecap:round;stroke-linejoin:round;stroke-dashoffset:0.5"
     d="m 13.18176,23.01749 1.557934,0.974676"
     id="path462" /><ellipse
     style="opacity:1;fill:none;stroke:#ffffff;stroke-width:0.999994;stroke-linecap:round;stroke-linejoin:round;stroke-dashoffset:0.5"
     id="path516"
     cx="17.604309"
     cy="14.530378"
     rx="4.3846135"
     ry="4.3612289" /><ellipse
     style="opacity:1;fill:none;stroke:#ffffff;stroke-width:0.999994;stroke-linecap:round;stroke-linejoin:round;stroke-dashoffset:0.5"
     id="path518"
     cx="30.313847"
     cy="14.413459"
     rx="4.5132284"
     ry="4.2443032" /><path
     style="opacity:1;fill:none;stroke:#ffffff;stroke-width:0.999994;stroke-linecap:round;stroke-linejoin:round;stroke-dashoffset:0.5"
     d="M 21.934521,13.845493 H 25.83444"
     id="path520" /><path
     style="opacity:1;fill:none;stroke:#ffffff;stroke-width:0.999994;stroke-linecap:round;stroke-linejoin:round;stroke-dashoffset:0.5"
     d="m 21.920278,15.299069 h 3.970505"
     id="path522" /><path
     style="opacity:1;fill:none;stroke:#ffffff;stroke-width:0.999994;stroke-linecap:round;stroke-linejoin:round;stroke-dashoffset:0.5"
     d="m 20.235076,30.677449 c -0.07478,6.007017 8.207268,4.48519 7.038768,0.0233 z"
     id="path524" /><ellipse
     style="opacity:1;fill:none;stroke:#ffffff;stroke-width:0.999994;stroke-linecap:round;stroke-linejoin:round;stroke-dashoffset:0.5"
     id="path526"
     cx="29.98646"
     cy="27.751394"
     rx="1.1896931"
     ry="1.8677888" /></svg>
