<?xml version="1.0" encoding="utf-8"?>
<svg viewBox="0 0 48 48" xmlns="http://www.w3.org/2000/svg">
  <defs>
    <style>.a{fill:none;stroke:#fff;stroke-linecap:round;stroke-linejoin:round;}</style>
  </defs>
  <g transform="matrix(0.1, 0, 0, -0.1, -227.834305, 280.221802)" fill="#000000" stroke="none">
    <path d="M 2556.387 2743.586 C 2598.025 2734.392 2634.273 2712.729 2660.059 2681.658 C 2669.676 2670.033 2681.83 2651.646 2680.138 2651.117 C 2679.609 2650.905 2630.891 2657.986 2571.817 2666.652 C 2512.742 2675.424 2485.62 2680.717 2484.986 2680.717 C 2484.459 2680.717 2472.575 2683.028 2472.575 2683.979 C 2472.575 2685.352 2483.138 2727.043 2487.048 2739.618 C 2488.105 2742.788 2486.314 2743.692 2495.826 2745.277 C 2503.117 2746.546 2504.605 2746.862 2521.514 2746.652 C 2541.169 2746.335 2545.926 2745.912 2556.387 2743.586 Z M 2462.332 2737.668 C 2462.332 2734.815 2385.361 2496.488 2384.093 2495.115 C 2383.461 2494.375 2346.273 2499.605 2345.639 2500.45 C 2343.632 2503.409 2339.11 2513.417 2336.362 2526.204 C 2334.249 2535.926 2334.038 2540.365 2334.038 2562.136 C 2334.038 2590.246 2335.199 2598.383 2343.021 2621.633 C 2360.247 2673.627 2401.567 2716.533 2452.821 2735.555 C 2461.698 2738.831 2462.332 2739.043 2462.332 2737.668 Z M 2656.23 2633.824 C 2673.774 2631.181 2688.359 2627.872 2688.781 2627.872 C 2690.472 2627.872 2696.94 2613.6 2700.323 2598.065 C 2702.436 2588.344 2702.648 2583.905 2702.648 2562.136 C 2702.648 2540.365 2702.436 2535.926 2700.323 2526.204 C 2690.494 2480.339 2665.872 2440.921 2630.363 2414.289 L 2621.381 2407.525 L 2620.429 2415.874 C 2619.901 2420.947 2620.218 2464.593 2621.275 2526.204 C 2622.226 2582.319 2622.965 2631.884 2622.965 2636.427 C 2622.965 2640.866 2622.379 2638.58 2622.696 2638.58 C 2623.013 2638.58 2638.688 2636.466 2656.23 2633.824 Z M 2377.578 2470.194 C 2388.991 2468.503 2444.156 2460.154 2500.06 2451.7 C 2556.07 2443.245 2597.065 2437.174 2597.7 2437.174 C 2598.334 2437.174 2599.155 2429.296 2599.155 2416.931 L 2599.155 2397.991 L 2584.562 2390.36 C 2572.091 2384.653 2568.647 2383.113 2554.062 2380.155 C 2543.6 2378.041 2539.056 2377.724 2517.815 2377.724 C 2496.679 2377.83 2492.028 2378.041 2482.411 2380.155 C 2441.513 2388.927 2405.265 2409.639 2379.691 2439.018 C 2369.123 2451.171 2353.8 2473.364 2356.018 2473.364 C 2356.441 2473.364 2366.164 2471.99 2377.578 2470.194 Z" style="fill: none; stroke-width: 10px; stroke: rgb(255, 255, 255); stroke-linejoin: round; stroke-linecap: round;"/>
  </g>
</svg>