<?xml version="1.0" encoding="UTF-8" standalone="no"?>
<svg
   viewBox="0 0 48 48"
   version="1.1"
   id="svg7085"
   sodipodi:docname="geoguessr.svg"
   inkscape:version="1.2.2 (b0a8486541, 2022-12-01)"
   xmlns:inkscape="http://www.inkscape.org/namespaces/inkscape"
   xmlns:sodipodi="http://sodipodi.sourceforge.net/DTD/sodipodi-0.dtd"
   xmlns="http://www.w3.org/2000/svg"
   xmlns:svg="http://www.w3.org/2000/svg">
  <sodipodi:namedview
     id="namedview7087"
     pagecolor="#ffffff"
     bordercolor="#666666"
     borderopacity="1.0"
     inkscape:showpageshadow="2"
     inkscape:pageopacity="0.0"
     inkscape:pagecheckerboard="0"
     inkscape:deskcolor="#d1d1d1"
     showgrid="false"
     inkscape:zoom="8"
     inkscape:cx="29.25"
     inkscape:cy="75.875"
     inkscape:window-width="1366"
     inkscape:window-height="702"
     inkscape:window-x="0"
     inkscape:window-y="0"
     inkscape:window-maximized="1"
     inkscape:current-layer="svg7085" />
  <defs
     id="defs7081">
    <style
       id="style7079">.a{fill:none;stroke:#fff;stroke-linecap:round;stroke-linejoin:round;}</style>
  </defs>
  <path
     class="a"
     d="m 24.000065,13.030601 a 7.3694812,7.3694812 0 0 0 -7.36948,7.369481 c 0,5.767369 5.626462,12.707494 7.100324,14.412038 a 0.4550625,0.4550625 0 0 0 0.640856,0.045 l 0.045,-0.045 c 1.454681,-1.710956 6.95295,-8.644669 6.95295,-14.412038 a 7.3694812,7.3694812 0 0 0 -7.36965,-7.369481 z m 0,9.368831 a 2.4992437,2.4992437 0 1 1 2.499188,-2.499187 v 0.0064 a 2.4991875,2.4991875 0 0 1 -2.499188,2.492831 z"
     id="path7083"
     style="stroke:#ffffff;stroke-width:1;stroke-opacity:1;stroke-dasharray:none" />
  <path
     style="fill:none;stroke:#ffffff;stroke-width:1;stroke-dasharray:none;stroke-opacity:1"
     id="path10110"
     sodipodi:type="arc"
     sodipodi:cx="26.938354"
     sodipodi:cy="51.844448"
     sodipodi:rx="28.697508"
     sodipodi:ry="27.928825"
     sodipodi:start="4.8520153"
     sodipodi:end="4.3807764"
     sodipodi:arc-type="arc"
     d="M 30.932275,24.187424 A 28.697508,27.928825 0 0 1 55.629033,52.453712 28.697508,27.928825 0 0 1 29.688889,79.644695 28.697508,27.928825 0 0 1 -1.1057427,57.770322 28.697508,27.928825 0 0 1 17.595359,25.437225"
     sodipodi:open="true" />
</svg>
