<?xml version="1.0" encoding="utf-8"?>
<!-- Generator: Adobe Illustrator 25.1.0, SVG Export Plug-In . SVG Version: 6.00 Build 0)  -->
<svg version="1.1"
	 id="Layer_1" xmlns:cc="http://creativecommons.org/ns#" xmlns:dc="http://purl.org/dc/elements/1.1/" xmlns:rdf="http://www.w3.org/1999/02/22-rdf-syntax-ns#"
	 xmlns="http://www.w3.org/2000/svg" xmlns:xlink="http://www.w3.org/1999/xlink" x="0px" y="0px" viewBox="0 0 48 48"
	 style="enable-background:new 0 0 48 48;" xml:space="preserve">
<style type="text/css">
	.st0{fill:none;stroke:#FFFFFF;stroke-linecap:round;stroke-linejoin:round;}
</style>
<g>
	<path class="st0" d="M33.7,24.5l3.5,1.6l-1.6,3.7 M11.9,26.4c0.9-2.7,2.2-4.9,3.9-6.9c1.1-1.3,2.5-2.4,4.1-3.1
		c2.4-1.1,7.4-2.7,9.9-1.2c1.2,1.1-1.1,2.8-3.3,5.9c-1.2,1.8-1.4,3.1-1.1,4.7c0.2,1,1.6,2.7,3.9,2.5c2.2,0,4-0.7,5.8-1.4
		c0.7-0.3,1.4-0.5,2-0.9 M17.6,21.7c2.3,2.7,2.3,6.7,0,9.4c-2.3,2.7-6.2,3.5-9.3,1.7c-3.1-1.7-4.6-5.4-3.5-8.8
		c1.1-3.4,4.5-5.5,8.1-5"/>
	<path class="st0" d="M28.7,25.9c0.5-3.5,3.5-6.2,7.1-6.3c3.6-0.1,6.7,2.3,7.5,5.8c0.8,3.5-1,7-4.3,8.4c-3.3,1.4-7.1,0.3-9.1-2.7"/>
	<path class="st0" d="M14,13.6c6-0.7,2.5,5.2,1.8,6"/>
</g>
</svg>
