<?xml version="1.0" encoding="UTF-8" standalone="no"?>
<!-- Created with Inkscape (http://www.inkscape.org/) -->

<svg
   width="48"
   height="48"
   viewBox="0 0 48 48"
   version="1.1"
   id="svg5"
   inkscape:version="1.1.1 (3bf5ae0d25, 2021-09-20)"
   sodipodi:docname="getflow.svg"
   xmlns:inkscape="http://www.inkscape.org/namespaces/inkscape"
   xmlns:sodipodi="http://sodipodi.sourceforge.net/DTD/sodipodi-0.dtd"
   xmlns="http://www.w3.org/2000/svg"
   xmlns:svg="http://www.w3.org/2000/svg">
  <sodipodi:namedview
     id="namedview7"
     pagecolor="#505050"
     bordercolor="#eeeeee"
     borderopacity="1"
     inkscape:pageshadow="0"
     inkscape:pageopacity="0"
     inkscape:pagecheckerboard="0"
     inkscape:document-units="px"
     showgrid="false"
     units="px"
     inkscape:snap-object-midpoints="true"
     inkscape:object-paths="true"
     inkscape:zoom="16"
     inkscape:cx="19.71875"
     inkscape:cy="22.78125"
     inkscape:window-width="1914"
     inkscape:window-height="1055"
     inkscape:window-x="0"
     inkscape:window-y="19"
     inkscape:window-maximized="1"
     inkscape:current-layer="layer1" />
  <defs
     id="defs2">
    <style
       id="style885">.a{fill:none;stroke:#fff;stroke-linecap:round;stroke-linejoin:round;}</style>
  </defs>
  <g
     inkscape:label="Layer 1"
     inkscape:groupmode="layer"
     id="layer1">
    <path
       id="circle889"
       class="a"
       style="fill:none;stroke:#ffffff;stroke-linecap:round;stroke-linejoin:round"
       d="M 43.92601,15.909977 C 44.940913,18.407223 45.5,21.138321 45.5,24 45.5,35.874122 35.874122,45.5 24,45.5 12.125878,45.5 2.5,35.874122 2.5,24 2.5,12.125878 12.125878,2.5 24,2.5 c 3.031525,0 5.916508,0.627422 8.532178,1.7594947"
       sodipodi:nodetypes="cssssc" />
    <path
       id="circle897"
       class="a"
       style="fill:none;stroke:#ffffff;stroke-width:1;stroke-linecap:round;stroke-linejoin:round"
       d="M 33.31668,19.152852 C 34.072641,20.602915 34.5,22.251549 34.5,24 34.5,29.79899 29.79899,34.5 24,34.5 18.20101,34.5 13.5,29.79899 13.5,24 c 0,-5.79899 4.70101,-10.5 10.5,-10.5 1.752056,0 3.403886,0.429124 4.856117,1.188001"
       sodipodi:nodetypes="cssssc" />
    <path
       id="circle998"
       class="a"
       style="fill:none;stroke:#ffffff;stroke-linecap:round;stroke-linejoin:round"
       d="m 27.094511,24 c 0,1.709051 -1.38546,3.094511 -3.094511,3.094511 -1.709051,0 -3.094511,-1.38546 -3.094511,-3.094511 0,-1.709051 1.38546,-3.094511 3.094511,-3.094511"
       sodipodi:nodetypes="cssc" />
    <path
       style="fill:none;stroke:#ffffff;stroke-width:1px;stroke-linecap:round;stroke-linejoin:miter;stroke-opacity:1"
       d="M 24,24 40.429034,7.5709657"
       id="path1033" />
    <path
       style="fill:none;stroke:#ffffff;stroke-width:1px;stroke-linecap:round;stroke-linejoin:round;stroke-opacity:1"
       d="M 32.750205,15.174182 V 9.1147211 l 7.678829,-7.6788289 v 6.1350735"
       id="path1857" />
    <path
       style="fill:none;stroke:#ffffff;stroke-width:1px;stroke-linecap:round;stroke-linejoin:round;stroke-opacity:1"
       d="m 32.825817,15.249794 h 6.059461 l 7.67883,-7.6788283 h -6.135074"
       id="path1993" />
  </g>
</svg>
