<svg viewBox="0 0 48 48" xmlns="http://www.w3.org/2000/svg">
    <style>
        .a{fill:none;stroke:#FFFFFF;stroke-linecap:round;stroke-linejoin:round}
    </style>
    <path class="a" d="M25.1599998,27.4699993c0.0900002,0.3900013,0.1300011,0.7900009,0.1300011,1.2000008 c0,3.289999-2.6700001,5.9499989-5.960001,5.9499989s-5.9499998-2.6599998-5.9499998-5.9499989 c0-3.2999992,2.6600008-5.960001,5.9499998-5.960001c0.4099998,0,0.8099995,0.0400009,1.2000008,0.1300011"/>
    <path class="a" d="M33.1690941,29.430851v0.5839424c0,0.837698-0.6821938,1.5198936-1.5198917,1.5198936h-0.3912601 c-1.8459454,0-2.7689171,2.2321892-1.4647179,3.5363884l0.2758884,0.2758865c0.5919075,0.5919075,0.5919075,1.5550079,0,2.1519318 l-1.9061375,1.9011192c-0.5919056,0.5969238-1.555006,0.5969238-2.1519299,0l-0.2758865-0.2758865 c-1.3042011-1.3041992-3.5363884-0.3812294-3.5363884,1.4647141v0.3912621c0,0.8376961-0.6821957,1.5198936-1.5198936,1.5198936 h-2.6936741c-0.837698,0-1.5198936-0.6821976-1.5198936-1.5198936v-0.3912621c0-1.8459435-2.2321882-2.7689133-3.5363874-1.4647141 l-0.2758884,0.2758865c-0.5919065,0.5969238-1.555007,0.5969238-2.1519299,0l-1.9011211-1.9011192 c-0.5969219-0.5969238-0.5969219-1.5600243,0-2.1519318l0.2758884-0.2758865 c1.3041992-1.3041992,0.3812275-3.5363884-1.4647169-3.5363884H7.0198941C6.1771808,31.534687,5.5,30.8524914,5.5,30.0147934 v-2.6936741c0-0.837698,0.6821966-1.5198936,1.5198941-1.5198936h0.396276c1.8459444,0,2.7689161-2.2321873,1.4647169-3.5363865 l-0.2809048-0.2809048c-0.5969219-0.5919075-0.5969219-1.5550079,0-2.1469135l1.9011211-1.9061375 c0.5969229-0.5919075,1.5600233-0.5919075,2.1519299,0l0.2758884,0.2758884 c1.3041992,1.3041992,3.5363874,0.3812275,3.5363874-1.4647179v-0.3912601c0-0.8376961,0.6821957-1.5198936,1.5198936-1.5198936 h0.5999031"/>
    <circle class="a" cx="31.3767109" cy="16.6226521" r="4.7876649"/>
    <path class="a" d="M42.5,15.5412397v2.1655149c0,0.6748219-0.5470505,1.2218723-1.2218704,1.2218723h-0.3158684 c-1.4831924,0-2.2259789,1.7932434-1.1772041,2.84202l0.2227859,0.2227859c0.4758453,0.4758472,0.4758453,1.250103,0,1.7299862 l-1.5324173,1.5283546c-0.4758453,0.4798832-1.2500992,0.4798832-1.7299843,0l-0.2227592-0.2227612 c-1.0487785-1.0487766-2.8420219-0.3059902-2.8420219,1.1772041v0.3158417c0,0.6748219-0.5470505,1.2218723-1.2218704,1.2218723 h-2.1655407c-0.6748352,0-1.2218971-0.5470619-1.2218971-1.2218971v-0.3158169c0-1.4831944-1.7932434-2.2259808-2.84202-1.1772041 l-0.2227612,0.2227612c-0.4758472,0.4798832-1.250103,0.4798832-1.7299862,0l-1.5283794-1.5283546 c-0.4798832-0.4798832-0.4798832-1.2541389,0-1.7299862l0.2227859-0.2227859 c1.0487766-1.0487766,0.3059902-2.84202-1.1772041-2.84202h-0.3158417c-0.6774788,0-1.2218971-0.5484314-1.2218971-1.2218723 v-2.1655149c0-0.6748343,0.5470619-1.2218962,1.2218971-1.2218962h0.3198566c1.4831963,0,2.2259808-1.793251,1.1771984-2.8420258 l-0.2267952-0.2267923c-0.4798832-0.4758463-0.4798832-1.250103,0-1.7259741l1.5283794-1.5323906 c0.4798832-0.4758468,1.2541389-0.4758468,1.7299862,0l0.2227554,0.2227583 c1.0487747,1.0487823,2.8420258,0.3059978,2.8420258-1.1771994V6.7218995c0-0.6748343,0.5470619-1.2218957,1.2218971-1.2218957 h2.165514c0.6748352,0,1.2218971,0.5470614,1.2218971,1.2218957v0.3158202c0,1.4831972,1.793251,2.2259817,2.8420258,1.1771994 l0.2227554-0.2227583c0.4798851-0.4758468,1.2541389-0.4758468,1.7299843,0l1.5324135,1.5323877 c0.4766197,0.4766121,0.4766235,1.249362,0.0000038,1.7259769l-0.2267952,0.2267923 c-1.0487823,1.0487747-0.3059959,2.8420258,1.1772003,2.8420258h0.3198547C41.9515457,14.3193436,42.5,14.8637629,42.5,15.5412397z"/>
</svg>
