<svg version="1.1" viewBox="0 0 48 48" xmlns="http://www.w3.org/2000/svg"><defs><style>.a{fill:none;stroke:#fff;stroke-linecap:round;stroke-linejoin:round;}</style></defs><circle class="a" cx="24" cy="24" r="21.5"/><g fill="none" stroke="#fff" stroke-linecap="round" stroke-linejoin="round" stroke-miterlimit="10"><path class="st0" d="m5.8999 26.289c0 2.5437 2.035 4.5787 4.5787 4.5787 2.5437 0 4.4091-2.035 4.4091-4.5787v-4.5787c0-2.5437-2.035-4.5787-4.4091-4.5787-2.3742 0-4.5787 2.035-4.5787 4.5787z"/><line class="st3" x1="13.87" x2="7.087" y1="18.828" y2="29.172"/><path class="st0" d="m21.278 26.289c0 2.5437 2.035 4.5787 4.5787 4.5787 2.5437 0 4.4091-2.035 4.4091-4.5787v-4.5787c0-2.5437-2.035-4.5787-4.4091-4.5787s-4.5787 2.035-4.5787 4.5787z"/><line class="st3" x1="29.248" x2="22.465" y1="18.828" y2="29.172"/><path class="st0" d="m33.112 26.289c0 2.5437 2.035 4.5787 4.5787 4.5787 2.5437 0 4.4091-2.035 4.4091-4.5787v-4.5787c0-2.5437-2.035-4.5787-4.4091-4.5787s-4.5787 2.035-4.5787 4.5787z"/><line class="st3" x1="41.083" x2="34.299" y1="18.828" y2="29.172"/></g><circle class="st1" cx="18.188" cy="28.181" r=".5" fill="#fff"/><circle class="st1" cx="18.188" cy="19.819" r=".5" fill="#fff"/></svg>
