<?xml version="1.0" encoding="UTF-8"?>
<svg version="1.1" viewBox="0 0 48 48" xmlns="http://www.w3.org/2000/svg">
 <defs>
  <style>.a{fill:none;stroke:#fff;stroke-linecap:round;stroke-linejoin:round;}</style>
 </defs>
 <path class="a" d="m40.5 5.5h-33a2 2 0 0 0-2 2v33a2 2 0 0 0 2 2h33a2 2 0 0 0 2-2v-33a2 2 0 0 0-2-2z"/>
 <g transform="matrix(1.4495 0 0 1.4339 -163.73 -161.92)" enable-background="new 0 0 380 200" fill="none" stroke="#fff" stroke-linecap="round" stroke-linejoin="round" stroke-miterlimit="10" stroke-width=".69364">
  <path class="st0" d="m123.6 121.2v6c0 1.1-0.9 2-2 2-0.6 0-1.1-0.2-1.4-0.6"/>
  <path class="st0" d="m121.6 121.2c1.1 0 2 0.9 2 2v1.3c0 1.1-0.9 2-2 2s-2-0.9-2-2v-1.3c0-1.1 0.9-2 2-2z"/>
 </g>
 <g transform="matrix(1.4495 0 0 1.4339 -185.46 -161.92)" enable-background="new 0 0 380 200" stroke-width=".69364">
  <circle class="st1" cx="141.2" cy="118.8" r=".8" fill="#fff"/>
  <line class="st0" x1="141.2" x2="141.2" y1="121.2" y2="126.5" fill="none" stroke="#fff" stroke-linecap="round" stroke-linejoin="round" stroke-miterlimit="10"/>
 </g>
 <path class="st0" d="m36.407 38.79c-0.43485 0.86032-1.4495 1.4339-2.4642 1.4339-1.5945 0-2.899-1.2905-2.899-2.8677v-1.864c0-1.5772 1.3046-2.8677 2.899-2.8677 1.5945 0 2.899 1.2905 2.899 2.8677v1.0037h-5.798" enable-background="new 0 0 380 200" fill="none" stroke="#fff" stroke-linecap="round" stroke-linejoin="round" stroke-miterlimit="10"/>
 <path class="st0" d="m10.949 28.753v10.037c0 0.86032 0.5798 1.4339 1.4495 1.4339h0.43485" enable-background="new 0 0 380 200" fill="none" stroke="#fff" stroke-linecap="round" stroke-linejoin="round" stroke-miterlimit="10"/>
 <g transform="matrix(1.4495 0 0 1.4339 -53.238 -161.92)" enable-background="new 0 0 380 200" stroke-width=".69364">
  <g>
   <path class="st0" d="m63.2 124.5c0 1.1-0.9 2-2 2s-2-0.9-2-2v-1.3c0-1.1 0.9-2 2-2s2 0.9 2 2" fill="none" stroke="#fff" stroke-linecap="round" stroke-linejoin="round" stroke-miterlimit="10" stroke-width=".69364"/>
  </g>
  <line class="st0" x1="63.2" x2="63.2" y1="126.5" y2="121.2" fill="none" stroke="#fff" stroke-linecap="round" stroke-linejoin="round" stroke-miterlimit="10"/>
 </g>
 <g transform="matrix(1.4495 0 0 1.4339 -236.05 -141.16)" enable-background="new 0 0 380 200" stroke-width=".69364">
  <g transform="translate(69.009)">
   <g stroke-width=".69364">
    <path class="st0" d="m110.3 126.5v-6.6c0-0.8 0.6-1.4 1.4-1.4 0.7 0 1.1 0.2 1.4 0.6" fill="none" stroke="#fff" stroke-linecap="round" stroke-linejoin="round" stroke-miterlimit="10" stroke-width=".69364"/>
   </g>
  </g>
  <line class="st0" x1="178.21" x2="181.01" y1="121.2" y2="121.2" fill="none" stroke="#fff" stroke-linecap="round" stroke-linejoin="round" stroke-miterlimit="10"/>
 </g>
 <g transform="matrix(1.4495 0 0 1.4339 -150.37 -161.92)" enable-background="new 0 0 380 200" fill="none" stroke="#fff" stroke-linecap="round" stroke-linejoin="round" stroke-miterlimit="10" stroke-width=".69364">
  <path class="st0" d="m123.6 121.2v6c0 1.1-0.9 2-2 2-0.6 0-1.1-0.2-1.4-0.6"/>
  <path class="st0" d="m121.6 121.2c1.1 0 2 0.9 2 2v1.3c0 1.1-0.9 2-2 2s-2-0.9-2-2v-1.3c0-1.1 0.9-2 2-2z"/>
 </g>
 <g transform="matrix(1.4495 0 0 1.4339 -187.12 -141.16)" enable-background="new 0 0 380 200" stroke-width=".69364">
  <circle class="st1" cx="141.2" cy="118.8" r=".8" fill="#fff"/>
  <line class="st0" x1="141.2" x2="141.2" y1="121.2" y2="126.5" fill="none" stroke="#fff" stroke-linecap="round" stroke-linejoin="round" stroke-miterlimit="10"/>
 </g>
</svg>
