<?xml version="1.0" encoding="UTF-8"?>
<svg version="1.1" viewBox="0 0 48 48" xmlns="http://www.w3.org/2000/svg">
 <defs>
  <style>.a{fill:none;stroke:#fff;stroke-linecap:round;stroke-linejoin:round;}</style>
 </defs>
 <path class="a" d="m42.564 22.939-17.503-17.503a1.5002 1.5002 0 0 0-2.1216 0l-17.503 17.503a1.5002 1.5002 0 0 0 0 2.1216l17.503 17.503a1.5002 1.5002 0 0 0 2.1216 0l17.503-17.503a1.5002 1.5002 0 0 0 0-2.1216z"/>
 <path class="a" d="m23.014 19.382a1.7536 1.7516 0 1 1 1.7536-1.7516 1.7535 1.7515 0 0 1-1.7536 1.7516z" fill="none" stroke="#fff" stroke-linecap="round" stroke-linejoin="round"/>
 <path class="a" d="m23.014 34.473a1.7536 1.7516 0 1 1 1.7536-1.7516 1.7535 1.7515 0 0 1-1.7536 1.7516z" fill="none" stroke="#fff" stroke-linecap="round" stroke-linejoin="round"/>
 <path class="a" d="m31.758 28.955a1.7536 1.7516 0 1 1 1.7536-1.7516 1.7535 1.7515 0 0 1-1.7536 1.7516z" fill="none" stroke="#fff" stroke-linecap="round" stroke-linejoin="round"/>
 <path d="m18.398 13.527 3.1485 3.1449" fill="none" stroke="#fff" stroke-linecap="round" stroke-linejoin="round"/>
 <path d="m23.974 19.097 6.5412 6.5336" fill="none" stroke="#fff" stroke-linecap="round" stroke-linejoin="round"/>
 <path d="m23.014 19.633v11.001" fill="none" stroke="#fff" stroke-linecap="round" stroke-linejoin="round"/>
</svg>
