<?xml version="1.0" encoding="UTF-8"?>
<svg width="48" height="48" version="1.1" viewBox="0 0 48 48" xml:space="preserve" xmlns="http://www.w3.org/2000/svg"><defs><style>.a{fill:none;stroke:#fff;stroke-linecap:round;stroke-linejoin:round;}</style></defs><g transform="matrix(.97553864 0 0 .97553864 .52393373 .38983531)" fill="none" stroke="#fff" stroke-linecap="round" stroke-linejoin="round" stroke-width="1.02507472"><path d="m40.50801 17.237585c-0.212376 0.854773-0.565793 1.654417-0.904404 2.463719l1.957047-0.677617 1.114046 0.659391-0.390158 1.141022 1.044469-0.279804 1.073905 0.969684-0.769362 1.175228 1.394461-0.155339 1.304983 1.469222-1.304983 1.469221-1.394461-0.155339 0.769362 1.175228-1.073905 0.969684-1.044469-0.279804 0.390158 1.141022-1.114046 0.659391-1.957047-0.677913c0.385975 0.790796 0.646571 1.620354 0.904404 2.457834-0.925191 0.347022-1.756309 0.870458-2.606072 1.365655l1.862989 0.904693 0.32149 1.25401-1.082708 0.530941 0.936402 0.540699 0.0737 1.445036-1.375033 0.286991 1.095874 0.876191-0.116134 1.961659-1.961659 0.116134-0.876191-1.095874-0.286991 1.375032-1.445036-0.0737-0.540699-0.936397-0.530941 1.082708-1.25401-0.32149-0.904484-1.863198c-0.314202 0.78843-0.657778 1.563986-1.001388 2.339821-0.854773-0.212376-1.654417-0.565793-2.463719-0.904404l0.677617 1.957047-0.659391 1.114046-1.141022-0.390159 0.279804 1.04447-0.969684 1.073905-1.175228-0.769362 0.155339 1.394461-1.469222 1.304983-1.469221-1.304983 0.155339-1.394461-1.175228 0.769362-0.969684-1.073905 0.279804-1.04447-1.141022 0.390159-0.659391-1.114046 0.677913-1.957047c-0.790796 0.385975-1.620354 0.646571-2.457834 0.904404-0.35291-0.772596-0.678737-1.556751-1.007384-2.339821l-0.904484 1.863198-1.254009 0.32149-0.530941-1.082708-0.5407 0.936402-1.445036 0.0737-0.286991-1.375037-0.876191 1.095874-1.961658-0.116134-0.1161345-1.961659 1.095874-0.876191-1.3750327-0.286991 0.073695-1.445036 0.9364025-0.540699-1.0827078-0.530941 0.3214896-1.25401 1.8629889-0.904693c-0.8139273-0.553004-1.6852514-0.969364-2.5800358-1.365655 0.2112291-0.853374 0.5651776-1.650677 0.904404-2.457834l-1.957047 0.677913-1.114046-0.659391 0.390158-1.141022-1.044469 0.279804-1.073905-0.969684 0.769362-1.175228-1.394461 0.155339-1.304983-1.469221 1.304983-1.469222 1.394461 0.155339-0.769362-1.175228 1.073905-0.969684 1.044469 0.279804-0.390158-1.141022 1.114046-0.659391 1.957047 0.677617c-0.3847257-0.793212-0.6460604-1.624581-0.904404-2.463719 0.8221629-0.42314 1.7031805-0.68003 2.5796358-0.961289l-1.8629894-0.904693-0.3214896-1.25401 1.0827078-0.530941-0.9364025-0.540699-0.073695-1.445036 1.3750327-0.286991-1.095874-0.876191 0.1161345-1.9616594 1.9616585-0.1161338 0.876191 1.0958741 0.286991-1.3750328 1.445036 0.073695 0.5407 0.9364024 0.530941-1.0827078 1.254009 0.3214896 0.904484 1.8631987c0.319594-0.7869866 0.663475-1.5633099 1.007384-2.3398211 0.853374 0.2112294 1.650677 0.5651779 2.457834 0.9044043l-0.677913-1.9570473 0.659391-1.1140462 1.141022 0.3901589-0.279804-1.0444697 0.969684-1.0739051 1.175228 0.7693622-0.155339-1.3944612 1.469221-1.3049828 1.469222 1.3049828-0.155339 1.3944612 1.175228-0.7693622 0.969684 1.0739051-0.279804 1.0444697 1.141022-0.3901589 0.659391 1.1140462-0.677617 1.9570473c0.793212-0.3847256 1.624581-0.6460605 2.463719-0.9044043 0.354491 0.7711202 0.676241 1.5561019 1.001388 2.3398211l0.904484-1.8631982 1.25401-0.3214896 0.530941 1.0827078 0.540699-0.9364025 1.445036-0.073695 0.286991 1.3750327 0.876191-1.0958741 1.961659 0.1161339 0.116134 1.961659-1.095874 0.876191 1.375033 0.286991-0.0737 1.445036-0.936402 0.540699 1.082708 0.530941-0.32149 1.25401-1.862989 0.904693c0.907587 0.226609 1.755528 0.584414 2.606472 0.961289z" stop-color="#000000"/><circle cx="24" cy="24" r="13.687807" stop-color="#000000"/><circle cx="24" cy="24" r="11.236709" stop-color="#000000"/></g></svg>
