<?xml version="1.0" encoding="UTF-8" standalone="no"?>
<!-- Created with Inkscape (http://www.inkscape.org/) -->

<svg
   width="48"
   height="48"
   viewBox="0 0 48 48"
   version="1.1"
   id="svg5"
   inkscape:version="1.1.2 (0a00cf5339, 2022-02-04, custom)"
   sodipodi:docname="Glovo.svg"
   xmlns:inkscape="http://www.inkscape.org/namespaces/inkscape"
   xmlns:sodipodi="http://sodipodi.sourceforge.net/DTD/sodipodi-0.dtd"
   xmlns="http://www.w3.org/2000/svg"
   xmlns:svg="http://www.w3.org/2000/svg">
  <sodipodi:namedview
     id="namedview7"
     pagecolor="#ffffff"
     bordercolor="#999999"
     borderopacity="1"
     inkscape:pageshadow="0"
     inkscape:pageopacity="0"
     inkscape:pagecheckerboard="0"
     inkscape:document-units="px"
     showgrid="false"
     units="px"
     width="48px"
     showguides="true"
     inkscape:guide-bbox="true"
     inkscape:snap-object-midpoints="true"
     inkscape:snap-nodes="false"
     inkscape:zoom="5.12"
     inkscape:cx="56.054688"
     inkscape:cy="26.074219"
     inkscape:window-width="1920"
     inkscape:window-height="1141"
     inkscape:window-x="0"
     inkscape:window-y="24"
     inkscape:window-maximized="1"
     inkscape:current-layer="layer1" />
  <defs
     id="defs2">
    <style
       id="style1183">.a{fill:none;stroke:#fff;stroke-linecap:round;stroke-linejoin:round;}</style>
  </defs>
  <g
     inkscape:label="Livello 1"
     inkscape:groupmode="layer"
     id="layer1">
    <path
       id="path47"
       d="m 23.980802,2.5008728 c -7.44826,0 -13.480371,6.0439094 -13.480371,13.5076132 0,2.840335 0.871841,5.570408 2.543026,7.864552 l 0.363404,0.509426 7.013189,9.94073 c 0,0 0.872702,1.418891 2.725577,1.418891 h 1.707885 c 1.853745,0 2.725577,-1.418891 2.725577,-1.418891 l 7.012344,-9.94073 0.364274,-0.509426 C 36.627738,21.542971 37.499569,18.84882 37.499569,16.009327 37.462802,8.5439423 31.430776,2.5000005 23.980802,2.5000005 m 5.559529,17.5129805 -0.363404,0.509426 -5.160304,7.318362 -5.195256,-7.318362 -0.364274,-0.54619 c -0.836011,-1.200924 -1.307756,-2.548871 -1.307756,-4.004493 a 6.8237959,6.8371459 0 0 1 6.831465,-6.8448287 6.8237959,6.8371459 0 0 1 6.831499,6.8448287 6.9892934,7.0029672 0 0 1 -1.27197,4.041257 m -9.338662,21.80981 c 0,-2.038575 1.59951,-3.713906 3.743312,-3.713906 2.180458,0 3.74332,1.638567 3.74332,3.677141 v 0.03683 c 0,2.002683 -1.599519,3.677144 -3.779141,3.677144 -2.144672,-0.03586 -3.706655,-1.675332 -3.706655,-3.677144"
       inkscape:connector-curvature="0"
       style="fill:none;fill-rule:nonzero;stroke:#ffffff;stroke-width:1;stroke-miterlimit:4;stroke-dasharray:none" />
  </g>
</svg>
