<?xml version="1.0" encoding="UTF-8"?>
<svg width="48" height="48" version="1.1" viewBox="0 0 48 48" xmlns="http://www.w3.org/2000/svg">
 <defs>
  <style>.a{fill:none;stroke:#fff;stroke-linecap:round;stroke-linejoin:round;}</style>
 </defs>
 <g fill="none" stroke="#fff">
  <path d="m44.02 14.987c-8.1363 0.22098-12.135 4.5994-13.699 8.3163-1.8615 4.806-4.9953 6.7226-6.7336 7.6143 2.7397 1.8669 5.1233 3.2353 5.1413 3.1258 0 0 5.5609-3.3458 6.304-9.384 0.74317-6.0383 8.9875-9.6724 8.9875-9.6724zm-9.5168 1.0776c-4.1061 0.65576-7.1865 3.808-8.4386 5.67-2.032 3.1385-4.5931 4.9081-6.688 5.9715 0.90326 0.75156 1.8879 1.4068 2.8527 2.124 0.97507-0.45148 2.9697-1.501 4.677-4.0107 0.55968-0.82273 1.0882-1.8023 1.5402-2.9693 1.2008-3.1001 3.7369-5.2909 6.0567-6.7855zm-6.1912 1.0958c-2.3553 0.68689-5.1907 1.8676-7.2173 4.3551-1.3871 1.7025-2.9187 2.786-4.3907 3.6432 0.48746 0.4269 0.96294 0.87746 1.4122 1.3578 1.8639-0.87658 4.1865-2.3706 6.2042-5.4871 1.0615-1.6395 2.4838-2.8556 3.9915-3.869zm-4.5924 0.16973c-0.23286 0.02867-0.47009 0.05373-0.70504 0.08074-1.8586 0.50594-3.9386 1.2998-5.4276 2.7106-1.345 1.2743-2.7748 2.0528-4.1347 2.6562 0.62855 0.38711 1.2668 0.81616 1.8982 1.2885 1.3351-0.75818 2.7619-1.7524 4.0957-3.3895 1.2016-1.4748 2.718-2.5084 4.2736-3.3466zm-5.6684 0.51079c-6.5694 0.65642-8.4779 0.26653-12.137 1.3485-1.1274 0.73091 0.17454 0.93734 1.6097 0.8441 0.73089 0.0035 1.6219-0.40489 2.4687-0.4151 0.71685 0.02304 2.4322 0.0061 1.8863 0.41327-0.35541 0.26509-1.4643 0.92461-1.4677 1.1904-0.0022 0.19313 0.80754 0.31764 1.2994 0.5718 1.3518-0.50954 2.9074-1.2776 4.3712-2.6644 0.57882-0.5484 2.8251-1.374 1.9697-1.2886z" fill="none" stroke="#fffffe" stroke-linecap="round" stroke-linejoin="round"/>
 </g>
</svg>
