<svg xmlns="http://www.w3.org/2000/svg" viewBox="0 0 48 48">
  <defs><style>.a{fill:none;stroke:#fff;stroke-linecap:round;stroke-linejoin:round;}</style></defs>
  <path class="a"
     d="m 36.117636,13.499069 c 1.883787,2.684726 2.98945,5.955232 2.98945,9.48398 0,6.210232 -3.4245,11.62063 -8.488146,14.445839 m -4.770683,1.761201 c -1.057655,0.212359 -2.15181,0.323777 -3.271988,0.323777 -2.834984,0 -5.503287,-0.713646 -7.835064,-1.971092 M 6.1699951,25.022345 c -0.082211,-0.668242 -0.124543,-1.348825 -0.124543,-2.039296 0,-9.129718 7.4010989,-16.5308166 16.5308169,-16.5308166 2.372571,0 4.628402,0.4998273 6.667937,1.399928"
     />
  <path class="a"
     d="m 37.358428,10.31331 c 0,2.160877 -1.60683,3.946459 -3.69083,4.227085 -2.09719,0.294607 -8.186304,5.820986 -11.704403,7.816849 3.480302,-3.595913 6.932293,-9.360318 6.864312,-12.043934 -0.03596,-2.4636123 1.909711,-4.2654603 4.26546,-4.2654603 2.355749,0 4.26546,1.9097117 4.26546,4.2654603 z"
     />
  <path class="a"
     d="m 20.282545,29.712364 c 0.200264,3.933205 12.556995,9.297909 17.322955,10.402494 -11.43577,0.236787 -18.905325,-3.553276 -23.38878,-2.854624 -0.579108,0.09024 -1.090807,0.178967 -1.661012,0.178967 -4.2674142,0 -7.7268369,-3.459423 -7.7268367,-7.726837 4e-7,-4.267414 3.4594229,-7.726836 7.7268367,-7.726836 4.267414,0 7.726837,3.459422 7.726837,7.726836 z"
     />
</svg>
