<?xml version="1.0" encoding="UTF-8"?>
<svg version="1.1" viewBox="0 0 48 48" xml:space="preserve" xmlns="http://www.w3.org/2000/svg"><defs><style>.a{fill:none;stroke:#fff;stroke-linecap:round;stroke-linejoin:round;}</style><style>.a{fill:none;stroke:#fff;stroke-linecap:round;stroke-linejoin:round;}</style><style>.a{fill:none;stroke:#fff;stroke-linecap:round;stroke-linejoin:round;}</style><style>.a{fill:none;stroke:#fff;stroke-linecap:round;stroke-linejoin:round;}</style><style>.a{fill:none;stroke:#fff;stroke-linecap:round;stroke-linejoin:round;}</style><style>.a{fill:none;stroke:#fff;stroke-linecap:round;stroke-linejoin:round;}</style><style>.a{fill:none;stroke:#fff;stroke-linecap:round;stroke-linejoin:round;}</style><style>.a{fill:none;stroke:#fff;stroke-linecap:round;stroke-linejoin:round;}</style></defs><path class="a" d="m40.5 5.5h-33a2 2 0 0 0-2 2v33a2 2 0 0 0 2 2h33a2 2 0 0 0 2-2v-33a2 2 0 0 0-2-2z"/><g transform="translate(-162.05,-20.7)">
		<polyline class="st5" points="183.4 48.7 183.4 40.7 188.7 48.7 188.7 40.7" fill="none" stroke="#fff" stroke-linecap="round" stroke-linejoin="round" stroke-miterlimit="10"/>
	</g><path class="st5" d="m35.301 25.3v0c0 1.5-1.2 2.7-2.7 2.7v0c-1.5 0-2.7-1.2-2.7-2.6v-2.7c0-1.5 1.2-2.7 2.7-2.6v0c1.5 0 2.6 1.2 2.6 2.6v0" fill="none" stroke="#fff" stroke-linecap="round" stroke-linejoin="round" stroke-miterlimit="10"/><path class="st5" d="m18.099 22.6c0-1.5-1.2-2.7-2.7-2.7v0c-1.5 0-2.7 1.2-2.7 2.7v2.7c0 1.5 1.2 2.6 2.7 2.6v0c1.5 0 2.7-1.2 2.7-2.6h-2.7" fill="none" stroke="#fff" stroke-linecap="round" stroke-linejoin="round" stroke-miterlimit="10"/><path id="cedille_00000157996995818933032650000000437546892862307224_" class="st5" d="m32.601 28-0.5 1.1h0.5c0.4 0 0.8 0.3 0.8 0.8 0 0.4-0.3 0.8-0.8 0.8h-1.1" fill="none" stroke="#fff" stroke-linecap="round" stroke-linejoin="round" stroke-miterlimit="10"/></svg>
