<?xml version="1.0" encoding="utf-8"?>
<!-- Generator: Adobe Illustrator 27.9.0, SVG Export Plug-In . SVG Version: 6.00 Build 0)  -->
<svg version="1.1" id="Layer_1" xmlns="http://www.w3.org/2000/svg" xmlns:xlink="http://www.w3.org/1999/xlink" x="0px" y="0px"
	 viewBox="0 0 48 48" style="enable-background:new 0 0 48 48;" xml:space="preserve">
<style type="text/css">
	.st0{fill:none;stroke:#FFFFFF;stroke-linecap:round;stroke-linejoin:round;}
</style>
<path class="st0" d="M20.2,9.9l-8.9-5.2c-0.7-0.4-1.7-0.2-2.1,0.6C9,5.5,8.9,5.8,8.9,6.1v35.9c0,0.9,0.7,1.6,1.6,1.6
	c0.3,0,0.5-0.1,0.8-0.2l31.1-17.9c0.7-0.4,1-1.4,0.6-2.1c-0.1-0.2-0.3-0.4-0.6-0.6l-2.7-1.6"/>
<path class="st0" d="M26.9,34.2H15.4c-0.9,0-1.6-0.7-1.6-1.6c0,0,0,0,0,0V9.9h25.8v17.1"/>
<line class="st0" x1="13.8" y1="15.2" x2="39.6" y2="15.2"/>
<circle class="st0" cx="19.5" cy="26.8" r="1.6"/>
<circle class="st0" cx="24.8" cy="21.6" r="1.6"/>
<circle class="st0" cx="28.5" cy="25.3" r="1.6"/>
<circle class="st0" cx="34.1" cy="19.7" r="1.6"/>
<line class="st0" x1="33" y1="20.8" x2="29.6" y2="24.2"/>
<line class="st0" x1="25.9" y1="22.7" x2="27.4" y2="24.2"/>
<line class="st0" x1="20.6" y1="25.7" x2="23.7" y2="22.7"/>
</svg>
