<svg viewBox="0 0 48 48" xmlns="http://www.w3.org/2000/svg"><defs><style>.a{fill:none;stroke:#fff;stroke-linecap:round;stroke-linejoin:round;}</style></defs><path class="a" d="m24 4.5a16.24 16.24 0 0 0-16.24 16.24c0 8.51 7.74 15.58 16.24 16.18v6.58c8-2.23 16.24-12.47 16.24-22.76s-7.24-16.24-16.24-16.24z"/><path class="a" d="m32.575 24.248a30.689 30.689 0 0 1-3.1184-0.54943 1.5394 1.5394 0 0 0-1.485 0.28709c-0.26234 0.26729-1.0197 1.0147-1.8067 1.7869a14.201 14.201 0 0 1-6.4843-6.4892c0.76723-0.78703 1.485-1.5394 1.777-1.8017a1.5394 1.5394 0 0 0 0.28709-1.485 30.61 30.61 0 0 1-0.54943-3.1234 0.98997 0.98997 0 0 0-1.1385-0.87612h-4.2173a0.74248 0.74248 0 0 0-0.67318 0.67813c-0.27224 3.8064 1.8512 7.8802 2.2819 8.6622v0.0297l0.0594 0.11385v0a17.542 17.542 0 0 0 6.4348 6.4348v0l0.21779 0.12375v0c0.98997 0.52468 4.9251 2.5046 8.6028 2.2324a0.74248 0.74248 0 0 0 0.68803-0.67318v-4.2123a0.98997 0.98997 0 0 0-0.87613-1.1385z"/></svg>
