<svg xmlns="http://www.w3.org/2000/svg" viewBox="0 0 48 48"><defs><style>.a{fill:none;stroke:#000;stroke-linecap:round;stroke-linejoin:round;}</style></defs><path class="a" d="M15.39,8.4v8.94a2,2,0,0,1-2,1.95H4.5V37.65a2,2,0,0,0,2,2h35.1a2,2,0,0,0,2-2V10.35a2,2,0,0,0-2-1.95ZM13,24.7a4.36,4.36,0,0,1,0,8.72,4.28,4.28,0,0,1-4.21-4.36h0A4.28,4.28,0,0,1,13,24.7Z"/><line class="a" x1="15.39" y1="8.4" x2="4.5" y2="19.29"/><line class="a" x1="20.71" y1="33.42" x2="38.32" y2="33.42"/><line class="a" x1="20.71" y1="14.58" x2="38.32" y2="14.58"/><line class="a" x1="20.71" y1="24" x2="38.32" y2="24"/></svg>