<svg id="Layer_2" data-name="Layer 2" xmlns="http://www.w3.org/2000/svg" viewBox="0 0 48 48"><defs><style>.cls-1{fill:none;stroke:#fff;stroke-linecap:round;stroke-linejoin:round;}</style></defs><path class="cls-1" d="M7.45,5.5a2,2,0,0,0-1.95,2V14.2L33.8,42.5h6.75a2,2,0,0,0,2-2V7.45a2,2,0,0,0-2-1.95ZM30.16,9.39a8.47,8.47,0,0,1,8.45,8.45h0c0,4.92-4,8.75-8.45,13.78-4.26-4.82-8.1-8.54-8.42-13.16v-.05c0-.19,0-.38,0-.57a8.45,8.45,0,0,1,8.45-8.45Zm0,4.39a4.06,4.06,0,0,0-4.06,4.06h0a4.06,4.06,0,0,0,4.06,4.06h0a4.06,4.06,0,0,0,0-8.12ZM5.5,27.18V40.55a2,2,0,0,0,2,2H20.82Z"/></svg>