<svg id="Layer_2" data-name="Layer 2" xmlns="http://www.w3.org/2000/svg" viewBox="0 0 48 48"><defs><style>.cls-1{fill:none;stroke:#fff;stroke-linecap:round;stroke-linejoin:round;}</style></defs><path class="cls-1" d="M7.45,5.5a2,2,0,0,0-1.95,2v33.1a2,2,0,0,0,2,2h9L32.3,5.5Zm9,37H40.55a2,2,0,0,0,2-2V7.45a2,2,0,0,0-2-1.95H32.3M30,22.35l10.11,2.39m-3.85-4.53.1,3.65M24.71,40c2.65-4,5.67-7.52,13.61-10.67m-9.81-2.93A34.93,34.93,0,0,1,37,38M14.78,15h4.87a4.89,4.89,0,0,1-4.87,5,5,5,0,1,1,2.48-9.36"/></svg>