<svg viewBox="0 0 48 48" xmlns="http://www.w3.org/2000/svg">
    <style>
        .a{fill:none;stroke:#FFFFFF;stroke-linecap:round;stroke-linejoin:round}
    </style>
    <path class="a" d="M42.5319138,33.3132095c0,3.4139099-2.7633438,6.1772919-6.1772919,6.1772919 c-2.2615166,0-4.244175-1.2205734-5.3160915-3.0360031l-0.1239243-0.2168427L24,24.2300014l-5.2665138-9.1451511 l-0.1735039-0.2911892l-0.0433369-0.0805502c-0.446125-0.8550367-0.6939373-1.8277969-0.6939373-2.8562994 c0-1.0471087,0.2602158-2.038475,0.7249088-2.9058781l0.167263-0.2912273C19.7929993,6.8752847,21.7570877,5.679481,24,5.679481 c2.50313,0,4.0904255,0.9481788,5.6258869,3.6246228v0.0061646l12.0138187,20.7996349l0.0681839,0.1115208 C42.2345238,31.1260395,42.5319138,32.1855507,42.5319138,33.3132095z"/>
    <path class="a" d="M17.8227081,33.3132095c0,1.0656776-0.2726212,2.0694084-0.7497177,2.9492149l-0.1115208,0.1982727 c-1.0780811,1.8153954-3.054574,3.0298042-5.3160925,3.0298042c-3.4139452,0-6.1772919-2.763382-6.1772919-6.1772919 c0-1.0409431,0.254015-2.0198689,0.7125053-2.8811073l0.2354474-0.4089127l0.0062017-0.0124035 c1.0966859-1.7286434,3.0236011-2.8749065,5.2231374-2.8749065C15.0531216,27.1358795,17.8227081,29.8992634,17.8227081,33.3132095z "/>
    <path class="a" d="M24,24.2300014l-6.9270096,12.032423"/>
    <path class="a" d="M6.4222398,30.0107861L18.547617,8.9509335"/>
</svg>
