<svg xmlns="http://www.w3.org/2000/svg" viewBox="0 0 48 48"><defs><style>.a{fill:none;stroke:#fff;stroke-linecap:round;stroke-linejoin:round}</style></defs>
  <path
     d="M 36.981931,6.5933529 C 42.36164,10.501188 45.5,16.842104 45.5,24 c 0,2.411029 -0.396864,4.729365 -1.128831,6.893246 m -1.3013,3.124713 C 39.532311,41.041505 32.400721,45.5 24,45.5 c -3.08406,0 -6.016455,-0.649356 -8.667919,-1.818803 m -2.88248,-1.066958 C 6.4271085,38.804361 2.5,31.437736 2.4280908,24.791001 M 2.7569989,21.27704 C 3.8678561,10.445777 12.875318,2.5 24,2.5 c 3.601449,0 6.996076,0.8855066 9.978036,2.450673"
     class="a" />
  <path
     d="m 18.702321,9.0796947 c 1.877433,-0.8018114 3.584768,-0.8141583 5.755305,-0.8141584 8.605657,-4e-7 15.58192,6.9762627 15.58192,15.5819197 0,7.643008 -5.071341,13.92886 -12.331169,15.25561 m -3.250751,0.32631 c -4.642801,0 -8.739432,-1.886739 -11.594079,-5.108221 M 11.058141,31.805173 C 9.6719033,29.476 8.8757066,26.754709 8.8757067,23.847456 8.8757068,18.312503 11.40207,13.45159 15.751268,10.687339"
     class="a" />
  <path
     d="m 29.382903,15.709624 c 2.89951,1.645382 4.496141,4.616678 4.496141,8.188682 0,5.287552 -4.286408,9.573959 -9.57396,9.573959 -5.287551,0 -9.573959,-4.286408 -9.573959,-9.573959 0,-5.287551 4.286408,-9.573959 9.573959,-9.573959 0.69804,0 1.378632,0.0747 2.034218,0.216554"
     class="a" />
  <circle
     class="a"
     cx="17.084745"
     cy="9.9661016"
     r="1.4555694" />
  <circle
     class="a"
     cx="2.5423729"
     cy="23.084745"
     r="1.4555694" />
  <circle
     class="a"
     cx="13.728813"
     cy="43.016949"
     r="1.4555694" />
  <circle
     class="a"
     cx="43.830509"
     cy="32.542374"
     r="1.4555694" />
  <circle
     class="a"
     cx="35.59322"
     cy="5.8983045"
     r="1.4555694" />
  <circle
     class="a"
     cx="12"
     cy="33.050846"
     r="1.4555694" />
  <path
     class="a"
     r="1.4555694"
     cy="39.35593"
     cx="25.932203" />
  <circle
     class="a"
     cx="27.762712"
     cy="14.949152"
     r="1.4555694" />
</svg>
