<svg version="1.1" viewBox="0 0 48 48" xmlns="http://www.w3.org/2000/svg">
<defs>
<style>.a{fill:none;stroke:#fff;stroke-linecap:round;stroke-linejoin:round;}</style>
</defs>
<path class="a" d="m31.2 15 2.07 2.08-1.37 1.37-2.07-2.08zm-2.04.675 3.53 3.54-1.77 1.76-3.53-3.54zm-2.47 1.03 4.94 4.96-4.96 4.94-4.94-4.96zm-4.11 5.85 3.2 3.22-1.8 1.79-3.2-3.22z"/>
<path class="a" d="m14.5 26.8a5.04 5.24 45.1 015-1.43 5.04 5.24 45.1 013.56 3.57 5.04 5.24 45.1 01-1.44 4.99l-3.56-3.57z"/>
<path class="a" d="m14.8 35.2c-.412.421-.909.127-1.39-.354-.479-.481-.747-.992-.348-1.39.422-.422.927-.145 1.41.336.479.481.749.976.33 1.41z"/>
<path class="a" d="m17.9 30.4-3.24 3.26"/>
<path class="a" d="m27.1 19.1-2.91 2.89"/>
<path class="a" d="m29.2 21.2-2.91 2.89"/>
<path class="a" d="m10.6 9.62 10.6 10.6m-8.46-12.7 10.6 10.6-4.24 4.23-10.6-10.6z"/>
<path class="a" d="m28.1 27.2 10.6 10.6m-8.46-12.7 10.6 10.6-4.24 4.23-10.6-10.6z"/>
</svg>
