<?xml version="1.0" encoding="UTF-8" standalone="no"?>
<svg
   viewBox="0 0 48 48"
   version="1.1"
   id="svg8"
   xmlns="http://www.w3.org/2000/svg"
   xmlns:svg="http://www.w3.org/2000/svg">
  <defs
     id="defs4">
    <style
       id="style2">.a{fill:none;stroke:#fff;stroke-linecap:round;stroke-linejoin:round;}</style>
  </defs>
  <path
     class="a"
     d="m 14.68318,22.171461 c 0,-2.030259 -1.759557,-3.78981 -3.789855,-3.654457 -1.8949289,0.135353 -3.3837853,1.894902 -3.3837853,3.7898 v 3.38376 c 0,2.030253 1.6242219,3.654457 3.6545003,3.654457 2.030254,0 3.654506,-1.624204 3.654506,-3.654457 H 11.16404" />
  <path
     class="a"
     d="M 17.089143,29.509423 V 18.509541 h 3.574966 c 2.062477,0 3.71246,1.649983 3.71246,3.712459 0,2.06248 -1.649983,3.712461 -3.71246,3.712461 h -3.574966" />
  <path
     class="a"
     d="m 26.500518,28.271935 c 0.687492,0.824991 1.512483,1.237488 2.74997,1.237488 h 1.649982 c 1.512484,0 2.749971,-1.237488 2.749971,-2.749971 0,-1.512484 -1.237487,-2.74997 -2.749971,-2.74997 h -1.787494 c -1.51247,0 -2.749958,-1.237486 -2.749958,-2.74997 0,-1.512484 1.237488,-2.749971 2.749958,-2.749971 h 1.649996 c 1.237487,0 2.062464,0.274997 2.749956,1.237487" />
  <path
     class="a"
     d="m 34.799341,25.799341 1.34824,3.994783 1.298304,-3.994783" />
  <path
     class="a"
     d="m 41.460886,28.466155 c 0,0.740782 -0.592626,1.333406 -1.333406,1.333406 -0.740781,0 -1.333406,-0.592624 -1.333406,-1.333406 v -1.333407 c 0,-0.740782 0.592625,-1.333407 1.333406,-1.333407 0.74078,0 1.28402,0.592625 1.28402,1.333407" />
</svg>
