<svg xmlns="http://www.w3.org/2000/svg" viewBox="0 0 48 48"><defs><style>.a{fill:none;stroke:#fff;stroke-linecap:round;stroke-linejoin:round;}</style></defs><path class="a" d="M40.5,5.5H7.5a2,2,0,0,0-2,2v33a2,2,0,0,0,2,2h33a2,2,0,0,0,2-2V7.5A2,2,0,0,0,40.5,5.5Z"/><path class="a" d="M27.29,13.79v13.89A6.529,6.529,0,0,0,33.8194,34.21H37.5"/><path class="a" d="M24.16,20.6351A6.8369,6.8369,0,0,0,16.9628,13.8,7.1,7.1,0,0,0,10.5,21.0224v6.3425A6.8374,6.8374,0,0,0,17.33,34.21h0a6.8374,6.8374,0,0,0,6.83-6.8448H17.33"/></svg>