<?xml version="1.0" encoding="UTF-8"?>
<svg version="1.1" viewBox="0 0 48 48" xmlns="http://www.w3.org/2000/svg">
    <defs>
        <style>.a{fill:none;stroke:#fff;stroke-linecap:round;stroke-linejoin:round;}</style>
        <style>.a{fill:none;stroke:#fff;stroke-linecap:round;stroke-linejoin:round;}</style>
        <style>.a{fill:none;stroke:#fff;stroke-linecap:round;stroke-linejoin:round;}</style>
    </defs>
    <ellipse cx="23.898" cy="10.201" rx="2.4838" ry="2.4837" fill="none" stroke="#fff" stroke-linecap="round" stroke-linejoin="round" style="paint-order:markers fill stroke"/>
    <path d="m13.472 25.761 6.8872 6.8474 14.012-13.853-2.5728-2.5331-11.439 11.36-4.354-4.2747z" fill="none" stop-color="#000000" stroke="#fff" stroke-linecap="round" stroke-linejoin="round" style="-inkscape-stroke:none;font-variation-settings:normal"/>
    <path d="m28.79 8.5438 7.9556 9e-7c1.595 0.098939 2.5125 1.1607 2.5728 2.3748v25.569c-0.05061 1.3907-1.2224 2.703-2.4936 2.7706h-25.807c-1.38-0.007924-2.4451-0.81304-2.4936-2.3748v-25.371c0.057686-1.4681 0.7408-2.8934 2.177-3.0081l8.3051 0.039557" fill="none" stop-color="#000000" stroke="#fff" stroke-linecap="round" stroke-linejoin="round" style="-inkscape-stroke:none;font-variation-settings:normal"/>
    <path d="m19.006 8.5438a4.9675 4.3464 0 0 1 4.892-3.5917 4.9675 4.3464 0 0 1 4.892 3.5917" fill="none" stroke="#fff" stroke-linecap="round" stroke-linejoin="round" style="paint-order:markers fill stroke"/>
</svg>
