<?xml version="1.0" encoding="UTF-8" standalone="no"?>
<svg
   viewBox="0 0 48 48"
   version="1.1"
   id="svg92"
   sodipodi:docname="gruenzeit.svg"
   xml:space="preserve"
   inkscape:version="1.2 (dc2aedaf03, 2022-05-15)"
   xmlns:inkscape="http://www.inkscape.org/namespaces/inkscape"
   xmlns:sodipodi="http://sodipodi.sourceforge.net/DTD/sodipodi-0.dtd"
   xmlns="http://www.w3.org/2000/svg"
   xmlns:svg="http://www.w3.org/2000/svg"><sodipodi:namedview
     id="namedview94"
     pagecolor="#000000"
     bordercolor="#666666"
     borderopacity="1.0"
     inkscape:showpageshadow="2"
     inkscape:pageopacity="0"
     inkscape:pagecheckerboard="0"
     inkscape:deskcolor="#d1d1d1"
     showgrid="true"
     inkscape:zoom="11.313709"
     inkscape:cx="20.285126"
     inkscape:cy="32.394329"
     inkscape:window-width="1920"
     inkscape:window-height="1050"
     inkscape:window-x="0"
     inkscape:window-y="0"
     inkscape:window-maximized="1"
     inkscape:current-layer="layer1"><inkscape:grid
       type="xygrid"
       id="grid477"
       spacingx="0.5"
       spacingy="0.5"
       originx="24"
       originy="24"
       color="#c0001f"
       opacity="0.45882353"
       empcolor="#00a397"
       empopacity="0.83921569"
       empspacing="4"
       visible="true"
       enabled="false" /></sodipodi:namedview><defs
     id="defs88"><style
       id="style86">.a{fill:none;stroke:#fff;stroke-linecap:round;stroke-linejoin:round;}</style></defs><g
     inkscape:groupmode="layer"
     id="layer1"
     inkscape:label="gruenzeit"
     transform="matrix(1.1764737,0,0,1.1764737,-4.1699773,-8.3529743)"
     style="stroke-width:0.84999775;stroke-dasharray:none"><path
       style="fill:none;stroke:#ffffff;stroke-width:0.84999775;stroke-linecap:round;stroke-linejoin:round;stroke-opacity:1;stroke-dasharray:none"
       d="m 24,44 c 0,0 -10,-26.00012 0,-26 10,1.2e-4 0,26 0,26 z"
       id="path13857"
       sodipodi:nodetypes="csc" /><path
       style="fill:none;stroke:#ffffff;stroke-width:0.84999775;stroke-linecap:round;stroke-linejoin:round;stroke-opacity:1;stroke-dasharray:none"
       d="m 20,23.99988 c 0,0 0.996683,0.166593 1.5,0.2 0.498902,0.03311 1.5,0 1.5,0"
       id="path17499"
       sodipodi:nodetypes="cac" /><path
       style="fill:none;stroke:#ffffff;stroke-width:0.84999775;stroke-linecap:round;stroke-linejoin:round;stroke-opacity:1;stroke-dasharray:none"
       d="m 20,26.99988 c 0,0 0.66172,0.166504 1,0.2 0.331711,0.03285 1,0 1,0"
       id="path21871"
       sodipodi:nodetypes="cac" /><path
       style="fill:none;stroke:#ffffff;stroke-width:0.84999775;stroke-linecap:round;stroke-linejoin:round;stroke-opacity:1;stroke-dasharray:none"
       d="m 28,25.99988 c 0,0 -0.996683,0.166593 -1.5,0.2 -0.498902,0.03311 -1.5,0 -1.5,0"
       id="path21873"
       sodipodi:nodetypes="cac" /><path
       style="fill:none;stroke:#ffffff;stroke-width:0.84999775;stroke-linecap:round;stroke-linejoin:round;stroke-opacity:1;stroke-dasharray:none"
       d="m 28,27.99988 c 0,0 -0.66172,0.166504 -1,0.2 -0.331711,0.03285 -1,0 -1,0"
       id="path21875"
       sodipodi:nodetypes="cac" /><path
       style="fill:none;stroke:#ffffff;stroke-width:0.84999775;stroke-linecap:round;stroke-linejoin:round;stroke-opacity:1;stroke-dasharray:none"
       d="m 27,33.99988 c 0,0 -0.66172,0.166504 -1,0.2 -0.331711,0.03285 -1,0 -1,0"
       id="path21877"
       sodipodi:nodetypes="cac" /><path
       style="fill:none;stroke:#ffffff;stroke-width:0.84999775;stroke-linecap:round;stroke-linejoin:round;stroke-opacity:1;stroke-dasharray:none"
       d="m 22,37.99988 c 0,0 0.66172,0.166504 1,0.2 0.331711,0.03285 1,0 1,0"
       id="path21881"
       sodipodi:nodetypes="cac" /><path
       style="fill:none;stroke:#ffffff;stroke-width:0.84999775;stroke-linecap:round;stroke-linejoin:round;stroke-opacity:1;stroke-dasharray:none"
       d="m 20,18 c 0,0 1.5,-1.5 4,-1.5 2.5,0 4,1.5 4,1.5 0,0 2.970697,-3.97912 2,-5 -1.096989,-1.009376 -4,2 -4,2 0,0 -0.509288,-4 -2,-4 -1.490712,0 -2,4 -2,4 0,0 -2.903011,-3.009375 -4,-2 -1.320949,1.215449 2,5 2,5 z"
       id="path24071"
       sodipodi:nodetypes="czcccacac" /></g></svg>
