<?xml version="1.0" encoding="UTF-8" standalone="no"?>
<svg
   xmlns:dc="http://purl.org/dc/elements/1.1/"
   xmlns:cc="http://creativecommons.org/ns#"
   xmlns:rdf="http://www.w3.org/1999/02/22-rdf-syntax-ns#"
   xmlns:svg="http://www.w3.org/2000/svg"
   xmlns="http://www.w3.org/2000/svg"
   xmlns:sodipodi="http://sodipodi.sourceforge.net/DTD/sodipodi-0.dtd"
   xmlns:inkscape="http://www.inkscape.org/namespaces/inkscape"
   viewBox="0 0 48 48"
   version="1.1"
   id="svg8"
   sodipodi:docname="template.svg"
   inkscape:version="1.0.1 (3bc2e813f5, 2020-09-07)">
  <style></style>
  <metadata
     id="metadata12">
    <rdf:RDF>
      <cc:Work
         rdf:about="">
        <dc:format>image/svg+xml</dc:format>
        <dc:type
           rdf:resource="http://purl.org/dc/dcmitype/StillImage" />
        <dc:title></dc:title>
      </cc:Work>
    </rdf:RDF>
  </metadata>
  <sodipodi:namedview
     pagecolor="#595959"
     bordercolor="#666666"
     borderopacity="1"
     objecttolerance="10"
     gridtolerance="10"
     guidetolerance="10"
     inkscape:pageopacity="0"
     inkscape:pageshadow="2"
     inkscape:window-width="3840"
     inkscape:window-height="2098"
     id="namedview10"
     showgrid="false"
     showguides="true"
     inkscape:guide-bbox="true"
     inkscape:zoom="8.3732476"
     inkscape:cx="-24.214497"
     inkscape:cy="42.797838"
     inkscape:window-x="0"
     inkscape:window-y="25"
     inkscape:window-maximized="1"
     inkscape:current-layer="svg8"
     inkscape:document-rotation="0" />
  <defs
     id="defs4">
    <style
       id="style2">.a{fill:none;stroke:#fff;stroke-linecap:round;stroke-linejoin:round;}</style>
  </defs>
  <path
     style="fill:none;stroke:#ffffff;stroke-width:1px;stroke-linecap:butt;stroke-linejoin:miter;stroke-opacity:0.98545766"
     d="M 18.74997,15.818058 C 25.303382,11.997641 37.658244,7.8840661 41.465605,14.445072 45.250981,20.968192 35.582714,29.56482 29.074771,33.37623 22.522378,37.213672 10.198239,41.477018 6.3477583,34.932278 2.4964249,28.386089 12.188444,19.643204 18.74997,15.818058 Z"
     id="path4932"
     sodipodi:nodetypes="sssss" />
  <path
     style="fill:none;stroke:#ffffff;stroke-width:1px;stroke-linecap:butt;stroke-linejoin:miter;stroke-opacity:0.98545766"
     d="m 20.650765,18.898478 c 4.355333,-2.539583 12.550592,-5.393861 15.089339,-1.038041 2.548292,4.372197 -3.985127,10.14151 -8.371621,12.665113 -4.330915,2.491628 -12.472353,5.190506 -14.964812,0.860069 -2.4883402,-4.32328 3.937911,-9.974468 8.247094,-12.487141 z"
     id="path4934"
     sodipodi:nodetypes="sssss" />
  <path
     style="fill:none;stroke:#ffffff;stroke-width:1px;stroke-linecap:butt;stroke-linejoin:miter;stroke-opacity:0.98545766"
     d="m 22.283245,21.784919 c 2.174077,-1.260354 6.254937,-2.64528 7.523904,-0.476219 1.264017,2.160601 -1.927161,5.033629 -4.086016,6.300625 -2.193336,1.287232 -6.334376,2.701364 -7.612899,0.502941 -1.270336,-2.184345 1.988916,-5.060026 4.175011,-6.327347 z"
     id="path4936"
     sodipodi:nodetypes="sssss" />
  <path
     style="fill:none;stroke:#ffffff;stroke-width:1px;stroke-linecap:butt;stroke-linejoin:miter;stroke-opacity:0.98545766"
     d="M 18.74997,15.818058 29.1155,33.421227"
     id="path4938" />
  <path
     style="fill:none;stroke:#ffffff;stroke-width:1px;stroke-linecap:butt;stroke-linejoin:miter;stroke-opacity:0.98545766"
     d="M 6.3579159,34.961614 41.552982,14.513679"
     id="path4940" />
  <path
     style="fill:none;stroke:#ffffff;stroke-width:0.762974px;stroke-linecap:butt;stroke-linejoin:miter;stroke-opacity:0.98545766"
     d="m 28.77709,17.096057 c 0.447235,-0.344549 1.304395,-0.789603 1.657353,-0.348973 0.282085,0.352151 -0.207323,0.951953 -0.561305,1.231738 -0.455374,0.359924 -1.357254,0.798667 -1.708489,0.336557 -0.275226,-0.362106 0.252134,-0.941744 0.612441,-1.219322 z"
     id="path4946"
     sodipodi:nodetypes="sssss" />
  <path
     style="fill:none;stroke:#ffffff;stroke-width:0.762974px;stroke-linecap:butt;stroke-linejoin:miter;stroke-opacity:0.98545766"
     d="m 31.719118,11.410415 c 0.447235,-0.344549 1.304395,-0.789603 1.657353,-0.348973 0.282085,0.352151 -0.207323,0.951953 -0.561305,1.231738 -0.455374,0.359924 -1.357254,0.798667 -1.708489,0.336557 -0.275226,-0.362106 0.252134,-0.941744 0.612441,-1.219322 z"
     id="path4946-9"
     sodipodi:nodetypes="sssss" />
  <path
     style="fill:none;stroke:#ffffff;stroke-width:0.762974px;stroke-linecap:butt;stroke-linejoin:miter;stroke-opacity:0.98545766"
     d="m 37.242662,19.173234 c 0.447235,-0.344549 1.304395,-0.789603 1.657353,-0.348973 0.282085,0.352151 -0.207323,0.951953 -0.561305,1.231738 -0.455374,0.359924 -1.357254,0.798667 -1.708489,0.336557 -0.275226,-0.362106 0.252134,-0.941744 0.612441,-1.219322 z"
     id="path4946-2"
     sodipodi:nodetypes="sssss" />
  <path
     style="fill:none;stroke:#ffffff;stroke-width:0.762974px;stroke-linecap:butt;stroke-linejoin:miter;stroke-opacity:0.98545766"
     d="m 31.127638,26.14065 c 0.447235,-0.344549 1.304395,-0.789603 1.657353,-0.348973 0.282085,0.352151 -0.207323,0.951953 -0.561305,1.231738 -0.455374,0.359924 -1.357254,0.798667 -1.708489,0.336557 -0.275226,-0.362106 0.252134,-0.941744 0.612441,-1.219322 z"
     id="path4946-5"
     sodipodi:nodetypes="sssss" />
  <path
     style="fill:none;stroke:#ffffff;stroke-width:0.762974px;stroke-linecap:butt;stroke-linejoin:miter;stroke-opacity:0.98545766"
     d="m 28.613991,24.338494 c 0.447235,-0.344549 1.304395,-0.789603 1.657353,-0.348973 0.282085,0.352151 -0.207323,0.951953 -0.561305,1.231738 -0.455374,0.359924 -1.357254,0.798667 -1.708489,0.336557 -0.275226,-0.362106 0.252134,-0.941744 0.612441,-1.219322 z"
     id="path4946-4"
     sodipodi:nodetypes="sssss" />
  <path
     style="fill:none;stroke:#ffffff;stroke-width:0.762974px;stroke-linecap:butt;stroke-linejoin:miter;stroke-opacity:0.98545766"
     d="m 25.180437,22.397789 c 0.447235,-0.344549 1.304395,-0.789603 1.657353,-0.348973 0.282085,0.352151 -0.207323,0.951953 -0.561305,1.231738 -0.455374,0.359924 -1.357254,0.798667 -1.708489,0.336557 -0.275226,-0.362106 0.252134,-0.941744 0.612441,-1.219322 z"
     id="path4946-0"
     sodipodi:nodetypes="sssss" />
  <path
     style="fill:none;stroke:#ffffff;stroke-width:0.762974px;stroke-linecap:butt;stroke-linejoin:miter;stroke-opacity:0.98545766"
     d="m 26.634689,27.950618 c 0.447235,-0.344549 1.304395,-0.789603 1.657353,-0.348973 0.282085,0.352151 -0.207323,0.951953 -0.561305,1.231738 -0.455374,0.359924 -1.357254,0.798667 -1.708489,0.336557 -0.275226,-0.362106 0.252134,-0.941744 0.612441,-1.219322 z"
     id="path4946-59"
     sodipodi:nodetypes="sssss" />
  <path
     style="fill:none;stroke:#ffffff;stroke-width:0.762974px;stroke-linecap:butt;stroke-linejoin:miter;stroke-opacity:0.98545766"
     d="m 20.88103,28.996185 c 0.447235,-0.344549 1.304395,-0.789603 1.657353,-0.348973 0.282085,0.352151 -0.207323,0.951953 -0.561305,1.231738 -0.455374,0.359924 -1.357254,0.798667 -1.708489,0.336557 -0.275226,-0.362106 0.252134,-0.941744 0.612441,-1.219322 z"
     id="path4946-46"
     sodipodi:nodetypes="sssss" />
  <path
     style="fill:none;stroke:#ffffff;stroke-width:0.762974px;stroke-linecap:butt;stroke-linejoin:miter;stroke-opacity:0.98545766"
     d="m 10.042941,27.682477 c 0.447235,-0.344549 1.304395,-0.789603 1.657353,-0.348973 0.282085,0.352151 -0.207323,0.951953 -0.561305,1.231738 -0.455374,0.359924 -1.357254,0.798667 -1.708489,0.336557 -0.275226,-0.362106 0.252134,-0.941744 0.612441,-1.219322 z"
     id="path4946-92"
     sodipodi:nodetypes="sssss" />
  <path
     style="fill:none;stroke:#ffffff;stroke-width:0.762974px;stroke-linecap:butt;stroke-linejoin:miter;stroke-opacity:0.98545766"
     d="m 6.9378137,27.174908 c 0.447235,-0.344549 1.304395,-0.789603 1.657353,-0.348973 0.282085,0.352151 -0.207323,0.951953 -0.561305,1.231738 -0.455374,0.359924 -1.357254,0.798667 -1.708489,0.336557 -0.275226,-0.362106 0.252134,-0.941744 0.612441,-1.219322 z"
     id="path4946-24"
     sodipodi:nodetypes="sssss" />
  <path
     style="fill:none;stroke:#ffffff;stroke-width:0.762974px;stroke-linecap:butt;stroke-linejoin:miter;stroke-opacity:0.98545766"
     d="m 9.5950861,34.460014 c 0.4472349,-0.344549 1.3043949,-0.789603 1.6573529,-0.348973 0.282085,0.352151 -0.207323,0.951953 -0.561305,1.231738 -0.455374,0.359924 -1.3572539,0.798667 -1.7084889,0.336557 -0.275226,-0.362106 0.252134,-0.941744 0.612441,-1.219322 z"
     id="path4946-7"
     sodipodi:nodetypes="sssss" />
  <path
     style="fill:none;stroke:#ffffff;stroke-width:0.762974px;stroke-linecap:butt;stroke-linejoin:miter;stroke-opacity:0.98545766"
     d="m 12.073217,32.608881 c 0.447235,-0.344549 1.304395,-0.789603 1.657353,-0.348973 0.282085,0.352151 -0.207323,0.951953 -0.561305,1.231738 -0.455374,0.359924 -1.357254,0.798667 -1.708489,0.336557 -0.275226,-0.362106 0.252134,-0.941744 0.612441,-1.219322 z"
     id="path4946-75"
     sodipodi:nodetypes="sssss" />
  <path
     style="fill:none;stroke:#ffffff;stroke-width:0.762974px;stroke-linecap:butt;stroke-linejoin:miter;stroke-opacity:0.98545766"
     d="m 18.313612,15.388468 c 0.447235,-0.344549 1.304395,-0.789603 1.657353,-0.348973 0.282085,0.352151 -0.207323,0.951952 -0.561305,1.231737 -0.455374,0.359924 -1.357254,0.798667 -1.708489,0.336557 -0.275226,-0.362106 0.252134,-0.941744 0.612441,-1.219321 z"
     id="path4946-48"
     sodipodi:nodetypes="sssss" />
</svg>
