<?xml version="1.0" encoding="UTF-8"?>
<svg version="1.1" viewBox="0 0 48 48" xmlns="http://www.w3.org/2000/svg">
    <defs>
        <style>.a{fill:none;stroke:#fff;stroke-linecap:round;stroke-linejoin:round;}</style>
    </defs>
    <g transform="matrix(2.7199 0 0 2.7199 -473.58 -313)" fill="none" stroke="#fff" stroke-linecap="round" stroke-linejoin="round" stroke-width=".36765">
        <g fill="none" stroke="#fff" stroke-linecap="round" stroke-linejoin="round" stroke-width=".36765">
            <path class="st0" d="m179.5 123.3c0-1.1 0.9-2 2-2s2 0.9 2 2v3.2"/>
            <line class="st0" x1="179.5" x2="179.5" y1="121.3" y2="126.5"/>
            <path class="st0" d="m183.5 123.3c0-1.1 0.9-2 2-2s2 0.9 2 2v3.2"/>
        </g>
    </g>
    <path d="m27.356 45.184a21.449 21.449 0 0 1-23.812-14.735 21.449 21.449 0 0 1 11.054-25.728" fill="none" stroke="#fff" stroke-linecap="round" stroke-linejoin="round" style="paint-order:markers fill stroke"/>
    <path d="m23.252 2.5631a21.449 21.449 0 0 1 21.089 14.63 21.449 21.449 0 0 1-8.038 24.376" fill="none" stroke="#fff" stroke-linecap="round" stroke-linejoin="round" style="paint-order:markers fill stroke"/>
    <path d="m36.412 31.072-0.10832 10.498" fill="none" stop-color="#000000" stroke="#fff" stroke-linecap="round" stroke-linejoin="round" style="-inkscape-stroke:none;font-variation-settings:normal"/>
    <path d="m14.652 16.928-0.05428-12.207" fill="none" stop-color="#000000" stroke="#fff" stroke-linecap="round" stroke-linejoin="round" style="-inkscape-stroke:none;font-variation-settings:normal"/>
</svg>
