<?xml version="1.0" encoding="UTF-8"?><svg id="a" xmlns="http://www.w3.org/2000/svg" viewBox="0 0 48 48"><defs><style>.b{fill:none;stroke:#fff;stroke-linecap:round;stroke-linejoin:round;stroke-width:1px;}</style></defs><path class="b" d="M31.4207,25.2224s.7596-3.615-.2403-4.7855c-1.3787-1.6142-3.2031-.6569-3.8421,.0314-1.0053,1.0827-1.3033,3.1341-1.3558,4.108-.0397,.7376,.0898,1.3678,.0898,1.3678"/><path class="b" d="M15.0767,22.1298s.5285-3.4409,1.8814-4.1757c1.8655-1.0132,3.2258,.5341,3.576,1.4057,.5507,1.371,.094,3.3932-.2059,4.3212-.2271,.7028-.4341,1.0493-.4341,1.0493"/><path class="b" d="M27.1386,34.0249c.2362,1.148,1.5103,1.4306,1.5103,1.4306"/><path class="b" d="M14.2445,32.9331c1.1572,.186,1.873-.9053,1.873-.9053"/><path class="b" d="M15.3176,32.818c4.53,6.6138,10.8249,3.1227,12.2653,2.0497"/><path class="b" d="M27.8548,28.4588c-.6369-.1115-1.25,.3183-1.3613,.955-.1115,.6368,.3183,1.2496,.9552,1.361,.6369,.1115,1.2498-.3183,1.3613-.955,.1115-.6368-.3185-1.2496-.9552-1.361Z"/><path class="b" d="M17.0595,29.0235c.6369,.1115,1.2499-.3183,1.3613-.955,.1114-.6368-.3185-1.2496-.9553-1.361-.6369-.1115-1.2498,.3183-1.3613,.955-.1115,.6368,.3184,1.2496,.9553,1.361Z"/><path class="b" d="M8.7641,14.1003c-.7961-.1433-1.4887-.207-2.1892,.4537-.6608,.6288-.9235,1.8466-.2787,2.539,.7085,.7481,2.1734,.581,3.0969,.4855,2.8341-.4378,1.6479-2.1888,1.218-2.6584-.406-.4696-1.3772-.7322-1.847-.8119v-.0079Z"/><path class="b" d="M39.582,19.4248c-.4697-.0638-1.4726-.1115-2.0061,.1751-.5333,.2786-2.1892,1.4564,.3901,2.6187,.8598,.3422,2.2052,.9073,3.0969,.4695,.8279-.4059,.9233-1.5202,.4697-2.2366-.4697-.7481-1.1463-.9073-1.9584-1.0188l.0078-.0079Z"/><path class="b" d="M43.9085,19.5763c-.9638-1.1366-2.719-1.7035-4.136-1.8866-.7641-.1035-1.608-.1353-2.5793-.0955h-.0796c-.8003,.0475-1.4111,.0951-1.8721,.1426-.0015-.0046-.7831-1.9823-2.9444-3.7004-.1956-.1555-.4139-.2865-.6209-.4219-.804-.5014-1.6876-.8914-2.6509-1.1223,.8279-.3343,2.038-.3741,2.5155-.3502,.2308,.0159,.4538-.1353,.5335-.3582,.0796-.2228,0-.4776-.1911-.6128-1.831-1.3133-3.646-1.0506-4.7765-.5333-.1592-.8517-.4856-1.6237-.5016-1.6714-.0636-.1513-.199-.2706-.3582-.3105-.1672-.0478-.3343-.008-.4617,.0876-.5096,.39-.8201,1.0268-1.0112,1.56-1.9901-1.576-3.9726-1.1223-4.06-1.1063-.215,.0478-.3742,.2308-.4061,.4457-.0317,.2149,.0718,.4298,.2627,.5413,.4458,.2546,1.035,.6606,1.4807,1.0586-1.1223-.1751-2.2289-.1115-3.2798,.1194-.2389,.0557-.4857,.1034-.7165,.1751-1.5365,.4696-2.9217,1.3213-4.0123,2.4993-.4538-.2388-1.1305-.5333-2.1256-.9074-.8757-.3184-1.6877-.5413-2.4758-.6925-1.2897-.2467-3.1764-.4139-4.6254,.8994-.7802,.6765-1.2738,1.751-1.3136,2.7937-.0318,.8676,.2547,1.6635,.812,2.2365,.9155,.9631,2.3644,1.1938,3.7417,1.1938,.7085,0,1.4011-.0636,1.9982-.1113l.2229-.016c.5254-.0397,.9712-.0875,1.3534-.1432l-.3981,2.2285-.0002,.0019,.0083-.0019c1.2737-.2706,2.5316,.1831,3.4072,.5732,.0557,.0239,.1115,.0636,.1671,.0875,.3662,.1751,.7483,.3662,1.1305,.573,.3901,.207,.7881,.43,1.1941,.6606,.4777,.2707,.9553,.5493,1.4409,.804,.5414,.2864,1.1704,.6049,1.8549,.8915,.7563,.3103,1.5763,.5888,2.4361,.7401,1.7514,.3105,3.4632,.1434,4.7608-.0397,.6209-.0876,1.2101-.1909,1.7911-.2866l.4777-.0796c.3584-.0556,.6767-.1033,.9871-.1512,.3106-.0397,.6051-.0794,.8836-.1033,.0798-.008,.1673-.0241,.2549-.0241,.9991-.0792,2.2353-.0634,3.2757,.5818,.0025-.0045,.4738-2.675,.4738-2.675,.3104,.1354,.6608,.2786,1.0828,.4378l.1432,.0558c1.1624,.4537,2.7626,1.0744,4.2194,1.0744,.5651,0,1.1145-.0955,1.6002-.3263,.7244-.3422,1.2498-.9711,1.4727-1.7669,.2627-.9233,.3983-2.0442-.3858-2.9686h-.0002Z"/><path class="b" d="M35.2412,17.7369c.0369-.0468,1.5661-1.9918,1.8344-3.192,.3002-1.3424,.0529-2.8375-.801-3.9072-.3067-.3821-.7042-.7232-1.1918-.8235-.2668-.0599-.5568-.0258-.8044,.0834-.124,.0546-.2336,.1341-.3287,.2308-.0518,.052-.0798,.1058-.1236,.1584-.0177,.0226-.0347,.0373-.0524,.0599-.0261,.03-.0377,.077-.0479,.1082-.1288,.3335-.1958,.6957-.1824,1.0479-.0017,.0238-.0035,.0476,.0027,.0721,.0163,.2087,.0565,.4193,.0013,.6226-.0364,.1649-.1344,.3012-.2403,.437-.3942,.484-1.5484,.9988-1.5803,1.0129"/><path class="b" d="M18.7711,11.3623l.0025-.0005c-.4215-.4611-.8664-.9462-1.0334-1.5504-.0398-.1592-.0717-.3184-.0478-.4775,.0239-.2229,.1354-.4218,.2389-.6208,.2468-.4855,.4538-1.0665,.2309-1.5679-.1672-.3741-.5493-.6208-.9474-.6845-.3981-.0637-.812,.0319-1.1862,.207-.5891,.2786-1.1464,.6845-1.5524,1.2018-.406,.5173-.6687,1.0666-.8518,1.6715-.0955,.3184-.1592,.6367-.1911,.9631-.135,1.1985,.1182,2.4287,.609,3.5326"/><path class="b" d="M37.3771,30.9896c-.0239-2.3479-.5094-3.8842-1.5126-4.8232-.1751-.1671-.3662-.2944-.5493-.4139-1.0429-.6526-2.2849-.6685-3.2878-.589-.0876,0-.1751,.0161-.2547,.0241-.2788,.0239-.5732,.0636-.8838,.1033-.3105,.0479-.6288,.0957-.9871,.1512l-.4775,.0796c-.5812,.0957-1.1704,.199-1.7913,.2866-1.2976,.1831-3.0093,.3502-4.7608,.0397-.8598-.1512-1.6796-.4298-2.4361-.7401-.6845-.2866-1.3134-.605-1.8548-.8915-.4856-.2547-.9632-.5333-1.4409-.804-.406-.2306-.8041-.4537-1.1941-.6606-.3821-.2068-.7643-.3979-1.1305-.573-.0557-.0239-.1114-.0636-.1671-.0875-.8757-.3901-2.1336-.8437-3.4072-.5732-.207,.0399-.414,.1035-.621,.1831-1.3215,.5413-2.3167,1.8148-3.1685,4.083-1.2498,4.1627-.414,7.8397,2.4042,10.6415,2.9296,2.9051,7.2286,4.1704,10.3176,4.7118,1.3214,.2308,2.8978,.4218,4.5617,.4218,2.2211,0,4.6014-.3343,6.7429-1.3213,3.6063-1.6634,5.6521-4.8392,5.899-9.1771l-.0002-.0713Z"/></svg>