<?xml version="1.0" encoding="utf-8"?>
<svg
	version="1.1"
	xmlns="http://www.w3.org/2000/svg"
	xmlns:xlink="http://www.w3.org/1999/xlink"
	x="0%" y="0%"
	width="100%" height="100%"
	viewBox="0 0 48.0 48.0"
	enable-background="new 0 0 48.0 48.0"
	xml:space="preserve">
	<path
		fill="#FFFFFF"
		stroke="#FFFFFF"
		fill-opacity="0.016"
		stroke-opacity="1.000"
		fill-rule="nonzero"
		stroke-width="0.15"
		stroke-linejoin="miter"
		stroke-linecap="square"
		d="M19.26,27.26L28.74,27.26L28.74,36.74L19.26,36.74z"/>
	<path
		fill="#FFFFFF"
		stroke="#FFFFFF"
		fill-opacity="0.016"
		stroke-opacity="1.000"
		fill-rule="nonzero"
		stroke-width="0.15"
		stroke-linejoin="miter"
		stroke-linecap="square"
		d="M8.00,28.00L8.00,16.00L20.00,16.00"/>
	<path
		fill="#FFFFFF"
		stroke="#FFFFFF"
		fill-opacity="0.016"
		stroke-opacity="1.000"
		fill-rule="nonzero"
		stroke-width="0.15"
		stroke-linejoin="miter"
		stroke-linecap="square"
		d="M8.00,36.00L8.00,46.00L20.00,46.00"/>
	<path
		fill="#FFFFFF"
		stroke="#FFFFFF"
		fill-opacity="0.016"
		stroke-opacity="1.000"
		fill-rule="nonzero"
		stroke-width="0.15"
		stroke-linejoin="miter"
		stroke-linecap="square"
		d="M38.00,28.00L38.00,16.00L28.00,16.00"/>
	<path
		fill="#FFFFFF"
		stroke="#FFFFFF"
		fill-opacity="0.016"
		stroke-opacity="1.000"
		fill-rule="nonzero"
		stroke-width="0.15"
		stroke-linejoin="miter"
		stroke-linecap="square"
		d="M38.00,36.00L38.00,46.00L28.00,46.00"/>
	<path
		fill="#FFFFFF"
		stroke="#FFFFFF"
		fill-opacity="0.016"
		stroke-opacity="1.000"
		fill-rule="nonzero"
		stroke-width="1.2"
		stroke-linejoin="miter"
		stroke-linecap="square"
		d="M11.07,13.73L14.00,4.00L42.00,10.00L39.74,22.09"/>
	<path
		fill="#FFFFFF"
		stroke="#FFFFFF"
		fill-opacity="0.016"
		stroke-opacity="1.000"
		fill-rule="nonzero"
		stroke-width="1.2"
		stroke-linejoin="miter"
		stroke-linecap="square"
		d="M14.98,3.58L18.00,0.00L38.00,8.00"/>
	<path
		fill="#FFFFFF"
		stroke="#FFFFFF"
		fill-opacity="0.016"
		stroke-opacity="1.000"
		fill-rule="nonzero"
		stroke-width="0.15000005"
		stroke-linejoin="miter"
		stroke-linecap="square"
		d="M19.26,27.26L28.74,27.26L28.74,36.74L19.26,36.74z"/>
	<path
		fill="#FFFFFF"
		stroke="#FFFFFF"
		fill-opacity="0.016"
		stroke-opacity="1.000"
		fill-rule="nonzero"
		stroke-width="0.15000005"
		stroke-linejoin="miter"
		stroke-linecap="square"
		d="M8.00,28.00L8.00,16.00L20.00,16.00"/>
	<path
		fill="#FFFFFF"
		stroke="#FFFFFF"
		fill-opacity="0.016"
		stroke-opacity="1.000"
		fill-rule="nonzero"
		stroke-width="0.15000005"
		stroke-linejoin="miter"
		stroke-linecap="square"
		d="M8.00,36.00L8.00,46.00L20.00,46.00"/>
	<path
		fill="#FFFFFF"
		stroke="#FFFFFF"
		fill-opacity="0.016"
		stroke-opacity="1.000"
		fill-rule="nonzero"
		stroke-width="0.15000005"
		stroke-linejoin="miter"
		stroke-linecap="square"
		d="M38.00,28.00L38.00,16.00L28.00,16.00"/>
	<path
		fill="#FFFFFF"
		stroke="#FFFFFF"
		fill-opacity="0.016"
		stroke-opacity="1.000"
		fill-rule="nonzero"
		stroke-width="0.15000005"
		stroke-linejoin="miter"
		stroke-linecap="square"
		d="M38.00,36.00L38.00,46.00L28.00,46.00"/>
	<path
		fill="#FFFFFF"
		stroke="#FFFFFF"
		fill-opacity="0.016"
		stroke-opacity="1.000"
		fill-rule="nonzero"
		stroke-width="1.2"
		stroke-linejoin="miter"
		stroke-linecap="square"
		d="M16.82,7.20L20.62,8.46L19.18,12.80L15.38,11.54z"/>
	<path
		fill="#FFFFFF"
		stroke="#FFFFFF"
		fill-opacity="0.016"
		stroke-opacity="1.000"
		fill-rule="nonzero"
		stroke-width="1.2"
		stroke-linejoin="miter"
		stroke-linecap="square"
		d="M19.26,27.26L28.74,27.26L28.74,36.74L19.26,36.74z"/>
	<path
		fill="#FFFFFF"
		stroke="#FFFFFF"
		fill-opacity="0.016"
		stroke-opacity="1.000"
		fill-rule="nonzero"
		stroke-width="1.2"
		stroke-linejoin="miter"
		stroke-linecap="square"
		d="M8.00,28.00L8.00,16.00L20.00,16.00"/>
	<path
		fill="#FFFFFF"
		stroke="#FFFFFF"
		fill-opacity="0.016"
		stroke-opacity="1.000"
		fill-rule="nonzero"
		stroke-width="1.2"
		stroke-linejoin="miter"
		stroke-linecap="square"
		d="M8.00,36.00L8.00,46.00L20.00,46.00"/>
	<path
		fill="#FFFFFF"
		stroke="#FFFFFF"
		fill-opacity="0.016"
		stroke-opacity="1.000"
		fill-rule="nonzero"
		stroke-width="1.2"
		stroke-linejoin="miter"
		stroke-linecap="square"
		d="M38.00,28.00L38.00,16.00L28.00,16.00"/>
	<path
		fill="#FFFFFF"
		stroke="#FFFFFF"
		fill-opacity="0.016"
		stroke-opacity="1.000"
		fill-rule="nonzero"
		stroke-width="1.2"
		stroke-linejoin="miter"
		stroke-linecap="square"
		d="M38.00,36.00L38.00,46.00L28.00,46.00"/>
</svg>