<?xml version="1.0" encoding="utf-8"?>
<!-- Generator: Adobe Illustrator 25.1.0, SVG Export Plug-In . SVG Version: 6.00 Build 0)  -->
<svg version="1.1"
	 id="svg8" inkscape:version="1.0.1 (3bc2e813f5, 2020-09-07, custom)" xmlns:cc="http://creativecommons.org/ns#" xmlns:dc="http://purl.org/dc/elements/1.1/" xmlns:inkscape="http://www.inkscape.org/namespaces/inkscape" xmlns:rdf="http://www.w3.org/1999/02/22-rdf-syntax-ns#" xmlns:sodipodi="http://sodipodi.sourceforge.net/DTD/sodipodi-0.dtd" xmlns:svg="http://www.w3.org/2000/svg"
	 xmlns="http://www.w3.org/2000/svg" xmlns:xlink="http://www.w3.org/1999/xlink" x="0px" y="0px" viewBox="0 0 48 48"
	 style="enable-background:new 0 0 48 48;" xml:space="preserve">
<style type="text/css">
	.st0{fill:none;stroke:#FFFFFF;stroke-linecap:round;stroke-linejoin:round;}
	.st1{fill:none;stroke:#FFFFFF;}
</style>
<sodipodi:namedview  bordercolor="#666666" borderopacity="1" gridtolerance="10" guidetolerance="10" id="namedview10" inkscape:current-layer="svg8" inkscape:cx="23.36051" inkscape:cy="28.421554" inkscape:document-rotation="0" inkscape:pagecheckerboard="true" inkscape:pageopacity="0" inkscape:pageshadow="2" inkscape:window-height="1080" inkscape:window-maximized="1" inkscape:window-width="1920" inkscape:window-x="0" inkscape:window-y="0" inkscape:zoom="25.083334" objecttolerance="10" pagecolor="#000000" showgrid="false">
	</sodipodi:namedview>
<g>
	<circle id="circle6_1_" class="st0" cx="24" cy="24" r="21.5"/>
	<path id="circle845_1_" class="st0" d="M44.1,31.6c-3.9-6.4-10.9-10.4-18.4-10.4c-9,0-17,5.6-20.1,13.9"/>
	<path id="path892_1_" sodipodi:nodetypes="csscccccc" class="st1" d="M13.5,42.8c-0.5-2.3-0.2-3.8,1.7-5.2c0.6-0.5,0.9-0.8,1.3-1.8
		c0.2-0.6,0.7-1.1,1.3-1.3c1.5-0.6,3-0.9,4.2-0.5c1.5,0.6,2.2,1.8,3.4,2.3c0.8,0.3,1.6,0.4,2.3,0.1c2.1-1,3.4,0.2,4.2,1.6
		c1,1.4,2,3.2,3.1,4.3"/>
	<path id="path894_2_" sodipodi:nodetypes="cscsssssssssszzssssc" class="st1" d="M29.7,36.1c-0.1-1.8,0.5-2.5-1.1-2.5
		c-0.7,0-1.7,0-2-0.5c-0.4-1-0.8-1-1.5-1.2c-0.9-0.3-1.1-0.4-1.9-0.3c-0.3,0.1,0.3,1.6-0.5,1.5c-0.4-0.1-0.9-1.8-1.6-2.3
		c-0.9-0.6-2.2,0.1-2.5,0.4c-1.4,1.3-2.3,1.6-3.2,1.1c-0.6-0.3-0.3-2.1,0.1-2.4c0.9-0.6,1.3,0,2-1c0.2-0.3-0.3-1,0.2-1.9
		s2.5,0,3.3-1.1c0.8-1.1,2.8-2.7,4.4-1.6c0.3,0.2,0.5,0.4,1,0.6c0.3,0.2,0.6-0.6,1-1c0.3-0.3,0.6-0.3,1.3-0.3s3.4-1.3,3.4-1.3"/>
	
		<path id="path860" inkscape:flatsided="false" inkscape:randomized="0" inkscape:rounded="0" sodipodi:arg1="0" sodipodi:arg2="0.78539816" sodipodi:cx="25.50248" sodipodi:cy="13.327541" sodipodi:r1="2.7915642" sodipodi:r2="1.3957821" sodipodi:sides="4" sodipodi:type="star" class="st0" d="
		M28.3,13.3l-1.8,1l-1,1.8l-1-1.8l-1.8-1l1.8-1l1-1.8l1,1.8L28.3,13.3z"/>
	
		<path id="path862" inkscape:flatsided="false" inkscape:randomized="0" inkscape:rounded="0" sodipodi:arg1="0" sodipodi:arg2="0.78539816" sodipodi:cx="16.719437" sodipodi:cy="9.9390287" sodipodi:r1="1.9852057" sodipodi:r2="0.99260283" sodipodi:sides="4" sodipodi:type="star" class="st0" d="
		M18.7,9.9l-1.3,0.7l-0.7,1.3L16,10.6l-1.3-0.7L16,9.2L16.7,8l0.7,1.3L18.7,9.9z"/>
	
		<path id="path868" inkscape:flatsided="false" inkscape:randomized="0" inkscape:rounded="0" sodipodi:arg1="0" sodipodi:arg2="0.78539816" sodipodi:cx="35.866611" sodipodi:cy="16.065296" sodipodi:r1="1.5019623" sodipodi:r2="0.75098115" sodipodi:sides="4" sodipodi:type="star" class="st0" d="
		M37.4,16.1l-1,0.5l-0.5,1l-0.5-1l-1-0.5l1-0.5l0.5-1l0.5,1L37.4,16.1z"/>
	
		<path id="path870" inkscape:flatsided="false" inkscape:randomized="0" inkscape:rounded="0" sodipodi:arg1="0" sodipodi:arg2="0.78539816" sodipodi:cx="8.8453038" sodipodi:cy="19.73136" sodipodi:r1="1.5019623" sodipodi:r2="0.75098115" sodipodi:sides="4" sodipodi:type="star" class="st0" d="
		M10.3,19.7l-1,0.5l-0.5,1l-0.5-1l-1-0.5l1-0.5l0.5-1l0.5,1L10.3,19.7z"/>
</g>
</svg>
