<?xml version="1.0" encoding="UTF-8" standalone="no"?>
<!-- Created with Inkscape (http://www.inkscape.org/) -->
<svg width="48" height="48" viewBox="0 0 12.7 12.7" version="1.1" id="svg1" xmlns:xlink="http://www.w3.org/1999/xlink"
  xmlns="http://www.w3.org/2000/svg" xmlns:svg="http://www.w3.org/2000/svg">
  <g id="layer1">
    <circle style="fill:none;fill-opacity:1;stroke:#ffffff;stroke-width:0.264583;stroke-opacity:1" id="path1"
      cx="6.3499999" cy="6.3499999" r="3.9303694" />
    <path
      style="fill:none;fill-opacity:1;stroke:#ffffff;stroke-width:0.264583;stroke-linecap:round;stroke-linejoin:round;stroke-opacity:1"
      id="path1-2-9-5-2"
      d="M 5.5544293,7.7162063 A 0.74436885,0.74436885 0 0 1 5.1923354,8.526588 0.74436885,0.74436885 0 0 1 4.31188,8.4142103 0.74436885,0.74436885 0 0 1 4.1649462,7.5388584 0.74436885,0.74436885 0 0 1 4.9604531,7.1451589" />
    <path
      style="fill:none;fill-opacity:1;stroke:#ffffff;stroke-width:0.264583;stroke-linecap:round;stroke-linejoin:round;stroke-opacity:1"
      id="path1-2-9-5-2-6"
      d="m -7.1364615,-5.004421 a 0.74436885,0.74436885 0 0 1 -0.3620938,0.8103817 0.74436885,0.74436885 0 0 1 -0.8804555,-0.1123777 0.74436885,0.74436885 0 0 1 -0.1469338,-0.8753519 0.74436885,0.74436885 0 0 1 0.7955069,-0.3936995"
      transform="scale(-1)" />
    <path
      style="fill:none;fill-opacity:1;stroke:#ffffff;stroke-width:0.264583;stroke-linecap:round;stroke-linejoin:round;stroke-opacity:1"
      id="path1-2"
      d="M 7.7177789,5.5836185 A 1.567852,1.567852 0 0 1 7.4437877,7.4732934 1.567852,1.567852 0 0 1 5.5474906,7.6968996" />
    <path
      style="fill:none;fill-opacity:1;stroke:#ffffff;stroke-width:0.264583;stroke-linecap:round;stroke-linejoin:round;stroke-opacity:1"
      id="path1-2-5"
      d="m -4.9681051,-7.1204778 a 1.567852,1.567852 0 0 1 -0.2739912,1.8896749 1.567852,1.567852 0 0 1 -1.8962971,0.2236062"
      transform="scale(-1)" />
    <circle style="fill:#ffffff;fill-opacity:1;stroke:#ffffff;stroke-width:0.264583;stroke-opacity:1" id="path1-2-9"
      cx="6.3499999" cy="6.3499999" r="0.53693539" />
  </g>
</svg>