<?xml version="1.0" encoding="UTF-8"?>
<svg version="1.1" viewBox="0 0 48 48" xmlns="http://www.w3.org/2000/svg">
    <defs>
        <style>.a{fill:none;stroke:#fff;stroke-linecap:round;stroke-linejoin:round;}</style>
    </defs>
    <g transform="matrix(3.1461 0 0 3.1461 -51.77 -50.449)" fill="none" stroke="#fff" stroke-linecap="round" stroke-linejoin="round" stroke-width=".31786">
        <path d="m21.827 18.03-1.1043 11.269" stop-color="#000000" style="-inkscape-stroke:none;font-variation-settings:normal"/>
        <path d="m20.616 18.03-1.1043 11.269" stop-color="#000000" style="-inkscape-stroke:none;font-variation-settings:normal"/>
        <path d="m19.405 18.03-1.1043 11.269" stop-color="#000000" style="-inkscape-stroke:none;font-variation-settings:normal"/>
    </g>
    <g transform="matrix(3.1461 0 0 3.1461 -51.77 -65.835)" fill="none" stroke="#fff" stroke-linecap="round" stroke-linejoin="round" stroke-width=".31786">
        <path d="m29.868 22.92-1.1043 11.269" stop-color="#000000" style="-inkscape-stroke:none;font-variation-settings:normal"/>
        <path d="m28.656 22.92-1.1043 11.269" stop-color="#000000" style="-inkscape-stroke:none;font-variation-settings:normal"/>
        <path d="m27.445 22.92-1.1043 11.269" stop-color="#000000" style="-inkscape-stroke:none;font-variation-settings:normal"/>
    </g>
    <path d="m34.574 6.274c-1.3509 23.748-27.111 3.0475-28.769 35.452" fill="none" stop-color="#000000" stroke="#fff" stroke-linecap="round" stroke-linejoin="round" style="-inkscape-stroke:none;font-variation-settings:normal"/>
    <path d="m38.385 6.274c-1.7972 27.757-27.65 6.7119-28.769 35.452" fill="none" stop-color="#000000" stroke="#fff" stroke-linecap="round" stroke-linejoin="round" style="-inkscape-stroke:none;font-variation-settings:normal"/>
    <path d="m42.196 6.274c-2.3608 32.292-27.892 11.49-28.769 35.452" fill="none" stop-color="#000000" stroke="#fff" stroke-linecap="round" stroke-linejoin="round" style="-inkscape-stroke:none;font-variation-settings:normal"/>
</svg>
