<?xml version="1.0" encoding="UTF-8"?>
<svg width="48" height="48" version="1.1" xmlns="http://www.w3.org/2000/svg">
 <style><![CDATA[.B{stroke-linecap:round}.C{stroke-linejoin:round}.D{stroke-miterlimit:10}]]></style>
 <g stroke="#fff">
  <g fill="none">
   <path d="M28 13c-2.5-6.5-15-6.5-15 4.5-12 0-12 16 0 16h10M26 20c3-7.5 11.5-4.5 11.5 2 9 0 9 11.5 0 11.5h-12" paint-order="markers stroke fill"/>
   <g class="B C D">
    <path d="m12.5 21.7v8"/>
    <path d="m12.5 26.75a2 2 0 1 1 4 0v3.3"/>
   </g>
   <path class="B C D" d="M22.738 28.991A2 2 0 0 1 21 30h0a2 2 0 0 1-2-2v-1.3a2 2 0 0 1 2-2h0a2 2 0 0 1 2 2v.65h-4M25.5 22v7a1 1 0 0 0 1 1h.3m1.61-.447c.365.307.759.447 1.645.447h.449c.73 0 1.322-.593 1.322-1.325h0c0-.732-.592-1.325-1.322-1.325h-.897c-.73 0-1.322-.593-1.322-1.325h0c0-.732.592-1.325 1.322-1.325h.449c.885 0 1.28.141 1.645.447"/>
  </g>
  <circle cx="34.5" cy="22.15" r=".7" fill="#fff"/>
  <path class="B C D" d="m34.5 24.6v5.3" fill="none"/>
 </g>
</svg>
