<?xml version="1.0" encoding="UTF-8"?>
<svg id="b" version="1.1" viewBox="0 0 48 48" xml:space="preserve" xmlns="http://www.w3.org/2000/svg"><defs><style>.c{fill:none;stroke:#fff;stroke-linecap:round;stroke-linejoin:round;}</style><style>.a{fill:none;stroke:#fff;stroke-linecap:round;stroke-linejoin:round;}</style><style>.a{fill:none;stroke:#fff;stroke-linecap:round;stroke-linejoin:round;}</style><style>.a{fill:none;stroke:#fff;stroke-linecap:round;stroke-linejoin:round;}</style></defs><path transform="matrix(.04886 0 0 .04886 5.0442 4.4627)" d="m653.17 350.24v102.24c22.53 0 40.76-18.33 40.76-40.89v-20.45c0-22.57-18.23-40.9-40.76-40.9zm81.6-61.28v224.8c22.52 0 40.83-18.27 40.83-40.9v-143c0-22.63-18.31-40.9-40.83-40.9zm-652.84 102.18v20.45c0 22.56 18.23 40.89 40.83 40.89v-102.24c-22.6 0-40.83 18.33-40.83 40.9zm-81.6-61.28v143c0 22.63 18.24 40.9 40.76 40.9v-224.8c-22.52 0-40.76 18.27-40.76 40.9z" fill="none" stroke="#fff" stroke-linecap="round" stroke-linejoin="round" stroke-width="20.467"/><path transform="matrix(.04886 0 0 .04886 5.0442 4.4627)" d="m163.52 248.06v306.53c0 45.13 36.55 81.73 81.6 81.73v-469.99c-45.05 0-81.6 36.61-81.6 81.73z" fill="url(#b-2)" stroke="#fff" stroke-linecap="round" stroke-linejoin="round" stroke-width="20.467"/><path transform="matrix(.04886 0 0 .04886 5.0442 4.4627)" d="m530.74 166.33v469.99c45.05 0 81.6-36.6 81.6-81.73v-306.53c0-45.12-36.55-81.73-81.6-81.73z" fill="url(#c)" stroke="#fff" stroke-linecap="round" stroke-linejoin="round" stroke-width="20.467"/><path transform="matrix(.04886 0 0 .04886 5.0442 4.4627)" d="m428.73 431.97h-81.6c-22.52 0-40.83 18.33-40.83 40.89v245.26c0 45.12 36.54 81.66 81.66 81.66 45.06 0 81.6-36.54 81.6-81.66v-245.26c0-22.56-18.31-40.89-40.83-40.89z" fill="url(#d)" stroke="#fff" stroke-linecap="round" stroke-linejoin="round" stroke-width="20.467"/><path transform="matrix(.04886 0 0 .04886 5.0442 4.4627)" d="m428.73 367.76h-81.6c-22.52 0-40.83-18.34-40.83-40.9v-245.25c0-45.13 36.54-81.66 81.66-81.66 45.06 0 81.6 36.53 81.6 81.66v245.25c0 22.56-18.31 40.9-40.83 40.9z" fill="url(#e)" stroke="#fff" stroke-linecap="round" stroke-linejoin="round" stroke-width="20.467"/></svg>
