<?xml version="1.0" encoding="UTF-8"?>
<svg version="1.1" viewBox="0 0 48 48" xmlns="http://www.w3.org/2000/svg">
 <defs>
  <style>.a{fill:none;stroke:#fff;stroke-linecap:round;stroke-linejoin:round;}</style>
 </defs>
 <circle class="a" cx="24" cy="24" r="21.5"/>
 <g transform="translate(-115.5 -42.1)" fill="none" stroke="#fff" stroke-linecap="round" stroke-linejoin="round" stroke-miterlimit="10">
  <line class="st5" x1="124" x2="124" y1="56.6" y2="64.7"/>
  <path class="st5" d="m124 61.3c0-1.1 0.9-2 2-2s2 0.9 2 2v3.3"/>
 </g>
 <g transform="translate(-103.5 -42.1)">
  <circle class="st6" cx="136" cy="56.9" r=".7" fill="#fff"/>
  <line class="st5" x1="136" x2="136" y1="59.3" y2="64.7" fill="none" stroke="#fff" stroke-linecap="round" stroke-linejoin="round" stroke-miterlimit="10"/>
 </g>
 <g transform="translate(-207.5 -42.1)">
  <path class="st5" d="m234.4 64.2c0.4 0.3 0.8 0.4 1.6 0.4h0.4c0.7 0 1.3-0.6 1.3-1.3v0c0-0.7-0.6-1.3-1.3-1.3h-0.9c-0.7 0-1.3-0.6-1.3-1.3v0c0-0.7 0.6-1.3 1.3-1.3h0.4c0.9 0 1.3 0.1 1.6 0.4" fill="none" stroke="#fff" stroke-linecap="round" stroke-linejoin="round" stroke-miterlimit="10"/>
 </g>
 <path class="st5" d="m18.2 21.5c-0.3 0.6-1 1-1.7 1v0c-1.1 0-2-0.9-2-2v-1.3c0-1.1 0.9-2 2-2v0c1.1 0 2 0.9 2 2v0.7h-4" fill="none" stroke="#fff" stroke-linecap="round" stroke-linejoin="round" stroke-miterlimit="10"/>
 <g transform="translate(-183.5 -42.1)">
  <path class="st5" d="m204 62.7c0 1.1 0.9 2 2 2v0c1.1 0 2-0.9 2-2v-1.3c0-1.1-0.9-2-2-2v0c-1.1 0-2 0.9-2 2" fill="none" stroke="#fff" stroke-linecap="round" stroke-linejoin="round" stroke-miterlimit="10"/>
  <line class="st5" x1="204" x2="204" y1="59.3" y2="67.3" fill="none" stroke="#fff" stroke-linecap="round" stroke-linejoin="round" stroke-miterlimit="10"/>
 </g>
 <g transform="translate(.053192 1)">
  <g transform="translate(-239.55 -32.2)" fill="none" stroke="#fff" stroke-linecap="round" stroke-linejoin="round" stroke-miterlimit="10">
   <path class="st5" d="m254 59.3v3.3c0 1.1 0.9 2 2 2s2-0.9 2-2v-3.3"/>
   <line class="st5" x1="258" x2="258" y1="62.7" y2="64.7"/>
  </g>
  <g transform="translate(-204.13 -32.2)" fill="none" stroke="#fff" stroke-linecap="round" stroke-linejoin="round" stroke-miterlimit="10">
   <path class="st5" d="m225 61.3c0-1.1 0.9-2 2-2"/>
   <line class="st5" x1="225" x2="225" y1="59.3" y2="64.7"/>
  </g>
  <g transform="translate(-29.264 -32.2)">
   <path class="st5" d="m58 62.7c0 1.1-0.9 2-2 2v0c-1.1 0-2-0.9-2-2v-1.3c0-1.1 0.9-2 2-2v0c1.1 0 2 0.9 2 2" fill="none" stroke="#fff" stroke-linecap="round" stroke-linejoin="round" stroke-miterlimit="10"/>
   <line class="st5" x1="58" x2="58" y1="64.7" y2="59.3" fill="none" stroke="#fff" stroke-linecap="round" stroke-linejoin="round" stroke-miterlimit="10"/>
  </g>
  <g transform="translate(-53.264 -32.2)">
   <path class="st5" d="m88 61.3c0-1.1-0.9-2-2-2v0c-1.1 0-2 0.9-2 2v1.3c0 1.1 0.9 2 2 2v0c1.1 0 2-0.9 2-2" fill="none" stroke="#fff" stroke-linecap="round" stroke-linejoin="round" stroke-miterlimit="10"/>
   <line class="st5" x1="88" x2="88" y1="64.7" y2="56.7" fill="none" stroke="#fff" stroke-linecap="round" stroke-linejoin="round" stroke-miterlimit="10"/>
  </g>
  <g transform="translate(-55.553 -32.2)">
   <path class="st5" d="m64 61.3c0-1.1 0.9-2 2-2v0c1.1 0 2 0.9 2 2v1.3c0 1.1-0.9 2-2 2v0c-1.1 0-2-0.9-2-2" fill="none" stroke="#fff" stroke-linecap="round" stroke-linejoin="round" stroke-miterlimit="10"/>
   <line class="st5" x1="64" x2="64" y1="64.7" y2="56.7" fill="none" stroke="#fff" stroke-linecap="round" stroke-linejoin="round" stroke-miterlimit="10"/>
  </g>
  <g transform="translate(-17.264 -32.2)">
   <path class="st5" d="m58 62.7c0 1.1-0.9 2-2 2v0c-1.1 0-2-0.9-2-2v-1.3c0-1.1 0.9-2 2-2v0c1.1 0 2 0.9 2 2" fill="none" stroke="#fff" stroke-linecap="round" stroke-linejoin="round" stroke-miterlimit="10"/>
   <line class="st5" x1="58" x2="58" y1="64.7" y2="59.3" fill="none" stroke="#fff" stroke-linecap="round" stroke-linejoin="round" stroke-miterlimit="10"/>
  </g>
 </g>
 <g fill="none" stroke="#fff">
  <path d="m8.3992 38.835h31.157"/>
  <path d="m23.998 38.919v6.5446" stroke-width="1px"/>
  <path d="m15.998 38.919v5.0586"/>
  <path d="m31.998 38.919v5.0586"/>
 </g>
</svg>
