<?xml version="1.0" encoding="UTF-8"?>
<svg width="48" height="48" version="1.1" viewBox="0 0 48 48" xml:space="preserve" xmlns="http://www.w3.org/2000/svg"><defs><style>.a{fill:none;stroke:#fff;stroke-linecap:round;stroke-linejoin:round;}</style></defs><g fill="none" stroke="#fff" stroke-linecap="round" stroke-linejoin="round"><path d="m19.867244 5.3314491c-5.92563 0.9539119-10.4099557 5.8259249-10.4095631 11.7280239 4.385e-4 6.590652 5.5928601 11.896112 12.5390601 11.89565l4.008101-2.67e-4c6.946202-4.62e-4 12.537917-5.306666 12.537478-11.897318-2.68e-4 -4.031597-2.093026-7.5822817-5.295575-9.7626346m-1.80919-1.0286114c-1.177387-0.5495477-2.456677-0.9324937-3.802509-1.1168346 0.380443-2.8981771-9.816794-4.31030159-6.916922 1.9684481 1.458707 3.1583615 10.976716 5.0462205 13.773069-2.4194333-4.221539 3.6794473-8.993713 3.2384242-10.202324 0.8653028" stop-color="#000000"/><path d="m28.46546 20.850826c-0.694941 4.658317-6.992265 3.520496-7.670959 0.433524 3.269834 0.522991 5.120484 0.451431 7.670959-0.433524z" stop-color="#000000"/><path d="m32.755087 18.396693a1.3265119 1.7003053 0 0 1-1.326513 1.700307 1.3265119 1.7003053 0 0 1-1.326511-1.700307 1.3265119 1.7003053 0 0 1 1.326511-1.700305 1.3265119 1.7003053 0 0 1 1.326513 1.700305z" stop-color="#000000"/><path d="m19.599385 18.507445a1.3265119 1.7003053 0 0 1-1.326513 1.700306 1.3265119 1.7003053 0 0 1-1.326511-1.700306 1.3265119 1.7003053 0 0 1 1.326511-1.700305 1.3265119 1.7003053 0 0 1 1.326513 1.700305z" stop-color="#000000"/><path d="m29.203295 28.631358c2.846561 1.903778 2.662173 5.676332 2.789179 9.101911-3.049387 2.754227-7.67166 2.753787-12.055142 1.048202l1.06117-2.829246" stop-color="#000000"/><path d="m22.173454 31.928577c3.083696-1.295207 6.428409 0.468353 4.383052 2.620323-1.628337 1.713212-5.41254 1.734149-7.292741 0.687036-2.11116-1.175737 0.762416-5.591805 2.909689-3.307359z" stop-color="#000000"/><path d="m19.601343 28.805924c-1.140388 1.398288-1.133003 4.034329-1.04443 4.921041" stop-color="#000000"/><path d="m31.23807 30.742627c1.846288-0.835628 3.745571-1.269216 5.537836-2.514687 0.451169-0.313523 1.395357-1.474154 0.77486-2.748915-0.443204-0.910525-1.108274-0.779555-1.771311-0.719913" stop-color="#000000"/><path d="m33.038244 26.979405c0.272224 0.435063 0.830006 1.446833 0.363345 2.511566" stop-color="#000000"/><path d="m20.462583 39.055323c0.254826 0.189172-1.030383 4.445177-0.905591 5.251487 1.62668 1.111516 3.560883 1.142957 5.576014 0.890171 0.389478-1.381789 0.833674-2.917145 1.948021-4.027208" stop-color="#000000"/><path d="m26.490235 42.162379 0.08841 2.207299c0.707493 0.973229 3.528102 0.641389 4.966399-0.570842-0.175257-1.655338-0.283512-3.399771-0.226972-5.294807" stop-color="#000000"/></g></svg>
