<svg width="48" height="48" version="1.1" viewBox="0 0 48 48" xmlns="http://www.w3.org/2000/svg"><defs><style>.cls-1{fill:none;stroke:#fff;stroke-linecap:round;stroke-linejoin:round;}</style></defs><g transform="matrix(1.1273 0 0 1.1273 -2.5481 -2.6843)" fill="none" stroke="#fff" stroke-linecap="round" stroke-linejoin="round" stroke-width=".88708"><path d="m16.486 21.458-2.2496-2.1775c-0.87284-0.87211-2.2898-0.87211-3.1627 0-0.86449 0.86638-0.86449 2.2665 0 3.1329l0.30132 0.29605m0.0015 4.4533c-0.64059 1.5884-0.97693 3.2931-0.98008 5.0251v6.4676c0 0.78822 0.64079 1.4272 1.4312 1.4272h24.366c0.77679-0.0189 1.3966-0.65237 1.3963-1.4272v-6.4676c0.0057-1.724-0.31938-3.4225-0.94701-5.0074m-0.40988-4.0833 0.72156-0.71161c0.86833-0.8648 0.86833-2.2681 0-3.1329-0.86882-0.87521-2.2869-0.87521-3.1557 0l-2.2681 2.3604" stroke-width=".88708"/><path d="m7.1476 24.908h32.805s-14.804-9.5053-32.805 0z" stroke-width=".88708px"/><path d="m14.044 16.877h19.596l-3.0704-9.6165-9.2388 1.4321-4.4643-1.4242z" stroke-width=".88708px"/><g transform="translate(0 1.7524)"><path d="m29.77 33.583a4.107 4.0962 0 1 1 4.0728-4.0848 4.0956 4.0848 0 0 1-4.0956 4.0848z" stroke-width=".88708"/><path d="m18.322 33.584a4.107 4.0962 0 1 1 4.0728-4.0848 4.0956 4.0848 0 0 1-4.0956 4.0848z" stroke-width=".88708"/><path d="m22.394 29.5s1.5231-1.5716 3.2346 0" stroke-width=".88708px"/></g></g></svg>
