<?xml version="1.0" encoding="utf-8"?>
<svg
	version="1.1"
	xmlns="http://www.w3.org/2000/svg"
	xmlns:xlink="http://www.w3.org/1999/xlink"
	x="0%" y="0%"
	width="100%" height="100%"
	viewBox="0 0 48.0 48.0"
	enable-background="new 0 0 48.0 48.0"
	xml:space="preserve">
	<path
		fill="#FFFFFF"
		stroke="#FFFFFF"
		fill-opacity="0.004"
		stroke-opacity="1.000"
		fill-rule="nonzero"
		stroke-width="1.3567729"
		stroke-linejoin="miter"
		stroke-linecap="square"
		d="M17.49,1.00C20.32,1.00,22.61,3.55,22.61,6.69C22.61,9.83,20.32,12.37,17.49,12.37C14.67,12.37,12.38,9.83,12.38,6.69C12.38,3.55,14.67,1.00,17.49,1.00z"/>
	<path
		fill="#FFFFFF"
		stroke="#FFFFFF"
		fill-opacity="0.004"
		stroke-opacity="1.000"
		fill-rule="nonzero"
		stroke-width="1.3567729"
		stroke-linejoin="miter"
		stroke-linecap="square"
		d="M10.53,13.25L19.91,13.25A1.56 1.56 0 0 1 21.48,14.81L21.48,27.44A1.56 1.56 0 0 1 19.91,29.00L10.53,29.00A1.56 1.56 0 0 1 8.96,27.44L8.96,14.81A1.56 1.56 0 0 1 10.53,13.25z"/>
	<path
		fill="#FFFFFF"
		stroke="#FFFFFF"
		fill-opacity="0.004"
		stroke-opacity="1.000"
		fill-rule="nonzero"
		stroke-width="1.3567729"
		stroke-linejoin="miter"
		stroke-linecap="square"
		d="M8.96,14.12C-2.41,24.62,6.69,34.25,11.24,34.25"/>
	<path
		fill="#FFFFFF"
		stroke="#FFFFFF"
		fill-opacity="0.004"
		stroke-opacity="1.000"
		fill-rule="nonzero"
		stroke-width="1.3567729"
		stroke-linejoin="miter"
		stroke-linecap="square"
		d="M12.37,42.12L44.22,37.75L33.49,31.64L3.28,35.12L12.37,42.12z"/>
	<path
		fill="#FFFFFF"
		stroke="#FFFFFF"
		fill-opacity="0.004"
		stroke-opacity="1.000"
		fill-rule="nonzero"
		stroke-width="1.3567729"
		stroke-linejoin="miter"
		stroke-linecap="square"
		d="M1.00,39.50L12.38,46.50L46.50,42.12"/>
	<path
		fill="#FFFFFF"
		stroke="#FFFFFF"
		fill-opacity="0.004"
		stroke-opacity="1.000"
		fill-rule="nonzero"
		stroke-width="1.3567729"
		stroke-linejoin="miter"
		stroke-linecap="square"
		d="M21.29,14.08C26.40,19.98,26.40,30.31,33.43,31.78"/>
</svg>