<?xml version="1.0" encoding="UTF-8"?>
<svg version="1.1" viewBox="0 0 48 48" xml:space="preserve" xmlns="http://www.w3.org/2000/svg"><defs><style>.a{fill:none;stroke:#fff;stroke-linecap:round;stroke-linejoin:round;}</style></defs><g transform="matrix(.91298 0 0 .91298 3.7129 3.6063)" fill="none" stroke="#fff" stroke-linecap="round" stroke-linejoin="round" stroke-width="1.0953"><g fill="none" stroke="#fff" stroke-linecap="round" stroke-linejoin="round" stroke-width="1.0953">
	<path d="m32.6 7.2c-1 4.6-1.4 6.7-2.3 10s-1.4 6.1-2.5 7.6c-0.8 1.1-2.1 1.8-3.5 1.9-1.3 0.1-2.7 0.1-4 0-1.4-0.1-2.7-0.8-3.5-1.9-1.1-1.4-1.7-4.4-2.5-7.6s-1.3-5.4-2.3-10l-1.5 0.1c-0.6 0-1.1 0.1-1.6 0.2 0 0 0.6 9.4 0.9 13.4 0.3 4.2 0.8 11.2 1.2 16.6 0 0 0.9 0.1 2.3 0.2s2.2 0.1 2.2 0.1c0.6-2.4 1.4-5.6 2.2-7 0.5-0.8 1.4-1.3 2.4-1.3 0.7-0.1 1.4-0.1 2.2-0.1 0.7 0 1.4 0 2.2 0.1 1 0 1.9 0.5 2.4 1.3 0.9 1.4 1.6 4.6 2.2 7 0 0 0.7 0 2.2-0.1s2.3-0.2 2.3-0.2c0.5-5.3 1-12.4 1.2-16.6 0.3-4 0.9-13.4 0.9-13.4-0.5-0.1-1-0.1-1.6-0.2z"/>
	<path d="m44.4 12.8c-0.6-6-4.6-7.2-8.1-7.8-2.3-0.3-4.6-0.5-6.9-0.6-1.8-0.1-5.9-0.2-7.1-0.2s-5.4 0.1-7.1 0.2c-2.4 0-4.7 0.2-7 0.6-3.5 0.6-7.5 1.9-8.1 7.8-0.2 2-0.2 4-0.2 6 0 2.7 0.2 5.4 0.6 8.1 0.2 2.3 0.7 4.5 1.3 6.8 0.9 2.6 1.7 3.4 2.6 4.1 1.6 1.1 3.3 1.7 5.2 2 8.4 0.9 16.8 0.9 25.2 0 1.9-0.3 3.6-0.9 5.2-2 1-0.8 1.8-1.5 2.6-4.1 0.6-2.2 1.1-4.5 1.3-6.8 0.3-2.7 0.5-5.4 0.6-8.1 0.1-2 0-4-0.1-6z"/>
</g></g></svg>
