<?xml version="1.0" encoding="UTF-8" standalone="no"?>
<!-- Created with Inkscape (http://www.inkscape.org/) -->

<svg
   width="48"
   height="48"
   viewBox="0 0 48 48"
   version="1.1"
   id="svg5"
   inkscape:version="1.1.1 (3bf5ae0d25, 2021-09-20)"
   sodipodi:docname="hoot_mobile.svg"
   xmlns:inkscape="http://www.inkscape.org/namespaces/inkscape"
   xmlns:sodipodi="http://sodipodi.sourceforge.net/DTD/sodipodi-0.dtd"
   xmlns="http://www.w3.org/2000/svg"
   xmlns:svg="http://www.w3.org/2000/svg">
  <sodipodi:namedview
     id="namedview7"
     pagecolor="#505050"
     bordercolor="#eeeeee"
     borderopacity="1"
     inkscape:pageshadow="0"
     inkscape:pageopacity="0"
     inkscape:pagecheckerboard="0"
     inkscape:document-units="px"
     showgrid="false"
     units="px"
     inkscape:zoom="8.09375"
     inkscape:cx="21.436293"
     inkscape:cy="37.003861"
     inkscape:window-width="1050"
     inkscape:window-height="1055"
     inkscape:window-x="0"
     inkscape:window-y="19"
     inkscape:window-maximized="1"
     inkscape:current-layer="layer1" />
  <defs
     id="defs2" />
  <g
     inkscape:label="Layer 1"
     inkscape:groupmode="layer"
     id="layer1">
    <path
       style="fill:none;stroke:#ffffff;stroke-width:1px;stroke-linecap:round;stroke-linejoin:round;stroke-opacity:1"
       d="m 2.4998368,36.487068 c 0,0 5.4998867,-2.171921 10.0606812,-8.124239 4.560795,-5.952317 9.744715,-11.333448 17.490377,-14.43952 3.545819,-1.421902 4.716884,-2.431268 4.716884,-2.431268 0,0 -4.039884,5.421845 -5.870913,6.242179 0,0 9.527048,-5.575942 16.603298,-4.029423 0,0 -8.047328,2.121952 -13.460824,6.800788 -0.02187,-0.09676 2.860542,0.186436 9.836057,-1.346162 0.03221,0.06378 -0.771877,1.893315 -3.816606,2.734028 -3.603137,0.994901 -7.473378,1.796191 -8.595357,2.950345 0,0 5.614497,-0.725494 7.88285,0.403546 C 31.62274,26.7732 25.167472,28.236704 16.490269,32.815175 8.2800278,37.147257 2.4998368,36.487068 2.4998368,36.487068 Z"
       id="path866"
       sodipodi:nodetypes="csscccccsccsc" />
  </g>
</svg>
