<?xml version="1.0" encoding="UTF-8"?>
<svg version="1.1" viewBox="0 0 48 48" xmlns="http://www.w3.org/2000/svg">
 <defs>
  <style>.a{fill:none;stroke:#fff;stroke-linecap:round;stroke-linejoin:round;}</style>
 </defs>
 <circle class="a" cx="24" cy="24" r="21.5"/>
 <g fill="none" stroke="#fff" stroke-linecap="round" stroke-linejoin="round" stroke-miterlimit="10">
  <g transform="matrix(1.5349 0 0 1.5349 -180.25 -70.978)" stroke-width=".65152">
   <line class="st5" x1="124" x2="124" y1="56.6" y2="64.7"/>
   <path class="st5" d="m124 61.3c0-1.1 0.9-2 2-2s2 0.9 2 2v3.3"/>
  </g>
  <g transform="matrix(1.5349 0 0 1.5349 -284.76 -70.978)" stroke-width=".65152">
   <path class="st5" d="m204 62.7c0 1.1 0.9 2 2 2s2-0.9 2-2v-1.3c0-1.1-0.9-2-2-2s-2 0.9-2 2"/>
   <line class="st5" x1="204" x2="204" y1="59.3" y2="67.3"/>
  </g>
  <path class="st5" d="m19.215 25.106c0 1.6884 1.3814 3.0698 3.0698 3.0698 1.6884 0 3.0698-1.3814 3.0698-3.0698v-1.9953c0-1.6884-1.3814-3.0698-3.0698-3.0698-1.6884 0-3.0698 1.3814-3.0698 3.0698z"/>
 </g>
 <g stroke="#fff" stroke-linecap="round" stroke-linejoin="round">
  <line class="st5" x1="37.706" x2="37.706" y1="20.041" y2="28.329" fill="none" stroke-miterlimit="10"/>
  <circle cx="37.706" cy="15.896" r=".5911" fill="#fff" stroke-width=".25" style="paint-order:normal"/>
 </g>
</svg>
