<?xml version="1.0" encoding="utf-8"?>
<!-- Generator: Adobe Illustrator 27.2.0, SVG Export Plug-In . SVG Version: 6.00 Build 0)  -->
<svg version="1.1" id="Layer_3" xmlns="http://www.w3.org/2000/svg" xmlns:xlink="http://www.w3.org/1999/xlink" x="0px" y="0px"
	 viewBox="0 0 48 48" style="enable-background:new 0 0 48 48;" xml:space="preserve">
<style type="text/css">
	.st0{fill:none;stroke:#FFFFFF;stroke-miterlimit:10;}
	.st1{fill:none;stroke:#FFFFFF;stroke-linecap:round;stroke-linejoin:round;stroke-miterlimit:10;}
</style>
<g>
	<circle class="st0" cx="23.9" cy="30.9" r="6.8"/>
	<path class="st1" d="M35.8,13.6c0,0,0.9,1.2,0.2,2.4c-0.7,1.2-2.4-0.6-2.4-0.6s0.2-5.8-3.8-7.8c0,0,0.2,3-1.4,4
		c-1.6,1-5-5.2-2.6-10.7c0,0-7.2,1.1-10.2,14.5c0,0-2.6,0.2-1.2-3.9c-4.2,6.8-7.1,13.7-6.6,20.6c0.6,8.4,7.6,15,16.2,15
		s15.7-6.7,16.3-15.1C40.2,31.9,41.6,18.7,35.8,13.6z"/>
</g>
</svg>
