<?xml version="1.0" encoding="UTF-8"?>
<svg version="1.1" viewBox="0 0 48 48" xmlns="http://www.w3.org/2000/svg">
    <defs>
        <style>.a{fill:none;stroke:#fff;stroke-linecap:round;stroke-linejoin:round;}</style>
    </defs>
    <path d="m6.2656 41.453 0.13134-13.127 3.9314 0.03681c-0.11385 5.7569 6.7532 4.9491 6.7417 0.07245l3.3501 0.03101-0.04654 4.6502c4.2033-1.488 4.9175 5.3115-0.03853 3.8509l-0.04627 4.626z" fill="none" stop-color="#000000" stroke="#fff" stroke-linecap="round" stroke-linejoin="round" style="-inkscape-stroke:none;font-variation-settings:normal"/>
    <path d="m36.82 42.372-13.128-0.2411-0.0031-3.6816c5.7578 0.05208 4.871-6.8059-0.0048-6.7421l-0.0028-3.3503 4.6504-0.0035c-1.533-4.1871 5.2584-4.9742 3.8511-0.0031l4.6262-0.0035z" fill="none" stop-color="#000000" stroke="#fff" stroke-linecap="round" stroke-linejoin="round" style="-inkscape-stroke:none;font-variation-settings:normal"/>
    <path d="m41.734 12.964-6.8754 11.183-3.3863-2.1782c3.0634-4.8755-3.167-7.4785-5.6694-3.2929l-2.8911-1.8737 2.4356-3.9616c-4.3691-0.89015-1.4784-7.0858 2.0169-3.2807l2.4229-3.941z" fill="none" stop-color="#000000" stroke="#fff" stroke-linecap="round" stroke-linejoin="round" style="-inkscape-stroke:none;font-variation-settings:normal"/>
    <path d="m7.1186 10.223h13.128v3.9316c-5.7578-0.05626-4.8762 6.8024 0 6.7421v3.3503h-4.6504c1.5299 4.1882-5.262 4.9704-3.8511 0h-4.6262z" fill="none" stop-color="#000000" stroke="#fff" stroke-linecap="round" stroke-linejoin="round" style="-inkscape-stroke:none;font-variation-settings:normal"/>
</svg>
