<?xml version="1.0" encoding="UTF-8"?>
<svg width="48" height="48" version="1.1" viewBox="0 0 48 48" xml:space="preserve" xmlns="http://www.w3.org/2000/svg"><defs><style>.a{fill:none;stroke:#fff;stroke-linecap:round;stroke-linejoin:round;}</style></defs><path d="m8.2285532 37.354949c-3.6307109-5.772228-3.5022108-16.419461 0.605174-18.02647-0.7826941-4.927321 4.9701938-7.534607 7.1494678-7.660765 0.829852-2.9536892 2.852382-3.9675677 4.753493-5.1853866 1.639827-1.0504452 2.565276-2.3292737 3.263312-3.495002 0.698036 1.1657283 1.623484 2.4445568 3.263311 3.495002 1.901111 1.2178189 3.923641 2.2316974 4.753494 5.1853866 2.179273 0.126158 7.932161 2.733444 7.149467 7.660765 4.107386 1.607009 4.235886 12.254242 0.605174 18.02647-3.064813 4.872544-8.650767 7.953115-15.771447 7.635382-7.120678 0.317733-12.706632-2.762838-15.7714458-7.635382z" fill="none" stop-color="#000000" stroke="#fff" stroke-linecap="round" stroke-linejoin="round"/></svg>
