<svg xmlns="http://www.w3.org/2000/svg" viewBox="0 0 48 48"><defs><style>.a{fill:none;stroke:#fff;stroke-linecap:round;stroke-linejoin:round;}</style></defs><path class="a" d="M19.06,22v5a3,3,0,0,0,3,3h0a3,3,0,0,0,3-3V22"/><path class="a" d="M32.43,22v5a3,3,0,0,0,3,3h0a3,3,0,0,0,3-3V22"/><line class="a" x1="9.5" y1="17.93" x2="9.5" y2="30.07"/><path class="a" d="M9.5,25.06a3,3,0,0,1,3-3h0a3,3,0,0,1,3,3v5"/><line class="a" x1="28.73" y1="17.93" x2="28.73" y2="30.07"/><path class="a" d="M7.48,5.5a2,2,0,0,0-2,2h0v33a2,2,0,0,0,2,2H40.52a2,2,0,0,0,2-2h0v-33a2,2,0,0,0-2-2H7.48Z"/></svg>