<svg xmlns="http://www.w3.org/2000/svg" viewBox="0 0 48 48"><defs><style>.a{fill:none;stroke:#fff;stroke-linecap:round;stroke-linejoin:round;}</style></defs> <path class="a"          d="M20.31,13.11L20.25,7.88L27.75,7.88L27.75,13.50A3.73 3.58 188.71 0 1 20.31,13.11z"/> <path class="a"          d="M9.81,24.73L9.75,19.49L17.25,19.49L17.25,25.12A3.73 3.58 188.71 0 1 9.81,24.73z"/> <path class="a"          d="M20.31,24.73L20.25,19.49L27.75,19.49L27.75,25.12A3.73 3.58 188.71 0 1 20.31,24.73z"/> <path class="a"          d="M30.81,24.73L30.75,19.49L38.25,19.49L38.25,25.12A3.73 3.58 188.71 0 1 30.81,24.73z"/> <path class="a"          d="M20.31,36.35L20.25,31.12L27.75,31.12L27.75,36.74A3.73 3.58 188.71 0 1 20.31,36.35z"/></svg>