<?xml version="1.0" encoding="UTF-8"?>
<svg width="48" height="48" version="1.1" viewBox="0 0 48 48" xml:space="preserve" xmlns="http://www.w3.org/2000/svg"><defs><style>.a{fill:none;stroke:#fff;stroke-linecap:round;stroke-linejoin:round;}</style></defs><g fill="none" stroke="#fff" stroke-linecap="round" stroke-linejoin="round"><path d="m10.734548 20.764351-7.2037949 1.31572 6.6582879 12.854486 8.455237-2.882537m0.0578-1.015443-6.916469-10.069922m17.373267-7.41946-17.373267 7.41946-1.051058-0.202304-2.9314145-5.26963 18.2876275-6.8903899 2.976658 4.3224219m8.143472 7.802629-8.052018-7.182187-0.09145-0.620442 5.308376-3.6105217 9.802943 7.1002217-5.752938 4.428551m-1.214909-0.115622 1.214909 0.115622 6.043473 2.908414-21.372731 13.464717-4.452264-5.166115 0.0578-1.015443 18.508816-10.307195" stop-color="#000000"/><path d="m15.046719 33.65764 3.663031 5.736928" stop-color="#000000"/><path d="m22.596878 36.96722-3.888274 2.428475-0.204092-6.953472" stop-color="#000000"/><path d="m22.628656 26.335784c-0.05311 0.993919-0.981514 2.244723-2.144354 2.200699-1.16284 0.04402-2.09124-1.20678-2.144354-2.200699-0.125136-2.341798 1.315041-3.007574 2.144354-3.007574s2.26949 0.665776 2.144354 3.007574z" stop-color="#000000"/><path d="m28.082761 24.41149 2.3e-4 -0.0018c0.214948-1.669056 1.397157-2.171972 2.11793-2.171972 0.582894 0 1.467572 0.328911 1.898392 1.337513" stop-color="#000000"/><path d="m31.096651 22.465989c0.369051-1.251963 1.370396-1.64705 2.009239-1.64705 0.550733 0 1.370871 0.29362 1.823066 1.17672" stop-color="#000000"/><path d="m26.238562 24.751969c-0.390715 0.828276-1.641552 1.58263-2.650922 1.156454-1.039837-0.351231-1.42507-1.726259-1.127953-2.590042 0.700045-2.035182 2.199388-2.120485 2.930115-1.84327 0.730726 0.277215 1.769326 1.325337 0.84876 3.276858z" stop-color="#000000"/><path d="m26.922411 18.222074c0.642609 0.567665 0.990319 1.863715 0.338409 2.625232-0.592468 0.808628-1.933677 0.766168-2.633124 0.27022-1.647984-1.168518-1.32689-2.497061-0.883159-3.056958 0.443732-0.559897 1.663801-1.17598 3.177874 0.161506z" stop-color="#000000"/><g><path d="m17.430347 29.185605c0.467108-0.707837 1.190554-0.950562 1.691293-0.950562 0.609175 0 1.547955 0.359234 1.953825 1.478102" stop-color="#000000" style="font-variation-settings:normal"/><path d="m24.10474 26.169877c0.688917 0.508044 0.614031 0.727742 0.870573 1.193686" stop-color="#000000" style="font-variation-settings:normal"/><path d="m26.671516 23.991931c1.031236-0.167164 1.832887 0.698742 1.958507 1.178638" stop-color="#000000" style="font-variation-settings:normal"/></g><path d="m27.84723 19.992449c0.733167 0 1.943768 0.520354 2.128151 2.259096" stop-color="#000000"/><path d="m29.018688 20.350141c0.21176-1.440266 1.241477-1.854236 1.863421-1.841566 0.681838 0.01389 1.832468 0.560088 1.806029 2.362262" stop-color="#000000"/><path d="m26.967867 18.12898c0.21176-1.440267 1.146382-1.759117 1.768326-1.74645 0.644283 0.01313 1.70714 0.501534 1.79996 2.075787" stop-color="#000000"/><path d="m17.98482 25.64665c-2.217694-0.332883-2.942781-2.883088-1.685186-4.030447 1.697662-1.548854 3.747131 0.540751 3.656375 1.650802" stop-color="#000000"/><path d="m16.533411 25.086887c-0.466408 0.160658-0.739496 0.500975-0.869759 0.997351" stop-color="#000000"/><path d="m13.711533 23.660704c0.365218-0.561443 1.226964-1.021628 1.876865-1.04507" stop-color="#000000"/><path d="m19.921483 22.929518c-0.357672-1.963409 1.598595-4.541854 3.956898-2.030374" stop-color="#000000"/></g></svg>
