<svg xmlns="http://www.w3.org/2000/svg" viewBox="0 0 48 48"><defs><style>.a{fill:none;stroke:#000;stroke-linecap:round;stroke-linejoin:round;}</style></defs><path class="a" d="M4.5,35.7581s1.3132-10.1817,5.639-10.1817c4.6274,0,5.8954,10.2019,5.8954,10.2019"/><path class="a" d="M9.8375,25.5764l5.5581.0293c4.6273,0,5.9763,10.1818,5.9763,10.1818"/><path class="a" d="M10.0622,25.3016A16.9411,16.9411,0,0,1,43.5,29.155v6.4934l-22.1287.1391"/><path class="a" d="M21.3718,35.7875,4.5,35.7582"/><path class="a" d="M14.9815,16.7865h7.1777v-3.775"/><path class="a" d="M22.1591,16.7865h8.2924v-4.12"/><path class="a" d="M11.59,21.2178h7.284V16.7865"/><path class="a" d="M18.8736,21.2178h7.4885V16.7865"/><path class="a" d="M26.3621,21.2178h7.5266V16.7865"/><path class="a" d="M20.4145,31.0139H26.349V26.2947"/><path class="a" d="M26.349,31.0139h7.4947V26.2947"/><path class="a" d="M33.8437,31.0139h6.8444V26.2947"/><path class="a" d="M17.36,26.2947h4.8936V21.2178"/><path class="a" d="M22.2535,26.2947H30.4V21.2178"/><path class="a" d="M30.4,26.2947h6.9281V21.2178"/><path class="a" d="M37.3279,26.2947H43.259"/><path class="a" d="M15.3956,25.6057V21.2178"/><path class="a" d="M30.4676,35.706V31.0139"/><path class="a" d="M37.2538,35.6641v-4.65"/><path class="a" d="M37.2538,31.0139H43.5"/><path class="a" d="M33.8887,21.2178h7.6392"/><path class="a" d="M30.4516,16.7865h7.6848"/><path class="a" d="M14.9356,31.0139h6.2781"/><path class="a" d="M7.2392,35.7582c0-2.104,2.8374-14.5257,6.2986.0147"/></svg>