<?xml version="1.0" encoding="utf-8"?>
<svg viewBox="0 0 48 48" xmlns="http://www.w3.org/2000/svg">
  <defs>
    <style>.a{fill:none;stroke:#fff;stroke-linecap:round;stroke-linejoin:round;}</style>
  </defs>
  <path style="stroke: rgb(255, 255, 255); fill: none; stroke-linecap: round; stroke-linejoin: round;" d="M 30.841 9.837 C 15.686 -1.558 -5.587 21.34 10.183 33.194 C 12.215 34.722 15.379 35.601 17.766 36.673 C 19.724 37.553 20.898 38.713 22.721 39.179 C 36.799 42.775 49.263 35.629 40.961 16.836 C 40.218 15.154 37.578 12.281 35.943 11.439 C 22.724 4.634 25.605 23.546 24.011 29.863 C 23.362 32.435 22.522 33.818 21.102 35.134 C 20.069 36.091 18.191 37.543 17.433 36.356 C 14.981 32.515 11.984 25.254 17.898 22.949 C 21.21 21.658 25.861 25.494 29.619 24.003 C 37.307 20.954 35.053 15.088 32.781 10.216"/>
</svg>
