<svg xmlns="http://www.w3.org/2000/svg" viewBox="0 0 48 48"><defs><style>.a{fill:none;stroke:#fff;stroke-linecap:round;stroke-linejoin:round;}.b{fill:#fff;}</style></defs><path class="a" d="M24,11.3722c5.1139,0,6.6588,2.4638,6.6588,2.4638s2.8876-3.0436,2.8876-5.5628c0-3.17-2.1963-5.2621-9.5464-5.2621s-9.5464,2.0918-9.5464,5.2621c0,2.5192,2.8877,5.5628,2.8877,5.5628S18.8857,11.3722,24,11.3722Z"/><path class="a" d="M24,21.8033l.6521.5033a44.16,44.16,0,0,0,2.9251-4.0652,1.5194,1.5194,0,0,0-1.8935-2.0564,1.6852,1.6852,0,1,0-3.3673,0,1.5194,1.5194,0,0,0-1.8935,2.0564,44.16,44.16,0,0,0,2.9251,4.0652Z"/><line class="a" x1="23.9996" y1="21.8033" x2="23.9996" y2="17.6565"/><circle class="b" cx="23.9996" cy="24.4074" r="0.75"/><path class="a" d="M36.3992,20.3738c1.58,4.8636-.2856,7.0942-.2856,7.0942s3.787,1.8058,6.1829,1.0273c3.0151-.98,4.3258-3.7149,2.0545-10.7052s-4.9394-8.4327-7.9545-7.4531c-2.3959.7785-4.3982,4.4654-4.3982,4.4654S34.8189,15.51,36.3992,20.3738Z"/><path class="a" d="M26.4786,23.5972l-.2773.7757a44.149,44.149,0,0,0,4.77,1.5257,1.5194,1.5194,0,0,0,1.3706-2.4363A1.6852,1.6852,0,1,0,31.3016,20.26a1.5193,1.5193,0,0,0-2.5408-1.1653,44.15,44.15,0,0,0-2.9624,4.0381Z"/><line class="a" x1="26.4786" y1="23.5972" x2="30.4224" y2="22.3158"/><path class="a" d="M31.66,34.9532c-4.1372,3.0059-6.8352,1.9207-6.8352,1.9207s-.5472,4.16.9335,6.1977c1.8635,2.5648,4.87,2.9661,10.8162-1.3541s6.4937-7.3036,4.63-9.8683c-1.4807-2.0381-5.6059-2.8031-5.6059-2.8031S35.7971,31.9474,31.66,34.9532Z"/><path class="a" d="M25.5286,26.5143l-.8233-.024a44.1459,44.1459,0,0,0,.023,5.0082,1.5194,1.5194,0,0,0,2.7406.5507A1.6851,1.6851,0,1,0,30.1931,30.07a1.5194,1.5194,0,0,0,.3231-2.7767A44.1555,44.1555,0,0,0,25.76,25.7238Z"/><line class="a" x1="25.5286" y1="26.5143" x2="27.966" y2="29.8691"/><path class="a" d="M16.3377,34.9532c-4.1372-3.0059-3.9388-5.9072-3.9388-5.9072s-4.1252.765-5.6059,2.8031c-1.8635,2.5648-1.3161,5.5481,4.63,9.8683s8.9527,3.9189,10.8162,1.3542c1.4807-2.0381.9335-6.1978.9335-6.1978S20.4749,37.9591,16.3377,34.9532Z"/><path class="a" d="M22.469,26.5142l-.2317-.79a44.1618,44.1618,0,0,0-4.7559,1.57,1.5193,1.5193,0,0,0,.3231,2.7766,1.6851,1.6851,0,1,0,2.7242,1.9792,1.5193,1.5193,0,0,0,2.7406-.5506,44.1459,44.1459,0,0,0,.023-5.0082Z"/><line class="a" x1="22.469" y1="26.5142" x2="20.0316" y2="29.869"/><path class="a" d="M11.6008,20.3825c1.58-4.8636,4.4009-5.5714,4.4009-5.5714s-2.0023-3.6869-4.3982-4.4654c-3.0151-.98-5.6832.4628-7.9545,7.4531S2.6884,27.5244,5.7035,28.504c2.3959.7785,6.1829-1.0273,6.1829-1.0273S10.0205,25.2461,11.6008,20.3825Z"/><path class="a" d="M21.5214,23.6059l.68-.4646a44.15,44.15,0,0,0-2.9624-4.0381,1.5193,1.5193,0,0,0-2.5408,1.1653,1.6852,1.6852,0,1,0-1.0406,3.2025,1.5194,1.5194,0,0,0,1.3706,2.4363,44.149,44.149,0,0,0,4.77-1.5257Z"/><line class="a" x1="21.5214" y1="23.6059" x2="17.5776" y2="22.3245"/></svg>