<svg xmlns="http://www.w3.org/2000/svg" viewBox="0 0 48 48"><path d="M36.5 34.5v8h4m5-4a7 7 0 0 1-7 7 7 7 0 0 1-7-7 7 7 0 0 1 7-7 7 7 0 0 1 7 7zM13.56 19.888v7.709m.75-10.418a.75.75 0 0 1-.75.75.75.75 0 0 1-.75-.75.75.75 0 0 1 .75-.75.75.75 0 0 1 .75.75zm8.426 5.618a2.909 2.909 0 0 1 2.909-2.91v0a2.909 2.909 0 0 1 2.909 2.91v4.8m-11.636-7.71v7.71m0-4.8a2.909 2.909 0 0 1 2.909-2.91v0a2.909 2.909 0 0 1 2.909 2.91v4.8m11.813-7.71h0a2.903 2.903 0 0 1 2.909 2.91v1.89a2.903 2.903 0 0 1-2.91 2.91h0a2.903 2.903 0 0 1-2.908-2.91v-1.89a2.903 2.903 0 0 1 2.909-2.91zm8.778 13.544A21.413 21.413 0 0 0 45.5 24c0-11.874-9.626-21.5-21.5-21.5S2.5 12.126 2.5 24c0 5.49 2.075 10.484 5.462 14.283-.971 2.801-2.994 3.675-5.462 4.567 2.26 2.182 6.668 2.76 10.623-.327A21.368 21.368 0 0 0 24 45.5c3.385 0 6.587-.782 9.435-2.176" class="st5" style="fill:none;stroke:#fff;stroke-linecap:round;stroke-linejoin:round;stroke-miterlimit:10;stroke-opacity:1"/></svg>