<svg xmlns="http://www.w3.org/2000/svg" xml:space="preserve" id="svg990" width="48" height="48" version="1.1"><defs id="defs987"><style id="style1174">.a{fill:none;stroke:#fff;stroke-linecap:round;stroke-linejoin:round}</style></defs><path id="path1424" d="M18.91 24.37c1.822.164 3.968-.413 3.39-1.944m1.201 4.812c-.13.884-.99 1.551-1.919 1.49-.929-.062-1.577-.829-1.447-1.713.13-.884.99-1.55 1.919-1.489.93.062 1.577.828 1.447 1.712zm13.502-1.2 1.542-.19c1.438-.177 1.712-.683 1.451-1.591m3.38-4.988.124-.624c-.685-1.164-1.37-1.463-2.054-1.91l-2.027.122m-1.237 4.74 1.75-.342m0 0c.804-.157 1.433-.552 1.657-1l1.546.224.24-1.21m-8.394 3.984.204-1.07 2.997-.586m.853 1.23c.788 1.256 1.578 2.51 3.732 2.505l-1.954-2.811m-8.347 3.343L28.2 25.59l-.655 3.194c-1.042.103-1.545.292-2.907.166m11.95-1.128c-.149 1.683-1.64 1.98-3.357 1.743l-5.686-.781m7.365-1.034-2.39-5.869m-7.608.483c-1.404.058-2.932-.023-4.287-.262m7.855-.326c-.857.327-2.149.529-3.568.588m.206 1.562.215 1.632c1.913.078 3.668.237 4.993-.674 1.517-1.044 1.861-1.954 1.711-3.013m-5.907-4.164c-1.151-.627-2.156-1.182-3.103-1.35-1.507-.267-2.41-.491-4.511.307m12.043 5.212 1.16.011c1.3.013 2.19-.426 2.885-.96.899-.692 3.385-1 5.562-1.346.585-.954.4-1.904-.062-2.209l-1.42-.936c-2.486.169-4.475.207-6.286.969-.877.37-2.19.428-3.677.394m-2.61-.105c1.32 1.09 2.055 2.575 2.642 4.17m-13.782-.653c-.378-.845-.951-1.833-1.838-1.414m-.705-4.216 3.881-2.533c.858.422 1.312 1.014 1.27 1.765-.033.571-.345.928-.59 1.252m.429 3.114L14.97 21.21m-1.838-1.414-.873-1.552.168-2.664m4.561.484c-.207.276-.365.528-.26.869l.689 2.245m.437 2.298.766 4.016m-7.512 4.26c-.095.735-.77 1.322-1.507 1.31-.737-.012-1.258-.618-1.162-1.354.095-.735.77-1.322 1.507-1.31.737.012 1.258.618 1.162 1.353zm28.683-2.509c0 .219-.015.442-.044.668-.374 2.883-3.019 5.183-5.908 5.136-1.677-.027-3.067-.838-3.866-2.077m-15.756-4.53c.646.92.954 2.097.788 3.374-.373 2.883-3.018 5.183-5.908 5.137-2.889-.047-4.929-2.422-4.555-5.305.373-2.884 3.018-5.184 5.908-5.137.262.004.516.028.763.069m5.597 3.402c.228-5.776-3.636-7.21-8.166-6.412-1.099.193-2.414.559-2.126 1.604m8.252-.537-.736 1.032m-.788 1.104-2.67 3.74" style="fill:none;stroke:#fff;stroke-width:1;stroke-linecap:round;stroke-linejoin:round;stroke-dasharray:none;stroke-opacity:1;stop-color:#000"/></svg>