<svg xmlns="http://www.w3.org/2000/svg" xml:space="preserve" id="svg990" width="48" height="48" version="1.1"><defs id="defs987"><style id="style1174">.a{fill:none;stroke:#fff;stroke-linecap:round;stroke-linejoin:round}</style></defs><path id="path2835" d="M14.552 22.218a14.07 14.07 0 0 1 2.552-6.457m0 0-.886-4.052 3.81 3.81-2.924.242m19.644 19.644a14.07 14.07 0 0 1-8.24 2.665 14.07 14.07 0 0 1-9.003-3.258m17.243.593.24-2.926L40.8 36.29l-4.052-.886m-19.05-2.401a14.07 14.07 0 0 1-3.145-7.22M18.56 14.05a14.07 14.07 0 0 1 9.949-4.12 14.07 14.07 0 0 1 9.008 3.261m1.802 1.802A14.07 14.07 0 0 1 42.579 24v0a14.07 14.07 0 0 1-4.122 9.95m-17.512-5.583-7.427 10.624m0 0 10.624-7.427m8.734-15.128L43.5 9.009m0 0-7.427 10.624M19.967 21.26 4.5 24m0 0 15.467 2.74m-1.048 4.51a12.022 12.022 0 0 1-2.237-5.091m0-4.319a12.022 12.022 0 0 1 11.827-9.862 12.022 12.022 0 0 1 7.257 2.438m2.327 2.327A12.022 12.022 0 0 1 40.531 24v0a12.022 12.022 0 0 1-12.022 12.022 12.022 12.022 0 0 1-7.25-2.432m7.25-5.947-2.576-1.067m0 0L24.866 24m0 0 1.067-2.576m0 0 2.576-1.067m0 0 2.576 1.067m0 0L32.152 24m0 0-1.067 2.576m0 0-2.576 1.067m6.05 2.407a8.557 8.557 0 0 1-12.1 0 8.557 8.557 0 0 1 0-12.1 8.557 8.557 0 0 1 12.1 0 8.557 8.557 0 0 1 0 12.1zm-2.217-2.217a5.421 5.421 0 0 1-7.666 0 5.421 5.421 0 0 1 0-7.666 5.421 5.421 0 0 1 7.666 0 5.421 5.421 0 0 1 0 7.666zm1.061 3.292 3.068.838-.838-3.068m-14.248-9.789-.838-3.067 3.067.837m13.393 5.548 2.762 1.577-2.762 1.576M26.932 32.5l1.577 2.762 1.577-2.762m-3.154-16.997 1.577-2.761 1.577 2.761M32.152 24h1.775m0 0h3.137m-5.98-2.576 1.257-1.257m0 0 2.218-2.217m-6.05-2.485V18.6m0 0v1.758m2.576 6.22 1.257 1.256m0 0 2.217 2.217m-6.05-2.407v1.758m0 0v3.135m-2.576-5.96-1.258 1.258m0 0-2.217 2.217M24.866 24h-1.758m0 0h-3.135m5.96-2.576-1.257-1.257m0 0L22.46 17.95m3.845 1.097a2.215 3.179 0 0 1 2.205-2.87 2.215 3.179 0 0 1 2.204 2.871m0 9.904a2.215 3.179 0 0 1-2.204 2.87 2.215 3.179 0 0 1-2.205-2.876m-2.74-2.741A3.179 2.215 0 0 1 20.686 24a3.179 2.215 0 0 1 2.87-2.205m9.91 0A3.179 2.215 0 0 1 36.332 24a3.179 2.215 0 0 1-2.87 2.205m-10.004-4.137a3.179 2.215 45 0 1-.48-3.6 3.179 2.215 45 0 1 3.6.48m6.993 6.995a3.179 2.215 45 0 1 .47 3.588 3.179 2.215 45 0 1-3.599-.48m-3.858-.005a2.215 3.179 45 0 1-3.605.485 2.215 3.179 45 0 1 .48-3.6m6.983-6.982a2.215 3.179 45 0 1 3.599-.48 2.215 3.179 45 0 1-.472 3.59" style="display:inline;fill:none;stroke:#fff;stroke-width:1;stroke-linecap:round;stroke-linejoin:round;stroke-dasharray:none;stroke-opacity:1;stop-color:#000"/></svg>