<svg xmlns="http://www.w3.org/2000/svg" viewBox="0 0 48 48"><defs><style>.a{fill:none;stroke:#fff;stroke-linecap:round;stroke-linejoin:round;}</style></defs><path class="a" d="M17.3083,23.5331,15.374,25.8175a2.0435,2.0435,0,0,1-2.6666.3511,2.0705,2.0705,0,0,1-.7638-2.5791,2.0039,2.0039,0,0,1,2.4276-1.1577L30.495,28.134A9.6947,9.6947,0,1,0,26.3779,12.79l-6.4834,7.68"/><path class="a" d="M26.8715,26.9216,22.4146,34.11A9.6923,9.6923,0,0,1,5.3862,24.9308,9.8217,9.8217,0,0,1,17.67,19.9262L32.3816,25.024a2.8755,2.8755,0,0,0,3.57-1.7291,2.9183,2.9183,0,0,0-1.4542-3.6916,2.958,2.958,0,0,0-3.79,1.1709L28.851,23.7533"/><path class="a" d="M37.5454,21.6788l4.5962-.8617"/><path class="a" d="M23.7747,23.2319l-.5257,1.186"/><path class="a" d="M28.6034,24.8885l-.5517,1.1907"/><path class="a" d="M33.1215,26.2533l-.1128,1.3658"/><path class="a" d="M36.6794,24.8885l1.4938,1.4646"/><path class="a" d="M35.164,18.1773l2.532-6.6886"/><path class="a" d="M30.6177,18.9585,26.543,14.7643"/><path class="a" d="M23.6241,29.4065l-2.9348-3.3386"/><path class="a" d="M20.64,33.9528l-4.3919-7.0566"/><path class="a" d="M15.8493,37.21l-1.458-9.4126"/><path class="a" d="M9.45,35.873l3.141-8.3217"/><path class="a" d="M5.9557,30.7525l5.2118-4.2573"/><path class="a" d="M6.8377,24.8226l3.7754-.0562"/><path class="a" d="M10.8606,21.114l.61.9234"/><path class="a" d="M15.0492,20.4646l-.3522.97"/><path class="a" d="M19.37,21.66l-.5611,1.18"/><path class="a" d="M32.6038,18.0737l-.8583-6.8966"/><path class="a" d="M36.6324,19.721l4.6639-4.344"/><path class="a" d="M27.0786,21.8388l-3.46-3.5956"/></svg>