<svg id="Layer_2" data-name="Layer 2" xmlns="http://www.w3.org/2000/svg" viewBox="0 0 48 48"><defs><style>.cls-1{fill:#fff;}.cls-2{fill:none;stroke:#fff;stroke-linecap:round;stroke-linejoin:round;}</style></defs><path class="cls-1" d="M34.45,30.33a.53.53,0,1,0-.9.56l3.67,5.9a.52.52,0,0,0,.44.25.54.54,0,0,0,.28-.08.52.52,0,0,0,.17-.73Z"/><path class="cls-1" d="M24,31.31a.52.52,0,0,0-.53.52v6.71a.53.53,0,0,0,1.06,0V31.83A.52.52,0,0,0,24,31.31Z"/><path class="cls-1" d="M13.15,30.16a.54.54,0,0,0-.73.17l-3.66,5.9a.53.53,0,0,0,.17.73.57.57,0,0,0,.28.08.51.51,0,0,0,.44-.25l3.67-5.9A.53.53,0,0,0,13.15,30.16Z"/><path class="cls-1" d="M22.39,15.43a.68.68,0,0,0-.68-.69.69.69,0,0,0-.69.69.68.68,0,0,0,.69.68A.67.67,0,0,0,22.39,15.43Z"/><path class="cls-2" d="M22.39,17.7a3.37,3.37,0,0,0,3.22,0"/><path class="cls-1" d="M26.29,14.74a.68.68,0,0,0-.68.69.67.67,0,0,0,.68.68.68.68,0,0,0,.69-.68A.69.69,0,0,0,26.29,14.74Z"/><path class="cls-2" d="M32.9,17.12a8.93,8.93,0,0,0-17.8,0c-6.63,1-10.6,3.05-10.6,5.44,0,4,10.05,6.08,19.5,6.08s19.5-2.13,19.5-6.08C43.5,20.17,39.54,18.15,32.9,17.12Z"/><path class="cls-2" d="M32.9,17.12c0,2.25-4.08,4.15-8.9,4.15s-8.9-1.9-8.9-4.15"/></svg>