<?xml version="1.0" encoding="utf-8"?>
<!-- Generator: Adobe Illustrator 27.2.0, SVG Export Plug-In . SVG Version: 6.00 Build 0)  -->
<svg version="1.1" id="Layer_2" xmlns="http://www.w3.org/2000/svg" xmlns:xlink="http://www.w3.org/1999/xlink" x="0px" y="0px"
	 viewBox="0 0 48 48" style="enable-background:new 0 0 48 48;" xml:space="preserve">
<style type="text/css">
	.st0{fill:none;stroke:#FFFFFF;stroke-linecap:round;stroke-linejoin:round;stroke-dasharray:3.0123,3.0123;}
	.st1{fill:none;stroke:#FFFFFF;stroke-linecap:round;stroke-linejoin:round;stroke-dasharray:2.8013,2.8013;}
	.st2{fill:none;stroke:#FFFFFF;stroke-linecap:round;stroke-linejoin:round;stroke-dasharray:3.0936,3.0936;}
</style>
<g>
	<g>
		<g>
			<path class="st0" d="M7.5,5.5c-1.1,0-2,0.9-2,2c0,0,0,0,0,0v33c0,1.1,0.9,2,2,2c0,0,0,0,0,0h33c1.1,0,2-0.9,2-2c0,0,0,0,0,0v-33
				c0-1.1-0.9-2-2-2c0,0,0,0,0,0H7.5z"/>
		</g>
	</g>
	<g>
		<g>
			<circle class="st1" cx="31.3" cy="16.6" r="4.5"/>
			<path class="st2" d="M20,21l7.2,7.2c0.3,0.3,0.7,0.3,1,0l1.4-1.4c0.3-0.3,0.7-0.3,1,0l7.8,7.8c0.4,0.4,0.1,1.2-0.5,1.2H10.1
				c-0.6,0-0.9-0.6-0.6-1.1l9.4-13.6C19.2,20.8,19.7,20.7,20,21z"/>
		</g>
	</g>
</g>
</svg>
