<?xml version="1.0" encoding="UTF-8"?><svg id="a" xmlns="http://www.w3.org/2000/svg" viewBox="0 0 48 48"><defs><style>.b{stroke-dasharray:0 0 3.0936 3.0936;}.b,.c,.d{fill:none;stroke:#fff;stroke-linecap:round;stroke-linejoin:round;}.c{stroke-dasharray:0 0 2.8013 2.8013;}.d{stroke-dasharray:0 0 3.0123 3.0123;}</style></defs><path class="d" d="m7.5,5.5c-1.1,0-2,.9-2,2h0v33c0,1.1.9,2,2,2h33c1.1,0,2-.9,2-2h0V7.5c0-1.1-.9-2-2-2H7.5Z"/><circle class="c" cx="31.3" cy="16.6" r="4.5"/><path class="b" d="m20,21l7.2,7.2c.3.3.7.3,1,0l1.4-1.4c.3-.3.7-.3,1,0l7.8,7.8c.4.4.1,1.2-.5,1.2H10.1c-.6,0-.9-.6-.6-1.1l9.4-13.6c.3-.3.8-.4,1.1-.1Z"/></svg>