<svg width="48" height="48" version="1.1" viewBox="0 0 48 48" xmlns="http://www.w3.org/2000/svg">
 <g stroke="#fff" stroke-linecap="round" stroke-linejoin="round" stroke-miterlimit="7">
  <path d="m29.18 39.246c2.2224-0.35707 6.1249-0.03679 7.7035-4.7107m-0.1713-16.676c-0.77699-1.8931-2.2416-2.667-4.9924-2.8253-4.9659-0.28575-16.288 1.308-20.422 2.5179-2.9097 0.8517-2.9123 4.3612-2.9123 4.3612" fill="none"/>
  <line class="st0" x1="12.059" x2="12.591" y1="22.115" y2="32.406"/>
  <path class="st0" d="m15.457 32.252-0.53109-10.291 3.3077-0.17747c1.9083-0.10239 3.5146 1.3594 3.6141 3.289 0.09958 1.9296-1.3474 3.5552-3.2557 3.6576l-3.3077 0.17747"/>
  <line class="st0" x1="24.536" x2="31.278" y1="21.445" y2="21.083"/>
  <line class="st0" x1="28.502" x2="27.97" y1="31.552" y2="21.261"/>
  <polyline class="st0" transform="matrix(1.2722 -.068258 .066386 1.2864 -318.7 -80.104)" points="277.8 93 275.2 101 272.5 93" stroke-width=".78062"/>
  <g fill="none">
   <path d="m21.382 15.708-4.1649-7.1746"/>
   <path d="m22.957 15.469 1.618-6.5927"/>
   <circle cx="16.645" cy="7.5068" r="1.1757" stop-color="#000000" style="paint-order:stroke fill markers"/>
   <circle cx="24.943" cy="7.7595" r="1.1757" stop-color="#000000" style="paint-order:stroke fill markers"/>
  </g>
 </g>
 <style type="text/css">.st0{fill:none;stroke:#FFFFFF;stroke-linecap:round;stroke-linejoin:round;stroke-miterlimit:10;}
	.st1{fill:#FFFFFF;}
	.st2{fill:none;stroke:#FFFFFF;stroke-width:1;stroke-linecap:round;stroke-linejoin:round;stroke-miterlimit:10;}
	.st3{fill:none;stroke:#FFFFFF;stroke-width:1;stroke-linecap:round;stroke-linejoin:round;stroke-miterlimit:10;}
	.st4{fill:none;stroke:#FFFFFF;stroke-width:1;stroke-linecap:round;stroke-linejoin:round;stroke-miterlimit:10;}</style>
</svg>
