<svg width="48" height="48" version="1.1" viewBox="0 0 48 48" xmlns="http://www.w3.org/2000/svg">
 <g fill="none" stroke="#fff" stroke-linecap="round" stroke-linejoin="round">
  <path d="m6.5738 17.295h6.5649a2 2 45 0 1 2 2v5.9763a2 2 135 0 1-2 2h-6.5649a2 2 45 0 1-2-2v-5.9763a2 2 135 0 1 2-2z" style="paint-order:markers fill stroke"/>
  <path d="m20.234 17.295h6.5649a2 2 45 0 1 2 2v5.9763a2 2 135 0 1-2 2h-6.5649a2 2 45 0 1-2-2v-5.9763a2 2 135 0 1 2-2z" style="paint-order:markers fill stroke"/>
  <path d="m33.895 17.295h6.5649a2 2 45 0 1 2 2v5.9763a2 2 135 0 1-2 2h-6.5649a2 2 45 0 1-2-2v-5.9763a2 2 135 0 1 2-2z" style="paint-order:markers fill stroke"/>
  <path d="m27.548 30.639h6.5649a2 2 45 0 1 2 2v5.9763a2 2 135 0 1-2 2h-6.5649a2 2 45 0 1-2-2v-5.9763a2 2 135 0 1 2-2z" style="paint-order:markers fill stroke"/>
  <path d="m27.548 3.952h6.5649a2 2 45 0 1 2 2v5.9763a2 2 135 0 1-2 2h-6.5649a2 2 45 0 1-2-2v-5.9763a2 2 135 0 1 2-2z" style="paint-order:markers fill stroke"/>
 </g>
 <g transform="translate(-8.8261 33.785)">
  <g transform="matrix(.63569 0 0 .63569 -31.989 -73.164)" stroke-miterlimit="10" stroke-width="1.5731">
   <line class="st0" x1="99.2" x2="103.2" y1="101" y2="101"/>
   <line class="st0" x1="99.2" x2="103.2" y1="93" y2="93"/>
   <line class="st0" x1="99.2" x2="101.8" y1="97" y2="97"/>
   <line class="st0" x1="99.2" x2="99.2" y1="93" y2="101"/>
  </g>
 </g>
 <g stroke-miterlimit="10">
  <g transform="matrix(.63569 0 0 .63569 -37.62 -74.479)">
   <path class="st0" d="m120.26 150.92c0-1.5-1.3-2.8-2.8-2.7-1.4 0.1-2.5 1.4-2.5 2.8v2.5c0 1.5 1.2 2.7 2.7 2.7s2.7-1.2 2.7-2.7h-2.7" stroke-width="1.5731"/>
   <path class="st0" d="m123.9 95.7" stroke-width="1.5731"/>
  </g>
  <line class="st0" x1="29.146" x2="32.515" y1="33.084" y2="38.17"/>
  <line class="st0" x1="32.515" x2="29.146" y1="33.084" y2="38.17"/>
 </g>
 <g transform="translate(.11763 .21747)" stroke-miterlimit="10">
  <path class="st0" d="m29.028 11.265v-5.0855h1.6528c0.95353 0 1.7164 0.76283 1.7164 1.7164s-0.76283 1.7164-1.7164 1.7164h-1.6528"/>
  <g transform="matrix(.63569 0 0 .63569 -118.77 -52.939)" stroke-width="1.5731">
   <line class="st0" x1="235.2" x2="237.8" y1="98.3" y2="101" stroke-miterlimit="10" stroke-width="1.5731"/>
  </g>
 </g>
 <circle class="st1" cx="34.03" cy="6.172" r=".8"/>
 <g transform="translate(-20.856 13.561)" stroke-miterlimit="10">
  <path class="st0" d="m29.028 11.265v-5.0855h1.6528c0.95353 0 1.7164 0.76283 1.7164 1.7164s-0.76283 1.7164-1.7164 1.7164h-1.6528"/>
  <g transform="matrix(.63569 0 0 .63569 -118.77 -52.939)" stroke-width="1.5731">
   <line class="st0" x1="235.2" x2="237.8" y1="98.3" y2="101" stroke-miterlimit="10" stroke-width="1.5731"/>
  </g>
 </g>
 <g transform="translate(-15.173 47.129)">
  <g transform="matrix(.63569 0 0 .63569 -31.989 -73.164)" stroke-miterlimit="10" stroke-width="1.5731">
   <line class="st0" x1="99.2" x2="103.2" y1="101" y2="101"/>
   <line class="st0" x1="99.2" x2="103.2" y1="93" y2="93"/>
   <line class="st0" x1="99.2" x2="101.8" y1="97" y2="97"/>
   <line class="st0" x1="99.2" x2="99.2" y1="93" y2="101"/>
  </g>
 </g>
 <g transform="rotate(-15 17.732 9.0141)">
  <g transform="matrix(.63569 0 0 .63569 -87.186 -157.57)" stroke-miterlimit="10" stroke-width="1.5731">
   <line class="st0" x1="164.16" x2="164.16" y1="257.94" y2="265.94" stroke-miterlimit="10" stroke-width="1.5731"/>
  </g>
  <path d="m13.887 3.952h6.5649a2 2 45 0 1 2 2v5.9763a2 2 135 0 1-2 2h-6.5649a2 2 45 0 1-2-2v-5.9763a2 2 135 0 1 2-2z" fill="none" stroke="#fff" stroke-linecap="round" stroke-linejoin="round" style="paint-order:markers fill stroke"/>
 </g>
 <path d="m13.887 30.639h6.5649a2 2 45 0 1 2 2v5.9763a2 2 135 0 1-2 2h-6.5649a2 2 45 0 1-2-2v-5.9763a2 2 135 0 1 2-2z" fill="none" stroke="#fff" stroke-linecap="round" stroke-linejoin="round" style="paint-order:markers fill stroke"/>
 <circle class="st1" cx="19.444" cy="5.5808" r=".8"/>
 <style type="text/css">.st0{fill:none;stroke:#FFFFFF;stroke-linecap:round;stroke-linejoin:round;stroke-miterlimit:10;}
	.st1{fill:#FFFFFF;}
	.st2{fill:none;stroke:#FFFFFF;stroke-width:0.9976;stroke-linecap:round;stroke-linejoin:round;stroke-miterlimit:10;}
	.st3{fill:none;stroke:#FFFFFF;stroke-width:0.9965;stroke-linecap:round;stroke-linejoin:round;stroke-miterlimit:10;}
	.st4{fill:none;stroke:#FFFFFF;stroke-width:0.8662;stroke-linecap:round;stroke-linejoin:round;stroke-miterlimit:10;}</style>
</svg>
