<?xml version="1.0" encoding="UTF-8"?>
<svg version="1.1" viewBox="0 0 48 48" xmlns="http://www.w3.org/2000/svg">
 <defs>
  <style>.a{fill:none;stroke:#fff;stroke-linecap:round;stroke-linejoin:round;}</style>
 </defs>
 <path class="a" d="m40.5 5.5h-33a2 2 0 0 0-2 2v33a2 2 0 0 0 2 2h33a2 2 0 0 0 2-2v-33a2 2 0 0 0-2-2z"/>
 <g transform="translate(-242.22 -99.592)" enable-background="new 0 0 380 200">
  <polyline class="st0" points="277.2 121.2 275.2 126.5 273.2 121.2" fill="none" stroke="#fff" stroke-linecap="round" stroke-linejoin="round" stroke-miterlimit="10"/>
 </g>
 <g transform="translate(-207.48 -99.442)" enable-background="new 0 0 380 200" fill="none" stroke="#fff" stroke-linecap="round" stroke-linejoin="round" stroke-miterlimit="10">
  <path class="st0" d="m234.3 123.2c0-1.1 0.9-2 2-2"/>
  <line class="st0" x1="234.3" x2="234.3" y1="121.2" y2="126.5"/>
 </g>
 <g transform="translate(-128.38 -99.492)" enable-background="new 0 0 380 200">
  <circle class="st1" cx="141.2" cy="118.8" r=".8" fill="#fff"/>
  <line class="st0" x1="141.2" x2="141.2" y1="121.2" y2="126.5" fill="none" stroke="#fff" stroke-linecap="round" stroke-linejoin="round" stroke-miterlimit="10"/>
 </g>
 <g transform="translate(-228.32 -99.392)" enable-background="new 0 0 380 200">
  <path class="st0" d="m243.5 126c0.4 0.3 0.8 0.4 1.6 0.4h0.4c0.7 0 1.3-0.6 1.3-1.3s-0.6-1.3-1.3-1.3h-0.9c-0.7 0-1.3-0.6-1.3-1.3s0.6-1.3 1.3-1.3h0.4c0.9 0 1.3 0.1 1.6 0.4" fill="none" stroke="#fff" stroke-linecap="round" stroke-linejoin="round" stroke-miterlimit="10"/>
 </g>
 <path class="st0" d="m24.35 25.908c-0.3 0.6-1 1-1.7 1-1.1 0-2-0.9-2-2v-1.3c0-1.1 0.9-2 2-2s2 0.9 2 2v0.7h-4" enable-background="new 0 0 380 200" fill="none" stroke="#fff" stroke-linecap="round" stroke-linejoin="round" stroke-miterlimit="10"/>
 <path d="m20.15 28.936 15.333 0.05569" fill="none" stroke="#fff" stroke-linecap="round" stroke-linejoin="round"/>
 <circle cx="17.82" cy="28.964" r=".52784" fill="#fff"/>
 <circle cx="15.318" cy="28.964" r=".52784" fill="#fff"/>
 <circle cx="12.817" cy="28.964" r=".52784" fill="#fff"/>
</svg>
