<?xml version="1.0" encoding="UTF-8" standalone="no"?>
<svg
   viewBox="0 0 48 48"
   version="1.1"
   id="svg8"
   xmlns="http://www.w3.org/2000/svg"
   xmlns:svg="http://www.w3.org/2000/svg">
  <defs
     id="defs4">
    <style id="style2">.a{fill:none;stroke:#fff;stroke-linecap:round;stroke-linejoin:round;}</style>
  </defs>
  <path
     id="path1"
     class="a"
     d="m 11.699997,33.999969 v 7.999989 M 10.5,42 h 2.4 M 10.5,34 H 13" />
  <path
     id="path2"
     class="a"
     d="m 17.4,39.299877 h 3.5 m -4.65,2.699937 2.95,-7.999628 2.95,7.999628" />
  <path
     id="path3"
     class="a"
     d="M 25.39999,42 V 34 H 29.4 m -4.00001,8 4.00001,1.5e-5 m -4.00001,-4.00003 h 2.600006" />
  <path
     id="path4"
     class="a"
     d="m 33.7,39.299877 h 3.5 M 32.4,42 l 2.95,-8 3.05,8" />
  <path
     class="a"
     d="M 25.642225,30.2056 C 22.563799,30.915577 19.940866,22.879846 19.149497,18.410282 18.358128,13.940717 17.952352,5.3449227 21.24414,4.8002432 c 3.291788,-0.5446795 5.681343,7.7632748 6.427267,12.2258888 0.745925,4.462615 1.049244,12.469491 -2.029182,13.179468 z"
     id="path5" />
  <path
     class="a"
     d="m 9.0476387,14.032377 c 0.7575786,-2.97207 11.8793463,-2.830955 17.4845803,-1.615543 5.605234,1.215412 15.386955,5.322487 14.63286,8.3626 -0.754095,3.040113 -11.1411,3.433901 -16.81695,2.288724 C 18.672279,21.922981 8.2900601,17.004447 9.0476387,14.032377 Z"
     id="path6" />
  <path
     class="a"
     d="m 12.23654,22.597032 c -0.967541,-2.044409 5.735574,-7.083898 9.653137,-8.856531 3.917562,-1.772633 11.68962,-3.421128 12.626006,-1.361874 0.936386,2.059254 -5.257497,6.797939 -9.150747,8.622839 -3.89325,1.8249 -12.160856,3.639975 -13.128396,1.595566 z"
     id="path7" />
  <path
     style="display:inline;fill:none;stroke:#fefefe;stroke-width:1px;stroke-linecap:round;stroke-linejoin:round;stroke-opacity:1"
     d="m 28.175676,9.2321308 c 1.590165,0.9853302 -0.396704,6.9486182 -2.06569,9.8885492 -1.668986,2.939931 -5.952016,7.728837 -7.490904,6.896077 -1.538888,-0.83276 0.528409,-7.249428 2.22638,-10.172985 1.697971,-2.923557 5.740049,-7.596971 7.330214,-6.6116412 z"
     id="path8" />
  <circle
     class="a"
     style="fill:#ffffff"
     id="path9"
     cx="23.495237"
     cy="17.585827"
     r="0.25" />
</svg>
