<?xml version="1.0" encoding="UTF-8"?>
<svg id="b" version="1.1" viewBox="0 0 48 48" xml:space="preserve" xmlns="http://www.w3.org/2000/svg"><defs><style>.c{stroke-width:1px;}.c,.d{fill:none;stroke:#fff;stroke-linecap:round;stroke-linejoin:round;}.e{fill:#fff;stroke-width:0px;}</style><style>.a{fill:none;stroke:#fff;stroke-linecap:round;stroke-linejoin:round;}</style></defs><circle class="a" cx="24" cy="24" r="21.5"/><circle class="st6" cx="18.026" cy="22.301" r=".8" fill="#fff"/><circle class="st6" cx="30.015" cy="25.814" r=".8" fill="#fff"/><g transform="matrix(.76 0 0 .76 -72.561 -10.802)" stroke-width="1.3158">
		
		<line class="st5" x1="136" x2="136" y1="59.3" y2="64.7" fill="none" stroke="#fff" stroke-linecap="round" stroke-linejoin="round" stroke-miterlimit="10" stroke-width="1.3158"/>
	<circle class="st6" transform="matrix(1.3158 0 0 1.3158 95.475 13.707)" cx="30.799" cy="32.827" r=".8" fill="#fff"/></g><g fill="none" stroke="#fff" stroke-linecap="round" stroke-linejoin="round" stroke-width="1px"><g fill="none" stroke="#fff"><g><path d="m20.021 18.736h8.1324"/><path d="m30.557 22.301h-9.5695"/><path d="m17.443 25.814h9.4083"/><path d="m20.021 29.264h8.1324"/></g><g stroke-miterlimit="10"><path class="st5" d="m16.284 34.266c0-1.14-0.912-2.052-2.052-2.052s-2.052 0.912-2.052 2.052v2.052c0 1.14 0.912 1.976 2.052 1.976s2.052-0.912 2.052-1.976h-2.052"/><path class="st5" d="m30.757 15.191c-0.228 0.456-0.76 0.76-1.292 0.76-0.836 0-1.52-0.684-1.52-1.52v-0.988c0-0.836 0.684-1.52 1.52-1.52s1.52 0.684 1.52 1.52v0.532h-3.04"/><path class="st5" transform="matrix(.76 0 0 .76 -158.43 -33.145)" d="m234.4 64.2c0.4 0.3 0.8 0.4 1.6 0.4h0.4c0.7 0 1.3-0.6 1.3-1.3s-0.6-1.3-1.3-1.3h-0.9c-0.7 0-1.3-0.6-1.3-1.3s0.6-1.3 1.3-1.3h0.4c0.9 0 1.3 0.1 1.6 0.4" stroke-width="1.3158"/><path class="st5" d="m21.045 37.534c-0.228 0.456-0.76 0.76-1.292 0.76-0.836 0-1.52-0.684-1.52-1.52v-0.988c0-0.836 0.684-1.52 1.52-1.52s1.52 0.684 1.52 1.52v0.532h-3.04"/></g></g><path class="st5" transform="matrix(.76 0 0 .76 -107.29 -10.802)" d="m184.3 64.7v-5.4m4 5.4v-3.3c0-1.1-0.9-2-2-2s-2 0.9-2 2" stroke-width="1.3158"/><g stroke="#fff"><path class="st5" d="m23.222 32.214v5.32c0 0.456 0.304 0.76 0.76 0.76h0.228" fill="none" stroke-miterlimit="10"/><path class="st5" transform="matrix(.76 0 0 .76 -151.83 -10.802)" d="m234.4 64.2c0.4 0.3 0.8 0.4 1.6 0.4h0.4c0.7 0 1.3-0.6 1.3-1.3s-0.6-1.3-1.3-1.3h-0.9c-0.7 0-1.3-0.6-1.3-1.3s0.6-1.3 1.3-1.3h0.4c0.9 0 1.3 0.1 1.6 0.4" fill="none" stroke-miterlimit="10" stroke-width="1.3158"/><path class="st5" transform="matrix(.76 0 0 .76 -161.95 -33.145)" d="m244.9 59.3h2.2m-1.1-1.6v6c0 0.6 0.4 1 1 1h0.3" stroke-width="1.3158"/></g></g><g transform="matrix(.76 0 0 .76 -86.045 -20.985)" stroke-width="1.3158">
		<line class="st5" x1="136" x2="136" y1="40.7" y2="48.7" fill="none" stroke="#fff" stroke-linecap="round" stroke-linejoin="round" stroke-miterlimit="10" stroke-width="1.3158"/>
	<circle class="st6" transform="matrix(1.3158 0 0 1.3158 113.72 28.119)" cx="16.93" cy="6.939" r=".8" fill="#fff"/></g></svg>
