<svg xmlns="http://www.w3.org/2000/svg" viewBox="0 0 48 48"><defs><style>.a{fill:none;stroke:#fff;stroke-linecap:round;stroke-linejoin:round;}.b{fill:#fff;}</style></defs><path class="a" d="M40.5,5.5H7.5a2,2,0,0,0-2,2v33a2,2,0,0,0,2,2h33a2,2,0,0,0,2-2V7.5A2,2,0,0,0,40.5,5.5Z"/><circle class="b" cx="9.2409" cy="29.9265" r="0.75"/><path class="a" d="M25.7889,26.9635a3.2226,3.2226,0,0,1-3.2131,3.2131h0a3.2226,3.2226,0,0,1-3.2131-3.2131V24.875a3.2226,3.2226,0,0,1,3.2131-3.2131h0a3.2226,3.2226,0,0,1,3.2131,3.2131"/><line class="a" x1="25.7889" y1="30.1765" x2="25.7889" y2="21.6615"/><path class="a" d="M29.0029,17.3235V28.57A1.5179,1.5179,0,0,0,30.61,30.1761h.482"/><line class="a" x1="16.1499" y1="18.9305" x2="16.1499" y2="30.1765"/><line class="a" x1="14.3829" y1="21.6615" x2="17.7569" y2="21.6615"/><circle class="b" cx="11.5879" cy="19.1805" r="0.75"/><line class="a" x1="11.5879" y1="21.6615" x2="11.5879" y2="30.1765"/><path class="a" d="M36.296,30.1765h0a3.2226,3.2226,0,0,1-3.2132-3.2131V24.8749a3.2226,3.2226,0,0,1,3.2132-3.2131h0a3.2226,3.2226,0,0,1,3.2131,3.2131v2.0885A3.2226,3.2226,0,0,1,36.296,30.1765Z"/></svg>