<svg width="48" height="48" version="1.1" viewBox="0 0 48 48" xmlns="http://www.w3.org/2000/svg">
 <defs>
  <style>.cls-1{fill:none;stroke:#fff;stroke-linecap:round;stroke-linejoin:round;}</style>
  <style>.a{fill:none;stroke:#fff;stroke-linecap:round;stroke-linejoin:round;}</style>
 </defs>
 <path d="m27.539 8.4936-6.1893 9.9164 11.788 0.01927m-15.047 5.0193-9.9999 15.829" fill="none" stop-color="#000000" stroke="#fff" stroke-dashoffset="1.9" stroke-linecap="round" stroke-linejoin="round" style="paint-order:markers fill stroke"/>
 <path d="m33.138 18.429c3.8534 1.6715 6.5488 5.5098 6.5488 9.9777 0 6.0038-4.867 10.871-10.871 10.871h-20.725m6.2175-9.9357c-3.8534-1.6715-6.5488-5.5098-6.5488-9.9777 0-6.0038 4.867-10.871 10.871-10.871h20.725l-8.8548 14.017m-4.1887 6.6304-6.4041 10.137" fill="none" stop-color="#000000" stroke="#fff" stroke-dashoffset="1.9" stroke-linecap="round" stroke-linejoin="round" style="paint-order:markers fill stroke"/>
 <g transform="translate(-21.792 2.9815)">
  <g transform="matrix(.37129 0 0 .35862 51.199 .45413)" fill="#fff" stroke-width="1">
   <path d="m-20.312 57.77a2.0913 2.0913 0 1 1-2.0913 2.0913 2.1023 2.1023 0 0 1 2.0913-2.0913z"/>
   <path d="m-8.1158 57.77a2.0913 2.0913 0 1 1-2.1023 2.0913 2.0913 2.0913 0 0 1 2.1023-2.0913z"/>
  </g>
  <g fill="none" stroke="#fff" stroke-linecap="round" stroke-linejoin="round">
   <path class="a" d="m50.335 17.999-1.63 1.5779m-7.4555-1.5779 1.6337 1.5743"/>
   <path d="m51.119 24.038c0-2.9417-2.3847-5.3265-5.3265-5.3265s-5.3265 2.3847-5.3265 5.3265z" stop-color="#000000" stroke-dashoffset="1.9" style="paint-order:markers fill stroke"/>
  </g>
 </g>
</svg>
