<?xml version="1.0" encoding="UTF-8" standalone="no"?>
<svg
   version="1.1"
   viewBox="0 0 48 48"
   xml:space="preserve"
   id="svg10"
   xmlns="http://www.w3.org/2000/svg"
   xmlns:svg="http://www.w3.org/2000/svg"><defs
     id="defs6"><style
       id="style2">.a{fill:none;stroke:#fff;stroke-linecap:round;stroke-linejoin:round;}</style><style
       id="style4" /></defs><path
     style="opacity:1;fill:none;stroke:#ffffff;stroke-width:1;stroke-linecap:round;stroke-linejoin:round;stroke-dashoffset:0.5"
     d="m 29.412525,21.444472 c 1.544536,1.41322 4.219042,1.999534 6.26105,2.911086 l 2.632033,1.834383 v 0.75768 c 4.95873,4.264416 6.000774,9.789063 -0.199396,13.040071"
     id="path1" /><path
     style="opacity:1;fill:none;stroke:#ffffff;stroke-width:1;stroke-linecap:round;stroke-linejoin:round;stroke-dashoffset:0.5"
     d="m 38.305608,26.189941 c -5.359261,-0.204196 -9.90417,1.152396 -13.9896,3.389622 -4.513114,-1.642302 -8.717285,-4.074097 -14.125303,-3.4295 l 0.797586,4.266934 c 5.660784,-0.397723 4.97518,6.445631 2.033844,7.178022 l 0.917224,3.349743 c 3.896684,-0.382886 7.382093,0.159512 10.376649,1.555238 3.338448,-1.09541 6.78369,-1.42867 10.759378,-1.355848 l 0.51843,-3.4295 c -5.824797,-2.428763 -1.820088,-8.812012 1.635052,-6.998571 l 1.07674,-3.76846"
     id="path2" /><path
     style="opacity:1;fill:none;stroke:#ffffff;stroke-width:1;stroke-linecap:round;stroke-linejoin:round;stroke-dashoffset:0.5"
     d="m 30.728542,20.128501 c -0.293476,-2.836701 0.218172,-5.37149 0.757707,-7.895823 -0.904709,-3.4751255 -9.494652,-7.8230476 -14.675581,-0.03988 0.692711,2.513787 0.887124,5.169939 0.837465,7.895824 2.766005,3.161052 8.690695,4.230049 13.080409,0.03988 z"
     id="path3" /><path
     style="opacity:1;fill:none;stroke:#ffffff;stroke-width:1;stroke-linecap:round;stroke-linejoin:round;stroke-dashoffset:0.5"
     d="m 30.728542,20.128501 c 2.84218,0.712653 3.912874,-7.934341 0.757707,-7.895823"
     id="path4" /><path
     style="opacity:1;fill:none;stroke:#ffffff;stroke-width:1;stroke-linecap:round;stroke-linejoin:round;stroke-dashoffset:0.5"
     d="m 16.810668,12.192798 c -3.579955,0.08462 -3.059796,9.175955 0.837465,7.895824"
     id="path5" /><path
     style="opacity:1;fill:none;stroke:#ffffff;stroke-width:1;stroke-linecap:round;stroke-linejoin:round;stroke-dashoffset:0.5"
     d="M 32.744909,12.882575 C 33.296597,2.7368121 14.778455,3.3764785 15.45835,12.789129"
     id="path6" /><path
     style="opacity:1;fill:none;stroke:#ffffff;stroke-width:1;stroke-linecap:round;stroke-linejoin:round;stroke-dashoffset:0.5"
     d="m 37.228868,30.716081 c 2.474093,2.210629 1.765304,5.704988 0.877344,9.271611"
     id="path7" /><path
     style="opacity:1;fill:none;stroke:#ffffff;stroke-width:1;stroke-linecap:round;stroke-linejoin:round;stroke-dashoffset:0.5"
     d="m 35.593816,37.714652 c 2.319624,0.791709 3.085941,-0.302738 3.213226,-1.102594"
     id="path9" /><path
     style="opacity:1;fill:none;stroke:#ffffff;stroke-width:1;stroke-linecap:round;stroke-linejoin:round;stroke-dashoffset:0.5"
     d="m 19.673871,21.722911 c -0.885584,1.181831 -4.624693,0.656539 -7.369564,2.75228 l -2.113602,1.674872 c -7.7473398,8.241771 -4.2343942,12.65589 0,13.63824 -1.9578899,-3.908595 -2.6328459,-7.364405 0.797586,-9.371306"
     id="path10" /><path
     style="opacity:1;fill:none;stroke:#ffffff;stroke-width:1;stroke-linecap:round;stroke-linejoin:round;stroke-dashoffset:0.5"
     d="M 13.022135,37.595019 C 11.138018,37.868408 9.9634031,37.343636 8.9204631,36.670734"
     id="path11" /><path
     style="opacity:1;fill:none;stroke:#ffffff;stroke-width:1;stroke-linecap:round;stroke-linejoin:round;stroke-dashoffset:0.5"
     d="m 12.304307,24.475191 c 7.231838,0.19939 10.891536,2.2188 12.011701,5.104372 1.293192,-3.28678 4.626002,-4.324271 11.357567,-5.224005"
     id="path12" /><path
     style="opacity:1;fill:none;stroke:#ffffff;stroke-width:1;stroke-linecap:round;stroke-linejoin:round;stroke-dashoffset:0.5"
     d="m 17.334886,14.673219 c 5.550974,-0.55694 9.702612,-0.367593 13.681662,-0.0862"
     id="path13" /><path
     style="opacity:1;fill:none;stroke:#ffffff;stroke-width:1;stroke-linecap:round;stroke-linejoin:round;stroke-dashoffset:0.5"
     d="m 18.048302,10.620408 c 3.800651,-0.6516025 7.949578,-0.6647215 12.388175,-0.1468"
     id="path14" /><circle
     style="opacity:1;fill:none;stroke:#ffffff;stroke-width:1;stroke-linecap:round;stroke-linejoin:round;stroke-dashoffset:0.5"
     id="path15"
     cx="24.402523"
     cy="12.246615"
     r="0.5" /><path
     style="opacity:1;fill:none;stroke:#ffffff;stroke-width:1;stroke-linecap:round;stroke-linejoin:round;stroke-dashoffset:0.5"
     d="M 24.316008,29.579563 V 42.5"
     id="path16" /></svg>
