<?xml version="1.0" encoding="UTF-8"?>
<svg width="48" height="48" version="1.1" viewBox="0 0 48 48" xml:space="preserve" xmlns="http://www.w3.org/2000/svg"><defs><style>.a{fill:none;stroke:#fff;stroke-linecap:round;stroke-linejoin:round;}</style>
		
	</defs><g fill="none" stroke-linecap="round" stroke-linejoin="round"><g stroke="#fff"><path d="m41.302748 26.190105c1.080658 2.15797 1.78647 4.336715 2.032061 6.807382m-10.286475 0.897181h-28.4512416c0.2268204-10.967808 9.1886636-19.789335 20.2108236-19.789336 7.915304 0 14.768092 4.549171 18.08644 11.175591l-9.620258 4.791996" stop-color="#000000"/><path d="m6.6418244 33.807129c0.2039435-9.861605 8.2619046-17.680101 18.1723806-17.680101 4.553573 0 8.716056 1.674456 11.9053 4.441223l-5.766853 6.5649" stop-color="#000000"/><path d="m12.075565 33.728477c-0.01196-0.226279-0.01802-0.454123-0.01802-0.683383 1e-6 -7.035145 5.703113-12.738258 12.738258-12.738258 1.326597 0 2.60583 0.202789 3.80839 0.579058l-1.167344 3.992317" stop-color="#000000"/><path d="m15.75362 33.729698c0-4.998248 4.05188-9.050128 9.050128-9.050128 2.406555 0 4.593719 0.939318 6.214865 2.471322 0.907595 0.857688 1.637782 1.901144 2.129737 3.06954 0.377088 0.895587 0.614207 1.864582 0.683962 2.879592" stop-color="#000000"/></g><path class="a" d="m45.5 38.5a7 7 0 0 1-7 7 7 7 0 0 1-7-7 7 7 0 0 1 7-7 7 7 0 0 1 7 7z"/><path class="st5" d="m35.949999 41.6c0.5 0.6 1.1 0.9 2.000001 0.9h1.199999c1.100001 0 2-0.9 2-2 0-1.099999-0.899999-2-2-2h-1.3c-1.1 0-1.999999-0.899999-1.999999-2 0-1.1 0.899999-1.999999 1.999999-1.999999h1.2c0.9 0 1.500001 0.199999 2.000001 0.899999" stroke="#fff" stroke-miterlimit="10"/></g></svg>
