<svg xmlns="http://www.w3.org/2000/svg" viewBox="0 0 48 48">
    <defs>
        <style>
            .a{
            fill:none;
            stroke:#fff;
            stroke-linecap:round;
            stroke-linejoin:round;
            }
            </style>
        </defs><path
     class="a"
     d="m 28.5,33.5 v 8 h 4 M 22.4,38.799892 h 3.5 m 0.9,2.699998 -2.6,-7.999999 -2.7,7.999999 M 15.5,33.5 h 4 v 6 c 0,1.1 -0.9,2 -2,2 v 0 c -1.1,0 -2,-0.9 -2,-2 v -0.7 m 1.61392,-8.342796 c 0,0 -0.0519,-0.334808 -0.135,-0.685255 -0.16717,-0.705297 -0.32654,-1.582385 -0.32654,-1.797103 l -0.0554,-0.478137 c -0.055,-0.52863 -0.0503,-0.992883 -0.034,-1.295721 -0.008,-0.71576 0.18131,-1.413056 0.32924,-2.098862 0.37247,-1.23711 1.00619,-2.386373 2.00253,-3.631636 0.81747,-1.021697 1.7137,-1.96023 2.38553,-2.498142 0.16063,-0.128607 0.81412,-0.588126 1.45221,-1.021154 1.88994,-1.282577 2.84829,-1.998489 3.5664,-2.664183 0.43569,-0.403884 0.51727,-0.501569 0.63226,-0.757116 0.068,-0.151149 0.0941,-0.295271 0.0958,-0.529884 0.002,-0.278515 -0.014,-0.35022 -0.11864,-0.528179 -0.14545,-0.247444 -0.39526,-0.437603 -0.69166,-0.526496 -0.29477,-0.0884 -1.25325,-0.135915 -3.8709,-0.191872 l -6.55277,-0.13527 v 6e-6 c -0.55537,-0.02011 -1.05811,-0.05268 -1.11719,-0.07237 -0.0837,-0.02788 0.0495,-0.0657 0.60156,-0.170925 l 7.13036,-1.192523 c 0.40795,-0.08104 0.8026,-0.176942 0.877,-0.213122 0.0744,-0.03618 0.30928,-0.221394 0.52197,-0.411587 0.52667,-0.470944 0.8453,-0.693786 1.38179,-0.966379 0.87539,-0.44479 1.76267,-0.649024 2.63246,-0.605937 0.62076,0.03075 1.06693,0.143193 1.58996,0.400702 0.74539,0.366986 1.33382,1.073333 1.59589,1.915721 0.0908,0.291861 0.0425,0.387981 0.0715,0.416258 l 0.42882,0.418224 c 0.38355,0.421115 0.52814,0.656343 0.52814,0.859199 -0.0452,0.25723 -0.34066,0.652752 -0.34066,0.652752 -0.022,0.03988 -0.18158,0.212294 -0.35457,0.383148 l -0.31453,0.310642 -0.94096,1.021721 -0.25859,0.268009 -0.11474,0.120431 c 0,0 -0.7345,0.759875 -1.7156,1.751513 -2.09658,2.119097 -2.56536,2.627896 -3.22498,3.500244 -1.03327,1.36651 -1.43408,2.622555 -1.43284,4.490235 0.001,1.532795 0.27505,2.43977 0.95622,3.164917 0.50733,0.540074 1.17036,0.897593 2.09088,1.127438 0.6305,0.157429 1.07744,0.207341 1.84766,0.206337 1.21049,-0.0016 2.14391,-0.162014 2.77253,-0.47654 M 16.69773,28.354596 A 13.5,13.5 0 0 1 10.5,17 13.5,13.5 0 0 1 24,3.5 13.5,13.5 0 0 1 37.5,17 v 0 A 13.5,13.5 0 0 1 31.01614,28.533591 M 9.20316,25.104284 C 9.17996,25.127454 8.39636,23.987344 8.11394,23.519563 7.52683,22.547129 6.82591,21.032421 6.47033,19.967705 5.96059,18.44141 5.58932,16.274254 5.37571,14.317742 L 5.29451,13.574 M 7.3906,31.881629 C 6.16093,31.454642 4.88109,30.600344 3.98248,29.974295 3.57234,29.687148 3.21495,29.474031 3.21495,29.474031 M 2.724,21.975458 4.23725,24.262321 c 0.60019,0.910651 1.32852,1.87473 1.97632,2.63857 0.95962,1.133955 1.59609,1.671505 1.59609,1.671505 m 30.98685,-3.46861 c 0.0232,0.02317 0.80679,-1.11694 1.08921,-1.584721 0.58711,-0.972434 1.28804,-2.487142 1.64362,-3.551858 0.50973,-1.526295 0.881,-3.693451 1.09461,-5.649963 l 0.0812,-0.743742 m -2.09609,18.307629 c 1.22967,-0.426987 2.50951,-1.281285 3.40812,-1.907334 0.41014,-0.287147 0.76753,-0.500264 0.76753,-0.500264 m 0.49095,-7.498573 -1.51324,2.286863 c -0.60019,0.910651 -1.32853,1.87473 -1.97633,2.63857 C 40.82647,28.034348 40.19,28.571898 40.19,28.571898 M 45.5,24 A 21.5,21.5 0 0 1 24,45.5 21.5,21.5 0 0 1 2.5,24 21.5,21.5 0 0 1 24,2.5 21.5,21.5 0 0 1 45.5,24 Z"
      />
</svg>
