<?xml version="1.0" encoding="utf-8"?>
<!-- Generator: Adobe Illustrator 26.0.2, SVG Export Plug-In . SVG Version: 6.00 Build 0)  -->
<svg version="1.1" xmlns="http://www.w3.org/2000/svg" xmlns:xlink="http://www.w3.org/1999/xlink" x="0px" y="0px"
	 viewBox="0 0 48 48" style="enable-background:new 0 0 48 48;" xml:space="preserve">
<g id="Layer_1" style="display:none;">
	
		<rect x="-1312.028" y="-83.181" style="display:inline;fill:#282828;stroke:#FFFFFF;stroke-width:0;stroke-miterlimit:10;" width="3706.467" height="4077.28"/>
</g>
<g id="Layer_2">
	
		<ellipse transform="matrix(0.9501 -0.3119 0.3119 0.9501 -9.8565 9.9029)" style="fill:none;stroke:#FFFFFF;stroke-miterlimit:10;" cx="26.034" cy="35.768" rx="2.513" ry="2.788"/>
	<g>
		<g>
			<path style="fill:none;stroke:#FFFFFF;stroke-linecap:round;stroke-linejoin:round;stroke-miterlimit:10;" d="M18.239,17.732
				l-1.157,0.216c-2.315,0.431-3.948,1.143-4.901,2.135c-0.853,0.889-1.16,1.972-0.921,3.251c0.23,1.23,0.911,2.146,2.043,2.749
				c1.148,0.6,2.502,0.755,4.061,0.465l0.665-0.124c1.477-0.276,2.601-0.943,3.371-2.003c0.77-1.06,1.025-2.286,0.765-3.68
				l-0.57-3.05c-0.398-2.131-1.257-3.591-2.576-4.381c-1.108-0.659-2.491-0.833-4.149-0.524c-1.609,0.3-2.782,0.884-3.52,1.751
				c-0.625,0.744-0.858,1.543-0.699,2.395l0.198,1.058"/>
		</g>
		<path style="fill:none;stroke:#FFFFFF;stroke-linecap:round;stroke-linejoin:round;stroke-miterlimit:10;" d="M2.517,11.083
			l5.26,12.565c0.975,2.329,0.131,5.033-2.013,6.366c-1.051,0.654-2.506,1.201-4.517,1.493"/>
		<polyline style="fill:none;stroke:#FFFFFF;stroke-linecap:round;stroke-linejoin:round;stroke-miterlimit:10;" points="
			22.263,11.436 31.513,9.217 25.991,21.648 34.819,19.845 		"/>
		<polyline style="fill:none;stroke:#FFFFFF;stroke-linecap:round;stroke-linejoin:round;stroke-miterlimit:10;" points="
			34.197,6.644 43.447,4.426 37.925,16.856 46.753,15.053 		"/>
	</g>
	<path style="fill:none;stroke:#FFFFFF;stroke-linecap:round;stroke-linejoin:round;stroke-miterlimit:10;" d="M22.111,39.523
		c-0.839,0.588-1.938,0.782-2.983,0.427c-1.742-0.591-2.676-2.482-2.085-4.225c0.542-1.598,2.178-2.516,3.79-2.201"/>
	<path style="fill:none;stroke:#FFFFFF;stroke-linecap:round;stroke-miterlimit:10;" d="M31.668,35.569
		c0.11,0.287,0.247,0.507,0.413,0.659c0.166,0.151,0.396,0.251,0.691,0.3c0.294,0.049,0.622,0.036,0.983-0.037
		c0.24-0.049,0.458-0.125,0.655-0.23s0.347-0.214,0.451-0.328c0.138-0.148,0.237-0.32,0.295-0.513
		c0.058-0.194,0.067-0.393,0.025-0.599c-0.046-0.225-0.144-0.42-0.296-0.583s-0.349-0.275-0.592-0.336
		c-0.237-0.059-0.644-0.103-1.222-0.132c-0.578-0.029-0.985-0.073-1.222-0.132c-0.242-0.061-0.44-0.173-0.592-0.336
		c-0.152-0.163-0.251-0.358-0.296-0.583c-0.042-0.205-0.033-0.405,0.025-0.599c0.059-0.194,0.157-0.365,0.295-0.513
		c0.104-0.114,0.254-0.224,0.451-0.328c0.197-0.105,0.416-0.181,0.655-0.23c0.361-0.073,0.689-0.085,0.983-0.037
		c0.294,0.049,0.524,0.149,0.691,0.3c0.166,0.152,0.304,0.372,0.413,0.659"/>
	<path style="fill:none;stroke:#FFFFFF;stroke-linecap:round;stroke-miterlimit:10;" d="M38.497,35.151l-0.702-2.809
		c-0.285-1.138,0.414-2.302,1.552-2.587h0c1.138-0.285,2.302,0.414,2.587,1.552l0.693,2.77"/>
	
		<line style="fill:none;stroke:#FFFFFF;stroke-linecap:round;stroke-miterlimit:10;" x1="37.765" y1="32.222" x2="36.333" y2="27.442"/>
	
		<line style="fill:none;stroke:#FFFFFF;stroke-linecap:round;stroke-miterlimit:10;" x1="29.324" y1="37.725" x2="27.697" y2="32.576"/>
</g>
</svg>
