<?xml version="1.0" encoding="UTF-8"?>
<svg version="1.1" viewBox="0 0 48 48" xmlns="http://www.w3.org/2000/svg"><defs><style>.a{fill:none;stroke:#fff;stroke-linecap:round;stroke-linejoin:round;}</style></defs><path class="a" d="m40.5 5.5h-33a2 2 0 0 0-2 2v33a2 2 0 0 0 2 2h33a2 2 0 0 0 2-2v-33a2 2 0 0 0-2-2z"/><path class="t" d="m15.751 13.607v6c0 1.1046-0.8954 2-2 2v0c-1.1046 0-2-0.8954-2-2v-0.6642" fill="none" stroke="#fff" stroke-linecap="round" stroke-linejoin="round"/><path class="t" d="m22.321 20.562c-0.3445 0.6029-0.9937 1.0093-1.7378 1.0093v0c-1.1046 0-2-0.8954-2-2v-1.3c0-1.1046 0.8954-2 2-2v0c1.1046 0 2 0.8954 2 2v0.65h-4" fill="none" stroke="#fff" stroke-linecap="round" stroke-linejoin="round"/><path class="t" d="m32.249 16.236v8m0-4.7c0 1.1046 0.8954 2 2 2v0c1.1046 0 2-0.8954 2-2v-1.3c0-1.1046-0.8954-2-2-2v0c-1.1046 0-2 0.8954-2 2" fill="none" stroke="#fff" stroke-linecap="round" stroke-linejoin="round"/><path class="t" d="m29.154 20.597c-0.3445 0.6029-0.9937 1.0093-1.7378 1.0093v0c-1.1046 0-2-0.8954-2-2v-1.3c0-1.1046 0.8954-2 2-2v0c1.1046 0 2 0.8954 2 2v0.65h-4" fill="none" stroke="#fff" stroke-linecap="round" stroke-linejoin="round"/><path transform="matrix(.63805 0 0 .63805 13.631 -6.25)" d="m16.251 50.769 1.5954 4.9391h5.2027l-4.2044 3.0436 1.6077 4.9481-4.1938-3.0581-4.2091 3.0581 1.6125-4.9336-4.2091-3.0581 5.1904 9e-3z" fill="none" stroke="#fff" stroke-linecap="round" stroke-linejoin="round" stroke-width="1.5673" style="paint-order:normal"/><path transform="matrix(.47922 0 0 .47922 6.6168 2.5977)" d="m16.251 50.769 1.5954 4.9391h5.2027l-4.2044 3.0436 1.6077 4.9481-4.1938-3.0581-4.2091 3.0581 1.6125-4.9336-4.2091-3.0581 5.1904 9e-3z" fill="none" stroke="#fff" stroke-linecap="round" stroke-linejoin="round" stroke-width="2.0867" style="paint-order:normal"/><path transform="matrix(.47922 0 0 .47922 25.807 2.5977)" d="m16.251 50.769 1.5954 4.9391h5.2027l-4.2044 3.0436 1.6077 4.9481-4.1938-3.0581-4.2091 3.0581 1.6125-4.9336-4.2091-3.0581 5.1904 9e-3z" fill="none" stroke="#fff" stroke-linecap="round" stroke-linejoin="round" stroke-width="2.0867" style="paint-order:normal"/></svg>
