<?xml version="1.0" encoding="UTF-8" standalone="no"?>
<svg
   viewBox="0 0 48 48"
   version="1.1"
   id="svg11797"
   sodipodi:docname="jefit.svg"
   xml:space="preserve"
   inkscape:version="1.2.1 (9c6d41e410, 2022-07-14)"
   xmlns:inkscape="http://www.inkscape.org/namespaces/inkscape"
   xmlns:sodipodi="http://sodipodi.sourceforge.net/DTD/sodipodi-0.dtd"
   xmlns="http://www.w3.org/2000/svg"
   xmlns:svg="http://www.w3.org/2000/svg"><sodipodi:namedview
     id="namedview11799"
     pagecolor="#ffffff"
     bordercolor="#000000"
     borderopacity="0.24705882"
     inkscape:showpageshadow="2"
     inkscape:pageopacity="0"
     inkscape:pagecheckerboard="0"
     inkscape:deskcolor="#d1d1d1"
     showgrid="true"
     inkscape:zoom="8"
     inkscape:cx="16"
     inkscape:cy="20.5"
     inkscape:window-width="1920"
     inkscape:window-height="1011"
     inkscape:window-x="0"
     inkscape:window-y="0"
     inkscape:window-maximized="1"
     inkscape:current-layer="svg11797"
     showguides="false"
     showborder="true"><inkscape:grid
       type="xygrid"
       id="grid12293"
       enabled="false" /></sodipodi:namedview><defs
     id="defs11787"><style
       id="style11785">.a,.b{fill:none;stroke:#fff;stroke-linecap:round;stroke-linejoin:round;}.b{stroke-width:0.9909px;}</style></defs><circle
     style="fill:#ffffff;fill-opacity:0;stroke:#ffffff;stroke-linecap:round;stroke-linejoin:round;stroke-opacity:1;stroke-width:1;stroke-dasharray:none"
     id="path13755"
     cx="31.612495"
     cy="9.0841389"
     r="3.8085938" /><path
     id="path3108"
     style="fill:none;stroke:#ffffff;stroke-linecap:round;stroke-linejoin:round;stroke-opacity:1;stroke-width:1;stroke-dasharray:none"
     d="m 6.1699033,20.109827 c 0.394116,-1.810151 0.9951736,-3.450973 1.9133355,-5.059995"
     sodipodi:nodetypes="cc" /><path
     id="path3225"
     style="fill:none;stroke:#ffffff;stroke-linecap:round;stroke-linejoin:round;stroke-opacity:1;stroke-width:1;stroke-dasharray:none"
     d="m 18.504027,40.367778 c -0.12242,-0.04611 -0.70656,-0.178623 -1.260489,-0.353769 C 16.69691,39.84117 16.180394,39.625699 16.063305,39.576807 9.4127717,36.799802 5.7524415,31.321762 5.7524414,23.989502 c 0,-0.590325 0.028663,-1.180301 0.085889,-1.767846"
     sodipodi:nodetypes="csssc" /><path
     id="path3355"
     style="fill:none;stroke:#ffffff;stroke-linecap:round;stroke-linejoin:round;stroke-opacity:1;stroke-width:1;stroke-dasharray:none"
     d="M 41.759535 19.893023 A 18.236572 18.236572 0 0 1 42.225586 23.989502 L 42.225586 23.989502 A 18.236572 18.236572 0 0 1 33.726371 39.408855 " /><path
     id="path3221"
     style="fill:none;stroke:#ffffff;stroke-linecap:round;stroke-linejoin:round;stroke-opacity:1;stroke-width:1;stroke-dasharray:none"
     d="m 38.378947,12.727574 c 1.207377,1.521402 1.945065,2.977191 2.614691,4.800382"
     sodipodi:nodetypes="cc" /><path
     id="path3214"
     style="fill:none;stroke:#ffffff;stroke-linecap:round;stroke-linejoin:round;stroke-opacity:1;stroke-width:1;stroke-dasharray:none"
     d="M 8.9413068 13.687119 A 18.236572 18.236572 0 0 1 23.989014 5.7529297 A 18.236572 18.236572 0 0 1 28.433336 6.3027678 " /><path
     id="path3202"
     style="fill:none;stroke:#ffffff;stroke-linecap:round;stroke-linejoin:round;stroke-opacity:1;stroke-width:1;stroke-dasharray:none"
     d="m 38.361429,12.730899 c -4.606509,2.475218 -11.26254,3.895088 -18.259294,3.895088 -4.227212,0 -8.344796,-0.59551 -12.0136337,-1.582403"
     sodipodi:nodetypes="csc" /><path
     id="path3197"
     style="fill:none;stroke:#ffffff;stroke-width:1;stroke-linecap:round;stroke-linejoin:round;stroke-dasharray:none;stroke-opacity:1"
     d="m 29.731212,21.421037 c -3.028136,0.479266 -6.430186,0.677777 -9.792045,0.677777 -4.920391,0 -9.708986,-0.667778 -13.7592113,-1.980929"
     sodipodi:nodetypes="csc" /><path
     id="path3367"
     style="fill:none;stroke:#ffffff;stroke-width:1;stroke-linecap:round;stroke-linejoin:round;stroke-dasharray:none;stroke-opacity:1"
     d="m 40.91586,17.580321 c -1.110778,0.734318 -2.156606,1.31036 -3.642424,1.867445"
     sodipodi:nodetypes="cc" /><path
     id="path3350"
     style="fill:none;stroke:#ffffff;stroke-width:1;stroke-linecap:round;stroke-linejoin:round;stroke-opacity:1;stroke-dasharray:none"
     d="m 29.756273,21.434618 c -1.285084,12.246867 -6.0196,20.868176 -11.460058,20.868176 -2.673945,0 -5.590398,-1.958797 -7.680086,-5.823599"
     sodipodi:nodetypes="csc" /><path
     id="path3276-7"
     style="fill:none;stroke:#ffffff;stroke-width:1;stroke-linecap:round;stroke-linejoin:round;stroke-dasharray:none;stroke-opacity:1"
     d="m 37.259129,19.460564 c -0.10577,0.764805 -0.250168,1.627482 -0.441814,2.513471 -0.656321,2.991155 -1.261673,6.001944 -2.089476,8.950002 -1.374901,4.8487 -3.216448,8.265068 -4.816034,10.807261 -0.524739,0.833957 -1.134367,1.438844 -1.726362,2.054292 -0.635686,0.66087 -1.373337,1.201964 -1.975148,1.601157 -0.348527,0.231184 -1.151116,0.575871 -1.489282,0.721705 -0.867336,0.374039 -1.580503,0.493635 -3.117355,0.493635 -4.844326,0 -9.599214,-3.779701 -12.1976124,-11.655603"
     sodipodi:nodetypes="cccsssssc" /></svg>
