<svg xmlns="http://www.w3.org/2000/svg" width="48" height="48"><path fill="none" stroke="#fff" stroke-linecap="round" stroke-linejoin="round" stroke-width="1" d="M23 26.2a1.4 1.4 0 01-1.5 1.4 1.4 1.4 0 110-2.8 1.4 1.4 0 011.4 1.4zm17.2-13c-.2 0-.8 0-1.2.3l-.9.3.2 1.5c.1 1.5 0 2-.7 1.5-.2-.2-.3-.8-.3-1.8v-1.4h-.7c-.3 0-.9 0-1.2.2-.6.2-.6.3-.6 1.6s-.6 2.7-2 2.7h-.6l.5-.3c.5-.4 1.2-1.5 1.2-2 0-.7-.9-1.3-1.8-1.3-.7 0-1.1.2-1.7.7-2.2 1.9-1.2 5 1.5 5a5 5 0 003.2-1.3c.3-.4.5-.4 1-.2s1 .2 1.7 0c.5-.2.9-.2.9-.1l-1 .7c-1.2.8-1.5 1.5-1 2.4.3.5.6.6 1.4.6 1.7 0 2.8-1 2.8-2.3 0-.2 0-.5.2-.6l.4-.1v-.9h-.3l-.1-1.8c-.3-3.1-.4-3.5-.9-3.5zm-13.4 1.2a3 3 0 00-1 0c-1.5.2-1.7.6-1.7 2.5 0 2-.4 3-1 3-.4 0-.5-.5-.2-1.7.3-1 0-1-1.3-1-1 0-1-.2-1.1-.6-.1-.5-.2-.6-1.2-.4-1.3.2-1.4.3-1.1 1.3.2.9.2 2 0 2.6-.1.4-1.2 1-1.8 1-.3 0-.2-.1.3-.7 1-1 1.1-1.7.7-2.4-1.2-1.7-4.2-.2-4.4 2.3-.2 1.1.4 2 1.6 2.6 2 .8 4.6-.3 5.4-2.4l.6-1.3c.1-.4.2-.2.2.7 0 1 .2 1.3.6 1.6.7.5 1.9.4 2.6-.3.5-.3.8-.4 1-.3.9.6 2.8 0 3.5-1 .6-.9.5-1.8-.5-3-.5-.6-1-1.3-1-1.5 0-.7.1-1-.2-1zm-16 0l-1 .2c-1.7.5-1.7.5-.9 3 1 3 .7 4.2-1.2 3.9l-1.3-.2c-.3 0-.5.2-.8 1-.3 1.3-.2 1.7 1 2 1.9.6 4 0 5.2-1.2.5-.6.5-.8.5-2.7 0-2-.6-5.2-1-5.8-.1-.1-.2-.2-.5-.2zM34 21.6c-.4 0-.7 0-1 .3-.4.5-.2 1.6.6 1.7.6.1.8.4.8.6 0 .3.7.1.8-.2.3-.7.2-1.7-.2-2-.2-.3-.6-.4-1-.4zm-7.7.5c-.7 0-2 .3-2.2.7-.4.6.1 5.5.9 8.1.3 1.2.3 1.2 1.2 1.2.7-.1.8-.2.9-.7v-.7l1.2.6c1.1.6 2.6.8 2.8.4l.2-.8v-.5c-.1 0-.6-.4-.9-.4-.4 0-.8 0-1-.2-.3-.2-.3-.3.1-.9.6-1.1.8-2 .6-2.8-.4-1.1-1.7-1.5-2.9-.7l-.6.4.2-1.8c0-1.5 0-1.7-.3-1.8h-.2zm5.6 8.6c.3.2 1 .3 1.4.3.8 0 2.6-.7 2.8-1.2h.6c.6.4 2 .3 2.8-.1.4-.2 1-.7 1-1.2.1-.7.3-1 1-1 .7.1 1.2-.5 1-1 0-.3-.4-.3-1.3-.3-1.3 0-2-.7-2.3-2.1-.2-1-.4-1-1.7-.7-1 .3-1.2.5-1.2 2.1 0 2.2-.7 3.4-2 3.4-.4 0-.3-.1.3-.8 1.8-1.8.1-3.7-2.1-2.5-1.3.7-2 2.8-1.4 4l.6.6.5.5zm-14.4-6.9c-1 0-1.7 0-2.6.4-.4 1.3-.5 2.7-.7 4.1-.7-1.5-1-2.3-2-3.6-.5 0-1.7 0-2.3.4-.2.7-.3 2-.4 5v4.8c1.5 0 2.5-.4 3.2-.5v-3l1.7 2.2 1.6-.4.6-2.6c.3.4.5 1 .7 1.6l.6 1.3H19c.7-.2 1.4-.3 1.5-.5.4-.3.4-.2-1.9-6.1zm5.7 4.2l-.7.1c-2 .3-2 .4-1.3 3.1.3 1 .4 1.8 1.3 1.6 1.4-.2 1.5-.2 1.4-2.3-.2-1.9-.2-2.4-.7-2.5z" paint-order="markers fill stroke"/></svg>