<svg xmlns="http://www.w3.org/2000/svg" viewBox="0 0 48 48"><defs><style>.a{fill:none;stroke:#fff;stroke-linecap:round;stroke-linejoin:round;}</style></defs> <path  class="a"  d="M24.54,3.34L24.54,3.34A20.50 20.50 0 0 1 44.58,24.29L44.57,24.81A20.50 20.50 0 0 1 23.62,44.86L23.62,44.86A20.50 20.50 0 0 1 3.58,23.91L3.59,23.39A20.50 20.50 0 0 1 24.54,3.34z"/> <path  class="a"  d="M13.85,22.16L13.57,36.42L33.81,36.42L33.66,22.10"/> <path  class="a"  d="M10.99,24.97L24.08,11.19L36.29,24.89"/> <path  class="a"  d="M23.81,16.46C24.69,16.46,25.40,17.15,25.40,18.00C25.40,18.85,24.69,19.54,23.81,19.54C22.93,19.54,22.21,18.85,22.21,18.00C22.21,17.15,22.93,16.46,23.81,16.46z"/> <path  class="a"  d="M28.27,20.65C29.15,20.65,29.87,21.34,29.87,22.19C29.87,23.03,29.15,23.72,28.27,23.72C27.39,23.72,26.68,23.03,26.68,22.19C26.68,21.34,27.39,20.65,28.27,20.65z"/> <path  class="a"  d="M19.37,20.71C20.25,20.71,20.96,21.40,20.96,22.25C20.96,23.10,20.25,23.79,19.37,23.79C18.49,23.79,17.78,23.10,17.78,22.25C17.78,21.40,18.49,20.71,19.37,20.71z"/> <path  class="a"  d="M29.26,25.94C30.14,25.94,30.85,26.63,30.85,27.48C30.85,28.33,30.14,29.02,29.26,29.02C28.38,29.02,27.66,28.33,27.66,27.48C27.66,26.63,28.38,25.94,29.26,25.94z"/> <path  class="a"  d="M18.49,25.90C19.37,25.90,20.09,26.59,20.09,27.44C20.09,28.29,19.37,28.98,18.49,28.98C17.61,28.98,16.90,28.29,16.90,27.44C16.90,26.59,17.61,25.90,18.49,25.90z"/> <path  class="a"  d="M23.89,30.51C24.77,30.51,25.48,31.20,25.48,32.05C25.48,32.90,24.77,33.59,23.89,33.59C23.01,33.59,22.30,32.90,22.30,32.05C22.30,31.20,23.01,30.51,23.89,30.51z"/> <path  class="a"  d="M23.89,26.01C24.77,26.01,25.48,26.70,25.48,27.55C25.48,28.40,24.77,29.09,23.89,29.09C23.01,29.09,22.29,28.40,22.29,27.55C22.29,26.70,23.01,26.01,23.89,26.01z"/> <path  class="a"  d="M23.82,19.60L23.81,25.94"/> <path  class="a"  d="M25.09,26.18L27.17,23.55"/> <path  class="a"  d="M25.59,27.55L27.30,27.55"/> <path  class="a"  d="M23.84,29.21L23.85,30.38"/> <path  class="a"  d="M20.30,27.51L22.08,27.51"/> <path  class="a"  d="M20.34,23.64L22.57,26.24"/></svg>