<svg viewBox="0 0 48 48" xmlns="http://www.w3.org/2000/svg">
    <style>
        .a{fill:none;stroke:#FFFFFF;stroke-linecap:round;stroke-linejoin:round}
    </style>
    <path class="a" d="M36.0776978,38.5765839H11.2361336c-0.7755489,0-1.4042559-0.6287079-1.4042559-1.4042549V5.9042554  C9.8318777,5.1287065,10.4605846,4.5,11.2361336,4.5h24.8415642c1.2397003,0,2.2446785,1.0049777,2.2446785,2.2446809v29.5872211  C38.3223763,37.5716057,37.3173981,38.5765839,36.0776978,38.5765839z"/>
    <line class="a" x1="13.570673" x2="13.570673" y1="4.5" y2="38.5765839"/>
    <polyline class="a" points="25.936306,4.5037341 25.936306,13.3707199 25.936306,17.453228 25.936306,21.5357361   25.936306,24.7223091  "/>
    <line class="a" x1="32.614254" x2="32.614254" y1="24.6576538" y2="4.5037341"/>
    <line class="a" x1="25.936306" x2="19.6370506" y1="13.3707199" y2="13.3707199"/>
    <line class="a" x1="25.936306" x2="19.6370506" y1="21.5357361" y2="21.5357361"/>
    <line class="a" x1="25.936306" x2="19.6370506" y1="17.453228" y2="17.453228"/>
    <path class="a" d="M34.5862503,25.9415016c-1.2193298-1.5824966-3.4905567-1.8768845-5.0729961-0.6576118l-0.1168652,0.0900307  l-0.1168652-0.0900307c-1.5824394-1.2192726-3.8537235-0.9248848-5.0729961,0.6576118  c-1.2192745,1.5824413-0.9248848,3.8537235,0.6575546,5.072998l4.5323067,3.4921341l4.5323067-3.4921341  C35.5111351,29.7952251,35.8055267,27.5239429,34.5862503,25.9415016z"/>
    <polyline class="a" points="32.0877762,38.5769768 32.0877762,43.5 29.344553,41.9667511 26.6013298,43.5 26.6013298,38.5769768    "/>
</svg>
