<?xml version="1.0" encoding="UTF-8" standalone="no"?>
<!-- Created with Inkscape (http://www.inkscape.org/) -->

<svg
   width="48"
   height="48"
   viewBox="0 0 48 48"
   version="1.1"
   id="svg5"
   inkscape:version="1.2.2 (732a01da63, 2022-12-09)"
   sodipodi:docname="Jugnoo.svg"
   xml:space="preserve"
   xmlns:inkscape="http://www.inkscape.org/namespaces/inkscape"
   xmlns:sodipodi="http://sodipodi.sourceforge.net/DTD/sodipodi-0.dtd"
   xmlns="http://www.w3.org/2000/svg"
   xmlns:svg="http://www.w3.org/2000/svg"><sodipodi:namedview
     id="namedview7"
     pagecolor="#afafaf"
     bordercolor="#000000"
     borderopacity="0.25"
     inkscape:showpageshadow="2"
     inkscape:pageopacity="0"
     inkscape:pagecheckerboard="0"
     inkscape:deskcolor="#d1d1d1"
     inkscape:document-units="mm"
     showgrid="false"
     inkscape:zoom="13.906433"
     inkscape:cx="-1.6898653"
     inkscape:cy="27.864801"
     inkscape:window-width="1920"
     inkscape:window-height="991"
     inkscape:window-x="-9"
     inkscape:window-y="-9"
     inkscape:window-maximized="1"
     inkscape:current-layer="layer1" /><defs
     id="defs2" /><g
     inkscape:label="Layer 1"
     inkscape:groupmode="layer"
     id="layer1"><path
       style="fill:none;stroke:#ffffff;stroke-width:1;stroke-linecap:round;stroke-miterlimit:1.9;stroke-opacity:1;stroke-dasharray:none"
       d="m 32.159785,16.884841 c 1.260234,-3.347874 2.619863,-6.9256599 5.42482,-9.2950951 2.93381,-2.5402749 5.545156,0.4024247 5.946875,2.9644721"
       id="path9401"
       sodipodi:nodetypes="ccc" /><path
       style="fill:none;stroke:#ffffff;stroke-width:1;stroke-linecap:round;stroke-miterlimit:1.9;stroke-opacity:1;stroke-dasharray:none"
       d="m 43.53148,10.554218 c 0.417799,2.965607 -0.916543,5.144243 -2.996468,7.404569 -2.808024,2.719507 -6.135247,4.95062 -9.734864,6.479731 C 23.609718,27.316157 14.876271,27.418067 8.2154362,23.12116 6.1268875,21.61835 3.70552,19.874542 3.3262087,17.132664 2.6441484,9.8346263 11.40871,8.8543372 16.547551,9.729776 c 5.74669,0.881448 11.589761,3.006209 15.694739,7.27046 0.501238,0.613291 0.939868,1.279052 1.291831,1.989058"
       id="path9414"
       sodipodi:nodetypes="cccccccc" /><path
       style="fill:none;stroke:#ffffff;stroke-width:1;stroke-linecap:round;stroke-miterlimit:1.9;stroke-opacity:1;stroke-dasharray:none"
       d="m 30.355969,21.136694 c -4.746758,-4.382667 -11.01175,-8.013282 -17.691254,-7.332765 -2.011973,0.04888 -4.2976134,0.868723 -4.3602259,3.210399 -0.070966,2.594132 2.5604469,4.024604 4.6331289,4.898025 5.568496,2.301569 11.992248,1.566552 17.418351,-0.775659 z"
       id="path9418"
       sodipodi:nodetypes="ccsc" /><path
       style="fill:none;stroke:#ffffff;stroke-width:1;stroke-linecap:round;stroke-miterlimit:1.9;stroke-opacity:1;stroke-dasharray:none"
       d="m 32.159785,16.884841 c 0.995122,-2.874669 3.009762,-5.393649 5.440288,-7.1984507 2.498253,-1.6763797 3.946843,0.6855517 3.443185,2.7674137 -1.179187,3.592577 -5.469414,5.685225 -7.509137,6.53549"
       id="path9420"
       sodipodi:nodetypes="cccc" /><path
       style="fill:none;stroke:#ffffff;stroke-width:1;stroke-linecap:round;stroke-miterlimit:1.9;stroke-opacity:1;stroke-dasharray:none"
       d="m 17.729767,26.56844 c -1.312813,6.283507 1.474595,13.474634 7.598985,16.074015 3.582177,1.438682 7.961226,1.542513 11.330347,-1.212029 5.800367,-5.862301 3.021287,-13.710813 -0.873432,-19.469287"
       id="path9422"
       sodipodi:nodetypes="cccc" /><path
       style="fill:none;stroke:#ffffff;stroke-width:1;stroke-linecap:round;stroke-miterlimit:1.9;stroke-opacity:1;stroke-dasharray:none"
       d="m 17.729767,26.56844 c 0.392323,4.871276 2.313135,9.730129 6.481801,12.551362 3.77978,2.585095 9.967971,1.240663 11.620764,-3.239921 1.625851,-4.96121 -1.174507,-8.523879 -3.246945,-11.962948"
       id="path9424"
       sodipodi:nodetypes="cccc" /></g></svg>
