<?xml version="1.0" encoding="utf-8"?>
<!-- Generator: Adobe Illustrator 27.2.0, SVG Export Plug-In . SVG Version: 6.00 Build 0)  -->
<svg version="1.1" id="Layer_2_00000005976043203980548380000013242466454123094698_"
	 xmlns="http://www.w3.org/2000/svg" xmlns:xlink="http://www.w3.org/1999/xlink" x="0px" y="0px" viewBox="0 0 48 48"
	 style="enable-background:new 0 0 48 48;" xml:space="preserve">
<style type="text/css">
	.st0{fill:none;stroke:#FFFFFF;stroke-linecap:round;stroke-linejoin:round;stroke-miterlimit:10;}
</style>
<g>
	<path class="st0" d="M14.5,40.01l-5.69,3.28c-0.92,0.52-2.05-0.14-2.05-1.19v-6.56L14.5,40.01z"/>
	<polygon class="st0" points="14.5,29.33 6.77,33.8 6.77,24.86 	"/>
	<polygon class="st0" points="14.5,18.67 6.77,23.14 6.77,14.2 	"/>
	<path class="st0" d="M14.5,7.99L8.82,4.71C7.9,4.19,6.77,4.85,6.77,5.9v6.56L14.5,7.99z"/>
	<polygon class="st0" points="34.28,29.33 26.54,33.8 26.54,24.86 	"/>
	<polygon class="st0" points="34.28,18.67 26.54,23.14 26.54,14.2 	"/>
	<polygon class="st0" points="24.32,24 16.58,28.47 16.58,19.53 	"/>
	<polygon class="st0" points="24.32,13.34 16.58,17.79 16.58,8.87 	"/>
	<polygon class="st0" points="24.32,34.66 16.58,30.21 16.58,39.13 	"/>
	<path class="st0" d="M42.89,24.59l-6.71,3.87v-8.94l6.71,3.87C43.36,23.67,43.36,24.33,42.89,24.59z"/>
</g>
</svg>
