<svg id="Layer_2" data-name="Layer 2" xmlns="http://www.w3.org/2000/svg" viewBox="0 0 48 48"><defs><style>.cls-1{fill:none;stroke:#000;stroke-linecap:round;stroke-linejoin:round;}.cls-2{fill:#000;}</style></defs><path class="cls-1" d="M29.41,10.06,28,8.44l-2.37.94L26.74,6.9,25.46,5.26,23.8,7.13l-.08-2.61H21.2L20.48,6.9l-1.2-2.39H15a.24.24,0,0,0-.24.3l.67,2.8-2.33,2.5a.23.23,0,0,0,0,.26l.65,1.52-2.63,4.35a.25.25,0,0,0,.05.32l3.77,3a.26.26,0,0,0,.29,0l4.69-3.85a.89.89,0,0,1,.6-.2.94.94,0,0,1,.87.4,1.68,1.68,0,0,1-.13,1.2S16,29.82,15.77,30.43c-.8.39-1.23.85-1.23,1.32a1.17,1.17,0,0,0,.43.79l-.36.94,0,5.26a.24.24,0,0,0,.25.25l7-.38m7.55-28.55a6.6,6.6,0,0,0-4.33,11.58c-.44.24-.67.52-.67.8s.24.57.69.81A28.76,28.76,0,0,1,23.16,32c-.79.39-1.22.85-1.22,1.32a1.09,1.09,0,0,0,.43.79l-.51,1.31v3.88h0c.11,3,3.45,4.23,7.54,4.23s7.42-1.18,7.53-4.23h0V35.39c-.25-.39-.46-.78-.67-1.16a1.3,1.3,0,0,0,.6-.94c0-.57-.63-1.12-1.77-1.55a23.43,23.43,0,0,1-1.4-8.48c.45-.25.69-.53.7-.82s-.24-.56-.68-.8a6.6,6.6,0,0,0-4.32-11.58Zm0,0"/><path class="cls-2" d="M16.61,10.1a.72.72,0,1,1,0,1.44.72.72,0,0,1,0-1.44Z"/></svg>