<?xml version="1.0" encoding="utf-8"?>
<!-- Generator: Adobe Illustrator 26.0.2, SVG Export Plug-In . SVG Version: 6.00 Build 0)  -->
<svg version="1.1" xmlns="http://www.w3.org/2000/svg" xmlns:xlink="http://www.w3.org/1999/xlink" x="0px" y="0px"
	 viewBox="0 0 48 48" style="enable-background:new 0 0 48 48;" xml:space="preserve">
<g id="Layer_1" style="display:none;">
	
		<rect x="-1599.687" y="-83.181" style="display:inline;fill:#282828;stroke:#FFFFFF;stroke-width:0;stroke-miterlimit:10;" width="3706.467" height="4077.28"/>
</g>
<g id="Layer_2">
	<text transform="matrix(0.9557 -0.2942 0.2942 0.9557 3.7904 35.8561)"><tspan x="0" y="0" style="fill:#FFFFFF; font-family:'Arcticons-Regular'; font-size:18.0706px;">K&amp;N</tspan><tspan x="28.352" y="0" style="fill:#FFFFFF; font-family:'Arcticons-Regular'; font-size:18.0706px;">&apos;</tspan><tspan x="30.466" y="0" style="fill:#FFFFFF; font-family:'Arcticons-Regular'; font-size:18.0706px;">s</tspan></text>
	<g>
		<text transform="matrix(0.9557 -0.2942 0.2942 0.9557 13.1357 41.3868)"><tspan x="0" y="0" style="fill:#FFFFFF; font-family:'Arcticons-Regular'; font-size:12.2108px;">w</tspan><tspan x="7.485" y="0" style="fill:#FFFFFF; font-family:'Arcticons-Regular'; font-size:12.2108px;">a</tspan><tspan x="13.126" y="0" style="fill:#FFFFFF; font-family:'Arcticons-Regular'; font-size:12.2108px;">y</tspan></text>
	</g>
	<path style="fill:none;stroke:#FFFFFF;stroke-width:1.0586;stroke-linecap:round;stroke-miterlimit:10;" d="M20.151,10.95
		c0,0,23.73-3.469,26.552,10.869c1.38,11.489-17.878,19.394-17.878,19.394"/>
	<path style="fill:none;stroke:#FFFFFF;stroke-width:1.048;stroke-linecap:round;stroke-miterlimit:10;" d="M44.643,17.108
		c0,0,4.45,6.77-13.381,15.615"/>
	<path style="fill:none;stroke:#FFFFFF;stroke-width:1.048;stroke-linecap:round;stroke-linejoin:round;stroke-miterlimit:10;" d="
		M19.016,10.689c-1.289-0.648-2.229-1.975-2.494-3.574c-0.265,1.6-1.796,3.651-3.085,4.299c-0.251,0.126-0.875,0.32-0.875,0.32
		s0.624,0.194,0.875,0.32c1.289,0.648,2.229,1.975,2.494,3.574c0.265-1.6,1.796-3.651,3.085-4.299
		c0.251-0.126,0.875-0.32,0.875-0.32S19.267,10.816,19.016,10.689z"/>
</g>
</svg>
