<?xml version="1.0" encoding="UTF-8"?>
<svg version="1.1" viewBox="0 0 48 48" xmlns="http://www.w3.org/2000/svg">
 <defs>
  <style>.a{fill:none;stroke:#fff;stroke-linecap:round;stroke-linejoin:round;}</style>
  <style>.a{fill:none;stroke:#fff;stroke-linecap:round;stroke-linejoin:round;}</style>
 </defs>
 <g transform="matrix(1.16645 0 0 1.16734 -2.01094 -5.51588)" style="stroke-width:.856975">
  <path d="m24.9051 25.0731v-2.46517h11.0334v2.5422" style="-inkscape-stroke:none;fill:none;font-variation-settings:normal;stop-color:#000000;stroke-linecap:round;stroke-linejoin:round;stroke-width:.856975;stroke:#ffffff"/>
  <path d="m30.4218 20.4509v2.15702" style="-inkscape-stroke:none;fill:none;font-variation-settings:normal;stop-color:#000000;stroke-linecap:round;stroke-linejoin:round;stroke-width:.856975;stroke:#ffffff"/>
  <path d="m27.0655 25.3042h6.55831l-3.08627 2.38812v5.54662h-2.23754" style="-inkscape-stroke:none;fill:none;font-variation-settings:normal;stop-color:#000000;stroke-linecap:round;stroke-linejoin:round;stroke-width:.856975;stroke:#ffffff"/>
  <path d="m24.905 29.0019h11.0335" style="-inkscape-stroke:none;fill:none;font-variation-settings:normal;stop-color:#000000;stroke-linecap:round;stroke-linejoin:round;stroke-width:.856975;stroke:#ffffff"/>
 </g>
 <rect x="23.9095" y="13.0054" width="18.6631" height="26.8489" rx="1" ry="1" style="fill:none;stroke-linecap:round;stroke-linejoin:round;stroke-miterlimit:36.5;stroke:#ffffff"/>
 <path d="m29.9878 8.20383c-0.151547 3.746e-4 -0.306933 0.030319-0.455644 0.093479l-15.0317 6.38619c-0.594845 0.252688-0.869892 0.936841-0.617399 1.53214l9.57078 22.5648c0.139994 0.330058 0.415268 0.556335 0.731313 0.654353-0.169534-0.202603-0.275668-0.461698-0.275668-0.74783v-24.5142c0-0.646708 0.520236-1.16735 1.16645-1.16735h7.72087l-1.73372-4.08798c-0.18937-0.44647-0.620678-0.714751-1.07532-0.713626z" style="fill:none;stroke-linecap:round;stroke-linejoin:round;stroke-miterlimit:36.5;stroke:#ffffff"/>
 <path d="m18.1365 8.14569c-0.298167 0-0.596247 0.113347-0.824715 0.341994l-11.546 11.5571c-0.45694 0.457288-0.45694 1.1934 0 1.65069l17.319 17.3346c0.252955 0.253145 0.591166 0.360004 0.920404 0.332875-0.2373-0.119913-0.438852-0.316214-0.551334-0.581393l-9.57078-22.5671c-0.252493-0.595297 0.02253-1.27717 0.6174-1.52985l7.47938-3.176-3.01864-3.02095c-0.22847-0.228646-0.526546-0.341994-0.824712-0.341994z" style="fill:none;stroke-linecap:round;stroke-linejoin:round;stroke-miterlimit:36.5;stroke:#ffffff"/>
</svg>
