<?xml version="1.0" encoding="utf-8"?>
<svg
	version="1.1"
	xmlns="http://www.w3.org/2000/svg"
	xmlns:xlink="http://www.w3.org/1999/xlink"
	x="0%" y="0%"
	width="100%" height="100%"
	viewBox="0 0 48.0 48.0"
	enable-background="new 0 0 48.0 48.0"
	xml:space="preserve">
	<path
		fill="#FFFFFF"
		stroke="#000000"
		fill-opacity="0.000"
		stroke-opacity="1.000"
		fill-rule="nonzero"
		stroke-width="0.28352964"
		stroke-linejoin="miter"
		stroke-linecap="square"
		d="M19.25,3.31L29.05,3.31A1.75 1.75 0 0 1 30.80,5.07L30.80,16.62A1.75 1.75 0 0 1 29.05,18.38L19.25,18.38A1.75 1.75 0 0 1 17.50,16.62L17.50,5.07A1.75 1.75 0 0 1 19.25,3.31z"/>
	<path
		fill="#FFFFFF"
		stroke="#000000"
		fill-opacity="0.000"
		stroke-opacity="1.000"
		fill-rule="nonzero"
		stroke-width="0.28352964"
		stroke-linejoin="miter"
		stroke-linecap="square"
		d="M18.41,19.35L18.44,28.92A1.86 1.86 0 0 1 16.59,30.79L5.23,30.83A1.86 1.86 0 0 1 3.36,28.97L3.33,19.41A1.86 1.86 0 0 1 5.18,17.54L16.54,17.50A1.86 1.86 0 0 1 18.41,19.35z"/>
	<path
		fill="#FFFFFF"
		stroke="#000000"
		fill-opacity="0.000"
		stroke-opacity="1.000"
		fill-rule="nonzero"
		stroke-width="0.28352964"
		stroke-linejoin="miter"
		stroke-linecap="square"
		d="M29.50,28.65L29.54,19.62A2.13 2.13 0 0 1 31.67,17.50L42.50,17.54A2.13 2.13 0 0 1 44.62,19.67L44.58,28.71A2.13 2.13 0 0 1 42.45,30.83L31.62,30.79A2.13 2.13 0 0 1 29.50,28.65z"/>
	<path
		fill="#FFFFFF"
		stroke="#000000"
		fill-opacity="0.000"
		stroke-opacity="1.000"
		fill-rule="nonzero"
		stroke-width="0.28352964"
		stroke-linejoin="miter"
		stroke-linecap="square"
		d="M19.47,29.80L28.84,29.80A1.97 1.97 0 0 1 30.80,31.77L30.80,42.90A1.97 1.97 0 0 1 28.84,44.87L19.47,44.87A1.97 1.97 0 0 1 17.50,42.90L17.50,31.77A1.97 1.97 0 0 1 19.47,29.80z"/>
</svg>