<?xml version="1.0" encoding="UTF-8" standalone="no"?>
<svg
   xmlns:dc="http://purl.org/dc/elements/1.1/"
   xmlns:cc="http://creativecommons.org/ns#"
   xmlns:rdf="http://www.w3.org/1999/02/22-rdf-syntax-ns#"
   xmlns:svg="http://www.w3.org/2000/svg"
   xmlns="http://www.w3.org/2000/svg"
   xmlns:sodipodi="http://sodipodi.sourceforge.net/DTD/sodipodi-0.dtd"
   xmlns:inkscape="http://www.inkscape.org/namespaces/inkscape"
   viewBox="0 0 48 48"
   version="1.1"
   id="svg6233"
   sodipodi:docname="keyboard69.svg"
   inkscape:version="1.0.1 (unknown)">
  <metadata
     id="metadata6237">
    <rdf:RDF>
      <cc:Work
         rdf:about="">
        <dc:format>image/svg+xml</dc:format>
        <dc:type
           rdf:resource="http://purl.org/dc/dcmitype/StillImage" />
        <dc:title />
      </cc:Work>
    </rdf:RDF>
  </metadata>
  <sodipodi:namedview
     pagecolor="#ff00ff"
     bordercolor="#666666"
     borderopacity="1"
     objecttolerance="10"
     gridtolerance="10"
     guidetolerance="10"
     inkscape:pageopacity="0"
     inkscape:pageshadow="2"
     inkscape:window-width="1920"
     inkscape:window-height="1048"
     id="namedview6235"
     showgrid="false"
     inkscape:zoom="4"
     inkscape:cx="22.706632"
     inkscape:cy="36.854121"
     inkscape:window-x="0"
     inkscape:window-y="18"
     inkscape:window-maximized="0"
     inkscape:current-layer="svg6233"
     inkscape:document-rotation="0" />
  <defs
     id="defs6229">
    <style
       id="style6227">.a{fill:none;stroke:#fff;stroke-linecap:round;stroke-linejoin:round;}</style>
  </defs>
  <circle
     style="fill:none;stroke:#ffffff;stroke-width:1;stroke-miterlimit:4;stroke-dasharray:none;stroke-opacity:1"
     id="path7695"
     cx="23.762341"
     cy="12.471324"
     r="1.9948841" />
  <path
     id="Selection"
     fill="none"
     stroke="#000000"
     stroke-width="1"
     d="M 7.5507183,34.324731 V 20.846673 c 0.00345,-1.981137 1.0309918,-3.586382 2.9363767,-4.240228 0.721046,-0.247645 1.306923,-0.245313 2.050802,-0.236918 1.257516,0.01494 2.648336,0.838999 3.288281,1.912113 1.821726,4.457989 2.685131,8.592726 4.213936,12.40542 0.450708,0.691158 1.389884,0.591355 1.835935,-0.04663 0.205545,-0.293347 0.262873,-0.85812 0.263339,-1.212562 V 16.416167 c 1.589983,-0.0043 3.180062,-4.2e-4 4.769994,1.2e-5 1.413186,4.33e-4 2.816119,0.630516 3.552077,1.865461 0.381262,0.639861 0.591003,1.478389 0.828711,2.191937 0.994038,3.062584 1.987645,6.125308 2.982988,9.187469 0.119784,0.359105 0.275927,0.874446 0.51503,1.16499 0.402707,0.491091 1.243533,0.413672 1.644841,-0.04757 0.264271,-0.303606 0.341178,-0.727535 0.341644,-1.117423 V 16.416167 h 3.355861 V 30.22069 c -0.0022,1.518965 -0.958751,2.989896 -2.330458,3.623223 -1.000702,0.462173 -1.588909,0.492952 -2.656724,0.480827 -1.264041,-0.01494 -2.598462,-0.845062 -3.241671,-1.912114 -0.44325,-0.734995 -0.80587,-2.123378 -1.092983,-2.984762 -0.943376,-2.941936 -2.032558,-6.199567 -2.909348,-8.954287 -0.226985,-0.598816 -0.467487,-0.947662 -1.145649,-0.932273 -0.842695,0.01961 -1.163836,0.695355 -1.165234,1.445278 v 13.338149 h -5.033789 c -1.465858,-0.0022 -2.929855,-1.006423 -3.52785,-2.331845 -1.239707,-3.680997 -2.286845,-6.997504 -3.369377,-10.260117 -0.182243,-0.588091 -0.459102,-1.826301 -1.026336,-2.113119 -0.163129,-0.08254 -0.334651,-0.08208 -0.5127,-0.07835 -0.972732,0.02237 -1.210441,0.861385 -1.21184,1.678464 v 13.104967 z"
     sodipodi:nodetypes="ccccccccccccccccccccccccccccccccccc"
     style="stroke:#ffffff;stroke-width:1;stroke-miterlimit:4;stroke-dasharray:none;stroke-opacity:1;fill:none" />
</svg>
