<?xml version="1.0" encoding="UTF-8" standalone="no"?>
<svg
   xmlns:dc="http://purl.org/dc/elements/1.1/"
   xmlns:cc="http://creativecommons.org/ns#"
   xmlns:rdf="http://www.w3.org/1999/02/22-rdf-syntax-ns#"
   xmlns:svg="http://www.w3.org/2000/svg"
   xmlns="http://www.w3.org/2000/svg"
   xmlns:sodipodi="http://sodipodi.sourceforge.net/DTD/sodipodi-0.dtd"
   xmlns:inkscape="http://www.inkscape.org/namespaces/inkscape"
   viewBox="0 0 48 48"
   version="1.1"
   id="svg881"
   sodipodi:docname="keybase.svg"
   inkscape:version="1.0.2 (e86c870879, 2021-01-15)">
  <defs
     id="defs1217" />
  <sodipodi:namedview
     pagecolor="#ffffff"
     bordercolor="#666666"
     borderopacity="1"
     objecttolerance="10"
     gridtolerance="10"
     guidetolerance="10"
     inkscape:pageopacity="0"
     inkscape:pageshadow="2"
     inkscape:window-width="1278"
     inkscape:window-height="1414"
     id="namedview1215"
     showgrid="false"
     inkscape:pagecheckerboard="true"
     inkscape:zoom="14.895833"
     inkscape:cx="19.681208"
     inkscape:cy="24"
     inkscape:window-x="1"
     inkscape:window-y="26"
     inkscape:window-maximized="0"
     inkscape:current-layer="svg881" />
  <metadata
     id="metadata885">
    <rdf:RDF>
      <cc:Work
         rdf:about="">
        <dc:format>image/svg+xml</dc:format>
        <dc:type
           rdf:resource="http://purl.org/dc/dcmitype/StillImage" />
        <dc:title></dc:title>
      </cc:Work>
    </rdf:RDF>
  </metadata>
  <path
     id="path1479"
     style="fill:none;stroke:#ffffff;stroke-width:1;stroke-linecap:round;stroke-linejoin:round;stroke-miterlimit:4;stroke-dasharray:none;stroke-opacity:1"
     d="m 14.422997,7.5668988 c 0.156382,-0.1059276 1.728275,-0.051538 1.886119,0.082971 0.155897,0.1521923 0.08691,1.7117488 -0.08297,1.8861177 -0.213574,0.1741528 -1.745959,0.092195 -1.886118,-0.082971 -0.133623,-0.2136366 -0.07568,-1.7761043 0.08297,-1.8861178 z m 2.47731,4.1030632 c -1.558804,0.12457 -4.18204,-0.108626 -4.492524,-0.496659 -0.394746,-0.631091 -0.22355,-5.2467146 0.245101,-5.5717016 0.461959,-0.3129169 5.105421,-0.152246 5.571703,0.2451004 0.192308,0.1877371 0.268773,1.1004144 0.256071,2.1373629 m 6.042959,9.2912743 5.091717,6.29617 c 0.931285,1.318057 -1.225258,2.96107 -2.408024,1.585014 l -0.991776,0.863082 C 24.907283,26.951463 24.596028,26.25815 24,25.469867 c -0.60204,-0.861399 -1.540109,-1.46063 -0.372543,-2.339172 -0.385874,-0.113008 -1.740331,-0.920673 -0.429228,-2.53631 l -1.347137,-1.922614 c -0.837876,-1.481347 1.614911,-2.676294 2.672525,-1.396432 z m 1.39024,1.4 C 29.244362,15.901684 30.851004,8.3348952 21.390409,7.7946834 20.057892,7.6262748 21.634344,4.2083022 21.687185,3.7316419 12.329382,14.729251 18.643898,18.843909 22.39151,19.58595 m 8.244935,18.714808 c 0,0.910937 -0.738459,1.649397 -1.649396,1.649397 -0.910937,0 -1.649396,-0.73846 -1.649396,-1.649397 0,-0.910936 0.73846,-1.649396 1.649396,-1.649396 0.910936,0 1.649396,0.73846 1.649396,1.649396 z m -9.92988,0 c 0,0.910937 -0.738459,1.649397 -1.649396,1.649397 -0.910937,0 -1.649396,-0.73846 -1.649396,-1.649397 0,-0.910936 0.73846,-1.649396 1.649396,-1.649396 0.910936,0 1.649396,0.73846 1.649396,1.649396 z M 18.386068,17.484692 C 12.474722,19.266701 4.5809808,24.738918 5.2764277,39.721466 11.131142,33.615708 17.116988,24.168303 17.386174,23.996679 12.649515,33.156883 11.559706,35.702228 11.473366,36.574092 23.081391,22.862336 41.858164,41.558565 38.06043,24.387806 M 7.4335938,37.583984 c 0.2255466,1.10222 0.5364458,1.758638 0.9648437,2.771485 0.3932745,0.910806 0.8632328,1.756937 1.3886719,2.554687 m 28.4492186,0 c 0.216025,-0.335505 0.420682,-0.679014 0.61337,-1.029997 1.323152,-2.410134 2.081943,-5.172711 2.081943,-8.116487 0,-8.121849 -5.718381,-14.907947 -13.348663,-16.551816 m 10.65335,25.6983 C 42.591509,38.844267 45.499738,33.15342 45.5,27.195312 45.5,15.32119 35.874122,5.6953125 24,5.6953125 c -0.928691,0 -1.84363,0.058882 -2.741286,0.1731153 m -1.511486,0.2474311 c -0.396071,0.07947 -0.788207,0.1698225 -1.176084,0.2707339 M 12.183715,9.230665 C 6.3499427,13.075603 2.5000002,19.685856 2.5,27.195312 c 1.574e-4,3.574668 0.8902878,7.053132 2.5429891,10.142179" />
</svg>
