<svg id="Layer_1" data-name="Layer 1" xmlns="http://www.w3.org/2000/svg" viewBox="0 0 48 48"><defs><style>.cls-1{fill:none;stroke:#fff;stroke-linecap:round;stroke-linejoin:round;}</style></defs><circle id="path7695" class="cls-1" cx="23.91" cy="12.11" r="2.39"/><path id="Selection" class="cls-1" d="M4.5,38.27V22.14A5.1,5.1,0,0,1,8,17.06a6.78,6.78,0,0,1,2.45-.28,4.15,4.15,0,0,1,1.37.26,5.08,5.08,0,0,1,2.95,3c1.93,5,2.94,9.59,4.66,13.88a1.31,1.31,0,0,0,2.2-.06A3,3,0,0,0,22,32.41V16.84c1.91,0,3.81,0,5.71,0a4.88,4.88,0,0,1,4.26,2.23,14.44,14.44,0,0,1,1,2.62l3.57,11a4.7,4.7,0,0,0,.61,1.39,1.35,1.35,0,0,0,2,0,2,2,0,0,0,.41-1.34V16.84h4V33.36a4.91,4.91,0,0,1-2.79,4.34,6.16,6.16,0,0,1-3.18.57A4.9,4.9,0,0,1,33.65,36a21,21,0,0,1-1.31-3.57c-1.13-3.52-2.43-7.42-3.48-10.72-.27-.71-.56-1.13-1.37-1.11-1,0-1.4.83-1.4,1.73v16h-6a4.86,4.86,0,0,1-4.23-2.79c-1.48-4.4-2.73-8.38-4-12.28-.22-.7-.55-2.19-1.23-2.53a1.16,1.16,0,0,0-.61-.09c-1.17,0-1.45,1-1.45,2V38.27Z"/></svg>