<?xml version="1.0" encoding="UTF-8" standalone="no"?>
<svg
   viewBox="0 0 48 48"
   version="1.1"
   xmlns="http://www.w3.org/2000/svg"
   xmlns:svg="http://www.w3.org/2000/svg">
  <defs>
    <style>.a{fill:none;stroke:#fff;stroke-linecap:round;stroke-linejoin:round;}</style>
  </defs>
  <rect
     class="a"
     width="18"
     height="18"
     x="20.5"
     y="9.5"
     rx="2"
     ry="2" />
  <path
     class="a"
     d="m 27,27.5 v 9 c 0,1.108 -0.892,2 -2,2 h -14 c -1.108,0 -2,-0.892 -2,-2 v -14 c 0,-1.108 0.8919999,-2 2,-2 H 20.5" />
  <rect
     class="a"
     width="14"
     height="8"
     x="22.5"
     y="14.5"
     rx="1"
     ry="1" />
  <path
     class="a"
     d="m 27,20.8 h 5"
     id="path1694" />
  <circle
     style="fill:#ffffff"
     cx="25.5"
     cy="16.25"
     r="0.75" />
  <circle
     style="fill:#ffffff"
     cx="27.5"
     cy="16.25"
     r="0.75" />
  <circle
     style="fill:#ffffff"
     cx="29.5"
     cy="16.25"
     r="0.75" />
  <circle
     style="fill:#ffffff"
     cx="31.5"
     cy="16.25"
     r="0.75" />
  <circle
     style="fill:#ffffff"
     cx="33.5"
     cy="16.25"
     r="0.75" />
  <circle
     style="fill:#ffffff"
     cx="33.5"
     cy="18.25"
     r="0.75" />
  <circle
     style="fill:#ffffff"
     cx="31.5"
     cy="18.25"
     r="0.75" />
  <circle
     style="fill:#ffffff"
     cx="29.5"
     cy="18.25"
     r="0.75" />
  <circle
     style="fill:#ffffff"
     cx="27.5"
     cy="18.25"
     r="0.75" />
  <circle
     style="fill:#ffffff"
     cx="25.5"
     cy="18.25"
     r="0.75" />
  <path
     class="a"
     d="m 16,36.5 h 4 v -3 l -2,-2 -2,2 z" />
  <path
     class="a"
     d="m 11.5,32 h 3 l 2,-2 -1.9,-2 h -3.1 z" />
  <path
     class="a"
     d="m 24.5,32 h -3 l -2,-2 1.9,-2 h 3.1 z" />
  <path
     class="a"
     d="m 16,23.5 h 4 v 3 l -2,2 -2,-2 z" />
</svg>
