<svg viewBox="0 0 48 48" xmlns="http://www.w3.org/2000/svg">
    <style>
        .a{fill:none;stroke:#FFFFFF;stroke-linecap:round;stroke-linejoin:round}
    </style>
    <path class="a" d="M38.4771767,30.4244289c0.1298409,0.1875458,0.2611732,0.3441753,0.3556137,0.520565 c0.1940155,0.3623753,0.2050705,0.7177811-0.0957489,1.0426502c-0.1279984,0.1382332-0.2423172,0.2890282-0.3665009,0.4309196 c-0.4457932,0.509346-0.5638008,1.0350876-0.2061043,1.6669464c0.1799393,0.3178596,0.2819481,0.7048683,0.3237038,1.0714836 c0.1536484,1.3489876-0.3539391,2.1774216-1.6825066,2.4665298c-0.9919205,0.2158585-2.0316353,0.2262764-3.0524483,0.2901573 c-0.7056389,0.0441551-1.4165344,0.0012436-2.1227894,0.0395432c-0.4746609,0.0257378-0.7808132,0.337719-0.8642387,0.7905426 c-0.1465397,0.7953529-0.2835751,1.5962448-0.3532143,2.4009933c-0.0824051,0.9522705-0.1155529,1.9110336-0.1176739,2.8670959 c-0.0010586,0.4779053-0.1915054,0.573864-0.6217937,0.5616188c-3.0232849-0.0860443-5.9042549-0.7870941-8.6518135-2.0237236 c-2.7067242-1.2182541-5.0328197-2.9763145-7.0302267-5.1655731c-0.1519547-0.1665459-0.2623434-0.4779282-0.2251873-0.6931725 c0.2816248-1.6314926-0.0283794-3.160038-0.836957-4.5672455c-0.9374199-1.6314411-1.8573942-3.2887726-2.9662571-4.8019505 c-1.5245342-2.0804081-2.4472466-4.3736191-3.0397954-6.8523502C5.889976,16.14715,7.7982144,9.7674751,11.2554388,6.8005595 c2.0080891-1.7232985,4.3242722-2.7485833,6.9022493-3.1594925c3.7033768-0.5902894,7.3706493-0.2988851,10.9606571,0.7646208 c1.5603218,0.4622316,3.00984,1.2032733,4.3521786,2.1381173c1.391861,0.9693327,2.3940468,2.1902275,2.7731934,3.9016075 c0.3500557,1.5800562,0.8032227,3.137414,1.2178001,4.702961c0.2364349,0.8928404,0.5097237,1.7765856,0.7218094,2.6749601 c0.1282234,0.5431385,0.0824432,1.087471-0.2032623,1.6018887c-0.0584679,0.1052761,0.009449,0.3264065,0.0859222,0.4541073 c0.9829941,1.6415272,1.971508,3.2798557,2.9741478,4.9094391c0.308445,0.5013103,0.3949051,1.0115376,0.2454224,1.5783081 c-0.134346,0.509407-0.3490906,0.6674442-0.8819885,0.7119751c-0.4145126,0.0346432-0.8303299,0.1131744-1.2321434,0.2218571 c-0.3340988,0.0903645-0.4618874,0.3219681-0.2815018,0.6688957c0.0929222,0.1787186,0.1596909,0.3725052,0.2244873,0.5641499 C39.4395905,29.495779,39.321228,29.8578796,38.4771767,30.4244289z"/>
    <path class="a" d="M32.4975815,11.7572851c1.0107956,2.2020874,2.8518829,7.6170568-1.6966915,7.3824091 c-1.1076832-0.0571442-4.7832222,0.0541496-6.1369648,0.7400455c-2.9851646,1.5124836-5.5072269,3.4729156-9.3317966,3.7543774 c-4.1695261,0.3068485-4.9998207-4.4496841-4.9998207-6.2091637c0-6.4618635,4.6587868-10.2504921,9.3317966-10.3971958 C28.2739048,6.7574639,30.9889069,8.4705296,32.4975815,11.7572851z"/>
    <path class="a" d="M24.7597713,7.152215c0.3308544,0.7550273,0.5259743,1.7560749,0.5853577,2.9183073 c0.0424175,0.9586306-0.0084839,2.027545-0.1611862,3.1558447c-0.093317,0.6617088-0.2205696,1.3403845-0.3817539,2.027545 c-0.1611862,0.6871595-0.3563061,1.3488674-0.5683918,1.9766445c-0.3647881,1.0773983-0.7974453,2.0529938-1.2725182,2.8928566 c-0.2120857,0.3732719-0.4326553,0.7210922-0.6532249,1.0349808c0,0.0084839-0.0084839,0.0084839-0.0084839,0.0084839"/>
    <path class="a" d="M18.7025871,22.9059849c-0.9077301-0.5768738-1.4506702-2.1123791-1.5439892-4.1568909 c-0.0509014-0.9586296,0-2.0275459,0.1611862-3.1643276c0.093317-0.6532259,0.2205696-1.3319025,0.3817539-2.019062 c0.1611862-0.6871595,0.3563061-1.3488684,0.5683918-1.9766436c0.3647881-1.0773983,0.7974453-2.0529957,1.2725182-2.8928576 V8.6877203c0.3732719-0.6532259,0.7635098-1.2131338,1.1707153-1.6797237"/>
    <path class="a" d="M14.392993,8.8658724c-0.3393383,0.9840803,0.0678673,2.5026178,1.0604315,4.1653748 c0.4835567,0.831378,1.1113319,1.6966906,1.8663597,2.5535192c0.4326553,0.4920406,0.9077282,0.9925632,1.4252186,1.47612 s1.0349827,0.9331799,1.560955,1.3403854c0.8992462,0.7041264,1.7984924,1.281002,2.6553211,1.7221413 c0.2205696,0.1187687,0.4411392,0.2205696,0.6532249,0.3138866"/>
    <path class="a" d="M16.4459877,7.7206063c0.8737965,0.0339341,1.9427109,0.3732724,3.0964603,0.967114v0.0084829 c0.8483448,0.4326563,1.7560749,1.009531,2.6553211,1.7136574c0.5259724,0.4072056,1.0434628,0.8568287,1.560955,1.3403854 c0.5174904,0.4835567,0.9925632,0.9840803,1.4252186,1.4761209c0.7550278,0.8653116,1.382803,1.7306232,1.8748436,2.5620022 c0.7550278,1.289485,1.1707153,2.4771681,1.1707153,3.4103479"/>
    <ellipse class="a" cx="21.2504978" cy="14.4092302" rx="8.9532423" ry="3.6512721" transform="matrix(0.9580424 -0.2866266 0.2866266 0.9580424 -3.2384481 6.6955352)"/>
    <circle class="a" cx="21.2504978" cy="14.4092302" r="0.4999384"/>
</svg>
