<svg xmlns="http://www.w3.org/2000/svg" viewBox="0 0 48 48"><defs><style>.a{fill:none;stroke:#000;stroke-linecap:round;stroke-linejoin:round;}</style></defs><path class="a" d="M39.24,27.87H29.37L24,19.1l-5.4,8.76H8.76M27.39,39.54"/><path class="a" d="M32.58,5,24,19.1,15.38,5"/><path class="a" d="M24,43.5l.14,0,.08,0a19.79,19.79,0,0,0,5.53-3.12,30.64,30.64,0,0,0,9.49-12.53h0C42.28,20.64,42,8.05,42,7.93V7.52l-.23-.13-.13-.07C41.4,7.2,36.48,4.5,24,4.5h0C11.52,4.5,6.6,7.2,6.4,7.32l-.13.07L6,7.52v.41c0,.12-.31,12.71,2.73,19.85a30.56,30.56,0,0,0,9.49,12.53,19.79,19.79,0,0,0,5.53,3.12l.08,0,.14,0Z"/><line class="a" x1="11.78" y1="13.19" x2="11.78" y2="21.21"/><line class="a" x1="12.81" y1="17.2" x2="15.77" y2="13.22"/><line class="a" x1="12.81" y1="17.2" x2="15.77" y2="21.22"/><line class="a" x1="12.81" y1="17.2" x2="11.78" y2="17.2"/><polyline class="a" points="32.78 13.2 32.78 21.19 36.77 21.19"/><line class="a" x1="21.32" y1="29.19" x2="21.32" y2="37.18"/><line class="a" x1="26.69" y1="29.19" x2="26.69" y2="37.18"/><line class="a" x1="21.32" y1="33.17" x2="26.69" y2="33.17"/></svg>