<svg id="Layer_1" data-name="Layer 1" xmlns="http://www.w3.org/2000/svg" viewBox="0 0 48 48"><defs><style>.cls-1,.cls-3,.cls-4{fill:none;}.cls-1,.cls-3,.cls-4,.cls-5{stroke:#fff;stroke-linecap:round;stroke-linejoin:round;}.cls-2,.cls-5{fill:#fff;}</style></defs><path class="cls-1" d="M17.51493,17.29769a2.07563,2.07563,0,0,1,2.02986.96425,5.108,5.108,0,0,1,.913,1.91366c.4739,1.8797-.07532,3.63882-1.2267,3.92909s-2.46894-.99821-2.94283-2.87791S16.36354,17.588,17.51493,17.29769Z"/><path class="cls-2" d="M28.22,15.63a.50559.50559,0,1,1-.15-1l.49-.14a.5.5,0,0,1,.62.34h0a.52.52,0,0,1-.35.62l-.47.13A.35984.35984,0,0,1,28.22,15.63Z"/><path class="cls-2" d="M33.61,21.41a.46.46,0,0,1-.23-.06.49.49,0,0,1-.21605-.65842L33.17,20.68a10.281,10.281,0,0,1,.53-.91.502.502,0,0,1,.84.55c-.17.26-.34.54-.49.82A.49.49,0,0,1,33.61,21.41Zm1.74-2.25-.84-.56c.21-.29.38-.56.53-.8a.5.5,0,1,1,.86.51C35.74,18.58,35.55,18.86,35.35,19.16Zm.74-1.86h-.17a.51.51,0,0,1-.3-.64,2.65043,2.65043,0,0,0,.19-.82.52.52,0,0,1,.52-.49.5.5,0,0,1,.48.5192l0,.0008A3.67994,3.67994,0,0,1,36.56,17,.5.5,0,0,1,36.09,17.3Zm-6-2.15a.51.51,0,0,1-.49-.39.5.5,0,0,1,.37571-.599L29.98,14.16c.33-.07.66-.15,1-.21a.5.5,0,0,1,.58.4.48.48,0,0,1-.36167.57445L31.17,14.93q-.49.09-1,.21Zm5.69,0a.52.52,0,0,1-.29-.09,1.91,1.91,0,0,0-.73-.29.49.49,0,0,1-.39408-.57l.00408-.02a.5.5,0,0,1,.58981-.39l.00019,0A2.88,2.88,0,0,1,36,14.2a.5.5,0,0,1-.29.91Zm-3.32-.39a.5009.5009,0,0,1-.06-1c.36,0,.71-.07,1-.08h0a.5.5,0,0,1,.0205.99969L33.41,14.68a5.10353,5.10353,0,0,0-1,.07Z"/><path class="cls-2" d="M33.16,23.25a.51.51,0,0,1-.49-.39,2.43988,2.43988,0,0,1,0-.67.503.503,0,0,1,1,.11h0a.99989.99989,0,0,0,0,.34.5.5,0,0,1-.38.59Z"/><polygon class="cls-3" points="13.748 28.044 38.589 21.262 40.849 29.54 42.181 34.421 17.341 41.202 13.748 28.044"/><path class="cls-4" d="M14.62,9.58,6.76,18.91a7.45,7.45,0,0,0,4,12.06l3.79.87"/><path class="cls-4" d="M28.31,23.81a17.08,17.08,0,0,0-.5-5.08c-1.5-5.92-5.65-10-9.28-9.07S13.16,16.12,14.66,22a16.51007,16.51007,0,0,0,2.08,5"/><path class="cls-4" d="M30,23.36a21.8099,21.8099,0,0,0-.65-5C27.47,11.09,22.37,6.11,17.92,7.23s-6.58,7.93-4.75,15.19a21.1601,21.1601,0,0,0,1.94,5"/><circle class="cls-4" cx="35.63" cy="26.75" r="2.79"/><path class="cls-4" d="M23,35.18l-2.3-6.69"/><path class="cls-2" d="M19.75241,35.20594a3.928,3.928,0,0,1,.88783-.67,2.10114,2.10114,0,0,1,2.49921.05482c.76543.76542.49,2.28186-.61518,3.387s-2.62161,1.38061-3.387.61518S18.64723,36.31112,19.75241,35.20594Z"/><path class="cls-5" d="M21.14,29.93c1.25-.41,3.08.1,4.78,2.35-2.55-3.25-3.19-4.52-5.27-3.79"/><path class="cls-2" d="M34.13,25.52a.46.46,0,0,1-.33-.13,3.58944,3.58944,0,0,1-.39-.39.5.5,0,0,1-.0029-.7071L33.41,24.29a.51.51,0,0,1,.71,0,3.16909,3.16909,0,0,0,.31.32.5.5,0,0,1,.0029.7071L34.43,25.32A.47.47,0,0,1,34.13,25.52Z"/><path class="cls-2" d="M35.56,26.19h-.38a.50894.50894,0,1,1,.19-1,.8.8,0,0,0,.59-.08.50092.50092,0,0,1,.46.89h0A1.85006,1.85006,0,0,1,35.56,26.19Zm1.52-1.11a.53007.53007,0,0,1-.24-.06.5.5,0,0,1-.21-.67,3.50014,3.50014,0,0,0,.28-.77.5.5,0,0,1,.6-.37.49.49,0,0,1,.37393.58342L37.88,23.81a4.00062,4.00062,0,0,1-.36,1A.5.5,0,0,1,37.08,25.08Zm.44-2.2a.5.5,0,0,1-.5-.47,4.35956,4.35956,0,0,0-.13-.83.51662.51662,0,1,1,1-.26,4.9999,4.9999,0,0,1,.16,1,.5.5,0,0,1-.4792.52l-.0008,0Z"/><path class="cls-2" d="M36.83,20.75a.48.48,0,0,1-.41-.21,2.68972,2.68972,0,0,0-.27-.32.51.51,0,0,1,0-.71.5.5,0,0,1,.7071-.0029l.0029.0029a2.61007,2.61007,0,0,1,.37.44.5.5,0,0,1-.11641.69746L37.11,20.65A.47.47,0,0,1,36.83,20.75Z"/><line class="cls-4" x1="28.43" y1="35.04" x2="36.88" y2="32.73"/></svg>
