<?xml version="1.0" encoding="UTF-8"?>
<svg version="1.1" viewBox="0 0 48 48" xml:space="preserve" xmlns="http://www.w3.org/2000/svg"><defs><style>.a{fill:none;stroke:#fff;stroke-linecap:round;stroke-linejoin:round;}</style></defs><g fill="none" stroke="#fff" stroke-linecap="round" stroke-linejoin="round" stroke-width="1px"><path d="m15.299 26.035c0.58567 1.7505 1.3709 3.4341 2.3355 5.0078-1.6232 0.0041-3.2465-0.0098-4.8694-0.04162-0.30226-0.0059-0.60617-0.01264-0.90322-0.06887s-0.58959-0.16483-0.82442-0.35523c-0.17819-0.14448-0.31793-0.33162-0.43224-0.53052-0.18382-0.31981-0.30598-0.67491-0.35782-1.0401l-2.8683-20.282h2.4397l0.56003 3.9036c0.88035-0.32092 1.8373-0.42957 2.7671-0.3142 1.3766 0.17078 2.6416 0.81283 3.9141 1.3649 1.0206 0.44276 2.0878 0.83792 3.1996 0.87528 0.86568 0.02909 1.7379-0.16492 2.5097-0.5582l0.789-5.3065h2.5463l-1.7115 11.891-10.239 0.09141c0.17842 1.8231 0.56308 3.6259 1.1443 5.3631z"/><path d="m17.013 22.796c0.23718 1.3363 2.4067 8.6072 4.5289 8.6072 8.8043 0 2.5532-0.04914 15.08-0.04914 2.5642 0 4.3778-7.5465 4.6104-8.5627-8.3067-0.02291-13.172-7.84e-4 -21.479 0.0046z"/><path d="m31.39 8.9301c-0.5726 0.19975-1.0784 0.58623-1.4215 1.0862-0.34315 0.50002-0.52188 1.1109-0.50233 1.7171 0.02962 0.91869 0.49274 1.7615 0.96611 2.5494s0.98037 1.5917 1.1144 2.501c0.10424 0.70693-0.03243 1.4472-0.38223 2.0703s-0.91059 1.1252-1.5684 1.4044"/></g><g stroke="#fff"><g stroke-width="1.8496"><g transform="matrix(.54066 0 0 .54066 -98.153 15.495)">
		<path class="st5" d="m203.4 48.7v-8h2.6c1.5 0 2.7 1.2 2.7 2.7s-1.2 2.7-2.7 2.7h-2.6" fill="none" stroke="#fff" stroke-linecap="round" stroke-linejoin="round" stroke-miterlimit="10" stroke-width="1.8496"/>
	</g><g transform="matrix(.54066 0 0 .54066 -80.65 15.495)">
		<path class="st5" d="m203.4 48.7v-8h2.6c1.5 0 2.7 1.2 2.7 2.7s-1.2 2.7-2.7 2.7h-2.6" fill="none" stroke="#fff" stroke-linecap="round" stroke-linejoin="round" stroke-miterlimit="10" stroke-width="1.8496"/>
	</g><g transform="matrix(.54066 0 0 .54066 -50.319 15.495)" fill="none" stroke-linecap="round" stroke-linejoin="round" stroke-miterlimit="10">
		<line class="st5" x1="123.3" x2="123.3" y1="40.7" y2="48.7"/>
		<line class="st5" x1="128.6" x2="128.6" y1="40.7" y2="48.7"/>
		<line class="st5" x1="123.3" x2="128.6" y1="44.6" y2="44.6"/>
	</g><g transform="matrix(.54066 0 0 .54066 -52.319 15.495)">
		<line class="st5" x1="136" x2="136" y1="40.7" y2="48.7" fill="none" stroke="#fff" stroke-linecap="round" stroke-linejoin="round" stroke-miterlimit="10" stroke-width="1.8496"/>
	</g><g transform="matrix(.54066 0 0 .54066 -46.148 15.495)">
		<line class="st5" x1="136" x2="136" y1="40.7" y2="48.7" fill="none" stroke="#fff" stroke-linecap="round" stroke-linejoin="round" stroke-miterlimit="10" stroke-width="1.8496"/>
	</g><g transform="matrix(.54066 0 0 .54066 -65.295 15.495)">
		<polyline class="st5" points="164 40.7 164 48.7 168 48.7" fill="none" stroke="#fff" stroke-linecap="round" stroke-linejoin="round" stroke-miterlimit="10" stroke-width="1.8496"/>
	</g><g transform="matrix(.54066 0 0 .54066 -92.544 15.495)">
		<path class="st5" d="m233.5 47.8c0.5 0.6 1.1 0.9 2 0.9h1.2c1.1 0 2-0.9 2-2v0c0-1.1-0.9-2-2-2h-1.3c-1.1 0-2-0.9-2-2v0c0-1.1 0.9-2 2-2h1.2c0.9 0 1.5 0.2 2 0.9" fill="none" stroke="#fff" stroke-linecap="round" stroke-linejoin="round" stroke-miterlimit="10" stroke-width="1.8496"/>
	</g></g><path d="m34.946 8.9301c-0.5726 0.19975-1.0784 0.58623-1.4215 1.0862-0.34315 0.50002-0.52188 1.1109-0.50233 1.7171 0.02962 0.91869 0.49274 1.7615 0.96611 2.5494s0.98037 1.5917 1.1144 2.501c0.10424 0.70693-0.03243 1.4472-0.38223 2.0703s-0.91059 1.1252-1.5684 1.4044" fill="none" stroke-linecap="round" stroke-linejoin="round" stroke-width="1px"/><path d="m38.502 8.9301c-0.5726 0.19975-1.0784 0.58623-1.4215 1.0862-0.34315 0.50002-0.52188 1.1109-0.50233 1.7171 0.02962 0.91869 0.49274 1.7615 0.96611 2.5494s0.98037 1.5917 1.1144 2.501c0.10424 0.70693-0.03243 1.4472-0.38223 2.0703s-0.91059 1.1252-1.5684 1.4044" fill="none" stroke-linecap="round" stroke-linejoin="round" stroke-width="1px"/></g></svg>
