<?xml version="1.0" encoding="UTF-8" standalone="no"?>
<!-- Created with Inkscape (http://www.inkscape.org/) -->

<svg
   width="48"
   height="48"
   viewBox="0 0 48 48"
   version="1.1"
   id="svg5"
   inkscape:version="1.1.1 (3bf5ae0d25, 2021-09-20)"
   sodipodi:docname="klock.svg"
   xmlns:inkscape="http://www.inkscape.org/namespaces/inkscape"
   xmlns:sodipodi="http://sodipodi.sourceforge.net/DTD/sodipodi-0.dtd"
   xmlns="http://www.w3.org/2000/svg"
   xmlns:svg="http://www.w3.org/2000/svg">
  <sodipodi:namedview
     id="namedview7"
     pagecolor="#505050"
     bordercolor="#eeeeee"
     borderopacity="1"
     inkscape:pageshadow="0"
     inkscape:pageopacity="0"
     inkscape:pagecheckerboard="0"
     inkscape:document-units="px"
     showgrid="false"
     units="px"
     inkscape:object-paths="true"
     inkscape:object-nodes="true"
     inkscape:snap-intersection-paths="true"
     inkscape:zoom="11.313709"
     inkscape:cx="19.136077"
     inkscape:cy="28.770407"
     inkscape:window-width="1914"
     inkscape:window-height="1055"
     inkscape:window-x="0"
     inkscape:window-y="19"
     inkscape:window-maximized="1"
     inkscape:current-layer="layer1" />
  <defs
     id="defs2">
    <style
       id="style3770">.a{fill:none;stroke:#fff;stroke-linecap:round;stroke-linejoin:round;}</style>
    <style
       id="style3968">.a,.c,.d{fill:none;stroke:#fff;}.a{stroke-linecap:round;}.a,.c{stroke-linejoin:round;}.b{fill:#fff;}</style>
    <style
       id="style4129">.cls-1{fill:none;stroke:#fff;stroke-linecap:round;stroke-linejoin:round;}.cls-2{fill:#fff;}</style>
    <style
       id="style4414">.a,.b{fill:none;stroke:#fff;}.a{stroke-linecap:square;stroke-miterlimit:15.1181;}.b{stroke-linecap:round;stroke-linejoin:round;}</style>
  </defs>
  <g
     inkscape:label="Layer 1"
     inkscape:groupmode="layer"
     id="layer1">
    <g
       id="g12169">
      <path
         id="rect5151"
         style="fill:none;stroke:#ffffff;stroke-width:1;stroke-linecap:round;stroke-linejoin:round;paint-order:markers fill stroke;stop-color:#000000"
         d="m 21.863515,33.475341 c -2.220477,-1.96867 -1.931081,-5.598706 -1.931081,-5.598706 0.978876,0 1.771923,-0.794985 1.771923,-1.773828 0,-0.978842 -0.793047,-1.771862 -1.771923,-1.771862 1.085308,-0.898329 1.775856,-2.254922 1.775856,-3.773811 0,-2.692219 -2.172004,-4.876338 -4.859513,-4.89671 v -0.002 c -0.0066,0 -0.01306,-2.7e-5 -0.01966,0 -0.0059,-2.2e-5 -0.01172,0 -0.0177,0 v 0.002 c -0.774288,0.0058 -1.505779,0.191293 -2.154863,0.516752 m -1.52908,1.196706 c -0.732916,0.855965 -1.17557,1.96783 -1.17557,3.183252 0,1.518889 0.690548,2.875482 1.775856,3.773811 -0.978876,0 -1.771923,0.79302 -1.771923,1.771862 0,0.978843 0.793047,1.773828 1.771923,1.773828 0,0 0.406814,5.127536 -3.475014,6.49945 v 2.650909 H 9.7689522 c -0.7301958,0 -1.317634,0.587418 -1.317634,1.317589 v 2.837732 c 0,0.730171 0.5874381,1.317589 1.317634,1.317589 H 16.829111 L 21.942708,42.5"
         sodipodi:nodetypes="ccscscccccccscscccsssscc" />
      <path
         id="path8510"
         style="fill:none;stroke:#ffffff;stroke-width:1;stroke-linecap:round;stroke-linejoin:round;paint-order:markers fill stroke;stop-color:#000000"
         d="m 25.989878,16.135451 c -1.15602,0 -2.092581,0.935615 -2.092581,2.090463 0,1.154849 0.936561,2.092781 2.092581,2.092781 0,0 0.480432,10.978191 -4.103873,12.596791 v 3.127516 h -0.571338 c -0.862335,0 -1.556081,0.693041 -1.556081,1.554505 v 3.347988 c 0,0.861463 0.693746,1.554505 1.556081,1.554505 h 8.337806 8.340129 c 0.862336,0 1.55608,-0.693042 1.55608,-1.554505 v -3.347988 c 0,-0.861464 -0.693744,-1.554505 -1.55608,-1.554505 h -0.57366 V 32.91543 C 36.943817,32.747676 36.52312,32.479385 36.150674,32.133199 m -1.37284,-2.010857 c -1.725271,-3.781345 -1.460444,-9.803703 -1.460444,-9.803703 1.15602,0 2.092582,-0.937932 2.092582,-2.092781 0,-1.154849 -0.936562,-2.090462 -2.092582,-2.090462"
         sodipodi:nodetypes="cscccsssscsssscccccsc" />
      <path
         style="fill:none;stroke:#ffffff;stroke-width:1px;stroke-linecap:round;stroke-linejoin:round;stroke-opacity:1"
         d="m 25.989878,16.135451 c 0,0 -3.451728,0.653527 -3.654093,-2.300828 -0.202364,-2.954355 -0.619121,-8.3345675 -0.619121,-8.3345675"
         id="path9281"
         sodipodi:nodetypes="csc" />
      <path
         style="fill:none;stroke:#ffffff;stroke-width:1px;stroke-linecap:round;stroke-linejoin:round;stroke-opacity:1"
         d="m 33.31739,16.135396 c 0,0 3.451727,0.653526 3.654093,-2.300829 0.202364,-2.954355 0.61912,-8.3345667 0.61912,-8.3345667"
         id="path9363"
         sodipodi:nodetypes="csc" />
      <path
         style="fill:none;stroke:#ffffff;stroke-width:1px;stroke-linecap:round;stroke-linejoin:round;stroke-opacity:1"
         d="m 21.716664,5.5000555 h 2.803862 l 1.148993,4.2879543 h 1.431366 l 1.13827,-4.2479342 h 1.235448"
         id="path10703"
         sodipodi:nodetypes="cccccc" />
      <path
         style="fill:none;stroke:#ffffff;stroke-width:1px;stroke-linecap:round;stroke-linejoin:round;stroke-opacity:1"
         d="M 37.590599,5.5000555 H 34.786738 L 33.637745,9.7880098 H 32.206378 L 31.068109,5.5400756 h -1.593506"
         id="path10851"
         sodipodi:nodetypes="cccccc" />
    </g>
  </g>
</svg>
