<svg width="48" height="48" xmlns="http://www.w3.org/2000/svg"><defs><style>.st0{fill:none;stroke:#fff;stroke-linecap:round;stroke-linejoin:round;stroke-miterlimit:10}</style></defs><path d="M40.5 5.5h-33a2 2 0 0 0-2 2v33a2 2 0 0 0 2 2h33a2 2 0 0 0 2-2v-33a2 2 0 0 0-2-2z" style="fill:none;stroke:#fff;stroke-linecap:round;stroke-linejoin:round"/><path class="st0" d="M9.1 20v8m4.3 0-3.3-4 3.3-4m-3.3 4h-1"/><path class="st0" d="M16.6 25.4c0 1.5 1.2 2.7 2.6 2.7 1.5 0 2.7-1.2 2.7-2.7v-2.7c0-1.5-1.2-2.7-2.7-2.7s-2.6 1.2-2.6 2.7zm17 0c0 1.5 1.2 2.7 2.6 2.7 1.5 0 2.7-1.2 2.7-2.7v-2.7c0-1.5-1.2-2.7-2.7-2.7s-2.6 1.2-2.6 2.7z" fill="none" stroke="#fff" stroke-linecap="round" stroke-linejoin="round" stroke-miterlimit="10"/><path class="st0" d="M25.1 20v8m5.3-8v8m-5.3-4h5.3"/><path d="M19.25 5.636V42.39" fill="none" stroke="#fff" stroke-linecap="round" stroke-linejoin="round"/></svg>