<svg width="48" height="48" version="1.1" viewBox="0 0 48 48" xmlns="http://www.w3.org/2000/svg">
 <g fill="none" stroke="#fff" stroke-linecap="round" stroke-linejoin="round">
  <g stroke-width="1px">
   <path d="m17.181 10.097c-0.3294-0.33609 0.26314-5.2635 2.2028-5.2395 1.9397 0.024003 2.4297 3.8221 2.8978 3.307 0.46808-0.51507 1.1415-0.63206 1.7183-0.63206s1.2502 0.117 1.7183 0.63206c0.46808 0.51507 0.95814-3.283 2.8978-3.307 1.9397-0.024003 2.5322 4.9034 2.2028 5.2395"/>
   <path d="m17.181 10.097s-14.373 18.436-1.6278 30.452c0 0 1.6668 1.3998 7.2483 1.3998 0 0 0.29184-1.2026 1.1984-1.2026s1.1984 1.2026 1.1984 1.2026c5.5815 0 7.2483-1.3998 7.2483-1.3998 12.746-12.016-1.6278-30.452-1.6278-30.452"/>
   <path d="m17.051 25.872 1.7411-0.89418 1.6228 0.99224"/>
   <path d="m22.482 23.39 1.5185-0.8767"/>
   <g transform="matrix(-1,0,0,1,48,0)">
    <path d="m14.983 27.828c0.45438-9.7128 8.2368-9.9546 9.0166-9.9546s8.5622 0.24176 9.0166 9.9546c0.45438 9.7128-7.9209 10.054-9.0166 10.076-1.0957 0.0221-9.4709-0.36302-9.0166-10.076z"/>
    <path d="m17.051 25.872 1.834-0.92207 1.53 1.0201"/>
    <path d="m22.482 23.39 1.5185-0.8767"/>
    <path d="m22.676 14.364c-0.41086-1.0942 0.77535-0.97718 1.3238-0.97718s1.7347-0.11697 1.3238 0.97718-1.0971 1.3952-1.3238 1.3952-0.91297-0.301-1.3238-1.3952z"/>
   </g>
  </g>
  <g transform="translate(-.1086)">
   <path d="m20.48 12.263a0.31949 0.31949 0 0 1-0.32316 0.3139 0.31949 0.31949 0 0 1-0.31577-0.32133 0.31949 0.31949 0 0 1 0.31949-0.31764v0.3195z" stop-color="#000000" style="paint-order:markers fill stroke"/>
   <path d="m28.376 12.263a0.31949 0.31949 0 0 1-0.32316 0.3139 0.31949 0.31949 0 0 1-0.31577-0.32133 0.31949 0.31949 0 0 1 0.31949-0.31764v0.3195z" stop-color="#000000" style="paint-order:markers fill stroke"/>
  </g>
 </g>
</svg>
