<?xml version="1.0" encoding="UTF-8"?>
<svg id="b" version="1.1" viewBox="0 0 48 48" xml:space="preserve" xmlns="http://www.w3.org/2000/svg" xmlns:xlink="http://www.w3.org/1999/xlink"><defs><style>.c{stroke-width:1px;}.c,.d{fill:none;stroke:#fff;stroke-linecap:round;stroke-linejoin:round;}.e{fill:#fff;stroke-width:0px;}</style><style>.a{fill:none;stroke:#fff;stroke-linecap:round;stroke-linejoin:round;}</style><style>.c{stroke-width:1px;}.c,.d{fill:none;stroke:#fff;stroke-linecap:round;stroke-linejoin:round;}.e{fill:#fff;stroke-width:0px;}</style></defs><g transform="matrix(.77239 0 0 .77239 5.4381 4.4382)" fill="none" stroke="#fff" stroke-linecap="round" stroke-linejoin="round" stroke-width="1.2947"><path d="m9.8716 20.29-4.5783 3.8557 4.1675 3.8557m-5.575-7.7114v7.7114" stroke="#fff" stroke-linecap="round" stroke-linejoin="round" stroke-width="1.2947"/></g><use xlink:href="#path22"/><use transform="rotate(90 16.866 22.975)" xlink:href="#path22"/><use transform="rotate(180 16.866 22.975)" xlink:href="#path22"/><use transform="rotate(-90 16.866 22.975)" xlink:href="#path22"/><path d="m23.425 20.11v5.9562m2.9521-5.9562h-5.9034" fill="none" stroke="#fff" stroke-linecap="round" stroke-linejoin="round"/><use transform="translate(12.754)" xlink:href="#path22"/><use transform="rotate(90 23.242 29.352)" xlink:href="#path22"/><use transform="rotate(180 23.242 22.975)" xlink:href="#path22"/><use transform="rotate(-90 23.242 16.598)" xlink:href="#path22"/><g fill="none" stroke="#fff" stroke-linecap="round" stroke-linejoin="round"><path d="m34.474 26.066v-4.7976a1.1586 1.1586 0 0 1 1.1586-1.1586h2.7196a1.1586 1.1586 0 0 1 1.1586 1.1586v4.7976"/><path class="d" d="m40.5 5.5h-33c-1.1046 0-2 0.8954-2 2v33c0 1.1046 0.8954 2 2 2h33c1.1046 0 2-0.8954 2-2v-33c0-1.1046-0.8954-2-2-2z"/><circle id="path22" transform="matrix(.77239 0 0 .77239 5.4381 4.4382)" cx="12.025" cy="23.999" r="1.2302" fill="none" stroke="#fff" stroke-linecap="round" stroke-linejoin="round" stroke-width="1.2947"/></g></svg>
