<svg xmlns="http://www.w3.org/2000/svg" xml:space="preserve" width="48" height="48"><path d="m22.362 23.42-3.148-3.936m-.984 1.18 4.132-5.116m-4.132 0v7.871m17.72-2.703v0a2.645 2.645 0 0 1-2.657 2.657v0c-1.476 0-2.657-1.18-2.657-2.558v-2.657c0-1.476 1.18-2.656 2.657-2.558v0a2.54 2.54 0 0 1 2.558 2.558v0m-8.982 5.261v-7.87m-2.558 0h5.116m-.443 12.359-11.997 9.787c-.908.74-2.149-.035-2.822-.994L4.797 23.346c-.673-.96-.093-2.383.994-2.822v0s1.101-.436 1.7-.568m22.475 7.425L16.32 34.725c-1.033.555-2.104-.44-2.583-1.51L7.069 18.326c-.48-1.07.36-2.358 1.51-2.582v0l.178-.034m18.22 12.395-9.976 4.204c-1.08.456-2.052-.638-2.428-1.748L9.345 15.11c-.376-1.11.582-2.313 1.748-2.428v0s1.245-.023 1.702-.065m2.247-2.593s10.655.757 16.834 1.066c1.873.094 3.898.8 4.936 2.178l5.88 7.81c1.435 1.905.882 3.009-1.085 3.485l-23.886 5.783c-1.14.276-1.924-.96-2.116-2.115l-2.68-16.091c-.192-1.157.947-2.19 2.117-2.116z" class="st5" style="fill:none;stroke:#fff;stroke-width:1;stroke-linecap:round;stroke-linejoin:round;stroke-miterlimit:10;stroke-dasharray:none"/></svg>