<?xml version="1.0" encoding="utf-8"?>
<!-- Generator: Adobe Illustrator 27.2.0, SVG Export Plug-In . SVG Version: 6.00 Build 0)  -->
<svg version="1.1" id="Layer_2" xmlns="http://www.w3.org/2000/svg" xmlns:xlink="http://www.w3.org/1999/xlink" x="0px" y="0px"
	 viewBox="0 0 48 48" style="enable-background:new 0 0 48 48;" xml:space="preserve">
<style type="text/css">
	.st0{fill:none;stroke:#FFFFFF;stroke-linecap:round;stroke-linejoin:round;stroke-miterlimit:10;}
</style>
<path class="st0" d="M7.5,5.5c-1.1,0-2,0.9-2,2c0,0,0,0,0,0v33c0,1.1,0.9,2,2,2c0,0,0,0,0,0h33c1.1,0,2-0.9,2-2c0,0,0,0,0,0v-33
	c0-1.1-0.9-2-2-2c0,0,0,0,0,0H7.5z"/>
<g>
	<g>
		<line class="st0" x1="36" y1="20" x2="36" y2="28"/>
	</g>
	<g>
		<path class="st0" d="M32,20v6c0,1.1-0.9,2-2,2l0,0c-1.1,0-2-0.9-2-2v-0.7"/>
	</g>
	<path class="st0" d="M20,20v5.3c0,1.5,1.2,2.7,2.6,2.7c1.4,0,2.6-1.2,2.6-2.7V20"/>
	<g>
		<g>
			<line class="st0" x1="12" y1="20" x2="12" y2="28"/>
			<line class="st0" x1="12" y1="25.2" x2="16.2" y2="20"/>
		</g>
		<line class="st0" x1="16.2" y1="28" x2="13" y2="24"/>
	</g>
</g>
<line class="st0" x1="5.5" y1="11.9" x2="42.5" y2="11.9"/>
<line class="st0" x1="5.5" y1="36.1" x2="42.5" y2="36.1"/>
</svg>
