<svg version="1.1" viewBox="0 0 48 48" xmlns="http://www.w3.org/2000/svg">
 <g fill="none" stroke="#fff" stroke-linecap="round" stroke-linejoin="round">
  <path class="a" d="m14 22.5h4c0.554 0 1 0.446 1 1v4c0 0.554-0.446 1-1 1h-4c-0.554 0-1-0.446-1-1v-4c0-0.554 0.446-1 1-1z"/>
  <path class="a" d="m30 22.5h4c0.554 0 1 0.446 1 1v4c0 0.554-0.446 1-1 1h-4c-0.554 0-1-0.446-1-1v-4c0-0.554 0.446-1 1-1z"/>
  <path class="a" d="m22 22.5h4c0.554 0 1 0.446 1 1v4c0 0.554-0.446 1-1 1h-4c-0.554 0-1-0.446-1-1v-4c0-0.554 0.446-1 1-1z"/>
  <path class="a" d="m12 20.5h24c0.554 0 1 0.446 1 1v8c0 0.554-0.446 1-1 1h-24c-0.554 0-1-0.446-1-1v-8c0-0.554 0.446-1 1-1z"/>
  <path class="a" d="m23.999 8c-0.60073 9.03e-5 -1.7305 0.66659-1.7305 0.66659l-12.125 7c-0.95956 0.554-1.3422 1.4258-0.85742 2.2654s1.6475 0.81942 2.607 0.26542l10.348-5.9727s1.1524-0.6871 1.7598-0.68818c0.60741-0.0011 1.7363 0.67451 1.7363 0.67451l10.369 5.9863c0.95956 0.554 2.1231 0.57419 2.6078-0.26542s0.10213-1.7114-0.85742-2.2654l-12.125-7s-1.1317-0.66668-1.7324-0.66659z"/>
  <path class="a" d="m12.5 40.935v-5.9348c0-1.108 0.892-2 2-2h19c1.108 0 2 0.892 2 2v5.9348"/>
  <path d="m44.47 24a20.47 20.47 0 0 1-20.47 20.47 20.47 20.47 0 0 1-20.47-20.47 20.47 20.47 0 0 1 20.47-20.47 20.47 20.47 0 0 1 20.47 20.47z" stroke-width="1.0593" style="paint-order:stroke fill markers"/>
 </g>
</svg>
