<svg xmlns="http://www.w3.org/2000/svg" viewBox="0 0 48 48"><defs><style>.a{fill:none;stroke:#fff;stroke-linecap:round;stroke-linejoin:round;}</style></defs><rect class="a" x="10.1732" y="4.5" width="8.2105" height="39" rx="1.6421"/><path class="a" d="M37.0057,4.5h-.821a6.5684,6.5684,0,0,0-6.5684,6.5684v4.3579a.8209.8209,0,0,1-.2688.6075l-7.4263,6.7511a1.6423,1.6423,0,0,0,0,2.43l7.4263,6.7511a.8209.8209,0,0,1,.2688.6075v4.3579A6.5684,6.5684,0,0,0,36.1847,43.5h.821a.8211.8211,0,0,0,.8211-.8211V29.6065a1.6418,1.6418,0,0,0-.481-1.1611L33.481,24.5806a.8212.8212,0,0,1,0-1.1612l3.8648-3.8648a1.6418,1.6418,0,0,0,.481-1.1611V5.3211A.8211.8211,0,0,0,37.0057,4.5Z"/></svg>