<svg xmlns="http://www.w3.org/2000/svg" viewBox="0 0 48 48"><defs><style>.a{fill:none;stroke:#fff;stroke-linecap:round;stroke-linejoin:round;}</style></defs>
  <path
     class="a"
     d="M 8.0687652,20.886068 39.937058,13.285324 h -19.41401 c 0,0 -0.732582,3.388299 -12.4542828,7.600744 z" />
  <path
     class="a"
     d="m 30.714451,15.485091 a 39.829383,39.829383 0 0 1 -4.77698,5.400977 H 8.0687652" />
  <path
     class="a"
     d="M 20.523048,13.285324 C 19.607262,11.911645 16.859982,10.263277 13.838013,9.3475684 h 18.40666 a 1.9198704,1.9198704 0 0 1 0.629593,1.6025866 5.4051737,5.4051737 0 0 1 -0.759009,2.335247" />
  <polyline
     points="27.481176399999995,36.992931 27.481176399999995,41.179067 29.574244399999998,41.179067"
     class="a" />
  <line
     y2="41.194382"
     x2="33.065937"
     y1="41.194382"
     x1="30.972874"
     class="a" />
  <line
     y2="37.008247"
     x2="33.065937"
     y1="37.008247"
     x1="30.972874"
     class="a" />
  <line
     y2="39.101315"
     x2="32.333366"
     y1="39.101315"
     x1="30.972874"
     class="a" />
  <line
     y2="41.194382"
     x2="30.972874"
     y1="37.008247"
     x1="30.972874"
     class="a" />
  <line
     y2="33.581474"
     x2="20.420078"
     y1="34.941967"
     x1="21.780575"
     class="a" />
  <path
     d="m 19.007261,33.529147 c 0,0.7849 0.62792,1.41282 1.360493,1.41282 0.7849,0 1.41282,-0.62792 1.41282,-1.41282 v -1.41282 c 0,-0.7849 -0.62792,-1.41282 -1.41282,-1.41282 -0.7849,0 -1.360493,0.62792 -1.360493,1.41282 z"
     class="a" />
  <path
     d="M 7.02724,40.9572 V 36.771 h 1.36049 c 0.7849,0 1.41282,0.628 1.41282,1.4129 0,0.7849 -0.62792,1.4128 -1.41282,1.4128 H 7.02724"
     class="a" />
  <line
     y2="36.981216"
     x2="22.13073"
     y1="36.981216"
     x1="19.357424"
     class="a" />
  <line
     y2="36.981216"
     x2="20.770241"
     y1="41.167347"
     x1="20.770241"
     class="a" />
  <polyline
     points="14.8152975,34.941967000000005 14.8152975,30.755831 17.588612600000005,34.941967000000005 17.588612600000005,30.755831"
     class="a" />
  <polyline
     points="25.957170599999998,41.23707620000001 24.5966764,37.05094020000001 23.1838555,41.23707620000001"
     class="a" />
  <line
     y2="39.824203"
     x2="25.486208"
     y1="39.824203"
     x1="23.654776"
     class="a" />
  <path
     d="M 15.2999 40.5957 C 15.5615 40.9097 15.8755 41.0667 16.3464 41.0667 L 16.9744 41.0667 C 17.5499 41.0667 18.0209 40.5957 18.0209 40.0201 L 18.0209 40.0201 C 18.0209 39.4445 17.5499 38.9736 16.9744 38.9736 L 16.2941 38.9736 C 15.7185 38.9736 15.2476 38.5027 15.2476 37.9271 L 15.2476 37.9271 C 15.2476 37.3515 15.7185 36.8805 16.2941 36.8805 L 16.922 36.8805 C 17.393 36.8805 17.7069 36.9852 17.9686 37.3515"
     class="a" />
  <path
     d="m 11.035138,39.631811 c 0,0.784901 0.627914,1.412821 1.360493,1.412821 0.784903,0 1.412818,-0.62792 1.412818,-1.412821 v -1.41282 c 0,-0.7849 -0.627915,-1.412819 -1.412818,-1.412819 -0.784901,0 -1.360493,0.627919 -1.360493,1.412819 z"
     class="a" />
  <path
     d="m 23.070502,30.816075 v 2.773313 c 0,0.784901 0.627914,1.412821 1.360493,1.412821 0.732571,0 1.360486,-0.62792 1.360486,-1.412821 v -2.773313"
     class="a" />
  <path
     d="m 8.7652596,32.909141 c 0.5755932,0 1.0465329,0.470941 1.0465329,1.046533 0,0.575593 -0.4709397,1.046535 -1.0465329,1.046535 H 7.0384798 v -4.186134 h 1.7267798 c 0.5755932,0 1.0465329,0.47094 1.0465329,1.046534 0,0.575593 -0.4709397,1.046532 -1.0465329,1.046532 z"
     class="a" />
  <line
     y2="32.909142"
     x2="7.0384831"
     y1="32.909142"
     x1="8.7652636"
     class="a" />
  <path
     class="a"
     d="m 6.9700144,25.08426 v 4.186133 h 2.0930665" />
  <path
     class="a"
     d="m 12.976101,29.270393 -1.360493,-4.186133 -1.41282,4.186133" />
  <path
     class="a"
     d="m 10.673729,27.857574 h 1.831433" />
  <polyline
     points="13.581134599999999,34.976167000000004 12.2206404,30.790031000000003 10.8078195,34.976167000000004"
     class="a" />
  <line
     y2="33.56329"
     x2="13.110164"
     y1="33.56329"
     x1="11.27873"
     class="a" />
  <line
     y2="34.977909"
     x2="29.505976"
     y1="34.977909"
     x1="27.41291"
     class="a" />
  <line
     y2="30.791775"
     x2="29.505976"
     y1="30.791775"
     x1="27.41291"
     class="a" />
  <line
     y2="32.884842"
     x2="28.773407"
     y1="32.884842"
     x1="27.41291"
     class="a" />
  <line
     y2="34.977909"
     x2="27.41291"
     y1="30.791775"
     x1="27.41291"
     class="a" />
</svg>
