<?xml version="1.0" encoding="UTF-8"?>
<svg id="b" version="1.1" viewBox="0 0 48 48" xml:space="preserve" xmlns="http://www.w3.org/2000/svg"><defs><style>.c{fill:none;stroke:#fff;stroke-linecap:round;stroke-linejoin:round;}</style></defs><path d="m24.012 20.951-13.364-4.383m11.987 2.1205-14.448-4.7386m-1.9449-2.3512-0.26086-0.08981c-0.0915-0.03146-0.17276-0.08546-0.2374-0.15743-0.55261-0.61248-1.1018-1.2282-1.6473-1.8471-0.0229-0.02345-0.0286-0.05606-0.0172-0.08552 0.0172-0.04634 0.0646-0.07093 0.11098-0.05549 2.5889 0.85312 20.807 6.8667 22.235 7.3231 0 0-2.3517-7.0435 8.3443-7.0435 0.33809 0 6.5447-3.9673 8.9725-5.527l7e-3 1.15e-4c0.0458-0.02918 0.10984-0.02174 0.14931 0.01888 0.0458 0.04748 0.0458 0.12219-4e-3 0.16744-1.7393 1.7091-5.8633 5.6923-8.1661 7.4718-0.31864 0.24724-2.4824 6.5267-4.1772 10.283-1.4374 3.1868-3.6849 5.0526-9.5195 8.238-4.0342 2.1986-6.7042 10.479-10.493 13.589-0.10754 0.08564-0.258-0.02918-0.20422-0.15526l8.4097-18.908c-0.87971-0.08123-3.2127-2.1655-5.8266-4.7773-0.0172-0.01545-0.0172-0.03718-0.0172-0.05749 0.0114-0.03146 0.04-0.04977 0.0738-0.04004l11.737 3.8488c4e-3 7.21e-4 0.0114 0 0.0114-0.0022 0.0114-5e-3 0.0114-0.01602 6e-3 -0.0246l-4.3957-7.221z" fill="none" stroke="#fff" stroke-linecap="round" stroke-linejoin="round" stroke-width="1px"/></svg>
