<?xml version="1.0" encoding="UTF-8"?>
<svg id="a" xmlns="http://www.w3.org/2000/svg" viewBox="0 0 48 48">
<defs><style>.a{fill:none;stroke:#fff;stroke-linecap:round;stroke-linejoin:round;}</style></defs>
  <path
     class="a"
     d="M40.5,5.5H7.5a2,2,0,0,0-2,2v33a2,2,0,0,0,2,2h33a2,2,0,0,0,2-2V7.5A2,2,0,0,0,40.5,5.5Z" />
  <path
     class="a"
     d="m 32.585041,33.059426 c -0.262424,0.14318 -0.560856,0.202699 -0.894662,0.190837 -0.334016,-0.02393 -0.644311,-0.08366 -0.930671,-0.190837 -2.696273,-1.073848 -5.392547,-2.147279 -8.08882,-3.221127 -0.155042,-0.05973 -0.310293,-0.227048 -0.405607,-0.37002 -0.155041,-0.238494 -0.167112,-0.489059 -0.05952,-0.751485 l 0.35795,-0.835146 c 0.107384,-0.262635 0.310084,-0.417885 0.584581,-0.465126 0.190837,-0.03601 0.393953,-0.02393 0.584789,0.04745 l 3.972821,1.586839 c 0.286359,0.131317 0.501128,0.14318 0.632446,0.0358 0.13111,-0.09552 0.167113,-0.214562 0.119247,-0.333809 L 23.82819,18.146261 c -0.07159,-0.202699 -0.214772,-0.298222 -0.393954,-0.298222 -0.178767,0 -0.321947,0.09531 -0.393537,0.298222 -2.08776,4.760308 -4.115997,9.53248 -6.21583,14.280927 -0.178975,0.429331 -0.632444,0.644101 -1.348345,0.644101 h -1.932718 c -0.763556,0 -1.038053,-0.250357 -0.835146,-0.751486 l 7.909847,-16.869608 c 0.131109,-0.286359 0.310292,-0.477197 0.536925,-0.584581 0.226631,-0.09552 0.524851,-0.14318 0.894874,-0.14318 h 2.767863 c 0.369813,0 0.668033,0.04766 0.894665,0.14318 0.226632,0.09531 0.405607,0.28636 0.536924,0.584581 l 7.551897,16.141847 c 0.178975,0.417469 0.08346,0.739623 -0.322154,0.966255 z"
     />
  <path
     class="a"
     d="m 35.59322,34.169492 6.711865,3.254237 v 0 0" />
  <path
     class="a"
     d="M 13.220339,25.423729 5.6949153,22.169492"/>
  <path
     class="a"
     d="M 21.966102,5.4915254 23.186441,12.610169 41.694915,9.7627119" />
  <path
     class="a"
     d="M 35.389831,10.983051 39.864407,35.79661" />
  <path
     class="a"
     d="M 8.2372881,23.288136 21.966102,7.0169492"/>
  <path
     class="a"
     d="M 26.542373,33.762712 23.491526,42.20339"/>
  <path
     class="a"
     d="m 5.3898305,38.237288 8.1355925,-2.949153 -2.542372,7.01695"/>
</svg>
