<svg id="a" xmlns="http://www.w3.org/2000/svg" viewBox="0 0 48 48"><defs><style>.a{fill:none;stroke:#fff;stroke-linecap:round;stroke-linejoin:round}</style></defs><path class="a" d="M40.5 5.5h-33a2 2 0 0 0-2 2v33a2 2 0 0 0 2 2h33a2 2 0 0 0 2-2v-33a2 2 0 0 0-2-2Z"/><path class="a" d="M32.585 33.06c-.262.143-.56.202-.895.19a3.317 3.317 0 0 1-.93-.19l-8.09-3.222c-.154-.06-.31-.227-.405-.37a.768.768 0 0 1-.06-.751l.359-.835a.734.734 0 0 1 .584-.465c.191-.036.394-.024.585.047l3.973 1.587c.286.131.501.143.632.036.131-.096.167-.215.12-.334l-4.63-10.607c-.071-.202-.215-.298-.394-.298-.179 0-.322.095-.393.298-2.088 4.76-4.116 9.533-6.216 14.281-.18.43-.633.644-1.348.644h-1.933c-.764 0-1.038-.25-.835-.751l7.91-16.87c.13-.286.31-.477.536-.584.227-.096.525-.144.895-.144h2.768c.37 0 .668.048.895.144.226.095.405.286.537.584l7.552 16.142c.179.418.083.74-.322.966zM35.593 34.17l6.712 3.254v0M13.22 25.424l-7.525-3.255M21.966 5.492l1.22 7.118 18.509-2.847M35.39 10.983l4.474 24.814M8.237 23.288l13.73-16.271M26.542 33.763l-3.05 8.44M5.39 38.237l8.135-2.949-2.542 7.017"/></svg>
