<svg width="48" height="48" version="1.1" viewBox="0 0 48 48" xmlns="http://www.w3.org/2000/svg">
 <g fill="none" stroke="#fff">
  <g stroke-linecap="round">
   <g stroke-width="1px">
    <path d="m18.826 40.145s-1.6281-3.6529 2.5679-5.9511"/>
    <path d="m21.393 34.194s1.1661-4.6599 2.6066-4.6752"/>
    <path d="m8.4981 31.284-3.3937 1.6889"/>
    <path d="m7.6285 28.75-3.8702 0.80766"/>
    <path d="m3.5609 26.032 3.9213 0.0023"/>
    <path d="m7.5253 24.974s-6.7061-4.6077-2.9201-16.469"/>
    <path d="m14.956 12.97c-5.6758-3.9237-10.351-4.4644-10.351-4.4644s5.4171 2.9068 5.6602 8.3603"/>
    <path d="m15.267 24.298s-3.9415 0.53355-3.5903 5.7514c0.35115 5.2178 5.4469 3.0193 5.4469 3.0193s3.57-1.7374 2.9895-4.571c-0.58056-2.8336-2.771-4.192-4.846-4.1998z"/>
   </g>
   <path d="m17.231 30.062a1.1654 1.1654 0 0 1-1.1654 1.1654 1.1654 1.1654 0 0 1-1.1654-1.1654 1.1654 1.1654 0 0 1 1.1654-1.1654 1.1654 1.1654 0 0 1 1.1654 1.1654z" stroke-linejoin="round" stroke-miterlimit="10"/>
   <path d="m26.607 34.194s-1.1661-4.6599-2.6066-4.6752" stroke-width="1px"/>
  </g>
  <path d="m21.393 34.194s2.4198 6.5834 5.2132 0" stroke-width="1px"/>
  <g stroke-linecap="round" stroke-width="1px">
   <path d="m26.987 41.181c-0.10565 0.01497-3.0071-0.90987-3.0071-3.6317"/>
   <path d="m20.973 41.181c0.10565 0.01497 3.0071-0.90987 3.0071-3.6317"/>
   <path d="m24 10.777c-0.4361-0.01027-16.231 0.10192-16.231 15.079 0 0-0.5289 3.1727 1.3909 5.8607 1.9198 2.688 3.2426 5.1046 10.126 8.749 0 0 1.8587 1.3265 4.7149 1.3774"/>
  </g>
  <g transform="matrix(-1,0,0,1,48,0)">
   <g stroke-linecap="round">
    <g stroke-width="1px">
     <path d="m18.826 40.145s-1.6281-3.6529 2.5679-5.9511"/>
     <path d="m21.393 34.194s1.1661-4.6599 2.6066-4.6752"/>
     <path d="m8.4981 31.284-3.3937 1.6889"/>
     <path d="m7.6285 28.75-3.8702 0.80766"/>
     <path d="m3.5609 26.032 3.9213 0.0023"/>
     <path d="m7.5253 24.974s-6.7061-4.6077-2.9201-16.469"/>
     <path d="m14.956 12.97c-5.6758-3.9237-10.351-4.4644-10.351-4.4644s5.4171 2.9068 5.6602 8.3603"/>
     <path d="m15.267 24.298s-3.9415 0.53355-3.5903 5.7514c0.35115 5.2178 5.4469 3.0193 5.4469 3.0193s3.57-1.7374 2.9895-4.571c-0.58056-2.8336-2.771-4.192-4.846-4.1998z"/>
    </g>
    <path d="m17.231 30.062a1.1654 1.1654 0 0 1-1.1654 1.1654 1.1654 1.1654 0 0 1-1.1654-1.1654 1.1654 1.1654 0 0 1 1.1654-1.1654 1.1654 1.1654 0 0 1 1.1654 1.1654z" stroke-linejoin="round" stroke-miterlimit="10"/>
    <path d="m26.607 34.194s-1.1661-4.6599-2.6066-4.6752" stroke-width="1px"/>
   </g>
   <path d="m21.393 34.194s2.4198 6.5834 5.2132 0" stroke-width="1px"/>
   <g stroke-linecap="round" stroke-width="1px">
    <path d="m26.987 41.181c-0.10565 0.01497-3.0071-0.90987-3.0071-3.6317"/>
    <path d="m20.973 41.181c0.10565 0.01497 3.0071-0.90987 3.0071-3.6317"/>
    <path d="m24 10.777c-0.4361-0.01027-16.231 0.10192-16.231 15.079 0 0-0.5289 3.1727 1.3909 5.8607 1.9198 2.688 3.2426 5.1046 10.126 8.749 0 0 1.8587 1.3265 4.7149 1.3774"/>
   </g>
  </g>
 </g>
</svg>
