<?xml version="1.0" encoding="utf-8"?>
<!-- Generator: Adobe Illustrator 27.2.0, SVG Export Plug-In . SVG Version: 6.00 Build 0)  -->
<svg version="1.1" id="Layer_3" xmlns="http://www.w3.org/2000/svg" xmlns:xlink="http://www.w3.org/1999/xlink" x="0px" y="0px"
	 viewBox="0 0 48 48" style="enable-background:new 0 0 48 48;" xml:space="preserve">
<style type="text/css">
	.st0{fill:none;stroke:#FFFFFF;stroke-linecap:round;stroke-linejoin:round;stroke-miterlimit:10;}
	.st1{fill:none;stroke:#FFFFFF;stroke-miterlimit:10;}
</style>
<path class="st0" d="M22.7,27.4c-1.5,1.9-2.1,3.2-4.2,4.4c-1.9,1.2-4.3,1.1-5.7,1.1c-5.2,0-9-4.2-9.4-9.4c0-0.3,0-0.5,0-0.8
	c0-1.8,0.3-3.7,1.5-5.1c1.4-1.6,3.6-2.2,5.6-2.3c3.3-0.3,6.7-0.2,10.1-0.2c3.7,0,7.4,0,11.1,0c0.8,0,3.9,0,3.1,0
	c-5.1,0-6.2,4.4-9.8,9.6"/>
<path class="st1" d="M28.9,31.1c0.8,0.6,1.7,1.1,2.7,1.4c1.4,0.4,2.6,0.4,3.6,0.4c5.2,0,9-4.2,9.4-9.4c0-0.3,0-0.5,0-0.8
	c0-1.8-0.3-3.7-1.5-5.1c-1.4-1.6-3.6-2.2-5.6-2.3c-3.3-0.3-6.7-0.2-10.1-0.2c-4.6,0-9.3,0-13.9,0c-0.2,0-0.2,0,0,0.1
	C20.6,15.9,19.7,24.1,28.9,31.1z"/>
<line class="st0" x1="4.9" y1="17.6" x2="1.5" y2="19.3"/>
<line class="st0" x1="3.3" y1="22.2" x2="1.4" y2="22.2"/>
<line class="st0" x1="1.5" y1="19.3" x2="1.4" y2="22.2"/>
<line class="st0" x1="43.1" y1="17.6" x2="46.5" y2="19.3"/>
<line class="st0" x1="44.7" y1="22.2" x2="46.6" y2="22.2"/>
<line class="st0" x1="46.5" y1="19.3" x2="46.6" y2="22.2"/>
</svg>
