<?xml version="1.0" encoding="UTF-8"?><svg id="b" xmlns="http://www.w3.org/2000/svg" viewBox="0 0 48 48"><defs><style>.c{fill:none;stroke:#fff;stroke-linecap:round;stroke-linejoin:round;}</style></defs><path class="c" d="m34.8,15.2032c-5.1,0-5.9794,3.9744-9.5794,9.1744"/><path class="c" d="m13.3643,15.1934c7.1.7,6.3357,8.9066,15.5357,15.9066.8.6,1.7,1.1,2.7,1.4,1.4.4,2.6.4,3.6.4,5.2,0,9-4.2,9.4-9.4v-.8c0-1.8-.3-3.7-1.5-5.1-1.4-1.6-3.6-2.2-5.6-2.3-4.3271-.228-19.6449-.3607-27,0-2,.1-4.2.7-5.6,2.3-1.2,1.4-1.5,3.3-1.5,5.1v.8c.4,5.2,4.2,9.4,9.4,9.4,1.4,0,3.8.1,5.7-1.1,2.1-1.2,2.7-2.5,4.2-4.4"/><polyline class="c" points="4.9 17.6 1.5 19.3 1.4 22.2 3.3 22.2"/><polyline class="c" points="43.1 17.6 46.5 19.3 46.6 22.2 44.7 22.2"/></svg>