<?xml version="1.0" encoding="UTF-8"?>
<svg id="b" version="1.1" viewBox="0 0 48 48" xml:space="preserve" xmlns="http://www.w3.org/2000/svg"><defs><style>.c{stroke-width:1px;}.c,.d{fill:none;stroke:#fff;stroke-linecap:round;stroke-linejoin:round;}.e{fill:#fff;stroke-width:0px;}</style></defs><g fill="none" stroke="#fff" stroke-linecap="round" stroke-linejoin="round"><g stroke-miterlimit="10"><path class="st5" d="m12.78 17.433-1.9662 8.4936c-0.16853 0.72803 0.20447 1.2134 0.93253 1.2134h0.36402" stroke-width=".86562"/><path class="st5" d="m18.724 25.954c-0.53255 0.72803-1.4943 1.2134-2.3436 1.2134-1.3347 0-2.174-1.0921-1.8651-2.4268l0.36514-1.5773c0.30897-1.3347 1.6539-2.4268 2.9886-2.4268s2.174 1.0921 1.8651 2.4268l-0.19662 0.84936h-4.8535" stroke-width=".86562"/><g transform="matrix(1.2134 0 -.28089 1.2134 -258.68 -51.35)" stroke-width=".71339">
		<path class="st5" d="m246 57.7v6c0 0.6 0.4 1 1 1h0.3"/>
		<line class="st5" x1="244.9" x2="247.1" y1="59.3" y2="59.3"/>
	</g><g transform="matrix(1.2134 0 -.28089 1.2134 -95.123 -51.218)" stroke-width=".71339">
		<path class="st5" d="m118 59.4v6c0 1.1-0.9 2-2 2-0.6 0-1.1-0.2-1.4-0.6"/>
		<path class="st5" d="m116 59.3c1.1 0 2 0.9 2 2v1.3c0 1.1-0.9 2-2 2s-2-0.9-2-2v-1.3c0-1.1 0.9-2 2-2z"/>
	</g><path class="st5" d="m34.314 27.167c-1.3347 0-2.174-1.0921-1.8651-2.4268l0.36514-1.5773c0.30897-1.3347 1.6539-2.4268 2.9886-2.4268 1.3347 0 2.174 1.0921 1.8651 2.4268l-0.36514 1.5773c-0.30897 1.3347-1.6539 2.4268-2.9886 2.4268z" stroke-width=".86562"/></g><path class="d" d="m40.5 5.5h-33c-1.1046 0-2 0.8954-2 2v33c0 1.1046 0.8954 2 2 2h33c1.1046 0 2-0.8954 2-2v-33c0-1.1046-0.8954-2-2-2z"/></g></svg>
