<?xml version="1.0" encoding="UTF-8"?>
<svg version="1.1" viewBox="0 0 48 48" xml:space="preserve" xmlns="http://www.w3.org/2000/svg"><defs><style>.a{fill:none;stroke:#fff;stroke-linecap:round;stroke-linejoin:round;}</style><style>.c{stroke-width:1px;}.c,.d{fill:none;stroke:#fff;stroke-linecap:round;stroke-linejoin:round;}.e{fill:#fff;stroke-width:0px;}</style><style>.a{fill:none;stroke:#fff;stroke-linecap:round;stroke-linejoin:round;}</style><style>.a{fill:none;stroke:#fff;stroke-linecap:round;stroke-linejoin:round;}</style></defs><path d="m24.749 12.591c-1.9545 2.4102-7.5293 10.192-8.1646 11.199-1.2232 1.9305-1.3312 2.866-1.3673 3.4893-0.03507 0.61183-0.03507 1.7149 0.95949 2.6144 1.6668 1.4867 4.0045 1.2465 6.0791 1.2465h17.086c0.73139 0 0.94747-0.21608 1.3432-0.74342 1.3666-2.0866 1.9785-4.3527 1.9785-6.3793 0-4.3407-2.8174-9.8079-9.952-12.278l-0.80386 1.151c5.6594 2.6853 7.9981 6.1986 7.9981 11.115 0.03507 1.3192-0.31226 2.7459-1.1756 4.0651h-16.619c-0.99506 0-1.139-1.127-0.77948-1.7629 1.4247-2.5357 3.0148-4.9748 4.7599-7.3017 1.6789-2.2421 3.3332-4.3407 5.0721-6.5348 0.46772-0.61133 0.1553-1.1991-0.77948-1.3906-1.9425-0.40778-3.9685-0.69532-6.4267-0.69532-13.632 0-18.621 7.8294-18.621 13.633 0 6.2952 5.0241 13.597 18.657 13.597 7.5658 0 12.518-2.4348 15.384-5.5638h-2.89c-2.5063 2.3142-6.811 3.9576-12.494 3.9576-11.547 0-15.803-6.4873-15.803-12.075 0.083492-4.988 4.6518-11.871 16.091-12.098 0.43165-0.01312 0.76796 0.38373 0.46722 0.75544z" fill="none" stroke="#fff" stroke-linecap="round" stroke-linejoin="round"/></svg>
