<?xml version="1.0" encoding="utf-8"?>
<svg
	version="1.1"
	xmlns="http://www.w3.org/2000/svg"
	xmlns:xlink="http://www.w3.org/1999/xlink"
	x="0%" y="0%"
	width="100%" height="100%"
	viewBox="0 0 48.0 48.0"
	enable-background="new 0 0 48.0 48.0"
	xml:space="preserve">
	<path
fill="none"
stroke="#FFFFFF"		stroke-opacity="1.000"
stroke-linejoin="round"
stroke-linecap="round"		d="M12.40,31.34C12.41,35.20,12.42,39.06,9.86,39.50C7.30,39.94,2.18,36.96,1.20,34.87C0.23,32.79,3.40,31.60,5.42,29.28C7.44,26.97,8.31,23.51,9.77,21.72C11.24,19.94,13.30,19.82,14.76,19.08C16.23,18.34,17.11,16.98,18.89,17.92C20.67,18.86,23.36,22.09,23.43,23.76C23.50,25.43,20.95,25.54,19.63,26.25C18.30,26.96,18.18,28.28,18.62,28.94C19.05,29.61,20.04,29.61,20.79,30.04C21.54,30.47,22.05,31.32,22.69,31.46C23.32,31.60,24.08,31.04,24.85,31.05C25.61,31.07,26.37,31.67,27.49,31.32C28.61,30.97,30.09,29.67,28.42,26.35C26.75,23.04,21.93,17.72,19.93,14.37C17.94,11.03,18.78,9.66,19.71,8.49C20.64,7.33,21.65,6.38,22.54,6.41C23.43,6.45,24.21,7.47,23.95,8.50C23.70,9.52,22.43,10.55,22.93,11.26C23.43,11.97,25.71,12.37,26.60,13.29C27.50,14.22,27.02,15.67,27.72,17.26C28.42,18.85,30.29,20.58,31.55,21.04C32.81,21.50,33.45,20.69,33.94,19.86C34.43,19.03,34.78,18.18,34.35,17.05C33.91,15.92,32.71,14.51,32.20,13.25C31.69,11.99,31.88,10.87,31.56,10.09C31.24,9.30,30.40,8.84,29.84,8.37C29.28,7.89,29.00,7.40,28.74,6.55C28.47,5.69,28.22,4.47,27.77,3.56C27.33,2.65,26.69,2.04,25.74,1.99C24.80,1.95,23.55,2.46,22.44,2.76C21.33,3.07,20.35,3.15,19.70,3.80C19.05,4.45,18.73,5.66,18.38,6.36C18.03,7.05,17.66,7.23,17.56,8.41C17.47,9.60,17.66,11.78,17.45,12.81C17.24,13.85,16.62,13.73,16.63,13.92C16.64,14.10,17.28,14.59,17.23,15.55C17.18,16.52,16.45,17.96,16.87,19.59C17.29,21.21,18.87,23.01,20.76,24.16C22.64,25.31,24.84,25.80,26.09,24.59C27.33,23.37,27.63,20.44,28.27,20.31C28.92,20.18,29.91,22.85,31.20,26.57C32.49,30.28,34.07,35.05,34.93,34.96C35.80,34.87,35.94,29.92,36.63,31.04C37.32,32.16,38.54,39.34,41.04,41.27C43.54,43.21,47.32,39.89,46.96,36.34C46.59,32.78,42.09,29.00,38.37,24.72C34.65,20.45,31.70,15.70,30.69,19.64C29.68,23.59,30.60,36.23,32.78,41.38C34.96,46.53,38.39,44.19,34.04,42.84C29.70,41.50,17.56,41.14,12.88,42.73C8.19,44.32,10.95,47.85,12.64,44.82C14.32,41.78,14.94,32.17,14.71,28.42C14.49,24.67,13.42,26.77,12.90,28.23C12.38,29.69,12.39,30.51,12.40,31.34z"/>
	<path
fill="none"
stroke="#FFFFFF"		stroke-opacity="1.000"
stroke-linejoin="round"
stroke-linecap="round"		d="M23.89,3.96C26.00,3.96,27.72,6.75,27.72,10.19C27.72,13.64,26.00,16.43,23.89,16.43C21.77,16.43,20.06,13.64,20.06,10.19C20.06,6.75,21.77,3.96,23.89,3.96z"/>
</svg>