<?xml version="1.0" encoding="UTF-8"?>
<svg version="1.1" viewBox="0 0 48 48" xmlns="http://www.w3.org/2000/svg">
 <defs>
  <style>.a{fill:none;stroke:#fff;stroke-linecap:round;stroke-linejoin:round;}</style>
 </defs>
 <path d="m5.49519 21.2186 3.81449 5.35844s1.14741-0.196304 1.7256-0.18164c1.56234 0.03962 3.13127 0.289932 4.63188 0.726573 2.45712 0.714959 4.72719 1.96709 7.03863 3.06521 1.20771 0.573749 2.28305 1.45829 3.56473 1.83913 2.15124 0.639209 4.48965 1.08039 6.69806 0.681159 1.44554-0.261328 2.7938-1.04742 3.95072-1.95265 1.0616-0.830671 2.00086-1.886 2.61111-3.08792 0.683938-1.34707 0.921492-2.90112 1.06715-4.40482 0.229358-2.36776-0.509388-4.75833-0.317873-7.12946 0.143161-1.77247 0.287973-3.61845 1.08985-5.22221l1.13526-2.36136-2.9971 1.36232-0.930916-2.95169-1.83912 3.20145c-0.424859 0.75952-1.3752 0.607905-1.98496 0.835726-0.775274 0.289661-1.37368 0.774842-1.83913 1.38502-0.504714 0.66165-0.601422 1.55207-0.921321 2.3203-0.669699 1.60827-1.0737 3.37503-2.08888 4.79082-0.852333 1.18867-1.97778 2.22447-3.24686 2.95169-1.54109 0.883081-3.32826 1.33395-5.08598 1.58937-2.09735 0.304756-4.25998 0.212926-6.35748-0.09079-3.32946-0.482181-9.71785-2.72463-9.71785-2.72463z" style="fill:none;font-variation-settings:normal;stop-color:#000000;stroke-linecap:round;stroke-linejoin:round;stroke:#ffffff"/>
 <path d="m22.7739 41.0403c6.24395-3.0425 11.943-0.02267 11.943-0.02267" style="fill:none;font-variation-settings:normal;stop-color:#000000;stroke-linecap:round;stroke-linejoin:round;stroke:#ffffff"/>
 <path d="m33.2637 32.7074-1.61207 6.60724" style="fill:none;font-variation-settings:normal;stop-color:#000000;stroke-linecap:round;stroke-linejoin:round;stroke:#ffffff"/>
 <path d="m28.3594 32.6166-2.157 7.24299" style="fill:none;font-variation-settings:normal;stop-color:#000000;stroke-linecap:round;stroke-linejoin:round;stroke:#ffffff"/>
</svg>
