<?xml version="1.0" encoding="UTF-8" standalone="no"?>
<!-- Created with Inkscape (http://www.inkscape.org/) -->

<svg
   width="48"
   height="48"
   viewBox="0 0 12.7 12.7"
   version="1.1"
   id="svg5"
   inkscape:version="1.2.1 (9c6d41e410, 2022-07-14)"
   sodipodi:docname="lichess.svg"
   xmlns:inkscape="http://www.inkscape.org/namespaces/inkscape"
   xmlns:sodipodi="http://sodipodi.sourceforge.net/DTD/sodipodi-0.dtd"
   xmlns="http://www.w3.org/2000/svg"
   xmlns:svg="http://www.w3.org/2000/svg">
  <sodipodi:namedview
     id="namedview7"
     pagecolor="#505050"
     bordercolor="#eeeeee"
     borderopacity="1"
     inkscape:showpageshadow="true"
     inkscape:pageopacity="0"
     inkscape:pagecheckerboard="0"
     inkscape:deskcolor="#505050"
     inkscape:document-units="px"
     showgrid="false"
     inkscape:zoom="8.4359982"
     inkscape:cx="-0.17780943"
     inkscape:cy="22.285448"
     inkscape:window-width="1920"
     inkscape:window-height="1017"
     inkscape:window-x="-8"
     inkscape:window-y="-8"
     inkscape:window-maximized="1"
     inkscape:current-layer="layer1" />
  <defs
     id="defs2" />
  <g
     inkscape:label="Ebene 1"
     inkscape:groupmode="layer"
     id="layer1">
    <path
       style="fill:#000000;stroke-width:0.26458333;stroke-dasharray:none;stroke:#000000;stroke-opacity:1"
       d="M 6.2132803,11.985126 C 4.9233289,11.901222 3.760848,11.463947 2.7988164,10.70075 2.5980434,10.541475 2.226385,10.181275 2.068161,9.9926218 1.7867393,9.6570796 1.6011474,9.3712906 1.3992972,8.962649 1.1391127,8.4359089 0.98321303,7.9166027 0.90807766,7.3263805 0.87572461,7.0722454 0.87102928,6.3939053 0.8997797,6.1283977 1.0660296,4.5932458 1.7913748,3.2959656 2.9447442,2.4709779 3.6667879,1.9545105 4.5058039,1.6308966 5.5242493,1.476044 5.9560026,1.4104001 6.1797873,1.3969685 6.8707067,1.3952479 L 7.5281358,1.3936257 7.630403,1.327108 C 8.003439,1.0844711 8.4481388,0.9239868 9.0183099,0.82623671 c 0.1859691,-0.0318811 0.560726,-0.0812114 0.6179175,-0.0813358 0.061308,-1.1074e-4 0.1198642,0.0552447 0.1198642,0.11336609 0,0.0374852 -0.039346,0.213136 -0.2347567,1.0479882 -0.031972,0.1365993 -0.068358,0.2926976 -0.080848,0.346885 l -0.022716,0.098523 0.072276,0.1279254 c 0.039756,0.07036 0.1299404,0.2331133 0.200417,0.3616775 0.07048,0.1285641 0.1593168,0.2896343 0.1974214,0.3579338 0.038106,0.068302 0.2828577,0.5120647 0.5438967,0.9861444 0.261038,0.47408 0.565211,1.0263205 0.675937,1.2272021 1.064265,1.9308017 0.972335,1.7559389 0.99464,1.8919366 0.05721,0.348778 -0.01121,0.6794244 -0.201254,0.9727284 -0.115636,0.1784639 -0.389257,0.4426629 -0.607879,0.5869455 -0.194715,0.1285053 -0.416891,0.2470396 -0.62404,0.3329337 -0.204003,0.084591 -0.416618,0.1527286 -0.476569,0.1527286 -0.06198,0 -0.06904,-0.00735 -0.1980251,-0.2045344 C 9.80135,8.8497847 9.4795163,8.4731053 9.0700847,8.0632223 8.7518107,7.7445983 8.6272687,7.6379858 8.0467741,7.1872326 7.2353135,6.5571337 6.9810851,6.341468 6.5923272,5.953401 6.187333,5.5491283 5.9408956,5.227738 5.7743172,4.8866019 5.6181644,4.5668148 5.5713924,4.3635743 5.5815644,4.0490199 5.5920653,3.7240891 5.6316139,3.6228767 5.748054,3.6228767 c 0.061287,0 0.1218983,0.054568 0.1218983,0.1097459 0,0.020917 -0.00751,0.08348 -0.01668,0.1390357 -0.061237,0.3708003 0.2278668,0.8714226 0.804899,1.3937937 0.4264097,0.3860167 0.810647,0.6738274 1.746538,1.3082333 0.7266199,0.4925495 0.8461451,0.5865241 1.2056455,0.9479226 0.4236222,0.4258583 0.6375672,0.6864052 0.7904222,0.9625953 0.03224,0.058258 0.06783,0.105917 0.07909,0.105917 0.03697,0 0.25711,-0.086029 0.340946,-0.1332312 0.247149,-0.1391694 0.427214,-0.3398798 0.535817,-0.5972451 0.04976,-0.1179039 0.108779,-0.3471461 0.108779,-0.4224625 0,-0.033417 -0.05621,-0.1406565 -0.201999,-0.385344 C 10.937328,6.504531 9.6469267,4.3421567 9.1110826,3.4451026 8.7723251,2.8779899 8.6165581,2.6041726 8.616582,2.5758345 8.6166116,2.5377425 8.664142,2.3933686 8.8625753,1.8286028 l 0.073481,-0.2091379 -0.04653,0.010014 C 8.5811474,1.6958038 8.3071714,1.8200503 7.7253648,2.1574183 7.5686777,2.2482754 7.4273302,2.3224802 7.4112595,2.3223188 7.3951922,2.3221531 7.3041573,2.3091773 7.2089672,2.2934838 6.8448299,2.2334307 6.6189288,2.2155395 6.2205821,2.2152104 5.832081,2.214879 5.7099382,2.2241359 5.358619,2.2804734 4.1793869,2.4695742 3.161385,3.1131217 2.4493673,4.1196066 1.9323437,4.8504551 1.6584044,5.5523129 1.588424,6.3254258 1.566413,6.5686036 1.578367,7.0600618 1.611535,7.275269 c 0.195183,1.2665332 0.8684735,2.3895084 1.9035135,3.174849 0.7348051,0.557538 1.6169524,0.905825 2.5594379,1.010511 0.2283595,0.02537 0.7436692,0.02924 0.9663343,0.0072 1.1310607,-0.111647 2.1181964,-0.562185 2.916158,-1.330963 0.1304823,-0.12571 0.1562283,-0.1442772 0.2000663,-0.1442772 0.08553,0 0.133428,0.061588 0.126607,0.1627842 -0.0036,0.05382 -0.277283,0.392475 -0.4827167,0.597371 -0.6778217,0.676045 -1.5707303,1.081783 -2.6526473,1.205363 -0.187427,0.02141 -0.7646363,0.03807 -0.9350113,0.02698 z m 0.9496206,-0.07052 c 0.088388,-0.01285 0.210708,-0.02989 0.2718235,-0.03786 0.1477229,-0.01926 0.48983,-0.103819 0.7070163,-0.174742 0.8096614,-0.264412 1.4743535,-0.721913 1.9528783,-1.344148 0.05252,-0.0683 0.110914,-0.151283 0.129754,-0.184405 0.03297,-0.05798 0.03331,-0.06166 0.0091,-0.09862 -0.0461,-0.07036 -0.08376,-0.05346 -0.2703449,0.121373 -0.1879896,0.176144 -0.22799,0.209435 -0.4626987,0.385095 -0.6473532,0.484488 -1.4189565,0.794426 -2.2498704,0.903727 -0.2021986,0.0266 -0.32168,0.03282 -0.6428199,0.03347 -0.517795,0.0011 -0.7037578,-0.02029 -1.2710303,-0.14587 -0.1177534,-0.02607 -0.4266655,-0.12486 -0.5899841,-0.188678 -0.072907,-0.02848 -0.1358652,-0.0518 -0.1399063,-0.0518 -0.016878,0 -0.4751297,-0.226103 -0.5557493,-0.27421 C 3.8380328,10.730829 3.6560237,10.61226 3.5454375,10.528561 3.4797796,10.478871 3.4089074,10.42536 3.3879389,10.409655 3.2830915,10.331131 3.0236916,10.093622 2.8871313,9.9511104 2.30459,9.3431805 1.8944083,8.6185699 1.678082,7.8152472 1.5545404,7.3564793 1.5002889,6.7384353 1.5463108,6.31409 1.5712047,6.0845526 1.6303188,5.7542385 1.6714224,5.6149984 c 0.021017,-0.071184 0.043767,-0.1524345 0.050563,-0.1805581 0.00677,-0.028123 0.029441,-0.093867 0.050324,-0.1460957 0.020883,-0.052227 0.047878,-0.123457 0.05999,-0.1582848 C 1.9206947,4.8759025 2.2345484,4.3247181 2.4649637,4.0189877 2.5096897,3.9596468 2.5591302,3.8939008 2.574835,3.872892 2.6491046,3.7735394 2.8862789,3.5131604 3.0088956,3.3963651 3.3809197,3.0420014 3.8682525,2.7204165 4.3167785,2.533311 4.4820026,2.4643889 4.8001582,2.3563117 4.9130274,2.3307713 c 0.048209,-0.010906 0.1599738,-0.036527 0.248362,-0.056923 0.2628064,-0.060646 0.6819465,-0.1006785 1.0518867,-0.1004666 0.3307577,1.657e-4 0.8035728,0.03829 1.0571365,0.085177 0.067167,0.012423 0.1361987,0.019036 0.1533997,0.014699 0.028616,-0.00721 0.090574,-0.041892 0.3161618,-0.1769535 0.4649091,-0.2783469 0.8787773,-0.4632114 1.1273029,-0.5035396 0.1173636,-0.019042 0.1145083,-0.019198 0.1145083,0.00599 0,0.016004 -0.2777449,0.8272761 -0.3278397,0.9575943 -0.00493,0.012909 0.061647,0.1389567 0.1621214,0.3068006 0.093799,0.1566871 0.191478,0.3210448 0.2170637,0.3652385 0.025585,0.044198 0.082693,0.1395207 0.1269045,0.2118383 0.044212,0.072318 0.1775457,0.2958432 0.2962981,0.4967248 0.1187518,0.2008809 0.2403179,0.404684 0.2701464,0.4528956 0.029829,0.048209 0.1461598,0.2421532 0.2585142,0.4309818 0.6617841,1.112227 0.7785821,1.3080513 0.8670181,1.4536489 0.05368,0.088387 0.195034,0.325063 0.314108,0.5259446 0.119072,0.2008813 0.245532,0.4126873 0.281021,0.4706789 0.06412,0.1047816 0.06447,0.1060685 0.05467,0.2045344 -0.04623,0.464692 -0.325092,0.8652238 -0.737656,1.059519 -0.09936,0.046794 -0.264645,0.098769 -0.314103,0.098769 -0.01071,0 -0.05089,-0.057522 -0.08919,-0.1278337 C 10.210915,8.2308057 9.9773234,7.9492138 9.5300368,7.5045329 9.2278209,7.2040784 9.0176634,7.0401729 8.4118165,6.6324155 8.0869154,6.4137445 7.551873,6.0403905 7.3671271,5.9034272 6.4662786,5.2355764 5.9607001,4.6761857 5.8415155,4.2154362 5.8088734,4.0892487 5.8012946,3.8847469 5.8260545,3.7984017 c 0.018908,-0.065926 0.00762,-0.097846 -0.044014,-0.1245512 -0.039121,-0.020234 -0.044571,-0.019465 -0.079193,0.011118 -0.084313,0.074473 -0.112702,0.4561338 -0.054061,0.7267955 0.1371914,0.6332381 0.689405,1.3361836 1.7021194,2.166729 0.1296189,0.1063064 0.2529891,0.2062987 0.2741572,0.2222133 0.021164,0.015908 0.108995,0.084818 0.1951716,0.153119 0.086176,0.068304 0.1783268,0.1406165 0.2047781,0.1607044 0.483372,0.3670858 0.7167386,0.5631135 0.9911523,0.8325662 0.2669914,0.2621626 0.5533388,0.5675356 0.6836711,0.7290932 0.2025229,0.2510421 0.3627858,0.4719269 0.4133458,0.5696996 0.0421,0.081401 0.0643,0.083023 0.25376,0.018612 C 11.041568,9.035118 11.579199,8.6729322 11.85598,8.2613815 12.029308,8.0036561 12.110412,7.6985156 12.079085,7.4219805 12.060095,7.2544111 12.0364,7.1808467 11.957725,7.0452817 11.92154,6.9829254 11.834421,6.8267242 11.764135,6.69816 11.622619,6.4393067 11.402634,6.0398455 11.217037,5.7047106 11.150286,5.5841815 11.077858,5.4526959 11.056081,5.4125199 11.034304,5.3723412 10.942132,5.2046989 10.851254,5.039976 10.760374,4.8752532 10.639075,4.6550148 10.581699,4.5505565 10.524325,4.4460982 10.402798,4.2258591 10.311645,4.061137 10.146022,3.7618426 9.985663,3.4708222 9.6756813,2.9069829 9.5851217,2.74226 9.4807014,2.5531585 9.4436367,2.4867582 9.4065742,2.4203601 9.3762445,2.3588272 9.3762445,2.3500251 c 0,-0.0088 0.019727,-0.099108 0.043838,-0.2006813 C 9.4441941,2.0477719 9.4876932,1.8627657 9.5167409,1.7382187 9.545794,1.6136725 9.5914939,1.419731 9.6182997,1.307237 9.6451045,1.1947436 9.6785851,1.0450863 9.6926926,0.97466457 L 9.7183467,0.8466257 9.6863315,0.81461103 c -0.038648,-0.0386488 -0.054842,-0.0381906 -0.383132,0.0109065 -0.132582,0.019825 -0.2673545,0.0396076 -0.299496,0.0439576 C 8.8758133,0.88677621 8.45365,0.99530099 8.2951411,1.0516217 8.0905715,1.1243079 7.8191809,1.2571663 7.653158,1.3659019 L 7.5298146,1.4466861 7.1637385,1.4351871 C 6.1243732,1.4025379 5.2110809,1.5161861 4.4309166,1.7752588 4.1236013,1.8773109 3.9804427,1.9364001 3.6712196,2.0888269 2.4542898,2.6886945 1.5846071,3.7138368 1.1675945,5.0399852 1.0968126,5.2650798 1.0099366,5.6238555 0.99071158,5.770463 0.98280619,5.8307278 0.96617676,5.955606 0.95374767,6.0479715 0.79560408,7.2233801 1.0800219,8.4707921 1.7332351,9.4666776 c 0.6339008,0.9664434 1.5971958,1.7056384 2.7780332,2.1317554 0.1520277,0.05486 0.4778263,0.153428 0.5770767,0.174589 0.040179,0.0085 0.1453653,0.0322 0.2337529,0.05249 0.1314419,0.03019 0.4947886,0.0824 0.8035245,0.115439 0.1407891,0.01506 0.8819344,-0.0038 1.0372776,-0.02634 z"
       id="path3472" />
  </g>
</svg>
