<?xml version="1.0" encoding="UTF-8" standalone="no"?>
<svg
   viewBox="0 0 48 48"
   version="1.1"
   id="svg8"
   xmlns="http://www.w3.org/2000/svg"
   xmlns:svg="http://www.w3.org/2000/svg">
  <defs
     id="defs4">
    <style
       id="style2">.a{fill:none;stroke:#fff;stroke-linecap:round;stroke-linejoin:round;}</style>
  </defs>
  <path
     class="a"
     d="m 18.630315,20.781148 c 0,0 1.62735,-0.159572 2.263045,0.255373 0.55277,0.360817 1.069857,1.056191 0.995243,1.712069 -0.0939,0.825419 -1.159328,1.191376 -1.70447,1.818236 -0.485474,0.558248 -1.15076,1.028867 -1.392907,1.727931 -0.536932,1.550091 0.646185,2.747965 0.05685,4.921023 -0.5495,2.02616 -3.354346,4.002054 -5.695931,4.128996 -2.980976,0.161605 -6.5052715,-1.740813 -7.7770152,-4.441739 -1.0377861,-2.204048 -0.1579792,-5.212185 1.2490554,-7.200923 0.7339441,-1.037376 2.5258117,-0.876732 3.3251619,-1.864589 0.7082469,-0.875269 0.4424399,-2.248454 1.0010609,-3.226028 0.443767,-0.776582 1.041602,-1.518792 1.804191,-1.986197 0.675612,-0.414095 1.503428,-0.56386 2.293427,-0.625718 0.822679,-0.06442 2.460611,0.271925 2.460611,0.271925"
     id="path952" />
  <path
     class="a"
     d="M 9.5274371,28.537296 13.538833,30.73748"
     id="path954" />
  <path
     class="a"
     d="m 14.05019,27.511748 -2.01445,-1.207329 7.442814,-13.675261 -0.846027,-1.715154 2.478666,-4.562314 3.530638,1.884932 -2.296275,4.565426 -3.404895,0.81867"
     id="path956" />
  <path
     class="a"
     d="m 32.5,36 h -7 c -0.942809,0 -2,-1.057191 -2,-2 V 18.5"
     id="path958" />
  <path
     class="a"
     d="M 39,28.8 V 21 H 26.5 c -1.301708,0 -3,-1.198292 -3,-2.5 0,-1.301708 1.698292,-2.5 3,-2.5 H 39"
     id="path960" />
  <path
     class="a"
     d="M 25.5,18.5 H 39"
     id="path962" />
  <path
     class="a"
     d="M 26.5,36 V 21"
     id="path964" />
  <path
     class="a"
     d="m 39.100003,32.099887 2.999994,3.000226 c 0.471386,0.471423 0.471405,1.528595 0,2 -0.471405,0.471405 -1.528614,0.471423 -2,0 l -2.999994,-3.000226"
     id="path968" />
  <circle
     class="a"
     id="path992"
     r="3.8"
     cy="30.554808"
     cx="35.555725" />
</svg>
