<?xml version="1.0" encoding="UTF-8" standalone="no"?>
<!-- Created with Inkscape (http://www.inkscape.org/) -->

<svg
   width="48"
   height="48"
   viewBox="0 0 12.7 12.7"
   version="1.1"
   id="svg5"
   inkscape:version="1.1.2 (0a00cf5339, 2022-02-04)"
   sodipodi:docname="ligamx.svg"
   xmlns:inkscape="http://www.inkscape.org/namespaces/inkscape"
   xmlns:sodipodi="http://sodipodi.sourceforge.net/DTD/sodipodi-0.dtd"
   xmlns="http://www.w3.org/2000/svg"
   xmlns:svg="http://www.w3.org/2000/svg">
  <sodipodi:namedview
     id="namedview7"
     pagecolor="#505050"
     bordercolor="#ffffff"
     borderopacity="1"
     inkscape:pageshadow="0"
     inkscape:pageopacity="0"
     inkscape:pagecheckerboard="1"
     inkscape:document-units="px"
     showgrid="false"
     units="px"
     width="48px"
     inkscape:snap-global="false"
     inkscape:lockguides="true"
     inkscape:zoom="12.98156"
     inkscape:cx="22.608993"
     inkscape:cy="23.533381"
     inkscape:window-width="1920"
     inkscape:window-height="950"
     inkscape:window-x="0"
     inkscape:window-y="32"
     inkscape:window-maximized="1"
     inkscape:current-layer="layer1" />
  <defs
     id="defs2">
    <style
       id="style55705">.a{fill:none;stroke:#fff;stroke-linecap:round;stroke-linejoin:round;}</style>
  </defs>
  <g
     inkscape:label="ligamx"
     inkscape:groupmode="layer"
     id="layer1"
     style="display:inline">
    <path
       style="fill:none;stroke:#ffffff;stroke-width:0.264583;stroke-linecap:round;stroke-linejoin:round;stroke-miterlimit:4;stroke-dasharray:none;stroke-opacity:1"
       d="M 5.4123535,2.6849565 C 5.0334666,2.2640634 3.26696,3.1095297 3.6487056,3.7445647 c 0.3616982,0.6016862 1.1882907,1.531807 1.1882907,1.531807 0,0 -1.7308398,2.8654199 -1.9541124,3.1699493 -0.6537926,0.8917307 1.1466566,2.107588 1.716822,1.3987733 L 7.4431316,6.310221 c 0,0 0.4473196,-0.6179887 0.041403,-1.140646 C 7.0827487,4.6522365 6.0987065,3.4474033 5.4123535,2.6849565 Z"
       id="path57358"
       sodipodi:nodetypes="sscsscss" />
    <path
       style="fill:none;stroke:#ffffff;stroke-width:0.264583px;stroke-linecap:round;stroke-linejoin:round;stroke-opacity:1"
       d="M 1.7427324,9.2300805 C 1.5118083,9.3103103 0.79905422,8.9994186 1.1256995,7.2638204 c 0,0 0.2287125,-1.2708564 1.3806703,-2.3598938 0,0 0.726736,-0.634624 1.3532114,0.3206858 0,0 0.3809243,0.4597136 0.037253,0.8450294 0,0 -0.2993024,0.5583205 -0.9165402,1.3657853 C 2.5028965,8.0599541 2.4362589,8.989129 1.7427324,9.2300805 Z"
       id="path57789"
       sodipodi:nodetypes="sccccss" />
    <path
       style="display:inline;fill:none;stroke:#ffffff;stroke-width:0.264583px;stroke-linecap:round;stroke-linejoin:round;stroke-opacity:1"
       d="m 11.089803,9.1812559 c 0.232936,-0.074186 0.943678,-0.2306619 0.617033,-1.9662601 0,0 -0.228713,-1.2708564 -1.380671,-2.3598938 0,0 -0.726736,-0.634624 -1.353211,0.3206858 0,0 -0.380924,0.4597136 -0.03725,0.8450294 0,0 0.2993021,0.5583206 0.91654,1.3657853 0.477398,0.6245271 0.762418,1.7946534 1.237562,1.7946534 z"
       id="path57789-5"
       sodipodi:nodetypes="cccccssc" />
    <path
       style="fill:none;stroke:#ffffff;stroke-width:0.264583px;stroke-linecap:round;stroke-linejoin:round;stroke-opacity:1"
       d="m 2.3707646,4.5348128 c 0.4381323,-0.2697969 0.9695499,-0.681719 0.3260999,-1.1947924 0,0 -0.5617078,-0.5531014 -1.2420098,0.4239469 0,0 -1.00806888,1.3809543 -1.07590284,2.3245839 -0.067834,0.9436295 0.18064615,2.3578551 0.22931335,1.3335324 C 0.66281973,6.2738473 1.4334231,5.1120169 2.3707646,4.5348128 Z"
       id="path59198"
       sodipodi:nodetypes="sccsss" />
    <path
       style="display:inline;fill:none;stroke:#ffffff;stroke-width:0.264583px;stroke-linecap:round;stroke-linejoin:round;stroke-opacity:1"
       d="m 10.358934,4.3974205 c -0.4381334,-0.2697969 -0.9695504,-0.681719 -0.3261,-1.1947924 0,0 0.561708,-0.5531014 1.24201,0.4239469 0,0 1.008068,1.3809543 1.075902,2.3245839 C 12.418576,6.8947884 12.1701,8.309014 12.121433,7.2846913 12.066883,6.136455 11.296275,4.9746246 10.358934,4.3974205 Z"
       id="path59198-7"
       sodipodi:nodetypes="sccsss" />
    <path
       style="fill:none;stroke:#ffffff;stroke-width:0.264583px;stroke-linecap:round;stroke-linejoin:round;stroke-opacity:1"
       d="m 6.9129311,3.6851084 c 0,0 0.3337854,-0.4614788 0.5628841,-0.6187992 0.5410881,-0.3715612 1.7800189,-0.3231104 1.8424086,0.6950088 0.0023,0.5497212 -0.7485094,1.2613945 -1.258357,1.9497473 0,0 1.4928763,2.0011438 2.1175222,3.0251649 0.382983,0.6278484 -0.837773,2.2653538 -1.7577526,1.1774196 L 6.8229175,8.0254289"
       id="path61723"
       sodipodi:nodetypes="csccssc" />
  </g>
</svg>
