<svg viewBox="0 0 48 48" xmlns="http://www.w3.org/2000/svg">
    <style>
        .a{fill:none;stroke:#FFFFFF;stroke-linecap:round;stroke-linejoin:round}
    </style>
    <path class="a" d="M26.2553196,42.4042587"/>
    <path class="a" d="M24.0000114,10.3459749l-0.5912342-0.5912342c-4.2970657-4.2970653-11.2639856-4.2970653-15.5610523,0  L7.8477097,9.7547569c-4.2970657,4.2970657-4.2970657,11.2639847,0,15.5610504l0.5912342,0.5912342"/>
    <path class="a" d="M39.561058,25.9070129l0.5912361-0.5912342c4.2970619-4.2970676,4.2970619-11.2639875-0.0000076-15.5610514  l-0.0000153-0.0000153c-4.2970657-4.2970648-11.2639866-4.2970624-15.5610504,0.0000048l-0.5912342,0.5912342  c0-0.000001-15.5610676,15.5610676-15.5610676,15.5610676l15.5610676,15.5610676l15.5610676-15.5610676L39.561058,25.9070129z"/>
    <line class="a" x1="13.6259441" x2="37.1159477" y1="31.0940437" y2="7.6040387"/>
    <line class="a" x1="42.3029366" x2="18.8129673" y1="12.7910948" y2="36.2810669"/>
    <line class="a" x1="13.6259432" x2="5.6971111" y1="20.7199974" y2="12.7911644"/>
    <line class="a" x1="10.88412" x2="18.8129692" y1="7.6041279" y2="15.5329771"/>
</svg>