<?xml version="1.0" encoding="UTF-8" standalone="no"?>
<!DOCTYPE svg PUBLIC "-//W3C//DTD SVG 1.1//EN" "http://www.w3.org/Graphics/SVG/1.1/DTD/svg11.dtd">
<svg width="48px" height="48px" version="1.1" xmlns="http://www.w3.org/2000/svg" xmlns:xlink="http://www.w3.org/1999/xlink" xml:space="preserve" xmlns:serif="http://www.serif.com/" style="clip-rule:evenodd;stroke-linecap:round;stroke-linejoin:round;stroke-miterlimit:1.5;">
    <rect id="lime" x="0" y="0" width="48" height="48" style="fill:none;"/>
    <path d="M32.678,38.894C28.761,41.155 25.55,40.807 25.513,38.581L25.374,30.14C25.361,29.317 25.999,28.625 26.561,28.3C27.123,27.976 28.042,27.769 28.748,28.192L35.988,32.533C37.905,33.682 36.594,36.633 32.678,38.894Z" style="fill:none;stroke:white;stroke-width:1px;"/>
    <path d="M41.238,23.932C41.238,28.454 39.33,31.061 37.384,29.98L30.004,25.88C29.285,25.48 29.005,24.581 29.005,23.932C29.005,23.283 29.285,22.384 30.004,21.985L37.384,17.884C39.338,16.799 41.238,19.41 41.238,23.932Z" style="fill:none;stroke:white;stroke-width:1px;"/>
    <path d="M32.56,9.038C36.476,11.299 37.78,14.254 35.871,15.399L28.63,19.74C27.925,20.163 27.006,19.957 26.444,19.632C25.881,19.307 25.243,18.615 25.257,17.792L25.396,9.351C25.433,7.117 28.644,6.777 32.56,9.038Z" style="fill:none;stroke:white;stroke-width:1px;"/>
    <path d="M15.322,9.106C19.239,6.845 22.45,7.193 22.487,9.419L22.626,17.86C22.639,18.683 22.001,19.375 21.439,19.7C20.877,20.024 19.958,20.231 19.252,19.808L12.012,15.467C10.095,14.318 11.406,11.367 15.322,9.106Z" style="fill:none;stroke:white;stroke-width:1px;"/>
    <path d="M6.762,24.068C6.762,19.546 8.67,16.939 10.616,18.02L17.996,22.12C18.715,22.52 18.995,23.419 18.995,24.068C18.995,24.717 18.715,25.616 17.996,26.015L10.616,30.116C8.662,31.201 6.762,28.59 6.762,24.068Z" style="fill:none;stroke:white;stroke-width:1px;"/>
    <path d="M15.44,38.962C11.524,36.701 10.22,33.746 12.129,32.601L19.37,28.26C20.075,27.837 20.994,28.043 21.556,28.368C22.119,28.693 22.757,29.385 22.743,30.208L22.604,38.649C22.567,40.883 19.356,41.223 15.44,38.962Z" style="fill:none;stroke:white;stroke-width:1px;"/>
    <circle cx="24" cy="24" r="2.506" style="fill:none;stroke:white;stroke-width:1px;"/>
    <circle cx="24" cy="24" r="20" style="fill:none;stroke:white;stroke-width:1px;"/>
</svg>
