<svg id="Layer_2" data-name="Layer 2" xmlns="http://www.w3.org/2000/svg" viewBox="0 0 48 48"><defs><style>.cls-1{fill:none;stroke:#fff;stroke-linecap:round;stroke-linejoin:round;}</style></defs><path class="cls-1" d="M7.45,9.77A2.94,2.94,0,0,0,4.5,12.71h0V35.28a2.94,2.94,0,0,0,2.94,2.95H40.55a2.94,2.94,0,0,0,3-2.94h0V12.72a2.94,2.94,0,0,0-2.94-3H7.45Zm7.46,8.86A5.6,5.6,0,0,0,9.51,24a5.61,5.61,0,0,0,5.4,5.39A5.6,5.6,0,0,0,20.3,24,5.6,5.6,0,0,0,14.91,18.63Zm18.22,0A5.59,5.59,0,0,0,27.74,24a5.6,5.6,0,0,0,5.39,5.39A5.6,5.6,0,0,0,38.52,24,5.6,5.6,0,0,0,33.13,18.63ZM14.91,29.41H33.13"/></svg>