<svg width="48" height="49" viewBox="0 0 48 49" fill="none" xmlns="http://www.w3.org/2000/svg">
<path d="M37.9022 11.9531H9.15442C9.04307 11.9531 8.98649 12.0991 9.06501 12.178C9.51316 12.6286 10.4304 13.7144 10.4304 15.055C10.4304 16.4269 9.4698 17.6311 9.03439 18.1065C8.96149 18.1861 9.01857 18.3225 9.1265 18.3225H37.8983C37.937 18.3225 37.9727 18.3045 37.994 18.2722C38.1799 17.9906 39.067 16.5675 39.067 15.055C39.067 13.543 38.1804 12.2529 37.9941 11.9986C37.9726 11.9691 37.9388 11.9531 37.9022 11.9531Z" stroke="white"/>
<path d="M38.011 21.2402H9.26312C9.15178 21.2402 9.09519 21.3862 9.17371 21.4651C9.62186 21.9157 10.5391 23.0015 10.5391 24.3421C10.5391 25.714 9.57851 26.9183 9.14309 27.3936C9.07019 27.4732 9.12728 27.6096 9.23521 27.6096H38.007C38.0457 27.6096 38.0814 27.5917 38.1027 27.5593C38.2886 27.2777 39.1757 25.8546 39.1757 24.3421C39.1757 22.8301 38.2891 21.54 38.1028 21.2857C38.0813 21.2562 38.0475 21.2402 38.011 21.2402Z" stroke="white"/>
<path d="M38.011 30.5276H9.26313C9.15179 30.5276 9.09521 30.6735 9.17373 30.7525C9.62188 31.203 10.5391 32.2889 10.5391 33.6295C10.5391 35.0014 9.57852 36.2056 9.14311 36.681C9.07021 36.7606 9.12729 36.897 9.23522 36.897H38.007C38.0457 36.897 38.0814 36.879 38.1027 36.8467C38.2886 36.565 39.1757 35.1419 39.1757 33.6295C39.1757 32.1175 38.2891 30.8273 38.1029 30.573C38.0813 30.5436 38.0475 30.5276 38.011 30.5276Z" stroke="white"/>
</svg>
