<svg xmlns="http://www.w3.org/2000/svg" viewBox="0 0 48 48"><defs><style>.a{fill:none;stroke:#fff;stroke-linecap:round;stroke-linejoin:round}</style></defs><path class="a" d="M37.222 22.49c.382 2.048.153 2.257-.521 4.38M34.45 32.014a13.047 13.047 0 0 1-10.247 4.955c-7.218 0-13.07-5.852-13.07-13.07 0-5.465 3.352-10.145 8.112-12.098M23.988 10.9c1.202 0 2.367.162 3.473.466M20.339 11.186l1.22-.915M28.771 9.754l1.356.119M28.97 13.818l.534.839M30.791 12.282l1.164.147M35.492 30.508l1.22-1.016M35.136 23.237l-.305-1.423M38.847 21.153c1.33-.998-.282.282.61-.61.054-.054.136-.068.204-.102M37.216 19.39l-.195-.898M34.794 18.93l-.639-.74M23.157 8.877l1.518-.364M36.008 14.215l.656-.03.094-.08M35.48 16.135l.736.374M34.276 11.903l.804.194M38.664 17.66l.345-.852"/></svg>
