<?xml version="1.0" encoding="UTF-8" standalone="no"?>
<svg
   xmlns:dc="http://purl.org/dc/elements/1.1/"
   xmlns:cc="http://creativecommons.org/ns#"
   xmlns:rdf="http://www.w3.org/1999/02/22-rdf-syntax-ns#"
   xmlns:svg="http://www.w3.org/2000/svg"
   xmlns="http://www.w3.org/2000/svg"
   xmlns:sodipodi="http://sodipodi.sourceforge.net/DTD/sodipodi-0.dtd"
   xmlns:inkscape="http://www.inkscape.org/namespaces/inkscape"
   viewBox="0 0 48 48"
   version="1.1"
   id="svg8"
   sodipodi:docname="square.svg"
   inkscape:version="1.0.1 (3bc2e813f5, 2020-09-07, custom)">
  <metadata
     id="metadata12">
    <rdf:RDF>
      <cc:Work
         rdf:about="">
        <dc:format>image/svg+xml</dc:format>
        <dc:type
           rdf:resource="http://purl.org/dc/dcmitype/StillImage" />
        <dc:title />
      </cc:Work>
    </rdf:RDF>
  </metadata>
  <sodipodi:namedview
     pagecolor="#000000"
     bordercolor="#666666"
     borderopacity="1"
     objecttolerance="10"
     gridtolerance="10"
     guidetolerance="10"
     inkscape:pageopacity="0"
     inkscape:pageshadow="2"
     inkscape:window-width="1920"
     inkscape:window-height="1080"
     id="namedview10"
     showgrid="false"
     inkscape:pagecheckerboard="true"
     inkscape:zoom="11.313708"
     inkscape:cx="1.0206088"
     inkscape:cy="31.118406"
     inkscape:window-x="0"
     inkscape:window-y="0"
     inkscape:window-maximized="1"
     inkscape:current-layer="svg8"
     inkscape:document-rotation="0">
    <sodipodi:guide
       position="7,14.5"
       orientation="0,34"
       id="guide886" />
    <sodipodi:guide
       position="7,21"
       orientation="0,34"
       id="guide888" />
    <sodipodi:guide
       position="7,27.5"
       orientation="0,34"
       id="guide890" />
    <sodipodi:guide
       position="7,34"
       orientation="0,34"
       id="guide892" />
    <sodipodi:guide
       position="7,40.5"
       orientation="0,34"
       id="guide894" />
    <sodipodi:guide
       position="20.75,41.25"
       orientation="34,0"
       id="guide900" />
    <sodipodi:guide
       position="14.25,41.25"
       orientation="34,0"
       id="guide902" />
    <sodipodi:guide
       position="7.75,41.25"
       orientation="34,0"
       id="guide904" />
    <sodipodi:guide
       position="40.5,42.5"
       orientation="0,-33"
       id="guide906" />
    <sodipodi:guide
       position="5.5,40.5"
       orientation="33,0"
       id="guide908" />
    <sodipodi:guide
       position="42.5,7.5"
       orientation="-33,0"
       id="guide912" />
    <sodipodi:guide
       position="12.892385,34.372925"
       orientation="0,0"
       id="guide938" />
    <sodipodi:guide
       position="12.318806,23.409891"
       orientation="5.493343,0"
       id="guide942" />
    <sodipodi:guide
       position="13.531008,16.704346"
       orientation="0,20.636995"
       id="guide944" />
    <sodipodi:guide
       position="18.994785,21.570893"
       orientation="0,0.011827"
       id="guide948" />
    <sodipodi:guide
       position="28.704225,21.570893"
       orientation="0,0.011827"
       id="guide950" />
  </sodipodi:namedview>
  <defs
     id="defs4">
    <style
       id="style2">.a{fill:none;stroke:#fff;stroke-linecap:round;stroke-linejoin:round;}</style>
    <style
       id="style845">.cls-1{fill:none;stroke:#fff;stroke-linecap:round;stroke-linejoin:round;}</style>
  </defs>
  <path
     class="cls-1"
     d="m 33.198241,17.860911 1.614298,-1.596558 a 1.8803909,1.8803909 0 0 0 0,-2.660931 v 0 a 1.8803909,1.8803909 0 0 0 -2.672757,0 l -1.608384,1.596558 a 11.471567,11.471567 0 0 0 -13.41109,0 l -1.549253,-1.572905 a 1.8922173,1.8922173 0 0 0 -2.67867,0 v 0 a 1.8863041,1.8863041 0 0 0 0,2.66093 l 1.608384,1.584732 a 11.49522,11.49522 0 0 0 -2.181963,6.717372 v 5.493343 a 1.2122017,1.2122017 0 0 0 1.212202,1.212202 h 20.636995 a 1.2122017,1.2122017 0 0 0 1.182636,-1.212202 v -5.493343 a 11.477481,11.477481 0 0 0 -2.152398,-6.729198 z m -14.191629,8.568196 a 2.1287445,2.1287445 0 1 1 2.122831,-2.122831 2.1228313,2.1228313 0 0 1 -2.134658,2.122831 z m 9.70944,0 a 2.1287445,2.1287445 0 1 1 2.111005,-2.122831 2.1228313,2.1228313 0 0 1 -2.122832,2.122831 z"
     id="path849"
     style="stroke-width:1;stroke:#ffffff;stroke-miterlimit:4;stroke-dasharray:none;stroke-linejoin:round;stroke-linecap:round" />
  <path
     style="fill:none;stroke:#ffffff;stroke-width:1px;stroke-linecap:round;stroke-linejoin:round;stroke-opacity:1"
     d="M 7.75,7.5 V 40"
     id="path914" />
  <path
     style="fill:none;stroke:#ffffff;stroke-width:1px;stroke-linecap:round;stroke-linejoin:round;stroke-opacity:1"
     d="m 14.25,7.5 v 5.562494"
     id="path916" />
  <path
     style="fill:none;stroke:#ffffff;stroke-width:1px;stroke-linecap:round;stroke-linejoin:round;stroke-opacity:1"
     d="m 20.75,7.5 v 5.787151"
     id="path918" />
  <path
     style="fill:none;stroke:#ffffff;stroke-width:1px;stroke-linecap:round;stroke-linejoin:round;stroke-opacity:1"
     d="m 27.25,7.5 v 5.847929"
     id="path920" />
  <path
     style="fill:none;stroke:#ffffff;stroke-width:1px;stroke-linecap:round;stroke-linejoin:round;stroke-opacity:1"
     d="m 33.75,7.5 v 5.29475"
     id="path922" />
  <path
     style="fill:none;stroke:#ffffff;stroke-width:1px;stroke-linecap:round;stroke-linejoin:round;stroke-opacity:1"
     d="M 40.25,7.5 V 40"
     id="path924" />
  <path
     style="fill:none;stroke:#ffffff;stroke-width:1px;stroke-linecap:round;stroke-linejoin:round;stroke-opacity:1"
     d="M 33.75,40 V 31.295654"
     id="path952" />
  <path
     style="fill:none;stroke:#ffffff;stroke-width:1px;stroke-linecap:round;stroke-linejoin:round;stroke-opacity:1"
     d="M 27.25,40 V 31.295654"
     id="path954" />
  <path
     style="fill:none;stroke:#ffffff;stroke-width:1px;stroke-linecap:round;stroke-linejoin:round;stroke-opacity:1"
     d="M 20.75,40 V 31.295654"
     id="path956" />
  <path
     style="fill:none;stroke:#ffffff;stroke-width:1px;stroke-linecap:round;stroke-linejoin:round;stroke-opacity:1"
     d="M 14.25,40 V 31.295654"
     id="path958" />
  <path
     style="fill:none;stroke:#ffffff;stroke-width:1px;stroke-linecap:round;stroke-linejoin:round;stroke-opacity:1"
     d="m 7.75,14 h 4.568806"
     id="path960" />
  <path
     style="fill:none;stroke:#ffffff;stroke-width:1px;stroke-linecap:round;stroke-linejoin:round;stroke-opacity:1"
     d="m 7.75,20.5 h 5.142385"
     id="path962" />
  <path
     style="fill:none;stroke:#ffffff;stroke-width:1px;stroke-linecap:round;stroke-linejoin:round;stroke-opacity:1"
     d="m 7.75,27 h 4.568806"
     id="path964" />
  <path
     style="fill:none;stroke:#ffffff;stroke-width:1px;stroke-linecap:round;stroke-linejoin:round;stroke-opacity:1"
     d="m 7.75,33.5 h 32.5"
     id="path968" />
  <path
     style="fill:none;stroke:#ffffff;stroke-width:1px;stroke-linecap:round;stroke-linejoin:round;stroke-opacity:1"
     d="m 7.75,40 h 32.5"
     id="path970" />
  <path
     style="fill:none;stroke:#ffffff;stroke-width:1px;stroke-linecap:round;stroke-linejoin:round;stroke-opacity:1"
     d="M 35.350639,27 H 40.25"
     id="path972" />
  <path
     style="fill:none;stroke:#ffffff;stroke-width:1px;stroke-linecap:round;stroke-linejoin:round;stroke-opacity:1"
     d="M 34.812539,20.5 H 40.25"
     id="path974" />
  <path
     style="fill:none;stroke:#ffffff;stroke-width:1px;stroke-linecap:round;stroke-linejoin:round;stroke-opacity:1"
     d="M 35.350639,14 H 40.25"
     id="path976" />
  <path
     style="fill:none;stroke:#ffffff;stroke-width:1px;stroke-linecap:round;stroke-linejoin:round;stroke-opacity:1"
     d="M 40.25,7.5 H 7.75"
     id="path978" />
  <path
     style="fill:none;stroke:#ffffff;stroke-width:1px;stroke-linecap:round;stroke-linejoin:round;stroke-opacity:1"
     d="m 22.630795,35.828171 c 4.489645,2.108215 8.882616,3.617656 13.226942,5.986787 0.232852,1.089796 -0.143167,2.064508 1.069523,2.714808 0.775771,0.416004 1.751555,-0.0312 2.102278,-0.744249 0.293337,-0.596377 0.102675,-1.296501 -0.167552,-1.583789 -0.75218,-0.79967 -1.277447,-0.699093 -1.78291,-0.802797 -0.284611,-0.05839 -0.56317,-0.224278 -0.814731,-0.380714 -5.604406,-3.485168 -10.045607,-5.885269 -13.63355,-5.190046 z"
     id="path982"
     sodipodi:nodetypes="ccsssssc" />
  <path
     style="fill:none;stroke:#ffffff;stroke-width:1px;stroke-linecap:round;stroke-linejoin:round;stroke-opacity:1"
     d="m 22.630795,43.919204 c 4.489645,-2.108215 8.882616,-3.617656 13.226942,-5.986787 0.232852,-1.089796 -0.143167,-2.064508 1.069523,-2.714808 0.775771,-0.416004 1.751555,0.0312 2.102278,0.744249 0.293337,0.596377 0.102675,1.296501 -0.167552,1.583789 -0.75218,0.79967 -1.277447,0.699093 -1.78291,0.802797 -0.284611,0.05839 -0.56317,0.224278 -0.814731,0.380714 -5.604406,3.485168 -10.045607,5.885269 -13.63355,5.190046 z"
     id="path984"
     sodipodi:nodetypes="ccsssssc" />
</svg>
