<svg width="48" height="48" xmlns="http://www.w3.org/2000/svg"><g stroke="#fff" stroke-miterlimit="8.5"><path d="M25.64 32.676A14.607 14.614 0 0 1 9.818 19.4 14.607 14.614 0 0 1 23.076 3.56a14.607 14.614 0 0 1 15.841 13.254 14.607 14.614 0 0 1-13.236 15.859" fill="none" stroke-dasharray="6 2" stroke-linecap="round" stroke-linejoin="round"/><path d="m14.372 28.769 9.875 15.737 10.236-15.737" fill="none" stroke-linecap="round" stroke-linejoin="round"/><path d="M26.003 18.234a2.838 2.838 0 0 1 2.83 2.83 2.838 2.838 0 0 1-2.83 2.83h-4.67v-11.32h4.67a2.838 2.838 0 0 1 2.83 2.83 2.838 2.838 0 0 1-2.83 2.83zm0 0h-4.669" style="fill:none;stroke:#fff;stroke-width:.8662;stroke-linecap:round;stroke-linejoin:round;stroke-miterlimit:10"/><path d="M24.336 23.951v1.425m0-14.351v1.489" fill="none" stroke-linecap="round" stroke-linejoin="round"/></g></svg>