<svg viewBox="0 0 48 48" xmlns="http://www.w3.org/2000/svg">
    <style>
        .b{fill:none;stroke:#FFFFFF;stroke-linecap:round;stroke-linejoin:round}
    </style>
    <path class="b" d="M40.5,5.5h-33c-1.1045694,0-2,0.8954306-2,2v33c0,1.1045685,0.8954306,2,2,2h33c1.1045685,0,2-0.8954315,2-2  v-33C42.5,6.3954306,41.6045685,5.5,40.5,5.5z"/>
    <polyline class="b" points="17.8299999,16.8500004 17.8299999,17.8299999 17.8299999,25.8299999  "/>
    <polyline class="b" points="30.1700001,12.0799999 30.1700001,17.8299999 30.1700001,30.1700001 30.1700001,36.4199982  "/>
    <polyline class="b" points="37.4799995,17.8299999 30.1700001,17.8299999 17.8299999,17.8299999 15.29,17.8299999  "/>
    <polyline class="b" points="23.2700005,30.1700001 30.1700001,30.1700001 32.6300011,30.1700001  "/>
    <path class="b" d="M25.1309395,37.8744774l-2.4666958-10.2225609c-0.0944614-0.39147-0.3979492-0.6984348-0.7883186-0.7973461  l-10.1660166-2.5758953c-2.4549847-0.6220512-2.6615725-4.0299168-0.2997074-4.9439697l24.3892517-9.438756  c2.1632729-0.8371973,4.2883759,1.2993355,3.4395866,3.458087l-9.7591095,24.8206577  C28.6625042,40.253685,25.6549435,40.0460663,25.1309395,37.8744774z"/>
</svg>
