<svg viewBox="0 0 48 48" xmlns="http://www.w3.org/2000/svg">
    <style>
        .a{fill:none;stroke:#FFFFFF;stroke-linecap:round;stroke-linejoin:round}
    </style>
    <circle class="a" cx="24" cy="24" r="21.5"/>
    <path class="a" d="M31.9308472,22.6595459v-1.2553101c0-1.4717407-1.1931152-2.664856-2.664917-2.664856h-0.3882446v3.920166 h-1.2553711c-1.4717407,0-2.664856,1.1931152-2.664856,2.664917v0.3883057h3.9202271v1.2553101 c0,1.4718018,1.1931152,2.664917,2.664856,2.664917h0.3883057v-3.9202271h1.2553101 c1.4718018,0,2.664917-1.1931152,2.664917-2.664917v-0.3883057H31.9308472z"/>
    <path class="a" d="M21.7717018,39.3600006c-0.724432,0-1.3117027-0.5872688-1.3117027-1.3117027v-4.3482971V16.0200005 c0-3.1200008-2.5299988-5.6600008-5.6599989-5.6600008h-0.29V32.388298c0,0.7244339,0.5872688,1.3117027,1.3117018,1.3117027 h4.6382971h6.2000008c3.1300011,0,5.6599998,2.5400009,5.6599998,5.6599998H21.7717018z"/>
</svg>
