<svg width="48" height="48" version="1.1" viewBox="0 0 48 48" xmlns="http://www.w3.org/2000/svg"><defs><style>.cls-1{fill:none;stroke:#fff;stroke-linecap:round;stroke-linejoin:round;}</style></defs><path class="cls-1" d="M40.01074,24A16.01148,16.01148,0,1,1,7.98779,24a7.98121,7.98121,0,0,0-4.416-7.1626A3.99983,3.99983,0,0,1,7.17041,9.69287,15.93978,15.93978,0,0,1,15.98779,24,8.01148,8.01148,0,1,0,23.999,15.98877a4,4,0,0,1,0-8,16.00765,16.00765,0,0,1,13.23117,7.00312"/><path class="cls-1" d="M28.75876,17.56381c-1.82-1.74882-.27533-4.82453.71269-5.57524"/><path class="cls-1" d="M31.17581,20.46963c-.92843-2.748,3.47752-6.32435,6.60917-5.29744,1.31179.43015,3.20071,4.3646,3.076,8.23039a2.5281,2.5281,0,0,1-.85024,1.646"/><path class="cls-1" d="M31.986,25.04856C32.57517,22.0447,39.0043,22.37724,40.01074,24"/><path class="cls-1" d="M30.87223,28.10538c1.9505-1.396,4.70393.75251,5.0551,2.24436"/><path class="cls-1" d="M27.90466,30.99222a3.50151,3.50151,0,0,1,3.562,3.41193"/><path class="cls-1" d="M23.2086,31.97294c2.1364.938,1.94952,3.623,1.71813,4.42645"/><path class="cls-1" d="M18.6087,29.91456a3.07009,3.07009,0,0,1-.38822,4.32331"/><path class="cls-1" d="M16.39988,26.53117a3.2892,3.2892,0,0,1-.89515,2.94028"/><path class="cls-1" d="M15.46451,19.82545a3.17546,3.17546,0,0,1-.89107,2.95334"/><circle class="cls-1" cx="4.50946" cy="14.20147" r="0.34807"/><circle class="cls-1" cx="6.13552" cy="11.93013" r="0.34807"/></svg>
