<svg xmlns="http://www.w3.org/2000/svg" xml:space="preserve" width="48" height="48"><path d="M40.5 5.5h-33a2 2 0 0 0-2 2v33a2 2 0 0 0 2 2h33a2 2 0 0 0 2-2v-33a2 2 0 0 0-2-2zm-6.196 17.944v-1.222m-15.412.3h2.322m-1.161-1.689v6.334c0 .633.422 1.055 1.055 1.055h.317m15.028-.422c.422.316.844.422 1.689.422h.422c.739 0 1.372-.633 1.372-1.372v0c0-.739-.633-1.372-1.372-1.372h-.95a1.397 1.397 0 0 1-1.372-1.372v0c0-.74.633-1.373 1.372-1.373h.422c.95 0 1.372.106 1.689.423M28.992 27.8c.422.316.844.422 1.688.422h.423c.739 0 1.372-.633 1.372-1.372v0c0-.739-.633-1.372-1.372-1.372h-.95a1.397 1.397 0 0 1-1.372-1.372v0c0-.74.633-1.373 1.372-1.373h.422c.95 0 1.372.106 1.689.423m-5.156 2.955v2.11m-4.222-5.699v3.483c0 1.161.95 2.111 2.111 2.111v0c1.161 0 2.111-.95 2.111-2.11v-3.484m-11.366 5.7v0a2.117 2.117 0 0 1-2.111-2.111v-1.372c0-1.161.95-2.111 2.11-2.111v0c1.162 0 2.112.95 2.112 2.11v1.373c0 1.161-.95 2.111-2.111 2.111zm-7.478-8.444v8.444h4.222" style="fill:none;stroke:#fff;stroke-linecap:round;stroke-linejoin:round"/></svg>