<?xml version="1.0" encoding="UTF-8" standalone="no"?>
<svg
   id="Layer_2"
   data-name="Layer 2"
   viewBox="0 0 48 48"
   version="1.1"
   xmlns="http://www.w3.org/2000/svg"
   xmlns:svg="http://www.w3.org/2000/svg">
  <defs
     id="defs">
    <style
       id="style2">.a{fill:none;stroke:#fff;stroke-linecap:round;stroke-linejoin:round;}</style>
  </defs>
  <path
     class="a"
     d="M15.63,7.15A10.12,10.12,0,0,0,7.77,23.66h0L24,42.71,40.07,23.85l.08-.09.08-.1h0A10.13,10.13,0,1,0,24,11.58a10.1,10.1,0,0,0-8.36-4.43Z"
     id="path1" />
  <path
     class="a"
     d="m 19.481097,26.5 c 1.660318,0 3.018764,-1.35 3.018764,-3 0,-1.65 -1.358446,-3 -3.018764,-3 h -3.018765 3.018765 c 1.660318,0 3.018764,-1.35 3.018764,-3 0,-1.65 -1.358446,-3 -3.018764,-3 m -4.980962,1.05 c 0.905632,-0.75 1.811259,-1.05 3.773456,-1.05 h 1.207506 m -4.980962,10.949752 c 0.905632,0.75 1.660321,1.05 3.773456,1.05 h 1.207506"
     id="path2" />
  <path
     class="a"
     d="M 33.150031,15.981454 C 32.550026,15.09256 31.500017,14.5 29.850002,14.5 H 29.55 c -2.25002,0 -4.050035,1.777787 -4.050035,4 v 4 m 8.10007,0 A 4.0500351,4 0 0 1 29.55,26.500035 4.0500351,4 0 0 1 25.5,22.500011 4.0500351,4 0 0 1 29.55,18.5 a 4.0500351,4 0 0 1 4.050035,4 z"
     id="path3" />
</svg>
