<?xml version="1.0" encoding="UTF-8" standalone="no"?>
<svg
   version="1.1"
   id="Layer_1"
   x="0px"
   y="0px"
   width="48"
   viewBox="0 0 48 48.000002"
   enable-background="new 0 0 900 900"
   xml:space="preserve"
   sodipodi:docname="lpu_arcticon.svg"
   inkscape:version="1.2.2 (b0a8486541, 2022-12-01)"
   height="48"
   xmlns:inkscape="http://www.inkscape.org/namespaces/inkscape"
   xmlns:sodipodi="http://sodipodi.sourceforge.net/DTD/sodipodi-0.dtd"
   xmlns="http://www.w3.org/2000/svg"
   xmlns:svg="http://www.w3.org/2000/svg"><defs
   id="defs2850" /><sodipodi:namedview
   id="namedview2848"
   pagecolor="#505050"
   bordercolor="#eeeeee"
   borderopacity="1"
   inkscape:showpageshadow="0"
   inkscape:pageopacity="0"
   inkscape:pagecheckerboard="false"
   inkscape:deskcolor="#505050"
   showgrid="false"
   inkscape:zoom="16"
   inkscape:cx="19.8125"
   inkscape:cy="22.875"
   inkscape:window-width="1920"
   inkscape:window-height="1131"
   inkscape:window-x="0"
   inkscape:window-y="0"
   inkscape:window-maximized="1"
   inkscape:current-layer="Layer_1" />
























































<path
   fill="#F48634"
   opacity="1"
   stroke="none"
   d="m 36.547347,4.1616539 c 0.965599,0.71172 1.97562,1.3711314 2.888077,2.1454414 2.300395,1.952119 4.110141,4.3080307 5.493105,6.9870367 0.284503,0.551125 0.503451,1.136047 0.750222,1.732318 -0.002,0.02698 -0.0039,0.02855 -0.02257,0.03297 -0.03561,0.02306 -0.05249,0.04169 -0.09153,0.06877 -4.456087,3.396555 -8.891169,6.783338 -13.323905,10.173181 -5.491732,4.199705 -10.981924,8.401431 -16.471968,12.603355 -2.023604,1.548806 -4.044872,3.100644 -6.0672202,4.651099 C 9.138918,42.102501 8.5737304,41.652285 8.0160967,41.192877 7.9217206,41.115081 7.8599542,40.997857 7.8022886,40.859521 8.3243497,40.180155 8.827928,39.54064 9.3300151,38.899976 14.874988,31.824714 20.420216,24.749649 25.964364,17.673749 29.492865,13.170395 33.019699,8.6657349 36.547278,4.1616637 Z"
   id="path2795"
   style="fill:#f48634;fill-opacity:0;stroke:#ffffff;stroke-width:0.981037;stroke-linecap:round;stroke-linejoin:round;stroke-dasharray:none;stroke-opacity:1;paint-order:stroke fill markers" />
<path
   fill="#F48634"
   opacity="1"
   stroke="none"
   d="M 6.9309278,40.056967 C 6.3498963,39.391503 5.7632238,38.730787 5.1925816,38.056532 5.0789279,37.922229 5.0265305,37.736117 4.9524521,37.520663 6.5376382,31.646451 8.1172323,25.825735 9.6945994,20.00442 10.957622,15.343187 12.219005,10.681512 13.478731,6.0193876 13.785865,4.8827134 14.083591,3.7435081 14.385645,2.6054701 15.336755,2.2330993 16.271,1.8077432 17.242329,1.4989825 c 2.283824,-0.72595477 4.64003,-1.0314093 7.033035,-1.00712874 1.627803,0.0164813 3.242087,0.20112165 4.832619,0.56220074 0.06651,0.015108 0.127094,0.056017 0.186594,0.1277796 -1.940411,3.403322 -3.87787,6.7632141 -5.813385,10.1242139 -3.447585,5.986668 -6.894247,11.973866 -10.340832,17.961103 -2.070252,3.59635 -4.1396412,7.193191 -6.2094322,10.789816 z"
   id="path2797"
   style="fill:#f48634;fill-opacity:0;stroke:#ffffff;stroke-width:0.981037;stroke-linecap:round;stroke-linejoin:round;stroke-dasharray:none;stroke-opacity:1;paint-order:stroke fill markers" />
<path
   fill="#F48634"
   opacity="1"
   stroke="none"
   d="m 47.458066,22.478253 c 0.327874,5.100235 -0.908385,9.800562 -3.620248,14.12116 -0.205696,0.327725 -0.448954,0.631884 -0.717308,0.965063 -4.430078,1.173149 -8.817698,2.327884 -13.205081,3.483462 -3.86386,1.017705 -7.727721,2.035479 -11.591081,3.055056 -1.434861,0.378679 -2.868318,0.762617 -4.302415,1.14415 -1.062526,-0.60102 -2.125504,-1.201246 -3.18598,-1.805886 -0.04385,-0.02502 -0.06406,-0.09134 -0.06749,-0.171191 2.788197,-1.595788 5.549466,-3.157543 8.309086,-4.722203 7.817476,-4.432417 15.634687,-8.865314 23.451006,-13.299771 1.528011,-0.866891 3.051558,-1.741619 4.593844,-2.613355 0.03973,-0.0088 0.05445,-0.02414 0.08486,-0.05386 0.0995,-0.03846 0.175175,-0.07054 0.250842,-0.102655 z"
   id="path2799"
   style="fill:#f48634;fill-opacity:0;stroke:#ffffff;stroke-width:0.981037;stroke-linecap:round;stroke-linejoin:round;stroke-dasharray:none;stroke-opacity:1;paint-order:stroke fill markers" />



<path
   fill="#F38635"
   opacity="1"
   stroke="none"
   d="M 7.429179,7.4196558 C 7.0293458,10.728445 6.6013372,14.037137 6.1786065,17.346505 5.8141497,20.199743 5.4585025,23.054099 5.0937613,25.907298 4.7499456,28.59684 4.398723,31.285431 4.0521702,33.974609 3.9724115,34.594132 3.8982154,35.214401 3.8213213,35.864639 3.6083961,35.56202 3.3697382,35.242634 3.1869997,34.893966 1.9671534,32.566513 1.151604,30.105405 0.76212084,27.503646 0.49392377,25.711955 0.41505787,23.914094 0.56722718,22.109237 0.78994316,19.467745 1.4266782,16.929174 2.5059903,14.505198 3.6398679,11.958671 5.1758253,9.6826839 7.1169234,7.6809736 7.2066886,7.5883641 7.3075986,7.506644 7.429179,7.4196558 Z"
   id="path2807"
   style="fill:#f38635;fill-opacity:0;stroke:#ffffff;stroke-width:0.981037;stroke-linecap:round;stroke-linejoin:round;stroke-dasharray:none;stroke-opacity:1;paint-order:stroke fill markers" />

<path
   fill="#F08536"
   opacity="1"
   stroke="none"
   d="m 17.217312,46.404812 c 1.511794,-0.202132 3.021018,-0.374008 4.529036,-0.555804 3.402938,-0.410238 6.805051,-0.827423 10.208019,-1.237495 1.262364,-0.152119 2.52623,-0.291701 3.789183,-0.439003 0.08055,-0.0098 0.159086,-0.0361 0.26651,-0.05945 -0.327089,0.219409 -0.669766,0.46659 -1.039159,0.663778 -2.565951,1.369718 -5.299378,2.225297 -8.184895,2.566412 -3.102573,0.366779 -6.165265,0.129105 -9.173648,-0.730674 -0.138739,-0.03964 -0.265725,-0.120421 -0.395046,-0.207773 z"
   id="path2811"
   style="fill:#f08536;fill-opacity:0;stroke:#ffffff;stroke-width:0.981037;stroke-linecap:round;stroke-linejoin:round;stroke-dasharray:none;stroke-opacity:1;paint-order:stroke fill markers" />

















</svg>
