<?xml version="1.0" encoding="UTF-8" standalone="no"?>
<svg
   version="1.1"
   id="Layer_1"
   x="0px"
   y="0px"
   width="48"
   viewBox="0 0 48 48.000002"
   enable-background="new 0 0 900 900"
   xml:space="preserve"
   sodipodi:docname="lpu_touch.svg"
   inkscape:version="1.2.2 (b0a8486541, 2022-12-01)"
   height="48"
   xmlns:inkscape="http://www.inkscape.org/namespaces/inkscape"
   xmlns:sodipodi="http://sodipodi.sourceforge.net/DTD/sodipodi-0.dtd"
   xmlns="http://www.w3.org/2000/svg"
   xmlns:svg="http://www.w3.org/2000/svg"><defs
   id="defs2850" /><sodipodi:namedview
   id="namedview2848"
   pagecolor="#505050"
   bordercolor="#eeeeee"
   borderopacity="1"
   inkscape:showpageshadow="0"
   inkscape:pageopacity="0"
   inkscape:pagecheckerboard="false"
   inkscape:deskcolor="#505050"
   showgrid="false"
   inkscape:zoom="16"
   inkscape:cx="19.875"
   inkscape:cy="22.875"
   inkscape:window-width="1920"
   inkscape:window-height="1131"
   inkscape:window-x="0"
   inkscape:window-y="0"
   inkscape:window-maximized="1"
   inkscape:current-layer="Layer_1" />
























































<path
   fill="#F48634"
   opacity="1"
   stroke="none"
   d="m 35.501736,5.814854 c 0.885133,0.6524108 1.810985,1.2568721 2.647404,1.9666572 2.108696,1.7894441 3.767629,3.9490338 5.035346,6.4047918 0.260795,0.505199 0.461497,1.041378 0.687704,1.58796 -0.0018,0.02473 -0.0036,0.02618 -0.02069,0.03022 -0.03264,0.02114 -0.04811,0.03822 -0.0839,0.06304 -4.084746,3.113513 -8.150238,6.218068 -12.21358,9.325428 -5.034087,3.849735 -10.066764,7.701322 -15.099304,11.55309 -1.854971,1.419741 -3.7078,2.842261 -5.561618,4.263514 C 10.377346,40.594009 9.8592578,40.18131 9.3480942,39.760186 9.261582,39.688869 9.2049632,39.581417 9.1521031,39.45461 9.6306595,38.831856 10.092272,38.245634 10.552519,37.658358 15.635411,31.172692 20.718537,24.687207 25.800673,18.200957 c 3.234459,-4.12808 6.46739,-8.2573562 9.701005,-12.386094 z"
   id="path2795"
   style="fill:#f48634;fill-opacity:0;stroke:#ffffff;stroke-width:0.899285;stroke-linecap:round;stroke-linejoin:round;stroke-dasharray:none;stroke-opacity:1;paint-order:stroke fill markers" />
<path
   fill="#F48634"
   opacity="1"
   stroke="none"
   d="M 8.3533507,38.718934 C 7.8207384,38.108924 7.2829552,37.503267 6.7598666,36.885199 6.655684,36.762088 6.607653,36.591485 6.5397479,36.393985 7.9928352,31.009284 9.4407963,25.673621 10.886716,20.337409 12.044487,16.064606 13.200755,11.791399 14.355504,7.5177788 14.637044,6.475826 14.909959,5.4315532 15.186842,4.3883503 16.058693,4.04701 16.915084,3.6570998 17.805468,3.3740687 19.898974,2.7086093 22.05883,2.428609 24.252418,2.4508661 c 1.492153,0.015108 2.971913,0.1843618 4.429901,0.5153514 0.06097,0.013849 0.116503,0.051349 0.171044,0.1171315 -1.77871,3.1197159 -3.554714,6.1996209 -5.328936,9.280542 -3.160286,5.487786 -6.319727,10.976057 -9.479097,16.464365 -1.89773,3.296659 -3.794671,6.593767 -5.6919793,9.890678 z"
   id="path2797"
   style="fill:#f48634;fill-opacity:0;stroke:#ffffff;stroke-width:0.899285;stroke-linecap:round;stroke-linejoin:round;stroke-dasharray:none;stroke-opacity:1;paint-order:stroke fill markers" />
<path
   fill="#F48634"
   opacity="1"
   stroke="none"
   d="m 45.503229,22.605092 c 0.300551,4.675221 -0.832687,8.98386 -3.318561,12.944414 -0.188554,0.300414 -0.411541,0.579227 -0.657532,0.884641 -4.060905,1.075388 -8.08289,2.133897 -12.104658,3.193178 -3.541872,0.932897 -7.083745,1.865859 -10.625158,2.800471 -1.315289,0.347124 -2.629292,0.699067 -3.943881,1.048806 -0.973983,-0.550936 -1.948379,-1.101143 -2.920481,-1.655398 -0.0402,-0.02293 -0.05872,-0.08373 -0.06187,-0.156925 2.555848,-1.462808 5.087011,-2.894418 7.616663,-4.328691 7.16602,-4.063054 14.331797,-8.126549 21.496757,-12.191473 1.400676,-0.794651 2.797261,-1.596486 4.211023,-2.395579 0.03642,-0.0081 0.04992,-0.02213 0.07779,-0.04937 0.09121,-0.03525 0.160578,-0.06466 0.229939,-0.0941 z"
   id="path2799"
   style="fill:#f48634;fill-opacity:0;stroke:#ffffff;stroke-width:0.899285;stroke-linecap:round;stroke-linejoin:round;stroke-dasharray:none;stroke-opacity:1;paint-order:stroke fill markers" />



<path
   fill="#F38635"
   opacity="1"
   stroke="none"
   d="M 8.8100809,8.8013596 C 8.4435671,11.83442 8.0512259,14.867392 7.6637228,17.900983 7.3296373,20.516455 7.0036274,23.132952 6.6692813,25.748387 6.3541169,28.213803 6.0321628,30.678349 5.7144895,33.143431 5.6413773,33.711329 5.5733642,34.279909 5.5028779,34.875962 5.3076965,34.59856 5.0889267,34.305789 4.9214165,33.986176 3.8032239,31.852675 3.0556369,29.596657 2.6986107,27.211708 2.4527634,25.569322 2.3804696,23.921281 2.5199582,22.266827 2.7241145,19.845456 3.3077883,17.51843 4.2971578,15.296449 5.3365457,12.962129 6.7445066,10.875805 8.5238466,9.0409013 8.6061319,8.9560089 8.6986322,8.8810989 8.8100809,8.8013596 Z"
   id="path2807"
   style="fill:#f38635;fill-opacity:0;stroke:#ffffff;stroke-width:0.899285;stroke-linecap:round;stroke-linejoin:round;stroke-dasharray:none;stroke-opacity:1;paint-order:stroke fill markers" />

<path
   fill="#F08536"
   opacity="1"
   stroke="none"
   d="m 17.782536,44.5378 c 1.385812,-0.185289 2.769268,-0.342842 4.151617,-0.509488 3.11936,-0.376053 6.237964,-0.758472 9.357351,-1.134373 1.157168,-0.139442 2.315711,-0.267392 3.473418,-0.402419 0.07384,-0.009 0.145829,-0.03309 0.244301,-0.05449 -0.299831,0.201125 -0.613953,0.427709 -0.952562,0.608464 -2.352122,1.255577 -4.857764,2.039858 -7.502822,2.352548 -2.844024,0.336214 -5.651492,0.118346 -8.409177,-0.669786 -0.127177,-0.03634 -0.243581,-0.110386 -0.362126,-0.190458 z"
   id="path2811"
   style="fill:#f08536;fill-opacity:0;stroke:#ffffff;stroke-width:0.899285;stroke-linecap:round;stroke-linejoin:round;stroke-dasharray:none;stroke-opacity:1;paint-order:stroke fill markers" />

















</svg>
