<svg viewBox="0 0 48 48" xmlns="http://www.w3.org/2000/svg"><style>.a{fill:none;paint-order:normal;stroke-linejoin:round;stroke:#fff;}</style><defs><style>  .a{fill:none;stroke:#fff;stroke-linecap:round;stroke-linejoin:round;}</style></defs><g class="a"><g class="a"><polyline class="st0" points="39.5 29 36.5 19.6 33.3 29" class="a"/><line class="st0" x1="34.7" y1="25.8" x2="38.2" y2="25.8" class="a"/><polyline class="st0" points="9.8 19.6 9.8 29 14.4 29" class="a"/></g><path class="st0" d="M31.5 25.9L31.5 25.9C31.5 27.7 30.1 29.1 28.4 29.1L28.4 29.1C26.6 29.1 25.2 27.7 25.2 25.9L25.2 22.7C25.2 21 26.6 19.6 28.4 19.6L28.4 19.6C30.1 19.6 31.4 21 31.4 22.7L31.4 22.7" class="a"/><path class="st0" d="M16.5 19.6L16.5 25.8C16.5 27.6 17.9 29 19.5 29 21.2 29 22.6 27.6 22.6 25.8L22.6 19.6" class="a"/></g></svg>
