<svg xmlns="http://www.w3.org/2000/svg" viewBox="0 0 48 48"><defs><style>.a{fill:#fff;}.b{fill:none;stroke:#fff;stroke-linecap:round;stroke-linejoin:round;}</style></defs><circle class="a" cx="29.8258" cy="18.1669" r="0.75"/><line class="b" x1="29.8262" y1="21.5837" x2="29.8262" y2="29.0375"/><path class="b" d="M8.5605,17.7436v9.8822a1.3338,1.3338,0,0,0,1.4117,1.4117h.4236"/><path class="b" d="M26.9893,27.6258a2.7328,2.7328,0,0,1-2.4,1.4117h0a2.8317,2.8317,0,0,1-2.8235-2.8234V24.3788a2.8318,2.8318,0,0,1,2.8235-2.8235h0a2.7327,2.7327,0,0,1,2.4,1.4118"/><path class="b" d="M18.3393,26.2142a2.8319,2.8319,0,0,1-2.8236,2.8234h0a2.8318,2.8318,0,0,1-2.8234-2.8234V21.5555"/><path class="b" d="M19.4686,29.0376a1.2143,1.2143,0,0,1-1.1293-1.1293V21.5555"/><path class="b" d="M38.31,26.2142a2.8318,2.8318,0,0,1-2.8234,2.8234h0a2.8318,2.8318,0,0,1-2.8235-2.8234V24.3789a2.8318,2.8318,0,0,1,2.8235-2.8234h0A2.8318,2.8318,0,0,1,38.31,24.3789"/><path class="b" d="M39.44,29.0376A1.2145,1.2145,0,0,1,38.31,27.9083V21.5555"/><path class="b" d="M40.5,42.5H7.5a2.0059,2.0059,0,0,1-2-2V7.5a2.0059,2.0059,0,0,1,2-2h33a2.0059,2.0059,0,0,1,2,2v33A2.0059,2.0059,0,0,1,40.5,42.5Z"/></svg>