<?xml version="1.0" encoding="UTF-8" standalone="no"?>
<svg
   xmlns:dc="http://purl.org/dc/elements/1.1/"
   xmlns:cc="http://creativecommons.org/ns#"
   xmlns:rdf="http://www.w3.org/1999/02/22-rdf-syntax-ns#"
   xmlns:svg="http://www.w3.org/2000/svg"
   xmlns="http://www.w3.org/2000/svg"
   viewBox="0 0 48 48"
   version="1.1"
   id="svg881">
  <metadata
     id="metadata885">
    <rdf:RDF>
      <cc:Work
         rdf:about="">
        <dc:format>image/svg+xml</dc:format>
        <dc:type
           rdf:resource="http://purl.org/dc/dcmitype/StillImage" />
        <dc:title></dc:title>
      </cc:Work>
    </rdf:RDF>
  </metadata>
  <path
     id="path1061"
     style="fill:none;stroke:#ffffff;stroke-width:1px;stroke-linecap:round;stroke-linejoin:round;stroke-opacity:1"
     d="m 24,14.329771 h -0.666026 c -0.39305,0.01429 -0.689355,0.271454 -0.844519,0.661264 L 15.71351,30.48038 c -0.03725,0.254653 0.08374,0.605369 0.464624,0.613569 h 1.789114 c 0.226927,0.03736 0.504843,-0.198202 0.576003,-0.50935 L 24,17.620003 29.456749,30.584599 c 0.07116,0.311148 0.349076,0.546706 0.576003,0.50935 h 1.789114 c 0.380883,-0.0082 0.50187,-0.358916 0.464624,-0.613569 L 25.510545,14.991035 c -0.155164,-0.38981 -0.451469,-0.646973 -0.844519,-0.661264 H 24 M 40.240715,24 A 16.240715,16.240715 0 0 1 24,40.240715 16.240715,16.240715 0 0 1 7.759285,24 16.240715,16.240715 0 0 1 24,7.759285 16.240715,16.240715 0 0 1 40.240715,24 Z" />
</svg>
