<svg xmlns="http://www.w3.org/2000/svg" viewBox="0 0 48 48"><defs><style>.a{fill:none;stroke:#fff;stroke-linecap:round;stroke-linejoin:round;}</style></defs><path class="a" d="M7.84007,22.25635,8.89872,11.79443s1.24547,7.286,2.42866,8.46917c.62273-.18682,2.8023-.9341,2.8023-.9341,1.24547-3.23821,2.42866-13.0774,2.42866-13.0774s1.05864,9.90146,2.11729,12.081c.685-.12455,3.36276-.37364,3.36276-.37364.99637-2.55321,2.055-14.75878,2.055-14.75878s1.30774,12.1433,2.24184,14.75878c.74728.06227,3.17594.43591,3.17594.43591,1.12092-2.42866,2.36639-12.1433,2.36639-12.1433s1.12091,11.08465,2.17956,13.20195c.87183.18682,2.74.87182,2.74.87182,1.37-1.6191,2.5532-8.28235,2.5532-8.28235l.80956,10.2751s-13.04626,4.546-15.84856,22.48067C21.7893,26.958,7.84007,22.25635,7.84007,22.25635Z"/></svg>