<svg xmlns="http://www.w3.org/2000/svg" xml:space="preserve" id="svg990" width="48" height="48" version="1.1"><defs id="defs987"><style id="style1174">.a{fill:none;stroke:#fff;stroke-linecap:round;stroke-linejoin:round}</style></defs><path id="path20135-0-7-5" d="M34.368 20.999v1.206m-1.549-1.206v1.206m-1.549-1.206v1.206m-1.55-1.206v1.206m-1.548-1.206v1.206m-1.55-1.206v1.206m-1.549-1.206v1.206m4.583-10.15c-.988.825-1.46 1.52-3.08 2.468-3.958 2.32-3.04 5.049-3.025 7.682m12.26 0c.015-2.633.933-5.362-3.026-7.682-1.619-.948-2.092-1.643-3.129-2.468V10.65m1.474-1.754a1.441 1.441 0 1 1-1.44-1.44m2.517-3.37.595 1.206 1.33.193-.962.939.227 1.325-1.19-.626-1.19.626.228-1.325-.963-.939 1.33-.193Zm-8.562 26.407v-6.68 0h12.158v8.755m-8.435 1.055v-3.18c0-1.222.984-2.206 2.207-2.206v0h.27c1.223 0 2.207.984 2.207 2.207v3.244m11.396-9.584a14.326 14.326 0 0 1-13.58 9.764m-6.427-1.519c-4.684-2.356-7.899-7.206-7.899-12.807 0-7.092 5.19-13.117 12.204-14.168m15.68 18.723a19.435 19.435 0 0 1 .004.37v0a19.435 19.435 0 0 1-19.434 19.435A19.435 19.435 0 0 1 4.56 24.468 19.435 19.435 0 0 1 23.996 5.034a19.435 19.435 0 0 1 3.753.365" style="display:inline;fill:none;stroke:#fff;stroke-width:1;stroke-linecap:round;stroke-linejoin:round;stroke-dasharray:none;stroke-opacity:1;stop-color:#000"/></svg>