<svg xmlns="http://www.w3.org/2000/svg" xml:space="preserve" id="svg990" width="48" height="48" version="1.1"><defs id="defs987"><style id="style1174">.a{fill:none;stroke:#fff;stroke-linecap:round;stroke-linejoin:round}</style></defs><path id="path670" d="M39.056 39.224a2.663 2.092 14.423 0 1-3.1 1.363 2.663 2.092 14.423 0 1-2.058-2.69 2.663 2.092 14.423 0 1 3.1-1.362 2.663 2.092 14.423 0 1 2.058 2.689zm-2.957-4.273c-.27-.074-.746.086-.538-1.093l2.48-14.097c.093-.53.238-1.226.998-1.026L43.08 19.8c.756.199.521.794.386 1.25l-4.11 13.857c-.192.65-.38.835-1.123.631zm-14.993 5.16c0 .256.168.462.425.462h4.066c.256 0 .602-.207.602-.463v-5.914c0-.688.403-.75.896-.718 3.635.24 7.569-1.077 7.769-5.506.162-3.582-2.453-5.744-7.13-5.744h-5.61c-.736 0-1.128.334-1.017.85V40.11zm6.598-15.135-2.802 4.852h5.603zM4.536 22.69c0-.256.167-.463.424-.463h4.066c.256 0 .417.207.417.464v8.268c0 1.426 1.115 2.574 2.5 2.574 1.383 0 2.498-1.148 2.498-2.574V19.821c0-.257.168-.463.424-.463h4.066c.257 0 .417.207.417.463v12.05a6.004 6.004 0 0 1-6.017 6.018h-2.778a6.004 6.004 0 0 1-6.017-6.017V22.69Zm2.22-5.453-.092-7.455 3.246 3.923 3.061-3.923.092 5.938h1.9l2.87-5.982 2.87 5.982h1.895V9.983l5.17 4.605V7.432m6.834 2.59c-2.157-1.222-5.198-.531-5.198 2.405s3.041 3.627 5.198 2.404v-1.865m1.387 2.609 2.747-5.637 2.747 5.637" style="fill:none;stroke:#fff;stroke-linecap:round;stroke-linejoin:round;stop-color:#000"/></svg>