<svg xmlns="http://www.w3.org/2000/svg" viewBox="0 0 48 48"><defs><style>.a{fill:none;stroke:#fff;stroke-linecap:round;stroke-linejoin:round;}</style></defs><path class="a" d="M40.5,5.5H7.5a2,2,0,0,0-2,2v33a2,2,0,0,0,2,2h33a2,2,0,0,0,2-2V7.5A2,2,0,0,0,40.5,5.5Z"/><circle class="a" cx="12.71" cy="34.09" r="2.21"/><path class="a" d="M12.71,31.88l0-19.11a1.38,1.38,0,0,1,2.62-.22L22.7,33.8a1.34,1.34,0,0,0,2.6,0l7.35-21.25a1.38,1.38,0,0,1,2.62.22l0,19.11"/><circle class="a" cx="35.29" cy="34.09" r="2.21"/></svg>