<svg viewBox="0 0 48 48" xmlns="http://www.w3.org/2000/svg">
    <style>
        .a{fill:none;stroke:#FFFFFF;stroke-linecap:round;stroke-linejoin:round}
    </style>
    <path class="a" d="M14.8805342,12.6031952c2.7051706-1.8838472,5.7667418-2.9648972,8.8535089-2.9648972  c5.1592903,0,9.5900536,2.4894428,12.7641678,6.4407139"/>
    <path class="a" d="M7.2984424,22.2624855c0.5764971-1.4110107,1.2822328-2.7407379,2.0935292-3.9692898"/>
    <path class="a" d="M32.9929276,16.564476c0.0110359-0.4887104-0.388031-0.8877802-0.8767395-0.87675l-4.7247581,0.1066408  c-0.9814453-0.0001831-1.8999748,0.3418636-2.5803337,1.0222225c-1.5776367,1.5775757-1.2758179,4.4371948,0.6740723,6.387085  s4.8094482,2.251709,6.387085,0.6740723c0.6803589-0.6803589,1.0140266-1.6009827,1.0138435-2.5823669L32.9929276,16.564476z"/>
    <path class="a" d="M29.9646473,10.9354773l-2.888649-7.5661192c-0.2247295-0.5886219-1.0266705-0.6644595-1.3577576-0.1283994  l-4.0343666,6.5320129"/>
    <path class="a" d="M36.2185707,15.7244129v-3.2209272c0-0.1599884-0.1504402-0.2773218-0.3056107-0.2383528l-2.5854187,0.6492853"/>
    <path class="a" d="M16.7061157,13.3125c-0.1621704-0.1621704-0.3678589-0.2648926-0.5905762-0.3413696L7.947998,10.6380005  c-0.3478394-0.0986328-0.6688843,0.2227173-0.5700684,0.5704956l2.3555908,8.2514038  c0.0761108,0.1900024,0.1737804,0.3664112,0.3183594,0.5068359c0.477375,0.4636612,3.3047485,0.3255615,5.1422729-1.5119629  S17.7086182,14.3150024,16.7061157,13.3125z"/>
    <path class="a" d="M45.3952637,16.104187c-1.0574951-0.1119385-9.207283,0.0000038-9.207283,0.0000038  c-0.1002808,0.0043945-0.1975021,0.0278893-0.2815475,0.0724449c-0.7875977,0.4176636-0.50177,2.4992676,0.6384888,4.6494141  c1.1402588,2.1500854,2.703064,3.5544434,3.4906616,3.1367798c0.0845337-0.0447998,0.2159424-0.1890259,0.2159424-0.1890259  c2.2836914-2.5806885,4.5718384-6.1077881,5.3513794-7.2116089C45.7327881,16.3782959,45.6190796,16.1278687,45.3952637,16.104187z"/>
    <path class="a" d="M7.8470507,21.0244446l-2.5147243-4.7300453c-0.1456976-0.2740479,0.0529227-0.6045895,0.3632936-0.6045895  h2.956284"/>
    <path class="a" d="M40.6328659,23.3371773c0.2871971,0.3011208,1.3798752,6.4774132-6.2711639,6.2053757  c-7.180851-0.2553196-16.3085098-5.3297863-20.1063824-6.5638294c-3.2077084-1.0422802-7.4042559-1.8510647-10.0851068,1.1702118  c-1.4994154,1.6898174-3.2321887,6.8665962,2.93888,9.1701908"/>
    <polyline class="a" points="34.0587502,13.5555668 31.3696804,14.319149 22.3297863,13.3776598 16.9857597,11.3377771"/>
    <polyline class="a" points="22.3297863,13.3776598 20.8776588,20.3430843 15.7696819,23.5451813"/>
    <line class="a" x1="20.8776588" x2="22.2536106" y1="20.3430843" y2="26.3103161"/>
    <polyline class="a" points="32.9474258,18.5793915 35.1755333,24.5957451 32.6678886,29.4012375"/>
    <line class="a" x1="31.3696804" x2="31.8764515" y1="14.319149" y2="15.6875353"/>
    <line class="a" x1="35.1755333" x2="37.2685852" y1="24.5957451" y2="29.265152"/>
    <path class="a" d="M10.9620132,38.583168c3.4784231,4.4752769,11.6322117,6.6016388,18.1018162,4.9912987  c4.5834675-1.1408615,8.9033413-3.8821487,9.6399441-7.9581718"/>
    <path class="a" d="M26.5229816,35.0218925c-0.356205,1.6233101-1.8027077,2.8382339-3.5329704,2.8382339  c-1.9976254,0-3.6170216-1.6193962-3.6170216-3.6170197c0-0.494503,0.0992336-0.9658241,0.2788734-1.3951454"/>
    <path class="a" d="M15.6403694,42.1658745c1.42346,0.1825294,3.1459961-0.0173721,4.6624947-0.9799728  c1.348732-0.8561134,2.1466045-1.8454742,2.3495407-3.3423309"/>
    <path class="a" d="M23.7975426,44.0974312c2.7051163-0.6160469,4.6498413-2.1124916,5.7130966-3.5601959  c1.6123734-2.1953812,1.7342911-3.2893181,1.8634472-4.4982109"/>
    <path class="a" d="M9.8041477,28.9829922c-0.3142719,0.6987495-0.5011063,1.5735378-0.5011063,2.5228844  c0,2.288763,1.085948,4.1441746,2.4255323,4.1441746s2.4255323-1.8554115,2.4255323-4.1441746  c0-0.2877426-0.0171642-0.568634-0.0498381-0.8398514"/>
    <path class="a" d="M7.5790825,28.0414963c-0.2243738,0.8502445-0.3798504,1.7447948-0.4726996,2.6978645  c-0.5425529,5.569149,2.3219275,8.0265961,5.1861701,8.0265961c2.6826544,0,4.8895779-2.733345,5.1586266-7.114584"/>
    <path class="a" d="M40.6328659,23.3371773c1.2288361,0.2692051,4.4841537,3.7601566,3.813942,6.6202698  c-0.5372772,2.29282-1.5168457,4.1197281-6.7446785,5.9787216c-5.8936195,2.0957451-20.3671722-4.4627647-25.9735565-6.5319138  c-1.7709427-0.6536026-7.4626164-3.6436157-8.1136684,1.4557266"/>
</svg>