<?xml version="1.0" encoding="UTF-8"?>
<svg id="a" version="1.1" viewBox="0 0 48 48" xml:space="preserve" xmlns="http://www.w3.org/2000/svg"><defs><style>.b{fill:none;stroke:#fff;stroke-linecap:round;stroke-linejoin:round;}</style></defs><circle class="b" cx="24" cy="24" r="21.5"/><g transform="translate(-234.82 -38)">
		<polyline class="st5" points="268 59.3 266 64.7 264 59.3" fill="none" stroke="#fff" stroke-linecap="round" stroke-linejoin="round" stroke-miterlimit="10"/>
	</g><g transform="translate(-160.35 -38)">
		<path class="st5" d="m172 61.3c0-1.1 0.9-2 2-2v0c1.1 0 2 0.9 2 2v3.3" fill="none" stroke="#fff" stroke-linecap="round" stroke-linejoin="round" stroke-miterlimit="10"/>
		<line class="st5" x1="172" x2="172" y1="59.3" y2="64.7" fill="none" stroke="#fff" stroke-linecap="round" stroke-linejoin="round" stroke-miterlimit="10"/>
		
			<path class="st5" d="m176 61.3c0-1.1 0.9-2 2-2v0c1.1 0 2 0.9 2 2v3.3" fill="none" stroke="#fff" stroke-linecap="round" stroke-linejoin="round" stroke-miterlimit="10"/>
		
	</g><g transform="translate(-99.853 -38)">
		<circle class="st6" cx="136" cy="56.9" r=".7" fill="#fff"/>
		<line class="st5" x1="136" x2="136" y1="59.3" y2="64.7" fill="none" stroke="#fff" stroke-linecap="round" stroke-linejoin="round" stroke-miterlimit="10"/>
	</g><g transform="translate(-31.582 -38)">
		
			<path class="st5" d="m58 62.7c0 1.1-0.9 2-2 2v0c-1.1 0-2-0.9-2-2v-1.3c0-1.1 0.9-2 2-2v0c1.1 0 2 0.9 2 2" fill="none" stroke="#fff" stroke-linecap="round" stroke-linejoin="round" stroke-miterlimit="10"/>
		
		<line class="st5" x1="58" x2="58" y1="64.7" y2="59.3" fill="none" stroke="#fff" stroke-linecap="round" stroke-linejoin="round" stroke-miterlimit="10"/>
	</g></svg>
