<svg viewBox="0 0 48 48" xmlns="http://www.w3.org/2000/svg">
    <style>
        .a{fill:none;stroke:#FFFFFF;stroke-linecap:round;stroke-linejoin:round}
    </style>
    <path class="a" d="M41.5813866,27.521162c0,9.8315563-7.9698639,17.8014202-17.8013573,17.8014202 c-9.8315544,0-17.8014202-7.9698639-17.8014202-17.8014202c0-2.787466,0.6439838-5.4340363,1.7911787-7.7786655 c0-0.0100727,0.0100732-0.03022,0.0100732-0.0402927c1.278018-3.8440666,9.7611065-14.7724514,20.6492615-16.7447567 c-0.5232944,2.5962055-2.384922,5.1622534,4.568573,9.3384161C38.1398659,15.425437,41.5813866,21.070816,41.5813866,27.521162z"/>
    <path class="a" d="M6.5320463,23.1337013c3.8641853,2.2842979,9.7510309,2.3044243,15.2554827-0.3823929 c5.3736343-2.6163769,8.9459934-7.1044664,9.6604652-11.4617386"/>
    <path class="a" d="M36.9847412,15.5923223C38.5391846,29.5016422,24.4081879,46.5016632,8.402791,36.4934578"/>
</svg>
