<?xml version="1.0" encoding="UTF-8" standalone="no"?>
<!-- Created with Inkscape (http://www.inkscape.org/) -->

<svg
   width="48"
   height="48"
   viewBox="0 0 48 48"
   version="1.1"
   id="svg5"
   inkscape:version="1.1 (c68e22c387, 2021-05-23)"
   sodipodi:docname="meesho.svg"
   xmlns:inkscape="http://www.inkscape.org/namespaces/inkscape"
   xmlns:sodipodi="http://sodipodi.sourceforge.net/DTD/sodipodi-0.dtd"
   xmlns="http://www.w3.org/2000/svg"
   xmlns:svg="http://www.w3.org/2000/svg"
   xmlns:rdf="http://www.w3.org/1999/02/22-rdf-syntax-ns#">
  <sodipodi:namedview
     id="namedview7"
     pagecolor="#505050"
     bordercolor="#eeeeee"
     borderopacity="1"
     inkscape:pageshadow="0"
     inkscape:pageopacity="1"
     inkscape:pagecheckerboard="false"
     inkscape:document-units="px"
     showgrid="true"
     inkscape:showpageshadow="false"
     units="px"
     scale-x="1"
     inkscape:zoom="4.593935"
     inkscape:cx="48.759942"
     inkscape:cy="22.312027"
     inkscape:current-layer="layer1" />
  <defs
     id="defs2">
    <style
       id="style2869">.a{fill:none;stroke:#fff;stroke-linecap:round;stroke-linejoin:round;}</style>
    <style
       id="style3720">.a{fill:none;stroke:#fff;stroke-linecap:round;stroke-linejoin:round;}</style>
    <style
       id="style4287">.a{fill:none;stroke:#fff;stroke-linecap:round;stroke-linejoin:round;}</style>
  </defs>
  <g
     inkscape:label="Layer 1"
     inkscape:groupmode="layer"
     id="layer1">
    <path
       id="path2133"
       class="st1"
       d="m 4.3707132,28.864578 v 5.2 -3.2 c 0,-0.9 1.1,-2 2,-2 0.9,0 2,1.1 2,2 v 3.2 -3.2 c 0,-0.9 1.1,-2 1.9999998,-2 0.899999,0 1.999999,1.1 1.999999,2 v 3.2" />
    <path
       id="path2135"
       class="st1"
       d="m 18.510711,33.064578 c -0.3,0.6 -1,1 -1.7,1 -1.1,0 -2,-0.9 -2,-2 v -1.3 c 0,-1.1 0.9,-2 2,-2 1.1,0 2,0.9 2,2 v 0.7 h -4" />
    <path
       id="path2233"
       class="st1"
       d="m 24.950711,33.064578 c -0.3,0.6 -1,1 -1.7,1 -1.1,0 -2,-0.9 -2,-2 v -1.3 c 0,-1.1 0.9,-2 2,-2 1.1,0 2,0.9 2,2 v 0.7 h -4" />
    <path
       id="path2235"
       class="st1"
       d="m 27.89071,33.664578 c 0.4,0.3 0.8,0.4 1.6,0.4 h 0.4 c 0.7,0 1.3,-0.6 1.3,-1.3 0,-0.7 -0.6,-1.3 -1.3,-1.3 h -0.9 c -0.7,0 -1.3,-0.6 -1.3,-1.3 0,-0.7 0.6,-1.3 1.3,-1.3 h 0.4 c 0.9,0 1.3,0.1 1.6,0.4" />
    <g
       id="g2241"
       transform="translate(-95.569288,-279.63542)">
	<line
   class="st2"
   x1="129.2"
   y1="305.70001"
   x2="129.2"
   y2="313.70001"
   id="line2237" />

	<path
   class="st2"
   d="m 129.2,310.4 c 0,-1.1 0.9,-2 2,-2 v 0 c 1.1,0 2,0.9 2,2 v 3.3"
   id="path2239" />

</g>
    <path
       id="path2243"
       class="st1"
       d="m 42.070711,34.064578 c -1.1,0 -2,-0.9 -2,-2 v -1.3 c 0,-1.1 0.9,-2 2,-2 1.1,0 2,0.9 2,2 v 1.3 c 0,1.1 -0.9,2 -2,2 z" />
    <path
       class="a"
       d="m 7.8490992,40.349037 c 0.3342474,1.238477 1.4572116,2.099143 2.7399998,2.1 h 26.499999 c 1.290215,0.0082 2.423837,-0.854321 2.76,-2.1 m 4.41,-16.31 c 0.534739,-1.98899 -0.970412,-3.941216 -3.03,-3.93 H 33.369097 L 25.599098,7.1090424 c -0.761137,-1.3756722 -2.738863,-1.3756722 -3.5,0 l -7.77,12.9999946 H 6.4690992 c -2.0471535,0.0085 -3.531495,1.953027 -3,3.93 M 23.849098,12.10904 l 4.769999,7.999997 h -9.539999 z"
       id="path4291"
       sodipodi:nodetypes="cccccccccccccccc" />
  </g>
  <metadata
     id="metadata826">
    <rdf:RDF />
  </metadata>
  <style
     type="text/css"
     id="style1787">
	.st0{fill:#FFFFFF;}
	.st1{fill:none;stroke:#FFFFFF;stroke-linecap:round;stroke-linejoin:round;}
	.st2{fill:none;stroke:#FFFFFF;stroke-linecap:round;stroke-linejoin:round;stroke-miterlimit:10;}
</style>
</svg>
