<?xml version="1.0" encoding="UTF-8" standalone="no"?>
<svg
   viewBox="0 0 48 48"
   version="1.1"
   id="svg8"
   xmlns="http://www.w3.org/2000/svg"
   xmlns:svg="http://www.w3.org/2000/svg">
  <defs
     id="defs4">
    <style
       id="style2">.a{fill:none;stroke:#fff;stroke-linecap:round;stroke-linejoin:round;}</style>
  </defs>
  <path
     class="a"
     d="m 21,27.5 h 6 L 32,26 V 16 l -5,1.5 H 21 L 16,16 v 10 z"
     id="path1213" />
  <path
     class="a"
     d="M 16,16 V 14.5 L 17.5,14 v 0 0 m 13,0 v 0 0 L 32,14.5 V 16"
     id="path8432" />
  <path
     class="a"
     id="path11097"
     d="m 18.369799,16.648326 a 6.5,6.4999514 0 0 1 1.451046,-8.229227 6.5,6.4999514 0 0 1 8.356239,1e-7 6.5,6.4999514 0 0 1 1.451045,8.2292269" />
  <circle
     class="a"
     id="path11244"
     cx="24"
     cy="13.499998"
     r="3.5" />
  <path
     class="a"
     d="m 19.5,27.3 0.5,4.2 c 0,0 -2.220955,0.178578 -2.5,1.5 -0.263152,1.24616 5.272896,1.205296 5,0 C 22.178168,31.578569 20,31.5 20,31.5 v 0"
     id="path15161" />
  <path
     class="a"
     d="M 28.5,27.3 28,33.5 c 0,0 -2.220955,0.178578 -2.5,1.5 -0.263152,1.24616 5.272896,1.205296 5,0 C 30.178168,33.578569 28,33.5 28,33.5"
     id="path15161-3" />
  <path
     class="a"
     d="m 16,17 -2,7"
     id="path27939-6" />
  <path
     class="a"
     d="m 32,17 2.5,5.5"
     id="path27939-6-7" />
  <circle
     class="a"
     id="path29069"
     cx="34.910107"
     cy="23.370821"
     r="1" />
  <line
     class="a"
     x1="24.316244"
     y1="21.656809"
     x2="22.710716"
     y2="21.656809"
     id="line547" />
  <path
     class="a"
     d="m 24.316242,21.656807 c 0.535175,0 0.973046,0.437872 0.973046,0.973047 0,0.535176 -0.437871,0.973046 -0.973046,0.973046 h -1.605528 v -3.892186 h 1.605528 c 0.535175,0 0.973046,0.437871 0.973046,0.973047 0,0.535176 -0.437871,0.973046 -0.973046,0.973046 z"
     id="path545" />
  <circle
     class="a"
     id="path29071"
     cx="13.593"
     cy="25.095684"
     r="1" />
  <path
     class="a"
     d="M 31,29.520144 38,34.5 v 5 l -10,5 v -5 l -4,-2 -4,2 v 5 l -10,-5 v -5 l 7,-5.020144 z"
     id="path29221" />
  <path
     class="a"
     d="m 10,34.5 10,5"
     id="path29223" />
  <path
     class="a"
     d="m 28,39.5 10,-5"
     id="path29225" />
  <path
     class="a"
     d="m 20,44.5 h 8"
     id="path29227" />
</svg>
