<?xml version="1.0" encoding="UTF-8" standalone="no"?>
<svg
   viewBox="0 0 48 48"
   version="1.1"
   id="svg8"
   xmlns="http://www.w3.org/2000/svg"
   xmlns:svg="http://www.w3.org/2000/svg">
  <defs
     id="defs4">
    <style
       id="style2">.a{fill:none;stroke:#fff;stroke-linecap:round;stroke-linejoin:round;}</style>
  </defs>
  <circle
     class="a"
     cx="24"
     cy="24"
     r="21.5"/>
  <path
     class="a"
     d="m 21.700359,24.330021 -1.436591,0.158387 c -0.797345,1.056342 -4.293413,5.120962 -6.427824,6.359528 -0.486364,0.282229 -1.057217,0.490898 -1.619255,0.473117 l -2.044805,-0.06469 c -0.6881551,-0.02177 -1.5692407,1.539862 -0.2795269,2.046496 l 3.7554049,1.475223 c 1.384338,0.543805 3.064478,0.185574 4.447224,-0.362266 1.277433,-0.506115 1.848883,-2.559434 3.222882,-2.570002 l 3.754158,-0.02887 c 1.580631,-0.01216 2.289333,-2.500913 1.694744,-3.730501 -0.742053,-1.534539 -3.292625,-1.57412 -4.962708,-1.233128 -0.724349,0.147895 -1.770487,1.3358 -1.770487,1.3358"
     id="path872" />
  <path
     class="a"
     d="m 18.08489,27.297489 c 2.310148,0.7361 3.31867,1.97397 3.232978,4.548325"
     id="path874" />
  <path
     class="a"
     d="m 20.263768,24.488408 c -4.889161,-10.113043 5.672187,-5.203712 13.901557,-12.679325 0.850288,1.355247 0.355113,3.180644 -0.264802,4.290255"
     id="path3213" />
  <path
     class="a"
     d="m 22.576527,26.523273 c -4.889161,-10.113043 6.346834,-4.625576 14.11879,-12.624793 0.926347,-0.105389 0.809884,3.069913 -0.320648,4.085849 1.037381,-0.146312 0.907457,2.210349 -1.042116,3.610064 1.35273,0.459328 -0.488748,2.34007 -1.86361,2.669988 0.580249,0.610884 -0.165787,1.698647 -2.702364,2.42992 0.209629,1.564864 -1.79412,1.469848 -3.93221,1.389809"
     id="path4412" />
  <path
     class="a"
     d="m 36.374669,17.984329 c -2.274802,1.241468 -5.173054,1.991675 -7.899263,2.26014"
     id="path7282" />
  <path
     class="a"
     d="m 35.332553,21.594393 c -2.040832,0.405404 -3.432851,0.813133 -7.180185,0.421815"
     id="path7284" />
  <path
     class="a"
     d="m 33.468943,24.264381 c -1.93404,0.02798 -4.359721,-0.06047 -6.117563,-0.687354"
     id="path7286" />
  <path
     class="a"
     d="m 30.766579,26.694301 c -1.473652,-0.192699 -2.93466,-0.837976 -4.580939,-1.84816"
     id="path7288" />
</svg>
