<svg xmlns="http://www.w3.org/2000/svg" viewBox="0 0 48 48"><defs><style>.a{fill:none;stroke:#fff;stroke-linecap:round;stroke-linejoin:round;}.b{fill:#fff;}</style></defs><path class="a" d="M23.0606,28.9735a2.07,2.07,0,0,1-1.8184,1.07,2.1456,2.1456,0,0,1-2.1393-2.1394v-1.39a2.1393,2.1393,0,1,1,4.2786,0v.7487H19.1029"/><path class="a" d="M39.1791,28.9735a2.0705,2.0705,0,0,1-1.8184,1.07,2.1456,2.1456,0,0,1-2.1393-2.1394v-1.39a2.1393,2.1393,0,1,1,4.2786,0v.7487H35.2214"/><polyline class="a" points="34.215 21.486 32.076 30.043 29.937 21.486 27.797 30.043 25.658 21.486"/><circle class="b" cx="29.937" cy="18.8122" r="0.75"/><circle class="b" cx="25.5084" cy="18.8122" r="0.75"/><circle class="b" cx="34.3656" cy="18.8122" r="0.75"/><polyline class="a" points="8.5 30.043 8.5 21.486 12.779 30.043 17.057 21.486 17.057 30.043"/><circle class="b" cx="12.779" cy="18.8122" r="0.75"/><path class="a" d="M40.5,42.5H7.5a2.0059,2.0059,0,0,1-2-2V7.5a2.0059,2.0059,0,0,1,2-2h33a2.0059,2.0059,0,0,1,2,2v33A2.0059,2.0059,0,0,1,40.5,42.5Z"/></svg>