<?xml version="1.0" encoding="UTF-8"?>
<svg version="1.1" viewBox="0 0 48 48" xml:space="preserve" xmlns="http://www.w3.org/2000/svg"><defs><style>.a{fill:none;stroke:#fff;stroke-linecap:round;stroke-linejoin:round;}</style></defs><path d="m30.005 4.9172 8.5675 8.5677-2.9e-5 12.116-8.5677 8.5675-12.116-2.9e-5 -8.5675-8.5677 3e-5 -12.116 8.5677-8.5675z" fill="none" stroke="#fff" stroke-linecap="round" stroke-linejoin="round"/><path d="m23.329 30.355v-21.694l-2.0416 9e-7 -3.8147 10.846-3.1017-5.9883-1.4727 1.3795v9.1832m22.099-7.6036v-1.4757l-6.2377-6.3415h-3.3959v21.694h3.3268l6.3069-6.2722v-4.5744h-3.8494" fill="none" stroke="#fff" stroke-linecap="round" stroke-linejoin="round"/><polyline class="t" transform="matrix(.78947 0 0 .78947 -145.73 4.675)" points="205.83 48.641 205.83 40.65 209.83 48.65 213.83 40.662 213.83 48.65" fill="none" stroke="#fff" stroke-linecap="round" stroke-linejoin="round" stroke-width="1.2667"/><path class="t" d="m33.358 41.009 2.0675 2.072m-4.1352 0.0016v-6.3158h2.0676c1.169 0 2.1166 0.94966 2.1166 2.1211 0 1.1714-0.9476 2.1211-2.1166 2.1211h-2.0676" fill="none" stroke="#fff" stroke-linecap="round" stroke-linejoin="round"/><path class="t" d="m39.581 43.083v-6.3158m-2.0921 0h4.1842" fill="none" stroke="#fff" stroke-linecap="round" stroke-linejoin="round"/><g transform="translate(-1.0522 -.46057)"><circle class="s" cx="7.432" cy="37.28" r=".55263" fill="#fff" stroke-width="0px"/><line class="t" x1="7.432" x2="7.432" y1="39.214" y2="43.399" fill="none" stroke="#fff" stroke-linecap="round" stroke-linejoin="round"/></g><path class="t" d="m10.69 42.391c0.38732 0.50424 0.87292 0.69197 1.5486 0.69197h0.93505c0.87016 0 1.5756-0.70539 1.5756-1.5756v-0.0068c0-0.87016-0.70539-1.5756-1.5756-1.5756h-1.0314c-0.8711 0-1.5772-0.70618-1.5772-1.5772v0c0-0.873 0.70768-1.5807 1.5807-1.5807h0.92992c0.67563 0 1.1612 0.18782 1.5486 0.69197" fill="none" stroke="#fff" stroke-linecap="round" stroke-linejoin="round"/><path class="t" d="m25.093 43.083 2.0921-6.3158 2.0921 6.3158m-0.693-2.0921h-2.7982" fill="none" stroke="#fff" stroke-linecap="round" stroke-linejoin="round"/><circle class="s" cx="8.4988" cy="39.925" r=".55263" fill="#fff" stroke-width="0px"/></svg>
