<?xml version="1.0" encoding="utf-8"?>
<!-- Generator: Adobe Illustrator 27.2.0, SVG Export Plug-In . SVG Version: 6.00 Build 0)  -->
<svg version="1.1" id="Layer_2" xmlns="http://www.w3.org/2000/svg" xmlns:xlink="http://www.w3.org/1999/xlink" x="0px" y="0px"
	 viewBox="0 0 48 48" style="enable-background:new 0 0 48 48;" xml:space="preserve">
<style type="text/css">
	.st0{fill:none;stroke:#FFFFFF;stroke-linecap:round;stroke-miterlimit:10;}
	.st1{fill:none;stroke:#FFFFFF;}
	.st2{fill:none;stroke:#FFFFFF;stroke-linecap:round;stroke-linejoin:round;stroke-miterlimit:10;}
</style>
<g id="layer1_00000053536292571018393430000005420670711008773801_">
	<g id="g6981" transform="matrix(0.96876477,0,0,0.96984119,0.74964594,0.72381134)">
		<path id="path3422" class="st0" d="M24,8c3.1,0,5.6,2.5,5.6,5.6v20.7c0,3.1-2.5,5.6-5.6,5.6s-5.6-2.5-5.6-5.6V13.6
			C18.4,10.5,20.9,8,24,8z"/>
		<path id="path6574" class="st1" d="M32.1,33.8c0,3.3,0.1,6.2-1.4,8.6c-1.4,2.4-5.1,2.7-6,2.7H24h-0.7c-0.9,0-4.6-0.3-6-2.7
			c-1.4-2.4-1.4-5.3-1.4-8.6v-8.4V14.2c0-3.3-0.1-6.2,1.4-8.6c1.4-2.4,5.1-2.7,6-2.7H24h0.7c0.9,0,4.6,0.3,6,2.7
			c1.4,2.4,1.4,5.3,1.4,8.6v11.2V33.8z"/>
	</g>
</g>
<rect x="21.9" y="21.9" class="st2" width="4.3" height="4.3"/>
<polygon class="st2" points="26.1,17.1 21.9,17.1 24,12.9 "/>
<path class="st2" d="M26.1,33c-0.1,2.8-4.2,2.8-4.3,0C21.9,30.2,26.1,30.2,26.1,33z"/>
</svg>
