<svg xmlns="http://www.w3.org/2000/svg" viewBox="0 0 48 48"><defs><style>.a,.b{fill:none;stroke:#fff;}.a{stroke-linecap:round;stroke-linejoin:round;}.b{stroke-miterlimit:10;}</style></defs><path class="a" d="M40.5,5.5H7.5a2,2,0,0,0-2,2v33a2,2,0,0,0,2,2h33a2,2,0,0,0,2-2V7.5A2,2,0,0,0,40.5,5.5Z"/><path class="a" d="M10.8693,26.1209a4.4189,4.4189,0,0,1,4.4189-4.4189h0a4.4189,4.4189,0,0,1,4.4189,4.4189v7.2912"/><line class="a" x1="10.8693" y1="21.702" x2="10.8693" y2="33.4121"/><path class="a" d="M19.7072,26.1209a4.4189,4.4189,0,0,1,4.4189-4.4189h0a4.4189,4.4189,0,0,1,4.4189,4.4189v7.2912"/><circle class="b" cx="33.2344" cy="18.4842" r="3.8963"/><line class="a" x1="33.2344" y1="26.247" x2="33.2344" y2="33.4121"/></svg>