<?xml version="1.0" encoding="UTF-8" standalone="no"?>
<svg
   viewBox="0 0 48 48"
   version="1.1"
   id="svg6274"
   sodipodi:docname="michelin.svg"
   inkscape:version="1.2.1 (9c6d41e4, 2022-07-14)"
   xmlns:inkscape="http://www.inkscape.org/namespaces/inkscape"
   xmlns:sodipodi="http://sodipodi.sourceforge.net/DTD/sodipodi-0.dtd"
   xmlns="http://www.w3.org/2000/svg"
   xmlns:svg="http://www.w3.org/2000/svg">
  <sodipodi:namedview
     id="namedview6276"
     pagecolor="#ffffff"
     bordercolor="#000000"
     borderopacity="0.25"
     inkscape:showpageshadow="2"
     inkscape:pageopacity="0.0"
     inkscape:pagecheckerboard="0"
     inkscape:deskcolor="#d1d1d1"
     showgrid="false"
     inkscape:zoom="9.1810446"
     inkscape:cx="29.245038"
     inkscape:cy="26.794337"
     inkscape:window-width="1296"
     inkscape:window-height="768"
     inkscape:window-x="0"
     inkscape:window-y="25"
     inkscape:window-maximized="0"
     inkscape:current-layer="svg6274" />
  <defs
     id="defs6270">
    <style
       id="style6268">.a{fill:none;stroke:#fff;stroke-linecap:round;stroke-linejoin:round;}</style>
  </defs>
  <g
     id="g7568"
     transform="matrix(0.30893059,0,0,0.30893059,68.580222,14.295891)"
     style="stroke-width:3.23697307;stroke-dasharray:none;stroke:#ffffff;stroke-opacity:1">
    <g
       id="g7546"
       style="stroke-width:3.23697307;stroke-dasharray:none;stroke:#ffffff;stroke-opacity:1">
      <path
         d="m -195.61616,44.319376 c -0.4312,2.246036 -0.2403,4.567212 0.55207,6.712616 0.32116,0.961216 0.74167,1.886327 1.2547,2.760327 -0.008,0.07928 -0.008,0.159108 0,0.238392 -0.60258,4.744542 1.43871,9.438566 5.31987,12.233269 0.6168,0.471392 1.27147,0.89105 1.95734,1.254697 0.65964,1.892171 1.86458,3.546766 3.46299,4.755291 1.17004,0.913607 2.47897,1.633738 3.87697,2.132983 1.62311,2.188394 3.95593,3.745087 6.59968,4.403975 0.70784,0.198222 1.4291,0.344987 2.15812,0.439146 l 0.11292,0.12547 c 1.4712,1.38462 3.25882,2.388275 5.20695,2.923433 -0.31793,2.105292 -0.12866,4.256066 0.55208,6.273473 h 76.799841 c 0.01169,-2.557863 -0.687683,-5.068652 -2.020051,-7.252134 l -0.125447,-0.16311 c 1.049771,-7.662326 -4.055865,-14.814587 -11.643613,-16.311026 -0.38892,-0.07529 -0.79044,-0.138021 -1.17936,-0.175661 h -0.16315 c -2.76133,-2.672558 -5.98343,-4.823452 -9.5106,-6.348753 l 0.13803,-0.589706 h 0.16315 c 4.16556,-1.80676 6.63732,-4.880761 7.16428,-8.883236 0.39689,-3.209228 -0.40269,-6.452175 -2.24592,-9.109082 0.002,-0.04179 0.002,-0.08368 0,-0.125469 0.50662,-3.806427 -0.16323,-7.676744 -1.91964,-11.0915 -1.32449,-2.451177 -3.38798,-4.422451 -5.89711,-5.633577 -0.67752,-2.296091 -3.60097,-4.052663 -6.73767,-3.964835 -2.5094,0.06273 -5.15684,1.254695 -6.17312,3.12419 -5.98925,2.154404 -10.32144,7.410787 -11.29226,13.701262 -5.70623,4.182341 -6.45919,12.41796 -1.60599,17.565723 -3.63742,0.0243 -7.26384,0.402493 -10.82801,1.129226 h -0.13803 c -3.4884,-2.505109 -7.89331,-3.37052 -12.07018,-2.371373 -0.15892,0.04167 -0.3081,0.114137 -0.43909,0.213298 -1.20995,-0.356552 -2.44831,-0.608418 -3.70141,-0.752817 h -0.2509 c -0.57099,-1.891519 -1.59621,-3.614564 -2.98619,-5.018779 l -0.22584,-0.20075 c -0.20705,-1.157354 -0.48357,-2.301194 -0.82808,-3.425316 -0.49783,-1.777607 -1.46927,-3.386554 -2.81053,-4.654917"
         id="path5096"
         style="fill:none;stroke:#ffffff;stroke-width:3.23697307;stroke-dasharray:none;stroke-dashoffset:0;stroke-opacity:1;paint-order:normal"
         sodipodi:nodetypes="ccccccccccccccccccccccccccccccccccccccccc" />
      <path
         d="m -199.72598,18.202236 0.10037,-0.07528 c 0.0868,-0.07926 0.18943,-0.139136 0.30113,-0.175657 h 0.6148 c 0.86575,0.499825 0.97724,1.152335 1.40526,2.42156 0.2767,2.170725 1.27119,4.366438 2.4644,6.200795 m -4.0016,-8.944626 c -0.12466,-0.267997 -0.49906,-1.276444 -0.58324,-1.559771 -0.11292,-0.464237 -0.31367,-1.367617 0.70263,-1.718931 h 0.28858 c 1.12536,-0.203357 1.82192,0.366466 2.83909,3.725574 1.01993,2.947499 1.59557,3.819176 2.81698,5.940305 m -3.8744,-9.08603 c -0.13802,-0.363861 -0.45517,-1.432565 -0.54387,-2.13567 -0.17565,-0.514425 -0.15876,-1.64365 0.8199,-1.96987 0.15463,-0.04723 0.31512,-0.07257 0.47678,-0.07528 0.6572,0.05956 1.20534,0.527235 1.36762,1.166866 l 0.10038,0.225845 4.40397,10.526886 m -3.79711,-9.33242 c -0.18452,-0.869504 0.41376,-1.509505 0.92386,-1.83436 0.21605,-0.117373 0.45684,-0.18187 0.70263,-0.188204 0.38823,0.02045 0.74506,0.219713 0.96612,0.539518 0,0 5.92736,11.44889 7.0064,13.368573 -0.34821,1.12987 -1.46482,2.527142 -0.88523,2.125643 0.35799,-0.501793 0.82037,-1.484107 1.23134,-1.943516 0.26348,-0.476784 1.10413,-2.697593 1.43035,-3.400222 0.25259,-1.152016 0.67546,-2.259953 1.25469,-3.287299 0.35982,-0.633681 1.02796,-1.029791 1.75658,-1.041397 0.63989,0 1.16686,0.326221 1.12922,0.664988 -0.0376,0.338768 -1.39271,8.782861 -1.39271,8.782861 -0.36386,1.80676 -0.69008,4.39143 -0.85319,5.884517 -0.0146,0.366474 -0.0566,0.731347 -0.12547,1.091584 v 0.32622 c -0.1819,0.80079 -0.45118,1.579183 -0.80301,2.321185 0.15142,3.734727 2.82923,7.024808 0.55508,6.841913 m -8.16392,1.386326 c -2.08755,-0.167887 -0.89895,-5.012147 -2.42873,-5.90705 -2.71014,-2.371373 -5.5583,-9.673694 -6.13546,-10.966029 -2.30864,-5.859423 -2.79797,-8.996159 -2.07024,-9.874445"
         id="path5108-0"
         style="fill:none;stroke:#ffffff;stroke-width:3.23697307;stroke-linecap:round;stroke-linejoin:round;stroke-dasharray:none;stroke-dashoffset:0;stroke-opacity:1;paint-order:normal"
         sodipodi:nodetypes="cccccccccccccccccccccccccccccccccccccccc" />
      <path
         d="m -113.72225,45.599161 c -0.26348,0 -0.33876,0.20075 -0.22584,0.288579 0.24758,0.127494 -0.11172,0.159583 -0.17567,0.250939 -0.59839,0.273734 -1.22541,0.479939 -1.86947,0.6148 -1.58353,0.330349 -3.20792,0.419183 -4.81803,0.263487 -2.65616,-0.203285 -5.26409,-0.821395 -7.72894,-1.831854 l -0.65246,-0.250939 -0.32618,-0.150564 c -0.33899,-0.129817 -0.70465,0.113945 -0.71521,0.476784 0.001,0.247398 0.15635,0.467858 0.38898,0.552067 0.66565,0.3274 1.35319,0.608287 2.05767,0.840644 0.57627,0.319906 1.08707,0.745569 1.50565,1.254695 0.54525,0.58654 1.17037,1.093391 1.85695,1.505632 1.36121,0.748274 2.9314,1.026144 4.46674,0.790458 0.7749,-0.123256 1.51725,-0.400568 2.18317,-0.815551 0.47137,-0.316211 0.92383,-0.659748 1.35504,-1.02885 0.26023,-0.217846 0.5371,-0.415015 0.82807,-0.589705 0.17568,-0.100376 1.38021,-0.577159 2.02009,-0.941021 0,0.225845 0,0.414049 0.13803,0.451689 0.13798,0.03764 0.31365,-0.276031 0.3764,-0.539518 0.0686,-0.220643 0.0686,-0.456892 0,-0.677535 -0.12423,-0.229726 -0.42041,-0.418324 -0.67712,-0.466373"
         id="path5114"
         style="fill:none;stroke:#ffffff;stroke-width:3.23697307;stroke-linecap:round;stroke-dasharray:none;stroke-dashoffset:0;stroke-opacity:1;paint-order:normal;stroke-linejoin:round"
         sodipodi:nodetypes="ccccccccccccccccccsccc" />
      <path
         style="fill:none;stroke:#ffffff;stroke-width:3.23697307;stroke-dasharray:none;stroke-dashoffset:0;stroke-opacity:1;paint-order:normal"
         d="m -193.80939,54.030709 c 0,0 6.50103,6.864202 14.43584,4.173415 7.93481,-2.690787 7.861,-11.545219 7.861,-11.545219"
         id="path7303"
         sodipodi:nodetypes="czc" />
      <path
         style="fill:none;stroke:#ffffff;stroke-width:3.23697307;stroke-dasharray:none;stroke-dashoffset:0;stroke-opacity:1;paint-order:normal"
         d="m -186.53218,67.518675 c 0,0 10.08915,3.044287 15.43915,-2.783852 5.35,-5.828138 2.56667,-14.063867 2.56667,-14.063867"
         id="path7305"
         sodipodi:nodetypes="czc" />
      <path
         style="fill:none;stroke:#ffffff;stroke-width:3.23697307;stroke-dasharray:none;stroke-dashoffset:0;stroke-opacity:1;paint-order:normal"
         d="m -179.19222,74.406949 c 0,0 7.09837,2.775725 14.20017,-5.155272 7.1018,-7.930997 -1.88309,-17.540267 -1.88309,-17.540267"
         id="path7307"
         sodipodi:nodetypes="czc" />
      <path
         style="fill:none;stroke:#ffffff;stroke-width:3.23697307;stroke-dasharray:none;stroke-dashoffset:0;stroke-opacity:1;paint-order:normal"
         d="m -170.43442,79.25007 c 0,0 12.97789,2.049535 15.42442,-10.111137 2.44653,-12.160672 -8.79908,-16.97485 -8.79908,-16.97485"
         id="path7309"
         sodipodi:nodetypes="czc" />
      <path
         style="fill:none;stroke:#ffffff;stroke-width:3.23697307;stroke-dasharray:none;stroke-dashoffset:0;stroke-opacity:1;paint-order:normal"
         d="m -165.11455,82.298973 c 0,0 13.03446,2.394103 17.85311,-8.59495 4.81864,-10.989053 -4.37767,-19.259265 -4.37767,-19.259265"
         id="path7311"
         sodipodi:nodetypes="czc" />
      <path
         style="fill:none;stroke:#ffffff;stroke-width:3.23697307;stroke-dasharray:none;stroke-dashoffset:0;stroke-opacity:1;paint-order:normal"
         d="m -89.917313,81.094939 c 0,0 -0.357875,3.101839 -1.250882,4.5039 -0.893008,1.40206 -2.064931,3.023792 -2.064931,3.023792"
         id="path7313"
         sodipodi:nodetypes="csc" />
      <path
         style="fill:none;stroke:#ffffff;stroke-width:3.23697307;stroke-dasharray:none;stroke-dashoffset:0;stroke-opacity:1;paint-order:normal"
         d="m -102.94683,64.670515 c 0,0 5.328538,5.395134 4.944305,10.319525 -0.384233,4.924391 -2.514295,6.19351 -2.514295,6.19351 0,0 2.431333,1.028825 3.097132,3.329412 0.6658,2.300587 -0.218758,4.253487 -0.218758,4.253487"
         id="path7315"
         sodipodi:nodetypes="czczc" />
      <path
         style="fill:none;stroke:#ffffff;stroke-width:3.23697307;stroke-dasharray:none;stroke-dashoffset:0;stroke-opacity:1;paint-order:normal"
         d="m -195.71929,44.585794 c 0.49614,-1.954961 0.56022,-2.324423 1.50955,-3.564523 0.94934,-1.240099 2.71563,-1.970531 2.71563,-1.974595"
         id="path7425"
         sodipodi:nodetypes="czc" />
      <path
         style="fill:none;stroke:#ffffff;stroke-width:3.23697307;stroke-dasharray:none;stroke-dashoffset:0;stroke-opacity:1;paint-order:normal"
         d="m -174.81118,38.608246 c 0,0 -1.03491,-1.471614 -3.09631,-1.986963 -2.06139,-0.515349 -3.23169,0.268118 -3.23169,0.268118"
         id="path7427"
         sodipodi:nodetypes="czc" />
      <path
         style="fill:none;stroke:#ffffff;stroke-width:3.23697307;stroke-dasharray:none;stroke-dashoffset:0;stroke-opacity:1;paint-order:normal"
         d="m -147.05131,73.73756 c 0,0 19.95668,7.887349 31.88496,8.404522 11.92828,0.517173 14.49978,-0.834433 14.49978,-0.834433"
         id="path7429"
         sodipodi:nodetypes="czc" />
      <ellipse
         style="fill:none;stroke:#ffffff;stroke-width:3.23698046;stroke-linecap:round;stroke-dasharray:none;stroke-dashoffset:0;stroke-opacity:1;paint-order:normal"
         id="path7489"
         cx="-109.58874"
         cy="52.317032"
         rx="3.4689231"
         ry="4.7581182"
         transform="matrix(0.99149047,0.13017928,-0.13317393,0.99109268,0,0)" />
      <ellipse
         style="fill:none;stroke:#ffffff;stroke-width:3.23698046;stroke-linecap:round;stroke-dasharray:none;stroke-dashoffset:0;stroke-opacity:1;paint-order:normal"
         id="path7493"
         cx="-110.92547"
         cy="54.017052"
         rx="0.77248162"
         ry="0.83665258"
         transform="matrix(0.99149047,0.13017928,-0.13317393,0.99109268,0,0)" />
      <ellipse
         style="fill:none;stroke:#ffffff;stroke-width:3.23698046;stroke-linecap:round;stroke-dasharray:none;stroke-dashoffset:0;stroke-opacity:1;paint-order:normal"
         id="path7489-7"
         cx="-119.49918"
         cy="52.414249"
         rx="3.4689231"
         ry="4.7581182"
         transform="matrix(0.99149047,0.13017928,-0.13317393,0.99109268,0,0)" />
      <ellipse
         style="fill:none;stroke:#ffffff;stroke-width:3.23698046;stroke-linecap:round;stroke-dasharray:none;stroke-dashoffset:0;stroke-opacity:1;paint-order:normal"
         id="path7493-3"
         cx="-120.80514"
         cy="54.343361"
         rx="0.77248162"
         ry="0.83665258"
         transform="matrix(0.99149047,0.13017928,-0.13317393,0.99109268,0,0)" />
    </g>
  </g>
</svg>
