<svg viewBox="0 0 48 48" xmlns="http://www.w3.org/2000/svg">
    <style>
        .a{fill:none;stroke:#FFFFFF;stroke-linecap:round;stroke-linejoin:round}
    </style>
    <path class="a" d="M17.8,45.9"/>
    <path class="a" d="M17.8,3.7"/>
    <path class="a" d="M30.2,48.6"/>
    <path class="a" d="M30.2,6.4"/>
    <path class="a" d="M30.2,29.5h10.3c1.1,0,2-0.9,2-2v-20c0-1.1-0.9-2-2-2H30.2v0V34c0,1.1-0.9,2-2,2H17.8"/>
    <path class="a" d="M5.8,23.8h12c0,0,0,16.7,0,16.7c0,1.1-0.9,2-2,2H7.5c-1.1,0-2-0.9-2-2v-33c0-1.1,0.9-2,2-2h22.9"/>
    <polyline class="a" points="17.8,5.8 17.8,18.7 29.8,18.7"/>
</svg>