<?xml version="1.0" encoding="UTF-8" standalone="no"?>
<svg
   viewBox="0 0 48 48"
   version="1.1"
   id="svg192"
   xml:space="preserve"
   xmlns="http://www.w3.org/2000/svg"
   xmlns:svg="http://www.w3.org/2000/svg"><defs
     id="defs188"><style
       id="style186">.a{fill:none;stroke:#000;stroke-linecap:round;stroke-linejoin:round;}</style></defs><path
     id="path10046"
     style="font-variation-settings:normal;fill:none;fill-opacity:0.441636;stroke:#ffffff;stroke-width:1;stroke-linecap:round;stroke-linejoin:round;stroke-miterlimit:4;stroke-dasharray:none;stroke-dashoffset:0;stroke-opacity:1;stop-color:#000000"
     d="m 12.047831,19.707385 -1.028982,3.188442 c 0,0 -0.118013,0.48469 -0.742432,0.48469 H 4.7060166 l -0.592642,2.001049 h 9.8773664 c 0,0 2.12895,0.07945 3.030508,-2.131467 0.901557,-2.210919 1.350267,-3.464853 1.350267,-3.464853 z" /><path
     id="path10046-2"
     style="font-variation-settings:normal;fill:none;fill-opacity:0.441636;stroke:#ffffff;stroke-width:1;stroke-linecap:round;stroke-linejoin:round;stroke-miterlimit:4;stroke-dasharray:none;stroke-dashoffset:0;stroke-opacity:1;stop-color:#000000"
     d="m 10.104449,35.236679 1.028983,-3.188442 c 0,0 0.118013,-0.48469 0.742431,-0.48469 h 5.5704 l 0.592642,-2.001049 H 8.1615377 c 0,0 -2.1289496,-0.07945 -3.0305072,2.131467 -0.9015574,2.210919 -1.3502677,3.464853 -1.3502677,3.464853 z" /><path
     style="font-variation-settings:normal;vector-effect:none;fill:none;fill-opacity:0.441636;stroke:#ffffff;stroke-width:1.06727;stroke-linecap:round;stroke-linejoin:round;stroke-miterlimit:4;stroke-dasharray:none;stroke-dashoffset:0;stroke-opacity:1;-inkscape-stroke:none;stop-color:#000000"
     d="m 16.077857,14.640144 c 2.613464,0.596012 4.547284,-0.495968 7.191034,-1.688042 2.64375,-1.192074 -0.821038,5.070583 -1.050977,7.766715 -0.328136,0.689171 1.71423,-2.024145 2.698226,-3.171228 2.199176,-2.483626 5.429639,-3.530899 3.891701,-0.412054 -1.537939,3.118845 -1.37476,4.510921 0.982804,1.70693 2.357564,-2.803991 2.857936,-2.826285 2.093642,0.02382 -1.033384,4.496731 4.730936,0.155439 6.702014,-2.299728 1.971079,-2.455167 -3.459421,5.947871 0.377849,3.9941 3.83727,-1.953771 5.188055,-3.052509 5.221431,-3.100257"
     id="path10919" /><circle
     style="fill:#ffffff;fill-opacity:1;fill-rule:evenodd;stroke:none;stroke-width:0.824054;stroke-linecap:round;stroke-linejoin:round;stroke-dasharray:none;stroke-opacity:1;paint-order:stroke fill markers;stop-color:#000000"
     id="path11029"
     cx="40.008446"
     cy="14.155487"
     r="0.5" /><path
     class="st0"
     d="m 22.514413,31.662276 v -8 h 1.3 c 2.2,0 4,1.8 4,4 v 0 c 0,2.2 -1.8,4 -4,4 z"
     id="path3182"
     style="fill:none;stroke:#ffffff;stroke-linecap:round;stroke-linejoin:round;stroke-miterlimit:10" /><line
     class="st0"
     x1="37.689068"
     y1="23.662273"
     x2="42.989056"
     y2="23.662273"
     id="line3208"
     style="fill:none;stroke:#ffffff;stroke-linecap:round;stroke-linejoin:round;stroke-miterlimit:10" /><line
     class="st0"
     x1="40.389065"
     y1="31.662273"
     x2="40.389065"
     y2="23.662273"
     id="line3210"
     style="fill:none;stroke:#ffffff;stroke-linecap:round;stroke-linejoin:round;stroke-miterlimit:10" /><path
     class="st0"
     d="m 35.351739,26.362276 c 0,-1.5 -1.299999,-2.8 -2.799999,-2.7 -1.4,0.1 -2.5,1.4 -2.5,2.8 v 2.5 c 0,1.5 1.2,2.7 2.7,2.7 v 0 c 1.5,0 2.7,-1.2 2.7,-2.7 h -2.7"
     id="path3164"
     style="fill:none;stroke:#ffffff;stroke-linecap:round;stroke-linejoin:round;stroke-miterlimit:10" /><path
     class="st0"
     d="M 35.351739,26.141306"
     id="path3166"
     style="fill:none;stroke:#ffffff;stroke-linecap:round;stroke-linejoin:round;stroke-miterlimit:10" /><path
     style="font-variation-settings:normal;fill:#1a1a1a;fill-opacity:0.441636;stroke:#ffffff;stroke-width:1;stroke-linecap:round;stroke-linejoin:round;stroke-miterlimit:4;stroke-dasharray:none;stroke-dashoffset:0;stroke-opacity:1;stop-color:#000000"
     d="M 3.9020952,27.472032 H 18.349798"
     id="path13646" /></svg>
