<svg width="48" height="49" viewBox="0 0 48 49" fill="none" xmlns="http://www.w3.org/2000/svg">
<path d="M16.3666 5.93695C14.3404 8.43723 20.1333 11.5205 24.0262 13.9428C26.5304 15.5009 33.5962 19.442 32.0946 25.1956C32.0841 25.2358 32.0987 25.2794 32.1319 25.3045C33.104 26.0378 33.8591 27.3364 34.1062 27.6165C34.358 27.9018 34.2195 28.1366 33.5691 28.4557C33.032 28.7193 32.803 28.4557 32.9773 29.3352C33.2824 30.0503 32.6518 29.8354 32.6518 30.0762C32.6518 30.4119 32.8955 30.9313 32.24 31.1613C31.5846 31.3913 32.5082 32.5402 31.5214 33.1219C30.5346 33.7036 26.2741 32.3779 25.7048 34.55C25.4194 35.6388 32.2876 38.5484 31.1382 40.8225C29.9889 43.0965 26.6636 41.9411 26.6636 41.9411" stroke="white" stroke-linecap="round"/>
<path d="M16.9391 12.4391C16.214 15.7476 19.7463 17.0999 21.9523 18.4726C24.1476 19.8386 28.4881 21.5445 26.8147 25.223C26.8007 25.2538 26.8093 25.2915 26.8362 25.312C27.5169 25.8293 28.0452 26.7374 28.2185 26.9339C28.3958 27.1347 28.2983 27.3 27.8404 27.5247C27.4623 27.7102 27.301 27.5247 27.4237 28.1438C27.6385 28.6473 27.1946 28.4959 27.1946 28.6655C27.1946 28.9018 27.3661 29.2675 26.9047 29.4294C26.4433 29.5913 27.0935 30.4002 26.3988 30.8097C25.1442 31.5492 23.4004 31.2174 22.7133 31.0688C17.6813 29.9808 17.9079 34.5595 12.9672 31.5492" stroke="white" stroke-linecap="round"/>
</svg>
