<svg xmlns="http://www.w3.org/2000/svg" viewBox="0 0 48 48"><defs><style>.a{fill:#fff;fill-opacity:0;}.a,.b{stroke:#fff;stroke-linecap:round;stroke-linejoin:round;}.b{fill:none;}</style></defs><path class="a" d="M43,31.8268h0L24.0162,43.0493,5,32.07V21.2225"/><path class="a" d="M9.5524,29.2747l-1.808-1.0438v5.4239l9.7816,5.6474V37.4943L15.96,36.59v-1.808l-1.888-1.09v-3.616l-4.52-2.61Z"/><path class="a" d="M17.6883,39.3959,8.1315,33.8783l3.1372-1.7424,2.8036,1.5564"/><path class="a" d="M34.8641,17.0935l-2.6653-1.8714-6.0555,3.6536,4.2008,2.5154v1.808l5.9607,3.4473,3.1357-1.808L43,22.7869v0l-5.4239-3.8154"/><path class="a" d="M32.1988,15.2221l-.0467-1.8271"/><path class="a" d="M11.2448,17.596,5,21.2225,17.6883,28.548l12.6558-7.1569-5.78-3.4656,7.588-4.53L25.3548,9.4706,20.643,12.385"/><path class="a" d="M30.3441,23.1991,17.6883,30.356v1.808l1.4035.81v1.808l4.9244,2.8431,10.8479-6.3928v-1.94l1.5116-.8727-.0709-1.773"/><path class="a" d="M12.803,18.4952l.0258,3.8213,1.5657.7139,1.5658-.7139V20.5088l-.023-1.9927-1.5428.8984"/><path class="a" d="M7.7444,15.575l6.65,3.84L20.4,15.9471V8.4181L14.3945,4.9507,7.7444,8.79Z"/><path class="a" d="M34.8641,22.1927l1.451.8377,1.261-.728V14.7186l-1.261-.7281-1.451.97Z"/><path class="a" d="M43,25.4988l-3.616,2.0877v.904l-1.8079,1.0438v1.808l-1.808,1.0438v3.616L43,31.8268Z"/><line class="b" x1="17.6883" y1="28.548" x2="17.6883" y2="30.356"/></svg>