<?xml version="1.0" encoding="UTF-8"?>
<svg version="1.1" viewBox="0 0 48 48" xmlns="http://www.w3.org/2000/svg">
 <defs>
  <style>.a{fill:none;stroke:#fff;stroke-linecap:round;stroke-linejoin:round;}</style>
 </defs>
 <path class="a" d="m10.477 20.388v-11.286c1.8771 3.7622 3.7543 7.5243 5.6314 11.286 1.8771-3.7622 3.7543-7.5243 5.6314-11.286v11.286"/>
 <circle cx="26.587" cy="10.589" r=".75" fill="#fff"/>
   <line class="a" x1="26.592" x2="26.592" y1="13.054" y2="20.531"/>
   <path class="a" d="m37.107 20.46v-4.6557c0-1.5519-1.2671-2.8216-2.8157-2.8216s-2.8157 1.2697-2.8157 2.8216v4.6557"/>
   <line class="a" x1="31.475" x2="31.475" y1="15.804" y2="12.983"/>
   <path class="a" d="m6.3619 23.102v11.286h5.6314"/>
  <path class="a" d="m23.175 33.026c-0.3415 0.84648-1.1383 1.4108-1.9352 1.4108-1.2522 0-2.2767-1.2697-2.2767-2.8216v-1.834c0-1.5519 1.0245-2.8216 2.2767-2.8216s2.2767 1.2697 2.2767 2.8216v0.98756h-4.5533"/>
  <path class="a" d="m14.736 28.459c0.33895-0.84648 1.1298-1.4108 1.9207-1.4108 1.2428 0 2.2597 1.2697 2.2597 2.8216v1.834c0 1.5519-1.0169 2.8216-2.2597 2.8216-1.2428 0-2.1731-0.96855-2.072-2.3187 0.10112-1.3502 2.3121-1.5434 4.3317-1.4904"/>
   <path class="a" d="m40.684 33.324c-0.42236 0.84648-1.4079 1.4108-2.3934 1.4108-1.5486 0-2.8157-1.2697-2.8157-2.8216v-1.834c0-1.5519 1.2671-2.8216 2.8157-2.8216 1.5486 0 2.8157 1.2697 2.8157 2.8216v0.98756h-5.6314"/>
   <path class="a" d="m32.288 26.995v8.4648c0 1.5519-1.2671 2.8216-2.8157 2.8216-0.84471 0-1.5486-0.28216-1.971-0.84648"/>
   <path class="a" d="m29.472 26.995c1.5486 0 2.8157 1.2697 2.8157 2.8216v1.834c0 1.5519-1.2671 2.8216-2.8157 2.8216s-2.8157-1.2697-2.8157-2.8216v-1.834c0-1.5519 1.2671-2.8216 2.8157-2.8216z"/>
</svg>
