<svg xmlns="http://www.w3.org/2000/svg" xml:space="preserve" id="svg990" width="48" height="48" version="1.1"><defs id="defs987"><style id="style1174">.a{fill:none;stroke:#fff;stroke-linecap:round;stroke-linejoin:round}</style></defs><path id="path10625" d="M38.466 8.094c7.117 14.179-2.83 22.36-11.14 24.2m-16.375 8.644c-8.368-14.918 1.82-23.53 10.36-25.47m-3.28-12.12c23.828 2.069 16.49 28.311 9.222 29.019m3.443 12.026c-15.246-1.325-17.73-12.55-15.636-20.646M2.786 20.605c8.733-14.715 21.763-9.595 27.466-3.01m15.05 9.24c-8.11 13.91-20.006 10.478-26.254 4.62M32.95 24A8.95 8.95 0 0 1 24 32.95 8.95 8.95 0 0 1 15.05 24 8.95 8.95 0 0 1 24 15.05 8.95 8.95 0 0 1 32.95 24Zm12.55 0A21.5 21.5 0 0 1 24 45.5 21.5 21.5 0 0 1 2.5 24 21.5 21.5 0 0 1 24 2.5 21.5 21.5 0 0 1 45.5 24Z" style="fill:none;fill-opacity:.99795;stroke:#fff;stroke-width:1;stroke-linecap:round;stroke-linejoin:round;stroke-dasharray:none;stroke-opacity:1;stop-color:#000"/></svg>