<?xml version="1.0" encoding="UTF-8" standalone="no"?>
<svg
   viewBox="0 0 48 48"
   version="1.1"
   id="svg8"
   xmlns="http://www.w3.org/2000/svg"
   xmlns:svg="http://www.w3.org/2000/svg">
  <defs
     id="defs4">
    <style
       id="style2">.a{fill:none;stroke:#fff;stroke-linecap:round;stroke-linejoin:round;}</style>
  </defs>
  <path
     class="a"
     d="m 26.400672,25.824 8.747792,-8.747792 M 36.602595,15.622077 40.224672,12 l 6,6 -5.582714,5.582714 m -5.123932,5.123932 -8.360348,8.360348 M 23.687672,40.537 22.224672,42 16.939263,36.714591 M 12.85155,32.626878 4.2246718,24 6.3168666,21.907805 M 7.5708743,20.653797 10.224672,18 l 5.93203,5.93203"
     id="path872" />
  <path
     class="a"
     d="m 39.624672,12.6 c -0.675183,-0.267085 -2.044179,-0.496976 -2.929637,-0.08419 -0.824136,0.3842 -1.472077,1.256823 -1.693124,2.138837 -0.251853,1.004935 0.0079,2.176911 0.551805,3.058664 0.471625,0.76457 1.305886,1.325726 2.155428,1.617749 0.815699,0.280389 2.587201,0.04742 2.587201,0.04742 0,0 -1.84405,-0.794276 -2.578894,-1.45263 -0.496051,-0.444417 -1.006852,-0.976154 -1.165275,-1.62305 -0.127212,-0.519453 -0.0018,-1.105064 0.227594,-1.588184 0.120157,-0.253091 0.304929,-0.52563 0.56932,-0.618311 C 37.564094,14.020933 38.024672,14.2 38.024672,14.2"
     id="path10218" />
  <path
     class="a"
     d="m 9.7246718,18.5 c 0,0 -1.6945143,-0.513456 -2.4860641,-0.253959 -0.5471038,0.179359 -1.0988644,0.612551 -1.2808877,1.158774 -0.2955529,0.886907 0.1189673,1.945098 0.535387,2.752992 0.3735018,0.724629 1.7702144,1.94537 2.3409174,2.056708 0,0 -0.5052766,-1.233379 -0.8219881,-1.842979 C 7.6299704,21.636144 7.0878377,20.481463 7.6851065,19.906966 7.8166431,19.780445 8.2246718,20 8.2246718,20"
     id="path10216" />
  <path
     class="a"
     d="m 26.012335,21.784145 c 0.04506,-1.392049 0.983646,-2.786989 1.584013,-3.866445 1.105116,-1.986992 1.972928,-3.740499 1.778711,-5.731404 C 29.068367,9.0424108 27.471535,5.6409183 24.870047,3.8491772 22.498341,2.2156953 18.996716,1.6993885 16.304517,2.721796 c -2.321994,0.8818158 -4.370465,3.2001685 -4.879883,5.6311656 -0.645842,3.0820244 0.877623,6.5283464 2.800046,9.0223944 1.00749,1.307064 1.843651,2.372856 2.170017,3.792216 0.211022,0.917735 0.06433,1.912219 -0.191194,2.818572 -0.695124,2.465646 -3.258593,4.266426 -3.561531,6.81021 -0.237445,1.993833 1.607677,3.841709 1.459882,5.844184 -0.138184,1.872252 -0.668265,4.054798 -2.152357,5.204535 -1.314036,1.017991 -3.3190597,1.069976 -4.9381716,0.693848 -1.3756143,-0.319562 -3.117532,-1.020845 -3.5060156,-2.378606 -0.2458882,-0.859386 0.3072178,-2.014366 1.0869369,-2.451451 0.9700353,-0.54377 3.307294,0.437827 3.307294,0.437827 0,0 -0.4127398,-1.183817 -2.0748947,-1.549789 -1.413414,-0.311205 -3.0680332,0.591095 -3.7032584,1.809294 -0.6106359,1.171043 -0.2376403,2.903238 0.6117485,3.914552 1.541698,1.835603 4.4125542,2.443421 6.8065647,2.321014 2.1750172,-0.111209 4.6071042,-1.003463 5.9366052,-2.728425 1.366057,-1.772391 1.817081,-4.009383 1.157559,-6.612669 -0.305942,-1.207626 -0.530939,-3.455603 0.500042,-4.604978 0.459214,-0.511949 1.426224,-0.799003 2.014949,-0.443515 2.326699,1.404926 0.526414,5.688749 2.15667,7.863516 1.164563,1.55353 3.033539,2.810292 4.959719,3.0542 2.672446,0.338407 5.57141,-0.764127 7.720318,-2.388529 1.979926,-1.496666 3.529458,-3.818156 4.057321,-6.243332 0.478031,-2.196233 0.04234,-4.358176 1.424854,-5.783011 1.011759,-1.042732 2.883733,-1.787536 4.198804,-1.169851 1.227665,0.57663 2.051717,2.414728 1.662334,3.713975 -0.278114,0.927977 -1.482167,1.536049 -2.450564,1.56241 -0.91008,0.02477 -2.379461,-1.340858 -2.379461,-1.340858 0,0 0.127328,1.745486 2.569131,2.352719 2.293193,0.570276 3.902778,-1.351938 4.04444,-2.627194 0.297614,-2.679149 -0.793129,-4.123195 -2.376806,-5.163325 -1.388687,-0.912064 -3.41762,-0.670777 -4.982954,-0.113962 -1.47705,0.525411 -2.733207,1.731963 -3.577755,3.052748 -1.095034,1.712519 -0.483674,4.20436 -1.64653,5.871568 -1.448195,2.076304 -3.624153,4.353814 -6.153774,4.450373 -1.31959,0.05037 -2.706808,-0.932704 -3.377784,-2.07009 -0.94965,-1.609771 -0.613393,-3.767593 -0.252139,-5.601359 0.348,-1.766488 2.271295,-4.90056 2.271295,-4.90056 0,0 -1.037629,-1.937502 -1.00364,-2.987468 z"
     id="path1720" />
  <path
     class="a"
     d="m 29.631332,34.679087 c 0,0 0.593389,0.803451 1.407084,1.755667 m 2.902566,2.760059 c 1.463492,0.893993 3.23379,1.693445 4.932946,1.461279 1.15153,-0.157341 2.388522,-0.835958 2.954887,-1.850851 0.531492,-0.952402 0.752378,-2.461702 0.02224,-3.271923 -0.383168,-0.425198 -1.204028,-0.520619 -1.709032,-0.166461 -0.692066,0.485345 -1.449045,1.852811 -1.449045,1.852811 0,0 -0.366021,-1.529543 0.522129,-2.411492 0.719836,-0.71481 1.960156,-1.059993 2.881267,-0.701356 1.077717,0.419611 1.794543,1.735384 1.9287,2.8841 0.196489,1.682433 -0.634525,3.509343 -1.775413,4.761367 -1.242468,1.363499 -3.168651,2.076827 -4.983767,2.40578 -1.985721,0.359872 -4.186893,0.126979 -6.029061,-0.551158 C 29.995361,43.1499 28.98031,42.213214 28.014824,41.287201"
     id="path10214" />
  <path
     class="a"
     d="m 19.824672,39.6 c 0,0 -1.595797,0.368617 -3.386444,0.660567 m -3.56586,0.347673 C 10.280365,40.545194 7.5244519,40.214562 5.2379625,39.118961 4.7875347,38.903132 4.3346004,38.657837 3.9028555,38.378834 M 2.7878601,37.523926 C 2.3610037,37.129928 1.990316,36.686708 1.7113007,36.187912 0.86429563,34.673722 0.5884758,32.72805 0.97128133,31.035817 1.2172581,29.948451 1.9410383,28.93111 2.8253599,28.252254 c 0.6467278,-0.496465 2.3169455,-0.783822 2.3169455,-0.783822 0,0 -1.4889305,1.099014 -1.9826407,1.858476 -0.4850072,0.746075 -0.8581584,1.63142 -0.8780554,2.521063 -0.026027,1.163747 0.3267799,2.396264 1.0000031,3.345872 0.3529236,0.497813 0.8001778,0.9407 1.3030906,1.311902 m 1.7969868,0.938026 c 1.674809,0.56348 3.559874,0.420321 5.2999742,0.112832 0.833074,-0.14721 2.36519,-0.920338 2.36519,-0.920338"
     id="path10208" />
  <path
     class="a"
     d="m 13.062144,33.532623 c 0,0 -1.74242,-0.02666 -2.495312,-0.405118 C 9.5147347,32.598643 8.4923381,31.750684 8.0322536,30.666744 7.6588912,29.787118 8.0246718,27.8 8.0246718,27.8"
     id="path10210" />
  <path
     class="a"
     d="m 6.5246718,26.3 c 0,0 -0.8151774,2.429215 -0.6400523,3.652947 0.2177638,1.52168 0.9468926,3.053967 2.0379416,4.136808 0.9285471,0.921561 2.2898699,1.302249 3.5336649,1.707772 0.796963,0.259839 2.47406,0.45059 2.47406,0.45059"
     id="path10212" />
  <circle
     class="a"
     id="path21636"
     cx="16.637203"
     cy="11.213413"
     r="2.5" />
  <circle
     class="a"
     id="path21638"
     cx="24.019663"
     cy="11.432527"
     r="2.5" />
  <circle
     style="fill:#fff"
     id="path21642"
     cx="16.588348"
     cy="11.176945"
     r="0.75" />
  <circle
     style="fill:#fff"
     id="path21642-3"
     cx="24.06918"
     cy="11.348372"
     r="0.75" />
  <path
     class="a"
     d="m 17.257819,16.412709 c 1.806318,2.633806 6.077724,2.480501 7.768563,-0.264413"
     id="path22626" />
</svg>
