<?xml version="1.0" encoding="UTF-8" standalone="no"?>
<svg
   version="1.1"
   viewBox="0 0 48 48"
   xml:space="preserve"
   id="svg10"
   xmlns="http://www.w3.org/2000/svg"
   xmlns:svg="http://www.w3.org/2000/svg"><defs
     id="defs6"><style
       id="style2">.a{fill:none;stroke:#fff;stroke-linecap:round;stroke-linejoin:round;}</style><style
       id="style4" /></defs><path
     style="fill:none;stroke:#ffffff;stroke-width:1;stroke-linecap:round;stroke-linejoin:round;stroke-dashoffset:0.5"
     d="M 7.8315668,42.132069 H 31.785001"
     id="path1" /><path
     style="fill:none;stroke:#ffffff;stroke-width:1;stroke-linecap:round;stroke-linejoin:round;stroke-dashoffset:0.5"
     d="m 24.905142,36.033109 c 0.06579,2.860917 0.620365,4.45096 1.152647,6.09896"
     id="path2" /><path
     style="fill:none;stroke:#ffffff;stroke-width:1;stroke-linecap:round;stroke-linejoin:round;stroke-dashoffset:0.5"
     d="m 28.11094,28.540651 c 2.096781,4.968818 -4.718646,7.888694 -9.401273,12.859652"
     id="path3" /><path
     style="fill:none;stroke:#ffffff;stroke-width:1;stroke-linecap:round;stroke-linejoin:round;stroke-dashoffset:0.5"
     d="m 27.966366,32.426461 c -0.05698,0.587782 -0.03672,1.169623 0.216615,1.733534 0.863764,1.310309 0.714977,1.926807 0.857686,2.665585 0.563573,1.76883 1.322369,3.537659 2.744334,5.306489"
     id="path4" /><path
     style="fill:none;stroke:#ffffff;stroke-width:1;stroke-linecap:round;stroke-linejoin:round;stroke-dashoffset:0.5"
     d="m 6.8770313,32.160805 c 0.8370639,1.460718 1.0896264,3.281142 1.3147374,5.11846 l -0.6303535,0.230723 c -0.1167155,0.658199 -0.1108445,1.298885 0.1080601,1.909136 l 0.8284652,0.324193 c 0.14252,0.822297 -0.1375651,1.614408 -0.6663739,2.388752"
     id="path5" /><path
     style="fill:none;stroke:#ffffff;stroke-width:1;stroke-linecap:round;stroke-linejoin:round;stroke-dashoffset:0.5"
     d="m 6.8770313,32.160805 9.1921407,-2.403554 8.990955,0.229239 -7.691979,3.948005 0.127352,2.980108"
     id="path6" /><path
     style="fill:none;stroke:#ffffff;stroke-width:1;stroke-linecap:round;stroke-linejoin:round;stroke-dashoffset:0.5"
     d="m 6.8770313,32.160805 10.4911167,1.77369"
     id="path7" /><path
     style="fill:none;stroke:#ffffff;stroke-width:1;stroke-linecap:round;stroke-linejoin:round;stroke-dashoffset:0.5"
     d="m 27.021328,28.22899 c -1.299506,0.359395 -1.893277,1.141055 -1.961201,1.7575"
     id="path9" /><path
     style="fill:none;stroke:#ffffff;stroke-width:1;stroke-linecap:round;stroke-linejoin:round;stroke-dashoffset:0.5"
     d="m 25.060127,29.98649 c -0.397616,2.50063 -4.202254,5.856292 -6.03642,8.481844 -0.581506,-0.196469 -1.113639,-0.613046 -1.528207,-1.553731 0.0082,0.619793 0.03094,1.239588 -0.02547,1.859382 -4.086394,1.354469 0.107574,3.62844 1.239639,2.626318"
     id="path10" /><path
     style="fill:none;stroke:#ffffff;stroke-width:1;stroke-linecap:round;stroke-linejoin:round;stroke-dashoffset:0.5"
     d="M 10.007281,30.368555 8.147962,25.65642 6.9508662,21.504647 C 2.3861622,21.140438 10.060957,11.305986 9.9563415,11.902079 L 9.5742885,13.96523 C 12.114912,10.346002 14.888182,7.1212763 18.972767,6.1201617 22.267523,5.8674299 24.645998,5.6282393 27.046798,6.3494008 36.460962,8.9753041 43.600884,19.090917 42.350258,18.779249 40.177796,16.385536 37.95037,14.07427 35.37553,12.284144 c 2.509776,3.072915 4.076925,5.548454 6.061892,9.042205 0,0 -1.163764,-0.528825 -1.298977,-0.25471 -0.338769,0.686781 -1.215099,4.449025 -1.018805,4.228186 0,0 -0.356582,-1.732027 -0.382052,-1.630143 -0.02547,0.101888 -1.197097,2.699926 -1.197097,2.699926 l -0.560342,-2.317862 -0.687693,1.222608 -0.203762,3.514999 -0.764104,-2.725398 c -1.596525,2.275093 -4.201438,3.925925 -4.533682,6.983695 l -1.528209,-2.831921 0.05094,-2.980107 -2.710896,2.205895 c 1.729365,-2.726921 1.990697,-5.404906 1.69209,-8.064225"
     id="path11" /><path
     style="fill:none;stroke:#ffffff;stroke-width:1;stroke-linecap:round;stroke-linejoin:round;stroke-dashoffset:0.5"
     d="m 33.49067,28.231143 4.992217,3.384689 -0.993336,0.637577 0.127351,1.082519 -4.484163,-4.709292 3.325883,5.852832 -1.413792,-0.355495 -0.576323,1.179702 -2.079764,-5.800606"
     id="path12" /><path
     style="fill:none;stroke:#ffffff;stroke-width:1;stroke-linecap:round;stroke-linejoin:round;stroke-dashoffset:0.5"
     d="m 12.438849,21.245757 c 0.926835,1.789853 1.984705,3.565666 0.442776,5.620037 2.768563,2.48516 6.308299,1.114327 9.570766,1.129884 l -0.03028,1.923551"
     id="path13" /><path
     style="fill:none;stroke:#ffffff;stroke-width:1;stroke-linecap:round;stroke-linejoin:round;stroke-dashoffset:0.5"
     d="m 28.104389,25.893294 -2.499467,0.836257 0.09928,2.165893"
     id="path14" /><path
     style="fill:none;stroke:#ffffff;stroke-width:1;stroke-linecap:round;stroke-linejoin:round;stroke-dashoffset:0.5"
     d="m 28.294835,21.377292 c -4.766038,1.347422 -7.145581,0.436768 -6.25116,-3.571679 1.701213,-4.231954 9.198873,2.511247 6.25116,3.571679 z"
     id="path17" /><path
     style="fill:none;stroke:#ffffff;stroke-width:1;stroke-linecap:round;stroke-linejoin:round;stroke-dashoffset:0.5"
     d="m 13.35846,21.041392 c 1.141858,2.685024 4.7871,4.633858 3.201609,-0.919642 -0.71701,-2.49436 -4.000143,-0.922916 -3.201609,0.919642 z"
     id="path18" /><path
     style="fill:none;stroke:#ffffff;stroke-width:1;stroke-linecap:round;stroke-linejoin:round;stroke-dashoffset:0.5"
     d="m 16.560069,20.12175 c -2.422403,1.000306 -1.186573,2.297235 -0.375608,3.559715"
     id="path19" /><path
     style="fill:none;stroke:#ffffff;stroke-width:1;stroke-linecap:round;stroke-linejoin:round;stroke-dashoffset:0.5"
     d="m 12.438849,21.245757 0.03406,3.916996 -3.3936525,-2.64532 0.907297,4.178057 -1.8385915,-1.03907"
     id="path20" /><path
     style="fill:none;stroke:#ffffff;stroke-width:1;stroke-linecap:round;stroke-linejoin:round;stroke-dashoffset:0.5"
     d="m 26.320465,17.204053 c 0.184879,1.754033 -0.08321,3.306739 -0.715543,4.697554"
     id="path21" /><path
     style="fill:none;stroke:#ffffff;stroke-width:1;stroke-linecap:round;stroke-linejoin:round;stroke-dashoffset:0.5"
     d="m 24.952358,16.576597 c -2.057192,0.949769 -1.366465,4.147434 -0.59217,5.32501"
     id="path22" /><path
     style="fill:none;stroke:#ffffff;stroke-width:1;stroke-linecap:round;stroke-linejoin:round;stroke-dashoffset:0.5"
     d="m 12.582602,33.125422 c 0.0328,1.824628 -0.148667,3.890309 0.483572,5.040544"
     id="path23" /><path
     style="fill:none;stroke:#ffffff;stroke-width:1;stroke-linecap:round;stroke-linejoin:round;stroke-dashoffset:0.5"
     d="m 20.62227,5.9938755 c 10.394151,4.6251805 18.407676,9.6696895 17.587413,16.2702035 -1.204314,-3.589581 -3.54832,-6.039431 -5.879728,-8.50188 1.828719,3.714788 3.922164,7.365674 3.962501,11.512155"
     id="path24" /><path
     style="fill:none;stroke:#ffffff;stroke-width:1;stroke-linecap:round;stroke-linejoin:round;stroke-dashoffset:0.5"
     d="m 16.560069,20.12175 c 2.444724,1.692514 4.815498,2.07703 7.144232,1.717944 -3.964893,-1.22365 -5.327391,-5.22757 -7.386811,-8.486933"
     id="path25" /><path
     style="fill:none;stroke:#ffffff;stroke-width:1;stroke-linecap:round;stroke-linejoin:round;stroke-dashoffset:0.5"
     d="m 29.313641,27.235622 c 1.433213,-2.595758 1.869734,-3.765627 2.802835,-5.645914 -0.707129,3.288498 -1.33967,6.703225 -2.853777,8.626021"
     id="path26" /><path
     style="fill:none;stroke:#ffffff;stroke-width:1;stroke-linecap:round;stroke-linejoin:round;stroke-dashoffset:0.5"
     d="m 18.701787,26.57523 1.106496,0.09634"
     id="path27" /><path
     style="fill:none;stroke:#ffffff;stroke-width:1;stroke-linecap:round;stroke-linejoin:round;stroke-dashoffset:0.5"
     d="m 23.60269,9.4269641 c 1.830262,1.9666629 4.199457,3.5845919 3.963592,6.8882069 -1.852733,-0.687413 -3.953253,-1.09036 -4.962916,-2.745648 0.421562,1.766957 0.713903,3.313672 0.08824,3.295745 -0.856606,-0.57994 -1.734657,-1.218528 -2.6808,-2.043344"
     id="path28" /><path
     style="fill:none;stroke:#ffffff;stroke-width:1;stroke-linecap:round;stroke-linejoin:round;stroke-dashoffset:0.5"
     d="m 29.520775,12.807787 c 5.029743,6.157559 4.221101,10.418041 2.867968,16.695282"
     id="path29" /><path
     style="fill:none;stroke:#ffffff;stroke-width:1;stroke-linecap:round;stroke-linejoin:round;stroke-dashoffset:0.5"
     d="m 9.5742885,13.96523 c -1.9088588,3.863869 1.6914695,5.968611 3.4435735,2.066394"
     id="path30" /><path
     style="fill:none;stroke:#ffffff;stroke-width:1;stroke-linecap:round;stroke-linejoin:round;stroke-dashoffset:0.5"
     d="m 6.9508662,21.504647 c 1.4435406,0.194176 3.8364168,-1.517024 5.7431848,-2.265545"
     id="path31" /></svg>
