<svg width="48" height="48" version="1.1" viewBox="0 0 48 48" xmlns="http://www.w3.org/2000/svg">
 <defs>
  <style>.a{fill:none;stroke:#fff;stroke-linecap:round;stroke-linejoin:round;}</style>
 </defs>
 <g transform="translate(.41593 .28794)" fill="none" stroke="#fff" stroke-miterlimit="5.052">
  <g stroke-linecap="round" stroke-linejoin="round">
   <circle cx="38.196" cy="14.946" r="3.898" stop-color="#000000" style="paint-order:markers fill stroke"/>
   <path d="m5.0734 15.448c2e-7 -2.4297 1.9697-4.3994 4.3994-4.3994 2.4297 0 3.0625 1.207 3.7985 2.1346l8.6312 11.085" stop-color="#000000" style="paint-order:markers fill stroke"/>
   <path d="m31.945 31.976c0 2.4297-1.9697 4.3994-4.3994 4.3994-2.4297 0-4.3994-1.9697-4.3994-4.3994" stop-color="#000000" style="paint-order:markers fill stroke"/>
  </g>
  <path d="m5.0734 31.976v-16.529"/>
  <g stroke-linecap="round" stroke-linejoin="round">
   <path d="m15.032 29.147-1.1602-1.4929v4.3221c0 2.4297-1.9697 4.3994-4.3994 4.3994-2.4297 0-4.3994-1.9697-4.3994-4.3994"/>
   <path d="m23.147 31.976v-4.3221l-1.1602 1.4929"/>
   <path d="m8.6212 20.898 5.251 6.7564"/>
   <path d="m23.147 27.654 5.3204-6.8578"/>
  </g>
  <path d="m15.032 29.147s3.2075 4.5895 6.9539 0"/>
  <g stroke-linecap="round">
   <path d="m8.652 20.929c-1.4693-1.8325-3.2841-0.69727-3.5701 1.0234"/>
   <path d="m21.903 24.268c1.3715 1.5856 3.1253 1.0912 4.1567-0.36346"/>
   <path d="m28.467 20.796c1.2081-1.5887 3.1566-0.87192 3.4673 0.31282"/>
   <path d="m16.48 17.277c1.3552 1.7966 2.7033 1.8325 4.13 0.05537l3.3634-4.3506c0.65316-0.77139 1.1427-1.9334 3.5724-1.9334 2.4297 0 4.3994 1.9697 4.3994 4.3994v16.529"/>
  </g>
  <path d="m38.195 20.528c-2.1528 0-3.8976 1.7448-3.8976 3.8976v8.0525c0 2.1528 1.7448 3.8976 3.8976 3.8976s3.8993-1.7448 3.8993-3.8976v-8.0525c0-2.1528-1.7465-3.8976-3.8993-3.8976z"/>
 </g>
</svg>
