<svg xmlns="http://www.w3.org/2000/svg" xml:space="preserve" width="48" height="48"><path d="M16.778 28v0c-1.5 0-2.6-1.2-2.6-2.6v-2.7c0-1.5 1.2-2.7 2.6-2.7v0c1.5 0 2.7 1.2 2.7 2.7v2.6c0 1.5-1.2 2.7-2.7 2.7zM26.9 24h-3.2m3.2 0c1.1 0 2 .9 2 2s-.9 2-2 2h-3.3v-8h3.3c1.1 0 2 .9 2 2s-.9 2-2 2zm4.422-4v5.3c0 1.5 1.2 2.7 2.6 2.7 1.4 0 2.6-1.2 2.6-2.7V20m2.522 7.1c.5.6 1.1.9 2 .9h1.2c1.1 0 2-.9 2-2v0c0-1.1-.9-2-2-2h-1.3c-1.1 0-2-.9-2-2v0c0-1.1.9-2 2-2h1.2c.9 0 1.5.2 2 .9m-40.388 7V20l4 8 4-8v8M45.5 30.804C42.379 39.533 33.73 45.407 24 45.407S5.621 39.533 2.51 30.813h31.537L28.98 35.62M2.5 17.01C5.621 8.282 14.27 2.408 24 2.408s18.379 5.874 21.5 14.604H13.974l5.067-4.8" class="st5" style="fill:none;stroke:#fff;stroke-linecap:round;stroke-linejoin:round;stroke-miterlimit:10"/></svg>