<svg width="48" height="48" version="1.1" viewBox="0 0 48 48" xmlns="http://www.w3.org/2000/svg">
 <g fill="none" stroke="#fff" stroke-linecap="round" stroke-linejoin="round">
  <path d="m18.799 25.13s0.96926 4.5014 5.294 4.5014c4.3247 0 4.9129-4.5168 4.9129-4.5168"/>
  <path d="m20.97 32.086s0.93576 8.7032 1.6687 11.75"/>
  <path d="m24.33 45.5s1.6815-4.2285 2.4266-13.235"/>
  <path d="m25.778 16.631c-2.7106 2.0363-3.7379 3.519-2.7368 6.9561 1.0012 3.437 1.3982 3.5177 1.3982 3.5177s-0.7247-3.5049 2.2334-5.8109c2.9581-2.3059 4.4028-5.2716 3.0733-9.7323-1.3295-4.4607-5.1824-9.062-5.1824-9.062s0.32462 6.3377-2.5151 9.3471c-1.6724 1.7722-5.5115 3.9948-3.9239 8.2703 1.5876 4.2756 3.004 3.6251 3.004 3.6251s-2.5073-4.309 0.65212-7.0446c3.1594-2.7356 4.6496-3.7447 4.716-6.5515 0 0 1.9918 4.4487-0.71881 6.485z"/>
 </g>
</svg>
