<svg version="1.1" viewBox="0 0 48 48" xmlns="http://www.w3.org/2000/svg">
<defs>
<style>.a{fill:none;stroke:#fff;stroke-linecap:round;stroke-linejoin:round;}</style>
</defs>
<path class="a" d="m27 11.1c-.0646 2.27-.493 2.81-2.89 2.8-2.28-.0111-3.15-.488-3.12-2.75.0313-2.1.619-2.45 2.94-2.49 2.47-.0339 3.13.529 3.07 2.44z"/>
<path class="a" d="m33.5 28.1c.0373 6.85-3.82 11.5-9.63 11.4-5.2-.0702-9.42-3.95-9.38-11.4.0362-7.42 3.53-11.1 9.44-11.3 5.82-.172 9.53 4.17 9.56 11.3z"/>
<path class="a" d="m28.2 28.2c-.031 4.71-1.18 7.36-4.27 7.35-2.76-.0044-4.04-2.69-4.06-7.34-.0192-4.89 1.56-7.27 4.14-7.35 2.35-.0781 4.23 2.17 4.2 7.34z"/>
</svg>
