<svg viewBox="0 0 48 48" xmlns="http://www.w3.org/2000/svg">
    <style>
        .a{fill:none;stroke:#FFFFFF;stroke-linecap:round;stroke-linejoin:round}
    </style>
    <path class="a" d="M23.6662903,7.2569141l-7.9419804,3.7020645v27.1106739c0,0.345993-0.3376999,0.5912056-0.6666994,0.4841156  L8.5,36.4191971V8.697854l8.6375122-4.0247993l6.500885,2.1221023C23.8528519,6.8651619,23.8707581,7.1616035,23.6662903,7.2569141  z"/>
    <path class="a" d="M27.5952148,19.9050121V33.869545c0,0.315506-0.3077354,0.5392723-0.6078758,0.4420052l-7.7639675-2.5160522  c-0.1044559-0.0338497-0.1752052-0.1311493-0.1752052-0.2409554V17.5899487c0-0.3155098,0.3077374-0.5392742,0.6078777-0.4420052  l7.7639656,2.5161133C27.5244656,19.6979084,27.5952148,19.795208,27.5952148,19.9050121z"/>
    <path class="a" d="M39.5,11.9425621v27.6309471l-7.9270115,3.7013359  c-0.2888699,0.1348801-0.6200371-0.0759773-0.6200371-0.3947868V15.8655806l-11.0928879-3.5979929  c-0.2335567-0.0757542-0.2533321-0.3985043-0.0307713-0.5022068l7.8450699-3.6554413l3.2785892,1.0627308L39.5,11.9425621z"/>
</svg>
