<?xml version="1.0" encoding="UTF-8"?>
<svg id="a" version="1.1" viewBox="0 0 48 48" xml:space="preserve" xmlns="http://www.w3.org/2000/svg"><defs><style>.b{fill:none;stroke:#fff;stroke-linecap:round;stroke-linejoin:round;}</style></defs><circle class="b" cx="24" cy="24" r="21.5"/><path d="m15.994 20.684h-3.476l-2.5741 3.3162 2.5741 3.3162h3.476l-2.4579 2.4579 0.52477 4.165 4.165 0.52477 2.4579-2.4579 3e-6 3.476 3.3162 2.5741 3.3162-2.5741v-3.476l2.4579 2.4579 4.165-0.52477 0.52477-4.165-2.4579-2.4579h3.476l2.5741-3.3162-2.5741-3.3162h-3.476l2.4579-2.4579-0.52477-4.165-4.165-0.52477-2.4579 2.4579-3e-6 -3.476-3.3162-2.5741-3.3162 2.5741v3.4864l-2.4579-2.4683-4.165 0.52477-0.52477 4.165z" fill="none" stroke="#fff" stroke-linecap="round" stroke-linejoin="round" stroke-width="1px"/><path transform="matrix(.95 0 0 .95 1.2 4.7349)" d="m37.371 7.1029 1.2137 0.15107 0.01316 1.223 1.193 0.2693-0.10678 1.2184 1.1609 0.38494-0.22568 1.202 1.1175 0.49687-0.34242 1.1741 1.0635 0.60401-0.45585 1.1349 0.99914 0.70534-0.5649 1.0848 0.92519 0.79988-0.6685 1.0242 0.84234 0.88671-0.76566 0.9537 0.75137 0.96501-0.85546 0.87406 0.65316 1.034-0.93701 0.786 0.54867 1.093-1.0095 0.69038 0.43889 1.1416-1.0723 0.5881 0.32488 1.1791-1.1248 0.48016 0.20775 1.2053-1.1665 0.3676 0.08861 1.2198-1.1969 0.25149-0.03138 1.2226-1.2158 0.13296-0.15106 1.2137-1.223 0.01316-0.2693 1.193-1.2184-0.10678-0.38494 1.1609-1.202-0.22568-0.49687 1.1175-1.1741-0.34242-0.60401 1.0635-1.1349-0.45585-0.70534 0.99914-1.0848-0.5649-0.79988 0.9252-1.0242-0.6685-0.88671 0.84234-0.9537-0.76566-0.96501 0.75137-0.87406-0.85546-1.034 0.65316-0.786-0.93701-1.093 0.54867-0.69038-1.0095-1.1416 0.43889-0.5881-1.0723-1.1791 0.32488-0.48016-1.1248-1.2053 0.20775-0.36759-1.1665-1.2198 0.08861-0.25149-1.1969-1.2226-0.03138-0.13297-1.2158-1.2137-0.15107-0.013156-1.223-1.193-0.2693 0.10678-1.2184-1.1609-0.38494 0.22568-1.202-1.1175-0.49687 0.34242-1.1741-1.0635-0.60402 0.45585-1.1349-0.99914-0.70534 0.56489-1.0848-0.92519-0.79988 0.6685-1.0242-0.84234-0.88671 0.76567-0.9537-0.75137-0.96501 0.85546-0.87406-0.65316-1.034 0.93701-0.786-0.54867-1.093 1.0095-0.69038-0.43889-1.1416 1.0723-0.5881-0.32488-1.1791 1.1248-0.48016-0.20775-1.2053 1.1665-0.36759-0.08861-1.2198 1.1969-0.25149 0.031379-1.2226 1.2158-0.13296 0.15106-1.2137 1.223-0.013156 0.2693-1.193 1.2184 0.10678 0.38494-1.1609 1.202 0.22568 0.49687-1.1175 1.1741 0.34242 0.60401-1.0635 1.1349 0.45585 0.70534-0.99914 1.0848 0.56489 0.79988-0.92519 1.0242 0.6685 0.88671-0.84234 0.9537 0.76567 0.96501-0.75137 0.87406 0.85546 1.034-0.65316 0.786 0.93701 1.093-0.54867 0.69038 1.0095 1.1416-0.43889 0.5881 1.0723 1.1791-0.32488 0.48016 1.1248 1.2053-0.20775 0.36759 1.1665 1.2198-0.08861 0.25149 1.1969 1.2226 0.031379z" fill="none" stroke="#fff" stroke-linecap="round" stroke-linejoin="round" stroke-width="1.0526"/></svg>
