<?xml version="1.0" encoding="UTF-8"?>
<svg id="a" version="1.1" viewBox="0 0 48 48" xml:space="preserve" xmlns="http://www.w3.org/2000/svg"><defs><style>.b{fill:none;stroke:#fff;stroke-linecap:round;stroke-linejoin:round;}</style></defs><path d="m15.994 20.684h-3.476l-2.5741 3.3162 2.5741 3.3162h3.476l-2.4579 2.4579 0.52477 4.165 4.165 0.52477 2.4579-2.4579 3e-6 3.476 3.3162 2.5741 3.3162-2.5741v-3.476l2.4579 2.4579 4.165-0.52477 0.52477-4.165-2.4579-2.4579h3.476l2.5741-3.3162-2.5741-3.3162h-3.476l2.4579-2.4579-0.52477-4.165-4.165-0.52477-2.4579 2.4579-3e-6 -3.476-3.3162-2.5741-3.3162 2.5741v3.4864l-2.4579-2.4683-4.165 0.52477-0.52477 4.165z" fill="none" stroke="#fff" stroke-linecap="round" stroke-linejoin="round" stroke-width="1px"/><path transform="matrix(.93792 0 0 .93792 38.679 -32.657)" d="m0.66033 76.718-1.4356 0.09675-0.237 1.4192-1.4381-0.04442-0.37496 1.3891-1.4269-0.18517-0.50931 1.3457-1.4018-0.32414-0.63876 1.2893-1.3633-0.45998-0.76205 1.2205-1.3117-0.5914-0.87801 1.1399-1.2474-0.71711-0.98551 1.0483-1.1711-0.83593-1.0835 0.94669-1.0835-0.94669-1.1711 0.83593-0.98551-1.0483-1.2474 0.71711-0.87801-1.1399-1.3117 0.5914-0.76205-1.2205-1.3633 0.45998-0.63876-1.2893-1.4018 0.32414-0.50931-1.3457-1.4269 0.18517-0.37496-1.3891-1.4381 0.04442-0.237-1.4192-1.4356-0.09675-0.09675-1.4356-1.4192-0.237 0.04442-1.4381-1.3891-0.37496 0.18517-1.4269-1.3457-0.50931 0.32414-1.4018-1.2893-0.63876 0.45998-1.3633-1.2205-0.76205 0.5914-1.3117-1.1399-0.87801 0.71711-1.2474-1.0483-0.98551 0.83593-1.1711-0.94669-1.0835 0.94669-1.0835-0.83593-1.1711 1.0483-0.98551-0.71711-1.2474 1.1399-0.87801-0.5914-1.3117 1.2205-0.76205-0.45998-1.3633 1.2893-0.63876-0.32414-1.4018 1.3457-0.50931-0.18517-1.4269 1.3891-0.37496-0.04442-1.4381 1.4192-0.237 0.09675-1.4356 1.4356-0.09675 0.237-1.4192 1.4381 0.04442 0.37496-1.3891 1.4269 0.18517 0.50931-1.3457 1.4018 0.32414 0.63876-1.2893 1.3633 0.45998 0.76205-1.2205 1.3117 0.5914 0.87801-1.1399 1.2474 0.71712 0.98551-1.0483 1.1711 0.83593 1.0835-0.94669 1.0835 0.94669 1.1711-0.83593 0.98551 1.0483 1.2474-0.71712 0.87801 1.1399 1.3117-0.5914 0.76205 1.2205 1.3633-0.45998 0.63876 1.2893 1.4018-0.32414 0.50931 1.3457 1.4269-0.18517 0.37496 1.3891 1.4381-0.04442 0.237 1.4192 1.4356 0.09675 0.096754 1.4356 1.4192 0.237-0.044423 1.4381 1.3891 0.37496-0.18517 1.4269 1.3457 0.50931-0.32414 1.4018 1.2893 0.63876-0.45998 1.3633 1.2205 0.76205-0.5914 1.3117 1.1399 0.87801-0.71711 1.2474 1.0483 0.98551-0.83593 1.1711 0.94669 1.0835-0.94669 1.0835 0.83593 1.1711-1.0483 0.98551 0.71711 1.2474-1.1399 0.87801 0.5914 1.3117-1.2205 0.76205 0.45998 1.3633-1.2893 0.63876 0.32414 1.4018-1.3457 0.50931 0.18517 1.4269-1.3891 0.37496 0.044423 1.4381-1.4192 0.237z" fill="none" stroke="#fff" stroke-linecap="round" stroke-linejoin="round" stroke-width="1.0662"/></svg>
