<?xml version="1.0" encoding="UTF-8" standalone="no"?>
<svg
   xmlns:dc="http://purl.org/dc/elements/1.1/"
   xmlns:cc="http://creativecommons.org/ns#"
   xmlns:rdf="http://www.w3.org/1999/02/22-rdf-syntax-ns#"
   xmlns:svg="http://www.w3.org/2000/svg"
   xmlns="http://www.w3.org/2000/svg"
   viewBox="0 0 48 48"
   version="1.1"
   id="svg881">
  <metadata
     id="metadata885">
    <rdf:RDF>
      <cc:Work
         rdf:about="">
        <dc:format>image/svg+xml</dc:format>
        <dc:type
           rdf:resource="http://purl.org/dc/dcmitype/StillImage" />
        <dc:title></dc:title>
      </cc:Work>
    </rdf:RDF>
  </metadata>
  <path
     id="circle1167"
     style="display:inline;fill:none;stroke:#ffffff;stroke-width:1;stroke-linecap:round;stroke-linejoin:round;stroke-miterlimit:4;stroke-dasharray:none"
     d="M 45.5,24 C 45.5,35.874122 35.874122,45.5 24,45.5 12.125878,45.5 2.5,35.874122 2.5,24 2.5,12.125878 12.125878,2.5 24,2.5 35.874122,2.5 45.5,12.125878 45.5,24 Z m -12.507891,8.509053 c 1.820564,-0.128969 2.671746,0.171361 3.393148,0.539521 2.147308,1.246474 1.168467,3.322786 0.920687,3.584783 -2.382804,-1.612465 -3.204191,-1.556328 -3.752188,-1.6303 0.06451,-0.996282 -0.561647,-2.494004 -0.561647,-2.494004 z m -20.06998,3.769323 c 1.502998,-0.971688 9.597956,-3.227474 12.241066,-3.204272 0.146113,1.412287 0.359564,1.974976 0.537319,2.476542 -3.964401,-0.07079 -10.153703,1.510536 -10.698406,1.392227 -1.475469,-0.007 -2.132801,-0.500707 -2.079979,-0.664497 z m -2.58663,-18.885393 c 1.900536,-4.800707 4.368965,-6.879639 4.937891,-7.164046 0.438422,-0.274143 1.413515,-0.3728714 2.218601,-0.09666 0.328441,0.148748 0.692264,0.364444 0.894234,0.654076 0.443688,0.444908 -1.685339,9.68006 -2.267556,13.561243 1.46619,-5.140616 4.495504,-10.600506 6.908141,-11.016148 0.921777,-0.183077 2.133252,0.332329 2.595178,1.466127 0.07864,0.857475 -1.475228,6.09471 -1.713667,8.016972 4.115067,-10.05617 6.317871,-9.872962 6.805271,-9.894371 1.614124,0.09357 1.754002,0.318166 2.524413,1.067335 0.231298,0.535592 0.274267,1.038368 0.250812,1.302729 -2.246629,11.395941 -3.335565,18.69474 -1.28248,21.647059 -4.243347,1.200915 -4.749246,-2.514251 -5.061092,-4.231179 -0.481605,-2.66579 2.249383,-15.325254 2.396894,-15.66106 -3.166248,3.163326 -5.576573,11.211269 -6.234108,12.666574 -0.630229,0.98716 -1.412521,1.054485 -2.278123,1.317791 -0.666781,0.01579 -0.845705,-0.547557 -0.900802,-0.830841 -0.408987,-3.226533 1.491905,-12.574105 1.610601,-12.699474 -3.12798,3.442145 -6.011174,14.028159 -6.453848,15.169782 -0.347831,0.838333 -1.484567,1.214944 -2.297383,1.572904 -0.587115,-0.05812 -0.975305,-0.988558 -1.08552,-1.561733 -0.369017,-2.063522 2.28969,-17.434832 2.399011,-18.063034 -0.649798,0.889995 -2.612351,3.805565 -2.999909,4.18055 -0.324763,0.232092 -0.620288,0.04919 -0.777386,-0.119982 -0.428157,-0.238035 -0.189173,-1.284614 -0.189173,-1.284614 z" />
</svg>
