<?xml version="1.0" encoding="UTF-8"?>
<!DOCTYPE svg PUBLIC "-//W3C//DTD SVG 1.1//EN" "http://www.w3.org/Graphics/SVG/1.1/DTD/svg11.dtd">
<!-- Creator: CorelDRAW 2020 (64-Bit) -->
<svg xmlns="http://www.w3.org/2000/svg" xml:space="preserve" width="48px" height="48px" version="1.1" style="shape-rendering:geometricPrecision; text-rendering:geometricPrecision; image-rendering:optimizeQuality; clip-rule:evenodd"
viewBox="0 0 48 48"
 xmlns:xlink="http://www.w3.org/1999/xlink"
 xmlns:xodm="http://www.corel.com/coreldraw/odm/2003">
 <defs>
  <style type="text/css">
   <![CDATA[
    .str0 {stroke:white;stroke-width:0.756;stroke-miterlimit:22.9256}
    .fil0 {fill:none}
   ]]>
  </style>
 </defs>
 <g id="Layer_x0020_1">
  <metadata id="CorelCorpID_0Corel-Layer"/>
  <g id="_1778320150976">
   <rect class="fil0 str0" x="4.137" y="3.987" width="39.875" height="40.1" rx="8" ry="8"/>
   <path class="fil0 str0" d="M44.013 19.497l0 16.591c0,4.4 -3.6,7.999 -8,7.999l-23.876 0c-4.4,0 -8,-3.599 -8,-7.999l0 -16.591c0,4.893 4.004,8.896 8.897,8.896l22.082 0c4.893,0 8.897,-4.003 8.897,-8.896z"/>
   <line class="fil0 str0" x1="14.113" y1="20.788" x2="34.268" y2= "20.788" />
   <path class="fil0 str0" d="M30.541 20.788c1.135,-1.403 1.816,-3.189 1.816,-5.134 0,-4.51 -3.656,-8.167 -8.167,-8.167 -4.51,0 -8.166,3.657 -8.166,8.167 0,1.945 0.681,3.731 1.816,5.134l12.701 0z"/>
   <circle class="fil0 str0" cx="13.088" cy="32.529" r="2.062"/>
   <circle class="fil0 str0" cx="34.756" cy="32.529" r="2.062"/>
   <ellipse class="fil0 str0" cx="23.735" cy="37.311" rx="6.5" ry="5.167"/>
   <circle class="fil0 str0" cx="20.703" cy="37.128" r="1.105"/>
   <circle class="fil0 str0" cx="27.17" cy="37.128" r="1.105"/>
   <path class="fil0 str0" d="M25.753 9.382l-1.315 0c-0.829,1.872 -2.327,3.341 -4.164,4.057l0 0.501 2.187 0 0 6.848 3.292 0 0 -6.848 0 -4.558z"/>
  </g>
 </g>
</svg>
