<?xml version="1.0" encoding="UTF-8"?>
<svg version="1.1" viewBox="0 0 48 48" xmlns="http://www.w3.org/2000/svg">
 <defs>
  <style>.a{fill:none;stroke:#fff;stroke-linecap:round;stroke-linejoin:round;}.b{fill:#fff;}</style>
 </defs>
 <path class="a" d="m8.621 19.34s2.238 2.321 3.725 2.556c3.914 0.6183 8.368-0.8222 11.4-3.376 2.369-1.997 3.363-4.476 4.108-8.338 0 0-1.57-0.3722-2.195-0.845-0.7689-0.5812-1.28-1.061-1.736-2.313 2.637-0.1123 4.161 1.428 6.383 0.8614 0.2249-1.078-0.344-2.316-1.344-3.688 2.63 1.465 2.982 1.884 4.863 3.831 0.04198-1.299-0.5245-2.735-1.479-3.988 2.089 0.8907 3.643 2.642 4.268 4.248 0.8419 0.2931 1.264-0.7292 4.065-0.9198-0.9593 1.683-2.118 3.109-3.478 4.221-0.1754 0.824 0.3116 1.667 0.6254 2.449 0.3577 0.8915 1.248 1.565 1.415 2.511 0.1238 0.7034 0.09656 1.557-0.3515 2.114-0.523 0.6491-0.8835 0.9522-2.323 0.9258-0.2084 1.039 0.1309 1.72 0.7912 2.548-2.023 0.03273-2.396-1.695-2.118-2.839l-1.132-0.8329-4.106 25.54h-1.513l0.236-13.13c-2.096 3.922-2.591 8.569-3.254 13.13h-1.843l0.484-9.198c0.03728-0.7085-0.9394-1.917-1.816-2.411-1.364-0.7692-3.114-0.6066-4.675-0.4755-1.88 0.1579-3.822 0.5599-5.456 1.504-0.3965 0.2291-0.9775 0.9651-0.9775 0.9651l0.02783 9.615h-1.909l-1.772-10.51s0.1094-0.4776 0.1998-0.7042c0.3012-0.755 1.004-1.23 1.132-2.16l1.041-7.55c0.09376-0.6803-1.284-3.74-1.284-3.74z"/>
 <path class="a" d="m14.93 44h1.818l-0.8511-10.28c-1.063 0.1397-2.029 0.5306-2.949 1.036z"/>
 <circle class="b" cx="32.55" cy="11.5" r=".75"/>
 <circle class="b" cx="37.63" cy="16.97" r=".75"/>
</svg>
