<?xml version="1.0" encoding="UTF-8"?>
<svg width="48" height="48" version="1.1" viewBox="0 0 48 48" xmlns="http://www.w3.org/2000/svg">
 <g>
  <path d="m32.32 42.946-6.8494 0.13172m17.585-17.435s-0.06613 2.0549-0.06613 6.6693m0 0c0 3.8608-0.11052 6.6775-0.27959 7.126-0.15378 0.40788-0.6576 1.137-1.1196 1.6203-1.6478 1.7236-1.7415 1.7427-9.27 1.8874m10.735-17.303-17.835 17.466m10.985-17.334 6.8494-0.13172m-17.835 17.466c0.22848-0.22848 0.31613-2.0861 0.31613-6.7005m0 0c0-3.8608 0.11052-6.6775 0.27959-7.126 0.15378-0.40788 0.6576-1.137 1.1196-1.6203 1.6478-1.7236 1.7415-1.7427 9.27-1.8874m6.8494-0.13172-0.49183-18.572c-0.69098-1.2954-1.4483-2.0687-2.6694-2.7259l-31.217-0.075267c-2.1538 1.1489-3.1742 2.8036-3.3646 5.4561l-0.1244 1.7329 0.83325 0.34515c2.0472 0.84799 3.1826 2.5428 3.1826 4.7507 0 2.1681-1.4383 4.2463-3.3588 4.8534-0.54408 0.172-0.59274 0.34666-0.59274 2.1277 0 1.781 0.04866 1.9557 0.59274 2.1277 1.9206 0.60714 3.3588 2.6854 3.3588 4.8534 0 2.2079-1.1354 3.9027-3.1826 4.7507l-0.83325 0.34515 0.12414 1.735c0.22506 3.1456 1.7979 5.1611 4.5503 5.8312 1.4227 0.34634 15.004 0.28462 15.358-0.069795m0 0-5e-6 2e-6" fill="none" stroke="#fffefe" stroke-linecap="round" stroke-linejoin="round"/>
 </g>
</svg>
