<?xml version="1.0" encoding="UTF-8"?>
<svg version="1.1" viewBox="0 0 48 48" xml:space="preserve" xmlns="http://www.w3.org/2000/svg"><defs><style>.a{fill:none;stroke:#fff;stroke-linecap:round;stroke-linejoin:round;}</style></defs><path class="a" d="m40.5 5.5h-33a2 2 0 0 0-2 2v33a2 2 0 0 0 2 2h33a2 2 0 0 0 2-2v-33a2 2 0 0 0-2-2z"/><path class="st5" d="m19.615 26.7v0c-1.1 0-2-0.9-2-2v-1.3c0-1.1 0.9-2 2-2v0c1.1 0 2 0.9 2 2v1.3c0 1.1-0.9 2-2 2z" fill="none" stroke="#fff" stroke-linecap="round" stroke-linejoin="round" stroke-miterlimit="10"/><g transform="translate(-230.97 -38)" fill="none" stroke="#fff" stroke-linecap="round" stroke-linejoin="round" stroke-miterlimit="10">
		<path class="st5" d="m254 59.3v3.3c0 1.1 0.9 2 2 2s2-0.9 2-2v-3.3"/>
		<line class="st5" x1="258" x2="258" y1="62.7" y2="64.7"/>
	</g><g transform="translate(-163.9 -38)">
		<path class="st5" d="m172 61.3c0-1.1 0.9-2 2-2v0c1.1 0 2 0.9 2 2v3.3" fill="none" stroke="#fff" stroke-linecap="round" stroke-linejoin="round" stroke-miterlimit="10"/>
		<line class="st5" x1="172" x2="172" y1="59.3" y2="64.7" fill="none" stroke="#fff" stroke-linecap="round" stroke-linejoin="round" stroke-miterlimit="10"/>
		
			<path class="st5" d="m176 61.3c0-1.1 0.9-2 2-2v0c1.1 0 2 0.9 2 2v3.3" fill="none" stroke="#fff" stroke-linecap="round" stroke-linejoin="round" stroke-miterlimit="10"/>
		
	</g><g transform="translate(-212.71 -38)" fill="none" stroke="#fff" stroke-linecap="round" stroke-linejoin="round" stroke-miterlimit="10">
		<path class="st5" d="m246 57.7v6c0 0.6 0.4 1 1 1h0.3"/>
		<line class="st5" x1="244.9" x2="247.1" y1="59.3" y2="59.3"/>
	</g><path class="st5" d="m39.598 25.6c-0.3 0.6-1 1-1.7 1v0c-1.1 0-2-0.9-2-2v-1.3c0-1.1 0.9-2 2-2v0c1.1 0 2 0.9 2 2v0.7h-4" fill="none" stroke="#fff" stroke-linecap="round" stroke-linejoin="round" stroke-miterlimit="10"/><line class="st5" x1="28.339" x2="31.177" y1="24.2" y2="24.2" fill="none" stroke="#fff" stroke-linecap="round" stroke-linejoin="round" stroke-miterlimit="10"/></svg>
