<?xml version="1.0" encoding="UTF-8" standalone="no"?>
<!-- Created with Inkscape (http://www.inkscape.org/) -->

<svg
   width="48"
   height="48"
   viewBox="0 0 48 48"
   version="1.1"
   id="svg5"
   xml:space="preserve"
   inkscape:version="1.2.1 (9c6d41e4, 2022-07-14)"
   sodipodi:docname="mountain_project_acrticon.svg"
   inkscape:export-filename="kaya_climbing.svg"
   inkscape:export-xdpi="96"
   inkscape:export-ydpi="96"
   xmlns:inkscape="http://www.inkscape.org/namespaces/inkscape"
   xmlns:sodipodi="http://sodipodi.sourceforge.net/DTD/sodipodi-0.dtd"
   xmlns="http://www.w3.org/2000/svg"
   xmlns:svg="http://www.w3.org/2000/svg"><sodipodi:namedview
     id="namedview7"
     pagecolor="#505050"
     bordercolor="#eeeeee"
     borderopacity="1"
     inkscape:showpageshadow="0"
     inkscape:pageopacity="0"
     inkscape:pagecheckerboard="0"
     inkscape:deskcolor="#505050"
     inkscape:document-units="px"
     showgrid="false"
     inkscape:zoom="5.2574063"
     inkscape:cx="11.032056"
     inkscape:cy="29.196906"
     inkscape:window-width="1440"
     inkscape:window-height="847"
     inkscape:window-x="0"
     inkscape:window-y="25"
     inkscape:window-maximized="1"
     inkscape:current-layer="g2002" /><defs
     id="defs2" /><g
     inkscape:label="Layer 1"
     inkscape:groupmode="layer"
     id="layer1"><g
       id="g2002"
       style="fill:none"><path
         style="fill:none;stroke:#ffffff;stroke-width:1;stroke-linecap:round;stroke-linejoin:round;stroke-opacity:1;paint-order:markers fill stroke"
         d="M 0.48266226,23.58454 12.61033,12.695282 l 4.684507,4.408821 -3.539406,5.683662 0.104101,0.743657 h 0.676651 L 31.036057,8.3395784 47.517338,23.478303 V 15.9355 c 0,-0.389534 0.0482,-0.855291 -0.146036,-1.192942 C 47.027725,14.145306 46.374418,13.92868 45.779125,13.581721 39.682151,10.028178 30.970219,5.1263898 26.874892,2.7207646 26.545745,2.5274214 26.244935,2.3526547 25.980669,2.191103 24.991578,1.5864505 24.722623,1.4244312 24,1.3810767 23.277376,1.3377222 22.776063,1.5015583 21.875243,1.9653783 18.224181,3.8452616 8.6032091,9.3160268 2.2523647,13.438938 1.7911064,13.738383 1.3894968,14.150708 1.0963442,14.61599 0.77663902,15.123416 0.51841684,15.846134 0.50864769,16.515211 0.47325659,18.939106 0.48266229,23.58454 0.48266226,23.58454 Z"
         id="path503"
         sodipodi:nodetypes="ccccccccssssssssssc" /><path
         style="fill:none;stroke:#ffffff;stroke-width:1;stroke-linecap:round;stroke-linejoin:round;stroke-dasharray:none;stroke-opacity:1;paint-order:markers fill stroke"
         d="m 35.208968,12.172362 -0.769831,0.965415 -1.902939,5.44912 -2.483122,3.943781 L 28.66545,24 l -1.825825,1.342448 -2.117957,4.455013 3.578617,4.308947 0.628787,1.357359"
         id="path1209"
         sodipodi:nodetypes="ccccccccc" /><path
         style="fill:none;stroke:#ffffff;stroke-width:1;stroke-linecap:round;stroke-linejoin:round;stroke-dasharray:none;stroke-opacity:1;paint-order:markers fill stroke"
         d="M 27.580696,22.293811 28.66545,24 l 3.249968,8.061484 6.901618,-2.410089 6.536452,2.81177 2.189566,-1.206801"
         id="path1211"
         sodipodi:nodetypes="cccccc" /><path
         style="fill:none;stroke:#ffffff;stroke-width:1;stroke-linecap:round;stroke-linejoin:round;stroke-dasharray:none;stroke-opacity:1;paint-order:markers fill stroke"
         d="m 31.915418,32.061484 5.87493,4.140619 3.181161,6.595231 1.533693,1.497176"
         id="path1213"
         sodipodi:nodetypes="cccc" /><ellipse
         style="fill:none;stroke:#ffffff;stroke-width:1;stroke-linecap:round;stroke-linejoin:round;stroke-dasharray:none;stroke-opacity:1;paint-order:markers fill stroke"
         id="path1267"
         cx="26.132732"
         cy="20.75449"
         rx="1.5169395"
         ry="1.5858914" /></g></g></svg>
