<svg xmlns="http://www.w3.org/2000/svg" viewBox="0 0 48 48"><defs><style>.a{fill:none;stroke:#fff;stroke-linecap:round;stroke-linejoin:round;}</style></defs><path class="a" d="M38.4493,18.9128a14.4547,14.4547,0,1,1-.0008-.1158"/><polyline class="a" points="34.145 37.31 31.788 43.433 29.432 37.31"/><path class="a" d="M13.8555,39.7611a2.3319,2.3319,0,1,1,4.6637,0V43.5"/><line class="a" x1="13.8555" y1="37.4244" x2="13.8555" y2="43.5"/><path class="a" d="M18.5192,39.7611a2.3319,2.3319,0,1,1,4.6638,0V43.5"/><path class="a" d="M25.9534,35.69v6.6689A1.05,1.05,0,0,0,27.0649,43.47h.3334"/><line class="a" x1="24.8419" y1="37.5793" x2="27.1761" y2="37.5793"/><path class="a" d="M20.8409,25.4933a21.6338,21.6338,0,0,0,9.2125-6,21.6332,21.6332,0,0,0-9.2125-6l0,0a20.5005,20.5005,0,0,0,0,12Z"/></svg>