<?xml version="1.0" encoding="UTF-8" standalone="no"?>
<svg
   viewBox="0 0 48 48"
   version="1.1"
   id="svg4038"
   sodipodi:docname="my_base.svg"
   xml:space="preserve"
   inkscape:version="1.2.2 (b0a8486541, 2022-12-01)"
   xmlns:inkscape="http://www.inkscape.org/namespaces/inkscape"
   xmlns:sodipodi="http://sodipodi.sourceforge.net/DTD/sodipodi-0.dtd"
   xmlns="http://www.w3.org/2000/svg"
   xmlns:svg="http://www.w3.org/2000/svg"><sodipodi:namedview
     id="namedview4040"
     pagecolor="#ffffff"
     bordercolor="#000000"
     borderopacity="0.25"
     inkscape:showpageshadow="2"
     inkscape:pageopacity="0.0"
     inkscape:pagecheckerboard="0"
     inkscape:deskcolor="#d1d1d1"
     showgrid="false"
     inkscape:zoom="11.519948"
     inkscape:cx="4.4271033"
     inkscape:cy="32.118201"
     inkscape:window-width="1920"
     inkscape:window-height="1043"
     inkscape:window-x="0"
     inkscape:window-y="0"
     inkscape:window-maximized="1"
     inkscape:current-layer="svg4038"
     showguides="true"><sodipodi:guide
       position="21.527875,19.74293"
       orientation="0,1"
       id="guide6454"
       inkscape:locked="false"
       inkscape:label=""
       inkscape:color="rgb(0,134,229)" /><sodipodi:guide
       position="4.4385582,30.05287"
       orientation="1,0"
       id="guide11190"
       inkscape:locked="false" /><sodipodi:guide
       position="8.143483,32.212976"
       orientation="0,-1"
       id="guide11192"
       inkscape:locked="false" /><sodipodi:guide
       position="43.561442,30.514027"
       orientation="1,0"
       id="guide11194"
       inkscape:locked="false" /><sodipodi:guide
       position="40.956131,15.939892"
       orientation="0,-1"
       id="guide11196"
       inkscape:locked="false" /></sodipodi:namedview><defs
     id="defs4034"><style
       id="style4032">.a{fill:none;stroke:#ffffff;stroke-linecap:round;stroke-linejoin:round;}</style></defs><g
     inkscape:groupmode="layer"
     id="layer4"
     inkscape:label="B" /><g
     inkscape:groupmode="layer"
     id="layer5"
     inkscape:label="A" /><g
     inkscape:groupmode="layer"
     id="layer6"
     inkscape:label="E" /><path
     id="rect11200"
     style="fill:none;stroke:#ffffff;stroke-linecap:round;stroke-linejoin:round;stroke-opacity:1"
     d="M 6.4385581,15.787024 H 41.561441 c 1.108,0 2,0.892 2,2 v 12.273084 c 0,1.108 -0.892,2 -2,2 H 6.4385581 c -1.108,0 -2,-0.892 -2,-2 V 17.787024 c 0,-1.108 0.892,-2 2,-2 z m 28.3647559,3.970047 v 8 m 0,-4 h 2.60796 m -2.60796,-4 h 4.000004 m -4.000004,8 h 4.000004 m -20.939155,-0.02378 2.6,-7.976272 2.6,8.000047 M 22.193972,25.080919 H 18.728304 M 12.863629,23.757072 H 9.5636263 m 3.3000027,-0.000002 c 1.10457,0 2,0.89543 2,2 0,1.104569 -0.89543,2 -2,2 H 9.5636278 v -8 l 3.3000012,-0.000004 c 1.10457,0 2,0.89543 2,2 0,1.104569 -0.89543,2 -2,2 z m 13.521364,3.123455 c 0.49056,0.638659 1.1057,0.876544 1.9615,0.876545 l 1.18438,-0.000001 c 1.10219,0 1.99569,-0.893502 1.99569,-1.995692 v -0.0086 c 0,-1.102191 -0.8935,-1.995692 -1.99569,-1.995692 h -1.30646 c -1.10338,0 -1.99785,-0.894466 -1.99785,-1.997846 v -0.000004 c 0,-1.105757 0.89639,-2.00215 2.00215,-2.00215 h 1.17792 c 0.8558,0 1.47094,0.237886 1.9615,0.876544" /></svg>
