<?xml version="1.0" encoding="utf-8"?>
<!-- Generator: Adobe Illustrator 27.2.0, SVG Export Plug-In . SVG Version: 6.00 Build 0)  -->
<svg version="1.1" id="Layer_2" xmlns="http://www.w3.org/2000/svg" xmlns:xlink="http://www.w3.org/1999/xlink" x="0px" y="0px"
	 viewBox="0 0 48 48" style="enable-background:new 0 0 48 48;" xml:space="preserve">
<style type="text/css">
	.st0{fill:none;stroke:#FFFFFF;stroke-linecap:round;stroke-linejoin:round;}
	.st1{fill:none;stroke:#FFFFFF;stroke-linecap:round;stroke-linejoin:round;stroke-miterlimit:10;}
</style>
<path class="st0" d="M43.5,13.8v7.3L39.6,24v10.2c0,0.8-0.7,1.5-1.6,1.5H6.5c-1.1,0-2-0.7-2-1.5v-7.3L8.4,24V13.8
	c0-0.8,0.7-1.5,1.6-1.5h31.5C42.6,12.3,43.5,13,43.5,13.8z"/>
<g>
	<g>
		<g>
			<path class="st1" d="M25.2,25.4c0-1.3,1.1-2.4,2.4-2.4s2.4,1.1,2.4,2.4v3.8"/>
			<line class="st1" x1="25.2" y1="23" x2="25.2" y2="29.2"/>
		</g>
		<g>
			<path class="st1" d="M29.9,25.4c0-1.3,1.1-2.4,2.4-2.4c1.3,0,2.4,1.1,2.4,2.4v3.8"/>
		</g>
	</g>
	<g>
		<line class="st1" x1="13.3" y1="19.7" x2="13.3" y2="29.2"/>
		<line class="st1" x1="13.3" y1="27.2" x2="17.6" y2="22.9"/>
		<line class="st1" x1="14.7" y1="25.8" x2="18.1" y2="29.2"/>
	</g>
	<g>
		<line class="st1" x1="16.4" y1="21.2" x2="27.6" y2="21.2"/>
		<line class="st1" x1="21.3" y1="29.2" x2="21.3" y2="21.2"/>
	</g>
</g>
</svg>
