<?xml version="1.0" encoding="UTF-8" standalone="no"?>
<svg
   viewBox="0 0 48 48"
   version="1.1"
   id="svg5953"
   sodipodi:docname="mycalendar.svg"
   inkscape:version="1.1 (c68e22c387, 2021-05-23)"
   xmlns:inkscape="http://www.inkscape.org/namespaces/inkscape"
   xmlns:sodipodi="http://sodipodi.sourceforge.net/DTD/sodipodi-0.dtd"
   xmlns="http://www.w3.org/2000/svg"
   xmlns:svg="http://www.w3.org/2000/svg">
  <sodipodi:namedview
     id="namedview5955"
     pagecolor="#505050"
     bordercolor="#eeeeee"
     borderopacity="1"
     inkscape:pageshadow="0"
     inkscape:pageopacity="0"
     inkscape:pagecheckerboard="0"
     showgrid="false"
     inkscape:zoom="12.25"
     inkscape:cx="15.102041"
     inkscape:cy="24.040816"
     inkscape:current-layer="svg5953" />
  <defs
     id="defs5947">
    <style
       id="style5945">.a{fill:none;stroke:#fff;stroke-linecap:round;stroke-linejoin:round;}</style>
    <style
       id="style6032">.cls-1{fill:none;stroke:#fff;stroke-linecap:round;stroke-linejoin:round;}</style>
  </defs>
  <path
     class="a"
     d="M8.4,6.5v35a2,2,0,0,0,2,2h2.33V4.5H10.4A2,2,0,0,0,8.4,6.5Z"
     id="path5949" />
  <path
     class="a"
     d="M12.73,4.5v39H37.6a2,2,0,0,0,2-2V6.5a2,2,0,0,0-2-2Z"
     id="path5951" />
  <path
     class="cls-1"
     d="m 32.134703,37.557376 a 2,2 0 0 0 0,-0.245 2.2,2.2 0 0 0 0.5,0.325 2.325,2.325 0 1 0 2,-4.195 l -0.22,-0.1 0.22,-0.1 a 2.73,2.73 0 0 0 0.295,-0.195 2.3105424,2.3105424 0 1 0 -2.795,-3.68 2,2 0 0 0 0,-0.245 2.32,2.32 0 0 0 -4.635,0 2,2 0 0 0 0,0.245 2.385,2.385 0 0 0 -0.5,-0.325 2.3259407,2.3259407 0 1 0 -2,4.2 l 0.22,0.1 -0.22,0.1 a 2.68,2.68 0 0 0 -0.295,0.19 2.3105426,2.3105426 0 1 0 2.795,3.68 2,2 0 0 0 0,0.245 2.32,2.32 0 0 0 4.635,0 z m -2.32,-1.905 a 2.32,2.32 0 1 1 2.32,-2.319999 2.315,2.315 0 0 1 -2.32,2.319999 z"
     id="path6040"
     style="stroke-width:1" />
</svg>
