<svg xmlns="http://www.w3.org/2000/svg" viewBox="0 0 48 48">
    <defs>
        <style>
            .a{
            fill:none;
            stroke:#fff;
            stroke-linecap:round;
            stroke-linejoin:round;
            }
            </style>
        </defs><path
     class="a"
     d="m 30.868634,16.622633 c 2.89484,0.08259 4.118811,2.395951 5.280189,4.721438 0.653639,1.308818 1.927093,4.338065 3.861362,4.304373 1.022902,-0.01782 2.161526,-0.243766 2.36471,-2.650073 0.302671,0.917713 0.300052,0.929898 0.52682,1.450754 0.505399,-0.314781 0.828891,-1.150601 1.243219,-2.452512 0.272616,1.208108 0.504845,3.647165 0.215518,5.200367 -0.608739,3.267917 -3.712272,4.175777 -5.637388,4.108809 -2.697436,-0.09382 -5.850048,-0.90469 -11.63597,-4.024996 -0.805505,-0.434404 -2.615976,-1.355745 -3.077116,-3.109047 -0.4302,1.799479 -2.280778,2.738669 -3.097072,3.17889 -5.785922,3.120306 -8.936538,3.931168 -11.6339733,4.024996 -1.9251159,0.06697 -5.0306466,-0.84089 -5.6393845,-4.108809 -0.2893262,-1.553202 -0.0571,-3.992257 0.2155179,-5.200368 0.4143271,1.301912 0.7378216,2.137734 1.2432179,2.452514 0.2267677,-0.520857 0.2241502,-0.53304 0.5268221,-1.450754 0.2031839,2.406307 1.3438028,2.632255 2.3667053,2.650071 1.9342702,0.03369 3.2057276,-2.995553 3.8593666,-4.30437 1.198841,-2.400503 2.464294,-4.787034 5.565548,-4.721438 3.529719,0.07466 6.045262,2.631256 6.577286,5.563553 0.504057,-2.961841 3.031156,-5.55814 6.589261,-5.633398 0.09691,-0.002 0.191978,-0.0027 0.285361,0 z"/>
</svg>
