<svg
   viewBox="0 0 48 48"
   xmlns="http://www.w3.org/2000/svg">
  <g
     style="fill:none;stroke:#fff;"
     transform="matrix(0.61249936,0,0,0.65382605,-153.13482,5.7092114)">
    <path
       d="m 300.8,47.1 c -1.4,0 -2.7,-0.2 -3.9,-0.5 v 0 0 c -2,2.8 -4.7,5.2 -7.7,6.9 2.7,1.5 5.7,2.3 8.9,2.3 12.4,0 20.8,-12.9 21.8,-23.8 -0.4,1.5 -2.9,15.1 -19.1,15.1 z"/>
    <path
       d="m 303.9,12.9 c -6,0 -8.8,3.5 -8.8,3.5 6.1,0.6 13.7,5 13.7,13.9 0,8.7 -5.7,12.7 -10.4,14 -0.5,0.8 -1,1.6 -1.5,2.3 1.2,0.3 2.6,0.5 3.9,0.5 16.1,0 18.7,-13.6 19.1,-15.1 0.1,-0.7 0.1,-1.5 0.1,-2.2 0,-12.1 -9.4,-16.9 -16.1,-16.9 z"/>
    <path
       d="m 277.5,47.1 c 3.4,0 6.4,-1 8.8,-2.7 -0.8,0.2 -1.8,0.4 -2.8,0.4 -4.6,0 -13.9,-3.4 -13.9,-14.5 0,-9 7.5,-13.3 13.7,-13.9 0,0 -2.9,-3.5 -8.8,-3.5 -6.7,0 -16.1,4.7 -16.1,17 0,0.7 0,1.4 0.1,2.2 0.3,1.4 2.8,15 19,15 z"/>
    <path
       d="m 283.5,44.9 c 1,0 2,-0.2 2.8,-0.4 v 0 c 1.1,-0.8 2.1,-1.7 2.9,-2.7 0,0 0,0 0,0 -0.6,-0.7 -3.2,-4.3 -3.2,-9.1 0,-4.5 2.4,-6.4 3.2,-6.9 0,0 0,0 0,0 0,0 0,0 0,0 -1.6,-1.2 -3.5,-1.6 -4.6,-1.6 -1.7,0 -6.3,1.2 -7.4,6.4 0,0 0,0 0,0 0,0 0,0 0,0 0,0.2 -0.1,0.4 -0.1,0.6 -0.1,0.9 -0.2,1.8 -0.2,2.9 0,4.2 1.8,8 3.2,10.3 1.3,0.3 2.4,0.5 3.4,0.5 z"/>
    <path
       d="m 289.3,20.1 c -7.5,0 -11,5.5 -12,10.5 1.1,-5.2 5.7,-6.4 7.4,-6.4 1.1,0 2.9,0.4 4.6,1.6 0,0 0,0 0,0 1.8,1.3 3.3,3.6 3.3,7.2 0,3.1 -1.2,6.2 -3.3,8.8 0,0 0,0 0,0 -2.6,3.2 -6.7,5.4 -11.7,5.4 -16.2,0 -18.7,-13.6 -19.1,-15.1 1,10.9 9.4,23.8 21.8,23.8 12.1,0 21.3,-12.2 21.3,-22.4 -0.1,-7.1 -4.1,-13.4 -12.3,-13.4 z"/>
    <path
       d="m 289.5,15.9 c 0,0 -2.6,-2.5 -2.8,-5.9 -0.1,-2.5 0.9,-6.2 4.8,-8.3 9.1,-4.9 17,2.2 16.1,6.8 0,0 -6.8,-3.1 -13,0.6 -4.6,2.8 -5.1,6.8 -5.1,6.8 z"/>
  </g>
</svg>