<svg xmlns="http://www.w3.org/2000/svg" viewBox="0 0 48 48"><defs><style>.a{fill:none;stroke:#fff;stroke-linecap:round;stroke-linejoin:round;}</style></defs><path class="a" d="M40,5.5H7a2,2,0,0,0-2,2v33a2,2,0,0,0,2,2H40a2,2,0,0,0,2-2V7.5A2,2,0,0,0,40,5.5Z"/><polyline class="a" points="15.94 36.32 15.94 27.03 20.59 36.33 25.24 27.04 25.24 36.33"/><line class="a" x1="29.89" y1="36.33" x2="27.41" y2="30.17"/><path class="a" d="M32.07,30.17l-3,8.37a1.39,1.39,0,0,1-1.31.93h-.39"/><line class="a" x1="5" y1="24" x2="42" y2="24"/><line class="a" x1="23.46" y1="10.79" x2="23.46" y2="18.71"/><line class="a" x1="10" y1="10.79" x2="13.96" y2="10.79"/><line class="a" x1="10" y1="14.75" x2="12.57" y2="14.75"/><line class="a" x1="10" y1="10.79" x2="10" y2="18.71"/><path class="a" d="M16.08,18.71V10.79h2.59a2.66,2.66,0,0,1,0,5.32H16.08"/><line class="a" x1="18.67" y1="16.11" x2="21.26" y2="18.71"/><line class="a" x1="25.61" y1="10.79" x2="30.85" y2="10.79"/><line class="a" x1="28.23" y1="18.71" x2="28.23" y2="10.79"/><polyline class="a" points="32.76 10.79 38 10.79 32.76 18.71 38 18.71"/></svg>