<?xml version="1.0" encoding="UTF-8"?><svg id="a" xmlns="http://www.w3.org/2000/svg" viewBox="0 0 48 48"><defs><style>.j{fill:none;stroke:rgba(255,255,255,.9965);stroke-linecap:round;stroke-linejoin:round;}</style></defs><g id="b"><path id="c" class="j" d="M30.2394,19.1004c-2.0016.0079-3.7978,1.7591-3.7978,3.7978v16.8634c0,1.9729,1.8071,3.7385,3.7385,3.7385h3.751c2.0421,0,3.7407-1.7543,3.7407-3.7407v-17.0257c0-2.0191-1.8068-3.6559-3.7499-3.648l-3.6826.0148Z"/><path id="d" class="j" d="M26.468,24.9183h11.2009"/><path id="e" class="j" d="M26.468,37.6696h11.2009"/><path id="f" class="j" d="M30.2997,22.0032h3.33"/><path id="g" class="j" d="M32.9774,40.4381c0,.5457-.4423.9881-.988.9883s-.9882-.442-.9885-.9877.4418-.9884.9874-.9888.9885.4415.9891.9872v.0011Z"/><path id="h" class="j" d="M10.3282,43.1131v-10.1991c0-5.6036,4.8111-9.0956,9.0956-9.0956s6.1516,2.0454,7.0202,3.0302"/><path id="i" class="j" d="M26.6561,11.6429c0,3.9441-3.1968,7.1418-7.1409,7.1429-3.9441.0011-7.1427-3.1948-7.1448-7.1389-.0022-3.9441,3.1928-7.1435,7.137-7.1468s7.1444,3.1909,7.1488,7.135v.0079Z"/></g></svg>