<svg version="1.1" viewBox="0 0 48 48" xmlns="http://www.w3.org/2000/svg"><defs><style>.a{fill:none;stroke:#fff;stroke-linecap:round;stroke-linejoin:round;}</style></defs>
<path class="a" d="m37.4 21c-1.63 0-2.43 1.25-2.43 1.25v-3.16h-2.53v10.4h2.56v-4.77c0-.8.7-1.47 1.5-1.47 1.1 0 1.3.65 1.3 1.35v4.9h2.6v-5.74c0-1.6-1.36-2.76-3.02-2.76m-8.72 2c.73 0 1 .65 1 .65l1.9-.84c-.5-1.17-1.54-1.84-2.73-1.84-1.85 0-3.2 1.1-3.2 2.7 0 2.94 3.74 2.4 3.74 3.43 0 .4-.5.6-.9.6-.75 0-1.17-.74-1.17-.74l-1.94.98c.65 1.2 1.7 1.74 3.1 1.74 1.77 0 3.35-1 3.35-2.77 0-2.9-3.9-2.5-3.86-3.4 0-.34.3-.5.7-.5zm-8.01-2c-2.57 0-4.57 1.9-4.57 4.4 0 2.3 2.04 4.41 4.5 4.4 2.71-.0095 4.56-1.9 4.56-4.46 0-2.5-2-4.34-4.5-4.34m-9.75.95c0-.54.4-.9 1.05-.9 1 0 2.1.83 2.1.83l1.06-2c-.75-.5-2-1-3.33-1-1.85 0-3.6 1.24-3.6 3.32 0 1.47.7 2.4 2.04 3 1.1.35 2.64.9 2.64 1.64 0 .56-.75.8-1.5.8-1 0-2-.56-2.45-1-.23.4-1.1 2.1-1.1 2 1.1.7 2 1.3 3.6 1.3 2 0 4.16-1.33 4.16-3.56 0-1.56-.8-2.5-2.37-3.1-1-.345-2.34-.645-2.3-1.34zm32.6 9.56-37.8 2.7-1.23-17 37.8-2.7z"/></svg>
