<svg xmlns="http://www.w3.org/2000/svg" viewBox="0 0 48 48"><defs><style>.a{fill:none;stroke:#fff;stroke-linecap:round;stroke-linejoin:round;}.b{fill:#fff;}</style></defs><path class="a" d="M16.32,28.52,6.58,18.78a1.66,1.66,0,0,1,0-2.35L17,6a1.66,1.66,0,0,1,2.35,0l9.42,9.41"/><path class="a" d="M32.67,19.29l9.77,9.76a1.66,1.66,0,0,1,0,2.35L32,41.84a1.66,1.66,0,0,1-2.35,0L19.32,31.52"/><line class="a" x1="8.61" y1="20.81" x2="21.41" y2="8.02"/><line class="a" x1="27.44" y1="39.64" x2="40.23" y2="26.85"/><line class="a" x1="11.58" y1="14.67" x2="15.27" y2="10.98"/><circle class="b" cx="10.06" cy="16.19" r="0.65"/><polyline class="a" points="9.84 27.07 9.93 29.27 18.32 37.82 20.63 38.06"/><line class="a" x1="14.18" y1="33.59" x2="6.15" y2="41.48"/><line class="a" x1="5.15" y1="40.46" x2="7.15" y2="42.5"/><polyline class="a" points="12.82 32.21 34.72 9.15 42.46 5.82 38.99 13.5 15.54 34.98"/></svg>