<svg xmlns="http://www.w3.org/2000/svg" viewBox="0 0 48 48"><defs><style>.a{fill:none;stroke:#fff;stroke-linecap:round;stroke-linejoin:round;}</style></defs><path class="a" d="M40.5,42.5H7.5a2,2,0,0,1-2-2V7.5a2,2,0,0,1,2-2h33a2,2,0,0,1,2,2v33A2,2,0,0,1,40.5,42.5Z"/><line class="a" x1="33.04" y1="34.43" x2="39" y2="34.43"/><line class="a" x1="33.04" y1="22.52" x2="39" y2="22.52"/><line class="a" x1="33.04" y1="28.47" x2="36.93" y2="28.47"/><line class="a" x1="33.04" y1="22.52" x2="33.04" y2="34.43"/><path class="a" d="M21.19,34.43V22.52h2.69a5.21,5.21,0,0,1,5.21,5.21v1.49a5.21,5.21,0,0,1-5.21,5.21Z"/><path class="a" d="M21.19,16.33v2.26a1.67,1.67,0,0,1-1.67,1.67h0a1.69,1.69,0,0,1-1.18-.49"/><path class="a" d="M21.19,13.58v2.75A1.66,1.66,0,0,1,19.52,18h0a1.67,1.67,0,0,1-1.67-1.67V13.58"/><path class="a" d="M9,15.24a1.67,1.67,0,0,1,1.67-1.67h0a1.67,1.67,0,0,1,1.67,1.67v2.67"/><line class="a" x1="9" y1="13.57" x2="9" y2="17.91"/><path class="a" d="M12.34,15.24A1.67,1.67,0,0,1,14,13.57h0a1.67,1.67,0,0,1,1.67,1.67v2.67"/><path class="a" d="M9,22.52v8a3.95,3.95,0,1,0,7.89,0v-8"/></svg>