<?xml version="1.0" encoding="UTF-8" standalone="no"?>
<svg
   viewBox="0 0 48 48"
   xmlns="http://www.w3.org/2000/svg">
  <defs>
    <style>.c {fill: none;stroke: #fff;stroke-linecap: round;stroke-linejoin: round;}</style>
  </defs>
  <path
     class="c"
     d="m 22.839933,3.474052 c 1.4109,-0.2278 2.8116,-0.134 3.9923,-0.0181 1.9642,0.1927 3.3542,0.6616 4.8248,1.2441 4.409,1.7462 6.4734,4.697 6.4734,4.697 -5.1583,0.8735 -9.7855,2.6701 -9.7855,2.6701 l -3.3695,-5.446 z m -2.6161,5.7335"/>
  <path
     class="c"
     d="m 10.080127,7.8109072 9.766,-4.5984 6.445,10.2996998 -12.4811,5.7344 z"/>
  <path
     class="c"
     d="m 13.727378,21.550512 5.8757,12.6504 -11.6555998,4.0889 -4.5328,-10.0666 z"/>
  <path
     class="c"
     d="m 21.810578,35.285171 6.4605,10.5172 9.8813,-4.4853 -3.7779,-11.8598 z"/>
  <path
     class="c"
     d="m 28.580546,14.643434 5.8382,12.7162 10.598,-6.4145 -4.7203,-10.0259 z"/>
  <path
     class="c"
     d="m 3.3003923,25.497195 c -0.2278,-1.4109 -0.0553,-3.2791 0.0605,-4.4598 0.1927,-1.9642 0.5505,-3.405 1.133,-4.8756 1.7462,-4.409 4.4097,-6.1116 4.4097,-6.1116 0.8735,5.1583 2.7480997,9.7212 2.7480997,9.7212 l -5.4000997,3.427 z"/>
  <path
     class="c"
     d="m 25.835813,45.539049 c -1.4109,0.2278 -3.2791,0.0553 -4.4598,-0.0605 -1.9642,-0.1927 -3.405,-0.5505 -4.8756,-1.133 -4.409,-1.7462 -6.0515,-4.241 -6.0515,-4.241 2.1892,-0.3707 4.1655,-1.0801 5.8223,-1.6476 2.2471,-0.7697 3.8285,-1.3707 3.8285,-1.3707 l 3.5752,5.4821 z"/>
  <path
     class="c"
     d="m 44.91061,23.678682 c 0.2278,1.4109 0.0553,3.2791 -0.0605,4.4598 -0.1927,1.9642 -0.5505,3.405 -1.133,4.8756 -1.7462,4.409 -4.241,6.0515 -4.241,6.0515 -0.3707,-2.1892 -1.0801,-4.1655 -1.6476,-5.8223 -0.7697,-2.2471 -1.3707,-3.8285 -1.3707,-3.8285 l 5.4821,-3.5752 z"/>
</svg>
