<svg xmlns="http://www.w3.org/2000/svg" xml:space="preserve" id="svg990" width="48" height="48" version="1.1"><defs id="defs987"><style id="style1174">.a{fill:none;stroke:#fff;stroke-linecap:round;stroke-linejoin:round}</style></defs><path id="path16710-2" d="M43.5 17.174a.796.796 0 0 1-.796.796.796.796 0 0 1-.796-.796.796.796 0 0 1 .796-.796.796.796 0 0 1 .796.796zm-12.55.367a.796.796 0 0 1-.796.796.796.796 0 0 1-.796-.796.796.796 0 0 1 .796-.795.796.796 0 0 1 .796.795zm-13.4.158v10.854a3.055 3.055 0 0 0 3.062 3.062h6.796c1.714 0 5.779.355 6.407-4.95.357-3.014-2.256-4.199-3.632-4.199-1.377 0-3.99 1.185-3.633 4.199.629 5.305 4.693 4.95 6.358 4.95h6.747a3.055 3.055 0 0 0 3.062-3.062v-5.587M9.97 17.103a.692.692 0 0 1-.692.692.692.692 0 0 1-.692-.692.692.692 0 0 1 .692-.692.692.692 0 0 1 .692.692zM4.5 31.58h4.206c6.108 0 2.885-7.702.017-8.696" style="fill:none;stroke:#fff;stroke-width:1;stroke-linecap:round;stroke-linejoin:round;stroke-dasharray:none;stroke-opacity:1;stop-color:#000"/></svg>