<svg width="48" height="48" xmlns="http://www.w3.org/2000/svg" xmlns:svg="http://www.w3.org/2000/svg" enable-background="new 0 0 48.0 48.0" version="1.1" xml:space="preserve">

 <g class="layer">
  <title>Layer 1</title>
  <path d="m35.5,18.79l-1.58,3.24" fill="#000000" fill-opacity="0" fill-rule="nonzero" id="svg_1" stroke="#FFFFFF" stroke-linecap="round" stroke-linejoin="round" stroke-opacity="1"/>
  <path d="m41.55,29.16l-3.6,-0.22" fill="#000000" fill-opacity="0" fill-rule="nonzero" id="svg_2" stroke="#FFFFFF" stroke-linecap="round" stroke-linejoin="round" stroke-opacity="1"/>
  <path d="m31.43,23.49c0.31,0.54 0.12,1.22 -0.41,1.53c-0.53,0.3 -1.22,0.12 -1.52,-0.41c-0.31,-0.54 -0.13,-1.22 0.4,-1.53c0.54,-0.3 1.22,-0.12 1.53,0.41z" fill="#000000" fill-opacity="0" fill-rule="nonzero" id="svg_3" stroke="#FFFFFF" stroke-linecap="round" stroke-linejoin="round" stroke-opacity="1"/>
  <path d="m24.22,35l-8,0l3,-6l5,0c3,1 3,5 0,6z" fill="#000000" fill-opacity="0" fill-rule="nonzero" id="svg_4" stroke="#FFFFFF" stroke-linecap="round" stroke-linejoin="round" stroke-opacity="1"/>
  <path d="m35.46,30.4c0.31,0.54 0.12,1.22 -0.41,1.53c-0.53,0.3 -1.21,0.12 -1.52,-0.41c-0.31,-0.54 -0.13,-1.22 0.41,-1.53c0.53,-0.31 1.21,-0.12 1.52,0.41z" fill="#000000" fill-opacity="0" fill-rule="nonzero" id="svg_5" stroke="#FFFFFF" stroke-linecap="round" stroke-linejoin="round" stroke-opacity="1"/>
  <path d="m23.12,21.39c11.73,-5.69 20.8,9.85 10.08,17.27l-10.08,-17.27z" fill="#000000" fill-opacity="0" fill-rule="nonzero" id="svg_6" stroke="#FFFFFF" stroke-linecap="round" stroke-linejoin="round" stroke-opacity="1"/>
  <path d="m6.96,33.47l11.56,-22.17c2.31,-4.44 8.52,-1.2 6.2,3.23l-11.55,22.17c-2.31,4.44 -8.52,1.2 -6.21,-3.23z" fill="#000000" fill-opacity="0" fill-rule="nonzero" id="svg_7" stroke="#FFFFFF" stroke-linecap="round" stroke-linejoin="round" stroke-opacity="1"/>
 </g>
</svg>