<?xml version="1.0" encoding="utf-8"?>
<!-- Generator: Adobe Illustrator 25.1.0, SVG Export Plug-In . SVG Version: 6.00 Build 0)  -->
<svg version="1.1"
	 id="svg8" inkscape:version="1.0.1 (3bc2e813f5, 2020-09-07)" sodipodi:docname="template.svg" xmlns:cc="http://creativecommons.org/ns#" xmlns:dc="http://purl.org/dc/elements/1.1/" xmlns:inkscape="http://www.inkscape.org/namespaces/inkscape" xmlns:rdf="http://www.w3.org/1999/02/22-rdf-syntax-ns#" xmlns:sodipodi="http://sodipodi.sourceforge.net/DTD/sodipodi-0.dtd" xmlns:svg="http://www.w3.org/2000/svg"
	 xmlns="http://www.w3.org/2000/svg" xmlns:xlink="http://www.w3.org/1999/xlink" x="0px" y="0px" viewBox="0 0 48 48"
	 style="enable-background:new 0 0 48 48;" xml:space="preserve">
<style type="text/css">
	.st0{fill:none;stroke:#FFFFFF;stroke-opacity:0.9952;}
	.st1{fill:none;stroke:#FFFFFF;stroke-width:1.0178;stroke-opacity:0.9952;}
	.st2{fill:none;stroke:#FFFFFF;stroke-width:1.0162;stroke-opacity:0.9952;}
</style>
<sodipodi:namedview  bordercolor="#666666" borderopacity="1" gridtolerance="10" guidetolerance="10" id="namedview10" inkscape:current-layer="svg8" inkscape:cx="23.980511" inkscape:cy="24.00951" inkscape:document-rotation="0" inkscape:guide-bbox="true" inkscape:pageopacity="0" inkscape:pageshadow="2" inkscape:window-height="2098" inkscape:window-maximized="1" inkscape:window-width="3840" inkscape:window-x="0" inkscape:window-y="25" inkscape:zoom="1.6491" objecttolerance="10" pagecolor="#595959" showgrid="false" showguides="true">
	</sodipodi:namedview>
<path id="path9068" sodipodi:nodetypes="ccccccc" class="st0" d="M5.5,7.8h10.9v30.9H8v2.6H5.5L5.5,7.8z"/>
<rect id="rect9087" x="7.9" y="10.2" class="st1" width="5.9" height="12"/>
<rect id="rect9087-9" x="7.9" y="24.6" class="st2" width="5.9" height="11.9"/>
<path id="path9104" sodipodi:nodetypes="ccccc" class="st0" d="M26.4,37.5l1.8-1.8c-1.3-2.3-2.9-4.3-5.2-5.2l-1.9,1.9
	C23.5,33.5,25.1,35.4,26.4,37.5z"/>
<path id="path9106" sodipodi:nodetypes="ccccccccccccccccccccccccccccccccc" class="st0" d="M27.9,42.5h5.2c4,0.2,4.8-2.1,4.8-4.1
	V28h4.6v-2.4h-4.6v-4.5h3.4v-2.7h-9.5v-5.6h8.3v-2.8h-8.3V5.5H28v4.6h-7.2v2.8H28v5.5h-8.3v2.7H34v4.4H18.5v2.8H34v9.4
	c0,0.5,0,2-2,2h-5.2L27.9,42.5z"/>
</svg>
