<?xml version="1.0" encoding="UTF-8" standalone="no"?>
<!-- Created with Inkscape (http://www.inkscape.org/) -->

<svg
   width="48"
   height="48"
   viewBox="0 0 48 48"
   version="1.1"
   id="svg5"
   inkscape:version="1.2.2 (732a01da63, 2022-12-09)"
   xml:space="preserve"
   sodipodi:docname="natrium.svg"
   xmlns:inkscape="http://www.inkscape.org/namespaces/inkscape"
   xmlns:sodipodi="http://sodipodi.sourceforge.net/DTD/sodipodi-0.dtd"
   xmlns="http://www.w3.org/2000/svg"
   xmlns:svg="http://www.w3.org/2000/svg"><sodipodi:namedview
     id="namedview7"
     pagecolor="#bcbcbc"
     bordercolor="#000000"
     borderopacity="0.25"
     inkscape:showpageshadow="2"
     inkscape:pageopacity="0"
     inkscape:pagecheckerboard="0"
     inkscape:deskcolor="#d1d1d1"
     inkscape:document-units="mm"
     showgrid="false"
     inkscape:zoom="13.455443"
     inkscape:cx="33.332236"
     inkscape:cy="24.265273"
     inkscape:window-width="1920"
     inkscape:window-height="991"
     inkscape:window-x="-9"
     inkscape:window-y="-9"
     inkscape:window-maximized="1"
     inkscape:current-layer="layer1" /><defs
     id="defs2" /><g
     inkscape:label="Layer 1"
     inkscape:groupmode="layer"
     id="layer1"><path
       id="path13490"
       style="fill:none;stroke:#ffffff;stroke-linecap:round;stroke-linejoin:round;stroke-miterlimit:1.9;stroke-width:1;stroke-dasharray:none"
       d="m 26.221869,21.691691 1.542127,-1.356328 m 11.569529,1.198673 1.542127,-1.356328 m -14.258319,6.196104 2.173842,1.560706 m -15.562328,-6.326162 1.486388,-1.449228 m 18.206312,7.687689 2.253127,-1.861494 m -15.282729,1.90228 2.203604,-1.91639 m -2.95232,-5.95246 2.890662,1.790819 m -15.0486623,5.93626 1.911703,-1.807831 M 41.754476,15.687258 h 2.650782 c 0.579182,0 1.045455,0.466272 1.045455,1.045454 v 2.650783 c 0,0.579182 -0.466273,1.045454 -1.045455,1.045454 h -2.650782 c -0.579182,0 -1.045454,-0.466272 -1.045454,-1.045454 v -2.650783 c 0,-0.579182 0.466272,-1.045454 1.045454,-1.045454 z M 29.539169,27.627445 h 2.650782 c 0.579182,0 1.045455,0.466272 1.045455,1.045454 v 2.650782 c 0,0.579182 -0.466273,1.045454 -1.045455,1.045454 h -2.650782 c -0.579182,0 -1.045454,-0.466272 -1.045454,-1.045454 v -2.650782 c 0,-0.579182 0.466272,-1.045454 1.045454,-1.045454 z m 6.355259,-6.107653 h 2.650783 c 0.579182,0 1.045454,0.466274 1.045454,1.045454 v 2.650783 c 0,0.579181 -0.466272,1.045454 -1.045454,1.045454 h -2.650783 c -0.57918,0 -1.045454,-0.466273 -1.045454,-1.045454 v -2.650783 c 0,-0.57918 0.466274,-1.045454 1.045454,-1.045454 z m -7.153103,-5.860044 h 2.650782 c 0.579182,0 1.045454,0.466272 1.045454,1.045454 v 2.650782 c 0,0.579182 -0.466272,1.045454 -1.045454,1.045454 h -2.650782 c -0.579182,0 -1.045455,-0.466272 -1.045455,-1.045454 v -2.650782 c 0,-0.579182 0.466273,-1.045454 1.045455,-1.045454 z m -5.928828,5.860044 h 2.650782 c 0.579182,0 1.045454,0.466272 1.045454,1.045454 v 2.650783 c 0,0.579181 -0.466272,1.045454 -1.045454,1.045454 h -2.650781 c -0.579182,0 -1.045456,-0.466273 -1.045456,-1.045454 v -2.650783 c 0,-0.579182 0.466274,-1.045454 1.045455,-1.045454 z m -7.194373,-5.860044 h 2.650783 c 0.579182,0 1.045454,0.466272 1.045454,1.045454 v 2.650782 c 0,0.579182 -0.466272,1.045454 -1.045454,1.045454 h -2.650783 c -0.579181,0 -1.045454,-0.466272 -1.045454,-1.045454 v -2.650782 c 0,-0.579182 0.466273,-1.045454 1.045454,-1.045454 z m 0.935406,11.967697 h 2.650782 c 0.579182,0 1.045454,0.466272 1.045454,1.045454 v 2.650782 c 0,0.579181 -0.466272,1.045454 -1.045454,1.045454 H 16.55353 c -0.579182,0 -1.045454,-0.466273 -1.045454,-1.045454 v -2.650782 c 0,-0.579182 0.466272,-1.045454 1.045454,-1.045454 z M 9.7305662,21.519792 h 2.6507828 c 0.579181,0 1.045454,0.466272 1.045454,1.045454 v 2.650783 c 0,0.579181 -0.466273,1.045454 -1.045454,1.045454 H 9.7305662 c -0.5791818,0 -1.0454541,-0.466273 -1.0454541,-1.045454 v -2.650783 c 0,-0.579182 0.4662723,-1.045454 1.0454541,-1.045454 z m -6.1626756,6.107653 h 2.6507825 c 0.5791818,0 1.045454,0.466272 1.045454,1.045454 v 2.650782 c 0,0.579182 -0.4662722,1.045454 -1.045454,1.045454 H 3.5678906 c -0.5791815,0 -1.0454541,-0.466272 -1.0454541,-1.045454 v -2.650782 c 0,-0.579182 0.4662726,-1.045454 1.0454541,-1.045454 z" /></g></svg>
