<?xml version="1.0" encoding="utf-8"?>
<!DOCTYPE svg PUBLIC "-//W3C//DTD SVG 1.1//EN" "http://www.w3.org/Graphics/SVG/1.1/DTD/svg11.dtd">
<svg version="1.1" id="Layer_1" xmlns="http://www.w3.org/2000/svg" xmlns:xlink="http://www.w3.org/1999/xlink" x="0px" y="0px"
	 width="48px" height="48px" viewBox="0 0 48 48" enable-background="new 0 0 48 48" xml:space="preserve">
<rect display="none" fill="#282828" width="48" height="48"/>
<g display="none">
	<defs>
		<rect id="SVGID_1_" width="48" height="48"/>
	</defs>
	<clipPath id="SVGID_2_" display="inline">
		<use xlink:href="#SVGID_1_"  overflow="visible"/>
	</clipPath>
	
		<path display="inline" clip-path="url(#SVGID_2_)" fill="none" stroke="#FFFFFF" stroke-linecap="round" stroke-linejoin="round" d="
		M40.5,5.5h-33c-1.105,0-2,0.895-2,2v33c0,1.105,0.895,2,2,2h33c1.105,0,2-0.895,2-2v-33C42.5,6.395,41.605,5.5,40.5,5.5z"/>
	
		<path display="inline" clip-path="url(#SVGID_2_)" fill="none" stroke="#FFFFFF" stroke-linecap="round" stroke-linejoin="round" d="
		M25.578,36.143c-0.041-4.789,1.063-8.746,7.081-8.498C41.246,5.762,6.235,6.596,15.568,27.514c2.829-0.175,7.521,1.51,6.72,9.146"
		/>
	
		<line display="inline" clip-path="url(#SVGID_2_)" fill="none" stroke="#FFFFFF" stroke-linecap="round" stroke-linejoin="round" x1="42.5" y1="33.479" x2="5.5" y2="39.303"/>
	
		<line display="inline" clip-path="url(#SVGID_2_)" fill="none" stroke="#FFFFFF" stroke-linecap="round" stroke-linejoin="round" x1="5.5" y1="11.04" x2="17.845" y2="13.33"/>
	
		<line display="inline" clip-path="url(#SVGID_2_)" fill="none" stroke="#FFFFFF" stroke-linecap="round" stroke-linejoin="round" x1="32.355" y1="15.53" x2="42.5" y2="17.011"/>
</g>
<image display="none" overflow="visible" width="192" height="192" xlink:href="ic_launcher3.png"  transform="matrix(0.2396 0 0 0.2396 1 1)">
</image>
<circle fill="none" stroke="#FFFFFF" stroke-linecap="round" stroke-linejoin="round" stroke-miterlimit="10" cx="24" cy="24" r="20.294"/>
<line fill="none" stroke="#FFFFFF" stroke-linecap="round" stroke-linejoin="round" stroke-miterlimit="10" x1="24" y1="3.706" x2="24" y2="8.905"/>
<line fill="none" stroke="#FFFFFF" stroke-linecap="round" stroke-linejoin="round" stroke-miterlimit="10" x1="9.894" y1="9.409" x2="13.57" y2="13.086"/>
<line fill="none" stroke="#FFFFFF" stroke-linecap="round" stroke-linejoin="round" stroke-miterlimit="10" x1="38.619" y1="9.928" x2="34.942" y2="13.604"/>
<g>
	
		<circle fill="none" stroke="#FFFFFF" stroke-linecap="round" stroke-linejoin="round" stroke-miterlimit="10" cx="23.999" cy="24" r="15.094"/>
	
		<line fill="none" stroke="#FFFFFF" stroke-linecap="round" stroke-linejoin="round" stroke-miterlimit="10" x1="24" y1="8.905" x2="24" y2="24"/>
	
		<line fill="none" stroke="#FFFFFF" stroke-linecap="round" stroke-linejoin="round" stroke-miterlimit="10" x1="39.096" y1="24" x2="8.905" y2="24"/>
</g>
<line fill="none" stroke="#FFFFFF" stroke-linecap="round" stroke-linejoin="round" stroke-miterlimit="10" x1="3.706" y1="24" x2="8.905" y2="24"/>
<line fill="none" stroke="#FFFFFF" stroke-linecap="round" stroke-linejoin="round" stroke-miterlimit="10" x1="39.088" y1="24" x2="44.294" y2="24"/>
<line fill="none" stroke="#FFFFFF" stroke-linecap="round" stroke-linejoin="round" stroke-miterlimit="10" x1="13.577" y1="34.919" x2="9.901" y2="38.596"/>
<line fill="none" stroke="#FFFFFF" stroke-linecap="round" stroke-linejoin="round" stroke-miterlimit="10" x1="34.818" y1="34.519" x2="38.499" y2="38.199"/>
<line fill="none" stroke="#FFFFFF" stroke-linecap="round" stroke-linejoin="round" stroke-miterlimit="10" x1="23.999" y1="39.095" x2="23.999" y2="44.294"/>
</svg>
