<?xml version="1.0" encoding="utf-8"?>
<svg
	version="1.1"
	xmlns="http://www.w3.org/2000/svg"
	xmlns:xlink="http://www.w3.org/1999/xlink"
	x="0%" y="0%"
	width="100%" height="100%"
	viewBox="0 0 48.0 48.0"
	enable-background="new 0 0 48.0 48.0"
	xml:space="preserve">
	<path
		fill="#FFFFFF"
		stroke="#FFFFFF"
		fill-opacity="0.000"
		stroke-opacity="1.000"
		fill-rule="nonzero"
		stroke-width="0.63085705"
		stroke-linejoin="round"
		stroke-linecap="round"
		d="M24.00,1.00C36.70,1.00,47.00,11.30,47.00,24.00C47.00,36.70,36.70,47.00,24.00,47.00C11.30,47.00,1.00,36.70,1.00,24.00C1.00,11.30,11.30,1.00,24.00,1.00z"/>
	<path
		fill="#FFFFFF"
		stroke="#FFFFFF"
		fill-opacity="0.000"
		stroke-opacity="1.000"
		fill-rule="nonzero"
		stroke-width="0.63085705"
		stroke-linejoin="round"
		stroke-linecap="round"
		d="M15.46,2.97L17.43,4.29L22.69,4.94L21.37,7.57L19.40,8.23L17.43,11.51L12.83,14.80L7.57,15.46L7.57,18.09L8.89,19.40L9.54,21.37L11.51,20.06L12.83,23.34L18.74,23.34L20.71,26.63L24.00,27.29L23.34,31.23L20.06,33.86L20.02,36.24L16.77,39.11L16.77,43.06L14.14,41.74L12.83,38.46L12.83,29.91L8.89,29.26L7.57,26.63L7.57,24.00L8.89,22.69L4.29,19.40L2.97,15.46"/>
	<path
		fill="#FFFFFF"
		stroke="#FFFFFF"
		fill-opacity="0.000"
		stroke-opacity="1.000"
		fill-rule="nonzero"
		stroke-width="0.63085705"
		stroke-linejoin="round"
		stroke-linecap="round"
		d="M33.86,3.63L31.23,4.94L27.94,4.94L26.63,8.23L28.60,8.89L33.00,8.00L37.14,9.54L39.11,9.54L40.43,8.23"/>
	<path
		fill="#FFFFFF"
		stroke="#FFFFFF"
		fill-opacity="0.000"
		stroke-opacity="1.000"
		fill-rule="nonzero"
		stroke-width="0.63085705"
		stroke-linejoin="round"
		stroke-linecap="round"
		d="M43.71,12.83L39.11,14.80L34.51,14.14L32.54,11.51L27.94,11.51L25.31,13.49L25.97,19.40L31.89,22.03L35.17,20.71L37.14,22.69L37.14,25.97L40.43,31.89L40.43,35.17L42.40,37.14"/>
</svg>