<?xml version="1.0" encoding="utf-8"?>
<!-- Generator: Adobe Illustrator 26.0.2, SVG Export Plug-In . SVG Version: 6.00 Build 0)  -->
<svg version="1.1" xmlns="http://www.w3.org/2000/svg" xmlns:xlink="http://www.w3.org/1999/xlink" x="0px" y="0px"
	 viewBox="0 0 48 48" style="enable-background:new 0 0 48 48;" xml:space="preserve">
<g id="Layer_1" style="display:none;">
	
		<rect x="-1542.836" y="-83.181" style="display:inline;fill:#282828;stroke:#FFFFFF;stroke-width:0;stroke-miterlimit:10;" width="3706.467" height="4077.28"/>
</g>
<g id="Layer_2">
	<g>
		
			<line style="fill:none;stroke:#FFFFFF;stroke-width:1.0298;stroke-linejoin:round;stroke-miterlimit:10;" x1="13.272" y1="23.449" x2="13.272" y2="45.149"/>
		<g>
			<path style="fill:none;stroke:#FFFFFF;stroke-width:1.0298;stroke-miterlimit:10;" d="M3.164,23.449h21.778
				c0.623,0,1.178,0.405,1.379,1.007l6.547,19.504l10.975-29.459"/>
			<path style="fill:none;stroke:#FFFFFF;stroke-width:1.0298;stroke-miterlimit:10;" d="M42.141,45.149H5.859
				c-1.488,0-2.695-1.207-2.695-2.695V16.448c0-1.22,0.989-2.209,2.209-2.209h36.768c1.488,0,2.695,1.207,2.695,2.695v25.521
				C44.836,43.942,43.63,45.149,42.141,45.149z"/>
			<g>
				<path style="fill:none;stroke:#FFFFFF;stroke-width:1.0298;stroke-linecap:round;stroke-miterlimit:10;" d="M15.321,11.336
					c0-2.128,1.826-3.853,4.079-3.853s4.079,1.725,4.079,3.853"/>
				
					<line style="fill:none;stroke:#FFFFFF;stroke-width:1.0298;stroke-linecap:round;stroke-miterlimit:10;" x1="21.835" y1="7.847" x2="26.479" y2="1.863"/>
				
					<line style="fill:none;stroke:#FFFFFF;stroke-width:1.0298;stroke-linecap:round;stroke-miterlimit:10;" x1="17.252" y1="7.847" x2="14.139" y2="4.244"/>
			</g>
		</g>
	</g>
</g>
</svg>
