<?xml version="1.0" encoding="UTF-8" standalone="no"?>
<svg
   xmlns:dc="http://purl.org/dc/elements/1.1/"
   xmlns:cc="http://creativecommons.org/ns#"
   xmlns:rdf="http://www.w3.org/1999/02/22-rdf-syntax-ns#"
   xmlns:svg="http://www.w3.org/2000/svg"
   xmlns="http://www.w3.org/2000/svg"
   xmlns:sodipodi="http://sodipodi.sourceforge.net/DTD/sodipodi-0.dtd"
   xmlns:inkscape="http://www.inkscape.org/namespaces/inkscape"
   viewBox="0 0 48 48"
   version="1.1">
  <sodipodi:namedview
     pagecolor="#ffffff"
     bordercolor="#666666"
     borderopacity="1"
     objecttolerance="10"
     gridtolerance="10"
     guidetolerance="10"
     inkscape:pageopacity="0"
     inkscape:pageshadow="2"
     inkscape:window-width="1872"
     inkscape:window-height="1054"
     id="namedview10"
     showgrid="false"
     inkscape:zoom="17.288642"
     inkscape:cx="37.310412"
     inkscape:cy="22.464076"
     inkscape:window-x="0"
     inkscape:window-y="0"
     inkscape:window-maximized="1"
     inkscape:current-layer="svg30"
     inkscape:document-rotation="0"
     showguides="false">
    <inkscape:grid
       type="xygrid"
       id="grid855" />
  </sodipodi:namedview>
  <defs
     id="defs4">
    <inkscape:path-effect
       effect="bspline"
       id="path-effect945"
       is_visible="true"
       lpeversion="1"
       weight="33.333333"
       steps="2"
       helper_size="0"
       apply_no_weight="true"
       apply_with_weight="true"
       only_selected="false" />
    <inkscape:path-effect
       effect="bspline"
       id="path-effect933"
       is_visible="true"
       lpeversion="1"
       weight="33.333333"
       steps="2"
       helper_size="0"
       apply_no_weight="true"
       apply_with_weight="true"
       only_selected="false" />
    <inkscape:path-effect
       effect="bspline"
       id="path-effect929"
       is_visible="true"
       lpeversion="1"
       weight="33.333333"
       steps="2"
       helper_size="0"
       apply_no_weight="true"
       apply_with_weight="true"
       only_selected="false" />
    <inkscape:path-effect
       effect="bspline"
       id="path-effect925"
       is_visible="true"
       lpeversion="1"
       weight="33.333333"
       steps="2"
       helper_size="0"
       apply_no_weight="true"
       apply_with_weight="true"
       only_selected="false" />
    <inkscape:path-effect
       effect="bspline"
       id="path-effect901"
       is_visible="true"
       lpeversion="1"
       weight="33.333333"
       steps="2"
       helper_size="0"
       apply_no_weight="true"
       apply_with_weight="true"
       only_selected="false" />
    <inkscape:path-effect
       effect="bspline"
       id="path-effect897"
       is_visible="true"
       lpeversion="1"
       weight="33.333333"
       steps="2"
       helper_size="0"
       apply_no_weight="true"
       apply_with_weight="true"
       only_selected="false" />
    <inkscape:path-effect
       effect="bspline"
       id="path-effect889"
       is_visible="true"
       lpeversion="1"
       weight="33.333333"
       steps="2"
       helper_size="0"
       apply_no_weight="true"
       apply_with_weight="true"
       only_selected="false" />
    <inkscape:path-effect
       effect="bspline"
       id="path-effect875"
       is_visible="true"
       lpeversion="1"
       weight="33.333333"
       steps="2"
       helper_size="0"
       apply_no_weight="true"
       apply_with_weight="true"
       only_selected="false" />
    <inkscape:path-effect
       effect="bspline"
       id="path-effect871"
       is_visible="true"
       lpeversion="1"
       weight="33.333333"
       steps="2"
       helper_size="0"
       apply_no_weight="true"
       apply_with_weight="true"
       only_selected="false" />
    <inkscape:path-effect
       effect="bspline"
       id="path-effect867"
       is_visible="true"
       lpeversion="1"
       weight="33.333333"
       steps="2"
       helper_size="0"
       apply_no_weight="true"
       apply_with_weight="true"
       only_selected="false" />
    <inkscape:path-effect
       effect="bspline"
       id="path-effect863"
       is_visible="true"
       lpeversion="1"
       weight="33.333333"
       steps="2"
       helper_size="0"
       apply_no_weight="true"
       apply_with_weight="true"
       only_selected="false" />
    <inkscape:path-effect
       effect="bspline"
       id="path-effect859"
       is_visible="true"
       lpeversion="1"
       weight="33.333333"
       steps="2"
       helper_size="0"
       apply_no_weight="true"
       apply_with_weight="true"
       only_selected="false" />
    <style
       id="style2">.a{fill:none;stroke:#fff;stroke-linecap:round;stroke-linejoin:round;}</style>
  </defs>
  <path
     style="opacity:1;fill:none;stroke:#f8ffff;stroke-width:1;stroke-linecap:square;stroke-linejoin:round;stroke-miterlimit:4;stroke-dasharray:none;stroke-opacity:1;paint-order:stroke markers fill"
     id="path853"
     sodipodi:type="arc"
     sodipodi:cx="14.318806"
     sodipodi:cy="37.173248"
     sodipodi:rx="4.875"
     sodipodi:ry="4.875"
     sodipodi:start="5.1700658"
     sodipodi:end="4.2476837"
     sodipodi:open="true"
     sodipodi:arc-type="arc"
     d="m 16.472899,32.799976 a 4.875,4.875 0 0 1 2.595754,5.470804 4.875,4.875 0 0 1 -4.732715,3.777438 4.875,4.875 0 0 1 -4.7591484,-3.744081 4.875,4.875 0 0 1 2.5572394,-5.488913" />
  <path
     style="fill:none;stroke:#f8ffff;stroke-width:1;stroke-linecap:butt;stroke-linejoin:miter;stroke-opacity:1;stroke-miterlimit:4;stroke-dasharray:none"
     d="m 16.302744,33.010649 c 0,0 0,-12.79949 0,-12.79949"
     id="path865"
     inkscape:path-effect="#path-effect867"
     inkscape:original-d="M 16.302744,33.010649 V 20.211159" />
  <path
     style="fill:none;stroke:#f8ffff;stroke-width:1;stroke-linecap:butt;stroke-linejoin:miter;stroke-opacity:1;stroke-miterlimit:4;stroke-dasharray:none"
     d="m 31.645809,9.7179065 c 0,0 0.0068,-4.8172403 0.0068,-4.8172403 0,0 4.179178,0 4.179178,0 0,0 0,4.8157091 0,4.8157091 0,0 4.540965,0 4.540965,0 0,0 0,4.1452147 0,4.1452147 0,0 -4.516599,0 -4.516599,0 0,0 0,4.336227 0,4.336227 0,0 -4.198185,0 -4.198185,0 0,0 -0.0164,-4.331446 -0.0164,-4.331446 0,0 -4.73658,0 -4.73658,0 0,0 0,-4.1574203 0,-4.1574203 0,0 4.740821,0.00896 4.740821,0.00896 z"
     id="path899"
     inkscape:path-effect="#path-effect901"
     inkscape:original-d="m 31.645809,9.7179065 0.0068,-4.8172403 h 4.179178 v 4.8157091 h 4.540965 V 13.86159 h -4.516599 v 4.336227 h -4.198185 l -0.0164,-4.331446 h -4.73658 V 9.7089507 Z" />
  <path
     id="path943"
     style="fill:none;stroke:#f8ffff;stroke-width:1;stroke-linecap:round;stroke-linejoin:miter;stroke-opacity:1;stroke-miterlimit:4;stroke-dasharray:none"
     d="m 35.82635,32.131631 c 0,0 -0.02861,0.228276 -0.02861,0.228276 m -0.26502,1.005622 c 0,0 0.26502,-1.005622 0.26502,-1.005622 m -6.544961,1.841953 c 0,0 2.194516,1.170391 2.194516,1.170391 m 4.085424,-2.006723 a 3.1989827,3.1989827 0 0 1 -1.623502,1.856818 3.1989827,3.1989827 0 0 1 -2.461922,0.149905 M 12.666726,17.34721 a 3.1989827,3.1989827 0 0 1 1.623503,-1.856818 3.1989827,3.1989827 0 0 1 2.461921,-0.149906 m -0.01657,-0.01386 c 0,0 1.109341,0.42974 1.109341,0.42974 0,0 0.500845,0.289163 0.500845,0.289163 0,0 1.243317,1.243317 1.243317,1.243317 0,0 12.084813,13.122522 12.084813,13.122522 0,0 0,-9.78073 0,-9.78073 0,0 4.147435,0 4.147435,0 0,0 0,11.07736 0,11.07736 M 16.302744,20.211159 c 0,0 12.915244,13.973646 12.915244,13.973646 m 6.603338,-2.616555 c 0,0 0,0.63803 0,0.63803 m -23.483631,0.817873 c 0,0 0,-14.448983 0,-14.448983 m 0.342755,-1.284285 c 0,0 -0.346681,1.415453 -0.346681,1.415453" />
</svg>
