<svg version="1.1" viewBox="0 0 48 48" xml:space="preserve" xmlns="http://www.w3.org/2000/svg"><defs><style>.a{fill:none;stroke:#fff;stroke-linecap:round;stroke-linejoin:round;}</style></defs><path d="m7.251 24.054c-0.031695-0.94563 1.0329-1.6728 2.5668-1.0441l1.5444-1.5662s-0.89284-1.6358 0.10876-2.2188c1.4181-0.82539 4.394 2.2188 4.394 2.2188l1.6749-1.6967s-3.5262-3.2187-2.1317-4.6131c1.0059-1.0059 2.371 0.3931 2.371 0.3931l1.6097-1.6315s-1.248-1.4058-0.39154-2.2623c0.85478-0.8548 2.458 0 2.458 0l1.4139-1.6097s-1.1718-2.6756 1.0659-2.6756c1.9531 0 0.93535 2.6538 0.93535 2.6538l1.5444 1.5662s1.4982-0.98973 2.3493 0c0.66375 0.77191-0.32629 2.1535-0.32629 2.1535l1.6532 1.762s1.7466-1.0519 2.4145-0.06526c1.0163 1.5013-1.6532 3.8285-1.6532 3.8285l1.5227 1.6315s2.1882-2.7056 3.7849-1.7837c1.1914 0.68788 0.26103 2.3058 0.26103 2.3058l1.5662 1.5444s2.7626-0.56152 2.7626 1.1094c0 2.2296-2.8931 0.89186-2.8931 0.89186l-1.5662 1.5227s0.83208 1.5719 0.0435 2.3058c-0.83462 0.77677-2.3928-0.21753-2.3928-0.21753l-1.7837 1.5662s1.4394 1.5787 0.43505 2.3928c-1.3851 1.1227-3.8284-1.5662-3.8284-1.5662l-1.7837 1.7402s2.7336 2.128 1.8272 3.698c-0.57093 0.9889-2.284 0.17402-2.284 0.17402l-1.4128 1.3704s0.54012 2.7191-1.067 2.7191c-1.9589 0-1.4357-2.7191-1.4357-2.7191l-1.2834-1.3922s-1.6975 1.0318-2.3058-0.02176c-0.99445-1.7225 2.2622-4.4376 2.2622-4.4376l-1.7184-1.6967s-2.475 3.3253-4.1982 2.2405c-1.2202-0.76811 0.10876-2.5233 0.10876-2.5233l-1.5444-1.5662s-1.4452 1.2304-2.3928 0.28278c-0.86422-0.86424-0.06526-2.3275-0.06526-2.3275l-1.5227-1.5444s-2.6334 1.0157-2.6973-0.89186z" fill="none" stroke="#fff" stroke-linecap="round" stroke-linejoin="round" stroke-width="1px"/><rect transform="matrix(.7071 .70711 -.7071 .70711 0 0)" x="29.47" y="-4.4712" width="8.9417" height="8.9417" rx="2.3353" ry="2.3353" fill="none" stroke="#fff" stroke-linecap="round" stroke-linejoin="round"/></svg>
