<svg width="48" height="48" viewBox="0 0 12.7 12.7" xmlns="http://www.w3.org/2000/svg"><path style="fill:none;stroke:#fff;stroke-width:.264583px;stroke-linecap:round;stroke-linejoin:round;stroke-opacity:1" d="M1.322 11.244c.21-.773-.297-4.325.715-5.91-.493-.76-1.104-1.356-1.01-2.566L.668 1.726c.84.597 1.569.69 2.255.809.49.025 1.165.202 1.508.45 1.267-.764 2.822-.77 4.152-.092.433-.328 2.061-.446 2.224-.53.466-.134.882-.286 1.306-.59-.068.238-.28.595-.314 1.05-.057.763-.19 1.38-.836 2.324 1.038 1.776.521 5.43.73 6.081" transform="matrix(.90734 0 0 .90734 .55 .466)"/><path style="fill:none;stroke:#fff;stroke-width:.265;stroke-linecap:round;stroke-linejoin:round;stroke-miterlimit:4;stroke-dasharray:none;stroke-opacity:1" d="M.87 1.983C1.53 3.087 3.278 3.335 3.772 3.95c.417-.433 1.41-.934 1.796-.966" transform="matrix(.90734 0 0 .90734 .55 .466)"/><path style="fill:none;stroke:#fff;stroke-width:.264583px;stroke-linecap:round;stroke-linejoin:round;stroke-opacity:1" d="M3.771 3.95c-.55.391-1.233 1.257-1.462 2.037" transform="matrix(.90734 0 0 .90734 .55 .466)"/><path style="fill:none;stroke:#fff;stroke-width:.265;stroke-linecap:round;stroke-linejoin:round;stroke-miterlimit:4;stroke-dasharray:none;stroke-opacity:1" d="M11.926 2.034c-.945 1.21-2.06 1.165-2.711 1.787-.165-.227-1.097-.656-1.704-.808" transform="matrix(.90734 0 0 .90734 .55 .466)"/><path style="fill:none;stroke:#fff;stroke-width:.264583px;stroke-linecap:round;stroke-linejoin:round;stroke-opacity:1" d="M9.215 3.821c.806.701 1.116 1.551 1.386 2.216" transform="matrix(.90734 0 0 .90734 .55 .466)"/><path style="fill:none;stroke:#fff;stroke-width:.265;stroke-linecap:round;stroke-linejoin:round;stroke-miterlimit:4;stroke-dasharray:none;stroke-opacity:1" d="M3.354 11.194c-.155-1.275-.054-2.55.23-3.826.157 1.17.29 1.347.485 1.979-.004-.737.043-1.33-.022-2.276v0c.307 1.183.992 1.775 1.341 2.364a12.26 12.26 0 0 1-.143-3.86c.19 2.305.8 3.888 1.99 4.123.053-.999.554-1.608.66-3.661.148 1.305.288 2.61.033 3.915.45-.878.9-1.755 1.078-2.804.128.828.276 1.637.649 2.22.117.406.014 1.24-.033 1.86M5.676 4.3c-.252.305-.407.812-.43 1.275M7.348 4.362c.369.394.487 1.005.547 1.675M8.678 5.598c.34.638.304 1.086.328 1.55" transform="matrix(.90734 0 0 .90734 .55 .466)"/><path style="fill:none;stroke:#fff;stroke-width:.265;stroke-linecap:round;stroke-linejoin:round;stroke-miterlimit:4;stroke-dasharray:none;stroke-opacity:1" d="M4.193 6.017c-.133.39-.166 1.093-.135 1.395M10.63 11.206a11.464 11.464 0 0 0-.226-3.726M9.42 6.998c.384.79.344 1.839.29 2.63M2.59 7.824c-.323 1.135-.31 2.397-.175 3.35" transform="matrix(.90734 0 0 .90734 .55 .466)"/><path style="fill:none;stroke:#fff;stroke-width:.264583px;stroke-linecap:round;stroke-linejoin:round;stroke-opacity:1" d="M6.494 7.945c.106.806.302 1.207.633 1.62" transform="matrix(.90734 0 0 .90734 .55 .466)"/><path style="fill:none;stroke:#fff;stroke-width:.265;stroke-linecap:round;stroke-linejoin:round;stroke-miterlimit:4;stroke-dasharray:none;stroke-opacity:1" d="m1.814 10.502.011.67" transform="matrix(.90734 0 0 .90734 .55 .466)"/><path style="fill:none;stroke:#fff;stroke-width:.264583px;stroke-linecap:round;stroke-linejoin:round;stroke-opacity:1" d="m11.158 10.583.016.622M4.238 4.849c-.459.332-1.039 1.1-1.202 1.638" transform="matrix(.90734 0 0 .90734 .55 .466)"/><path style="fill:none;stroke:#fff;stroke-width:.265;stroke-linecap:round;stroke-linejoin:round;stroke-miterlimit:4;stroke-dasharray:none;stroke-opacity:1" d="M8.855 4.674c.457.37.757.9 1.048 1.509M6.576 4.86c-.11.32-.14.872-.077 1.254" transform="matrix(.90734 0 0 .90734 .55 .466)"/><path style="fill:none;stroke:#fff;stroke-width:.264583px;stroke-linecap:round;stroke-linejoin:round;stroke-opacity:1" d="M1.408 4.31c.118-.2.061-.466.055-.714.138.217.238.448.472.627.1-.257.066-.556-.004-.813.327.253.538.564.587.879l.38-.431c.152.347.06.643-.06.97M11.46 4.243c-.118-.2-.108-.385-.101-.633-.139.216-.223.487-.458.665-.1-.256-.093-.602-.023-.859-.327.253-.464.622-.513.937l-.349-.489c-.152.347-.025.74.096 1.067" transform="matrix(.90734 0 0 .90734 .55 .466)"/><g style="stroke:#fff;stroke-opacity:1"><path style="fill:none;stroke:#fff;stroke-width:.226384;stroke-linecap:round;stroke-linejoin:round;stroke-miterlimit:4;stroke-dasharray:none;stroke-opacity:1" d="M3.773 10.264 3.7 9.833c.694-.022 1.7 0 1.837.267.028 1.115-1.107 1.212-1.657.615M8.61 10.262l.071-.431c-.694-.022-1.7 0-1.837.267-.028 1.115 1.108 1.212 1.657.615" transform="matrix(1.06044 0 0 1.06044 -.103 -1.349)"/></g></svg>