<svg version="1.1" id="Ebene_1" xmlns="http://www.w3.org/2000/svg" x="0" y="0" viewBox="0 0 48 48" style="enable-background:new 0 0 48 48" xml:space="preserve">
  <style>
    .st0{fill:none;stroke:#fff;stroke-linecap:round;stroke-linejoin:round}
  </style>
  <path class="st0" d="M32.5 19.6s-.7-.8-1.3-1.2c-.5-.3-.3-.9-.3-1.1s-3.6-2.2-4.7-2.2-3.7.6-3.7 2.8 2.1 3 4.2 3.5c2.4.6 4.8 1 6.1 3 .7 1.1 1 2.3 1 2.3"/>
  <path class="st0" d="M26.3 21.3s6 2.2 5.4 7.8M26.6 15.2s-2.2-.6-2.2-3.3c0-.9-12.2-3.5-12.2-3.5"/>
  <path class="st0" d="M23 12.4s-6.1-1.5-11.2-.9M23.1 13.7s-5.5-.5-9.3.9M12.5 37.3c-.8 0-1.5.1-1.6.2l-5 4.8c-.2.2.5.4 1.6.4h33.1c1.1 0 1.8-.2 1.6-.4l-5-4.8c-.1-.1-.8-.2-1.6-.2H12.5z"/>
  <g id="XMLID_1_">
    <path class="st0" d="M16.3 31.5h15.4c0 .8-.4 1.6-.9 2.2-.6.6-1.3.9-2.2.9h-9.3c-1.6 0-3-1.4-3-3.1zM16.3 31.5H40.5c1.1 0 1.9-.9 1.9-2v-22c0-1.1-.9-2-2-2h-33c-1.1 0-2 .9-2 2v22c0 1.1.9 2 2 2h8.9z"/>
  </g>
</svg>
