<?xml version="1.0" encoding="UTF-8" standalone="no"?>
<svg
   xmlns:dc="http://purl.org/dc/elements/1.1/"
   xmlns:cc="http://creativecommons.org/ns#"
   xmlns:rdf="http://www.w3.org/1999/02/22-rdf-syntax-ns#"
   xmlns:svg="http://www.w3.org/2000/svg"
   xmlns="http://www.w3.org/2000/svg"
   xmlns:sodipodi="http://sodipodi.sourceforge.net/DTD/sodipodi-0.dtd"
   xmlns:inkscape="http://www.inkscape.org/namespaces/inkscape"
   viewBox="0 0 48 48"
   version="1.1"
   id="svg8"
   sodipodi:docname="template.svg"
   inkscape:version="1.0.1 (3bc2e813f5, 2020-09-07)">
  <style></style>
  <metadata
     id="metadata12">
    <rdf:RDF>
      <cc:Work
         rdf:about="">
        <dc:format>image/svg+xml</dc:format>
        <dc:type
           rdf:resource="http://purl.org/dc/dcmitype/StillImage" />
        <dc:title></dc:title>
      </cc:Work>
    </rdf:RDF>
  </metadata>
  <sodipodi:namedview
     pagecolor="#595959"
     bordercolor="#666666"
     borderopacity="1"
     objecttolerance="10"
     gridtolerance="10"
     guidetolerance="10"
     inkscape:pageopacity="0"
     inkscape:pageshadow="2"
     inkscape:window-width="3840"
     inkscape:window-height="2098"
     id="namedview10"
     showgrid="false"
     showguides="true"
     inkscape:guide-bbox="true"
     inkscape:zoom="2.3321796"
     inkscape:cx="24"
     inkscape:cy="24"
     inkscape:window-x="0"
     inkscape:window-y="25"
     inkscape:window-maximized="1"
     inkscape:current-layer="svg8"
     inkscape:document-rotation="0" />
  <defs
     id="defs4">
    <style
       id="style2">.a{fill:none;stroke:#fff;stroke-linecap:round;stroke-linejoin:round;}</style>
  </defs>
  <path
     style="fill:none;fill-opacity:1;stroke:#ffffff;stroke-width:1;stroke-linecap:butt;stroke-linejoin:miter;stroke-miterlimit:4;stroke-dasharray:none;stroke-dashoffset:0;stroke-opacity:0.995205"
     id="path9226"
     sodipodi:type="arc"
     sodipodi:cx="23.975166"
     sodipodi:cy="24.064737"
     sodipodi:rx="2.8969686"
     sodipodi:ry="2.8969686"
     sodipodi:start="5.2132075"
     sodipodi:end="4.2660461"
     sodipodi:arc-type="arc"
     d="m 25.366128,21.523546 a 2.8969686,2.8969686 0 0 1 1.405617,3.297217 2.8969686,2.8969686 0 0 1 -2.875476,2.139868 2.8969686,2.8969686 0 0 1 -2.754697,-2.29326 2.8969686,2.8969686 0 0 1 1.583061,-3.215791"
     sodipodi:open="true" />
  <path
     style="fill:none;fill-opacity:1;stroke:#ffffff;stroke-width:1;stroke-linecap:butt;stroke-linejoin:miter;stroke-miterlimit:4;stroke-dasharray:none;stroke-dashoffset:0;stroke-opacity:0.995205"
     id="path9228"
     sodipodi:type="arc"
     sodipodi:cx="23.975166"
     sodipodi:cy="24.064737"
     sodipodi:rx="7.5884614"
     sodipodi:ry="7.5884614"
     sodipodi:start="5.4977871"
     sodipodi:end="4.5471629"
     sodipodi:open="true"
     sodipodi:arc-type="arc"
     d="m 29.341019,18.698885 a 7.5884614,7.5884614 0 0 1 1.112436,9.317627 7.5884614,7.5884614 0 0 1 -8.793836,3.274773 7.5884614,7.5884614 0 0 1 -5.253018,-7.775699 7.5884614,7.5884614 0 0 1 6.320451,-6.935964" />
  <path
     style="fill:none;fill-opacity:1;stroke:#ffffff;stroke-width:1;stroke-linecap:butt;stroke-linejoin:miter;stroke-miterlimit:4;stroke-dasharray:none;stroke-dashoffset:0;stroke-opacity:0.995205"
     id="path9230"
     sodipodi:type="arc"
     sodipodi:cx="23.975166"
     sodipodi:cy="24.064737"
     sodipodi:rx="10.076786"
     sodipodi:ry="10.076786"
     sodipodi:start="5.4977871"
     sodipodi:end="4.5877639"
     sodipodi:open="true"
     sodipodi:arc-type="arc"
     d="m 31.10053,16.939373 a 10.076786,10.076786 0 0 1 1.423507,12.460008 10.076786,10.076786 0 0 1 -11.817867,4.19716 10.076786,10.076786 0 0 1 -6.754508,-10.566683 10.076786,10.076786 0 0 1 8.770932,-8.963755" />
  <path
     style="fill:none;fill-opacity:1;stroke:#ffffff;stroke-width:1;stroke-linecap:butt;stroke-linejoin:miter;stroke-miterlimit:4;stroke-dasharray:none;stroke-dashoffset:0;stroke-opacity:0.995205"
     id="path9232"
     sodipodi:type="arc"
     sodipodi:cx="23.975166"
     sodipodi:cy="24.064737"
     sodipodi:rx="14.638936"
     sodipodi:ry="14.638936"
     sodipodi:start="5.4977871"
     sodipodi:end="4.6267984"
     sodipodi:open="true"
     sodipodi:arc-type="arc"
     d="M 34.326457,13.713446 A 14.638936,14.638936 0 0 1 36.318224,31.935404 14.638936,14.638936 0 0 1 18.956831,37.816637 14.638936,14.638936 0 0 1 9.4638815,22.135732 14.638936,14.638936 0 0 1 22.723741,9.4793891" />
  <path
     style="fill:none;fill-opacity:1;stroke:#ffffff;stroke-width:1;stroke-linecap:butt;stroke-linejoin:miter;stroke-miterlimit:4;stroke-dasharray:none;stroke-dashoffset:0;stroke-opacity:0.995205"
     id="path9234"
     sodipodi:type="arc"
     sodipodi:cx="23.975166"
     sodipodi:cy="24.064737"
     sodipodi:rx="17.047476"
     sodipodi:ry="17.047476"
     sodipodi:start="5.4977871"
     sodipodi:end="4.6388451"
     sodipodi:open="true"
     sodipodi:arc-type="arc"
     d="M 36.029552,12.010351 A 17.047476,17.047476 0 0 1 38.321354,33.27361 17.047476,17.047476 0 0 1 18.034811,40.043743 17.047476,17.047476 0 0 1 7.0973298,21.665766 17.047476,17.047476 0 0 1 22.722559,7.0633431" />
  <path
     style="fill:none;stroke:#ffffff;stroke-width:1px;stroke-linecap:square;stroke-linejoin:miter;stroke-opacity:1"
     d="M 29.341019,18.698885 31.10053,16.939373"
     id="path9236" />
  <path
     style="fill:none;stroke:#ffffff;stroke-width:1px;stroke-linecap:square;stroke-linejoin:miter;stroke-opacity:1"
     d="m 34.326457,13.713446 1.703095,-1.703095"
     id="path9252" />
  <path
     style="fill:none;stroke:#ffffff;stroke-width:1px;stroke-linecap:square;stroke-linejoin:miter;stroke-opacity:1"
     d="m 22.724633,21.45158 0.0024,-4.871958"
     id="path9256" />
  <path
     style="fill:none;stroke:#ffffff;stroke-width:1px;stroke-linecap:square;stroke-linejoin:miter;stroke-opacity:1"
     d="m 22.722594,14.066103 0.0011,-4.5867139"
     id="path9258" />
  <path
     style="fill:none;stroke:#ffffff;stroke-width:1px;stroke-linecap:square;stroke-linejoin:miter;stroke-opacity:1"
     d="M 25.366128,21.523546 V 7.0624774 l -2.643569,8.657e-4"
     id="path9260" />
</svg>
