<svg version="1.1" viewBox="0 0 48 48" xmlns="http://www.w3.org/2000/svg">
 <defs>
  <style>.c{fill:none;stroke:#fff;stroke-linecap:round;stroke-linejoin:round;}</style>
  <style>.c{fill:none;stroke:#fff;stroke-linecap:round;stroke-linejoin:round;}</style>
 </defs>
 <g transform="translate(.00086114 -2.0489)">
  <g transform="translate(-98.363 -24.866)" fill="#fff" stroke="#fff">
   <path class="c" d="m117.63 39.421c-0.4234-1.4115-0.7215-2.8773-0.8813-4.3843-0.1571-1.4812-1.449-2.5826-2.9385-2.5826h-6.9092c-1.7767 0-3.1454 1.5345-2.989 3.3043 1.5754 17.828 15.777 32.03 33.606 33.606 1.7698 0.1564 3.3043-1.2073 3.3043-2.9839v-6.1595c0-2.2488-1.1015-3.5362-2.5826-3.6932-1.507-0.1598-2.9728-0.4579-4.3843-0.8813-1.7266-0.5179-3.5957-0.0304-4.8704 1.2442l-2.9566 2.9566c-5.326-2.8825-9.7164-7.2729-12.599-12.599l2.9566-2.9567c1.2746-1.2746 1.7621-3.1438 1.2442-4.8703z"/>
   <circle class="c" cx="133.82" cy="39.454" r="7"/>
   <circle class="st6" cx="133.82" cy="35.679" r=".7" fill="#fff" stroke-width="0"/>
   <line class="st5" x1="133.82" x2="133.82" y1="38.129" y2="43.429" fill="#fff" stroke="#fff" stroke-linecap="round" stroke-linejoin="round"/>
  </g>
 </g>
</svg>
