<svg xmlns="http://www.w3.org/2000/svg" viewBox="0 0 48 48"><defs><style>.a{fill:none;stroke:#fff;stroke-linecap:round;stroke-linejoin:round;}</style></defs><path class="a" d="M4.5,21.53c7-1,10-5.47,6.21-12.37,4.92,4,8.41,2.6,9.39-2.87,1.25,4.32,3.77,4,7.44-.38-.42,2.57-.71,5.07,3,5.25-6.53,3-1.55,3.87,4.35,4.62C30.45,16.9,27.8,19,31.2,23c-5.65-4.17-7.73-4.24-3.93,3.16-4.38-4.25-8.22-6.79-8.11,7.89-2.4-10.15-4-6.7-5.56-2.43-.14-6.4-1.72-8.45-5.82-2.81-2.4,5.26,1.54,7.66,6.38,9.67,8.51,2.94,13.67,2.3,13.62-3.93,3.06,4.13,4.34,1.38,5-3.76.6,4.37,2,6.36,5.28,2.38-.4,2-2.72,4.94,2.74,4.19-1,.78.66,1,2.69,1.27C34.16,42,24.82,43.8,13.59,39.89c-5.49-2-10.08-4.63-7.79-12.12C7,25,8.68,21.87,4.5,21.53Z"/><path class="a" d="M16.88,14.68c.87-1.53,3.25-3.06,4.73-2.2S22.82,16,22,17.54,19,20.81,17.45,20,16,16.21,16.88,14.68Z"/></svg>