<svg xmlns="http://www.w3.org/2000/svg" version="1.1" viewBox="0 0 48 48" xml:space="preserve"><defs><style>.a{fill:none;stroke:#fff;stroke-linecap:round;stroke-linejoin:round;}</style><style/></defs><path d="m21.214 31.149 0.85164 1.8057 1.7289 0.0833-1.2807 1.4407 0.45876 1.8546-1.7586-0.86848-1.5304 0.86445 0.25613-1.8506-1.4856-1.4407 1.8698-0.0833z" fill="none" stroke="#fff" stroke-dashoffset=".5" stroke-linecap="round" stroke-linejoin="round"/><path d="m18.774 18.094v10.986h4.658v-10.986z" fill="none" stroke="#fff" stroke-dashoffset=".5" stroke-linecap="round" stroke-linejoin="round"/><path d="m5.5208 38.223v1.7812h36.958l-0.05388-1.6733" fill="none" stroke="#fff" stroke-dashoffset=".5" stroke-linecap="round" stroke-linejoin="round"/><path d="m11.566 34.14h5.6299" fill="none" stroke="#fff" stroke-dashoffset=".5" stroke-linecap="round" stroke-linejoin="round"/><path d="m11.674 11.882 5.5214 0.05388" fill="none" stroke="#fff" stroke-dashoffset=".5" stroke-linecap="round" stroke-linejoin="round"/><path d="m11.674 38.241v-30.244h5.5214v30.259" fill="none" stroke="#fff" stroke-dashoffset=".5" stroke-linecap="round" stroke-linejoin="round"/><path d="m25.016 16.254h-7.8202" fill="none" stroke="#fff" stroke-dashoffset=".5" stroke-linecap="round" stroke-linejoin="round"/><path d="m28.182 38.287-0.053784-24.947" fill="none" stroke="#fff" stroke-dashoffset=".5" stroke-linecap="round" stroke-linejoin="round"/><path d="m11.566 34.371-4.7498-0.034261-1.2954 3.8863 36.919 0.10791-1.7812-3.8863-12.036-0.038364" fill="none" stroke="#fff" stroke-dashoffset=".5" stroke-linecap="round" stroke-linejoin="round"/><path d="m25.064 38.287-0.05372-24.947h3.1181" fill="none" stroke="#fff" stroke-dashoffset=".5" stroke-linecap="round" stroke-linejoin="round"/></svg>