<svg width="48" height="48" xmlns="http://www.w3.org/2000/svg"><path d="m28.897 22.463 1.024 3.392 1.088-3.392 1.024 3.392 1.088-3.392" fill="none" stroke="#fff" stroke-linecap="round" stroke-linejoin="round"/><path d="M30.008 33.071c8.55-4.398 7.686-17.742 2.584-18.874-4.685-1.04-11.828 3.538-13.476 9.341-1.656 5.832 3.408 12.963 10.892 9.533" fill="none" stroke="#fff" stroke-linecap="round" stroke-linejoin="round"/><path class="st0" d="M23.777 25.855v-2.112c0-.704-.576-1.28-1.28-1.28s-1.28.576-1.28 1.28v2.112m0-2.112v-1.28" stroke-miterlimit="10"/><path class="st0" d="M27.425 25.215c-.192.384-.64.64-1.088.64v0c-.704 0-1.28-.576-1.28-1.28v-.832c0-.704.576-1.28 1.28-1.28v0c.704 0 1.28.576 1.28 1.28v.448h-2.56m11.648 1.024c-.192.384-.64.64-1.088.64v0c-.704 0-1.28-.576-1.28-1.28v-.832c0-.704.576-1.28 1.28-1.28v0c.704 0 1.28.576 1.28 1.28v.448h-2.56" fill="none" stroke="#fff" stroke-linecap="round" stroke-linejoin="round" stroke-miterlimit="10"/><path class="st0" d="M40.737 22.463v3.84c0 .704-.576 1.28-1.28 1.28-.384 0-.704-.128-.896-.384" stroke-miterlimit="10"/><path class="st0" d="M39.457 22.463c.704 0 1.28.576 1.28 1.28v.832c0 .704-.576 1.28-1.28 1.28s-1.28-.576-1.28-1.28v-.832c0-.704.576-1.28 1.28-1.28zm5.12 0v3.84c0 .704-.576 1.28-1.28 1.28-.384 0-.704-.128-.896-.384" stroke-miterlimit="10"/><path class="st0" d="M43.297 22.463c.704 0 1.28.576 1.28 1.28v.832c0 .704-.576 1.28-1.28 1.28s-1.28-.576-1.28-1.28v-.832c0-.704.576-1.28 1.28-1.28z" stroke-miterlimit="10"/><path d="M26.58 15.024c-5.6-3.487-13.603 3.04-15.106 8.513-1.605 5.846 3.408 12.963 10.892 9.533" fill="none" stroke="#fff" stroke-linecap="round" stroke-linejoin="round"/><path d="M19.028 15.025c-5.6-3.487-13.603 3.04-15.106 8.513C2.317 29.384 7.33 36.5 14.814 33.07" fill="none" stroke="#fff" stroke-linecap="round" stroke-linejoin="round"/><style>.st0{fill:none;stroke:#fff;stroke-linecap:round;stroke-linejoin:round;stroke-miterlimit:10}</style></svg>