<svg xmlns="http://www.w3.org/2000/svg" xml:space="preserve" width="48" height="48" fill="#fff"><path d="M4.98 24.42v10.75H4V18.9h.96v2.58h.11q.57-1.26 1.86-2.03 1.29-.76 3-.76 1.63 0 2.88.7t1.95 1.98q.7 1.26.7 2.97v10.84h-.97V24.36q0-2.12-1.3-3.42-1.3-1.32-3.38-1.32-1.4 0-2.5.6-1.08.61-1.7 1.7-.63 1.08-.63 2.5zm20.25 11.1q-1.37 0-2.52-.56-1.16-.56-1.85-1.62-.69-1.07-.69-2.61 0-.92.31-1.67.32-.76 1.03-1.33.7-.58 1.9-.97 1.18-.4 2.93-.6 1.19-.15 2.17-.3t1.58-.48q.6-.33.6-.97v-.82q0-1.83-1.2-2.92-1.19-1.09-3.23-1.09-1.73 0-2.97.76-1.23.77-1.73 2.05l-.92-.35q.42-1.1 1.26-1.86.84-.76 1.96-1.14 1.13-.4 2.39-.4 1.16 0 2.15.35.98.33 1.72.96.74.64 1.14 1.57.4.92.4 2.1v11.55h-.97v-3.13h-.1q-.46 1.01-1.24 1.8-.77.8-1.82 1.24-1.04.44-2.3.44zm.06-.94q1.54 0 2.76-.79 1.22-.8 1.93-2.18.7-1.4.7-3.21v-2.44q-.27.22-.71.4-.44.15-.99.29-.55.13-1.18.22l-1.27.17q-1.98.24-3.17.71-1.17.48-1.7 1.23-.51.74-.51 1.77 0 1.75 1.19 2.79 1.2 1.04 2.95 1.04zm17.9-15.69v.92h-6.84v-.92zm-4.53 16.28V16.3q0-1.2.53-2.04.54-.86 1.43-1.31.89-.47 1.9-.47.48 0 .83.09.36.07.65.18l-.3.89q-.24-.08-.52-.14-.26-.07-.61-.07-1.22 0-2.08.79-.85.78-.85 2.17l-.02 18.78z"/></svg>