<?xml version="1.0" encoding="UTF-8" standalone="no"?>
<svg
   xmlns:dc="http://purl.org/dc/elements/1.1/"
   xmlns:cc="http://creativecommons.org/ns#"
   xmlns:rdf="http://www.w3.org/1999/02/22-rdf-syntax-ns#"
   xmlns:svg="http://www.w3.org/2000/svg"
   xmlns="http://www.w3.org/2000/svg"
   xmlns:sodipodi="http://sodipodi.sourceforge.net/DTD/sodipodi-0.dtd"
   xmlns:inkscape="http://www.inkscape.org/namespaces/inkscape"
   viewBox="0 0 48 48"
   version="1.1">
  <sodipodi:namedview
     pagecolor="#ffffff"
     bordercolor="#666666"
     borderopacity="1"
     objecttolerance="10"
     gridtolerance="10"
     guidetolerance="10"
     inkscape:pageopacity="0"
     inkscape:pageshadow="2"
     inkscape:window-width="1872"
     inkscape:window-height="1054"
     id="namedview10"
     showgrid="false"
     inkscape:zoom="18.334098"
     inkscape:cx="24"
     inkscape:cy="23.951796"
     inkscape:window-x="0"
     inkscape:window-y="0"
     inkscape:window-maximized="1"
     inkscape:current-layer="svg8" />
  <defs
     id="defs4">
    <inkscape:path-effect
       effect="bspline"
       id="path-effect873"
       is_visible="true"
       lpeversion="1"
       weight="33.333333"
       steps="2"
       helper_size="0"
       apply_no_weight="true"
       apply_with_weight="true"
       only_selected="false" />
    <style
       id="style2">.a{fill:none;stroke:#fff;stroke-linecap:round;stroke-linejoin:round;}</style>
  </defs>
  <circle
     class="a"
     cx="24"
     cy="24"
     r="21.5"
     id="circle6"
     style="stroke:#ffffff;stroke-opacity:1;stroke-width:1;stroke-miterlimit:4;stroke-dasharray:none" />
  <path
     style="fill:none;stroke:#ffffff;stroke-width:1;stroke-linecap:butt;stroke-linejoin:miter;stroke-opacity:1;stroke-miterlimit:4;stroke-dasharray:none"
     d="m 23.99243,9.5519173 c 0,0 4.345338,4.3453377 4.345338,4.3453377 0,0 5.468381,0 5.468381,0 0,0 0,6.05312 0,6.05312 0,0 4.035964,4.035964 4.035964,4.035964 0,0 -3.949655,3.949655 -3.949655,3.949655 0,0 0,6.18798 0,6.18798 0,0 -5.771918,0 -5.771918,0 0,0 -4.087301,4.087301 -4.087301,4.087301 0,0 -3.885916,-3.885916 -3.885916,-3.885916 0,0 -5.980648,0 -5.980648,0 0,0 0,-6.084753 0,-6.084753 0,0 -4.109916,-4.109916 -4.109916,-4.109916 0,0 4.26116,-4.26116 4.26116,-4.26116 0,0 0,-5.882072 0,-5.882072 0,0 5.523727,0 5.523727,0 0,0 4.150784,-4.4355407 4.150784,-4.4355407 z"
     id="path871"
     inkscape:path-effect="#path-effect873"
     inkscape:original-d="m 23.99243,9.5519173 4.345338,4.3453377 h 5.468381 v 6.05312 l 4.035964,4.035964 -3.949655,3.949655 v 6.18798 H 28.12054 l -4.087301,4.087301 -3.885916,-3.885916 h -5.980648 v -6.084753 l -4.109916,-4.109916 4.26116,-4.26116 v -5.882072 h 5.523727 z" />
  <path
     id="path885"
     style="fill:none;stroke:#ffffff;stroke-width:1;stroke-opacity:1;stroke-miterlimit:4;stroke-dasharray:none"
     d="M 23.283203 18.414062 A 5.8561988 5.8561988 0 0 0 20.113281 19.318359 A 5.8561988 5.8561988 0 0 1 20.15625 19.34375 A 5.8561988 5.8561988 0 0 1 21.916016 27.4375 A 5.8561988 5.8561988 0 0 1 20.113281 29.224609 A 5.8561988 5.8561988 0 0 0 28.160156 27.4375 A 5.8561988 5.8561988 0 0 0 26.400391 19.34375 A 5.8561988 5.8561988 0 0 0 23.283203 18.414062 z " />
</svg>
