<?xml version="1.0" encoding="UTF-8"?>
<svg version="1.1" viewBox="0 0 48 48" xml:space="preserve" xmlns="http://www.w3.org/2000/svg" xmlns:xlink="http://www.w3.org/1999/xlink">
<defs><style>.a{fill:none;stroke:#fff;stroke-linecap:round;stroke-linejoin:round;}</style></defs>
<path d="m31.75 6.479a18.5 18.5 0 0 1 8.969 19.23 18.5 18.5 0 0 1-15.01 15.01 18.5 18.5 0 0 1-19.23-8.969" class="a"/>
<path d="m32.02 6.75a18.5 18.5 0 0 1-2.94 22.33 18.5 18.5 0 0 1-22.33 2.94" class="a"/>
<path d="m10 8v4" class="a"/>
<path d="m8 10h4" class="a"/>
<path d="m12 18v3" class="a"/>
<path d="m10.5 19.5h3" class="a"/>
<path d="m30.5 14v3" class="a"/>
<path d="m29 15.5h3" class="a"/>
<path d="m38.5 5.5v3" class="a"/>
<path d="m37 7h3" class="a"/>
<path d="m7.5 41h3" class="a"/>
<path d="m9 39.5v3" class="a"/>
<path d="m39.5 36h3" class="a"/>
<path d="m41 34.5 0.02 3" class="a"/>
</svg>
