<?xml version="1.0" encoding="UTF-8" standalone="no"?>
<svg
   xmlns:dc="http://purl.org/dc/elements/1.1/"
   xmlns:cc="http://creativecommons.org/ns#"
   xmlns:rdf="http://www.w3.org/1999/02/22-rdf-syntax-ns#"
   xmlns:svg="http://www.w3.org/2000/svg"
   xmlns="http://www.w3.org/2000/svg"
   xmlns:sodipodi="http://sodipodi.sourceforge.net/DTD/sodipodi-0.dtd"
   xmlns:inkscape="http://www.inkscape.org/namespaces/inkscape"
   viewBox="0 0 48 48"
   version="1.1"
   id="svg8"
   sodipodi:docname="nina.svg"
   inkscape:version="1.0.2 (e86c870879, 2021-01-15)">
  <metadata
     id="metadata12">
    <rdf:RDF>
      <cc:Work
         rdf:about="">
        <dc:format>image/svg+xml</dc:format>
        <dc:type
           rdf:resource="http://purl.org/dc/dcmitype/StillImage" />
        <dc:title />
      </cc:Work>
    </rdf:RDF>
  </metadata>
  <sodipodi:namedview
     pagecolor="#ffffff"
     bordercolor="#666666"
     borderopacity="1"
     objecttolerance="10"
     gridtolerance="10"
     guidetolerance="10"
     inkscape:pageopacity="0"
     inkscape:pageshadow="2"
     inkscape:window-width="1920"
     inkscape:window-height="1015"
     id="namedview10"
     showgrid="true"
     inkscape:zoom="11.313709"
     inkscape:cx="15.860794"
     inkscape:cy="25.575612"
     inkscape:window-x="960"
     inkscape:window-y="32"
     inkscape:window-maximized="1"
     inkscape:current-layer="svg8"
     showguides="true"
     inkscape:guide-bbox="true"
     inkscape:snap-midpoints="true"
     inkscape:snap-others="true"
     inkscape:snap-text-baseline="true"
     inkscape:snap-object-midpoints="true"
     inkscape:snap-center="true"
     inkscape:snap-global="true"
     inkscape:document-rotation="0">
    <inkscape:grid
       type="xygrid"
       id="grid859"
       empspacing="8" />
  </sodipodi:namedview>
  <defs
     id="defs4">
    <style
       id="style2">.a{fill:none;stroke:#fff;stroke-linecap:round;stroke-linejoin:round;}</style>
    <style
       id="style833">.cls-1{fill:#f60;}</style>
  </defs>
  <path
     id="path990"
     style="font-variation-settings:normal;opacity:1;vector-effect:none;fill:none;fill-opacity:1;stroke:#ffffff;stroke-width:1;stroke-linecap:round;stroke-linejoin:round;stroke-miterlimit:6.4;stroke-dasharray:none;stroke-dashoffset:0;stroke-opacity:1;stop-color:#000000;stop-opacity:1"
     d="M 27.779769,26.182251 24,26.18225 H 20.220231 L 22.110116,22.908875 24,19.635499 25.889884,22.908875 Z M 36.93141,11.068979 A 18.2875,18.2875 0 0 1 42.2875,24 v 0 A 18.2875,18.2875 0 0 1 36.93102,36.93141 M 11.06859,36.93102 A 18.2875,18.2875 0 0 1 5.7124996,24 18.2875,18.2875 0 0 1 11.068979,11.06859 m 22.892534,2.97019 A 14.0875,14.0875 0 0 1 38.0875,24 v 0 a 14.0875,14.0875 0 0 1 -4.12628,9.961513 M 14.038487,33.96122 A 14.0875,14.0875 0 0 1 9.9125004,24 14.0875,14.0875 0 0 1 14.03878,14.038487 m 17.035647,2.887912 A 10.004167,10.004167 0 0 1 34.004167,24 v 0 a 10.004167,10.004167 0 0 1 -2.930565,7.074427 M 16.925573,31.073602 A 10.004167,10.004167 0 0 1 13.995833,24 10.004167,10.004167 0 0 1 16.926399,16.925573 M 30.257538,24 A 6.2575378,6.2575378 0 0 1 24,30.257538 6.2575378,6.2575378 0 0 1 17.742462,24 6.2575378,6.2575378 0 0 1 24,17.742462 6.2575378,6.2575378 0 0 1 30.257538,24 Z" />
</svg>
