<?xml version="1.0" encoding="UTF-8"?>
<svg version="1.1" viewBox="0 0 48 48" xml:space="preserve" xmlns="http://www.w3.org/2000/svg"><defs><style>.a{fill:none;stroke:#fff;stroke-linecap:round;stroke-linejoin:round;}</style><style>.c{stroke-width:1px;}.c,.d{fill:none;stroke:#fff;stroke-linecap:round;stroke-linejoin:round;}.e{fill:#fff;stroke-width:0px;}</style><style>.a{fill:none;stroke:#fff;stroke-linecap:round;stroke-linejoin:round;}</style></defs><g transform="translate(-124.41,-20.7)">
		<line class="st5" x1="136" x2="136" y1="40.7" y2="48.7" fill="none" stroke="#fff" stroke-linecap="round" stroke-linejoin="round" stroke-miterlimit="10"/>
	</g><g transform="translate(-180.05,-20.7)">
		<polyline class="st5" points="183.4 48.7 183.4 40.7 188.7 48.7 188.7 40.7" fill="none" stroke="#fff" stroke-linecap="round" stroke-linejoin="round" stroke-miterlimit="10"/>
	</g><g transform="translate(-218.87,-20.7)">
		<path class="st5" d="m233.5 47.8c0.5 0.6 1.1 0.9 2 0.9h1.2c1.1 0 2-0.9 2-2v0c0-1.1-0.9-2-2-2h-1.3c-1.1 0-2-0.9-2-2v0c0-1.1 0.9-2 2-2h1.2c0.9 0 1.5 0.2 2 0.9" fill="none" stroke="#fff" stroke-linecap="round" stroke-linejoin="round" stroke-miterlimit="10"/>
	</g><g transform="translate(-22.29,-20.7)">
		
			
				<line class="st5" x1="57.8" x2="54.2" y1="46" y2="46" fill="none" stroke="#fff" stroke-linecap="round" stroke-linejoin="round" stroke-miterlimit="10"/>
			
		
		<polyline class="st5" points="53.3 48.7 56 40.7 58.7 48.7" fill="none" stroke="#fff" stroke-linecap="round" stroke-linejoin="round" stroke-miterlimit="10"/>
	</g><g transform="translate(-144.05,-20.7)">
		<polyline class="st5" points="183.4 48.7 183.4 40.7 188.7 48.7 188.7 40.7" fill="none" stroke="#fff" stroke-linecap="round" stroke-linejoin="round" stroke-miterlimit="10"/>
	</g><g transform="translate(-210.63,-20.7)">
		<path class="st5" d="m233.5 47.8c0.5 0.6 1.1 0.9 2 0.9h1.2c1.1 0 2-0.9 2-2v0c0-1.1-0.9-2-2-2h-1.3c-1.1 0-2-0.9-2-2v0c0-1.1 0.9-2 2-2h1.2c0.9 0 1.5 0.2 2 0.9" fill="none" stroke="#fff" stroke-linecap="round" stroke-linejoin="round" stroke-miterlimit="10"/>
	</g><path d="m3.35 17 6.1202-0.0035c2.4863-5.7644 8.1807-9.5531 14.53-9.5531 6.3503 0 12.045 3.7894 14.531 9.5537l6.1191 0.00288m-41.3 14 6.1202 0.0035c2.4863 5.7644 8.1807 9.5531 14.53 9.5531 6.3503 0 12.045-3.7894 14.531-9.5537l6.1191-0.00288" fill="none" stroke="#fff" stroke-linecap="round" stroke-linejoin="round" stroke-width="1px"/></svg>
