<?xml version="1.0" encoding="UTF-8"?>
<svg id="a" xmlns="http://www.w3.org/2000/svg" viewBox="0 0 48 48">
<defs><style>.a{fill:none;stroke:#fff;stroke-linecap:round;stroke-linejoin:round;}</style></defs>
  <path
     class="a"
     d="m 10.067607,19.582247 a 2.0280916,1.9330059 0 1 0 2.028092,1.933005 2.0280916,1.9330059 0 0 0 -2.028092,-1.933005 z" />
  <path
     class="a"
     d="m 10.606253,35.50445 a 0.35058682,0.40971297 0 0 1 -0.500838,0.05017 l -0.04293,-0.05017 C 8.9105575,33.949213 4.467406,27.535951 4.467406,22.226406 a 5.8097246,6.7895292 0 1 1 11.619449,0 c 0,5.242652 -4.378758,11.647553 -5.480602,13.278044 z" />
  <path
     class="a"
     d="m 37.694451,11.141063 c 2.36261,0 4.277884,2.353642 4.277884,5.257006 v 6.507357 c 0,2.903366 -1.915274,5.257003 -4.277884,5.257003 -2.36261,0 -4.277884,-2.353637 -4.277884,-5.257003 v -6.507357 c 0,-2.903364 1.915274,-5.257006 4.277884,-5.257006 z m 1.652691,19.791486 v 4.314199 m -3.305382,0 v -4.314406" />
  <path
     class="a"
     d="m 31.11402,24.250912 a 6.7456776,8.2896275 0 0 0 13.232434,0" />
  <path
     class="a"
     d="m 37.730406,11.441965 v 6.009072" />
  <path
     class="a"
     d="m 39.257054,11.701117 v 5.74992" />
  <path
     class="a"
     d="m 36.203758,11.772145 v 5.678892" />
  <path
     class="a"
     d="m 10.249663,35.670413 6.305651,-0.140126 2.382135,-7.566782 2.101885,11.630424 1.681507,-8.26741 1.961758,6.866154 2.382135,-11.350173 2.24201,13.03168 1.401255,-4.484019 8.623263,0.06822" />
</svg>
