<svg id="a" xmlns="http://www.w3.org/2000/svg" viewBox="0 0 48 48"><defs><style>.a{fill:none;stroke:#fff;stroke-linecap:round;stroke-linejoin:round}</style></defs><path class="a" d="M10.068 19.582a2.028 1.933 0 1 0 2.028 1.933 2.028 1.933 0 0 0-2.028-1.933z"/><path class="a" d="M10.606 35.504a.35.41 0 0 1-.5.05l-.044-.05c-1.151-1.555-5.595-7.968-5.595-13.278a5.81 6.79 0 1 1 11.62 0c0 5.243-4.379 11.648-5.48 13.278zM37.694 11.141c2.363 0 4.278 2.354 4.278 5.257v6.507c0 2.904-1.915 5.257-4.278 5.257-2.362 0-4.277-2.353-4.277-5.257v-6.507c0-2.903 1.915-5.257 4.277-5.257zm1.653 19.792v4.314m-3.305 0v-4.315"/><path class="a" d="M31.114 24.25a6.746 8.29 0 0 0 13.232 0M37.73 11.442v6.009M39.257 11.701v5.75M36.204 11.772v5.679M10.25 35.67l6.305-.14 2.382-7.566 2.102 11.63 1.682-8.267 1.962 6.866 2.382-11.35 2.242 13.031 1.401-4.484 8.623.068"/></svg>
