<?xml version="1.0" encoding="UTF-8" standalone="no"?>
<svg
   xmlns:dc="http://purl.org/dc/elements/1.1/"
   xmlns:cc="http://creativecommons.org/ns#"
   xmlns:rdf="http://www.w3.org/1999/02/22-rdf-syntax-ns#"
   xmlns:svg="http://www.w3.org/2000/svg"
   xmlns="http://www.w3.org/2000/svg"
   xmlns:sodipodi="http://sodipodi.sourceforge.net/DTD/sodipodi-0.dtd"
   xmlns:inkscape="http://www.inkscape.org/namespaces/inkscape"
   viewBox="0 0 48 48"
   version="1.1">
  <sodipodi:namedview
     pagecolor="#ffffff"
     bordercolor="#666666"
     borderopacity="1"
     objecttolerance="10"
     gridtolerance="10"
     guidetolerance="10"
     inkscape:pageopacity="0"
     inkscape:pageshadow="2"
     inkscape:window-width="1318"
     inkscape:window-height="742"
     id="namedview10"
     showgrid="false"
     inkscape:zoom="16.852712"
     inkscape:cx="26.026446"
     inkscape:cy="23.087177"
     inkscape:window-x="0"
     inkscape:window-y="0"
     inkscape:window-maximized="1"
     inkscape:current-layer="svg13"
     inkscape:document-rotation="0" />
  <defs
     id="defs4">
    <inkscape:path-effect
       effect="bspline"
       id="path-effect880"
       is_visible="true"
       lpeversion="1"
       weight="33.333333"
       steps="2"
       helper_size="0"
       apply_no_weight="true"
       apply_with_weight="true"
       only_selected="false" />
    <inkscape:path-effect
       effect="bspline"
       id="path-effect876"
       is_visible="true"
       lpeversion="1"
       weight="33.333333"
       steps="2"
       helper_size="0"
       apply_no_weight="true"
       apply_with_weight="true"
       only_selected="false" />
    <inkscape:path-effect
       effect="bspline"
       id="path-effect872"
       is_visible="true"
       lpeversion="1"
       weight="33.333333"
       steps="2"
       helper_size="0"
       apply_no_weight="true"
       apply_with_weight="true"
       only_selected="false" />
    <inkscape:path-effect
       effect="bspline"
       id="path-effect868"
       is_visible="true"
       lpeversion="1"
       weight="33.333333"
       steps="2"
       helper_size="0"
       apply_no_weight="true"
       apply_with_weight="true"
       only_selected="false" />
    <style
       id="style2">.a{fill:none;stroke:#fff;stroke-linecap:round;stroke-linejoin:round;}</style>
  </defs>
  <circle
     class="a"
     cx="24"
     cy="24"
     r="21.5"
     id="circle6"
     style="stroke:#f7ffef;stroke-opacity:1" />
  <path
     id="path878"
     style="fill:none;stroke:#f7ffef;stroke-width:1px;stroke-linecap:butt;stroke-linejoin:miter;stroke-opacity:1"
     d="m 27.221973,36.622814 c 0,0 1.723235,-10.334541 1.723235,-10.334541 M 14.865475,12.20028 c 0,0 4.432752,9.860879 4.432752,9.860879 m 19.019416,-8.96414 c 0,0 -5.183229,22.481284 -5.183229,22.481284 0,0 -5.912441,1.044511 -5.912441,1.044511 0,0 -7.923746,-14.561655 -7.923746,-14.561655 0,0 -3.776449,14.003846 -3.776449,14.003846 M 32.507137,11.859619 c 0,0 -3.561929,14.428654 -3.561929,14.428654 0,0 -8.223963,-14.831109 -8.223963,-14.831109 0,0 -5.85577,0.743116 -5.85577,0.743116 0,0 -5.1542025,22.627325 -5.1542025,22.627325 m 5.8105055,1.2374 A 2.9722381,2.9722381 0 0 1 12.019204,38.251169 2.9722381,2.9722381 0 0 1 9.7112725,34.827605 M 32.507137,11.859619 a 2.9722381,2.9722381 0 0 1 3.502574,-2.1861639 2.9722381,2.9722381 0 0 1 2.307932,3.4235639" />
</svg>
