<svg viewBox="0 0 48 48" xmlns="http://www.w3.org/2000/svg">
    <style>
        .a{fill:none;stroke:#FFFFFF;stroke-linecap:round;stroke-linejoin:round}
    </style>
    <path class="a" d="M45.5,24c0,11.8699951-9.6300049,21.5-21.5,21.5c-11.4699707,0-20.8400269-8.9799805-21.460022-20.289978 l7.1600342-4.3500366C9.4799805,21.8699951,9.3599854,22.9199829,9.3599854,24 c0,8.0800171,6.5599976,14.6400146,14.6400146,14.6400146S38.6400146,32.0800171,38.6400146,24 c0-4.3200073-1.8800049-8.210022-4.8599854-10.8900146l3.4799805-6.0199585C42.2800293,11.0100098,45.5,17.1300049,45.5,24z"/>
    <path class="a" d="M30.539978,3.5200195l-3.6300049,6.1300049C25.9699707,9.460022,25,9.3599854,24,9.3599854 c-2.7700195,0-5.3599854,0.7700195-7.5700073,2.1099854l5.039978-8.8199463C22.2999878,2.5499878,23.1400146,2.5,24,2.5 C26.2800293,2.5,28.4799805,2.8599854,30.539978,3.5200195z"/>
</svg>
