<?xml version="1.0" encoding="UTF-8"?>
<svg id="b" version="1.1" viewBox="0 0 48 48" xml:space="preserve" xmlns="http://www.w3.org/2000/svg"><defs><style>.c{fill:none;stroke:#fff;stroke-linecap:round;stroke-linejoin:round;}</style><style>.a{fill:none;stroke:#fff;stroke-linecap:round;stroke-linejoin:round;}</style></defs><path class="a" d="m40.5 5.5h-33a2 2 0 0 0-2 2v33a2 2 0 0 0 2 2h33a2 2 0 0 0 2-2v-33a2 2 0 0 0-2-2z"/><g transform="translate(-175.4 -22)">
		<polyline class="st5" points="183.4 48.7 183.4 40.7 188.7 48.7 188.7 40.7" fill="none" stroke="#fff" stroke-linecap="round" stroke-linejoin="round" stroke-miterlimit="10"/>
	</g><path class="st5" d="m17.039 26.7v0c-1.1 0-2-0.9-2-2v-1.3c0-1.1 0.9-2 2-2v0c1.1 0 2 0.9 2 2v1.3c0 1.1-0.9 2-2 2z" fill="none" stroke="#fff" stroke-linecap="round" stroke-linejoin="round" stroke-miterlimit="10"/><g transform="translate(-204.22 -38)" fill="none" stroke="#fff" stroke-linecap="round" stroke-linejoin="round" stroke-miterlimit="10">
		<path class="st5" d="m225 61.3c0-1.1 0.9-2 2-2"/>
		<line class="st5" x1="225" x2="225" y1="59.3" y2="64.7"/>
	</g><g transform="translate(-17.998 -38)">
		
			<path class="st5" d="m58 62.7c0 1.1-0.9 2-2 2v0c-1.1 0-2-0.9-2-2v-1.3c0-1.1 0.9-2 2-2v0c1.1 0 2 0.9 2 2" fill="none" stroke="#fff" stroke-linecap="round" stroke-linejoin="round" stroke-miterlimit="10"/>
		
		<line class="st5" x1="58" x2="58" y1="64.7" y2="59.3" fill="none" stroke="#fff" stroke-linecap="round" stroke-linejoin="round" stroke-miterlimit="10"/>
	</g><path class="st5" d="m33.961 25.6c-0.3 0.6-1 1-1.7 1v0c-1.1 0-2-0.9-2-2v-1.3c0-1.1 0.9-2 2-2v0c1.1 0 2 0.9 2 2v0.7h-4" fill="none" stroke="#fff" stroke-linecap="round" stroke-linejoin="round" stroke-miterlimit="10"/><g transform="translate(-59.48 -38)">
		
			<path class="st5" d="m88 61.3c0-1.1-0.9-2-2-2v0c-1.1 0-2 0.9-2 2v1.3c0 1.1 0.9 2 2 2v0c1.1 0 2-0.9 2-2" fill="none" stroke="#fff" stroke-linecap="round" stroke-linejoin="round" stroke-miterlimit="10"/>
		
		<line class="st5" x1="88" x2="88" y1="64.7" y2="56.7" fill="none" stroke="#fff" stroke-linecap="round" stroke-linejoin="round" stroke-miterlimit="10"/>
	</g></svg>
