<?xml version="1.0" encoding="UTF-8"?><svg id="a" xmlns="http://www.w3.org/2000/svg" viewBox="0 0 48 48"><defs><style>.b{fill:none;stroke:#fff;stroke-linecap:round;stroke-linejoin:round;}</style></defs><path class="b" d="m40.5,5.5H7.5c-1.1046,0-2,.8954-2,2v33c0,1.1046.8954,2,2,2h33c1.1046,0,2-.8954,2-2V7.5c0-1.1046-.8954-2-2-2Z"/><polyline class="b" points="8.3631 26.7 8.3631 18.7 13.6631 26.7 13.6631 18.7"/><path class="b" d="m17.4021,26.7h0c-1.1,0-2-.9-2-2v-1.3c0-1.1.9-2,2-2h0c1.1,0,2,.9,2,2v1.3c0,1.1-.9,2-2,2Z"/><path class="b" d="m21.1616,23.363c0-1.0796.8833-1.963,1.963-1.963"/><line class="b" x1="21.1616" y1="21.4" x2="21.1616" y2="26.7"/><path class="b" d="m39.6369,24.737c0,1.0796-.8833,1.963-1.963,1.963h0c-1.0796,0-1.963-.8833-1.963-1.963v-1.2759c0-1.0796.8833-1.963,1.963-1.963h0c1.0796,0,1.963.8833,1.963,1.963"/><line class="b" x1="39.6369" y1="26.7" x2="39.6369" y2="21.4"/><path class="b" d="m33.6512,25.7c-.3.6-1,1-1.7,1h0c-1.1,0-2-.9-2-2v-1.3c0-1.1.9-2,2-2h0c1.1,0,2,.9,2,2v.7h-4"/><path class="b" d="m28.2216,23.3c0-1.1-.9-2-2-2h0c-1.1,0-2,.9-2,2v1.3c0,1.1.9,2,2,2h0c1.1,0,2-.9,2-2"/><line class="b" x1="28.2216" y1="26.7" x2="28.2216" y2="18.7"/></svg>