<svg xmlns="http://www.w3.org/2000/svg" viewBox="0 0 48 48">
    <style>
        .a{fill:none;stroke:#FFFFFF;stroke-linecap:round;stroke-linejoin:round}
    </style>
    <path class="a" d="M40.5,5.5h-33c-1.1,0-2,0.9-2,2v33c0,1.1,0.9,2,2,2h33c1.1,0,2-0.9,2-2v-33C42.5,6.4,41.6,5.5,40.5,5.5z"/>
    <path class="a" d="M30.5,20.8c3.3,0.6,7.4,1.7,6.9,3.9c-0.4,2.2-4.8,1.7-8,0.9"/>
    <path class="a" d="M29.4,25.6c0.1,0.7,0.3,1.3,0.6,1.9c0.3,0.3,0.5,0.6,0.9,0.9c-0.4,0.3-0.9,0.6-1.4,0.8"/>
    <path class="a" d="M29.5,29.2c0,0,0.3,2-0.3,2.7c-0.5,0.6-1.6,0.4-2.3,0.8c-0.3,0.2-0.8,0.5-0.9,0.9c-0.1,0.3,0.3,0.9,0.3,0.9l0.7,1.9c1.2,0.7,2.3,1.6,3.4,2.5c1.1,0.9,1.9,2.1,2.3,3.5"/>
    <path class="a" d="M30.5,20.8c0,0,0.3-5.8-1.8-8.3c-1.6-2-4.2-3.1-6.8-2.9c-2.5,0.1-4.8,1.5-6.2,3.7c-1.1,1.9-1,4.7-1,7.2c0,2.9,0.4,8.1,1.6,10.8c0.8,1.8,2.9,1.4,3.7,2.6c0.7,1.2,0.8,2.6,0.3,3.8c-0.7,1.6-3.4,2.6-4.3,3.7s-1.1,1.1-1.1,1.1"/>
</svg>