<svg version="1.1" viewBox="0 0 48 48" xmlns="http://www.w3.org/2000/svg">
 <defs>
  <style>.a{fill:none;stroke:#fff;stroke-linecap:round;stroke-linejoin:round;}</style>
 </defs>
 <g>
  <path class="a" d="m35.3 15.172h-22.636a1.3718 1.3718 0 0 0-1.3718 1.3718v22.636a1.3718 1.3718 0 0 0 1.3718 1.3718h22.636a1.3718 1.3718 0 0 0 1.3718-1.3718v-22.636a1.3718 1.3718 0 0 0-1.3718-1.3718z"/>
  <g fill="none" stroke="#fff" stroke-linecap="round" stroke-linejoin="round">
   <path class="a" d="m36.54 34.843 2.0793 0.21849c0.7535 0.07917 1.4285-0.46748 1.5077-1.221l2.3654-22.512c0.079172-0.7535-0.46748-1.4285-1.221-1.5077l-22.512-2.3654c-0.7535-0.079173-1.4285 0.46748-1.5077 1.221l-0.675 6.4239"/>
   <path class="a" d="m17.084 10.39-10.355 1.0899c-0.75349 0.0793-1.3 0.75442-1.2207 1.5079l2.3692 22.511c0.079305 0.75349 0.75442 1.3 1.5079 1.2207l1.7686-0.18615"/>
   <g>
    <path d="m16.534 21.241h14.896"/>
    <path d="m16.534 25.655h14.896"/>
    <path d="m16.534 30.069h14.896"/>
    <path d="m16.534 34.483h6.8965"/>
   </g>
  </g>
 </g>
</svg>
