<svg version="1.1" viewBox="0 0 48 48" xmlns="http://www.w3.org/2000/svg">
 <defs>
  <style>.c{fill:#fff;}.d{fill:none;stroke:#fff;stroke-linecap:round;stroke-linejoin:round;}</style>
 </defs>
 <g fill="#fff">
  <circle class="c" cx="34.5" cy="35.5" r=".75"/>
  <circle class="c" cx="31.5" cy="38.5" r=".75"/>
  <circle class="c" cx="25.5" cy="35.5" r=".75"/>
  <circle class="c" cx="22.5" cy="38.5" r=".75"/>
  <circle class="c" cx="16.5" cy="35.5" r=".75"/>
  <circle class="c" cx="13.5" cy="38.5" r=".75"/>
  <circle class="c" cx="31.5" cy="29.5" r=".75"/>
  <circle class="c" cx="34.5" cy="29.5" r=".75"/>
  <circle class="c" cx="16.5" cy="29.5" r=".75"/>
  <circle class="c" cx="19.5" cy="29.5" r=".75"/>
  <circle class="c" cx="22.5" cy="29.5" r=".75"/>
  <circle class="c" cx="25.5" cy="29.5" r=".75"/>
  <circle class="c" cx="28.5" cy="29.5" r=".75"/>
  <circle class="c" cx="34.5" cy="14.5" r=".75"/>
  <circle class="c" cx="37.5" cy="17.5" r=".75"/>
  <circle class="c" cx="28.5" cy="14.5" r=".75"/>
  <circle class="c" cx="31.5" cy="14.5" r=".75"/>
 </g>
 <circle class="c" cx="16.5" cy="17.5" r=".75"/>
 <g fill="#fff">
  <circle class="c" cx="19.5" cy="17.5" r=".75"/>
  <circle class="c" cx="22.25" cy="20.25" r=".75"/>
  <circle class="c" cx="25.5" cy="17.5" r=".75"/>
  <circle class="c" cx="13.5" cy="20.5" r=".75"/>
  <circle class="c" cx="37.5" cy="29.5" r=".75"/>
  <circle class="c" cx="40.5" cy="23.5" r=".75"/>
  <circle class="c" cx="40.5" cy="26.5" r=".75"/>
  <circle class="c" cx="40.5" cy="20.5" r=".75"/>
  <circle class="c" cx="10.5" cy="23.5" r=".75"/>
  <circle class="c" cx="10.5" cy="26.5" r=".75"/>
  <circle class="c" cx="13.5" cy="29.5" r=".75"/>
 </g>
 <circle cx="10.25" cy="12.25" r="3" fill="none" stroke="#fff" stroke-linecap="round" stroke-linejoin="round" style="paint-order:stroke fill markers"/>
</svg>
