<svg version="1.1" viewBox="0 0 48 48" xmlns="http://www.w3.org/2000/svg">
 <defs>
  <style>.c{fill:#fff;}.d{fill:none;stroke:#fff;stroke-linecap:round;stroke-linejoin:round;}</style>
 </defs>
 <g transform="translate(1.25,1.25)">
  <g fill="#fff">
   <circle class="c" cx="33.25" cy="34.25" r=".75"/>
   <circle class="c" cx="30.25" cy="37.25" r=".75"/>
   <circle class="c" cx="24.25" cy="34.25" r=".75"/>
   <circle class="c" cx="21.25" cy="37.25" r=".75"/>
   <circle class="c" cx="15.25" cy="34.25" r=".75"/>
   <circle class="c" cx="12.25" cy="37.25" r=".75"/>
   <circle class="c" cx="15.25" cy="19.25" r=".75"/>
   <circle class="c" cx="18.25" cy="19.25" r=".75"/>
   <circle class="c" cx="30.25" cy="22.25" r=".75"/>
   <circle class="c" cx="33.25" cy="22.25" r=".75"/>
   <circle class="c" cx="15.25" cy="22.25" r=".75"/>
   <circle class="c" cx="18.25" cy="22.25" r=".75"/>
   <circle class="c" cx="21.25" cy="22.25" r=".75"/>
   <circle class="c" cx="24.25" cy="22.25" r=".75"/>
   <circle class="c" cx="27.25" cy="22.25" r=".75"/>
   <circle class="c" cx="30.25" cy="28.25" r=".75"/>
   <circle class="c" cx="33.25" cy="28.25" r=".75"/>
   <circle class="c" cx="15.25" cy="28.25" r=".75"/>
   <circle class="c" cx="18.25" cy="28.25" r=".75"/>
   <circle class="c" cx="21.25" cy="28.25" r=".75"/>
   <circle class="c" cx="21.25" cy="19.25" r=".75"/>
   <circle class="c" cx="24.25" cy="28.25" r=".75"/>
   <circle class="c" cx="27.25" cy="28.25" r=".75"/>
   <circle class="c" cx="30.25" cy="25.25" r=".75"/>
   <circle class="c" cx="33.25" cy="25.25" r=".75"/>
   <circle class="c" cx="15.25" cy="25.25" r=".75"/>
   <circle class="c" cx="18.25" cy="25.25" r=".75"/>
   <circle class="c" cx="21.25" cy="25.25" r=".75"/>
   <circle class="c" cx="24.25" cy="25.25" r=".75"/>
   <circle class="c" cx="27.25" cy="25.25" r=".75"/>
   <circle class="c" cx="33.25" cy="13.25" r=".75"/>
   <circle class="c" cx="36.25" cy="16.25" r=".75"/>
   <circle class="c" cx="27.25" cy="13.25" r=".75"/>
   <circle class="c" cx="30.25" cy="13.25" r=".75"/>
  </g>
  <circle class="c" cx="15.25" cy="16.25" r=".75"/>
  <g fill="#fff">
   <circle class="c" cx="18.25" cy="16.25" r=".75"/>
   <circle class="c" cx="24.25" cy="16.25" r=".75"/>
   <circle class="c" cx="27.25" cy="16.25" r=".75"/>
   <circle class="c" cx="30.25" cy="16.25" r=".75"/>
   <circle class="c" cx="33.25" cy="16.25" r=".75"/>
   <circle class="c" cx="12.25" cy="19.25" r=".75"/>
   <circle class="c" cx="27.25" cy="19.25" r=".75"/>
   <circle class="c" cx="30.25" cy="19.25" r=".75"/>
   <circle class="c" cx="33.25" cy="19.25" r=".75"/>
   <circle class="c" cx="36.25" cy="22.25" r=".75"/>
   <circle class="c" cx="36.25" cy="28.25" r=".75"/>
   <circle class="c" cx="36.25" cy="25.25" r=".75"/>
   <circle class="c" cx="36.25" cy="19.25" r=".75"/>
   <circle class="c" cx="39.25" cy="22.25" r=".75"/>
   <circle class="c" cx="39.25" cy="25.25" r=".75"/>
   <circle class="c" cx="39.25" cy="19.25" r=".75"/>
   <circle class="c" cx="24.25" cy="19.25" r=".75"/>
   <circle class="c" cx="9.25" cy="22.25" r=".75"/>
   <circle class="c" cx="9.25" cy="25.25" r=".75"/>
   <circle class="c" cx="12.25" cy="22.25" r=".75"/>
   <circle class="c" cx="12.25" cy="25.25" r=".75"/>
   <circle class="c" cx="12.25" cy="28.25" r=".75"/>
  </g>
  <circle cx="9" cy="11" r="3" fill="none" stroke="#fff" stroke-linecap="round" stroke-linejoin="round" style="paint-order:stroke fill markers"/>
 </g>
</svg>
