<svg version="1.1" viewBox="0 0 48 48" xmlns="http://www.w3.org/2000/svg">
 <g fill="#fff">
  <circle cx="12" cy="15" r=".75" style="paint-order:stroke fill markers"/>
  <circle cx="9" cy="19.5" r=".75" style="paint-order:stroke fill markers"/>
  <circle cx="15" cy="15" r=".75" style="paint-order:stroke fill markers"/>
  <circle cx="18" cy="15" r=".75" style="paint-order:stroke fill markers"/>
  <circle cx="12" cy="33" r=".75" style="paint-order:stroke fill markers"/>
  <circle cx="15" cy="33" r=".75" style="paint-order:stroke fill markers"/>
  <circle cx="18" cy="33" r=".75" style="paint-order:stroke fill markers"/>
  <circle cx="27" cy="33" r=".75" style="paint-order:stroke fill markers"/>
  <circle cx="30" cy="33" r=".75" style="paint-order:stroke fill markers"/>
  <circle cx="33" cy="33" r=".75" style="paint-order:stroke fill markers"/>
  <circle cx="36" cy="33" r=".75" style="paint-order:stroke fill markers"/>
  <circle cx="21" cy="19.5" r=".75" style="paint-order:stroke fill markers"/>
  <circle cx="27" cy="19.5" r=".75" style="paint-order:stroke fill markers"/>
  <circle cx="9" cy="24" r=".75" style="paint-order:stroke fill markers"/>
  <circle cx="21" cy="24" r=".75" style="paint-order:stroke fill markers"/>
  <circle cx="9" cy="28.5" r=".75" style="paint-order:stroke fill markers"/>
  <circle cx="21" cy="28.5" r=".75" style="paint-order:stroke fill markers"/>
  <circle cx="39" cy="28.5" r=".75" style="paint-order:stroke fill markers"/>
  <circle cx="30" cy="24" r=".75" style="paint-order:stroke fill markers"/>
  <circle cx="33" cy="24" r=".75" style="paint-order:stroke fill markers"/>
  <circle cx="36" cy="24" r=".75" style="paint-order:stroke fill markers"/>
  <circle cx="30" cy="15" r=".75" style="paint-order:stroke fill markers"/>
  <circle cx="33" cy="15" r=".75" style="paint-order:stroke fill markers"/>
  <circle cx="36" cy="15" r=".75" style="paint-order:stroke fill markers"/>
  <circle cx="39" cy="15" r=".75" style="paint-order:stroke fill markers"/>
 </g>
</svg>
