<svg xmlns="http://www.w3.org/2000/svg" viewBox="0 0 48 48"><defs><style>.a{fill:none;stroke:#fff;stroke-linecap:round;stroke-linejoin:round;}</style></defs><rect class="a" x="7.81" y="28.92" width="32.39" height="11.39" rx="5.7"/><circle class="a" cx="13.52" cy="34.61" r="3.59"/><path class="a" d="M20.3,9.81a2.12,2.12,0,1,1-.64-1.52A2.11,2.11,0,0,1,20.3,9.81ZM11.73,8.13l1.55,1.55,3.3,3.3,1.74,1.74,2.17-2.18L22,14.1l-2.17,2.17-1.55,1.56L15,14.53,12.54,17l3.3,3.3-1.56,1.56L11.34,24.8,9.79,23.25l2.93-2.94L11,18.57,6.06,23.5,4.5,21.94,9.43,17l4-4-1.73-1.74L9.55,13.41,8,11.85l3.72-3.72Z"/><path class="a" d="M26.79,10.15a.89.89,0,0,0-.89.89h0V21.26a.89.89,0,0,0,.88.89H42.61a.88.88,0,0,0,.89-.88h0V11a.87.87,0,0,0-.88-.88H26.79Zm15,1.73L34.7,17.09l-7.08-5.21"/></svg>