<svg width="48" height="48" viewBox="0 0 48 48" version="1.1" xmlns="http://www.w3.org/2000/svg">
  <defs>
    <clipPath clipPathUnits="userSpaceOnUse" id="a">
      <path d="M0 48h48V0H0Z"/>
    </clipPath>
  </defs>
  <g style="display:inline">
    <path style="fill:#ffffff;stroke-width:1;stroke-miterlimit:4;stroke-dasharray:none" class="s" d="M32.306 26.784a1.153 1.153 0 0 1-1.153 1.153A1.153 1.153 0 0 1 30 26.784a1.153 1.153 0 0 1 1.153-1.153 1.153 1.153 0 0 1 1.153 1.153z"/>
    <path class="t" style="fill:none;stroke:#ffffff;stroke-width:1;stroke-linecap:round;stroke-linejoin:round;stroke-miterlimit:4;stroke-dasharray:none" d="M31.278 30.087v11.199M14.465 25.5v13.404a2.253 2.253 0 0 0 2.253 2.253h.676M12.1 29.217h4.731M19.556 19.499v-7.471c0-2.5-2.028-4.528-4.528-4.528v0a4.528 4.528 0 0 0-4.528 4.528M10.5 19.499V7.5"/>
    <rect class="t" x="26.5" y="7.5" width="9.3418169" height="12.377907" rx="4.6709085" ry="4.6709085" style="fill:none;stroke:#ffffff;stroke-width:1;stroke-linecap:round;stroke-linejoin:round;stroke-miterlimit:4;stroke-dasharray:none"/>
    <g clip-path="url(#a)" style="stroke-width:0.794356;stroke-miterlimit:4;stroke-dasharray:none" transform="matrix(1.27003 0 0 -1.27003 -6.48 54.48)">
      <g style="stroke-width:0.794356;stroke-miterlimit:4;stroke-dasharray:none">
        <path d="M0 0h-33a2 2 0 0 1-2-2v-33a2 2 0 0 1 2-2H0a2 2 0 0 1 2 2v33a2 2 0 0 1-2 2Z" style="fill:none;stroke:#ffffff;stroke-width:0.794356;stroke-linecap:round;stroke-linejoin:round;stroke-miterlimit:4;stroke-dasharray:none;stroke-opacity:1" transform="translate(40.5 42.5)"/>
      </g>
    </g>
  </g>
</svg>
