<svg xmlns="http://www.w3.org/2000/svg" viewBox="0 0 48 48"><defs><style>.a{fill:none;stroke:#fff;stroke-linecap:round;stroke-linejoin:round;}</style></defs><circle class="a" cx="23.0238" cy="18.1429" r="5.8571"/><path class="a" d="M17.1686,17.5508a5.857,5.857,0,1,1,.46-1.7848"/><path class="a" d="M20.6328,12.6683a5.8571,5.8571,0,1,1,7.4286,1.9388"/><path class="a" d="M28.1159,14.9911a5.8571,5.8571,0,1,1-3.1462,8.82"/><path class="a" d="M35.03,17.4373A5.8571,5.8571,0,1,1,33.6561,25.12"/><path class="a" d="M31.3065,10.374a5.8571,5.8571,0,0,1,9.5013,6.1271"/><path class="a" d="M42.5582,26.5649a5.8571,5.8571,0,0,1-4.3047,8.0736"/><path class="a" d="M26.4435,34.55a5.8571,5.8571,0,1,1,1.5633,4.1744"/><path class="a" d="M24.6032,33.3726a5.8571,5.8571,0,1,1-8.3288,4.2829"/><path class="a" d="M22.42,23.9931a5.8569,5.8569,0,1,1-1.6639-.4438"/><path class="a" d="M17.5272,34.9779a5.8571,5.8571,0,1,1-3.3424-6.5646"/><path class="a" d="M6.931,30.3071a5.8571,5.8571,0,0,1,.6756-10.92"/><path class="a" d="M12.4881,9.2955a5.857,5.857,0,0,1,8.2787-3.71"/><path class="a" d="M13.5854,20.923a5.8569,5.8569,0,0,1,1.4754,5.3856"/><path class="a" d="M31.3215,28.9258a5.8573,5.8573,0,0,1,.7527-2.9174"/></svg>