<svg width="48" height="48" version="1.1" viewBox="0 0 48 48" xml:space="preserve" xmlns="http://www.w3.org/2000/svg"><g fill="none" stroke="#fff"><path d="m17.042 9.2647c-3.9992 9.0467-1.442 11.967 2.0237 12.825 4.2806 1.0602 7.748-4.0469 8.6141-10.038" stroke-linecap="round" stroke-linejoin="round" style="paint-order:stroke fill markers"/><path d="m30.949 19.575c3.3836-9.0999 1.3995-11.361-2.06-12.244-4.5925-1.1717-7.824 3.3366-8.5778 9.4567" stroke-linecap="round" stroke-linejoin="round" style="paint-order:stroke fill markers"/><g transform="matrix(2.0812 0 0 2.0282 -9.0763 -34.136)" stroke-width=".48674"><line class="st0" x1="7.7313" x2="7.7313" y1="34.102" y2="32.102"/><path class="st0" d="m11.731 37.402v-3.3c0-1.1-0.9-2-2-2s-2 0.9-2 2v3.3"/></g><g transform="matrix(2.1858 0 0 2.1276 -630.77 -227.43)" stroke-width=".46371">
		<line class="st0" x1="301.2" x2="297.2" y1="121.2" y2="126.5"/>
		<line class="st0" x1="301.2" x2="297.2" y1="126.5" y2="121.2"/>
	</g><g transform="matrix(2.4847 0 0 2.1488 -601.36 -229.91)" stroke-width=".43278">
		
			<line class="st0" x1="255.2" x2="255.2" y1="119.5" y2="126.5" fill="none" stroke="#fff" stroke-width=".43278"/>
		
		<line class="st0" x1="254.1" x2="256.2" y1="121.2" y2="121.2"/>
	</g><path d="m41.226 30.106-1.8792-3.2549h3.0499l2.4847 4.3037-2.4724 4.2823h-3.2837l1.7656-3.0581h-4.192v-2.2763z" stroke-linecap="round" stroke-linejoin="round" style="paint-order:stroke fill markers"/></g><style type="text/css">
	.st0{fill:none;stroke:#FFFFFF;stroke-linecap:round;stroke-linejoin:round;stroke-miterlimit:10;}
	.st1{fill:#FFFFFF;}
	.st2{fill:none;stroke:#FFFFFF;stroke-width:0.9976;stroke-linecap:round;stroke-linejoin:round;stroke-miterlimit:10;}
	.st3{fill:none;stroke:#FFFFFF;stroke-width:0.9965;stroke-linecap:round;stroke-linejoin:round;stroke-miterlimit:10;}
	.st4{fill:none;stroke:#FFFFFF;stroke-width:0.8662;stroke-linecap:round;stroke-linejoin:round;stroke-miterlimit:10;}
</style></svg>
