<svg xmlns="http://www.w3.org/2000/svg" viewBox="0 0 48 48">
    <style>
        .a{fill:none;stroke:#fff;stroke-linecap:round;stroke-linejoin:round}
    </style>
    <path class="a" d="M40.5,5.5h-33c-1.1,0-2,0.9-2,2v33c0,1.1,0.9,2,2,2h33c1.1,0,2-0.9,2-2v-33C42.5,6.4,41.6,5.5,40.5,5.5z"/>
    <path class="a" d="M30.1,30.6c-1.6,1.5-3.7,2.4-5.9,2.4c-2.2,0-4.4-0.9-6-2.4"/>
    <path class="a" d="M22.1,17.9c-1.4-1.4-3.3-2.2-5.3-2.2c-1.9,0-3.8,0.8-5.2,2.1"/>
    <path class="a" d="M36.4,17.9c-1.4-1.4-3.3-2.2-5.3-2.2c-1.9,0-3.8,0.8-5.2,2.1"/>
</svg>