<?xml version="1.0" encoding="UTF-8"?>
<svg id="a" version="1.1" viewBox="0 0 48 48" xml:space="preserve" xmlns="http://www.w3.org/2000/svg"><defs><style>.b{fill:none;stroke:#fff;stroke-linecap:round;stroke-linejoin:round;}</style><style>.a{fill:none;stroke:#fff;stroke-linecap:round;stroke-linejoin:round;}</style></defs><path transform="rotate(-39.883)" d="m-5.3932 37.046a17.008 6.5055-180 0 1-7.1773-3.0582" fill="none" stroke="#fff" stroke-linecap="round" stroke-linejoin="round"/><path transform="rotate(-39.883)" d="m-0.10089 37.804c1.9577 0.14107 4.8869 0.21421 7.7208-0.17593-0.1284-2.4774-0.54097-5.0856-1.1984-7.6503" fill="none" stroke="#fff" stroke-linecap="round" stroke-linejoin="round"/><path transform="rotate(-39.883)" d="m18.844 33.785c-1.2559 1.2153-3.4395 2.2577-6.2673 2.991-0.18848-2.4557-0.57533-4.5813-0.90509-6.0728" fill="none" stroke="#fff" stroke-linecap="round" stroke-linejoin="round"/><path transform="rotate(-39.883)" d="m-3.8826 42.274c-6.0178-1.0642-9.8703-3.369-9.8703-5.9049l-0.22835-4.9754c0-2.1866 2.8719-4.2269 7.6453-5.4362 0.33935-4.911 1.8366-8.0959 3.987-8.4842l-1.1e-6 -6e-6 4.9368-0.65921" fill="none" stroke="#fff" stroke-linecap="round" stroke-linejoin="round"/><path transform="rotate(-39.883)" d="m12.622 41.799a17.008 6.5055-180 0 1-0.006817 0.00172" fill="none" stroke="#fff" stroke-linecap="round" stroke-linejoin="round"/><path transform="rotate(-39.883)" d="m20.263 36.369v0c-1e-6 -4.5677-11.52-7.3541-21.637-6.2649 0.71737 10.149 5.5079 20.997 10.004 20.185 2.152-0.3885 3.6498-3.5778 3.9887-8.4895 4.7729-1.2047 7.6436-3.2447 7.6436-5.4308z" fill="none" stroke="#fff" stroke-linecap="round" stroke-linejoin="round"/><path transform="rotate(-39.883)" d="m-6.2969 30.986a17.008 6.5055-180 0 1 0.00146-3.8e-4" fill="none" stroke="#fff" stroke-linecap="round" stroke-linejoin="round"/><path transform="rotate(-39.883)" d="m-12.614 34.029a17.008 6.5055-180 0 1 0.03368-0.03315" fill="none" stroke="#fff" stroke-linecap="round" stroke-linejoin="round"/><path transform="rotate(-39.883)" d="m-13.753 36.369c1e-6 -3.2106 5.7603-4.9423 7.456-5.3826" fill="none" stroke="#fff" stroke-linecap="round" stroke-linejoin="round"/><path transform="matrix(-.76735 -.64123 -.64123 .76735 0 0)" d="m-25.362-0.23589c3.1981 0.69738 5.7111 1.7667 7.1749 3.0587" fill="none" stroke="#fff" stroke-linecap="round" stroke-linejoin="round"/><path transform="matrix(-.76735 -.64123 -.64123 .76735 0 0)" d="m-49.619 3.0395c1.2534-1.2218 3.4436-2.27 6.2834-3.0071 0.18781 2.4543 0.56958 4.5508 0.89898 6.0413" fill="none" stroke="#fff" stroke-linecap="round" stroke-linejoin="round"/><path transform="matrix(-.76735 -.64123 -.64123 .76735 0 0)" d="m-29.373 11.698c-10.779 1.1078-21.421-2.052-21.421-6.2827l-0.22833-4.9754" fill="none" stroke="#fff" stroke-linecap="round" stroke-linejoin="round"/><path d="m38.87 14.914-3.3655-3.6714c-2.8913-3.46-13.321 1.6026-20.47 8.9148-2.7994-3.9244-3.6488-7.2608-2.2667-8.9148 1.6264-1.9463 6.062-1.2438 11.363 1.7998" fill="none" stroke="#fff" stroke-width="1px"/><circle class="a" cx="24" cy="24" r="21.5"/></svg>
