<?xml version="1.0" encoding="UTF-8"?>
<svg id="a" version="1.1" viewBox="0 0 48 48" xml:space="preserve" xmlns="http://www.w3.org/2000/svg"><defs><style>.b{fill:none;stroke:#fff;stroke-linecap:round;stroke-linejoin:round;}</style><style>.a{fill:none;stroke:#fff;stroke-linecap:round;stroke-linejoin:round;}</style></defs><path d="m18.732 33.988a8.0795 21.123 50.117 0 1-9.2755 2.8012" fill="none" stroke="#fff" stroke-linecap="round" stroke-linejoin="round"/><path d="m24.379 30.496c1.9781-1.4246 4.8279-3.6876 7.2179-6.3162-2.0953-2.2587-4.5508-4.4048-7.2197-6.3255" fill="none" stroke="#fff" stroke-linecap="round" stroke-linejoin="round"/><path d="m39.233 11.579c-0.22907 2.1583-1.4799 4.8907-3.5909 7.8415-2.1352-2.1902-4.1644-3.8826-5.6665-5.0414" fill="none" stroke="#fff" stroke-linecap="round" stroke-linejoin="round"/><path d="m24.335 37.767c-6.5825 3.7782-12.089 4.6496-14.109 2.2329l-4.1798-4.5598c-1.7413-2.0839-0.62918-6.3154 2.9569-11.269-3.5875-4.9505-4.697-9.1781-2.9568-11.261l-5.8e-6 -5e-6 4.1799-4.5597" fill="none" stroke="#fff" stroke-linecap="round" stroke-linejoin="round"/><path d="m42.643 12.911v0c-3.6375-4.3531-16.835 2.1655-25.609 11.26 8.7659 9.1008 21.97 15.624 25.608 11.27 1.7415-2.084 0.62908-6.3162-2.9594-11.267 3.5893-4.949 4.7005-9.1793 2.9596-11.263z" fill="none" stroke="#fff" stroke-linecap="round" stroke-linejoin="round"/><path d="m10.225 40c-2.5568-3.0597 1.5538-9.2974 2.8192-11.067" fill="none" stroke="#fff" stroke-linecap="round" stroke-linejoin="round"/><path d="m18.727 14.361c-3.6032-1.8823-6.8497-2.8645-9.2736-2.7989" fill="none" stroke="#fff" stroke-linecap="round" stroke-linejoin="round"/><path d="m39.236 36.8c-0.22149-2.1626-1.474-4.9057-3.5933-7.8697-2.1335 2.1894-4.1632 3.8867-5.6642 5.0449" fill="none" stroke="#fff" stroke-linecap="round" stroke-linejoin="round"/><path d="m13.046 28.928c9.3902 9.6398 22.048 15.104 25.418 11.072l4.1799-4.5597" fill="none" stroke="#fff" stroke-linecap="round" stroke-linejoin="round"/><path d="m42.644 12.91-4.1798-4.5597c-3.5908-4.2971-16.544 1.9903-25.423 11.072-3.4767-4.8739-4.5316-9.0175-2.8151-11.072 2.0199-2.4172 7.5287-1.5447 14.112 2.2353" fill="none" stroke="#fff" stroke-linecap="round" stroke-linejoin="round"/></svg>
