<svg width="48" height="48" xmlns="http://www.w3.org/2000/svg" xmlns:svg="http://www.w3.org/2000/svg" enable-background="new 0 0 48.0 48.0" version="1.1" xml:space="preserve">

 <g class="layer">
  <title>Layer 1</title>
  <path d="m31.23,41.5l10.13,-10.21l0,-14.58l-10.13,-10.21l-14.46,0l-10.13,10.21l0,14.58l10.13,10.21l14.46,0z" fill="#000000" fill-opacity="0" fill-rule="nonzero" id="svg_1" stroke="#FFFFFF" stroke-linecap="round" stroke-linejoin="round" stroke-opacity="1"/>
  <path d="m38.83,17.8l0,12.4l-8.68,8.75l-12.3,0l-8.68,-8.75l0,-12.4l8.68,-8.75l12.3,0l8.68,8.75z" fill="#000000" fill-opacity="0" fill-rule="nonzero" id="svg_2" stroke="#FFFFFF" stroke-linecap="round" stroke-linejoin="round" stroke-opacity="1"/>
  <path d="m27.47,23.86c5.21,-1.74 5.21,-11.29 -3.47,-11.29c-8.68,0 -8.68,9.55 -3.47,11.29c-5.21,1.74 -5.21,11.29 3.47,11.29c8.68,0 8.68,-9.55 3.47,-11.29z" fill="#000000" fill-opacity="0" fill-rule="nonzero" id="svg_3" stroke="#FFFFFF" stroke-linecap="round" stroke-linejoin="round" stroke-opacity="1"/>
  <path d="m24,26.25c1.92,0 3.47,1.26 3.47,2.82c0,1.56 -1.55,2.82 -3.47,2.82c-1.92,0 -3.47,-1.26 -3.47,-2.82c0,-1.56 1.55,-2.82 3.47,-2.82z" fill="#000000" fill-opacity="0" fill-rule="nonzero" id="svg_4" stroke="#FFFFFF" stroke-linecap="round" stroke-linejoin="round" stroke-opacity="1"/>
  <path d="m24,15.83c1.92,0 3.47,1.26 3.47,2.82c0,1.56 -1.55,2.82 -3.47,2.82c-1.92,0 -3.47,-1.26 -3.47,-2.82c0,-1.56 1.55,-2.82 3.47,-2.82z" fill="#000000" fill-opacity="0" fill-rule="nonzero" id="svg_5" stroke="#FFFFFF" stroke-linecap="round" stroke-linejoin="round" stroke-opacity="1"/>
 </g>
</svg>