<svg xmlns="http://www.w3.org/2000/svg" xml:space="preserve" width="48" height="48"><path d="M12.574 17.3v-6.306h1.069a3.153 3.153 0 0 1 3.153 3.153v0a3.153 3.153 0 0 1-3.153 3.153zm-5.735-.012v-6.282h2.114a2.108 2.108 0 1 1 0 4.216H6.84m11.47-4.203V17.3m0-3.14h2.053m-2.054-3.141h3.147M5.5 7.229v13.836a1.73 1.73 0 0 0 1.73 1.73h13.835a1.73 1.73 0 0 0 1.73-1.73V7.229a1.73 1.73 0 0 0-1.73-1.729H7.229A1.73 1.73 0 0 0 5.5 7.23Zm19.706 0v13.836a1.73 1.73 0 0 0 1.73 1.73H40.77a1.73 1.73 0 0 0 1.729-1.73V7.23a1.73 1.73 0 0 0-1.73-1.73H26.936a1.73 1.73 0 0 0-1.73 1.73Zm5.326 11.242V8.959h3.2a3.2 3.2 0 0 1 0 6.39h-3.2m-5.326 11.586v13.836a1.73 1.73 0 0 0 1.73 1.729H40.77a1.73 1.73 0 0 0 1.729-1.73V26.936a1.73 1.73 0 0 0-1.73-1.73H26.936a1.73 1.73 0 0 0-1.73 1.73zm11.829 2.162-3.182 4.756 3.182 4.756m-6.364-9.512 3.182 4.756-3.182 4.756m-10.903-9.512-2.81 9.511m-2.81-9.511 2.81 9.511m-2.81-9.511-2.811 9.511m-2.81-9.511 2.81 9.511M5.5 26.935V40.77a1.73 1.73 0 0 0 1.73 1.73h13.835a1.73 1.73 0 0 0 1.73-1.73V26.935a1.73 1.73 0 0 0-1.73-1.73H7.229a1.73 1.73 0 0 0-1.729 1.73z" class="cls-1" style="fill:none;stroke:#fff;stroke-width:1;stroke-linecap:round;stroke-linejoin:round;stroke-dasharray:none"/></svg>