<svg xmlns="http://www.w3.org/2000/svg" viewBox="0 0 48 48"><defs><style>.a{fill:none;stroke:#fff;stroke-linecap:round;stroke-linejoin:round}</style></defs><path class="a" d="M40.5 5.5h-33a2 2 0 0 0-2 2v33a2 2 0 0 0 2 2h33a2 2 0 0 0 2-2v-33a2 2 0 0 0-2-2Z"/><path class="a" d="M17.687 33.906a3.954 3.954 0 0 0-3.563-3.582l-.01.01M14.749 33.258a1.585 1.585 0 1 0 0 2.241v0a1.585 1.585 0 0 0 0-2.241zM21.33 33.673a7.774 7.774 0 0 0-6.996-6.996M23.797 28.983l3.05-2.95-4.256-4.255c-.604-.63-.457-1.166.057-1.754l4.784-5.085c1.538-1.74-1.175-4.2-3.189-2.452l-6.993 6.67c-.752.851-.928 1.974-.05 2.979z"/><path d="m28.965 17.613-2.955 3.045 4.39 4.118c.625.61.495 1.15 0 1.754l-4.62 5.236c-1.48 1.788 1.31 4.16 3.266 2.348l6.776-6.89c.725-.874.865-2.002-.044-2.978z" class="a"/></svg>
