<?xml version="1.0" encoding="UTF-8" standalone="no"?>
<svg
   xmlns:dc="http://purl.org/dc/elements/1.1/"
   xmlns:cc="http://creativecommons.org/ns#"
   xmlns:rdf="http://www.w3.org/1999/02/22-rdf-syntax-ns#"
   xmlns:svg="http://www.w3.org/2000/svg"
   xmlns="http://www.w3.org/2000/svg"
   xmlns:sodipodi="http://sodipodi.sourceforge.net/DTD/sodipodi-0.dtd"
   xmlns:inkscape="http://www.inkscape.org/namespaces/inkscape"
   viewBox="0 0 48 48"
   version="1.1"
   id="svg8"
   sodipodi:docname="oitrack.svg"
   inkscape:version="0.92.3 (2405546, 2018-03-11)">
  <metadata
     id="metadata12">
    <rdf:RDF>
      <cc:Work
         rdf:about="">
        <dc:format>image/svg+xml</dc:format>
        <dc:type
           rdf:resource="http://purl.org/dc/dcmitype/StillImage" />
        <dc:title></dc:title>
      </cc:Work>
    </rdf:RDF>
  </metadata>
  <sodipodi:namedview
     pagecolor="#ffffff"
     bordercolor="#666666"
     borderopacity="1"
     objecttolerance="10"
     gridtolerance="10"
     guidetolerance="10"
     inkscape:pageopacity="0"
     inkscape:pageshadow="2"
     inkscape:window-width="1410"
     inkscape:window-height="820"
     id="namedview10"
     showgrid="false"
     inkscape:zoom="3.4766083"
     inkscape:cx="28.707999"
     inkscape:cy="21.919018"
     inkscape:window-x="0"
     inkscape:window-y="25"
     inkscape:window-maximized="0"
     inkscape:current-layer="svg8" />
  <defs
     id="defs4">
    <style
       id="style2">.a{fill:none;stroke:#fff;stroke-linecap:round;stroke-linejoin:round;}</style>
    <style
       id="style833">.a{fill:none;stroke:#000;stroke-linecap:round;stroke-linejoin:round;}</style>
  </defs>
  <path
     class="a"
     d="M40.5,5.5H7.5a2,2,0,0,0-2,2v33a2,2,0,0,0,2,2h33a2,2,0,0,0,2-2V7.5A2,2,0,0,0,40.5,5.5Z"
     id="path6"
     style="fill:none" />
  <path
     style="fill:none;stroke:#000000;stroke-width:1;stroke-linecap:round;stroke-linejoin:round;stroke-miterlimit:4;stroke-dasharray:none"
     inkscape:connector-curvature="0"
     class="a"
     d="m 17.686634,33.905907 a 3.9537633,3.9537633 0 0 0 -3.562311,-3.581664 l -0.0097,0.0097"
     id="path837" />
  <path
     style="fill:none;stroke:#000000;stroke-width:1;stroke-linecap:round;stroke-linejoin:round;stroke-miterlimit:4;stroke-dasharray:none"
     inkscape:connector-curvature="0"
     class="a"
     d="m 14.748928,33.257535 a 1.5853028,1.5853028 0 1 0 -2.7e-5,2.241931 v 0 a 1.5853028,1.5853028 0 0 0 2.7e-5,-2.241931 z"
     id="path839" />
  <path
     style="fill:none;stroke:#000000;stroke-width:1;stroke-linecap:round;stroke-linejoin:round;stroke-miterlimit:4;stroke-dasharray:none"
     inkscape:connector-curvature="0"
     class="a"
     d="M 21.329742,33.672873 A 7.773861,7.773861 0 0 0 14.333563,26.676695"
     id="path841" />
  <path
     style="fill:none;stroke:#000000;stroke-width:1px;stroke-linecap:round;stroke-linejoin:round;stroke-opacity:1"
     d="m 15.355932,19.220339 11.542159,-8.610817 c 0.658456,-0.51222 1.667879,-0.427362 2.249338,0.262274 l 4.47576,5.541417 c 0.45493,0.64178 0.274198,1.632138 -0.28045,2.077121 l -2.1224,1.543564 5.711437,7.269102 c 0.544387,0.633181 0.386195,1.701942 -0.185656,2.166494 l -5.80023,4.368075 c -0.619912,0.478302 -1.584787,0.465805 -2.148128,-0.176464 l -5.916406,-7.627207 c -1.745763,0.81356 -3.593221,-1.728813 -2.237289,-2.79661 l 2.320659,-1.631712 c 0.446432,-0.3907 1.311712,-0.161941 1.699954,0.34576 l 5.843795,7.641884 2.237288,-1.57627 -5.343509,-6.900279 c -0.636515,-0.740936 -0.496237,-1.899806 0.08233,-2.422881 l 1.956093,-1.609044 -1.983051,-2.440678 -10.169491,7.576271 c -1.59322,1.118644 -3.644069,-1.576271 -1.932204,-3 z"
     id="path924"
     inkscape:connector-curvature="0"
     sodipodi:nodetypes="ccccccccccccccccccccccc" />
</svg>
