<?xml version="1.0" encoding="UTF-8"?>
<!-- Created with Inkscape (http://www.inkscape.org/) -->
<svg width="48" height="48" version="1.1" viewBox="0 0 48 48" xmlns="http://www.w3.org/2000/svg">
 <g fill="none" stroke-width="1px">
  <path d="m28.51 5.4223c-13.342 36.947-13.075 36.592-13.075 36.592" stroke="#fff" stroke-linecap="round" stroke-linejoin="round"/>
  <path d="m37.43 5.5763-12.724 36.681" stroke="#fefefe" stroke-linecap="round" stroke-linejoin="round"/>
  <path d="m15.435 42.014 9.2715 0.24332" stroke="#fff"/>
  <path d="m28.51 5.4223 8.92 0.15405" stroke="#fefefe"/>
 </g>
 <ellipse cx="37.661" cy="35.121" rx="7.5308" ry="7.644" fill-opacity="0" stroke="#fff" stroke-linecap="round" stroke-linejoin="round" stroke-miterlimit="10" style="paint-order:stroke fill markers"/>
 <g fill="none" stroke-linecap="round" stroke-linejoin="round">
  <path d="m25.482 5.579a9.6453 14.256 56.012 0 1-8.7227 13.52 9.6453 14.256 56.012 0 1-13.186 1.6458" stroke="#fff" stroke-miterlimit="10" style="paint-order:normal"/>
  <path d="m17.689 5.6535a4.3949 7.5282 65.681 0 1-4.122 6.1921 4.3949 7.5282 65.681 0 1-7.3089 1.4111" stroke="#fff" stroke-miterlimit="10" style="paint-order:stroke fill markers"/>
  <path d="m17.689 5.6535 7.7927-0.074542" stroke="#fefefe" stroke-width="1px"/>
  <path d="m6.258 13.257-2.6854 7.4877" stroke="#fff" stroke-width="1px"/>
 </g>
</svg>
