<svg viewBox="0 0 48 48" xmlns="http://www.w3.org/2000/svg"><defs><style>.a{fill:none;stroke:#fff;stroke-linecap:round;stroke-linejoin:round;}</style></defs><circle class="a" cx="24" cy="20" r="3.5"/><path class="a" d="m40.5 5.5h-33a2 2 0 0 0-2 2v33a2 2 0 0 0 2 2h33a2 2 0 0 0 2-2v-33a2 2 0 0 0-2-2z"/><line class="a" x1="8" x2="8" y1="42.5" y2="5.5"/><line class="a" x1="40.5" x2="40.5" y1="42.5" y2="5.5"/><line class="a" x1="38.5" x2="38.5" y1="42.5" y2="5.5"/><path class="a" d="m31.6 29v2.5h-15.2v-2.5c0-4 15.2-4 15.2 0z"/></svg>