<svg viewBox="0 0 48 48" xmlns="http://www.w3.org/2000/svg">
    <style>
        .a{fill:none;stroke:#FFFFFF;stroke-linecap:round;stroke-linejoin:round}	.b{fill:none;stroke:#FFFFFF;stroke-linecap:round;stroke-linejoin:round}
    </style>
    <path class="a" d="M38.1436157,38.2180862H9.8563833C6.8981342,38.2180862,4.5,35.8199501,4.5,32.861702V18.2659569  c0-2.9582481,2.3981342-5.3563824,5.3563833-5.3563824h28.2872314c2.9582481,0,5.3563843,2.3981342,5.3563843,5.3563824V32.861702  C43.5,35.8199501,41.1018639,38.2180862,38.1436157,38.2180862z"/>
    <polyline class="a" points="21.1762543,23.1009331 23.5744686,21.7819157 23.5744686,31.4946804"/>
    <path class="a" d="M23.6946163,17.8406887c-0.1692657-0.0102043-0.3399963-0.0140934-0.514616-0.0140934  c-4.710001,0-8.5300007,3.8199997-8.5300007,8.5200005c0,4.7099991,3.8199997,8.5299988,8.5300007,8.5299988  c4.5828896,0,8.3290863-3.6320038,8.5129299-8.1796227"/>
    <path class="a" d="M10.1702127,12.9095745v-2.069149c0-0.5845995,0.4739113-1.0585108,1.0585108-1.0585108h6.361702  c0.5845985,0,1.0585098,0.4739113,1.0585098,1.0585108v2.069149"/>
</svg>
