<?xml version="1.0" encoding="UTF-8" standalone="no"?>
<svg
   xmlns:dc="http://purl.org/dc/elements/1.1/"
   xmlns:cc="http://creativecommons.org/ns#"
   xmlns:rdf="http://www.w3.org/1999/02/22-rdf-syntax-ns#"
   xmlns:svg="http://www.w3.org/2000/svg"
   xmlns="http://www.w3.org/2000/svg"
   xmlns:sodipodi="http://sodipodi.sourceforge.net/DTD/sodipodi-0.dtd"
   xmlns:inkscape="http://www.inkscape.org/namespaces/inkscape"
   viewBox="0 0 48 48"
   version="1.1"
   id="svg8"
   sodipodi:docname="onleihe.svg"
   inkscape:version="1.0.1 (3bc2e813f5, 2020-09-07, custom)">
  <metadata
     id="metadata12">
    <rdf:RDF>
      <cc:Work
         rdf:about="">
        <dc:format>image/svg+xml</dc:format>
        <dc:type
           rdf:resource="http://purl.org/dc/dcmitype/StillImage" />
        <dc:title></dc:title>
      </cc:Work>
    </rdf:RDF>
  </metadata>
  <sodipodi:namedview
     pagecolor="#ffffff"
     bordercolor="#666666"
     borderopacity="1"
     objecttolerance="10"
     gridtolerance="10"
     guidetolerance="10"
     inkscape:pageopacity="0"
     inkscape:pageshadow="2"
     inkscape:window-width="1918"
     inkscape:window-height="1060"
     id="namedview10"
     showgrid="false"
     inkscape:zoom="8"
     inkscape:cx="53.592078"
     inkscape:cy="13.436366"
     inkscape:window-x="0"
     inkscape:window-y="18"
     inkscape:window-maximized="0"
     inkscape:current-layer="svg8" />
  <defs
     id="defs4">
    <style
       id="style2">.a{fill:none;stroke:#fff;stroke-linecap:round;stroke-linejoin:round;}</style>
  </defs>
  <g
     aria-label="on"
     transform="matrix(0.9514953,-0.27038576,0.26281919,0.9762922,0,0)"
     id="text839"
     style="font-style:normal;font-weight:normal;font-size:38.9379px;line-height:1.25;font-family:sans-serif;fill:none;fill-opacity:1;stroke:#ffffff;stroke-width:0.973;stroke-miterlimit:4;stroke-dasharray:none">
    <path
       id="path843"
       style="font-style:normal;font-variant:normal;font-weight:normal;font-stretch:normal;font-family:'Liberation Sans';-inkscape-font-specification:'Liberation Sans';fill:none;stroke-width:0.973;stroke-miterlimit:4;stroke-dasharray:none;stroke:#ffffff"
       d="m 0.1737942,20.29774 c 1.5256325,-1.484189 3.7159308,-2.253346 6.5269767,-2.253346 3.1434241,0 5.4566291,0.868244 6.9396161,2.604732 1.482987,1.723813 2.22448,4.404597 2.22448,8.04235 0,3.599727 -0.792194,6.28051 -2.376581,8.042349 -1.584387,1.761839 -3.8849176,2.642758 -6.9015909,2.642758 -3.0039982,0 -5.2728407,-0.912607 -6.80652757,-2.737821 C -1.5621863,35.030156 -2.3156793,32.768224 -2.4831428,29.91676 M 12.271476,28.691476 c 0,-2.839222 -0.424616,-4.898925 -1.273847,-6.17911 -0.836556,-1.29286 -2.2498298,-1.93929 -4.2398201,-1.93929 -2.0026655,0 -3.4539642,0.659105 -4.3538961,1.977315 -0.8872569,1.305535 -1.3308853,3.352563 -1.3308853,6.141085 0,2.712471 0.4372909,4.753161 1.3118726,6.122072 0.8872569,1.356235 2.2751801,2.034353 4.1637697,2.034353 2.0533658,0 3.5173392,-0.659105 4.3919212,-1.977315 0.887257,-1.31821 1.330885,-3.377913 1.330885,-6.17911 z M -2.4831428,29.91676 -5.2745701,40.022681 c -0.290302,1.050993 0.3485635,2.145102 1.426946,2.443762 l 32.2176421,8.92273 c 1.078383,0.29866 2.187921,-0.311226 2.478223,-1.362219 l 3.053073,-11.04457 -0.715926,0.01395 0,-13.042675 c 0,-1.356236 -0.133088,-2.408269 -0.399265,-3.1561 -0.266177,-0.747831 -0.690793,-1.286522 -1.273848,-1.616075 -0.583054,-0.329553 -1.438623,-0.494329 -2.566707,-0.494329 -1.647763,0 -2.94696,0.564042 -3.897593,1.692126 -0.950632,1.128084 -1.425948,2.693459 -1.425948,4.696124 l 0,11.920929 h -3.422276 l 0,-16.179762 c 0,-2.395593 -0.03802,-3.859567 -0.114076,-4.391922 h 3.23215 c 0.01267,0.06337 0.02535,0.234487 0.03803,0.513342 0.01267,0.278852 0.02535,0.602067 0.03803,0.969645 0.02535,0.354903 0.0507,1.03302 0.07605,2.034353 l 0.05704,0 c 0.785856,-1.419611 1.692125,-2.420943 2.718808,-3.003998 1.039358,-0.595729 2.32588,-0.893594 3.859567,-0.893594 2.256168,0 3.903931,0.564042 4.943289,1.692125 1.052033,1.115409 1.581681,2.966025 1.578049,5.551693 l -0.0054,3.843539 2.899985,-10.504142 c 0.290302,-1.050993 -0.348563,-2.145102 -1.426946,-2.443762 L 5.8766859,7.2611173 C 4.7983033,6.9624575 3.6887653,7.5723438 3.3984632,8.6233364 L 0.1737942,20.29774"
       sodipodi:nodetypes="cscsssccscscscscscssscccssssssccscccccccscsccsssc" />
  </g>
</svg>
