<svg xmlns="http://www.w3.org/2000/svg" viewBox="0 0 48 48"><defs><style>.a{fill:none;stroke:#fff;stroke-linecap:round;stroke-linejoin:round;}</style></defs><path class="a" d="M40.5,42.5H7.5a2.0059,2.0059,0,0,1-2-2V7.5a2.0059,2.0059,0,0,1,2-2h33a2.0059,2.0059,0,0,1,2,2v33A2.0059,2.0059,0,0,1,40.5,42.5Z"/><polyline class="a" points="32.777 28.32 32.777 19.68 38.5 28.32 38.5 19.68"/><path class="a" d="M9.6711,27.373a2.4165,2.4165,0,0,0,2.1182.9465h1.279a2.1574,2.1574,0,0,0,2.1551-2.16h0A2.1575,2.1575,0,0,0,13.0683,24H11.6551A2.1575,2.1575,0,0,1,9.5,21.84h0a2.1574,2.1574,0,0,1,2.1551-2.16h1.279a2.4166,2.4166,0,0,1,2.1182.9465"/><path class="a" d="M23.1112,25.4225v.0353A2.8617,2.8617,0,0,1,20.25,28.32h0a2.8617,2.8617,0,0,1-2.8617-2.8617V22.5422A2.8617,2.8617,0,0,1,20.25,19.6805h0a2.8617,2.8617,0,0,1,2.8617,2.8617v.0354"/><line class="a" x1="24.9189" y1="28.2939" x2="27.786" y2="19.6805"/><line class="a" x1="30.5343" y1="28.3195" x2="27.786" y2="19.6805"/><line class="a" x1="29.6149" y1="25.4296" x2="25.8723" y2="25.4296"/></svg>