<?xml version="1.0" encoding="UTF-8"?>
<svg version="1.1" viewBox="0 0 48 48" xmlns="http://www.w3.org/2000/svg">
 <defs>
  <style>.a{fill:none;stroke:#fff;stroke-linecap:round;stroke-linejoin:round;}</style>
 </defs>
 <path class="a" d="m7.5 5.5c-1.1 0-2 0.895-2 2v33c0 1.1 0.895 2 2 2h33c1.1 0 2-0.895 2-2v-33c0-1.1-0.895-2-2-2h-33z"/>
 <g fill="none" stroke="#fff" stroke-linejoin="round">
  <path class="a" d="m37.7 24.6 4.78-0.736"/>
  <path class="a" d="m5.5 29.6 18.4-2.83"/>
  <path class="cls-1" d="m27.1 8.38a10.2 10.2 0 0 1 12.5 7.22 10.2 10.2 0 0 1-6.45 12.2l0.144 0.52 1.11 0.645 2.83 10.6-3.32 0.892-2.83-10.6 0.641-1.11-0.14-0.526a10.2 10.2 0 0 1-4.47-19.9zm0.819 3.09a6.99 6.99 0 1 0 8.57 4.96 7 7 0 0 0-8.57-4.96z" stroke-linecap="round"/>
  <line class="cls-1" x1="33.1" x2="31.5" y1="27.8" y2="28.3" stroke-linecap="round"/>
 </g>
 <line class="a" x1="17.9" x2="14.2" y1="27.7" y2="5.5"/>
</svg>
