<svg version="1.1" viewBox="0 0 48 48" xmlns="http://www.w3.org/2000/svg">
 <g fill="none" stroke="#fff" stroke-linecap="round" stroke-linejoin="round">
  <path d="m14.808 15.304a13 13 0 0 1 18.385-1e-6" style="paint-order:stroke fill markers"/>
  <path d="m30.5 35.755a13 13 0 0 1-15.692-2.0659 13 13 0 0 1-2.0659-15.692" style="paint-order:stroke fill markers"/>
  <path d="m35.258 17.997a13 13 0 0 1 0.7521 11.475" style="paint-order:stroke fill markers"/>
  <path d="m19.05 19.547a7 7 0 0 1 9.8995 0" style="paint-order:stroke fill markers"/>
  <path d="m10.565 11.062a19 19 0 0 1 26.87-1e-6" style="paint-order:stroke fill markers"/>
  <circle cx="24" cy="24.497" r="2.5" style="paint-order:stroke fill markers"/>
  <path class="cls-1" d="m41.199 37.405a4.5551 4.5551 0 0 0 0.0386-0.55147 4.5551 4.5551 0 0 0-0.0386-0.55147l1.1939-0.93474a0.27573 0.27573 0 0 0 0.06893-0.36121l-1.1305-1.9605a0.27573 0.27573 0 0 0-0.34466-0.12132l-1.409 0.56801a4.3235 4.3235 0 0 0-0.95405-0.55147l-0.21232-1.4972a0.27573 0.27573 0 0 0-0.27574-0.23713h-2.2665a0.27573 0.27573 0 0 0-0.27574 0.23713l-0.21232 1.4972a4.2353 4.2353 0 0 0-0.95404 0.55147l-1.4145-0.56801a0.27573 0.27573 0 0 0-0.34467 0.12132l-1.1305 1.9605a0.27573 0.27573 0 0 0 0.06893 0.36121l1.1912 0.93474a4.5937 4.5937 0 0 0-0.0386 0.55147 4.5551 4.5551 0 0 0 0.0386 0.55147l-1.1912 0.93474a0.27573 0.27573 0 0 0-0.06893 0.36121l1.1305 1.9605a0.27573 0.27573 0 0 0 0.34467 0.12132l1.409-0.56801a4.3235 4.3235 0 0 0 0.95404 0.55147l0.21232 1.4972a0.27573 0.27573 0 0 0 0.27574 0.23713h2.261a0.27573 0.27573 0 0 0 0.27573-0.23713l0.21232-1.4972a4.2353 4.2353 0 0 0 0.95404-0.55147l1.409 0.56801a0.27573 0.27573 0 0 0 0.34467-0.12132l1.1305-1.9605a0.27573 0.27573 0 0 0-0.06893-0.36121zm-4.1994 1.4283a1.9798 1.9798 0 1 1 1.977-1.9798 1.977 1.977 0 0 1-1.977 1.9798z"/>
 </g>
</svg>
