<?xml version="1.0" encoding="UTF-8" standalone="no"?>
<!-- Created with Inkscape (http://www.inkscape.org/) -->

<svg
   width="48"
   height="48"
   viewBox="0 0 48 48"
   version="1.1"
   id="svg5"
   inkscape:version="1.1.1 (3bf5ae0d25, 2021-09-20)"
   sodipodi:docname="open_gapps.svg"
   xmlns:inkscape="http://www.inkscape.org/namespaces/inkscape"
   xmlns:sodipodi="http://sodipodi.sourceforge.net/DTD/sodipodi-0.dtd"
   xmlns="http://www.w3.org/2000/svg"
   xmlns:svg="http://www.w3.org/2000/svg">
  <sodipodi:namedview
     id="namedview7"
     pagecolor="#505050"
     bordercolor="#eeeeee"
     borderopacity="1"
     inkscape:pageshadow="0"
     inkscape:pageopacity="0"
     inkscape:pagecheckerboard="0"
     inkscape:document-units="px"
     showgrid="false"
     units="px"
     inkscape:snap-object-midpoints="true"
     inkscape:zoom="8.09375"
     inkscape:cx="-9.2046332"
     inkscape:cy="18.841699"
     inkscape:window-width="1914"
     inkscape:window-height="1055"
     inkscape:window-x="0"
     inkscape:window-y="19"
     inkscape:window-maximized="1"
     inkscape:current-layer="layer1" />
  <defs
     id="defs2">
	
	
	
	
	
	
	
	
	
	
	
	
	
	
	
	
	
	
	
	
	
	
	
	
	
	
	
	
	
	
	
	
	
	
	
	
	
	
	
	
	
	
	
	
	
	
	
	
	
	
	
	
	
	
	
	
	
	
	
	
	
	
	
	
	
	
	
	
	
	
	
	
	
	
	
	
	
	
	
	
	
	
	
	
	
	
	
	
	
	
	
	
	
	
	
	
	
	
	
	
	
	
	
	
	
	
	
	
	
	
	
	
	
	
	
	
	
	
	
	
	
	
	
	
	
	
	
	
	

	
</defs>
  <g
     inkscape:label="Layer 1"
     inkscape:groupmode="layer"
     id="layer1">
    <g
       id="g4517"
       transform="matrix(1.0867295,0,0,1.0862146,-2.0815075,3.137037)"
       style="stroke-width:0.920411">
      <g
         id="g3308"
         transform="matrix(0.85338231,0,0,0.83948378,26.415319,14.575973)"
         style="stroke-width:1.08744">
        <g
           id="g1598"
           transform="translate(-139.59331,-72.997226)"
           style="stroke-width:1.08744">
		<path
   class="st0"
   d="m 123.9,95.7 c 0,-1.5 -1.3,-2.8 -2.8,-2.7 -1.4,0.1 -2.5,1.4 -2.5,2.8 v 2.5 c 0,1.5 1.2,2.7 2.7,2.7 v 0 c 1.5,0 2.7,-1.2 2.7,-2.7 h -2.7"
   id="path1594"
   style="stroke-width:1.08744" />

		<path
   class="st0"
   d="M 123.9,95.7"
   id="path1596"
   style="stroke-width:1.08744" />

	</g>
        <g
           id="g1626"
           transform="translate(-217.95529,-73)"
           style="stroke-width:1.08744">
		<path
   class="st0"
   d="m 212.5,101 v -8 h 2.6 c 1.5,0 2.7,1.2 2.7,2.7 0,1.5 -1.2,2.7 -2.7,2.7 h -2.6"
   id="path1624"
   style="stroke-width:1.08744" />

	</g>
        <g
           id="g1672"
           transform="translate(-71.6993,-73.000054)"
           style="stroke-width:1.08744">
		<polyline
   class="st0"
   points="63.8,101 61.2,93 58.5,101   "
   id="polyline1668"
   style="stroke-width:1.08744" />

		<line
   class="st0"
   x1="59.400002"
   y1="98.300003"
   x2="62.900002"
   y2="98.300003"
   id="line1670"
   style="stroke-width:1.08744" />

	</g>
        <g
           id="g1776"
           transform="translate(-232.56727,-73)"
           style="stroke-width:1.08744">
		<path
   class="st0"
   d="m 242.7,100.1 c 0.5,0.6 1.1,0.9 2,0.9 h 1.2 c 1.1,0 2,-0.9 2,-2 v 0 c 0,-1.1 -0.9,-2 -2,-2 h -1.3 c -1.1,0 -2,-0.9 -2,-2 v 0 c 0,-1.1 0.9,-2 2,-2 h 1.2 c 0.9,0 1.5,0.2 2,0.9"
   id="path1774"
   style="stroke-width:1.08744" />

	</g>
        <g
           id="g3294"
           transform="translate(-210.21128,-73)"
           style="stroke-width:1.08744">
		<path
   class="st0"
   d="m 212.5,101 v -8 h 2.6 c 1.5,0 2.7,1.2 2.7,2.7 0,1.5 -1.2,2.7 -2.7,2.7 h -2.6"
   id="path3292"
   style="stroke-width:1.08744" />

	</g>
      </g>
      <path
         id="path3650"
         style="fill:none;stroke:#ffffff;stroke-width:0.920408;stroke-linecap:round;stroke-linejoin:round;stroke-miterlimit:10;stroke-dasharray:none;paint-order:markers fill stroke;stop-color:#000000"
         d="M 24,0.33398438 A 15.5,15.5 0 0 0 8.4999999,15.833984 15.5,15.5 0 0 0 16.261719,29.238281 l 3.960937,-6.859375 A 7.5884674,7.5884674 0 0 1 16.412109,15.833984 7.5884674,7.5884674 0 0 1 24,8.2460938 a 7.5884674,7.5884674 0 0 1 7.587891,7.5878902 7.5884674,7.5884674 0 0 1 -3.794922,6.56836 l 3.947265,6.835937 A 15.5,15.5 0 0 0 39.5,15.833984 15.5,15.5 0 0 0 24,0.33398438 Z" />
    </g>
  </g>
  <style
     type="text/css"
     id="style1515">
	.st0{fill:none;stroke:#FFFFFF;stroke-linecap:round;stroke-linejoin:round;stroke-miterlimit:10;}
	.st1{fill:#FFFFFF;}
	.st2{fill:none;stroke:#FFFFFF;stroke-width:0.9976;stroke-linecap:round;stroke-linejoin:round;stroke-miterlimit:10;}
	.st3{fill:none;stroke:#FFFFFF;stroke-width:0.9965;stroke-linecap:round;stroke-linejoin:round;stroke-miterlimit:10;}
	.st4{fill:none;stroke:#FFFFFF;stroke-width:0.8662;stroke-linecap:round;stroke-linejoin:round;stroke-miterlimit:10;}
</style>
</svg>
