<?xml version="1.0" encoding="UTF-8"?><svg id="a" xmlns="http://www.w3.org/2000/svg" viewBox="0 0 48 48"><defs><style>.b{fill:none;stroke:#fff;stroke-linecap:round;stroke-linejoin:round;}</style></defs><path class="b" d="m40.5,5.5H7.5c-1.1046,0-2,.8954-2,2v33c0,1.1046.8954,2,2,2h33c1.1046,0,2-.8954,2-2V7.5c0-1.1046-.8954-2-2-2Z"/><polyline class="b" points="28.1863 19 23.1106 29 21.5613 19"/><path class="b" d="m35.765,25.6465l-.0072.041c-.3226,1.8294-2.0671,3.3125-3.8966,3.3125h0c-1.8294,0-3.051-1.4831-2.7284-3.3125l.5951-3.375c.3226-1.8294,2.0671-3.3125,3.8966-3.3125h0c1.8294,0,3.051,1.4831,2.7284,3.3125l-.0072.041"/><path class="b" d="m14.3756,29h0c-1.8294,0-3.051-1.4831-2.7284-3.3125l.5951-3.375c.3226-1.8294,2.0671-3.3125,3.8966-3.3125h0c1.8294,0,3.051,1.4831,2.7284,3.3125l-.5951,3.375c-.3226,1.8294-2.0671,3.3125-3.8966,3.3125Z"/></svg>