<?xml version="1.0" encoding="UTF-8"?>
<svg id="a" version="1.1" viewBox="0 0 48 48" xmlns="http://www.w3.org/2000/svg"><defs><style>.b{fill:none;stroke:#fff;stroke-linecap:round;stroke-linejoin:round;}</style></defs><path class="b" d="m40.5,5.5H7.5c-1.1046,0-2,.8954-2,2v33c0,1.1046.8954,2,2,2h33c1.1046,0,2-.8954,2-2V7.5c0-1.1046-.8954-2-2-2Z"/><polyline class="b" transform="translate(7.869)" points="28.186 19 23.111 29 21.561 19"/><path class="b" d="m26.784 25.646-0.0072 0.041c-0.3226 1.8294-2.0671 3.3125-3.8966 3.3125-1.8294 0-3.051-1.4831-2.7284-3.3125l0.5951-3.375c0.3226-1.8294 2.0671-3.3125 3.8966-3.3125 1.8294 0 3.051 1.4831 2.7284 3.3125l-0.0072 0.041"/><path class="b" d="m14.376 29c-1.8294 0-3.051-1.4831-2.7284-3.3125l0.5951-3.375c0.3226-1.8294 2.0671-3.3125 3.8966-3.3125 1.8294 0 3.051 1.4831 2.7284 3.3125l-0.5951 3.375c-0.3226 1.8294-2.0671 3.3125-3.8966 3.3125z"/></svg>
