<?xml version="1.0" encoding="UTF-8"?>
<svg version="1.1" viewBox="0 0 48 48" xml:space="preserve" xmlns="http://www.w3.org/2000/svg" xmlns:xlink="http://www.w3.org/1999/xlink"><defs><style>.a{fill:none;stroke:#fff;stroke-linecap:round;stroke-linejoin:round;}</style><style>.a{fill:none;stroke:#fff;stroke-linecap:round;stroke-linejoin:round;}</style></defs><path transform="translate(38.402 3.4415)" d="m4.0979 20.559-10.867 7.7833-7.6327 10.717-7.7833-10.867-10.717-7.6327 10.867-7.7833 7.6327-10.717 7.7833 10.867z" fill="none" stroke="#fff" stroke-linecap="round" stroke-linejoin="round"/><circle cx="24" cy="24" r="10.688" fill="none" stroke="#fff" stroke-linecap="round" stroke-linejoin="round"/><circle cx="24" cy="24" r="1.8932" fill="none" stroke="#fff" stroke-linecap="round" stroke-linejoin="round"/><path id="path18" d="m14.761 14.761 3.0369 3.0369m-5.4659-8.1546a18.5 18.5 0 0 1 11.668-4.1435m-18.496 18.12a18.5 18.5 0 0 1 4.1413-11.29m3.1666-1.4115a1.8932 1.8932 0 0 1-1.8932 1.8932 1.8932 1.8932 0 0 1-1.8932-1.8932 1.8932 1.8932 0 0 1 1.8932-1.8932 1.8932 1.8932 0 0 1 1.8932 1.8932z" fill="none" stroke="#fff" stroke-linecap="round" stroke-linejoin="round" stroke-width="1px"/><use xlink:href="#path18"/><use transform="rotate(90,24,24)" xlink:href="#path18"/><use transform="rotate(180,24,24)" xlink:href="#path18"/><use transform="rotate(-90,24,24)" xlink:href="#path18"/></svg>
