<?xml version="1.0" encoding="UTF-8" standalone="no"?>
<svg
   xmlns:dc="http://purl.org/dc/elements/1.1/"
   xmlns:cc="http://creativecommons.org/ns#"
   xmlns:rdf="http://www.w3.org/1999/02/22-rdf-syntax-ns#"
   xmlns:svg="http://www.w3.org/2000/svg"
   xmlns="http://www.w3.org/2000/svg"
   xmlns:sodipodi="http://sodipodi.sourceforge.net/DTD/sodipodi-0.dtd"
   xmlns:inkscape="http://www.inkscape.org/namespaces/inkscape"
   viewBox="0 0 48 48"
   version="1.1"
   id="svg2289"
   sodipodi:docname="template.svg"
   inkscape:version="1.0.1 (3bc2e813f5, 2020-09-07)">
  <metadata
     id="metadata2293">
    <rdf:RDF>
      <cc:Work
         rdf:about="">
        <dc:format>image/svg+xml</dc:format>
        <dc:type
           rdf:resource="http://purl.org/dc/dcmitype/StillImage" />
        <dc:title></dc:title>
      </cc:Work>
    </rdf:RDF>
  </metadata>
  <sodipodi:namedview
     pagecolor="#5a5a5a"
     bordercolor="#666666"
     borderopacity="1"
     objecttolerance="10"
     gridtolerance="10"
     guidetolerance="10"
     inkscape:pageopacity="0"
     inkscape:pageshadow="2"
     inkscape:window-width="3840"
     inkscape:window-height="2096"
     id="namedview2291"
     showgrid="false"
     inkscape:zoom="7.6770833"
     inkscape:cx="-18.339616"
     inkscape:cy="63.768505"
     inkscape:window-x="0"
     inkscape:window-y="27"
     inkscape:window-maximized="1"
     inkscape:current-layer="svg2289"
     inkscape:document-rotation="0" />
  <defs
     id="defs2285">
    <style
       id="style2283">.a{fill:none;stroke:#fff;stroke-linecap:round;stroke-linejoin:round;}</style>
  </defs>
  <path
     id="rect1679"
     style="fill:none;stroke:#ffffff;stroke-width:1;stroke-miterlimit:4;stroke-dasharray:none;stroke-opacity:1"
     d="m 7.6837859,5.4941406 c 0,3.2154948 0,6.4309894 0,9.6464844 H 9.9003906 V 7.7441406 h 7.5332034 v -2.25 c -3.202474,0 -6.547334,0 -9.7498081,0 z"
     sodipodi:nodetypes="ccccccc" />
  <path
     id="rect1679-7"
     style="fill:none;stroke:#ffffff;stroke-width:1;stroke-miterlimit:4;stroke-dasharray:none;stroke-opacity:1"
     d="m 40.293805,5.4941406 c 0,3.2154948 0,6.4309904 0,9.6464844 H 38.0772 V 7.7441406 h -7.533203 v -2.25 c 3.202474,0 6.547334,0 9.749808,0 z"
     sodipodi:nodetypes="ccccccc" />
  <path
     id="rect1679-6"
     style="fill:none;stroke:#ffffff;stroke-width:1;stroke-miterlimit:4;stroke-dasharray:none;stroke-opacity:1"
     d="m 7.6837859,42.519585 c 0,-3.215495 0,-6.430989 0,-9.646484 h 2.2166047 v 7.396484 h 7.5332034 v 2.25 c -3.202474,0 -6.547334,0 -9.7498081,0 z"
     sodipodi:nodetypes="ccccccc" />
  <path
     id="rect1679-7-7"
     style="fill:none;stroke:#ffffff;stroke-width:1;stroke-miterlimit:4;stroke-dasharray:none;stroke-opacity:1"
     d="m 40.293804,42.519585 c 0,-3.215495 0,-6.43099 0,-9.646484 h -2.216605 v 7.396484 h -7.533203 v 2.25 c 3.202474,0 6.547334,0 9.749808,0 z"
     sodipodi:nodetypes="ccccccc" />
  <path
     style="fill:none;stroke:#ffffff;stroke-width:1px;stroke-linecap:butt;stroke-linejoin:miter;stroke-opacity:1"
     d="m 14.943374,14.551673 c 18.111404,0 18.154173,0 18.154173,0"
     id="path1721" />
  <path
     style="fill:none;stroke:#ffffff;stroke-width:1px;stroke-linecap:butt;stroke-linejoin:miter;stroke-opacity:1"
     d="m 14.943374,20.858028 c 18.111404,0 18.154173,0 18.154173,0"
     id="path1721-3" />
  <path
     style="fill:none;stroke:#ffffff;stroke-width:1px;stroke-linecap:butt;stroke-linejoin:miter;stroke-opacity:1"
     d="M 14.943374,27.164383 H 29.670059"
     id="path1721-6"
     sodipodi:nodetypes="cc" />
  <path
     style="fill:none;stroke:#ffffff;stroke-width:1px;stroke-linecap:butt;stroke-linejoin:miter;stroke-opacity:1"
     d="m 14.943374,33.470737 8.694164,0"
     id="path1721-5"
     sodipodi:nodetypes="cc" />
  <path
     style="fill:none;stroke:#ffffff;stroke-width:1px;stroke-linecap:butt;stroke-linejoin:miter;stroke-opacity:1"
     d="m 31.258208,31.228891 5.842198,-7.830319 1.919359,1.489811 -5.832894,7.790149 z"
     id="path1750"
     sodipodi:nodetypes="ccccc" />
  <path
     style="fill:none;stroke:#ffffff;stroke-width:1px;stroke-linecap:butt;stroke-linejoin:miter;stroke-opacity:1"
     d="m 30.584914,32.662005 -0.318403,1.855822 1.741052,-0.790017 z"
     id="path1752"
     sodipodi:nodetypes="cccc" />
  <path
     style="fill:none;stroke:#ffffff;stroke-width:1px;stroke-linecap:butt;stroke-linejoin:miter;stroke-opacity:1"
     d="m 37.984104,22.19326 1.961343,1.515892 c 0.514824,-0.687403 0.769462,-1.017055 -0.216368,-1.77804 -0.985829,-0.760984 -1.226804,-0.420267 -1.744975,0.262148 z"
     id="path1756"
     sodipodi:nodetypes="cczc" />
</svg>
