<?xml version="1.0" encoding="utf-8"?>
<!-- Generator: Adobe Illustrator 27.6.1, SVG Export Plug-In . SVG Version: 6.00 Build 0)  -->
<svg version="1.1" id="Capa_1" xmlns="http://www.w3.org/2000/svg" xmlns:xlink="http://www.w3.org/1999/xlink" x="0px" y="0px"
	 viewBox="0 0 48 48" style="enable-background:new 0 0 48 48;" xml:space="preserve">
<style type="text/css">
	.st0{display:none;fill:#282828;}
	
		.st1{clip-rule:evenodd;fill:none;stroke:#FFFFFF;stroke-linecap:round;stroke-linejoin:round;stroke-miterlimit:62.5;}
</style>
<rect class="st0" width="48" height="48"/>
<path class="st1" d="M24,44c11,0,20-9,20-20S35,4,24,4S4,13,4,24S13,44,24,44z M37.3,25.7c0,6.4-5.2,11.7-11.7,11.7S14,32.1,14,25.7
	c0-1.2,0.2-2.3,0.5-3.4c0.9,2,3,3.4,5.3,3.4c3.2,0,5.8-2.6,5.8-5.8c0-2.4-1.4-4.4-3.4-5.3c1.1-0.3,2.2-0.5,3.4-0.5
	C32.1,14,37.3,19.2,37.3,25.7L37.3,25.7z"/>
</svg>
