<svg xmlns="http://www.w3.org/2000/svg" viewBox="0 0 48 48"><defs><style>.a{fill:none;stroke:#fff;stroke-linecap:round;stroke-linejoin:round}</style></defs><path d="M38.442 22.974c0 3.422.9 2.05-.841 11.7-2.797 3.64-9.65 3.062-14.488 3.326-5.984.326-7.633.229-14.588-3.506-.385-5.503-.616-9.382-.184-10.727.523-1.627.956-2.164 1.222-4.037.999-8.125 7.312-10.992 13.664-10.992 8.459 0 15.215 5.896 15.215 14.236z" class="a"/><path d="M13.017 15.814c3.978-2.353 9.508-3.76 21.915-1.882M15.779 12.474c5.453-1.946 11.236-1.929 16.932-.56" class="a"/><ellipse cx="12.28" cy="30.941" rx="2.924" ry="5.11" class="a"/><path d="m12.869 18.092 3.504-.956v9.559M15 34.576c8.868.466 14.076.32 22.525-.966" class="a"/><circle cx="19.703" cy="16.958" r="1.093" class="a"/><circle cx="26.797" cy="17.034" r="1.093" class="a"/><path d="M29.294 27.66c.014 1.264-1.508 2.022-2.371 2.022-.754 0-2.597-.376-2.605-1.416l-.055-7.087c-.01-1.338 1.388-1.883 2.286-1.883.908 0 2.657.768 2.673 2.126z" class="a"/><circle cx="33.021" cy="16.967" r="1.093" class="a"/><circle cx="26.809" cy="22.983" r="1.093" class="a"/><circle cx="26.695" cy="27" r="1.093" class="a"/><path d="M13.909 36.406c8.868.466 14.076.32 22.525-.966M37.996 20.779c-.728.562-.466 1.91-2.301 1.797l-.203 7.068c2.055.222.584 2.473 2.491 3.102M12.368 30.857l1.107-2.637M12.175 32.006l.905 2.738M11.362 31.101l-1.87-.647" class="a"/></svg>
