<?xml version="1.0" encoding="utf-8"?>
<svg
	version="1.1"
	xmlns="http://www.w3.org/2000/svg"
	xmlns:xlink="http://www.w3.org/1999/xlink"
	x="0%" y="0%"
	width="100%" height="100%"
	viewBox="0 0 48.0 48.0"
	enable-background="new 0 0 48.0 48.0"
	xml:space="preserve">
	<path
		fill="#FFFFFF"
		stroke="#FFFFFF"
		fill-opacity="0.000"
		stroke-opacity="1.000"
		fill-rule="nonzero"
		stroke-width="1.5372916"
		stroke-linejoin="round"
		stroke-linecap="round"
		d="M24.10,0.74C36.94,0.74,47.35,11.12,47.35,23.92C47.35,36.73,36.94,47.11,24.10,47.11C11.26,47.11,0.85,36.73,0.85,23.92C0.85,11.12,11.26,0.74,24.10,0.74z"/>
	<path
		fill="#000000"
		stroke="#FFFFFF"
		fill-opacity="0.000"
		stroke-opacity="1.000"
		fill-rule="nonzero"
		stroke-width="0.117881544"
		stroke-linejoin="round"
		stroke-linecap="round"
		d="M47.35,24.21C39.90,2.33,9.48,0.74,0.85,24.32C10.63,47.11,38.45,45.93,47.35,24.21z"/>
	<path
		fill="#FFFFFF"
		stroke="#FFFFFF"
		fill-opacity="0.000"
		stroke-opacity="1.000"
		fill-rule="nonzero"
		stroke-width="0.117881544"
		stroke-linejoin="round"
		stroke-linecap="round"
		d="M24.19,12.43C30.04,12.43,34.79,17.53,34.79,23.82C34.79,30.10,30.04,35.20,24.19,35.20C18.33,35.20,13.58,30.10,13.58,23.82C13.58,17.53,18.33,12.43,24.19,12.43z"/>
	<path
		fill="#000000"
		stroke="#FFFFFF"
		fill-opacity="0.000"
		stroke-opacity="1.000"
		fill-rule="nonzero"
		stroke-width="0.117881544"
		stroke-linejoin="round"
		stroke-linecap="round"
		d="M24.11,16.94C27.67,16.94,30.55,20.06,30.55,23.92C30.55,27.78,27.67,30.90,24.11,30.90C20.56,30.90,17.67,27.78,17.67,23.92C17.67,20.06,20.56,16.94,24.11,16.94z"/>
</svg>