<svg xmlns="http://www.w3.org/2000/svg" viewBox="0 0 48 48">
<defs><style>.a{fill:none;stroke:#fff;stroke-linecap:round;stroke-linejoin:round;}</style></defs>
  <path class="a"
     d="m 19.81728,7.7875451 -0.348175,0.1294968 -0.146493,0.2186649 v 0.00218 l 0.01698,0.1422442 -0.09765,0.303584 0.148605,0.2292878 -0.171962,0.2144286 -0.407612,0.1783364 -0.250521,-0.033968 -0.20593,0.1401196 -0.12526,0.00218 -0.229288,0.1677135 -0.06794,0.2165532 -0.29085,-0.040341 -0.09554,0.05945 -0.118886,-0.048827 -0.390641,0.1231359 -0.01911,-0.00845 -0.409736,0.1953207 -0.03184,0.2462723 -0.178337,-0.08917 -0.295098,0.08704 -0.146494,0.222914 v 0.0064 l -0.0042,-0.002 -0.401251,0.208055 -0.08917,0.229288 -0.199556,0.07216 -0.06156,-0.02548 -0.433093,0.148605 -0.09765,0.322706 -0.254757,-0.180461 -0.356673,0.04672 -0.05945,0.08279 -0.297223,0.114638 -0.0064,0.0128 -0.09979,0.0022 h -0.01062 l -0.174087,-0.0044 -0.488295,0.133746 -0.208054,0.254758 -0.0064,0.03184 -0.121011,0.140119 -0.216553,0.116762 -0.0467,0.159228 -0.0042,0.0042 -0.02759,-0.02334 h -0.0042 l -0.133746,-0.239898 -0.382142,-0.148605 -0.49678,0.22079 -0.03184,0.392752 -0.05945,0.04883 -0.02759,0.33119 0.09554,0.167714 0.174087,0.131621 0.03397,0.0064 0.01062,0.03822 0.06582,0.0467 -0.02123,0.03822 0.08279,0.503154 0.171963,0.137995 0.106152,0.237773 h 0.0022 l 0.182586,0.05731 0.02759,0.06581 0.0552,0.05095 0.07856,0.04459 0.05095,0.0084 0.05095,0.0552 0.08917,0.03609 0.154978,0.15073 v 0.110401 l 0.116763,0.08492 -0.03184,0.04245 v 0.0022 l -0.0084,0.08917 -0.112525,0.106152 -0.0064,0.146493 -0.06369,0.02548 -0.225038,0.307834 0.08493,0.464936 0.191071,0.231413 0.186822,0.07431 0.0064,0.239898 0.152854,0.12526 0.101903,0.441592 0.127385,0.101903 -0.01911,0.08917 0.182586,0.486169 0.299348,0.142245 0.02334,0.01698 -0.017,-0.0064 0.19532,0.401251 0.647522,0.197444 0.08279,-0.0084 0.0552,-0.01911 0.07218,0.07642 0.04883,0.197444 0.184698,0.133746 0.104027,0.233537 0.191071,0.152855 0.0552,0.218677 0.439467,0.295099 0.148605,-0.01911 0.188947,0.174088 0.0022,0.290849 0.178337,0.273866 0.05945,0.04034 0.106152,0.09765 0.375768,0.167713 0.22079,-0.07218 0.01486,0.01911 0.03609,0.0064 0.157103,0.303584 0.254758,0.07218 0.03822,0.118887 0.09554,0.06156 0.123136,0.333315 0.271741,0.159228 0.110401,0.0064 0.04883,0.05945 0.0128,0.01911 0.169838,0.169838 0.07431,0.02334 -0.02548,0.03609 0.180461,0.380017 0.0084,0.06581 0.06156,0.04245 0.0022,0.01062 0.135871,0.152854 0.07856,0.04034 0.06793,0.02123 h 0.0022 l 0.760035,0.07856 0.0128,0.02123 0.148618,0.118886 0.208055,0.03609 0.08067,-0.01486 0.05945,-0.02334 0.123136,-0.125261 0.186822,-0.04883 0.02334,-0.0552 0.112526,-0.01911 0.0552,-0.09979 0.286613,0.08068 0.0467,-0.02972 0.04245,0.07856 h 0.0022 l 0.343925,0.09553 0.229288,-0.07006 0.280239,-0.401251 v -0.0022 h 0.0022 l 0.0042,-0.08704 -0.0022,-0.05308 -0.0022,-0.131621 v -0.110401 l 0.0042,-0.0022 0.278114,-0.252646 v -0.0022 l 0.19532,0.0552 0.369408,-0.144369 0.148605,-0.360909 v -0.0044 l -0.06581,-0.146494 0.07219,-0.171962 -0.03397,-0.214429 0.0467,-0.13587 0.0022,0.0022 0.439467,0.08067 0.09554,-0.0552 0.03397,0.0084 0.343925,-0.112526 h 0.0022 l 0.02335,-0.04458 0.184697,0.116762 0.157104,0.0128 0.04459,0.09765 0.259006,0.144369 0.0084,-0.0022 0.131621,0.02548 0.05945,0.0064 0.04034,0.0064 0.04883,0.0467 0.259006,0.19532 0.549856,0.03822 0.110401,-0.08704 0.07642,0.125261 0.104027,0.0128 0.0022,0.02972 0.324817,0.290849 0.528635,0.233537 0.980838,0.06156 0.02548,-0.0128 0.133746,0.03609 0.261131,-0.09978 0.301472,-0.324817 0.0064,-0.0128 0.0084,0.0022 0.01911,-0.01062 0.09765,0.07431 0.118887,-0.0022 0.48617,0.301473 0.284488,0.13587 0.148644,0.182586 0.27174,0.301472 0.297224,0.02972 0.382142,-0.371532 0.03184,-0.288725 0.112525,-0.131621 -0.0128,-0.131621 0.104027,-0.114638 0.0064,-0.04459 0.110401,-0.07219 0.07431,-0.244147 0.09128,-0.02123 0.06793,-0.09554 0.127385,0.05308 0.182585,0.186822 0.543495,-0.0084 0.03397,-0.03609 0.305708,0.08067 0.511652,-0.271741 0.154979,-0.0042 0.237773,-0.146493 0.193196,-0.286613 0.148605,0.0084 0.352424,-0.163477 0.180461,-0.467061 0.108276,0.01698 v 0.0022 l 0.399126,-0.252645 0.116762,-0.235649 0.07856,-0.02759 0.04459,-0.222914 -0.03184,-0.246271 0.09553,-0.178337 0.0064,-0.422483 0.09554,-0.101903 v -0.0042 l 0.577463,-0.225038 0.284488,-0.454327 0.19532,-0.167713 0.04459,-0.123136 0.01911,-0.0128 0.184697,-0.229288 0.15073,-0.04672 0.318456,0.07642 0.343925,-0.193196 0.0022,-0.0084 0.157104,-0.02972 0.05095,-0.02972 0.07431,-0.06793 0.07856,-0.144369 0.0064,-0.214428 -0.0042,-0.01062 0.03822,-0.121011 -0.12951,-0.22079 -0.03609,-0.233537 -0.154979,-0.464936 -0.360909,-0.19957 -0.08704,0.0128 -0.05308,-0.06582 -0.214428,-0.0467 -0.110401,-0.250521 0.08279,-0.284488 -0.169838,-0.271741 -0.0064,-0.197445 -0.375769,-0.267505 -0.26538,0.07219 -0.129497,-0.07856 -0.490418,-0.05731 -0.0128,-0.02123 -0.184697,-0.03609 -0.04245,-0.108276 -0.348175,-0.127385 -0.02972,0.0084 -0.02759,-0.07431 -0.471784,-0.265303 -0.341801,0.08917 -0.142244,0.140119 h -0.0022 v 0.002 l -0.07006,0.201681 -0.02548,0.01062 -0.0084,-0.01486 -0.09979,-0.03397 -0.0022,-0.01062 -0.233537,-0.399126 -0.03609,-0.03822 0.123136,-0.05945 0.08067,-0.613554 -0.0552,-0.0467 -0.0042,-0.303584 -0.282364,-0.305708 -0.360909,-0.0828 -0.307833,0.165589 -0.03822,0.133746 -0.435218,0.04459 -0.06369,0.03609 -0.04672,-0.017 -0.05308,-0.19532 -0.422483,-0.137995 -0.04245,0.01486 -0.01486,-0.08493 -0.220713,-0.201681 -0.227163,0.01062 -0.114638,-0.106152 -0.252645,-0.02548 -0.259007,-0.116762 -0.08917,0.02548 -0.191071,-0.118887 -0.365158,0.02759 -0.19532,0.171963 -0.09553,0.165589 -0.0128,0.407624 0.231412,0.246272 0.01062,0.0042 0.131622,0.322693 -0.0128,0.002 -0.06369,0.07006 -0.05945,-0.0064 -0.352424,0.290849 -0.07006,0.193196 -0.08492,0.04883 v -0.0042 l -0.101903,-0.377893 -0.554105,-0.679365 -0.267505,-0.301459 -0.210179,-0.09128 0.07856,-0.0064 0.339676,-0.386391 v -0.06369 l 0.02972,-0.02759 v -0.04034 l 0.0467,-0.02335 v -0.002 l 0.110401,-0.286613 -0.03822,-0.174087 -0.08492,-0.135871 -0.479796,-0.486169 -0.732441,-0.07642 -0.121011,0.1295093 -0.288725,-0.08067 -0.08704,0.05095 -0.131622,-0.1486053 -0.339676,0.02972 -0.0128,-0.076421 -0.244286,-0.3225539 -0.403375,-0.053076 -0.184697,0.080683 -0.280239,-0.1698381 -0.286613,-0.025482 -0.382142,-0.1401196 -0.301485,-0.2568818 -0.0084,-0.010623 -0.0042,-0.00845 0.08704,-0.1613525 -0.197444,-0.4755595 -0.106165,-0.093417 -0.242023,-0.1188866 -0.04034,0.010623 -0.282364,-0.1486051 -0.20593,0.048827 -0.02548,0.021233 -0.299348,-0.07006 -0.409736,0.1846973 -0.182585,0.4373427 0.09765,0.2887248 h -0.34605 l -0.152854,0.1507297 -0.18471,-0.4245952 -0.406058,-0.4401008 0.009,-0.130911 -0.416109,-0.184659 -0.193196,0.091293 -0.01486,-0.012671 -0.222914,-0.021233 -0.21018,-0.1082766 z" />
  <path class="a"
     d="m 36.145179,30.44992 v 2.902515 c 0,0.967504 -0.791594,1.759098 -1.759098,1.759098 v 0 c -0.967505,0 -1.759099,-0.791594 -1.759099,-1.759098 V 30.44992" />
  <path class="a"
     d="m 36.145179,33.352435 v 2.374783 c 0,0.967504 -0.791594,1.7591 -1.759098,1.7591 v 0 c -0.52773,0 -0.967505,-0.17591 -1.231369,-0.52773" />
  <path class="a"
     d="M 29.314403,35.111532 V 28.075136" />
  <path class="a"
     d="m 29.314405,32.20902 c 0,-0.967504 -0.791594,-1.7591 -1.759099,-1.7591 v 0 c -0.967504,0 -1.759098,0.791596 -1.759098,1.7591 v 1.143415 c 0,0.967504 0.791594,1.759098 1.759098,1.759098 v 0 c 0.967505,0 1.759099,-0.791594 1.759099,-1.759098" />
  <path class="a"
     d="m 22.958863,35.111538 c -0.35182,0 -0.70364,-0.35182 -0.70364,-0.70364 v -3.957972" />
  <path class="a"
     d="m 22.255223,33.352439 c 0,0.967504 -0.791595,1.759099 -1.759099,1.759099 v 0 c -0.967504,0 -1.7591,-0.791595 -1.7591,-1.759099 v -1.143414 c 0,-0.967505 0.791596,-1.759099 1.7591,-1.759099 v 0 c 0.967504,0 1.759099,0.791594 1.759099,1.759099" />
  <path class="a"
     d="m 20.235387,27.994689 1.231371,-0.439774"/>
  <path class="a"
     d="m 11.743406,35.111533 v -7.036396 h 2.286829 c 1.319324,0 2.374783,1.055459 2.374783,2.374783 0,1.319325 -1.055459,2.374785 -2.374783,2.374785 h -2.286829" />
</svg>
