<?xml version="1.0" encoding="utf-8"?>
<svg
	version="1.1"
	xmlns="http://www.w3.org/2000/svg"
	xmlns:xlink="http://www.w3.org/1999/xlink"
	x="0%" y="0%"
	width="100%" height="100%"
	viewBox="0 0 48.0 48.0"
	enable-background="new 0 0 48.0 48.0"
	xml:space="preserve">
	<path
		fill="#F8F8F8"
		stroke="#FFFFFF"
		fill-opacity="0.000"
		stroke-opacity="1.000"
		fill-rule="nonzero"
		stroke-width="1.2"
		stroke-linejoin="miter"
		stroke-linecap="square"
		d="M21.50,40.00L21.46,32.04L28.85,35.74L21.50,40.00z"/>
	<path
		fill="#F8F8F8"
		stroke="#FFFFFF"
		fill-opacity="0.000"
		stroke-opacity="1.000"
		fill-rule="nonzero"
		stroke-width="1.2"
		stroke-linejoin="miter"
		stroke-linecap="square"
		d="M21.43,23.26C22.61,25.24,25.39,25.24,26.57,23.26"/>
	<path
		fill="#F8F8F8"
		stroke="#FFFFFF"
		fill-opacity="0.000"
		stroke-opacity="1.000"
		fill-rule="nonzero"
		stroke-width="1.2"
		stroke-linejoin="miter"
		stroke-linecap="square"
		d="M20.54,28.36C19.38,27.29,18.23,26.21,17.76,25.31C17.30,24.40,17.53,23.67,17.76,22.93"/>
	<path
		fill="#F8F8F8"
		stroke="#FFFFFF"
		fill-opacity="0.000"
		stroke-opacity="1.000"
		fill-rule="nonzero"
		stroke-width="1.2"
		stroke-linejoin="miter"
		stroke-linecap="square"
		d="M27.30,28.45C28.41,27.25,29.53,26.05,29.93,25.11C30.33,24.17,30.03,23.50,29.72,22.83"/>
	<path
		fill="#F8F8F8"
		stroke="#FFFFFF"
		fill-opacity="0.000"
		stroke-opacity="1.000"
		fill-rule="nonzero"
		stroke-width="1.2"
		stroke-linejoin="miter"
		stroke-linecap="square"
		d="M20.39,17.95C21.72,15.01,25.69,15.01,27.30,17.98"/>
	<path
		fill="#F8F8F8"
		stroke="#FFFFFF"
		fill-opacity="0.000"
		stroke-opacity="1.000"
		fill-rule="nonzero"
		stroke-width="1.2"
		stroke-linejoin="miter"
		stroke-linecap="square"
		d="M9.05,12.24C3.11,7.09,12.22,-2.82,18.16,4.31M18.16,4.31C12.22,-2.82,3.11,7.09,9.05,12.24M29.27,4.37C35.22,-2.76,44.33,7.15,38.39,12.30"/>
	<path
		fill="#F8F8F8"
		stroke="#FFFFFF"
		fill-opacity="0.000"
		stroke-opacity="1.000"
		fill-rule="nonzero"
		stroke-width="1.2"
		stroke-linejoin="miter"
		stroke-linecap="square"
		d="M15.87,14.30C18.29,14.30,20.25,16.31,20.25,18.78C20.25,21.25,18.29,23.26,15.87,23.26C13.45,23.26,11.49,21.25,11.49,18.78C11.49,16.31,13.45,14.30,15.87,14.30zM31.83,14.11C29.41,14.11,27.45,16.11,27.45,18.59C27.45,21.06,29.41,23.06,31.83,23.06C34.25,23.06,36.21,21.06,36.21,18.59C36.21,16.11,34.25,14.11,31.83,14.11z"/>
	<path
		fill="#F8F8F8"
		stroke="#FFFFFF"
		fill-opacity="0.000"
		stroke-opacity="1.000"
		fill-rule="nonzero"
		stroke-width="1.2"
		stroke-linejoin="miter"
		stroke-linecap="square"
		d="M9.84,35.74L2.71,42.34L1.13,39.97Q4.29,32.44,8.26,27.29Q6.67,25.71,6.67,22.48A17.03 18.76 -0.00 1 1 40.74,22.08Q40.74,25.71,39.15,27.29Q43.12,32.44,46.28,39.97L44.70,42.34L37.24,37.49C46.35,25.71,2.71,25.79,9.84,35.74C14.63,41.61,18.87,33.96,19.35,44.72L28.37,44.61C28.52,35.90,32.67,37.54,37.25,37.54"/>
</svg>