<?xml version="1.0" encoding="UTF-8" standalone="no"?>
<!-- Created with Inkscape (http://www.inkscape.org/) -->

<svg
   width="48"
   height="48"
   viewBox="0 0 48 48"
   version="1.1"
   id="svg5"
   inkscape:version="1.2.2 (732a01da63, 2022-12-09)"
   xml:space="preserve"
   sodipodi:docname="panels.svg"
   xmlns:inkscape="http://www.inkscape.org/namespaces/inkscape"
   xmlns:sodipodi="http://sodipodi.sourceforge.net/DTD/sodipodi-0.dtd"
   xmlns="http://www.w3.org/2000/svg"
   xmlns:svg="http://www.w3.org/2000/svg"><sodipodi:namedview
     id="namedview7"
     pagecolor="#b8b8b8"
     bordercolor="#000000"
     borderopacity="0.25"
     inkscape:showpageshadow="2"
     inkscape:pageopacity="0"
     inkscape:pagecheckerboard="0"
     inkscape:deskcolor="#d1d1d1"
     inkscape:document-units="mm"
     showgrid="false"
     inkscape:zoom="6.9532167"
     inkscape:cx="-23.658115"
     inkscape:cy="48.251049"
     inkscape:window-width="1920"
     inkscape:window-height="991"
     inkscape:window-x="-9"
     inkscape:window-y="-9"
     inkscape:window-maximized="1"
     inkscape:current-layer="layer1" /><defs
     id="defs2" /><g
     inkscape:label="Layer 1"
     inkscape:groupmode="layer"
     id="layer1"><path
       id="rect421"
       style="fill:none;stroke:#ffffff;stroke-width:1;stroke-linecap:round;stroke-miterlimit:1.9;stroke-dasharray:none"
       d="M 22.963554,4.2586279 40.286487,7.2704557 C 42.189631,7.6013435 43.7733,8.8255738 43.7733,10.757269 v 26.648654 c 0,1.931695 -1.578502,3.187164 -3.486813,3.486813 L 23.02379,43.603381 c -1.908311,0.29965 -3.483217,-1.555121 -3.486813,-3.486813 L 19.476741,7.745441 c -0.0036,-1.9316912 1.58367,-3.8177005 3.486813,-3.4868131 z"
       sodipodi:nodetypes="sssssssss" /><path
       id="rect634"
       style="fill:none;stroke:#ffffff;stroke-width:1;stroke-linecap:round;stroke-miterlimit:1.9;stroke-dasharray:none"
       d="m 25.298128,9.8430739 13.781261,1.6611541 c 1.056401,0.127334 1.907797,0.856693 1.920663,1.920663 v 21.13492 c 0.01287,1.063971 -0.864229,1.793594 -1.920663,1.920664 l -13.781261,1.703748 c -1.056431,0.127069 -1.926211,-0.856631 -1.920662,-1.920664 V 11.763738 c 0.0056,-1.064034 0.864263,-2.048 1.920662,-1.9206641 z"
       sodipodi:nodetypes="sssssssss" /><path
       id="path693"
       style="fill:none;stroke:#ffffff;stroke-width:1;stroke-linecap:round;stroke-miterlimit:1.9;stroke-dasharray:none"
       d="m 19.73469,33.580155 -5.332048,0.659189 c -0.776414,0.09598 -1.416221,-0.629827 -1.412141,-1.412142 V 14.814037 c 0.0041,-0.782317 0.635437,-1.505764 1.412141,-1.412142 l 5.198065,0.62656"
       sodipodi:nodetypes="cssssc" /><path
       id="path691"
       style="fill:none;stroke:#ffffff;stroke-width:1;stroke-linecap:round;stroke-miterlimit:1.9;stroke-dasharray:none"
       d="m 19.617968,37.142209 -6.887503,1.081498 c -1.40306,0.220313 -2.560988,-1.143382 -2.563632,-2.563632 l -0.04428,-23.800437 c -0.0026,-1.42025 1.164371,-2.8069131 2.563632,-2.5636329 h -5e-6 l 6.932848,1.2053699"
       sodipodi:nodetypes="csssssc" /><path
       id="path695"
       style="fill:none;stroke:#ffffff;stroke-width:1;stroke-linecap:round;stroke-miterlimit:1.9;stroke-dasharray:none"
       d="M 10.165638,30.891248 6.524463,31.341399 C 5.9942613,31.40694 5.5573463,30.911299 5.5601331,30.377067 V 18.076144 c 0.00284,-0.534232 0.4339303,-1.028263 0.9643299,-0.964331 l 3.54968,0.42787"
       sodipodi:nodetypes="cssssc" /><path
       id="path697"
       style="fill:none;stroke:#ffffff;stroke-width:1;stroke-linecap:round;stroke-miterlimit:1.9;stroke-dasharray:none"
       d="m 10.085931,33.323721 -4.7033726,0.73854 C 4.4244285,34.21271 3.633697,33.281462 3.6318908,32.311594 l -0.03024,-16.252965 c -0.00175,-0.969868 0.7951307,-1.916799 1.7506664,-1.750667 h -3.4e-6 l 4.7343372,0.823129"
       sodipodi:nodetypes="csssssc" /></g></svg>
