<?xml version="1.0" encoding="UTF-8"?>
<svg width="48" height="48" version="1.1" viewBox="0 0 48 48" xml:space="preserve" xmlns="http://www.w3.org/2000/svg"><defs><style>.a{fill:none;stroke:#fff;stroke-linecap:round;stroke-linejoin:round;}</style></defs><g fill="none" stroke="#fff" stroke-linecap="round" stroke-linejoin="round"><path d="m12.487179 5.4871788h23.025642c3.878 0 7 3.122 7 7.0000002v23.025642c0 3.878-3.122 7-7 7h-23.025642c-3.8780002 0-7.0000002-3.122-7.0000002-7v-23.025642c0-3.8780002 3.122-7.0000002 7.0000002-7.0000002z" stop-color="#000000"/><path d="m5.6354059 20.34097c5.7468561 0 9.4513881 0.481057 11.4969831-1.156271l4.232781-3.243726c1.314189-0.964647 2.587587-2.07327 5.002862-2.10968h15.989968" stop-color="#000000"/><path d="m8.6960258 19.86228-0.8094189-2.784229c0.9840066-0.290429 1.4182196-0.488191 2.4023931-0.778051m16.359007-4.741105c3.815848-1.112823 7.632571-2.2226751 11.449928-3.3304167l1.603704 5.2179597" stop-color="#000000"/><path d="m11.017212 19.929086-1.4271572-8.077322 16.1546432-2.8543137 0.821967 4.5965037" stop-color="#000000"/></g></svg>
