<?xml version="1.0" encoding="UTF-8"?>
<svg version="1.1" viewBox="0 0 48 48" xml:space="preserve" xmlns="http://www.w3.org/2000/svg"><defs><style>.a{fill:none;stroke:#fff;stroke-linecap:round;stroke-linejoin:round;}</style></defs><g transform="matrix(4.5521 0 0 4.5521 -907.48 -178.86)" stroke-width=".21968">
		<path class="st5" d="m202.24 44.509v0.64704h0.91529" fill="none" stroke="#fff" stroke-linecap="round" stroke-linejoin="round" stroke-miterlimit="10" stroke-width=".21968"/>
	</g><path d="m10.076 7.1444-0.01638 1.7485v2.9454" fill="none" stroke="#000" stroke-width="1px"/><g transform="matrix(3.171 0 0 3.0443 -624.11 -113.72)" stroke-width=".32185">
		<path class="st5" d="m200.96 41.243 1.0658 2.2e-5h0.24809v3.9128h-1.3139" fill="none" stroke="#fff" stroke-linecap="round" stroke-linejoin="round" stroke-miterlimit="10" stroke-width=".32185"/>
	</g><path d="m17.31 26.695v13.653l2.9018 0.01209-1.9e-5 -13.665h7.5555c6.8283 1e-6 10.173-2.0731 10.173-8.9013s-3.3449-8.9013-10.173-8.9013h-14.624v2.9454m7.0683 0v11.912h1.3521l5.8172 1e-6c4.7566 1e-6 7.0866-1.3864 7.0866-5.9528s-2.3301-5.9481-7.0866-5.9528l-5.3231-0.0061z" fill="none" stroke="#fff" stroke-linecap="round" stroke-linejoin="round" stroke-width="1px"/></svg>
