<svg version="1.1" viewBox="0 0 48 48" xmlns="http://www.w3.org/2000/svg">
 <g fill="none" stroke="#fff" stroke-width="1.0001">
  <path d="m18.553 16.109v12.052l7.8683 4.8208v-12.052z" stroke-linecap="round" stroke-linejoin="round"/>
  <path d="m12.5 9.48c0-1.8078 1.8158-1.8078 3.0263-1.2052l15.131 8.4364c2.421 1.2052 2.421 1.8078 2.421 5.4234v18.078c0 1.8078-1.8158 3.013-3.6315 1.8078l-15.737-9.6417c-1.2105-0.6026-1.2105-1.8078-1.2105-3.6156z"/>
  <path d="m21.11 17.676 2.1e-4 8.677 5.3103 3.1013" stroke-linecap="round" stroke-linejoin="round"/>
  <path d="m14.921 8.0403v-0.97072c0-1.8078 1.8158-1.8078 3.0263-1.2052l15.131 8.4364c2.421 1.2052 2.421 1.8078 2.421 5.4234v18.078c0 1.4154-1.113 2.4613-2.4675 2.2704" stroke-linecap="round" stroke-linejoin="round"/>
 </g>
</svg>
