<svg version="1.1" viewBox="0 0 48 48" xmlns="http://www.w3.org/2000/svg">
 <defs>
  <style>.a{fill:none;stroke:#fff;stroke-linecap:round;stroke-linejoin:round;}</style>
 </defs>
 <path class="a" d="m15.253 10.575 23.261 22.486-31.177 8.9121z"/>
 <path class="a" d="m20.95 13.386c-0.29106 0.42319-0.91227 0.16654-1.1348-0.18155-0.37186-0.58167-0.0471-1.3401 0.53232-1.6355 0.76788-0.39153 1.6273 0.02626 2.0924 0.69973 0.19783 0.28644 0.37486 0.83492 0.3157 1.176"/>
 <path class="a" d="m24.512 10.692c0.62547 0.86932-0.43246 1.2177-1.0143 0.72981-0.6397-0.53636-0.52171-1.534 0.05134-2.0682 0.73162-0.68204 1.9047-0.53229 2.5371 0.20586 0.73942 0.8631 0.55875 2.191-0.30341 2.8986"/>
 <path class="a" d="m24.723 16.205c0.35508 1.021-0.76873 1.0537-1.1914 0.41431-0.46463-0.70298-0.06346-1.6343 0.64466-1.9863 0.90408-0.44942 1.996 0.03294 2.3955 0.92905 0.46712 1.0478-0.0897 2.2806-1.1274 2.7172"/>
 <path class="a" d="m29.47 14.159c-0.5239 1.8917-2.2362 0.78017-2.2073-0.61129 0.03186-1.5298 1.5927-2.5066 3.0139-2.3012 1.8144 0.26223 2.9473 2.1102 2.6187 3.8611-0.38419 2.0474-2.4888 3.3138-4.4896 2.8944"/>
 <path class="a" d="m32.161 21.511c0.35652 1.5384-1.2808 1.4106-1.795 0.41599-0.56524-1.0935 0.16268-2.3836 1.2461-2.7845 1.3832-0.51178 2.8939 0.35909 3.3344 1.7229 0.51508 1.5947-0.48591 3.2985-2.0613 3.7708"/>
 <path class="a" d="m39.147 24.643c1.5037 1.0711-0.02912 2.2274-1.2497 1.7546-1.342-0.51983-1.7037-2.2135-1.0654-3.4036 0.81495-1.5195 2.8125-1.927 4.2546-1.0738 1.6862 0.99762 2.1292 3.265 1.1155 4.8988"/>
 <path class="a" d="m37.554 15.732c0.7404-0.88934 1.3908 0.1233 1.0377 0.86391-0.38822 0.81422-1.4639 0.96044-2.1776 0.50533-0.91129-0.58106-1.0717-1.8488-0.47039-2.7099 0.7031-1.0069 2.1411-1.1768 3.1145-0.46606"/>
 <path class="a" d="m34.405 10.562c0.71068 0.95963-0.46349 1.3643-1.1197 0.82924-0.72144-0.5882-0.60518-1.7023 0.02553-2.3067 0.80525-0.77164 2.1154-0.62267 2.8318 0.19062 0.83764 0.95096 0.65655 2.4342-0.29384 3.2364"/>
</svg>
