<svg xmlns="http://www.w3.org/2000/svg" viewBox="0 0 48 48"><defs><style>.a{fill:none;stroke:#fff;stroke-linecap:round;stroke-linejoin:round;}</style></defs> <path class="a"         d="M25.49,19.05L25.95,36.99L23.97,40.06L21.96,36.99L22.40,19.05"/> <path class="a"         d="M39.88,19.54L28.60,20.49L28.22,29.13"/> <path class="a"         d="M31.27,23.31L39.03,23.51"/> <path class="a"         d="M31.16,26.27L37.18,27.18"/> <path class="a"         d="M30.18,29.10L35.15,30.60"/> <path class="a"         d="M7.63,19.46L18.92,20.41L19.29,29.05"/> <path class="a"         d="M16.25,23.23L8.48,23.43"/> <path class="a"         d="M16.35,26.19L10.33,27.10"/> <path class="a"         d="M17.34,29.02L12.36,30.52"/> <path class="a"         d="M18.04,16.77L30.18,16.77"/> <path class="a"         d="M23.88,7.42L23.89,14.69"/> <path class="a"         d="M23.97,2.58C35.89,2.58,45.55,12.29,45.55,24.25C45.55,36.22,35.89,45.92,23.97,45.92C12.05,45.92,2.38,36.22,2.38,24.25C2.38,12.29,12.05,2.58,23.97,2.58z"/></svg>