<?xml version="1.0" encoding="UTF-8" standalone="no"?>
<!-- Created with Inkscape (http://www.inkscape.org/) -->

<svg
   width="48.0px"
   height="48.0px"
   viewBox="0 0 48.0 48.0"
   version="1.1"
   id="SVGRoot"
   xml:space="preserve"
   xmlns="http://www.w3.org/2000/svg"
   xmlns:svg="http://www.w3.org/2000/svg"><defs
     id="defs4157"><style
       id="style4422">.a{fill:none;stroke:#fff;stroke-linecap:round;stroke-linejoin:round;}</style></defs><path
     style="fill:none;stroke:#ffffff;stroke-width:1;stroke-linecap:round;stroke-linejoin:round;stroke-dasharray:none;stroke-opacity:1"
     d="M 30.891732,6.9607729 C 30.842218,5.9891543 30.408394,5.0499456 29.135066,4.4402333 27.861738,3.830521 25.748261,3.5517083 23.850636,3.7259207 21.953011,3.900133 20.272085,4.5278126 19.143522,4.9618182 18.014958,5.3958239 17.438882,5.6361354 16.531035,5.822882 15.623187,6.0096286 14.383121,6.1426525 12.570607,6.8952047 10.758093,7.6477569 8.3739926,9.0198971 6.777525,11.801374 5.1810573,14.582852 4.3729176,18.772207 3.9650981,22.262032 c -0.4078194,3.489825 -0.4154952,6.279636 0.00658,8.647671 0.422072,2.368034 1.2731456,4.313847 1.932785,5.620112 0.6596395,1.306265 1.1274111,1.972919 1.2677895,2.714409 0.1403785,0.741489 -0.045385,1.558277 0.504656,1.888525 0.5500412,0.330248 1.8345042,0.175045 3.0244264,0.418931 1.189922,0.243885 2.284792,0.885793 4.457269,1.460391 2.172476,0.574598 5.422477,1.082531 7.670851,1.253823 2.248374,0.171291 3.495368,0.0063 5.504649,-0.606455 2.009282,-0.612774 4.781129,-1.673179 6.697395,-2.861825 1.916267,-1.188645 2.977685,-2.505883 3.508201,-3.431822 0.530516,-0.92594 0.529983,-1.461696 1.142885,-1.982604 0.612902,-0.520907 1.83853,-1.02535 2.796958,-2.661571 0.958428,-1.636222 1.650495,-4.405302 1.819848,-7.428 0.169353,-3.022697 -0.184395,-6.299341 -0.587713,-8.470368 -0.403319,-2.171026 -0.856703,-3.236474 -1.536383,-4.138882 -0.67968,-0.902407 -1.586368,-1.641305 -2.473764,-2.166338 -0.887397,-0.5250327 -1.755596,-0.8355715 -3.117016,-0.6971966 -1.361419,0.138375 -3.215161,0.7264586 -4.452868,1.2928646 -1.237708,0.566405 -1.858502,1.110882 -2.062132,1.92099 -0.203629,0.810107 0.0097,1.884168 -0.564053,3.037573 -0.573781,1.153404 -1.934468,2.3877 -2.21797,2.156237 -0.283501,-0.231464 0.510508,-1.929281 0.756665,-2.979167 0.246157,-1.049886 -0.05693,-1.452635 -0.166676,-1.982942 -0.109748,-0.530308 -0.02489,-1.187776 0.407174,-1.763655 0.432067,-0.575878 1.210824,-1.068788 1.766808,-1.8171546 0.555984,-0.748366 0.889787,-1.7531869 0.840272,-2.7248055 z"
     id="path5054" /><path
     style="fill:none;stroke:#ffffff;stroke-width:1;stroke-linecap:round;stroke-linejoin:round;stroke-dasharray:none;stroke-opacity:1"
     d="m 32.790606,8.8153064 c 0,0 1.11763,-1.0067551 2.336813,-1.3292034 1.219183,-0.3224483 3.729368,-2.0320787 4.099817,-3.0026322"
     id="path5982" /><path
     style="fill:none;stroke:#ffffff;stroke-width:1;stroke-linecap:round;stroke-linejoin:round;stroke-dasharray:none;stroke-opacity:1"
     d="m 34.096814,7.908999 c 1.249999,-0.6337881 4.125528,-0.9872409 5.060327,0.1095382"
     id="path5984" /></svg>
