<svg xmlns="http://www.w3.org/2000/svg" xml:space="preserve" width="48" height="48"><path d="M39.612 38.858a.65.65 0 0 1-.65.65.65.65 0 0 1-.65-.65.65.65 0 0 1 .65-.65.65.65 0 0 1 .65.65zm-13.81.243h-3.25v-6.498h3.25m-3.25 3.249h2.112m2.814 2.518c.407.488.894.731 1.625.731h.975a1.63 1.63 0 0 0 1.625-1.624 1.63 1.63 0 0 0-1.625-1.625h-1.056a1.63 1.63 0 0 1-1.625-1.625 1.63 1.63 0 0 1 1.625-1.624h.975c.73 0 1.218.162 1.624.73m-10.965-.73L18.544 39.1l-2.112-6.498M10.231 39.1v-6.498l4.306 6.498v-6.498M35.51 39.1v-6.498m-2.112 0h4.225m-29.388 0V39.1M40.5 5.5h-33a2 2 0 0 0-2 2v33a2 2 0 0 0 2 2h33a2 2 0 0 0 2-2v-33a2 2 0 0 0-2-2z" class="st6" style="fill:none;stroke:#fff"/></svg>