<?xml version="1.0" encoding="UTF-8" standalone="no"?>
<svg
   id="Layer_2"
   data-name="Layer 2"
   viewBox="0 0 48 48"
   version="1.1"
   xmlns="http://www.w3.org/2000/svg"
   xmlns:svg="http://www.w3.org/2000/svg">
  <defs
     id="defs4">
    <style
       id="style2">.cls-1{fill:none;stroke:#fff;stroke-linecap:round;stroke-linejoin:round;}</style>
  </defs>
  <path
     class="cls-1"
     d="m 22.675639,27.937847 4.283712,4.442556 c 0.167307,-0.114959 0.331777,-0.234192 0.493241,-0.357603 l 4.008227,1.609261 c 0.367078,0.148481 0.787703,10e-4 0.980459,-0.343717 l 2.435317,-4.206002 M 33.214402,12.992701 32.472669,11.711647 c -0.192756,-0.34472 -0.613389,-0.492208 -0.980472,-0.34372 l -4.00823,1.609259 C 26.649922,12.343233 25.737855,11.818173 24.769985,11.414798 L 24.16598,7.1728923 C 24.110878,6.7846256 23.775305,6.4972012 23.381597,6.5010612 H 16.933954 C 16.54025,6.4972112 16.20468,6.784629 16.14958,7.1728923 l -0.604002,4.2419057 c -0.969115,0.400863 -1.881493,0.926104 -2.713972,1.562388 L 8.8076945,11.367927 c -0.3670853,-0.148494 -0.7877249,-10e-4 -0.9804813,0.34372 L 4.611224,17.265976 c -0.205912,0.341068 -0.1214614,0.781786 0.196097,1.023361 l 3.388553,2.64825 c -0.036599,0.278607 -0.064122,0.558259 -0.082536,0.838514 l 6.117745,1.765788 M 14.731085,26.542 8.6133455,24.776581 c -0.015831,0.240944 -0.024928,0.482334 -0.027278,0.723891 0.00481,0.522536 0.041482,1.044299 0.1098137,1.562406 l -3.388553,2.64825 c -0.3175584,0.241575 -0.402009,0.682293 -0.196097,1.023361 l 3.2159892,5.554335 c 0.1927574,0.344717 0.6133967,0.492211 0.9804813,0.343717 L 13.315908,35.02328 c 0.834052,0.633952 1.746128,1.15901 2.714006,1.562381 l 0.603986,4.241901 c 0.05509,0.388277 0.390667,0.675757 0.784384,0.671857 h 6.431967 c 0.393713,0.0039 0.729286,-0.283583 0.784376,-0.671857 l 0.604002,-4.241901 C 26.019778,36.262549 26.763636,35.857746 27.45893,35.38 l -4.283289,-4.442043" />
  <path
     class="cls-1"
     d="m 14.231086,23.541893 a 6,6 0 0 1 4.355932,-6.837444 6,6 0 0 1 7.19107,3.743434 6,6 0 0 1 -3.102446,7.489968" />
  <path
     class="cls-1"
     d="M 23.175644,30.937961 A 6,6 0 0 1 17.869443,30.822179 6,6 0 0 1 14.731088,26.542004" />
  <path
     class="cls-1"
     d="m 26,29 h 18 l -9,-19 z" />
  <circle
     style="fill:#ffffff"
     cx="35"
     cy="26"
     r="0.75" />
  <path
     class="cls-1"
     d="M 35,23 V 16" />
</svg>
