<svg xmlns="http://www.w3.org/2000/svg" xml:space="preserve" id="svg990" width="48" height="48" version="1.1"><defs id="defs987"><style id="style1174">.a{fill:none;stroke:#fff;stroke-linecap:round;stroke-linejoin:round}</style></defs><path id="path10284" d="M13.184 14.341a3.226 3.226 0 0 1-3.225 3.226 3.226 3.226 0 0 1-3.226-3.226 3.226 3.226 0 0 1 3.226-3.225 3.226 3.226 0 0 1 3.225 3.225Zm-2.232 17.157a3.226 3.226 0 0 1-3.226 3.226A3.226 3.226 0 0 1 4.5 31.498a3.226 3.226 0 0 1 3.226-3.226 3.226 3.226 0 0 1 3.226 3.226zM43.5 38.077a3.226 3.226 0 0 1-3.226 3.226 3.226 3.226 0 0 1-3.226-3.226 3.226 3.226 0 0 1 3.226-3.226 3.226 3.226 0 0 1 3.226 3.226zM41.378 9.923a3.226 3.226 0 0 1-3.226 3.226 3.226 3.226 0 0 1-3.226-3.226 3.226 3.226 0 0 1 3.226-3.226 3.226 3.226 0 0 1 3.226 3.226ZM13.1 13.82l21.876-3.562m3.167 2.89 1.847 21.75m-2.849 2.591-26.32-5.164m-2.685-3.989 1.486-10.823" style="fill:none;stroke:#fff;stroke-width:1;stroke-linecap:round;stroke-linejoin:round;stroke-dasharray:none;stroke-opacity:1;stop-color:#000"/></svg>