<?xml version="1.0" encoding="UTF-8"?>
<svg version="1.1" viewBox="0 0 48 48" xml:space="preserve" xmlns="http://www.w3.org/2000/svg"><defs><style>.a{fill:none;stroke:#fff;stroke-linecap:round;stroke-linejoin:round;}</style><style>.cls-1{fill:none;stroke:#fff;stroke-linecap:round;stroke-linejoin:round;}</style><style>.a{fill:none;stroke:#fff;stroke-linecap:round;stroke-linejoin:round;}</style><style>.a{fill:none;stroke:#fff;stroke-linecap:round;stroke-linejoin:round;}</style></defs><path class="a" d="m40.5 5.5h-33a2 2 0 0 0-2 2v33a2 2 0 0 0 2 2h33a2 2 0 0 0 2-2v-33a2 2 0 0 0-2-2z"/><path class="a" d="m24 9.9556a9.4298 9.4298 0 0 0-9.4298 9.4298c0 7.3839 7.2038 16.288 9.084 18.463a0.57631 0.57631 0 0 0 0.87166 0c1.837-2.1611 8.9039-11.079 8.9039-18.463a9.4298 9.4298 0 0 0-9.4298-9.4298zm0 12.967a3.5299 3.5299 0 1 1 3.5227-3.5299 3.5227 3.5227 0 0 1-3.5227 3.5227z"/><path d="m17.197 28.391c-4.146 1.6256-7.4686 3.0884-11.697 1.646" fill="none" stroke="#fff" stroke-linecap="round" stroke-linejoin="round" stroke-width="1px"/><path d="m20.241 33.418c-4.146 1.6256-10.513 3.9243-14.741 2.4819" fill="none" stroke="#fff" stroke-linecap="round" stroke-linejoin="round" stroke-width="1px"/><path d="m31.356 27.356c4.0823-0.2723 7.4616 0.74664 11.119 2.1507" fill="none" stroke="#fff" stroke-linecap="round" stroke-linejoin="round" stroke-width="1px"/><path d="m28.25 32.854c6.5006-0.96096 10.779 1.4819 14.25 3.1454" fill="none" stroke="#fff" stroke-linecap="round" stroke-linejoin="round" stroke-width="1px"/><path d="m32.807 16.015c3.6623-1.1608 6.0101-0.85062 9.6675 0.5535" fill="none" stroke="#fff" stroke-linecap="round" stroke-linejoin="round" stroke-width="1px"/></svg>
