<svg width="48" height="48" xmlns="http://www.w3.org/2000/svg"><g stroke-miterlimit="9.4"><path d="m3.523 30.433 6.598-1.084-1.461-5.985 4.854.707.848-2.262 5.326 5.514-1.791-10.84 3.11 1.556 2.828-5.75 3.252 5.985 2.733-1.79-1.65 10.792 5.185-5.514.943 2.309 4.618-.66-1.414 5.985 6.834.99" fill="none" stroke="#fff" stroke-linecap="round" stroke-linejoin="round"/><path class="st0" d="M9.86 35.686h1.416M9.86 32.859h1.416M9.86 34.275h.921M9.86 32.859v2.827"/><path class="st0" d="M6.949 35.691v-2.832h.92c.531 0 .956.425.956.956s-.425.956-.956.956h-.92" stroke-width="1"/><g stroke-width="1"><path class="st0" d="M12.408 32.86h1.876M13.364 35.691v-2.832"/></g><path class="st0" fill="none" stroke="#fff" stroke-linecap="round" stroke-linejoin="round" d="M21.411 34.316h1.416"/><g stroke-width="1"><path class="st0" d="M15.328 35.691v-2.832h.92c.532 0 .956.425.956.956s-.424.956-.955.956h-.92M16.284 34.735l.92.956"/></g><path class="st0" d="M18.236 34.77c0 .531.425.956.92.956a.952.952 0 0 0 .956-.956v-.956c0-.53-.425-.955-.956-.955s-.92.424-.92.955zM25.974 34.77h0a.952.952 0 0 1-.956.956h0a.952.952 0 0 1-.955-.956v-.956c0-.53.424-.955.955-.955h0c.531 0 .92.424.92.955h0" fill="none" stroke="#fff" stroke-linecap="round" stroke-linejoin="round"/><g stroke-width="1"><path class="st0" d="m28.852 35.691-.92-2.832-.956 2.832M27.294 34.735h1.24"/></g><g stroke-width="1"><path class="st0" d="m34.678 35.691-.92-2.832-.956 2.832M33.12 34.735h1.24"/></g><g stroke-width="1"><path class="st0" d="m40.505 35.691-.92-2.832-.956 2.832M38.947 34.735h1.24"/></g><path class="st0" d="M29.89 35.691v-2.832l1.875 2.832v-2.832" stroke-width="1"/><path class="st0" d="M35.715 35.686v-2.832h.46a1.42 1.42 0 0 1 1.416 1.416h0a1.42 1.42 0 0 1-1.416 1.416z" fill="none" stroke="#fff" stroke-linecap="round" stroke-linejoin="round"/><path fill="none" stroke="#fff" stroke-linecap="round" stroke-linejoin="round" d="M3.428 3.429h41.143v41.143H3.428z"/></g><style>.st0{fill:none;stroke:#fff;stroke-linecap:round;stroke-linejoin:round;stroke-miterlimit:10}</style></svg>