<svg xmlns="http://www.w3.org/2000/svg" viewBox="0 0 48 48"><defs><style>.a{fill:none;stroke:#fff;stroke-linecap:round;stroke-linejoin:round;}</style></defs><circle class="a" cx="24.7169" cy="21.2309" r="5.3077"/><line class="a" x1="29.5629" y1="19.0634" x2="23.4579" y2="19.0511"/><line class="a" x1="22.1988" y1="21.2309" x2="25.2477" y2="15.9504"/><line class="a" x1="20.4041" y1="18.1303" x2="23.4505" y2="23.3984"/><line class="a" x1="19.8709" y1="23.3984" x2="25.971" y2="23.4108"/><line class="a" x1="24.1713" y1="26.509" x2="27.2325" y2="21.2359"/><line class="a" x1="29.0198" y1="24.3415" x2="25.9759" y2="19.0511"/><path class="a" d="M28.3688,27.6307a9.1492,9.1492,0,0,0,4.1317-9.883,11.2251,11.2251,0,0,0-4.6284-6.46A19.4823,19.4823,0,0,0,20.3614,8.34a31.0688,31.0688,0,0,0-10.6008-.2h0A39.0734,39.0734,0,0,1,21.1634,4.7922,23.581,23.581,0,0,1,33.7892,6.1238,14.7122,14.7122,0,0,1,38.956,9.8624a11.7983,11.7983,0,0,1,2.767,5.7142A10.6612,10.6612,0,0,1,28.3688,27.6307Z"/><path class="a" d="M14.7857,43.5,11.873,40.0042l-.3283,2.5376A30.2358,30.2358,0,0,1,6.1462,26.3824a21.8239,21.8239,0,0,1,.5416-5.969,14.1124,14.1124,0,0,1,2.5541-5.3926,12.0606,12.0606,0,0,1,10.6123-4.51,12.3355,12.3355,0,0,1,8.3727,4.5345,6.941,6.941,0,0,0-9.421,1.5187,8.477,8.477,0,0,0-1.53,3.5914,14.8637,14.8637,0,0,0-.1437,3.9254,37.4883,37.4883,0,0,0,.9847,5.6956q.7632,3.2055,1.7684,6.3469L21.0506,40.2l-2.7769-1.6456a3.9918,3.9918,0,0,1,.9426,3.0164,3.9464,3.9464,0,0,1-.3072,1.1485l-3.8658-3.4578,1.57,3.6056-3.041-.9246"/></svg>