<?xml version="1.0" encoding="utf-8"?>
<svg
	version="1.1"
	xmlns="http://www.w3.org/2000/svg"
	xmlns:xlink="http://www.w3.org/1999/xlink"
	x="0%" y="0%"
	width="100%" height="100%"
	viewBox="0 0 48.0 48.0"
	enable-background="new 0 0 48.0 48.0"
	xml:space="preserve">
	<path
		fill="#000000"
		stroke="#FFFFFF"
		fill-opacity="0.020"
		stroke-opacity="1.000"
		fill-rule="nonzero"
		stroke-width="0.48"
		stroke-linejoin="miter"
		stroke-linecap="square"
		d="M23.85,0.32C36.94,0.32,47.55,10.86,47.55,23.86C47.55,36.86,36.94,47.40,23.85,47.40C10.77,47.40,0.16,36.86,0.16,23.86C0.16,10.86,10.77,0.32,23.85,0.32zM20.83,28.26C21.00,29.16,21.17,30.06,22.18,30.43C23.19,30.81,25.04,30.66,26.89,30.51Q26.81,26.25,26.81,20.41Q24.91,20.41,20.85,20.39Q20.75,23.53,20.83,28.26zM32.20,20.41L32.20,40.19C32.19,40.79,32.17,41.40,31.60,41.65C31.04,41.90,29.93,41.79,28.82,41.68C28.17,41.51,27.51,41.34,27.19,40.66C26.86,39.99,26.88,38.82,26.89,37.64L26.86,35.03C26.01,35.28,25.15,35.52,24.15,35.55C23.14,35.58,21.98,35.41,20.83,35.24C19.88,34.93,18.93,34.62,18.14,33.93C17.36,33.25,16.75,32.20,16.14,31.14C15.91,30.17,15.68,29.19,15.57,28.05C15.45,26.91,15.45,25.60,15.45,24.29L15.45,20.35C14.40,20.37,13.36,20.38,12.76,20.14C12.15,19.91,11.98,19.42,11.82,18.93Q11.43,17.41,11.87,16.30L25.48,16.46L17.18,8.24C16.97,7.95,16.75,7.65,16.82,7.42C16.89,7.18,17.23,7.01,17.58,6.83L20.02,6.11C20.58,5.98,21.14,5.86,21.61,6.00C22.08,6.14,22.45,6.54,22.82,6.94L30.84,16.19L34.83,16.19C35.18,16.19,35.53,16.20,35.75,16.55C35.98,16.90,36.09,17.61,36.20,18.31C36.17,19.02,36.14,19.74,35.47,20.09C34.80,20.44,33.50,20.42,32.20,20.41z"/>
</svg>