<?xml version="1.0" encoding="UTF-8" standalone="no"?>
<!-- Created with Inkscape (http://www.inkscape.org/) -->

<svg
   xmlns:dc="http://purl.org/dc/elements/1.1/"
   xmlns:cc="http://creativecommons.org/ns#"
   xmlns:rdf="http://www.w3.org/1999/02/22-rdf-syntax-ns#"
   xmlns:svg="http://www.w3.org/2000/svg"
   xmlns="http://www.w3.org/2000/svg"
   xmlns:sodipodi="http://sodipodi.sourceforge.net/DTD/sodipodi-0.dtd"
   xmlns:inkscape="http://www.inkscape.org/namespaces/inkscape"
   width="48"
   height="48"
   viewBox="0 0 12.7 12.7"
   version="1.1"
   id="svg8"
   inkscape:version="0.92.3 (2405546, 2018-03-11)"
   sodipodi:docname="phototan.svg">
  <defs
     id="defs2" />
  <sodipodi:namedview
     id="base"
     pagecolor="#ffffff"
     bordercolor="#666666"
     borderopacity="1.0"
     inkscape:pageopacity="0.0"
     inkscape:pageshadow="2"
     inkscape:zoom="17.9375"
     inkscape:cx="24"
     inkscape:cy="24"
     inkscape:document-units="px"
     inkscape:current-layer="svg8"
     showgrid="false"
     units="px"
     inkscape:window-width="1860"
     inkscape:window-height="1052"
     inkscape:window-x="60"
     inkscape:window-y="0"
     inkscape:window-maximized="1" />
  <metadata
     id="metadata5">
    <rdf:RDF>
      <cc:Work
         rdf:about="">
        <dc:format>image/svg+xml</dc:format>
        <dc:type
           rdf:resource="http://purl.org/dc/dcmitype/StillImage" />
        <dc:title />
      </cc:Work>
    </rdf:RDF>
  </metadata>
  <path
     id="rect888"
     style="opacity:0.41800005;fill:none;fill-opacity:1;stroke:#ffffff;stroke-width:0.26458332;stroke-linecap:round;stroke-linejoin:round;stroke-miterlimit:4;stroke-dasharray:none;stroke-opacity:1"
     d="m 8.0697911,10.362847 h 1.146528 v 1.146528 h -1.146528 z m -4.5861103,0 h 1.1465277 v 1.146528 H 3.4836808 Z M 5.7767357,8.0697923 H 6.9232635 V 9.2163201 H 5.7767357 Z m -2.2930549,0 H 4.6302085 V 9.2163201 H 3.4836808 Z M 8.0697911,5.7767366 h 1.146528 v 1.1465278 h -1.146528 z m -4.5861103,0 H 4.6302085 V 6.9232644 H 3.4836808 Z m -2.2930558,0 H 2.3371528 V 6.9232644 H 1.190625 Z m 9.172222,0 h 1.146528 v 1.1465278 h -1.146528 z m 0,-2.2930558 h 1.146528 v 1.1465276 h -1.146528 z m -4.5861113,0 H 6.9232635 V 4.6302084 H 5.7767357 Z m 2.2930554,-2.293055 h 1.146528 v 1.1465277 h -1.146528 z m -2.2930554,0 H 6.9232635 V 2.3371535 H 5.7767357 Z m -2.2930549,0 H 4.6302085 V 2.3371535 H 3.4836808 Z m -2.2930558,0 H 2.3371528 V 2.3371535 H 1.190625 Z"
     inkscape:connector-curvature="0" />
</svg>
