<svg xmlns="http://www.w3.org/2000/svg" xml:space="preserve" id="svg990" width="48" height="48" version="1.1"><defs id="defs987"><style id="style1174">.a{fill:none;stroke:#fff;stroke-linecap:round;stroke-linejoin:round}</style></defs><path id="path1293" d="M21.779 14.002c3.883-2.061 8.873-3.679 14.387-4.4m2.988 3.817c-.763 4.31-2.37 8.897-5.342 13.299 3.043-4.683 2.892-10.64 2.354-17.117l2.988 3.818c-7.038-1.6-12.008-1.818-17.375.583m-.05-7.504 6.053-.998c-6.127 4.047-10.756 8.548-12.786 13.756m-.961-11.298-3.753 4.934m18.952 19.81a10.144 10.144 0 0 1-5.282 1.474M27.782 5.5c3.006 4.165 5.077 9.792 5.735 14.593C30.099 12.88 20.295 9.07 14.035 7.958c-1.3 6.351-1.168 12.134-.158 17.57m19.64-5.435c-2.52-8.24-15.855-8.075-23.235-7.2m0 0c.732 4.564 1.825 8.734 3.595 12.635a10.27 10.27 0 0 1-.116-1.543c0-2.613.984-4.996 2.6-6.8m0 0a10.166 10.166 0 0 1 7.591-3.391c-6.09-.613-12.25 2.259-17.814 5.732m-.315 7.22c4.757 3.286 10.715 7.288 18.13 7.43M6.137 19.526l-.315 7.22a41.138 41.138 0 0 1 10.538-9.56m4.758 16.591a10.214 10.214 0 0 1-5.853-4.46c-4.475-3.119-6.604-5.98-9.128-9.791M31.11 31.24a10.234 10.234 0 0 1-1.876 1.463c-3.94 3.01-9.301 5.077-15.738 5.82m0 0-4.784-5.384m0 0c1.706-6.288 3.34-11.133 7.65-15.954m-2.485 8.343c-.76 4.388-.867 8.073-.38 12.995m10.455-4.347a10.19 10.19 0 0 1-2.833-.399c-2.256 1.015-8.361.307-12.407-.638M26.17 42.5l-5.895-1.327m0 0c-2.75-4.172-4.882-7.918-5.008-11.855m18.878-5.333a10.16 10.16 0 0 1-3.034 7.255c-3.483 3.363-5.856 7.176-10.836 9.933m-6.397-15.645c.209 1.372.69 2.655 1.39 3.79 2.705 4.735 5.63 9.05 10.902 13.182m13.04-7.305-5.125 3.409m0 0c-5.039-.953-8.935-2.951-12.965-4.827m2.833-19.983c2.498 0 4.785.898 6.557 2.39 5.738 4.616 7.636 12.414 8.7 19.011-6.033 1.009-12.568-.062-18.09-1.418m-6.123-14.521c1.577-5.217 3.526-8.626 6.732-12.758 5.611 4.067 9.933 9.38 11.789 13.595 1.738 6.278 2.1 12.5.567 18.51m8.093-16.65-.37 4.986m0 0c-3.103 2.571-7.92 4.641-12.573 5.764m1.275-16.52c1.568-.537 7.536 3.029 11.668 5.77-3.163 4.404-7.266 8.138-12.943 10.75M26.169 42.5c5.543-5.863 8.628-15.67 7.975-18.515a10.17 10.17 0 0 0-3.635-7.802c4.925 1.946 8.477 6.54 11.298 10.756" style="fill:none;stroke:#fff;stroke-width:1;stroke-linecap:round;stroke-linejoin:round;stroke-dasharray:none;stroke-opacity:1;stop-color:#000"/></svg>