<?xml version="1.0" encoding="UTF-8" standalone="no"?>
<svg
   xmlns:dc="http://purl.org/dc/elements/1.1/"
   xmlns:cc="http://creativecommons.org/ns#"
   xmlns:rdf="http://www.w3.org/1999/02/22-rdf-syntax-ns#"
   xmlns:svg="http://www.w3.org/2000/svg"
   xmlns="http://www.w3.org/2000/svg"
   xmlns:sodipodi="http://sodipodi.sourceforge.net/DTD/sodipodi-0.dtd"
   xmlns:inkscape="http://www.inkscape.org/namespaces/inkscape"
   viewBox="0 0 48 48"
   version="1.1"
   id="svg8"
   sodipodi:docname="photospherefree.svg"
   inkscape:version="0.92.3 (2405546, 2018-03-11)">
  <metadata
     id="metadata12">
    <rdf:RDF>
      <cc:Work
         rdf:about="">
        <dc:format>image/svg+xml</dc:format>
        <dc:type
           rdf:resource="http://purl.org/dc/dcmitype/StillImage" />
        <dc:title></dc:title>
      </cc:Work>
    </rdf:RDF>
  </metadata>
  <sodipodi:namedview
     pagecolor="#ffffff"
     bordercolor="#666666"
     borderopacity="1"
     objecttolerance="10"
     gridtolerance="10"
     guidetolerance="10"
     inkscape:pageopacity="0"
     inkscape:pageshadow="2"
     inkscape:window-width="1447"
     inkscape:window-height="814"
     id="namedview10"
     showgrid="false"
     inkscape:zoom="13.906433"
     inkscape:cx="26.772208"
     inkscape:cy="24"
     inkscape:window-x="0"
     inkscape:window-y="25"
     inkscape:window-maximized="0"
     inkscape:current-layer="svg8" />
  <defs
     id="defs4">
    <style
       id="style2">.a{fill:none;stroke:#fff;stroke-linecap:round;stroke-linejoin:round;}</style>
  </defs>
  <circle
     class="a"
     cx="24"
     cy="24"
     r="21.5"
     id="circle6"
     style="fill:none;stroke:#000000;stroke-opacity:1" />
  <path
     style="fill:none;stroke:#000000;stroke-width:1px;stroke-linecap:butt;stroke-linejoin:miter;stroke-opacity:1"
     d="m 7.9322034,38.033898 c 8.7440086,4.076264 6.8454616,-2.058574 8.5423726,-2.440678 7.439182,3.692043 13.655907,2.925717 19.728814,-1.220339 0.277295,-2.681081 1.417499,-4.786888 4.067796,-6.101695 2.067041,-6.449024 -2.409652,-8.511589 -9.762711,-11.79661 2.175721,-3.081631 3.057076,-6.8823536 2.644067,-11.1864404 V 4.6779661"
     id="path822"
     inkscape:connector-curvature="0"
     sodipodi:nodetypes="ccccccc" />
  <path
     style="fill:none;stroke:#000000;stroke-width:1px;stroke-linecap:butt;stroke-linejoin:miter;stroke-opacity:1"
     d="M 34.084944,18.589152 C 33.467,20.43278 31.691537,21.893655 27.756937,20.674518 l 4.242641,4.170731 -4.386459,1.72582 -2.373003,-3.092094 c -4.913792,4.026914 -4.937762,8.485282 -22.0761128,4.602187"
     id="path828"
     inkscape:connector-curvature="0"
     sodipodi:nodetypes="cccccc" />
  <path
     style="fill:none;stroke:#000000;stroke-width:1px;stroke-linecap:butt;stroke-linejoin:miter;stroke-opacity:1"
     d="M 21.572749,26.786797 C 12.89571,27.481919 3.7872159,21.920943 5.6089148,12.836418"
     id="path830"
     inkscape:connector-curvature="0"
     sodipodi:nodetypes="cc" />
  <path
     style="fill:none;stroke:#000000;stroke-width:1px;stroke-linecap:round;stroke-linejoin:round;stroke-opacity:1"
     d="m 12.799831,13.771238 12.08074,0.215727 c 2.005189,0.12755 0.322636,-5.1097606 -3.164003,-2.876366 -0.119849,-3.1400338 -5.704794,-3.4756098 -5.393188,-0.791001 -2.732261,-1.7682835 -5.141437,3.491482 -3.523549,3.45164 z"
     id="path832"
     inkscape:connector-curvature="0"
     sodipodi:nodetypes="ccccc" />
</svg>
