<svg xmlns="http://www.w3.org/2000/svg" xml:space="preserve" id="svg990" width="48" height="48" version="1.1"><defs id="defs987"><style id="style1174">.a{fill:none;stroke:#fff;stroke-linecap:round;stroke-linejoin:round}</style></defs><path id="path19058" d="m18.401 38.69 4.297 4.297m0 0 2.518 2.517m-2.354-42.93 2.517 2.518m0 0 4.298 4.297m-4.46 36.118a21.42 21.42 0 0 1-11.192-2.44m0 .001a21.571 21.571 0 0 1-9.016-9.014m0 0a21.437 21.437 0 0 1-2.396-8.236M22.86 2.571a21.42 21.42 0 0 1 11.192 2.44m0 0a21.571 21.571 0 0 1 9.016 9.013m0 0a21.437 21.437 0 0 1 2.397 8.24m-18.576 9.81c5.598-1.286 10.68-4.733 10.03-10.643-4.448-1.264-9.435 3.16-10.385 8.853-.51-9.68-7.98-14.142-15.073-13.992-.294 7.034 3.537 13.95 12.721 15.495-.65-4.337-4.856-7.982-8.831-11.673 4.56 3.608 8.369 7.395 11.538 11.96z" style="fill:none;stroke:#fff;stroke-width:1;stroke-linecap:round;stroke-linejoin:round;stroke-dasharray:none;stroke-opacity:1;stop-color:#000"/></svg>