<svg width="48" height="48" version="1.1" viewBox="0 0 48 48" xml:space="preserve" xmlns="http://www.w3.org/2000/svg"><g transform="matrix(1.9325 0 0 1.8965 -487.61 -93.219)" stroke-width=".52235">
		<polyline class="st5" points="268 59.35 266 64.65 264 59.35" fill="none" stroke="#fff" stroke-linecap="round" stroke-linejoin="round" stroke-miterlimit="10" stroke-width=".52235"/>
	</g><path class="st5" transform="matrix(1.2036 0 0 1.2034 -4.6166 -5.6003)" d="m35.976 29.073v0c-1.7508 0-3.1701-1.3936-3.1701-3.1127v-2.0233c0-1.7191 1.4193-3.1127 3.1701-3.1127v0c1.7508 0 3.1701 1.3936 3.1701 3.1127v2.0233c0 1.7191-1.4193 3.1127-3.1701 3.1127z" fill="none" stroke="#fff" stroke-linecap="round" stroke-linejoin="round" stroke-miterlimit="10" stroke-width=".8309"/><g transform="matrix(1.7673 0 0 1.7671 -222.98 -84.855)" stroke-width=".56587">
		<circle class="st6" cx="136" cy="56.9" r=".7" fill="#fff"/>
		<line class="st5" x1="136" x2="136" y1="59.35" y2="64.65" fill="none" stroke="#fff" stroke-linecap="round" stroke-linejoin="round" stroke-miterlimit="10"/>
	</g><g transform="matrix(1.6652 0 0 1.6189 -334.19 -75.977)" stroke-width=".60906">
		
			<path class="st5" d="m204 62.65c0 1.1046 0.89543 2 2 2v0c1.1046 0 2-0.89543 2-2v-1.3c0-1.1046-0.89543-2-2-2v0c-1.1046 0-2 0.89543-2 2" fill="none" stroke="#fff" stroke-linecap="round" stroke-linejoin="round" stroke-miterlimit="10" stroke-width=".60906"/>
		
		<line class="st5" x1="204" x2="204" y1="59.35" y2="67.35" fill="none" stroke="#fff" stroke-linecap="round" stroke-linejoin="round" stroke-miterlimit="10"/>
	</g><style type="text/css">
	.st0{display:none;}
	.st1{display:inline;}
	.st2{fill:none;stroke:#FFFFFF;stroke-width:0.25;stroke-miterlimit:10;}
	.st3{fill:none;stroke:#FFFFFF;stroke-width:0.1;stroke-miterlimit:10;}
	.st4{fill:#FFFFFF;}
	.st5{fill:none;stroke:#FFFFFF;stroke-linecap:round;stroke-linejoin:round;stroke-miterlimit:10;}
	.st6{fill:#FFFFFF;}
</style></svg>
