<svg width="48" height="48" version="1.1" viewBox="0 0 48 48" xml:space="preserve" xmlns="http://www.w3.org/2000/svg"><defs><style>.a{fill:none;stroke:#fff;stroke-linecap:round;stroke-linejoin:round;}</style></defs><g fill="none" stroke="#fff"><g stroke-linecap="round" stroke-linejoin="round"><path transform="matrix(1.3144 0 0 1.3115 3.1601 4.3096)" d="m15.786 22.633-6.6041-3.8936 0.06996-7.6661 6.674-3.7725 6.6041 3.8936-0.06996 7.6661z" stroke-width=".76165" style="paint-order:stroke fill markers"/><g><path d="m15.521 19.052 8.3691 4.9168 8.7784-4.7867" style="paint-order:stroke fill markers"/><path d="m23.89 24.074-0.0012 9.9016" style="paint-order:stroke fill markers"/><path d="m23.962 34.288v8.0351" style="paint-order:stroke fill markers"/><path d="m32.863 19.133 9.5984-5.6212" style="paint-order:stroke fill markers"/><path d="m15.125 19.046-9.5403-5.5273" style="paint-order:stroke fill markers"/></g></g><path class="a" d="m40.5 5.5h-33a2 2 0 0 0-2 2v33a2 2 0 0 0 2 2h33a2 2 0 0 0 2-2v-33a2 2 0 0 0-2-2z"/></g></svg>
