<?xml version="1.0" encoding="UTF-8"?>
<svg version="1.1" viewBox="0 0 48 48" xml:space="preserve" xmlns="http://www.w3.org/2000/svg"><defs><style>.a{fill:none;stroke:#fff;stroke-linecap:round;stroke-linejoin:round;}</style><style>.a{fill:none;stroke:#fff;stroke-linecap:round;stroke-linejoin:round;}</style></defs><g transform="translate(-2.5e-4)"><path class="a" d="m42.943 29.854c-0.2706-1.5577-4.7375-5.5846-6.8575-6.0408"/><path class="a" d="m32.95 27.652a53.2 53.2 0 0 1 3.6967-4.507c1.0269-0.9262 1.9556-5.0592 0.5447-8.1206s-2.5014-6.4868-5.3614-8.6477-12.943-2.3411-18.205 0.3268-7.99 8.9233-7.7037 9.731 1.5516 1.1116 1.5516 1.1116"/><path class="a" d="m7.4723 17.547s0.5229-1.261 2.9367-0.4768 4.3184 5.3893 2.0694 7.3587-3.71 1.1832-4.7623 0.3755-0.6265 1.49 1.06 3.65"/><path class="a" d="m8.7763 28.454s1.4567 0.4966 1.6867-0.723"/><path class="a" d="m13.646 33.766s9.9116 0.3033 10.707 0.0836 1.458-2.79 0.0572-4.13-2.0366-2.4592-6.3963-2.4169-7.5506 0.4288-7.5506 0.4288"/><path class="a" d="m17.539 27.697s-0.1461 1.9574 0.6118 2.2546c0.6135 0.1171 1.6877 0.314 1.9992-0.5454-0.2348-0.9357-0.3858-1.8053-0.388-1.8052"/><path class="a" d="m21.312 27.921s-0.0218 1.1625 0.5387 1.4364a1.3762 1.3762 0 0 0 1.5807-0.3857"/><path class="a" d="m13.159 27.724s-1.3288 2.13 0.2306 2.5081 3.4858 0.2793 3.0518-0.7854-0.5523-1.8584-0.4238-1.9219"/><path class="a" d="m14.06 33.586s-0.9463-1.7316-0.3021-1.8047 2.02-0.3923 2.5511 0.5481c0.1346 0.7489 0.0213 0.5051-0.1311 1.4324"/><path class="a" d="m21.08 33.891a5.1023 5.1023 0 0 1-0.6043-2.4512c0.07-0.7875 1.2745-0.5637 1.8838-0.5637s1.3736 0.1025 1.2367 1.0837-0.396 1.94-0.9545 1.93"/><path class="a" d="m13.176 32.679s-1.77 1.1716-1.0666 2.04 1.8268 0.7072 2.7531 0.6778"/><path class="a" d="m14.545 35.534s-1.0743 1.7142 0.1137 2.1464 7.047 0.2064 7.355 0.1023 5.4913-2.5373 5.6025-2.73 2.2923-3.2511 2.2923-3.2511"/><path class="a" d="m28.788 33.651a19.132 19.132 0 0 0 5.0577-4.279"/><path class="a" d="m21.306 37.893a8.7909 8.7909 0 0 0-1.0514 1.4129 4.3142 4.3142 0 0 0 0.7787 4.1944"/><path class="a" d="m33.796 26.824s1.5121 9.1693-2.9151 12.853"/><path class="a" d="m28.516 33.95c0.4108-0.0333 3.0512 3.4963 2.3649 5.727"/><path class="a" d="m22.83 37.428a11.82 11.82 0 0 0 0.077 3.1913 3.3159 3.3159 0 0 0 1.403 1.1978"/><path class="a" d="m24.788 36.888a3.0707 3.0707 0 0 0 2.31 1.391 3.7539 3.7539 0 0 0 2.7986-2.1316"/><path class="a" d="m25.822 38.183s-1.3037 3.8877-1.5479 5.0483"/><path class="a" d="m29.23 37.273a35.115 35.115 0 0 0-0.5079 5.2719"/><path class="a" d="m14.065 11.571s0.9406 0.8713 2.875-0.0808a6.6677 6.6677 0 0 1 4.5761-0.6125"/><path class="a" d="m22.135 12.875a4.682 4.682 0 0 0-4.0189 0.3417c-2.4278 1.3023-5.2864 0.6766-6.1012-0.6841"/><path class="a" d="m17.808 21.428a0.57 0.57 0 0 1 0.8441 0.2793c0.3433 0.6159 0.9947 2.031 0.4774 2.4209"/><path class="a" d="m15.608 22.646s-0.3687-0.2554-0.71 0.2338a1.22 1.22 0 0 0-0.0479 1.4352"/><circle class="a" cx="26.267" cy="19.873" r="5.0888"/><path class="a" d="m34.356 26.105s4.5804 2.358 3.2872 8.3237"/><path class="a" d="m12.188 8.4349a2.806 2.806 0 0 1-1.1935-3.7049"/><path class="a" d="m9.3523 10.073s-0.36-1.946-2.268-0.4271-2.1525-1.2247-1.63-1.5252"/><path class="a" d="m7.84 11.695a2.459 2.459 0 0 0-2.7821 1.1158"/><path class="a" d="m30.268 7.3108c0.2113-0.1969 0.8762-2.5676 2.5488-2.8108"/><path class="a" d="m36.174 15.492a2.16 2.16 0 0 1 2.1733-0.9718"/><circle class="a" cx="26.802" cy="19.573" r="1"/><circle class="a" cx="9.1529" cy="20.905" r=".9552"/><path class="a" d="m7.3717 24.625a4.0227 4.0227 0 0 1-1.5985-3.3606 4.273 4.273 0 0 1 4.0056-4.3274"/><path class="a" d="m13.89 31.814a0.9491 0.9491 0 0 0-0.1789-1.4582"/><path class="a" d="m29.714 30.056a8.2744 8.2744 0 0 0 1.584-2.0411c0.217-0.7034-0.3332-1.2169-0.1124-1.83a5.3534 5.3534 0 0 1 1.4185-1.5137"/></g><path class="st0" d="m37.761 38.1c0-1.5 1.2-2.7 2.6-2.7s2.7 1.2 2.7 2.7c0 0.7-0.3 1.4-0.8 1.9-1.1 0.9-4.5 3.5-4.5 3.5h5.3" enable-background="new 0 0 380 200" fill="none" stroke="#fff" stroke-linecap="round" stroke-linejoin="round" stroke-miterlimit="10"/></svg>
