<?xml version="1.0" encoding="UTF-8" standalone="no"?>
<svg
   width="48"
   height="48"
   version="1.1"
   viewBox="0 0 48 48"
   id="svg909"
   sodipodi:docname="plants_vs_zombies.svg"
   inkscape:version="1.1.1 (3bf5ae0d25, 2021-09-20)"
   xmlns:inkscape="http://www.inkscape.org/namespaces/inkscape"
   xmlns:sodipodi="http://sodipodi.sourceforge.net/DTD/sodipodi-0.dtd"
   xmlns="http://www.w3.org/2000/svg"
   xmlns:svg="http://www.w3.org/2000/svg">
  <sodipodi:namedview
     id="namedview911"
     pagecolor="#505050"
     bordercolor="#eeeeee"
     borderopacity="1"
     inkscape:pageshadow="0"
     inkscape:pageopacity="0"
     inkscape:pagecheckerboard="0"
     showgrid="false"
     inkscape:zoom="8.6979167"
     inkscape:cx="6.1508982"
     inkscape:cy="25.695808"
     inkscape:window-width="1914"
     inkscape:window-height="1055"
     inkscape:window-x="0"
     inkscape:window-y="19"
     inkscape:window-maximized="1"
     inkscape:current-layer="svg909" />
  <defs
     id="defs823">
    <style
       id="style821">.a{fill:none;stroke:#fff;stroke-linecap:round;stroke-linejoin:round;}</style>
  </defs>
  <g
     id="g1114"
     transform="matrix(1.1804142,0,0,1.1804142,-6.5475259,-7.9343946)"
     style="stroke-width:0.84716;stroke-miterlimit:4;stroke-dasharray:none">
    <g
       fill="none"
       stroke="#ffffff"
       stroke-linecap="round"
       id="g889"
       style="stroke-width:0.84716;stroke-miterlimit:4;stroke-dasharray:none">
      <g
         stroke-linejoin="round"
         id="g875"
         style="stroke-width:0.84716;stroke-miterlimit:4;stroke-dasharray:none">
        <path
           d="M 43.572,32.521 C 43.31924,31.066 39.1469,27.3047 37.1667,26.8786"
           id="path825"
           style="stroke-width:0.84716;stroke-miterlimit:4;stroke-dasharray:none" />
        <path
           d="m 34.238,30.465 c 0,0 2.4938,-3.3446 3.4529,-4.2098 0.95916,-0.86514 1.8266,-4.7255 0.50879,-7.585 -1.31781,-2.8595 -2.336,-6.059 -5.0076,-8.0774 -2.6716,-2.0183 -12.089,-2.1867 -17.004,0.30529 -4.9145,2.492 -7.4627,8.3348 -7.1956,9.0892 0.2671,0.75445 1.4492,1.0383 1.4492,1.0383"
           id="path827"
           style="stroke-width:0.84716;stroke-miterlimit:4;stroke-dasharray:none" />
        <path
           d="m 10.441,21.026 c 0,0 0.48838,-1.1778 2.743,-0.44536 2.2546,0.7324 4.0336,5.0339 1.9329,6.8734 -2.1007,1.8394 -3.4656,1.1052 -4.4482,0.35075 -0.98259,-0.75448 -0.5852,1.3917 0.99002,3.4093"
           id="path829"
           style="stroke-width:0.84716;stroke-miterlimit:4;stroke-dasharray:none" />
        <path
           d="m 11.659,31.214 c 0,0 1.3606,0.46385 1.5754,-0.67534"
           id="path831"
           style="stroke-width:0.84716;stroke-miterlimit:4;stroke-dasharray:none" />
        <path
           d="m 16.207,36.175 c 0,0 9.258,0.28332 10.001,0.07812 0.74282,-0.2052 1.3618,-2.6063 0.05338,-3.8575 -1.3084,-1.2512 -1.9022,-2.297 -5.9744,-2.2575 -4.0722,0.03954 -7.0526,0.40054 -7.0526,0.40054"
           id="path833"
           style="stroke-width:0.84716;stroke-miterlimit:4;stroke-dasharray:none" />
        <path
           d="m 19.844,30.507 c 0,0 -0.1364,1.8283 0.57152,2.1059 0.573,0.10938 1.5764,0.29331 1.8673,-0.50943 -0.2193,-0.87401 -0.36034,-1.6862 -0.36238,-1.6861"
           id="path835"
           style="stroke-width:0.84716;stroke-miterlimit:4;stroke-dasharray:none" />
        <path
           d="m 23.368,30.716 c 0,0 -0.02036,1.0858 0.5032,1.3416 0.52355,0.25582 1.2169,2.53e-4 1.4764,-0.36027"
           id="path837"
           style="stroke-width:0.84716;stroke-miterlimit:4;stroke-dasharray:none" />
        <path
           d="m 15.753,30.532 c 0,0 -1.2412,1.9897 0.21538,2.3427 1.4566,0.35299 3.2559,0.26092 2.8505,-0.73358 -0.40536,-0.99449 -0.51579,-1.7358 -0.39577,-1.7951"
           id="path839"
           style="stroke-width:0.84716;stroke-miterlimit:4;stroke-dasharray:none" />
        <path
           d="m 16.594,36.007 c 0,0 -0.88386,-1.6174 -0.28216,-1.6857 0.6017,-0.0683 1.8868,-0.36647 2.3829,0.51196 0.12567,0.69952 0.01983,0.47181 -0.12248,1.3379"
           id="path841"
           style="stroke-width:0.84716;stroke-miterlimit:4;stroke-dasharray:none" />
        <path
           d="m 23.151,36.292 c -0.28555,-0.51068 -0.62954,-1.5539 -0.56444,-2.2895 0.06514,-0.7356 1.1905,-0.52657 1.7596,-0.52657 0.5691,0 1.283,0.09576 1.1551,1.0123 -0.1279,0.91652 -0.36989,1.8122 -0.89152,1.8022"
           id="path843"
           style="stroke-width:0.84716;stroke-miterlimit:4;stroke-dasharray:none" />
        <path
           d="m 15.768,35.16 c 0,0 -1.6532,1.0943 -0.99621,1.9055 0.65697,0.81115 1.7063,0.66061 2.5715,0.63309"
           id="path845"
           style="stroke-width:0.84716;stroke-miterlimit:4;stroke-dasharray:none" />
        <path
           d="m 17.047,37.827 c 0,0 -1.0034,1.6011 0.10626,2.0048 1.1096,0.40371 6.5822,0.19283 6.8699,0.09554 0.28774,-0.09729 5.1291,-2.3699 5.233,-2.5498 0.1039,-0.17986 2.1411,-3.0367 2.1411,-3.0367"
           id="path847"
           style="stroke-width:0.84716;stroke-miterlimit:4;stroke-dasharray:none" />
        <path
           d="m 30.351,36.068 c 0.49438,-0.19507 3.3829,-2.1821 4.7241,-3.9968"
           id="path849"
           style="stroke-width:0.84716;stroke-miterlimit:4;stroke-dasharray:none" />
        <path
           d="m 23.362,40.03 c 0,0 -0.66594,0.72738 -0.98198,1.3197 -0.29456,0.55206 -0.49018,2.6994 0.72726,3.9178"
           id="path851"
           style="stroke-width:0.84716;stroke-miterlimit:4;stroke-dasharray:none" />
        <path
           d="m 35.029,29.691 c 0,0 1.4123,8.5646 -2.7229,12.005"
           id="path853"
           style="stroke-width:0.84716;stroke-miterlimit:4;stroke-dasharray:none" />
        <path
           d="m 30.097,36.347 c 0.38374,-0.03118 2.85,3.2657 2.2089,5.3493"
           id="path855"
           style="stroke-width:0.84716;stroke-miterlimit:4;stroke-dasharray:none" />
        <path
           d="m 24.786,39.596 c 0,0 -0.2061,2.3458 0.07194,2.9808 0.27804,0.63495 1.3102,1.1188 1.3102,1.1188"
           id="path857"
           style="stroke-width:0.84716;stroke-miterlimit:4;stroke-dasharray:none" />
        <path
           d="m 26.615,39.092 c 0,0 0.86284,1.3349 2.1571,1.2993 1.2943,-0.03553 2.6221,-1.6242 2.6141,-1.991"
           id="path859"
           style="stroke-width:0.84716;stroke-miterlimit:4;stroke-dasharray:none" />
        <path
           d="m 27.58,40.301 c 0,0 -1.2177,3.6313 -1.4458,4.7153"
           id="path861"
           style="stroke-width:0.84716;stroke-miterlimit:4;stroke-dasharray:none" />
        <path
           d="m 30.764,39.451 c 0,0 -0.64966,4.1772 -0.47439,4.9242"
           id="path863"
           style="stroke-width:0.84716;stroke-miterlimit:4;stroke-dasharray:none" />
        <path
           d="m 16.599,15.444 c 0,0 0.87858,0.81386 2.6854,-0.07547 1.8068,-0.88933 3.1897,-0.79314 4.2743,-0.57209"
           id="path865"
           style="stroke-width:0.84716;stroke-miterlimit:4;stroke-dasharray:none" />
        <path
           d="m 24.137,16.662 c -0.43104,0 -1.6164,-0.8275 -3.7538,0.3191 -2.2677,1.2165 -4.9378,0.63203 -5.6988,-0.63896"
           id="path867"
           style="stroke-width:0.84716;stroke-miterlimit:4;stroke-dasharray:none" />
        <path
           d="m 20.095,24.651 c 0,0 0.46777,-0.31449 0.78843,0.26085 0.32066,0.57533 0.92909,1.8971 0.44596,2.2613"
           id="path869"
           style="stroke-width:0.84716;stroke-miterlimit:4;stroke-dasharray:none" />
        <path
           d="m 18.04,25.789 c 0,0 -0.34438,-0.23848 -0.66321,0.21839 -0.31884,0.45687 -0.30488,1.1257 -0.04476,1.3406"
           id="path871"
           style="stroke-width:0.84716;stroke-miterlimit:4;stroke-dasharray:none" />
        <circle
           cx="27.996"
           cy="23.198999"
           r="4.7532001"
           stop-color="#000000"
           style="stroke-width:0.84716;stroke-miterlimit:4;stroke-dasharray:none;paint-order:markers fill stroke"
           id="circle873" />
      </g>
      <path
         d="m 35.552,29.02 c 0,0 4.0183,5.2767 2.8104,10.849"
         id="path877"
         style="stroke-width:0.84716;stroke-miterlimit:4;stroke-dasharray:none" />
      <path
         d="m 14.846,12.515 c 0,0 -2.09,-1.0571 -1.1147,-3.4603"
         id="path879"
         style="stroke-width:0.84716;stroke-miterlimit:4;stroke-dasharray:none" />
      <path
         d="m 12.197,14.045 c 0,0 -0.33595,-1.8177 -2.1184,-0.39898 -1.7824,1.4188 -2.0106,-1.1439 -1.523,-1.4246"
         id="path881"
         style="stroke-width:0.84716;stroke-miterlimit:4;stroke-dasharray:none" />
      <path
         d="M 10.784,15.56 C 10.6439,15.546665 9.3503,15.04769 8.1853,16.6022"
         id="path883"
         style="stroke-width:0.84716;stroke-miterlimit:4;stroke-dasharray:none" />
      <path
         d="m 31.733,11.465 c 0.19731,-0.18386 0.8184,-2.3982 2.3807,-2.6254"
         id="path885"
         style="stroke-width:0.84716;stroke-miterlimit:4;stroke-dasharray:none" />
      <path
         d="m 37.25,19.107 c 0,0 0.59934,-1.0865 2.03,-0.90769"
         id="path887"
         style="stroke-width:0.84716;stroke-miterlimit:4;stroke-dasharray:none" />
    </g>
    <g
       stroke="#ffffff"
       stroke-linecap="round"
       id="g903"
       style="stroke-width:0.84716;stroke-miterlimit:4;stroke-dasharray:none">
      <circle
         cx="28.606001"
         cy="23.028999"
         r="0.32214999"
         fill="#ffffff"
         stop-color="#000000"
         stroke-linejoin="round"
         stroke-width="0.8557"
         style="stroke-width:0.84716;stroke-miterlimit:4;stroke-dasharray:none;paint-order:markers fill stroke"
         id="circle891" />
      <circle
         cx="11.866"
         cy="23.662001"
         r="0.1671"
         fill="#ffffff"
         stop-color="#000000"
         stroke-linejoin="round"
         stroke-width="0.66579"
         style="stroke-width:0.84716;stroke-miterlimit:4;stroke-dasharray:none;paint-order:markers fill stroke"
         id="circle893" />
      <g
         fill="none"
         id="g901"
         style="stroke-width:0.84716;stroke-miterlimit:4;stroke-dasharray:none">
        <path
           d="M 10.347,27.637 C 9.36368,27.0199 8.8539,25.6919 8.8539,24.498 c 0,-2.0797 1.6618,-4.042 3.7415,-4.042"
           stop-color="#000000"
           stroke-linejoin="round"
           style="stroke-width:0.84716;stroke-miterlimit:4;stroke-dasharray:none;paint-order:markers fill stroke"
           id="path895" />
        <path
           d="m 16.435,34.352 c 0,0 0.67816,-0.78604 -0.16709,-1.362"
           id="path897"
           style="stroke-width:0.84716;stroke-miterlimit:4;stroke-dasharray:none" />
        <path
           d="m 31.216,32.71 c 0,0 1.2768,-1.2495 1.4795,-1.9065 0.2027,-0.657 -0.31118,-1.1367 -0.10499,-1.709 0.20619,-0.5723 1.325,-1.4138 1.325,-1.4138"
           stroke-linejoin="round"
           id="path899"
           style="stroke-width:0.84716;stroke-miterlimit:4;stroke-dasharray:none" />
      </g>
    </g>
    <path
       d="M 14.036,31.431"
       fill="none"
       stroke="#000000"
       id="path907"
       style="stroke-width:0.84716;stroke-miterlimit:4;stroke-dasharray:none" />
  </g>
</svg>
