<?xml version="1.0" encoding="UTF-8"?>
<svg width="48" height="48" version="1.1" viewBox="0 0 48 48" xml:space="preserve" xmlns="http://www.w3.org/2000/svg"><defs><style>.a{fill:none;stroke:#fff;stroke-linecap:round;stroke-linejoin:round;}</style>
		
	
		
		
	
		
		
	</defs><path d="m7.5 5c-1.3747881 1e-7 -2.5 1.1252119-2.5 2.5v33c0 1.374788 1.1252119 2.5 2.5 2.5h33c1.374788 0 2.5-1.125212 2.5-2.5v-33c0-1.3747882-1.125212-2.5-2.5-2.5zm0 1h33c0.834349 0 1.5 0.6656514 1.5 1.5v33c0 0.834349-0.665651 1.5-1.5 1.5h-33c-0.8343486 0-1.5-0.665651-1.5-1.5v-33c0-0.8343486 0.6656514-1.5 1.5-1.5z" color="#000000" fill="#fff" stroke-linecap="round" stroke-linejoin="round"/><g fill="none" stroke="#fff" stroke-linecap="round" stroke-linejoin="round"><g stroke-miterlimit="10"><path class="st5" d="m15.787262 19.893298v8.213123h2.264737"/><path class="st5" d="m8.4244351 28.106421v-8.213123h2.6692639c1.539961 0 2.77193 1.231969 2.77193 2.771929s-1.231969 2.771929-2.77193 2.771929h-2.6692639"/><path class="st5" d="m19.800347 28.10642 2.771928-8.213122 2.771929 8.213122"/><path class="st5" d="m30.401004 19.893294-2.669265 4.106561-2.669264-4.106561"/><path class="st5" d="m27.731743 28.106419v-4.106562"/></g><path d="M 39.646835,24 A 4.1753273,4.1753273 0 0 1 35.471508,28.175327 4.1753273,4.1753273 0 0 1 31.296181,24 4.1753273,4.1753273 0 0 1 35.471508,19.824673 4.1753273,4.1753273 0 0 1 39.646835,24 Z" stop-color="#000000"/><path d="m34.016648 20.159225c0.515874 2.546201-1.062125 4.389375-2.414407 5.055456" stop-color="#000000"/><path d="m36.957031 27.87389c-0.51587-2.546204 1.062119-4.389377 2.414398-5.055461" stop-color="#000000"/></g></svg>
