<?xml version="1.0" encoding="UTF-8" standalone="no"?>
<!DOCTYPE svg PUBLIC "-//W3C//DTD SVG 1.1//EN" "http://www.w3.org/Graphics/SVG/1.1/DTD/svg11.dtd">
<svg width="48px" height="48px" version="1.1" xmlns="http://www.w3.org/2000/svg" xmlns:xlink="http://www.w3.org/1999/xlink" xml:space="preserve" xmlns:serif="http://www.serif.com/" style="clip-rule:evenodd;stroke-linecap:round;stroke-linejoin:round;stroke-miterlimit:1.5;">
    <rect id="plurk" x="0" y="0" width="48" height="48" style="fill:none;"/>
    <path d="M4.599,16.282C4.641,16.282 4.352,15.535 4.352,15.092C4.352,13.934 5.293,12.994 6.451,12.994C7.609,12.994 8.55,13.934 8.55,15.092C8.55,15.454 8.458,15.794 8.297,16.091L11.233,18.298C11.664,18.606 11.915,19.255 11.828,19.966C11.713,20.9 11.056,21.59 10.362,21.504C10.193,21.484 10.037,21.419 9.899,21.319L6.636,18.887C6.409,19.801 5.582,20.479 4.599,20.479C3.44,20.479 2.5,19.539 2.5,18.38C2.5,17.222 3.44,16.282 4.599,16.282Z" style="fill:none;fill-rule:nonzero;stroke:white;stroke-width:1px;"/>
    <path d="M9.846,31.797C8.696,29.441 8.051,26.795 8.051,24C8.051,23.741 8.056,23.482 8.067,23.226C8.561,24.62 9.468,25.587 10.599,25.726C12.574,25.968 14.492,23.601 14.88,20.443C15.267,17.284 13.979,14.523 12.005,14.281C11.61,14.233 11.218,14.288 10.839,14.434C14.002,9.48 19.549,6.192 25.858,6.192C33.423,6.192 39.892,10.92 42.471,17.579C43.484,17.556 45.184,16.328 45.394,16.655C45.658,17.065 45.577,19.353 43.373,20.77C43.565,21.818 43.666,22.897 43.666,24C43.666,27.284 42.775,30.361 41.223,33.002C41.227,33.007 42.618,34.394 42.618,34.394C43.01,34.785 43.01,35.42 42.62,35.811L38.992,39.448C38.602,39.839 37.967,39.84 37.575,39.449L36.442,38.319C33.481,40.511 29.82,41.808 25.858,41.808C21.395,41.808 17.313,40.162 14.188,37.446L12.767,38.639C12.343,38.994 11.71,38.939 11.355,38.515L8.053,34.58C7.698,34.157 7.753,33.524 8.177,33.169C8.177,33.169 9.785,31.829 9.846,31.797Z" style="fill:none;fill-rule:nonzero;stroke:white;stroke-width:1px;"/>
</svg>
