<svg xmlns="http://www.w3.org/2000/svg" xml:space="preserve" width="48" height="48"><path d="M23.915 42.733 7.758 33.48l.05-18.916 16.107-9.297 16.276 9.347.05 18.967z" style="display:inline;fill:none;stroke:#fff;stroke-width:1;stroke-linecap:round;stroke-linejoin:round;stroke-dasharray:none;stroke-opacity:1"/><path d="m14.334 37.246.01-8.379 19.062-.009v8.554" style="display:inline;fill:none;stroke:#fff;stroke-width:1;stroke-linecap:round;stroke-linejoin:round;stroke-dasharray:none;stroke-opacity:1"/><path d="M23.419 28.863V13.238h14.376M7.795 19.855h15.624" style="display:inline;fill:none;stroke:#fff;stroke-width:1;stroke-linecap:round;stroke-linejoin:round;stroke-dasharray:none;stroke-opacity:1"/><path d="M28.153 21.716h3v3h-3zM33.267 21.716h3v3h-3zM33.267 16.912h3v3h-3zM28.153 16.912h3v3h-3zM24.928 32.887h3v3h-3zM19.814 32.887h3v3h-3zM16.597 22.827h3v3h-3zM11.483 22.827h3v3h-3z" style="display:inline;fill:none;fill-opacity:.621878;stroke:#fff;stroke-width:1;stroke-linecap:round;stroke-linejoin:round;stroke-dasharray:none;stroke-opacity:1"/></svg>