<svg id="Layer_2" data-name="Layer 2" xmlns="http://www.w3.org/2000/svg" viewBox="0 0 48 48"><defs><style>.cls-1{fill:none;stroke:#000;stroke-linecap:round;stroke-linejoin:round;}</style></defs><path class="cls-1" d="M35.88,24H32a.4.4,0,0,1-.4-.38,7.63,7.63,0,1,0-8,8A.4.4,0,0,1,24,32v3.85a.41.41,0,0,1-.41.41h0A12.29,12.29,0,1,1,36.3,23.57a.41.41,0,0,1-.39.43Zm8.8,0H40.44a.8.8,0,0,1-.8-.77,15.64,15.64,0,1,0-16.4,16.41.8.8,0,0,1,.77.8v4.27a.82.82,0,0,1-.82.8h0A21.51,21.51,0,1,1,45.51,23.17a.81.81,0,0,1-.79.83h0Z"/></svg>