<svg xmlns="http://www.w3.org/2000/svg" fill="none" stroke="#fff" stroke-linecap="round" stroke-linejoin="round" viewBox="0 0 48 48"><defs/><path d="M8.42 15.67L10 37.43l13.85 6.12 13.88-6.12 1.82-21.76H8.43m2.21 1.81h2m4.54 0h15.88"/><path d="M35.33 17.48h2l-.19 1.99m-.46 4.84l-.69 7.26m-.23 2.42l-.19 1.99-1.81.84m-2.65 1.22l-3.97 1.82m-1.32.61l-1.82.84-1.82-.83m-2.66-1.23l-4-1.83m-1.34-.61l-1.81-.83-.19-1.99m-.45-4.84l-.68-7.26m-.22-2.42l-.19-1.99m4.73-1.95l2.52-11.55 19.83 4.33-1.6 7.34"/><path d="M18.21 15.2l1.46-6.66L34.2 11.7l-.74 3.4"/></svg>