<svg xmlns="http://www.w3.org/2000/svg" viewBox="0 0 48 48"><defs><style>.a{fill:none;stroke:#fff;stroke-linecap:round;stroke-linejoin:round;}</style></defs><path class="a" d="M40.5,5.5H7.5a2,2,0,0,0-2,2v33a2,2,0,0,0,2,2h33a2,2,0,0,0,2-2V7.5A2,2,0,0,0,40.5,5.5Z"/><path class="a" d="M10.3727,32.5l3.028-17h5.5655a4.6452,4.6452,0,0,1,4.68,5.7093,7.1154,7.1154,0,0,1-6.714,5.7093H11.3669"/><path class="a" d="M24.6736,30.6373C25.4743,31.9945,26.6915,32.5,28.51,32.5h2.5168a5.2968,5.2968,0,0,0,4.9979-4.25h0A3.4579,3.4579,0,0,0,32.5409,24H29.76a3.4579,3.4579,0,0,1-3.4839-4.25h0a5.2968,5.2968,0,0,1,4.9979-4.25h2.5168c1.8186,0,3.0357.5055,3.8364,1.8627"/></svg>