<svg xmlns="http://www.w3.org/2000/svg" viewBox="0 0 48 48"><defs><style>.a,.b{fill:none;stroke:#fff;}.a{stroke-linejoin:round;}.b{stroke-miterlimit:10;}</style></defs><path class="a" d="M19.205,45.035C-2.857,34.876,2.955,12.425,4.461,7.71A1.9949,1.9949,0,0,1,5.635,6.466c4.991-1.997,11.302-3.682,13.829-3.682,2.047,0,10.003,1.689,14.999,3.688a1.98,1.98,0,0,1,1.16,1.242c1.508,4.721,7.312,27.165-14.745,37.321A2.0184,2.0184,0,0,1,19.205,45.035Z"/><line class="b" x1="23.11" y1="18.494" x2="29.255" y2="18.494"/><circle class="b" cx="31.432" cy="18.494" r="1.766"/><line class="b" x1="22.605" y1="26.737" x2="27.787" y2="26.737"/><circle class="b" cx="29.98" cy="26.737" r="1.766"/><line class="b" x1="21.975" y1="22.756" x2="41.516" y2="22.756"/><circle class="b" cx="43.591" cy="22.756" r="1.766"/><path class="b" d="M21.633,22.911l1.028,6.56a.6585.6585,0,0,1-.651.761H18.004a.6593.6593,0,0,1-.651-.762l1.041-6.595a.6877.6877,0,0,0-.272-.639,3.0722,3.0722,0,1,1,3.794.028A.6885.6885,0,0,0,21.633,22.911Z"/></svg>