<svg xmlns="http://www.w3.org/2000/svg" xml:space="preserve" id="svg990" width="48" height="48" version="1.1"><defs id="defs987"><style id="style1174">.a{fill:none;stroke:#fff;stroke-linecap:round;stroke-linejoin:round}</style></defs><path id="path708" d="M40.5 5.5h-33a2 2 45.652 0 0-2 2v33a2 2 45.652 0 0 2 2h33a2 2 45.652 0 0 2-2v-33a2 2 45.652 0 0-2-2Z" style="fill:none;stroke:#fff;stroke-linecap:round;stroke-linejoin:round;stop-color:#000"/><path id="path704" d="M27.956 24h4.907" style="fill:none;stroke:#fff;stroke-linecap:round;stroke-linejoin:round;stop-color:#000"/><path id="path702" d="m13.69 31.55 3.209-15.1h4.907c2.831 0 4.615 2.265 4.013 5.096-.601 2.831-3.347 5.096-6.178 5.096h-4.908" style="fill:none;stroke:#fff;stroke-linecap:round;stroke-linejoin:round;stop-color:#000"/><path id="path700" d="m26.352 31.55 3.208-15.1h7.55" style="fill:none;stroke:#fff;stroke-linecap:round;stroke-linejoin:round;stop-color:#000"/></svg>