<?xml version="1.0" encoding="UTF-8"?>
<svg id="b" version="1.1" viewBox="0 0 48 48" xml:space="preserve" xmlns="http://www.w3.org/2000/svg"><defs><style>.c{fill:none;stroke:#fff;stroke-linecap:round;stroke-linejoin:round;}</style><style>.a{fill:none;stroke:#fff;stroke-linecap:round;stroke-linejoin:round;}</style></defs><path class="a" d="m40.5 5.5h-33a2 2 0 0 0-2 2v33a2 2 0 0 0 2 2h33a2 2 0 0 0 2-2v-33a2 2 0 0 0-2-2z"/><g transform="matrix(.84002 0 0 .84002 -162.95 -13.549)" stroke-width="1.1904">
		<path class="st5" d="m203.4 48.7v-8h2.6c1.5 0 2.7 1.2 2.7 2.7s-1.2 2.7-2.7 2.7h-2.6" fill="none" stroke="#fff" stroke-linecap="round" stroke-linejoin="round" stroke-miterlimit="10" stroke-width="1.1904"/>
	</g><g transform="matrix(.84002 0 0 .84002 -173.97 -13.549)" stroke-width="1.1904">
		<g stroke-width="1.1904">
			<path class="st5" d="m223.4 48.7v-8h2.6c1.5 0 2.7 1.2 2.7 2.7s-1.2 2.7-2.7 2.7h-2.6" fill="none" stroke="#fff" stroke-linecap="round" stroke-linejoin="round" stroke-miterlimit="10"/>
		
		
			
				<line class="st5" x1="226" x2="228.6" y1="46" y2="48.6" fill="none" stroke="#fff" stroke-linecap="round" stroke-linejoin="round" stroke-miterlimit="10" stroke-width="1.1904"/>
			
		</g>
	</g><g transform="matrix(.84002 0 0 .84002 -174.52 -13.549)" fill="none" stroke="#fff" stroke-linecap="round" stroke-linejoin="round" stroke-miterlimit="10" stroke-width="1.1904">
		<line class="st5" x1="243.4" x2="248.6" y1="40.7" y2="40.7"/>
		<line class="st5" x1="246" x2="246" y1="48.7" y2="40.7"/>
	</g><g transform="matrix(.84002 0 0 .84002 -171.9 -13.549)" stroke-width="1.1904">
		<path class="st5" d="m233.5 47.8c0.5 0.6 1.1 0.9 2 0.9h1.2c1.1 0 2-0.9 2-2v0c0-1.1-0.9-2-2-2h-1.3c-1.1 0-2-0.9-2-2v0c0-1.1 0.9-2 2-2h1.2c0.9 0 1.5 0.2 2 0.9" fill="none" stroke="#fff" stroke-linecap="round" stroke-linejoin="round" stroke-miterlimit="10" stroke-width="1.1904"/>
	</g><g transform="matrix(.84002 0 0 .84002 -59.49 -13.549)" fill="none" stroke="#fff" stroke-linecap="round" stroke-linejoin="round" stroke-miterlimit="10" stroke-width="1.1904">
		<line class="st5" x1="94" x2="96.6" y1="44.7" y2="44.7"/>
		<polyline class="st5" points="98 48.7 94 48.7 94 40.7 98 40.7"/>
	</g><path class="st5" d="m37.818 27.36v0c-1.26 0-2.1841-1.008-2.1841-2.1841v-2.2681c0-1.26 1.008-2.2681 2.1841-2.2681v0c1.26 0 2.2681 1.008 2.2681 2.2681v2.1841c0 1.26-1.008 2.2681-2.2681 2.2681z" fill="none" stroke="#fff" stroke-linecap="round" stroke-linejoin="round" stroke-miterlimit="10"/></svg>
