<?xml version="1.0" encoding="UTF-8" standalone="no"?>
<svg
   viewBox="0 0 48 48"
   version="1.1"
   xmlns:xlink="http://www.w3.org/1999/xlink"
   xmlns="http://www.w3.org/2000/svg"
   xmlns:svg="http://www.w3.org/2000/svg">
  <defs>
    <style>.a{fill:none;stroke:#fff;stroke-linecap:round;stroke-linejoin:round;}</style>
  </defs>
  <circle
     class="a"
     cx="29.5"
     cy="29.5"
     id="circle6"
     r="14" />
  <path
     class="a"
     d="m 25.175,34.849996 c 0.874999,1.05 1.924999,1.575 3.499998,1.575 h 2.1 c 1.924999,0 3.499998,-1.575 3.499998,-3.499999 0,-1.924999 -1.574999,-3.499999 -3.499998,-3.499999 h -2.275 C 26.574999,29.424998 25,27.849999 25,25.924999 25,24 26.574999,22.425001 28.499998,22.425001 h 2.1 c 1.574999,0 2.624999,0.35 3.499998,1.574999 M 29.550002,20.5 V 38" />
  <path
     class="a"
     d="M 16.089164,24.729328 C 15.17078,23.869368 14.599998,22.643532 14.599998,21.275 v -4.55 c 0,-2.625 2.1,-4.725 4.725,-4.725 1.4,0 2.8,0.7 3.675,1.75 M 12.5,17.074998 h 5.949995 M 12.5,20.575005 h 5.949995" />
  <path
     class="a"
     d="M 15.589237,32.194078 A 14,14 0 0 1 4.5341033,17.523421 14,14 0 0 1 17.523409,4.5341148 14,14 0 0 1 32.194066,15.589248" />
</svg>
