<?xml version="1.0" encoding="UTF-8" standalone="no"?>
<!-- Created with Inkscape (http://www.inkscape.org/) -->

<svg
   xmlns:dc="http://purl.org/dc/elements/1.1/"
   xmlns:cc="http://creativecommons.org/ns#"
   xmlns:rdf="http://www.w3.org/1999/02/22-rdf-syntax-ns#"
   xmlns:svg="http://www.w3.org/2000/svg"
   xmlns="http://www.w3.org/2000/svg"
   xmlns:sodipodi="http://sodipodi.sourceforge.net/DTD/sodipodi-0.dtd"
   xmlns:inkscape="http://www.inkscape.org/namespaces/inkscape"
   width="48"
   height="48"
   version="1.1"
   viewBox="0 0 48 48"
   id="svg14"
   sodipodi:docname="pricespy.svg"
   inkscape:version="0.92.5 (2060ec1f9f, 2020-04-08)">
  <defs
     id="defs18" />
  <sodipodi:namedview
     pagecolor="#ffffff"
     bordercolor="#666666"
     borderopacity="1"
     objecttolerance="10"
     gridtolerance="10"
     guidetolerance="10"
     inkscape:pageopacity="0"
     inkscape:pageshadow="2"
     inkscape:window-width="770"
     inkscape:window-height="480"
     id="namedview16"
     showgrid="false"
     inkscape:zoom="4.9166667"
     inkscape:cx="2.6440678"
     inkscape:cy="24"
     inkscape:window-x="68"
     inkscape:window-y="684"
     inkscape:window-maximized="0"
     inkscape:current-layer="svg14" />
  <metadata
     id="metadata2">
    <rdf:RDF>
      <cc:Work
         rdf:about="">
        <dc:format>image/svg+xml</dc:format>
        <dc:type
           rdf:resource="http://purl.org/dc/dcmitype/StillImage" />
        <dc:title />
      </cc:Work>
    </rdf:RDF>
  </metadata>
  <g
     fill="none"
     stroke="#fff"
     id="g12"
     style="stroke-linejoin:round;stroke-linecap:round">
    <circle
       cx="24"
       cy="24"
       r="19.944"
       id="circle4"
       style="stroke-linejoin:round;stroke-linecap:round" />
    <circle
       cx="24"
       cy="24"
       r="10.565"
       id="circle6"
       style="stroke-linejoin:round;stroke-linecap:round" />
    <circle
       cx="24"
       cy="24"
       r="5.0254"
       id="circle8"
       style="stroke-linejoin:round;stroke-linecap:round" />
    <path
       d="m11.665 32.716c-1.7432-2.4624-2.7675-5.4696-2.7675-8.7161 0-3.2616 1.0339-6.2816 2.7919-8.7504l-1.9164-1.9899c1.0101-1.3359 2.2041-2.5251 3.5442-3.5299l1.9789 1.9266c2.4601-1.7378 5.4626-2.7587 8.7036-2.7587 3.2326 0 6.228 1.0156 8.6845 2.7452l2.0171-1.8989c1.3289 0.99916 2.5136 2.1798 3.5172 3.5051l-1.922 1.9814c1.7662 2.4722 2.8054 5.4994 2.8054 8.7694 0 3.2352-1.0173 6.2328-2.7494 8.6904l1.904 2.0099c-1.0088 1.3419-2.2026 2.5368-3.5435 3.5467l-1.946-1.9487c-2.4718 1.7653-5.4983 2.8039-8.7673 2.8039-3.2604 0-6.2795-1.0332-8.7477-2.79l-2.0071 1.9034c-1.3126-0.99461-2.4832-2.1668-3.476-3.4809z"
       stroke-linecap="round"
       stroke-linejoin="round"
       id="path10"
       style="stroke-linejoin:round;stroke-linecap:round" />
  </g>
</svg>
