<svg xmlns="http://www.w3.org/2000/svg" viewBox="0 0 48 48"><defs><style>.a{fill:none;stroke:#fff;stroke-linecap:round;stroke-linejoin:round}</style></defs><path class="a" d="M44.84 18.717A21.5 21.5 0 0 1 45.5 24h0A21.5 21.5 0 0 1 24 45.5a21.5 21.5 0 0 1-5.258-.653"/><path class="a" d="M3.153 29.258A21.5 21.5 0 0 1 2.5 24 21.5 21.5 0 0 1 24 2.5a21.5 21.5 0 0 1 5.283.66"/><path class="a" d="m28.27 21.139 5.86-5.862-1.407-1.408-5.862 5.862z"/><path class="a" d="m35.276 14.513 5.362.193 3.501-3.742-1.043-6.06-6.06-1.043-3.742 3.5.193 5.363z"/><path class="a" d="m12.917 35.805 2.435-.656-2.5-2.501-.657 2.435z"/><path class="a" d="M16.474 34.337 27.1 23.71l.207-1.667-1.35-1.35-1.667.207-10.627 10.626z"/><path class="a" d="m11.636 36.364-5.688 5.688"/></svg>