<?xml version="1.0" encoding="UTF-8"?>
<svg version="1.1" viewBox="0 0 48 48" xml:space="preserve" xmlns="http://www.w3.org/2000/svg"><defs><style>.c{fill:none;stroke:#fff;stroke-linecap:round;stroke-linejoin:round;}</style><style>.c{fill:none;stroke:#fff;stroke-linecap:round;stroke-linejoin:round;}</style><style>.a{fill:none;stroke:#fff;stroke-linecap:round;stroke-linejoin:round;}</style></defs><g id="a"><path class="c" d="m17.857 36.15v-13.64m0-4.999v-5.6614h8.1434c4.9966 0 7.2472 4.0507 7.7544 5.6327m0.01171 5.0281c-0.52508 1.6831-2.8321 5.6613-7.7661 5.6613h-8.1434" stroke="#fff"/></g><g transform="matrix(.63299 0 0 .63299 12.833 4.8192)" stroke="#fff" stroke-width="1.5798"><rect class="c" x=".45268" y="20.051" width="38.03" height="7.8975"/><line class="c" x1="29.504" x2="29.504" y1="20.051" y2="27.949"/></g><path class="a" d="m40.5 5.5h-33a2 2 0 0 0-2 2v33a2 2 0 0 0 2 2h33a2 2 0 0 0 2-2v-33a2 2 0 0 0-2-2z"/></svg>
