<?xml version="1.0" encoding="UTF-8" standalone="no"?>
<svg
   xmlns:dc="http://purl.org/dc/elements/1.1/"
   xmlns:cc="http://creativecommons.org/ns#"
   xmlns:rdf="http://www.w3.org/1999/02/22-rdf-syntax-ns#"
   xmlns:svg="http://www.w3.org/2000/svg"
   xmlns="http://www.w3.org/2000/svg"
   xmlns:sodipodi="http://sodipodi.sourceforge.net/DTD/sodipodi-0.dtd"
   xmlns:inkscape="http://www.inkscape.org/namespaces/inkscape"
   viewBox="0 0 48 48"
   version="1.1"
   id="svg8"
   sodipodi:docname="projectmmusicvisualizer.svg"
   inkscape:version="1.0.2 (e86c870879, 2021-01-15)">
  <metadata
     id="metadata12">
    <rdf:RDF>
      <cc:Work
         rdf:about="">
        <dc:format>image/svg+xml</dc:format>
        <dc:type
           rdf:resource="http://purl.org/dc/dcmitype/StillImage" />
        <dc:title />
      </cc:Work>
    </rdf:RDF>
  </metadata>
  <sodipodi:namedview
     pagecolor="#ffffff"
     bordercolor="#666666"
     borderopacity="1"
     objecttolerance="10"
     gridtolerance="10"
     guidetolerance="10"
     inkscape:pageopacity="0"
     inkscape:pageshadow="2"
     inkscape:window-width="1920"
     inkscape:window-height="1047"
     id="namedview10"
     showgrid="true"
     inkscape:zoom="11.313708"
     inkscape:cx="24.006607"
     inkscape:cy="31.854066"
     inkscape:window-x="960"
     inkscape:window-y="0"
     inkscape:window-maximized="1"
     inkscape:current-layer="svg8"
     showguides="true"
     inkscape:guide-bbox="true"
     inkscape:snap-midpoints="true"
     inkscape:snap-others="true"
     inkscape:snap-text-baseline="true"
     inkscape:snap-object-midpoints="true"
     inkscape:snap-center="true"
     inkscape:snap-global="true"
     inkscape:document-rotation="0"
     inkscape:snap-smooth-nodes="true">
    <inkscape:grid
       type="xygrid"
       id="grid859"
       empspacing="8" />
  </sodipodi:namedview>
  <defs
     id="defs4">
    <style
       id="style2">.a{fill:none;stroke:#fff;stroke-linecap:round;stroke-linejoin:round;}</style>
    <style
       id="style833">.cls-1{fill:#f60;}</style>
  </defs>
  <path
     id="line515"
     style="fill:none;stroke:#fffffc;stroke-width:1;stroke-miterlimit:7;stroke-dasharray:none;stroke-opacity:1;stroke-linejoin:round;stroke-linecap:round"
     d="m 6.6961678,22.628198 v 5.48721 m 0,-3.223736 c 0,0.754492 0.6173112,1.371803 1.3718027,1.371803 v 0 c 0.7544915,0 1.3718027,-0.617311 1.3718027,-1.371803 V 24 c 0,-0.754491 -0.6173112,-1.371802 -1.3718027,-1.371802 v 0 C 7.313479,22.628198 6.6961678,23.245509 6.6961678,24 m 24.2689152,1.371803 c -0.205771,0.411541 -0.685902,0.685901 -1.166033,0.685901 v 0 c -0.754492,0 -1.371803,-0.61731 -1.371803,-1.371802 V 23.79423 c 0,-0.754492 0.617311,-1.371803 1.371803,-1.371803 v 0 c 0.480131,0 0.960262,0.27436 1.166033,0.685901 m -5.102887,2.263475 c -0.20577,0.411541 -0.685901,0.685901 -1.166032,0.685901 v 0 c -0.754491,0 -1.371802,-0.61731 -1.371802,-1.371802 V 23.79423 c 0,-0.754492 0.617311,-1.371803 1.371802,-1.371803 v 0 c 0.754492,0 1.371803,0.617311 1.371803,1.371803 v 0.480131 h -2.743605 m -2.079476,-3.463802 a 0.54872109,0.54872109 0 0 1 -0.548721,0.548721 0.54872109,0.54872109 0 0 1 -0.548721,-0.548721 0.54872109,0.54872109 0 0 1 0.548721,-0.548721 0.54872109,0.54872109 0 0 1 0.548721,0.548721 z m -0.548721,1.646164 v 4.115408 c 0,0.754491 -0.617311,1.371802 -1.371803,1.371802 v 0 c -0.34295,0 -0.685901,-0.13718 -0.960261,-0.41154 M 32.94169,22.765379 h 1.440393 m -0.685908,-1.166033 v 4.80131 M 11.853616,22.6282 v 3.635277 m 0,-2.263475 c 0,-0.754491 0.617312,-1.371802 1.371803,-1.371802 v 0 m 3.098944,3.635275 v 0 c -0.754492,0 -1.371803,-0.617311 -1.371803,-1.371803 v -0.891671 c 0,-0.754492 0.617311,-1.371804 1.371803,-1.371804 v 0 c 0.754491,0 1.371802,0.617312 1.371802,1.371804 v 0.891671 c 0,0.754492 -0.617311,1.371803 -1.371802,1.371803 z m 19.884591,-0.205771 v -5.48721 l 2.743605,5.48721 2.743606,-5.48721 v 5.48721" />
</svg>
