<?xml version="1.0" encoding="UTF-8" standalone="no"?>
<!-- Created with Inkscape (http://www.inkscape.org/) -->

<svg
   width="48"
   height="48"
   viewBox="0 0 48 48"
   version="1.1"
   id="svg5"
   inkscape:version="1.1.1 (3bf5ae0d25, 2021-09-20)"
   sodipodi:docname="pronote.svg"
   xmlns:inkscape="http://www.inkscape.org/namespaces/inkscape"
   xmlns:sodipodi="http://sodipodi.sourceforge.net/DTD/sodipodi-0.dtd"
   xmlns="http://www.w3.org/2000/svg"
   xmlns:svg="http://www.w3.org/2000/svg">
  <sodipodi:namedview
     id="namedview7"
     pagecolor="#505050"
     bordercolor="#eeeeee"
     borderopacity="1"
     inkscape:pageshadow="0"
     inkscape:pageopacity="0"
     inkscape:pagecheckerboard="0"
     inkscape:document-units="px"
     showgrid="false"
     units="px"
     inkscape:zoom="11.446291"
     inkscape:cx="8.8675013"
     inkscape:cy="20.050163"
     inkscape:window-width="1242"
     inkscape:window-height="1055"
     inkscape:window-x="0"
     inkscape:window-y="19"
     inkscape:window-maximized="1"
     inkscape:current-layer="layer1" />
  <defs
     id="defs2" />
  <g
     inkscape:label="Layer 1"
     inkscape:groupmode="layer"
     id="layer1">
    <g
       id="g1359"
       transform="translate(-2.5150827,-1.9793244)">
      <path
         style="fill:none;stroke:#ffffff;stroke-width:1;stroke-linecap:round;stroke-linejoin:round;stroke-miterlimit:4;stroke-dasharray:none;stroke-opacity:1"
         d="m 24.829151,24.444484 c 0,0 -2.634624,-9.474925 -12.753815,-12.892171 0,0 -6.8805167,9.303925 -0.262434,13.958883 0,0 -5.512963,1.441637 -3.2834227,6.919048 2.2295407,5.477413 7.6870337,6.081507 10.0278987,4.388194 2.340865,-1.693314 1.82958,-2.845717 4.297133,-3.263951"
         id="path866" />
      <path
         style="fill:none;stroke:#ffffff;stroke-width:1;stroke-linecap:round;stroke-linejoin:round;stroke-miterlimit:4;stroke-dasharray:none;stroke-opacity:1"
         d="m 26.879021,24.753933 c 0,0 8.334986,-9.152839 17.564432,-8.22607 0,0 3.200658,11.140935 -5.551351,12.404177"
         id="path868" />
      <path
         style="fill:none;stroke:#ffffff;stroke-width:1;stroke-linecap:round;stroke-linejoin:round;stroke-miterlimit:4;stroke-dasharray:none;stroke-opacity:1"
         d="m 38.892102,28.93204 c 0,0 6.03973,3.629831 -0.392632,8.840371 -6.432361,5.210543 -10.134834,1.38807 -10.541467,-0.363108 -0.406633,-1.75118 -2.262132,-3.935734 -2.262132,-3.935734"
         id="path870" />
      <path
         style="fill:none;stroke:#ffffff;stroke-width:1;stroke-linecap:round;stroke-linejoin:round;stroke-miterlimit:4;stroke-dasharray:none;stroke-opacity:1"
         d="m 22.854511,33.554487 c 0,0 -0.834039,2.434882 0.510411,3.005402 1.34445,0.57052 1.956064,-1.407711 2.330949,-3.08632 0.374886,-1.67861 1.595293,-7.4818 0.843267,-9.122449"
         id="path874" />
      <path
         style="fill:none;stroke:#ffffff;stroke-width:1;stroke-linecap:round;stroke-linejoin:round;stroke-miterlimit:4;stroke-dasharray:none;stroke-opacity:1"
         d="m 26.539138,24.35112 c 0,0 -0.08725,-1.88163 2.551331,-4.733348"
         id="path876"
         sodipodi:nodetypes="cc" />
      <path
         style="fill:none;stroke:#ffffff;stroke-width:1;stroke-linecap:round;stroke-linejoin:round;stroke-miterlimit:4;stroke-dasharray:none;stroke-opacity:1"
         d="m 22.854511,33.554487 c 0,0 1.44805,-8.843716 2.470464,-9.209342 1.022412,-0.365626 -1.419559,-5.98941 -1.419559,-5.98941"
         id="path878" />
    </g>
  </g>
</svg>
