<?xml version="1.0" encoding="UTF-8" standalone="no"?>
<!-- Created with Inkscape (http://www.inkscape.org/) -->

<svg
   width="48"
   height="48"
   viewBox="0 0 48 48"
   version="1.1"
   id="svg6738"
   inkscape:version="1.2.2 (b0a8486541, 2022-12-01)"
   xml:space="preserve"
   sodipodi:docname="proton_pass.svg"
   xmlns:inkscape="http://www.inkscape.org/namespaces/inkscape"
   xmlns:sodipodi="http://sodipodi.sourceforge.net/DTD/sodipodi-0.dtd"
   xmlns="http://www.w3.org/2000/svg"
   xmlns:svg="http://www.w3.org/2000/svg"><sodipodi:namedview
     id="namedview6740"
     pagecolor="#ffffff"
     bordercolor="#000000"
     borderopacity="0.25"
     inkscape:showpageshadow="2"
     inkscape:pageopacity="0"
     inkscape:pagecheckerboard="0"
     inkscape:deskcolor="#d1d1d1"
     inkscape:document-units="px"
     showgrid="true"
     inkscape:zoom="22.627417"
     inkscape:cx="24.505669"
     inkscape:cy="23.201941"
     inkscape:window-width="1878"
     inkscape:window-height="1673"
     inkscape:window-x="223"
     inkscape:window-y="197"
     inkscape:window-maximized="0"
     inkscape:current-layer="layer1"><inkscape:grid
       type="xygrid"
       id="grid7496" /></sodipodi:namedview><defs
     id="defs6735"><style
       id="style7484">.a{fill:none;stroke:#fff;stroke-linecap:round;stroke-linejoin:round;}</style></defs><g
     inkscape:label="Layer 1"
     inkscape:groupmode="layer"
     id="layer1"><path
       id="path2895"
       style="fill:none;stroke:#ffffff;stroke-width:1;stroke-linecap:round;stroke-linejoin:round;stroke-opacity:1;stroke-dasharray:none"
       d="M 18.75214 -14.390728 A 3.7123108 3.7123108 0 0 0 18.032604 -12.301172 L 18.024318 -12.292886 L 18.024318 3.009347 L 18.02708 3.009347 L 18.02708 10.428444 L 18.032604 10.433968 L 18.032604 12.281837 L 18.049177 12.29841 A 3.7123108 3.7123108 0 0 0 21.651002 15.894711 L 21.659288 15.902997 L 23.167415 15.902997 L 23.177082 15.912665 L 46.23263 15.912665 L 46.249203 15.896092 A 3.7123108 3.7123108 0 0 0 49.845504 12.294267 L 49.85379 12.28598 L 49.85379 1.8810145 L 49.851028 1.8810145 L 49.851028 -10.435349 L 49.845504 -10.440874 L 49.845504 -12.288742 L 49.828931 -12.305315 A 3.7123108 3.7123108 0 0 0 46.227106 -15.901616 L 46.218819 -15.909903 L 44.710693 -15.909903 L 44.701026 -15.91957 L 21.645478 -15.91957 L 21.628905 -15.902997 A 3.7123108 3.7123108 0 0 0 18.75214 -14.390728 z "
       transform="rotate(45)" /><path
       id="path2895-5"
       style="fill:none;stroke:#ffffff;stroke-width:1;stroke-linecap:round;stroke-linejoin:round;stroke-dasharray:none;stroke-opacity:1"
       d="M 5.4292405 27.927056 L 17.657865 40.155702 L 17.676845 40.155702 A 3.0069717 3.0069717 0 0 0 21.799617 40.152602 L 21.809117 40.152602 L 27.768635 34.193086 L 27.767035 34.191486 L 34.821312 27.137209 L 34.821312 27.130909 L 35.87969 26.07253 L 35.87969 26.05355 A 3.0069717 3.0069717 0 0 0 35.87659 21.930777 L 35.87659 21.921277 L 35.01279 21.057477 L 35.01279 21.046357 L 21.807546 7.8410907 L 21.788566 7.8410907 A 3.0069717 3.0069717 0 0 0 19.274717 7.059561 L 19.274703 7.0595713 L 19.274703 7.0595713 A 3.0069717 3.0069717 0 0 0 17.665777 7.8442592 L 17.656277 7.8442592 L 8.891834 16.608705 L 8.893434 16.610305 L 5.9859941 19.517746 " /></g></svg>
