<svg width="48" height="48" xmlns="http://www.w3.org/2000/svg" xmlns:svg="http://www.w3.org/2000/svg" enable-background="new 0 0 48.0 48.0" version="1.1" xml:space="preserve">

 <g class="layer">
  <title>Layer 1</title>
  <path d="m15,41.83c0,-12.75 18,-12.75 18,0" fill="#000000" fill-opacity="0" fill-rule="nonzero" id="svg_1" stroke="#FFFFFF" stroke-linecap="round" stroke-linejoin="round" stroke-opacity="1" stroke-width="1"/>
  <path d="m10.5,41.83c0,-20.25 27,-20.25 27,0" fill="#000000" fill-opacity="0" fill-rule="nonzero" id="svg_2" stroke="#FFFFFF" stroke-linecap="round" stroke-linejoin="round" stroke-opacity="1" stroke-width="1"/>
  <path d="m6.15,39.6c3.6,-22.52 32.1,-22.52 35.7,0" fill="#000000" fill-opacity="0" fill-rule="nonzero" id="svg_3" stroke="#FFFFFF" stroke-linecap="round" stroke-linejoin="round" stroke-opacity="1" stroke-width="1"/>
  <path d="m6,26.83c10.5,-12.75 25.5,-12.75 36,0" fill="#000000" fill-opacity="0" fill-rule="nonzero" id="svg_4" stroke="#FFFFFF" stroke-linecap="round" stroke-linejoin="round" stroke-opacity="1" stroke-width="1"/>
  <path d="m6,20.08c12,-9.75 24,-9.75 36,0" fill="#000000" fill-opacity="0" fill-rule="nonzero" id="svg_5" stroke="#FFFFFF" stroke-linecap="round" stroke-linejoin="round" stroke-opacity="1" stroke-width="1"/>
  <path d="m38.4,6q3.6,0 3.6,3.6l0,28.8q0,3.6 -3.6,3.6l-28.8,0q-3.6,0 -3.6,-3.6l0,-28.8q0,-3.6 3.6,-3.6l28.8,0z" fill="#000000" fill-opacity="0" fill-rule="nonzero" id="svg_6" stroke="#FFFFFF" stroke-linecap="round" stroke-linejoin="round" stroke-opacity="1" stroke-width="1"/>
 </g>
</svg>