<?xml version="1.0" encoding="UTF-8"?>
<svg id="b" version="1.1" viewBox="0 0 48 48" xml:space="preserve" xmlns="http://www.w3.org/2000/svg"><defs><style>.c{stroke-width:1px;}.c,.d{fill:none;stroke:#fff;stroke-linecap:round;stroke-linejoin:round;}.e{fill:#fff;stroke-width:0px;}</style><style>.a{fill:none;stroke:#fff;stroke-linecap:round;stroke-linejoin:round;}</style></defs><circle class="a" cx="24" cy="24" r="21.5" fill="none" stroke="#fff" stroke-linecap="round" stroke-linejoin="round"/><polyline class="st5" transform="translate(-137.7,-20.7)" points="172 48.6 172 40.7 176 48.7 180 40.7 180 48.7" fill="none" stroke="#fff" stroke-linecap="round" stroke-linejoin="round" stroke-miterlimit="10"/><g transform="translate(-197.7,-20.7)">
		<path class="st5" d="m203.4 48.7v-8h2.6c1.5 0 2.7 1.2 2.7 2.7s-1.2 2.7-2.7 2.7h-2.6" fill="none" stroke="#fff" stroke-linecap="round" stroke-linejoin="round" stroke-miterlimit="10"/>
	</g><g transform="translate(-235.88,-20.7)">
		<polyline class="st5" points="268.6 40.7 266 48.7 263.4 40.7" fill="none" stroke="#fff" stroke-linecap="round" stroke-linejoin="round" stroke-miterlimit="10"/>
	</g><g transform="translate(-232.32,-36.7)" fill="none" stroke="#fff" stroke-linecap="round" stroke-linejoin="round" stroke-miterlimit="10">
		<path class="st5" d="m246 57.7v6c0 0.6 0.4 1 1 1h0.3"/>
		<line class="st5" x1="244.9" x2="247.1" y1="59.3" y2="59.3"/>
	</g><g transform="translate(-32.76,-20.7)">
		
			
				<line class="st5" x1="57.8" x2="54.2" y1="46" y2="46" fill="none" stroke="#fff" stroke-linecap="round" stroke-linejoin="round" stroke-miterlimit="10"/>
			
		
		<polyline class="st5" points="53.3 48.7 56 40.7 58.7 48.7" fill="none" stroke="#fff" stroke-linecap="round" stroke-linejoin="round" stroke-miterlimit="10"/>
	</g><g transform="translate(-228.34 -36.7)" fill="none" stroke="#fff" stroke-linecap="round" stroke-linejoin="round" stroke-miterlimit="10">
		<path class="st5" d="m246 57.7v6c0 0.6 0.4 1 1 1h0.3"/>
		<line class="st5" x1="244.9" x2="247.1" y1="59.3" y2="59.3"/>
	</g></svg>
