<?xml version="1.0" encoding="UTF-8"?>
<svg version="1.1" viewBox="0 0 48 48" xml:space="preserve" xmlns="http://www.w3.org/2000/svg"><defs><style>.a{fill:none;stroke:#fff;stroke-linecap:round;stroke-linejoin:round;}</style></defs><g transform="matrix(.092179 0 0 .092179 -40.132 6.5365)" fill="none" stroke="#fff" stroke-linecap="round" stroke-linejoin="round" stroke-width="10.848"><path d="m512.86 36.99c-2.898 0.447-5.684 11.118-11.285 16.677-4.096 4.012-9.209 3.761-11.925 8.721-1.031 1.853-0.697 5.016-1.867 8.053-2.285 6.074-10.337 6.617-10.337 13.235-0.028 7.147 6.715 8.512 12.552 13.583 4.556 4.082 5.002 6.896 10.518 8.874 4.71 1.603 11.717-3.636 18.028-1.755 5.183 1.547 10.142 2.661 11.313 7.983 1.03 4.904-0.07 12.51-6.353 11.633-2.118-0.237-11.299-3.33-22.583-2.132-13.612 1.547-29.146 5.99-30.664 21.163-0.836 8.484 9.654 18.487 19.783 16.453 7.007-1.38 3.692-9.64 7.509-13.653 5.001-5.14 33.338 17.944 59.683 17.944 11.09 0 19.337-2.8 27.53-11.382 0.765-0.655 1.699-2.062 2.883-2.146 1.115 0.084 3.065 1.184 3.706 1.658 21.218 17.052 37.253 51.255 115.23 51.659 10.964 0.055 23.46 5.294 33.658 14.6 9.098 8.415 14.42 21.496 19.588 34.773 7.802 19.923 21.79 39.302 42.993 60.868 1.157 1.156 18.613 14.726 20.006 15.743 0.223 0.139 1.505 3.204 1.06 4.917-0.516 12.929-2.397 50.53 25.633 52.23 6.855 0.348 5.057-4.472 5.057-7.788-0.013-6.548-1.212-13.054 2.244-19.755 4.722-9.222-10.017-13.472-9.585-33.408 0.306-14.865-12.177-12.33-18.516-23.656-3.65-6.562-6.896-10.044-6.659-18.07 1.421-45.165-9.613-74.84-15.116-82.126-4.29-5.503-7.843-7.69-3.915-10.24 23.392-15.45 28.7-29.828 28.7-29.828 12.44-29.242 23.628-55.95 39.05-67.707 3.107-2.425 11.076-8.373 15.966-10.714 14.391-6.785 21.97-10.894 26.15-14.963 6.617-6.45 11.841-19.894 5.502-28.044-7.885-10.059-21.524-2.076-27.542 1.49-43.007 25.524-49.346 70.55-64.24 96.408-11.883 20.66-31.206 35.832-48.481 37.072-12.957 0.961-26.916-1.658-40.82-7.76-33.812-14.823-52.314-33.965-56.674-37.35-9.084-7.008-79.606-76.235-136.74-79.063 0 0-7.09-14.196-8.874-14.433-4.18-0.53-8.456 8.484-11.521 9.53-2.884 0.96-7.732-9.767-10.644-9.293" fill="none" stroke="#fff" stroke-linecap="round" stroke-linejoin="round" stroke-width="10.848"/></g></svg>
