<?xml version="1.0" encoding="UTF-8"?>
<svg version="1.1" viewBox="0 0 48 48" xml:space="preserve" xmlns="http://www.w3.org/2000/svg"><defs><style>.a{fill:none;stroke:#fff;stroke-linecap:round;stroke-linejoin:round;}</style></defs><path d="m11.215 14.744c-1.4535 0.89077-3.2378 1.4876-3.6962 0.92892-0.45839-0.55868 0.47988-1.8536 1.7978-2.9349 1.3179-1.0813 3.5979-1.5311 4.0894-1.0013 0.87407 0.94239-0.85499 2.1885-2.191 3.0073zm-4.1396 17.512s-1.6663-7.3769-2.5028-11.242c-0.25953-1.199 0.1606-2.4058 0.82876-3.4347 0.51731-0.79658 2.1176-1.9067 2.1176-1.9067m2.4922 17.355-1.651-7.7674 1.9877-0.4225-0.92336-4.3441 23.135-4.9174 0.92336 4.3441 2.131-0.45296 1.651 7.7674 2.5357-1.935 2.7874 0.80353 0.62655-0.13317 0.43647 2.0534-38.822 8.4649-0.47979-2.2572 0.69708-0.14817 2.0296-1.8274z" fill="none" stroke="#fff" stroke-linecap="round" stroke-linejoin="round"/></svg>
