<?xml version="1.0" encoding="UTF-8"?>
<svg version="1.1" viewBox="0 0 48 48" xml:space="preserve" xmlns="http://www.w3.org/2000/svg"><defs><style>.a{fill:none;stroke:#fff;stroke-linecap:round;stroke-linejoin:round;}</style></defs><path d="m42.785 43.977c-3.1676-2.7965-7.9181-4.2679-12.835-3.9753-9.0272 0.53715-9.2944 0.53575-11.652-0.060989-5.2221-1.3218-8.866-3.8714-11.684-8.1751-2.2692-3.4657-3.411-8.2317-2.9111-12.152 0.95367-7.4795 5.9088-13.571 12.903-15.863 2.1515-0.70488 4.0189-0.75567 6.0516-0.75109 1.9101 0.0043 3.904 0.08827 5.6834 0.73139 9.4903 3.43 14.759 13.088 12.309 22.563-0.52521 2.0308-1.8635 4.8777-2.044 4.3479-1.4763-4.3341-2.8596-5.8995-6.2518-7.0749l-1.753-0.60744 4.2366 0.09404 0.08116-1.3997c0.23178-3.9972-2.2401-8.5112-5.9488-10.863-3.8721-2.4558-9.536-2.463-13.393-0.01693-4.1666 2.6427-6.5965 7.9046-5.8182 12.6 0.6862 4.1395 3.3339 7.7295 7.0009 9.4925 1.8476 0.8883 5.5951 1.74 5.9769 1.3584 0.09391-0.09387 0.13432-1.0871 0.08981-2.2072l-0.08093-2.0365 1.0385 1.5972c2.0363 3.1317 4.9253 4.9708 9.3123 5.9279 3.5595 0.77656 6.3715 2.2179 8.8607 4.5416 1.1188 1.0444 2.1494 2.1142 2.2903 2.3773 0.48611 0.90794-0.14655 0.71439-1.4625-0.44745z" fill="none" stroke="#fff" stroke-linecap="round" stroke-linejoin="round"/><ellipse cx="32.134" cy="34.429" rx="1.1644" ry="1.1639" fill="#fff"/><ellipse cx="35.924" cy="31.496" rx="1.1644" ry="1.1639" fill="#fff"/></svg>
