<?xml version="1.0" encoding="utf-8"?>
<!-- Generator: Adobe Illustrator 25.1.0, SVG Export Plug-In . SVG Version: 6.00 Build 0)  -->
<svg version="1.1"
	 id="svg8" inkscape:version="1.0.1 (3bc2e813f5, 2020-09-07)" sodipodi:docname="template.svg" xmlns:cc="http://creativecommons.org/ns#" xmlns:dc="http://purl.org/dc/elements/1.1/" xmlns:inkscape="http://www.inkscape.org/namespaces/inkscape" xmlns:rdf="http://www.w3.org/1999/02/22-rdf-syntax-ns#" xmlns:sodipodi="http://sodipodi.sourceforge.net/DTD/sodipodi-0.dtd" xmlns:svg="http://www.w3.org/2000/svg"
	 xmlns="http://www.w3.org/2000/svg" xmlns:xlink="http://www.w3.org/1999/xlink" x="0px" y="0px" viewBox="0 0 48 48"
	 style="enable-background:new 0 0 48 48;" xml:space="preserve">
<style type="text/css">
	.st0{fill:none;stroke:#FFFFFF;stroke-linecap:round;stroke-linejoin:round;}
	.st1{fill:none;stroke:#FFFFFF;}
</style>
<sodipodi:namedview  bordercolor="#666666" borderopacity="1" gridtolerance="10" guidetolerance="10" id="namedview10" inkscape:current-layer="svg8" inkscape:cx="24" inkscape:cy="24" inkscape:document-rotation="0" inkscape:guide-bbox="true" inkscape:pageopacity="0" inkscape:pageshadow="2" inkscape:window-height="2098" inkscape:window-maximized="1" inkscape:window-width="3840" inkscape:window-x="0" inkscape:window-y="25" inkscape:zoom="1.6491" objecttolerance="10" pagecolor="#595959" showgrid="false" showguides="true">
	</sodipodi:namedview>
<g>
	<rect id="rect3159" x="11.1" y="11.2" class="st0" width="2.2" height="2.1"/>
	<rect id="rect3161" x="6.3" y="6.3" class="st0" width="11.8" height="11.7"/>
	<rect id="rect3163" x="8.2" y="8.3" class="st0" width="7.8" height="7.9"/>
	<rect id="rect3159-9" x="34.7" y="11.2" class="st0" width="2.2" height="2.1"/>
	<rect id="rect3161-7" x="29.8" y="6.3" class="st0" width="11.8" height="11.7"/>
	<rect id="rect3163-7" x="31.8" y="8.3" class="st0" width="7.8" height="7.9"/>
	<rect id="rect3159-4" x="11.1" y="34.7" class="st0" width="2.2" height="2.1"/>
	<rect id="rect3161-3" x="6.3" y="29.8" class="st0" width="11.8" height="11.7"/>
	<rect id="rect3163-0" x="8.2" y="31.8" class="st0" width="7.8" height="7.9"/>
	<rect id="rect3227" x="24.5" y="6.4" class="st0" width="1.9" height="3.2"/>
	<rect id="rect3231" x="21.5" y="10.4" class="st0" width="2" height="2"/>
	<rect id="rect3231-3" x="24.5" y="24.5" class="st0" width="2" height="2"/>
	<rect id="rect3231-0" x="39.7" y="21.5" class="st0" width="2" height="2"/>
	<rect id="rect3231-9" x="32.9" y="27.2" class="st0" width="2" height="2"/>
	<rect id="rect3231-2" x="21.6" y="34.1" class="st0" width="1.9" height="1.9"/>
	<rect id="rect3231-5" x="32.9" y="39.7" class="st1" width="2" height="2"/>
	<rect id="rect3231-4" x="35.8" y="37" class="st0" width="2" height="2"/>
	<rect id="rect3289" x="21.6" y="27.2" class="st0" width="1.9" height="3.3"/>
	<rect id="rect3291" x="30.1" y="34.2" class="st0" width="4.8" height="1.8"/>
	<rect id="rect3293" x="38.6" y="39.7" class="st1" width="3.1" height="2"/>
	<rect id="rect3295" x="35.8" y="24.4" class="st0" width="3.2" height="2"/>
	<rect id="rect3297" x="27.4" y="21.5" class="st0" width="7.5" height="2"/>
	<path id="path3299" sodipodi:nodetypes="ccccccccc" class="st0" d="M24.5,13.4h1.9v4.7h-2.9v5.4h-1.9v-7.3l2.9,0L24.5,13.4z"/>
	<path id="path3301" sodipodi:nodetypes="ccccccc" class="st0" d="M8.2,26.4v-2.9h4.2v-1.9H6.3v4.8L8.2,26.4z"/>
	<path id="path3303" sodipodi:nodetypes="ccccccccc" class="st0" d="M13.4,24.5v1.9h7.3v-1.9h-2.5v-2.9h-2v2.9L13.4,24.5z"/>
	<path id="path3305" sodipodi:nodetypes="ccccccc" class="st0" d="M27.4,27.4v3.9h-2.9v1.9h4.6v-5.9L27.4,27.4z"/>
	<path id="path3307" sodipodi:nodetypes="ccccccc" class="st0" d="M24.5,37h1.9v2.8h2.7v1.9h-4.6L24.5,37z"/>
	<path id="path3309" sodipodi:nodetypes="ccccccc" class="st0" d="M39.8,27.4v3.9h-3.9v2h5.8v-5.9L39.8,27.4z"/>
</g>
</svg>
