<?xml version="1.0" encoding="UTF-8"?>
<svg version="1.1" viewBox="0 0 48 48" xmlns="http://www.w3.org/2000/svg">
 <defs>
  <style>.a{fill:none;stroke:#fff;stroke-linecap:round;stroke-linejoin:round;}</style>
 </defs>
 <path class="a" d="m40.5 5.5h-33a2 2 0 0 0-2 2v33a2 2 0 0 0 2 2h33a2 2 0 0 0 2-2v-33a2 2 0 0 0-2-2z"/>
 <g transform="matrix(4.1394 0 0 3.8257 -908.2 -454.97)" enable-background="new 0 0 380 200" stroke-width=".25129">
  <g>
   <path class="st0" d="m227.2 124.5c0 1.1-0.9 2-2 2s-2-0.9-2-2v-1.3c0-1.1 0.9-2 2-2s2 0.9 2 2" fill="none" stroke="#fff" stroke-linecap="round" stroke-linejoin="round" stroke-miterlimit="10" stroke-width=".25129"/>
  </g>
  <line class="st0" x1="227.2" x2="227.2" y1="121.2" y2="129.2" fill="none" stroke="#fff" stroke-linecap="round" stroke-linejoin="round" stroke-miterlimit="10"/>
 </g>
</svg>
