<svg viewBox="0 0 48 48" xmlns="http://www.w3.org/2000/svg"><defs><style>.a{fill:none;stroke:#fff;stroke-linecap:round;stroke-linejoin:round}</style></defs><g stroke-miterlimit="4.25"><path class="a" d="M8.478 20.237h31.043M8.47 38.481c1.136.947 2.082 1.325 4.544 1.325h.568a4.923 4.923 0 1 0 0-9.845H8.47V24.66h10.035M21.289 39.617h7.574m-7.574-13.065 3.787-2.083v15.148m6.88 0h7.574m-7.574-13.065 3.787-2.082v15.148M30.623 15.68h3.098m-3.098-6.196h3.098m-3.098 3.098h2.014m-2.014-3.098v6.196m-18.047 0-2.014-2.014m-2.091-.077a2.053 2.053 0 1 0 4.105 0v-2.092a2.083 2.083 0 0 0-2.091-2.091 2.018 2.018 0 0 0-2.014 2.091zm5.81-4.105v4.105a2.015 2.015 0 1 0 4.027 0V9.484M21.716 7.857 22.8 7.47m-2.71 8.21h3.098M20.09 9.483h3.098m-3.098 3.1h2.013m-2.014-3.1v6.197m19.442-2.014a2.091 2.091 0 0 1-4.183 0v-2.091a2.083 2.083 0 0 1 2.091-2.092 2.018 2.018 0 0 1 2.014 2.092M27.44 12.543a1.569 1.569 0 0 1 0 3.137h-2.588V9.406h2.588a1.569 1.569 0 0 1 0 3.137zM27.44 12.543h-2.588"/><rect x="5.513" y="3.513" width="36.975" height="40.975" ry="1.361" fill="none" stroke="#fff" stroke-linecap="round" stroke-linejoin="round"/></g></svg>