<?xml version="1.0" encoding="UTF-8" standalone="no"?>
<svg
   id="Layer_2"
   data-name="Layer 2"
   viewBox="0 0 48 48"
   version="1.1"
   xmlns="http://www.w3.org/2000/svg"
   xmlns:svg="http://www.w3.org/2000/svg">
  <defs
     id="defs4">
    <style
       id="style2">.cls-1{fill:none;stroke:#fff;stroke-linecap:round;stroke-linejoin:round;}</style>
  </defs>
  <path
     class="cls-1"
     d="m 23.889118,2.5 c 16.252403,-0.044434 26.664747,17.278418 19,31.61 l 0.55,2.08 1.93,7.2 c 0.210373,0.875796 -0.311681,1.760633 -1.18,2 -0.284505,0.07984 -0.585495,0.07984 -0.87,0 l -7.2,-1.93 -2.11,-0.46 C 21.670174,49.534521 6.4731376,42.757888 3.0883386,29.212002 -0.29646037,15.666116 9.9267366,2.5375628 23.889118,2.5 Z" />
  <path
     class="cls-1"
     d="m 7.3,28.8 c 2.1602445,0.103774 3.560321,4.040743 5.9,4 1.558166,-2.372579 0.941061,-6.076493 -1.2,-7.3 -2.7010145,-1.543492 -4.8205923,1.015497 -4.7,3.3 z" />
  <path
     class="cls-1"
     d="m 16.5,36 c 0,0 2.400359,-0.04537 3.2,-0.8 0.812763,-0.767011 1.13076,-2.090139 1,-3.2 -0.16548,-1.404556 -1.251295,-2.763757 -0.7,-4 0.640381,-1.436013 2.42767,-2.5 4,-2.5 1.57233,0 3.359619,1.063987 4,2.5 0.551295,1.236243 -0.526467,2.669241 -0.7,4 -0.144505,1.108155 0.187237,2.432989 1,3.2 0.799641,0.754628 3.2,0.8 3.2,0.8 0,0 -4.864769,2.5 -7.5,2.5 -2.635231,0 -7.5,-2.5 -7.5,-2.5 z" />
  <path
     class="cls-1"
     d="m 40.7,28.8 c -2.160244,0.103774 -3.560321,4.040743 -5.9,4 -1.558166,-2.372579 -0.941061,-6.076493 1.2,-7.3 2.701015,-1.543492 4.820592,1.015497 4.7,3.3 z" />
  <circle
     class="cls-1"
     cx="12.75"
     cy="20.5"
     r="2" />
  <circle
     class="cls-1"
     cx="24"
     cy="20.5"
     r="2" />
  <circle
     class="cls-1"
     cx="35.25"
     cy="20.5"
     r="2" />
</svg>
