<svg width="48" height="48" version="1.1" viewBox="0 0 48 48" xmlns="http://www.w3.org/2000/svg">
 <defs>
  <style>.a{fill:none;stroke:#fff;stroke-linecap:round;stroke-linejoin:round;}</style>
 </defs>
 <g transform="rotate(180 23.703 23.929)" fill="none" stroke="#fff" stroke-linecap="round">
  <path d="m26.931 22.994s1.4522-1.8868 3.3767-2.9889c3.8491-2.2041 8.7572-0.87 10.961 2.9791 2.2041 3.8491 0.87 8.7572-2.9791 10.961-1.9245 1.1021-4.1134 1.3184-6.0968 0.77943-1.9834-0.53901-3.7625-1.8339-4.8645-3.7585-1.1021-1.9246-4.1468-7.4557-4.1468-7.4557s-2.6128-4.4974-3.7285-6.4141c-2.2313-3.8334-7.1469-5.1315-10.98-2.9002-3.8334 2.2313-5.1321 7.1491-2.9007 10.982 2.2313 3.8334 7.1469 5.1315 10.98 2.9002 1.9167-1.1157 3.3294-2.9604 3.3294-2.9604" style="paint-order:markers fill stroke"/>
  <path d="m28.062 12.969c-2.1833 3.7816-6.7491-0.77785-2.9944-2.9373"/>
  <path d="m18.637 34.747c2.1833-3.7816 6.7491 0.77785 2.9944 2.9373"/>
 </g>
</svg>
