<svg version="1.1" viewBox="0 0 48 48" xmlns="http://www.w3.org/2000/svg">
  <defs>
    <style>.a{fill:none;stroke:#fff;stroke-linecap:round;stroke-linejoin:round;}</style>
  </defs>
  <path class="a" d="m25.394 2.5455c-3.268-0.21511-6.5404 0.3338-9.5631 1.6037-3.0212 1.2699-5.7093 3.2253-7.8518 5.7147-2.1425 2.4894-3.6858 5.4417-4.5035 8.6284-0.81775 3.1867-0.8906 6.5218-0.21262 9.7411 0.67799 3.2207 2.0905 6.2384 4.1229 8.8183 2.0339 2.5799 4.6329 4.6523 7.5976 6.0528 2.9632 1.402 6.2089 2.0933 9.4829 2.0237 3.2739-0.07124 6.4869-0.90192 9.3891-2.43 0.09215-0.04743 0.19643-0.06967 0.30049-0.06383 0.10406 0.0059 0.2052 0.03865 0.29128 0.09642 0.61559 0.41242 1.2579 0.78191 1.9225 1.1067 2.303 1.1202 4.8321 1.6883 7.3894 1.6616 0.15778 0 0.30791-0.06226 0.41938-0.17351 0.11148-0.11125 0.17396-0.26251 0.17396-0.42141v-7.2338c0.0013-0.14227-0.04607-0.27892-0.13687-0.38859-0.09058-0.1099-0.21554-0.1825-0.35533-0.20632-0.681-0.10833-1.3469-0.29959-1.9819-0.57109-0.07888-0.03573-0.14879-0.08609-0.2052-0.15126-0.05642-0.0654-0.09821-0.14092-0.12204-0.22408-0.02361-0.08316-0.02967-0.16924-0.01776-0.25509 0.01191-0.08473 0.04315-0.16632 0.08923-0.23891 2.0682-3.111 3.2859-6.7147 3.5281-10.447 0.24386-3.7326-0.49647-7.4653-2.1439-10.821-1.6474-3.3558-4.1437-6.2146-7.2408-8.2931-3.0955-2.077-6.6816-3.2994-10.396-3.5413zm-14.217 21.273c-0.0029-2.5531 0.74786-5.0515 2.1574-7.1759 1.4095-2.1245 3.4152-3.7816 5.7614-4.7607 2.3462-0.97917 4.9303-1.2358 7.4221-0.73882 2.492 0.49699 4.7816 1.7269 6.5791 3.5309 1.7976 1.8055 3.0213 4.1065 3.5165 6.6108 0.49647 2.5042 0.24093 5.1005-0.73156 7.4608-0.97227 2.359-2.6197 4.375-4.7339 5.7934-2.1129 1.4182-4.5973 2.1733-7.1382 2.1718-3.4033 0-6.6684-1.3573-9.0755-3.7756-2.4071-2.4181-3.7631-5.697-3.7661-9.1179z"/>
</svg>
