<?xml version="1.0" encoding="UTF-8"?>
<svg version="1.1" viewBox="0 0 48 48" xmlns="http://www.w3.org/2000/svg">
    <defs>
        <style>.a{fill:none;stroke:#fff;stroke-linecap:round;stroke-linejoin:round;}</style>
    </defs>
    <rect x="5.5251" y="5.4699" width="36.95" height="37.06" rx="6" ry="6" fill="none" stroke="#fff" stroke-linecap="round" stroke-linejoin="round" style="paint-order:markers fill stroke"/>
    <path d="m42.475 20.603s-2.6564-1.255-3.59 0c-2.8635 3.8492-18.707 9.96-16.625-4.8051-1.8457-0.691-4.521-0.61681-6.7382-0.05526-0.03246 0.07309-3.8441 1.222-4.529 1.3808-1.8475 0.42825-3.2715 4.5386-0.77324 3.6453 5.5636-1.9894 4.7042 4.5604 7.7324 5.1365 0.49398 0.094 1.265 0.11822 1.3808 0.60754 1.1144 4.7096 6.3767 7.5297 9.9416 6.5173 5.3659-1.5239 8.6481 5.3527 2.2645 9.4998" fill="none" stop-color="#000000" stroke="#fff" stroke-linecap="round" stroke-linejoin="round" style="-inkscape-stroke:none;font-variation-settings:normal"/>
</svg>
