<svg xmlns="http://www.w3.org/2000/svg" viewBox="0 0 48 48">
<defs><style>.a{fill:none;stroke:#fff;stroke-linecap:round;stroke-linejoin:round;}</style></defs>
  <path
     class="a"
     d="m 27.855201,42.383431 c -0.545771,0.139868 -1.098448,0.250912 -1.653973,0.339071 -1.007015,0.158093 -2.024187,0.224636 -3.041766,0.269138 -1.053341,0.04577 -2.129846,-0.05382 -3.172621,-0.206408 -1.109014,-0.16233 -2.204214,-0.42384 -3.268933,-0.783256 -1.944536,-0.65568 -3.785446,-1.638988 -5.414629,-2.925341 A 17.660124,18.418787 0 0 1 9.8053565,37.752986 17.419141,18.16745 0 0 1 7.0956041,34.334298 C 5.9536718,32.464319 5.115713,30.394711 4.6520317,28.232706 4.1798162,26.030014 4.0916315,23.612857 4.3005115,21.367355 l 0.00407,-0.05128 c 0.2023779,3.190662 1.230117,6.255867 2.9153815,8.716679 a 16.301185,17.001468 0 0 0 11.984192,7.064556 c 0.434016,0.03645 0.87372,0.0551 1.316675,0.0551 a 16.364987,17.068011 0 0 0 5.730794,-1.072313 c 0.02763,0.0047 0.05568,0.01187 0.08412,0.02119 0.245861,0.08052 0.420198,0.264475 0.535205,0.499282 0.413697,0.842169 0.816014,1.691119 1.223208,2.535831 0.01382,0.03009 0.02845,0.05934 0.04267,0.08901 0.208881,0.43062 0.416135,0.862512 0.624203,1.293133 0.175151,0.364502 0.386062,0.71205 0.240171,1.137584 -0.178808,0.523441 -0.688004,0.609481 -1.145997,0.727308 z" />
  <path
     class="a"
     d="m 10.904212,21.942506 c -0.0064,0.0496 -0.01219,0.09876 -0.01747,0.148343 -0.245861,2.2188 0.06381,4.49524 0.911514,6.549167 0.840025,2.026379 2.164528,3.794065 3.84681,5.133966 1.695015,1.34781 3.724487,2.229818 5.840515,2.520574 1.389459,0.191467 2.799898,0.137881 4.172318,-0.158517 0.202379,-0.0445 0.392566,-0.09579 0.593318,-0.05595 -1.833175,0.711813 -3.773885,1.074998 -5.729984,1.072308 -0.439423,4.1e-5 -0.878671,-0.01834 -1.316678,-0.0551 C 14.405509,36.703557 10.018716,34.11768 7.2199569,30.032752 5.5346924,27.571941 4.5069534,24.506735 4.3049817,21.316072" />
  <path
     class="a"
     d="m 34.091534,9.3701598 a 3.3242016,3.467006 0 0 1 -0.234483,1.2812662 3.3254207,3.4682774 0 0 1 -3.0885,2.178534 3.3193249,3.4619198 0 0 1 -1.58367,-0.417058 l -8.13e-4,0.0021 c -1.530432,-0.898551 -3.221792,-1.433012 -4.975734,-1.609753 -2.170891,-0.218277 -4.373479,0.208528 -6.341179,1.175305 a 12.274756,12.802068 0 0 0 -2.659767,1.775889 12.360096,12.891075 0 0 0 -2.031909,2.259911 12.295888,12.824107 0 0 0 -2.200555,5.428111 16.249574,16.947641 0 0 1 1.007826,-5.093278 C 14.283682,9.9381039 20.186374,5.3737776 27.105834,5.3737776 c 0.329981,0 0.657119,0.010578 0.981818,0.03179 1.113078,0.069931 2.19446,0.2581185 3.234796,0.5526871 h 8.14e-4 l 0.004,8.476e-4 c 0.240984,0.067815 0.481156,0.141986 0.71767,0.2220918 0.178808,0.091977 0.357616,0.187337 0.533984,0.2869394 0.0029,8.477e-4 0.0048,0.00298 0.0065,0.00419 a 3.3128228,3.4551385 0 0 1 1.506049,2.8977897" />
  <path
     class="a"
     d="m 41.220279,29.339351 a 18.389579,19.179579 0 0 1 -1.137056,2.894399 c -0.09347,0.190727 -0.190185,0.381455 -0.290968,0.56964 a 17.389068,18.136085 0 0 1 -0.437673,0.786222 c -0.162554,0.274223 -0.429952,0.601004 -0.537643,0.915917 l 0.01464,-0.0479 c 0.09427,-0.259814 0.18287,-0.52217 0.26496,-0.788341 a 16.332476,17.034103 0 0 0 0.78391,-5.22594 c 0,-3.781919 -1.182571,-7.276049 -3.184812,-10.102634 a 16.405625,17.110395 0 0 0 -7.340069,-5.822278 c -0.05689,-0.03603 -0.114193,-0.06952 -0.1719,-0.103422 l 0.0013,-0.0017 a 3.3242016,3.467006 0 0 0 1.583635,0.417062 3.3258271,3.4687014 0 0 0 3.088499,-2.178535 3.3294845,3.4725158 0 0 0 0.234482,-1.2816905 3.314042,3.45641 0 0 0 -1.506049,-2.8982139 c 0.239765,0.1352045 0.476685,0.2754952 0.710354,0.4212963 a 17.802766,18.567556 0 0 1 4.30602,3.7573371 c 1.343498,1.615675 2.435851,3.467005 3.187251,5.456508 0.819671,2.168785 1.223209,4.498206 1.275225,6.82466 0.04877,2.174295 -0.21335,4.332062 -0.844056,6.407604" />
  <path
     class="a"
     d="m 34.393068,41.692149 c 0.17962,0.372555 0.351521,0.931599 0.716858,1.152843 0.264148,0.159364 0.583157,0.122913 0.876159,0.122913 l 5.398372,-0.0013 c 0.648179,-0.01356 1.103327,-0.724766 0.785535,-1.343572 -0.341359,-0.668819 -0.68272,-1.338061 -1.022862,-2.007303 l -2.084736,-4.085811 c -0.09672,-0.187761 -0.224729,-0.386541 -0.259679,-0.598885 0,0 -0.07599,-0.124609 0.02845,-0.473429 0.09469,-0.259814 0.182871,-0.522594 0.265367,-0.787917 a 16.33776,17.039614 0 0 0 0.78391,-5.226787 c 0,-3.781494 -1.18257,-7.275627 -3.184812,-10.102211 a 16.405625,17.110395 0 0 0 -7.340065,-5.82228 c 0.130448,0.07926 0.259677,0.16106 0.387281,0.245827 a 12.390982,12.923287 0 0 1 3.756998,3.906952 12.297108,12.825379 0 0 1 1.920559,6.18424 c 0.105659,1.96831 -0.225136,3.958659 -0.970845,5.77142 a 12.08579,12.604983 0 0 1 -0.938742,1.844125 12.422679,12.956346 0 0 1 -2.21234,2.699433 c -0.193033,0.17886 -0.384032,0.325509 -0.464902,0.592952 a 0.90745011,0.94643325 0 0 0 0.03169,0.664155 l 3.527392,7.264607 z" />
</svg>
