<?xml version="1.0" encoding="UTF-8" standalone="no"?>
<svg
   xmlns:dc="http://purl.org/dc/elements/1.1/"
   xmlns:cc="http://creativecommons.org/ns#"
   xmlns:rdf="http://www.w3.org/1999/02/22-rdf-syntax-ns#"
   xmlns:svg="http://www.w3.org/2000/svg"
   xmlns="http://www.w3.org/2000/svg"
   xmlns:sodipodi="http://sodipodi.sourceforge.net/DTD/sodipodi-0.dtd"
   xmlns:inkscape="http://www.inkscape.org/namespaces/inkscape"
   viewBox="0 0 48 48"
   version="1.1"
   id="svg2289"
   sodipodi:docname="template.svg"
   inkscape:version="1.0.1 (3bc2e813f5, 2020-09-07)">
  <metadata
     id="metadata2293">
    <rdf:RDF>
      <cc:Work
         rdf:about="">
        <dc:format>image/svg+xml</dc:format>
        <dc:type
           rdf:resource="http://purl.org/dc/dcmitype/StillImage" />
        <dc:title></dc:title>
      </cc:Work>
    </rdf:RDF>
  </metadata>
  <sodipodi:namedview
     pagecolor="#5a5a5a"
     bordercolor="#666666"
     borderopacity="1"
     objecttolerance="10"
     gridtolerance="10"
     guidetolerance="10"
     inkscape:pageopacity="0"
     inkscape:pageshadow="2"
     inkscape:window-width="3840"
     inkscape:window-height="2096"
     id="namedview2291"
     showgrid="false"
     inkscape:zoom="1.6491"
     inkscape:cx="-1.8030232"
     inkscape:cy="23.534908"
     inkscape:window-x="0"
     inkscape:window-y="27"
     inkscape:window-maximized="1"
     inkscape:current-layer="svg2289"
     inkscape:document-rotation="0" />
  <defs
     id="defs2285">
    <style
       id="style2283">.a{fill:none;stroke:#fff;stroke-linecap:round;stroke-linejoin:round;}</style>
  </defs>
  <path
     id="path1709"
     style="fill:none;stroke:#ffffff;stroke-width:1px;stroke-linecap:butt;stroke-linejoin:miter;stroke-opacity:0.971265"
     d="m 19.509068,35.153531 c 2.333439,-1.004908 4.528843,-3.721127 5.597452,-5.925303 v 0 c 1.560162,-3.218083 2.077606,-9.012938 -0.567813,-10.704074"
     sodipodi:nodetypes="cssc" />
  <path
     id="path1854"
     style="fill:none;stroke:#ffffff;stroke-width:1px;stroke-linecap:butt;stroke-linejoin:miter;stroke-opacity:0.9712652"
     d="M 19.964304 18.857033 C 18.083669 19.995538 16.378743 22.055216 15.442451 23.895164 C 14.009329 26.711455 13.16501 31.976232 15.150368 34.354232 " />
  <path
     id="path1711"
     style="fill:none;stroke:#ffffff;stroke-width:1;stroke-linecap:butt;stroke-linejoin:miter;stroke-miterlimit:4;stroke-dasharray:none;stroke-opacity:0.9712652"
     d="M 22.970449 11.517422 C 22.435273 11.778253 21.991451 12.139922 21.715702 12.605644 C 20.683338 14.349244 21.908132 17.204289 23.674145 18.20757 L 23.674145 18.20757 C 25.440158 19.210851 28.824282 18.698084 29.800234 16.958081 C 30.776185 15.218078 29.572367 12.586101 27.854296 11.581506 C 27.155627 11.172978 26.180772 10.977735 25.200473 11.007124 " />
  <ellipse
     style="fill:none;stroke:#ffffff;stroke-linecap:round;stroke-linejoin:round;stroke-opacity:0.9712652"
     id="path1705"
     cx="16.499319"
     cy="36.503395"
     rx="3.942934"
     ry="2.3287358" />
  <path
     id="path1707"
     style="fill:none;stroke:#ffffff;stroke-linecap:round;stroke-linejoin:round;stroke-opacity:0.9712652"
     d="M 20.419557 36.781788 A 3.5231977 1.2590263 0 0 1 23.456604 38.02877 L 23.456604 38.02877 A 3.5231977 1.2590263 0 0 1 19.933407 39.287797 A 3.5231977 1.2590263 0 0 1 17.212295 38.828514 " />
  <path
     style="fill:none;stroke:#ffffff;stroke-width:1px;stroke-linecap:butt;stroke-linejoin:miter;stroke-opacity:0.9712652"
     d="m 18.869056,14.406315 c -0.702189,0.636685 0.339238,3.478368 1.210358,4.785589 0.87112,1.307221 2.732772,3.088822 3.371538,2.554809 0.638765,-0.534013 0.0236,-2.815623 -0.788249,-4.167381 -0.811854,-1.351758 -3.091457,-3.809703 -3.793647,-3.173017 z"
     id="path1713"
     sodipodi:nodetypes="zzzzz" />
  <path
     style="fill:none;stroke:#ffffff;stroke-width:1px;stroke-linecap:butt;stroke-linejoin:miter;stroke-opacity:0.9712652"
     d="M 22.411612,5.9139647 C 23.468573,5.567016 24.48283,7.7826928 24.839784,9.0189797 25.196738,10.255267 25.5608,12.303066 24.585799,12.663163 23.610798,13.02326 22.463347,10.946227 22.064615,9.7094858 21.665883,8.4727443 21.35465,6.2609133 22.411612,5.9139647 Z"
     id="path1715"
     sodipodi:nodetypes="zzzzz" />
  <path
     id="path1715-6"
     style="fill:none;stroke:#ffffff;stroke-width:1px;stroke-linecap:butt;stroke-linejoin:miter;stroke-opacity:0.9712652"
     d="M 23.655729 6.6112166 C 23.765285 6.2842647 23.953925 6.0411203 24.249716 5.9440265 L 24.249716 5.9440265 C 25.306677 5.5970778 26.320934 7.8127546 26.677888 9.0490417 C 26.866864 9.7035488 27.057833 10.585505 27.051044 11.324069 " />
  <circle
     style="fill:none;stroke:#ffffff;stroke-width:1;stroke-linecap:round;stroke-linejoin:round;stroke-miterlimit:4;stroke-dasharray:none;stroke-opacity:0.9712652"
     id="path1859"
     cx="27.010048"
     cy="14.509541"
     r="0.76170868" />
  <path
     style="fill:none;stroke:#ffffff;stroke-width:1px;stroke-linecap:butt;stroke-linejoin:miter;stroke-opacity:0.9712652"
     d="m 15.699614,23.493738 -2.938634,4.352785 -2.635257,-1.728438 6.243384,-10.196188 3.04797,2.004795"
     id="path1861"
     sodipodi:nodetypes="ccccc" />
  <path
     style="fill:none;stroke:#ffffff;stroke-width:1px;stroke-linecap:butt;stroke-linejoin:miter;stroke-opacity:0.9712652"
     d="m 23.359575,42.210083 -1.884003,-1.884003 13.6537,-13.31607 1.782577,1.794039 z"
     id="path1863"
     sodipodi:nodetypes="ccccc" />
</svg>
