<svg width="48" height="48" version="1.1" viewBox="0 0 48 48" xmlns="http://www.w3.org/2000/svg"><g fill="none" stroke="#fff" stroke-linecap="round" stroke-linejoin="round"><path d="m28.954 25.511-2.7582 1.5026c-2.2573 1.2297-5.0433 0.9124-6.9663-0.79339l-0.56945-0.50513c-3.2424-2.9054-1.5397-3.4057 1.291-3.4298 2.735-0.02334 5.4477-0.0207 8.4129 0.1977 2.8221 0.20787 3.076 1.6739 0.59008 3.0282z"/><path d="m9.365 27.937 1.7499 1.5353m-1.6303-9.3856c0.2437 0.85574 0.77409 1.3944 1.9941 1.1703 5.0225-1.1552 11.229-3.5706 16.674-5.5135m11.617 0.0804c-3.6905-2.4874-6.9709-1.915-11.617-0.0804-4.2845-2.419-9.9683-2.1338-16.209 0.52266-0.38443 0.16364-0.93371 0.54646-1.1626 0.89525-0.66492 1.0132-0.90368 2.2414-1.2962 2.9254-1.7478 0.30124-2.5404 0.56544-3.0949 1.1066-0.52958 0.66556-0.7598 1.0329-0.85056 1.3743-0.13979 0.52572 0.16229 1.3853 0.41118 1.8719 0.66041 1.2913 0.93459 1.5821 1.6952 2.8615 0.16589 0.27905 0.55895 0.53111 0.88244 0.56034l0.83714 0.07565m9.3658 5.3468c-1.4586 0.57315-3.2571 0.4403-4.8599-0.51211-2.662-1.5818-3.7762-4.8251-2.4887-7.2441 0.43882-0.82448 1.1-1.4468 1.8863-1.8463m-1.9456-0.27508c-0.22676-1.151 1.0378-0.42452 2.0773 0.22813 2.6008 2.4217 3.5898 5.7495 4.8616 9.3859 3.4645 1.2238 6.8263 1.2587 10.049-0.32003 1.3463-0.63931 2.6194-1.1606 4.4495-2.5783 0.1806-0.13989 0.49434-0.33078 0.70238-0.42547 2.9072-1.3231 5.481-2.9816 7.8022-4.894 0.28061-0.2312 0.67138-0.66816 0.82552-0.99712 0.86089-1.8373 0.1804-3.6518-0.36652-4.8207 0.39646-1.8888-1.9542-3.1607-1.9542-3.1607"/><g><path d="m30.595 23.473c4.0109-1.3343 8.1254-2.496 11.002-5.721"/><path d="m18.86 25.82c4.1406-0.46578 6.8878-0.87107 8.5571-1.4669"/><path d="m11.315 16.83 2.554 3.6065"/></g></g><defs><style>.a{fill:none;stroke:#fff;stroke-linecap:round;stroke-linejoin:round;}</style></defs></svg>
