<svg xmlns="http://www.w3.org/2000/svg" viewBox="0 0 48 48"><path style="fill:none;stroke:#fff;stroke-width:1.00013;stroke-linecap:round;stroke-linejoin:round;stroke-miterlimit:4;stroke-dasharray:none" d="M10.476 34.167a17.003 17.003 0 0 1 2.048-22.848 17.003 17.003 0 0 1 22.938-.011 17.003 17.003 0 0 1 2.073 22.847"/><path style="fill:none;stroke:#fff;stroke-width:1.00013px;stroke-linecap:round;stroke-linejoin:round;stroke-opacity:1" d="M37.5 35.235v-5.42a1.512 1.512 0 0 0-1.512-1.513L12 28.336a1.516 1.516 0 0 0-1.512 1.512l-.016 5.42"/><rect style="fill:none;stroke:#fff;stroke-width:1.00013;stroke-linecap:round;stroke-linejoin:round;stroke-miterlimit:4;stroke-dasharray:none" width="9.87" height="2.336" x="13.425" y="31.262" ry="1.168"/><rect style="fill:none;stroke:#fff;stroke-width:1.00013;stroke-linecap:round;stroke-linejoin:round;stroke-miterlimit:4;stroke-dasharray:none" width="9.87" height="2.185" x="13.349" y="35.707" ry="1.092"/><path style="fill:none;stroke:#fff;stroke-width:1.00013px;stroke-linecap:round;stroke-linejoin:round;stroke-opacity:1" d="M37.5 34.199v5.424a1.512 1.512 0 0 1-1.512 1.512L12 41.098a1.516 1.516 0 0 1-1.512-1.512l-.016-5.417"/><path style="fill:none;stroke:#fff;stroke-width:1.00013;stroke-linecap:round;stroke-linejoin:round;stroke-miterlimit:4;stroke-dasharray:none" d="M26.356 24.749a2.499 2.499 0 0 1-2.665 2.268 2.499 2.499 0 0 1-2.325-2.608 2.499 2.499 0 0 1 2.556-2.385 2.499 2.499 0 0 1 2.442 2.498"/><path style="fill:none;stroke:#fff;stroke-width:1.00013px;stroke-linecap:round;stroke-linejoin:round;stroke-opacity:1" d="m12.054 28.308 9.033-3.554m-3.31 3.452 4.072-1.697"/><path style="fill:none;stroke:#fff;stroke-width:1.00013;stroke-linecap:round;stroke-linejoin:round;stroke-miterlimit:4;stroke-dasharray:none" d="M17.447 25.55a6.702 6.702 0 0 1 3.403-7.914 6.702 6.702 0 0 1 8.378 1.966 6.702 6.702 0 0 1-.465 8.593"/><path style="fill:none;stroke:#fff;stroke-width:1.00013;stroke-linecap:round;stroke-linejoin:round;stroke-miterlimit:4;stroke-dasharray:none" d="M12.47 27.573a11.896 11.896 0 0 1 4.623-13.188 11.896 11.896 0 0 1 13.969.306 11.896 11.896 0 0 1 4.041 13.38"/><circle style="fill:none;stroke:#fff;stroke-width:1.0759;stroke-linecap:round;stroke-linejoin:round;stroke-miterlimit:4;stroke-dasharray:none" cx="30.767" cy="34.67" r="4"/></svg>