<?xml version="1.0" encoding="UTF-8"?><svg id="a" xmlns="http://www.w3.org/2000/svg" viewBox="0 0 48 48"><defs><style>.c{fill:none;stroke:#fff;stroke-linecap:round;stroke-linejoin:round;}</style></defs><path class="c" d="m24.3267,24.2056v-9.0086l10.7473,13.8979.1284-16.0567,5.4962-.035.0817,26.1388-4.6793.175-11.7741-15.1115Z"/><path class="c" d="m24.7818,12.3614l-1.4703-2.2288,3.7458-4.6326-11.5758,3.7925-8.2617,9.6037,5.9979-2.3688,1.482,2.0888c2.7889-3.139,6.4997-4.9827,10.0821-6.2546Z"/><path class="c" d="m13.5095,16.6907l-.6301-1.4703c2.8006-3.139,7.1765-5.2394,9.5453-5.9979l1.0736,1.3069"/><path class="c" d="m17.5937,16.0839v17.4337"/><path class="c" d="m20.0442,14.6252v18.5422"/><path class="c" d="m22.2263,13.54l.0117,19.8725"/><path class="c" d="m22.9148,35.5946c-.8052.0934-1.4586-.1867-1.8437-.8402-.6301.3851-1.517.3851-2.0421-.0467-.2567.2801-.5134.5484-.8285.6651-.3034.1167-.6651.07-1.0152.035l1.8087,4.9944c.7001-.4045,1.3108-.4045,1.8321,0l2.0888-4.8077Z"/><path class="c" d="m20.826,40.4023l-.916,2.0977-.916-2.0977"/><path class="c" d="m12.4709,12.2914c-1.377-.7001-2.7539-1.4003-2.8123,0-.0583,1.4003,1.2019,4.901,2.4739,8.4018"/><path class="c" d="m10.6437,24.8424l1.4888-4.1492,1.0739,4.2224-2.5627-.0732Z"/></svg>