<?xml version="1.0" encoding="UTF-8"?>
<!-- Created with Inkscape (http://www.inkscape.org/) -->
<svg width="48" height="48" version="1.1" viewBox="0 0 48 48" xmlns="http://www.w3.org/2000/svg">
 <g fill="none" stroke="#fff" stroke-linecap="round" stroke-linejoin="round">
  <path d="m5.2412 19.279c-0.61952-1.7695 7.9922-1.444 12.434-2.2128l16.175 11.591c5.6989 17.944 0.80133 14.129-9.8523 6.5857l-9.905-7.1653c-4.8692-4.3453-10.18-8.2042-8.8512-8.7986z"/>
  <path d="m17.675 17.066c-0.49081 0.82676 3.1774-11.871 6.1759-12.5 3.0362 1.0041 4.7643 7.7188 6.6523 11.917 6.2802 0.5254 12.276 0.01707 13.015 2.34 1.1314 1.9315-5.4207 7.6322-9.669 9.8342"/>
  <path d="m13.46 27.867c-3.3923 12.438-2.6909 13.034-1.3823 14.046 1.9451 1.7029 11.356-5.6357 12.306-6.3862"/>
 </g>
</svg>
