<svg xmlns="http://www.w3.org/2000/svg" width="48" height="48" fill="none" stroke="#fff" stroke-linejoin="round"><path d="M40.5 5.5h-33a2 2 0 0 0-2 2v33a2 2 0 0 0 2 2h33a2 2 0 0 0 2-2v-33a2 2 0 0 0-2-2z"/><path d="M35.504 28.116v-6.144l4.071 6.144v-6.144m-6.277 0v6.144m-5.278 0v-6.144h3.072m-3.072 3.072h1.997m-1.997 3.072" stroke-linecap="round" stroke-miterlimit="10"/><path d="M21.743 28.116v-6.144h1.382c1.459 0 2.688 1.229 2.688 2.688v.768c0 1.459-1.229 2.688-2.688 2.688z" stroke-miterlimit="10"/><path d="M19.536 28.116h-3.072v-6.144h3.072m-3.072 3.072h1.997m-9.569 2.96v-7.931h2.578c1.487 0 2.677 1.19 2.677 2.677s-1.19 2.677-2.677 2.677H8.892m2.578-.099l2.578 2.578" stroke-miterlimit="10" stroke-width="1" stroke-linecap="round"/></svg>