<?xml version="1.0" encoding="utf-8"?>
<!-- Generator: Adobe Illustrator 27.2.0, SVG Export Plug-In . SVG Version: 6.00 Build 0)  -->
<svg version="1.1" id="Layer_3" xmlns="http://www.w3.org/2000/svg" xmlns:xlink="http://www.w3.org/1999/xlink" x="0px" y="0px"
	 viewBox="0 0 48 48" style="enable-background:new 0 0 48 48;" xml:space="preserve">
<style type="text/css">
	.st0{fill:none;stroke:#FFFFFF;stroke-miterlimit:10;}
	.st1{fill:none;stroke:#FFFFFF;stroke-linecap:round;stroke-linejoin:round;stroke-miterlimit:10;}
</style>
<g>
	<circle class="st0" cx="28.7" cy="15.4" r="8"/>
	<path class="st1" d="M2.2,6.6c1.3,0,5,0,6.4,0c0.3,0,0.5,0.2,0.5,0.5C9,9.8,9.5,22.7,22.7,28c0.5,0.2,1.1,0.3,1.7,0.3
		c3.5-0.2,17.3-0.3,22,7.1c0.1,0.1,0.1,0.2,0.1,0.3c0,0.7,0,4,0,5.3c0,0.3-0.2,0.5-0.5,0.5H13.8c-0.3,0-0.5-0.2-0.5-0.5v-9.2
		c0-0.3-0.1-0.5-0.4-0.6C10.9,29.8,0,22.5,1.7,7C1.7,6.8,1.9,6.6,2.2,6.6z"/>
</g>
</svg>
