<svg xmlns="http://www.w3.org/2000/svg" id="prefix__svg6" version="1.1" viewBox="0 0 48 48"><defs id="prefix__defs1"><style id="style1"></style></defs><g id="prefix__g3" transform="translate(-6.49 -4.696) scale(1.793)" stroke-width=".558" stroke-dasharray="none" fill="none" stroke="#fff" stroke-opacity="1"><path id="prefix__path1" d="M7 5.5A1.5 1.5 0 018.5 4h7A1.5 1.5 0 0117 5.5V12H8.5A1.5 1.5 0 017 10.5z"/><path id="prefix__path2" d="M17 12h8.5a1.5 1.5 0 011.5 1.5v5a1.5 1.5 0 01-1.5 1.5H17z"/><path id="prefix__path3-6" d="M7 21.5A1.5 1.5 0 018.5 20H17v6.5a1.5 1.5 0 01-1.5 1.5h-7A1.5 1.5 0 017 26.5z"/></g></svg>