<svg xmlns="http://www.w3.org/2000/svg" viewBox="0 0 48 48"><defs><style>.a{fill:none;stroke:#fff;stroke-linecap:round;stroke-linejoin:round;}</style></defs><path class="a" d="M32.41,26.4713a15.0443,15.0443,0,0,0-1.1136,4.6628c0,2.0026.9011,4.0552.9011,4.606s-3.104,3.955-3.905,4.4557a14.339,14.339,0,0,1-3.3042.9011A5.03,5.03,0,0,0,22.7356,43.5c-.3505-1.5645-.4631-2.0526-1.2892-2.6909s-1.5076-.8746-1.4325-1.3252"/><path class="a" d="M32.81,9.0532a28.8389,28.8389,0,0,0-9.4737-1.85c-3.4545,0-7.56.801-7.56,5.7573-2.353,1.4519-2.303,6.3582-2.303,6.3582"/><path class="a" d="M26.1847,7.3947A5.3684,5.3684,0,0,1,30.7208,4.5c2.5283,0,5.93,1.1241,6.1079,7.4345.0658,2.34-.0751,3.2918,0,4.2179s.8184,3.5671.0963,5.72-3.7761,5.5821-6.93,4.681-3.73-4.656-3.2041-6.9589,2.4031-6.3332,6.1579-5.432c0-1.552.751-7.1592-2.1027-7.1592a1.5756,1.5756,0,0,0-1.5892.9739"/><path class="a" d="M34.1,17.742c.5757.776,2.5783,3.7047.5757,5.6322-1.9624,1.8889-3.2542,1.4268-3.2542,1.4268S29.72,22.2978,30.7709,20.42A6.834,6.834,0,0,1,34.1,17.742Z"/><path class="a" d="M27.1869,24.0365c-.68,2.377,1.4688,6.1464,1.4688,8.4744,0,1.3142-1.1238,2.7109-3.0039,3.3793-1.69.6008-4.0176,3.8675-7.2843,3.8675s-6.4583-3.154-6.4583-6.1954,1.3893-6.0828,3.492-6.0828,2.4031,1.8023,3.8675,1.8023,4.2053-.9387,4.5433-3.5671a16.6139,16.6139,0,0,1,1.164-4.4183"/><path class="a" d="M14.9255,21.8222c-.851.9512-2.5031,3.75-2.5031,4.8788S13.9332,28.03,13.9332,28.03"/><path class="a" d="M20.1323,21.8222c0,2.5783-.9763,3.73-2.1778,3.73s-2.8036-1.6021-2.8036-3.905c0-1.08.15-1.527.9762-1.527h2.7536C19.3062,20.12,20.1323,21.078,20.1323,21.8222Z"/><path class="a" d="M19.4993,20.5H26.65"/><path class="a" d="M14.4105,22.4835c.0395-.6863.0144-2.0631-.2108-2.2133s-2.2029-1.2266-2.9538-.9512-.5507,3.2291.0751,4.1053a5.7078,5.7078,0,0,0,1.6224,1.5883"/><line class="a" x1="15.3186" y1="20.5001" x2="14.3104" y2="20.5001"/></svg>