<?xml version="1.0" encoding="UTF-8"?>
<svg version="1.1" viewBox="0 0 48 48" xmlns="http://www.w3.org/2000/svg">
 <defs>
  <style>.a{fill:none;stroke:#fff;stroke-linecap:round;stroke-linejoin:round;}</style>
 </defs>
 <path d="m22.5 5.58c-3.85 0.0988-8.1 0.494-9.29 0.79v0c1.19-0.296 5.43-0.691 9.29-0.79m2.37 5.53h-2.17c-0.198 0.889-0.296 1.78-0.395 2.67l-1.58 9.58h2.67c3.46 0 6.03-2.86 6.03-7.21 0-3.06-1.78-5.04-4.54-5.04m14.4 4.94c-0.296 4.35-3.06 7.9-7.31 10.2v0l3.85 10.2c1.09 2.77 1.78 3.85 2.96 4.74-0.296 0.198-0.593 0.296-0.889 0.395-1.88 0.593-3.95 0.988-5.93 0.889-1.98 0-4.64-0.494-6.32-5.33l-2.86-8.3h-2.86l-1.28 7.9c-0.198 0.889-0.296 1.78-0.296 2.67v0.198c0 0.494 0.0988 0.988 0.296 1.48v0c-2.17 0.988-5.14 1.28-6.91 1.28-1.48 0-2.86-0.494-2.96-3.06 0-0.691 0.0988-1.38 0.198-2.07l3.65-23.5c0.296-1.78 0.494-3.65 0.494-5.43v-1.88c1.19-0.296 5.43-0.79 9.29-0.79h4.25c2.57-0.0988 5.04 0.494 7.41 1.48 0.593 0.296 1.28 0.691 1.78 1.09 0.494 0.395 0.988 0.889 1.48 1.38 0.593 0.79 1.09 1.58 1.48 2.57 0.296 0.988 0.494 1.98 0.494 3.06v0.889" fill="none" stroke="#fff" stroke-linecap="round" stroke-linejoin="round"/>
</svg>
