<svg xmlns="http://www.w3.org/2000/svg" xml:space="preserve" id="svg1" version="1.1" viewBox="0 0 48 48"><defs id="defs1"><style id="style1">.a{fill:none;stroke:#fff;stroke-linecap:round;stroke-linejoin:round}</style></defs><path id="path1-2" d="M11.668 16.94c.256 1.295 1.571 2.125 2.937 1.855 1.936-.383 3.916-2.636 4.394-3.216a.141.141 0 0 0-.043-.217c-.657-.344-3.343-1.639-5.279-1.256-1.366.27-2.265 1.54-2.009 2.834z" class="a" style="fill:none;stroke:#fff;stroke-width:.999999;stroke-linecap:round;stroke-linejoin:round;stroke-dasharray:none;stroke-opacity:1"/><path id="path1" d="M40.5 5.5h-33a2 2 0 0 0-2 2v33a2 2 0 0 0 2 2h33a2 2 0 0 0 2-2v-33a2 2 0 0 0-2-2Z" class="a" style="stroke:#fff;stroke-opacity:1"/><g id="g1" style="stroke:#fff;stroke-width:1.6973;stroke-opacity:1" transform="matrix(.5886 0 0 .58974 9.874 9.846)"><path id="polygon1" d="m26.68 7.29 3.24 14.64 1.9-17.43 9.72 1.01-2.45 25.7L33.5 43.5 9.25 38.7 6.46 26.74 20.65 24 17.3 9.19z" class="a" style="stroke:#fff;stroke-width:1.6973;stroke-opacity:1"/><circle id="circle1" cx="30.78" cy="30.34" r="2.68" class="a" style="stroke:#fff;stroke-width:1.6973;stroke-opacity:1"/><circle id="circle2" cx="22.87" cy="29.19" r="2.68" class="a" style="stroke:#fff;stroke-width:1.6973;stroke-opacity:1"/></g><path id="path2" d="m17.852 5.5 2.204 9.766" style="fill:none;fill-rule:evenodd;stroke:#fff;stroke-width:.999994px;stroke-linecap:butt;stroke-linejoin:miter;stroke-opacity:1"/><path id="path10" d="m24.392 34.469 1.813 8.031" style="fill:none;fill-rule:evenodd;stroke:#fff;stroke-width:1px;stroke-linecap:butt;stroke-linejoin:miter;stroke-opacity:1"/><path id="path11" d="M11.653 16.942 5.5 18.177" style="fill:none;fill-rule:evenodd;stroke:#fff;stroke-width:1px;stroke-linecap:butt;stroke-linejoin:miter;stroke-opacity:1"/><path id="path11-0" d="m20.054 15.255-1.024.205" style="fill:none;fill-rule:evenodd;stroke:#fff;stroke-width:1px;stroke-linecap:butt;stroke-linejoin:miter;stroke-opacity:1"/><path id="path12" d="M13.676 25.616 5.5 27.198" style="fill:none;fill-rule:evenodd;stroke:#fff;stroke-width:1px;stroke-linecap:butt;stroke-linejoin:miter;stroke-opacity:1"/><path id="path13" d="m5.5 30.722 9.818 1.947 2.289 9.831" style="fill:none;fill-rule:evenodd;stroke:#fff;stroke-width:1px;stroke-linecap:butt;stroke-linejoin:miter;stroke-opacity:1"/><path id="path14" d="m29.592 35.5-3.178 7" style="fill:none;fill-rule:evenodd;stroke:#fff;stroke-width:1px;stroke-linecap:butt;stroke-linejoin:miter;stroke-opacity:1"/><path id="path15" d="m34.324 13.096 8.176.85" style="fill:none;fill-rule:evenodd;stroke:#fff;stroke-width:1px;stroke-linecap:butt;stroke-linejoin:miter;stroke-opacity:1"/><path id="path16" d="M25.577 14.145 23.667 5.5" style="fill:none;fill-rule:evenodd;stroke:#fff;stroke-width:1px;stroke-linecap:butt;stroke-linejoin:miter;stroke-opacity:1"/><path id="path17" d="m25.134 12.139 3.469.361.761-7" style="fill:none;fill-rule:evenodd;stroke:#fff;stroke-width:1px;stroke-linecap:butt;stroke-linejoin:miter;stroke-opacity:1"/><path id="path18" d="m34.324 13.096.723-7.596" style="fill:none;fill-rule:evenodd;stroke:#fff;stroke-width:1px;stroke-linecap:butt;stroke-linejoin:miter;stroke-opacity:1"/><path id="path19" d="M13.67 25.617 8.993 5.5" style="fill:none;fill-rule:evenodd;stroke:#fff;stroke-width:1px;stroke-linecap:butt;stroke-linejoin:miter;stroke-opacity:1"/><path id="path20" d="m32.882 28.252-.738 7.754" style="fill:none;fill-rule:evenodd;stroke:#fff;stroke-width:1px;stroke-linecap:butt;stroke-linejoin:miter;stroke-opacity:1"/><path id="path22" d="M29.592 35.5 42.5 38.06" style="fill:none;fill-rule:evenodd;stroke:#fff;stroke-width:1px;stroke-linecap:butt;stroke-linejoin:miter;stroke-opacity:1"/><path id="path23" d="m33.498 21.781 9.002-1.742" style="fill:none;fill-rule:evenodd;stroke:#fff;stroke-width:1px;stroke-linecap:butt;stroke-linejoin:miter;stroke-opacity:1"/></svg>