<?xml version="1.0" encoding="UTF-8" standalone="no"?>
<svg
   xmlns:dc="http://purl.org/dc/elements/1.1/"
   xmlns:cc="http://creativecommons.org/ns#"
   xmlns:rdf="http://www.w3.org/1999/02/22-rdf-syntax-ns#"
   xmlns:svg="http://www.w3.org/2000/svg"
   xmlns="http://www.w3.org/2000/svg"
   xmlns:sodipodi="http://sodipodi.sourceforge.net/DTD/sodipodi-0.dtd"
   xmlns:inkscape="http://www.inkscape.org/namespaces/inkscape"
   viewBox="0 0 48 48"
   version="1.1"
   id="svg8"
   sodipodi:docname="RNZ E-Paper.svg"
   inkscape:version="1.0.1 (3bc2e813f5, 2020-09-07)">
  <metadata
     id="metadata12">
    <rdf:RDF>
      <cc:Work
         rdf:about="">
        <dc:format>image/svg+xml</dc:format>
        <dc:type
           rdf:resource="http://purl.org/dc/dcmitype/StillImage" />
        <dc:title />
      </cc:Work>
    </rdf:RDF>
  </metadata>
  <sodipodi:namedview
     pagecolor="#ffffff"
     bordercolor="#666666"
     borderopacity="1"
     objecttolerance="10"
     gridtolerance="10"
     guidetolerance="10"
     inkscape:pageopacity="0"
     inkscape:pageshadow="2"
     inkscape:window-width="1920"
     inkscape:window-height="1027"
     id="namedview10"
     showgrid="false"
     inkscape:pagecheckerboard="true"
     showguides="true"
     inkscape:guide-bbox="true"
     inkscape:snap-text-baseline="true"
     inkscape:zoom="21.010003"
     inkscape:cx="20.613198"
     inkscape:cy="23.169532"
     inkscape:window-x="0"
     inkscape:window-y="0"
     inkscape:window-maximized="1"
     inkscape:current-layer="layer1"
     inkscape:snap-bbox="false"
     inkscape:document-rotation="0" />
  <defs
     id="defs4">
    <style
       id="style2">.a{fill:none;stroke:#fff;stroke-linecap:round;stroke-linejoin:round;}</style>
    <style
       id="style3239">.a{fill:none;stroke:#fff;stroke-linecap:round;stroke-linejoin:round;}</style>
  </defs>
  <g
     inkscape:groupmode="layer"
     id="layer1"
     inkscape:label="Arcticon"
     style="display:inline">
    <line
       class="st0"
       x1="6.42941"
       y1="39.35807"
       x2="10.42941"
       y2="39.35807"
       id="line1484" />
    <line
       class="st0"
       x1="6.42941"
       y1="31.358072"
       x2="10.42941"
       y2="31.358072"
       id="line1486" />
    <line
       class="st0"
       x1="6.42941"
       y1="35.35807"
       x2="9.0294161"
       y2="35.35807"
       id="line1488" />
    <line
       class="st0"
       x1="6.42941"
       y1="31.358072"
       x2="6.42941"
       y2="39.35807"
       id="line1490" />
    <path
       class="st0"
       d="m 16.11909,39.358072 v -8 h 2.6 c 1.5,0 2.7,1.2 2.7,2.7 0,1.5 -1.2,2.7 -2.7,2.7 h -2.6"
       id="path1524" />
    <path
       class="st0"
       d="m 41.27592,36.058072 c 0,-1.1 0.9,-2 2,-2 v 0"
       id="path1636" />
    <line
       class="st0"
       x1="41.275925"
       y1="34.058067"
       x2="41.275925"
       y2="39.35807"
       id="line1638" />
    <path
       class="st0"
       d="m 39.014564,38.358072 c -0.3,0.6 -1,1 -1.7,1 v 0 c -1.1,0 -2,-0.9 -2,-2 v -1.3 c 0,-1.1 0.9,-2 2,-2 v 0 c 1.1,0 2,0.9 2,2 v 0.7 h -4"
       id="path1770"
       style="display:inline" />
    <path
       class="st0"
       d="m 26.897499,37.358072 c 0,1.1 -0.9,2 -2,2 v 0 c -1.1,0 -2,-0.9 -2,-2 v -1.3 c 0,-1.1 0.9,-2 2,-2 v 0 c 1.1,0 2,0.9 2,2"
       id="path1798" />
    <line
       class="st0"
       x1="26.897499"
       y1="39.35807"
       x2="26.897499"
       y2="34.058067"
       id="line1802" />
    <line
       class="st0"
       x1="11.522988"
       y1="36.631393"
       x2="14.362524"
       y2="36.631393"
       id="line1852"
       style="display:inline;stroke-width:1" />
    <path
       class="st0"
       d="m 29.13428,37.358072 c 0,1.1 0.9,2 2,2 v 0 c 1.1,0 2,-0.9 2,-2 v -1.3 c 0,-1.1 -0.9,-2 -2,-2 v 0 c -1.1,0 -2,0.9 -2,2"
       id="path1924" />
    <line
       class="st0"
       x1="29.134277"
       y1="34.058067"
       x2="29.134277"
       y2="42.058067"
       id="line1928" />
    <path
       style="display:inline;fill:#ffffff;stroke:none;stroke-width:1"
       d="m 13.495513,27.979342 -1.069397,-0.654689 -0.01053,-5.239345 2.516574,5.239345 -0.871538,0.654689 v 0.384294 h 4.848485 V 27.979342 L 18.129466,27.324653 16.68412,24.306172 15.272728,21.339618 v -0.396022 c 0,0 1.062473,-0.800576 1.46852,-1.318038 0.382422,-0.487355 0.723278,-1.038458 0.876802,-1.638617 0.215572,-0.842716 0.205171,-1.758464 0.02492,-2.609435 -0.136944,-0.646516 -0.439801,-1.26479 -0.821098,-1.804557 -0.310215,-0.439143 -0.703658,-0.836726 -1.160467,-1.120284 -0.482889,-0.299747 -1.605595,-0.573877 -1.605595,-0.573877 -2.039498,-8e-6 -6.050134,0 -6.050134,0 l -0.00297,0.37694 1.2094765,0.870347 -0.00126,14.198578 L 8,27.979342 v 0.384294 l 5.489185,8e-6 z M 12.363636,13.090909 h 0.522145 c 0.616894,0.387954 1.058807,0.830508 1.388439,1.369548 0.329632,0.53904 0.469939,1.12889 0.553553,1.755595 0.08361,0.626705 0.02289,1.371502 -0.07841,1.951177 -0.1013,0.579675 -0.160719,1.03294 -0.475143,1.504774 -0.314424,0.471834 -0.786554,0.86562 -1.393858,1.176482 h -0.516724 z m 11.151516,14.863026 -0.958843,-0.629282 0.0063,-8.536774 4.456588,9.575765 h 2.67714 l 0.1248,-15.478023 1.043231,-0.629893 -0.0026,-0.37694 h -4.087002 l 0.0015,0.37694 1.091708,0.629893 -0.0018,9.641548 -4.472121,-10.648381 -3.515154,-0.0031 0.0026,0.380042 0.724678,0.62027 -0.0018,14.448655 -0.967889,0.654689 v 0.384314 h 3.878788 l -1.07e-4,-0.409723 z m 16,-3.469087 h -0.383845 l -1.307857,2.666667 h -2.704609 l 5.127603,-14.895787 -0.004,-0.37694 H 32 v 3.636364 h 0.45688 l 1.361302,-2.42375 2.539783,-4.93e-4 -5.081587,14.888433 -0.0037,0.384302 h 8.242425 z"
       id="path3273"
       sodipodi:nodetypes="ccccccccccccsssssccccccccccczzzzcccccccccccccccccccccccccccccccccccccccc" />
  </g>
  <style
     type="text/css"
     id="style1415">
	.st0{fill:none;stroke:#FFFFFF;stroke-linecap:round;stroke-linejoin:round;stroke-miterlimit:10;}
	.st1{fill:#FFFFFF;}
	.st2{fill:none;stroke:#FFFFFF;stroke-width:1;stroke-linecap:round;stroke-linejoin:round;stroke-miterlimit:10;}
	.st3{fill:none;stroke:#FFFFFF;stroke-width:1;stroke-linecap:round;stroke-linejoin:round;stroke-miterlimit:10;}
	.st4{fill:none;stroke:#FFFFFF;stroke-width:1;stroke-linecap:round;stroke-linejoin:round;stroke-miterlimit:10;}
</style>
</svg>
