<?xml version="1.0" encoding="UTF-8" standalone="no"?>
<svg
   viewBox="0 0 48 48"
   version="1.1"
   id="svg1723"
   sodipodi:docname="roblox.svg"
   inkscape:version="1.1 (1:1.1+202106031931+af4d65493e)"
   xmlns:inkscape="http://www.inkscape.org/namespaces/inkscape"
   xmlns:sodipodi="http://sodipodi.sourceforge.net/DTD/sodipodi-0.dtd"
   xmlns="http://www.w3.org/2000/svg"
   xmlns:svg="http://www.w3.org/2000/svg">
  <sodipodi:namedview
     id="namedview1725"
     pagecolor="#ffffff"
     bordercolor="#666666"
     borderopacity="1.0"
     inkscape:pageshadow="2"
     inkscape:pageopacity="0"
     inkscape:pagecheckerboard="false"
     showgrid="false"
     inkscape:zoom="13.458333"
     inkscape:cx="15.900929"
     inkscape:cy="23.962849"
     inkscape:window-width="1920"
     inkscape:window-height="1003"
     inkscape:window-x="0"
     inkscape:window-y="0"
     inkscape:window-maximized="1"
     inkscape:current-layer="svg1723" />
  <defs
     id="defs1719">
    <style
       id="style1717">.a{fill:none;stroke:#fff;stroke-linecap:round;stroke-linejoin:round;}</style>
  </defs>
  <path
     class="a"
     d="M 41.429479,12.56382 14.623719,5.3812376 A 1.6819009,1.6819009 45 0 0 12.56382,6.5705211 L 5.3812374,33.376281 a 1.6819009,1.6819009 45 0 0 1.1892835,2.059899 l 26.8057611,7.182582 a 1.6819009,1.6819009 45 0 0 2.059899,-1.189283 l 7.182582,-26.80576 A 1.6819009,1.6819009 45 0 0 41.429479,12.56382 Z"
     id="path2358"
     style="fill:none;stroke:#ffffff;stroke-width:1;stroke-linecap:round;stroke-linejoin:round;stroke-miterlimit:4;stroke-dasharray:none" />
  <path
     class="a"
     d="M 29.369998,20.47653 21.11118,18.263586 a 0.51819133,0.51819133 0 0 0 -0.634651,0.366416 l -2.212943,8.258818 a 0.51819133,0.51819133 0 0 0 0.366416,0.634651 l 8.258817,2.212943 a 0.51819133,0.51819133 0 0 0 0.634651,-0.366416 l 2.212944,-8.258817 A 0.51819133,0.51819133 0 0 0 29.369998,20.47653 Z"
     id="path830"
     style="fill:none;stroke:#ffffff;stroke-width:1;stroke-linecap:round;stroke-linejoin:round;stroke-miterlimit:4;stroke-dasharray:none" />
</svg>
