<svg viewBox="0 0 48 48" version="1.1" id="svg5338" xmlns="http://www.w3.org/2000/svg">
  <defs id="defs5334">
    <style id="style5332">
      .a{fill:none;stroke:#fff;stroke-linecap:round;stroke-linejoin:round}
    </style>
  </defs>
  <path class="a" d="M43.5 37.5v-27a2 2 0 0 0-2-2h-35a2 2 0 0 0-2 2v27a2 2 0 0 0 2 2h35a2 2 0 0 0 2-2Z" id="path5336"/>
  <path class="a" d="M40.5 34.9V13a1.7 1.6 0 0 0-1.7-1.6H9.2A1.7 1.6 0 0 0 7.5 13v22a1.7 1.6 0 0 0 1.7 1.6h29.6a1.7 1.6 0 0 0 1.7-1.6Z" id="path5342" stroke-width="1"/>
  <path d="m7.5 26 2-10 .5 14 2-8 3 3 2-10 .5 14.5 2-6.5 3 2 1-3 .8 9 1.2-2" id="path5391" fill="none" stroke="#fff" stroke-linecap="round" stroke-linejoin="round"/>
  <path d="M23.5 15.9h14V29h-12v-3H31v-4h-7.5z" id="path5403" fill="none" stroke="#fff" stroke-linecap="round" stroke-linejoin="round"/>
  <path d="M18 32v1.5" id="path5413" fill="none" stroke="#fff" stroke-linecap="round" stroke-linejoin="round"/>
  <path d="M25.5 32v1.5h-15V32" id="path5417" fill="none" stroke="#fff" stroke-linecap="round" stroke-linejoin="round"/>
  <path d="M31 26h6.5" id="path5423" fill="none" stroke="#fff" stroke-linecap="round" stroke-linejoin="round"/>
  <path d="M31 22v-6.1" id="path5425" fill="none" stroke="#fff" stroke-linecap="round" stroke-linejoin="round"/>
</svg>
