<svg id="Layer_1" data-name="Layer 1" xmlns="http://www.w3.org/2000/svg" viewBox="0 0 48 48"><defs><style>.cls-1{fill:none;stroke:#fff;stroke-linecap:round;stroke-linejoin:round;}</style></defs><polyline class="cls-1" points="17.352 30.594 17.352 12.747 29.213 12.747 29.213 19.398 27.024 21.587 17.352 21.671"/><polyline class="cls-1" points="27.024 21.587 29.324 23.888 29.324 30.594"/><path class="cls-1" d="M12.88113,6.98336h20.581a2.40157,2.40157,0,0,1,2.40156,2.40157V31.629a2.40157,2.40157,0,0,1-.93621,1.90269l-10.19238,7.8496a2.40157,2.40157,0,0,1-2.91452.01235L11.43085,33.53146a2.40153,2.40153,0,0,1-.95239-1.91516l.0011-22.23149A2.40158,2.40158,0,0,1,12.88113,6.98336Z"/></svg>