<?xml version="1.0" encoding="UTF-8"?>
<svg width="48" height="48" version="1.1" viewBox="0 0 48 48" xml:space="preserve" xmlns="http://www.w3.org/2000/svg"><defs><style>.a{fill:none;stroke:#fff;stroke-linecap:round;stroke-linejoin:round;}</style></defs><g transform="matrix(1.5217572,0,0,1.5217572,-12.522173,-6.9071054)" fill="none" stroke="#fff" stroke-linecap="round" stroke-linejoin="round" stroke-width="1"><path d="m31.992508 25.518355c-2.192356-1.930288-6.00364-2.531475-7.992508-2.531472s-5.800152 0.601184-7.992508 2.531472m15.085101 1.708645c-2.192356-1.930288-5.103225-2.231313-7.092093-2.23131s-4.900551 0.201022-7.092907 2.13131" stop-color="#000000"/><circle cx="23.99991" cy="19.666107" r="1.6728539" stop-color="#000000"/><ellipse cx="24" cy="15.066253" rx="1.6729661" ry="1.6729679" stop-color="#000000"/><circle transform="rotate(16.729701)" cx="33.140736" cy="11.178937" r="1.6728539" stop-color="#000000"/><ellipse transform="rotate(16.729701)" cx="33.140823" cy="6.579083" rx="1.6729661" ry="1.6729679" stop-color="#000000"/><circle transform="rotate(29.204015)" cx="39.313995" cy="3.2380152" r="1.6728539" stop-color="#000000"/><ellipse transform="rotate(29.204015)" cx="39.314087" cy="-1.3618394" rx="1.6729661" ry="1.6729679" stop-color="#000000"/><circle transform="matrix(-.9576734 .287857 .287857 .9576734 0 0)" cx="-12.827589" cy="24.996073" r="1.6728539" stop-color="#000000"/><ellipse transform="matrix(-.9576734 .287857 .287857 .9576734 0 0)" cx="-12.827499" cy="20.396219" rx="1.6729661" ry="1.6729679" stop-color="#000000"/><circle transform="matrix(-.87288789 .48792083 .48792083 .87288789 0 0)" cx="-2.5846217" cy="26.658215" r="1.6728539" stop-color="#000000"/><ellipse transform="matrix(-.87288789 .48792083 .48792083 .87288789 0 0)" cx="-2.584532" cy="22.058361" rx="1.6729661" ry="1.6729679" stop-color="#000000"/></g></svg>
