<svg xmlns="http://www.w3.org/2000/svg" viewBox="0 0 48 48"><defs><style>.a{fill:none;stroke:#fff;stroke-linecap:round;stroke-linejoin:round;}</style></defs> <path class="a"                    d="M24.23,2.44C36.17,2.44,45.84,12.17,45.84,24.18C45.84,36.18,36.17,45.92,24.23,45.92C12.30,45.92,2.63,36.18,2.63,24.18C2.63,12.17,12.30,2.44,24.23,2.44z"/> <path class="a"                    d="M19.03,21.30C27.82,12.10,34.52,12.79,30.82,20.38C31.28,15.09,26.20,15.09,19.03,21.30z"/> <path class="a"                    d="M23.33,12.14C28.28,6.12,33.36,6.81,34.06,13.02C31.51,9.57,26.66,10.03,23.33,12.14z"/> <path class="a"                    d="M14.61,11.36C16.47,11.65,17.57,14.47,17.08,17.68C16.59,20.88,14.68,23.25,12.83,22.96C10.97,22.68,9.86,19.85,10.36,16.64C10.85,13.44,12.75,11.07,14.61,11.36z"/> <path class="a"                    d="M13.26,16.93C14.41,24.06,18.57,12.10,13.95,15.32Q14.87,16.93,13.26,16.93z"/> <path class="a"                    d="M7.94,25.44C15.80,27.74,26.20,27.51,39.14,19.00C34.52,40.62,19.96,54.66,7.94,25.44z"/> <path class="a"                    d="M18.34,40.62C22.27,35.33,23.43,33.95,32.90,35.10"/> <path class="a"                    d="M17.42,3.82Q19.03,6.35,19.03,9.80Q16.95,4.51,10.02,8.19"/></svg>