<?xml version="1.0" encoding="UTF-8" standalone="no"?>
<svg
   xmlns:dc="http://purl.org/dc/elements/1.1/"
   xmlns:cc="http://creativecommons.org/ns#"
   xmlns:rdf="http://www.w3.org/1999/02/22-rdf-syntax-ns#"
   xmlns:svg="http://www.w3.org/2000/svg"
   xmlns="http://www.w3.org/2000/svg"
   xmlns:sodipodi="http://sodipodi.sourceforge.net/DTD/sodipodi-0.dtd"
   xmlns:inkscape="http://www.inkscape.org/namespaces/inkscape"
   viewBox="0 0 48 48"
   version="1.1"
   id="svg8"
   sodipodi:docname="rp.svg"
   inkscape:version="1.0.2 (1.0.2+r75+1)">
  <metadata
     id="metadata12">
    <rdf:RDF>
      <cc:Work
         rdf:about="">
        <dc:format>image/svg+xml</dc:format>
        <dc:type
           rdf:resource="http://purl.org/dc/dcmitype/StillImage" />
        <dc:title></dc:title>
      </cc:Work>
    </rdf:RDF>
  </metadata>
  <sodipodi:namedview
     pagecolor="#ffffff"
     bordercolor="#666666"
     borderopacity="1"
     objecttolerance="10"
     gridtolerance="10"
     guidetolerance="10"
     inkscape:pageopacity="0"
     inkscape:pageshadow="2"
     inkscape:window-width="1920"
     inkscape:window-height="1055"
     id="namedview10"
     showgrid="false"
     inkscape:pagecheckerboard="true"
     inkscape:snap-global="false"
     inkscape:zoom="11.313709"
     inkscape:cx="13.132158"
     inkscape:cy="20.822037"
     inkscape:window-x="0"
     inkscape:window-y="0"
     inkscape:window-maximized="1"
     inkscape:current-layer="layer2"
     showguides="true"
     inkscape:guide-bbox="true" />
  <defs
     id="defs4">
    <style
       id="style2">.a{fill:none;stroke:#fff;stroke-linecap:round;stroke-linejoin:round;}</style>
  </defs>
  <g
     inkscape:groupmode="layer"
     id="layer2"
     inkscape:label="Arcticon"
     style="display:inline">
    <path
       id="path903"
       style="fill:none;stroke:#ffffff;stroke-width:1;stroke-linecap:round;stroke-linejoin:miter;stroke-miterlimit:4;stroke-dasharray:none"
       d="M 23.96875,5.6171875 C 13.828198,5.6339174 5.6166642,13.859434 5.6171875,24 5.6166777,34.152758 13.847242,42.383322 24,42.382812 c 0.154975,-6.44e-4 0.309935,-0.0032 0.464844,-0.0078 h 14.542287 c 1.318122,0.07727 3.315556,-1.216917 3.373728,-3.142514 V 24.1797 24.13478 c 8.16e-4,-0.04492 0.0015,-0.08984 0.002,-0.134766 C 42.383322,13.847242 34.152758,5.6166777 24,5.6171875 Z"
       sodipodi:nodetypes="cccccccccsc" />
    <ellipse
       style="fill:none;stroke:#ffffff;stroke-width:1.00079;stroke-linecap:round;stroke-linejoin:miter;stroke-miterlimit:4;stroke-dasharray:none"
       id="path936"
       cx="18.989716"
       cy="28.58606"
       rx="15.717335"
       ry="12.447101"
       transform="matrix(0.96754227,-0.25270922,0.19807914,0.98018603,0,0)" />
    <g
       id="g517"
       transform="matrix(2.3712471,-0.59856591,0.59856591,2.3712471,-555.17295,-141.4133)"
       style="display:inline;fill:none;stroke:#ffffff;stroke-width:0.408893;stroke-miterlimit:4;stroke-dasharray:none">
      <g
         id="g513"
         style="fill:none;stroke:#ffffff;stroke-width:0.408893;stroke-miterlimit:4;stroke-dasharray:none">
        <path
           class="st0"
           d="m 213.2,124.5 c 0,1.1 0.9,2 2,2 v 0 c 1.1,0 2,-0.9 2,-2 v -1.3 c 0,-1.1 -0.9,-2 -2,-2 v 0 c -1.1,0 -2,0.9 -2,2"
           id="path511"
           style="fill:none;stroke:#ffffff;stroke-width:0.408893;stroke-miterlimit:4;stroke-dasharray:none" />
      </g>
      <line
         class="st0"
         x1="213.2"
         y1="121.2"
         x2="213.2"
         y2="129.2"
         id="line515"
         style="fill:none;stroke:#ffffff;stroke-width:0.408893;stroke-miterlimit:4;stroke-dasharray:none" />
    </g>
    <g
       id="g227"
       transform="matrix(2.4313583,-0.62262727,0.62262727,2.4313583,-629.74768,-132.6414)"
       style="display:inline;fill:none;stroke:#ffffff;stroke-width:0.398436;stroke-miterlimit:4;stroke-dasharray:none">
      <path
         class="st0"
         d="m 234.3,123.2 c 0,-1.1 0.9,-2 2,-2 v 0"
         id="path223"
         style="fill:none;stroke:#ffffff;stroke-width:0.398436;stroke-miterlimit:4;stroke-dasharray:none" />
      <line
         class="st0"
         x1="234.3"
         y1="121.2"
         x2="234.3"
         y2="126.5"
         id="line225"
         style="fill:none;stroke:#ffffff;stroke-width:0.398436;stroke-miterlimit:4;stroke-dasharray:none" />
    </g>
  </g>
</svg>
