<?xml version="1.0" encoding="UTF-8" standalone="no"?>
<svg
   viewBox="0 0 48 48"
   version="1.1"
   id="svg8"
   xml:space="preserve"
   xmlns="http://www.w3.org/2000/svg"
   xmlns:svg="http://www.w3.org/2000/svg"><defs
     id="defs4"><style
       id="style2">.a{fill:none;stroke:#fff;stroke-linecap:round;stroke-linejoin:round;}</style><style
       id="style822">.cls-1{fill:none;stroke:#000;stroke-linecap:round;stroke-linejoin:round;}</style><style
       id="style913">.cls-1{fill:none;stroke:#fff;stroke-linecap:round;stroke-linejoin:round;}</style></defs><path
     class="st0"
     d="m 38.901661,31.200579 v 0 c -1.980164,0 -3.600296,-1.620133 -3.600296,-3.600295 v -2.340192 c 0,-1.980163 1.620132,-3.600293 3.600296,-3.600293 v 0 c 1.980164,0 3.600295,1.62013 3.600295,3.600293 v 2.340192 c 0,1.980162 -1.620131,3.600295 -3.600295,3.600295 z"
     id="path330"
     style="fill:none;stroke:#ffffff;stroke-width:1;stroke-linecap:round;stroke-linejoin:round;stroke-miterlimit:10" /><g
     id="g454"
     transform="matrix(1.8001473,0,0,1.8001473,-167.38076,-221.72012)"
     style="stroke-width:0.55551">
		<g
   id="g450"
   style="stroke-width:0.55551">
			<path
   class="st0"
   d="m 110.5,140.5 v -7.2 c 0,-0.4 0.4,-0.8 0.8,-0.8 h 0.9"
   id="path448"
   style="fill:none;stroke:#ffffff;stroke-width:0.55551;stroke-linecap:round;stroke-linejoin:round;stroke-miterlimit:10" />
		</g>
		<line
   class="st0"
   x1="109.4"
   y1="135.2"
   x2="112.2"
   y2="135.2"
   id="line452"
   style="fill:none;stroke:#ffffff;stroke-width:0.55551;stroke-linecap:round;stroke-linejoin:round;stroke-miterlimit:10" />
	</g><g
     id="g538"
     transform="matrix(1.8001473,0,0,1.8001473,-326.13928,-196.51809)"
     style="stroke-width:0.55551">
		<path
   class="st0"
   d="m 197.2,126.5 v -3.3 c 0,-1.1 -0.9,-2 -2,-2 v 0 c -1.1,0 -2,0.9 -2,2 v 3.3"
   id="path534"
   style="fill:none;stroke:#ffffff;stroke-width:0.55551;stroke-linecap:round;stroke-linejoin:round;stroke-miterlimit:10" />
		<line
   class="st0"
   x1="193.2"
   y1="123.2"
   x2="193.2"
   y2="121.2"
   id="line536"
   style="fill:none;stroke:#ffffff;stroke-width:0.55551;stroke-linecap:round;stroke-linejoin:round;stroke-miterlimit:10" />
	</g><g
     id="g186"
     transform="matrix(1.8001473,0,0,1.8001473,-235.34053,-174.91628)"
     style="stroke-width:0.55551">
		<line
   class="st0"
   x1="141.2"
   y1="106.5"
   x2="141.2"
   y2="114.5"
   id="line184"
   style="fill:none;stroke:#ffffff;stroke-width:0.55551;stroke-linecap:round;stroke-linejoin:round;stroke-miterlimit:10" />
	</g><g
     id="g1094"
     transform="matrix(0,-0.78999499,0.78999499,0,-10.409705,37.367604)"
     style="stroke-width:1.26583"><g
       id="g396"
       transform="translate(-222.00026,-69.898936)"
       style="stroke-width:1.26583">
		<path
   class="st0"
   d="m 242.7,100.1 c 0.5,0.6 1.1,0.9 2,0.9 h 1.2 c 1.1,0 2,-0.9 2,-2 v 0 c 0,-1.1 -0.9,-2 -2,-2 h -1.3 c -1.1,0 -2,-0.9 -2,-2 v 0 c 0,-1.1 0.9,-2 2,-2 h 1.2 c 0.9,0 1.5,0.2 2,0.9"
   id="path394"
   style="fill:none;stroke:#ffffff;stroke-width:1.26583;stroke-linecap:round;stroke-linejoin:round;stroke-miterlimit:10" />
	</g><g
       id="g262"
       transform="translate(-238.22887,-69.898936)"
       style="stroke-width:1.26583">
		<line
   class="st0"
   x1="252.5"
   y1="93"
   x2="257.79999"
   y2="93"
   id="line258"
   style="fill:none;stroke:#ffffff;stroke-width:1.26583;stroke-linecap:round;stroke-linejoin:round;stroke-miterlimit:10" />
		<line
   class="st0"
   x1="255.2"
   y1="101"
   x2="255.2"
   y2="93"
   id="line260"
   style="fill:none;stroke:#ffffff;stroke-width:1.26583;stroke-linecap:round;stroke-linejoin:round;stroke-miterlimit:10" />
	</g><g
       id="g1011"
       transform="translate(0,1.115594)"
       style="stroke-width:1.26583"><g
         id="g250"
         transform="translate(-224.55749,-71.01453)"
         style="stroke-width:1.26583">
		<path
   class="st0"
   d="m 232.5,101 v -8 h 2.6 c 1.5,0 2.7,1.2 2.7,2.7 0,1.5 -1.2,2.7 -2.7,2.7 h -2.6"
   id="path248"
   style="fill:none;stroke:#ffffff;stroke-width:1.26583;stroke-linecap:round;stroke-linejoin:round;stroke-miterlimit:10" />
	</g><path
         id="line252"
         style="fill:none;stroke:#ffffff;stroke-width:1.26583;stroke-linecap:round;stroke-linejoin:round;stroke-miterlimit:10"
         class="st0"
         d="m 10.828151,27.370799 2.414362,2.614671" /></g></g><rect
     style="font-variation-settings:normal;opacity:1;vector-effect:none;fill:none;fill-opacity:1;fill-rule:evenodd;stroke:#ffffff;stroke-width:1;stroke-linecap:round;stroke-linejoin:round;stroke-miterlimit:4;stroke-dasharray:none;stroke-dashoffset:0;stroke-opacity:1;-inkscape-stroke:none;stop-color:#000000;stop-opacity:1"
     id="rect1292"
     width="11"
     height="22"
     x="5.4999971"
     y="13" /></svg>
