<?xml version="1.0" encoding="UTF-8" standalone="no"?>
<svg
   xmlns:dc="http://purl.org/dc/elements/1.1/"
   xmlns:cc="http://creativecommons.org/ns#"
   xmlns:rdf="http://www.w3.org/1999/02/22-rdf-syntax-ns#"
   xmlns:svg="http://www.w3.org/2000/svg"
   xmlns="http://www.w3.org/2000/svg"
   viewBox="0 0 48 48"
   version="1.1"
   id="svg881">
  <metadata
     id="metadata885">
    <rdf:RDF>
      <cc:Work
         rdf:about="">
        <dc:format>image/svg+xml</dc:format>
        <dc:type
           rdf:resource="http://purl.org/dc/dcmitype/StillImage" />
        <dc:title></dc:title>
      </cc:Work>
    </rdf:RDF>
  </metadata>
  <path
     id="rect1887"
     style="fill:none;stroke:#ffffff;stroke-width:1;stroke-linecap:round;stroke-linejoin:round;stroke-miterlimit:4;stroke-dasharray:none;stroke-opacity:1"
     transform="rotate(43.537621)"
     d="m 26.945839,2.3986142 h 1.677231 v 3.6266725 h -1.677231 z m 1.669707,4.8966714 -0.08727,1.3418665 -5.40741,-0.3516735 0.08727,-1.3418665 z m 3.221138,-16.8924489 0.0063,1.3446866 -5.418774,0.025308 -0.0063,-1.3446867 z m -5.288768,2.6273074 1.640457,-0.083821 0.153408,3.0023285 -1.640457,0.083821 z m 18.316568,8.6755556 1.020448,1.2720542 -3.705079,2.9722336 -1.020449,-1.2720543 z m -7.102662,-3.9499172 2.073114,-0.051148 0.197418,8.0016935 -2.073115,0.051148 z m 3.794089,2.21445236 0.102705,-1.91746826 9.2882,0.4975027 -0.102705,1.91746832 z m -14.6917,1.12538954 0.07648,-3.7330707 9.546586,0.1955792 -0.07648,3.7330707 z m -1.760608,-3.2069345 a 2.1455126,2.1455126 0 0 1 -0.07744,3.03322393 2.1455126,2.1455126 0 0 1 -3.033225,-0.0774341 2.1455126,2.1455126 0 0 1 0.07744,-3.03322534 2.1455126,2.1455126 0 0 1 3.033225,0.077435 z" />
</svg>
