<?xml version="1.0" encoding="UTF-8"?>
<svg version="1.1" viewBox="0 0 48 48" xmlns="http://www.w3.org/2000/svg">
    <defs>
        <style>.a{fill:none;stroke:#fff;stroke-linecap:round;stroke-linejoin:round;}</style>
    </defs>
    <circle class="a" cx="24" cy="24" r="21.5"/>
    <path d="m28.287 10.205a13.795 13.795 0 0 0-5.0371 1.002 6.5087 6.5087 0 0 1 1.9551 4.6484 6.5087 6.5087 0 0 1-6.5098 6.5078 6.5087 6.5087 0 0 1-3.7852-1.2148 13.795 13.795 0 0 0-0.29883 2.8516 13.795 13.795 0 0 0 13.795 13.795 13.795 13.795 0 0 0 13.795-13.795 13.795 13.795 0 0 0-13.795-13.795 13.795 13.795 0 0 0-0.11914 0z" fill="none" stroke="#fff" stroke-linecap="round" stroke-linejoin="round"/>
</svg>
