<?xml version="1.0" encoding="utf-8"?>
<!DOCTYPE svg PUBLIC "-//W3C//DTD SVG 1.1//EN" "http://www.w3.org/Graphics/SVG/1.1/DTD/svg11.dtd">
<svg version="1.1" id="Layer_1" xmlns="http://www.w3.org/2000/svg" xmlns:xlink="http://www.w3.org/1999/xlink" x="0px" y="0px"
	 width="48px" height="48px" viewBox="0 0 48 48" enable-background="new 0 0 48 48" xml:space="preserve">
<rect display="none" fill="#282828" width="48" height="48"/>
<g id="square" display="none">
	<defs>
		<rect id="SVGID_1_" width="48" height="48"/>
	</defs>
	<clipPath id="SVGID_2_" display="inline">
		<use xlink:href="#SVGID_1_"  display="none" overflow="visible"/>
	</clipPath>
	
		<path display="inline" clip-path="url(#SVGID_2_)" fill="none" stroke="#FFFFFF" stroke-linecap="round" stroke-linejoin="round" d="
		M40.5,5.5h-33c-1.105,0-2,0.895-2,2v33c0,1.105,0.895,2,2,2h33c1.105,0,2-0.895,2-2v-33C42.5,6.395,41.605,5.5,40.5,5.5z"/>
</g>
<image display="none" overflow="visible" width="192" height="192" xlink:href="ic_launcher9.png"  transform="matrix(0.2422 0 0 0.2422 90.7539 0)">
</image>
<image display="none" overflow="visible" width="192" height="192" xlink:href="ic_launcher_round3.png"  transform="matrix(0.2059 0 0 0.2059 51.4707 3.7285)">
</image>
<g id="pill">
	<path fill="none" d="M35.264,21.525"/>
	<path fill="none" stroke="#FFFFFF" stroke-linecap="round" stroke-linejoin="round" d="M22.716,34.049"/>
	<path fill="none" stroke="#FFFFFF" stroke-linecap="round" stroke-linejoin="round" d="M12.936,24.653"/>
	<g>
		
			<line fill="none" stroke="#FFFFFF" stroke-linecap="round" stroke-linejoin="round" x1="25.461" y1="13.042" x2="12.913" y2="25.591"/>
		
			<line fill="none" stroke="#FFFFFF" stroke-linecap="round" stroke-linejoin="round" x1="22.669" y1="35.011" x2="35.217" y2="22.462"/>
		<path fill="none" stroke="#FFFFFF" stroke-linecap="round" stroke-linejoin="round" d="M35.217,22.462
			c5.168-5.986-4.014-14.594-9.781-9.395"/>
		<path fill="none" stroke="#FFFFFF" stroke-linecap="round" stroke-linejoin="round" d="M12.889,25.59
			c-5.436,5.499,4.014,14.594,9.78,9.396"/>
		<line fill="none" stroke="#FFFFFF" stroke-miterlimit="10" x1="19.187" y1="19.316" x2="28.76" y2="28.921"/>
	</g>
</g>
<line fill="none" x1="57.762" y1="43.139" x2="67.334" y2="52.743"/>
<circle id="circle" display="none" fill="none" stroke="#FFFFFF" stroke-linecap="round" stroke-linejoin="round" cx="24" cy="24" r="18.164"/>
</svg>
