<svg xmlns="http://www.w3.org/2000/svg" viewBox="0 0 48 48"><defs><style>.a{fill:none;stroke:#fff;stroke-linecap:round;stroke-linejoin:round;}</style></defs> <path  class="a"  d="M9.56,26.54L16.93,19.09L20.41,20.71L30.38,10.68L37.68,18.06L27.79,28.10L29.12,31.68L21.96,38.86L18.07,30.45L9.56,26.54z"/> <path  class="a"  d="M35.18,9.77L39.65,8.96L38.79,13.52L35.18,9.77z"/> <path  class="a"  d="M8.95,32.20L11.26,29.72L16.58,32.27L18.58,37.08L16.25,39.57L13.92,34.53L8.95,32.20z"/> <path  class="a"  d="M28.93,17.25C30.23,17.25,31.28,18.28,31.28,19.55C31.28,20.81,30.23,21.84,28.93,21.84C27.64,21.84,26.59,20.81,26.59,19.55C26.59,18.28,27.64,17.25,28.93,17.25z"/></svg>