<?xml version="1.0" encoding="utf-8"?>
<!-- Generator: Adobe Illustrator 27.2.0, SVG Export Plug-In . SVG Version: 6.00 Build 0)  -->
<svg version="1.1" id="Layer_3" xmlns="http://www.w3.org/2000/svg" xmlns:xlink="http://www.w3.org/1999/xlink" x="0px" y="0px"
	 viewBox="0 0 48 48" style="enable-background:new 0 0 48 48;" xml:space="preserve">
<style type="text/css">
	.st0{fill:none;stroke:#FFFFFF;stroke-miterlimit:10;}
	.st1{fill:none;stroke:#FFFFFF;stroke-linecap:round;stroke-linejoin:round;}
</style>
<g>
	<path class="st0" d="M46.9,31.1v0.7c0,4.1-3.3,7.4-7.4,7.4H11.6c-0.4,0-0.8,0-1.2-0.1c-0.2,0-0.3,0-0.5,0c-4.9,0-8.8-4-8.8-8.9
		c0-4.6,3.5-8.4,8-8.8c1.4-7.2,7.8-12.7,15.5-12.7c8.5,0,15.4,6.7,15.8,15C44,24.1,46.9,27.3,46.9,31.1z"/>
	<path class="st1" d="M30.2,31.9c1.1-1.1,1.9-2.6,2.2-4.1c0.8-4.3-2-8.6-6.3-9.4"/>
	<path class="st1" d="M18.8,20.6c-1.1,1.1-1.9,2.6-2.2,4.1c-0.8,4.3,2,8.5,6.3,9.4"/>
	<polygon class="st1" points="30.9,32.6 33,34.7 33,34.7 27.2,34.7 27.2,28.9 29.3,31 	"/>
	<polygon class="st1" points="18.1,19.8 16,17.7 21.8,17.7 21.8,23.6 19.7,21.4 	"/>
</g>
</svg>
