<svg width="48" height="48" version="1.1" viewBox="0 0 48 48" xml:space="preserve" xmlns="http://www.w3.org/2000/svg"><defs><style>.a{fill:none;stroke:#fff;stroke-linecap:round;stroke-linejoin:round;}</style></defs><g transform="matrix(1.0312 0 0 1.0316 -1.1729 -.55836)" fill="none" stroke="#fff" stroke-width=".96956"><circle class="a" cx="20.572" cy="15.021" r="3.2795" stroke-width=".96955"/><g stroke-linecap="round" stroke-linejoin="round"><circle class="a" cx="38.055" cy="25.839" r="3.2795" stroke-width=".96955"/><path d="m11.418 13.868 10.784 10.784c1.1983 1.1983 0.10993 11.652-6.2942 11.652-7.4858 0-9.0419-2.4034-9.0419-2.4034l4.7123-4.7123c2.5849 2.5849 5.5308-0.75532 4.1879-2.0982-0.86321-0.72575-5.8609-5.8609-5.8609-5.8609z" stroke-width=".96956" style="paint-order:stroke fill markers"/><path d="m40.025 11.31h-7.1646s-3.4696 0.13472-4.5289 4.0882l-5.4878 20.481h6.9399l4.0381-15.07s0.58462-2.8417 2.8417-2.8417h5.2923z" stroke-width=".96956" style="paint-order:stroke fill markers"/></g></g></svg>
