<svg width="48" height="49" viewBox="0 0 48 49" fill="none" xmlns="http://www.w3.org/2000/svg">
<path d="M6.5 18.4513V9.78363C6.5 8.12678 7.84315 6.78363 9.5 6.78363H38.5C40.1569 6.78363 41.5 8.12678 41.5 9.78363V18.4513M6.5 18.4513H41.5M6.5 18.4513V30.1189M41.5 18.4513V30.1189M6.5 30.1189V38.7866C6.5 40.4434 7.84315 41.7866 9.5 41.7866H38.5C40.1569 41.7866 41.5 40.4434 41.5 38.7866V30.1189M6.5 30.1189H41.5" stroke="white"/>
<path d="M13.9933 24.2852H20.3069" stroke="white" stroke-linecap="round"/>
<path d="M13.9933 34.1521H20.3069" stroke="white" stroke-linecap="round"/>
<path d="M13.9933 37.2747H20.3069" stroke="white" stroke-linecap="round"/>
<path d="M17.1501 15.9512V9.63757" stroke="white" stroke-linecap="round"/>
<path d="M13.9933 12.7944H20.3069" stroke="white" stroke-linecap="round"/>
</svg>
