<?xml version="1.0" encoding="UTF-8"?>
<svg width="48" height="48" version="1.1" viewBox="0 0 48 48" xml:space="preserve" xmlns="http://www.w3.org/2000/svg"><defs><style>.a{fill:none;stroke:#fff;stroke-linecap:round;stroke-linejoin:round;}</style></defs><g transform="matrix(1.3500877,0,0,1.3500877,-8.4018803,-8.4077654)" fill="none" stroke="#fff" stroke-linecap="round" stroke-linejoin="round"><rect x="14.876276" y="9.7192764" width="18.24617" height="28.569834" rx="3.001225" stop-color="#000000" stroke-width=".74069262"/><rect x="17.590767" y="15.075307" width="12.951745" height="17.913609" stop-color="#000000" stroke-width=".74069262"/><circle class="e" cx="24" cy="24" r="4.4059458" stroke-width="1"/><polygon class="e" transform="matrix(.55733373 0 0 .55733373 10.62399 10.62399)" points="25.195 26.0697 26.39 24 25.195 21.9303 22.805 21.9303 21.61 24 22.805 26.0697" stroke-width="1.32899"/><g stroke-width="1"><line class="e" x1="25.332027" x2="27.125137" y1="24" y2="27.105742"/><line class="e" x1="20.874863" x2="22.667973" y1="20.894257" y2="24"/><line class="e" x1="25.127096" x2="23.333986" y1="19.740688" y2="22.84643"/><line class="e" x1="24.666014" x2="22.872904" y1="25.153568" y2="28.259312"/><line class="e" x1="23.333986" x2="19.746874" y1="25.153568" y2="25.153568"/><line class="e" x1="24.666014" x2="28.253124" y1="22.84643" y2="22.84643"/></g></g></svg>
