<svg xmlns="http://www.w3.org/2000/svg" viewBox="0 0 48 48"><defs><style>.a{fill:none;stroke:#fff;stroke-linecap:round;stroke-linejoin:round;}</style></defs><path class="a" d="M41.68,13.0153H24.77c-2-.1-5.93-4.23-8.19-4.23h-9.9A2.18,2.18,0,0,0,4.5,10.9648c0,.0168,0,.0337.0006.05h0v7.29H43.5v-3.42a1.83,1.83,0,0,0-1.79-1.8695Z"/><path class="a" d="M43.5,18.2951H4.5006v18.72a2.18,2.18,0,0,0,2.16,2.2l.01,0H41.32a2.18,2.18,0,0,0,2.18-2.18v-.02h0Z"/><path class="a" d="M32.8258,21.5857a7.1122,7.1122,0,0,1,7.1123,7.1122h0a7.1123,7.1123,0,1,1-7.1123-7.1122Zm0,3.161a3.003,3.003,0,0,1,.7191,5.9269V32.57a.7192.7192,0,0,1-1.4383.0016V30.6736a3.003,3.003,0,0,1,.7192-5.9269Z"/></svg>