<?xml version="1.0" encoding="UTF-8" standalone="no"?>
<svg
   viewBox="0 0 48 48"
   version="1.1"
   id="svg842"
   sodipodi:docname="securefolder.svg"
   inkscape:version="1.1 (c68e22c387, 2021-05-23)"
   xmlns:inkscape="http://www.inkscape.org/namespaces/inkscape"
   xmlns:sodipodi="http://sodipodi.sourceforge.net/DTD/sodipodi-0.dtd"
   xmlns="http://www.w3.org/2000/svg"
   xmlns:svg="http://www.w3.org/2000/svg">
  <sodipodi:namedview
     id="namedview844"
     pagecolor="#505050"
     bordercolor="#eeeeee"
     borderopacity="1"
     inkscape:pageshadow="0"
     inkscape:pageopacity="0"
     inkscape:pagecheckerboard="0"
     showgrid="false"
     inkscape:zoom="11.770833"
     inkscape:cx="23.957522"
     inkscape:cy="24"
     inkscape:current-layer="svg842" />
  <defs
     id="defs836">
    <style
       id="style834">.a{fill:none;stroke:#fff;stroke-linecap:round;stroke-linejoin:round;}</style>
    <style
       id="style1018">.a{fill:none;stroke:#fff;stroke-linecap:round;stroke-linejoin:round;}</style>
  </defs>
  <path
     class="a"
     d="M41.68,13H24.77c-2-.1-5.93-4.23-8.19-4.23H6.68A2.18,2.18,0,0,0,4.5,11h0v7.29h39V14.87A1.83,1.83,0,0,0,41.68,13Z"
     id="path838" />
  <path
     class="a"
     d="M43.5,18.28H4.5V37A2.18,2.18,0,0,0,6.67,39.2H41.32A2.18,2.18,0,0,0,43.5,37h0Z"
     id="path840" />
  <path
     class="a"
     d="m 32.825944,21.57059 a 7.1124639,7.1124639 0 0 1 7.112464,7.112465 v 0 A 7.1124639,7.1124639 0 1 1 32.825944,21.57059 Z m 0,3.161095 a 3.0030403,3.0030403 0 0 1 0.71915,5.927054 v 1.896655 a 0.71914913,0.71914913 0 1 1 -1.438298,0 v -1.896655 a 3.0030403,3.0030403 0 0 1 0.719148,-5.927054 z"
     id="path1022"
     style="stroke-width:1;stroke:#ffffff;stroke-miterlimit:4;stroke-dasharray:none" />
</svg>
