<?xml version="1.0" encoding="UTF-8" standalone="no"?>
<svg
   xmlns:dc="http://purl.org/dc/elements/1.1/"
   xmlns:cc="http://creativecommons.org/ns#"
   xmlns:rdf="http://www.w3.org/1999/02/22-rdf-syntax-ns#"
   xmlns:svg="http://www.w3.org/2000/svg"
   xmlns="http://www.w3.org/2000/svg"
   xmlns:sodipodi="http://sodipodi.sourceforge.net/DTD/sodipodi-0.dtd"
   xmlns:inkscape="http://www.inkscape.org/namespaces/inkscape"
   viewBox="0 0 48 48"
   version="1.1"
   id="svg8"
   sodipodi:docname="SecureGo+ Renault Bank direkt.svg"
   inkscape:version="1.0.1 (3bc2e813f5, 2020-09-07)">
  <metadata
     id="metadata12">
    <rdf:RDF>
      <cc:Work
         rdf:about="">
        <dc:format>image/svg+xml</dc:format>
        <dc:type
           rdf:resource="http://purl.org/dc/dcmitype/StillImage" />
        <dc:title />
      </cc:Work>
    </rdf:RDF>
  </metadata>
  <sodipodi:namedview
     pagecolor="#ffffff"
     bordercolor="#666666"
     borderopacity="1"
     objecttolerance="10"
     gridtolerance="10"
     guidetolerance="10"
     inkscape:pageopacity="0"
     inkscape:pageshadow="2"
     inkscape:window-width="1920"
     inkscape:window-height="1027"
     id="namedview10"
     showgrid="false"
     inkscape:pagecheckerboard="true"
     inkscape:snap-bbox="true"
     inkscape:object-paths="true"
     inkscape:snap-intersection-paths="true"
     inkscape:snap-smooth-nodes="true"
     inkscape:object-nodes="false"
     inkscape:zoom="17.166667"
     inkscape:cx="24"
     inkscape:cy="24"
     inkscape:window-x="0"
     inkscape:window-y="0"
     inkscape:window-maximized="1"
     inkscape:current-layer="layer1"
     inkscape:document-rotation="0" />
  <defs
     id="defs4">
    <style
       id="style2">.a{fill:none;stroke:#fff;stroke-linecap:round;stroke-linejoin:round;}</style>
    <style
       id="style103">.a{fill:none;stroke:#fff;stroke-linecap:round;stroke-linejoin:round;}</style>
  </defs>
  <g
     inkscape:groupmode="layer"
     id="layer1"
     inkscape:label="Arcticon">
    <circle
       class="a"
       cx="24"
       cy="24"
       r="21.5"
       id="circle6" />
    <path
       class="a"
       d="m 24,38.756427 c 1.485226,0 13.40219,-4.995714 13.40219,-11.938514 V 12.864937 L 24,9.2741368 10.59781,12.864937 v 13.952976 c 0,6.9428 11.916964,11.938514 13.40219,11.938514 z"
       id="path107"
       style="stroke-width:1"
       sodipodi:nodetypes="sscccss" />
    <path
       style="fill:none;stroke:#ffffff;stroke-width:1px;stroke-linecap:round;stroke-linejoin:round;stroke-opacity:1"
       d="m 12.387679,5.9149837 c 0,6.4742763 0,6.4742763 0,6.4742763"
       id="path135" />
    <path
       style="fill:none;stroke:#ffffff;stroke-width:1px;stroke-linecap:round;stroke-linejoin:round;stroke-opacity:1"
       d="m 12.387679,31.508669 c 0,10.594914 0,10.594914 0,10.594914"
       id="path960" />
    <path
       style="fill:none;stroke:#ffffff;stroke-width:1px;stroke-linecap:round;stroke-linejoin:round;stroke-opacity:1"
       d="m 17.791337,20.531757 h 12.5306 v 9.403085 c -0.01495,0.506028 -0.355,0.842885 -0.842885,0.842885 H 18.706761 c -0.572125,0 -1.045027,-0.543716 -1.045027,-1.045026 z"
       id="path962"
       sodipodi:nodetypes="cccsccc" />
    <path
       style="display:inline;fill:none;stroke:#ffffff;stroke-width:1px;stroke-linecap:round;stroke-linejoin:round;stroke-opacity:1"
       d="M 20.1,20.532 V 18 c 0,0 0.4412,-3.14784 3.85,-3.2 3.4088,-0.05216 3.85,3.2 3.85,3.2 v 2.532"
       id="path964"
       sodipodi:nodetypes="cczcc" />
    <path
       id="path971"
       style="opacity:1;fill:none;stroke:#ffffff;stroke-width:1px;stroke-linecap:round;stroke-linejoin:round;stroke-opacity:1"
       d="m 23.40719,26.014318 v 1.92586 c 0,0 0.293931,0.391654 0.60181,0.391527 C 24.316879,28.331578 24.61,27.94 24.61,27.94 l 0.0046,-1.94038 c 0.708077,-0.412132 0.997096,-0.778206 0.997096,-1.494872 0,-0.716666 -0.724898,-1.619104 -1.619104,-1.619104 -0.894206,0 -1.619104,0.724898 -1.619104,1.619104 0,0.688185 0.429351,1.276091 1.034798,1.510462"
       sodipodi:nodetypes="cczcczssc" />
  </g>
</svg>
