<?xml version="1.0" encoding="UTF-8" standalone="no"?>
<svg
   viewBox="0 0 48 48"
   version="1.1"
   id="svg8"
   xml:space="preserve"
   xmlns="http://www.w3.org/2000/svg"
   xmlns:svg="http://www.w3.org/2000/svg"><defs
     id="defs4"><style
       id="style2">.a{fill:none;stroke:#fff;stroke-linecap:round;stroke-linejoin:round;}</style><style
       id="style822">.cls-1{fill:none;stroke:#000;stroke-linecap:round;stroke-linejoin:round;}</style><style
       id="style913">.cls-1{fill:none;stroke:#fff;stroke-linecap:round;stroke-linejoin:round;}</style></defs><path
     class="a"
     d="m 40.5,5.5 h -33 a 2,2 0 0 0 -2,2 v 33 a 2,2 0 0 0 2,2 h 33 a 2,2 0 0 0 2,-2 v -33 a 2,2 0 0 0 -2,-2 z"
     id="path6"
     style="display:inline;fill:none;fill-opacity:1" /><path
     style="font-variation-settings:normal;opacity:1;vector-effect:none;fill:none;fill-opacity:1;stroke:#ffffff;stroke-width:1;stroke-linecap:round;stroke-linejoin:round;stroke-miterlimit:4;stroke-dasharray:none;stroke-dashoffset:0;stroke-opacity:1;-inkscape-stroke:none;stop-color:#000000;stop-opacity:1"
     d="m 5.5,21.049808 c 0,0 0.722621,-0.248993 1.0583449,-0.428208 0.2242529,-0.11971 0.379053,-0.394733 0.6310435,-0.428208 0.2284422,-0.03035 0.4308005,0.166418 0.6535808,0.225373 0.2364475,0.06257 0.4806025,0.09119 0.7211925,0.135223 0.2101836,0.03847 0.4282274,0.04544 0.6310435,0.112686 0.2232243,0.07402 0.4178585,0.216225 0.6310435,0.315522 0.2745173,0.127865 0.5310613,0.357375 0.8338793,0.360596 0.21901,0.0023 0.390613,-0.225689 0.608506,-0.247909 0.532102,-0.05426 1.058793,0.423008 1.577609,0.292984 0.13998,-0.03508 0.205887,-0.21252 0.338059,-0.270447 0.410652,-0.179977 0.907237,-0.05266 1.329698,-0.202836 0.13961,-0.04963 0.256279,-0.148811 0.383134,-0.225372 0.317707,-0.191748 0.663864,-0.345583 0.946565,-0.585969 0.174438,-0.148328 0.296625,-0.349016 0.450746,-0.518357 0.146639,-0.161121 0.345317,-0.282631 0.450745,-0.473283 0.206325,-0.373111 0.232668,-0.821319 0.315522,-1.23955 0.05162,-0.260541 0.05166,-0.530305 0.112686,-0.788804 0.08187,-0.346813 0.338059,-1.014177 0.338059,-1.014177 l 0.631043,0.338059 0.383134,0.969102 c 0,0 0.360596,0.450746 0.405671,0.653581 0.04507,0.202836 0.360596,1.126864 0.360596,1.126864 l 0.24791,0.65358 0.315522,0.225373 0.878953,-0.112686 0.473283,0.06761 0.360596,-0.112686 0.766267,-0.112686 0.360597,0.24791 c 0,0 0.09015,0.24791 0.180298,0.292984 0.09015,0.04508 0.473282,0.112687 0.473282,0.112687 l 0.901491,-2.862233 0.653581,-3.22283 0.518357,4.529991 0.428208,1.509997 0.608506,-0.157761 0.405671,-2.005817 0.721193,-0.721192 0.608506,0.90149 0.225373,0.99164 0.946565,-1.487459 1.014177,2.050891 0.338059,0.24791 0.428208,0.112686 0.788804,-0.270447 0.270448,0.270447 1.39731,-1.39731 0.766267,1.284624 0.833879,-0.766267 0.608506,1.262087 0.878954,-1.059252 0.788804,0.721193 0.653581,-0.157761 0.428208,0.585969 0.135224,0.563431 0.40567,-0.06761 0.540895,-1.645221 0.518357,0.811342 0.450745,0.04507 0.74373,0.09015 0.360596,0.360597 H 42.5"
     id="path1433" /><path
     style="font-variation-settings:normal;opacity:1;vector-effect:none;fill:none;fill-opacity:1;stroke:#ffffff;stroke-width:1;stroke-linecap:round;stroke-linejoin:round;stroke-miterlimit:4;stroke-dasharray:none;stroke-dashoffset:0;stroke-opacity:1;-inkscape-stroke:none;stop-color:#000000;stop-opacity:1"
     d="m 5.5,28.239196 1.3513294,0.360597 0.5634317,0.563431 0.9014907,-0.585969 0.6986553,0.24791 0.5859689,-0.292984 0.788804,-0.608506 0.518358,0.40567 1.780444,-0.247909 1.735369,0.383133 1.081789,0.653581 1.374773,1.329699 0.563432,2.907307 1.532534,-1.487459 0.721193,-2.569249 2.14104,0.292984 0.788805,-0.15776 0.608506,-0.518358 0.924028,2.186115 0.676118,3.651038 0.811342,-5.769541 0.360596,-0.225372 0.608506,0.518357 0.383134,2.298801 0.65358,0.360596 0.473283,-0.518357 0.450745,-1.352236 0.721193,1.464922 0.833879,-1.39731 0.698655,-1.036714 0.811342,0.383133 0.563432,-0.202835 0.788804,0.49582 0.608506,0.631043 0.901491,-1.329699 0.631043,1.036715 0.788805,-1.509997 0.698655,1.171938 0.788804,-0.833879 0.608507,0.112686 0.991639,-1.149401 0.585969,1.690295 0.721193,-0.878953 0.788804,0.135224 0.676118,-0.563432 H 42.5"
     id="path1435" /></svg>
