<svg width="48" height="48" xmlns="http://www.w3.org/2000/svg" xmlns:svg="http://www.w3.org/2000/svg" enable-background="new 0 0 48.0 48.0" version="1.1" xml:space="preserve"><g class="layer"><title>Layer 1</title><path d="m17.57,15l12.86,0l0,2.57l11.57,1.29l0,-7.72c0,-3.85 -1.29,-5.14 -5.14,-5.14l-24.43,0c-3.86,0 -6.43,2.57 -6.43,6.43l0,11.57c0,1.29 1.29,2.57 2.57,2.57l21.86,1.29l0,5.14l-12.86,0l0,-2.57l-11.57,-1.29l0,7.72c0,3.85 1.29,5.14 5.14,5.14l24.43,0c3.86,0 6.43,-2.57 6.43,-6.43l0,-11.57c0,-1.29 -1.29,-2.57 -2.57,-2.57l-21.86,-1.29l0,-5.14z" fill="#000000" fill-opacity="0" fill-rule="nonzero" id="svg_1" stroke="#FFFFFF" stroke-linecap="round" stroke-linejoin="round" stroke-opacity="1"/></g></svg>