<?xml version="1.0" encoding="UTF-8" standalone="no"?>
<svg
   viewBox="0 0 48 48"
   version="1.1"
   xmlns="http://www.w3.org/2000/svg"
   xmlns:svg="http://www.w3.org/2000/svg">
  <defs>
    <style>.a{fill:none;stroke:#fff;stroke-linecap:round;stroke-linejoin:round;}</style>
  </defs>
  <path
     class="a"
     d="M 25.881524,6.0986191 A 17.999992,17.999994 0 0 1 38.562313,13.419876" />
  <path
     class="a"
     d="m 38.562315,34.580144 a 18,18 0 0 1 -12.680794,7.32126" />
  <path
     class="a"
     d="m 7.5561915,31.32127 a 18,18 0 0 1 -2e-7,-14.64252" />
  <path
     class="a"
     d="m 40.443825,16.67875 a 17.999992,17.999994 0 0 1 0,14.642515" />
  <path
     class="a"
     d="M 22.118497,41.901404 A 18,18 0 0 1 9.4377036,34.580144" />
  <path
     class="a"
     d="M 9.4377036,13.419875 A 18,18 0 0 1 22.118497,6.0986154" />
  <path
     class="a"
     d="M 22.118497,6.0986154 24,7 25.881524,6.0986191" />
  <path
     class="a"
     d="M 9.4377036,13.419875 9.438,15.62 7.5561913,16.67875" />
  <path
     class="a"
     d="M 7.5561915,31.32127 9.438,32.38 9.4377037,34.580144" />
  <path
     class="a"
     d="m 38.562315,34.580144 0,-2.200144 1.88151,-1.058735" />
  <path
     class="a"
     d="M 25.881521,41.901404 24,41 22.118497,41.901404" />
  <path
     class="a"
     d="M 40.443825,16.67875 38.562313,15.62 v -2.200124" />
  <path
     class="a"
     d="M 24,7 V 20" />
  <path
     class="a"
     d="M 9.438,32.38 20.535898,26" />
  <path
     class="a"
     d="M 38.562315,32.38 27.464102,26" />
  <path
     class="a"
     d="m 24,20 3.464102,2 0,4 L 24,28 l -3.464102,-2 0,-4 z" />
  <path
     class="a"
     d="m 29.196154,19 1.732051,1 -10e-7,2 -1.73205,1 -1.732051,-1 0,-2 z" />
  <path
     class="a"
     d="m 18.803848,19 1.732051,1 0,2 -1.732051,1 -1.732051,-1 0,-2 z" />
  <path
     class="a"
     d="m 24,28 1.732051,1 0,2 L 24,32 l -1.732051,-1 0,-2 z" />
</svg>
