<?xml version="1.0" encoding="utf-8"?>
<!-- Generator: Adobe Illustrator 25.1.0, SVG Export Plug-In . SVG Version: 6.00 Build 0)  -->
<svg version="1.1" id="Layer_1" xmlns="http://www.w3.org/2000/svg" xmlns:xlink="http://www.w3.org/1999/xlink" x="0px" y="0px"
	 viewBox="0 0 48 48" style="enable-background:new 0 0 48 48;" xml:space="preserve">
<style type="text/css">
	.st0{fill:none;stroke:#FFFFFF;stroke-linecap:round;stroke-linejoin:round;}
	.st1{fill:none;stroke:#FDFDFD;}
	.st2{fill:none;stroke:#FFFFFF;stroke-linecap:round;stroke-linejoin:round;stroke-miterlimit:10;}
	.st3{fill:#FFFFFF;}
</style>
<g>
	<path class="st0" d="M40.5,5.5h-33c-1.1,0-2,0.9-2,2v33c0,1.1,0.9,2,2,2h33c1.1,0,2-0.9,2-2v-33C42.5,6.4,41.6,5.5,40.5,5.5z"/>
	<path class="st1" d="M5.5,17.2l37-8"/>
	<g>
		<g>
			<polyline class="st2" points="14.7,18.9 12.7,24.2 10.7,18.9 			"/>
		</g>
		<g>
			<g>
				<path class="st2" d="M31.3,24.2c1.1,0,2-0.9,2-2v0c0-1.1-0.9-2-2-2h-2h2c1.1,0,2-0.9,2-2v0c0-1.1-0.9-2-2-2"/>
			</g>
			<path class="st2" d="M28,23.5c0.6,0.5,1.1,0.7,2.5,0.7h0.8"/>
			<path class="st2" d="M28,16.9c0.6-0.5,1.2-0.7,2.5-0.7l0.8,0"/>
		</g>
		<path class="st2" d="M20.2,23.2c-0.3,0.6-1,1-1.7,1h0c-1.1,0-2-0.9-2-2v-1.3c0-1.1,0.9-2,2-2h0c1.1,0,2,0.9,2,2v0.7h-4"/>
		<path class="st2" d="M25.9,23.2c-0.3,0.6-1,1-1.7,1h0c-1.1,0-2-0.9-2-2v-1.3c0-1.1,0.9-2,2-2h0c0.7,0,1.4,0.4,1.7,1"/>
		<path class="st2" d="M37.3,15.1c0,0-2,2.3-2,5.1s2,5.1,2,5.1"/>
	</g>
	<g>
		<g>
			<line class="st2" x1="19.2" y1="37.9" x2="23.2" y2="37.9"/>
			<line class="st2" x1="19.2" y1="31" x2="21.2" y2="29.9"/>
			<line class="st2" x1="21.2" y1="29.9" x2="21.2" y2="37.9"/>
		</g>
		<circle class="st3" cx="26" cy="37.9" r="0.8"/>
		<line class="st2" x1="28.8" y1="27.8" x2="28.8" y2="40.3"/>
	</g>
</g>
</svg>
