<svg xmlns="http://www.w3.org/2000/svg" viewBox="0 0 48 48"><path d="m30 15-12.1 6.07m0 5.86 12.18 6.11m12.42 2.89a6.55 6.55 0 0 1-6.55 6.55 6.55 6.55 0 0 1-6.55-6.55 6.55 6.55 0 0 1 6.55-6.55 6.55 6.55 0 0 1 6.55 6.55zm-.1-23.86a6.55 6.55 0 0 1-6.55 6.55 6.55 6.55 0 0 1-6.55-6.55 6.55 6.55 0 0 1 6.55-6.55 6.55 6.55 0 0 1 6.55 6.55ZM18.6 24a6.55 6.55 0 0 1-6.55 6.55A6.55 6.55 0 0 1 5.5 24a6.55 6.55 0 0 1 6.55-6.55A6.55 6.55 0 0 1 18.6 24Z" style="fill:none;stroke:#fff;stroke-linecap:round;stroke-linejoin:round"/></svg>