<svg version="1.1" viewBox="0 0 48 48" id="svg26" xmlns="http://www.w3.org/2000/svg"><g id="g24692"><g id="g16320" transform="matrix(1.20297 0 0 1.20297 -4.88 -4.704)" style="display:inline"><path id="path12352" style="display:inline;fill:none;fill-opacity:0;stroke:#fff;stroke-width:1;stroke-linecap:round;stroke-linejoin:round;stroke-miterlimit:4;stroke-dasharray:none;stroke-opacity:1" class="a" d="M16.445 25.852a7.68 7.68 0 0 1-.096-1.215 7.68 7.68 0 0 1 4.633-7.05"/><path id="path12352-2" style="display:inline;fill:none;fill-opacity:0;stroke:#fff;stroke-width:1;stroke-linecap:round;stroke-linejoin:round;stroke-miterlimit:4;stroke-dasharray:none;stroke-opacity:1" class="a" d="M31.606 25.851a7.68 7.68 0 0 0 .097-1.215 7.68 7.68 0 0 0-4.633-7.049"/><path id="path16142" style="display:inline;fill:none;fill-opacity:0;stroke:#fff;stroke-width:1.04957;stroke-linecap:round;stroke-linejoin:round;stroke-miterlimit:4;stroke-dasharray:none;stroke-opacity:1" class="a" d="M28.476 30.897a7.68 7.68 0 0 1-4.448 1.42 7.68 7.68 0 0 1-4.443-1.417"/><circle class="a" cx="24.049" cy="16.915" id="circle567" style="fill:#000;fill-opacity:0;stroke:#fff;stroke-width:1;stroke-linecap:round;stroke-linejoin:round;stroke-miterlimit:4;stroke-dasharray:none;stroke-opacity:1" r="2.905"/><circle class="a" cx="17.244" cy="28.683" id="circle567-3" style="fill:none;stroke:#fff;stroke-width:.957562;stroke-linecap:round;stroke-linejoin:round;stroke-miterlimit:4;stroke-dasharray:none;stroke-opacity:1" r="2.905"/><circle class="a" cx="30.813" cy="28.712" id="circle567-6" style="fill:none;stroke:#f1f1f1;stroke-width:1;stroke-linecap:round;stroke-linejoin:round;stroke-miterlimit:4;stroke-dasharray:none;stroke-opacity:1" r="2.905"/><path id="circle110719" style="display:inline;fill:#f9f9f9;fill-opacity:1;stroke-width:1;stroke-miterlimit:4;stroke-dasharray:none" class="s" d="M18.671 28.681a1.391 1.391 0 0 1-1.391 1.391 1.391 1.391 0 0 1-1.391-1.39 1.391 1.391 0 0 1 1.39-1.392 1.391 1.391 0 0 1 1.392 1.391z"/><path id="circle110719-7" style="display:inline;fill:#f2f2f2;fill-opacity:1;stroke-width:1;stroke-miterlimit:4;stroke-dasharray:none" class="s" d="M32.239 28.697a1.391 1.391 0 0 1-1.392 1.391 1.391 1.391 0 0 1-1.391-1.391 1.391 1.391 0 0 1 1.391-1.391 1.391 1.391 0 0 1 1.392 1.39z"/><path id="circle110719-3" style="display:inline;fill:#fff;fill-opacity:1;stroke-width:1.20666;stroke-miterlimit:4;stroke-dasharray:none" class="s" d="M25.418 16.952a1.391 1.391 0 0 1-1.392 1.392 1.391 1.391 0 0 1-1.39-1.392 1.391 1.391 0 0 1 1.39-1.391 1.391 1.391 0 0 1 1.392 1.391z"/></g><path style="fill:none;stroke:#f3f3f3;stroke-width:1px;stroke-linecap:butt;stroke-linejoin:miter;stroke-opacity:1" d="m24.151 2.317 17.755 10.498v22.423L24.151 45.542l-18.019-10.3.076-22.651Z" id="path21733"/></g><defs id="defs4"><linearGradient id="linearGradient7906"><stop style="stop-color:#fff;stop-opacity:1" offset="0" id="stop7904"/></linearGradient><style id="style2">.a{fill:none;stroke:#fff;stroke-linecap:round;stroke-linejoin:round}</style></defs></svg>
