<?xml version="1.0" encoding="UTF-8"?>
<svg version="1.1" viewBox="0 0 48 48" xmlns="http://www.w3.org/2000/svg">
 <defs>
  <style>.a{fill:none;stroke:#fff;stroke-linecap:round;stroke-linejoin:round;}</style>
  <style>.a{fill:none;stroke:#fff;stroke-linecap:round;stroke-linejoin:round;}</style>
 </defs>
 <path d="m14.6314 21.0983c-1.40239 3.34661-0.506138 8.62813-0.223108 9.78486 0.733069 2.99602 2.9004 5.64144 2.9004 5.64144s-0.66687-4.62142-0.669323-6.94821c-0.0016-1.47263 0.414343-4.39841 0.414343-4.39841s1.11902 4.03447 1.91235 5.96016c0.608112 1.4761 1.20091 3.00021 2.16733 4.27092 1.00152 1.31686 2.2681 2.46067 3.66534 3.34661 1.5816 1.00284 5.19588 2.13706 5.19588 2.13706s3.90343 0.04418 5.84079-0.155494c1.97429-0.203475 3.94822-0.523316 5.85935-1.05886 1.15971-0.324979 3.37169-1.29865 3.37169-1.29865s0.144353-4.43076-0.02867-6.636c-0.169829-2.16456-0.398107-4.34872-0.988048-6.43825-0.610652-2.16288-2.61355-6.21514-2.61355-6.21514" style="-inkscape-stroke:none;fill:none;font-variation-settings:normal;stop-color:#000000;stroke-linecap:round;stroke-linejoin:round;stroke:#ffffff"/>
 <path d="m19.3663 12.6275s3.44736-2.87718 5.17746-4.15078c0.786219-0.578767 1.49266-1.17129 2.39044-1.33865 0.590816-0.110135 1.21488 0.06442 1.78486 0.25498 0.793701 0.265359 1.86209 0.988105 2.1992 1.21116 0.281919 0.186531 1.40239 1.21116 1.40239 1.21116" style="-inkscape-stroke:none;fill:none;font-variation-settings:normal;stop-color:#000000;stroke-linecap:round;stroke-linejoin:round;stroke:#ffffff"/>
 <path d="m14.6314 21.0983c-2.26295 1.59362-4.06373 4.3377-4.62151 5.19522-0.56486 0.868406-1.33827 2.38188-1.78486 3.66534-0.357493 1.0274-0.561416 2.10844-0.701195 3.18725-0.178628 1.37864-0.171574 4.16695-0.171574 4.16695s-1.06246-1.25491-1.54302-1.92095c-0.791233-1.09661-1.57967-2.20679-2.20053-3.40809-0.345051-0.667637-0.837746-2.09318-0.837746-2.09318s1.57843-4.58653 2.80865-6.65708c0.957697-1.61187 1.75299-2.74104 3.50598-4.39841" style="-inkscape-stroke:none;fill:none;font-variation-settings:normal;stop-color:#000000;stroke-linecap:round;stroke-linejoin:round;stroke:#ffffff"/>
 <path d="m7.52385 12.3652c0.112122-1.53079 1.05179-3.76096 1.72112-4.27092 1.18728 1.54616 2.10231 2.07754 2.99602 2.39044 0.758973 0.265724 1.54809 0.436376 2.32669 0.63745 1.43958 0.371773 3.07869 0.256088 4.33466 1.05179 0.449921 0.285042 1.00398 1.24303 1.00398 1.24303-1.79839 0.415838-2.66506 0.657533-3.94359 1.14693-1.43243 0.548306-2.85716 1.16375-4.14703 1.99365-0.996692 0.641268-2.7301 2.27775-2.7301 2.27775s-1.72382-4.2574-1.56175-6.47012z" style="-inkscape-stroke:none;fill:none;font-variation-settings:normal;stop-color:#000000;stroke-linecap:round;stroke-linejoin:round;stroke:#ffffff"/>
 <path d="m25.5637 13.5445c3.05976-3.79283 6.83012-3.76046 8.09562-3.76096 1.74995-6.8e-4 4.52045 0.564084 6.78884 0.764939 0.657496 0.05822 1.31735 0.16918 1.9761 0.12749 0.950311-0.06014 2.80478-0.541833 2.80478-0.541833s-0.118147 0.667135-0.223108 0.988048c-0.165663 0.506502-0.468094 0.960857-0.63745 1.46614-0.599181 1.78768-1.40774 4.05998-2.58167 5.83267-0.77191 1.16562-2.86853 3.05976-2.86853 3.05976s-1.11875-1.75549-1.84861-2.48606c-0.955122-0.956048-2.10892-1.69986-3.251-2.42231-1.1688-0.739354-2.37087-1.4573-3.66534-1.94422-1.4713-0.553434-4.58964-1.08366-4.58964-1.08366z" style="-inkscape-stroke:none;fill:none;font-variation-settings:normal;stop-color:#000000;stroke-linecap:round;stroke-linejoin:round;stroke:#ffffff"/>
</svg>
