<svg width="48" height="48" version="1.1" viewBox="0 0 48 48" xml:space="preserve" xmlns="http://www.w3.org/2000/svg"><g transform="matrix(.82062 0 0 .81735 4.4058 4.4453)" stroke-width="1.221"><path d="m43.732 11.204h-36.809c-9.5315 0-9.6062 15.559-0.055461 15.559h33.909c2.1051 0 2.2076 4.2903 0.30631 4.2903h-36.937c-3.4763 0-3.7055 5.5909-0.093038 5.5909h37.747c1.9572 0 6.3188-1.7604 6.2149-7.2835-0.10374-5.5143-4.1396-8.1579-6.936-8.2071-2.7091-0.04769-34.043 0-34.043 0-2.2251 0-1.9418-4.4293-0.17216-4.4293h36.981c2.7805 0 2.8492-5.5208-0.11166-5.5208z" fill="none" stroke="#fff" stroke-linecap="round" stroke-linejoin="round" stroke-width="1.221" style="paint-order:stroke fill markers"/></g></svg>
