<?xml version="1.0" encoding="utf-8"?>
<!-- Generator: Adobe Illustrator 27.2.0, SVG Export Plug-In . SVG Version: 6.00 Build 0)  -->
<svg version="1.1" id="Layer_2" xmlns="http://www.w3.org/2000/svg" xmlns:xlink="http://www.w3.org/1999/xlink" x="0px" y="0px"
	 viewBox="0 0 48 48" style="enable-background:new 0 0 48 48;" xml:space="preserve">
<style type="text/css">
	.st0{fill:none;stroke:#FFFFFF;stroke-linecap:round;stroke-linejoin:round;stroke-miterlimit:10;}
</style>
<g>
	<g>
		<path class="st0" d="M22,12.4c-3.2,0-5.8,2.6-5.8,5.8v0c0,3.2,2.6,5.8,5.8,5.8h2"/>
		<g>
			<path class="st0" d="M24,24h2c3.2,0,5.8,2.6,5.8,5.8v0c0,3.2-2.6,5.8-5.8,5.8"/>
		</g>
	</g>
	<path class="st0" d="M31.2,14.3c-1.6-1.3-3.3-2-7.2-2h-2"/>
	<path class="st0" d="M16.8,33.7c1.6,1.3,3.3,2,7.2,2h2"/>
</g>
<rect x="1.6" y="9.7" class="st0" width="44.8" height="28.6"/>
<line class="st0" x1="7.1" y1="41.3" x2="40.9" y2="41.3"/>
</svg>
