<svg width="48" height="48" version="1.1" viewBox="0 0 48 48" xml:space="preserve" xmlns="http://www.w3.org/2000/svg"><g transform="matrix(1.25 0 0 1.2511 -5.9997 -8.4099)" fill="none" stroke="#fff" stroke-linecap="round" stroke-linejoin="round"><path transform="matrix(1.316 0 0 1.3179 13.998 6.2542)" d="m7.135 24.783-5.0376-8.696a3329.8 3329.8 59.899 0 0-1.003-1.7303l-5.0428-8.693a0.57695 0.57695 119.9 0 1 0.49821-0.86645l10.05-0.014686a3329.8 3329.8 179.9 0 0 2-0.00352l10.05-0.020725a0.57695 0.57695 59.899 0 1 0.50126 0.86469l-5.0122 8.7107a3329.8 3329.8 119.9 0 0-0.99695 1.7338l-5.0069 8.7137a0.57695 0.57695 179.9 0 1-0.99948 0.0018z" stroke-width=".60719" style="paint-order:stroke fill markers"/><path transform="matrix(1.099 0 0 1.101 .67594 1.6363)" d="m24.425 19.909-3.203 0.02938-3.203 0.03131 1.5761-2.7886 1.5744-2.7896 1.627 2.7592z" stroke-width=".72693" style="paint-order:stroke fill markers"/><g stroke-width=".79965"><path d="m23.943 17.475-2.7905-4.8654" style="paint-order:stroke fill markers"/><path d="m20.489 23.621-2.9299 5.0747" style="paint-order:stroke fill markers"/><path d="m27.523 23.559h5.7667" style="paint-order:stroke fill markers"/></g></g></svg>
