<?xml version="1.0" encoding="UTF-8" standalone="no"?>
<svg
   viewBox="0 0 48 48"
   version="1.1"
   id="svg8"
   xmlns="http://www.w3.org/2000/svg"
   xmlns:svg="http://www.w3.org/2000/svg">
  <defs
     id="defs4">
    <style
       id="style2">.a{fill:none;stroke:#fff;stroke-linecap:round;stroke-linejoin:round;}</style>
  </defs>
  <path
     class="a"
     d="M 22.5,18 24.187582,13 m 0,0 1.625077,5 m -0.562525,-1.68758 H 23.06253"
     id="path4" />
  <path
     class="a"
     d="m 13.8,36.4 c 2,2.4 4.4,3.6 8,3.6 h 4.8 c 4.4,0 8,-3.6 8,-8 0,-4.4 -3.6,-8 -8,-8 H 21.4 C 17,24 13.4,20.4 13.4,16 13.4,11.6 17,8 21.4,8 H 26.2 c 3.6,0 6,0.8 8,3.6"
     id="path6" />
  <path
     class="a"
     d="m 34.2,9.6 v 2 h -2"
     id="path8" />
  <path
     class="a"
     d="m 15.8,36.4 h -2 v 2"
     id="path1629" />
  <path
     class="a"
     d="m 21,29.5 h 6"
     id="path1924" />
  <path
     class="a"
     d="m 24,28.5 v 1"
     id="path1926" />
  <path
     class="a"
     d="m 22.5,31 c 0.740991,1.586887 1.906539,2.920886 3.5,4"
     id="path1928" />
  <path
     class="a"
     d="m 21.6,35 c 2.531602,-0.803049 3.806276,-3.119054 4.4,-5.5"
     id="path1930" />
</svg>
