<?xml version="1.0" encoding="UTF-8" standalone="no"?>
<svg
   xmlns:dc="http://purl.org/dc/elements/1.1/"
   xmlns:cc="http://creativecommons.org/ns#"
   xmlns:rdf="http://www.w3.org/1999/02/22-rdf-syntax-ns#"
   xmlns:svg="http://www.w3.org/2000/svg"
   xmlns="http://www.w3.org/2000/svg"
   xmlns:sodipodi="http://sodipodi.sourceforge.net/DTD/sodipodi-0.dtd"
   xmlns:inkscape="http://www.inkscape.org/namespaces/inkscape"
   viewBox="0 0 48 48"
   version="1.1"
   id="svg750"
   sodipodi:docname="SJ.svg"
   inkscape:version="1.0.2 (e86c870879, 2021-01-15)">
  <metadata
     id="metadata754">
    <rdf:RDF>
      <cc:Work
         rdf:about="">
        <dc:format>image/svg+xml</dc:format>
        <dc:type
           rdf:resource="http://purl.org/dc/dcmitype/StillImage" />
        <dc:title />
      </cc:Work>
    </rdf:RDF>
  </metadata>
  <sodipodi:namedview
     pagecolor="#ffffff"
     bordercolor="#666666"
     borderopacity="1"
     objecttolerance="10"
     gridtolerance="10"
     guidetolerance="10"
     inkscape:pageopacity="0"
     inkscape:pageshadow="2"
     inkscape:window-width="1781"
     inkscape:window-height="1040"
     id="namedview752"
     showgrid="false"
     inkscape:zoom="4"
     inkscape:cx="23.631171"
     inkscape:cy="9.6795033"
     inkscape:window-x="26"
     inkscape:window-y="23"
     inkscape:window-maximized="0"
     inkscape:current-layer="svg750"
     inkscape:document-rotation="0"
     showguides="false"
     inkscape:guide-bbox="true">
    <sodipodi:guide
       position="24,34"
       orientation="1,0"
       id="guide1808" />
    <sodipodi:guide
       position="13,24"
       orientation="0,-1"
       id="guide1810" />
    <inkscape:grid
       type="xygrid"
       id="grid2585" />
  </sodipodi:namedview>
  <defs
     id="defs746">
    <style
       id="style744">.a{fill:none;stroke:#fff;stroke-linecap:round;stroke-linejoin:round;}</style>
  </defs>
  <path
     style="font-variation-settings:normal;vector-effect:none;fill:none;fill-opacity:1;stroke:#ffffff;stroke-width:1;stroke-linecap:round;stroke-linejoin:round;stroke-miterlimit:4;stroke-dasharray:none;stroke-dashoffset:0;stroke-opacity:1;stop-color:#000000"
     d="m 24,31.972022 c -4.869291,0 -7.600109,-2.670761 -8.860296,-4.612756 -0.903502,-1.39233 -1.97127,-2.484542 -4.616375,-2.484542 H 9.160301 c -2.316532,0 -3.038313,-1.697121 -3.672726,-3.097194 h 5.418728 c 5.2454,0 6.016802,1.92654 7.158681,3.587887 1.722077,2.505488 3.499216,3.15526 5.935016,3.15526"
     id="path1806-5-6"
     sodipodi:nodetypes="cssscssc" />
  <path
     style="font-variation-settings:normal;vector-effect:none;fill:none;fill-opacity:1;stroke:#ffffff;stroke-width:1;stroke-linecap:round;stroke-linejoin:round;stroke-miterlimit:4;stroke-dasharray:none;stroke-dashoffset:0;stroke-opacity:1;stop-color:#000000"
     d="m 6.563452,19.190016 c -2.316532,0 -3.038313,-1.697121 -3.672726,-3.097194 h 9.345881 c 4.655216,0 8.807694,0.826775 8.360715,7.704479 -2.878592,-4.900214 -6.336794,-4.607285 -9.799515,-4.607285 z"
     id="path944-3-3"
     sodipodi:nodetypes="scscss" />
  <path
     style="font-variation-settings:normal;vector-effect:none;fill:none;fill-opacity:1;stroke:#ffffff;stroke-width:1;stroke-linecap:round;stroke-linejoin:round;stroke-miterlimit:4;stroke-dasharray:none;stroke-dashoffset:0;stroke-opacity:1;stop-color:#000000"
     d="m 24,31.972022 c 4.869291,0 7.600109,-2.67076 8.860296,-4.612756 0.903502,-1.39233 1.97127,-2.484542 4.616375,-2.484542 h 1.363028 c 2.316528,0 3.038318,-1.697121 3.672728,-3.097194 h -5.41873 c -5.2454,0 -6.016802,1.92654 -7.158681,3.587887 C 28.212939,27.870905 26.4358,28.520677 24,28.520677"
     id="path1806-5-6-6"
     sodipodi:nodetypes="cssscssc" />
  <path
     style="font-variation-settings:normal;vector-effect:none;fill:none;fill-opacity:1;stroke:#ffffff;stroke-width:1;stroke-linecap:round;stroke-linejoin:round;stroke-miterlimit:4;stroke-dasharray:none;stroke-dashoffset:0;stroke-opacity:1;stop-color:#000000"
     d="m 41.436547,19.190017 c 2.31653,0 3.03831,-1.697121 3.67273,-3.097194 h -9.345884 c -4.655216,0 -8.807694,0.826774 -8.360715,7.704479 2.878592,-4.900214 6.336794,-4.607285 9.799515,-4.607285 z"
     id="path944-3-3-2"
     sodipodi:nodetypes="scscss" />
</svg>
