<svg xmlns="http://www.w3.org/2000/svg" xml:space="preserve" id="svg990" width="48" height="48" version="1.1"><defs id="defs987"><style id="style1174">.a{fill:none;stroke:#fff;stroke-linecap:round;stroke-linejoin:round}</style></defs><path id="rect10751" d="M43.722 11.743V35.52c0 1.606-1.293 2.986-2.9 2.986h-.367c-1.606 0-2.9-1.38-2.9-2.986V11.743m-7.573 12.055.175-.597-5.312-16.488-5.314 16.489 5.313 18.085.563-1.916m5.364-13.258a2.924 2.924 0 0 1-.714.088h-2.904m-.06 12.306.022-16.863m1.947-9.901h.995c1.607 0 2.9 1.323 2.9 2.93V23.3c0 1.36-.927 2.495-2.186 2.812l2.705 12.394M15.676 23.2v15.307m0-26.764v11.456h3.901M4.722 31.26v4.349a2.894 2.894 0 0 0 2.9 2.898h.421a2.892 2.892 0 0 0 2.9-2.9v-4.348m0-12.267v-4.35a2.891 2.891 0 0 0-2.9-2.898h-.421a2.893 2.893 0 0 0-2.9 2.9v4.348l6.22 12.267" style="fill:none;stroke:#fff;stroke-width:1;stroke-linecap:round;stroke-linejoin:round;stroke-dasharray:none;stroke-opacity:1;stop-color:#000"/></svg>