<?xml version="1.0" encoding="UTF-8" standalone="no"?>
<svg
   viewBox="0 0 48 48"
   version="1.1"
   id="svg8"
   sodipodi:docname="skylist.svg"
   inkscape:version="1.1.1 (1:1.1+202109281949+c3084ef5ed)"
   xmlns:inkscape="http://www.inkscape.org/namespaces/inkscape"
   xmlns:sodipodi="http://sodipodi.sourceforge.net/DTD/sodipodi-0.dtd"
   xmlns="http://www.w3.org/2000/svg"
   xmlns:svg="http://www.w3.org/2000/svg">
  <sodipodi:namedview
     id="namedview10"
     pagecolor="#505050"
     bordercolor="#ffffff"
     borderopacity="1"
     inkscape:pageshadow="0"
     inkscape:pageopacity="0"
     inkscape:pagecheckerboard="1"
     showgrid="false"
     inkscape:zoom="1.4142136"
     inkscape:cx="57.982756"
     inkscape:cy="-35.355339"
     inkscape:window-width="1920"
     inkscape:window-height="1047"
     inkscape:window-x="0"
     inkscape:window-y="0"
     inkscape:window-maximized="1"
     inkscape:current-layer="svg8"
     inkscape:object-paths="true" />
  <defs
     id="defs4">
    <style
       id="style2">.a{fill:none;stroke:#fff;stroke-linecap:round;stroke-linejoin:round;}</style>
  </defs>
  <g
     id="g6399">
    <g
       id="g2126"
       transform="matrix(1.2292487,0,0,1.2291878,-7.6949862,-5.2750598)"
       style="stroke-width:0.813525">
      <path
         id="rect963"
         style="fill:none;stroke:#ffffff;stroke-width:0.813525;stroke-linecap:round;stroke-linejoin:round;stop-color:#000000"
         d="M 13.59375,9.0273438 V 24.416016 c 2.48791,-2.803629 6.803073,-6.067338 13.458984,-9.769532 0.117023,-0.181523 0.238811,-0.35997 0.365235,-0.535156 l -0.06445,0.06836 -2.101563,-1.041016 c 2.087918,-1.381875 3.150083,-1.431614 4.390625,-1.712891 l -2.39844,-2.3984372 z m 0,20.3526662 v 4.770381 4.716797 H 34.462891 V 16.828125 c -0.361621,0.192088 -0.732525,0.366133 -1.111329,0.521484 l 0.09766,-0.02344 c -1.023599,1.031787 -1.477247,1.987127 -3.927735,3.208984 l 0.150391,-2.339844 0.09961,-0.02344 c -0.21831,0.02211 -0.437139,0.03839 -0.65625,0.04883"
         sodipodi:nodetypes="cccccccccccccccccccc" />
    </g>
    <g
       id="g3912"
       transform="matrix(0.61462434,1.0645079,-1.0645606,0.61459392,-9.6331888,-90.113658)"
       style="stroke-width:0.813525">
      <path
         style="fill:none;stroke:#ffffff;stroke-width:0.813525px;stroke-linecap:round;stroke-linejoin:round;stroke-opacity:1"
         d="m 86.772885,17.039633 c -0.31449,19.66895 4.63206,24.406917 10.160998,21.407801 -7.188189,-0.0015 -6.452398,-13.520113 -6.034893,-21.407801"
         id="path3155"
         sodipodi:nodetypes="ccc" />
      <g
         id="g3903"
         style="stroke-width:0.813525">
        <path
           id="path2265"
           style="fill:none;stroke:#ffffff;stroke-width:0.813524;stroke-linecap:round;stroke-linejoin:round;stop-color:#000000"
           d="m 88.857654,2.4946159 a 12.216131,12.305454 0 0 0 -3.597674,8.6779211 12.216131,12.305454 0 0 0 1.512905,5.867096 12.216131,12.305454 0 0 0 2.063053,0.196358 12.216131,12.305454 0 0 0 2.063052,-0.196358 12.216131,12.305454 0 0 0 1.512904,-5.867096 12.216131,12.305454 0 0 0 -3.55424,-8.6779211 z" />
        <path
           style="fill:none;stroke:#ffffff;stroke-width:0.813525px;stroke-linecap:round;stroke-linejoin:round;stroke-opacity:1"
           d="m 92.290551,12.839042 c 0.381754,1.402357 0.982785,2.273036 0.8157,5.006149 l -1.951603,-1.299799"
           id="path2465"
           sodipodi:nodetypes="ccc" />
        <path
           style="fill:none;stroke:#ffffff;stroke-width:0.813525px;stroke-linecap:round;stroke-linejoin:round;stroke-opacity:1"
           d="m 85.381323,12.839042 c -0.381754,1.402357 -0.982785,2.273036 -0.8157,5.006149 l 1.951603,-1.299799"
           id="path2936"
           sodipodi:nodetypes="ccc" />
        <circle
           style="fill:none;stroke:#ffffff;stroke-width:0.813525;stroke-linecap:round;stroke-linejoin:round;stop-color:#000000"
           id="path2960"
           cx="88.835938"
           cy="9.5226231"
           r="1.3133079" />
        <path
           id="path3813"
           style="fill:none;stroke:#ffffff;stroke-width:0.813525;stroke-linecap:round;stroke-linejoin:round;stop-color:#000000"
           d="M 88.857422,2.4941406 A 12.216131,12.305454 0 0 0 86.509766,5.828125 6.2535272,6.2535272 0 0 0 88.835938,6.2910156 6.2535272,6.2535272 0 0 0 91.193359,5.8164062 12.216131,12.305454 0 0 0 88.857422,2.4941406 Z" />
      </g>
    </g>
    <path
       style="fill:none;stroke:#ffffff;stroke-width:1px;stroke-linecap:round;stroke-linejoin:round;stroke-opacity:1"
       d="M 18.280459,35.925229 H 29.60341"
       id="path4092" />
    <path
       style="fill:none;stroke:#ffffff;stroke-width:1px;stroke-linecap:round;stroke-linejoin:round;stroke-opacity:1"
       d="M 18.280459,30.775938 H 29.60341"
       id="path4273" />
    <path
       style="fill:none;stroke:#ffffff;stroke-width:1px;stroke-linecap:round;stroke-linejoin:round;stroke-opacity:1"
       d="M 18.280459,25.626651 H 29.60341"
       id="path4275" />
  </g>
</svg>
