<?xml version="1.0" encoding="utf-8"?>
<!-- Generator: Adobe Illustrator 25.1.0, SVG Export Plug-In . SVG Version: 6.00 Build 0)  -->
<svg version="1.1"
	 id="svg8" inkscape:version="1.0.1 (3bc2e813f5, 2020-09-07, custom)" xmlns:cc="http://creativecommons.org/ns#" xmlns:dc="http://purl.org/dc/elements/1.1/" xmlns:inkscape="http://www.inkscape.org/namespaces/inkscape" xmlns:rdf="http://www.w3.org/1999/02/22-rdf-syntax-ns#" xmlns:sodipodi="http://sodipodi.sourceforge.net/DTD/sodipodi-0.dtd" xmlns:svg="http://www.w3.org/2000/svg"
	 xmlns="http://www.w3.org/2000/svg" xmlns:xlink="http://www.w3.org/1999/xlink" x="0px" y="0px" viewBox="0 0 48 48"
	 style="enable-background:new 0 0 48 48;" xml:space="preserve">
<style type="text/css">
	.st0{fill:none;stroke:#FFFFFF;stroke-linecap:round;stroke-linejoin:round;}
</style>
<sodipodi:namedview  bordercolor="#666666" borderopacity="1" gridtolerance="10" guidetolerance="10" id="namedview10" inkscape:current-layer="svg8" inkscape:cx="46.122025" inkscape:cy="50.225463" inkscape:document-rotation="0" inkscape:pagecheckerboard="true" inkscape:pageopacity="0" inkscape:pageshadow="2" inkscape:window-height="1080" inkscape:window-maximized="1" inkscape:window-width="1920" inkscape:window-x="0" inkscape:window-y="0" inkscape:zoom="5.6568543" objecttolerance="10" pagecolor="#000000" showgrid="false">
	</sodipodi:namedview>
<path id="path6-5" sodipodi:nodetypes="sssssssss" class="st0" d="M40.4,5.6c-10.8,4-21.8,3.9-32.9,0c-1-0.4-2.3,0.9-2,2
	c3.2,10.8,3.7,21.7,0,32.9c-0.3,1,1,2.4,2,2c10.6-4.6,21.4-5.5,32.9,0c1,0.5,2.3-0.9,2-2c-2.4-9.6-4.3-19.2,0-32.9
	C42.8,6.5,41.5,5.2,40.4,5.6z"/>
<path id="path920" class="st0" d="M31.1,31.1l8.1,8.1"/>
<path id="path985" sodipodi:nodetypes="cccc" class="st0" d="M23.7,8.9v5.2 M23.7,34v4.4"/>
<circle id="circle872-5" class="st0" cx="24" cy="24" r="9.8"/>
<path id="path965" inkscape:flatsided="false" inkscape:randomized="0" inkscape:rounded="0" inkscape:transform-center-y="-0.57690226" sodipodi:arg1="-1.5707963" sodipodi:arg2="-0.9424778" sodipodi:cx="22.664335" sodipodi:cy="22.663694" sodipodi:r1="6.041399" sodipodi:r2="3.0206995" sodipodi:sides="5" sodipodi:type="star" class="st0" d="
	M22.7,16.7l1.8,3.6l4,0.6l-2.9,2.8l0.7,3.9l-3.5-1.9l-3.5,1.9l0.7-3.9l-2.9-2.8l4-0.6L22.7,16.7z"/>
<path id="path969" inkscape:flatsided="false" inkscape:randomized="0" inkscape:rounded="0" inkscape:transform-center-x="-0.20100981" inkscape:transform-center-y="-0.040646316" sodipodi:arg1="-1.3089969" sodipodi:arg2="-0.68067841" sodipodi:cx="10.753513" sodipodi:cy="9.4851828" sodipodi:r1="2.5132673" sodipodi:r2="1.2566336" sodipodi:sides="5" sodipodi:type="star" class="st0" d="
	M11.5,7.1l0.3,1.6l1.5,0.7l-1.4,0.8l-0.2,1.7l-1.2-1.1l-1.6,0.4l0.7-1.5L8.7,8.2l1.7,0.2L11.5,7.1z"/>
<circle id="path971" class="st0" cx="11.6" cy="32.9" r="2.1"/>
<circle id="path973" class="st0" cx="34.8" cy="15.2" r="1.8"/>
<path id="path977" sodipodi:nodetypes="cccc" class="st0" d="M13.5,7.6c1.1,3.6,1.8,7.2,2.3,10.8 M15.9,29.6
	c-0.4,3.5-1.1,7-2.3,10.5"/>
<path id="path979" sodipodi:nodetypes="cccc" class="st0" d="M34.5,7.6c-1.1,3.6-1.9,7.2-2.3,10.8 M32,29.8
	c0.4,3.4,1.1,6.8,2.2,10.2"/>
<path id="path981" sodipodi:nodetypes="cccccc" class="st0" d="M40.6,13.3c-1.4,0.4-2.8,0.8-4.2,1.1 M32.9,15.1
	c-1.2,0.2-2.3,0.3-3.5,0.5 M18.7,15.6c-3.9-0.4-7.7-1.1-11.6-2.4"/>
<path id="path983" sodipodi:nodetypes="cccccc" class="st0" d="M40.8,34.4c-3.8-1.1-7.3-1.9-11.2-2.3 M18.2,32
	c-1.5,0.1-3.1,0.4-4.6,0.6 M9.5,33.6c-0.7,0.2-1.5,0.4-2.2,0.7"/>
<path id="path987" sodipodi:nodetypes="cccc" class="st0" d="M39.6,23.7h-5.8 M14,23.7H8.3"/>
</svg>
