<svg id="Layer_2" data-name="Layer 2" xmlns="http://www.w3.org/2000/svg" viewBox="0 0 48 48"><defs><style>.cls-1{fill:none;stroke:#fff;stroke-linecap:round;stroke-linejoin:round;}</style></defs><path class="cls-1" d="M42.5,15.58V7.45a2,2,0,0,0-2-1.95H7.45a2,2,0,0,0-1.95,2v33.1a2,2,0,0,0,2,2h8.21a19.2,19.2,0,0,1-.35-5.36,14.73,14.73,0,0,1,6.32-10.82A22.21,22.21,0,0,1,25.75,24h0A10.48,10.48,0,1,1,27,28.9a15,15,0,0,0-2.46,1.42,9.38,9.38,0,0,0-4.28,7.24,15.14,15.14,0,0,0,.51,4.94H40.55a2,2,0,0,0,2-2V32.42"/><path class="cls-1" d="M27,28.9A10.48,10.48,0,0,1,25.75,24"/></svg>