<?xml version="1.0" encoding="UTF-8" standalone="no"?>
<svg
   viewBox="0 0 48 48"
   version="1.1"
   id="svg8"
   xmlns="http://www.w3.org/2000/svg"
   xmlns:svg="http://www.w3.org/2000/svg">
  <defs
     id="defs4">
    <style
       id="style2">.a{fill:none;stroke:#fff;stroke-linecap:round;stroke-linejoin:round;}</style>
  </defs>
  <circle
     class="a"
     cx="24"
     cy="24"
     r="21.5"
     id="circle6" />
  <rect
     class="a"
     id="rect861"
     width="12.002927"
     height="8.9086285"
     x="10.257472"
     y="29.471895" />
  <path
     class="a"
     id="path951"
     d="m 12.295899,25.997812 a 4.0293894,3.9130957 0 0 1 4.02939,-3.913095 4.0293894,3.9130957 0 0 1 4.029389,3.913095" />
  <path
     class="a"
     d="M 20.355,26.044393 V 29.466"
     id="path986" />
  <path
     class="a"
     d="m 12.295,26.055777 v 3.375518"
     id="path988" />
  <path
     class="a"
     d="m 3.2727758,29.336711 c 2.948377,-2.200474 4.7396166,-1.891476 6.9846962,0.135184"
     id="path2904" />
  <path
     class="a"
     d="M 20.355,29.466 C 27.347281,21.602837 34.860718,16.564942 43.947779,16.727342"
     id="path2906" />
  <path
     class="a"
     d="M 20.347401,27.750691 C 24.724789,19.073875 32.836102,12.341661 42.407442,13.070053"
     id="path3972" />
  <path
     class="a"
     d="m 3.8510725,31.387219 c 2.948377,-2.200474 4.1613199,-1.873722 6.4063995,0.152938"
     id="path4696" />
</svg>
