<svg version="1.1" viewBox="0 0 48 48" xmlns="http://www.w3.org/2000/svg"><defs><style>.a{fill:none;stroke:#fff;stroke-linecap:round;stroke-linejoin:round;}</style></defs><path class="a UnoptimicedTransforms" transform="translate(0 -.030007)" d="m24 4.56s-6.6813 5.5376-17.233 7.6949c0 0 0.1333 5.7883 0.48816 8.6986 0.52964 4.3437 2.552 9.7448 5.4969 13.678 2.8614 3.822 9.5579 8.868 11.248 8.868s8.3866-5.046 11.248-8.868c2.9449-3.9337 4.9673-9.3348 5.4969-13.678 0.35486-2.9103 0.48816-8.6986 0.48816-8.6986-10.552-2.1573-17.233-7.6949-17.233-7.6949z"/><g fill="none" stroke="#fff" stroke-linecap="round" stroke-linejoin="round"><path class="a UnoptimicedTransforms" transform="matrix(.62737 0 0 .62737 8.9432 8.9244)" d="m24 4.56s-6.6813 5.5376-17.233 7.6949c0 0 0.1333 5.7883 0.48816 8.6986 0.52964 4.3437 2.552 9.7448 5.4969 13.678 2.8614 3.822 9.5579 8.868 11.248 8.868s8.3866-5.046 11.248-8.868c2.9449-3.9337 4.9673-9.3348 5.4969-13.678 0.35486-2.9103 0.48816-8.6986 0.48816-8.6986-10.552-2.1573-17.233-7.6949-17.233-7.6949z" stroke-width="1.594"/><path d="m30.466 23.335c0.022189 0.21851 0.033557 0.44022 0.033557 0.66458 0 3.5899-2.9101 6.5-6.5 6.5s-6.5-2.9101-6.5-6.5 2.9101-6.5 6.5-6.5c0.22437 0 0.44608 0.01137 0.71177 0.02167-0.29685 0.36061-0.47881 0.85453-0.45867 1.3612 0.02014 0.50667 0.2442 0.94713 0.61704 1.3073-0.3437 0.38866-0.52556 0.88266-0.50542 1.3893 0.02014 0.50667 0.24072 0.98458 0.61323 1.3286 0.37251 0.34403 0.86642 0.52599 1.3731 0.50586 0.50667-0.02014 0.98468-0.24063 1.3448-0.61409 0.38864 0.34308 0.84549 0.53148 1.3522 0.51135 0.50667-0.02014 0.98459-0.24072 1.3243-0.61722 0.03894 0.20757 0.07196 0.42289 0.09415 0.6414z"/><g><circle cx="21.069" cy="26.691" r=".5"/><circle cx="21.535" cy="21.463" r=".5"/><circle cx="26.465" cy="26.537" r=".5"/></g></g></svg>
