<?xml version="1.0" encoding="UTF-8" standalone="no"?>
<svg
   viewBox="0 0 48 48"
   version="1.1"
   id="svg8"
   xmlns="http://www.w3.org/2000/svg"
   xmlns:svg="http://www.w3.org/2000/svg">
  <defs
     id="defs4">
    <style
       id="style2">.a{fill:none;stroke:#fff;stroke-linecap:round;stroke-linejoin:round;}</style>
  </defs>
  <path
     class="a"
     d="m 23.706219,33.206188 h -9.643192 c -0.56821,0 -1.205391,-0.63718 -1.205391,-1.205389 V 6.8080307 c 0,-0.5682278 0.637181,-1.205395 1.205391,-1.205395 h 15.187994 c 0.568268,0 1.205391,0.6371672 1.205391,1.205395 V 28.830588"
     id="path907" />
  <path
     class="a"
     d="m 19.889101,22.864713 4.819745,12.995154 -4.419614,0.584275 c -0.441192,0.05813 -0.864106,0.324701 -1.164461,0.653103 -0.327553,0.358213 -1.037666,1.126673 -0.596251,1.32846 l 8.688675,3.971664 9.286015,-3.261327 c 0.496221,-0.174287 0.715336,-0.937938 0.613074,-1.453787 L 35.682578,30.45012 c -0.09832,-0.495542 -0.503416,-1.079092 -1.005655,-1.133843 l -7.747132,-0.844475 -0.795513,0.464699 -2.677797,-7.238306 c -0.305342,-0.825296 -1.577182,-1.372497 -2.407886,-1.082224 -0.796165,0.278207 -1.452784,1.458057 -1.159494,2.248742 z"
     id="path948" />
  <path
     class="a"
     id="path972"
     d="m 19.0919,26.876571 a 5.1832085,5.1831975 0 0 1 -2.067033,-6.760945 5.1832085,5.1831975 0 0 1 6.600301,-2.533612 5.1832085,5.1831975 0 0 1 2.98786,6.407473" />
</svg>
