<svg version="1.1" viewBox="0 0 48 48" xmlns="http://www.w3.org/2000/svg">
 <g fill="none" stroke="#fff" stroke-linecap="round">
  <g stroke-linejoin="round">
   <path d="m41.542 26.858a2.6195 2.6195 0 0 0 2.5824-1.6775 2.6195 2.6195 0 0 0-0.79745-2.9744" style="paint-order:stroke fill markers"/>
   <path d="m40.448 19.961s0.04712 0.55973-0.1249 1.0719c0.52443 0.13333 2.2291 0.41782 3.0042 1.1732"/>
   <path d="m35.054 26.018a2.6195 2.6195 0 0 0 2.3935 1.9375 2.6195 2.6195 0 0 0 2.5823-1.6777" style="paint-order:stroke fill markers"/>
   <path d="m41.276 22.846s-0.51776 0.21782-1.0581 0.21253c0.03529 0.53996 0.29164 2.2492-0.18723 3.2197"/>
   <path d="m33.849 19.588a2.6195 2.6195 0 0 0-1.1032 2.875 2.6195 2.6195 0 0 0 2.3934 1.9377" style="paint-order:stroke fill markers"/>
   <path d="m38.788 24.524s-0.36712-0.42513-0.52901-0.94065c-0.50264 0.20038-2.049 0.97219-3.12 0.81671"/>
   <path d="m39.591 16.454a2.6195 2.6195 0 0 0-3.0752-0.16063 2.6195 2.6195 0 0 0-1.103 2.8751" style="paint-order:stroke fill markers"/>
   <path d="m36.423 22.677s0.29085-0.48054 0.73109-0.79384c-0.34592-0.4161-1.5579-1.6482-1.7409-2.7148"/>
   <path d="m44.346 20.946a2.6195 2.6195 0 0 0-0.79769-2.9743 2.6195 2.6195 0 0 0-3.0753-0.16041" style="paint-order:stroke fill markers"/>
   <path d="m37.449 19.857s0.54691 0.12809 0.98094 0.44994c0.28881-0.45759 1.086-1.991 2.0438-2.4948"/>
  </g>
  <g stroke-linejoin="round">
   <path class="st5" d="m7.6059 23.915c1.3808 0 2.5 1.1193 2.5 2.5s-1.1193 2.5-2.5 2.5h-4.125v-10l4.125 5e-6c1.3808 0 2.5 1.1193 2.5 2.5s-1.1193 2.5-2.5 2.5z"/>
   <line class="st5" x1="7.6059" x2="3.4808" y1="23.916" y2="23.916"/>
  </g>
  <path class="st5" d="m12.706 18.915v10"/>
  <path class="st5" d="m15.306 28.915v-10h2.25c2.4162 0 4.375 1.9588 4.375 4.375v1.25c0 2.4162-1.9588 4.375-4.375 4.375z" stroke-linejoin="round" stroke-miterlimit="10"/>
  <g stroke-linejoin="round">
   <path class="st5" d="m30.102 18.914-3.3125 10-3.3125-10"/>
   <path d="m30.106 18.915h1" stroke-width="1px"/>
  </g>
 </g>
</svg>
