<?xml version="1.0" encoding="UTF-8"?>
<svg width="48" height="48" version="1.1" viewBox="0 0 48 48" xml:space="preserve" xmlns="http://www.w3.org/2000/svg"><defs><style>.a{fill:none;stroke:#fff;stroke-linecap:round;stroke-linejoin:round;}</style></defs><g transform="translate(-.54224115 3.4986165)" fill="none" stroke="#fff" stroke-linecap="round" stroke-linejoin="round"><path d="m10.005189 24.613523v2.328515c-3.0692648 0.416578-4.9736266-0.242326-4.948872-3.084554 0.0192745-2.213031 1.7966786-3.415217 3.0946645-3.415217h2.6125965c0.081792-0.841466-1.2796972-1.797476-4.7658781-0.725456v-2.514617c3.0199513-1.079033 4.0570771-0.636259 4.9547941-0.462615h3.623983l-0.158983 2.711925h-0.864373c0.134155 0.4575 0.270797 0.909017 0.275867 1.676995v5.914692h-3.042988v-3.962497c-1.4469053-0.128645-2.8407149-0.170146-2.5729146 0.96773 0.1793851 0.762202 0.9970832 0.635227 1.7921036 0.565099z" stop-color="#000000"/><path d="m30.205189 24.613523v2.328515c-3.069265 0.416578-4.973627-0.242326-4.948872-3.084554 0.01927-2.213031 1.796679-3.415217 3.094665-3.415217h2.612596c0.08179-0.841466-1.279697-1.797476-4.765878-0.725456v-2.514617c3.019951-1.079033 4.057077-0.636259 4.954794-0.462615h3.623983l-0.158983 2.711925h-0.864373c0.134155 0.4575 0.270797 0.909017 0.275867 1.676995v5.914692h-3.042988v-3.962497c-1.446905-0.128645-2.840715-0.170146-2.572915 0.96773 0.179386 0.762202 0.997084 0.635227 1.792104 0.565099z" stop-color="#000000"/><path d="m15.413251 16.859254v6.718026c0 5.154781 8.994806 4.722844 8.994806 0v-9.857707h-3.15521v9.611261c0 1.676374-2.872424 1.700473-2.872424 0v-6.487515z" stop-color="#000000"/><path d="m35.352821 19.477412 0.275643-2.718306c1.772289-0.0101 3.79929-0.412722 4.251572 1.611387 0.16081 1.579918-1.783888 3.631734-1.340828 4.795446 0.05043 1.237532 2.063138 1.815465 2.386168 0 0.262309-1.474204-0.358099-1.799587-0.885515-2.054404l0.0504-2.378399c0.816912 0.156426 1.081104-0.63588 0.923226-2.152657h3.004858c0.103204 2.313462-0.488144 2.671188-0.948171 3.398691 1.404647 1.1792 1.024711 4.892499-1.74e-4 5.982333-1.626253 1.729312-5.330674 1.58447-6.6 0-1.398928-1.74625-1.118865-4.501043-0.100334-5.554455 0.334944-0.854231-0.190186-1.013716-1.016845-0.929636z" stop-color="#000000"/></g></svg>
