<svg xmlns="http://www.w3.org/2000/svg" viewBox="0 0 48 48"><defs><style>.cls-1{fill:none;stroke:#fff;stroke-linecap:round;stroke-linejoin:round;}</style></defs><polygon class="cls-1" points="24.446 30.437 16.687 34.617 8.928 30.437 8.928 38.796 24.446 38.796 24.446 30.437"/><line class="cls-1" x1="20.17556" y1="27.28987" x2="24.44641" y2="30.4375"/><polyline class="cls-1" points="8.928 30.437 16.687 24.719 18.682 26.189"/><line class="cls-1" x1="22.56201" y1="13.52334" x2="34.97687" y2="13.52334"/><line class="cls-1" x1="22.56201" y1="17.20735" x2="34.97687" y2="17.20735"/><line class="cls-1" x1="22.56201" y1="20.89137" x2="30.43215" y2="20.89137"/><path class="cls-1" d="M36.53525,8.86772H20.78189a2.09956,2.09956,0,0,0-2.09955,2.09955v17.8158l3.28833-3.28827H36.53525a2.09957,2.09957,0,0,0,2.09961-2.09955v-12.428A2.09957,2.09957,0,0,0,36.53525,8.86772Z"/></svg>
