<svg xmlns="http://www.w3.org/2000/svg" viewBox="0 0 48 48"><defs><style>.a{fill:none;stroke:#fff;stroke-linecap:round;stroke-linejoin:round}</style></defs><path d="M7.5 5.5a2 2 0 0 0-2 2v16.559c.46-.11.931-.17 1.404-.176h.006a6.4 6.4 0 0 1 5.303 2.816 6.414 6.414 0 0 1 9.183-1.597c2.953 2.202 3.46 6.437 1.11 9.277l-.05.064-.052.057-6.799 8H40.5a2 2 0 0 0 2-2v-33a2 2 0 0 0-2-2z" class="a"/><path d="M10.417 30.354a2.247 2.246 0 0 0-1.745 3.664l3.603 4.229 3.569-4.186.017-.02.018-.023a2.25 2.248 0 1 0-3.604-2.68 2.243 2.242 0 0 0-1.856-.984z" class="a"/></svg>