<?xml version="1.0" encoding="UTF-8" standalone="no"?>
<svg
   xmlns:dc="http://purl.org/dc/elements/1.1/"
   xmlns:cc="http://creativecommons.org/ns#"
   xmlns:rdf="http://www.w3.org/1999/02/22-rdf-syntax-ns#"
   xmlns:svg="http://www.w3.org/2000/svg"
   xmlns="http://www.w3.org/2000/svg"
   xmlns:sodipodi="http://sodipodi.sourceforge.net/DTD/sodipodi-0.dtd"
   xmlns:inkscape="http://www.inkscape.org/namespaces/inkscape"
   viewBox="0 0 48 48"
   version="1.1"
   id="svg2289"
   sodipodi:docname="template.svg"
   inkscape:version="1.0.1 (3bc2e813f5, 2020-09-07)">
  <metadata
     id="metadata2293">
    <rdf:RDF>
      <cc:Work
         rdf:about="">
        <dc:format>image/svg+xml</dc:format>
        <dc:type
           rdf:resource="http://purl.org/dc/dcmitype/StillImage" />
        <dc:title></dc:title>
      </cc:Work>
    </rdf:RDF>
  </metadata>
  <sodipodi:namedview
     pagecolor="#5a5a5a"
     bordercolor="#666666"
     borderopacity="1"
     objecttolerance="10"
     gridtolerance="10"
     guidetolerance="10"
     inkscape:pageopacity="0"
     inkscape:pageshadow="2"
     inkscape:window-width="3840"
     inkscape:window-height="2096"
     id="namedview2291"
     showgrid="false"
     inkscape:zoom="1.6491"
     inkscape:cx="23.792713"
     inkscape:cy="24.147519"
     inkscape:window-x="0"
     inkscape:window-y="27"
     inkscape:window-maximized="1"
     inkscape:current-layer="svg2289"
     inkscape:document-rotation="0"
     showguides="false" />
  <defs
     id="defs2285">
    <style
       id="style2283">.a{fill:none;stroke:#fff;stroke-linecap:round;stroke-linejoin:round;}</style>
  </defs>
  <path
     style="fill:none;stroke:#ffffff;stroke-width:1px;stroke-linecap:butt;stroke-linejoin:miter;stroke-opacity:1"
     d="m 23.214008,10.608222 16.42771,3.347563 c 1.340944,0.288429 1.340708,1.389049 1.099734,2.4751 L 36.00495,40.647592 c -0.270997,1.426926 -0.983514,2.110244 -2.513708,1.806564 L 17.627783,39.200209 c -1.549971,-0.410984 -1.701502,-1.423781 -1.450049,-2.838776 l 4.911315,-24.364101 c 0.299196,-1.028307 0.792122,-1.752751 2.124959,-1.38911 z"
     id="path2327"
     sodipodi:nodetypes="ccccccccc" />
  <path
     style="fill:none;stroke:#ffffff;stroke-width:1px;stroke-linecap:butt;stroke-linejoin:miter;stroke-opacity:1"
     d="M 34.46841,12.915212 34.4271,10.977724 C 34.346753,9.7781967 33.931446,8.8777069 32.685221,8.9147504 L 16.087824,9.9107619 c -1.404903,0.03164 -2.004874,0.7613821 -1.941428,1.9638601 l 1.48568,24.878089 c -0.01853,1.347288 0.671576,2.232194 1.995707,2.447498 -1.322512,-0.279793 -1.951707,-0.998051 -2.351921,-2.233101 L 6.9519329,14.537137 C 6.6062063,13.44841 6.4745785,12.385288 7.8277796,11.814199 L 23.004415,6.0621098 c 1.501125,-0.5653546 2.141426,-0.3296586 2.717798,1.009806 l 0.83413,2.2699391"
     id="path2329"
     sodipodi:nodetypes="ccccccccccccc" />
  <path
     style="fill:none;stroke:#ffffff;stroke-width:1px;stroke-linecap:butt;stroke-linejoin:bevel;stroke-opacity:1"
     d="m 7.8743019,13.332708 c 2.0650115,-1.854005 4.5370381,-0.439506 1.6790112,1.088567 3.1740259,-0.37096 2.1572689,2.291644 -0.5906167,2.182101"
     id="path2331"
     sodipodi:nodetypes="ccc" />
  <path
     style="fill:none;stroke:#ffffff;stroke-width:1px;stroke-linecap:butt;stroke-linejoin:bevel;stroke-opacity:1"
     d="m 15.392068,11.574243 c 1.074182,-0.451874 1.996554,-0.418644 2.276154,-0.258703 0.813494,0.465345 0.478752,1.482498 0.07907,1.804076 l -2.023515,1.732664 3.062546,0.04107"
     id="path2333"
     sodipodi:nodetypes="csccc" />
  <path
     style="fill:none;stroke:#ffffff;stroke-width:1px;stroke-linecap:butt;stroke-linejoin:bevel;stroke-opacity:1"
     d="m 21.605615,15.712333 2.801246,-3.654579 1.062032,4.346531"
     id="path2335"
     sodipodi:nodetypes="ccc" />
  <path
     style="fill:none;stroke:#ffffff;stroke-width:1px;stroke-linecap:butt;stroke-linejoin:miter;stroke-opacity:1"
     d="m 22.696712,14.373366 2.340952,0.449938"
     id="path2337"
     sodipodi:nodetypes="cc" />
  <path
     style="fill:none;stroke:#ffffff;stroke-width:1px;stroke-linecap:butt;stroke-linejoin:bevel;stroke-opacity:1"
     d="m 31.423273,36.802851 1.143989,4.231481 2.743855,-3.556026"
     id="path2339"
     sodipodi:nodetypes="ccc" />
  <path
     style="fill:none;stroke:#ffffff;stroke-width:1px;stroke-linecap:butt;stroke-linejoin:miter;stroke-opacity:1"
     d="m 31.814936,38.243338 2.621373,0.535729"
     id="path2341"
     sodipodi:nodetypes="cc" />
  <path
     style="fill:none;stroke:#ffffff;stroke-width:1px;stroke-linecap:butt;stroke-linejoin:miter;stroke-opacity:1"
     d="m 27.330038,32.098318 -3.759113,-6.899116 c -1.576803,-3.349496 2.820016,-7.465963 5.738118,-2.738923 3.753333,-3.515428 7.104845,2.203603 4.132238,4.474967 z"
     id="path2343"
     sodipodi:nodetypes="ccccc" />
</svg>
