<?xml version="1.0" encoding="utf-8"?>
<!DOCTYPE svg PUBLIC "-//W3C//DTD SVG 1.1//EN" "http://www.w3.org/Graphics/SVG/1.1/DTD/svg11.dtd">
<svg version="1.1" id="Layer_1" xmlns="http://www.w3.org/2000/svg" xmlns:xlink="http://www.w3.org/1999/xlink" x="0px" y="0px"
	 width="48px" height="48px" viewBox="0 0 48 48" enable-background="new 0 0 48 48" xml:space="preserve">
<rect display="none" fill="#282828" width="48" height="48"/>
<g display="none">
	<defs>
		<rect id="SVGID_1_" width="48" height="48"/>
	</defs>
	<clipPath id="SVGID_2_" display="inline">
		<use xlink:href="#SVGID_1_"  overflow="visible"/>
	</clipPath>
	
		<path display="inline" clip-path="url(#SVGID_2_)" fill="none" stroke="#FFFFFF" stroke-linecap="round" stroke-linejoin="round" d="
		M40.5,5.5h-33c-1.105,0-2,0.895-2,2v33c0,1.105,0.895,2,2,2h33c1.105,0,2-0.895,2-2v-33C42.5,6.395,41.605,5.5,40.5,5.5z"/>
	
		<path display="inline" clip-path="url(#SVGID_2_)" fill="none" stroke="#FFFFFF" stroke-linecap="round" stroke-linejoin="round" d="
		M25.578,36.143c-0.041-4.789,1.063-8.746,7.081-8.498C41.246,5.762,6.235,6.596,15.568,27.514c2.829-0.175,7.521,1.51,6.72,9.146"
		/>
	
		<line display="inline" clip-path="url(#SVGID_2_)" fill="none" stroke="#FFFFFF" stroke-linecap="round" stroke-linejoin="round" x1="42.5" y1="33.479" x2="5.5" y2="39.303"/>
	
		<line display="inline" clip-path="url(#SVGID_2_)" fill="none" stroke="#FFFFFF" stroke-linecap="round" stroke-linejoin="round" x1="5.5" y1="11.04" x2="17.845" y2="13.33"/>
	
		<line display="inline" clip-path="url(#SVGID_2_)" fill="none" stroke="#FFFFFF" stroke-linecap="round" stroke-linejoin="round" x1="32.355" y1="15.53" x2="42.5" y2="17.011"/>
</g>
<image display="none" overflow="visible" width="192" height="192" xlink:href="ic_launcher3.png"  transform="matrix(0.2396 0 0 0.2396 1 1)">
</image>
<image display="none" overflow="visible" width="192" height="192" xlink:href="ic_launcher_round2.png"  transform="matrix(0.2266 0 0 0.2266 2.25 2.2515)">
</image>
<circle fill="none" stroke="#FFFFFF" stroke-linecap="round" stroke-linejoin="round" stroke-miterlimit="10" cx="24" cy="24" r="20.294"/>
<circle fill="none" stroke="#FFFFFF" stroke-linecap="round" stroke-linejoin="round" stroke-miterlimit="10" cx="23.999" cy="24" r="10.251"/>
<line fill="none" stroke="#FFFFFF" stroke-linecap="round" stroke-linejoin="round" stroke-miterlimit="10" x1="34.25" y1="24" x2="13.749" y2="24"/>
<path fill="none" stroke="#FFFFFF" stroke-linecap="round" stroke-linejoin="round" stroke-miterlimit="10" d="M11.393,35.546"/>
<path fill="none" stroke="#FFFFFF" stroke-linecap="round" stroke-linejoin="round" stroke-miterlimit="10" d="M16.104,30.619"/>
<line fill="none" stroke="#FFFFFF" stroke-linecap="round" stroke-linejoin="round" stroke-miterlimit="10" x1="30.898" y1="16.361" x2="35.309" y2="11.913"/>
<line fill="none" stroke="#FFFFFF" stroke-linecap="round" stroke-linejoin="round" stroke-miterlimit="10" x1="11.65" y1="35.546" x2="16.284" y2="30.879"/>
<path fill="none" stroke="#FFFFFF" stroke-linecap="round" stroke-linejoin="round" stroke-miterlimit="10" d="M32.109,15.048"/>
<path fill="none" stroke="#FFFFFF" stroke-linecap="round" stroke-linejoin="round" stroke-miterlimit="10" d="M27.699,19.497"/>
<path fill="none" stroke="#FFFFFF" stroke-linecap="round" stroke-linejoin="round" stroke-miterlimit="10" d="M35.309,11.913
	c17.254,17.94-9.19,39.121-23.658,23.633"/>
</svg>
