<svg width="48" height="48" xmlns="http://www.w3.org/2000/svg"><path style="fill:none;stroke:#fff;stroke-width:1;stroke-linecap:round;stroke-linejoin:round;stroke-miterlimit:4;stroke-dasharray:none;stroke-opacity:1" d="M38.383 17.451v21.172c-.285 3.636-6.83 3.6-7.057.06l.06-21.291-.777-.957 8.492-.06zm.115-9.201-12.414 5.867-.54 1.109-3.642-7.672 1.279.196 8.07-3.846m-3.633 15.96v21.171c-.285 3.636-6.83 3.601-7.057.06l.06-21.29-.777-.958 8.492-.06zm-10.765-2.39v21.171c-.285 3.636-6.83 3.601-7.057.06l.06-21.29-.777-.958 8.492-.06Z"/><path style="fill:none;stroke:#fff;stroke-width:1.11627;stroke-linecap:round;stroke-linejoin:round;stroke-miterlimit:4;stroke-dasharray:none;stroke-opacity:1;paint-order:stroke fill markers" d="M25.871 45.417a21.499 21.499 0 0 1-23.287-19.53A21.499 21.499 0 0 1 22.098 2.586a21.499 21.499 0 0 1 23.315 19.497 21.499 21.499 0 0 1-19.48 23.329"/></svg>