<?xml version="1.0" encoding="UTF-8"?>
<svg version="1.1" viewBox="0 0 48 48" xml:space="preserve" xmlns="http://www.w3.org/2000/svg" xmlns:xlink="http://www.w3.org/1999/xlink"><defs><style>.a{fill:none;stroke:#fff;stroke-linecap:round;stroke-linejoin:round;}</style></defs><path id="use29" d="m7.0596 25.575h-2.539" fill="none" stroke="#fff" stroke-linecap="round" stroke-linejoin="round" stroke-width="1px"/><path id="use30" d="m8.4236 28.321-3.607 0.63602" fill="none" stroke="#fff" stroke-linecap="round" stroke-linejoin="round" stroke-width="1px"/><use transform="rotate(20 24 25.575)" xlink:href="#use30"/><use transform="rotate(40 24 25.575)" xlink:href="#use30"/><use transform="rotate(60 24 25.575)" xlink:href="#use30"/><use transform="rotate(80 24 25.575)" xlink:href="#use30"/><use transform="rotate(100 24 25.575)" xlink:href="#use30"/><use transform="rotate(120 24 25.575)" xlink:href="#use30"/><use transform="rotate(140 24 25.575)" xlink:href="#use30"/><use transform="rotate(160 24 25.575)" xlink:href="#use30"/><use transform="rotate(180 24 25.575)" xlink:href="#use30"/><use transform="rotate(200 24 25.575)" xlink:href="#use30"/><use xlink:href="#use29"/><use transform="rotate(20 24 25.575)" xlink:href="#use29"/><use transform="rotate(40 24 25.575)" xlink:href="#use29"/><use transform="rotate(60 24 25.575)" xlink:href="#use29"/><use transform="rotate(80 24 25.575)" xlink:href="#use29"/><use transform="rotate(100 24 25.575)" xlink:href="#use29"/><use transform="rotate(120 24 25.575)" xlink:href="#use29"/><use transform="rotate(140 24 25.575)" xlink:href="#use29"/><use transform="rotate(160 24 25.575)" xlink:href="#use29"/><use transform="rotate(180 24 25.575)" xlink:href="#use29"/><circle cx="24" cy="25.575" r="1.3146" fill="none" stroke="#fff" stroke-linecap="round" stroke-linejoin="round"/><path d="m20.911 28.167 2.082-1.747m2.1153-1.6839 8.6597-7.3574" fill="none" stroke="#fff" stroke-linecap="round" stroke-linejoin="round" stroke-width="1px"/><g transform="translate(-66.335 -22.795)">
		
			<path class="st5" d="m88 61.3c0-1.1-0.9-2-2-2v0c-1.1 0-2 0.9-2 2v1.3c0 1.1 0.9 2 2 2v0c1.1 0 2-0.9 2-2" fill="none" stroke="#fff" stroke-linecap="round" stroke-linejoin="round" stroke-miterlimit="10"/>
		
		<line class="st5" x1="88" x2="88" y1="64.7" y2="56.7" fill="none" stroke="#fff" stroke-linecap="round" stroke-linejoin="round" stroke-miterlimit="10"/>
	</g><g transform="translate(-38.365 -6.8954)" fill="none" stroke="#fff" stroke-linecap="round" stroke-linejoin="round" stroke-miterlimit="10">
		<path class="st5" d="m66.7 44.7c1.1 0 2 0.9 2 2s-0.9 2-2 2h-3.3v-8h3.3c1.1 0 2 0.9 2 2s-0.9 2-2 2z"/>
		<line class="st5" x1="66.7" x2="63.3" y1="44.7" y2="44.7"/>
	</g></svg>
