<svg xmlns="http://www.w3.org/2000/svg" viewBox="0 0 48 48"><defs><style>.a{fill:none;stroke:#fff;stroke-linecap:round;stroke-linejoin:round;}</style></defs><path class="a" d="M16.48,42a8.12,8.12,0,0,1-4.11-2.34,9.39,9.39,0,0,1-2.76-6.24,14.61,14.61,0,0,1,.63-4.65,13.6,13.6,0,0,1,4-5.91,13.74,13.74,0,0,1,4.44-2.23,10.84,10.84,0,0,1,4.5-.05A8.84,8.84,0,0,1,26,21.84c.34.3.49.13.6-.65.05-.38.39-1.81.39-1.81,2-1.74,6.3-5.69,5.44-2.44-.21,1.16-.84,4.81-1.4,8.12s-1.14,6.51-1.26,7.12a12.92,12.92,0,0,1-4.45,7.4,10.24,10.24,0,0,1-6.46,2.56A9.64,9.64,0,0,1,16.48,42Zm3.75-5A8.18,8.18,0,0,0,25,30a5.16,5.16,0,0,0-1.88-4.07c-3.34-2.3-8.54,1.8-8.54,6.71C14.61,36.1,17.15,38.09,20.23,37Zm10-23.57A28.73,28.73,0,0,1,36.93,9.8C38,9.42,38,9.42,38.13,8.36c.29-2,.33-2.51.23-2.51a32.26,32.26,0,0,0-3.11.93c-2.41.84-6.39,3-6.55,3.61,0,.12-.2,1.13-.36,2.23s-.34,2.21-.41,2.47c-.13.46-.13.46.66-.28C29,14.4,29.75,13.78,30.2,13.43Z"/></svg>