<svg xmlns="http://www.w3.org/2000/svg" viewBox="0 0 48 48"><defs><style>.a{fill:none;stroke:#fff;stroke-linecap:round;stroke-linejoin:round;}</style></defs> <path class="a"                       d="M27.95,23.54C30.83,25.00,31.68,28.73,29.75,31.17C28.64,32.31,30.72,33.00,31.67,30.16C33.46,25.08,30.74,22.30,27.55,20.42Q26.80,19.94,25.33,17.83C25.42,15.42,22.61,15.46,23.10,18.00L22.99,31.17C13.89,30.88,13.35,40.28,20.58,39.51C23.16,38.98,25.78,36.55,25.35,31.14L25.24,25.80C25.32,23.75,26.14,23.03,27.95,23.54z"/> <path class="a"                       d="M38.96,23.98L42.58,22.89"/> <path class="a"                       d="M35.82,18.04L38.78,15.66"/> <path class="a"                       d="M30.45,13.91L32.16,10.52"/> <path class="a"                       d="M24.02,12.61L24.09,8.81"/> <path class="a"                       d="M17.53,14.01L15.85,10.60"/> <path class="a"                       d="M12.25,18.09L9.33,15.66"/> <path class="a"                       d="M5.43,22.94L9.11,23.86"/> <path class="a"                       d="M40.60,18.50C41.00,18.50,41.32,18.83,41.32,19.23C41.32,19.63,41.00,19.96,40.60,19.96C40.20,19.96,39.87,19.63,39.87,19.23C39.87,18.83,40.20,18.50,40.60,18.50z"/> <path class="a"                       d="M35.37,12.42C35.77,12.42,36.10,12.74,36.10,13.14C36.10,13.55,35.77,13.87,35.37,13.87C34.97,13.87,34.64,13.55,34.64,13.14C34.64,12.74,34.97,12.42,35.37,12.42z"/> <path class="a"                       d="M28.01,9.11C28.41,9.11,28.73,9.43,28.73,9.83C28.73,10.24,28.41,10.56,28.01,10.56C27.61,10.56,27.28,10.24,27.28,9.83C27.28,9.43,27.61,9.11,28.01,9.11z"/> <path class="a"                       d="M12.74,12.46C13.14,12.46,13.46,12.79,13.46,13.19C13.46,13.59,13.14,13.92,12.74,13.92C12.33,13.92,12.01,13.59,12.01,13.19C12.01,12.79,12.33,12.46,12.74,12.46z"/> <path class="a"                       d="M20.04,9.12C20.44,9.12,20.77,9.44,20.77,9.85C20.77,10.25,20.44,10.57,20.04,10.57C19.64,10.57,19.31,10.25,19.31,9.85C19.31,9.44,19.64,9.12,20.04,9.12z"/> <path class="a"                       d="M7.45,18.62C7.85,18.62,8.17,18.95,8.17,19.35C8.17,19.75,7.85,20.08,7.45,20.08C7.04,20.08,6.72,19.75,6.72,19.35C6.72,18.95,7.04,18.62,7.45,18.62z"/></svg>