<svg xmlns="http://www.w3.org/2000/svg" viewBox="0 0 48 48"><defs><style>.a{fill:none;stroke:#fff;stroke-linecap:round;stroke-linejoin:round;}</style></defs><path class="a" d="M14.6177,26.218,4.8271,32.9225a.7517.7517,0,0,0,.4247,1.372H24.0972a1.2253,1.2253,0,0,0,1.1593-1.6217l-2.4309-7.1081a2.8414,2.8414,0,1,1,2.847-.9645l2.7618,8.0726a2.3978,2.3978,0,0,0,2.2688,1.6217h5.0821a1.6659,1.6659,0,0,0,1.5541-2.2656l-3.3779-8.7514-.0036-.0072-.5741-1.4883L32.4912,19.47"/><path class="a" d="M33.3838,21.782l9.7891-6.7041a.752.752,0,0,0-.425-1.3724H12.2144a1.6656,1.6656,0,0,0-1.5538,2.2655l3.2229,8.3466.7342,1.9.7343,1.9"/></svg>