<svg viewBox="0 0 48 48" xmlns="http://www.w3.org/2000/svg">
    <style>
        .a{fill:none;stroke:#FFFFFF;stroke-linecap:round;stroke-linejoin:round}
    </style>
    <path class="a" d="M16,43.9500008h0.0100002c10.3600006,4.1800003,22.3399982-0.3199997,27.3099995-10.5100021 c5.2000008-10.6699982,0.7799988-23.5299988-9.8899994-28.7399979C22.7700005-0.5,9.8999996,3.9300001,4.6999998,14.5900002 C2.03,20.0599995,1.8200001,26.3799992,4.0700002,31.9799995"/>
    <circle class="a" cx="11.0897474" cy="36.9102516" r="8.5800915"/>
    <path class="a" d="M2.8289154,39.1450691c0.0399072,0.0798149,0.2394445,0.4389801,0.2793517,0.4788857 c0.8779628,1.1573143,2.0751851,1.835743,3.4719441,2.2348175c1.0375919,0.2793503,2.1150918,0.3192558,3.1925921,0.1995354 c0.5587034-0.0798149,1.1972218-0.2394447,1.915555-0.518795c0.3990746-0.1596298,0.9976854-0.3990746,1.6362038-0.7981491 c0.0399075-0.0399055,0.6385183-0.3591652,1.1174078-0.7981491c1.2371283-1.0774994,2.1150923-2.4343491,2.4742594-4.0306473 c0.3990746-1.8756447,0.0399055-3.5916634-1.2371292-5.0682392c-1.1174068-1.3169441-2.5540733-1.9554615-4.1902771-2.2348137 c-0.7582407-0.1197224-1.5563889-0.1197224-2.3146286,0c-0.2394447,0.0399075-0.438982,0.0399075-0.5587034,0.0798149"/>
    <path class="a" d="M9.8127098,41.8986778v-6.5778465c0-0.1995354-0.0399075-0.2793503-0.2793512-0.2793503H8.256321 c-0.3192587,0-0.3990741-0.1197205-0.3990741-0.3990746v-1.2770348c0-0.1596298,0.0798154-0.2793541,0.2394443-0.359169 c0.7981482-0.3990746,1.6362038-0.8380547,2.4343519-1.2371292c0.1995373-0.1197224,0.3990746-0.1596279,0.6385183-0.1596279 h1.6761103c0.3990746,0,0.4788895,0.0798149,0.4788895,0.4788876v8.5333061"/>
    <path class="a" d="M25.8544312,24.1300049c1.3219604-0.6779175,2.236145-2.0390015,2.236145-3.62677 c0-2.2591553-1.8314209-4.0905762-4.0905762-4.0905762s-4.0905762,1.8314209-4.0905762,4.0905762 c0,1.5877686,0.9141846,2.9488525,2.236145,3.62677h-0.015564l-1.1099854,7.6500244h5.9599609l-1.1099854-7.6500244H25.8544312z"/>
</svg>
