<svg width="48" height="48" version="1.1" viewBox="0 0 48 48" xmlns="http://www.w3.org/2000/svg">
 <g fill="none" stroke="#fff" stroke-linecap="round" stroke-width="1px">
  <g stroke-linejoin="round">
   <path d="m24 37.362c-0.12455 0.66549-1.364 3.7862-3.9213 3.8336-4.165 0.07715-3.2164-2.7845-6.6497-5.2719-3.4333-2.4874-3.1889-4.296-3.4915-6.3361"/>
   <path d="m11.238 30.908c-2.4967-1.2398-2.9548-7.3856-1.0276-6.4001 0 0-1.7363-6.01 1.4129-7.561"/>
   <path d="m12.772 19.636s-2.9089-5.1423 1.2586-7.7329"/>
   <path d="m14.19 13.616c-0.029805-0.21625-1.2695-4.69 3.4898-5.4134"/>
   <path d="m17.403 9.1505s2.0399-5.3182 6.5975-0.51174"/>
   <path d="m20.082 38.753c-0.83917 0.04325-2.5014 0.33915-4.633-3.6447"/>
   <path d="m19.36 34.107s1.8095 0.16254 2.6088 2.5279"/>
   <path d="m14.614 31.111s-2.3489-1.4115-2.1447-4.0578c0.20418-2.646-0.75288-3.7227-0.75288-3.7227"/>
   <path d="m14.824 22.473s1.4741-0.18259 2.0893 2.1584c0.38975 1.483 1.7246 1.0481 2.2266 0.69909"/>
   <path d="m19.785 23.196s1.6738 0.26559 2.0984-0.93013"/>
   <path d="m17.419 21.802s0.36083-1.7686-0.49107-3.4379c-0.7522-1.474 0.32299-3.8109 0.32299-3.8109"/>
   <path d="m19.136 13.691s-2.5625-1.5162 0.40187-4.0869"/>
   <path d="m20.459 11.788c0.44953 2.2777 1.0976 4.6816-0.28991 8.2219"/>
   <path d="m14.991 33.129c0.16513 0 4.0612 0.11301 2.639-3.129-1.4221-3.242-2.5272-2.6976-2.8505-5.9239"/>
   <path d="m21.366 29.869s-1.216 1.7337-4.1277-0.68848"/>
  </g>
  <g transform="matrix(-1,0,0,1,48,0)" stroke-linejoin="round">
   <path d="m24 37.362c-0.12455 0.66549-1.364 3.7862-3.9213 3.8336-4.165 0.07715-3.2164-2.7845-6.6497-5.2719-3.4333-2.4874-3.1889-4.296-3.4915-6.3361"/>
   <path d="m11.238 30.908c-2.4967-1.2398-2.9548-7.3856-1.0276-6.4001 0 0-1.7363-6.01 1.4129-7.561"/>
   <path d="m12.772 19.636s-2.9089-5.1423 1.2586-7.7329"/>
   <path d="m14.19 13.616c-0.029805-0.21625-1.2695-4.69 3.4898-5.4134"/>
   <path d="m17.403 9.1505s2.0399-5.3182 6.5975-0.51174"/>
   <path d="m20.082 38.753c-0.83917 0.04325-2.5014 0.33915-4.633-3.6447"/>
   <path d="m19.36 34.107s1.8095 0.16254 2.6088 2.5279"/>
   <path d="m14.614 31.111s-2.3489-1.4115-2.1447-4.0578c0.20418-2.646-0.75288-3.7227-0.75288-3.7227"/>
   <path d="m14.824 22.473s1.4741-0.18259 2.0893 2.1584c0.38975 1.483 1.7246 1.0481 2.2266 0.69909"/>
   <path d="m19.785 23.196s1.6738 0.26559 2.0984-0.93013"/>
   <path d="m17.419 21.802s0.36083-1.7686-0.49107-3.4379c-0.7522-1.474 0.32299-3.8109 0.32299-3.8109"/>
   <path d="m19.136 13.691s-2.5625-1.5162 0.40187-4.0869"/>
   <path d="m20.459 11.788c0.44953 2.2777 1.0976 4.6816-0.28991 8.2219"/>
   <path d="m14.991 33.129c0.16513 0 4.0612 0.11301 2.639-3.129-1.4221-3.242-2.5272-2.6976-2.8505-5.9239"/>
   <path d="m21.366 29.869s-1.216 1.7337-4.1277-0.68848"/>
  </g>
  <path d="m24 37.362v-28.723"/>
 </g>
</svg>
