<svg xmlns="http://www.w3.org/2000/svg" viewBox="0 0 48 48">
    <defs>
        <style>
            .a{
            fill:none;
            stroke:#fff;
            stroke-linecap:round;
            stroke-linejoin:round;
            }
            </style>
        </defs><path
     class="a"
     d="M 40.499984,5.5000249 H 7.5000224 A 1.9999975,1.9999975 0 0 0 5.5000248,7.5000225 V 40.49998 a 1.9999975,1.9999975 0 0 0 1.9999976,1.999995 H 40.499984 A 1.9999975,1.9999975 0 0 0 42.499975,40.49998 V 7.5000225 A 1.9999975,1.9999975 0 0 0 40.499984,5.5000249 Z M 26.50358,19.328349 22.796407,15.621177 m 3.707177,-2e-6 -3.707171,3.707173 m 6.213579,-1.853591 H 20.290006 M 24.65,11.238449 v 9.828598 m 6.366754,5.10881 2.599997,2.699993 m -5.299992,0 v -7.999988 h 2.599995 c 1.499998,0 2.699997,1.199998 2.699997,2.699996 0,1.499997 -1.199999,2.699996 -2.699997,2.699996 h -2.599995 m -12.633513,2.599995 v -7.999988 h 2.599997 c 1.499998,0 2.699996,1.199998 2.699996,2.699996 0,1.499997 -1.199998,2.699997 -2.699996,2.699997 h -2.599997 m 20.400273,-5.399993 v 7.999988 m 0,-3.999994 h 2.599999 m -2.599999,-3.999994 h 3.999999 m -3.999999,7.999988 h 3.999999 M 8.016487,27.975851 c 0.4999996,0.6 1.0999993,0.899998 1.999997,0.899998 h 1.199999 c 1.099998,0 1.999998,-0.899998 1.999998,-1.999996 v 0 c 0,-1.099998 -0.9,-1.999998 -1.999998,-1.999998 H 9.9164851 c -1.0999988,0 -1.999998,-0.899998 -1.999998,-1.999997 v 0 c 0,-1.099999 0.8999992,-1.999997 1.999998,-1.999997 h 1.1999979 c 0.899998,0 1.499998,0.2 1.999997,0.899998 M 24.65,20.875861 v 7.999988 m -1.199998,-7.999988 h 2.399986 m -2.399986,7.999988 h 2.399986"/>
</svg>
