<svg xmlns="http://www.w3.org/2000/svg" viewBox="0 0 48 48"><defs><style>.a{fill:none;stroke:#fff;stroke-linecap:round;stroke-linejoin:round;}</style></defs><path class="a" d="M40.21,22.82v3.36m-2-3.36V26M39,37.41h.81m-.4-3.25h.81m-.81-3.25h.81M37,26V39M33.75,26h4.87c3.25,0,4.88,1.63,4.88,3.25v8.13c0,1.62-1.63,4.87-4.87,4.87H33.75Z"/><path class="a" d="M7.79,26.19V22.82m2,3.17V22.82M8.16,37.41H9M7.75,34.16h.81m-.81-3.25h.81M11,39V26m3.25,16.25H9.37C6.13,42.28,4.5,39,4.5,37.41V29.28C4.5,27.66,6.13,26,9.38,26h4.87ZM24,5.72c-8.94,0-17.87,5.69-17.87,17.06H11c0-8.12,6.5-12.19,13-12.19h0c6.5,0,13,4.07,13,12.19h4.87C41.87,11.41,32.94,5.72,24,5.72Z"/></svg>