<svg id="Layer_2" data-name="Layer 2" xmlns="http://www.w3.org/2000/svg" viewBox="0 0 48 48"><defs><style>.cls-1{fill:none;stroke:#fff;stroke-linecap:round;stroke-linejoin:round;}</style></defs><path class="cls-1" d="M38,4.5H21.28a2.93,2.93,0,0,0-2.93,2.92v.29a3.48,3.48,0,0,0-3.47,3.46V17.9a13,13,0,0,1-2.11,7.68C11.13,28.3,8.28,30.91,8.28,35.7c0,3.66,1.85,5.49,4,5.49s4-1.82,4-5.31V17.94h2V43.5h22.5V7.42A2.93,2.93,0,0,0,38,4.5ZM37,22.57h-15V8.4H37Z"/><line class="cls-1" x1="18.35" y1="7.71" x2="18.35" y2="17.94"/><path class="cls-1" d="M33.46,12.27a4.49,4.49,0,0,0-3.21-1.33,4.55,4.55,0,1,0,3.21,7.76"/><line class="cls-1" x1="24" y1="16.89" x2="29.87" y2="16.89"/><line class="cls-1" x1="24" y1="14.08" x2="29.87" y2="14.08"/><line class="cls-1" x1="16.36" y1="17.94" x2="14.88" y2="17.94"/></svg>