<?xml version="1.0" encoding="UTF-8" standalone="no"?>
<svg
   xmlns:dc="http://purl.org/dc/elements/1.1/"
   xmlns:cc="http://creativecommons.org/ns#"
   xmlns:rdf="http://www.w3.org/1999/02/22-rdf-syntax-ns#"
   xmlns:svg="http://www.w3.org/2000/svg"
   xmlns="http://www.w3.org/2000/svg"
   xmlns:sodipodi="http://sodipodi.sourceforge.net/DTD/sodipodi-0.dtd"
   xmlns:inkscape="http://www.inkscape.org/namespaces/inkscape"
   viewBox="0 0 48 48"
   version="1.1"
   id="svg8"
   sodipodi:docname="Spritpreise.svg"
   inkscape:version="1.0.1 (3bc2e813f5, 2020-09-07)"
   inkscape:export-xdpi="512"
   inkscape:export-ydpi="512">
  <metadata
     id="metadata12">
    <rdf:RDF>
      <cc:Work
         rdf:about="">
        <dc:format>image/svg+xml</dc:format>
        <dc:type
           rdf:resource="http://purl.org/dc/dcmitype/StillImage" />
        <dc:title />
      </cc:Work>
    </rdf:RDF>
  </metadata>
  <sodipodi:namedview
     pagecolor="#ffffff"
     bordercolor="#666666"
     borderopacity="1"
     objecttolerance="10"
     gridtolerance="10"
     guidetolerance="10"
     inkscape:pageopacity="0"
     inkscape:pageshadow="2"
     inkscape:window-width="1920"
     inkscape:window-height="1027"
     id="namedview10"
     showgrid="false"
     inkscape:pagecheckerboard="true"
     inkscape:zoom="17.166667"
     inkscape:cx="16.427184"
     inkscape:cy="24"
     inkscape:window-x="0"
     inkscape:window-y="0"
     inkscape:window-maximized="1"
     inkscape:current-layer="g973"
     inkscape:document-rotation="0"
     inkscape:object-paths="true"
     inkscape:snap-intersection-paths="true"
     showguides="true"
     inkscape:guide-bbox="true" />
  <defs
     id="defs4">
    <style
       id="style2">.a{fill:none;stroke:#fff;stroke-linecap:round;stroke-linejoin:round;}</style>
    <style
       id="style79">.a{fill:none;stroke:#fff;stroke-linecap:round;stroke-linejoin:round;}</style>
    <style
       id="style743">.a{fill:none;stroke:#fff;stroke-linecap:round;stroke-linejoin:round;}</style>
  </defs>
  <g
     inkscape:groupmode="layer"
     id="g973"
     inkscape:label="Arcticon"
     style="display:inline;opacity:1">
    <path
       class="st0"
       d="m 18.637297,42.593952 v -8 h 1.3 c 2.2,0 4,1.8 4,4 v 0 c 0,2.2 -1.8,4 -4,4 z"
       id="path953"
       style="display:inline" />
    <path
       id="polyline955"
       style="fill:none;stroke:#ffffff;stroke-linecap:round;stroke-linejoin:round;stroke-miterlimit:10"
       d="m 16.78785,42.593952 c -0.866667,-2.666667 -1.733333,-5.333333 -2.6,-8 -0.9,2.666667 -1.8,5.333333 -2.7,8" />
    <line
       class="st0"
       x1="12.387852"
       y1="39.893955"
       x2="15.887852"
       y2="39.893955"
       id="line957" />
    <path
       class="st0"
       d="m 36.51215,39.893952 v 0 c 0,1.5 -1.2,2.7 -2.7,2.7 v 0 c -1.5,0 -2.7,-1.2 -2.7,-2.7 v -2.700004 c 0,-1.5 1.2,-2.7 2.7,-2.7 v 0 c 1.5,0 2.6,1.2 2.6,2.7 v 0"
       id="path961"
       style="display:inline" />
    <path
       id="polyline963"
       style="fill:none;stroke:#ffffff;stroke-linecap:round;stroke-linejoin:round;stroke-miterlimit:10"
       d="m 30.091813,42.593952 c -0.866667,-2.666667 -1.733333,-5.333333 -2.6,-8 -0.9,2.666667 -1.8,5.333333 -2.7,8" />
    <line
       class="st0"
       x1="25.691814"
       y1="39.893955"
       x2="29.191814"
       y2="39.893955"
       id="line965" />
    <path
       d="m 7.4664793,22.574423 8.5136817,-8.539764 8.428052,8.453861 -8.49835,8.524378 z"
       id="path1183"
       style="fill:none;stroke:#ffffff;stroke-width:1px;stroke-linecap:round;stroke-linejoin:round" />
    <path
       d="m 17.651922,19.348111 c -0.370064,0.0034 -0.667761,0.306543 -0.667773,0.67776 v 1.130482 h -4.452681 c -0.373157,3.1e-5 -0.675652,0.303448 -0.67569,0.677753 v 3.187578 c 0,0.374321 0.302521,0.677762 0.67569,0.677762 0.373176,0 0.675692,-0.303441 0.675692,-0.677762 v -2.509818 h 3.776989 v 1.130483 c -2.42e-4,0.614967 0.750437,0.91242 1.169259,0.463306 0,0 1.122606,-1.207175 1.686584,-1.808238 0.0018,-0.0019 0.0025,-0.0044 0.0041,-0.0063 0.164902,-0.176381 0.174823,-0.296224 0.174823,-0.455802 0,-0.168965 -0.102489,-0.347772 -0.182643,-0.449266 C 19.288755,20.789783 18.70723,20.15953 18.152404,19.56395 18.022747,19.424966 17.840706,19.347141 17.650935,19.349462 Z"
       id="path969"
       style="fill:#ffffff;fill-opacity:1;fill-rule:nonzero;stroke:none;stroke-width:1px;stroke-linecap:round;stroke-linejoin:round" />
    <path
       style="display:inline;opacity:1;fill:none;stroke:#ffffff;stroke-width:1;stroke-linecap:round;stroke-linejoin:round;paint-order:stroke fill markers"
       d="m 38.342709,11.11912 c 1.046847,1.23e-4 1.921864,0.737935 2.136525,1.723427 0.03307,0.151474 0.0505,0.308809 0.05051,0.470208 -1.33e-4,1.211451 -0.979178,2.193495 -2.186936,2.193632 -1.207753,-1.37e-4 -2.186805,-0.982181 -2.186929,-2.193632 1.24e-4,-1.211454 0.979176,-2.193501 2.186929,-2.193635 z"
       id="path1175"
       sodipodi:nodetypes="cscccc" />
    <path
       style="display:inline;opacity:1;fill:none;stroke:#ffffff;stroke-width:1;stroke-linecap:round;stroke-linejoin:round;paint-order:stroke fill markers"
       d="m 27.006441,8.4095932 v 3.1240458 h 3.267594 l -3.990789,6.216315 v -3.457627 l -3.056437,-0.07418 z"
       id="path983" />
    <path
       style="display:inline;opacity:1;fill:none;stroke:#ffffff;stroke-width:1;stroke-linecap:round;stroke-linejoin:round;paint-order:stroke fill markers"
       d="M 33.224849,16.482909 V 7.1837993 c 0,-0.7123695 -0.851985,-1.6837991 -1.678666,-1.6837991 h -9.380419 c -0.898805,0 -1.942606,0.9632521 -1.942606,1.9485513 v 6.9682125 l 7.641092,7.521523 c 0.244962,0.245712 0.25308,0.707188 0,0.961042 l -6.028411,6.044227 h 9.509793 c 0.842258,0 1.850222,-1.1277 1.850222,-1.8559 v -7.307139 z"
       id="path971" />
    <path
       style="fill:none;stroke:#ffffff;stroke-width:1px;stroke-linecap:round;stroke-linejoin:round;stroke-opacity:1"
       d="m 33.895911,18.243404 h 1.424303 c 0.490322,0 0.857334,0.557338 0.857334,0.983822 v 7.154401 c 0,0.925867 1.361766,1.590303 2.243691,1.566884 0.881922,-0.02331 2.112297,-0.741431 2.112261,-1.566884 l -6.1e-4,-12.671753 -2.5e-5,-0.518436 M 39.998595,11.880071 39.71174,11.577436 35.52581,7.1612487"
       id="path1171"
       sodipodi:nodetypes="cccszsccccc" />
  </g>
  <style
     type="text/css"
     id="style781">
	.st0{fill:none;stroke:#FFFFFF;stroke-linecap:round;stroke-linejoin:round;stroke-miterlimit:10;}
	.st1{fill:#FFFFFF;}
	.st2{fill:none;stroke:#FFFFFF;stroke-width:1;stroke-linecap:round;stroke-linejoin:round;stroke-miterlimit:10;}
	.st3{fill:none;stroke:#FFFFFF;stroke-width:1;stroke-linecap:round;stroke-linejoin:round;stroke-miterlimit:10;}
	.st4{fill:none;stroke:#FFFFFF;stroke-width:1;stroke-linecap:round;stroke-linejoin:round;stroke-miterlimit:10;}
</style>
</svg>
