<?xml version="1.0" encoding="UTF-8" standalone="no"?>
<!-- Created with Inkscape (http://www.inkscape.org/) -->

<svg
   width="48"
   height="48"
   viewBox="0 0 48 48"
   version="1.1"
   id="svg5"
   xml:space="preserve"
   inkscape:version="1.2 (dc2aedaf03, 2022-05-15)"
   sodipodi:docname="stack_inkscape.svg"
   xmlns:inkscape="http://www.inkscape.org/namespaces/inkscape"
   xmlns:sodipodi="http://sodipodi.sourceforge.net/DTD/sodipodi-0.dtd"
   xmlns="http://www.w3.org/2000/svg"
   xmlns:svg="http://www.w3.org/2000/svg"><sodipodi:namedview
     id="namedview7"
     pagecolor="#808080"
     bordercolor="#666666"
     borderopacity="1.0"
     inkscape:showpageshadow="2"
     inkscape:pageopacity="0"
     inkscape:pagecheckerboard="0"
     inkscape:deskcolor="#d1d1d1"
     inkscape:document-units="mm"
     showgrid="false"
     inkscape:zoom="22.627417"
     inkscape:cx="15.843611"
     inkscape:cy="23.224038"
     inkscape:window-width="2403"
     inkscape:window-height="1751"
     inkscape:window-x="3378"
     inkscape:window-y="180"
     inkscape:window-maximized="0"
     inkscape:current-layer="layer2" /><defs
     id="defs2"><style
       id="style9">.a{fill:none;stroke:#fff;stroke-linecap:round;stroke-linejoin:round;}</style><style
       id="style71">.a{fill:none;stroke:#fff;stroke-linecap:round;stroke-linejoin:round;}</style><style
       id="style83">.a{fill:none;stroke:#fff;stroke-linecap:round;stroke-linejoin:round;}</style><style
       id="style4114">.a{fill:none;stroke:#fff;stroke-linecap:round;stroke-linejoin:round;}</style></defs><g
     inkscape:groupmode="layer"
     id="layer2"
     inkscape:label="Layer 2"><path
       d="M 43.500001,28.812056 25.686917,39.104157 22.324114,37.164073 22.310353,37.150311 7.8765861,28.812056 C 6.888655,28.16811 6.0850986,27.29022 5.5182058,26.302294 4.8577469,25.162993 4.4999995,23.853094 4.4999995,22.496395 c 0,-1.221814 0.6136762,-2.231802 1.505294,-2.831678 0.1210848,-0.07432 0.2394142,-0.143131 0.3660057,-0.209152 0.957662,-0.487109 2.1574913,-0.525608 3.2279858,0.09633 l 3.805865,2.195979 3.354613,1.931837 0.022,-0.0082 8.905149,5.137804 8.883141,-5.132289 8.929943,5.132289 z"
       fill="#232323"
       id="path208"
       style="display:inline;fill:none;stroke:#ffffff;stroke-width:1;stroke-linecap:round;stroke-linejoin:round;stroke-dasharray:none;stroke-opacity:1" /><path
       id="path2749"
       style="fill:none;stroke:#ffffff;stroke-width:1;stroke-linecap:round;stroke-linejoin:round;stroke-opacity:1;stroke-dasharray:none"
       d="M 27.549836,9.3443975 C 26.432857,8.7401905 25.256592,8.6957913 24.022397,9.4186924 M 25.684577,28.805871 43.49709,18.524733 27.549835,9.3443975 m -3.527438,0.074294 c -0.04402,0.024756 0.04401,-0.024756 0,0 L 10.122518,17.22861 7.8907321,18.577007 6.3689298,19.452111 c 0.9576617,-0.487054 2.1574966,-0.525608 3.2279854,0.09633 l 3.8278998,2.179543 3.354557,1.940083 8.905205,5.137804" /></g></svg>
