<?xml version="1.0" encoding="UTF-8"?>
<svg version="1.1" viewBox="0 0 48 48" xmlns="http://www.w3.org/2000/svg">
 <defs>
  <style>.a{fill:none;stroke:#fff;stroke-linecap:round;stroke-linejoin:round;}</style>
 </defs>
 <circle class="a" cx="31.43" cy="39.21" r="4"/>
 <circle class="a" cx="16.57" cy="39.21" r="4"/>
 <path class="a" d="m29.13 32.22-5.434 6.984h-7.124l5.454-6.984h7.104"/>
 <path class="a" d="m31.43 39.21-3.16-9.58h-2.324"/>
 <path class="a" d="m21.5 30.01 2.194 9.197"/>
 <path class="a" d="m20.08 30.01h2.958"/>
 <path class="a" d="m9.2 27.3c-0.4172 6.448-2.209 12.25-4.2 17.9 12.67 0.5851 25.34 0.5846 38 0-1.961-5.54-3.776-11.26-4.2-17.9"/>
 <path class="a" d="m7 27.3v-2.6h34v2.6z"/>
 <path class="a" d="m9.2 24.7v-12h7.1v12"/>
 <path class="a" d="m20 24.7v-14"/>
 <path class="a" d="m28 10.7v14"/>
 <path class="a" d="m24 6.7v-4.4"/>
 <path class="a" d="m22 4.3h4"/>
 <path class="a" d="m31.7 24.7v-12h7.1v12"/>
 <path class="a" d="m20 10.7a4 4 0 0 1 4-4 4 4 0 0 1 4 4"/>
 <path class="a" d="m28.01 11.2h1.492"/>
 <path class="a" d="m20 11.2h-1.5"/>
 <path class="a" d="m12.73 10.78-0.4848-1.133-1.226 0.1202 0.7383-0.9862-0.717-1.002 1.223 0.1464 0.5089-1.122 0.4848 1.133 1.226-0.1202-0.7383 0.9862 0.717 1.002-1.223-0.1464z"/>
 <path class="a" d="m35.23 10.78-0.4848-1.133-1.226 0.1202 0.7383-0.9862-0.717-1.002 1.223 0.1464 0.5089-1.122 0.4848 1.133 1.226-0.1202-0.7383 0.9862 0.717 1.002-1.223-0.1464z"/>
</svg>
