<svg xmlns="http://www.w3.org/2000/svg" viewBox="0 0 48 48"><defs><style>.a{fill:none;stroke:#fff;stroke-linecap:round;stroke-linejoin:round;}</style></defs> <path class="a"          d="M22.13,37.13L12.00,42.00L14.25,28.88L4.88,19.50L18.00,17.25L24.00,5.25L30.00,17.25L43.13,19.50L33.75,28.88L36.00,42.37L25.88,37.13"/> <path class="a"          d="M23.99,17.23C26.48,17.23,28.50,19.25,28.50,21.74C28.50,24.23,26.48,26.25,23.99,26.25C21.50,26.25,19.48,24.23,19.48,21.74C19.48,19.25,21.50,17.23,23.99,17.23z"/> <path class="a"          d="M25.50,37.88Q24.00,39.38,22.50,37.88L21.38,26.25Q24.00,28.13,26.63,26.25L25.50,37.88z"/> <path class="a"          d="M24.00,32.25L24.00,28.88"/></svg>