<svg width="48" height="48" version="1.1" viewBox="0 0 48 48" xmlns="http://www.w3.org/2000/svg">
 <defs>
  <style>.a{fill:none;stroke:#fff;stroke-linecap:round;stroke-linejoin:round;}</style>
  <style>.a{fill:none;stroke:#fff;stroke-linecap:round;stroke-linejoin:round;}</style>
 </defs>
 <path d="m33.897 4.823c5.0948 0.4657 8.8475 4.9734 8.3818 10.068-0.4657 5.0948-4.8058 8.0418-10.068 8.3818 0 0-2.9501 0.42199-8.5801-1.4611-5.6299-1.8831-10.907-0.30763-10.907-0.30763s4.4981-18.505 21.174-16.681" fill="none" stroke="#fff" stroke-linecap="round" stroke-linejoin="round"/>
 <path d="m14.103 43.177c-5.0948-0.4657-8.8475-4.9734-8.3818-10.068s4.8058-8.0418 10.068-8.3818c0 0 2.9501-0.42199 8.5801 1.4611 5.6299 1.8831 10.907 0.30763 10.907 0.30763s-4.4981 18.505-21.174 16.681" fill="none" stroke="#fff" stroke-linecap="round" stroke-linejoin="round"/>
</svg>
