<svg id="Layer_2" data-name="Layer 2" xmlns="http://www.w3.org/2000/svg" viewBox="0 0 48 48"><defs><style>.cls-1{fill:none;}.cls-1,.cls-2{stroke:#fff;stroke-linecap:round;stroke-linejoin:round;}.cls-2{fill:#fff;}</style></defs><circle id="circle6" class="cls-1" cx="24" cy="24" r="21.5"/><path id="path845" class="cls-1" d="M26.16,36.79c3.87-2.7,12.57-4.64,17.1-3.56"/><path id="path847" class="cls-1" d="M34.75,11.32a6.9,6.9,0,0,1-5.37,12.25,6.9,6.9,0,1,0,5.37-12.25Z"/><path id="path856" class="cls-2" d="M15.79,18.05h0"/><path id="path860" class="cls-1" d="M14.52,9.84h0"/><circle id="path862" class="cls-1" cx="17.01" cy="11.68" r="0.5"/><circle id="circle864" class="cls-1" cx="14.71" cy="25.08" r="0.5"/><circle id="circle866" class="cls-1" cx="21.12" cy="22.9" r="1"/><circle id="circle868" class="cls-1" cx="10.8" cy="11.91" r="1"/><path id="path876" class="cls-1" d="M30.2,44.17,18.88,24.57l-3.58,6.2-1.66-2.88L12,30.73,5.54,19.57,2.83,24.26"/><g id="g884"><path id="path878" class="cls-1" d="M24,15.15h5"/><path id="path880" class="cls-1" d="M26.48,12.65v5"/></g><path id="path859" class="cls-2" d="M14.69,19.13h0"/><path id="path861" class="cls-2" d="M16.83,17h0"/></svg>