<?xml version="1.0" encoding="utf-8"?>
<svg
	version="1.1"
	xmlns="http://www.w3.org/2000/svg"
	xmlns:xlink="http://www.w3.org/1999/xlink"
	x="0%" y="0%"
	width="100%" height="100%"
	viewBox="0 0 48.0 48.0"
	enable-background="new 0 0 48.0 48.0"
	xml:space="preserve">
	<path
		fill="#FFFFFF"
		stroke="#FFFFFF"
		fill-opacity="0.000"
		stroke-opacity="1.000"
		fill-rule="nonzero"
		stroke-width="0.47953632"
		stroke-linejoin="miter"
		stroke-linecap="square"
		d="M0.66,17.66L8.04,17.66A0.28 0.28 0 0 1 8.32,17.94L8.32,32.41A0.28 0.28 0 0 1 8.04,32.69L0.66,32.69A0.28 0.28 0 0 1 0.38,32.41L0.38,17.94A0.28 0.28 0 0 1 0.66,17.66z"/>
	<path
		fill="#FFFFFF"
		stroke="#FFFFFF"
		fill-opacity="0.000"
		stroke-opacity="1.000"
		fill-rule="nonzero"
		stroke-width="0.47953632"
		stroke-linejoin="miter"
		stroke-linecap="square"
		d="M10.39,15.03L18.10,15.03A0.29 0.29 0 0 1 18.39,15.32L18.39,31.52A0.29 0.29 0 0 1 18.10,31.81L10.39,31.81A0.29 0.29 0 0 1 10.10,31.52L10.10,15.32A0.29 0.29 0 0 1 10.39,15.03zM20.21,16.79L20.21,33.47A0.27 0.27 0 0 0 20.48,33.74L27.76,33.74A0.27 0.27 0 0 0 28.03,33.47L28.03,16.79A0.27 0.27 0 0 0 27.76,16.52L20.48,16.52A0.27 0.27 0 0 0 20.21,16.79z"/>
	<path
		fill="#FFFFFF"
		stroke="#FFFFFF"
		fill-opacity="0.000"
		stroke-opacity="1.000"
		fill-rule="nonzero"
		stroke-width="0.47953632"
		stroke-linejoin="miter"
		stroke-linecap="square"
		d="M29.76,14.26L29.76,31.45A0.28 0.28 0 0 0 30.04,31.73L37.59,31.73A0.28 0.28 0 0 0 37.87,31.45L37.87,14.26A0.28 0.28 0 0 0 37.59,13.98L30.04,13.98A0.28 0.28 0 0 0 29.76,14.26z"/>
	<path
		fill="#FFFFFF"
		stroke="#FFFFFF"
		fill-opacity="0.000"
		stroke-opacity="1.000"
		fill-rule="nonzero"
		stroke-width="0.47953632"
		stroke-linejoin="miter"
		stroke-linecap="square"
		d="M39.38,17.37L39.38,30.21A0.28 0.28 0 0 0 39.66,30.49L47.24,30.49A0.28 0.28 0 0 0 47.52,30.21L47.52,17.37A0.28 0.28 0 0 0 47.24,17.09L39.66,17.09A0.28 0.28 0 0 0 39.38,17.37z"/>
</svg>