<svg xmlns="http://www.w3.org/2000/svg" xml:space="preserve" id="svg990" width="48" height="48" version="1.1"><defs id="defs987"><style id="style1174">.a{fill:none;stroke:#fff;stroke-linecap:round;stroke-linejoin:round}</style></defs><path id="path15053-7" d="M4.75 31.676h37.536M4.75 29.577h37.536m.281-3.71a1.287 1.287 0 0 1-1.286 1.287 1.287 1.287 0 0 1-1.287-1.286 1.287 1.287 0 0 1 1.287-1.287 1.287 1.287 0 0 1 1.286 1.287zm-6.543-2.24v.75c0 1.66-1.337 2.777-2.999 2.777h-1.634c-1.661 0-2.998-1.116-2.998-2.777m7.202-6.462c-.617-.438-1.337-.568-2.57-.691-.542-.055-1.634 0-1.634 0-1.661 0-3.124.867-2.848 2.505.125.739.455 1.59 3.999 1.816 1.503.096 3.257.133 3.482 2.082m-11.61-1.83v5.357m-7.686-8.804c2.001-1.315 4.75-1.734 6.36-.569l1.335-1.457m-1.334 1.457c.804.582 1.324 1.559 1.325 3.016v1c-3.362.021-7.71-.692-7.704 2.681.005 2.836 3.021 2.681 4.163 2.451m-15.44-2.712v2.937m0-9.93v6.993c3.027 3.596 7.307 4.291 7.307.651v-7.644" style="fill:none;stroke:#fff;stroke-width:1;stroke-linecap:round;stroke-linejoin:round;stroke-dasharray:none;stroke-opacity:1;stop-color:#000"/></svg>