<?xml version="1.0" encoding="utf-8"?>
<!-- Generator: Adobe Illustrator 25.1.0, SVG Export Plug-In . SVG Version: 6.00 Build 0)  -->
<svg version="1.1"
	 id="svg8" inkscape:version="1.0.1 (3bc2e813f5, 2020-09-07)" sodipodi:docname="template.svg" xmlns:cc="http://creativecommons.org/ns#" xmlns:dc="http://purl.org/dc/elements/1.1/" xmlns:inkscape="http://www.inkscape.org/namespaces/inkscape" xmlns:rdf="http://www.w3.org/1999/02/22-rdf-syntax-ns#" xmlns:sodipodi="http://sodipodi.sourceforge.net/DTD/sodipodi-0.dtd" xmlns:svg="http://www.w3.org/2000/svg"
	 xmlns="http://www.w3.org/2000/svg" xmlns:xlink="http://www.w3.org/1999/xlink" x="0px" y="0px" viewBox="0 0 48 48"
	 style="enable-background:new 0 0 48 48;" xml:space="preserve">
<style type="text/css">
	.st0{fill:none;stroke:#FFFFFF;stroke-linecap:round;stroke-linejoin:bevel;}
	.st1{fill:none;stroke:#FFFFFF;}
	.st2{fill:none;stroke:#FFFFFF;stroke-linecap:round;stroke-linejoin:round;stroke-miterlimit:10;}
</style>
<sodipodi:namedview  bordercolor="#666666" borderopacity="1" gridtolerance="10" guidetolerance="10" id="namedview10" inkscape:current-layer="svg8" inkscape:cx="24" inkscape:cy="24" inkscape:document-rotation="0" inkscape:guide-bbox="true" inkscape:pageopacity="0" inkscape:pageshadow="2" inkscape:window-height="2098" inkscape:window-maximized="1" inkscape:window-width="3840" inkscape:window-x="0" inkscape:window-y="25" inkscape:zoom="8.3431142" objecttolerance="10" pagecolor="#595959" showgrid="false" showguides="true">
	</sodipodi:namedview>
<g>
	<circle id="path5452" class="st0" cx="36.4" cy="12.6" r="8.5"/>
	<path id="rect5454" class="st0" d="M41.3,19.5V39c0,1.1-0.9,2-2,2H10c-1.1,0-2-0.9-2-2V9.7c0-1.1,0.9-2,2-2l0,0h19.4"/>
	<path id="path5476" sodipodi:nodetypes="ccc" class="st1" d="M25.2,41.1V29c1-3.6,10.3-6.4,16.2-4.3"/>
	<path id="path5478" class="st1" d="M29.4,25.5l6.9,7l5-4.8"/>
	<path id="path5480-6" sodipodi:nodetypes="cc" class="st1" d="M29.5,17.4L7.9,38.9"/>
	<path id="path5480-6-4" sodipodi:nodetypes="cc" class="st1" d="M31.6,19.6L10,41.1"/>
</g>
<path class="st2" d="M16.2,15.8h4.9c0,2.8-2.1,5-4.9,5s-5-2.2-5-5s2.2-5,5-5c0.9,0,1.8,0.2,2.5,0.7"/>
</svg>
