<?xml version="1.0" encoding="UTF-8" standalone="no"?>
<svg
   viewBox="0 0 48 48"
   version="1.1"
   id="svg8"
   xmlns="http://www.w3.org/2000/svg"
   xmlns:svg="http://www.w3.org/2000/svg">
  <defs
     id="defs4">
    <style
       id="style2">.a{fill:none;stroke:#fff;stroke-linecap:round;stroke-linejoin:round;}</style>
  </defs>
  <path
     class="a"
     d="m 41,32.5 2.5,-24 H 14 c -3.299832,0 -6.6581173,3.717926 -7,7 l -2.5,24 H 34 c 3.299832,0 6.658117,-3.717926 7,-7 z"
     id="path1" />
  <path
     class="a"
     d="m 12.1,20.6 c 0.5,0.6 1.1,0.9 2,0.9 h 1.2 c 1.1,0 2,-0.9 2,-2 0,-1.1 -0.9,-2 -2,-2 H 13.99999 C 12.9,17.5 12,16.6 12,15.5 c 0,-1.1 0.9,-2 1.99999,-2 H 15.2 c 0.9,0 1.49999,0.2 1.99999,0.9"
     id="path2" />
  <path
     class="a"
     d="m 20.000035,13.500326 h 5.306952 -2.603406 v 7.999928"
     id="path3" />
  <path
     class="a"
     d="m 28,13.5 1.99999,8 2.00001,-8 2,8 1.99999,-8"
     id="path4" />
  <path
     class="a"
     d="m 17,26.5 v 8 -4 h 5.29999 v -4 8"
     id="path5" />
  <path
     class="a"
     d="m 25.7,34.5 v -8 H 27 c 2.2,0 3.999999,1.799999 3.999999,4 0,2.2 -1.799999,4 -3.999999,4 z"
     id="path6" />
</svg>
