<svg xmlns="http://www.w3.org/2000/svg" viewBox="0 0 48 48"><defs><style>.a{fill:none;stroke:#fff;stroke-linecap:round;stroke-linejoin:round;}</style></defs><path class="a" d="M23.6946,8.5H6.5a2.0006,2.0006,0,0,0-2,2v27a2,2,0,0,0,2,2h35a2,2,0,0,0,2-2v-27a2,2,0,0,0-2-2h-.2"/><circle class="a" cx="32.5" cy="11.5" r="9.3"/><path class="a" d="M28.6256,11.9622,30.8511,14.38,36.93,8.5668"/><path class="a" d="M43.5,27.6033a19.6622,19.6622,0,0,1-21.4773.3428A19.406,19.406,0,0,1,13.2084,8.5255"/><path class="a" d="M18.0438,39.4944A30.9843,30.9843,0,0,1,4.5,25.9309"/></svg>