<svg xmlns="http://www.w3.org/2000/svg" xml:space="preserve" id="svg990" width="48" height="48" version="1.1"><defs id="defs987"><style id="style1174">.a{fill:none;stroke:#fff;stroke-linecap:round;stroke-linejoin:round}</style></defs><path id="path16841" d="M14.291 36.825a.627.627 0 0 1 .874-.161l1.549 1.066a.627.627 0 0 1 .161.874l-2.346.643zM36.534 5.608l1.549 1.066a.627.627 0 0 1 .161.873L37.19 9.08a.627.627 0 0 1-.874.161l-1.549-1.066a.627.627 0 0 1-.161-.873l1.054-1.533a.627.627 0 0 1 .874-.161zm-2.736 3.974 1.55 1.066a.627.627 0 0 1 .16.874L18.556 36.16a.627.627 0 0 1-.873.161l-1.55-1.065a.627.627 0 0 1-.16-.874l16.953-24.64a.627.627 0 0 1 .873-.16zm-1.371.788c-1.935-2.08-3.375-3.403-6.729-4.77-1.531.033-4.136 1.085-6.206 3.564-1.418 1.7-2.06 3.415-1.932 4.98m11.72 6.42c3.736.505 7.827 1.65 9.869 4.815 3.097 4.799 1.647 12.695-5.805 16.195-3.13 1.47-5.657 1.045-7.131-.21-4.966-4.228-4.89-3.977-7.196-5.55m-2.773-1.856C5.63 27.716 4.45 40.525 12.907 40.701c7.095.149 20.035-2.462 20.406-8.344.213-3.364-4.978-4.127-9.046-4.507m0 0c-.664-.062-1.299-.114-1.875-.166a20.065 20.065 0 0 1-1.668-.217m0 0C9.359 25.483 10.617 14.649 17.56 14.143c.231 2.827 2.978 5.159 8.203 6.002" style="fill:none;stroke:#fff;stroke-width:1;stroke-linecap:round;stroke-linejoin:round;stroke-dasharray:none;stroke-opacity:1;stop-color:#000"/></svg>