<svg width="48" height="48" version="1.1" viewBox="0 0 48 48" xml:space="preserve" xmlns="http://www.w3.org/2000/svg"><defs><style>.a{fill:none;stroke:#fff;stroke-linecap:round;stroke-linejoin:round;}</style><style>.a{fill:none;stroke:#fff;stroke-linecap:round;stroke-linejoin:round;}</style></defs><g stroke-width=".70622"><path class="a" transform="matrix(1.4171 0 0 1.4149 -10.125 -9.8373)" d="m35.389 14.078v-3.238c-0.22789 2e-6 -0.52297-2.59e-4 -1.1681-2.51e-4l-20.441 2.51e-4c-0.64511 8e-6 -0.9301 2e-6 -1.1681 0v3.238c0.15272-2e-6 0.52297 3.5e-4 1.1681 3.39e-4l20.441-3.39e-4c0.64511-1.1e-5 0.99654-2e-6 1.1681 0z"/><path class="a" transform="matrix(1.4171 0 0 1.4149 -10.125 -9.8373)" d="m35.389 19.922v-3.238h-1.1681-20.441c-0.64511 0-0.97219 2e-6 -1.1681 0v3.238c0.18674-2e-6 0.52297 0 1.1681 0h20.441 1.1681z" fill="none" stroke="#fff" stroke-linecap="round" stroke-linejoin="round"/><path class="a" transform="matrix(1.4171 0 0 1.4149 -10.125 -9.8373)" d="m35.552 36.99v-14.264c-1e-6 -0.1154-0.68619-0.07615-1.3313-0.07615h-20.441c-0.64511 0-1.1681-0.03924-1.1681 0.07615v14.056c0.19856-0.11464 10.826-5.8038 11.41-6.0766 0.36381 0.21005 9.6296 5.1866 11.531 6.2841z" fill="none" stroke="#fff" stroke-linecap="round" stroke-linejoin="round"/></g></svg>
