<svg xmlns="http://www.w3.org/2000/svg" viewBox="0 0 48 48"><defs><style>.a{fill:none;stroke:#fff;stroke-linecap:round;stroke-linejoin:round;}</style></defs>
  <path
     class="a"
     d="M18.41,5.5v37" />
  <path
     class="a"
     d="M30.5,5.5v37" />
  <path
     class="a"
     d="m 10.03322,14.62661 a 2.78,2.78 0 0 0 2.1,0.61 h 0.27 a 2.32,2.32 0 0 0 2.28,-2.28 v 0 a 2.32,2.32 0 0 0 -2.28,-2.28 h -2.37 V 8.2166102 h 4.65"
     />
  <path
     class="a"
     d="M42.5,18H5.5" />
  <path
     class="a"
     d="M42.5,30.46H5.5" />
  <path
     d="M 25.061 28.0976 C 26.161 28.0976 27.061 27.1976 27.061 26.0976 L 27.061 26.0976 C 27.061 24.9976 26.161 24.0976 25.061 24.0976 L 23.061 24.0976 L 25.061 24.0976 C 26.161 24.0976 27.061 23.1976 27.061 22.0976 L 27.061 22.0976 C 27.061 20.9976 26.161 20.0976 25.061 20.0976"
     class="a" />
  <path
     d="m 21.760992,27.497628 c 0.6,0.5 1.1,0.7 2.5,0.7 h 0.8"
     class="a" />
  <path
     d="m 21.760992,20.797628 c 0.6,-0.5 1.2,-0.7 2.5,-0.7 h 0.8"
     class="a" />
  <circle
     r="2.7"
     cy="35.611191"
     cx="37.067768"
     class="a" />
  <path
     d="m 34.66777,40.011188 c 0.4,0.6 1.1,1 2.2,1 h 0.2 c 1.5,0 2.7,-1.2 2.7,-2.7 v -2.7"
     class="a" />
  <path
     d="m 21.923704,10.390848 c 0,-1.4999999 1.2,-2.6999999 2.6,-2.6999999 1.4,0 2.7,1.2 2.7,2.6999999 0,0.7 -0.3,1.4 -0.8,1.9 -1.1,0.9 -4.5,3.5 -4.5,3.5 h 5.3"
     class="a" />
</svg>
