<?xml version="1.0" encoding="utf-8"?>
<!DOCTYPE svg PUBLIC "-//W3C//DTD SVG 1.1//EN" "http://www.w3.org/Graphics/SVG/1.1/DTD/svg11.dtd">
<svg version="1.1" id="Layer_1" xmlns="http://www.w3.org/2000/svg" xmlns:xlink="http://www.w3.org/1999/xlink" x="0px" y="0px"
	 width="48px" height="48px" viewBox="0 0 48 48" enable-background="new 0 0 48 48" xml:space="preserve">
<rect display="none" fill="#282828" width="48" height="48"/>
<g display="none">
	<g display="inline">
		<defs>
			<rect id="SVGID_1_" width="48" height="48"/>
		</defs>
		<clipPath id="SVGID_2_">
			<use xlink:href="#SVGID_1_"  overflow="visible"/>
		</clipPath>
		<path clip-path="url(#SVGID_2_)" fill="none" stroke="#FFFFFF" stroke-linecap="round" stroke-linejoin="round" d="M40.5,5.5h-33
			c-1.105,0-2,0.895-2,2v33c0,1.105,0.895,2,2,2h33c1.105,0,2-0.895,2-2v-33C42.5,6.395,41.605,5.5,40.5,5.5z"/>
	</g>
</g>
<image display="none" overflow="visible" enable-background="new    " width="192" height="192" xlink:href="ic_launcher7.png"  transform="matrix(0.2161 0 0 0.2161 3.2495 3.25)">
</image>
<path fill="none" stroke="#FFFFFF" stroke-width="1.1576" stroke-linecap="round" stroke-linejoin="round" d="M30.688,10.75
	c0,3.659-2.992,6.625-6.688,6.625l0,0c-3.693,0-6.688-2.966-6.688-6.625l0,0c0-3.659,2.994-6.625,6.688-6.625l0,0
	C27.693,4.125,30.688,7.091,30.688,10.75L30.688,10.75z"/>
<path fill="none" stroke="#FFFFFF" stroke-width="1.1303" stroke-linecap="round" stroke-linejoin="round" d="M28.898,30.177
	l7.271-7.009c1.983-1.912,2.442-4.65,1.026-6.119c-1.416-1.468-4.168-1.108-6.15,0.803l-7.271,7.009l-6.551-6.795
	c-1.912-1.982-4.574-2.517-5.948-1.192c-1.374,1.323-0.938,4.004,0.976,5.987l6.55,6.793l-6.972,6.723
	c-1.983,1.912-2.443,4.65-1.028,6.119s4.169,1.107,6.152-0.805l6.972-6.721l6.851,7.104c1.912,1.983,4.574,2.517,5.947,1.192
	s0.938-4.004-0.976-5.985L28.898,30.177z"/>
</svg>
