<svg viewBox="0 0 48 48" xmlns="http://www.w3.org/2000/svg">
    <style>
        .a{fill:none;stroke:#FFFFFF;stroke-linecap:round;stroke-linejoin:round}
    </style>
    <path class="a" d="M40.5,5.5h-33c-1.1,0-2,0.9-2,2v33c0,1.1,0.9,2,2,2h33c1.1,0,2-0.9,2-2v-33C42.5,6.4,41.6,5.5,40.5,5.5z"/>
    <path class="a" d="M33.3,37.5H14.7c-2.3,0-4.1-1.9-4.1-4.1V14.7c0-2.3,1.9-4.1,4.1-4.1h18.7c2.3,0,4.1,1.9,4.1,4.1v18.7  C37.5,35.6,35.6,37.5,33.3,37.5z"/>
    <line class="a" x1="5.5" x2="10.5" y1="14.8" y2="14.8"/>
    <line class="a" x1="5.5" x2="10.5" y1="24" y2="24"/>
    <line class="a" x1="5.5" x2="10.5" y1="33.2" y2="33.2"/>
    <line class="a" x1="33.2" x2="33.2" y1="5.5" y2="10.5"/>
    <line class="a" x1="24" x2="24" y1="5.5" y2="10.5"/>
    <line class="a" x1="14.8" x2="14.8" y1="5.5" y2="10.5"/>
    <line class="a" x1="33.2" x2="33.2" y1="37.5" y2="42.5"/>
    <line class="a" x1="24" x2="24" y1="37.5" y2="42.5"/>
    <line class="a" x1="14.8" x2="14.8" y1="37.5" y2="42.5"/>
    <line class="a" x1="37.5" x2="42.5" y1="14.8" y2="14.8"/>
    <line class="a" x1="37.5" x2="42.5" y1="24" y2="24"/>
    <line class="a" x1="37.5" x2="42.5" y1="33.2" y2="33.2"/>
    <path class="a" d="M31.3,16.9h-5.1c-0.6,0-1.1,0.5-1.1,1.1s0.5,1.1,1.1,1.1H27V22v1.5v3c0,1.6-1.3,3-3,3s-3-1.3-3-3v-3.4V22V19  h0.8c0.6,0,1.1-0.5,1.1-1.1s-0.5-1.1-1.1-1.1h-5.1c-0.6,0-1.1,0.5-1.1,1.1s0.5,1.1,1.1,1.1h0.9v2.7v1.3v4c0,2.7,2.2,4.8,4.8,4.8  h3.2c2.7,0,4.8-2.2,4.8-4.8v-3.7v-1.7V19h0.9c0.6,0,1.1-0.5,1.1-1.1S31.9,16.9,31.3,16.9z"/>
</svg>