<?xml version="1.0" encoding="UTF-8" standalone="no"?>
<!-- Created with Inkscape (http://www.inkscape.org/) -->

<svg
   width="48"
   height="48"
   viewBox="0 0 48 48"
   version="1.1"
   id="svg5"
   inkscape:version="1.1.1 (3bf5ae0d25, 2021-09-20)"
   sodipodi:docname="turtleboi.svg"
   inkscape:export-filename="C:\Users\karin\Downloads\turtlephone.png"
   inkscape:export-xdpi="184.73"
   inkscape:export-ydpi="184.73"
   xmlns:inkscape="http://www.inkscape.org/namespaces/inkscape"
   xmlns:sodipodi="http://sodipodi.sourceforge.net/DTD/sodipodi-0.dtd"
   xmlns="http://www.w3.org/2000/svg"
   xmlns:svg="http://www.w3.org/2000/svg">
  <sodipodi:namedview
     id="namedview7"
     pagecolor="#121212"
     bordercolor="#ffffff"
     borderopacity="1"
     inkscape:pageshadow="2"
     inkscape:pageopacity="0"
     inkscape:pagecheckerboard="0"
     inkscape:document-units="px"
     showgrid="false"
     units="px"
     width="48mm"
     scale-x="1"
     inkscape:snap-global="true"
     showguides="false"
     inkscape:snap-page="true"
     inkscape:zoom="16"
     inkscape:cx="2.375"
     inkscape:cy="22.0625"
     inkscape:window-width="1920"
     inkscape:window-height="986"
     inkscape:window-x="-11"
     inkscape:window-y="-11"
     inkscape:window-maximized="1"
     inkscape:current-layer="layer1" />
  <defs
     id="defs2">
    <style
       id="style834">.a{fill:none;stroke:#fff;stroke-linecap:round;stroke-linejoin:round;}</style>
  </defs>
  <g
     inkscape:label="Layer 1"
     inkscape:groupmode="layer"
     id="layer1">
    <circle
       style="fill:#ffffff;stroke:none;stroke-width:0.555893;stroke-linejoin:round;stroke-miterlimit:4;stroke-dasharray:none;stroke-dashoffset:0;stroke-opacity:1"
       id="path1880"
       cx="7.811861"
       cy="22.850319"
       r="0.75" />
    <circle
       style="fill:#ffffff;stroke:none;stroke-width:0.555893;stroke-linejoin:round;stroke-miterlimit:4;stroke-dasharray:none;stroke-dashoffset:0;stroke-opacity:1"
       id="path1880-6"
       cx="13.141207"
       cy="22.850319"
       r="0.75" />
    <path
       style="fill:none;stroke:#ffffff;stroke-width:1px;stroke-linecap:round;stroke-linejoin:miter;stroke-opacity:1"
       d="m 8.2291,24.990958 c 2.1579,2.19725 2.183,2.20506 4.4376,0.0312"
       id="path2035"
       sodipodi:nodetypes="cc" />
    <path
       style="fill:none;stroke:#ffffff;stroke-width:1px;stroke-linecap:round;stroke-linejoin:round;stroke-opacity:1"
       d="M 12.2759,16.037828 C 16.6044,4.6887877 40.523,6.3353977 41.9478,23.428458"
       id="path9155"
       sodipodi:nodetypes="cc" />
    <path
       id="path9916"
       style="fill:none;stroke:#ffffff;stroke-width:1px;stroke-linecap:round;stroke-linejoin:round;stroke-opacity:1"
       d="m 5.0884,29.225328 c 1.1872,1.43808 2.766,2.75219 5.2241,4.00536 m 4.3765,1.89932 c 2.8236,1.05634 4.6312,1.72804 7.9171,1.95586 m 6.76,-0.50826 c 2.618,-0.4136 5.1731,-1.25562 7.5153,-2.64295 m 4.443,-3.63124 c 1.5121,-1.66607 2.8411,-3.69565 3.9203,-6.14059 -2.8976,1.04492 -3.0123,0.0522 -3.2969,-0.73437 m -21.8594,-0.0781 c 0.3027,3.12851 -0.8401,4.73942 1.2344,6.39063 5.9561,3.72121 20.6451,-0.56291 20.625,-6.3125 m -36.8594,5.79684 c -1.3661,-1.61323 -1.9999,-2.93382 -1.9999,-5.14063 0,-4.37512 3.8126,-7.92186 8.5156,-7.92187 4.703,10e-6 8.0794,2.83119 8.4843,7.18753"
       sodipodi:nodetypes="cccccccccccccssc" />
    <path
       style="fill:none;stroke:#ffffff;stroke-width:1px;stroke-linecap:round;stroke-linejoin:round;stroke-opacity:1"
       d="m 10.3125,33.230688 c -0.019,0.24375 -1.031,1.99626 -1.2397,5.69776 -0.059,1.04661 5.2383,1.40135 5.5,0.53125 0.5294,-1.76028 0.1857,-3.55089 0.1162,-4.32969"
       id="path11432"
       sodipodi:nodetypes="cssc" />
    <path
       style="fill:none;stroke:#ffffff;stroke-width:1px;stroke-linecap:round;stroke-linejoin:round;stroke-opacity:1"
       d="m 22.6061,37.085868 c -0.4192,3.09537 -0.3875,3.47303 -0.044,4.89325 0.2611,1.07952 6.6798,1.48001 7.1874,0.3125 0.6154,-1.41518 0.1252,-4.55099 -0.3837,-5.71401"
       id="path11432-7"
       sodipodi:nodetypes="cssc" />
    <path
       style="fill:none;stroke:#ffffff;stroke-width:1px;stroke-linecap:round;stroke-linejoin:round;stroke-opacity:1"
       d="m 41.3244,30.303418 c -0.07,0.0701 0.8839,4.87913 0.031,5.5625 -1.1517,0.92296 -3.1775,1.67745 -4.25,1.3125 -0.8781,-0.29882 -0.238,-3.25942 -0.238,-3.25942"
       id="path22260"
       sodipodi:nodetypes="cssc" />
    <path
       style="fill:none;stroke:#ffffff;stroke-width:1px;stroke-linecap:round;stroke-linejoin:round;stroke-opacity:1"
       d="m 16.4322,11.287828 1.8428,3.15219 6.2759,2.4022 9.2905,-0.63757 2.0638,-3.51961"
       id="path26177"
       sodipodi:nodetypes="ccccc" />
    <path
       style="fill:none;stroke:#ffffff;stroke-width:1px;stroke-linecap:round;stroke-linejoin:round;stroke-opacity:1"
       d="m 18.275,14.440018 -2.7646,2.45656"
       id="path26278"
       sodipodi:nodetypes="cc" />
    <path
       style="fill:none;stroke:#ffffff;stroke-width:1px;stroke-linecap:round;stroke-linejoin:round;stroke-opacity:1"
       d="m 24.5509,16.842218 0.1078,14.01972"
       id="path26379"
       sodipodi:nodetypes="cc" />
    <path
       style="fill:none;stroke:#ffffff;stroke-width:1px;stroke-linecap:round;stroke-linejoin:round;stroke-opacity:1"
       d="m 33.8414,16.204648 5.5339,10.7682"
       id="path26480"
       sodipodi:nodetypes="cc" />
  </g>
</svg>
