<svg xmlns="http://www.w3.org/2000/svg" xml:space="preserve" id="svg990" width="48" height="48" version="1.1"><defs id="defs987"><style id="style1174">.a{fill:none;stroke:#fff;stroke-linecap:round;stroke-linejoin:round}</style></defs><path id="path21262" d="M31.101 15.45c-.727-2.05-3.944-4.035-7.626-3.68-3.789.363-6.673 3.17-7.054 6.425-.253 2.166 1.039 1.685 1.427.735 1.047-2.56 4.865-4.943 7.42-5.052 1.604-.068 3.484.422 4.695 1.15.464.279.882.713 1.138.422v0m-8.757 14.376a10.328 10.134 0 0 1-8.294-9.936A10.328 10.134 0 0 1 24.378 9.756 10.328 10.134 0 0 1 34.706 19.89v0a10.328 10.134 0 0 1-7.663 9.792m8.966-4.625c-.141 1.213-.748 2.424-1.702 3.14l-.67-.45c-.232-1.155.354-2.657 1.54-3.16.4.025.59.276.832.47v0m.14-6.105c-.797.421-.79 4.24-.394 4.5l1.116.016c.434-1.331.514-3.28.18-4.43l-.902-.086v0m-23.407 6.105c.141 1.213.748 2.424 1.702 3.14l.67-.45c.232-1.155-.354-2.657-1.54-3.16-.4.025-.59.276-.832.47v0m-.14-6.105c.797.421.79 4.24.394 4.5l-1.116.016c-.434-1.331-.514-3.28-.18-4.43l.902-.086v0m8.264 20.051 4.3 3.155m-6.582-2.404 1.086-1.629m0 0 1.196.878c.37-1.913.38-3.964.385-6.014.001-.865.335-1.483.886-1.946.404-2.019.48-3.605.572-5.978.035-.917.09-2.045.908-2.19 1.66-.295 2.036 1.118 2.175 2.08.205 1.414-.4 2.532-.61 3.793m-5 13.652-1.405-1.108c-.403.393-.767.797-1.11 1.207m10.739-11.35c.45-.628 1.53-.583 1.876-.04.112.323.116.508-.079.928-.728.455-1.402 1.243-2.095 1.914.31-.986.391-2.055.298-2.801m0 0a3.24 3.24 0 0 0-.057-.328c-.108-.465-1.493-1.328-2.494-1.839-.2-.101-.426-.212-.673-.235m-.661 5.14.564-1.145.78.88c-.757.454-.647.736-.557 1.019.375 1.382.887 2.584.332 4.155m-12.743-4.298c1.046.534 1.993 1.835 2.33 3.645.259 1.4.382 3.011.733 4.36m-.591-9.08a4.56 4.56 0 0 0-1.737-.761m0 0a4.635 4.635 0 0 0-.569-.08c-2.198-.171-4.084 1.467-3.149 2.982m-.238 6.939c.047-1.974.215-4.013 1.23-5.782a15.613 15.613 0 0 1-.992-1.157c.728-1.352 1.908-1.614 2.983-1.066a7.277 7.277 0 0 0-1.99 2.223m6.454-5.054.55-.965m10.582.097c2.495-.483 4.29-1.494 5.546-2.785m1.9-3.026a10.14 10.14 0 0 0 .436-1.528m.056-4.483c-.836-5.2-4.697-10.54-12.013-10.54-7.313 0-11.174 5.335-12.012 10.533m.054 4.487c.101.498.239.993.417 1.478m1.887 3.045c1.538 1.599 3.895 2.776 7.373 3.062l2.259-2.01c.276-.245.54-.309.786-.285m-8.359 4.279.538-1.359c-1.653-.11-3.129.008-3.729.995m5.145 8.63-.799-.63.606-.91c-.236-1.997-1.204-4.902-3.215-6.329.411-.332.916-.408 1.454-.397m19.33 1.548c-.997 2.925-2.67 5.433-5.106 7.925m2.203-8.882c.134-.286.262-.573.385-.86.242-.567.686-.848 1.167-.853m5.63 10.228c-.941-3.125-2.056-6.135-4.278-7.558.243-.711.49-1.454-.185-2.138-.353-.357-.772-.537-1.167-.532-1.059-.228-2.133-.404-3.302-.25l-.288-.851-2.719-.004m-1.719 9.289c-.387.779-.957 1.558-1.609 2.07l.465.34m1.075.015c1.74-1.147 5.235-6.096 6.545-8.896-.313-.437-.751-.59-1.273-.553m0 0-.477-1.41m-6.192 2.987c.208.656.894.47 1.748.057.522-.252.713-.528 1.052-.748-.33 1.397-.915 2.819-.808 4.172.04.507-.163 1.236-.526 1.966M40.5 5.5h-33a2 2 0 0 0-2 2v33a2 2 0 0 0 2 2h33a2 2 0 0 0 2-2v-33a2 2 0 0 0-2-2z" style="fill:none;stroke:#fff;stroke-width:1;stroke-linecap:round;stroke-linejoin:round;stroke-dasharray:none;stroke-opacity:1;stop-color:#000"/></svg>