<svg xmlns="http://www.w3.org/2000/svg" xml:space="preserve" id="svg13" version="1.1" viewBox="0 0 48 48">
  <defs id="defs1">
    <style id="style1">
      .a,.b,.c{fill:none;stroke:#fff}.a,.c{stroke-linecap:round}.a{stroke-linejoin:round}.b,.c{stroke-miterlimit:5.052}
    </style>
  </defs>
  <g id="g1" style="clip-rule:evenodd;fill-rule:evenodd;stroke-linecap:round;stroke-linejoin:round;stroke-miterlimit:1.5;fill:none;stroke-width:.72727273;stroke-dasharray:none;stroke:#fff;stroke-opacity:1" transform="translate(2 2) scale(1.375)">
    <g id="g16" clip-path="url(#_clip1)" style="fill:none;stroke-width:.72727273;stroke-dasharray:none;stroke:#fff;stroke-opacity:1">
      <g id="emoji" style="fill:none;stroke:#fff;stroke-width:.727273;stroke-dasharray:none;stroke-opacity:1" transform="translate(35.921927 2.3021886)">
        <g id="face-5" style="clip-rule:evenodd;fill:none;fill-rule:evenodd;stroke:#fff;stroke-width:.727273;stroke-linecap:round;stroke-linejoin:round;stroke-miterlimit:1.5;stroke-dasharray:none;stroke-opacity:1" transform="translate(-35.921927 -2.5206365)">
          <g id="g2">
            <g id="outline" style="clip-rule:evenodd;fill-rule:evenodd;stroke-linecap:round;stroke-linejoin:round;stroke-miterlimit:1.5;fill:none;stroke-width:.72727273;stroke-dasharray:none;stroke:#fff;stroke-opacity:1" transform="translate(0 .2184479)">
              <path id="path1" d="M8.218 9.72C8.08 9.606 8 9.436 8 9.257v-.164c0-.663.395-1.262 1.004-1.523 1.255-.538 3.4-1.458 4.756-2.038.818-.351 1.699-.532 2.589-.532H22l3-3h5v3s-4.519 4.142-5.713 5.237c-.023.021-.047.041-.072.06C25.341 11.915 26 13.88 26 16v.629c.524.176 1.036.389 1.534.638C28.327 17.664 29 18 29 18l-1.172 1.172c-.111.111-.224.219-.34.324L29 20s-.262 2.262-3 5c-2.575 2.575-5.979 3.907-8.077 4.529-1.256.367-2.59.367-3.846 0C11.979 28.907 8.575 27.575 6 25c-2.13-2.13-3-5-3-5l1.512-.504c-.116-.105-.229-.213-.34-.324L3 18s.673-.336 1.466-.733c.498-.249 1.01-.462 1.534-.638V16c0-2.379.831-4.563 2.218-6.28ZM3 10h2c.552 0 1-.448 1-1s-.448-1-1-1H3c-.552 0-1 .448-1 1s.448 1 1 1zm.293-5.293 2 2c.39.39 1.024.39 1.414 0 .39-.39.39-1.024 0-1.414l-2-2c-.39-.39-1.024-.39-1.414 0-.39.39-.39 1.024 0 1.414zM8 3v2c0 .552.448 1 1 1s1-.448 1-1V3c0-.552-.448-1-1-1s-1 .448-1 1Z" style="fill:none;stroke:#fff;stroke-width:.72727273;stroke-dasharray:none;stroke-opacity:1"/>
            </g>
            <g id="hand-6" style="clip-rule:evenodd;fill-rule:evenodd;stroke-linecap:round;stroke-linejoin:round;stroke-miterlimit:1.5;fill:none;stroke-width:.727273;stroke-dasharray:none;stroke:#fff;stroke-opacity:1" transform="translate(0 .2184479)">
              <path id="path4-2" d="M25 2h5v3l-5.486 5.029-1.257-2.5145L22 5Z" style="fill:none;stroke:#fff;stroke-width:.727273;stroke-dasharray:none;stroke-opacity:1"/>
              <path id="path5-6" d="M15.087416 9.0869153 8.727 9.844c-.178.038-.363-.006-.504-.12C8.082 9.61 8 9.438 8 9.257v-.164c0-.663.395-1.262 1.004-1.523 1.255-.538 3.4-1.458 4.756-2.038.818-.351 1.699-.532 2.589-.532H22l2.514 5.029-.227.208c-.185.169-.426115.27058-.676.263-3.539919-.107387-8.295282.950551-8.523584-1.4130847z" style="fill:none;stroke:#fff;stroke-width:.727273;stroke-dasharray:none;stroke-opacity:1"/>
              <path id="path6-1" d="M15 8.5v0c0-.828.672-1.5 1.5-1.5H20v1.5l-1.5 2H17c-1.105 0-2-.895-2-2z" style="fill:none;stroke:#fff;stroke-width:.727273;stroke-dasharray:none;stroke-opacity:1"/>
            </g>
            <path id="path9-6" d="M23 22h-1.139S17.748 24 16 24h-.012c-1.749 0-5.849-2-5.849-2H9l1.573 2.36c1.224 1.64 3.442 2.436 5.415 2.436H16c1.972 0 4-.796 5.427-2.436z" style="fill:none;stroke:#fff;stroke-width:.727273;stroke-dasharray:none;stroke-opacity:1"/>
            <path id="path10-2" d="M10.139 22c.945 0 2.205-.43 2.795-1.168.206-.257.434-.542.669-.835.582-.729 1.464-1.153 2.397-1.153.933 0 1.815.424 2.397 1.153.235.293.463.578.669.835.59.738 1.85 1.168 2.795 1.168-1.806481.952947-3.765265 1.617498-5.873 2-2.207317-.24959-4.020501-1.075286-5.849-2z" style="fill:none;stroke:#fff;stroke-width:.727273;stroke-dasharray:none;stroke-opacity:1"/>
            <path id="path11-9" d="m14 21 .5.5" style="fill:none;stroke:#fff;stroke-width:.727273;stroke-dasharray:none;stroke-opacity:1"/>
            <path id="path12-1" d="m18 21-.5.5" style="fill:none;stroke:#fff;stroke-width:.727273;stroke-dasharray:none;stroke-opacity:1"/>
            <path id="path13-2" d="M9.5 17.5s.176-.147.433-.361c.518-.431 1.188-.637 1.859-.569.671.068 1.286.403 1.708.93 0 0 0 0 0 0" style="fill:none;stroke:#fff;stroke-width:.727273;stroke-dasharray:none;stroke-opacity:1"/>
            <path id="path14-7" d="M22.5 17.5s-.176-.147-.433-.361c-.518-.431-1.188-.637-1.859-.569-.671.068-1.286.403-1.708.93 0 0 0 0 0 0" style="fill:none;stroke:#fff;stroke-width:.727273;stroke-dasharray:none;stroke-opacity:1"/>
            <path id="path15-0" d="m9 14.5.419-.419c1.012-1.012 2.385-1.581 3.817-1.581H14" style="fill:none;stroke:#fff;stroke-width:.727273;stroke-dasharray:none;stroke-opacity:1"/>
            <path id="path16-9" d="m23 14.5-.419-.419c-1.012-1.012-2.385-1.581-3.817-1.581H18" style="fill:none;stroke:#fff;stroke-width:.727273;stroke-dasharray:none;stroke-opacity:1"/>
          </g>
        </g>
      </g>
    </g>
  </g>
</svg>
