<?xml version="1.0" encoding="UTF-8" standalone="no"?>
<svg
   id="b"
   viewBox="0 0 48 48"
   version="1.1"
   sodipodi:docname="symfonium_note.svg"
   xml:space="preserve"
   inkscape:version="1.2.2 (b0a8486541, 2022-12-01)"
   xmlns:inkscape="http://www.inkscape.org/namespaces/inkscape"
   xmlns:sodipodi="http://sodipodi.sourceforge.net/DTD/sodipodi-0.dtd"
   xmlns="http://www.w3.org/2000/svg"
   xmlns:svg="http://www.w3.org/2000/svg"><sodipodi:namedview
     id="namedview12577"
     pagecolor="#ffffff"
     bordercolor="#000000"
     borderopacity="0.25"
     inkscape:showpageshadow="2"
     inkscape:pageopacity="0.0"
     inkscape:pagecheckerboard="0"
     inkscape:deskcolor="#d1d1d1"
     showgrid="false"
     inkscape:zoom="5.6568543"
     inkscape:cx="37.388271"
     inkscape:cy="22.362252"
     inkscape:window-width="1444"
     inkscape:window-height="1236"
     inkscape:window-x="325"
     inkscape:window-y="389"
     inkscape:window-maximized="0"
     inkscape:current-layer="b" /><defs
     id="defs12571"><style
       id="style12569">.f{fill:none;stroke:#fff;stroke-linecap:round;stroke-linejoin:round;}</style><style
       id="style13944">.a{fill:none;stroke:#fff;stroke-linecap:round;stroke-linejoin:round;}</style><style
       id="style1983">.a{fill:none;stroke:#fff;stroke-linecap:round;stroke-linejoin:round;}</style></defs><g
     id="g14139"
     style="stroke:#ffffff;stroke-opacity:1"
     transform="translate(-0.2993925,-0.228665)"><path
       id="path13956"
       style="fill:none;stroke:#ffffff;stroke-linecap:round;stroke-linejoin:round;stroke-opacity:1"
       d="M 26.562083,35.544617 A 7.75,7.75 0 0 1 26.5625,35.625 v 0 a 7.75,7.75 0 0 1 -7.75,7.75 7.75,7.75 0 0 1 -7.75,-7.75 7.75,7.75 0 0 1 7.75,-7.75 7.75,7.75 0 0 1 4.613696,1.522937" /><path
       id="path14114"
       style="fill:none;stroke:#ffffff;stroke-linecap:round;stroke-linejoin:round;stroke-opacity:1"
       class="a"
       d="m 34.437023,5.098295 h -0.6875 -8.193359 c -1.104569,0 -2.000545,0.8954306 -2,2 l 0.01105,22.388049"
       sodipodi:nodetypes="ccssc" /><path
       id="path14109"
       style="fill:none;stroke:#ffffff;stroke-linecap:round;stroke-linejoin:round;stroke-opacity:1"
       class="a"
       d="M 34.550781,11.375 H 28.5625 a 2,2 0 0 0 -2,2 v 22.267578" /><path
       id="path14092"
       style="fill:none;stroke:#ffffff;stroke-linecap:round;stroke-linejoin:round;stroke-opacity:1"
       d="m 34.35999,5.0824497 a 3.1488349,3.1488349 0 0 1 0.02746,-1.197e-4 3.1488349,3.1488349 0 0 1 3.148835,3.1488349 v 0 A 3.1488349,3.1488349 0 0 1 34.387451,11.38 3.1488349,3.1488349 0 0 1 34.35999,11.37988" /></g></svg>
