<svg xmlns="http://www.w3.org/2000/svg" xml:space="preserve" id="svg990" width="48" height="48" version="1.1"><defs id="defs987"><style id="style1174">.a{fill:none;stroke:#fff;stroke-linecap:round;stroke-linejoin:round}</style></defs><path id="path246" d="m22.448 29.33-6.68 2.901 2.901-6.679m0-3.104-2.9-6.68 6.679 2.901m3.104 0 6.68-2.9-2.901 6.679m0 3.104 2.9 6.68v0l-6.679-2.901m0 0L24 33.264l-1.552-3.935m-3.778-3.778L14.735 24l3.935-1.552m3.778-3.778L24 14.735l1.552 3.935m3.778 3.778L33.265 24v0l-3.935 1.552M8.858 23.923l-3.226-7.641 7.715-3.043 3.122-7.685 7.608 3.304 7.641-3.226 3.043 7.715 7.685 3.122-3.304 7.608 3.226 7.641-7.715 3.043-3.122 7.685-7.608-3.304-7.641 3.226-3.043-7.715-7.685-3.122z" style="display:inline;fill:none;stroke:#fff;stroke-width:1;stroke-linecap:round;stroke-linejoin:round;stroke-dasharray:none;stroke-opacity:1;stop-color:#000"/></svg>