<svg id="Layer_2" data-name="Layer 2" xmlns="http://www.w3.org/2000/svg" viewBox="0 0 48 48"><defs><style>.cls-1{fill:none;stroke:#000;stroke-linecap:round;stroke-linejoin:round;}</style></defs><path class="cls-1" d="M29.12,16.74a7.63,7.63,0,0,1,7.34,7.34,7.63,7.63,0,0,1-7.34,7.35,7.64,7.64,0,0,1-7.35-7.35,7.63,7.63,0,0,1,7.35-7.34Z"/><path class="cls-1" d="M8.4,6.45v35.1a2,2,0,0,0,1.95,2h2.38V4.5H10.35A2,2,0,0,0,8.4,6.45Z"/><path class="cls-1" d="M12.73,4.5v39H37.65a2,2,0,0,0,2-2V6.45a2,2,0,0,0-2-1.95Z"/></svg>