<svg xmlns="http://www.w3.org/2000/svg" viewBox="0 0 48 48"><defs><style>.a,.b{fill:none;stroke:#fff;stroke-linecap:round;stroke-linejoin:round;}.c{fill:#fff;}</style></defs><path class="a" d="M40.5,5.5H7.5a2,2,0,0,0-2,2v33a2,2,0,0,0,2,2h33a2,2,0,0,0,2-2V7.5A2,2,0,0,0,40.5,5.5Z"/><line class="b" x1="9.5" y1="20.0165" x2="15.13" y2="20.0165"/><line class="b" x1="12.3681" y1="28.5147" x2="12.3681" y2="20.0165"/><path class="b" d="M19.804,26.39A2.1308,2.1308,0,0,1,17.68,28.5147h0A2.1309,2.1309,0,0,1,15.5549,26.39V25.0092A2.1309,2.1309,0,0,1,17.68,22.8846h0a2.1308,2.1308,0,0,1,2.1245,2.1246"/><line class="b" x1="19.804" y1="28.5147" x2="19.804" y2="22.8846"/><circle class="c" cx="22.9908" cy="20.3352" r="0.75"/><line class="b" x1="22.9908" y1="22.8846" x2="22.9908" y2="28.5147"/><circle class="c" cx="37.6502" cy="20.3352" r="0.75"/><line class="b" x1="37.6502" y1="22.8846" x2="37.6502" y2="28.5147"/><path class="b" d="M26.1777,25.0092a2.1308,2.1308,0,0,1,2.1245-2.1246h0a2.1308,2.1308,0,0,1,2.1245,2.1246v3.3992"/><line class="b" x1="26.1777" y1="22.8846" x2="26.1777" y2="28.4084"/><path class="b" d="M30.4267,25.0092a2.1309,2.1309,0,0,1,2.1246-2.1246h0a2.1308,2.1308,0,0,1,2.1245,2.1246v3.3992"/></svg>