<?xml version="1.0" encoding="UTF-8"?>
<svg version="1.1" viewBox="0 0 48 48" xmlns="http://www.w3.org/2000/svg">
    <defs>
        <style>.a{fill:none;stroke:#fff;stroke-linecap:round;stroke-linejoin:round;}</style>
    </defs>
    <circle class="a" cx="24" cy="24" r="21.5"/>
    <path d="m22.689 40.478c1.8142-5.0296 3.7503-7.3394 4.9402-8.6414 0.98799-1.081 1.8769-0.64687 2.9243-0.78353 3.282-0.4282 6.4698-1.7263 7.6773-5.4927 0.60864-1.8984-0.83741-5.9981-1.5604-5.8984-2.0136 0.38399-3.8118 0.47801-5.7424 0.28088-0.68659-0.08313-1.2067-0.45772-1.5604-1.1235-1.7038-3.2347-5.0401-3.7254-7.1155-3.4954" fill="none" stop-color="#000000" stroke="#fff" stroke-linecap="round" stroke-linejoin="round" style="-inkscape-stroke:none;font-variation-settings:normal"/>
    <path d="m22.627 16.448c2.054 4.467 1.9628 10.861-2.0598 14.606-1.9634 1.8275-8.4037 1.5405-8.1142-5.8048 0.14292-3.6267 3.1402-6.2899 6.6162-9.7058 1.9301-1.8967 2.8221-0.69494 3.5578 0.90504z" fill="none" stop-color="#000000" stroke="#fff" stroke-linecap="round" stroke-linejoin="round" style="-inkscape-stroke:none;font-variation-settings:normal"/>
    <circle cx="27.339" cy="21.035" r="1" fill="#fff" style="paint-order:markers fill stroke"/>
    <circle cx="10.459" cy="19.038" r="1.75" fill="none" stroke="#fff" stroke-linecap="round" stroke-linejoin="round" style="paint-order:markers fill stroke"/>
    <circle cx="33.926" cy="11.378" r="1.75" fill="none" stroke="#fff" stroke-linecap="round" stroke-linejoin="round" style="paint-order:markers fill stroke"/>
    <circle cx="39.176" cy="18.141" r="1.25" fill="none" stroke="#fff" stroke-linecap="round" stroke-linejoin="round" style="paint-order:markers fill stroke"/>
    <path transform="matrix(1.7061 1.2456 -1.2601 1.6849 3.8648 -43.896)" d="m20.832 16.765-0.01266 1.0502-0.70766-0.77614-1.0502-0.01266 0.77614-0.70766 0.01266-1.0502 0.70766 0.77614 1.0502 0.01266z" fill="none" stroke="#fff" stroke-linecap="round" stroke-linejoin="round" stroke-width=".47436" style="paint-order:markers fill stroke"/>
</svg>
