<?xml version="1.0" encoding="UTF-8"?>
<svg version="1.1" viewBox="0 0 48 48" xml:space="preserve" xmlns="http://www.w3.org/2000/svg"><defs><style>.a{fill:none;stroke:#fff;stroke-linecap:round;stroke-linejoin:round;}</style><style>.a{fill:none;stroke:#fff;stroke-linecap:round;stroke-linejoin:round;}</style><style>.a{fill:none;stroke:#fff;stroke-linecap:round;stroke-linejoin:round;}</style></defs><style type="text/css">
	.st0{fill-rule:evenodd;clip-rule:evenodd;fill:#1D1D1B;}
	.st1{fill:#1D1D1B;}
</style><path d="m31.742 35.913c12.889-3.8013 11.986-13.401 11.382-14.006-0.07506-0.07504-3.8164-0.78966-5.1192-0.97777-3.802-0.54897-8.6941-0.84784-9.5038-0.58062-0.65807 0.21718-1.001 0.64884-1.0678 1.3439-0.08997 0.93644 0.99276 6.8933 2.2774 12.529 0.52987 2.3248 0.36068 2.1839 2.0316 1.6912zm-8.9807 1.068 0.07286-9.147c0.07993-10.035 0.0874-9.9126-0.62473-10.281-1.5117-0.78173-14.439 1.3649-16.348 2.0103-0.56433 0.19074 4.4556-8.6002 18.139-8.5599 13.683-0.04022 18.703 8.7507 18.139 8.56-1.9095-0.64545-14.831-2.7758-16.342-1.9941-0.71213 0.36826-0.70467 0.24538-0.62473 10.281l0.07286 9.147zm-6.5043-1.0682c-12.889-3.8014-11.986-13.401-11.382-14.006 0.075065-0.07506 3.8164-0.78968 5.1192-0.97777 3.802-0.54897 8.6941-0.84784 9.5038-0.58063 0.65807 0.21718 1.001 0.64884 1.0678 1.3439 0.08997 0.93644-0.99276 6.8933-2.2774 12.529-0.52987 2.3248-0.36068 2.1839-2.0316 1.6912z" fill="none" stroke="#fff" stroke-linecap="round" stroke-linejoin="round"/></svg>
