<svg version="1.1" viewBox="0 0 48 48" xmlns="http://www.w3.org/2000/svg">
 <g fill="none" stroke="#fff" stroke-linecap="round" stroke-linejoin="round">
  <g>
   <g transform="matrix(1.5926 0 0 1.5636 -335.87 -45.816)" stroke-width=".6337">
    <path class="st5" d="m233.51 47.774c0.49057 0.63866 1.1057 0.87654 1.9615 0.87654h1.1844c1.1022 0 1.9957-0.8935 1.9957-1.9957v-0.0086c0-1.1022-0.89349-1.9957-1.9957-1.9957h-1.3065c-1.1034 0-1.9978-0.89447-1.9978-1.9978v-4e-6c0-1.1058 0.89639-2.0022 2.0022-2.0022h1.1779c0.85579 0 1.4709 0.23788 1.9615 0.87654" fill="none" stroke="#fff" stroke-linecap="round" stroke-linejoin="round" stroke-width=".6337"/>
   </g>
   <g transform="matrix(1.5926 0 0 1.5636 -75.785 -45.815)" stroke-width=".6337">
    <path class="st5" d="m66.65 44.65c1.1046 0 2 0.89543 2 2s-0.89543 2-2 2h-3.3v-8l3.3 4e-6c1.1046 0 2 0.89543 2 2s-0.89543 2-2 2z"/>
    <line class="st5" x1="66.65" x2="63.35" y1="44.65" y2="44.65"/>
   </g>
   <path class="st5" d="m22.9 26.058v0.05121c0 2.2867-1.8915 4.1405-4.2248 4.1405-2.3333 0-4.2248-1.8538-4.2248-4.1405v-4.2186c0-2.2867 1.8915-4.1405 4.2248-4.1405h1.4e-5c2.3333 0 4.2248 1.8538 4.2248 4.1405v0.05121" stroke-miterlimit="10"/>
   <g transform="matrix(1.5926 0 0 1.5636 -383.75 -45.816)" stroke-width=".6337">
    <line class="st5" x1="243.35" x2="248.65" y1="40.65" y2="40.65"/>
    <line class="st5" x1="246" x2="246" y1="48.65" y2="40.65"/>
   </g>
  </g>
  <path d="m8.25 4-3.125 3.15 3.2401 2.9849" stroke-width="1px"/>
  <path d="m39.75 37.75 3.125 3.15-3.2401 2.9849" stroke-width="1px"/>
 </g>
</svg>
