<svg version="1.1" viewBox="0 0 48 48" xmlns="http://www.w3.org/2000/svg">
 <defs>
  <style>.a{fill:none;stroke:#fff;stroke-linecap:round;stroke-linejoin:round;}</style>
 </defs>
 <g fill="none" stroke="#fff" stroke-linecap="round" stroke-linejoin="round" stroke-miterlimit="6">
  <path d="m12.5 16h12.4"/>
  <line class="st5" x1="17.7" x2="17.7" y1="32" y2="16"/>
  <path class="st5" d="m24.899 16h3.6008c3.8 0 7 3.2 7 7v2c0 3.8-3.2 7-7 7l-6.1004-2.96e-4v-13.5"/>
 </g>
 <path class="a" d="m40.5 5.5h-33a2 2 0 0 0-2 2v33a2 2 0 0 0 2 2h33a2 2 0 0 0 2-2v-33a2 2 0 0 0-2-2z"/>
</svg>
