<svg width="48" height="48" version="1.1" viewBox="0 0 48 48" xml:space="preserve" xmlns="http://www.w3.org/2000/svg"><defs><style>.a{fill:none;stroke:#fff;stroke-linecap:round;stroke-linejoin:round;}</style></defs><g transform="matrix(1.2874 0 0 1.2874 -6.8977 -6.8977)" stroke-width=".77676"><ellipse cx="20.318" cy="20.309" rx="2.2418" ry="2.0583" fill="#fff"/><g fill="none" stroke-width=".77676"><path class="a" d="m36.816 9.63h-25.633a1.5535 1.5535 0 0 0-1.5535 1.5535v25.633a1.5535 1.5535 0 0 0 1.5535 1.5535h25.633a1.5535 1.5535 0 0 0 1.5535-1.5535v-25.633a1.5535 1.5535 0 0 0-1.5535-1.5535z"/><path d="m25.419 21.399v-1.9447c1.445-0.38719 2.9135-0.28171 4.3731 0.10937v1.9309c-1.481-0.41068-2.8965-0.4912-4.3731-0.09555z" stroke="#fff" stroke-linecap="round" stroke-linejoin="round" style="paint-order:stroke fill markers"/><path d="m30.176 25.864v1.327c-3.4744 3.4744-9.2603 3.3727-12.731-0.09808v-1.3265s6.7452 4.714 12.731 0.09766z" stroke="#fff" stroke-linecap="round" stroke-linejoin="round" style="paint-order:stroke fill markers"/></g></g></svg>
