<?xml version="1.0" encoding="utf-8"?>
<!-- Generator: Adobe Illustrator 25.1.0, SVG Export Plug-In . SVG Version: 6.00 Build 0)  -->
<svg version="1.1"
	 id="svg8" inkscape:version="1.0.1 (3bc2e813f5, 2020-09-07)" sodipodi:docname="template.svg" xmlns:cc="http://creativecommons.org/ns#" xmlns:dc="http://purl.org/dc/elements/1.1/" xmlns:inkscape="http://www.inkscape.org/namespaces/inkscape" xmlns:rdf="http://www.w3.org/1999/02/22-rdf-syntax-ns#" xmlns:sodipodi="http://sodipodi.sourceforge.net/DTD/sodipodi-0.dtd" xmlns:svg="http://www.w3.org/2000/svg"
	 xmlns="http://www.w3.org/2000/svg" xmlns:xlink="http://www.w3.org/1999/xlink" x="0px" y="0px" viewBox="0 0 48 48"
	 style="enable-background:new 0 0 48 48;" xml:space="preserve">
<style type="text/css">
	.st0{fill:none;stroke:#FFFFFF;stroke-linecap:round;stroke-linejoin:round;}
</style>
<g>
	
		<sodipodi:namedview  bordercolor="#666666" borderopacity="1" gridtolerance="10" guidetolerance="10" id="namedview10" inkscape:current-layer="svg8" inkscape:cx="23.538791" inkscape:cy="22.398026" inkscape:document-rotation="0" inkscape:guide-bbox="true" inkscape:pageopacity="0" inkscape:pageshadow="2" inkscape:window-height="2098" inkscape:window-maximized="1" inkscape:window-width="3840" inkscape:window-x="0" inkscape:window-y="25" inkscape:zoom="1.6491" objecttolerance="10" pagecolor="#595959" showgrid="false" showguides="true">
		</sodipodi:namedview>
	<path id="path6462" sodipodi:nodetypes="cccc" class="st0" d="M28.6,28.6V8.8c0-5.8-9.1-5.7-9.1-0.1l0,19.8"/>
	
		<path id="path6460" sodipodi:arc-type="arc" sodipodi:cx="23.910816" sodipodi:cy="35.069778" sodipodi:end="4.1356708" sodipodi:open="true" sodipodi:rx="7.9730163" sodipodi:ry="7.9730163" sodipodi:start="5.3163288" sodipodi:type="arc" class="st0" d="
		M28.6,28.6c3,2,4.2,5.8,3.1,9.2c-1.1,3.4-4.3,5.7-7.9,5.7c-3.6,0-6.7-2.4-7.7-5.9c-1-3.4,0.4-7.1,3.4-9.1"/>
	<path id="path6464" sodipodi:nodetypes="cc" class="st0" d="M21.8,27.4l4.7-0.5"/>
	
		<path id="path6460-5" sodipodi:arc-type="arc" sodipodi:cx="23.910816" sodipodi:cy="35.069778" sodipodi:end="4.3249952" sodipodi:open="true" sodipodi:rx="5.8225255" sodipodi:ry="5.8225255" sodipodi:start="5.1473479" sodipodi:type="arc" class="st0" d="
		M26.5,30c2.6,1.2,3.9,4,3.3,6.7c-0.6,2.7-3.1,4.7-5.9,4.6c-2.8-0.1-5.2-2.1-5.7-4.9c-0.5-2.8,1-5.5,3.6-6.6"/>
	<path id="path6462-8" sodipodi:nodetypes="cccc" class="st0" d="M26.5,30V10.1c-0.1-3.7-4.8-3.4-4.7-0.1l0,19.8"/>
</g>
</svg>
