<svg viewBox="0 0 48 48" xmlns="http://www.w3.org/2000/svg"><defs><style>.a{fill:none;stroke:#fff;stroke-linecap:round;stroke-linejoin:round}</style></defs><path class="a" d="M35.61 19.875c5.956 8.46 6.373 14.52 6.89 20.625.093 1.1-.895 2-2 2h-9.613a2 2 0 01-2-2s.24-7.373-4.887-13.323c-5.127 5.95-4.887 13.323-4.887 13.323a2 2 0 01-2 2H7.5c-1.105 0-2.093-.9-2-2 .517-6.105.934-12.166 6.89-20.625-1.44-.444-3.118-.606-4.89-.656-1.105 0-2.093-.9-2-2V7.5c0-1.105.896-2.026 2-2 5.836.139 11.575 1.483 16.5 4.346C28.925 6.983 34.664 5.64 40.5 5.5c1.104-.026 2 .895 2 2v9.719c.093 1.1-.895 2-2 2-1.772.05-3.45.212-4.89.656zM35.695 39.338c.02.53.023 1.063.01 1.599M35.314 35.763c.092.523.17 1.05.23 1.582M34.447 32.27c.163.507.311 1.02.444 1.538M33.126 28.924c.227.482.441.971.641 1.466M31.386 25.775c.287.45.56.907.822 1.372M29.27 22.865c.34.41.668.832.985 1.261M26.818 20.231c.386.367.763.745 1.129 1.134M24.068 17.912c.428.318.847.648 1.258.99M21.056 15.944c.463.263.92.54 1.37.829M17.822 14.37c.493.202.981.418 1.463.649M14.408 13.237a26 26 0 011.536.446M10.868 12.594c.53.057 1.059.13 1.584.222M7.274 12.485a23.143 23.143 0 011.6-.02M12.442 39.338c-.02.53-.023 1.063-.01 1.599M12.823 35.763a25.85 25.85 0 00-.23 1.582M13.69 32.27c-.163.507-.311 1.02-.444 1.538M15.011 28.924c-.227.482-.441.971-.641 1.466M16.75 25.775c-.286.45-.56.907-.821 1.372M18.866 22.865c-.339.41-.667.832-.984 1.261M30.315 14.37c-.493.202-.981.418-1.463.649M33.729 13.237a26 26 0 00-1.536.446M37.27 12.594c-.531.057-1.06.13-1.586.222M40.863 12.485a23.143 23.143 0 00-1.6-.02"/></svg>