<?xml version="1.0" encoding="utf-8"?>
<svg
	version="1.1"
	xmlns="http://www.w3.org/2000/svg"
	xmlns:xlink="http://www.w3.org/1999/xlink"
	x="0%" y="0%"
	width="100%" height="100%"
	viewBox="0 0 48.0 48.0"
	enable-background="new 0 0 48.0 48.0"
	xml:space="preserve">
	<path
		fill="#FFFFFF"
		stroke="#FBFBFB"
		fill-opacity="0.000"
		stroke-opacity="1.000"
		fill-rule="nonzero"
		stroke-linejoin="round"
		stroke-linecap="round"
		d="M38.03,7.06C47.39,14.81,48.69,28.68,40.94,38.03C33.19,47.39,19.32,48.69,9.97,40.94C0.61,33.19,-0.69,19.32,7.06,9.97C14.81,0.61,28.68,-0.69,38.03,7.06z"/>
	<path
		fill="#FFFFFF"
		stroke="#FBFBFB"
		fill-opacity="0.000"
		stroke-opacity="1.000"
		fill-rule="nonzero"
		stroke-linejoin="round"
		stroke-linecap="round"
		d="M35.06,10.64C40.41,15.08,42.94,20.86,40.71,23.55C38.47,26.25,32.32,24.85,26.97,20.41C21.62,15.98,19.09,10.20,21.33,7.50C23.56,4.80,29.71,6.21,35.06,10.64z"/>
	<path
		fill="#FFFFFF"
		stroke="#FBFBFB"
		fill-opacity="0.000"
		stroke-opacity="1.000"
		fill-rule="nonzero"
		stroke-linejoin="round"
		stroke-linecap="round"
		d="M16.15,33.48C18.41,35.36,19.49,37.81,18.54,38.95C17.59,40.10,14.98,39.50,12.72,37.62C10.45,35.74,9.38,33.29,10.33,32.15C11.27,31.01,13.88,31.60,16.15,33.48z"/>
	<path
		fill="#FFFFFF"
		stroke="#FBFBFB"
		fill-opacity="0.000"
		stroke-opacity="1.000"
		fill-rule="nonzero"
		stroke-linejoin="round"
		stroke-linecap="round"
		d="M24.07,23.92C27.53,26.79,29.17,30.53,27.72,32.28C26.27,34.02,22.29,33.11,18.83,30.24C15.36,27.37,13.73,23.63,15.18,21.89C16.62,20.14,20.60,21.05,24.07,23.92z"/>
</svg>