<?xml version="1.0" encoding="UTF-8"?><svg id="b" xmlns="http://www.w3.org/2000/svg" viewBox="0 0 48 48"><defs><style>.c{fill:none;stroke:#fff;stroke-linecap:round;stroke-linejoin:round;}</style></defs><g><line class="c" x1="4.6182" y1="20.3885" x2="12.72" y2="20.3885"/><line class="c" x1="8.6691" y1="32.8529" x2="8.6691" y2="20.3885"/><line class="c" x1="15.7609" y1="20.2327" x2="15.7609" y2="32.8529"/><path class="c" d="m15.7609,27.5555c0-1.7138,1.4022-3.1161,3.1161-3.1161s3.1161,1.4022,3.1161,3.1161v5.1415"/><path class="c" d="m30.7987,31.2948c-.4674.9348-1.558,1.558-2.6487,1.558-1.7138,0-3.1161-1.4022-3.1161-3.1161v-2.0255c0-1.7138,1.4022-3.1161,3.1161-3.1161s3.1161,1.4022,3.1161,3.1161v1.0906h-6.2322"/></g><path class="c" d="m36.7469,13.8754h-2.8358v-3.7542h5.9277v3.7542"/><path class="c" d="m39.8388,13.7093v19.1431h-3.0913V14.0875"/><rect class="c" x="33.2045" y="35.0204" width="10.1773" height="2.8583"/></svg>