<?xml version="1.0" encoding="UTF-8"?>
<svg width="48" height="48" version="1.1" viewBox="0 0 48 48" xml:space="preserve" xmlns="http://www.w3.org/2000/svg"><defs><style>.a{fill:none;stroke:#fff;stroke-linecap:round;stroke-linejoin:round;}</style>
		
		
	
		
		
	</defs><g fill="none" stroke="#fff" stroke-linecap="round" stroke-linejoin="round"><g stroke-miterlimit="10"><line class="st5" x1="4.6181765" x2="12.720016" y1="20.38854" y2="20.38854"/><line class="st5" x1="8.669096" x2="8.669096" y1="32.852879" y2="20.38854"/><line class="st5" x1="15.760885" x2="15.760885" y1="20.232738" y2="32.852879"/><path class="st5" d="m15.760885 27.55554c0-1.713847 1.402238-3.116085 3.116085-3.116085 1.713846 0 3.116084 1.402238 3.116084 3.116085v5.14154"/><path class="st5" d="m30.798697 31.29484c-0.467413 0.934825-1.558042 1.558042-2.648672 1.558042-1.713846 0-3.116085-1.402239-3.116085-3.116085v-2.025455c0-1.713846 1.402239-3.116085 3.116085-3.116085 1.713847 0 3.116084 1.402239 3.116084 3.116085v1.09063h-6.232169"/></g><path d="m36.746918 13.875444h-2.835813v-3.754193h5.927708v3.754193" stop-color="#000000"/><path d="m39.838813 13.709271v19.143121h-3.091343v-18.764938" stop-color="#000000"/><rect x="33.204468" y="35.020412" width="10.177349" height="2.8583379" stop-color="#000000"/></g></svg>
