<svg xmlns="http://www.w3.org/2000/svg" viewBox="0 0 48 48"><defs><style>.a{fill:none;stroke:#fff;stroke-linecap:round;stroke-linejoin:round;}</style></defs><path class="a" d="M10.2046,17.9506,21.5821,6.2237A2.6034,2.6034,0,0,1,25.06,6.1125l16.1255,16.07q2.358,2.2548.2937,4.51L30.0617,38.1411a5.0273,5.0273,0,0,1-6.0659-.1985l-4.478-4.0174-6.9392,7.0172a4.2124,4.2124,0,0,1-4.6739.9962,3.6936,3.6936,0,0,1-2.0391-2.1743,4.1839,4.1839,0,0,1,1.1858-4.4l7.2262-6.8218-4.073-4.5415A4.5966,4.5966,0,0,1,10.2046,17.9506Z"/></svg>