<svg xmlns="http://www.w3.org/2000/svg" xml:space="preserve" id="svg990" width="48" height="48" version="1.1"><defs id="defs987"><style id="style1174">.a{fill:none;stroke:#fff;stroke-linecap:round;stroke-linejoin:round}</style></defs><path id="path12073" d="M29.193 18.18a7.736 7.736 0 0 1 4.84-2.522l.655-.08a7.743 7.743 0 0 1 8.56 6.185m0 0c.036.187.067.377.09.57l.103.833a7.744 7.744 0 0 1-6.756 8.65l-.655.08a7.744 7.744 0 0 1-7.836-4.116m0 0a7.717 7.717 0 0 1-.147-.298m0 0a7.797 7.797 0 0 1-.662-2.3m11.211-2.696.224 1.82c.245 1.99-1.068 3.78-2.943 4.01l-.056.007c-1.25.154-2.426-.425-3.143-1.418m0 0a3.788 3.788 0 0 1-.684-1.76l-.262-2.135c-.245-1.991 1.067-3.78 2.942-4.01l.056-.008c1.875-.23 3.582 1.187 3.827 3.179l.039.315m-11.21 2.696-3.063 11.85v0l-6.148-1.842-4.585-12.817-3.248 10.971-4.65-1.412m0 0L4.5 31.57l5.652-20.602 5.633 1.907 5.13 13.486L23.9 14.652l5.706 1.932-.413 1.597" style="display:inline;fill:none;stroke:#fff;stroke-width:1;stroke-linecap:round;stroke-linejoin:round;stroke-dasharray:none;stroke-opacity:1;stop-color:#000"/></svg>