<svg width="48" height="48" viewBox="0 0 12.7 12.7" xmlns="http://www.w3.org/2000/svg"><g style="stroke:#fff;stroke-width:.2645731;stroke-miterlimit:4;stroke-dasharray:none;stroke-opacity:1"><g style="stroke-width:.280007;stroke-linecap:round;stroke-linejoin:round;stroke-miterlimit:4;stroke-dasharray:none"><path style="fill:none;stroke:#fff;stroke-width:.280007;stroke-linecap:round;stroke-linejoin:round;stroke-miterlimit:4;stroke-dasharray:none;stroke-opacity:1" d="m11.487 4.552-4.029.003-1.383 1.38-.026 2.587.99.977.986-.975c-1.027-.63-1.037-2.367.261-2.722h3.032c.508-.284.444-.936.169-1.25ZM7.605 9.757l1.062-1.075 2.715.002c.366.284.31.72.18 1.08zM.507 4.537.482 5.792l2.293.014.009 3.951 1.368.006-.012-3.958 1.293-.006 1.245-1.245z" transform="matrix(.94492 0 0 .94492 .596 -.407)"/></g></g></svg>