<svg xmlns="http://www.w3.org/2000/svg" xml:space="preserve" id="svg990" width="48" height="48" version="1.1"><defs id="defs987"><style id="style1174">.a{fill:none;stroke:#fff;stroke-linecap:round;stroke-linejoin:round}</style></defs><path id="path4143" d="M16.712 40.632c2.612-1.643 4.386-7.228 1.02-10.159L9.877 41.991c-.634.929-.297 1.92 1.683.998l7.243-3.38 12.304-5.728a3.21 3.21 0 0 0 1.485-4.3l-6.79-14.667c-.815-1.676.48-4.323 2.865-6.268m2.621-1.278c-2.612 1.643-4.386 7.228-1.02 10.159l7.855-11.518c.634-.929.297-1.92-1.683-.998l-7.243 3.38-12.304 5.728a3.21 3.21 0 0 0-1.485 4.3l6.79 14.667c.815 1.676-.48 4.323-2.865 6.268" style="fill:none;stroke:#fff;stroke-width:1;stroke-linecap:round;stroke-linejoin:round;stroke-dasharray:none;stroke-opacity:1;stop-color:#000"/></svg>