<svg xmlns="http://www.w3.org/2000/svg" xml:space="preserve" id="svg990" width="48" height="48" version="1.1"><defs id="defs987"><style id="style1174">.a{fill:none;stroke:#fff;stroke-linecap:round;stroke-linejoin:round}</style></defs><path id="path7328-2" d="M17.591 13.92a2.698 2.698 0 0 0-3.816.013v0a2.698 2.698 0 0 0-.004 3.816zm16.5 16.466a2.698 2.698 0 0 1-.004 3.816v0a2.698 2.698 0 0 1-3.816.012zM15.52 32.497l16.07-16.103m-5.234-5.223 10.467 10.445M30.83 37.64l-2.704-2.698a4.504 4.504 0 0 1-.007-6.384l.448-.45a4.504 4.504 0 0 1 6.385-.006l2.703 2.698M17.17 10.357l2.704 2.698a4.504 4.504 0 0 1 .007 6.384l-.448.45a4.504 4.504 0 0 1-6.385.006l-2.703-2.698M29.672 4.5 43.49 18.29m-.307 6.97-5.528 5.539m-6.826 6.84-5.527 5.54m-6.97.321L4.51 29.707m.317-6.98 5.518-5.53m6.826-6.84 5.527-5.54m2.614 38.35a6.27 5.264 44.94 0 0-6.938.28 6.27 5.264 44.94 0 0-.048.049M4.514 29.713a6.27 5.264 44.94 0 0 .049-.048 6.27 5.264 44.94 0 0 .265-6.938m38.343 2.542a6.27 5.264 44.94 0 1 .266-6.938 6.27 5.264 44.94 0 1 .049-.047M29.673 4.5a6.27 5.264 44.94 0 1-.047.048v0a6.27 5.264 44.94 0 1-6.938.28" style="fill:none;stroke:#fff;stroke-width:1;stroke-linecap:round;stroke-linejoin:round;stroke-dasharray:none;stroke-opacity:1;stop-color:#000"/></svg>