<?xml version="1.0" encoding="UTF-8"?><svg id="Layer_1" xmlns="http://www.w3.org/2000/svg" viewBox="0 0 48 48"><defs><style>.cls-1{fill:none;stroke:#fff;stroke-linecap:round;stroke-linejoin:round;}</style></defs><path class="cls-1" d="m4.74,24.25c-.13,0-.24.11-.24.24v4.01c0,.13.11.24.24.24h4.01c.13,0,.24-.11.24-.24v-4.01c0-.13-.11-.24-.24-.24h-4.01Z"/><path class="cls-1" d="m9.67,19.25c-.13,0-.24.11-.24.24v4.01c0,.13.11.24.24.24h4.01c.13,0,.24-.11.24-.24v-4.01c0-.13-.11-.24-.24-.24h-4.01Z"/><path class="cls-1" d="m14.6,14.25c-.13,0-.24.11-.24.24v4.01c0,.13.11.24.24.24h4.01c.13,0,.24-.11.24-.24v-4.01c0-.13-.11-.24-.24-.24h-4.01Z"/><path class="cls-1" d="m19.53,19.25c-.13,0-.24.11-.24.24v4.01c0,.13.11.24.24.24h4.01c.13,0,.24-.11.24-.24v-4.01c0-.13-.11-.24-.24-.24h-4.01Z"/><path class="cls-1" d="m24.46,24.25c-.13,0-.24.11-.24.24v4.01c0,.13.11.24.24.24h4.01c.13,0,.24-.11.24-.24v-4.01c0-.13-.11-.24-.24-.24h-4.01Z"/><path class="cls-1" d="m29.39,29.25c-.13,0-.24.11-.24.24v4.01c0,.13.11.24.24.24h4.01c.13,0,.24-.11.24-.24v-4.01c0-.13-.11-.24-.24-.24h-4.01Z"/><path class="cls-1" d="m34.31,24.25c-.13,0-.24.11-.24.24v4.01c0,.13.11.24.24.24h4.01c.13,0,.24-.11.24-.24v-4.01c0-.13-.11-.24-.24-.24h-4.01Z"/><path class="cls-1" d="m39.24,19.25c-.13,0-.24.11-.24.24v4.01c0,.13.11.24.24.24h4.01c.13,0,.24-.11.24-.24v-4.01c0-.13-.11-.24-.24-.24h-4.01Z"/></svg>