<svg version="1.1" viewBox="0 0 48 48" xml:space="preserve" xmlns="http://www.w3.org/2000/svg"><defs><style>.a{fill:none;stroke:#fff;stroke-linecap:round;stroke-linejoin:round;}</style></defs><path d="m23.867 39.947c-1.1515-0.73853-2.753-1.5016-4.1344-1.8112-6.4374-1.4428-11.841-5.8633-10.907-11.97 0.31644-3.0472 2.9925-7.7175 2.9925-7.7175-2.1684-2.4884-4.4941-4.8078-3.78-10.395 0.94034 2.6662 1.853 5.3693 4.095 6.3-0.96504-1.5324-0.54363-2.7677-0.55125-4.095 0.40545 1.9715 1.5981 3.5652 3.8587 4.6462 6.9953-4.6166 12.05-3.1182 16.616-0.07875 2.4499-0.68743 3.886-2.1634 4.3312-4.41 0.55391 1.4839 0.30882 2.7458-0.4725 3.8587 2.9141-0.91944 3.0951-3.8634 4.1737-6.1425-0.14165 4.4496-1.1326 8.3035-4.1833 10.442 0 0 3.1457 4.7 2.943 8.1631-0.44837 8.1994-5.1547 10.181-10.32 11.338-1.7419 0.39034-3.2604 1.3786-4.6624 1.8721z" fill="none" stroke="#fff" stroke-linecap="round" stroke-linejoin="round"/><path d="m12.054 24.63c2.7288 0.49911 8.6754 1.5231 8.4065 3.6028 0 0-1.2138 1.9267-3.1303 2.2247-3.9769 0.61842-6.5436-6.1052-5.2762-5.8275z" fill="none" stroke="#fff" stroke-linecap="round" stroke-linejoin="round" stroke-width="1px"/><circle cx="16.789" cy="27.416" r="1.6439" fill="none" stroke="#fff" stroke-linecap="round" stroke-linejoin="round"/><path d="m36.068 24.63c-2.7288 0.49911-8.6754 1.5231-8.4065 3.6028 0 0 1.2138 1.9267 3.1303 2.2247 3.9769 0.61842 6.5436-6.1052 5.2762-5.8275z" fill="none" stroke="#fff" stroke-linecap="round" stroke-linejoin="round" stroke-width="1px"/><circle transform="scale(-1,1)" cx="-31.333" cy="27.416" r="1.6439" fill="none" stroke="#fff" stroke-linecap="round" stroke-linejoin="round"/><path d="m26.792 30.561c0 1.5476-1.2501 5.8602-2.7921 5.8602-1.542 0-2.7921-4.3126-2.7921-5.8602 0-1.5476 1.2501-2.8022 2.7921-2.8022 1.542 0 2.7921 1.2546 2.7921 2.8022z" fill="none" stroke="#fff" stroke-linecap="round" stroke-linejoin="round"/><path d="m11.818 18.448c1.0471 0.87533 2.3242 1.7741 3.5935 2.4902 1.6828 0.94932 3.6536 1.3422 5.2895 2.3703 1.2182 0.76554 2.5249 1.8146 3.2989 2.7834 0 0 1.7247-1.7057 2.7361-2.3593 1.6879-1.0908 3.7564-1.488 5.4655-2.5452 1.789-1.1066 3.7044-2.614 3.7044-2.614" fill="none" stroke="#fff" stroke-linecap="round" stroke-linejoin="round"/></svg>
