<svg id="Layer_1" data-name="Layer 1" xmlns="http://www.w3.org/2000/svg" viewBox="0 0 48 48"><defs><style>.cls-1{fill:none;stroke:#fff;stroke-linecap:round;stroke-linejoin:round;}</style></defs><line class="cls-1" x1="33.74322" y1="35.03697" x2="14.25678" y2="35.03697"/><polygon class="cls-1" points="14.257 45.779 33.743 45.779 30.678 35.037 16.665 35.037 14.257 45.779"/><circle class="cls-1" cx="24" cy="20.1422" r="10.72849"/><line class="cls-1" x1="24" y1="20.1422" x2="24" y2="12.53686"/><line class="cls-1" x1="24" y1="20.1422" x2="20.02336" y2="22.06372"/><path class="cls-1" d="M14.98391,42.536H12.63849A3.2807,3.2807,0,0,1,9.3578,39.25528V8.78069A3.28069,3.28069,0,0,1,12.63849,5.5h22.723A3.28069,3.28069,0,0,1,38.6422,8.78069V39.25528A3.2807,3.2807,0,0,1,35.36151,42.536H32.81778"/></svg>