<?xml version="1.0" encoding="UTF-8"?>
<!-- Created with Inkscape (http://www.inkscape.org/) -->
<svg width="48" height="48" version="1.1" viewBox="0 0 48 48" xmlns="http://www.w3.org/2000/svg">
 <g fill="none" stroke="#fff" stroke-linecap="round" stroke-linejoin="round">
  <path d="m20.445 14.79a4.5 4.5 0 0 1-4.4937 4.5 4.5 4.5 0 0 1-4.5063-4.4873 4.5 4.5 0 0 1 4.481-4.5126 4.5 4.5 0 0 1 4.5189 4.4747"/>
  <path d="m39.549 16.495a4.8 4.8 0 0 1-4.7933 4.8 4.8 4.8 0 0 1-4.8067-4.7865 4.8 4.8 0 0 1 4.7797-4.8135 4.8 4.8 0 0 1 4.8202 4.773"/>
  <path d="m24.154 32.605a4.8 4.8 0 0 1-4.7933 4.8 4.8 4.8 0 0 1-4.8067-4.7865 4.8 4.8 0 0 1 4.7797-4.8135 4.8 4.8 0 0 1 4.8202 4.773"/>
  <path d="m16.551 24.687a4.4 4.4 0 0 1-4.3938 4.4 4.4 4.4 0 0 1-4.4062-4.3876 4.4 4.4 0 0 1 4.3814-4.4123 4.4 4.4 0 0 1 4.4185 4.3752"/>
  <g stroke-width="1px">
   <path d="m14.46 36.014v-5.1134l-3.079 3.299 0.05498-3.299-6.2131 6.433"/>
   <path d="m35.464 35.354h-4.4536l0.05498-5.2234h12.976"/>
   <path d="m31.065 32.825 8.3024-0.05498"/>
   <path d="m16.55 21.883 5.4983-0.054983 10.612-10.612"/>
   <path d="m27.711 15.89-0.05498-3.5189"/>
   <path d="m26.172 17.54-3.0241-3.299"/>
   <path d="m25.952 11.436-4.7835 4.5636"/>
   <path d="m21.113 12.481v5.4983"/>
   <path d="m18.364 21.828v5.9381"/>
   <path d="m6.433 11.876 5.7732-0.05498"/>
   <path d="m9.732 11.986 0.054983 5.9931"/>
   <path d="m26.007 35.299c3.785-0.14978 3.4909-5.2385-0.54983-5.1684h-1.2646v5.5533"/>
   <path d="m20.619 26.997 5.4433-5.6632v6.6529"/>
   <path d="m26.007 26.557h-2.9691"/>
   <path d="m28.811 22.323 0.05498 5.7732"/>
   <path d="m28.976 26.062 4.7285-4.7285"/>
   <path d="m30.955 24.357 2.4192 2.4742"/>
   <path d="m35.519 22.653v3.189c0.07332 2.4269 3.8854 2.3925 4.0137 0l0.03093-3.7938"/>
  </g>
 </g>
</svg>
