<?xml version="1.0" encoding="UTF-8" standalone="no"?>
<svg
   viewBox="0 0 48 48"
   version="1.1"
   id="svg10"
   sodipodi:docname="tolino.svg"
   inkscape:version="1.1 (c68e22c387, 2021-05-23)"
   xmlns:inkscape="http://www.inkscape.org/namespaces/inkscape"
   xmlns:sodipodi="http://sodipodi.sourceforge.net/DTD/sodipodi-0.dtd"
   xmlns="http://www.w3.org/2000/svg"
   xmlns:svg="http://www.w3.org/2000/svg">
  <sodipodi:namedview
     id="namedview12"
     pagecolor="#999999"
     bordercolor="#666666"
     borderopacity="1.0"
     inkscape:pageshadow="2"
     inkscape:pageopacity="0"
     inkscape:pagecheckerboard="true"
     showgrid="false"
     inkscape:zoom="31.375"
     inkscape:cx="14.486056"
     inkscape:cy="31.123506"
     inkscape:window-width="3840"
     inkscape:window-height="2097"
     inkscape:window-x="-8"
     inkscape:window-y="-8"
     inkscape:window-maximized="1"
     inkscape:current-layer="svg10" />
  <defs
     id="defs4">
    <style
       id="style2">.a{fill:none;stroke:#fff;stroke-linecap:round;stroke-linejoin:round;}</style>
  </defs>
  <path
     class="a"
     d="M8.4,6.5v35a2,2,0,0,0,2,2h2.33V4.5H10.4A2,2,0,0,0,8.4,6.5Z"
     id="path6" />
  <path
     class="a"
     d="M12.73,4.5v39H37.6a2,2,0,0,0,2-2V6.5a2,2,0,0,0-2-2Z"
     id="path8" />
  <path
     style="font-variation-settings:normal;opacity:1;vector-effect:none;fill:none;fill-opacity:1;stroke:#ffffff;stroke-width:1;stroke-linecap:round;stroke-linejoin:round;stroke-miterlimit:4;stroke-dasharray:none;stroke-dashoffset:0;stroke-opacity:1;-inkscape-stroke:none;stop-color:#000000;stop-opacity:1"
     d="m 16.669322,10.677291 c -1.497456,-0.55083 -2.529852,0.280014 -2.129096,1.64924 0.865125,2.955791 0.647563,7.950901 2.896243,9.254483 0.768561,0.445542 -0.0759,0.825159 -0.384299,1.013216 -2.410924,1.470128 -2.9593,6.311425 0.271635,8.818145 1.566681,1.502859 4.674575,0.572066 5.59616,-1.943874 0.218997,-0.597866 0.415225,-1.091933 0.826434,-1.610821 0.379857,0.936115 0.482484,1.534061 0.786279,2.549719 0.38917,1.301086 1.451429,3.269943 3.741517,3.158778 2.619936,-0.261408 4.314418,-2.548128 4.380369,-5.013009 0.146032,-1.33862 -0.574865,-2.767989 -1.198262,-3.914701 4.735167,-3.015196 7.987323,-10.184876 5.703963,-10.435235 -2.726813,-0.298982 -8.049267,1.755929 -12.034882,6.55541 -1.003168,-3.452204 -3.867176,-8.393357 -8.456061,-10.081351 z"
     id="path893"
     sodipodi:nodetypes="sssscscscscscs" />
</svg>
