<svg viewBox="0 0 48 48" xmlns="http://www.w3.org/2000/svg">
    <style>
        .a{fill:none;stroke:#FFFFFF;stroke-linecap:round;stroke-linejoin:round}
    </style>
    <path class="a" d="M26.8303413,21.2856884c2.0420418-0.1148129,3.9118633-0.3608437,5.2240181-0.729887h0.0082016  c0.5904694-0.1640186,1.0743294-0.3608418,1.4023666-0.5822678c0.2132263-0.1394176,0.3690453-0.2952366,0.4510536-0.4592552  c0.4264526-0.8529015,0.0574074-2.7637291-0.7790909-5.0107946c-0.7134857-1.9190283-1.7714119-4.0758839-2.9687538-6.0359173  c-2.0010376-3.2721882-4.3793201-5.9621072-6.175333-5.9621072c-2.0420418,0-4.5433388,2.7637281-6.5607777,6.0933232"/>
    <path class="a" d="M30.1681366,39.3524323c-2.0010376,3.2721901-4.3793201,5.9621086-6.175333,5.9621086  c-2.0338402,0-4.5433388-2.7637291-6.5607777-6.0933228c-1.2055435-1.992836-2.2388668-4.1988983-2.8785429-6.1343269  c-0.7134838-2.1158524-0.9595137-3.9200668-0.4838572-4.7811699c0.1230145-0.2296276,0.3854456-0.4346504,0.7544899-0.6150723  c0,0,0.0082006,0,0.0164013-0.0082016c0.1640196-0.0820103,0.3444414-0.1558189,0.5412645-0.221426l0.0082016-0.0082016  c1.2957525-0.4592533,3.3541975-0.7626896,5.6422701-0.9021072"/>
    <path class="a" d="M39.2712173,17.3820248c3.3295937,2.0174389,6.0933228,4.5269375,6.0933228,6.5607796  c0,1.8288174-2.7965317,4.2645054-6.1507301,6.2901459c-1.9600334,1.1809406-4.1168861,2.2224636-6.0113144,2.9195461  c-2.1732559,0.7872925-4.0102749,1.1317368-4.8467731,0.7134857c-0.1640205-0.0820084-0.3198395-0.2378273-0.4592552-0.4510536  c-0.221426-0.3280373-0.4182491-0.8118973-0.5822697-1.4023666c-0.3690434-1.2875538-0.6068707-3.1081696-0.7216854-5.1010056"/>
    <path class="a" d="M8.5257683,30.1181374c-3.2721887-1.9928379-5.9703093-4.3793201-5.9703093-6.175333  c0-2.0010376,2.6653163-4.4613304,5.9211035-6.4541664c1.9846354-1.2137451,4.1824961-2.2634687,6.1343279-2.9277477  c2.1896601-0.7544899,4.0676832-1.0333223,4.9533873-0.5412645c0.221426,0.1148138,0.418251,0.3608427,0.598671,0.7134848  c0,0.0164022,0.0082016,0.0410051,0.0246029,0.0574074c0.0820103,0.1476173,0.1394176,0.3198376,0.2050247,0.5002594  c-0.0082016,0.0082006,0,0.0246029,0.0164032,0.0410042c0.4756546,1.3203564,0.7790909,3.4362087,0.9185085,5.7816868"/>
    <path class="a" d="M27.9046688,24.1314259c1.5089779,1.3449593,2.9769535,2.4766941,4.1496906,3.1327724h0.0082016  c0.5330658,0.3034363,1.0087204,0.508461,1.4023666,0.5822697c0.2542305,0.0574055,0.4674568,0.0574055,0.6396751,0  c0.8857079-0.2952366,1.9436302-1.837019,2.919548-3.9364681c0.8775024-1.8944244,1.6893997-4.2399025,2.2470665-6.5279751  c0.9021072-3.7232418,1.1153336-7.3152676-0.1558189-8.5864191c-1.4351692-1.4351702-5.1584129-1.2547488-8.9472618-0.3280392"/>
    <path class="a" d="M17.4320259,39.2212181c-3.7232428,0.9021072-7.3152695,1.1153336-8.5864201-0.1558189  c-1.4351702-1.4351692-1.2547488-5.1666145-0.3198376-8.9472618c0.5330629-2.189661,1.328557-4.4121246,2.2060614-6.2081375  c1.016921-2.0830479,2.1486549-3.608429,3.1245708-3.8872604c0.2378283-0.065609,0.5494652-0.0328045,0.9267101,0.09021  c0.0164022,0.0082016,0.0410051,0.0082016,0.0574064,0.0246029c0.1640196,0.0492058,0.3362408,0.1148129,0.5166616,0.2132244  c0.0082006-0.0081997,0.0164022,0,0.0246029,0.0082016c1.2547483,0.5904694,2.9523516,1.8616219,4.6991587,3.4116058"/>
    <path class="a" d="M24.0912151,20.0637436c1.4515724-1.615591,2.6653175-3.1901779,3.3131943-4.4203253  c0,0,0-0.0082006,0.0081997-0.0082006c0.2050247-0.3936462,0.3608437-0.7462883,0.4428539-1.0579252v-0.0082016  c0.0984116-0.3280382,0.1148129-0.5904694,0.0410042-0.8036947c-0.3034363-0.9103088-1.9272289-2.0010376-4.1086884-2.9933558  c-1.8616199-0.8529015-4.1332893-1.6319933-6.3557529-2.1732578c-3.7232428-0.9021072-7.3152695-1.1153326-8.5864201,0.1558189  c-1.4105673,1.4105673-1.2629499,5.0271959-0.3690434,8.7340364"/>
    <path class="a" d="M23.7221718,27.8956738c-1.3859653,1.5745869-2.5423012,3.099968-3.165575,4.2891102  c-0.2132263,0.4018478-0.3690453,0.7708893-0.4428539,1.0825272c-0.0820084,0.2952347-0.0984116,0.5412636-0.0410042,0.7380867  c0.2788334,0.951313,1.7222042,2.0502434,3.7150402,3.0425606c1.8288174,0.9185104,4.11689,1.7386093,6.3803577,2.3044739  c3.7888489,0.926712,7.5120926,1.107132,8.9472618-0.3280373c1.2957535-1.2957535,1.041523-4.9943924,0.0984116-8.7914448"/>
    <circle class="a" cx="23.9928036" cy="23.9838085" r="3.9172735"/>
</svg>
