<svg xmlns="http://www.w3.org/2000/svg" viewBox="0 0 48 48">
    <style>
        .a{fill:none;stroke:#FFFFFF;stroke-linecap:round;stroke-linejoin:round}
    </style>
    <path class="a" d="M14,36.8c3.7,0,7.2,0.6,10,1.6V10.9c-2.9-1-6.3-1.6-10-1.6c-3.7,0-7.2,0.6-10,1.6v27.4C6.8,37.3,10.2,36.8,14,36.8z"/>
    <path class="a" d="M24,38.4c2.9-1,6.3-1.6,10-1.6c3.7,0,7.2,0.6,10,1.6V10.9c-2.9-1-6.3-1.6-10-1.6c-3.7,0-7.2,0.6-10,1.6"/>
    <polyline class="a" points="28.9,24.7 39.1,24.7 34.3,30.5"/>
    <path class="a" d="M32.9,20.8c0.4,0.2,0.9,0.5,1.3,0.9c0.6,0.5,1,1,1.4,1.4"/>
    <path class="a" d="M27.4,22.7c1.2-0.7,2.6-1.6,4.1-2.9c1.2-1.1,2.1-2.1,2.9-3"/>
    <path class="a" d="M40.9,22.5c-1-0.5-2.4-1.2-3.7-2.4c-1.3-1.1-2.3-2.3-2.9-3.2"/>
    <polyline class="a" points="18.6,30.9 14.1,16.8 9.3,30.9"/>
    <line class="a" x1="10.9" y1="26.1" x2="17" y2="26.1"/>
</svg>