<svg xmlns="http://www.w3.org/2000/svg" viewBox="0 0 48 48"><defs><style>.a{fill:none;stroke:#fff;stroke-linecap:round;stroke-linejoin:round;}</style></defs> <path class="a"          d="M10.34,37.45L38.66,37.45L36.30,19.52L28.27,19.52L29.69,30.84L33.94,30.84L24.03,36.50L14.59,30.84L18.84,30.84L20.73,19.52L12.70,19.52L10.34,37.45z"/> <path class="a"          d="M10.34,15.74L21.67,15.74L21.67,3.47L27.33,3.47L27.33,15.74L38.66,15.74L43.38,44.53L5.63,44.53L10.34,15.74z"/> <path class="a"          d="M21.67,11.02L11.89,10.99C8.11,10.99,8.11,4.85,11.89,4.85L21.67,4.89"/> <path class="a"          d="M27.80,11.02L37.11,10.99C40.89,10.99,40.89,4.85,37.11,4.85L27.33,4.89"/> <path class="a"          d="M19.50,29.00L29.50,29.00"/></svg>