<?xml version="1.0" encoding="UTF-8" standalone="no"?>
<svg
   xmlns:dc="http://purl.org/dc/elements/1.1/"
   xmlns:cc="http://creativecommons.org/ns#"
   xmlns:rdf="http://www.w3.org/1999/02/22-rdf-syntax-ns#"
   xmlns:svg="http://www.w3.org/2000/svg"
   xmlns="http://www.w3.org/2000/svg"
   xmlns:sodipodi="http://sodipodi.sourceforge.net/DTD/sodipodi-0.dtd"
   xmlns:inkscape="http://www.inkscape.org/namespaces/inkscape"
   viewBox="0 0 48 48"
   version="1.1"
   id="svg8"
   sodipodi:docname="tricount.svg"
   inkscape:version="0.92.3 (2405546, 2018-03-11)">
  <metadata
     id="metadata12">
    <rdf:RDF>
      <cc:Work
         rdf:about="">
        <dc:format>image/svg+xml</dc:format>
        <dc:type
           rdf:resource="http://purl.org/dc/dcmitype/StillImage" />
      </cc:Work>
    </rdf:RDF>
  </metadata>
  <sodipodi:namedview
     pagecolor="#ffffff"
     bordercolor="#666666"
     borderopacity="1"
     objecttolerance="10"
     gridtolerance="10"
     guidetolerance="10"
     inkscape:pageopacity="0"
     inkscape:pageshadow="2"
     inkscape:window-width="1210"
     inkscape:window-height="661"
     id="namedview10"
     showgrid="false"
     showguides="true"
     inkscape:guide-bbox="true"
     inkscape:zoom="4.9166667"
     inkscape:cx="14.415345"
     inkscape:cy="34.722271"
     inkscape:window-x="0"
     inkscape:window-y="25"
     inkscape:window-maximized="0"
     inkscape:current-layer="svg8" />
  <defs
     id="defs4">
    <style
       id="style2">.a{fill:none;stroke:#fff;stroke-linecap:round;stroke-linejoin:round;}</style>
  </defs>
  <path
     inkscape:connector-curvature="0"
     style="fill:none;fill-opacity:1;stroke:#030303;stroke-width:0.88256145;stroke-opacity:1"
     d="m 29.266053,19.952679 h -4.699199 v -3.943991 h 4.699199 v -4.699197 h 4.612619 l 0.04461,4.657187 4.74112,0.04457 v 3.941343 h -4.78313 v 4.447404 H 29.266009 Z M 7.8683509,16.008688 H 21.965505 v 3.943991 H 7.8683509 Z m 4.3546351,-4.720552 0.05085,3.33599 m 0,7.006727 5.03e-4,3.608264 c 2.51e-4,2.498884 0.03264,4.075404 0.144722,5.190873 0.112085,1.11547 0.307732,1.776332 0.628207,2.411246 0.685945,1.35888 2.033863,2.177015 3.928546,2.413806 l 0.0017,1.67e-4 0.0075,9.71e-4 h 0.009 c 1.573607,0.177157 3.721055,0.0081 5.373298,-0.52004 l 0.102104,-0.03278 m 6.481106,-8.713109 0.04605,2.439047 c 0.03612,1.90951 0.07298,2.428456 0.219617,3.052692 0.267354,1.138063 0.746294,2.009327 1.486851,2.631357 0.740558,0.621985 1.733351,0.990145 3.012712,1.155802 l 0.0011,1.68e-4 h 0.0011 c 1.582432,0.180616 3.70967,-0.06231 5.259889,-0.50742 l 0.106208,-0.03048"
     id="path2"
     sodipodi:nodetypes="ccccccccccccccccccccccccccccccccccccccc" />
</svg>
