<svg xmlns="http://www.w3.org/2000/svg" viewBox="0 0 48 48"><defs><style>.a{fill:none;stroke:#fff;stroke-linecap:round;stroke-linejoin:round;}</style></defs><circle class="a" cx="24" cy="24" r="21.5"/><path class="a" d="M24.7479,11.5838l2.972,6.0226a3.2145,3.2145,0,0,0,2.42,1.7585l6.6459.9657a.8341.8341,0,0,1,.4622,1.4226l-4.8091,4.688a3.215,3.215,0,0,0-.9244,2.8453l1.1353,6.62a.834.834,0,0,1-1.21.8793L25.4956,33.66a3.2139,3.2139,0,0,0-2.9913,0L16.56,36.7854a.834.834,0,0,1-1.21-.8793l1.1353-6.62a3.215,3.215,0,0,0-.9244-2.8453l-4.8091-4.688a.8341.8341,0,0,1,.4622-1.4226l6.6459-.9657a3.2142,3.2142,0,0,0,2.42-1.7585l2.9721-6.0226a.8338.8338,0,0,1,1.4956,0Z"/></svg>