<?xml version="1.0" encoding="UTF-8"?>
<svg id="a" version="1.1" viewBox="0 0 48 48" xmlns="http://www.w3.org/2000/svg"><defs><style>.b{fill:none;stroke:#fff;stroke-linecap:round;stroke-linejoin:round;}.c{fill:#fff;stroke-width:0px;}</style></defs><path class="b" d="m21.723 21.4v-8h2.6c1.5 0 2.7 1.2 2.7 2.7s-1.2 2.7-2.7 2.7h-2.6"/><line class="b" x1="24.421" x2="26.923" y1="18.798" y2="21.3"/><line class="b" x1="14.49" x2="19.69" y1="13.4" y2="13.4"/><line class="b" x1="17.09" x2="17.09" y1="21.4" y2="13.4"/><line class="b" x1="28.31" x2="33.51" y1="13.4" y2="13.4"/><line class="b" x1="30.91" x2="30.91" y1="21.4" y2="13.4"/><path class="a" d="m40.5 5.5h-33a2 2 0 0 0-2 2v33a2 2 0 0 0 2 2h33a2 2 0 0 0 2-2v-33a2 2 0 0 0-2-2z" fill="none" stroke="#fff" stroke-linecap="round" stroke-linejoin="round"/><g transform="translate(-140.17 -14.1)"><polyline class="st5" points="164 40.7 164 48.7 168 48.7" fill="none" stroke="#fff" stroke-linecap="round" stroke-linejoin="round" stroke-miterlimit="10"/></g><g transform="translate(-122.29 -14.1)"><line class="st5" x1="136" x2="136" y1="40.7" y2="48.7" fill="none" stroke="#fff" stroke-linecap="round" stroke-linejoin="round" stroke-miterlimit="10"/></g><polyline class="st5" transform="translate(-287.23 -14.1)" points="303.4 40.7 308.6 40.7 303.4 48.7 308.6 48.7" fill="none" stroke="#fff" stroke-linecap="round" stroke-linejoin="round" stroke-miterlimit="10"/><g transform="translate(-63.71 -14.1)" fill="none" stroke="#fff" stroke-linecap="round" stroke-linejoin="round" stroke-miterlimit="10"><line class="st5" x1="94" x2="96.6" y1="44.7" y2="44.7"/><polyline class="st5" points="98 48.7 94 48.7 94 40.7 98 40.7"/></g></svg>
