<svg xmlns="http://www.w3.org/2000/svg" xml:space="preserve" id="svg990" width="48" height="48" version="1.1"><defs id="defs987"><style id="style1174">.a{fill:none;stroke:#fff;stroke-linecap:round;stroke-linejoin:round}</style></defs><path id="path3162" d="m18.048 5.553-12.277 6.04m36.497 26.645-7.556 4.073m7.612-7.124-13.568 7.192m1.418-4.33c3.125.873 6.691-2.915 4.32-6.065m-2.133 2.331c-.799 3.586-4.597 4.929-6.716 5.007m8.33-9.694c.656 1.503.096 5.82-3.518 4.112m.32-1.545 4.326-3.737c1.492.059 2.813-1.002 1.543-1.751 1.223-2.36 3.502-3.905 5.588-5.598m.107-2.942c-.618 1.203-1.797 2.171-2.776 2.938-3.372 2.495-6.356 6.337-9.593 9.576m-1.177 4.549c4.92-4.159-.995-6.546-3.699-4.241m5.849-4.973c.372-.044.58-.014.883-.367m-6.896-1.427.256 1.2M12.71 35.127c-4.252.76-3.592-4.19-.841-3.697m6.84 8.494c-2.514-.245-8.152-2.994-6.461-13.031m12.388 8.027c-.712-.806-3.521-1.049-5.36 2.092-1.431 2.446.533 6.582 5.13 3.508 1.17-.784 2.047-3.543.23-5.6zM5.497 21.483c2.544.895 5.583 2.26 8.761.34m-1.46 4.495c-3.029 2.962-6.695 1.977-6.995 1.833m19.805 2.479c-7.926 1.889-11.633-1.765-13.113-5.257.729-2.55 1.294-2.773 2.132-3.98m5.578-7.554c7.818-4.402 16.085 7.075 12.649 13.763-1.515 1.488-3.192 2.257-4.931 2.499m-1.13.085c-2.072.03-4.202-.613-6.228-1.614-4.24-1.297-7.255-6.764-5.204-10.878m7.682-4.885c-3.097-2.943-1.587-5.737.3-6.136 3.202-.678 6.833 7.626 6.617 8.58M14.007 12.48c2.566 1.375 4.06 3.54 5.038 5.288m-1.848 1.516c-.442-1.227-8.027-5.407-4.326-8.933 2.882-2.745 8.322 4.868 8.96 7.022M40.5 5.5h-33a2 2 0 0 0-2 2v33a2 2 0 0 0 2 2h33a2 2 0 0 0 2-2v-33a2 2 0 0 0-2-2z" style="fill:none;stroke:#fff;stroke-width:1;stroke-linecap:round;stroke-linejoin:round;stroke-dasharray:none;stroke-opacity:1;stop-color:#000"/></svg>