<?xml version="1.0" encoding="UTF-8" standalone="no"?>
<!-- Created with Inkscape (http://www.inkscape.org/) -->

<svg
   width="48"
   height="48"
   viewBox="0 0 48 48"
   version="1.1"
   id="svg5"
   inkscape:version="1.1.1 (3bf5ae0d25, 2021-09-20)"
   sodipodi:docname="tsumugi.svg"
   xmlns:inkscape="http://www.inkscape.org/namespaces/inkscape"
   xmlns:sodipodi="http://sodipodi.sourceforge.net/DTD/sodipodi-0.dtd"
   xmlns="http://www.w3.org/2000/svg"
   xmlns:svg="http://www.w3.org/2000/svg">
  <sodipodi:namedview
     id="namedview7"
     pagecolor="#505050"
     bordercolor="#eeeeee"
     borderopacity="1"
     inkscape:pageshadow="0"
     inkscape:pageopacity="0"
     inkscape:pagecheckerboard="0"
     inkscape:document-units="px"
     showgrid="false"
     units="px"
     inkscape:snap-intersection-paths="true"
     inkscape:object-paths="true"
     inkscape:zoom="5.6568543"
     inkscape:cx="-1.3258252"
     inkscape:cy="12.639534"
     inkscape:window-width="1914"
     inkscape:window-height="1055"
     inkscape:window-x="0"
     inkscape:window-y="19"
     inkscape:window-maximized="1"
     inkscape:current-layer="layer1" />
  <defs
     id="defs2">
    <style
       id="style2918">.a{fill:none;stroke:#fff;stroke-linecap:round;stroke-linejoin:round;}</style>
  </defs>
  <g
     inkscape:label="Layer 1"
     inkscape:groupmode="layer"
     id="layer1">
    <circle
       style="fill:none;stroke:#ffffff;stroke-width:1;stroke-linecap:round;stroke-linejoin:round;paint-order:markers fill stroke;stop-color:#000000;stroke-miterlimit:4;stroke-dasharray:none"
       id="path855"
       cx="37.849617"
       cy="19.156281"
       r="4.99547" />
    <circle
       style="fill:none;stroke:#ffffff;stroke-width:1;stroke-linecap:round;stroke-linejoin:round;stroke-miterlimit:4;stroke-dasharray:none;paint-order:markers fill stroke;stop-color:#000000"
       id="path879"
       cx="36.88102"
       cy="21.513927"
       r="1.0298108" />
    <path
       style="fill:none;stroke:#ffffff;stroke-width:1;stroke-linecap:round;stroke-linejoin:round;stroke-opacity:1;stroke-miterlimit:4;stroke-dasharray:none"
       d="M 37.91083,21.513927 V 15.94799 c 0,0 2.65941,1.64166 2.65941,2.65941 0,1.017751 -0.974172,1.571694 -0.974172,1.571694"
       id="path1128" />
    <path
       style="fill:none;stroke:#ffffff;stroke-width:1;stroke-linecap:round;stroke-linejoin:round;stroke-opacity:1;stroke-miterlimit:4;stroke-dasharray:none"
       d="m 11.412937,34.1599 c 0,0 4.327512,0.0043 4.327512,-4.327511 0,-4.331743 -1.743317,-7.093936 -3.820502,-7.093936"
       id="path1379" />
    <path
       style="fill:none;stroke:#ffffff;stroke-width:1;stroke-linecap:round;stroke-linejoin:round;stroke-opacity:1;stroke-miterlimit:4;stroke-dasharray:none"
       d="m 11.919947,22.738453 c 0,0 0.257144,-2.41193 -1.319353,-2.41193 -1.5764978,0 -1.2500896,2.574871 -1.2500896,2.574871 0,0 -3.6942233,0.383967 -2.952175,6.147404 0.7420483,5.763437 5.0146076,5.111102 5.0146076,5.111102"
       id="path1383" />
    <path
       style="fill:none;stroke:#ffffff;stroke-width:1;stroke-linecap:round;stroke-linejoin:round;stroke-opacity:1;stroke-miterlimit:4;stroke-dasharray:none"
       d="m 10.602804,20.326525 c 0,0 -0.07496,-0.944469 0.106103,-2.593107"
       id="path1385" />
    <path
       style="fill:none;stroke:#ffffff;stroke-width:1;stroke-linecap:round;stroke-linejoin:round;stroke-opacity:1;stroke-miterlimit:4;stroke-dasharray:none"
       d="m 9.2481352,16.87537 c 0,0 -0.1954054,0.858048 1.4607718,0.858048 1.656178,0 2.147601,-0.05565 2.211796,-0.593045 0.06419,-0.537394 0.311463,-2.176687 -0.17006,-2.176687 -0.481524,0 1.321935,-4.43422 2.617436,-5.7633867 1.295502,-1.3291666 2.41858,-2.3933282 4.277106,-2.4194803 1.858526,-0.026152 -3.160623,-1.4462583 -5.235379,-0.098183 -2.074755,1.3480751 -3.386044,3.610223 -3.570288,4.055921 -0.184244,0.445698 -0.9197543,2.427022 -0.9894021,2.798242 -0.069648,0.37122 -0.1776091,1.392471 -0.1776091,1.392471 0,0 -0.4540571,-0.373492 -0.4243716,1.9461 z"
       id="path1387" />
    <path
       style="fill:none;stroke:#ffffff;stroke-width:1;stroke-linecap:round;stroke-linejoin:round;stroke-miterlimit:4;stroke-dasharray:none;stroke-opacity:1"
       d="m 12.332864,34.047008 c 0,0 -1.47785,1.439003 -1.073585,7.273063"
       id="path1422"
       sodipodi:nodetypes="cc" />
    <path
       style="fill:none;stroke:#ffffff;stroke-width:1;stroke-linecap:round;stroke-linejoin:round;stroke-miterlimit:4;stroke-dasharray:none;stroke-opacity:1"
       d="m 13.316109,33.740775 c 0,0 -0.788265,5.677654 0.743425,9.328224"
       id="path1424"
       sodipodi:nodetypes="cc" />
    <path
       style="fill:none;stroke:#ffffff;stroke-width:1;stroke-linecap:round;stroke-linejoin:round;stroke-opacity:1;stroke-miterlimit:4;stroke-dasharray:none"
       d="m 21.458503,45.058336 c 0,0 -1.692015,-5.076539 -1.692015,-8.974476 0,-3.897938 -2.589661,-9.555957 -4.513781,-9.883344"
       id="path1428" />
    <path
       style="fill:none;stroke:#ffffff;stroke-width:1;stroke-linecap:round;stroke-linejoin:round;stroke-miterlimit:4;stroke-dasharray:none;stroke-opacity:1"
       d="M 16.825058,24.968777 C 15.530953,23.267084 11.939125,18.424579 16.646156,11.433683"
       id="path1430"
       sodipodi:nodetypes="cc" />
    <path
       style="fill:none;stroke:#ffffff;stroke-width:1;stroke-linecap:round;stroke-linejoin:round;stroke-opacity:1;stroke-miterlimit:4;stroke-dasharray:none"
       d="m 20.046904,6.7025525 c 0,0 3.716869,-0.3067064 7.395959,3.2661293 3.679089,3.5728362 1.489745,13.7673942 1.489745,13.7673942 0,0 1.869396,-10.58529 -7.151257,-14.4262342"
       id="path1432" />
    <path
       style="fill:none;stroke:#ffffff;stroke-width:1;stroke-linecap:round;stroke-linejoin:round;stroke-opacity:1;stroke-miterlimit:4;stroke-dasharray:none"
       d="m 21.781351,9.3098418 c 0,0 4.837582,2.1004592 2.086156,14.7754092"
       id="path1434" />
    <path
       style="fill:none;stroke:#ffffff;stroke-width:1;stroke-linecap:round;stroke-linejoin:round;stroke-miterlimit:4;stroke-dasharray:none;stroke-opacity:1"
       d="m 23.867507,24.085251 v 0 c 0,0 -0.937575,-6.011503 -1.924892,-7.094268 M 19.196994,9.4408045 c 0,0 0.952958,9.6710335 -3.684201,12.1208565"
       id="path1436"
       sodipodi:nodetypes="ccccc" />
    <path
       style="fill:none;stroke:#ffffff;stroke-width:1;stroke-linecap:round;stroke-linejoin:round;stroke-miterlimit:4;stroke-dasharray:none;stroke-opacity:1"
       d="m 33.938268,43.065173 c 0,0 -0.223663,-2.218111 0.214333,-3.075917 0.437994,-0.857807 -0.331896,-8.018528 -0.567164,-8.869402 -0.235268,-0.850875 -0.0222,-2.113796 1.055981,-0.902579 1.078176,1.211216 1.759372,7.895793 1.759372,7.895793"
       id="path1438"
       sodipodi:nodetypes="csssc" />
    <path
       style="fill:none;stroke:#ffffff;stroke-width:1;stroke-linecap:round;stroke-linejoin:round;stroke-opacity:1;stroke-miterlimit:4;stroke-dasharray:none"
       d="m 34.356227,41.767684 c 0,0 0.649957,-0.20725 0.727774,-1.224623 0.07782,-1.017371 1.992613,-2.360256 1.992613,-2.831123 0,-0.470867 -0.166725,-1.146129 0.1558,-1.108045 0.322524,0.03808 1.347041,0.430883 0.733696,2.804829"
       id="path1440" />
    <path
       style="fill:none;stroke:#ffffff;stroke-width:1;stroke-linecap:round;stroke-linejoin:round;stroke-opacity:1;stroke-miterlimit:4;stroke-dasharray:none"
       d="m 36.917255,36.210109 c 0,0 0.959563,-1.020763 1.370724,-0.982679 0.411161,0.03808 1.338887,2.88052 1.338887,2.88052"
       id="path1442" />
    <path
       style="fill:none;stroke:#ffffff;stroke-width:1;stroke-linecap:round;stroke-linejoin:round;stroke-miterlimit:4;stroke-dasharray:none;stroke-opacity:1"
       d="m 39.130575,36.730046 c 0,0 1.005036,-0.949517 2.031243,0.222715"
       id="path1444"
       sodipodi:nodetypes="cc" />
    <path
       style="fill:none;stroke:#ffffff;stroke-width:1;stroke-linecap:round;stroke-linejoin:round;stroke-opacity:1;stroke-miterlimit:4;stroke-dasharray:none"
       d="m 36.147111,36.066438 c 0,0 1.921569,-2.492265 -0.741482,-7.401387 -2.66305,-4.909121 -5.668891,-9.845821 -5.835848,-11.941415"
       id="path1446" />
    <path
       style="fill:none;stroke:#ffffff;stroke-width:1;stroke-linecap:round;stroke-linejoin:round;stroke-miterlimit:4;stroke-dasharray:none;stroke-opacity:1"
       d="m 29.507565,19.401148 c 0,0 2.64474,4.2427 2.928171,12.28334 0.215554,6.115046 0.344415,9.664625 0.814966,11.746565"
       id="path1448"
       sodipodi:nodetypes="csc" />
    <path
       style="fill:none;stroke:#ffffff;stroke-width:1;stroke-linecap:round;stroke-linejoin:round;stroke-miterlimit:4;stroke-dasharray:none;stroke-opacity:1"
       d="m 27.992371,22.695169 c -0.304673,0.875006 3.144681,2.169833 2.542937,5.974401 -0.601744,3.804569 -2.194184,6.953423 -2.194184,6.953423 l -5.871078,-0.365729 c 0,0 -2.515071,3.664623 -2.269945,4.858847"
       id="path1450"
       sodipodi:nodetypes="csccc" />
    <path
       style="fill:none;stroke:#ffffff;stroke-width:1;stroke-linecap:round;stroke-linejoin:round;stroke-miterlimit:4;stroke-dasharray:none;stroke-opacity:1"
       d="m 26.048242,35.480161 c 0,0 2.770618,6.863381 4.553028,8.974947"
       id="path1454"
       sodipodi:nodetypes="cc" />
    <path
       style="fill:none;stroke:#ffffff;stroke-width:1;stroke-linecap:round;stroke-linejoin:round;stroke-opacity:1;stroke-miterlimit:4;stroke-dasharray:none"
       d="m 23.77515,35.338563 c 0,0 4.07398,6.926783 4.141344,9.545183"
       id="path1456" />
    <path
       style="fill:none;stroke:#ffffff;stroke-width:1;stroke-linecap:round;stroke-linejoin:round;stroke-miterlimit:4;stroke-dasharray:none;stroke-opacity:1"
       d="m 19.244285,44.891938 c 0,0 -1.484901,-3.247751 -1.907103,-4.839413 -0.300785,-1.133933 -0.132031,2.123868 0.170341,4.344036"
       id="path1460"
       sodipodi:nodetypes="csc" />
    <path
       style="fill:none;stroke:#ffffff;stroke-width:1;stroke-linecap:round;stroke-linejoin:round;stroke-opacity:1;stroke-miterlimit:4;stroke-dasharray:none"
       d="m 4.7796182,21.490229 c 0,0 1.9717951,-8.554779 3.1481972,-9.775501"
       id="path1462"
       sodipodi:nodetypes="cc" />
    <path
       style="fill:none;stroke:#ffffff;stroke-width:1;stroke-linecap:round;stroke-linejoin:round;stroke-opacity:1;stroke-miterlimit:4;stroke-dasharray:none"
       d="m 18.718304,27.545488 c 0,0 -1.572029,-1.383131 -0.07189,-3.492723 1.500135,-2.109592 3.672673,-0.429962 3.672673,-0.429962"
       id="path1464" />
    <path
       style="fill:none;stroke:#ffffff;stroke-width:1;stroke-linecap:round;stroke-linejoin:round;stroke-opacity:1;stroke-miterlimit:4;stroke-dasharray:none"
       d="m 28.163518,21.065478 c 0,0 -1.322796,-1.816417 -2.087139,1.196516"
       id="path1466" />
    <path
       style="fill:none;stroke:#ffffff;stroke-width:1;stroke-linecap:round;stroke-linejoin:round;stroke-miterlimit:4;stroke-dasharray:none;stroke-opacity:1"
       d="m 20.519456,28.067712 c 0.507896,-0.05079 1.226327,-0.267156 1.690291,-1.023798"
       id="path1468"
       sodipodi:nodetypes="cc" />
    <path
       style="fill:none;stroke:#ffffff;stroke-width:1;stroke-linecap:round;stroke-linejoin:round;stroke-opacity:1;stroke-miterlimit:4;stroke-dasharray:none"
       d="m 28.069084,26.582733 c 0,0 0.134063,-1.109783 -0.108667,-1.109783 -0.242732,0 -1.698685,-0.942281 -1.698685,-0.942281"
       id="path1470" />
    <path
       style="fill:none;stroke:#ffffff;stroke-width:1;stroke-linecap:round;stroke-linejoin:round;stroke-miterlimit:4;stroke-dasharray:none;stroke-opacity:1"
       d="m 28.732366,29.396649 c -0.06788,0.103234 -1.058064,1.321924 -1.058064,1.321924 l 0.933435,0.236368"
       id="path1472"
       sodipodi:nodetypes="ccc" />
    <path
       style="fill:none;stroke:#ffffff;stroke-width:1;stroke-linecap:round;stroke-linejoin:round;stroke-miterlimit:4;stroke-dasharray:none;stroke-opacity:1"
       d="m 13.889888,7.0503629 c 0,0 -1.472766,-0.2561246 -3.568488,0.430193"
       id="path1881"
       sodipodi:nodetypes="cc" />
    <path
       id="path2183"
       style="fill:#ffffff;stroke:#ffffff;stroke-width:0.49365;stroke-linecap:round;stroke-linejoin:round;paint-order:markers fill stroke;stop-color:#000000"
       d="M 20.767785,25.104025 A 0.50317503,0.50317503 0 0 1 20.26461,25.6072 0.50317503,0.50317503 0 0 1 19.761435,25.104025 0.50317503,0.50317503 0 0 1 20.26461,24.60085 a 0.50317503,0.50317503 0 0 1 0.503175,0.503175 z" />
    <path
       id="circle2922"
       class="a"
       style="fill:none;stroke:#ffffff;stroke-linecap:round;stroke-linejoin:round"
       d="M 41.161818,36.952761 C 37.236964,42.144862 31.010299,45.5 24,45.5 12.125878,45.5 2.5,35.874122 2.5,24 2.5,17.492037 5.3915283,11.659427 9.9599445,7.7168099"
       sodipodi:nodetypes="cssc" />
  </g>
</svg>
