<svg width="48" height="48" xmlns="http://www.w3.org/2000/svg" xmlns:svg="http://www.w3.org/2000/svg" enable-background="new 0 0 48.0 48.0" version="1.1" xml:space="preserve">

 <g class="layer">
  <title>Layer 1</title>
  <path d="m15,22.13l19.43,0a2.25,2.25 0 0 1 2.25,2.25l0,13.49a2.25,2.25 0 0 1 -2.25,2.25l-19.43,0a2.25,2.25 0 0 1 -2.25,-2.25l0,-13.49a2.25,2.25 0 0 1 2.25,-2.25z" fill="#000000" fill-opacity="0" fill-rule="nonzero" id="svg_1" stroke="#FFFFFF" stroke-linecap="round" stroke-linejoin="round" stroke-opacity="1" stroke-width="1"/>
  <path d="m22.72,36.13l3,-10" fill="#000000" fill-opacity="0" fill-rule="nonzero" id="svg_2" stroke="#FFFFFF" stroke-linecap="round" stroke-linejoin="round" stroke-opacity="1" stroke-width="1"/>
  <path d="m20.72,27.13l-4,4l4,4" fill="#000000" fill-opacity="0" fill-rule="nonzero" id="svg_3" stroke="#FFFFFF" stroke-linecap="round" stroke-linejoin="round" stroke-opacity="1" stroke-width="1"/>
  <path d="m27.72,35.13l5,-4l-5,-4" fill="#000000" fill-opacity="0" fill-rule="nonzero" id="svg_4" stroke="#FFFFFF" stroke-linecap="round" stroke-linejoin="round" stroke-opacity="1" stroke-width="1"/>
  <path d="m12.67,28.73a1.4,1.4 270 1 1 0,-2.79" fill="#000000" fill-opacity="0" fill-rule="nonzero" id="svg_5" stroke="#FFFFFF" stroke-linecap="round" stroke-linejoin="round" stroke-opacity="1" stroke-width="1"/>
  <path d="m18.72,22.13l0,-3" fill="#000000" fill-opacity="0" fill-rule="nonzero" id="svg_6" stroke="#FFFFFF" stroke-linecap="round" stroke-linejoin="round" stroke-opacity="1" stroke-width="1"/>
  <path d="m30.72,22.09l0,-8.96c0,-7 -12,-7 -12,0l0,2" fill="#000000" fill-opacity="0" fill-rule="nonzero" id="svg_7" stroke="#FFFFFF" stroke-linecap="round" stroke-linejoin="round" stroke-opacity="1" stroke-width="1"/>
 </g>
</svg>