<svg xmlns="http://www.w3.org/2000/svg" xml:space="preserve" id="svg990" width="48" height="48" version="1.1"><defs id="defs987"><style id="style1174">.a{fill:none;stroke:#fff;stroke-linecap:round;stroke-linejoin:round}</style></defs><path id="path15983" d="M11.95 18.37v11.37c0 3.951 3.775 5.481 6.54 5.475V18.37m4.993-5.585v13.349a9.062 9.062 0 0 0 9.082 9.081h1.853a9.062 9.062 0 0 0 9.082-9.081V17.7c0-2.41-1.662-4.915-6.279-4.915v12.643c0 2.071-1.61 3.74-3.61 3.74h-.239c-2 0-3.61-1.669-3.61-3.74V17.7c0-2.41-1.737-4.915-6.324-4.915m.044 5.472H9.976c-3.952 0-5.482-2.706-5.476-5.472h18.983" style="fill:none;stroke:#fff;stroke-width:1;stroke-linecap:round;stroke-linejoin:round;stroke-dasharray:none;stroke-opacity:1;stop-color:#000"/></svg>