<svg xmlns="http://www.w3.org/2000/svg" viewBox="0 0 48 48"><path d="m32.901 16.519.282-.883m2.255-7.062.282-.882m-.788 4.636-2.858-.957m2.838.937c.944.319 1.463 1.374 1.153 2.345-.31.97-1.336 1.504-2.28 1.186l-2.834-.956 2.254-7.062 2.834.956c.944.319 1.463 1.374 1.153 2.345-.31.97-1.336 1.505-2.28 1.186zm5.81-.203a6.605 6.605 0 0 1-6.606 6.605 6.605 6.605 0 0 1-6.605-6.605A6.605 6.605 0 0 1 34.116 5.5a6.605 6.605 0 0 1 6.606 6.605zM16.168 18.49c-.615-2.643-1.903-5.735-4.372-8.761l8.02-1.657c.66 1.265 1.419 2.82 1.612 3.764m4.512 9.62c.148-1.506.988-3.634 2.197-6.29m-.624-4.397-5.1-1.102-1.298 3.083m-3.024 6.69a3.005 3.005 0 0 1 5.544 2.318m-6.79-2.963v-5.898h8.26v8.733m-9.64 3.029-3.783-5.035c1.732-2.574 4.17-1.33 6.556 0 2.335 1.3 4.49 3.04 7.59 2.016 2.846-.94 3.41-2.036 5.068-3.058l-4.012 5.765m-11.51.31h11.514v2.27H15.375zm11.514 2.27c1.292 1.097 2.074.908 4.38 2.88 6.178 5.282 4.235 12.41-10.137 12.694-14.372-.283-16.86-7.453-10.682-12.736 2.306-1.972 3.512-1.745 4.926-2.839" style="fill:none;stroke-linecap:round;stroke-linejoin:round;stroke:#fff;stroke-opacity:1"/></svg>