<?xml version="1.0" encoding="UTF-8"?>
<!-- Created with Inkscape (http://www.inkscape.org/) -->
<svg width="48" height="48" version="1.1" viewBox="0 0 12.7 12.7" xml:space="preserve" xmlns="http://www.w3.org/2000/svg"><defs><style>.a{fill:none;stroke:#fff;stroke-linecap:round;stroke-linejoin:round;}</style><style>.a{fill:none;stroke:#fff;stroke-linecap:round;stroke-linejoin:round;}</style><style>.a{fill:none;stroke:#fff;stroke-linecap:round;stroke-linejoin:round;}</style><style>.a{fill:none;stroke:#fff;stroke-linecap:round;stroke-linejoin:round;}</style></defs><g fill="none" stroke="#fff" stroke-linecap="round" stroke-linejoin="round"><path d="m3.3189 2.2211v6.8755c0.20764 1.624 1.8408 2.2561 3.0203 2.4064 1.7938 0.0791 3.2371-0.52793 3.0203-0.68755l-1.5101-1.547c-0.55142 0.30762-1.2216 0.59134-1.9416-0.17189v-4.1253h2.1573v-1.8908h-2.1573v-1.8908z" stroke-width=".26456"/><path d="m-9.673 9.7949c-0.69912-4.71e-4 -1.3449-0.35248-1.694-0.92339-0.34915-0.57091-0.34865-1.274 0.0013-1.8445 0.34996-0.57044 0.9962-0.92155 1.6953-0.92108l3.9495 0.00595c1.1936 3.26e-4 2.2967-0.63036 2.8937-1.6545 0.5971-1.0242 0.59746-2.2861 9.4e-4 -3.3106-0.59649-1.0245-1.6993-1.6558-2.8928-1.6561l-3.7724-0.01514c-0.69912-4.821e-4 -1.3454 0.35061-1.6953 0.92108-0.34996 0.57044-0.35044 1.2736-0.0013 1.8445 0.34916 0.57091 0.99491 0.92292 1.694 0.92339l5.146-0.00375c1.2157 3.547e-4 2.3389 0.63187 2.9465 1.6567 0.60758 1.0248 0.60722 2.2873-9.02e-4 3.3118-0.60815 1.0245-1.7317 1.6554-2.9474 1.655z" stroke-width=".26457"/></g></svg>
