<?xml version="1.0" encoding="UTF-8"?>
<svg version="1.1" viewBox="0 0 48 48" xmlns="http://www.w3.org/2000/svg">
 <defs>
  <style>.a{fill:none;stroke:#fff;stroke-linecap:round;stroke-linejoin:round;}</style>
 </defs>
 <rect x="5.49616" y="9.44356" width="37.0077" height="25.2325" rx="1.68217" ry="1.68217" style="fill:none;stroke-linecap:round;stroke-linejoin:round;stroke:#ffffff"/>
 <path d="m15.0999 38.5564h17.8001" style="fill:none;font-variation-settings:normal;stop-color:#000000;stroke-linecap:round;stroke-linejoin:round;stroke:#ffffff"/>
 <line class="a" x1="23.46" x2="23.46" y1="18.0998" y2="26.0198" style="fill:none;stroke-linecap:round;stroke-linejoin:round;stroke:#ffffff"/>
 <line class="a" x1="10" x2="13.96" y1="18.0998" y2="18.0998" style="fill:none;stroke-linecap:round;stroke-linejoin:round;stroke:#ffffff"/>
 <line class="a" x1="10" x2="12.57" y1="22.0598" y2="22.0598" style="fill:none;stroke-linecap:round;stroke-linejoin:round;stroke:#ffffff"/>
 <line class="a" x1="10" x2="10" y1="18.0998" y2="26.0198" style="fill:none;stroke-linecap:round;stroke-linejoin:round;stroke:#ffffff"/>
 <path class="a" d="m16.08 26.0198v-7.92h2.59a2.66 2.66 0 0 1 0 5.32h-2.59" style="fill:none;stroke-linecap:round;stroke-linejoin:round;stroke:#ffffff"/>
 <line class="a" x1="18.67" x2="21.26" y1="23.4198" y2="26.0198" style="fill:none;stroke-linecap:round;stroke-linejoin:round;stroke:#ffffff"/>
 <line class="a" x1="25.61" x2="30.85" y1="18.0998" y2="18.0998" style="fill:none;stroke-linecap:round;stroke-linejoin:round;stroke:#ffffff"/>
 <line class="a" x1="28.23" x2="28.23" y1="26.0198" y2="18.0998" style="fill:none;stroke-linecap:round;stroke-linejoin:round;stroke:#ffffff"/>
 <polyline class="a" transform="translate(-2.92268e-6 7.30982)" points="32.76 10.79 38 10.79 32.76 18.71 38 18.71" style="fill:none;stroke-linecap:round;stroke-linejoin:round;stroke:#ffffff"/>
</svg>
