<?xml version="1.0" encoding="UTF-8"?>
<svg id="a" version="1.1" viewBox="0 0 48 48" xml:space="preserve" xmlns="http://www.w3.org/2000/svg"><defs><style>.b{fill:none;stroke:#000;stroke-linecap:round;stroke-linejoin:round;}</style><style>.a{fill:none;stroke:#fff;stroke-linecap:round;stroke-linejoin:round;}</style><style>.a{fill:none;stroke:#fff;stroke-linecap:round;stroke-linejoin:round;}</style></defs><path class="a" d="m40.5 5.5h-33a2 2 0 0 0-2 2v33a2 2 0 0 0 2 2h33a2 2 0 0 0 2-2v-33a2 2 0 0 0-2-2z"/><g transform="translate(-231.39 -20.7)" fill="none" stroke="#fff" stroke-linecap="round" stroke-linejoin="round" stroke-miterlimit="10">
		<line class="st5" x1="243.4" x2="248.6" y1="40.7" y2="40.7"/>
		<line class="st5" x1="246" x2="246" y1="48.7" y2="40.7"/>
	</g><g transform="translate(-243.39 -20.7)">
		<polyline class="st5" points="268.6 40.7 266 48.7 263.4 40.7" fill="none" stroke="#fff" stroke-linecap="round" stroke-linejoin="round" stroke-miterlimit="10"/>
	</g><g transform="translate(-102.71 -4.6001)" fill="none" stroke="#fff" stroke-linecap="round" stroke-linejoin="round" stroke-miterlimit="10">
		<path class="st5" d="m135.3 28.6c-1.1 0-2 0.9-2 2s0.9 2 2 2h1.3c1.1 0 2-0.9 2-2s-0.9-2-2-2"/>
		<path class="st5" d="m136.7 28.6"/>
		<path class="st5" d="m136.7 28.6c1.1 0 2-0.9 2-2s-0.9-2-2-2h-1.3c-1.1 0-2 0.9-2 2s0.9 2 2 2"/>
		<line class="st5" x1="135.3" x2="136.7" y1="28.6" y2="28.6"/>
	</g></svg>
