<?xml version="1.0" encoding="UTF-8" standalone="no"?>
<svg
   viewBox="0 0 48 48"
   version="1.1"
   id="svg8"
   xmlns="http://www.w3.org/2000/svg"
   xmlns:svg="http://www.w3.org/2000/svg">
  <defs
     id="defs4">
    <style
       id="style2">.a{fill:none;stroke:#fff;stroke-linecap:round;stroke-linejoin:round;}</style>
  </defs>
  <path
     id="path2658"
     style="color:#000000;fill:#ffffff;stroke-linecap:round;stroke-linejoin:round;-inkscape-stroke:none"
     d="M 10.404297 2.3925781 C 8.9996474 2.4893976 7.9988288 3.9106738 7.9863281 5.3085938 C 6.1297298 15.947364 4.2394765 26.582645 2.4042969 37.224609 C 2.2276797 38.953265 3.8967604 39.989243 5.4296875 40.033203 C 16.028336 41.882767 26.622766 43.767558 37.224609 45.595703 C 38.953266 45.77232 39.989243 44.10324 40.033203 42.570312 C 41.882767 31.971664 43.767558 21.377234 45.595703 10.775391 C 45.77232 9.0467349 44.10324 8.0107568 42.570312 7.9667969 L 11.029297 2.4355469 C 10.813818 2.3913244 10.604961 2.3787468 10.404297 2.3925781 z M 10.558594 3.3945312 C 10.657219 3.3924416 10.756426 3.4018612 10.855469 3.421875 L 43.359375 9.1191406 C 44.889889 9.3845016 44.622268 11.072885 44.345703 12.179688 L 38.880859 43.359375 C 38.615499 44.889889 36.927115 44.622268 35.820312 44.345703 L 4.640625 38.880859 C 3.1101104 38.615499 3.3777318 36.927115 3.6542969 35.820312 L 9.1191406 4.640625 C 9.2230935 3.9413851 9.8682163 3.4091591 10.558594 3.3945312 z " />
  <path
     class="cls-2"
     d="m 17.883634,21.534722 c 0.278753,-1.611586 1.958477,-2.629659 3.572452,-2.020055 1.058679,0.399866 1.769352,1.498201 1.6864,2.626835 -0.06171,0.839524 -0.463821,1.608893 -1.120586,2.010669 -1.216678,0.744304 -5.050104,2.654272 -5.050104,2.654272 l 5.222453,0.903317"
     id="path1883"
     style="fill:none;stroke:#ffffff;stroke-linecap:round;stroke-linejoin:round" />
  <path
     id="line1869"
     style="fill:none;stroke:#ffffff;stroke-linecap:round;stroke-linejoin:round"
     class="cls-2"
     d="m 30.662098,22.012255 -5.034939,5.335907" />
  <path
     id="rect2135"
     style="fill:none;stroke:#ffffff;stroke-linecap:round;stroke-linejoin:round"
     class="cls-2"
     d="m 28.829472,20.739128 .000005,.000001 c 1.446619,0.250219 2.409786,1.616264 2.159568,3.062883 l -0.460179,2.660486 c -0.250218,1.44662 -1.616265,2.409786 -3.062884,2.159568 l -.000004,-.000001 c -1.446619,-0.250218 -2.409786,-1.616264 -2.159567,-3.062884 l 0.460179,-2.660486 c 0.250218,-1.446618 1.616264,-2.409785 3.062882,-2.159567 z" />
</svg>
