<svg id="Layer_2" data-name="Layer 2" xmlns="http://www.w3.org/2000/svg" viewBox="0 0 48 48"><defs><style>.cls-1{fill:none;stroke:#fff;stroke-linecap:round;stroke-linejoin:round;}</style></defs><path class="cls-1" d="M34,5.59v4.9h5.77a.48.48,0,0,1,.48.49.52.52,0,0,1-.09.29L28.77,26.49a.49.49,0,0,1-.69.09.43.43,0,0,1-.1-.09L16.63,11.28A.48.48,0,0,1,17,10.5h5.77V2.93a.4.4,0,0,0-.41-.39h0a21.53,21.53,0,0,0-8.81,40.27.41.41,0,0,0,.59-.35V37.35H8.34a.49.49,0,0,1-.49-.49.54.54,0,0,1,.1-.3L19.31,21.32a.5.5,0,0,1,.7-.08l.09.08L31.45,36.56a.49.49,0,0,1-.1.69.53.53,0,0,1-.29.1H25.29v7.71a.4.4,0,0,0,.4.4h0A21.53,21.53,0,0,0,34.53,5.24a.41.41,0,0,0-.53.21A.39.39,0,0,0,34,5.59Z"/></svg>