<?xml version="1.0" encoding="UTF-8"?><svg width="48mm" height="48mm" version="1.1" viewBox="0 0 48 48" xml:space="preserve" xmlns="http://www.w3.org/2000/svg"><g fill="none" stroke="#fff" stroke-linecap="round"><path d="m6.4531 4.9986v11.009c0 3.0117 2.4415 5.4533 5.4533 5.4533 3.0117 0 5.4533-2.4415 5.4533-5.4533v-11.009"/><path d="m33.234 15.939v0.0675c0 3.0117-2.4415 5.4533-5.4533 5.4533-3.0117 0-5.4533-2.4415-5.4533-5.4533v-5.5562c0-3.0117 2.4415-5.4533 5.4533-5.4533h2.4e-5c3.0117 0 5.4533 2.4415 5.4533 5.4533v0.0675"/><path d="m25.297 31.618c0-3.0117-2.4415-5.4533-5.4533-5.4533-3.0117 0-5.4533 2.4415-5.4533 5.4533v5.5562c0 3.0117 2.4415 5.4533 5.4533 5.4533 3.0117 0 5.4533-2.4415 5.4533-5.4533h-5.4533"/><path d="m35.718 42.628c-3.0117 0-5.4533-2.4415-5.4533-5.4533v-5.5562c0-3.0117 2.4415-5.4533 5.4533-5.4533 3.0117 0 5.4533 2.4415 5.4533 5.4533v5.5562c0 3.0117-2.4415 5.4533-5.4533 5.4533z"/></g></svg>