<svg width="48" height="48" xmlns="http://www.w3.org/2000/svg" xmlns:svg="http://www.w3.org/2000/svg" enable-background="new 0 0 48.0 48.0" version="1.1" xml:space="preserve"><g class="layer"><title>Layer 1</title><path d="m6.75,10.2l10.35,0" fill="#000000" fill-opacity="0" fill-rule="nonzero" id="svg_1" stroke="#FFFFFF" stroke-linecap="round" stroke-linejoin="round" stroke-opacity="1" stroke-width="1"/><path d="m17.1,22.28l0,-15.53l-10.35,0l0,15.52l10.35,0.01z" fill="#000000" fill-opacity="0" fill-rule="nonzero" id="svg_2" stroke="#FFFFFF" stroke-linecap="round" stroke-linejoin="round" stroke-opacity="1" stroke-width="1"/><path d="m6.75,16.24l10.35,0" fill="#000000" fill-opacity="0" fill-rule="nonzero" id="svg_3" stroke="#FFFFFF" stroke-linecap="round" stroke-linejoin="round" stroke-opacity="1" stroke-width="1"/><path d="m11.93,29.17l10.35,0" fill="#000000" fill-opacity="0" fill-rule="nonzero" id="svg_4" stroke="#FFFFFF" stroke-linecap="round" stroke-linejoin="round" stroke-opacity="1" stroke-width="1"/><path d="m22.28,41.25l0,-15.53l-10.35,0l-0.01,15.53l10.36,0z" fill="#000000" fill-opacity="0" fill-rule="nonzero" id="svg_5" stroke="#FFFFFF" stroke-linecap="round" stroke-linejoin="round" stroke-opacity="1" stroke-width="1"/><path d="m11.93,35.21l10.35,0" fill="#000000" fill-opacity="0" fill-rule="nonzero" id="svg_6" stroke="#FFFFFF" stroke-linecap="round" stroke-linejoin="round" stroke-opacity="1" stroke-width="1"/><path d="m30.04,19.69l11.21,0" fill="#000000" fill-opacity="0" fill-rule="nonzero" id="svg_7" stroke="#FFFFFF" stroke-linecap="round" stroke-linejoin="round" stroke-opacity="1" stroke-width="1"/><path d="m41.25,31.76l0,-15.52l-11.21,0l0,15.52l11.21,0z" fill="#000000" fill-opacity="0" fill-rule="nonzero" id="svg_8" stroke="#FFFFFF" stroke-linecap="round" stroke-linejoin="round" stroke-opacity="1" stroke-width="1"/><path d="m30.04,25.72l11.21,0" fill="#000000" fill-opacity="0" fill-rule="nonzero" id="svg_9" stroke="#FFFFFF" stroke-linecap="round" stroke-linejoin="round" stroke-opacity="1" stroke-width="1"/><path d="m17.1,19.26q6.04,0.72 12.94,3.45" fill="#000000" fill-opacity="0" fill-rule="nonzero" id="svg_10" stroke="#FFFFFF" stroke-linecap="round" stroke-linejoin="round" stroke-opacity="1" stroke-width="1"/><path d="m22.28,32.19q3.45,-2.44 7.76,-3.45" fill="#000000" fill-opacity="0" fill-rule="nonzero" id="svg_11" stroke="#FFFFFF" stroke-linecap="round" stroke-linejoin="round" stroke-opacity="1" stroke-width="1"/></g></svg>