<svg xmlns="http://www.w3.org/2000/svg" viewBox="0 0 48 48"><defs><style>.a{fill:none;stroke:#000;stroke-linecap:round;stroke-linejoin:round;}</style></defs><path class="a" d="M24,7.59s-4.51,3.93-4.84,4.31-3.32,3.69-4,4.35-7,6.68-7.24,7-3.22,3.17-3.22,3.17.4,1.47.4,1.71.07,2,.07,2l2.74-3.22s-3.19,3.64-3.21,3.89c0,.46,0,4.66,0,5.21s.12,5.31.17,5.61,1.18-.74,1.61-1.11,8.77-9.13,8.89-9.23,1.14-.71,1.37-.9,4.14-4.8,4.33-4.91a27.72,27.72,0,0,0,3-2.46c.64-.74,6.1-6.29,6.51-6.6a17.85,17.85,0,0,0,1.58-1.49c0-.07-.48-.91-.6-.89s-.65.16-.65.16a9.17,9.17,0,0,0-1.14-1.87,4.83,4.83,0,0,0-1.66-.11l-.47,1.17a16.5,16.5,0,0,0,.81-2.24c0-.29-1.47-.6-1.59-.83s-.66-1.63-.66-1.63l-1,0L25,7.71Z"/><path class="a" d="M13.58,15c-.07.12-1.56,1.54-1.56,1.54s-6,6-6.2,6.2-1.11-1-1.11-1l-.12-7.88.29-1.32L4.5,11.4l.21-5.11Z"/><line class="a" x1="10.96" y1="15.28" x2="12.11" y2="16.45"/><line class="a" x1="5.64" y1="14.6" x2="4.63" y2="13.63"/><path class="a" d="M16.18,33.19l.68.73-.11.28,2,1.86v.55l2.31,2.22,2.59-2.41-2.18,2,2.18,2.65s4.82-4.47,5.55-5.32,9.17-9.08,9.72-9.68,4.58-4.26,4.58-4.44-.15-4.15-.15-4.15l0-5.51s-.81.35-.87,0,1.08-1.63,1-1.9,0-3.64-.11-3.81a13.64,13.64,0,0,0-2.45,2.07c-.3.34-6.3,6.53-6.67,6.94s-6.1,5.92-6.88,6.77S19,30.35,18.66,30.76,16.18,33.19,16.18,33.19Z"/><path class="a" d="M42.24,25.38l1.26,1.23s-.17,9.38-.19,10-.15,2.74-.12,3,0,2.08,0,2.18a4.33,4.33,0,0,1-1.3-.81c-.17-.19-5.82-5.74-6.08-6s-1.44-1.65-1.44-1.65,5.44-5.44,5.67-5.77S42.24,25.38,42.24,25.38Z"/><path class="a" d="M42,29.75c.24.28,1.44,1.4,1.44,1.4"/><path class="a" d="M41,37.72c.16.24,2,1.66,2.2,1.82"/><path class="a" d="M41.32,19.25c.24-.21,2-1.58,2-1.58"/><path class="a" d="M42.34,16.86l1-.61"/></svg>