<svg xmlns="http://www.w3.org/2000/svg" viewBox="0 0 48 48"><defs><style>.a{fill:none;stroke:#fff;stroke-linecap:round;stroke-linejoin:round;}</style></defs><path class="a" d="M7.4846,33.1813A2.0579,2.0579,0,0,1,5.41,30.6681L6.8,10.0576c.1157-1.7143,1.4226-3.4484,4.5183-3.4038a3.6916,3.6916,0,0,1,3.87,4.1906l-.36,5.5231"/><path class="a" d="M34.3156,40.6768H6.7545L8.661,26.789c2.76-20.1072,34.0858-14.9939,32.7493,5.1853-8.3825,4.1771-28.2962.5231-32.7493-5.1853"/><path class="a" d="M34.3156,38.66v2.0171l10.0833,0V38.66s.2033-4.4769-5.0417-4.438-5.0416,4.438-5.0416,4.438"/><path class="a" d="M20.7623,14.1206l.2391-6.0045"/><path class="a" d="M37.3442,19.5382l4.3314-3.8342"/><circle class="a" cx="16.1656" cy="21.8495" r="1.4671"/><circle class="a" cx="29.61" cy="25.884" r="1.4671"/><path class="a" d="M41.4346,31.3915l-.1155,2.7329"/></svg>