<?xml version="1.0" encoding="UTF-8" standalone="no"?>
<!-- Created with Inkscape (http://www.inkscape.org/) -->

<svg
   width="48"
   height="48"
   viewBox="0 0 48 48"
   version="1.1"
   id="svg5"
   inkscape:version="1.1.1 (3bf5ae0d25, 2021-09-20)"
   sodipodi:docname="unipatcher.svg"
   xmlns:inkscape="http://www.inkscape.org/namespaces/inkscape"
   xmlns:sodipodi="http://sodipodi.sourceforge.net/DTD/sodipodi-0.dtd"
   xmlns="http://www.w3.org/2000/svg"
   xmlns:svg="http://www.w3.org/2000/svg">
  <sodipodi:namedview
     id="namedview7"
     pagecolor="#505050"
     bordercolor="#eeeeee"
     borderopacity="1"
     inkscape:pageshadow="0"
     inkscape:pageopacity="0"
     inkscape:pagecheckerboard="0"
     inkscape:document-units="px"
     showgrid="false"
     units="px"
     showguides="true"
     inkscape:guide-bbox="true"
     inkscape:zoom="11.446291"
     inkscape:cx="4.1498159"
     inkscape:cy="24.505755"
     inkscape:window-width="1914"
     inkscape:window-height="1055"
     inkscape:window-x="0"
     inkscape:window-y="19"
     inkscape:window-maximized="1"
     inkscape:current-layer="layer1">
    <sodipodi:guide
       position="24,24"
       orientation="-1,0"
       id="guide833"
       inkscape:label=""
       inkscape:locked="false"
       inkscape:color="rgb(0,0,255)" />
  </sodipodi:namedview>
  <defs
     id="defs2" />
  <g
     inkscape:label="Layer 1"
     inkscape:groupmode="layer"
     id="layer1">
    <path
       style="fill:none;stroke:#ffffff;stroke-width:1px;stroke-linecap:round;stroke-linejoin:round;stroke-opacity:1"
       d="m 24,28.66509 h -5.619312 c 0,0 -4.9784,5.192946 -10.0121792,4.793422 C 3.3347297,33.058987 5.569542,22.864292 10.158275,18.443083 14.747008,14.021873 24,14.537415 24,14.537415"
       id="path868" />
    <path
       style="fill:none;stroke:#ffffff;stroke-width:1px;stroke-linecap:round;stroke-linejoin:round;stroke-opacity:1"
       d="m 24,28.66509 h 5.619312 c 0,0 4.9784,5.192946 10.012179,4.793422 C 44.66527,33.058987 42.430458,22.864292 37.841725,18.443083 33.252992,14.021873 24,14.537415 24,14.537415"
       id="path1462" />
    <g
       id="g2066"
       transform="translate(-0.5493185)">
      <path
         style="fill:none;stroke:#ffffff;stroke-width:1px;stroke-linecap:round;stroke-linejoin:round;stroke-opacity:1"
         d="m 20.900558,24.459762 h 2.415028"
         id="path1222" />
      <path
         style="fill:none;stroke:#ffffff;stroke-width:1px;stroke-linecap:round;stroke-linejoin:round;stroke-opacity:1"
         d="M 28.198079,24.459762 H 25.783051"
         id="path1466" />
    </g>
    <path
       id="rect1817"
       style="fill:none;stroke:#ffffff;stroke-width:1;stroke-linecap:round;stroke-linejoin:round;paint-order:markers fill stroke;stop-color:#000000"
       d="m 14.122833,18.954177 c -0.714173,0 -1.288577,0.574404 -1.288577,1.288576 v 1.105175 h -1.105175 c -0.714173,0 -1.288576,0.574405 -1.288576,1.288577 0,0.714173 0.574403,1.290958 1.288576,1.290958 h 1.105175 v 1.105175 c 0,0.714173 0.574404,1.288577 1.288577,1.288577 0.714173,0 1.288577,-0.574404 1.288577,-1.288577 v -1.105175 h 1.107557 c 0.714171,0 1.288576,-0.576785 1.288576,-1.290958 0,-0.714172 -0.574405,-1.288577 -1.288576,-1.288577 H 15.41141 v -1.105175 c 0,-0.714172 -0.574404,-1.288576 -1.288577,-1.288576 z" />
    <g
       id="g2394"
       transform="matrix(0.8666478,0,0,0.8666478,49.534234,6.570437)"
       style="stroke-width:1.15387">
      <g
         id="g2372"
         transform="rotate(90,-18.686457,18.493352)"
         style="stroke-width:1.15387">
        <g
           id="g2286"
           style="stroke-width:1.15387">
          <g
             id="g2182"
             style="stroke-width:1.15387">
            <circle
               style="fill:none;stroke:#ffffff;stroke-width:1.15387;stroke-linecap:round;stroke-linejoin:round;paint-order:markers fill stroke;stop-color:#000000"
               id="circle2178"
               cx="-18.686457"
               cy="15.490012"
               r="1.3786376" />
            <circle
               style="fill:none;stroke:#ffffff;stroke-width:1.15387;stroke-linecap:round;stroke-linejoin:round;paint-order:markers fill stroke;stop-color:#000000"
               id="circle2180"
               cx="-18.686457"
               cy="21.496693"
               r="1.3786376" />
          </g>
        </g>
      </g>
      <g
         id="g2382"
         transform="rotate(180,-18.686457,18.493352)"
         style="stroke-width:1.15387">
        <g
           id="g2380"
           style="stroke-width:1.15387">
          <g
             id="g2378"
             style="stroke-width:1.15387">
            <circle
               style="fill:none;stroke:#ffffff;stroke-width:1.15387;stroke-linecap:round;stroke-linejoin:round;paint-order:markers fill stroke;stop-color:#000000"
               id="circle2374"
               cx="-18.686457"
               cy="15.490012"
               r="1.3786376" />
            <circle
               style="fill:none;stroke:#ffffff;stroke-width:1.15387;stroke-linecap:round;stroke-linejoin:round;paint-order:markers fill stroke;stop-color:#000000"
               id="circle2376"
               cx="-18.686457"
               cy="21.496693"
               r="1.3786376" />
          </g>
        </g>
      </g>
    </g>
    <path
       style="fill:none;stroke:#ffffff;stroke-width:1px;stroke-linecap:round;stroke-linejoin:miter;stroke-opacity:1"
       d="m 24,14.537415 c 0,0 -0.749753,-2.566036 1.562496,-2.516496 2.312249,0.04954 1.895606,-2.4465762 1.895606,-2.4465762"
       id="path2509" />
  </g>
</svg>
