<svg xmlns="http://www.w3.org/2000/svg" viewBox="0 0 48 48">
    <defs>
        <style>
            .a{
            fill:none;
            stroke:#fff;
            stroke-linecap:round;
            stroke-linejoin:round;
            }
            </style>
        </defs><path
     class="a"
     d="m 5.4751818,12.644 c 1.8136429,-1.307449 3.93472,-2.424241 6.2463632,-3.0946355 M 5.4891911,13.957831 C 8.8892482,11.777816 13.336927,10.51044 18.133661,10.35476 M 5.4803112,15.182 C 10.779483,12.410975 17.876352,11.792815 24.664854,13.170801 M 5.4932661,16.254 c 2.496888,-0.89255 5.3456699,-1.534812 8.3787319,-1.570775 8.349936,-0.09901 11.85065,1.233837 17.017688,3.859229 M 5.4771283,17.444 c 3.5564043,-0.938271 7.7973787,-1.185965 12.0331607,-0.483654 6.651304,1.102815 12.909007,4.207616 17.310823,8.396758 M 8.9328591,42.505376 C 8.0941844,40.979011 7.2764918,39.434072 6.4945988,37.898553 6.1530086,37.227722 5.8189041,36.559971 5.4934468,35.897622 m 0.00383,-9.180785 c 2.7309749,3.244507 5.8028762,7.128906 8.7811292,11.103681 1.184006,1.580174 2.336633,3.152525 3.431044,4.680444 M 5.4943636,21.974 c 2.8637276,1.682192 6.2820264,4.498365 9.7897744,7.692213 4.361799,3.971472 8.564716,8.56529 11.745865,12.838311 M 5.4852507,19.875 c 4.6930693,0.868422 9.8727733,3.193428 14.7106603,6.418969 6.739822,4.493609 12.161376,10.488033 14.662098,16.211372 M 5.4860765,18.659 c 4.9122915,-0.293405 10.3645555,0.485349 15.4619555,2.576132 7.289718,2.989998 13.093622,7.935941 15.568977,13.267495 M 5.5149998,12.225225 a 5.6696548,8.6677217 49.762303 0 1 3.1532934,5.124417 5.6696548,8.6677217 49.762303 0 1 -3.1688417,5.550833 m 30.8062065,7.259132 a 21.892153,26.202248 78.101458 0 1 -2.823561,12.342811 m 1.547211,-16.933813 a 21.632992,25.674215 70.479498 0 1 -3.859873,16.948127 m 0.785488,-22.653187 a 20.448044,24.889082 61.740442 0 1 -3.897284,22.637981 m 0.236797,-26.689742 a 18.6133,23.796396 57.184056 0 1 1.585414,2.592288 18.6133,23.796396 57.184056 0 1 -7.132321,24.106845 m 2.662722,-28.887952 a 16.362909,22.960619 54.758276 0 1 2.751187,5.024824 16.362909,22.960619 54.758276 0 1 -12.714774,23.85539 M 17.090334,10.1149 a 13.990694,20.823149 53.792263 0 1 4.879497,2.871425 13.990694,20.823149 53.792263 0 1 -0.333338,16.662964 13.990694,20.823149 53.792263 0 1 -15.6479272,12.12097 M 10.939067,9.5143051 a 11.465479,17.357552 49.762303 0 1 6.75386,3.1714259 11.465479,17.357552 49.762303 0 1 -0.813086,13.786842 11.465479,17.357552 49.762303 0 1 -11.3790663,9.874788 m 0.00486,-25.804449 A 8.6878204,13.714808 49.762303 0 1 14.51221,17.125557 8.6878204,13.714808 49.762303 0 1 5.5001143,30.01615 M 5.4891,10.291939 a 25,25 0 0 1 6.171151,-0.7736323 25,25 0 0 1 25,25.0000003 v 0 a 25,25 0 0 1 -1.313949,7.998184 M 40.5,5.5 h -33 a 2,2 0 0 0 -2,2 v 33 a 2,2 0 0 0 2,2 h 33 a 2,2 0 0 0 2,-2 v -33 a 2,2 0 0 0 -2,-2 z" /></svg>
