<?xml version="1.0" encoding="UTF-8" standalone="no"?>
<svg
   version="1.1"
   viewBox="0 0 48 48"
   xml:space="preserve"
   id="svg10"
   xmlns="http://www.w3.org/2000/svg"
   xmlns:svg="http://www.w3.org/2000/svg"><defs
     id="defs6"><style
       id="style2">.a{fill:none;stroke:#fff;stroke-linecap:round;stroke-linejoin:round;}</style><style
       id="style4" /></defs><path
     style="opacity:1;fill:none;fill-opacity:0;stroke:#ffffff;stroke-width:0.999995;stroke-linecap:round;stroke-linejoin:round;stroke-dashoffset:0.5"
     d="M 31.131506,14.888891 C 31.068985,2.6876843 13.82502,2.4607869 13.876681,13.727486 l -0.05166,4.232678"
     id="path1" /><path
     id="rect1"
     style="opacity:1;fill:none;fill-opacity:0;stroke:#ffffff;stroke-width:0.999995;stroke-linecap:round;stroke-linejoin:round;stroke-dashoffset:0.5"
     d="M 8.8339038,18.612054 H 36.122624 c 1.299001,0 2.344767,1.044893 2.344767,2.342808 v 6.405594 C 31.55057,23.37036 20.924701,31.003537 26.720296,41.03342 H 8.8339038 c -1.299,0 -2.344766,-1.044893 -2.344766,-2.342809 V 20.954862 c 0,-1.297915 1.045766,-2.342808 2.344766,-2.342808 z" /><ellipse
     style="opacity:1;fill:none;fill-opacity:0;stroke:#ffffff;stroke-width:0.999995;stroke-linecap:round;stroke-linejoin:round;stroke-dashoffset:0.5"
     id="path2"
     cx="34.476562"
     cy="35.471573"
     rx="7.0342984"
     ry="7.0284257" /><ellipse
     style="opacity:1;fill:none;fill-opacity:0;stroke:#ffffff;stroke-width:0.999995;stroke-linecap:round;stroke-linejoin:round;stroke-dashoffset:0.5"
     id="path3"
     cx="34.528225"
     cy="35.355438"
     rx="1.5631775"
     ry="1.5618724" /><path
     style="opacity:1;fill:none;fill-opacity:0;stroke:#ffffff;stroke-width:0.999995;stroke-linecap:round;stroke-linejoin:round;stroke-dashoffset:0.5"
     d="m 34.54848,28.443515 -0.02025,1.982403"
     id="path4" /><path
     style="opacity:1;fill:none;fill-opacity:0;stroke:#ffffff;stroke-width:0.999995;stroke-linecap:round;stroke-linejoin:round;stroke-dashoffset:0.5"
     d="m 41.510861,35.471573 -1.855266,5e-6"
     id="path5" /><path
     style="opacity:1;fill:none;fill-opacity:0;stroke:#ffffff;stroke-width:0.999995;stroke-linecap:round;stroke-linejoin:round;stroke-dashoffset:0.5"
     d="m 34.528228,40.723712 0.01743,1.775947"
     id="path6" /><path
     style="opacity:1;fill:none;fill-opacity:0;stroke:#ffffff;stroke-width:0.999995;stroke-linecap:round;stroke-linejoin:round;stroke-dashoffset:0.5"
     d="m 29.349195,35.471578 -1.906931,-5e-6"
     id="path7" /><path
     style="opacity:1;fill:none;fill-opacity:0;stroke:#ffffff;stroke-width:0.999993;stroke-linecap:round;stroke-linejoin:round;stroke-dashoffset:0.5"
     d="m 38.617704,31.503986 -1.518008,2.658766 c -0.101513,-0.530773 -0.625894,-1.006632 -0.998203,-1.20529 z"
     id="path9" /><path
     style="opacity:1;fill:none;fill-opacity:0;stroke:#ffffff;stroke-width:0.999995;stroke-linecap:round;stroke-linejoin:round;stroke-dashoffset:0.5"
     d="m 23.098196,31.587315 0.284138,2.451855 h -2.066447 l 0.361628,-2.451855 c 0,0 -1.327817,-0.732283 -1.34319,-1.764586 -0.01537,-1.032303 1.00739,-2.071543 2.027699,-2.062389 1.02031,0.0092 2.030155,1.02658 2.0277,2.062389 -0.0025,1.035809 -1.291528,1.764586 -1.291528,1.764586"
     id="path10" /></svg>
