<svg version="1.1" viewBox="0 0 48 48" xmlns="http://www.w3.org/2000/svg"><defs><style>.a{fill:none;stroke:#fff;stroke-linecap:round;stroke-linejoin:round;}</style></defs><path class="a" d="m34.0936 5.01663a21.5 21.5 0 0 1 10.7677 24.1847 21.5 21.5 0 0 1-20.8614 16.2987 21.5 21.5 0 0 1-20.8614-16.2987 21.5 21.5 0 0 1 10.7677-24.1847"/><path d="m22.3 5.01663v19.2314" fill="none" stop-color="#000000" stroke="#fff" stroke-linecap="round" stroke-linejoin="round" style="-inkscape-stroke:none;font-variation-settings:normal"/><path d="m25.7 5.01663v19.2314" fill="none" stop-color="#000000" stroke="#fff" stroke-linecap="round" stroke-linejoin="round" style="-inkscape-stroke:none;font-variation-settings:normal"/><path d="m13.9064 5.01663-0.001362 18.6943" fill="none" stop-color="#000000" stroke="#fff" stroke-linecap="round" stroke-linejoin="round" style="-inkscape-stroke:none;font-variation-settings:normal"/><path d="m34.0936 5.01663 0.001361 18.6943" fill="none" stop-color="#000000" stroke="#fff" stroke-linecap="round" stroke-linejoin="round" style="-inkscape-stroke:none;font-variation-settings:normal"/><path d="m34.095 23.711a10.095 10.095 0 0 1-5.0475 8.74253 10.095 10.095 0 0 1-10.095 0 10.095 10.095 0 0 1-5.0475-8.74253" fill="none" stroke="#fff" stroke-linecap="round" stroke-linejoin="round"/><path d="m25.7 24.248a1.7 1.7 0 0 1-0.85 1.47224 1.7 1.7 0 0 1-1.7 0 1.7 1.7 0 0 1-0.85-1.47224" fill="none" stroke="#fff" stroke-linecap="round" stroke-linejoin="round"/></svg>
