<svg version="1.1" viewBox="0 0 48 48" xmlns="http://www.w3.org/2000/svg">
 <g transform="translate(0,3.5)">
  <g transform="matrix(1.0935 0 0 1.0935 -2.2446 -.96043)" fill="none" stroke="#fff" stroke-width="1px">
   <path d="m28 31.5 12.5-12.5c0.5-0.5 0.5-1.5 0-2l-7.5-7.5c-0.5-0.5-1.5-0.5-2 0l-5.5 5.5-8-8c-0.5-0.5-1.5-0.5-2 0l-8 8c-0.5 0.5-0.5 1.5 0 2l14.5 14.5c1.5 1.5 4.5 1.5 6 0z" stroke-linejoin="round"/>
   <path d="m25.5 15-7 7c-2 2-4 2-6 0" stroke-linecap="round" stroke-linejoin="round"/>
   <path d="m17.948 22.552"/>
   <g stroke-linecap="round" stroke-linejoin="round">
    <path d="m19 25.5c-1 1-2 1-3 0m19.5-13.5c-1.0921-1-2.5-0.5-3.5 0.5l-13 13"/>
    <path d="m19 12.5c-4-4-9 1-5 5l4.5 4.5-4.5-4.5"/>
    <path d="m23.5 17-3.5-3.5"/>
    <path d="m22 18.5-4-4c-0.5-0.5-1.25-1.25-2-1"/>
    <path d="m16 16.5c-0.5-0.5-1.25-1.25-1-2m5 6-4-4"/>
   </g>
  </g>
 </g>
</svg>
