<?xml version="1.0" encoding="UTF-8"?>
<svg id="b" version="1.1" viewBox="0 0 48 48" xmlns="http://www.w3.org/2000/svg">
 <defs>
  <style>.c{fill:none;stroke:#fff;stroke-linecap:round;stroke-linejoin:round;}</style>
 </defs>
 <path class="c" d="m20.669 11.427c-9.6667 0.023-11.772 3.418-13.406 12.556l-2.7622 12.59 28.103-0.0464c9.5172 0.3107 13.983-8.8954 5.7197-13.188 7.5838-2.1404 7.4108-11.278-4.3734-11.854l-13.281-0.0586z"/>
 <path class="c" d="m17.989 13.467c-4.0161 0.0931-6.5104 2.8389-7.4837 8.2362l-2.9459 12.832h4.2129c1.2429 0.0153 2.6521-0.5439 3.588-1.4952l7.6113-8.7526c2.5985-3.0288 4.8569-5.3446 7.0601-7.2807 1.4421-1.2672 2.8602-2.3724 4.3348-3.4082-3.276-0.6039-7.2196 1.3233-10.741 4.9982l-10.542 10.863 2.1857-10.151c0.7365-2.8157 2.2477-4.7223 4.5339-5.7197-0.6358-0.0949-1.2406-0.1352-1.8143-0.1219h8e-4z"/>
</svg>
