<svg xmlns="http://www.w3.org/2000/svg" xml:space="preserve" id="svg990" width="48" height="48" version="1.1"><defs id="defs987"><style id="style1174">.a{fill:none;stroke:#fff;stroke-linecap:round;stroke-linejoin:round}</style></defs><path id="path13355" d="M16.233 32.025c-1.08 1.098-.57 2.232 1.15 2.682m-3.466-3.366c-.168 1.469-.08 2.938-1.176 4.407m-1.164-6.439c3.822 4.655 10.08 2.266 11.492.403m-.09-.166c0 1.59-.01 4.414-4.887 5.067-10.411 1.397-8.703 5.252-8.452 6.65 2.275-3.288 4.89-3.233 7.41-4.111m10.138-12.169c.562 3.787 1.56 9.03-3.87 10.141-7.145 1.464-10.085 3.98-10.64 8.353 3.61-2.517 7.94-2.692 12.05-2.999 5.386-.402 6.424-2.444 8.228-4.782-.708 2.476-2.47 4.975-3.914 6.275 6.236.482 13.371-4.369 5.245-14.316 1.909 1.399 5.223 1.68 9.29-.077-3.183-.696-6.525-.913-8.363-4.358-.743-1.394-1.298-4.73-3.19-7.482m-19.38 4.84c.443-.131 1.336.036 1.783.668.495.7 1.898.645 2.357.01.246-.34.575-.423.907-.48m-3.94-2.365c1.253.548 2.279.486 3.1.285m-3.688-6.46c-1.71.373-5.278 2.86-4.631 6.558.648 3.703-2.053 4.197-4.11 4.3.218 2.263 2.645 2.519 4.148 2.544m5.588-12.005c-2.68-2.91-2.466-8.619-1.292-9.028 1.69-.59 1.978 1.933 2.314 3.36M11.642 21.39c.026.995.21 2.228-.436 3.957-.584 1.562.71 2.504 1.164 3.712-3.826.89-4.86-2.428-2.363-6.61m5.662-8.72c-1.412-.5-4.35 1.095-4.753 4.304-.252 2.007-.945 3.076-2.126 4.358 1.893-.123 2.553.037 4.548-3.682 1.677-3.128 2.021-2.294 2.654-2.916m-.185-4.636c2.718-2.286 7.035-2.945 11.798-.562m-11.419 3.213c-2.023.054-3.57-5.003-.042-6.245-.438 1.606-.951 3.134.042 6.245zm6.99 1.648c3.35-6.06 14.463-10.57 14.68-9.229.293 1.817-2.596 4.486-6.27 6.822m-4.762.839c1.522.304.618 2.53-1.757 3.371m4.744-3.178c1.87-1.143 4.194-2.455 4.782-1.198.253.54-.877 2.963-5.655 3.048 3.55.487.443 2.938-2.659 2.394m-3.623 6.853c.4 2.24-1.84 3.014-3.698 4 2.916 1.035 8.113.682 8.01-3.976m-8.322-6.191c4.345 5.19 10.328 3.979 13.343 3.722-10.302 7.01-15.925-1.858-15.677-7.862-.171-1.382.087-2.611.759-2.98 2.956-1.625 4.719 3.223 8.625 6.25 2.67 2.007 3.176.54 4.645.818-.443 1.066-3.36 1.785-6.453.937.228 1.377 1.72 2.051 2.617 3.057" style="fill:none;fill-opacity:1;stroke:#fff;stroke-width:1;stroke-linecap:round;stroke-linejoin:round;stroke-dasharray:none;stroke-opacity:1;stop-color:#000"/></svg>