<?xml version="1.0" encoding="UTF-8"?>
<svg version="1.1" viewBox="0 0 48 48" xml:space="preserve" xmlns="http://www.w3.org/2000/svg"><defs><style>.a{fill:none;stroke:#fff;stroke-linecap:round;stroke-linejoin:round;}</style><style>.a{fill:none;stroke:#fff;stroke-linecap:round;stroke-linejoin:round;}</style><style>.a{fill:none;stroke:#fff;stroke-linecap:round;stroke-linejoin:round;}</style><style>.a{fill:none;stroke:#fff;stroke-linecap:round;stroke-linejoin:round;}</style><style>.a{fill:none;stroke:#fff;stroke-linecap:round;stroke-linejoin:round;}</style><style>.a{fill:none;stroke:#fff;stroke-linecap:round;stroke-linejoin:round;}</style><style>.a{fill:none;stroke:#fff;stroke-linecap:round;stroke-linejoin:round;}</style></defs><path class="a" d="m40.5 5.5h-33a2 2 0 0 0-2 2v33a2 2 0 0 0 2 2h33a2 2 0 0 0 2-2v-33a2 2 0 0 0-2-2z"/><g transform="translate(-254.58 -22)">
		<polyline class="st5" points="268.6 40.7 266 48.7 263.4 40.7" fill="none" stroke="#fff" stroke-linecap="round" stroke-linejoin="round" stroke-miterlimit="10"/>
	</g><g transform="translate(-221.52 -38)" fill="none" stroke="#fff" stroke-linecap="round" stroke-linejoin="round" stroke-miterlimit="10">
		<path class="st5" d="m246 57.7v6c0 0.6 0.4 1 1 1h0.3"/>
		<line class="st5" x1="244.9" x2="247.1" y1="59.3" y2="59.3"/>
	</g><g transform="translate(-25.542 -38)">
		
			<path class="st5" d="m58 62.7c0 1.1-0.9 2-2 2v0c-1.1 0-2-0.9-2-2v-1.3c0-1.1 0.9-2 2-2v0c1.1 0 2 0.9 2 2" fill="none" stroke="#fff" stroke-linecap="round" stroke-linejoin="round" stroke-miterlimit="10"/>
		
		<line class="st5" x1="58" x2="58" y1="64.7" y2="59.3" fill="none" stroke="#fff" stroke-linecap="round" stroke-linejoin="round" stroke-miterlimit="10"/>
	</g><g transform="translate(-149.16 -38)" fill="none" stroke="#fff" stroke-linecap="round" stroke-linejoin="round" stroke-miterlimit="10">
		<path class="st5" d="m188.3 64.7v-3.3c0-1.1-0.9-2-2-2s-2 0.9-2 2"/>
		<line class="st5" x1="184.3" x2="184.3" y1="64.7" y2="59.3"/>
	</g><g transform="translate(-37.278 -38)">
		
			<path class="st5" d="m58 62.7c0 1.1-0.9 2-2 2v0c-1.1 0-2-0.9-2-2v-1.3c0-1.1 0.9-2 2-2v0c1.1 0 2 0.9 2 2" fill="none" stroke="#fff" stroke-linecap="round" stroke-linejoin="round" stroke-miterlimit="10"/>
		
		<line class="st5" x1="58" x2="58" y1="64.7" y2="59.3" fill="none" stroke="#fff" stroke-linecap="round" stroke-linejoin="round" stroke-miterlimit="10"/>
	</g></svg>
