<svg viewBox="0 0 48 48" version="1.1" id="svg10" xml:space="preserve" xmlns="http://www.w3.org/2000/svg"><defs id="defs4"><style id="style2">.a{fill:none;stroke:#fff;stroke-linecap:round;stroke-linejoin:round}</style></defs><g id="g5653" transform="translate(-2.717 -.755)"><path id="rect2618" style="fill:none;stroke:#fff;stroke-linecap:round;stroke-linejoin:round;paint-order:stroke fill markers" d="m18.006 34.814 2.152 2.152a.908.908 0 0 1 0 1.288L19.1 39.31a.908.908 0 0 1-1.287 0l-2.152-2.152a.908.908 0 0 1 0-1.287l1.056-1.057a.908.908 0 0 1 1.288 0zm-1.268 3.42-4.626 4.626M36.76 10.788l7.425 7.425m-6.613 2.016 3.95-3.949m-6.778 1.12 3.949-3.948m-14.66 18.196 2.475 2.475m.353-5.304 2.475 2.475m.353-5.303 2.475 2.475m.354-5.304 2.475 2.475m-.908-8.685 3.936 3.936a1.713 1.713 0 0 1 0 2.428L23.478 37.858a1.713 1.713 0 0 1-2.428 0l-3.936-3.936a1.713 1.713 0 0 1 0-2.428l14.542-14.542a1.713 1.713 0 0 1 2.428 0z"/><path id="path5641" style="fill:none;stroke:#fff;stroke-width:1px;stroke-linecap:round;stroke-linejoin:round;stroke-opacity:1" d="M18.625 18v2.5h2.5V23h-2.5v2.5h-2.5V23h-2.5v-2.5h2.5V18ZM21 9.955V13s4.5.248 4.5 3.75v6.384M13.75 9.954V13s-4.5.274-4.5 3.75v12.586c0 .66.65 1.364 1.31 1.364h7.36M12.87 6.65h9.01c.482 0 .87.388.87.87v1.51c0 .482-.388.87-.87.87h-9.01a.869.869 0 0 1-.87-.87V7.52c0-.482.388-.87.87-.87z"/></g></svg>