<?xml version="1.0" encoding="UTF-8" standalone="no"?>
<svg
   xmlns:dc="http://purl.org/dc/elements/1.1/"
   xmlns:cc="http://creativecommons.org/ns#"
   xmlns:rdf="http://www.w3.org/1999/02/22-rdf-syntax-ns#"
   xmlns:svg="http://www.w3.org/2000/svg"
   xmlns="http://www.w3.org/2000/svg"
   xmlns:sodipodi="http://sodipodi.sourceforge.net/DTD/sodipodi-0.dtd"
   xmlns:inkscape="http://www.inkscape.org/namespaces/inkscape"
   viewBox="0 0 48 48"
   version="1.1"
   id="svg2289"
   sodipodi:docname="square.svg"
   inkscape:version="1.0.1 (3bc2e813f5, 2020-09-07)">
  <metadata
     id="metadata2293">
    <rdf:RDF>
      <cc:Work
         rdf:about="">
        <dc:format>image/svg+xml</dc:format>
        <dc:type
           rdf:resource="http://purl.org/dc/dcmitype/StillImage" />
        <dc:title></dc:title>
      </cc:Work>
    </rdf:RDF>
  </metadata>
  <sodipodi:namedview
     pagecolor="#5a5a5a"
     bordercolor="#666666"
     borderopacity="1"
     objecttolerance="10"
     gridtolerance="10"
     guidetolerance="10"
     inkscape:pageopacity="0"
     inkscape:pageshadow="2"
     inkscape:window-width="3840"
     inkscape:window-height="2096"
     id="namedview2291"
     showgrid="false"
     inkscape:zoom="1.6491"
     inkscape:cx="24"
     inkscape:cy="24"
     inkscape:window-x="0"
     inkscape:window-y="27"
     inkscape:window-maximized="1"
     inkscape:current-layer="svg2289"
     showguides="true"
     inkscape:guide-bbox="true" />
  <defs
     id="defs2285"><style
   id="style2283">.a{fill:none;stroke:#fff;stroke-linecap:round;stroke-linejoin:round;}</style>

	
	
	
	
	
	
	
	
	
	
	
	
	
	
	
	
	
	
	
	
	
	
	
	
	
	
	
	
	
	
	
	
	
	
	
	
	
	
	
	
	
	
	
	
	
	
	
	
	
	
	
	
	
	
	
	
	
	
	
	
	
	
	
	
	
	
	
	
	
	
	
	
	
	
	
	
	
	
	
	
	
	
	
	
	
	
	
	
	
	
	
	
	
	
	
	
	
	
	
	
	
	
	
	
	
	
	
	
	
	
	
	
	
	
	
	
	
	
	
	
	
	
	
	
	
	
	
	
	
</defs>
  <path
     id="path3560"
     style="fill:none;stroke:#ffffff;stroke-width:1;stroke-linecap:butt;stroke-linejoin:miter;stroke-miterlimit:4;stroke-dasharray:none;stroke-opacity:1"
     d="m 36.067578,28.192158 c -2.829795,7.805513 -6.9025,14.567265 -12.4987,14.61203 -5.807704,0.04646 -9.839936,-7.855682 -12.601874,-16.695238"
     sodipodi:nodetypes="csc" />
  <path
     id="path6767"
     style="fill:none;stroke:#ffffff;stroke-width:1;stroke-linecap:square;stroke-linejoin:miter;stroke-miterlimit:4;stroke-dasharray:none;stroke-opacity:1"
     d="M 9.6212341,21.447601 C 8.0338126,15.426849 7.0820656,9.749942 6.6868024,6.9267421 6.5415398,5.8891924 7.2442533,5.258855 8.8072917,5.5485327 v 0 C 19.899377,7.6042278 28.346746,7.7509519 38.501085,5.6694341 40.457635,5.2683649 41.369847,5.5061286 41.167924,6.9122269 40.706757,10.123601 39.501355,16.947292 37.595658,23.519674"
     sodipodi:nodetypes="csssssc" />
  <path
     id="path3560-3"
     style="fill:none;stroke:#ffffff;stroke-width:1;stroke-linecap:butt;stroke-linejoin:miter;stroke-opacity:1;stroke-miterlimit:4;stroke-dasharray:none"
     d="M 34.325805 25.430211 C 32.048575 32.466242 28.58769 39.05503 23.641362 39.094597 C 18.383766 39.136656 14.810478 30.619746 12.635274 22.615494 " />
  <path
     id="path6733"
     style="fill:none;stroke:#ffffff;stroke-width:1;stroke-linecap:butt;stroke-linejoin:miter;stroke-opacity:1;stroke-miterlimit:4;stroke-dasharray:none"
     d="M 11.592257 18.384154 C 10.834527 14.990335 10.350772 12.034069 10.11472 10.348048 C 9.9983291 9.5167191 10.561373 9.0116652 11.813747 9.2437674 L 11.813747 9.2437674 C 20.701201 10.890878 27.469595 11.00844 35.605687 9.3406389 C 37.173358 9.0192851 37.904262 9.209792 37.742473 10.336418 C 37.491703 12.082679 37.003167 15.031009 36.237804 18.391583 " />
  <style
     type="text/css"
     id="style4281">
	.st0{fill:none;stroke:#FFFFFF;stroke-linecap:round;stroke-linejoin:round;stroke-miterlimit:10;}
	.st1{fill:#FFFFFF;}
	.st2{fill:none;stroke:#FFFFFF;stroke-width:0.9976;stroke-linecap:round;stroke-linejoin:round;stroke-miterlimit:10;}
	.st3{fill:none;stroke:#FFFFFF;stroke-width:0.9965;stroke-linecap:round;stroke-linejoin:round;stroke-miterlimit:10;}
	.st4{fill:none;stroke:#FFFFFF;stroke-width:0.8662;stroke-linecap:round;stroke-linejoin:round;stroke-miterlimit:10;}
</style>
  <path
     style="fill:none;stroke:#ffffff;stroke-width:1px;stroke-linecap:butt;stroke-linejoin:miter;stroke-opacity:1"
     d="m 5.3498178,18.44028 v 4.253073 h 1.1101228 v 2.908029 h 1.4501691 v 2.575195 H 10.9612 v -2.575195 h 1.523555 v -2.908029 h 1.315962 V 18.44028 H 11.01166 v 3.066405 H 9.8375905 v 2.668667 H 9.0873502 V 21.499743 H 7.9940082 V 18.44028 Z"
     id="path6636"
     sodipodi:nodetypes="ccccccccccccccccccccc" />
  <path
     style="fill:none;stroke:#ffffff;stroke-width:1px;stroke-linecap:butt;stroke-linejoin:miter;stroke-opacity:1"
     d="m 39.400002,18.44028 v 9.736297 h 3.115211 V 18.44028 Z"
     id="path6642" />
  <path
     style="fill:none;stroke:#ffffff;stroke-width:1px;stroke-linecap:butt;stroke-linejoin:miter;stroke-opacity:1"
     d="m 16.60112,18.44028 v 1.047186 h -1.482803 v 7.552706 h 1.482803 v 1.136405 h 5.654636 v -1.136405 h 1.640559 V 24.18125 h -2.957906 v 1.122333 h -2.84246 v -4.13016 h 2.84246 v 1.263009 h 2.957906 V 19.487466 H 22.255756 V 18.44028 Z"
     id="path6656"
     sodipodi:nodetypes="ccccccccccccccccccccc" />
  <path
     style="fill:none;stroke:#ffffff;stroke-width:1px;stroke-linecap:butt;stroke-linejoin:miter;stroke-opacity:1"
     d="M 25.892497,28.176577 V 18.44028 h 4.52044 v 2.644335 h 1.208944 v 2.904895 h 0.165791 v -2.909169 h 1.307335 V 18.44028 h 4.386281 v 9.736297 h -2.884777 v -6.045974 3.314323 h -1.604933 v 2.731651 h -2.740557 v -2.7273 h -1.512343 v -3.318674 6.045974 z"
     id="path6658"
     sodipodi:nodetypes="ccccccccccccccccccccccc" />
</svg>
