<?xml version="1.0" encoding="UTF-8"?><svg id="b" xmlns="http://www.w3.org/2000/svg" viewBox="0 0 48 48"><defs><style>.c{stroke-linecap:round;}.c,.d{fill:none;stroke:#fff;stroke-linejoin:round;}</style></defs><path class="c" d="m17.1854,26.8726v3.667c0,1.2383,1.7497,2.7213,2.7509,3.4249,1.0012.7036,2.3861,1.7583,3.8469,1.7583s3.3158-1.181,4.2474-1.9095c.8588-.6716,2.1566-1.6571,2.2662-3.1094v-3.8634"/><path class="c" d="m13.8413,18.8857s-1.777-1.0028-1.8302-3.1811c-.0532-2.1784.7501-2.0573,3.9351-5.2576,3.1849-3.2002,5.6179-3.544,7.8833-3.547,0,0,3.5802.0216,7.0979,3.326,3.5175,3.3043,4.6165,3.1312,4.5798,5.1876-.0368,2.0563-2.2271,3.4522-2.2271,3.4522"/><path class="c" d="m15.7037,13.7889c-1.1408.9784-1.7331,1.6283-1.6885,3.0305.0445,1.4021.0778,4.8598.0778,6.6107s2.2913,2.8336,5.6829,4.462c-.0277,1.2638,0,2.2472,0,2.2472,0,0,1.3677,1.6235,3.9594,1.57,2.6485-.0547,3.8325-1.5214,3.8325-1.5214,0,0,.0148-1.137,0-2.2901,4.561-2.4104,5.7305-2.7775,5.7192-5.4814s-.0185-4.1399.0786-5.9766-1.1236-2.3073-1.1236-2.3073"/><path class="c" d="m22.179,27.9069l1.5269-2.7559,1.5269,2.7559"/><path class="d" d="m16.7863,20.2177l4.1331.0103s-.012,3.1279-1.9531,2.997-2.1801-3.0073-2.1801-3.0073Z"/><path class="d" d="m30.6432,20.2177l-4.1331.0103s.012,3.1279,1.9531,2.997,2.1801-3.0073,2.1801-3.0073Z"/><path class="c" d="m11.8392,24.6942c-1.9155-1.0828-1.5028-2.0979-3.1913-3.1525-1.5646-.9773-2.8833-.5056-2.581,2.4822-1.1782.4586-2.5236,2.4192-.6,3.1247,2.4002.8803,2.2269-1.7682,4.9336-.1807s4.3127,2.2411,4.3127,2.2411"/><path class="c" d="m35.2211,25.2213c1.9155-1.0828,2.4425-2.5993,4.131-3.654,1.5646-.9773,2.8833-.5056,2.581,2.4822,1.1782.4586,2.5236,2.4192.6,3.1247-2.4002.8803-2.2269-1.7682-4.9336-.1807s-5.1217,2.6916-5.1217,2.6916"/><path class="c" d="m15.4227,32.5181s-2.4692,1.54-3.5583,2.0716c-1.0891.5317-2.5276.4306-4.3643-.3909s-3.2282.733-2.7488,2.0324c.4795,1.2993,2.2386.9832,2.2386.9832-.6608,2.4895.3913,3.8667,1.7367,3.842,1.3022-.0239,2.5632-.8754,2.6558-1.918.0926-1.0426.0608-2.0332,1.8531-2.7592,1.7923-.7261,3.9502-1.8062,3.9502-1.8062"/><path class="c" d="m32.489,32.5613s2.4692,1.54,3.5583,2.0716c1.0891.5317,2.5276.4306,4.3643-.3909s3.2282.733,2.7488,2.0324c-.4795,1.2993-2.2386.9832-2.2386.9832.6608,2.4895-.3913,3.8667-1.7367,3.842-1.3022-.0239-2.5632-.8754-2.6558-1.918-.0926-1.0426-.0608-2.0332-1.8531-2.7592-1.7923-.7261-3.9502-1.8062-3.9502-1.8062"/></svg>