<?xml version="1.0" encoding="UTF-8" standalone="no"?>
<svg
   xmlns:dc="http://purl.org/dc/elements/1.1/"
   xmlns:cc="http://creativecommons.org/ns#"
   xmlns:rdf="http://www.w3.org/1999/02/22-rdf-syntax-ns#"
   xmlns:svg="http://www.w3.org/2000/svg"
   xmlns="http://www.w3.org/2000/svg"
   xmlns:sodipodi="http://sodipodi.sourceforge.net/DTD/sodipodi-0.dtd"
   xmlns:inkscape="http://www.inkscape.org/namespaces/inkscape"
   viewBox="0 0 48 48"
   version="1.1"
   id="svg8"
   sodipodi:docname="vespucci.svg"
   inkscape:version="1.0.2 (e86c870879, 2021-01-15)">
  <metadata
     id="metadata12">
    <rdf:RDF>
      <cc:Work
         rdf:about="">
        <dc:format>image/svg+xml</dc:format>
        <dc:type
           rdf:resource="http://purl.org/dc/dcmitype/StillImage" />
        <dc:title />
      </cc:Work>
    </rdf:RDF>
  </metadata>
  <sodipodi:namedview
     pagecolor="#ffffff"
     bordercolor="#666666"
     borderopacity="1"
     objecttolerance="10"
     gridtolerance="10"
     guidetolerance="10"
     inkscape:pageopacity="0"
     inkscape:pageshadow="2"
     inkscape:window-width="1920"
     inkscape:window-height="1047"
     id="namedview10"
     showgrid="true"
     inkscape:zoom="5.656854"
     inkscape:cx="8.5072485"
     inkscape:cy="5.2828254"
     inkscape:window-x="960"
     inkscape:window-y="0"
     inkscape:window-maximized="1"
     inkscape:current-layer="svg8"
     showguides="true"
     inkscape:guide-bbox="true"
     inkscape:snap-midpoints="true"
     inkscape:snap-others="true"
     inkscape:snap-text-baseline="true"
     inkscape:snap-object-midpoints="true"
     inkscape:snap-center="true"
     inkscape:snap-global="true"
     inkscape:document-rotation="0"
     inkscape:snap-smooth-nodes="true">
    <inkscape:grid
       type="xygrid"
       id="grid859"
       empspacing="8" />
  </sodipodi:namedview>
  <defs
     id="defs4">
    <style
       id="style2">.a{fill:none;stroke:#fff;stroke-linecap:round;stroke-linejoin:round;}</style>
    <style
       id="style833">.cls-1{fill:#f60;}</style>
  </defs>
  <path
     id="path864"
     style="fill:none;stroke:#ffffff;stroke-width:1px;stroke-linecap:round;stroke-linejoin:round;stroke-opacity:1"
     d="m 40,40 c 1,-1 0,-3 1,-6 1,-3 -1,-7.171573 -1,-10 0,-2 -23,15 -26,17 3.3125,1 4,1 6,0 3.224903,-1.612452 6,0 8,1 2,1 9,0 12,-2 z M 17,34 40,22 c 1.982464,-1.034329 1,-3 2,-5 C 43,15 41.375,9 40.375,6 36.53125,6.5468752 38,6.3347971 32,8 27.909416,9.1352754 30,4.421875 22,6.421875 18,7.421875 17.881015,7.7016894 15.632636,8 15.661006,9.9997988 17,34 17,34 Z M 5.4584078,6 c 2.0719223,3 4.0554563,8.558058 2.0554563,11.558058 -2,3 -0.9614369,7.441942 0.038563,10.441942 C 8.6926026,31.420526 6,37 6,41 c 2.495108,0.491767 2.4741369,0 6,0 L 14,8 C 14,8 9.4584078,5 5.4584078,6 Z" />
</svg>
