<svg xmlns="http://www.w3.org/2000/svg" xml:space="preserve" id="svg990" width="48" height="48" version="1.1"><path id="path21371-3-5" d="M32.583 27.506c0-.735-.602-1.338-1.338-1.338-.735 0-1.338.603-1.338 1.338 0 .736.603 1.338 1.338 1.338.736 0 1.338-.602 1.338-1.338zm2.97 2.97c0-.735-.604-1.338-1.339-1.338s-1.338.603-1.338 1.338c0 .735.603 1.338 1.338 1.338.735 0 1.338-.603 1.338-1.338zm2.969-2.97c0-.735-.603-1.338-1.338-1.338-.736 0-1.338.603-1.338 1.338 0 .736.602 1.338 1.338 1.338.735 0 1.338-.602 1.338-1.338zm-2.97-2.969c0-.735-.603-1.338-1.338-1.338-.735 0-1.338.603-1.338 1.338 0 .736.603 1.338 1.338 1.338.735 0 1.338-.602 1.338-1.338zm-1.338 9.872c3.706 0 6.71-3.09 6.71-6.902 0-3.813-3.004-6.903-6.71-6.903-2.962 0-5.476 1.975-6.366 4.715m1.737 7.184a6.59 6.59 0 0 0 4.63 1.906h6.71m-24.092-9.292a3.32 3.32 0 1 0-6.639 0 3.32 3.32 0 0 0 6.64 0l-.547-9.231 4.44-1.252M5.5 36.197h24.982L23.09 5.617H5.499Zm16.52 0 2.12 6.186H42.5v-30.58 0H24.585" style="color:#000;display:inline;fill:none;stroke:#fff;stroke-width:1;stroke-linecap:round;stroke-linejoin:round;stroke-dasharray:none;stroke-opacity:1"/><defs id="defs987"><style id="style1174">.a{fill:none;stroke:#fff;stroke-linecap:round;stroke-linejoin:round}</style></defs></svg>