<svg version="1.1" viewBox="0 0 48 48" xmlns="http://www.w3.org/2000/svg">
 <g fill="none" stroke="#fff" stroke-linecap="round" stroke-linejoin="round">
  <path d="m23.163 29.956c-1.8595-0.49824-2.6966-2.2478-0.23545-4.7089 1.108-1.108-0.75818-10.602-4.0698-12.781"/>
  <path d="m18.858 12.465c0.8422 2.9979-1.6613 6.0397-2.2199 10.427-0.55864 4.3871 1.6905 6.8946 4.1708 8.3415"/>
  <path d="m16.638 22.892c-3.0786-2.0802-6.2759-3.527-9.8887-2.7581 3.1934 2.6912 3.8696 7.1659 5.6507 8.9469 1.5511 1.5511 4.9397 3.4308 6.6598 3.4308"/>
  <path d="m12.4 29.081c-4.5851 0.13439-6.346 2.7672-7.7361 4.5071 2.896-0.77599 7.6324 1.0363 10.292 1.749s6.2827-0.69913 9.0441-2.2934"/>
  <path d="m35.6 29.081c4.5851 0.13439 6.346 2.7672 7.7361 4.5071-2.896-0.77599-7.6324 1.0363-10.292 1.749s-6.2827-0.69913-9.0441-2.2934"/>
  <path d="m29.142 12.465c-0.8422 2.9979 1.6613 6.0397 2.2199 10.427 0.55864 4.3871-1.6905 6.8946-4.1708 8.3415"/>
  <path d="m31.362 22.892c3.0786-2.0802 6.2759-3.527 9.8887-2.7581-3.1934 2.6912-3.8696 7.1659-5.6507 8.9469-1.5511 1.5511-4.9397 3.4308-6.6598 3.4308"/>
  <path d="m24.837 29.956c1.8543-0.49686 2.6966-2.2478 0.23545-4.7089-1.108-1.108 0.75818-10.602 4.0698-12.781"/>
  <path d="m21.416 28.276c0-1.9278 5.1665-1.9283 5.1665-4e-6"/>
 </g>
</svg>
