<svg version="1.1" viewBox="0 0 48 48" xmlns="http://www.w3.org/2000/svg">
 <g fill="none" stroke="#fff" stroke-linecap="round" stroke-linejoin="round" stroke-width="1px">
  <path d="m8 27c1.25-6.25 3-10.5 7.75-13.5-9-1.2895-11.25 6.25-7.75 13.5z"/>
  <path d="m25 37.5c12.5-11 12-18.25 10-24.25 15.5 0 6.5 24.25-10 24.25z"/>
  <path d="m6.25 27.25c1.5 2 7.75 11.25 17.25 11.25-12 7-20.25-0.75-17.25-11.25z"/>
  <path d="m14 12c8-5.5 14-8 20 0.5-5 0-7.5 1.25-10 1.25s-6-1.75-10-1.75z"/>
 </g>
</svg>
