<?xml version="1.0" encoding="UTF-8" standalone="no"?>
<!-- Created with Inkscape (http://www.inkscape.org/) -->

<svg
   width="48"
   height="48"
   viewBox="0 0 12.7 12.7"
   version="1.1"
   id="svg5"
   xml:space="preserve"
   inkscape:version="1.2 (dc2aedaf03, 2022-05-15)"
   sodipodi:docname="vikunja.svg"
   inkscape:export-filename="drawing.png"
   inkscape:export-xdpi="512"
   inkscape:export-ydpi="512"
   xmlns:inkscape="http://www.inkscape.org/namespaces/inkscape"
   xmlns:sodipodi="http://sodipodi.sourceforge.net/DTD/sodipodi-0.dtd"
   xmlns="http://www.w3.org/2000/svg"
   xmlns:svg="http://www.w3.org/2000/svg"><sodipodi:namedview
     id="namedview7"
     pagecolor="#505050"
     bordercolor="#eeeeee"
     borderopacity="1"
     inkscape:showpageshadow="0"
     inkscape:pageopacity="0"
     inkscape:pagecheckerboard="0"
     inkscape:deskcolor="#505050"
     inkscape:document-units="mm"
     showgrid="false"
     showguides="true"
     inkscape:zoom="5.9081369"
     inkscape:cx="10.578631"
     inkscape:cy="40.368056"
     inkscape:window-width="958"
     inkscape:window-height="1000"
     inkscape:window-x="946"
     inkscape:window-y="0"
     inkscape:window-maximized="0"
     inkscape:current-layer="layer1"><sodipodi:guide
       position="6.35,6.35"
       orientation="-1,0"
       id="guide179"
       inkscape:locked="false"
       inkscape:label=""
       inkscape:color="rgb(0,134,229)" /></sodipodi:namedview><defs
     id="defs2" /><g
     inkscape:label="Layer 1"
     inkscape:groupmode="layer"
     id="layer1"><path
       style="fill:none;stroke:#ffffff;stroke-width:0.264583;stroke-linecap:round;stroke-linejoin:round;stroke-dasharray:none"
       d="m 8.5023938,6.1907561 c 0,1.8524768 -1.3423727,3.3407917 -2.1453899,3.3407917 -0.8142129,0 -2.3987201,-1.4883149 -2.3987201,-3.3407916 0,-0.2194341 0.0026,-0.4204091 0.035113,-0.8321658 C 3.806331,4.0577469 4.9812393,3.4339145 6.3490871,3.4199573 c 1.3355808,0.013628 2.2610601,0.7881798 2.1173666,1.7828559 0.037552,0.3853051 0.03594,0.729986 0.03594,0.9879429 z"
       id="path356"
       sodipodi:nodetypes="scscccs" /><path
       style="fill:none;stroke:#ffffff;stroke-width:0.264583;stroke-linecap:round;stroke-linejoin:round;stroke-dasharray:none"
       d="m 6.3499999,6.4459885 c -0.6681732,0.089566 -0.9760556,0.677341 -0.8193153,1.4386497 0.1567399,0.761309 1.1923439,1.1307676 1.584194,0.2127187 0.39185,-0.918049 0.015252,-1.6811287 -0.7648787,-1.6513684 z"
       id="path468" /><path
       style="fill:none;stroke:#ffffff;stroke-width:0.264583;stroke-linecap:round;stroke-linejoin:round;stroke-dasharray:none"
       d="m 5.0193584,6.2612591 c 0,0 0.033587,-0.4982094 0.2966866,-0.4870138 0.2630995,0.011197 0.23511,0.5038075 0.23511,0.5038075"
       id="path470" /><path
       style="fill:none;stroke:#ffffff;stroke-width:0.264583;stroke-linecap:round;stroke-linejoin:round;stroke-dasharray:none"
       d="m 7.082087,6.2612591 c 0,0 0.033587,-0.4982094 0.2966866,-0.4870138 0.2630995,0.011197 0.23511,0.5038075 0.23511,0.5038075"
       id="path472" /><path
       style="fill:none;stroke:#ffffff;stroke-width:0.264583;stroke-linecap:round;stroke-linejoin:round;stroke-dasharray:none"
       d="M 5.2567914,3.5785946 C 5.27013,2.8799561 5.4473707,1.4892357 5.1957771,1.5824414 c 0,0 -1.1934966,0.1358955 -1.2261806,1.8485671 -0.012888,0.6753464 -0.00451,1.1335191 0.010365,1.4407812"
       id="path474"
       sodipodi:nodetypes="ccsc" /><path
       style="fill:none;stroke:#ffffff;stroke-width:0.264583;stroke-linecap:round;stroke-linejoin:round;stroke-dasharray:none"
       d="m 7.5353509,3.6436217 c 0.029476,-0.7160151 0.00407,-2.2710492 0.2230096,-2.076796 0,0 1.3950658,0.5763176 0.668822,3.0168659"
       id="path476"
       sodipodi:nodetypes="ccc" /><path
       style="fill:none;stroke:#ffffff;stroke-width:0.264583;stroke-linecap:round;stroke-linejoin:round;stroke-dasharray:none"
       d="m 6.1313819,7.263451 c 0,0 0.2216639,0.2880421 0.5304099,-0.059374"
       id="path478" /><path
       style="fill:none;stroke:#ffffff;stroke-width:0.264583;stroke-linecap:round;stroke-linejoin:round;stroke-dasharray:none"
       d="M 6.3499999,7.3980326 V 8.1045864"
       id="path480"
       sodipodi:nodetypes="cc" /><path
       style="fill:none;stroke:#ffffff;stroke-width:0.264583;stroke-linecap:round;stroke-linejoin:round;stroke-dasharray:none"
       d="M 5.6527951,8.0432329 C 6.3499999,8.2253142 7.1556313,7.9950551 7.1556313,7.9950551"
       id="path482" /><path
       style="fill:none;stroke:#ffffff;stroke-width:0.264583;stroke-linecap:round;stroke-linejoin:round;stroke-dasharray:none"
       d="m 5.2447261,4.6786915 c -0.042182,0.3155858 0.2454137,0.292913 0.360204,0.2612469 -0.1220396,0.3614334 0.3045631,0.579403 0.4859084,0.2119429 0.058624,0.4229086 0.4853031,0.2994023 0.4488091,0.032908"
       id="path484"
       sodipodi:nodetypes="cccc" /><path
       style="fill:none;stroke:#ffffff;stroke-width:0.264583;stroke-linecap:round;stroke-linejoin:round;stroke-dasharray:none"
       d="m 5.0703017,9.8785048 c 0.022392,0.5429922 0.5373944,0.3190782 0.5373944,0.3190782 0,0 0.07837,0.593372 0.5933731,0.251903"
       id="path486" /><path
       id="path4260"
       style="fill:none;stroke:#ffffff;stroke-width:0.264583;stroke-linecap:round;stroke-linejoin:round;stroke-dasharray:none"
       d="M 7.8052083,8.4666667 C 7.7342511,9.1842699 7.9486439,10.746465 8.2186198,11.718665 10.504221,10.923761 12.036751,8.7698846 12.038542,6.35 12.038542,3.2083052 9.4916948,0.66145855 6.35,0.66145833 3.2083054,0.66145873 0.66145873,3.2083054 0.66145833,6.35 0.66320161,8.7715338 2.1977442,10.926529 4.4855143,11.720215 4.6288022,10.504249 4.6012695,8.2315389 4.6012695,8.2315389"
       sodipodi:nodetypes="cccsccc" /><path
       style="fill:none;stroke:#ffffff;stroke-width:0.264583;stroke-linecap:round;stroke-linejoin:round;stroke-dasharray:none"
       d="m 6.9048367,9.9094145 c 0.2828286,0.08946 0.2645667,-0.213646 0.2645667,-0.213646 0,0 0.3191841,0.07039 0.2406015,-0.2545471"
       id="path4266" /><path
       style="fill:none;stroke:#ffffff;stroke-width:0.264583;stroke-linecap:round;stroke-linejoin:round;stroke-dasharray:none"
       d="m 6.7569053,11.677695 c 0.2363656,0.179239 0.3209462,-0.112399 0.3209462,-0.112399 0,0 0.2770137,0.173483 0.3121069,-0.158974"
       id="path4324" /></g></svg>
