<?xml version="1.0" encoding="utf-8"?>
<svg
	version="1.1"
	xmlns="http://www.w3.org/2000/svg"
	xmlns:xlink="http://www.w3.org/1999/xlink"
	x="0%" y="0%"
	width="100%" height="100%"
	viewBox="0 0 48.0 48.0"
	enable-background="new 0 0 48.0 48.0"
	xml:space="preserve">
	<path
		fill="#FFFFFF"
		stroke="#FFFFFF"
		fill-opacity="0.000"
		stroke-opacity="1.000"
		fill-rule="nonzero"
		stroke-width="1.008"
		stroke-linejoin="round"
		stroke-linecap="round"
		d="M20.24,24.90Q14.48,18.05,7.51,12.30Q4.82,10.27,7.33,8.55L10.25,6.84Q13.35,4.90,15.94,7.46Q21.20,13.58,26.40,24.14L26.07,6.59Q27.26,5.26,28.91,5.67Q34.45,9.06,40.25,9.24Q41.95,9.24,41.88,11.07L41.75,17.72Q41.61,19.02,40.25,19.02Q35.09,18.96,29.49,16.23L29.53,25.83L29.53,33.47C29.53,40.42,23.02,43.94,17.61,41.81C9.27,38.53,11.01,25.98,20.24,24.90z"/>
	<path
		fill="#FFFFFF"
		stroke="#FFFFFF"
		fill-opacity="0.000"
		stroke-opacity="1.000"
		fill-rule="nonzero"
		stroke-width="1.008"
		stroke-linejoin="round"
		stroke-linecap="round"
		d="M15.18,33.58Q17.13,32.98,20.17,36.56C23.16,39.74,19.22,41.81,17.08,39.25Q14.01,36.00,15.18,33.58z"/>
</svg>