<svg id="Layer_2" data-name="Layer 2" xmlns="http://www.w3.org/2000/svg" viewBox="0 0 48 48"><defs><style>.cls-1{fill:none;stroke:#fff;stroke-linecap:round;stroke-linejoin:round;}</style></defs><path class="cls-1" d="M36.34,36.47a3.36,3.36,0,0,1-2.38,1h0a3.37,3.37,0,0,1-3.37-3.38V31.86A3.37,3.37,0,0,1,34,28.48h0a3.37,3.37,0,0,1,3.37,3.38v1"/><line class="cls-1" x1="37.33" y1="32.97" x2="30.58" y2="32.97"/><rect class="cls-1" x="10.67" y="28.48" width="6.75" height="8.98" rx="3.37"/><path class="cls-1" d="M20.62,31.86A3.38,3.38,0,0,1,24,28.48h0a3.37,3.37,0,0,1,3.37,3.38v5.6"/><line class="cls-1" x1="20.62" y1="28.48" x2="20.62" y2="37.46"/><path class="cls-1" d="M7.5,5.5a2,2,0,0,0-2,2v33a2,2,0,0,0,2,2h33a2,2,0,0,0,2-2V7.5a2,2,0,0,0-2-2Z"/><circle class="cls-1" cx="32.54" cy="15.46" r="4.79"/></svg>