<?xml version="1.0" encoding="UTF-8" standalone="no"?>
<svg
   xmlns:dc="http://purl.org/dc/elements/1.1/"
   xmlns:cc="http://creativecommons.org/ns#"
   xmlns:rdf="http://www.w3.org/1999/02/22-rdf-syntax-ns#"
   xmlns:svg="http://www.w3.org/2000/svg"
   xmlns="http://www.w3.org/2000/svg"
   xmlns:sodipodi="http://sodipodi.sourceforge.net/DTD/sodipodi-0.dtd"
   xmlns:inkscape="http://www.inkscape.org/namespaces/inkscape"
   viewBox="0 0 48 48"
   version="1.1"
   id="svg1681"
   sodipodi:docname="vk.svg"
   inkscape:version="1.0.2 (e86c870879, 2021-01-15)">
  <metadata
     id="metadata1685">
    <rdf:RDF>
      <cc:Work
         rdf:about="">
        <dc:format>image/svg+xml</dc:format>
        <dc:type
           rdf:resource="http://purl.org/dc/dcmitype/StillImage" />
        <dc:title></dc:title>
      </cc:Work>
    </rdf:RDF>
  </metadata>
  <sodipodi:namedview
     pagecolor="#ffffff"
     bordercolor="#666666"
     borderopacity="1"
     objecttolerance="10"
     gridtolerance="10"
     guidetolerance="10"
     inkscape:pageopacity="0"
     inkscape:pageshadow="2"
     inkscape:window-width="1920"
     inkscape:window-height="1080"
     id="namedview1683"
     showgrid="false"
     inkscape:zoom="8.2493944"
     inkscape:cx="44.9449"
     inkscape:cy="2.3941044"
     inkscape:window-x="0"
     inkscape:window-y="0"
     inkscape:window-maximized="0"
     inkscape:current-layer="svg1681"
     inkscape:pagecheckerboard="false" />
  <defs
     id="defs1677">
    <style
       id="style1675">.a{fill:none;stroke:#fff;stroke-linecap:round;stroke-linejoin:round;}</style>
  </defs>
  <path
     class="a"
     d="M40.5,5.5H7.5a2,2,0,0,0-2,2v33a2,2,0,0,0,2,2h33a2,2,0,0,0,2-2V7.5A2,2,0,0,0,40.5,5.5Z"
     id="path1679" />
  <path
     style="opacity:1;fill:none;stroke:#ffffff;stroke-width:1px;stroke-linecap:butt;stroke-linejoin:round;stroke-opacity:1"
     d="m 26.422435,31.626714 v -4.526778 c 3.035329,0.464958 3.999299,2.858774 5.932194,4.526778 h 4.937558 c -1.169298,-2.624952 -2.91029,-5.024466 -5.384173,-7.134978 1.769675,-2.439263 3.656126,-4.735632 4.569737,-8.222439 h -4.481965 c -1.761196,2.667508 -2.686515,5.785571 -5.573351,7.846337 v -7.846337 h -6.499533 l 1.553406,1.919951 -0.02106,6.8507 c -2.517969,-0.28984 -4.223117,-4.906973 -6.069791,-8.770651 h -4.677636 c 1.728326,5.221503 5.287749,16.681857 15.714614,15.357417 z"
     id="path2280-3"
     sodipodi:nodetypes="ccccccccccccccc" />
</svg>
