<svg viewBox="0 0 48 48" xmlns="http://www.w3.org/2000/svg">
    <style>
        .a{fill:none;stroke:#fff;stroke-linecap:round;stroke-linejoin:round}
    </style>
    <path class="a" d="M42.4924774,18.9367352c-1.6218033-1.2768497-3.2051811-2.606205-4.9826889-3.6713219 c-1.7916222-1.073575-3.6774597-1.8999271-5.751379-2.2711897c-2.2448139-0.4018555-4.3597641-0.0160284-6.3846245,0.9706249 c-1.6547146,0.8062935-3.1607037,1.8550558-4.6681671,2.9008226c-2.7126846,1.8818569-5.4881744,3.6452866-8.6809006,4.6309605 c-2.024622,0.6250515-4.0994458,0.9080639-6.2107882,0.9662857c-0.1023202,0.002821-0.2044673,0.01194-0.306695,0.0181274"/>
    <path class="a" d="M40.5,5.5h-33c-1.1045694,0-2,0.8954306-2,2v33c0,1.1045685,0.8954306,2,2,2h33c1.1045685,0,2-0.8954315,2-2 v-33C42.5,6.3954306,41.6045685,5.5,40.5,5.5z"/>
    <line class="a" x1="12.1755323" x2="12.1755323" y1="29.6702137" y2="25.638298"/>
    <line class="a" x1="18.0877666" x2="18.0877666" y1="29.6702137" y2="25.638298"/>
    <line class="a" x1="24" x2="24" y1="32.0212784" y2="23.2872334"/>
    <line class="a" x1="29.9122334" x2="29.9122334" y1="18.9787235" y2="36.3297882"/>
    <line class="a" x1="35.8244667" x2="35.8244667" y1="23.2872334" y2="32.0212784"/>
</svg>