<?xml version="1.0" encoding="UTF-8"?>
<svg version="1.1" viewBox="0 0 48 48" xmlns="http://www.w3.org/2000/svg">
    <defs>
        <style>.a{fill:none;stroke:#fff;stroke-linecap:round;stroke-linejoin:round;}</style>
    </defs>
    <g transform="matrix(.77262 0 0 .77262 -100.63 -47.84)" fill="none" stroke="#fff" stroke-linecap="round" stroke-linejoin="round" stroke-width="1.2943">
        <polyline class="st0" points="169.2 93 169.2 101 173.2 101" fill="none" stroke="#fff" stroke-linecap="round" stroke-linejoin="round" stroke-width="1.2943"/>
    </g>
    <g transform="matrix(.77262 0 0 .77262 -95.531 -47.84)" fill="none" stroke="#fff" stroke-linecap="round" stroke-linejoin="round" stroke-width="1.2943">
        <polyline class="st0" points="169.2 93 169.2 101 173.2 101" fill="none" stroke="#fff" stroke-linecap="round" stroke-linejoin="round" stroke-width="1.2943"/>
    </g>
    <g transform="matrix(.77262 0 0 .77262 -21.198 -47.84)" fill="none" stroke="#fff" stroke-linecap="round" stroke-linejoin="round" stroke-width="1.2943">
        <polyline class="st0" points="63.8 101 61.2 93 58.5 101"/>
        <line class="st0" x1="59.4" x2="62.9" y1="98.3" y2="98.3"/>
    </g>
    <polyline class="st0" transform="matrix(.77262 0 0 .77262 -122.64 -47.84)" points="179.2 101 179.2 93 183.2 101 187.2 93 187.2 101" fill="none" stroke="#fff" stroke-linecap="round" stroke-linejoin="round" stroke-miterlimit="10" stroke-width="1.2943"/>
    <g transform="matrix(.77262 0 0 .77262 -200.83 -47.84)" fill="none" stroke="#fff" stroke-linecap="round" stroke-linejoin="round" stroke-width="1.2943">
        <polyline class="st0" points="277.8 93 275.2 101 272.5 93" fill="none" stroke="#fff" stroke-linecap="round" stroke-linejoin="round" stroke-width="1.2943"/>
    </g>
    <rect x="5.7352" y="17.994" width="36.53" height="18.22" rx="2.5" ry="2.5" fill="none" stroke="#fff" stroke-linecap="round" stroke-linejoin="round" style="paint-order:markers fill stroke"/>
    <path d="m15.685 17.994v-4.091c0-1.1729 0.94427-2.1172 2.1172-2.1172h11.999c1.1729 0 2.1172 0.94428 2.1172 2.1172v4.091" fill="none" stroke="#fff" stroke-linecap="round" stroke-linejoin="round" style="paint-order:markers fill stroke"/>
</svg>
