<svg xmlns="http://www.w3.org/2000/svg" viewBox="0 0 48 48">
    <defs>
        <style>
            .a{
            fill:none;
            stroke:#fff;
            stroke-linecap:round;
            stroke-linejoin:round;
            }
            </style>
        </defs><path
     class="a"
     d="M 36,24.12 37.61994,22.499979 43.5,28.38 M 33,21.12 37.61994,16.499979 43.5,22.38 M 4.5,25.523988 9.818131,30.842119 13.16,27.5 M 4.5,19.523988 9.8181313,24.842119 15.16,19.4 m -1.1645,4.4215 c 0.948348,4.773818 5.137397,8.212543 10.0045,8.212543 4.867103,0 9.056152,-3.438725 10.0045,-8.212543 M 24,7.425 v 0 c 3.572454,0 6.4685,2.896046 6.4685,6.4685 v 8.007 c 0,3.572454 -2.896046,6.4685 -6.4685,6.4685 v 0 c -3.572454,0 -6.4685,-2.896046 -6.4685,-6.4685 v -8.007 C 17.5315,10.321046 20.427546,7.425 24,7.425 Z m 2.499001,24.3525 v 8.2535 c 3.6e-5,0.297155 -0.238382,0.539357 -0.5355,0.544 h -3.927 c -0.297118,-0.0046 -0.535536,-0.246845 -0.5355,-0.544 v -8.2535"
     /></svg>
