<svg version="1.1" viewBox="0 0 48 48" xmlns="http://www.w3.org/2000/svg">
 <g fill="none" stroke="#fff" stroke-linecap="round" stroke-linejoin="round">
  <path class="st5" d="m33.6 40.5v-12h3.9285c2.221 0 4.0214 1.8043 4.0214 4.0301s-1.8004 4.0301-4.0214 4.0301h-3.9285"/>
  <line class="st5" x1="22.05" x2="30" y1="28.5" y2="28.5"/>
  <line class="st5" x1="26.025" x2="26.025" y1="40.5" y2="28.5"/>
  <path d="m11.7 34.65a1.5 1.5 0 0 1-0.69889-1.6873 1.5 1.5 0 0 1 1.4489-1.1118 1.5 1.5 0 0 1 1.4489 1.1118 1.5 1.5 0 0 1-0.69889 1.6873" stroke-miterlimit="10" style="paint-order:stroke fill markers"/>
  <path d="m11.7 34.65-0.5 2.5h2.5l-0.5-2.5" stroke-width="1px"/>
  <circle cx="12.45" cy="34.5" r="6" stroke-miterlimit="10" style="paint-order:stroke fill markers"/>
  <path d="m14 13.233v10.267"/>
  <path d="m14 13.233 3.7778-3.7334"/>
  <path d="m14 13.233-3.7778-3.7334"/>
  <path d="m5.5 14.633h4.7223l3.7778 3.7334 3.7778-3.7334h4.7223s-7.0834 8.8667-8.0279 8.8667h-0.94445c-0.94445 0-8.0279-8.8667-8.0279-8.8667"/>
  <path d="m10.222 14.633v-5.1334l3.7778 3.7334 3.7778-3.7334v5.1334"/>
  <path d="m14 13.233v10.267"/>
  <path class="st5" d="m22.029 22.062c0.24529 0.31933 0.55286 0.43827 0.98075 0.43827h0.5922c0.5511 0 0.99784-0.44675 0.99784-0.99785v-0.0043c0-0.5511-0.44675-0.99785-0.99784-0.99785h-0.65324c-0.55169 0-0.99892-0.44723-0.99892-0.99892v-2e-6c0-0.55288 0.4482-1.0011 1.0011-1.0011h0.58896c0.4279 0 0.73547 0.11894 0.98076 0.43827"/>
  <polyline class="st5" transform="matrix(.5 0 0 .5 -59.9 -1.8251)" points="172 48.641 172 40.65 176 48.65 180 40.662 180 48.65" stroke-miterlimit="10" stroke-width="2"/>
  <line class="st5" x1="33.765" x2="32.032" y1="21.162" y2="21.162"/>
  <polyline class="st5" transform="matrix(.5 0 0 .5 4.8998 -1.8252)" points="53.4 48.626 56 40.65 58.6 48.65" stroke-width="2"/>
  <path class="st5" d="m35.7 22.5v-4h1.3095c0.74032 0 1.3405 0.60145 1.3405 1.3434 0 0.74192-0.60015 1.3434-1.3405 1.3434h-1.3095"/>
  <line class="st5" x1="37.01" x2="38.319" y1="21.187" y2="22.499"/>
  <line class="st5" x1="39.85" x2="42.5" y1="18.5" y2="18.5"/>
  <line class="st5" x1="41.175" x2="41.175" y1="22.5" y2="18.5"/>
 </g>
</svg>
