<?xml version="1.0" encoding="UTF-8"?>
<svg version="1.1" viewBox="0 0 48 48" xml:space="preserve" xmlns="http://www.w3.org/2000/svg">
	<defs>
	  <style>.a{fill:none;stroke:#fff;stroke-linecap:round;stroke-linejoin:round;}</style>
	</defs>
  <path class="a" d="m14.979 23.211v-8h2.6c1.5 0 2.7 1.2 2.7 2.7s-1.2 2.7-2.7 2.7h-2.6"/>
  <path class="a" d="m17.679 20.511 2.6 2.7"/>
  <path class="a" transform="translate(-264.87 -77.789)" d="m277.8 93-2.6 8-2.7-8"/>
  <path class="a" d="m22.385 22.311c0.5 0.6 1.1 0.9 2 0.9h1.2c1.1 0 2-0.9 2-2s-0.9-2-2-2h-1.3c-1.1 0-2-0.9-2-2s0.9-2 2-2h1.2c0.9 0 1.5 0.2 2 0.9"/>
  <path class="a" d="M 45.5,24 A 21.5,21.5 0 0 1 24,45.5 21.5,21.5 0 0 1 2.5,24 21.5,21.5 0 0 1 24,2.5 21.5,21.5 0 0 1 45.5,24 Z"/>
  <path class="a" d="m24 6.7812a17.219 17.219 0 0 0-13.383 6.4355h14.736a5.8497 5.9498 0 0 1 5.8496 5.9492 5.8497 5.9498 0 0 1-5.8496 5.9492h-18.494a17.219 17.219 0 0 0 17.141 16.104 17.219 17.219 0 0 0 17.219-17.219 17.219 17.219 0 0 0-17.219-17.219z"/>
</svg>
