<?xml version="1.0" encoding="UTF-8" standalone="no"?>
<svg
   xmlns:dc="http://purl.org/dc/elements/1.1/"
   xmlns:cc="http://creativecommons.org/ns#"
   xmlns:rdf="http://www.w3.org/1999/02/22-rdf-syntax-ns#"
   xmlns:svg="http://www.w3.org/2000/svg"
   xmlns="http://www.w3.org/2000/svg"
   xmlns:sodipodi="http://sodipodi.sourceforge.net/DTD/sodipodi-0.dtd"
   xmlns:inkscape="http://www.inkscape.org/namespaces/inkscape"
   id="Layer_2"
   data-name="Layer 2"
   viewBox="0 0 48 48"
   version="1.1"
   sodipodi:docname="wabusiness.svg"
   inkscape:version="1.0.1 (3bc2e813f5, 2020-09-07)">
  <metadata
     id="metadata11">
    <rdf:RDF>
      <cc:Work
         rdf:about="">
        <dc:format>image/svg+xml</dc:format>
        <dc:type
           rdf:resource="http://purl.org/dc/dcmitype/StillImage" />
        <dc:title></dc:title>
      </cc:Work>
    </rdf:RDF>
  </metadata>
  <sodipodi:namedview
     pagecolor="#ffffff"
     bordercolor="#666666"
     borderopacity="1"
     objecttolerance="10"
     gridtolerance="10"
     guidetolerance="10"
     inkscape:pageopacity="0"
     inkscape:pageshadow="2"
     inkscape:window-width="1920"
     inkscape:window-height="1043"
     id="namedview9"
     showgrid="false"
     inkscape:lockguides="false"
     inkscape:zoom="11.549411"
     inkscape:cx="15.749835"
     inkscape:cy="28.781993"
     inkscape:window-x="0"
     inkscape:window-y="0"
     inkscape:window-maximized="1"
     inkscape:current-layer="Layer_2"
     inkscape:document-rotation="0" />
  <defs
     id="defs4">
    <inkscape:path-effect
       effect="spiro"
       id="path-effect880"
       is_visible="true"
       lpeversion="1" />
    <style
       id="style2">.cls-1{fill:none;stroke:#fff;stroke-linecap:round;stroke-linejoin:round;}</style>
  </defs>
  <path
     style="fill:none;stroke:#ffffff;stroke-width:1px;stroke-linecap:round;stroke-linejoin:round;stroke-opacity:1"
     d="M 5.15,34.36 2.5,45.5 13.64,42.85"
     id="path876" />
  <path
     style="fill:none;stroke:#ffffff;stroke-width:1px;stroke-linecap:round;stroke-linejoin:round;stroke-opacity:1"
     d="M 5.15,34.36 C 3.3606103,31.103648 2.4357245,27.377281 2.4947872,23.662142 2.5538498,19.947003 3.5967206,16.251919 5.4887177,13.054092 7.3807147,9.8562658 10.117343,7.1632951 13.345179,5.3229642 16.573016,3.4826333 20.284392,2.499315 24,2.5 c 6.52981,0.0012 12.987,3.1656501 16.988698,8.325576 4.001698,5.159925 5.459611,12.201481 3.835731,18.52615 C 43.200548,35.676394 38.530705,41.144628 32.538191,43.738505 26.545677,46.332383 19.362714,45.994673 13.64,42.85"
     id="path878"
     inkscape:path-effect="#path-effect880"
     inkscape:original-d="M 5.15,34.36 C 11.434333,23.741 17.717667,13.121 24,2.5 30.282333,-8.121 17.094333,29.401 13.64,42.85" />
  <path
     class="st4"
     d="m 25.868533,24.000039 c 3.162511,0 5.750019,2.587509 5.750019,5.750019 0,3.162512 -2.587508,5.75002 -5.750019,5.75002 H 16.381 V 12.5 h 9.487533 c 3.162511,0 5.750019,2.587509 5.750019,5.75002 0,3.16251 -2.587508,5.750019 -5.750019,5.750019 z"
     id="path545"
     style="fill:none;stroke:#ffffff;stroke-width:1;stroke-linecap:round;stroke-linejoin:round;stroke-miterlimit:10;stroke-dasharray:none" />
  <line
     class="st4"
     x1="25.86854"
     y1="24.000038"
     x2="16.381001"
     y2="24.000038"
     id="line547"
     style="fill:none;stroke:#ffffff;stroke-width:1;stroke-linecap:round;stroke-linejoin:round;stroke-miterlimit:10;stroke-dasharray:none" />
</svg>
