<?xml version="1.0" encoding="UTF-8" standalone="no"?>
<svg
   id="Layer_2"
   data-name="Layer 2"
   viewBox="0 0 48 48"
   version="1.1"
   xmlns="http://www.w3.org/2000/svg"
   xmlns:svg="http://www.w3.org/2000/svg">
  <defs
     id="defs4">
    <style
       id="style2">.a{fill:none;stroke:#fff;stroke-linecap:round;stroke-linejoin:round;stroke-width:1;}</style>
  </defs>
  <path
     class="a"
     d="m 21.457921,10.952177 a 9.5085395,9.508202 0 0 0 -8.328812,14.076734 l -1.170901,4.921996 4.922171,-1.170853 a 9.4997084,9.499365 0 1 0 4.577542,-17.827877 z m -4.749856,4.316684 h 2.589217 a 0.44184687,0.44183108 0 0 1 0.44184,0.441843 4.5952071,4.5950424 0 0 0 0.29162,1.727555 0.85276445,0.85273393 0 0 1 -0.29162,1.078069 l -0.905775,0.883658 a 8.2183511,8.218057 0 0 0 1.555291,2.116363 8.2183511,8.218057 0 0 0 2.107611,1.586185 l 0.883702,-0.90576 c 0.441841,-0.441825 0.645093,-0.441825 1.07811,-0.29161 a 4.5952071,4.5950424 0 0 0 1.727623,0.29161 0.46393912,0.46392254 0 0 1 0.441843,0.441824 v 2.589136 a 0.46393912,0.46392254 0 0 1 -0.441843,0.441841 10.462938,10.462566 0 0 1 -6.910495,-3.022131 10.42758,10.427208 0 0 1 -3.022233,-6.910247 0.47277621,0.47275916 0 0 1 0.455109,-0.468336 z"
     id="path1" />
  <circle
     class="a"
     id="path2"
     cx="21.5"
     cy="21.500004"
     r="16" />
  <path
     class="a"
     d="m 32.999989,33 3,3"
     id="path3" />
  <path
     class="a"
     d="m 35.999989,36 c 0.471405,-0.471405 1.528595,-0.471405 2,0 l 4.999994,5 c 0.471405,0.471406 0.471405,1.528595 0,2 -0.471404,0.471405 -1.528595,0.471406 -2,0 l -4.999994,-5 c -0.471405,-0.471405 -0.471404,-1.528595 0,-2 z"
     id="path4" />
</svg>
