<svg xmlns="http://www.w3.org/2000/svg" xml:space="preserve" id="svg990" width="48" height="48" version="1.1"><defs id="defs987"><style id="style1174">.a{fill:none;stroke:#fff;stroke-linecap:round;stroke-linejoin:round}</style></defs><path id="path2700" d="M26.51 40.838a14.892 14.892 0 0 1-4.074.568 14.892 14.892 0 0 1-11.099-4.963m0 0a14.892 14.892 0 0 1-3.793-9.928 14.892 14.892 0 0 1 14.892-14.892 14.892 14.892 0 0 1 9.368 3.316m2.01 1.969a14.892 14.892 0 0 1 3.513 9.607A14.892 14.892 0 0 1 26.51 40.838M34.76 8.66l1.357 1.066m-2.37-.201 1.357 1.066m1.582-3.729 1.357 1.066m-2.37-.201 1.357 1.066m1.717-3.684 1.357 1.066m-2.37-.2 1.357 1.065m-27.755 29.4c1.551-1.037 2.96-2.324 3.076-5.59.1-2.794 1.92-5.757 4.253-5.894.713-.042 1.48.426.536 2.458-1.12 2.408 1.757 4.747 3.307 2.285L33.982 11.47c-.264-.552-.84-1.026.173-1.872l5.77-4.814c.572-.478 1.96-.36 2.388.477.691 1.348-.146 2.93-2.153 2.802l-1.186 3c-.172.434-.368.777-.9.72-1.01-.106-1.622.463-2.06 1.23l-12.04 21.148c.42 1.977 2.26 2.503 4.532.67 1.592-1.285 2.152-.035 1.851 1.74-.33 1.946-1.76 2.623-3.33 3.75a2.77 2.77 0 0 0-.568.531" style="display:inline;fill:none;stroke:#fff;stroke-width:1;stroke-linecap:round;stroke-linejoin:round;stroke-dasharray:none;stroke-opacity:1;stop-color:#000"/></svg>