<svg viewBox="0 0 48 48" xmlns="http://www.w3.org/2000/svg">
    <style>
        .a{fill:none;stroke:#FFFFFF;stroke-linecap:round;stroke-linejoin:round}
    </style>
    <path class="a" d="M42.4995804,18.0319309c-0.0106163,0.3818569-0.2015457,0.7531586-0.5727844,0.9864941l-3.1292419,1.9624367  l-4.7627831,2.9807205l-9.2073498,5.7810669c-0.5092068,0.3182793-1.1456356,0.3182793-1.6548424,0l-9.2073498-5.7810669  L9.202446,20.9808617L6.073204,19.018425c-0.3712382-0.2333355-0.5621667-0.6046371-0.5727844-0.9864941  c-0.0106182-0.4137115,0.1803102-0.8273563,0.5727844-1.071373L22.9498615,6.3742366  c0.647047-0.4030924,1.4532299-0.4030924,2.1002769,0L41.926796,16.9605579  C42.3192711,17.2045746,42.5101967,17.6182194,42.4995804,18.0319309z"/>
    <path class="a" d="M42.4995804,23.9615822v6.0144672c-0.0106163,0.3818569-0.2015457,0.7637119-0.5727844,0.9864941  L24.8274212,41.6973839c-0.5092068,0.3075981-1.1456356,0.3075981-1.6548424,0L6.073204,30.9625435  c-0.3712382-0.2227821-0.5621667-0.6046371-0.5727844-0.9864941v-6.0144672c0,0.3924751,0.190928,0.7955666,0.5727844,1.0289021  l3.1292419,1.9623718l13.9701328,8.7618542c0.5092068,0.3182755,1.1456356,0.3182755,1.6548424,0l13.9701328-8.7618542  l3.1292419-1.9623718C42.308651,24.7571487,42.4995804,24.3540573,42.4995804,23.9615822z"/>
    <path class="a" d="M42.4995804,18.0319309v5.9296513"/>
    <path class="a" d="M5.5004196,23.9615822v-5.9296513"/>
</svg>
