<?xml version="1.0" encoding="UTF-8" standalone="no"?>
<svg
   viewBox="0 0 48 48"
   version="1.1"
   id="svg10"
   xmlns="http://www.w3.org/2000/svg"
   xmlns:svg="http://www.w3.org/2000/svg">
  <defs
     id="defs4">
    <style
       id="style2">.a{fill:none;stroke:#fff;stroke-linecap:round;stroke-linejoin:round;}</style>
  </defs>
  <path
     class="a"
     d="M 42,29.4 V 39 c 0,1.108 -0.892,2 -2,2 H 6.0000005 c -1.108,0 -2,-0.892 -2,-2 V 12 c 0,-1.108 0.892,-2 2,-2 H 40 c 1.108,0 2,0.892 2,2 v 10" />
  <path
     class="a"
     d="M 6,10 C 6,8.5857864 7.5857864,7 9,7 h 28 c 1.414214,0 3,1.5857864 3,3" />
  <path
     class="a"
     d="m 44.5,22 v 7.4 H 37 c -2.224148,0 -4.054057,-1.801598 -4.054057,-3.7 0,-1.898402 1.854856,-3.7 4.054057,-3.7 z" />
  <path
     class="a"
     d="m 17,26 6,9 6,-9 -6,-10.262956 z" />
  <path
     class="a"
     d="m 17,26 6,4 6,-4" />
</svg>
