<svg id="Layer_2" data-name="Layer 2" xmlns="http://www.w3.org/2000/svg" viewBox="0 0 48 48"><defs><style>.cls-1{fill:none;stroke:#fff;stroke-linecap:round;stroke-linejoin:round;}</style></defs><path class="cls-1" d="M28.65,21.33l4.93,7.74L35,27a.86.86,0,0,1,.1-.16,1.79,1.79,0,0,1,.51-.48l.05,0,.1-.06.06,0,.1,0,.09,0,.09,0,.08,0,.07,0,.12,0h.43l.15,0,.18.05.16,0a0,0,0,0,0,0,0l.15.07h0a2,2,0,0,1,.55.46l.09.13v0l0,.06s0,0,0,0l5.1,7.54a1.84,1.84,0,0,1-1.61,2.73H6.32a1.84,1.84,0,0,1-1.84-1.84,1.81,1.81,0,0,1,.23-.88L19.29,11.67c0-.06.07-.11.1-.16v0a1.8,1.8,0,0,1,.54-.49l.15-.08s0,0,0,0l.14-.06h0l.13,0,.07,0,.1,0h.57l.11,0h0l.15,0h0l.14,0h0l0,0,.14.07a1.92,1.92,0,0,1,.66.61.35.35,0,0,0,0,.08l0,0,1.71,2.68"/><line class="cls-1" x1="24.22" y1="14.38" x2="28.65" y2="21.33"/><path class="cls-1" d="M28.64,21.18a5.36,5.36,0,1,0-3.59-5.49"/></svg>