<svg xmlns="http://www.w3.org/2000/svg" viewBox="0 0 48 48"><path fill="none" stroke="#fff" stroke-linecap="round" stroke-linejoin="round" d="M44.198 44.327c1.516-.849-9.376-10.756-14.208-16.072l-1.74-3.19c7.801-2.54 17.47-5.26 15.203-10.48-1.848-3.72-10.384 6.103-15.823 9.279C33.595 18.162 40.554 5.56 35.46 3.65c-4.99-1.684-4.091 10.902-9.238 18.972l-1.409-.829c-1.79-2.226-2.102-1.031-2.733-.413-.544.646-2.07 1.031.413 3.065l.581 1.16C17.11 30.037 2.907 28.37 3.688 33.35c.538 1.38 4.685 6.776 20.753-5.965-1.274 2.85-12.572 11.219-9.735 14.125 1.034 1.039 6.448 2.33 11.227-13.297l2.444 1.408c5.26 4.97 14.617 16.414 15.823 14.705z"/></svg>