<?xml version="1.0" encoding="UTF-8"?>
<svg version="1.1" viewBox="0 0 48 48" xmlns="http://www.w3.org/2000/svg">
 <defs>
  <style>.a{fill:none;stroke:#fff;stroke-linecap:round;stroke-linejoin:round;}.b{fill:#fff;}</style>
 </defs>
 <path class="a" d="m24.91 31.83h-8.027c-8.39-0.7474-8.345-13.02 0.05-13.71 1.54-5.88 6.18-8.45 10.64-8.21 3.617 0.1646 6.872 2.246 8.54 5.46 10.47 1.8 9.21 15.22 0 16.46h-9.193"/>
 <path class="a" d="m22.45 10.95c-1.866-3.758-6.84-4.628-9.871-1.728-2.974 2.846-2.404 7.721 1.087 9.82"/>
 <path class="a" d="m27.11 26.9-3.008 7.402 2.913 1.476-1.248 5.754 3.808-6.497-2.836-1.517z" fill="none" stroke="#fff" stroke-linecap="round" stroke-linejoin="round" stroke-width="1px"/>
 <circle class="b" cx="15.68" cy="35.02" r=".75"/>
 <circle class="b" cx="20.97" cy="34.15" r=".75"/>
 <circle class="b" cx="17.87" cy="42.1" r=".75"/>
 <circle class="b" cx="33.1" cy="35.16" r=".75"/>
 <circle class="b" cx="31.18" cy="39.71" r=".75"/>
 <circle class="b" cx="39.76" cy="34.51" r=".75"/>
 <circle class="b" cx="36.42" cy="37.19" r=".75"/>
 <circle class="b" cx="21.38" cy="37.93" r=".75"/>
 <circle class="b" cx="36.82" cy="41.43" r=".75"/>
</svg>
