<svg id="Layer_1" data-name="Layer 1" xmlns="http://www.w3.org/2000/svg" viewBox="0 0 48 48"><defs><style>.cls-1{fill:none;stroke:#fff;stroke-linecap:round;stroke-linejoin:round;}.cls-2{fill:#fff;}</style></defs><path class="cls-1" d="M40.61,26.64a12.31,12.31,0,0,0-4.32-9.37v0a7.68,7.68,0,0,0-9.91-7.38A10.86,10.86,0,0,0,9.14,22.05,12.41,12.41,0,0,0,19.82,40.82H39.27L32.9,38.07A12.34,12.34,0,0,0,40.61,26.64Z"/><polyline class="cls-1" points="36.47 22.79 34.82 28.09 33.17 22.79 31.52 28.09 29.87 22.79"/><polyline class="cls-1" points="18.13 22.79 16.48 28.09 14.83 22.79 13.18 28.09 11.53 22.79"/><circle class="cls-2" cx="26.38" cy="18.12" r="0.75"/><circle class="cls-2" cx="21.62" cy="18.12" r="0.75"/><circle class="cls-1" cx="24" cy="24.09" r="4"/></svg>