<?xml version="1.0" encoding="UTF-8"?>
<svg version="1.1" viewBox="0 0 48 48" xmlns="http://www.w3.org/2000/svg"><defs><style>.a{fill:none;stroke:#fff;stroke-linecap:round;stroke-linejoin:round;}</style></defs><path d="m36.893 15.626c0.57258 0.05904 1.7764 0.58272 2.2865 0.34278 0.46174-0.21776 0.25204-0.76419 0.49198-1.0445 2.6402-3.0726-2.1022-0.70965-1.4619-2.3651 1.5795-4.0961-26.92-3.9374-27.365-1.6034 0.68135 0.29739 23.814-0.70446 24.93 1.3134-8.0459 1.4549-23.386-0.42055-25.559 1.1776-2.3027 1.6938 3.1946 0.20551 3.3164 0.92459 0.20283 1.1976-4.5295 1.2868-4.2111 2.8888 7.8403-1.1587 17.462-2.7223 27.573-1.6342zm-12.701-7.7811c0.37907 0.03226 3.3794 0.123 3.5528-1.0505 0.0988-0.66539-0.56054-1.7461-0.74806-1.9417-0.24801-0.20567-0.79645 1.5869-0.93558-0.17542-0.0017-0.022239-0.12018-1.5357-0.65128-1.1815-0.36426 1.2866-1.2799 3.6909-1.3388 1.0505-0.29057 0.065458-0.47531 0.31348-0.70168 0.47988-0.42948 0.43956-1.0102 1.5909-0.71781 2.1192 0.30447 0.54239 1.2199 0.67144 1.5405 0.69967zm20.905 24.192c-0.03226-0.22986-0.0988-0.371-0.25607-0.58272-0.74898-1.0272-5.1425-1.7088-7.8072-2.0345-0.41498-2.9392 1.858-11.216-1.9034-12.398-1.6874 0.16672 0.07081 1.7258-0.17341 12.175-1.7482-0.16534-3.6496-0.29438-5.6861-0.3831 1.8582-4.3669 0.3405-13.896-2.0627-11.435-0.49818 0.45063 0.27271 11.293 0.30044 11.36-0.18752-0.0081-5.188-0.1109-5.6074-0.10283-1.4796-3.4917 0.06177-7.3457-0.4958-10.925-0.50744-0.49323-2.3187 0.14299-2.4117 0.21591-0.24916 3.1063-1.9199 8.6225 1.1957 10.749-1.5912 0.04274-3.7297 0.11948-6.3938 0.38109-0.6719-3.1675 1.887-8.2632-0.14917-10.146-2.7729-2.5575-2.8297 9.9337-2.5648 10.463-2.3864 0.41007-4.8508 0.49571-7.164 1.24-0.88244 0.35548-1.1247 0.80391-1.0001 1.3792 0.35616 1.6435 3.7005 0.48502 4.7162 0.08067 6.8499-2.7269 29.965-2.2263 35.038 0.6593 0.24163 0.13746 2.1415 1.1155 2.4277-0.36089 0.01055-0.05446 0.01008-0.23793-2e-3 -0.33471z" fill="none" stroke="#fff" stroke-linecap="round" stroke-linejoin="round"/><g transform="translate(-266.68 -5.2781)"><polyline class="st5" points="280 40.7 278 48.7 276 40.7 274 48.7 272 40.7" fill="none" stroke="#fff" stroke-linecap="round" stroke-linejoin="round" stroke-miterlimit="10"/></g><g transform="translate(-55.327 -5.2781)" fill="none" stroke="#fff" stroke-linecap="round" stroke-linejoin="round" stroke-miterlimit="10"><line class="st5" x1="94" x2="96.6" y1="44.7" y2="44.7"/><polyline class="st5" points="98 48.7 94 48.7 94 40.7 98 40.7"/></g><path class="st5" d="m31.362 43.422v-8h1.8c1.9 0 3.5 1.6 3.5 3.5v1c0 1.9-1.6 3.5-3.5 3.5z" fill="none" stroke="#fff" stroke-linecap="round" stroke-linejoin="round" stroke-miterlimit="10"/><g transform="translate(-41.959 -5.2781)" fill="none" stroke="#fff" stroke-linecap="round" stroke-linejoin="round" stroke-miterlimit="10"><path class="st5" d="m66.7 44.7c1.1 0 2 0.9 2 2s-0.9 2-2 2h-3.3v-8h3.3c1.1 0 2 0.9 2 2s-0.9 2-2 2z"/><line class="st5" x1="66.7" x2="63.3" y1="44.7" y2="44.7"/></g><g transform="translate(-78.67 -5.2781)" fill="none" stroke="#fff" stroke-linecap="round" stroke-linejoin="round" stroke-miterlimit="10"><line class="st5" x1="94" x2="96.6" y1="44.7" y2="44.7"/><polyline class="st5" points="98 48.7 94 48.7 94 40.7 98 40.7"/></g><circle class="st6" cx="29.051" cy="43.122" r=".8" fill="#fff"/></svg>
