<?xml version="1.0" encoding="UTF-8" standalone="no"?>
<svg
   xmlns:dc="http://purl.org/dc/elements/1.1/"
   xmlns:cc="http://creativecommons.org/ns#"
   xmlns:rdf="http://www.w3.org/1999/02/22-rdf-syntax-ns#"
   xmlns:svg="http://www.w3.org/2000/svg"
   xmlns="http://www.w3.org/2000/svg"
   xmlns:sodipodi="http://sodipodi.sourceforge.net/DTD/sodipodi-0.dtd"
   xmlns:inkscape="http://www.inkscape.org/namespaces/inkscape"
   width="45.01231mm"
   height="45.01231mm"
   viewBox="0 0 45.01231 45.012311"
   version="1.1"
   id="svg8"
   inkscape:version="1.0.2 (e86c870879, 2021-01-15)"
   sodipodi:docname="webtoon.svg">
  <defs
     id="defs2">
	
	
	
	
	
	
	
	
	
	
	
	
	
	
	
	
	
	
	
	
	
	
	
	
	
	
	
	
	
	
	
	
	
	
	
	
	
	
	
	
	
	
	
	
	
	
	
	
	
	
	
	
	
	
	
	
	
	
	
	
	
	
	
	
	
	
	
	
	
	
	
	
	
	
	
	
	
	
	
	
	
	
	
	
	
	
	
	
	
	
	
	
	
	
	
	
	
	
	
	
	
	
	
	
	
	
	
	
	
	
	
	
	
	
	
	
	
	
	
	
	
	
	
	
	
	
	
	
	
<style
   id="style2500">.a{fill:none;stroke:#fff;stroke-linecap:round;stroke-linejoin:round;}</style>
<style
   id="style2514">.a{fill:none;stroke:#fff;stroke-linecap:round;stroke-linejoin:round;}</style>
</defs>
  <sodipodi:namedview
     id="base"
     pagecolor="#0000ff"
     bordercolor="#666666"
     borderopacity="1.0"
     inkscape:pageopacity="0"
     inkscape:pageshadow="2"
     inkscape:zoom="3.959798"
     inkscape:cx="60.853597"
     inkscape:cy="86.334102"
     inkscape:document-units="mm"
     inkscape:current-layer="layer1"
     inkscape:document-rotation="0"
     showgrid="false"
     inkscape:pagecheckerboard="false"
     inkscape:window-width="1920"
     inkscape:window-height="1044"
     inkscape:window-x="0"
     inkscape:window-y="130"
     inkscape:window-maximized="1" />
  <metadata
     id="metadata5">
    <rdf:RDF>
      <cc:Work
         rdf:about="">
        <dc:format>image/svg+xml</dc:format>
        <dc:type
           rdf:resource="http://purl.org/dc/dcmitype/StillImage" />
        <dc:title></dc:title>
      </cc:Work>
    </rdf:RDF>
  </metadata>
  <g
     inkscape:label="Layer 1"
     inkscape:groupmode="layer"
     id="layer1"
     transform="translate(-107.78504,-73.214136)">
    <g
       id="g930"
       transform="matrix(1.3940215,0,0,1.3940215,-10.196016,-44.976272)">
		<line
   class="st0"
   x1="99.199997"
   y1="101"
   x2="103.2"
   y2="101"
   id="line922" />

		<line
   class="st0"
   x1="99.199997"
   y1="93"
   x2="103.2"
   y2="93"
   id="line924" />

		<line
   class="st0"
   x1="99.199997"
   y1="97"
   x2="101.8"
   y2="97"
   id="line926" />

		<line
   class="st0"
   x1="99.199997"
   y1="93"
   x2="99.199997"
   y2="101"
   id="line928" />

	</g>
    <g
       id="g980"
       transform="matrix(1.2130624,0,0,1.2130624,-190.58813,-15.336508)">
		<line
   class="st0"
   x1="252.5"
   y1="93"
   x2="257.79999"
   y2="93"
   id="line976" />

		<line
   class="st0"
   x1="255.2"
   y1="101"
   x2="255.2"
   y2="93"
   id="line978" />

	</g>
    <g
       id="g984"
       transform="matrix(1.227934,0,0,1.227934,-96.149972,-16.802675)">
		<polyline
   class="st0"
   points="192.5,101 192.5,93 197.8,101 197.8,93   "
   id="polyline982" />

	</g>
    <path
       class="st0"
       d="m 123.98054,103.9079 c 0,1.77882 1.42308,3.20188 3.08334,3.20188 1.77887,0 3.20193,-1.42306 3.20193,-3.20188 v -3.20194 c 0,-1.778817 -1.42306,-3.20189 -3.20193,-3.20189 -1.77882,0 -3.08334,1.423073 -3.08334,3.20189 z"
       id="path1260"
       style="stroke-width:1.18589" />
    <g
       id="g2478"
       transform="matrix(5.4013072,0,0,5.4013072,299.12875,-84.235052)">
      <path
         class="st4"
         d="m -29.122089,32.311532 c 0.291042,0 0.529167,0.238125 0.529167,0.529167 0,0.291042 -0.238125,0.529167 -0.529167,0.529167 h -0.873125 v -2.116667 h 0.873125 c 0.291042,0 0.529167,0.238125 0.529167,0.529167 0,0.291041 -0.238125,0.529166 -0.529167,0.529166 z"
         id="path1396"
         style="stroke-width:0.265;stroke-miterlimit:10;stroke-dasharray:none" />
      <line
         class="st4"
         x1="-29.122089"
         y1="32.311535"
         x2="-29.995214"
         y2="32.311535"
         id="line1398"
         style="stroke-width:0.265;stroke-miterlimit:10;stroke-dasharray:none" />
    </g>
    <g
       id="g1028"
       transform="matrix(1.3842941,0,0,1.3842941,-278.44039,-44.059027)">
		<g
   id="g1026">
			<polyline
   class="st0"
   points="291.2,93 289.2,101 287.2,93 285.2,101 283.2,93    "
   id="polyline1024" />

		</g>

	</g>
    <path
       class="st0"
       d="m 132.09342,103.9512 c 0,1.77882 1.42307,3.20188 3.08334,3.20188 1.77886,0 3.20193,-1.42306 3.20193,-3.20188 v -3.20194 c 0,-1.778822 -1.42307,-3.201894 -3.20193,-3.201894 -1.77882,0 -3.08334,1.423072 -3.08334,3.201894 z"
       id="path1260-3"
       style="fill:none;stroke:#ffffff;stroke-width:1.18589;stroke-linecap:round;stroke-linejoin:round;stroke-miterlimit:10" />
    <circle
       class="a"
       cx="130.2912"
       cy="95.720291"
       id="circle2518"
       style="stroke-width:1.02301"
       r="21.99465" />
  </g>
  <style
     type="text/css"
     id="style853">
	.st0{fill:none;stroke:#FFFFFF;stroke-linecap:round;stroke-linejoin:round;stroke-miterlimit:10;}
	.st1{fill:#FFFFFF;}
	.st2{fill:none;stroke:#FFFFFF;stroke-width:0.9976;stroke-linecap:round;stroke-linejoin:round;stroke-miterlimit:10;}
	.st3{fill:none;stroke:#FFFFFF;stroke-width:0.9965;stroke-linecap:round;stroke-linejoin:round;stroke-miterlimit:10;}
	.st4{fill:none;stroke:#FFFFFF;stroke-width:0.8662;stroke-linecap:round;stroke-linejoin:round;stroke-miterlimit:10;}
</style>
</svg>
