<svg xmlns="http://www.w3.org/2000/svg" width="48" height="48" viewBox="0 0 48 48"><path fill="none" stroke="#fff" stroke-linecap="round" stroke-linejoin="round" d="M11.64 29.68c-.86-.15-1.01-.78-.7-2.92a8.4 8.4 0 00.15-2.06c-.07-.07-.44.5-.82 1.26-.96 1.9-1.62 2.72-2.6 3.23-1.15.58-2.06.56-2.5-.05-.27-.4-.33-1.2-.33-4.32 0-3.51-.04-3.89-.44-4.4-.56-.71-.55-.9.14-1.44.7-.55 2.08-.6 2.5-.1.26.32.55 3.43.6 6.56.02.5.12.92.24.92.26 0 1.76-2.94 2.28-4.46.2-.6.4-1.52.45-2.05.1-1.1.37-1.44 1.34-1.64.54-.11.8-.04 1.14.3.42.42.45.7.45 4.37 0 2.53.08 3.92.22 3.92.28 0 1.4-2.47 2.4-5.23.98-2.74 1.85-3.55 3.4-3.16.52.13.55.2.44 1.05-.18 1.4-3.25 7.32-4.4 8.49-1.3 1.32-2.75 1.95-3.96 1.73zm9.62-.06c-1.79-.26-2.75-1.22-2.88-2.9-.11-1.33.19-2.07 1.25-3.08.6-.58.84-.65 2-.65 1.16 0 1.36.07 1.83.6 1.1 1.28.28 2.9-1.72 3.44l-.9.24.5.42c.58.47 1.39.52 2.4.17.62-.22.69-.32.57-.85a4 4 0 01.11-1.54c.79-2.91 5.22-3.53 5.22-.73 0 1.06-.3 1.55-1.42 2.25-.72.46-.9.67-.7.86.38.38 1.26.28 2.23-.25.78-.43.87-.57.9-1.38.1-1.9 1.35-3.2 3.15-3.22 1.34-.02 1.98.54 1.98 1.73 0 .93-.53 1.75-1.53 2.4-.76.48-.79.83-.06.93.78.12 1.66-.36 2.61-1.4.5-.54.99-.92 1.1-.84 1.01.62-1.28 3.36-3.13 3.75-1.2.26-2.41.04-3.01-.56-.43-.43-.44-.42-1.47.11a5.57 5.57 0 01-4.42.18c-.6-.29-.86-.31-1.23-.11-.68.36-2.37.57-3.38.43zM39 29.4a1.5 1.5 0 01-.44-.87c0-.44.7-1.31 1.06-1.31.4 0 1.33.92 1.33 1.32 0 .5-.73 1.3-1.2 1.3-.17 0-.51-.2-.75-.44zm.44-3.3c-.62-.67-.58-2.13.11-4.32.73-2.29 1.72-3.48 2.92-3.48.86 0 1.53.5 1.53 1.16 0 .2-.5 1.22-1.1 2.26-.6 1.05-1.25 2.45-1.45 3.1s-.45 1.33-.56 1.48c-.31.41-.96.32-1.45-.2z"/></svg>