<?xml version="1.0" encoding="utf-8"?>
<svg id="b" viewBox="0 0 48 48" version="1.1" xmlns="http://www.w3.org/2000/svg">
  <defs id="defs3810">
    <style id="style3808">.c{fill:none;stroke:#fff;stroke-linecap:round;stroke-linejoin:round;}</style>
  </defs>
  <path style="stroke-width: 1px; stroke-linejoin: miter; stroke-opacity: 1; stroke-linecap: round; fill: none; stroke: rgb(255, 255, 255);" id="path3827"/>
  <g transform="matrix(1, 0, 0, 1, -0.000364, -7.999085)">
    <path style="stroke-width: 1px; stroke-linejoin: miter; stroke-opacity: 1; stroke-linecap: round; fill: none; stroke: rgb(255, 255, 255);" d="M 22.35 31.641 L 17.116 24.474 C 16.982 24.276 16.095 23.005 14.914 22.857 C 14.002 22.743 5.221 22.857 5.221 22.857 C 5.221 22.857 3.714 23.203 4.018 23.871 C 4.322 24.54 15.613 40.423 15.613 40.423 C 15.613 40.423 16.585 41.821 18.286 40.788" id="path3829"/>
    <path style="stroke-width: 1px; stroke-linejoin: miter; stroke-opacity: 1; stroke-linecap: round; fill: none; stroke: rgb(255, 255, 255);" d="M 18.34 40.743 L 30.821 24.137 C 30.955 23.94 31.57 23.039 32.75 22.892 C 33.663 22.778 42.582 22.806 42.582 22.806 C 42.582 22.806 44.291 23.086 43.987 23.754 C 43.683 24.422 32.047 40.622 32.047 40.622 C 32.047 40.622 31.246 41.805 29.544 40.772 L 25.222 35.613" id="path3829-3"/>
  </g>
</svg>