<svg xmlns="http://www.w3.org/2000/svg" viewBox="0 0 48 48"><defs><style>.a{fill:none;stroke:#fff;stroke-linecap:round;stroke-linejoin:round;}</style></defs><polyline class="a" points="17.237 20.492 14.987 27.508 12.869 20.492 10.618 27.508 8.5 20.492"/><line class="a" x1="39.5" y1="20.4919" x2="34.2049" y2="27.5079"/><line class="a" x1="39.5" y1="27.5079" x2="34.2049" y2="20.4919"/><path class="a" d="M24.0055,26.1844a2.5623,2.5623,0,0,1-2.25,1.3237,2.6553,2.6553,0,0,1-2.6476-2.6475V23.14a2.6476,2.6476,0,1,1,5.2952,0v.9266H19.1075"/><path class="a" d="M27.3273,26.1844a2.5624,2.5624,0,0,0,2.25,1.3237,2.6553,2.6553,0,0,0,2.6476-2.6475V23.14a2.6476,2.6476,0,1,0-5.2951,0v.9266h5.2951"/><path class="a" d="M40.5,42.5H7.5a2.0059,2.0059,0,0,1-2-2V7.5a2.0059,2.0059,0,0,1,2-2h33a2.0059,2.0059,0,0,1,2,2v33A2.0059,2.0059,0,0,1,40.5,42.5Z"/></svg>