<svg xmlns="http://www.w3.org/2000/svg" viewBox="0 0 48 48"><defs><style>.a{fill:none;stroke:#fff;stroke-linecap:round;stroke-linejoin:round;}</style></defs><polyline class="a" points="17.043 20.57 14.843 27.43 12.772 20.57 10.571 27.43 8.5 20.57"/><line class="a" x1="39.5" y1="20.5696" x2="34.3222" y2="27.4302"/><line class="a" x1="39.5" y1="27.4302" x2="34.3222" y2="20.5696"/><path class="a" d="M23.662,26.136A2.5058,2.5058,0,0,1,21.4614,27.43a2.5965,2.5965,0,0,1-2.5889-2.5889V23.1587a2.5889,2.5889,0,0,1,5.1778,0v.9061H18.8725"/><path class="a" d="M27.597,26.136A2.5058,2.5058,0,0,0,29.7976,27.43a2.5965,2.5965,0,0,0,2.5889-2.5889V23.1587a2.5889,2.5889,0,0,0-5.1778,0v.9061h5.1778"/><path class="a" d="M40.5,42.5H7.5a2.0059,2.0059,0,0,1-2-2V7.5a2.0059,2.0059,0,0,1,2-2h33a2.0059,2.0059,0,0,1,2,2v33A2.0059,2.0059,0,0,1,40.5,42.5Z"/></svg>