<svg width="48" height="48" xmlns="http://www.w3.org/2000/svg">
  <g style="stroke-width:.909091;fill:#fff;fill-opacity:1">
    <path d="M29.348 10.427a1.72 1.72 0 0 1-1.727 1.726 1.72 1.72 0 0 1-1.727-1.726c0-.96.768-1.727 1.727-1.727.96 0 1.727.768 1.727 1.727M22.058 10.427a1.72 1.72 0 0 1-1.727 1.726 1.72 1.72 0 0 1-1.727-1.726c0-.96.768-1.727 1.727-1.727.96 0 1.727.768 1.727 1.727M35.63 14.072a1.72 1.72 0 0 1-1.726 1.727 1.72 1.72 0 0 1-1.727-1.727c0-.96.768-1.727 1.727-1.727 1.007 0 1.727.768 1.727 1.727M39.276 20.355a1.72 1.72 0 0 1-1.727 1.727 1.72 1.72 0 0 1-1.726-1.727c0-.96.767-1.727 1.726-1.727.96.048 1.727.816 1.727 1.727M39.276 27.645a1.72 1.72 0 0 1-1.727 1.727 1.72 1.72 0 0 1-1.726-1.727c0-.96.767-1.727 1.726-1.727.96 0 1.727.768 1.727 1.727M35.63 33.928a1.72 1.72 0 0 1-1.726 1.727 1.72 1.72 0 0 1-1.727-1.727c0-.96.768-1.727 1.727-1.727 1.007.048 1.727.816 1.727 1.727M15.775 33.928a1.72 1.72 0 0 1-1.727 1.727 1.72 1.72 0 0 1-1.727-1.727c0-.96.768-1.727 1.727-1.727.96.048 1.727.816 1.727 1.727M22.058 37.573A1.72 1.72 0 0 1 20.33 39.3a1.72 1.72 0 0 1-1.727-1.727c0-.96.768-1.726 1.727-1.726.96.047 1.727.815 1.727 1.726M29.348 37.573A1.72 1.72 0 0 1 27.62 39.3a1.72 1.72 0 0 1-1.727-1.727c0-.96.768-1.726 1.727-1.726.96.047 1.727.815 1.727 1.726M12.13 20.355a1.72 1.72 0 0 1-1.727 1.727 1.72 1.72 0 0 1-1.727-1.727c0-.96.768-1.727 1.727-1.727.96.048 1.726.816 1.726 1.727M12.13 27.645a1.72 1.72 0 0 1-1.727 1.727 1.72 1.72 0 0 1-1.727-1.727c0-.96.768-1.727 1.727-1.727.96 0 1.726.768 1.726 1.727M15.775 14.072a1.72 1.72 0 0 1-1.727 1.727 1.72 1.72 0 0 1-1.727-1.727c0-.96.768-1.727 1.727-1.727.96 0 1.727.768 1.727 1.727M30.643 15.463a1.72 1.72 0 0 1-1.727 1.726 1.72 1.72 0 0 1-1.727-1.726c0-.96.768-1.727 1.727-1.727.96.048 1.727.816 1.727 1.727M34.24 19.06a1.72 1.72 0 0 1-1.727 1.727 1.72 1.72 0 0 1-1.726-1.727c0-.96.767-1.727 1.726-1.727.96.048 1.727.816 1.727 1.727M35.535 24a1.72 1.72 0 0 1-1.727 1.727A1.72 1.72 0 0 1 32.082 24c0-.96.767-1.727 1.726-1.727.96 0 1.727.768 1.727 1.727M34.24 28.94a1.72 1.72 0 0 1-1.727 1.727 1.72 1.72 0 0 1-1.726-1.727c0-.96.767-1.727 1.726-1.727.96 0 1.727.768 1.727 1.727M30.643 32.537a1.72 1.72 0 0 1-1.727 1.727 1.72 1.72 0 0 1-1.727-1.727c0-.96.768-1.726 1.727-1.726.96 0 1.727.767 1.727 1.726M25.703 33.832a1.72 1.72 0 0 1-1.727 1.727 1.72 1.72 0 0 1-1.727-1.727c0-.96.768-1.726 1.727-1.726.96.047 1.727.815 1.727 1.726M20.81 32.537a1.72 1.72 0 0 1-1.726 1.727 1.72 1.72 0 0 1-1.727-1.727c0-.96.768-1.726 1.727-1.726.96 0 1.727.767 1.727 1.726M17.165 28.94a1.72 1.72 0 0 1-1.726 1.727 1.72 1.72 0 0 1-1.727-1.727c0-.96.768-1.727 1.727-1.727 1.007 0 1.726.768 1.726 1.727M15.87 24a1.72 1.72 0 0 1-1.726 1.727A1.72 1.72 0 0 1 12.417 24c0-.96.768-1.727 1.727-1.727.96 0 1.727.768 1.727 1.727M17.165 19.06a1.72 1.72 0 0 1-1.726 1.727 1.72 1.72 0 0 1-1.727-1.727c0-.96.768-1.727 1.727-1.727 1.007.048 1.726.816 1.726 1.727M20.81 15.463a1.72 1.72 0 0 1-1.726 1.726 1.72 1.72 0 0 1-1.727-1.726c0-.96.768-1.727 1.727-1.727.96.048 1.727.816 1.727 1.727M25.703 14.168a1.72 1.72 0 0 1-1.727 1.726 1.72 1.72 0 0 1-1.727-1.726c0-.96.768-1.727 1.727-1.727.96 0 1.727.768 1.727 1.727M25.703 5.727a1.72 1.72 0 0 1-1.727 1.726 1.72 1.72 0 0 1-1.727-1.726c0-.96.768-1.727 1.727-1.727.96 0 1.727.767 1.727 1.727M34.863 8.173a1.72 1.72 0 0 1-1.726 1.726 1.72 1.72 0 0 1-1.727-1.726c0-.96.767-1.727 1.727-1.727.959 0 1.726.767 1.726 1.727M41.53 14.887a1.72 1.72 0 0 1-1.727 1.727 1.72 1.72 0 0 1-1.726-1.727c0-.959.767-1.726 1.726-1.726.96 0 1.727.767 1.727 1.726M43.976 24a1.72 1.72 0 0 1-1.727 1.727A1.72 1.72 0 0 1 40.523 24c0-.96.767-1.727 1.726-1.727.96 0 1.727.768 1.727 1.727M41.53 33.16a1.72 1.72 0 0 1-1.727 1.727 1.72 1.72 0 0 1-1.726-1.726c0-.96.767-1.727 1.726-1.727.96 0 1.727.767 1.727 1.727M34.863 39.827a1.72 1.72 0 0 1-1.726 1.727 1.72 1.72 0 0 1-1.727-1.727c0-.959.767-1.726 1.727-1.726.959 0 1.726.767 1.726 1.726M25.703 42.273A1.72 1.72 0 0 1 23.976 44a1.72 1.72 0 0 1-1.727-1.727c0-.959.768-1.726 1.727-1.726.96 0 1.727.767 1.727 1.726M16.59 39.827a1.72 1.72 0 0 1-1.727 1.727 1.72 1.72 0 0 1-1.726-1.727c0-.959.767-1.726 1.726-1.726.96 0 1.727.767 1.727 1.726M9.875 33.16a1.72 1.72 0 0 1-1.726 1.727 1.72 1.72 0 0 1-1.727-1.726c0-.96.767-1.727 1.727-1.727.959 0 1.726.767 1.726 1.727M7.43 24a1.72 1.72 0 0 1-1.727 1.727c-.912 0-1.679-.768-1.679-1.727 0-.96.767-1.727 1.727-1.727.91 0 1.678.768 1.678 1.727M9.875 14.887a1.72 1.72 0 0 1-1.726 1.727 1.72 1.72 0 0 1-1.727-1.727c0-.959.767-1.726 1.727-1.726.959 0 1.726.767 1.726 1.726M16.59 8.173a1.72 1.72 0 0 1-1.727 1.726 1.72 1.72 0 0 1-1.726-1.726c0-.96.767-1.727 1.726-1.727.96 0 1.727.767 1.727 1.727" style="stroke-width:.909091;fill:#fff;fill-opacity:1" transform="matrix(1.1 0 0 1.1 -2.374 -2.4)"/>
  </g>
</svg>
