<?xml version="1.0" encoding="UTF-8"?>
<svg version="1.1" viewBox="0 0 48 48" xmlns="http://www.w3.org/2000/svg">
 <defs>
  <style>.a{fill:none;stroke:#fff;stroke-linecap:round;stroke-linejoin:round;}</style>
 </defs>
 <path class="a" d="M24,2.5A21.5171,21.5171,0,0,0,5.1484,34.3591L2.5,45.5l11.1409-2.6484A21.5044,21.5044,0,1,0,24,2.5Z"/>
 <path class="a" d="m9.5351 20.246 5.4012 13.061a26.372 26.433 0 0 1 11.275-2.6393 23.985 24.041 0 0 1 10.938 2.6393v-13.061a12.887 12.917 0 0 0-4.456-1.7595l-2.7682-6.9701a25.428 25.486 0 0 0-11.005 2.1655c-7.8318 3.4513-9.3846 6.5641-9.3846 6.5641z"/>
</svg>
