<svg xmlns="http://www.w3.org/2000/svg" viewBox="0 0 48 48"><defs><style>.a{fill:none;stroke:#fff;stroke-linecap:round;stroke-linejoin:round;}</style></defs> <path class="a"  d="M7.30,20.12C12.91,18.47,6.00,30.91,9.59,34.57C11.26,36.72,16.41,37.41,20.49,32.74C23.70,38.52,31.38,37.18,35.29,31.39Q36.23,29.97,37.59,26.63L40.26,28.27L42.01,23.52C40.07,22.20,38.34,20.45,37.92,15.38L32.69,15.35C33.11,21.30,31.33,29.47,28.03,30.35Q25.88,30.98,25.92,28.23L27.31,15.38L21.49,15.37C21.15,28.65,13.90,35.17,14.29,26.91L15.42,19.81C16.11,13.71,11.02,13.31,5.65,16.21L7.30,20.12z"/></svg>