<?xml version="1.0" encoding="UTF-8" standalone="no"?>
<svg
   viewBox="0 0 48 48"
   version="1.1"
   id="svg1"
   sodipodi:docname="wg_tunnel.svg"
   inkscape:version="1.3.2 (091e20ef0f, 2023-11-25, custom)"
   xml:space="preserve"
   xmlns:inkscape="http://www.inkscape.org/namespaces/inkscape"
   xmlns:sodipodi="http://sodipodi.sourceforge.net/DTD/sodipodi-0.dtd"
   xmlns="http://www.w3.org/2000/svg"
   xmlns:svg="http://www.w3.org/2000/svg"><sodipodi:namedview
     id="namedview1"
     pagecolor="#000000"
     bordercolor="#999999"
     borderopacity="1"
     inkscape:showpageshadow="0"
     inkscape:pageopacity="0"
     inkscape:pagecheckerboard="0"
     inkscape:deskcolor="#d1d1d1"
     inkscape:zoom="16.520833"
     inkscape:cx="24.181589"
     inkscape:cy="23.636823"
     inkscape:window-width="1920"
     inkscape:window-height="1015"
     inkscape:window-x="0"
     inkscape:window-y="0"
     inkscape:window-maximized="1"
     inkscape:current-layer="svg1" /><defs
     id="defs1"><inkscape:path-effect
       effect="powerstroke"
       id="path-effect2"
       is_visible="true"
       lpeversion="1.3"
       scale_width="1"
       interpolator_type="CubicBezierJohan"
       interpolator_beta="0.2"
       start_linecap_type="zerowidth"
       end_linecap_type="zerowidth"
       offset_points="0,18.867925"
       linejoin_type="extrp_arc"
       miter_limit="4"
       not_jump="false"
       sort_points="true"
       message="&lt;b&gt;Ctrl + click&lt;/b&gt; on existing node and move it" /><style
       id="style1">.a{fill:none;stroke:#fff;stroke-linecap:round;stroke-linejoin:round;}</style><inkscape:path-effect
       effect="fill_between_many"
       method="bsplinespiro"
       autoreverse="false"
       close="false"
       join="false"
       linkedpaths="#path2,0,1"
       id="path-effect3" /></defs><path
     id="path5"
     style="fill:none;fill-opacity:0;stroke:#ffffff;stroke-width:1;stroke-linecap:round;stroke-linejoin:round"
     d="M 23.999999,3.1512215 C 19.313022,8.4270703 13.253931,9.9787479 5.6579577,7.3619176 4.4688932,22.159356 9.8735698,34.877937 23.999999,44.848779 38.126429,34.877937 43.531106,22.159356 42.342041,7.3619176 34.746068,9.9787479 28.686977,8.4270703 23.999999,3.1512215 Z" /><rect
     style="fill:none;fill-opacity:0;stroke:#ffffff;stroke-width:1;stroke-linecap:round;stroke-linejoin:round"
     id="rect6"
     width="14.568587"
     height="11.996874"
     x="16.715708"
     y="21.643871" /><path
     id="path6"
     style="fill:none;fill-opacity:0;stroke:#ffffff;stroke-width:1;stroke-linecap:round;stroke-linejoin:round"
     d="m 19.875044,21.650198 a 4.5264061,7.4312649 0 0 1 -0.401447,-3.059604 4.5264061,7.4312649 0 0 1 4.526405,-7.431265 4.5264061,7.4312649 0 0 1 4.526406,7.431265 v 0 a 4.5264061,7.4312649 0 0 1 -0.401447,3.059607" /><path
     id="path9"
     style="fill:none;fill-opacity:0;stroke:#ffffff;stroke-width:1;stroke-linecap:round;stroke-linejoin:round"
     d="m 24.812803,27.467227 v 0 l 0.953396,3.317389 h -3.532396 l 0.953398,-3.317389 m 2.391451,-1.369597 a 1.5786507,1.5976306 0 0 1 -1.57865,1.597631 1.5786507,1.5976306 0 0 1 -1.578651,-1.597631 1.5786507,1.5976306 0 0 1 1.578651,-1.59763 1.5786507,1.5976306 0 0 1 1.57865,1.59763 z" /></svg>
