<svg xmlns="http://www.w3.org/2000/svg" xml:space="preserve" id="svg990" width="48" height="48" version="1.1"><defs id="defs987"><style id="style1174">.a{fill:none;stroke:#fff;stroke-linecap:round;stroke-linejoin:round}</style></defs><path id="path2517" d="m24.038 27.43-1.116-.967m4.916-.357-3.8 1.324-1.445.29.329-1.257c.396-.546 1.78-3.453 1.78-3.453m3.136 3.096-3.136-3.096L40.54 8.247c1.324.557 2.409 1.69 2.96 2.865zm-21.08-.882c2.507-3.089 4.146-2.27 8.018 1.214 3.871 3.484 5.51 4.303 8.018 1.215m17.595-13.56v24.294c0 .756-.608 1.366-1.365 1.366H5.866c-.757 0-1.366-.61-1.366-1.366V14.134c0-.756.61-1.366 1.366-1.366v0H35.69" style="fill:none;stroke:#fff;stroke-width:1;stroke-linecap:round;stroke-linejoin:round;stroke-dasharray:none;stroke-opacity:1;stop-color:#000"/></svg>