<?xml version="1.0" encoding="UTF-8"?>
<svg width="48" height="48" version="1.1" viewBox="0 0 12.7 12.7" xmlns="http://www.w3.org/2000/svg">
 <g fill="none" stroke="#000" stroke-linecap="round" stroke-linejoin="round">
  <path transform="matrix(.44319 0 0 .44319 3.1175 4.3347)" d="m16.339 13.593c-0.06923 0.06923-8.9479 3.7469-9.0458 3.7469-0.097911 0-8.9766-3.6777-9.0458-3.7469-0.069233-0.06923-3.7469-8.9479-3.7469-9.0458 0-0.097911 3.6777-8.9766 3.7469-9.0458 0.069233-0.069233 8.9479-3.7469 9.0458-3.7469s8.9766 3.6777 9.0458 3.7469c0.06923 0.069234 3.7469 8.9479 3.7469 9.0458s-3.6777 8.9766-3.7469 9.0458z" stroke-width=".597" style="paint-order:stroke fill markers"/>
  <path class="st0" transform="matrix(.45871 0 0 .45871 -125.39 -38.145)" d="m291.2 93 2.6e-4 8-4.0003-3.4233-4.007 3.4233 7e-3 -8" stroke-miterlimit="10" stroke-width=".5768"/>
 </g>
 <style type="text/css">.st0{fill:none;stroke:#000;stroke-linecap:round;stroke-linejoin:round;}</style>
 <style type="text/css">.st0{fill:none;stroke:#000;stroke-linecap:round;stroke-linejoin:round;stroke-miterlimit:10;}
	.st1{fill:#FFFFFF;}
	.st2{fill:none;stroke:#FFFFFF;stroke-width:0.9976;stroke-linecap:round;stroke-linejoin:round;stroke-miterlimit:10;}
	.st3{fill:none;stroke:#FFFFFF;stroke-width:0.9965;stroke-linecap:round;stroke-linejoin:round;stroke-miterlimit:10;}
	.st4{fill:none;stroke:#FFFFFF;stroke-width:0.8662;stroke-linecap:round;stroke-linejoin:round;stroke-miterlimit:10;}</style>
</svg>
