<?xml version="1.0" encoding="UTF-8"?>
<svg version="1.1" viewBox="0 0 48 48" xml:space="preserve" xmlns="http://www.w3.org/2000/svg"><defs><style>.a{fill:none;stroke:#fff;stroke-linecap:round;stroke-linejoin:round;}</style></defs><circle class="a" cx="24" cy="24" r="21.5"/><g transform="translate(-265.6,-38)">
		<polyline class="st5" points="279.3 59.3 277.6 64.7 276 59.3 274.4 64.7 272.7 59.3" fill="none" stroke="#fff" stroke-linecap="round" stroke-linejoin="round" stroke-miterlimit="10"/>
	</g><path class="st5" d="m38.9 26.7v0c-1.1 0-2-0.9-2-2v-1.3c0-1.1 0.9-2 2-2v0c1.1 0 2 0.9 2 2v1.3c0 1.1-0.9 2-2 2z" fill="none" stroke="#fff" stroke-linecap="round" stroke-linejoin="round" stroke-miterlimit="10"/><g transform="translate(-194.3,-38)" fill="none" stroke="#fff" stroke-linecap="round" stroke-linejoin="round" stroke-miterlimit="10">
		<path class="st5" d="m225 61.3c0-1.1 0.9-2 2-2"/>
		<line class="st5" x1="225" x2="225" y1="59.3" y2="64.7"/>
	</g><g transform="translate(-117.9 -38)">
		<circle class="st6" cx="136" cy="56.9" r=".7" fill="#fff"/>
		<line class="st5" x1="136" x2="136" y1="59.3" y2="64.7" fill="none" stroke="#fff" stroke-linecap="round" stroke-linejoin="round" stroke-miterlimit="10"/>
	</g><g transform="translate(-181.5 -38)">
		
			<path class="st5" d="m204 62.7c0 1.1 0.9 2 2 2v0c1.1 0 2-0.9 2-2v-1.3c0-1.1-0.9-2-2-2v0c-1.1 0-2 0.9-2 2" fill="none" stroke="#fff" stroke-linecap="round" stroke-linejoin="round" stroke-miterlimit="10"/>
		
		<line class="st5" x1="204" x2="204" y1="59.3" y2="67.3" fill="none" stroke="#fff" stroke-linecap="round" stroke-linejoin="round" stroke-miterlimit="10"/>
	</g></svg>
