<svg width="48" height="48" version="1.1" viewBox="0 0 48 48" xmlns="http://www.w3.org/2000/svg">
 <defs>
  <style>.a{fill:none;stroke:#fff;stroke-linecap:round;stroke-linejoin:round;}</style>
  <style>.a{fill:none;stroke:#fff;stroke-linecap:round;stroke-linejoin:round;}</style>
 </defs>
 <g stroke="#fff" stroke-linecap="round" stroke-linejoin="round">
  <circle class="a" cx="24" cy="24" r="21.5"/>
  <g fill="none">
   <g>
    <path d="m24 45.013v-3.3616"/>
    <path d="m13.504 42.2 1.6808-2.9112"/>
    <path d="m5.8206 34.517 2.9112-1.6808"/>
    <path d="m3.0082 24.021 3.3616 1e-6"/>
    <path d="m5.8206 13.525 2.9112 1.6808"/>
    <path d="m13.504 5.8414 1.6808 2.9112"/>
    <path d="m24 3.029-3e-6 3.3616"/>
    <path d="m34.496 5.8414-1.6808 2.9112"/>
    <path d="m42.179 13.525-2.9112 1.6808"/>
    <path d="m44.992 24.021-3.3616-1e-6"/>
    <path d="m42.179 34.517-2.9112-1.6808"/>
    <path d="m34.496 42.2-1.6808-2.9112"/>
   </g>
   <circle cx="24" cy="24" r="2.498" stop-color="#000000" style="paint-order:markers fill stroke"/>
   <g>
    <path d="m24 26.495v7.0632"/>
    <path d="m37.91 24h-11.28"/>
    <path d="m21.953 21.953-8.7442-8.7442"/>
   </g>
  </g>
 </g>
</svg>
