<svg width="48" height="48" viewBox="0 0 12.7 12.7" xmlns="http://www.w3.org/2000/svg"><g fill="none" stroke="#fff" stroke-linecap="round" stroke-linejoin="round" stroke-width=".26"><path class="a" d="M4.57 8.69h-2.8a.17.09 0 0 0-.18.09v1.44a.17.09 0 0 0 .17.09h2.8a.17.09 0 0 0 .18-.09V8.78a.17.09 0 0 0-.17-.09zM6.37 8.54v-2.8a.09.17 0 0 0-.09-.18H4.84a.09.17 0 0 0-.09.17v2.8a.09.17 0 0 0 .09.18h1.44a.09.17 0 0 0 .1-.17zM8 6.82v-2.8a.09.17 0 0 0-.08-.17H6.47a.09.17 0 0 0-.08.17v2.8a.09.17 0 0 0 .08.17h1.45A.09.17 0 0 0 8 6.82z"/><path class="a" d="M10.91 2.3h-2.8a.17.09 0 0 0-.17.09v1.44a.17.09 0 0 0 .17.09h2.8a.17.09 0 0 0 .17-.09V2.4a.17.09 0 0 0-.17-.09z"/></g></svg>