<?xml version="1.0" encoding="UTF-8" standalone="no"?>
<svg
   viewBox="0 0 48 48"
   version="1.1"
   id="svg1"
   sodipodi:docname="wmu.svg"
   inkscape:version="1.3.2 (091e20ef0f, 2023-11-25, custom)"
   xml:space="preserve"
   xmlns:inkscape="http://www.inkscape.org/namespaces/inkscape"
   xmlns:sodipodi="http://sodipodi.sourceforge.net/DTD/sodipodi-0.dtd"
   xmlns="http://www.w3.org/2000/svg"
   xmlns:svg="http://www.w3.org/2000/svg"><sodipodi:namedview
     id="namedview1"
     pagecolor="#000000"
     bordercolor="#999999"
     borderopacity="1"
     inkscape:showpageshadow="0"
     inkscape:pageopacity="0"
     inkscape:pagecheckerboard="0"
     inkscape:deskcolor="#d1d1d1"
     inkscape:zoom="11.681993"
     inkscape:cx="15.493931"
     inkscape:cy="18.019186"
     inkscape:window-width="1920"
     inkscape:window-height="1015"
     inkscape:window-x="0"
     inkscape:window-y="0"
     inkscape:window-maximized="1"
     inkscape:current-layer="svg1" /><defs
     id="defs1"><style
       id="style1">.a{fill:none;stroke:#fff;stroke-linecap:round;stroke-linejoin:round;}</style></defs><g
     id="g4"
     transform="translate(-0.8786233,-2.4222518)"
     style="fill:#ffffff;stroke:#ffffff"><circle
       class="s"
       cx="19.700001"
       cy="36.700001"
       r="0.69999999"
       id="circle387"
       style="fill:#ffffff;stroke:#ffffff;stroke-width:0px" /><line
       class="t"
       x1="19.700001"
       y1="39.149998"
       x2="19.700001"
       y2="44.450001"
       id="line388"
       style="fill:#ffffff;stroke:#ffffff;stroke-linecap:round;stroke-linejoin:round" /></g><path
     id="line409"
     style="fill:none;stroke:#ffffff;stroke-linecap:round;stroke-linejoin:round"
     class="t"
     d="m 33.621442,42.02775 v -5.300003 m 3.999992,5.300002 v -3.3 c 0,-1.1046 -0.8954,-2 -2,-2 v 0 c -1.1046,0 -2,0.8954 -2,2" /><rect
     class="t"
     x="27.556225"
     y="36.727749"
     width="4"
     height="5.3000002"
     rx="2"
     ry="2"
     id="rect373"
     style="fill:none;stroke:#ffffff;stroke-linecap:round;stroke-linejoin:round" /><path
     id="line387"
     style="fill:none;stroke:#ffffff;stroke-linecap:round;stroke-linejoin:round"
     class="t"
     d="m 22.64432,39.181547 2.846695,2.834202 m -3.999207,-1.687401 3.621109,-3.6035 M 21.491015,34.02775 v 8" /><polyline
     class="t"
     points="217.2043 48.65 217.2043 40.65 222.5043 48.65 222.5043 40.65"
     id="polyline364"
     style="fill:none;stroke:#ffffff;stroke-linecap:round;stroke-linejoin:round"
     transform="translate(-206.35256,-6.622251)" /><path
     id="path5"
     style="fill:none;stroke:#ffffff;stroke-linecap:round;stroke-linejoin:round"
     d="M 26.82593 18.618896 L 26.82593 20.105114 C 26.82593 20.925501 26.165473 21.585958 25.345087 21.585958 L 21.230063 21.585957 " /><circle
     style="fill:none;stroke:#ffffff;stroke-linecap:round;stroke-linejoin:round"
     id="path2"
     cx="16.922668"
     cy="15.353513"
     r="3.8086123" /><path
     id="rect2"
     style="fill:none;stroke:#ffffff;stroke-linecap:round;stroke-linejoin:round"
     d="m 13.527919,5.9722495 h 6.789497 l 1,3.1488177 h -8.789497 z"
     sodipodi:nodetypes="ccccc" /><path
     id="path7"
     style="fill:none;stroke:#ffffff;stroke-linecap:round;stroke-linejoin:round"
     d="M 26.82679 18.619375 L 40.980597 18.619375 L 40.980597 31.09583 L 21.231281 31.09583 L 21.231281 21.586147 " /><path
     id="rect1"
     style="fill:none;stroke:#ffffff;stroke-linecap:round;stroke-linejoin:round"
     d="M 21.230063 21.585957 L 8.5002474 21.585958 C 7.6798609 21.585958 7.0194039 20.925501 7.0194039 20.105114 L 7.0194039 10.601911 C 7.0194039 9.781525 7.6798609 9.121068 8.5002474 9.121068 L 8.5002474 9.121068 L 25.345087 9.121068 C 26.165473 9.121068 26.82593 9.781525 26.82593 10.601911 L 26.82593 18.618896 " /><path
     style="fill:none;stroke:#ffffff;stroke-width:1;stroke-linecap:round;stroke-linejoin:round"
     d="m 27.851754,22.585933 v 5.31314 l 6.508453,-2.65657 z"
     id="path3"
     sodipodi:nodetypes="cccc" /></svg>
