<svg version="1.1" viewBox="0 0 48 48" xmlns="http://www.w3.org/2000/svg">
 <defs>
  <style>.a{fill:none;stroke:#fff;stroke-linecap:round;stroke-linejoin:round;}</style>
 </defs>
 <path class="a" d="m40.5 5.5h-33a2 2 0 0 0-2 2v33a2 2 0 0 0 2 2h33a2 2 0 0 0 2-2v-33a2 2 0 0 0-2-2z"/>
 <path d="m15.871 7.9447 4.0646 7.3162-5.6905 2.4388z" fill="none" stroke="#fff" stroke-linecap="round" stroke-linejoin="round"/>
 <path d="m32.17 7.9447-4.0647 7.3162 5.6905 2.4388z" fill="none" stroke="#fff" stroke-linecap="round" stroke-linejoin="round"/>
 <path d="m12.212 19.732 10.162 3.6582 1.6259 4.4711 1.6259-4.4711 10.162-3.6582-2.8453 5.6905 2.0323-0.40647-4.0646 4.0647h1.6259l-3.2517 2.4388-2.8453 7.3162-2.4388 1.2194-2.4388-1.2194-2.8452-7.3162-3.2517-2.4388h1.6259l-4.0646-4.0647 2.0323 0.40647z" fill="none" stroke="#fff" stroke-linecap="round" stroke-linejoin="round"/>
 <path d="m22.014 35.973h3.9712l-1.9856 2.2356z" fill="none" stroke="#fff" stroke-linecap="round" stroke-linejoin="round"/>
 <path d="m17.903 25.829 2.8452 0.81291 1.6259 2.4388-1.2194-1.2194h-2.0323z" fill="none" stroke="#fff" stroke-linecap="round" stroke-linejoin="round"/>
 <path d="m30.096 25.829-2.8453 0.81291-1.6259 2.4388 1.2194-1.2194h2.0323z" fill="none" stroke="#fff" stroke-linecap="round" stroke-linejoin="round"/>
</svg>
