<?xml version="1.0" encoding="UTF-8" standalone="no"?>
<svg
   viewBox="0 0 48 48"
   version="1.1"
   id="svg1"
   sodipodi:docname="woodbox.svg"
   inkscape:version="1.3 (0e150ed6c4, 2023-07-21)"
   xml:space="preserve"
   xmlns:inkscape="http://www.inkscape.org/namespaces/inkscape"
   xmlns:sodipodi="http://sodipodi.sourceforge.net/DTD/sodipodi-0.dtd"
   xmlns="http://www.w3.org/2000/svg"
   xmlns:svg="http://www.w3.org/2000/svg"><sodipodi:namedview
     id="namedview1"
     pagecolor="#505050"
     bordercolor="#eeeeee"
     borderopacity="1"
     inkscape:showpageshadow="0"
     inkscape:pageopacity="0"
     inkscape:pagecheckerboard="0"
     inkscape:deskcolor="#505050"
     inkscape:zoom="5.6568543"
     inkscape:cx="27.84233"
     inkscape:cy="37.388271"
     inkscape:window-width="1920"
     inkscape:window-height="1043"
     inkscape:window-x="1920"
     inkscape:window-y="0"
     inkscape:window-maximized="1"
     inkscape:current-layer="svg1" /><defs
     id="defs1"><style
       id="style1">.a{fill:none;stroke:#fff;stroke-linecap:round;stroke-linejoin:round;}</style></defs><path
     id="path1"
     class="a"
     d="M24.75,3 L31,10.5 A1,1 0 0 1 30.25,12&#10;H27 L34,21 A1,1 0 0 1 33.25,22.5&#10;H27.5 L37.5,34.5 A1,1 0 0 1 36.75,36&#10;H11.25&#10;A1,1 0 0 1 10.5,34.5 L20.5,22.5 H14.75&#10;A1,1 0 0 1 14,21 L21,12 H17.75&#10;A1,1 0 0 1 17,10.5 L23.25,3&#10;A1,1 0 0 1 24.75,3" /><rect
     id="rect1"
     class="a"
     rx="1"
     width="6"
     height="6"
     y="39"
     x="21"
     style="fill:none" /></svg>
