<?xml version="1.0" encoding="utf-8"?>
<!-- Generator: Adobe Illustrator 26.0.2, SVG Export Plug-In . SVG Version: 6.00 Build 0)  -->
<svg version="1.1" xmlns="http://www.w3.org/2000/svg" xmlns:xlink="http://www.w3.org/1999/xlink" x="0px" y="0px"
	 viewBox="0 0 48 48" style="enable-background:new 0 0 48 48;" xml:space="preserve">
<g id="Layer_1" style="display:none;">
	
		<rect x="-298.921" y="-83.181" style="display:inline;fill:#282828;stroke:#FFFFFF;stroke-width:0;stroke-miterlimit:10;" width="3706.467" height="4077.28"/>
</g>
<g id="Layer_2">
	<g>
		<path style="fill:none;stroke:#FFFFFF;stroke-miterlimit:10;" d="M29.362,1.134c-9.539-0.024-17.3,7.614-17.338,17.065
			c-0.04,9.89,7.538,17.666,17.239,17.69c9.658,0.023,17.486-7.719,17.513-17.322C46.802,8.973,38.996,1.159,29.362,1.134z"/>
		<path style="fill:none;stroke:#FFFFFF;stroke-miterlimit:10;" d="M0.898,43.051c0.116,1.678,1.068,3.016,2.851,3.762
			c1.73,0.723,3.233,0.278,4.482-1.004c0.602-0.618,1.138-1.305,1.649-1.998c2.326-3.157,2.025-3.381,4.74-6.235
			c3.276-3.443,2.545-2.363-0.185-5.342c-0.682-0.744-1.206-0.67-1.891-0.014c-3.86,3.694-5.302,4.145-9.757,7.138
			C1.553,40.187,0.892,41.357,0.898,43.051z"/>
		<g>
			
				<line style="fill:none;stroke:#FFFFFF;stroke-linecap:round;stroke-miterlimit:10;" x1="21.897" y1="11.736" x2="25.173" y2="25.286"/>
			
				<line style="fill:none;stroke:#FFFFFF;stroke-linecap:round;stroke-miterlimit:10;" x1="25.173" y1="25.286" x2="29.388" y2="11.736"/>
			
				<line style="fill:none;stroke:#FFFFFF;stroke-linecap:round;stroke-miterlimit:10;" x1="29.388" y1="11.736" x2="33.608" y2="25.286"/>
			
				<line style="fill:none;stroke:#FFFFFF;stroke-linecap:round;stroke-miterlimit:10;" x1="33.608" y1="25.286" x2="36.902" y2="11.736"/>
		</g>
	</g>
</g>
</svg>
