<svg version="1.1" viewBox="0 0 48 48" xmlns="http://www.w3.org/2000/svg">
 <g stroke="#fff" stroke-linecap="round" stroke-linejoin="round">
  <g fill="none">
   <path d="m6.5 6.5h35v35h-35v-23.5z" style="paint-order:stroke fill markers"/>
   <g stroke-width="1px">
    <path d="m18.175 6.5v35"/>
    <path d="m29.875 6.5v35"/>
    <path d="m6.5 18.175h35"/>
    <path d="m6.5 29.875h35"/>
    <path d="m8.42 8.425 2 8 2-8 2 8 2-8" stroke="#fff" stroke-linecap="round" stroke-linejoin="round"/>
   </g>
   <path class="st5" d="m24 16.425c-1.4636 0-2.65-1.1864-2.65-2.65v-2.7c0-1.4636 1.1864-2.65 2.65-2.65s2.65 1.1864 2.65 2.65v2.7c0 1.4636-1.1864 2.65-2.65 2.65z" stroke-miterlimit="10"/>
   <path class="st5" d="m32.97 16.425v-8h2.619c1.4806 0 2.681 1.2029 2.681 2.6867s-1.2003 2.6867-2.681 2.6867h-2.619" stroke="#fff" stroke-linecap="round" stroke-linejoin="round"/>
   <line class="st5" x1="35.59" x2="38.21" y1="13.799" y2="16.423" stroke="#fff" stroke-linecap="round" stroke-linejoin="round"/>
   <path class="st5" d="m32.975 28.027v-8h1.8c1.933 0 3.5 1.567 3.5 3.5v1c0 1.933-1.567 3.5-3.5 3.5z" stroke-miterlimit="10"/>
   <g stroke="#fff" stroke-linecap="round" stroke-linejoin="round">
    <line class="st5" x1="37.355" x2="33.889" y1="36.949" y2="36.949"/>
    <path d="m33.025 39.601 2.6-7.976 2.6 8" stroke-width="1px"/>
    <path d="m20 39.616v-7.991l4 8 4-7.988v7.988" stroke-width="1px"/>
   </g>
   <line class="st5" x1="10.425" x2="13.033" y1="35.625" y2="35.625"/>
   <polyline class="st5" transform="translate(-83.575,-9.025)" points="98 48.65 94 48.65 94 40.65 98 40.65"/>
   <path d="m9.77 28v-8l5.3 8v-8" stroke="#fff" stroke-linecap="round" stroke-linejoin="round" stroke-width="1px"/>
  </g>
  <line class="st5" x1="21.35" x2="26.65" y1="20" y2="20"/>
  <line class="st5" x1="24" x2="24" y1="28" y2="20"/>
 </g>
</svg>
