<svg xmlns="http://www.w3.org/2000/svg" viewBox="0 0 48 48"><defs><style>.a{fill:none;stroke:#fff;stroke-linecap:round;stroke-linejoin:round;}</style></defs><path class="a" d="M31.32,12.12a4.47,4.47,0,1,1-4.47,4.47,4.47,4.47,0,0,1,4.47-4.47ZM20,21l7.22,7.22a.7.7,0,0,0,.99.01l.01-.01,1.38-1.38a.71.71,0,0,1,1,0l7.81,7.81a.7.7,0,0,1-.5,1.2H10.08a.7.7,0,0,1-.58-1.1L19,21.13a.7.7,0,0,1,.9791-.1461Z"/><path class="a" d="M42.52,14.5v-7a2,2,0,0,0-2-2H33.5"/><path class="a" d="M14.5,5.5H7.48a2,2,0,0,0-2,2v7"/><path class="a" d="M33.5,42.5h7.02a2,2,0,0,0,2-2v-7"/><path class="a" d="M5.48,33.5v7a2,2,0,0,0,2,2H14.5"/></svg>