<?xml version="1.0" encoding="UTF-8"?><svg id="a" xmlns="http://www.w3.org/2000/svg" viewBox="0 0 48 48"><defs><style>.l{fill:none;stroke:#fff;stroke-linecap:round;stroke-linejoin:round;}</style></defs><path id="b" class="l" d="M40.5,5.5H7.5c-1.1046,0-2,.8954-2,2V40.5c0,1.1046,.8954,2,2,2H40.5c1.1046,0,2-.8954,2-2V7.5c0-1.1046-.8954-2-2-2Z"/><path id="c" class="l" d="M14.2629,19.2988l-8.7629,14.3108"/><path id="d" class="l" d="M31.3493,7.8655L14.2629,19.2988"/><path id="e" class="l" d="M42.5,22.6274h-14.2833c-3.2068,.0354-7.7344,3.1231-7.7077,7.8655v12.0071"/><path id="f" class="l" d="M31.3493,7.8655l-1.6227,14.7619"/><path id="g" class="l" d="M26.4195,11.1643l4.2756,2.6534"/><path id="h" class="l" d="M14.2629,19.2988l8.6865,5.6816"/><path id="i" class="l" d="M30.5155,25.8052c-.7759,4.4368-.5842,8.4592,.2817,12.3279"/><path id="j" class="l" d="M26.0418,27.9575c3.4754,.3531,6.918,.165,10.3333-.4733"/><path id="k" class="l" d="M34.5496,29.5914c-.1825,5.724-8.7507,11.1096-8.6656,6.4682,.0443-2.4122,3.2728-5.1557,6.5133-5.1948,2.4688-.0298,5.3668,.8827,5.3864,3.0989,.0259,2.9331-2.369,4.6248-4.9357,4.8342"/></svg>