<svg xmlns="http://www.w3.org/2000/svg" viewBox="0 0 48 48"><defs><style>.a{fill:none;stroke:#fff;stroke-linecap:round;stroke-linejoin:round;}</style></defs><path class="a" d="M6.0526,6.4362v35.06A2,2,0,0,0,8.048,43.5h2.3247V4.4336H8.048A2,2,0,0,0,6.0526,6.437Z"/><path class="a" d="M14.603,4.45l-4.23-.0172m0,39.066h13.134m9.6613,0h2.0186a1.9994,1.9994,0,0,0,1.9954-2.0034V36.213M31.5938,4.437l-9.25.0124"/><path class="a" d="M14.603,4.45v8.82l3.86-3.91,3.88,3.91V4.45"/><path class="a" d="M27.121,44.486l-2.8634-5.2884L31.31,15.2906l8.0118,2.43L32.26,41.6742Z"/><path class="a" d="M36.434,5.3107a2.0973,2.0973,0,0,0-2.6014,1.4234L32.4745,11.34l8.0291,2.3708,1.358-4.6057a2.0987,2.0987,0,0,0-1.4065-2.6068l-.0059-.0018Z"/></svg>