<svg xmlns="http://www.w3.org/2000/svg" xml:space="preserve" id="svg990" width="48" height="48" version="1.1"><defs id="defs987"><style id="style1174">.a{fill:none;stroke:#fff;stroke-linecap:round;stroke-linejoin:round}</style></defs><path id="rect17135" d="M4.5 21.517h2.823a3.771 3.771 0 0 1 3.78 3.78v7.687h4.31V20.719c0-4.226 4.674-7.49 6.439-10.318.942-1.382 1.152-2.492 1.32-4.061.167 1.57.393 2.68 1.335 4.06 1.765 2.828 6.44 6.093 6.44 10.319v.798h8.773a3.771 3.771 0 0 1 3.78 3.78V41.66m-7.447-4.274c-.897 0-1.62-.723-1.62-1.62v-1.342c0-.897.723-1.62 1.62-1.62h3.976v8.856m-17.578-.76h3.77a4.856 4.856 0 0 0 4.864-4.859 4.857 4.857 0 0 0 4.865 4.86m-4.865-6.588a4.856 4.856 0 0 1 4.865-4.86h4.317v-3.11c0-.898-.722-1.62-1.62-1.62H31.08V36.04M18.758 22.384V19.97c0-1.254 2.65-4.403 4.414-6.212 1.763 1.81 4.413 4.958 4.413 6.212v15.761c0 .898-.783 1.62-1.68 1.62h-3.346m-3.8-12.63V41.66m-7.673 0v-5.272h4.466v5.272M4.5 36.388h3.231v5.272M4.5 24.914h1.61c.898 0 1.62.722 1.62 1.62l.001 6.45H4.5" style="fill:none;stroke:#fff;stroke-width:1;stroke-linecap:round;stroke-linejoin:round;stroke-dasharray:none;stroke-opacity:1;stop-color:#000"/></svg>