<svg xmlns="http://www.w3.org/2000/svg" xml:space="preserve" id="svg990" width="48" height="48" version="1.1"><defs id="defs987"><style id="style1174">.a{fill:none;stroke:#fff;stroke-linecap:round;stroke-linejoin:round}</style></defs><path id="path16024" d="M18.322 11.903a15.495 15.495 0 0 1 9.683-3.398A15.495 15.495 0 0 1 43.5 24v0a15.495 15.495 0 0 1-15.495 15.495 15.495 15.495 0 0 1-9.683-3.398m13.73-7.282c-.892 1.783-2.972 2.972-5.052 2.972v0c-3.27 0-5.944-2.675-5.944-5.943V21.98c0-3.268 2.675-5.943 5.944-5.943v0c3.268 0 5.943 2.675 5.943 5.943v2.08H21.056m-4.67 7.727L4.5 15.74m11.887 0L4.5 31.787" style="fill:none;stroke:#fff;stroke-width:1;stroke-linecap:round;stroke-linejoin:round;stroke-dasharray:none;stroke-opacity:1;stop-color:#000"/></svg>