<svg xmlns="http://www.w3.org/2000/svg" xml:space="preserve" id="svg990" width="48" height="48" version="1.1"><defs id="defs987"><style id="style1174">.a{fill:none;stroke:#fff;stroke-linecap:round;stroke-linejoin:round}</style></defs><path id="path17952" d="M41.907 18.385c.795.304 1.273.85 1.593 1.619m-8.187-2.751v13.494m-3.682-6.542h10.012c.622 0 1.123.5 1.123 1.122v3.584a1.12 1.12 0 0 1-1.123 1.122h-1.816m-7.185-10.88H38.5c.622 0 1.122.5 1.122 1.122v3.584M27.38 19.143v10.89m-3.943 0h7.34m-6.105-10.89h5.208M17.673 29.817c.487.177 1.494.256 3.235.212m1.38-8.244h-1.85c-1.413 0-1.704.152-1.122-1.123l1.533-3.363m1.327 8.977h-1.065c-1.412 0-1.703.152-1.122-1.123l1.534-3.363m-11.388-4.256v11.494a1.12 1.12 0 0 1-1.123 1.122h-1.01m6.714-9.048c0 2.544.273 5.854.95 7.107M5.45 21.102c0 2.544-.273 5.854-.95 7.107" style="fill:none;stroke:#fff;stroke-width:1;stroke-linecap:round;stroke-linejoin:round;stroke-dasharray:none;stroke-opacity:1;stop-color:#000"/></svg>