<?xml version="1.0" encoding="UTF-8"?>
<svg version="1.1" viewBox="0 0 48 48" xmlns="http://www.w3.org/2000/svg" xmlns:xlink="http://www.w3.org/1999/xlink">
 <defs>
  <style>.a{fill:none;stroke:#fff;stroke-linecap:round;stroke-linejoin:round;}</style>
 </defs>
 <path class="a" d="m21 13.4h2.8c0.821 0 1.737 0.6684 1.991 1.449 0.3229 0.9928-1.253 1.977-0.9637 2.98 0.3203 1.109 1.505 2.263 2.658 2.221 1.132-0.04117 2.178-1.261 2.443-2.362 0.2311-0.9624-1.251-1.861-0.9642-2.808 0.2351-0.7773 1.123-1.479 1.935-1.479h3.2c0.6128 0 1.3 0.6872 1.3 1.3v4.7c0 0.8796 0.5541 1.925 1.369 2.256 1.116 0.4525 2.356-1.299 3.496-0.91 1.023 0.3494 2.009 1.485 1.985 2.567-0.02447 1.089-1.068 2.184-2.113 2.492-1.061 0.3129-2.129-1.318-3.177-0.9628-0.8434 0.2856-1.56 1.278-1.56 2.169v4.69c0 0.6128-0.6872 1.3-1.3 1.3h-13.1l4e-5 8c7e-6 1.414 1.586 3 3 3h18c1.414 0 3-1.586 3-3v-34c0-1.414-1.586-3-3-3h-18c-1.414 0-3 1.586-3 3z"/>
 <path class="a" d="m3 13.4h2.8c0.821 0 1.737 0.6684 1.991 1.449 0.3229 0.9928-1.253 1.977-0.9637 2.98 0.3203 1.109 1.505 2.263 2.658 2.221 1.132-0.04117 2.178-1.261 2.443-2.362 0.2311-0.9624-1.251-1.861-0.9642-2.808 0.2351-0.7773 1.123-1.479 1.935-1.479h3.2c0.6128 0 1.3 0.6872 1.3 1.3v4.7c0 0.8796 0.5541 1.925 1.369 2.256 1.116 0.4525 2.356-1.299 3.496-0.91 1.023 0.3494 2.009 1.485 1.985 2.567-0.02447 1.089-1.068 2.184-2.113 2.492-1.061 0.3129-2.129-1.318-3.177-0.9628-0.8434 0.2856-1.56 1.278-1.56 2.169v4.69c0 0.6128-0.6872 1.3-1.3 1.3h-13.1z"/>
</svg>
