<?xml version="1.0" encoding="UTF-8"?>
<svg data-name="Layer 2" version="1.1" viewBox="0 0 48 48" xmlns="http://www.w3.org/2000/svg">
 <defs>
  <style>.cls-1{fill:none;stroke:#fff;stroke-linecap:round;stroke-linejoin:round;}</style>
 </defs>
 <path class="cls-1" d="m14.83 17.14c1.198 0 2.17 0.9715 2.17 2.17v3.38h1.2c0.3743-0.6649 1.077-1.077 1.84-1.08 3.062-0.2092 3.062 4.499 0 4.29-0.7624-0.0047-1.464-0.4166-1.84-1.08h-1.2v3.45c-0.0055 1.202-0.9876 2.171-2.19 2.16h-10.31v-13.34l4.79 0.04v0.51c-1.906 1.096-1.922 3.841-0.02918 4.959 1.893 1.118 4.289-0.2205 4.329-2.419 0.02336-1.026-0.4977-1.989-1.37-2.53v-0.51z"/>
 <path class="cls-1" d="m26.46 18.34c-0.6698 0.3766-1.077 1.092-1.06 1.86-1.3e-5 1.186 0.9642 2.146 2.15 2.14 2.229 0.04282 3.017-2.933 1.06-4v-1.16l3.05-0.04c1.168 0.01583 2.113 0.9527 2.14 2.12v3.05h0.81c0.5114-0.8735 1.448-1.41 2.46-1.41h0.02c2.202-0.0085 3.587 2.369 2.493 4.28-1.093 1.911-3.845 1.922-4.953 0.01984h-0.83v3.06c1.3e-5 1.195-0.9654 2.164-2.16 2.17h-10.33v8.57c0 1.044 0.8462 1.89 1.89 1.89h18.42c1.038-0.01091 1.875-0.8523 1.88-1.89v-30c0.01669-1.053-0.8267-1.919-1.88-1.93h-18.42c-1.06-2.373e-4 -1.912 0.8706-1.89 1.93v8.13h5.15z"/>
</svg>
