<svg id="Layer_2" data-name="Layer 2" xmlns="http://www.w3.org/2000/svg" viewBox="0 0 48 48"><defs><style>.cls-1{fill:none;stroke:#000;stroke-linecap:round;stroke-linejoin:round;}</style></defs><path class="cls-1" d="M29.08,20.17A1.45,1.45,0,0,0,29,20a3.89,3.89,0,0,0-.33-.68,4.34,4.34,0,0,0-.85-1,4.4,4.4,0,0,0-1.16-.69,5.07,5.07,0,0,0-1.38-.34,5.31,5.31,0,0,0-1.49.07,5.55,5.55,0,0,0-1.47.5,6.44,6.44,0,0,0-1.33.92,6.17,6.17,0,0,0-1.92,4.72,6.84,6.84,0,0,0,.32,1.86,7.64,7.64,0,0,0,.86,1.77,7.83,7.83,0,0,0,1.38,1.54,8.35,8.35,0,0,0,1.81,1.17,8.76,8.76,0,0,0,4.48.78,9.49,9.49,0,0,0,4.56-1.69,9.9,9.9,0,0,0,1.87-1.73A10.2,10.2,0,0,0,35.71,25a10.14,10.14,0,0,0,0-8,10.9,10.9,0,0,0-1.5-2.52A11.47,11.47,0,0,0,32,12.29a12.43,12.43,0,0,0-2.75-1.5A12.65,12.65,0,0,0,26.13,10a13.17,13.17,0,0,0-3.32.06,13.31,13.31,0,0,0-8.7,5.21,13.86,13.86,0,0,0-1.73,3.13,13.75,13.75,0,0,0-.71,7.25,14.1,14.1,0,0,0,1.15,3.63A14.71,14.71,0,0,0,15,32.57a15.26,15.26,0,0,0,3,2.68,15.91,15.91,0,0,0,3.68,1.86,16.94,16.94,0,0,0,16.39-3,17,17,0,0,0,6.12-11.84,17.43,17.43,0,0,0-.27-4.67,17.65,17.65,0,0,0-1.55-4.52A18.27,18.27,0,0,0,39.57,9a19.33,19.33,0,0,0-3.79-3.26,20,20,0,0,0-4.61-2.23,20.45,20.45,0,0,0-5.13-1A20.86,20.86,0,0,0,4.27,27.67,21.62,21.62,0,0,0,6.2,33.09,22.23,22.23,0,0,0,9.56,37.9a23.11,23.11,0,0,0,4.59,3.85,23.71,23.71,0,0,0,5.54,2.59,24.45,24.45,0,0,0,7.44,1.16,25,25,0,0,0,16.35-6.14"/></svg>