<?xml version="1.0" encoding="UTF-8"?>
<svg version="1.1" viewBox="0 0 48 48" xml:space="preserve" xmlns="http://www.w3.org/2000/svg"><defs><style>.a{fill:none;stroke:#fff;stroke-linecap:round;stroke-linejoin:round;}</style><style>.c{stroke-width:1px;}.c,.d{fill:none;stroke:#fff;stroke-linecap:round;stroke-linejoin:round;}.e{fill:#fff;stroke-width:0px;}</style></defs><g transform="matrix(.68274 0 0 .68274 3.0323 3.0316)" fill="none" stroke="#fff" stroke-linecap="round" stroke-width="1.4647" style="paint-order:stroke fill markers"><path d="m30.71 0c-16.96 0-30.71 13.749-30.71 30.712 0 16.96 13.75 30.712 30.71 30.712 16.961 0 30.712-13.752 30.712-30.712 0-16.963-13.75-30.712-30.712-30.712zm0 57.957c-15.047 0-27.247-12.199-27.247-27.245 0-15.049 12.199-27.247 27.247-27.247s27.247 12.198 27.247 27.247c0 15.046-12.199 27.245-27.247 27.245z" style="paint-order:stroke fill markers"/><path d="m53.032 43.08-4.459-5.207c-0.055-0.063-0.12-0.117-0.195-0.161-0.228-0.13-0.496-0.133-0.717-0.026-0.681 0.322-1.504 0.316-2.206-0.089-0.625-0.358-1.023-0.962-1.147-1.618h1e-3c-0.314-1.671-1.326-3.199-2.913-4.114l-1.997-1.152 11.353-6.554-1.405-2.435-12.758 7.365-1.533-0.884v-1.771l12.757-7.366-1.405-2.434-11.352 6.555v-2.305c0-1.833-0.818-3.474-2.107-4.58-0.507-0.434-0.829-1.08-0.829-1.801 0-0.811 0.406-1.529 1.027-1.957 0.203-0.138 0.334-0.372 0.334-0.635 0-0.087-0.014-0.171-0.04-0.249l-2.279-6.464c-0.063-0.189-0.241-0.324-0.45-0.324-0.208 0-0.386 0.135-0.449 0.324l-2.278 6.464c-0.027 0.078-0.041 0.162-0.041 0.249 0 0.263 0.132 0.497 0.333 0.635h1e-3c0.62 0.428 1.027 1.146 1.027 1.957 0 0.721-0.321 1.367-0.83 1.801-1.29 1.106-2.106 2.748-2.106 4.58v2.305l-11.353-6.555-1.405 2.434 12.758 7.366v1.772l-1.533 0.883-12.758-7.365-1.404 2.435 11.353 6.554-1.998 1.152c-1.587 0.915-2.599 2.443-2.912 4.114-0.124 0.656-0.521 1.26-1.146 1.618-0.703 0.405-1.525 0.411-2.207 0.089-0.222-0.106-0.489-0.104-0.716 0.026-0.076 0.044-0.142 0.099-0.195 0.161l-4.46 5.205c-0.131 0.149-0.159 0.369-0.055 0.553 0.104 0.179 0.31 0.266 0.504 0.229l6.738-1.262c0.081-0.016 0.162-0.045 0.236-0.088 0.229-0.133 0.363-0.362 0.383-0.608 0.061-0.75 0.479-1.462 1.181-1.867 0.623-0.358 1.344-0.404 1.975-0.183 1.603 0.564 3.432 0.451 5.019-0.467l1.997-1.15v13.108h2.81v-14.732l1.534-0.885 1.533 0.885v14.731h2.811v-13.108l1.996 1.15c1.587 0.918 3.417 1.031 5.02 0.467 0.629-0.222 1.351-0.176 1.975 0.183 0.702 0.405 1.119 1.117 1.18 1.867 0.019 0.246 0.154 0.476 0.381 0.608 0.075 0.043 0.156 0.072 0.237 0.088l6.737 1.262c0.195 0.037 0.4-0.05 0.505-0.229 0.101-0.183 0.072-0.402-0.058-0.55zm-26.664-8.09-3.747 2.162c-0.734 0.424-1.671 0.172-2.094-0.561-0.423-0.735-0.172-1.672 0.562-2.096l3.747-2.163 1.533 0.886v1.772zm2.81-14.504c0-0.848 0.686-1.535 1.533-1.535s1.534 0.687 1.534 1.535v4.325l-1.533 0.884-1.534-0.884zm3.297 11.244-1.763 1.017-1.765-1.018v-2.037l1.765-1.019 1.763 1.019zm8.421 4.862c-0.424 0.732-1.363 0.984-2.096 0.561l-3.746-2.164v-1.77l1.533-0.886 3.746 2.163c0.734 0.424 0.985 1.36 0.563 2.096z" style="paint-order:stroke fill markers"/></g></svg>
