<svg xmlns="http://www.w3.org/2000/svg" viewBox="0 0 48 48"><defs><style>.a{fill:none;stroke:#fff;stroke-linecap:round;stroke-linejoin:round;}</style></defs> <path class="a"  d="M24.39,32.62C26.61,32.62,28.41,34.44,28.41,36.69C28.41,38.94,26.61,40.76,24.39,40.76C22.17,40.76,20.37,38.94,20.37,36.69C20.37,34.44,22.17,32.62,24.39,32.62z"/> <path class="a"  d="M22.22,21.79L22.22,26.20"/> <path class="a"  d="M35.10,39.06C34.65,41.33,30.98,41.68,30.98,37.73A6.64 7.67 -0.00 1 0 17.72,38.23C17.72,41.53,14.40,41.93,13.67,39.31"/> <path class="a"  d="M13.44,8.91C13.44,6.34,17.97,6.16,17.71,9.08A6.83 6.92 181.67 1 0 31.00,9.05C31.02,6.22,34.99,6.22,35.22,9.09C35.84,14.07,33.61,20.16,26.60,21.75L26.57,26.10M22.10,26.30C15.29,28.14,12.53,34.35,13.56,38.85M26.61,26.23C33.42,28.07,36.17,34.28,35.15,38.78M22.08,21.73C15.07,20.14,12.84,14.05,13.46,9.07"/></svg>