<svg xmlns="http://www.w3.org/2000/svg" viewBox="0 0 48 48"><defs><style>.a{fill:none;stroke:#fff;stroke-linecap:round;stroke-linejoin:round;}</style></defs>
  <path class="a"
     d="M 16.8284 6.51566 L 39.8382 25.7455 C 40.4122 26.2583 40.429 26.9423 39.8275 27.6132 L 30.3932 38.9019 C 29.8508 39.4197 29.1654 39.1812 28.6941 38.7873 L 5.73233 19.5975 C 5.21431 19.1613 5.16594 18.518 5.5824 17.9221 L 15.0568 6.5853 C 15.7353 5.94117 16.2826 6.01877 16.8284 6.51566 Z"
  />
  <path class="a"
     d="M 17.4723 10.2358 L 20.6908 12.9256 L 12.8624 22.2928 L 9.64389 19.603 Z" />
  <path class="a"
     d="M 22.7044 14.5676 L 25.9229 17.2574 L 18.0945 26.6246 L 14.876 23.9348 Z" />
  <path class="a"
     d="M 27.9806 18.8955 L 31.1991 21.5852 L 23.3707 30.9525 L 20.1522 28.2627 Z" />
  <path class="a"
     d="M 37.5872 30.3914 L 40.0851 32.479 L 35.2275 38.2915 L 32.7295 36.2039 Z" />
</svg>
