<svg xmlns="http://www.w3.org/2000/svg" viewBox="0 0 48 48">
<defs><style>.a{fill:none;stroke:#fff;stroke-linecap:round;stroke-linejoin:round;}</style></defs>
  <path
     class="a"
     d="m 24,4.5 c -7.229407,0 -13.09,5.860593 -13.09,13.09 0,10.25 10,22.61 12.61,25.63 0.319043,0.368765 0.890957,0.368765 1.21,0 2.55,-3 12.36,-15.38 12.36,-25.63 C 37.09,10.360593 31.229407,4.5 24,4.5 Z"/>
  <path
     class="a"
     d="m 31.063685,18.223609 c -0.613885,0.0056 -1.215651,0.221726 -1.743913,0.626515 -1.970292,-3.206333 -5.741695,-3.172102 -7.677051,0.06968 -2.336898,-1.727523 -5.744763,0.688092 -5.222528,3.955385 0.646052,3.178051 4.421368,3.356964 8.938144,3.109617 6.527414,-0.357453 7.789364,0.106102 9.036043,-2.032104 1.370526,-2.875237 -1.034918,-5.750906 -3.330695,-5.729093 z" />
  <path
     class="a"
     d="m 24.022237,16.256342 q -0.01794,-0.07693 -0.03882,-0.153779 a 4.230381,4.230381 0 1 0 -7.319113,3.835731" />
  <line
     class="a"
     x1="17.436563"
     y1="11.516605"
     x2="16.721066"
     y2="9.8507433" />
  <line
     class="a"
     x1="14.274755"
     y1="14.839188"
     x2="12.590891"
     y2="14.167186" />
  <line
     class="a"
     x1="14.337628"
     y1="19.678558"
     x2="12.671764"
     y2="20.394058" />
  <line
     class="a"
     x1="22.419722"
     y1="11.45381"
     x2="23.09178"
     y2="9.7699251" />
  <line
     class="a"
     x1="25.310852"
     y1="14.68753"
     x2="26.976715"
     y2="13.972031" />
</svg>
