<svg xmlns="http://www.w3.org/2000/svg" viewBox="0 0 48 48" version="1.1" id="svg16">
  <defs id="defs12">
    <style id="style10"/>
    <style id="style897"/>
  </defs>
  <path d="M26.53652 42.360726h-9.326565c-.56756 0-1.496846-.02261-2.028952-.213953a4.2349043 4.2349043 0 01-.745443-.353915c-.484528-.29082-1.154748-.945214-1.437244-1.435497a3.9758696 3.9758696 0 01-.374776-.88818c-.155686-.542589-.116122-1.469511-.07183-2.035222l.315586-4.027795c.04439-.565813.2083-1.468689.440853-1.985793.393274-.87441 1.158961-2.223791 2.535471-3.528162.411772-.390088 1.133065-.963917 1.598376-1.288545 1.540828-1.075004 2.945393-1.649552 3.83717-1.939857.53817-.175211 1.449781-.265848 2.017341-.265848h1.76218c.561435.0062 1.326609-.216213 1.15855-1.011804v-4.100141c0-.567458-.04501-1.511336.166784-2.032447.05282-.129892.334494-.675975.824982-.945008.169559-.093.365836-.370975.206964-.53591-1.028144-1.473826-1.570218-2.419349-1.899163-3.42211-.176649-.53817-.31353-1.451014-.402111-2.011586-.166168-1.052293-.290409-1.8883728-.264923-2.6848888.01819-.5662241.208095-1.6175924.718827-1.798558a.9340232.9340232 0 01.152706-.039564c.550809-.095364 1.417718.4118741 1.702783.8819121.179835.2962657.393376.7167719.640213 1.3133111.21683.5242968.527688 1.391.697761 1.9323555.201724.6427831.316202 1.1211441.376729 1.4762931.09351.547522.166476 1.420904.410024 1.933486l.348367.732906c.243548.512582.163804.541561.03155-.0058-.149623-.619044-.234916-1.593854-.01747-3.061721.08293-.560777.274686-1.461187.42102-2.0094276.362754-1.3590406.75798-2.1651136 1.089905-2.6404952.318873-.4566788 1.259463-.5912984 1.549871-.1587689.202032.3010956.557181.9785093.674023 1.5320936.190728.9034923.09927 1.9047122.0038 3.0278091-.04809.564888-.09968 1.491502-.27746 2.028747-.236766.71595-.638261 1.329445-.990019 1.772354-.351963.443114-.243445.843478.299041 1.009646.632403.193708 1.459851.503539 2.154631.952202.474971.306645 1.111485.985292 1.422651 1.459235.162674.247659.28712.47867.382279.684812.236663.512479.441161 1.414944.609384 1.956916a6.160128 6.160128 0 01.269239 1.975105c-.0065.265129-.282906.852625-.654086 1.281763-.256188.29606-.860332.791275-1.367776 1.042839-.448252.222276-1.234903.475998-1.717786.377654-1.052293-.04131-.94953.405914-.863415.966691.01603.104099.03114.214364.04491.32987.06659.562833.07142 1.487391-.0082 2.048786a5.9416744 5.9416744 0 01-.0088.06022c-.08468.559853.0223 1.370653.351141 1.833292.672687.946447 1.77369 2.495394 2.540302 3.573377.328841.462537.855604 1.217434 1.146835 1.704428.764043 1.277344 1.861449 3.313079 2.48409 4.482213.448139 1.533769-.613937 1.669488-2.496319 1.669488-.613135-.01839-1.4133-.254338-1.839869-.628087-.493879-.432633-1.162249-1.102031-1.860113-2.048581-.33624-.456062-.82827-1.233772-1.124946-1.717581-.78326-1.277755-1.460571-2.483987-1.88899-3.267657-.271911-.497373-.782746-.552865-1.170059-.138011-.330281.353813-.748834.780588-1.183214 1.168621-.422664.377654-1.184857.90195-1.707099 1.121555-.715436.300787-1.562819.539814-2.207143.699097-.550707.136058-.544233.266464.01901.33624.322162.03987.685326.0892 1.034412.145924.558517.09064 1.448342.327197 1.979421.526763.05673.02137.112217.04265.166476.06371.527997.205012 1.369214.690876 1.506095 1.22514.02387.09437.04185.190112.05385.286709.07132.560881-.05056 1.503423-.306234 2.007373a1.7557881 1.7557881 0 01-.0522.09598c-.27078.460481-.8257.50395-.8257.50395z" id="path885" stroke-linecap="butt" stroke-linejoin="miter" stroke-opacity="1" fill="none" stroke="#fff" stroke-width="1" stroke-miterlimit="4" stroke-dasharray="none"/>
  <ellipse id="path895" cx="10.12496" cy="36.261433" rx="2.1768286" ry="2.2199891" opacity="1" stroke-linecap="round" stroke-linejoin="round" fill="none" stroke="#fff" stroke-width="1" stroke-miterlimit="4" stroke-dasharray="none"/>
  <ellipse id="path894" cx="33.801285" cy="20.09141" rx=".4810851" ry=".4810867" opacity="1" fill="#fff" fill-opacity=".997014" stroke="#fff" stroke-width=".537827" stroke-linecap="round" stroke-linejoin="round" paint-order="stroke fill markers"/>
</svg>

