<?xml version="1.0" encoding="UTF-8" standalone="no"?>
<svg
   xmlns:dc="http://purl.org/dc/elements/1.1/"
   xmlns:cc="http://creativecommons.org/ns#"
   xmlns:rdf="http://www.w3.org/1999/02/22-rdf-syntax-ns#"
   xmlns:svg="http://www.w3.org/2000/svg"
   xmlns="http://www.w3.org/2000/svg"
   viewBox="0 0 48 48"
   version="1.1"
   id="svg16">
  <metadata
     id="metadata943">
    <rdf:RDF>
      <cc:Work
         rdf:about="">
        <dc:format>image/svg+xml</dc:format>
        <dc:type
           rdf:resource="http://purl.org/dc/dcmitype/StillImage" />
        <dc:title></dc:title>
      </cc:Work>
    </rdf:RDF>
  </metadata>
  <defs
     id="defs12">
    <style
       id="style10" />
    <style
       id="style897" />
  </defs>
  <path
     d="m 26.53652,42.360726 h -9.326565 c -0.56756,0 -1.496846,-0.02261 -2.028952,-0.213953 A 4.2349043,4.2349043 0 0 1 14.43556,41.792858 c -0.484528,-0.29082 -1.154748,-0.945214 -1.437244,-1.435497 A 3.9758696,3.9758696 0 0 1 12.62354,39.469181 C 12.467854,38.926592 12.507418,37.99967 12.55171,37.433959 l 0.315586,-4.027795 c 0.04439,-0.565813 0.2083,-1.468689 0.440853,-1.985793 0.393274,-0.87441 1.158961,-2.223791 2.535471,-3.528162 0.411772,-0.390088 1.133065,-0.963917 1.598376,-1.288545 1.540828,-1.075004 2.945393,-1.649552 3.83717,-1.939857 0.53817,-0.175211 1.449781,-0.265848 2.017341,-0.265848 h 1.76218 c 0.561435,0.0062 1.326609,-0.216213 1.15855,-1.011804 v -4.100141 c 0,-0.567458 -0.04501,-1.511336 0.166784,-2.032447 0.05282,-0.129892 0.334494,-0.675975 0.824982,-0.945008 0.169559,-0.093 0.365836,-0.370975 0.206964,-0.53591 -1.028144,-1.473826 -1.570218,-2.419349 -1.899163,-3.42211 -0.176649,-0.53817 -0.31353,-1.451014 -0.402111,-2.011586 C 24.948525,9.28666 24.824284,8.4505802 24.84977,7.6540642 24.86796,7.0878401 25.057865,6.0364718 25.568597,5.8555062 a 0.93402318,0.93402318 0 0 1 0.152706,-0.039564 c 0.550809,-0.095364 1.417718,0.4118741 1.702783,0.8819121 0.179835,0.2962657 0.393376,0.7167719 0.640213,1.3133111 0.21683,0.5242968 0.527688,1.391 0.697761,1.9323555 0.201724,0.6427831 0.316202,1.1211441 0.376729,1.4762931 0.09351,0.547522 0.166476,1.420904 0.410024,1.933486 l 0.348367,0.732906 c 0.243548,0.512582 0.163804,0.541561 0.03155,-0.0058 -0.149623,-0.619044 -0.234916,-1.593854 -0.01747,-3.061721 0.08293,-0.560777 0.274686,-1.461187 0.42102,-2.0094276 0.362754,-1.3590406 0.75798,-2.1651136 1.089905,-2.6404952 0.318873,-0.4566788 1.259463,-0.5912984 1.549871,-0.1587689 0.202032,0.3010956 0.557181,0.9785093 0.674023,1.5320936 0.190728,0.9034923 0.09927,1.9047122 0.0038,3.0278091 -0.04809,0.564888 -0.09968,1.491502 -0.27746,2.028747 -0.236766,0.71595 -0.638261,1.329445 -0.990019,1.772354 -0.351963,0.443114 -0.243445,0.843478 0.299041,1.009646 0.632403,0.193708 1.459851,0.503539 2.154631,0.952202 0.474971,0.306645 1.111485,0.985292 1.422651,1.459235 0.162674,0.247659 0.28712,0.47867 0.382279,0.684812 0.236663,0.512479 0.441161,1.414944 0.609384,1.956916 a 6.160128,6.160128 0 0 1 0.269239,1.975105 c -0.0065,0.265129 -0.282906,0.852625 -0.654086,1.281763 -0.256188,0.29606 -0.860332,0.791275 -1.367776,1.042839 -0.448252,0.222276 -1.234903,0.475998 -1.717786,0.377654 -1.052293,-0.04131 -0.94953,0.405914 -0.863415,0.966691 0.01603,0.104099 0.03114,0.214364 0.04491,0.32987 0.06659,0.562833 0.07142,1.487391 -0.0082,2.048786 a 5.9416744,5.9416744 0 0 1 -0.0088,0.06022 c -0.08468,0.559853 0.0223,1.370653 0.351141,1.833292 0.672687,0.946447 1.77369,2.495394 2.540302,3.573377 0.328841,0.462537 0.855604,1.217434 1.146835,1.704428 0.764043,1.277344 1.861449,3.313079 2.48409,4.482213 0.448139,1.533769 -0.613937,1.669488 -2.496319,1.669488 -0.613135,-0.01839 -1.4133,-0.254338 -1.839869,-0.628087 -0.493879,-0.432633 -1.162249,-1.102031 -1.860113,-2.048581 -0.33624,-0.456062 -0.82827,-1.233772 -1.124946,-1.717581 -0.78326,-1.277755 -1.460571,-2.483987 -1.88899,-3.267657 -0.271911,-0.497373 -0.782746,-0.552865 -1.170059,-0.138011 -0.330281,0.353813 -0.748834,0.780588 -1.183214,1.168621 -0.422664,0.377654 -1.184857,0.90195 -1.707099,1.121555 -0.715436,0.300787 -1.562819,0.539814 -2.207143,0.699097 -0.550707,0.136058 -0.544233,0.266464 0.01901,0.33624 0.322162,0.03987 0.685326,0.0892 1.034412,0.145924 0.558517,0.09064 1.448342,0.327197 1.979421,0.526763 0.05673,0.02137 0.112217,0.04265 0.166476,0.06371 0.527997,0.205012 1.369214,0.690876 1.506095,1.22514 0.02387,0.09437 0.04185,0.190112 0.05385,0.286709 0.07132,0.560881 -0.05056,1.503423 -0.306234,2.007373 a 1.7557881,1.7557881 0 0 1 -0.0522,0.09598 c -0.27078,0.460481 -0.8257,0.50395 -0.8257,0.50395 z"
     id="path885"
     stroke-linecap="butt"
     stroke-linejoin="miter"
     stroke-opacity="1"
     style="fill:none;stroke:#ffffff;stroke-width:1;stroke-miterlimit:4;stroke-dasharray:none" />
  <ellipse
     id="path895"
     cx="10.12496"
     cy="36.261433"
     rx="2.1768286"
     ry="2.2199891"
     opacity="1"
     stroke-linecap="round"
     stroke-linejoin="round"
     style="fill:none;stroke:#ffffff;stroke-width:1;stroke-miterlimit:4;stroke-dasharray:none" />
  <ellipse
     style="opacity:1;fill:#ffffff;fill-opacity:0.997014;stroke:#ffffff;stroke-width:0.537827;stroke-linecap:round;stroke-linejoin:round;paint-order:stroke fill markers"
     id="path894"
     cx="33.801285"
     cy="20.09141"
     rx="0.48108509"
     ry="0.48108673" />
</svg>
