<svg viewBox="0 0 12.7 12.7" xmlns="http://www.w3.org/2000/svg"><g fill="none" stroke="#fff" stroke-linecap="round" stroke-linejoin="round"><path class="st0" stroke-miterlimit="10" d="M3.49 5.304h1.536L3.49 7.624h1.536" stroke-width=".28993"/><path class="st0" d="M6.666 7.122c0 .296-.243.54-.54.54h0a.541.541 0 0 1-.54-.54V6.77c0-.297.243-.54.54-.54h0c.297 0 .54.243.54.54M6.666 7.661v-1.43" stroke-width=".2699"/><path class="st0" d="M7.468 5.305v2.03c0 .173.115.29.29.29h.086" stroke-miterlimit="10" stroke-width=".29"/><path class="st0" d="M8.943 7.66a.541.541 0 0 1-.54-.539v-.35c0-.298.243-.54.54-.54.297 0 .54.242.54.54v.35c0 .297-.243.54-.54.54z" stroke-miterlimit="10" stroke-width=".27"/><path d="m11.525 1.19-8.207.01C1.036 3.158.348 5.809 2.384 9.644c.129.452-.095.905-.529 1.357.686.105 1.27-.065 1.816-.335 3.7 1.659 5.8.577 7.844-.723z" stroke-width=".234"/></g></svg>