<?xml version="1.0" encoding="utf-8"?>
<!-- Generator: Adobe Illustrator 27.2.0, SVG Export Plug-In . SVG Version: 6.00 Build 0)  -->
<svg version="1.1" id="Layer_3" xmlns="http://www.w3.org/2000/svg" xmlns:xlink="http://www.w3.org/1999/xlink" x="0px" y="0px"
	 viewBox="0 0 48 48" style="enable-background:new 0 0 48 48;" xml:space="preserve">
<style type="text/css">
	.st0{fill:none;stroke:#FFFFFF;stroke-linecap:round;stroke-linejoin:round;stroke-miterlimit:10;}
</style>
<g>
	<polyline class="st0" points="1.1,20.3 1.1,14.6 12.5,14.6 1.4,33.4 14.5,33.4 14.5,28.3 	"/>
	<polyline class="st0" points="9.7,33.4 16.7,14.6 23.3,33.4 18.8,33.4 	"/>
	<line class="st0" x1="23.3" y1="33.4" x2="27.8" y2="33.4"/>
	<line class="st0" x1="12.1" y1="26.8" x2="20.9" y2="26.8"/>
	<polyline class="st0" points="31.1,33.4 38.1,14.6 44.7,33.4 41.3,33.4 	"/>
	<line class="st0" x1="43.6" y1="33.4" x2="46.9" y2="33.4"/>
	<line class="st0" x1="33.5" y1="26.8" x2="42.3" y2="26.8"/>
	<path class="st0" d="M23.3,33.4"/>
	<polyline class="st0" points="23.3,33.4 23.3,14.6 20.3,14.6 	"/>
	<path class="st0" d="M23.3,23.8c16.4,0,6.5,8.6,13.8,9.5c1,0.1,2.1-0.2,2.8-1c0,0,0,0,0,0"/>
	<path class="st0" d="M23.3,14.6c0,0,2.2,0,3.1,0c8.8,0,8.8,9.1,0,9.1c-0.9,0-2,0-3.1,0"/>
	<line class="st0" x1="29.4" y1="33.4" x2="32.7" y2="33.4"/>
</g>
</svg>
