<?xml version="1.0" encoding="UTF-8"?>
<svg version="1.1" viewBox="0 0 48 48" xmlns="http://www.w3.org/2000/svg">
    <defs>
        <style>.a{fill:none;stroke:#fff;stroke-linecap:round;stroke-linejoin:round;}</style>
    </defs>
    <path d="m13.166 5.8686c-9.9372 7.1833-13.378 19.585-5.6043 30.599 6.3573 9.0079 17.816 10.151 27.947 4.9691 6.5297-3.3401 9.531-11.5 9.1536-19.465-0.89864-18.967-20.339-18.793-24.958-16.626-3.726 1.7485-6.1545 3.8023-7.7482 8.78-2.645 8.2617 15.747-0.93779 19.209-2.5064 13.466-6.1014 6.0857 2.5593-0.03087 6.1935-5.0677 3.011-11.882 4.866-15.839 5.9522-4.1741 1.1458 1.8049 6.2899 9.9984 6.5611 8.1597 0.27005 14.963 7.327 14.664 7.327" fill="none" stop-color="#000000" stroke="#fff" stroke-linecap="round" stroke-linejoin="round" style="-inkscape-stroke:none;font-variation-settings:normal"/>
</svg>
