<svg xmlns="http://www.w3.org/2000/svg" xml:space="preserve" id="svg990" width="48" height="48" version="1.1"><defs id="defs987"><style id="style1174">.a{fill:none;stroke:#fff;stroke-linecap:round;stroke-linejoin:round}</style></defs><path id="path1946" d="M22.67 6.147h2.66M41.853 22.67v2.66M25.33 41.853h-2.66M6.147 25.33v-2.66M25.329 2.505v3.642m0 35.706v3.593m-2.658 0v-3.593m0-35.706V2.554M2.554 22.671h3.593m35.706 0h3.642m-.049 2.658h-3.593m-35.706 0H2.554m42.946.004A21.541 21.541 0 0 1 25.333 45.5m-2.666 0A21.541 21.541 0 0 1 2.5 25.333m0-2.666A21.541 21.541 0 0 1 22.667 2.5m2.666 0A21.541 21.541 0 0 1 45.5 22.667m-24.79 4.225 18.602-11.936m-25.08 4.113 12.676 7.318m1.78.587a5.973 6.033 0 0 1 5.866-4.896 5.973 6.033 0 0 1 5.944 5.438m-36.403 3.92c5.316-5.56 11.521-5.524 16.002-5.65m8.648 1.216c6.517 1.521 14.774.944 16.313-.856" style="fill:none;stroke:#fff;stroke-width:1;stroke-linecap:round;stroke-linejoin:round;stroke-dasharray:none;stroke-opacity:1;stop-color:#000"/></svg>