<?xml version="1.0" encoding="UTF-8" standalone="no"?>
<svg
   xmlns:dc="http://purl.org/dc/elements/1.1/"
   xmlns:cc="http://creativecommons.org/ns#"
   xmlns:rdf="http://www.w3.org/1999/02/22-rdf-syntax-ns#"
   xmlns:svg="http://www.w3.org/2000/svg"
   xmlns="http://www.w3.org/2000/svg"
   xmlns:sodipodi="http://sodipodi.sourceforge.net/DTD/sodipodi-0.dtd"
   xmlns:inkscape="http://www.inkscape.org/namespaces/inkscape"
   viewBox="0 0 48 48"
   version="1.1"
   id="svg8"
   sodipodi:docname="zomato.svg"
   inkscape:version="1.0.1 (3bc2e813f5, 2020-09-07)">
  <metadata
     id="metadata12">
    <rdf:RDF>
      <cc:Work
         rdf:about="">
        <dc:format>image/svg+xml</dc:format>
        <dc:type
           rdf:resource="http://purl.org/dc/dcmitype/StillImage" />
        <dc:title></dc:title>
      </cc:Work>
    </rdf:RDF>
  </metadata>
  <sodipodi:namedview
     pagecolor="#ffffff"
     bordercolor="#666666"
     borderopacity="1"
     objecttolerance="10"
     gridtolerance="10"
     guidetolerance="10"
     inkscape:pageopacity="0"
     inkscape:pageshadow="2"
     inkscape:window-width="1920"
     inkscape:window-height="1043"
     id="namedview10"
     showgrid="false"
     inkscape:zoom="11.313709"
     inkscape:cx="31.215986"
     inkscape:cy="33.043941"
     inkscape:window-x="0"
     inkscape:window-y="0"
     inkscape:window-maximized="1"
     inkscape:current-layer="svg8"
     inkscape:document-rotation="0" />
  <defs
     id="defs4">
    <style
       id="style2">.a{fill:none;stroke:#fff;stroke-linecap:round;stroke-linejoin:round;}</style>
  </defs>
  <polyline
     class="st0"
     points="317.2,121.2 321.2,121.2 317.2,126.5 321.2,126.5  "
     id="polyline237"
     style="fill:none;stroke:#ffffff;stroke-linecap:round;stroke-linejoin:round;stroke-miterlimit:10"
     transform="matrix(1.1796249,0,0,1.1796249,-371.58721,-122.09673)" />
  <path
     class="st0"
     d="m 12.026799,27.125822 v 0 c -1.297587,0 -2.3592488,-1.061663 -2.3592488,-2.35925 V 23.23306 c 0,-1.297588 1.0616618,-2.35925 2.3592488,-2.35925 v 0 c 1.297588,0 2.35925,1.061662 2.35925,2.35925 v 1.533512 c 0,1.297587 -1.061662,2.35925 -2.35925,2.35925 z"
     id="path197"
     style="fill:none;stroke:#ffffff;stroke-width:1.17962;stroke-linecap:round;stroke-linejoin:round;stroke-miterlimit:10" />
  <path
     class="st0"
     d="m 16.745303,23.23306 c 0,-1.297588 1.061662,-2.35925 2.359249,-2.35925 v 0 c 1.297588,0 2.35925,1.061662 2.35925,2.35925 v 3.774799"
     id="path205"
     style="fill:none;stroke:#ffffff;stroke-width:1.17962;stroke-linecap:round;stroke-linejoin:round;stroke-miterlimit:10" />
  <line
     class="st0"
     x1="16.745298"
     y1="20.873814"
     x2="16.745298"
     y2="27.00786"
     id="line207"
     style="fill:none;stroke:#ffffff;stroke-width:1.17962;stroke-linecap:round;stroke-linejoin:round;stroke-miterlimit:10" />
  <path
     class="st0"
     d="m 21.463802,23.23306 c 0,-1.297588 1.061662,-2.35925 2.35925,-2.35925 v 0 c 1.297587,0 2.35925,1.061662 2.35925,2.35925 v 3.774799"
     id="path211"
     style="fill:none;stroke:#ffffff;stroke-width:1.17962;stroke-linecap:round;stroke-linejoin:round;stroke-miterlimit:10" />
  <path
     class="st0"
     d="m 33.260047,24.766575 c 0,1.297588 -1.061662,2.35925 -2.359249,2.35925 v 0 c -1.297588,0 -2.35925,-1.061662 -2.35925,-2.35925 v -1.533512 c 0,-1.297587 1.061662,-2.35925 2.35925,-2.35925 v 0 c 1.297587,0 2.359249,1.061663 2.359249,2.35925"
     id="path385"
     style="fill:none;stroke:#ffffff;stroke-width:1.17962;stroke-linecap:round;stroke-linejoin:round;stroke-miterlimit:10" />
  <line
     class="st0"
     x1="33.26004"
     y1="27.125824"
     x2="33.26004"
     y2="20.873812"
     id="line389"
     style="fill:none;stroke:#ffffff;stroke-width:1.17962;stroke-linecap:round;stroke-linejoin:round;stroke-miterlimit:10" />
  <path
     class="st0"
     d="m 36.798922,18.86981 v 7.077752 c 0,0.707775 0.47185,1.179625 1.179625,1.179625 h 0.353887"
     id="path361"
     style="fill:none;stroke:#ffffff;stroke-width:1.17962;stroke-linecap:round;stroke-linejoin:round;stroke-miterlimit:10" />
  <line
     class="st0"
     x1="35.619297"
     y1="20.899178"
     x2="38.096512"
     y2="20.899178"
     id="line363"
     style="fill:none;stroke:#ffffff;stroke-width:1.17962;stroke-linecap:round;stroke-linejoin:round;stroke-miterlimit:10" />
  <path
     class="st0"
     d="m 43.050934,27.125822 v 0 c -1.297588,0 -2.35925,-1.061663 -2.35925,-2.35925 V 23.23306 c 0,-1.297588 1.061662,-2.35925 2.35925,-2.35925 v 0 c 1.297587,0 2.35925,1.061662 2.35925,2.35925 v 1.533512 c 0,1.297587 -1.061663,2.35925 -2.35925,2.35925 z"
     id="path197-3"
     style="fill:none;stroke:#ffffff;stroke-width:1.17962;stroke-linecap:round;stroke-linejoin:round;stroke-miterlimit:10" />
</svg>
