<?xml version="1.0" encoding="UTF-8" standalone="no"?>
<svg
   xmlns:dc="http://purl.org/dc/elements/1.1/"
   xmlns:cc="http://creativecommons.org/ns#"
   xmlns:rdf="http://www.w3.org/1999/02/22-rdf-syntax-ns#"
   xmlns:svg="http://www.w3.org/2000/svg"
   xmlns="http://www.w3.org/2000/svg"
   xmlns:sodipodi="http://sodipodi.sourceforge.net/DTD/sodipodi-0.dtd"
   xmlns:inkscape="http://www.inkscape.org/namespaces/inkscape"
   viewBox="0 0 48 48"
   version="1.1"
   id="svg2289"
   sodipodi:docname="square.svg"
   inkscape:version="1.0.1 (3bc2e813f5, 2020-09-07)">
  <metadata
     id="metadata2293">
    <rdf:RDF>
      <cc:Work
         rdf:about="">
        <dc:format>image/svg+xml</dc:format>
        <dc:type
           rdf:resource="http://purl.org/dc/dcmitype/StillImage" />
        <dc:title></dc:title>
      </cc:Work>
    </rdf:RDF>
  </metadata>
  <sodipodi:namedview
     pagecolor="#5a5a5a"
     bordercolor="#666666"
     borderopacity="1"
     objecttolerance="10"
     gridtolerance="10"
     guidetolerance="10"
     inkscape:pageopacity="0"
     inkscape:pageshadow="2"
     inkscape:window-width="3840"
     inkscape:window-height="2096"
     id="namedview2291"
     showgrid="false"
     inkscape:zoom="2.7142588"
     inkscape:cx="24"
     inkscape:cy="24"
     inkscape:window-x="0"
     inkscape:window-y="27"
     inkscape:window-maximized="1"
     inkscape:current-layer="svg2289" />
  <defs
     id="defs2285">
    <style
       id="style2283">.a{fill:none;stroke:#fff;stroke-linecap:round;stroke-linejoin:round;}</style>
  </defs>
  <path
     id="path3342"
     style="fill:none;stroke:#ffffff;stroke-width:1px;stroke-linecap:butt;stroke-linejoin:round;stroke-opacity:1"
     d="M 36.507826 19.716662 C 36.511857 19.336301 36.524502 18.949926 36.544817 18.557258 C 36.663432 18.360588 36.980547 18.023938 37.319731 17.671725 C 36.82565 16.978336 36.002012 16.653724 36.064492 15.337539 C 35.735186 12.757264 34.306284 11.157382 32.414375 9.9703135 C 29.388689 7.2946121 23.797392 6.2489253 19.421119 7.8504324 C 12.891462 8.1088504 9.9902177 13.618767 9.1286754 16.0414 C 7.7752276 21.826204 9.9553458 26.823214 12.251077 28.644245 C 10.525199 29.152553 8.8323243 29.687779 10.130038 32.662146 C 11.048338 33.840806 12.372016 34.841388 14.520715 35.597918 C 15.961412 35.687368 17.653422 36.415583 17.938903 33.568805 C 19.966391 33.565805 25.43817 39.559926 27.586407 40.544549 C 32.08205 41.758978 34.252305 37.24901 40.383617 36.940631 L 40.383617 36.940631 C 40.353937 35.426183 40.414917 33.695507 41.216057 31.577875 L 39.9168 31.355755 C 36.567769 33.427302 32.948958 35.588679 28.837199 37.914194 C 27.306893 35.922913 27.266427 34.05364 28.562617 31.802147 C 31.139112 29.822378 33.575171 28.030055 38.370418 27.550467 C 37.516403 26.138183 37.003617 24.642925 36.737986 23.036698 " />
  <path
     style="fill:none;stroke:#ffffff;stroke-width:1px;stroke-linecap:butt;stroke-linejoin:round;stroke-opacity:1"
     d="M 38.916259,32.094179 37.68987,30.260488 c 0.208814,-0.952856 1.14069,-1.440645 2.466044,-1.480569 0.187562,1.284439 0.01901,1.81558 0.451019,2.698277"
     id="path3344"
     sodipodi:nodetypes="cccc" />
  <path
     style="fill:none;stroke:#ffffff;stroke-width:1px;stroke-linecap:butt;stroke-linejoin:miter;stroke-opacity:1"
     d="M 37.041091,33.32846 C 35.662713,31.989549 35.198579,30.104739 35.039113,28.018649"
     id="path3346"
     sodipodi:nodetypes="cc" />
  <path
     style="fill:none;stroke:#ffffff;stroke-width:1px;stroke-linecap:butt;stroke-linejoin:round;stroke-opacity:1"
     d="m 32.082407,36.126264 -1.118851,-1.588793 2.351912,-1.824853 0.490882,2.47894"
     id="path3348" />
  <path
     style="fill:none;stroke:#ffffff;stroke-width:1px;stroke-linecap:butt;stroke-linejoin:round;stroke-opacity:1"
     d="m 36.770551,19.689426 c 3.027412,0.486984 1.890712,1.687748 0.793444,2.881753 l -3.056976,1.725799 c -5.079555,1.374776 -5.644364,-5.57762 -0.731773,-5.167845 z"
     id="path3350"
     sodipodi:nodetypes="ccccc" />
  <path
     style="fill:none;stroke:#ffffff;stroke-width:1px;stroke-linecap:butt;stroke-linejoin:miter;stroke-opacity:1"
     d="m 26.621456,20.574352 c 1.124596,0.78346 2.399299,1.547831 2.493551,2.462322 0.310564,1.779138 -0.235135,1.87987 -0.601411,2.332298 -1.156439,1.070432 -2.364097,2.049821 -3.895882,2.453074 -5.132995,1.037164 -7.1041,-2.090518 -7.662695,-4.458981 0.09708,-4.357362 3.910988,-4.022759 4.544487,-4.012606 2.447874,-0.39081 3.729663,0.476133 5.12195,1.223893 z"
     id="path3352"
     sodipodi:nodetypes="ccccccc" />
  <path
     style="fill:none;stroke:#ffffff;stroke-width:1;stroke-linecap:butt;stroke-linejoin:miter;stroke-miterlimit:10;stroke-dasharray:none;stroke-opacity:1"
     d="M 32.779573,10.356281 33.999624,8.3628875 31.927149,9.4695824"
     id="path3354"
     sodipodi:nodetypes="ccc" />
  <path
     style="fill:none;stroke:#ffffff;stroke-width:1px;stroke-linecap:butt;stroke-linejoin:round;stroke-opacity:1"
     d="m 17.762516,7.9725204 -1.001605,-1.5483965 0.111622,-0.8431348 1.511455,0.6477481 0.130826,1.6889977"
     id="path3356" />
  <path
     style="fill:none;stroke:#ffffff;stroke-width:1px;stroke-linecap:butt;stroke-linejoin:round;stroke-opacity:1"
     d="m 8.876813,22.217367 c -0.8804933,0.01237 -1.79102,0.16594 -2.6715133,0.08416 -1.2421441,-0.440598 -0.8505872,-1.009398 0.00689,-1.324914 0.8086671,-0.1205 1.7573041,-0.01247 2.6178566,0.0014 l 2.1110027,0.404373 c 0.531971,0.101901 1.328719,0.252825 -0.06967,0.574997 -0.633624,0.14598 -1.3247671,0.221612 -1.994569,0.259984 z"
     id="path3360"
     sodipodi:nodetypes="ccccssc" />
  <path
     style="fill:none;stroke:#ffffff;stroke-width:1;stroke-linecap:butt;stroke-linejoin:miter;stroke-miterlimit:10;stroke-dasharray:none;stroke-opacity:1"
     d="m 9.4773095,23.910772 -1.7001241,0.818243 1.9568266,0.01748"
     id="path3362"
     sodipodi:nodetypes="ccc" />
  <path
     style="fill:none;stroke:#ffffff;stroke-width:1px;stroke-linecap:butt;stroke-linejoin:miter;stroke-opacity:1"
     d="m 23.239001,20.389035 c -1.253419,0.06095 -2.845845,1.164247 -3.373271,1.700423 -0.270496,0.274983 -0.317475,1.170097 0.465009,2.07984 1.249768,1.453022 4.288072,1.852737 5.499449,1.327685 0,0 1.290447,-0.645506 1.765222,-1.193369 0.4461,-0.514774 0.304167,-0.838201 0.174947,-1.182246 -0.230083,-0.612589 -0.902813,-1.120555 -1.419261,-1.522408 -0.875166,-0.680975 -2.004512,-1.263788 -3.112095,-1.209925 z"
     id="path3400"
     sodipodi:nodetypes="ssssssss" />
  <path
     style="fill:none;stroke:#ffffff;stroke-width:1px;stroke-linecap:butt;stroke-linejoin:round;stroke-opacity:1"
     d="m 34.827621,20.450476 c 0,0 -2.013601,0.281756 -2.290452,1.054098 -0.176706,0.492965 0.135924,1.522398 0.597378,1.27481 1.23511,-0.662683 2.989516,-1.051705 3.769288,-1.513126 0.697514,-0.412747 -1.503585,-1.000241 -2.076214,-0.815782 z"
     id="path3402"
     sodipodi:nodetypes="sssss" />
  <path
     style="fill:none;stroke:#ffffff;stroke-width:1px;stroke-linecap:butt;stroke-linejoin:round;stroke-opacity:1"
     d="m 30.102376,10.760059 c 0.264883,0.271595 -0.347918,2.038306 -0.745663,1.640387 0,0 0.48078,-1.911982 0.745663,-1.640387 z"
     id="path3404"
     sodipodi:nodetypes="zcz" />
  <path
     style="fill:none;stroke:#ffffff;stroke-width:1px;stroke-linecap:butt;stroke-linejoin:round;stroke-opacity:1"
     d="m 21.586749,10.902614 c 1.436839,0.120189 2.873677,0.534373 4.310516,1.008977 -0.491324,0.382213 -1.941454,0.09713 -2.811872,0.0307 -1.198932,-0.03725 -1.606483,-0.424493 -1.498644,-1.039676 z"
     id="path3406"
     sodipodi:nodetypes="cccc" />
  <path
     style="fill:none;stroke:#ffffff;stroke-width:1px;stroke-linecap:butt;stroke-linejoin:round;stroke-opacity:1"
     d="m 26.96083,10.115704 c 0.381246,0.05369 0.648664,0.111627 0.716017,0.71878 -0.414646,-0.15609 -0.617076,-0.397354 -0.716017,-0.71878 z"
     id="path3410"
     sodipodi:nodetypes="ccc" />
</svg>
