<?xml version="1.0" encoding="UTF-8"?>
<svg width="48" height="48" version="1.1" viewBox="0 0 48 48" xml:space="preserve" xmlns="http://www.w3.org/2000/svg"><defs><style>.a{fill:none;stroke:#fff;stroke-linecap:round;stroke-linejoin:round;}</style></defs><path class="a" d="m40.5 5.4999999h-33a2 2 0 0 0-1.9999999 2v33.0000001a2 2 0 0 0 1.9999999 2h33a2 2 0 0 0 2-2v-33.0000001a2 2 0 0 0-2-2z"/><path d="m38.056839 29.548143a2.0312312 2.0312312 0 0 1-2.031231 2.031231 2.0312312 2.0312312 0 0 1-2.031231-2.031231 2.0312312 2.0312312 0 0 1 2.031231-2.031231 2.0312312 2.0312312 0 0 1 2.031231 2.031231z" fill="none" stop-color="#000000" stroke="#fff" stroke-linecap="round" stroke-linejoin="round"/><path d="m9.943161 27.874966h5.735684l1.858178-5.019363h0.757852l2.465496 6.775853h0.745991l3.82633-13.21083h0.946509l4.292778 13.21083h3.304388" fill="none" stop-color="#000000" stroke="#fff" stroke-linecap="round" stroke-linejoin="round"/></svg>
