<svg xmlns="http://www.w3.org/2000/svg" viewBox="0 0 48 48">
    <style>
        .a{fill:none;stroke:#FFFFFF;stroke-linecap:round;stroke-linejoin:round}
    </style>
    <path class="a" d="M5.5,20.5c0-7.5,6.1-13.6,13.6-13.6h0.6"/>
    <path class="a" d="M9.8,20.5c0-5.1,4.1-9.2,9.2-9.2h0.7"/>
    <path class="a" d="M19.5,16.1c-2.2,0-4,1.8-4,4c0,2.2,1.8,4,4,4h3.1l-6.5,11.2c-1.1,1.9-0.5,4.3,1.4,5.4c0.6,0.4,1.3,0.5,2,0.5h6l0,0l0,0h10.4c2.2,0,4-1.8,4-4s-1.8-4-4-4c0,0,0,0,0,0h-3.4l10-17.1H19.5z"/>
</svg>