<?xml version="1.0" encoding="UTF-8"?><svg id="a" xmlns="http://www.w3.org/2000/svg" viewBox="0 0 48 48"><defs><style>.ae{fill:none;stroke:#fff;stroke-linecap:round;stroke-linejoin:round;}</style></defs><path id="b" class="ae" d="M9.5,5.5h29c2.216,0,4,1.784,4,4v29c0,2.216-1.784,4-4,4H9.5c-2.216,0-4-1.784-4-4V9.5c0-2.216,1.784-4,4-4Z"/><g id="c"><path id="d" class="ae" d="M9.2503,11.0419l1.0318,2.0105h.6843"/><path id="e" class="ae" d="M9.2503,14.6489l1.0318,2.0105h.6843"/><path id="f" class="ae" d="M10.8312,18.4652l-1.1037,3.6568c-.0597.1979-.2318.4385-.4385.4385h-.4354"/><path id="g" class="ae" d="M12.5742,11.6654h5.823l.9626-1.3029"/><path id="h" class="ae" d="M14.9576,10.4046v1.2616"/><path id="i" class="ae" d="M13.6348,11.6664v9.2374c0,.9523-.0919,1.4472-.6669,1.5694l-.6739.1432"/><path id="j" class="ae" d="M15.2319,22.6164l.4376-.087c.5766-.1146.5266-.7934.5266-1.6255v-5.2652c0-.5654-.0903-1.0145-.7099-1.0145h-1.8517"/><path id="k" class="ae" d="M18.7766,11.1529h3.5757"/><path id="l" class="ae" d="M18.4909,14.2162h3.769l-1.179,1.9903v5.531c0,.4142-.4644.8789-.8786.8789h-.9348"/><path id="m" class="ae" d="M18.4977,19.4087h3.6908"/></g><g id="n"><path id="o" class="ae" d="M25.6481,10.8766h4.8882l-3.6794,10.7172c-.1567.4564-.5421,1.0227-1.0247,1.0227h-.3889"/><path id="p" class="ae" d="M26.1801,13.3496l2.8304,8.2442c.1567.4564.5421,1.0227,1.0247,1.0227h.3889"/><path id="q" class="ae" d="M34.3893,10.0317l1.2251,11.837c.0439.4238.5452.8308.9712.8308h1.5851"/><path id="r" class="ae" d="M32.3907,12.0779h4.991c.3489,0,.9076-.1306.9309-.4787l.0758-1.1288"/><path id="s" class="ae" d="M32.6366,19.9258h3.9929c.3963,0,.8565-.3753.9073-.7684l.6137-4.7455"/></g><g id="t"><path id="u" class="ae" d="M9.1521,28.4861h13.1227"/><path id="v" class="ae" d="M15.7135,26.1052v2.3816"/><path id="w" class="ae" d="M15.6076,28.4856l-4.5939,8.5521c-.2264.4225-.6169.9307-1.0962.9307h-.8683"/><path id="x" class="ae" d="M22.3777,37.9683h-.8683c-.4793,0-.8698-.5082-1.0962-.9307l-4.5939-8.5521"/></g><g id="y"><path id="z" class="ae" d="M38.6331,27.6525h-.5675c-.3516,0-.6253-.3598-.8394-.6387-.2595-.3381-.23-.9822-1.4098-.9822h-7.5604c-1.1798,0-1.1503.6441-1.4098.9822-.2141.2789-.4878.6387-.8394.6387h-.5675"/><path id="aa" class="ae" d="M25.6994,30.0668h12.7944"/><path id="ab" class="ae" d="M25.0257,37.8422h14.1208"/><path id="ac" class="ae" d="M25.6994,33.9545h12.7944"/><path id="ad" class="ae" d="M32.0861,30.2683v7.3167"/></g></svg>