<?xml version="1.0" encoding="UTF-8"?><svg id="b" xmlns="http://www.w3.org/2000/svg" viewBox="0 0 48 48"><defs><style>.d{fill:none;stroke:#fff;stroke-linecap:round;stroke-linejoin:round;}</style></defs><path class="d" d="M13.5,29.769c.9581.8028,1.8878,1.1707,4.211,1.1707h.3992c2.149,0,3.8911-1.7421,3.8911-3.8911h0c0-2.149-1.7421-3.8911-3.8911-3.8911h-4.6101v-6.0973h8.5012"/><path class="d" d="M34.5,21.6578c0-2.5392-2.0584-4.5976-4.5976-4.5976h0c-2.5392,0-4.5976,2.0584-4.5976,4.5976v4.6843c0,2.5392,2.0584,4.5976,4.5976,4.5976h0c2.5392,0,4.5976-2.0584,4.5976-4.5976h-4.5976"/><path id="c" class="d" d="M38.5,5.5H9.5c-2.2091,0-4,1.7909-4,4v29c0,2.2091,1.7909,4,4,4h29c2.2091,0,4-1.7909,4-4V9.5c0-2.2091-1.7909-4-4-4Z"/></svg>