<svg xmlns="http://www.w3.org/2000/svg" viewBox="0 0 48 48"><defs><style>.a{fill:none;stroke:#fff;stroke-linecap:round;stroke-linejoin:round;}</style></defs><path class="a" d="M10.1869,21.6822c4.2223-1.5648,9.81-6.74,12.0148-7.6847,0,0,.2144-.416-.3346-1.0235-1.1448.0227-1.9192-1.929-1.6534-3.5235A3.8156,3.8156,0,0,1,24,6.3891c2.0739-.0591,2.544,3.4433,2.1779,4.646-.2066.6791-.8562.6791-.8857,1.2106s.7972.9153.7972.9153a4.1144,4.1144,0,0,1,3.8088.3543A17.1563,17.1563,0,0,0,33.1756,15.11l5.0487-2.7919c.03-.4626,1.2994-1.2926,1.7915-.21s.2362,1.5944-1.1712,1.4074c0,0-4.2518,3.3069-5.6985,3.3069A16.223,16.223,0,0,1,28.9533,15.73a21.2168,21.2168,0,0,0-.4723,2.5393,34.384,34.384,0,0,0,.3542,5.6985c2.6574.8858,6.7025,5.6985,7.1159,6.2595s3.8974,8.4445,4.3108,9.0941,3.5136,1.89,3.2183,2.0882a17.7738,17.7738,0,0,1-5.3147,0c-.65-.333.3248-1.8225.3248-1.8225-4.37-2.6573-4.6947-7.8834-4.6947-7.8834s-5.5214-1.8307-7.6472-3.2479c-.7381,2.7459-6.4662,5.2852-9.1236,5.7281C13.5408,34.5674,8,36.36,7.1336,38.4648c-.62,1.5058.7086,2.0373.7677,2.4212s-.9448.8267-1.6239.2362S4.181,38.1991,4.5648,37.4314c.502-1.0039,1.624-.2657,2.1259-.7381s3.7794-4.8423,8.2969-4.6061c.59-1.3287,6.88-6.0824,6.88-6.0824a3.7171,3.7171,0,0,1-.7086-2.303c0-1.4763,2.0668-2.2735,2.0668-3.6613A4.7285,4.7285,0,0,0,21.69,17.2651s-8.5331,5.0785-10.8951,5.7576c-.2855.3445-2.1358,1.5157-2.7164.7381S9.0945,21.259,10.1869,21.6822Z"/></svg>