<svg xmlns="http://www.w3.org/2000/svg" viewBox="0 0 48 48"><defs><style>.a{fill:none;stroke:#fff;stroke-linecap:round;stroke-linejoin:round;}</style></defs><path class="a" d="M44.029,22.9474,25.24,3.9818a1.6167,1.6167,0,0,0-2.2863-.0165l-.0058.0057L3.9818,22.7605a1.6167,1.6167,0,0,0-.0165,2.2863l.0057.0058,18.79,18.9656a1.6167,1.6167,0,0,0,2.2863.0165l.0058-.0057L44.0182,25.24a1.6167,1.6167,0,0,0,.0165-2.2863Z"/><ellipse class="a" cx="24" cy="24" rx="14.9486" ry="14.9939"/><ellipse class="a" cx="24" cy="24" rx="7.104" ry="7.1267"/><path class="a" d="M19.235,18.4831,17.5686,16.82l-2.8982.2872-1.1563-3.8392"/><path class="a" d="M29.619,19.39l1.6021-1.7231-.393-2.8832,3.7939-1.2961m-5.6228,15.659,1.6324,1.7,2.9021-.2305,1.0807,3.8619M18.5511,28.78,17.1,30.6316l.6423,2.8416-3.6691,1.6211"/></svg>