<?xml version="1.0" encoding="UTF-8"?><svg id="a" xmlns="http://www.w3.org/2000/svg" viewBox="0 0 48 48"><defs><style>.c{fill:none;stroke:#fff;stroke-linecap:round;stroke-linejoin:round;}</style></defs><path class="c" d="M38.5,5.5H9.5c-2.2091,0-4,1.7909-4,4v29c0,2.2091,1.7909,4,4,4h29c2.2091,0,4-1.7909,4-4V9.5c0-2.2091-1.7909-4-4-4Z"/><line class="c" x1="24.1895" y1="24" x2="20.8815" y2="28.3832"/><line class="c" x1="27.4976" y1="19.6168" x2="25.7403" y2="21.9452"/><line class="c" x1="29.6974" y1="31.2979" x2="20.8815" y2="19.6168"/><path class="c" d="M31.8138,27.6436c.604.5072,1.2561.7396,2.7207.7396h.7422c1.2078,0,2.1869-.9812,2.1869-2.1916h0c0-1.2104-.9791-2.1916-2.1869-2.1916h-1.4843c-1.2078,0-2.1869-.9812-2.1869-2.1916h0c0-1.2104.9791-2.1916,2.1869-2.1916h.7422c1.4645,0,2.1167.2324,2.7207.7396"/><path class="c" d="M17.1527,25.0751c0,1.827-1.4811,3.3081-3.3081,3.3081h0c-1.827,0-3.3081-1.4811-3.3081-3.3081v-2.1502c0-1.827,1.4811-3.3081,3.3081-3.3081h0c1.827,0,3.3081,1.4811,3.3081,3.3081"/><line class="c" x1="17.1527" y1="28.3832" x2="17.1527" y2="19.6168"/></svg>