<svg xmlns="http://www.w3.org/2000/svg" viewBox="0 0 48 48"><defs><style>.a{fill:none;stroke:#fff;stroke-linecap:round;stroke-linejoin:round;}</style></defs><path class="a" d="M11.34,7.927c8.7915,4.3957,7.4689,7.43,12.2925,11.0866,4.49,3.4038,9.725,5.3293,12.487,8.3635a25.3143,25.3143,0,0,1,4.1234,6.1459"/><path class="a" d="M14.1022,4.9706c8.7915,4.3957,7.4689,7.43,12.2925,11.0865,4.49,3.4039,9.7251,5.3294,12.487,8.3636A47.6853,47.6853,0,0,1,43.5,30.4113l-4.8625,4.6459a26.3436,26.3436,0,0,0-4.1234-5.9906c-2.762-3.0342-7.9969-4.96-12.487-8.3636-4.8236-3.6566-3.501-6.6908-12.2925-11.0865Z"/><path class="a" d="M8.5132,14.7788c8.0781,4.039,7.1744,6.4514,11.295,10.1869,5.2531,4.7622,7.47,4.2891,11.127,7.8472a41.4482,41.4482,0,0,1,4.59,5.3422l-5.1017,4.8743a19.61,19.61,0,0,0-3.8065-5.1325c-2.7806-2.7619-5.5627-3.0342-9.18-6.3018C13.3094,27.8671,12.5781,23.0867,4.5,19.0477Z"/><path class="a" d="M31.63,41.7286a19.6084,19.6084,0,0,0-3.8065-5.1325c-2.7806-2.7619-5.5628-3.0342-9.18-6.3018-4.1274-3.728-4.8588-8.5084-12.9368-12.5475"/></svg>