<svg id="Layer_2" data-name="Layer 2" xmlns="http://www.w3.org/2000/svg" viewBox="0 0 48 48"><defs><style>.cls-1{fill:none;stroke:#fff;stroke-linecap:round;stroke-linejoin:round;}</style></defs><path class="cls-1" d="M21.13,41.3A17.63,17.63,0,0,0,24,43.5c.44,0,17.2-12.5,17.2-28.27C41.2,9.82,40,5.12,39.78,5.12c-.62,0-1.78,2.57-6,2.57C28.43,7.69,25.06,4.5,24,4.5s-4.43,3.19-9.75,3.19c-4.25,0-5.41-2.57-6-2.57C8,5.12,6.8,9.82,6.8,15.23c0,11.83,9.43,21.82,14.33,26.07M33.75,11.06a10.65,10.65,0,0,0,3.72-.62,42.59,42.59,0,0,1,.27,4.79,22.43,22.43,0,0,1-.89,5.85L21.78,9.29a11.31,11.31,0,0,0,2.13-1.16A20,20,0,0,0,33.75,11.06ZM10.17,15.22a31.38,31.38,0,0,1,.27-4.16L34.37,27,10.26,17.17A14.07,14.07,0,0,1,10.17,15.22ZM24,39.33a50.79,50.79,0,0,1-6.83-7C14.6,29.05,11.5,24.27,10.53,19L28.7,34.81A37.63,37.63,0,0,1,24,39.33Z"/></svg>