<?xml version="1.0" encoding="UTF-8"?><svg xmlns="http://www.w3.org/2000/svg" viewBox="0 0 48 48"><defs><style>.c{fill:none;stroke:#fff;stroke-linecap:round;stroke-linejoin:round;}</style></defs><g id="a"><path class="c" d="M23.2976,25.5c0,1.6667,1.3333,3,3,3s2.8889-1.3333,2.8889-3v-3c0-1.6667-1.3333-3-2.8889-3s-3,1.3333-3,3v3Z"/><line class="c" x1="18.8135" y1="20.7375" x2="21.0635" y2="19.5"/><line class="c" x1="21.0635" y1="19.5" x2="21.0635" y2="28.5"/></g><g id="b"><path class="c" d="M38.5,5.5H9.5c-2.2091,0-4,1.7909-4,4v29c0,2.2091,1.7909,4,4,4h24s9-9,9-9V9.5c0-2.2091-1.7909-4-4-4Z"/><line class="c" x1="33.5" y1="5.5" x2="33.5" y2="42.5"/><line class="c" x1="14.5" y1="14.5" x2="14.5" y2="42.5"/><line class="c" x1="42.5" y1="33.5" x2="5.5" y2="33.5"/><line class="c" x1="42.5" y1="14.5" x2="14.5" y2="14.5"/></g></svg>