<?xml version="1.0" encoding="UTF-8"?><svg id="a" xmlns="http://www.w3.org/2000/svg" viewBox="0 0 48 48"><defs><style>.h{fill:none;stroke:#fff;stroke-linecap:round;stroke-linejoin:round;}</style></defs><g id="b"><path id="c" class="h" d="M29.3877,27.2638c-1.549,2.4076-4.5074,3.4952-7.2471,2.6643s-4.5954-3.3787-4.546-6.2412,1.992-5.3447,4.7587-6.0806,5.6858.4531,7.1509,2.9128"/><path id="d" class="h" d="M33.7276,30.3878c-2.8763,4.4705-8.3695,6.49-13.4565,4.9471-5.087-1.5429-8.5329-6.2736-8.4412-11.5887s3.6987-9.9241,8.836-11.2906c5.1372-1.3665,10.5575.8414,13.2778,5.4084"/><path id="e" class="h" d="M29.504,20.5191l4.4397-2.655"/><path id="f" class="h" d="M33.7276,30.3878l-4.34-3.124"/><path id="g" class="h" d="M24,3.5L5.9199,13.3359v20.8164l18.0801,10.3477,18.0801-10.2752V13.1627L24,3.5Z"/></g></svg>