<?xml version="1.0" encoding="UTF-8"?><svg id="b" xmlns="http://www.w3.org/2000/svg" viewBox="0 0 48 48"><defs><style>.c{fill:none;stroke:#fff;stroke-linecap:round;stroke-linejoin:round;}</style></defs><line class="c" x1="23" y1="20.4274" x2="25" y2="20.4274"/><path class="c" d="m18.8716,9.3074c0,1.8151-1.4703,3.2864-3.2841,3.2864h0c-1.8138,0-3.2841-1.4714-3.2841-3.2864s1.4703-3.2864,3.2841-3.2864h0c1.8138,0,3.2841,1.4714,3.2841,3.2864h0Z"/><path class="c" d="m33.0437,9.3074c0,1.0819-.8765,1.959-1.9576,1.959-1.0812,0-1.9576-.8771-1.9576-1.959h0c0-1.0819.8765-1.959,1.9576-1.959h0c1.0812,0,1.9576.8771,1.9576,1.959Z"/><path class="c" d="m29.1284,9.3074c0,1.8151,1.4703,3.2864,3.2841,3.2864,1.8138,0,3.2841-1.4714,3.2841-3.2864h0c0-1.8151-1.4703-3.2864-3.2841-3.2864h0c-1.8138,0-3.2841,1.4714-3.2841,3.2864t0,0Z"/><line class="c" x1="36.955" y1="35.9529" x2="34.0944" y2="40.6922"/><rect class="c" x="32.5768" y="40.5459" width="1.9986" height="2" rx=".9993" ry=".9993"/><line class="c" x1="36.955" y1="35.9529" x2="39.8155" y2="31.2136"/><path class="c" d="m39.3345,30.36c0,.5523.4474,1,.9993,1h0c.5519,0,.9993-.4477.9993-1h0c0-.5523-.4474-1-.9993-1h0c-.5519,0-.9993.4477-.9993,1h0Z"/><line class="c" x1="33.1521" y1="21.7248" x2="39.5426" y2="18.7169"/><line class="c" x1="38.9674" y1="23.7345" x2="25.9785" y2="29.7481"/><line class="c" x1="37.9732" y1="29.0754" x2="25.9785" y2="34.7586"/><line class="c" x1="33.4373" y1="36.0706" x2="25.8332" y2="39.6277"/><line class="c" x1="25.0683" y1="43.5" x2="29.9952" y2="41.1586"/><path class="c" d="m18.8716,9.3074c0,1.8151-1.4703,3.2864-3.2841,3.2864h0c-1.8138,0-3.2841-1.4714-3.2841-3.2864h0c0-1.8151,1.4703-3.2864,3.2841-3.2864h0c1.8138,0,3.2841,1.4714,3.2841,3.2864h0Z"/><line class="c" x1="24" y1="20.4274" x2="24" y2="40.3429"/><circle class="c" cx="24" cy="17.0345" r="1.5"/><line class="c" x1="23" y1="20.4274" x2="25" y2="20.4274"/><line class="c" x1="13.9056" y1="40.6922" x2="11.045" y2="35.9529"/><rect class="c" x="13.4246" y="40.5459" width="1.9986" height="2" rx=".9993" ry=".9993"/><line class="c" x1="8.1845" y1="31.2136" x2="11.045" y2="35.9529"/><path class="c" d="m8.6655,30.36c0-.5523-.4474-1-.9993-1h0c-.5519,0-.9993.4477-.9993,1h0c0,.5523.4474,1,.9993,1h0c.5519,0,.9993-.4477.9993-1h0Z"/><polygon class="c" points="26.5819 21.0821 37.8342 18.2027 26.8388 15.6061 24 4.5 21.1612 15.6061 10.1658 18.2027 21.4181 21.0821 24 30.4579 26.5819 21.0821"/><line class="c" x1="8.4574" y1="18.7169" x2="14.8479" y2="21.7248"/><line class="c" x1="22.0215" y1="29.7481" x2="9.0326" y2="23.7345"/><line class="c" x1="22.0215" y1="34.7586" x2="10.0268" y2="29.0754"/><line class="c" x1="22.1668" y1="39.6277" x2="14.5627" y2="36.0706"/><line class="c" x1="18.0048" y1="41.1586" x2="22.9317" y2="43.5"/></svg>