<svg xmlns="http://www.w3.org/2000/svg" viewBox="0 0 48 48"><defs><style>.a{fill:none;stroke:#fff;stroke-linecap:round;stroke-linejoin:round;}</style></defs><rect class="a" x="18.9928" y="19.8598" width="10" height="10"/><path class="a" d="M44.4928,19.86h-4.25a16.8821,16.8821,0,0,0-2.3-4.707L40.0747,13.02a.7566.7566,0,0,0,0-1.07L36.9021,8.7778a.7564.7564,0,0,0-1.07,0l-2.1364,2.1363a16.9772,16.9772,0,0,0-4.703-2.2936V4.36a1,1,0,0,0-1-1h-8a1,1,0,0,0-1,1V8.6205a16.9772,16.9772,0,0,0-4.703,2.2936L12.1533,8.7778a.7564.7564,0,0,0-1.07,0L7.9108,11.95a.7564.7564,0,0,0,0,1.07l2.1324,2.1324a16.8808,16.8808,0,0,0-2.3,4.707h-4.25a1,1,0,0,0-1,1v8a1,1,0,0,0,1,1h4.25a16.8808,16.8808,0,0,0,2.3,4.707L7.9108,36.6992a.7564.7564,0,0,0,0,1.07l3.1726,3.1726a.7564.7564,0,0,0,1.07,0L14.29,38.8055a16.9772,16.9772,0,0,0,4.703,2.2936V45.36a1,1,0,0,0,1,1h8a1,1,0,0,0,1-1V41.0991a16.9772,16.9772,0,0,0,4.703-2.2936l2.1364,2.1363a.7564.7564,0,0,0,1.07,0l3.1726-3.1726a.7566.7566,0,0,0,0-1.07l-2.1323-2.1324a16.8821,16.8821,0,0,0,2.3-4.707h4.25a1,1,0,0,0,1-1v-8A1,1,0,0,0,44.4928,19.86Z"/></svg>