<?xml version="1.0" encoding="UTF-8"?><svg id="a" xmlns="http://www.w3.org/2000/svg" viewBox="0 0 48 48"><defs><style>.b{fill:none;stroke:#fff;stroke-linecap:round;stroke-linejoin:round;}</style></defs><path class="b" d="M38.5001,5.5H9.5001c-2.2091,0-4,1.7909-4,4v29c0,2.2091,1.7909,4,4,4h29c2.2091,0,4-1.7909,4-4V9.5c0-2.2091-1.7909-4-4-4Z"/><line class="b" x1="5.5" y1="31" x2="42.5" y2="31"/><path class="b" d="M12.5,22.8731v-9.2462h2.0804c2.2341,0,4.0452,1.8111,4.0452,4.0452v1.1558c0,2.2341-1.8111,4.0452-4.0452,4.0452h-2.0804Z"/><path class="b" d="M35.5,19.7724v.0379c0,1.6915-1.3713,3.0628-3.0628,3.0628h0c-1.6915,0-3.0628-1.3713-3.0628-3.0628v-3.1206c0-1.6915,1.3713-3.0628,3.0628-3.0628h0c1.6915,0,3.0628,1.3713,3.0628,3.0628v.0379"/><path class="b" d="M20.9372,19.8103c0,1.6915,1.3713,3.0628,3.0628,3.0628s3.0628-1.3713,3.0628-3.0628v-3.1206c0-1.6915-1.3713-3.0628-3.0628-3.0628s-3.0628,1.3713-3.0628,3.0628v3.1206Z"/></svg>