<?xml version="1.0" encoding="UTF-8"?><svg id="b" xmlns="http://www.w3.org/2000/svg" viewBox="0 0 48 48"><defs><style>.c{fill:none;stroke:#fff;stroke-linecap:round;stroke-linejoin:round;}</style></defs><path class="c" d="M38.5,5.5H9.5c-2.2091,0-4,1.7909-4,4v29c0,2.2091,1.7909,4,4,4h29c2.2091,0,4-1.7909,4-4V9.5c0-2.2091-1.7909-4-4-4Z"/><line class="c" x1="30.5116" y1="18.7257" x2="34.0058" y2="18.7257"/><line class="c" x1="34.0058" y1="29.2743" x2="34.0058" y2="18.7257"/><path class="c" d="M10.5,29.2743v-10.5485h2.3734c2.5488,0,4.615,2.0662,4.615,4.615v1.3186c0,2.5488-2.0662,4.615-4.615,4.615h-2.3734Z"/><rect class="c" x="20.939" y="18.7257" width="6.9884" height="10.5485" rx="2.65" ry="2.65"/><line class="c" x1="37.5" y1="18.7257" x2="37.5" y2="18.7257"/></svg>