<?xml version="1.0" encoding="UTF-8"?><svg id="a" xmlns="http://www.w3.org/2000/svg" viewBox="0 0 48 48"><defs><style>.m{fill:none;stroke:#fff;stroke-linecap:round;stroke-linejoin:round;}</style></defs><path id="b" class="m" d="M23.02,11.0539v-1.8587c0-1.022.8283-1.8506,1.85-1.8506h0c1.0217,0,1.85.8285,1.85,1.8506v1.8506"/><path id="c" class="m" d="M32.9734,40.6553h-16.9467c-3.4796,0-6.3266-2.8479-6.3266-6.3287v-16.9522c0-3.4807,2.847-6.3287,6.3266-6.3287h16.9467c3.4796,0,6.3266,2.8479,6.3266,6.3287v16.9522c0,3.4807-2.847,6.3287-6.3266,6.3287"/><path id="d" class="m" d="M30.79,34.3633h-12.58c-1.628,0-2.96-1.3324-2.96-2.9609h0c0-1.6285,1.332-2.9609,2.96-2.9609h12.58c1.628,0,2.96,1.3324,2.96,2.9609h0c0,1.6285-1.332,2.9609-2.96,2.9609"/><path id="e" class="m" d="M7.85,29.5518h0c-1.0217,0-1.85-.8285-1.85-1.8506v-5.9219c0-1.022.8283-1.8506,1.85-1.8506h0c1.0217,0,1.85.8285,1.85,1.8506v5.9219c0,1.022-.8283,1.8506-1.85,1.8506"/><path id="f" class="m" d="M41.15,29.5518h0c1.0217,0,1.85-.8285,1.85-1.8506v-5.9219c0-1.022-.8283-1.8506-1.85-1.8506h0c-1.0217,0-1.85.8285-1.85,1.8506v5.9219c0,1.022.8283,1.8506,1.85,1.8506"/><path id="g" class="m" d="M18.58,28.4414v5.9219"/><path id="h" class="m" d="M22.28,28.4414v5.9219"/><path id="i" class="m" d="M25.98,28.4414v5.9219"/><path id="j" class="m" d="M29.68,28.4414v5.9219"/><path id="k" class="m" d="M28.9406,20.6706c0,1.1585.9389,2.0977,2.097,2.0977s2.097-.9392,2.097-2.0977c.0008-1.1585-.9375-2.0983-2.0956-2.0991s-2.0976.9378-2.0984,2.0963v.0028"/><path id="l" class="m" d="M15.9903,20.6702c-.0008,1.1585.9375,2.0983,2.0956,2.0991s2.0976-.9378,2.0984-2.0963v-.0028c0-1.1585-.9389-2.0977-2.097-2.0977s-2.097.9392-2.097,2.0977"/></svg>