<svg xmlns="http://www.w3.org/2000/svg" viewBox="0 0 48 48"><defs><style>.a{fill:none;stroke:#fff;stroke-linecap:round;stroke-linejoin:round;}</style></defs><path class="a" d="M24,23.6641H20.1748s1.9329-8.0415.3608-11.9437S15.4109,4.5,14.5076,4.5s-4.2338,2.3554-4.2338,9.8311S14.309,24.7157,14.309,24.7157c-1.0434.3727-8.0032,10.5046-6.7041,12.6525s10.6244,5.5569,12.9064,5.93,2.4759.4939,2.4759-2.057V37.4567s-3.7984-1.8061-3.4631-4.5071S24,30.4178,24,30.4178"/><path class="a" d="M16.1913,23.5738s-3.9661-11.9153-1.1826-12.3053,2.566,12.3053,2.566,12.3053Z"/><path class="a" d="M24,23.6641h3.8252s-1.9329-8.0415-.3608-11.9437,5.1247-7.22,6.028-7.22,4.2338,2.3554,4.2338,9.8311S33.691,24.7157,33.691,24.7157c1.0434.3727,8.0032,10.5046,6.7041,12.6525s-10.6244,5.5569-12.9064,5.93-2.4759.4939-2.4759-2.057V37.4567s3.7984-1.8061,3.4631-4.5071S24,30.4178,24,30.4178"/><path class="a" d="M31.8087,23.5738s3.9661-11.9153,1.1826-12.3053-2.566,12.3053-2.566,12.3053Z"/></svg>