<?xml version="1.0" encoding="UTF-8"?><svg id="b" xmlns="http://www.w3.org/2000/svg" viewBox="0 0 48 48"><defs><style>.c{fill:none;stroke:#fff;stroke-linecap:round;stroke-linejoin:round;}</style></defs><path class="c" d="M11.0461,5.4999l31.454,5.5462-5.5462,31.454-31.454-5.5462L11.0461,5.4999Z"/><path class="c" d="M39.3961,21.1239c-.5453.7243-1.5711,1.2121-2.7467,1.2121-1.747,0-3.1631-1.0775-3.1631-2.4067v-1.5643c0-1.3292,1.4161-2.4067,3.1631-2.4067,1.1733,0,2.1974.486,2.7435,1.208"/><path class="c" d="M23.4084,22.3355v-3.9709c0-1.3292-1.4161-2.4066-3.163-2.4066s-3.163,1.0774-3.163,2.4066"/><path class="c" d="M10.7722,15.9578h6.3102v6.3775"/><path class="c" d="M12.6531,22.3359v-7.9421c0-.9304.9913-1.6847,2.2141-1.6847,1.0897,0,1.7701.2455,2.2366.7049"/><path class="c" d="M31.6041,19.9299c0,1.3292-1.4054,2.4067-3.139,2.4067h-1.1017c-1.1485,0-2.0796-.7138-2.0796-1.5944s.931-1.5944,2.0796-1.5944h4.2466"/><path class="c" d="M26.0691,16.5899c.7623-.5809,1.2964-.6318,2.7677-.6318,1.6703,0,2.7677.559,2.7677,2.0699v4.3078"/></svg>