<svg xmlns="http://www.w3.org/2000/svg" viewBox="0 0 48 48"><defs><style>.a{fill:none;stroke:#fff;stroke-linecap:round;stroke-linejoin:round;}</style></defs><line class="a" x1="38.7836" y1="13.6394" x2="41.4154" y2="13.6374"/><line class="a" x1="40.1104" y1="17.1176" x2="43.5" y2="17.115"/><path class="a" d="M21.5207,25.9358c5.266-3.276,11.4,3.8213,15.5614-1.99C40.59,19.0474,31.865,12.6405,28.815,10.6568c-3.68-2.3937-6.9024-1.979-8.885-.7456-2.37,1.4742-2.6739,4.542-4.7493,5.8332s-4.9619.2081-7.3317,1.6823c-1.9825,1.2333-3.7786,3.94-3.258,8.3.4315,3.6127,2.3227,14.2709,8.2671,13.2891C19.91,37.8507,16.2546,29.2118,21.5207,25.9358Z"/><circle class="a" cx="11.9832" cy="24.6938" r="3.1192"/><circle class="a" cx="22.5004" cy="16.0459" r="1.3133"/><circle class="a" cx="27.2715" cy="17.1574" r="1.3133"/><line class="a" x1="14.4153" y1="38.5713" x2="18.8956" y2="38.5679"/><line class="a" x1="17.6687" y1="34.0464" x2="21.2446" y2="34.0436"/><line class="a" x1="36.9655" y1="24.1032" x2="38.0987" y2="24.1023"/><line class="a" x1="37.7995" y1="20.4977" x2="40.4187" y2="20.4957"/><line class="a" x1="36.1412" y1="17.1206" x2="37.6643" y2="17.1194"/><line class="a" x1="32.9255" y1="13.7483" x2="36.3382" y2="13.7456"/><line class="a" x1="40.1157" y1="24.1008" x2="42.3558" y2="24.0991"/><line class="a" x1="21.6051" y1="38.5658" x2="23.8453" y2="38.5641"/><line class="a" x1="27.8634" y1="10.0942" x2="31.8235" y2="10.0911"/></svg>