<?xml version="1.0" encoding="UTF-8"?><svg id="a" xmlns="http://www.w3.org/2000/svg" viewBox="0 0 48 48"><defs><style>.b{fill:none;stroke:#fff;stroke-linecap:round;stroke-linejoin:round;}</style></defs><path class="b" d="M38.5,5.5H9.5c-2.2091,0-4,1.7909-4,4v29c0,2.2091,1.7909,4,4,4h29c2.2091,0,4-1.7909,4-4V9.5c0-2.2091-1.7909-4-4-4Z"/><path class="b" d="M17.1749,21.1094c0-2.1925-1.8308-3.9564-4.0438-3.8403-2.0751.1089-3.6311,1.9755-3.6311,4.0579v3.5635c0,2.1239,1.7181,3.8457,3.8375,3.8457h0c2.1194,0,3.8375-1.7218,3.8375-3.8457h-3.8375"/><path class="b" d="M19.7698,24.0038c0-1.584,1.2841-2.8681,2.8681-2.8681h0"/><line class="b" x1="19.7698" y1="24.0038" x2="19.7698" y2="28.7363"/><path class="b" d="M30.083,25.8682c0,1.584-1.2841,2.8681-2.8681,2.8681h0c-1.584,0-2.8681-1.2841-2.8681-2.8681v-1.8643c0-1.584,1.2841-2.8681,2.8681-2.8681h0c1.584,0,2.8681,1.2841,2.8681,2.8681"/><line class="b" x1="30.083" y1="28.7363" x2="30.083" y2="21.1357"/><path class="b" d="M32.7637,24.0038c0-1.584,1.2841-2.8681,2.8681-2.8681h0c1.584,0,2.8681,1.2841,2.8681,2.8681v1.8643c0,1.584-1.2841,2.8681-2.8681,2.8681h0c-1.584,0-2.8681-1.2841-2.8681-2.8681"/><line class="b" x1="32.7637" y1="28.7363" x2="32.7637" y2="17.2637"/></svg>