<svg xmlns="http://www.w3.org/2000/svg" viewBox="0 0 48 48"><defs><style>.a{fill:none;stroke:#fff;stroke-linecap:round;stroke-linejoin:round;}</style></defs><path class="a" d="M24.0718,44.5s-12.4242-32.3032,0-32.303S24.0718,44.5,24.0718,44.5Z"/><path class="a" d="M19.1021,19.6514s1.2383.2069,1.8637.2485c.62.0411,1.8636,0,1.8636,0"/><path class="a" d="M19.1021,23.3786a12.07,12.07,0,0,0,1.2424.2485,11.8406,11.8406,0,0,0,1.2425,0"/><path class="a" d="M29.0415,22.1362s-1.2383.207-1.8636.2485c-.62.0411-1.8637,0-1.8637,0"/><path class="a" d="M29.0415,24.6211a12.0726,12.0726,0,0,1-1.2424.2484,11.81,11.81,0,0,1-1.2424,0"/><path class="a" d="M27.7991,32.0756a12.0635,12.0635,0,0,1-1.2424.2485,11.8406,11.8406,0,0,1-1.2425,0"/><path class="a" d="M21.587,37.0453a12.0635,12.0635,0,0,0,1.2424.2485,11.839,11.839,0,0,0,1.2424,0"/><path class="a" d="M27.9727,13.9738s5.86-6.1747,3.5537-7.989c-1.363-1.254-4.97,2.4849-4.97,2.4849S25.9239,3.5,24.0718,3.5,21.587,8.47,21.587,8.47s-3.6361-3.77-4.97-2.4849c-2.45,2.361,3.5535,7.989,3.5535,7.989"/></svg>