<?xml version="1.0" encoding="UTF-8"?><svg id="a" xmlns="http://www.w3.org/2000/svg" viewBox="0 0 48 48"><defs><style>.b{fill:none;stroke:#fff;stroke-linecap:round;stroke-linejoin:round;}</style></defs><rect class="b" x="5.5" y="5.5" width="37" height="37" rx="4" ry="4"/><path class="b" d="M30.46,27.8953c.2415,1.1043,1.1043,5.97.5866,6.5914s-4.1782,3.8471-4.6933,4.6587c-.1364.1933-.2197.4189-.2417.6544.1037,1.1919,2.3468,1.1923,2.3468,2.1409,0,.7247-2.9333.618-4.9339-.0607-.8412-.3384-.2425-1.8028.6853-2.4212l3.1966-5.1829c-.0912-.5264-.3593-1.006-.76-1.3594-1.4712,1.4054-3.0979,2.6384-4.8486,3.6752-1.2637,1.2182-2.6194,2.3374-4.0549,3.3475.19.9317,2.1914,1.2423,2.4674,2.0188s-2.0015.4951-2.5709.48c-.9347-.1889-1.8481-.4713-2.7263-.8429-.3229-.1177-.0088-1.4168,1.1216-2.3466,0,0,3.1921-3.5545,3.796-4.0821,1.3253-1.5622,2.5091-3.2392,3.5373-5.0112-.1452-1.8065.703-3.5492,2.2143-4.5495.1726-1.4494,2.9678-5.3605,3.7731-6.2175.3335-.355.0172-2.2431,3.3129-2.709s7.7014-1.99,8.7539-2.7492"/><path class="b" d="M30.46,27.8953c.8567-.9011,1.5565-1.9392,2.0705-3.0713,1.3632-2.8816,1.8291-3.2957,1.7773-5.2972,2.6248-.9586,5.0632-2.3657,7.2067-4.1584.1151-.9088.4487-4.4518.4487-4.4518"/><path class="b" d="M32.669,16.68c-.2646-.9893,1.1478-2.9157,3.0943-2.6457.8363.0299,1.4901.7321,1.4602,1.5684-.0003.0072-.0006.0144-.0009.0216"/></svg>