<svg xmlns="http://www.w3.org/2000/svg" viewBox="0 0 48 48"><defs><style>.a{fill:none;stroke:#fff;stroke-linecap:round;stroke-linejoin:round;}</style></defs><rect class="a" x="11.8499" y="23.5739" width="13.5967" height="6.9602"/><polyline class="a" points="5.733 30.534 5.064 30.534 4.5 28.88 4.5 23.574 11.85 23.574 11.85 30.534 11.03 30.534"/><path class="a" d="M31.873,30.5341h1.7149l3.9447-.8033V25.9779s-3.7888-2.404-12.086-2.404v6.96h1.1318"/><polygon class="a" points="20.039 17.249 13.121 17.249 11.85 23.574 25.447 23.574 24.579 22.559 20.039 17.249"/><path class="a" d="M43.5,27.1894V23.4365s-3.7889-2.404-12.086-2.404"/><polyline class="a" points="31.414 21.032 30.546 20.018 26.007 14.708 19.088 14.708"/><polyline class="a" points="4.5 23.574 4.5 21.685 13.121 17.249"/><circle class="a" cx="8.3805" cy="30.6425" r="2.6498"/><circle class="a" cx="29.2257" cy="30.6425" r="2.6498"/><line class="a" x1="20.0391" y1="17.2492" x2="26.0065" y2="14.7077"/><line class="a" x1="13.1209" y1="17.2492" x2="19.0882" y2="14.7077"/><line class="a" x1="25.4466" y1="23.5739" x2="31.414" y2="21.0325"/><line class="a" x1="37.5326" y1="29.7308" x2="43.5" y2="27.1894"/><line class="a" x1="37.5326" y1="26.1154" x2="43.5" y2="23.5739"/></svg>