<?xml version="1.0" encoding="UTF-8"?><svg id="a" xmlns="http://www.w3.org/2000/svg" viewBox="0 0 48 48"><defs><style>.m{fill:none;stroke:#fff;stroke-linecap:round;stroke-linejoin:round;}.n{fill:#fff;stroke-width:0px;}</style></defs><path id="b" class="m" d="M38.5,5.5H9.5c-2.2091,0-4,1.7909-4,4v29c0,2.2091,1.7909,4,4,4h29c2.2091,0,4-1.7909,4-4V9.5c0-2.2091-1.7909-4-4-4Z"/><g id="c"><line id="d" class="m" x1="37.3838" y1="19.4955" x2="29.5846" y2="29.8295"/><line id="e" class="m" x1="37.3838" y1="29.8295" x2="29.5846" y2="19.4955"/></g><g id="f"><path id="g" class="m" d="M22.9705,16.0508v11.6989c0,1.1699.7799,1.9498,1.9498,1.9498h.5849"/><line id="h" class="m" x1="21.0207" y1="19.3655" x2="25.1153" y2="19.3655"/></g><g id="i"><g id="j"><path id="k" class="m" d="M17.2455,19.0704v11.6989c0,2.1448-1.7548,3.8996-3.8996,3.8996h0c-.9749,0-1.9498-.39-2.7297-1.1699"/></g><circle id="l" class="n" cx="17.2455" cy="14.3909" r=".75"/></g></svg>