<?xml version="1.0" encoding="UTF-8"?><svg id="d" xmlns="http://www.w3.org/2000/svg" viewBox="0 0 48 48"><defs><style>.l{fill:none;stroke:#fff;stroke-linecap:round;stroke-linejoin:round;}</style></defs><g id="e"><g id="f"><path id="g" class="l" d="M5.5,14.75c0-5.1086,4.1414-9.25,9.25-9.25s9.25,4.1414,9.25,9.25-4.1414,9.25-9.25,9.25-9.25-4.1414-9.25-9.25Z"/><path id="h" class="l" d="M24,14.75c0-5.1086,4.1414-9.25,9.25-9.25s9.25,4.1414,9.25,9.25-4.1414,9.25-9.25,9.25-9.25-4.1414-9.25-9.25Z"/><path id="i" class="l" d="M24,33.25c0-5.1086,4.1414-9.25,9.25-9.25s9.25,4.1414,9.25,9.25-4.1414,9.25-9.25,9.25-9.25-4.1414-9.25-9.25Z"/><path id="j" class="l" d="M5.5,14.75h27.75v18.5H5.5"/><path id="k" class="l" d="M5.5,33.25c0-5.1086,4.1414-9.25,9.25-9.25s9.25,4.1414,9.25,9.25-4.1414,9.25-9.25,9.25-9.25-4.1414-9.25-9.25Z"/></g></g></svg>