<?xml version="1.0" encoding="UTF-8"?><svg id="a" xmlns="http://www.w3.org/2000/svg" viewBox="0 0 48 48"><defs><style>.b{fill:none;stroke:#fff;stroke-linecap:round;stroke-linejoin:round;}</style></defs><rect class="b" x="5.5" y="5.5" width="7.75" height="7.75"/><rect class="b" x="15.25" y="5.5" width="7.75" height="7.75"/><rect class="b" x="25" y="5.5" width="7.75" height="7.75"/><rect class="b" x="34.75" y="5.5" width="7.75" height="7.75"/><rect class="b" x="5.5" y="15.25" width="7.75" height="7.75"/><rect class="b" x="25" y="15.25" width="7.75" height="7.75"/><rect class="b" x="34.75" y="15.25" width="7.75" height="7.75"/><rect class="b" x="5.5" y="25" width="7.75" height="7.75"/><rect class="b" x="15.25" y="25" width="7.75" height="7.75"/><rect class="b" x="25" y="25" width="7.75" height="7.75"/><rect class="b" x="34.75" y="25" width="7.75" height="7.75"/><rect class="b" x="5.5" y="34.75" width="7.75" height="7.75"/><rect class="b" x="15.25" y="34.75" width="7.75" height="7.75"/><rect class="b" x="25" y="34.75" width="7.75" height="7.75"/><rect class="b" x="34.75" y="34.75" width="7.75" height="7.75"/></svg>
