<?xml version="1.0" encoding="UTF-8"?><svg id="a" xmlns="http://www.w3.org/2000/svg" viewBox="0 0 48 48"><defs><style>.c{fill:none;stroke:#fff;stroke-linecap:round;stroke-linejoin:round;}</style></defs><path class="c" d="M17.5,42.3828h-9c-2.2091,0-4-1.7909-4-4V9.6172c0-2.2091,1.7909-4,4-4h.374c.8373,0,1.6365.3499,2.2044.9652l5.3608,5.8075c.6821.7389,1.0608,1.7076,1.0608,2.7131v27.2798Z"/><path class="c" d="M8.874,5.6172h13c.8373,0,1.6365.3499,2.2044.9652l5.3608,5.8075c.6821.7389,1.0608,1.7076,1.0608,2.7131v27.2798h-13"/><path class="c" d="M21.874,5.6172h13c.8373,0,1.6365.3499,2.2044.9652l5.3608,5.8075c.6821.7389,1.0608,1.7076,1.0608,2.7131v23.2798c0,2.2091-1.7909,4-4,4h-9"/></svg>