<svg xmlns="http://www.w3.org/2000/svg" viewBox="0 0 48 48"><defs><style>.a{fill:none;stroke:#fff;stroke-linecap:round;stroke-linejoin:round;}</style></defs><path class="a" d="M33.67,4.84v23h6.89V10.43"/><path class="a" d="M18.24,45.45A21.87,21.87,0,0,1,2.71,21.37,21.61,21.61,0,0,1,24.09,2.5,21.63,21.63,0,0,1,45.32,21.56,21.87,21.87,0,0,1,29.58,45.5"/><path class="a" d="M29.58,45.5l-1-4.18H19.17l-.93,4.13"/><path class="a" d="M14,5v22.8H7.12v-17"/><path class="a" d="M27.23,2.76V27.82H20.39v-25"/><path class="a" d="M10.7,27.82V41.56"/><path class="a" d="M36.89,27.82V41.89"/><path class="a" d="M23.84,27.82V41.31"/></svg>