<svg id="Layer_2" data-name="Layer 2" xmlns="http://www.w3.org/2000/svg" viewBox="0 0 48 48"><defs><style>.cls-1{fill:none;stroke:#fff;stroke-linecap:round;stroke-linejoin:round;}</style></defs><path class="cls-1" d="M37,3a8,8,0,1,0,7.9,8A8,8,0,0,0,37,3Zm4.79,10.3a5.26,5.26,0,1,1-7.2-7.19.18.18,0,0,1,.25.06.24.24,0,0,1,0,.12A5.25,5.25,0,0,0,41.57,13a.19.19,0,0,1,.26,0A.18.18,0,0,1,41.79,13.3Z"/><path class="cls-1" d="M27.87,25.87,24.9,28,26,31.43a.3.3,0,0,1-.18.38.31.31,0,0,1-.28,0L22.63,29.6,19.7,31.77a.3.3,0,0,1-.42-.07.32.32,0,0,1,0-.27L20.4,28l-3-2.12a.3.3,0,0,1-.06-.42.28.28,0,0,1,.23-.12h3.62l1.11-3.44a.29.29,0,0,1,.38-.19.3.3,0,0,1,.19.19L24,25.33H27.6a.29.29,0,0,1,.34.25.3.3,0,0,1-.12.29Zm7,6.57L33,33.78,33.73,36a.18.18,0,0,1-.11.24.21.21,0,0,1-.19,0l-1.85-1.34-1.85,1.34a.18.18,0,0,1-.26-.05.23.23,0,0,1,0-.16l.7-2.18-1.85-1.34a.19.19,0,0,1-.06-.26.18.18,0,0,1,.17-.09h2.29l.71-2.18a.19.19,0,0,1,.24-.12.18.18,0,0,1,.12.12l.64,2.18h2.29a.19.19,0,0,1,.22.15.2.2,0,0,1-.09.2Z"/><path class="cls-1" d="M8.4,6.45v35.1a2,2,0,0,0,1.95,2h2.38V4.5H10.35A2,2,0,0,0,8.4,6.45Z"/><path class="cls-1" d="M32.32,4.5H12.73v39H37.65a2,2,0,0,0,2-2V18.43"/></svg>