<?xml version="1.0" encoding="UTF-8"?><svg id="a" xmlns="http://www.w3.org/2000/svg" viewBox="0 0 48 48"><defs><style>.b{fill:none;stroke:#fff;stroke-linecap:round;stroke-linejoin:round;}</style></defs><path class="b" d="m22.9884,5.6043c.4854-.238,1.0022-.4196,1.519-.6043.5029.1816,1.0126.3601,1.4911.5918,5.3636,2.696,10.7098,5.4201,16.077,8.1067.4993.2911.9497.7828.9149,1.3464.014,5.5422.0105,11.0845.0035,16.6266.0629.8267-.4993,1.575-1.3234,1.9131-4.9306,2.4737-9.8683,4.9349-14.799,7.4053-.9219.4572-1.8542,1.3026-3.0031.9081-5.5452-2.8745-11.1987-5.6049-16.7719-8.4449-.7298-.335-1.1174-1.0583-1.072-1.7784-.0244-5.5517.014-11.1033-.0244-16.6549.0314-.9112,1.0266-1.4278,1.8333-1.7816,5.0668-2.5207,10.1023-5.0882,15.1551-7.6339Zm-10.7378,9.641c1.3235.6826,2.6714,1.3276,3.9809,2.0321,4.1519-1.9884,8.1956-4.1645,12.3442-6.1654-1.3654-.67-2.7098-1.3684-4.0717-2.0415-4.089,2.0478-8.1607,4.13-12.2534,6.1748Zm20.4491-2.0291c-4.0298,2.051-8.07,4.0893-12.1172,6.1153,1.1698.8674,2.619,1.3808,3.911,2.0885,4.0996-2.0384,8.1921-4.0862,12.2464-6.1935-1.3584-.6544-2.6819-1.3558-4.0402-2.0103Zm-22.5721,5.1853c.0035,4.1176,0,8.2382,0,12.3557,4.1031,2.0698,8.2201,4.1144,12.3301,6.1748.0035-4.0831-.0349-8.163.0175-12.2462-4.0647-2.1699-8.248-4.1613-12.3476-6.2843Zm16.4856,6.1622c-.0838,4.1175-.1013,8.2445.0105,12.3619,4.0611-2.0979,8.1851-4.0956,12.2637-6.1684,0-4.1206-.0105-8.2445.0035-12.3651-4.0925,2.0572-8.1572,4.1583-12.2777,6.1716Z"/></svg>