<?xml version="1.0" encoding="UTF-8"?><svg id="b" xmlns="http://www.w3.org/2000/svg" viewBox="0 0 48 48"><defs><style>.c{fill:none;stroke:#fff;stroke-linecap:round;stroke-linejoin:round;}</style></defs><path class="c" d="M38.5,5.5H9.5c-2.2091,0-4,1.7909-4,4v29c0,2.2091,1.7909,4,4,4h29c2.2091,0,4-1.7909,4-4V9.5c0-2.2091-1.7909-4-4-4Z"/><path class="c" d="M20.0161,24.65v2.7c0,1.1046-.8954,2-2,2h0c-.5523,0-1.0523-.2238-1.4142-.5858"/><path class="c" d="M20.0161,21.35v3.3c0,1.1046-.8954,2-2,2h0c-1.1046,0-2-.8954-2-2v-3.3"/><rect class="c" x="28.048" y="21.35" width="4" height="5.3" rx="2" ry="2"/><path class="c" d="M22.4803,26.2028c.3652.3066.7594.4472,1.6449.4472h.4487c.7302,0,1.3221-.5932,1.3221-1.325h0c0-.7318-.5919-1.325-1.3221-1.325h-.8974c-.7302,0-1.3221-.5932-1.3221-1.325h0c0-.7318.5919-1.325,1.3221-1.325h.4487c.8854,0,1.2797.1405,1.6449.4472"/><path class="c" d="M38.3397,26.65v-3.3c0-1.1046-.8954-2-2-2h0c-1.1046,0-2,.8954-2,2"/><line class="c" x1="34.3397" y1="26.65" x2="34.3397" y2="21.35"/><path class="c" d="M13.6603,23.35c0-1.1046-.8954-2-2-2h0c-1.1046,0-2,.8954-2,2v1.3c0,1.1046.8954,2,2,2h0c1.1046,0,2-.8954,2-2"/><line class="c" x1="13.6603" y1="26.65" x2="13.6603" y2="18.65"/></svg>