<?xml version="1.0" encoding="UTF-8"?><svg id="b" xmlns="http://www.w3.org/2000/svg" viewBox="0 0 48 48"><defs><style>.j{fill:none;stroke:#fff;stroke-linecap:round;stroke-linejoin:round;}</style></defs><path id="c" class="j" d="m15.572,34.879c-18.623-2.9319-9.4165-19.6609-3.5089-10.4076-3.639-2.8125-5.4148,6.6415,4.3774,4.0537"/><path id="d" class="j" d="m32.964,34.879c17.4261-1.1999,9.1555-20.5069,3.9471-10.72,4.7335-1.5691,2.3419,7.7881-5.236,4.7892"/><path id="e" class="j" d="m23.6796,34.7439c10.7436,9.8618,20.6599,8.7013,18.8574.9534-6.5513,6.6404-15.0158-2.1787-8.7515-12.6063C48.5964.6936-1.2623.4335,13.6779,22.9347c9.4263,12.9465-5.8061,19.3025-8.0743,12.7105-.8693,9.479,11.359,7.0761,18.076-.9013Z"/><g><ellipse id="f" class="j" cx="18.437" cy="17.4148" rx="3.5496" ry="4.7904"/><ellipse id="g" class="j" cx="29.8325" cy="17.4425" rx="3.5496" ry="4.7904"/><path id="h" class="j" d="m27.862,21.427c.3139-6.7666,5.2063-2.7224,2.9302.6276"/><path id="i" class="j" d="m20.5286,21.2852c.2288-4.151-4.9229-4.5155-3.1833.6878"/></g></svg>