<?xml version="1.0" encoding="UTF-8"?><svg id="a" xmlns="http://www.w3.org/2000/svg" viewBox="0 0 48 48"><defs><style>.b{fill:none;stroke:#fff;stroke-linecap:round;stroke-linejoin:round;}</style></defs><g><path class="b" d="m19.1511,29.3644c5.9373,2.5286,12.8058.722,16.1762-4.9939,3.6961-6.2683,1.611-14.3461-4.6573-18.0422-6.2683-3.6961-14.3461-1.611-18.0422,4.6573-3.6961,6.2683-1.4362,13.8278,4.8321,17.5239"/><path class="b" d="m31.6612,6.9734c1.6302,1.3849,1.4129,4.4859-1.6467,4.4507s-2.6443-2.8807-1.1781-3.0595c1.4419-.1758,1.6177,1.477.5275,1.5122"/><g><path class="b" d="m20.433,20.5513c1.0113-1.9078.8706-3.9635-.3142-4.5915s-2.965.4095-3.9763,2.3173c-1.0113,1.9078-.8146,3.8135.3702,4.4415s2.909-.2595,3.9202-2.1673Z"/><path class="b" d="m21.0924,17.6809c-.2673.6747-.9256,1.1518-1.6954,1.1518-1.0067,0-1.8229-.8161-1.8229-1.8229,0-.2012.0326-.3948.0928-.5758"/></g><g><path class="b" d="m29.9755,24.2844c.7822-2.0126.403-4.0379-.8468-4.5237s-2.8971.7521-3.6793,2.7647-.3648,3.8824.885,4.3681,2.8589-.5965,3.6411-2.6092Z"/><path class="b" d="m30.2961,21.3568c-.1869.7012-.7851,1.2518-1.5497,1.3414-.9999.1173-1.9055-.5982-2.0228-1.5981-.0234-.1998-.0136-.3959.0251-.5827"/></g><path class="b" d="m19.5231,25.1569c.973-.1876,1.899.2813,1.9459,1.055"/></g><path class="b" d="m16.5491,29.7417c1.7114-2.1218,2.3139-3.3773,3.261-2.4489.537.5264.0798,1.3118-1.2917,2.7771"/><path class="b" d="m15.412,31.1483c-.1055-1.266.7099-1.955,1.4393-1.7863"/><path class="b" d="m17.4283,32.2971c1.4419.2227,2.7001-1.8749,1.5845-2.772"/><path class="b" d="m15.4473,30.4813c-1.3599.0457-3.2823,2.3433-1.8639,3.6093s2.7261.2696,3.2679-.2579.753-1.0047.8701-1.5222"/><ellipse class="b" cx="16.344" cy="39.6646" rx="4.2552" ry="2.7958" transform="translate(-25.5039 30.2217) rotate(-54.8899)"/><ellipse class="b" cx="23.6177" cy="39.5468" rx="2.7958" ry="4.2552" transform="translate(-21.4564 30.0562) rotate(-47.2638)"/><path class="b" d="m14.6297,37.3531c-.3782-.8887-.1322-1.9997.3954-2.6487"/><path class="b" d="m17.6667,42.3572c1.2269,1.211,4.1446,1.4596,5.4288.21"/><path class="b" d="m16.8513,33.8328c1.7258-.7795,7.7042-2.2214,10.5879,2.0338,1.1655,1.7198.5645,2.7877-.5654,3.4496"/><path class="b" d="m26.8301,30.2818c2.4026.7493,5.4209,5.8563,3.0883,6.9036-1.7232.7737-2.3736-1.1566-2.3736-1.1566-.5629-1.6568-.9321-2.3425-1.3717-2.9052"/></svg>