<?xml version="1.0" encoding="UTF-8"?><svg id="b" xmlns="http://www.w3.org/2000/svg" viewBox="0 0 48 48"><defs><style>.c{fill:none;stroke:#fff;stroke-linecap:round;stroke-linejoin:round;}.d{fill:#fff;stroke-width:0px;}</style></defs><path class="c" d="M38.5,5.5H9.5c-2.2091,0-4,1.7909-4,4v29c0,2.2091,1.7909,4,4,4h29c2.2091,0,4-1.7909,4-4V9.5c0-2.2091-1.7909-4-4-4Z"/><circle class="c" cx="20.6689" cy="14.1349" r="3.3364"/><circle class="d" cx="16.1752" cy="18.993" r=".75"/><circle class="d" cx="14.0164" cy="21.1519" r=".75"/><circle class="d" cx="11.8575" cy="23.3107" r=".75"/><circle class="d" cx="9.6986" cy="25.4696" r=".75"/><circle class="d" cx="7.5397" cy="27.6285" r=".75"/><circle class="d" cx="16.1752" cy="36.264" r=".75"/><circle class="d" cx="18.4042" cy="38.493" r=".75"/><circle class="d" cx="20.6332" cy="40.722" r=".75"/><circle class="d" cx="14.0164" cy="34.1051" r=".75"/><circle class="d" cx="11.8575" cy="31.9463" r=".75"/><circle class="d" cx="9.6986" cy="29.7874" r=".75"/></svg>