<svg xmlns="http://www.w3.org/2000/svg" viewBox="0 0 48 48"><defs><style>.a{fill:none;stroke:#fff;stroke-linecap:round;stroke-linejoin:round;}</style></defs><path class="a" d="M26.3915,12.3315a24.8827,24.8827,0,0,0-2.5765.13l.05-.0112s-2.5893-3.0091-5.4275-2.7287a6.8091,6.8091,0,0,1,1.4513,3.6268l.0575-.013c-.2679.1038-.527.2127-.7715.33l.0185-.0159L8.1,4.5l7.0678,12.5991.0116-.01c-.342.4611-.6658.9378-.9825,1.4269C12.0425,21.845,7.785,29.3086,7.785,29.3086l3.1536,3.0485h4.7831c0-1.8921.7359-4.52,4.9933-5.5714s5.256-2.7331,5.5713-4.783c0,0,.5782.6833.5782,2.996S24,28.9407,24,28.9407a12.2383,12.2383,0,0,1,3.8633.6833,7.99,7.99,0,0,1,2.6806,1.6819A19.2328,19.2328,0,0,0,31.7,25.5243c0-2.7332-.946-7.79-6.6226-9.4929,0,0,10.88-1.6739,10.88,10.9645A19.2332,19.2332,0,0,1,33.96,35.09a25.0017,25.0017,0,0,1,2.628,8.41s3.6267-7.6739,3.6267-15.0849S37.0087,12.3315,26.3915,12.3315Z"/><path class="a" d="M15.9494,23.0364c1.4367-1.2614,3.5742-3.5741,4.03-5.0107l-.35,2.2776.35.6307A4.4711,4.4711,0,0,1,15.9494,23.0364Z"/></svg>