<svg xmlns="http://www.w3.org/2000/svg" viewBox="0 0 48 48"><defs><style>.a{fill:none;stroke:#fff;stroke-linecap:round;stroke-linejoin:round;}</style></defs><path class="a" d="M38.7327,17.6664c.4212-.1176,1.2673,1.5191,2.1423,2.221a4.86,4.86,0,0,0,1.7468,1.1036c.2677.0457,1.2406.3.7346,1.2635a2.424,2.424,0,0,1-2.3717.971"/><path class="a" d="M15.175,6.923a7.6874,7.6874,0,0,0-3.6939-.2519A7.571,7.571,0,0,0,5.712,10.7849a8.6512,8.6512,0,0,0-.3461,8.1818,10.2825,10.2825,0,0,0,1.7229,2.26"/><path class="a" d="M28.0805,37.7089a1.3927,1.3927,0,0,0,.0385.449c.0294.1763.6759.6954,1.9459.728,1.257.0294,1.9851-.65,1.9753-1.0121-.0065-.3069.0758-1.4066.0758-1.4066"/><path class="a" d="M34.2179,36.2858a21.6058,21.6058,0,0,0,.17,2.414c.1077.2155.61.7183,1.8544.7673,1.5639.062,1.9459-.5224,1.9916-.9207s.2193-5.3168.2189-6.156"/><path class="a" d="M20.049,38.0435a21.0962,21.0962,0,0,0,.2343,3.2323,2.0906,2.0906,0,0,0,2.0993.9044c1.541-.0457,2.06-.9435,2.1059-1.1721s.0522-3.723.0522-3.723"/><path class="a" d="M17.335,37.191s.0817,2.6973.0817,2.965c0,.4146-.9632,1.0709-2.0439,1.0578-1.6618-.0228-1.8838-.6726-1.9622-.9958-.0457-.1926-.508-4.2947-.508-4.2947"/><path class="a" d="M25.1409,8.6708q-.0891-.07-.1921-.1387a2.435,2.435,0,0,0-2.3442-.2743,4.1348,4.1348,0,0,0-4-2.4356,4.2812,4.2812,0,0,0-4.597,2.896,3.0623,3.0623,0,0,0-3.6306.826,3.04,3.04,0,0,0-.3689,3.8134,2.33,2.33,0,0,0-.8717,2.07,1.9751,1.9751,0,0,0,.826,1.5639,5.9556,5.9556,0,0,0-2.896,4.4109c-.3689,3.402,1.1493,4.5969,1.1493,4.5969a5.5885,5.5885,0,0,0,.1371,5.1945c1.4039,2.896,3.402,3.0331,3.402,3.0331s1.0579,2.39,2.9874,2.85a6.9745,6.9745,0,0,0,3.5392-.0914,5.3358,5.3358,0,0,0,3.6306,1.332,3.3973,3.3973,0,0,0,2.4813-1.1492,3.8367,3.8367,0,0,0,3.4477.5975c2.2985-.5061,2.7132-1.7925,2.7132-1.7925a4.7461,4.7461,0,0,0,4.2737.0457,4.3237,4.3237,0,0,0,2.3442-3.17A5.3079,5.3079,0,0,0,40.7575,30.09a3.806,3.806,0,0,0,.0914-3.9538,5.9512,5.9512,0,0,0-.0457-3.7677,3.4508,3.4508,0,0,0-2.5727-2.8046s1.4235-2.5727-.5061-4.5056a5.683,5.683,0,0,0-3.4072-1.5453"/><path class="a" d="M10.27,17.1123a2.3892,2.3892,0,0,0,1.6227-.5812,5.3619,5.3619,0,0,0,1.319-1.5639,3.8156,3.8156,0,0,0,2.5727,1.9622c2.2365.3984,3.8-1.6847,3.8-1.6847a2.3189,2.3189,0,0,0,1.0121,2.1745A3.4128,3.4128,0,0,0,23.3555,18a12.94,12.94,0,0,0-2.4193,3.4935c-.5811,1.5932-.888,4.29-2.39,5.6091-2.1222,1.861-8.5181,1.5933-8.9785-2.8176-.1959-1.8741.7967-1.9.9207-4.4109A8.6422,8.6422,0,0,0,10.27,17.1123Z"/><path class="a" d="M22.8038,14.1118c0,1.9622.95,3.5555,1.2864,3.4314A2.7253,2.7253,0,0,0,26.0524,15.49a2.5648,2.5648,0,0,1,2.1417-1.6488c1.0448-.1208,2.1875.4375,2.73,2.3867a3.92,3.92,0,0,1-1.0121,4.1366c-.9534.702-2.25.5485-2.5728-.3983-.49-1.44,1.5313-1.93,1.5639-2.4193s-2.4813-1.5639-4.1986.1241a4.9136,4.9136,0,0,0-.5812,6.5885c1.5019,1.93,3.9114,2.24,6.3111.98,2.4519-1.2864,4.5088-3.895,4.3521-8.9164-.1828-5.8834-4.78-8.9394-8.3027-8.1492a3.9989,3.9989,0,0,0-2.7392,1.8642A8.7538,8.7538,0,0,0,22.8038,14.1118Z"/><line class="a" x1="12.4359" y1="17.5492" x2="12.3938" y2="18.881"/><line class="a" x1="18.6882" y1="17.9321" x2="18.6461" y2="19.2638"/><path class="a" d="M12.4148,22.6381l1.0782,1.2477a5.9174,5.9174,0,0,0,1.6261-.8131"/><path class="a" d="M11.4413,25.5972c.6175.4988,2.0517.3929,2.0517-1.7114"/><path class="a" d="M15.6845,25.8453c-.5937.2982-1.781.6851-2.3076-1.0441"/><path class="a" d="M8.4865,18.2151c-.1244-2.1377-2.3814-1.9524-2.3814-2.74,0-1.36,3.1826-1.8286,3.6521-2.5965"/></svg>