<?xml version="1.0" encoding="UTF-8"?><svg id="a" xmlns="http://www.w3.org/2000/svg" viewBox="0 0 48 48"><defs><style>.b{fill:none;stroke:#fff;stroke-linecap:round;stroke-linejoin:round;}</style></defs><path class="b" d="m24,30.9373s1.0111-2.3753,4.6062-2.3753c4.2691,0,8.5062,2.9531,14.8938,1.5407l-5.4568-14.5407c-5.1037,0-8.5062-3.0173-10.4963-3.0173s-3.5469,1.1235-3.5469,1.1235c0,0-1.5568-1.1235-3.5469-1.1235s-5.3926,3.0173-10.4963,3.0173l-5.4568,14.5407c6.3877,1.4123,10.6247-1.5407,14.8938-1.5407,3.5951,0,4.6062,2.3753,4.6062,2.3753Z"/><path class="b" d="m41.6006,30.3844l1.7308,3.5541c-5.1278,2.7926-8.7148-.9389-14.0352-.9389-3.6213,0-4.1889,2.4556-5.2963,2.4556-1.1074,0-1.675-2.4556-5.2963-2.4556-5.3204,0-8.9074,3.7315-14.0352.9389l1.7308-3.5541"/><path class="b" d="m20.0759,15.2571c1.4204,1.5568,8.4741-.5296,8.4741,1.7574,0,2.8327-7.6315.8426-7.6315,3.5148,0,2.3352,6.5241.8931,6.5241,2.9635s-4.887.4149-4.887,1.7952c0,1.5086,3.0815.8988,3.0815,1.637,0,.4333-1.942.979-1.942,1.5407s.7222.6741.7222.6741"/><line class="b" x1="24" y1="13.6682" x2="24" y2="30.9373"/></svg>