<?xml version="1.0" encoding="UTF-8"?><svg id="b" xmlns="http://www.w3.org/2000/svg" viewBox="0 0 48 48"><defs><style>.c{fill:none;stroke:#fff;stroke-linecap:round;stroke-linejoin:round;}</style></defs><path class="c" d="M12.3065,37.0968c0,.775-.6282,1.4032-1.4032,1.4032s-1.4032-.6282-1.4032-1.4032.6282-1.4032,1.4032-1.4032,1.4032.6282,1.4032,1.4032ZM21.0373,28.3659c0,.775-.6282,1.4032-1.4032,1.4032s-1.4032-.6282-1.4032-1.4032.6282-1.4032,1.4032-1.4032,1.4032.6282,1.4032,1.4032ZM16.6724,28.3659c0,.775-.6282,1.4032-1.4032,1.4032s-1.4032-.6282-1.4032-1.4032.6282-1.4032,1.4032-1.4032,1.4032.6282,1.4032,1.4032ZM12.3065,28.3659c0,.775-.6282,1.4032-1.4032,1.4032s-1.4032-.6282-1.4032-1.4032.6282-1.4032,1.4032-1.4032,1.4032.6282,1.4032,1.4032ZM16.672,32.7309c0,.775-.6282,1.4032-1.4032,1.4032s-1.4032-.6282-1.4032-1.4032.6282-1.4032,1.4032-1.4032,1.4032.6282,1.4032,1.4032ZM21.0376,37.0968c0,.775-.6282,1.4032-1.4032,1.4032s-1.4032-.6282-1.4032-1.4032.6282-1.4032,1.4032-1.4032,1.4032.6282,1.4032,1.4032ZM25.4032,37.0968c0,.775-.6282,1.4032-1.4032,1.4032s-1.4032-.6282-1.4032-1.4032.6282-1.4032,1.4032-1.4032,1.4032.6282,1.4032,1.4032ZM25.4032,32.7309c0,.775-.6282,1.4032-1.4032,1.4032s-1.4032-.6282-1.4032-1.4032.6282-1.4032,1.4032-1.4032,1.4032.6282,1.4032,1.4032ZM29.7691,28.3659c0,.775-.6282,1.4032-1.4032,1.4032s-1.4032-.6282-1.4032-1.4032.6282-1.4032,1.4032-1.4032,1.4032.6282,1.4032,1.4032ZM38.5,37.0968c0,.775-.6282,1.4032-1.4032,1.4032s-1.4032-.6282-1.4032-1.4032.6282-1.4032,1.4032-1.4032,1.4032.6282,1.4032,1.4032ZM34.1344,37.0968c0,.775-.6282,1.4032-1.4032,1.4032s-1.4032-.6282-1.4032-1.4032.6282-1.4032,1.4032-1.4032,1.4032.6282,1.4032,1.4032ZM34.1341,32.7309c0,.775-.6282,1.4032-1.4032,1.4032s-1.4032-.6282-1.4032-1.4032.6282-1.4032,1.4032-1.4032,1.4032.6282,1.4032,1.4032ZM38.5,32.7312c0,.775-.6282,1.4032-1.4032,1.4032s-1.4032-.6282-1.4032-1.4032.6282-1.4032,1.4032-1.4032,1.4032.6282,1.4032,1.4032ZM38.5,28.3656c0,.775-.6282,1.4032-1.4032,1.4032h0c-.775,0-1.4032-.6282-1.4032-1.4032h0c0-.775.6282-1.4032,1.4032-1.4032s1.4032.6282,1.4032,1.4032ZM38.5,24c0,.775-.6282,1.4032-1.4032,1.4032s-1.4032-.6282-1.4032-1.4032.6282-1.4032,1.4032-1.4032,1.4032.6282,1.4032,1.4032ZM38.5,19.6344c0,.775-.6282,1.4032-1.4032,1.4032s-1.4032-.6282-1.4032-1.4032.6282-1.4032,1.4032-1.4032,1.4032.6282,1.4032,1.4032ZM34.1341,19.6341c0,.775-.6282,1.4032-1.4032,1.4032s-1.4032-.6282-1.4032-1.4032.6282-1.4032,1.4032-1.4032,1.4032.6282,1.4032,1.4032ZM29.7691,19.6341c0,.775-.6282,1.4032-1.4032,1.4032s-1.4032-.6282-1.4032-1.4032.6282-1.4032,1.4032-1.4032,1.4032.6282,1.4032,1.4032ZM38.5,10.9032c0,.775-.6282,1.4032-1.4032,1.4032s-1.4032-.6282-1.4032-1.4032.6282-1.4032,1.4032-1.4032,1.4032.6282,1.4032,1.4032ZM34.1341,15.2688c0,.775-.6282,1.4032-1.4032,1.4032h0c-.775,0-1.4032-.6282-1.4032-1.4032s.6282-1.4032,1.4032-1.4032,1.4032.6282,1.4032,1.4032ZM29.7691,10.9032c0,.775-.6282,1.4032-1.4032,1.4032s-1.4032-.6282-1.4032-1.4032.6282-1.4032,1.4032-1.4032,1.4032.6282,1.4032,1.4032ZM29.7691,15.2691c0,.775-.6282,1.4032-1.4032,1.4032s-1.4032-.6282-1.4032-1.4032.6282-1.4032,1.4032-1.4032,1.4032.6282,1.4032,1.4032ZM13.7881,20.2775l5.456-7.5227M9.5,9.5h14.0323v14.0323h-14.0323v-14.0323Z"/><rect class="c" x="5.5" y="5.5" width="37" height="37" rx="4" ry="4"/></svg>