<?xml version="1.0" encoding="UTF-8"?><svg id="a" xmlns="http://www.w3.org/2000/svg" viewBox="0 0 48 48"><defs><style>.b{fill:none;stroke:#fff;stroke-linecap:round;stroke-linejoin:round;}</style></defs><path class="b" d="M20.94,18.7322l2.1759,8.1204h-7.4485M23.1161,26.8519l7.2777-7.2505,1.9018,7.0987-2.7567-10.2869s2.367-.4609,2.8276-.0653c.6438.5525.5203,1.7986-1.0077,1.6342"/><path class="b" d="M20.3566,25.7804c-1.0998-4.0995-5.2415-4.3013-7.379-3.0504-1.9693,1.3218-2.7518,3.8369-1.88,6.0426,1.0608,2.5251,3.9677,3.7122,6.4928,2.6515,1.3592-.571,2.3938-1.717,2.8234-3.1273M29.7097,22.4671c-2.3377,1.428-3.075,4.4807-1.647,6.8184,1.428,2.3377,4.4807,3.075,6.8184,1.647,2.3377-1.428,3.075-4.4807,1.647-6.8184-.9008-1.4747-2.5043-2.3742-4.2323-2.3743M29.2564,20.6252l-7.831-.049M22.1046,18.3688l-2.8287-.0392h0"/><path class="b" d="M38.5,42.5c2.2091,0,4-1.7909,4-4V9.5c0-2.2091-1.7909-4-4-4H9.5c-2.2091,0-4,1.7909-4,4v29c0,2.2091,1.7909,4,4,4h23.4242"/></svg>