<svg xmlns="http://www.w3.org/2000/svg" viewBox="0 0 48 48"><defs><style>.a{fill:none;stroke:#fff;stroke-linecap:round;stroke-linejoin:round;}</style></defs><path class="a" d="M24,12.41a7.26,7.26,0,0,0-7.26,7.26h0c0,5.68,5.56,12.53,7,14.21a.43.43,0,0,0,.62,0l.05,0c1.41-1.68,6.85-8.52,6.85-14.2A7.26,7.26,0,0,0,24,12.41Zm0,10a2.72,2.72,0,1,1,2.71-2.73v0A2.71,2.71,0,0,1,24,22.38Z"/><path class="a" d="M22.2,4.86,6.69,11.25V27C6.69,35.44,24,43.5,24,43.5S41.31,35.44,41.31,27V11.25L25.8,4.86A4.68,4.68,0,0,0,22.2,4.86Z"/></svg>