<?xml version="1.0" encoding="UTF-8"?><svg id="a" xmlns="http://www.w3.org/2000/svg" viewBox="0 0 48 48"><defs><style>.b{stroke-linecap:round;stroke-linejoin:round;}.b,.c{fill:none;stroke:#fff;}.c{stroke-miterlimit:10;}.d{fill:#fff;stroke-width:0px;}</style></defs><rect class="b" x="5.5" y="5.5" width="37" height="37" rx="4" ry="4"/><line class="b" x1="5.5" y1="24" x2="42.5" y2="24"/><circle class="b" cx="32.7314" cy="33.1636" r="6"/><circle class="b" cx="15.2686" cy="33.1636" r="6"/><line class="b" x1="22.1929" y1="24" x2="22.1929" y2="11.9907"/><circle class="c" cx="22.1929" cy="10.4907" r="1.5"/><circle class="d" cx="32.7314" cy="29.7763" r=".75"/><circle class="d" cx="15.2686" cy="33.1636" r=".75"/><circle class="d" cx="18.3395" cy="33.1636" r=".75"/><circle class="d" cx="16.7686" cy="35.8107" r=".75"/><circle class="d" cx="12.1402" cy="33.1636" r=".75"/><circle class="d" cx="13.6402" cy="35.8107" r=".75"/><circle class="d" cx="16.7686" cy="30.5263" r=".75"/><circle class="d" cx="13.6402" cy="30.5263" r=".75"/><line class="b" x1="38.7314" y1="16.95" x2="38.7314" y2="12.55"/><line class="b" x1="9.2686" y1="16.95" x2="9.2686" y2="12.55"/><line class="b" x1="14.1791" y1="15.75" x2="14.1791" y2="13.75"/><line class="b" x1="24" y1="15.75" x2="24" y2="13.75"/><line class="b" x1="33.8209" y1="15.75" x2="33.8209" y2="13.75"/><line class="b" x1="19.0895" y1="16.95" x2="19.0895" y2="12.55"/><line class="b" x1="28.9105" y1="16.95" x2="28.9105" y2="12.55"/></svg>