<svg xmlns="http://www.w3.org/2000/svg" viewBox="0 0 48 48"><defs><style>.a{fill:none;stroke:#fff;stroke-linecap:round;stroke-linejoin:round;}</style></defs><path class="a" d="M5.5,19.2H8.26c.88,0,1.4-.83,1.64-1.76l1.93-6.28h1.46l2,6.65c.2.64.41,1.39,1.4,1.39h5.6L26,12.68h7.86l3.76,6.52H42.5"/><path class="a" d="M12.53,26.5h1.4"/><path class="a" d="M11.13,28.5h1.4"/><path class="a" d="M11.13,30.5h1.4"/><path class="a" d="M11.13,34.5h1.4"/><path class="a" d="M12.53,32.5h1.4"/><path class="a" d="M12.53,36.5h1.4"/><path class="a" d="M12.53,38.5h1.4"/><path class="a" d="M12.53,40.5h1.4"/><path class="a" d="M11.13,42.5h1.4"/><path class="a" d="M26,26.24v1.4"/><path class="a" d="M33.88,26.94v1.4"/><path class="a" d="M30,26.22v6.27"/><path class="a" d="M30,34.21V42.5"/><path class="a" d="M33.88,30.32v1.4"/><path class="a" d="M33.88,36.4v1.39"/><path class="a" d="M33.88,39.79v1.39"/><path class="a" d="M26,31.28v1.4"/><path class="a" d="M26,34.94v1.4"/><path class="a" d="M26,41.1v1.4"/><path class="a" d="M28,28.42v1.39"/><path class="a" d="M31.91,26.85v1.39"/><path class="a" d="M31.91,31.64V33"/><path class="a" d="M31.91,34.75v1.4"/><path class="a" d="M28,31.86v1.4"/><path class="a" d="M28,41.1v1.4"/><path class="a" d="M28,38.06v1.4"/><path class="a" d="M31.91,38.35v1.4"/><path class="a" d="M6.5,23.5v1.4"/><path class="a" d="M5.5,24.9h37"/><path class="a" d="M41.5,23.5v1.4"/><path class="a" d="M11.5,23.5v1.4"/><path class="a" d="M16.5,23.5v1.4"/><path class="a" d="M26.5,23.5v1.4"/><path class="a" d="M21.5,23.5v1.4"/><path class="a" d="M31.5,23.5v1.4"/><path class="a" d="M36.5,23.5v1.4"/><path class="a" d="M38.9,39.5h1.4"/><path class="a" d="M38.9,37.5h1.4"/><path class="a" d="M38.9,35.5h1.4"/><path class="a" d="M5.5,21.5H6.9"/><path class="a" d="M5.5,16.5H6.9"/><path class="a" d="M5.5,11.5H6.9"/><path class="a" d="M5.5,6.5H6.9"/><path class="a" d="M5.5,42.5V5.5"/></svg>