<?xml version="1.0" encoding="UTF-8"?><svg id="b" xmlns="http://www.w3.org/2000/svg" viewBox="0 0 48 48"><defs><style>.c{fill:none;stroke:#fff;stroke-linecap:round;stroke-linejoin:round;}</style></defs><path class="c" d="m32.1156,14.4979h2.1452l.0002,10.1104h1.9759v5.1502h-4.0441v2.2644h-2.0603v1.8933h8.4387v1.9901h3.9287v4.9022s-37,0-37,0v-16.8183h1.7163v-9.9341h2.1452v-4.7021h4.506v-2.1626h13.7422v2.1626m-15.7584,16.3411h19.36m.9816,4.0634v-4.0634l-.9816-.0002m-1.0787,8.2213h-1.9471v1.9901s-14.8609,0-14.8609,0v-1.8975h-1.57"/><path class="c" d="m11.6103,21.7675h-4.2753m19.5772-4.1863v1.8245h2.9017v2.3618h4.2753m-22.479,0v-2.3618h2.9017v-1.8249h4.0258v-2.0727h4.3486v2.0732h2.0633m-13.3394,22.9624v-18.7761m13.3394-4.1863h1.9625m5.2034-3.0833v-5.1439h-4.5061"/><path class="c" d="m25.7828,40.5436l.0002-4.4696"/><path class="c" d="m30.1371,40.6988l.0004-2.6564h8.2513l-.0004,2.6993"/><path class="c" d="m25.8734,26.0689v4.3022"/><path class="c" d="m15.7193,26.0689v4.3022"/></svg>