<svg xmlns="http://www.w3.org/2000/svg" viewBox="0 0 48 48"><defs><style>.a{fill:none;stroke:#fff;stroke-linecap:round;stroke-linejoin:round;}</style></defs><path class="a" d="M30.8866,15.0474c.6316-5.2631-2.8631-8.9263-8.9609-8.9263-6.05,0-8.8285,4.0421-8.8285,8.9685S6.634,23.3,6.634,30.079c0,2.9474,3.9369,8.4421,7.6316,8.4421,5.4789,0,7.1211,1.69,12.82.8126"/><path class="a" d="M21.2358,26.0037a8.0518,8.0518,0,0,1,7.04-5.5668c2.779,0,7.6684,3.4684,7.6684,10.5842a8.4282,8.4282,0,0,1-8.51,8.3211c-2.512,0-5.9922-1.2687-6.7245-6.8383"/><path class="a" d="M17.5814,22.858a13.571,13.571,0,0,0,5.8123,4.2083c1.83.7811,3.2414,1.8806,3.03,3.0127-.4211,2.2527-3.8947,2.4421-7.0947,2.4421-4.6527,0-6.6316-6.7158-6.6316-6.7158"/><path class="a" d="M33.0537,22.954c-1.1671-1.5171-2.5565-2.7171-2.6513-4.296"/><path class="a" d="M23.9919,16.5738s1.2947-1.9264,3.1579-1.9264,7.6737,1.2632,7.6737,2.4948-6.379,1.8-7.9579,1.8C25.413,18.9422,23.9919,16.5738,23.9919,16.5738Z"/><path class="a" d="M25.7919,16.9211c2.0526.9158,8.7152.6781,8.7152.6781"/><path class="a" d="M35.4765,27.4081c.5-1.0922,1.2575-2.4817,2.3786-2.0554s1.8,2.3368,1.8,2.3368S41.25,27.2,41.913,28.4s-.079,1.6263-.079,1.6263,1.0375-.17,1.4684.2684c.2636.2682.3548.67-.3158,1.7526-2.0526,3.3158-5.5263,4.0895-7.9894,6.7106-1.63,1.7339-4.4684,5.0684-6.8527.5842"/><path class="a" d="M6.634,30.079c-1.2631.3158-2.8421,1.2-1.79,3.0105s4.3369,8.4961,6.9475,8.4961c1.5368,0,2.3368-.1171,2.3368-1.1066a3.082,3.082,0,0,0-.9895-2.119"/><path class="a" d="M6.7176,36.4077c-.5244.7857-1.135,1.6626-1.5074,2.1931a.4959.4959,0,0,0,.2413.7562,7.688,7.688,0,0,0,3.4449.2291"/><path class="a" d="M13.6918,41.33c1.1527.8548,4.037.6864,4.037-.8926a1.6965,1.6965,0,0,0-1.2472-1.8175"/><path class="a" d="M19.8972,39.1317c.4842,1.0105.5684,2.5319-.8421,2.708a3.0941,3.0941,0,0,1-2.08-.2994"/><path class="a" d="M19.5709,12.8159c0,1.7894.6254,3.1789,2.7473,3.1789a2.8705,2.8705,0,0,0,3.0737-2.9263A2.41,2.41,0,0,0,22.76,10.3948C20.613,10.3948,19.5709,11.5106,19.5709,12.8159Z"/><path class="a" d="M30.92,13.0042c-.0326-.4853-.5518-2.2094-1.97-2.2094-.9684,0-1.3895.6948-1.3895,2s.5913,1.9114,1.11,1.9951"/><line class="a" x1="29.24" y1="13.451" x2="29.24" y2="12.5117"/><line class="a" x1="22.8248" y1="13.5212" x2="22.8248" y2="12.5818"/></svg>