<?xml version="1.0" encoding="UTF-8"?><svg id="a" xmlns="http://www.w3.org/2000/svg" viewBox="0 0 48 48"><defs><style>.b{fill:none;stroke:#fff;stroke-linecap:round;stroke-linejoin:round;}</style></defs><path class="b" d="m21.3193,20.6476l-1.6003-1.9107.0004-.0003c-1.5752-2.0374-4.0433-3.3494-6.8179-3.3494-4.7567,0-8.6128,3.8561-8.6128,8.6128s3.8561,8.6128,8.6128,8.6128c2.7746,0,5.2427-1.312,6.8179-3.3494l-.0004-.0003,8.8163-10.5262-.0004-.0003c1.5752-2.0374,4.0433-3.3494,6.8179-3.3494,3.5675,0,6.6284,2.169,7.9359,5.2603"/><path class="b" d="m26.935,27.3525l1.6002,1.9106-.0004.0003c1.5752,2.0374,4.0433,3.3494,6.8179,3.3494,3.5509,0,6.5998-2.1488,7.9175-5.217"/></svg>