<svg xmlns="http://www.w3.org/2000/svg" viewBox="0 0 48 48"><defs><style>.a{fill:none;stroke:#fff;stroke-linecap:round;stroke-linejoin:round;}</style></defs><path class="a" d="M10.7941,10.9477l26.5858-.17c4.1489.6639,3.9581,12.8822-.4439,12.9942l-26.6148.0249c-4.24-.3734-4.1281-12.2806.4729-12.8531Z"/><path class="a" d="M15.6358,14.8891h.8174a1.6057,1.6057,0,0,1,.51.0415v1.755a1.6057,1.6057,0,0,1-.51.0415h-.8174a1.6057,1.6057,0,0,1-.51-.0415v-1.755A1.6057,1.6057,0,0,1,15.6358,14.8891Z"/><path class="a" d="M30.9658,14.8435h.8174a1.6057,1.6057,0,0,1,.51.0415V16.64a1.6075,1.6075,0,0,1-.51.0414h-.8174a1.6075,1.6075,0,0,1-.51-.0414V14.885A1.6057,1.6057,0,0,1,30.9658,14.8435Z"/><path class="a" d="M14.1837,12.4081l8.2438,2.3234c2.2694,12.8116-18.5412,6.53-8.2438-2.3275Zm18.9893-.0332L24.8214,14.74C22.8133,27.4892,43.67,21.3365,33.173,12.3749ZM26.9746,31.2771l12.3221-1.2862a1.9113,1.9113,0,0,1,.2655,3.3689l-12.55.8049"/><path class="a" d="M37.5086,30.132a2.1781,2.1781,0,0,0,.195,3.1863m-21.7607-4.933.0165,7.5509M19.66,28.4144v8.1068m4.0244-8.0778-.0539,8.2272m3.6053-8.2562v2.7092m0,5.4931V34.3389m3.6593-6.1071v2.5018m-.1079,3.3523-.029,2.1574"/><path class="a" d="M14.0018,30.179l1.9452.9612h3.6136a16.109,16.109,0,0,1,4.0535-1.2862c1.0538.9543,2.9788,1,3.36,1.4272-1.0911,1.0538-.697,1.9832.0415,2.8835-.2614.3485-2.2818-.56-3.3813-.1369-1.5848,1.1368-2.8088.4854-4.0327-.1784L15.91,32.7624l-1.9039.5"/><path class="a" d="M33.4728,33.7505c-.2819,1.3486-.802,2.4251-1.4591,2.5106a43.9639,43.9639,0,0,1-16.6065-.2822c-2.0062-.3716-1.9029-8.0452-.3028-7.7905l-.0035-.0035c1.4246.3441,15.2955.2512,16.94-.1651.97-.04,1.4695,1.075,1.6166,2.4972"/><circle class="a" cx="24" cy="24" r="21.5"/></svg>