<svg xmlns="http://www.w3.org/2000/svg" viewBox="0 0 48 48"><defs><style>.a{fill:none;stroke:#fff;stroke-linecap:round;stroke-linejoin:round;}</style></defs><line class="a" x1="12.9374" y1="13.4966" x2="19.5385" y2="13.4966"/><line class="a" x1="16.2379" y1="23.4604" x2="16.2379" y2="13.4966"/><line class="a" x1="30.5236" y1="16.8594" x2="25.5417" y2="23.4604"/><line class="a" x1="30.5236" y1="23.4604" x2="25.5417" y2="16.8594"/><path class="a" d="M23.38,22.2034a2.49,2.49,0,0,1-2.1644,1.257h0A2.4909,2.4909,0,0,1,18.7243,20.97V19.35a2.4909,2.4909,0,0,1,2.4909-2.4909h0a2.4909,2.4909,0,0,1,2.491,2.4909v.81H18.7243"/><path class="a" d="M34.0792,14.8043v7.4106A1.2455,1.2455,0,0,0,35.3247,23.46h.3736"/><line class="a" x1="32.7714" y1="16.8594" x2="35.3869" y2="16.8594"/><polyline class="a" points="9.918 23.46 13.218 20.16 9.918 16.859"/><path class="a" d="M13.2184,20.16H9.4819A4.9819,4.9819,0,0,0,4.5,25.1418v4.38a4.9819,4.9819,0,0,0,4.9819,4.9819H38.5181A4.9819,4.9819,0,0,0,43.5,29.5215v-4.38A4.9819,4.9819,0,0,0,38.5181,20.16H37.2726"/></svg>