<?xml version="1.0" encoding="UTF-8"?><svg id="a" xmlns="http://www.w3.org/2000/svg" viewBox="0 0 48 48"><defs><style>.b{fill:none;stroke:#fff;stroke-linecap:round;stroke-linejoin:round;}</style></defs><path class="b" d="M21.723,21.4v-8h2.6c1.5,0,2.7,1.2,2.7,2.7s-1.2,2.7-2.7,2.7h-2.6"/><line class="b" x1="24.421" y1="18.798" x2="26.923" y2="21.3"/><line class="b" x1="14.49" y1="13.4" x2="19.69" y2="13.4"/><line class="b" x1="17.09" y1="21.4" x2="17.09" y2="13.4"/><line class="b" x1="28.31" y1="13.4" x2="33.51" y2="13.4"/><line class="b" x1="30.91" y1="21.4" x2="30.91" y2="13.4"/><path class="b" d="M34.4,34.6v-8h2.6c1.5,0,2.7,1.2,2.7,2.7s-1.2,2.7-2.7,2.7h-2.6"/><line class="b" x1="37.0981" y1="31.9981" x2="39.6" y2="34.5"/><line class="b" x1="8.3" y1="26.6" x2="8.3" y2="34.6"/><line class="b" x1="13.6" y1="26.6" x2="13.6" y2="34.6"/><line class="b" x1="8.3" y1="30.5" x2="13.6" y2="30.5"/><line class="b" x1="28.9" y1="30.6" x2="31.5" y2="30.6"/><polyline class="b" points="32.9 34.6 28.9 34.6 28.9 26.6 32.9 26.6"/><path class="b" d="M25.4,30.6c1.1,0,2,.9,2,2s-.9,2-2,2h-3.3v-8h3.3c1.1,0,2,.9,2,2s-.9,2-2,2Z"/><line class="b" x1="25.4" y1="30.6" x2="22.1" y2="30.6"/><line class="b" x1="19.65" y1="31.9" x2="16.05" y2="31.9"/><polyline class="b" points="15.15 34.6 17.85 26.6 20.55 34.6"/><path class="b" d="M38.5,5.5H9.5c-2.2091,0-4,1.7909-4,4v29c0,2.2091,1.7909,4,4,4h29c2.2091,0,4-1.7909,4-4V9.5c0-2.2091-1.7909-4-4-4Z"/></svg>