<?xml version="1.0" encoding="UTF-8"?><svg id="b" xmlns="http://www.w3.org/2000/svg" viewBox="0 0 48 48"><defs><style>.c{fill:none;stroke:#fff;stroke-linecap:round;stroke-linejoin:round;}</style></defs><path class="c" d="M17.9132,30.8333h-4.9237c-.6853,0-1.1615-.6819-.9256-1.3253L21.1585,4.7116c.2669-.7278.9597-1.2116,1.7349-1.2116h4.9237c.6853,0,1.1615.6819.9256,1.3253l-9.0946,24.7964c-.2669.7278-.9597,1.2116-1.7349,1.2116Z"/><path class="c" d="M25.1066,44.5h-4.9237c-.6853,0-1.1615-.6819-.9256-1.3253l9.0946-24.7964c.2669-.7278.9597-1.2116,1.7349-1.2116h4.9237c.6853,0,1.1615.6819.9256,1.3253l-9.0946,24.7964c-.2669.7278-.9597,1.2116-1.7349,1.2116Z"/></svg>