<?xml version="1.0" encoding="UTF-8"?><svg id="b" xmlns="http://www.w3.org/2000/svg" viewBox="0 0 48 48"><defs><style>.c{fill:none;stroke:#fff;stroke-linecap:round;stroke-linejoin:round;}</style></defs><path class="c" d="m26.31,37.75v-8h2.6c1.4912,0,2.7,1.2088,2.7,2.7s-1.2088,2.7-2.7,2.7h-2.6"/><line class="c" x1="23.82" y1="29.75" x2="23.82" y2="37.75"/><polyline class="c" points="16.39 29.75 21.59 29.75 16.39 37.75 21.59 37.75"/><path class="c" d="m39.5,15.5h-9c-1.1046,0-2-.8954-2-2V4.5H10.5c-1.1046,0-2,.8954-2,2v35c0,1.1046.8954,2,2,2h27c1.1046,0,2-.8954,2-2V15.5Z"/><line class="c" x1="28.5" y1="4.5" x2="39.5" y2="15.5"/></svg>