<?xml version="1.0" encoding="UTF-8" standalone="no"?>
<!-- Created with Inkscape (http://www.inkscape.org/) -->

<svg
   width="48"
   height="48"
   viewBox="0 0 48 48"
   version="1.1"
   id="svg1"
   xml:space="preserve"
   inkscape:version="1.3.2 (091e20ef0f, 2023-11-25)"
   sodipodi:docname="Flex Carsharing.svg"
   xmlns:inkscape="http://www.inkscape.org/namespaces/inkscape"
   xmlns:sodipodi="http://sodipodi.sourceforge.net/DTD/sodipodi-0.dtd"
   xmlns="http://www.w3.org/2000/svg"
   xmlns:svg="http://www.w3.org/2000/svg"><sodipodi:namedview
     id="namedview1"
     pagecolor="#505050"
     bordercolor="#ffffff"
     borderopacity="1"
     inkscape:showpageshadow="0"
     inkscape:pageopacity="0"
     inkscape:pagecheckerboard="1"
     inkscape:deskcolor="#d1d1d1"
     inkscape:document-units="px"
     inkscape:zoom="1.4142136"
     inkscape:cx="-241.12341"
     inkscape:cy="-28.637825"
     inkscape:window-width="2560"
     inkscape:window-height="1011"
     inkscape:window-x="0"
     inkscape:window-y="0"
     inkscape:window-maximized="1"
     inkscape:current-layer="layer1" /><defs
     id="defs1" /><g
     inkscape:label="Layer 1"
     inkscape:groupmode="layer"
     id="layer1"><path
       style="fill:none;fill-opacity:1;stroke:#ffffff;stroke-width:1;stroke-linecap:square;stroke-linejoin:miter;stroke-dasharray:none;stroke-opacity:1;paint-order:normal"
       d="m 8.8556374,21.37537 6.8604186,-0.009 c 0.354992,-4.66e-4 0.535149,-0.02398 0.670662,0.112914 0.135513,0.13689 0.08552,0.250759 0.04112,0.545067 -0.09008,0.597142 -0.358464,1.503715 -0.577418,1.996162 -0.149969,0.337294 -0.558192,0.610864 -0.67666,0.613794 -0.09286,0.0023 -3.316457,0.04975 -3.67833,0.05478 -0.10402,0.0014 -0.449303,0.0794 -0.552511,0.390993 L 8.91729,31.1956 c -0.080427,0.242815 -0.1963789,0.397777 -0.3547189,0.492497 -0.2285978,0.136748 -0.4539519,0.12945 -0.8925533,0.125581 L 6.1200286,31.800007 C 5.7524593,31.796764 5.6850762,31.668348 5.632925,31.515576 5.5291969,31.211715 8.8556374,21.37537 8.8556374,21.37537 Z"
       id="path6"
       sodipodi:nodetypes="cszssssssssssc" /><path
       style="fill:none;fill-opacity:1;stroke:#ffffff;stroke-width:1;stroke-linecap:square;stroke-linejoin:miter;stroke-dasharray:none;stroke-opacity:1;paint-order:normal"
       d="m 24.033759,30.52135 c 1.562612,2.030786 8.119055,3.034892 13.408071,-3.584226 2.12747,-2.662495 2.678223,-3.703117 4.438946,-6.811481 L 37.787891,20.0311 c -1.191991,2.412492 -6.659368,11.348 -10.578456,8.785396"
       id="path8"
       sodipodi:nodetypes="csccc" /><path
       style="fill:none;fill-opacity:1;stroke:#ffffff;stroke-width:1;stroke-linecap:square;stroke-linejoin:miter;stroke-dasharray:none;stroke-opacity:1;paint-order:normal"
       d="m 35.672365,28.962934 1.574733,2.329676 c 0.118767,0.175704 0.464635,0.369698 0.844527,0.368032 l 2.166742,-0.0095 c 0.85065,-0.0037 1.04657,-0.325492 0.481743,-1.210276 l -2.621859,-4.107061"
       id="path9"
       sodipodi:nodetypes="cssssc" /><path
       style="fill:none;fill-opacity:1;stroke:#ffffff;stroke-width:1;stroke-linecap:square;stroke-linejoin:miter;stroke-dasharray:none;stroke-opacity:1;paint-order:normal"
       d="m 25.374395,26.143409 c 1.292071,-7.441722 8.662881,-3.422038 -4.13791,2.643973 -1.083429,0.513413 -1.985619,0.698002 -1.381237,-1.116616 l 3.08425,-9.260256 c 0.33093,-0.993596 0.459533,-1.970716 -1.657939,-1.993957 l -9.21561,-0.101147 c -1.215543,-0.01334 -1.56315,0.658199 -1.824086,1.180764 -0.163976,0.328388 -0.4602501,1.218073 -0.7866311,2.25155 l 8.5486291,-0.0047 c 0.401938,-2.21e-4 0.794282,0.209862 0.634072,0.768289 l -2.612513,9.106198 c -0.279161,0.973043 -0.29344,2.180355 2.125651,2.398648 0.864639,0.07802 2.713534,-0.07866 4.036855,-0.681739 22.619031,-10.308225 -0.509659,-18.580446 0.339471,-3.357769"
       id="path10"
       sodipodi:nodetypes="csssssscsssssc" /><path
       style="fill:none;fill-opacity:1;stroke:#ffffff;stroke-width:1;stroke-linecap:square;stroke-linejoin:miter;stroke-dasharray:none;stroke-opacity:1;paint-order:normal"
       d="m 32.144452,23.522369 0.827305,1.275728 c 0.520408,-0.563999 1.423596,-1.847579 2.012551,-2.719143 l -1.139282,-2.034118 -3.063087,-0.01263"
       id="path11"
       sodipodi:nodetypes="ccccc" /></g></svg>
