<?xml version="1.0" encoding="UTF-8" standalone="no"?>
<!-- Created with Inkscape (http://www.inkscape.org/) -->

<svg
   width="48"
   height="48"
   viewBox="0 0 48 48"
   version="1.1"
   id="svg1"
   xml:space="preserve"
   inkscape:version="1.3.2 (091e20ef0f, 2023-11-25)"
   sodipodi:docname="L'essentiel.svg"
   xmlns:inkscape="http://www.inkscape.org/namespaces/inkscape"
   xmlns:sodipodi="http://sodipodi.sourceforge.net/DTD/sodipodi-0.dtd"
   xmlns="http://www.w3.org/2000/svg"
   xmlns:svg="http://www.w3.org/2000/svg"><sodipodi:namedview
     id="namedview1"
     pagecolor="#505050"
     bordercolor="#ffffff"
     borderopacity="1"
     inkscape:showpageshadow="0"
     inkscape:pageopacity="0"
     inkscape:pagecheckerboard="1"
     inkscape:deskcolor="#d1d1d1"
     inkscape:document-units="px"
     inkscape:zoom="11.313708"
     inkscape:cx="15.467961"
     inkscape:cy="27.356194"
     inkscape:window-width="2560"
     inkscape:window-height="1011"
     inkscape:window-x="0"
     inkscape:window-y="0"
     inkscape:window-maximized="1"
     inkscape:current-layer="layer1" /><defs
     id="defs1" /><g
     inkscape:label="Layer 1"
     inkscape:groupmode="layer"
     id="layer1"><path
       style="fill:none;stroke:#ffffff;stroke-width:1;stroke-linejoin:round;stroke-dasharray:none;stroke-opacity:1"
       d="m 13.241111,8.80989 v 30.519995 c 0,0.527464 0.390686,0.933598 1.008082,0.888284 l 16.188338,-1.188156 c 0.501621,-0.03682 0.895154,-0.54503 0.895154,-1.023306 v -3.328661 c 0,-0.947822 -0.406819,-1.014574 -0.988619,-0.988618 l -10.246517,0.457128 c -0.540742,0.02412 -1.055291,-0.426436 -1.055291,-1.055293 V 9.3947457 c 0,-0.9842764 -0.19472,-1.0819756 -1.238051,-1.2380518 L 14.38401,7.6450533 C 13.614182,7.5298921 13.241111,8.0587469 13.241111,8.80989 Z"
       id="path1"
       sodipodi:nodetypes="sssssssssssss" /><path
       style="fill:none;stroke:#ffffff;stroke-width:1;stroke-linejoin:round;stroke-dasharray:none;stroke-opacity:1"
       d="m 31.603679,9.7025086 3.324035,0.4189234 c 0.802612,0.101158 0.690148,1.199505 0.449708,1.678324 l -3.100882,6.175162 c -0.224254,0.446583 -0.392432,0.766373 -1.014752,0.747725 l -1.671939,-0.0501 c -0.467325,-0.014 -0.916659,-0.460446 -0.779321,-1.007436 l 1.75172,-6.976771 c 0.170997,-0.681046 0.547833,-1.0480328 1.041431,-0.9858254 z"
       id="path2"
       sodipodi:nodetypes="sssssssss" /></g></svg>
