<?xml version="1.0" encoding="UTF-8" standalone="no"?>
<!-- Created with Inkscape (http://www.inkscape.org/) -->

<svg
   width="48"
   height="48"
   viewBox="0 0 48 48"
   version="1.1"
   id="svg1"
   xml:space="preserve"
   inkscape:version="1.3.2 (091e20ef0f, 2023-11-25)"
   sodipodi:docname="LOD.lu.svg"
   xmlns:inkscape="http://www.inkscape.org/namespaces/inkscape"
   xmlns:sodipodi="http://sodipodi.sourceforge.net/DTD/sodipodi-0.dtd"
   xmlns="http://www.w3.org/2000/svg"
   xmlns:svg="http://www.w3.org/2000/svg"><sodipodi:namedview
     id="namedview1"
     pagecolor="#505050"
     bordercolor="#ffffff"
     borderopacity="1"
     inkscape:showpageshadow="0"
     inkscape:pageopacity="0"
     inkscape:pagecheckerboard="1"
     inkscape:deskcolor="#d1d1d1"
     inkscape:document-units="px"
     inkscape:zoom="11.313708"
     inkscape:cx="12.374369"
     inkscape:cy="27.356194"
     inkscape:window-width="2560"
     inkscape:window-height="1011"
     inkscape:window-x="0"
     inkscape:window-y="0"
     inkscape:window-maximized="1"
     inkscape:current-layer="layer1" /><defs
     id="defs1" /><g
     inkscape:label="Layer 1"
     inkscape:groupmode="layer"
     id="layer1"><path
       style="fill:none;stroke:#ffffff;stroke-width:1;stroke-linecap:round;stroke-linejoin:round;stroke-dasharray:none;stroke-opacity:1"
       d="m 7.0827723,15.182427 v 13.635219 c 0,2.713208 1.943485,3.713106 4.1847217,3.713106 h 10.87884"
       id="path1"
       sodipodi:nodetypes="cssc" /><path
       style="fill:none;stroke:#ffffff;stroke-width:1;stroke-linecap:round;stroke-linejoin:round;stroke-dasharray:none;stroke-opacity:1"
       d="m 16.405466,23.593037 v 5.861873 c 0,1.929934 2.447001,3.075651 4.790242,3.075651 h 2.584536 c 2.542143,0 4.887461,-1.886436 4.887461,-3.342297 v -5.756637 c 0,-1.963481 -2.146651,-3.859329 -4.640294,-3.859329 h -3.169576 c -2.507614,0 -4.452369,1.91711 -4.452369,4.020739 z"
       id="path2"
       sodipodi:nodetypes="sssssssss" /><path
       style="fill:none;stroke:#ffffff;stroke-width:1;stroke-linecap:round;stroke-linejoin:round;stroke-dasharray:none;stroke-opacity:1"
       d="m 37.7796,19.490796 h -4.322415 c -3.002351,0 -4.788125,1.894774 -4.788125,3.492978 v 6.267625 c 0,0.77367 0.647737,3.44617 6.125796,3.44617 5.478059,0 6.121764,-3.18621 6.121764,-3.686714 V 15.058883"
       id="path3"
       sodipodi:nodetypes="cssszsc" /></g></svg>
