<?xml version="1.0" encoding="UTF-8"?>
<!-- Created with Inkscape (http://www.inkscape.org/) -->
<svg width="48" height="48" version="1.1" viewBox="0 0 48 48" xml:space="preserve" xmlns="http://www.w3.org/2000/svg"><defs><style>.a{fill:none;stroke:#000;stroke-linecap:round;stroke-linejoin:round;}</style></defs><path d="m9.3438 35.636s7.625-3.75 16.438-1.25m-8.25-6.875s6.1875 6.8125-0.5625 14.062m-5.4375-11.312s5.125-3.8125 10.562-3.125m-17.594-11.386s7.625-3.75 16.438-1.25m-8.25-6.875s6.1875 6.8125-0.5625 14.062m-5.4375-11.312s5.125-3.8125 10.562-3.125m11.469 29.531s7.9688 0.90625 14.25-1.7812m-15.062-3.75s5.2812-2.625 14.812-1.7188m-8.4375-3.5s0.3125 8.5 4.4375 15.688m-14.969-24.781s7.9688 0.90625 14.25-1.7812m-15.062-3.75s5.2812-2.625 14.812-1.7188m-8.4375-3.5s0.3125 8.5 4.4375 15.688" fill="none" stroke="#fff" stroke-linecap="round" stroke-miterlimit="1"/></svg>
