<?xml version="1.0" encoding="utf-8"?>
<!-- Generator: Adobe Illustrator 24.1.1, SVG Export Plug-In . SVG Version: 6.00 Build 0)  -->
<svg version="1.1" xmlns="http://www.w3.org/2000/svg" xmlns:xlink="http://www.w3.org/1999/xlink" x="0px" y="0px"
	 viewBox="0 0 48 48" style="enable-background:new 0 0 48 48;" xml:space="preserve">
<g id="Layer_1" style="display:none;">
	<rect x="-2188.73" y="-2884.793" style="display:inline;fill:#282828;" width="3706.467" height="4077.28"/>
	
		<rect x="-2255.708" y="-2912.538" style="display:inline;fill:#282828;stroke:#FFFFFF;stroke-width:0;stroke-miterlimit:10;" width="3706.467" height="4077.28"/>
	<rect x="-2246.73" y="-2884.793" style="display:inline;fill:#282828;" width="3706.467" height="4077.28"/>
	
		<rect x="-2285.943" y="-2888.091" style="display:inline;fill:#282828;stroke:#FFFFFF;stroke-width:0;stroke-miterlimit:10;" width="3706.467" height="4077.28"/>
</g>
<g id="Layer_2">
	<g>
		<path style="fill:none;stroke:#FFFFFF;stroke-miterlimit:10;" d="M35.343,40.4c-0.877,0.888-2.072,1.387-3.32,1.387H8.141
			c-1.065,0-1.928-0.863-1.928-1.928V8.141c0-1.065,0.863-1.928,1.928-1.928h31.718c1.065,0,1.928,0.863,1.928,1.928v24.44
			c0,0.944-0.384,1.848-1.063,2.504L35.343,40.4z"/>
		<g>
			<circle style="fill:none;stroke:#FFFFFF;stroke-miterlimit:10;" cx="13.373" cy="11.091" r="2.006"/>
			<polyline style="fill:none;stroke:#FFFFFF;stroke-linecap:round;stroke-miterlimit:10;" points="20.83,9.116 22.805,11.091 
				20.83,13.066 			"/>
			<polyline style="fill:none;stroke:#FFFFFF;stroke-linecap:round;stroke-miterlimit:10;" points="27.737,9.116 29.712,11.091 
				27.737,13.066 			"/>
			<polyline style="fill:none;stroke:#FFFFFF;stroke-linecap:round;stroke-miterlimit:10;" points="34.643,9.116 36.619,11.091 
				34.643,13.066 			"/>
		</g>
		<g>
			<path style="fill:none;stroke:#FFFFFF;stroke-linecap:round;stroke-miterlimit:10;" d="M29.322,23.688 M29.199,31.421
				c-0.358,0.704-0.815,1.268-1.372,1.69c-0.887,0.673-2.012,1.009-3.375,1.009c-1.687,0-3.073-0.576-4.159-1.728
				c-1.087-1.153-1.63-2.729-1.63-4.728c0-2.114,0.546-3.756,1.638-4.926c1.091-1.17,2.527-1.754,4.306-1.754
				c1.554,0,2.816,0.459,3.786,1.378c0.368,0.346,0.677,0.787,0.928,1.325 M29.199,31.421"/>
		</g>
	</g>
</g>
</svg>
