<?xml version="1.0" encoding="UTF-8" standalone="no"?>
<svg
   viewBox="0 0 48 48"
   version="1.1"
   id="svg8"
   sodipodi:docname="pdf_doc_scan.svg"
   xml:space="preserve"
   inkscape:version="1.2.2 (b0a8486541, 2022-12-01)"
   xmlns:inkscape="http://www.inkscape.org/namespaces/inkscape"
   xmlns:sodipodi="http://sodipodi.sourceforge.net/DTD/sodipodi-0.dtd"
   xmlns="http://www.w3.org/2000/svg"
   xmlns:svg="http://www.w3.org/2000/svg"><sodipodi:namedview
     id="namedview10"
     pagecolor="#ffffff"
     bordercolor="#000000"
     borderopacity="0.25"
     inkscape:showpageshadow="2"
     inkscape:pageopacity="0"
     inkscape:pagecheckerboard="0"
     inkscape:deskcolor="#d1d1d1"
     showgrid="false"
     inkscape:zoom="11.313709"
     inkscape:cx="-18.73833"
     inkscape:cy="18.252194"
     inkscape:window-width="3840"
     inkscape:window-height="2129"
     inkscape:window-x="0"
     inkscape:window-y="0"
     inkscape:window-maximized="1"
     inkscape:current-layer="svg8" /><defs
     id="defs4"><style
       id="style2">.a{fill:none;stroke:#fff;stroke-linecap:round;stroke-linejoin:round;}</style><style
       id="style116">.a{fill:none;stroke:#fff;stroke-linecap:round;stroke-linejoin:round;}</style></defs><g
     id="g1246"
     style="stroke:#ffffff;stroke-opacity:1"><path
       id="path387"
       style="fill:none;stroke:#ffffff;stroke-opacity:1"
       class="a"
       d="M 42.5 12.671875 L 42.5 7.5 A 2 2 0 0 0 40.5 5.5 L 40.5 5.5 L 32.000001 5.5000002 " /><path
       id="path377"
       style="fill:none;stroke:#ffffff;stroke-opacity:1"
       class="a"
       d="M 32.000001 42.5 L 40.5 42.5 A 2 2 0 0 0 42.5 40.5 L 42.500001 34.416016 " /><path
       id="path348"
       style="fill:none;stroke:#ffffff;stroke-opacity:1"
       class="a"
       d="M 5.5 34.416016 L 5.5 40.5 A 2 2 0 0 0 7.5 42.5 L 18.1875 42.5 " /><path
       id="path361"
       style="fill:none;stroke:#ffffff;stroke-opacity:1"
       class="a"
       d="M 18.1875 5.5 L 7.5 5.5 A 2 2 0 0 0 5.5 7.5 L 5.4999999 12.671875 " /><path
       id="path120"
       style="stroke-width:0.999996;fill:none;stroke:#ffffff;stroke-opacity:1"
       class="a"
       d="M 43.277947 15.347165 L 22.832426 3.5406843 A 1.7487742 1.7491081 0 0 0 20.443558 4.1809021 L 5.1417829 30.689416 A 1.7487742 1.7491081 0 0 0 5.781879 33.078742 L 26.227398 44.885222 A 1.7487742 1.7491081 0 0 0 28.616267 44.245004 L 43.918043 17.736491 A 1.7487742 1.7491081 0 0 0 43.277947 15.347165 z " /><path
       id="path425"
       style="fill:none;stroke:#ffffff;stroke-width:0.999995;stroke-linecap:round;stroke-linejoin:round;stroke-opacity:1"
       class="a"
       d="M 34.25112,19.177645 20.730879,11.259458" /><path
       id="path425-6"
       style="fill:none;stroke:#ffffff;stroke-width:0.999996;stroke-linecap:round;stroke-linejoin:round;stroke-opacity:1"
       class="a"
       d="M 36.005616,24.592249 18.773064,14.64113" /><path
       id="path425-7"
       style="fill:none;stroke:#ffffff;stroke-width:0.999996;stroke-linecap:round;stroke-linejoin:round;stroke-opacity:1"
       class="a"
       d="M 34.022402,28.044918 16.78985,18.093799" /></g></svg>
