<?xml version="1.0" encoding="utf-8"?>
<svg
	version="1.1"
	xmlns="http://www.w3.org/2000/svg"
	xmlns:xlink="http://www.w3.org/1999/xlink"
	x="0%" y="0%"
	width="100%" height="100%"
	viewBox="0 0 48.0 48.0"
	enable-background="new 0 0 48.0 48.0"
	xml:space="preserve">
	<path
		fill="#FFFFFF"
		stroke="#FFFFFF"
		fill-opacity="0.004"
		stroke-opacity="0.992"
		fill-rule="nonzero"
		stroke-width="1.3860139"
		stroke-linejoin="miter"
		stroke-linecap="square"
		d="M22.99,21.86C23.74,23.76,24.48,25.65,25.50,28.36C26.52,31.06,27.80,34.58,28.00,35.56C28.20,36.54,27.32,34.99,26.72,34.25C26.12,33.51,25.79,33.59,25.41,33.61C25.03,33.62,24.59,33.58,24.23,33.64C23.86,33.71,23.56,33.89,23.39,34.25C23.22,34.61,23.18,35.15,23.15,35.39C23.12,35.64,23.09,35.59,23.52,36.13C23.96,36.68,24.86,37.81,25.61,38.65C26.37,39.48,26.97,40.01,27.83,40.73C28.70,41.46,29.81,42.39,30.66,42.82C31.50,43.26,32.08,43.22,33.07,42.88C34.06,42.55,35.47,41.93,36.39,41.17C37.31,40.42,37.75,39.53,38.21,38.36C38.67,37.18,39.15,35.72,38.99,34.20C38.82,32.69,38.01,31.12,37.33,29.40C36.64,27.67,36.08,25.80,35.50,25.08C34.92,24.36,34.34,24.81,34.00,25.08C33.66,25.35,33.58,25.45,33.50,25.74C33.42,26.02,33.34,26.49,33.14,26.53C32.94,26.58,32.62,26.19,32.26,26.02C31.90,25.85,31.50,25.90,31.26,26.19C31.02,26.48,30.93,27.01,30.74,27.12C30.54,27.22,30.24,26.90,29.98,26.70C29.73,26.50,29.52,26.43,29.24,26.40C28.97,26.37,28.64,26.39,28.55,26.83C28.46,27.28,28.61,28.15,28.30,27.48C27.99,26.81,27.20,24.59,26.74,23.15C26.27,21.72,26.12,21.08,25.85,20.61C25.59,20.14,25.20,19.85,24.78,19.69C24.37,19.52,23.93,19.50,23.65,19.61C23.37,19.72,23.25,19.96,23.17,20.36C23.08,20.76,23.04,21.31,22.99,21.86z"/>
	<path
		fill="#FFFFFF"
		stroke="#FFFFFF"
		fill-opacity="0.004"
		stroke-opacity="0.992"
		fill-rule="nonzero"
		stroke-width="1.3860139"
		stroke-linejoin="miter"
		stroke-linecap="square"
		d="M29.57,21.24C30.96,20.55,32.51,20.83,33.02,21.86C33.54,22.90,32.82,24.29,31.43,24.99C30.04,25.68,28.49,25.40,27.98,24.37C27.46,23.33,28.18,21.94,29.57,21.24z"/>
	<path
		fill="#FFFFFF"
		stroke="#FFFFFF"
		fill-opacity="0.004"
		stroke-opacity="0.992"
		fill-rule="nonzero"
		stroke-width="1.3860139"
		stroke-linejoin="miter"
		stroke-linecap="square"
		d="M29.39,16.20C30.58,15.41,32.04,15.53,32.65,16.46C33.26,17.39,32.79,18.77,31.61,19.56C30.42,20.34,28.96,20.22,28.35,19.29C27.74,18.36,28.21,16.98,29.39,16.20z"/>
	<path
		fill="#FFFFFF"
		stroke="#FFFFFF"
		fill-opacity="0.004"
		stroke-opacity="0.992"
		fill-rule="nonzero"
		stroke-width="1.3860139"
		stroke-linejoin="miter"
		stroke-linecap="square"
		d="M17.50,13.29C16.71,12.93,15.91,12.58,15.00,13.95C14.09,15.31,13.05,18.41,12.50,21.15C11.95,23.89,11.89,26.28,12.23,28.40C12.57,30.52,13.32,32.38,14.23,33.59C15.13,34.81,16.20,35.39,17.15,35.65C18.11,35.92,18.96,35.87,19.83,35.59C20.70,35.31,21.58,34.79,22.28,34.31C22.98,33.83,23.49,33.39,24.00,32.94"/>
	<path
		fill="#FFFFFF"
		stroke="#FFFFFF"
		fill-opacity="0.004"
		stroke-opacity="0.992"
		fill-rule="nonzero"
		stroke-width="1.3860139"
		stroke-linejoin="miter"
		stroke-linecap="square"
		d="M30.50,10.02C32.92,9.37,33.50,13.29,30.05,15.69L30.00,1.50L17.50,1.50L17.50,30.98L26.50,30.98"/>
	<path
		fill="#FFFFFF"
		stroke="#FFFFFF"
		fill-opacity="0.004"
		stroke-opacity="0.992"
		fill-rule="nonzero"
		stroke-width="1.3860139"
		stroke-linejoin="miter"
		stroke-linecap="square"
		d="M6.00,16.57L3.50,36.22L14.00,33.60"/>
	<path
		fill="#FFFFFF"
		stroke="#FFFFFF"
		fill-opacity="0.004"
		stroke-opacity="0.992"
		fill-rule="nonzero"
		stroke-width="1.3860139"
		stroke-linejoin="miter"
		stroke-linecap="square"
		d="M41.50,15.91L44.00,36.22L39.00,36.87"/>
	<path
		fill="#FFFFFF"
		stroke="#FFFFFF"
		fill-opacity="0.004"
		stroke-opacity="0.992"
		fill-rule="nonzero"
		stroke-width="1.3860139"
		stroke-linejoin="miter"
		stroke-linecap="square"
		d="M39.00,40.80L42.00,39.49L46.50,42.11L42.02,45.50L38.81,44.44L1.42,45.16L1.00,38.84L25.00,38.18"/>
</svg>