<?xml version="1.0" encoding="utf-8"?>
<!-- Generator: Adobe Illustrator 24.1.1, SVG Export Plug-In . SVG Version: 6.00 Build 0)  -->
<svg version="1.1" xmlns="http://www.w3.org/2000/svg" xmlns:xlink="http://www.w3.org/1999/xlink" x="0px" y="0px"
	 viewBox="0 0 48 48" style="enable-background:new 0 0 48 48;" xml:space="preserve">
<g id="Layer_1" style="display:none;">
	<rect x="-2130.73" y="-2884.793" style="display:inline;fill:#282828;" width="3706.467" height="4077.28"/>
	
		<rect x="-2197.708" y="-2912.538" style="display:inline;fill:#282828;stroke:#FFFFFF;stroke-width:0;stroke-miterlimit:10;" width="3706.467" height="4077.28"/>
	<rect x="-2188.73" y="-2884.793" style="display:inline;fill:#282828;" width="3706.467" height="4077.28"/>
	
		<rect x="-2227.943" y="-2888.091" style="display:inline;fill:#282828;stroke:#FFFFFF;stroke-width:0;stroke-miterlimit:10;" width="3706.467" height="4077.28"/>
</g>
<g id="Layer_2">
	<g>
		<path style="fill:none;stroke:#FFFFFF;stroke-miterlimit:10;" d="M29.774,3.44C21.726,3.42,15.177,9.865,15.145,17.839
			c-0.034,8.344,6.361,14.906,14.545,14.926c8.149,0.02,14.754-6.513,14.776-14.616C44.489,10.054,37.903,3.461,29.774,3.44z"/>
		<path style="fill:none;stroke:#FFFFFF;stroke-miterlimit:10;" d="M3.533,41.136c0.093,1.399,0.863,2.514,2.303,3.136
			c1.397,0.603,2.611,0.231,3.62-0.837c0.487-0.515,0.919-1.087,1.332-1.666c1.879-2.631,3.894-5.149,6.087-7.528
			c2.646-2.87,2.056-1.97-0.149-4.453c-0.551-0.62-0.974-0.558-1.527-0.012c-3.118,3.079-6.541,5.786-10.139,8.28
			C4.063,38.748,3.529,39.724,3.533,41.136z"/>
		<g>
			
				<line style="fill:none;stroke:#FFFFFF;stroke-linecap:round;stroke-miterlimit:10;" x1="23.475" y1="12.386" x2="26.24" y2="23.819"/>
			
				<line style="fill:none;stroke:#FFFFFF;stroke-linecap:round;stroke-miterlimit:10;" x1="26.24" y1="23.819" x2="29.796" y2="12.386"/>
			
				<line style="fill:none;stroke:#FFFFFF;stroke-linecap:round;stroke-miterlimit:10;" x1="29.796" y1="12.386" x2="33.357" y2="23.819"/>
			
				<line style="fill:none;stroke:#FFFFFF;stroke-linecap:round;stroke-miterlimit:10;" x1="33.357" y1="23.819" x2="36.136" y2="12.386"/>
		</g>
	</g>
</g>
</svg>
