<?xml version="1.0" encoding="UTF-8"?><svg id="a" xmlns="http://www.w3.org/2000/svg" viewBox="0 0 512 512"><path d="m96.8379,221.2148c-1.2012,0-2.2207.5713-3.0605,1.71l-22.5179,33.5262-22.2125-33.5262c-.3594-.54-.8535-.959-1.4844-1.2598-.6289-.2998-1.2148-.4502-1.7539-.4502-1.0801,0-1.9805.376-2.7012,1.125-.7188.751-1.0801,1.6064-1.0801,2.5654v55.71c0,1.0205.3301,1.8896.9902,2.6094.6602.7207,1.5,1.0801,2.5195,1.0801s1.8594-.3594,2.5215-1.0801c.6582-.7197.9883-1.5889.9883-2.6094v-45.428l19.0801,29.3177c.3008.4814.7207.8701,1.2617,1.1699.5391.3008,1.0781.4209,1.6191.3604.5996.0605,1.1543-.0596,1.6641-.3604.5098-.2998.9453-.6885,1.3066-1.1699l18.9883-28.8867v44.997c0,1.0205.3457,1.8896,1.0352,2.6094.6895.7207,1.6055,1.0801,2.7461,1.0801,1.0801,0,1.9805-.3594,2.6992-1.0801.7207-.7197,1.0801-1.5889,1.0801-2.6094v-55.71c0-1.0195-.375-1.875-1.125-2.5654-.75-.6895-1.6055-1.0645-2.5645-1.125Z"/><path d="m147.7324,239.7549c-3.5098-2.0996-7.457-3.1504-11.8359-3.1504s-8.3398,1.0508-11.8789,3.1504c-3.541,2.1006-6.3457,4.9814-8.416,8.6396-2.0703,3.6611-3.1055,7.8301-3.1055,12.5107s1.0352,8.8506,3.1055,12.5098c2.0703,3.6602,4.875,6.54,8.416,8.6396,3.5391,2.1016,7.498,3.1504,11.8789,3.1504s8.3262-1.0488,11.8359-3.1504c3.5098-2.0996,6.2988-4.9795,8.3691-8.6396,2.0703-3.6592,3.1055-7.8301,3.1055-12.5098s-1.0352-8.8496-3.1055-12.5107c-2.0703-3.6582-4.8594-6.5391-8.3691-8.6396Zm2.0703,30.2402c-1.4121,2.6406-3.3301,4.7246-5.7617,6.2549-2.4297,1.5303-5.1445,2.2949-8.1445,2.2949-3.0586,0-5.8047-.7646-8.2344-2.2949s-4.3652-3.6143-5.8047-6.2549c-1.4414-2.6396-2.1602-5.6699-2.1602-9.0898,0-3.4795.7188-6.5254,2.1602-9.1357,1.4395-2.6094,3.375-4.6797,5.8047-6.21,2.4297-1.5293,5.1758-2.2949,8.2344-2.2949,3,0,5.7148.7656,8.1445,2.2949,2.4316,1.5303,4.3496,3.6006,5.7617,6.21,1.4082,2.6104,2.1133,5.6562,2.1133,9.1357,0,3.4199-.7051,6.4502-2.1133,9.0898Z"/><path d="m202.7656,239.125c-2.3398-1.6787-5.5508-2.5205-9.6289-2.5205-2.1602,0-4.2305.376-6.2109,1.125-1.9805.751-3.7793,1.7559-5.4004,3.0156-1.6191,1.2598-2.9688,2.6855-4.0488,4.2744-.0988.1454-.1772.29-.2695.4352v-3.9899c0-1.0801-.332-1.9648-.9902-2.6553-.6621-.6885-1.5312-1.0342-2.6113-1.0342-1.0195,0-1.875.3457-2.5645,1.0342-.6895.6904-1.0352,1.5752-1.0352,2.6553v39.1504c0,1.0205.3457,1.8896,1.0352,2.6094.6895.7207,1.5449,1.0801,2.5645,1.0801s1.875-.3594,2.5664-1.0801c.6875-.7197,1.0352-1.5889,1.0352-2.6094v-25.0205c0-2.2793.6289-4.3496,1.8887-6.21,1.2598-1.8594,2.9395-3.3438,5.041-4.4551,2.0996-1.1094,4.4102-1.665,6.9297-1.665,2.6992,0,4.8594.5557,6.4805,1.665,1.6191,1.1113,2.7734,2.5957,3.4648,4.4551.6895,1.8604,1.0352,3.9307,1.0352,6.21v25.0205c0,1.0205.3281,1.8896.9902,2.6094.6582.7207,1.5293,1.0801,2.6094,1.0801,1.0195,0,1.875-.3594,2.5645-1.0801.6895-.7197,1.0352-1.5889,1.0352-2.6094v-25.2002c0-3.54-.4941-6.7188-1.4844-9.54-.9902-2.8193-2.6562-5.0693-4.9961-6.75Z"/><path d="m225.4453,277.0146c-1.6191,0-3.0586.4658-4.3203,1.3955-1.2598.9307-1.9199,2.0557-1.9785,3.375-.0605.6611.0586,1.2012.3594,1.6201.2988.4199.6895.7803,1.1699,1.0801.2988-.2393.6758-.4199,1.125-.54s.8848-.1807,1.3047-.1807c.7207,0,1.334.2256,1.8457.6748.5078.4502.7637,1.0352.7637,1.7559,0,.8994-.2559,1.6943-.7637,2.3848-.5117.6885-1.2148,1.2734-2.1152,1.7549-.7812.3604-1.5.6299-2.1602.8096-.6602.1807-.9902.7793-.9902,1.8008,0,1.0195.2695,1.71.8105,2.0693.5391.3604,1.0801.54,1.6191.54,1.5605,0,3.0898-.5557,4.5898-1.665,1.5-1.1104,2.7461-2.5195,3.7363-4.2295s1.4844-3.4355,1.4844-5.1748c0-2.0996-.5996-3.8701-1.8008-5.3105-1.1992-1.4395-2.7598-2.1602-4.6797-2.1602Z"/><path d="m299.7852,221.3047c-1.0215,0-1.9043.3604-2.6543,1.0801-.752.7197-1.125,1.5908-1.125,2.6104v40.5c0,2.4004-.5566,4.5449-1.666,6.4346-1.1113,1.8906-2.625,3.375-4.5449,4.4551s-4.1094,1.6201-6.5703,1.6201c-2.2793,0-4.3184-.5986-6.1191-1.7998-1.8008-1.1992-3.3008-2.79-4.5-4.7705-.4199-.5986-.916-1.0801-1.4844-1.4395-.5723-.3604-1.1855-.54-1.8457-.54-.8418,0-1.6504.3301-2.4297.9902-.7812.6602-1.1699,1.5-1.1699,2.5195,0,.6006.209,1.2598.6289,1.9805,1.6797,3.1201,4.0059,5.6104,6.9766,7.4697,2.9688,1.8604,6.2832,2.79,9.9434,2.79,3.9004,0,7.3809-.8711,10.4414-2.6104,3.0586-1.7393,5.459-4.1084,7.1992-7.1094,1.7402-3,2.6094-6.3301,2.6094-9.9902v-40.5c0-1.0195-.3301-1.8906-.9883-2.6104-.6621-.7197-1.5625-1.0801-2.7012-1.0801Z"/><path d="m356.3945,237.3252c-1.0801,0-1.9668.3457-2.6562,1.0352-.6895.6904-1.0352,1.5449-1.0352,2.5645v3.5146c-.7753-1.119-1.7107-2.1745-2.834-3.1542-1.6504-1.4404-3.5859-2.5791-5.8047-3.4199-2.2207-.8398-4.6211-1.2607-7.2012-1.2607-4.0195,0-7.6348,1.0352-10.8438,3.1055-3.2109,2.0703-5.7598,4.9209-7.6504,8.5498-1.8906,3.6309-2.8359,7.8164-2.8359,12.5547,0,4.6807.9297,8.8516,2.791,12.5107,1.8594,3.6602,4.4238,6.5557,7.6953,8.6846,3.2695,2.1309,6.9434,3.1953,11.0254,3.1953,2.459,0,4.7383-.4365,6.8398-1.3047,2.0996-.8691,3.9277-1.9805,5.4902-3.3301,1.3677-1.1851,2.467-2.4428,3.3281-3.7661v3.811c0,1.0205.3457,1.8896,1.0352,2.6094.6895.7207,1.5762,1.0801,2.6562,1.0801,1.0195,0,1.875-.3594,2.5645-1.0801.6895-.7197,1.0352-1.5889,1.0352-2.6094v-39.6904c0-1.0195-.3457-1.874-1.0352-2.5645-.6895-.6895-1.5449-1.0352-2.5645-1.0352Zm-10.6211,38.8799c-2.2812,1.5605-4.9199,2.3398-7.9199,2.3398s-5.6562-.7793-7.9648-2.3398c-2.3105-1.5596-4.1094-3.6748-5.4004-6.3447s-1.9336-5.6846-1.9336-9.0459c0-3.3594.6582-6.3584,1.9785-9,1.3203-2.6387,3.1348-4.7246,5.4453-6.2549,2.3105-1.5293,4.9355-2.2949,7.875-2.2949,3,0,5.6387.7803,7.9199,2.3398,2.2793,1.5615,4.0801,3.6611,5.4004,6.3008,1.3184,2.6406,1.9805,5.6104,1.9805,8.9092,0,3.3613-.6621,6.376-1.9805,9.0459-1.3203,2.6699-3.1211,4.7852-5.4004,6.3447Z"/><path d="m406.0742,239.125c-2.3398-1.6787-5.5508-2.5205-9.6309-2.5205-2.1602,0-4.2305.376-6.209,1.125-1.9805.751-3.7812,1.7559-5.4004,3.0156-1.6211,1.2598-2.9707,2.6855-4.0508,4.2744-.0988.1455-.1772.2902-.2695.4354v-3.9901c0-1.0801-.3301-1.9648-.9902-2.6553-.6602-.6885-1.5293-1.0342-2.6094-1.0342-1.0215,0-1.877.3457-2.5645,1.0342-.6914.6904-1.0352,1.5752-1.0352,2.6553v39.1504c0,1.0205.3438,1.8896,1.0352,2.6094.6875.7207,1.543,1.0801,2.5645,1.0801,1.0195,0,1.875-.3594,2.5645-1.0801.6895-.7197,1.0352-1.5889,1.0352-2.6094v-25.0205c0-2.2793.6309-4.3496,1.8906-6.21,1.2598-1.8594,2.9395-3.3438,5.0391-4.4551,2.0996-1.1094,4.4102-1.665,6.9297-1.665,2.7012,0,4.8613.5557,6.4805,1.665,1.6211,1.1113,2.7754,2.5957,3.4648,4.4551.6895,1.8604,1.0352,3.9307,1.0352,6.21v25.0205c0,1.0205.3301,1.8896.9902,2.6094.6602.7207,1.5293,1.0801,2.6094,1.0801,1.0195,0,1.875-.3594,2.5664-1.0801.6875-.7197,1.0352-1.5889,1.0352-2.6094v-25.2002c0-3.54-.4961-6.7188-1.4863-9.54-.9902-2.8193-2.6543-5.0693-4.9941-6.75Z"/><path d="m467.6777,222.3848c-.6289-.7197-1.4844-1.0801-2.5645-1.0801-.4805,0-.9766.0449-1.4844.1348-.5117.0908-.9766.2861-1.3965.5859l-14.3086,9.4492c-1.3203.8408-1.9805,1.8906-1.9805,3.1504,0,.96.375,1.8311,1.125,2.6104.75.7803,1.6348,1.1699,2.6543,1.1699.7793,0,1.4707-.2393,2.0703-.7207l9-6.1872v49.1179c0,1.0205.3613,1.8896,1.0801,2.6094.7207.7207,1.6504,1.0801,2.791,1.0801,1.1387,0,2.084-.3594,2.834-1.0801.75-.7197,1.125-1.5889,1.125-2.6094v-55.6201c0-1.0195-.3145-1.8906-.9453-2.6104Z"/></svg>