<?xml version="1.0" encoding="UTF-8"?><svg id="a" xmlns="http://www.w3.org/2000/svg" viewBox="0 0 512 512"><path d="m100.168,221.3047c-.4805,0-.9766.0449-1.4844.1348-.5117.0908-.9766.2861-1.3965.5859l-14.3086,9.4492c-1.3203.8408-1.9805,1.8906-1.9805,3.1504,0,.96.375,1.8311,1.125,2.6104.75.7803,1.6348,1.1699,2.6543,1.1699.7793,0,1.4707-.2393,2.0703-.7207l9-6.1872v49.1179c0,1.0205.3613,1.8896,1.0801,2.6094.7207.7207,1.6504,1.0801,2.791,1.0801,1.1387,0,2.084-.3594,2.834-1.0801.75-.7197,1.125-1.5889,1.125-2.6094v-55.6201c0-1.0195-.3145-1.8906-.9453-2.6104-.6289-.7197-1.4844-1.0801-2.5645-1.0801Z"/><path d="m154.9766,277.5547h-24.6523l14.9336-16.4697c3.7188-4.0195,6.5391-7.9346,8.459-11.7451,1.9199-3.8096,2.8809-7.3037,2.8809-10.4854,0-3.7793-.7812-7.0332-2.3398-9.7646-1.5625-2.7295-3.7676-4.8604-6.6152-6.3896-2.8516-1.5303-6.1973-2.2949-10.0352-2.2949-2.1602,0-4.3652.4199-6.6152,1.2598-2.25.8408-4.3203,1.9658-6.2109,3.375-1.8887,1.4102-3.4648,2.9854-4.7246,4.7246-.5996.7207-1.0957,1.3662-1.4844,1.9355-.3906.5703-.5859,1.1855-.5859,1.8447,0,.9004.375,1.665,1.125,2.2949s1.5762.9453,2.4766.9453c.5391,0,1.0645-.1201,1.5742-.3604.5098-.2393,1.0039-.7197,1.4844-1.4395.8398-1.499,1.9199-2.835,3.2402-4.0059,1.3184-1.1699,2.791-2.0986,4.4102-2.79,1.6191-.6885,3.2402-1.0342,4.8594-1.0342,3.6016,0,6.4941,1.1104,8.6855,3.3301,2.1895,2.2197,3.2852,5.1299,3.2852,8.7295,0,2.2207-.7656,4.7559-2.2949,7.6055s-3.7656,5.8945-6.7051,9.1348l-20.3398,22.2295c-.7207.7812-1.0801,1.6514-1.0801,2.6104,0,1.0801.3438,1.9346,1.0352,2.5654.6895.6299,1.5742.9443,2.6543.9443h32.5801c.959,0,1.7852-.3145,2.4746-.9443.6895-.6309,1.0352-1.4248,1.0352-2.3857,0-.959-.3457-1.7686-1.0352-2.4297-.6895-.6592-1.5156-.9902-2.4746-.9902Z"/><path d="m173.2461,237.5947h-.7188c-1.2617,0-2.2363.3604-2.9258,1.0801-.6914.7197-1.0352,1.7412-1.0352,3.0605v1.7998c0,1.2598.3438,2.25,1.0352,2.9697.6895.7197,1.6641,1.0801,2.9258,1.0801h.7188c1.3203,0,2.3086-.3604,2.9707-1.0801.6602-.7197.9902-1.71.9902-2.9697v-1.7998c0-1.3193-.3301-2.3408-.9902-3.0605-.6621-.7197-1.6504-1.0801-2.9707-1.0801Z"/><path d="m173.2461,274.3145h-.7188c-1.2617,0-2.2363.3604-2.9258,1.0801-.6914.7207-1.0352,1.71-1.0352,2.9707v1.7998c0,1.2598.3438,2.2656,1.0352,3.0146.6895.751,1.6641,1.125,2.9258,1.125h.7188c1.3203,0,2.3086-.374,2.9707-1.125.6602-.749.9902-1.7549.9902-3.0146v-1.7998c0-1.2607-.3301-2.25-.9902-2.9707-.6621-.7197-1.6504-1.0801-2.9707-1.0801Z"/><path d="m216.2656,246.9102c-2.8223-1.6494-5.9102-2.4756-9.2715-2.4756-.0435,0-.0935.004-.1382.0048l14.8999-16.204c.418-.4199.7637-.8691,1.0332-1.3506.2715-.4795.4062-.959.4062-1.4395,0-.9004-.3008-1.7402-.9004-2.5205-.5996-.7793-1.5605-1.1699-2.8809-1.1699h-29.3398c-.959,0-1.7695.3154-2.4297.9453s-.9902,1.4258-.9902,2.3848c0,.96.3301,1.7705.9902,2.4297.6602.6611,1.4707.9902,2.4297.9902h22.5273l-15.957,17.1904c-.4199.54-.75,1.0342-.9902,1.4844s-.3594.9453-.3594,1.4854c0,.96.2695,1.7705.8105,2.4297.5391.6611,1.2891.9902,2.25.9902.5977,0,1.2148-.0742,1.8438-.2246.6309-.1494,1.3066-.2998,2.0254-.4502.7207-.1494,1.5-.2256,2.3398-.2256,2.2793,0,4.4551.4814,6.5254,1.4404,2.0703.96,3.7656,2.4004,5.0859,4.3203,1.3184,1.9209,1.9785,4.4092,1.9785,7.4697,0,2.8213-.6602,5.3096-1.9785,7.4697-1.3203,2.1602-3.0605,3.8252-5.2207,4.9951s-4.5312,1.7549-7.1094,1.7549c-2.1016,0-3.9609-.3291-5.5801-.9902-1.6211-.6592-3.0312-1.5293-4.2305-2.6094-.541-.4795-1.0352-.7949-1.4844-.9453-.4512-.1494-.8555-.2246-1.2148-.2246-1.0215,0-1.877.4199-2.5664,1.2598-.6895.8408-1.0352,1.71-1.0352,2.6104,0,.54.1348,1.0791.4062,1.6191.2695.54.793,1.0508,1.5742,1.5303,1.6797,1.4404,3.6738,2.5205,5.9844,3.2402s4.666,1.0801,7.0664,1.0801c4.3203,0,8.2031-.8711,11.6543-2.6104,3.4492-1.7393,6.166-4.1992,8.1445-7.3799,1.9805-3.1797,2.9707-6.9297,2.9707-11.25,0-3.8994-.8418-7.3037-2.5195-10.2148-1.6816-2.9092-3.9316-5.1895-6.75-6.8398Z"/><path d="m264.9102,244.9297c-3.0898-1.7686-6.5859-2.6543-10.4844-2.6543-1.8613,0-3.6758.2109-5.4453.6299-1.7695.4199-3.3301.9307-4.6797,1.5293-.375.1669-.7173.3339-1.0393.5008l2.6606-16.2508h24.1638c.959,0,1.7695-.3291,2.4297-.9893s.9902-1.4697.9902-2.4307c0-.959-.3301-1.7842-.9902-2.4746-.6602-.6895-1.4707-1.0352-2.4297-1.0352h-26.7305c-.9609,0-1.7852.3008-2.4746.9004-.6914.6006-1.0957,1.291-1.2148,2.0693l-3.5098,23.3105c-.1211.7197-.0762,1.4551.1348,2.2051.209.751.6133,1.3945,1.2148,1.9346.5996.54,1.4688.8105,2.6094.8105.9004,0,1.9648-.3291,3.1953-.9902,1.2285-.6602,2.6699-1.3193,4.3203-1.9805,1.6484-.6592,3.5234-.9893,5.625-.9893,2.8184,0,5.3242.585,7.5137,1.7549,2.1914,1.1699,3.9004,2.7754,5.1309,4.8145,1.2285,2.041,1.8457,4.4707,1.8457,7.29,0,3.001-.6758,5.6406-2.0254,7.9199-1.3496,2.2812-3.2559,4.0498-5.7148,5.3105-2.4609,1.2598-5.3418,1.8896-8.6406,1.8896-1.6191,0-3.2402-.2998-4.8594-.9004-1.6211-.5986-3.0918-1.4082-4.4102-2.4297-1.0215-.7793-1.9219-1.1699-2.7012-1.1699-1.0195,0-1.8438.3457-2.4746,1.0352-.6289.6904-.9453,1.3945-.9453,2.1152,0,.6006.1504,1.2305.4512,1.8896.2988.6611.6895,1.2012,1.1699,1.6201,1.8594,1.5,4.0352,2.6406,6.5254,3.4199,2.4883.7793,4.9336,1.1699,7.334,1.1699,4.8008,0,8.9551-.9141,12.4648-2.7451,3.5098-1.8291,6.2246-4.3945,8.1465-7.6953,1.918-3.2988,2.8789-7.1689,2.8789-11.6094,0-3.96-.9004-7.4697-2.6992-10.5303-1.8008-3.0596-4.2461-5.4746-7.3359-7.2451Z"/><path d="m346.3594,223.7354c-2.6699-1.6201-5.625-2.4307-8.8652-2.4307h-21.0605c-1.0195,0-1.8887.3604-2.6094,1.0801-.7188.7197-1.0801,1.5908-1.0801,2.6104v55.6201c0,1.0205.3301,1.8896.9902,2.6094.6602.7207,1.5293,1.0801,2.6094,1.0801,1.0195,0,1.8594-.3594,2.5215-1.0801.6582-.7197.9902-1.5889.9902-2.6094v-21.5107h17.6387c3.2402,0,6.1953-.8545,8.8652-2.5645s4.7695-4.0049,6.3008-6.8848c1.5293-2.8799,2.2949-6.0898,2.2949-9.6299,0-3.6006-.7656-6.8096-2.2949-9.6309-1.5312-2.8193-3.6309-5.04-6.3008-6.6592Zm-.0449,22.3643c-.9004,1.8311-2.1152,3.2852-3.6445,4.3652-1.5312,1.0801-3.2559,1.6201-5.1758,1.6201h-17.6387v-23.7598h17.6387c1.9199,0,3.6445.5098,5.1758,1.5293,1.5293,1.0215,2.7441,2.416,3.6445,4.1855.9004,1.7705,1.3496,3.7656,1.3496,5.9854s-.4492,4.2451-1.3496,6.0742Z"/><path d="m424.0293,222.3398c-.75-.6895-1.6055-1.0645-2.5645-1.125-1.2012,0-2.2207.5713-3.0605,1.71l-22.5181,33.5262-22.2124-33.5262c-.3594-.54-.8535-.959-1.4844-1.2598-.6289-.2998-1.2148-.4502-1.7539-.4502-1.0801,0-1.9805.376-2.7012,1.125-.7188.751-1.0801,1.6064-1.0801,2.5654v55.71c0,1.0205.3301,1.8896.9902,2.6094.6602.7207,1.5,1.0801,2.5195,1.0801s1.8594-.3594,2.5215-1.0801c.6582-.7197.9883-1.5889.9883-2.6094v-45.428l19.0801,29.3177c.3008.4814.7207.8701,1.2617,1.1699.5391.3008,1.0781.4209,1.6191.3604.5996.0605,1.1543-.0596,1.6641-.3604.5098-.2998.9453-.6885,1.3066-1.1699l18.9883-28.8867v44.997c0,1.0205.3457,1.8896,1.0352,2.6094.6895.7207,1.6055,1.0801,2.7461,1.0801,1.0801,0,1.9805-.3594,2.6992-1.0801.7207-.7197,1.0801-1.5889,1.0801-2.6094v-55.71c0-1.0195-.375-1.875-1.125-2.5654Z"/></svg>