<svg
   viewBox="0 0 48 48"
   xmlns="http://www.w3.org/2000/svg"
   xmlns:svg="http://www.w3.org/2000/svg"><defs><style>.a{fill:none;stroke:#ffffff;stroke-linecap:round;stroke-linejoin:round;stroke-width:1px}</style></defs><line
     class="st5"
     x1="22.028353"
     y1="26.44174"
     x2="26.684032"
     y2="31.107538"
     id="line2211"
     style="fill:none;stroke:#ffffff;stroke-width:1;stroke-linecap:round;stroke-linejoin:round;stroke-miterlimit:10;stroke-dasharray:none" /><path
     class="st5"
     d="m 20.171997,16.888889 h 1.856356 c 2.632266,0 4.766133,2.138475 4.766133,4.776429 0,2.637946 -2.133867,4.776421 -4.766133,4.776421"
     id="path2207"
     style="fill:none;stroke:#ffffff;stroke-width:1;stroke-linecap:round;stroke-linejoin:round;stroke-miterlimit:10;stroke-dasharray:none" /><line
     class="st5"
     x1="15.131233"
     y1="24.000008"
     x2="9.2645607"
     y2="24.000008"
     id="line2595"
     style="fill:none;stroke:#ffffff;stroke-width:1;stroke-linecap:round;stroke-linejoin:round;stroke-miterlimit:10;stroke-dasharray:none" /><path
     class="st5"
     d="m 15.131234,24 c 1.963676,0 3.555556,1.591879 3.555556,3.555556 0,1.963676 -1.59188,3.555556 -3.555556,3.555556 H 9.2645619 V 16.888889 l 5.8666721,7e-6 c 1.963676,0 3.555556,1.591879 3.555556,3.555556 0,1.963676 -1.59188,3.555555 -3.555556,3.555555 z"
     id="path2593"
     style="fill:none;stroke:#ffffff;stroke-width:1;stroke-linecap:round;stroke-linejoin:round;stroke-miterlimit:10;stroke-dasharray:none" /><polyline
     class="st5"
     points="97.477272,32.650002 97.47686,24.65 93.183411,30.023636 98.483414,30.023636   "
     id="polyline2343"
     style="fill:none;stroke:#ffffff;stroke-width:1.14545;stroke-linecap:round;stroke-linejoin:round;stroke-miterlimit:10;stroke-dasharray:none"
     transform="matrix(0.87302293,0,0,0.87302293,-47.33679,-5.0835846)" /><path
     class="st5"
     d="m 28.604448,18.749112 c 0,-1.42779 1.293448,-2.55348 2.772522,-2.269233 0.970193,0.186451 1.74495,1.025518 1.841519,2.008732 0.07184,0.731357 -0.159596,1.453012 -0.66478,1.896347 -0.935858,0.821293 -3.949261,3.03466 -3.949261,3.03466 h 4.626856"
     id="path2553"
     style="fill:none;stroke:#ffffff;stroke-width:1;stroke-linecap:round;stroke-linejoin:round;stroke-miterlimit:10;stroke-dasharray:none" /></svg>
