<svg
   viewBox="0 0 48 48"
   xmlns="http://www.w3.org/2000/svg">
  <defs><style>.a{fill:none;stroke:#fff;stroke-linecap:round;stroke-linejoin:round;stroke-width:1}</style>
  </defs>
  <path
     class="st5"
     d="m 23.904685,26.490763 v 0.05675 c 0,2.534566 -2.054676,4.589236 -4.589243,4.589236 v 0 c -2.534566,0 -4.589243,-2.054669 -4.589243,-4.589236 v -4.67583 c 0,-2.534567 2.054676,-4.589244 4.589243,-4.589236 h 1.4e-5 c 2.534566,0 4.589229,2.054675 4.589229,4.589236 v 0.05675"
     style="fill:none;stroke:#ffffff;stroke-width:1;stroke-linecap:round;stroke-linejoin:round;stroke-miterlimit:10;stroke-dasharray:none;stroke-opacity:1"
     id="path7780" />
  <path
     class="a"
     d="M 31.37532,34.690795 V 13.309204 A 1.2589352,1.5838217 0 0 0 30.116385,11.725381 H 8.0850196 a 1.2589352,1.5838217 0 0 0 -1.2589353,1.583823 v 21.381591 a 1.2589352,1.5838217 0 0 0 1.2589353,1.583822 H 30.116385 a 1.2589352,1.5838217 0 0 0 1.258935,-1.583822 z"
     id="path7782" />
  <path
     class="a"
     d="m 41.316709,35.405558 v -2.694015 a 0.37058838,0.19955664 0 0 0 -0.370588,-0.199556 h -6.485297 a 0.37058838,0.19955664 0 0 0 -0.370588,0.199556 v 2.694015 a 0.37058838,0.19955664 0 0 0 0.370588,0.199556 h 6.485297 a 0.37058838,0.19955664 0 0 0 0.370588,-0.199556 z"
     id="path7784" />
</svg>
