<svg
   viewBox="0 0 48 48"
   xmlns="http://www.w3.org/2000/svg">
    <defs><style>.a{fill:none;stroke:#fff;stroke-linecap:round;stroke-linejoin:round;}</style></defs><path
     class="a"
     d="M 29.728786,35.654921 C 27.756614,38.196483 26.385541,40.154657 25.48,41.22 c -0.319043,0.368765 -1.640957,0.368765 -1.96,0 C 21.972524,39.429434 14.44,30 14.44,30 c 0,0 3.683929,-4.368221 5.127198,-6.32077 C 15.231237,18.6529 19.181026,12.998656 24,13.038784 c 4.818974,0.04013 8.219304,5.896324 4.050434,10.727681 L 33.560105,30 C 35.710187,26.306344 37.39,25.072982 37.39,17.89 37.39,10.707018 30.203719,5.5 24,5.5 c -6.203719,0 -13.39,5.269877 -13.39,12.39 0,3.542565 0.410375,5.552833 1.094313,7.186076" /></svg>