<?xml version="1.0" encoding="UTF-8"?>
<svg version="1.1" viewBox="0 0 48 48" xmlns="http://www.w3.org/2000/svg">
    <path d="M40.773 2.055a6.396 6.396 0 00-6.396 6.394 6.396 6.396 0 001.309 3.867A16.535 16.535 0 0024 7.465a16.535 16.535 0 00-12.375 5.592 2.656 2.656 0 00.438-1.46 2.656 2.656 0 00-2.657-2.656 2.656 2.656 0 00-2.656 2.657 2.656 2.656 0 002.656 2.656 2.656 2.656 0 001.783-.691A16.535 16.535 0 007.465 24 16.535 16.535 0 0024 40.535a16.535 16.535 0 007.523-1.812 5.03 5.03 0 00-1.837 3.884 5.03 5.03 0 005.029 5.03 5.03 5.03 0 005.03-5.03 5.03 5.03 0 00-5.03-5.03 5.03 5.03 0 00-1.756.32A16.535 16.535 0 0040.535 24a16.535 16.535 0 00-4.072-10.834 6.396 6.396 0 004.31 1.68 6.396 6.396 0 006.395-6.397 6.396 6.396 0 00-6.395-6.394z" fill="#fff"/>
</svg>
