<svg xmlns="http://www.w3.org/2000/svg" viewBox="0 0 48 48"><defs><style>.a,.b{fill:none;stroke:#000;stroke-linecap:round;stroke-linejoin:round;}.a{isolation:isolate;}</style></defs><polyline class="a" points="29.46 38.63 43.5 38.63 43.5 32.04 24 9.38 4.5 31.96"/><polyline class="a" points="24 9.38 24 38.63 29.46 38.63"/><polygon class="a" points="26.42 17.57 29.43 20.96 29.43 24.55 26.41 21.14 26.42 17.57"/><polygon class="a" points="31.47 23.46 34.48 26.86 34.48 30.44 31.46 27.03 31.47 23.46"/><polygon class="a" points="26.52 24.71 29.52 28.1 29.52 31.69 26.5 28.28 26.52 24.71"/><polygon class="a" points="36.41 29.23 39.41 32.62 39.41 36.21 36.39 32.8 36.41 29.23"/><polygon class="a" points="31.49 30.47 34.49 33.86 34.49 37.44 31.47 34.03 31.49 30.47"/><path class="b" d="M21.41,17.57,18.4,21v3.59l3-3.41Z"/><path class="b" d="M16.36,23.46l-3,3.39v3.59l3-3.41Z"/><path class="b" d="M11.43,29.23l-3,3.39v3.59l3-3.41Z"/><path class="b" d="M21.32,24.71l-3,3.39v3.59l3-3.41Z"/><path class="b" d="M16.35,30.47l-3,3.39v3.58l3-3.41Z"/><path class="b" d="M21.38,31.65l-3,3.39v3.59l3-3.42Z"/><polygon class="a" points="26.52 31.65 29.52 35.04 29.52 38.62 26.5 35.21 26.52 31.65"/></svg>