<?xml version="1.0" encoding="UTF-8"?>
<svg viewBox="0 0 48 48" xmlns="http://www.w3.org/2000/svg">
    <defs>
        <style>.cls-1{fill:#fff;}</style>
    </defs>
    <g data-name="Layer 1">
        <path class="cls-1" d="M43.11,21.79,26,7.22a3.06,3.06,0,0,0-4,0L4.89,21.79a2.51,2.51,0,0,0,1.63,4.43H8.71V39.85a1.67,1.67,0,0,0,1.67,1.67h7.54a1.67,1.67,0,0,0,1.67-1.67v-5a4.41,4.41,0,0,1,8.82,0v5a1.67,1.67,0,0,0,1.67,1.67h7.54a1.67,1.67,0,0,0,1.67-1.67V26.22h2.19A2.51,2.51,0,0,0,43.11,21.79ZM24,28.41A4.41,4.41,0,1,1,28.41,24,4.42,4.42,0,0,1,24,28.41Z"/>
    </g>
</svg>
