<svg xmlns="http://www.w3.org/2000/svg" viewBox="0 0 48 48"><defs><style>.a{fill:none;stroke:#fff;stroke-linecap:round;stroke-linejoin:round;}</style></defs><path class="a" d="M41,5.5H7.49a2,2,0,0,0-2,2V41c0,1.4.7,1.5.7,1.5L42.49,6.1s.3-.6-1.5-.6"/><path class="a" d="M36.59,30.6V28.8l-1.8-3.4-.1-2.4-2.3-1.4-1.6.5-2.4-.8-.1-.3,2.5-2.5.4.8,3.4.7,3.7-1.3a14,14,0,0,1-.8,12.9Z"/><path class="a" d="M20.39,28.8l2.3-2.3h2l1.5,2.4,1.4.1-.2,1.1-2,1.9-.1,1.5-1.9,1.3-.1,1-.5-1V29.2Z"/><path class="a" d="M35,13.7l-4.4-4.4H17.89l-8.6,8.6V30.7l4.3,4.3c14.8,13.6,35-6.6,21.4-21.3Z"/></svg>