<?xml version="1.0" encoding="UTF-8"?>
<svg version="1.1" viewBox="0 0 48 48" xmlns="http://www.w3.org/2000/svg">
    <defs>
        <style>.cls-1{fill:#fff;}</style>
        <style>.cls-1{fill:#fff;}</style>
        <style>.cls-1{fill:#fff;}</style>
    </defs>
    <path class="cls-1" d="m41.072 5h-34.144a1.9281 1.9281 0 0 0-1.9281 1.9281v34.144a1.9281 1.9281 0 0 0 1.9281 1.9281h34.144a1.9281 1.9281 0 0 0 1.9281-1.9281v-34.144a1.9281 1.9281 0 0 0-1.9281-1.9281zm-21.294 27.67-4.2222-6.7415h-1.9844v6.7415h-3.7296v-17.579h5.123a8.74 8.74 0 0 1 5.3059 1.3089 4.6022 4.6022 0 0 1 1.717 3.9548 4.7007 4.7007 0 0 1-0.84444 2.8148 5.8126 5.8126 0 0 1-2.4207 1.9q3.9689 5.9393 5.1652 7.6563zm18.409 0h-2.8148l-0.49259-1.717h-0.19704a3.8422 3.8422 0 0 1-1.6748 1.4074 5.7 5.7 0 0 1-2.463 0.50667 4.7148 4.7148 0 0 1-3.5748-1.2667 5.1089 5.1089 0 0 1-1.1963-3.6452v-8.7259h3.6593v7.8533a3.8281 3.8281 0 0 0 0.52074 2.1815 1.9141 1.9141 0 0 0 1.6467 0.73185 2.463 2.463 0 0 0 2.2519-1.0415 6.263 6.263 0 0 0 0.68963-3.4059v-6.3193h3.6733z" fill="#fff" stroke-width="1.4074"/>
    <path class="cls-1" d="m17.371 18.666a5.2496 5.2496 0 0 0-2.66-0.52074h-1.14v4.743h1.2104a4.7289 4.7289 0 0 0 2.6037-0.57704 2.1111 2.1111 0 0 0 0.84444-1.8578 1.9704 1.9704 0 0 0-0.85852-1.7874z" fill="#fff" stroke-width="1.4074"/>
</svg>
