<svg xmlns="http://www.w3.org/2000/svg" viewBox="0 0 48 48"><defs><style>.a{fill:none;stroke:#fff;stroke-linecap:round;stroke-linejoin:round;fill-rule:evenodd;}</style></defs><path class="a" d="M7.5,5.5h33a2,2,0,0,1,2,2v33a2,2,0,0,1-2,2H7.5a2,2,0,0,1-2-2V7.5A2,2,0,0,1,7.5,5.5ZM20.72,34a8.61,8.61,0,0,1,1,.72c-3.3.12-6.06.32-8.84-1.51A8.86,8.86,0,0,1,19.3,17.15c3.24.56,4.61,2.41,6.19,4,.44.43.83.84,1.26,1.28a2.46,2.46,0,0,1,1,1.55,1.5,1.5,0,0,1-1,1.51A1.66,1.66,0,0,1,25,24.8l-2.53-2.55a6.41,6.41,0,0,0-3.05-2A5.87,5.87,0,1,0,18,31.74c.53,0,.54.2.83.49l.62.62Zm17.64-6.37a9.8,9.8,0,0,1-1.7,3.08A10.52,10.52,0,0,1,26.6,34.59c-4-.67-6-3.16-8.48-5.7-.5-.51-2.12-2-2.27-2.58a1.48,1.48,0,0,1,1.42-1.93c.82,0,1.45.86,2.11,1.53L23,29.55a7.58,7.58,0,0,0,5,2.19,7.73,7.73,0,1,0-2.46-15c-.46.18-.85.45-1.25.6-.23-.13-.42-.29-.64-.44a13.13,13.13,0,0,0-2.12-1.12c.14-.46,2.3-1.56,2.65-1.71A10.64,10.64,0,0,1,39,23.88,10.59,10.59,0,0,1,38.36,27.64Z"/></svg>