<?xml version="1.0" encoding="UTF-8"?>
<svg version="1.1" viewBox="0 0 48 48" xmlns="http://www.w3.org/2000/svg">
    <defs>
        <style>.cls-1{fill:#fff;}</style>
        <style>.cls-1{fill:#fff;}</style>
    </defs>
    <path class="cls-1" d="m17.146 18.145h-1.703v5.2215h1.2385a4.0393 4.0393 0 0 0 2.5756-0.68963 2.3785 2.3785 0 0 0 0.84444-1.9704 2.463 2.463 0 0 0-0.71778-1.9422 3.3919 3.3919 0 0 0-2.2378-0.61926z" fill="#fff" stroke-width="1.4074"/>
    <path class="cls-1" d="m41.072 5h-34.144a1.9281 1.9281 0 0 0-1.9281 1.9281v34.144a1.9281 1.9281 0 0 0 1.9281 1.9281h34.144a1.9281 1.9281 0 0 0 1.9281-1.9281v-34.144a1.9281 1.9281 0 0 0-1.9281-1.9281zm-18.972 19.915a7.6281 7.6281 0 0 1-5.0526 1.5059h-1.6044v6.2489h-3.7156v-17.579h5.6296a7.403 7.403 0 0 1 4.8556 1.4074 4.9963 4.9963 0 0 1 1.6748 4.0956 5.3763 5.3763 0 0 1-1.7874 4.3207zm12.737 6.9104a7.1215 7.1215 0 0 1-4.2926 1.0837 14.074 14.074 0 0 1-2.5052-0.19704 9.4296 9.4296 0 0 1-1.9422-0.57704v-3.04a13.399 13.399 0 0 0 2.3081 0.8163 9.6126 9.6126 0 0 0 2.2519 0.3237c1.337 0 1.9985-0.39407 1.9985-1.1541a0.91481 0.91481 0 0 0-0.26741-0.7037 3.4622 3.4622 0 0 0-0.91482-0.61926q-0.63333-0.33778-1.7311-0.80222a11.062 11.062 0 0 1-2.2659-1.1963 3.3496 3.3496 0 0 1-1.0696-1.2667 4.3911 4.3911 0 0 1-0.3237-1.7733 3.223 3.223 0 0 1 1.4074-2.8148 6.7696 6.7696 0 0 1 3.9267-0.97111 11.259 11.259 0 0 1 4.7289 1.0556l-1.0978 2.6459a17.93 17.93 0 0 0-1.9-0.7037 5.517 5.517 0 0 0-1.7874-0.28148c-1.0837 0-1.6185 0.29556-1.6185 0.87259a1.0133 1.0133 0 0 0 0.52074 0.85852 14.947 14.947 0 0 0 2.2941 1.0696 10.288 10.288 0 0 1 2.3081 1.1963 3.6733 3.6733 0 0 1 1.0837 1.2667 4.0111 4.0111 0 0 1 0.33778 1.717 3.7015 3.7015 0 0 1-1.4496 3.1948z" fill="#fff" stroke-width="1.4074"/>
</svg>
