<?xml version="1.0" encoding="UTF-8"?>
<svg version="1.1" viewBox="0 0 48 48" xmlns="http://www.w3.org/2000/svg">
    <defs>
        <style>.cls-1{fill:#fff;}</style>
    </defs>
    <path class="cls-1" d="m41.072 5h-34.144a1.9281 1.9281 0 0 0-1.9281 1.9281v34.144a1.9281 1.9281 0 0 0 1.9281 1.9281h34.144a1.9281 1.9281 0 0 0 1.9281-1.9281v-34.144a1.9281 1.9281 0 0 0-1.9281-1.9281zm-17.396 27.796h-10.865v-17.593h3.7296v14.51h7.1356zm11.259-10.161a4.743 4.743 0 0 0-1.0837-0.04222 3.8563 3.8563 0 0 0-2.7304 0.90074 3.2511 3.2511 0 0 0-0.98518 2.5193v6.8541h-3.7015v-13.525h2.8148l0.53481 2.2659h0.18296a5.1511 5.1511 0 0 1 1.6889-1.8296 4.2222 4.2222 0 0 1 2.3222-0.68963 6.0941 6.0941 0 0 1 1.2385 0.11259z" fill="#fff" stroke-width="1.4074"/>
</svg>
