<?xml version="1.0" encoding="UTF-8"?>
<svg viewBox="0 0 48 48" xmlns="http://www.w3.org/2000/svg">
    <path d="m6.0406 43.478c0.76964-0.34356 1.6369-1.7447 8.4268-13.615 5.387-9.4176 6.3172-11.003 7.2301-12.32 1.0418-1.504 1.3796-1.766 2.2765-1.766 0.68452 0 0.95969 0.162 1.5743 0.92684 1.0979 1.3662 2.3709 3.4996 7.9501 13.324 3.1419 5.5324 4.854 8.5034 6.3148 10.958 1.0958 1.8413 1.2857 2.1153 1.6106 2.3224 0.51703 0.32961 0.92051 0.41793 1.7328 0.37931 0.92826-0.04415 1.42-0.28115 2.148-1.0353 0.80143-0.83013 0.86904-1.2431 0.41281-2.5219-0.60545-1.6969-1.7954-3.8791-9.2038-16.879-9.2313-16.198-10.454-18.187-11.507-18.721-0.43146-0.21884-1.5593-0.30417-1.8734-0.14171-0.95004 0.49128-1.9813 2.1912-13.534 22.307-7.0362 12.252-7.599 13.303-7.5999 14.191-0.00103 1.109 0.84016 2.2856 1.9056 2.6655 0.57757 0.20594 1.5852 0.17072 2.1349-0.07462zm12.904-0.05043c0.61243-0.29963 1.1681-0.85244 1.4383-1.431 0.19008-0.40693 0.2183-0.56884 0.21065-1.2091-0.01101-0.9171-0.22197-1.5909-0.73764-2.3552-0.52886-0.78383-1.1362-1.2541-1.9923-1.5425-1.6401-0.55248-3.1929 0.44545-3.4681 2.2287-0.11581 0.75069 0.07111 1.727 0.49251 2.5725 0.38677 0.77599 0.70795 1.1821 1.2057 1.5245 0.584 0.4018 0.89935 0.4884 1.6831 0.46212 0.57176-0.01916 0.79219-0.06638 1.1678-0.25013zm12.642 0.0097c1.2301-0.56369 1.9757-1.8808 1.7293-3.0551-0.25546-1.2179-4.1473-8.1478-6.9681-12.408-1.2313-1.8595-1.4097-2.0595-1.9863-2.2271-1.3121-0.38144-2.7148 0.22916-3.3646 1.4646-0.20428 0.38836-0.22791 0.5161-0.22471 1.2143 0.0033 0.73208 0.0251 0.83022 0.35189 1.5884 1.5535 3.6041 5.7034 10.791 7.4401 12.885 0.55993 0.67517 0.8991 0.81419 1.8957 0.77704 0.49766-0.01855 0.77104-0.07672 1.1268-0.23973z" fill="#fff"/>
</svg>
