<?xml version="1.0" encoding="UTF-8"?>
<svg version="1.1" viewBox="0 0 48 48" xmlns="http://www.w3.org/2000/svg">
    <path d="m7 5c-1.108 0-2 0.892-2 2v34c0 1.108 0.892 2 2 2h34c1.108 0 2-0.892 2-2v-4.2188c-4.6775-1.9917-10.242-4.3732-15.234-6.5352-3.3474 4.3039-7.1949 6.5482-12.297 6.5273-4.3813-0.01788-8.0207-2.4122-8.0176-6.625 0.00315-4.2128 3.7717-7.0155 7.5527-6.8828 3.6739 0.1318 6.4043 0.69048 11.348 2.2578 0.94631-1.518 1.6716-3.0848 2.0938-5.1992h-14.688v-1.4609h7.6367v-2.6797h-9.3848v-1.5117h9.3848v-4.0078c3.74e-4 -0.27531 0.2105-0.50511 0.48438-0.5332h3.8164v4.541h9.2031v1.5117h-9.2031v2.6797h7.5391c-0.75314 2.7593-1.5897 5.0633-3.0742 7.8984 5.9062 1.9598 10.376 3.5813 12.84 4.4531v-24.215c0-1.108-0.892-2-2-2h-34zm7.6914 20.725c-3.688 0.02879-5.8809 1.8839-5.8809 4.209 2e-7 2.5799 2.633 4.3262 5.8809 4.3262 4.244 0 7.9101-2.97 9.7402-5.6426-1.9778-1.0292-5.4499-2.9261-9.7402-2.8926z" fill="#fff"/>
</svg>
