<?xml version="1.0" encoding="utf-8"?>
<!-- Generator: Adobe Illustrator 25.1.0, SVG Export Plug-In . SVG Version: 6.00 Build 0)  -->
<svg version="1.1"
	 id="Layer_1" xmlns:cc="http://creativecommons.org/ns#" xmlns:dc="http://purl.org/dc/elements/1.1/" xmlns:inkscape="http://www.inkscape.org/namespaces/inkscape" xmlns:rdf="http://www.w3.org/1999/02/22-rdf-syntax-ns#" xmlns:sodipodi="http://sodipodi.sourceforge.net/DTD/sodipodi-0.dtd" xmlns:svg="http://www.w3.org/2000/svg"
	 xmlns="http://www.w3.org/2000/svg" xmlns:xlink="http://www.w3.org/1999/xlink" x="0px" y="0px" viewBox="0 0 48 48"
	 style="enable-background:new 0 0 48 48;" xml:space="preserve">
<style type="text/css">
	.st0{fill:none;stroke:#FEFFFF;stroke-linecap:round;stroke-linejoin:round;}
</style>
<sodipodi:namedview  bordercolor="#666666" borderopacity="1" gridtolerance="10" guidetolerance="10" id="namedview10" inkscape:current-layer="svg13" inkscape:cx="21.34758" inkscape:cy="26.937176" inkscape:document-rotation="0" inkscape:pageopacity="0" inkscape:pageshadow="2" inkscape:window-height="742" inkscape:window-maximized="1" inkscape:window-width="1318" inkscape:window-x="0" inkscape:window-y="0" inkscape:zoom="10.364049" objecttolerance="10" pagecolor="#ffffff" showgrid="false">
	</sodipodi:namedview>
<defs>
	
		<inkscape:path-effect  apply_no_weight="true" apply_with_weight="true" effect="bspline" helper_size="0" id="path-effect858" is_visible="true" lpeversion="1" only_selected="false" steps="2" weight="33.333333">
		</inkscape:path-effect>
	
		<inkscape:path-effect  apply_no_weight="true" apply_with_weight="true" effect="bspline" helper_size="0" id="path-effect854" is_visible="true" lpeversion="1" only_selected="false" steps="2" weight="33.333333">
		</inkscape:path-effect>
	
		<inkscape:path-effect  apply_no_weight="true" apply_with_weight="true" effect="bspline" helper_size="0" id="path-effect850" is_visible="true" lpeversion="1" only_selected="false" steps="2" weight="33.333333">
		</inkscape:path-effect>
	
		<inkscape:path-effect  apply_no_weight="true" apply_with_weight="true" effect="bspline" helper_size="0" id="path-effect846" is_visible="true" lpeversion="1" only_selected="false" steps="2" weight="33.333333">
		</inkscape:path-effect>
</defs>
<g>
	<path id="path846" class="st0" d="M10.3,25.5c0-4.7,2.5-9.1,6.6-11.5s9.1-2.4,13.2,0c4.1,2.4,6.6,6.8,6.6,11.5"/>
	<path id="path844" class="st0" d="M7.3,25.5c0-6.4,3.2-12.3,8.3-15.5s11.5-3.2,16.6,0s8.3,9.1,8.3,15.5"/>
	<path id="path842" class="st0" d="M21.4,22c0,1.3-1,2.3-2.3,2.3l0,0c-1.3,0-2.3-1-2.3-2.3l0,0c0-1.3,1-2.3,2.3-2.3l0,0
		C20.3,19.7,21.4,20.7,21.4,22L21.4,22z"/>
	<path id="circle857" class="st0" d="M31.2,22c0,1.3-1,2.3-2.3,2.3l0,0c-1.3,0-2.3-1-2.3-2.3l0,0c0-1.3,1-2.3,2.3-2.3l0,0
		C30.2,19.7,31.2,20.7,31.2,22L31.2,22z"/>
	<path id="path856" class="st0" d="M43.7,31.9c0-0.3,0-0.4-0.1-0.4c0,0.1,0,0.4,0,0.6c0,0.2,0,0.2,0,0.2c0,0,0,0,0,0.1
		c0,0,0,0.1,0,0.2c0,0.1-0.1,0.2-0.1,0.3c0,0.1,0,0.1,0,0.2c0,0.1-0.1,0.2-0.1,0.2c0,0.1,0,0.1,0,0.1c0,0,0,0.1-0.1,0.1
		c0,0,0,0.1,0,0.1c0,0,0,0.1-0.1,0.2c-0.1,0.1-0.2,0.3-0.2,0.4c-0.1,0.1-0.1,0.1-0.1,0.2c0,0.1-0.1,0.2-0.2,0.3
		c-0.1,0.1-0.1,0.2-0.2,0.3C42.2,35,42.1,35,42,35.2c-0.1,0.1-0.3,0.3-0.4,0.4c-0.1,0.1-0.6,0.6-0.7,0.7c-0.1,0-0.2,0.1-0.3,0.2
		c-0.1,0.1-0.3,0.2-0.4,0.3c-0.1,0.1-0.2,0.1-0.3,0.2c-0.1,0.1-0.3,0.2-0.5,0.3c-0.1,0.1-0.2,0.2-0.3,0.2c-0.1,0-0.1,0.1-0.3,0.1
		c-0.1,0.1-0.3,0.1-0.4,0.2C38.3,37.9,38.2,38,38,38c-0.1,0.1-0.3,0.1-0.6,0.1c-0.3,0-0.7,0.1-1,0.1c-0.3,0-0.5,0-0.6,0
		c-0.1,0-0.2,0-0.4,0c-0.2,0-0.5,0-1,0c-0.5,0-1.2,0-2,0c-0.8,0-1.7,0-2.3,0c-0.6,0-0.9,0-1.1,0c-0.2,0-0.4,0-0.5,0
		s-0.4-0.1-0.5-0.1c-0.1,0-0.1-0.1-0.2-0.1c-0.1,0-0.2-0.1-0.3-0.1c-0.1,0-0.3-0.1-0.4-0.2c-0.1-0.1-0.2-0.1-0.3-0.2
		c-0.1-0.1-0.2-0.1-0.4-0.2c-0.2-0.1-0.5-0.3-0.7-0.4c-0.2-0.1-0.3-0.2-0.4-0.2c-0.1,0-0.2-0.1-0.2-0.1c-0.1,0-0.2-0.1-0.3-0.2
		c-0.1-0.1-0.3-0.2-0.4-0.3c-0.1-0.1-0.2-0.1-0.2-0.2c0,0-0.1-0.1-0.1-0.1 M43.6,31.1c0,0,0,0-0.2,0.2c-0.2,0.2-0.4,0.5-0.6,0.6
		c-0.1,0.2-0.1,0.2-0.2,0.2c-0.1,0.1-0.2,0.2-0.3,0.2c-0.1,0.1-0.1,0.1-0.2,0.1c0,0-0.1,0-0.1,0c0,0,0,0,0,0s-0.1,0.1-0.1,0.1
		c0,0-0.1,0.1-0.2,0.1c0,0-0.1,0-0.1,0.1c-0.1,0-0.2,0.1-0.3,0.2c-0.1,0.1-0.2,0.1-0.2,0.1s-0.1,0.1-0.1,0.1c-0.1,0-0.2,0.1-0.3,0.1
		c-0.1,0-0.2,0.1-0.2,0.1c-0.1,0-0.1,0-0.2,0c0,0-0.1,0-0.1,0c0,0-0.1,0-0.1,0c0,0-0.1,0-0.1,0.1c-0.1,0-0.2,0.1-0.2,0.1
		c-0.1,0-0.1,0-0.3,0c-0.2,0-0.5,0-0.7,0c-0.2,0-0.3-0.1-0.4-0.1c-0.1,0-0.2,0-0.3-0.1c-0.1-0.1-0.3-0.2-0.4-0.3
		c-0.1-0.1-0.1-0.1-0.2-0.2c0,0-0.1-0.1-0.1-0.1c0,0-0.1-0.1-0.1-0.1s0,0-0.1-0.1c0,0-0.1-0.1-0.1-0.2s-0.2-0.2-0.3-0.3
		c-0.1-0.1-0.2-0.2-0.4-0.3c-0.1-0.1-0.2-0.2-0.4-0.3c-0.1-0.1-0.3-0.2-0.4-0.3c-0.1-0.1-0.2-0.1-0.2-0.1s-0.1,0-0.1-0.1
		c-0.1,0-0.2-0.1-0.3-0.2c-0.1-0.1-0.2-0.1-0.3-0.2c-0.1-0.1-0.2-0.1-0.3-0.2c-0.1,0-0.1-0.1-0.1-0.1c0,0,0,0-0.1,0c0,0,0,0-0.1-0.1
		c0,0-0.1,0-0.1-0.1c-0.1-0.1-0.2-0.2-0.4-0.3c-0.2-0.1-0.3-0.2-0.4-0.2c-0.1-0.1-0.2-0.1-0.3-0.1c-0.1,0-0.2-0.1-0.4-0.1
		c-0.2,0-0.3,0-0.7,0c-0.3,0-0.8,0-1.5,0c-0.6,0-1.4,0-2.1,0c-0.7,0-1.2,0.1-1.7,0.2c-0.5,0.1-1,0.3-1.3,0.4
		C25,30.4,25,30.4,25,30.5c0,0-0.1,0-0.1,0c0,0-0.1,0.1-0.1,0.1c0,0-0.1,0-0.1,0c0,0-0.1,0.1-0.1,0.1c-0.1,0-0.2,0.1-0.3,0.1
		 M4.7,31.9c0-0.3,0-0.4,0.1-0.4c0,0.1,0,0.4,0,0.6c0,0.2,0,0.2,0,0.2c0,0,0,0,0,0.1c0,0,0,0.1,0,0.2c0,0.1,0.1,0.2,0.1,0.3
		c0,0.1,0,0.1,0,0.2c0,0.1,0.1,0.2,0.1,0.2c0,0.1,0,0.1,0,0.1c0,0,0,0.1,0.1,0.1c0,0,0,0.1,0,0.1c0,0,0,0.1,0.1,0.2
		c0.1,0.1,0.2,0.3,0.2,0.4c0.1,0.1,0.1,0.1,0.1,0.2c0,0.1,0.1,0.2,0.2,0.3c0.1,0.1,0.1,0.2,0.2,0.3C6.1,35,6.2,35,6.3,35.2
		c0.1,0.1,0.3,0.3,0.4,0.4c0.1,0.1,0.6,0.6,0.7,0.7c0.1,0,0.2,0.1,0.3,0.2c0.1,0.1,0.3,0.2,0.4,0.3c0.1,0.1,0.2,0.1,0.3,0.2
		c0.1,0.1,0.3,0.2,0.5,0.3s0.2,0.2,0.3,0.2c0.1,0,0.1,0.1,0.3,0.1c0.1,0.1,0.3,0.1,0.4,0.2c0.1,0.1,0.3,0.2,0.4,0.2
		c0.1,0.1,0.3,0.1,0.6,0.1c0.3,0,0.7,0.1,1,0.1c0.3,0,0.5,0,0.6,0c0.1,0,0.2,0,0.4,0c0.2,0,0.5,0,1,0c0.5,0,1.2,0,2,0s1.7,0,2.3,0
		c0.6,0,0.9,0,1.1,0s0.4,0,0.5,0s0.4-0.1,0.5-0.1c0.1,0,0.1-0.1,0.2-0.1c0.1,0,0.2-0.1,0.3-0.1c0.1,0,0.3-0.1,0.4-0.2
		c0.1-0.1,0.2-0.1,0.3-0.2c0.1-0.1,0.2-0.1,0.4-0.2c0.2-0.1,0.5-0.3,0.7-0.4c0.2-0.1,0.3-0.2,0.4-0.2c0.1,0,0.2-0.1,0.2-0.1
		c0.1,0,0.2-0.1,0.3-0.2c0.1-0.1,0.3-0.2,0.4-0.3c0.1-0.1,0.2-0.1,0.2-0.2c0,0,0.1-0.1,0.1-0.1 M4.7,31.1c0,0,0,0,0.2,0.2
		s0.4,0.5,0.6,0.6c0.1,0.2,0.1,0.2,0.2,0.2c0.1,0.1,0.2,0.2,0.3,0.2C6,32.5,6,32.5,6.1,32.5c0,0,0.1,0,0.1,0c0,0,0,0,0,0
		s0.1,0.1,0.1,0.1s0.1,0.1,0.2,0.1s0.1,0,0.1,0.1c0.1,0,0.2,0.1,0.3,0.2c0.1,0.1,0.2,0.1,0.2,0.1c0.1,0,0.1,0.1,0.1,0.1
		c0.1,0,0.2,0.1,0.3,0.1c0.1,0,0.2,0.1,0.2,0.1c0.1,0,0.1,0,0.2,0c0,0,0.1,0,0.1,0c0,0,0.1,0,0.1,0c0,0,0.1,0,0.1,0.1
		c0.1,0,0.2,0.1,0.2,0.1c0.1,0,0.1,0,0.3,0c0.2,0,0.5,0,0.7,0c0.2,0,0.3-0.1,0.4-0.1c0.1,0,0.2,0,0.3-0.1c0.1-0.1,0.3-0.2,0.4-0.3
		c0.1-0.1,0.1-0.1,0.2-0.2c0,0,0.1-0.1,0.1-0.1c0,0,0.1-0.1,0.1-0.1c0,0,0,0,0.1-0.1c0,0,0.1-0.1,0.1-0.2c0.1-0.1,0.2-0.2,0.3-0.3
		c0.1-0.1,0.2-0.2,0.4-0.3c0.1-0.1,0.2-0.2,0.4-0.3c0.1-0.1,0.3-0.2,0.4-0.3c0.1-0.1,0.2-0.1,0.2-0.1c0,0,0.1,0,0.1-0.1
		c0.1,0,0.2-0.1,0.3-0.2c0.1-0.1,0.2-0.1,0.3-0.2c0.1-0.1,0.2-0.1,0.3-0.2c0.1,0,0.1-0.1,0.1-0.1c0,0,0,0,0.1,0c0,0,0,0,0.1-0.1
		c0,0,0.1,0,0.1-0.1c0.1-0.1,0.2-0.2,0.4-0.3c0.2-0.1,0.3-0.2,0.4-0.2c0.1-0.1,0.2-0.1,0.3-0.1c0.1,0,0.2-0.1,0.4-0.1
		c0.2,0,0.3,0,0.7,0c0.3,0,0.8,0,1.5,0c0.6,0,1.4,0,2.1,0c0.7,0,1.2,0.1,1.7,0.2c0.5,0.1,1,0.3,1.3,0.4c0.3,0.1,0.3,0.1,0.3,0.2
		c0,0,0.1,0,0.1,0c0,0,0.1,0.1,0.1,0.1c0,0,0.1,0,0.1,0c0,0,0.1,0.1,0.1,0.1c0.1,0,0.2,0.1,0.3,0.1"/>
</g>
</svg>
