<?xml version="1.0" encoding="UTF-8"?>
<svg viewBox="0 0 48 48" xmlns="http://www.w3.org/2000/svg">
    <defs>
        <style>.cls-1{fill:#fff;fill-rule:evenodd;}</style>
    </defs>
    <path class="cls-1" d="m2 2.4613v4.384h4.4595l7.9087 16.68-2.973 5.3799c-0.35546 0.64646-0.53882 1.373-0.53421 2.1107 0.03976 2.4052 1.9788 4.3472 4.384 4.3869h26.356v-4.3869h-25.404c-0.30728 0.0087-0.56025-0.24145-0.55163-0.54873l0.07549-0.26711 1.9626-3.5827h16.352c1.5958 0.0063 3.0674-0.86281 3.8353-2.2617l7.8622-14.255c0.17866-0.32286 0.27038-0.68492 0.26711-1.0539-0.0081-1.2117-0.98615-2.1925-2.1978-2.2007h-32.54l-2.0672-4.384zm24.179 7.5632a5.0838 5.0838 0 0 1 3.3069 1.1033c1.0703 1.0108 0.98132 2.3169 0.98132 3.8034v3.4492a2.973 2.973 0 0 0 0.77228 2.1107 0.43109 0.43109 0 0 1 0 0.59518l-1.6926 1.4865a0.44595 0.44595 0 0 1-0.5226 0 5.3068 5.3068 0 0 1-1.2775-1.4865 4.3257 4.3257 0 0 1-3.6408 1.6055 3.1365 3.1365 0 0 1-3.3156-3.4346 3.7906 3.7906 0 0 1 2.3633-3.6263 15.816 15.816 0 0 1 4.1779-0.7868v-0.28452a2.973 2.973 0 0 0-0.26711-1.6055 1.4865 1.4865 0 0 0-1.2513-0.57776 1.6797 1.6797 0 0 0-1.7681 1.321 0.49055 0.49055 0 0 1-0.38614 0.41808l-2.1543-0.23807a0.38649 0.38649 0 0 1-0.32808-0.46163c0.49055-2.6014 2.8542-3.3882 4.9502-3.3882a5.0838 5.0838 0 0 1 0.05226-0.0029zm1.2252 6.6167c-1.6054-1e-6 -3.2837 0.3419-3.2837 2.2298 0 0.95136 0.49112 1.6055 1.3384 1.6055a1.7987 1.7987 0 0 0 1.4865-1.0104 4.3703 4.3703 0 0 0 0.41518-2.3488zm-12.301 19.972c-1.0599 0.02659-2.1329 0.43443-3.0107 1.3123-2.8092 2.8092-0.82026 7.6125 3.153 7.6125 2.4629 0 4.4595-1.9966 4.4595-4.4595 0-2.7316-2.2699-4.5238-4.6018-4.4653zm21.871 0c-1.0633 0.03258-2.1364 0.45216-3.0108 1.3413-2.798 2.8454-0.7359 7.65 3.2546 7.5835 2.4512 3.52e-4 4.4256-2.0087 4.384-4.4595-3.8e-4 -2.7439-2.2887-4.537-4.6279-4.4653z"/>
</svg>
