<svg id="Layer_2" data-name="Layer 2" xmlns="http://www.w3.org/2000/svg" viewBox="0 0 48 48"><defs><style>.cls-1{fill:none;stroke:#fff;stroke-linecap:round;stroke-linejoin:round;}</style></defs><rect class="cls-1" x="20.01" y="25.61" width="8.01" height="10.65" rx="4"/><line class="cls-1" x1="28.01" y1="25.61" x2="28.01" y2="36.26"/><path class="cls-1" d="M41.38,19.84H33.52l-7.77-13a2,2,0,0,0-3.5,0l-7.77,13H6.62a3.12,3.12,0,0,0-3,3.93L8,40.08a2.84,2.84,0,0,0,2.74,2.1H37.24A2.84,2.84,0,0,0,40,40.08l4.41-16.31A3.12,3.12,0,0,0,41.38,19.84ZM24,11.84l4.77,8H19.23Z"/><line class="cls-1" x1="14.48" y1="19.84" x2="33.52" y2="19.84"/></svg>