<svg xmlns="http://www.w3.org/2000/svg" viewBox="0 0 48 48"><defs><style>.a{fill:none;stroke:#fff;stroke-linecap:round;stroke-linejoin:round;}</style></defs><path class="a" d="M21,4.5H27A1.44,1.44,0,0,1,28.42,6v.94a17.79,17.79,0,0,1,7.47,4l1-1L34.15,7.12a4.83,4.83,0,0,1,3.5-1.45,4.78,4.78,0,0,1,2.64.82l.3-.3a.92.92,0,0,1,.62-.28.9.9,0,0,1,.66,1.55l-.28.29a4.86,4.86,0,0,1-.51,6.19l-2.86-2.82-1,1.05a17.73,17.73,0,0,1-.73,24.57l2.36,4.09a1.75,1.75,0,1,1-3,1.76L33.68,39a17.76,17.76,0,0,1-19.36,0l-2.1,3.63a1.75,1.75,0,1,1-3-1.76l2.36-4.09a17.71,17.71,0,0,1-.72-24.56L9.78,11.12,6.92,13.94a4.86,4.86,0,0,1-.51-6.19l-.28-.29A.9.9,0,1,1,7.41,6.19l.29.29a4.91,4.91,0,0,1,2.65-.81,4.83,4.83,0,0,1,3.5,1.45L11.07,9.85l1,1.05a18,18,0,0,1,7.46-4V6A1.44,1.44,0,0,1,21,4.5Zm3,5.56a14,14,0,1,0,14,14,14,14,0,0,0-14-14Z"/><circle class="a" cx="24" cy="24.07" r="2.18"/><line class="a" x1="24" y1="21.89" x2="24" y2="13.01"/><line class="a" x1="22.46" y1="25.61" x2="16.07" y2="32"/><line class="a" x1="11.07" y1="9.85" x2="9.78" y2="11.12"/><line class="a" x1="36.93" y1="9.85" x2="38.22" y2="11.12"/><line class="a" x1="37.17" y1="12.17" x2="35.89" y2="10.89"/><line class="a" x1="12.12" y1="10.9" x2="10.84" y2="12.18"/></svg>