<?xml version="1.0" encoding="UTF-8"?>
<svg viewBox="0 0 48 48" xmlns="http://www.w3.org/2000/svg">
    <path d="m35.083 2c2.1044 0 3.8104 1.706 3.8104 3.8104 0 2.1044-1.706 3.8104-3.8104 3.8104s-3.8104-1.706-3.8104-3.8104c0-2.1044 1.706-3.8104 3.8104-3.8104zm-14.133 6.9279h9.6298c0.35887-0.00277 0.70249 0.14133 0.95328 0.39766l6.3183 6.2906 4.42-5.3622c0.45586-0.56116 1.2775-0.64984 1.8428-0.19814l0.9034 0.6637c0.59857 0.45863 0.69002 1.326 0.20091 1.8983l-6.1104 7.4267c-0.49743 0.60412-1.4133 0.64291-1.9537 0.08383l-4.4893-4.2676-5.764 6.4014 5.7502 5.7918c0.32284 0.32284 0.45586 0.78701 0.35194 1.2318l-3.2977 15.657c-0.15103 0.74406-0.89786 1.2096-1.635 1.0115l-1.635-0.4323c-0.68586-0.17874-1.1057-0.86738-0.95328-1.5519l2.7989-12.803-5.9996-5.9996-5.958 6.6924c-0.06969 0.08092-0.17597 0.17043-0.30067 0.25772-0.33254 0.23001-0.79948 0.44062-1.0849 0.43508h-11.085c-0.74545 4.22e-4 -1.4133-0.64153-1.3856-1.3856v-1.3856c0.022862-0.71912 0.66508-1.3994 1.3856-1.3856h9.0063l13.163-15.934h-4.1568l-5.5423 6.9279c-0.44339 0.53899-1.29 0.74406-1.8567 0.33254l-0.71773-0.55424c-0.5861-0.4517-0.66647-1.2817-0.20091-1.8567l6.3737-7.8009c0.25356-0.3076 0.63321-0.51267 1.0309-0.50851z" fill="#fff"/>
</svg>
