<svg id="Layer_2" data-name="Layer 2" xmlns="http://www.w3.org/2000/svg" viewBox="0 0 48 48"><defs><style>.cls-1{fill:none;stroke:#000;stroke-linecap:round;stroke-linejoin:round;}</style></defs><path class="cls-1" d="M33.72,5.5a3.16,3.16,0,1,1-3.16,3.16A3.15,3.15,0,0,1,33.72,5.5ZM21.47,11.77h8a1.1,1.1,0,0,1,.79.33l5.24,5.22,3.66-4.45a1.09,1.09,0,0,1,1.53-.16l.75.55a1.09,1.09,0,0,1,.17,1.57L36.52,21a1.09,1.09,0,0,1-1.62.07l-3.72-3.54-4.78,5.3,4.77,4.81a1.07,1.07,0,0,1,.29,1l-2.73,13a1.09,1.09,0,0,1-1.36.84L26,42.1a1.08,1.08,0,0,1-.79-1.28l2.32-10.61-5-5-4.94,5.55a1.38,1.38,0,0,1-.25.21,1.85,1.85,0,0,1-.9.36H7.3a1.15,1.15,0,0,1-1.15-1.14V29.06A1.21,1.21,0,0,1,7.3,27.91h7.47L25.68,14.7H22.23l-4.59,5.74a1.18,1.18,0,0,1-1.54.28l-.6-.46a1.08,1.08,0,0,1-.16-1.54l5.28-6.46a1.11,1.11,0,0,1,.85-.43Z"/></svg>