<?xml version="1.0" encoding="UTF-8"?>
<svg viewBox="0 0 48 48" xmlns="http://www.w3.org/2000/svg">
    <path d="m23.779 4.2305a20.777 20.777 0 0 0-20.777 20.777 20.777 20.777 0 0 0 8.5625 16.781l9.1875-18.99c-0.71767-0.39522-1.1636-1.1495-1.1641-1.9688-6.17e-4 -1.2421 1.0059-2.2495 2.248-2.25 1.2421 4.63e-4 2.2487 1.0079 2.248 2.25-0.001296 0.88149-0.51747 1.681-1.3203 2.0449l10.641 20.535a20.777 20.777 0 0 0 11.152-18.402 20.777 20.777 0 0 0-20.777-20.777zm-2.0273 4.2402c3.9117 0.0020788 6.6267 1.6714 8.6738 3.7129s3.6898 5.4419 3.666 9.6621h-0.98242c-0.061486-3.7341-1.2986-6.8181-3.4043-8.9492-2.1057-2.1311-4.4091-3.3475-7.9531-3.4238v-1.002zm0 2.9238c3.6355 0.013115 5.4086 1.5205 6.6797 2.7871 1.2711 1.2666 2.9008 3.8901 2.9277 7.6641h-1.041c-0.051223-2.7393-0.81544-5.0989-2.6309-6.9219s-3.3071-2.3623-5.9355-2.4727v-1.0566zm-0.001953 3.0723c2.1203 0.007219 3.345 0.9379 4.375 2.0332s1.878 3.2987 1.8828 5.3457h-0.99609c-0.045862-1.5469-0.40347-3.382-1.5605-4.6816-1.1571-1.2997-2.485-1.7039-3.6992-1.7266l-0.001953-0.9707zm0.007812 10.498-2.377 4.9355 3.9922-1.7988-1.6152-3.1367zm1.9355 3.7598-4.7754 2.1719 7.5566 3.2266-2.7812-5.3984zm-5.1152 2.8398-3.043 6.3203 10.953-2.959-7.9102-3.3613zm8.6094 3.9434-11.293 3.0547 15.092 4.3242-3.7988-7.3789zm-12.213 3.5371-1.8379 3.7793a20.777 20.777 0 0 0 10.643 2.9609 20.777 20.777 0 0 0 7.8906-1.5742l-0.22656-0.4375-16.469-4.7285z" fill="#fff"/>
</svg>
