<svg xmlns="http://www.w3.org/2000/svg" viewBox="0 0 48 48"><defs><style>.a,.b{fill:none;stroke-linecap:round;stroke-linejoin:round;}.a{stroke:#fff;}.b{stroke:#fefefe;stroke-opacity:1;}</style></defs><path class="a" d="M40.5,5.5H7.5a2,2,0,0,0-2,2v33a2,2,0,0,0,2,2h33a2,2,0,0,0,2-2V7.5A2,2,0,0,0,40.5,5.5Z"/><path class="b" d="M27.7,16.5V31.6H20.2v-15A11,11,0,1,0,35,27a10.82,10.82,0,0,0-7.3-10.5Z"/><path class="a" d="M20.2,13.4h7.5"/><rect class="b" x="20.2" y="9.1" width="7.5" height="22.4"/></svg>