<?xml version="1.0" encoding="UTF-8"?>
<svg viewBox="0 0 48 48" xmlns="http://www.w3.org/2000/svg">
    <defs>
        <style>.cls-1{fill:#fff;}</style>
    </defs>
    <path class="cls-1" d="m2.0407 24.139c-0.12228-0.16304-0.0059468-0.3957 0.19785-0.3957h1.9785c0.15136-0.0025 0.2911-0.08163 0.37097-0.21022 0.053524-0.06689 0.083897-0.14933 0.08656-0.23495 0.68565-19.123 25.784-25.701 35.762-9.3732 0.12206 0.1745 0.12206 0.40668 0 0.58119l-4.0065 5.0452c-0.08653 0.17336-0.3339 0.17336-0.42043 0-4.8569-12.953-23.951-10.097-24.806 3.7097-0.0011 0.10341 0.03392 0.20398 0.09892 0.28441v0.06183c0.08493 0.09496 0.20648 0.14898 0.33387 0.14839h1.9785c0.2038 0 0.32013 0.23266 0.19785 0.3957l-5.6882 7.1721c-0.1037 0.12199-0.292 0.12199-0.3957 0zm43.725 0.12366h-1.9785c-0.14791 0.0038-0.28536 0.07717-0.37097 0.19785-0.05234 0.07224-0.08243 0.1582-0.08656 0.24731-0.30526 8.5137-6.1556 15.82-14.396 17.98-8.2408 2.1599-16.923-1.3379-21.365-8.6072-0.11854-0.1756-0.11854-0.40559 0-0.58119l4.0683-5.0452c0.08653-0.17336 0.3339-0.17336 0.42043 0 4.8569 12.953 23.951 10.097 24.806-3.7097-8.68e-4 -0.10688-0.03549-0.21075-0.09893-0.29678-0.08493-0.09496-0.20648-0.14898-0.33387-0.14839h-2.0403c-0.2038 0-0.32013-0.23266-0.19785-0.3957l5.6882-7.1721c0.1037-0.12199 0.292-0.12199 0.3957 0l5.6882 7.1721c0.07945 0.15587-0.02363 0.3427-0.19785 0.3586z"/>
</svg>
