<?xml version="1.0" encoding="UTF-8"?>
<svg viewBox="0 0 48 48" xmlns="http://www.w3.org/2000/svg">
    <path d="m40.471 1.0059c0.87334-0.06958 1.4719 0.47888 1.5607 1.357 0.0216 0.20873 0.03578 0.4192 0.03578 0.63035 0.0047 5.3864 0.0051 10.771 0.0028 16.155 0 5.3672 0.0021 10.735-0.0028 16.1 0 1.1757-0.16234 2.3295-0.68539 3.3994-0.81336 1.6651-2.1456 2.7109-3.9115 3.2123-0.98372 0.28072-1.9868 0.44162-3.0114 0.4872-2.6824 0.12717-5.0006-1.693-5.4804-4.3298-0.39827-2.1762 0.64224-4.5746 2.9287-5.6951 0.91173-0.45106 1.8873-0.70273 2.871-0.91386 1.0653-0.23032 2.1353-0.43241 3.1958-0.67715 0.77258-0.17754 1.2885-0.64961 1.4396-1.4534 0.03599-0.17754 0.04956-0.36266 0.04956-0.54502 0.0025-5.1154 0.0021-10.227-0.0027-15.34 0-0.17515-0.02838-0.35229-0.07157-0.52024-0.11038-0.42468-0.41939-0.68461-0.85606-0.66062-0.45106 0.02639-0.89665 0.0984-1.3405 0.18718-2.1426 0.42228-4.2817 0.85634-6.4218 1.2882-2.1857 0.43907-4.3714 0.88253-6.5595 1.324-1.2908 0.26151-2.5821 0.52022-3.8729 0.78173-0.04559 0.0096-0.09169 0.02375-0.13488 0.03577-0.77976 0.21593-1.0623 0.57564-1.0983 1.3818-0.0047 0.12236-0.0027 0.24408-0.0027 0.36885-0.0025 7.3322-7.06e-4 14.666-0.0055 21.995 0 1.1852-0.13051 2.3561-0.60558 3.4573-0.78456 1.8091-2.1722 2.9346-4.0435 3.4792-0.9885 0.28552-2.0037 0.44848-3.0305 0.48445-2.7016 0.10076-4.9431-1.6934-5.4062-4.3518-0.40069-2.2913 0.64723-4.7507 3.248-5.852 1.0053-0.42228 2.0609-0.65458 3.1215-0.87534 0.80855-0.17034 1.6189-0.32547 2.425-0.49822 1.0773-0.23513 1.6418-0.91087 1.6873-2.0121 0.0048-0.14396 0.0027-0.27994 0.0027-0.4239 0-8.3423-0.0021-16.687 0.0027-25.029 0-0.3479 0.03679-0.70494 0.11835-1.0432 0.19674-0.80376 0.77092-1.2625 1.5387-1.4616 0.71979-0.18714 1.4507-0.31643 2.18-0.46519 2.0658-0.41748 4.133-0.83461 6.1988-1.2497 2.1353-0.43187 4.2673-0.85909 6.4026-1.291 1.8858-0.38148 3.7715-0.76769 5.662-1.1396 0.61903-0.12236 1.2479-0.24689 1.8718-0.29728z" fill="#fff"/>
</svg>
