<svg id="Layer_2" data-name="Layer 2" xmlns="http://www.w3.org/2000/svg" viewBox="0 0 48 48"><defs><style>.cls-1{fill:none;stroke:#fff;stroke-linecap:round;stroke-linejoin:round;}.cls-2{fill:#fff;}</style></defs><path class="cls-1" d="M27.41,43.47A13.35,13.35,0,0,1,14.29,30.73a13.76,13.76,0,0,1,.28-3.33A13.55,13.55,0,0,1,15.77,24a7.73,7.73,0,0,0,.73-2,4.06,4.06,0,0,0,.12-.91,5.15,5.15,0,0,0-9.92-2,11.34,11.34,0,0,1-.35-2.9,11.54,11.54,0,1,1,23.07-.48A11.94,11.94,0,0,1,27.22,23c-1.83,2.82-3.92,5.43-3.92,9a11.52,11.52,0,0,0,8,11,13.29,13.29,0,0,1-3.87.52ZM40.84,30.35a4.62,4.62,0,0,0-1.91,6.84,13.57,13.57,0,0,1-5.73,5.09,7.66,7.66,0,0,1,6.24-12.11,7.33,7.33,0,0,1,1.47.15Zm.7-7.71a7.26,7.26,0,0,1-1.35,3.24,13.37,13.37,0,0,0-3.31-5.24,14.53,14.53,0,0,0-1.19-1h0a8,8,0,0,1-3.31-6.48,8.37,8.37,0,0,1,.34-2.33A5.24,5.24,0,0,0,35.15,14a8,8,0,0,0,.94.55l1.36.64v-.09a8.75,8.75,0,0,0,1.77-4.23,6.69,6.69,0,0,1,.48,5.86h0a5.78,5.78,0,0,1,1.94,4.73,6.22,6.22,0,0,1-.1,1.22Z"/><path class="cls-2" d="M32.53,21.51a1.13,1.13,0,1,1,2.26,0h0a1.14,1.14,0,0,1-2.27,0Z"/></svg>