<svg xmlns="http://www.w3.org/2000/svg" viewBox="0 0 48 48"><defs><style>.a,.b{fill:none;stroke:#fff;stroke-linecap:round;stroke-linejoin:round;}.b{stroke-dasharray:0 3.7;}</style></defs><path class="a" d="M5.5,21.8c3.8-2.1,2.2-5.9,7.4-6.9,3.7-.7,5.4,1.5,6,3.6,3.8,12.9,9.5,11.3,13.7,8,2.5-2,5.7-.7,6.4,3.2.8,4.3,2.8,4.1,3.4,4.3"/><path class="a" d="M40.5,42.5H7.5a2,2,0,0,1-2-2V7.5a2,2,0,0,1,2-2h33a2,2,0,0,1,2,2v33A2,2,0,0,1,40.5,42.5Z"/><line class="a" x1="12.9" y1="5.5" x2="12.9" y2="5.5"/><line class="b" x1="12.9" y1="9.2" x2="12.9" y2="40.6"/><line class="a" x1="12.9" y1="42.5" x2="12.9" y2="42.5"/><line class="a" x1="20.3" y1="5.5" x2="20.3" y2="5.5"/><line class="b" x1="20.3" y1="9.2" x2="20.3" y2="40.6"/><line class="a" x1="20.3" y1="42.5" x2="20.3" y2="42.5"/><line class="a" x1="27.7" y1="5.5" x2="27.7" y2="5.5"/><line class="b" x1="27.7" y1="9.2" x2="27.7" y2="40.6"/><line class="a" x1="27.7" y1="42.5" x2="27.7" y2="42.5"/><line class="a" x1="35.1" y1="5.5" x2="35.1" y2="5.5"/><line class="b" x1="35.1" y1="9.2" x2="35.1" y2="40.6"/><line class="a" x1="35.1" y1="42.5" x2="35.1" y2="42.5"/><line class="a" x1="42.5" y1="12.9" x2="42.5" y2="12.9"/><line class="b" x1="38.8" y1="12.9" x2="7.4" y2="12.9"/><line class="a" x1="5.5" y1="12.9" x2="5.5" y2="12.9"/><line class="a" x1="42.5" y1="20.3" x2="42.5" y2="20.3"/><line class="b" x1="38.8" y1="20.3" x2="7.4" y2="20.3"/><line class="a" x1="5.5" y1="20.3" x2="5.5" y2="20.3"/><line class="a" x1="42.5" y1="27.7" x2="42.5" y2="27.7"/><line class="b" x1="38.8" y1="27.7" x2="7.3" y2="27.7"/><line class="a" x1="5.5" y1="27.7" x2="5.5" y2="27.7"/><line class="a" x1="42.5" y1="35.1" x2="42.5" y2="35.1"/><line class="b" x1="38.8" y1="35.1" x2="7.3" y2="35.1"/><line class="a" x1="5.5" y1="35.1" x2="5.5" y2="35.1"/></svg>