<svg id="Layer_2" data-name="Layer 2" xmlns="http://www.w3.org/2000/svg" viewBox="0 0 48 48"><defs><style>.cls-1{fill:none;stroke:#fff;stroke-linecap:round;stroke-linejoin:round;}</style></defs><path class="cls-1" d="M23.63,43.05c-.39-.74-1.5-1.38-3.9-2.25a21.3,21.3,0,0,1-3.1-1.35,20.8,20.8,0,0,1-3.47-3.32c-.32-.4-.42-.42-.74-.23-.67.41-.9.27-1.24-.73-.49-1.44-.42-5.48.1-5.48a3.69,3.69,0,0,1,.86.68c.4.37,1.28,1.08,2,1.58,1.29.93,1.31,1,.62,1.76l-.38.42.46.37c2,1.6,3.38,2.2,5,2.21s2.58-.59,2.89-1.63c.11-.34,0-.5-.44-.51-3.53-.09-5.56-.45-8.12-2.62A9,9,0,0,1,11.6,28a5.71,5.71,0,0,1-.39-3.33,5.8,5.8,0,0,1,.66-2.38c1.12-2.4,4-4.34,9.14-6.2l1.65-.68V14.06c0-4,2.09-7.48,4.89-8.84,2.09-1,3.53-1,4.29.22a8.45,8.45,0,0,1-.21,9.1,12.1,12.1,0,0,1-5.39,4.38l-1.14.43v3.48l.86.22a9.71,9.71,0,0,1,3.84,2.07c3.9,3.56,2,8.85-3.33,9.48-1.19.13-1.25.35-.37,1.31.63.68.65.68,2.07.68A3.88,3.88,0,0,0,31,35.8a18.13,18.13,0,0,0,2-1.35l.63-.56-.46-.55c-.25-.3-.42-.62-.36-.71a12.8,12.8,0,0,1,1.47-1.11A7.57,7.57,0,0,0,36,29.94c.21-.34.45-.61.54-.61.58,0,.86,3.87.4,5.43-.36,1.23-.48,1.33-1.1,1l-.54-.31-.61.78c-1.91,2.39-3.34,3.35-7.63,5.11a6.12,6.12,0,0,0-2.25,1.4,7.35,7.35,0,0,1-.85.8,1.69,1.69,0,0,1-.31-.45Zm-1-17s-.48.12-1,.27a3,3,0,0,0-1.94,1.57c-.15.79-.09.94.8,1.77.51.47.88.93.82,1-.36.58-2.11,0-3.39-1.28a3,3,0,0,1-1.16-2.21c.06-2,1.94-3.71,4.71-4.28l1.14-.21V21.39a7.45,7.45,0,0,0,0-1.27,18.39,18.39,0,0,0-2,.64c-4.56,1.76-6.49,3.52-6.49,5.89,0,2.64,2.71,5.1,6.59,6.18,2.41.67,2,.36,1.9-6.82Zm3.84,6.78c2.42-1.13,2.39-4.13-.06-5.69-1.31-.82-1.34-.62-1.34.71v3.31a10.92,10.92,0,0,0,.18,2.1,6,6,0,0,0,1.22-.43Zm-.37-18.38a16.72,16.72,0,0,0,2.09-1.19c1.68-1.12,2.31-1.88,2.6-3.18.26-1.13-.77-1.68-2.23-1.19S25.1,12.36,25.1,14c0,.44-.09.81,0,.81a6.13,6.13,0,0,0,1-.37Zm0,0"/><line class="cls-1" x1="25.1" y1="14.78" x2="25.1" y2="19.35"/><line class="cls-1" x1="22.66" y1="15.45" x2="22.69" y2="20.27"/><line class="cls-1" x1="22.66" y1="22.67" x2="22.66" y2="26.01"/><line class="cls-1" x1="25.1" y1="22.83" x2="25.1" y2="26.59"/><line class="cls-1" x1="22.7" y1="34.87" x2="22.71" y2="31.83"/><line class="cls-1" x1="25.28" y1="33.22" x2="25.5" y2="34.99"/></svg>