<?xml version="1.0" encoding="UTF-8"?>
<svg viewBox="0 0 48 48" xmlns="http://www.w3.org/2000/svg">
    <path d="m23.999 2.0012c4.2772 0 7.4893 2.3372 9.8095 5.7468 2.3214 3.4095 3.8092 7.9 4.7804 12.376 1.9424 8.9467 1.8096 17.861 1.8096 17.874v0.0037c0 0.0037-0.0024 1.0809-0.11576 2.3116-0.05198 0.6244-0.14234 1.245-0.27052 1.8583-0.12795 0.58735-0.28636 1.1089-0.58491 1.4952-0.59354 0.77409-1.6903 0.94572-2.492 0.38994-0.86762-0.58979-1.5086-1.8742-1.6731-4.0676-0.30098-2.9002 0.0097-6.8483-0.84081-10.017-0.4265-1.5841-1.1272-2.9562-2.3055-3.936-2.102-1.6646-5.2398-2.2617-8.1157-2.2617-3.0318 0-5.3836 0.45453-8.1157 2.2617-1.1796 0.97973-1.8815 2.3518-2.3067 3.936-0.84934 3.1683-0.54104 7.1164-0.84081 10.017-0.16572 2.1934-0.80669 3.479-1.6719 4.0664-0.80164 0.55573-1.8984 0.3841-2.492-0.38999-0.29855-0.38629-0.45696-0.90661-0.58491-1.494-0.12873-0.61371-0.21989-1.2347-0.27296-1.8595-0.068946-0.76789-0.10715-1.5382-0.11455-2.3092v-0.0061c0-0.01462-0.13404-8.9272 1.8084-17.873 0.97242-4.4758 2.4615-8.965 4.7817-12.375 2.3189-3.412 5.5311-5.7492 9.8082-5.7492zm0 4.265c-6.3938 0-8.9772 11.069-9.4378 13.548 0 0 3.7105-1.1979 9.4378-1.1979s9.4378 1.1979 9.4378 1.1979c-0.4594-2.481-3.0428-13.549-9.4378-13.549zm0 18.982c3.6033 0 6.5242 1.879 6.5242 4.198 0 2.074-1.3282 3.5521-1.6877 6.1172-0.36192 2.5687 0.33754 6.2305 0.33754 6.2305-1.0687-1.4927-2.3713-2.1934-2.8393-4.5294 0 0-0.73845 0.3022-1.0114 2.3591-0.46306 3.4827-0.64218 3.9506-2.5919 6.3768-0.17669-3.256-0.31317-3.7252-0.88346-5.0546-0.53617-1.2551-2.0508-3.3608-3.083-5.3593-1.1381-2.2019-1.2892-4.5891-1.2892-6.1416 0-2.3202 2.9197-4.1992 6.523-4.1992z" fill="#fff" paint-order="fill markers stroke"/>
</svg>
