<svg id="Layer_2" data-name="Layer 2" xmlns="http://www.w3.org/2000/svg" viewBox="0 0 48 48"><defs><style>.cls-1{fill:none;stroke:#fff;stroke-linecap:round;stroke-linejoin:round;}</style></defs><path class="cls-1" d="M24,4.5c3.79,0,6.64,2.07,8.69,5.1a31.81,31.81,0,0,1,4.24,11,79.32,79.32,0,0,1,1.6,15.85h0s0,1-.1,2.05a11.72,11.72,0,0,1-.24,1.65,3.15,3.15,0,0,1-.52,1.32,1.61,1.61,0,0,1-2.2.35c-.77-.53-1.34-1.66-1.49-3.61-.26-2.57,0-6.07-.74-8.88a6.61,6.61,0,0,0-2.05-3.49c-1.86-1.47-4.64-2-7.19-2a11.8,11.8,0,0,0-7.19,2,6.61,6.61,0,0,0-2,3.49C14,32.1,14.28,35.6,14,38.17c-.15,1.95-.72,3.09-1.48,3.61a1.62,1.62,0,0,1-2.21-.35,3.15,3.15,0,0,1-.52-1.32,11.72,11.72,0,0,1-.24-1.65c-.07-.68-.1-1.37-.11-2.05h0a79.71,79.71,0,0,1,1.61-15.85,31.81,31.81,0,0,1,4.24-11c2-3,4.9-5.1,8.69-5.1Zm0,3.78c-5.67,0-8,9.81-8.37,12A29.89,29.89,0,0,1,24,19.23a29.77,29.77,0,0,1,8.36,1.06c-.4-2.2-2.69-12-8.36-12Zm0,17.11c3.19,0,5.78,1.38,5.78,3.44,0,1.84-1.18,3.15-1.49,5.42a20.92,20.92,0,0,0,.3,5.52c-.95-1.32-2.11-1.94-2.52-4,0,0-.66.26-.9,2.09-.41,3.08-.57,3.5-2.3,5.65-.15-2.89-.27-3.3-.78-4.48s-1.82-3-2.73-4.75a11.88,11.88,0,0,1-1.14-5.44c0-2.06,2.58-3.44,5.78-3.44Z"/></svg>