<?xml version="1.0" encoding="UTF-8"?>
<svg viewBox="0 0 48 48" xmlns="http://www.w3.org/2000/svg">
    <path d="m11.1 2.0018c0.04901-0.00246 0.09811-0.00246 0.14712 0 0.35687 0.013939 0.69641 0.15756 0.95496 0.40393l4.1539 4.1539c4.7229-2.7195 10.536-2.7195 15.259 0l4.1241-4.1539c0.56678-0.54013 1.4578-0.54013 2.0246 0 0.54013 0.56678 0.54013 1.4578 0 2.0246l-3.8149 3.8149c3.3769 2.8985 5.3172 7.1289 5.3109 11.579 0.0077 1.1463-0.90598 2.0866-2.052 2.1119h-26.414c-1.1695 0.007532-2.1195-0.9424-2.1119-2.1119-0.0062554-4.4503 1.934-8.6807 5.3109-11.579l-3.8149-3.8149c-0.54013-0.56678-0.54013-1.4578 0-2.0246 0.25023-0.23926 0.57701-0.38234 0.92255-0.40393zm6.2533 11.145c-1.2641 7e-5 -2.2889 1.0248-2.289 2.289 7.1e-5 1.2641 1.0248 2.2889 2.289 2.289 1.2641-7e-5 2.2889-1.0248 2.289-2.289-7e-5 -1.2641-1.0248-2.2889-2.289-2.289zm13.295 0c-2.0321 0.02641-3.0244 2.4903-1.5783 3.9179s3.897 0.40337 3.8971-1.6289c-7.1e-5 -1.2641-1.0248-2.2889-2.289-2.289-0.01-6.5e-5 -0.01995-6.5e-5 -0.02992 0zm-19.855 11.078h26.414c1.167 6.35e-4 2.1126 0.94726 2.1119 2.1143l-0.01496 4.3559c-2e-6 8.4525-6.8521 15.305-15.305 15.305-8.4525 0-15.305-6.8521-15.305-15.305v-4.4008c0.023541-1.1437 0.953-2.061 2.0969-2.0695zm13.115 2.3962c-0.66776 0.03659-1.271 0.41054-1.6007 0.99236l-5.7049 10.061c-0.35029 0.60719-0.35029 1.3551 0 1.9623 0.35144 0.60252 0.99795 0.97141 1.6955 0.96742h11.405c0.69751 4e-3 1.344-0.36491 1.6955-0.96742 0.35029-0.60719 0.35029-1.3551 0-1.9623l-5.6774-10.061c-0.3643-0.64191-1.0578-1.0253-1.7952-0.99236-0.0059-2.6e-5 -0.01162-2.6e-5 -0.01745 0zm0.10472 5.9542 2.3264 4.1016h-4.6502z" fill="#fff"/>
</svg>
