<svg xmlns="http://www.w3.org/2000/svg" viewBox="0 0 48 48"><defs><style>.a{fill:none;stroke:#fff;stroke-linecap:round;stroke-linejoin:round;}</style></defs><path class="a" d="M40.65,2.52a2.14,2.14,0,0,0-1.31.33L34.91,5.49A21.54,21.54,0,0,0,9.06,39.57L5.85,41.5a2.13,2.13,0,0,0-.74,2.87A2.14,2.14,0,0,0,8,45.1l4.68-2.79a21.51,21.51,0,0,0,11.2,3.18c19.59,0,29-24,14.65-37.34l3-1.64a2.16,2.16,0,0,0-.87-4ZM23.91,6.46A17.26,17.26,0,0,1,30.59,8L13.86,18a6,6,0,0,0-2,8.2l0,.05a6.32,6.32,0,0,0,8.62,2.17l8.61-5.19a2,2,0,0,1,2.79.71,1.69,1.69,0,0,1-.59,2.26l-18.4,11a17.23,17.23,0,0,1,11-30.77Zm10.82,4A17.23,17.23,0,0,1,17,39.74l16.47-9.86a6,6,0,0,0,2.06-8.19,6.31,6.31,0,0,0-8.62-2.17l-8.62,5.19A2,2,0,0,1,15.47,24a1.66,1.66,0,0,1-.19-1.27,1.6,1.6,0,0,1,.78-1.05ZM9.06,39.57l3.82-2.34m-.17,5.08L17,39.74M34.73,10.49l3.83-2.34M34.91,5.49,30.59,8"/></svg>