<?xml version="1.0" encoding="UTF-8"?>
<svg viewBox="0 0 48 48" xmlns="http://www.w3.org/2000/svg">
    <path d="M24 2A22 22 0 002 24a22 22 0 0022 22 22 22 0 0022-22A22 22 0 0024 2zm-13.096 9.533h8.168l3.26 6.793c1.52 3.04 3.5 3.15 5.57 3.15h12.58a1.13 1.13 0 011.133 1.131v2.76a1.13 1.13 0 01-1.133 1.133h-1.591v4.848h-2.442v-2.336h-2.404V34H31.46v-7.5h-3.5c-2.102 0-4.094.103-5.629 3.174l-3.26 6.793h-8.168c-1.345 0-1.826-.84-2.123-2.123l-1.67-7.201v-.002L6.385 24l.726-3.14 1.67-7.204c.297-1.283.778-2.123 2.123-2.123z" fill="#fff"/>
</svg>
