<?xml version="1.0" encoding="UTF-8"?>
<svg version="1.1" viewBox="0 0 48 48" xmlns="http://www.w3.org/2000/svg">
    <path d="m34.137 30.342c0 4.8883-3.9364 8.8504-8.8246 8.8504h-2.6242c-4.8626 0-8.8246-3.9621-8.8246-8.8504v-8.9276c0-4.8883 3.9364-8.8504 8.8246-8.8504h2.65c4.8626 0 8.8246 3.9621 8.8246 8.8504v8.9276zm7.3839-13.944h1.4922v-5.1456c0-3.8334-2.4699-6.2519-6.3033-6.2519h-25.419c-3.8334 0-6.3033 2.4184-6.3033 6.2519v5.1456h1.4922c2.7786 0 4.8368 2.4184 4.8368 5.0684v5.0684c0 2.65-2.0582 5.0684-4.8368 5.0684h-1.4922v5.1456c0 3.8334 2.4699 6.2519 6.3033 6.2519h25.419c3.8334 0 6.3033-2.4184 6.3033-6.2519v-5.1456h-1.4922c-2.7786 0-4.8368-2.4184-4.8368-5.0684v-5.0684c-0.02573-2.6757 2.0325-5.0684 4.8368-5.0684z" fill="#fff" stroke-width=".80399"/>
    <path d="m30.409 26.669c0 2.65-2.7786 5.0684-5.5572 5.0684h-1.5437c-2.7786 0-5.5572-2.4184-5.5572-5.0684v-5.0684c0-2.65 2.7786-5.0684 5.5572-5.0684h1.5437c2.8043 0 5.5572 2.4184 5.5572 5.0684zm-5.0169-12.658h-2.8043c-4.065 0-7.3839 3.7048-7.3839 7.7698v8.5416c0 4.065 3.3189 7.7698 7.3839 7.7698h2.8043c4.065 0 7.5383-3.7048 7.5383-7.7698v-8.5416c0.02573-4.065-3.4733-7.7698-7.5383-7.7698z" fill="#fff" stroke-width=".80399"/>
    <path d="m24.403 29.329h-0.15437c-2.1097 0-4.1165-1.2349-4.1165-3.3961v-2.0582s0-0.74611-0.69465-0.74611-0.69465 0.74611-0.69465 0.74611v2.0582c0 2.933 2.6242 4.7854 5.5058 4.7854h0.15437s0.66892 0 0.66892-0.66892c0-0.69465-0.66892-0.72038-0.66892-0.72038" fill="#fff" stroke-width=".80399"/>
</svg>
