<svg id="Layer_2" data-name="Layer 2" xmlns="http://www.w3.org/2000/svg" viewBox="0 0 48 48"><defs><style>.cls-1,.cls-2{fill:none;stroke:#fff;}.cls-1{stroke-linecap:round;stroke-linejoin:round;}.cls-2{stroke-miterlimit:10;}</style></defs><path class="cls-1" d="M17.89,3.64H30.11A2.29,2.29,0,0,1,32.4,5.93V7.4h1.54a3,3,0,0,1,3.05,3V39.59a3,3,0,0,1-3.05,3H14.06a3,3,0,0,1-3.05-3V10.45a3,3,0,0,1,3.05-3H15.6V5.93a2.29,2.29,0,0,1,2.29-2.29ZM14.84,9.75a1.52,1.52,0,0,0-1.53,1.53v7.23c5.23,0,16.8.08,21.38.08V11.28a1.52,1.52,0,0,0-1.53-1.53ZM24,23.43h0a7.78,7.78,0,0,1-3.88,1,7.54,7.54,0,0,1-1.94-.25v9.35c0,2,2.33,3.78,5.82,5.24,3.49-1.74,5.82-3.2,5.82-5.24V24.23a8,8,0,0,1-1.94.25A7.66,7.66,0,0,1,24,23.43Zm0,2.44a5.38,5.38,0,0,0,2.65.72A5.46,5.46,0,0,0,28,26.41l0,4.72H24v5.26c-2.39-1-4-2.19-4-3.58l0-1.68h4Z"/><path class="cls-2" d="M24,27.5h0"/></svg>