<svg xmlns="http://www.w3.org/2000/svg" viewBox="0 0 48 48"><defs><style>.a{fill:none;stroke:#fff;stroke-linecap:round;stroke-linejoin:round;}</style></defs><path class="a" d="M16,36.44a21.34,21.34,0,0,0,18.5.16M13.11,29.49c6.8,3.51,15.13,4.72,22.36.81m-4.69-9.79c.13,1,.19,1.76-.82,2.33a8.88,8.88,0,0,1-5,.43c-1.14-.4-1.22-1.06-1.34-2m11.93-2.73c0,8.1,1,14.16-1.35,20.22s-9.77,5.82-14.51,2-7.64-10.94-7.52-19m2-17,21.67-.29M33.74,20a8.69,8.69,0,0,1-2.86,7.41,6.06,6.06,0,0,1-6.91.74,8.16,8.16,0,0,1-4-6.67l6.88-.65Zm6-8.56a4.28,4.28,0,0,1-8.56,0h0a4.28,4.28,0,0,1,4.28-4.28h0A4.28,4.28,0,0,1,39.73,11.42Zm2.58-.1a6.85,6.85,0,1,1-6.84-6.84h0A6.84,6.84,0,0,1,42.31,11.32Zm-19.51,2a8.54,8.54,0,0,1-8.55,8.54h0a8.55,8.55,0,1,1,0-17.09h0a8.55,8.55,0,0,1,8.55,8.55Zm-3-.17a5.56,5.56,0,0,1-11.12,0h0a5.56,5.56,0,0,1,5.56-5.56h0A5.56,5.56,0,0,1,19.77,13.14Z"/></svg>