<?xml version="1.0" encoding="UTF-8"?>
<svg version="1.1" viewBox="0 0 48 48" xmlns="http://www.w3.org/2000/svg">
    <path d="m7 5c-1.108 0-2 0.892-2 2v34c0 1.108 0.892 2 2 2h34c1.108 0 2-0.892 2-2v-34c0-1.108-0.892-2-2-2h-34zm29.471 11.455l3.1523 2.4609c-1.4338 1.8352-2.8407 3.4505-4.2402 4.877 1.3995 1.4264 2.8065 3.0417 4.2402 4.877l-3.1523 2.4609c-1.4052-1.7986-2.7498-3.3157-4.0488-4.6191-2.7008 2.1776-5.4127 3.5508-8.2559 4.0273-5.35 0.89664-10.577-1.6404-15.789-6.7461 5.2121-5.1057 10.439-7.6427 15.789-6.7461 2.8433 0.47653 5.5548 1.8495 8.2559 4.0273 1.2991-1.3035 2.6437-2.8205 4.0488-4.6191zm-14.975 4.4199c-2.2071 0.11664-4.4908 1.0423-7.0156 2.918 3.2978 2.4498 6.1835 3.2771 9.0254 2.8008 1.8216-0.3053 3.7664-1.2244 5.8496-2.8008-2.0832-1.5764-4.028-2.4955-5.8496-2.8008-0.35524-0.059538-0.71103-0.09901-1.0684-0.11719-0.31266-0.015906-0.62611-0.016663-0.94141 0z" fill="#fff"/>
</svg>
