<svg xmlns="http://www.w3.org/2000/svg" viewBox="0 0 48 48"><defs><style>.a{fill:none;stroke:#fff;stroke-linecap:round;stroke-linejoin:round;}</style></defs><path class="a" d="M24,4.5h0A15.93,15.93,0,0,0,8.08,20.42c0,6.22,3.93,11.9,7.8,16a51.8,51.8,0,0,0,7.73,6.78l.39.27.39-.27a51.8,51.8,0,0,0,7.73-6.78c3.87-4.14,7.8-9.81,7.8-16A15.93,15.93,0,0,0,24,4.5Z"/><circle class="a" cx="31.41" cy="20" r="3.98"/><circle class="a" cx="16.64" cy="20" r="3.98"/><polyline class="a" points="29.12 13.06 23.72 20 16.64 20 22.06 13.06 29.12 13.06"/><polyline class="a" points="31.41 20 28.27 10.48 25.96 10.48"/><line class="a" x1="21.54" y1="10.86" x2="23.72" y2="20"/><line class="a" x1="20.13" y1="10.86" x2="23.07" y2="10.86"/><line class="a" x1="9.86" y1="27.77" x2="38.14" y2="27.77"/></svg>