<svg xmlns="http://www.w3.org/2000/svg" viewBox="0 0 48 48"><defs><style>.a{fill:none;stroke:#fff;stroke-linecap:round;stroke-linejoin:round;}</style></defs><path class="a" d="M24,4.5h0A15.93,15.93,0,0,0,8.08,20.42c0,6.22,3.93,11.9,7.8,16a51.8,51.8,0,0,0,7.73,6.78l.39.27.39-.27a51.8,51.8,0,0,0,7.73-6.78c3.87-4.14,7.8-9.81,7.8-16A15.93,15.93,0,0,0,24,4.5ZM13.65,27.77a15.64,15.64,0,0,1-2.35-7.71A12.69,12.69,0,0,1,24,7.36h0a12.69,12.69,0,0,1,12.7,12.7,15.64,15.64,0,0,1-2.35,7.71Z"/><circle class="a" cx="29.69" cy="20.57" r="3.05"/><circle class="a" cx="18.36" cy="20.57" r="3.05"/><polyline class="a" points="27.93 15.24 23.79 20.57 18.36 20.57 22.52 15.24 27.93 15.24"/><polyline class="a" points="29.69 20.57 27.28 13.26 25.51 13.26"/><line class="a" x1="22.12" y1="13.56" x2="23.79" y2="20.57"/><line class="a" x1="21.04" y1="13.56" x2="23.29" y2="13.56"/></svg>