<svg id="Layer_2" data-name="Layer 2" xmlns="http://www.w3.org/2000/svg" viewBox="0 0 48 48"><defs><style>.cls-1{fill:none;stroke:#fff;stroke-linecap:round;stroke-linejoin:round;}</style></defs><path class="cls-1" d="M22.94,6.65l1.28,15.78-3.48.31L19.47,7l3.47-.32ZM12.77,8.27a6.12,6.12,0,0,1,3,.62,3.46,3.46,0,0,1,1.61,2.93,3.54,3.54,0,0,1-.34,1.93A3,3,0,0,1,15.72,15a3.32,3.32,0,0,1,2,1.18,4.19,4.19,0,0,1,.85,2.35A3.88,3.88,0,0,1,17.4,22a7.27,7.27,0,0,1-4.23,1.46L7,24,5.74,8.84l5.62-.5Zm18.65,1.88a5,5,0,0,1,3,.89A5.12,5.12,0,0,1,36,14.85l.52,6.48-3.5.31L32.9,20a4.64,4.64,0,0,1-1.45,1.65,4.49,4.49,0,0,1-2.09.65,3.73,3.73,0,0,1-2.83-.77,3.52,3.52,0,0,1-1.25-2.58,3.37,3.37,0,0,1,1.08-3.05,7.24,7.24,0,0,1,4.06-1.3l2-.19,0-.28a1.37,1.37,0,0,0-.75-1.2,3.86,3.86,0,0,0-2.06-.22,8.75,8.75,0,0,0-2.06.41,7.35,7.35,0,0,0-1.73.86l-.22-2.77a19.09,19.09,0,0,1,2.21-.62,15.35,15.35,0,0,1,2.24-.35Zm-21.73,1,.26,3.2L12,14.17a2,2,0,0,0,1.31-.52,1.56,1.56,0,0,0,.36-1.24,1.5,1.5,0,0,0-.56-1.15A1.92,1.92,0,0,0,11.76,11Zm22.93,5.37-1.81.16a3,3,0,0,0-1.61.53,1.33,1.33,0,0,0-.45,1.19,1.38,1.38,0,0,0,.53,1,1.79,1.79,0,0,0,1.25.28,2.19,2.19,0,0,0,1.59-.88,2.7,2.7,0,0,0,.52-1.9Zm-20.25.29-2.2.19.32,4,2.2-.2a2.56,2.56,0,0,0,1.65-.64,2,2,0,0,0,.45-1.56,1.86,1.86,0,0,0-.68-1.42,2.2,2.2,0,0,0-1.21-.36Zm16.77,6.89,1.28,15.76L27,39.78,25.67,24ZM19,25.32a6.16,6.16,0,0,1,3,.62,3.45,3.45,0,0,1,1.6,2.94,3.43,3.43,0,0,1-.34,1.92,3,3,0,0,1-1.34,1.28,3.27,3.27,0,0,1,2,1.18,4.2,4.2,0,0,1,.86,2.35A3.92,3.92,0,0,1,23.6,39a7.14,7.14,0,0,1-4.22,1.45l-6.2.56L12,25.88l5.61-.5ZM37.62,27.2a4.9,4.9,0,0,1,3,.89,5.08,5.08,0,0,1,1.63,3.81l.52,6.48-3.5.31L39.1,37a4.64,4.64,0,0,1-1.45,1.65,4.44,4.44,0,0,1-2.08.65,3.8,3.8,0,0,1-2.84-.77A3.52,3.52,0,0,1,31.49,36a3.38,3.38,0,0,1,1.07-3,7.27,7.27,0,0,1,4.06-1.3l2.05-.19,0-.28a1.34,1.34,0,0,0-.74-1.2,3.92,3.92,0,0,0-2.07-.22,8.56,8.56,0,0,0-2,.41A7.43,7.43,0,0,0,32,31l-.22-2.76A17.82,17.82,0,0,1,34,27.6a15.56,15.56,0,0,1,2.24-.35Zm-21.72,1,.26,3.21,2.06-.19a2,2,0,0,0,1.31-.52,1.56,1.56,0,0,0,.36-1.24,1.49,1.49,0,0,0-.55-1.14A2,2,0,0,0,18,28ZM37,33.74a3,3,0,0,0-1.61.54A1.31,1.31,0,0,0,35,35.46a1.35,1.35,0,0,0,.53,1,1.78,1.78,0,0,0,1.25.28,2.19,2.19,0,0,0,1.59-.88,2.73,2.73,0,0,0,.52-1.9l0-.42Zm-18.45.13-2.19.19.32,4,2.19-.2a2.51,2.51,0,0,0,1.65-.65A1.89,1.89,0,0,0,21,35.63a1.83,1.83,0,0,0-.68-1.42,2.14,2.14,0,0,0-1.21-.36Z"/></svg>