<?xml version="1.0" encoding="UTF-8"?>
<svg width="48" height="48" viewBox="0 0 12.7 12.7" xmlns="http://www.w3.org/2000/svg">
    <path d="m1.8521 1.3229c-0.29316 0-0.52917 0.23601-0.52917 0.52917v8.9958c0 0.29316 0.23601 0.52917 0.52917 0.52917h8.9958c0.29316 0 0.52917-0.23601 0.52917-0.52917v-8.9958c0-0.29316-0.23601-0.52917-0.52917-0.52917zm4.4979 1.9156 2.7647 2.1327v3.545h-1.4759v-0.55552h0.92036v-2.7518l-2.2076-1.7079-2.2107 1.7079v2.7518h0.92036v0.55552h-1.4759v-3.545zm-0.8785 4.7951h0.27854c0.18086 0 0.22376 0.08886 0.22376 0.15916 5e-7 0.09974-0.064777 0.20722-0.29146 0.20722h-0.2899zm0.75034 0h0.27854c0.18081 0 0.22376 0.08886 0.22376 0.15916-2e-7 0.09974-0.064666 0.20727-0.29146 0.20722h-0.2899zm0.6842 0.32763h0.27854c0.1807 0 0.22376 0.08938 0.22376 0.15968-1e-6 0.09969-0.06466 0.2067-0.29146 0.2067h-0.28991zm-1.5353 0.22376h0.27854c0.18086 0 0.22428 0.08886 0.22428 0.15916 2e-7 0.09946-0.064721 0.20722-0.29146 0.20722h-0.29042zm0.75034 0h0.27854c0.1807 0 0.22376 0.08886 0.22376 0.15916-3e-7 0.09946-0.064149 0.20722-0.29094 0.20722h-0.29042zm0.67696 0.35037h0.27854c0.18081 0 0.22376 0.08886 0.22376 0.15916 1e-6 0.09947-0.06472 0.20722-0.29146 0.20722h-0.2899zm-0.78445 0.22324h0.27854c0.1807 0 0.22376 0.08908 0.22376 0.15968 6e-7 0.09947-0.064666 0.20677-0.29145 0.20671h-0.2899z" fill="#fff" stroke-width=".26458"/>
</svg>
