<?xml version="1.0" encoding="UTF-8"?>
<svg version="1.1" viewBox="0 0 48 48" xmlns="http://www.w3.org/2000/svg">
    <path d="M6.748 5C5.78 5 5 5.78 5 6.748v34.504C5 42.22 5.78 43 6.748 43h34.504C42.22 43 43 42.22 43 41.252V6.748C43 5.78 42.22 5 41.252 5zm5.4 1.918c.321-.008.649.02.984.08.596.109 1.174.576 3.008 2.307 1.833 1.73 4.901 4.773 10.257 10.12L38.64 31.648l1.238 3.888c.332 1.044.635 2.03.855 2.78.11.375.198.691.261.93.032.118.056.218.075.3.018.08.035.107.035.237 0 .601-.47 1.055-1.007 1.213-.537.158-1.178.104-1.8-.172-.049-.022-.547-.2-1.177-.406-.63-.208-1.438-.465-2.269-.724l-3.13-.975-11.926-11.877c-3.26-3.246-6.277-6.282-8.51-8.56a286.977 286.977 0 01-2.697-2.78c-.33-.346-1.07-1.132-1.17-1.297-1.195-1.958-.258-4.67 1.985-6.295.882-.64 1.784-.97 2.746-.992zm.017 1.557c-.735-.029-1.478.356-2.407 1.302-1.014 1.034-1.358 1.973-1.175 2.947a3.9 3.9 0 00.386.72c.233.35.543.76.864 1.145.32.385.653.747.922 1 .13.122.242.215.324.274.026-.02 4.91-4.743 4.91-4.743l-1.158-1.112c-1.08-1.037-1.93-1.504-2.666-1.533zm4.879 3.787l-4.568 4.797 1.671 1.697 4.717-4.716zm3.019 2.965l-1.817 1.818c.294.291 4.545 4.506 9.1 8.991a1358.94 1358.94 0 006.488 6.352c.887.86 1.628 1.575 2.147 2.065.147.139.232.213.341.314l.015-.05c.101-.331.222-.755.336-1.185l.356-1.341zM17.05 18.24l-1.816 1.816c.29.29 4.208 4.19 8.429 8.379a3168.76 3168.76 0 006.027 5.97c.824.813 1.513 1.49 1.998 1.964.243.237.436.423.567.548l.052.05c.094-.019.213-.043.358-.075.31-.068.718-.163 1.142-.266.403-.099.78-.202 1.076-.292l-.349-.368a329.981 329.981 0 00-2.095-2.156 1971.255 1971.255 0 00-6.386-6.485c-4.498-4.551-8.712-8.793-9.003-9.085zm20.874 16.483c-.056.183-.11.348-.168.548-.232.807-.536 1.428-1.01 1.88-.476.45-1.097.696-1.858.822.235.097.433.183.702.287.496.192 1.022.384 1.46.533.34.115.541.168.704.21.033-.055.063-.102.096-.174.135-.296.36-.541.62-.76.147-.124.324-.191.49-.283-.03-.102-.058-.203-.104-.354a74.18 74.18 0 00-.522-1.611c-.15-.449-.28-.772-.41-1.098z" fill="#fff"/>
</svg>
