<?xml version="1.0" encoding="utf-8"?>
<!-- Generator: Adobe Illustrator 25.0.1, SVG Export Plug-In . SVG Version: 6.00 Build 0)  -->
<svg version="1.1" id="Layer_1" xmlns="http://www.w3.org/2000/svg" xmlns:xlink="http://www.w3.org/1999/xlink" x="0px" y="0px"
	 viewBox="0 0 48 48" style="enable-background:new 0 0 48 48;" xml:space="preserve">
<style type="text/css">
	.st0{fill:none;stroke:#FFFFFF;stroke-linecap:round;stroke-linejoin:round;stroke-miterlimit:10;}
	.st1{fill:#FFFFFF;}
</style>
<g>
	<g>
		<path class="st0" d="M40.5,5.5h-33c-1.1,0-2,0.9-2,2v33c0,1.1,0.9,2,2,2h33c1.1,0,2-0.9,2-2v-33C42.5,6.4,41.6,5.5,40.5,5.5z"/>
	</g>
	<g>
		<g>
			<g>
				<line class="st0" x1="9.9" y1="31.2" x2="9.9" y2="16.8"/>
			</g>
			<path class="st0" d="M9.9,16.8h6c2,0,3.6,1.6,3.6,3.6v0c0,2-1.6,3.6-3.6,3.6h-6"/>
			<path class="st0" d="M9.9,24h6c2,0,3.6,1.6,3.6,3.6v0c0,2-1.6,3.6-3.6,3.6h-6"/>
		</g>
		<path class="st0" d="M25.4,31.2L25.4,31.2c-2,0-3.6-1.6-3.6-3.6v-2.2c0-2,1.6-3.6,3.6-3.6h0c2,0,3.6,1.6,3.6,3.6v2.2
			C29,29.6,27.4,31.2,25.4,31.2z"/>
		<path class="st0" d="M35.4,18.8v10.6c0,1,0.8,1.8,1.8,1.8h0.7"/>
		<g>
			<g>
				<line class="st0" x1="31.3" y1="18.8" x2="31.3" y2="31.2"/>
			</g>
		</g>
		<line class="st0" x1="33.5" y1="21.8" x2="35.4" y2="21.8"/>
		<line class="st0" x1="35.4" y1="21.8" x2="37.3" y2="21.8"/>
	</g>
	<circle class="st1" cx="25.4" cy="33.3" r="0.8"/>
</g>
</svg>
