<svg id="Layer_2" data-name="Layer 2" xmlns="http://www.w3.org/2000/svg" viewBox="0 0 48 48"><defs><style>.cls-1{fill:none;stroke:#fff;stroke-linecap:round;stroke-linejoin:round;fill-rule:evenodd;}</style></defs><path class="cls-1" d="M23.93,19.64a2.17,2.17,0,0,0-2.36-2.36H19.85c-.86.06-1.25.5-1.25,1.42v3.38h3A2.23,2.23,0,0,0,23.93,19.64Z"/><path class="cls-1" d="M35.55,5.09H12.45A7,7,0,0,0,5.5,12V42.09H35.55a7,7,0,0,0,7-6.94V12A7,7,0,0,0,35.55,5.09ZM21.68,34H14.75V16.08a2.1,2.1,0,0,1,2-2.08H21.6c3.79,0,6.24,2,6.24,5.19A4.86,4.86,0,0,1,26.18,23l-.53.45.61.35a4.86,4.86,0,0,1,2.35,4.37C28.61,31.7,25.9,34,21.68,34Zm11.2,0a2.48,2.48,0,1,1,2.47-2.48A2.47,2.47,0,0,1,32.88,34Z"/><path class="cls-1" d="M22,25.18H19.67c-.74.1-1.07.55-1.07,1.41v4H22a2.5,2.5,0,0,0,2.7-2.73A2.52,2.52,0,0,0,22,25.18Z"/></svg>