<?xml version="1.0" encoding="UTF-8"?>
<svg version="1.1" viewBox="0 0 48 48" xmlns="http://www.w3.org/2000/svg">
    <style type="text/css">.st0{fill:#FFFFFF;}</style>
    <path class="st0" d="m11.908 6.9753c2.2536 0.21564 2.743 0.14889 4.1518-2.0317 0.9717-1.4134 2.2967-1.7667 3.8868-1.7667 3.0807-2.247e-4 6.0952 0 9.187 0 0.70669 0 1.5017 0.26501 1.9434 0.88337 0.79503 0.9717 1.5901 1.8551 2.5618 2.7384 0.26501 0.26501 0.70669 0.44168 1.1484 0.35335 1.8551-0.53002 3.6732 0.104 4.9468 1.5901 1.2543 1.5608 1.9741 2.6905 1.2367 3.8868-0.17667 0.35335-0.17667 0.79503 0 1.1484 1.325 2.3851 0.61836 4.7702 0 7.1553-1.06 3.7101-1.9434 7.4203-2.9151 11.13-0.53002 2.0317-0.88336 4.1518-2.4734 5.6535-1.06 0.88336-2.1201 1.7667-3.3568 2.4734-2.2084 1.5901-4.5052 3.0918-6.8019 4.5935-0.81628 0.50877-1.5688 0.50877-2.3851 0.08834-2.3851-1.5901-4.8585-3.1801-7.2436-4.8585-0.9717-0.61836-1.8551-1.325-2.7384-2.0317-1.8551-1.5017-2.2084-3.7101-2.8268-5.8302-1.06-4.0635-2.1201-8.0386-3.2684-12.102l-0.53002-2.1201c-0.26501-0.88336-0.17667-1.8551 0.17667-2.7384 0.66264-1.6352 0.90662-1.9239 0.21918-3.8041-0.3406-1.2552 0.97505-2.2854 1.9892-3.1745 0.98322-0.86122 2.2409-1.362 3.0918-1.2367zm21.466 7.5086c-1.7667 0.70669-3.2684 1.2367-4.8585 1.8551-1.2898 0.61467-1.4073 1.2088-0.9717 2.4734l1.325 2.3851c0.4287 0.68488 0.1278 1.2387-0.44168 1.6784-1.1484 0.70669-2.2967 1.5017-3.4451 2.2967-0.70669 0.53002-0.70669 0.9717-0.17667 1.5901 1.4134 1.5017 3.1801 2.6501 5.1235 3.3568 0.35335 0.17667 0.79503 0.17667 1.2367 0 0.70669-0.53002 1.325-1.1484 1.8551-1.8551 0.79503-1.1484 0.35335-2.2967-0.17667-3.3568-0.35335-0.61836-0.17667-1.4134 0.35334-1.9434l3.9751-4.2402c1.1484-1.2367 1.2367-2.0317 0.35335-3.3568s-2.1201-2.8268-3.0918-4.3285c-0.61836-1.06-1.5017-1.5901-2.8268-1.06-0.53002 0.17667-1.06 0.26501-1.5901 0.26501-0.88337 0.08834-1.6784 0-2.5618-0.17667-1.7667-0.44168-3.4451-1.325-5.3002-0.44168-1.6784 0.79503-3.5335 0.9717-5.3002 0.35335-0.99328-0.41851-2.1108-0.39696-2.5618 0.17667-1.325 1.7667-2.7384 3.5335-3.9751 5.3885-0.88336 1.325-0.61835 2.2084 0.44168 3.3568 0.88336 1.06 1.8551 2.0317 2.9151 3.0034 2.1279 1.7064 2.2252 2.0608 1.06 4.4168-0.79503 1.5017 1.2367 3.5552 2.4734 3.9085 0.26501 0 0.53002 0 0.79503-0.08834 1.8551-0.70669 3.5335-1.6117 4.9468-3.0251 0.88336-0.9717 0.9717-1.4134-0.17667-2.2084-1.1484-0.79503-2.0317-1.325-3.0034-1.9434-0.65157-0.46427-0.88336-0.88336-0.61836-1.5017 0.4878-0.89075 1.0045-1.8234 1.4134-2.5618 0.61836-1.325 0.35335-2.1201-1.06-2.6501l-4.5935-1.7667c1.9434-0.53002 3.9751-0.35335 5.9185 0.35335 1.1484 0.44168 1.325 0.53002 1.06 1.7667-0.35335 1.6784-0.61836 3.2685-0.9717 4.9468-0.12132 0.56323 0.17667 1.1484 0.70669 1.325 1.6203 0.41731 3.3264 0.38264 4.6818 0 0.71776-0.25416 0.9717-0.53002 0.88336-1.325-0.35335-1.7667-0.61836-3.5335-0.9717-5.3002-0.08834-0.53002-0.17667-1.06 0.53002-1.2367 2.0317-0.88337 4.4168-1.06 6.6252-0.53002zm-9.2395 14.346c-0.12923-0.05526-0.23175-0.04838-0.36829 0.01315-1.7667 0.79503-3.576 1.6854-5.3427 2.5687-0.53002 0.26501-0.50833 0.73968-0.15498 1.0047 1.5901 1.2367 3.1801 2.4734 4.7702 3.7985 0.44168 0.44168 1.1484 0.44168 1.6784 0 1.5017-1.2367 3.0918-2.4734 4.6818-3.7985 0.61836-0.44168 0.53002-0.79503-0.08834-1.2367-1.9147-0.91004-3.5678-1.6178-5.1761-2.3499z" fill="#fff" stroke-width=".88337"/>
</svg>
