<svg xmlns="http://www.w3.org/2000/svg" viewBox="0 0 48 48"><defs><style>.a,.b{fill:none;stroke:#fff;}.a{stroke-linecap:round;stroke-linejoin:round;}</style></defs><line class="a" x1="12.65" y1="24" x2="35.35" y2="24"/><line class="a" x1="16.83" y1="16.33" x2="31.17" y2="16.33"/><line class="a" x1="19.06" y1="31.67" x2="28.94" y2="31.67"/><path class="b" d="M32.75,5.84H15.25a3,3,0,0,0-2.6,1.51L3.9,22.5a3,3,0,0,0,0,3l8.75,15.15a3,3,0,0,0,2.6,1.51h17.5a3,3,0,0,0,2.6-1.51L44.1,25.5a3,3,0,0,0,0-3L35.35,7.35A3,3,0,0,0,32.75,5.84Z"/></svg>