<?xml version="1.0" encoding="UTF-8"?>
<svg width="48" height="48" version="1.1" viewBox="0 0 12.7 12.7" xmlns="http://www.w3.org/2000/svg">
    <path d="m3.8613 10.878c-0.91622-0.24704-1.6991-0.46213-1.7397-0.47797-0.068701-0.0268-0.073804-0.1543-0.073804-1.8439 0-1.4142-0.011643-1.8191-0.052717-1.8334-0.4738-0.1645-0.53771-0.1989-0.53771-0.28941 0-0.09 0.11518-0.51391 0.4396-1.618l0.15173-0.51638-0.59706-0.89358c-0.32838-0.49147-0.60542-0.92554-0.61564-0.96461-0.010222-0.0391 0.003007-0.0844 0.029398-0.10067 0.026391-0.0163 1.0766-0.23653 2.3338-0.4894s2.3077-0.46798 2.3344-0.47801c0.082095-0.0308 0.14719 0.0527 0.73082 0.93713l0.5647 0.85579 1.4863-1.4838 0.84105 0.23194c1.6941 0.46719 2.3614 0.65692 2.4542 0.69783 0.05219 0.023 0.09489 0.0762 0.09489 0.11828 0 0.0455-0.31601 0.36362-0.7813 0.78644-0.42971 0.39049-0.79045 0.72479-0.80164 0.74289-0.01119 0.0181 0.37994 0.43175 0.86917 0.91924 0.61268 0.6105 0.88512 0.91001 0.87538 0.96237-0.01144 0.0615-0.18889 0.12011-0.93135 0.30741l-0.91722 0.23139v3.691l-0.09489 0.0355c-0.05219 0.0195-0.38905 0.0965-0.74858 0.17098-0.35953 0.0745-1.3231 0.27618-2.1413 0.44816s-1.4919 0.31025-1.4972 0.30727c-0.00528-3e-3 -0.75924-0.20755-1.6755-0.45459zm1.6026-2.2038c0-1.3028-0.01519-2.3508-0.033754-2.3287-0.018565 0.022-0.10576 0.33794-0.19377 0.70204-0.08801 0.3641-0.18361 0.68157-0.21245 0.70549-0.037629 0.0312-0.42652-0.092-1.3772-0.43622l-1.3248-0.47971-0.011033 1.6669c-0.00607 0.9168-0.00247 1.6755 0.00799 1.6859 0.017462 0.0174 3.0413 0.843 3.1134 0.84998 0.017397 2e-3 0.03163-1.0629 0.031629-2.3657zm-1.6734 1.4154c-0.037682-0.016-0.036136-0.0688 0.00639-0.21873 0.030851-0.10874 0.067728-0.26573 0.081949-0.34888l0.025855-0.15118-0.23281-0.0558c-0.12805-0.0307-0.24031-0.048-0.24947-0.0385-0.00916 0.01-0.051754 0.15958-0.094654 0.33344-0.07316 0.2965-0.084543 0.31521-0.18343 0.30146-0.057989-8e-3 -0.11325-0.0222-0.1228-0.0314-0.00955-9e-3 0.021154-0.169 0.06824-0.35509 0.047085-0.18609 0.073736-0.34568 0.059223-0.35465-0.014513-9e-3 -0.10216-0.03-0.19476-0.0467-0.24245-0.0439-0.31598-0.0928-0.31598-0.21051 0-0.12343-0.019136-0.12128 0.29704-0.0334 0.27811 0.0773 0.31681 0.0625 0.34995-0.13369 0.011748-0.0695 0.034168-0.18559 0.049821-0.25788 0.028346-0.1309 0.02747-0.13166-0.2182-0.19134-0.22996-0.0559-0.24753-0.0688-0.25957-0.19112l-0.012908-0.13119 0.16052 0.0543c0.24496 0.0829 0.43439 0.11663 0.43694 0.0778 0.00126-0.0192 0.035962-0.16773 0.077107-0.33 0.068952-0.27194 0.082807-0.29389 0.17694-0.28038 0.056172 8e-3 0.11029 0.0225 0.12026 0.0322 0.00997 0.01-0.013997 0.15477-0.053258 0.32253-0.03926 0.16777-0.071139 0.31852-0.070842 0.33501 4.589e-4 0.0255 0.38901 0.15969 0.46224 0.15969 0.013559 0 0.060722-0.1513 0.10481-0.33623 0.077819-0.32644 0.083329-0.33547 0.18911-0.31019 0.059923 0.0143 0.11407 0.0301 0.12032 0.035 0.012938 0.0102-0.1047 0.53085-0.14173 0.62727-0.017957 0.0468 0.023428 0.0756 0.15846 0.11054 0.10052 0.026 0.21597 0.0569 0.25657 0.0686 0.04784 0.0139 0.073804 0.0633 0.073804 0.14059v0.11919l-0.25929-0.0806c-0.14261-0.0444-0.2667-0.0733-0.27574-0.0642-0.041543 0.0415-0.14791 0.49315-0.12822 0.54442 0.012165 0.0317 0.12842 0.0814 0.25834 0.11044 0.21958 0.0491 0.23622 0.0613 0.23622 0.17359v0.12075l-0.27499-0.0762c-0.17818-0.0494-0.28427-0.0612-0.30135-0.0336-0.0145 0.0234-0.057937 0.168-0.096527 0.32123-0.070035 0.27809-0.13187 0.33775-0.28356 0.27355zm0.25503-1.2264c0.035535-0.1557 0.060807-0.28609 0.05616-0.28975-0.042041-0.0332-0.45555-0.1283-0.46751-0.10756-0.055824 0.0969-0.15189 0.52902-0.12365 0.55627 0.039226 0.0378 0.29447 0.11462 0.40002 0.12032 0.053181 3e-3 0.086138-0.0653 0.13497-0.27928zm1.8952 2.1385c0.097255-0.0227 0.95493-0.20321 1.9059-0.40105 0.95102-0.19783 1.7718-0.36926 1.824-0.38095l0.094891-0.0213v-1.7273c0-0.95002-0.01003-1.7273-0.022289-1.7273-0.023393 0-2.1852 0.53685-2.3007 0.57135-0.045472 0.0136-0.32633-0.26223-0.88163-0.8658-0.44819-0.48714-0.83094-0.88572-0.85055-0.88572-0.041711 0-0.049186 5.4096-0.00753 5.4513 0.035469 0.0355 0.027797 0.0359 0.23788-0.0132zm0.28226-1.1773c0-0.27371 0.00746-0.29874 0.094891-0.31824 0.11813-0.0263 1.8249-0.34973 2.1403-0.40552 0.25676-0.0454 0.61349-0.1192 0.7275-0.15046 0.065224-0.0179 0.073804 0.0143 0.073804 0.27685 0 0.2738-0.00744 0.29871-0.094891 0.31795-0.16492 0.0363-0.69521 0.13832-1.7608 0.33883-0.56829 0.10694-1.0665 0.20416-1.1071 0.21605-0.065355 0.0192-0.073804-0.0124-0.073804-0.27546zm-1.0734-3.4255c0.1472-0.58687 0.2544-1.0791 0.23824-1.0938-0.033718-0.0307-3.1023-0.87825-3.119-0.86152-0.019984 0.02-0.54858 1.8996-0.53771 1.912 0.023167 0.0264 3.1222 1.1376 3.136 1.1244 0.00814-8e-3 0.13524-0.49428 0.28243-1.0811zm4.3542 0.14819 1.9945-0.4948-0.82139-0.8209-0.82139-0.82091-0.414 0.091c-0.2277 0.0501-0.89795 0.19576-1.4894 0.32377-1.6966 0.36717-2.0865 0.45388-2.1026 0.4676-0.00826 7e-3 0.30488 0.35648 0.69587 0.77652 0.39099 0.42005 0.7478 0.81002 0.79292 0.86661 0.045121 0.0566 0.10206 0.10357 0.12652 0.10439 0.024465 8.2e-4 0.94202-0.22117 2.039-0.49331zm-6.3863-2.5841c0.46703-0.0922 1.4262-0.2817 2.1315-0.42105 0.70529-0.13935 1.2912-0.26223 1.3021-0.27308 0.020487-0.0205-0.21694-0.40291-0.721-1.1614-0.16177-0.24341-0.29959-0.44919-0.30626-0.45729-0.011393-0.0138-4.1946 0.81954-4.3098 0.8586-0.034152 0.0116 0.13995 0.30829 0.48116 0.82 0.29407 0.44101 0.54334 0.80184 0.55393 0.80184 0.010586 0 0.40136-0.0754 0.86839-0.16767zm7.1186-0.15898c0.19472-0.17966 0.52072-0.47701 0.72444-0.66077 0.25515-0.23015 0.35322-0.34351 0.31517-0.3643-0.07896-0.0432-2.7852-0.79788-2.861-0.79788-0.065254 0-1.3802 1.2902-1.3463 1.321 0.018441 0.0168 2.7331 0.82164 2.787 0.82633 0.014659 1e-3 0.18597-0.14467 0.38069-0.32433z" fill="#fff" stroke-width=".042161"/>
</svg>
