<?xml version="1.0" encoding="UTF-8"?>
<svg viewBox="0 0 48 48" xmlns="http://www.w3.org/2000/svg">
    <defs>
        <style>.cls-1{fill:#fff;}</style>
    </defs>
    <g data-name="Layer 1">
        <path class="cls-1" d="M24,46A22,22,0,1,1,39.55,8.45l-7.42,7.42a11.51,11.51,0,1,0,0,16.26l7.42,7.42A21.93,21.93,0,0,1,24,46Z"/>
        <polygon class="cls-1" points="30.81 19.06 27.81 19.06 27.81 22.13 24.75 22.13 24.75 25.13 27.81 25.13 27.81 28.19 30.81 28.19 30.81 25.13 33.87 25.13 33.87 22.13 30.81 22.13"/>
        <polygon class="cls-1" points="46 22.13 42.94 22.13 42.94 19.06 39.94 19.06 39.94 22.13 36.87 22.13 36.87 25.13 39.94 25.13 39.94 28.19 42.94 28.19 42.94 25.13 46 25.13"/>
    </g>
</svg>
