<svg id="Layer_2" data-name="Layer 2" xmlns="http://www.w3.org/2000/svg" viewBox="0 0 48 48"><defs><style>.cls-1,.cls-2{fill:none;stroke:#fff;stroke-linecap:round;stroke-linejoin:round;}.cls-2{stroke-width:0.96px;}</style></defs><path class="cls-1" d="M42.75,30.85V7.44c0-1.6-.84-2.88-1.89-2.88H7.14c-1,0-1.89,1.28-1.89,2.88V40.56c0,1.59.84,2.88,1.89,2.88H31.45M32.2,7.58h0a2.51,2.51,0,0,1,2.51,2.51h0a2.52,2.52,0,1,1-2.53-2.51ZM13.29,10.09A2.51,2.51,0,0,1,15.8,7.58h0a2.51,2.51,0,1,1-2.51,2.51Z"/><path class="cls-1" d="M37,28.6a8.46,8.46,0,1,0,8.46,8.46h0A8.45,8.45,0,0,0,37,28.6Z"/><line class="cls-1" x1="34.48" y1="32.83" x2="34.48" y2="41.28"/><line class="cls-1" x1="31.73" y1="35.72" x2="34.48" y2="32.83"/><line class="cls-1" x1="37.22" y1="35.72" x2="34.48" y2="32.83"/><line class="cls-1" x1="39.56" y1="41.28" x2="39.56" y2="32.83"/><line class="cls-1" x1="42.31" y1="38.4" x2="39.56" y2="41.28"/><line class="cls-1" x1="36.82" y1="38.4" x2="39.56" y2="41.28"/><line class="cls-2" x1="27.75" y1="22.22" x2="32.25" y2="19.77"/><line class="cls-2" x1="32.25" y1="19.77" x2="32.25" y2="30.06"/><path class="cls-2" d="M18.37,37.77a4.5,4.5,0,0,0,4.5-4.5h0a4.49,4.49,0,0,0-4.5-4.5h0a4.5,4.5,0,0,0,4.5-4.5h0a4.5,4.5,0,0,0-4.5-4.5"/><path class="cls-2" d="M11.25,36.25c1.24,1,2.58,1.52,5.6,1.52h1.52"/><path class="cls-2" d="M11.25,21.27c1.24-1,2.59-1.51,5.6-1.5h1.52"/></svg>