<?xml version="1.0" encoding="UTF-8"?>
<svg version="1.1" viewBox="0 0 48 48" xmlns="http://www.w3.org/2000/svg">
    <path d="m24 4.9a13.33 13.33 0 0 0 -13.33 13.33 13.33 13.33 0 0 0 0 0.01758 13.33 13.33 0 0 1 6.66 -1.80 13.33 13.33 0 0 1 6.66 1.80 13.33 13.33 0 0 1 6.66 -1.80 13.33 13.33 0 0 1 6.66 1.80 13.33 13.33 0 0 0 -13.33 -13.33z" fill="#fff"/>
    <path d="m10.66 18.25a13.33 13.33 0 0 0 -6.66 11.52 13.33 13.33 0 0 0 13.33 13.33 13.33 13.33 0 0 0 6.66 -1.80 13.33 13.33 0 0 1 -6.66 -11.52 13.33 13.33 0 0 1 0 -0.01367 13.33 13.33 0 0 1 -6.66 -11.52z" fill="#fff"/>
    <path d="m37.33 18.25a13.33 13.33 0 0 1 -6.66 11.52 13.33 13.33 0 0 1 0 0.0059 13.33 13.33 0 0 1 -6.66 11.52 13.33 13.33 0 0 0 6.66 1.8086 13.33 13.33 0 0 0 13.33 -13.33 13.33 13.33 0 0 0 -6.66 -11.52z" fill="#fff"/>
    <path d="m24 18.25a13.33 13.33 0 0 0 -6.66 11.52 13.33 13.33 0 0 0 6.666 1.80 13.33 13.33 0 0 0 6.66 -1.80 13.33 13.33 0 0 0 -6.66 -11.52z" fill="#fff"/>
</svg>
