<svg xmlns="http://www.w3.org/2000/svg" viewBox="0 0 48 48"><defs><style>.a{fill:none;stroke:#fff;stroke-linecap:round;stroke-linejoin:round;}</style></defs><path class="a" d="M15.8,8.58a2.51,2.51,0,1,1-2.51,2.51h0A2.51,2.51,0,0,1,15.8,8.58Zm16.4,0a2.51,2.51,0,0,1,2.51,2.51h0A2.51,2.51,0,0,1,32.2,13.6h0a2.51,2.51,0,1,1,0-5ZM15.38,19.83a8.8,8.8,0,0,1,4.83,1.07,3.55,3.55,0,0,1,1.62,3.19,3.65,3.65,0,0,1-.77,2.39,4.13,4.13,0,0,1-2.27,1.3,4.7,4.7,0,0,1,2.55,1.51A4.2,4.2,0,0,1,22.22,32a4.26,4.26,0,0,1-1.89,3.75,9.79,9.79,0,0,1-5.52,1.28,16.72,16.72,0,0,1-5.1-.82v-3.3a12.47,12.47,0,0,0,2.38.91,9.49,9.49,0,0,0,2.33.3,4.68,4.68,0,0,0,2.6-.59,2,2,0,0,0,0-3.4,5.12,5.12,0,0,0-2.73-.59H12.56V26.81h1.8a4.62,4.62,0,0,0,2.4-.5,1.74,1.74,0,0,0,.78-1.55,1.68,1.68,0,0,0-.76-1.48,3.85,3.85,0,0,0-2.17-.52,10,10,0,0,0-2.09.23,12,12,0,0,0-2.1.69V20.54A19.29,19.29,0,0,1,12.93,20a18.24,18.24,0,0,1,2.45-.18Zm15.06.3h4.07V33.78h3.78v2.95H26.68V33.78h3.79V23l-3.89.8V20.93l3.86-.8Z"/><path class="a" d="M7.45,5.5a2,2,0,0,0-1.95,2v33.1a2,2,0,0,0,2,2h33.1a2,2,0,0,0,2-2V7.45a2,2,0,0,0-2-1.95Z"/></svg>