<svg id="Layer_2" data-name="Layer 2" xmlns="http://www.w3.org/2000/svg" viewBox="0 0 48 48"><defs><style>.cls-1,.cls-2{fill:none;stroke:#fff;stroke-linecap:round;stroke-linejoin:round;}.cls-2{stroke-width:0.96px;}</style></defs><path class="cls-1" d="M15.8,8.58a2.51,2.51,0,1,1-2.51,2.51h0A2.51,2.51,0,0,1,15.8,8.58Zm16.4,0a2.51,2.51,0,0,1,2.51,2.51h0A2.51,2.51,0,0,1,32.2,13.6h0a2.51,2.51,0,1,1,0-5Z"/><path class="cls-1" d="M7.45,5.5a2,2,0,0,0-1.95,2v33.1a2,2,0,0,0,2,2h33.1a2,2,0,0,0,2-2V7.45a2,2,0,0,0-2-1.95Z"/><line class="cls-2" x1="27.75" y1="37.77" x2="36.75" y2="37.77"/><line class="cls-2" x1="27.75" y1="22.22" x2="32.25" y2="19.77"/><line class="cls-2" x1="32.25" y1="19.77" x2="32.25" y2="37.77"/><path class="cls-2" d="M18.37,37.77a4.5,4.5,0,0,0,4.5-4.5h0a4.49,4.49,0,0,0-4.5-4.5h0a4.5,4.5,0,0,0,4.5-4.5h0a4.5,4.5,0,0,0-4.5-4.5"/><path class="cls-2" d="M11.25,36.25c1.24,1,2.58,1.52,5.6,1.52h1.52"/><path class="cls-2" d="M11.25,21.27c1.24-1,2.59-1.51,5.6-1.5h1.52"/></svg>