<?xml version="1.0" encoding="UTF-8"?>
<svg version="1.1" viewBox="0 0 48 48" xmlns="http://www.w3.org/2000/svg">
    <path d="m7 5c-1.108 0-2 0.892-2 2v34c0 1.108 0.892 2 2 2h34c1.108 0 2-0.892 2-2v-34c0-1.108-0.892-2-2-2h-34zm17.893 3.0312h3.9727c1.4258 0 2.4572 0.24006 3.0938 0.71875 0.64164 0.47869 0.96289 1.2448 0.96289 2.2988 0 0.55507-0.11926 1.0297-0.35352 1.4219-0.22916 0.38702-0.56754 0.67291-1.0156 0.86133 0.57034 0.18333 1.0116 0.5217 1.3223 1.0156s0.46681 1.1023 0.4668 1.8203c0 1.1-0.33755 1.9192-1.0098 2.459-0.66709 0.53979-1.684 0.81055-3.0488 0.81055h-4.3906v-11.406zm-10.234 0.0019531h2.7949c1.5583 0 2.7158 0.12353 3.4746 0.37305 0.76385 0.24444 1.4181 0.66119 1.9629 1.252 0.48377 0.51433 0.8439 1.109 1.0781 1.7812 0.23425 0.67219 0.35352 1.4327 0.35352 2.2832 0 0.86061-0.11926 1.6294-0.35352 2.3066-0.23425 0.67219-0.59438 1.265-1.0781 1.7793-0.54997 0.59071-1.2095 1.0102-1.9785 1.2598-0.76895 0.24443-1.9211 0.36914-3.459 0.36914h-2.7949v-11.404zm12.887 1.998v2.416h1.459c0.41757 0 0.73534-0.10294 0.94922-0.30664 0.21897-0.2037 0.32617-0.50319 0.32617-0.90039 0-0.39211-0.1072-0.69084-0.32617-0.89453-0.21388-0.20878-0.53165-0.31445-0.94922-0.31445h-1.459zm-10.234 0.22461v6.959h0.94726c1.0796 0 1.9043-0.30068 2.4746-0.89648 0.57034-0.59581 0.85742-1.4601 0.85742-2.5957 0-1.1305-0.28709-1.9913-0.85742-2.582-0.56525-0.59071-1.3899-0.88477-2.4746-0.88477h-0.94726zm10.234 4.1934v2.9863h1.5508c0.53469 0 0.93444-0.12547 1.1992-0.375 0.2699-0.24953 0.40625-0.62478 0.40625-1.1289 0-0.49395-0.13637-0.86492-0.40625-1.1094-0.2648-0.24954-0.66453-0.37305-1.1992-0.37305h-1.5508zm2.2207 7.3965c0.21543 0.023396 0.38411 0.17933 0.34766 0.52148-0.005594 0.12982-0.056031 0.1765-0.14453 0.30469-0.088501 0.12819-0.34452 0.25402-0.41406 0.43164-0.06958 0.17762 0.007812 0.54883 0.007812 0.54883l2.3398 5.4883c1.5649-0.40073 3.2987-0.13536 4.7305 0.88086 2.5624 1.8187 3.1845 5.3398 1.3906 7.8672-1.7939 2.5274-5.3263 3.1058-7.8887 1.2871-2.5624-1.8187-3.1845-5.3456-1.3906-7.873 0.50872-0.71675 1.1562-1.2776 1.8828-1.6699l-0.013672-0.03125-0.92969-2.084-5.4414 7.7695s-0.20638 0.26557-0.34961 0.34375c-0.14305 0.078072-0.47266 0.10547-0.47266 0.10547l-3.2051-0.11133c-0.12737 0.82761-0.44083 1.6379-0.95703 2.3652-1.1212 1.5796-2.9224 2.3966-4.7402 2.3438-1.0907-0.031698-2.1875-0.37853-3.1484-1.0605-2.5624-1.8187-3.1884-5.3437-1.3945-7.8711 1.7939-2.5274 5.3263-3.098 7.8887-1.2793 0.06047 0.042925 0.11748 0.088032 0.17578 0.13281l0.38477-0.4043 1.6055-1.7637-0.43945-1.2578s-0.74393 0.003647-1.0547-0.2207c-0.17745-0.12811-0.39121-0.29625-0.39062-0.52539 6e-4 -0.22914 0.17444-0.44954 0.43555-0.64453 0.26111-0.195 0.76883-0.27227 1.1309-0.31836 0.79638-0.081038 2.0269 0.088563 2.3477 0.18359 0.32077 0.095028 0.43786 0.2814 0.51367 0.45508s-0.011719 0.45508-0.011719 0.45508l-0.79883 0.16406-0.91992 0.20117 0.35547 0.92578 6.9473-3.4219c-0.08122-0.2688-0.033584-0.56228 0.009766-0.83008 0.034531-0.16669 0.076022-0.34062 0.16406-0.48633 0.24745-0.37898 0.92258-0.82268 1.2227-0.90234 0.076722-0.019449 0.1528-0.027329 0.22461-0.019531zm-1.1621 3.2598c-2.2872 1.1881-4.6084 2.3449-6.8555 3.5957l1.9824 4.7344 0.12891-0.076172 5.127-7.3906-0.38281-0.86328zm-7.9609 4.3281-1.5762 1.8359c0.66101 0.84422 1.0621 1.8431 1.1777 2.875l2.3496-0.044922-1.9512-4.666zm12.715 1.1289c-0.27403 0.001481-0.54748 0.031597-0.81445 0.087891l1.4316 3.3789s0.29261 0.70407-0.28516 0.9707-1.0078-0.57227-1.0078-0.57227l-1.4043-3.2734c-0.44458 0.27229-0.84392 0.63488-1.1641 1.0859-1.2806 1.8042-0.8407 4.3173 0.98242 5.6113 0.68367 0.48524 1.4656 0.73062 2.2422 0.75195 1.2944 0.035561 2.5766-0.55008 3.377-1.6777 1.2806-1.8042 0.84461-4.3134-0.97852-5.6074-0.72392-0.5138-1.5568-0.7603-2.3789-0.75586zm-18.646 0.099609c-1.2899-0.030692-2.566 0.55439-3.3633 1.6777-1.2806 1.8042-0.8407 4.3173 0.98242 5.6113 0.68367 0.48524 1.4617 0.73062 2.2383 0.75195 1.2944 0.035562 2.5785-0.55007 3.3789-1.6777 0.32015-0.45106 0.53394-0.94574 0.64453-1.4551l-3.6523-0.12695s-0.6697 0.052654-0.88281-0.49805c-0.14732-0.38069 0.33594-0.85937 0.33594-0.85937l2.5547-2.6855c-0.68303-0.47851-1.4624-0.71987-2.2363-0.73828zm3.2617 1.7812-1.6484 1.7734 2.3203-0.041016c-0.084394-0.61433-0.31394-1.2085-0.67188-1.7324z" fill="#fff"/>
</svg>
