<svg id="Layer_2" data-name="Layer 2" xmlns="http://www.w3.org/2000/svg" viewBox="0 0 48 48"><defs><style>.cls-1{fill:none;stroke:#fff;stroke-linecap:round;stroke-linejoin:round;}</style></defs><path class="cls-1" d="M19.83,8.77l-2.77,2.84H6.29A1.79,1.79,0,0,0,4.5,13.4V36.62a1.8,1.8,0,0,0,1.79,1.8H41.71a1.8,1.8,0,0,0,1.79-1.8V13.4a1.79,1.79,0,0,0-1.79-1.79H30.94L28.17,8.77Zm18.93,5.74a1.84,1.84,0,1,1,0,3.68A1.84,1.84,0,0,1,38.76,14.51ZM24,17.71a8.51,8.51,0,1,1-8.51,8.51A8.51,8.51,0,0,1,24,17.71Z"/></svg>