<?xml version="1.0" encoding="UTF-8"?>
<svg viewBox="0 0 48 48" xmlns="http://www.w3.org/2000/svg">
    <path d="M24 2A22 22 0 002 24a22 22 0 0022 22 22 22 0 0022-22A22 22 0 0024 2zm-1.918 3.287l.936 1.139-.614.201-1.728-.188 1.406-1.152zm7.098.17l.642 1.967-5.013-.54 4.37-1.427zm-13.655 1.43l20.657 2.222-3.358 31.186-20.654-2.223 3.355-31.185zm-1.373 3.478l-1.295 12.031-3.425-10.488 4.72-1.543zM9.574 15.55l3.026 9.258-.16 1.48-6.419-7.822 3.553-2.916zm26.219 6.449l6.186 7.537-3.065 2.516-3.162-9.674.041-.379zm-.299 2.787l3.426 10.488-4.72 1.543.116-1.086.918-8.535v-.002l.26-2.408zM18.53 39.758l5.014.539-4.371 1.428-.643-1.967zm7.42.799l2.297.246-2.328 1.91-1.389-1.693 1.42-.463z" fill="#fff"/>
</svg>
