<svg id="Layer_2" data-name="Layer 2" xmlns="http://www.w3.org/2000/svg" viewBox="0 0 48 48"><defs><style>.cls-1{fill:none;stroke:#fff;stroke-linecap:round;stroke-linejoin:round;fill-rule:evenodd;}</style></defs><path class="cls-1" d="M43.26,31.87l-1.79,2.42a1.14,1.14,0,0,1-.93.47H38.67a1.15,1.15,0,0,1-1.16-1.15V31.55h-.9v2.88A1.63,1.63,0,0,1,35,36.05H21.08a1.13,1.13,0,0,1-.67-.21l-5.12-3.63H11a1.84,1.84,0,0,1-1.84-1.84h0V27.28H8v3.47a1.74,1.74,0,1,1-3.47,0h0V20.32a1.74,1.74,0,0,1,3.47,0V23.8H9.13V20.73A1.85,1.85,0,0,1,11,18.89h1.44l2.72-2.32a1.17,1.17,0,0,1,.76-.28h6v-.83H17.49a1.74,1.74,0,1,1,0-3.48H29.8a1.74,1.74,0,0,1,0,3.48H25.4v.83h6.13a1.63,1.63,0,0,1,1.63,1.62v2.22H35a1.62,1.62,0,0,1,1.62,1.62h0v1.62h.9V21.19A1.16,1.16,0,0,1,38.67,20h1.85a1.17,1.17,0,0,1,.95.49l1.8,2.54a1.08,1.08,0,0,1,.22.67v7.44A1.17,1.17,0,0,1,43.26,31.87Z"/></svg>