<?xml version="1.0" encoding="UTF-8"?>
<svg width="48" height="48" version="1.0" viewBox="0 0 36 36" xmlns="http://www.w3.org/2000/svg">
    <path d="m22.777 1.998c0.69676 0.69676 0.69676 19.632 0 20.329-0.77874 0.77874-2.7051 0.61479-3.1969-0.2869-0.24592-0.49183-0.40986-4.4265-0.40986-9.8777 0-5.4512 0.16394-9.3858 0.40986-9.8777 0.49183-0.9017 2.4182-1.0656 3.1969-0.2869z" fill="#fff"/>
    <path d="m16.056 7.9c0.53282 0.53282 0.65578 1.8034 0.65578 7.3775 0 3.8937-0.16394 7.1316-0.40986 7.5824-0.49183 0.9017-2.4182 1.0656-3.1969 0.2869-0.69676-0.69676-0.69676-14.714 0-15.411 0.69676-0.69676 2.2133-0.61479 2.951 0.16395z" fill="#fff"/>
    <path d="m8.0634 25.934c0.94268 1.2296 2.2133 2.2133 4.0576 3.1149 2.3362 1.1476 3.1559 1.3525 5.82 1.3525 2.4592 0 3.5248-0.20493 5.3282-1.0656 2.3362-1.1476 4.0166-2.5411 5.1643-4.2626 1.1886-1.8034 3.4838-1.6804 3.9757 0.20493 0.57381 2.1723-4.6314 7.0086-9.1399 8.4841-2.992 0.98367-8.1153 0.98367-10.984 0-5.6971-2.0083-10.943-8.4841-7.7874-9.6727 1.3935-0.49183 2.0493-0.16394 3.5658 1.8444z" fill="#fff"/>
</svg>
