<svg id="Layer_2" data-name="Layer 2" xmlns="http://www.w3.org/2000/svg" viewBox="0 0 48 48"><defs><style>.cls-1{fill:none;stroke:#fff;stroke-linecap:round;stroke-linejoin:round;fill-rule:evenodd;}</style></defs><path class="cls-1" d="M24.48,18.72a17.37,17.37,0,0,0,3.65,2.2,12.76,12.76,0,0,1,4.77,3.65,8.17,8.17,0,0,1,1.51,5,8.46,8.46,0,0,1-3.1,6.72,13.85,13.85,0,0,1-8.39,2.9l-.86,4.35H18.15l1-4.44a18.18,18.18,0,0,1-8.07-2.14V29.69a32.24,32.24,0,0,0,5.3,2,18.39,18.39,0,0,0,4.73.62q4,0,4-2.44a2.45,2.45,0,0,0-.75-1.69,13.45,13.45,0,0,0-3.26-1.94,12.57,12.57,0,0,1-5-3.71,8.54,8.54,0,0,1-1.74-5.28,8.37,8.37,0,0,1,3.08-6.66A14.08,14.08,0,0,1,25.8,7.64l.64-3.14h3.91l-.72,3.18a21.47,21.47,0,0,1,7.31,2.1l-3.19,6.27a17,17,0,0,0-6.86-1.64,4,4,0,0,0-2.44.64,2,2,0,0,0-.86,1.59A2.7,2.7,0,0,0,24.48,18.72Z"/></svg>