<?xml version="1.0" encoding="UTF-8"?>
<svg version="1.1" viewBox="0 0 48 48" xmlns="http://www.w3.org/2000/svg">
    <path d="m24 2a22 22 0 0 0 -22 22 22 22 0 0 0 22 22 22 22 0 0 0 22 -22 22 22 0 0 0 -22 -22zm-2.0449 7.8887a6.725 6.725 0 0 1 6.7266 6.7246 6.725 6.725 0 0 1 -0.14453 1.3418l-0.33594 3.123h3.3262c0.98485 0 1.7773 0.79444 1.7773 1.7793v0.96289c0 0.98485-0.79249 1.7773-1.7773 1.7773h-3.8145c0 7.2217 7.6934 12.514 7.6934 12.514s-15.799 0.19806-19.205-12.514h-3.8145c-0.98485 0 -1.7773-0.79249-1.7773-1.7773v-0.96289c0-0.98485 0.79249-1.7793 1.7773-1.7793h3.3262l-0.33203-3.084a6.725 6.725 0 0 1 -0.14844 -1.3809 6.725 6.725 0 0 1 6.7227 -6.7246z" fill="#fff"/>
</svg>
