<?xml version="1.0" encoding="utf-8"?>
<!-- Generator: Adobe Illustrator 25.1.0, SVG Export Plug-In . SVG Version: 6.00 Build 0)  -->
<svg version="1.1" id="Layer_1" xmlns="http://www.w3.org/2000/svg" xmlns:xlink="http://www.w3.org/1999/xlink" x="0px" y="0px"
	 viewBox="0 0 48 48" style="enable-background:new 0 0 48 48;" xml:space="preserve">
<style type="text/css">
	.st0{fill:none;stroke:#F9F9F9;stroke-linecap:round;stroke-linejoin:round;}
</style>
<g>
	<path class="st0" d="M39.6,12.7v18.7H9C3,30.6,3,13.3,9,12.7L39.6,12.7z"/>
	<path class="st0" d="M10.2,12.7l2-4.6l10.4,4.6h1.1l10.6-4.6l2.1,4.6H10.2z"/>
	<path class="st0" d="M39.6,20.7l3.9,1.2l-5.2,18L9,31.4"/>
	<path class="st0" d="M13.6,20.3l2.8-2.6l2.8,2.6"/>
	<path class="st0" d="M26.3,20.3l2.8-2.6l2.8,2.6"/>
	<path class="st0" d="M19.1,25.1c0.6,2.3,3.6,1.5,3.6-0.9c0,2.4,2.9,3.2,3.5,0.9"/>
</g>
</svg>
