<svg xmlns="http://www.w3.org/2000/svg" viewBox="0 0 48 48"><defs><style>.a{fill:none;stroke:#fff;stroke-linecap:round;stroke-linejoin:round;}</style></defs><path class="a" d="M20.3261,8.1739a15.8261,15.8261,0,0,0,0,31.6522H39.5435A3.9565,3.9565,0,0,0,43.5,35.87h0a3.9565,3.9565,0,0,0-3.9565-3.9566H20.4321q-.0531,0-.106,0a7.9134,7.9134,0,0,1-.106-15.826c.0353,0,.0707,0,.106,0H39.5435A3.9565,3.9565,0,0,0,43.5,12.13h0a3.9565,3.9565,0,0,0-3.9565-3.9565H20.3261Z"/><path class="a" d="M20.3261,20.0435A3.9565,3.9565,0,0,0,16.37,24h0a3.9565,3.9565,0,0,0,3.9565,3.9565H39.5435A3.9565,3.9565,0,0,0,43.5,24h0a3.9565,3.9565,0,0,0-3.9565-3.9565H20.3261Z"/></svg>