<svg xmlns="http://www.w3.org/2000/svg" viewBox="0 0 48 48"><defs><style>.a{fill:none;stroke:#fff;stroke-linecap:round;stroke-linejoin:round;}</style></defs><path class="a" d="M4,12.9V40.37L17.34,35.1l13.32,5.27L44,35.1V7.63L30.66,12.9,17.34,7.63Z"/><line class="a" x1="21.33" y1="30" x2="27.32" y2="30"/><line class="a" x1="21.33" y1="18.02" x2="27.32" y2="18.02"/><line class="a" x1="21.33" y1="24.01" x2="25.24" y2="24.01"/><line class="a" x1="21.33" y1="18.02" x2="21.33" y2="30"/><path class="a" d="M18,22a4,4,0,0,0-4.23-4A4.17,4.17,0,0,0,10,22.25V26a4,4,0,0,0,4,4h0a4,4,0,0,0,4-4H14"/><path class="a" d="M38,22a4,4,0,0,0-4.24-4A4.17,4.17,0,0,0,30,22.25V26a4,4,0,0,0,4,4h0a4,4,0,0,0,4-4V22"/></svg>