<?xml version="1.0" encoding="UTF-8"?>
<svg version="1.1" viewBox="0 0 48 48" xmlns="http://www.w3.org/2000/svg">
    <path d="m46 24c0 12.15-9.85 22-22 22l9.526-16.5c0.9689-1.669 1.469-3.57 1.474-5.5-0.0019-2.555-0.8934-5.03-2.521-7h12.35c0.7669 2.255 1.163 4.619 1.172 7zm-2.979-11h-19.02c-4.591 0.0027-8.697 2.856-10.3 7.158l-6.178-10.7c4.17-4.732 10.17-7.447 16.48-7.455 7.849 0.01109 15.1 4.203 19.02 11zm-17.2 21.84-6.184 10.71c-10.25-2.073-17.63-11.08-17.64-21.54 0.0069-3.856 1.027-7.643 2.959-10.98 2.298 3.98 6.339 10.98 9.515 16.48 1.962 3.402 5.599 5.496 9.526 5.5 0.6116-0.0039 1.222-0.05876 1.824-0.1641z" fill="#fff"/>
    <circle cx="24" cy="24" r="7" fill="#fff" style="paint-order:markers fill stroke"/>
</svg>
