<?xml version="1.0" encoding="UTF-8"?>
<svg version="1.1" viewBox="0 0 48 48" xmlns="http://www.w3.org/2000/svg">
    <path d="m24 2a22 22 0 0 0-22 22 22 22 0 0 0 22 22 22 22 0 0 0 22-22 22 22 0 0 0-22-22zm-6.2656 9.8672c2.6034-2e-6 4.7422 2.1164 4.7422 4.7109s-2.1388 4.7109-4.7422 4.7109-4.7422-2.1164-4.7422-4.7109c-2e-6 -2.5946 2.1388-4.7109 4.7422-4.7109zm10.078 0c2.6034-1e-6 4.7422 2.1164 4.7422 4.7109s-2.1388 4.7109-4.7422 4.7109-4.7422-2.1164-4.7422-4.7109 2.1388-4.7109 4.7422-4.7109zm-10.078 1.8906c-1.5905 2e-6 -2.8516 1.2555-2.8516 2.8203 2e-6 1.5648 1.2611 2.8203 2.8516 2.8203s2.8516-1.2555 2.8516-2.8203-1.2611-2.8203-2.8516-2.8203zm10.078 0c-1.5905 1e-6 -2.8516 1.2555-2.8516 2.8203s1.2611 2.8203 2.8516 2.8203 2.8516-1.2555 2.8516-2.8203-1.2611-2.8203-2.8516-2.8203zm-11.727 8.4336h13.26v4.1367l2.7461-1.668 3.9297-2.3887 0.076172 4.6992 0.074219 4.6113-4.084-2.2656-2.7422-1.5215v3.9199h-9.1934l4.2324-3.9219-6.0879-0.29883-2.2109-5.3027zm-0.20313 1.8711 1.7715 4.2168 4.5605 0.34961-3.4629 2.9883 1.0762 4.4453-3.9121-2.3711-3.8945 2.3984 1.0449-4.4531-3.4824-2.9648 4.5566-0.38086 1.7422-4.2285z" fill="#fff"/>
</svg>
