<?xml version="1.0" encoding="UTF-8"?>
<svg version="1.1" viewBox="0 0 48 48" xmlns="http://www.w3.org/2000/svg">
    <path d="m7 5c-1.108 0-2 0.892-2 2v34c0 1.108 0.892 2 2 2h34c1.108 0 2-0.892 2-2v-34c0-1.108-0.892-2-2-2zm17.122 1.9922h0.73828v4.9316h-0.73828v-0.39453c-0.23262 0.29072-0.58131 0.47851-1.0605 0.47852-0.94447-3e-6 -1.6875-0.7212-1.6875-1.7246 0-1.003 0.74282-1.7266 1.6875-1.7266 0.47924 0 0.82793 0.19324 1.0605 0.48438zm13.545 0.6582h0.74024v0.99219h1.293v0.65039h-1.293v1.4277c0 0.44182 0.23901 0.61328 0.53516 0.61328 0.22886 0 0.48058-0.09935 0.68164-0.22266l0.29102 0.57227c-0.2717 0.17828-0.61236 0.32422-1.0352 0.32422-0.76473 0-1.2129-0.40045-1.2129-1.2734zm-27.807 0.90625c0.50411 0 0.96397 0.17951 1.2637 0.52539l-0.47266 0.48828c-0.23575-0.21548-0.48639-0.33789-0.81055-0.33789-0.56722 0-0.99805 0.4311-0.99805 1.0508-2e-7 0.61968 0.43061 1.0508 0.99805 1.0508 0.32416 0 0.61307-0.14638 0.82813-0.3418l0.45508 0.49219c-0.30681 0.3459-0.75957 0.52344-1.2637 0.52344-1.0751 0-1.7754-0.7421-1.7754-1.7246 3e-7 -0.9823 0.7003-1.7266 1.7754-1.7266zm3.4473 0c1.0433 3e-7 1.8201 0.74364 1.8203 1.7266 0 0.9823-0.77699 1.7246-1.8203 1.7246-1.0435 0-1.8145-0.7421-1.8145-1.7246 0-0.9823 0.77092-1.7266 1.8145-1.7266zm16.031 0c0.22551 0 0.39886 0.02875 0.56836 0.09375l-0.17578 0.70703c-0.15487-0.078801-0.38039-0.11914-0.56055-0.11914-0.46879 0-0.80469 0.32283-0.80469 0.88086v1.8027h-0.73633v-3.2793h0.73047v0.37109c0.22175-0.31161 0.56595-0.45703 0.97852-0.45703zm2.4746 0c0.94468 0 1.5943 0.69877 1.5977 1.7227 0 0.09259-7e-3 0.18524-0.01367 0.26758h-2.4961c0.09906 0.58896 0.52467 0.83594 1.0039 0.83594 0.33858 0 0.69818-0.13176 0.97656-0.34766l0.36719 0.51172c-0.41236 0.34255-0.87788 0.46094-1.3887 0.46094-1.0116 0-1.7285-0.68379-1.7285-1.7246 0-1.027 0.68764-1.7266 1.6816-1.7266zm3.9023 0c0.50411 0 0.96201 0.17949 1.2617 0.52539l-0.47266 0.48828c-0.23575-0.21548-0.48618-0.33789-0.81055-0.33789-0.56743 0-0.99609 0.4311-0.99609 1.0508 1e-6 0.61968 0.42866 1.0508 0.99609 1.0508 0.32437 0 0.61327-0.14638 0.82812-0.3418l0.45508 0.49219c-0.3066 0.3459-0.75782 0.52344-1.2617 0.52344-1.0755 0-1.7773-0.7421-1.7773-1.7246 0-0.9823 0.70183-1.7266 1.7773-1.7266zm-18.324 0.00781c0.43555 0 0.6881 0.16259 0.89062 0.37891 0.24307-0.22154 0.55162-0.37891 0.99219-0.37891 1.0327 0 1.4533 0.68283 1.4531 1.6816v1.6777h-0.75v-1.7793c0-0.50661-0.19191-0.88086-0.70312-0.88086-0.28361 0-0.44619 0.14256-0.58789 0.29492v2.3652h-0.74805v-1.7812c0-0.50661-0.20285-0.87891-0.64844-0.87891-0.3089 0-0.51091 0.14256-0.64258 0.29492v2.3652h-0.75v-3.2852h0.75v0.24023c0.1417-0.14734 0.43064-0.31445 0.74414-0.31445zm8.4824 0.078127h0.74023v3.2793h-0.74023zm5.9258 0.55078c-0.52501 0-0.81678 0.32957-0.89453 0.80859h1.752c-0.080883-0.50995-0.38864-0.80859-0.85742-0.80859zm-18.492 0.039064c-0.60297 0-1.0568 0.43152-1.0566 1.0508 0 0.61989 0.45368 1.0508 1.0566 1.0508 0.60275 0 1.0625-0.43089 1.0625-1.0508 0-0.61947-0.45975-1.0508-1.0625-1.0508zm9.8418 0c-0.63473 0-1.0178 0.47582-1.0176 1.0508 0 0.57496 0.38306 1.0508 1.0176 1.0508 0.60986 0 1.0195-0.45158 1.0195-1.0508 0-0.5992-0.40946-1.0508-1.0195-1.0508zm2.9658 4.7598c3.5767 0.05488 6.9856 1.5264 9.4785 4.0918l-4.2871 4.166c-2.134-2.1965-5.3859-2.8815-8.2246-1.7324-2.8382 1.1491-4.6977 3.9028-4.7031 6.9648-0.0051 3.0615 1.8442 5.8212 4.6777 6.9805 2.8338 1.1601 6.0878 0.48825 8.2305-1.6992l4.2715 4.1797c-3.8429 3.926-9.681 5.133-14.766 3.0527-5.0837-2.0804-8.4011-7.0325-8.3906-12.525 0.01001-5.493 3.3459-10.433 8.4375-12.494 1.6749-0.6777 3.4688-1.0124 5.2754-0.98438z" fill="#fff"/>
</svg>
