<svg xmlns="http://www.w3.org/2000/svg" viewBox="0 0 48 48"><defs><style>.a{fill:none;stroke:#fff;stroke-linecap:round;stroke-linejoin:round;}</style></defs><circle class="a" cx="24" cy="29.2" r="2.45"/><path class="a" d="M34.11,19.1a12.71,12.71,0,0,0-4.61-2.74c-2.11-.84-3.48-1.39-4.12-4a2.76,2.76,0,0,1,1.83.78C29.8,15.87,22.9,4.5,22.9,4.5S21.17,11,19.06,13.37c-1.07,1.21.36.45,2.37-.26,1.12,4.79,4.11,6,6.57,7A9,9,0,0,1,31.26,22,10.26,10.26,0,1,1,13.73,29.2a10.45,10.45,0,0,1,3.09-7.33L13.89,19.1a14.3,14.3,0,1,0,20.22,0Z"/><path class="a" d="M22.23,36.37l1.66-2.91,1.66,2.91Z"/><path class="a" d="M17.76,32.94,21,32.06l-.88,3.23Z"/><path class="a" d="M16.84,27.43l2.9,1.66-2.9,1.67Z"/><path class="a" d="M20.27,23l.88,3.23-3.23-.88Z"/><path class="a" d="M30.24,33.2,27,32.33l.88,3.23Z"/><path class="a" d="M31.16,27.65l-2.9,1.66L31.16,31Z"/><path class="a" d="M27.89,23.07,27,26.3l3.23-.87Z"/><line class="a" x1="31.16" y1="29.31" x2="34.26" y2="29.31"/><line class="a" x1="28.99" y1="34.35" x2="31.18" y2="36.54"/><line class="a" x1="23.89" y1="36.37" x2="23.89" y2="39.47"/><line class="a" x1="18.86" y1="34.19" x2="16.66" y2="36.38"/><line class="a" x1="16.84" y1="29.09" x2="13.74" y2="29.09"/><line class="a" x1="19.01" y1="24.06" x2="16.82" y2="21.87"/><line class="a" x1="29.14" y1="24.22" x2="31.34" y2="22.02"/></svg>