<?xml version="1.0" encoding="utf-8"?>
<!-- Generator: Adobe Illustrator 25.1.0, SVG Export Plug-In . SVG Version: 6.00 Build 0)  -->
<svg version="1.1" id="Layer_1" xmlns="http://www.w3.org/2000/svg" xmlns:xlink="http://www.w3.org/1999/xlink" x="0px" y="0px"
	 viewBox="0 0 48 48" style="enable-background:new 0 0 48 48;" xml:space="preserve">
<style type="text/css">
	.st0{fill:none;stroke:#F9F9F9;stroke-linecap:round;stroke-linejoin:round;stroke-miterlimit:8;stroke-opacity:0.9477;}
</style>
<g>
	<circle class="st0" cx="26.1" cy="24" r="0.5"/>
	<path class="st0" d="M22.8,22.2c0.6-1.2,1.9-2,3.3-2c1.4,0,2.6,0.7,3.4,1.8"/>
	<path class="st0" d="M25.9,16.4c2.7-0.1,5.2,1.2,6.7,3.5"/>
	<path class="st0" d="M33.8,32.4c-3.5,3.2-8.7,3.9-12.9,1.7c-4.2-2.2-6.7-6.8-6.1-11.5c0.6-4.7,4.1-8.6,8.7-9.7
		c4.6-1.1,9.5,0.9,12.1,4.9"/>
	<path class="st0" d="M32.9,10.5c2.4,1.2,4.4,3,5.9,5.2"/>
	<path class="st0" d="M44.5,28.8C42.2,37.5,34.2,43.4,25.2,43c-9-0.4-16.4-7.1-17.8-15.9C6,18.2,10.9,9.5,19.3,6.3
		c8.4-3.2,17.9-0.2,22.8,7.3"/>
	<path class="st0" d="M3.5,21.6c0.5-5,2.7-9.7,6.2-13.4"/>
</g>
</svg>
