<?xml version="1.0" encoding="UTF-8"?>
<svg version="1.1" viewBox="0 0 48 48" xmlns="http://www.w3.org/2000/svg">
    <path d="m7 5c-1.108 0-2 0.892-2 2v34c0 1.108 0.892 2 2 2h34c1.108 0 2-0.892 2-2v-34c0-1.108-0.892-2-2-2h-34zm26 10.25h6c0.5359 2 0.5359 3 0 5h-6c-0.5359-2-0.5359-3 0-5zm-8 6.25h6c0.5359 2 0.5359 3 0 5h-6c-0.5359-2-0.5359-3 0-5zm8 0h6c0.5359 2 0.5359 3 0 5h-6c-0.5359-2-0.5359-3 0-5zm-16 6.25h6c0.5359 2 0.5359 3 0 5h-6c-0.5359-2-0.5359-3 0-5zm8 0h6c0.5359 2 0.5359 3 0 5h-6c-0.5359-2-0.5359-3 0-5zm8 0h6c0.5359 2 0.5359 3 0 5h-6c-0.5359-2-0.5359-3 0-5zm-24 6.25h6c0.5359 2 0.5359 3 0 5h-6c-0.5359-2-0.5359-3 0-5zm8 0h6c0.5359 2 0.5359 3 0 5h-6c-0.5359-2-0.5359-3 0-5zm8 0h6c0.5359 2 0.5359 3 0 5h-6c-0.5359-2-0.5359-3 0-5zm8 0h6c0.5359 2 0.5359 3 0 5h-6c-0.5359-2-0.5359-3 0-5z" fill="#fff"/>
</svg>
