<?xml version="1.0" encoding="UTF-8"?>
<svg version="1.1" viewBox="0 0 48 48" xmlns="http://www.w3.org/2000/svg">
    <path d="m13.466 4.9992c-4.6567 0-8.4659 3.8097-8.4659 8.4675v21.067c0 4.6578 3.8092 8.4675 8.4659 8.4675h21.068c4.6567 0 8.4659-3.8097 8.4659-8.4675v-21.067c0-4.6578-3.8092-8.4675-8.4659-8.4675zm17.877 3.1895h7.5119v7.5136h-7.5119zm3.0324 1.3508v1.6817h-1.6817v1.4487h1.6817v1.6817h1.4487v-1.6817h1.68v-1.4487h-1.68v-1.6817zm-22.638 7.831c0.43687-0.0033 0.93969 0 1.5179 0h10.983c4.6694 0 4.4136-0.21247 4.4136 4.4136v10.983c0 4.5821 0.29979 4.4136-4.4136 4.4136h-10.983c-4.5815 0-4.4136 0.16851-4.4136-4.4136v-10.983c0-4.0478-0.16244-4.3909 2.8957-4.4136zm0.01351 2.4618c-0.31376 0-0.569 0.25686-0.569 0.5707v1.42c0 0.31383 0.25525 0.5707 0.569 0.5707h1.42c0.31376 0 0.5707-0.25686 0.5707-0.5707v-1.42c0-0.31383-0.25693-0.5707-0.5707-0.5707zm3.1709 0c-0.08934 0-0.17105 0.02546-0.24652 0.06247-0.23791 0.06869-0.41704 0.27927-0.41704 0.53862v1.42c0 0.31383 0.25693 0.5707 0.5707 0.5707h1.42c0.0889 0 0.16963-0.02579 0.24482-0.06247 0.23868-0.06821 0.41874-0.27873 0.41874-0.53862v-1.42c0-0.31383-0.25693-0.5707-0.5707-0.5707zm3.1709 0c-0.31376 0-0.5707 0.25686-0.5707 0.5707v1.42c0 0.31383 0.25693 0.5707 0.5707 0.5707h1.42c0.31376 0 0.569-0.25685 0.569-0.5707v-1.42c0-0.31383-0.25525-0.5707-0.569-0.5707zm3.1692 0c-0.31376 0-0.569 0.25686-0.569 0.5707v1.42c0 0.31383 0.25525 0.5707 0.569 0.5707h1.42c0.31376 0 0.5707-0.25685 0.5707-0.5707v-1.42c0-0.31383-0.25693-0.5707-0.5707-0.5707zm3.1709 0c-0.31376 0-0.5707 0.25686-0.5707 0.5707v1.42c0 0.31383 0.25693 0.5707 0.5707 0.5707h1.42c0.31376 0 0.5707-0.25686 0.5707-0.5707v-1.42c0-0.31383-0.25693-0.5707-0.5707-0.5707zm0 3.0645c-0.31376 0-0.5707 0.25686-0.5707 0.5707v1.4183c0 0.31383 0.25693 0.5707 0.5707 0.5707h1.42c0.31376 0 0.5707-0.25686 0.5707-0.5707v-1.4183c0-0.31383-0.25693-0.5707-0.5707-0.5707zm-12.682 0.07429c-0.31376 0-0.569 0.25686-0.569 0.5707v1.42c0 0.31383 0.25525 0.5707 0.569 0.5707h1.42c0.31376 0 0.5707-0.25686 0.5707-0.5707v-1.42c0-0.31383-0.25693-0.5707-0.5707-0.5707zm6.3417 0c-0.31376 0-0.5707 0.25686-0.5707 0.5707v1.42c0 0.31383 0.25693 0.569 0.5707 0.569h1.42c0.31375 0 0.569-0.25517 0.569-0.569v-1.42c0-0.31383-0.25525-0.5707-0.569-0.5707zm3.1101 3.1337c-0.31376 0-0.5707 0.25686-0.5707 0.5707v1.42c0 0.31383 0.25693 0.5707 0.5707 0.5707h1.42c0.31375 0 0.569-0.25686 0.569-0.5707v-1.42c0-0.31383-0.25525-0.5707-0.569-0.5707zm-3.1506 0.0051c-0.31376 0-0.5707 0.25686-0.5707 0.5707v1.4183c0 0.31383 0.25693 0.5707 0.5707 0.5707h1.42c0.31376 0 0.5707-0.25686 0.5707-0.5707v-1.4183c0-0.31383-0.25693-0.5707-0.5707-0.5707zm-6.3013 0.0017c-0.31376 0-0.569 0.25686-0.569 0.5707v1.4183c0 0.31383 0.25525 0.5707 0.569 0.5707h1.42c0.31376 0 0.5707-0.25686 0.5707-0.5707v-1.4183c0-0.31383-0.25693-0.5707-0.5707-0.5707zm3.1506 0.01519c-0.31376 0-0.5707 0.25686-0.5707 0.5707v1.42c0 0.31383 0.25693 0.5707 0.5707 0.5707h1.42c0.31375 0 0.5707-0.25686 0.5707-0.5707v-1.42c0-0.31383-0.25694-0.5707-0.5707-0.5707zm3.1911 3.1219c-0.31376 0-0.5707 0.25686-0.5707 0.5707v1.4183c0 0.31383 0.25693 0.5707 0.5707 0.5707h1.42c0.31375 0 0.569-0.25686 0.569-0.5707v-1.4183c0-0.31383-0.25525-0.5707-0.569-0.5707zm3.0882 0c-0.31376 0-0.5707 0.25686-0.5707 0.5707v1.4183c0 0.31383 0.25693 0.5707 0.5707 0.5707h1.4183c0.31376 0 0.5707-0.25686 0.5707-0.5707v-1.4183c0-0.31383-0.25693-0.5707-0.5707-0.5707zm-9.4298 0.0017c-0.31375 0-0.569 0.25686-0.569 0.5707v1.42c0 0.31383 0.25525 0.569 0.569 0.569h1.42c0.31376 0 0.5707-0.25517 0.5707-0.569v-1.42c0-0.31383-0.25693-0.5707-0.5707-0.5707zm12.66 0.02026c-0.31376 0-0.5707 0.25686-0.5707 0.5707v1.4183c0 0.31383 0.25693 0.5707 0.5707 0.5707h1.42c0.31376 0 0.5707-0.25686 0.5707-0.5707v-1.4183c0-0.31383-0.25693-0.5707-0.5707-0.5707zm-9.5819 0.05065c-0.31376 0-0.5707 0.25685-0.5707 0.5707v1.4183c0 0.31383 0.25693 0.5707 0.5707 0.5707h1.42c0.31376 0 0.569-0.25685 0.569-0.5707v-1.4183c0-0.31383-0.25525-0.5707-0.569-0.5707zm6.4025 3.1607c-0.31376 0-0.5707 0.25686-0.5707 0.5707v1.42c0 0.31383 0.25693 0.5707 0.5707 0.5707h1.42c0.31376 0 0.5707-0.25686 0.5707-0.5707v-1.42c0-0.31383-0.25693-0.5707-0.5707-0.5707zm3.1709 0c-0.31376 0-0.5707 0.25686-0.5707 0.5707v1.42c0 0.31383 0.25693 0.5707 0.5707 0.5707h1.4183c0.31376 0 0.5707-0.25686 0.5707-0.5707v-1.42c0-0.31383-0.25693-0.5707-0.5707-0.5707zm-9.5733 0.03208c-0.31375 0-0.5707 0.25686-0.5707 0.5707v1.4183c0 0.31383 0.25693 0.5707 0.5707 0.5707h1.42c0.31376 0 0.569-0.25686 0.569-0.5707v-1.4183c0-0.31383-0.25525-0.5707-0.569-0.5707z" fill="#fff" stroke-width=".86448"/>
</svg>
