<?xml version="1.0" encoding="UTF-8"?>
<svg version="1.1" viewBox="0 0 48 48" xmlns="http://www.w3.org/2000/svg">
    <path d="M23.934 4.771c-9.594-.024-10.498 8.765-10.426 11.086h20.875c.072-2.321-.833-11.11-10.426-11.086h-.023zM20.32 10.05h.006c1.93-.005 2.11 1.76 2.096 2.226h-4.198c-.014-.466.167-2.231 2.096-2.226zm7.244 0h.006c1.93-.005 2.11 1.76 2.096 2.226h-4.198c-.014-.466.167-2.231 2.096-2.226zm-16.238 6.058c-2.618-.078-4.594.725-4.639 4.172l-3.056 8.989-1.42.396c-2.58 5.137-1.247 7.026 1.312 7.98-1.414-1.47-2.514-3.08.217-6.435l1.942.611.43 3.38-.971 1.798 2.158-1.51.334-3.709-1-1.119 4.693-8.295v-6.258zm25.238 0v6.258l4.694 8.295-1 1.12.334 3.708 2.158 1.51-.97-1.799.429-3.379 1.941-.611c2.732 3.354 1.631 4.966.217 6.436 2.56-.955 3.893-2.844 1.313-7.98l-1.42-.397-3.057-8.989c-.045-3.447-2.02-4.25-4.639-4.172zM12.541 17.15v10.643c0 5.34 6.023 11.117 11.363 11.074.014 0 .028-.004.041-.004.014 0 .028.004.041.004 5.34.043 11.364-5.734 11.364-11.074V17.15H12.54zm11.387 3.92a2.499 2.499 0 01.017 0 2.499 2.499 0 01.018 0 2.499 2.499 0 012.498 2.498 2.499 2.499 0 01-1.69 2.362l1.088 5.279-1.914.521-1.914-.521 1.088-5.28a2.499 2.499 0 01-1.69-2.36 2.499 2.499 0 012.499-2.499zM10.119 32.645c-2.656 0-2.61 11.252.203 11.236l8.645-.05c.756-.005.638-2.788.888-4.247-2.314-1.767-5.056-2.466-7.248-6.94H10.12zm25.164 0c-2.192 4.473-4.933 5.172-7.248 6.939.25 1.46.132 4.242.889 4.246l8.644.05c2.814.017 2.86-11.235.203-11.235h-2.488z" fill="#fff"/>
</svg>
