<?xml version="1.0" encoding="UTF-8"?>
<svg version="1.1" viewBox="0 0 48 48" xmlns="http://www.w3.org/2000/svg">
    <path d="m7 5c-1.108 0-2 0.892-2 2v34c0 1.108 0.892 2 2 2h34c1.108 0 2-0.892 2-2v-34c0-1.108-0.892-2-2-2h-34zm18.182 2.666c0.11455-0.017313 0.22138-0.014908 0.29297 0.0078125 0.46429 0.14736 10.177 9.2221 9.9609 9.3066-0.04912 0.0192-1.7511-0.63247-3.7812-1.4492-2.0302-0.81675-4.0968-1.6331-4.5938-1.8125l-0.9043-0.32617-0.037109 9.5039c-0.03677 9.4275-0.038038 9.5058-0.32422 10.039-0.69815 1.3008-1.9772 2.0859-3.5293 2.168-0.50701 0.02682-1.1163-0.028955-1.4238-0.13086-1.376-0.45594-2.3501-1.394-2.7012-2.6016-0.80788-2.779 2.2003-5.3037 5.1875-4.3535 0.48037 0.15279 0.9177 0.2803 0.97266 0.28125 0.054956 9.41e-4 0.11583-4.5786 0.13477-10.176l0.035156-10.176 0.37109-0.17969c0.10221-0.048986 0.22529-0.084252 0.33984-0.10156zm-4.4512 13.701c0.18982-0.013031 0.29615 0.009053 0.35156 0.064453 0.23602 0.23602-0.006701 0.36613-1.248 0.67188-2.3255 0.57278-4.2442 1.9242-5.5312 3.8945-0.62492 0.95671-1.3203 2.7679-1.3203 3.4395 0 0.1749-0.037171 0.41435-0.082031 0.53125-0.08539 0.22253-0.3942 0.28809-0.50586 0.10742-0.1136-0.18381 0.28345-1.9622 0.625-2.8027 1.1934-2.937 3.73-5.0673 6.8594-5.7598 0.38794-0.085834 0.66175-0.13345 0.85156-0.14648zm0.083984 1.6191c0.10734-0.009278 0.19913-0.008759 0.27148 0.001953 0.082692 0.01224 0.13825 0.038318 0.16406 0.080078 0.13196 0.21352 0.037621 0.26091-0.92773 0.46289-2.7984 0.58551-5.0274 2.8202-5.6758 5.6914-0.14121 0.62529-0.28033 0.95898-0.40234 0.95898-0.10284 0-0.1875-0.098136-0.1875-0.2168 0-0.47353 0.44683-1.9142 0.84961-2.7383 0.48521-0.99277 1.8069-2.4692 2.7559-3.0781 0.89077-0.5716 2.4009-1.0972 3.1523-1.1621zm-6.5293 8.4453c0.085531-0.028776 0.18921 0.11418 0.24609 0.45312 0.52213 3.1115 2.9086 5.6381 5.8887 6.2305 0.53274 0.10589 0.89258 0.24476 0.89258 0.3457 0 0.27711-0.15787 0.29341-1.0742 0.10352-1.9387-0.40176-3.8755-1.7591-4.959-3.4746-0.61054-0.96672-1.0993-2.2915-1.1328-3.0742-0.01512-0.35299 0.053142-0.55521 0.13867-0.58398zm15.258 0.029297c0.040527-0.020731 0.081007-0.008837 0.12305 0.033203 0.22833 0.22833-0.21514 1.9272-0.78711 3.0156-1.1296 2.1497-3.1917 3.6833-5.5254 4.1074-0.37964 0.069-0.72288 0.093527-0.76172 0.054687-0.22545-0.22545 0.033026-0.39976 0.82226-0.55664 2.6811-0.53292 5.1071-2.8506 5.7051-5.4492 0.17965-0.78064 0.30224-1.1429 0.42383-1.2051zm1.6133 0.19726c0.22859 0 0.2471 0.065648 0.16211 0.57227-0.6582 3.9235-3.355 6.9667-6.998 7.8984-1.1735 0.30013-1.6079 0.32818-1.7383 0.11719-0.14489-0.23444 0.076412-0.34439 1.168-0.58203 1.2496-0.27204 2.9038-1.0641 3.8105-1.8242 1.5355-1.2872 2.696-3.1949 3.1074-5.1094 0.19034-0.88575 0.27511-1.0723 0.48828-1.0723zm-18.748 0.003906c0.045728-0.00553 0.11356 0.008715 0.20312 0.021485 0.24769 0.03532 0.31602 0.15549 0.39062 0.67969 0.48868 3.4335 3.4998 6.5883 6.9668 7.3008 1.0563 0.21707 1.3001 0.33977 1.1504 0.58203-0.12877 0.20836-0.66722 0.17048-1.8105-0.12891-1.7627-0.46158-3.4998-1.5955-4.8301-3.1504-0.77705-0.90822-1.7014-2.8545-1.959-4.127-0.19543-0.96544-0.24851-1.1612-0.11133-1.1777z" fill="#fff"/>
</svg>
