<?xml version="1.0" encoding="UTF-8"?>
<svg version="1.1" viewBox="0 0 48 48" xmlns="http://www.w3.org/2000/svg">
    <path d="m7 5c-1.108 0-2 0.892-2 2v34c0 1.108 0.892 2 2 2h34c1.108 0 2-0.892 2-2v-34c0-1.108-0.892-2-2-2h-34zm17.893 3.0312h3.9727c1.4258 0 2.4572 0.24006 3.0938 0.71875 0.64164 0.47869 0.96289 1.2448 0.96289 2.2988 0 0.55507-0.11926 1.0297-0.35352 1.4219-0.22916 0.38702-0.56751 0.67291-1.0156 0.86133 0.57034 0.18333 1.0116 0.52167 1.3223 1.0156s0.46681 1.1023 0.4668 1.8203c0 1.1-0.33758 1.9192-1.0098 2.459-0.66709 0.53979-1.684 0.81055-3.0488 0.81055h-4.3906v-11.406zm-10.234 0.0019531h2.7949c1.5583 0 2.7158 0.12353 3.4746 0.37305 0.76385 0.24444 1.4181 0.66124 1.9629 1.252 0.48377 0.51433 0.84388 1.109 1.0781 1.7812 0.23425 0.67219 0.35352 1.4327 0.35352 2.2832 0 0.86061-0.11926 1.6294-0.35352 2.3066-0.23425 0.67219-0.59435 1.265-1.0781 1.7793-0.54997 0.59071-1.2095 1.0102-1.9785 1.2598-0.76895 0.24443-1.9211 0.36914-3.459 0.36914h-2.7949v-11.404zm12.885 1.998v2.416h1.459c0.41757 0 0.73534-0.10294 0.94922-0.30664 0.21897-0.2037 0.32617-0.50319 0.32617-0.90039 0-0.39211-0.1072-0.69084-0.32617-0.89453-0.21388-0.20878-0.53165-0.31445-0.94922-0.31445h-1.459zm-10.234 0.22461v6.959h0.94726c1.0796 0 1.9043-0.30068 2.4746-0.89648 0.57034-0.59581 0.85742-1.4601 0.85742-2.5957 0-1.1305-0.28709-1.9913-0.85742-2.582-0.56525-0.59071-1.3899-0.88477-2.4746-0.88477h-0.94726zm10.234 4.1934v2.9863h1.5508c0.53469 0 0.93442-0.12547 1.1992-0.375 0.2699-0.24953 0.40625-0.62477 0.40625-1.1289 0-0.49395-0.13637-0.86494-0.40625-1.1094-0.2648-0.24954-0.66451-0.37305-1.1992-0.37305h-1.5508zm-5.2305 8.0176h3.377c3.0553 0 5.5137 3.4397 5.5137 7.7109v2.082c0 0.076488-0.013525 0.14694-0.015625 0.22266h0.015625v1.127c0 0.043779-0.003466 0.083403-0.003906 0.12695l-0.25391 0.18164c-1.0415 0.75242-2.0811 1.379-2.9336 1.8066-0.4262 0.2138-0.8056 0.37709-1.1094 0.48438-0.30376 0.10727-0.5422 0.14964-0.60742 0.14844h-4.6094c-0.078236 0-0.34989-0.05464-0.68164-0.17773-0.33175-0.1231-0.73966-0.3079-1.1797-0.5332-0.87999-0.45058-1.8964-1.0711-2.7656-1.7227l-0.25781-0.19141c-6e-4 -0.041886-0.003906-0.080957-0.003906-0.12305v-1.127h0.017578c-0.00231-0.075774-0.017578-0.14613-0.017578-0.22266v-2.082c0-4.2712 2.4604-7.7109 5.5156-7.7109zm-0.033203 1.7656c-1.9583 0-3.5352 1.1125-3.5352 2.4941v1.1777c0 2.0344 1.7153 3.6719 3.8477 3.6719h2.8301c2.1323 0 3.8477-1.6374 3.8477-3.6719v-1.1777c0-1.3816-1.5769-2.4941-3.5352-2.4941h-3.4551zm-2.3906 8.418 0.91406 1.7324h1.832l-0.91406-1.7324h-1.832zm6.3965 0-0.91211 1.7324h1.832l0.91211-1.7324h-1.832zm4.8613 2.1914h0.001954c-0.26303 2.9282-1.4445 5.127-2.8711 5.127h-8.5547c-1.4258 0-2.6072-2.1972-2.8711-5.123 0.83804 0.60059 1.7484 1.1621 2.5723 1.584 0.46336 0.23725 0.89579 0.43605 1.2734 0.57617 0.37762 0.14011 0.68385 0.22852 0.98828 0.22852h4.5918c0.28377 0.0054 0.56744-0.070821 0.91992-0.19531 0.35248-0.12449 0.75796-0.30305 1.209-0.5293 0.81317-0.40791 1.7699-0.98967 2.7402-1.668z" fill="#fff"/>
</svg>
