<svg id="Layer_2" data-name="Layer 2" xmlns="http://www.w3.org/2000/svg" viewBox="0 0 48 48"><defs><style>.cls-1{fill:none;stroke:#fff;stroke-linecap:round;stroke-linejoin:round;}</style></defs><path class="cls-1" d="M14.59,5.48H33.41a1.34,1.34,0,1,1,0,2.67H14.59a1.34,1.34,0,1,1,0-2.67Z"/><path class="cls-1" d="M12,10.75H36a1.34,1.34,0,1,1,0,2.67H12a1.34,1.34,0,1,1,0-2.67Z"/><path class="cls-1" d="M9.27,16H38.72a1.33,1.33,0,0,1,0,2.67H9.27a1.34,1.34,0,0,1,0-2.67Z"/><path class="cls-1" d="M8.36,21.28H39.64a2.85,2.85,0,0,1,2.86,2.86V39.66a2.86,2.86,0,0,1-2.86,2.86H8.36A2.86,2.86,0,0,1,5.5,39.66V24.14a2.85,2.85,0,0,1,2.86-2.86Z"/></svg>