<?xml version="1.0" encoding="UTF-8"?>
<svg viewBox="0 0 48 48" xmlns="http://www.w3.org/2000/svg">
    <path d="M24 2A22 22 0 002 24a22 22 0 0022 22 22 22 0 0022-22A22 22 0 0024 2zm-6.73 8.75h13.459a.956.956 0 110 1.912h-13.46a.956.956 0 110-1.912zm-1.887 3.77h17.234c.53 0 .955.425.955.955s-.425.955-.955.955H15.383a.952.952 0 01-.955-.955c0-.53.425-.955.955-.955zm-1.918 3.767h21.068a.954.954 0 110 1.91H13.465a.952.952 0 01-.955-.955c0-.53.425-.955.955-.955zm-.652 3.768h22.374c1.134 0 2.045.913 2.045 2.047v11.101a2.042 2.042 0 01-2.044 2.047H12.811a2.042 2.042 0 01-2.044-2.047V24.102c0-1.134.911-2.047 2.044-2.047z" fill="#fff"/>
</svg>
