<?xml version="1.0" encoding="UTF-8"?>
<svg viewBox="0 0 48 48" xmlns="http://www.w3.org/2000/svg">
    <path d="M24.264 4.194a20.308 20.308 0 00-4.434.458C12.09 6.326 5.298 12.534 4.099 21.85a1.51 1.51 0 00-.012.229l-1.904.019 3.36 5.874 3.264-5.938-1.683.017C8.227 14.092 13.91 9.022 20.467 7.605c6.609-1.429 13.98.852 18.445 8.122a1.51 1.51 0 002.077.498 1.51 1.51 0 00.498-2.079c-3.829-6.234-9.743-9.398-15.727-9.885-.498-.041-.997-.063-1.496-.066zm-7.636 7.628v2.53h-1.461a2.206 2.206 0 00-2.211 2.21v16.921c0 1.226.986 2.212 2.21 2.212H32.32a2.206 2.206 0 002.21-2.212v-16.92a2.206 2.206 0 00-2.21-2.211h-1.315v-2.53H28.63v2.53h-9.628v-2.53zm7.115 5.97a3.615 3.615 0 110 7.23 3.615 3.615 0 010-7.23zm18.714 2.237l-3.264 5.938 1.683-.017c-1.103 7.958-6.786 13.028-13.343 14.445-6.609 1.429-13.98-.852-18.445-8.122a1.51 1.51 0 00-2.077-.498 1.51 1.51 0 00-.498 2.079c3.829 6.234 9.743 9.398 15.727 9.885a20.279 20.279 0 005.928-.391c7.74-1.674 14.531-7.882 15.73-17.197a1.51 1.51 0 00.015-.229l1.904-.019zm-18.714 6.308c4.022 0 7.23 1.126 7.23 2.467v3.45H16.513v-3.45c0-1.341 3.208-2.467 7.23-2.467z" fill="#fff"/>
</svg>
