<?xml version="1.0" encoding="UTF-8"?>
<svg version="1.1" viewBox="0 0 48 48" xmlns="http://www.w3.org/2000/svg">
    <path d="m24 2a22 22 0 0 0-22 22 22 22 0 0 0 22 22 22 22 0 0 0 22-22 22 22 0 0 0-22-22zm0 3.8945 10.234 17.117c1.2306 2.0583 2.1406 4.3761 2.1406 6.9551 0 6.8345-5.5405 12.375-12.375 12.375s-12.375-5.5405-12.375-12.375c0-2.5789 0.90998-4.8968 2.1406-6.9551l10.234-17.117zm2.291 11.668s-8.2858 1.1784-11.283 6.1914c-1.1463 1.9171-1.9355 3.9746-1.9355 6.2129 0 6.052 4.8758 10.928 10.928 10.928s7.8364-3.5969 7.7891-5.8242c-0.040467-1.9032-4.0665-2.0502-7.1484-2.2266-3.1957-0.18286-5.5733-1.442-5.6367-5.4883-0.092495-5.9011 7.2871-9.793 7.2871-9.793z" fill="#fff"/>
</svg>
