<?xml version="1.0" encoding="UTF-8"?>
<svg version="1.1" viewBox="0 0 48 48" xmlns="http://www.w3.org/2000/svg">
    <path d="m23.91 2c-1.7697 0.00904-3.5441 0.11081-4.5469 0.30078-3.7039 0.70172-6.56 2.0974-8.9316 4.3633-3.3675 3.2174-5.0589 7.3885-5.3105 13.1-0.27294 6.1952 1.379 11.263 4.8418 14.855 1.6321 1.693 3.8614 3.1432 5.9473 3.8691l0.64648 0.22461 1.9043 2.9199c1.0471 1.6061 2.033 3.1492 2.1914 3.4277 0.60626 1.0658 0.89623 1.1949 1.1973 0.53711 0.1416-0.30941 1.3262-5.4353 1.3262-5.7383 0-0.02949 0.44081-0.053577 0.98047-0.054687 7.4796-0.015271 13.117-2.8861 16.27-8.2832 1.5359-2.6298 2.3393-5.7891 2.4648-9.7031 0.16539-5.1545-0.81388-9.1594-3.0605-12.521-2.5119-3.759-6.328-6.1145-11.4-7.041-0.98442-0.17981-2.7498-0.2649-4.5195-0.25586zm7.918 8.3867a1.8099 1.8099 0 0 1 1.7383 2.502l-6.7441 16.959a1.81 1.81 0 1 1-3.3633-1.3379l6.7441-16.959a1.8099 1.8099 0 0 1 1.625-1.1641zm-12.49 5.3711a2.2302 2.2302 0 0 1 2.2305 2.2305 2.2302 2.2302 0 0 1-2.2305 2.2305 2.2302 2.2302 0 0 1-2.2305-2.2305 2.2302 2.2302 0 0 1 2.2305-2.2305zm0 9.1055a2.2302 2.2302 0 0 1 2.2305 2.2305 2.2302 2.2302 0 0 1-2.2305 2.2285 2.2302 2.2302 0 0 1-2.2305-2.2285 2.2302 2.2302 0 0 1 2.2305-2.2305z" fill="#fff"/>
</svg>
