<?xml version="1.0" encoding="UTF-8"?>
<svg version="1.1" viewBox="0 0 48 48" xmlns="http://www.w3.org/2000/svg">
    <path d="m7 5c-1.11 0-2 0.892-2 2v34c0 1.11 0.892 2 2 2h34c1.11 0 2-0.892 2-2v-34c0-1.11-0.892-2-2-2zm5.5 3.75a3.75 3.75 0 0 1 3.75 3.75 3.75 3.75 0 0 1 -3.75 3.75 3.75 3.75 0 0 1 -3.75 -3.75 3.75 3.75 0 0 1 3.75 -3.75zm23 0a3.75 3.75 0 0 1 3.75 3.75 3.75 3.75 0 0 1 -3.75 3.75 3.75 3.75 0 0 1 -3.75 -3.75 3.75 3.75 0 0 1 3.75 -3.75zm-11.5 11.5a3.75 3.75 0 0 1 3.75 3.75 3.75 3.75 0 0 1 -3.75 3.75 3.75 3.75 0 0 1 -3.75 -3.75 3.75 3.75 0 0 1 3.75 -3.75zm-11.5 11.5a3.75 3.75 0 0 1 3.75 3.75 3.75 3.75 0 0 1 -3.75 3.75 3.75 3.75 0 0 1 -3.75 -3.75 3.75 3.75 0 0 1 3.75 -3.75zm23 0a3.75 3.75 0 0 1 3.75 3.75 3.75 3.75 0 0 1 -3.75 3.75 3.75 3.75 0 0 1 -3.75 -3.75 3.75 3.75 0 0 1 3.75 -3.75z" fill="#fff"/>
</svg>
