<?xml version="1.0" encoding="UTF-8"?>
<svg data-name="Layer 1" viewBox="0 0 48 48" xmlns="http://www.w3.org/2000/svg">
    <defs>
        <style>.cls-1{fill:#fff;}</style>
    </defs>
    <path class="cls-1" d="M24,14.25A9.75,9.75,0,1,0,33.75,24,9.76,9.76,0,0,0,24,14.25Zm6.77,6H28.11a14.17,14.17,0,0,0-1-3.31A7.8,7.8,0,0,1,30.77,20.23Zm1,3.77a7.94,7.94,0,0,1-.21,1.77H28.36c.05-.59.07-1.18.07-1.77s0-1.18-.07-1.77h3.18A7.94,7.94,0,0,1,31.75,24ZM24,31.75c-.59,0-1.56-1.39-2.08-4h4.16C25.56,30.36,24.59,31.75,24,31.75Zm-2.36-6c0-.56-.07-1.15-.07-1.77s0-1.21.07-1.77h4.72c0,.56.07,1.15.07,1.77s0,1.21-.07,1.77ZM16.25,24a7.94,7.94,0,0,1,.21-1.77h3.18c-.05.59-.07,1.18-.07,1.77s0,1.18.07,1.77H16.46A7.94,7.94,0,0,1,16.25,24ZM24,16.25c.59,0,1.56,1.39,2.08,4H21.92C22.44,17.64,23.41,16.25,24,16.25Zm-3.13.67a14.17,14.17,0,0,0-1,3.31H17.23A7.8,7.8,0,0,1,20.87,16.92ZM17.23,27.77h2.66a14.17,14.17,0,0,0,1,3.31A7.8,7.8,0,0,1,17.23,27.77Zm9.9,3.31a14.17,14.17,0,0,0,1-3.31h2.66A7.8,7.8,0,0,1,27.13,31.08Z"/>
    <path class="cls-1" d="M24,2A22,22,0,1,0,46,24,22,22,0,0,0,24,2ZM37.2,28.14a9.7,9.7,0,0,1-.69,3.55,13.32,13.32,0,0,1-1.71,3.12,18.68,18.68,0,0,1-2.44,2.66,26.42,26.42,0,0,1-2.61,2.14q-1.18.86-2.49,1.62c-.87.51-1.48.85-1.85,1l-.87.42a1.28,1.28,0,0,1-1.08,0l-.87-.42c-.37-.18-1-.52-1.85-1s-1.7-1-2.49-1.62a26.42,26.42,0,0,1-2.61-2.14,18.68,18.68,0,0,1-2.44-2.66,13.32,13.32,0,0,1-1.71-3.12,9.7,9.7,0,0,1-.69-3.55V10.8C14.25,10.8,24,9,24,9s9.75,1.76,13.2,1.76Z"/>
</svg>
