<svg id="Layer_2" data-name="Layer 2" xmlns="http://www.w3.org/2000/svg" viewBox="0 0 48 48"><defs><style>.cls-1{fill:none;stroke:#fff;stroke-linecap:round;stroke-linejoin:round;}</style></defs><path class="cls-1" d="M42,25H33.75V5.72A1.21,1.21,0,0,0,32.53,4.5H15.47a1.21,1.21,0,0,0-1.22,1.22V25H6A1.47,1.47,0,0,0,6,27.9h8.29V42.28a1.21,1.21,0,0,0,1.22,1.22H32.53a1.21,1.21,0,0,0,1.22-1.22V27.9H42A1.47,1.47,0,0,0,42,25ZM31.8,40.67a.87.87,0,0,1-.88.88H17.08a.87.87,0,0,1-.88-.88V24.88a.87.87,0,0,1,.88-.88H30.92a.87.87,0,0,1,.88.88Zm-1-20.9H17.22a1,1,0,1,1,0-2H30.78a1,1,0,1,1,0,2Zm0-3.76H17.22a1,1,0,1,1,0-2H30.78a1,1,0,1,1,0,2Zm0-3.76H17.22a1,1,0,0,1,0-2H30.78a1,1,0,0,1,0,2Zm0-3.77H17.22a1,1,0,1,1,0-2H30.78a1,1,0,1,1,0,2Z"/></svg>