<?xml version="1.0" encoding="utf-8"?>
<!-- Generator: Adobe Illustrator 25.1.0, SVG Export Plug-In . SVG Version: 6.00 Build 0)  -->
<svg version="1.1" id="Layer_1" xmlns="http://www.w3.org/2000/svg" xmlns:xlink="http://www.w3.org/1999/xlink" x="0px" y="0px"
	 viewBox="0 0 48 48" style="enable-background:new 0 0 48 48;" xml:space="preserve">
<style type="text/css">
	.st0{fill:none;stroke:#FFFFFF;stroke-linecap:round;stroke-linejoin:round;}
</style>
<path class="st0" d="M43.5,34.4c-4-10.1-7.9-13.5-11.6-16.4c-1.8-1.4-0.5-3.2,2.7-4.1c-2.2-0.3-4.9-0.7-8.3,1.7
	C22.4,13.8,7.6,11.5,6,22l-1.2,1.6c-0.6,1.9,0.1,1.7,1.4,1c1.4-0.8,8-2.5,9.9-1.5c1.5,3.5,3.5,4.1,8.3,4.8c-1.4-0.8-3.4-1.4-3.9-4.4
	c3.1-0.1,10.3,2.3,13.3,5.2c-1-2.4-10.8-10-23.2-7c-0.4-2.3,4.3-5.1,9.8-4.7c5.3,0.4,10.4,1.8,14.1,5.1
	C38.4,25.7,41.4,29.4,43.5,34.4L43.5,34.4z"/>
</svg>
