<?xml version="1.0" encoding="UTF-8"?>
<svg version="1.1" viewBox="0 0 48 48" xmlns="http://www.w3.org/2000/svg">
    <path d="m24 2a22 22 0 0 0 -22 22 22 22 0 0 0 22 22 22 22 0 0 0 22 -22 22 22 0 0 0 -22 -22zm1.8066 5.6719h6.3125v30.553h-6.3125v-1.3828a9.0081 9.0081 0 0 1 -4.7773 1.3828 9.0081 9.0081 0 0 1 -9.0078 -9.0078 9.0081 9.0081 0 0 1 9.0078 -9.0078 9.0081 9.0081 0 0 1 4.7773 1.375v-13.912zm-4.7773 17.793a3.7503 3.7503 0 0 0 -3.748 3.752 3.7503 3.7503 0 0 0 3.748 3.748 3.7503 3.7503 0 0 0 3.752 -3.748 3.7503 3.7503 0 0 0 -3.752 -3.752z" fill="#fff"/>
</svg>
