<?xml version="1.0" encoding="UTF-8"?>
<svg viewBox="0 0 48 48" xmlns="http://www.w3.org/2000/svg">
    <path d="m24 2a22 22 0 0 0-22 22 22 22 0 0 0 22 22 22 22 0 0 0 22-22 22 22 0 0 0-22-22zm-10.049 11.252h20.303c0.31443 0 0.56641 0.25198 0.56641 0.56641v1.1152c0 0.31443-0.25198 0.56836-0.56641 0.56836h-20.303c-0.31443 0-0.56641-0.25393-0.56641-0.56836v-1.1152c-2e-6 -0.31443 0.25198-0.56641 0.56641-0.56641zm1.7012 4.4629h16.809c0.26515 0 0.47852 0.21532 0.47852 0.48047v8.8555c0 0.26515-0.21336 0.47852-0.47852 0.47852h-1.5684c-0.075695 0.055237-0.16862 0.13924-0.22266 0.29297-0.08676 0.24684-1.3264 4.527-1.3516 4.6035-0.01501 0.045664-0.009577 0.10682 0.007813 0.17188h5.0098c0.23322 0 0.41992 0.18865 0.41992 0.42188v1.3086c0 0.23322-0.1867 0.41992-0.41992 0.41992h-20.736c-0.23322 0-0.41992-0.1867-0.41992-0.41992v-1.3086c0-0.23322 0.1867-0.42188 0.41992-0.42188h4.8906c-0.050638-0.17745-1.0032-3.5173-1.0312-3.6016-0.028738-0.086513 0.01399-0.34556 0.09375-0.34766h2.5645c0.24226 0.027339 0.34887 0.16253 0.38672 0.27148 0.10019 0.27648 1.4275 3.6671 1.4316 3.6777h3.7871c0.034711-0.01675 0.096306-0.053112 0.13477-0.13867 0.05128-0.11408 1.5637-4.4355 1.6055-4.5781 0.03875-0.13226 0.07797-0.22801 0.02539-0.35156h-11.836c-0.26515 0-0.47852-0.21336-0.47852-0.47852v-8.8555c0-0.26515 0.21336-0.48047 0.47852-0.48047zm3.1621 2.1895c-0.096458 0-0.17383 0.077368-0.17383 0.17383v5.0039c0 0.096458 0.077368 0.17383 0.17383 0.17383h10.5c0.096451 0 0.17578-0.077368 0.17578-0.17383v-5.0039c0-0.096458-0.079321-0.17383-0.17578-0.17383h-10.5z" fill="#fff"/>
</svg>
