<?xml version="1.0" encoding="UTF-8"?>
<svg viewBox="0 0 48 48" xmlns="http://www.w3.org/2000/svg">
    <path d="M24 2.72A21.28 21.28 0 0 0 2.722 24.002 21.28 21.28 0 0 0 24 45.28 21.28 21.28 0 0 0 45.28 23.998 21.28 21.28 0 0 0 23.998 2.72zm-9.196 13.43a2.908 2.908 0 0 1 2.908 2.91 2.908 2.908 0 0 1-2.908 2.905 2.908 2.908 0 0 1-2.907-2.906 2.908 2.908 0 0 1 2.907-2.912zm9.196 0a2.908 2.908 0 0 1 2.908 2.91A2.908 2.908 0 0 1 24 21.964a2.908 2.908 0 0 1-2.907-2.906A2.908 2.908 0 0 1 24 16.147zm9.196 0a2.908 2.908 0 0 1 2.907 2.91 2.908 2.908 0 0 1-2.907 2.905 2.908 2.908 0 0 1-2.908-2.906 2.908 2.908 0 0 1 2.908-2.912zm-18.392 9.884a2.908 2.908 0 0 1 2.908 2.906 2.908 2.908 0 0 1-2.908 2.91 2.908 2.908 0 0 1-2.907-2.91 2.908 2.908 0 0 1 2.907-2.905zm9.196 0a2.908 2.908 0 0 1 2.908 2.906A2.908 2.908 0 0 1 24 31.85a2.908 2.908 0 0 1-2.907-2.91A2.908 2.908 0 0 1 24 26.036zm9.196 0a2.908 2.908 0 0 1 2.907 2.906 2.908 2.908 0 0 1-2.907 2.91 2.908 2.908 0 0 1-2.908-2.91 2.908 2.908 0 0 1 2.908-2.905z" fill="#fff"/>
</svg>
