<?xml version="1.0" encoding="UTF-8"?>
<svg version="1.1" viewBox="0 0 48 48" xmlns="http://www.w3.org/2000/svg" xmlns:xlink="http://www.w3.org/1999/xlink">
    <path d="m6 8c-1.108 0-2 0.892-2 2v28c0 1.108 0.892 2 2 2h36c1.108 0 2-0.892 2-2v-28c0-1.108-0.892-2-2-2h-36zm3.7227 2.5273h2.0352c0.95411 0 1.7227 0.76854 1.7227 1.7227v2.0371c0 0.95411-0.76854 1.7207-1.7227 1.7207h-2.0352c-0.95411 0-1.7227-0.76659-1.7227-1.7207v-2.0371c0-0.95411 0.76855-1.7227 1.7227-1.7227zm26.52 0h2.0352c0.95411 0 1.7227 0.76854 1.7227 1.7227v2.0371c0 0.95411-0.76854 1.7207-1.7227 1.7207h-2.0352c-0.95411 0-1.7227-0.76659-1.7227-1.7207v-2.0371c0-0.95411 0.76854-1.7227 1.7227-1.7227zm-26.52 7.1543h2.0352c0.95411 0 1.7227 0.76854 1.7227 1.7227v2.0371c0 0.95411-0.76854 1.7227-1.7227 1.7227h-2.0352c-0.95411 0-1.7227-0.76854-1.7227-1.7227v-2.0371c0-0.95411 0.76855-1.7227 1.7227-1.7227zm26.52 0h2.0352c0.95411 0 1.7227 0.76854 1.7227 1.7227v2.0371c0 0.95411-0.76854 1.7227-1.7227 1.7227h-2.0352c-0.95411 0-1.7227-0.76854-1.7227-1.7227v-2.0371c0-0.95411 0.76854-1.7227 1.7227-1.7227zm-26.52 7.1543h2.0352c0.95411 0 1.7227 0.76854 1.7227 1.7227v2.0352c0 0.95411-0.76854 1.7246-1.7227 1.7246h-2.0352c-0.95411 0-1.7227-0.7705-1.7227-1.7246v-2.0352c0-0.95411 0.76855-1.7227 1.7227-1.7227zm26.52 0h2.0352c0.95411 0 1.7227 0.76854 1.7227 1.7227v2.0352c0 0.95411-0.76854 1.7246-1.7227 1.7246h-2.0352c-0.95411 0-1.7227-0.7705-1.7227-1.7246v-2.0352c0-0.95411 0.76854-1.7227 1.7227-1.7227zm-26.52 7.1562h2.0352c0.95411 0 1.7227 0.76659 1.7227 1.7207v2.0352c0 0.95411-0.76854 1.7246-1.7227 1.7246h-2.0352c-0.95411 0-1.7227-0.7705-1.7227-1.7246v-2.0352c0-0.95411 0.76855-1.7207 1.7227-1.7207zm26.52 0h2.0352c0.95411 0 1.7227 0.76659 1.7227 1.7207v2.0352c0 0.95411-0.76854 1.7246-1.7227 1.7246h-2.0352c-0.95411 0-1.7227-0.7705-1.7227-1.7246v-2.0352c0-0.95411 0.76854-1.7207 1.7227-1.7207z" fill="#fff"/>
</svg>
