<?xml version="1.0" encoding="UTF-8"?>
<svg viewBox="0 0 48 48" xmlns="http://www.w3.org/2000/svg">
    <path d="M16.329 4.339a.18.18 0 00-.128.05l-.69.672a.176.176 0 00-.004.249l2.042 2.1c-1.76 1.48-2.56 1.973-3.719 2.057H7.226a3.64 3.64 0 00-3.647 3.647v19.618a3.638 3.638 0 003.647 3.645h24.349v-3.125H6.984v-20.66H37.91v11.262h3.404v-10.74a3.64 3.64 0 00-3.647-3.647h-6.865c-1.146-.083-1.946-.57-3.663-2.01l2.088-2.147a.176.176 0 00-.003-.25l-.694-.672a.176.176 0 00-.249.004l-2.21 2.271c-1.221-.798-2.438-.985-3.756-1.008-1.295.023-2.492.204-3.694.968L16.45 4.392a.17.17 0 00-.121-.053zm3.75 4.397a.76.76 0 01.76.76.76.76 0 01-.76.758.76.76 0 01-.763-.759.76.76 0 01.763-.76zm4.45 0a.76.76 0 01.76.76.76.76 0 01-.76.758.76.76 0 01-.76-.759.76.76 0 01.76-.76zm-2.213 7.076a7.11 7.11 0 00-6.98 7.108 7.11 7.11 0 007.111 7.111 7.11 7.11 0 007.111-7.11 7.11 7.11 0 00-7.11-7.108 7.11 7.11 0 00-.132 0zm-2.078 4.532L24.7 22.92l-4.462 2.58zm14.53 3.958a2.444 2.444 0 00-2.45 2.45v14.46a2.444 2.444 0 002.45 2.45h7.204a2.444 2.444 0 002.449-2.45v-14.46a2.444 2.444 0 00-2.45-2.45zm-.53 2.732h8.381v11.988h-8.38zm1.622 1.805a.695.695 0 00-.697.697c0 .387.31.697.697.697h5.586a.697.697 0 100-1.394zm0 2.533a.697.697 0 00-.697.7c0 .387.31.698.697.698h3.868c.387 0 .697-.31.697-.697 0-.387-.31-.7-.697-.7zm5.608.94a.717.717 0 00-.445.2l-3.187 3.096-1.376-1.774a.717.717 0 00-1.008-.128.717.717 0 00-.124 1.006l2.359 3.04 4.335-4.21a.717.717 0 00.015-1.015.717.717 0 00-.57-.215zm-4 8.02h1.803a.9.9 0 01.902.902.9.9 0 01-.902.903h-1.802a.9.9 0 01-.903-.903.9.9 0 01.903-.902z" fill="#fff"/>
</svg>
