<?xml version="1.0" encoding="UTF-8"?>
<svg version="1.1" viewBox="0 0 48 48" xmlns="http://www.w3.org/2000/svg">
    <path d="m15.98 5.0999c-1.8727 0-3.3074 0.82453-4.2552 2.467l-8.0236 13.963c-0.93917 1.645-0.93055 3.3061 0.00263 4.9339l8.0207 13.965c0.94784 1.6437 2.3826 2.4716 4.2552 2.4716h16.028c1.874 0 3.3087-0.82795 4.2509-2.4716l8.0337-13.965c0.93757-1.6277 0.94786-3.2889 7e-3 -4.9339l-8.0407-13.963c-0.94219-1.6425-2.3769-2.467-4.2509-2.467zm8.5727 13.533c1.0026 0 2.3358 0.19044 3.1734 0.30338v1.6787c-0.79335-0.08512-2.1299-0.27901-3.2605-0.27901-0.60946 0-1.8282 0.05902-1.8282 1.0647 0 2.2261 5.5621 0.15955 5.5621 4.5333 0 2.6077-2.2798 3.4322-4.3859 3.4322-1.2826 0-2.616-0.19245-3.7556-0.38441v-1.786c0.9458 0.16623 2.0205 0.38489 3.1486 0.38489 0.73656 0 2.4338-3.5e-5 2.4338-1.2914 0-2.3294-5.4338-0.19207-5.4338-4.4298 0-2.8402 2.8451-3.2265 4.3462-3.2265zm-15.252 0.16471h4.023c2.6747 0 5.4195 0.99097 5.4195 5.2141 0 4.4483-4.0162 5.1917-5.1167 5.1917h-4.3259zm20.765 0h4.1732c1.4618 0 4.1397 0.16421 4.1397 2.6549 0 1.0578-0.58175 1.9007-1.8374 2.0653v0.35692c1.0161 0.16265 2.1598 0.82296 2.1598 2.4704 0 1.483-0.68888 2.3072-2.1786 2.6658-0.56008 0.13697-1.2102 0.19244-2.0048 0.19244h-4.452zm-18.341 1.7047v6.9965h1.2318c2.0098 0 3.2812-1.1006 3.2812-3.5684 0-2.777-1.9215-3.4281-3.1515-3.4281zm20.769 0v2.5773h1.2287c1.8295 0 2.325-0.32878 2.325-1.2478 0-1.0023-0.60431-1.302-2.1767-1.3295zm0 4.2212v2.7753h1.7826c1.8332 0 2.0067-0.60281 2.0067-1.3454 0-1.0187-0.41045-1.4023-2.8425-1.4298z" fill="#fff"/>
</svg>
