<svg id="Layer_2" data-name="Layer 2" xmlns="http://www.w3.org/2000/svg" viewBox="0 0 48 48"><defs><style>.cls-1{fill:none;stroke:#fff;stroke-linejoin:round;}</style></defs><path class="cls-1" d="M42.5,23.36V7.5a2,2,0,0,0-2-2H7.5a2,2,0,0,0-2,2V25.87m11.61-1.36a17,17,0,0,1-3-2.83A8.25,8.25,0,0,1,6.74,26a9.91,9.91,0,0,1-1.24-.09V40.5a2,2,0,0,0,2,2h33a2,2,0,0,0,2-2V23.36A9.57,9.57,0,0,1,35.56,26m-.88-14.38a1.07,1.07,0,0,1,.88,1.13V30.21h0c0,1.68-1.64,3.33-4,3.95-2.68.72-5.3-.2-5.84-2h0c-.55-1.84,1.17-3.92,3.85-4.63h0a6.49,6.49,0,0,1,3.47,0V14.25L19.58,16.74V33.25h0c0,1.68-1.64,3.34-4,4-2.68.71-5.3-.2-5.84-2.05s1.17-3.91,3.85-4.63h0a6.59,6.59,0,0,1,3.47,0V15.63a1,1,0,0,1,.8-1.07l16.53-3ZM33.1,22.71v2.54A11.63,11.63,0,0,1,29,21.68,8.28,8.28,0,0,1,21.54,26a5.8,5.8,0,0,1-1.95-.4"/></svg>