<?xml version="1.0" encoding="UTF-8"?>
<svg version="1.1" viewBox="0 0 48 48" xmlns="http://www.w3.org/2000/svg">
    <path d="m16.953 2c-1.2266 0.015814-2.0442 0.84868-2.6543 2.6719-0.55613 1.662-0.76915 3.4442-0.8418 7.084-0.02663 1.3342-0.073234 2.5596-0.10352 2.7227-0.15855 0.85376-0.4513 1.434-0.83789 1.6582-0.18602 0.10789-0.2723 0.12221-0.62109 0.10352-0.72142-0.03868-1.6015-0.41192-3.9023-1.6523-2.7933-1.5059-4.0241-1.9858-4.6973-1.834-0.40127 0.0905-0.76679 0.60957-0.9668 1.375-0.15194 0.58146-0.20426 1.3035-0.17383 2.3418 0.080713 2.7543 0.92789 5.1092 2.707 7.5215 1.442 1.9552 3.2184 3.5915 6.1758 5.6875 2.5382 1.7989 2.6945 1.9316 2.8184 2.3828 0.56926 2.0728 0.74635 2.5855 1.25 3.6406 0.95531 2.0013 2.1247 3.4016 3.7168 4.4492 1.3705 0.9018 3.0711 1.4549 4.9062 1.5977 0.80797 0.06294 1.2846 0.063933 1.9375 0.001953 3.2149-0.30487 5.7919-2.1813 7.8691-5.7285 0.4254-0.72643 1.0226-1.9738 1.5117-3.1621 0.22552-0.54787 0.44393-1.0505 0.48633-1.1152 0.0424-0.06471 0.29033-0.24409 0.55078-0.40039 2.061-1.2369 4.0766-2.8513 5.4824-4.3906 0.77004-0.83125 1.4157-1.7784 2.002-2.748 1.521-2.5 2.2908-4.8853 2.2871-7.0938-0.0016-0.8938-0.081882-1.125-0.44336-1.2891-0.55708-0.25284-1.0111-0.10304-3.5176 1.1582-2.4695 1.2426-3.1945 1.5494-3.4453 1.4531-0.26231-0.10066-0.25052-1.2714 0.041015-3.9844 0.35877-3.3386 0.49392-5.5844 0.40039-6.6504-0.078361-0.89318-0.40565-1.782-0.81445-2.2051-0.28822-0.29829-0.49393-0.35289-1.0371-0.27734-0.53362 0.07422-0.97911 0.24209-1.6934 0.63867-1.2615 0.70044-1.9591 0.97586-2.9922 1.1836-1.7379 0.34948-4.2103 0.2676-6.0117-0.20117-1.8412-0.47913-3.1415-1.2102-5.4043-3.0371-1.6366-1.3213-2.4537-1.7499-3.5898-1.8809-0.13585-0.015661-0.26764-0.02312-0.39453-0.021484zm3.8633 8.9961c0.26763 0.0047 0.53493 0.045283 0.79688 0.12305 1.2596 0.37393 2.2518 1.5183 2.6621 3.0703 0.12173 0.46046 0.14062 0.64019 0.14062 1.3398s-0.01891 0.87939-0.14062 1.3398c-0.43935 1.662-1.5381 2.8397-2.9219 3.1328-1.0287 0.2179-2.0089-0.085036-2.8477-0.88281-0.60042-0.57111-0.97091-1.2035-1.2539-2.1348-0.13721-0.45151-0.14844-0.55206-0.14844-1.4551s0.011227-1.0036 0.14844-1.4551c0.29428-0.96838 0.66714-1.5889 1.3242-2.1973 0.63592-0.58877 1.4374-0.895 2.2402-0.88086zm12.688 0.8457c0.19476 0.0049 0.39261 0.036393 0.58789 0.095703 0.75349 0.22886 1.318 0.74721 1.7402 1.5977 0.39885 0.80342 0.55211 1.7754 0.42969 2.7227-0.19946 1.5434-0.93874 2.7306-2.0371 3.2734-0.37721 0.18643-0.44725 0.20239-0.95117 0.2168-0.44041 0.01258-0.59981-0.00517-0.83984-0.09375-0.3904-0.14404-0.81394-0.44111-1.1133-0.7793-0.2987-0.33747-0.73003-1.2145-0.86328-1.7559-0.12039-0.48908-0.13314-1.6874-0.023437-2.1836 0.41492-1.8768 1.707-3.1279 3.0703-3.0938zm-12.75 1.123a1.9793 2.5549 0 0 0-0.73438 0.18359 0.98768 0.98768 0 0 1 0.1875 0.57617 0.98768 0.98768 0 0 1-0.98828 0.98633 0.98768 0.98768 0 0 1-0.32617-0.054688 1.9793 2.5549 0 0 0-0.11914 0.86328 1.9793 2.5549 0 0 0 1.9805 2.5566 1.9793 2.5549 0 0 0 1.9785-2.5566 1.9793 2.5549 0 0 0-1.9785-2.5547zm12.541 0.59961a1.6797 2.242 6.3159 0 0-0.71484 0.19531 0.87092 0.99429 0 0 1 0.35156 0.79688 0.87092 0.99429 0 0 1-0.87109 0.99414 0.87092 0.99429 0 0 1-0.51953-0.19922 1.6797 2.242 6.3159 0 0-0.042969 0.26367 1.6797 2.242 6.3159 0 0 1.4219 2.4141 1.6797 2.242 6.3159 0 0 1.916-2.0449 1.6797 2.242 6.3159 0 0-1.4219-2.4121 1.6797 2.242 6.3159 0 0-0.11914-0.007813zm-5.0664 4.2207c0.58544 0.0018 1.0428 0.21269 1.4922 0.66211 0.36471 0.36472 0.70689 0.99258 0.82812 1.5215 0.10572 0.46123 0.078546 1.2135-0.058594 1.6523-0.22576 0.72242-0.70016 1.5055-1.1387 1.8809-0.13541 0.1159-0.28029 0.19246-0.36328 0.19141-0.0772-0.0011-0.28266-0.10685-0.46289-0.24023-0.17789-0.13165-0.40795-0.29844-0.51172-0.36914-0.31076-0.21173-1.4439-1.377-1.8066-1.8594-0.18615-0.24749-0.40727-0.58632-0.49219-0.75391-0.50494-0.9965 0.27145-2.2196 1.625-2.5605 0.33102-0.08338 0.62256-0.1258 0.88867-0.125zm3.4297 22.633c-0.07117-0.0013-0.14535 0.001965-0.22266 0.009765-0.70314 0.07158-1.4151 0.62751-1.8027 1.4082-0.16311 0.32853-0.18761 0.42876-0.18945 0.79297-0.0018 0.37732 0.010544 0.42838 0.13672 0.55469 0.07659 0.07666 0.23544 0.17347 0.35156 0.21484 0.46337 0.1651 1.5991 0.050684 2.123-0.21484 0.31058-0.15738 0.66648-0.53778 0.75586-0.80859 0.09407-0.28503 0.039792-0.91496-0.10938-1.2617-0.19592-0.45544-0.54476-0.68646-1.043-0.69531zm-7.9531 2.5293c-1.0233-0.01564-1.8401 0.38494-2.1953 1.0859-0.42993 0.84843-0.037836 1.6263 0.95312 1.8926 0.76532 0.20566 2.0605-0.036244 2.6719-0.5 0.37914-0.28759 0.51944-0.58598 0.49609-1.0566-0.04515-0.91004-0.55854-1.3331-1.7168-1.4121-0.06998-0.0048-0.14076-0.008765-0.20898-0.009765z" fill="#fff"/>
</svg>
