<svg xmlns="http://www.w3.org/2000/svg" viewBox="0 0 48 48"><defs><style>.a{fill:none;stroke:#fff;stroke-linecap:round;stroke-linejoin:round;}</style></defs><path class="a" d="M4.5,18.13h5.87A5.87,5.87,0,0,1,16.24,24v0a0,0,0,0,1,0,0H4.5a0,0,0,0,1,0,0V18.13A0,0,0,0,1,4.5,18.13Z"/><path class="a" d="M4.5,24H16.24a0,0,0,0,1,0,0v0a5.87,5.87,0,0,1-5.87,5.87H4.5a0,0,0,0,1,0,0V24A0,0,0,0,1,4.5,24Z"/><rect class="a" x="21.06" y="21.06" width="11.74" height="5.87" transform="translate(50.94 -2.94) rotate(90)"/><path class="a" d="M15.19,21.06H26.94a0,0,0,0,1,0,0v0a5.87,5.87,0,0,1-5.87,5.87H15.19a0,0,0,0,1,0,0V21.06A0,0,0,0,1,15.19,21.06Z" transform="translate(45.06 2.94) rotate(90)"/><path class="a" d="M37.63,18.13h0A5.87,5.87,0,0,1,43.5,24v0a0,0,0,0,1,0,0H31.76a0,0,0,0,1,0,0v0a5.87,5.87,0,0,1,5.87-5.87Z"/><path class="a" d="M37.63,24h0a5.87,5.87,0,0,1,5.87,5.87v0a0,0,0,0,1,0,0H31.76a0,0,0,0,1,0,0v0A5.87,5.87,0,0,1,37.63,24Z" transform="translate(75.26 53.87) rotate(180)"/></svg>