<?xml version="1.0" encoding="UTF-8"?>
<svg viewBox="0 0 48 48" xmlns="http://www.w3.org/2000/svg">
    <defs>
        <style>.cls-1{fill:#fff;fill-rule:evenodd;}</style>
    </defs>
    <g data-name="Layer 1">
        <path class="cls-1" d="M24,2A22,22,0,1,0,46,24,22,22,0,0,0,24,2ZM10.88,39.7s0,.07-.35-.76c2.59-1.88,14.54-8,15.7-20.13,0-5.29-2-9.1-6.17-9.1-3.16,0-5,.79-6.15,4.25.29.75.82.45,2.11.18,2.32,0,4.19,1.49,4.19,3.33S18.34,20.79,16,20.79a4.5,4.5,0,0,1-3.55-1.56h0C9.14,13.77,15,8.29,20,8.29c8.22-.18,12,5.11,12,11C31.93,26.69,23,34.22,10.88,39.7ZM35.41,24.27a2.06,2.06,0,1,1,2.06-2.06A2.06,2.06,0,0,1,35.41,24.27Zm0-8.7a2.06,2.06,0,1,1,2.06-2.06A2.06,2.06,0,0,1,35.41,15.57Z"/>
    </g>
</svg>
