<?xml version="1.0" encoding="UTF-8"?>
<svg version="1.1" viewBox="0 0 48 48" xmlns="http://www.w3.org/2000/svg">
    <path d="M24.976 5.01c-.633-.068-1.223.224-1.588.597-.365.372-.58.809-.733 1.228-.106.288-.17.56-.22.817-2.099-.005-3.893-.214-5.488-.384-1.05-.112-2.027-.218-2.955-.211-.928.007-1.808.128-2.661.468-2.626 1.045-4.61 3.142-4.683 6.13-.033 1.355.868 2.107 1.552 2.737.267.247.506.432.73.606-.576 1.514-.797 3.143-.974 4.116-.728 3.992-.47 8.531 1.332 12.4 1.45 3.11 4.206 5.702 7.368 7.005 2.928 1.207 6.042 1.499 9.09.782l.22 1.244c.053.3.34.5.641.446l1.634-.3a.552.552 0 00.444-.637l-.296-1.662c2.39-1.104 4.496-2.928 5.881-5.142 1.951-3.117 3.474-7.113 2.875-10.981-.055-.357-.129-.715-.215-1.07.353-.085.75-.192 1.178-.342.573-.2 1.178-.46 1.73-.842.554-.383 1.101-.917 1.307-1.71.368-1.419.22-3.003-.229-4.495-.448-1.49-1.199-2.896-2.284-3.879-2.871-2.6-6.944-3.96-10.872-4.29a4.99 4.99 0 00-.308-.765c-.397-.782-1.188-1.73-2.476-1.866zm-.175 1.646c.548.058.88.425 1.136.903-.48-.001-.96 0-1.426.03-.123.008-.23.005-.35.011.02-.07.023-.126.048-.194.102-.278.247-.525.362-.642.114-.117.124-.12.23-.108zM14.037 9.283c.755-.005 1.64.069 2.675.179 2.071.22 4.692.54 7.943.33 4.25-.276 9.463 1.026 12.497 3.775.657.596 1.294 1.693 1.65 2.877.356 1.184.43 2.45.207 3.306-.016.063-.123.242-.424.45-.301.208-.752.416-1.207.575-.425.15-.83.251-1.157.326-.827-1.926-2.105-3.681-3.76-4.946-2.642-2.017-6.48-2.602-9.56-2.452-1.773.086-3.572.305-5.157.42-1.585.115-2.965.097-3.735-.134-1.152-.344-2.28-.212-3.122.309-.336.207-.611.467-.858.747-.115-.095-.214-.165-.334-.275-.53-.49-.838-1.168-.84-1.06.051-2.118 1.173-3.292 3.292-4.136.512-.204 1.136-.286 1.89-.291zm10.008 6.611c2.488.058 5.382.72 7.077 2.015 1.992 1.521 3.45 4.166 3.842 6.698.473 3.055-.798 6.651-2.564 9.473-1.344 2.147-3.635 3.953-6.036 4.756-2.963.99-5.96.842-8.868-.358-2.61-1.076-5.02-3.347-6.208-5.896-1.553-3.332-1.817-7.467-1.16-11.072.22-1.21.475-2.967 1.015-4.148.27-.59.593-.996.903-1.187.31-.192.635-.28 1.33-.072 1.33.398 2.864.34 4.527.22 1.664-.12 3.443-.335 5.106-.416.334-.016.68-.02 1.036-.013z" fill="#fff"/>
</svg>
