<?xml version="1.0" encoding="utf-8"?>
<!-- Generator: Adobe Illustrator 25.1.0, SVG Export Plug-In . SVG Version: 6.00 Build 0)  -->
<svg version="1.1"
	 id="svg8" inkscape:version="1.0.1 (3bc2e813f5, 2020-09-07, custom)" xmlns:cc="http://creativecommons.org/ns#" xmlns:dc="http://purl.org/dc/elements/1.1/" xmlns:inkscape="http://www.inkscape.org/namespaces/inkscape" xmlns:rdf="http://www.w3.org/1999/02/22-rdf-syntax-ns#" xmlns:sodipodi="http://sodipodi.sourceforge.net/DTD/sodipodi-0.dtd" xmlns:svg="http://www.w3.org/2000/svg"
	 xmlns="http://www.w3.org/2000/svg" xmlns:xlink="http://www.w3.org/1999/xlink" x="0px" y="0px" viewBox="0 0 48 48"
	 style="enable-background:new 0 0 48 48;" xml:space="preserve">
<style type="text/css">
	.st0{fill:none;stroke:#FFFFFF;}
</style>
<sodipodi:namedview  bordercolor="#666666" borderopacity="1" gridtolerance="10" guidetolerance="10" id="namedview10" inkscape:current-layer="svg8" inkscape:cx="23.197549" inkscape:cy="24.348385" inkscape:pageopacity="0" inkscape:pageshadow="2" inkscape:window-height="1060" inkscape:window-maximized="0" inkscape:window-width="1918" inkscape:window-x="0" inkscape:window-y="18" inkscape:zoom="16" objecttolerance="10" pagecolor="#ffffff" showgrid="false">
	</sodipodi:namedview>
<path id="rect153" sodipodi:nodetypes="ccccccccccsccsccsccsccccccccccccccccccc" class="st0" d="M26.3,13.3l0,9.4 M26.3,25.6l0,7.4
	l-2.1-0.9L22.1,33l0-7.4 M22.1,22.7l0-9.4 M32.1,10.4c6.4,0,10.7,3.4,10.7,7.6c0,2.4-1.4,4.4-3.7,5.8 M39.1,23.8
	c3.6,1.3,5.8,3.7,5.8,6.4c0,4.2-5.7,7.7-13.3,7.7 M32.1,25.6c5.2,0,9.8,2.1,9.8,4.7s-5,4.7-10.2,4.7 M32.1,13.3
	c4.3,0,7.6,2.1,7.6,4.7s-3.3,4.7-7.6,4.7 M31.7,37.9H5.9V35h25.7 M32.1,25.6l-5.7,0 M21.9,25.6H7.6v-2.9h14.5 M26.3,22.7l5.8,0
	 M32.1,13.3l-5.8,0 M22.1,13.3l-15.5,0v-2.9h25.5"/>
</svg>
