<?xml version="1.0" encoding="UTF-8"?>
<svg version="1.1" viewBox="0 0 48 48" xmlns="http://www.w3.org/2000/svg">
    <path d="m10 4c-1.108 0-2 0.892-2 2v36c0 1.108 0.892 2 2 2h28c1.108 0 2-0.892 2-2v-36c0-1.108-0.892-2-2-2h-28zm2.6211 3.6348h22.758c0.75427 0 1.3613 0.60709 1.3613 1.3613 0 0.75427-0.60709 1.3613-1.3613 1.3613h-22.758c-0.75427 0-1.3613-0.60709-1.3613-1.3613 0-0.75427 0.60709-1.3613 1.3613-1.3613zm0 6.002h22.758c0.75427 0 1.3613 0.60709 1.3613 1.3613s-0.60709 1.3613-1.3613 1.3613h-22.758c-0.75427 0-1.3613-0.60709-1.3613-1.3613s0.60709-1.3613 1.3613-1.3613zm0 6h22.758c0.75427 0 1.3613 0.60904 1.3613 1.3633 0 0.75426-0.60709 1.3613-1.3613 1.3613h-22.758c-0.75427 0-1.3613-0.60709-1.3613-1.3613 0-0.75427 0.60709-1.3633 1.3613-1.3633zm0 6.002h22.758c0.75427 0 1.3613 0.60709 1.3613 1.3613 0 0.75424-0.60709 1.3633-1.3613 1.3633h-22.758c-0.75427 0-1.3613-0.60904-1.3613-1.3633 0-0.75424 0.60709-1.3613 1.3613-1.3613zm0 6.002h22.758c0.75427 0 1.3613 0.60709 1.3613 1.3613 0 0.75427-0.60709 1.3613-1.3613 1.3613h-22.758c-0.75427 0-1.3613-0.60709-1.3613-1.3613 0-0.75426 0.60709-1.3613 1.3613-1.3613zm0 6.002h22.758c0.75427 0 1.3613 0.60709 1.3613 1.3613s-0.60709 1.3613-1.3613 1.3613h-22.758c-0.75427 0-1.3613-0.60709-1.3613-1.3613s0.60709-1.3613 1.3613-1.3613z" fill="#fff"/>
</svg>
