<?xml version="1.0" encoding="UTF-8"?>
<svg viewBox="0 0 48 48" xmlns="http://www.w3.org/2000/svg">
    <defs>
        <style>.cls-1{fill:#fff;fill-rule:evenodd;}</style>
    </defs>
    <g data-name="Layer 1">
        <path class="cls-1" d="M18,5.08A2.59,2.59,0,0,1,20.56,2.5a17.2,17.2,0,0,1,17.2,17.2,2.58,2.58,0,0,1-5.16,0,12,12,0,0,0-12-12A2.59,2.59,0,0,1,18,5.08Z"/>
        <path class="cls-1" d="M30,42.92a2.59,2.59,0,0,1-2.58,2.58,17.2,17.2,0,0,1-17.2-17.2,2.58,2.58,0,1,1,5.16,0,12,12,0,0,0,12,12A2.59,2.59,0,0,1,30,42.92Z"/>
        <path class="cls-1" d="M5.08,30A2.59,2.59,0,0,1,2.5,27.44a17.2,17.2,0,0,1,17.2-17.2,2.58,2.58,0,1,1,0,5.16,12,12,0,0,0-12,12A2.59,2.59,0,0,1,5.08,30Z"/>
        <path class="cls-1" d="M42.92,18a2.59,2.59,0,0,1,2.58,2.58,17.2,17.2,0,0,1-17.2,17.2,2.58,2.58,0,0,1,0-5.16,12,12,0,0,0,12-12A2.59,2.59,0,0,1,42.92,18Z"/>
    </g>
</svg>
