<svg xmlns="http://www.w3.org/2000/svg" viewBox="0 0 48 48"><defs><style>.a{fill:none;stroke:#fff;stroke-linecap:round;stroke-linejoin:round;}</style></defs><path class="a" d="M17.66,28.69a2.37,2.37,0,0,0-2.36,2.37h0a2.36,2.36,0,0,0,2.36,2.36h0A2.36,2.36,0,0,0,20,31.06h0A2.36,2.36,0,0,0,17.66,28.69Z"/><path class="a" d="M28.46,28.69h0a2.37,2.37,0,0,0-2.36,2.37h0a2.37,2.37,0,0,0,4.73,0h0A2.37,2.37,0,0,0,28.46,28.69Z"/><path class="a" d="M37.65,10.07H20.41l2.1-3.64a1.68,1.68,0,0,0-.61-2.3l0,0a1.67,1.67,0,0,0-2.29.61l-3.09,5.35h-1.3L13.06,6.43a1.67,1.67,0,0,0-1.34-.84h0a1.71,1.71,0,0,0-1,.22l0,0a1.67,1.67,0,0,0-.61,2.29l1.12,1.94h-.88A5.84,5.84,0,0,0,4.5,15.92v19.5a5.85,5.85,0,0,0,5.73,5.85H37.65a5.84,5.84,0,0,0,5.85-5.85V15.92A5.84,5.84,0,0,0,37.65,10.07Zm-27.42,27V30.72a12.84,12.84,0,0,1,2.44-7.49l-1.8-1.77a2.09,2.09,0,0,1,0-3h0a2,2,0,0,1,1.47-.6,2.17,2.17,0,0,1,1.51.63l1.78,1.77a12.77,12.77,0,0,1,14.92,0l1.79-1.78a2.1,2.1,0,0,1,3,0h0a2.09,2.09,0,0,1,0,3l-1.8,1.77a12.76,12.76,0,0,1,2.43,7.49v6.35H10.23Z"/></svg>