<svg id="Layer_2" data-name="Layer 2" xmlns="http://www.w3.org/2000/svg" viewBox="0 0 48 48"><defs><style>.cls-1{fill:none;stroke:#fff;stroke-linecap:round;stroke-linejoin:round;}</style></defs><path class="cls-1" d="M14.25,41.87H4.5V38.62h9.75Zm14.63-3.25H19.12v3.25h9.76Zm14.62,0H33.75v3.25H43.5Zm-29.25-6.5H4.5v3.25h9.75Zm14.63,0H19.12v3.25h9.76Zm14.62,0H33.75v3.25H43.5Zm0-6.5H33.75v3.25H43.5Zm-29.25,0H4.5v3.25h9.75Zm14.63,0H19.12v3.25h9.76Zm-14.63-6.5H4.5v3.25h9.75Zm14.63,0H19.12v3.25h9.76Zm0-6.5H19.12v3.25h9.76Zm0-6.5H19.12V9.37h9.76Z"/></svg>