<svg id="Layer_2" data-name="Layer 2" xmlns="http://www.w3.org/2000/svg" viewBox="0 0 48 48"><defs><style>.cls-1{fill:none;stroke:#fff;stroke-linecap:round;stroke-linejoin:round;}</style></defs><path class="cls-1" d="M36.73,23.45a12.47,12.47,0,0,1,1.73.12A16.73,16.73,0,0,1,40.3,24v2.13a8.67,8.67,0,0,0-1.65-.56,5.83,5.83,0,0,0-1.5-.2,2.94,2.94,0,0,0-1.4.26.85.85,0,0,0-.44.8.81.81,0,0,0,.29.65,3.11,3.11,0,0,0,1.07.38l1.13.25a4.8,4.8,0,0,1,2.41,1.07,2.64,2.64,0,0,1,.79,2,3,3,0,0,1-1.07,2.52,4.68,4.68,0,0,1-3,.81A9,9,0,0,1,35,33.84a11.3,11.3,0,0,1-2-.54V31.08a10.65,10.65,0,0,0,1.88.78,6.52,6.52,0,0,0,1.76.26A2.63,2.63,0,0,0,38,31.83a1,1,0,0,0,.14-1.55,3.29,3.29,0,0,0-1.24-.47l-1.06-.22a4.43,4.43,0,0,1-2.23-1.07,2.65,2.65,0,0,1-.71-1.93,2.85,2.85,0,0,1,1-2.34,4.22,4.22,0,0,1,2.89-.79Zm-13.07.17h7.09v2H26.3v1.89h4.19v2H26.3v2.36h4.6v2H23.66Z"/><path class="cls-1" d="M41.68,13H24.77c-2-.1-5.93-4.23-8.19-4.23H6.68A2.18,2.18,0,0,0,4.5,11h0v7.29h39V14.87A1.83,1.83,0,0,0,41.68,13Z"/><path class="cls-1" d="M43.5,18.28H4.5V37A2.18,2.18,0,0,0,6.67,39.2H41.32A2.18,2.18,0,0,0,43.5,37h0Z"/></svg>