<?xml version="1.0" encoding="UTF-8"?>
<svg version="1.1" viewBox="0 0 48 48" xmlns="http://www.w3.org/2000/svg">
 <path fill="#fff" d="m7 4.5c-1.11 0-1.8 1.39-1.8 2.5v34c0 1.11 0.695 2.5 1.8 2.5h34c1.11 0 1.8-1.39 1.8-2.5v-34c0-1.11-0.7-2.5-1.8-2.5zm9 3.5c1.38-0 2.5 1.12 2.5 2.5 0 1.38-1.12 2.5-2.5 2.5-1.38 0-2.5-1.12-2.5-2.5-0-1.38 1.12-2.5 2.5-2.5zm16 0c1.38-0 2.5 1.12 2.5 2.5 0 1.38-1.12 2.5-2.5 2.5-1.38 0-2.5-1.12-2.5-2.5-0-1.38 1.12-2.5 2.5-2.5zm-16.8 11.4c2.13 0 3.73 0.388 4.79 1.16 1.05 0.766 1.6 1.92 1.6 3.47 0 1.05-0.252 1.92-0.758 2.6-0.506 0.669-1.26 1.14-2.25 1.41 1.11 0.314 2 0.863 2.52 1.64 0.58 0.774 0.871 1.76 0.871 3 0 1.79-0.624 3.15-1.87 4.09-1.25 0.927-3.07 1.39-5.46 1.39-0.844 0-1.69-0.0773-2.54-0.23-0.844-0.145-1.68-0.366-2.51-0.664v-3.59c0.792 0.435 1.58 0.766 2.36 1 0.785 0.218 1.55 0.326 2.31 0.326 1.12 0 2-0.213 2.57-0.641 0.602-0.427 0.902-1.05 0.902-1.84 0-0.822-0.308-1.44-0.924-1.86-0.609-0.427-1.51-0.641-2.71-0.641h-1.7v-3h1.78c1.05 0 1.86-0.18 2.38-0.543 0.521-0.371 0.781-0.932 0.781-1.68 0-0.693-0.254-1.23-0.76-1.61-0.506-0.379-1.22-0.568-2.14-0.568-0.682-0-1.37 0.0846-2.07 0.254-0.695 0.169-1.39 0.419-2.08 0.75v-3.41c0.836-0.258 1.67-0.451 2.49-0.58 0.822-0.129 1.63-0.195 2.42-0.195zm16.4 0c2.16 0 3.82 0.815 5 2.44 1.17 1.62 1.76 3.93 1.76 6.93 0 3-0.586 5.3-1.76 6.93-1.17 1.62-2.84 2.43-5 2.43s-3.83-0.811-5.01-2.43c-1.17-1.63-1.76-3.94-1.76-6.93 0-3 0.588-5.31 1.76-6.93 1.17-1.63 2.84-2.44 5.01-2.44zm0 3.18c-0.91-0-1.56 0.464-2 1.39-0.389 0.919-0.582 2.51-0.582 4.76 0 2.28 0.193 3.89 0.582 4.83 0.389 0.935 1.05 1.4 2 1.4 0.902 0 1.55-0.467 2-1.4 0.389-0.935 0.584-2.54 0.584-4.83 0-2.26-0.195-3.84-0.584-4.76-0.382-0.927-1.05-1.39-2-1.39z"/>
</svg>
