<?xml version="1.0" encoding="UTF-8"?>
<svg version="1.1" viewBox="0 0 48 48" xmlns="http://www.w3.org/2000/svg">
    <path d="m24 2a22 22 0 0 0-22 22 22 22 0 0 0 22 22 22 22 0 0 0 22-22 22 22 0 0 0-22-22zm0 7.1934a12.184 12.184 0 0 1 12.184 12.184c0 7.088-5.7641 12.621-12.184 19.871-6.1468-6.9417-11.688-12.309-12.148-18.975a12.184 12.184 0 0 1-0.007812-0.070313c-0.0174-0.27318-0.027344-0.54839-0.027344-0.82617a12.184 12.184 0 0 1 12.184-12.184zm0 6.3281a5.8567 5.8567 0 0 0-5.8574 5.8555 5.8567 5.8567 0 0 0 5.8574 5.8574 5.8567 5.8567 0 0 0 5.8574-5.8574 5.8567 5.8567 0 0 0-5.8574-5.8555z" fill="#fff"/>
</svg>
