<?xml version="1.0" encoding="UTF-8"?>
<svg viewBox="0 0 48 48" xmlns="http://www.w3.org/2000/svg">
    <defs>
        <style>.cls-1{fill:#fff;}</style>
    </defs>
    <g data-name="Layer 1">
        <path class="cls-1" d="M24,4A11.79,11.79,0,0,0,12.21,15.79c0,9.22,9,20.34,11.36,23.07a.72.72,0,0,0,1.09,0C27,36.12,35.79,25,35.79,15.79A11.79,11.79,0,0,0,24,4Zm0,15a4,4,0,1,1,4-4A4,4,0,0,1,24,19Z"/>
        <path class="cls-1" d="M30.39,34.26l-1.34,1.85c4.11.63,6.31,2,6.31,2.73,0,1-4,3.1-11.36,3.1s-11.36-2-11.36-3.1c0-.8,2.29-2.15,6.57-2.77-.45-.59-.9-1.21-1.38-1.86-4.11.76-7.25,2.32-7.25,4.63C10.58,42.23,17.33,44,24,44s13.42-1.77,13.42-5.16C37.42,36.57,34.39,35,30.39,34.26Z"/>
    </g>
</svg>
