<svg xmlns="http://www.w3.org/2000/svg" viewBox="0 0 48 48"><defs><style>.a{fill:none;stroke:#fff;stroke-linecap:round;stroke-linejoin:round;}</style></defs><path class="a" d="M9.78,24.93a2.88,2.88,0,0,0-2.69,2.68l.1,11.85a2.9,2.9,0,0,0,2.69,2.69H38.12a2.88,2.88,0,0,0,2.69-2.69L40.7,27.61A2.89,2.89,0,0,0,38,24.93Z"/><path class="a" d="M41.73,5.85a1.73,1.73,0,0,0-1.25.52L38.3,8.54H9.7L7.52,6.37a1.75,1.75,0,0,0-2.5,0,1.77,1.77,0,0,0,0,2.5l2.17,2.18V19a2.89,2.89,0,0,0,2.69,2.69H38.12A2.89,2.89,0,0,0,40.81,19V11.05L43,8.87a1.77,1.77,0,0,0,0-2.5,1.73,1.73,0,0,0-1.25-.52Zm-24.81,6c4.72,0,4.72,7.07,0,7.07S12.21,11.84,16.92,11.84Zm14.15,0c4.72,0,4.72,7.07,0,7.07S26.36,11.84,31.07,11.84Z"/></svg>