<?xml version="1.0" encoding="UTF-8"?>
<svg version="1.1" viewBox="0 0 48 48" xmlns="http://www.w3.org/2000/svg">
    <path d="m8.1331 23.032c-1.507 0-3.0115 1.506-3 3l0.11693 15.218c0.011479 1.494 1.493 3 3 3h31.5c1.507 0 3.0115-1.506 3-3l-0.11693-15.218c-0.01148-1.494-1.493-3-3-3z" fill="#fff"/>
    <path d="m43.777 3.75c-0.5236 2.643e-4 -1.0256 0.20896-1.395 0.58l-2.43 2.42h-31.905l-2.43-2.42c-0.76933-0.77311-2.0207-0.77311-2.79 0-0.772 0.76979-0.772 2.0202 0 2.79l2.423 2.43v8.8279c0 1.494 1.493 3 3 3h31.5c1.507 0 3-1.506 3-3v-8.8279l2.423-2.428c0.772-0.76979 0.772-2.0202 0-2.79-0.36899-0.37196-0.87107-0.58143-1.395-0.582zm-27.67 6.6872c5.26 0 5.26 7.89 0 7.89s-5.26-7.89 0-7.89zm15.785 0c5.26 0 5.26 7.89 0 7.89s-5.26-7.89 0-7.89z" fill="#fff"/>
</svg>
