<?xml version="1.0" encoding="UTF-8"?>
<svg data-name="Layer 1" viewBox="0 0 48 48" xmlns="http://www.w3.org/2000/svg">
    <defs>
        <style>.cls-1{fill:#fff;}</style>
    </defs>
    <path class="cls-1" d="M24,2A22,22,0,1,0,46,24,22,22,0,0,0,24,2Zm1.39,6A12.35,12.35,0,0,1,38,18.16L36.6,18a3.06,3.06,0,0,0-5.81-.81.49.49,0,0,1-.47.28l-2.67-.23a.47.47,0,0,1-.42-.38,4.19,4.19,0,0,0-8.27.45A4.14,4.14,0,0,0,20,20.51a.48.48,0,0,1,0,.56l-4,6.9A12.34,12.34,0,0,1,25.39,8Zm.33,24.7a12.34,12.34,0,0,1-6.66-2,.48.48,0,0,0-.67.16l-.32.57a.47.47,0,0,0,.06.56,4.76,4.76,0,1,1-4.46-1.45,4.94,4.94,0,0,1,2.4.13.48.48,0,0,0,.56-.21l.48-.83h0l1.15-2a.46.46,0,0,1,.43-.24L22,27.5a1.1,1.1,0,0,1,.87.58,3.07,3.07,0,1,0,.1-2.82,1,1,0,0,1-.9.52l-2.29-.07a.24.24,0,0,1-.21-.36L21.52,22a.49.49,0,0,1,.56-.21,4.44,4.44,0,0,0,1.05.13A4.17,4.17,0,0,0,27,19.31a.51.51,0,0,1,.49-.31l2.6.22c.4,0,.55.17.61.35a3.06,3.06,0,0,0,5.67.19l1.77.15h0A12.4,12.4,0,0,1,25.72,32.71Z"/>
</svg>
