<svg id="Layer_2" data-name="Layer 2" xmlns="http://www.w3.org/2000/svg" viewBox="0 0 48 48"><defs><style>.cls-1{fill:none;stroke:#fff;stroke-linecap:round;stroke-linejoin:round;}</style></defs><path class="cls-1" d="M25.69,4.49A15.07,15.07,0,0,1,41.08,16.88l-1.71-.19a3.74,3.74,0,0,0-7.09-1,.6.6,0,0,1-.57.34l-3.26-.28a.57.57,0,0,1-.51-.46,5.11,5.11,0,1,0-8.82,4.45.57.57,0,0,1,0,.68l-4.88,8.42A15.05,15.05,0,0,1,25.69,4.49Zm.41,30.13A15.13,15.13,0,0,1,18,32.18a.56.56,0,0,0-.8.18h0l-.39.7a.57.57,0,0,0,.07.68A5.8,5.8,0,1,1,11.4,32a6.06,6.06,0,0,1,2.93.16.57.57,0,0,0,.68-.26l.59-1h0L17,28.43a.56.56,0,0,1,.52-.29l4,.13a1.36,1.36,0,0,1,1.06.71,3.74,3.74,0,1,0,1.78-5,3.83,3.83,0,0,0-1.66,1.55,1.22,1.22,0,0,1-1.09.64l-2.8-.09a.29.29,0,0,1-.29-.29.28.28,0,0,1,0-.15L21,21.57a.6.6,0,0,1,.69-.26,5.54,5.54,0,0,0,1.28.16,5.1,5.1,0,0,0,4.72-3.19.63.63,0,0,1,.6-.37l3.17.26c.49,0,.67.21.74.43a3.74,3.74,0,0,0,6.92.23l2.16.19h0a15.12,15.12,0,0,1-14.63,15.6H26.1Z"/></svg>