<svg xmlns="http://www.w3.org/2000/svg" viewBox="0 0 48 48"><defs><style>.a{fill:none;stroke:#fff;stroke-linecap:round;stroke-linejoin:round;}</style></defs><path class="a" d="M24,7.17a1.53,1.53,0,0,0-1.06.44l-18,18a1.48,1.48,0,0,0,0,2.11L18,40.83H30l13.09-13.1a1.48,1.48,0,0,0,0-2.11l-18-18A1.5,1.5,0,0,0,24,7.17Zm-.43,5.75a.55.55,0,0,1,.38.16l1.62,1.62a.53.53,0,0,1,0,.75L12.1,28.93a.54.54,0,0,1-.75,0L9.73,27.3a.51.51,0,0,1,0-.74L23.2,13.08a.52.52,0,0,1,.37-.16ZM21.34,23.17a.5.5,0,0,1,.37.16L23.34,25a.53.53,0,0,1,0,.74L16.1,32.93a.51.51,0,0,1-.74,0l-1.63-1.62a.53.53,0,0,1,0-.75L21,23.33a.52.52,0,0,1,.37-.16Zm.09,8a.54.54,0,0,1,.37.16L23.42,33a.53.53,0,0,1,0,.75L20.16,37a.51.51,0,0,1-.74,0l-1.63-1.62a.54.54,0,0,1,0-.75l3.26-3.25a.52.52,0,0,1,.37-.16ZM20,29.77"/></svg>