<?xml version="1.0" encoding="UTF-8"?>
<svg viewBox="0 0 48 48" xmlns="http://www.w3.org/2000/svg">
    <path d="M24.329 3.69a35.79 35.79 0 00-1.414.033c-6.967.293-12.868 4.069-16.106 10.305-1.64 3.157-2.258 5.667-2.264 9.186-.008 5.293 1.731 9.732 5.31 13.551 2.013 2.147 2.632 2.577 8.002 5.577 1.566.874 3.396 2.22 4.408 3.239l1.729 1.743 2.016-1.895c1.111-1.045 3.155-2.515 4.553-3.273 1.395-.756 3.518-2.062 4.716-2.902 7.761-5.44 10.413-16.135 6.144-24.787-1.946-3.945-5.052-6.996-9.134-8.97-2.725-1.319-4.824-1.816-7.96-1.808zm-.342 7.609c5.908 0 6.356.038 6.927.61.588.587.61 1.019.61 11.084 0 8.984-.066 10.57-.474 11.153-.467.665-.605.679-6.98.679-5.913 0-6.551-.053-7.011-.56-.45-.498-.506-1.731-.506-11.258 0-9.976.04-10.73.56-11.202.482-.437 1.426-.506 6.874-.506zm-5.6 4.277v14.972h11V15.576z" fill="#fff"/>
</svg>
