<?xml version="1.0" encoding="UTF-8"?>
<svg viewBox="0 0 48 48" xmlns="http://www.w3.org/2000/svg">
    <defs>
        <style>.cls-1{fill:#fff;}</style>
    </defs>
    <path class="cls-1" d="m23.551 2.4126c-11.911 0.013419-21.558 9.6761-21.551 21.587 0.019916 1.2612 1.0486 2.2721 2.3099 2.2719h17.404v11.426l-5.3843-5.3724c-2.1697-2.3527-5.6137 1.0787-3.269 3.2571l9.3109 9.3228c0.89528 0.90978 2.3619 0.90978 3.2572 0l9.3109-9.3228c2.6129-2.1521-1.0835-5.862-3.2453-3.2571l-5.3843 5.3724v-11.426h17.38c1.2614 1.56e-4 2.29-1.0107 2.3099-2.2719 0.006718-11.911-9.6405-21.573-21.551-21.587zm0 4.57h0.89738a16.944 16.944 0 0 1 16.775 14.586h-34.447a16.944 16.944 0 0 1 16.775-14.586z"/>
</svg>
