<?xml version="1.0" encoding="UTF-8"?>
<svg data-name="Layer 1" viewBox="0 0 48 48" xmlns="http://www.w3.org/2000/svg">
    <defs>
        <style>.cls-1{fill:#fff;}</style>
    </defs>
    <path class="cls-1" d="M31.72,1.07A17.42,17.42,0,0,0,28.29,8h0a11.23,11.23,0,0,0,.89,6.6,13.34,13.34,0,0,0,3.38,4.18C34.31,20.4,35,23.46,35,25.39A10.23,10.23,0,0,1,24.79,35.62a10.37,10.37,0,0,1-2.29-.25,9.49,9.49,0,0,1-2.38-.79A11,11,0,0,1,17,31.72a9.2,9.2,0,0,0,6.59-.24,18.42,18.42,0,0,1,2.38-1.23,2,2,0,0,1,1-.07c.79.26,1.41-.49.85-1.28a4.21,4.21,0,0,0-4.09-1.6c-1.62.24-3.11,1.39-5.23.27A8.06,8.06,0,0,1,16,25.38a2.58,2.58,0,0,1-.41-1,2.15,2.15,0,0,1,.64-1.93,1.67,1.67,0,0,1,.76-.36,10.56,10.56,0,0,1,1,.54,1.49,1.49,0,0,1,.48.44,7,7,0,0,0,.37-2.89,1.89,1.89,0,0,1,.63-.52,19.5,19.5,0,0,1,1.83-.92c.56-.24,1.16-.49,1.26-.55a3.54,3.54,0,0,0,1-1A2.71,2.71,0,0,0,24,16a.51.51,0,0,0-.38-.48,9.15,9.15,0,0,0-1.46-.32c-.62-.08-1.2-.15-1.73-.2a2.45,2.45,0,0,1-2.09-2,5.93,5.93,0,0,1,3.39-3.93c.13-.06-.56-.32-1.17-.26a7.13,7.13,0,0,0-4.86,2.08,9.12,9.12,0,0,0-5.06-.43h0A6,6,0,0,1,8.65,6l0,0V6A9.5,9.5,0,0,0,6.23,9.74a16.37,16.37,0,0,0-.61,3.82,9.3,9.3,0,0,0-1.18,1.58A22.25,22.25,0,0,0,2,21.22a14.47,14.47,0,0,1,1.33-2.33,21.35,21.35,0,0,0-1.5,7.9,18.35,18.35,0,0,1,.64-2.34,19.9,19.9,0,0,0,1.79,9.29,21.65,21.65,0,0,0,8.56,9.7,18.67,18.67,0,0,0,5,2.38,29,29,0,0,0,7,1.11c3.89,0,8.64-.58,10.87-3.59a7.82,7.82,0,0,1-5.23,1.19c.34-.08,12.44-2.82,13.08-9.74-.59,1.85-2.53,3-3.69,3.59,4.82-4.76,7.25-10.53,6.22-17a13.8,13.8,0,0,1-1.16,6.74,19.8,19.8,0,0,0,.31-6.83,17.17,17.17,0,0,0-.91-3.55c-2.07-6-6.54-10.74-6.54-12.39a4.86,4.86,0,0,0-1,2.16c-2.78-1.95-4.77-4.22-5-6.44Z"/>
</svg>
