<?xml version="1.0" encoding="UTF-8"?>
<svg version="1.1" viewBox="0 0 48 48" xmlns="http://www.w3.org/2000/svg">
    <path d="M3.767 1.502v43.434H16.34v-3.801h-4.225c.027-.186.04-.373.041-.56a4.257 4.257 0 00-4.592-4.243V10.08c.112.01.224.016.336.018a4.257 4.257 0 004.256-4.256 4.037 4.037 0 00-.04-.54h7.817a4.52 4.52 0 00-.039.54 4.257 4.257 0 004.256 4.256c.14-.001.28-.01.42-.024v7.856a10.025 10.025 0 00-8.502-4.737 10.025 10.025 0 00-7.851 3.809l3.29 3.574c.382.414 1.064.884 1.858 0 1.23-1.37 2.494-1.62 4.45-.28 1.003-.89 1.918-.977 2.822-.966.618 1.262.718 2.578.503 3.807 1.385-.509 2.944-.777 4.53-.78.915 0 1.825.09 2.701.264V1.502zM7.9 3.924a1.918 1.918 0 11-.003 3.835 1.918 1.918 0 01.003-3.835zm16.25 0a1.918 1.918 0 11.001 3.835 1.918 1.918 0 010-3.835zm12.873 10.818c-4.048 0-7.33 2.16-7.33 4.822 0 2.664 3.282 4.823 7.33 4.823 4.049 0 7.331-2.16 7.33-4.823.001-2.663-3.281-4.822-7.33-4.822zm7.328 7.865c.001 2.663-3.28 4.822-7.328 4.823-1.187 0-2.293-.204-3.285-.534.383.592.581 1.229.584 1.872-.002.448-.1.893-.289 1.324.916.27 1.922.43 2.99.43 4.02-.003 7.288-2.134 7.325-4.778h.008zm-18.681 1.95c-4.049 0-7.33 2.159-7.33 4.822 0 2.663 3.281 4.822 7.33 4.822 4.048 0 7.33-2.159 7.33-4.822 0-2.663-3.282-4.823-7.33-4.822zm-13.24.859c-.347-.011-.691.093-.922.348l-3.319 3.65a10.025 10.025 0 007.88 3.83c.09-.003.18-.008.27-.014V28.3c-.56-.097-1.053-.459-1.398-1.162l-1.576-1.373a1.534 1.534 0 00-.935-.348zm31.921 3.328c.001 2.663-3.28 4.822-7.328 4.822-.956 0-1.863-.128-2.7-.347v3.092c.837.219 1.745.347 2.7.347 4.02-.002 7.288-2.133 7.325-4.777h.008zm-26.011 3.692v3.136h.002c.038 2.646 3.307 4.777 7.328 4.778 4.02-.002 7.287-2.133 7.324-4.778h.008l-.002-3.136c0 2.662-3.28 4.821-7.328 4.822-4.049 0-7.33-2.16-7.33-4.822zm26.011 2.445c.001 2.663-3.28 4.822-7.328 4.822-.956 0-1.863-.128-2.7-.348v3.092c.837.22 1.745.348 2.7.348 4.02-.002 7.288-2.133 7.325-4.777h.008zm-26.011 3.703v3.137h.002c.038 2.645 3.307 4.777 7.328 4.777 4.02-.002 7.287-2.133 7.324-4.777h.008l-.002-3.137c0 2.663-3.28 4.822-7.328 4.822-4.049 0-7.33-2.159-7.33-4.822zm-10.44.072a1.918 1.918 0 11-.003 3.835 1.918 1.918 0 01.003-3.835z" fill="#fff"/>
</svg>
