<?xml version="1.0" encoding="UTF-8"?>
<svg version="1.1" viewBox="0 0 48 48" xmlns="http://www.w3.org/2000/svg">
    <path d="m7 5c-1.108 0-2 0.892-2 2v34c0 1.108 0.892 2 2 2h34c1.108 0 2-0.892 2-2v-34c0-1.108-0.892-2-2-2h-34zm17.893 3.0312h3.9727c1.4258 0 2.4572 0.24006 3.0938 0.71875 0.64164 0.47869 0.96289 1.2448 0.96289 2.2988 0 0.55507-0.11926 1.0297-0.35352 1.4219-0.22916 0.38702-0.56754 0.67291-1.0156 0.86133 0.57034 0.18333 1.0116 0.5217 1.3223 1.0156s0.46681 1.1023 0.4668 1.8203c0 1.1-0.33755 1.9192-1.0098 2.459-0.66709 0.53979-1.684 0.81055-3.0488 0.81055h-4.3906v-11.406zm-10.234 0.0019531h2.7949c1.5583 0 2.7158 0.12353 3.4746 0.37305 0.76385 0.24444 1.4181 0.66119 1.9629 1.252 0.48377 0.51433 0.8439 1.109 1.0781 1.7812 0.23425 0.67219 0.35352 1.4327 0.35352 2.2832 0 0.86061-0.11926 1.6294-0.35352 2.3066-0.23425 0.67219-0.59438 1.265-1.0781 1.7793-0.54997 0.59071-1.2095 1.0102-1.9785 1.2598-0.76895 0.24443-1.9211 0.36914-3.459 0.36914h-2.7949v-11.404zm12.887 1.998v2.416h1.459c0.41757 0 0.73534-0.10294 0.94922-0.30664 0.21897-0.2037 0.32617-0.50319 0.32617-0.90039 0-0.39211-0.1072-0.69084-0.32617-0.89453-0.21388-0.20878-0.53165-0.31445-0.94922-0.31445h-1.459zm-10.234 0.22461v6.959h0.94726c1.0796 0 1.9043-0.30068 2.4746-0.89648 0.57034-0.59581 0.85742-1.4601 0.85742-2.5957 0-1.1305-0.28709-1.9913-0.85742-2.582-0.56525-0.59071-1.3899-0.88477-2.4746-0.88477h-0.94726zm10.234 4.1934v2.9863h1.5508c0.53469 0 0.93444-0.12547 1.1992-0.375 0.2699-0.24953 0.40625-0.62478 0.40625-1.1289 0-0.49395-0.13637-0.86492-0.40625-1.1094-0.2648-0.24954-0.66453-0.37305-1.1992-0.37305h-1.5508zm-3.5449 8.4473c2.6441 0 5.2885 0.4772 6.7363 1.4297 0.83708 0.55142 1.5734 2.011 2.1387 3.502h2.291c0.18019 0 0.35169 0.082239 0.4668 0.22266 0.11454 0.14102 0.15801 0.32538 0.12305 0.50195l-0.33984 1.6426c-0.056649 0.28084-0.30359 0.48242-0.58984 0.48242h-0.72266c0.69365 0.77139 1.0251 1.7575 1.0215 2.7422-0.005423 1.0902-0.41854 2.1809-1.2852 2.9746v2.2559c0 0.49839-0.40651 0.9043-0.9043 0.9043h-2.1133c-0.499 0-0.9043-0.4059-0.9043-0.9043v-0.92383h-11.836v0.92383c0 0.49839-0.4053 0.9043-0.9043 0.9043h-2.1133c-0.49899 0-0.9043-0.4059-0.9043-0.9043v-2.3008c-0.00844-0.00783-0.01639-0.013584-0.02539-0.021484-0.81659-0.75211-1.264-1.8139-1.2598-2.9902 0.004218-0.95219 0.32148-1.9044 0.97656-2.6602h-0.67773c-0.28505 0-0.53199-0.20024-0.58984-0.48047l-0.33984-1.6445c-0.037364-0.17778 0.008544-0.36214 0.12305-0.50195 0.1139-0.14042 0.2848-0.22266 0.4668-0.22266h2.291c0.5683-1.4885 1.301-2.9499 2.1387-3.502 1.4479-0.95249 4.0922-1.4297 6.7363-1.4297zm0 1.7988c-2.2943 0-4.5881 0.38098-5.7422 1.1406-0.44837 0.2953-1.0254 1.4821-1.5527 2.9375h14.59c-0.52852-1.456-1.1044-2.6434-1.5527-2.9375-1.1535-0.75964-3.4479-1.1406-5.7422-1.1406zm-6.668 7.0918c-0.98172 0-1.7793 0.79502-1.7793 1.7773 0 0.98232 0.79758 1.7773 1.7793 1.7773 0.98292 0 1.7773-0.79502 1.7773-1.7773 0-0.98232-0.79442-1.7773-1.7773-1.7773zm13.359 0c-0.98172 0-1.7793 0.79502-1.7793 1.7773 0 0.98232 0.79758 1.7773 1.7793 1.7773s1.7793-0.79502 1.7793-1.7773c0-0.98232-0.79638-1.7773-1.7793-1.7773z" fill="#fff"/>
</svg>
