<?xml version="1.0" encoding="UTF-8"?>
<svg width="48" height="48" viewBox="0 0 12.7 12.7" xmlns="http://www.w3.org/2000/svg">
    <path d="m1.8521 1.3229c-0.29316 0-0.52917 0.23601-0.52917 0.52917v4.2359h3.4406c0.1446 0 0.262 0.11739 0.262 0.262v1.1395c0.1617 0.09336 0.26111 0.26546 0.26148 0.45217 0 0.28921-0.23428 0.524-0.52348 0.524-0.28921 0-0.52348-0.23479-0.52348-0.524 2.209e-4 -0.18686 0.099654-0.35929 0.26148-0.45269v-0.87695h-3.1786v4.2359c0 0.29316 0.23601 0.52917 0.52917 0.52917h4.2121v-1.5818h-2.8877c-0.14461 0-0.262-0.11687-0.262-0.26148v-1.1338h0.00982c-0.16727-0.09183-0.27099-0.26755-0.2713-0.45837 0-0.2892 0.23428-0.52348 0.52348-0.52348 0.28921 0 0.52348 0.23428 0.52348 0.52348 1.079e-4 0.19039-0.10276 0.36597-0.26923 0.45837h0.00775v0.87178h2.8877c0.1446 0 0.262 0.1174 0.262 0.262v1.8433h4.2597c0.29316 0 0.52917-0.23601 0.52917-0.52917v-4.2359h-1.8536c-0.14461 0-0.262-0.1174-0.262-0.262v-1.1338h0.0088c-0.16679-0.09216-0.27021-0.26729-0.27027-0.45785 0-0.28921 0.23428-0.524 0.52348-0.524 0.28921 0 0.52348 0.23479 0.52348 0.524-3.02e-4 0.19082-0.10403 0.36605-0.2713 0.45785h0.0098v0.87178h1.5916v-4.2359c0-0.29316-0.23601-0.52917-0.52917-0.52917h-4.2597v1.8433c0 0.1446-0.1174 0.262-0.262 0.262h-2.8877v0.87178h-0.00775c0.16648 0.09237 0.26934 0.26798 0.26923 0.45837 0 0.28921-0.23428 0.52348-0.52348 0.52348-0.28921 0-0.52348-0.23427-0.52348-0.52348 3.03e-4 -0.19082 0.10403-0.36657 0.2713-0.45837h-0.00982v-1.1338c0-0.14461 0.11739-0.26148 0.262-0.26148h2.8877v-1.5818zm7.6714 1.3198c0.28921 0 0.52348 0.2348 0.52348 0.524 0 0.28921-0.23428 0.52348-0.52348 0.52348-0.18726-3.3e-4 -0.36001-0.1006-0.4532-0.26303v1e-3h-0.87178v4.0607c0.16183 0.09343 0.26125 0.26583 0.26148 0.45269 0 0.28921-0.23428 0.524-0.52348 0.524-0.28921 0-0.52348-0.23479-0.52348-0.524 3.66e-4 -0.18671 0.09978-0.35877 0.26148-0.45217v-4.3232c0-0.14461 0.1174-0.26148 0.262-0.26148h1.1338c0.0935-0.16192 0.26619-0.26193 0.4532-0.262zm-4.7599 1.5916c0.18686 2.21e-4 0.35926 0.10017 0.45269 0.262h1.1338c0.1446 0 0.262 0.1174 0.262 0.262v2.7306c0.16183 0.09343 0.26125 0.26583 0.26148 0.45269 0 0.28921-0.23428 0.524-0.52348 0.524-0.28921 0-0.52348-0.23479-0.52348-0.524 2.212e-4 -0.18686 0.099655-0.35929 0.26148-0.45269v-2.4691h-0.87178c-0.093431 0.16182-0.26582 0.26177-0.45269 0.262-0.28921 0-0.52348-0.23427-0.52348-0.52348s0.23428-0.524 0.52348-0.524zm4.7599 3.1838c0.28921 0 0.52348 0.23428 0.52348 0.52348-3.67e-4 0.18672-0.09978 0.35938-0.26148 0.45268v1.1389c0 0.14461-0.11739 0.262-0.262 0.262h-1.1338c-0.0935 0.16193-0.26619 0.26192-0.4532 0.262-0.28921 0-0.52348-0.23479-0.52348-0.524s0.23428-0.52348 0.52348-0.52348c0.18726 3.2e-4 0.36001 0.1006 0.4532 0.26303v-1e-3h0.87178v-0.87647c-0.16196-0.0935-0.26141-0.26671-0.26148-0.45372 0-0.2892 0.23428-0.52348 0.52348-0.52348z" fill="#fff" stroke-width=".26458"/>
</svg>
