<svg id="Layer_2" data-name="Layer 2" xmlns="http://www.w3.org/2000/svg" viewBox="0 0 48 48"><defs><style>.cls-1{fill:none;stroke:#fff;stroke-linecap:round;stroke-linejoin:round;}</style></defs><circle class="cls-1" cx="17.78" cy="30.11" r="2.07"/><circle class="cls-1" cx="11.57" cy="30.11" r="2.07"/><circle class="cls-1" cx="11.57" cy="17.76" r="2.07"/><circle class="cls-1" cx="17.78" cy="17.76" r="2.07"/><circle class="cls-1" cx="36.43" cy="30.11" r="2.07"/><circle class="cls-1" cx="36.43" cy="17.76" r="2.07"/><circle class="cls-1" cx="30.21" cy="36.43" r="2.07"/><circle class="cls-1" cx="36.43" cy="11.57" r="2.07"/><circle class="cls-1" cx="24" cy="30.11" r="2.07"/><circle class="cls-1" cx="30.21" cy="30.11" r="2.07"/><line class="cls-1" x1="30.21" y1="17.76" x2="30.21" y2="13.64"/><line class="cls-1" x1="11.57" y1="11.57" x2="24" y2="11.57"/><path class="cls-1" d="M40.5,5.5H7.5a2,2,0,0,0-2,2v33a2,2,0,0,0,2,2h33a2,2,0,0,0,2-2V7.5A2,2,0,0,0,40.5,5.5Z"/><line class="cls-1" x1="24" y1="28.04" x2="24" y2="17.76"/><line class="cls-1" x1="24" y1="5.5" x2="24" y2="11.57"/><line class="cls-1" x1="24" y1="42.5" x2="24" y2="36.43"/><line class="cls-1" x1="11.57" y1="36.43" x2="23.8" y2="36.43"/><line class="cls-1" x1="36.43" y1="32.18" x2="36.43" y2="36.43"/><line class="cls-1" x1="32.28" y1="36.43" x2="36.43" y2="36.43"/><line class="cls-1" x1="42.5" y1="23.84" x2="36.43" y2="23.84"/><line class="cls-1" x1="36.43" y1="19.83" x2="36.43" y2="23.84"/><line class="cls-1" x1="30.21" y1="28.04" x2="30.21" y2="11.57"/><line class="cls-1" x1="34.36" y1="11.57" x2="30.21" y2="11.57"/><line class="cls-1" x1="11.57" y1="32.18" x2="11.57" y2="36.43"/><line class="cls-1" x1="5.5" y1="23.84" x2="17.69" y2="23.84"/><line class="cls-1" x1="11.57" y1="15.69" x2="11.57" y2="11.57"/><line class="cls-1" x1="19.85" y1="17.76" x2="24" y2="17.76"/><line class="cls-1" x1="17.78" y1="28.04" x2="17.78" y2="23.84"/></svg>