<?xml version="1.0" encoding="UTF-8"?>
<svg width="48" height="48" viewBox="0 0 12.7 12.7" xmlns="http://www.w3.org/2000/svg">
    <path d="m1.8521 1.3229c-0.29316 0-0.52917 0.23601-0.52917 0.52917v8.9958c0 0.29316 0.23601 0.52917 0.52917 0.52917h8.9958c0.29316 0 0.52917-0.23601 0.52917-0.52917v-8.9958c0-0.29316-0.23601-0.52917-0.52917-0.52917zm0.79375 0.27595a0.66146 0.66146 0 0 1 0.66146 0.66146 0.66146 0.66146 0 0 1-0.33073 0.57154v4.4127a0.66146 0.66146 0 0 1 0.33073 0.57206 0.66146 0.66146 0 0 1-0.66146 0.66146 0.66146 0.66146 0 0 1-0.66146-0.66146 0.66146 0.66146 0 0 1 0.33073-0.57258v-4.4116a0.66146 0.66146 0 0 1-0.33073-0.57206 0.66146 0.66146 0 0 1 0.66146-0.66146zm1.8521 0a0.66146 0.66146 0 0 1 0.57206 0.33073h1.28a0.33073 0.33073 0 0 1 0.33073 0.33073v1.5343h1.1906v-0.96222a0.66146 0.66146 0 0 1-0.33073-0.57206 0.66146 0.66146 0 0 1 0.66146-0.66146 0.66146 0.66146 0 0 1 0.66146 0.66146 0.66146 0.66146 0 0 1-0.33073 0.57154v1.2935a0.33073 0.33073 0 0 1-0.33073 0.33073h-1.5214v0.93638a0.66146 0.66146 0 0 1 0.33073 0.57206 0.66146 0.66146 0 0 1-0.66146 0.66146 0.66146 0.66146 0 0 1-0.66146-0.66146 0.66146 0.66146 0 0 1 0.33073-0.57258v-0.93586h-1.1906v2.7885a0.66146 0.66146 0 0 1 0.33073 0.57206 0.66146 0.66146 0 0 1-0.66146 0.66146 0.66146 0.66146 0 0 1-0.66146-0.66146 0.66146 0.66146 0 0 1 0.33073-0.57258v-3.1187a0.33073 0.33073 0 0 1 0.33073-0.33073h1.5214v-1.2035h-0.94981a0.66146 0.66146 0 0 1-0.57154 0.33073 0.66146 0.66146 0 0 1-0.66146-0.66146 0.66146 0.66146 0 0 1 0.66146-0.66146zm1.5214 2.1957v0.66146h0.022221a0.33073 0.33073 0 0 1 0.30851-0.21136 0.33073 0.33073 0 0 1 0.30799 0.21136h0.02274v-0.66146h-0.02274a0.33073 0.33073 0 0 0-0.30799-0.21136 0.33073 0.33073 0 0 0-0.30851 0.21136zm4.0349-2.1957a0.66146 0.66146 0 0 1 0.66146 0.66146 0.66146 0.66146 0 0 1-0.33073 0.57154v3.1326a0.33073 0.33073 0 0 1-0.33073 0.33073h-1.5214v1.5214a0.33073 0.33073 0 0 1-0.33073 0.33073h-1.2805a0.66146 0.66146 0 0 1-0.57154 0.33073 0.66146 0.66146 0 0 1-0.66146-0.66146 0.66146 0.66146 0 0 1 0.66146-0.66146 0.66146 0.66146 0 0 1 0.57206 0.33073h0.9493v-1.5214a0.33073 0.33073 0 0 1 0.33073-0.33073h1.5214v-2.8014a0.66146 0.66146 0 0 1-0.33073-0.57206 0.66146 0.66146 0 0 1 0.66146-0.66146zm0 5.5563a0.66146 0.66146 0 0 1 0.66146 0.66146 0.66146 0.66146 0 0 1-0.66146 0.66146 0.66146 0.66146 0 0 1-0.66146-0.66146 0.66146 0.66146 0 0 1 0.66146-0.66146zm-5.596 1.5074h0.21136v0.26458h-0.21136zm-2.4608 5.17e-4h0.23823v0.64182a0.66146 0.71438 0 0 1 0.42323-0.16536 0.66146 0.71438 0 0 1 0.66146 0.71417 0.66146 0.71438 0 0 1-0.66146 0.71417 0.66146 0.71438 0 0 1-0.42323-0.1664v0.1664h-0.23823v-0.71417zm4.0215 0h0.23823v1.9048h-0.23823v-0.1664a0.66146 0.71438 0 0 1-0.42323 0.1664 0.66146 0.71438 0 0 1-0.66146-0.71417 0.66146 0.71438 0 0 1 0.66146-0.71417 0.66146 0.71438 0 0 1 0.42323 0.16536zm-1.7606 0.47594a0.58208 0.52917 0 0 1 0.01447 0h0.026872v0.23358a0.58208 0.42995 0 0 0-0.026872 0.0026 0.58208 0.42995 0 0 0-0.5023 0.42375v0.76894h-0.21187v-1.4025h0.21187v0.23719a0.58208 0.52917 0 0 1 0.037724-0.05271 0.58208 0.52917 0 0 1 0.4501-0.21084zm2.8722 5.17e-4c0.1547 1.4e-4 0.30445 0.05887 0.42323 0.16588v-0.16588h0.23823v1.3756c2.2e-5 0.27592-0.22009 0.51389-0.5271 0.56999-0.30727 0.05611-0.57829-0.03383-0.7152-0.339v-0.07493h0.23668c0.04371 0.14211 0.19027 0.24083 0.3576 0.24081 0.20312-2e-4 0.40718-0.21404 0.40979-0.39326v-0.11679c-0.11884 0.10687-0.26859 0.16536-0.42323 0.16536-0.36524 0-0.66135-0.31971-0.66146-0.71417 3.7e-4 -0.39426 0.29641-0.71365 0.66146-0.71365zm1.5348 0a0.66146 0.71438 0 0 1 0.66146 0.71417 0.66146 0.71438 0 0 1-0.0052 0.07958h-1.0485a0.39688 0.52917 0 0 0 0.39222 0.44958 0.39688 0.52917 0 0 0 0.3483-0.27802h0.27078a0.66146 0.71438 0 0 1-0.61908 0.46302 0.66146 0.71438 0 0 1-0.66146-0.71417 0.66146 0.71438 0 0 1 0.66146-0.71417zm1.3358 0c0.2922 0 0.5291 0.18947 0.52917 0.42323h-0.19844c0-0.14613-0.14807-0.26458-0.33073-0.26458s-0.33073 0.11845-0.33073 0.26458c0 0 0.04472 0.12336 0.31988 0.15296 0.26642 0.02862 0.6196 0.16608 0.6196 0.37569 1.4e-4 0.2632-0.2607 0.47661-0.58239 0.47646-0.32149-9e-5 -0.58202-0.21342-0.58188-0.47646h0.22479c-1.65e-4 0.16146 0.15974 0.29244 0.35708 0.29249 0.19755 1.8e-4 0.38579-0.13334 0.3576-0.29249-0.01433-0.08087-0.21942-0.13307-0.41031-0.17777-0.116-0.02716-0.50281-0.12338-0.50281-0.35088 7.1e-5 -0.23376 0.23697-0.42323 0.52917-0.42323zm-5.5428 0.02584h0.21136v1.4025h-0.21136zm2.6722 0.15865c-0.21919 0-0.39688 0.23692-0.39688 0.52917s0.17769 0.52917 0.39688 0.52917 0.39688-0.23692 0.39688-0.52917-0.17769-0.52917-0.39688-0.52917zm-4.4716 5.17e-4a0.39688 0.52917 0 0 0-0.39687 0.52917 0.39688 0.52917 0 0 0 0.39687 0.52917 0.39688 0.52917 0 0 0 0.39688-0.52917 0.39688 0.52917 0 0 0-0.39688-0.52917zm2.9368 0a0.39688 0.52917 0 0 0-0.39688 0.52917 0.39688 0.52917 0 0 0 0.39688 0.52917 0.39688 0.52917 0 0 0 0.39688-0.52917 0.39688 0.52917 0 0 0-0.39688-0.52917zm3.0629 0a0.39688 0.52917 0 0 0-0.37724 0.39688h0.76791a0.39688 0.52917 0 0 0-0.38396-0.39688 0.39688 0.52917 0 0 0-0.0067 0z" fill="#fff" stroke-width=".26458"/>
</svg>
