<?xml version="1.0" encoding="UTF-8"?>
<svg version="1.1" viewBox="0 0 48 48" xmlns="http://www.w3.org/2000/svg">
    <path d="m7 5c-1.108 0-2 0.892-2 2v34c0 1.108 0.892 2 2 2h34c1.108 0 2-0.892 2-2v-34c0-1.108-0.892-2-2-2h-34zm29.678 5.6934c0.096163 1.8944-0.49873 3.6623-1.5703 5.1797l-6.498 21.434-6.5117-0.074219c2.4943-3.5276 4.9995-12.51 4.5781-16.445-0.002645-0.005819-0.005163-0.011762-0.007812-0.017578-5.4018 0.81968-11.69-1.4253-15.355-8.916 7.7858-0.93929 12.73 3.1533 15.355 8.916 0.003181-0.00048 0.006585 0.00049 0.009765 0 1.3208-8.0796 7.8571-10.047 10-10.076zm-10 10.076c-0.00045 0.002752-0.001504 0.005059-0.001953 0.007813 0.00033 0.003015-0.00032 0.006744 0 0.009765 2.2604 4.9728 2.7972 11.184 1.9336 16.482l6.4941-21.393c-1.7911 2.5332-4.919 4.358-8.4258 4.8926z" fill="#fff"/>
</svg>
