<?xml version="1.0" encoding="UTF-8"?>
<svg version="1.1" viewBox="0 0 48 48" xmlns="http://www.w3.org/2000/svg">
    <path d="m24 2a22 22 0 0 0 -22 22 22 22 0 0 0 22 22 22 22 0 0 0 22 -22 22 22 0 0 0 -22 -22zm-4 5a5 5 0 0 1 5 5 5 5 0 0 1 -3 4.576v7.996c2.069-1.524 4.716-2.431 7.408-2.549a5 5 0 0 1 4.592 -3.023 5 5 0 0 1 5 5 5 5 0 0 1 -5 5 5 5 0 0 1 -4.564 -2.975c-3.556 0.2457-6.961 2.755-7.389 5.418a5 5 0 0 1 2.953 4.557 5 5 0 0 1 -5 5 5 5 0 0 1 -5 -5 5 5 0 0 1 3 -4.576v-14.84a5 5 0 0 1 -3 -4.58 5 5 0 0 1 5 -5zm0 3a2 2 0 0 0 -2 2 2 2 0 0 0 2 2 2 2 0 0 0 2 -2 2 2 0 0 0 -2 -2zm14 12a2 2 0 0 0 -2 2 2 2 0 0 0 2 2 2 2 0 0 0 2 -2 2 2 0 0 0 -2 -2zm-14 12a2 2 0 0 0 -2 2 2 2 0 0 0 2 2 2 2 0 0 0 2 -2 2 2 0 0 0 -2 -2z" fill="#fff"/>
</svg>
