<?xml version="1.0" encoding="UTF-8"?>
<svg viewBox="0 0 48 48" xmlns="http://www.w3.org/2000/svg">
    <path d="M24 2A22 22 0 002 24a22 22 0 0022 22 22 22 0 0022-22A22 22 0 0024 2zm6.133 5.465A17.637 17.637 0 0141.637 24a17.637 17.637 0 01-5.145 12.445v-.718c-.109-1.3.024-2.53-3.492-2.577h-3.07v-6.095c0-1.905-.689-2.65-2.168-2.65h-13.3v-4.589h5.44c.535 0 1.24-.695 1.25-1.783V13.39h6.143c2.858 0 2.726-2.927 2.838-5.137zM6.574 21.277l10.069 9.446c.111 3.074-.385 6.667 4.568 6.636v4.057A17.637 17.637 0 016.36 24a17.637 17.637 0 01.213-2.723z" fill="#fff"/>
</svg>
