<?xml version="1.0" encoding="UTF-8"?>
<svg data-name="Layer 1" viewBox="0 0 48 48" xmlns="http://www.w3.org/2000/svg">
    <defs>
        <style>.cls-1{fill:#fff;}</style>
    </defs>
    <polygon class="cls-1" points="19.7 20.55 23.16 22.55 23.16 18.56 19.7 16.56"/>
    <polygon class="cls-1" points="28.3 16.56 24.84 18.56 24.84 22.55 28.3 20.55"/>
    <polygon class="cls-1" points="19.7 31.44 23.16 29.44 23.16 25.45 19.7 27.45"/>
    <polygon class="cls-1" points="18.87 22 15.41 24 18.87 26 22.33 24"/>
    <path class="cls-1" d="M24,2A22,22,0,1,0,46,24,22,22,0,0,0,24,2ZM39.9,32.46l-.62,1.08a.21.21,0,0,1-.29.08l-9-5.21v4l2.27,1.31a.13.13,0,0,1,0,.17l-.71,1.23a.13.13,0,0,1-.17.05L30,34.34V36a.12.12,0,0,1-.13.12H28.42A.12.12,0,0,1,28.3,36V33.37l-3.46-2V41.79a.21.21,0,0,1-.22.21H23.38a.21.21,0,0,1-.22-.21V31.38l-3.46,2V36a.12.12,0,0,1-.12.12H18.16A.12.12,0,0,1,18,36V34.34l-1.44.83a.13.13,0,0,1-.17-.05l-.71-1.23a.13.13,0,0,1,0-.17L18,32.41v-4L9,33.62a.21.21,0,0,1-.29-.08L8.1,32.46a.21.21,0,0,1,.08-.29l9-5.21-3.46-2-2.27,1.31a.13.13,0,0,1-.17-.05L10.58,25a.12.12,0,0,1,0-.17L12.06,24l-1.44-.83a.12.12,0,0,1,0-.17l.71-1.23a.13.13,0,0,1,.17-.05L13.73,23l3.46-2-9-5.21a.21.21,0,0,1-.08-.29l.62-1.08A.21.21,0,0,1,9,14.38l9,5.21v-4l-2.27-1.31a.13.13,0,0,1,0-.17l.71-1.23a.13.13,0,0,1,.17-.05l1.44.83V12a.12.12,0,0,1,.13-.12h1.42a.12.12,0,0,1,.12.12v2.63l3.46,2V6.21A.21.21,0,0,1,23.38,6h1.24a.21.21,0,0,1,.22.21V16.62l3.46-2V12a.12.12,0,0,1,.12-.12h1.42A.12.12,0,0,1,30,12v1.66l1.44-.83a.13.13,0,0,1,.17.05l.71,1.23a.13.13,0,0,1,0,.17L30,15.59v4l9-5.21a.21.21,0,0,1,.29.08l.62,1.08a.21.21,0,0,1-.08.29l-9,5.21,3.46,2,2.27-1.31a.13.13,0,0,1,.17.05L37.42,23a.12.12,0,0,1,0,.17L35.94,24l1.44.83a.12.12,0,0,1,0,.17l-.71,1.23a.13.13,0,0,1-.17.05L34.27,25l-3.46,2,9,5.21A.21.21,0,0,1,39.9,32.46Z"/>
    <polygon class="cls-1" points="29.13 22 25.67 24 29.13 26 32.59 24"/>
    <polygon class="cls-1" points="24.84 29.44 28.3 31.44 28.3 27.45 24.84 25.45"/>
</svg>
