<?xml version="1.0" encoding="UTF-8"?>
<svg viewBox="0 0 48 48" xmlns="http://www.w3.org/2000/svg">
    <path d="M24 2A22 22 0 002 24a22 22 0 0022 22 22 22 0 0022-22A22 22 0 0024 2zm-11.096 9.701h12.6c.602 0 1.088.484 1.088 1.086v2.928c0 .602-.486 1.088-1.088 1.088h-12.6a1.086 1.086 0 01-1.088-1.088v-2.928c0-.602.486-1.086 1.088-1.086zm19.377 0h2.815c.602 0 1.088.484 1.088 1.086v2.928c0 .602-.486 1.088-1.088 1.088H32.28a1.084 1.084 0 01-1.086-1.088v-2.928c0-.602.484-1.086 1.086-1.086zm-19.377 9.746h22.192c.602 0 1.088.486 1.088 1.088v2.928c0 .602-.486 1.088-1.088 1.088H12.904a1.086 1.086 0 01-1.088-1.088v-2.928c0-.602.486-1.088 1.088-1.088zm0 9.748h7.942c.602 0 1.088.486 1.088 1.088v2.928c0 .602-.486 1.088-1.088 1.088h-7.942a1.086 1.086 0 01-1.088-1.088v-2.928c0-.602.486-1.088 1.088-1.088zm14.25 0h7.942c.602 0 1.088.486 1.088 1.088v2.928c0 .602-.486 1.088-1.088 1.088h-7.942a1.086 1.086 0 01-1.088-1.088v-2.928c0-.602.486-1.088 1.088-1.088z" fill="#fff"/>
</svg>
