<?xml version="1.0" encoding="UTF-8"?>
<svg version="1.1" viewBox="0 0 48 48" xmlns="http://www.w3.org/2000/svg">
    <path d="m23.998 2.543c-12.148 0-21.998 9.8497-21.998 22.001 0 9.72 6.3031 17.965 15.045 20.876 1.1007 0.20124 1.5018-0.4781 1.5018-1.0615 0-0.52131-0.01894-1.9056-0.02968-3.7411-6.1194 1.329-7.4105-2.9496-7.4105-2.9496-1.0008-2.5418-2.4432-3.2184-2.4432-3.2184-1.9975-1.3641 0.15126-1.3371 0.15126-1.3371 2.2082 0.15531 3.3697 2.2676 3.3697 2.2676 1.9624 3.3616 5.1497 2.3905 6.403 1.8273 0.19988-1.4208 0.76712-2.3905 1.3965-2.9402-4.885-0.55508-10.021-2.4432-10.021-10.873 0-2.4013 0.85761-4.365 2.2649-5.9033-0.2269-0.55643-0.98186-2.793 0.21474-5.8223 0 0 1.8476-0.59154 6.0505 2.2554 1.7544-0.48891 3.6371-0.73201 5.5076-0.74011 1.8678 8e-3 3.7505 0.2512 5.5076 0.74011 4.2003-2.847 6.0438-2.2554 6.0438-2.2554 1.2006 3.0293 0.44568 5.2658 0.21879 5.8223 1.41 1.5383 2.2622 3.502 2.2622 5.9033 0 8.4518-5.1443 10.312-10.045 10.856 0.79008 0.67934 1.4937 2.0218 1.4937 4.0746 0 2.9402-0.02704 5.3131-0.02704 6.0343 0 0.58885 0.39571 1.2736 1.5126 1.0588 8.7354-2.9159 15.033-11.156 15.033-20.873 0-12.151-9.851-22.001-22.002-22.001" fill="#fff" fill-rule="evenodd"/>
</svg>
