<svg id="Layer_2" data-name="Layer 2" xmlns="http://www.w3.org/2000/svg" viewBox="0 0 48 48"><defs><style>.cls-1{fill:none;stroke:#fff;stroke-linecap:round;stroke-linejoin:round;stroke-width:1.05px;}</style></defs><path class="cls-1" d="M10.93,4.5h2.78V8.87a3.75,3.75,0,0,1,1.89,1.71h3.3A6.57,6.57,0,0,1,24,12.9a6.87,6.87,0,0,1,1.6,4.36v5.45a3.69,3.69,0,0,1,0,6.68V34.1A8.64,8.64,0,0,0,26,37c.36.88.6,1.29,1.82,1.29h4.48a3.68,3.68,0,0,1,2-1.92V15.71a3.69,3.69,0,1,1,2.78,0V36.39a3.69,3.69,0,1,1-4.63,5.19H27.83A5.3,5.3,0,0,1,23,38.26a11,11,0,0,1-.69-4.16V29.32a3.69,3.69,0,0,1,0-6.54V17.26A3.83,3.83,0,0,0,21.45,15a3.06,3.06,0,0,0-2.55-1.13H15.66a3.67,3.67,0,0,1-1.95,1.85V36.39a3.69,3.69,0,1,1-2.78,0V15.71a3.69,3.69,0,0,1,0-6.84Zm0,0"/></svg>