<?xml version="1.0" encoding="UTF-8"?>
<svg version="1.1" viewBox="0 0 48 48" xmlns="http://www.w3.org/2000/svg">
    <path d="m7 5c-1.108 0-2 0.892-2 2v6.9355l29.064 29.064h6.9355c1.108 0 2-0.892 2-2v-34c0-1.108-0.892-2-2-2zm23.326 4a8.6746 8.6746 0 0 1 8.6738 8.6758c0 5.0467-4.1032 8.9846-8.6738 14.146-4.3762-4.9423-8.3223-8.764-8.6504-13.51a8.6746 8.6746 0 0 1 -0.0039 -0.04883c-0.01233-0.19451-0.02148-0.39012-0.02148-0.58789a8.6746 8.6746 0 0 1 8.6758 -8.6758zm0 4.5059a4.1698 4.1698 0 0 0 -4.1699 4.1699 4.1698 4.1698 0 0 0 4.1699 4.1699 4.1698 4.1698 0 0 0 4.168 -4.1699 4.1698 4.1698 0 0 0 -4.168 -4.1699zm-25.326 13.762v13.732c0 1.108 0.892 2 2 2h13.734z" fill="#fff"/>
</svg>
