<svg xmlns="http://www.w3.org/2000/svg" version="1.1" viewBox="0 0 48 48">
 <path d="m6 8c-1.108 0-2 0.892-2 2v28c0 1.108 0.892 2 2 2h36c1.108 0 2-0.892 2-2v-28c0-1.108-0.892-2-2-2h-36zm3.723 2.527h2.035c0.9541 0 1.723 0.7685 1.723 1.723v2.037c0 0.9541-0.7685 1.721-1.723 1.721h-2.035c-0.9541 0-1.723-0.7666-1.723-1.721v-2.037c0-0.9541 0.7686-1.723 1.723-1.723zm26.52 0h2.035c0.9541 0 1.723 0.7685 1.723 1.723v2.037c0 0.9541-0.7685 1.721-1.723 1.721h-2.035c-0.9541 0-1.723-0.7666-1.723-1.721v-2.037c0-0.9541 0.7685-1.723 1.723-1.723zm-26.52 7.154h2.035c0.9541 0 1.723 0.7685 1.723 1.723v2.037c0 0.9541-0.7685 1.723-1.723 1.723h-2.035c-0.9541 0-1.723-0.7685-1.723-1.723v-2.037c0-0.9541 0.7686-1.723 1.723-1.723zm26.52 0h2.035c0.9541 0 1.723 0.7685 1.723 1.723v2.037c0 0.9541-0.7685 1.723-1.723 1.723h-2.035c-0.9541 0-1.723-0.7685-1.723-1.723v-2.037c0-0.9541 0.7685-1.723 1.723-1.723zm-26.52 7.154h2.035c0.9541-0.000001 1.723 0.7685 1.723 1.723v2.035c0 0.9541-0.7685 1.725-1.723 1.725h-2.035c-0.9541 0-1.723-0.7705-1.723-1.725v-2.035c0-0.9541 0.7686-1.723 1.723-1.723zm26.52 0h2.035c0.9541-0.000001 1.723 0.7685 1.723 1.723v2.035c0 0.9541-0.7685 1.725-1.723 1.725h-2.035c-0.9541 0-1.723-0.7705-1.723-1.725v-2.035c0-0.9541 0.7685-1.723 1.723-1.723zm-26.52 7.156h2.035c0.9541 0 1.723 0.7666 1.723 1.721v2.035c0 0.9541-0.7685 1.725-1.723 1.725h-2.035c-0.9541 0-1.723-0.7705-1.723-1.725v-2.035c0-0.9541 0.7686-1.721 1.723-1.721zm26.52 0h2.035c0.9541 0 1.723 0.7666 1.723 1.721v2.035c0 0.9541-0.7685 1.725-1.723 1.725h-2.035c-0.9541 0-1.723-0.7705-1.723-1.725v-2.035c0-0.9541 0.7685-1.721 1.723-1.721z" fill="#fff"/>
</svg>
