<?xml version="1.0" encoding="UTF-8"?>
<svg viewBox="0 0 48 48" xmlns="http://www.w3.org/2000/svg">
    <defs>
        <style>.cls-1{fill:#fff;fill-rule:evenodd;}</style>
    </defs>
    <g data-name="Layer 1">
        <path class="cls-1" d="M24,2A22,22,0,1,0,46,24,22,22,0,0,0,24,2Zm1.24,30.85a21.79,21.79,0,0,1-3.51.86,23.45,23.45,0,0,1-3.37.24q-4.39,0-6.7-2.57T9.35,24A9.8,9.8,0,0,1,12,16.67a10.19,10.19,0,0,1,7.44-2.62,14.48,14.48,0,0,1,5.75,1.19l-1.37,3.28a9.8,9.8,0,0,0-4.41-1.05,5.45,5.45,0,0,0-4.26,1.78,6.93,6.93,0,0,0-1.6,4.81,7.7,7.7,0,0,0,1.29,4.81,4.45,4.45,0,0,0,3.75,1.66,13,13,0,0,0,2.61-.26v-4H17.56V22.81h7.68Zm14.11.84H29.63V29.54h2.84V22.48l0-1.84.07-2c-.68.68-1.15,1.13-1.42,1.34l-2.22,1.79-2-2.47,6.24-5h3.36V29.54h2.79Z"/>
    </g>
</svg>
