<?xml version="1.0" encoding="UTF-8"?>
<svg viewBox="0 0 48 48" xmlns="http://www.w3.org/2000/svg">
    <path d="M24 2A22 22 0 002 24a22 22 0 0022 22 22 22 0 0022-22A22 22 0 0024 2zm-12.37 8.47H36.37c.056 0 .093.02.115.053 1.066.253 1.394 1.688.76 2.32L26.054 24l11.19 11.156c.634.633.306 2.068-.76 2.32-.022.034-.059.053-.115.053H11.63c-.055 0-.09-.02-.112-.052-1.067-.252-1.397-1.688-.762-2.32L21.946 24l-11.19-11.156c-.635-.633-.305-2.07.762-2.32.022-.034.057-.053.113-.053zm3.624 2.85L24 21.953l8.746-8.633H15.254zM24 26.047l-8.746 8.635h17.492L24 26.047z" fill="#fff"/>
</svg>
