<svg id="Layer_2" data-name="Layer 2" xmlns="http://www.w3.org/2000/svg" viewBox="0 0 48 48"><defs><style>.cls-1{fill:none;stroke:#fff;stroke-linecap:round;stroke-linejoin:round;stroke-width:1.05px;}</style></defs><path class="cls-1" d="M7.09,5.5H40.91a.19.19,0,0,1,.16.07,2,2,0,0,1,1,3.18L26.8,24,42.11,39.25a2,2,0,0,1-1,3.17.17.17,0,0,1-.16.08H7.09a.19.19,0,0,1-.16-.07,2,2,0,0,1-1-3.18L21.19,24,5.89,8.75a2,2,0,0,1,1-3.17.17.17,0,0,1,.16-.08ZM12,9.39,24,21.2,36,9.39ZM24,26.8,12,38.61H36Zm0,0"/></svg>