<svg xmlns="http://www.w3.org/2000/svg" viewBox="0 0 48 48"><defs><style>.a{fill:none;stroke:#fff;stroke-linecap:round;stroke-linejoin:round;}</style></defs><path class="a" d="M45.5,24A21.51,21.51,0,0,1,24,45.5l9.31-16.12a10.75,10.75,0,0,0-1-12.22H44.35A21.48,21.48,0,0,1,45.5,24ZM42.59,13.25H24a10.72,10.72,0,0,0-10.06,7L7.9,9.79a21.44,21.44,0,0,1,34.69,3.46ZM25.78,34.59l-6,10.47A21.44,21.44,0,0,1,5.39,13.28l9.3,16.11A10.65,10.65,0,0,0,25.78,34.6Z"/><circle class="a" cx="24" cy="24" r="6.84"/></svg>