<svg id="Layer_2" data-name="Layer 2" xmlns="http://www.w3.org/2000/svg" viewBox="0 0 48 48"><defs><style>.cls-1{fill:none;stroke:#fff;stroke-linecap:round;stroke-linejoin:round;}</style></defs><path class="cls-1" d="M19.05,24h0v9.9H29V24Z"/><path class="cls-1" d="M10.4,4.5a2,2,0,0,0-2,2v35a2,2,0,0,0,2,2H37.6a2,2,0,0,0,2-2v-27h-8a2,2,0,0,1-2-2v-8Zm5,14.71H32.58a1,1,0,0,1,1,1V37.37a1,1,0,0,1-1,1H15.42a1,1,0,0,1-1-1V20.21A1,1,0,0,1,15.42,19.21Z"/><line class="cls-1" x1="29.61" y1="4.5" x2="39.6" y2="14.49"/></svg>