<?xml version="1.0" encoding="UTF-8"?>
<svg viewBox="0 0 48 48" xmlns="http://www.w3.org/2000/svg">
    <defs>
        <style>.cls-1{fill:#fff;}</style>
    </defs>
    <g data-name="Layer 1">
        <path class="cls-1" d="M24,2A22,22,0,1,0,46,24,22,22,0,0,0,24,2ZM21.83,28.57h-2v5.08a4,4,0,0,1-7.94,0v-9a4,4,0,0,1,4-4h6a4,4,0,0,1,0,7.94ZM28,18.32H15.83a4,4,0,1,1,0-7.94H28a5.78,5.78,0,0,0,0,7.94Zm8.19,15.33a4,4,0,1,1-7.94,0v-9a4,4,0,1,1,7.94,0Zm-4-15.33a4,4,0,1,1,4-4A4,4,0,0,1,32.17,18.32Z"/>
    </g>
</svg>
