<svg xmlns="http://www.w3.org/2000/svg" viewBox="0 0 48 48"><defs><style>.a{fill:none;stroke:#fff;stroke-linecap:round;stroke-linejoin:round;}</style></defs><path class="a" d="M18.15,5.48a5.84,5.84,0,0,0-5.85,5.85v2.92H6.45A2,2,0,0,0,4.5,16.2V40.58a1.94,1.94,0,0,0,2,1.94h35.1a1.94,1.94,0,0,0,2-1.94V16.2a2,2,0,0,0-2-1.95H35.7V11.33a5.84,5.84,0,0,0-5.85-5.85Zm0,3.9h11.7a1.94,1.94,0,0,1,1.95,1.95v2.92H16.2V11.33A1.94,1.94,0,0,1,18.15,9.38ZM15.4,18.3a1.39,1.39,0,0,1,.35,0,3.32,3.32,0,0,1,1.15.42L26.42,24,24,27.14l-8.67-8.82.09,0Zm-.56.22,7.94,10.16L14.85,38.82a2.37,2.37,0,0,1-.6-1.88V20.42a2.41,2.41,0,0,1,.59-1.9Zm13.94,6.8,3.92,2.17c1.4.78,1.4,1.6,0,2.37L28.78,32l-3.3-3.36,3.3-3.36ZM24,30.22l2.45,3.12-9.53,5.29A2.53,2.53,0,0,1,15.3,39L24,30.22Z"/></svg>