<?xml version="1.0" encoding="UTF-8"?>
<svg viewBox="0 0 48 48" xmlns="http://www.w3.org/2000/svg">
 <path d="m18 5c-3.314 0-6 2.686-6 6v3h-6c-1.108 0-2 0.892-2 2v25c0 1.108 0.892 2 2 2h36c1.108 0 2-0.892 2-2v-25c0-1.108-0.892-2-2-2h-6v-3c0-3.314-2.686-6-6-6h-12zm0 4h12c1.108 0 2 0.892 2 2v3h-16v-3c0-1.108 0.892-2 2-2zm-2.822 9.152c0.1113-0.01109 0.2306-0.008858 0.3574 0.007812 0.3382 0.04444 0.7308 0.1878 1.178 0.4355l9.771 5.416-2.508 3.209-8.893-9.047c0.03167-0.00571 0.06071-0.01818 0.09375-0.02148zm-0.5723 0.2285l8.141 10.42-8.131 10.4c-0.4033-0.325-0.6152-0.9708-0.6152-1.932v-16.94c0-0.9621 0.204-1.62 0.6055-1.945zm14.3 6.975l4.018 2.229c1.431 0.7932 1.434 1.633 0 2.428l-4.018 2.229-3.383-3.443 3.383-3.441zm-4.932 5.02l2.508 3.209-9.771 5.416c-0.6648 0.3685-1.21 0.503-1.633 0.4258l8.896-9.051z" fill="#fff"/>
</svg>
