<?xml version="1.0" encoding="UTF-8"?>
<svg version="1.1" viewBox="0 0 48 48" xmlns="http://www.w3.org/2000/svg">
    <path d="m10 4c-1.108 0 -2 0.892-2 2v36c0 1.108 0.892 2 2 2h28c1.108 0 2-0.892 2-2v-27.754h-8.2461c-1.108 0-2-0.892-2-2v-8.2461zm19.754 0 10.246 10.246v-8.2461c0-1.108-0.892-2-2-2zm-12.422 13.791h13.334c1.108 0 2 0.892 2 2v18.264c0 1.108-0.892 2-2 2h-13.334c-1.108 0-2-0.892-2-2v-18.264c0-1.108 0.892-2 2-2zm2.6152 2.877c-1.108 0-2 0.892-2 2v0.21094c0 1.108 0.892 2 2 2h8.1035c1.108 0 2-0.892 2-2v-0.21094c0-1.108-0.892-2-2-2zm0 6.1484c-1.108 0-2 0.892-2 2v0.21094c0 1.108 0.892 2 2 2h8.1035c1.108 0 2-0.892 2-2v-0.21094c0-1.108-0.892-2-2-2zm0 6.1504c-1.108 0-2 0.892-2 2v0.20898c0 1.108 0.892 2 2 2h8.1035c1.108 0 2-0.892 2-2v-0.20898c0-1.108-0.892-2-2-2z" fill="#fff"/>
</svg>
