<?xml version="1.0" encoding="UTF-8"?>
<svg version="1.1" viewBox="0 0 48 48" xmlns="http://www.w3.org/2000/svg">
    <path d="m7 5c-1.108 0-2 0.892-2 2v34c0 1.108 0.892 2 2 2h6.7031l16.244-38zm27.299 0l-16.244 38h22.945c1.108 0 2-0.892 2-2v-34c0-1.108-0.892-2-2-2zm-19.77 2.7754a7.0163 7.0163 0 0 1 3.4453 0.91406l-1.5078 2.6113a3.9963 3.9963 0 0 0 -1.9375 -0.50586 3.9963 3.9963 0 0 0 -3.9961 3.9961 3.9963 3.9963 0 0 0 3.9961 3.9961 3.9963 3.9963 0 0 0 3.6973 -2.4863h-3.6973v-3.0195h6.8516v0.02148a7.0163 7.0163 0 0 1 0.16406 1.4883 7.0163 7.0163 0 0 1 -0.16406 1.4707v0.03906h-0.0098a7.0163 7.0163 0 0 1 -6.8418 5.5059 7.0163 7.0163 0 0 1 -7.0176 -7.0156 7.0163 7.0163 0 0 1 7.0176 -7.0156zm23.529 12.965 0.05273 2.4512c1.6613 0.39798 2.8398 0.68555 2.8398 0.68555l-0.71484 2.9121s-4.6387-1.1365-10.371-2.4492l0.66992-2.9238c1.7819 0.40806 3.0946 0.72264 4.5605 1.0684l-0.03711-1.6797zm-8.4434 4.5664c1.704 1.5069 3.1519 3.1161 4.3906 4.668 1.27-0.66396 2.6244-1.3091 4.1504-1.9238l1.1211 2.7812c-1.2804 0.5158-2.4072 1.0403-3.4688 1.5723 2.0356 2.955 3.0996 5.2402 3.0996 5.2402l-2.7266 1.25s-1.0433-2.2129-3.0078-5.0234c-3.4251 2.1313-5.5664 4.4637-7.2012 7.2441l-2.5859-1.5215c1.8155-3.0879 4.3052-5.7526 7.9922-8.1094-1.0779-1.3186-2.3271-2.6716-3.752-3.9316z" fill="#fff"/>
</svg>
