<?xml version="1.0" encoding="UTF-8"?>
<svg version="1.1" viewBox="0 0 48 48" xmlns="http://www.w3.org/2000/svg">
    <path d="m7 5c-1.108 0-2 0.892-2 2v34c0 1.108 0.892 2 2 2h34c1.108 0 2-0.892 2-2v-34c0-1.108-0.892-2-2-2h-34zm1 12h9.793v2.729h-6.164v2.607h5.797v2.729h-5.797v3.207h6.371v2.729h-10v-14zm16.39 3c0.5846 0 1.198 0.04709 1.842 0.1406 0.6437 0.09354 1.344 0.2399 2.1 0.4395v2.545c-0.6791-0.2993-1.335-0.5242-1.967-0.6738-0.6319-0.1497-1.228-0.2246-1.789-0.2246-0.6024 0-1.052 0.08006-1.348 0.2422-0.2894 0.1559-0.4336 0.4-0.4336 0.7305 0 0.2681 0.1096 0.4738 0.3281 0.6172 0.2244 0.1434 0.6225 0.2498 1.195 0.3184l0.5586 0.08398c1.624 0.2183 2.716 0.5773 3.277 1.076 0.561 0.4989 0.8418 1.281 0.8418 2.348 0 1.116-0.3904 1.954-1.17 2.516-0.7795 0.5612-1.943 0.8418-3.49 0.8418-0.6555 0-1.334-0.05572-2.037-0.168-0.6968-0.106-1.414-0.2681-2.152-0.4863v-2.545c0.6319 0.3243 1.278 0.5683 1.939 0.7305 0.6673 0.1621 1.344 0.2422 2.029 0.2422 0.6201 0 1.087-0.09065 1.4-0.2715 0.313-0.1808 0.4688-0.4492 0.4688-0.8047 0-0.2993-0.1096-0.5206-0.3281-0.6641-0.2126-0.1497-0.6395-0.2646-1.283-0.3457l-0.5586-0.07422c-1.411-0.1871-2.402-0.534-2.969-1.039-0.5669-0.5051-0.8496-1.272-0.8496-2.301 0-1.11 0.3596-1.932 1.08-2.469 0.7205-0.5363 1.826-0.8047 3.314-0.8047zm12.47 0c0.5339 0 1.059 0.05062 1.574 0.1504 0.5217 0.09354 1.041 0.2364 1.557 0.4297v2.73c-0.4429-0.3118-0.889-0.5417-1.338-0.6914-0.4429-0.1497-0.9035-0.2246-1.383-0.2246-0.91 0-1.619 0.2735-2.129 0.8223-0.5035 0.5425-0.7559 1.304-0.7559 2.283s0.2523 1.742 0.7559 2.291c0.5096 0.5425 1.219 0.8145 2.129 0.8145 0.5096 0 0.9923-0.07848 1.447-0.2344 0.4611-0.1559 0.8852-0.3859 1.273-0.6914v2.74c-0.5096 0.1933-1.029 0.3361-1.557 0.4297-0.5217 0.09977-1.046 0.1504-1.574 0.1504-1.838 0-3.275-0.4827-4.312-1.449-1.037-0.9728-1.557-2.323-1.557-4.051s0.5192-3.074 1.557-4.041c1.037-0.9728 2.474-1.459 4.312-1.459z" fill="#fff"/>
</svg>
