<?xml version="1.0" encoding="UTF-8"?>
<svg version="1.1" viewBox="0 0 48 48" xmlns="http://www.w3.org/2000/svg">
    <path d="m7 5c-1.108 0-2 0.892-2 2v34c0 1.108 0.892 2 2 2h34c1.108 0 2-0.892 2-2v-34c0-1.108-0.892-2-2-2zm17 4.291c1.6832-0.00298 3.3666 0.098155 5.0508 0.3125 0.55293 0.048543 0.44576 0.88534-0.10156 0.79297-3.2984-0.41978-6.5985-0.39703-9.9023 0-0.55886 0.10211-0.66102-0.76194-0.09375-0.79297 1.6814-0.20206 3.3637-0.30952 5.0469-0.3125zm-0.02344 2.0664c1.3493-0.0029 2.7065 0.07617 4.0723 0.24609 0.56104 0.0391 0.45612 0.89116-0.09766 0.79297-2.6629-0.33131-5.295-0.309-7.9043 0-0.55887 0.10211-0.66102-0.76194-0.09375-0.79297 1.3336-0.15793 2.6742-0.24319 4.0234-0.24609zm0.04492 2.0879c1.0136 8.26e-4 2.0208 0.05339 3.0195 0.15625 0.53125 0.0547 0.44922 0.85156-0.08203 0.79688-1.9445-0.20025-3.9156-0.20664-5.918 0-0.53125 0.05469-0.61328-0.74218-0.08203-0.79688 1.0287-0.10616 2.0489-0.15707 3.0625-0.15625zm-0.01563 1.7168c0.83695 0 7.685-0.13867 9.2773 3.9199 0.2877 0.03086 0.85918 0.20853 1.2363 0.48817 0.12298 0.09118 0.69125 0.63751 0.94531 1.254 0.07205 0.17487 0.18278 0.2696 0.28906 0.34375 0.44904 0.31329 0.59336 0.60346 0.7207 1.0312 0.21329 0.71655 0.14016 2.2103 0.13086 2.623-0.01053 0.46822-0.12316 1.02-0.62695 1.4863-0.38099 0.35268-0.62996 0.85886-0.84766 1.1895-0.96612 0.96612-1.306 0.97708-1.8359 1.0879l-0.001944 6.4141c-0.09943 0.6231-0.03487 0.74711-0.58594 1 0.07518 0.4962 0.04114 0.93215 0.02734 1.3789l1.8145 0.17383c0.46741 0.0784 0.30307 0.64648-0.19531 0.64648h-20.707c-0.49838 0-0.66272-0.56808-0.19531-0.64648l1.8145-0.17383c-0.0138-0.44676-0.047836-0.88271 0.027344-1.3789-0.55107-0.25289-0.48651-0.3769-0.58594-1l-2e-3 -6.4141c-0.52994-0.11081-0.86485-0.1168-1.8359-1.0879-0.21769-0.33059-0.46666-0.83678-0.84766-1.1895-0.5038-0.46636-0.61642-1.0181-0.62695-1.4863-0.0093-0.41278-0.08243-1.9065 0.13086-2.623 0.12734-0.42779 0.27166-0.71796 0.7207-1.0312 0.10628-0.07415 0.21701-0.16888 0.28906-0.34375 0.25401-0.61651 0.82233-1.1628 0.94531-1.254 0.37715-0.27964 0.94863-0.41445 1.2363-0.44531 1.5925-4.0586 8.4522-3.9628 9.2891-3.9628zm-0.00585 0.81055c-2.5096 0-2.6035 0.1582-2.6035 0.1582l0.39258 3.3301c0-2e-6 1.4738 0.03906 2.2109 0.03906s2.2109-0.03906 2.2109-0.03906l0.39258-3.3301s-0.09396-0.1582-2.6035-0.1582zm-4.1035 1.4707c-0.38788 3.2e-4 -0.70193 0.31525-0.70117 0.70312 3.2e-4 0.38711 0.31406 0.70085 0.70117 0.70117 0.38711-3.2e-4 0.70085-0.31406 0.70117-0.70117 7.58e-4 -0.38788-0.3133-0.7028-0.70117-0.70312zm8.207 0c-0.38788 3.2e-4 -0.70193 0.31525-0.70117 0.70312 3.2e-4 0.38711 0.31406 0.70085 0.70117 0.70117 0.38711-3.2e-4 0.70085-0.31406 0.70117-0.70117 7.55e-4 -0.38788-0.3133-0.7028-0.70117-0.70312zm-10.189 0.04102c-0.36509 6.34e-4 -0.6606 0.29702-0.66016 0.66211 6.32e-4 0.36433 0.29582 0.65952 0.66016 0.66016 0.3651 4.45e-4 0.66148-0.29506 0.66211-0.66016 4.45e-4 -0.36586-0.29625-0.66256-0.66211-0.66211zm12.172 0c-0.36586-4.46e-4 -0.66256 0.29625-0.66211 0.66211 6.33e-4 0.3651 0.29701 0.6606 0.66211 0.66016 0.36433-6.32e-4 0.65952-0.29582 0.66016-0.66016 4.45e-4 -0.36509-0.29506-0.66148-0.66016-0.66211zm-15.381 2.4493c-0.81326 0.07118-1.3206 0.63063-1.2739 0.85145 0 0 0.2525 0.05083 0.26758 0.15234 0.22069 1.4853 0.25783 5.4049 0 5.8516l-0.14453 0.03125c-0.36702 0.07647 0.33177 0.83401 1.1508 0.88281zm18.59 0v7.7694c0.81906-0.04881 1.5785-0.80634 1.2114-0.88281l-0.14453-0.03125c-0.25782-0.4467-0.22068-4.3662 0-5.8516 0.01508-0.10151 0.26758-0.15234 0.26758-0.15234 0.04672-0.22082-0.52123-0.78027-1.3345-0.85145zm-17.66 0.46864v6.4707c2.7576 0.42834 5.5606 0.45137 8.3652 0.43164 2.8046 0.01973 5.6076-0.0033 8.3652-0.43164v-6.4707h-8.3652zm0 7.3633-0.0332 7.3574h16.797l-0.0332-7.3574c-2.9823 0.34524-5.6611 0.33573-8.3652 0.37891-2.7042-0.043181-5.383-0.03367-8.3652-0.37891zm2.4629 1.2344c0.60631-2.22e-4 1.0979 0.49134 1.0977 1.0977 2.22e-4 0.60631-0.49134 1.0979-1.0977 1.0977-0.60631 2.22e-4 -1.0979-0.49134-1.0977-1.0977-2.22e-4 -0.60631 0.49134-1.0979 1.0977-1.0977zm11.805 0c0.60631-2.22e-4 1.0979 0.49134 1.0977 1.0977 2.22e-4 0.60631-0.49134 1.0979-1.0977 1.0977-0.60631 2.22e-4 -1.0979-0.49134-1.0977-1.0977-2.22e-4 -0.60631 0.49134-1.0979 1.0977-1.0977zm-8.9375 0.75586c0.0059-1.29e-4 0.01172-1.29e-4 0.01758 0 0.0059-1.29e-4 0.01172-1.29e-4 0.01758 0h6c0.53385 0 0.53385 0.80078 0 0.80078h-6c-0.53385 0.02344-0.56901-0.77734-0.03516-0.80078zm0.01758 1.4219c0.0059-1.29e-4 0.01172-1.29e-4 0.01758 0h6c0.53385 0 0.53385 0.80078 0 0.80078h-6c-0.53385 0.01172-0.55143-0.78906-0.01758-0.80078zm0.017576 1.4219h6c0.53385 0 0.53385 0.80078 0 0.80078h-6c-0.53385 0-0.53385-0.80078 0-0.80078zm-2.4531 3.4004c0.03876 0.44915 0.04449 0.8985 0 1.3477h10.906c-0.04449-0.44915-0.03876-0.8985 0-1.3477z" fill="#fff"/>
</svg>
