<svg xmlns="http://www.w3.org/2000/svg" viewBox="0 0 48 48"><defs><style>.a{fill:none;stroke:#fff;stroke-linecap:round;stroke-linejoin:round;}</style></defs><path class="a" d="M14,7.85a55.15,55.15,0,0,0-9.5,16A52.72,52.72,0,0,0,14,40a62.44,62.44,0,0,0,17.8,0c3.9-4.9,7.5-10,9.6-15.9-2.7-6.7-5.9-12.1-9.7-16.2A65.56,65.56,0,0,0,14,7.85Z"/><path class="a" d="M16.1,12.05l-6.9,12,6.9,12H29.5l6.8-11.8-6.9-12.1Z"/><path class="a" d="M22.8,7.25l-1-1.8-9.1.4L7.3,14l1.2,1.8"/><path class="a" d="M36.9,15.05H39l4.5,9-3.8,8H37.5"/><path class="a" d="M8.2,31.85l-1,1.8,5.5,8.1,8.7.8,1.1-1.8"/><line class="a" x1="22.5" y1="17.15" x2="16.9" y2="26.95"/><line class="a" x1="28.9" y1="20.95" x2="23.3" y2="30.65"/><line class="a" x1="19.7" y1="22.05" x2="26.1" y2="25.75"/></svg>