<?xml version="1.0" encoding="UTF-8"?>
<svg viewBox="0 0 48 48" xmlns="http://www.w3.org/2000/svg">
    <path d="M24 2A22 22 0 002 24a22 22 0 0022 22 22 22 0 0022-22A22 22 0 0024 2zm-8.262 14.445c.302.01.65.062 1.045.15l-.193 1.407a2.97 2.97 0 00-.66-.072c-.42-.005-.763.107-1.03.34-.266.232-.44.554-.513.964l-.11.756h1.588l-.24 1.334h-1.576l-1.164 6.686h-1.758l1.164-6.686h-1.193l.236-1.334h1.187l.118-.86c.128-.83.463-1.487 1.002-1.972.543-.484 1.242-.723 2.097-.713zm23.698.178H41.2L39.223 28.01H37.65l.12-.828c-.623.677-1.354 1.006-2.194.986-.746-.01-1.347-.296-1.797-.86-.444-.568-.684-1.322-.718-2.261a5.985 5.985 0 01.023-.897l.021-.156a6.359 6.359 0 01.668-2.224c.346-.658.775-1.148 1.284-1.47a2.943 2.943 0 011.697-.464c.815.02 1.452.322 1.912.91l.77-4.123zm-30.006.313c.286-.01.523.08.71.267a.898.898 0 01.292.676.929.929 0 01-.284.695c-.182.183-.418.28-.705.29a.956.956 0 01-.71-.253.892.892 0 01-.29-.674c0-.271.09-.504.268-.697.178-.193.417-.295.719-.304zm10.933 2.906c.687.01 1.28.193 1.78.549.499.355.862.843 1.09 1.46.232.618.313 1.305.244 2.061-.08.85-.312 1.602-.698 2.254-.38.652-.869 1.153-1.466 1.504a3.65 3.65 0 01-1.979.49c-.682-.01-1.272-.192-1.771-.543a3.089 3.089 0 01-1.092-1.451c-.233-.618-.315-1.298-.25-2.039l.021-.154a5.321 5.321 0 01.69-2.145c.38-.642.866-1.137 1.459-1.488a3.603 3.603 0 011.972-.498zm8.451 0c.687.01 1.28.193 1.78.549.499.355.862.843 1.09 1.46.232.618.313 1.305.244 2.061-.08.85-.312 1.602-.698 2.254-.38.652-.868 1.153-1.466 1.504a3.65 3.65 0 01-1.979.49c-.682-.01-1.274-.192-1.773-.543a3.085 3.085 0 01-1.09-1.451c-.232-.618-.314-1.298-.25-2.039l.021-.154a5.321 5.321 0 01.69-2.145c.38-.642.866-1.137 1.459-1.488a3.603 3.603 0 011.972-.498zm-20.623.148H9.95l-1.394 8.02H6.799l1.392-8.02zm28.918 1.32c-.672-.02-1.212.276-1.623.89-.41.612-.636 1.44-.675 2.484-.035.612.06 1.098.283 1.459.227.36.56.546 1.006.556.677.02 1.263-.31 1.757-.986l.6-3.447c-.232-.618-.68-.936-1.348-.955zM15.07 29.396c1.368 1.696 4.844 6.55 11.928 1.398l-1.357-1.398h4.984l-.916 5.267-1.076-1.758c-8.936 6.263-13.021-.718-13.563-3.51z" fill="#fff"/>
</svg>
