<?xml version="1.0" encoding="UTF-8"?>
<svg viewBox="0 0 48 48" xmlns="http://www.w3.org/2000/svg">
    <defs>
        <style>.cls-1{fill:#fff;}</style>
    </defs>
    <g data-name="Layer 1">
        <path class="cls-1" d="M34.78,11A2.25,2.25,0,1,0,37,13.22,2.25,2.25,0,0,0,34.78,11Z"/>
        <path class="cls-1" d="M39.5,39.5H8.5V8.5h31ZM41,5H7A2,2,0,0,0,5,7V41a2,2,0,0,0,2,2H41a2,2,0,0,0,2-2V7a2,2,0,0,0-2-2Z"/>
        <path class="cls-1" d="M24,14.24A9.76,9.76,0,1,0,33.76,24,9.76,9.76,0,0,0,24,14.24Zm0,16A6.26,6.26,0,1,1,30.26,24,6.26,6.26,0,0,1,24,30.26Z"/>
    </g>
</svg>
