<svg xmlns="http://www.w3.org/2000/svg" viewBox="0 0 48 48"><defs><style>.a{fill:none;stroke:#fff;stroke-linecap:round;stroke-linejoin:round;}</style></defs><path class="a" d="M34.5,11.34a2.19,2.19,0,1,0,2.16,2.22V13.5A2.2,2.2,0,0,0,34.5,11.34Z"/><path class="a" d="M39.09,39.09H8.91V8.91H39.09ZM40.55,5.5H7.45a2,2,0,0,0-1.95,2v33.1a2,2,0,0,0,2,2h33.1a2,2,0,0,0,2-2V7.45A2,2,0,0,0,40.55,5.5Z"/><path class="a" d="M24,14.5A9.5,9.5,0,1,0,33.5,24h0A9.5,9.5,0,0,0,24,14.5Zm0,15.58A6.1,6.1,0,1,1,30.1,24v0A6.1,6.1,0,0,1,24,30.1Z"/></svg>