<?xml version="1.0" encoding="UTF-8"?>
<svg version="1.1" viewBox="0 0 48 48" xmlns="http://www.w3.org/2000/svg">
    <path d="m22.998 27.504-2.8448-5.04-2.8233 5.04zm14.267 7.2505 4.9138-2.8958-4.9138-2.9179zm0.47414-6.6537 4.9138 2.9179v-5.8137zm-10.28 5.4158 2.8233-5.04h-5.6681l2.8448 5.04zm-0.02155-11.053-2.8233 5.04h5.6681l-2.8448-5.04zm3.6638 4.5537 2.8448-5.04h-5.6896l2.8448 5.04zm6.1638-7.2284 4.9138-2.8958v-0.02211l-4.9138-2.8958v5.8137zm0 7.4716v0.02211l4.9138-2.9179-4.9138-2.9179zm-32.069-7.4716 4.9138-2.8958v-0.02211l-4.9138-2.8958v5.8137zm0 7.4716v0.02211l4.9138-2.9179-4.9138-2.9179zm15.754 6.7421h5.6897l-2.8448-5.04zm-3.6422-5.5263 2.8448 5.04 2.8233-5.04zm-3.6422-6.499 2.8448 5.04 2.8233-5.04zm-8.4698 12.777 4.9138-2.8958-4.9138-2.9179zm5.3879-3.7358v-5.8137l-4.9138 2.8958zm35.246-6.7473a22 22 0 0 1-22 22 22 22 0 0 1-22-22 22 22 0 0 1 22-22 22 22 0 0 1 22 22z" fill="#fff"/>
</svg>
