<?xml version="1.0" encoding="UTF-8"?>
<svg viewBox="0 0 48 48" xmlns="http://www.w3.org/2000/svg">
    <defs>
        <style>.cls-1{fill:#fff;}</style>
    </defs>
    <g data-name="Layer 1">
        <path class="cls-1" d="M24,2A22,22,0,1,0,46,24,22,22,0,0,0,24,2Zm0,35.91A13.72,13.72,0,0,1,10.47,24,13.72,13.72,0,0,1,24,10.09,13.72,13.72,0,0,1,37.53,24,13.72,13.72,0,0,1,24,37.91Z"/>
        <path class="cls-1" d="M31.63,24.9,21.05,32a1,1,0,0,1-1.6-.85V16.82A1,1,0,0,1,21.06,16L31.64,23.2A1,1,0,0,1,31.63,24.9Z"/>
    </g>
</svg>
