<svg xmlns="http://www.w3.org/2000/svg" viewBox="0 0 48 48"><defs><style>.a{fill:none;stroke:#fff;stroke-linecap:round;stroke-linejoin:round;}</style></defs><path class="a" d="M24.67,6.07a2.07,2.07,0,0,1,2.15,2,2.2,2.2,0,0,1-.08.67c-.22.76-.4,1.51-.58,2.27A40.86,40.86,0,0,0,37,8.13a1.93,1.93,0,1,1,1.67,3.48A46.57,46.57,0,0,1,25.33,15c-.25,1.44-.44,2.84-.59,4.2a35.77,35.77,0,0,1,4.53-.38c.08-.41.41-.79.45-1.2a2.07,2.07,0,0,1,4.13.19,1.23,1.23,0,0,1,0,.27c0,.33-.18.64-.24,1a22.45,22.45,0,0,1,2.28.3,9.59,9.59,0,0,1,6.4,4.93A9.64,9.64,0,0,1,42,32.11a22.76,22.76,0,0,1-6.22,8A2.07,2.07,0,0,1,33,37L33.1,37a19,19,0,0,0,5.13-6.49A5.47,5.47,0,0,0,38.52,26c-.51-1.11-1.6-2.08-3.77-2.69-.51-.14-1.6.08-2.22,0a29.36,29.36,0,0,1-7.79,11c.28,2.37.58,3.85.58,3.85a2.07,2.07,0,1,1-4,1.08c0-.06,0-.12,0-.18s-.17-1-.31-1.82a21.35,21.35,0,0,1-6.56,3c-2.86.7-5.83.53-8.13-1.2A6,6,0,0,1,4,33.6a10.82,10.82,0,0,1,2.85-5.87c2.71-3.1,7.25-5.92,13.62-7.63.14-1.54.34-3.14.6-4.79a61,61,0,0,1-12.19-.67,1.93,1.93,0,1,1,.51-3.82H9.5a57.35,57.35,0,0,0,12.32.57c.27-1.25.58-2.51.93-3.8a2.07,2.07,0,0,1,1.92-1.53ZM25.92,23.2a4.12,4.12,0,0,0-.65.06c-.29,0-.55.12-.84.18-.08,1.79-.11,3.47-.07,5a31.24,31.24,0,0,0,3.17-5.18,5.41,5.41,0,0,1-1.09,0,4.17,4.17,0,0,0-.52,0Zm-5.68,1.27c-5,1.56-8.39,3.85-10.25,6A7,7,0,0,0,8.15,34a1.5,1.5,0,0,0,.62,1.64c1,.78,2.57,1,4.66.49a19.66,19.66,0,0,0,6.92-3.59l.08-.08a70.92,70.92,0,0,1-.19-8Z"/></svg>