<?xml version="1.0" encoding="UTF-8"?>
<svg version="1.1" viewBox="0 0 48 48" xmlns="http://www.w3.org/2000/svg">
    <path d="m27.68 1.6871-7.3839 0.71643v30.816l7.3059-1.1148v-13.138l9.8205 14.572 7.6989-2.4689-10.056-14.014 10.135-13.218-7.8558-1.8307-9.7422 13.218zm-16.738 7.5093c-0.08337 0.0087-0.16392 0.04602-0.22653 0.10998l-2.8981 2.9368c-0.12183 0.1239-0.14481 0.3159-0.05496 0.46584l3.393 5.664c-0.6018 1.0254-1.0841 2.131-1.4288 3.2973l-6.2292 1.3132c-0.17328 0.03642-0.29817 0.192-0.29817 0.37227v4.1532c0 0.17562 0.11856 0.32778 0.28557 0.3687l6.0459 1.4978c0.32241 1.3508 0.82203 2.6312 1.4824 3.8082l-3.4995 5.4087c-0.09765 0.15108-0.07722 0.35028 0.04893 0.47763l2.8971 2.9368c0.12186 0.12321 0.31206 0.14727 0.46065 0.0567l5.484-3.3756c1.0772 0.63 2.2389 1.1258 3.4668 1.462l1.2795 6.2352c0.03606 0.17667 0.19011 0.30222 0.36678 0.30222h4.0983c0.17229 0 0.32265-0.11916 0.36378-0.29046l1.507-6.2478c1.2656-0.3462 2.4627-0.86217 3.5661-1.5208l5.4042 3.5913c0.14859 0.09921 0.34512 0.07926 0.47124-0.04857l2.8981-2.9368c0.12261-0.12426 0.14451-0.31629 0.05448-0.46584l-1.9728-3.2952-0.63825 0.20454c-0.09303 0.0294-0.19449-0.0051-0.24924-0.08745 0 0-1.2583-1.867-2.8834-4.2774-1.9427 3.8535-5.8953 6.4932-10.46 6.4932-6.4848 0-11.742-5.3286-11.742-11.902 0-4.8351 2.8455-8.9934 6.9303-10.856v-3.0702c-0.74343 0.26361-1.4621 0.5814-2.1448 0.95829-5.19e-4 -5.22e-4 -9.81e-4 -0.0019-0.0028-0.0028l-5.5314-3.6768c-0.07449-0.04941-0.1608-0.06909-0.2442-0.06033z" fill="#fff"/>
</svg>
