<?xml version="1.0" encoding="UTF-8"?>
<svg version="1.1" viewBox="0 0 48 48" xmlns="http://www.w3.org/2000/svg">
    <path d="m10.633 8.1816a2.4042 2.4042 0 0 0-2.3691 2.4395v26.506a2.4042 2.4042 0 0 0 4.0039 1.998 2.4043 2.4043 0 0 0 0.009766-0.005859 2.4042 2.4042 0 0 0 0.091797-0.087891l0.070312-0.074219 11.506-11.527 11.596 11.572a2.4042 2.4042 0 1 0 3.3965-3.4023l-13.279-13.254a2.4042 2.4042 0 0 0-1.7266-0.72852 2.4042 2.4042 0 0 0-1.8262 0.8457l-9.0332 9.0566v-20.898a2.4042 2.4042 0 0 0-2.4395-2.4395zm26.523 0.12109a2.4042 2.4042 0 0 0-1.6504 0.72852l-10.506 10.529a2.4042 2.4042 0 0 1 1.6816 0.72461l2.1973 2.1953 10.029-10.053a2.4042 2.4042 0 0 0-1.752-4.125z" fill="#fff"/>
</svg>
