<?xml version="1.0" encoding="UTF-8"?>
<svg viewBox="0 0 48 48" xmlns="http://www.w3.org/2000/svg">
    <path d="m35.577 2c6.3088 0 11.423 5.1143 11.423 11.423 0 6.3088-5.1143 11.423-11.423 11.423-1.7805-0.001454-3.5361-0.41911-5.1265-1.2196l-2.0658 2.0658 15.231 15.231v5.0769h-5.0769l-15.231-15.231v5.0769h-5.0769v5.0769h-5.0769l-5.0769 5.0769h-5.0769v-5.0769l15.231-15.231-15.231-15.231v-5.0769h5.0769l15.231 15.231 2.0724-2.0724c-0.80182-1.5879-1.2217-3.3411-1.2263-5.1199 0-6.3088 5.1143-11.423 11.423-11.423zm4.6538 8.4615c-1.8693 0-3.3846 1.5153-3.3846 3.3846 0 1.8693 1.5153 3.3846 3.3846 3.3846 1.8693 0 3.3846-1.5153 3.3846-3.3846 0-1.8693-1.5153-3.3846-3.3846-3.3846z" fill="#fff"/>
</svg>
