<svg id="Layer_2" data-name="Layer 2" xmlns="http://www.w3.org/2000/svg" viewBox="0 0 48 48"><defs><style>.cls-1{fill:none;stroke:#fff;stroke-linecap:round;stroke-linejoin:round;}</style></defs><path class="cls-1" d="M10.35,4.5a2,2,0,0,0-1.95,2v35.1a2,2,0,0,0,1.95,2h27.3a2,2,0,0,0,2-2V6.45a2,2,0,0,0-2-1.95Zm7,3.9a3.74,3.74,0,0,1,3.74,3.75h0A3.75,3.75,0,1,1,17.32,8.4ZM14.8,21.79H33.2A1.22,1.22,0,0,1,34.43,23v2a1.23,1.23,0,0,1-1.23,1.22H14.8A1.23,1.23,0,0,1,13.57,25V23A1.22,1.22,0,0,1,14.8,21.79Zm0,6.32H33.2a1.22,1.22,0,0,1,1.23,1.22v2a1.22,1.22,0,0,1-1.23,1.22H14.8a1.22,1.22,0,0,1-1.23-1.22v-2A1.22,1.22,0,0,1,14.8,28.11Zm0,6.32H33.2a1.22,1.22,0,0,1,1.23,1.22v2a1.23,1.23,0,0,1-1.23,1.23H14.8a1.23,1.23,0,0,1-1.23-1.23v-2A1.22,1.22,0,0,1,14.8,34.43Z"/></svg>