<?xml version="1.0" encoding="UTF-8"?>
<svg viewBox="0 0 48 48" xmlns="http://www.w3.org/2000/svg">
    <path d="M24.006 1a1.32 1.32 0 00-.667.178L4.556 12.016a1.32 1.32 0 00-.66 1.144v21.68a1.32 1.32 0 00.66 1.142l18.783 10.84a1.32 1.32 0 001.322 0l18.786-10.84a1.32 1.32 0 00.657-1.142V13.16a1.32 1.32 0 00-.657-1.144L24.66 1.178A1.32 1.32 0 0024.006 1zm-.005 9.888c2.77 0 5.043 2.273 5.043 5.043s-2.273 5.043-5.043 5.043-5.043-2.274-5.043-5.043c0-2.77 2.274-5.043 5.043-5.043zm-15.6 9.168c2.686.018 7.563.256 12.026 5.535 2.858 3.381 3.219 7.517 3.299 10.55h.551c.08-3.033.44-7.169 3.298-10.55 4.464-5.28 9.34-5.517 12.027-5.535.044 2.594.46 6.433-3.474 11.573-3.38 4.418-8.501 6.067-11.781 6.025v.005h-.727v-.005c-3.281.03-8.377-1.623-11.746-6.025-3.933-5.14-3.518-8.98-3.473-11.573z" fill="#fff" font-family="sans-serif" font-weight="400" overflow="visible" style="font-feature-settings:normal;font-variant-alternates:normal;font-variant-caps:normal;font-variant-east-asian:normal;font-variant-ligatures:normal;font-variant-numeric:normal;font-variant-position:normal;font-variation-settings:normal;inline-size:0;isolation:auto;mix-blend-mode:normal;shape-margin:0;shape-padding:0;text-decoration-color:#000;text-decoration-line:none;text-decoration-style:solid;text-indent:0;text-orientation:mixed;text-transform:none;white-space:normal"/>
</svg>
