<?xml version="1.0" encoding="UTF-8"?>
<svg width="48" height="48" viewBox="0 0 154.21 167.23" xmlns="http://www.w3.org/2000/svg">
    <path d="m148.25 17.004-0.5343-0.2798c-0.8046-0.4179-20.325-10.245-70.398-10.245s-69.591 9.827-70.397 10.245l-0.5344 0.2798-0.0093 0.5986c-0.0079 0.5108-0.6886 51.288 11.497 79.726 11.094 25.887 26.548 41.519 37.558 50.073 11.964 9.2957 21.181 12.409 21.569 12.538l0.3159 0.1037 0.3174-0.1037c0.385-0.1289 9.6022-3.2421 21.568-12.538 11.01-8.554 26.465-24.186 37.562-50.073 12.184-28.439 11.502-79.215 11.493-79.726z" fill="none"/>
    <path d="m102.14 98.096h-4.7853l-20.253-33.119-20.381 33.059h-28.602a109.11 109.11 0 0 0 13.68 23.359c11.741 14.468 23.971 22.039 30.518 25.377a0.79968 0.79968 0 0 1 0.0817 0.0424c2.964 1.5041 4.6958 2.1861 4.6989 2.1861l0.0047 0.0063s0.3474-0.1257 0.9839-0.3865a92.151 92.151 0 0 0 11.798-6.4686 100.03 100.03 0 0 0 18.623-16.113 106.37 106.37 0 0 0 17.466-27.944zm-11.309 33.523h-8.7472v-11.391h-9.7719v11.391h-8.722v-28.359h8.7692v10.213h9.7247v-10.213h8.7472z" fill="#fff"/>
    <path d="m138.35 23.152 0.0441 0.5154a180.29 180.29 0 0 1-6.1212 56.65h-36.141l-14.266-23.418 24.39-39.867c20.616 1.8891 30.222 5.3732 32.094 6.1197z" fill="none"/>
    <path d="m58.035 80.317 14.208-23.418-24.452-39.856c-20.531 1.8907-30.105 5.3622-31.972 6.1087l-0.0423 0.5154a180.05 180.05 0 0 0 6.1227 56.65zm-31.148-44.492h8.917v10.25l9.2061-10.25h9.5408l-9.9651 11.375 11.296 16.789h-9.4152l-7.2103-10.713-3.4527 3.9413v6.7718h-8.917zm50.217 13.302-19.992-32.773c5.9342-0.3441 12.569-0.5532 19.992-0.5532 7.4223 0 14.062 0.2091 19.993 0.5532z" fill="#fff"/>
    <path d="m76.789 160.06c-0.3866-0.1272-9.6037-3.2422-21.57-12.538-11.01-8.5541-26.465-24.183-37.558-50.073-12.187-28.437-11.507-79.215-11.496-79.726l0.0079-0.5987 0.5344-0.2766c0.806-0.4181 20.325-10.247 70.398-10.247v-6.6004h-0.0017c-53.502 0-74.614 11.586-75.486 12.077l-0.5328 0.3017-0.9916 0.5596-0.0315 1.1378-0.0173 0.6145c-0.0142 0.5406-1.3373 54.53 11.73 85.148 11.909 27.903 28.688 44.621 40.668 53.731 13.083 9.9525 23.304 13.232 23.733 13.366l0.3239 0.1006 0.6034 0.1918h0.0017v-7.0642z" fill="#fff"/>
    <path d="m138.39 23.668-0.0441-0.5154c-1.8717-0.7465-11.479-4.2306-32.094-6.1197l-24.39 39.867 14.266 23.418h36.141a180.29 180.29 0 0 0 6.1212-56.65zm-33.719 40.321v-28.082h8.7409v21.29h12.297s4.0672 6.7546 4.0672 6.7922zm37.761 35.85c-11.911 27.903-28.689 44.621-40.668 53.731-13.083 9.9525-23.306 13.232-23.733 13.366l-0.3238 0.1006-0.6034 0.1918v-5.2364l-0.2861-0.0976c-0.3741-0.1302-14.402-6.2893-21.587-14.207-0.1478-0.1635-0.3096-0.2986-0.4574-0.4401 0.151 0.1196 0.3096 0.242 0.4716 0.3679 11.964 9.2484 21.18 12.346 21.566 12.473l0.2924 0.0958v-0.0204l0.3159-0.1053c0.3897-0.1272 9.6035-3.2422 21.568-12.538 11.012-8.5541 26.466-24.183 37.562-50.073 12.186-28.437 11.504-79.215 11.496-79.726l-0.0094-0.5987-0.5359-0.2766c-0.8046-0.4181-20.292-10.231-70.272-10.247a286.08 286.08 0 0 0-41.583 2.7267s10.605-3.1132 41.459-4.4773v-4.8498c53.508 0 74.614 11.586 75.488 12.077l0.5327 0.3017 0.9902 0.5596 0.033 1.1378 0.0157 0.6145c0.0157 0.5406 1.339 54.523-11.73 85.148z" fill="#fff"/>
    <path d="m137.73 97.477c12.904-33.391 10.239-79.817 10.231-80.328l0.0079 0.6035c0.0109 0.5092 0.6899 51.286-11.494 79.725-11.095 25.887-26.551 41.519-37.56 50.073a97.485 97.485 0 0 1-13.328 8.7614 100.07 100.07 0 0 0 13.658-8.7614c11.28-8.5539 28.296-23.699 38.486-50.073z" fill="#fff"/>
</svg>
