<svg xmlns="http://www.w3.org/2000/svg" viewBox="0 0 48 48"><defs><style>.a{fill:none;stroke:#fff;stroke-linecap:round;stroke-linejoin:round;}</style></defs><path class="a" d="M6.13,7.59A1.64,1.64,0,0,0,4.5,9.25v23.3A1.64,1.64,0,0,0,6.13,34.2h3.6v6.21l6.2-6.21H41.87a1.64,1.64,0,0,0,1.63-1.65V9.25a1.64,1.64,0,0,0-1.63-1.66Zm2.38,4.67a1.79,1.79,0,0,1,1.76,1.81s0,.07,0,.1h0l0,6.61,3.32-3.25h0a1.77,1.77,0,0,1,1.33-.6,1.8,1.8,0,0,1,1.29,3l0,0-2.34,2.31,3.27,4.4,0,0a1.75,1.75,0,0,1,.3,1,1.78,1.78,0,0,1-3.31.94l-3-4-.9.85v2.34h0a1.76,1.76,0,0,1-3.51-.1v0h0V14.13h0a.13.13,0,0,1,0-.06,1.79,1.79,0,0,1,1.77-1.81Zm19,0a1.79,1.79,0,0,1,1.76,1.81s0,.07,0,.1h0l0,6.61,3.32-3.25h0a1.77,1.77,0,0,1,1.33-.6,1.8,1.8,0,0,1,1.29,3l0,0L33,22.31l3.26,4.4,0,0a1.83,1.83,0,0,1,.29,1,1.8,1.8,0,0,1-1.79,1.81,1.76,1.76,0,0,1-1.52-.88l-3-4-.9.85v2.34h0a1.76,1.76,0,0,1-3.51-.1v0h0V14.13h.05s0,0,0-.06a1.79,1.79,0,0,1,1.77-1.81Zm-6.12,4.68a1.79,1.79,0,0,1,1.77,1.81v.05h0v9h0a1.78,1.78,0,1,1-3.55,0h0v-9h0v0a1.79,1.79,0,0,1,1.78-1.81Zm17.79,3.77a2,2,0,1,1-2,2A2,2,0,0,1,39.23,20.71Z"/></svg>