<?xml version="1.0" encoding="UTF-8"?>
<svg version="1.1" viewBox="0 0 48 48" xmlns="http://www.w3.org/2000/svg">
    <path d="m24 2a22 22 0 0 0-22 22 22 22 0 0 0 22 22 22 22 0 0 0 22-22 22 22 0 0 0-22-22zm-9.752 8.3652h9.752 9.752c0.51644-6.5e-5 0.81142 0.59046 0.50195 1.0039l-6.2695 8.3594c-0.11832 0.15835-0.30429 0.25188-0.50195 0.25195h-6.9648c-0.19767-7.4e-5 -0.38364-0.093607-0.50195-0.25195l-6.2695-8.3594c-0.30947-0.41345-0.014484-1.004 0.50195-1.0039zm17.756 5.9688a1.3826 1.3826 0 0 1 1.0996 0.48828c4.4032 4.9164 4.1404 12.484-0.59375 17.08-1.2702 1.2332-2.7455 2.1258-4.3125 2.6973-0.53534 1.8224-2.206 3.168-4.1973 3.168s-3.6619-1.3455-4.1973-3.168c-1.567-0.57145-3.0423-1.4641-4.3125-2.6973-4.7342-4.5962-4.9969-12.164-0.59375-17.08a1.3826 1.3826 0 0 1 1.0645-0.47461 1.3826 1.3826 0 0 1 0.99414 2.3184c-3.4296 3.8293-3.2274 9.673 0.45898 13.252 0.76571 0.74339 1.6271 1.3232 2.5371 1.7578 0.6669-1.5796 2.2318-2.6953 4.0488-2.6953s3.3819 1.1157 4.0488 2.6953c0.91003-0.43456 1.7714-1.0144 2.5371-1.7578 3.6863-3.5789 3.8886-9.4226 0.45898-13.252a1.3826 1.3826 0 0 1 0.95898-2.332z" fill="#fff"/>
    <path d="m-937.37 46.922 312.19 118.42" fill="none" stroke="#fff" stroke-width="60"/>
</svg>
