<?xml version="1.0" encoding="UTF-8"?>
<svg version="1.1" viewBox="0 0 48 48" xmlns="http://www.w3.org/2000/svg">
    <path d="m24 2a22 22 0 0 0-22 22 22 22 0 0 0 22 22 22 22 0 0 0 22-22 22 22 0 0 0-22-22zm4.7695 7.2441c2.7189 0 3.207 3.1035 3.207 3.1035s1.0149-1.3353 1.7363-1.2969c1.2135 0.064722 2.2618 1.3366 2.6719 2.4805 0.5851 1.6321 0.31777 3.7473-0.69531 5.1543-1.9469 2.7039-8.9707 4.4082-8.9707 4.4082s-1.8125-5.4373-1.8125-8.1562 1.1444-5.6934 3.8633-5.6934zm-13.26 2.0664c1.1419 0.024274 2.2964 0.36682 3.1758 1 2.7039 1.9469 4.4082 8.9707 4.4082 8.9707s-5.4373 1.8125-8.1562 1.8125-5.6934-1.1444-5.6934-3.8633 3.1035-3.207 3.1035-3.207-1.3353-1.0149-1.2969-1.7363c0.064722-1.2135 1.3366-2.2618 2.4805-2.6719 0.61202-0.21941 1.2933-0.31925 1.9785-0.30469zm5.873 13.596s1.8125 5.4373 1.8125 8.1562-1.1444 5.6934-3.8633 5.6934-3.207-3.1035-3.207-3.1035-1.0149 1.3353-1.7363 1.2969c-1.2135-0.064722-2.2618-1.3366-2.6719-2.4805-0.5851-1.6321-0.31777-3.7473 0.69531-5.1543 1.9469-2.7039 8.9707-4.4082 8.9707-4.4082zm11.68 0c2.7189 0 5.6934 1.1444 5.6934 3.8633s-3.1035 3.207-3.1035 3.207 1.3353 1.0149 1.2969 1.7363c-0.064722 1.2135-1.3366 2.2618-2.4805 2.6719-1.6321 0.5851-3.7473 0.31777-5.1543-0.69531-2.7039-1.9469-4.4082-8.9707-4.4082-8.9707s5.4373-1.8125 8.1562-1.8125z" fill="#fff"/>
</svg>
