<?xml version="1.0" encoding="UTF-8"?>
<svg viewBox="0 0 48 48" xmlns="http://www.w3.org/2000/svg">
    <defs>
        <style>.cls-1{fill:#fff;}</style>
    </defs>
    <path class="cls-1" d="m36.497 12.36c4.878 0 7.8441 1.7712 8.2377 6.0588l-4.7936 0.59042c-0.22492-2.0805-1.4058-2.924-3.7534-2.924-2.3476 0-3.3879 0.95591-3.3879 2.5866 0 1.6307 0.63259 2.2914 2.7272 2.8115l3.0645 0.70288c4.1048 0.94185 6.3118 2.9942 6.3118 6.846-0.01364 0.07907-0.01364 0.1599 0 0.23898h-4.8498c0-1.3214-0.82939-2.3617-3.2613-2.938l-3.2473-0.85751c-4.0064-0.95591-5.623-3.0224-5.623-6.2837 0.05623-5.2013 4.2735-6.8319 8.5751-6.8319zm-34.497 11.344v-0.42172c0-7.5348 3.655-11.977 10.642-12.005v3.8377c-2.8115 0.14058-5.623 2.2773-5.623 8.0128v0.57636zm9.0952 11.612c-5.0326-0.84345-7.8581-4.4562-7.9987-10.571h5.0466c-0.063329 2.3881 1.0376 4.658 2.9521 6.0869zm3.8096 1.4058h-1.3214c-0.66315-0.0013-1.3254-0.04829-1.9821-0.14058v-4.161c0.68489 0.342 1.4416 0.5155 2.207 0.50607 0.36654-0.0024 0.73264-0.02588 1.0965-0.07029zm0.52013-1.4058v-3.8658c1.7367-0.42343 3.3227-1.3186 4.5827-2.5866l1.5182 4.2173c-1.7428 1.3952-3.873 2.2198-6.101 2.3617zm19.287 0.15463c-8.069-0.07029-10.895-3.7815-12.413-8.4345l-1.5463-4.7936c-1.1387-3.5003-2.4882-6.2134-6.7054-6.2134h-0.23898v-3.6128h0.0984c6.354 0 9.5732 2.2492 11.583 8.4345l1.5744 4.7655c1.1105 3.3879 3.0224 5.876 7.6473 6.0447zm1.3355 1.0965h-0.23898v-3.7674h0.35144c3.2332 0 4.9342-0.70288 4.9342-2.4882h4.9061c-0.11246 4.6109-4.1048 6.4102-9.9527 6.4102z"/>
</svg>
