<?xml version="1.0" encoding="UTF-8"?>
<svg viewBox="0 0 48 48" xmlns="http://www.w3.org/2000/svg">
    <path d="m24 2c0.09931 1.807e-4 0.19806 0.014677 0.29322 0.043042l18.145 5.399c0.43748 0.13083 0.73717 0.53334 0.7371 0.98997v17.866c0 5.2113-2.0878 9.4292-5.4933 12.635-3.4053 3.2063-8.0846 5.4517-13.389 7.0239-0.09516 0.02836-0.19392 0.04286-0.29322 0.04304-0.09931-1.8e-4 -0.19806-0.01468-0.29322-0.04304-5.3042-1.5722-9.9834-3.8176-13.389-7.0239-3.4053-3.2063-5.4933-7.4243-5.4933-12.635v-17.866c-7.3e-5 -0.45662 0.29962-0.85913 0.7371-0.98997l18.145-5.399c0.09516-0.028365 0.19392-0.042862 0.29322-0.043042zm0 2.1117-17.109 5.0897v17.096c0 4.6724 1.7777 8.2464 4.8422 11.132 2.9994 2.8241 7.2972 4.9218 12.264 6.4294h0.0056c4.9673-1.5076 9.2648-3.6053 12.264-6.4294 3.0645-2.8854 4.8422-6.4595 4.8422-11.132v-17.096l-17.109-5.0897zm11.118 11.398c0.36504-1.27e-4 0.65921 0.29674 0.65909 0.66177 3.5e-5 0.0039 3.5e-5 15.652 0 15.656 1.3e-4 0.36504-0.29404 0.6619-0.65909 0.66177-0.36504 1.34e-4 -0.6619-0.29673-0.66177-0.66177-3.4e-5 -0.0039-3.4e-5 -15.652 0-15.656-1.28e-4 -0.36504 0.29674-0.66191 0.66177-0.66177zm-20.025 5.6036c1.5842-2e-6 2.8689 1.2834 2.8704 2.8676 0 1.5853-1.2851 2.8704-2.8704 2.8704-1.5853 0-2.8704-1.2851-2.8704-2.8704 0.0015-1.5842 1.2862-2.8676 2.8704-2.8676zm7.2929 0c1.5842-2e-6 2.8689 1.2834 2.8704 2.8676 0 1.5853-1.2851 2.8704-2.8704 2.8704-1.5853 0-2.8704-1.2851-2.8704-2.8704 0.0015-1.5842 1.2862-2.8676 2.8704-2.8676zm7.2957 0c1.5842-2e-6 2.8689 1.2834 2.8704 2.8676 0 1.5853-1.2851 2.8704-2.8704 2.8704s-2.8704-1.2851-2.8704-2.8704c0.0015-1.5842 1.2862-2.8676 2.8704-2.8676z" fill="#fff"/>
</svg>
