<?xml version="1.0" encoding="UTF-8"?>
<svg data-name="Layer 1" viewBox="0 0 48 48" xmlns="http://www.w3.org/2000/svg">
    <defs>
        <style>.cls-1{fill:#fff;}</style>
    </defs>
    <path class="cls-1" d="M41,5H7A2,2,0,0,0,5,7V41a2,2,0,0,0,2,2H41a2,2,0,0,0,2-2V7A2,2,0,0,0,41,5ZM34.33,39H11.1v-.82h1.13A3,3,0,0,0,15,36.94a7.09,7.09,0,0,0,.47-3.27V14.31c0-1.87-.21-3.05-.62-3.52a3.25,3.25,0,0,0-2.57-1H11.1V9H24.69v.82a8.25,8.25,0,0,0-3.36.44A2.68,2.68,0,0,0,20,11.43a9.55,9.55,0,0,0-.36,3.39V33.67A6,6,0,0,0,20,36.19a1.57,1.57,0,0,0,.82.69,14.84,14.84,0,0,0,3.45.22h2.19a15.8,15.8,0,0,0,4.84-.51,6.37,6.37,0,0,0,2.55-1.8,15.2,15.2,0,0,0,2.3-4.09l.73.16Z"/>
</svg>
