<?xml version="1.0" encoding="UTF-8"?>
<svg data-name="Layer 1" viewBox="0 0 48 48" xmlns="http://www.w3.org/2000/svg">
    <defs>
        <style>.cls-1{fill:#fff;}</style>
    </defs>
    <path class="cls-1" d="M24,2A22,22,0,1,0,46,24,22,22,0,0,0,24,2ZM39,33.06a1.2,1.2,0,0,1-1.2,1.2H10.2A1.2,1.2,0,0,1,9,33.06V14.94a1.2,1.2,0,0,1,1.2-1.2H37.8a1.2,1.2,0,0,1,1.2,1.2Z"/>
    <path class="cls-1" d="M37.49,14.77l-8.62,8.62-.85.84L27,25.29a4.29,4.29,0,0,1-5.92,0L20,24.23l-.85-.85-8.62-8.61-.84.84,8.53,8.54L10,30.88l.77.91L19.05,25l1.14,1.14a5.38,5.38,0,0,0,7.62,0L29,25l8.25,6.79.77-.91L29.8,24.15l8.53-8.54Z"/>
</svg>
