<svg id="Layer_2" data-name="Layer 2" xmlns="http://www.w3.org/2000/svg" viewBox="0 0 48 48"><defs><style>.cls-1{fill:none;stroke:#fff;stroke-linecap:round;stroke-linejoin:round;}</style></defs><path class="cls-1" d="M22.84,7.81,36.19,21.16v19H11.81V7.81h11M23.38,4H9.88A1.85,1.85,0,0,0,8,5.82V42.13C8,43.43,8.57,44,9.88,44H38.12c1.31,0,1.88-.57,1.88-1.87V20.68a2.56,2.56,0,0,0-.7-1.8L25.12,4.7A2.51,2.51,0,0,0,23.38,4Z"/><path class="cls-1" d="M31,4h-.2a1.34,1.34,0,0,0-.71,1.76,1.47,1.47,0,0,0,.24.37l7.53,7.58a1.33,1.33,0,0,0,1.87-.22,1.4,1.4,0,0,0,.27-.64V5.28A1.32,1.32,0,0,0,38.74,4Z"/></svg>