<?xml version="1.0" encoding="UTF-8"?>
<svg data-name="Layer 1" viewBox="0 0 48 48" xmlns="http://www.w3.org/2000/svg">
    <defs>
        <style>.cls-1{fill:#fff;}</style>
    </defs>
    <path class="cls-1" d="M38,14.82C34.6,10.31,26.73,8.33,24.46,7.93c0-.17-.05-.37-.07-.53C24.22,6.05,24,4,22.39,4c-1.33,0-2,1.57-2.52,3a9.67,9.67,0,0,1-.43,1H17.56a10.3,10.3,0,0,1-.81-1c-.9-1.18-1.83-2.4-3-2-1.36.42-.93,2-.65,3.08a5.15,5.15,0,0,1,.28,1.65c-.11.7-1.61,3.27-3.2,6-1,1.77-2.2,3.77-3.44,6C4.09,26.45,4.14,29.36,4.65,31A3.75,3.75,0,0,0,9.72,33.4a2.07,2.07,0,0,0,1.71,1.11c1.33.09,2.4-1.16,3.79-2.72a19,19,0,0,1,4.72-4.18,14.78,14.78,0,0,0,4.56-4.52c-.22,6.29-2.81,8.82-5.32,11.27-2.2,2.13-4.46,4.34-4.46,8.8a.83.83,0,0,0,.83.84H42.79a.84.84,0,0,0,.84-.84C43.63,25.9,41.46,19.52,38,14.82ZM8.44,28.67A1.52,1.52,0,1,1,10,27.16,1.52,1.52,0,0,1,8.44,28.67Zm7.93-12.95c-.65,1.59-2.2,2.13-3,1.55-.51-.37-.25-1.79.5-3.1.87-1.51,1.95-1.55,2.49-1.26S17,14.14,16.37,15.72Z"/>
</svg>
