<?xml version="1.0" encoding="UTF-8"?>
<svg data-name="Layer 1" viewBox="0 0 48 48" xmlns="http://www.w3.org/2000/svg">
    <defs>
        <style>.cls-1{fill:#fff;}</style>
    </defs>
    <path class="cls-1" d="M24,2h0A22,22,0,0,0,2,24V38.57A7.42,7.42,0,0,0,9.46,46H24A22,22,0,0,0,46,24V24A22,22,0,0,0,24,2ZM42.23,24A18.23,18.23,0,0,1,24,42.26H10.76a5,5,0,0,1-5-5V24A18.23,18.23,0,0,1,24,5.74h0A18.23,18.23,0,0,1,42.23,24Z"/>
    <path class="cls-1" d="M24,11.78h0A12.22,12.22,0,0,0,11.78,24v5.56a6.66,6.66,0,0,0,6.66,6.66H24A12.22,12.22,0,0,0,36.22,24h0A12.22,12.22,0,0,0,24,11.78ZM31,24a7,7,0,0,1-7,7H19.44A2.43,2.43,0,0,1,17,28.56V24a7,7,0,0,1,7-7h0a7,7,0,0,1,7,7Z"/>
</svg>
