<?xml version="1.0" encoding="UTF-8"?>
<svg version="1.1" viewBox="0 0 48 48" xmlns="http://www.w3.org/2000/svg">
    <path d="m24 5.2674a21.336 17.183 0 0 0-21.283 16.034 21.338 16.28 0 0 0-0.052033 1.1486 21.336 17.183 0 0 0 21.335 17.184 21.336 17.183 0 0 0 21.283-16.034 21.338 16.28 0 0 0 0.052034-1.1505 21.336 17.183 0 0 0-21.335-17.182zm-16.252 12.226h2.4783v7.4349h4.1318v2.4802h-6.6101v-2.4802zm7.9533 0h6.6101v2.4802h-2.0678v4.9547h2.0678v2.4802h-6.6101v-2.4802h2.064v-4.9547h-2.064zm7.9514 0h2.4783l3.6905 5.4789v-5.4789h2.4783v9.9152h-2.4783l-3.6905-5.4769v5.4769h-2.4783v-9.1539zm9.9884 0h6.6101v2.4802h-4.1299v1.2372h2.4764v2.4802h-2.4764v1.2372h4.1299v2.4802h-6.6101v-7.4349z" fill="#fff"/>
    <path d="m23.804 41.313c-7.8e-5 1.4347-0.05502 3.0978-0.05502 3.0978-0.01795 1.0104 0.56127 1.0496 1.2996 1.0546 1.4201 0.0095 6.9728-3.4878 9.9249-5.9712 6.2216-5.2333 8.5279-10.08 8.5279-10.08l-7.5916 2.1715s-13.847 4.7334-14.099 7.9583c2.2015 0.11042 1.9933 0.33478 1.9932 1.7694z" fill="#fff" stroke-width="1.0458"/>
</svg>
