<svg xmlns="http://www.w3.org/2000/svg" viewBox="0 0 48 48"><defs><style>.a{fill:#069;}.b{fill:none;stroke:#fff;stroke-linecap:round;stroke-linejoin:round;}</style></defs><path class="a" d="M25.39,22.19v-.06l0,.06Z"/><path class="b" d="M39.67,5.5H8.33A2.68,2.68,0,0,0,5.62,8.15v31.7A2.68,2.68,0,0,0,8.33,42.5H39.67a2.68,2.68,0,0,0,2.71-2.65V8.15A2.68,2.68,0,0,0,39.67,5.5Zm-22.91,31H11.21V19.77h5.55ZM14,17.48h0A2.89,2.89,0,1,1,14,11.71a2.89,2.89,0,1,1,0,5.77Zm22.8,19H31.23V27.53c0-2.24-.8-3.77-2.81-3.77a3,3,0,0,0-2.85,2,3.68,3.68,0,0,0-.18,1.35v9.33H19.83s.08-15.14,0-16.7h5.56v2.36a5.5,5.5,0,0,1,5-2.76c3.66,0,6.4,2.39,6.4,7.52Z"/></svg>