<svg id="Layer_2" data-name="Layer 2" xmlns="http://www.w3.org/2000/svg" viewBox="0 0 48 48"><defs><style>.cls-1{fill:none;stroke:#fff;stroke-linecap:round;stroke-linejoin:round;}</style></defs><path class="cls-1" d="M39.76,19.83V15a2,2,0,0,0-2-2H27.94V5.46a1,1,0,0,0-1-1H24a3.93,3.93,0,0,0-3.94,3.94h0v4.64H10.21a2,2,0,0,0-2,2v4.8Z"/><path class="cls-1" d="M8.24,22.8V42.5a1,1,0,0,0,1,1h1.64a8.08,8.08,0,0,0,7.88-7.88v6.9a1,1,0,0,0,1,1h1.63a7.88,7.88,0,0,0,7.88-7.88v6.9a1,1,0,0,0,1,1h1.65a7.88,7.88,0,0,0,7.88-7.88V22.8Z"/><line class="cls-1" x1="18.75" y1="35.6" x2="18.75" y2="22.8"/><line class="cls-1" x1="29.25" y1="35.6" x2="29.25" y2="22.8"/></svg>