<svg xmlns="http://www.w3.org/2000/svg" viewBox="0 0 48 48"><defs><style>.a{fill:none;stroke:#fff;stroke-linecap:round;stroke-linejoin:round;}</style></defs><path class="a" d="M43.08,28.56l-6.42-6.41,4.39-4.3Zm-8.35-18.1a4.77,4.77,0,0,1,5.59,3.78l.3,1.65-5,5-6.49-6.58,3.63-3.53ZM21.29,21.94l6.57-6.51L34.42,22l-6.59,6.55Zm.39,8.52a2,2,0,0,1-1.06.83h0A1.7,1.7,0,0,1,19.87,28h0a1.7,1.7,0,0,1,2,1.2,1.86,1.86,0,0,1-.15,1.29Zm-2.88-23L22,6.89c2.69-.5,5.36.85,6.08,4.8l-2.3.44c-.91-3.1-1.84-3.52-3.41-3.2l-3.17.61c-1.57.3-2.38,1.7-2,4.23L15,14.18C14.34,9.83,16.11,8,18.8,7.51Zm11,3.84-9.62,9.56-6.34-6.5ZM8.36,15.43,12,14.79,19.08,22l-6.57,6.49-8-8.08a4.75,4.75,0,0,1,3.85-4.95ZM5,23.08l6.41,6.42-4.3,4.3Zm8.34,18a4.81,4.81,0,0,1-5.59-3.78l-.3-1.53,5.06-5,7.65,7.65,1.13,1.21Zm13.2-2.57-3.35.73-1.9-1.94,4.29-4.18,2.34-2.41,6.27,6.33ZM39.66,36l-3.78.76-7-7,6.56-6.49,8,8A4.68,4.68,0,0,1,39.69,36Z"/></svg>