<?xml version="1.0" encoding="UTF-8"?>
<svg data-name="Layer 1" viewBox="0 0 48 48" xmlns="http://www.w3.org/2000/svg">
    <defs>
        <style>.cls-1{fill:#fff;}</style>
    </defs>
    <path class="cls-1" d="M24,2A22,22,0,1,0,46,24,22,22,0,0,0,24,2ZM36,38.09H31.17a2,2,0,0,1,0-4h.49V23.89l-5.77,13h0v0h0a2,2,0,0,1-3.65,0h0l-5.8-13v10.2h.41a2,2,0,0,1,0,4H12a2,2,0,1,1,0-4h.41V16.49H12a2,2,0,0,1,0-4h2.41a2,2,0,0,1,1.83,1.19L24,31.17l7.79-17.49a2,2,0,0,1,1.75-1.18H36a2,2,0,1,1,0,4h-.29v17.6H36a2,2,0,1,1,0,4Z"/>
</svg>
