<?xml version="1.0" encoding="UTF-8"?>
<svg version="1.1" viewBox="0 0 48 48" xmlns="http://www.w3.org/2000/svg">
    <path d="m7 5c-1.108 0-2 0.892-2 2v6.5801h38v-6.5801c0-1.108-0.892-2-2-2h-34zm3.5879 1.6602h0.68164c0.62864 2e-7 1.1465 0.51784 1.1465 1.1465v2.9668c0 0.62864-0.51784 1.1465-1.1465 1.1465h-0.68164c-0.62864 0-1.1465-0.51784-1.1465-1.1465v-2.9668c2e-7 -0.62864 0.51784-1.1465 1.1465-1.1465zm6.5352 0h0.68164c0.62864 2e-7 1.1465 0.51784 1.1465 1.1465v2.9668c0 0.62864-0.51784 1.1465-1.1465 1.1465h-0.68164c-0.62864 0-1.1465-0.51784-1.1465-1.1465v-2.9668c2e-6 -0.62864 0.51784-1.1465 1.1465-1.1465zm6.5352 0h0.68164c0.62864 2e-7 1.1484 0.51784 1.1484 1.1465v2.9668c0 0.62864-0.5198 1.1465-1.1484 1.1465h-0.68164c-0.62864 0-1.1465-0.51784-1.1465-1.1465v-2.9668c0-0.62864 0.51784-1.1465 1.1465-1.1465zm6.5371 0h0.68164c0.62864 2e-7 1.1465 0.51784 1.1465 1.1465v2.9668c-1e-6 0.62864-0.51784 1.1465-1.1465 1.1465h-0.68164c-0.62864 0-1.1465-0.51784-1.1465-1.1465v-2.9668c0-0.62864 0.51784-1.1465 1.1465-1.1465zm6.5352 0h0.68164c0.62864 2e-7 1.1465 0.51784 1.1465 1.1465v2.9668c0 0.62864-0.51784 1.1465-1.1465 1.1465h-0.68164c-0.62864 0-1.1465-0.51784-1.1465-1.1465v-2.9668c0-0.62864 0.51784-1.1465 1.1465-1.1465zm-31.73 8.8008v25.539c0 1.108 0.892 2 2 2h34c1.108 0 2-0.892 2-2v-25.539h-38zm8.6016 3.8555h5.6641l4.7129 4.541 4.7148-4.541h5.7051v19.83h-5.2148v-12.936l-5.3008 4.4805-5.3008-4.4805v12.936h-4.9805v-19.83z" fill="#fff"/>
</svg>
