<?xml version="1.0" encoding="UTF-8"?>
<svg version="1.1" viewBox="0 0 48 48" xmlns="http://www.w3.org/2000/svg">
    <path d="m6 8c-1.108 0-2 0.892-2 2v28c0 1.108 0.892 2 2 2h36c1.108 0 2-0.892 2-2v-28c0-1.108-0.892-2-2-2h-36zm5.6406 3.7734 3.0586 5.2969h-3.0586-3.0586l3.0586-5.2969zm7.4102 0h19.084c0.71044 0 1.2832 0.57081 1.2832 1.2812v0.50781c0 0.71044-0.57277 1.2812-1.2832 1.2812h-19.084c-0.71044 0-1.2832-0.57081-1.2832-1.2812v-0.50781c0-0.71044 0.57277-1.2812 1.2832-1.2812zm3.5938 4.2754h15.717c0.58506 0 1.0566 0.47158 1.0566 1.0566v0.95898c0 0.58506-0.47158 1.0566-1.0566 1.0566h-15.717c-0.58506 0-1.0566-0.47158-1.0566-1.0566v-0.95898c0-0.58506 0.47158-1.0566 1.0566-1.0566zm-14.062 2.0508h3.0586 3.0586l-1.5293 2.6484-1.5293 2.6504-1.5293-2.6504-1.5293-2.6484zm17.656 2.2266h12.35c0.45969 0 0.83008 0.37038 0.83008 0.83008v1.4121c0 0.45969-0.37038 0.82812-0.83008 0.82812h-12.35c-0.45969 0-0.83008-0.36843-0.83008-0.82812v-1.4121c0-0.45969 0.37038-0.83008 0.83008-0.83008zm-14.598 4.2754 1.5293 2.6504 1.5293 2.6484h-3.0586-3.0586l1.5293-2.6484 1.5293-2.6504zm7.4102 0h19.084c0.71044 0 1.2832 0.57277 1.2832 1.2832v0.50781c0 0.71044-0.57277 1.2812-1.2832 1.2812h-19.084c-0.71044 0-1.2832-0.57081-1.2832-1.2812v-0.50781c0-0.71044 0.57277-1.2832 1.2832-1.2832zm3.5938 4.2773h15.717c0.58506 0 1.0566 0.47158 1.0566 1.0566v0.95898c0 0.58506-0.47158 1.0566-1.0566 1.0566h-15.717c-0.58506 0-1.0566-0.47158-1.0566-1.0566v-0.95898c0-0.58506 0.47158-1.0566 1.0566-1.0566zm-14.062 2.0508h3.0586 3.0586l-3.0586 5.2969-3.0586-5.2969zm17.656 2.2266h12.35c0.45969 0 0.83008 0.37038 0.83008 0.83008v1.4121c0 0.45969-0.37038 0.82812-0.83008 0.82812h-12.35c-0.45969 0-0.83008-0.36843-0.83008-0.82812v-1.4121c0-0.45969 0.37038-0.83008 0.83008-0.83008z" fill="#fff"/>
</svg>
