<svg id="Layer_2" data-name="Layer 2" xmlns="http://www.w3.org/2000/svg" viewBox="0 0 48 48"><defs><style>.cls-1{fill:none;stroke:#fff;stroke-linecap:round;stroke-linejoin:round;}</style></defs><path class="cls-1" d="M6.45,8.4A2,2,0,0,0,4.5,10.35v27.3a2,2,0,0,0,2,2h35.1a2,2,0,0,0,2-2V10.35a2,2,0,0,0-2-1.95ZM12,13.58l1.71,3H10.24ZM10.24,19h3.42l-.85,1.48L12,21.91l-.86-1.48ZM12,26.07l1.71,3H10.24Zm-1.71,5.37h3.42l-.85,1.48L12,34.41l-.86-1.49Z"/><line class="cls-1" x1="17.92" y1="13.58" x2="39.03" y2="13.58"/><line class="cls-1" x1="39.03" y1="17.75" x2="21.65" y2="17.75"/><line class="cls-1" x1="25.37" y1="21.91" x2="39.03" y2="21.91"/><line class="cls-1" x1="17.92" y1="26.09" x2="39.03" y2="26.09"/><line class="cls-1" x1="39.03" y1="30.25" x2="21.65" y2="30.25"/><line class="cls-1" x1="25.37" y1="34.42" x2="39.03" y2="34.42"/></svg>