<svg xmlns="http://www.w3.org/2000/svg" viewBox="0 0 48 48"><defs><style>.a{fill:none;stroke:#fff;stroke-linecap:round;stroke-linejoin:round;}</style></defs><path class="a" d="M12.71,22.27a5.75,5.75,0,0,1,5.76-5.75h0a5.74,5.74,0,0,1,5.75,5.75v9.21"/><polyline class="a" points="12.71 31.48 12.71 22.27 12.71 16.52 9.5 16.52"/><path class="a" d="M24.22,22.27A5.75,5.75,0,0,1,30,16.52h0a5.74,5.74,0,0,1,5.75,5.75V29.6a1.88,1.88,0,0,0,2.77,1.65h0"/><path class="a" d="M40.5,42.5H7.5a2,2,0,0,1-2-2V7.5a2,2,0,0,1,2-2h33a2,2,0,0,1,2,2v33A2,2,0,0,1,40.5,42.5Z"/></svg>