<?xml version="1.0" encoding="UTF-8"?>
<svg width="48" height="48" version="1.1" viewBox="-.97147 -.97147 8.626 8.6262" xmlns="http://www.w3.org/2000/svg">
    <path d="m2.5837 2.6479c-0.27288 0-0.49449-0.2213-0.49449-0.49388 0-0.27319 0.2216-0.49449 0.49449-0.49449 0.27288 0 0.49388 0.2213 0.49388 0.49449 0 0.27258-0.22099 0.49388-0.49388 0.49388m0.75791-3.2599c-2.184 0-3.9534 1.7698-3.9534 3.9534 0 1.8949 1.3336 3.4785 3.1128 3.864v-3.5478l2.442e-4 -2.442e-4c0.0039445-0.17124 0.14041-0.30921 0.31012-0.31562v-2.442e-4h0.49937c0.023198 0 0.042123-0.018314 0.043344-0.041203l2.442e-4 -3.9117m2.7117 6.1094c-0.27258 0-0.49418-0.2213-0.49418-0.49449 0-0.27227 0.2216-0.49357 0.49418-0.49357s0.49418 0.2213 0.49418 0.49357c0 0.27319-0.2216 0.49449-0.49418 0.49449m-1.1584 0c-0.27258 0-0.49388-0.2213-0.49388-0.49449 0-0.27227 0.2213-0.49357 0.49388-0.49357 0.27288 0 0.49418 0.2213 0.49418 0.49357 0 0.27319-0.2213 0.49449-0.49418 0.49449m-1.159 0c-0.27258 0-0.49449-0.2213-0.49449-0.49449 0-0.27227 0.22191-0.49357 0.49449-0.49357 0.27319 0 0.49449 0.2213 0.49449 0.49357 0 0.27319-0.2213 0.49449-0.49449 0.49449m0.080883-6.0803v4.0789l-9.392e-4 9.392e-4c-0.0015024 0.17643-0.14529 0.31898-0.32233 0.31898h-0.48655c-0.024419 0-0.043954 0.019535-0.043954 0.043644v3.4181c0.12057 0.010989 0.24205 0.017093 0.36568 0.017093 2.1837 0 3.9534-1.7704 3.9534-3.9541 0-2.0179-1.5122-3.683-3.4654-3.9235" fill="#fff" stroke-width=".9392"/>
</svg>
