<?xml version="1.0" encoding="UTF-8"?>
<svg version="1.1" viewBox="0 0 48 48" xmlns="http://www.w3.org/2000/svg">
    <g fill="#fff">
        <path d="m7 5c-1.11 0-2 0.892-2 2v34c0 1.11 0.892 2 2 2h34c1.11 0 2-0.892 2-2v-34c0-1.11-0.892-2-2-2zm17 7a12 12 0 0 1 12 12 12 12 0 0 1 -12 12 12 12 0 0 1 -12 -12 12 12 0 0 1 12 -12z"/>
        <path d="m29.5 13.3c-7.52 0-11.5 4.66-11.5 10.7l7-5.9c0-0.199 0.0608-0.432 0.17-0.686 0.611-1.42 2.74-3.51 4.34-4.07z"/>
        <circle cx="24" cy="24" r="6"/>
    </g>
</svg>
