<svg xmlns="http://www.w3.org/2000/svg" viewBox="0 0 48 48"><defs><style>.a{fill:none;stroke:#fff;stroke-linecap:round;stroke-linejoin:round;}.b{fill:#fff;}</style></defs><path class="a" d="M11.15,21.93l2.93-2.72,3.26,3.21L27,13.51l9.85,9.43V7.21H11.15Zm8.55-12a2.92,2.92,0,1,1-2.87,3V12.8A2.9,2.9,0,0,1,19.7,9.9Z"/><path class="a" d="M38,4H10A2,2,0,0,0,8,6V42a2,2,0,0,0,2,2H38a2,2,0,0,0,2-2V6A2,2,0,0,0,38,4ZM31.28,41.13a6.09,6.09,0,0,1-6.17-6.08,6.17,6.17,0,1,1,6.17,6.08ZM40,23.88a2,2,0,0,1-2,2H10a2,2,0,0,1-2-2"/><line class="a" x1="14.83" y1="31.01" x2="21.26" y2="31.01"/><line class="a" x1="21.26" y1="35.14" x2="14.83" y2="35.14"/><line class="a" x1="14.83" y1="39" x2="21.34" y2="39"/><line class="a" x1="28.45" y1="32.09" x2="34.18" y2="37.82"/><line class="a" x1="28.43" y1="37.86" x2="34.16" y2="32.13"/><path class="b" d="M11.9,39.75a.75.75,0,1,1,0-1.5.75.75,0,0,1,0,1.5Z"/><path class="b" d="M11.9,35.89a.75.75,0,1,1,0-1.5.75.75,0,0,1,.75.74.77.77,0,0,1-.75.76Z"/><path class="b" d="M11.9,31.75a.75.75,0,0,1-.75-.75.74.74,0,0,1,.75-.74.75.75,0,0,1,.75.75h0a.77.77,0,0,1-.75.74Z"/></svg>