<svg id="Layer_2" data-name="Layer 2" xmlns="http://www.w3.org/2000/svg" viewBox="0 0 48 48"><defs><style>.cls-1{fill:none;stroke:#fff;stroke-linecap:round;stroke-linejoin:round;}</style></defs><path class="cls-1" d="M37,12a22,22,0,0,0-6.49-4L24,30.16,17.51,8A20.74,20.74,0,0,0,11,12c-3.94,3.46-6.94,8.36-6.49,16.3C4.91,34.66,9.41,40,9.41,40h9.73s-7.89-4.2-9.73-10.62c-2.21-7.69.91-12.84,4.05-15.48.92-.78,1.83-1.21,2.43.89,1.84,6.43,8.11,25,8.11,25s6.2-18.31,8.11-25c.55-1.95,1-2.08,2.43-.89a15,15,0,0,1,4.05,15.48C36.68,36,29.67,40,29.67,40h8.92s4.51-5.36,4.86-11.67c.46-8-2.52-12.86-6.48-16.3Z"/></svg>