<svg id="Layer_2" data-name="Layer 2" xmlns="http://www.w3.org/2000/svg" viewBox="0 0 48 48"><defs><style>.cls-1{fill:none;stroke:#fff;stroke-linecap:round;stroke-linejoin:round;}</style></defs><line class="cls-1" x1="11.81" y1="18.5" x2="11.81" y2="29.5"/><line class="cls-1" x1="19.19" y1="29.5" x2="19.19" y2="18.5"/><line class="cls-1" x1="11.81" y1="18.5" x2="19.19" y2="29.5"/><path class="cls-1" d="M5.5,16V32a2,2,0,0,0,2,2h16a2,2,0,0,0,2-2V16a2,2,0,0,0-2-2H7.5A2,2,0,0,0,5.5,16Z"/><path class="cls-1" d="M13.23,14V6.5a2,2,0,0,1,2-2H40.5a2,2,0,0,1,2,2v35a2,2,0,0,1-2,2H15.23a2,2,0,0,1-2-2V34"/></svg>