<?xml version="1.0" encoding="UTF-8"?>
<svg version="1.1" viewBox="0 0 48 48" xmlns="http://www.w3.org/2000/svg">
    <path d="m19.795 3c-0.525 0-0.95506 0.38931-1.0391 0.88281l-0.78711 5.5645a15.54 15.54 0 0 0-3.5488 2.0684l-5.2305-2.1094a1.05 1.05 0 0 0-1.2812 0.45117l-4.1992 7.2754c-0.2625 0.4515-0.14705 1.0183 0.25195 1.3438l4.4316 3.4766a16.485 16.485 0 0 0-0.14844 2.0469c0 0.693 0.064438 1.3768 0.14844 2.0488l-4.4316 3.4746c-0.399 0.315-0.51445 0.88175-0.25195 1.3438l4.1992 7.2773c0.2625 0.4515 0.80875 0.64017 1.2812 0.45117l5.2305-2.1113c1.0815 0.8295 2.2678 1.5329 3.5488 2.0684l0.78711 5.5664c0.084 0.4935 0.51406 0.88086 1.0391 0.88086h8.4004c0.525 0 0.95506-0.38736 1.0391-0.88086l0.78711-5.5664a15.54 15.54 0 0 0 3.5488-2.0684l5.2305 2.1113a1.05 1.05 0 0 0 1.2793-0.45117l4.2012-7.2773c0.2625-0.4515 0.14705-1.0183-0.25195-1.3438l-4.4316-3.4746c0.084-0.672 0.14648-1.3558 0.14648-2.0488s-0.062485-1.3749-0.14648-2.0469l4.4414-3.4766c0.399-0.315 0.51445-0.88175 0.25195-1.3438l-4.1992-7.2754c-0.2625-0.4515-0.80875-0.64017-1.2812-0.45117l-5.2285 2.1094c-1.0815-0.8295-2.2678-1.5329-3.5488-2.0684l-0.78906-5.5645c-0.0945-0.4935-0.52383-0.88281-1.0488-0.88281h-8.4004zm3.791 8.1602c0.69083-0.020216 1.3808 0.015468 2.0645 0.10547 2.7345 0.36 5.3545 1.5947 7.4043 3.6445l-3.877 3.877c1.3382 1.3307 2.168 3.1736 2.168 5.2129 0 2.0333-0.82454 3.8715-2.1562 5.2012l3.8652 3.8652c-4.0997 4.0997-10.477 4.9399-15.498 2.041s-7.483-8.8411-5.9824-14.441c0.88105-3.2881 3.0344-6.0948 5.9824-7.7969 1.8829-1.0871 3.9568-1.6483 6.0293-1.709zm0.16992 5.4902c-0.063412 0.001945-0.12604 0.017882-0.18945 0.021484 0.10273-0.005913 0.20476-0.013962 0.30859-0.015625-0.039857 5.7e-4 -0.079274-0.007083-0.11914-0.005859zm1.1113 0.054687c0.059399 0.00701 0.11683 0.018929 0.17578 0.027344-0.058839-0.008664-0.11675-0.020119-0.17578-0.027344zm-2.1094 0.056641c-0.07888 0.013411-0.15772 0.019115-0.23633 0.035156 0.077441-0.015711 0.15802-0.021896 0.23633-0.035156zm-1.1816 0.30273c-0.12543 0.043721-0.2512 0.085873-0.375 0.13672 0.12265-0.050386 0.24912-0.092875 0.375-0.13672zm-0.50977 0.19336c-0.18081 0.078474-0.35882 0.1658-0.53516 0.25977 0.17427-0.0932 0.35282-0.18056 0.53516-0.25977zm-0.5957 0.29102c-0.054452 0.029658-0.1101 0.054785-0.16406 0.085938-0.2207 0.12742-0.42792 0.27243-0.63086 0.42188 0.25379-0.18482 0.518-0.35639 0.79492-0.50781zm-0.81836 0.52148c-0.25749 0.1911-0.50365 0.39518-0.73438 0.61524 0.23089-0.22041 0.47633-0.42587 0.73438-0.61524zm-2.6953 3.8281c-0.019969 0.065046-0.05068 0.12543-0.068359 0.19141-0.13325 0.49729-0.19422 0.99675-0.22266 1.4941 0.033003-0.58319 0.1297-1.1471 0.29102-1.6855zm-0.30078 2.3379c0.004653 0.14534 0.008258 0.28952 0.021484 0.43359-0.012908-0.14304-0.016866-0.28828-0.021484-0.43359zm0.15625 1.3203c0.023312 0.10695 0.053986 0.21079 0.082031 0.31641-0.027645-0.10526-0.058984-0.20935-0.082031-0.31641zm0.33398 1.1055c0.022774 0.058198 0.040195 0.11819 0.064454 0.17578-0.023978-0.057347-0.041898-0.1177-0.064454-0.17578zm0.52734 1.0801c0.036489 0.061154 0.07302 0.12151 0.11133 0.18164-0.037986-0.060043-0.075051-0.12043-0.11133-0.18164zm0.75195 1.0488c0.008195 0.009437 0.017144 0.017944 0.025391 0.027343-0.008179-0.009406-0.017259-0.017895-0.025391-0.027343zm2.2832 1.7617c0.06442 0.032129 0.12836 0.065605 0.19336 0.095704-0.065287-0.030532-0.12912-0.063357-0.19336-0.095704z" fill="#fff" stroke-width="1.05"/>
    <ellipse cx="24.027" cy="23.995" rx="7.513" ry="7.3583" fill="#fff"/>
    <ellipse cx="24.196" cy="26.124" rx=".15468" ry=".26517" fill="#fff"/>
    <path d="m18 9.791-0.9082 0.41797 6.4551 14 0.90625-0.41797z" color="#000000" color-rendering="auto" dominant-baseline="auto" fill="#fff" image-rendering="auto" shape-rendering="auto" solid-color="#000000" style="font-feature-settings:normal;font-variant-alternates:normal;font-variant-caps:normal;font-variant-ligatures:normal;font-variant-numeric:normal;font-variant-position:normal;isolation:auto;mix-blend-mode:normal;shape-padding:0;text-decoration-color:#000000;text-decoration-line:none;text-decoration-style:solid;text-indent:0;text-orientation:mixed;text-transform:none;white-space:normal"/>
    <path d="m10.105 20.512-0.21094 0.97656 14 3 0.21094-0.97656z" color="#000000" color-rendering="auto" dominant-baseline="auto" fill="#fff" image-rendering="auto" shape-rendering="auto" solid-color="#000000" style="font-feature-settings:normal;font-variant-alternates:normal;font-variant-caps:normal;font-variant-ligatures:normal;font-variant-numeric:normal;font-variant-position:normal;isolation:auto;mix-blend-mode:normal;shape-padding:0;text-decoration-color:#000000;text-decoration-line:none;text-decoration-style:solid;text-indent:0;text-orientation:mixed;text-transform:none;white-space:normal"/>
    <path d="m23.555 23.771-6.4688 12.625 0.89062 0.45703 6.4688-12.625z" color="#000000" color-rendering="auto" dominant-baseline="auto" fill="#fff" image-rendering="auto" shape-rendering="auto" solid-color="#000000" style="font-feature-settings:normal;font-variant-alternates:normal;font-variant-caps:normal;font-variant-ligatures:normal;font-variant-numeric:normal;font-variant-position:normal;isolation:auto;mix-blend-mode:normal;shape-padding:0;text-decoration-color:#000000;text-decoration-line:none;text-decoration-style:solid;text-indent:0;text-orientation:mixed;text-transform:none;white-space:normal"/>
</svg>
