<svg xmlns="http://www.w3.org/2000/svg" viewBox="0 0 48 48"><defs><style>.a{fill:none;stroke:#fff;stroke-linecap:round;stroke-linejoin:round;}</style></defs><path class="a" d="M24,2.5l-1,0V13.26h-2V2.73c-.65.09-1.28.21-1.92.36V13.26h-2V3.65A21.49,21.49,0,0,0,3.65,17.14h9.61v2H3.08c-.15.63-.26,1.27-.35,1.91H13.26v2H2.55c0,.32,0,.64,0,1s0,.64,0,1H13.26v2H2.73c.09.65.21,1.28.35,1.92H13.26v2H3.65a21.51,21.51,0,0,0,13.49,13.5V34.74h2V44.92c.64.15,1.27.26,1.92.35V34.74h2V45.45c.32,0,.64,0,1,0s.64,0,1,0V34.74h2V45.27c.65-.09,1.28-.21,1.92-.35V34.74h2v9.61A21.47,21.47,0,0,0,44.35,30.86H34.74v-2H44.92c.15-.64.26-1.27.35-1.92H34.74V25H45.45c0-.32,0-.64,0-1s0-.64,0-1H34.74v-2H45.27c-.09-.64-.21-1.28-.35-1.91H34.74v-2h9.61A21.47,21.47,0,0,0,30.86,3.65v9.61h-2V3.08c-.64-.14-1.27-.26-1.92-.35V13.26H25V2.55ZM17.91,17.14H30.09a.76.76,0,0,1,.77.77V30.09a.76.76,0,0,1-.77.77H17.91a.76.76,0,0,1-.77-.77V17.91A.76.76,0,0,1,17.91,17.14Z"/></svg>