<?xml version="1.0" encoding="UTF-8"?>
<svg version="1.1" viewBox="0 0 48 48" xmlns="http://www.w3.org/2000/svg">
    <path d="m7 5c-1.108 0-2 0.892-2 2v34c0 1.108 0.892 2 2 2h34c1.108 0 2-0.892 2-2v-34c0-1.108-0.892-2-2-2h-34zm17 3.7344c8.4312 -0.000507 15.266 6.8344 15.266 15.266 0.000507 8.4312-6.8344 15.266-15.266 15.266-8.4312 0.000507 -15.266-6.8344-15.266-15.266 0-1.4838 0.02635-2.0293 0.7793-2.0293 0.71907 0 0.45703 0.93088 0.45703 2.0293 0.00006 7.7481 6.2812 14.029 14.029 14.029 7.7481-0 14.029-6.2812 14.029-14.029-0 -7.7481-6.2812-14.029-14.029-14.029-0.96457 0-1.9414 0.16245-1.9414-0.47266 0-0.74422 0.62212-0.76367 1.9414-0.76367zm-7.3984 1.0625c0.48632-0.039471 0.95643 0.10682 1.2988 0.44922 0.6848 0.6848 0.58703 1.8856-0.21875 2.6914l-4.7773 4.7773c-0.80578 0.80578-2.0066 0.90355-2.6914 0.21875-0.68481-0.6848-0.58703-1.8837 0.21875-2.6895l4.7793-4.7793c0.40289-0.40289 0.9043-0.6285 1.3906-0.66797zm-0.42383 9.041h8.3652c1.6443 0 2.9766 1.3303 2.9766 2.9746v7.2344c0 0.064799-0.054007 0.11683-0.11719 0.11523h-2.2031c-0.064798 0-0.11524-0.052387-0.11524-0.11719v-6.4062c0-0.90236-0.73045-1.6328-1.6328-1.6328h-4.8047c-0.064799 0-0.11719 0.052388-0.11719 0.11719v7.9219c0 0.064799-0.052388 0.11719-0.11719 0.11719h-2.2344c-0.0648 0-0.11523-0.052054-0.11523-0.11523v-10.096c0-0.063169 0.050434-0.11328 0.11523-0.11328zm13.412 0h2.2324c0.064799 0 0.11523 0.050434 0.11523 0.11523v10.094c0 0.064799-0.050434 0.11523-0.11523 0.11523h-2.2324c-0.064798 0-0.11719-0.050434-0.11719-0.11523v-10.094c0-0.064799 0.052388-0.11523 0.11719-0.11523zm-8.9336 4.0215h2.2344c0.064797 0 0.11719 0.052387 0.11719 0.11719v6.0700 0.064799-0.052387 0.11523-0.11719 0.11523h-2.2344c-0.064799 0-0.11719-0.050434-0.11719-0.11523v-6.0703c0-0.064797 0.052388-0.11719 0.11719-0.11719z" fill="#fff"/>
</svg>
