<?xml version="1.0" encoding="UTF-8"?>
<svg enable-background="new 0 0 48 48" version="1.0" viewBox="0 0 48 48" xml:space="preserve" xmlns="http://www.w3.org/2000/svg">
<style type="text/css">
	.st0{fill:#FFFFFF;}
</style>

	
		<path class="st0" d="m41 5h-34c-1.1 0-2 0.9-2 2v34c0 1.1 0.9 2 2 2h34c1.1 0 2-0.9 2-2v-34c0-1.1-0.9-2-2-2zm-29.7 14.1v-3.7-3.7c0-0.4 0.1-0.5 0.5-0.5h7.3c0.4 0 0.5 0.1 0.5 0.5v7.3c0 0.4-0.1 0.5-0.5 0.5h-7.3c-0.5 0-0.5 0-0.5-0.4zm17 17.7v-3.7c0-0.6-0.1-0.7-0.7-0.7h-7.5c-0.6 0-0.6 0-0.6 0.6v3.8h-4v-11.9-0.4c0-0.3 0.1-0.4 0.4-0.4h3c0.8 0 0.8 0 0.8-0.8v-3c0-0.4 0.1-0.5 0.5-0.5h7.4c0.4 0 0.5 0.1 0.5 0.5v3.2c0 0.5 0.1 0.6 0.6 0.6h3.1c0.6 0 0.6 0 0.6 0.6v12.1h-4.1zm8.4-17.3h-7.9c-0.5 0-0.5 0-0.5-0.5v-7.3c0-0.5 0-0.6 0.6-0.6h7.9c-0.1 2.9-0.1 5.7-0.1 8.4z"/>
	

</svg>
