<?xml version="1.0" encoding="UTF-8"?>
<svg version="1.1" viewBox="0 0 48 48" xmlns="http://www.w3.org/2000/svg">
    <path d="M7 5c-1.108 0-2 .892-2 2v34c0 1.108.892 2 2 2h34c1.108 0 2-.892 2-2V7c0-1.108-.892-2-2-2H7zm6.121 5.842l1.166 1.166-2.836 2.836-1.166 1.166-1.164-1.166-1.201-1.2 1.166-1.165 1.2 1.199 2.835-2.836zm4.52 1.76h20.558a.82.82 0 01.822.824.82.82 0 01-.822.824H17.641a.822.822 0 01-.825-.824c0-.457.368-.824.825-.824zm-4.52 8.859l1.166 1.166-2.836 2.836-1.166 1.166-1.164-1.166-1.201-1.2 1.166-1.165 1.2 1.199 2.835-2.836zm4.52 1.76h20.558a.82.82 0 01.822.824.82.82 0 01-.822.824H17.641a.822.822 0 01-.825-.824c0-.457.368-.824.825-.824zm-6.537 8.156a3.3 3.3 0 013.287 3.287 3.3 3.3 0 01-3.287 3.287 3.3 3.3 0 01-3.288-3.287 3.3 3.3 0 013.288-3.287zm0 1.6c-.942 0-1.688.746-1.688 1.687 0 .941.746 1.686 1.688 1.686.94 0 1.687-.745 1.687-1.686s-.746-1.687-1.687-1.687zm6.537.86h20.558c.457 0 .822.37.822.827a.82.82 0 01-.822.824H17.641a.822.822 0 01-.825-.824c0-.457.368-.826.825-.826z" fill="#fff"/>
</svg>
