<?xml version="1.0" encoding="UTF-8"?>
<svg viewBox="0 0 48 48" xmlns="http://www.w3.org/2000/svg">
    <path d="M24 2A22 22 0 002 24a22 22 0 0022 22 22 22 0 0022-22A22 22 0 0024 2zm-1.879 9.1c.877.01 1.71.535 2.063 1.39l1.722 4.18a15.433 15.433 0 015.8-1.092l1.753 4.117c.863.21 1.718.477 2.559.84v7.752c-2.046-.797-3.964-1.23-5.864-1.312l1.475 3.574a2.26 2.26 0 01-1.22 2.937l-7.874 3.246a2.262 2.262 0 01-2.937-1.222L12.15 17.45a2.262 2.262 0 011.223-2.937l7.873-3.246c.285-.118.583-.172.875-.168zm-.006 1.494a.785.785 0 00-.297.06L13.945 15.9a.734.734 0 00-.408.98l7.447 18.06c.164.396.583.569.979.406l7.873-3.246a.731.731 0 00.406-.979l-1.701-4.127c-1.717.119-3.443.53-5.258 1.293l-3.29-7.719c1.438-1.386 2.956-2.47 4.546-3.279l-1.742-4.227a.73.73 0 00-.682-.468z" fill="#fff"/>
</svg>
