<svg id="Layer_2" data-name="Layer 2" xmlns="http://www.w3.org/2000/svg" viewBox="0 0 48 48"><defs><style>.cls-1{fill:none;stroke:#fff;stroke-linecap:round;stroke-linejoin:round;}</style></defs><path class="cls-1" d="M28.35,19.51a2.93,2.93,0,0,0-3.08-2.93,3.05,3.05,0,0,0-2.77,3.09v2.71a2.93,2.93,0,0,0,2.93,2.93h0a2.92,2.92,0,0,0,2.92-2.93V19.51"/><polyline class="cls-1" points="11.74 25.31 11.74 16.58 16.1 25.32 20.45 16.59 20.45 25.32"/><path class="cls-1" d="M30.41,25.3V16.57h1.48a4.37,4.37,0,0,1,4.37,4.37h0a4.37,4.37,0,0,1-4.37,4.36Z"/><path class="cls-1" d="M24,43.5c1.69,0,15.25-7.77,15.25-16.94v-20c-4,0-15.25-2-15.25-2s-11.26,2-15.25,2v20C8.75,35.73,22.31,43.5,24,43.5Z"/></svg>