<?xml version="1.0" encoding="UTF-8"?>
<svg data-name="Layer 1" viewBox="0 0 48 48" xmlns="http://www.w3.org/2000/svg">
    <defs>
        <style>.cls-1{fill:#fff;}</style>
    </defs>
    <path class="cls-1" d="M19.32,17.45V30.57a.94.94,0,0,0,1.46.78l9.67-6.52a.93.93,0,0,0,0-1.55l-9.66-6.61A.94.94,0,0,0,19.32,17.45Z"/>
    <path class="cls-1" d="M24,2A22,22,0,1,0,46,24,22,22,0,0,0,24,2ZM37,24A13,13,0,1,1,24,11,13,13,0,0,1,37,24ZM24,42.33A18.32,18.32,0,0,1,21.24,5.9a2.88,2.88,0,1,1,.17,2A16.32,16.32,0,1,0,40.33,24a1,1,0,0,1,2,0A18.35,18.35,0,0,1,24,42.33Z"/>
</svg>
