<?xml version="1.0" encoding="UTF-8"?>
<svg version="1.1" viewBox="0 0 48 48" xmlns="http://www.w3.org/2000/svg">
    <path d="m9.1172 5c-0.61202-0.014191-1.1167 0.48978-1.1172 1.1172v17.883 17.883c7.525e-4 0.86034 0.90935 1.3983 1.6367 0.96875l15.109-8.9414 15.111-8.9414c0.7266-0.43084 0.7266-1.5067 0-1.9375l-15.111-8.9414-15.109-8.9414c-0.15849-0.093604-0.33665-0.14419-0.51953-0.14844zm10.125 10.867 1.5488 0.070312v0.099609c-0.056409 0.67269 0.058123 1.0588 0.26758 1.4004 0.21358 0.34833 0.56567 0.6694 0.99805 1.0547 0.86467 0.77052 2.0076 1.9335 1.9746 4.0918l-1.5527-0.021484c0.025585-1.6721-0.60735-2.1567-1.4551-2.9121-0.076071-0.067787-0.15317-0.18096-0.23242-0.25195v10.979h-0.00586a3.406 2.8989 0 0 1 0 0.011719 3.406 2.8989 0 0 1-3.4043 2.8984 3.406 2.8989 0 0 1-3.4062-2.8984 3.406 2.8989 0 0 1 3.4062-2.8984 3.406 2.8989 0 0 1 1.8574 0.4707v-12.023h0.017578c0.00208-0.02878-0.016372-0.041232-0.013671-0.070312z" fill="#fff"/>
</svg>
