<svg xmlns="http://www.w3.org/2000/svg" viewBox="0 0 48 48"><defs><style>.a{fill:none;stroke:#fff;stroke-linecap:round;stroke-linejoin:round;}</style></defs><path class="a" d="M8.52,4.5A1.14,1.14,0,0,0,7.37,5.65v36.7a1.13,1.13,0,0,0,1.68,1l15.51-9.18L40.07,25a1.17,1.17,0,0,0,0-2L24.56,13.83,9.05,4.65a1.2,1.2,0,0,0-.53-.15ZM18.91,15.65l1.59.07v.11a2.1,2.1,0,0,0,.28,1.43,5.26,5.26,0,0,0,1,1.09,5.18,5.18,0,0,1,2,4.2l-1.6,0a3.25,3.25,0,0,0-1.49-3c-.08-.06-.16-.18-.24-.25V30.54h0v0a3.26,3.26,0,0,1-3.49,3,3.26,3.26,0,0,1-3.49-3,3.26,3.26,0,0,1,3.49-3,4,4,0,0,1,1.91.48V15.73h0s0-.05,0-.08Z"/></svg>