<svg id="Layer_1" data-name="Layer 1" xmlns="http://www.w3.org/2000/svg" viewBox="0 0 48 48"><defs><style>.cls-1{fill:none;stroke:#fff;stroke-linecap:round;stroke-linejoin:round;}</style></defs><path class="cls-1" d="M40.5,42.5H7.5a2,2,0,0,1-2-2V7.5a2,2,0,0,1,2-2h33a2,2,0,0,1,2,2v33A2,2,0,0,1,40.5,42.5Z"/><polyline class="cls-1" points="32.04 19.3 32.04 28.7 36.74 28.7"/><polyline class="cls-1" points="11.26 28.69 11.26 19.3 15.96 28.7 20.66 19.32 20.66 28.7"/><line class="cls-1" x1="28.4" y1="25.55" x2="24.3" y2="25.55"/><polyline class="cls-1" points="23.24 28.7 26.35 19.3 29.46 28.7"/></svg>