<?xml version="1.0" encoding="UTF-8"?>
<!DOCTYPE svg  PUBLIC '-//W3C//DTD SVG 1.1//EN'  'http://www.w3.org/Graphics/SVG/1.1/DTD/svg11.dtd'>
<svg clip-rule="evenodd" stroke-linejoin="round" stroke-miterlimit="2" version="1.1" viewBox="0 0 48 48" xml:space="preserve" xmlns="http://www.w3.org/2000/svg">
    <path d="m30.704 13.692 11.881 11.787v12.521c0 0.209-0.033 0.419-0.098 0.618-0.077 0.238-0.2 0.461-0.359 0.654-0.223 0.27-0.516 0.48-0.844 0.602-0.22 0.082-0.452 0.124-0.686 0.126h-31.041c-0.234-1e-3 -0.467-0.041-0.687-0.121-0.151-0.056-0.295-0.13-0.428-0.22l-0.712 0.025c-1.09 0.174-1.975-0.592-1.975-1.709v-22.788c0-1.118 0.885-2.167 1.975-2.342l28.467-4.556c1.208-0.194 1.337 0.587 1.337 1.811l-20.08 2.707c0 0.014-2e-3 0.027-4e-3 0.04l22.557-2.383v2.441l-14.936 0.787h5.633zm-20.701-0.058c-0.276 1e-3 -0.54 1e-3 -0.791 2e-3 -1.146 0.017-2.067 0.953-2.066 2.1 4e-3 4.862 0.014 17.083 0.017 22.082 1e-3 0.544 0.24 1.06 0.655 1.413 0.126 0.107 0.265 0.195 0.412 0.264-0.089-0.079-0.172-0.166-0.246-0.261-0.145-0.184-0.257-0.393-0.329-0.616-0.065-0.199-0.098-0.409-0.098-0.618v-22.308c0-0.21 0.033-0.419 0.098-0.618 0.077-0.238 0.2-0.461 0.359-0.654 0.223-0.27 0.517-0.48 0.845-0.602 0.219-0.082 0.451-0.124 0.685-0.126h0.013-0.105l0.551-0.058zm18.146 9.084v-1.789h-8.12v1.136l3.544 4.817-3.579 4.507v1.239h8.19l-0.035-1.892h-4.886l2.787-3.751v-0.42l-2.787-3.847h4.886zm2.932-8.541c-0.107-0.178-0.232-0.341-0.377-0.485 0.144 0.195 0.269 0.35 0.377 0.485 1.866 3.105-1.748 10.975 2.359 11.292 1.157 0.281 2.774 0.146 4.559 0.01h-4.295l-0.016-4e-3c-1.277-0.27-1.8-1.397-1.984-1.996 0-8.477 0.254-8.207-0.623-9.302zm10.609 9.375-10.986-9.86h10.986v9.86z" fill="#fff"/>
</svg>
