<?xml version="1.0" encoding="utf-8"?>
<!-- Generator: Adobe Illustrator 25.1.0, SVG Export Plug-In . SVG Version: 6.00 Build 0)  -->
<svg version="1.1" id="Layer_1" xmlns="http://www.w3.org/2000/svg" xmlns:xlink="http://www.w3.org/1999/xlink" x="0px" y="0px"
	 viewBox="0 0 48 48" style="enable-background:new 0 0 48 48;" xml:space="preserve">
<style type="text/css">
	.st0{fill:none;stroke:#FFFFFF;stroke-linecap:round;stroke-linejoin:round;}
</style>
<g>
	<path class="st0" d="M43.5,31.1L5.7,33.8l-1.2-17l37.8-2.7L43.5,31.1z"/>
	<g>
		<path class="st0" d="M21,29.5L21,29.5c-1.5,0-2.7-1.2-2.7-2.7V25c0-1.5,1.2-2.7,2.7-2.7h0c1.5,0,2.7,1.2,2.7,2.7v1.8
			C23.7,28.2,22.5,29.5,21,29.5z"/>
		<g>
			<line class="st0" x1="34.4" y1="18.5" x2="34.4" y2="29.5"/>
			<path class="st0" d="M34.4,25c0-1.5,1.2-2.7,2.7-2.7h0c1.5,0,2.7,1.2,2.7,2.7v4.5"/>
		</g>
		<g>
			<path class="st0" d="M8.3,28.3c0.7,0.9,1.5,1.2,2.7,1.2h1.6c1.5,0,2.7-1.2,2.7-2.7v0c0-1.5-1.2-2.7-2.7-2.7h-1.8
				c-1.5,0-2.7-1.2-2.7-2.7v0c0-1.5,1.2-2.7,2.7-2.7h1.6c1.2,0,2,0.3,2.7,1.2"/>
		</g>
		<g>
			<path class="st0" d="M26.8,28.9c0.5,0.4,1,0.6,2.3,0.6h0.6c1,0,1.8-0.8,1.8-1.8v0c0-1-0.8-1.8-1.8-1.8h-1.2c-1,0-1.8-0.8-1.8-1.8
				v0c0-1,0.8-1.8,1.8-1.8h0.6c1.2,0,1.8,0.2,2.3,0.6"/>
		</g>
	</g>
</g>
</svg>
