<?xml version="1.0" encoding="UTF-8"?>
<svg width="48" height="48" viewBox="-40 -40 48 48" xmlns="http://www.w3.org/2000/svg">
    <path d="m-17.38-40a22.62 22.62 0 0 0-22.62 22.62 22.62 22.62 0 0 0 22.62 22.62 22.62 22.62 0 0 0 22.62-22.62 22.62 22.62 0 0 0-22.62-22.62zm0 4.4787a18.142 18.142 0 0 1 18.142 18.142 18.142 18.142 0 0 1-18.142 18.142 18.142 18.142 0 0 1-18.142-18.142 18.142 18.142 0 0 1 18.142-18.142zm0 4.5354a13.606 13.606 0 0 0-13.606 13.606 13.606 13.606 0 0 0 13.606 13.606 13.606 13.606 0 0 0 13.606-13.606 13.606 13.606 0 0 0-13.606-13.606zm0 4.5921a9.0142 9.0142 0 0 1 9.0142 9.0142 9.0142 9.0142 0 0 1-9.0142 9.0142 9.0142 9.0142 0 0 1-9.0142-9.0142 9.0142 9.0142 0 0 1 9.0142-9.0142zm0 4.5354a4.4787 4.4787 0 0 0-4.4787 4.4787 4.4787 4.4787 0 0 0 4.4787 4.4788 4.4787 4.4787 0 0 0 4.4788-4.4788 4.4787 4.4787 0 0 0-4.4788-4.4787z" fill="#fff"/>
</svg>
