<?xml version="1.0" encoding="utf-8"?>
<!-- Generator: Adobe Illustrator 25.1.0, SVG Export Plug-In . SVG Version: 6.00 Build 0)  -->
<svg version="1.1"
	 id="svg8" inkscape:version="1.0.1 (3bc2e813f5, 2020-09-07)" sodipodi:docname="template.svg" xmlns:cc="http://creativecommons.org/ns#" xmlns:dc="http://purl.org/dc/elements/1.1/" xmlns:inkscape="http://www.inkscape.org/namespaces/inkscape" xmlns:rdf="http://www.w3.org/1999/02/22-rdf-syntax-ns#" xmlns:sodipodi="http://sodipodi.sourceforge.net/DTD/sodipodi-0.dtd" xmlns:svg="http://www.w3.org/2000/svg"
	 xmlns="http://www.w3.org/2000/svg" xmlns:xlink="http://www.w3.org/1999/xlink" x="0px" y="0px" viewBox="0 0 48 48"
	 style="enable-background:new 0 0 48 48;" xml:space="preserve">
<style type="text/css">
	.st0{fill:none;stroke:#F2F2F2;}
	.st1{fill:none;stroke:#FFFFFF;}
</style>
<g>
	
		<sodipodi:namedview  bordercolor="#666666" borderopacity="1" gridtolerance="10" guidetolerance="10" id="namedview10" inkscape:current-layer="svg8" inkscape:cx="24" inkscape:cy="24" inkscape:document-rotation="0" inkscape:guide-bbox="true" inkscape:pageopacity="0" inkscape:pageshadow="2" inkscape:window-height="2098" inkscape:window-maximized="1" inkscape:window-width="3840" inkscape:window-x="0" inkscape:window-y="25" inkscape:zoom="16.746495" objecttolerance="10" pagecolor="#595959" showgrid="false" showguides="true">
		</sodipodi:namedview>
	<path id="path8928" sodipodi:nodetypes="ccccccccc" class="st0" d="M13.1,10.3h-2.3C10.5,17.7,9.1,22,7.5,26.6L9,28.3
		c0.9-2,1.7-4.2,2.4-6.6L17,42.5l1.9-0.5l-6.6-24.8C12.7,15.1,13.1,12.8,13.1,10.3z"/>
	<path id="path8932" sodipodi:nodetypes="ccccccccccc" class="st0" d="M35,37.3l-0.8-1.9c2-0.4,4.6,0.3,3.9-2.9L31.6,8.9l-16.4,4.4
		l-0.5-2l21.3-5.8l0.5,2l-2.8,0.8l6.6,24.6C41.5,36.8,38.3,36.8,35,37.3z"/>
	<path id="path8934" sodipodi:nodetypes="ccccccc" class="st0" d="M24.1,32.3l-1.9,0.5L18.5,19l9.8-2.7L31.5,28l-8,2.2L24.1,32.3z"
		/>
	<path id="path8936" sodipodi:nodetypes="ccccc" class="st1" d="M20.7,20.2l2.2,8.3l6.3-1.9l-2.2-8.2L20.7,20.2z"/>
</g>
</svg>
