<?xml version="1.0" encoding="UTF-8"?>
<svg width="192" height="192" version="1.1" viewBox="0 0 50.8 50.8" xmlns="http://www.w3.org/2000/svg">
    <path d="m25.4 2.5133c-0.80982-0.00239-1.6049 0.11946-2.9864 0.36432-3.7401 0.66293-7.0285 2.2459-9.586 4.6137-1.7868 1.6543-1.9528 1.7358-2.8732 1.4149-1.3029-0.35561-2.3691-0.41644-3.7889-0.13849-0.06201 2.1387-0.12402 4.2774-0.18604 6.4161l-1.2449 1.3503c-3.5405 3.8409-3.4853 9.0181 0.13849 13.029 0.91232 1.0098 1.3626 1.9493 1.9136 3.993 0.82086 3.0448 1.5804 4.6452 3.2778 6.905 2.8597 3.807 7.0693 6.5302 11.443 7.4026 1.4951 0.29822 2.6816 0.43568 3.8928 0.42168 1.2112 0.014 2.3977-0.12346 3.8928-0.42168 4.3734-0.8724 8.583-3.5957 11.443-7.4026 1.6975-2.2598 2.457-3.8602 3.2778-6.905 0.55098-2.0437 1.0013-2.9832 1.9136-3.993 3.6238-4.0111 3.679-9.1882 0.13849-13.029l-1.2449-1.3503c-0.062013-2.1387-0.12403-4.2774-0.18604-6.4161-1.4199-0.27795-2.486-0.21712-3.7889 0.13849-0.92041 0.32086-1.0864 0.23938-2.8732-1.4149-2.5575-2.3678-5.8459-3.9507-9.586-4.6137-1.3814-0.24486-2.1766-0.36671-2.9864-0.36432zm0 4.0726c3.2072 0.0085 6.4259 0.96899 8.9767 2.8815 1.089 0.8165 1.3435 1.5433 0.64595 1.8438-0.55614 0.23958-1.3719 0.0659-3.6344-0.77205-1.7074-0.63241-3.8332-0.93367-5.9883-0.92398-2.155-0.0097-4.2808 0.29157-5.9883 0.92398-2.2625 0.83795-3.0788 1.0116-3.6349 0.77205-0.69756-0.3005-0.44256-1.0273 0.64647-1.8438 2.5508-1.9125 5.7695-2.873 8.9767-2.8815zm-15.196 6.4999c2.4894 0.86293 4.2719 1.9078 6.242 3.3864l1.6443-0.86816c2.7197-1.4359 4.2864-1.8283 7.2977-1.8283h0.02325c3.0113 0 4.578 0.3924 7.2977 1.8283l1.6443 0.86816c1.9701-1.4785 3.7531-2.5234 6.2425-3.3864l-0.0052 8.6641c-0.0053 9.4234-0.24001 11.295-1.8071 14.388-1.0722 2.116-3.9607 4.9815-6.2647 6.2151-2.176 1.1651-4.6241 1.7644-7.1189 1.7699-2.4948-0.0055-4.943-0.60484-7.1189-1.7699-2.304-1.2337-5.1925-4.0992-6.2647-6.2151-1.5671-3.0925-1.8018-4.9643-1.8071-14.388zm5.0328 14.934c-1.4518 0.01584-1.5446 0.43697-1.3844 1.6314 0.20864 1.5556 1.6744 3.2552 3.2422 3.7595 1.2356 0.3974 7.3251 0.50568 7.3251 0.13022 0-0.91862-1.1466-3.337-1.9441-4.101-0.85029-0.81462-1.284-0.93773-4.3129-1.2247-1.3253-0.12557-2.266-0.20254-2.9259-0.19534zm20.326 0c-0.65992-0.0072-1.6006 0.06977-2.9259 0.19534-3.0289 0.287-3.4626 0.41011-4.3129 1.2247-0.7975 0.76406-1.9441 3.1824-1.9441 4.101 0 0.37546 6.0895 0.26717 7.3251-0.13022 1.5678-0.50425 3.0335-2.2039 3.2422-3.7595 0.16021-1.1945 0.0674-1.6156-1.3844-1.6314zm-10.164 7.7251c-2.4877 0-4.5336 0.08815-4.5336 0.19585 0 0.2749 1.5298 1.4754 2.7177 2.1327 0.6612 0.36582 1.2422 0.53588 1.8159 0.53588zm5.16e-4 0v2.8644c0.57369 0 1.1552-0.17006 1.8164-0.53588 1.1878-0.65725 2.7177-1.8578 2.7177-2.1327 0-0.1077-2.0464-0.19585-4.5341-0.19585zm-1.0087 4.0173c-2.2067 0.01374-3.0249 0.12997-3.2747 0.43098-0.56064 0.67554 0.08204 1.4604 1.5611 1.9069 0.86164 0.2601 1.8308 0.3762 2.7223 0.3762 0.89154 0 1.8607-0.1161 2.7223-0.3762 1.4791-0.44649 2.1218-1.2313 1.5611-1.9069-0.24982-0.30101-1.0681-0.41724-3.2747-0.43098-0.30782-0.0019-0.64462-0.0019-1.0087 0-0.3641-0.0019-0.7009-0.0019-1.0087 0z" fill="#fff" stroke-width=".32308"/>
</svg>
