<?xml version="1.0" encoding="UTF-8"?>
<svg version="1.1" viewBox="0 0 48 48" xmlns="http://www.w3.org/2000/svg">
    <path d="M23.963 2.627c-.125.003-.25.023-.37.057-.05.014-.096.042-.146.062-.066.026-.135.046-.197.082l-.002.002L5.672 12.977v.002c-.285.165-.436.463-.549.761-.239.63-.201 1.689-.201 2.522v17.46c0 .537.285 1.035.75 1.303l7.332 4.235v-9.512l2.77 1.594v9.566l7.484 4.27.002.002a1.472 1.472 0 00.676.187h-.024a.247.247 0 01.033.002c.008.002-.005.004.055.004s.047-.002.055-.004a.266.266 0 01.033-.002h-.024c.238-.008.47-.071.676-.187l.002-.002 7.485-4.27v-9.566l2.77-1.594v9.512l7.331-4.235c.465-.268.75-.766.75-1.302V16.262c0-.833.038-1.892-.201-2.522-.113-.298-.264-.596-.549-.761v-.002L24.752 2.83c-.063-.037-.132-.057-.2-.084-.048-.02-.093-.048-.144-.062h-.002a1.506 1.506 0 00-.369-.057h-.059zm-1.465 4.105v15.09l-13.07-7.545zm3.004 0l13.07 7.545-13.07 7.545zM7.926 16.88l14.572 8.414v15.99l-3.72-2.119v-8.691c0-.538-.289-1.036-.755-1.303l-5.775-3.318c-.98-.563-2.248.17-2.248 1.3v6.903l-2.074-1.198zm32.148 0v15.978L38 34.055v-6.903c0-1.13-1.268-1.863-2.248-1.3l-5.775 3.318a1.503 1.503 0 00-.754 1.303v8.691l-3.721 2.12V25.292z" fill="#f8ffff"/>
</svg>
