<?xml version="1.0" encoding="UTF-8"?>
<svg viewBox="0 0 48 48" xmlns="http://www.w3.org/2000/svg">
    <path d="M24 2A22 22 0 002 24a22 22 0 0022 22 22 22 0 0022-22A22 22 0 0024 2zm10.494 16.205c1.265-.002 2.658.459 3.799 1.434 1.141.974 1.987 2.517 1.975 4.466-.02 3.308-2.754 5.568-5.733 5.686-1.662.066-3.335-.778-4.597-2.158A1 1 0 0130 26.22a1 1 0 011.412.062c.923 1.01 2.163 1.545 3.043 1.51 2.067-.082 3.799-1.46 3.813-3.7.008-1.393-.527-2.297-1.274-2.935-.746-.637-1.75-.954-2.498-.953-1.916.003-3.814 1.358-3.8 3.89a1 1 0 01-1 1.005H14.43v3.54a1 1 0 01-1 1 1 1 0 01-1-1V25.1h-2.131c-.136 0-.37.064-.47.13-.101.067-.097.028-.097.163v3.248a1 1 0 01-1 1 1 1 0 01-1-1v-3.248c0-.795.466-1.482.987-1.829a2.802 2.802 0 011.58-.464h18.597c.496-2.966 2.976-4.89 5.598-4.895z" fill="#fff"/>
</svg>
