<?xml version="1.0" encoding="UTF-8"?>
<svg data-name="Layer 1" viewBox="0 0 48 48" xmlns="http://www.w3.org/2000/svg">
    <defs>
        <style>.cls-1{fill:#fff;}</style>
    </defs>
    <path class="cls-1" d="M24,2A22,22,0,1,0,46,24,22,22,0,0,0,24,2ZM11.23,19.72a1.09,1.09,0,0,1,1.09-1.09H28.24a1.08,1.08,0,0,1,1.08,1.09v1.71a1.08,1.08,0,0,1-1.08,1.08H12.32a1.08,1.08,0,0,1-1.09-1.08ZM24,35.78a1.09,1.09,0,0,1-1.09,1.09H12.32a1.09,1.09,0,0,1-1.09-1.09V34.07A1.09,1.09,0,0,1,12.32,33H22.94A1.09,1.09,0,0,1,24,34.07Zm10.61-7.17a1.09,1.09,0,0,1-1.09,1.08H12.32a1.09,1.09,0,0,1-1.09-1.08V26.89a1.08,1.08,0,0,1,1.09-1.08H33.55a1.08,1.08,0,0,1,1.09,1.08Zm2.18-14.36a1.08,1.08,0,0,1-1.08,1.09H12.32a1.09,1.09,0,0,1-1.09-1.09V12.54a1.08,1.08,0,0,1,1.09-1.08H35.74a1.08,1.08,0,0,1,1.08,1.08Z"/>
</svg>
