<?xml version="1.0" encoding="UTF-8"?>
<svg version="1.1" viewBox="0 0 48 48" xmlns="http://www.w3.org/2000/svg">
    <path d="m7 5c-1.108 0-2 0.892-2 2v34c0 1.108 0.892 2 2 2h34c1.108 0 2-0.892 2-2v-34c0-1.108-0.892-2-2-2h-34zm4.627 8.6309h9.5352c0.89466 0 1.6152 0.71862 1.6152 1.6133v17.512c0 0.89466-0.72058 1.6133-1.6152 1.6133h-9.5352c-0.89466 0-1.6152-0.71862-1.6152-1.6133v-17.512c0-0.89466 0.72058-1.6133 1.6152-1.6133zm21.357 0.46289c3.0186 2.2717 5.0039 5.8499 5.0039 9.9062 0 4.0571-1.9863 7.6349-5.0059 9.9062l-1.6211-2.1641c2.3892-1.7916 4.0312-4.5142 4.0312-7.7422 0-3.2278-1.6423-5.95-4.0312-7.7422l1.623-2.1641zm-19.77 1.1953c-0.99285 0 -1.791 0.79816-1.791 1.791v12.732c0 0.99285 0.79816 1.793 1.791 1.793h6.3594c0.99285 0 1.791-0.80012 1.791-1.793v-12.732c0-0.99285-0.79816-1.791-1.791-1.791h-6.3594zm17.111 2.3457c1.9679 1.481 3.3301 3.7247 3.3301 6.3652 0 2.6406-1.3622 4.8843-3.3301 6.3652l-1.5215-2.0312c1.3367-1.0015 2.2539-2.523 2.2539-4.334 0-1.8109-0.91716-3.3324-2.2539-4.334l1.5215-2.0312zm-2.4766 3.3027a3.8321 3.8321 0 0 1 1.5371 3.0625 3.8321 3.8321 0 0 1 -1.5371 3.0625l-2.2949-3.0625 2.2949-3.0625z" fill="#fff"/>
</svg>
