<?xml version="1.0" encoding="utf-8"?>
<!-- Generator: Adobe Illustrator 25.1.0, SVG Export Plug-In . SVG Version: 6.00 Build 0)  -->
<svg version="1.1"
	 id="svg8" inkscape:version="1.0.1 (3bc2e813f5, 2020-09-07)" sodipodi:docname="template.svg" xmlns:cc="http://creativecommons.org/ns#" xmlns:dc="http://purl.org/dc/elements/1.1/" xmlns:inkscape="http://www.inkscape.org/namespaces/inkscape" xmlns:rdf="http://www.w3.org/1999/02/22-rdf-syntax-ns#" xmlns:sodipodi="http://sodipodi.sourceforge.net/DTD/sodipodi-0.dtd" xmlns:svg="http://www.w3.org/2000/svg"
	 xmlns="http://www.w3.org/2000/svg" xmlns:xlink="http://www.w3.org/1999/xlink" x="0px" y="0px" viewBox="0 0 48 48"
	 style="enable-background:new 0 0 48 48;" xml:space="preserve">
<style type="text/css">
	.st0{fill:none;stroke:#FCFCFC;stroke-linecap:round;stroke-linejoin:round;}
</style>
<sodipodi:namedview  bordercolor="#666666" borderopacity="1" gridtolerance="10" guidetolerance="10" id="namedview10" inkscape:current-layer="svg8" inkscape:cx="24.50984" inkscape:cy="24.577633" inkscape:document-rotation="0" inkscape:guide-bbox="true" inkscape:pageopacity="0" inkscape:pageshadow="2" inkscape:window-height="2098" inkscape:window-maximized="1" inkscape:window-width="3840" inkscape:window-x="0" inkscape:window-y="25" inkscape:zoom="1.6491" objecttolerance="10" pagecolor="#595959" showgrid="false" showguides="true">
	</sodipodi:namedview>
<g>
	<path id="path9638" sodipodi:nodetypes="cccccc" class="st0" d="M30.4,11.3l-3.6-3.6H6.6v35.8h29.6V24.8"/>
	<path id="path9640" sodipodi:nodetypes="cccccccc" class="st0" d="M31,10.5L18,28.7l-1.5,12.6L28,36l13.3-18.4
		c0.3-0.5,0.3-1-0.2-1.4l-8.4-6C32.1,9.9,31.5,9.9,31,10.5z"/>
	<path id="path9642" sodipodi:nodetypes="cc" class="st0" d="M17,36.8c1.9,0.3,2.7,1.2,3.5,2.6"/>
	<path id="path9644" class="st0" d="M18,28.7L28,36"/>
	<path id="path9646" class="st0" d="M29.2,13.1l10,7.4"/>
	<path id="path9648" class="st0" d="M27.8,14.9l10.1,7.4"/>
	<path id="path9650" sodipodi:nodetypes="csssssc" class="st0" d="M11.3,20.5V11c0-1.4,2.5-1.3,2.5,0v10.7c0,2.5-4.7,2.5-4.7,0
		c0-13,0-1.3,0-14.3c0-4,5.6-4,5.9,0"/>
</g>
</svg>
