<?xml version="1.0" encoding="UTF-8"?>
<svg version="1.1" viewBox="0 0 48 48" xmlns="http://www.w3.org/2000/svg">
    <path d="m24.001 2.4637-8.1164 6.3491v30.373l8.1164 6.3506 8.115-6.3506v-30.373zm-1.3465 14.82h2.6872c0.16792 0 0.30531 0.12417 0.33553 0.28202l0.2531 1.7789c0.40974 0.17129 0.78939 0.39707 1.1353 0.66239l1.6719-0.6754c0.15113-0.06045 0.32533 0.00021 0.40929 0.14463l1.3436 2.327c0.08397 0.14777 0.04663 0.32878-0.08099 0.42954l-1.4202 1.1122c0.02686 0.21494 0.04773 0.4335 0.04773 0.65516 0 0.22166-0.02087 0.44022-0.04773 0.65516l1.4173 1.1107c0.12762 0.10412 0.16495 0.28657 0.08099 0.43099l-1.3436 2.327a0.33585 0.33585 0 0 1 -0.40929 0.14462l-1.6733-0.6754a4.9706 4.9706 0 0 1 -1.1353 0.66239l-0.25165 1.7789c-0.02687 0.15785-0.16472 0.28202-0.33264 0.28202h-2.6872c-0.16792 0-0.30578-0.12417-0.33264-0.28202l-0.2502-1.7789c-0.40974-0.17128-0.78939-0.39707-1.1353-0.66239l-1.6733 0.6754c-0.15113 0.06045-0.32533-0.00021 -0.40929-0.14462l-1.3436-2.327c-0.08397-0.14777-0.04663-0.33023 0.08099-0.43099l1.4159-1.1107c-0.02687-0.21494-0.04628-0.4335-0.04628-0.65516a5.2729 5.2729 0 0 1 0.04628 -0.65516l-1.4159-1.1122c-0.12763-0.10412-0.16495-0.28512-0.08099-0.42954l1.3436-2.327a0.33585 0.33585 0 0 1 0.40929 -0.14463l1.6733 0.6754a4.9706 4.9706 0 0 1 1.1353 -0.66239l0.2502-1.7789c0.02687-0.15785 0.16472-0.28202 0.33264-0.28202z" fill="#fff"/>
    <path d="m11.433 12.23-8.235 6.1958 2.3704 5.5739-2.3704 5.5754 8.235 6.1944 6.0324-1.6169v-20.307zm25.136 0-6.0324 1.6155v20.307l6.0324 1.6169 8.2336-6.1958-2.3704-5.5739 2.3704-5.5739z" fill="#fff"/>
</svg>
