<svg id="Layer_2" data-name="Layer 2" xmlns="http://www.w3.org/2000/svg" viewBox="0 0 48 48"><defs><style>.cls-1{fill:none;stroke:#fff;stroke-linecap:round;stroke-linejoin:round;}</style></defs><path class="cls-1" d="M12,16.3,4.5,24,12,31.7h4.57l-5.92-6.07h7.9a1.22,1.22,0,0,1,.81.28l4.78,4.77a3.89,3.89,0,0,0,2.84,1h9L43.5,24,36,16.3H31.42l5.92,6.07h-8a1.25,1.25,0,0,1-.82-.25l-4.87-4.88a4,4,0,0,0-2.74-.94Zm1.62,3h7.25a1.22,1.22,0,0,1,.81.27l4.78,4.78a3.87,3.87,0,0,0,2.84,1h8.26l-3.2,3.29H27a1.31,1.31,0,0,1-.82-.25l-4.86-4.88a4,4,0,0,0-2.75-.94H10.43Z"/></svg>