<?xml version="1.0" encoding="UTF-8"?>
<svg viewBox="0 0 48 48" xmlns="http://www.w3.org/2000/svg">
    <path d="M24 2.074A21.926 21.926 0 0 0 2.074 24 21.926 21.926 0 0 0 24 45.926 21.926 21.926 0 0 0 45.926 24 21.926 21.926 0 0 0 24 2.074zm9.548 10.446c.55.01 1.126.07 1.744.188.623 3.296-.34 5.437-2.16 8.2-1.003 1.524-2.606 3.263-4.446 4.987.197.1.41.246.628.465.118.12.237.26.355.425.82 1.144-.4 3.635-1.843 5.358C26.385 33.865 20.255 38 20.255 38s3.977-6.055 4.494-7.263c.22-.518.15-1.056.023-1.466a76.78 76.78 0 0 1-1.74 1.36l-5.664-5.663a76.756 76.756 0 0 1 1.36-1.74c-.412-.13-.95-.2-1.47.023-1.206.517-7.26 4.495-7.26 4.495s4.134-6.13 5.857-7.572c1.722-1.442 4.214-2.662 5.357-1.842.166.12.306.238.426.356.22.217.364.43.465.628 1.725-1.84 3.463-3.443 4.987-4.447 2.245-1.477 4.08-2.39 6.456-2.347zm-3.907 3.695a2.175 2.175 0 0 0-1.569.637 2.175 2.175 0 0 0 .002 3.076 2.175 2.175 0 0 0 3.076 0 2.175 2.175 0 0 0 0-3.076 2.175 2.175 0 0 0-1.506-.638zm-12.11 11.942a2.305 2.305 0 0 1 1.635.678 2.313 2.313 0 0 1 0 3.27c-.622.597-1.64.565-2.564.748-1.524.344-4.032 2.58-4.032 2.58s2.235-2.51 2.58-4.033c.185-.865.01-1.717.747-2.565a2.304 2.304 0 0 1 1.636-.677z" fill="#fff"/>
</svg>
