<svg xmlns="http://www.w3.org/2000/svg" viewBox="0 0 48 48"><defs><style>.a{fill:#fff;}.b{fill:none;stroke:#fff;stroke-linecap:round;stroke-linejoin:round;}</style></defs><circle class="a" cx="36.7" cy="13.8" r="0.9"/><circle class="a" cx="40.3" cy="13.8" r="0.9"/><path class="b" d="M6.7,8.9H41.3a2.12,2.12,0,0,1,2.2,2V34.8a2.12,2.12,0,0,1-2.2,2H6.7a2.12,2.12,0,0,1-2.2-2V10.9A2.12,2.12,0,0,1,6.7,8.9Z"/><path class="b" d="M10.3,39.1H14l.9-2.3H9.4Z"/><path class="b" d="M34,39.1h3.7l.9-2.3H33Z"/><path class="b" d="M36.8,29.8h3.5a.27.27,0,0,1,.3.3v2.7a.27.27,0,0,1-.3.3H36.8a.27.27,0,0,1-.3-.3V30.1A.27.27,0,0,1,36.8,29.8Z"/><circle class="a" cx="36.7" cy="17.4" r="0.9"/><circle class="a" cx="36.7" cy="21.1" r="0.9"/><circle class="a" cx="36.7" cy="24.7" r="0.9"/><circle class="a" cx="40.3" cy="17.4" r="0.9"/><circle class="a" cx="40.3" cy="21" r="0.9"/><circle class="a" cx="40.3" cy="24.6" r="0.9"/><path class="b" d="M8.5,12.8H34.1a.27.27,0,0,1,.3.3V32.4a.27.27,0,0,1-.3.3H8.5a.27.27,0,0,1-.3-.3V13.2C8.2,13,8.3,12.8,8.5,12.8Z"/><path class="b" d="M31.4,12.8V17l-2,2.8v6.3l2,2.3v4.5"/></svg>