<svg xmlns="http://www.w3.org/2000/svg" viewBox="0 0 48 48"><defs><style>.a{fill:none;stroke:#fff;stroke-linecap:round;stroke-linejoin:round;}</style></defs><circle class="a" cx="24" cy="20" r="3.5"/><path class="a" d="M40.5,5.5H7.5a2,2,0,0,0-2,2v33a2,2,0,0,0,2,2h33a2,2,0,0,0,2-2V7.5A2,2,0,0,0,40.5,5.5Z"/><line class="a" x1="8" y1="42.5" x2="8" y2="5.5"/><line class="a" x1="40.5" y1="42.5" x2="40.5" y2="5.5"/><line class="a" x1="38.5" y1="42.5" x2="38.5" y2="5.5"/><path class="a" d="M31.6,29v2.5H16.4V29C16.4,25,31.6,25,31.6,29Z"/></svg>