<svg xmlns="http://www.w3.org/2000/svg" viewBox="0 0 48 48"><defs><style>.a,.b{fill:none;stroke:#fff;stroke-linejoin:round;}.b{stroke-linecap:round;}</style></defs><rect class="a" x="5.5" y="5.5" width="37" height="37" rx="1.95"/><line class="a" x1="13.92" y1="5.5" x2="13.92" y2="42.5"/><line class="a" x1="34.08" y1="5.5" x2="34.08" y2="42.5"/><line class="a" x1="42.5" y1="13.92" x2="5.5" y2="13.92"/><line class="a" x1="42.5" y1="34.08" x2="5.5" y2="34.08"/><path class="b" d="M24.22,30A4.18,4.18,0,0,0,28,25.75V22a4,4,0,0,0-4-4h0a4,4,0,0,0-4,4"/><path class="b" d="M20,22a4,4,0,0,0,4,4h0a4,4,0,0,0,4-4"/><line class="b" x1="24.22" y1="30" x2="22.1" y2="30"/></svg>