<svg id="Layer_2" data-name="Layer 2" xmlns="http://www.w3.org/2000/svg" viewBox="0 0 48 48"><defs><style>.cls-1{fill:none;stroke:#fff;stroke-linecap:round;stroke-linejoin:round;}</style></defs><path class="cls-1" d="M40.55,5.5H7.45a2,2,0,0,0-1.95,2v33.1a2,2,0,0,0,2,2h33.1a2,2,0,0,0,2-2V7.45A2,2,0,0,0,40.55,5.5Zm-4.1,12-3.68,3.67-1.22,1.22a2.09,2.09,0,0,1-3,0,6.47,6.47,0,0,0-9.16,0,2.09,2.09,0,0,1-3,0l-1.22-1.22-3.68-3.67a2.12,2.12,0,0,1,0-3,17.6,17.6,0,0,1,24.9,0A2.12,2.12,0,0,1,36.45,17.52Z"/><line class="cls-1" x1="19" y1="14.93" x2="22.62" y2="20.66"/></svg>