<svg id="Layer_2" data-name="Layer 2" xmlns="http://www.w3.org/2000/svg" viewBox="0 0 48 48"><defs><style>.cls-1{fill:none;stroke:#fff;stroke-linecap:round;stroke-linejoin:round;}</style></defs><path class="cls-1" d="M37.37,5.5l4.72,4.78L21.64,30.73,11.3,20.39,16,15.67l5.62,5.62ZM7,26h5.06l6.74,6.75H7a1.13,1.13,0,0,1-1.12-1.13V27.08A1.21,1.21,0,0,1,7,26Zm24.16,0H38.5a1.21,1.21,0,0,1,1.12,1.13v4.49A1.21,1.21,0,0,1,38.5,32.7h-14ZM7,35.76H38.5a1.2,1.2,0,0,1,1.12,1.12v4.5A1.2,1.2,0,0,1,38.5,42.5H7a1.12,1.12,0,0,1-1.12-1.12v-4.5A1.2,1.2,0,0,1,7,35.76Z"/></svg>