<?xml version="1.0" encoding="UTF-8"?>
<svg viewBox="0 0 48 48" xmlns="http://www.w3.org/2000/svg">
    <defs>
        <style>.cls-1{fill:#fff;}</style>
    </defs>
    <g data-name="Layer 1">
        <path class="cls-1" d="M11,41V34H8v8a2,2,0,0,0,2,2h8V41Z"/>
        <path class="cls-1" d="m38 44a2 2 0 0 0 2-2v-8h-3v7h-7v3z"/>
        <path class="cls-1" d="M10,4A2,2,0,0,0,8,6v8h3V7h7V4Z"/>
        <path class="cls-1" d="M40,14V6a2,2,0,0,0-2-2H30V7h7v7Z"/>
        <path class="cls-1" d="M26,34.48V37h2.51a1,1,0,0,0,.7-.29l8.31-8.32L34.6,25.47l-8.31,8.31A1,1,0,0,0,26,34.48Z"/>
        <path class="cls-1" d="M39.77,26.13a.77.77,0,0,0,0-1.1L38,23.21a.79.79,0,0,0-1.09,0l-1.43,1.43,2.92,2.91Z"/>
        <rect class="cls-1" x="15" y="11" width="18" height="1.8"/>
        <rect class="cls-1" x="15" y="19.07" width="18" height="1.8"/>
        <rect class="cls-1" x="15" y="27.13" width="10" height="1.8"/>
        <rect class="cls-1" x="15" y="35.2" width="6" height="1.8"/>
    </g>
</svg>
