<svg xmlns="http://www.w3.org/2000/svg" viewBox="0 0 48 48"><defs><style>.a{fill:none;stroke:#fff;stroke-linecap:round;stroke-linejoin:round;}</style></defs><path class="a" d="M8.4,33.75v7.8a2,2,0,0,0,1.95,2h7.8"/><path class="a" d="M29.85,43.5h7.8a2,2,0,0,0,2-2v-7.8"/><path class="a" d="M18.15,4.5h-7.8a2,2,0,0,0-1.95,2v7.8"/><path class="a" d="M39.6,14.25V6.45a2,2,0,0,0-2-1.95h-7.8"/><line class="a" x1="15.22" y1="12.7" x2="32.77" y2="12.7"/><line class="a" x1="32.77" y1="20.23" x2="15.22" y2="20.23"/><line class="a" x1="15.22" y1="27.77" x2="24.97" y2="27.77"/><line class="a" x1="15.22" y1="35.3" x2="21.07" y2="35.3"/><path class="a" d="M26,32.84V35.3H28.4a1,1,0,0,0,.68-.29l8.1-8.11-2.85-2.84-8.1,8.1A1,1,0,0,0,26,32.84Z"/><path class="a" d="M39.37,24.7a.74.74,0,0,0,0-1.06h0l-1.72-1.78a.77.77,0,0,0-1.06,0l-2.26,2.21,2.85,2.84Z"/></svg>