<?xml version="1.0" encoding="UTF-8"?>
<svg data-name="Layer 1" viewBox="0 0 48 48" xmlns="http://www.w3.org/2000/svg">
    <defs>
        <style>.cls-1{fill:#fff;}</style>
    </defs>
    <path class="cls-1" d="M41,5H7A2,2,0,0,0,5,7V41a2,2,0,0,0,2,2H41a2,2,0,0,0,2-2V7A2,2,0,0,0,41,5ZM30,36A14.62,14.62,0,0,1,7.09,22.34,14.7,14.7,0,0,1,20.33,9.42,14.53,14.53,0,0,1,30,12a.31.31,0,0,1-.31.54,12.35,12.35,0,1,0,0,22.92A.32.32,0,0,1,30,36ZM28.2,29.56c-1.29,1.91-1.9,4.21-5.32,4.21-3.62,0-4.75-8.08-4.7-9.22s3.74-2.1,4.19-2,1.42,3.4,2,3.39,3.1-4,4.73-6.08,6.19-5.92,7.43-6.34a8.18,8.18,0,0,1,4.42.25C42,14.12,32.92,22.57,28.2,29.56Z"/>
</svg>
