<?xml version="1.0" encoding="UTF-8"?>
<svg viewBox="0 0 48 48" xmlns="http://www.w3.org/2000/svg">
    <path d="m20.477 2h0.01069c0.08699 0.066523 0.17334 0.13331 0.24502 0.1896 2.988 2.3389 3.996 5.0923 3.0338 8.2756-3.2814-1.3582-4.3942-4.1171-3.3371-8.2756 0.01026-0.056291 0.03153-0.12316 0.04688-0.1896zm7.4662 4.3298c-0.2712 2.2974-1.3778 3.6753-3.3218 4.1356-0.27633-2.088 0.83487-3.4756 3.3218-4.1356zm-7.992 4.2523 0.0043 0.0043c1.3647 0.2964 2.7796 0.58385 4.2469 0.69676h0.0064c1.2414 0.09155 2.5134 0.06494 3.8269-0.18534 0.13309 2.4611 1.1716 4.1443 3.1211 5.0454 1.4378 0.74192 2.7622 1.7247 3.9796 2.9422 3.0774 3.0774 4.6167 6.7931 4.6167 11.149v0.01069c0 4.3549-1.5371 8.0683-4.6167 11.138-3.024 3.024-6.6622 4.5665-10.931 4.6167v-0.0064h-0.20454c-4.3494 0-8.0629-1.5349-11.138-4.6145-3.0753-3.0753-4.6167-6.7909-4.6167-11.149 0-4.3494 1.5414-8.0629 4.6167-11.138 1.1825-1.1825 2.46-2.1393 3.8269-2.8658 0.15349-0.08699 0.31102-0.16396 0.46451-0.24076 1.7804-0.99272 2.7196-2.5625 2.8058-4.7171zm4.0353 7.5338c-6.936 0-12.567 5.6356-12.567 12.567 0 6.9349 5.6345 12.567 12.567 12.567h0.01703c0.07501-0.0023 0.1488-0.0049 0.22374-0.0085l0.51992-0.02557v-25.058l-0.51349-0.03196c-0.07496 0-0.15087 0-0.22582-0.01069h-0.01069zm-0.33022 1.1574v2.7491c-4.7193 0.1764-8.5036 4.0571-8.5036 8.8189 0 4.7607 3.7854 8.64 8.5036 8.8167v2.4414c-6.1832-0.18545-11.149-5.184-11.149-11.411 0-6.2291 4.9636-11.225 11.149-11.411zm0 3.888v2.4414c-2.7971 0.17313-5.0247 2.5004-5.0236 5.34 0 2.8385 2.2276 5.1643 5.0236 5.3378v2.2374c-4.1193-0.18273-7.4116-3.5116-7.4127-7.6767 0-4.1662 3.2924-7.4956 7.4127-7.6789zm0 3.5814v8.3967c-2.1971-0.17662-3.9327-1.9538-3.9327-4.1978 0-2.244 1.7356-4.0233 3.9327-4.2z" fill="#fff"/>
</svg>
