<?xml version="1.0" encoding="UTF-8"?>
<svg viewBox="0 0 48 48" xmlns="http://www.w3.org/2000/svg">
    <path d="m7.7243 2.0006c0.87008 0.013714 1.8712 0.26706 3.0056 0.73675 3.9984 1.656 9.1611 5.9676 10.53 10.814 0.86953-0.07088 1.7663-0.12502 2.7318-0.12502 0.96391 0 1.8603 0.05427 2.7291 0.12502 1.3686-4.8468 6.5341-9.1584 10.532-10.814 1.1344-0.46983 2.1354-0.723 3.0056-0.73675 0.87021-0.013714 1.6301 0.22647 2.1626 0.758v0.00266c0.74615 0.74615 1.1874 1.9515 1.4517 3.4155 0.26488 1.464 0.33351 3.1921 0.22075 4.9816-0.22048 3.4999-1.145 7.1905-2.8081 9.5696 0.08593 1.0033 0.25194 3.2439 0.22075 5.6012-0.03169 2.4023-0.21204 4.8413-1.0666 6.2236-0.89391 1.4449-2.8885 2.7264-4.8835 3.8063-1.8861 1.0202-3.6633 1.7595-4.5989 2.1381 0.0039 0.62822 0.0034 1.4626-0.09842 2.3723-0.11434 1.0227-0.30424 2.0414-0.80594 2.7373-0.65627 0.91107-1.8112 1.4708-2.9715 1.8453-1.1596 0.37491-2.3247 0.54787-3.0914 0.54787-0.76522 0-1.9311-0.17309-3.0914-0.54787-1.1596-0.37491-2.3138-0.93504-2.9715-1.8453-0.50034-0.69413-0.69304-1.7077-0.80866-2.7237-0.10283-0.90426-0.10673-1.7323-0.10373-2.356-0.93327-0.3824-2.7087-1.1279-4.5935-2.1544-1.9937-1.0861-3.9875-2.3737-4.8808-3.82-0.85428-1.3823-1.0349-3.8227-1.0666-6.2236-0.031104-2.3533 0.1347-4.5839 0.22075-5.5903-1.4531-2.0673-2.439-5.2458-2.7482-8.935-0.13055-1.562-0.1385-3.3842 0.082459-5.0293 0.22089-1.6465 0.64088-3.1254 1.5293-4.0133 0.53139-0.53193 1.2924-0.77448 2.1626-0.76072zm32.384 2.0373c-0.6643 0.031104-1.547 0.31349-2.6515 0.84311-4.6983 2.2511-8.664 6.7139-9.1366 10.278-0.09967 0.75119-0.29375 1.2158-0.56652 1.3618-0.41522 0.22225-0.49694 0.17009-1.3193-0.80866-0.2262-0.26924-0.7881-0.3538-2.3464-0.3538-2.2103 0-2.7768 0.1184-2.7768 0.57456 0 0.43497-0.58246 0.83876-0.98679 0.68364-0.21762-0.08354-0.44627-0.65586-0.59308-1.4898-0.30083-1.7077-1.2198-3.5966-2.4527-5.0402-3.6388-4.2625-9.4607-7.294-10.581-5.5086-0.6737 1.0746-0.90535 2.9198-0.76876 6.1446 0.17963 4.2353 1.034 7.3171 2.5984 9.3681l0.62508 0.81656-0.41223 0.9123c-0.35844 0.7949-0.39575 1.3755-0.28462 4.5485 0.13211 3.7723 0.35489 4.8686 1.181 5.8041 0.89718 1.0161 5.5005 3.7396 7.2245 4.2748 0.48536 0.15062 0.50919 0.086 0.57456-1.4122 0.06349-1.4544 0.10915-1.5743 0.61977-1.6465 0.30274-0.04282 0.63979 0.06175 0.74738 0.23138 0.1075 0.16968 0.19951 1.9679 0.19951 3.9984 0.0046 4.3742 0.19978 4.9966 1.8385 5.8219 1.3308 0.67111 1.8548 0.69685 1.2794 0.06117-0.23356-0.25807-0.46234-0.95928-0.52404-1.6015-0.10512-1.094-0.07737-1.1631 0.66757-1.6301 1.1356-0.71238 3.0641-0.54719 3.8145 0.32453 0.66975 0.77856 0.68392 1.577 0.04256 2.6147l-0.49734 0.80594 0.55318-0.16492c1.2014-0.35462 2.1844-0.99755 2.5031-1.6383 0.23573-0.47378 0.37342-1.863 0.46275-4.7079l0.12502-4.0378 0.55059-0.07713c0.74016-0.10466 0.94253 0.29075 0.94688 1.8644 0.0019 0.7294 0.06478 1.3272 0.14095 1.3272 0.38853 0 5.0048-2.4894 6.229-3.3597 1.735-1.2322 2.1245-2.0005 2.4227-4.78 0.242-2.2525 0.06337-6.5395-0.2819-6.7533-0.34427-0.21272-0.22865-1.1772 0.18085-1.513 0.6372-0.52308 1.8521-3.4209 2.2606-5.3888 0.78265-3.7723 0.66676-8.2963-0.25807-10.091-0.24036-0.4667-0.68691-0.68541-1.3512-0.65436zm-26.202 22.062c4.9639 0 5.2608 0 7.0434 3.3991 0.10105 0.19243 0.09875 0.42326-0.0053 0.61446-0.10407 0.1912-0.29647 0.31731-0.51341 0.33774-0.01171 0-0.28953 0.0266-0.71279 0.0266-1.0803 0-3.0655-0.17064-4.2135-1.3219-0.45376-0.4554-0.73417-1.0082-0.83521-1.6519-0.04181-0.0031-0.08046-0.0076-0.11704-0.01062-0.77339-0.06575-1.2849-0.10912-1.298-0.72613-0.0039-0.17554 0.06339-0.34495 0.18616-0.47079 0.1228-0.1254 0.28994-0.19679 0.46548-0.19679zm20.686 0c0.17554 0 0.34264 0.07141 0.46548 0.19678 0.1228 0.12583 0.19052 0.29525 0.18616 0.47079-0.01307 0.61746-0.52472 0.66036-1.298 0.72613-0.03702 0.0027-0.07479 0.0071-0.11704 0.01062-0.10059 0.64265-0.38104 1.1962-0.83522 1.6519-1.1483 1.1509-3.1336 1.3219-4.2135 1.3219-0.42367 0-0.7042-0.02529-0.71551-0.0266-0.2168-0.02047-0.40746-0.14667-0.51069-0.33774-0.10407-0.1912-0.10635-0.4219-0.0053-0.61446 1.7813-3.3991 2.0795-3.3991 7.0434-3.3991z" fill="#fff"/>
</svg>
