<?xml version="1.0" encoding="UTF-8"?>
<svg version="1.1" viewBox="0 0 48 48" xmlns="http://www.w3.org/2000/svg">
    <path d="m23.994 3.0254v0.0019532a21.15 21.15 0 0 1-10.566 2.8594 21.15 21.15 0 0 1-5.2891-0.6875v25.498c0 5.5624 6.3442 10.299 15.861 14.275 9.5174-4.7587 15.861-8.7239 15.861-14.275v-25.512a21.15 21.15 0 0 1-5.2871 0.69922 21.15 21.15 0 0 1-10.58-2.8594zm-0.046875 6.9434 1.1152 2.1641 2.416 0.30664-1.7129 1.7305 0.45312 2.3926-2.1738-1.0957-2.1348 1.1719 0.36914-2.4062-1.7734-1.668 2.4023-0.39453 1.0391-2.2012zm-13.947 2.0645s3.1673 3.9609 7.3496 4.8359c0 0 0.053144 3.7188 0.40234 5.5781 0.34928 1.8594 1.6953 5.5781 1.6953 5.5781 0.01715-0.4813 0.18666-0.9617 0.25195-1.4375-0.71335-2.6016-0.752-5.0888 0.003906-7.4805 0.66504 0.59938 1.2451 0.9865 2.0781 2.0059 0.65679-0.28152 1.4101-0.4327 2.1797-0.4375 0.79626-0.003301 1.5779 0.15031 2.2559 0.44336 0.83569-1.0239 1.4157-1.4112 2.082-2.0117 0.75931 2.4025 0.72594 4.9013 0.001953 7.5156 0.065485 0.49204 0.093424 1.9622 0.23828 1.4863 2e-6 0 1.3593-3.7331 1.709-5.6191 0.34968-1.886 0.40234-5.6211 0.40234-5.6211 4.1823-0.87504 7.3496-4.8359 7.3496-4.8359-2.9774 19.207-10.395 21.045-10.395 21.045 1.7101 0.01087 1.7633 2.2877 1.1465 2.5449-0.84488-0.083351-1.6845-0.12906-2.4277 0.35547 0.33764 0.41195 0.72643 0.99338 1.1992 1.8633-0.49885 0.16652-1.1105 0.59846-1.7637 1.125-0.05407-1.6048-0.47936-2.6509-0.93164-3.6582-0.26147 0.05355-0.53449 0.087889-0.82617 0.08789-0.29776 0-0.57736-0.034783-0.84375-0.089843-0.45267 1.0081-0.87948 2.0541-0.93359 3.6602-0.65314-0.52654-1.2648-0.95848-1.7637-1.125 0.48052-0.88411 0.87-1.4677 1.2109-1.8809-0.84588-0.44475-1.5799-0.40625-2.3906-0.33789-0.61426-0.25618-0.56087-2.5139 1.1289-2.543-0.0075-0.01406-0.014084-0.028809-0.021484-0.042969l0.005859 0.041016s-7.4172-1.8375-10.395-21.045zm11.984 11.387c-0.47731 0.002718-0.86208 0.39183-0.85938 0.86914 0.001644 0.47731 0.38988 0.86293 0.86719 0.86133 0.4773-5.68e-4 0.86379-0.38793 0.86328-0.86524v-0.007812c-0.003789-0.47731-0.39378-0.86122-0.87109-0.85742zm4 0c-0.47731 0.002718-0.86208 0.39183-0.85938 0.86914 0.001644 0.47731 0.38988 0.86293 0.86719 0.86133 0.4773-5.68e-4 0.86379-0.38793 0.86328-0.86524v-0.007812c-0.003789-0.47731-0.39378-0.86122-0.87109-0.85742z" fill="#fff"/>
</svg>
