<?xml version="1.0" encoding="UTF-8"?>
<svg version="1.1" viewBox="0 0 48 48" xmlns="http://www.w3.org/2000/svg">
    <path d="m7 5c-1.108 0-2 0.892-2 2v34c0 1.108 0.892 2 2 2h34c1.108 0 2-0.892 2-2v-34c0-1.108-0.892-2-2-2h-34zm21.2 11.92c4.02 0 5.12 3.08 5.12 4.68s-0.32 2.4-0.32 2.4c1.26-0.31 4.45 0 4.45 3.25 0 3.26-2.07 3.75-2.07 3.75h-23.38s-1.38-1-1.38-3.5c0-2.51 1.98-3.95 3.85-3.95 1.88 0 2.03 0.44 2.03 0.44s-0.05-2 0.9-3.08c0.95-1.07 1.96-1.8 3.69-1.8s2.39 0.88 2.39 0.88 0.69-3.08 4.72-3.08z" fill="#fff"/>
</svg>
