<?xml version="1.0" encoding="UTF-8"?>
<svg version="1.1" viewBox="0 0 48 48" xmlns="http://www.w3.org/2000/svg">
    <path d="M24 2A22 22 0 002 24a22 22 0 0022 22 22 22 0 0022-22 22 22 0 00-2.205-9.559c-2.544 1.485-5.084 4.27-7.627 7.74V9.702c0-1.627-1.373-3-3-3h-3.889a54.652 54.652 0 00-.302-4.107A22 22 0 0024 2zm-8.307 6.701h17.475c.554 0 1 .446 1 1v17.475c0 .554-.446 1-1 1h-11v12.17c0 .554-.446 1-1 1h-5.475c-.554 0-1-.446-1-1V9.7c0-.554.446-1 1-1zm6.832 6.832c-.554 0-1 .446-1 1v3.813c0 .554.446 1 1 1h3.813c.554 0 1-.446 1-1v-3.813c0-.554-.446-1-1-1h-3.813zm3.971 14.643h4.375c-2.266 3.652-4.537 7.476-6.82 11.068.713-3.47 1.598-7.198 2.445-11.068z" fill="#fff"/>
</svg>
