<?xml version="1.0" encoding="UTF-8"?>
<svg width="48" height="48" viewBox="0 0 12.7 12.7" xmlns="http://www.w3.org/2000/svg">
    <path d="m6.35 0.52916a5.8208 5.8208 0 0 0-5.8208 5.8208 5.8208 5.8208 0 0 0 5.8208 5.8208 5.8208 5.8208 0 0 0 5.8208-5.8208 5.8208 5.8208 0 0 0-5.8208-5.8208zm-0.066146 1.3229h0.13229v0.79375h-0.066146l0.38861 0.42375a3.3073 3.3073 0 0 1 2.9187 3.2804 3.3073 3.3073 0 0 1-3.3073 3.3073 3.3073 3.3073 0 0 1-3.3073-3.3073 3.3073 3.3073 0 0 1 2.9202-3.282l0.38706-0.4222h-0.066146zm-3.0722 1.2661 0.56172 0.56172-0.093535 0.0935-0.56172-0.56172zm6.2761 0 0.093534 0.0935-0.56121 0.56172-0.093534-0.0935zm-3.1378 0.58601a2.6458 2.6458 0 0 0-2.6458 2.6458 2.6458 2.6458 0 0 0 2.6458 2.6458 2.6458 2.6458 0 0 0 2.6458-2.6458 2.6458 2.6458 0 0 0-2.6458-2.6458zm0 1.1906a1.4552 1.4552 0 0 1 1.4552 1.4552 1.4552 1.4552 0 0 1-1.4552 1.4552 1.4552 1.4552 0 0 1-1.4552-1.4552 1.4552 1.4552 0 0 1 1.4552-1.4552zm-4.4979 1.3891h0.79375v0.13229h-0.79375zm8.2021 0h0.79375v0.13229h-0.79375zm-6.3743 2.6427 0.093535 0.0935-0.56172 0.56172-0.093534-0.0935zm5.3402 0 0.56121 0.56173-0.093534 0.0935-0.56121-0.56172zm-2.7363 1.1276h0.13229v0.79375h-0.13229z" fill="#fff" stroke-width=".26458"/>
</svg>
