<?xml version="1.0" encoding="UTF-8"?>
<svg width="48" height="48" viewBox="0 0 12.7 12.7" xmlns="http://www.w3.org/2000/svg">
    <path d="m1.8520834 1.3229163c-.2931584 0-.5291667.236007-.5291667.529167v8.9958327c0 .29316.2360083.529167.5291667.529167h8.9958336c.293158 0 .529167-.236007.529167-.529167v-8.9958327c0-.29316-.236009-.529167-.529167-.529167zm2.6241293 1.280542h2.329057c.802332 0 1.429153.169364 1.776119.564824.315253.3592.407664.756106.316259 1.338936.130165.06902.24181.153408.331763.255798.2966.33805.354495.819371.242363 1.395781-.268619 1.37936-1.187651 1.856217-2.361613 1.856217h-.181385c-.143429 0-.265452.10442-.287837.24598l-.01499.0801-.22841 1.447457-.01188.06201c-.02238.14156-.1444091.2459797-.2878381.2459797h-1.2118133c-.1073648 0-.1893883-.09594-.1725994-.2020547.1618009-1.028144.3250777-2.056055.4878255-3.084049.047519-.02615.099488-.04496.1570964-.04496h.815454c1.3420569 0 2.3931309-.544944 2.7000939-2.121834.0091-.0466.01672-.09184.02377-.136426-.07772-.041-.161605-.07642-.252181-.106453-.02259-.007-.04582-.0148-.06925-.0217-.04684-.0137-.09495-.02621-.144693-.03721-.04974-.011-.10135-.02044-.153996-.02894-.184468-.0299-.38616-.04392-.602548-.04392h-1.9574997c-.044977 0-.087436.0099-.1255737.02842-.084358.0404-.1469263.119938-.1622642.217558-.2477592 1.576712-.4978804 3.15305-.747758 4.729427l-.0031.02067h-1.3037974c-.1229098 0-.21668-.109744-.1974038-.230994l.9694497-6.149495c.025702-.16187.165023-.28112.329179-.28112zm.8976196 4.183208c-.036544.01373-.069985.03381-.099219.05891.029147-.02504.062785-.04519.099219-.05891z" fill="#fff" stroke-width=".26458"/>
</svg>
