<svg id="Layer_2" data-name="Layer 2" xmlns="http://www.w3.org/2000/svg" viewBox="0 0 48 48"><defs><style>.cls-1{fill:none;stroke:#fff;stroke-linecap:round;stroke-linejoin:round;}</style></defs><path class="cls-1" d="M38,10V38H10V10H38m3-5H7A2,2,0,0,0,5,7V41a2,2,0,0,0,2,2H41a2,2,0,0,0,2-2V7A2,2,0,0,0,41,5Z"/><path class="cls-1" d="M32.14,27.05a26.65,26.65,0,0,1-3.07-.54,1.51,1.51,0,0,0-1.47.29c-.26.26-1,1-1.78,1.75a13.94,13.94,0,0,1-6.37-6.37c.75-.78,1.49-1.52,1.75-1.77a1.53,1.53,0,0,0,.28-1.47c-.23-1-.41-2-.54-3.07A1,1,0,0,0,19.83,15H15.69a.72.72,0,0,0-.66.68c-.29,3.74,1.81,7.75,2.24,8.51h0l.06.11h0a17.21,17.21,0,0,0,6.33,6.32h0l.22.12h0c.95.52,4.81,2.48,8.43,2.2a.74.74,0,0,0,.68-.66v-4.1A1,1,0,0,0,32.14,27.05Z"/></svg>