<?xml version="1.0" encoding="UTF-8"?>
<svg viewBox="0 0 48 48" xmlns="http://www.w3.org/2000/svg">
    <defs>
        <style>.cls-1{fill:#fff;}</style>
    </defs>
    <g data-name="Layer 1">
        <path class="cls-1" d="M38,10V38H10V10H38m3-5H7A2,2,0,0,0,5,7V41a2,2,0,0,0,2,2H41a2,2,0,0,0,2-2V7a2,2,0,0,0-2-2Z"/>
        <path class="cls-1" d="M32.14,27.05a28.23,28.23,0,0,1-3.07-.54,1.52,1.52,0,0,0-1.47.29c-.26.26-1,1-1.78,1.75a13.91,13.91,0,0,1-6.37-6.37c.75-.78,1.49-1.52,1.75-1.77a1.54,1.54,0,0,0,.28-1.47,31.15,31.15,0,0,1-.54-3.07A1,1,0,0,0,19.82,15H15.69a.73.73,0,0,0-.66.68c-.29,3.74,1.81,7.75,2.24,8.51h0l0,0a.58.58,0,0,0,.06.11h0a17.28,17.28,0,0,0,6.33,6.32h0l.22.12h0c.95.52,4.81,2.48,8.43,2.2a.74.74,0,0,0,.68-.66V28.18A1,1,0,0,0,32.14,27.05Z"/>
    </g>
</svg>
