<?xml version="1.0" encoding="UTF-8"?>
<svg viewBox="0 0 48 48" xmlns="http://www.w3.org/2000/svg">
    <defs>
        <style>.cls-1{fill:#fff;}</style>
    </defs>
    <g data-name="Layer 1">
        <polygon class="cls-1" points="17.68 22.39 5 25.39 5 31.07 17.68 28.07"/>
        <path class="cls-1" d="M21.72,17.25a3.16,3.16,0,0,1,6.24-.7L42.64,13.2V7.51L24.79,11.59,17.68,9.82v3.39L5,16.11V21.8L21.81,18A3.29,3.29,0,0,1,21.72,17.25Z"/>
        <path class="cls-1" d="M42.88,16.63,37,18.11c.17,4.23-5.36,10.7-12.13,12L5,34.63v5.69l12.68-2.91v3.08h7.2V35.76C35.2,33.56,44.13,24.58,42.88,16.63Z"/>
    </g>
</svg>
