<?xml version="1.0" encoding="UTF-8"?>
<svg version="1.1" viewBox="0 0 48 48" xmlns="http://www.w3.org/2000/svg">
    <path d="m24 2a22 22 0 0 0-22 22 22 22 0 0 0 22 22 22 22 0 0 0 22-22 22 22 0 0 0-22-22zm13.531 16.064c0.67862-0.01577 1.3673 0.10897 1.9531 0.39258 2.2332 1.0811 3.1427 5.2009 1.7656 7.998-0.85524 1.7372-2.2919 2.5213-4.3418 2.373-0.71727-0.05188-1.1875-0.19837-1.6816-0.52539l-0.68555-0.45508v4.5332h-2.1797v-14.088h2.0117v1.3867l0.35156-0.44727c0.56992-0.72454 1.6756-1.1417 2.8066-1.168zm-24.748 0.021485c0.66979-0.0064 1.34 0.1121 1.875 0.37109 0.8615 0.41704 1.4068 1.0464 1.9727 2.2773 0.32604 0.70928 0.37987 1.1083 0.38086 2.7578 0.0011 1.7882-0.033396 1.9963-0.47266 2.8516-0.26059 0.50737-0.63723 1.0999-0.83789 1.3164-1.2382 1.3362-3.9724 1.5809-5.5215 0.49414l-0.46289-0.32422v4.5508h-0.97852c-0.53812 0-1.0283-0.049818-1.0898-0.11133-0.0615-0.0615-0.11133-3.2319-0.11133-7.0449v-6.9316h1.998l0.21875 1.1719 0.31445-0.39844c0.48314-0.61422 1.5985-0.96975 2.7148-0.98047zm6.3262 0.20703h10.902v1.6777h-10.902v-1.6777zm-6.8184 1.3418c-0.86873 8.59e-4 -1.6405 0.50619-2.1055 1.377-0.33041 0.61877-0.38508 0.96569-0.38477 2.4805 4.197e-4 2.0373 0.28977 2.8442 1.2422 3.4785 0.72123 0.48043 1.4216 0.48074 2.3711 0.001953 1.035-0.52192 1.4911-1.635 1.4961-3.6484 0.0061-2.4581-0.86982-3.6912-2.6191-3.6895zm25.061 0.041015c-1.7514-0.1396-2.684 1.0276-2.7852 3.4902-0.06892 1.6784 0.14556 2.6236 0.75977 3.3535 0.67962 0.80768 1.5226 1.0268 2.5137 0.65234 1.2351-0.46666 1.8984-1.8103 1.8984-3.8477 0-2.256-0.82795-3.5225-2.3848-3.6484h-0.001954zm-18.242 2.6426h10.9v1.6777h-10.9v-1.6777zm0 4.0254h10.9v1.6777h-10.9v-1.6777z" fill="#fff"/>
</svg>
