<?xml version="1.0" encoding="UTF-8"?>
<svg version="1.1" viewBox="0 0 48 48" xmlns="http://www.w3.org/2000/svg">
    <path d="m7 5c-1.108 0-2 0.892-2 2v34c0 1.108 0.892 2 2 2h34c1.108 0 2-0.892 2-2v-34c0-1.108-0.892-2-2-2h-34zm17 5.2539a13.747 13.747 0 0 1 13.746 13.746 13.747 13.747 0 0 1 -13.746 13.746 13.747 13.747 0 0 1 -13.746 -13.746 13.747 13.747 0 0 1 13.746 -13.746zm0 4.5312a9.2141 9.2141 0 0 0 -9.2148 9.2148 9.2141 9.2141 0 0 0 9.2148 9.2148 9.2141 9.2141 0 0 0 9.2148 -9.2148 9.2141 9.2141 0 0 0 -9.2148 -9.2148zm0 4.8516l3.7773 2.1816v4.3633l-3.7773 2.1816-3.7773-2.1816v-4.3633l3.7773-2.1816z" fill="#fff"/>
</svg>
