<?xml version="1.0" encoding="UTF-8"?>
<svg enable-background="new 0 0 48 48" version="1.0" viewBox="0 0 48 48" xml:space="preserve" xmlns="http://www.w3.org/2000/svg">
<style type="text/css">
	.st0{fill:#FFFFFF;}
</style>

<path d="m24 2a22 22 0 0 0-22 22 22 22 0 0 0 2.7383 10.592h-0.017578a22 22 0 0 0 19.279 11.408 22 22 0 0 0 15.297-6.2461v0.05273a22 22 0 0 0 0.39258-0.41992 22 22 0 0 0 0.24023-0.25586 22 22 0 0 0 1.2422-1.4199 22 22 0 0 0 0.14258-0.1875 22 22 0 0 0 1.1582-1.623 22 22 0 0 0 0.12695-0.20703 22 22 0 0 0 3.4004-11.693 22 22 0 0 0-22-22zm-12.82 7.6348c0.63803 0.00503 1.2836 0.25487 1.7988 0.75l2.127 2.1172a15.297 15.297 0 0 1 8.8945-2.8672 15.297 15.297 0 0 1 8.8945 2.875l2.1348-2.125c1.0225-0.99025 2.5769-0.99931 3.543-0.0332l0.0039 0.01367c0.96892 0.96611 0.95291 2.5451-0.0293 3.5273l-2.1426 2.1113a15.297 15.297 0 0 1 2.8926 8.9277v4.5723c-2.7758 2.9179-4.6794 4.7614-6.5371 5.3496-1.6397 0.51919-3.5178 0.23594-6.498-1.2207a2.2651 2.2651 0 0 0 2e-3 -0.05273 2.2651 2.2651 0 0 0-2.2637-2.2656 2.2651 2.2651 0 0 0-2.2656 2.2656 2.2651 2.2651 0 0 0 2.2656 2.2637 2.2651 2.2651 0 0 0 1.3359-0.44141c3.2865 1.6047 5.7542 2.0772 8.0273 1.3574 2.0957-0.66356 3.8407-2.208 5.9336-4.3594v2.1914h-0.0332a18.584 18.584 0 0 1-15.264 7.9922 18.584 18.584 0 0 1-15.246-7.9922h-0.050781v-9.6602a15.297 15.297 0 0 1 2.9004-8.9297l-2.1406-2.1094c-0.98221-0.98221-0.99822-2.5612-0.029297-3.5273l-0.00586-0.01367c0.48305-0.48305 1.1139-0.7218 1.752-0.7168zm-2.4688 7.4785c0.60255 0.06637 0.72822 0.68005 0.23438 1.5254-0.55974 0.95816-1.2832 4.4006-1.2832 5.2637v3.5918c0 0.7547 0.067236 2.9012-2.2773 0.55664-1.8766-1.8766-1.8806-4.1286-1.5-6.334 0.38056-2.2054 1.8888-3.3077 3.5078-4.2129 0.40474-0.2263 0.75093-0.34801 1.0312-0.38477 0.10512-0.01378 0.20103-0.01534 0.28711-0.0059zm30.467 0c0.08608-0.0095 0.18199-0.0079 0.28711 0.0059 0.28032 0.03676 0.62651 0.15846 1.0312 0.38477 1.619 0.90521 3.1273 2.0075 3.5078 4.2129 0.38056 2.2054 0.37656 4.4574-1.5 6.334-2.3446 2.3446-2.2773 0.19805-2.2773-0.55664v-3.5918c-2e-6 -0.86309-0.72346-4.3055-1.2832-5.2637-0.49384-0.84534-0.36817-1.459 0.23438-1.5254zm-21.617 5.4043a2.8178 2.8178 0 0 0-2.8184 2.8164 2.8178 2.8178 0 0 0 2.8184 2.8184 2.8178 2.8178 0 0 0 2.8164-2.8184 2.8178 2.8178 0 0 0-2.8164-2.8164zm12.881 0a2.8178 2.8178 0 0 0-2.8184 2.8164 2.8178 2.8178 0 0 0 2.8184 2.8184 2.8178 2.8178 0 0 0 2.8184-2.8184 2.8178 2.8178 0 0 0-2.8184-2.8164z" fill="#fff"/></svg>
