<?xml version="1.0" encoding="UTF-8"?>
<svg viewBox="0 0 48 48" xmlns="http://www.w3.org/2000/svg">
    <defs>
        <style>.cls-1{fill:#fff;}</style>
    </defs>
    <g data-name="Layer 1">
        <path class="cls-1" d="M41,10.7a20,20,0,0,0-30.71,1H23.11a3,3,0,0,1,3,3V34.3a3,3,0,0,1-3,3h-12A20,20,0,1,0,41,10.7Z"/>
        <path class="cls-1" d="m13.46 19.48h-3v4.88h2.92a2.85 2.85 0 0 0 2-0.61 2.22 2.22 0 0 0 0.67-1.75 2.45 2.45 0 0 0-0.69-1.82 2.64 2.64 0 0 0-1.9-0.7z"/>
        <path class="cls-1" d="M24.53,33.89V15.14a1.88,1.88,0,0,0-1.88-1.88H3.9A1.88,1.88,0,0,0,2,15.12V33.89a1.88,1.88,0,0,0,1.88,1.88H22.65A1.88,1.88,0,0,0,24.53,33.89Zm-7.39-8.71a5.69,5.69,0,0,1-3.78,1.14H10.47v5.2H8v-14h5.36a5.41,5.41,0,0,1,3.73,1.22A4.1,4.1,0,0,1,18.5,22,4,4,0,0,1,17.14,25.18Z"/>
    </g>
</svg>
