<svg xmlns="http://www.w3.org/2000/svg" viewBox="0 0 48 48"><defs><style>.a{fill:none;stroke:#fff;stroke-linecap:round;stroke-linejoin:round;}</style></defs><path class="a" d="M24,11.46a7.26,7.26,0,0,0-7.26,7.26h0c0,5.68,5.56,12.53,7,14.21a.44.44,0,0,0,.62,0l.05,0c1.41-1.68,6.85-8.52,6.85-14.2A7.25,7.25,0,0,0,24,11.46Zm0,10a2.72,2.72,0,1,1,2.71-2.73v0A2.71,2.71,0,0,1,24,21.43Z"/><path class="a" d="M24,43.5c1.69,0,15.25-7.77,15.25-16.94v-20c-4,0-15.25-2-15.25-2s-11.26,2-15.25,2v20C8.75,35.73,22.31,43.5,24,43.5Z"/></svg>