<?xml version="1.0" encoding="UTF-8"?>
<svg width="48" height="48" viewBox="0 0 12.7 12.7" xmlns="http://www.w3.org/2000/svg">
    <path d="m1.8520834 1.3229163c-.2931584 0-.5291667.236007-.5291667.529167v8.9958327c0 .29316.2360083.529167.5291667.529167h8.9958336c.293158 0 .529167-.236007.529167-.529167v-8.9958327c0-.29316-.236009-.529167-.529167-.529167zm4.4979163 1.190625c.691866 0 1.333539.213122 1.864486.576192.0027.002.005.0037.0078.0057.09542.06569.186584.136773.274401.211873.00047.00036.0011.000624.0016.001.09691.08296.187687.172634.274401.266134.102113.11009.197708.226102.284221.349332.214685.3058.377389.649349.47904 1.01906.000144.000999.000374.0015.000517.0021.03448.12567.06106.254337.08061.385507.0024.0162.005.03228.0072.04857.0075.05586.01447.111766.01912.168466.005.05954.0076.11985.0093.180351.00044.0154.0018.03059.0021.04599.00022.0158.0026.03112.0026.04702 0 .4721-.162401.991591-.416512 1.502751-.01386.0279-.03004.0554-.04444.0832-.0734.14177-.153476.281876-.239262.420646-.43047.69635-.994479 1.337462-1.516703 1.775602-.113662.09537-.223823.179431-.331246.253731-.000309.00021-.000721.000307-.001.000517-.296236.2048797-.563503.3291787-.758093.3291787-.2544286 0-.5717291-.142828-.906921-.3787877-.0003164-.00022-.0007133-.000297-.00103-.000517-.06614-.04659-.1327007-.09761-.1999877-.151412-.00304-.002-.00574-.0047-.00878-.0067-.074793-.06015-.1494767-.12352-.2247924-.191719-.089938-.08147-.1794425-.167816-.2687177-.259416-.0005199-.001-.00103-.0015-.00155-.0021-.385716-.39612-.755182-.87811-1.0521321-1.38958-.000195-.0003-.000322-.000693-.0005167-.001-.056826-.09792-.1108795-.196089-.1617474-.295589v-.000517c-.068012-.13309-.1294607-.266829-.1850015-.401009-.00308-.0074-.00626-.01522-.0093-.02222-.025594-.06269-.053448-.125502-.075964-.188102-.1330357-.36975-.2108396-.735717-.2108398-1.076937 0-.0208.00272-.0408.0031-.0615.00143-.07733.00472-.15396.011369-.22996.0715-.81692.439942-1.547651.9968383-2.085661.00386-.0038.00801-.0069.011886-.01085.09906-.09478.2044874-.182583.3147094-.264583.040515-.0301.079527-.06213.1214395-.09043.068162-.04597.1391918-.08777.2108399-.128674.4829984-.27598 1.040988-.435633 1.6371092-.435633zm-.037723.398426a2.9104167 2.9104167 0 0 0 -.07183.0021v.07545c.021667-.0312.046239-.05581.07183-.07751zm.42478.02739c.0166.0199.03086.04188.04237.06718.01345-.0206.02863-.03746.04392-.05426a2.9104167 2.9104167 0 0 0 -.0863-.01292zm-.7818643.0016a2.9104167 2.9104167 0 0 0 -.3095416.05891c.063339.07943.097151.178706.097151.300756v.08113h-.6640421c.00687.06656.03112.116562.072347.149862s.099119.05013.1731161.05013c.059727 0 .1205666-.0089.1829345-.02636.0629-.018.1272048-.04523.1932699-.08113v.219108c-.067125.0253-.1338964.04414-.2010214.05684-.067126.0132-.1344131.02015-.2015379.02015-.160678 0-.285846-.04107-.375171-.122473-.076377-.07047-.1179652-.166384-.1286742-.285254a2.9104167 2.9104167 0 0 0 -.456303.357043v.02739h-.028422a2.9104167 2.9104167 0 0 0 -.7115844 1.137914c.046126-.0106.094837-.01757.1493448-.01757.1527501 0 .2719761.04111.3576011.123506.086153.08246.129191.196735.129191.342615s-.043038.260215-.129191.342615c-.085625.08251-.204851.123507-.3576011.123507-.1222076 0-.2223701-.02718-.3023071-.07958a2.9104167 2.9104167 0 0 0 -.00517.100769 2.9104167 2.9104167 0 0 0 .1116211.795817v-.04393h.2852539v.707967a2.9104167 2.9104167 0 0 0 2.5135418 1.450558 2.9104167 2.9104167 0 0 0 2.218986-1.027328v-.145211c.0286.0139.05857.02071.08785.03101a2.9104167 2.9104167 0 0 0 .115239-.157613c-.05941-.016-.109491-.03581-.14056-.06201-.05074-.0428-.07597-.107621-.07596-.194821 0-.09408.03215-.163889.09663-.209289.06448-.0455.163425-.06821.296623-.06821.03166 0 .06616.0042.09974.0072a2.9104167 2.9104167 0 0 0 .211873-1.083654 2.9104167 2.9104167 0 0 0 -.09508-.729155h-.225309v.376722c0 .0412.0084.06943.02481.08423.01639.0142.04852.02119.09715.02119h.146245v.203089h-.243396c-.112051 0-.191704-.02326-.238745-.06976-.04651-.04707-.06976-.126716-.06976-.238745v-.376722h-.141077v-.203088h.141077v-.252181l.283703.000517v.251664h.163298a2.9104167 2.9104167 0 0 0 -.714685-1.141533h-.17415v-.160196a2.9104167 2.9104167 0 0 0 -.844393-.487826c.0061.03409.01344.06689.01344.107487v.540535h-.285254v-.46302c.000525-.0069.001-.01419.001-.02119.000528-.0074.000516-.01782.000516-.03152 0-.06283-.0094-.108426-.02791-.136426-.0185-.0285-.04817-.04289-.0894-.04289-.05391 0-.09546.02226-.125057.06666-.02907.0444-.04442.108753-.04548.192753v.435632h-.285254v-.46302c0-.09834-.0084-.161136-.02532-.189136-.01691-.0285-.04709-.04289-.09043-.04289-.05444 0-.096493.02228-.1260915.06718-.0296.0444-.044442.108203-.044442.191203v.436665h-.2852323v-.806128zm-.5560387.133274v.000516a2.9104167 2.9104167 0 0 0 -.3157429.129708c-.0001794.001-.0008612.0021-.00103.0031h.3684529c0-.05393-.015829-.09743-.047542-.130225-.00115-.002-.00295-.0021-.00413-.0031zm-.3787884 1.793689c.1025382 0 .1802059.03115.2330609.09405.053386.06293.080098.154451.080098.274402v.541052h-.2852535v-.08837-.325562c0-.07664-.00201-.129546-.00568-.158646-.0032-.0291-.00914-.05038-.01757-.06408-.011099-.0185-.025933-.03279-.044958-.04289-.019026-.011-.040799-.01602-.065112-.01602-.0592 0-.1057013.02325-.1395264.06925-.033827.04547-.050643.108236-.050643.189136v.437183h-.2837087v-.888318h.2837037v.130225c.042814-.05181.088329-.08991.1364258-.114206.0481-.0249.1010253-.03721.1591632-.03721zm.9188072 0c.052326 0 .1072377.0039.1648476.01188.057614.0079.1204494.02031.1881023.03721v.215491c-.06078-.0254-.1196596-.04414-.1762167-.05684-.056553-.0131-.1099839-.01912-.1601967-.01912-.053913 0-.093981.007-.1204061.02067-.025901.0132-.038757.03401-.038757.06201 0 .0227.0099.04009.029455.05219.020086.0122.055703.02087.1069703.02687l.049609.0067c.1453507.0186.2433111.04917.2935221.09147.050214.04226.075448.108554.075448.198954 0 .09461-.035136.165824-.1049039.213424-.069768.0475-.1736469.07131-.3121255.07131-.058667 0-.119519-.0045-.1824181-.01447-.062366-.009-.126683-.02284-.1927529-.04134v-.215491c.056553.0274.1144347.04831.1736328.06201.059727.0142.1205899.02015.181901.02015.0555 0 .097046-.0069.1250569-.02222.028013-.0153.041858-.03811.041858-.06821 0-.0254-.0099-.04423-.029455-.05633-.019027-.0127-.057109-.02297-.1147218-.02997l-.050126-.0057c-.1263226-.0159-.2148768-.04557-.2656168-.08837s-.075965-.10762-.075964-.19482c0-.09408.032155-.163889.096635-.20929.06448-.0455.163426-.06821.2966228-.06821zm1.0521322 0c.139536 0 .250835.04209.334346.12609.08404.08404.126091.19633.126091.336931v.08113h-.663526c.0069.06656.03112.116562.07235.149862s.0986.04961.172599.04961c.05973 0 .121083-.0089.183451-.02635.0629-.018.127205-.04472.19327-.08062v.218591c-.06712.0254-.134413.04466-.201538.05736-.06713.0136-.133896.01964-.201021.01964-.160678 0-.285846-.04056-.375171-.121956-.0888-.08192-.133326-.196705-.133326-.344165 0-.14482.04353-.258581.130742-.341581.08774-.08294.208456-.12454.361735-.12454zm1.119311 0c.04651 0 .09253.0049.13746.01292.04545.008.09046.01977.135392.03617v.231511c-.03859-.0264-.07768-.04569-.116789-.05839-.03859-.0131-.07865-.01912-.120406-.01912-.07928 0-.14112.02326-.185518.06976-.04387.046-.06563.11027-.06563.19327 0 .08298.02176.147803.06563.194303.0444.046.106239.06925.185518.06925.0444 0 .08645-.007.126091-.02015.04017-.0132.07727-.03249.111104-.05839v.232027c-.0444.0164-.08941.02869-.135392.03669-.04545.0084-.09148.0124-.13746.0124-.160149 0-.285305-.04057-.375687-.122473-.09038-.08246-.135393-.197248-.135393-.343648 0-.14641.04501-.260198.135393-.342098.09038-.08242.215538-.124023.375687-.124023zm-1.120861.188619c-.05497 0-.09948.01582-.133842.04702-.03435.03067-.05614.07523-.0646.133325h.36897c0-.05393-.01583-.09742-.04754-.130224-.03119-.0333-.07225-.05013-.122989-.05013zm-3.2426967.01447c-.0629 0-.1108821.02271-.144177.06821-.032767.04493-.049093.10972-.049093.19482s.016326.150354.049093.195854c.033299.0449.081282.0677.144177.0677.06184 0 .1093404-.0228.1421104-.0677.032767-.04547.049093-.110754.049093-.195854s-.016326-.14992-.049093-.19482c-.032773-.0454-.080273-.06821-.1421104-.06821zm3.1450277 1.502234h.283704v.23151h-.283704zm-2.3585122.324528c.1527496 0 .2719758.04111.3576008.123506.086153.08246.129191.196735.129191.342615s-.043038.259598-.129191.342098c-.085625.08242-.2048512.124024-.3576008.124024-.1532786 0-.2735037-.04162-.3601847-.124024-.086153-.08246-.1291912-.196218-.1291912-.342098s.043038-.260115.1291912-.342615c.086681-.0825.2069061-.123506.3601847-.123506zm1.6841349 0c.1395363 0 .2508353.04209.3343463.12609.08404.08404.126091.196331.126091.336931v.08062h-.6635257c.00687.06656.030603.116562.07183.149862s.09912.05013.173116.05013c.059727 0 .1205667-.0089.1829347-.02636.0629-.018.127722-.04471.193787-.08062v.218592c-.06713.0254-.134412.04466-.201538.05736-.06713.0136-.1344135.01964-.2015385.01964-.1606783 0-.2853293-.04056-.3746543-.121957-.088796-.08192-.1333251-.196705-.1333251-.344165 0-.14482.043532-.259098.1307412-.342098.087739-.08302.2084565-.124023.3617352-.124023zm.6743773.02119h.283704v.887801h-.283704zm.548804 0h.285254v.08888c0 .04806.000012.108384-.000517.181384-.000524.07241-.001.120911-.001.145211.000001.07132.002.122812.0057.154512.0037.0312.0101.05391.01912.06821.01163.0185.02646.03289.04496.04289.01903.01.0408.01499.06511.01499.0592 0 .105701-.02271.139526-.06821.03383-.04546.05064-.108853.05064-.189653v-.438216h.283704v.887801h-.283704v-.128157c-.04281.05182-.08833.08992-.136426.114721-.04757.0243-.1.03669-.157613.03669-.102538 0-.1807-.03167-.234611-.09457-.05339-.06293-.0801-.153945-.0801-.273885v-.000517zm-1.2247315.167432c-.054967 0-.1000009.01531-.1343589.04651-.034354.03067-.055619.07523-.064079.133325h.3684534c0-.05392-.01583-.09742-.04754-.130225-.031186-.0333-.071735-.04961-.1224729-.04961zm2.7491865 0c-.05391 0-.09398.007-.120406.02067-.0259.0132-.03876.0335-.03876.0615 0 .0227.0099.04009.02946.05219.01077.0065.03763.0095.05736.01447a2.9104167 2.9104167 0 0 0 .0739-.148828c-.00048-.00001-.0011 0-.0015 0zm-4.4317712.01395c-.0629 0-.1108823.02271-.1441772.06821-.032767.04493-.049093.110237-.049093.195337s.016326.150354.049093.195854c.0333.045.081281.06718.1441772.06718.06184 0 .1093402-.02228.1421101-.06718.032767-.04546.049093-.110754.049093-.195854s-.016326-.150437-.049093-.195337c-.032767-.0455-.080267-.06821-.1421101-.06821z" fill="#fff" stroke-width=".26458"/>
</svg>
