<svg id="Layer_2" data-name="Layer 2" xmlns="http://www.w3.org/2000/svg" viewBox="0 0 48 48"><defs><style>.cls-1{fill:none;stroke:#fff;stroke-linecap:round;stroke-linejoin:round;}</style></defs><path class="cls-1" d="M24,9.27A12.25,12.25,0,0,1,36.25,21.52h0A12.25,12.25,0,1,1,24,9.27Zm-2.54,2.34a10.23,10.23,0,0,0-7.22,6.81l3.83,1.67,1.11-3.66L22,14.77l.87-1.63Zm-3.39,8.48-2.69,1.42.78,6.6a10.13,10.13,0,0,0,1.57,1.5l5.25-8Zm10.49-7.73-1.71,2.75,5-.18A10.36,10.36,0,0,0,28.56,12.36Zm3.85,3.33L26,18.6l.8,3.87,3.42,1,.53,5.82a10.19,10.19,0,0,0,1.71-13.57Z"/><path class="cls-1" d="M24,4.5s-11.26,2-15.25,2v20a11.16,11.16,0,0,0,.8,4.1,15,15,0,0,0,2,3.61,22,22,0,0,0,2.81,3.07,34.47,34.47,0,0,0,3,2.48,34,34,0,0,0,2.89,1.86c1,.59,1.71,1,2.13,1.19l1,.49a1.44,1.44,0,0,0,1.24,0l1-.49c.42-.2,1.13-.6,2.13-1.19a34,34,0,0,0,2.89-1.86,34.47,34.47,0,0,0,3-2.48,22,22,0,0,0,2.81-3.07,15,15,0,0,0,2-3.61,11.16,11.16,0,0,0,.8-4.1v-20C35.26,6.53,24,4.5,24,4.5Z"/></svg>