<?xml version="1.0" encoding="UTF-8"?>
<svg width="48" height="48" viewBox="0 0 12.7 12.7" xmlns="http://www.w3.org/2000/svg">
    <path d="m1.8521 1.3229c-0.29316 0-0.52917 0.23601-0.52917 0.52917v8.9958c0 0.29316 0.23601 0.52917 0.52917 0.52917h8.9958c0.29316 0 0.52917-0.23601 0.52917-0.52917v-7.6135h-1.032v0.71417h-1.5875v-0.71417h-2.3549v2.3409h0.72812v1.588h-1.588v-1.588h0.7276v-2.3409h-3.0293v6.2973h5.5165v-0.78083h1.588v1.588h-1.588v-0.6749h-5.6488v-6.5619h5.6488v-0.74104h1.5875v0.74104h1.032v-1.2501c0-0.29316-0.23601-0.52917-0.52917-0.52917zm7.6331 3.4065h0.13229v3.2809h-0.13229zm-3.8194 0.96893v1.3436h1.342v-1.3436zm3.2148 3.174v1.3436h1.342v-1.3436z" fill="#fff" stroke-width=".26458"/>
</svg>
