<?xml version="1.0" encoding="UTF-8"?>
<svg width="192" height="192" version="1.1" viewBox="0 0 50.8 50.8" xmlns="http://www.w3.org/2000/svg">
    <g fill="#fff">
        <path d="m5.2917 5.2917v9h2.9998v-5.9996h6.0002v-3.0003h-6.0002z"/>
        <path d="m45.508 5.2917h-9v2.9998h5.9996v6.0002h3.0003v-6.0002z"/>
        <path d="m45.508 45.508v-9h-2.9998v5.9996h-6.0002v3.0003h6.0002z"/>
        <path d="m10.78 28.02v12h12v-12h-8.5003zm3.5 3.5h5.0002v5.0002h-5.0002z"/>
        <path d="m10.78 10.78v12h12v-12h-8.5003zm3.5 3.5h5.0002v5.0002h-5.0002z"/>
        <path d="m28.02 10.78v12h12v-12h-8.5003zm3.5 3.5h5.0002v5.0002h-5.0002z"/>
        <path d="m28.02 28.02v3.499h-5.17e-4c0 2.8476 1.0239 4.8414 2.2329 6.2193 1.0089 1.1966 2.1066 1.9344 3.7672 2.281v-3.5c-0.22433-0.13712-0.84296-0.56581-1.172-0.93586-0.67381-0.7679-1.3279-1.9951-1.3281-4.0633h5.0002c0 2.0689-0.65416 3.2963-1.3281 4.0644-0.32907 0.37004-0.94717 0.79822-1.1715 0.93534v3.5c1.6606-0.34663 2.7583-1.0838 3.7672-2.2805 1.209-1.3778 2.2324-3.3716 2.2324-6.2193v-3.5z"/>
        <path d="m5.2917 45.508h9v-2.9998h-5.9996v-6.0002h-3.0003v6.0002z"/>
    </g>
</svg>
