<?xml version="1.0" encoding="UTF-8"?>
<svg data-name="Layer 1" viewBox="0 0 48 48" xmlns="http://www.w3.org/2000/svg">
    <defs>
        <style>.cls-1{fill:#fff;}</style>
    </defs>
    <path class="cls-1" d="M24,2A22,22,0,1,0,46,24,22,22,0,0,0,24,2Zm3.8,6a3,3,0,1,1-3,3A3,3,0,0,1,27.8,8ZM36,25.12A10.89,10.89,0,0,1,27.8,21.4l-.9,4.46,3.13,3V40h-3V31.07l-3.12-3-1.49,6.55L12,32.56l.59-3,7.3,1.49L22.29,19l-2.68,1v5.06h-3v-7l7.74-3.27c.45,0,.75-.15,1.19-.15a3.05,3.05,0,0,1,2.53,1.49l1.49,2.38A7.32,7.32,0,0,0,36,22.14Z"/>
</svg>
