<?xml version="1.0" encoding="UTF-8"?>
<svg viewBox="0 0 48 48" xmlns="http://www.w3.org/2000/svg">
    <defs>
        <style>.cls-1{fill:#fff;}</style>
    </defs>
    <g data-name="Layer 1">
        <path class="cls-1" d="M22.47,20c-.17.67-.67,2.32-1.48,5h3c-.76-2.47-1.2-3.87-1.29-4.19S22.51,20.14,22.47,20Z"/>
        <path class="cls-1" d="M31.63,26a1.18,1.18,0,0,0-.51,1.05c0,.67.39,1,1.16,1a1.86,1.86,0,0,0,1.33-.48,1.68,1.68,0,0,0,.49-1.27v-.72l-.92,0A3,3,0,0,0,31.63,26Z"/>
        <path class="cls-1" d="M38,4H13.41V44H38a2,2,0,0,0,2-2V6A2,2,0,0,0,38,4ZM25.38,29.67l-.83-2.73H20.38l-.83,2.73H16.94l4-11.49h3L28,29.67Zm11.1,0H34.81l-.46-1.19h-.07A3.57,3.57,0,0,1,33,29.53a3.92,3.92,0,0,1-1.66.29,2.72,2.72,0,0,1-2-.72,2.77,2.77,0,0,1-.72-2.05,2.32,2.32,0,0,1,1-2.05,5.59,5.59,0,0,1,2.94-.73l1.52-.05v-.38a1.19,1.19,0,0,0-1.36-1.34,6.23,6.23,0,0,0-2.46.64l-.8-1.61a7.12,7.12,0,0,1,3.36-.79,4.19,4.19,0,0,1,2.7.76,2.86,2.86,0,0,1,.94,2.34Z"/>
        <path class="cls-1" d="M8,6V42a2,2,0,0,0,2,2h1.41V4H10A2,2,0,0,0,8,6Z"/>
    </g>
</svg>
