<?xml version="1.0" encoding="UTF-8"?>
<svg version="1.1" viewBox="0 0 48 48" xmlns="http://www.w3.org/2000/svg">
    <path d="m34.4 45.9 5.2-4.4-9.7-8.1-4.6 4.6l2.07 1.8z" fill="#fff"/>
    <path d="m24 4c-3 0-5.6 0.75-7.8 2.01-4.6 2.68-7.45 7.59-7.45 13v6c0.0000732 5.36 2.86 10.3 7.5 13 4.64 2.68 10.4 2.68 15 0 4.7-2.7 7.5-7.6 7.6-13v-6c-0.1-5.4-2.9-10.3-7.6-13-2.3-1.37-4.2-2-7.2-2zm-0.25 6.13c1.17 0 2.33 0.291 3.38 0.871 2.09 1.16 3.37 3.68 3.38 6v10c-0.000106 2.32-1.29 4.84-3.38 6s-4.66 1.16-6.75 0-3.37-3.68-3.38-6v-10c0.000106 -2.32 1.29-4.84 3.38-6 1.04-0.581 2.21-0.871 3.38-0.871z" fill="#fff"/>
</svg>
