<?xml version="1.0" encoding="UTF-8"?>
<svg viewBox="0 0 48 48" xmlns="http://www.w3.org/2000/svg">
    <defs>
        <style>.cls-1{fill:#fff;}</style>
    </defs>
    <g data-name="Layer 1">
        <path class="cls-1" d="M8,6V42a2,2,0,0,0,2,2h1.41V4H10A2,2,0,0,0,8,6Z"/>
        <rect class="cls-1" x="24.71" y="22" width="4" height="4"/>
        <path class="cls-1" d="M38,4H13.41V44H38a2,2,0,0,0,2-2V6A2,2,0,0,0,38,4ZM34.71,26a2,2,0,0,1-2-2v6h-6a2,2,0,1,1-2,2,2,2,0,0,1,2-2h-6V24a2,2,0,1,1-2-2,2,2,0,0,1,2,2V18h6a2,2,0,1,1,2-2,2,2,0,0,1-2,2h6v6a2,2,0,1,1,2,2Z"/>
    </g>
</svg>
