<?xml version="1.0" encoding="UTF-8"?>
<svg version="1.1" viewBox="0 0 48 48" xmlns="http://www.w3.org/2000/svg">
    <path d="m7 5c-1.108 0-2 0.892-2 2v34c0 1.11 0.892 2 2 2h34c1.11 0 2-0.89 2-2v-34c0-1.108-0.89-2-2-2h-34zm19 7a12 12 0 0 1 12 12 12 12 0 0 1 -12 12v-4a8 8 0 0 0 8 -8 8 8 0 0 0 -8 -8v-4zm-4.83 0.25c0.55-0.08 0.83 0.5 0.83 1.75v20c0 2-0.71 2.29-2.12 0.88l-8.88-8.88c-1.062-1.06-1.062-2.94 0-4l8.88-8.88c0.53-0.53 0.96-0.82 1.29-0.87zm4.83 6.75c2.76 0 5 2.24 5 5s-2.24 5-5 5v-10z" fill="#fff"/>
</svg>
