<?xml version="1.0" encoding="UTF-8"?>
<svg version="1.1" viewBox="0 0 48 48" xmlns="http://www.w3.org/2000/svg">
    <g fill="#fff" stroke="#fff" stroke-width=".3">
        <g aria-label="Rainy">
            <path d="m5.9191 21.049q0 0.49805 0.011719 0.87305 0.017578 0.36914 0.035156 0.63867 0.023437 0.26953 0.052734 0.45117 0.035156 0.18164 0.070312 0.30469v0.02344h-1.4062v-0.02344q0.035156-0.12305 0.064453-0.30469 0.035156-0.18164 0.058594-0.45117 0.023437-0.26953 0.035156-0.63867 0.011719-0.375 0.011719-0.87305v-3.8145q0-0.49805-0.011719-0.86719-0.011719-0.375-0.035156-0.64453-0.023437-0.27539-0.058594-0.45703-0.029297-0.18164-0.064453-0.30469v-0.02344q0.11719 0.01172 0.24609 0.02344 0.11133 0.01172 0.24609 0.01758 0.14062 0 0.28711 0 0.22852 0 0.61523-0.05273 0.39258-0.05859 0.99609-0.05859 0.5625 0 1.0371 0.15234 0.48047 0.15234 0.83203 0.44531t0.54492 0.7207q0.19922 0.42188 0.19922 0.96094 0 0.42188-0.11133 0.78516-0.10547 0.35742-0.30469 0.65039-0.19336 0.29297-0.46875 0.52148-0.27539 0.22266-0.61523 0.375l2.0566 2.8887q0.15234 0.2168 0.28125 0.375 0.13477 0.1582 0.25195 0.26953 0.12305 0.11133 0.23438 0.1875 0.11133 0.07031 0.22852 0.11719v0.02344h-1.6934q-0.017578-0.11133-0.11719-0.29297-0.09375-0.1875-0.22266-0.36914l-2.0742-2.9238q-0.28711 0.0293-0.5918 0.0293t-0.62109-0.05273zm0-1.7754q0.57422 0.10547 1.0488 0.0293 0.48047-0.07617 0.82031-0.33398 0.3457-0.25781 0.5332-0.69726 0.19336-0.44531 0.19336-1.0781 0-0.43945-0.099609-0.79688-0.09961-0.35742-0.29883-0.60352-0.19336-0.25195-0.49219-0.38672-0.29883-0.14062-0.69727-0.14062-0.25195 0-0.43945 0.02344-0.1875 0.01758-0.31641 0.04101-0.15234 0.0293-0.25195 0.06445z"/>
            <path d="m15.54 21.359q-0.1582 0-0.39844 0-0.23438 0-0.51562 0t-0.58008 0-0.56836 0.0059q-0.26953 0-0.49219 0.0059-0.22266 0-0.3457 0l-0.2168 0.45703q-0.14062 0.28125-0.24023 0.49219-0.09961 0.20508-0.16406 0.36328-0.06445 0.1582-0.09375 0.27539-0.0293 0.11133-0.0293 0.21094 0 0.06445 0.0059 0.09961 0.0059 0.0293 0.01758 0.04687v0.02344h-1.0312v-0.02344q0.04101-0.04102 0.12891-0.17578 0.08789-0.14062 0.19922-0.33984 0.11719-0.19922 0.24609-0.45117 0.13477-0.25195 0.26367-0.52148l2.3906-4.9336h0.43945l2.3438 4.9336q0.13477 0.28125 0.26953 0.53906 0.14062 0.25781 0.25781 0.46289 0.11719 0.19922 0.20508 0.33398 0.08789 0.12891 0.11719 0.15234v0.02344h-1.5q0.01172-0.04687 0.01172-0.08203 0-0.04102 0-0.08789 0-0.12891-0.05859-0.31055-0.05273-0.18164-0.13477-0.36914-0.07617-0.19336-0.16406-0.36914-0.08203-0.17578-0.13477-0.29297zm-2.6719-0.45703h0.35742q0.24609 0 0.52148 0 0.28125-0.0059 0.5625-0.0059t0.54492 0q0.26367-0.0059 0.47461-0.0059l-1.2129-2.5898z"/>
            <path d="m18.681 19.449q0-0.52734-0.01172-0.91406-0.01172-0.39258-0.03516-0.67383-0.01758-0.28711-0.05273-0.48047-0.0293-0.19336-0.07031-0.31641v-0.02344h1.3594v0.02344q-0.04102 0.12305-0.07617 0.31641-0.0293 0.19336-0.05273 0.48047-0.01758 0.28125-0.0293 0.67383-0.01172 0.38672-0.01172 0.91406v1.4766q0 0.52734 0.01172 0.91992 0.01172 0.39258 0.0293 0.67969 0.02344 0.28125 0.05273 0.47461 0.03516 0.19336 0.07617 0.31641v0.02344h-1.3594v-0.02344q0.04101-0.12305 0.07031-0.31641 0.03516-0.19336 0.05273-0.47461 0.02344-0.28711 0.03516-0.67969 0.01172-0.39258 0.01172-0.91992z"/>
            <path d="m27.142 23.422h-0.22852l-4.6582-4.582v2.0859q0 0.52734 0.0059 0.91992 0.0059 0.39258 0.01758 0.67969 0.01758 0.28125 0.04102 0.47461 0.0293 0.19336 0.07031 0.31641v0.02344h-0.87891v-0.02344q0.04101-0.12305 0.07031-0.31641 0.0293-0.19336 0.04687-0.47461 0.01758-0.28711 0.02344-0.67969 0.0059-0.39258 0.0059-0.91992v-1.4766q0-0.52734-0.0059-0.91406-0.0059-0.39258-0.02344-0.67383-0.01758-0.28711-0.04687-0.48047-0.0293-0.19336-0.07031-0.31641v-0.02344h0.36328l4.6641 4.6055v-2.1973q0-0.52734-0.0059-0.91406-0.0059-0.39258-0.02344-0.67383-0.01172-0.28711-0.03516-0.48047-0.02344-0.19336-0.06445-0.31641v-0.02344h0.87305v0.02344q-0.04102 0.12305-0.07031 0.31641-0.02344 0.19336-0.04102 0.48047-0.01758 0.28125-0.02344 0.67383-0.0059 0.38672-0.0059 0.91406z"/>
            <path d="m31.583 20.926q0 0.52734 0.01172 0.91992 0.01172 0.39258 0.0293 0.67969 0.02344 0.28125 0.05273 0.47461 0.03516 0.19336 0.07617 0.31641v0.02344h-1.3594v-0.02344q0.04102-0.12305 0.07031-0.31641 0.03516-0.19336 0.05273-0.47461 0.02344-0.28711 0.03516-0.67969 0.01172-0.39258 0.01172-0.91992v-0.4043l-2.1094-2.7832q-0.21094-0.28125-0.4043-0.45117-0.19336-0.17578-0.29297-0.22266v-0.02344h1.6641q0 0.10547 0.07617 0.32812 0.07617 0.2168 0.31055 0.5332l1.4883 1.9688 1.5234-2.0508q0.16406-0.22266 0.24609-0.43945 0.08789-0.2168 0.08789-0.33984h1.0723v0.02344q-0.14648 0.09961-0.30469 0.25195-0.15234 0.15234-0.35742 0.43359l-1.9805 2.6836z"/>
        </g>
        <g aria-label="Mood">
            <path d="m11.064 32.815q0.06445-0.09375 0.14648-0.27539 0.08203-0.1875 0.12891-0.46875 0.06445-0.41016 0.14062-0.91992 0.08203-0.51562 0.16406-1.0781 0.08789-0.5625 0.16992-1.1484 0.08789-0.5918 0.16406-1.1602 0.08203-0.57422 0.15234-1.1016 0.07617-0.5332 0.13477-0.97266 0.05859-0.43945 0.09375-0.76172 0.04102-0.32812 0.05859-0.49219h0.74414l3.6855 6.8906 3.6562-6.8906h0.55664l0.96094 6.9609q0.04102 0.32812 0.08789 0.5625t0.09375 0.4043q0.04687 0.16406 0.08789 0.27539 0.04687 0.10547 0.08789 0.17578v0.02344h-1.4766v-0.02344q0.0293-0.06445 0.05273-0.21094 0.0293-0.14648 0.0293-0.35156 0-0.07617-0.0059-0.15234-0.0059-0.08203-0.01758-0.17578l-0.74414-5.6133-3.457 6.5039-0.4043-0.04687-3.4805-6.5156q-0.20508 1.3887-0.35742 2.5664-0.06445 0.50391-0.12891 1.0078-0.06445 0.49805-0.11719 0.93164-0.04687 0.43359-0.07617 0.76758-0.0293 0.32812-0.0293 0.48633 0 0.19922 0.01172 0.35156t0.02344 0.25781q0.01758 0.12305 0.03516 0.2168h-1.1719z"/>
            <path d="m23.286 29.668q0-0.69141 0.25781-1.2832 0.26367-0.5918 0.71484-1.0254 0.45117-0.43945 1.0664-0.68555 0.61523-0.24609 1.3184-0.24609 0.69141 0 1.3008 0.23438 0.61524 0.22852 1.0664 0.65625 0.45703 0.42774 0.7207 1.0371t0.26367 1.3652q0 0.62695-0.22266 1.2129-0.22266 0.58008-0.65039 1.0312-0.42774 0.44531-1.0547 0.71484-0.62695 0.26367-1.4355 0.26367-0.68555 0-1.2949-0.22852-0.60938-0.22852-1.0664-0.65039-0.45703-0.42773-0.7207-1.0312-0.26367-0.60938-0.26367-1.3652zm3.4922 2.8594q0.44531 0 0.82031-0.17578 0.375-0.17578 0.64453-0.50391 0.27539-0.32812 0.42188-0.79688 0.15234-0.47461 0.15234-1.0664 0-0.67383-0.14648-1.248-0.14062-0.57422-0.43359-0.99023-0.28711-0.42188-0.7207-0.65625-0.43359-0.24024-1.0137-0.24024-0.44531 0-0.82031 0.16992t-0.65039 0.49219q-0.26953 0.32226-0.42188 0.79102t-0.15234 1.0664q0 0.66797 0.14648 1.248 0.15234 0.57422 0.43945 1.002 0.29297 0.42188 0.72656 0.66797 0.43359 0.24024 1.0078 0.24024z"/>
            <path d="m30.857 29.668q0-0.69141 0.25781-1.2832 0.26367-0.5918 0.71484-1.0254 0.45117-0.43945 1.0664-0.68555 0.61524-0.24609 1.3184-0.24609 0.69141 0 1.3008 0.23438 0.61523 0.22852 1.0664 0.65625 0.45703 0.42774 0.7207 1.0371t0.26367 1.3652q0 0.62695-0.22266 1.2129-0.22266 0.58008-0.65039 1.0312-0.42773 0.44531-1.0547 0.71484-0.62695 0.26367-1.4355 0.26367-0.68555 0-1.2949-0.22852-0.60938-0.22852-1.0664-0.65039-0.45703-0.42773-0.7207-1.0312-0.26367-0.60938-0.26367-1.3652zm3.4922 2.8594q0.44531 0 0.82031-0.17578 0.375-0.17578 0.64453-0.50391 0.27539-0.32812 0.42188-0.79688 0.15234-0.47461 0.15234-1.0664 0-0.67383-0.14648-1.248-0.14062-0.57422-0.43359-0.99023-0.28711-0.42188-0.7207-0.65625-0.43359-0.24024-1.0137-0.24024-0.44531 0-0.82031 0.16992t-0.65039 0.49219q-0.26953 0.32226-0.42188 0.79102-0.15234 0.46875-0.15234 1.0664 0 0.66797 0.14648 1.248 0.15234 0.57422 0.43945 1.002 0.29297 0.42188 0.72656 0.66797 0.43359 0.24024 1.0078 0.24024z"/>
            <path d="m39.974 26.955q-0.0059 0.48047-0.01172 0.93164 0 0.19336-0.0059 0.39844 0 0.19922-0.0059 0.39844 0 0.19922 0 0.38086 0 0.17578 0 0.31641 0 0.29297 0 0.70898 0.0059 0.41016 0.01172 0.84375 0.0059 0.43359 0.01758 0.83789 0.01172 0.39844 0.0293 0.66797 0.05859 0.01172 0.15234 0.02344 0.09375 0.0059 0.19336 0.01758 0.10547 0.0059 0.20508 0.01172 0.09961 0 0.16992 0 0.32226 0 0.65039-0.04102 0.33398-0.04102 0.63867-0.15234 0.31055-0.11719 0.58008-0.31641 0.26953-0.19922 0.46875-0.50977 0.20508-0.31641 0.31641-0.75586 0.11719-0.44531 0.11719-1.0488 0-1.3301-0.63867-2.0508-0.63281-0.7207-1.8926-0.7207-0.12305 0-0.26367 0.0059-0.13476 0.0059-0.26953 0.01758-0.13477 0.0059-0.25781 0.01758-0.11719 0.01172-0.20508 0.01758zm-1.2129-0.42773q0.14062 0.0059 0.26367 0.0059 0.10547 0.0059 0.20508 0.0059t0.14648 0q0.08203 0 0.29297-0.0059 0.21094-0.0059 0.47461-0.01172 0.26953-0.01172 0.5625-0.01758 0.29883-0.01172 0.55078-0.01172 0.68555 0 1.3066 0.1582 0.62109 0.1582 1.0898 0.52148 0.47461 0.35742 0.75 0.94336 0.27539 0.58008 0.27539 1.4355 0 0.91992-0.31641 1.5586t-0.85547 1.043q-0.53906 0.39844-1.2539 0.58008-0.70898 0.17578-1.5 0.17578-0.1875 0-0.46875-0.01172t-0.57422-0.02344q-0.29297-0.01172-0.55664-0.02344-0.25781-0.01172-0.39258-0.01172v-0.02344q0.04101-0.12305 0.07031-0.31641 0.03516-0.19336 0.05274-0.47461 0.02344-0.28711 0.03516-0.67969t0.01172-0.91992v-1.4766q0-0.52734-0.01172-0.91992-0.01172-0.39258-0.03516-0.67969-0.01758-0.28711-0.05274-0.48047-0.0293-0.19336-0.07031-0.31641z"/>
        </g>
    </g>
</svg>
