<?xml version="1.0" encoding="utf-8"?>
<!-- Generator: Adobe Illustrator 25.1.0, SVG Export Plug-In . SVG Version: 6.00 Build 0)  -->
<svg version="1.1" id="Layer_1" xmlns="http://www.w3.org/2000/svg" xmlns:xlink="http://www.w3.org/1999/xlink" x="0px" y="0px"
	 viewBox="0 0 48 48" style="enable-background:new 0 0 48 48;" xml:space="preserve">
<style type="text/css">
	.st0{fill:none;stroke:#FFFFFF;stroke-linecap:round;stroke-linejoin:round;}
</style>
<g>
	<path class="st0" d="M37.7,20.1l0,0.4l0-13.6l-33.1,0l0,22l14.9,0c0,0,0,2.9,0,4.1c0,1,0.1,2-2.4,2.1c0,0-2.1,0-2.9,0
		c-1.5,0.1-2.1,1.3-2.1,2.1h12"/>
	<path class="st0" d="M22.1,26.8H6.5V9h29.1v10.7"/>
	<circle class="st0" cx="32.5" cy="30.2" r="11"/>
	<path class="st0" d="M37,24l-3.9,3.9l3.9,3.9"/>
	<path class="st0" d="M28.1,28.6l3.9,3.9l-3.9,3.9"/>
</g>
</svg>
