<svg xmlns="http://www.w3.org/2000/svg" viewBox="0 0 48 48"><defs><style>.a{fill:none;stroke:#fff;stroke-linecap:round;stroke-linejoin:round;}</style></defs><path class="a" d="M27.85,18c-.44,5-2.26,6.74-5.39,7.7S11.5,29,11.5,29L8.42,23.85S15.06,14,22.51,10.37l.43-5,2.62-.91,3.73,4.86h4.47a58.31,58.31,0,0,1,5.82,25.87v6.39A36,36,0,0,1,28.42,43.5a38.11,38.11,0,0,1-11-1.68V33.5L24.18,25"/><path class="a" d="M39.58,35.13A36,36,0,0,1,28.42,37a37.91,37.91,0,0,1-11-1.69"/><circle class="a" cx="20.97" cy="17.53" r="1.83"/></svg>