<svg id="Layer_2" data-name="Layer 2" xmlns="http://www.w3.org/2000/svg" viewBox="0 0 48 48"><defs><style>.cls-1{fill:none;stroke:#fff;stroke-linecap:round;stroke-linejoin:round;}</style></defs><path class="cls-1" d="M6.39,4.5H21.75Q29.46,4.5,33,7.09c2.4,1.72,3.6,4.45,3.6,8.17a10.23,10.23,0,0,1-1.88,6.35,10.83,10.83,0,0,1-5.62,3.66,7.28,7.28,0,0,1,3.69,2.14,19.3,19.3,0,0,1,3.32,5L41.61,43.5H30.9l-4.76-9.69a10.71,10.71,0,0,0-2.92-4,6.53,6.53,0,0,0-3.92-1.07H16.45V43.5H6.4V4.5Zm10.06,7.29v10h4.23c2.11,0,3.62-.39,4.52-1.17a4.83,4.83,0,0,0,1.38-3.87,4.68,4.68,0,0,0-1.38-3.81c-.9-.77-2.41-1.15-4.52-1.15Z"/></svg>