<?xml version="1.0" encoding="UTF-8"?>
<svg version="1.1" viewBox="0 0 48 48" xmlns="http://www.w3.org/2000/svg">
    <path d="m6.0002 8c-1.108 0-2 0.892-2 2v28c0 1.108 0.892 2 2 2h7.6671c1.108 0 2-0.892 2-2s-0.892-2-2-2h-4.0675c-0.8864 0-1.5996-0.71321-1.5996-1.5996v-20.801c0-0.8864 0.71321-1.5996 1.5996-1.5996h4.0675c1.108 0 2-0.892 2-2s-0.892-2-2-2h-7.6671z" fill="#fff"/>
    <circle cx="15.108" cy="30.619" r="2.8217" fill="#fff"/>
    <path d="m28.236 14.559c-0.81526 0-1.4727 0.65544-1.4727 1.4707v3.6348l-3.1465-1.8164c-0.70604-0.40763-1.6041-0.16893-2.0117 0.53711l-0.2168 0.37695c-0.40763 0.70604-0.16698 1.6021 0.53906 2.0098l3.1484 1.8164-3.1484 1.8184c-0.70604 0.40763-0.94669 1.3037-0.53906 2.0098l0.2168 0.37695c0.40763 0.70604 1.3057 0.94474 2.0117 0.53711l3.1465-1.8164v3.6348c0 0.81526 0.6574 1.4707 1.4727 1.4707h0.43359c0.81526 0 1.4707-0.65544 1.4707-1.4707v-3.6348l3.1484 1.8164c0.70604 0.40763 1.6021 0.16893 2.0098-0.53711l0.2168-0.37695c0.40763-0.70604 0.16893-1.6021-0.53711-2.0098l-3.1484-1.8184 3.1484-1.8164c0.70604-0.40763 0.94474-1.3037 0.53711-2.0098l-0.2168-0.37695c-0.40763-0.70604-1.3037-0.94474-2.0098-0.53711l-3.1484 1.8164v-3.6348c0-0.81526-0.65544-1.4707-1.4707-1.4707z" fill="#fff" stroke-width="1.292"/>
    <path d="m42 8.0002c1.108 0 2 0.892 2 2v28c0 1.108-0.892 2-2 2h-7.6671c-1.108 0-2-0.892-2-2s0.892-2 2-2h4.0675c0.8864 0 1.5996-0.71321 1.5996-1.5996v-20.801c0-0.8864-0.71321-1.5996-1.5996-1.5996h-4.0675c-1.108 0-2-0.892-2-2s0.892-2 2-2h7.6671z" fill="#fff"/>
</svg>
