<?xml version="1.0" encoding="UTF-8"?>
<svg version="1.1" viewBox="0 0 48 48" xmlns="http://www.w3.org/2000/svg">
    <path d="m14.771 3.3594a3 3 0 0 0-3.0059 3.0098v8.9258h-10.543l5.0176 8.6895v17.646a3 3 0 0 0 3.0078 3.0098h23.459a3 3 0 0 0 3.0078-3.0098v-8.9238h3.0391a3 3 0 0 0 3.0059-3.0078v-17.648l5.0176-8.6895h-10.123l-21.883-0.0019531zm0.73047 3.4336h25.262l-2.4375 4.2227v17.953c-0.012 0.167-0.13474 0.30469-0.30273 0.30469h-2.3105v-10.971a3 3 0 0 0-3.0078-3.0078h-17.51v-8.1973c0-0.168 0.13864-0.30469 0.30664-0.30469zm3.1699 2.6211a0.636 0.636 0 0 0-0.64062 0.63867v1.9805a0.636 0.636 0 0 0 0.64062 0.64062h16.18a0.636 0.636 0 0 0 0.64063-0.64062v-1.9805a0.636 0.636 0 0 0-0.64063-0.63867h-16.18zm-1.8379 9.3594h0.79883c0.88589 0 1.5996 0.71372 1.5996 1.5996v3.8516h3.4922v-3.8516c0-0.88589 0.71372-1.5996 1.5996-1.5996h0.79883c0.88589 0 1.5996 0.71372 1.5996 1.5996v3.8516h3.8496c0.88588 0 1.5996 0.71372 1.5996 1.5996v0.79883c0 0.88589-0.71372 1.5996-1.5996 1.5996h-3.8496v3.4922h3.8496c0.88588 0 1.5996 0.71372 1.5996 1.5996v0.79883c0 0.88589-0.71372 1.5996-1.5996 1.5996h-3.8496v3.8496c0 0.88589-0.71372 1.5996-1.5996 1.5996h-0.79883c-0.88589 0-1.5996-0.71372-1.5996-1.5996v-3.8496h-3.4922v3.8496c0 0.88589-0.71372 1.5996-1.5996 1.5996h-0.79883c-0.88589 0-1.5996-0.71372-1.5996-1.5996v-3.8496h-3.8516c-0.88588 0-1.5996-0.71372-1.5996-1.5996v-0.79883c0-0.88589 0.71372-1.5996 1.5996-1.5996h3.8516v-3.4922h-3.8516c-0.88588 0-1.5996-0.71372-1.5996-1.5996v-0.79883c0-0.88589 0.71372-1.5996 1.5996-1.5996h3.8516v-3.8516c0-0.88589 0.71372-1.5996 1.5996-1.5996zm2.3984 9.4492v3.4922h3.4922v-3.4922h-3.4922z" fill="#fff"/>
</svg>
