<svg xmlns="http://www.w3.org/2000/svg" viewBox="0 0 48 48"><defs><style>.a{fill:none;stroke:#fff;stroke-linecap:round;stroke-linejoin:round;}</style></defs><path class="a" d="M43.5,24.1a10.48,10.48,0,0,0-1.7-5.6,13,13,0,0,0-4.3-4.1,24.17,24.17,0,0,0-13.1-3.5,25.22,25.22,0,0,0-4.8.4,19.92,19.92,0,0,0-3.3-2.4A13.42,13.42,0,0,0,4.5,8.8s5,4.1,4.2,7.6A10.84,10.84,0,0,0,5.3,24h0a10.67,10.67,0,0,0,3.4,7.6c.8,3.6-4.2,7.6-4.2,7.6a13.23,13.23,0,0,0,11.7-.1,15.47,15.47,0,0,0,3.3-2.4,25.92,25.92,0,0,0,4.8.4,24.17,24.17,0,0,0,13.1-3.5,15.41,15.41,0,0,0,4.3-4.1,8.57,8.57,0,0,0,1.8-5.4Z"/><path class="a" d="M24.3,13.6c9.1,0,16.5,4.7,16.5,10.5S33.4,34.6,24.3,34.6a20.71,20.71,0,0,1-5.7-.7c-1.9,2.2-5.9,5.2-9.8,4.2a8.94,8.94,0,0,0,2.7-7.4A8.57,8.57,0,0,1,7.8,24c.1-5.8,7.4-10.5,16.5-10.4"/><circle class="a" cx="16.7" cy="24.5" r="2.2"/><circle class="a" cx="24.3" cy="24.5" r="2.2"/><circle class="a" cx="31.9" cy="24.5" r="2.2"/></svg>