<svg xmlns="http://www.w3.org/2000/svg" viewBox="0 0 48 48"><defs><style>.a{fill:none;stroke:#fff;stroke-linecap:round;stroke-linejoin:round;}</style></defs><path class="a" d="M40.5,42.5H7.5a2,2,0,0,1-2-2V7.5a2,2,0,0,1,2-2h33a2,2,0,0,1,2,2v33A2,2,0,0,1,40.5,42.5Z"/><path class="a" d="M10,28.3V18.76h3.12a3.2,3.2,0,1,1,0,6.4H10"/><line class="a" x1="13.12" y1="25.16" x2="16.25" y2="28.29"/><rect class="a" x="18.64" y="21.98" width="4.77" height="6.32" rx="2.39"/><path class="a" d="M33.23,22v3.93a2.39,2.39,0,0,0,2.38,2.39h0A2.39,2.39,0,0,0,38,25.91V22"/><line class="a" x1="38" y1="25.91" x2="38" y2="28.3"/><line class="a" x1="26.14" y1="18.76" x2="26.14" y2="28.3"/><line class="a" x1="26.14" y1="26.27" x2="30.46" y2="21.97"/><line class="a" x1="27.52" y1="24.9" x2="30.91" y2="28.28"/></svg>