<?xml version="1.0" encoding="UTF-8"?>
<svg viewBox="0 0 48 48" xmlns="http://www.w3.org/2000/svg">
    <defs>
        <style>.cls-1{fill:#fff;}</style>
    </defs>
    <g data-name="Layer 1">
        <path class="cls-1" d="M10,6h8V4H10A2,2,0,0,0,8,6v8h2Z"/>
        <path class="cls-1" d="M10,42V34H8v8a2,2,0,0,0,2,2h8V42Z"/>
        <path class="cls-1" d="m38 4h-8v2h8v8h2v-8a2 2 0 0 0-2-2z"/>
        <path class="cls-1" d="m38 42h-8v2h8a2 2 0 0 0 2-2v-8h-2z"/>
        <path class="cls-1" d="M33.63,9H14.38A1.44,1.44,0,0,0,13,10.5v27A1.44,1.44,0,0,0,14.38,39H33.63A1.44,1.44,0,0,0,35,37.5v-27A1.44,1.44,0,0,0,33.63,9Zm-17.8,5.76H28.39V17H15.83Zm9.74,18.48H15.83V31h9.74Zm5.28-5.41h-15V25.58h15Zm1.32-5.41H15.83V20.17H32.17Z"/>
    </g>
</svg>
