<?xml version="1.0" encoding="UTF-8"?>
<svg version="1.1" viewBox="0 0 48 48" xmlns="http://www.w3.org/2000/svg">
    <path d="m7 5c-1.0754-0.025872-2.026 0.92495-2 2v32.818c-0.16131 1.3802 0.25972 3.2212 2 3.1816h32.818c1.3802 0.16131 3.2212-0.25972 3.1816-2v-32.818c0.16131-1.3802-0.25972-3.2212-2-3.1816h-34zm14.318 7.3086c2.1932-0.050115 5.1816 0.12794 6.8203 0.47656 1.805 0.37187 5.202 1.3729 6.0332 1.8145 0.40375 0.18593 0.26203 0.27853-0.94922 0.65039-1.5675 0.48807-4.1801 1.8117-4.2988 2.1836-0.0475 0.13945 0.45055 1.1399 1.0918 2.209 0.64125 1.0924 1.139 1.9982 1.1152 2.0215-0.0475 0.069722-14.06 2.8594-14.273 2.8594-0.30875 0-2.9677-5.7637-3.9414-8.5527l-0.42774-1.2559 1.4727-0.65039c1.7812-0.79021 3.6098-1.3248 5.5098-1.627 0.475-0.069726 1.1166-0.11221 1.8477-0.12891zm9.623 9.9141c0.475-0.02324 0.73602 0.34889 1.9473 2.8125 0.76 1.5804 1.7098 3.7651 2.0898 4.8574l0.73633 2.0215-1.6152 0.7207c-2.8738 1.3015-4.9627 1.6955-8.6914 1.7188-2.28 0-3.9184-0.13887-5.2246-0.39453-2.3275-0.51131-6.2241-1.6959-6.4141-1.998-0.07126-0.092972 0.21508-0.25664 0.64258-0.34961 1.0212-0.20917 4.5828-1.835 4.8203-2.1836 0.095-0.16269-0.35648-1.1619-1.0215-2.3008-0.78375-1.3015-1.1158-2.0688-0.92578-2.1152 0.59375-0.20917 13.134-2.7658 13.656-2.7891z" fill="#fff"/>
</svg>
