<svg id="Layer_2" data-name="Layer 2" xmlns="http://www.w3.org/2000/svg" viewBox="0 0 48 48"><defs><style>.cls-1{fill:none;stroke:#fff;stroke-linecap:round;stroke-linejoin:round;}</style></defs><path class="cls-1" d="M43.59,21a8.44,8.44,0,0,0-4.33-4.58c-4.41-1.93-3.92-3.5-5.93-5.58C28.23,5.58,20,6.15,15.42,9.33c-6.3,4.41-4.19,10.42-8,12.64C3.28,24.36,1.87,30.43,4,33.27c2.3,3.11,6.19,1.47,8.52.51a13.7,13.7,0,0,1,7.82-.25c2.64.56,3.37,2.87,5.45,4,1.61.93,4.7.44,6,1S34,41.1,36.44,41.05c1,0,2,.82,5.82-4.09S45.26,24.91,43.59,21Zm-8.7,6.77a7,7,0,1,1,0-9.9,7,7,0,0,1,0,9.9Z"/></svg>