<?xml version="1.0" encoding="UTF-8"?>
<svg version="1.1" viewBox="0 0 48 48" xmlns="http://www.w3.org/2000/svg">
    <path d="m10 4c-1.108 0-2 0.892-2 2v36c0 1.108 0.892 2 2 2h28c1.108 0 2-0.892 2-2v-36c0-1.108-0.892-2-2-2h-28zm4.4668 8.3047h14.998c0.91847 0 1.6582 0.73973 1.6582 1.6582v1.8398l4.0684-2.3477v9.3946l-4.0684-2.3477v1.8398c0 0.91847-0.73973 1.6582-1.6582 1.6582h-14.998c-0.91847 0-1.6582-0.73973-1.6582-1.6582v-8.3789c0-0.91847 0.73973-1.6582 1.6582-1.6582zm-0.31641 20.123h2.8047c0.554 0 1 0.446 1 1v2.8047c0 0.554-0.446 1-1 1h-2.8047c-0.554 0-1-0.446-1-1v-2.8047c0-0.554 0.446-1 1-1zm8.4473 0h2.8047c0.554 0 1 0.446 1 1v2.8047c0 0.554-0.446 1-1 1h-2.8047c-0.554 0-1-0.446-1-1v-2.8047c0-0.554 0.446-1 1-1zm8.4473 0h2.8047c0.554 0 1 0.446 1 1v2.8047c0 0.554-0.446 1-1 1h-2.8047c-0.554 0-1-0.446-1-1v-2.8047c0-0.554 0.446-1 1-1z" fill="#fff"/>
</svg>
