<?xml version="1.0" encoding="UTF-8"?>
<svg enable-background="new 0 0 48 48" version="1.0" viewBox="0 0 48 48" xml:space="preserve" xmlns="http://www.w3.org/2000/svg">
<style type="text/css">
	.st0{fill:#FFFFFF;}
</style>

	<path class="st0" d="m24.1 46c-6.5-0.1-11.6-2-15.7-6.7-2-2.3-2.1-4.5-0.2-6.9 1.4-1.7 2.8-3.3 4.1-5.1 0.3-0.4 0.3-1.2 0.1-1.7-0.2-0.6-0.8-1.1-1.2-1.6-3.4-4.4-4-9-2.1-14.3 1.6-4.5 5.2-6.2 9.2-7.1 7.5-1.8 14.2 0.1 19.8 5.4 1.9 1.8 2.1 3.6 0.8 5.9-0.7 1.1-1.3 2.1-2 3.2-1.2 1.9-1.2 3.1 0.2 4.9 2.2 2.8 3.4 6 3.4 9.5 0 5.8-2.8 10-8.1 12.6-2.7 1.4-5.7 1.8-8.3 1.9zm-1.1-42c-2.4-0.1-4.6 0.5-6.7 1.4-4.6 1.9-7.2 7.6-5.8 12.3 1.1 3.9 3.8 6.5 7 8.7 2.1 1.4 4.3 2.7 6.4 4.2 1.2 0.8 1.6 2 1.2 2.9-0.6 1.1-1.7 0.9-2.7 0.8-3-0.3-5.4-1.8-7.7-3.7-1.3-1.1-1.6-1-2.7 0.2-1 1.2-2 2.5-2.9 3.8-0.5 0.7-0.5 1.4 0.1 1.9 1.8 1.7 3.5 3.7 5.7 4.9 5 2.8 10.4 2.8 15.7 0.7 6.5-2.5 8.8-8.2 7-14.6-1.2-4.1-4.3-6.7-7.9-8.7-1.9-1-3.7-2.1-5.6-3.2-0.8-0.5-1.6-1.3-1.1-2.4 0.5-1 1.5-1 2.5-0.8 0.2 0.1 0.5 0.1 0.7 0.2 2.1 1.1 4.1 2.1 6.2 3.3 1.2 0.7 1.7 0.7 2.5-0.5 0.7-1.1 1.4-2.2 2.1-3.3 0.7-1 0.5-1.8-0.3-2.7-3.8-3.5-8.4-5.3-13.7-5.4z"/>

</svg>
