<svg xmlns="http://www.w3.org/2000/svg" viewBox="0 0 48 48"><defs><style>.a{fill:none;stroke:#fff;stroke-linecap:round;stroke-linejoin:round;}</style></defs><path class="a" d="M37.94,31.2a3.6,3.6,0,0,1-3.6,3.6h0a2.72,2.72,0,0,1-.69-.09,3.74,3.74,0,0,1,.1.81A3.61,3.61,0,0,1,27.51,38a3.6,3.6,0,0,1-7,0,3.61,3.61,0,0,1-6.2-2.45,3.74,3.74,0,0,1,.1-.81,3.26,3.26,0,0,1-.7.07,3.59,3.59,0,0,1-3.6-3.58v-.16H5.51v9a1.94,1.94,0,0,0,1.94,2h33.1a2,2,0,0,0,2-2v-9H37.92C37.92,31.11,37.94,31.15,37.94,31.2Z"/><path class="a" d="M39,13.72l2.58-2.56A3,3,0,0,0,37.31,6.9h0L34.76,9.5a18.39,18.39,0,0,0-21.51,0L10.68,6.93A3.22,3.22,0,0,0,8.5,6a3,3,0,0,0-2.12,5.15L9,13.71a18.41,18.41,0,0,0-3.47,10.8v3.8h37v-3.8A18.57,18.57,0,0,0,39,13.72Zm-19.87,7a2.93,2.93,0,1,1-2.93-2.92A2.93,2.93,0,0,1,19.14,20.7Zm12.65,2.92a2.92,2.92,0,1,1,2.92-2.92A2.92,2.92,0,0,1,31.79,23.62Z"/></svg>