<?xml version="1.0" encoding="UTF-8"?>
<svg version="1.1" viewBox="0 0 48 48" xmlns="http://www.w3.org/2000/svg">
    <path d="m24 2a22 22 0 0 0 -22 22 22 22 0 0 0 22 22 22 22 0 0 0 22 -22 22 22 0 0 0 -22 -22zm-3.982 12.07c2.248 0.04411 4.295 1.176 4.982 3.926 1.423-2.354 9.045-1.456 9 4 3.382-1.368 6.418 1.984 6.418 4.584s-1.418 4.416-4.418 4.416h-5c-3 0-8.162-1.089-8.631-4.273 0.07154-1.208 0.843-2.075 2.055-2.727-0.3018 0.892 0.4591 2.039 1.299 2.039s2.135-0.2864 2.299-1.697c0.1639-1.411-1.031-2.465-2.982-2.465s-3.72 0.1436-5.889 2.121c-2.169 1.977-1.997 7.002-7.742 7.002s-4.408-10.31 1.592-9c-2.3-4.133 2.726-8.01 7.018-7.926z" fill="#fff"/>
</svg>
