<?xml version="1.0" encoding="UTF-8"?>
<svg version="1.1" viewBox="0 0 48 48" xmlns="http://www.w3.org/2000/svg">
    <path d="m7 5c-1.108 0-2 0.892-2 2v34c0 1.108 0.892 2 2 2h34c1.108 0 2-0.892 2-2v-34c0-1.108-0.892-2-2-2h-34zm22.203 4.6523c0.18991 0 0.3307 0.36791 0.42383 1.1133 0.15043 1.204 1.0215 3.1041 2.877 6.2656 1.5145 2.5806 1.8321 3.7023 1.6797 5.9375-0.19474 2.8552-0.92166 4.635-1.6113 3.9453-0.14864-0.14864-0.07219-0.63926 0.25-1.6074 0.2906-0.87327 0.45164-1.9341 0.48438-2.8398 0.07398-2.0465-1.1075-3.8668-2.4883-5.4961l-1.1816-1.3945-0.10352 7.0312c-0.11461 7.8615-0.093381 7.7533-1.6133 8.957-1.4184 0.90162-2.7794 1.5294-4.5352 1.1035-0.81609-0.19794-1.2285-0.95054-1.2285-1.8477 0-1.1399 0.38327-1.8778 1.457-2.7969 1.4164-1.2124 3.4848-1.6523 4.9473-1.0527 0.3383 0.1387 0.35938-0.34937 0.35938-8.5859 0-7.3031 0.045843-8.7324 0.2832-8.7324zm-10.984 11.518a0.40004 0.40004 0 0 1 0.40625 0.40625v3.334l0.73828-0.26367c0.04957-0.01783 0.10164-0.027697 0.1543-0.029296 0.28221-0.008802 0.51574 0.21765 0.51562 0.5v1.2617c-1.16e-4 0.21129-0.13302 0.39971-0.33203 0.4707l-1.0762 0.38477v3.7578l0.71875-0.26758c0.05131-0.01912 0.10542-0.02965 0.16016-0.03125 0.28221-0.0088 0.51574 0.21765 0.51562 0.5v1.2637c-8.54e-4 0.20836-0.13081 0.39435-0.32617 0.4668l-1.0684 0.39844v3.6777a0.40004 0.40004 0 1 1-0.79883 0v-3.3809l-1.8867 0.70117v3.6797a0.40039 0.40039 0 0 1-0.80078 0v-3.3809l-0.77148 0.28711c-0.32656 0.12103-0.67374-0.12048-0.67383-0.46875v-1.2617c4e-5 -0.20907 0.13015-0.39605 0.32617-0.46875l1.1191-0.41602v-3.8066l-0.87109 0.3125c-0.32548 0.11604-0.66776-0.12515-0.66797-0.4707v-1.2637c-1.78e-4 -0.21079 0.13184-0.39905 0.33008-0.4707l1.209-0.43359v-3.5293a0.40004 0.40004 0 0 1 0.39453-0.40625 0.40004 0.40004 0 0 1 0.40625 0.40625v3.2441l1.8867-0.67578v-3.6211a0.40004 0.40004 0 0 1 0.39258-0.40625zm-0.39258 6.3516-1.8867 0.67578v3.7949l1.8867-0.70313v-3.7676z" fill="#fff"/>
</svg>
