<?xml version="1.0" encoding="UTF-8"?>
<svg version="1.1" viewBox="0 0 48 48" xmlns="http://www.w3.org/2000/svg">
    <path d="M7 5c-1.108 0-2 .892-2 2v13.736c.433-.176 1.327-.625 1.385-.718.117-.19.818-.143 1.256.086.218.114.585.208.814.209.229 0 .603.098.832.218.551.289 3.167.406 4.217.188.429-.09.943-.301 1.142-.469.2-.168.544-.382.764-.477.55-.236.942-.903 1.152-1.964.098-.493.27-1.193.383-1.555.171-.548.262-.66.541-.66.185 0 .336.057.336.125s.271.426.604.797c.585.652 1.199 2.008 1.199 2.644 0 .487.267.572 1.361.438.671-.083 1.2-.075 1.565.023.303.082.607.115.676.072.217-.134.68-1.745 1.06-3.681.414-2.113.65-2.584.863-1.721.074.297.243 1.414.377 2.482.39 3.093.405 3.167.578 3.225.16.054.242-.178.588-1.678.312-1.347 1.373-1.594 1.737-.402.125.413.41.398.607-.033.3-.659.68-.448 1.186.658.55 1.204.752 1.403 1.289 1.262.217-.058.47-.09.564-.07.28.056.992-.375 1.238-.75.291-.444.873-.414 1.106.056.277.558.43.635.605.307.218-.408.715-.32.948.168.213.446.359.476.609.129.304-.423.612-.451.955-.086.174.185.425.337.559.337.133 0 .427.157.654.348.227.19.446.346.486.346.04 0 .18-.282.31-.625.282-.737.574-.8 1-.223.312.422.751.557 2.046.635.158.01.285 0 .408-.01V7c0-1.108-.892-2-2-2H7zm4.291 23.46c-.86.029-1.646.125-1.93.272-.192.101-.508.186-.699.19-.19.004-.595.103-.9.22-.592.229-1.33.26-1.453.061-.08-.127-.829-.48-1.309-.654V41c0 1.108.892 2 2 2h34c1.108 0 2-.892 2-2V28.896l-.098-.023c-.387-.092-.665-.067-1.072.096-.302.12-.636.186-.744.144-.122-.046-.31.113-.5.42-.461.747-.766.644-1.127-.375-.206-.581-.33-.642-.533-.262-.076.143-.345.34-.596.44-.25.1-.594.303-.762.453-.342.306-1.013.237-1.013-.103 0-.413-.289-.35-.569.125-.304.515-.762.66-.906.285-.118-.307-.405-.253-.65.12-.32.488-.713.533-1.092.128-.444-.476-.896-.681-1.71-.78-.63-.076-.716-.052-.948.268-.141.193-.4.707-.576 1.14-.39.961-.766 1.109-1.112.44-.175-.339-.265-.4-.41-.28-.102.086-.22.293-.264.462a.937.937 0 01-.367.484c-.247.153-.347.138-.69-.105-.41-.293-.611-.753-.767-1.76-.106-.686-.425-1.212-.535-.881-.063.189-.32 2.109-.65 4.846-.125 1.036-.304 1.434-.53 1.183-.065-.072-.283-.98-.486-2.015-.203-1.036-.505-2.306-.67-2.823-.299-.935-.301-.936-.727-.835-.234.055-1.045.106-1.802.115l-1.375.015-.166.694c-.257 1.071-.435 1.43-1.192 2.38-1.037 1.304-1.187 1.227-1.652-.853-.17-.763-.393-1.522-.494-1.685-.34-.548-1.9-1.623-2.557-1.76-.574-.12-1.507-.16-2.367-.133z" fill="#fff"/>
</svg>
