<?xml version="1.0" encoding="utf-8"?>
<!-- Generator: Adobe Illustrator 25.1.0, SVG Export Plug-In . SVG Version: 6.00 Build 0)  -->
<svg version="1.1"
	 id="svg8" inkscape:version="1.0.1 (3bc2e813f5, 2020-09-07)" sodipodi:docname="template.svg" xmlns:cc="http://creativecommons.org/ns#" xmlns:dc="http://purl.org/dc/elements/1.1/" xmlns:inkscape="http://www.inkscape.org/namespaces/inkscape" xmlns:rdf="http://www.w3.org/1999/02/22-rdf-syntax-ns#" xmlns:sodipodi="http://sodipodi.sourceforge.net/DTD/sodipodi-0.dtd" xmlns:svg="http://www.w3.org/2000/svg"
	 xmlns="http://www.w3.org/2000/svg" xmlns:xlink="http://www.w3.org/1999/xlink" x="0px" y="0px" viewBox="0 0 48 48"
	 style="enable-background:new 0 0 48 48;" xml:space="preserve">
<style type="text/css">
	.st0{fill:none;stroke:#FFFFFF;stroke-linecap:round;stroke-linejoin:round;stroke-miterlimit:10;}
</style>
<sodipodi:namedview  bordercolor="#666666" borderopacity="1" gridtolerance="10" guidetolerance="10" id="namedview10" inkscape:current-layer="svg8" inkscape:cx="24.146623" inkscape:cy="22.383576" inkscape:document-rotation="0" inkscape:guide-bbox="true" inkscape:pageopacity="0" inkscape:pageshadow="2" inkscape:window-height="2098" inkscape:window-maximized="1" inkscape:window-width="3840" inkscape:window-x="0" inkscape:window-y="25" inkscape:zoom="1.6491" objecttolerance="10" pagecolor="#595959" showgrid="false" showguides="true">
	</sodipodi:namedview>
<g>
	<g>
		<path class="st0" d="M29.1,26.8L29.1,26.8c-0.9,0.1-1.7-0.5-1.7-1.5v-1.1c0-0.9,0.8-1.8,1.7-1.9h0c0.9-0.1,1.7,0.5,1.7,1.5v1.1
			C30.8,25.8,30.1,26.6,29.1,26.8z"/>
		<g>
			<path class="st0" d="M32.4,23.5c0-0.9,0.8-1.8,1.7-1.9h0"/>
			<line class="st0" x1="32.4" y1="21.8" x2="32.4" y2="26.3"/>
		</g>
		<polyline class="st0" points="35,19.2 39.5,18.6 35,26 39.5,25.4 		"/>
		<g>
			<path class="st0" d="M8.6,29.2c0.3,0.2,0.6,0.3,1.4,0.2l0.4-0.1c0.6-0.1,1.1-0.7,1.1-1.3v0c0-0.6-0.5-1.1-1.1-1l-0.8,0.1
				c-0.6,0.1-1.1-0.4-1.1-1v0c0-0.6,0.5-1.2,1.1-1.3l0.4-0.1c0.7-0.1,1.1,0,1.4,0.2"/>
		</g>
		<g>
			<path class="st0" d="M23,27.2c0.3,0.2,0.6,0.3,1.4,0.2l0.4-0.1c0.6-0.1,1.1-0.7,1.1-1.3v0c0-0.6-0.5-1.1-1.1-1L24,25.2
				c-0.6,0.1-1.1-0.4-1.1-1v0c0-0.6,0.5-1.2,1.1-1.3l0.4-0.1c0.7-0.1,1.1,0,1.4,0.2"/>
		</g>
		<path class="st0" d="M16.2,27.7c-0.3,0.5-0.8,1-1.5,1.1h0c-0.9,0.1-1.7-0.5-1.7-1.5v-1.1c0-0.9,0.8-1.8,1.7-1.9l0,0
			c0.9-0.1,1.7,0.5,1.7,1.5v0.5L13,26.7"/>
		<g>
			<path class="st0" d="M21.3,27.8V25c0-0.9-0.8-1.6-1.7-1.5h0c-0.9,0.1-1.7,1-1.7,1.9v2.8"/>
			<line class="st0" x1="18" y1="25.5" x2="18" y2="23.8"/>
		</g>
	</g>
	<path class="st0" d="M40.5,5.5h-33c-1.1,0-2,0.9-2,2v33c0,1.1,0.9,2,2,2h33c1.1,0,2-0.9,2-2v-33C42.5,6.4,41.6,5.5,40.5,5.5z"/>
</g>
</svg>
