<svg xmlns="http://www.w3.org/2000/svg" viewBox="0 0 48 48" version="1.1">
 <path d="m24 4.17a14.1 14.1 0 0 0 -14.1 14.1 14.1 14.1 0 0 0 14.1 14.1 14.1 14.1 0 0 0 14.1 -14.1 14.1 14.1 0 0 0 -14.1 -14.1zm0 3.81a10.3 10.3 0 0 1 10.3 10.3 10.3 10.3 0 0 1 -10.3 10.3 10.3 10.3 0 0 1 -10.3 -10.3 10.3 10.3 0 0 1 10.3 -10.3zm0 4.18a6.15 6.15 0 0 0 -6.15 6.15 6.15 6.15 0 0 0 6.15 6.15 6.15 6.15 0 0 0 6.15 -6.15 6.15 6.15 0 0 0 -6.15 -6.15z" fill="#fff"/>
 <rect rx=".597" height="3.08" width="28.3" y="37.3" x="9.85" fill="#fff"/>
 <path d="m34.1 40.3 1.23 2.12 1.23 2.12h-4.9l1.23-2.12z" fill="#fff"/>
 <path fill="#fff" d="m34.1 37.3 1.23-2.12 1.23-2.12h-4.9l1.23 2.12z"/>
</svg>
