<?xml version="1.0" encoding="UTF-8"?>
<svg width="48" height="48" version="1.0" viewBox="0 0 36 36" xmlns="http://www.w3.org/2000/svg">
    <path d="m4.3265 7.2473c-0.44243 0.14947-0.74735 0.37069-0.96259 0.69354-0.3946 0.59788-0.37069-0.035873-0.35873 10.176l0.017936 9.2552 0.17339 0.37666c0.20926 0.45439 0.56799 0.7892 1.0463 0.98052l0.33481 0.13751h26.845l0.33481-0.13751c0.4783-0.19132 0.83703-0.52614 1.0463-0.98052l0.17338-0.37666 0.01794-9.2552c0.011954-10.218 0.035869-9.578-0.35873-10.176-0.10762-0.15545-0.3109-0.36471-0.46037-0.46037-0.5919-0.37069 0.3946-0.34677-14.2-0.34677-12.663 0.0059788-13.357 0.011958-13.65 0.1136zm19.802 5.5663 0.65767 0.65767-9.028 9.028-2.2122-2.2122c-1.2197-1.2197-2.254-2.2122-2.3018-2.2122s0.23317-0.32286 0.62777-0.71746l0.71746-0.71746 1.5545 1.5545c0.85497 0.85497 1.5844 1.5545 1.6143 1.5545 0.03587 0 1.7697-1.7099 3.8563-3.7965s3.8085-3.7965 3.8264-3.7965c0.01794 0 0.32883 0.29894 0.68756 0.65767z" fill="#fff"/>
</svg>
