<?xml version="1.0" encoding="UTF-8"?>
<svg width="48" height="48" viewBox="0 0 12.7 12.7" xmlns="http://www.w3.org/2000/svg">
    <path d="m1.8521 1.3229c-0.29316 0-0.52917 0.23601-0.52917 0.52917v8.9958c0 0.29316 0.23601 0.52917 0.52917 0.52917h8.9958c0.29316 0 0.52917-0.23601 0.52917-0.52917v-8.9958c0-0.29316-0.23601-0.52917-0.52917-0.52917zm2.3296 1.3229h4.3362a0.52458 0.52458 0 0 1 0.24236 0.05943 0.52458 0.52458 0 0 1 0.22324 0.70745l-3.3104 6.3593a0.52458 0.52458 0 0 1-0.70797 0.22273 0.52458 0.52458 0 0 1-0.22273-0.70693l2.9115-5.5929h-3.4721a0.52458 0.52458 0 0 1-0.52452-0.52452 0.52458 0.52458 0 0 1 0.52452-0.52452z" fill="#fff" stroke-width=".26458"/>
</svg>
