<?xml version="1.0" encoding="UTF-8"?>
<svg data-name="Layer 1" version="1.1" viewBox="0 0 48 48" xmlns="http://www.w3.org/2000/svg">
    <defs>
        <style>.cls-1{fill:#fff;}</style>
    </defs>
    <path d="m24 2a22 22 0 0 0-22 22 22 22 0 0 0 22 22 22 22 0 0 0 22-22 22 22 0 0 0-22-22zm10.152 10.803c0.089674 0.010106 0.16167 0.096646 0.13672 0.19727l-4.1582 18.34c-0.01925 0.07953-0.10395 0.12528-0.18164 0.099609l-8.8789-2.7988c-0.22939-0.07267-0.31294-0.35511-0.16016-0.54102l7.5508-9.2188-0.070313-0.070312-10.461 9c-0.09882 0.07834-0.23034 0.099544-0.34961 0.058594l-7.291-2.8691c-0.1026-0.05175-0.1026-0.19825 0-0.25l23.771-11.93c0.030558-0.016135 0.061905-0.020946 0.091797-0.017578zm-13.283 17.598 3 1.0488c0.06131 0.01605 0.088051 0.089365 0.050781 0.14062l-2.8691 3.5898c-0.1088 0.13497-0.32709 0.054089-0.32031-0.11914v-4.5605c0.0037-0.07056 0.070722-0.11898 0.13867-0.099609z" fill="#fff"/>
</svg>
