<?xml version="1.0" encoding="UTF-8"?>
<svg version="1.1" viewBox="0 0 48 48" xmlns="http://www.w3.org/2000/svg">
    <path d="m24 2c-12.15 0-22 9.8497-22 22s9.8497 22 22 22 22-9.8497 22-22-9.8497-22-22-22zm-0.1582 4.8125c1.2847 7.338e-4 2.1177 0.049649 3.6738 0.80859 1.5562 0.75894 5.8813 5.1009 6.8184 6.7402s1.0081 1.9092 1.0098 2.0918c0.0016 0.18256-0.39355 0.79461-0.87695 1.3613l-0.87891 1.0312-1.5527-1.4688-1.5566-1.4648-1.1621 0.93555c-1.1281 0.90752-1.2013 0.92314-2.2051 0.44727-0.94278-0.44697-1.1388-0.4426-2.1602 0.044922l-1.123 0.53711-0.57227-0.94531-0.57226-0.94141-0.8457 0.78516c-0.94387 0.87614-1.4315 0.95232-2.6074 0.41602-0.6233-0.28429-0.91604-0.27079-1.3008 0.048828-0.59485 0.4942-0.59741 0.49031-1.2559-1.0996l-0.51953-1.2578-1.4336 1.4062c-1.3596 1.3357-1.4563 1.3782-1.9844 0.84961-0.5281-0.52866-0.66472-0.35043 0.39648-2.3867 1.0612-2.0363 5.4394-6.3626 7.0312-7.1348 1.5919-0.77216 3.0353-0.80505 3.6777-0.80469zm-4.5527 12.35c0.48585 0.0128 0.98152 1.7699 0.62891 2.2852-0.35261 0.51533-0.90205 0.48959-1.3027 0-0.40069-0.48959 0.11498-2.2544 0.67383-2.2852zm8.6309 0.095703c0.48585 0.0128 0.98152 1.7718 0.62891 2.2871-0.35261 0.51533-0.90205 0.48959-1.3027 0-0.40069-0.48959 0.11498-2.2563 0.67383-2.2871zm4.7246 3.3672 3.0156 3.8848 1.168-0.65625 1.1719-0.6582c-0.64501 7.3968-4.6706 13.918-10.438 15.596-2.0084 0.53535-5.6151 0.52773-7.5586-0.013672-7.4789-2.9351-10.443-9.1958-9.9512-15.729 1.1462 0.70915 2.0472 0.50236 4.041-0.92188 1.1167-0.79773 2.1008-1.4473 2.1875-1.4473 0.08667 0 0.33231 0.53934 0.54297 1.1992 0.40662 1.2738 0.94336 2.0831 0.94336 1.4219 0-0.5338 1.1533-0.47889 2.0293 0.095703 0.68183 0.44723 0.79102 0.41538 1.6484-0.48047 0.50445-0.52709 1.0861-0.95703 1.293-0.95703 0.20686 0 0.77521 0.57762 1.2637 1.2832l0.88867 1.2832 1.0508-0.80469c1.3031-0.99493 1.3395-0.99296 2.4277 0.050781l0.88867 0.85156 0.72461-0.93164c0.3986-0.51289 1.161-1.413 1.6934-2l0.96875-1.0664z" fill="#fff"/>
</svg>
