<svg xmlns="http://www.w3.org/2000/svg" viewBox="0 0 48 48"><defs><style>.a{fill:none;stroke:#fff;stroke-linecap:round;stroke-linejoin:round;}</style></defs><path class="a" d="M7.05,6.19H10a1.53,1.53,0,0,1,.69.16,1.6,1.6,0,0,1,.49.38,1.9,1.9,0,0,1,.31.59,3.77,3.77,0,0,1,.18.64c0,.18.08.41.14.71s.09.51.1.62H41a1.57,1.57,0,0,1,1.55,1.55V23.23a1.52,1.52,0,0,1-.39,1,1.45,1.45,0,0,1-1,.52l-25.28,3c0,.11.06.29.11.52s.11.45.15.64a2.69,2.69,0,0,1,.06.53A4.56,4.56,0,0,1,15.58,31H37.85a1.52,1.52,0,0,1,1.09.46,1.55,1.55,0,0,1-1.09,2.64H13.06A1.48,1.48,0,0,1,12,33.62a1.52,1.52,0,0,1-.46-1.09,2.62,2.62,0,0,1,.27-1,14.45,14.45,0,0,1,.71-1.44l.5-.92L8.7,9.29H7.05A1.48,1.48,0,0,1,6,8.83,1.47,1.47,0,0,1,5.5,7.74,1.57,1.57,0,0,1,7.05,6.19Zm7.56,29.42a3.11,3.11,0,0,1,3.1,3.1,3.11,3.11,0,0,1-3.1,3.1,3.11,3.11,0,0,1-3.1-3.1,3.11,3.11,0,0,1,3.1-3.1Zm21.69,0a3.11,3.11,0,0,1,3.1,3.1,3.11,3.11,0,0,1-3.1,3.1,3.11,3.11,0,0,1-3.1-3.1,3.11,3.11,0,0,1,3.1-3.1Z"/><line class="a" x1="8.47" y1="9.29" x2="11.87" y2="9.29"/><line class="a" x1="15.84" y1="27.74" x2="12.75" y2="28.11"/></svg>