<?xml version="1.0" encoding="UTF-8"?>
<svg data-name="Layer 1" viewBox="0 0 48 48" xmlns="http://www.w3.org/2000/svg">
    <defs>
        <style>.cls-1{fill:#fff;}</style>
    </defs>
    <path class="cls-1" d="M2.4,20.44a.4.4,0,0,0-.4.41V38.69a2.45,2.45,0,0,0,2.45,2.45H43.54A2.44,2.44,0,0,0,46,38.69h0V20.84a.4.4,0,0,0-.4-.4ZM41,30.79H36.27v2.68H31.58v2.68H22.2V30.79h4.69V28.11h4.69V25.43H41Z"/>
    <path class="cls-1" d="M43.54,11.64H24.87c-2.22-.12-6.69-4.78-9.24-4.78H4.46A2.44,2.44,0,0,0,2,9.31H2V16a.4.4,0,0,0,.4.4H45.6A.4.4,0,0,0,46,16V14.1A2.46,2.46,0,0,0,43.54,11.64Z"/>
</svg>
