<svg id="Layer_2" data-name="Layer 2" xmlns="http://www.w3.org/2000/svg" viewBox="0 0 48 48"><defs><style>.cls-1{fill:none;stroke:#fff;stroke-linecap:round;stroke-linejoin:round;}</style></defs><path class="cls-1" d="M7,28a5.67,5.67,0,0,1-1.48-4.53c.19-1.48,5.12-11.86,6.11-14a.78.78,0,0,1,1.45,0l6.08,14.11h0a6.86,6.86,0,0,1-6.86,6.86A7.31,7.31,0,0,1,7,28Zm28.73,5.56a7.27,7.27,0,0,1-5.41-2.45,5.65,5.65,0,0,1-1.49-4.52c.2-1.48,5.12-11.87,6.12-14a.79.79,0,0,1,.72-.46.82.82,0,0,1,.73.49l6.08,14.1h0a6.88,6.88,0,0,1-6.75,6.87Z"/><line class="cls-1" x1="8.89" y1="6.05" x2="39.61" y2="10.05"/><line class="cls-1" x1="24.25" y1="37.17" x2="24.25" y2="8.05"/><line class="cls-1" x1="34.92" y1="41.95" x2="24.25" y2="37.17"/><line class="cls-1" x1="13.58" y1="41.95" x2="24.25" y2="37.17"/></svg>