<?xml version="1.0" encoding="UTF-8"?>
<svg viewBox="0 0 48 48" xmlns="http://www.w3.org/2000/svg">
    <defs>
        <style>.cls-1{fill:#fff;}</style>
    </defs>
    <g data-name="Layer 1">
        <path class="cls-1" d="M18,11.55a6,6,0,0,1,12,0l0,12a6,6,0,1,1-12,0ZM37.86,25.49A14.1,14.1,0,0,1,26,37v4.56a2,2,0,0,1-4,0V37a14.12,14.12,0,0,1-11.86-11.5,1.71,1.71,0,0,1,1.7-1.94A1.68,1.68,0,0,1,13.5,25,10.47,10.47,0,0,0,24,33.75,10.49,10.49,0,0,0,34.5,25a1.66,1.66,0,0,1,1.66-1.42A1.71,1.71,0,0,1,37.86,25.49Z"/>
    </g>
</svg>
