<?xml version="1.0" encoding="UTF-8"?>
<svg version="1.1" viewBox="0 0 48 48" xmlns="http://www.w3.org/2000/svg">
    <path d="m16.578 10.574c-1.7997 0-3.2739 1.4731-3.2739 3.2728v1.0119l-0.43303 0.44556c-2.9794 3.0648-6.2827 4.9082-9.8514 5.9655l-0.51393 0.15156-0.037601 0.53444c-0.30192 4.3466 0.17651 8.2947 1.8461 11.612 1.6696 3.3173 4.5425 5.9591 8.8258 7.66l0.28489 0.11396 0.28489-0.11396c4.2833-1.7009 7.1559-4.3427 8.8258-7.66 0.0086-0.01683 0.01551-0.0344 0.02392-0.05127h17.748c1.7997 0 3.2739-1.4731 3.2739-3.2728v-16.397c0-1.7997-1.4742-3.2728-3.2739-3.2728zm0 1.5714h23.73c0.09484 0 0.1856 0.01321 0.27577 0.02735l-12.127 10.754-12.356-10.708c0.15191-0.04301 0.30968-0.07293 0.47747-0.07293zm25.267 0.97203c0.10246 0.22065 0.1641 0.46521 0.1641 0.72931v16.397c0 0.25685-0.05666 0.49617-0.15384 0.71222l-10.063-8.9238zm-26.87 0.16865 10.092 8.746-0.65296 0.56521c-0.01104-0.21434-0.01574-0.42522-0.03077-0.64156l-0.03761-0.53444-0.51393-0.15156c-3.5687-1.0573-6.8732-2.9008-9.8525-5.9655 0.29144 0.2998 0.59034 0.60076 0.88794 0.8776l0.01003-2.3351c8.52e-4 -0.19873 0.0384-0.38495 0.09799-0.56066zm-1.5498 3.5941c2.8718 2.7858 6.0551 4.5926 9.4286 5.6738 0.21803 3.96-0.25633 7.4581-1.6968 10.32-1.4621 2.9046-3.9125 5.1963-7.7318 6.7814-3.8192-1.5851-6.27-3.8768-7.7318-6.7814-1.4402-2.8616-1.9137-6.3597-1.6956-10.32 3.3734-1.0812 6.5558-2.8881 9.4274-5.6738zm0 2.0728c-2.2859 2.3515-4.8425 3.7786-7.5814 4.5901-0.44028 6.3384 1.4169 11.323 7.5814 13.771 6.1645-2.4479 8.0228-7.433 7.5825-13.771-2.7388-0.81147-5.2966-2.2386-7.5825-4.5901zm12.82 4.1001 1.7116 1.4837c0.2926 0.25364 0.72784 0.25124 1.0176-0.0056l1.6558-1.4677 9.9813 8.852c-0.09853 0.01701-0.19889 0.02964-0.30312 0.02964h-17.072c0.82695-2.2276 1.1964-4.6967 1.2216-7.3432zm-8.3472 1.9805 1.1054 1.078-6.0977 6.247-4.663-4.2995 1.0472-1.135 3.5588 3.283z" color="#000000" color-rendering="auto" dominant-baseline="auto" fill="#fff" image-rendering="auto" shape-rendering="auto" solid-color="#000000" stop-color="#000000" style="font-feature-settings:normal;font-variant-alternates:normal;font-variant-caps:normal;font-variant-east-asian:normal;font-variant-ligatures:normal;font-variant-numeric:normal;font-variant-position:normal;font-variation-settings:normal;inline-size:0;isolation:auto;mix-blend-mode:normal;shape-margin:0;shape-padding:0;text-decoration-color:#000000;text-decoration-line:none;text-decoration-style:solid;text-indent:0;text-orientation:mixed;text-transform:none;white-space:normal"/>
</svg>
