<?xml version="1.0" encoding="UTF-8"?>
<svg viewBox="0 0 48 48" xmlns="http://www.w3.org/2000/svg">
    <defs>
        <style>.cls-1{fill:#fff;}</style>
    </defs>
    <path class="cls-1" d="m3.8552 28.83c-1.3478-1.442-1.9913-3.4049-1.759-5.3649 0.22867-1.759 6.0685-14.072 7.2471-16.623 0.15535-0.33759 0.49034-0.55637 0.86191-0.56288 0.3743 0.013896 0.70833 0.23885 0.86191 0.58047l7.2119 16.341c0.02656 0.12763 0.02656 0.25935 0 0.38698 0 4.4979-3.6463 8.1442-8.1442 8.1442-2.4057-0.052383-4.6809-1.104-6.2796-2.9023zm33.087 16.587c-0.15191 0.34054-0.48903 0.5607-0.86191 0.56288-0.13375 0.02443-0.27082 0.02443-0.40457 0l-11.398-5.277-11.416 5.277c-0.13354 0.02654-0.27102 0.02654-0.40457 0-0.90574-0.09741-1.1682-1.2905-0.38698-1.759l11.24-5.277v-32.893l-16.411-2.146c-0.52176-0.07291-0.88927-0.54989-0.82673-1.073 0.081371-0.51678 0.55254-0.87981 1.073-0.82673l34.529 4.503c0.52699 0.063816 0.89939 0.54715 0.82673 1.073-0.06939 0.47212-0.47268 0.82313-0.94986 0.82673h-0.12313l-16.165-2.1108v32.665l11.258 5.277c0.4163 0.23143 0.59683 0.7354 0.42216 1.1785zm0.98504-9.9911c-2.4549-0.01302-4.7887-1.0681-6.4203-2.9023-1.3478-1.442-1.9913-3.4049-1.759-5.3649 0.22867-1.759 6.0685-14.072 7.2471-16.64 0.15708-0.33368 0.49311-0.54627 0.86191-0.54529 0.3743 0.013896 0.70833 0.23885 0.86191 0.58047l7.2119 16.341c0.02656 0.12763 0.02656 0.25935 0 0.38698-0.0088 4.4397-3.5646 8.0581-8.0034 8.1442z"/>
</svg>
