<?xml version="1.0" encoding="UTF-8"?>
<svg viewBox="0 0 48 48" xmlns="http://www.w3.org/2000/svg">
    <path d="m29.602 6.2631c0.75723 0 1.3668 0.60961 1.3668 1.3668v2.7337c0 0.75723-0.60961 1.3668-1.3668 1.3668-0.75723 0-1.3668-0.60961-1.3668-1.3668v-2.7337c0-0.75723 0.60961-1.3668 1.3668-1.3668zm-9.6636 5.369c0.34937 0 0.69873 0.13272 0.96636 0.40049l0.96636 0.96636c0.53539 0.53539 0.53539 1.3969 0 1.9327-0.53539 0.53539-1.3969 0.53539-1.9327 0l-0.96636-0.96636c-0.53539-0.53539-0.53539-1.3969 0-1.9327 0.26776-0.26776 0.61699-0.40049 0.96636-0.40049zm19.327 0c0.34937 0 0.69873 0.13272 0.96636 0.40049 0.53539 0.53539 0.53539 1.3969 0 1.9327l-0.96636 0.96636c-0.53539 0.53539-1.3969 0.53539-1.9327 0-0.53539-0.53539-0.53539-1.3969 0-1.9327l0.96636-0.96636c0.26776-0.26776 0.61699-0.40049 0.96636-0.40049zm-9.5898 2.8321c4.4723 0 8.1259 3.6508 8.1259 8.1232 0 2.2649-0.94244 4.3192-2.448 5.7954 0.65021 1.2601 1.0198 2.6927 1.0198 4.2154 0 5.0204-3.9871 9.1387-8.9269 9.1387h-16.525c-4.9398 0-8.9214-4.1169-8.9214-9.1387 0-3.916 2.4453-7.1992 5.8651-8.4895 1.5486-4.1702 5.4209-7.1841 10.052-7.1841 1.7974 0 3.465 0.47635 4.9357 1.2787 1.4489-2.2457 3.9693-3.7397 6.8288-3.7397zm0 2.5847c-2.0106 0-3.7438 1.0605-4.7143 2.6489 1.1513 1.0537 2.0872 2.3564 2.731 3.8203 2.4015 0.0699 4.5625 1.1015 6.1289 2.7282 0.85934-0.97524 1.3956-2.2457 1.3956-3.6577 0-3.0768-2.4658-5.5398-5.5426-5.5398zm-11.764 2.459c-3.7014 0-6.8028 2.4726-7.8621 5.9321l-0.0267 0.08809c0.09061-0.28048-0.035073 0.11744-0.11747 0.38176-0.041989 0.13469-0.058733 0.19491-0.058733 0.19491l-0.67002 0.19492c-2.6435 0.77295-4.6022 3.264-4.6022 6.2998 0 3.6727 2.828 6.554 6.3435 6.554h16.525c3.5155 0 6.3435-2.8813 6.3435-6.554s-2.828-6.554-6.3435-6.554h-1.4735l-0.29907-0.87027c-1.1365-3.3187-4.1593-5.6669-7.7637-5.6669zm23.988 1.7919h2.7337c0.75723 0 1.3668 0.60961 1.3668 1.3668 0 0.75723-0.60961 1.3668-1.3668 1.3668h-2.7337c-0.75723 0-1.3668-0.60961-1.3668-1.3668 0-0.75723 0.60961-1.3668 1.3668-1.3668zm-3.6016 8.6945c0.34937 0 0.69873 0.13539 0.96636 0.40308l0.96636 0.96636c0.53539 0.53539 0.53539 1.3969 0 1.9327-0.53539 0.5358-1.3969 0.53539-1.9327 0l-0.96636-0.96636c-0.53539-0.53539-0.53539-1.3969 0-1.9327 0.26776-0.26777 0.61699-0.40308 0.96636-0.40308z" fill="#fff"/>
</svg>
