<?xml version="1.0" encoding="UTF-8"?>
<svg version="1.1" viewBox="0 0 48 48" xmlns="http://www.w3.org/2000/svg">
    <path d="m24 2a22 22 0 0 0-22 22 22 22 0 0 0 22 22 22 22 0 0 0 22-22 22 22 0 0 0-22-22zm1.0234 5.8633c0.35349-0.0057961 0.71665 0.01278 1.0879 0.056641 2.9612 0.34986 5.3002 1.2905 7.6602 3.0801 3.1471 2.3865 5.3352 5.85 6.252 9.8926 0.27988 1.2342 0.32035 5.0002 0.066406 6.1777-0.31856 1.4771-0.84357 3.0581-1.373 4.1328-0.55142 1.1192-1.8425 3.1265-2.0137 3.1309-0.055 0.0014-0.099609-0.53425-0.099609-1.1895 0-5.6947-4.0571-10.488-10.666-12.602-2.2089-0.70639-3.1507-1.1052-4.1602-1.7656-1.0976-0.71805-2.0362-1.7373-2.4941-2.707-0.30772-0.65166-0.3457-0.89726-0.3457-2.207 0-1.4404 0.009934-1.4988 0.50977-2.5098 1.0924-2.2095 3.1017-3.4497 5.5762-3.4902zm-12.67 4.873c0.06442 0 0.11788 0.675 0.11914 1.5 0.0048 3.1561 1.2103 5.8628 3.6582 8.2129 1.7796 1.7085 3.8597 2.9179 6.3477 3.6934 2.9863 0.93075 4.4934 1.6783 5.7832 2.8672 2.6548 2.4471 2.5918 6.7077-0.13867 9.3945-1.6092 1.5835-3.8128 2.2429-6.4199 1.9238-5.244-0.64187-10.132-4.2712-12.43-9.2305-1.2116-2.6155-1.5389-4.131-1.5312-7.0938 0.00528-2.0319 0.044681-2.4159 0.37695-3.7109 0.54457-2.1224 1.3404-3.8927 2.4688-5.4902 0.66341-0.93926 1.6267-2.0664 1.7656-2.0664z" fill="#fff"/>
</svg>
