<?xml version="1.0" encoding="UTF-8"?>
<svg viewBox="0 0 48 48" xmlns="http://www.w3.org/2000/svg">
    <path d="m23.997 2c-11.246 0-20.365 9.1131-20.374 20.359v12.565c0.00473 4.4039 2.8729 8.2929 7.0789 9.5982 0 0.81856 0.65898 1.4775 1.4775 1.4775h2.9551c0.81856 0 1.4775-0.65898 1.4775-1.4775v-19.208c0-0.81856-0.65898-1.4775-1.4775-1.4775h-2.9551c-0.81856 0-1.4775 0.65898-1.4775 1.4775-1.3976 0.43779-2.683 1.1755-3.766 2.1615v-5.1165c0.00754-2.9687 0.78924-5.8842 2.2682-8.4583l1.8556 1.3275c-3e-6 0 1.2105 0.86506 2.1182-0.59736l0.01154 0.01443c2.4907-3.4975 6.5167-5.5771 10.81-5.584 4.2936 0.00694 8.3196 2.0866 10.81 5.584l0.01154-0.01443c0.90771 1.4624 2.1182 0.59736 2.1182 0.59736l1.8556-1.3275c1.479 2.5742 2.2607 5.4897 2.2682 8.4583v5.1165c-1.083-0.98603-2.3683-1.7237-3.766-2.1615 0-0.81856-0.65898-1.4775-1.4775-1.4775h-2.9551c-0.81856 0-1.4775 0.65898-1.4775 1.4775v19.208c0 0.81856 0.65898 1.4775 1.4775 1.4775h2.9551c0.81856 0 1.4775-0.65898 1.4775-1.4775 4.206-1.3054 7.0742-5.1943 7.0789-9.5982v-12.565c-0.008861-11.246-9.1277-20.359-20.374-20.359zm0.0029 3.2927c5.5075 0.00872 10.672 2.6749 13.869 7.1597l-1.8556 1.3246c-2.7704-3.8822-7.2443-6.1885-12.014-6.193-4.7695 0.00443-9.2433 2.3107-12.014 6.193l-1.8556-1.3246c3.1969-4.4848 8.3617-7.151 13.869-7.1597zm-10.897 20.391h1.1082c0.30696 0 0.55408 0.24712 0.55408 0.55408v17.361c0 0.30696-0.24712 0.55408-0.55408 0.55408h-1.1082c-0.30696 0-0.55408-0.24712-0.55408-0.55408v-17.361c0-0.30696 0.24712-0.55408 0.55408-0.55408zm20.686 0h1.1082c0.30696 0 0.55408 0.24712 0.55408 0.55408v17.361c0 0.30696-0.24712 0.55408-0.55408 0.55408h-1.1082c-0.30696 0-0.55408-0.24712-0.55408-0.55408v-17.361c0-0.30696 0.24712-0.55408 0.55408-0.55408z" fill="#fff"/>
</svg>
