<?xml version="1.0" encoding="utf-8"?>
<!-- Generator: Adobe Illustrator 25.1.0, SVG Export Plug-In . SVG Version: 6.00 Build 0)  -->
<svg version="1.1" id="Layer_1" xmlns="http://www.w3.org/2000/svg" xmlns:xlink="http://www.w3.org/1999/xlink" x="0px" y="0px"
	 viewBox="0 0 48 48" style="enable-background:new 0 0 48 48;" xml:space="preserve">
<style type="text/css">
	.st0{fill:none;stroke:#FFFFFF;stroke-linecap:round;stroke-linejoin:round;}
</style>
<g>
	<path class="st0" d="M4.5,13.9v20.3h35.2l3.8-11.9C31.3,14,17.9,14,4.7,13.9L4.5,13.9z"/>
	<path class="st0" d="M6.5,30.1c2.4,1.2,7.9,0.4,7.9-2.1c0.1-2.2-5.5-1.3-5.5-3.4c-0.1-1.4,2.6-2.7,6.1-2"/>
	<path class="st0" d="M15.6,26.5c0.1-0.1,0.5-2.5,0.8-3.6c3.3,1.1,5.1,7.6,5.7,7.6c0.6-2.8,1.7-8.2,1.7-8.5"/>
	<path class="st0" d="M31.6,22.6c-8.8-0.7-8.7,9.3,0.3,7.8"/>
	<path class="st0" d="M31.9,30.4c0.2,0,1.2-5.3,1.7-8c0.2,0,6.6,0,6.7,0.1"/>
	<path class="st0" d="M32.8,26.5l5.3,0"/>
</g>
</svg>
