<?xml version="1.0" encoding="UTF-8"?>
<svg version="1.1" viewBox="0 0 48 48" xmlns="http://www.w3.org/2000/svg">
    <path d="m24.034 2.4752h0.0027c0.49795 0.00581 0.99797 0.053051 1.3068 0.14227 1.8571 0.53657 3.2905 2.0639 3.6753 3.9177 0.09955 0.47939 0.11697 0.72686 0.08958 1.2883-0.04184 0.85309-0.14417 1.2446-0.52166 2.0207-0.61905 1.2728-1.645 2.1669-3.0193 2.632-0.52124 0.1764-0.65081 0.19699-1.4465 0.21605-0.77339 0.01851-0.93948 0.0043-1.4227-0.12383-1.8047-0.47859-3.1933-1.8576-3.7175-3.6911-0.19414-0.68333-0.19655-1.9042-0.0027-2.582 0.26986-0.94311 0.79233-1.7899 1.5333-2.4872 0.65254-0.61394 1.2887-0.96174 2.2288-1.2198 0.29983-0.082324 0.79568-0.11879 1.2936-0.11329z" fill="#fff" stroke-width="1.3489"/>
    <path d="m23.987 15.761c9.7507-9.58e-4 10.993 0.0097 11.408 0.09484 1.977 0.40633 3.557 2.0146 3.9625 4.0363 0.07446 0.37216 0.09517 0.77511 0.08168 1.752l-0.01844 1.2673-11.83 0.02899-11.83 0.03162v3.0166l11.83 0.03162 11.83 0.02897v12.19l-0.137 0.4716c-0.51334 1.771-1.7972 3.0691-3.5752 3.6147l-0.45316 0.13964-11.102 8e-3c-6.1077 0.0042-11.175-0.0042-11.258-0.01844-1.626-0.27843-3.022-1.2938-3.7701-2.74-0.48457-0.93672-0.5423-1.2531-0.54273-2.9218l-0.0027-1.449 11.801-0.03162 11.798-0.02898v-3.0167l-11.798-0.03162-11.801-0.02898-0.01581-5.9148c-0.0145-5.2182-0.0059-5.9736 0.07903-6.3995 0.40374-2.0233 1.9852-3.6176 4.01-4.0468 0.32686-0.06936 2.2521-0.08343 11.334-0.08431z" fill="#fff" stroke-width="1.3489"/>
</svg>
