<?xml version="1.0" encoding="UTF-8"?>
<svg viewBox="0 0 48 48" xmlns="http://www.w3.org/2000/svg">
    <defs>
        <style>.cls-1{fill:#fff;}</style>
    </defs>
    <g data-name="Layer 1">
        <path class="cls-1" d="M37.33,7.48h-1a1.66,1.66,0,0,0-3.31,0H15a1.66,1.66,0,0,0-3.31,0h-1A2.66,2.66,0,0,0,8,10.14v3a.49.49,0,0,0,.5.49h31a.49.49,0,0,0,.5-.49v-3A2.66,2.66,0,0,0,37.33,7.48Z"/>
        <path class="cls-1" d="M39.5,15.38H8.5a.5.5,0,0,0-.5.5v23.6a2.66,2.66,0,0,0,2.67,2.66H37.33A2.66,2.66,0,0,0,40,39.48V15.88A.5.5,0,0,0,39.5,15.38ZM24,38.1H14.67a1.34,1.34,0,1,1,0-2.67H24a1.34,1.34,0,0,1,0,2.67Zm9.33-5.34H14.67a1.33,1.33,0,1,1,0-2.66H33.33a1.33,1.33,0,1,1,0,2.66Zm-20-6.66a1.27,1.27,0,0,1,1.34-1.34h15.6a1.34,1.34,0,1,1,0,2.67H14.67A1.26,1.26,0,0,1,13.33,26.1Zm20-4H14.67a1.34,1.34,0,1,1,0-2.67H33.33a1.34,1.34,0,1,1,0,2.67Z"/>
    </g>
</svg>
