<?xml version="1.0" encoding="UTF-8"?>
<svg version="1.1" viewBox="0 0 48 48" xmlns="http://www.w3.org/2000/svg">
    <path d="m24 2a22 22 0 0 0-22 22 22 22 0 0 0 0.033203 0.93359l11.037 4.0391a6.1964 6.1964 0 0 1 2.5957-1.4355 6.1964 6.1964 0 0 1 1.8418-0.20898 6.1964 6.1964 0 0 1 0.86719 0.10156l-0.005859-0.00586 6.6797-9.4395a7.7957 7.7957 0 0 1 5.7754-7.5645 7.7957 7.7957 0 0 1 2.3145-0.25977 7.7957 7.7957 0 0 1 4.9492 2.0254 7.7957 7.7957 0 0 1 2.2832 3.7461 7.7957 7.7957 0 0 1-5.5117 9.5488 7.7957 7.7957 0 0 1-2.0469 0.26367l0.001953 0.001953-9.4434 6.6797-0.00586-0.005859a6.1964 6.1964 0 0 1-4.4902 7.0859 6.1964 6.1964 0 0 1-7.5898-4.3809 6.1964 6.1964 0 0 1-0.15625-0.83789l-7.8145-2.8574a22 22 0 0 0 20.686 14.57 22 22 0 0 0 22-22 22 22 0 0 0-22-22zm9.0293 11.062a4.8926 4.8926 0 0 0-1.4531 0.16211 4.8926 4.8926 0 0 0-3.4609 5.9922 4.8926 4.8926 0 0 0 5.9922 3.459 4.8926 4.8926 0 0 0 3.4609-5.9922 4.8926 4.8926 0 0 0-1.4336-2.3516 4.8926 4.8926 0 0 0-3.1055-1.2695zm-15.758 16.645a3.814 3.814 0 0 0-3.8145 3.8145 3.814 3.814 0 0 0 3.8145 3.8145 3.814 3.814 0 0 0 3.8145-3.8145 3.814 3.814 0 0 0-3.8145-3.8145z" fill="#fff"/>
</svg>
