<?xml version="1.0" encoding="UTF-8"?>
<svg version="1.1" viewBox="0 0 48 48" xmlns="http://www.w3.org/2000/svg">
    <path d="m7.1832 14.116a19.487 14.166 0 0 1 16.877-7.0831 19.487 14.166 0 0 1 16.877 7.0831" fill="none" stroke="#fff" stroke-linecap="round" stroke-linejoin="round" stroke-width="5" style="paint-order:normal"/>
    <path d="m14.474 20.75a11 7.5 0 0 1 9.5263-3.75 11 7.5 0 0 1 9.5263 3.75" fill="none" stroke="#fff" stroke-linecap="round" stroke-linejoin="round" stroke-width="5" style="paint-order:normal"/>
    <path d="m24 25a7 7 0 0 0-7 7 7 7 0 0 0 1.2559 3.998l5.7441 8.002 5.7402-8h-0.005859a7 7 0 0 0 1.2656-4 7 7 0 0 0-7-7zm0 4.666a2.3333 2.3333 0 0 1 2.334 2.334 2.3333 2.3333 0 0 1-2.334 2.334 2.3333 2.3333 0 0 1-2.334-2.334 2.3333 2.3333 0 0 1 2.334-2.334z" fill="#fff" style="paint-order:normal"/>
</svg>
