<svg id="Layer_2" data-name="Layer 2" xmlns="http://www.w3.org/2000/svg" viewBox="0 0 48 48"><defs><style>.cls-1{fill:none;stroke:#fff;stroke-linejoin:round;}</style></defs><path class="cls-1" d="M12.41,4.5h.05a2.05,2.05,0,0,1,0,4.1,2.07,2.07,0,0,1-1.33-.5,2.93,2.93,0,0,0-.81.29c-.63.35-1,.64-.91,2.35l.26,4.36.49,0,.49,7.39c.07,1.15.6,1.91,2.45,1.91h.56v-.51h4v.51h.56c1.85,0,2.38-.76,2.45-1.91l.5-7.39.44,0,.26-4.36C22,9,21.6,8.74,21,8.39a4.07,4.07,0,0,0-1-.36,2.07,2.07,0,0,1-1.41.57,2.05,2.05,0,0,1,0-4.1,2.08,2.08,0,0,1,1.69.88,7.26,7.26,0,0,1,2,.75,4.91,4.91,0,0,1,2.23,4.77l-.26,4.37.42,0-.49,7.39a5.67,5.67,0,0,1-5.53,5.1v0H17.15v6a6.3,6.3,0,0,0,2.51,5.29,9.64,9.64,0,0,0,5.82,1.78,9.73,9.73,0,0,0,5.82-1.84,6.2,6.2,0,0,0,2.52-5.23v-5A6.19,6.19,0,0,1,35,16.62h.1a6.19,6.19,0,0,1,1.39,12.22v5A9,9,0,0,1,33,41.1a12.28,12.28,0,0,1-7.47,2.4A12.26,12.26,0,0,1,18,41.16a9,9,0,0,1-3.52-7.32v-6H12.74v0a5.68,5.68,0,0,1-5.54-5.1L6.71,15.3l.37,0L6.82,10.9A4.9,4.9,0,0,1,9.06,6.13a7,7,0,0,1,1.65-.65,2.06,2.06,0,0,1,1.7-1ZM35.07,19.26a3.56,3.56,0,1,0,3.58,3.55,3.55,3.55,0,0,0-3.58-3.55Zm0,0"/><line class="cls-1" x1="14.48" y1="27.83" x2="17.15" y2="27.83"/><line class="cls-1" x1="21.63" y1="15.1" x2="24.21" y2="15.27"/><line class="cls-1" x1="7.08" y1="15.28" x2="9.67" y2="15.1"/></svg>