<?xml version="1.0" encoding="UTF-8"?>
<svg data-name="Layer 1" viewBox="0 0 48 48" xmlns="http://www.w3.org/2000/svg">
    <defs>
        <style>.cls-1 {
        fill: #fff;
      }</style>
    </defs>
    <path class="cls-1" d="M24,4A20,20,0,1,0,44,24,20,20,0,0,0,24,4ZM39.66,23H25V8.19A15.73,15.73,0,0,1,39.66,23ZM23,8.19V23H8.05A15.74,15.74,0,0,1,23,8.19Zm1,31.62A15.7,15.7,0,0,1,8.34,25H39.66A15.7,15.7,0,0,1,24,39.81Z"/>
    <rect class="cls-1" transform="translate(-2.83 6.67) rotate(-44.72)" x="1.7" y="4.28" width="10" height="5" rx="1"/>
    <rect class="cls-1" transform="translate(65.49 40.49) rotate(224.72)" x="36.07" y="4.28" width="10" height="5" rx="1"/>
</svg>
