<?xml version="1.0" encoding="UTF-8"?>
<svg viewBox="0 0 48 48" xmlns="http://www.w3.org/2000/svg">
    <defs>
        <style>.cls-1{fill:#fff;}</style>
    </defs>
    <g data-name="Layer 1">
        <path class="cls-1" d="m30.51 18a13 13 0 1 0 13 13 13 13 0 0 0-13-13zm0 2.67a10.33 10.33 0 0 1 10.25 9.11h-20.51a10.33 10.33 0 0 1 10.26-9.15zm0 20.71a10.34 10.34 0 0 1-10.26-9.12h20.51a10.34 10.34 0 0 1-10.25 9.08z"/>
        <path class="cls-1" d="M17.16,37.76H8.06V15.63h26v.82a15.18,15.18,0,0,1,3.58,1.38V7.55H33V4H29.07V7.55H13V4H9.11V7.55H4.48v33.2H19.17A15.2,15.2,0,0,1,17.16,37.76Z"/>
    </g>
</svg>
