<?xml version="1.0" encoding="UTF-8"?>
<svg width="48" height="48" viewBox="0 0 12.7 12.7" xmlns="http://www.w3.org/2000/svg">
    <path d="m3.8933 1.1302a2.9737 2.9737 0 0 0-2.9729 2.9735 2.9737 2.9737 0 0 0 0.66663 1.8748h-0.00103l4.7641 5.5914 4.717-5.5356a2.9737 2.9737 0 0 0 0.02326-0.027906l0.02377-0.027906h-0.0021a2.9737 2.9737 0 0 0 0.66769-1.8748 2.9737 2.9737 0 0 0-2.9735-2.9735 2.9737 2.9737 0 0 0-2.4577 1.3007 2.9737 2.9737 0 0 0-2.4551-1.3007zm0.20257 2.5135h0.71469c0.46396 0 0.57413 0.22797 0.57413 0.40824 3e-7 0.25587-0.16575 0.53124-0.74724 0.53124h-0.74466zm1.9249 0h0.71417c0.46382 0 0.57413 0.22797 0.57413 0.40824 0 0.25587-0.16547 0.53137-0.74724 0.53124h-0.74414zm1.7554 0.83974h0.71469c0.46354 0 0.57413 0.22886 0.57413 0.40928 0 0.25573-0.16599 0.53072-0.74776 0.53072h-0.74414zm-3.9383 0.57361h0.71469c0.46396 0 0.57413 0.229 0.57413 0.40928 0 0.25516-0.16561 0.53123-0.74724 0.53123h-0.74466zm1.9249 0h0.71417c0.46354 0 0.57413 0.229 0.57413 0.40928 0 0.25516-0.16495 0.53123-0.74673 0.53123h-0.74517zm1.7358 0.89969h0.71469c0.46382 0 0.57413 0.22783 0.57413 0.40824 0 0.25516-0.16561 0.53123-0.74724 0.53123h-0.74466zm-2.0123 0.57206h0.71469c0.46354 0 0.57361 0.22866 0.57361 0.4098 0 0.25516-0.16495 0.53034-0.74672 0.5302h-0.74466z" fill="#fff" stroke-width=".26458"/>
</svg>
