<?xml version="1.0" encoding="UTF-8"?>
<svg viewBox="0 0 48 48" xmlns="http://www.w3.org/2000/svg">
    <defs>
        <style>.cls-1{fill:#fff;}</style>
    </defs>
    <g data-name="Layer 1">
        <path class="cls-1" d="M39.53,18.32c-.46-13.81,0-13.79-11.71-14.27C16.58,3.59,14.45,6.28,12.37,16c-5.62,26.25-7.5,32.69,9.36,24.87C40.07,32.37,39.89,28.92,39.53,18.32Zm-7.38-3.9a1,1,0,0,1-1,1h-1a4,4,0,0,0-4,4v5.94A8,8,0,0,1,18,33.25H17a1,1,0,0,1-1-1v-2a1,1,0,0,1,1-1h1a4,4,0,0,0,4-4V19.38a8,8,0,0,1,8.06-7.93h1a1,1,0,0,1,1,1Z"/>
    </g>
</svg>
