<?xml version="1.0" encoding="UTF-8"?>
<svg version="1.1" viewBox="0 0 48 48" xmlns="http://www.w3.org/2000/svg">
    <path d="m24 2c-12.15 0-22 9.8497-22 22 0 6.0751 2.4621 11.575 6.4434 15.557l7.0723-7.0684c-3.0775-3.0765-4.9805-7.328-4.9805-12.023 0-9.3888 7.6112-17 17-17 4.6944 0 8.9451 1.9021 12.021 4.9785-3.9812-3.9812-9.4815-6.4434-15.557-6.4434z" fill="#fff"/>
    <path d="m24 46c12.15 0 22-9.8497 22-22 0-6.0751-2.4621-11.575-6.4434-15.557l-7.0723 7.0684c3.0775 3.0765 4.9805 7.328 4.9805 12.023 0 9.3888-7.6112 17-17 17-4.6944 0-8.9451-1.9021-12.021-4.9785 3.9812 3.9812 9.4815 6.4434 15.557 6.4434z" fill="#fff"/>
</svg>
