<?xml version="1.0" encoding="UTF-8"?>
<svg viewBox="0 0 48 48" xmlns="http://www.w3.org/2000/svg">
    <path d="M7 5c-1.108 0-2 .892-2 2v34c0 1.108.892 2 2 2h34c1.108 0 2-.892 2-2V7c0-1.108-.892-2-2-2H7zm11.572 3.133a1.132 1.132 0 011.073.822 1.132 1.132 0 01-.778 1.399 16.07 16.07 0 00-7.607 4.787 1.132 1.132 0 01-1.598.097 1.132 1.132 0 01-.379-.802 1.132 1.132 0 01.281-.797 18.336 18.336 0 018.68-5.461 1.132 1.132 0 01.328-.045zm10.856 0a1.132 1.132 0 01.328.045 18.336 18.336 0 018.68 5.46 1.132 1.132 0 01.28.798 1.132 1.132 0 01-.378.802 1.132 1.132 0 01-1.598-.097 16.071 16.071 0 00-7.607-4.787 1.132 1.132 0 01-.778-1.399 1.132 1.132 0 011.073-.822zm-5.446 3.508a14.114 14.114 0 01.016 0 14.114 14.114 0 0114.115 14.113 14.114 14.114 0 01-14.115 14.113A14.114 14.114 0 019.885 25.754 14.114 14.114 0 0123.982 11.64zm-.005 5.97a1.132 1.132 0 00-1.094 1.133v7.387l7.215 6.234a1.132 1.132 0 001.597-.117 1.132 1.132 0 00-.115-1.596l-6.434-5.558v-6.35a1.132 1.132 0 00-1.13-1.133 1.132 1.132 0 00-.04 0z" fill="#fff"/>
</svg>
