<?xml version="1.0" encoding="UTF-8"?>
<svg width="192" height="192" version="1.1" viewBox="0 0 50.8 50.8" xmlns="http://www.w3.org/2000/svg">
    <path transform="scale(.26458)" d="m79.18 12c-2.1 0-3.8222 1.5533-4.1582 3.5273l-3.1504 22.26a62.16 62.16 0 0 0-14.195 8.2754l-20.916-8.4434a4.2 4.2 0 0 0-5.125 1.8066l-16.799 29.105c-1.05 1.806-0.58821 4.075 1.0078 5.377l17.725 13.902a65.94 65.94 0 0 0-0.58789 8.1895c0 2.772 0.25197 5.5014 0.58789 8.1894l-17.725 13.902c-1.596 1.2599-2.0577 3.5289-1.0078 5.377l16.799 29.105c1.0499 1.806 3.235 2.5626 5.125 1.8066l19.746-7.9707 24.881-41.26-34.479-25.064 77.994-40.045c-1.5539-0.81319-3.1417-1.5718-4.7734-2.2539l-3.1484-22.26c-0.37795-1.974-2.1012-3.5273-4.2012-3.5273h-33.6zm77.512 25.328c-0.48686 0.007158-0.97672 0.10202-1.4492 0.29102l-19.75 7.9727-24.879 41.258 34.479 25.064-77.994 40.047c1.5531 0.81285 3.1423 1.5701 4.7734 2.252l3.1504 22.26c0.33592 1.974 2.0582 3.5273 4.1582 3.5273h33.6c2.1 0 3.8222-1.5533 4.1582-3.5273l3.1504-22.26a62.16 62.16 0 0 0 14.195-8.2754l20.916 8.4434a4.2 4.2 0 0 0 5.125-1.8066l16.799-29.105c1.05-1.806 0.5882-4.075-1.0078-5.377l-17.725-13.902c0.33593-2.688 0.5879-5.4174 0.5879-8.1894s-0.25199-5.5015-0.5879-8.1895l17.768-13.902c1.596-1.2599 2.0577-3.5289 1.0078-5.377l-16.801-29.105c-0.78746-1.3545-2.2133-2.1191-3.6738-2.0977z" fill="#fff" stroke-width="4.2"/>
</svg>
