<?xml version="1.0" encoding="UTF-8"?>
<svg viewBox="0 0 48 48" xmlns="http://www.w3.org/2000/svg">
    <defs>
        <style>.cls-1{fill:#fff;}</style>
    </defs>
    <g data-name="Layer 1">
        <circle class="cls-1" cx="38.7" cy="12.04" r="4.6"/>
        <path class="cls-1" d="m43.91 18.89h-7.28a3 3 0 0 1 0.37 1.43v12.47a13.26 13.26 0 0 1-0.88 5.05 7.18 7.18 0 0 0 2.55 0.48 7.14 7.14 0 0 0 7.14-7.14v-10.35a1.94 1.94 0 0 0-1.9-1.94z"/>
        <path class="cls-1" d="M22.78,13.27H4a1.88,1.88,0,0,0-1.88,1.87V33.9A1.88,1.88,0,0,0,4,35.78H22.78a1.88,1.88,0,0,0,1.88-1.88V15.14A1.87,1.87,0,0,0,22.78,13.27Zm-3.86,6.18H14.55v12H12.14v-12H7.81v-2H18.92Z"/>
        <path class="cls-1" d="m26.23 14.7v1.83a6.65 6.65 0 1 0-8.66-6.33 6.83 6.83 0 0 0 0.17 1.5h5.49a3 3 0 0 1 3 3z"/>
        <path class="cls-1" d="m33.56 18.89h-7.33v15.45a3 3 0 0 1-3 3h-9.4a11.51 11.51 0 0 0 10.36 7.11 11.53 11.53 0 0 0 11.25-11.8v-11.8a1.92 1.92 0 0 0-1.88-1.96z"/>
    </g>
</svg>
