<?xml version="1.0" encoding="UTF-8"?>
<svg version="1.1" viewBox="0 0 48 48" xmlns="http://www.w3.org/2000/svg">
    <path d="m24.291 5.0188c-0.6591-9.328e-4 -1.2659 0.097876-1.846 0.30159l-0.86428 0.30361v36.789l0.79546 0.29956c0.63682 0.2409 1.0281 0.29224 1.9694 0.25908 1.1601-0.04083 1.2359-0.06603 6.1491-2.0848 2.7359-1.1241 6.4009-2.6293 8.1449-3.3438 1.7439-0.71452 3.3193-1.437 3.5016-1.6071 0.18238-0.17014 0.45048-0.53981 0.59508-0.82177 0.25168-0.49018 0.26313-0.96562 0.26313-11.094 0-11.521 0.02751-11.086-0.79141-11.855-0.38966-0.36613-3.1026-1.5206-13.565-5.7747-3.1687-1.2883-3.4293-1.371-4.3518-1.3723zm2.7831 6.6309c0.057-0.0024 3.1966 0.85127 6.977 1.8986l6.8737 1.9046v5.7969c4.67e-4 3.2693-0.04999 5.7394-0.1174 5.6654-0.0657-0.07213-1.0382-1.6868-2.1597-3.5867-1.1215-1.8999-2.1539-3.64-2.2953-3.868-0.25302-0.408-0.25882-0.31722-0.2611 5.7646-0.0018 4.8849 0.0355 6.1658 0.17204 6.1167 0.09493-0.03411 1.1818-0.27061 2.4167-0.52626l2.2467-0.46554v2.2528l-6.0459 1.684c-3.3248 0.92577-6.464 1.804-6.977 1.9512l-0.9331 0.26718v-3.277l0.79343-0.16597c0.43702-0.09098 2.0692-0.42624 3.6271-0.74486l2.8337-0.57888 0.03441-6.4608 0.03643-6.4608-0.8744 1.1497c-0.48085 0.63299-2.1277 2.8173-3.6615 4.8537l-2.7892 3.704v-8.4363c-1e-6 -4.6393 0.04623-8.436 0.10323-8.4383zm2.3844 3.6271v2.9147c0 1.7859 0.04922 2.8615 0.12752 2.7811 0.07016-0.07223 0.99968-1.1875 2.0666-2.4795 1.4551-1.7621 1.8818-2.3611 1.7043-2.3965-0.13016-0.02595-1.0616-0.22085-2.0686-0.43315zm7.3514 1.6112c0.02218 0.04798 0.66093 1.1744 1.4209 2.5038l1.3824 2.4167 0.03846-2.1313c0.02105-1.1721-0.0098-2.1748-0.06882-2.2305-0.1397-0.13188-2.8257-0.67304-2.773-0.55864z" fill="#fff" stroke-width="1.0363"/>
    <path d="m18.749 6.8466 0.03644 8.6488c0.01973 4.7564 0.01973 12.54 0 17.295l-0.03644 8.6488-1.3136-0.68414-1.3116-0.68211v-31.861l1.3116-0.68211 1.3136-0.68414z" fill="#fff" stroke-width="1.0363"/>
    <path d="m13.246 9.6964c0.02447 0 0.04453 6.4609 0.04453 14.357 0 11.375-0.0352 14.353-0.17205 14.339-0.095-0.01005-0.71697-0.30393-1.3825-0.65175l-1.2104-0.6315 0.03644-13.017 0.03441-13.015 1.3035-0.69021c0.7165-0.37948 1.3215-0.69021 1.346-0.69021z" fill="#fff" stroke-width="1.0363"/>
    <path d="m7.5989 12.662c0.15479 0.06681 0.16193 0.97794 0.14573 6.0905-0.010809 3.4123-0.057038 8.6122-0.10323 11.555l-0.085011 5.3517-0.69021-0.35422c-0.37999-0.19416-0.85917-0.56225-1.0646-0.81772-0.81283-1.0106-0.80153-0.85531-0.80153-10.333 0-8.323 0.011896-8.723 0.27527-9.3978 0.29825-0.76403 0.93406-1.4686 1.591-1.765 0.22799-0.10288 0.5228-0.24531 0.6558-0.31576 0.028466-0.01508 0.054803-0.02371 0.076915-0.01417z" fill="#fff" stroke-width="1.0363"/>
</svg>
