<?xml version="1.0" encoding="UTF-8"?>
<svg version="1.1" viewBox="0 0 48 48" xmlns="http://www.w3.org/2000/svg">
    <g transform="matrix(1.0894 0 0 1.0894 -2.1463 -2.1463)" fill="#fff">
        <path d="m24 6.375a16.5 12.75 0 0 0-16.5 12.75 16.5 12.75 0 0 0 4.567 8.797l-3.127 6.008 9.225-2.895a16.5 12.75 0 0 0 5.835 0.84 16.5 12.75 0 0 0 16.5-12.75 16.5 12.75 0 0 0-16.5-12.75zm0 3.75a4.5 4.5 0 0 1 4.5 4.5v3.75h0.64a0.86 0.86 0 0 1 0.86 0.86v6.53a0.86 0.86 0 0 1-0.86 0.86h-10.28a0.86 0.86 0 0 1-0.86-0.86v-6.53a0.86 0.86 0 0 1 0.86-0.86h0.64v-3.75a4.5 4.5 0 0 1 4.5-4.5zm0 1.5a3 3 0 0 0-3 3v3.75h6v-3.75a3 3 0 0 0-3-3z"/>
        <circle cx="14.625" cy="39" r="2.625"/>
        <circle cx="24" cy="39" r="2.625"/>
        <circle cx="33.375" cy="39" r="2.625"/>
    </g>
</svg>
