<?xml version="1.0" encoding="UTF-8"?>
<svg data-name="Layer 1" viewBox="0 0 48 48" xmlns="http://www.w3.org/2000/svg">
    <defs>
        <style>.cls-1{fill:#fff;}</style>
    </defs>
    <path class="cls-1" d="M24,2A22,22,0,1,0,46,24,22,22,0,0,0,24,2Zm7.6,29.6a10.74,10.74,0,0,1-15.2,0L7.71,22.92l3.81-3.81a2.31,2.31,0,0,1,3.25,0l7.06,7.06A3.06,3.06,0,0,0,27,24.79l5.65,5.65A12.15,12.15,0,0,1,31.6,31.6Zm4.88-2.71a2.31,2.31,0,0,1-3.25,0l-7.06-7.06A3.06,3.06,0,0,0,21,23.21l-5.65-5.64a11.14,11.14,0,0,1,1-1.17,10.74,10.74,0,0,1,15.2,0l8.69,8.68Z"/>
</svg>
