<svg id="Layer_1" data-name="Layer 1" xmlns="http://www.w3.org/2000/svg" viewBox="0 0 48 48"><defs><style>.cls-1{fill:none;stroke:#fff;stroke-linecap:round;stroke-linejoin:round;}</style></defs><path class="cls-1" d="M40.5,42.5H7.5a2,2,0,0,1-2-2V7.5a2,2,0,0,1,2-2h33a2,2,0,0,1,2,2v33A2,2,0,0,1,40.5,42.5Z"/><line class="cls-1" x1="19.72" y1="18.15" x2="19.72" y2="28.15"/><line class="cls-1" x1="23.28" y1="28.15" x2="28.28" y2="28.15"/><line class="cls-1" x1="23.28" y1="18.15" x2="28.28" y2="18.15"/><line class="cls-1" x1="23.28" y1="23.15" x2="26.54" y2="23.15"/><line class="cls-1" x1="23.28" y1="18.15" x2="23.28" y2="28.15"/><path class="cls-1" d="M31.85,28.15v-10h3.27a3.36,3.36,0,0,1,0,6.72H31.85"/><line class="cls-1" x1="35.12" y1="24.87" x2="38.4" y2="28.15"/><line class="cls-1" x1="9.53" y1="18.15" x2="16.15" y2="18.15"/><line class="cls-1" x1="12.84" y1="28.15" x2="12.84" y2="18.15"/></svg>