<svg xmlns="http://www.w3.org/2000/svg" viewBox="0 0 48 48"><defs><style>.a{fill:none;stroke:#fff;stroke-linecap:round;stroke-linejoin:round;}</style></defs><path class="a" d="M24,2.5A21.52,21.52,0,0,0,5.15,34.36L2.5,45.5l11.14-2.65A21.5,21.5,0,1,0,24,2.5Z"/><path class="a" d="M30.11,31.71a7.81,7.81,0,0,1-6,2.79h0a7.83,7.83,0,0,1-7.83-7.82V21.32a7.83,7.83,0,0,1,7.83-7.82h0a7.8,7.8,0,0,1,6,2.82"/><line class="a" x1="12.55" y1="21.16" x2="22.43" y2="21.16"/><line class="a" x1="12.55" y1="26.89" x2="22.43" y2="26.89"/></svg>