<?xml version="1.0" encoding="UTF-8"?>
<svg viewBox="0 0 48 48" xmlns="http://www.w3.org/2000/svg">
    <path d="M24.003 4.622c-3.89.002-7.76 1.567-10.592 4.29-2.83 2.72-4.586 6.572-4.8 10.532v14.98h3.68V19.42a.572.553 0 0 1 0-.045c.51-6.088 5.9-11.2 11.716-11.2 5.812 0 11.2 5.113 11.71 11.2a.572.553 0 0 1-.004.122V34.42h3.68V19.497a.572.553 0 0 1-.005-.048c-.212-3.96-1.967-7.814-4.796-10.536-2.83-2.723-6.695-4.29-10.584-4.294z" fill="#fff"/>
    <rect x="6.227" y="26.53" width="10.425" height="13.848" ry="1.57" fill="#fff"/>
    <rect x="14.832" y="23.63" width="4.509" height="19.749" ry=".843" fill="#fff"/>
    <rect x="28.66" y="23.63" width="4.509" height="19.749" ry=".843" fill="#fff"/>
    <rect x="31.348" y="26.426" width="10.425" height="13.848" ry="1.57" fill="#fff"/>
</svg>
