<?xml version="1.0" encoding="UTF-8"?>
<svg version="1.1" viewBox="0 0 48 48" xmlns="http://www.w3.org/2000/svg">
    <path d="m24 2a22 22 0 0 0-22 22 22 22 0 0 0 22 22 22 22 0 0 0 22-22 22 22 0 0 0-22-22zm9.918 14.047c0.01212-0.0041 0.01327 0.006603 0 0.033203-0.11615 0.23294-1.0911 1.6486-1.5527 2.2559-0.27998 0.36827-0.66061 0.90459-0.84766 1.1914-0.32892 0.50436-0.3376 0.52523-0.24023 0.67383 0.09877 0.15074 0.09464 0.15941-0.19922 0.375-0.16474 0.12086-0.3289 0.21975-0.36523 0.2207-0.08776 0.0021-0.2168-0.13037-0.2168-0.22266 0-0.15204 0.84501-1.4605 1.5371-2.3789 0.55478-0.73622 1.7676-2.1088 1.8848-2.1484zm7.3867 0.14453c0.014659-0 0.033113 0.018965 0.058593 0.052735 0.30623 0.40586-0.58727 2.928-1.5234 4.3027-0.43482 0.63853-0.76938 1.0422-1.4707 1.7734l-0.52344 0.54688 0.24024 0.12305c0.85334 0.44035 1.2721 1.5854 1.002 2.7461-0.18015 0.77391-0.55748 1.4368-1.166 2.0508-0.60666 0.6121-1.0731 0.87659-1.7754 1.0059-1.3556 0.24952-2.7212-0.64589-2.8086-1.8418-0.02621-0.35873 0.01518-0.5277 0.30078-1.2461l0.13672-0.3457-0.24024 0.22266c-0.1322 0.12293-0.62893 0.5939-1.1035 1.0469-0.98858 0.94358-1.6117 1.4365-1.9531 1.541-0.22773 0.0697-0.24728 0.06261-0.45898-0.14258-0.15611-0.1513-0.25882-0.33781-0.34961-0.63672l-0.12891-0.42383-0.32422 0.24609c-0.44634 0.3364-1.1543 0.66427-1.6445 0.76172-0.22517 0.04476-0.41016 0.09907-0.41016 0.12109 0 0.09295-0.46851 0.57688-0.64844 0.66992-0.10755 0.05561-0.3532 0.12217-0.54492 0.14844-0.19172 0.026271-0.56082 0.097511-0.82031 0.15625-0.60584 0.13715-1.1507 0.05522-1.6465-0.24414-0.28814-0.17398-0.33334-0.22592-0.32226-0.37891 0.0071-0.09785 0.030984-0.197 0.052734-0.21875 0.02176-0.02175 0.48336-0.039063 1.0254-0.039063 0.9526 0 0.9959-5e-3 1.2695-0.16602 0.69198-0.40709 1.2754-1.2548 1.2754-1.8516 0-0.51822-0.22416-0.83933-0.87891-1.2617-0.29439-0.18991-0.56937-0.3589-0.61133-0.375-0.0822-0.03154-0.50611 0.54328-0.67188 0.91211-0.1601 0.35622-0.41326 0.61668-0.76758 0.78516-0.23297 0.11078-0.48629 0.32762-0.87891 0.75391-0.30342 0.32944-0.78556 0.78697-1.0703 1.0176-1.1133 0.90158-1.9523 1.0182-2.373 0.32812-0.14778-0.24239-0.15478-0.30021-0.042969-0.45312 0.065691-0.08984 0.21259-0.12667 0.66406-0.16406 0.69766-0.05779 1.2396-0.28369 1.3047-0.54297 0.05388-0.21469-0.01254-0.80846-0.14453-1.2832l-0.10938-0.38867-0.44141-0.21289c-0.48965-0.23466-0.60156-0.25635-0.60156-0.11719 0 0.19846-0.52909 1.7188-0.74414 2.1387-0.30499 0.59544-1.0303 1.3255-1.584 1.5938-0.42766 0.2072-1.1596 0.38867-1.5684 0.38867-0.13178 0-0.36072-0.04185-0.50781-0.09375-0.1471-0.0519-0.2741-0.095703-0.2832-0.095704-0.009102 0-0.036327 0.10527-0.060547 0.23438s-0.07077 0.28647-0.10352 0.34766c-0.03275 0.06118-0.12716 0.11133-0.20898 0.11133-0.1712 0-0.22568-0.17362-0.37695-1.1953-0.048671-0.32869-0.13863-0.77708-0.19922-0.99414l-0.10938-0.39453-0.39648 0.43359c-0.54626 0.59852-1.1808 1.0257-1.584 1.0645-0.28257 0.02715-0.34415 0.0072-0.68555-0.22461-0.32536-0.22095-0.41194-0.32342-0.64453-0.77734-0.64567-1.2601-0.77881-1.9907-0.77344-4.2285l0.003907-1.627-0.41797 0.041016c-0.6707 0.06473-3.8656 0.12375-4.1191 0.076172-0.19876-0.03729-0.23044-0.06865-0.23047-0.21484v-0.16992l1.2109 0.023438c1.0335 0.01915 3.555-0.08591 3.6211-0.15039 0.01183-0.01155 0.039255-0.64445 0.058593-1.4082l0.033204-1.3887h0.17969c0.09857 0 0.17969 0.024128 0.17969 0.054688s0.05581 0.0698 0.125 0.08789c0.09105 0.02381 0.12695 0.08603 0.12695 0.22461 0 0.10532 0.041357 0.21592 0.091797 0.24414 0.07576 0.0424 0.08069 0.12355 0.03125 0.47266-0.05603 0.39563 0.008196 1.5219 0.091797 1.6055 0.01834 0.01834 0.49377 2e-4 1.0566-0.041015 2.8377-0.20779 7.3624-0.52185 8.7305-0.60547 1.4365-0.0878 4.4745-0.30981 5.1895-0.37891 0.69122-0.06681 0.11387 0.04009-1.1953 0.2207-2.7077 0.37354-4.7752 0.57282-9.2148 0.88867-2.4738 0.176-4.5057 0.32838-4.5156 0.33789-0.0099 0.0095 0.012844 0.28287 0.052734 0.60742s0.05681 0.80345 0.037109 1.0645c-0.020038 0.26548 0.004598 0.80578 0.054688 1.2266 0.1088 0.91508 0.11846 2.1104 0.021484 2.6367-0.06341 0.34416-0.058784 0.40823 0.041016 0.56055 0.06207 0.09474 0.12977 0.14911 0.15039 0.12109 0.02062-0.02801 0.28015-0.21317 0.57812-0.41211 0.61583-0.41115 1.4239-1.183 1.7266-1.6504 0.16193-0.25002 0.21256-0.40725 0.24414-0.75586 0.0643-0.70981 0.10067-0.84961 0.22266-0.84961 0.09329 0 0.10531-0.04411 0.080078-0.30664-0.02568-0.26726-0.01112-0.31846 0.10547-0.38086 0.1767-0.09457 0.24621-0.04377 0.39258 0.28711 0.0669 0.15123 0.14418 0.27539 0.17188 0.27539 0.13084 0 0.17453 0.28871 0.083984 0.55469-0.1034 0.30376-0.08794 0.48625 0.11328 1.4277 0.0939 0.43933 0.13684 0.88347 0.14453 1.4766l0.011719 0.84961 0.24219 0.019532c0.42397 0.034819 0.87108-0.23946 1.6133-0.99219 0.71446-0.7246 1.2483-1.5228 1.6699-2.498l0.21875-0.50781-0.15625-0.30664c-0.13452-0.26246-0.15802-0.39692-0.16406-0.93555-0.0091-0.81002-0.0033-0.84469 0.17188-0.88867 0.36213-0.09089 0.72944 0.46425 0.70508 1.0664-0.0074 0.18407 0.005104 0.36445 0.027344 0.40039 0.02222 0.03594 0.14998 0.08416 0.2832 0.10547 0.32303 0.05166 0.70865 0.33994 0.93164 0.69726 0.249 0.39901 0.40117 0.61812 0.61328 0.88086 0.0992 0.12288 0.21735 0.32917 0.26367 0.45898 0.11624 0.32573 0.11201 0.88752-0.009765 1.1172-0.24674 0.46549-0.23534 0.49978 0.083984 0.23242 0.1656-0.13865 0.43843-0.3976 0.60547-0.57617 0.28236-0.30187 0.29661-0.33224 0.20312-0.43555-0.05531-0.06111-0.099609-0.14145-0.099609-0.17774 0-0.12616 0.20325-0.23446 0.4082-0.2168 0.18535 0.01597 0.23381-0.01875 0.48438-0.34766 0.4721-0.61972 0.67969-0.9487 0.67969-1.082 0-0.0703-0.07019-0.34968-0.15625-0.61914s-0.15773-0.62124-0.1582-0.78125c-0-0.2768-0.0095-0.29175-0.20117-0.33008-0.39182-0.07836-0.59391-0.41971-0.42969-0.72656 0.09682-0.18091 0.55399-0.33427 1.0078-0.33594 0.48113-0.0019 0.77137 0.12225 0.91016 0.39062 0.052099 0.10076 0.1486 0.20164 0.21484 0.22266 0.11985 0.03804 0.32227 0.38207 0.32227 0.54883 0 0.04812 0.12888 0.21294 0.28711 0.36719 0.63224 0.61635 1.1842 1.6706 1.3477 2.5742 0.07117 0.3933 0.051224 0.7745-0.060546 1.166-0.02963 0.1038-0.07164 0.26982-0.09375 0.36914-0.03992 0.17932-0.03837 0.18092 0.19726 0.13672 0.34139-0.06404 1.0886-0.44898 1.502-0.77344l0.35742-0.2793-0.054687-0.54492c-0.07596-0.77453-0.04647-1.172 0.13476-1.8086 0.3914-1.3746 0.95466-2.0677 1.7891-2.2012 0.21802-0.03486 0.28081-0.01992 0.38672 0.09375 0.41708 0.44768 0.40703 1.2856-0.027344 2.2344-0.21437 0.46826-0.83716 1.3689-1.3809 1.998l-0.43945 0.51172 0.12109 0.38281c0.18846 0.59095 0.25776 0.57737 1.4199-0.30078 0.5281-0.39904 1.2857-1.0228 1.6836-1.3867 0.83541-0.76404 0.97966-0.85926 1.1816-0.7832 0.21216 0.07989 0.22976 0.20505 0.064453 0.47461-0.58158 0.94838-0.70026 2.266-0.25195 2.7988 0.40734 0.4841 1.3166 0.64009 2.0273 0.34766 0.52488-0.21596 0.91056-0.50304 1.6094-1.2012 0.83653-0.83571 1.0005-1.1568 1-1.9551-0-0.68237-0.12266-0.99772-0.57422-1.4805-0.4682-0.50055-0.45594-0.49944-1.0332-0.064453-0.85409 0.64358-1.8891 1.0594-2.416 0.97266-0.29867-0.04915-0.77753-0.24708-0.92969-0.38476-0.06815-0.06167-0.11133-0.19146-0.11133-0.33984 0-0.33872 0.29381-0.65328 0.84961-0.91016 0.91005-0.42061 1.5355-0.48984 2.5156-0.2793l0.56641 0.12109 0.72461-0.73828c0.9168-0.9353 1.4573-1.6913 2.0332-2.8418 0.53668-1.0722 0.8548-1.982 0.90625-2.5957 0.02303-0.27468 0.03611-0.37441 0.06836-0.375zm-26.133 5.4316c0.02783 0.0079 0.039231 0.08189 0.019531 0.22852-0.05382 0.40052-0.26409 0.91498-0.39453 0.96289-0.06664 0.02448-0.21373 0.063351-0.32617 0.087891-0.20165 0.044-0.20508 0.04235-0.20508-0.18555 0-0.17816 0.02995-0.23831 0.12695-0.26367 0.08866-0.02319 0.125-0.08663 0.125-0.21289 0-0.28347 0.30598-0.382 0.38867-0.125 0.01609 0.05002 0.06584-0.04066 0.11133-0.20312 0.05569-0.19892 0.11851-0.29928 0.1543-0.28906zm-4.3203 0.33594c-0.02707 0.0011-0.049038 0.21473-0.074218 0.625-0.04629 0.75443-0.025335 1.5514 0.072265 2.7754 0.04983 0.62486 0.05633 0.59595 0.14453-0.56055 0.05374-0.70457 0.05459-1.1427 0-1.7617-0.06444-0.73064-0.10778-1.0795-0.14258-1.0781zm13.604 0.11719c-0.24764 0-0.51005 0.06186-0.63867 0.16602l-0.13867 0.11328 0.14844 0.046875c0.08176 0.02595 0.36257 0.08236 0.625 0.125 0.41653 0.06767 0.488 0.065209 0.55664-0.019532 0.13184-0.16274 0.0885-0.26379-0.1543-0.36523-0.10723-0.0448-0.24985-0.066886-0.39844-0.066406zm6.8613 0.25c-0.15673-0.0051-0.34586 0.11647-0.59961 0.37891-0.57553 0.59523-0.85531 1.3897-0.94922 2.7012-0.02994 0.41815-0.022072 0.61328 0.023438 0.61328 0.09224 0 0.71321-0.75288 1.0859-1.3164 0.62314-0.94214 0.92432-2.0323 0.63477-2.293-0.06024-0.05422-0.12407-0.081684-0.19531-0.083984zm5.4434 0.56055c-0.43972 0.0012-1.1863 0.10322-1.6094 0.23438-0.46132 0.14302-0.83683 0.42113-0.92969 0.6875-0.07214 0.20694-0.03413 0.29521 0.14453 0.33984 0.23556 0.058859 0.88043 0.045492 1.1328-0.023438 0.27083-0.07397 1.1004-0.59808 1.5098-0.95508l0.25-0.2207-0.25-0.046875c-0.06087-0.01155-0.14657-0.015905-0.24805-0.015625zm-12.027 0.050781c-0.06837 0-0.064159 0.04326 0.019531 0.21875 0.12402 0.26009 0.16214 0.25403 0.10742-0.019531-0.02186-0.10932-0.07994-0.19922-0.12695-0.19922zm0.76953 0.22266c-0.02933-0.0083-0.08162 0.11235-0.125 0.3125-0.03856 0.17791-0.035182 0.18152 0.054688 0.066406 0.05243-0.06716 0.0947-0.19467 0.09375-0.2832-0-0.06104-0.010128-0.091943-0.023438-0.095703zm12.744 0.12891c-0.02229 0.0096 0.0462 0.11336 0.16992 0.25391 0.14139 0.16063 0.25781 0.32193 0.25781 0.35742 0 0.0355 0.016469 0.047983 0.03711 0.027343 0.052779-0.05278-0.32565-0.5893-0.44922-0.63672-7e-3 -0.0027-0.012425-0.003353-0.015625-0.001954zm-13.77 0.17383c-0.0087 0.0087 0.030331 0.16374 0.087891 0.34375 0.0674 0.21076 0.12684 0.3048 0.16602 0.26562 0.03917-0.03917 0.008599-0.16201-0.087891-0.34375-0.08235-0.15523-0.15734-0.2743-0.16602-0.26562zm1.3848 0.009765c-0.03725 0.0059-0.06784 0.06351-0.13867 0.19727l-0.12891 0.24219 0.70508 0.67383c0.38797 0.37044 0.7129 0.67435 0.7207 0.67578 0.02621 5e-3 -0.10328-0.30448-0.24023-0.57617-0.16543-0.32819-0.62451-0.98216-0.80078-1.1406-0.05547-0.04987-0.08821-0.076836-0.11719-0.072266zm8.1289 0.0625c-6e-3 -5e-3 -0.016883 0.0063-0.033203 0.03125-0.03402 0.0519-0.06203 0.16248-0.0625 0.24609-0.0013 0.20191 0.034195 0.15021 0.083985-0.12109 0.01777-0.09682 0.021708-0.14792 0.011718-0.15625zm-14.318 1.3457c-0.03971-0.02134-0.64084 1.1858-0.6582 1.3281-0.01364 0.11185-0.52172 0.98054-0.80859 1.3828-0.11103 0.15569-0.22714 0.32506-0.25781 0.37695-0.09048 0.15309 0.47488-0.37377 0.80664-0.75195 0.16823-0.19177 0.41668-0.53519 0.55274-0.76367 0.20667-0.34707 0.25786-0.5021 0.30859-0.94336 0.0334-0.2905 0.059774-0.57115 0.058594-0.62305-0-0.0033-0-0.00516-0.001953-0.00586zm-4.5586 1.4297c-0.01337-0.0014-0.025118 0.083658-0.048828 0.27539-0.07325 0.59245-0.050256 1.1876 0.052735 1.3867 0.052788 0.10208 0.11316 0.18555 0.13476 0.18555 0.04882 0-0.029843-1.3988-0.095703-1.6992-0.0208-0.09489-0.032559-0.14736-0.042969-0.14844zm11.969 0.44336c-0.01788 0.0027-0.05531 0.0777-0.13281 0.24414-0.08161 0.17526-0.23735 0.41957-0.3457 0.54297-0.10834 0.1234-0.19727 0.24144-0.19727 0.26172 0 0.02027 0.06473 0.014349 0.14258-0.013672 0.18676-0.067219 0.54954-0.67491 0.54883-0.91797-0-0.0778-0.001695-0.1193-0.015625-0.11719zm-13.516 0.33008c-0.02866 0.0033-0.18773 0.13399-0.52539 0.41602-0.20792 0.17367-0.48549 0.38094-0.61524 0.46094-0.12974 0.079989-0.23633 0.1574-0.23633 0.17187 0 0.05502 0.14006 0.022125 0.33398-0.078124 0.29826-0.15419 0.61399-0.42285 0.89258-0.75977 0.1148-0.13885 0.17268-0.21354 0.15039-0.21094zm24.459 0.09375c-0.02012 0.0036-0.13066 0.10201-0.35938 0.3125-0.25892 0.23828-0.57729 0.50349-0.70703 0.58984s-0.23438 0.16968-0.23438 0.18359c0 0.12117 0.95512-0.62214 1.1953-0.92969 0.08175-0.10467 0.12112-0.15905 0.10547-0.15625zm-18.148 0.91992c-8e-3 -0-0.011359 0.013236-0.011719 0.041016-0 0.04129 0.06178 0.11997 0.13867 0.17383 0.0769 0.05386 0.25221 0.097656 0.38867 0.097656 0.31569 0 0.25561-0.06292-0.12891-0.13476-0.16403-0.03064-0.32033-0.08978-0.34766-0.13281-0.01838-0.02896-0.031093-0.044422-0.039063-0.044922zm5.9043 0.23438c-0.02933 0.0022-0.10286 0.033286-0.24219 0.097657-0.25692 0.1187-0.39465 0.13615-1.0352 0.12695-0.40653-0.0058-0.73828 0-0.73828 0.013671 0 0.01344 0.13448 0.0684 0.29883 0.12109 0.52179 0.16732 1.5217 0.0038 1.6973-0.27734 0.0353-0.056529 0.048871-0.084241 0.019531-0.082031z" fill="#fff"/>
</svg>
