<?xml version="1.0" encoding="UTF-8"?>
<svg version="1.1" viewBox="0 0 48 48" xmlns="http://www.w3.org/2000/svg">
    <path d="m24 2a22 22 0 0 0 -22 22 22 22 0 0 0 22 22 22 22 0 0 0 22 -22 22 22 0 0 0 -22 -22zm0 6.377l4.5762 4.5762h6.4707v6.4707l4.5762 4.5762-4.5762 4.5762v6.4707h-6.4707l-4.5762 4.5762-4.5762-4.5762h-6.4707v-6.4707l-4.5762-4.5762 4.5762-4.5762v-6.4707h6.4707l4.5762-4.5762zm0 9.9141a5.7085 5.7085 0 0 0 -5.709 5.709 5.7085 5.7085 0 0 0 5.709 5.709 5.7085 5.7085 0 0 0 5.709 -5.709 5.7085 5.7085 0 0 0 -5.709 -5.709z" fill="#fff"/>
</svg>
