<?xml version="1.0" encoding="UTF-8"?>
<svg enable-background="new 0 0 48 48" version="1.0" viewBox="0 0 48 48" xml:space="preserve" xmlns="http://www.w3.org/2000/svg">
<style type="text/css">
	.st0{fill:#FFFFFF;}
</style>

<path d="m7 5c-1.108 0-2 0.892-2 2v34c0 1.108 0.892 2 2 2h34c1.108 0 2-0.892 2-2v-34c0-1.108-0.892-2-2-2h-5.6523c-0.554 0-1.0545 0.22248-1.416 0.58398s-0.58398 0.86202-0.58398 1.416v9.6973c0 0.4916-0.39511 0.88672-0.88672 0.88672h-16.922c-0.4916 0-0.88867-0.39512-0.88867-0.88672v-9.6973c0-0.554-0.22248-1.0545-0.58398-1.416s-0.86202-0.58398-1.416-0.58398h-4.0684zm20.379 2.1348c-0.554 0-1 0.446-1 1v6.7461c0 0.554 0.446 1 1 1h1.4297c0.554 0 1-0.446 1-1v-6.7461c0-0.554-0.446-1-1-1zm-15.15 14.727h23.543c1.108 0 2 0.892 2 2v14.359c0 1.108-0.892 2-2 2h-23.543c-1.108 0-2-0.892-2-2v-14.359c0-1.108 0.892-2 2-2zm0.2793 3.8926v1.627h22.984v-1.627zm0 4.4746v1.627h22.984v-1.627zm0 4.4746v1.627h22.984v-1.627z" fill="#fff"/></svg>
