<?xml version="1.0" encoding="UTF-8"?>
<svg version="1.1" viewBox="0 0 48 48" xmlns="http://www.w3.org/2000/svg">
    <path d="m7 5c-1.108 0-2 0.892-2 2v34c0 1.108 0.892 2 2 2h34c1.108 0 2-0.892 2-2v-34c0-1.108-0.892-2-2-2h-34zm15.797 1.4219c0.37922 0.026868 0.89923 0.3757 1.3262 0.92578l2.1914 2.8242c0.56926 0.73344 0.75121 1.5389 0.40625 1.8066-0.34496 0.26774-1.0811-0.10836-1.6504-0.8418l-2.1914-2.8223c-0.56926-0.73344-0.75121-1.5408-0.40625-1.8086 0.086241-0.066936 0.19781-0.09294 0.32422-0.083984zm-4.7324 1.1328c0.37922 0.026868 0.90118 0.3757 1.3281 0.92578l2.168 2.793c0.56926 0.73344 0.74926 1.5408 0.4043 1.8086-0.34496 0.26774-1.0811-0.10836-1.6504-0.8418l-2.168-2.793c-0.56926-0.73344-0.74926-1.5389-0.4043-1.8066 0.08624-0.066936 0.19586-0.094893 0.32226-0.085938zm4.123 1.6973c0.37922 0.026868 0.90118 0.37571 1.3281 0.92578l2.3203 2.9902c0.56926 0.73344 0.74926 1.5408 0.4043 1.8086-0.34496 0.26774-1.0811-0.10836-1.6504-0.8418l-2.3203-2.9902c-0.56926-0.73344-0.74926-1.5389-0.4043-1.8066 0.086241-0.066936 0.19586-0.094893 0.32227-0.085938zm5.6758 3.8633c0.36997 0.014955 0.86796 0.33418 1.2695 0.85156 0.53543 0.68985 0.68871 1.4608 0.34375 1.7285-0.34496 0.26774-1.0525-0.071871-1.5879-0.76172-0.53543-0.68985-0.68871-1.4608-0.34375-1.7285 0.086241-0.066936 0.19504-0.094829 0.31836-0.089844zm-5.0703 0.51758c0.37922 0.026871 0.90118 0.3757 1.3281 0.92578l2.1914 2.8242c0.56926 0.73344 0.74926 1.5389 0.4043 1.8066-0.34496 0.26774-1.0811-0.10641-1.6504-0.83984l-2.1914-2.8242c-0.56926-0.73344-0.74926-1.5389-0.4043-1.8066 0.086241-0.066936 0.19586-0.09489 0.32227-0.085938zm8.5703 3.8418c1.0738 0.057025 2.1179 0.56286 2.8301 1.4805 1.3023 1.6779 0.99824 4.0883-0.67969 5.3906-1.6779 1.3023-4.0863 0.99824-5.3887-0.67969s-1.0002-4.0863 0.67773-5.3887c0.62922-0.48837 1.3617-0.74967 2.0996-0.79883 0.15374-0.010243 0.30754-0.012053 0.46094-0.003907zm-7.5898 2.3652h0.22656 0.22656v0.005859c0.9749 0.008165 1.9243 0.070403 2.8418 0.17774-0.40702 1.298-0.19873 2.7675 0.69727 3.9219 0.36164 0.46594 0.80081 0.83724 1.2852 1.1094l-4.1348 2.1855h12.836c-0.091802-1.5006-1.0893-2.9029-2.748-4.0566 0.06769-0.13973 0.13363-0.2804 0.18555-0.42578 1.7969 1.2265 2.9229 2.7706 3.0156 4.4824h-0.43164v0.22656c0 1.9277-1.4891 3.7162-3.9805 5.0332l-0.39648 0.19141 0.27539 0.36914 0.33398-0.16016c2.5756-1.3615 4.2207-3.2741 4.2207-5.4336v0.22656 4.8574c1e-6 2.1023-1.5666 3.9667-4.0254 5.3203l0.003906 0.007812-0.19922 0.10547c-2.5251 1.3348-5.9717 2.1556-9.7793 2.1875l-0.45312 0.001953c-3.7091-0.031066-7.0685-0.81735-9.5742-2.0918l-0.003907 0.007813-0.20117-0.10547-0.12109-0.064453v-0.00586c-2.503-1.3568-4.0996-3.2393-4.0996-5.3633v-4.8574-0.22656-0.22656h0.021484c0.10882-2.0088 1.6356-3.7894 4.0039-5.0938l-0.003906-0.005859c0.10032-0.05636 0.20313-0.10808 0.30469-0.16211l0.003907 0.001953c2.5151-1.3024 5.915-2.1033 9.6699-2.1348v-0.005859zm9.8984 13.221c-2.4921 1.2365-5.7984 1.9968-9.4453 2.0273v4.6309c3.6835-0.03156 7.0131-0.82083 9.4453-2.0762v-4.582zm-9.4453 2.0273-0.001953-0.45312c-3.8336 0-7.6258-0.87444-10.117-2.1914l-0.23438 0.39062c2.5756 1.3615 6.4551 2.2539 10.354 2.2539zm-10.354-2.2539c-0.22852-0.14648-0.15234-0.097662-0.22852-0.14648-1.6058-0.9152-2.8128-2.0484-3.418-3.3301v3.1934c5e-6 1.837 1.3631 3.5432 3.6465 4.8398v-4.5566zm0.23438-0.39062 8.9824-4.75h-12.842c0.11123 1.8134 1.5281 3.4912 3.8594 4.75zm10.117 2.1914c3.5494-0.03036 6.7655-0.76646 9.1719-1.9434l-9.1719-4.8496v6.793zm-0.45117-14.336c-3.5491 0.03048-6.764 0.76845-9.1699 1.9453l9.1699 4.8496v-6.7949z" fill="#fff"/>
</svg>
