<?xml version="1.0" encoding="UTF-8"?>
<svg version="1.1" viewBox="0 0 48 48" xmlns="http://www.w3.org/2000/svg">
    <path d="m24 2a22 22 0 0 0-22 22 22 22 0 0 0 22 22 22 22 0 0 0 22-22 22 22 0 0 0-22-22zm-11.545 10.859a1.5668 1.5668 0 0 1 1.2109 2.5918c-4.1558 4.9527-4.1558 12.145 0 17.098a1.5672 1.5672 0 1 1-2.4004 2.0156c-5.1198-6.1016-5.1198-15.027 0-21.129a1.5668 1.5668 0 0 1 1.1895-0.57617zm23.043 0a1.5668 1.5668 0 0 1 1.2344 0.57617c5.1198 6.1016 5.1198 15.027 0 21.129a1.5672 1.5672 0 1 1-2.4004-2.0156c4.1558-4.9527 4.1558-12.145 0-17.098a1.5668 1.5668 0 0 1 1.166-2.5918zm-18.625 3.707a1.5668 1.5668 0 0 1 1.2129 2.5918c-2.3566 2.8085-2.3566 6.8751 0 9.6836a1.5668 1.5668 0 1 1-2.4004 2.0137c-3.3207-3.9574-3.3207-9.7535 0-13.711a1.5668 1.5668 0 0 1 1.1875-0.57812zm14.205 0a1.5668 1.5668 0 0 1 1.2363 0.57812c3.3207 3.9574 3.3207 9.7535 0 13.711a1.5668 1.5668 0 1 1-2.4004-2.0137c2.3566-2.8085 2.3566-6.8751 0-9.6836a1.5668 1.5668 0 0 1 1.1641-2.5918zm-7.0781 2.1992c2.8721 0 5.2344 2.3623 5.2344 5.2344 0 2.1833-1.3668 4.0693-3.2832 4.8496l-1.9512 4.2305-1.9512-4.2305c-1.9164-0.78032-3.2832-2.6663-3.2832-4.8496 0-2.8721 2.3623-5.2344 5.2344-5.2344zm0 3.1328c-1.1787 0-2.1016 0.92282-2.1016 2.1016s0.92282 2.1016 2.1016 2.1016 2.1016-0.92282 2.1016-2.1016-0.92282-2.1016-2.1016-2.1016z" fill="#fff"/>
    <path d="m-937.37 46.922 312.19 118.42" fill="none" stroke="#fff" stroke-width="60"/>
</svg>
