<?xml version="1.0" encoding="UTF-8"?>
<svg data-name="Layer 1" viewBox="0 0 48 48" xmlns="http://www.w3.org/2000/svg">
    <defs>
        <style>.cls-1{fill:#fff;}</style>
    </defs>
    <path class="cls-1" d="m24 18.29a3 3 0 1 0 3 3 3 3 0 0 0-3-3z"/>
    <path class="cls-1" d="M41,3,24.46,6.91a2,2,0,0,1-.92,0L7,3A2,2,0,0,0,5,5V39a2,2,0,0,0,2,2l16.54,3.88a2,2,0,0,0,.92,0L41,41a2,2,0,0,0,2-2V5A2,2,0,0,0,41,3ZM24.49,39a.53.53,0,0,1-.81,0c-1.73-2-8.41-10.25-8.41-17.08a8.73,8.73,0,1,1,17.46,0C32.73,28.69,26.19,36.92,24.49,39Z"/>
</svg>
