<?xml version="1.0" encoding="UTF-8"?>
<!DOCTYPE svg  PUBLIC '-//W3C//DTD SVG 1.1//EN'  'http://www.w3.org/Graphics/SVG/1.1/DTD/svg11.dtd'>
<svg clip-rule="evenodd" stroke-linejoin="round" stroke-miterlimit="2" version="1.1" viewBox="0 0 48 48" xml:space="preserve" xmlns="http://www.w3.org/2000/svg">
    <path d="m43.492 20.435c0-1.104-0.896-2-2-2h-34.984c-1.104 0-2 0.896-2 2v17.288c0 1.104 0.896 2 2 2h34.984c1.104 0 2-0.896 2-2v-17.288z" fill="none" stroke="#fff" stroke-width="2px"/>
    <path d="m24 9.413c4.979 0 9.022 4.042 9.022 9.022h-18.044c0-4.98 4.043-9.022 9.022-9.022z" fill="none" stroke="#fff" stroke-linecap="round" stroke-miterlimit="1.5" stroke-width="2px"/>
    <path d="m23.597 20.459c4.758 0 8.62 3.863 8.62 8.62s-3.862 8.619-8.62 8.619c-4.757 0-8.619-3.862-8.619-8.619s3.862-8.62 8.619-8.62zm-1 8.205v-4.664c0-0.552 0.449-1 1-1 0.552 0 1 0.448 1 1v5.079c0 0.265-0.105 0.519-0.292 0.707l-4.429 4.428c-0.39 0.39-1.024 0.39-1.414 0s-0.39-1.024 0-1.414l4.135-4.136z" fill="#fff"/>
</svg>
