<?xml version="1.0" encoding="UTF-8"?>
<svg viewBox="0 0 48 48" xmlns="http://www.w3.org/2000/svg">
    <defs>
        <style>.cls-1{fill:#fff;}</style>
    </defs>
    <g data-name="Layer 1">
        <path class="cls-1" d="M38.51,11.84a2.34,2.34,0,0,0-2.35-2.35,2.36,2.36,0,0,0-2.35,2.35,2.35,2.35,0,0,0,4,1.67,2.29,2.29,0,0,0,.68-1.67ZM44,4.78a27.5,27.5,0,0,1-1.85,10.56,28,28,0,0,1-6.21,8.83q-2,2-4.78,4.32l-.49,9.28a.86.86,0,0,1-.39.64l-9.4,5.49a.77.77,0,0,1-.4.1.87.87,0,0,1-.56-.22l-1.57-1.57a.78.78,0,0,1-.19-.78l2.08-6.77-6.88-6.89L6.6,29.86l-.22,0a.77.77,0,0,1-.57-.22L4.24,28.09a.75.75,0,0,1-.12-.95l5.49-9.41a.91.91,0,0,1,.64-.4l9.28-.49c1.57-1.86,3-3.45,4.31-4.78a28.57,28.57,0,0,1,8.77-6.32A27.57,27.57,0,0,1,43.17,4a.86.86,0,0,1,.59.23.75.75,0,0,1,.24.55Z"/>
    </g>
</svg>
