<svg xmlns="http://www.w3.org/2000/svg" viewBox="0 0 48 48"><defs><style>.a{fill:none;stroke:#fff;stroke-linecap:round;stroke-linejoin:round;}.b{fill:#fff;}</style></defs><path class="a" d="M7.45,5.5a2,2,0,0,0-1.95,2v33.1a2,2,0,0,0,2,2h33.1a2,2,0,0,0,2-2V7.45a2,2,0,0,0-2-1.95Z"/><rect class="a" x="18.69" y="31.78" width="4.79" height="6.37" rx="2.4"/><line class="a" x1="23.48" y1="31.78" x2="23.48" y2="38.16"/><path class="a" d="M28.26,34.18a2.4,2.4,0,0,1,2.4-2.4h0a2.4,2.4,0,0,1,2.39,2.4v4"/><line class="a" x1="28.26" y1="31.78" x2="28.26" y2="38.16"/><path class="a" d="M14.49,34.18a2.4,2.4,0,0,1,2.4-2.4h0"/><line class="a" x1="14.49" y1="31.78" x2="14.49" y2="38.16"/><line class="a" x1="10.64" y1="28.57" x2="10.64" y2="38.16"/><line class="a" x1="8.96" y1="31.78" x2="12.31" y2="31.78"/><line class="a" x1="25.87" y1="31.78" x2="25.87" y2="38.16"/><circle class="b" cx="25.87" cy="29.31" r="0.9"/></svg>