<?xml version="1.0" encoding="UTF-8"?>
<svg version="1.1" viewBox="0 0 48 48" xmlns="http://www.w3.org/2000/svg">
    <rect x="8.143" y="39.216" width="7.9408" height="4.7842" fill="#fff"/>
    <rect x="31.916" y="39.216" width="7.9408" height="4.7842" fill="#fff"/>
    <path class="st1" d="m5.6276 10.658h1.233v8.1381c-1.3613 0-2.4661-1.1295-2.4661-2.5253v-4.3502c0-0.69544 0.5524-1.2626 1.233-1.2626z" fill="#fff"/>
    <path class="st1" d="m42.372 10.658h-1.233v8.1381c1.3613 0 2.4661-1.1295 2.4661-2.5253v-4.3502c0-0.69544-0.5524-1.2626-1.233-1.2626z" fill="#fff"/>
    <path d="m24 4c-5.6523 0-15.857 0.87795-15.857 3.1763v32.286h31.714v-32.286c0-2.2984-10.279-3.1763-15.857-3.1763zm0.02466 4.3403c6.3625 0 11.063 0.43892 14.106 1.3169 0.32059 0.09371 0.54254 0.38968 0.54254 0.73001v17.854c0 0.41924-0.33537 0.75957-0.74474 0.75957h-27.808c-0.40937 0-0.74474-0.34034-0.74474-0.75957v-17.854c0-0.33539 0.22195-0.63629 0.54254-0.73001 3.0432-0.87793 7.7435-1.3169 14.106-1.3169zm-10.703 23.354a2.4908 2.5647 0 0 1 2.4908 2.5647 2.4908 2.5647 0 0 1-2.4908 2.5647 2.4908 2.5647 0 0 1-2.4908-2.5647 2.4908 2.5647 0 0 1 2.4908-2.5647zm21.406 0a2.4908 2.5647 0 0 1 2.4908 2.5647 2.4908 2.5647 0 0 1-2.4908 2.5647 2.4908 2.5647 0 0 1-2.4908-2.5647 2.4908 2.5647 0 0 1 2.4908-2.5647z" fill="#fff"/>
</svg>
