<?xml version="1.0" encoding="UTF-8"?>
<svg data-name="Layer 1" viewBox="0 0 48 48" xmlns="http://www.w3.org/2000/svg">
    <defs>
        <style>.cls-1{fill:#fff;}</style>
    </defs>
    <path class="cls-1" d="M41,5H7A2,2,0,0,0,5,7V41a2,2,0,0,0,2,2H41a2,2,0,0,0,2-2V7A2,2,0,0,0,41,5ZM38.29,16.14H31.14v1.43h4.29V19H29.71v2.86h2.86v2.85H31.14V23.29H29.71v4.28H28.29v2.86H26.86v1.43H25.43v5.71h1.43V39H24V34.71H22.57V33.29H21.14v1.42H19.71v1.43H18.29v1.43h1.42V39H16.86V33.29H15.43V31.86H14V30.43H12.57V29H11.14V27.57H9.71V19h1.43v2.86h1.43v1.43H14v1.42h2.86V23.29h1.43V21.86h2.85V20.43h1.43V19H24V10.43h1.43V9H36.86v1.43h1.43Z"/>
    <rect class="cls-1" x="26.86" y="10.43" width="1.43" height="1.43"/>
</svg>
