<?xml version="1.0" encoding="UTF-8"?>
<svg version="1.1" viewBox="0 0 48 48" xmlns="http://www.w3.org/2000/svg">
    <defs>
        <style>.cls-1{fill:#2b2b2b;}.cls-2{fill:#fff;}</style>
    </defs>
    <path d="m21.537 6.5012v2.519h-2.5369v2.4809h9.9999v-2.4809h-2.5369v-2.519zm7.463 5v2.4988h2.4988v2.5011h2.5011v5h5v-2.5011h-2.5011v-5h-2.4988v-2.4988zm5 9.9999h-2.5011v2.4988h-2.4988v2.4988h2.4988v2.5011h2.5011v2.4765h2.4988v-2.4765h5v-5h-7.4988zm-2.5011 7.4988h-2.4988v-2.5011h-9.9999v2.5011h-2.4988v5h14.998zm-14.998 0v-2.5011h2.4988v-2.4988h-2.4988v-2.4988h-2.5011v2.4988h-7.4988v5h5v2.4765h2.4988v-2.4765zm-2.5011-7.4988v-5h2.5011v-2.5011h2.4988v-2.4988h-5v2.4988h-2.4988v5h-2.5011v2.5011zm5-7.5011v2.5011h-2.4988v5h2.4988v2.4988h9.9999v-2.4988h2.4988v-5h-2.4988v-2.5011zm-15 17.499v2.5011h2.463v2.4988h2.5369v2.5011h7.5011v2.4988h14.998v-2.4988h7.5011v-2.5167h2.4966v-2.4966h2.5034v-2.4877h-5v2.5011h-5v2.4988h-20v-2.4988h-5v-2.5011z" fill="#fff" stroke-width="1.1454"/>
</svg>
