<svg xmlns="http://www.w3.org/2000/svg" viewBox="0 0 48 48"><defs><style>.a{fill:none;stroke:#fff;stroke-linecap:round;stroke-linejoin:round;}</style></defs><path class="a" d="M24,2.5A21.49,21.49,0,0,1,44.08,16.39l-6,6a14.21,14.21,0,0,0-25.61-6.73h0L2.58,25.55c-.05-.52-.07-1-.08-1.55A21.5,21.5,0,0,1,24,2.5Zm0,15.87A5.63,5.63,0,0,1,29.63,24h0A5.63,5.63,0,0,1,24,29.63h0A5.63,5.63,0,0,1,18.37,24h0A5.63,5.63,0,0,1,24,18.37Zm21.4,3.56c.06.69.1,1.38.1,2.07A21.5,21.5,0,0,1,24,45.5h0A21.49,21.49,0,0,1,3.77,31.2l6.05-6.05a14.22,14.22,0,0,0,26.63,5.73Z"/></svg>