<?xml version="1.0" encoding="UTF-8"?>
<svg data-name="Layer 1" viewBox="0 0 48 48" xmlns="http://www.w3.org/2000/svg">
    <defs>
        <style>.cls-1{fill:#fff;}</style>
    </defs>
    <path class="cls-1" d="M24,2A22,22,0,1,0,46,24,22,22,0,0,0,24,2ZM36.09,26.73h-.92v1.91A4.52,4.52,0,0,1,33.62,32h4.13a.57.57,0,0,1,.57.57,2.67,2.67,0,0,1-2.66,2.66H12A2.67,2.67,0,0,1,9.31,32.6.57.57,0,0,1,9.88,32H14a4.52,4.52,0,0,1-1.55-3.39V13.24a.5.5,0,0,1,.5-.5H34.67a.5.5,0,0,1,.5.5v3.27h1.14a5.1,5.1,0,0,1,5.08,5.61A5.26,5.26,0,0,1,36.09,26.73Z"/>
    <path class="cls-1" d="m36.31 19.66h-1.14v3.91h1.14a2 2 0 0 0 0-3.91z"/>
</svg>
