<svg id="Layer_2" data-name="Layer 2" xmlns="http://www.w3.org/2000/svg" viewBox="0 0 48 48"><defs><style>.cls-1{fill:none;stroke:#fff;stroke-linecap:round;stroke-linejoin:round;}</style></defs><path class="cls-1" d="M22.14,17.71a3.94,3.94,0,0,0,.39,2,1.35,1.35,0,0,0,1.29.65,1.61,1.61,0,0,0,1.54-.95,7.16,7.16,0,0,0,.47-3V10.66h4.51v13H27l-.61-1.75h-.18a3.24,3.24,0,0,1-1,1.49,2.36,2.36,0,0,1-1.4.49,2,2,0,0,1-1-.23,2.35,2.35,0,0,1-.71-.73,22.19,22.19,0,0,1,.13,2.7v3.66H17.66V10.66h4.48Z"/><path class="cls-1" d="M24,4.5A13.09,13.09,0,0,0,10.91,17.59c0,10.25,10,22.61,12.61,25.63a.8.8,0,0,0,1.21,0c2.55-3,12.36-15.38,12.36-25.63A13.09,13.09,0,0,0,24,4.5Z"/></svg>