<?xml version="1.0" encoding="UTF-8"?>
<svg version="1.1" viewBox="0 0 48 48" xmlns="http://www.w3.org/2000/svg">
    <path d="m19.795 3c-0.525 0-0.95506 0.38736-1.0391 0.88086l-0.78711 5.5664a15.54 15.54 0 0 0 -3.5488 2.0684l-5.2305-2.1113a1.05 1.05 0 0 0 -1.2793 0.45117l-4.2012 7.2773c-0.2625 0.4515-0.14705 1.0183 0.25195 1.3438l4.4316 3.4766a16.485 16.485 0 0 0 -0.14648 2.0469c0 0.693 0.062484 1.3749 0.14648 2.0469l-4.4316 3.4766c-0.399 0.315-0.51445 0.88175-0.25195 1.3438l4.2012 7.2754c0.2625 0.4515 0.8068 0.64212 1.2793 0.45312l5.2305-2.1113c1.0815 0.8295 2.2678 1.5329 3.5488 2.0684l0.78711 5.5645c0.084 0.4935 0.51406 0.88281 1.0391 0.88281h8.4004c0.525 0 0.95506-0.38931 1.0391-0.88281l0.78711-5.5645a15.54 15.54 0 0 0 3.5508 -2.0684l5.2285 2.1113a1.05 1.05 0 0 0 1.2812 -0.45312l4.1992-7.2754c0.2625-0.4515 0.14705-1.0183-0.25195-1.3438l-4.4316-3.4766c0.084-0.672 0.14844-1.3539 0.14844-2.0469s-0.06444-1.3749-0.14844-2.0469l4.4414-3.4766c0.399-0.315 0.51445-0.88175 0.25195-1.3438l-4.1992-7.2773c-0.2625-0.4515-0.80875-0.64017-1.2812-0.45117l-5.2285 2.1113c-1.0815-0.8295-2.2678-1.5329-3.5488-2.0684l-0.78711-5.5664c-0.0945-0.4935-0.52578-0.88086-1.0508-0.88086zm4.2051 10.16a8.2406 8.2406 0 0 1 8.2402 8.2402c0 4.7941-3.8983 8.5359-8.2402 13.439-4.1572-4.695-7.9052-8.3258-8.2168-12.834a8.2406 8.2406 0 0 1 -0.0039 -0.04687c-0.01179-0.18477-0.01953-0.37072-0.01953-0.55859a8.2406 8.2406 0 0 1 8.2402 -8.2402zm0 4.2793a3.9611 3.9611 0 0 0 -3.9609 3.9609 3.9611 3.9611 0 0 0 3.9609 3.9609 3.9611 3.9611 0 0 0 3.9609 -3.9609 3.9611 3.9611 0 0 0 -3.9609 -3.9609z" fill="#fff" stroke-width="1.05"/>
</svg>
