<?xml version="1.0" encoding="UTF-8"?>
<svg version="1.1" viewBox="0 0 48 48" xmlns="http://www.w3.org/2000/svg">
    <path d="m10 22c-1.11 0-2 0.892-2 2v3.6c0.556-0.18 0.845-0.276 1.77-0.557 1.64-0.499 3.86-1.12 6.64-1.71 5.4-1.1 13-2.2 22.6-2.3h0.7c-0.3-0.6-1-1-1.7-1zm29.9 3c-9.93 0-17.6 1.11-23 2.28-2.72 0.586-4.88 1.19-6.48 1.67-1.22 0.3-1.78 0.5-2.4 0.7v12.3c0 1.11 0.892 2 2 2h28c1.11 0 2-0.892 2-2v-17zm-23.7 8.75-0.183 2.81 2.21 1.74l-2.7 0.7-0.975 2.64-1.5-2.38-2.81-0.112 1.8-2.17-0.764-2.71 2.62 1.04zm15.9-5.97c1.52-0.0355 2.97 0.621 3.95 1.79 1.56 1.86 1.56 4.57 0 6.43-1.43 1.7-3.8 2.25-5.83 1.36 1.82-0.793 3-2.59 3-4.58-9.91e-4 -1.99-1.18-3.79-3-4.58 0.595-0.26 1.23-0.402 1.88-0.418zm-6.4 1.8-0.2 2.9 2.3 1.8-2.8 0.7l-0.997 2.7-1.54-2.43-2.88-0.113 1.84-2.21-0.781-2.77 2.67 1.07z" fill="#fff"/>
    <path d="m13 4c-0.1 0.02-0.3 0.06-0.4 0.15-0.6 0.33-0.9 1.09-0.5 1.69l3 5.35c-4.3 2.9-7.1 7.8-7.1 13.3h12.8c6.6-0.7 13.5-1.5 19.1-1.5-0.4-4.9-3.1-9.2-7-11.8l3-5.35c0.4-0.6 0.1-1.36-0.5-1.69-0.6-0.34-1.3-0.12-1.7 0.48l-2.9 5.36c-2.1-0.95-4.4-1.5-6.8-1.5s-4.7 0.55-6.8 1.5l-2.9-5.36c-0.3-0.45-0.8-0.68-1.3-0.63zm1 12.5a4 4 0 0 0 3.5 2 4 4 0 0 0 3.5 -2 3.5 3.5 0 0 1 -3.5 3.5 3.5 3.5 0 0 1 -3.5 -3.5zm13 0a4 4 0 0 0 3.5 2 4 4 0 0 0 3.5 -2 3.5 3.5 0 0 1 -3.5 3.5 3.5 3.5 0 0 1 -3.5 -3.5z" fill="#fff"/>
</svg>
