<svg xmlns="http://www.w3.org/2000/svg" viewBox="0 0 48 48" version="1.1">
 <path style="paint-order:markers fill stroke" d="m8 5c-1.108 0-2 0.892-2 2v32c0 1.108 0.892 2 2 2h2v5.5l11-5.5h19c1.108 0 2-0.892 2-2v-32c0-1.108-0.89-2-2-2zm5 7h6c0.5 0 1 0.5 1 1 0 1-0.000078 2 0.67 4 0.33 1 0.33 1.5-0.67 2.5l-2.1 2.1c1.03 1.95 2.1 3.4 3.6 4.9s3 2.571 4.9 3.6l2.1-2.1c1-1 1.5-1 2.5-0.67 2 0.67 3 0.67 4 0.67 0.5 0.0097 1 0.5 1 1v6c0 0.5-0.5 1-1 1-6.0-0.25-11.74-2.735-16-7-4.265-4.265-6.75-10-7-16 0-0.5 0.5-1 1-1z" stroke-width="0" fill="#fff"/>
</svg>
