<?xml version="1.0" encoding="UTF-8"?>
<svg version="1.1" viewBox="0 0 48 48" xmlns="http://www.w3.org/2000/svg">
    <path d="m24 2a22 22 0 0 0 -22 22 22 22 0 0 0 22 22 22 22 0 0 0 22 -22 22 22 0 0 0 -22 -22zm3.6914 7.5508c3.8462 0 7.0957 3.235 7.0957 7.0957v1.6133h3.207v5.4824h-3.666c-0.42287 3.2152-1.1246 6.1421-2.082 8.6211-0.81229 2.1032-1.7921 3.903-3.0898 5.3242-1.2978 1.4212-3.0884 2.5293-5.1582 2.5293s-3.8565-1.1081-5.1543-2.5293c-1.2978-1.4212-2.2776-3.2211-3.0898-5.3242-1.6246-4.2063-2.541-9.6792-2.541-15.717h5.4844c0 5.4653 0.88504 10.408 2.1719 13.74 0.64342 1.6659 1.3964 2.9149 2.0234 3.6016 0.627 0.68665 0.95395 0.74414 1.1055 0.74414 0.15152 0 0.47847-0.057492 1.1055-0.74414s1.382-1.9356 2.0254-3.6016c0.69477-1.7989 1.2673-4.0775 1.6523-6.6445h-1.0898c-3.9666 0-7.0957-3.3165-7.0957-7.0957 0-3.6518 2.998-7.0957 7.0957-7.0957zm0 5.4844c-1.1476 0-1.6113 0.78814-1.6113 1.6113 0 0.94235 0.53389 1.6133 1.6113 1.6133h1.5781c0.017144-0.53325 0.033203-1.0686 0.033203-1.6133 0-1.1667-0.45451-1.6113-1.6113-1.6113z" fill="#fff"/>
</svg>
