<?xml version="1.0" encoding="UTF-8"?>
<svg viewBox="0 0 48 48" xmlns="http://www.w3.org/2000/svg">
    <path d="m24 1.5a22.5 22.5 0 0 0-19.408 11.162c0.52036 0.12322 1.0274 0.32403 1.5176 0.58984 0.15108-0.074658 0.30102-0.15815 0.45312-0.2207 1.0798-0.44405 2.1818-0.56492 3.2422-0.37891 1.0604 0.18602 2.0806 0.67862 2.9961 1.457 1.876 1.5951 3.0328 4.5206 4.2129 7.6895s2.3557 6.5946 4.0195 9.1504c0.88585 1.3607 1.935 2.3072 3.0527 2.8945 1.269-0.61492 2.4656-1.6659 3.4551-3.1836 1.6699-2.5613 2.4931-5.24 3.332-7.6914s1.6946-4.7024 3.5332-6.2715c1.826-1.5583 4.2831-2.2731 6.7344-1.7168 0.40031 0.090855 0.79969 0.21904 1.1953 0.37891 0.7005-0.26327 1.4388-0.41982 2.1953-0.46875a22.5 22.5 0 0 0-20.531-13.391zm-19.906 12.045a22.5 22.5 0 0 0-0.95312 2.0586c0.62909-0.70517 1.2782-1.2945 1.9434-1.7539-0.3257-0.13659-0.65487-0.24622-0.99023-0.30469zm4.8867 0.007812c-0.6176-0.014706-1.2484 0.1086-1.8906 0.35352 0.057212 0.045659 0.11741 0.082895 0.17383 0.13086 1.876 1.5951 3.0328 4.5206 4.2129 7.6895s2.3556 6.5946 4.0195 9.1504c1.6411 2.5208 3.8343 3.6658 6.0117 3.6152 0.46401-0.010776 0.92935-0.087916 1.3906-0.20898-1.0001-0.67199-1.924-1.5924-2.7031-2.7891-1.7678-2.7153-2.9462-6.1958-4.1191-9.3457-1.173-3.1499-2.3682-5.9547-3.9238-7.2773-1.0004-0.85054-2.0643-1.292-3.1719-1.3184zm-2.8945 0.84375c-1.3181 0.78825-2.6519 2.1585-3.8848 4.1719a22.5 22.5 0 0 0-0.70117 5.4316 22.5 22.5 0 0 0 22.5 22.5 22.5 22.5 0 0 0 22.5-22.5 22.5 22.5 0 0 0-0.38867-4.0918c-1.1375-1.7183-2.4428-2.8324-3.7812-3.4629-0.62198 0.27534-1.2086 0.63555-1.7363 1.0859-1.5931 1.3596-2.4073 3.4057-3.2383 5.834-0.83098 2.4283-1.6777 5.2118-3.4395 7.9141-1.7871 2.7411-4.301 4.226-6.8496 4.2852-1.0187 0.023657-2.0329-0.19332-3-0.625-0.82485 0.33757-1.6778 0.53278-2.5371 0.55274-2.5486 0.059184-5.0806-1.32-6.8711-4.0703-1.7678-2.7153-2.9462-6.1958-4.1191-9.3457-1.173-3.1499-2.3682-5.9547-3.9238-7.2773-0.17446-0.14833-0.35112-0.27898-0.5293-0.40234zm33.244 1.3965c-1.5724 0.033799-3.0692 0.6383-4.2734 1.666-1.5931 1.3596-2.4073 3.4057-3.2383 5.834-0.83098 2.4283-1.6777 5.2118-3.4395 7.9141-0.88374 1.3555-1.9461 2.4005-3.1016 3.1211 0.58237 0.16642 1.174 0.25007 1.7656 0.23633 2.1774-0.050565 4.3906-1.3096 6.0352-3.832 1.6699-2.5613 2.4931-5.24 3.332-7.6914s1.6946-4.7024 3.5332-6.2715c0.34473-0.29419 0.71808-0.548 1.1035-0.7793-0.042213-0.010454-0.084763-0.02558-0.12695-0.035156-0.53274-0.12091-1.0657-0.17338-1.5898-0.16211zm5.5371 0.072265c-0.42443 0.009124-0.8408 0.070809-1.25 0.16016 0.6678 0.4142 1.3194 0.92349 1.9336 1.5645a22.5 22.5 0 0 0-0.60742-1.7207c-0.025285 2.48e-4 -0.050924-0.004449-0.076171-0.003907z" fill="#fff"/>
</svg>
