<?xml version="1.0" encoding="UTF-8"?>
<svg version="1.1" viewBox="0 0 48 48" xmlns="http://www.w3.org/2000/svg">
    <path d="m24 2a22 22 0 0 0 -22 22 22 22 0 0 0 22 22 22 22 0 0 0 22 -22 22 22 0 0 0 -22 -22zm1.4141 5.9902c1.5794 0.11144 3.6963 0.67608 5.1191 1.3438l-2.2031 3.8184c-0.91826-0.38232-1.8977-0.64141-2.916-0.77539v-4.3867zm-3.0234 0.021484v4.3652c-1.0181 0.13421-1.998 0.39296-2.916 0.77539l-2.1758-3.7676c1.6101-0.73461 3.3306-1.1987 5.0918-1.373zm10.775 2.8047c1.4639 1.0268 2.7466 2.2916 3.7949 3.7402l-3.8926 2.248c-0.61523-0.79864-1.332-1.5139-2.1309-2.1289l2.2285-3.8594zm-18.484 0.076172l2.1836 3.7832c-0.79888 0.61521-1.5118 1.332-2.127 2.1309l-3.8086-2.1973c1.0376-1.4368 2.305-2.6935 3.752-3.7168zm7.709 4.5352v4.1836c-0.51036 0.18293-0.98349 0.4554-1.3965 0.80664l-3.6328-2.0957c1.2586-1.4914 3.02-2.5391 5.0293-2.8945zm3.0234 0c2.0091 0.35504 3.7705 1.4018 5.0293 2.8926l-3.6289 2.0957c-0.41478-0.35056-0.88849-0.62333-1.4004-0.80469v-4.1836zm13.088 1.7285c0.76845 1.6315 1.257 3.3822 1.4453 5.1758h-4.5781c-0.13422-1.019-0.39251-1.9992-0.77539-2.918l3.9082-2.2578zm-29.098 0.060547l3.8086 2.1992c-0.38246 0.91822-0.64127 1.8977-0.77539 2.916h-4.4648c0.1905-1.7727 0.67416-3.5013 1.4316-5.1152zm22.543 3.7246c0.32494 0.90634 0.50976 1.8789 0.50976 2.9004 0 1.0206-0.18532 1.9947-0.50976 2.9004l-3.6211-2.0918c0.04958-0.26645 0.075263-0.53758 0.076172-0.80859-0.00081 -0.27158-0.026492-0.54159-0.076172-0.80859l3.6211-2.0918zm-16.088 0.001953l3.623 2.0918c-0.04958 0.26645-0.075263 0.53562-0.076172 0.80664 0.00035 0.27097 0.025199 0.5421 0.074219 0.80859l-3.6211 2.0918c-0.32432-0.90559-0.50977-1.88-0.50977-2.9004 0-1.0207 0.18529-1.9927 0.50977-2.8984zm24.098 1.4727c0.05762 0.52713 0.090403 1.0557 0.095703 1.5859-0.000335 0.14245-0.019326 0.28358-0.023437 0.42578-0.010607 0.30873-0.018504 0.61812-0.046875 0.92578h-0.003906c-0.15687 1.8085-0.60449 3.5824-1.3555 5.2422l-4.0273-2.3262c0.3822-0.91794 0.6394-1.8981 0.77344-2.916h4.6094c0.02667-0.30746 0.041842-0.6166 0.050781-0.92578 0.004878-0.14199 0.020382-0.28369 0.021484-0.42578-0.00474-0.53022-0.03669-1.0588-0.09375-1.5859zm-32.01 2.9375h4.4902c0.13404 1.018 0.39318 1.998 0.77539 2.916l-3.9219 2.2656c-0.7337-1.6399-1.1887-3.3918-1.3438-5.1816zm18.865 1.9141l3.6309 2.0957c-1.2589 1.4918-3.0193 2.5394-5.0293 2.8945v-4.1816c0.51156-0.18256 0.98443-0.45701 1.3984-0.80859zm-5.8223 0.001953c0.41478 0.35056 0.88849 0.62333 1.4004 0.80469v4.1816c-2.0092-0.35549-3.7708-1.4013-5.0293-2.8926l3.6289-2.0938zm-6.252 3.6094c0.6153 0.79918 1.3278 1.5135 2.127 2.1289l-2.3164 4.0156c-1.4667-1.0628-2.7426-2.3674-3.7754-3.8555l3.9648-2.2891zm18.332 0.001953l4.0645 2.3457c-1.0522 1.4947-2.3513 2.7994-3.8418 3.8574l-2.3535-4.0762c0.79891-0.61518 1.5156-1.3281 2.1309-2.127zm-13.596 3.6504c0.91805 0.38245 1.8979 0.64314 2.916 0.77734v4.7012c-1.8156-0.18512-3.5861-0.67775-5.2363-1.457l2.3203-4.0215zm8.8555 0.001953l2.3477 4.0664c-1.6616 0.76593-3.4417 1.243-5.2637 1.4102v-4.7012c1.0184-0.13398 1.9977-0.39305 2.916-0.77539z" fill="#fff"/>
</svg>
