<svg id="Layer_2" data-name="Layer 2" xmlns="http://www.w3.org/2000/svg" viewBox="0 0 48 48"><defs><style>.cls-1{fill:none;stroke:#fff;stroke-linecap:round;stroke-linejoin:round;}.cls-2{fill:#fff;}</style></defs><path class="cls-1" d="M24.93,4.76a25.75,25.75,0,0,0-5.62.46,14.43,14.43,0,0,0-4.55,1.71c-.49.45-.51,3.29,0,5.11a9.94,9.94,0,0,0,6.76,6.84,9.77,9.77,0,0,0,10.88-4.41A10.44,10.44,0,0,0,33.7,9c0-1.65,0-1.79-.57-2.21A18.9,18.9,0,0,0,28,5a16.62,16.62,0,0,0-3.08-.28ZM17.06,5.87H7.61A1.92,1.92,0,0,0,5.69,7.8V40.57A1.92,1.92,0,0,0,7.61,42.5H40.39a1.92,1.92,0,0,0,1.92-1.93V7.8a1.92,1.92,0,0,0-1.92-1.93H31m-7,4.86c-.19-.06-.31.39-.51,1.76a7.79,7.79,0,0,1-.65,2.28A1.47,1.47,0,0,0,25,16.84a1.57,1.57,0,0,0,.17-2.07,7.79,7.79,0,0,1-.65-2.28,7.91,7.91,0,0,0-.35-1.7.16.16,0,0,0-.08-.06ZM20.41,24.49a3.48,3.48,0,0,1,2,.41c1.69,1,1.57,2.46-.58,7.24-1.62,3.61-1.95,4.73-1.61,5.37s.51.56,1.33.13a4.35,4.35,0,0,0,2.33-3.31c.7-3.93,2.62-6.29,4-4.93.78.78.28,2.56-1.5,5.3-.75,1.16-.89,1.54-.77,2.11.45,2.06,2.65.89,4.11-2.19a16.64,16.64,0,0,0,1.62-7.29c.09-3,.19-3.19,1.41-2.55s1.52,1.16,1.47,2.65c-.13,4.37-3.33,10.7-6.06,12a2.82,2.82,0,0,1-3.81-.92c-.12-.24-.24-.49-.37-.73a8.33,8.33,0,0,0-1.41.89,4.4,4.4,0,0,1-2.48,1.05,2.42,2.42,0,0,1-2.3-.66c-1.12-1-.87-2.51,1.15-6.81,2.18-4.61,2.49-6.39,1.12-6.39-.69,0-1.36.38-2.53,1.46C15.56,29.09,15,31.22,16,32.57c1.19,1.53-1.15,1.23-2.71-.34-.74-.73-.9-1.06-.9-1.78,0-2.7,4.69-5.82,8-6Zm0,0"/><circle class="cls-2" cx="24.04" cy="8.15" r="0.75"/><circle class="cls-2" cx="30.28" cy="9.65" r="0.75"/><circle class="cls-2" cx="17.8" cy="9.65" r="0.75"/><circle class="cls-2" cx="20.92" cy="8.9" r="0.75"/><circle class="cls-2" cx="27.16" cy="8.9" r="0.75"/></svg>