<?xml version="1.0" encoding="UTF-8"?>
<svg width="48" height="48" viewBox="0 0 12.7 12.7" xmlns="http://www.w3.org/2000/svg">
    <path d="m6.35.52916633a5.8208331 5.8208331 0 0 0 -5.82083333 5.82083397 5.8208331 5.8208331 0 0 0 5.82083333 5.8208327 5.8208331 5.8208331 0 0 0 5.820834-5.8208327 5.8208331 5.8208331 0 0 0 -5.820834-5.82083397zm-.6697265 2.42620897v.0026c.011738 0 .023464.0011.03514.0021.00622 0 .012424.0012.018604.0021.00831 0 .016585.0021.024805.0041h.00362c.01132.003.022528.0058.03359.0088h.00103c.010482.0029.020825.0069.031006.01085.00207.001.00414.0022.0062.0031.00242.002.00482.0031.00723.0041.00965.004.019142.009.028422.01395.057842.03172.1068621.07741.1426269.132808.00359.0056.00704.01105.010335.01705.00193.003.00383.0058.00568.0088l.3679362.577743h.3017904c.1581023-.4495.5823519-.750555 1.0588501-.751375.6210326 0 1.1244796.503449 1.1244796 1.124479s-.503447 1.124479-1.1244796 1.124479h-.40566l1.0619507 1.666565.2986899-.441834c.0067-.0116.01391-.02279.0217-.03359.03009-.04169.068-.07719.111621-.104386.0031-.002.0062-.0037.0093-.0057.0071-.0039.01434-.0079.0217-.01189.0046-.003.0093-.0052.01395-.0072.0066-.003.01335-.0058.02015-.0088.0067-.002.01337-.0052.02015-.0072.0062-.002.01235-.0037.0186-.0057.006-.002.01203-.0042.01809-.0052.0051-.001.01031-.0022.0155-.0031.0087-.002.01752-.0031.02636-.0041.0053-.0011.01067-.0012.01602-.0015.01-.0013.01996-.0019.02997-.0021.01294 0 .02588.0011.03876.0021h.001.0062c.01109.001.02213.0032.03307.0052.0129.003.02567.0063.03824.01034.01137.0039.02258.0079.03359.01189.0012.001.0024.001.0036.0016.01091.0047.0216.0095.03204.0155.0012.001.0024.0014.0036.0021 0 0 .0021.0015.0031.0021.04524.0252.08509.05914.117306.09974.0071.009.01384.01791.02015.02791 0 0 .0017.0031.0026.0041.0028.0039.0056.0089.0083.01292 0 .001 0 .0021.0015.0031l1.0986403 1.62574c.03283.05859.05025.12452.05064.19172 0 .21919-.177687.396875-.396875.396875h-7.6107953c-.2191879 0-.396875-.177685-.396875-.396875 0-.06646.016718-.13187.048576-.190169l3.1429605-4.932516c.00664-.0119.013884-.02342.021704-.03462 0 0 .00138-.0021.00207-.0031.030993-.04319.070357-.07979.1157552-.107487.010415-.0061.021104-.01205.032039-.01705.00172 0 .00345-.0023.00517-.0031.00981-.0049.019809-.0089.029972-.01292.0024 0 .00482-.0023.00723-.0031.00919-.003.018495-.0058.027905-.0088.00446-.002.00894-.0031.013436-.0041.00737 0 .014771-.0026.022221-.0036.00669 0 .013414-.0022.020154-.0031.00619-.0011.012394-.0017.018604-.0021.00962-.0013.019279-.0019.028939-.0021z" fill="#fff" stroke-width=".26458"/>
</svg>
