<?xml version="1.0" encoding="UTF-8"?>
<svg version="1.1" viewBox="0 0 48 48" xmlns="http://www.w3.org/2000/svg">
    <path d="m21.756 14.686c-5.281 0.10692-10.729 2.6559-15.348 8.127-0.31246 0.37109-0.71875 0.83466-0.71875 1.3379 0 0.49762 0.41069 0.95332 0.71875 1.3203 4.6188 5.471 10.067 8.02 15.348 8.127 1.7603 0.03563 3.5029-0.19972 5.1895-0.68945 3.0098-0.87396 5.8239-2.5016 8.3184-4.7129l-2.4395-2.5176c-2.1196 1.854-4.4518 3.184-6.8516 3.8809-5.216 1.5146-10.82 0.28579-16.074-5.418 5.2534-5.7027 10.859-6.9305 16.074-5.416 5.4885 1.5937 10.634 6.506 13.654 13.4 0.92054 2.1636 4.1622 0.74293 3.1953-1.4004-3.3569-7.6626-9.1307-13.391-15.877-15.35-1.6866-0.48973-3.4291-0.72509-5.1895-0.68945zm19.531 0.41406c-0.71933-0.02323-1.378 0.39651-1.6602 1.0586-0.62427 1.425-1.3447 2.7601-2.1348 4.0039l2.4941 2.5781c1.0716-1.5982 2.0257-3.3322 2.8359-5.1816 0.51006-1.1324-0.2938-2.4189-1.5352-2.459zm-17.467 6.8867v4.0645h1.9492v-0.59375h-1.334v-3.4707h-0.61524zm-5.3242 0.033203v4.0312h0.61719v-4.0312h-0.61719zm-3.416 0.046875v3.9648l0.59375-0.10938c0.83944-0.20043 1.5586-0.64978 1.5586-1.2793 0-0.59123-0.54278-0.79086-1.166-0.87305 0.52228-0.16882 0.88672-0.47873 0.88672-0.92773 0-0.53182-0.6629-0.69238-1.2969-0.74609v-0.001953l-0.57617-0.027344zm5.4336 0v3.9648l0.5918-0.10938c0.83944-0.20043 1.5605-0.64978 1.5605-1.2793 0-0.59123-0.54474-0.79086-1.168-0.87305 0.52228-0.16882 0.88867-0.47872 0.88867-0.92773 0-0.53182-0.6629-0.69238-1.2969-0.74609v-0.001953l-0.57617-0.027344zm6.5859 0v3.8887h2.0547v-0.44922h-1.4609v-1.1797h1.2344v-0.5918h-1.2344v-1.0742h1.4609v-0.59375h-2.0546zm-11.441 0.30664c0.77323 0.03966 0.81836 0.304 0.81836 0.46484 0 0.38177-0.35737 0.54834-0.8125 0.6543l-0.005859-1.1191zm5.4336 0c0.77323 0.03967 0.81836 0.304 0.81836 0.46484 0 0.38177-0.35933 0.54834-0.81445 0.6543l-0.003906-1.1191zm-5.4277 1.6191c0.89488 0.05964 0.92969 0.45042 0.92969 0.64844 0 0.52412-0.37974 0.74191-0.92383 0.87695l-0.00586-1.5254zm5.4316 0c0.89488 0.05964 0.93164 0.45042 0.93164 0.64844 0 0.52412-0.37974 0.74191-0.92383 0.87695l-0.007813-1.5254z" fill="#fff"/>
</svg>
