<svg id="Layer_2" data-name="Layer 2" xmlns="http://www.w3.org/2000/svg" viewBox="0 0 48 48"><defs><style>.cls-1{fill:none;stroke:#fff;stroke-linecap:round;stroke-linejoin:round;}</style></defs><line class="cls-1" x1="32.64" y1="25.14" x2="32.64" y2="18.6"/><path class="cls-1" d="M32.64,18.6h2.75A1.64,1.64,0,0,1,37,20.24h0a1.63,1.63,0,0,1-1.64,1.64H32.64"/><path class="cls-1" d="M32.64,21.88h2.75A1.64,1.64,0,0,1,37,23.52h0a1.63,1.63,0,0,1-1.64,1.64H32.64"/><line class="cls-1" x1="32.64" y1="8.81" x2="34.28" y2="15.36"/><line class="cls-1" x1="35.91" y1="8.81" x2="34.28" y2="15.36"/><line class="cls-1" x1="35.91" y1="8.81" x2="37.54" y2="15.36"/><line class="cls-1" x1="39.18" y1="8.81" x2="37.54" y2="15.36"/><line class="cls-1" x1="32.64" y1="28.41" x2="34.28" y2="34.96"/><line class="cls-1" x1="35.91" y1="28.41" x2="34.28" y2="34.96"/><line class="cls-1" x1="35.91" y1="28.41" x2="37.54" y2="34.96"/><line class="cls-1" x1="39.18" y1="28.41" x2="37.54" y2="34.96"/><path class="cls-1" d="M40.5,5.5H7.5a2,2,0,0,0-2,2v33a2,2,0,0,0,2,2h33a2,2,0,0,0,2-2V7.5A2,2,0,0,0,40.5,5.5Z"/><line class="cls-1" x1="8.82" y1="38.43" x2="39.18" y2="38.43"/></svg>