<?xml version="1.0" encoding="UTF-8"?>
<svg version="1.1" viewBox="0 0 48 48" xmlns="http://www.w3.org/2000/svg">
    <path d="m24 3a76.6 76.6 0 0 0 -15 1.5v27c0 5.26 6 9.74 15 13.5 9-4.5 15-8.25 15-13.5v-27a76 76 0 0 0 -15 -1.5zm0 9.8594c5.2549 0 9.8883 2.5712 12.83 6.4824l-2.8027 2.1016c-2.3207-3.0946-5.8463-5.2227-10.027-5.2227-4.1809 0-7.706 2.1283-10.027 5.2227l-2.8027-2.1035c2.9425-3.9099 7.5761-6.4805 12.83-6.4805zm0 5.6113c3.4202 0 6.3239 1.7635 8.2422 4.3125l-2.627 1.9707c-1.2972-1.7314-3.2696-2.9199-5.6152-2.9199s-4.318 1.1885-5.6152 2.9199l-2.627-1.9707c1.9182-2.549 4.822-4.3125 8.2422-4.3125zm0 5.5293a4.9635 4.9635 0 0 1 3.9668 1.9902l-3.9668 2.9746-3.9668-2.9746a4.9635 4.9635 0 0 1 3.9668 -1.9902z" fill="#fff"/>
</svg>
