<svg id="Layer_2" data-name="Layer 2" xmlns="http://www.w3.org/2000/svg" viewBox="0 0 48 48"><defs><style>.cls-1{fill:none;stroke:#fff;stroke-linecap:round;stroke-linejoin:round;}</style></defs><path class="cls-1" d="M14.8,23.51l3,3.65a9.74,9.74,0,0,1,12.42,0l3-3.65a14.44,14.44,0,0,0-18.45-.05Z"/><path class="cls-1" d="M24,27.05a7.61,7.61,0,1,0,7.61,7.61h0A7.61,7.61,0,0,0,24,27.05Z"/><path class="cls-1" d="M10,17.69l3,3.65a17.29,17.29,0,0,1,22,0l3-3.65A22,22,0,0,0,10,17.69Z"/><path class="cls-1" d="M24,5.73A29,29,0,0,0,5.48,12.42l3,3.63a24.21,24.21,0,0,1,31,0l3-3.65A29,29,0,0,0,24,5.73Z"/><line class="cls-1" x1="20.71" y1="38.87" x2="24.1" y2="30.43"/><line class="cls-1" x1="27.34" y1="38.9" x2="24.1" y2="30.43"/><line class="cls-1" x1="26.26" y1="36.06" x2="21.83" y2="36.06"/></svg>