<svg id="Layer_2" data-name="Layer 2" xmlns="http://www.w3.org/2000/svg" viewBox="0 0 48 48"><defs><style>.cls-1{fill:none;stroke:#fff;stroke-linecap:round;stroke-linejoin:round;}</style></defs><path class="cls-1" d="M12.8,5.5A30,30,0,0,1,42.21,29.69H38.28A26.16,26.16,0,0,0,12.81,9.33Zm0,7.66A22.32,22.32,0,0,1,34.34,29.69h-4A18.52,18.52,0,0,0,12.81,17Zm0,7.65a14.67,14.67,0,0,1,13.48,8.88H22a10.83,10.83,0,0,0-9.16-5.05Zm0,7.66a7,7,0,0,1,6.75,5.1H35.13V42.5H26.84V37.4H19.55a7,7,0,1,1-6.75-8.93Zm0,3.82A3.19,3.19,0,1,0,16,35.48,3.18,3.18,0,0,0,12.8,32.29Z"/></svg>