<?xml version="1.0" encoding="UTF-8"?>
<svg version="1.1" viewBox="0 0 48 48" xmlns="http://www.w3.org/2000/svg">
    <path d="m7 5c-1.108 0-2 0.892-2 2v34c0 1.108 0.892 2 2 2h34c1.108 0 2-0.892 2-2v-34c0-1.108-0.892-2-2-2h-34zm17 9.8965c5.9408 0 11.178 2.9065 14.504 7.3281l-3.168 2.375c-2.6235-3.4985-6.6092-5.9023-11.336-5.9023-4.7265 0-8.7117 2.4041-11.336 5.9023l-3.168-2.377c3.3265-4.4202 8.5643-7.3262 14.504-7.3262zm0 6.3438c3.8666 0 7.1498 1.9934 9.3184 4.875l-2.9707 2.2285c-1.4665-1.9574-3.6959-3.3008-6.3477-3.3008-2.6517 0-4.8811 1.3434-6.3477 3.3008l-2.9707-2.2285c2.1686-2.8816 5.4518-4.875 9.3184-4.875zm0 6.25a5.6113 5.6113 0 0 1 4.4844 2.25l-4.4844 3.3633-4.4844-3.3633a5.6113 5.6113 0 0 1 4.4844 -2.25z" fill="#fff"/>
</svg>
