<?xml version="1.0" encoding="UTF-8"?>
<svg viewBox="0 0 48 48" xmlns="http://www.w3.org/2000/svg">
    <path d="m36.816 8.7706h9.0926l0.09114 0.091138v0.86581c0 0.23848-0.12607 0.36-0.36455 0.36-1.1969 0.05468-2.0749 0.33721-2.6521 0.84303-0.57265 0.50886-1.0177 1.2076-1.3367 2.1205 0 0-7.4065 18.547-9.9401 24.714-0.96758 2.0202-1.92 1.838-2.7569-0.05468-1.1423-2.5792-3.2111-7.5569-4.8303-11.462-1.7256 3.9083-3.9539 8.9103-5.2222 11.48-1.1301 2.1524-2.0612 1.8714-2.8025 0.05468-2.5731-6.644-7.8531-18.308-10.34-24.856-0.45569-1.2-0.80505-1.9747-1.1316-2.2815-0.32962-0.30076-1.0101-0.48303-2.0506-0.54683-0.3843-0.041013-0.57265-0.14278-0.57265-0.30379v-0.91138l0.091138-0.0881c1.6937-0.01519 9.8824 0 9.8824 0l0.09418 0.091138v0.86581c0 0.23848-0.13671 0.3524-0.41468 0.3524l-1.0299 0.05013c-0.881 0.03949-1.3276 0.32962-1.3276 0.86581 0 0.25215 0.091138 0.6562 0.30076 1.2 1.9792 5.286 8.8191 21.068 8.8191 21.068l0.24759 0.07291 4.4126-9.6303-0.88404-2.1357-3.0303-6.5209s-0.58632-1.3018-0.78531-1.7347c-1.3306-2.886-1.3018-3.041-2.6476-3.2384-0.37974-0.05316-0.57113-0.10633-0.57113-0.31139v-0.91746l0.1124-0.091138h7.8455l0.20658 0.071392v0.91138c0 0.20658-0.13367 0.31291-0.41316 0.31291l-0.5681 0.09114c-1.4369 0.11848-1.2 0.76252-0.24759 2.8496l2.9058 6.5103 3.2172-7.0283c0.54227-1.2881 0.43442-1.6101 0.20962-1.9078-0.12608-0.16709-0.55442-0.43594-1.4856-0.47696l-0.36455-0.03949c-0.09764-0.0011-0.19178-0.03658-0.26582-0.10025-0.08222-0.05986-0.12945-0.15657-0.12608-0.25822v-0.86582l0.11544-0.0881c2.2724-0.018228 7.3898 0 7.3898 0l0.09114 0.094176v0.86581c0 0.24-0.12152 0.35696-0.36455 0.35696-1.1909 0.06076-1.4354 0.19291-1.8714 0.881-0.41929 0.68224-0.81745 1.3772-1.1939 2.084l-4.1802 8.5564-0.12152 0.26582 5.1144 11.453 0.30835 0.0881 8.0445-20.906c0.27949-0.84151 0.23696-1.4354-0.12152-1.7863-0.36152-0.34177-0.61366-0.54683-1.5524-0.58936l-0.75189-0.04557c-0.09887-0.0027-0.19356-0.04047-0.26734-0.10633-0.07999-0.05831-0.12694-0.15164-0.12607-0.25063v-0.87796l0.11544-0.091138z" fill="#fff"/>
</svg>
