<?xml version="1.0" encoding="utf-8"?>
<!-- Generator: Adobe Illustrator 25.1.0, SVG Export Plug-In . SVG Version: 6.00 Build 0)  -->
<svg version="1.1"
	 id="svg8" inkscape:version="1.0.1 (3bc2e813f5, 2020-09-07)" sodipodi:docname="template.svg" xmlns:cc="http://creativecommons.org/ns#" xmlns:dc="http://purl.org/dc/elements/1.1/" xmlns:inkscape="http://www.inkscape.org/namespaces/inkscape" xmlns:rdf="http://www.w3.org/1999/02/22-rdf-syntax-ns#" xmlns:sodipodi="http://sodipodi.sourceforge.net/DTD/sodipodi-0.dtd" xmlns:svg="http://www.w3.org/2000/svg"
	 xmlns="http://www.w3.org/2000/svg" xmlns:xlink="http://www.w3.org/1999/xlink" x="0px" y="0px" viewBox="0 0 48 48"
	 style="enable-background:new 0 0 48 48;" xml:space="preserve">
<style type="text/css">
	.st0{fill:none;stroke:#FFFFFF;stroke-linecap:round;stroke-linejoin:round;}
	.st1{fill:none;stroke:#FFFFFF;stroke-linecap:round;stroke-linejoin:round;stroke-dasharray:1,2;}
</style>
<sodipodi:namedview  bordercolor="#666666" borderopacity="1" gridtolerance="10" guidetolerance="10" id="namedview10" inkscape:current-layer="svg8" inkscape:cx="21.168204" inkscape:cy="24.043217" inkscape:document-rotation="0" inkscape:guide-bbox="true" inkscape:pageopacity="0" inkscape:pageshadow="2" inkscape:window-height="2098" inkscape:window-maximized="1" inkscape:window-width="3840" inkscape:window-x="0" inkscape:window-y="25" inkscape:zoom="1.6491" objecttolerance="10" pagecolor="#595959" showgrid="false" showguides="true">
	</sodipodi:namedview>
<g>
	<path id="path7682" sodipodi:nodetypes="ccccccccccccccccc" class="st0" d="M23.4,35.7l1.2-5.2c-4.8,1.6-8.6,0.4-12.3-1.3
		c1.6-0.7,3.8-0.9,6.1-1c-1.8-1-3.7-2-5-3.1c0.1-1.1,0.2-3.6-0.5-6.4c3,0.9,5.9,1.7,9,3.6c-0.2-1.9-0.3-3.9-0.9-5.6l2.2,0.6
		c0.8-1.8,1.5-3.2,2.3-4.6c0.8,1.7,1.3,3.4,1.6,5.2l2.3-0.9c-0.3,1.6-0.5,3.4-0.8,5.2l8.7-2.9c-0.3,3.3-0.7,6.6-4.4,9.2
		c1.9,0.2,3.4,0.6,4.7,1c-3.5,1.8-8,1.6-12.7,1"/>
	<circle id="path7684" class="st0" cx="24" cy="24" r="21.5"/>
	<circle id="path7684-6" class="st0" cx="24" cy="24" r="18.1"/>
	<path id="path7701" class="st0" d="M24.6,24.9l-8.4-14"/>
	
		<path id="path7684-6-8" sodipodi:arc-type="arc" sodipodi:cx="23.960999" sodipodi:cy="23.669788" sodipodi:end="5.6700884" sodipodi:open="true" sodipodi:rx="13.238823" sodipodi:ry="13.238823" sodipodi:start="4.1762115" sodipodi:type="arc" class="st1" d="
		M16.2,10.9c6.9-4.1,15.7-2.2,20.3,4.3"/>
</g>
</svg>
