<?xml version="1.0" encoding="UTF-8"?>
<svg version="1.1" viewBox="0 0 48 48" xmlns="http://www.w3.org/2000/svg">
    <path d="m29.196 20.082a2.2008 2.2008 0 0 0-0.08708-0.22799 4.2448 4.2448 0 0 0-0.34199-0.69664 4.419 4.419 0 0 0-0.87081-0.98164 4.81 4.81 0 0 0-1.1875-0.70774 5.2248 5.2248 0 0 0-1.4091-0.34673 5.6492 5.6492 0 0 0-1.5231 0.0713 5.8423 5.8423 0 0 0-1.5057 0.51299 6.0957 6.0957 0 0 0-1.3569 0.94839 6.2571 6.2571 0 0 0-1.0782 1.3363 6.4582 6.4582 0 0 0-0.89297 3.4864c0.02216 0.64914 0.13775 1.3062 0.33249 1.9015 0.20899 0.64439 0.51457 1.2714 0.88031 1.816 0.39582 0.58582 0.88347 1.1321 1.406 1.5754 0.56365 0.47973 1.2065 0.89297 1.8572 1.1954a8.8997 8.8997 0 0 0 4.5868 0.79482 9.5868 9.5868 0 0 0 4.6628-1.7226 9.9462 9.9462 0 0 0 1.9094-1.7764 10.054 10.054 0 0 0 1.4012-2.2736 10.204 10.204 0 0 0 0.77264-5.4465 10.659 10.659 0 0 0-0.76631-2.7977 11.165 11.165 0 0 0-1.539-2.5728 11.732 11.732 0 0 0-2.2404-2.1469 12.293 12.293 0 0 0-2.8135-1.5405 12.799 12.799 0 0 0-3.2141-0.78847 13.236 13.236 0 0 0-3.3961 0.0602 13.585 13.585 0 0 0-8.8981 5.3357 13.659 13.659 0 0 0-1.7701 3.203 13.8 13.8 0 0 0-0.86764 3.621 14.098 14.098 0 0 0 0.13775 3.7983c0.22641 1.2935 0.62382 2.5412 1.1764 3.7096a15.029 15.029 0 0 0 2.177 3.3518 15.66 15.66 0 0 0 3.0637 2.7391c1.1748 0.80114 2.443 1.4408 3.7666 1.9063a16.894 16.894 0 0 0 4.229 0.90248c1.4883 0.12033 2.9718 0.0507 4.411-0.20583a17.473 17.473 0 0 0 8.1302-3.7666 17.483 17.483 0 0 0 5.2739-7.5048c0.53832-1.501 0.87081-3.0526 0.98955-4.6105a17.772 17.772 0 0 0-0.28341-4.7847 18.227 18.227 0 0 0-1.5785-4.6264 18.873 18.873 0 0 0-2.8088-4.1371 19.569 19.569 0 0 0-3.8806-3.3376 20.325 20.325 0 0 0-4.7166-2.2815 20.926 20.926 0 0 0-5.247-1.0228 21.428 21.428 0 0 0-19.047 9.2876 21.227 21.227 0 0 0-3.6526 10.649c-0.11716 1.9474 0.02533 3.8886 0.42432 5.7727 0.41166 1.9364 1.0766 3.8031 1.9775 5.5447a22.736 22.736 0 0 0 3.4373 4.924c1.3933 1.5168 2.9734 2.842 4.6992 3.9408a24.321 24.321 0 0 0 5.665 2.6536 24.986 24.986 0 0 0 7.6156 1.1843 25.469 25.469 0 0 0 16.726-6.2825l-2.6251-2.8325a21.417 21.417 0 0 1-9.8259 4.8686 21.327 21.327 0 0 1-5.4148 0.40374 20.941 20.941 0 0 1-5.2565-0.96581 20.342 20.342 0 0 1-4.7388-2.2213 19.604 19.604 0 0 1-3.9202-3.2885 18.885 18.885 0 0 1-2.861-4.0991c-0.74573-1.444-1.2983-2.9924-1.6387-4.601a17.787 17.787 0 0 1-0.3499-4.7752 17.462 17.462 0 0 1 14.131-16.08 17.274 17.274 0 0 1 4.4-0.27867c1.4297 0.0918 2.8547 0.3705 4.2369 0.82807 1.33 0.44015 2.6077 1.0592 3.7967 1.8366a15.694 15.694 0 0 1 3.1096 2.6758 15.06 15.06 0 0 1 2.2404 3.3027c0.5779 1.1526 1.0006 2.3908 1.254 3.6764 0.24541 1.235 0.31982 2.5064 0.22166 3.7856a13.68 13.68 0 0 1-4.9019 9.4966 13.577 13.577 0 0 1-6.2856 2.9132 13.236 13.236 0 0 1-3.3819 0.15674 12.874 12.874 0 0 1-3.2236-0.68872 12.364 12.364 0 0 1-2.8499-1.444 11.792 11.792 0 0 1-2.3037-2.063 11.165 11.165 0 0 1-1.6245-2.5048 10.716 10.716 0 0 1-0.87081-2.7502 10.334 10.334 0 0 1-0.10133-2.7945 9.9114 9.9114 0 0 1 1.9158-4.9573 9.7388 9.7388 0 0 1 3.963-3.1317 9.4997 9.4997 0 0 1 2.3512-0.66499 8.9646 8.9646 0 0 1 4.5678 0.50349c0.66023 0.2549 1.3205 0.61748 1.9094 1.0481 0.54465 0.39582 1.064 0.89456 1.4994 1.4376 0.40215 0.50191 0.75206 1.0909 1.0133 1.702 0.24224 0.56048 0.41324 1.1906 0.49874 1.8208a6.6498 6.6498 0 0 1-0.01425 1.7986 6.2096 6.2096 0 0 1-1.3426 3.0542 5.8107 5.8107 0 0 1-2.4842 1.767c-0.4259 0.15833-0.90564 0.26441-1.387 0.30715a5.1773 5.1773 0 0 1-1.3363-0.0586 4.8559 4.8559 0 0 1-1.1906-0.37682 4.449 4.449 0 0 1-0.97214-0.62857 3.9978 3.9978 0 0 1-0.70615-0.7964 3.3043 3.3043 0 0 1-0.57157-1.7495 2.9687 2.9687 0 0 1 0.09024-0.7964c0.05383-0.20899 0.15833-0.45598 0.28024-0.66339a2.4383 2.4383 0 0 1 0.40374-0.49399c0.11716-0.11083 0.29607-0.23275 0.45915-0.31665a1.8683 1.8683 0 0 1 0.39266-0.13617c0.09024 1.216 1.1305 2.177 2.4034 2.177 1.3315 0 2.4129-1.0513 2.4129-2.3464 0-0.2375-0.038-0.46865-0.10608-0.68399l-0.0016-9e-3" fill="#fff" stroke-width="1.5833"/>
</svg>
