<?xml version="1.0" encoding="UTF-8"?>
<svg version="1.1" viewBox="0 0 48 48" xmlns="http://www.w3.org/2000/svg">
    <path d="m37 11.146c-3.1844-3.1778-7.3285-5.046-11.777-5.3363 0.0046-0.04129 0.0064-0.083217 0.0064-0.12559v-1.4539c-4e-6 -0.67955-0.55093-1.2305-1.2305-1.2305-0.67955 0-1.2305 0.55093-1.2305 1.2305v1.454c0 0.042383 0.0018 0.08422 0.0064 0.12559-4.4264 0.28916-8.5547 2.142-11.733 5.2927-3.4672 3.4371-5.4019 8.0174-5.4477 12.897-0.00365 0.35971 0.15077 0.70285 0.42205 0.93918 0.27128 0.23634 0.63214 0.34207 0.98808 0.28957 0.65519-0.09672 1.3196-0.14577 1.9747-0.14577 2.4023 0 4.7841 0.65142 6.8879 1.8839 0.19212 0.11255 0.40704 0.16882 0.62205 0.16882 0.21492 0 0.42993-0.05623 0.62197-0.16874 1.7437-1.0215 3.6785-1.6424 5.6576-1.8256v16.167c0 2.0355 1.656 3.6914 3.6914 3.6914h0.01039c2.0355 0 3.6914-1.656 3.6914-3.6914v-1.3119c0-0.67955-0.55093-1.2305-1.2305-1.2305s-1.2305 0.55093-1.2305 1.2305v1.3119c0 0.67849-0.55199 1.2305-1.2305 1.2305h-0.01039c-0.67849 0-1.2305-0.55199-1.2305-1.2305v-16.17c1.8612 0.16743 3.6482 0.71655 5.3268 1.6399 0.36931 0.20319 0.81696 0.20319 1.1863-8.2e-5 2.0446-1.1251 4.2505-1.6955 6.5564-1.6955 0.88283 0 1.7695 0.08741 2.6356 0.2598 0.36201 0.0721 0.73698-0.02206 1.0219-0.25643 0.28498-0.23428 0.4497-0.58423 0.44888-0.95313-0.01112-4.9077-1.9306-9.5199-5.4049-12.987zm-9.0995 1.3554c1.2435 2.9981 1.9464 6.9775 1.9905 11.246-1.8763-0.74756-3.8503-1.1255-5.8915-1.1255-2.014 0-4.0137 0.38809-5.8916 1.1313 0.04357-4.2706 0.74649-8.2521 1.9906-11.252 1.1094-2.6747 2.5677-4.2717 3.9009-4.2718h5.74e-4c1.3331 3.282e-4 2.7912 1.5972 3.9006 4.2718zm-19.773 10.143c0.61762-6.4194 5.0826-11.751 11.036-13.661-0.48522 0.7396-0.93402 1.5992-1.3385 2.5745-1.3969 3.3679-2.17 7.8123-2.1801 12.524-2.0976-0.95863-4.373-1.4605-6.6663-1.4605-0.28285 0-0.56701 0.0073-0.85149 0.02306zm30.171-0.02306c-2.0616 0-4.054 0.38604-5.9465 1.1481-0.04284-4.5952-0.81253-8.9179-2.1785-12.211-0.40532-0.97733-0.85518-1.8384-1.3416-2.5791 5.9831 1.9097 10.449 7.2654 11.044 13.721-0.52459-0.05222-1.0517-0.07847-1.5776-0.07847z" fill="#fff" stroke-width=".91147"/>
</svg>
