<svg width="25" height="29" viewBox="0 0 25 29" fill="none" xmlns="http://www.w3.org/2000/svg">
<path d="M5.67273 1.00002H14.0625C16.956 1.00002 19.2127 1.60922 20.4587 3.03512C21.5939 4.32962 21.9331 5.76252 21.6009 7.88072C22.0531 8.10612 22.461 8.41092 22.8054 8.78062C23.8645 9.99892 24.0722 11.7295 23.6707 13.8062C22.7016 18.7764 19.3927 20.5 15.1633 20.5H14.4988C13.9733 20.5063 13.533 20.8993 13.4674 21.4207L13.4189 21.7045L12.5952 26.8893L12.5537 27.1108C12.4721 27.621 12.0321 27.9965 11.5154 27.9968H7.14753C6.61023 28.0401 6.13953 27.6396 6.09633 27.1023C6.09243 27.0545 6.09213 27.0064 6.09533 26.9585C6.67683 23.2482 7.23753 19.7663 7.81893 16.0629C8.15903 16.0001 8.50633 15.9861 8.85033 16.0214H11.7853C16.6309 16.0214 20.4104 14.0624 21.518 8.40693L21.6011 7.91542C21.3221 7.74562 21.0305 7.59752 20.7289 7.47242L20.4797 7.39632L19.9536 7.26482C19.7736 7.22332 19.5936 7.18872 19.3998 7.16102C18.6831 7.04882 17.9585 6.99562 17.2331 7.00182H10.1447C9.98643 6.99992 9.82983 7.03552 9.68783 7.10562C9.37763 7.25542 9.16043 7.54763 9.10633 7.88783C8.21563 13.5733 7.31813 19.2518 6.41353 24.9235V24.9996H1.70623C1.32403 25.0073 1.00783 24.7038 1.00013 24.3215C0.999134 24.2703 1.00373 24.2191 1.01403 24.1689L4.47513 2.01762C4.56763 1.42882 5.07683 0.996225 5.67273 1.00002Z" stroke="#EEEDEE" stroke-width="1.5" stroke-linecap="round" stroke-linejoin="round"/>
</svg>
