<svg width="28" height="30" viewBox="0 0 28 30" fill="none" xmlns="http://www.w3.org/2000/svg">
<path d="M13.178 14.8204L1.07739 26.6018C1.46433 27.9151 2.69954 28.9197 4.16766 28.9197C4.78527 28.9197 5.32624 28.7649 5.78981 28.4561L19.3102 20.8074L13.178 14.8204Z" stroke="#eee" stroke-width="1.5" stroke-linecap="round" stroke-linejoin="round"/>
<path d="M13.178 14.8203L19.2328 8.6785L25.0264 12.0002C26.031 12.5411 26.7267 13.6223 26.8041 14.7816C26.8041 15.941 26.1091 17.0221 25.1046 17.5631L19.3095 20.8074L13.178 14.8203ZM13.178 14.8203L1.07739 26.6791C1 26.3703 1 26.1382 1 25.8294V3.81131C1 3.50251 1 3.19296 1.07739 2.96155L13.178 14.8203Z" stroke="#eee" stroke-width="1.5" stroke-linecap="round" stroke-linejoin="round"/>
<path d="M13.178 14.8203L19.2328 8.67851L5.8672 1.10725C5.40437 0.79845 4.78676 0.643677 4.16766 0.643677C2.69954 0.643677 1.3862 1.64822 1.07739 2.96156L13.178 14.8203Z" stroke="#eee" stroke-width="1.5" stroke-linecap="round" stroke-linejoin="round"/>
</svg>
