<svg width="48" height="48" fill="none" version="1.1" viewBox="0 0 48 48" xmlns="http://www.w3.org/2000/svg">
 <g transform="translate(-.055043 1.0414)">
  <g fill="none" stroke="#000" stroke-linecap="round" stroke-linejoin="round">
   <g>
    <path d="m0.69833 39.982v-34.066h11.675l11.68 11.363 11.682-11.363h11.68v34.088h-11.68v-11.363l-11.682 11.363-11.688-11.37v11.35z"/>
    <path d="m24.052 40.004v-11.363h11.682z"/>
    <path d="m24.052 40.004v-11.363h-11.68z"/>
    <path d="m24.052 17.278h-11.68v11.363h11.68z"/>
    <path d="m35.735 22.961h-5.8412v5.6826h5.8412z"/>
    <path d="m24.052 17.278h-11.68v-11.363z"/>
    <path d="m24.052 17.278h11.682v-11.363z"/>
    <path d="m12.373 17.278h-11.68v2.84h11.68z" display="none"/>
    <path d="m12.373 22.961h-11.68v2.8401h11.68z" display="none"/>
   </g>
   <path d="m12.38 21.539h-11.682v2.84h11.682z" stroke-width="1.0001"/>
   <g>
    <path d="m35.735 28.641v11.363h11.68v-11.363zm5.8309 8.8396c-0.64184 0-1.2692-0.18517-1.8029-0.53209-0.53363-0.34684-0.94956-0.83989-1.1952-1.4168-0.24567-0.57688-0.30991-1.2117-0.18468-1.824 0.12523-0.61244 0.43424-1.1749 0.88808-1.6164s1.0321-0.7422 1.6616-0.86403c0.62953-0.12182 1.282-0.05929 1.875 0.17966 0.59292 0.23895 1.0997 0.64363 1.4563 1.1628 0.35664 0.51921 0.54691 1.1295 0.54691 1.754-6.48e-4 0.83705-0.34279 1.6397-0.95118 2.2316-0.60847 0.59195-1.4335 0.92478-2.2939 0.92542z"/>
    <path d="m29.894 22.961v-5.6826h-5.8412v5.6826z"/>
    <path d="m0.69274 17.278h11.68v-11.365h-11.68z"/>
    <path d="m0.69274 5.917h11.68v11.363z"/>
    <path d="m12.38 39.984v-11.365h-11.682v11.365z"/>
    <path d="m6.5391 39.981v-11.363h-5.8412v11.363z" display="none"/>
    <path d="m35.735 28.641h11.682v-11.365h-11.682z"/>
    <path d="m35.732 22.961h11.68v-5.6826h-11.68z"/>
    <path d="m45.147 5.9157-9.4121 9.159v2.2037h2.3806l9.2993-9.0442v-2.3185z"/>
    <path d="m35.735 5.9157v4.5221l4.6483-4.5221z" display="none"/>
    <path d="m47.415 17.278v-4.5221l-4.6483 4.5221z" display="none"/>
   </g>
  </g>
 </g>
 <script/>
</svg>
