<?xml version="1.0" encoding="UTF-8" standalone="no"?>
<svg
   id="a"
   viewBox="0 0 2110.9065 1972.1901"
   version="1.1"
   width="2110.9065"
   height="1972.1901"
   xmlns="http://www.w3.org/2000/svg"
   xmlns:svg="http://www.w3.org/2000/svg">
  <defs
     id="defs1">
    <style
       id="style1">.b{fill:none;stroke:#000;stroke-linecap:round;stroke-linejoin:round;}</style>
  </defs>
  <g
     id="g4"
     style="fill:none;stroke:#ffffff;stroke-opacity:1"
     transform="translate(-91.199997,-168.00006)">
    <path
       class="b"
       d="m 18.653982,28.912046 c -1.0818,0.0079 -1.9652,-0.8627 -1.9731,-1.9445 -0.0079,-1.0818 0.8627,-1.9652 1.9445,-1.9731 1.0818,-0.0079 1.9652,0.8627 1.9731,1.9445 2e-4,0.0313 -3e-4,0.0626 -0.0016,0.0939 -0.0344,1.0481 -0.8943,1.8798 -1.9429,1.8792 z"
       id="path1"
       style="fill:none;stroke:#ffffff;stroke-opacity:1" />
    <path
       class="b"
       d="m 29.992982,28.912046 c -1.0818,0.0079 -1.9652,-0.8627 -1.9731,-1.9445 -0.0079,-1.0818 0.8627,-1.9652 1.9445,-1.9731 1.0818,-0.0079 1.9652,0.8627 1.9731,1.9445 2e-4,0.0313 -3e-4,0.0626 -0.0016,0.0939 -0.0344,1.0481 -0.8943,1.8798 -1.9429,1.8792 z"
       id="path2"
       style="fill:none;stroke:#ffffff;stroke-opacity:1" />
    <path
       class="b"
       d="m 24.291682,16.920146 v 0 c 7.6696,0 13.887,6.2174 13.887,13.887 v 0 c 0,1.0906 -0.8841,1.9748 -1.9748,1.9748 h -23.8882 c -1.0906,0 -1.9748,-0.8841 -1.9748,-1.9748 v 0 c 0,-7.6696 6.2173,-13.8871 13.8869,-13.8872 0.0213,0 0.0426,0 0.0638,10e-5 z"
       id="path3"
       style="fill:none;stroke:#ffffff;stroke-opacity:1" />
    <line
       class="b"
       x1="12.315681"
       y1="14.849846"
       x2="16.265182"
       y2="19.484146"
       id="line3"
       style="fill:none;stroke:#ffffff;stroke-opacity:1" />
    <line
       class="b"
       x1="36.29948"
       y1="14.849846"
       x2="32.365879"
       y2="19.484146"
       id="line4"
       style="fill:none;stroke:#ffffff;stroke-opacity:1" />
  </g>
  <path
     style="fill:none;stroke:#ffffff;stroke-linecap:round;stroke-opacity:1"
     id="path9"
     d="m -63.918518,-134.7735 a 20,20 0 0 1 -17.58549,19.85372 20,20 0 0 1 -21.831522,-15.06002"
     transform="rotate(6.9287691)" />
  <path
     style="fill:none;stroke:#ffffff;stroke-linecap:round;stroke-linejoin:round;stroke-opacity:1"
     d="m -88.799997,-137.99139 1.828851,-3.84067 3.230235,2.71373"
     id="path10" />
  <path
     style="fill:none;stroke:#ffffff;stroke-linecap:round;stroke-opacity:1"
     id="path9-2"
     d="M 97.40741,138.80487 A 20,20 0 0 1 79.821919,158.65859 20,20 0 0 1 57.990395,143.59857"
     transform="rotate(-175.88663)" />
  <path
     style="fill:none;stroke:#ffffff;stroke-linecap:round;stroke-linejoin:round;stroke-opacity:1"
     d="m -45.822778,-151.12382 -1.637996,3.92586 -3.359631,-2.55179"
     id="path10-9" />
</svg>
