<svg xmlns="http://www.w3.org/2000/svg" viewBox="0 0 48 48">
  <defs>
    <style>
      .a {
        fill: #000;
      }

      .b, .c {
        fill: none;
      }

      .b {
        stroke: #000;
        stroke-linecap: round;
        stroke-linejoin: round;
      }
    </style>
  </defs>
  <g>
    <g>
      <path class="a" d="M40.06,15.21V36.79a4,4,0,0,1-4,4H12.43a4.49,4.49,0,0,1-4.49-4.48V15.21H40.06m.51-1H7.43a.48.48,0,0,0-.49.48V36.31a5.48,5.48,0,0,0,5.49,5.48H36.06a5,5,0,0,0,5-5V14.69a.48.48,0,0,0-.49-.48Z"/>
      <g>
        <g>
          <polyline class="b" points="19.33 28.76 19.33 36.4 28.67 36.4"/>
          <line class="b" x1="19.33" y1="28.76" x2="15.99" y2="28.76"/>
        </g>
        <g>
          <line class="b" x1="32.01" y1="28.76" x2="28.67" y2="28.76"/>
          <line class="b" x1="28.67" y1="28.76" x2="28.67" y2="36.39"/>
        </g>
        <line class="b" x1="16" y1="28.76" x2="24" y2="19.61"/>
        <line class="b" x1="32.01" y1="28.76" x2="24" y2="19.61"/>
      </g>
    </g>
    <polyline class="b" points="6 8.98 15.5 8.98 16.97 7.28 31.03 7.28 32.48 8.89 42 8.98 42 12.21 6 12.21 6 8.98"/>
    <rect class="c" width="48" height="48"/>
  </g>
</svg>
