<svg xmlns="http://www.w3.org/2000/svg" viewBox="0 0 48 48">
  <defs>
    <style>
      .a, .b {
        fill: none;
      }

      .a {
        stroke: #000;
        stroke-linecap: round;
        stroke-linejoin: round;
      }
    </style>
  </defs>
  <g>
    <g>
      <path class="a" d="M20.67,4.16c.71-.06,1.68-.43,2.2.22s0,1.36-.67,1.38a19.59,19.59,0,0,0-7.94,2.71c-.56.44-1.59.64-2-.07-.34-.42,0-1,.4-1.18A21.16,21.16,0,0,1,20.67,4.16Z"/>
      <path class="a" d="M25.9,4.16a2.21,2.21,0,0,1,1.25-.06,20.91,20.91,0,0,1,8.41,3.17.85.85,0,0,1-.22,1.55,1.86,1.86,0,0,1-1.58-.41A17.89,17.89,0,0,0,27,5.94c-.54-.13-1.29-.09-1.55-.66C25.18,4.89,25.5,4.35,25.9,4.16Z"/>
      <path class="a" d="M21.22,7.54a17.88,17.88,0,0,1,9,.86.89.89,0,0,1-.26,1.69,18.5,18.5,0,0,1-3-.7,16,16,0,0,0-9.15,1.08A14.71,14.71,0,0,0,10.41,18c-.24.47-.32,1.14-.92,1.33s-1.78-.32-1.42-1.09A16.52,16.52,0,0,1,21.22,7.54Z"/>
      <path class="a" d="M33.07,10.35c.7-.25,1.27.33,1.77.7A16.4,16.4,0,0,1,40,18.3c.29.75-.77,1.35-1.45,1s-.68-.82-.92-1.28a14.73,14.73,0,0,0-4.77-6.12A.85.85,0,0,1,33.07,10.35Z"/>
      <path class="a" d="M22.55,10.83a12.76,12.76,0,0,1,9.72,2.94A13.74,13.74,0,0,1,37,23c.15.77-.82,1.25-1.51,1.06s-.63-1.07-.78-1.65a11.55,11.55,0,0,0-5.28-8.3,10.41,10.41,0,0,0-8.81-.94A11.4,11.4,0,0,0,14,19.67a15.82,15.82,0,0,0-.62,8.49c0,.39.22.88-.13,1.19a1.13,1.13,0,0,1-1.94-.42c-.73-3.9-.6-8.15,1.48-11.7A12.76,12.76,0,0,1,22.55,10.83Z"/>
      <path class="a" d="M20.67,14.83a2.07,2.07,0,0,1,1.78-.17.79.79,0,0,1,.18,1.39,15,15,0,0,0-2.52,1.3A8.65,8.65,0,0,0,17,23a16.35,16.35,0,0,0,1.81,9.46A50.22,50.22,0,0,1,22.88,43c.24,1.05-1.64,1.43-2,.46-.59-1.64-1-3.33-1.68-4.94-1.31-3.62-3.59-6.92-4.27-10.73a13.52,13.52,0,0,1,.78-8.07A9.27,9.27,0,0,1,20.67,14.83Z"/>
      <path class="a" d="M25.82,14.7a2.34,2.34,0,0,1,1.82.28,9.69,9.69,0,0,1,5,5.67A12.18,12.18,0,0,1,32,30.08,10.58,10.58,0,0,1,22,35.6a.87.87,0,0,1-.43-1.24c.27-.51,1-.43,1.46-.52a8.35,8.35,0,0,0,5.53-2.52A10.09,10.09,0,0,0,29,18.39a7.34,7.34,0,0,0-3.18-2.16A.82.82,0,0,1,25.82,14.7Z"/>
      <path class="a" d="M22.33,17.94a4,4,0,0,1,3.19,0,5.85,5.85,0,0,1,2.84,3.27,9.34,9.34,0,0,1-.44,7.62,4.85,4.85,0,0,1-3.77,2.66,4.37,4.37,0,0,1-3.82-1.91,9.08,9.08,0,0,1-1.23-7.49,6.21,6.21,0,0,1,3.23-4.2m.79,1.72a4.88,4.88,0,0,0-2,3.28,7.32,7.32,0,0,0,1.15,5.88,1.84,1.84,0,0,0,2.38.69,5.3,5.3,0,0,0,2-3.71,7.08,7.08,0,0,0-1.34-5.55A1.77,1.77,0,0,0,23.12,19.66Z"/>
      <path class="a" d="M23.68,21.74c.65-.17,1,.52,1.21,1a5.29,5.29,0,0,1-.2,4.13c-.21.45-.83.88-1.29.44a4.4,4.4,0,0,1-.81-3.53A2.55,2.55,0,0,1,23.68,21.74Z"/>
      <path class="a" d="M35.24,26.13c.7-.41,1.83.15,1.61,1a15.05,15.05,0,0,1-5.35,9.56,11.63,11.63,0,0,1-7.63,2.59.86.86,0,0,1-.24-1.67,15,15,0,0,0,3.71-.71,12.18,12.18,0,0,0,7.15-9C34.69,27.31,34.59,26.49,35.24,26.13Z"/>
      <path class="a" d="M13.15,31.58a1.11,1.11,0,0,1,1.38.67c.46,1.07,1,2.11,1.44,3.19S14.5,37,14,36.1a23.21,23.21,0,0,1-1.54-3.27A.89.89,0,0,1,13.15,31.58Z"/>
    </g>
    <rect class="b" width="48" height="48"/>
  </g>
</svg>
