<svg width="48" height="48" viewBox="0 0 48 48" fill="none" xmlns="http://www.w3.org/2000/svg">
    <path
        d="M23.5186 16H28.277C30.9673 16 33.1482 18.3214 33.1482 21.185C33.1482 24.0485 30.9673 26.37 28.277 26.37H23.5186M37 16H21.5927M37 21.185H21.5927M28.5624 26.3702L33.6061 31.4351M18.1987 30.0522C17.5352 31.2157 16.2849 32 14.8518 32C12.7245 32 11 30.272 11 28.1403V25.6314C11 23.4997 12.7245 21.7717 14.8518 21.7717C16.9792 21.7717 18.7037 23.4997 18.7037 25.6314V26.8858H11"
        stroke="white" stroke-linecap="round" stroke-linejoin="round" />
    <rect x="6.5" y="6.5" width="35" height="35" rx="9.5" stroke="white" />
</svg>