<svg xmlns="http://www.w3.org/2000/svg" viewBox="0 0 48 48">
  <defs>
    <style>
      .a, .b {
        fill: none;
      }

      .b {
        stroke: #000;
        stroke-miterlimit: 10;
      }
    </style>
  </defs>
  <g>
    <rect class="a" width="48" height="48"/>
    <g>
      <path class="b" d="M29.84,6.47a1.77,1.77,0,0,1,2.94-.33c1.92,2.34,3.78,4.73,5.68,7.09.34-1.55-.16-3.7,1.36-4.68A1.85,1.85,0,0,1,42.5,10.2c-.21,2.47-.64,4.93-.83,7.41,0,1.06-.82,2.29-2,2.11-2.48-.34-5-.62-7.45-1A1.91,1.91,0,0,1,31,15.62c1.18-1.26,3-.27,4.43-.27C33.67,13.26,32,11.1,30.32,9A2.13,2.13,0,0,1,29.84,6.47Z"/>
      <path class="b" d="M9.58,7.26a1.8,1.8,0,0,1,3.24.54c.31,1.57-1,2.79-1.63,4.12,2.8-.77,5.58-1.57,8.38-2.31a1.86,1.86,0,0,1,2.19,2.32c-.16.91-1.07,1.32-1.85,1.51-2.6.71-5.19,1.46-7.79,2.14,1.11.76,2.58,1.16,3.36,2.34a1.87,1.87,0,0,1-2.21,2.64c-2.3-1.2-4.48-2.65-6.77-3.88a2,2,0,0,1-.71-2.74C7.1,11.74,8.26,9.45,9.58,7.26Z"/>
      <path class="b" d="M8.58,29.33c2.52-.73,5.08-1.3,7.6-2a1.86,1.86,0,0,1,2.28,1.43c.52,2.57,1.27,5.08,1.79,7.65a1.84,1.84,0,0,1-3,1.76c-.91-1.11-.86-2.72-1.3-4.05-1.26,2.31-2.6,4.57-3.88,6.87a2.8,2.8,0,0,1-1.62,1.46A1.86,1.86,0,0,1,8.36,41,3,3,0,0,1,9,38.82c1.31-2.23,2.54-4.5,3.86-6.72-1.37.27-2.73,1-4.14.8A1.92,1.92,0,0,1,8.58,29.33Z"/>
      <path class="b" d="M39,30.1a2,2,0,0,1,2.45-.7,1.89,1.89,0,0,1,.52,3c-2,2.11-4.06,4.23-6.14,6.29,1.34.11,2.85-.36,4.07.33A1.89,1.89,0,0,1,39,42.44c-2.51.08-5,0-7.55.06a1.94,1.94,0,0,1-1.93-2.22c.1-2.49,0-5,.07-7.47a1.83,1.83,0,0,1,3.12-1.14c1,1.19.47,2.89.58,4.31C35.15,34,37.08,32.06,39,30.1Z"/>
    </g>
  </g>
</svg>
