<svg width="48" height="48" viewBox="0 0 48 48" fill="none" xmlns="http://www.w3.org/2000/svg">
<path d="M13.8206 7.92923C19.0802 7.27926 24.3433 6.67221 29.6063 6.03757C30.9698 5.79843 32.4219 6.73047 32.5412 7.99055C32.623 9.48058 32.5583 10.9767 32.5685 12.4698C34.7603 12.2338 36.9419 11.9456 39.1303 11.6942C40.6096 11.5194 42.0004 12.7182 41.9288 14.0488C41.9833 18.5403 41.9288 23.0349 41.9561 27.5265C42.2322 29.041 41.1891 30.7426 39.3246 30.7242C34.9239 31.2485 30.5267 31.7666 26.1294 32.3031C24.7557 32.5361 23.2866 31.5888 23.1775 30.3225C23.0412 28.8387 23.1536 27.3456 23.1161 25.8555C20.021 26.2296 16.9225 26.6036 13.8274 26.9623C13.824 20.619 13.8376 14.2726 13.8206 7.92923ZM25.342 13.3497C24.016 13.4877 23.0514 14.6252 23.1332 15.8055C23.0923 19.1566 23.1264 22.5076 23.1161 25.8586C25.6045 25.5551 28.0997 25.2914 30.5812 24.945C31.7709 24.7733 32.606 23.6971 32.5719 22.6394C32.5821 19.2577 32.5685 15.873 32.5787 12.4913C30.1619 12.7488 27.752 13.0523 25.342 13.3497Z" stroke="white" stroke-linejoin="round"/>
<path d="M7.56901 6.81938C9.11997 6.07743 11.1516 7.28539 11.1345 8.83061C11.155 19.0523 11.1379 29.274 11.1413 39.4988C11.2641 40.7098 10.1869 41.9546 8.79615 41.9791C7.24178 42.1845 5.8408 40.8416 6.01464 39.4651C6.01123 29.3537 6.01464 19.2424 6.01123 9.128C5.92942 8.16531 6.56344 7.17502 7.56901 6.81938Z" stroke="white" stroke-linejoin="round"/>
</svg>
