<svg width="48" height="48" viewBox="0 0 48 48" fill="none" xmlns="http://www.w3.org/2000/svg">
    <path
        d="M39 35.9298C35.6233 40.3556 30.4715 42.9459 24.8934 43H24.5047C18.9024 42.9981 13.416 40.3519 10 35.9298M24.2122 6H24.7672C30.8853 6.04847 36.8502 9.35949 40.0867 14.5423C41.9218 17.3276 42.8879 20.6423 43 23.9645V24.9433C42.8916 28.8117 41.5443 32.6261 39.1748 35.691C38.9244 34.1772 38.8011 32.6392 38.3956 31.1533C37.5304 27.8125 35.9906 24.4809 33.2492 22.2661C30.8292 20.2657 27.6263 19.382 24.5149 19.4827C21.3569 19.3783 18.1054 20.2918 15.6686 22.35C12.8824 24.6636 11.3314 28.1107 10.5166 31.5672C10.1728 32.9449 10.0083 34.3562 9.87939 35.7675C7.47626 32.6876 6.10278 28.8453 6 24.9433V23.9794C6.12146 18.2336 9.11697 12.6258 13.8709 9.37441C16.8552 7.20435 20.5328 6.08017 24.2122 6ZM18.9286 28.0408C17.8391 28.505 17.428 29.9517 17.8111 31.0087C18.0559 32.0341 19.2593 32.8097 20.2647 32.3082C21.726 31.5941 21.8512 29.3663 20.6833 28.3316C20.2161 27.8972 19.5097 27.8823 18.9286 28.0408ZM29.197 28.024C28.3038 28.3782 27.7936 29.4017 27.8796 30.332C27.8404 31.5177 29.0027 32.7687 30.2379 32.3883C31.9104 31.8533 32.1533 29.2805 30.791 28.2794C30.3612 27.8935 29.7259 27.9047 29.197 28.024Z"
        stroke="white" stroke-linecap="round" stroke-linejoin="round" />
</svg>