<svg width="48" height="48" viewBox="0 0 48 48" fill="none" xmlns="http://www.w3.org/2000/svg">
    <rect x="6.5" y="6.5" width="35" height="35" rx="3.5" stroke="white" />
    <path
        d="M21.1409 29V20H24.4607C26.3376 20 27.8591 21.3533 27.8591 23.0225C27.8591 24.6918 26.3376 26.0451 24.4607 26.0451H21.1409M11 29V20L17.7183 29V20M31.4825 28.0139C32.1044 28.7325 32.8841 29 33.9689 29H35.4702C36.8674 29 38 27.9948 38 26.7548V26.7452C38 25.5052 36.8674 24.5 35.4702 24.5H33.8141C32.4155 24.5 31.2817 23.4937 31.2817 22.2525C31.2817 21.0084 32.418 20 33.8197 20H35.3128C36.3976 20 37.1773 20.2676 37.7992 20.9861"
        stroke="white" stroke-linecap="round" stroke-linejoin="round" />
</svg>