<svg xmlns="http://www.w3.org/2000/svg" viewBox="0 0 48 48">
  <defs>
    <style>
      .a {
        fill: none;
      }

      .b {
        fill: #000;
      }
    </style>
  </defs>
  <rect class="a" width="48" height="48"/>
  <path class="b" d="M35.42,6.5A3,3,0,0,1,38.5,9.44V38.56a3,3,0,0,1-3.08,2.94H12.58A3,3,0,0,1,9.5,38.56V9.44A3,3,0,0,1,12.58,6.5h1.07l-.1,12.82a1,1,0,0,0,.55.9,1,1,0,0,0,1.05-.09l2.67-2,3.26,2.09a1,1,0,0,0,.54.16,1,1,0,0,0,.49-.13,1,1,0,0,0,.51-.89L22.37,6.5H35.42m0-1H21.35l.27,13.89-3.85-2.46-3.22,2.4.1-13.83H12.58A4,4,0,0,0,8.5,9.44V38.56a4,4,0,0,0,4.08,3.94H35.42a4,4,0,0,0,4.08-3.94V9.44A4,4,0,0,0,35.42,5.5Zm-20.77,0h0Z"/>
</svg>
