<svg xmlns="http://www.w3.org/2000/svg" viewBox="0 0 48 48">
  <defs>
    <style>
      .a {
        fill: #000;
      }

      .b {
        fill: none;
      }
    </style>
  </defs>
  <g>
    <g>
      <path class="a" d="M23.78,6.5h0a15.69,15.69,0,0,1,2.28.17A18.44,18.44,0,0,1,41,19.87,18,18,0,0,1,35.5,37.58l-.27.22a11.8,11.8,0,0,1-4.1,2.61,8.39,8.39,0,0,1-2.32.31,12.38,12.38,0,0,1-4.9-1.11A13.71,13.71,0,0,1,19.73,37,11.27,11.27,0,0,1,16.36,29c-.09-3.1.47-5.47,1.69-7.22a8.68,8.68,0,0,1,7-3.36,8.21,8.21,0,0,1,1.41.12,8.12,8.12,0,0,0-5.59,4.62,7.89,7.89,0,0,0-.43,4.4s0,0,0,.06a9.43,9.43,0,0,0,3.43,5.81,10.7,10.7,0,0,0,6.45,2.11A11,11,0,0,0,34,34.94a11.44,11.44,0,0,0,5.8-4.81C41.24,27.9,41.62,25,41,21.27,39.7,13.71,33.17,7.51,25.78,6.85a14.13,14.13,0,0,0-1.46-.07,18.78,18.78,0,0,0-10.88,3.76,22.67,22.67,0,0,0-5.22,5.35A17.77,17.77,0,0,1,23.78,6.5m0-1A18.8,18.8,0,0,0,5.86,19c-.21.92-.72,2,0,2.83.29-.24.64-.45.74-.84A21.54,21.54,0,0,1,14,11.34,17.78,17.78,0,0,1,24.32,7.78c.46,0,.91,0,1.37.06,7.07.63,13.12,6.62,14.29,13.59.47,2.72.53,5.75-1,8.16A10.45,10.45,0,0,1,33.69,34a10.08,10.08,0,0,1-3.4.58,9.72,9.72,0,0,1-5.85-1.9,8.59,8.59,0,0,1-3.06-5.22,6.8,6.8,0,0,1,.35-3.84,7.07,7.07,0,0,1,5.44-4.16,6.47,6.47,0,0,0,2.27-.36l-.27-.69A9.4,9.4,0,0,0,25,17.45a9.63,9.63,0,0,0-7.76,3.78,13,13,0,0,0-1.88,7.83A12.37,12.37,0,0,0,19,37.67a14.47,14.47,0,0,0,4.47,2.86,13.47,13.47,0,0,0,5.3,1.19,9.85,9.85,0,0,0,2.59-.34,13.56,13.56,0,0,0,4.74-3,19,19,0,0,0,5.79-18.73A19.44,19.44,0,0,0,26.2,5.68a16.32,16.32,0,0,0-2.42-.18Z"/>
      <path class="a" d="M20,13.9h0a13.83,13.83,0,0,1,3.22.37c-.29,0-.58,0-.88,0a12.75,12.75,0,0,0-7.68,2.48A15.69,15.69,0,0,0,8.47,28.21a15.23,15.23,0,0,0,.22,4.68,16.72,16.72,0,0,1-1.85-5.53c0-.17,0-.34-.07-.51a5.65,5.65,0,0,1,0-2.62,16.15,16.15,0,0,1,6.8-8.67A12.67,12.67,0,0,1,20,13.9m0-1a13.63,13.63,0,0,0-6.88,1.8,17.11,17.11,0,0,0-7.25,9.21,7.87,7.87,0,0,0,0,3.58A17.7,17.7,0,0,0,11.47,38a18.67,18.67,0,0,1-2-9.69,14.72,14.72,0,0,1,5.74-10.8,11.69,11.69,0,0,1,7.09-2.29,12.46,12.46,0,0,1,9.21,3.94,19.94,19.94,0,0,1,2,3,12.28,12.28,0,0,0-2.4-4.33A14.75,14.75,0,0,0,20,12.9Z"/>
      <path class="a" d="M19.87,17a10.5,10.5,0,0,0-1.94,1.24,11.38,11.38,0,0,0-4.08,8.42,18.52,18.52,0,0,0,.39,5.67,13.51,13.51,0,0,0,6,8.24,14.3,14.3,0,0,0,1.83.93c-.3,0-.61,0-.91,0a10.4,10.4,0,0,1-5.36-1.41,8.51,8.51,0,0,1-3.66-5.4c-1.06-4.34-1-8,.28-11a10.81,10.81,0,0,1,6.68-6.49c.25-.07.5-.14.75-.19m2.62-1.28a13.55,13.55,0,0,0-3.64.5,11.88,11.88,0,0,0-7.33,7.08C10,27,10.26,31.13,11.18,34.93a9.55,9.55,0,0,0,4.11,6,11.4,11.4,0,0,0,5.89,1.56,13,13,0,0,0,2.92-.33c.1-.11.3-.35.41-.46l-.28-.5a18.27,18.27,0,0,1-3.45-1.52,12.58,12.58,0,0,1-5.57-7.64,17.3,17.3,0,0,1-.36-5.37A10.46,10.46,0,0,1,18.54,19a11.42,11.42,0,0,1,7.26-2.32,16.6,16.6,0,0,1,1.74.1,11.89,11.89,0,0,0-5.05-1.09Z"/>
    </g>
    <rect class="b" width="48" height="48"/>
  </g>
</svg>
