<svg width="48" height="48" viewBox="0 0 48 48" fill="none" xmlns="http://www.w3.org/2000/svg">
<g clip-path="url(#clip0_15_118)">
<path d="M36.9746 25.1845C37.9054 25.1723 38.8393 25.2181 39.7701 25.1632C40.9848 25.0533 41.9794 23.9409 41.9885 22.7217C42.0113 19.4622 41.987 16.2043 41.9991 12.9449C42.0067 12.4245 41.9673 11.8874 41.7304 11.4159C41.3174 10.5033 40.303 9.95553 39.3221 10.0028C34.9186 10.0044 30.5152 10.0013 26.1117 10.0044C24.9759 9.95858 23.8629 10.7536 23.5956 11.8752C23.4271 12.687 23.5349 13.5247 23.5091 14.3472M36.9746 25.1845C36.4052 25.183 35.8358 25.1891 35.2664 25.1952C32.5681 25.2105 29.8683 25.1906 27.1716 25.2029C26.7312 25.1784 26.5004 25.6194 26.2104 25.8758C25.3084 26.7654 24.4626 27.7161 23.5106 28.5523C23.465 24.4185 23.4863 20.2817 23.5 16.1463C23.5106 15.5466 23.5106 14.9469 23.5091 14.3472M36.9746 25.1845C36.9215 28.2242 36.9701 31.2655 36.9503 34.3052C36.9959 35.0453 36.39 35.7106 35.6779 35.8143C35.0948 35.9089 34.6028 35.5183 34.0972 35.3016C32.3358 34.4272 30.3527 34.0656 28.3985 34.1282C25.7154 34.2502 23.1143 35.3291 21.0234 37C20.4221 36.6368 19.8815 36.1806 19.2741 35.8265C17.0876 34.5539 14.5184 33.8718 11.9886 34.1358C10.2713 34.2624 8.62832 34.8759 7.11292 35.6709C6.18515 36.1973 4.93547 35.3581 5.00987 34.3052C4.99621 28.4562 5.00987 22.6057 5.00228 16.7567C4.98102 16.2013 5.1025 15.5543 5.6127 15.2414C9.42095 13.1295 14.1418 12.7938 18.2249 14.277C19.1845 14.5548 20.044 15.0751 20.9429 15.4947C21.8008 15.1468 22.6223 14.657 23.5091 14.3472M20.9429 16.9078C20.9854 22.1021 21.0052 29.6179 21.0234 34.8123M7.93794 20.2649L17.9597 20.2655M7.93794 29.2171H11.2785M7.93794 22.5029H12.392M7.93794 24.741L17.9597 24.7417M14.6191 26.979H17.9597M7.93794 26.979H12.392M14.6191 22.5029H17.9597M13.5056 29.2171H17.9597M27.9814 13.5507L38.0031 13.5513M27.9814 15.7887H32.4355M27.9814 18.0268L38.0031 18.0275M34.6625 20.2649H38.0031M27.9814 20.2649H32.4355M34.6625 15.7887H38.0031" stroke="white" stroke-linecap="round" stroke-linejoin="round"/>
<path d="M36.9746 25.1845C37.9054 25.1723 38.8393 25.2181 39.7701 25.1632C40.9848 25.0533 41.9794 23.9409 41.9885 22.7217C42.0113 19.4622 41.987 16.2043 41.9991 12.9449C42.0067 12.4245 41.9673 11.8874 41.7304 11.4159C41.3174 10.5033 40.303 9.95553 39.3221 10.0028C34.9186 10.0044 30.5152 10.0013 26.1117 10.0044C24.9759 9.95858 23.8629 10.7536 23.5956 11.8752C23.4271 12.687 23.5349 13.5247 23.5091 14.3472M36.9746 25.1845C36.4052 25.183 35.8358 25.1891 35.2664 25.1952C32.5681 25.2105 29.8683 25.1906 27.1716 25.2029C26.7312 25.1784 26.5004 25.6194 26.2104 25.8758C25.3084 26.7654 24.4626 27.7161 23.5106 28.5523C23.465 24.4185 23.4863 20.2817 23.5 16.1463C23.5106 15.5466 23.5106 14.9469 23.5091 14.3472M36.9746 25.1845C36.9215 28.2242 36.9701 31.2655 36.9503 34.3052C36.9959 35.0453 36.39 35.7106 35.6779 35.8143C35.0948 35.9089 34.6028 35.5183 34.0972 35.3016C32.3358 34.4272 30.3527 34.0656 28.3985 34.1282C25.7154 34.2502 23.1143 35.3291 21.0234 37C20.4221 36.6368 19.8815 36.1806 19.2741 35.8265C17.0876 34.5539 14.5184 33.8718 11.9886 34.1358C10.2713 34.2624 8.62832 34.8759 7.11292 35.6709C6.18515 36.1973 4.93547 35.3581 5.00987 34.3052C4.99621 28.4562 5.00987 22.6057 5.00228 16.7567C4.98102 16.2013 5.1025 15.5543 5.6127 15.2414C9.42095 13.1295 14.1418 12.7938 18.2249 14.277C19.1845 14.5548 20.044 15.0751 20.9429 15.4947C21.8008 15.1468 22.6223 14.657 23.5091 14.3472M20.9429 16.9078C20.9854 22.1021 21.0052 29.6179 21.0234 34.8123M7.93794 20.2649L17.9597 20.2655M7.93794 29.2171H11.2785M7.93794 22.5029H12.392M7.93794 24.741L17.9597 24.7417M14.6191 26.979H17.9597M7.93794 26.979H12.392M14.6191 22.5029H17.9597M13.5056 29.2171H17.9597M27.9814 13.5507L38.0031 13.5513M27.9814 15.7887H32.4355M27.9814 18.0268L38.0031 18.0275M34.6625 20.2649H38.0031M27.9814 20.2649H32.4355M34.6625 15.7887H38.0031" stroke="white" stroke-linecap="round" stroke-linejoin="round"/>
<path d="M36.9746 25.1845C37.9054 25.1723 38.8393 25.2181 39.7701 25.1632C40.9848 25.0533 41.9794 23.9409 41.9885 22.7217C42.0113 19.4622 41.987 16.2043 41.9991 12.9449C42.0067 12.4245 41.9673 11.8874 41.7304 11.4159C41.3174 10.5033 40.303 9.95553 39.3221 10.0028C34.9186 10.0044 30.5152 10.0013 26.1117 10.0044C24.9759 9.95858 23.8629 10.7536 23.5956 11.8752C23.4271 12.687 23.5349 13.5247 23.5091 14.3472M36.9746 25.1845C36.4052 25.183 35.8358 25.1891 35.2664 25.1952C32.5681 25.2105 29.8683 25.1906 27.1716 25.2029C26.7312 25.1784 26.5004 25.6194 26.2104 25.8758C25.3084 26.7654 24.4626 27.7161 23.5106 28.5523C23.465 24.4185 23.4863 20.2817 23.5 16.1463C23.5106 15.5466 23.5106 14.9469 23.5091 14.3472M36.9746 25.1845C36.9215 28.2242 36.9701 31.2655 36.9503 34.3052C36.9959 35.0453 36.39 35.7106 35.6779 35.8143C35.0948 35.9089 34.6028 35.5183 34.0972 35.3016C32.3358 34.4272 30.3527 34.0656 28.3985 34.1282C25.7154 34.2502 23.1143 35.3291 21.0234 37C20.4221 36.6368 19.8815 36.1806 19.2741 35.8265C17.0876 34.5539 14.5184 33.8718 11.9886 34.1358C10.2713 34.2624 8.62832 34.8759 7.11292 35.6709C6.18515 36.1973 4.93547 35.3581 5.00987 34.3052C4.99621 28.4562 5.00987 22.6057 5.00228 16.7567C4.98102 16.2013 5.1025 15.5543 5.6127 15.2414C9.42095 13.1295 14.1418 12.7938 18.2249 14.277C19.1845 14.5548 20.044 15.0751 20.9429 15.4947C21.8008 15.1468 22.6223 14.657 23.5091 14.3472M20.9429 16.9078C20.9854 22.1021 21.0052 29.6179 21.0234 34.8123M7.93794 20.2649L17.9597 20.2655M7.93794 29.2171H11.2785M7.93794 22.5029H12.392M7.93794 24.741L17.9597 24.7417M14.6191 26.979H17.9597M7.93794 26.979H12.392M14.6191 22.5029H17.9597M13.5056 29.2171H17.9597M27.9814 13.5507L38.0031 13.5513M27.9814 15.7887H32.4355M27.9814 18.0268L38.0031 18.0275M34.6625 20.2649H38.0031M27.9814 20.2649H32.4355M34.6625 15.7887H38.0031" stroke="white" stroke-linecap="round" stroke-linejoin="round"/>
<path d="M36.9746 25.1845C37.9054 25.1723 38.8393 25.2181 39.7701 25.1632C40.9848 25.0533 41.9794 23.9409 41.9885 22.7217C42.0113 19.4622 41.987 16.2043 41.9991 12.9449C42.0067 12.4245 41.9673 11.8874 41.7304 11.4159C41.3174 10.5033 40.303 9.95553 39.3221 10.0028C34.9186 10.0044 30.5152 10.0013 26.1117 10.0044C24.9759 9.95858 23.8629 10.7536 23.5956 11.8752C23.4271 12.687 23.5349 13.5247 23.5091 14.3472M36.9746 25.1845C36.4052 25.183 35.8358 25.1891 35.2664 25.1952C32.5681 25.2105 29.8683 25.1906 27.1716 25.2029C26.7312 25.1784 26.5004 25.6194 26.2104 25.8758C25.3084 26.7654 24.4626 27.7161 23.5106 28.5523C23.465 24.4185 23.4863 20.2817 23.5 16.1463C23.5106 15.5466 23.5106 14.9469 23.5091 14.3472M36.9746 25.1845C36.9215 28.2242 36.9701 31.2655 36.9503 34.3052C36.9959 35.0453 36.39 35.7106 35.6779 35.8143C35.0948 35.9089 34.6028 35.5183 34.0972 35.3016C32.3358 34.4272 30.3527 34.0656 28.3985 34.1282C25.7154 34.2502 23.1143 35.3291 21.0234 37C20.4221 36.6368 19.8815 36.1806 19.2741 35.8265C17.0876 34.5539 14.5184 33.8718 11.9886 34.1358C10.2713 34.2624 8.62832 34.8759 7.11292 35.6709C6.18515 36.1973 4.93547 35.3581 5.00987 34.3052C4.99621 28.4562 5.00987 22.6057 5.00228 16.7567C4.98102 16.2013 5.1025 15.5543 5.6127 15.2414C9.42095 13.1295 14.1418 12.7938 18.2249 14.277C19.1845 14.5548 20.044 15.0751 20.9429 15.4947C21.8008 15.1468 22.6223 14.657 23.5091 14.3472M20.9429 16.9078C20.9854 22.1021 21.0052 29.6179 21.0234 34.8123M7.93794 20.2649L17.9597 20.2655M7.93794 29.2171H11.2785M7.93794 22.5029H12.392M7.93794 24.741L17.9597 24.7417M14.6191 26.979H17.9597M7.93794 26.979H12.392M14.6191 22.5029H17.9597M13.5056 29.2171H17.9597M27.9814 13.5507L38.0031 13.5513M27.9814 15.7887H32.4355M27.9814 18.0268L38.0031 18.0275M34.6625 20.2649H38.0031M27.9814 20.2649H32.4355M34.6625 15.7887H38.0031" stroke="white" stroke-linecap="round" stroke-linejoin="round"/>
</g>
<defs>
<clipPath id="clip0_15_118">
<rect width="48" height="48" fill="white"/>
</clipPath>
</defs>
</svg>
