<?xml version="1.0" encoding="UTF-8" ?>
<!DOCTYPE svg PUBLIC "-//W3C//DTD SVG 1.1//EN" "http://www.w3.org/Graphics/SVG/1.1/DTD/svg11.dtd">
<svg width="198pt" height="198pt" viewBox="0 0 198 198" version="1.1" xmlns="http://www.w3.org/2000/svg">
<g id="#f2f2f4ff">
<path fill="#f2f2f4" opacity="1.00" d=" M 97.52 0.00 L 99.01 0.00 C 99.19 14.88 98.59 29.78 99.34 44.64 L 98.89 44.73 C 83.09 47.75 69.12 59.39 63.70 74.58 C 58.97 87.10 60.51 101.56 66.84 113.25 C 57.72 122.47 48.46 131.55 39.33 140.76 C 45.25 146.78 51.25 152.75 57.22 158.72 C 66.43 149.58 75.62 140.43 84.82 131.29 C 89.25 133.62 94.02 135.23 98.91 136.33 L 99.33 136.42 C 98.54 156.93 99.26 177.48 98.95 198.00 L 97.59 198.00 C 78.08 197.61 58.58 191.70 42.66 180.30 C 16.95 162.89 0.66 132.65 0.00 101.62 L 0.00 97.25 C 0.35 66.15 16.46 35.71 42.10 18.10 C 58.09 6.45 77.81 0.42 97.52 0.00 Z" />
<path fill="#f2f2f4" opacity="1.00" d=" M 86.37 92.08 C 85.46 83.58 90.71 75.00 98.43 71.51 C 99.57 77.61 98.84 83.84 99.00 90.00 C 98.76 96.54 99.64 103.16 98.39 109.65 C 91.65 106.43 86.84 99.56 86.37 92.08 Z" />
</g>
<g id="#dfdfe1ff">
<path fill="#dfdfe1" opacity="1.00" d=" M 99.01 0.00 L 100.44 0.00 C 120.18 0.40 139.91 6.47 155.92 18.13 C 181.56 35.73 197.63 66.21 198.00 97.29 L 198.00 100.75 C 197.61 120.17 191.53 139.50 180.30 155.39 C 162.63 181.34 131.96 197.69 100.56 198.00 L 98.95 198.00 C 99.26 177.48 98.54 156.93 99.33 136.42 C 107.32 137.60 115.67 137.12 123.27 134.26 C 137.35 129.26 148.63 116.99 152.41 102.52 C 155.73 90.75 153.72 77.78 147.75 67.19 C 141.24 56.36 130.46 47.88 118.02 45.14 C 111.91 43.76 105.52 43.63 99.34 44.64 C 98.59 29.78 99.19 14.88 99.01 0.00 Z" />
<path fill="#dfdfe1" opacity="1.00" d=" M 99.01 71.28 C 106.94 67.98 116.93 69.75 122.72 76.24 C 128.46 82.24 130.14 91.90 126.46 99.38 C 122.01 109.49 109.08 114.36 98.99 109.94 C 98.84 109.86 98.54 109.72 98.39 109.65 C 99.64 103.16 98.76 96.54 99.00 90.00 C 98.84 83.84 99.57 77.61 98.43 71.51 C 98.57 71.46 98.86 71.34 99.01 71.28 Z" />
</g>
<g id="#56545aff">
<path fill="#56545a" opacity="1.00" d=" M 99.34 44.64 C 105.52 43.63 111.91 43.76 118.02 45.14 C 130.46 47.88 141.24 56.36 147.75 67.19 C 153.72 77.78 155.73 90.75 152.41 102.52 C 148.63 116.99 137.35 129.26 123.27 134.26 C 115.67 137.12 107.32 137.60 99.33 136.42 L 98.91 136.33 C 99.10 127.53 98.96 118.73 98.99 109.94 C 109.08 114.36 122.01 109.49 126.46 99.38 C 130.14 91.90 128.46 82.24 122.72 76.24 C 116.93 69.75 106.94 67.98 99.01 71.28 C 98.93 62.43 99.13 53.58 98.89 44.73 L 99.34 44.64 Z" />
</g>
<g id="#88888fff">
<path fill="#88888f" opacity="1.00" d=" M 63.70 74.58 C 69.12 59.39 83.09 47.75 98.89 44.73 C 99.13 53.58 98.93 62.43 99.01 71.28 C 98.86 71.34 98.57 71.46 98.43 71.51 C 90.71 75.00 85.46 83.58 86.37 92.08 C 86.84 99.56 91.65 106.43 98.39 109.65 C 98.54 109.72 98.84 109.86 98.99 109.94 C 98.96 118.73 99.10 127.53 98.91 136.33 C 94.02 135.23 89.25 133.62 84.82 131.29 C 75.62 140.43 66.43 149.58 57.22 158.72 C 51.25 152.75 45.25 146.78 39.33 140.76 C 48.46 131.55 57.72 122.47 66.84 113.25 C 60.51 101.56 58.97 87.10 63.70 74.58 Z" />
</g>
</svg>
