<svg xmlns="http://www.w3.org/2000/svg" viewBox="0 0 48 48">
  <defs>
    <style>
      .a, .b {
        fill: none;
      }

      .b {
        stroke: #000;
        stroke-linecap: round;
        stroke-linejoin: round;
      }
    </style>
  </defs>
  <rect class="a" width="48" height="48"/>
  <g>
    <path class="b" d="M22.32,24.08a1.78,1.78,0,0,0-1.11,2.37,1.9,1.9,0,0,0,.87,1,21.83,21.83,0,0,1-.6,2.78c.85,0,1.71,0,2.56,0a16.66,16.66,0,0,0-.58-2.72,2.06,2.06,0,0,0,1-1.62A1.74,1.74,0,0,0,22.32,24.08Z"/>
    <path class="b" d="M8.51,13.41V6.74A1.2,1.2,0,0,1,9.65,5.5H41.36A1.2,1.2,0,0,1,42.5,6.74V41.26a1.2,1.2,0,0,1-1.14,1.24H9.66a1.19,1.19,0,0,1-1.14-1.24v-5A1.19,1.19,0,0,1,9.67,35H30a1.18,1.18,0,0,0,1.13-1.24l-.05-10.81a1.29,1.29,0,0,0-.29-.83L25,15.19a1.13,1.13,0,0,0-.84-.41L9.64,14.65A1.2,1.2,0,0,1,8.51,13.41Z"/>
    <polygon class="b" points="5.5 17 23.08 17 28.78 23.25 28.78 32.89 7.4 32.89 7.35 35.5 5.5 32.71 5.5 17"/>
  </g>
</svg>
