<svg xmlns="http://www.w3.org/2000/svg" viewBox="0 0 48 48">
  <defs>
    <style>
      .a {
        fill: none;
      }

      .b {
        fill: #000;
      }
    </style>
  </defs>
  <rect class="a" width="48" height="48"/>
  <path class="b" d="M17.85,6.5h0a5.07,5.07,0,0,1,1.95.6l.5.22c2.62,1.24,5.32,2.42,7.94,3.56,1.82.79,3.7,1.61,5.53,2.44.41.2.83.38,1.26.56a14.26,14.26,0,0,1,2.84,1.45,1.73,1.73,0,0,1,.6,1.59q0,5,0,10.08c0,2.4,0,4.79,0,7.19v.06a2.45,2.45,0,0,1-1.6,2.15,14.91,14.91,0,0,1-2.08.67l-.44.12c-1.91.51-3.84,1.05-5.7,1.57-2.45.68-5,1.38-7.46,2-.34.08-.68.18-1,.28a8.78,8.78,0,0,1-2.33.45,3.14,3.14,0,0,1-.75-.09c-1.51-.34-2.48-.92-2.66-1.6,0,0,0-.05,0-.08-.33-.92,1.14-1.9,1.92-2.26,2.45-1,5-2,7.45-2.89s4.76-1.79,7.11-2.74c.4-.16.81-.31,1.25-.46a15.06,15.06,0,0,0,2.38-1,1,1,0,0,0,.39-.38,3.44,3.44,0,0,0,.31-2.17c0-.08,0-.17,0-.26a.09.09,0,0,0,0-.05,34,34,0,0,1-.16-4.2A35.18,35.18,0,0,0,34.89,19a1,1,0,0,0-.56-.79c-2-1-4.14-1.81-6.18-2.64C26.62,15,25,14.33,23.52,13.65a20.64,20.64,0,0,0-2.11-.76L21,12.75a1.1,1.1,0,0,0-.31,0,1,1,0,0,0-.6.19,1,1,0,0,0-.4.83c.05,2.56.06,5.18.08,7.72,0,1.51,0,3,0,4.57a3,3,0,0,1-1.39,2.75l-.06,0a3.18,3.18,0,0,1-1.71.33h-1.1a7.28,7.28,0,0,1-5.36-1.86,3.16,3.16,0,0,1-.55-2.81,3.75,3.75,0,0,1,2.05-1.52,7,7,0,0,1,1.48-.13c.41,0,.82,0,1.23,0l1,0h0A1,1,0,0,0,16,22.6a1.05,1.05,0,0,0,.31-.71c0-2.59,0-5.23,0-7.78,0-2.17,0-4.34,0-6.51a.31.31,0,0,0,0-.1c0-.25.43-.68,1.2-1a1.76,1.76,0,0,1,.33,0m0-1a3.05,3.05,0,0,0-.6.06c-1,.35-2,1.07-1.92,2,0,4.77,0,9.53,0,14.29-.74,0-1.48-.07-2.22-.07a7.87,7.87,0,0,0-1.75.17,4.58,4.58,0,0,0-2.73,2.15A4.13,4.13,0,0,0,9.42,28c1.4,1.55,3.83,2.18,6.08,2.18h1.11A3.82,3.82,0,0,0,20.76,26c0-4.09,0-8.19-.1-12.27a20.13,20.13,0,0,1,2.44.86c3.57,1.58,7.3,2.9,10.8,4.57.33,2.83,0,5.7.32,8.53a3,3,0,0,1-.16,1.86,31.91,31.91,0,0,1-3.53,1.38c-4.8,2-9.76,3.66-14.56,5.63-1.45.68-3,2-2.49,3.53.35,1.33,2,2,3.41,2.32a4.07,4.07,0,0,0,1,.11,15.71,15.71,0,0,0,3.59-.75c4.43-1.13,8.78-2.42,13.19-3.59a18.85,18.85,0,0,0,2.67-.85,3.41,3.41,0,0,0,2.19-3.12c0-5.76,0-11.51,0-17.27a2.69,2.69,0,0,0-1-2.4,25.66,25.66,0,0,0-4.27-2.1c-4.47-2-9-3.9-13.46-6a7.66,7.66,0,0,0-2.88-.92Z"/>
</svg>
