<svg xmlns="http://www.w3.org/2000/svg" viewBox="0 0 48 48">
  <defs>
    <style>
      .a, .b {
        fill: none;
      }

      .b {
        stroke: #000;
        stroke-linecap: round;
        stroke-linejoin: round;
      }
    </style>
  </defs>
  <g>
    <g>
      <rect class="a" width="48" height="48"/>
      <rect class="b" x="5.5" y="5.5" width="37" height="37" rx="8.26"/>
    </g>
    <g>
      <polyline class="b" points="20 16.88 20 8.98 24 16.98 28 8.98 28 16.98"/>
      <path class="b" d="M14.8,27.84a2.38,2.38,0,0,0,2,.9H18a2,2,0,0,0,2-2h0a2,2,0,0,0-2-2H16.7a2,2,0,0,1-2-2h0a2,2,0,0,1,2-2h1.2a2.15,2.15,0,0,1,2,.9"/>
      <path class="b" d="M28,28.74v-8h2.6a2.7,2.7,0,0,1,0,5.4H28"/>
      <path class="b" d="M21.35,39V31H24a2.7,2.7,0,1,1,0,5.4h-2.6"/>
    </g>
  </g>
</svg>
