<svg xmlns="http://www.w3.org/2000/svg" viewBox="0 0 48 48">
  <defs>
    <style>
      .a, .b {
        fill: none;
      }

      .b {
        stroke: #000;
        stroke-miterlimit: 10;
      }
    </style>
  </defs>
  <g>
    <rect class="a" width="48" height="48"/>
    <g>
      <path class="b" d="M18.51,6.38a17.49,17.49,0,0,1,15.14,2,19.78,19.78,0,0,1,8.56,13.81c1.41,7.88-2.41,16.36-8.92,20.27a23.74,23.74,0,0,1-1.83-3.36c.79-1,1.91-1.53,2.74-2.46a15.61,15.61,0,0,0,4.48-10.94,17.44,17.44,0,0,0-.4-5.05A15.94,15.94,0,0,0,29,10.31a14.25,14.25,0,0,0-13.24,1.76A16.2,16.2,0,0,0,9.36,22.24c-.13,2.9-.31,5.93.78,8.66a15.25,15.25,0,0,0,5.33,7.3c.37.31.91.62.74,1.23a12,12,0,0,1-1.55,3.07A20,20,0,0,1,6.18,30.86,21.92,21.92,0,0,1,7.81,15.62,19.22,19.22,0,0,1,18.51,6.38Z"/>
      <path class="b" d="M14.07,20a11.58,11.58,0,0,1,7.71-6.36,10.82,10.82,0,0,1,6.43.7A11.63,11.63,0,0,1,34.62,22a12.08,12.08,0,0,1-5.14,13.66,22.58,22.58,0,0,1-1.65-3.52A9.41,9.41,0,0,0,30.54,29a10.75,10.75,0,0,0,.55-6.08,7.7,7.7,0,0,0-4.84-5.2c-3.29-1.32-7.2.55-8.82,3.79-.9,1.58-.77,3.51-.65,5.28A7.48,7.48,0,0,0,20.11,32a9.15,9.15,0,0,1-1.47,3.18c-.51.33-1.05-.16-1.46-.47A12.44,12.44,0,0,1,13,27.11,12.79,12.79,0,0,1,14.07,20Z"/>
      <path class="b" d="M22.76,21.66c2.32-1,5.39,1.35,4.95,4.07a4.13,4.13,0,0,1-3.4,3.6A4,4,0,0,1,20.23,25C20.2,23.43,21.55,22.28,22.76,21.66Z"/>
    </g>
  </g>
</svg>
