<svg xmlns="http://www.w3.org/2000/svg" viewBox="0 0 48 48">
  <defs>
    <style>
      .a, .b, .c {
        fill: none;
      }

      .a, .b {
        stroke: #fff;
      }

      .a {
        stroke-linecap: round;
        stroke-linejoin: round;
      }

      .b {
        stroke-miterlimit: 10;
      }
    </style>
  </defs>
  <g>
    <g>
      <path class="a" d="M12.34,19.92c-.16.35-4.57-1-5.7-4.64C6,13.31,6.31,10.52,7.8,9a4.42,4.42,0,0,1,3.8-1c3.64.34,6.11,3.32,7,4.55,1-.32,1.93-.91,2.94-1.18a13.17,13.17,0,0,1,5-.43A15.15,15.15,0,0,1,31,12.34a8.12,8.12,0,0,1,4.24-3.85A5.49,5.49,0,0,1,40.64,9a4.86,4.86,0,0,1,1.85,4.17,7.64,7.64,0,0,1-2.7,5.18,11.58,11.58,0,0,1-2.46,1.5,13.57,13.57,0,0,1,.78,3.3,9.55,9.55,0,0,0-4.67-5.42A16.9,16.9,0,0,0,28,15.86a17.73,17.73,0,0,0-12.2,2.43,8.33,8.33,0,0,0-3.68,5.08,13.48,13.48,0,0,1,.63-3.3"/>
      <path class="a" d="M17.48,37.43a19.88,19.88,0,0,1-3-3.24"/>
      <path class="a" d="M14.22,33.79A15,15,0,0,1,12,25.7a7.89,7.89,0,0,0,2.75,5.13,15.28,15.28,0,0,0,8.06,3.37,17.64,17.64,0,0,0,11.34-2.29,8.63,8.63,0,0,0,4.19-6A16.16,16.16,0,0,1,36,34.06a24.53,24.53,0,0,1-2.57,2.8L31.88,38a10.43,10.43,0,0,1-5.95,1.88,2.8,2.8,0,0,0,1.88-2.71,2.37,2.37,0,0,0-4.08-1.67,2.66,2.66,0,0,0,0,3.58A7.54,7.54,0,0,0,25,40a12.37,12.37,0,0,1-7.18-2.31"/>
    </g>
    <path class="b" d="M5.5,14.84"/>
  </g>
  <rect class="c" width="48" height="48"/>
</svg>
