<svg xmlns="http://www.w3.org/2000/svg" viewBox="0 0 48 48">
  <defs>
    <style>
      .a, .b {
        fill: none;
      }

      .a {
        stroke: #000;
        stroke-linecap: round;
        stroke-linejoin: round;
      }
    </style>
  </defs>
  <path class="a" d="M31.85,6.2a2.44,2.44,0,0,1,2.59-.56,3.52,3.52,0,0,1,1.73,3,9.75,9.75,0,0,1-.45,4c-1.12,3.14-3.33,5.72-5.48,8.22-.77.91-1.73,1.67-2.42,2.65,3.25-1.71,5.89-4.31,8.6-6.71,1.2-.87,2.28-2.24,3.9-2.24a1.76,1.76,0,0,1,1.85,1.82c.15,2.09-1.58,3.69-3.17,4.82-3.36,2.05-7.29,2.89-11.12,3.67a19.42,19.42,0,0,1,1.9,3.46C33.43,32,37.09,35.7,40.64,39.49a6.84,6.84,0,0,1,1.86,3,5,5,0,0,1-2.41-1.42C37.77,39,35.78,36.6,33.5,34.49c-1.44-1.43-2.8-2.93-4.24-4.36-.91-1.06-2.35-1.41-3.41-2.29a38.83,38.83,0,0,1-3,8.16c-1.22,1.88-2.94,3.81-5.32,4.1a1.92,1.92,0,0,1-2.31-1.63c-.15-1.26.8-2.23,1.57-3.11,2.53-2.93,5.82-5.27,7.76-8.67A10.76,10.76,0,0,0,22.81,28a48.34,48.34,0,0,1-5.9,4.33,13.43,13.43,0,0,1-6.46,2.32,6.11,6.11,0,0,1-4.21-1.06,2.34,2.34,0,0,1,0-3.43,9.73,9.73,0,0,1,4.19-1.49,65.34,65.34,0,0,0,12.66-3.08l0-.81a6.92,6.92,0,0,1-1.58-.86A2.42,2.42,0,0,1,24.16,21c.59.27.73,1,1,1.49L26,23a8.08,8.08,0,0,0,.77-1.25,59.15,59.15,0,0,0,3-10c.47-1.88.73-4,2.1-5.46"/>
  <rect class="b" width="48" height="48"/>
</svg>
