<svg xmlns="http://www.w3.org/2000/svg" viewBox="0 0 48 48">
  <defs>
    <style>
      .a, .b {
        fill: none;
      }

      .b {
        stroke: #000;
        stroke-linecap: round;
        stroke-linejoin: round;
      }
    </style>
  </defs>
  <g>
    <rect class="a" width="48" height="48"/>
    <path class="b" d="M31.69,42a22.71,22.71,0,0,0,7.8-8.48A19.57,19.57,0,0,0,42,24.68a17.53,17.53,0,0,0-2-9,18.35,18.35,0,0,0-8.73-7.93,18.12,18.12,0,0,0-9.8-1.66,18.24,18.24,0,0,0-12.1,7.19A15.47,15.47,0,0,0,6.11,24.43a15.18,15.18,0,0,0,5.24,9.4c1,.88,5.58,4.88,12,4a14.3,14.3,0,0,0,9.8-6.08,12.62,12.62,0,0,0,1.93-9.27,12.17,12.17,0,0,0-5.86-8.24,11.58,11.58,0,0,0-11.42,0,10,10,0,0,0-4.68,6.64,9.07,9.07,0,0,0,2.19,7.68C17.94,31.19,22.71,32.31,26,30a7.33,7.33,0,0,0,2.87-7.56c-.12-.49-.84-3.34-3.36-4.11-2.31-.71-5.35.57-6.06,2.95a4.76,4.76,0,0,0,.81,3.87"/>
  </g>
</svg>
