<svg width="48" height="48" viewBox="0 0 48 48" fill="none" xmlns="http://www.w3.org/2000/svg">
<g clip-path="url(#clip0_15_136)">
<path d="M7 6.13301C10.5832 5.86146 14.1863 6.10766 17.7761 6.00266C20.5841 9.57264 22.943 13.5336 25.721 17.129C28.1098 14.3592 30.2723 11.3757 32.6545 8.59868C33.4297 7.74058 33.9653 6.49145 35.0532 6.06421C36.6302 5.94473 38.2172 6.02439 39.8009 6.05335C39.3251 6.99835 38.693 7.83472 38.0309 8.62765C34.9834 12.433 31.8826 16.1912 28.8517 20.0146C28.3959 20.4346 28.3327 21.1913 28.7619 21.662C32.2452 26.6767 35.7552 31.6659 39.2186 36.695C40.1435 38.1252 41.3013 39.3888 42 40.9819C38.4501 41.0072 34.9002 40.971 31.3503 41C28.4724 37.0173 25.6578 32.9802 22.8531 28.9359C22.3907 29.1496 21.9948 29.4972 21.682 29.9244C18.7443 33.6501 15.7933 37.3576 12.7624 40.9928C11.0623 40.971 9.35884 41.0254 7.65875 40.9529C8.52044 39.2404 9.89449 37.9514 11.0456 36.4814C13.9202 32.8571 16.8346 29.2654 19.7191 25.652C20.2581 25.2067 19.7624 24.5477 19.4696 24.1277C16.1359 19.4208 12.8189 14.7031 9.50855 9.97815C8.64686 8.71816 7.60551 7.57765 7 6.13301ZM13.3246 9.52557C13.8902 10.6661 14.6621 11.6654 15.3874 12.69C20.9933 20.6989 26.6492 28.6608 32.222 36.695C32.904 37.9297 34.4278 37.2418 35.5124 37.3757C35.2229 36.7783 34.9102 36.1881 34.5375 35.645C28.4558 26.941 22.4672 18.1609 16.3289 9.50385C15.3275 9.51109 14.326 9.52557 13.3246 9.52557Z" stroke="white" stroke-linejoin="round"/>
</g>
<defs>
<clipPath id="clip0_15_136">
<rect width="48" height="48" fill="white"/>
</clipPath>
</defs>
</svg>
