<?xml version="1.0" encoding="UTF-8"?><svg id="b" xmlns="http://www.w3.org/2000/svg" viewBox="0 0 48 48"><defs><style>.c{fill:none;stroke:#000;stroke-linecap:round;stroke-linejoin:round;}</style></defs><circle class="c" cx="24" cy="24" r="21.5"/><path class="c" d="m23.2687,24c-1.2426,0-2.25,1.0074-2.25,2.25h0c0,1.2426,1.0074,2.25,2.25,2.25h1.4625c1.2426,0,2.25-1.0074,2.25-2.25h0c0-1.2426-1.0074-2.25-2.25-2.25"/><path class="c" d="m24.7313,24c1.2426,0,2.25-1.0074,2.25-2.25h0c0-1.2426-1.0074-2.25-2.25-2.25h-1.4625c-1.2426,0-2.25,1.0074-2.25,2.25h0c0,1.2426,1.0074,2.25,2.25,2.25"/><line class="c" x1="23.2687" y1="24" x2="24.7313" y2="24"/><circle class="c" cx="24" cy="24" r="10"/></svg>