<?xml version="1.0" encoding="UTF-8"?><svg id="a" xmlns="http://www.w3.org/2000/svg" viewBox="0 0 48 48"><defs><style>.b{fill:none;stroke:#000;stroke-linecap:round;stroke-linejoin:round;}</style></defs><rect class="b" x="5.5" y="5.5" width="37" height="37" rx="4" ry="4"/><path class="b" d="M24.65,24c1.1046,0,2,.8954,2,2s-.8954,2-2,2h-3.3v-8h3.3c1.1046,0,2,.8954,2,2s-.8954,2-2,2Z"/><line class="b" x1="24.65" y1="24" x2="21.354" y2="24"/><path class="b" d="M33.65,24c1.1046,0,2,.8954,2,2s-.8954,2-2,2h-3.3v-8h3.3c1.1046,0,2,.8954,2,2s-.8954,2-2,2Z"/><line class="b" x1="33.65" y1="24" x2="30.354" y2="24"/><line class="b" x1="16.772" y1="25.35" x2="13.228" y2="25.35"/><path class="b" d="M12.35,28l2.65-8,2.65,8"/></svg>