<?xml version="1.0" encoding="UTF-8"?><svg id="b" xmlns="http://www.w3.org/2000/svg" viewBox="0 0 48 48"><defs><style>.c{fill:none;stroke:#000;stroke-linecap:round;stroke-linejoin:round;}</style></defs><path class="c" d="m13.7222,5.5h0c4.538,0,8.2222,3.6843,8.2222,8.2222v8.2222h-8.2222c-4.538,0-8.2222-3.6843-8.2222-8.2222h0c0-4.538,3.6843-8.2222,8.2222-8.2222Z"/><path class="c" d="m34.2778,5.5h0c4.538,0,8.2222,3.6843,8.2222,8.2222h0c0,4.538-3.6843,8.2222-8.2222,8.2222h-8.2222v-8.2222c0-4.538,3.6843-8.2222,8.2222-8.2222Z"/><path class="c" d="m13.7222,26.0556h8.2222v8.2222c0,4.538-3.6843,8.2222-8.2222,8.2222h0c-4.538,0-8.2222-3.6843-8.2222-8.2222h0c0-4.538,3.6843-8.2222,8.2222-8.2222Z"/><path class="c" d="m26.0556,26.0556h8.2222c4.538,0,8.2222,3.6843,8.2222,8.2222h0c0,4.538-3.6843,8.2222-8.2222,8.2222h0c-4.538,0-8.2222-3.6843-8.2222-8.2222v-8.2222h0Z"/></svg>