<?xml version="1.0" encoding="UTF-8"?><svg id="b" xmlns="http://www.w3.org/2000/svg" viewBox="0 0 48 48"><defs><style>.c{fill:none;stroke:#000;stroke-linecap:round;stroke-linejoin:round;}</style></defs><path class="c" d="M18.5,36.412v6.0879h20c2.216,0,4-1.784,4-4V9.5c0-2.216-1.784-4-4-4h-20v17.088c2.3764-3.7853,6.5306-6.0844,11-6.0879,7.1797,0,13,5.8203,13,13s-5.9141,12.998-13,12.998c-4.3967,0-8.6236-2.3009-11-6.0862v.0002Z"/><path class="c" d="M9.5,5.5c-2.216,0-4,1.784-4,4v29c0,2.216,1.784,4,4,4h5V5.5h-5Z"/><circle class="c" cx="29.5" cy="29.5" r="9"/></svg>