<?xml version="1.0" encoding="UTF-8"?><svg id="b" xmlns="http://www.w3.org/2000/svg" viewBox="0 0 48 48"><defs><style>.c{fill:none;stroke:#000;stroke-linecap:round;stroke-linejoin:round;}</style></defs><path class="c" d="m30.8696,40.0092c4.0731,1.8128,8.859.3261,11.188-3.4755,2.3291-3.8017,1.4798-8.7408-1.9854-11.5461"/><path class="c" d="m30.7313,13.7372c.3367,3.6497-.2638,5.5339-.8473,7.271,1.7785.4522,7.5602,1.417,10.1885,3.9788"/><path class="c" d="m11.7616,34.6875c-.4652,4.434,2.4279,8.5261,6.7632,9.5661,4.3354,1.04,8.7701-1.2943,10.367-5.4569"/><path class="c" d="m36.7038,26.4359c-3.3669,1.4482-5.3444,1.4595-7.1769,1.4415.1197,1.8313.989,7.628-.6349,10.9195"/><path class="c" d="m10.9175,14.8676c-4.3608.9274-7.3589,4.9433-7.0086,9.3878.3503,4.4446,3.9405,7.9412,8.3927,8.174"/><path class="c" d="m26.4727,36.0406c-2.4176-2.7547-3.0392-4.6321-3.5883-6.3804-1.7048.6796-6.9493,3.2972-10.5815,2.7696"/><path class="c" d="m29.5067,7.9421c-2.2298-3.8607-6.9756-5.4708-11.0943-3.764-4.1187,1.7068-6.3345,6.2019-5.1799,10.5082"/><path class="c" d="m14.1778,29.2778c1.8725-3.1507,3.466-4.3221,4.9591-5.3846-1.1732-1.4112-5.2836-5.59-5.9045-9.2074"/><path class="c" d="m41.8384,23.4777c2.9824-3.3139,3.0468-8.325.1506-11.7145-2.8963-3.3895-7.8562-4.1075-11.5947-1.6784"/><path class="c" d="m16.8093,15.494c3.5751.8071,5.1817,1.9603,6.6537,3.052.9795-1.5519,3.6831-6.7527,6.9317-8.4612"/></svg>