<svg xmlns="http://www.w3.org/2000/svg" viewBox="0 0 48 48"><defs><style>.a{fill:none;stroke:#000;stroke-linecap:round;stroke-linejoin:round;}.b{fill:#000;}</style></defs><path class="a" d="M14.5324,11.75a2.6122,2.6122,0,1,1,0,5.2243H10.19V6.5259h4.3429a2.6122,2.6122,0,1,1,0,5.2243Z"/><line class="a" x1="14.5324" y1="11.75" x2="10.1906" y2="11.75"/><ellipse class="b" cx="19.9299" cy="6.6923" rx="0.7557" ry="0.75"/><line class="a" x1="19.9299" y1="9.8269" x2="19.9299" y2="16.7488"/><line class="a" x1="22.7839" y1="6.4023" x2="22.7839" y2="16.851"/><line class="a" x1="25.4494" y1="6.4023" x2="25.4494" y2="16.851"/><line class="a" x1="25.4494" y1="14.6303" x2="30.1871" y2="9.9291"/><line class="a" x1="26.8971" y1="13.1939" x2="30.713" y2="16.851"/><path class="a" d="M37.8105,14.35a2.6321,2.6321,0,0,1-5.2641,0V12.6524a2.6321,2.6321,0,0,1,5.2641,0"/><line class="a" x1="37.8105" y1="16.962" x2="37.8105" y2="10.0401"/><path class="a" d="M5.5,24.4315V42.0452"/><path class="a" d="M7.4332,24.4265V42.0221"/><path class="a" d="M11.2394,24.4265V42.0221"/><path class="a" d="M17.231,37.8313V42.05"/><path class="a" d="M19.1859,37.8313V42.05"/><path class="a" d="M23.0966,37.8313V42.05"/><path class="a" d="M25.0514,37.8313V42.05"/><path class="a" d="M28.9611,37.8313V42.05"/><path class="a" d="M15.6663,37.8313V42.05"/><path class="a" d="M32.3226,37.8393v4.2184"/><path class="a" d="M33.9843,37.8393v4.2184"/><path class="a" d="M38.8724,24.4615V42.0572"/><path class="a" d="M42.5,24.4635V41.9861"/><path class="a" d="M40.6862,24.4615V42.0572"/><path class="a" d="M14.1138,25.1178a2.0442,2.0442,0,0,0,1.7038.7548H16.84a1.6776,1.6776,0,1,0,0-3.3547H15.7324a1.6775,1.6775,0,1,1,0-3.3546h1.0223a1.8406,1.8406,0,0,1,1.7038.7548"/><path class="a" d="M23.4652,24.9977a1.6528,1.6528,0,0,1-1.4482.8387,1.6957,1.6957,0,0,1-1.7037-1.6773v-1.09a1.6957,1.6957,0,0,1,1.7037-1.6773,1.653,1.653,0,0,1,1.4482.8387"/><path class="a" d="M28.6425,24.1587a1.704,1.704,0,0,1-3.4076,0v-1.09a1.704,1.704,0,0,1,3.4076,0"/><line class="a" x1="28.6425" y1="25.8368" x2="28.6425" y2="21.3915"/><path class="a" d="M33.9713,25.8368V23.0691a1.704,1.704,0,0,0-3.4075,0v2.7677"/><line class="a" x1="30.5644" y1="23.0685" x2="30.5644" y2="21.3915"/><path class="a" d="M22.0527,35.4309h-.5651a1.182,1.182,0,0,1-1.0361-.5651l-2.6372-3.5792a3.01,3.01,0,0,1-.9419-1.8837,1.5119,1.5119,0,0,1,1.6012-1.507,1.4877,1.4877,0,0,1,1.507,1.507c0,.8477-.6593,1.6012-1.9779,1.8837-1.4128.2826-2.3547,1.0361-2.3547,2.3547a1.7388,1.7388,0,0,0,1.9779,1.79c1.6954,0,2.7315-1.6954,4.2385-3.6733"/><path class="a" d="M28.42,30.8873a2.5534,2.5534,0,0,0-2.6373-2.5431,2.6532,2.6532,0,0,0-2.3546,2.6373v2.3547a2.5431,2.5431,0,0,0,5.0861,0H25.9709"/><path class="a" d="M32.0743,35.7492a1.8892,1.8892,0,0,1-1.8838-1.8837V32.6411a1.8838,1.8838,0,1,1,3.7675,0v1.2244A1.8892,1.8892,0,0,1,32.0743,35.7492Z"/></svg>