<svg xmlns="http://www.w3.org/2000/svg" viewBox="0 0 48 48"><defs><style>.a{fill:none;stroke:#000;stroke-linecap:round;stroke-linejoin:round;}</style></defs><path class="a" d="M36.4482,21.0864c-2.8291,0-6.925,2.8714-8.0652,3.3359a7.7718,7.7718,0,0,0,5.367,2.4913c2.1071,0,4.6406-2.3858,5.8387-4.4114A3.9794,3.9794,0,0,0,36.4482,21.0864Z"/><path class="a" d="M24,28.9405c-4.2311,0-5.7343,4.94-10.2947,4.94S4.5,26.8292,4.5,21.6353c0-5.32,2.28-7.5162,4.9827-7.5162,4.894,0,8.53,4.8138,14.5173,4.8138s9.6233-4.8138,14.5173-4.8138c2.7025,0,4.9827,2.1957,4.9827,7.5162,0,5.1939-4.6449,12.2456-9.2053,12.2456S28.2311,28.9405,24,28.9405Z"/><path class="a" d="M11.5518,21.0864c2.8291,0,6.925,2.8714,8.0652,3.3359a7.7718,7.7718,0,0,1-5.367,2.4913c-2.1071,0-4.6406-2.3858-5.8387-4.4114A3.9794,3.9794,0,0,1,11.5518,21.0864Z"/></svg>