<?xml version="1.0" encoding="UTF-8"?><svg id="a" xmlns="http://www.w3.org/2000/svg" viewBox="0 0 48 48"><defs><style>.f{fill:none;stroke:#000;stroke-linecap:round;stroke-linejoin:round;}</style></defs><path id="b" class="f" d="m25.7318,36.522c.4364.5682.9836.7797,1.745.7797h1.0537c.9805,0,1.7754-.7949,1.7754-1.7754v-.0082c0-.9799-.7949-1.7748-1.7754-1.7748h-1.1623c-.9816,0-1.7773-.7958-1.7773-1.7773h0c0-.9837.7974-1.7812,1.7812-1.7812h1.0479c.7613,0,1.3085.2116,1.745.7797"/><path id="c" class="f" d="m23.3358,32.5423c0-1.302-1.0554-2.3575-2.3575-2.3575h0c-1.302,0-2.3575,1.0554-2.3575,2.3575v2.402c0,1.302,1.0554,2.3575,2.3575,2.3575h0c1.302,0,2.3575-1.0554,2.3575-2.3575h-2.3575"/><rect id="d" class="f" x="11.6508" y="30.1849" width="4.7149" height="7.1169" rx="2.3575" ry="2.3575"/><path id="e" class="f" d="m42.5,24c0,10.2173-8.2827,18.5-18.5,18.5h-15.1242c-3.1008,0-3.3758-.9598-3.3758-4.1921v-14.3079C5.5,13.7827,13.7827,5.5,24,5.5c10.2173,0,18.5,8.2827,18.5,18.5Z"/></svg>