<?xml version="1.0" encoding="utf-8"?>
<!-- Generator: Adobe Illustrator 25.3.0, SVG Export Plug-In . SVG Version: 6.00 Build 0)  -->
<svg version="1.1" id="Layer_1" xmlns="http://www.w3.org/2000/svg" xmlns:xlink="http://www.w3.org/1999/xlink" x="0px" y="0px"
	 viewBox="0 0 48 48" fill="#ffffff" xml:space="preserve">
<style type="text/css">
	.st0{fill:none;stroke:#000;stroke-linecap:round;stroke-linejoin:round;}
</style>
<path class="st0" d="M24,42.5l-5.9-5.9h-6.3c-3.5,0-6.3-2.6-6.3-5.9V11.4c0-3.3,2.6-5.9,5.9-5.9h25.2c3.2,0,5.9,2.6,5.9,5.9
	c0,0,0,0,0,0v19.3c0,3.3-2.6,5.9-5.9,5.9h-6.7L24,42.5z"/>
<path class="st0" d="M24,17.7c1.6,0,2.9,1.3,2.9,2.9s-1.3,2.9-2.9,2.9s-2.9-1.3-2.9-2.9S22.4,17.7,24,17.7z M15.6,17.7
	c-1.6,0-2.9,1.3-2.9,2.9s1.3,2.9,2.9,2.9s2.9-1.3,2.9-2.9S17.2,17.7,15.6,17.7z"/>
<path class="st0" d="M32.4,17.7c1.6,0,2.9,1.3,2.9,2.9s-1.3,2.9-2.9,2.9s-2.9-1.3-2.9-2.9S30.8,17.7,32.4,17.7z"/>
</svg>
