<?xml version="1.0" encoding="UTF-8"?><svg xmlns="http://www.w3.org/2000/svg" viewBox="0 0 48 48"><defs><style>.c{fill:none;stroke:#000;stroke-linecap:round;stroke-linejoin:round;}</style></defs><g id="a"><line class="c" x1="14.2796" y1="22.2" x2="18.2796" y2="20"/><line class="c" x1="18.2796" y1="20" x2="18.2796" y2="36"/><path class="c" d="M24.4066,34.6504c1.1045.9255,2.2971,1.3496,4.9752,1.3496h.6239c2.2086,0,3.9991-1.7904,3.9991-3.9991h0c0-2.2086-1.7904-3.9991-3.9991-3.9991"/><path class="c" d="M24.4048,21.3364c1.107-.9226,2.3007-1.3435,4.9788-1.3363l.6221.0036c2.2086,0,3.9991,1.7904,3.9991,3.9991h0c0,2.2086-1.7904,3.9991-3.9991,3.9991"/><line class="c" x1="26.9317" y1="28.0019" x2="30.0058" y2="28.0019"/></g><g id="b"><rect class="c" x="6.5" y="7.5" width="35" height="36" rx="4" ry="4"/><line class="c" x1="33.5" y1="4.5" x2="33.5" y2="10.5"/><line class="c" x1="14.5" y1="4.5" x2="14.5" y2="10.5"/></g></svg>