<svg xmlns="http://www.w3.org/2000/svg" viewBox="0 0 48 48"><defs><style>.a,.b{fill:none;stroke:#000;stroke-linecap:round;stroke-linejoin:round;}.b{fill-rule:evenodd;}</style></defs><path class="a" d="M8.8541,23.91a4.9429,4.9429,0,0,1,4.8148-5,4.976,4.976,0,0,1,3.5185,8.5185C15.15,29.0947,8.854,33.91,8.854,33.91h9.8149"/><path class="a" d="M20.9153,32.597c1.125.9375,2.0625,1.3125,4.5,1.3125h.5625a4.964,4.964,0,0,0,4.875-4.875h0a4.964,4.964,0,0,0-4.875-4.875H20.9153V18.91h9.9376"/><path class="b" d="M43.5,25.7931V11.8621a4,4,0,0,0-4-4H8.5a4,4,0,0,0-4,4V36.1379a4,4,0,0,0,4,4"/><path class="b" d="M43.5,36.1379V11.8621a4,4,0,0,0-4-4H8.5a4,4,0,0,0-4,4V36.1379a4,4,0,0,0,4,4h31A4,4,0,0,0,43.5,36.1379Z"/><path class="b" d="M35.2069,40.1379V15.819a3.1379,3.1379,0,0,0-3.1379-3.138H4.5"/></svg>