<svg xmlns="http://www.w3.org/2000/svg" viewBox="0 0 48 48"><defs><style>.a,.b{fill:none;stroke:#000;stroke-linecap:round;stroke-linejoin:round;}.b{fill-rule:evenodd;}</style></defs><path class="a" d="M8.8384,23.91a4.9429,4.9429,0,0,1,4.8148-5,4.9761,4.9761,0,0,1,3.5186,8.5185C15.1347,29.0947,8.8384,33.91,8.8384,33.91h9.8149"/><circle class="a" cx="25.8685" cy="28.9095" r="5"/><path class="a" d="M30.3129,20.7613a4.548,4.548,0,0,0-4.074-1.8518h-.37a4.9792,4.9792,0,0,0-5,5v5"/><path class="b" d="M43.5,25.7931V11.8621a4,4,0,0,0-4-4H8.5a4,4,0,0,0-4,4V36.1379a4,4,0,0,0,4,4"/><path class="b" d="M43.5,36.1379V11.8621a4,4,0,0,0-4-4H8.5a4,4,0,0,0-4,4V36.1379a4,4,0,0,0,4,4h31A4,4,0,0,0,43.5,36.1379Z"/><path class="b" d="M35.2069,40.1379V15.819a3.1379,3.1379,0,0,0-3.1379-3.138H4.5"/></svg>