<?xml version="1.0" encoding="UTF-8"?><svg xmlns="http://www.w3.org/2000/svg" viewBox="0 0 48 48"><defs><style>.c{fill:none;stroke:#000;stroke-linecap:round;stroke-linejoin:round;}</style></defs><g id="a"><line class="c" x1="26.7015" y1="20.7251" x2="28.9515" y2="19.5"/><line class="c" x1="28.9515" y1="19.5" x2="28.9515" y2="28.5"/><path class="c" d="M22.7151,24c1.2222,0,2.2222,1,2.2222,2.2222h0c0,1.2222-1,2.2222-2.2222,2.2222h-.8889c-1.5556,0-2.1111-.2222-2.7778-.7778"/><path class="c" d="M19.0485,20.3333c.6667-.5556,1.3333-.7778,2.7778-.7778h.8889,0c1.2222,0,2.2222,1,2.2222,2.2222h0c0,1.2222-1,2.2222-2.2222,2.2222h-2.2222"/></g><g id="b"><path class="c" d="M38.5,5.5H9.5c-2.2091,0-4,1.7909-4,4v29c0,2.2091,1.7909,4,4,4h24s9-9,9-9V9.5c0-2.2091-1.7909-4-4-4Z"/><line class="c" x1="33.5" y1="5.5" x2="33.5" y2="42.5"/><line class="c" x1="14.5" y1="14.5" x2="14.5" y2="42.5"/><line class="c" x1="42.5" y1="33.5" x2="5.5" y2="33.5"/><line class="c" x1="42.5" y1="14.5" x2="14.5" y2="14.5"/></g></svg>