<?xml version="1.0" encoding="UTF-8"?><svg xmlns="http://www.w3.org/2000/svg" viewBox="0 0 48 48"><defs><style>.g{fill:none;stroke:#000;stroke-linecap:round;stroke-linejoin:round;}</style></defs><g id="a"><path class="g" d="M25.3079749,33.06193886c0,2.07407251,1.65925906,3.7333263,3.73333158,3.7333263s3.59505691-1.65925379,3.59505691-3.7333263v-3.7333263c0-2.07407251-1.65925906-3.7333263-3.59505691-3.7333263s-3.73333158,1.65925379-3.73333158,3.7333263v3.7333263Z"/><path class="g" d="M15.36364716,29.32860553c0-2.07407446,1.65925535-3.73332982,3.5950603-3.73332982s3.73332982,1.65925535,3.73332982,3.73332982c0,.9678972-.41481911,1.93580494-1.10617727,2.6271631-1.52098583,1.24444679-6.22222339,4.83950708-6.22222339,4.83950708h7.32841121"/></g><g id="b"><path id="c" class="g" d="M11.53204131,9.56735448l24.93586075-.00000002c2.20913926,0,4.00000048,1.79086121,4.00000048,4.00000047l.00000002,24.93264496c0,2.20913926-1.79086121,4.00000048-4.00000047,4.00000048l-24.93586075.00000002c-2.20913926,0-4.00000048-1.79086121-4.00000048-4.00000047l-.00000002-24.93264496c0-2.20913926,1.79086121-4.00000048,4.00000047-4.00000048Z"/><path id="d" class="g" d="M13.71514513,5.50000026v4.06813622"/><path id="e" class="g" d="M34.13961656,5.50000025v4.06813622"/><path id="f" class="g" d="M9.7312589,19.89056166l28.36001067-.00000002"/></g></svg>