<svg xmlns="http://www.w3.org/2000/svg" viewBox="0 0 48 48"><defs><style>.a{fill:none;stroke:#000;stroke-linecap:round;stroke-linejoin:round;}.b{fill:#000;}</style></defs><path class="a" d="M22.3915,25.9662c5.18,4.6639,6.6168,2.98,9.9295,6.308,2.738,2.75,2.7732,6.4416-.6486,8.8321s-10.48,1.92-17.179-3.0936c-7.64-5.7186-13.71-15.5619-5.2264-20.39C16.008,13.7868,18.4675,22.4329,22.3915,25.9662Z"/><path class="a" d="M13.2918,16.7419c.393-4.1111,8.1622-15.9935,17.1971-9.1734,2.219,1.6751,2.9069,4.2027,2.6819,7.0629"/><path class="a" d="M21.6544,25.2292c.0809-4.0909,2.2605-11.6492,12.4906-10.3836s9.5621,13.4292,5.9412,17.12a12.5513,12.5513,0,0,1-5.9829,3.201"/><circle class="b" cx="28.0983" cy="24.0444" r="0.75"/><circle class="b" cx="28.5161" cy="19.5251" r="0.75"/><circle class="b" cx="34.3124" cy="21.4177" r="0.75"/><circle class="b" cx="33.2113" cy="18.0251" r="0.75"/><circle class="b" cx="38.3422" cy="20.2751" r="0.75"/><circle class="b" cx="37.8305" cy="23.5555" r="0.75"/><circle class="b" cx="32.4613" cy="24.5789" r="0.75"/><circle class="b" cx="40.1085" cy="26.0789" r="0.75"/><circle class="b" cx="39.0922" cy="30.3307" r="0.75"/><circle class="b" cx="37.0805" cy="31.3779" r="0.75"/><circle class="b" cx="35.0624" cy="26.8289" r="0.75"/><circle class="b" cx="33.8217" cy="30.9924" r="0.75"/><circle class="b" cx="30.5769" cy="28.1466" r="0.75"/><circle class="b" cx="24.0016" cy="26.2541" r="0.75"/><circle class="b" cx="27.3483" cy="15.1092" r="0.75"/><circle class="b" cx="25.5016" cy="21.4177" r="0.75"/><circle class="b" cx="42.1003" cy="20.5064" r="0.75"/></svg>