<svg xmlns="http://www.w3.org/2000/svg" viewBox="0 0 48 48"><defs><style>.a{fill:none;stroke:#000;stroke-linecap:round;stroke-linejoin:round;}</style></defs><path class="a" d="M43.5,32.2084c-2.4914-.7665-4.5516-1.2456-4.5516-1.2456,0-2.9227.1438-6.4681-1.1977-9.1032,1.2936-3.45-.6886-12.9907-3.5455-13.6069-2.4435-.5271-6.1326,5.7973-6.1326,5.7973a8.0578,8.0578,0,0,0-2.1561-.6136V11.87l-1.5559,1.4188.6216-3.1675L21.8,13.4862a7.76,7.76,0,0,0-1.8725.5638s-3.6893-6.3244-6.1327-5.7973C10.9379,8.8689,8.9558,18.41,10.2494,21.86c-1.3416,2.6351-1.1978,6.18-1.1978,9.1032,0,0-2.06.4791-4.5516,1.2456a10.7309,10.7309,0,0,0,4.6475,1.4374s-.8146.2875-1.6769.5749c1.7248,1.677,9.0553,5.5578,16.53,5.5578S38.8047,35.8977,40.53,34.2207c-.8624-.2874-1.6768-.5749-1.6768-.5749A10.73,10.73,0,0,0,43.5,32.2084Z"/></svg>