<svg xmlns="http://www.w3.org/2000/svg" viewBox="0 0 48 48"><defs><style>.a{fill:none;stroke:#000;stroke-linecap:round;stroke-linejoin:round;}</style></defs><path class="a" d="M42.1168,21.559C38.9033,25.7924,43.5,27.9371,43.5,27.9371s-4.4469,1.6012-8.6231,3.0823m-2.92,1.0307c-1.84.6455-3.343,1.163-3.96,1.352-2.1857.67-.7284-7.6517-.7284-7.6517L14.386,38.927,4.5,24.35s1.2008-1.6853,2.9454-3.6921m12.0709-4.9264s3.5851,6.5882,7.5119,10.41"/><path class="a" d="M27.3259,33.2536l-3.68-3.7975"/><path class="a" d="M42.1168,21.559,27.0284,26.1429s2.0351-5.8371,7.7454-5.6031c5.08.2083,7.259-2.1536,7.259-2.1536a18.77,18.77,0,0,1-4.9064-2.9955,21.0211,21.0211,0,0,1-4.84-6.3177s-2.7989,2.8313-5.5575,2.8809-4.2562.1584-7.2121,3.7783c0,0-1.2943-4.4853-4.793-4.356s-6.0225,6.4659-9.1106,6.9006A56.4377,56.4377,0,0,1,14.27,32.0238s.938.4035,2.1883-1.7114,3.1467-5.5236,5.0611-5.5545c2.2289-.0358,4.1036,1.5828,5.51,1.3846"/><path class="a" d="M26.8533,29.1567l14.128-4.5512"/><path class="a" d="M32.6915,27.2757s2.7406,3.06,2.32,5.5672S37.4378,36.78,37.4378,36.78"/><path class="a" d="M29.4718,28.3133s2.7562,2.185,2.79,5.114.9456,3.79,1.61,4.4488l.2991-2.0676,3.2673.972"/><path class="a" d="M42.1168,21.559l-2.3831-1.7676"/></svg>