<?xml version="1.0" encoding="UTF-8"?><svg id="b" xmlns="http://www.w3.org/2000/svg" viewBox="0 0 48 48"><defs><style>.c{fill:none;stroke:#000;stroke-linecap:round;stroke-linejoin:round;}</style></defs><polygon class="c" points="41.7274 13.8026 23.8872 3.5 6.1626 13.729 24.0028 24.0315 41.7274 13.8026"/><polygon class="c" points="24.0028 24.0315 6.1626 13.729 6.1626 34.1974 24.0028 44.5 24.0028 24.0315"/><polygon class="c" points="41.7274 13.8026 24.0028 24.0315 24.0028 44.5 41.7274 34.271 41.7274 13.8026"/><path class="c" d="m30.5301,11.3212c.7986,1.6424,3.6074,1.9121,1.1058,5.1961-2.8048,3.6819-5.9273,1.7992-7.8634,2.1662-3.7803.7165-2.7813-2.2828-6.6041-2.5768-1.7422-.134-3.5392-2.915-.6239-5.5784,3.673-3.3556,6.1328-1.2003,8.088-1.5857,2.694-.5311,5.0734.6836,5.8976,2.3786Z"/></svg>