<?xml version="1.0" encoding="UTF-8"?><svg id="a" xmlns="http://www.w3.org/2000/svg" viewBox="0 0 48 48"><defs><style>.b{fill:none;stroke:#000;stroke-linecap:round;stroke-linejoin:round;}</style></defs><path class="b" d="m24.6369,4.8131c10.4241,0,18.8631,8.5876,18.8631,19.1922,0,10.5939-8.439,19.1815-18.8631,19.1815-10.4134,0-18.8631-8.5876-18.8631-19.1815C5.7738,13.4008,14.2235,4.8131,24.6369,4.8131Z"/><path class="b" d="m30.3266,9.8023c2.6856,0,4.8617,2.1018,4.8617,4.7025,0,2.5901-2.1761,4.7025-4.8617,4.7025s-4.8617-2.1124-4.8617-4.7025c0-2.6007,2.1761-4.7025,4.8617-4.7025Z"/><path class="b" d="m14.2235,23.1773h20.9649v5.6154H14.2235v-5.6154Z"/><path class="b" d="m4.5,32.9539h25.5719v5.4349H4.5v-5.4349Z"/></svg>