<?xml version="1.0" encoding="UTF-8"?><svg id="a" xmlns="http://www.w3.org/2000/svg" viewBox="0 0 48 48"><defs><style>.b{fill:none;stroke:#000;stroke-linecap:round;stroke-linejoin:round;}</style></defs><line class="b" x1="12.2352" y1="13.8364" x2="11.6118" y2="4.5"/><line class="b" x1="7.2553" y1="9.4799" x2="16.5917" y2="8.8565"/><line class="b" x1="9.4998" y1="11.9387" x2="14.3472" y2="6.3977"/><line class="b" x1="9.153" y1="6.7445" x2="14.694" y2="11.5919"/><path class="b" d="m18.4637,27.4708v-2.85l-2.5699-4.0197-2.5699,4.0197v7.4133l-2.7471-3.9908-2.2116,3.9908v11.4659h12.0589v-2.9982c0-2.0836,1.6891-3.7726,3.7726-3.7726s3.7726,1.689,3.7726,3.7726v2.9982h12.0589v-11.4659l-1.5156-3.7067-1.6309,3.7067-1.598-2.5864-1.598,2.5864v-4.6292l-1.3838-6.985-1.8616,7.1991v-11.6636l-2.1087-4.4974-2.1087,4.4974v8.9454"/><polyline class="b" points="18.4637 24.6208 18.4637 20.9233 20.0452 17.7841 21.5608 20.8236 21.5608 24.3737 23.5871 20.1893 26.2229 24.9009"/><line class="b" x1="8.3651" y1="32.0341" x2="7.6485" y2="32.0341"/><line class="b" x1="13.3238" y1="24.6208" x2="12.6895" y2="24.6208"/><line class="b" x1="26.2229" y1="15.9555" x2="25.4651" y2="15.9555"/><line class="b" x1="31.1981" y1="15.9555" x2="30.4403" y2="15.9555"/><line class="b" x1="40.7447" y1="32.0341" x2="40.0281" y2="32.0341"/></svg>