<?xml version="1.0" encoding="UTF-8"?><svg id="a" xmlns="http://www.w3.org/2000/svg" viewBox="0 0 48 48"><defs><style>.d{fill:none;stroke:#000;stroke-linecap:round;stroke-linejoin:round;}</style></defs><g id="b"><path id="c" class="d" d="m17.2442,13.217c-2.2314.0012-4.3631-2.7524-5.8866-7.6045-2.5569,4.2081-4.1152,9.6914-4.1152,15.7046,0,1.9427.1799,3.8203.4848,5.6291,5.0947,1.1708,8.4751,3.4963,9.7464,14.0022.1131.0685.2333.117.3477.182.5157-6.1033,4.137-12.5432,6.5039-10.0731,1.8265-3.0245,6.5121,6.3168,7.5114,11.4426.2616-.1984.5108-.422.7639-.6393,1.4411-10.2276,3.9268-16.1148,8.079-18.2953.0483-.7414.0781-1.4888.0781-2.2483,0-6.0691-1.5889-11.5941-4.1885-15.8171-1.5248,4.9187-4.7074,8.2858-5.9197,7.717-1.2124-.5687-4.7168-2.0097-6.7026-7.6045-1.9855,5.5918-4.2795,7.6023-6.7026,7.6045h0Zm14.2353,6.436c2.2109-.0946,3.0923,3.4828,2.8191,5.3897-.2914,2.0341-3.1504,4.6342-4.6071,2.4207-1.2654-1.9227-3.1935-1.8007-3.0911-3.7975.0578-1.1288,1.6627-3.2421,4.4179-3.9435.1592-.0405.3138-.0631.4612-.0694Zm-16.1155.079c.5295-.0588,1.1096.0175,1.717.2706,2.6273,1.0946,5.5093,1.8292,5.4065,2.9546-.1818,1.9909-3.2107,1.5341-5.6217,2.957-2.2698,1.3396-4.2169-1.0094-4.2169-3.0648,0-1.5415,1.1267-2.9411,2.7151-3.1175Z"/></g></svg>