<?xml version="1.0" encoding="UTF-8"?><svg id="a" xmlns="http://www.w3.org/2000/svg" viewBox="0 0 48 48"><defs><style>.b{fill:none;stroke:#000;stroke-linecap:round;stroke-linejoin:round;}</style></defs><rect class="b" x="6.999" y="18.9184" width="11.1879" height="14.4765" rx="5.5939" ry="5.5939"/><path class="b" d="M13.51,22.15c1.2.21,2.1,1.26,2.1,2.51v3.09c0,1.41-1.14,2.55-2.55,2.55-1.33,0-2.42-1.02-2.54-2.32"/><path class="b" d="M9.83,29.33c-.77-.49-1.27-1.35-1.27-2.32v-2.46c.31-.04.6-.14.87-.29,1.1-.63,1.48-2.03.85-3.13.33-.13.68-.2,1.03-.2.92,0,1.74.45,2.23,1.15"/><rect class="b" x="29.8131" y="18.9184" width="11.1879" height="14.4765" rx="5.5939" ry="5.5939"/><path class="b" d="M33.11,25.2c-.25.14-.51.23-.79.26v2.29c0,1.41,1.14,2.55,2.54,2.55,1.3,0,2.38-.98,2.53-2.24"/><path class="b" d="M9.98,15.03c-.14-.22-1.27-1.93-2.5-1.93-1.3,0-1.77,2.69-1.77,4.62-1.43,1.61-2.21,3.69-2.21,5.84v5.19c0,4.88,3.95,8.83,8.83,8.83,1.56,0,3.06-.41,4.37-1.16,1.29-.73,2.39-1.79,3.18-3.1"/><path class="b" d="M9.99,15.05s0-.01-.01-.02c-.05-.36-.7-4.61,1.53-4.61,3.33,0,5.09,8.96,12.49,8.96s9.16-8.96,12.49-8.96c2.24,0,1.58,4.26,1.53,4.61"/><path class="b" d="M28.12,33.32c1.59,2.65,4.45,4.26,7.55,4.26,2.44,0,4.65-.99,6.25-2.58,1.59-1.6,2.58-3.81,2.58-6.25v-5.19c0-2.15-.78-4.23-2.21-5.84,0-.96-.12-2.12-.4-3.03-.28-.92-.72-1.59-1.37-1.59-1.23,0-2.36,1.71-2.5,1.93-.01.01-.01.02-.01.02"/><path class="b" d="M24.0701,28.9114c-4.6215,0-4.9701,4.2272-4.9701,4.2272l4.9,1.1137,4.9-1.1137c-.1456-2.4831-2.3425-4.2272-4.8299-4.2272Z"/><path class="b" d="M27.58,33.44c.03,1.92-1.48,3.54-3.42,3.62-1.98.09-3.65-1.44-3.74-3.41v-.21"/><line class="b" x1="35.2259" y1="37.5686" x2="35.2259" y2="41.1075"/><line class="b" x1="18.1869" y1="35.3576" x2="18.1869" y2="37.5327"/><path class="b" d="M26.8466,18.8969c.829,1.0051,1.5839,1.6955,2.1347,1.7713,2.2921.3154,3.6369-1.0055,3.6369-1.0055"/><polyline class="b" points="4.6566 33.1199 5.6025 37.5686 16.8453 15.6421"/><path class="b" d="M43.7597,32.2974l-14.2737-9.5053c-1.5771-.9252-1.6626-2.8357-1.6626-2.8357"/><path class="b" d="M38.23,28.62c.04-.19.06-.4.06-.6v-3.63c0-1.65-1.34-2.99-2.99-2.99-.38,0-.76.08-1.12.23.68,1.19.27,2.71-.92,3.39-.08.05-.16.09-.24.13"/></svg>