<svg xmlns="http://www.w3.org/2000/svg" viewBox="0 0 48 48"><defs><style>.a{fill:none;stroke:#000;stroke-linecap:round;stroke-linejoin:round;}</style></defs><path class="a" d="M14.222,26.14,8.7452,23.0435a.6471.6471,0,0,1,.0261-1.1405l23.312-11.808L28.0625,33.5082a.7055.7055,0,0,1-1.0631.4827l-8.1461-4.9752-3.7619,4.7148a.5961.5961,0,0,1-1.0619-.3877Z"/><polyline class="a" points="14.222 26.14 32.083 10.095 18.853 29.016"/><line class="a" x1="38.8357" y1="40.73" x2="38.8357" y2="33.575"/><path class="a" d="M38.8357,45.5c7.065-2.715,6.66-8.154,6.66-11.4V31.64a25.2144,25.2144,0,0,0-6.66-1.14,25.2144,25.2144,0,0,0-6.66,1.14V34.1C32.1757,37.346,31.7707,42.785,38.8357,45.5Z"/><line class="a" x1="35.2582" y1="37.1525" x2="42.4132" y2="37.1525"/><path class="a" d="M34.54,42.7435a21.5027,21.5027,0,1,1,10.9586-18.97"/><path class="a" d="M45.5,23.9456a21.46,21.46,0,0,1-1.2654,7.3388"/></svg>