<?xml version="1.0" encoding="UTF-8"?><svg id="a" xmlns="http://www.w3.org/2000/svg" viewBox="0 0 48 48"><defs><style>.n{fill:none;stroke:#000;stroke-linecap:round;stroke-linejoin:round;}</style></defs><g id="b"><path id="c" class="n" d="M37.3536,29.9759v1.7157"/><path id="d" class="n" d="M30.7071,31.6924h13.2929"/><path id="e" class="n" d="M31.5354,44.2437v-9.6536h11.6363v8.0809c0,.8454-.1861,1.212-1.1884,1.3852-.3465.0599-.7597.0591-1.3849.0346"/><path id="f" class="n" d="M33.921,31.6925l1.244,2.898"/><path id="g" class="n" d="M40.7861,31.6925l-1.244,2.898"/><path id="h" class="n" d="M35.6642,34.6053c-.0015,1.9238-.654,2.8694-1.9271,3.3319"/><path id="i" class="n" d="M38.7198,34.5903v2.1773c0,.6277.1987.8034.8211.8034h.8621c.5138,0,.8804-.364.8745-.9242"/><path id="j" class="n" d="M34.8236,43.5585v-4.2571h5.0599v3.2224h-5.0599"/></g><g id="k"><path id="l" class="n" d="M27.7714,40.1724c-1.6486.4793-3.3919.7362-5.1952.7362-10.2593,0-18.5762-8.3169-18.5762-18.5762S12.3169,3.7563,22.5762,3.7563c6.2219,0,11.7293,3.0589,15.1005,7.7548l-17.3984,11.897"/><path id="m" class="n" d="M41.0102,24.642c-.0972.7838-.2432,1.5524-.4349,2.3028"/></g></svg>