<?xml version="1.0" encoding="UTF-8"?><svg id="b" xmlns="http://www.w3.org/2000/svg" viewBox="0 0 48 48"><defs><style>.i{fill:none;stroke:#000;stroke-linecap:round;stroke-linejoin:round;}</style></defs><path id="c" class="i" d="m26.7913,22.0044s5.0373,2.6733,10.8448,0c-.0347-6.3314-5.3172-9.6955-5.3172-9.6955,0,0-5.491,3.3618-5.5254,9.6955h-.0023"/><path id="d" class="i" d="m10.3639,22.0044s5.0373,2.6733,10.8448,0c-.0347-6.3314-5.3172-9.6955-5.3172-9.6955,0,0-5.491,3.3618-5.5254,9.6955h-.0023"/><path id="e" class="i" d="m23.817,29.1789l-13.087.0002-.0003,1.8622s5.43,1.671,8.5416,5.2347c3.1131,3.5636,4.5431,6.224,4.5431,6.224h.049s1.0158-2.5225,4.129-6.0862c3.1131-3.5636,9.2814-5.3725,9.2814-5.3725l-.0004-1.8622-13.4149-.0002"/><path id="f" class="i" d="m21.2041,21.7379l5.5939.0077"/><path id="g" class="i" d="m15.7863,5.5v6.3977"/><path id="h" class="i" d="m32.2137,5.6828v6.6261"/></svg>