<?xml version="1.0" encoding="UTF-8"?><svg id="b" xmlns="http://www.w3.org/2000/svg" viewBox="0 0 48 48"><defs><style>.o{fill:none;stroke:#000;stroke-linecap:round;stroke-linejoin:round;}</style></defs><path id="c" class="o" d="m24,12.041c-10.2173,0-18.5-.9176-18.5-2.0496"/><path id="d" class="o" d="m5.5,9.9976c0-1.1319,8.2827-2.0496,18.5-2.0496s18.5.9176,18.5,2.0496v-.0061"/><path id="e" class="o" d="m41.3437,13.4971c0,1.0612-7.7651,1.9215-17.3438,1.9215s-17.3438-.8603-17.3438-1.9215"/><path id="f" class="o" d="m40.1875,16.5742c0,.9904-7.2474,1.7934-16.1875,1.7934s-16.1875-.8029-16.1875-1.7934"/><path id="g" class="o" d="m39.0312,19.5232c0,.9197-6.7297,1.6653-15.0312,1.6653s-15.0313-.7456-15.0313-1.6653"/><path id="h" class="o" d="m36.7187,22.922c0,.7782-5.6944,1.4091-12.7188,1.4091s-12.7188-.6309-12.7188-1.4091"/><path id="i" class="o" d="m34.4062,26.0645c0,.6367-4.6591,1.1529-10.4062,1.1529s-10.4062-.5162-10.4062-1.1529"/><path id="j" class="o" d="m32.0937,28.9509c0,.4952-3.6237.8967-8.0938.8967s-8.0938-.4015-8.0938-.8967"/><path id="k" class="o" d="m29.7813,31.8699c0,.3537-2.5884.6405-5.7812.6405s-5.7813-.2868-5.7813-.6405"/><path id="l" class="o" d="m28.625,34.5327c0,.283-2.0707.5124-4.625.5124s-4.625-.2294-4.625-.5124"/><path id="m" class="o" d="m26.3125,37.3564c0,.1415-1.0354.2562-2.3125.2562s-2.3125-.1147-2.3125-.2562"/><path id="n" class="o" d="m25.1562,39.9239c0,.0707-.5177.1281-1.1562.1281s-1.1562-.0574-1.1562-.1281"/></svg>