<?xml version="1.0" encoding="UTF-8"?><svg id="b" xmlns="http://www.w3.org/2000/svg" viewBox="0 0 48 48"><defs><style>.s{fill:none;stroke:#000;stroke-linecap:round;stroke-linejoin:round;}</style></defs><path id="c" class="s" d="m37.0738,37.1158c-3.368-3.3505-5.4529-7.9896-5.4529-13.1157,0-5.1086,2.0707-9.7336,5.4185-13.0815"/><path id="d" class="s" d="m10.9435,10.9185c3.3479,3.3479,5.4185,7.9729,5.4185,13.0815,0,5.1218-2.0704,9.7455-5.4334,13.0954"/><path id="e" class="s" d="m30.345,23.681l1.2759.6379,1.2759-.6379"/><path id="f" class="s" d="m17.638,24.319l-1.2759-.6379-1.2759.6379"/><path id="g" class="s" d="m17.1119,28.7037l-1.1345-.8647-1.3725.3888"/><path id="h" class="s" d="m15.7077,32.6098l-.943-1.0703-1.4221.1122"/><path id="i" class="s" d="m13.5365,35.9218l-.4932-1.3385-1.3667-.4085"/><path id="j" class="s" d="m13.965,12.4134l-1.3714.3926-.5088,1.3326"/><path id="k" class="s" d="m16.0179,16.0796l-1.4024.0696-.8207,1.183"/><path id="l" class="s" d="m17.2855,20.0427l-1.4064-.2388-1.0348.9818"/><path id="m" class="s" d="m30.871,19.2958l1.1345.8647,1.3724-.3888"/><path id="n" class="s" d="m32.2752,15.3897l.943,1.0703,1.4221-.1121"/><path id="o" class="s" d="m34.5254,11.9811l.4932,1.3384,1.3668.4085"/><path id="p" class="s" d="m33.9164,35.4532l1.3714-.3925.5088-1.3326"/><path id="q" class="s" d="m31.9628,31.9554l1.4248-.0706.7984-1.1821"/><path id="r" class="s" d="m30.6974,27.9569l1.4064.2387,1.0348-.9818"/><circle class="s" cx="24" cy="24" r="18.5"/></svg>