<?xml version="1.0" encoding="UTF-8"?><svg id="a" xmlns="http://www.w3.org/2000/svg" viewBox="0 0 48 48"><defs><style>.b{fill:none;stroke:#000;stroke-linecap:round;stroke-linejoin:round;}</style></defs><path class="b" d="M38.5001,5.5001H9.5001c-2.2091,0-4,1.7909-4,4v29c0,2.2091,1.7909,4,4,4h29c2.2091,0,4-1.7909,4-4V9.5001c0-2.2091-1.7909-4-4-4Z"/><line class="b" x1="14.3588" y1="15.3724" x2="22.9864" y2="15.3724"/><line class="b" x1="12.8375" y1="24" x2="18.4455" y2="24"/><line class="b" x1="14.3588" y1="15.3724" x2="11.3163" y2="32.6276"/><path class="b" d="M23.5598,30.737c.8152,1.3775,2.0515,1.8906,3.8974,1.8906h2.5546c2.3773,0,4.645-1.9313,5.0651-4.3138h0c.4201-2.3824-1.1666-4.3138-3.5439-4.3138h-2.8225c-2.3773,0-3.964-1.9313-3.5439-4.3138h0c.4201-2.3824,2.6878-4.3138,5.0651-4.3138h2.5546c1.8459,0,3.0822.5131,3.8974,1.8906"/></svg>