<?xml version="1.0" encoding="UTF-8"?><svg xmlns="http://www.w3.org/2000/svg" viewBox="0 0 48 48"><defs><style>.c{fill:none;stroke:#000;stroke-linecap:round;stroke-linejoin:round;}</style></defs><g id="a"><path class="c" d="m4.5,11.5c0-1.6569,1.3431-3,3-3h8.7181c.8337,0,1.6465.2605,2.325.7451l4.9138,3.5099c.6784.4846,1.4913.7451,2.325.7451h14.7181c1.6569,0,3,1.3431,3,3v20c0,1.6569-1.3431,3-3,3H7.5c-1.6569,0-3-1.3431-3-3V11.5Z"/></g><g id="b"><polygon class="c" points="33 24.2513 24 20.7325 15 24.2513 24 27.7701 33 24.2513"/><path class="c" d="m18.1826,25.4957v2.8161c0,.9056,2.6045,1.6398,5.8174,1.6398s5.8174-.7342,5.8174-1.6398v-2.8161"/><path class="c" d="m25.7862,24.2513c2.489-.1757,4.1592-.0329,5.067.8393s.2623,6.2762.2623,6.2762"/></g></svg>