<?xml version="1.0" encoding="UTF-8"?><svg xmlns="http://www.w3.org/2000/svg" viewBox="0 0 48 48"><defs><style>.c{fill:none;stroke:#000;stroke-linecap:round;stroke-linejoin:round;}</style></defs><g id="a"><path class="c" d="m4.5,11.5c0-1.6569,1.3431-3,3-3h8.7181c.8337,0,1.6465.2605,2.325.7451l4.9138,3.5099c.6784.4846,1.4913.7451,2.325.7451h14.7181c1.6569,0,3,1.3431,3,3v20c0,1.6569-1.3431,3-3,3H7.5c-1.6569,0-3-1.3431-3-3V11.5Z"/></g><g id="b"><circle class="c" cx="24" cy="26.5" r="7"/><polygon class="c" points="25.6584 23.6276 22.3416 23.6276 20.6831 26.5 22.3416 29.3724 25.6584 29.3724 27.3169 26.5 25.6584 23.6276"/><line class="c" x1="27.3169" y1="26.5" x2="30.0639" y2="30.0071"/><line class="c" x1="17.9414" y1="23.0022" x2="20.6831" y2="26.5"/><line class="c" x1="24" y1="19.5001" x2="22.3416" y2="23.6275"/><line class="c" x1="25.6584" y1="29.3725" x2="24" y2="33.5"/><line class="c" x1="22.3416" y1="29.3725" x2="17.9358" y2="29.998"/><line class="c" x1="25.6584" y1="23.6275" x2="30.0639" y2="23.0021"/></g></svg>