<?xml version="1.0" encoding="UTF-8"?><svg id="a" xmlns="http://www.w3.org/2000/svg" viewBox="0 0 48 48"><defs><style>.b{fill:none;stroke:#000;stroke-linecap:round;stroke-linejoin:round;}</style></defs><path class="b" d="m24.9317,20.1324l-.0165.0331.0267.0153c.2416.1145.6385.4795-.1183,1.6165l-4.0916,6.5436,5.343-.8178"/><path class="b" d="m29.7725,20.1324c.2416.1145.6397.4795-.117,1.6165l-3.5805,5.7741-.0165.0254,3.598-.5532c.3828-.0687.7237-.1704,1.0276-.3396,1.0073-.5571,1.6826-1.3825,2.3084-2.316l2.3619-4.2072"/><path class="b" d="m11.7809,20.1324h-7.4705l13.8965,4.7757-2.8268,4.2505,5.3519-.8178"/><path class="b" d="m10.7708,22.3526l-7.2708,10.9369,10.5765-2.1672,1.3036-1.9637"/><path class="b" d="m22.3752,14.7105h-2.8146c-2.0565.0967-3.5599.842-4.7757,1.8327-.9221.7517-1.6915,1.6763-2.3834,2.6543l-.6207.9348h24.7562c1.4524-.0623,2.5526-.365,3.5624-.917,1.6292-.889,2.8235-2.1952,3.846-3.6705l.5545-.833c-.2442,0-22.1248-.0013-22.1248-.0013"/></svg>