<?xml version="1.0" encoding="UTF-8"?><svg id="b" xmlns="http://www.w3.org/2000/svg" viewBox="0 0 48 48"><defs><style>.c{fill:none;stroke:#000;stroke-linecap:round;stroke-linejoin:round;}</style></defs><path class="c" d="m18.5311,16.1641c-.1716-.9982-.2641-2.0511-.2641-3.1533,0-5.805,2.5669-10.5109,5.7332-10.5109s5.7332,4.7059,5.7332,10.5109c0,1.1009-.0923,2.1565-.2635,3.1537"/><path class="c" d="m23.999,29.5009c-7.3329-.0015-7.3329-11.0028,0-11.0018.3622.0008.7234.0369,1.0786.1078-3.2893,2.5883.7663,7.4569,3.9063,4.6895.1424-.1182.2728-.2501.3892-.3939.0797.3605.1221.7282.1266,1.0974,0,3.038-2.4628,5.5008-5.5008,5.5008v.0002Z"/><circle class="c" cx="24" cy="24" r="9.5555"/><path class="c" d="m29.4689,31.8359c.1716.9983.2641,2.0511.2641,3.1533,0,5.805-2.5669,10.5109-5.7332,10.5109s-5.7332-4.7059-5.7332-10.5109c0-1.1009.0923-2.1565.2635-3.1537"/><path class="c" d="m31.8359,18.5311c.9983-.1716,2.0511-.2641,3.1533-.2641,5.805,0,10.5109,2.5669,10.5109,5.7332s-4.7059,5.7332-10.5109,5.7332c-1.1009,0-2.1565-.0923-3.1537-.2635"/><path class="c" d="m16.1641,18.5311c-.9982-.1716-2.0511-.2641-3.1533-.2641-5.805,0-10.5109,2.5669-10.5109,5.7332s4.7059,5.7332,10.5109,5.7332c1.1009,0,2.1565-.0923,3.1537-.2635"/><path class="c" d="m14.5921,22.327c-.8272-.5845-1.6371-1.2636-2.4165-2.0429-4.1047-4.1047-5.6173-9.2475-3.3784-11.4868,2.239-2.239,7.3816-.7264,11.4868,3.3784.7784.7784,1.4596,1.5901,2.0437,2.4164"/><path class="c" d="m33.4079,25.673c.8272.5845,1.6371,1.2636,2.4165,2.0429,4.1047,4.1047,5.6173,9.2475,3.3784,11.4868-2.239,2.239-7.3816.7264-11.4868-3.3784-.7784-.7785-1.4596-1.5901-2.0437-2.4164"/><path class="c" d="m25.673,14.5921c.5845-.8272,1.2636-1.6371,2.0429-2.4165,4.1047-4.1047,9.2475-5.6173,11.4868-3.3784,2.239,2.239.7264,7.3816-3.3784,11.4868-.7784.7784-1.5901,1.4596-2.4164,2.0437"/><path class="c" d="m14.5921,25.673c-.8272.5845-1.6371,1.2636-2.4165,2.0429-4.1047,4.1047-5.6173,9.2475-3.3784,11.4868,2.239,2.239,7.3816.7264,11.4868-3.3784.7784-.7785,1.4596-1.5901,2.0437-2.4164"/></svg>