<?xml version="1.0" encoding="UTF-8"?><svg id="a" xmlns="http://www.w3.org/2000/svg" viewBox="0 0 48 48"><defs><style>.b{fill:none;stroke:#000;stroke-linecap:round;stroke-linejoin:round;}</style></defs><path class="b" d="m7.4051,38.3072c-.0714-.4722-.1083-.9556-.1083-1.4474,0-5.319,4.3271-9.6461,9.6461-9.6461m0,0c-2.7195,0-4.9326,2.2131-4.9326,4.9326s2.2131,4.9326,4.9326,4.9326,4.9326-2.2131,4.9326-4.9326-2.2131-4.9326-4.9326-4.9326Zm11.0131,7.7135c-1.2391,4.9197-5.7091,8.5728-11.0144,8.5728-3.9927,0-7.5081-2.0744-9.5366-5.1951l-.1101-.1652c-1.0831-1.7439-1.7072-3.8-1.7072-5.9936,0-3.1942,1.3217-6.0854,3.4603-8.1414,2.0468-1.9918,4.828-3.2125,7.8936-3.2125m-4.9313,11.3543c0,5.0566,5.9434,6.1609,9.4492,6.1609,2.9576,0,5.2829-1.2425,6.4569-3.1499"/><path class="b" d="m16.9429,10.9234c-2.7195,0-4.9326,2.2131-4.9326,4.9326s2.2131,4.9326,4.9326,4.9326,4.9326-2.2131,4.9326-4.9326-2.2131-4.9326-4.9326-4.9326Zm-.0013,16.2937c3.0657,0,5.856-1.2208,7.9028-3.2125,2.1294-2.056,3.4603-4.9565,3.4603-8.1506,0-6.2598-5.1033-11.354-11.3631-11.354S5.5877,9.5941,5.5877,15.854c0,3.1942,1.3217,6.0946,3.4603,8.1506m7.8949-13.0812c-4.0669,0-7.8864,1.0813-11.186,2.9714"/><path class="b" d="m31.0551,19.0686c-2.7195,0-4.9326,2.2131-4.9326,4.9326s2.2131,4.9326,4.9326,4.9326,4.9326-2.2131,4.9326-4.9326-2.2131-4.9326-4.9326-4.9326Zm-11.0111,7.7171c.9913,3.9193,4.0294,7.04,7.912,8.1414.9913.2845,2.0285.4314,3.1024.4314,6.2598,0,11.354-5.0941,11.354-11.354,0-6.269-5.0941-11.3631-11.354-11.3631-1.0739,0-2.1111.1469-3.1024.4314m3.9538,22.254c2.5462-3.0799,4.0779-7.0275,4.0779-11.3257m6.3931-.8547c-3.0799-2.5462-7.0275-4.0779-11.3257-4.0779"/></svg>