<svg id="Layer_2" data-name="Layer 2" xmlns="http://www.w3.org/2000/svg" viewBox="0 0 48 48"><defs><style>.cls-1{fill:none;stroke:#000;stroke-linecap:round;stroke-linejoin:round;}</style></defs><path class="cls-1" d="M24,5.86A18.79,18.79,0,0,0,11.83,10.3C6.11,15.09,4.88,23.07,5.71,29.81L7,40.34a1.73,1.73,0,0,0,1.93,1.5L14,41.21a1.72,1.72,0,0,0,1.5-1.92l-1.3-10.88A1.67,1.67,0,0,0,12.29,27l-1.85.26a15,15,0,0,1-.22-2.42,13.81,13.81,0,0,1,27.62,0,13.4,13.4,0,0,1-.22,2.37l-1.82-.22a1.72,1.72,0,0,0-1.92,1.5L32.54,39.32A1.72,1.72,0,0,0,34,41.24l5.06.62A1.72,1.72,0,0,0,41,40.36l1.21-10.53c.87-6.73-.43-14.75-6.12-19.5A18.65,18.65,0,0,0,23.94,5.84Z"/></svg>