<?xml version="1.0" encoding="UTF-8"?><svg id="a" xmlns="http://www.w3.org/2000/svg" viewBox="0 0 48 48"><defs><style>.i{fill:none;stroke:#000;stroke-linecap:round;stroke-linejoin:round;}</style></defs><path id="e" class="i" d="M21.11599922,37.38537556H7.73999977c-1.24100018,0-2.23999977-.90299988-2.23999977-2.02500153v-18.60699844c0-.84000015.60900021-1.73400021,1.35099983-2.125l14.53000069-7.6500001h0c.27599907-.14499998.65800095-.14499998.93400002,0l14.53000069,7.6500001c.70999908.37300014,1.13000107,1.32299995,1.13000107,2.125v3.10000038"/><path id="f" class="i" d="M40.25999832,19.64237553c1.24100113,0,2.24000168.90299988,2.24000168,2.02499962v17.43600273c0,1.12200165-.99900055,2.02500153-2.24000168,2.02500153h-16.99499893c-1.24099922,0-2.23999977-.90299988-2.23999977-2.02500153,0,0-.4260006-6.80599976,6.05700111-13.29299927,6.48400116-6.48699951,13.1780014-6.16799927,13.17799759-6.16800308Z"/><path id="g" class="i" d="M27.58799934,41.12837559c-.00527954-.1586113-.00794601-.3173027-.00799942-.47600174-.00055313-7.98051453,6.46535301-14.45044708,14.44199944-14.45100021h.00099945c.15903473.00003815.3180542.00270462.47700119.00799942"/><path id="h" class="i" d="M34.26200104,41.13037449c-.00955963-.15915298-.01422882-.31856155-.01399994-.47800064,0-4.29677582,3.48098755-7.77999878,7.77500153-7.77999878.15878296.00013351.31752396.0051384.47600174.01499939"/></svg>