<svg xmlns="http://www.w3.org/2000/svg" viewBox="0 0 48 48"><defs><style>.a{fill:none;stroke:#000;stroke-linecap:round;stroke-linejoin:round;}</style></defs><path class="a" d="M6.1467,41.5748,6.2789,28.36l3.9578.0371c-.1146,5.7956,6.7986,4.9823,6.787.0729l3.3726.0313-.0469,4.6814c4.2316-1.498,4.9506,5.3472-.0387,3.8768l-.0466,4.657Z"/><path class="a" d="M36.9063,42.5,23.69,42.2573l-.0031-3.7064c5.7965.0525,4.9037-6.8516-.0048-6.7873l-.0028-3.3728,4.6816-.0036c-1.5433-4.2152,5.2937-5.0076,3.877-.0031l4.6573-.0035Z"/><path class="a" d="M41.8533,12.8944,34.9317,24.1526,31.5227,21.96c3.084-4.9082-3.1883-7.5287-5.7075-3.315l-2.9105-1.8863,2.452-3.9882c-4.3985-.8961-1.4884-7.1334,2.03-3.3027L29.8263,5.5Z"/><path class="a" d="M7.0054,10.135H20.2216v3.958c-5.7965-.0566-4.909,6.8481,0,6.7874v3.3728H15.54c1.54,4.2164-5.2973,5.0038-3.8769,0H7.0057Z"/></svg>