<?xml version="1.0" encoding="UTF-8"?><svg id="b" xmlns="http://www.w3.org/2000/svg" viewBox="0 0 48 48"><defs><style>.e{fill:none;stroke:#000;stroke-linecap:round;stroke-linejoin:round;}</style></defs><g id="c"><path id="d" class="e" d="M10.9575,20.2613c-.0241.2757-.2476.4989-.5243.5285-3.3537.3593-5.9332,3.6618-5.9332,7.6815,0,4.2596,2.954,7.7129,6.5979,7.7129h25.1534c4.0033,0,7.2487-3.6493,7.2487-8.1509,0-4.314-2.9806-7.8453-6.7524-8.1321-.2886-.0219-.5226-.224-.5776-.5066-.8426-4.3271-4.7296-7.5789-9.3251-7.5789-2.9867,0-5.6471,1.3522-7.3748,3.5034-.1688.2102-.4522.3065-.7014.202-.6648-.2789-1.367-.4137-2.1526-.4137-2.9688,0-5.4056,2.2658-5.6587,5.1539"/></g></svg>