<?xml version="1.0" encoding="UTF-8"?><svg id="a" xmlns="http://www.w3.org/2000/svg" viewBox="0 0 48 48"><defs><style>.b{fill:none;stroke:#000;stroke-linecap:round;stroke-linejoin:round;}</style></defs><path class="b" d="m19.7465,11.5287l-.0692-6.0287h8.6454v6.4783c-.1999,2.2707-2.2784,3.933-4.6425,3.7129-2.2243-.2072-3.9338-2.0161-3.9338-4.1624Z"/><path class="b" d="m7.6429,24.9234l-.0692-6.0403h8.6454v6.4898c-.1999,2.2707-2.2784,3.933-4.6425,3.7128-2.2243-.2072-3.9338-2.0161-3.9338-4.1624Z"/><path class="b" d="m19.7465,24.9234l-.0692-6.0403h8.6454v6.4898c-.1999,2.2707-2.2784,3.933-4.6425,3.7129-2.2243-.2072-3.9338-2.0161-3.9338-4.1624Z"/><path class="b" d="m31.85,24.9234l-.0692-6.0403h8.6454v6.4898c-.1999,2.2707-2.2784,3.933-4.6425,3.7129-2.2243-.2072-3.9338-2.0161-3.9338-4.1624Z"/><path class="b" d="m19.7465,38.318l-.0692-6.0287h8.6454v6.4783c-.1999,2.2707-2.2784,3.933-4.6425,3.7129-2.2243-.2072-3.9338-2.0161-3.9338-4.1624Z"/></svg>