<?xml version="1.0" encoding="UTF-8"?><svg id="a" xmlns="http://www.w3.org/2000/svg" viewBox="0 0 48 48"><defs><style>.b{fill:none;stroke:#000;stroke-linecap:round;stroke-linejoin:round;}</style></defs><path class="b" d="M38.5001,5.5H9.5001c-2.2091,0-4,1.7909-4,4v29c0,2.2091,1.7909,4,4,4h29c2.2091,0,4-1.7909,4-4V9.5c0-2.2091-1.7909-4-4-4Z"/><path class="b" d="M9.5,16.6093h29"/><path class="b" d="M19.8666,31.3907v-7.9091c0-2.2828,1.8506-4.1334,4.1334-4.1334s4.1334,1.8506,4.1334,4.1334v7.9091"/><path class="b" d="M9.5,31.3907v-7.9091c0-2.2828,1.8506-4.1334,4.1334-4.1334s4.1334,1.8506,4.1334,4.1334v7.9091"/><path class="b" d="M30.2331,31.3907v-7.9091c0-2.2828,1.8506-4.1334,4.1334-4.1334s4.1334,1.8506,4.1334,4.1334v7.9091"/></svg>