<?xml version="1.0" encoding="UTF-8"?><svg id="a" xmlns="http://www.w3.org/2000/svg" viewBox="0 0 48 48"><path id="e" d="M13.9761,25.764c.727-1.0319,2.0435-1.0256,3.34-1.0545" style="fill:none; stroke:#000; stroke-linecap:round; stroke-linejoin:round;"/><path id="f" d="M12.5283,22.1425l5.0587.7593-1.3927-2.9764,2.3529.2774" style="fill:none; stroke:#000; stroke-linecap:round; stroke-linejoin:round;"/><path id="g" d="M18.7774,18.401l-.136-.5694,2.0115.8669-.5006-2.3361,1.8519.7665-.274-1.2309,2.4878.2224.0882-1.1223,1.0665-.0021" style="fill:none; stroke:#000; stroke-linecap:round; stroke-linejoin:round;"/><path id="h" d="M26.7853,14.5662l1.3679.6958" style="fill:none; stroke:#000; stroke-linecap:round; stroke-linejoin:round;"/><path id="i" d="M29.2908,15.2067l-.1573-1.3077,1.0771,1.0561.1536-.7898" style="fill:none; stroke:#000; stroke-linecap:round; stroke-linejoin:round;"/><path id="j" d="M32.2125,15.7266l1.1568-1.7481" style="fill:none; stroke:#000; stroke-linecap:round; stroke-linejoin:round;"/><path id="k" d="M34.4956,14.6575v1.139l.8842-.7172.0887,1.2095,3.4381,6.6498.055,4.3059,1.1584,4.6574-2.7463,9.0722" style="fill:none; stroke:#000; stroke-linecap:round; stroke-linejoin:round;"/><path id="l" d="M35.2037,42.5124l-3.7854,1.0587" style="fill:none; stroke:#000; stroke-linecap:round; stroke-linejoin:round;"/><path id="m" d="M29.7238,43.4908c-2.9863-1.1445-5.1358-2.2051-7.3392-3.4623l-1.7529-2.5897" style="fill:none; stroke:#000; stroke-linecap:round; stroke-linejoin:round;"/><path id="n" d="M31.9356,39.6217c.2667-.8476,1.3195-1.3615,2.7896-1.8553" style="fill:none; stroke:#000; stroke-linecap:round; stroke-linejoin:round;"/><path id="o" d="M35.1162,24.8516c-.3936,1.369-.1029,3.2031.7672,4.574" style="fill:none; stroke:#000; stroke-linecap:round; stroke-linejoin:round;"/><path id="p" d="M19.8515,37.7214c-5.1515.1084-6.0103-4.0015-5.3-6.9933h1.0827l2.5589,2.7247c-.4012-2.315-1.2784-4.8752-.8171-6.7459" style="fill:none; stroke:#000; stroke-linecap:round; stroke-linejoin:round;"/><path id="q" d="M20.655,28.8881c.0021,1.1999.5243,2.162,1.584,2.8935" style="fill:none; stroke:#000; stroke-linecap:round; stroke-linejoin:round;"/><path id="r" d="M32.1281,18.514l.1711,1.2752" style="fill:none; stroke:#000; stroke-linecap:round; stroke-linejoin:round;"/><path id="s" d="M31.2077,22.7706c-.1773-1.6526-1.051-2.1613-1.8139-1.8095l-.1209-1.786" style="fill:none; stroke:#000; stroke-linecap:round; stroke-linejoin:round;"/><path id="t" d="M33.9658,21.5998c-.2253-.502-.2449-1.401.5153-1.6102l-.3059-1.3622" style="fill:none; stroke:#000; stroke-linecap:round; stroke-linejoin:round;"/><path id="u" d="M29.7649,30.3986c3.7286-.6276,1.6815-2.5584,4.0548-3.4341" style="fill:none; stroke:#000; stroke-linecap:round; stroke-linejoin:round;"/><path id="v" d="M33.7336,40.3677l-.0188.788" style="fill:none; stroke:#000; stroke-linecap:round; stroke-linejoin:round;"/><path id="w" d="M35.83,39.8883l-.0417.672" style="fill:none; stroke:#000; stroke-linecap:round; stroke-linejoin:round;"/><path id="x" d="M19.0813,29.8928c.2058,1.3053.4703,2.6853,1.8955,3.5601" style="fill:none; stroke:#000; stroke-linecap:round; stroke-linejoin:round;"/><path id="y" d="M20.3343,33.0689l.1152,2.2848,4.0009,3.9881c1.9949.9818,4.6122,2.2125,7.004,2.1641" style="fill:none; stroke:#000; stroke-linecap:round; stroke-linejoin:round;"/><path id="z" d="M39.006,23.1593l2.4706-7.0318" style="fill:none; stroke:#000; stroke-linecap:round; stroke-linejoin:round;"/><path id="aa" d="M40.3043,14.73l-.1182,2.3421" style="fill:none; stroke:#000; stroke-linecap:round; stroke-linejoin:round;"/><path id="ab" d="M14.0934,29.8186l-1.274,1.3129-.1333-2.0008c-.7541,1.6186-2.1248,2.8319-4.0083,3.339l1.0244-2.0914c-1.008.332-2.1645.454-2.5686-.4251l2.279-2.7968" style="fill:none; stroke:#000; stroke-linecap:round; stroke-linejoin:round;"/><path id="ac" d="M6.5676,28.8468l1.6398-2.842c-.1577-.1925-.7156-.378-1.1674-.326l1.4685-1.6297c-.0809-.6905-.8783-1.1173-1.9851-1.5581.694-.7752,1.4868-1.5708,2.6249-2.1202" style="fill:none; stroke:#000; stroke-linecap:round; stroke-linejoin:round;"/><path id="ad" d="M9.7621,20.7356c-1.5653-1.3688-2.4018-2.9717-2.7863-4.785,1.5342.71,2.9734,1.0457,4.6026.2773-.7861-.8573-2.1567-1.0967-3.2387-1.0921.7938-.9702,2.2938-1.6004,4.1481-.5366-.519-.7445-1.1273-1.5469-.7284-2.3875l1.7383,1.3064c-.5415-1.4795-.657-2.8339.0067-4.177.7765.7079,1.1661,1.0394,2.0112,1.3084" style="fill:none; stroke:#000; stroke-linecap:round; stroke-linejoin:round;"/><path id="ae" d="M39.3683,16.2257c.3962-1.9325.4276-3.8346.1318-5.7095l-1.3102,1.7917c-.4184-1.4489-.6286-3.0808-1.6113-4.0342l-1.497,2.3109" style="fill:none; stroke:#000; stroke-linecap:round; stroke-linejoin:round;"/><path id="af" d="M18.9386,8.4003c.3325-.91,1.0259-1.6186,2.0753-2.042-.2194.6105-.3512,1.2211-.2132,1.8316" style="fill:none; stroke:#000; stroke-linecap:round; stroke-linejoin:round;"/><path id="ag" d="M15.8908,9.5166l.0696-.5884,1.0158.527c-.2135-.7462-.1753-1.4229-.0087-2.1798.6833.1338,1.2458.622,1.6327,1.1613" style="fill:none; stroke:#000; stroke-linecap:round; stroke-linejoin:round;"/><path id="ah" d="M22.5434,7.9934c.6506-.9983.9539-2.344.173-3.5644,1.1452.1771,2.7506,1.4457,3.1409,3.1895" style="fill:none; stroke:#000; stroke-linecap:round; stroke-linejoin:round;"/><path id="ai" d="M27.1803,7.4682c.2292-.6263.5118-1.2617.6703-1.9088.5016.228,1.064.9076.9209,1.7298" style="fill:none; stroke:#000; stroke-linecap:round; stroke-linejoin:round;"/><path id="aj" d="M32.6376,7.8017c.2704-.6089.387-1.303.4643-2.0188.7416,1.0075,1.2589,2.1489.9123,3.3837" style="fill:none; stroke:#000; stroke-linecap:round; stroke-linejoin:round;"/><path id="ak" d="M13.1335,33.8572l-.6616-.1893.1807-.5673-.3667-.6705" style="fill:none; stroke:#000; stroke-linecap:round; stroke-linejoin:round;"/><path id="al" d="M34.4797,11.5518l-.4116.3323c-4.9431.1895-7.7097.4412-12.9931,2.1127l-2.3431-1.4693-1.6518-2.2551c-.4463-.6093.6779-1.6741,1.4284-1.7588l12.7065-1.4339c1.6255.6828,2.8719,2.3139,3.8271,3.708" style="fill:none; stroke:#000; stroke-linecap:round; stroke-linejoin:round;"/><path id="am" d="M23.0418,10.9367l-1.986-2.3674" style="fill:none; stroke:#000; stroke-linecap:round; stroke-linejoin:round;"/><path id="an" d="M15.2431,27.6266l.5432,1.079-.0626.7296" style="fill:none; stroke:#000; stroke-linecap:round; stroke-linejoin:round;"/><g id="ao"><circle id="ap" cx="33.7663" cy="32.6429" r=".75" style="fill:#000; stroke-width:0px;"/><circle id="aq" cx="35.6624" cy="32.1857" r=".75" style="fill:#000; stroke-width:0px;"/></g></svg>