<?xml version="1.0" encoding="UTF-8"?><svg id="a" xmlns="http://www.w3.org/2000/svg" viewBox="0 0 48 48"><defs><style>.b{fill:none;stroke:#000;stroke-linecap:round;stroke-linejoin:round;}</style></defs><path class="b" d="m28.0297,34.3907h-8.3014c-2.2379,0-2.6279-2.4514-2.2379-3.4357.1857-.4921.6779-1.17,1.0679-1.6714,1.56.8914,3.4171,1.3836,5.3671,1.3836,6.2053-.0102,11.2274-5.0489,11.2172-11.2542,0-.0062,0-.0124,0-.0186,0-3.3336-1.4671-6.2679-3.7143-8.4314l.2971-.2879c.6094-.6283,1.4675-.9518,2.34-.8821l1.365.0929v-5.3857h-2.3307c-2.616.0013-4.9685,1.5929-5.9429,4.0207-1.0136-.3153-2.0678-.4811-3.1293-.4921-6.2461.0537-11.2661,5.1607-11.2124,11.4068.0201,2.3439.768,4.6236,2.1402,6.5239-.1857.195-.4829.39-.6779.4921l-.2971.2879c-2.2379,2.1636-3.315,4.9029-2.73,8.0414.2971,1.6714,1.7643,3.4357,3.2221,4.4107,1.0441.6733,2.2682,1.0133,3.51.975l9.36-.3807c1.0771,0,2.0521.4921,2.6371,1.4671l1.17,2.2471,5.7571-1.9593-.975-2.1543c-1.4486-3.0513-4.5245-4.9958-7.9021-4.9957Zm-3.9929-20.3821c2.9157,0,5.3579,2.4421,5.3579,5.3857s-2.4421,5.3857-5.3671,5.3857c-2.9551-.0354-5.3378-2.4304-5.3579-5.3857-.0515-2.9227,2.2761-5.3338,5.1988-5.3853.053-.0009.1061-.0011.1591-.0004h.0093Z"/></svg>