<?xml version="1.0" encoding="UTF-8"?><svg id="b" xmlns="http://www.w3.org/2000/svg" viewBox="0 0 48 48"><defs><style>.m{fill:none;stroke:#000;stroke-linecap:round;stroke-linejoin:round;}</style></defs><g id="f"><g id="g"><path id="h" class="m" d="M14.0262,16.4325c.8259-4.8641,5.0401-8.423,9.9738-8.423,4.9333,0,9.1473,3.5583,9.9736,8.422"/><path id="i" class="m" d="M20.0871,15.0449l1.9984,2.3861,5.7092-6.4077"/></g><g id="j"><path id="k" class="m" d="M9.3947,5.5h29.2105c2.1577,0,3.8947,1.7371,3.8947,3.8947v29.2105c0,2.1577-1.7371,3.8947-3.8947,3.8947H9.3947c-2.1577,0-3.8947-1.7371-3.8947-3.8947V9.3947c0-2.1577,1.7371-3.8947,3.8947-3.8947Z"/><path id="l" class="m" d="M42.2578,13.1656l-12.9306,5.2819c-3.2878,1.343-7.3667,1.343-10.6544,0l-12.9306-5.2819"/></g></g></svg>