<svg xmlns="http://www.w3.org/2000/svg" viewBox="0 0 48 48"><defs><style>.a{fill:none;stroke:#000;stroke-linecap:round;stroke-linejoin:round;}</style></defs><path class="a" d="M10.273,5.5c0,3.6987-4.4848,3.6987-4.4848,7.3973,0,3.6967,4.4848,3.6967,4.4848,7.3933,0,3.7-4.4848,3.7-4.4848,7.4,0,3.7024,4.4848,3.7024,4.4848,7.4048S5.7882,38.7976,5.7882,42.5"/><path class="a" d="M26.2424,5.5c0,3.6987-4.4848,3.6987-4.4848,7.3973,0,3.6967,4.4848,3.6967,4.4848,7.3933,0,3.7-4.4848,3.7-4.4848,7.4,0,3.7024,4.4848,3.7024,4.4848,7.4048S21.7576,38.7976,21.7576,42.5"/><path class="a" d="M42.2118,5.5c0,3.6987-4.4848,3.6987-4.4848,7.3973,0,3.6967,4.4848,3.6967,4.4848,7.3933,0,3.7-4.4848,3.7-4.4848,7.4,0,3.7024,4.4848,3.7024,4.4848,7.4048S37.727,38.7976,37.727,42.5"/></svg>