<svg xmlns="http://www.w3.org/2000/svg" viewBox="0 0 48 48"><defs><style>.a,.b{fill:none;stroke:#000;}.a{stroke-linecap:round;stroke-linejoin:round;}.b{stroke-miterlimit:6;}</style></defs><ellipse class="a" cx="23.9999" cy="25.5024" rx="3.8781" ry="6.2016"/><path class="a" d="M16.1289,6.7681a20.1785,20.1785,0,1,1-7.6111,5.65"/><path class="a" d="M16.1389,7.207a14.1172,14.1172,0,0,1,10.769,1.9859"/><path class="a" d="M32.5439,9.9247a18.3752,18.3752,0,0,0-12.196-4.417"/><path class="a" d="M14.9969,6.1115A14.3635,14.3635,0,0,1,24,2.5413C29.3921,2.185,32.1,4.2007,33.304,5.58"/><path class="a" d="M12.1519,7.459c-.4369-.5708-1.3768-.9631-3.3907-.2276C4.762,8.6919,4.3954,13.6232,7.6847,13.4881"/><ellipse class="a" cx="14.8889" cy="21.1174" rx="2.5303" ry="5.0832"/><path class="a" d="M23.0939,31.5324a8.3389,8.3389,0,0,1-5.4692,2.1028c-5.1277,0-9.2845-4.9078-9.2845-10.962s4.1568-10.962,9.2845-10.962A8.5564,8.5564,0,0,1,24,14.7035"/><path class="b" d="M12.3919,20.2954A4.34,4.34,0,0,0,16.8476,17.9"/><ellipse class="a" cx="33.1109" cy="21.1174" rx="2.5303" ry="5.0832"/><path class="a" d="M24.9059,31.5324a8.3389,8.3389,0,0,0,5.4692,2.1028c5.1277,0,9.2845-4.9078,9.2845-10.962s-4.1568-10.962-9.2845-10.962A8.5564,8.5564,0,0,0,24,14.7035"/><path class="b" d="M30.7669,20.2954A4.34,4.34,0,0,0,35.2226,17.9"/><path class="a" d="M22.7529,38.5494s.8326-3.379-3.3793-3.379S15.0958,38.5729,12.6,38.5729"/><path class="a" d="M22.7529,38.5954s.8326,3.379-3.3793,3.379S15.0958,38.5719,12.6,38.5719"/><path class="a" d="M22.7529,38.5954H21.3883"/><path class="a" d="M25.2469,38.5494s-.8326-3.379,3.3793-3.379S32.904,38.5729,35.4,38.5729"/><path class="a" d="M25.2469,38.5954s-.8326,3.379,3.3793,3.379S32.904,38.5719,35.4,38.5719"/><path class="a" d="M25.2469,38.5954h1.3646"/><ellipse class="a" cx="12.2456" cy="9.5374" rx="1.2785" ry="2.0788" transform="translate(-2.8852 6.077) rotate(-25.031)"/><path class="b" d="M12.6349,7.9663s.4763-2.5919,1.6755-2.121,2.6388,2.7854,2.2424,3.91-1.2,1.0705-2.8556.6081"/><path class="b" d="M11.8179,11.0764s-.4763,2.5919-1.6755,2.121S7.5036,10.412,7.9,9.2878s1.2-1.0705,2.8556-.608"/></svg>