<svg xmlns="http://www.w3.org/2000/svg" viewBox="0 0 48 48"><defs><style>.a{fill:none;stroke:#000;stroke-linecap:round;stroke-linejoin:round;}</style></defs><path class="a" d="M16.9861,2.8707s-9.3822,7.7707-8.3968,8.4442c1.0033.6856,1.1567.7637,1.1567.7637s5.3528-3.1468,6.7451-3.8435c1.3543-.6777-5.6379,3.7133-5.439,4.2221,5.9226,2.8108,11.0465,7.3515,11.7256,13.12L8.2918,24.7805c4.3234,7.5535,10.0746,11.8029,17.5075,16.49C34.9756,28.6584,33.6754,15.6452,29.5776,2.5c22.2493,5.6021,17.6618,37.8039,2.6186,42.252,2.09-1.5722,5.9434-6.1545,6.7136-9.2515,1.6917-6.04,2.0015-10.8777-1.0558-16.5453.6008,10.9251-6.3979,20.04-11.9952,26.5236.25.2065-11.7509.0194-17.5-7.25A23.8553,23.8553,0,0,1,3.5538,18.9128C4.9581,10.7076,10.2045,4.9494,16.9861,2.8707Z"/><path class="a" d="M20.0715,25.4287c-.1768,1.6889-3.1106,7.1564-4.4078,8.4779"/><path class="a" d="M17.4828,35.4635c1.9661-1.3159,4.9985-7.49,5.2949-9.8859"/><path class="a" d="M21.1609,20.8952c.7406-2.2021.8281-9.5179.3975-10.444,6.0908,3.1586,10.144,11.3873,6.9941,17.0064-.564-3.6759-2.2861-8.2175-4.6318-10.11a43.8794,43.8794,0,0,1-1.143,8.23"/><path class="a" d="M19.1994,22.3962c-.5251-3.0188-3.1585-5.3466-5.9334-6.3184C13.3555,18.9039,16.747,21.7221,19.1994,22.3962Z"/></svg>