<?xml version="1.0" encoding="UTF-8"?><svg id="Layer_1" xmlns="http://www.w3.org/2000/svg" viewBox="0 0 48 48"><defs><style>.cls-1{fill:none;stroke:#000;stroke-linecap:round;stroke-linejoin:round;}</style></defs><path class="cls-1" d="M18.7419,42.6292c.1489-.1072.6392-.4714,1.0895-.8093s.906-.7111,1.0126-.8291c.1898-.2102.1797-.2186-.4894-.4064-.3757-.1054-.9532-.3157-1.2833-.4672q-.6001-.2756.6605-.4089c.6933-.0733,1.6386-.2224,2.1006-.3314q.84-.198,1.6174-1.1306c.4276-.5129.9507-1.1647,1.1625-1.4483.2648-.3545.4119-.4737.4705-.3813.047.0739.0861.4624.087.8634.0009.4009.052.7601.1135.7981s.5672-.1742,1.1238-.4717,1.3643-.7665,1.7949-1.0425.7828-.459.7828-.4067-.3314.4074-.7363.7892-1.0793.9883-1.4984,1.3479c-.4192.3595-.8933.7561-1.0536.8812q-.2915.2275-.1214.9026c.0935.3713.1473.6979.1195.7257s-.5101.0832-1.0718.1231c-.8998.0639-1.1447.1302-2.0603.5581-.5715.2671-1.5328.6473-2.1359.8449-.6032.1976-1.2899.3896-1.526.4268q-.4292.0675-.1585-.1274h0ZM10.6618,41.4266c-.2148-.2247-.6537-.7539-.9754-1.1761-.3217-.4221-.8055-1.163-1.0752-1.6462-.4886-.8757-.4936-.8805-1.4708-1.3815-.5393-.2765-1.3952-.7452-1.902-1.0417q-.9214-.539-.3266-.802c.3271-.1447.9991-.3977,1.4932-.5622.8765-.2919.8965-.3063.8169-.5899-.0449-.1599-.0786-1.4429-.0751-2.8511.0037-1.4457.0539-2.6718.1153-2.8162.0943-.2217.1349-.1342.3039.6537.1073.5003.3187,1.3018.4698,1.7811.1511.4794.4953,1.3755.7649,1.9915.3779.8633.5309,1.1081.6678,1.0683.0977-.0284.8395-.1546,1.6485-.2806.8089-.1259,1.5811-.2522,1.716-.2805.1348-.0284.2451-.0227.2451.0126s-.1407.2691-.3126.5196c-.1719.2505-.5087.8476-.7483,1.327-.2396.4794-.4696.9808-.5111,1.1143-.0599.1928.0079.3159.3301.5992.223.1961.655.5443.9599.7737.3049.2295,1.0937.6878,1.7529,1.0184q1.1984.6012.1089.5378c-.5992-.0349-1.5553-.1634-2.1245-.2857-.5693-.1222-1.1647-.2507-1.3231-.2854-.2649-.0581-.2938-.0292-.3583.3567-.0386.2309-.0208.7631.0395,1.1825s.1419.922.1813,1.1167c.0394.1948.0509.3541.0256.3541s-.2217-.1839-.4365-.4086l-.0002.0002ZM8.385,25.3188c.3649-.6948.9639-1.7122,1.331-2.2607.3671-.5486.9409-1.3406,1.2749-1.7601.3341-.4195.8716-1.0416,1.1944-1.3826s.5542-.6729.5142-.7375c-.0399-.0646-.3099-.2377-.6-.3847s-.8721-.3628-1.2936-.4795-1.2409-.2721-1.8211-.3451c-.6073-.0764-.9914-.168-.905-.2158.0825-.0456.7138-.2086,1.4029-.3623s1.7922-.33,2.4514-.392c.6591-.062,1.7557-.1128,2.4368-.1128q1.2383,0,1.9807-.4937c.4083-.2715,1.1994-.7085,1.7579-.9712s1.2729-.5527,1.5874-.6445c.3146-.0918.572-.1392.572-.1053s-.1747.3491-.3881.7005c-.2135.3514-.5023.9195-.6418,1.2624q-.2537.6235.9601.8682c.6676.1346,1.8021.446,2.5212.692.7191.246,1.8957.7329,2.6148,1.0819.7191.3491,1.4054.7173,1.5253.8183.2143.1807.2134.1828-.0545.1281-.1498-.0306-.8362-.1433-1.5253-.2505-.9658-.1502-1.8396-.1918-3.8132-.1813-1.8359.0097-2.7144.0569-3.105.167q-.5447.1535-.9983,1.5068c-.2495.7443-.5788,1.8939-.7319,2.5547s-.3358,1.4955-.4062,1.8551q-.1278.6537-.3149.2179c-.1029-.2397-.5004-1.4026-.8835-2.5844-.3831-1.1817-.7393-2.15-.7916-2.1517-.0523-.0017-.4156.2255-.8073.505s-1.1578.8764-1.7025,1.3263-1.6359,1.398-2.4249,2.1066c-.789.7086-1.4672,1.2884-1.5072,1.2884-.04,0,.2259-.5685.5909-1.2633h0ZM39.4063,19.8505c-.0392-.8817-.122-2.0443-.1841-2.5836-.062-.5393-.204-1.4218-.3153-1.9611-.1114-.5393-.306-1.2502-.4325-1.5797s-.2779-.6728-.3364-.7626c-.0932-.1431-.1506-.138-.4625.0413-.1959.1126-1.6064.8517-3.1343,1.6425-1.528.7908-2.9912,1.5724-3.2516,1.7371-.2603.1646-.4977.2748-.5276.245s.2327-.3643.5833-.7433c.3507-.379.9335-1.0567,1.2953-1.5061s.9134-1.1726,1.2259-1.6071q.5682-.7899.1529-.7899c-.2284,0-1.0746.051-1.8806.1132-.8059.0623-2.2988.2138-3.3175.3366-1.0187.1229-2.5366.3394-3.3733.4811-.8366.1417-1.5423.2365-1.5682.2106-.0259-.0259.2909-.1997.704-.3861.4131-.1865,1.2168-.5252,1.7861-.7526.5693-.2275,1.795-.6591,2.7237-.9593.9288-.3002,2.4977-.7264,3.4863-.9471.9887-.2207,1.9191-.4257,2.0674-.4556q.2697-.0542,0-.2667c-.1483-.1169-.6619-.4744-1.1413-.7946-.4794-.3202-1.5105-.944-2.2914-1.3863-.7809-.4423-1.9184-1.0493-2.5278-1.3489-.6094-.2996-1.1104-.5722-1.1133-.6057-.0029-.0335.3747-.021.8391.0278s1.2856.1634,1.8249.2546c.5393.0912,1.4953.288,2.1245.4374.6292.1494,1.6832.4472,2.3424.6617.6592.2146,1.7229.6038,2.364.865.641.2612,1.4708.629,1.8439.8173q.6784.3425,1.7651.1614c.5977-.0996,1.501-.2103,2.0074-.246q.9207-.065.6788.415c-.133.264-.4037.6796-.6014.9235s-.5963.6068-.8857.8064q-.5262.3629-.5402,1.681c-.0077.725-.0978,1.931-.2003,2.68-.1025.749-.3327,2.0956-.5115,2.9924-.1788.8968-.4703,2.0838-.6478,2.6379s-.3625,1.0321-.411,1.0621c-.0486.03-.1204-.6668-.1595-1.5485h0Z"/></svg>