<?xml version="1.0" encoding="UTF-8"?><svg id="a" xmlns="http://www.w3.org/2000/svg" viewBox="0 0 48 48"><defs><style>.b{fill:none;stroke:#000;stroke-linecap:round;stroke-linejoin:round;}</style></defs><path class="b" d="M39.5,8.4H8.5c-2.2091,0-4,1.7909-4,4v23.2c0,2.2091,1.7909,4,4,4h31c2.2091,0,4-1.7909,4-4V12.4c0-2.2091-1.7909-4-4-4Z"/><path class="b" d="M36.9986,21.7541l2.925,3.12c.2503.221.274.603.053.8532-.0014.0016-.0028.0032-.0042.0048l-2.925,3.12"/><polyline class="b" points="7.872 29.8831 7.872 16.1077 14.7467 29.8983 21.6215 16.1287 21.6215 29.8983"/><line class="b" x1="31.8828" y1="16.1361" x2="31.8828" y2="29.87"/><rect class="b" x="25.0159" y="20.7362" width="6.8669" height="9.1338" rx="3.4335" ry="3.4335"/></svg>