<?xml version="1.0" encoding="UTF-8"?><svg id="a" xmlns="http://www.w3.org/2000/svg" viewBox="0 0 48 48"><defs><style>.b{fill:none;stroke:#000;stroke-linecap:round;stroke-linejoin:round;}</style></defs><circle class="b" cx="14.2848" cy="31.6789" r="8.7845"/><polyline class="b" points="12.4831 23.0887 10.3718 17.1377 25.2871 15.7738 27.775 22.8057 30.4886 30.4627 23.0508 31.1476"/><polygon class="b" points="25.2858 15.7703 10.3693 17.1355 22.3836 8.9012 37.3001 7.536 25.2858 15.7703"/><polygon class="b" points="30.486 30.4602 42.5003 22.226 37.3001 7.536 25.2858 15.7703 30.486 30.4602"/><path class="b" d="M21.1083,26.1503c1.1146-.3309,1.8663-1.3913,1.7532-2.5853-.1269-1.3396-1.3171-2.3239-2.6665-2.1961-1.2426.1177-2.1736,1.1462-2.2061,2.354"/><line class="b" x1="22.8385" y1="23.3223" x2="27.7766" y2="22.8063"/><line class="b" x1="39.98" y1="15.1063" x2="27.7766" y2="22.8063"/></svg>