<?xml version="1.0" encoding="UTF-8"?><svg id="a" xmlns="http://www.w3.org/2000/svg" viewBox="0 0 48 48"><defs><style>.b{stroke-width:1px;}.b,.c{fill:none;stroke:#000;stroke-linecap:round;stroke-linejoin:round;}</style></defs><path class="c" d="M38.5,5.5H9.5c-2.2091,0-4,1.7909-4,4v29c0,2.2091,1.7909,4,4,4h29c2.2091,0,4-1.7909,4-4V9.5c0-2.2091-1.7909-4-4-4Z"/><line class="c" x1="22.0303" y1="18.956" x2="28.7133" y2="18.956"/><line class="c" x1="25.4343" y1="29.044" x2="25.4343" y2="18.956"/><path class="b" d="M9.6813,25.009c0-1.387,1.1348-2.5218,2.5218-2.5218s2.5218,1.1348,2.5218,2.5218v4.0349"/><line class="b" x1="9.6813" y1="22.4872" x2="9.6813" y2="29.0438"/><path class="b" d="M14.7249,25.009c0-1.387,1.1348-2.5218,2.5218-2.5218s2.5218,1.1348,2.5218,2.5218v4.0349"/><line class="c" x1="31.6357" y1="18.956" x2="38.3187" y2="18.956"/><line class="c" x1="35.0407" y1="29.044" x2="35.0407" y2="18.956"/></svg>