<?xml version="1.0" encoding="UTF-8"?><svg id="b" xmlns="http://www.w3.org/2000/svg" viewBox="0 0 48 48"><defs><style>.d{fill:none;stroke:#000;stroke-linecap:round;stroke-linejoin:round;}.e{fill:#000;stroke-width:0px;}</style></defs><path id="c" class="d" d="M37.7196,8.8813h2.5528c1.8699,0,2.3748-1.3299,2.1929-2.9078h-4.7457v9.6164M37.7196,15.8628c0,1.5203-1.2325,2.7528-2.7528,2.7528s-2.7528-1.2325-2.7528-2.7528,1.2325-2.7528,2.7528-2.7528c1.5203,0,2.7528,1.2325,2.7528,2.7528ZM9.1684,22.6744c-1.0736.9068-1.2088,2.5122-.302,3.5858.9068,1.0736,2.5122,1.2088,3.5858.302s1.2088-2.5122.302-3.5858-2.5122-1.2088-3.5858-.302h0M14.866,21.1915c-1.8923-2.2402-5.2423-2.5222-7.4825-.63-2.2402,1.8923-2.5222,5.2423-.63,7.4825,1.8923,2.2402,5.2423,2.5222,7.4825.63h0c.9021-.7591,1.5212-1.8007,1.7569-2.9558l3.8998-.009c.453,0,.9449.205,1.2399.554s.415.8679.34,1.3139l-.661,3.8448c-1.1782.0388-2.3086.4747-3.2078,1.2369-2.2412,1.8911-2.525,5.241-.6339,7.4822,1.8911,2.2412,5.241,2.525,7.4822.6339.0014-.0012.0028-.0024.0043-.0036h0c2.2402-1.8923,2.5222-5.2423.63-7.4825-.4751-.5634-1.064-1.02-1.7279-1.3399l.696-4.0767,13.6081-1.1799c1.7799-.154,3.6258-2.0039,4.5347-3.6118l-17.3289.028,2.9218-17.0809c-1.7369.627-3.8698,2.1379-4.3197,3.8678l-3.4358,13.2192-4.1357.006c-.2041-.7087-.5562-1.3662-1.0329-1.9289ZM22.6725,38.6584c-1.0703.9109-2.6764.7817-3.5873-.2887-.9109-1.0703-.7817-2.6764.2887-3.5873.0046-.0039.0092-.0078.0139-.0117,1.0768-.9032,2.682-.7625,3.5852.3143.8987,1.0714.7645,2.6672-.3004,3.5735h0"/><circle class="e" cx="23.0987" cy="24.6883" r=".75"/></svg>