<?xml version="1.0" encoding="UTF-8"?><svg id="b" xmlns="http://www.w3.org/2000/svg" viewBox="0 0 48 48"><defs><style>.c{fill:none;stroke:#000;stroke-linecap:round;stroke-linejoin:round;}</style></defs><polygon class="c" points="34.2991 16.7289 18.0412 18.983 18.0412 13.2312 34.2991 10.9771 34.2991 16.7289"/><line class="c" x1="34.2991" y1="16.7289" x2="34.2991" y2="27.8373"/><line class="c" x1="18.0412" y1="18.983" x2="18.0412" y2="32.5074"/><circle class="c" cx="14.3103" cy="32.5074" r="3.7309"/><circle class="c" cx="30.5682" cy="27.8373" r="3.7309"/><line class="c" x1="38.5" y1="42.4992" x2="38.5" y2="34.4992"/><polyline class="c" points="35.2034 39.2026 38.5 42.4992 41.7966 39.2026"/><circle class="c" cx="38.5" cy="38.4992" r="7"/><path class="c" d="m33.4316,43.3262c-2.8476,1.3923-6.0483,2.1738-9.4316,2.1738-11.8741,0-21.5-9.6259-21.5-21.5S12.1259,2.5,24,2.5s21.5,9.6259,21.5,21.5c0,3.3829-.7813,6.5833-2.1733,9.4307"/></svg>