<svg xmlns="http://www.w3.org/2000/svg" viewBox="0 0 48 48"><defs><style>.a{fill:none;stroke:#000;stroke-linecap:round;stroke-linejoin:round;}.b{fill:#000;}</style></defs><path class="a" d="M7.5465,15.4522a1.7106,1.7106,0,1,1,3.4211,0v2.7369"/><line class="a" x1="7.5465" y1="13.7416" x2="7.5465" y2="18.1891"/><path class="a" d="M10.9676,15.4522a1.7106,1.7106,0,0,1,3.4212,0v2.7369"/><line class="a" x1="17.578" y1="18.2747" x2="15.7819" y2="13.7416"/><path class="a" d="M19.203,13.7416,17.0648,19.9a1.0007,1.0007,0,0,1-.9408.6843h-.2566"/><path class="a" d="M17.833,27.0819a1.7156,1.7156,0,0,0-1.7106-1.7106h0a1.7156,1.7156,0,0,0-1.7106,1.7106v1.1118a1.7156,1.7156,0,0,0,1.7106,1.7106h0a1.7156,1.7156,0,0,0,1.7106-1.7106"/><line class="a" x1="17.833" y1="29.9043" x2="17.833" y2="23.062"/><circle class="b" cx="19.9945" cy="23.5086" r="0.75"/><line class="a" x1="19.9945" y1="25.5613" x2="19.9945" y2="30.0944"/><path class="a" d="M21.7886,29.7279a2.0218,2.0218,0,0,0,1.3684.3421h.3421a1.1322,1.1322,0,0,0,1.1119-1.1119h0a1.1322,1.1322,0,0,0-1.1119-1.1119h-.77a1.1322,1.1322,0,0,1-1.1119-1.1119h0a1.1322,1.1322,0,0,1,1.1119-1.1119h.3421c.77,0,1.1119.0856,1.3685.3422"/><line class="a" x1="26.0888" y1="23.252" x2="26.0888" y2="30.0944"/><path class="a" d="M26.0888,27.2719a1.7106,1.7106,0,0,1,3.4212,0v2.8225"/><path class="a" d="M31.7876,23.9522V29.084a.808.808,0,0,0,.8553.8553H32.9"/><line class="a" x1="30.9323" y1="25.4062" x2="32.7284" y2="25.4062"/><polyline class="a" points="37.529 25.561 35.818 30.094 34.108 25.561"/><path class="a" d="M22.17,22.0506c23.2873-6.5219,20.6664,3.4894,16.2585,7.9578"/><path class="a" d="M5.4682,12.4122C-.8508,31.2619,25.1373,40.8234,43.5,32.65"/></svg>