<?xml version="1.0" encoding="UTF-8"?><svg id="a" xmlns="http://www.w3.org/2000/svg" viewBox="0 0 48 48"><defs><style>.b{fill:none;stroke:#000;stroke-linecap:round;stroke-linejoin:round;}</style></defs><path class="b" d="m43.5,13.8v7.3l-3.9,2.9v10.2c0,.8-.7,1.5-1.6,1.5H6.5c-1.1,0-2-.7-2-1.5v-7.3l3.9-2.9v-10.2c0-.8.7-1.5,1.6-1.5h31.5c1.1,0,2,.7,2,1.5Z"/><path class="b" d="m25.2,25.4c0-1.3,1.1-2.4,2.4-2.4s2.4,1.1,2.4,2.4v3.8"/><line class="b" x1="25.2" y1="23" x2="25.2" y2="29.2"/><path class="b" d="m30,25.4c0-1.3,1.1-2.4,2.4-2.4s2.4,1.1,2.4,2.4v3.8"/><line class="b" x1="13.3" y1="19.7" x2="13.3" y2="29.2"/><line class="b" x1="13.3" y1="27.2" x2="17.6" y2="22.9"/><line class="b" x1="14.7" y1="25.8" x2="18.1" y2="29.2"/><line class="b" x1="16.4" y1="21.2" x2="27.6" y2="21.2"/><line class="b" x1="21.3" y1="29.2" x2="21.3" y2="21.2"/></svg>