<svg xmlns="http://www.w3.org/2000/svg" viewBox="0 0 48 48"><defs><style>.a{fill:none;stroke:#000;stroke-linecap:round;stroke-linejoin:round;}</style></defs><path class="a" d="M24,4.5c-2.2719,1.8932-6.579,4.4491-11.3594,1.1359A10.131,10.131,0,0,1,7.9075,9.7537c1.7039,3.6445,1.4673,4.4491,1.4673,7.2416S6.7716,24.9942,6.7716,28.4967c0,3.9442,2.0352,11.3357,12.306,12.2113C21.0907,40.88,22.6984,42.44,24,43.5"/><path class="a" d="M24,4.5c2.2719,1.8932,6.579,4.4491,11.3594,1.1359a10.131,10.131,0,0,0,4.7331,4.1178c-1.7039,3.6445-1.4673,4.4491-1.4673,7.2416s2.6032,7.9989,2.6032,11.5014c0,3.9442-2.0352,11.3357-12.306,12.2113C26.9093,40.88,25.3016,42.44,24,43.5"/><line class="a" x1="36.0862" y1="6.637" x2="6.8281" y2="29.6502"/><line class="a" x1="39.0524" y1="19.5541" x2="13.767" y2="39.4425"/><polyline class="a" points="30.914 14.255 30.914 22.546 35.059 19.204"/><polyline class="a" points="14.338 35.465 14.338 27.174 19.831 31.037 19.831 22.746"/><line class="a" x1="22.9887" y1="20.358" x2="22.9887" y2="28.6488"/><line class="a" x1="27.7862" y1="16.4746" x2="27.7862" y2="24.7655"/><line class="a" x1="22.9887" y1="24.4878" x2="27.7862" y2="20.6045"/><line class="a" x1="22.9887" y1="20.358" x2="21.9387" y2="21.2046"/><line class="a" x1="30.9138" y1="14.2553" x2="29.8637" y2="15.1018"/><line class="a" x1="14.3385" y1="27.1742" x2="13.2884" y2="28.0208"/></svg>