<?xml version="1.0" encoding="UTF-8"?><svg id="b" xmlns="http://www.w3.org/2000/svg" viewBox="0 0 48 48"><defs><style>.c{fill:none;stroke:#000;stroke-linecap:round;stroke-linejoin:round;}.d{fill:#000;stroke-width:0px;}</style></defs><path class="c" d="M38.5006,5.4992H9.4994c-2.2001,0-4.0002,1.8001-4.0002,4.0002v29.0013c0,2.2001,1.8001,4.0002,4.0002,4.0002h29.0013c2.2001,0,4.0002-1.8001,4.0002-4.0002V9.4994c0-2.2001-1.8001-4.0002-4.0002-4.0002Z"/><path class="c" d="M30.7538,19.1015v11.3005c0,2.0804-1.6706,3.7668-3.7314,3.7668h0c-1.0304,0-1.9633-.4216-2.6385-1.1033"/><circle class="d" cx="30.7538" cy="14.5813" r=".75"/><path class="c" d="M24.0298,29.0835v-6.2153c0-2.0804-1.6865-3.7668-3.7668-3.7668h0c-2.0804,0-3.7668,1.6865-3.7668,3.7668"/><line class="c" x1="16.4962" y1="29.0835" x2="16.4962" y2="19.1015"/></svg>