<?xml version="1.0" encoding="UTF-8"?><svg id="b" xmlns="http://www.w3.org/2000/svg" viewBox="0 0 48 48"><defs><style>.c{fill:none;stroke:#000;stroke-linecap:round;stroke-linejoin:round;}</style></defs><path class="c" d="M38.5,5.5H9.5c-2.2091,0-4,1.7909-4,4v29c0,2.2091,1.7909,4,4,4h29c2.2091,0,4-1.7909,4-4V9.5c0-2.2091-1.7909-4-4-4Z"/><polyline class="c" points="36.4045 19 31.3288 29 29.7795 19"/><path class="c" d="M27.1878,25.6465l-.0072.041c-.3226,1.8294-2.0671,3.3125-3.8966,3.3125h0c-1.8294,0-3.051-1.4831-2.7284-3.3125l.5951-3.375c.3226-1.8294,2.0671-3.3125,3.8966-3.3125h0c1.8294,0,3.051,1.4831,2.7284,3.3125l-.0072.041"/><path class="c" d="M14.3756,29h0c-1.8294,0-3.051-1.4831-2.7284-3.3125l.5951-3.375c.3226-1.8294,2.0671-3.3125,3.8966-3.3125h0c1.8294,0,3.051,1.4831,2.7284,3.3125l-.5951,3.375c-.3226,1.8294-2.0671,3.3125-3.8966,3.3125Z"/></svg>