<svg xmlns="http://www.w3.org/2000/svg" viewBox="0 0 48 48"><defs><style>.a{fill:none;stroke:#000;stroke-linecap:round;stroke-linejoin:round;}</style></defs><circle class="a" cx="24" cy="24.09" r="21.5"/><path class="a" d="M14,11.35c-4.36.39-6.63,3.88-6.28,7.76"/><path class="a" d="M8.5,14.77c-4.1,2.94-3.85,13.12.28,16.37"/><path class="a" d="M7.3,29.43c.44,5.64,7.18,9.34,16.7,9.34,16.43,0,17.83-12.56,17.83-17.41,0-3-1.52-5.92-4-7"/><circle class="a" cx="17.67" cy="23.96" r="4"/><circle class="a" cx="30.33" cy="23.96" r="4"/><path class="a" d="M31.67,11.22c5.23.71,8,4.08,8.65,9"/><path class="a" d="M15.46,10.13c-1.1.68-2.09,2.76-2.28,4.4,0,0,3,1,7.49-2.82"/><path class="a" d="M26.81,10.74c-1.3,2.06-4.71,3.68-6.71,4.19A5.69,5.69,0,0,1,20,12.29"/><path class="a" d="M31.23,9.88a8.42,8.42,0,0,1,.51,4.44s-4.12-.42-5.83-2.5"/></svg>