<svg xmlns="http://www.w3.org/2000/svg" viewBox="0 0 48 48"><defs><style>.a{fill:none;stroke:#000;stroke-linecap:round;stroke-linejoin:round;}</style></defs><path class="a" d="M24,33.4615,14.5385,24,24,14.5385,33.4615,24Z"/><path class="a" d="M24,8.2308,8.2308,24,24,39.7692,39.7692,24Z"/><path class="a" d="M25.5769,6.6538,28.7308,3.5"/><path class="a" d="M41.3462,22.4231,44.5,19.2692"/><path class="a" d="M38.1923,19.2692l3.1539-3.1538"/><path class="a" d="M28.7308,9.8077l3.1538-3.1539"/><path class="a" d="M41.3462,25.5769,44.5,28.7308"/><path class="a" d="M38.1923,28.7308l3.1539,3.1538"/><path class="a" d="M25.5769,41.3462,28.7308,44.5"/><path class="a" d="M28.7308,38.1923l3.1538,3.1539"/><path class="a" d="M22.4231,6.6538,19.2692,3.5"/><path class="a" d="M19.2692,9.8077,16.1154,6.6538"/><path class="a" d="M22.4231,41.3462,19.2692,44.5"/><path class="a" d="M19.2692,38.1923l-3.1538,3.1539"/><path class="a" d="M6.6538,25.5769,3.5,28.7308"/><path class="a" d="M9.8077,28.7308,6.6538,31.8846"/><path class="a" d="M6.6538,22.4231,3.5,19.2692"/><path class="a" d="M9.8077,19.2692,6.6538,16.1154"/><path class="a" d="M16.1154,12.9615,12.9615,9.8077"/><path class="a" d="M12.9615,16.1154,9.8077,12.9615"/><path class="a" d="M31.8846,12.9615l3.1539-3.1538"/><path class="a" d="M35.0385,16.1154l3.1538-3.1539h0"/><path class="a" d="M31.8846,35.0385l3.1539,3.1538h0"/><path class="a" d="M35.0385,31.8846l3.1538,3.1539"/><path class="a" d="M16.1154,35.0385l-3.1539,3.1538"/><path class="a" d="M12.9615,31.8846,9.8077,35.0385"/></svg>