<?xml version="1.0" encoding="UTF-8"?><svg id="b" xmlns="http://www.w3.org/2000/svg" viewBox="0 0 48 48"><defs><style>.d{fill:none;stroke:#000;stroke-linecap:round;stroke-linejoin:round;}</style></defs><path id="c" class="d" d="m42.9181,24.9749l-6.1192,7.014m-6.2691-8.8066l.6046,3.3996,2.0844-.28,2.5348.8849-.7501,3.1158c.668.3615,1.2679.8092,1.8653,1.2725l1.3891,5.7398c-.4006,1.4285-1.7659,2.2175-2.8639,3.1188-2.218-.233-4.0592,1.2011-5.8992,2.2495-3.7926.788-5.9468.4819-9.6486-.3739-4.9111-.7983-12.0781-5.2891-14.4414-12.4679-2.2066-4.5664-1.3415-9.7645-.575-14.3422,8.9071.8237,13.2409,8.9637,19.0444,14.7138-4.2703,2.3143-4.699,7.4965-3.896,11.9067m13.3748-15.988c2.4996-5.7157,4.9003-11.5476,6.6553-17.5383,2.1383,1.4604,2.9707,3.9544,3.9914,6.218l-2.8989,7.656-1.8725-.3467v1.8215h-1.7698c.0612.5502-.0076,1.2174-.1779,2.0647l-1.3775,1.0641m-27.2526-10.9466c3.2638-12.8659,25.5513-17.9547,24.8317,2.5085h-2.0491l.6791,1.7698c-6.3788.4748-9.3432-5.2661-12.225-10.0286-.5458,1.0829-.7161,2.0623-.7161,3.258-1.3351,2.2606-1.8121,4.8572-2.513,7.3605l-1.5017-1.5672,2.3051-6.828-1.9149.5753c-1.5426-.8717-3.0463-1.3375-4.8199-1.4209m21.876-.4567c1.7308-1.5224,3.9658-3.2649,5.7405-4.7354m-3.2942,23.7118c-6.4908-1.9415-11.3096,2.1268-13.5186,1.391-9.5989-6.1441-10.3306-4.6502-16.2127-1.976m18.6719.529c1.2122-1.3101,2.5864-2.3759,4.0301-3.4039v-2.181l-1.4748-.5951,3.1001-.0931c.8754-.9997,1.5799-2.1315,2.3322-3.2236m-11.735-3.4333c.6041,2.3351,5.3878,4.3759,5.0367,5.8432m-12.0071-5.7529l-.5272-1.8293,1.7071.963c.2945-2.3169-1.4609-3.3056-3.5395-3.7755-.206,1.9044.4428,3.5747,1.1506,5.3093.9153.0588.9009-.014,1.209-.6675Zm26.3797,5.3008l3.1567,2.3154-7.1486,3.906"/></svg>