<?xml version="1.0" encoding="UTF-8"?><svg id="b" xmlns="http://www.w3.org/2000/svg" viewBox="0 0 48 48"><defs><style>.c{fill:none;stroke:#000;stroke-linecap:round;stroke-linejoin:round;}</style></defs><path class="c" d="m5.5,32.865v10.0389h11.508l17.2755-17.9829c4.2713.9794,3.8632,3.1558,2.7478,4.0264s-3.0742-.8434-3.0742-.8434c0,3.7,3.6728,5.0602,6.2845,1.6051,2.6117-3.4551,1.4147-7.3183-2.0676-7.944l-15.6432-7.5359c-3.1014-3.0198-5.8492-2.3941-7.5632.2176-1.714,2.6117-1.4147,4.5705,2.0132,5.5227-1.0338-1.8772-1.1426-4.6249.7073-4.1625s2.8294,2.0404,2.8294,2.0404l-15.0175,15.0175Z"/><line class="c" x1="22.1169" y1="26.3872" x2="5.5" y2="42.9039"/><path class="c" d="m34.4802,19.9858s3.9929-1.6757,4.4282-5.8926c.2177-2.1091,2.7478,6.5293-.7346,7.672-3.4755.136-3.8904,3.1558-3.8904,3.1558"/><path class="c" d="m20.5175,17.8476c2.2037-.823,2.0132-3.6183,2.0132-3.6183,0,0,4.8698-7.5632,8.6786-3.3735-4.2441.4081-4.8958,5.1958-4.8958,5.1958"/><path class="c" d="m30.0417,17.8476c.1474-.1292,8.6151-8.8418,8.6151-8.8418"/><path class="c" d="m41.6535,6.0267c1.4856,1.3841.6761,2.5097.1252,3.1626s-1.7791,1.1018-3.1218-.1836c-1.1291-1.081-.9174-2.5154-.2236-3.2295s1.6872-1.1778,3.2203.2505Z"/><polyline class="c" points="16.247 22.118 22.118 19.8854 21.7652 21.8415 22.1169 26.3872 28.5223 26.104 30.451 25.1601 30.451 28.9105"/></svg>