<?xml version="1.0" encoding="UTF-8"?><svg id="a" xmlns="http://www.w3.org/2000/svg" viewBox="0 0 48 48"><defs><style>.e{fill:none;stroke:#000;stroke-linecap:round;stroke-linejoin:round;}</style></defs><path id="b" class="e" d="m39.8571,21.3571v21.1429c-4.9451-5.039-10.9121-5.039-15.8571,0-4.9451-5.039-10.9121-5.039-15.8571,0v-21.1429C9.4584.2143,38.5298.2143,39.8571,21.3571Z"/><path id="c" class="e" d="m17.3987,17.3987c2.1848,0,3.9584,1.7737,3.9584,3.9584s-1.7737,3.9702-3.9584,3.9702c-2.1965,0-3.9702-1.7854-3.9702-3.9702s1.7736-3.9584,3.9702-3.9584Z"/><path id="d" class="e" d="m30.613,17.3987c2.1848,0,3.9584,1.7737,3.9584,3.9584s-1.7737,3.9702-3.9584,3.9702c-2.1965,0-3.9702-1.7854-3.9702-3.9702s1.7737-3.9584,3.9702-3.9584Z"/></svg>