<svg xmlns="http://www.w3.org/2000/svg" viewBox="0 0 48 48"><defs><style>.a{fill:none;stroke:#000;stroke-linecap:round;stroke-linejoin:round;}.b{fill:#000;}</style></defs><path class="a" d="M11.3478,30.3767c-.3062-1.0419-.25-2.2747-.509-3.4836A11.412,11.412,0,0,0,8.89,22.3158C1.736,12.7279,9.1527,4.6074,16.2711,4.5c10.24.0517,13.39,9.0829,10.2282,15.4457a44.9542,44.9542,0,0,0-2.7122,4.784A15.6922,15.6922,0,0,0,22.443,30.44a33.8659,33.8659,0,0,1-11.0991-.0677"/><path class="a" d="M11.3478,30.3767c-1.022,1.1533-.9942,2.2787-.1392,3.1655a89.7,89.7,0,0,0,11.4133.2307,2.3692,2.3692,0,0,0-.175-3.3325"/><path class="a" d="M11.5705,33.8047a2.1176,2.1176,0,0,0,.1631,2.4735c1.2527.43,9.1505.4375,10.2839.171a2.1344,2.1344,0,0,0,.159-2.6087"/><path class="a" d="M13.4754,36.6a1.6982,1.6982,0,0,0,.1829,2.1475c.8749.8351,4.7761.8709,6.1879.1074.7794-.6244.7118-1.2806.4374-2.1634M21.588,39.73h7.1979M25.9743,24.8371H39.5748m-11.0673-4.442h8.2041c2.8871-.0676,3.0342,1.6861,3.0461,2.1713V31.347M33.57,17.7983V21.775m1.3322,12.6938,1.1294,3.1456,2.8514-.7635"/><circle class="b" cx="26.3481" cy="28.4559" r="0.75"/><circle class="b" cx="31.0646" cy="28.44" r="0.75"/><circle class="b" cx="35.7969" cy="28.44" r="0.75"/><circle class="b" cx="26.3203" cy="34.6517" r="0.75"/><path class="a" d="M12.521,19.385c.7675-.02,1.4435,1.05,1.9724,1.05.7556-.04,1.5629-1.0657,2.3344-1.018.6681-.0159,1.5748,1.05,2.2031,1.018.7,0,1.034-1.07,1.9089-1.1134"/><path class="a" d="M19.2377,20.4348,16.8119,29.84,14.33,20.4189"/><circle class="a" cx="36.2463" cy="37.7258" r="5.7742"/></svg>