<svg xmlns="http://www.w3.org/2000/svg" viewBox="0 0 48 48"><defs><style>.a{fill:none;stroke:#000;stroke-linecap:round;stroke-linejoin:round;}</style></defs><path class="a" d="M19.2061,37.3172l6.6778,2.4213V15.0043a.9957.9957,0,0,1,1.3356-.9316h0a2.0223,2.0223,0,0,1,1.3356,1.9V26.1792a5.0322,5.0322,0,0,0,6.6779-4.8436A10.3762,10.3762,0,0,0,28.38,11.5879L19.2061,8.2615Z"/><path class="a" d="M16.53,26.5844l-10.28,3.68A2.645,2.645,0,0,0,4.661,33.6582a4.0055,4.0055,0,0,0,1.8132,1.8147,14.164,14.164,0,0,0,10.6577.5181c.0988-.03,1.9759-.6469,2.0742-.6793V31.4376l-5.7853,2.0379a4.26,4.26,0,0,1-2.788.0317c-.2685-.0973-.6953-.6284.1169-1l5.78-2.0485Z"/><path class="a" d="M25.8839,29.1117c.2538-.0867,2.2277-.7694,2.4838-.8459a20.6768,20.6768,0,0,1,13.3254.511,2.8317,2.8317,0,0,1,1.6093,3.6752,2.9092,2.9092,0,0,1-1.743,1.6517L25.8839,39.7385V35.8644L37.61,31.6617a.7758.7758,0,0,0,0-1.46,5.8784,5.8784,0,0,0-4.0067.0071l-7.7192,2.7768Z"/></svg>