<?xml version="1.0" encoding="UTF-8"?>
<svg id="a" xmlns="http://www.w3.org/2000/svg" version="1.1" viewBox="0 0 48 48">
  <defs>
    <style>
      .cls-1 {
        fill: none;
        stroke:#000;
        stroke-linecap: round;
        stroke-linejoin: round;
      }
    </style>
  </defs>
  <line class="cls-1" x1="17.5" y1="28.2" x2="21.6" y2="28.2"/>
  <line class="cls-1" x1="17.5" y1="19.8" x2="21.6" y2="19.8"/>
  <line class="cls-1" x1="17.5" y1="24" x2="20.2" y2="24"/>
  <line class="cls-1" x1="17.5" y1="19.8" x2="17.5" y2="28.2"/>
  <line class="cls-1" x1="34.3" y1="28.2" x2="38.5" y2="28.2"/>
  <line class="cls-1" x1="34.3" y1="19.8" x2="38.5" y2="19.8"/>
  <line class="cls-1" x1="34.3" y1="24" x2="37" y2="24"/>
  <line class="cls-1" x1="34.3" y1="19.8" x2="34.3" y2="28.2"/>
  <path class="cls-1" d="M9.5,28.2v-8.3h2.7c1.6,0,2.8,1.3,2.8,2.8s-1.3,2.8-2.8,2.8h-2.7"/>
  <line class="cls-1" x1="12.4" y1="25.5" x2="15" y2="28.2"/>
  <polyline class="cls-1" points="32.1 19.8 30 28.2 27.9 19.8 25.8 28.2 23.7 19.8"/>
  <path class="cls-1" d="M38.5,5.5H9.5c-2.2,0-4,1.8-4,4v29c0,2.2,1.8,4,4,4h29c2.2,0,4-1.8,4-4V9.5c0-2.2-1.8-4-4-4Z"/>
</svg>