<?xml version="1.0" encoding="UTF-8"?><svg id="b" xmlns="http://www.w3.org/2000/svg" viewBox="0 0 48 48"><defs><style>.c{fill:none;stroke:#000;stroke-linecap:round;stroke-linejoin:round;}</style></defs><line class="c" x1="11.5774" y1="43.5" x2="36.4226" y2="43.5"/><line class="c" x1="33.9212" y1="27.0243" x2="33.9212" y2="28.18"/><line class="c" x1="31.6936" y1="24.5725" x2="32.8492" y2="25.5972"/><line class="c" x1="31.6936" y1="30.6036" x2="32.8492" y2="30.6036"/><line class="c" x1="31.7125" y1="27.6021" x2="33.9212" y2="27.6021"/><line class="c" x1="31.6844" y1="24.5725" x2="31.6844" y2="30.6036"/><line class="c" x1="29.552" y1="27.0243" x2="29.552" y2="28.18"/><line class="c" x1="31.6753" y1="24.5725" x2="30.5196" y2="25.5972"/><line class="c" x1="31.6753" y1="30.6036" x2="30.5196" y2="30.6036"/><line class="c" x1="31.7125" y1="27.6021" x2="29.552" y2="27.6021"/><line class="c" x1="31.6844" y1="24.5725" x2="31.6844" y2="30.6036"/><line class="c" x1="18.5425" y1="27.0243" x2="18.5425" y2="28.18"/><line class="c" x1="16.3149" y1="24.5725" x2="17.4706" y2="25.5972"/><line class="c" x1="16.3149" y1="30.6036" x2="17.4706" y2="30.6036"/><line class="c" x1="16.3338" y1="27.6021" x2="18.5425" y2="27.6021"/><line class="c" x1="16.3058" y1="24.5725" x2="16.3058" y2="30.6036"/><line class="c" x1="14.1733" y1="27.0243" x2="14.1733" y2="28.18"/><line class="c" x1="16.2966" y1="24.5725" x2="15.1409" y2="25.5972"/><line class="c" x1="16.2966" y1="30.6036" x2="15.1409" y2="30.6036"/><line class="c" x1="16.3338" y1="27.6021" x2="14.1733" y2="27.6021"/><line class="c" x1="16.3058" y1="24.5725" x2="16.3058" y2="30.6036"/><line class="c" x1="26.9944" y1="27.0243" x2="26.9944" y2="28.18"/><line class="c" x1="23.955" y1="24.6006" x2="25.1107" y2="24.6006"/><line class="c" x1="23.955" y1="30.6317" x2="25.1107" y2="30.6317"/><line class="c" x1="23.974" y1="27.6021" x2="26.9944" y2="27.6021"/><line class="c" x1="23.9459" y1="24.6006" x2="23.9459" y2="30.6317"/><line class="c" x1="20.9444" y1="27.0243" x2="20.9444" y2="28.18"/><line class="c" x1="23.9367" y1="24.6006" x2="22.7811" y2="24.6006"/><line class="c" x1="23.9367" y1="30.6317" x2="22.7811" y2="30.6317"/><line class="c" x1="23.974" y1="27.6021" x2="20.9444" y2="27.6021"/><line class="c" x1="23.9459" y1="24.6006" x2="23.9459" y2="30.6317"/><line class="c" x1="26.5855" y1="6.6273" x2="26.5855" y2="7.6279"/><polyline class="c" points="24.9545 4.5044 23.9459 4.5044 22.9373 4.5044"/><line class="c" x1="23.9538" y1="9.7508" x2="24.9545" y2="9.7508"/><polyline class="c" points="26.5448 7.1276 23.9459 7.1276 21.347 7.1276"/><polyline class="c" points="23.9459 9.7265 23.95 4.5 23.95 9.7429"/><line class="c" x1="21.3063" y1="6.6273" x2="21.3063" y2="7.6279"/><line class="c" x1="23.938" y1="9.7508" x2="22.9373" y2="9.7508"/><path class="c" d="M20.7479,22.9184c-3.024-.3677-9.6782-3.2818-10.0067,2.4809"/><polygon class="c" points="10.4625 41.3502 10.4625 38.7269 24 38.7269 37.5375 38.7269 37.5375 41.3502 24 41.3502 10.4625 41.3502"/><polyline class="c" points="11.5118 34.3978 24 34.3978 36.4882 34.3978"/><path class="c" d="M26.1592,13.6037c0,1.2315-.9983,2.2297-2.2297,2.2297h0c-1.2315,0-2.2297-.9983-2.2297-2.2297s.9983-2.2297,2.2297-2.2297,2.2297.9983,2.2297,2.2297Z"/><path class="c" d="M27.252,22.9184c3.024-.3677,9.6782-3.2818,10.0067,2.4809"/><path class="c" d="M24.006,22.8952h1.6095v-5.5183c1.3901.0785,3.0252.3345,5.404-.6188,2.827-.9806,3.9648-1.0581,5.4771-1.0633,6.6893,1.4388,5.3233,6.9563,4.0644,9.0553-.3316.5566-2.0386,1.9381-3.8953,7.4978H11.3343c-1.8567-5.5597-3.5637-6.9412-3.8953-7.4978-1.2589-2.0989-2.6249-7.6164,4.0644-9.0553,1.5123.0051,2.6501.0827,5.4771,1.0633,2.3788.9533,4.014.6972,5.404.6188v5.5183h1.6095"/><polyline class="c" points="22.0047 36.5771 24 36.5771 25.9953 36.5771"/><line class="c" x1="16.4304" y1="36.5771" x2="18.5945" y2="36.5771"/><line class="c" x1="11.5774" y1="36.5476" x2="13.6104" y2="36.5476"/><line class="c" x1="31.5696" y1="36.5771" x2="29.4055" y2="36.5771"/><line class="c" x1="36.4226" y1="36.5771" x2="34.3896" y2="36.5771"/></svg>