<svg xmlns="http://www.w3.org/2000/svg" viewBox="0 0 48 48"><defs><style>.a{fill:none;stroke:#000;stroke-linecap:round;stroke-linejoin:round;}</style></defs><ellipse class="a" cx="19.7809" cy="9.6001" rx="5.1236" ry="5.0874" transform="translate(-1.8914 13.3092) rotate(-35.6)"/><path class="a" d="M14.765,43.4674C16.6732,39.0209,12.35,30.95,12.9292,27.4411c.7966-3.0234,2.082-9.1537-.0362-13.8211,1.1116,1.557,1.2637.9958.9378-.6155.6192.7024,1.4954,2.8424,1.5859.5431.6156,2.5673,1.3108,1.3072,1.7381.6626a3.6785,3.6785,0,0,0,3.1719,1.5752c-6.3909,2.5853-3.5956,8.7626-3.668,14.1832.058-4.5914,5.0874-6.7567,6.4091-5.2576.2317.2643-.9487,1.6728-.8075,2.0784.2752.7749,1.977,2.31,1.3144,3.3964-1.72.7459-1.079,4.2619.8546,7.38,1.9553-2.8062,6.5611-6.6951,6.5792-9.0777C29.2342,16.4588,24.6972,17.5958,23.285,14.16c1.7164.9305,2.06.181,1.662-1.4774.4382.1014,1.2638,2.3174,1.1913-.3983.55,2.7338,1.5788-.3476,1.5208.0181-.0724.449.659,1.0609,1.2022.1847.1919-.3006.08,2.426.08,2.426,4.1714,4.2148,6.2462,10.9461,6.181,12.4162.0833.7713-1.6512,7.0536-4.6891,12.0215a15.2306,15.2306,0,0,0,1.4411,4.15Z"/></svg>