<svg xmlns="http://www.w3.org/2000/svg" viewBox="0 0 48 48"><defs><style>.a{fill:none;stroke:#000;stroke-linecap:round;stroke-linejoin:round;}</style></defs><path class="a" d="M32.5969,25.1144c.9312-1.6055,1.83-1.6376,2.5688-1.6376s.9633.899.9633,1.83-2.8864,4.1723-3.4036,4.7843c-.6054.7163-.9633,2.3119-1.8624,2.4082s-.3279-1.8514-.3279-1.8514"/><path class="a" d="M12.657,35.6462c.8349.471,1.8052.9419,1.9336,1.0489a5.3017,5.3017,0,0,0,1.8553.9205c.5994.0428,1.1308-.03,1.5627,0,.62.0435,3.2966.1284,3.2966.1284"/><path class="a" d="M18.2013,33.2915c.2568-.2782,1.3914-.1284,1.3271.5138s-.5993.8562-1.1987.899-.5138.6636-1.948.6636-1.2629-1.2415-1.2629-1.2415c0-.8349,1.07-3.2324,1.2843-4.1956s.3853-2.8043.3853-2.8043"/><path class="a" d="M21.5513,28.1647a9.0544,9.0544,0,0,0,2.6009.7386c.9151,0,2.8738-1.7768,2.8738-1.7768H24.2886A8.0628,8.0628,0,0,0,21.5513,28.1647Z"/><path class="a" d="M12.5447,26.174a3.844,3.844,0,0,0,2.0871.4977c.4806,0,.5779-.1285.5779-.1285a8.1579,8.1579,0,0,0-1.6937-1.6389,4.4273,4.4273,0,0,0-1.6938-.4161S11.8864,25.7244,12.5447,26.174Z"/><path class="a" d="M31.6366,28.2392a11.5324,11.5324,0,0,1-1.0625-1.7977s.0642-4.0564,0-4.5381-1.5734-3.66-1.5734-3.66a16.7732,16.7732,0,0,1-4.9127.2247c-.6422-.0642-2.7828-.5137-2.7828-.5137-.5352.7171-4.1314,3.0289-4.1957,5.405s.2122,2.4189.2122,2.4189a9.7057,9.7057,0,0,1-1.4965-2.59,4.1259,4.1259,0,0,1,.0856-2.162c.3639-1.0489,2.9326-3.4036,2.9326-3.4036s-2.4189-.6636-3.425-1.0917a10.2858,10.2858,0,0,1-3.2751-2.2691s-2.44,5.6833-2.5045,8.3163a45.7174,45.7174,0,0,0,.7385,7.2888,41.726,41.726,0,0,1,.3211,4.4953c.0321,1.1239,1.83,4.6559,2.055,5.2018a15.195,15.195,0,0,0,1.4449,3.1146c.6422.8348,3.1467.899,4.3669.7706s7.7383-5.5549,8.5089-6.454a64.0883,64.0883,0,0,0,5.0733-10.05"/><path class="a" d="M35.6912,23.691c.5983-.9527,2.5249-3.4894,2.5891-4.0673S38.9225,15,38.9225,15s0-2.9862-.8028-4.1421a14.2818,14.2818,0,0,0-9.4722-5.587c-6.1329-.9312-11.0242-1.2523-14.77.3853-1.21.5287-5.0733,4.2063-4.7843,7.8347s.6,8.4434.6,8.4434"/><path class="a" d="M19.24,14.6146c.2568-1.2523,2.7292-3.5641,3.7567-4.0137a36.8421,36.8421,0,0,1,4.72-1.0917,5.3808,5.3808,0,0,1-.9508,3.54,6.9218,6.9218,0,0,1-1.4574,1.5651,26.2506,26.2506,0,0,1-3.05,2.3119"/><path class="a" d="M26.7655,13.05c1.65-1.2119,4.1939-1.6779,6.4771-2.3522.0286,1.83-.8244,5.298-2.8863,7"/><path class="a" d="M32.308,21.0686C34.5235,20.0732,35.3262,17.28,35.7437,15"/><path class="a" d="M14.712,13.4265c.1606-3.243,4.6686-5.8386,6.0269-6.5316"/><path class="a" d="M12.3681,13.2178c.3532-2.2316,2.1834-6.0526,3.0182-6.6627"/><path class="a" d="M19.689,27.1265c2.4724-.0856,5.2338-.2568,5.94-.685a19.6936,19.6936,0,0,1,2.633-1.07"/><path class="a" d="M10.6984,21.9034c.8348.6422,2.2155,2.0229,3.05,2.5848s2.5045,1.5573,2.5045,1.5573"/><path class="a" d="M15.98,31.2472c-.85.7064-1.7762,2.0142-.8675,3.05"/><path class="a" d="M13.3153,37.1072a2.6367,2.6367,0,0,0,2.2958,1.5091,21.5115,21.5115,0,0,0,4.6559-.2247"/><path class="a" d="M14.7381,39.9328a8.1469,8.1469,0,0,1,3.6344.4977"/><path class="a" d="M18.3725,26.2015c-.15-.5948.867-1.7133.867-1.7133"/><line class="a" x1="24.1479" y1="28.0149" x2="24.2886" y2="27.9899"/><line class="a" x1="13.1105" y1="25.5799" x2="13.2367" y2="25.6839"/></svg>