<svg id="Layer_2" data-name="Layer 2" xmlns="http://www.w3.org/2000/svg" viewBox="0 0 48 48"><defs><style>.cls-1{fill:none;stroke:#000;stroke-linecap:round;stroke-linejoin:round;}</style></defs><path class="cls-1" d="M17.94,9.44a3.1,3.1,0,0,0-3.1,3.1v1l-.41.42A21,21,0,0,1,5.1,19.56l-.48.15,0,.5a21,21,0,0,0,1.75,11,15.18,15.18,0,0,0,8.35,7.26l.27.1.27-.1a15.17,15.17,0,0,0,8.36-7.26s0,0,0,0H40.4a3.12,3.12,0,0,0,3.1-3.1V12.54a3.11,3.11,0,0,0-3.1-3.1ZM25.4,22.72c0-.21-.06-2.3-.07-2.51l0-.5-.49-.15a24.09,24.09,0,0,1-10-6.07M23.6,31.16a19.26,19.26,0,0,0,1.8-8.44m-4.68.22-6.6,6.72L10.18,26M40.83,12.54,29.17,19.7m0,0L17.51,12.54"/></svg>