<?xml version="1.0" encoding="UTF-8"?><svg id="b" xmlns="http://www.w3.org/2000/svg" viewBox="0 0 48 48"><defs><style>.c{fill:none;stroke:#000;stroke-linecap:round;stroke-linejoin:round;}</style></defs><g><path class="c" d="m25.3213,10.7857c0,2.9192-2.3665,5.2857-5.2857,5.2857s-5.2857-2.3665-5.2857-5.2857,2.3665-5.2857,5.2857-5.2857,5.2857,2.3665,5.2857,5.2857Z"/><path class="c" d="m37.2142,24c0,2.9192-2.3665,5.2857-5.2857,5.2857s-5.2857-2.3665-5.2857-5.2857,2.3665-5.2857,5.2857-5.2857,5.2857,2.3665,5.2857,5.2857Z"/><path class="c" d="m29.2856,37.2143c0,2.9192-2.3665,5.2857-5.2857,5.2857s-5.2857-2.3665-5.2857-5.2857,2.3665-5.2857,5.2857-5.2857,5.2857,2.3665,5.2857,5.2857Z"/></g><line class="c" x1="29.2856" y1="37.2143" x2="41.8393" y2="37.2143"/><line class="c" x1="6.1607" y1="37.2143" x2="18.7142" y2="37.2143"/><line class="c" x1="37.2142" y1="24" x2="41.8393" y2="24"/><line class="c" x1="6.1607" y1="24" x2="26.6427" y2="24"/><line class="c" x1="25.3213" y1="10.7857" x2="41.8393" y2="10.7857"/><line class="c" x1="6.1607" y1="10.7857" x2="14.7499" y2="10.7857"/></svg>