<svg xmlns="http://www.w3.org/2000/svg" id="a" viewBox="0 0 48 48"><defs><style>.g{fill:none;stroke:#000;stroke-linecap:round;stroke-linejoin:round;}</style></defs><path class="g" d="m22.5699,7.0646l-4.1453-2.5529-.3712,4.8542,3.4088,1.1076,1.1076-3.4088Z" id="b"/><path class="g" d="m11.6585,14.0013l-4.7312-1.147,1.147,4.7312h3.5843v-3.5843Z" id="b"/><path class="g" d="m19.1511,17.5858h-5.7097v-7.8425l7.4693,2.427c-.5534,1.8157-1.1658,3.6128-1.7597,5.4156h.0001Z" id="b"/><path class="g" d="m39.899,17.5856l1.147-4.7313-4.7313,1.147v3.5843s3.5843,0,3.5843,0Z" id="c"/><path class="g" d="m29.93,9.3518l-.3712-4.8541-4.1453,2.5529,1.1076,3.4089,3.4089-1.1076Z" id="c"/><path class="g" d="m28.8363,17.5854l-1.7644-5.4303,7.4587-2.4235v7.8537c-1.8979.0348-3.7963.0077-5.6943,0h0Z" id="c"/><path class="g" d="m35.2479,37.3176l4.8541-.3712-2.5529-4.1453-3.4088,1.1076,1.1076,3.4089Z" id="d"/><path class="g" d="m39.9982,25.2922l4.5018-1.8531-3.7089-3.1535-2.8998,2.1068,2.1068,2.8998Z" id="d"/><path class="g" d="m31.8296,26.7964l4.6193-3.3561,4.6097,6.3447-7.4693,2.4269c-.6196-1.7942-1.1804-3.6081-1.7596-5.4156h0Z" id="d"/><path class="g" d="m15.0444,38.9918l1.853,4.5019,3.1535-3.7089-2.1068-2.8997-2.8997,2.1068Z" id="e"/><path class="g" d="m27.9491,39.7935l3.1535,3.7089,1.853-4.5018-2.8998-2.1068-2.1068,2.8998Z" id="e"/><path class="g" d="m23.9944,32.4895l4.6193,3.3561-4.6097,6.3447-4.6163-6.3538c1.5149-1.1437,3.0667-2.2376,4.6068-3.347h0Z" id="e"/><path class="g" d="m7.2089,20.2944l-3.7089,3.1535,4.5019,1.8531,2.1068-2.8997-2.8997-2.1068Z" id="f"/><path class="g" d="m10.4342,32.8153l-2.5529,4.1453,4.8541.3712,1.1076-3.4089-3.4089-1.1076Z" id="f"/><path class="g" d="m16.1587,26.7971l-1.7644,5.4303-7.4587-2.4235,4.6163-6.3538c1.5558,1.0874,3.0757,2.2251,4.6067,3.347h0Z" id="f"/></svg>