<?xml version="1.0" encoding="UTF-8"?><svg id="Layer_1" xmlns="http://www.w3.org/2000/svg" viewBox="0 0 48 48"><defs><style>.cls-1{fill:none;stroke:#000;stroke-linecap:round;stroke-linejoin:round;}</style></defs><path class="cls-1" d="M30.833,23.9997l5.1246,5.1246c.9463.9463.9463,2.4701,0,3.4164l-10.249,10.249c-.9463.9463-2.4701.9463-3.4164,0l-10.249-10.249c-.9463-.9463-.9463-2.4701,0-3.4164l5.1246-5.1246"/><path class="cls-1" d="M35.957,29.1247c-.9463-.9464-2.4701-.9464-3.4164,0l-3.4164,3.4164c-.9463.9463-2.4701.9463-3.4164,0s-.9463-2.4701,0-3.4164l10.249-10.249c.9463-.9464.9463-2.4701,0-3.4164l-10.249-10.249c-.9463-.9464-2.4701-.9464-3.4164,0l-10.249,10.249c-.9463.9463-.9463,2.4701,0,3.4164l13.666,13.666"/><path class="cls-1" d="M29.125,8.6259c.9463.9464.9463,2.4701,0,3.4164l-10.249,10.249c-.9463.9463-.9463,2.4701,0,3.4164"/><path class="cls-1" d="M18.875,39.3737c-.9463-.9463-.9463-2.4701,0-3.4164l5.1246-5.1246"/></svg>