<?xml version="1.0" encoding="utf-8"?>
<!-- Generator: Adobe Illustrator 26.0.3, SVG Export Plug-In . SVG Version: 6.00 Build 0)  -->
<svg version="1.1" id="Layer_1" xmlns="http://www.w3.org/2000/svg" xmlns:xlink="http://www.w3.org/1999/xlink" x="0px" y="0px"
	 viewBox="0 0 48 48" style="enable-background:new 0 0 48 48;" xml:space="preserve">
<style type="text/css">
	.st0{fill:none;stroke:#000;stroke-linecap:round;stroke-linejoin:round;}
</style>
<g>
	<path class="st0" d="M40.1,16.5v13.4c0,1.2-0.6,2.3-1.7,2.9l-11.6,6.7"/>
	<path class="st0" d="M14,9.8l8.4-4.8c1-0.6,2.3-0.6,3.3,0l11.4,6.6"/>
	<path class="st0" d="M21.2,39.5L8.1,32"/>
	<path class="st0" d="M32.8,28.9L25,33.4c-0.6,0.4-1.4,0.4-2,0l-7.8-4.5c-0.6-0.4-1-1-1-1.8V18c0-0.7,0.4-1.4,1-1.8l7.8-4.5
		c0.6-0.4,1.4-0.4,2,0l7.8,4.5c0.6,0.4,1,1,1,1.8v9.1C33.9,27.8,33.5,28.5,32.8,28.9z"/>
	<path class="st0" d="M7.9,13.5v30l13.3-2"/>
</g>
</svg>
