<?xml version="1.0" encoding="UTF-8"?><svg id="b" xmlns="http://www.w3.org/2000/svg" viewBox="0 0 48 48"><defs><style>.e{fill:#000;}.f{fill:none;stroke:#000;stroke-linecap:round;stroke-linejoin:round;}</style></defs><path id="c" class="f" d="m24.2373,2.4704c1.0887,0,2.0225.6569,2.4323,1.5958.041.0937.132.1451.2233.1451.0652,0,.1307-.0265.1778-.0827.4992-.5971,1.2442-.9545,2.0352-.9545.2272,0,.4582.0297.688.0911,1.0536.2827,1.7864,1.1616,1.938,2.1771.0181.1215.1262.2003.2381.2003.0455,0,.092-.0132.1333-.042.4488-.315.9845-.4834,1.5296-.4834.4495,0,.9051.1147,1.323.3561.9445.5461,1.4253,1.5848,1.3091,2.6049-.0165.1441.1036.2633.2385.2633.0261,0,.0529-.0045.0794-.0142.2943-.1073.6037-.1612.9129-.1612.6789,0,1.3572.2588,1.8751.7777.7712.7722.9671,1.9002.5915,2.8554-.061.1548.0597.3241.2217.3241.0071,0,.0139-.0003.0207-.001.0778-.0068.1552-.0103.233-.0103.9174,0,1.8092.4753,2.301,1.3283.5453.9458.4427,2.0861-.1671,2.9113-.1026.1393-.0194.3451.151.3751.9855.1735,1.8305.8979,2.1067,1.9296.2823,1.055-.1113,2.13-.9138,2.7691-.1352.1076-.1081.328.0487.4013.9071.423,1.5363,1.3419,1.5363,2.4099,0,1.0905-.6557,2.0253-1.5933,2.4356-.1607.0704-.1968.2889-.0626.4016.7677.6437,1.1384,1.6947.8622,2.7268-.2823,1.055-1.16,1.7888-2.1742,1.9406-.171.0255-.2572.2301-.1581.3719.5744.8204.6605,1.9313.1271,2.8563-.4918.8527-1.3833,1.328-2.3007,1.328-.1,0-.2007-.0058-.3007-.0171-.0088-.001-.0177-.0017-.0261-.0017-.1591,0-.2788.1654-.2226.3199.3427.9412.1388,2.0366-.6157,2.7918-.5179.5189-1.1962.7777-1.8748.7777-.3317,0-.6634-.062-.9768-.1855-.0278-.011-.0561-.0162-.0839-.0162-.1323,0-.2514.1163-.2388.2591.0878.9978-.3924,2.003-1.3162,2.5372-.4175.2414-.8732.3561-1.3227.3561-.5673,0-1.1249-.1826-1.5847-.5231-.0419-.031-.0897-.0452-.1368-.0452-.1097,0-.2168.0769-.2378.1961-.1733.9868-.8967,1.8333-1.927,2.1096-.2301.0617-.4608.0911-.688.0911-.8135,0-1.5783-.378-2.0775-1.0062-.0468-.0588-.1149-.0869-.183-.0869-.0884,0-.1765.0472-.2175.1357-.4227.9083-1.3404,1.5384-2.4068,1.5384-1.089,0-2.0225-.6566-2.4323-1.5955-.041-.0937-.132-.1451-.2233-.1451-.0652,0-.1307.0262-.1778.0824-.4992.5971-1.2442.9545-2.0352.9545-.2272,0-.4582-.0294-.688-.0911-1.0535-.2827-1.7864-1.1616-1.938-2.1768-.0181-.1218-.1262-.2007-.2381-.2007-.0455,0-.092.0133-.1333.0423-.4488.315-.9845.4834-1.5296.4834-.4495,0-.9051-.1147-1.323-.3564-.9445-.5461-1.4249-1.5848-1.3091-2.6049.0165-.1441-.1036-.263-.2385-.263-.0261,0-.0529.0042-.0794.0139-.2943.1076-.6037.1612-.9129.1612-.6789,0-1.3572-.2588-1.8751-.7774-.7712-.7726-.9671-1.9005-.5915-2.8558.061-.1544-.0597-.3241-.2217-.3241-.0071,0-.0139.0003-.0207.001-.0778.0068-.1552.0103-.233.0103-.9174,0-1.8092-.4753-2.301-1.3283-.5453-.9457-.4427-2.086.1672-2.9113.1026-.1393.0194-.3451-.151-.3751-.9855-.1735-1.8305-.8979-2.1067-1.9296-.2823-1.055.1113-2.13.9138-2.7688.1352-.1079.1081-.3283-.0487-.4013-.9071-.423-1.5363-1.3419-1.5363-2.4101,0-1.0902.6557-2.0253,1.5937-2.4356.1604-.0704.1965-.2889.0623-.4013-.7677-.6436-1.1384-1.695-.8622-2.7271.2823-1.055,1.16-1.7888,2.1742-1.9406.171-.0255.2572-.2301.1581-.3719-.5744-.8204-.6605-1.9313-.1271-2.8561.4918-.853,1.3833-1.328,2.3007-1.328.1,0,.2004.0054.3007.0171.0087.001.0177.0013.0265.0013.1588,0,.2785-.1654.2223-.3196-.3427-.9416-.1388-2.037.6153-2.7921.5182-.5189,1.1965-.7774,1.8751-.7774.3317,0,.6634.0617.9767.1855.0277.011.0561.0158.0839.0158.1323,0,.2514-.1163.2388-.2588-.0878-.9981.3924-2.0033,1.3162-2.5375.4176-.2414.8732-.3561,1.3227-.3561.5673,0,1.1252.1826,1.5847.5235.0419.0307.0897.0449.1368.0449.1097,0,.2168-.0766.2378-.1961.1733-.9868.8967-1.833,1.927-2.1096.2301-.0617.4608-.0911.688-.0911.8135,0,1.5783.3781,2.0775,1.0062.0468.0591.1149.0872.183.0872.0884,0,.1765-.0475.2178-.136.4224-.9083,1.3401-1.5384,2.4066-1.5384"/><g id="d"><path class="f" d="m39.5363,23.2511h-.7358c-1.3197,0-2.4531-.7898-2.9603-1.9217-.5073,1.132-1.6407,1.9217-2.96,1.9217s-2.4528-.7898-2.96-1.9217c-.5073,1.132-1.6407,1.9217-2.9603,1.9217s-2.4528-.7898-2.96-1.9217c-.5073,1.132-1.6407,1.9217-2.96,1.9217s-2.4528-.7898-2.9603-1.9217c-.5073,1.132-1.6404,1.9217-2.96,1.9217s-2.4528-.7898-2.96-1.9217c-.5073,1.132-1.6407,1.9217-2.9603,1.9217h-.7275c-1.1037,1.189-.4036,2.1936,2.3221,2.1936v6.1059c0,5.7384,6.5994,8.6076,13.1987,8.6076s13.1987-2.8692,13.1987-8.6076v-6.1059c2.728,0,3.4399-1.0045,2.3448-2.1936"/></g><circle class="e" cx="15.5557" cy="33.1894" r=".75"/><circle class="e" cx="32.4453" cy="33.1894" r=".75"/></svg>