<?xml version="1.0" encoding="UTF-8"?><svg id="a" xmlns="http://www.w3.org/2000/svg" viewBox="0 0 48 48"><defs><style>.c{fill:none;stroke:#000;stroke-linecap:round;stroke-linejoin:round;}</style></defs><path id="b" class="c" d="m45.5,24c0,11.8741-9.6259,21.5-21.5,21.5S2.5,35.8741,2.5,24,12.1259,2.5,24,2.5s21.5,9.6259,21.5,21.5Zm-9,0c0,6.9036-5.5964,12.5-12.5,12.5s-12.5-5.5964-12.5-12.5,5.5964-12.5,12.5-12.5,12.5,5.5964,12.5,12.5ZM24,2.5c2.4853,0,4.5,2.0147,4.5,4.5s-2.0147,4.5-4.5,4.5m0,34c-2.4853,0-4.5-2.0147-4.5-4.5s2.0147-4.5,4.5-4.5"/></svg>