<?xml version="1.0" encoding="UTF-8"?><svg id="a" xmlns="http://www.w3.org/2000/svg" viewBox="0 0 48 48"><defs><style>.d{fill:none;stroke:#000;stroke-linecap:round;stroke-linejoin:round;}</style></defs><path class="d" d="m16.151 25.287 1.3717-1.3717c.49469-.49469 1.1112-1.1207 1.0494-1.8176l-.23336-2.6332c-.07667-.86511-.97387-1.8424-1.8424-1.8424h-2.2581c-.88441 0-1.7185.74589-1.6049 2.0682.07469.86942-.40305 5.6449 4.8141 10.862 5.2171 5.2171 9.9926 4.7394 10.862 4.8141 1.3223.1136 2.0682-.72054 2.0682-1.6049v-2.2581c0-.8685-.97726-1.7657-1.8424-1.8424l-2.6332-.23336c-.69687-.06176-1.3229.55471-1.8176 1.0494l-1.3717 1.3717c-1.2191-.65208-2.4988-1.5538-3.7534-2.8084-1.2546-1.2546-2.1563-2.5343-2.8084-3.7534z"/><path class="d" d="m5.5 24c0-10.217 8.2827-18.5 18.5-18.5s18.5 8.2827 18.5 18.5-8.2827 18.5-18.5 18.5h-18.5z"/><path class="d" d="m24 20.3a3.7 3.7 0 013.7 3.7"/><path class="d" d="m24 16.6a7.4 7.4 0 017.4 7.4"/><path class="d" d="m24 12.9a11.1 11.1 0 0111.1 11.1"/></svg>
