<?xml version="1.0" encoding="UTF-8"?><svg id="a" xmlns="http://www.w3.org/2000/svg" viewBox="0 0 48 48"><defs><style>.b{fill:none;stroke:#000;stroke-linecap:round;stroke-linejoin:round;}</style></defs><path class="b" d="M12.8589,18.1959c.6138.4029,1.2267.8158,1.8325,1.4006.114-.8338.3399-1.5376.5728-2.2344-.6138-.4029-1.2267-.8158-1.8335-1.4006-.114.8348-.3399,1.5376-.5718,2.2344M16.057,22.8446c-.1194-.1035-.2361-.2102-.3499-.3199-.114.8348-.3399,1.5396-.5728,2.2354h0c.3839.2519.7668.5079,1.1487.8068M26.382,14.7879c-.3929-1.2027-1.9384-.8318-2.2494.094-.4819-.8817-2.1454-.9577-2.2444.4099-.083,1.1497,1.2326,2.0734,2.5143,2.6792.4819-.3419.9597-.7388,1.3336-1.1667M24.2687,21.389c-.6778-.3749-1.6915-.1819-1.7685.8768h0c-.047.6488.3519,1.2257.9377,1.7135M30.6348,29.3318c.3619,1.0077.5598,1.1077,1.0097,1.8015.1849.2849.3969,1.0367-.3309,1.4286-.7898.4249-1.1997-.115-1.3236-.2689-.135.2999.148.7998-.038.8448-.16.039-.2479-.2329-.4299-.2899-.174-.053-.4669.098-.5069-.044-.066-.2299.5089-.4069.4829-.6678-.2659.048-.8967.2949-1.3306-.5928-.172-.3509.012-.9707.6258-1.2536.5668-.2599.9947-.3799,1.8415-.9577M34.8916,16.0715c.3619,1.0077.5598,1.1077,1.0097,1.8015.1849.2849.3969,1.0367-.3319,1.4286-.7888.4249-1.1997-.115-1.3236-.2689-.135.2999.148.7998-.038.8448-.159.039-.2469-.2329-.4299-.2899-.173-.053-.4659.098-.5059-.044-.066-.2299.5079-.4069.4819-.6678-.2649.048-.8967.2949-1.3296-.5928-.172-.3509.012-.9707.6258-1.2536.5668-.2599.9947-.3799,1.8415-.9577M32.7622,22.7006c.3629,1.0077.5598,1.1087,1.0097,1.8015.1859.2859.3979,1.0367-.3299,1.4296-.7898.4249-1.1997-.116-1.3236-.2689-.136.2999.147.7998-.038.8448-.16.038-.2479-.2329-.4299-.2899-.174-.053-.4669.098-.5069-.044-.066-.2299.5079-.4069.4829-.6678-.2659.048-.8967.2949-1.3306-.5928-.172-.3519.012-.9717.6258-1.2536.5668-.2599.9947-.3799,1.8415-.9587M7.9463,19.5165l.7118-.3679M6.5127,18.1779c.14-.3599.3619-.6058.9837-.9247l.144-.073c.5119-.2649,1.1537-.038,1.4346.5059h0c.2809.5438.094,1.1987-.4169,1.4626M8.2072,21.455c.3729.095.7028.057,1.3236-.2629l.144-.075c.5119-.2639.6988-.9197.4179-1.4626h0c-.2809-.5438-.9237-.7698-1.4346-.5059M28.7444,15.1778l.7628.2439M28.6774,13.2183c.3529-.156.6848-.172,1.3496.041l.154.05c.5478.175.8418.7898.6558,1.3726h0c-.1859.5828-.7808.9137-1.3296.7398M27.5577,16.7333c.1959.3319.4569.5378,1.1217.7498l.155.05c.5478.174,1.1437-.157,1.3296-.7398h0c.1859-.5828-.108-1.1977-.6568-1.3716M17.8425,15.4707l.8008-.02M17.1397,13.6402c.2829-.2629.5908-.3869,1.2886-.4019l.162-.002c.5758-.014,1.0537.4699,1.0687,1.0817h0c.015.6118-.4399,1.1197-1.0157,1.1327M17.2287,17.3282c.2939.2499.6078.3599,1.3056.3419l.162-.004c.5758-.013,1.0297-.5199,1.0157-1.1327h0c-.015-.6118-.4929-1.0957-1.0687-1.0827M25.0184,34.6952l-6.3652.5269c-.8642.0674-1.6194-.5786-1.6868-1.4428-.0003-.0033-.0005-.0065-.0007-.0098l-1.7035-20.4732c-.0818-.863.5515-1.6288,1.4145-1.7106.0034-.0003.0067-.0006.0101-.0009h0l13.8361-1.1467c.8642-.0674,1.6194.5786,1.6868,1.4428.0003.0033.0005.0065.0007.0098l.017.2049M21.0686,35.0221l-5.0666,2.5413c-.7788.3844-1.7218.0646-2.1061-.7142-.0008-.0015-.0015-.0031-.0023-.0046L4.6752,18.4848c-.3977-.7702-.0956-1.717.6746-2.1147.0031-.0016.0061-.0032.0092-.0047h0l12.4105-6.2232c.7785-.385,1.7217-.0661,2.1067.7124.0009.0018.0018.0036.0027.0054l.2209.4419M29.1932,11.1239l13.2222,4.2318c.8243.2681,1.2752,1.1537,1.0071,1.978-.0011.0035-.0023.0069-.0034.0104l-6.2612,19.5684c-.2548.8285-1.1331,1.2936-1.9616,1.0388-.0033-.001-.0065-.002-.0098-.0031l-13.2222-4.2318c-.8243-.2681-1.2752-1.1537-1.0071-1.978.0011-.0035.0023-.0069.0034-.0104l6.2622-19.5684c.255-.8285,1.1333-1.2934,1.9618-1.0384.0029.0009.0057.0018.0086.0027"/></svg>