<?xml version="1.0" encoding="UTF-8"?><svg id="b" xmlns="http://www.w3.org/2000/svg" viewBox="0 0 48 48"><defs><style>.o{fill:none;stroke:#000;stroke-linecap:round;stroke-linejoin:round;}</style></defs><g id="c"><g id="d"><path id="e" class="o" d="m23.8482,45.4998c-1.4772-.9547-3.0986-1.6651-4.8019-2.1037-7.4776-1.6758-13.7537-6.8103-12.6689-13.9033.3676-3.5393,3.4757-8.9639,3.4757-8.9639-2.5185-2.8902-5.2198-5.5843-4.3903-12.0739,1.0926,3.0968,2.1523,6.2365,4.7564,7.3175-1.1209-1.7799-.6314-3.2147-.6403-4.7564.5064,2.4309,2.1853,4.4524,4.4819,5.3966,8.1251-5.3622,13.9962-3.6218,19.2996-.0914,2.8456-.7985,4.5136-2.5128,5.0307-5.1223.621,1.4861.4125,3.1896-.5488,4.482,3.3848-1.0676,3.595-4.4873,4.8478-7.1347-.1646,5.1683-1.3155,9.6446-4.8589,12.1285,0,0,3.6538,5.4591,3.4184,9.4815-.5208,9.5237-5.9872,11.8253-11.9868,13.1693-2.0232.4534-3.787,1.6012-5.4153,2.1745l.0009-.0002Z"/><path id="f" class="o" d="m10.1273,27.709c3.1694.5797,10.0765,1.769,9.7642,4.1847-.8396,1.292-2.1396,2.2159-3.6358,2.584-4.6192.7183-7.6006-7.0912-6.1283-6.7687Z"/><circle id="g" class="o" cx="15.627" cy="30.945" r="1.9094"/><path id="h" class="o" d="m38.0197,27.709c-3.1698.5797-10.0765,1.769-9.7641,4.1847.8396,1.292,2.1396,2.2159,3.6358,2.584,4.6191.7183,7.6003-7.0912,6.1282-6.7687Z"/><circle id="i" class="o" cx="32.52" cy="30.945" r="1.9094"/><path id="j" class="o" d="m27.2456,34.5979c0,1.7976-1.452,6.8067-3.2431,6.8067s-3.2431-5.0091-3.2431-6.8067c0-1.7911,1.452-3.2431,3.2431-3.2431s3.2431,1.452,3.2431,3.2431Z"/><path id="k" class="o" d="m9.8531,20.5286c1.3034,1.0851,2.7001,2.053,4.1738,2.8924,1.9546,1.1022,4.2437,1.5589,6.1438,2.7531,1.4353.875,2.7276,1.9654,3.8317,3.233.991-.9898,2.0532-1.9057,3.178-2.7403,1.9605-1.267,4.3631-1.7283,6.3483-2.9563,2.0779-1.2853,4.3026-3.0362,4.3026-3.0362"/></g><g><g><path id="l" class="o" d="m24.1376,4.4566l-.0372,4.7923"/><path id="m" class="o" d="m26.5151,6.8714l-4.7923-.0372"/></g><path id="n" class="o" d="m27.6357,10.2824c.621-1.2221.8371-2.4138.8437-3.4693-.0066-1.0556-.2227-2.2472-.8437-3.4693-1.2221-.621-2.4138-.8371-3.4693-.8437-1.0556.0066-2.2472.2227-3.4693.8437-.621,1.2221-.8371,2.4138-.8437,3.4693.0066,1.0556.2227,2.2472.8437,3.4693,1.2221.621,2.4138.8371,3.4693.8437,1.0556-.0066,2.2472-.2227,3.4693-.8437Z"/></g></g></svg>