<?xml version="1.0" encoding="UTF-8"?><svg id="b" xmlns="http://www.w3.org/2000/svg" viewBox="0 0 48 48"><defs><style>.c{fill:none;stroke:#000;stroke-linecap:round;stroke-linejoin:round;}</style></defs><path class="c" d="m26.6677,8.4477c-2.3237,1.6842-1.9783,4.4123.9435,5.259,2.7732.8037,3.5969-3.3225,3.6764-5.9462.0572-1.8874-1.361-3.048-3.3072-2.4182-1.2332.399-1.0378,2.5858-1.3128,3.1054h0Z"/><path class="c" d="m31.1212,6.6321c3.7746-4.8608,4.9949,4.5971-.041,3.2176"/><path class="c" d="m33.0649,9.7671c1.8969,2.9239-.5265,4.0169-2.7733,2.5952"/><path class="c" d="m27.9802,5.3423l-1.4654-1.4546c-1.2413,1.0394-1.1706,2.4189.5349,2.6196"/><path class="c" d="m25.5043,9.694c-3.186-1.2795-3.1574-5.3446.1703-4.4877"/><path class="c" d="m25.5844,12.3891c-2.0706.2787-3.9249-1.3388-1.2707-3.411"/><path class="c" d="m26.5327,13.3124l-.5082,1.3183"/><path class="c" d="m29.8978,5.3335l1.3063-1.4804c.4796.3616.7289.5534.9559,1.7342"/><path class="c" d="m30.7721,11.1727c-1.6676-1.5435-2.0718-1.8599-4.9706-1.9057"/><path class="c" d="m29.9548,12.8933c-1.5804-1.6909-2.3867-2.5177-4.7903-1.8085"/><path class="c" d="m28.3033,7.6069c.2637-.5189.4662-.8493,1.5983-.4914"/><path class="c" d="m38.5407,15.6352c-1.7862,1.2946-1.5207,3.3916.7253,4.0425,2.1317.6178,2.7649-2.5539,2.826-4.5708.044-1.4509-1.0461-2.343-2.5421-1.8588-.9479.3067-.7978,1.9877-1.0091,2.3871h0Z"/><path class="c" d="m41.9648,14.2387c2.9015-3.7364,3.8395,3.5338-.0315,2.4733"/><path class="c" d="m43.4583,16.6495c1.4582,2.2475-.4047,3.0877-2.1318,1.9949"/><path class="c" d="m39.55,13.2474l-1.1265-1.1182c-.9542.799-.8998,1.8594.4112,2.0137"/><path class="c" d="m37.6474,16.5925c-2.449-.9836-2.4271-4.1083.1309-3.4496"/><path class="c" d="m37.7084,18.6652c-1.5916.2143-3.017-1.0292-.9768-2.622"/><path class="c" d="m38.4376,19.3744l-.3906,1.0133"/><path class="c" d="m41.0245,13.2414l1.0042-1.138c.3687.278.5603.4254.7348,1.333"/><path class="c" d="m41.6957,17.7299c-1.2818-1.1865-1.5926-1.4297-3.8209-1.4649"/><path class="c" d="m41.0675,19.0523c-1.2149-1.2997-1.8346-1.9353-3.6822-1.3902"/><path class="c" d="m39.7991,14.989c.2027-.3989.3584-.6528,1.2286-.3777"/><path class="c" d="m9.4587,8.8771c1.7862,1.2946,1.5207,3.3916-.7253,4.0425-2.1317.6178-2.7649-2.5539-2.826-4.5708-.044-1.4509,1.0461-2.343,2.5421-1.8588.9479.3067.7978,1.9877,1.0091,2.3871h0Z"/><path class="c" d="m6.0352,7.4814c-2.9015-3.7364-3.8395,3.5338.0315,2.4733"/><path class="c" d="m4.5413,9.8914c-1.4582,2.2475.4047,3.0877,2.1318,1.9949"/><path class="c" d="m8.4496,6.4901l1.1265-1.1182c.9542.799.8998,1.8594-.4112,2.0137"/><path class="c" d="m10.3523,9.8351c2.449-.9836,2.4271-4.1083-.1309-3.4496"/><path class="c" d="m10.2913,11.907c1.5916.2143,3.017-1.0292.9768-2.622"/><path class="c" d="m9.5625,12.6162l.3906,1.0133"/><path class="c" d="m6.9753,6.4832l-1.0042-1.138c-.3687.278-.5603.4254-.7348,1.333"/><path class="c" d="m6.3038,10.9716c1.2818-1.1865,1.5926-1.4297,3.8209-1.4649"/><path class="c" d="m6.932,12.2941c1.2149-1.2997,1.8346-1.9353,3.6822-1.3902"/><path class="c" d="m8.201,8.2308c-.2027-.3989-.3584-.6528-1.2286-.3777"/><path class="c" d="m35.8208,28.7756c-.4186-1.6494-.6195-2.0813-1.2389-3.2012-.188-.3756.3661-6.9326-1.7256-9.9881-4.0297.9464-5.0922,1.6384-7.6052,4.324-.5264-3.7042-1.4636-4.2937-3.7664-5.1311,2.1545-6.8435-8.8983-6.2996-5.835-.0778-1.896,1.3734-2.5169,2.0361-3.2971,5.097m0,0c-3.4778,1.6168-5.7269,4.8312-6.8165,8.3328m-.5577,2.3774c-.0811.5034-.1394,1.0066-.1751,1.5061-.7674,10.7436,17.6239,17.4588,29.5758,6.6207,9.3202-.6688,5.9983-9.9567,1.4422-9.8599"/><path class="c" d="m9.6522,21.5612s.198-3.0334.5974-4.4893c.2617-.9541.4112-2.0885,1.1643-2.73.2718-.2315.6841-.2916,1.0395-.2581.4091.0385.7905.2694,1.1198.5153.3669.2739.9052,1.0332.9052,1.0332"/><path class="c" d="m24.318,22.8946c-5.3715,2.142-5.3528,9.1194.6775,10.1174,9.3284,1.5434,5.5294-12.5932-.6775-10.1174Z"/><path class="c" d="m10.3773,24.022c-4.331,1.4487-5.4485,9.2067.563,8.1014,5.1161-.9406,3.8625-9.5817-.563-8.1014Z"/><path class="c" d="m32.0062,18.3376l-2.0322,2.2367c1.257.5113,1.6115.7734,2.4679,1.8519-.0679-2.2336-.1697-2.7913-.4357-4.0886Z"/><path class="c" d="m11.2806,34.9926c-1.4206,1.7142,2.9456,3.1369,4.5269.211,1.0724,4.6613,8.2324,2.737,5.687.4972"/><path class="c" d="m12.535,36.8572c-1.6743,5.855-.1386,4.4044,3.3871,3.9565,1.4518.5944,4.3932,1.761,5.2934,1.0235.7558-.6192.0568-2.828-.4966-3.9406"/><path class="c" d="m10.7004,27.083c-1.4426.4825-1.4715,2.9011.5308,2.5329,1.704-.3133.9432-3.026-.5308-2.5329Z"/><path class="c" d="m25.7904,26.7889c-1.5843.5821-1.2845,3.5897.7382,3.3595,1.9159-.2181,1.703-4.2564-.7382-3.3595Z"/><path class="c" d="m15.8071,35.2037c-2.1287-1.5586-1.6057-2.4715.1443-2.5181,2.6135-.0696,2.0849,1.6647-.1443,2.5181"/><path class="c" d="m30.0409,31.2214c3.7859-.0932,3.6503,3.6996,4.6853,3.0465,1.523-.9611,2.4245-1.2352,3.0038-1.0171.8962.3373-.3211,2.4173-2.5974,3.2083-1.0826.3762-2.3668-1.9787-4.5237-2.5292-1.5888-.4056-8.6641,3.5877-8.904-2.4993"/><path class="c" d="m30.566,29.4828c2.3569-.5396,3.6432-.718,3.4948.3681-.1883,1.3778-2.5021.6909-3.6675.5172"/><path class="c" d="m11.6477,31.9316s-.3682.8398-.711,1.1186c-.6445.524-1.501.8907-2.3317.8796-.5684-.008-1.1104-.3223-1.5788-.6443-.377-.2591-.6792-.6242-.9392-1.0005-.3645-.5274-.3023-1.3879-.8463-1.7271-.2722-.1697-.9623,0-.9623,0,0,0-.108-.9992.104-1.4261.2291-.4613.6616-.8905,1.16-1.0207.4298-.1124,1.3034.2782,1.3034.2782"/></svg>