<?xml version="1.0" encoding="UTF-8"?><svg id="b" xmlns="http://www.w3.org/2000/svg" viewBox="0 0 48 48"><defs><style>.i{fill:none;stroke:#000;stroke-linecap:round;stroke-linejoin:round;}</style></defs><path id="c" class="i" d="m19.5007,23.1401h-3.6929v3.6929h3.6929v-3.6929Zm-14.9994,0h3.6916v3.6929h-3.6929v-3.6916l.0013-.0013Z"/><path id="d" class="i" d="m16.6677,33.1754v-1.4922c-2.5557-.138-2.9964-1.0836-3.0339-2.4981v-12.9795c2.3441.2384,4.6547.1741,4.6547,5.0552h1.2136v-6.5822H4.5147v6.5822h1.2149c0-4.7993,2.3106-4.8167,4.6533-5.0552v12.9795c-.0375,1.4145-.4782,2.3601-3.0326,2.4981v1.4922h9.3174Z"/><g id="e"><path id="f" class="i" d="m25.1399,28.4671v4.8261h4.8248s.0884-4.518-4.8248-4.8274v.0013Z"/><path id="g" class="i" d="m36.7665,33.2705s-.1206-10.7854-11.5462-11.7766"/><path id="h" class="i" d="m25.2403,14.6612,18.2597,18.6776s-.1956-17.5899-18.2597-18.6776"/></g></svg>