<?xml version="1.0" encoding="UTF-8"?><svg id="b" xmlns="http://www.w3.org/2000/svg" viewBox="0 0 48 48"><defs><style>.c{fill:none;stroke:#000;stroke-linecap:round;stroke-linejoin:round;}</style></defs><polygon class="c" points="41.8094 13.75 24 3.5 6.1906 13.75 6.1906 34.25 24 44.5 41.8094 34.25 41.8094 13.75"/><path class="c" d="m32.4563,21.6938c-1.4094,0-2.5625-1.1531-2.5625-2.5625,0-.8969.5125-1.6656,1.1531-2.1781-1.7937-1.7937-4.3562-2.9469-7.0469-2.9469-5.5094,0-9.9937,4.4844-9.9937,9.9937s4.4844,9.9937,9.9937,9.9937,9.9937-4.4844,9.9937-9.9937c0-.8969-.1281-1.7937-.3844-2.6906-.2563.2563-.7688.3844-1.1531.3844Z"/></svg>