<svg xmlns="http://www.w3.org/2000/svg" viewBox="0 0 48 48"><defs><style>.a{fill:none;stroke:#000;stroke-linecap:round;stroke-linejoin:round;}</style></defs><rect class="a" x="5.9369" y="5.937" width="36.1259" height="36.1259" rx="7.2273" transform="translate(-5.394 40.9704) rotate(-75)"/><rect class="a" x="20.6911" y="20.8711" width="6.6379" height="6.6379" rx="2.1608" transform="translate(-5.57 41.1211) rotate(-75)"/><path class="a" d="M9.039,38.5366l6.4552-24.0908A3.4776,3.4776,0,0,1,20.06,11.81l17.1859,4.605L33.7584,29.4291c-.1183.4416,7.0241,1.72,8.8513-5.11"/><path class="a" d="M17.4716,32.9136,34.7383,37.54a3.7582,3.7582,0,0,0,5.0956-2.8563m-22.3623-1.77s-2.95,7.2455,5.6415,9.5476"/><path class="a" d="M37.2455,16.4149s.96-7.3168-5.2-8.9674"/></svg>