<svg xmlns="http://www.w3.org/2000/svg" viewBox="0 0 48 48"><defs><style>.a{fill:none;stroke:#000;stroke-linecap:round;stroke-linejoin:round;}</style></defs><circle class="a" cx="24" cy="24" r="21.5"/><path class="a" d="M12.54,5.82a49.71,49.71,0,0,0,30.58,8.35"/><path class="a" d="M22,2.59C26.29,6,31.49,7,37,6.9"/><path class="a" d="M6,12.19c11.68,8.86,24.79,12.46,39.45,11"/><path class="a" d="M2.78,20.55C12,27.83,30.6,36.6,44.22,31.35"/><path class="a" d="M3.17,29.35c10.65,8.73,23.93,12.75,36,9.87"/><path class="a" d="M7.31,37.55c7.54,5.26,15.86,8.05,24.94,6.31"/><path class="a" d="M19.83,2.91C11.34,6.75,4.8,13.07,2.5,23.69"/><path class="a" d="M27,2.71C9.39,8.7,2.39,30.88,9.85,40.15"/><path class="a" d="M29.62,3.25C28.82,18.16,25,31.45,19.42,45"/><path class="a" d="M31.21,3.74c9.32,14.61,2,34.77-6.35,41.74"/><path class="a" d="M32.57,4.29c9.56,10,14.58,25.51-.32,39.57"/><path class="a" d="M28.81,3.05C16.09,13,9.65,36.74,15.26,43.64"/></svg>