<svg xmlns="http://www.w3.org/2000/svg" viewBox="0 0 48 48"><defs><style>.a{fill:none;stroke:#000;stroke-linecap:round;stroke-linejoin:round;}</style></defs><path class="a" d="M24,31.5245h5.9238s5.2482,5.4743,10.5547,5.0531,2.9507-11.1683-1.8867-15.829S27.79,16.5231,24,16.5231s-9.7544-.4353-14.5918,4.2255S2.2149,36.1565,7.5215,36.5776s10.5547-5.0531,10.5547-5.0531H24"/><path class="a" d="M20.1535,27.0913h2.5459"/><path class="a" d="M27.8465,27.0913H25.3006"/><path class="a" d="M13.5876,21.2874a1.355,1.355,0,0,0-1.3584,1.3584v1.165H11.0641a1.36,1.36,0,0,0,0,2.7193h1.1651v1.1651a1.3584,1.3584,0,0,0,2.7168,0V26.53h1.1676a1.36,1.36,0,0,0,0-2.7193H14.946v-1.165A1.355,1.355,0,0,0,13.5876,21.2874Z"/><circle class="a" cx="36.5896" cy="25.1283" r="1.2595"/><circle class="a" cx="31.1019" cy="25.1283" r="1.2595"/><circle class="a" cx="33.8458" cy="27.8721" r="1.2595"/><circle class="a" cx="33.8458" cy="22.3844" r="1.2595"/><path class="a" d="M24,16.5231s-.79-2.5969,1.6472-2.5447,1.9983-2.5792,1.9983-2.5792"/></svg>