<svg xmlns="http://www.w3.org/2000/svg" viewBox="0 0 48 48"><defs><style>.a{fill:none;stroke:#000;stroke-linecap:round;stroke-linejoin:round;}</style></defs><path class="a" d="M24.3337,21.2347C11.3142,16.4492,12.455-3.2368,24.4369,6.8153c1.31-2.3788,5.5508-5.171,8.3279-1.1012-5.4534-.6458-8.7914,6.0379-8.4311,15.52Z"/><path class="a" d="M26.5515,23.5689c.4621-13.8638,19.5134-18.952,13.7246-4.4227,2.67.4986,6.6506,3.65,3.6567,7.5628-1.0965-5.3808-8.49-6.4551-17.381-3.14Z"/><path class="a" d="M25.6548,26.3343c13.4964-3.2055,23.4219,13.833,7.881,12.0749.222,2.7068-1.7694,7.3769-6.3327,5.5194,4.902-2.475,3.9913-9.89-1.5484-17.5944Z"/><path class="a" d="M21.8649,26.11C29.76,37.5149,17.5,52.9586,13.4842,37.8433c-2.44,1.1917-7.5152,1.0356-7.4449-3.8909,4.0887,3.6658,10.6644.12,15.826-7.8428Z"/><path class="a" d="M21.3618,22.8581C12.621,33.6294-5.6368,26.18,7.7513,18.0951c-1.8269-2.01-3.0969-6.9252,1.6525-8.2362C7.0283,14.81,12.2725,20.131,21.3612,22.8579Z"/></svg>