<?xml version="1.0" encoding="UTF-8"?><svg id="a" xmlns="http://www.w3.org/2000/svg" viewBox="0 0 48 48"><defs><style>.b{fill:none;stroke:#000;stroke-linecap:round;stroke-linejoin:round;}</style></defs><line class="b" x1="9.528" y1="30.5452" x2="10.5372" y2="29.0429"/><path class="b" d="M37.359,25.2144l8.141-4.031-8.1639-.3578c-.283-1.5112-.8463-2.9199-1.6289-4.1812l6.4933-.3163-7.6658-1.2763c-.4763-.5469-.9958-1.0541-1.5608-1.5093l2.9497-5.0741-5.2712,3.5926-.0076,.0121c-1.5562-.7578-3.2927-1.1965-5.1314-1.2309l-1.2049-2.3738s-.269,1.4731-.4473,2.4503c-1.0949,.1271-2.1442,.3993-3.1316,.7953l-5.3537-6.411,3.6343,7.2688c-.8507,.5087-1.6323,1.1197-2.3338,1.8114l-6.6437-2.5349,4.3433,5.6614c-.8621,1.6743-1.3527,3.5706-1.3527,5.5848,0,.7092,.067,1.4015,.1828,2.0773L2.5,31.5377l11.5355-3.5808c1.1739,2.7026,3.2899,4.9013,5.9377,6.1787l2.1356,8.5612,2.2545-7.3833c.3066,.0229,.613,.0467,.9253,.0467,2.5362,0,4.8921-.7701,6.8479-2.0887l2.8749,2.9605-.9808-4.5401c.9062-.9213,1.6592-1.9889,2.2398-3.1586h5.9836l-5.4289-1.3059c.2324-.6482,.4125-1.3196,.5337-2.0131Z"/><line class="b" x1="13.1489" y1="21.3443" x2="9.9036" y2="20.9956"/><line class="b" x1="17.0073" y1="14.0696" x2="16.3683" y2="13.1628"/><line class="b" x1="17.3996" y1="32.4675" x2="15.8855" y2="34.1934"/><line class="b" x1="31.2018" y1="24.744" x2="33.4557" y2="25.2809"/><line class="b" x1="31.4361" y1="21.7784" x2="32.6107" y2="21.6193"/><line class="b" x1="30.0921" y1="18.7332" x2="30.4983" y2="18.4607"/><line class="b" x1="28.9893" y1="17.6561" x2="29.8344" y2="16.6702"/><line class="b" x1="26.6994" y1="16.5356" x2="26.8769" y2="15.966"/><line class="b" x1="23.1038" y1="16.6358" x2="22.9136" y2="16.0264"/><line class="b" x1="20.5997" y1="18.1379" x2="19.594" y2="17.1631"/><line class="b" x1="18.6361" y1="22.1022" x2="17.8437" y2="22.0619"/><line class="b" x1="20.2175" y1="26.9911" x2="19.8556" y2="27.2525"/><line class="b" x1="27.7366" y1="28.6287" x2="28.4059" y2="29.7941"/><line class="b" x1="29.8141" y1="27.1218" x2="30.1361" y2="27.4135"/><path class="b" d="M25.899,16.3868l-.6517-1.6816-.771,1.6531c-3.275,.302-5.8402,3.054-5.8402,6.4077,0,3.5556,2.8824,6.438,6.438,6.438s6.438-2.8824,6.438-6.438c0-3.2754-2.4479-5.9734-5.613-6.3792Z"/></svg>