<?xml version="1.0" encoding="UTF-8"?><svg id="b" xmlns="http://www.w3.org/2000/svg" viewBox="0 0 48 48"><defs><style>.c{fill:none;stroke:#000;stroke-linecap:round;stroke-linejoin:round;}</style></defs><path class="c" d="m43.5,26c-4.8745,0-4.8745-4-9.749-4s-4.8729,4-9.7459,4c-4.8763,0-4.8763-4-9.7526-4s-4.8763,4-9.7526,4"/><path class="c" d="m43.5,36c-4.8745,0-4.8745-4-9.749-4s-4.8729,4-9.7459,4c-4.8763,0-4.8763-4-9.7526-4s-4.8763,4-9.7526,4"/><path class="c" d="m43.5,16c-4.8745,0-4.8745-4-9.749-4s-4.8729,4-9.7459,4c-4.8763,0-4.8763-4-9.7526-4s-4.8763,4-9.7526,4"/></svg>