<?xml version="1.0" encoding="UTF-8"?><svg id="b" xmlns="http://www.w3.org/2000/svg" viewBox="0 0 48 48"><defs><style>.c{fill:none;stroke:#000;stroke-linecap:round;stroke-linejoin:round;}</style></defs><path class="c" d="m21.9554,23.9926c-9.648,7.504-13.1104,12.9075-14.4682,15.67-.3007.6118-1.0301,3.7926,3.1839,3.7926s9.0836-4.8696,13.3289-4.8696c4.2453,0,9.1148,4.8696,13.3289,4.8696s3.4847-3.1808,3.1839-3.7926c-1.3579-2.7625-4.8202-8.166-14.4682-15.67-8.99-6.9922-9.7391-8.0691-9.7391-10.0357,0-1.9197,3.2308-2.5284,9.5518-2.5284s10.5351,2.388,10.5351,2.388"/><path class="c" d="m26.0446,23.9179c9.648-7.504,13.1104-12.9075,14.4682-15.67.3007-.6118,1.0301-3.7926-3.1839-3.7926s-9.0836,4.8696-13.3289,4.8696c-4.2453,0-9.1148-4.8696-13.3289-4.8696s-3.4847,3.1808-3.1839,3.7926c1.3579,2.7625,4.8202,8.166,14.4682,15.67,8.99,6.9922,9.7391,8.0691,9.7391,10.0357,0,1.9197-3.2308,2.5284-9.5518,2.5284s-10.5351-2.388-10.5351-2.388"/></svg>