<?xml version="1.0" encoding="UTF-8"?><svg id="Layer_1" xmlns="http://www.w3.org/2000/svg" viewBox="0 0 48 48"><defs><style>.cls-1{fill:none;stroke:#000;stroke-linecap:round;stroke-linejoin:round;}</style></defs><path class="cls-1" d="M9.5,5.5h29c2.216,0,4,1.784,4,4v29c0,2.216-1.784,4-4,4H9.5c-2.216,0-4-1.784-4-4V9.5c0-2.216,1.784-4,4-4Z"/><path class="cls-1" d="M32.5,25.5c-5.5228,0-10-4.4772-10-10h3c0,1.8565.7375,3.637,2.0503,4.9497,1.3127,1.3128,3.0932,2.0503,4.9497,2.0503v3Z"/><path class="cls-1" d="M15.5,25.5c3.866,0,7,3.134,7,7h3c0-5.5228-4.4772-10-10-10v3Z"/></svg>