<svg xmlns="http://www.w3.org/2000/svg" id="a" viewBox="0 0 48 48"><defs><style>.c{fill:none;stroke:#000;stroke-linecap:round;stroke-linejoin:round;}</style></defs><path class="c" d="m7.8871,32.3548V9.0806c0-1.9775,1.6031-3.5806,3.5806-3.5806h25.0645c1.9775,0,3.5806,1.6031,3.5806,3.5806v22.6774c0,1.9775-1.6031,3.5806-3.5806,3.5806H11.4677c-1.9775,0-3.5806,1.6031-3.5806,3.5806s1.6031,3.5806,3.5806,3.5806h25.0645c1.9775,0,3.5806-1.6031,3.5806-3.5806"/><line class="c" x1="17.9627" y1="17.7751" x2="30.0373" y2="17.7751" id="b"/><line class="c" x1="21.6513" y1="11.6239" x2="30.0373" y2="11.6239" id="b"/><path class="c" d="m17.9627,11.6239h3.6885c3.3732,0,6.1078,2.7405,6.1078,6.121s-2.7346,6.121-6.1078,6.121l6.1078,5.9792" id="b"/></svg>