<?xml version="1.0" encoding="UTF-8"?><svg id="b" xmlns="http://www.w3.org/2000/svg" viewBox="0 0 48 48"><defs><style>.c{fill:none;stroke:#fff;stroke-linecap:round;stroke-linejoin:round;}</style></defs><path class="c" d="M38.5,5.5H9.5c-2.2091,0-4,1.7909-4,4v29c0,2.2091,1.7909,4,4,4h29c2.2091,0,4-1.7909,4-4V9.5c0-2.2091-1.7909-4-4-4Z"/><polyline class="c" points="12.5 16.5959 17.5869 13.8261 17.5869 34.1739"/><path class="c" d="M35.5,20.5663v6.8673c0,3.7225-3.0177,6.7402-6.7402,6.7402h0c-3.7225,0-6.7402-3.0177-6.7402-6.7402v-6.8673c0-3.7225,3.0177-6.7402,6.7402-6.7402h0c2.0654,0,3.9138.929,5.1502,2.3919l-.0053.0044-5.1449,7.7775"/></svg>