<?xml version="1.0" encoding="UTF-8"?><svg id="b" xmlns="http://www.w3.org/2000/svg" viewBox="0 0 48 48"><defs><style>.d{fill:none;stroke:#fff;stroke-linecap:round;stroke-linejoin:round;}</style></defs><path id="c" class="d" d="M38.5,5.5H9.5c-2.2091,0-4,1.7909-4,4v29c0,2.2091,1.7909,4,4,4h29c2.2091,0,4-1.7909,4-4V9.5c0-2.2091-1.7909-4-4-4Z"/><path class="d" d="M21.2509,25.4233c0,2.4187-1.9459,4.3795-4.3462,4.3795h-1.5253c-1.5902,0-2.8794-1.299-2.8794-2.9014s1.2891-2.9014,2.8794-2.9014h5.8795"/><path class="d" d="M13.5949,19.3468c1.0554-1.057,1.795-1.1496,3.832-1.1496,2.3125,0,3.832,1.0172,3.832,3.7665v6.1151c0,.9521.7718,1.7239,1.7239,1.7239"/><path class="d" d="M33.7681,25.4233c0,2.4187-1.9459,4.3795-4.3462,4.3795h-1.5253c-1.5902,0-2.8794-1.299-2.8794-2.9014,0-1.6024,1.2891-2.9014,2.8794-2.9014h5.8795"/><path class="d" d="M26.112,19.3468c1.0554-1.057,1.795-1.1496,3.832-1.1496,2.3125,0,3.832,1.0172,3.832,3.7665v6.1151c0,.9521.7718,1.7239,1.7239,1.7239"/></svg>