<?xml version="1.0" encoding="UTF-8"?><svg xmlns="http://www.w3.org/2000/svg" viewBox="0 0 48 48"><defs><style>.a{fill:none;stroke:#fff;stroke-linecap:round;stroke-linejoin:round;}.b{fill:#fff;}</style></defs><path class="a" d="M19.12,12.79A11.21,11.21,0,1,1,7.91,24,11.21,11.21,0,0,1,19.12,12.79Z"/><circle class="b" cx="19.12" cy="18.22" r=".75"/><line class="a" x1="19.12" x2="19.12" y1="22.08" y2="30.53"/><path class="a" d="m8.5 8.5a4.0004 4.0004 0 0 0-4 4v23a4.0004 4.0004 0 0 0 4 4h31a4.0004 4.0004 0 0 0 4-4v-12.822a4.0004 4.0004 0 0 0-1.1719-2.8281l-10.176-10.178a4.0004 4.0004 0 0 0-2.8281-1.1719z"/></svg>
