<?xml version="1.0" encoding="UTF-8"?><svg id="b" xmlns="http://www.w3.org/2000/svg" viewBox="0 0 48 48"><defs><style>.d{fill:none;stroke:#fff;stroke-linecap:round;stroke-linejoin:round;}</style></defs><path class="d" d="M28.3275,29.4209c-.6244,1.0928-1.801,1.8293-3.1497,1.8293-2.002,0-3.625-1.623-3.625-3.625v-2.3562c0-2.002,1.623-3.625,3.625-3.625s3.625,1.623,3.625,3.625v1.1781h-7.25"/><path class="d" d="M38.0244,29.4209c-.6244,1.0928-1.801,1.8293-3.1497,1.8293-2.002,0-3.625-1.623-3.625-3.625v-2.3562c0-2.002,1.623-3.625,3.625-3.625s3.625,1.623,3.625,3.625v1.1781h-7.25"/><path class="d" d="M15.4813,24c2.002,0,3.625,1.623,3.625,3.625s-1.623,3.625-3.625,3.625h-5.9813v-14.5h5.9813c2.002,0,3.625,1.623,3.625,3.625s-1.623,3.625-3.625,3.625Z"/><line class="d" x1="15.4813" y1="24" x2="9.5001" y2="24"/><path class="d" d="M38.5,26.4469H9.5"/><path id="c" class="d" d="M38.5006,5.4992H9.4994c-2.2001,0-4.0002,1.8001-4.0002,4.0002v29.0012c0,2.2001,1.8001,4.0002,4.0002,4.0002h29.0012c2.2001,0,4.0002-1.8001,4.0002-4.0002V9.4994c0-2.2001-1.8001-4.0002-4.0002-4.0002Z"/></svg>