<svg xmlns="http://www.w3.org/2000/svg" viewBox="0 0 48 48"><defs><style>.a{fill:none;stroke:#fff;stroke-linecap:round;stroke-linejoin:round;}</style></defs><rect class="a" x="5.5" y="5.5" width="37" height="37" rx="4" ry="4"/><path class="a" d="M24.15,37.41a13.41,13.41,0,1,1,9.47-22.88L29.1,19.05a7,7,0,1,0,0,9.91h0l4.52,4.52A13.37,13.37,0,0,1,24.15,37.41Z"/><line class="a" x1="27.38" y1="21.27" x2="27.38" y2="26.27"/><line class="a" x1="24.88" y1="23.77" x2="29.88" y2="23.77"/><line class="a" x1="34.77" y1="21.27" x2="34.77" y2="26.27"/><line class="a" x1="32.27" y1="23.77" x2="37.27" y2="23.77"/><line class="a" x1="40.31" y1="7.69" x2="37.91" y2="10.09"/><line class="a" x1="37.91" y1="7.69" x2="40.31" y2="10.09"/><polyline class="a" points="35.72 5.5 35.72 12.29 42.5 12.29"/></svg>
