<?xml version="1.0" encoding="UTF-8"?><svg id="a" xmlns="http://www.w3.org/2000/svg" viewBox="0 0 48 48"><defs><style>.b{fill:none;stroke:#fff;stroke-linecap:round;stroke-linejoin:round;}</style></defs><circle class="b" cx="12.947" cy="10.5735" r="2.0864"/><polyline class="b" points="20.703 8.519 22.757 10.574 20.703 12.628"/><polyline class="b" points="27.887 8.519 29.941 10.574 27.887 12.628"/><polyline class="b" points="35.07 8.519 37.125 10.574 35.07 12.628"/><path class="b" d="M28.81,31.2289c-.9167,1.6044-2.6231,2.5942-4.4709,2.5934h0c-2.8436.0002-5.1489-2.3049-5.1491-5.1485v-3.3472c0-2.8436,2.3051-5.1488,5.1487-5.1489h.0002c1.8441-.0007,3.5477.9851,4.4658,2.5844"/><path class="b" d="M42.5,32.9253c-.0002.9821-.3992,1.922-1.1056,2.6043l-5.5967,5.5278c-.9118.9233-2.1555,1.4429-3.4531,1.4426H9.5c-2.2091,0-4-1.7909-4-4V9.5c0-2.2091,1.7909-4,4-4h29c2.2091,0,4,1.7909,4,4v23.4253Z"/></svg>