<svg xmlns="http://www.w3.org/2000/svg" viewBox="0 0 48 48"><defs><style>.a{fill:none;stroke:#fff;stroke-linecap:round;stroke-linejoin:round;}</style></defs><rect class="a" x="4.5" y="8.5" width="39" height="31" rx="4" ry="4"/><rect class="a" x="8.5" y="12.4" width="31" height="23.2" rx="1"/><rect class="a" x="29.68" y="33.41" width="6.62" height="2.19"/><path class="a" d="M25.84,19a2.6,2.6,0,0,0-3.68,0l0,0a2.61,2.61,0,1,0,4.46,1.86A2.54,2.54,0,0,0,25.82,19Z"/><path class="a" d="M22,25.53h4a3,3,0,0,1,3,3v1.21a0,0,0,0,1,0,0H19a0,0,0,0,1,0,0V28.53A3,3,0,0,1,22,25.53Z"/><path class="a" d="M17.42,21.47a2,2,0,0,0-2.84,0l0,0A2,2,0,1,0,18,22.91a2,2,0,0,0-.6-1.43Z"/><path class="a" d="M19.34,27.14a2,2,0,0,0-1.47-.65H14.13a2,2,0,0,0-2,2v1.25H19"/><path class="a" d="M33.42,21.47a2,2,0,0,0-2.84,0l0,0A2,2,0,1,0,34,22.91a2,2,0,0,0-.6-1.43Z"/><path class="a" d="M29,29.74h6.86V28.49a2,2,0,0,0-2-2H30.13a2,2,0,0,0-1.47.65"/></svg>
