<?xml version="1.0" encoding="UTF-8"?><svg id="a" xmlns="http://www.w3.org/2000/svg" viewBox="0 0 48 48"><defs><style>.c{fill:none;stroke:#fff;stroke-linecap:round;stroke-linejoin:round;}</style></defs><path id="b" class="c" d="M43.5,35.5V12.5c0-2.2091-1.7909-4-4-4H8.5c-2.2091,0-4,1.7909-4,4v23c0,2.2091,1.7909,4,4,4h31c2.2091,0,4-1.7909,4-4Z"/><rect class="c" x="16.3053" y="20.7281" width="5.5" height="7.2875" rx="2.75" ry="2.75"/><rect class="c" x="28.4534" y="20.7281" width="5.5" height="7.2875" rx="2.75" ry="2.75"/><path class="c" d="M36.7291,23.4781c0-1.5188,1.2312-2.75,2.75-2.75h0"/><line class="c" x1="36.7291" y1="20.7281" x2="36.7291" y2="28.0156"/><path class="c" d="M24.5854,17.0156v9.625c0,.7594.6156,1.375,1.375,1.375h.4125"/><path class="c" d="M13.6588,26.6305c-.474.8275-1.3659,1.3851-2.3879,1.3851h0c-1.5188,0-2.75-1.2312-2.75-2.75v-1.7875c0-1.5188,1.2312-2.75,2.75-2.75h0c1.0201,0,1.9104.5554,2.3852,1.3803"/></svg>