<?xml version="1.0" encoding="UTF-8"?><svg version="1.1" viewBox="0 0 48 48" xmlns="http://www.w3.org/2000/svg"><defs><style>.a{fill:none;stroke:#fff;stroke-linecap:round;stroke-linejoin:round;}</style></defs><rect class="a" x="8.5" y="4.5" width="31" height="39" rx="4" ry="4"/><rect class="a" x="11.533" y="7.9626" width="24.935" height="6.5748"/><rect class="a" transform="translate(35.172 6.1064) rotate(90)" x="11.894" y="17.639" width="5.2781" height="6"/><rect class="a" transform="translate(43.5 14.435) rotate(90)" x="11.894" y="25.967" width="5.2781" height="6"/><rect class="a" transform="translate(51.828 22.763) rotate(90)" x="11.894" y="34.296" width="5.2781" height="6"/><rect class="a" transform="translate(44.639 -3.3609) rotate(90)" x="21.361" y="17.639" width="5.2781" height="6"/><rect class="a" transform="translate(52.967 4.9674) rotate(90)" x="21.361" y="25.967" width="5.2781" height="6"/><rect class="a" transform="translate(61.296 13.296) rotate(90)" x="21.361" y="34.296" width="5.2781" height="6"/><rect class="a" transform="translate(54.106 -12.828) rotate(90)" x="30.828" y="17.639" width="5.2781" height="6"/><rect class="a" transform="translate(62.435 -4.4999) rotate(90)" x="30.828" y="25.967" width="5.2781" height="6"/><rect class="a" transform="translate(70.763 3.8283) rotate(90)" x="30.828" y="34.296" width="5.2781" height="6"/><line class="a" x1="30.841" x2="28.813" y1="11.245" y2="11.245"/><polyline class="a" points="32.996 10.407 34.126 9.745 34.126 12.745"/></svg>
