<?xml version="1.0" encoding="UTF-8"?><svg id="a" xmlns="http://www.w3.org/2000/svg" viewBox="0 0 48 48"><defs><style>.b{fill:none;stroke:#fff;stroke-linecap:round;stroke-linejoin:round;}</style></defs><path class="b" d="M38.5,5.5H9.4999c-2.2091,0-4,1.7909-4,4v29c0,2.2091,1.7909,4,4,4h29c2.2091,0,4-1.7909,4-4V9.5c0-2.2091-1.7909-4-4-4Z"/><path class="b" d="M30.8144,28v-8h1.8c1.9,0,3.5,1.6,3.5,3.5v1c0,1.9-1.6,3.5-3.5,3.5h-1.8Z"/><line class="b" x1="19.5651" y1="24" x2="22.1651" y2="24"/><polyline class="b" points="19.5651 28 19.5651 20 23.5651 20"/><line class="b" x1="16.3856" y1="25.3" x2="12.7856" y2="25.3"/><polyline class="b" points="11.8856 28 14.5856 20 17.2856 28"/><line class="b" x1="27.7777" y1="25.3" x2="24.1777" y2="25.3"/><polyline class="b" points="23.2777 28 25.9777 20 28.6777 28"/></svg>