<?xml version="1.0" encoding="UTF-8"?><svg id="a" xmlns="http://www.w3.org/2000/svg" viewBox="0 0 48 48"><defs><style>.b{fill:none;stroke:#fff;stroke-linecap:round;stroke-linejoin:round;}</style></defs><path class="b" d="M14.7828,15.4612v6.4241c0,1.1827-.9587,2.1414-2.1414,2.1414h0c-.5913,0-1.1266-.2397-1.5141-.6272"/><rect class="b" x="10.5" y="15.4612" width="4.2828" height="5.6747" rx="2.1414" ry="2.1414" transform="translate(25.2828 36.5972) rotate(-180)"/><path class="b" d="M37.5,30.3974v2.8909c0,1.1827-.9587,2.1414-2.1414,2.1414h0c-.5913,0-1.1266-.2397-1.5141-.6272"/><path class="b" d="M37.5,26.8641v3.5333c0,1.1827-.9587,2.1414-2.1414,2.1414h0c-1.1827,0-2.1414-.9587-2.1414-2.1414v-3.5333"/><path class="b" d="M17.1771,12.5704v7.4948c0,.5913.4794,1.0707,1.0707,1.0707h.3212"/><path class="b" d="M23.9064,23.9732v7.4948c0,.5913.4794,1.0707,1.0707,1.0707h.3212"/><path class="b" d="M31.0133,30.3974c0,1.1827-.9587,2.1414-2.1414,2.1414h0c-1.1827,0-2.1414-.9587-2.1414-2.1414v-1.3919c0-1.1827.9587-2.1414,2.1414-2.1414h0c1.1827,0,2.1414.9587,2.1414,2.1414"/><line class="b" x1="31.0133" y1="32.5388" x2="31.0133" y2="26.8641"/><path class="b" d="M26.813,17.6026c0-1.1827.9587-2.1414,2.1414-2.1414h0c1.1827,0,2.1414.9587,2.1414,2.1414v1.3919c0,1.1827-.9587,2.1414-2.1414,2.1414h0c-1.1827,0-2.1414-.9587-2.1414-2.1414"/><line class="b" x1="26.813" y1="21.1359" x2="26.813" y2="12.5704"/><path class="b" d="M17.5117,30.3974c0,1.1827.9587,2.1414,2.1414,2.1414h0c1.1827,0,2.1414-.9587,2.1414-2.1414v-1.3919c0-1.1827-.9587-2.1414-2.1414-2.1414h0c-1.1827,0-2.1414.9587-2.1414,2.1414"/><line class="b" x1="17.5117" y1="26.8641" x2="17.5117" y2="35.4296"/><path class="b" d="M20.3196,17.6026c0-1.1827.9587-2.1414,2.1414-2.1414s2.1414.9587,2.1414,2.1414v1.3919c0,1.1827-.9587,2.1414-2.1414,2.1414s-2.1414-.9587-2.1414-2.1414v-1.3919Z"/><path class="b" d="M33.2172,17.6026c0-1.1827.9587-2.1414,2.1414-2.1414s2.1414.9587,2.1414,2.1414v1.3919c0,1.1827-.9587,2.1414-2.1414,2.1414s-2.1414-.9587-2.1414-2.1414v-1.3919Z"/><path class="b" d="M9.5,5.4999h29c2.2091,0,4,1.7909,4,4v29c0,2.2091-1.7909,4-4,4H9.5c-2.2091,0-4-1.7909-4-4V9.4999c0-2.2091,1.7909-4,4-4Z"/></svg>