<?xml version="1.0" encoding="UTF-8"?><svg id="a" xmlns="http://www.w3.org/2000/svg" viewBox="0 0 48 48"><defs><style>.d{fill:none;stroke:#fff;stroke-linecap:round;stroke-linejoin:round;}.c{fill:#fff;stroke-width:0px;}</style></defs><rect class="d" x="5.5" y="5.5" width="37" height="37" rx="4" ry="4"/><line class="d" x1="29.2" x2="33.2" y1="17.6" y2="17.6"/><line class="d" x1="29.2" x2="31.2" y1="10.8" y2="9.7"/><line class="d" x1="31.2" x2="31.2" y1="9.7" y2="17.6"/><path class="d" d="m15.7 16.9c0.7 0.5 1.5 0.8 2.4 0.7h0.3c1.4 0 2.6-1.2 2.6-2.6-0.1-1.4-1.2-2.5-2.6-2.6h-2.7v-2.7h5.3"/><line class="d" x1="35.7" x2="39.7" y1="17.6" y2="17.6"/><line class="d" x1="35.7" x2="37.7" y1="10.8" y2="9.7"/><line class="d" x1="37.7" x2="37.7" y1="9.7" y2="17.6"/><line class="d" x1="23.6" x2="26.6" y1="12.6" y2="15.7"/><line class="d" x1="26.6" x2="23.5" y1="12.7" y2="15.7"/><path class="d" d="m24.2 33.6c1.1 0 2-0.9 2-2s-0.9-2-2-2h-1.3c-1.1 0-2 0.9-2 2s0.9 2 2 2c-1.1 0-2 0.9-2 2s0.9 2 2 2h1.3c1.1 0 2-0.9 2-2s-0.9-2-2-2"/><path class="d" d="m28.5 38c0.7 0.6 1.5 0.8 2.4 0.7h0.3c1.4 0 2.6-1.2 2.6-2.6s-1.2-2.6-2.6-2.6h-2.7v-2.8h5.3"/><circle class="c" cx="36.7" cy="38.7" r=".8"/><line class="d" x1="36.7" x2="36.7" y1="29.8" y2="36.2"/><line class="d" x1="20.8" x2="27.2" y1="22.1" y2="22.1"/><line class="d" x1="20.8" x2="27.2" y1="25.9" y2="25.9"/><line class="d" x1="22.9" x2="24.2" y1="33.6" y2="33.6"/><path class="d" d="m11.6 13.7c1.1 0 2-0.9 2-2s-0.9-2-2-2"/><path class="d" d="m11.6 17.6c1.1 0 2-0.9 2-2s-0.9-2-2-2"/><path class="d" d="m8.3 17c0.7 0.5 1.6 0.8 2.5 0.7h0.8"/><path class="d" d="m8.3 10.4c0.7-0.6 1.6-0.8 2.5-0.7h0.8"/><line class="d" x1="9.6" x2="11.6" y1="13.7" y2="13.7"/><path class="d" d="m16.5 34.6c1.1 0 2-0.9 2-2s-0.9-2-2-2"/><path class="d" d="m16.5 38.6c1.1 0 2-0.9 2-2s-0.9-2-2-2"/><path class="d" d="m13.2 37.9c0.7 0.5 1.6 0.8 2.5 0.7h0.8"/><path class="d" d="m13.2 31.3c0.7-0.5 1.6-0.8 2.5-0.7h0.8"/><line class="d" x1="14.5" x2="16.5" y1="34.6" y2="34.6"/></svg>
