<?xml version="1.0" encoding="UTF-8"?><svg id="a" xmlns="http://www.w3.org/2000/svg" viewBox="0 0 48 48"><defs><style>.b{fill:none;stroke:#fff;stroke-linecap:round;stroke-linejoin:round;}</style></defs><path class="b" d="M39,5H9c-2.2091,0-4,1.7909-4,4v30c0,2.2091,1.7909,4,4,4h30c2.2091,0,4-1.7909,4-4V9c0-2.2091-1.7909-4-4-4ZM39,22h-7.917v-5.0805h-5.082v-7.9195h12.999v13ZM27.083,20.9175v6.166h-6.166v-6.166h6.166ZM22.001,9v7.9195h-3.979l-1.105-.002v5.0825h-7.917v-13h13.001ZM37.125,39H9v-13h7.917v5.0825h14.166v-5.0825h7.917v11.125c0,1.0355-.8395,1.875-1.875,1.875Z"/></svg>