<?xml version="1.0" encoding="UTF-8"?><svg id="a" xmlns="http://www.w3.org/2000/svg" viewBox="0 0 48 48"><defs><style>.b{fill:none;stroke:#fff;stroke-linecap:round;stroke-linejoin:round;}</style></defs><path class="b" d="M38.5,5.5H9.5c-2.2091,0-4,1.7909-4,4v29c0,2.2091,1.7909,4,4,4h29c2.2091,0,4-1.7909,4-4V9.5c0-2.2091-1.7909-4-4-4Z"/><path class="b" d="M9.5,26.9334v-5.8666h1.9066c1.1,0,1.98.88,1.98,1.98s-.88,1.98-1.98,1.98h-1.9066"/><path class="b" d="M14.9686,26.9334v-5.8666h1.9066c1.1,0,1.98.88,1.98,1.98s-.88,1.98-1.98,1.98h-1.9066"/><line class="b" x1="16.947" y1="25.0252" x2="18.7819" y2="26.86"/><line class="b" x1="29.8545" y1="21.0668" x2="33.6678" y2="21.0668"/><line class="b" x1="31.7612" y1="26.9334" x2="31.7612" y2="21.0668"/><path class="b" d="M24.6707,26.2734c.3667.44.8067.66,1.4666.66h.88c.8067,0,1.4666-.66,1.4666-1.4666h0c0-.8067-.66-1.4666-1.4666-1.4666h-.9533c-.8067,0-1.4666-.66-1.4666-1.4666h0c0-.8067.66-1.4666,1.4666-1.4666h.88c.66,0,1.1.1467,1.4666.66"/><line class="b" x1="20.5041" y1="24.0001" x2="22.4108" y2="24.0001"/><polyline class="b" points="23.4374 26.9334 20.5041 26.9334 20.5041 21.0668 23.4374 21.0668"/><path class="b" d="M36.52,26.9334h0c-1.1,0-1.9067-.88-1.9067-1.9067v-1.98c0-1.1.88-1.98,1.9067-1.98h0c1.1,0,1.98.88,1.98,1.98v1.9067c0,1.1-.88,1.98-1.98,1.98Z"/></svg>