<?xml version="1.0" encoding="UTF-8"?><svg id="b" xmlns="http://www.w3.org/2000/svg" viewBox="0 0 48 48"><defs><style>.c{stroke:#fff;}.c,.d{fill:none;stroke-linecap:round;stroke-linejoin:round;}.d{stroke:rgba(255,255,255,.9998);}</style></defs><path class="d" d="M32.5844,21.3479c.0492,4.8017-3.8035,8.734-8.6052,8.7832-4.8017.0492-8.734-3.8035-8.7832-8.6052-.0006-.0593-.0006-.1187,0-.178-.0492-4.8017,3.8035-8.734,8.6052-8.7832,4.8017-.0492,8.734,3.8035,8.7832,8.6052.0006.0593.0006.1187,0,.178Z"/><path class="d" d="M34.9274,21.56c.7349-6.1121-4.9902-11.146-11.0368-11.146s-11.7725,5.0339-11.0377,11.146c.7467,6.2159,6.8251,15.1164,11.0368,14.9725,4.2125.1439,10.2901-8.7566,11.0377-14.9725Z"/><polyline class="d" points="31.3332 30.5133 37.4945 30.5133 37.4945 37.414 10.5045 37.414 10.5045 30.5133 16.4454 30.5133"/><polyline class="d" points="34.9866 20.5875 37.4927 20.5875 37.4927 27.4882 33.0425 27.4882"/><polyline class="d" points="14.7371 27.4882 10.5054 27.4882 10.5054 20.5875 12.7929 20.5875"/><polyline class="d" points="25.7374 10.5706 37.4936 10.5706 37.4936 17.4713 34.4475 17.4713"/><polyline class="d" points="13.3338 17.4713 10.5054 17.4713 10.5054 10.5706 10.5054 10.5706 22.043 10.5706"/><rect class="c" x="5.5" y="5.5" width="37" height="37" rx="4" ry="4"/></svg>