<svg xmlns="http://www.w3.org/2000/svg" viewBox="0 0 48 48"><defs><style>.a{fill:none;stroke:#fff;stroke-linecap:round;stroke-linejoin:round;}</style></defs><rect class="a" x="5.5" y="5.5" width="37" height="37" rx="4" ry="4"/><path class="a" d="M11.56,20.91V11.5h3.08a3.16,3.16,0,0,1,0,6.32H11.56"/><line class="a" x1="14.64" y1="17.82" x2="17.71" y2="20.9"/><polyline class="a" points="23.7 14.23 24.76 12.26 25.82 14.23"/><line class="a" x1="21.82" y1="19.73" x2="27.7" y2="19.73"/><line class="a" x1="21.82" y1="16.2" x2="27.7" y2="16.2"/><path class="a" d="M36.44,17.2a2.35,2.35,0,0,0-2.35-2.35h0a2.35,2.35,0,0,0-2.35,2.35v1.53a2.35,2.35,0,0,0,2.35,2.35h0a2.35,2.35,0,0,0,2.35-2.35"/><line class="a" x1="36.44" y1="21.08" x2="36.44" y2="11.68"/><line class="a" x1="36.44" y1="30.27" x2="31.74" y2="36.5"/><line class="a" x1="36.44" y1="36.5" x2="31.74" y2="30.27"/><path class="a" d="M12.79,28.33v7A1.18,1.18,0,0,0,14,36.5h.35"/><line class="a" x1="11.56" y1="30.27" x2="14.03" y2="30.27"/><polyline class="a" points="23.7 29.65 24.76 27.68 25.82 29.65"/><line class="a" x1="21.82" y1="35.15" x2="27.7" y2="35.15"/><line class="a" x1="21.82" y1="31.62" x2="27.7" y2="31.62"/></svg>
