<?xml version="1.0" encoding="UTF-8"?><svg id="a" xmlns="http://www.w3.org/2000/svg" viewBox="0 0 48 48"><defs><style>.e{fill:none;stroke:#fff;stroke-linecap:round;stroke-linejoin:round;}</style></defs><path id="b" class="e" d="M38.5001,5.5001H9.5001c-2.2091,0-4,1.7909-4,4v29c0,2.2091,1.7909,4,4,4h29c2.2091,0,4-1.7909,4-4V9.5001c0-2.2091-1.7909-4-4-4Z"/><path id="c" class="e" d="M31.5,14.5h-15c-1.1046,0-2,.8954-2,2v15c0,1.1046.8954,2,2,2h15c1.1046,0,2-.8954,2-2v-15c0-1.1046-.8954-2-2-2Z"/><path id="d" class="e" d="M27,19h-6c-1.1046,0-2,.8954-2,2v6c0,1.1046.8954,2,2,2h6c1.1046,0,2-.8954,2-2v-6c0-1.1046-.8954-2-2-2Z"/></svg>