<svg xmlns="http://www.w3.org/2000/svg" viewBox="0 0 48 48"><defs><style>.a{fill:none;stroke:#fff;stroke-linecap:round;stroke-linejoin:round;}</style></defs><rect class="a" x="5.5" y="5.5" width="37" height="37" rx="4" ry="4"/><polyline class="a" points="28.31 33.96 29.75 33.96 35.5 24 29.75 14.04 18.25 14.04 15.44 18.91"/><path class="a" d="M25.65,42.5l1.92-5.28a13.31,13.31,0,0,0,.16-8.63l.34-.62a12.13,12.13,0,0,0,1.14-6.35,12,12,0,0,0-5.92.3l-.21.07a13.5,13.5,0,0,0-3.49-1.9h0a13.53,13.53,0,0,0-3.91-.79l-.11-.19a12.13,12.13,0,0,0-4.34-4A12,12,0,0,0,8,20.67q-.09.34-.15.69A13.71,13.71,0,0,0,5.5,23.28"/><circle class="a" cx="12.35" cy="25.53" r="1.1"/><circle class="a" cx="21.63" cy="28.91" r="1.1"/></svg>
