<?xml version="1.0" encoding="UTF-8"?><svg id="a" xmlns="http://www.w3.org/2000/svg" viewBox="0 0 48 48"><defs><style>.b{fill:none;stroke:#fff;stroke-linecap:round;stroke-linejoin:round;}</style></defs><path class="b" d="M39,22h-7.917v-5.0805h-5.082v-7.9195h11.999c.5523,0,1,.4477,1,1v12ZM27.083,20.9175v6.166h-6.166v-6.166h6.166ZM22.001,9v7.9195h-3.979l-1.105-.002v5.0825h-7.917v-12c0-.5523.4477-1,1-1h12.001ZM38,39H10c-.5523,0-1-.4477-1-1v-12h7.917v5.0825h14.166v-5.0825h7.917v12c0,.5523-.4477,1-1,1Z"/><path class="b" d="M28.9037,16.7461c-.2804-2.3148,2.7045-5.2804,7.5269-5,0,0,.66,2.3764-1.4709,4.7035-2.1941,2.3962-3.8768,1.9788-3.8768,1.9788"/><path class="b" d="M19.055,16.7461c.2804-2.3148-3.1045-5.6075-8.3755-4.2617,0,0-.4015,2.4467,1.9065,4.5981,2.2859,2.1308,4.2897,1.3458,4.2897,1.3458"/><path class="b" d="M24,31.0825c.0813,1.3645-.0869,5.3084-2.4981,5.6636"/><path class="b" d="M38.5,5.5H9.5c-2.2091,0-4,1.7909-4,4v29c0,2.2091,1.7909,4,4,4h29c2.2091,0,4-1.7909,4-4V9.5c0-2.2091-1.7909-4-4-4Z"/></svg>