<?xml version="1.0" encoding="UTF-8"?><svg id="a" xmlns="http://www.w3.org/2000/svg" viewBox="0 0 48 48"><defs><style>.b{fill:none;stroke:#fff;stroke-linecap:round;stroke-linejoin:round;}</style></defs><path class="b" d="M26.4059,16.4296h10.5201l-10.5201,15.8795h10.5201"/><path class="b" d="M12.2403,30.5694c.9738,1.2678,2.1948,1.7398,3.8936,1.7398h2.3509c2.1878,0,3.9613-1.7735,3.9613-3.9613v-.0171c0-2.1878-1.7735-3.9613-3.9613-3.9613h-2.5932c-2.1902,0-3.9655-1.7755-3.9655-3.9655,0-2.1949,1.7792-3.9742,3.9741-3.9742h2.3381c1.6987,0,2.9197.4722,3.8936,1.7398"/><path class="b" d="M38.5,5.4999H9.5c-2.2091,0-4,1.7909-4,4v29c0,2.2091,1.7909,4,4,4h29c2.2091,0,4-1.7909,4-4V9.4999c0-2.2091-1.7909-4-4-4Z"/></svg>