<?xml version="1.0" encoding="UTF-8"?><svg id="a" xmlns="http://www.w3.org/2000/svg" viewBox="0 0 48 48"><defs><style>.d{fill:none;stroke:#fff;stroke-linecap:round;stroke-linejoin:round;}</style></defs><rect class="d" x="5.5" y="5.5" width="37" height="37" rx="4" ry="4"/><path class="d" d="m25.308 34.642c0.208 0.656 0.894 0.47 1.748 0.057 0.522-0.252 0.713-0.528 1.052-0.748-0.33 1.397-0.915 2.819-0.808 4.172 0.04 0.507-0.163 1.236-0.526 1.966"/><path class="d" d="m31.977 33.065-0.477-1.41"/><path class="d" d="m26.705 42.514c1.74-1.147 5.235-6.096 6.545-8.896-0.313-0.437-0.751-0.59-1.273-0.553"/><path class="d" d="m26.774 40.089c-0.387 0.779-0.957 1.558-1.609 2.07l0.465 0.34"/><path class="d" d="m40.386 42.031c-0.93342-3.0814-2.0388-6.0517-4.232-7.4563 0.243-0.711 0.49-1.454-0.185-2.138-0.353-0.357-0.772-0.537-1.167-0.532-1.059-0.228-2.133-0.404-3.302-0.25l-0.288-0.851-2.719-4e-3"/><path class="d" d="m33.25 33.618c0.134-0.286 0.262-0.573 0.385-0.86 0.242-0.567 0.686-0.848 1.167-0.853"/><path class="d" d="m36.153 34.575c-0.997 2.925-2.67 5.433-5.106 7.925"/><path class="d" d="m18.777 41.293-0.799-0.63 0.606-0.91c-0.236-1.997-1.204-4.902-3.215-6.329 0.411-0.332 0.916-0.408 1.454-0.397"/><path class="d" d="m16.823 33.027 0.538-1.359c-1.653-0.11-3.129 8e-3 -3.729 0.995"/><path class="d" d="m14.764 27.981c1.538 1.599 3.895 2.776 7.373 3.062l2.259-2.01c0.276-0.245 0.54-0.309 0.786-0.285"/><path class="d" d="m12.46 23.458c0.101 0.498 0.239 0.993 0.417 1.478"/><path class="d" d="m36.431 18.978c-0.836-5.2-4.697-10.54-12.013-10.54s-11.174 5.335-12.012 10.533"/><path class="d" d="m35.939 24.989c0.1851-0.4971 0.3309-1.008 0.436-1.528"/><path class="d" d="m28.493 30.8c2.495-0.483 4.29-1.494 5.546-2.785"/><path class="d" d="m17.361 31.668 0.55-0.965"/><path class="d" d="m9.676 42.504c0.047-1.974 0.215-4.013 1.23-5.782-0.3493-0.3693-0.6804-0.7554-0.992-1.157 0.728-1.352 1.908-1.614 2.983-1.066-0.8098 0.5956-1.4873 1.3525-1.99 2.223"/><path class="d" d="m13.632 32.663c-0.1878-0.0384-0.3779-0.0651-0.569-0.08-2.198-0.171-4.084 1.467-3.149 2.982"/><path class="d" d="m15.369 33.424c-0.5193-0.3726-1.1111-0.6319-1.737-0.761"/><path class="d" d="m12.897 34.499c1.046 0.534 1.993 1.835 2.33 3.645 0.259 1.4 0.382 3.011 0.733 4.36"/><path class="d" d="m24.521 33.888 0.564-1.145 0.78 0.88c-0.757 0.454-0.647 0.736-0.557 1.019 0.375 1.382 0.887 2.584 0.332 4.155"/><path class="d" d="m28.406 31.15c-0.0134-0.1102-0.0324-0.2197-0.057-0.328-0.108-0.465-1.493-1.328-2.494-1.839-0.2-0.101-0.426-0.212-0.673-0.235"/><path class="d" d="m28.406 31.149c0.45-0.628 1.53-0.583 1.876-0.04 0.112 0.323 0.116 0.508-0.079 0.928-0.728 0.455-1.402 1.243-2.095 1.914 0.31-0.986 0.391-2.055 0.298-2.801"/><path class="d" d="m20.182 42.4-1.405-1.108c-0.403 0.393-0.767 0.797-1.11 1.207"/><path class="d" d="m19.67 38.125 1.196 0.878c0.37-1.913 0.38-3.964 0.385-6.014 1e-3 -0.865 0.335-1.483 0.886-1.946 0.404-2.019 0.48-3.605 0.572-5.978 0.035-0.917 0.09-2.045 0.908-2.19 1.66-0.295 2.036 1.118 2.175 2.08 0.205 1.414-0.4 2.532-0.61 3.793"/><path class="d" d="m18.584 39.754 1.086-1.629"/><path class="d" d="m20.866 39.003 4.3 3.155"/><path class="d" d="m12.602 18.952c0.797 0.421 0.79 4.24 0.394 4.5l-1.116 0.016c-0.434-1.331-0.514-3.28-0.18-4.43l0.902-0.086"/><path class="d" d="m12.742 25.057c0.141 1.213 0.748 2.424 1.702 3.14l0.67-0.45c0.232-1.155-0.354-2.657-1.54-3.16-0.4 0.025-0.59 0.276-0.832 0.47"/><path class="d" d="m36.149 18.952c-0.797 0.421-0.79 4.24-0.394 4.5l1.116 0.016c0.434-1.331 0.514-3.28 0.18-4.43l-0.902-0.086"/><path class="d" d="m36.009 25.057c-0.141 1.213-0.748 2.424-1.702 3.14l-0.67-0.45c-0.232-1.155 0.354-2.657 1.54-3.16 0.4 0.025 0.59 0.276 0.832 0.47"/><path class="d" d="m22.344 29.826c-4.8237-0.9508-8.2942-5.1083-8.294-9.936 0-5.5969 4.624-10.134 10.328-10.134s10.328 4.5371 10.328 10.134c5e-4 4.5902-3.1434 8.6076-7.663 9.792"/><path id="b" class="d" d="m31.101 15.45c-0.727-2.05-3.944-4.035-7.626-3.68-3.789 0.363-6.673 3.17-7.054 6.425-0.253 2.166 1.039 1.685 1.427 0.735 1.047-2.56 4.865-4.943 7.42-5.052 1.604-0.068 3.484 0.422 4.695 1.15 0.464 0.279 0.882 0.713 1.138 0.422"/></svg>
