<?xml version="1.0" encoding="UTF-8"?><svg version="1.1" viewBox="0 0 48 48" xmlns="http://www.w3.org/2000/svg"><defs><style>.a{fill:none;stroke:#fff;stroke-linecap:round;stroke-linejoin:round;}</style></defs><rect class="a" x="5.5" y="5.5" width="37" height="37" rx="4" ry="4"/><path class="a" d="m32.851 27.301a2.1047 2.1047 0 0 0-2.245-2.67 3.6341 3.6341 0 0 0-3.1235 2.8215l-0.5258 2.4779a2.0974 2.0974 0 0 0 2.1007 2.6739 3.48 3.48 0 0 0 3.2357-2.6739h-2.6682"/><line class="a" x1="9.5" x2="14.785" y1="15.294" y2="15.294"/><line class="a" x1="10.45" x2="12.142" y1="23.271" y2="15.294"/><path class="a" d="m35.763 32.706a1.566 1.566 0 0 1-1.571-1.9943l0.2751-1.2962a2.5982 2.5982 0 0 1 2.4174-1.9943 1.566 1.566 0 0 1 1.571 1.9943l-0.2751 1.2962a2.5983 2.5983 0 0 1-2.4174 1.9943z"/><path class="a" d="m17.154 21.277a2.5981 2.5981 0 0 1-2.4174 1.9943 1.5659 1.5659 0 0 1-1.571-1.9943l0.275-1.2962a2.5982 2.5982 0 0 1 2.4175-1.9942 1.5659 1.5659 0 0 1 1.571 1.9942"/><line class="a" x1="16.73" x2="17.852" y1="23.271" y2="17.987"/><path class="a" d="m19.4 21.277a1.566 1.566 0 0 0 1.571 1.9943 2.5983 2.5983 0 0 0 2.4175-1.9943l0.2751-1.2962a1.5659 1.5659 0 0 0-1.5711-1.9942 2.5981 2.5981 0 0 0-2.4174 1.9942"/><line class="a" x1="20.098" x2="18.406" y1="17.987" y2="25.964"/><path class="a" d="M24.5628,32.7057h-.674a1.0943,1.0943,0,0,1-1.0069-.5748l-1.96-3.8032a2.6546,2.6546,0,0,1-.5583-1.9919,2.1144,2.1144,0,0,1,2.01-1.6071A1.2552,1.2552,0,0,1,23.65,26.3358a2.8614,2.8614,0,0,1-2.514,1.9473A3.3619,3.3619,0,0,0,18.1366,30.78c-.2358,1.1113.2918,1.926,1.6923,1.926,1.8409,0,3.2949-1.7457,5.3505-3.8911"/></svg>
