<?xml version="1.0" encoding="UTF-8"?><svg id="a" xmlns="http://www.w3.org/2000/svg" viewBox="0 0 48 48"><defs><style>.c{fill:none;stroke:#fff;stroke-linecap:round;stroke-linejoin:round;}</style></defs><ellipse class="c" cx="19.0621" cy="18.7831" rx="3.1696" ry="2.9102"/><path class="c" d="M26.2742,20.3242v-2.7496c2.043-.5474,4.1193-.3983,6.183.1546v2.73c-2.0939-.5806-4.0953-.6945-6.183-.1351h0Z"/><path class="c" d="M33,26.6371v1.8762c-4.9124,4.9124-13.0929,4.7686-18-.1387v-1.8755s9.5368,6.665,18,.1381h0Z"/><path id="b" class="c" d="M38.5,5.5H9.5c-2.2091,0-4,1.7909-4,4v29c0,2.2091,1.7909,4,4,4h29c2.2091,0,4-1.7909,4-4V9.5c0-2.2091-1.7909-4-4-4Z"/></svg>