<?xml version="1.0" encoding="UTF-8"?><svg xmlns="http://www.w3.org/2000/svg" viewBox="0 0 48 48"><defs><style>.a{fill:none;stroke:#fff;stroke-linecap:round;stroke-linejoin:round;}.b{fill:#fff;}</style></defs><rect class="a" x="5.5" y="5.5" width="37" height="37" rx="4" ry="4"/><path class="a" d="m5.5 26.9" fill="none"/><path class="a" d="m42.131 40.171c-9.0918-9.1613-18.217-16.358-23.135-12.633l-1.6574 0.1275c-0.9416-1.9638-1.6058-3.9439-1.1155-5.992 0.8652-2.4153 1.7605-4.946 2.5179-7.0757 0.587-1.65-0.7824-4.5942-3.9522-2.6773-5.3007 3.2056-2.1734 8.8164-1.7211 9.1793 0.68 0.5454 0.1759 1.7434 0.4144 2.5817a48.205 48.205 0 0 0 2.3267 5.5777c0.1639-0.3608-3.0942-4.0169-5.8964-2.9961a20.565 20.565 0 0 1-4.4124 0.6371" fill="none"/><path class="a" d="M5.5,30.95c.1139.1981,2.586-.212,4.604-.9894,2.3831-.9182,4.806.9934,3.8566,3.06-2.0237,4.4045,2.6772,9.48,2.6772,9.48"/><path class="a" d="m19.591 27.151c0.31 5.8553-3.2854 5.9594-5.4692 5.3916"/><path class="a" d="m22.639 26.555a5.1815 5.1815 0 0 1 0.1183 3.3731"/><path class="a" d="m21.418 32.797c-1.9194 2.9568-4.501 4.1479-7.95 3.0267"/><path class="a" d="m30.148 29.762a8.7388 8.7388 0 0 1-0.22 3.8631"/><path class="a" d="m20.845 42.5a10.634 10.634 0 0 0 6.0877-3.5518"/><path class="a" d="M35.27,33.7207c.0619,1.7108.2224,3.4444-.7836,4.9088"/><path class="a" d="m32.988 41.147-1.4023 1.3526"/><path class="a" d="m38.768 36.884a4.6385 4.6385 0 0 1-0.0113 2.1285"/><path class="a" d="M28.94,36.1753l-.5418.8924"/><path class="a" d="m36.175 38.598-0.3187 0.9243"/><path class="a" d="M13.448,23.5338c-.5793.2414-3.8675-5.5078-3.6313-9.2868.0974-1.558-.782-3.3038-2.9-1.88A7.2481,7.2481,0,0,0,5.5,14.12"/><path class="a" d="m5.5 22.024c1.7452 1.8239 4.1621 2.8651 5.8516 4.0835"/><path class="a" d="m5.5 24.669a14.733 14.733 0 0 1 4.2546 1.6474"/><path class="a" d="m33.53 15.777c-2.6694-3.7074-9.8491-4.565-10.136 0.1912"/><path class="a" d="m23.012 19.506c5.5383-4.6274-6.0361-5.2067-1.7153 2.5647"/><path class="a" d="m18.336 27.589c-1.72-5.185 6.6384-4.2536 6.2794-0.6457"/><path class="a" d="m21.896 21.673a4.3273 4.3273 0 0 0-1.8952 2.3867"/><path class="a" d="m30.327 13.329c3.39-1.1669 4.2763-0.2477 4.6374 1.1092"/><path class="a" d="M32.6056,14.7533c8.4551-.8214,6.2389,4.47,2.1354,4.2108.1667,1.065.3261,2.129-.6693,3.0279"/><path class="a" d="M33.7211,28.749c.7669,1.3929.1715,2.3318-.5674,3.2227"/><path class="a" d="M34.39,24.3187c3.31,2.5379,1.2577,3.8082.51,3.761a1.27,1.27,0,0,1-1.1793.6693"/><path class="a" d="m24.279 18.103c2.944-0.685 14.112 3.8254 9.0276 7.1722"/><path class="a" d="m23.696 18.866a3.1522 3.1522 0 0 0 1.5467 1.5319c3.3954 0.5582 5.8532 2.4548 8.0638 4.8765"/><path class="a" d="M29.7728,22.1725c-.04,2.5142-.4911,7.9284,2.9284,5.8434l1.02.7331"/><path class="a" d="M33.3068,25.2749A6.88,6.88,0,0,1,34.9,28.08"/><path class="a" d="M36.43,16.7968l-2.2311-.0956.6056.9243"/><path class="a" d="m25.137 14.667h0.6693"/><circle class="b" cx="30.589" cy="15.417" r=".75"/></svg>
