<?xml version="1.0" encoding="UTF-8"?><svg xmlns="http://www.w3.org/2000/svg" xml:space="preserve" id="svg5" version="1.1" viewBox="0 0 48 48"><defs id="defs2"><style id="style9">.a{fill:none;stroke:#fff;stroke-linecap:round;stroke-linejoin:round}</style></defs><g id="layer1" display="inline"><path id="outer-square" d="M40.5 5.5h-33a2 2 0 0 0-2 2v33a2 2 0 0 0 2 2h33a2 2 0 0 0 2-2v-33a2 2 0 0 0-2-2z" class="a"/><path id="inner-square-bottom" fill="none" stroke="#fff" stroke-dasharray="none" stroke-linecap="round" stroke-linejoin="round" stroke-width="1" d="M16.211 20.99H11.29a.298.298 0 0 0-.299.299v4.922a.298.298 0 0 0 .299.299h4.922a.298.298 0 0 0 .299-.299V21.29a.298.298 0 0 0-.299-.299z" class="a"/><path id="inner-square-middle" fill="none" stroke="#fff" stroke-dasharray="none" stroke-linecap="round" stroke-linejoin="round" stroke-width="1" d="M16.211 31.49H11.29a.298.298 0 0 0-.299.299v4.922a.298.298 0 0 0 .299.299h4.922a.298.298 0 0 0 .299-.299V31.79a.298.298 0 0 0-.299-.299z" class="a"/><path id="inner-square-top" fill="none" stroke="#fff" stroke-dasharray="none" stroke-linecap="round" stroke-linejoin="round" stroke-width="1" d="M16.204 10.999h-4.908a.297.297 0 0 0-.297.297v4.908a.297.297 0 0 0 .297.298h4.908a.297.297 0 0 0 .297-.298v-4.908a.297.297 0 0 0-.297-.297z" class="a"/><path id="rect6163" fill="none" stroke="#fff" stroke-dasharray="none" stroke-linecap="round" stroke-linejoin="round" stroke-miterlimit="4" stroke-opacity="1" stroke-width="1" d="M20.499 31.499h16.502v5.502H20.499z" opacity="1" paint-order="normal"/><path id="inner-rectangle-middle" fill="none" stroke="#fff" stroke-dasharray="none" stroke-linecap="round" stroke-linejoin="round" stroke-miterlimit="4" stroke-opacity="1" stroke-width="1" d="M20.499 20.999h16.502v5.502H20.499z" opacity="1" paint-order="normal"/><path id="inner-rectangle-top" fill="none" stroke="#fff" stroke-dasharray="none" stroke-linecap="round" stroke-linejoin="round" stroke-miterlimit="4" stroke-opacity="1" stroke-width="1" d="M20.499 10.999h16.502v5.502H20.499z" opacity="1" paint-order="normal"/></g></svg>
