<?xml version="1.0" encoding="UTF-8" standalone="no"?>
<!-- Created with Inkscape (http://www.inkscape.org/) -->

<svg
   width="48"
   height="48"
   viewBox="0 0 48 48"
   version="1.1"
   id="svg1"
   inkscape:version="1.3.2 (091e20e, 2023-11-25, custom)"
   sodipodi:docname="360_online_20.svg"
   xmlns:inkscape="http://www.inkscape.org/namespaces/inkscape"
   xmlns:sodipodi="http://sodipodi.sourceforge.net/DTD/sodipodi-0.dtd"
   xmlns="http://www.w3.org/2000/svg"
   xmlns:svg="http://www.w3.org/2000/svg">
  <sodipodi:namedview
     id="namedview1"
     pagecolor="#000000"
     bordercolor="#000000"
     borderopacity="0.25"
     inkscape:showpageshadow="2"
     inkscape:pageopacity="0.0"
     inkscape:pagecheckerboard="0"
     inkscape:deskcolor="#d1d1d1"
     inkscape:document-units="px"
     inkscape:zoom="22.627418"
     inkscape:cx="30.339299"
     inkscape:cy="24.41728"
     inkscape:window-width="1920"
     inkscape:window-height="1027"
     inkscape:window-x="1912"
     inkscape:window-y="-8"
     inkscape:window-maximized="1"
     inkscape:current-layer="layer1" />
  <defs
     id="defs1" />
  <g
     inkscape:label="Ebene 1"
     inkscape:groupmode="layer"
     id="layer1">
    <path
       id="rect1"
       style="fill:none;stroke:#ffffff;stroke-width:1;stroke-linejoin:round;stroke-dasharray:none;stroke-opacity:1"
       d="m 8.7,27.499986 c 10.705263,2.696491 21.026055,2.695155 30.962948,0 v 9.048115 H 8.7 Z"
       sodipodi:nodetypes="ccccc" />
    <g
       id="g2281"
       transform="translate(-70.950952,-6.8071068)">
      <path
         class="cls-2"
         d="m 83.6,32 c 0.6,0.5 1.1,0.7 2.5,0.7 h 0.3 c 1.1,0 2,-0.9 2,-2 v 0 c 0,-1.1 -0.9,-2 -2,-2"
         id="path2280"
         style="fill:none;stroke:#ffffff;stroke-linecap:round;stroke-linejoin:round" />
      <path
         class="cls-2"
         d="m 83.6,25.3 c 0.6,-0.5 1.2,-0.7 2.5,-0.7 h 0.3 c 1.1,0 2,0.9 2,2 v 0 c 0,1.1 -0.9,2 -2,2"
         id="path2281"
         style="fill:none;stroke:#ffffff;stroke-linecap:round;stroke-linejoin:round" />
      <line
         class="cls-2"
         x1="84.900002"
         y1="28.700001"
         x2="86.400002"
         y2="28.700001"
         id="line2281"
         style="fill:none;stroke:#ffffff;stroke-linecap:round;stroke-linejoin:round" />
    </g>
    <g
       id="g2236"
       transform="translate(-92.33125,-6.4437502)">
      <circle
         class="cls-2"
         cx="116"
         cy="30"
         r="2.7"
         id="circle2235"
         style="fill:none;stroke:#ffffff;stroke-linecap:round;stroke-linejoin:round" />
      <path
         class="cls-2"
         d="m 118.4,25.6 c -0.4,-0.6 -1.1,-1 -2.2,-1 H 116 c -1.5,0 -2.7,1.2 -2.7,2.6 V 30"
         id="path2236"
         style="fill:none;stroke:#ffffff;stroke-linecap:round;stroke-linejoin:round" />
    </g>
    <g
       id="g2293"
       transform="translate(-23.495844,-6.7636894)">
      <line
         class="cls-2"
         x1="58"
         y1="25.6"
         x2="54"
         y2="31.700001"
         id="line2292"
         style="fill:none;stroke:#ffffff;stroke-linecap:round;stroke-linejoin:round" />
      <path
         class="cls-2"
         d="m 56,32.6 v 0 c -1.5,0 -2.7,-1.2 -2.7,-2.6 v -2.7 c 0,-1.5 1.2,-2.6 2.6,-2.6 v 0 c 1.5,0 2.6,1.2 2.6,2.6 V 30 c 0.2,1.5 -1,2.6 -2.5,2.6 z"
         id="path2293"
         style="fill:none;stroke:#ffffff;stroke-linecap:round;stroke-linejoin:round" />
    </g>
    <circle
       class="cls-2"
       cx="38.522175"
       cy="16.471922"
       r="0.89999998"
       id="circle2228"
       style="fill:none;stroke:#ffffff;stroke-linecap:round;stroke-linejoin:round" />
  </g>
</svg>
