<?xml version="1.0" encoding="UTF-8" standalone="no"?>
<!-- Created with Inkscape (http://www.inkscape.org/) -->

<svg
   width="48"
   height="48"
   viewBox="0 0 48 48"
   version="1.1"
   id="svg1"
   inkscape:version="1.3.2 (091e20e, 2023-11-25, custom)"
   sodipodi:docname="360gradonline.svg"
   xmlns:inkscape="http://www.inkscape.org/namespaces/inkscape"
   xmlns:sodipodi="http://sodipodi.sourceforge.net/DTD/sodipodi-0.dtd"
   xmlns="http://www.w3.org/2000/svg"
   xmlns:svg="http://www.w3.org/2000/svg">
  <sodipodi:namedview
     id="namedview1"
     pagecolor="#ffffff"
     bordercolor="#000000"
     borderopacity="0.25"
     inkscape:showpageshadow="2"
     inkscape:pageopacity="0.0"
     inkscape:pagecheckerboard="0"
     inkscape:deskcolor="#d1d1d1"
     inkscape:document-units="px"
     inkscape:zoom="11.313709"
     inkscape:cx="32.571106"
     inkscape:cy="34.073708"
     inkscape:window-width="1920"
     inkscape:window-height="1027"
     inkscape:window-x="1912"
     inkscape:window-y="-8"
     inkscape:window-maximized="1"
     inkscape:current-layer="layer1" />
  <defs
     id="defs1" />
  <g
     inkscape:label="Ebene 1"
     inkscape:groupmode="layer"
     id="layer1">
    <path
       d="m 15.694827,22.525514 c 1.08,0 1.8,0.732 1.8,1.8 0,1.068 -0.72,1.8 -1.8,1.8 h -0.372 c -1.5,0 -2.016,-0.18 -2.604,-0.672 -0.108,-0.084 -0.24,-0.132 -0.384,-0.132 -0.336,0 -0.6,0.264 -0.6,0.6 0,0.192 0.084,0.348 0.216,0.468 0.78,0.636 1.62,0.936 3.372,0.936 h 0.372 c 1.668,0 3,-1.356 3,-3 0,-0.972 -0.468,-1.848 -1.2,-2.4 0.732,-0.552 1.2,-1.428 1.2,-2.4 0,-1.644 -1.332,-3 -3,-3 h -0.372 c -1.752,0 -2.592,0.3 -3.372,0.936 -0.132,0.12 -0.216,0.276 -0.216,0.468 0,0.336 0.264,0.6 0.6,0.6 0.144,0 0.276,-0.048 0.384,-0.132 0.588,-0.492 1.104,-0.672 2.604,-0.672 h 0.372 c 1.08,0 1.8,0.732 1.8,1.8 0,1.068 -0.72,1.8 -1.8,1.8 h -1.836 c -0.336,0 -0.6,0.264 -0.6,0.6 0,0.336 0.264,0.6 0.6,0.6 z m 11.760003,1.02 c 0,-2.076 -1.68,-3.78 -3.78,-3.78 -0.996,0 -1.908,0.384 -2.58,1.02 v -0.48 c 0,-1.5 1.08,-2.58 2.58,-2.58 h 0.228 c 1.176,0 1.74,0.336 2.196,0.936 0.108,0.144 0.288,0.24 0.48,0.24 0.336,0 0.6,-0.264 0.6,-0.6 0,-0.132 -0.048,-0.264 -0.12,-0.36 -0.624,-0.828 -1.596,-1.416 -3.156,-1.416 h -0.228 c -2.088,0 -3.78,1.692 -3.78,3.78 v 3.24 c 0,2.088 1.692,3.78 3.78,3.78 2.1,0 3.78,-1.704 3.78,-3.78 z m -6.36,0 c 0,-1.5 1.08,-2.58 2.58,-2.58 1.512,0 2.58,1.08 2.58,2.58 0,1.5 -1.068,2.58 -2.58,2.58 -1.5,0 -2.58,-1.08 -2.58,-2.58 z m 15.119995,0 v -3.24 c 0,-2.088 -1.692,-3.78 -3.78,-3.78 -2.088,0 -3.78,1.692 -3.78,3.78 v 3.24 c 0,2.088 1.692,3.78 3.78,3.78 2.088,0 3.78,-1.692 3.78,-3.78 z m -6.36,0 v -3.24 c 0,-1.5 1.08,-2.58 2.58,-2.58 0.66,0 1.236,0.204 1.68,0.576 l -4.104,6.18 c -0.096,-0.288 -0.156,-0.6 -0.156,-0.936 z m 0.9,2.004 4.104,-6.18 c 0.096,0.288 0.156,0.6 0.156,0.936 v 3.24 c 0,1.5 -1.08,2.58 -2.58,2.58 -0.66,0 -1.236,-0.204 -1.68,-0.576 z"
       id="text1"
       style="font-family:'Arcticons Sans';-inkscape-font-specification:'Arcticons Sans';fill:#000000;stroke:none;fill-opacity:1"
       aria-label="360" />
    <circle
       style="fill:none;stroke:#000000"
       id="path1"
       cx="38.527077"
       cy="16.462093"
       r="1.2129964" />
    <path
       id="rect1"
       style="fill:none;stroke:#000000;stroke-width:1;stroke-linejoin:round;stroke-dasharray:none"
       d="m 8.7,27.499986 c 10.705263,2.696491 21.026055,2.695155 30.962948,0 v 9.048115 H 8.7 Z"
       sodipodi:nodetypes="ccccc" />
  </g>
</svg>
