<?xml version="1.0" encoding="UTF-8"?><svg id="a" xmlns="http://www.w3.org/2000/svg" viewBox="0 0 48 48"><defs><style>.d{fill:none;stroke:#fff;stroke-linecap:round;stroke-linejoin:round;}</style></defs><path class="d" d="m5.5 17.833 12.333-12.333 24.667 24.667-12.333 12.333z"/><path class="d" d="m36.22 29.039-6.0296-6.029 0.81403 7.2857 3.9944-3.9944"/><path class="d" d="m24.249 32.946c-1.2326-1.2326-1.0878-3.3211 0.43449-4.3526 0.99853-0.67656 2.3918-0.6211 3.324 0.1444 0.69345 0.56939 1.1166 1.3922 1.0632 2.211-0.09888 1.517-0.78954 6.0293-0.78954 6.0293l3.9944-3.9944"/><path class="d" d="m17.564 13.176 2.3281 0.68659-6.0293 6.0293"/><path class="d" d="m20.409 20.409c-0.8325-0.8325-2.1822-0.8325-3.0147 1e-6 -0.8325 0.8325-0.8325 2.1822 0 3.0147l0.97976 0.97976c0.8325 0.8325 2.1822 0.8325 3.0147 2e-6 0.8325-0.8325 0.8325-2.1822-2e-6 -3.0147"/><path class="d" d="m21.389 21.389c0.8325 0.8325 2.1822 0.8325 3.0147 1e-6 0.8325-0.8325 0.8325-2.1822 0-3.0147l-0.97976-0.97976c-0.8325-0.8325-2.1822-0.8325-3.0147 0-0.8325 0.8325-0.8325 2.1822 0 3.0147"/><line class="d" x1="20.409" x2="21.389" y1="20.409" y2="21.389"/></svg>
