<?xml version="1.0" encoding="UTF-8"?><svg id="a" xmlns="http://www.w3.org/2000/svg" viewBox="0 0 48 48"><defs><style>.d{fill:none;stroke:#fff;stroke-linecap:round;stroke-linejoin:round;}</style></defs><path class="d" d="m4.5 31.211a19.5 19.5 0 0 1 19.5-19.5 19.5 19.5 0 0 1 19.5 19.5"/><ellipse class="d" cx="23.937" cy="32.925" rx="3.3157" ry="3.3647"/><path class="d" d="m26.965 27.371c-0.55253-0.73426-1.3945-1.2388-2.7898-1.2388h-0.23285c-1.8312 0-3.3157 1.5064-3.3157 3.3647v3.4282"/><path class="d" d="m10.925 35.432c0.69103 0.58761 1.437 0.85679 3.1125 0.85679h0.39037c1.3817 0 2.5018-1.1366 2.5018-2.5387s-1.1201-2.5387-2.5018-2.5387"/><path class="d" d="m10.925 26.98c0.69254-0.58571 1.4392-0.85285 3.1147-0.84828l0.38925 0.0023c1.3817 0 2.5018 1.1366 2.5018 2.5387s-1.1201 2.5387-2.5018 2.5387"/><path class="d" d="m30.944 35.432c0.69104 0.58761 1.3614 0.85679 3.0369 0.85679h0.2879c1.5497 0 2.8062-1.2749 2.8062-2.8477s-1.2563-2.8477-2.8062-2.8477h-3.3247v-4.4623h6.1309"/></svg>
