<?xml version="1.0" encoding="UTF-8" standalone="no"?>
<svg
   viewBox="0 0 48 48"
   version="1.1"
   id="svg1"
   sodipodi:docname="_3839.svg"
   inkscape:version="1.2.2 (b0a8486541, 2022-12-01)"
   xml:space="preserve"
   xmlns:inkscape="http://www.inkscape.org/namespaces/inkscape"
   xmlns:sodipodi="http://sodipodi.sourceforge.net/DTD/sodipodi-0.dtd"
   xmlns="http://www.w3.org/2000/svg"
   xmlns:svg="http://www.w3.org/2000/svg"><sodipodi:namedview
     id="namedview1"
     pagecolor="#505050"
     bordercolor="#eeeeee"
     borderopacity="1"
     inkscape:showpageshadow="0"
     inkscape:pageopacity="0"
     inkscape:pagecheckerboard="0"
     inkscape:deskcolor="#505050"
     inkscape:zoom="12.59534"
     inkscape:cx="-3.0963834"
     inkscape:cy="27.073506"
     inkscape:window-width="1918"
     inkscape:window-height="1053"
     inkscape:window-x="0"
     inkscape:window-y="0"
     inkscape:window-maximized="1"
     inkscape:current-layer="svg1"
     showgrid="false" /><defs
     id="defs1"><style
       id="style1">.a { fill:none;stroke:#fff;stroke-linecap:round;stroke-linejoin:round; }
</style></defs><path
     style="fill:none;stroke:#ffffff;stroke-linecap:round;stroke-linejoin:round;stroke-dashoffset:3.6;stroke-opacity:1"
     d="m 9.5,5.5 h 29 c 2.216,0 4,1.784 4,4 v 29 c 0,2.216 -1.784,4 -4,4 h -29 c -2.216,0 -4,-1.784 -4,-4 v -29 c 0,-2.216 1.784,-4 4,-4 z"
     id="path22164" /><g
     id="g22191"><path
       style="fill:none;stroke:#ffffff;stroke-linecap:round;stroke-linejoin:round;stroke-dashoffset:3.6;stroke-opacity:1"
       d="m 35.550188,27.757781 a 5.0238741,4.9835628 0 0 1 5.023736,4.983427 5.0238741,4.9835628 0 0 1 -0.636067,2.401235 l 0.884494,2.706003 -2.816701,-0.772634 a 5.0238741,4.9835628 0 0 1 -2.455462,0.648822 5.0238741,4.9835628 0 0 1 -5.023737,-4.983426 5.0238741,4.9835628 0 0 1 5.023737,-4.983427 z"
       id="path22160" /><path
       style="fill:none;stroke:#ffffff;stroke-linecap:round;stroke-linejoin:round;stroke-dashoffset:3.6;stroke-opacity:1"
       d="m 34.87538,31.905443 a 0.96482319,0.96482319 0 0 1 -0.964823,0.964823 0.96482319,0.96482319 0 0 1 -0.964823,-0.964823 0.96482319,0.96482319 0 0 1 0.964823,-0.964823 0.96482319,0.96482319 0 0 1 0.964823,0.964823 z"
       id="path22150" /></g><g
     id="g22187"><path
       style="fill:none;stroke:#ffffff;stroke-linecap:round;stroke-linejoin:round;stroke-dashoffset:3.6;stroke-opacity:1"
       d="m 19.390291,25.877939 a 6.5394744,6.4883417 0 0 0 -6.539296,6.488164 6.5394744,6.4883417 0 0 0 0.827957,3.126285 l -1.151329,3.523076 3.666443,-1.005929 a 6.5394744,6.4883417 0 0 0 3.196225,0.844733 6.5394744,6.4883417 0 0 0 6.539296,-6.488165 6.5394744,6.4883417 0 0 0 -6.539296,-6.488164 z"
       id="path22162" /><path
       style="fill:none;stroke:#ffffff;stroke-linecap:round;stroke-linejoin:round;stroke-dashoffset:3.6;stroke-opacity:1"
       d="M 18.061748,29.717619 V 33.31264"
       id="path22148" /><path
       style="fill:none;stroke:#ffffff;stroke-linecap:round;stroke-linejoin:round;stroke-dashoffset:3.6;stroke-opacity:1"
       d="M 19.859259,31.515129 H 16.264237"
       id="path22146" /></g><g
     id="g22201"><path
       style="fill:none;stroke:#ffffff;stroke-linecap:round;stroke-linejoin:round;stroke-dashoffset:3.6;stroke-opacity:1"
       d="m 13.450457,29.695425 c -1.778128,-0.176478 -3.5416043,-3.365546 -0.359846,-5.133121 -2.991757,-1.037367 -0.349865,-4.774857 1.916285,-4.081773 -0.174008,-3.766519 4.685715,-4.532677 6.940954,-2.665055 2.443256,-6.315754 11.306643,-4.457674 10.74786,1.364392 3.885976,-1.53496 6.159388,0.854273 4.365687,3.793916 4.116374,-1.214266 5.387329,5.145377 1.964833,6.213501"
       id="path22158" /><path
       style="fill:none;stroke:#ffffff;stroke-linecap:round;stroke-linejoin:round;stroke-dashoffset:3.6;stroke-opacity:1"
       d="m 25.574351,30.277896 c 1.274006,-0.152469 2.75362,-0.903794 3.573576,-2.315482 -0.583223,1.652382 0.545706,2.038624 2.327971,1.874346"
       id="path22156" /><path
       style="fill:none;stroke:#ffffff;stroke-linecap:round;stroke-linejoin:round;stroke-dashoffset:3.6;stroke-opacity:1"
       d="m 36.857353,37.528397 c -0.111138,1.57904 -0.298263,3.154078 -0.609125,4.957242"
       id="path22154" /><path
       style="fill:none;stroke:#ffffff;stroke-linecap:round;stroke-linejoin:round;stroke-dashoffset:3.6;stroke-opacity:1"
       d="m 16.726934,38.266686 c 0.18534,1.336493 0.559662,2.704943 0.89092,4.224751"
       id="path22152" /><path
       style="fill:none;stroke:#ffffff;stroke-linecap:round;stroke-linejoin:round;stroke-dashoffset:3.6;stroke-opacity:1"
       d="m 24.811344,24.868017 c -0.176264,-1.282426 0.697723,-1.483086 1.959398,-1.197978 0.04162,-1.621169 2.861914,-2.075116 2.323745,0.721951"
       id="path22144" /><path
       style="fill:none;stroke:#ffffff;stroke-linecap:round;stroke-linejoin:round;stroke-dashoffset:3.6;stroke-opacity:1"
       d="m 21.862872,20.275135 c 0.220341,-1.337015 1.972416,-1.260339 2.544525,-0.646943 0.09183,-0.666044 0.340656,-1.070228 0.75784,-1.193583"
       id="path22142" /><path
       style="fill:none;stroke:#ffffff;stroke-linecap:round;stroke-linejoin:round;stroke-dashoffset:3.6;stroke-opacity:1"
       d="m 16.781756,21.579808 c 0.508738,-0.47311 1.705004,-0.06688 1.796959,0.6148"
       id="path22140" /><path
       style="fill:none;stroke:#ffffff;stroke-linecap:round;stroke-linejoin:round;stroke-dashoffset:3.6;stroke-opacity:1"
       d="m 13.901412,13.038602 c 0.608279,-0.925115 2.037556,-0.839197 2.005226,0.316475 -0.01575,0.563131 -0.393659,0.946582 -0.964113,0.861259 0.04723,0.934306 -0.723321,1.202276 -1.182989,1.175308 -0.0537,-0.0031 -1.127419,0.05321 -1.240211,-0.842723 -1.097013,0.09943 -2.256528,-0.674593 -1.574312,-2.103325 0.318618,-0.667267 1.46551,-1.024469 2.230337,-0.500944 0.422666,0.289316 0.602884,0.610703 0.726062,1.09395 z"
       id="path22104" /></g></svg>
