<?xml version="1.0" encoding="UTF-8"?><svg id="b" xmlns="http://www.w3.org/2000/svg" viewBox="0 0 48 48"><defs><style>.d{fill:none;stroke:#fff;stroke-linecap:round;stroke-linejoin:round;}</style></defs><path class="d" d="m24.5881,24c1.3807,0,2.5,1.1193,2.5,2.5s-1.1193,2.5-2.5,2.5h-4.125v-10h4.125c1.3807,0,2.5,1.1193,2.5,2.5s-1.1193,2.5-2.5,2.5h0Z"/><line class="d" x1="24.5881" y1="24" x2="20.4631" y2="24"/><path class="d" d="m33.6652,24c1.3807,0,2.5,1.1193,2.5,2.5s-1.1193,2.5-2.5,2.5h-4.125v-10h4.125c1.3807,0,2.5,1.1193,2.5,2.5s-1.1193,2.5-2.5,2.5h0Z"/><line class="d" x1="33.6652" y1="24" x2="29.5402" y2="24"/><path class="d" d="m11.836,28.1565c.6903.5784,1.4357.8435,3.1095.8435h.39c1.3804,0,2.4994-1.119,2.4994-2.4994h0c0-1.3804-1.119-2.4994-2.4994-2.4994"/><path class="d" d="m11.8348,19.8352c.6919-.5766,1.4379-.8397,3.1117-.8352l.3888.0023c1.3804,0,2.4994,1.119,2.4994,2.4994h0c0,1.3804-1.119,2.4994-2.4994,2.4994"/><line class="d" x1="13.4142" y1="24.0012" x2="15.3354" y2="24.0012"/><path id="c" class="d" d="m40.5,5.5H7.5c-1.1046,0-2,.8954-2,2v33c0,1.1046.8954,2,2,2h33c1.1046,0,2-.8954,2-2V7.5c0-1.1046-.8954-2-2-2Z"/></svg>