<?xml version="1.0" encoding="UTF-8" standalone="no"?>
<svg
   viewBox="0 0 48 48"
   version="1.1"
   id="svg1"
   sodipodi:docname="_4399_game_box.svg"
   inkscape:version="1.2.2 (b0a8486541, 2022-12-01)"
   xml:space="preserve"
   xmlns:inkscape="http://www.inkscape.org/namespaces/inkscape"
   xmlns:sodipodi="http://sodipodi.sourceforge.net/DTD/sodipodi-0.dtd"
   xmlns="http://www.w3.org/2000/svg"
   xmlns:svg="http://www.w3.org/2000/svg"><sodipodi:namedview
     id="namedview1"
     pagecolor="#505050"
     bordercolor="#eeeeee"
     borderopacity="1"
     inkscape:showpageshadow="0"
     inkscape:pageopacity="0"
     inkscape:pagecheckerboard="0"
     inkscape:deskcolor="#505050"
     inkscape:zoom="17.8125"
     inkscape:cx="14.989474"
     inkscape:cy="33.740351"
     inkscape:window-width="1918"
     inkscape:window-height="1053"
     inkscape:window-x="0"
     inkscape:window-y="0"
     inkscape:window-maximized="1"
     inkscape:current-layer="svg1"
     showgrid="false" /><defs
     id="defs1"><style
       id="style1">.a { fill:none;stroke:#fff;stroke-linecap:round;stroke-linejoin:round; }
</style></defs><path
     style="fill:none;stroke:#ffffff;stroke-linecap:round;stroke-linejoin:round;stroke-dashoffset:3.6;stroke-opacity:1"
     d="m 9.5,5.5 h 29 c 2.216,0 4,1.784 4,4 v 29 c 0,2.216 -1.784,4 -4,4 h -29 c -2.216,0 -4,-1.784 -4,-4 v -29 c 0,-2.216 1.784,-4 4,-4 z"
     id="path28729" /><g
     id="g28770"><path
       style="fill:none;stroke:#ffffff;stroke-linecap:round;stroke-linejoin:round;stroke-dashoffset:3.6;stroke-opacity:1"
       d="m 9.2503302,11.041871 1.0318148,2.010485 h 0.684334"
       id="path28727" /><path
       style="fill:none;stroke:#ffffff;stroke-linecap:round;stroke-linejoin:round;stroke-dashoffset:3.6;stroke-opacity:1"
       d="m 9.2503302,14.648891 1.0318148,2.010485 h 0.684334"
       id="path28725" /><path
       style="fill:none;stroke:#ffffff;stroke-linecap:round;stroke-linejoin:round;stroke-dashoffset:3.6;stroke-opacity:1"
       d="m 10.831211,18.46517 -1.1037188,3.656803 c -0.05973,0.197909 -0.2318078,0.438535 -0.4385353,0.438535 h -0.43545"
       id="path28723" /><path
       style="fill:none;stroke:#ffffff;stroke-linecap:round;stroke-linejoin:round;stroke-dashoffset:3.6;stroke-opacity:1"
       d="m 12.57423,11.665389 h 5.822974 l 0.96262,-1.302858"
       id="path28721" /><path
       style="fill:none;stroke:#ffffff;stroke-linecap:round;stroke-linejoin:round;stroke-dashoffset:3.6;stroke-opacity:1"
       d="m 14.957642,10.40465 v 1.261573"
       id="path28719" /><path
       style="fill:none;stroke:#ffffff;stroke-linecap:round;stroke-linejoin:round;stroke-dashoffset:3.6;stroke-opacity:1"
       d="m 13.634761,11.666437 v 9.237403 c 0,0.952336 -0.09193,1.447221 -0.666937,1.569375 l -0.673913,0.143165"
       id="path28717" /><path
       style="fill:none;stroke:#ffffff;stroke-linecap:round;stroke-linejoin:round;stroke-dashoffset:3.6;stroke-opacity:1"
       d="m 15.231928,22.61638 0.437647,-0.08703 c 0.576554,-0.114645 0.526586,-0.793396 0.526586,-1.625515 v -5.265227 c 0,-0.565401 -0.09031,-1.014521 -0.70985,-1.014521 h -1.851707"
       id="path28715" /><path
       style="fill:none;stroke:#ffffff;stroke-linecap:round;stroke-linejoin:round;stroke-dashoffset:3.6;stroke-opacity:1"
       d="m 18.776605,11.15293 h 3.575669"
       id="path28713" /><path
       style="fill:none;stroke:#ffffff;stroke-linecap:round;stroke-linejoin:round;stroke-dashoffset:3.6;stroke-opacity:1"
       d="m 18.4909,14.216191 h 3.769032 l -1.179,1.990291 v 5.530986 c 0,0.414163 -0.464409,0.878912 -0.878572,0.878912 h -0.934764"
       id="path28711" /><path
       style="fill:none;stroke:#ffffff;stroke-linecap:round;stroke-linejoin:round;stroke-dashoffset:3.6;stroke-opacity:1"
       d="m 18.497659,19.40867 h 3.690816"
       id="path28709" /></g><g
     id="g28777"><path
       style="fill:none;stroke:#ffffff;stroke-linecap:round;stroke-linejoin:round;stroke-dashoffset:3.6;stroke-opacity:1"
       d="m 25.648082,10.87656 h 4.888243 l -3.679383,10.717167 c -0.156696,0.456417 -0.542134,1.022653 -1.024699,1.022653 H 25.44337"
       id="path28707" /><path
       style="fill:none;stroke:#ffffff;stroke-linecap:round;stroke-linejoin:round;stroke-dashoffset:3.6;stroke-opacity:1"
       d="m 26.180098,13.349575 2.830355,8.244152 c 0.156696,0.456417 0.542134,1.022653 1.024699,1.022653 h 0.388873"
       id="path28705" /><path
       style="fill:none;stroke:#ffffff;stroke-linecap:round;stroke-linejoin:round;stroke-dashoffset:3.6;stroke-opacity:1"
       d="m 34.389342,10.031668 1.225086,11.837007 c 0.04386,0.42376 0.545155,0.830828 0.971179,0.830828 h 1.585085"
       id="path28703" /><path
       style="fill:none;stroke:#ffffff;stroke-linecap:round;stroke-linejoin:round;stroke-dashoffset:3.6;stroke-opacity:1"
       d="m 32.390651,12.077912 h 4.990977 c 0.348939,0 0.907552,-0.130594 0.930928,-0.478749 l 0.07579,-1.128799"
       id="path28701" /><path
       style="fill:none;stroke:#ffffff;stroke-linecap:round;stroke-linejoin:round;stroke-dashoffset:3.6;stroke-opacity:1"
       d="m 32.636554,19.925801 h 3.992903 c 0.396309,0 0.856461,-0.375318 0.907294,-0.768354 l 0.613746,-4.745472"
       id="path28699" /></g><g
     id="g28783"><path
       style="fill:none;stroke:#ffffff;stroke-linecap:round;stroke-linejoin:round;stroke-dashoffset:3.6;stroke-opacity:1"
       d="M 9.1521412,28.486054 H 22.274869"
       id="path28697" /><path
       style="fill:none;stroke:#ffffff;stroke-linecap:round;stroke-linejoin:round;stroke-dashoffset:3.6;stroke-opacity:1"
       d="m 15.713505,26.105193 v 2.381592"
       id="path28695" /><path
       style="fill:none;stroke:#ffffff;stroke-linecap:round;stroke-linejoin:round;stroke-dashoffset:3.6;stroke-opacity:1"
       d="m 15.607639,28.485581 -4.593871,8.55209 c -0.226424,0.422472 -0.616862,0.930661 -1.0961849,0.930661 H 9.0492793"
       id="path28693" /><path
       style="fill:none;stroke:#ffffff;stroke-linecap:round;stroke-linejoin:round;stroke-dashoffset:3.6;stroke-opacity:1"
       d="m 22.377731,37.968332 h -0.868304 c -0.479323,0 -0.869761,-0.508189 -1.096185,-0.930661 l -4.593881,-8.552109"
       id="path28691" /></g><g
     id="g28790"><path
       style="fill:none;stroke:#ffffff;stroke-linecap:round;stroke-linejoin:round;stroke-dashoffset:3.6;stroke-opacity:1"
       d="m 38.63315,27.652506 h -0.567507 c -0.351585,0 -0.6253,-0.359819 -0.839375,-0.638717 -0.25951,-0.33809 -0.229981,-0.982221 -1.409824,-0.982221 h -7.560425 c -1.179843,0 -1.150314,0.644131 -1.409824,0.982221 -0.214075,0.278898 -0.48779,0.638717 -0.839375,0.638717 h -0.567507"
       id="path28689" /><path
       style="fill:none;stroke:#ffffff;stroke-linecap:round;stroke-linejoin:round;stroke-dashoffset:3.6;stroke-opacity:1"
       d="M 25.699416,30.066768 H 38.493857"
       id="path28687" /><path
       style="fill:none;stroke:#ffffff;stroke-linecap:round;stroke-linejoin:round;stroke-dashoffset:3.6;stroke-opacity:1"
       d="M 25.025736,37.842208 H 39.146493"
       id="path28685" /><path
       style="fill:none;stroke:#ffffff;stroke-linecap:round;stroke-linejoin:round;stroke-dashoffset:3.6;stroke-opacity:1"
       d="M 25.699416,33.954488 H 38.493857"
       id="path28683" /><path
       style="fill:none;stroke:#ffffff;stroke-linecap:round;stroke-linejoin:round;stroke-dashoffset:3.6;stroke-opacity:1"
       d="m 32.086114,30.268324 v 7.316744"
       id="path28590" /></g></svg>
