<?xml version="1.0" encoding="UTF-8"?><svg id="b" xmlns="http://www.w3.org/2000/svg" viewBox="0 0 48 48"><defs><style>.c{fill:none;stroke:#fff;stroke-linecap:round;stroke-linejoin:round;}</style></defs><line class="c" x1="31.0763" y1="24" x2="38.5" y2="24"/><line class="c" x1="34.7882" y1="20.2882" x2="34.7882" y2="27.7118"/><path class="c" d="M31.0763,26.5055c0,2.7162-2.2019,4.9182-4.9182,4.9182h0c-2.7162,0-4.9182-2.2019-4.9182-4.9182v-5.011c0-2.7162,2.2019-4.9182,4.9182-4.9182h0c2.7162,0,4.9182,2.2019,4.9182,4.9182"/><path class="c" d="M9.5,30.1713c1.025.8588,2.0194,1.2524,4.5046,1.2524h.427c2.2988,0,4.1624-1.8636,4.1624-4.1624h0c0-2.2988-1.8636-4.1624-4.1624-4.1624h-4.9316v-6.5225h9.094"/></svg>