<?xml version="1.0" encoding="UTF-8" standalone="no"?>
<svg
   version="1.1"
   width="48"
   height="48"
   viewBox="0 0 48 48"
   id="svg1"
   sodipodi:docname="action_notch.svg"
   inkscape:version="1.4.2 (f4327f4, 2025-05-13)"
   xml:space="preserve"
   inkscape:export-filename="..\Desktop\pocketpal.png"
   inkscape:export-xdpi="96"
   inkscape:export-ydpi="96"
   xmlns:inkscape="http://www.inkscape.org/namespaces/inkscape"
   xmlns:sodipodi="http://sodipodi.sourceforge.net/DTD/sodipodi-0.dtd"
   xmlns="http://www.w3.org/2000/svg"
   xmlns:svg="http://www.w3.org/2000/svg"><defs
     id="defs1" /><sodipodi:namedview
     id="namedview1"
     pagecolor="#ffffff"
     bordercolor="#000000"
     borderopacity="0.25"
     inkscape:showpageshadow="2"
     inkscape:pageopacity="0.0"
     inkscape:pagecheckerboard="0"
     inkscape:deskcolor="#d1d1d1"
     inkscape:document-units="px"
     inkscape:zoom="5.6568543"
     inkscape:cx="41.012193"
     inkscape:cy="33.322407"
     inkscape:window-width="2560"
     inkscape:window-height="1369"
     inkscape:window-x="-8"
     inkscape:window-y="-8"
     inkscape:window-maximized="1"
     inkscape:current-layer="svg1"
     showguides="true" /><path
     id="path11"
     style="opacity:1;fill:none;stroke:#ffffff;stroke-linecap:round;stroke-linejoin:round;stroke-opacity:1"
     d="M 23.047261,32.792077 V 21.191106 c 0.532783,-0.831895 1.095103,-0.948999 1.701476,0 v 6.761709 h 0.828641 c -6.72e-4,-0.665991 0.0056,-0.708826 -0.0071,-1.093197 -0.0412,-1.250483 2.056757,-1.296245 2.043922,-0.01531 -0.0038,0.382513 -0.0096,0.420312 -0.0039,1.086409 l 0.0068,1.822768 0.775612,-0.0113 0.0022,-1.491803 c 0.0248,-1.23854 1.850662,-1.28116 1.878054,0 v 2.420371 h 0.928077 l 0.05524,-1.171146 c 0.380529,-0.768068 1.283943,-0.79113 1.657282,0 l 0.01105,1.171146 v 3.889088 c -0.183973,1.688398 -1.085519,2.469227 -2.187612,3.204077 -0.879134,0.350067 -1.567101,0.293949 -2.629554,0.209922 -2.106386,0.288257 -2.748709,0.05072 -3.63497,-0.928077 l -4.795068,-5.104427 c -0.988803,-1.087127 0.133655,-2.597329 1.314776,-1.226388 z m 5.743755,-8.73153 c 0.582991,-0.92515 0.892427,-1.996326 0.892578,-3.089844 -1.39e-4,-3.201468 -2.595407,-5.796736 -5.796875,-5.796875 -3.201468,1.39e-4 -5.796736,2.595407 -5.796875,5.796875 2.97e-4,1.079472 0.301989,2.13742 0.871094,3.054688 m 7.935548,-1.861328 C 27.619235,20.1751 26.210511,17.809287 23.841799,17.810548 v -1e-6 c -2.377576,1.64e-4 -3.785674,2.383817 -3.044922,4.378906 M 18.970971,9.8169416 h 9.75 M 14.910279,4.9727793 h 17.776619 c 4.466625,0 8.0625,3.595875 8.0625,8.0624997 v 21.901619 c 0,4.466625 -3.595875,8.0625 -8.0625,8.0625 H 14.910279 c -4.466625,0 -8.0624997,-3.595875 -8.0624997,-8.0625 V 13.035279 c 0,-4.4666247 3.5958747,-8.0624997 8.0624997,-8.0624997 z" /></svg>
