<svg xmlns="http://www.w3.org/2000/svg" viewBox="0 0 48 48"><defs><style>.b{fill:none;stroke:#fff;stroke-linecap:round;stroke-linejoin:round}</style></defs><path d="M5.5 16.337v15.326L16.337 42.5h15.326L42.5 31.663V16.337L31.663 5.5H16.337zM16.654 25.736h-4.097" class="b"/><path d="M11.584 28.676a323933.2 323933.2 0 0 1 3.0202-9.1175 323933.2 323933.2 0 0 0 3.0202 9.1175M24.703 24.178c1.2735 0 2.3058 1.0323 2.3058 2.3058s-1.0323 2.3058-2.3058 2.3058h-3.8046v-9.2232h3.8046c1.2735 0 2.3058 1.0323 2.3058 2.3058s-1.0323 2.3058-2.3058 2.3058zM24.703 24.178h-3.804M30.823 28.825v-9.327h3.0534c1.7263 0 3.1257 1.4024 3.1257 3.1324 0 1.7299-1.3994 3.1324-3.1257 3.1324H30.823" class="b"/></svg>
