<?xml version="1.0" encoding="UTF-8"?><svg id="a" xmlns="http://www.w3.org/2000/svg" viewBox="0 0 48 48"><defs><style>.b{fill:none;stroke:#fff;stroke-linecap:round;stroke-linejoin:round;}</style></defs><circle class="b" cx="30.8824" cy="32.329" r="2.1238"/><path class="b" d="M33.0062,32.329v-9.4416c3.014,0,4.4938,1.5212,4.4938,4.7208"/><rect class="b" x="7.5" y="10.5" width="33" height="27"/><line class="b" x1="9.5" y1="10.5" x2="9.5" y2="8.5"/><line class="b" x1="12.4" y1="10.5" x2="12.4" y2="8.5"/><line class="b" x1="15.3" y1="10.5" x2="15.3" y2="8.5"/><line class="b" x1="18.2" y1="10.5" x2="18.2" y2="8.5"/><line class="b" x1="21.1" y1="10.5" x2="21.1" y2="8.5"/><line class="b" x1="24" y1="10.5" x2="24" y2="8.5"/><line class="b" x1="26.9" y1="10.5" x2="26.9" y2="8.5"/><line class="b" x1="29.8" y1="10.5" x2="29.8" y2="8.5"/><line class="b" x1="32.7" y1="10.5" x2="32.7" y2="8.5"/><line class="b" x1="35.6" y1="10.5" x2="35.6" y2="8.5"/><line class="b" x1="38.5" y1="10.5" x2="38.5" y2="8.5"/><line class="b" x1="9.5" y1="39.5" x2="9.5" y2="37.5"/><line class="b" x1="12.4" y1="39.5" x2="12.4" y2="37.5"/><line class="b" x1="15.3" y1="39.5" x2="15.3" y2="37.5"/><line class="b" x1="18.2" y1="39.5" x2="18.2" y2="37.5"/><line class="b" x1="21.1" y1="39.5" x2="21.1" y2="37.5"/><line class="b" x1="24" y1="39.5" x2="24" y2="37.5"/><line class="b" x1="26.9" y1="39.5" x2="26.9" y2="37.5"/><line class="b" x1="29.8" y1="39.5" x2="29.8" y2="37.5"/><line class="b" x1="32.7" y1="39.5" x2="32.7" y2="37.5"/><line class="b" x1="35.6" y1="39.5" x2="35.6" y2="37.5"/><line class="b" x1="38.5" y1="39.5" x2="38.5" y2="37.5"/><line class="b" x1="5.5" y1="12.5" x2="7.5" y2="12.5"/><line class="b" x1="5.5" y1="15.375" x2="7.5" y2="15.375"/><line class="b" x1="5.5" y1="18.25" x2="7.5" y2="18.25"/><line class="b" x1="5.5" y1="21.125" x2="7.5" y2="21.125"/><line class="b" x1="5.5" y1="24" x2="7.5" y2="24"/><line class="b" x1="5.5" y1="26.875" x2="7.5" y2="26.875"/><line class="b" x1="5.5" y1="29.75" x2="7.5" y2="29.75"/><line class="b" x1="5.5" y1="32.625" x2="7.5" y2="32.625"/><line class="b" x1="5.5" y1="35.5" x2="7.5" y2="35.5"/><line class="b" x1="40.5" y1="12.5" x2="42.5" y2="12.5"/><line class="b" x1="40.5" y1="15.375" x2="42.5" y2="15.375"/><line class="b" x1="40.5" y1="18.25" x2="42.5" y2="18.25"/><line class="b" x1="40.5" y1="21.125" x2="42.5" y2="21.125"/><line class="b" x1="40.5" y1="24" x2="42.5" y2="24"/><line class="b" x1="40.5" y1="26.875" x2="42.5" y2="26.875"/><line class="b" x1="40.5" y1="29.75" x2="42.5" y2="29.75"/><line class="b" x1="40.5" y1="32.625" x2="42.5" y2="32.625"/><line class="b" x1="40.5" y1="35.5" x2="42.5" y2="35.5"/></svg>