<svg version="1.1" viewBox="0 0 48 48" xmlns="http://www.w3.org/2000/svg"><defs><style>.a{fill:none;stroke:#fff;stroke-linecap:round;stroke-linejoin:round;}</style></defs><g fill="none" stroke="#fff" stroke-linecap="round" stroke-linejoin="round"><path d="m20.632 10.493c13.845 2.7065 12.436-1.1024 21.87-0.4568" stop-color="#000000" style="paint-order:fill markers stroke"/><path d="m11.632 37.093c13.845 2.7065 12.436-1.1024 21.87-0.4568" stop-color="#000000" style="paint-order:fill markers stroke"/><path d="m13.312 32.13c13.845 2.7065 12.436-1.1024 21.87-0.4568" stop-color="#000000" style="paint-order:fill markers stroke"/><path d="m15.124 26.795c13.845 2.7065 12.436-1.1024 21.87-0.4568" stop-color="#000000" style="paint-order:fill markers stroke"/><path d="m16.953 21.344c13.845 2.7065 12.436-1.1024 21.87-0.4568" stop-color="#000000" style="paint-order:fill markers stroke"/><path d="m18.829 15.785c13.845 2.7065 12.436-1.1024 21.87-0.4568" stop-color="#000000" style="paint-order:fill markers stroke"/><path d="m17.486 10.5h-2.9857l-9 26.6h2.9857z" stop-color="#000000" style="paint-order:fill markers stroke"/><path d="m20.632 10.493-9 26.6z" stop-color="#000000" style="paint-order:fill markers stroke"/><path d="m27.421 11.429-9 26.6z" stop-color="#000000" style="paint-order:fill markers stroke"/><path d="m34.683 10.703-9 26.6z" stop-color="#000000" style="paint-order:fill markers stroke"/><path d="m42.502 10.037-9 26.6z" stop-color="#000000" style="paint-order:fill markers stroke"/></g></svg>
