<?xml version="1.0" encoding="UTF-8" standalone="no"?>
<svg
   id="Layer_1"
   data-name="Layer 1"
   version="1.1"
   viewBox="0 0 48 48"
   sodipodi:docname="aer_lingus_clean.svg"
   inkscape:version="1.1.2 (0a00cf5339, 2022-02-04)"
   xmlns:inkscape="http://www.inkscape.org/namespaces/inkscape"
   xmlns:sodipodi="http://sodipodi.sourceforge.net/DTD/sodipodi-0.dtd"
   xmlns="http://www.w3.org/2000/svg"
   xmlns:svg="http://www.w3.org/2000/svg">
  <sodipodi:namedview
     id="namedview57"
     pagecolor="#484848"
     bordercolor="#666666"
     borderopacity="1.0"
     inkscape:pageshadow="2"
     inkscape:pageopacity="1"
     inkscape:pagecheckerboard="true"
     showgrid="false"
     inkscape:zoom="23.333333"
     inkscape:cx="26.828572"
     inkscape:cy="24.171429"
     inkscape:window-width="2507"
     inkscape:window-height="1371"
     inkscape:window-x="0"
     inkscape:window-y="0"
     inkscape:window-maximized="1"
     inkscape:current-layer="layer3" />
  <defs
     id="defs52">
    <style
       id="style50">
      .cls-1 {
        fill: none;
        stroke: #fff;
        stroke-linecap: round;
        stroke-linejoin: round;
      }
    </style>
  </defs>
  <g
     inkscape:groupmode="layer"
     id="layer3"
     inkscape:label="design"
     style="display:inline">
    <path
       style="display:inline;fill:none;stroke:#ffffff;stroke-width:1px;stroke-linecap:round;stroke-linejoin:round;stroke-opacity:1"
       d="m 22.720815,22.61702 c 0,0 -3.161615,-3.395494 -2.891768,-8.150808 0.244061,-4.3009 3.576872,-7.6374619 5.835433,-7.6872338 3.272083,-0.072107 2.904193,2.5392321 2.893277,2.537763 0,0 2.5594,-3.3019474 6.032143,-2.4860492 2.783738,0.6540212 1.542812,5.439923 -1.406752,8.68284 -4.506485,4.954686 -10.462333,7.103488 -10.462333,7.103488 z"
       id="path1135"
       sodipodi:nodetypes="csscssc" />
    <path
       style="display:inline;fill:none;stroke:#ffffff;stroke-width:1px;stroke-linecap:round;stroke-linejoin:round;stroke-opacity:1"
       d="m 20.371148,23.987074 c 0,0 -3.330279,4.582992 -7.746817,6.323474 -4.0078348,1.57942 -6.3558273,0.671626 -6.4055993,-1.586935 -0.07211,-3.272083 3.1973506,-4.861756 3.1958816,-4.85084 0,0 -2.1999053,-1.830819 -0.1975556,-4.783145 1.3368803,-1.971137 4.9142833,-3.771482 7.9365153,-0.926935 2.068306,1.946704 3.217575,5.824381 3.217575,5.824381 z"
       id="path1135-3"
       sodipodi:nodetypes="csscssc" />
    <path
       style="fill:none;stroke:#ffffff;stroke-width:1px;stroke-linecap:round;stroke-linejoin:round;stroke-opacity:1"
       d="m 35.688078,31.029815 c 0,0 3.570987,-0.133267 5.21369,-3.180442 1.800449,-3.339791 1.299405,-7.073992 -4.779837,-7.301627 -5.275521,-0.197539 -10.862737,2.780442 -12.959173,4.359124 -1.962215,1.477609 -4.979142,5.213326 -6.488908,8.053146 -2.114307,3.976941 -2.146416,6.559757 -2.146416,6.559757 0,0 0.265175,0.905488 1.048704,1.299605 0.964113,0.48495 1.752752,0.266584 1.752752,0.266584 0,0 -0.129225,-3.775572 1.487115,-7.666525 1.926112,-4.636656 3.981323,-6.050261 3.981323,-6.050261 0,0 -0.08257,4.678452 1.570334,7.205564 3.239897,4.953456 7.895437,4.819599 10.639155,1.927537 2.59493,-2.735229 0.681261,-5.472462 0.681261,-5.472462 z"
       id="path5834"
       sodipodi:nodetypes="csssscscscssc" />
  </g>
</svg>
