<?xml version="1.0" encoding="UTF-8" standalone="no"?>
<svg
   id="b"
   viewBox="0 0 48 48"
   version="1.1"
   sodipodi:docname="agora.svg"
   xml:space="preserve"
   inkscape:version="1.4.2 (ebf0e940d0, 2025-05-08)"
   xmlns:inkscape="http://www.inkscape.org/namespaces/inkscape"
   xmlns:sodipodi="http://sodipodi.sourceforge.net/DTD/sodipodi-0.dtd"
   xmlns="http://www.w3.org/2000/svg"
   xmlns:svg="http://www.w3.org/2000/svg"><sodipodi:namedview
     id="namedview2"
     pagecolor="#ffffff"
     bordercolor="#000000"
     borderopacity="0.25"
     inkscape:showpageshadow="2"
     inkscape:pageopacity="0.0"
     inkscape:pagecheckerboard="0"
     inkscape:deskcolor="#d1d1d1"
     showguides="true"
     inkscape:zoom="11.313709"
     inkscape:cx="20.506096"
     inkscape:cy="24.748736"
     inkscape:window-width="1920"
     inkscape:window-height="996"
     inkscape:window-x="0"
     inkscape:window-y="0"
     inkscape:window-maximized="1"
     inkscape:current-layer="b"><sodipodi:guide
       position="-40.216696,36.24435"
       orientation="1,0"
       id="guide9"
       inkscape:locked="false" /></sodipodi:namedview><defs
     id="defs1"><style
       id="style1">.c{fill:none;stroke:#000;stroke-linecap:round;stroke-linejoin:round;}</style></defs><rect
     class="c"
     x="5.5"
     y="5.5"
     width="37"
     height="37"
     rx="4"
     ry="4"
     id="rect2"
     style="stroke:#ffffff" /><g
     id="g13"
     transform="translate(0.27766195)"
     style="stroke:#ffffff"><g
       id="g2"
       style="stroke:#ffffff"
       transform="translate(-27.593388,-27.150002)"><path
         class="t"
         d="m 42.5,51.800002 c 0,1.1046 -0.8954,2 -2,2 v 0 c -1.1046,0 -2,-0.8954 -2,-2 v -1.3 c 0,-1.1046 0.8954,-2 2,-2 v 0 c 1.1046,0 2,0.8954 2,2"
         id="path405"
         style="fill:none;stroke:#ffffff;stroke-linecap:round;stroke-linejoin:round" /><line
         class="t"
         x1="42.5"
         y1="53.800003"
         x2="42.5"
         y2="48.5"
         id="line405"
         style="fill:none;stroke:#ffffff;stroke-linecap:round;stroke-linejoin:round" /></g><g
       id="g7"
       transform="translate(0.18749953,1.349998)"
       style="stroke:#ffffff"><path
         class="t"
         d="m 20.765806,20 v 6 c 0,1.1046 -0.8954,2 -2,2 v 0 c -0.5523,0 -1.0523,-0.2238 -1.4142,-0.5858"
         id="path370"
         style="fill:none;stroke:#ffffff;stroke-linecap:round;stroke-linejoin:round" /><rect
         class="t"
         x="-20.765806"
         y="-25.300003"
         width="4"
         height="5.3000002"
         rx="2"
         ry="2"
         transform="scale(-1)"
         id="rect370"
         style="fill:none;stroke:#ffffff;stroke-linecap:round;stroke-linejoin:round" /></g><rect
       class="t"
       x="23"
       y="21.35"
       width="4"
       height="5.3000002"
       rx="2"
       ry="2"
       id="rect373"
       style="fill:none;stroke:#ffffff;stroke-linecap:round;stroke-linejoin:round" /><g
       id="g4"
       style="stroke:#ffffff"
       transform="translate(-55.678626,-16.066817)"><path
         class="t"
         d="m 84.72532,39.416817 c 0,-1.1046 0.8954,-2 2,-2 v 0"
         id="path378"
         style="fill:none;stroke:#ffffff;stroke-linecap:round;stroke-linejoin:round" /><line
         class="t"
         x1="84.725319"
         y1="37.416817"
         x2="84.725319"
         y2="42.71682"
         id="line378"
         style="fill:none;stroke:#ffffff;stroke-linecap:round;stroke-linejoin:round" /></g><g
       id="g5"
       style="stroke:#ffffff"
       transform="translate(-5.9619359,-27.15)"><path
         class="t"
         d="m 42.5,51.800002 c 0,1.1046 -0.8954,2 -2,2 v 0 c -1.1046,0 -2,-0.8954 -2,-2 v -1.3 c 0,-1.1046 0.8954,-2 2,-2 v 0 c 1.1046,0 2,0.8954 2,2"
         id="path5"
         style="fill:none;stroke:#ffffff;stroke-linecap:round;stroke-linejoin:round" /><line
         class="t"
         x1="42.5"
         y1="53.800003"
         x2="42.5"
         y2="48.5"
         id="line5"
         style="fill:none;stroke:#ffffff;stroke-linecap:round;stroke-linejoin:round" /></g></g></svg>
