<svg xmlns="http://www.w3.org/2000/svg" xml:space="preserve" width="48" height="48"><path fill="none" stroke="#fff" stroke-linecap="round" stroke-linejoin="round" d="M41.573 4.713c-4.636.217-4.726 3.881-5.95 6.456-3.194 6.718-7.38 4.076-9.48 3.53m15.43-9.986c-9.191-.738-19.412.034-15.43 9.987-3.27 4.328-2.87 7.132-3.278 10.743 4.985 0 9.026 4.042 9.026 9.028s-4.04 9.029-9.026 9.029-9.026-4.043-9.026-9.029 4.041-9.028 9.026-9.028c-.363-3.65-1.232-3.703-3.983-6.607-2.534 1.812-5.972 1.963-7.716-2.27-1.05-2.548-2.308-4.498-4.74-4.54 5.53-1.431 15.516-2.072 12.455 6.81" style="-inkscape-stroke:none"/></svg>
