<?xml version="1.0" encoding="UTF-8"?><svg id="b" xmlns="http://www.w3.org/2000/svg" viewBox="0 0 48 48"><defs><style>.v{fill:none;stroke:#fff;stroke-linecap:round;stroke-linejoin:round;}</style></defs><path id="c" class="v" d="M42.4999,12.3994l-16.3954,18.975c-2.116,2.4489-5.791,2.7169-8.2399.601l-1.0692-.9239c-2.4489-2.116-2.7169-5.791-.6009-8.2399h0L31.1525,5.5"/><path id="d" class="v" d="M19.7796,18.663l9.9103,8.563"/><path id="e" class="v" d="M22.7555,15.2188l9.9103,8.563"/><path id="f" class="v" d="M18.0638,16.2684l-2.5837.8178-.8178,2.5837-.8178-2.5837-2.5837-.8178,2.5837-.8178.8178-2.5837.8178,2.5837,2.5837.8178h0"/><path id="g" class="v" d="M20.9786,10.1108l-1.979.6264-.6264,1.979-.6264-1.979-1.979-.6264,1.979-.6264.6264-1.979.6264,1.979,1.979.6264h0"/><path id="h" class="v" d="M20.7462,12.7829v1.7625"/><path id="i" class="v" d="M21.6274,13.6641h-1.7625"/><path id="j" class="v" d="M27.493,29.79c-.0809,7.6259,5.4699,11.3466,12.2364,12.5447"/><path id="k" class="v" d="M16.1115,30.3374c-3.745,1.317-7.926,2.8042-10.6103,5.5983"/><path id="l" class="v" d="M7.815,34.037v8.1302"/><path id="m" class="v" d="M33.2943,40.1075v2.3925"/><path id="n" class="v" d="M12.9109,31.5114v10.9886"/><path id="o" class="v" d="M28.1985,34.2386v8.2614"/><path id="p" class="v" d="M18.0068,32.0914v10.4086"/><path id="q" class="v" d="M23.1026,33.2249v9.2751"/><path id="r" class="v" d="M19.0882,32.7907h-9.1"/><path id="s" class="v" d="M27.7888,32.7907h-3.505"/><path id="t" class="v" d="M30.4532,37.8866H5.5001"/><path id="u" class="v" d="M9.5,5.5h29c2.216,0,4,1.784,4,4v29c0,2.216-1.784,4-4,4H9.5c-2.216,0-4-1.784-4-4V9.5c0-2.216,1.784-4,4-4Z"/></svg>