<svg xmlns="http://www.w3.org/2000/svg" xml:space="preserve" width="48" height="48"><path fill="none" stroke="#fff" stroke-linecap="round" stroke-linejoin="round" d="M28.91 32.931a2.399 2.399 0 0 0 1.046 4.559 2.4 2.4 0 1 0-1.046-4.56l-2.174-4.96a5.7 5.7 0 0 1-2.761.71 5.7 5.7 0 0 1-2.034-.372m2.849-10.964a5.68 5.68 0 0 0-4.112.991m-2.544 18.958a3.2 3.2 0 1 0 2.112 3.009 3.2 3.2 0 0 0-2.112-3.01l3.807-8.984a5.7 5.7 0 0 1-3.514-6.64l-4.932-.827a3.701 3.701 0 0 1-7.35-.614 3.7 3.7 0 0 1 3.7-3.699 3.7 3.7 0 0 1 3.65 4.313m5.346-4.918a2.3 2.3 0 1 1-2.944-3.536 2.3 2.3 0 0 1 2.944 3.536l1.837 2.412a5.7 5.7 0 0 0-2.251 3.333m11.626-2.748a3.3 3.3 0 1 0-.66-1.979c0 .743.246 1.428.66 1.979l-1.368.85a5.67 5.67 0 0 1 .992 3.213c0 .515-.069 1.014-.197 1.49m4.53 1.503a4 4 0 0 0 3.845 5.106 4 4 0 1 0 0-7.996 4 4 0 0 0-3.845 2.89l-4.53-1.504a5.7 5.7 0 0 1-2.743 3.497m-1.115-17.297q.195.025.397.025a3.1 3.1 0 1 0-3.1-3.098 3.1 3.1 0 0 0 2.703 3.073l-.831 6.672a5.7 5.7 0 0 1 3.894 2.427"/></svg>
