<svg xmlns="http://www.w3.org/2000/svg" xml:space="preserve" width="48" height="48" viewBox="0 0 12.7 12.7"><path fill="none" stroke="#fff" stroke-linecap="round" stroke-linejoin="round" stroke-width=".265" d="M4.32 5.795c-.213-.097-.418-.217-.626-.332-.53-.292-1.074-.466-1.572-.425-.921.076-1.344 1.163-.406 1.594.203.094.46.21.479.44.014.178.169.343.423.353.2.008.441-.164.455-.378.024-.365-.452-.541-1.078-.645-.786-.13-.318-.806.062-.802.64.007 1.157.462 1.356 1.231.222.855.902 1.154 1.527 1.406.136.055.184.118.184.248 0 .228-.09.367-.387.367-.425 0-.5.183-.522.36h3.128c-.022-.177-.096-.36-.522-.36-.297 0-.387-.14-.387-.367 0-.191.228-.294.542-.348 1.196-.207 1.34-.769 1.845-1.3.844-.89 1.63-1.09 2.688-1.326v-.396c-.621.012-1.983.016-2.556.412-.74.51-1.443.546-1.857.046-.19-.442-.725-.761-1.356-.761-.733 0-1.337.43-1.42.984m2.776-.223c-.945.739-1.896.621-2.776.222m1.041-1.952.367-.354.368.354-.368.65z"/></svg>
