<svg xmlns="http://www.w3.org/2000/svg" xml:space="preserve" width="48" height="48"><path fill="none" stroke="#fff" stroke-linecap="round" stroke-linejoin="round" d="M25.389 12.312v.678m0 4.098v21.518l1.537-1.498m-1.566 1.498-1.537-1.498m-1.183-1.42v-.591m0-4.098V9.395l1.537 1.498m-1.566-1.498-1.537 1.498m-2.835 20.11c1.135 1.431 2.557 1.964 4.535 1.964h.531m4.098-.391c1.606-.7 2.724-2.265 2.724-4.083v-.019c0-2.47-2.066-4.474-4.614-4.474h-3.02c-2.552 0-4.62-2.005-4.62-4.478v0c0-1.767 1.053-3.296 2.583-4.028m4.1-.46h.67c1.978 0 3.4.532 4.535 1.964M25.703 5.43A18.65 18.65 0 0 1 42.648 24v0a18.65 18.65 0 0 1-4.188 11.776m-2.313 2.374A18.65 18.65 0 0 1 24 42.65a18.65 18.65 0 0 1-12.146-4.499M9.54 35.776A18.65 18.65 0 0 1 5.353 24 18.65 18.65 0 0 1 22.388 5.422"/></svg>
