<?xml version="1.0" encoding="UTF-8" standalone="no"?>
<!-- Created with Inkscape (http://www.inkscape.org/) -->

<svg
   width="48"
   height="48"
   viewBox="0 0 48 48"
   version="1.1"
   id="svg1"
   xml:space="preserve"
   sodipodi:docname="Albion Online.svg"
   inkscape:version="1.3.2 (091e20e, 2023-11-25, custom)"
   xmlns:inkscape="http://www.inkscape.org/namespaces/inkscape"
   xmlns:sodipodi="http://sodipodi.sourceforge.net/DTD/sodipodi-0.dtd"
   xmlns="http://www.w3.org/2000/svg"
   xmlns:svg="http://www.w3.org/2000/svg"><sodipodi:namedview
     id="namedview1"
     pagecolor="#ffffff"
     bordercolor="#000000"
     borderopacity="0.25"
     inkscape:showpageshadow="2"
     inkscape:pageopacity="0.0"
     inkscape:pagecheckerboard="0"
     inkscape:deskcolor="#d1d1d1"
     inkscape:document-units="px"
     inkscape:zoom="17.279922"
     inkscape:cx="28.819575"
     inkscape:cy="27.633227"
     inkscape:window-width="2560"
     inkscape:window-height="1369"
     inkscape:window-x="-8"
     inkscape:window-y="-8"
     inkscape:window-maximized="1"
     inkscape:current-layer="layer2" /><defs
     id="defs1"><inkscape:path-effect
       effect="fillet_chamfer"
       id="path-effect5"
       is_visible="true"
       lpeversion="1"
       nodesatellites_param="F,0,1,1,0,0.65560748,0,1 @ F,0,0,1,0,0.76779931,0,1 @ F,0,0,1,0,0.76779931,0,1 @ F,0,0,1,0,0.76779931,0,1 @ F,0,1,1,0,0.65560748,0,1"
       radius="0"
       unit="px"
       method="auto"
       mode="F"
       chamfer_steps="1"
       flexible="false"
       use_knot_distance="true"
       apply_no_radius="true"
       apply_with_radius="true"
       only_selected="false"
       hide_knots="false" /><inkscape:path-effect
       effect="fillet_chamfer"
       id="path-effect4"
       nodesatellites_param="F,0,0,1,0,1.0027429,0,1 @ F,0,0,1,0,1.0027429,0,1 @ F,0,0,1,0,1.0027429,0,1 @ F,0,0,1,0,1.0027429,0,1 @ F,0,0,1,0,1.0115223,0,1 @ F,0,0,1,0,1.0027429,0,1 @ F,0,0,1,0,1.0027429,0,1 @ F,0,0,1,0,1.0027429,0,1 @ F,0,0,1,0,1.0027429,0,1 @ F,0,0,1,0,1.0027429,0,1 @ F,0,0,1,0,1.0027429,0,1 @ F,0,0,1,0,1.0027429,0,1 @ F,0,0,1,0,6.205843,0,1 @ F,0,0,1,0,1.0027429,0,1 @ F,0,0,1,0,1.0027429,0,1 @ F,0,0,1,0,1.0027429,0,1 @ F,0,0,1,0,1.0027429,0,1"
       is_visible="true"
       lpeversion="1"
       radius="0"
       unit="px"
       method="auto"
       mode="F"
       chamfer_steps="1"
       flexible="false"
       use_knot_distance="true"
       apply_no_radius="true"
       apply_with_radius="true"
       only_selected="false"
       hide_knots="false" /><inkscape:path-effect
       effect="fillet_chamfer"
       id="path-effect3"
       is_visible="true"
       lpeversion="1"
       nodesatellites_param="F,0,0,1,0,0,0,1 @ F,0,0,1,0,0,0,1 @ F,0,0,1,0,0,0,1 @ F,0,0,1,0,0,0,1 @ F,0,0,1,0,0,0,1 @ F,0,0,1,0,0,0,1 @ F,0,0,1,0,0,0,1 @ F,0,0,1,0,0,0,1 @ F,0,0,1,0,0,0,1 @ F,0,0,1,0,0,0,1 @ F,0,0,1,0,0,0,1 @ F,0,0,1,0,0,0,1 @ F,0,0,1,0,0,0,1 @ F,0,0,1,0,0,0,1 @ F,0,0,1,0,0,0,1 @ F,0,0,1,0,0.5349417,0,1 @ F,0,0,1,0,0.29629221,0,1"
       radius="0"
       unit="px"
       method="auto"
       mode="F"
       chamfer_steps="1"
       flexible="false"
       use_knot_distance="true"
       apply_no_radius="true"
       apply_with_radius="true"
       only_selected="false"
       hide_knots="false" /><inkscape:path-effect
       effect="fillet_chamfer"
       id="path-effect2"
       is_visible="true"
       lpeversion="1"
       nodesatellites_param=""
       radius="0"
       unit="px"
       method="auto"
       mode="F"
       chamfer_steps="1"
       flexible="false"
       use_knot_distance="true"
       apply_no_radius="true"
       apply_with_radius="true"
       only_selected="false"
       hide_knots="false" /></defs><g
     inkscape:groupmode="layer"
     id="layer2"
     inkscape:label="Layer 2"
     style="stroke-dasharray:none;stroke-width:1.0"><path
       style="fill:none;stroke:#ffffff;stroke-dasharray:none;stroke-width:1.00202"
       d="M 23.5533 0.620566 C 27.8009 1.96538 34.1559 5.76679 37.1449 8.05118 C 37.6176 8.41247 37.8169 9.18785 37.4862 9.6801 C 37.0743 10.2931 36.509 10.9471 36.0533 11.5049 C 35.6776 11.9647 35.4181 12.8501 35.425 13.4449 L 35.5972 28.2374 C 35.604 28.8322 35.9447 29.6616 36.3687 30.0791 C 36.6984 30.4036 37.0252 30.7083 37.3418 30.9581 C 37.8109 31.3285 38.0334 31.9399 37.7417 32.4644 L 34.7615 37.821 C 34.4723 38.3409 33.9 38.4179 33.4911 37.9857 C 32.3152 36.7428 31.1684 35.4566 29.9334 34.3024 C 29.5007 33.8979 29.1532 33.1053 29.1766 32.5109 L 29.4937 24.4921 C 29.5049 24.2109 29.4006 23.9373 29.2052 23.7347 C 29.0097 23.532 28.7399 23.4178 28.4582 23.4185 L 23.9915 23.4293 C 23.3961 23.4307 22.8949 23.914 22.8514 24.5072 C 22.6622 27.0858 22.1972 29.2846 21.4079 31.9955 C 21.2416 32.5667 20.9244 33.4771 20.687 34.0226 C 18.8267 38.2968 15.6749 43.0612 12.7069 47.0764 C 12.3533 47.5548 11.6816 47.6443 11.2111 47.2798 L 10.5278 46.7503 C 10.0574 46.3857 9.99764 45.7293 10.3502 45.2502 C 12.9094 41.7725 14.6008 36.0459 15.4993 29.973 C 16.038 26.3326 16.3151 20.2896 15.3234 16.7614 C 15.2184 16.388 15.1078 16.0229 14.9941 15.6678 C 14.8129 15.1013 15.0532 14.3805 15.5472 14.0485 C 17.9144 12.4571 20.2855 10.7763 22.3851 9.07659 C 22.8475 8.70232 22.7399 8.30729 22.148 8.24398 C 17.6052 7.75808 14.5674 9.286 11.8968 11.9789 C 11.4778 12.4014 11.079 12.287 10.9939 11.6983 C 10.8995 11.0457 10.8187 10.4063 10.7551 9.79357 C 10.6937 9.20198 11.0083 8.38696 11.4436 7.98112 C 15.1517 4.52349 18.3873 2.13375 21.5184 0.742611 C 22.0623 0.500955 22.986 0.440914 23.5533 0.620566 Z"
       id="path1" /><path
       style="fill:none;stroke:#ffffff;stroke-dasharray:none;stroke-width:1.00202"
       d="M 25.385 10.1893 C 24.0882 11.716 23.3571 13.8159 23.2163 16.0186 C 23.1873 16.4731 23.5608 16.8408 24.0166 16.8384 L 28.674 16.8138 C 29.1305 16.8114 29.4995 16.4409 29.4995 15.9847 L 29.4997 13.1029 C 29.4998 12.6474 29.2261 12.0298 28.8744 11.74 C 28.1347 11.1307 27.3457 10.5673 26.537 10.0149 C 26.216 9.79557 25.9147 9.64474 25.8661 9.67509 Z"
       id="path2" /></g></svg>
