<?xml version="1.0" encoding="UTF-8" standalone="no"?>
<svg
   viewBox="0 0 48 48"
   version="1.1"
   id="svg1"
   sodipodi:docname="alibaba_cloud_disk.svg"
   inkscape:version="1.2.2 (b0a8486541, 2022-12-01)"
   xml:space="preserve"
   xmlns:inkscape="http://www.inkscape.org/namespaces/inkscape"
   xmlns:sodipodi="http://sodipodi.sourceforge.net/DTD/sodipodi-0.dtd"
   xmlns="http://www.w3.org/2000/svg"
   xmlns:svg="http://www.w3.org/2000/svg"><sodipodi:namedview
     id="namedview1"
     pagecolor="#505050"
     bordercolor="#eeeeee"
     borderopacity="1"
     inkscape:showpageshadow="0"
     inkscape:pageopacity="0"
     inkscape:pagecheckerboard="0"
     inkscape:deskcolor="#505050"
     inkscape:zoom="12.59534"
     inkscape:cx="40.729351"
     inkscape:cy="26.200167"
     inkscape:window-width="1918"
     inkscape:window-height="1053"
     inkscape:window-x="0"
     inkscape:window-y="0"
     inkscape:window-maximized="1"
     inkscape:current-layer="svg1"
     showgrid="false" /><defs
     id="defs1"><style
       id="style1">.a { fill:none;stroke:#fff;stroke-linecap:round;stroke-linejoin:round; }
</style></defs><path
     style="fill:none;stroke:#ffffff;stroke-width:1;stroke-linecap:round;stroke-linejoin:round;stroke-dashoffset:3.6;stroke-opacity:1"
     d="M 38.205881,24.665532 C 39.320873,15.501741 32.735951,6.10469 21.646992,6.10469 c -8.916815,0 -16.2742036,7.834677 -16.1453214,17.497321 0.1181623,8.858948 7.7892154,17.175771 16.1453214,18.147251 8.857163,1.029733 17.482746,-3.360209 20.790579,-12.674545 0.227675,-0.641095 -0.09894,-1.34671 -0.901037,-1.542255 L 38.673922,26.834581 C 37.876608,26.640202 38.025527,26.1478 38.205881,24.665532 Z"
     id="path21360" /><path
     style="fill:none;stroke:#ffffff;stroke-width:1;stroke-linecap:round;stroke-linejoin:round;stroke-dashoffset:3.6;stroke-opacity:1"
     d="m 31.738999,23.789332 c 0.686837,-5.249679 -3.435991,-10.298038 -8.65681,-10.806489 -4.372355,-0.425819 -10.755842,2.323183 -10.684063,10.772126 0.05453,6.41987 5.528049,10.860678 10.684063,11.379046 5.805652,0.583681 10.769404,-2.275488 12.807035,-8.009807 0.140248,-0.394686 -0.07034,-0.795571 -0.55504,-0.949479 l -3.306871,-1.050035 c -0.48181,-0.152989 -0.407571,-0.423843 -0.288314,-1.335362 z"
     id="path21350" /></svg>
