<svg viewBox="0 0 48 48" xmlns="http://www.w3.org/2000/svg"><path d="M46.008 7.448a6.207 6.207 0 0 0-4.426 0C27.78 13.468 31.234 40.85 16.18 40.551 8.914 40.406 1.996 34.269 1.992 24 1.987 13.731 8.914 7.593 16.179 7.448c15.056-.298 11.6 27.085 25.403 33.104a6.207 6.207 0 0 0 4.426 0" style="stroke:#fff;stroke-width:1;stroke-opacity:1;stroke-miterlimit:4;stroke-dasharray:none;stroke-linecap:round;fill:none;stroke-linejoin:round"/><path class="c" d="M19.427 30.125c1.015.852 2.111 1.243 4.573 1.243h1.248a3.68 3.68 0 0 0 3.675-3.684v0A3.68 3.68 0 0 0 25.247 24h-2.495a3.68 3.68 0 0 1-3.675-3.684v0a3.68 3.68 0 0 1 3.675-3.684H24c2.462 0 3.558.39 4.573 1.243" style="fill:none;stroke:#fff;stroke-opacity:1;stroke-width:1.21507517;stroke-miterlimit:4;stroke-dasharray:none;stroke-linecap:round" transform="matrix(.823 0 0 .823 -8.81 4.361)"/><path class="c" d="M19.427 30.125c1.015.852 2.111 1.243 4.573 1.243h1.248a3.68 3.68 0 0 0 3.675-3.684v0A3.68 3.68 0 0 0 25.247 24h-2.495a3.68 3.68 0 0 1-3.675-3.684v0a3.68 3.68 0 0 1 3.675-3.684H24c2.462 0 3.558.39 4.573 1.243" style="fill:none;stroke:#fff;stroke-opacity:1;stroke-width:1.21505545;stroke-miterlimit:4;stroke-dasharray:none;stroke-linecap:round" transform="matrix(.823 0 0 .823 1.202 4.361)"/></svg>