<?xml version="1.0" encoding="UTF-8"?><svg xmlns="http://www.w3.org/2000/svg" viewBox="0 0 48 48"><defs><style>.d{fill:none;stroke:#fff;stroke-linecap:round;stroke-linejoin:round;}</style></defs><circle class="d" cx="24" cy="24" r="21.5"/><path class="d" d="m32.281 29.701c1.112-0.451 3.0916-1.0492 3.6872-0.3272 0.6446 0.7814-0.17 2.4769-0.92 3.7942"/><path class="d" d="m11.798 30.223c1.7586 1.3965 6.9532 3.5343 12.488 3.5343a17.003 17.003 0 0 0 10.167-3.0789"/><rect class="d" x="24.269" y="20.738" width="3.1748" height="4.1785" rx="1.5874" ry="1.5768"/><path class="d" d="m21.39 19.437v4.691c0 0.43544 0.35534 0.7884 0.7937 0.7884h0.23811"/><line class="d" x1="20.556" x2="22.223" y1="20.738" y2="20.738"/><path class="d" d="m31.566 18.116h5.7095l-5.7095 7.8957h5.7095"/><path class="d" d="m16.429 23.032c0 1.6456-1.2684 2.9795-2.8331 2.9795h-0.99431c-1.0366 0-1.8769-0.88372-1.8769-1.9739s0.8403-1.9739 1.8769-1.9739h3.8327"/><path class="d" d="m11.438 18.898c0.688-0.7191 1.17-0.78212 2.4979-0.78212 1.5075 0 2.4979 0.69199 2.4979 2.5625v5.3332"/></svg>
