<?xml version="1.0" encoding="UTF-8"?><svg id="a" xmlns="http://www.w3.org/2000/svg" viewBox="0 0 48 48"><defs><style>.d{fill:none;stroke:#fff;stroke-linecap:round;stroke-linejoin:round;}</style></defs><path id="b" class="d" d="M7.993,32.4045c2.1534-1.2381,3.9664-4.788,6.4623-9.2167,1.7617-3.1259,2.2606-3.9095,3.0662-6.1818.8788-2.4789-.9774-6.401,1.108-9.0805,3.198-4.109,7.6005-1.7755,8.7148-.1379,1.6116,2.3683.6639,4.1796,1.0439,8.8957.1684,2.0898,1.7644,4.419,4.6586,8.7323,1.2809,1.909,2.8952,2.5546,5.1849,3.4268,6.0084,2.2889,6.2036,13.5288-2.8411,13.5291-4.3289.0001-5.0895-4.1642-12.2768-4.3493-5.5503-.143-7.7322-.3499-11.8895,1.2951-5.5874,2.2109-7.8776-4.0023-3.2313-6.9129Z"/><path id="c" class="d" d="M14.3077,32.0311c-.6152-2.2048,1.0131-4.5602,2.6396-7.45,1.8153-3.2251,3.3326-6.1306,5.6602-6.3165,2.9766-.2377,4.4997,2.7791,6.5211,6.2545,1.7721,3.0469,4.4255,7.0761,1.3633,9.442-1.4717,1.137-2.6407.9933-7.5084,1.071-6.1322.0979-8.0945-.9182-8.6757-3.001Z"/></svg>