<?xml version="1.0" encoding="UTF-8" standalone="no"?>
<!-- Created with Inkscape (http://www.inkscape.org/) -->

<svg
   width="48"
   height="48"
   viewBox="0 0 12.7 12.7"
   version="1.1"
   id="svg1"
   xml:space="preserve"
   inkscape:version="1.4.2 (ebf0e940d0, 2025-05-08)"
   sodipodi:docname="ambosswiessen.svg"
   xmlns:inkscape="http://www.inkscape.org/namespaces/inkscape"
   xmlns:sodipodi="http://sodipodi.sourceforge.net/DTD/sodipodi-0.dtd"
   xmlns="http://www.w3.org/2000/svg"
   xmlns:svg="http://www.w3.org/2000/svg"><sodipodi:namedview
     id="namedview1"
     pagecolor="#ffffff"
     bordercolor="#000000"
     borderopacity="0.25"
     inkscape:showpageshadow="2"
     inkscape:pageopacity="0.0"
     inkscape:pagecheckerboard="0"
     inkscape:deskcolor="#d1d1d1"
     inkscape:document-units="mm"
     inkscape:zoom="11.217621"
     inkscape:cx="29.06142"
     inkscape:cy="22.108074"
     inkscape:window-width="1920"
     inkscape:window-height="996"
     inkscape:window-x="0"
     inkscape:window-y="0"
     inkscape:window-maximized="1"
     inkscape:current-layer="layer1" /><defs
     id="defs1"><inkscape:path-effect
       effect="powerclip"
       id="path-effect11"
       is_visible="true"
       lpeversion="1"
       inverse="true"
       flatten="false"
       hide_clip="false"
       message="" /><style
       id="style1">.b{fill:none;stroke:#000;stroke-linecap:round;stroke-linejoin:round;}</style><clipPath
       clipPathUnits="userSpaceOnUse"
       id="clipPath11"><circle
         class="a"
         id="circle11"
         style="display:none;fill:#000000;stroke:#000000;stroke-width:0.627025;stroke-linecap:round;stroke-linejoin:round"
         r="4.3891792"
         cy="20.681221"
         cx="20.128805"
         d="m 24.517984,20.681221 a 4.3891792,4.3891792 0 0 1 -4.389179,4.389179 4.3891792,4.3891792 0 0 1 -4.389179,-4.389179 4.3891792,4.3891792 0 0 1 4.389179,-4.389179 4.3891792,4.3891792 0 0 1 4.389179,4.389179 z" /><path
         id="lpe_path-effect11"
         style="fill:#000000;stroke:#000000;stroke-width:0.627025;stroke-linecap:round;stroke-linejoin:round"
         class="powerclip"
         d="M -3.6794899,-3.9115128 H 27.67949 V 27.911513 H -3.6794899 Z M 24.517984,20.681221 a 4.3891792,4.3891792 0 0 0 -4.389179,-4.389179 4.3891792,4.3891792 0 0 0 -4.389179,4.389179 4.3891792,4.3891792 0 0 0 4.389179,4.389179 4.3891792,4.3891792 0 0 0 4.389179,-4.389179 z" /></clipPath></defs><g
     inkscape:label="Capa 1"
     inkscape:groupmode="layer"
     id="layer1"><circle
       class="a"
       cx="9.7800779"
       cy="10.013178"
       r="1.8520833"
       id="circle1"
       style="fill:none;stroke:#ffffff;stroke-width:0.264583;stroke-linecap:round;stroke-linejoin:round" /><polyline
       points="12 1.402 1.634 19.356 22.366 19.356 13.77 4.467 3.302 22.598 20.698 22.598 13.901 10.825"
       fill="none"
       stroke="currentColor"
       stroke-linecap="round"
       stroke-linejoin="round"
       stroke-width="2"
       id="polyline1"
       transform="matrix(0.42196576,0,0,0.42196576,1.286411,1.286411)"
       style="stroke-width:0.6270256;stroke-dasharray:none;stroke:#ffffff"
       clip-path="url(#clipPath11)"
       inkscape:path-effect="#path-effect11"
       d="M 12,1.402 1.634,19.356 H 22.366 L 13.77,4.467 3.302,22.598 H 20.698 L 13.901,10.825" /><polyline
       class="t"
       points="313.8338 40.65 311.8338 48.65 309.8338 40.65 307.8338 48.65 305.8338 40.65"
       id="polyline370"
       style="fill:none;stroke:#ffffff;stroke-linecap:round;stroke-linejoin:round"
       transform="matrix(0.26458333,0,0,0.26458333,-72.196781,-1.8004472)" /></g></svg>
