<svg xmlns="http://www.w3.org/2000/svg" xml:space="preserve" viewBox="0 0 48 48"><path d="m30.329078 31.556037-.656216 2.172713-2.558695-.02781c-.923303 2.281236-.134824 3.508439-.601488 5.279103-.319634 1.212789-.493262 1.485112-.517752 2.350776 4.325394.112323 9.565115.03021 11.149893-1.345708.779244-.676546 1.103477-1.598664 1.46624-2.190401.573248-.935078 1.18023-.843101 2.152062.372759.51577.645281 1.628433 1.345766 1.736878.268009.349476-3.473213-.655417-7.524957.592179-11.296807-1.176252-2.25019-2.005008-5.002814-3.139106-7.77697-1.536798-3.759216-2.333071-5.250319-2.850391-8.03894-1.093567-.610514-1.987861-1.114397-3.362646-1.8753995-1.270206-.703114-2.064956-1.4333369-3.058444-2.157994-7.24894-1.5843784-15.098061-.3440705-19.166213 4.4255685-3.3222368 3.895103-4.1537954 7.697414-4.6934966 12.599026-.2453705 2.228475-.8803693 4.41489-1.7002197 6.622336-.6325513 2.134521.3735909 5.272789.2451778 7.827074.9413499 0 1.6304763.397495 1.8705178 1.323145.3838793-.705122.7439494-1.553168 1.685367-1.550154l4.2714027.01367c1.238715.0039 1.727876.858399 1.637467 1.721025 3.842359 1.07246 5.443608 1.037114 8.910362 1.029869-.04932-1.751822-.344588-2.280179-.35752-3.885761l-.02981-3.700698c-1.560777.214954-2.88335.288055-3.896172.01591.364529-.927611.941508-1.987888 1.598925-2.691107.145802-2.340078 1.529933-3.468555 2.011261-5.255081.417102-1.548141.15621-2.146704-.669614-3.775981-.439113-.866332-1.008626-1.779808-.176888-2.436216.367975-.290405.52472-.509467.319588-.85414-.439876-.739097-.430328-1.632345-.01765-2.274533-.0128-1.059092.965741-1.837818 1.963978-1.837818.960157 0 2.084139.357901 2.091476 1.529362.0028.437004-.08058.971147-.0098 1.220973.135919.479709-.190053.901316-.52537.975154l.208509.730505c.704132-.109593 1.381071.190046 1.413363.891288.911459-.189021 1.337669.650199 1.299646 1.495191l-.220226 4.894333 1.432729 2.4177.284639 1.627341" style="fill:none;stroke:#fff;stroke-width:1;stroke-linecap:round;stroke-linejoin:round;stroke-dashoffset:1.3;stroke-opacity:1"/><path d="m28.745666 26.34231-.397702-2.641806c-.653012-.398363-.938095-.0043-.923806.532758.173012 1.749702.484089 2.681688.711427 3.935673.188634 1.040495.564962 1.061114 1.112983 1.806865M24.988855 34.043337l-.131897 7.215405M16.10255 25.599556c-.650446.489221-1.213007 1.262408-1.423104 1.979587-2.780827-.100217-5.2864565.460602-6.9623635 2.338532-1.5283219 1.712554-2.2776377 3.420407-2.5231667 5.358163M6.3705373 29.668356l.7288178.843313M12.869667 26.92537l-.140873.577739M17.275855 29.819535c-1.360007 1.46913-2.667883 3.056399-4.770173 4.1046-2.067239.450021-5.6611017.998486-6.8872297 2.431409M12.556752 34.120316l2.839132 1.450314M10.134941 32.631315l.02065 1.580361M39.022135 30.473665l.356624 1.277122 3.079398 3.050206M41.155862 36.253576l1.218304-.383528M39.338157 25.31152l1.842216 1.087318 1.293942 3.534609M42.658651 26.512317l-1.07813.417811M31.815166 11.174179c2.269815 1.567507 2.275092 3.180546 3.847488 4.698501 1.058735 1.022078 2.302187 2.179293 3.81335 2.790403M39.682381 18.652011c-.684968.819399-.810835 1.802429-.491385 2.885455M37.186846 19.795696c.293991-.835745 1.190875-1.282731 2.236583-.961382" style="fill:none;stroke:#fff;stroke-width:1;stroke-linecap:round;stroke-linejoin:round;stroke-dashoffset:1.3;stroke-opacity:1"/><path d="m35.919244 10.699545-2.509382 2.839441c-1.267436.617893-2.369618 1.54889-2.568674 2.486479M33.309065 13.769195l.581171 5.333976M35.823668 17.801343c-.834564.41723-1.660735.135944-1.923872-.538228" style="fill:none;stroke:#fff;stroke-width:1;stroke-linecap:round;stroke-linejoin:round;stroke-dashoffset:1.3;stroke-opacity:1"/><path d="M28.170122 11.813697c1.035719 1.427951 3.141466 2.118416 5.114894 1.734636M12.518375 14.077617c1.51981.254058 4.967241 1.720943 4.570026 4.545778.334951 1.064444 1.209427 1.912524 2.340633 2.120019" style="fill:none;stroke:#fff;stroke-width:1;stroke-linecap:round;stroke-linejoin:round;stroke-dashoffset:1.3;stroke-opacity:1"/><path d="m20.524042 15.948774-1.080117 1.009353c-.948375.243589-1.62849.283502-2.450842.03598M10.152489 13.913255l2.138337.125406c1.872857-.910969 3.427832-2.226608 4.957397-3.574592.811232-.358381 1.785368-.7959702 2.429623-1.6668526" style="fill:none;stroke:#fff;stroke-width:1;stroke-linecap:round;stroke-linejoin:round;stroke-dashoffset:1.3;stroke-opacity:1"/><path d="M16.581287 11.16263c2.013647-.230564 4.154878.381904 5.092407 2.264471M16.860378 8.1361486l-.07376 2.6418494M36.942395 21.281373l4.109557 1.255728M38.120574 15.163845l-2.489859-.406177M8.1816634 17.662654c1.2508904 2.016592 2.4597016 4.425387 2.2093256 6.897529M16.600483 24.626298l-2.975078-2.092378c-.186738-2.328264-2.817106-3.241736-4.3281062-3.033201M12.579764 18.548183l-.988271 1.037386M14.904501 22.098401l-1.207364-.03641M6.6245055 26.024691l1.372956 1.440025" style="fill:none;stroke:#fff;stroke-width:1;stroke-linecap:round;stroke-linejoin:round;stroke-dashoffset:1.3;stroke-opacity:1"/><path d="M9.5247697 20.193677c-.569897.676626-1.2436113.933882-1.8532209.883326M13.114299 22.763956c-.131487.779946-.701123 1.068353-1.460447 1.432645l-2.2671176 2.026944-.1737361 2.174756M7.8367182 25.174832c.3753568.407333.8527185.902735 1.5158465 1.126628" style="fill:none;stroke:#fff;stroke-width:1;stroke-linecap:round;stroke-linejoin:round;stroke-dashoffset:1.3;stroke-opacity:1"/><path d="M10.815013 25.28739c.536976.182188 1.027529.507342 1.361982.924491" style="fill:none;stroke:#fff;stroke-width:1;stroke-linecap:round;stroke-linejoin:round;stroke-dashoffset:1.3;stroke-opacity:1"/></svg>