<svg xmlns="http://www.w3.org/2000/svg" xml:space="preserve" width="48" height="48"><path fill="none" stroke="#fff" stroke-linecap="round" stroke-linejoin="round" d="M11.065 13.071a1.26 1.26 0 0 0 1.262 1.262 1.26 1.26 0 0 0 1.263-1.262 1.26 1.26 0 0 0-1.263-1.262 1.26 1.26 0 0 0-1.262 1.262m11.829 12.134V13.799c0-4.597-3.703-8.298-8.708-8.298-2.967 0-5.476 1.3-7.028 3.316v9.473c1.552 2.016 4.061 3.316 7.119 3.316 1.367 0 2.56-.24 3.626-.675v4.274M36.935 13.07a1.26 1.26 0 0 1-1.262 1.262 1.26 1.26 0 0 1-1.263-1.262 1.26 1.26 0 0 1 1.263-1.262 1.26 1.26 0 0 1 1.262 1.262M25.106 25.205V13.799c0-4.597 3.703-8.298 8.709-8.298 2.966 0 5.475 1.3 7.027 3.316v9.473c-1.552 2.016-4.06 3.316-7.119 3.316-1.367 0-2.559-.24-3.626-.675v4.274m-5.824 3.129v4.593h4.959l-5.505 6.089v-4.594h-4.959zm15.464-3.13v8.998a8.28 8.28 0 0 1-8.303 8.299H16.565a8.28 8.28 0 0 1-8.302-8.299v-8.997z"/></svg>
