<?xml version="1.0" encoding="UTF-8" standalone="no"?>
<!-- Created with Inkscape (http://www.inkscape.org/) -->

<svg
   width="48"
   height="48"
   viewBox="0 0 48 48"
   version="1.1"
   id="svg1"
   xml:space="preserve"
   inkscape:version="1.4.1 (93de688d07, 2025-03-30)"
   sodipodi:docname="another_shadow.svg"
   xmlns:inkscape="http://www.inkscape.org/namespaces/inkscape"
   xmlns:sodipodi="http://sodipodi.sourceforge.net/DTD/sodipodi-0.dtd"
   xmlns="http://www.w3.org/2000/svg"
   xmlns:svg="http://www.w3.org/2000/svg"><sodipodi:namedview
     id="namedview1"
     pagecolor="#505050"
     bordercolor="#ffffff"
     borderopacity="1"
     inkscape:showpageshadow="0"
     inkscape:pageopacity="0"
     inkscape:pagecheckerboard="1"
     inkscape:deskcolor="#505050"
     inkscape:document-units="px"
     inkscape:zoom="25.22538"
     inkscape:cx="33.20069"
     inkscape:cy="24.875741"
     inkscape:window-width="2560"
     inkscape:window-height="1412"
     inkscape:window-x="0"
     inkscape:window-y="0"
     inkscape:window-maximized="1"
     inkscape:current-layer="layer1"
     showguides="true"><sodipodi:guide
       position="1.5,52.307444"
       orientation="-1,0"
       id="guide1"
       inkscape:locked="false"
       inkscape:label=""
       inkscape:color="rgb(0,134,229)" /><sodipodi:guide
       position="46.5,48"
       orientation="-1,0"
       id="guide2"
       inkscape:locked="false"
       inkscape:label=""
       inkscape:color="rgb(0,134,229)" /><sodipodi:guide
       position="8.3566903,46.5"
       orientation="0,1"
       id="guide3"
       inkscape:locked="false"
       inkscape:label=""
       inkscape:color="rgb(0,134,229)" /><sodipodi:guide
       position="3.6854934,1.5"
       orientation="0,1"
       id="guide4"
       inkscape:locked="false"
       inkscape:label=""
       inkscape:color="rgb(0,134,229)" /></sodipodi:namedview><defs
     id="defs1" /><g
     inkscape:label="Layer 1"
     inkscape:groupmode="layer"
     id="layer1"><path
       id="path8"
       style="fill:none;stroke:#ffffff;stroke-width:0.999997;stroke-linecap:round;stroke-linejoin:round;paint-order:stroke fill markers"
       d="m 24,2 c -12.150265,1.1e-6 -22,9.849736 -22,22 0,12.150264 9.849735,21.999999 22,22 2.018713,-1.52e-4 4.027799,-0.278151 5.970703,-0.826172 -2.480019,-0.46427 -6.624139,-15.721044 -4.826172,-22.033203 -1.053962,0.04057 -2.077322,0.247825 -3.068359,0.666016 l -10.582031,9.933593 c -2.4392729,-4.76632 3.478406,-9.475235 6.904297,-14.123046 0.429462,-0.582638 1.053584,-1.165176 1.375,-1.75 -0.947138,-1.610201 1.281163,-3.580641 3.214843,-5.527344 0.959213,-0.965672 1.529514,-2.5516451 2.837891,-3.3222659 C 27.03522,8.3054584 28.560545,8.0661909 30.419922,8.8164062 30.999487,8.6638878 32.397113,6.633307 31.990234,8.75 33.035625,7.9518444 36.658653,7.4252006 34.927734,8.5507812 36.836157,7.7245978 37.667798,8.6879662 38.570312,7.5175781 34.549188,3.962642 29.367216,2.0002998 24,2 Z"
       sodipodi:nodetypes="cscccccscssccccc" /><circle
       style="fill:#ffffff;fill-opacity:1;stroke:none;stroke-width:0.937308;stroke-linecap:round;stroke-linejoin:round;stroke-dasharray:none;stroke-opacity:1;paint-order:stroke fill markers"
       id="path3"
       cx="25.725431"
       cy="16.187939"
       r="1.5" /></g></svg>
