<?xml version="1.0" encoding="UTF-8"?><svg id="b" xmlns="http://www.w3.org/2000/svg" viewBox="0 0 48 48"><defs><style>.q{fill:none;stroke:#fff;stroke-linecap:round;stroke-linejoin:round;}</style></defs><g id="d"><path id="e" class="q" d="M35,6H6v29l7,7h29V13l-7-7Z"/><g id="f"><g id="g"><path id="h" class="q" d="M17.1985,14.7138c1.3867,0,2.511,1.1193,2.511,2.5001s-1.1242,2.5001-2.511,2.5001h-4.1431v-10.0004h4.1431c1.3867,0,2.511,1.1193,2.511,2.5001s-1.1242,2.5001-2.511,2.5001Z"/><line id="i" class="q" x1="17.1985" y1="14.7138" x2="13.0554" y2="14.7138"/></g><polyline id="j" class="q" points="21.2905 9.7135 27.9445 9.7135 21.2905 19.714 27.9445 19.714"/><g id="k"><line id="l" class="q" x1="13.0554" y1="26.284" x2="16.3197" y2="26.284"/><polyline id="m" class="q" points="13.0554 31.2843 13.0554 21.2838 18.0773 21.2838"/></g><path id="n" class="q" d="M19.6573,31.2854v-10.0004h2.2599c2.4268,0,4.3942,1.9588,4.3942,4.3752v1.2501c0,2.4164-1.9673,4.3752-4.3942,4.3752h-2.2599Z"/></g></g></svg>