<?xml version="1.0" encoding="UTF-8"?>
<svg id="a" version="1.1" viewBox="0 0 48 48" xmlns="http://www.w3.org/2000/svg">
 <defs>
  <style>.m{fill:none;stroke:#fff;stroke-linecap:round;stroke-linejoin:round;}</style>
 </defs>
 <path id="c" class="m" d="m9.4994 42.501h29.001c2.2001 0 4.0002-1.8001 4.0002-4.0002v-29.001c0-2.2001-1.8001-4.0002-4.0002-4.0002h-29.001c-2.2001 0-4.0002 1.8001-4.0002 4.0002v29.001c0 2.2001 1.8001 4.0002 4.0002 4.0002z"/>
 <path id="d" class="m" d="m21.726 5.5-0.8361 1.4939h-3.2465l-1.5809 2.7382 1.4796 2.5627h3.2232l1.6401 2.8408h3.1345l1.5389 2.6655-1.5971 2.7663h-3.15l-1.6648 2.8836 1.573 2.7246-1.4296 2.4762h-3.3005l-1.7572 3.0436h-2.8388l-1.6222-2.8097h-3.2669l-1.5538 2.6912h-0.9703"/>
 <path id="e" class="m" d="m15.752 31.695 1.6385 2.8379h3.5101l1.6012 2.7733-1.6106 2.7896 1.3482 2.399"/>
 <path id="f" class="m" d="m20.81 28.652 1.6134 2.7946h3.0034l1.7684 3.063-1.6442 2.8479-3.0491-0.0507"/>
 <path id="g" class="m" d="m22.239 26.176h3.3863l1.6833-2.9156h2.9257l1.6217-2.8089h3.1562l1.5658-2.712h3.387l2.5336-4.4257"/>
 <path id="h" class="m" d="m27.195 34.509h2.8345l1.6925-2.9316h3.3962l1.6586-2.8728h3.6191l2.104-3.6857"/>
 <path id="i" class="m" d="m40.396 28.705 1.7764 3.0768-1.9529 2.4549 1.8901 3.0379"/>
 <path id="j" class="m" d="m25.481 20.568 1.8278 2.6926"/>
 <path id="k" class="m" d="m25.551 37.357 1.5406 2.6683h3.0377l1.8165-3.1462h3.1221l1.7093 2.9606-1.4987 2.6553"/>
 <path id="l" class="m" d="m36.777 39.84h3.1146l2.2182-2.5653"/>
</svg>
