<svg xmlns="http://www.w3.org/2000/svg" viewBox="0 0 48 48"><path d="M40.326 31.743a18.502 18.502 0 0 0 1.089-6.278c0-6.228-3.06-11.718-7.714-14.958-.469 1.077-.797 1.888-2.14 2.765-.127-5.416-4.298-6.537-7.38-8.772.496 3.098-.506 6.555-3.092 7.622h0c-1.32-1.192-1.553-2.807-1.204-4.824-2.629 2.111-5.467 4.813-5.429 9.321-1.243.127-2.177-.399-2.655-2.07-2.979 2.196-5.22 7.656-5.216 10.916.013 9.96 7.686 18.035 17.343 18.035 2.963 0 5.755-.76 8.2-2.102" class="t" style="display:inline;fill:none;stroke:#fff;stroke-linecap:round;stroke-linejoin:round"/><path d="M15.899 23.168c.758 1.625 1.552 3.373 1.707 5.306M15.61 18.181c-.79.324-1.248 1-.926 2.071.224.743.56 1.507.928 2.3M28.716 27.482a15.095 15.095 0 0 0-4.323-.626c-1.642 0-3.218.26-4.676.736a24.6 24.6 0 0 0 .329-2.753M27.93 24.846c.291.879.523 1.727.786 2.636M35.574 32.142c-1.2-1.605-2.837-2.927-4.754-3.847.365-1.116.545-2.279.585-3.452M11.087 37.648c.33-3.933 2.873-7.291 6.519-9.174M31.361 32.214l-5.64 1.334c.03 1.45 2.762 2.004 3.499 1.15l2.141-2.484h0M16.5 32.061l5.64 1.335c-.03 1.45-2.761 2.004-3.498 1.15L16.5 32.06h0M25.225 22.715v-8h1.8a3.5 3.5 0 0 1 3.5 3.5v1a3.5 3.5 0 0 1-3.5 3.5h-1.8 0M17.476 22.04c.552.463 1.148.675 2.488.675h.312a2 2 0 0 0 1.999-2h0a2 2 0 0 0-2-2" class="t" style="display:inline;fill:none;stroke:#fff;stroke-linecap:round;stroke-linejoin:round"/><path d="M17.475 15.383c.553-.462 1.15-.672 2.49-.668l.31.001a2 2 0 0 1 2 2h0a2 2 0 0 1-2 2M18.739 18.715h1.537" class="t" style="display:inline;fill:none;stroke:#fff;stroke-linecap:round;stroke-linejoin:round"/><path d="M36.5 34.5v8h4m5-4a7 7 0 0 1-7 7 7 7 0 0 1-7-7 7 7 0 0 1 7-7 7 7 0 0 1 7 7z" class="t" style="fill:none;stroke:#fff;stroke-linecap:round;stroke-linejoin:round"/></svg>