<svg xmlns="http://www.w3.org/2000/svg" viewBox="0 0 48 48"><path d="M18.739 18.715h1.536m-2.8-3.332c.553-.462 1.15-.672 2.49-.668l.31.001a2 2 0 0 1 2 2v0a2 2 0 0 1-2 2m-2.8 3.324c.553.463 1.15.675 2.488.675h.312a2 2 0 0 0 2-2v0a2 2 0 0 0-2-2m4.95 4v-8h1.8a3.5 3.5 0 0 1 3.5 3.5v1a3.5 3.5 0 0 1-3.5 3.5zM16.5 32.06l5.64 1.335c-.03 1.45-2.761 2.004-3.498 1.15L16.5 32.06v0m14.861.153-5.64 1.334c.03 1.45 2.762 2.004 3.499 1.15l2.141-2.484v0m-20.274 5.434c.33-3.933 2.873-7.291 6.519-9.174M37.58 36.73c-.648-3.683-3.23-6.74-6.76-8.436.364-1.116.544-2.279.584-3.452m-3.476.003c.292.879.524 1.727.787 2.636m0 0a15.095 15.095 0 0 0-4.323-.626c-1.642 0-3.218.26-4.676.736a24.6 24.6 0 0 0 .329-2.753m-4.437-6.658c-.789.324-1.247 1-.925 2.071.224.743.56 1.507.928 2.3m.287.616c.758 1.625 1.552 3.373 1.707 5.306m3.483-16.352c-1.32-1.192-1.553-2.807-1.204-4.824-2.629 2.111-5.467 4.813-5.429 9.321-1.243.127-2.177-.399-2.655-2.07-2.979 2.196-5.22 7.656-5.216 10.916.013 9.96 7.686 18.035 17.343 18.035 9.658 0 17.487-8.075 17.487-18.035 0-6.228-3.06-11.718-7.714-14.958-.469 1.077-.797 1.888-2.14 2.765-.127-5.416-4.298-6.537-7.38-8.772.496 3.098-.506 6.555-3.092 7.622v0" class="t" style="display:inline;fill:none;stroke:#fff;stroke-linecap:round;stroke-linejoin:round"/></svg>