<?xml version="1.0" encoding="UTF-8"?><svg id="b" xmlns="http://www.w3.org/2000/svg" viewBox="0 0 48 48"><defs><style>.f{fill:none;stroke:#fff;stroke-linecap:round;stroke-linejoin:round;}</style></defs><path class="f" d="M33,16.7546h6.5c2.2,0,4,1.8,4,4v17.5c0,2.2-1.8,4-4,4H8.5c-2.2,0-4-1.8-4-4v-17.5c0-2.2,1.8-4,4-4h6.5"/><rect class="f" x="8.4965" y="20.753" width="4" height="4" rx=".6" ry=".6"/><rect class="f" x="15.2465" y="20.753" width="4" height="4" rx=".6" ry=".6"/><rect class="f" x="21.9965" y="20.753" width="4" height="4" rx=".6" ry=".6"/><rect class="f" x="28.7465" y="20.753" width="4" height="4" rx=".6" ry=".6"/><rect class="f" x="35.4965" y="20.753" width="4" height="4" rx=".6" ry=".6"/><rect class="f" x="8.4965" y="27.503" width="4" height="4" rx=".6" ry=".6"/><rect class="f" x="15.2465" y="27.503" width="4" height="4" rx=".6" ry=".6"/><rect class="f" x="21.9965" y="27.503" width="4" height="4" rx=".6" ry=".6"/><rect class="f" x="28.7465" y="27.503" width="4" height="4" rx=".6" ry=".6"/><rect class="f" x="35.4965" y="27.503" width="4" height="4" rx=".6" ry=".6"/><rect class="f" x="8.4965" y="34.253" width="4" height="4" rx=".6" ry=".6"/><rect class="f" x="15.2465" y="34.253" width="17.5" height="4" rx=".6" ry=".6"/><rect class="f" x="35.4965" y="34.253" width="4" height="4" rx=".6" ry=".6"/><rect class="f" x="14.9965" y="5.7454" width="18" height="13" rx="2" ry="2"/><line class="f" x1="14.9965" y1="15.6961" x2="32.9965" y2="15.6961"/><line class="f" x1="14.9965" y1="8.7947" x2="32.9965" y2="8.7947"/><circle class="f" cx="19.9431" cy="12.2454" r="1.3063"/></svg>