<?xml version="1.0" encoding="UTF-8"?>
<svg xmlns="http://www.w3.org/2000/svg" viewBox="0 0 48 48">
   <defs>
      <style>
         .c {
            fill: none;
            stroke: #fff;
            stroke-linecap: round;
            stroke-linejoin: round;
         }
      </style>
   </defs>
   <path class="c"
      d="m 32.870705,13.526712 c -0.602509,-1.814145 1.191885,-5.1770722 3.605844,-2.916257 l 2.788459,2.777291 m -2.557952,-3.343794" />
   <path class="c" d="m 28.232262,15.402617 4.543222,4.543221" />
   <path class="c"
      d="m 29.716663,16.83113 c -0.602509,-1.814145 1.191885,-5.177072 3.605844,-2.916257 l 2.788459,2.777291 M 33.553014,13.34837" />
   <path class="c" d="m 25.654524,18.069982 4.543222,4.543221" />
   <path class="c" d="m 7.9401497,35.564927 4.5432223,4.543221" />
   <path class="c" d="m 10.410342,33.098895 4.543222,4.543221" />
   <circle class="c" cx="7.9368749" cy="40.069832" r="2.8714285" />
   <path class="c"
      d="m 11.894743,34.527408 c -0.602509,-1.814145 1.425736,-5.412198 3.839695,-3.151383 l 2.815407,2.815407" />
   <ellipse class="c" cx="24.001148" cy="16.376154" rx="0.8192386" ry="0.80140918" />
   <path class="c" d="m 15.64901,28.011494 6.391253,2.44841 c 0.683509,1.487341 1.068978,3.12145 0.255621,3.955921" />
   <path class="c" d="m 19.452977,24.211048 2.83406,6.845817" />
   <path class="c"
      d="m 27.796384,24.620248 c -1.561806,1.867257 -1.926084,0.901313 -6.766045,-4.143853 l 0.655419,2.442435 2.319867,-2.276551" />
   <path class="c"
      d="M 44.206403,7.2656026 A 3.0998435,2.9260628 0 0 1 41.73168,10.13155 3.0998435,2.9260628 0 0 1 38.258842,8.4215071 3.0998435,2.9260628 0 0 1 39.332888,4.8658588 3.0998435,2.9260628 0 0 1 43.238913,5.1418246" />
   <path class="c" d="M 43.104317,5.3287312 38.98103,9.2977916" />
</svg>