<?xml version="1.0" encoding="UTF-8"?><svg id="a" xmlns="http://www.w3.org/2000/svg" viewBox="0 0 48 48"><defs><style>.d{fill:none;stroke:#fff;stroke-linecap:round;stroke-linejoin:round;}</style></defs><path class="d" d="m9.5 5.5c-2.216 0-4 1.784-4 4v29c0 2.216 1.784 4 4 4h5.7246l1.291-4.8164c.45783-1.7098 2.0073-2.8988 3.7773-2.8984h4.9355c.56491 2.8e-5 1.0346-.43481 1.0781-.99805l.16602-2.1152-6.6055-1.9316c-.92857-.27083-1.4613-1.2436-1.1895-2.1719.10137-.33204.29922-.62642.56836-.8457l-1.6016-5.6836c-.15912-.56469.08857-1.165.59961-1.4531l2.3418-1.3184c.13952-.07854.29946-.11325.45898-.09961.32679.02743.60346.25217.69727.56641l1.6562 5.5801c.16761.56451-.06773 1.1709-.57227 1.4746l-1.3086.78711 5.2344 1.5312.30859-3.9473c.15461-1.9694 1.798-3.4886 3.7734-3.4883h1.248c1.9551-.000469 3.5619 1.5426 3.6406 3.4961l.48242 12.084c.07676 1.9084-1.4494 3.4976-3.3594 3.498h-7.3457c-1.1046 0-2 .89543-2 2v.75h15c2.216 0 4-1.784 4-4v-29c0-2.216-1.784-4-4-4z"/><path class="d" d="m31 9c-2.7614 0-5 2.2386-5 5 0 .436.04617.82879.15877 1.25h2.6762s-.18725 1.3666-1.7983 1.7983c.94422 1.2596 2.3891 1.9517 3.9633 1.9517 2.7614 0 5-2.2386 5-5s-2.2386-5-5-5z"/></svg>
