<?xml version="1.0" encoding="UTF-8"?>
<svg id="a" version="1.1" viewBox="0 0 48 48" xmlns="http://www.w3.org/2000/svg"><defs><style>.e{fill:none;stroke:#000;stroke-linecap:round;stroke-linejoin:round;}</style></defs><path class="e" d="m14.165 22.461c0-0.63743 0.51681-1.1542 1.1542-1.1542h3.078c0.63743 0 1.1542 0.51681 1.1542 1.1542v3.078c0 0.63743-0.51681 1.1542-1.1542 1.1542h-3.078c-0.63743 0-1.1542-0.51681-1.1542-1.1542z"/><path class="e" d="m13.588 14.766c0-0.63743 0.51681-1.1542 1.1542-1.1542h3.078c0.63743 0 1.1542 0.51681 1.1542 1.1542v3.078c0 0.63743-0.51681 1.1542-1.1542 1.1542h-3.078c-0.63743 0-1.1542-0.51681-1.1542-1.1542z"/><path class="e" d="m4.1621 24c0-1.4874 1.2058-2.6932 2.6932-2.6932h3.078c1.4874 0 2.6932 1.2058 2.6932 2.6932s-1.2058 2.6932-2.6932 2.6932h-3.078c-1.4874 0-2.6932-1.2058-2.6932-2.6932z"/><path class="e" d="m43.604 24.553c0.3126-0.30241 0.3126-0.80373 0-1.1061l-13.493-13.052c-0.24412-0.23614-0.65224-0.0631-0.65224 0.27654v10.635h-7.214c-0.63743 0-1.1542 0.51681-1.1542 1.1542v3.078c0 0.63743 0.51681 1.1542 1.1542 1.1542h7.214v10.635c0 0.33963 0.40812 0.51267 0.65224 0.27654z"/><path class="e" d="m8.8393 30.27h5.0081"/><path class="e" d="m15.841 30.27h10.186"/><path class="e" d="m20.923 17.874h6.7458"/><path class="e" d="m16.086 33.326c0-0.4098 0.33225-0.74202 0.74202-0.74202h1.9788c0.4098 0 0.74202 0.33225 0.74202 0.74202v1.9788c0 0.4098-0.33225 0.74202-0.74202 0.74202h-1.9788c-0.4098 0-0.74202-0.33225-0.74202-0.74202z"/><path class="e" d="m22.112 33.263c0-0.4098 0.33225-0.74202 0.74202-0.74202h1.9788c0.4098 0 0.74202 0.33225 0.74202 0.74202v1.9788c0 0.4098-0.33225 0.74202-0.74202 0.74202h-1.9788c-0.4098 0-0.74202-0.33225-0.74202-0.74202z"/><path class="e" d="m21.122 12.589c0-0.4098 0.33225-0.74202 0.74202-0.74202h1.9788c0.4098 0 0.74202 0.33225 0.74202 0.74202v1.9788c0 0.4098-0.33225 0.74202-0.74202 0.74202h-1.9788c-0.4098 0-0.74202-0.33225-0.74202-0.74202z"/><circle class="e" cx="39.994" cy="34.388" r="2"/></svg>
