<?xml version="1.0" encoding="UTF-8" standalone="no"?>
<svg
   viewBox="0 0 48 48"
   version="1.1"
   id="svg1"
   xml:space="preserve"
   xmlns="http://www.w3.org/2000/svg"
   xmlns:svg="http://www.w3.org/2000/svg"><defs
     id="defs1"><style
       id="style1">.a{fill:none;stroke:#fff;stroke-linecap:round;stroke-linejoin:round;}</style></defs><path
     style="opacity:1;fill:none;stroke:#ffffff;stroke-width:1;stroke-linecap:round;stroke-linejoin:round;stroke-dashoffset:0.5"
     d="m 11.522668,21.690751 0.108973,9.852241 c 0.04425,4.000054 6.876115,10.913972 12.572683,10.956829 5.696568,0.04286 12.273008,-7.841844 12.273008,-11.310639 v -9.58008 c -2.621311,-1.781941 -6.858381,-3.59961 -12.312779,-3.672423 -5.454398,-0.07281 -7.945522,0.751255 -12.641885,3.754072 z"
     id="path2" /><path
     style="opacity:1;fill:none;stroke:#ffffff;stroke-width:1;stroke-linecap:round;stroke-linejoin:round;stroke-dashoffset:0.5"
     d="m 15.389181,19.49705 c 0,0 -0.01898,-3.840047 0,-5.760038 0.05024,-5.0821304 4.502129,-8.2710829 8.610821,-8.2367383 4.382477,0.036634 8.439496,3.170241 8.59928,8.1982483 v 2.424835"
     id="path3" /><path
     style="opacity:1;fill:none;stroke:#ffffff;stroke-width:1;stroke-linecap:round;stroke-linejoin:round;stroke-dashoffset:0.5"
     id="path4"
     d="m 23.430412,29.184167 a 1.8341974,1.8323832 0 0 1 -1.178999,-2.040067 1.8341974,1.8323832 0 0 1 1.806332,-1.514193 1.8341974,1.8323832 0 0 1 1.806332,1.514193 1.8341974,1.8323832 0 0 1 -1.179,2.040067" /><path
     style="opacity:1;fill:none;stroke:#ffffff;stroke-width:1;stroke-linecap:round;stroke-linejoin:round;stroke-dashoffset:0.5"
     d="m 24.685077,29.184167 1.133357,6.029946 h -3.544533 l 1.156511,-6.029946"
     id="path5" /></svg>
