<?xml version="1.0" encoding="UTF-8"?><svg id="a" xmlns="http://www.w3.org/2000/svg" viewBox="0 0 48 48"><defs><style>.d{fill:none;stroke:#fff;stroke-linecap:round;stroke-linejoin:round;}</style></defs><path class="d" d="m9.4081 6.0175a3.8613 3.8638 0 0 0-1.9305 3.3446v29.277a3.8613 3.8638 0 0 0 5.7914 3.3446l25.338-14.637a3.8613 3.8638 0 0 0 0-6.693l-25.338-14.637a3.8613 3.8638 0 0 0-3.861 0z"/><path class="d" d="m28.954 24.001-21.367 12.343"/><path class="d" d="m9.4081 6.0175a3.8613 3.8638 0 0 0-1.9305 3.3446v29.277a3.8613 3.8638 0 0 0 5.7914 3.3446l25.338-14.637a3.8613 3.8638 0 0 0 0-6.693l-25.338-14.637a3.8613 3.8638 0 0 0-3.861 0z"/><path class="d" d="m15.2 16.055 21.477 12.406"/><path class="d" d="m15.2 31.946v-24.814"/><path class="d" d="m15.09 29.444-7.6125 4.3975"/><path class="d" d="m15.09 23.324-7.6125 4.3975"/><path class="d" d="m15.09 17.204-7.6125 4.3975"/><path class="d" d="m15.09 11.085-7.6125 4.3975"/><path class="d" d="m13.269 6.0169-5.7911 3.3453"/><path class="d" d="m24.899 26.343c2.0519 1.5034 3.5241 3.5993 4.229 6.4795"/></svg>
