<svg xmlns="http://www.w3.org/2000/svg" xml:space="preserve" width="48" height="48" viewBox="0 0 12.7 12.7"><path fill="none" stroke="#fff" stroke-linecap="round" stroke-linejoin="round" stroke-width=".265" d="M8.502 7.115c.282-.472.507-1.045-.262-1.073l-3.414-.12c-3.35-.12-3.9-.816-2.334-2.094C4.67 2.052 7.083 1.372 10.191 1.19c-1.796.703-3.732 1.779-4.594 2.67-.535.555-.283.89.73.917 2.534.065 3.858 1.073 2.175 2.337zm-1.294-2.59c3.073-.594 5.603 1.805 2.248 3.382-2.022.951-3.733 1.579-4.425 3.603.311-1.72.905-2.79 2.857-3.73C9.33 7.085 9.976 6.519 9.71 5.635c-.268-.892-1.495-1.01-2.502-1.11z"/></svg>
