<svg id="a" version="1.1" viewBox="0 0 48 48" xmlns="http://www.w3.org/2000/svg"><defs><style>.b{fill:none;stroke:#fff;stroke-linecap:round;stroke-linejoin:round;}</style></defs><path class="b" d="m13.1676,18.573h-5.5276c-1.1476,0-2.0778.9302-2.0779,2.0778v19.7714c0,1.1476.9303,2.0778,2.0779,2.0778h32.72c1.1476,0,2.0778-.9302,2.0779-2.0778v-19.7714c0-1.1476-.9303-2.0778-2.0779-2.0778h-5.284"/><rect class="b" x="14.1" y="35.763" width="20.044" height="3.327" rx=".4208" ry=".4208"/><rect class="b" x="10.733" y="29.78" width="3.3663" height="3.3663" rx=".4208" ry=".4208"/><rect class="b" x="16.586" y="29.78" width="3.3663" height="3.3663" rx=".4208" ry=".4208"/><path class="b" d="m25.8051,30.3553v2.37c0,.2324-.1884.4208-.4208.4208h-2.5243c-.2323,0-.4207-.1884-.4207-.4207h0v-2.3701"/><rect class="b" x="28.292" y="29.78" width="3.3663" height="3.3663" rx=".4208" ry=".4208"/><rect class="b" x="34.144" y="29.78" width="3.3663" height="3.3663" rx=".4208" ry=".4208"/><rect class="b" x="10.733" y="23.796" width="3.3663" height="3.3663" rx=".4208" ry=".4208"/><path class="b" d="m18.2755,27.1628h-1.2687c-.2324,0-.4208-.1884-.4208-.4208v-.8747"/><path class="b" d="m31.6578,25.8673v.8747c0,.2324-.1884.4208-.4208.4208h-1.2687"/><rect class="b" x="34.144" y="23.796" width="3.3663" height="3.3663" rx=".4208" ry=".4208"/><path class="b" d="m34.2525,23.8775l-10.1306,7.7685-10.1306-7.7685c-.5194-.3982-.8239-1.0155-.8237-1.67V7.1832c0-.9296.7536-1.6832,1.6832-1.6832h18.5422c.9296,0,1.6832.7536,1.6832,1.6832h0v15.0248c0,.6543-.3044,1.2714-.8237,1.6695Z"/><g transform="matrix(.9301 0 0 .9242 52.288 -2.1135)" fill="none" stroke="#fff" stroke-linecap="round" stroke-linejoin="round"><g transform="matrix(.86545 0 0 .85576 -119.04 -4.2251)" stroke-width="1.2533"><path class="t" d="m99.777 27.793c0-1.1046 0.8954-2 2-2"/><line class="t" x1="99.777" x2="99.777" y1="25.793" y2="31.093"/></g><g transform="matrix(.86545 0 0 .85576 -132.67 -4.2251)" stroke-width="1.2533"><path class="t" d="m120.78 24.143v5.95c0 0.5523 0.4477 1 1 1h0.3"/><line class="t" x1="119.73" x2="121.83" y1="25.793" y2="25.793"/></g><path class="t" d="m-21.875 21.519c-0.29815 0.51594-0.86 0.86371-1.504 0.86371-0.95598 0-1.7309-0.76624-1.7309-1.7115v-1.1125c0-0.94527 0.77493-1.7115 1.7309-1.7115 0.95598 0 1.7309 0.76624 1.7309 1.7115v0.55624h-3.4618" stroke-width="1.0786"/><g transform="matrix(.86545 0 0 .85576 23.026 9.467)" stroke-width="1.2533"><line class="t" x1="-67.451" x2="-70.996" y1="12.443" y2="12.443"/><polyline class="t" transform="translate(-159.06 -33.557)" points="87.184 48.65 89.834 40.65 92.484 48.65"/></g></g></svg>
