<svg xmlns="http://www.w3.org/2000/svg" id="Layer_1" data-name="Layer 1" viewBox="0 0 48 48">
  <defs>
    <style>
      .cls-2{fill:none;stroke:#fff;stroke-linecap:round;stroke-linejoin:round}
    </style>
  </defs>
  <path d="M13.48 23.71c0-.75.61-1.35 1.35-1.35h0M13.48 22.36v3.58M34.47 23.71c0-.75.61-1.35 1.35-1.35h0M34.47 22.36v3.58" class="cls-2"/>
  <circle cx="31.54" cy="20.7" r=".47" style="fill:#fff"/>
  <path d="M31.54 22.36v3.58M21.18 25.64c.25.21.51.3 1.11.3h.3c.49 0 .89-.4.89-.9h0a.9.9 0 0 0-.89-.9h-.61c-.49 0-.89-.4-.89-.9h0c0-.49.4-.9.89-.9h.3c.6 0 .87.09 1.11.3M17.88 21.25v4.02c0 .37.3.68.68.68h.2M17.17 22.36h1.42M40.7 24.59c0 .75-.61 1.35-1.35 1.35h0c-.75 0-1.35-.61-1.35-1.35v-.88c0-.75.61-1.35 1.35-1.35h0c.75 0 1.35.61 1.35 1.35M40.7 25.94v-3.58M26.18 24.59c0 .75.61 1.35 1.35 1.35h0c.75 0 1.35-.61 1.35-1.35v-.88c0-.75-.61-1.35-1.35-1.35h0c-.75 0-1.35.61-1.35 1.35M26.18 22.36v5.41M10.28 24.15H7.89M7.3 25.94l1.79-5.4 1.79 5.4" class="cls-2"/>
</svg>
