<?xml version="1.0" encoding="UTF-8"?>
<svg id="Layer_1" xmlns="http://www.w3.org/2000/svg" version="1.1" viewBox="0 0 48 48">
  <!-- Generator: Adobe Illustrator 29.0.1, SVG Export Plug-In . SVG Version: 2.1.0 Build 192)  -->
  <defs>
    <style>
      .st0 {
        fill: #fff;
      }

      .st1 {
        fill: none;
        stroke: #fff;
        stroke-linecap: round;
        stroke-linejoin: round;
      }
    </style>
  </defs>
  <path class="st1" d="M12.3,23.7c0-.8.7-1.5,1.5-1.5h0M12.3,22.2v4M35.6,23.7c0-.8.7-1.5,1.5-1.5h0M35.6,22.2v4"/>
  <circle class="st0" cx="32.4" cy="20.3" r=".5"/>
  <path class="st1" d="M32.4,22.2v4M20.9,25.8c.3.2.6.3,1.2.3h.3c.5,0,1-.4,1-1h0c0-.5-.4-1-1-1h-.7c-.5,0-1-.4-1-1h0c0-.5.4-1,1-1h.3c.7,0,1,0,1.2.3M17.2,21v4.5c0,.4.3.8.8.8h.2M16.4,22.2h1.6M42.5,24.7c0,.8-.7,1.5-1.5,1.5h0c-.8,0-1.5-.7-1.5-1.5v-1c0-.8.7-1.5,1.5-1.5h0c.8,0,1.5.7,1.5,1.5M42.5,26.1v-4M26.4,24.7c0,.8.7,1.5,1.5,1.5h0c.8,0,1.5-.7,1.5-1.5v-1c0-.8-.7-1.5-1.5-1.5h0c-.8,0-1.5.7-1.5,1.5M26.4,22.2v6M8.8,24.2h-2.6M5.5,26.1l2-6,2,6"/>
</svg>