<?xml version="1.0" encoding="UTF-8"?><svg id="a" xmlns="http://www.w3.org/2000/svg" viewBox="0 0 48 48"><defs><style>.d{fill:none;stroke:#fff;stroke-linecap:round;stroke-linejoin:round;}</style></defs><circle class="d" cx="24.392" cy="9" r="3.5"/><circle class="d" cx="9" cy="24" r="3.5"/><circle class="d" cx="24.392" cy="24" r="3.5"/><circle class="d" cx="39" cy="24" r="3.5"/><circle class="d" cx="9" cy="39" r="3.5"/><circle class="d" cx="39" cy="39" r="3.5"/><circle class="d" cx="9" cy="9" r="3.5"/><circle class="d" cx="39" cy="9" r="3.5"/><path class="d" d="m12.5 31.5v11"/><circle class="d" cx="18.895" cy="39" r="3.5"/><path class="d" d="m22.395 35.5v7"/><path class="d" d="m25.29 35.5v7"/><path class="d" d="m28.318 41.733c0.40907 0.55886 0.92195 0.76694 1.6355 0.76694h0.98757c0.91903 0 1.664-0.78181 1.664-1.7462v-0.0075c0-0.96442-0.74501-1.7462-1.664-1.7462h-1.0894c-0.92003 0-1.6658-0.78269-1.6658-1.7481 0-0.96757 0.74743-1.7519 1.6695-1.7519h0.98215c0.71358 0 1.2265 0.20816 1.6355 0.76694"/></svg>
