<?xml version="1.0" encoding="UTF-8"?>
<svg width="48" height="48" version="1.1" viewBox="0 0 12.7 12.7" xmlns="http://www.w3.org/2000/svg"><defs><style>.a{fill:none;stroke:#fff;stroke-linecap:round;stroke-linejoin:round;}</style></defs><path class="a" d="m10.716 1.4552h-8.7312a0.52917 0.52917 0 0 0-0.52917 0.52917v8.7313a0.52917 0.52917 0 0 0 0.52917 0.52917h8.7312a0.52917 0.52917 0 0 0 0.52917-0.52917v-8.7313a0.52917 0.52917 0 0 0-0.52917-0.52917z" stroke-width=".26458"/><path d="m1.4591 6.35h9.7678" fill="none" stroke="#fff" stroke-linecap="round" stroke-linejoin="round" stroke-width=".26458"/><g transform="translate(0 -.20013)" fill="none" stroke="#fff" stroke-linecap="round" stroke-linejoin="round"><path class="t" d="m3.3393 10.214v-2.7207h0.87961c0.4973 0 0.90043 0.40909 0.90043 0.91371 0 0.50462-0.40313 0.91371-0.90043 0.91371h-0.87961" stroke-width=".26458"/><g transform="matrix(.33586 0 0 .34009 -23.821 -6.3313)" stroke-width=".78287"><line class="t" x1="91.606" x2="88.062" y1="46" y2="46"/><polyline class="t" points="87.184 48.65 89.834 40.65 92.484 48.65"/></g><g transform="matrix(.33586 0 0 .34009 -102.31 -6.3313)" stroke-width=".78287"><polyline class="t" points="332.48 40.65 329.83 44.65 327.18 40.65"/><line class="t" x1="329.83" x2="329.83" y1="48.65" y2="44.65"/></g></g><g transform="translate(.10653)" fill="none" stroke="#fff" stroke-linecap="round" stroke-linejoin="round" stroke-width=".26458"><path d="m5.6775 2.8294-0.53621 1.992s-0.18456 0.56922 0.31193 0.56922c0.57354 0 0.9144-1.0237 0.9144-1.0237"/><path d="m6.7855 2.8294-0.41791 1.5375s-0.32525 1.0134 0.40963 1.0134c0.86441 0 1.1-1.0933 1.1-1.0933"/><path d="m8.2736 2.8294-0.53621 1.992s-0.07803 0.53785 0.29926 0.52946c0.50712-0.011277 0.91991-0.98525 0.91991-0.98525"/><path d="m5.6775 2.8294s-1.7949-0.27659-2.1657 1.6152c-0.32747 1.6706 1.3883 0.66141 1.6295 0.37678"/></g></svg>
