<?xml version="1.0" encoding="UTF-8"?><svg id="b" xmlns="http://www.w3.org/2000/svg" viewBox="0 0 48 48"><defs><style>.d{fill:none;stroke:#fff;stroke-linecap:round;stroke-linejoin:round;}</style></defs><path class="d" d="m28.061 20.652-1.4401 5.2366s-0.49565 1.4964 0.83774 1.4964c1.5404 0 2.4559-2.6911 2.4559-2.6911"/><path class="d" d="m31.037 20.652-1.1224 4.0418s-0.87355 2.6641 1.1002 2.6641c2.3216 0 2.9544-2.8741 2.9544-2.8741"/><path class="d" d="m35.034 20.652-1.4401 5.2366s-0.20956 1.4139 0.80377 1.3918c1.362-0.02963 2.4706-2.59 2.4706-2.59"/><path class="d" d="m28.061 20.652s-4.8207-0.72712-5.8165 4.2461c-0.87952 4.3917 3.7286 1.7387 4.3764 0.99052"/><path class="d" d="m16.5 11h25c0.554 0 1 0.446 1 1v24c0 0.554-0.446 1-1 1h-25z"/><path class="d" d="m16.5 11-9.5-5.5v37l9.5-5.5"/><path class="d" d="m9.5 20v8"/><path class="d" d="m7 5.5h-1.5v37h1.5"/></svg>
