<svg xmlns="http://www.w3.org/2000/svg" xml:space="preserve" width="48" height="48"><g fill="none"><path d="M37.84 25.66c-4.44-2.15-9.62-1.1-13.84.54m-13.84-.54c4.44-2.15 9.62-1.1 13.84.54" style="fill:#23727b;fill-opacity:0;stroke:#000;stroke-width:.264583;stroke-linecap:round;stroke-linejoin:round;stroke-dasharray:none;stroke-opacity:1"/><path d="M37.84 25.66c-4.44-2.15-9.62-1.1-13.84.54m-13.83-.54c4.43-2.15 9.62-1.1 13.84.54" style="fill:#23727b;fill-opacity:0;stroke:#000;stroke-width:.264583;stroke-linecap:round;stroke-linejoin:round;stroke-dasharray:none;stroke-opacity:1" transform="translate(0 -1.15)"/><ellipse cx="24.01" cy="14.1" rx="5.05" ry="4.71" style="fill:#23727b;fill-opacity:0;stroke:#000;stroke-width:.264583;stroke-dasharray:none;stroke-opacity:1"/><path d="M32.53 14.14a7.5 7.5 0 0 1-2.88 5.97c.66.64 2.6 1.4 2.93 2.25-.9-.06-4.24.6-5.26.84-2.22-1.3-4.57-1.01-6.67-.07-1.8-.38-4.37-.74-5.06-.71a36 36 0 0 1 2.72-2.27 7.4 7.4 0 0 1-2.83-6.01c0-4.43 3.82-8.02 8.53-8.02s8.5 3.6 8.52 8.02z" style="fill:#23727b;fill-opacity:0;stroke:#000;stroke-width:.264583;stroke-dasharray:none"/><path d="M24 41.93c6.75-2.41 8.8-1.25 11.85-.06.03-.4.02.02 1.95-15.35-4.43-2.15-9.58-1.11-13.8.52m0 14.9c-6.75-2.42-8.8-1.26-11.85-.07-.03-.4-.02.02-1.95-15.35 4.43-2.15 9.58-1.11 13.8.52" style="fill:#23727b;fill-opacity:0;stroke:#000;stroke-width:.264583;stroke-linecap:round;stroke-linejoin:round;stroke-dasharray:none;stroke-opacity:1"/></g></svg>