<svg width="48" height="48" version="1.1" viewBox="0 0 48 48" xml:space="preserve" xmlns="http://www.w3.org/2000/svg" xmlns:xlink="http://www.w3.org/1999/xlink"><g transform="translate(-4.773 93.703)"><polyline class="r" transform="translate(-57.834 -83.15)" points="97.834 25.739 99.834 24.65 99.834 32.65" fill="none" stroke="#fff" stroke-linecap="round" stroke-linejoin="round"/></g><g transform="translate(-15.471 93.703)"><polyline class="r" transform="translate(-57.834 -83.15)" points="97.834 25.739 99.834 24.65 99.834 32.65" fill="none" stroke="#fff" stroke-linecap="round" stroke-linejoin="round"/></g><g transform="translate(-70.711 44.353)"><line class="r" x1="100" x2="104" y1="-5.15" y2="-5.15" fill="none" stroke="#fff" stroke-linecap="round" stroke-linejoin="round"/></g><g transform="translate(-81.524 44.353)"><line class="r" x1="100" x2="104" y1="-5.15" y2="-5.15" fill="none" stroke="#fff" stroke-linecap="round" stroke-linejoin="round"/></g><g transform="translate(-48.437 93.703)" fill="none" stroke="#fff" stroke-linecap="round" stroke-linejoin="round"><path class="r" d="m59.601-51.175c0.55226 0.46275 1.1485 0.6748 2.4876 0.6748h0.31197c1.1043 0 1.9995-0.89522 1.9995-1.9995v-4e-6c0-1.1043-0.89523-1.9995-1.9995-1.9995"/><path class="r" d="m59.6-57.832c0.55349-0.46128 1.1503-0.67172 2.4894-0.66814l0.31107 0.0018c1.1043 0 1.9995 0.89522 1.9995 1.9995v4e-6c0 1.1043-0.89523 1.9995-1.9995 1.9995"/><line class="r" x1="60.863" x2="62.4" y1="-54.499" y2="-54.499"/></g><path d="m9.3936 26.668c1.1239 0 8.0167-1.7636 11.221-13.276 2.0629-7.4106 3.4894-9.4695 6.5606-9.4695 2.9758 0 4.2227 1.7144 6.3412 8.7182 1.6695 5.5196 2.8105 7.4616 4.8676 8.2846l1.0058 0.18145v2.5065c-1.6099-0.17965-1.2579-0.1266-2.1708-0.42529-2.6235-0.85838-4.5465-4.1499-6.1863-9.9503-2.6996-9.549-5.1493-9.3567-7.9323 0.62275-2.3324 8.3634-4.8753 10.022-8.3512 13.492-1.5202 1.5175-3.3804 1.8817-5.3558 1.9409zm27.874 2.319c-2.3815-0.31986-4.4134-1.4317-6.5091-3.5617l-1.8361-2.0003c-5.501-0.01565-0.38472-0.01788-5.8144 0 0.76022-1.8573 0.16274-0.41541 0.96066-2.2285 3.2328 0.0032 0.72954 0.0093 2.6677 3e-3 0.24387-7.96e-4 0.55806-0.0018 0.96283-3e-3 -0.89124-2.9116-0.89439-2.9776-1.8436-5.8195 0.47059-1.5455 0.86667-3.1095 1.2627-4.675 2.4678 8.5057 4.4032 14.78 10.141 15.711 1.2812 0.20776 1.258 0.23927 2.1306 0.29534v2.5212c-0.53992 0-2.1223-0.24224-2.1223-0.24237zm-27.94-7.938c2.2566-0.26871 3.2271-0.58701 5.4526-8.6812 1.476-5.3682 2.2277-6.8361 3.951-7.7153 0.87682-0.44732 0.88521-0.45061 1.7627-0.61491-0.50869 0.95189-0.38739 0.95054-0.92945 2.2485-0.51971 1.2444-1.486 3.7517-2.0762 5.9066-2.3281 8.5003-3.8624 10.94-7.11 11.306l-0.98433 0.12835z" fill="none" stroke="#fff"/></svg>
