<?xml version="1.0" encoding="UTF-8"?>
<!-- Created with Inkscape (http://www.inkscape.org/) -->
<svg width="48" height="48" version="1.1" viewBox="0 0 48 48" xml:space="preserve" xmlns="http://www.w3.org/2000/svg"><path d="m27.6 41.547c3.5514-0.76129 6.5937-2.4284 9.1171-4.9961 2.1321-2.1695 3.55-4.5724 4.4781-7.5887 0.463-1.5048 0.50595-1.9087 0.51268-4.8218 0.0064-2.7924-0.04578-3.3615-0.42913-4.6756-2.9004-9.9423-12.989-15.375-22.736-12.243-4.6511 1.4944-8.4676 4.8845-10.585 9.4021-1.8981 4.0504-2.1748 8.5492-0.79589 12.94 1.8793 5.9848 7.0061 10.603 13.26 11.944 1.6622 0.35644 5.597 0.37793 7.1772 0.03919zm-8.8836-4.191c-3.2079-1.2687-5.867-3.7277-7.4586-6.8973-0.57132-1.1378-0.62416-1.8382-0.15753-2.0879 0.43639-0.23355 4.4977-1.0844 5.9459-1.2457l1.1351-0.12642 0.76474 0.86879c1.384 1.5723 2.2952 4.7653 2.2952 8.0426 0 2.196-0.25675 2.343-2.5248 1.446zm8.608 0.22828c-0.29935-0.29935-0.32479-0.57725-0.22839-2.4953 0.16439-3.2708 1.1681-6.2649 2.535-7.5621 0.54369-0.51596 0.62559-0.53534 1.7678-0.41832 0.65871 0.06749 1.9881 0.29284 2.9543 0.5008 3.2784 0.70566 3.4282 0.82872 2.7981 2.2987-1.2779 2.9811-4.0358 5.7714-7.1397 7.2233-1.6439 0.76895-2.2661 0.87384-2.687 0.45295zm-17.305-14.847c-0.23512-0.43933 0.28022-2.8699 0.92874-4.3804 1.3569-3.1603 4.5637-6.2759 7.7417-7.5213 5.3967-2.1149 11.404-0.87351 15.509 3.2049 1.8468 1.8348 3.1317 4.109 3.7585 6.6521 0.61376 2.4903 0.4051 2.6506-2.5647 1.9701-4.0679-0.93208-6.0386-1.1332-11.066-1.1293-4.9243 0.0038-7.6595 0.28677-11.558 1.1958-2.0591 0.48011-2.4962 0.48141-2.7495 0.0081z" fill="none" stroke="#fff"/></svg>
