<svg xmlns="http://www.w3.org/2000/svg" xml:space="preserve" id="a" version="1.1" viewBox="0 0 48 48"><defs id="defs4"><style id="style2">.h{fill:none;stroke:#fff;stroke-linecap:round;stroke-linejoin:round}</style></defs><circle id="b" cx="24" cy="24" r="13" class="h"/><path id="c" d="m44.345 20.827-3.55-1.02v.079a17.177 17.177 0 0 0-2.017-4.86l.063.062 1.789-3.23a1.595 1.595 0 0 0-.268-1.9l-2.32-2.32a1.595 1.595 0 0 0-1.9-.268l-3.231 1.79.06.06a17.175 17.175 0 0 0-4.86-2.015h.082l-1.02-3.55A1.595 1.595 0 0 0 25.64 2.5h-3.28c-.711 0-1.337.471-1.533 1.155l-1.02 3.55h.079a17.177 17.177 0 0 0-4.86 2.017l.063-.063-3.232-1.789a1.595 1.595 0 0 0-1.9.268l-2.32 2.32a1.595 1.595 0 0 0-.267 1.9l1.79 3.231.06-.06a17.172 17.172 0 0 0-2.015 4.86v-.082l-3.55 1.02A1.595 1.595 0 0 0 2.5 22.36v3.28c0 .711.471 1.337 1.155 1.533l3.55 1.02v-.079a17.177 17.177 0 0 0 2.017 4.86l-.063-.062-1.789 3.23a1.595 1.595 0 0 0 .268 1.9l2.32 2.32a1.595 1.595 0 0 0 1.9.268l3.231-1.79-.06-.06a17.175 17.175 0 0 0 4.86 2.016h-.082l1.02 3.55A1.595 1.595 0 0 0 22.36 45.5h3.28c.711 0 1.337-.471 1.533-1.155l1.02-3.55h-.079a17.18 17.18 0 0 0 4.86-2.017l-.063.063 3.231 1.789a1.595 1.595 0 0 0 1.9-.267l2.32-2.32a1.595 1.595 0 0 0 .268-1.9l-1.79-3.233-.06.06a17.172 17.172 0 0 0 2.015-4.86v.082l3.55-1.02A1.595 1.595 0 0 0 45.5 25.64v-3.28c0-.711-.471-1.337-1.155-1.533z" class="h"/><g id="layer1"><path id="path6678" d="m17.911 28.889 11.682.014s.911-.22.611-.875c-.3-.655-5.756-11.56-5.756-11.56s-.569-.495-.979.04c-.49.638-5.906 11.75-5.906 11.75s-.201.628.348.63z" style="opacity:1;fill:none;stroke:#fff;stroke-width:1;stroke-linecap:round;stroke-linejoin:round;stroke-dasharray:none;stroke-opacity:1"/><path id="path7414" d="M23.96 21.088v3.39" style="opacity:1;fill:none;stroke:#fff;stroke-width:1;stroke-linecap:round;stroke-linejoin:round;stroke-dasharray:none;stroke-opacity:1"/><circle id="path7477" cx="24" cy="26.317" r=".75" style="opacity:1;fill:#fff;fill-opacity:1;stroke:none;stroke-width:1.5;stroke-linecap:round;stroke-linejoin:round;stroke-dasharray:none;stroke-opacity:1"/></g></svg>