<?xml version="1.0" encoding="UTF-8" standalone="no"?>
<svg
   viewBox="0 0 48 48"
   version="1.1"
   id="svg1"
   sodipodi:docname="avatar_world.svg"
   inkscape:version="1.2.2 (b0a8486541, 2022-12-01)"
   xml:space="preserve"
   xmlns:inkscape="http://www.inkscape.org/namespaces/inkscape"
   xmlns:sodipodi="http://sodipodi.sourceforge.net/DTD/sodipodi-0.dtd"
   xmlns="http://www.w3.org/2000/svg"
   xmlns:svg="http://www.w3.org/2000/svg"><sodipodi:namedview
     id="namedview1"
     pagecolor="#505050"
     bordercolor="#eeeeee"
     borderopacity="1"
     inkscape:showpageshadow="0"
     inkscape:pageopacity="0"
     inkscape:pagecheckerboard="0"
     inkscape:deskcolor="#505050"
     inkscape:zoom="17.8125"
     inkscape:cx="13.080702"
     inkscape:cy="26.161404"
     inkscape:window-width="1918"
     inkscape:window-height="1053"
     inkscape:window-x="0"
     inkscape:window-y="0"
     inkscape:window-maximized="1"
     inkscape:current-layer="svg1"
     showgrid="false" /><defs
     id="defs1"><style
       id="style1">.a { fill:none;stroke:#fff;stroke-linecap:round;stroke-linejoin:round; }
</style></defs><g
     id="g16534"><path
       style="fill:none;stroke:#ffffff;stroke-width:1;stroke-linecap:round;stroke-linejoin:round;stroke-opacity:1;stop-color:#000000"
       d="M 42.5,37.490235 V 38.5 c 0,2.215998 -1.784002,4 -4,4 h -29 c -2.2159978,0 -4,-1.784002 -4,-4 v -29 c 0,-2.2159978 1.7840022,-4 4,-4 v 0 h 29 c 2.215998,0 4,1.7840022 4,4 v 20.951172"
       id="path16241" /><g
       id="g16366"><path
         style="fill:none;stroke:#ffffff;stroke-width:1;stroke-linecap:round;stroke-linejoin:round;stroke-opacity:1;stop-color:#000000"
         d="m 28.498608,18.89996 c -2.310004,0.709874 -3.941934,1.896686 -4.381256,4.068239 1.322332,-2.358528 3.37435,-3.10763 5.419434,-2.992102"
         id="path16239" /><path
         style="fill:none;stroke:#ffffff;stroke-width:1;stroke-linecap:round;stroke-linejoin:round;stroke-opacity:1;stop-color:#000000"
         d="m 22.103776,24.7233 c 0.220139,-0.453242 0.886592,-0.63806 1.270732,-0.360842"
         id="path16237" /><path
         style="fill:none;stroke:#ffffff;stroke-width:1;stroke-linecap:round;stroke-linejoin:round;stroke-opacity:1;stop-color:#000000"
         d="m 25.152999,16.904945 3.119743,-0.530874"
         id="path16235" /><path
         style="fill:none;stroke:#ffffff;stroke-width:1;stroke-linecap:round;stroke-linejoin:round;stroke-opacity:1;stop-color:#000000"
         d="M 13.080559,19.838188 16.438274,18.66872"
         id="path16233" /><path
         style="fill:none;stroke:#ffffff;stroke-width:1;stroke-linecap:round;stroke-linejoin:round;stroke-opacity:1;stop-color:#000000"
         d="m 20.781749,25.736845 c -1.474846,-0.27981 -2.199372,1.187442 -0.940995,1.911933 0.888531,0.511558 3.224928,0.657986 4.755367,-0.181152 0.992978,-0.544449 1.148303,-2.151969 -0.520914,-1.797406 -0.492407,0.104593 -0.695565,0.368566 -1.457292,0.396153 -0.621426,0.02251 -1.22523,-0.21362 -1.836166,-0.329528 z"
         id="path16231" /><g
         id="g16355"><path
           style="fill:none;stroke:#ffffff;stroke-width:1;stroke-linecap:round;stroke-linejoin:round;stroke-opacity:1;stop-color:#000000"
           d="m 12.333973,22.724837 c -0.135685,0.528045 -0.586568,3.0025 2.207012,3.811069 1.053144,0.30482 3.027666,0.476231 4.400994,-1.736499 0.64594,-1.04075 0.457543,-2.673553 -1.614588,-4.013511 -1.440513,-0.931519 -4.25277,-0.943433 -4.993418,1.938941 z"
           id="path16229" /><path
           style="fill:none;stroke:#ffffff;stroke-width:1;stroke-linecap:round;stroke-linejoin:round;stroke-opacity:1;stop-color:#000000"
           d="m 11.338135,21.733388 c 0.340569,0.472161 0.681139,0.721332 1.021708,0.889159"
           id="path16227" /><path
           style="fill:none;stroke:#ffffff;stroke-width:1;stroke-linecap:round;stroke-linejoin:round;stroke-opacity:1;stop-color:#000000"
           d="m 14.731114,20.286044 a 1.8321513,2.2438974 0 0 0 -0.713536,0.924894 1.0871085,1.0871085 0 0 1 0.02148,-0.002 1.0871085,1.0871085 0 0 1 1.087891,1.085938 1.0871085,1.0871085 0 0 1 -1.048828,1.083984 1.8321513,2.2438974 0 0 0 1.570313,1.091797 1.8321513,2.2438974 0 0 0 1.832031,-2.244141 1.8321513,2.2438974 0 0 0 -0.628504,-1.691977"
           id="path16225" /></g></g><g
       id="g16350"><path
         style="fill:none;stroke:#ffffff;stroke-width:1;stroke-linecap:round;stroke-linejoin:round;stroke-opacity:1;stop-color:#000000"
         d="m 26.789738,34.51091 c 0.575315,-0.900262 1.652659,-0.271528 1.312498,1.042218 2.361495,0.16604 3.027563,1.68584 2.694793,2.750165 -0.764508,2.507392 -2.97551,2.09872 -4.265241,1.426862 -3.461344,-1.803112 -7.175998,-4.918347 -8.173191,-6.569111 -1.389607,-2.30037 0.708426,-3.606137 3.66212,-1.710623 z"
         id="path16223" /><path
         style="fill:none;stroke:#ffffff;stroke-width:1;stroke-linecap:round;stroke-linejoin:round;stroke-opacity:1;stop-color:#000000"
         d="m 20.834714,35.80738 c 0.167679,-1.443665 0.522587,-2.838062 1.367519,-4.239469"
         id="path16221" /></g><g
       id="g16300"><path
         style="fill:none;stroke:#ffffff;stroke-width:1;stroke-linecap:round;stroke-linejoin:round;stroke-opacity:1;stop-color:#000000"
         d="m 24.870265,42.526288 a 12.630365,12.587698 0 0 1 -1.862667,-4.98532"
         id="path16217" /><path
         style="fill:none;stroke:#ffffff;stroke-width:1;stroke-linecap:round;stroke-linejoin:round;stroke-opacity:1;stop-color:#000000"
         d="m 41.269705,24.538538 a 12.630365,12.587698 0 0 1 1.232587,0.720224"
         id="path16215" /><path
         style="fill:none;stroke:#ffffff;stroke-width:1;stroke-linecap:round;stroke-linejoin:round;stroke-opacity:1;stop-color:#000000"
         d="M 23.354945,32.312624 A 12.630365,12.587698 0 0 1 35.140474,23.157842"
         id="path16213" /></g><g
       id="g16435"
       style="display:inline"><path
         style="fill:none;stroke:#ffffff;stroke-width:1;stroke-linecap:round;stroke-linejoin:round;stroke-opacity:1;stop-color:#000000"
         d="m 24.939337,29.287745 c -3.868353,1.616694 -8.327358,1.298069 -10.748866,0.182004 -2.42211,-1.116342 -2.960847,-2.485227 -3.915295,-5.167531"
         id="path16219" /><path
         style="fill:none;stroke:#ffffff;stroke-width:1;stroke-linecap:round;stroke-linejoin:round;stroke-opacity:1;stop-color:#000000"
         d="M 23.12623,6.810626 A 4.6631346,4.6631346 0 0 1 23.992553,5.4815285"
         id="path16207" /><path
         style="fill:none;stroke:#ffffff;stroke-width:1;stroke-linecap:round;stroke-linejoin:round;stroke-opacity:1;stop-color:#000000"
         d="m 6.8557093,18.054674 c 0.3388606,2.294348 1.34015,5.428369 3.8898767,6.303423 -0.610676,-2.074069 -0.691619,-2.904269 -0.492318,-4.60263 4.249389,-2.51936 6.447963,-5.109783 9.073438,-8.345436 2.930016,1.34691 5.193453,1.968261 8.939848,2.13554 2.072769,2.020843 2.463251,3.715595 2.653977,5.384173"
         id="path16211" /><path
         style="fill:none;stroke:#ffffff;stroke-width:1;stroke-linecap:round;stroke-linejoin:round;stroke-opacity:1;stop-color:#000000"
         d="M 5.5122777,9.0679404 A 4.6631346,4.6631346 0 0 1 7.1818995,8.758791 4.6631346,4.6631346 0 0 1 11.845034,13.421926 v 0 A 4.6631346,4.6631346 0 0 1 7.1818995,18.08506 4.6631346,4.6631346 0 0 1 5.4909289,17.767664"
         id="path16209" /><path
         style="fill:none;stroke:#ffffff;stroke-width:1;stroke-linecap:round;stroke-linejoin:round;stroke-opacity:1;stop-color:#000000"
         d="m 30.840269,5.4975821 a 4.6631346,4.6631346 0 0 1 1.231855,3.1577123 4.6631346,4.6631346 0 0 1 -1.880532,3.7419176"
         id="path16205" /><path
         style="fill:none;stroke:#ffffff;stroke-width:1;stroke-linecap:round;stroke-linejoin:round;stroke-opacity:1;stop-color:#000000"
         d="m 10.493296,10.140137 c 5.277719,-4.6482717 13.148891,-4.4110851 16.622449,-1.5466277 4.272135,3.5229997 4.315771,7.7026967 3.823756,11.5671747 -0.335907,2.638348 0.807741,1.721906 0.35672,3.731747"
         id="path16203" /><path
         style="fill:none;stroke:#ffffff;stroke-width:1;stroke-linecap:round;stroke-linejoin:round;stroke-opacity:1;stop-color:#000000"
         d="m 15.503804,7.2939295 c 1.318108,0.4969229 2.571433,1.6649364 3.279657,2.8468545"
         id="path16201" /><path
         style="fill:none;stroke:#ffffff;stroke-width:1;stroke-linecap:round;stroke-linejoin:round;stroke-opacity:1;stop-color:#000000"
         d="M 11.801584,12.772135 C 16.760821,7.5854793 23.142999,7.2857895 28.897073,10.380772"
         id="path16199" /><path
         style="fill:none;stroke:#ffffff;stroke-width:1;stroke-linecap:round;stroke-linejoin:round;stroke-opacity:1;stop-color:#000000"
         d="m 31.134247,16.505982 c 3.27057,0.13465 2.779529,4.94986 -0.06761,5.566299"
         id="path16197" /><path
         style="fill:none;stroke:#ffffff;stroke-width:1;stroke-linecap:round;stroke-linejoin:round;stroke-opacity:1;stop-color:#000000"
         d="m 7.8981849,21.59901 c -3.3080351,1.215462 -0.3960657,6.011098 3.3256301,5.081405"
         id="path16195" /><path
         style="fill:none;stroke:#ffffff;stroke-width:1;stroke-linecap:round;stroke-linejoin:round;stroke-opacity:1;stop-color:#000000"
         d="M 5.6023113,38.534072 C 7.0849783,38.159334 9.1776579,37.55233 10.747937,36.784173 13.06892,35.648782 12.251475,32.955927 11.285806,30.8079 10.808227,29.745576 10.097461,28.103048 9.5412398,26.808773"
         id="path16193" /></g><g
       id="g16374"><path
         style="fill:none;stroke:#ffffff;stroke-width:1;stroke-linecap:round;stroke-linejoin:round;stroke-opacity:1;stop-color:#000000"
         d="m 17.922672,31.921044 c -0.273181,0.707808 -0.836445,1.248221 -1.564659,1.899259 1.413106,1.161842 2.973717,2.02156 4.693622,2.312178"
         id="path16189" /><path
         style="fill:none;stroke:#ffffff;stroke-width:1;stroke-linecap:round;stroke-linejoin:round;stroke-opacity:1;stop-color:#000000"
         d="m 20.93863,39.202592 c 0.351145,0.589443 0.661543,1.276452 0.912278,2.070294 -0.856333,0.403499 -1.72898,0.798865 -2.540554,1.224686"
         id="path16187" /><path
         style="fill:none;stroke:#ffffff;stroke-width:1;stroke-linecap:round;stroke-linejoin:round;stroke-opacity:1;stop-color:#000000"
         d="m 15.144818,42.499437 c -1.385888,-1.890262 -2.026035,-3.000645 -1.156268,-5.136588 0.648921,-1.593599 1.990712,-1.97099 2.729026,-3.255025"
         id="path16185" /><path
         style="fill:none;stroke:#ffffff;stroke-width:1;stroke-linecap:round;stroke-linejoin:round;stroke-opacity:1;stop-color:#000000"
         d="m 21.799966,41.364917 0.740365,1.134623"
         id="path16183" /><path
         style="fill:none;stroke:#ffffff;stroke-width:1;stroke-linecap:round;stroke-linejoin:round;stroke-opacity:1;stop-color:#000000"
         d="m 15.978511,35.02324 c 1.35971,1.49042 3.793882,2.576024 6.064528,2.891605 0.191491,-0.228052 0.343032,-0.47438 0.479167,-0.743331"
         id="path16181" /><path
         style="fill:none;stroke:#ffffff;stroke-width:1;stroke-linecap:round;stroke-linejoin:round;stroke-opacity:1;stop-color:#000000"
         d="m 23.347632,40.316731 c -0.520493,0.23997 -1.041113,0.490096 -1.540334,0.817826"
         id="path16179"
         sodipodi:nodetypes="cc" /></g><g
       id="g16291"><path
         style="fill:none;stroke:#ffffff;stroke-width:1;stroke-linecap:round;stroke-linejoin:round;stroke-opacity:1;stop-color:#000000"
         d="m 44.105039,33.955257 a 4.7114792,4.7114792 0 0 0 -4.711479,-4.711479 4.7114792,4.7114792 0 0 0 -4.711479,4.711479 4.7114792,4.7114792 0 0 0 4.711479,4.71148 4.7114792,4.7114792 0 0 0 4.711479,-4.71148 z"
         id="path16177" /><path
         style="fill:none;stroke:#ffffff;stroke-width:1;stroke-linecap:round;stroke-linejoin:round;stroke-opacity:1;stop-color:#000000"
         d="m 36.165942,38.909728 0.67455,-0.996129"
         id="path16175" /></g><g
       id="g16287"><path
         style="fill:none;stroke:#ffffff;stroke-width:1;stroke-linecap:round;stroke-linejoin:round;stroke-opacity:1;stop-color:#000000"
         d="m 42.155933,22.181145 a 3.5853818,3.5880978 0 0 0 -3.585383,-3.588098 3.5853818,3.5880978 0 0 0 -3.585381,3.588098 3.5853818,3.5880978 0 0 0 3.585381,3.588098 3.5853818,3.5880978 0 0 0 3.585383,-3.588098 z"
         id="path16173" /><path
         style="fill:none;stroke:#ffffff;stroke-width:1;stroke-linecap:round;stroke-linejoin:round;stroke-opacity:1;stop-color:#000000"
         d="M 36.114371,25.954297 36.627695,25.19568"
         id="path16171" /></g><g
       id="g16295"><path
         style="fill:none;stroke:#ffffff;stroke-width:1;stroke-linecap:round;stroke-linejoin:round;stroke-opacity:1;stop-color:#000000"
         d="m 25.821083,30.355126 a 3.1542057,3.1511475 86.177249 0 1 2.929026,-3.361487 3.1542057,3.1511475 86.177249 0 1 3.358635,2.932277 3.1542057,3.1511475 86.177249 0 1 -2.929025,3.361489 3.1542057,3.1511475 86.177249 0 1 -3.358636,-2.932279 z"
         id="path16169" /><path
         style="fill:none;stroke:#ffffff;stroke-width:1;stroke-linecap:round;stroke-linejoin:round;stroke-opacity:1;stop-color:#000000"
         d="M 31.344491,33.302687 30.848969,32.66808"
         id="path15421" /></g></g></svg>
