<?xml version="1.0" encoding="UTF-8"?><svg id="a" xmlns="http://www.w3.org/2000/svg" viewBox="0 0 48 48"><defs><style>.d{fill:none;stroke:#fff;stroke-linecap:round;stroke-linejoin:round;}</style></defs><path class="d" d="m25.082 8.837v-1.7833c0-0.7598-0.6159-1.3758-1.3758-1.3758s-1.3758 0.616-1.3758 1.3758v0.5933c0-1.0875-0.8816-1.9691-1.9691-1.9691s-1.9691 0.8816-1.9691 1.9691c0-1.0875-0.8816-1.9691-1.969-1.9691-1.0875 0-1.9691 0.8816-1.9691 1.9691 0-1.0875-0.8816-1.9691-1.9691-1.9691s-1.9691 0.8816-1.9691 1.9691v-0.5933c0-0.7598-0.6159-1.3758-1.3758-1.3758s-1.3759 0.616-1.3759 1.3758v15.586h6.2355"/><line class="d" x1="10.516" x2="10.516" y1="7.647" y2="10.908"/><line class="d" x1="14.454" x2="14.454" y1="7.647" y2="10.908"/><line class="d" x1="18.392" x2="18.392" y1="7.647" y2="10.908"/><line class="d" x1="22.331" x2="22.331" y1="7.647" y2="8.8156"/><path class="d" d="m7.7644 22.06h-0.8886c-0.8044 0-1.4476 0.6903-1.3694 1.5109 0.0682 0.7154 0.7099 1.2408 1.4285 1.2408h0.5342c-1.0875 0-1.9691 0.8816-1.9691 1.9691s0.8816 1.9691 1.9691 1.9691c-1.0875 0-1.9691 0.8816-1.9691 1.969 0 1.0875 0.8816 1.9691 1.9691 1.9691-1.0875 0-1.9691 0.8816-1.9691 1.9691s0.8816 1.9691 1.9691 1.9691h-0.5342c-0.7186 0-1.3602 0.5254-1.4284 1.2407-0.0782 0.8206 0.565 1.5109 1.3694 1.5109h19.529c0.7758 0 1.3475-0.7253 1.1662-1.4796l-1.898-7.8987"/><line class="d" x1="7.4691" x2="10.73" y1="36.627" y2="36.627"/><line class="d" x1="7.4691" x2="10.73" y1="32.688" y2="32.688"/><line class="d" x1="7.4691" x2="10.73" y1="28.75" y2="28.75"/><line class="d" x1="7.4691" x2="10.73" y1="24.812" y2="24.812"/><path class="d" d="m40.106 26.28h1.0178c0.8044 0 1.4476-0.6903 1.3694-1.5109-0.0682-0.7154-0.7099-1.2408-1.4285-1.2408h-0.5342c1.0875 0 1.9691-0.8816 1.9691-1.9691s-0.8816-1.9691-1.9691-1.9691c1.0875 0 1.9691-0.8816 1.9691-1.969 0-1.0875-0.8816-1.9691-1.9691-1.9691 1.0875 0 1.9691-0.8816 1.9691-1.9691s-0.8816-1.9691-1.9691-1.9691h0.5342c0.7186 0 1.3602-0.5254 1.4284-1.2407 0.0782-0.8206-0.565-1.5109-1.3694-1.5109l-19.076-0.1487c-0.7758 0-1.3475 0.7253-1.1662 1.4796l1.8519 7.7069"/><line class="d" x1="40.531" x2="37.27" y1="11.714" y2="11.714"/><line class="d" x1="40.531" x2="37.27" y1="15.652" y2="15.652"/><line class="d" x1="40.531" x2="37.27" y1="19.59" y2="19.59"/><line class="d" x1="40.531" x2="40.106" y1="23.528" y2="23.528"/><path class="d" d="m22.788 39.378v1.5679c0 0.8044 0.6903 1.4476 1.5109 1.3694 0.7154-0.0682 1.2408-0.7099 1.2408-1.4285v-0.5342c0 1.0875 0.8816 1.9691 1.9691 1.9691s1.9691-0.8816 1.9691-1.9691c0 1.0875 0.8816 1.9691 1.969 1.9691 1.0875 0 1.9691-0.8816 1.9691-1.9691 0 1.0875 0.8816 1.9691 1.9691 1.9691s1.9691-0.8816 1.9691-1.9691v0.5342c0 0.7186 0.5254 1.3602 1.2407 1.4284 0.8206 0.0782 1.5109-0.565 1.5109-1.3694v-19.529c0-0.7758-0.7253-1.3475-1.4796-1.1662l-4.6266 1.1117"/><line class="d" x1="37.355" x2="37.355" y1="40.353" y2="37.092"/><line class="d" x1="33.416" x2="33.416" y1="40.353" y2="37.092"/><line class="d" x1="29.478" x2="29.478" y1="40.353" y2="37.092"/><line class="d" x1="25.54" x2="25.54" y1="40.353" y2="39.378"/><path class="d" d="m16.012 27.988v-8h2.619c1.4807 0 2.681 1.2029 2.681 2.6867s-1.2003 2.6867-2.681 2.6867h-2.619"/><rect class="d" x="27.989" y="22.712" width="4" height="5.3" rx="2" ry="2"/><path class="d" d="m23.65 24.712c0-1.1046 0.8954-2 2-2"/><line class="d" x1="23.65" x2="23.65" y1="22.712" y2="28.012"/></svg>
