<svg xmlns="http://www.w3.org/2000/svg" xml:space="preserve" id="svg1" version="1.1" viewBox="0 0 48 48"><defs id="defs1"><style id="style1">.a{fill:none;stroke:#fff;stroke-linecap:round;stroke-linejoin:round}</style></defs><path id="circle4" d="M34.32 24.068a10.411 10.411 0 0 1-10.412 10.411 10.411 10.411 0 0 1-10.411-10.411 10.411 10.411 0 0 1 10.411-10.412A10.411 10.411 0 0 1 34.32 24.068Zm-5.665 0a4.747 4.747 0 0 1-4.747 4.747 4.747 4.747 0 0 1-4.747-4.747 4.747 4.747 0 0 1 4.747-4.747 4.747 4.747 0 0 1 4.747 4.747zM38.811 5.524c-1.704 0-3.13 1.714-3.557 4.057a18.408 18.408 0 0 0-11.346-3.922A18.408 18.408 0 0 0 5.5 24.068a18.408 18.408 0 0 0 18.408 18.408 18.408 18.408 0 0 0 11.38-3.992c.468 2.246 1.865 3.87 3.523 3.87 2.044 0 3.689-2.462 3.689-5.52v-25.79c0-3.058-1.645-5.52-3.689-5.52z" style="fill:none;fill-opacity:.266292;stroke:#fff;stroke-width:1;stroke-linecap:round;stroke-linejoin:round;stroke-opacity:1"/></svg>
