<svg xmlns="http://www.w3.org/2000/svg" xml:space="preserve" id="svg1" version="1.1" viewBox="0 0 48 48"><defs id="defs1"><style id="style1">.a{fill:none;stroke:#fff;stroke-linecap:round;stroke-linejoin:round}</style></defs><path id="path2298" d="M35.769204 43.045918c-6.536167 1.00371-12.648447-3.481233-13.652156-10.017401-.848871-5.527861 2.247582-10.716252 7.149634-12.846987 2.140916-.930574 3.248084-1.517706 4.557603-2.489256 3.528411-2.617776 4.916522-7.686431 2.333621-13.1389165-3.328941 1.7499709-5.571368 2.5838284-8.647514 6.1509815-1.208514-1.7405102-2.410046-3.1633435-3.849764-4.2379438-2.566536 2.9994491-4.085186 6.2928888-4.771046 9.6052608-1.837743-1.136023-3.687427-1.825108-5.456869-2.147611-.399762 3.325234-1.054411 6.554367.04528 10.723362-2.227897-.09452-3.775866.115938-5.5963902.666653C9.039739 33.358722 19.674084 45.847696 35.769204 43.045918z" style="fill:none;stroke:#fff;stroke-width:1;stroke-linecap:round;stroke-linejoin:round;stroke-opacity:1;stop-color:#000"/><path id="rect1391" d="M29.895281 23.362916v5.039447h-5.039447v5.181633h5.039447v5.039447h5.181633v-5.039447h5.041478v-5.181633h-5.041478v-5.039447z" style="fill:none;stroke:#fff;stroke-width:1;stroke-linecap:round;stroke-linejoin:round;stroke-opacity:1;stop-color:#000"/></svg>