<svg xmlns="http://www.w3.org/2000/svg" xml:space="preserve" id="svg1" version="1.1" viewBox="0 0 48 48"><defs id="defs1"><style id="style1">.a{fill:none;stroke:#fff;stroke-linecap:round;stroke-linejoin:round}</style></defs><path id="path4" d="M28.608 26.36a4.845 4.827 0 0 1-4.844 4.828 4.845 4.827 0 0 1-4.845-4.827 4.845 4.827 0 0 1 4.845-4.827 4.845 4.827 0 0 1 4.844 4.827v0m-4.844-12.375c6.86 0 12.42 5.54 12.42 12.375v0c0 6.834-5.56 12.375-12.42 12.375-1.667 0-3.318-.335-4.85-.992l.004 5.756h-7.102V25.6c0-7.102 6.838-11.614 11.948-11.614zM11.816 4.5h7.102v7.076h-7.102z" style="fill:none;stroke:#fff;stroke-width:1;stroke-linecap:round;stroke-linejoin:round;stroke-opacity:1"/></svg>