<?xml version="1.0" encoding="UTF-8"?><svg id="a" xmlns="http://www.w3.org/2000/svg" viewBox="0 0 48 48"><defs><style>.b{fill:none;stroke:#fff;stroke-linecap:round;stroke-linejoin:round;}</style></defs><rect class="b" x="5.5" y="5.5" width="37" height="37" rx="4" ry="4"/><line class="b" x1="38.951" x2="38.951" y1="20" y2="28"/><path class="b" d="m24 28v-8h2.619c1.4807 0 2.681 1.2029 2.681 2.6867s-1.2003 2.6867-2.681 2.6867h-2.619"/><line class="b" x1="26.619" x2="29.238" y1="25.373" y2="27.998"/><path class="b" d="m31.475 28v-8h1.8c1.933 0 3.5 1.567 3.5 3.5v1c0 1.933-1.567 3.5-3.5 3.5z"/><path class="b" d="m12.349 24c1.1046 0 2 .8954 2 2s-.8954 2-2 2h-3.3v-8h3.3c1.1046 0 2 .8954 2 2s-.8954 2-2 2z"/><line class="b" x1="12.349" x2="9.0494" y1="24" y2="24"/><line class="b" x1="20.947" x2="17.402" y1="25.35" y2="25.35"/><path class="b" d="m16.525 28 2.65-8 2.65 8"/></svg>
