<?xml version="1.0" encoding="UTF-8"?><svg id="a" xmlns="http://www.w3.org/2000/svg" viewBox="0 0 48 48"><defs><style>.b{fill:none;stroke:#fff;stroke-linecap:round;stroke-linejoin:round;}</style></defs><path class="b" d="M9.5,5.5h29c2.216,0,4,1.784,4,4v29c0,2.216-1.784,4-4,4H9.5c-2.216,0-4-1.784-4-4V9.5c0-2.216,1.784-4,4-4ZM15.806,34.835s2.178,2.935,8.194,2.935,8.194-2.936,8.194-2.936M15.22,21.456c0,4.811,3.931,8.712,8.78,8.712s8.78-3.9,8.78-8.712-3.931-8.711-8.78-8.711-8.78,3.9-8.78,8.711l1.26-11.227"/></svg>