<svg xmlns="http://www.w3.org/2000/svg" xml:space="preserve" viewBox="0 0 48 48"><path d="M9.5 5.5h29c2.216 0 4 1.784 4 4v29c0 2.216-1.784 4-4 4h-29c-2.216 0-4-1.784-4-4v-29c0-2.216 1.784-4 4-4zm6.306 29.335S17.984 37.77 24 37.77c6.016 0 8.194-2.936 8.194-2.936M15.22 21.456c0 4.811 3.931 8.712 8.78 8.712 4.849 0 8.78-3.9 8.78-8.712 0-4.811-3.931-8.711-8.78-8.711-4.849 0-8.78 3.9-8.78 8.711l1.26-11.227" class="cls-1" style="fill:none;stroke:#fff;stroke-linecap:round;stroke-linejoin:round;stroke-opacity:1"/></svg>