<?xml version="1.0" encoding="UTF-8" standalone="no"?>
<svg
   viewBox="0 0 48 48"
   version="1.1"
   id="svg1"
   xml:space="preserve"
   xmlns="http://www.w3.org/2000/svg"
   xmlns:svg="http://www.w3.org/2000/svg"><defs
     id="defs1"><style
       id="style1">.a{fill:none;stroke:#fff;stroke-linecap:round;stroke-linejoin:round;}</style></defs><ellipse
     style="fill:none;stroke:#ffffff;stroke-width:1;stroke-linecap:round;stroke-linejoin:round;stroke-dashoffset:0.5"
     id="path13-6"
     cx="34.837097"
     cy="26.778723"
     rx="1.0350932"
     ry="1.4220682" /><path
     style="opacity:1;fill:none;stroke:#ffffff;stroke-width:1;stroke-linecap:round;stroke-linejoin:round;stroke-dashoffset:0.5"
     d="m 23.96733,19.764882 c -5.920031,3.117754 -10.944359,2.807239 -15.7632535,3.329561 -0.07949,5.616607 0.376129,10.784501 5.4232115,15.309455 0.475008,-0.410914 0.693913,-1.102358 1.012769,-1.664782 4.030408,3.19171 6.835715,1.83527 9.327273,-0.881354 2.07883,2.337263 4.22562,4.776652 9.065913,1.338354 0.35937,0.702197 0.718738,1.382626 1.078109,1.827994 5.187566,-4.62419 5.357304,-10.479802 5.717242,-16.288737 -5.585557,0.722084 -9.784125,0.27595 -15.861264,-2.970491 z"
     id="path2" /><path
     style="opacity:1;fill:none;stroke:#ffffff;stroke-width:1;stroke-linecap:round;stroke-linejoin:round;stroke-dashoffset:0.5"
     d="m 40.743352,41.733459 c -3.439197,1.531722 -5.932226,0.504339 -7.775447,-1.044569 -1.877306,1.455054 -7.013302,2.585371 -9.000575,-1.436281 -2.148301,3.978833 -6.95542,2.676706 -9.033242,1.17514 -2.02055,1.517024 -4.119073,2.886889 -7.6774405,1.501566"
     id="path3" /><path
     style="opacity:1;fill:none;stroke:#ffffff;stroke-width:1;stroke-linecap:round;stroke-linejoin:round;stroke-dashoffset:0.5"
     d="m 17.220984,12.518189 h 13.100652 l 6.174622,8.095404 C 32.435452,20.568453 28.288783,19.836976 23.96733,17.708388 19.794103,19.156507 15.66031,20.7097 10.981023,20.809451 Z"
     id="path4" /><path
     style="opacity:1;fill:none;stroke:#ffffff;stroke-width:1;stroke-linecap:round;stroke-linejoin:round;stroke-dashoffset:0.5"
     d="M 14.550696,16.066297 9.7068945,11.871794"
     id="path5" /><path
     style="opacity:1;fill:none;stroke:#ffffff;stroke-width:1;stroke-linecap:round;stroke-linejoin:round;stroke-dashoffset:0.5"
     d="M 12.406557,18.915292 7.3219875,14.444112"
     id="path6" /><path
     style="opacity:1;fill:none;stroke:#ffffff;stroke-width:1;stroke-linecap:round;stroke-linejoin:round;stroke-dashoffset:0.5"
     d="m 32.999413,16.028959 5.065004,-4.157165"
     id="path7" /><path
     style="opacity:1;fill:none;stroke:#ffffff;stroke-width:1;stroke-linecap:round;stroke-linejoin:round;stroke-dashoffset:0.5"
     d="m 40.475523,14.280898 -5.368387,4.511448"
     id="path8" /><path
     style="opacity:1;fill:none;stroke:#ffffff;stroke-width:1;stroke-linecap:round;stroke-linejoin:round;stroke-dashoffset:0.5"
     d="M 23.77131,12.518189 V 5.4999958"
     id="path9" /><path
     style="opacity:1;fill:none;stroke:#ffffff;stroke-width:1;stroke-linecap:round;stroke-linejoin:round;stroke-dashoffset:0.5"
     d="m 19.409871,8.1767029 h 8.657538"
     id="path10" /><path
     style="opacity:1;fill:none;stroke:#ffffff;stroke-width:1;stroke-linecap:round;stroke-linejoin:round;stroke-dashoffset:0.5"
     d="m 17.645693,14.54204 12.381913,0.06529"
     id="path11" /><ellipse
     style="opacity:1;fill:none;stroke:#ffffff;stroke-width:1;stroke-linecap:round;stroke-linejoin:round;stroke-dashoffset:0.5"
     id="path13"
     cx="13.00872"
     cy="27.174788"
     rx="1.0350932"
     ry="1.4220682" /><path
     style="opacity:1;fill:none;stroke:#ffffff;stroke-width:1;stroke-linecap:round;stroke-linejoin:round;stroke-dashoffset:0.5"
     d="m 23.96733,19.764882 v 16.09288"
     id="path14" /><path
     style="opacity:1;fill:none;stroke:#ffffff;stroke-width:1;stroke-linecap:round;stroke-linejoin:round;stroke-dashoffset:0.5"
     d="m 28.067409,8.1767029 v 1.436281"
     id="path15" /><path
     style="opacity:1;fill:none;stroke:#ffffff;stroke-width:0.999996;stroke-linecap:round;stroke-linejoin:round;stroke-dashoffset:0.5"
     d="m 19.409871,8.1767029 v 1.437416"
     id="path16" /></svg>
