<svg xmlns="http://www.w3.org/2000/svg" xml:space="preserve" viewBox="0 0 48 48"><path d="M9.5 5.5h29c2.216 0 4 1.784 4 4v29c0 2.216-1.784 4-4 4h-29c-2.216 0-4-1.784-4-4v-29c0-2.216 1.784-4 4-4" style="fill:none;stroke:#fff;stroke-linecap:round;stroke-linejoin:round;stroke-dashoffset:1.3"/><path d="M28.906 26.855c.326 2.574-4.075 5.918-4.906 7.423v3.659c-2.976-2.61-9.6-4.675-5.168-10.913L24 19.946l5.168 7.078c4.433 6.238-2.192 8.303-5.168 10.913" style="fill:none;stroke:#fff;stroke-linecap:round;stroke-linejoin:round;stroke-dashoffset:1.3"/><path d="M19.094 26.855c-.326 2.574 4.075 5.918 4.906 7.423M20.14 12.183c0 2.05 1.65 3.7 3.7 3.7v0h.266c2.05 0 3.7-1.65 3.7-3.7V5.5M12.472 12.183c0 2.05 1.65 3.7 3.7 3.7h.267c2.05 0 3.7-1.65 3.7-3.7V5.5M27.806 12.183c0 2.05 1.65 3.7 3.7 3.7h.267c2.05 0 3.7-1.65 3.7-3.7V5.5M5.497 14.342a3.69 3.69 0 0 0 3.008 1.54h.267c2.05 0 3.7-1.65 3.7-3.7V5.502M35.473 12.183c0 2.05 1.65 3.7 3.7 3.7h.267a3.69 3.69 0 0 0 3.06-1.615" style="fill:none;stroke:#fff;stroke-linecap:round;stroke-linejoin:round;stroke-dashoffset:1.3"/></svg>