<svg xmlns="http://www.w3.org/2000/svg" xml:space="preserve" viewBox="0 0 48 48"><path d="M13.566 29.09q-.468.117-.97.119c-2.23 0-4.037-1.827-4.037-4.08s1.807-4.08 4.036-4.08c2.307 0 3.606 1.542 3.606 3.358v4.881M23.14 29.288h-.628a2.007 2.007 0 0 1-2.012-2.011v-8.953M20.538 21.372h2.602M29.45 29.288h-.628a2.007 2.007 0 0 1-2.012-2.011v-8.953M26.848 21.372h2.602M37.289 29.09q-.468.117-.97.119c-2.23 0-4.037-1.827-4.037-4.08s1.807-4.08 4.036-4.08c2.307 0 3.606 1.542 3.606 3.358v4.881M9.62 33.078H4.5V27.96M38.382 14.922H43.5v5.115" style="font-variation-settings:normal;opacity:1;vector-effect:none;fill:none;fill-opacity:1;fill-rule:evenodd;stroke:#fff;stroke-width:1;stroke-linecap:round;stroke-linejoin:round;stroke-miterlimit:4;stroke-dasharray:none;stroke-dashoffset:0;stroke-opacity:1;-inkscape-stroke:none;stop-color:#000;stop-opacity:1"/></svg>