<svg xmlns="http://www.w3.org/2000/svg" xml:space="preserve" width="48" height="48" viewBox="0 0 12.7 12.7"><path fill="none" stroke="#fff" stroke-linecap="round" stroke-linejoin="round" stroke-width=".265" d="m9.44 6.868 2.413.034m-.312 1.357h-.99a1.109 1.109 0 0 1-1.11-1.111v-.552c0-.616.495-1.111 1.11-1.111h.213c.609 0 1.1.485 1.111 1.091M6.2 8.368V6.477a.99.99 0 0 1 .992-.992h.371a.99.99 0 0 1 .992.992v1.89M.821 6.35a5.53 5.53 0 0 1 11.058 0v0a5.53 5.53 0 0 1-8.364 4.747c1.17-.256 2.05-2.006 2.05-4.08v0c0-2.27-1.047-4.11-2.337-4.11S.891 4.746.891 7.016l.003.229a5.455 5.455 0 0 1-.073-.896z"/></svg>
