<?xml version="1.0" encoding="UTF-8" standalone="no"?>
<!-- Created with Inkscape (http://www.inkscape.org/) -->

<svg
   width="48"
   height="48"
   viewBox="0 0 12.7 12.7"
   version="1.1"
   id="svg1"
   xml:space="preserve"
   sodipodi:docname="beam.svg"
   inkscape:version="1.3.2 (091e20e, 2023-11-25, custom)"
   xmlns:inkscape="http://www.inkscape.org/namespaces/inkscape"
   xmlns:sodipodi="http://sodipodi.sourceforge.net/DTD/sodipodi-0.dtd"
   xmlns="http://www.w3.org/2000/svg"
   xmlns:svg="http://www.w3.org/2000/svg"><sodipodi:namedview
     id="namedview1"
     pagecolor="#ffffff"
     bordercolor="#000000"
     borderopacity="0.25"
     inkscape:showpageshadow="2"
     inkscape:pageopacity="0.0"
     inkscape:pagecheckerboard="0"
     inkscape:deskcolor="#d1d1d1"
     inkscape:document-units="mm"
     inkscape:zoom="11.313709"
     inkscape:cx="-2.4306796"
     inkscape:cy="31.422058"
     inkscape:window-width="2560"
     inkscape:window-height="1316"
     inkscape:window-x="-12"
     inkscape:window-y="-12"
     inkscape:window-maximized="1"
     inkscape:current-layer="layer1" /><defs
     id="defs1" /><g
     inkscape:label="Layer 1"
     inkscape:groupmode="layer"
     id="layer1"><path
       style="fill:none;stroke:#ffffff;stroke-width:0.264583;stroke-dasharray:none;stroke-opacity:1"
       d="M 5.9655273,9.7731914 C 5.7459656,9.749557 5.3773987,9.6716143 5.1924003,9.6096943 4.6820306,9.4388706 4.2175015,8.9564845 4.0335417,8.4062876 3.8989209,8.0036564 3.8943359,7.9017144 3.8943359,5.3112208 V 2.9269531 l 1.3580566,9.97e-5 c 1.0755885,7.9e-5 1.4047868,0.00768 1.5827271,0.03654 C 7.2464469,3.0303078 7.5756668,3.157732 7.8273667,3.347642 8.3539129,3.7449264 8.6047513,4.2725338 8.5762673,4.9228613 8.5554323,5.3985443 8.394412,5.7504527 8.0503024,6.0723504 l -0.159974,0.1496478 0.1166033,0.092528 c 0.3375654,0.2678691 0.6240348,0.659724 0.7422147,1.0152584 0.058178,0.1750234 0.066027,0.2379489 0.066518,0.5333008 5.033e-4,0.3022779 -0.00609,0.353908 -0.067725,0.530576 C 8.5334012,9.0085759 8.0406165,9.4804005 7.4368172,9.6490168 7.026556,9.763586 6.3818098,9.8180015 5.9655273,9.7731914 Z M 6.4921692,8.3095419 C 6.8886712,8.2580358 7.1014553,8.0383864 7.1048916,7.6770507 7.1075755,7.3948347 6.9829859,7.1668775 6.7673189,7.0594062 6.6388241,6.9953745 6.6337559,6.9949218 6.0453826,6.9949218 H 5.4528497 l 0.00139,0.4185791 c 7.564e-4,0.228586 0.033312,0.4545409 0.049849,0.5060735 0.069362,0.2161429 0.271518,0.3542547 0.5694356,0.3890344 0.2298345,0.026832 0.2194579,0.026808 0.4186499,9.331e-4 z m 0.049529,-2.667243 C 6.696104,5.5777838 6.7891419,5.4887806 6.8687893,5.3293922 7.0029314,5.06095 6.9667117,4.7825262 6.7723661,4.5881806 6.6144233,4.4302378 6.5436406,4.4152343 5.9564483,4.4152343 H 5.4570312 v 0.6325195 0.6325196 h 0.4968904 c 0.3900297,0 0.5164362,-0.00817 0.5877766,-0.037974 z"
       id="path1"
       sodipodi:nodetypes="sssscscssscssscsssssscsssscssscccsc" /></g></svg>
