<svg version="1.1" viewBox="0 0 48 48" xml:space="preserve" xmlns="http://www.w3.org/2000/svg"><g fill="none" stroke="#fff" stroke-linecap="round" stroke-linejoin="round"><path transform="rotate(30)" d="m32.222 12.285a5.5 5.5 0 0 1-5.5 5.5 5.5 5.5 0 0 1-5.5-5.5 5.5 5.5 0 0 1 5.5-5.5 5.5 5.5 0 0 1 5.5 5.5z" style="paint-order:stroke fill markers"/><path d="m24.482 15.041-0.73205-2.7321-2.7321 0.73205m-1.2679 6.1962 4-6.9282" stroke-width="1px"/><path transform="matrix(.86603 .5 .5 -.86603 0 0)" d="m44.347-5.2846a5.5 5.5 0 0 1-5.5 5.5 5.5 5.5 0 0 1-5.5-5.5 5.5 5.5 0 0 1 5.5-5.5 5.5 5.5 0 0 1 5.5 5.5z" style="paint-order:stroke fill markers"/><g><path d="m28.25 28.763-5 8.6603" stroke-width="1px"/><path d="m27.348 36.325-5.1962-3" stroke-width="1px"/><path class="cls-1" d="m9.5 5.5h29c2.216 0 4 1.784 4 4v29c0 2.216-1.784 4-4 4h-29c-2.216 0-4-1.784-4-4v-29c0-2.216 1.784-4 4-4z"/></g></g></svg>
