<?xml version="1.0" encoding="UTF-8"?><svg id="a" xmlns="http://www.w3.org/2000/svg" viewBox="0 0 48 48"><defs><style>.d{fill:none;stroke:#fff;stroke-linecap:round;stroke-linejoin:round;}</style></defs><path class="d" d="m23.529 12.834 6.9933-6.9905c0.62956-0.62999 0.1836-1.7067-0.70703-1.707l-11.002-1.287e-4c-0.58182-4.057e-4 -1.0412 0.494-0.99805 1.0742 0.22628 2.5884 0.95463 4.918 2.6703 7.3715 0.71835 1.0066 2.1688 1.1267 3.043 0.25195z"/><path class="d" d="m31.563 15.772 9.888 2e-3c0.89064-3.11e-4 1.3366-1.077 0.70711-1.707l-7.7792-7.7793c-0.41112-0.41169-1.0855-0.3869-1.4653 0.053862-1.6702 1.9902-2.8025 4.1525-3.3242 7.1006-0.20381 1.2197 0.73692 2.3303 1.9735 2.3299z"/><path class="d" d="m35.166 23.529 6.9905 6.9933c0.62999 0.62955 1.7067 0.1836 1.707-0.70703l1.34e-4 -11.002c4.06e-4 -0.58182-0.494-1.0412-1.0742-0.99805-2.5884 0.22628-4.918 0.95463-7.3715 2.6703-1.0066 0.71835-1.1267 2.1688-0.25195 3.043z"/><path class="d" d="m32.228 31.563-2e-3 9.888c3.1e-4 0.89064 1.077 1.3366 1.707 0.70711l7.7793-7.7792c0.41169-0.41112 0.3869-1.0855-0.05386-1.4653-1.9902-1.6702-4.1525-2.8025-7.1006-3.3242-1.2197-0.20382-2.3303 0.73692-2.3299 1.9735z"/><path class="d" d="m24.471 35.166-6.9933 6.9905c-0.62956 0.63-0.1836 1.7067 0.70703 1.707l11.002 1.28e-4c0.58182 4.06e-4 1.0412-0.494 0.99805-1.0742-0.22628-2.5884-0.95463-4.918-2.6703-7.3715-0.71835-1.0066-2.1688-1.1267-3.043-0.25195z"/><path class="d" d="m16.437 32.228-9.888-2e-3c-0.89064 3.11e-4 -1.3366 1.077-0.70711 1.707l7.7792 7.7793c0.41112 0.41169 1.0855 0.3869 1.4653-0.05386 1.6702-1.9902 2.8025-4.1525 3.3242-7.1006 0.20381-1.2197-0.73692-2.3303-1.9735-2.3299z"/><path class="d" d="m12.834 24.471-6.9905-6.9933c-0.62999-0.62955-1.7067-0.1836-1.707 0.70703l-1.34e-4 11.002c-4.06e-4 0.58182 0.494 1.0412 1.0742 0.99805 2.5884-0.22628 4.918-0.95463 7.3715-2.6703 1.0066-0.71835 1.1267-2.1688 0.25195-3.043z"/><path class="d" d="m15.772 16.437 2e-3 -9.888c-3.1e-4 -0.89064-1.077-1.3366-1.707-0.70711l-7.7793 7.7792c-0.41169 0.41112-0.3869 1.0855 0.05386 1.4653 1.9902 1.6702 4.1525 2.8025 7.1006 3.3242 1.2197 0.20382 2.3303-0.73692 2.3299-1.9735z"/></svg>
