<svg width="48" height="48" version="1.1" viewBox="0 0 48 48" xml:space="preserve" xmlns="http://www.w3.org/2000/svg"><g fill="none" stroke="#fff"><path d="m26.084 39.991c3.5915-1.7959 5.9738-3.4747 8.3968-5.9171 1.6581-1.6713 2.8386-3.393 3.3353-4.8643 0.13871-0.41085 0.36468-1.0409 0.50215-1.4001 0.19304-0.50439 0.2651-2.7392 0.3165-9.8155l0.066553-9.1624-0.98828-1.1745h-27.183l-0.38674 0.49166c-0.37904 0.48188-0.38668 0.66836-0.38398 9.3765 0.00294 9.4559 0.047352 10.022 0.94549 12.057 1.6287 3.6898 5.4882 7.2318 11.073 10.162 2.4377 1.279 2.2613 1.2689 4.3057 0.24663z"/><path transform="translate(-1.643 3.4422)" d="m27.055 32.648-1.2204-0.63536-1.2152 0.6451 0.22715-1.357-0.98906-0.95641 1.3607-0.20329 0.60396-1.2362 0.61383 1.2313 1.3623 0.1924-0.98138 0.96429z" stroke-linecap="round" stroke-linejoin="round"/><g transform="matrix(1.525 0 0 1.525 -33.123 -86.485)" stroke-linecap="round" stroke-linejoin="round"><path class="r" d="m34.8 68.5c1.1046 0 2 0.89543 2 2 0 1.1046-0.89544 2-2 2h-3.3v-8l3.3 4e-6c1.1046 0 2 0.89543 2 2 0 1.1046-0.89544 2-2 2z"/><line class="r" x1="34.8" x2="31.5" y1="68.5" y2="68.5"/></g><g transform="matrix(1.525 0 0 1.525 -7.4289 -86.343)" stroke-linecap="round" stroke-linejoin="round"><line class="r" x1="25.922" x2="22.378" y1="69.85" y2="69.85"/><polyline class="r" transform="translate(-65.684 23.85)" points="87.184 48.65 89.834 40.65 92.484 48.65"/></g></g></svg>
