<?xml version="1.0" encoding="UTF-8" standalone="no"?>
<svg
   viewBox="0 0 48 48"
   version="1.1"
   id="svg1"
   sodipodi:docname="bhop_pro.svg"
   inkscape:version="1.2.2 (b0a8486541, 2022-12-01)"
   xml:space="preserve"
   xmlns:inkscape="http://www.inkscape.org/namespaces/inkscape"
   xmlns:sodipodi="http://sodipodi.sourceforge.net/DTD/sodipodi-0.dtd"
   xmlns="http://www.w3.org/2000/svg"
   xmlns:svg="http://www.w3.org/2000/svg"><sodipodi:namedview
     id="namedview1"
     pagecolor="#505050"
     bordercolor="#eeeeee"
     borderopacity="1"
     inkscape:showpageshadow="0"
     inkscape:pageopacity="0"
     inkscape:pagecheckerboard="0"
     inkscape:deskcolor="#505050"
     inkscape:zoom="8.90625"
     inkscape:cx="-9.2070175"
     inkscape:cy="30.652632"
     inkscape:window-width="1918"
     inkscape:window-height="1053"
     inkscape:window-x="0"
     inkscape:window-y="0"
     inkscape:window-maximized="1"
     inkscape:current-layer="svg1"
     showgrid="false" /><defs
     id="defs1"><style
       id="style1">.a { fill:none;stroke:#fff;stroke-linecap:round;stroke-linejoin:round; }
</style></defs><path
     style="fill:none;stroke:#ffffff;stroke-width:1;stroke-linecap:round;stroke-linejoin:round;stroke-opacity:1;stop-color:#000000"
     d="m 19.220175,32.116673 0.08148,-5.904063 0.308528,-0.911678 0.06498,-3.571216 -0.359095,-0.804717 0.04983,-3.670907 c 0.291148,-0.351122 1.051105,-0.36801 1.811852,-0.384327 l -0.07573,-2.686822 c -0.05047,-1.790125 1.544322,-3.301255 2.564674,-4.031301 0.653619,-0.01873 1.545119,0.147159 1.763721,-0.2091737 -0.427027,-1.394664 -0.0332,-2.281404 0.353373,-3.1711788 l 1.863991,-1.2163064 c 2.190145,-0.2615649 2.746224,0.3856625 4.164213,1.8016917 0.09936,0.7211956 0.208503,1.5703437 -0.09794,2.1037656 l -0.659116,0.384986 -0.153348,0.8230056 1.044674,0.353564 c 0.831518,1.573803 0.956504,2.315316 1.687671,5.11209 l 1.40373,-1.00566 c 0.171308,-1.574003 0.487194,-2.801137 1.107739,-3.859863 0.284894,-0.486063 0.512935,-0.652187 0.362498,-1.043464 L 36.114474,9.7881224 C 35.595477,9.0497889 35.363842,7.9614018 35.200732,6.9003614 35.128034,6.4274526 35.142416,6.039998 35.159883,5.6251291 l 1.355797,1.3973866 c 0.504214,1.3088577 0.955423,2.3289606 0.877704,3.1768913 l 1.629457,-0.178168 c 0.368331,-0.040274 0.443927,0.611896 0.114173,0.705195 l -0.813055,0.230042 0.664358,0.681603 0.178343,0.739044 c -0.32914,0.691756 -0.946648,1.360419 -1.467137,1.670127 0.06755,1.272733 0.148755,1.797856 -0.147183,2.37427 l -0.56553,0.123261 0.20893,1.122579 c -0.482168,0.93823 -1.142368,1.372656 -2.000183,1.909109 -0.464126,0.0046 -0.809339,0.118558 -1.405886,0.0079 -1.259124,-0.23362 -1.339629,-0.913717 -2.913227,-1.313657 l -0.270215,0.59455 0.867612,0.642607 c 0.363312,1.174967 0.276483,2.474523 0.07364,3.524899 l -0.750317,1.433005 -1.022127,0.216825 0.105921,1.53017 c 1.869487,1.655118 2.408859,3.148362 3.14765,5.560914 1.119341,1.076582 1.162568,2.102911 0.719646,2.508204 -0.748217,0.684655 -1.947701,1.100558 -3.16053,1.659441 l -1.674294,1.124417 c -0.23458,0.157538 -0.459311,-0.0946 -0.629546,-0.247049 l -2.07275,1.236086 c -0.100938,0.758965 -0.457426,1.48376 -0.662354,1.968897 0.264363,0.775056 0.391177,1.482453 -0.0044,1.989804 l 0.126384,0.3772 -0.841245,0.109335 c -0.29954,-0.306091 -0.428495,-0.68072 -0.430475,-1.106362 -0.86527,-1.195588 -1.600037,-2.517248 -1.489413,-3.546277 l -0.807685,-0.851427 0.391814,-0.73578 c 0.44874,-0.18476 0.897481,-0.219944 1.346221,-0.120936 0.526961,-0.558606 1.408805,-0.781486 2.341237,-1.538693 0.471654,-0.383019 1.035963,-0.866707 1.696136,-1.772197 C 27.32032,31.97967 26.76999,30.75032 25.908353,30.408026 l -0.257121,0.211926 -0.35611,-0.444959 c -0.26776,-0.05413 -0.622224,0.340692 -1.375719,1.539561 l -0.418362,0.281552 0.526102,0.437681 c -0.751876,0.859703 -0.396568,1.39141 -1.061069,2.11774 l -1.064631,0.06205 c -0.123228,0.159715 -0.199565,0.341929 -0.462111,0.448923 -0.807623,0.329123 -1.102635,-0.183106 -1.759538,0.07261 l -0.662413,0.649033 -0.328567,0.573335 c -0.409696,0.03034 -0.790781,-0.04673 -1.252206,0.177783 -0.518036,0.228797 -0.424612,0.465342 -1.142976,0.804551 -0.541899,0.255883 -1.294634,0.538514 -2.016695,0.0039 -2.012737,1.75817 -3.099491,2.045369 -3.282627,3.790848 L 10.394373,41.04811 C 10.09487,39.945416 10.09737,39.70736 9.4685499,39.232145 8.529404,38.522409 8.4901766,38.22711 8.8872968,37.772853 l 0.5083981,-0.03682 C 10.635098,36.33105 10.938303,36.000914 12.289762,35.846152 l 0.477557,-0.297469 -0.01232,-0.8805 0.334261,-0.538142 0.630376,-0.04109 c 0.791356,-0.46003 1.10425,-0.578026 1.658982,-0.274623 l 0.616216,-0.898093 c 1.92487,-0.772619 2.433577,-0.777064 3.225339,-0.799568 z"
     id="path24823"
     sodipodi:nodetypes="ccscccssccccccccsccccscccccccccccccscccccccccscscccccccccccscccccccccsccccscccscccccccccc" /></svg>
