<?xml version="1.0" encoding="UTF-8"?><svg id="a" xmlns="http://www.w3.org/2000/svg" viewBox="0 0 48 48"><defs><style>.ak{fill:none;stroke:#fff;stroke-linecap:round;stroke-linejoin:round;}</style></defs><g id="b"><g id="c"><g id="d"><path id="e" class="ak" d="M14.83194473,35.86403272c.25822163,3.19575882-.96998596,5.89691925-3.06177044,6.35864639-1.91240025.42213821-3.9752264-1.15367126-5.1850462-3.72063446"/><path id="f" class="ak" d="M12.1664479,29.65107725c.1134367.11209679.22476196.23022842.3336792.3541069"/><path id="g" class="ak" d="M5.54541853,33.96708677c-.03006315-2.86919785,1.16487551-5.20252609,3.09527922-5.62863159.34505463-.07616043.69500732-.08728027,1.04396152-.03927994"/></g><path id="h" class="ak" d="M5.50009372,36.47769544l3.70646-1.18949127"/><g id="i"><path id="j" class="ak" d="M16.6956351,33.70442579c-.87905025.23603058-1.85830593-.55650711-2.18723106-1.77018929-.32892418-1.21368217.11704063-2.38890648.99609089-2.62493896s1.85830593.55650711,2.18723011,1.77018929"/><path id="k" class="ak" d="M9.28512886,34.43212126l5.74325371-4.89961815"/><path id="l" class="ak" d="M9.57081916,35.67891691l6.88965321-1.93512344"/><path id="m" class="ak" d="M15.80156734,31.83271215c2.87101364.86667442,4.21130943,1.29614449,5.45012093,2.11483192-.91197968.56611252-2.82181168.92463303-4.11956024.71607208"/></g></g><g id="n"><g id="o"><path id="p" class="ak" d="M26.72427204,20.10749052c.48092461-1.04537582,1.20573616-1.87728119,2.16786766-2.39833832,3.45308495-1.8700695,8.65543556.97208977,11.61977196,6.34814072,2.9643364,5.37604904,2.56812668,11.25019073-.88496017,13.12025833-3.16348648,1.71323395-7.79513168-.52850723-10.82907295-5.0502739"/><path id="q" class="ak" d="M26.77180889,28.02666662c-.3129673-.93392372-.52749443-1.85956573-.64513779-2.7538147"/></g><g id="r"><path id="s" class="ak" d="M31.6921561,28.06933592l-3.92911148,1.76215172"/><path id="t" class="ak" d="M37.54697635,25.44353102l-4.17567062,1.87273026"/><path id="u" class="ak" d="M25.45542362,18.18853567c-.75115967,1.08225441-.64813042,2.0425415.03778076,3.1469574l5.07344246,8.16897583"/><path id="v" class="ak" d="M28.98789623,19.85395048l4.88822746,7.93540764"/><path id="w" class="ak" d="M33.47840717,27.56574056c.17925644.58378792-.07347488,1.17926788-.56449127,1.33003426v.00000191c-.49101257.15076828-1.03437614-.20026398-1.21363258-.78405571-.17925453-.58378983.07347298-1.17926788.56448936-1.33003616s1.03437805.20026398,1.21363449.7840538v.00000191Z"/></g></g><g id="x"><path id="y" class="ak" d="M23.90621021,15.21696279l-12.26593113,11.8794384-2.53878403,6.66286469.42821217,2.22234344"/><path id="z" class="ak" d="M12.15354183,23.50192259l2.84511471,4.33555984"/><path id="aa" class="ak" d="M9.15550163,23.32202719c2.47028255-.50790596,2.78512573-1.86404228,4.67019272-3.10266685"/><path id="ab" class="ak" d="M24.35978344,16.22679708l-6.11310005,12.7260437"/><path id="ac" class="ak" d="M22.80509403,13.54874418l4.09498215,6.20677948"/><path id="ad" class="ak" d="M13.82780292,26.05706404l-.76139259,2.20512772"/></g><g id="ae"><path id="af" class="ak" d="M6.83468845,9.54784582l5.17590237-1.3806839"/><path id="ag" class="ak" d="M25.99289348,5.70918987l2.46651459.02208805"/><path id="ah" class="ak" d="M17.35069683,8.43952368l6.68958282-1.24750757"/><path id="ai" class="ak" d="M23.19862583,10.94254301l.75265884,1.10209274"/><path id="aj" class="ak" d="M13.3374541,7.78732584c1.58053589-.40105343,2.86216927.70590687,4.33568954,1.72234058,1.74348259,1.20265484,2.65077019,3.2514143,5.39123344,2.85264778,0,0,1.19695091-.2304163,1.66426468-.58786201.40727997-.31152534.56396675-1.20598507.45224571-1.68387127l-.79510689-3.40105295c-.06105614-.26116943-.13252449-.67417479.3526516-.86793184"/></g></g></svg>