<?xml version="1.0" encoding="UTF-8" standalone="no"?>
<svg
   id="Layer_1"
   data-name="Layer 1"
   version="1.1"
   viewBox="0 0 48 48"
   sodipodi:docname="bim.svg"
   inkscape:version="1.1.2 (0a00cf5339, 2022-02-04)"
   xmlns:inkscape="http://www.inkscape.org/namespaces/inkscape"
   xmlns:sodipodi="http://sodipodi.sourceforge.net/DTD/sodipodi-0.dtd"
   xmlns="http://www.w3.org/2000/svg"
   xmlns:svg="http://www.w3.org/2000/svg">
  <sodipodi:namedview
     id="namedview9"
     pagecolor="#ffffff"
     bordercolor="#666666"
     borderopacity="1.0"
     inkscape:pageshadow="2"
     inkscape:pageopacity="0.0"
     inkscape:pagecheckerboard="0"
     showgrid="false"
     inkscape:zoom="8"
     inkscape:cx="35.8125"
     inkscape:cy="21.5"
     inkscape:window-width="1680"
     inkscape:window-height="988"
     inkscape:window-x="0"
     inkscape:window-y="25"
     inkscape:window-maximized="1"
     inkscape:current-layer="Layer_1" />
  <defs
     id="defs4">
    <style
       id="style2">
      .cls-1 {
        fill: none;
        stroke: #fff;
        stroke-linecap: round;
        stroke-linejoin: round;
      }
    </style>
  </defs>
  <path
     id="circle6"
     style="fill:none;stroke:#000020;stroke-width:1;stroke-linecap:round;stroke-linejoin:round;stroke-miterlimit:4;stroke-dasharray:none;stroke-opacity:1"
     class="a"
     d="m 33.408579,11.566647 c -0.06969,0.992132 -1.021624,2.597706 0.112571,3.660928 3.011279,2.822829 4.232225,6.141254 4.232225,10.594418 0,8.544728 -6.926869,15.471599 -15.471597,15.471599 -8.544728,1e-6 -15.4716005,-6.926871 -15.471599,-15.471599 0,-8.544728 6.926871,-15.471597 15.471599,-15.471597 1.082031,0 2.138122,0.111079 3.157486,0.322449 0.07362,0.01527 2.059107,-2.0575241 2.132335,-2.0412163 3.002615,-0.2513286 5.190346,1.0183316 5.836975,2.9350183 z"
     sodipodi:nodetypes="csssssscc" />
  <path
     style="fill:none;stroke:#000020;stroke-width:1;stroke-linecap:round;stroke-linejoin:round;stroke-miterlimit:4;stroke-dasharray:none;stroke-opacity:1;paint-order:stroke fill markers"
     d="m 31.411526,8.5969546 c 2.793824,-4.182418 7.688437,-0.5018357 6.270465,2.3718444"
     id="path3066"
     sodipodi:nodetypes="cc" />
  <path
     style="fill:none;stroke:#000020;stroke-width:1;stroke-linecap:round;stroke-linejoin:round;stroke-miterlimit:4;stroke-dasharray:none;stroke-opacity:1"
     d="m 10.929025,21.991117 c -0.560077,7.133551 1.716546,8.460082 3.226296,2.793435 0,0 -3.208561,-3.019334 -3.226296,-2.793435 z"
     id="path4165"
     sodipodi:nodetypes="ccc" />
  <path
     style="fill:none;stroke:#000020;stroke-width:1;stroke-linecap:round;stroke-linejoin:round;stroke-miterlimit:4;stroke-dasharray:none;stroke-opacity:1"
     d="m 16.379016,24.912037 c 0.368348,8.016156 4.156939,3.516573 4.326226,-1.704189 0.0064,-0.198935 -4.326226,1.704189 -4.326226,1.704189 z"
     id="path4409"
     sodipodi:nodetypes="ccc" />
  <path
     style="fill:none;stroke:#000020;stroke-width:1;stroke-linecap:round;stroke-linejoin:round;stroke-opacity:1;paint-order:stroke fill markers;stroke-miterlimit:4;stroke-dasharray:none"
     d="m 36.200417,10.883804 c 0,0 -0.47347,-0.256999 -0.916711,-0.215911"
     id="path7198"
     sodipodi:nodetypes="cc" />
  <path
     style="fill:none;stroke:#000020;stroke-width:1;stroke-linecap:round;stroke-linejoin:round;stroke-opacity:1;paint-order:stroke fill markers;stroke-miterlimit:4;stroke-dasharray:none"
     d="m 36.693138,12.43979 c -0.123264,0.347883 -0.327516,0.630904 -0.488328,0.73887"
     id="path7200"
     sodipodi:nodetypes="cc" />
  <path
     style="fill:none;stroke:#000020;stroke-width:1;stroke-linecap:round;stroke-linejoin:round;stroke-opacity:1;paint-order:stroke fill markers;stroke-miterlimit:4;stroke-dasharray:none"
     d="m 38.44654,12.443584 c 0.294624,0.154939 0.531237,0.447587 0.618166,0.70561"
     id="path7202"
     sodipodi:nodetypes="cc" />
  <path
     style="fill:none;stroke:#000020;stroke-width:1;stroke-linecap:round;stroke-linejoin:round;stroke-opacity:1;paint-order:stroke fill markers;stroke-miterlimit:4;stroke-dasharray:none"
     d="m 39.34254,11.092017 c 0.296326,-0.02072 0.56392,-0.121612 0.853563,-0.166374"
     id="path7204" />
</svg>
