<?xml version="1.0" encoding="UTF-8" standalone="no"?>
<svg
   viewBox="0 0 48 48"
   version="1.1"
   id="svg856"
   sodipodi:docname="authenticator.svg"
   inkscape:version="1.1.2 (0a00cf5339, 2022-02-04)"
   xmlns:inkscape="http://www.inkscape.org/namespaces/inkscape"
   xmlns:sodipodi="http://sodipodi.sourceforge.net/DTD/sodipodi-0.dtd"
   xmlns="http://www.w3.org/2000/svg"
   xmlns:svg="http://www.w3.org/2000/svg">
  <sodipodi:namedview
     id="namedview858"
     pagecolor="#505050"
     bordercolor="#ffffff"
     borderopacity="1"
     inkscape:pageshadow="0"
     inkscape:pageopacity="0"
     inkscape:pagecheckerboard="1"
     showgrid="false"
     inkscape:lockguides="false"
     inkscape:zoom="8"
     inkscape:cx="23.8125"
     inkscape:cy="24.625"
     inkscape:window-width="1600"
     inkscape:window-height="783"
     inkscape:window-x="0"
     inkscape:window-y="32"
     inkscape:window-maximized="1"
     inkscape:current-layer="layer2" />
  <defs
     id="defs852">
    <style
       id="style850">.a{fill:none;stroke:#000;}</style>
    <style
       id="style2390">.cls-1{fill:none;stroke:#fff;stroke-linecap:round;stroke-linejoin:round;}</style>
    <style
       id="style2485">.cls-1{fill:none;stroke:#fff;stroke-linecap:round;stroke-linejoin:round;}</style>
    <style
       id="style3996">.a{fill:none;stroke:#fff;stroke-linecap:round;stroke-linejoin:round;}</style>
  </defs>
  <g
     inkscape:groupmode="layer"
     id="layer2"
     inkscape:label="Layer 2"
     style="display:inline">
    <path
       class="cls-1"
       d="M 33.565653,25.523492 V 13.310697 h -8.866906 v 21.684094 a 27.216265,26.235723 0 0 0 4.215286,-2.613807 q 4.674995,-3.5001 4.674995,-6.865003 z m 3.794539,-14.64634 v 14.64634 a 9.0227407,8.6976728 0 0 1 -0.662291,3.282282 12.638071,12.18275 0 0 1 -1.644041,2.861671 18.325981,17.665739 0 0 1 -2.337497,2.433544 27.169515,26.19066 0 0 1 -2.508916,1.967867 c -0.779166,0.518255 -1.55833,1.013978 -2.392037,1.502189 -0.83371,0.488212 -1.418082,0.751093 -1.768707,0.94638 l -0.8415,0.383056 a 1.1921238,1.1491744 0 0 1 -1.028498,0 l -0.8415,-0.383056 c -0.350623,-0.165243 -0.942789,-0.480702 -1.768706,-0.94638 -0.825915,-0.465678 -1.628455,-0.953889 -2.39204,-1.502189 A 27.169515,26.19066 0 0 1 16.673337,34.063435 18.325981,17.665739 0 0 1 14.335839,31.629887 12.638071,12.18275 0 0 1 12.69959,28.805774 9.0227407,8.6976728 0 0 1 12.0373,25.561048 V 10.877152 a 1.2778321,1.2317947 0 0 1 1.27004,-1.2242827 h 22.782811 a 1.2778321,1.2317947 0 0 1 1.270041,1.2242827 z"
       id="path2489"
       style="stroke-width:1;stroke-miterlimit:4;stroke-dasharray:none" />
    <path
       style="display:inline;fill:none;stroke:#ffffff;stroke-width:1;stroke-linecap:round;stroke-linejoin:round;stroke-miterlimit:4;stroke-dasharray:none;stroke-opacity:1"
       d="m 17.747515,42.012869 c 0,0 -7.297071,0.805864 -9.8630801,-0.665918 C 5.7029109,40.095697 5.8470418,34.636769 5.9568713,30.027418"
       id="path991-5-2"
       sodipodi:nodetypes="csc" />
    <path
       style="display:inline;fill:none;stroke:#ffffff;stroke-width:1;stroke-linecap:round;stroke-linejoin:round;stroke-miterlimit:4;stroke-dasharray:none;stroke-opacity:1"
       d="m 31.253757,4.7144196 c 0,0 7.297071,-0.805864 9.86308,0.665918 2.181524,1.251254 2.037393,6.7101824 1.927564,11.3195334"
       id="path991-5-2-9"
       sodipodi:nodetypes="csc" />
    <path
       style="display:inline;fill:none;stroke:#ffffff;stroke-width:1;stroke-linecap:round;stroke-linejoin:round;stroke-miterlimit:4;stroke-dasharray:none;stroke-opacity:1"
       d="m 17.723121,4.6055645 c 0,0 -7.297071,-0.805864 -9.8630799,0.665918 -2.181524,1.251254 -2.037393,6.7101825 -1.927564,11.3195335"
       id="path991-5-2-2"
       sodipodi:nodetypes="csc" />
    <path
       style="display:inline;fill:none;stroke:#ffffff;stroke-width:1;stroke-linecap:round;stroke-linejoin:round;stroke-miterlimit:4;stroke-dasharray:none;stroke-opacity:1"
       d="m 31.29571,42.075939 c 0,0 7.297071,0.805864 9.86308,-0.665918 2.181524,-1.251254 2.037393,-6.710182 1.927564,-11.319533"
       id="path991-5-2-7"
       sodipodi:nodetypes="csc" />
  </g>
</svg>
