<?xml version="1.0" encoding="UTF-8"?>
<svg version="1.1" viewBox="0 0 48 48" xmlns="http://www.w3.org/2000/svg">
 <defs>
  <style>.r{fill:none;stroke:#fff;stroke-linecap:round;stroke-linejoin:round;}</style>
 </defs>
 <path class="r" d="m13.649 6.8954 4.4803 0.79399s-0.07022 0.56914-0.61797 3.6467c-0.10534 0.6113-0.27387 1.5809-0.37921 2.1571-0.05618 0.33727-0.14747 0.8502-0.21769 1.2156l0.70224-0.07729a7.7246 7.7291 0 0 1 4.9157 1.328c0.03512-0.16864 0.07022-0.33727 0.11236-0.5059a43.426 43.452 0 0 1 1.8609-6.3238c0.30898-0.73778 0.93397-2.2274 0.93397-2.2274l4.4943 0.80101s-0.07022 0.56914-0.61797 3.6467c-0.10534 0.6113-0.2809 1.5809-0.37921 2.1501-0.05618 0.3443-0.14747 0.85723-0.21769 1.2226l0.70224-0.07729a7.7246 7.7291 0 0 1 8.2302 6.5978 10.147 10.153 0 0 1-0.07022 2.663 7.7246 7.7291 0 0 1-6.8538 6.1411 5.9269 5.9303 0 0 1-1.4045 0 7.8229 7.8275 0 0 1-4.6909-2.2695c-0.16152-0.16863-0.31601-0.33727-0.46348-0.51996a7.6825 7.6869 0 0 1-5.2387 2.8106 5.9339 5.9373 0 0 1-1.4045 0 7.8229 7.8275 0 0 1-4.726-2.3117 8.6726 8.6777 0 0 1-2.0646-3.6467 18.258 18.269 0 0 1-0.29494-6.3238 21.847 21.859 0 0 1 0.40028-2.3328 43.426 43.452 0 0 1 1.8609-6.3238c0.29494-0.76589 0.92695-2.2485 0.92695-2.2485zm10.534 20.377a7.9002 7.9047 0 0 0 1.6151-3.3657 9.9156 9.9213 0 0 0 0.07022-2.67 7.7246 7.7291 0 0 0-3.2935-5.2628c-0.1264 0.60428-0.21769 1.1875-0.28792 1.8269a18.258 18.269 0 0 0 0.29494 6.3238 9.2976 9.303 0 0 0 1.6011 3.1338z"/>
 <path class="r" d="m33.725 37.292v2.2016c0 0.90068-0.7292 1.6308-1.6287 1.6308h-9e-6c-0.44973 0-0.8569-0.18253-1.1516-0.47763"/>
 <path class="r" d="m33.725 34.601v2.6909c0 0.90068-0.7292 1.6308-1.6287 1.6308h-9e-6c-0.89951 0-1.6287-0.73015-1.6287-1.6308v-2.6909"/>
 <ellipse class="r" cx="25.498" cy="32.597" rx=".57005" ry=".57079"/>
 <line class="r" x1="25.498" x2="25.498" y1="34.595" y2="38.917"/>
 <path class="r" d="m27.682 32.393v5.7079c0 0.45034 0.36459 0.81542 0.81435 0.81542h0.2443"/>
 <path class="r" d="m14.275 38.917v-6.5233h1.4658c1.5741 0 2.8502 1.2778 2.8502 2.854v0.81541c0 1.5762-1.2761 2.854-2.8502 2.854z"/>
 <path class="r" d="m23.463 37.286c0 0.90068-0.72366 1.6308-1.6163 1.6308h-0.56725c-0.59141 0-1.0708-0.48372-1.0708-1.0804 0-0.5967 0.47942-1.0804 1.0708-1.0804l2.1866 2e-6"/>
 <path class="r" d="m20.615 35.023c0.39248-0.3936 0.66755-0.42809 1.4251-0.42809 0.86001 0 1.4251 0.37877 1.4251 1.4026v2.9191"/>
</svg>
