<svg width="48" height="48" version="1.1" viewBox="0 0 48 48" xml:space="preserve" xmlns="http://www.w3.org/2000/svg" xmlns:xlink="http://www.w3.org/1999/xlink"><g fill="none" stroke="#fff" stroke-linecap="round" stroke-linejoin="round"><path d="m24 7.0625a16.938 16.938 0 0 0-7.5488 1.7754c0.27684 0.23386 0.53648 0.46642 0.76758 0.69336 1.9258 1.8911 3.0888 4.3465 3.8887 6.6934 0.68989 2.0243 0.86133 4.0254 0.68945 7.7285-2.125-1.9375-3.622-3.4733-5.1582-5.2344-1.9999-2.2927-2.9677-4.181-3.8223-6.748-0.05661-0.17005-0.11145-0.3526-0.16406-0.54492a16.938 16.938 0 0 0-4.8926 7.7617c0.5849-0.10176 1.3747-0.20084 2.2324-0.20117 0.58892-2.25e-4 1.2106 0.04612 1.8203 0.16992 1.7741 0.36025 3.6875 1.0625 4.5625 1.6875s1.9881 1.4233 2.7812 2.4375l1.9062 2.4375s-1.8709 0.2949-5.0312-0.4375c-2.2102-0.5122-4-1.9062-4.9375-2.5312-0.65143-0.43428-2.4942-1.8792-3.5586-2.7207a16.938 16.938 0 0 0-0.47266 3.9707 16.938 16.938 0 0 0 9.8945 15.404c-0.015921-0.57401-0.026525-1.2192-0.019531-1.998 0.014587-1.6248 0.3125-3.2188 0.5625-4.2812s1-2.9375 1-2.9375 1.0625 3.0625 1.6875 4.375 1.0625 1.8438 2 2.6875c-0.6875 0.1875-1.1778 0.34851-1.8438 0.75-0.57462 0.34642-1.1525 0.84172-1.6875 1.3125-0.22918 0.20169-0.41467 0.37645-0.60352 0.54688a16.938 16.938 0 0 0 5.9473 1.0781 16.938 16.938 0 0 0 16.924-16.27c-2.3413 0.27554-6.3418 0.77182-7.8613 1.1133-0.4375 0.9375-0.625 1.2734-1.5625 2.3984s-1.4844 1.5078-2.8594 2.1328-2.283 0.75488-4.0781 1c-2.2914 0.31289-4.4336 0.05469-4.4336 0.05469 0.43485-2.0109 0.42952-2.6822 1.2988-4.0371 0.96623-1.5059 2.0098-2.1426 2.0098-2.1426l-0.46875-5.75 2.7188 4.3438s0.77994-0.32208 1.9375-0.78125c0.83395-0.33081 1.3866-0.47438 3.375-0.25 1.3371 0.15089 2.0312 1.2188 2.0312 1.2188l7.9023 0.40625a16.938 16.938 0 0 0 0.003906-0.375 16.938 16.938 0 0 0-16.938-16.938z"/><path d="m18.5 30.188s-0.75 1.875-1 2.9375-0.54791 2.6564-0.5625 4.2812c-7e-3 0.77884 0.003601 1.424 0.019531 1.998 0.01283 0.46262 0.029019 0.87877 0.042969 1.2832 0.47103-0.3203 0.76599-0.56935 1.0527-0.82812 0.18885-0.17042 0.37434-0.34519 0.60352-0.54688 0.53495-0.47078 1.1129-0.96608 1.6875-1.3125 0.66595-0.40149 1.1562-0.5625 1.8438-0.75-0.9375-0.84375-1.375-1.375-2-2.6875s-1.6875-4.375-1.6875-4.375z"/><path d="m22.969 19.438 0.46875 5.75s-1.0435 0.63665-2.0098 2.1426c-0.8693 1.3549-0.86398 2.0263-1.2988 4.0371 0 0 2.1422 0.2582 4.4336-0.054688 1.7951-0.24512 2.7031-0.375 4.0781-1s1.9219-1.0078 2.8594-2.1328 1.125-1.4609 1.5625-2.3984c1.5195-0.34146 5.52-0.83774 7.8613-1.1133 1.0566-0.12435 1.7754-0.20312 1.7754-0.20312l-1.7656-0.089844-7.9023-0.40625s-0.69416-1.0679-2.0312-1.2188c-1.9884-0.22438-2.5411-0.08081-3.375 0.25-1.1576 0.45917-1.9375 0.78125-1.9375 0.78125l-2.7188-4.3438z"/><path d="m9.9922 18.986c-0.85768 3.28e-4 -1.6475 0.09941-2.2324 0.20117-0.61996 0.10786-1.0098 0.21875-1.0098 0.21875s0.31775 0.25348 0.78516 0.62305c1.0643 0.84155 2.9072 2.2864 3.5586 2.7207 0.9375 0.625 2.7273 2.019 4.9375 2.5312 3.1604 0.7324 5.0312 0.4375 5.0312 0.4375l-1.9062-2.4375c-0.79316-1.0142-1.9062-1.8125-2.7812-2.4375s-2.7884-1.3273-4.5625-1.6875c-0.60967-0.1238-1.2314-0.17015-1.8203-0.16992z"/><path d="m11.688 5.5s0.34024 3.6425 0.96484 5.9258c0.05261 0.19232 0.10745 0.37487 0.16406 0.54492 0.85457 2.567 1.8224 4.4554 3.8223 6.748 1.5362 1.7611 3.0332 3.2969 5.1582 5.2344 0.17188-3.7031 4.4e-4 -5.7042-0.68945-7.7285-0.79984-2.3469-1.9628-4.8022-3.8887-6.6934-0.2311-0.22694-0.49074-0.4595-0.76758-0.69336-1.9473-1.645-4.7637-3.3379-4.7637-3.3379z"/></g></svg>
