<svg xmlns="http://www.w3.org/2000/svg" xml:space="preserve" id="b" version="1.1" viewBox="0 0 48 48"><defs id="defs2641"><style id="style2639">.z{fill:#fff;stroke-width:0}</style></defs><circle id="e" cx="19.1567" cy="19.0448" r=".75" class="z"/><circle id="h" cx="34.839901" cy="19.0448" r=".75" class="z"/><path id="path7306" d="M19.1567 22.345301V28.9412" style="fill:none;stroke:#fff;stroke-width:1;stroke-linecap:round;stroke-linejoin:round;stroke-dashoffset:1.3;stroke-opacity:1"/><path id="path7304" d="M34.839901 22.345301V28.9412" style="fill:none;stroke:#fff;stroke-width:1;stroke-linecap:round;stroke-linejoin:round;stroke-dashoffset:1.3;stroke-opacity:1"/><path id="path7302" d="M15.504 19.1695v8.5502c0 .7329.4886 1.2215 1.2215 1.2215h.3664" style="fill:none;stroke:#fff;stroke-width:1;stroke-linecap:round;stroke-linejoin:round;stroke-dashoffset:1.3;stroke-opacity:1"/><path id="path7300" d="M38.1184 20.391v7.3287c0 .7329.4886 1.2214 1.2215 1.2214h.3664" style="fill:none;stroke:#fff;stroke-width:1;stroke-linecap:round;stroke-linejoin:round;stroke-dashoffset:1.3;stroke-opacity:1"/><path id="path7298" d="M36.774799 22.345301h2.687203" style="fill:none;stroke:#fff;stroke-width:1;stroke-linecap:round;stroke-linejoin:round;stroke-dashoffset:1.3;stroke-opacity:1"/><path id="path7296" d="M25.9774 28.9412v-4.0308c0-1.3436-1.0993-2.4429-2.4429-2.4429v0c-1.3436 0-2.4429 1.0993-2.4429 2.4429" style="fill:none;stroke:#fff;stroke-width:1;stroke-linecap:round;stroke-linejoin:round;stroke-dashoffset:1.3;stroke-opacity:1"/><path id="path7294" d="M21.0916 28.9412v-6.595899" style="fill:none;stroke:#fff;stroke-width:1;stroke-linecap:round;stroke-linejoin:round;stroke-dashoffset:1.3;stroke-opacity:1"/><path id="path7292" d="M8.7063 24.7882c0-1.3436 1.0993-2.4429 2.4429-2.4429v0c1.3436 0 2.4429 1.0993 2.4429 2.4429v1.5879c0 1.3436-1.0993 2.4429-2.4429 2.4429v0c-1.3436 0-2.4429-1.0993-2.4429-2.4429" style="fill:none;stroke:#fff;stroke-width:1;stroke-linecap:round;stroke-linejoin:round;stroke-dashoffset:1.3;stroke-opacity:1"/><path id="path7290" d="M8.7062998 28.9412v-9.7716" style="fill:none;stroke:#fff;stroke-width:1;stroke-linecap:round;stroke-linejoin:round;stroke-dashoffset:1.3;stroke-opacity:1"/><path id="path7288" d="M27.889299 19.0474v9.8938" style="fill:none;stroke:#fff;stroke-width:1;stroke-linecap:round;stroke-linejoin:round;stroke-dashoffset:1.3;stroke-opacity:1"/><path id="path7286" d="m27.889299 26.8647 4.3972-4.519399" style="fill:none;stroke:#fff;stroke-width:1;stroke-linecap:round;stroke-linejoin:round;stroke-dashoffset:1.3;stroke-opacity:1"/><path id="path7284" d="m29.355101 25.399 3.42 3.42" style="fill:none;stroke:#fff;stroke-width:1;stroke-linecap:round;stroke-linejoin:round;stroke-dashoffset:1.3;stroke-opacity:1"/><path id="path7282" d="M32.576605 42.499999 9.5 42.5c-2.2159978 0-4-1.784002-4-4v-29c0-2.2159978 1.7840022-4 4-4v0h29c2.215998 0 4 1.7840022 4 4v23.20421" style="fill:none;stroke:#fff;stroke-width:1;stroke-linecap:round;stroke-linejoin:round;stroke-dashoffset:1.3;stroke-opacity:1"/><path id="path7280" d="M45.5 38.5a7 7 0 0 1-7 7 7 7 0 0 1-7-7 7 7 0 0 1 7-7 7 7 0 0 1 7 7" style="fill:none;stroke:#fff;stroke-width:1;stroke-linecap:round;stroke-linejoin:round;stroke-dashoffset:1.3;stroke-opacity:1"/><path id="path11255" d="M36.266768 36.618021c-.113613.831348-.143384 1.548999.403916 1.930397-.015-1.670503 1.475202-1.978941 1.434851-3.442063-.0096-.346619-.122509-.738979-.483434-1.22066 1.136181-.317913 2.017279.491253 2.384311 1.486088.586256 1.58904-.119854 2.148744.156214 2.968256.152064.451402.976499.506897 1.212766-.08865 1.139498 1.306825.66868 3.140816-.375151 4.002673-1.554178 1.283236-3.478 1.225029-4.902568.01917-1.424568-1.20586-1.652306-4.499914.169095-5.655205z" style="fill:none;stroke:#fff;stroke-width:1;stroke-linecap:round;stroke-linejoin:round;stroke-dashoffset:1.3;stroke-opacity:1"/></svg>