<svg width="48" height="48" viewBox="0 0 48 48" fill="none" xmlns="http://www.w3.org/2000/svg">
<path d="M13.1572 24.7979L26.4552 7.70052C26.5283 7.60646 26.6751 7.69623 26.6247 7.8042L20.0664 21.8577C20.0355 21.924 20.0839 22 20.1571 22H29.7918C29.9145 22 29.9293 22.1785 29.8082 22.1986L13.2526 24.9579C13.1628 24.9729 13.1013 24.8698 13.1572 24.7979Z" stroke="white" stroke-linecap="round"/>
<path d="M34.8428 24.2021L21.5449 41.2995C21.4717 41.3935 21.3249 41.3038 21.3753 41.1958L27.9336 27.1423C27.9646 27.076 27.9162 27 27.843 27H18.2083C18.0856 27 18.0708 26.8215 18.1919 26.8014L34.7474 24.0421C34.8373 24.0271 34.8987 24.1302 34.8428 24.2021Z" stroke="white" stroke-linecap="round"/>
</svg>
