<svg xmlns="http://www.w3.org/2000/svg" viewBox="0 0 48 48"><path style="fill:none;stroke-linejoin:round;stroke:#fff;fill-opacity:0;transform-origin:31.26px 25.461px 0" d="M31.254 33.719c7.581 0 12.321-8.207 8.53-14.773s-13.268-6.565-17.06 0c-3.058 5.299-.596 12.076 5.151 14.175l1.058 3.778z" transform="rotate(33.783)"/><path class="r" d="M27.334 24.094a1.01 1.01 0 0 1 1.009 1.008 1.006 1.006 0 0 1-1.009 1.01h-1.666v-4.038h1.666a1.01 1.01 0 0 1 0 2.02m0 0h-1.666m4.322 2.014v-4.034l2.019 4.038 2.019-4.033v4.033m1.948 0v-4.038h.909c.975 0 1.767.79 1.767 1.766v.505a1.767 1.767 0 0 1-1.767 1.767zm-16.548-5.523a6.686 6.686 0 0 0-6.689-6.689 6.686 6.686 0 0 0-6.689 6.689v6.816a6.69 6.69 0 0 0 6.689 6.688 6.69 6.69 0 0 0 6.689-6.688h-6.689" style="fill:none;stroke-linecap:round;stroke-linejoin:round;stroke:#fff;fill-opacity:0"/></svg>