<?xml version="1.0" encoding="UTF-8" standalone="no"?>
<svg
   viewBox="0 0 48 48"
   version="1.1"
   id="svg1"
   sodipodi:docname="bmi_calculator.svg"
   inkscape:version="1.2.2 (b0a8486541, 2022-12-01)"
   xml:space="preserve"
   xmlns:inkscape="http://www.inkscape.org/namespaces/inkscape"
   xmlns:sodipodi="http://sodipodi.sourceforge.net/DTD/sodipodi-0.dtd"
   xmlns="http://www.w3.org/2000/svg"
   xmlns:svg="http://www.w3.org/2000/svg"><sodipodi:namedview
     id="namedview1"
     pagecolor="#505050"
     bordercolor="#eeeeee"
     borderopacity="1"
     inkscape:showpageshadow="0"
     inkscape:pageopacity="0"
     inkscape:pagecheckerboard="0"
     inkscape:deskcolor="#505050"
     inkscape:zoom="12.59534"
     inkscape:cx="-3.9697223"
     inkscape:cy="17.625567"
     inkscape:window-width="1918"
     inkscape:window-height="1053"
     inkscape:window-x="0"
     inkscape:window-y="0"
     inkscape:window-maximized="1"
     inkscape:current-layer="svg1"
     showgrid="false" /><defs
     id="defs1"><style
       id="style1">.a { fill:none;stroke:#fff;stroke-linecap:round;stroke-linejoin:round; }
</style></defs><g
     id="g17770"><path
       style="fill:none;stroke:#ffffff;stroke-width:1;stroke-linecap:round;stroke-linejoin:round;stroke-opacity:1;stop-color:#000000"
       d="m 24,5.5000007 a 7.9808739,5.78094 0 0 0 -6.947613,2.9466357 h -5.100485 c -3.2910396,0 -5.9405104,2.6490976 -5.9405104,5.9396746 v 22.174013 c 0,3.290577 2.6494708,5.939675 5.9405104,5.939675 h 24.096195 c 3.29104,0 5.940511,-2.649098 5.940511,-5.939675 V 14.386311 c 0,-3.290577 -2.649471,-5.9396746 -5.940511,-5.9396746 H 30.956895 A 7.9808739,5.78094 0 0 0 24,5.5000007 Z"
       id="path17729" /><g
       id="g17757"><path
         style="fill:none;stroke:#ffffff;stroke-width:1;stroke-linecap:round;stroke-linejoin:round;stroke-opacity:1;stop-color:#000000"
         d="m 24,8.5626453 c -3.896369,1e-6 -7.054357,3.2225827 -7.054357,6.7865427 h 4.773293 A 2.2944448,2.118642 0 0 1 24,13.342227 a 2.2944448,2.118642 0 0 1 2.290344,2.006961 h 4.764012 c 0,-3.56396 -3.157987,-6.7865417 -7.054356,-6.7865427 z"
         id="path17727" /><path
         style="fill:none;stroke:#ffffff;stroke-width:1;stroke-linecap:round;stroke-linejoin:round;stroke-opacity:1;stop-color:#000000"
         d="m 19.039186,10.592027 0.857402,0.857281"
         id="path17725" /><path
         style="fill:none;stroke:#ffffff;stroke-width:1;stroke-linecap:round;stroke-linejoin:round;stroke-opacity:1;stop-color:#000000"
         d="m 28.960814,10.592027 -0.857403,0.857281"
         id="path17723" /><path
         style="fill:none;stroke:#ffffff;stroke-width:1;stroke-linecap:round;stroke-linejoin:round;stroke-opacity:1;stop-color:#000000"
         d="m 24,10.489392 -2e-6,2.853783"
         id="path17721" /></g><g
       id="g17751"><path
         style="fill:none;stroke:#ffffff;stroke-width:1;stroke-linecap:round;stroke-linejoin:round;stroke-opacity:1;stop-color:#000000"
         d="m 27.981636,32.967396 c 3.103161,-2.921743 3.501534,-4.463595 3.501534,-6.443716 0,-1.903632 -1.760122,-3.880324 -3.931345,-3.880324 -1.710297,0 -3.16551,0.957539 -3.551825,2.29452 -0.386317,-1.336981 -1.841529,-2.29452 -3.551827,-2.29452 -2.171222,0 -3.931344,1.976692 -3.931344,3.880324 0,1.980121 0.398373,3.521973 3.501534,6.443716 1.555457,1.464521 2.643366,2.27352 3.981635,2.96347 1.338271,-0.68995 2.42618,-1.498949 3.981638,-2.96347 z"
         id="path17719" /><g
         id="g17745"><path
           style="fill:none;stroke:#ffffff;stroke-width:1;stroke-linecap:round;stroke-linejoin:round;stroke-opacity:1;stop-color:#000000"
           d="m 24,26.853064 v 5.946914"
           id="path17717" /><path
           style="fill:none;stroke:#ffffff;stroke-width:1;stroke-linecap:round;stroke-linejoin:round;stroke-opacity:1;stop-color:#000000"
           d="M 26.973875,29.826521 H 21.026124"
           id="path17707" /></g></g></g></svg>
