<?xml version="1.0" encoding="UTF-8" standalone="no"?>
<svg
   id="Layer_1"
   data-name="Layer 1"
   version="1.1"
   viewBox="0 0 48 48"
   sodipodi:docname="bml_mobile.svg"
   xml:space="preserve"
   inkscape:version="1.4.2 (ebf0e940d0, 2025-05-08)"
   xmlns:inkscape="http://www.inkscape.org/namespaces/inkscape"
   xmlns:sodipodi="http://sodipodi.sourceforge.net/DTD/sodipodi-0.dtd"
   xmlns="http://www.w3.org/2000/svg"
   xmlns:svg="http://www.w3.org/2000/svg"><sodipodi:namedview
     id="namedview1"
     pagecolor="#ffffff"
     bordercolor="#000000"
     borderopacity="0.25"
     inkscape:showpageshadow="2"
     inkscape:pageopacity="0.0"
     inkscape:pagecheckerboard="0"
     inkscape:deskcolor="#d1d1d1"
     inkscape:zoom="12.104167"
     inkscape:cx="24"
     inkscape:cy="24"
     inkscape:window-width="1440"
     inkscape:window-height="832"
     inkscape:window-x="0"
     inkscape:window-y="0"
     inkscape:window-maximized="1"
     inkscape:current-layer="Layer_1" /><defs
     id="defs1"><style
       id="style1">
      .cls-1 {
        fill: none;
        stroke: #fff;
        stroke-linecap: round;
        stroke-linejoin: round;
      }
    </style></defs><rect
     class="cls-1"
     x="5.5"
     y="5.5"
     width="37"
     height="37"
     rx="4"
     ry="4"
     id="rect1"
     style="stroke:#ffffff" /><g
     id="g10"
     transform="matrix(0.87899262,0,0,0.88013151,2.2227986,2.8109137)"
     style="stroke:#ffffff;stroke-width:1.13692"><path
       id="rect9"
       style="fill:none;stroke:#ffffff;stroke-width:1.13692;stroke-linecap:round;stroke-linejoin:round"
       d="m 14.12728,35.403786 -1.721111,-3.13213 h 24.737985 v 3.13213"
       sodipodi:nodetypes="cccc" /><path
       id="path9"
       style="fill:none;stroke:#ffffff;stroke-width:1.13692;stroke-linecap:round;stroke-linejoin:round"
       d="m 36.727014,38.047102 c -0.405502,0.284075 -0.965698,0.459779 -1.584472,0.459779 -0.618773,0 -1.178968,-0.175704 -1.58447,-0.45978 m -3.168942,1e-6 c -0.405502,0.284075 -0.965697,0.459779 -1.584471,0.459779 -0.618774,0 -1.17897,-0.175704 -1.584471,-0.45978 m 6.337884,0 C 33.15257,37.763026 32.592375,37.587322 31.9736,37.587322 c -0.618773,0 -1.178969,0.175704 -1.58447,0.45978 m -3.168942,-1e-6 c -0.4055,-0.284075 -0.965695,-0.459779 -1.584471,-0.459779 -0.618774,0 -1.17897,0.175704 -1.584469,0.45978 m 0,0 c -0.405502,0.284075 -0.965697,0.459779 -1.584472,0.459779 -0.618773,0 -1.178969,-0.175704 -1.58447,-0.45978 m 0,0 c -0.405502,-0.284075 -0.965697,-0.459779 -1.584471,-0.459779 -0.618775,0 -1.178969,0.175704 -1.584472,0.45978 m 0,0 c -0.4055,0.284075 -0.965696,0.459779 -1.584469,0.459779 -0.618776,0 -1.178969,-0.175704 -1.584471,-0.45978" /><path
       id="path10"
       style="fill:none;stroke:#ffffff;stroke-width:1.13692;stroke-linecap:round;stroke-linejoin:round"
       d="m 36.727014,40.212334 c -0.405502,0.284075 -0.965698,0.459779 -1.584472,0.459779 -0.618773,0 -1.178968,-0.175704 -1.58447,-0.45978 m -3.168942,10e-7 c -0.405502,0.284075 -0.965697,0.459779 -1.584471,0.459779 -0.618774,0 -1.17897,-0.175704 -1.584471,-0.45978 m 6.337884,0 C 33.15257,39.928258 32.592375,39.752554 31.9736,39.752554 c -0.618773,0 -1.178969,0.175704 -1.58447,0.45978 m -3.168942,-10e-7 c -0.4055,-0.284075 -0.965695,-0.459779 -1.584471,-0.459779 -0.618774,0 -1.17897,0.175704 -1.584469,0.45978 m 0,0 c -0.405502,0.284075 -0.965697,0.459779 -1.584472,0.459779 -0.618773,0 -1.178969,-0.175704 -1.58447,-0.45978 m 0,0 c -0.405502,-0.284075 -0.965697,-0.459779 -1.584471,-0.459779 -0.618775,0 -1.178969,0.175704 -1.584472,0.45978 m 0,0 c -0.4055,0.284075 -0.965696,0.459779 -1.584469,0.459779 -0.618776,0 -1.178969,-0.175704 -1.584471,-0.45978" /><path
       id="rect10"
       style="fill:none;stroke:#ffffff;stroke-width:1.13692;stroke-linecap:round;stroke-linejoin:round"
       d="M 15.305633,30.135462 27.978292,7.4775445 V 30.135462"
       sodipodi:nodetypes="ccc" /></g></svg>
