<svg xmlns="http://www.w3.org/2000/svg" xml:space="preserve" width="48" height="48"><path fill="none" stroke="#fff" stroke-linecap="round" stroke-linejoin="round" d="M13.425 16.955C16.11 13.037 19.788 9.214 24 4.5c4.29 4.8 8.026 8.677 10.723 12.672m1.713 19.797c1.664-2.415 2.833-5.346 2.638-8.49-.268-4.323-2.018-7.85-4.351-11.306-2.76 5.332-5.18 8.923-8.79 12.874 3.396 2.689 6.914 4.936 10.503 6.922A15.07 15.07 0 0 1 24 43.501c-8.322 0-15.382-6.732-15.074-15.022.165-4.42 2.083-8 4.499-11.524 3.894 5.369 8.1 9.602 12.508 13.092"/></svg>
