<?xml version="1.0" encoding="UTF-8"?><svg id="a" xmlns="http://www.w3.org/2000/svg" viewBox="0 0 48 48"><defs><style>.d{fill:none;stroke:#fff;stroke-linecap:round;stroke-linejoin:round;}.c{fill:#fff;stroke-width:0px;}</style></defs><circle class="d" cx="24" cy="24" r="21.5"/><path class="d" d="m10.009 35.502a14 14 0 01-.008989-.50161 14 14 0 0114-14 14 14 0 0114 14v0a14 14 0 01-.008989.50161"/><path class="d" d="m29.796 32.303a6 6 0 01-5.7956 4.4471 6 6 0 01-5.7956-4.4471"/><circle class="c" cx="21" cy="29" r=".75"/><circle class="c" cx="27" cy="29" r=".75"/><path class="d" d="m42.166 35.5h-4.1748c-5.844 0-8.5509 2.0912-10.991 3.5-1.2979.74933-2.6562.75002-3 .75002-.34377 0-1.7021-.000681-3-.75002-2.4402-1.4088-5.1471-3.5-10.991-3.5h-4.1748"/><path class="d" d="m21 39v6.2897"/><path class="d" d="m27 39v6.2897"/><line class="d" x1="34.432" x2="36.106" y1="16.496" y2="16.496"/><path class="d" d="m34.432 18.921v-4.8506h2.5743"/><line class="d" x1="38.937" x2="40.611" y1="16.496" y2="16.496"/><path class="d" d="m38.937 18.921v-4.8506h2.5743"/><path class="d" d="m8.6122 16.496c.71089 0 1.2871.54292 1.2871 1.2126s-.57627 1.2126-1.2871 1.2126h-2.1238v-4.8506l2.1238 3e-6c.71089 0 1.2871.54292 1.2871 1.2126s-.57627 1.2126-1.2871 1.2126z"/><line class="d" x1="8.6122" x2="6.491" y1="16.496" y2="16.496"/><rect class="d" x="11.779" y="14.071" width="3.4109" height="4.8506" rx="1.7055" ry="1.6068"/><rect class="d" x="17.12" y="14.071" width="3.4109" height="4.8506" rx="1.7055" ry="1.6068"/><rect class="d" x="29.091" y="14.079" width="3.4109" height="4.8506" rx="1.7055" ry="1.6068"/><line class="d" x1="22.462" x2="22.462" y1="14.079" y2="18.929"/><line class="d" x1="22.462" x2="25.229" y1="17.24" y2="14.095"/><line class="d" x1="25.229" x2="23.112" y1="18.929" y2="16.504"/><circle class="c" cx="27.16" cy="16.504" r=".75"/><circle class="c" cx="15.484" cy="12.571" r=".75"/><circle class="c" cx="20.462" cy="12.579" r=".75"/><circle class="c" cx="17.973" cy="11.579" r=".75"/><circle class="c" cx="33.002" cy="12.579" r=".75"/><circle class="c" cx="38.437" cy="12.571" r=".75"/><circle class="c" cx="35.719" cy="11.579" r=".75"/></svg>
