<?xml version="1.0" encoding="UTF-8"?><svg id="b" xmlns="http://www.w3.org/2000/svg" viewBox="0 0 48 48"><defs><style>.d{fill:#fff;}</style></defs><path class="d" d="M10.3528,21.2167c-1.0521-1.2325,1.231-3.0251,2.1205-3.5916,1.2734-.8111,2.7538-1.2206,4.2636-1.1686.8231.0283,1.6381.1967,2.4083.4879.6688.2529,1.7308.7008,1.5576,1.5934-.1272.6559-.6902,1.2757-1.1344,1.7451-.4871.5148-1.0429.955-1.6526,1.316-1.2157.72-2.6204,1.1112-4.0356,1.0802-.1911-.0042-1.2468.003-1.0273-.4353.1408-.2812.7692.173.9169.2819.5951.4389,1.1705.9597,1.6446,1.5272,2.0235,2.4221.7966,5.8535-2.0335,6.9704-1.3903.5486-3.3749.7081-4.7431-.0052-.8176-.4263-1.0096-1.338-.5607-2.1208.4314-.7521,1.2891-1.0799,2.0968-1.2335.6315-.1201.3641-1.0841-.2658-.9643-1.7793.3384-3.6855,1.9237-2.9174,3.9333.7149,1.8703,3.4776,1.9831,5.1396,1.7423,2.0023-.2901,3.8635-1.4244,4.7628-3.2798.8809-1.8175.7053-3.8355-.5266-5.4423-.7079-.9233-3.3395-3.7763-4.4403-1.8463-.487.8539.3231,1.6457,1.1269,1.7991.9722.1856,2.0468.0605,3.0007-.1731,1.917-.4696,3.6581-1.61,4.8447-3.1858.576-.7649,1.0943-1.7318.6555-2.6849-.416-.9035-1.4639-1.3495-2.347-1.6555-2.324-.8052-4.9651-.5205-7.0684.7496-1.5889.9595-4.1583,3.317-2.4931,5.2677.4185.4902,1.123-.22.7071-.7071h0Z"/><path class="d" d="M5.7181,30.5804c-.7237-.2131-1.5073.227-1.6835.9734-.1866.7902.3735,1.5695,1.0915,1.8445,1.8897.7238,3.6561-1.1769,4.7105-2.4772,2.7761-3.4236,4.0872-7.7362,6.6875-11.2718,1.365-1.856,3.1627-3.4668,5.3745-4.2092.607-.2037.3467-1.1699-.2658-.9643-4.2047,1.4113-6.6269,5.2791-8.5591,9.0199-1.0455,2.0242-2.0346,4.0927-3.3635,5.9523-.62.8676-1.3286,1.7599-2.1735,2.4204-.4567.357-1.0275.6811-1.6245.6734-.3261-.0042-.6897-.1153-.8449-.4316-.1468-.2993.0194-.6733.385-.5656.6186.1821.8828-.7826.2658-.9643h0Z"/><path class="d" d="M38.9514,15.5215c-1.4005,1.7589-2.6096,3.6542-3.5704,5.6887-.4378.9271-.9132,1.9058-1.1742,2.899-.2039.7758-.0904,1.638.7159,2.0064,1.6659.761,3.5924-1.1276,4.5248-2.2832,1.4485-1.7951,2.4916-3.8563,3.5192-5.9089.2368-.473-.4175-1.0813-.7853-.6059-.7426.96-.5376,2.0727-.0211,3.0927.5384,1.0632,1.5663,2.7124-.1502,3.2582-.4944.1572-1.0383.1899-1.5536.1548-.6197-.0422-1.7113-.4219-1.5198-1.2531.1044-.4533.7083-.6665,1.1213-.5785.5593.1191.8862.7014.9842,1.2215.2275,1.2072-.6223,2.3498-1.5611,3.0052-1.1648.8132-2.6129,1.1414-3.9689,1.4846-2.7281.6903-5.4978,1.1961-8.2466,1.7945-3.0774.6699-6.1195,1.4779-9.0143,2.7355-.5887.2558-.0802,1.1176.5047.8635,3.3012-1.4341,6.8263-2.235,10.3369-2.9662,1.7872-.3722,3.5784-.7271,5.3566-1.1411,1.6117-.3752,3.3009-.7204,4.7887-1.4694,1.2761-.6424,2.4487-1.7559,2.7573-3.201.2502-1.1714-.1388-2.5802-1.2764-3.146-1.0024-.4986-2.4476-.001-2.7468,1.1317-.3758,1.4226,1.0652,2.3761,2.2836,2.5018,1.3104.1352,3.1699-.1554,3.6373-1.6064.2539-.788.0078-1.6067-.3432-2.3214-.3832-.7804-1.3401-1.9767-.6617-2.8537l-.7853-.6059c-.8104,1.6186-1.6241,3.245-2.6504,4.7405-.4878.7109-1.0199,1.4024-1.655,1.9891-.543.5016-1.3548,1.1228-2.137,1.1121-1.0672-.0146-.2742-1.5303-.0675-2.0501.3364-.8462.7198-1.6739,1.1406-2.4814.8282-1.5896,1.8081-3.0983,2.9246-4.5004.3969-.4985-.3062-1.2106-.7071-.7071h0Z"/><path class="d" d="M33.4949,17.9485c2.8995-.5154,5.7865-.784,8.7328-.6633.6435.0264.6423-.9737,0-1-3.0351-.1244-6.0123.1681-8.9986.699-.6325.1124-.3645,1.0763.2658.9643h0Z"/><path class="d" d="M19.851,21.0775c.5776.0783,1.1509.0505,1.7317.0562.1429.0014.2858.0055.4284.0151.0709.0048.1415.0116.2122.0187.062.0074.0703.0083.0247.0026.0348.0052.0695.011.1041.0172.1376.0249.2739.058.4067.1022.0187.0062.1829.072.1247.0455.0645.0293.1268.0627.1884.0976.2351.1328.5464.056.6841-.1794.1352-.2312.0565-.5509-.1794-.6841-.5613-.3169-1.1963-.4154-1.8329-.4327-.2846-.0077-.5693-.0002-.8539.0018-.1464.001-.2929.0007-.4392-.0045-.0668-.0024-.1335-.0057-.2002-.0106-.0327-.0024-.0655-.0051-.0981-.0082-.0176-.0017-.1277-.0144-.0354-.0019-.258-.035-.5496.0618-.6151.3492-.0535.2348.072.5775.3492.6151h0Z"/><path class="d" d="M22.9694,20.6877c-1.4312,1.308-2.5221,2.9546-3.1739,4.7805-.2432.6813-.464,1.4006-.3134,2.1284.1328.6418.6039,1.1537,1.2495,1.2999,1.899.4299,3.5844-1.4457,4.5348-2.8465.5384-.7936.9626-1.6568,1.3306-2.5406.2552-.6128.4616-1.2888.417-1.9604-.0594-.8941-.6248-1.6543-1.5463-1.7864-.8764-.1256-1.7213.3334-2.397.8469-.2166.1646-.3245.4292-.1794.6841.1212.213.4695.3424.6841.1794.442-.3359.9706-.7016,1.5428-.7343.5854-.0334.8983.4103.9003.9487.0019.495-.1512.9811-.3359,1.4359-.2863.7048-.6317,1.3923-1.0321,2.0392-.3989.6445-.8642,1.2426-1.4191,1.7607-.5519.5154-1.2659,1.0848-2.0663,1.0305-1.1904-.0808-.624-1.6207-.3835-2.2812.5972-1.64,1.6092-3.103,2.8948-4.2778.4761-.4351-.2326-1.1407-.7071-.7071h0Z"/><path class="d" d="M26.8204,21.5817c1.0929-.8602,2.7726-1.2714,4.1442-1.0832.8167.1121,1.3433.6345,1.4213,1.463.0742.7877-.3202,1.5305-.7927,2.1327-.4963.6325-1.1023,1.2385-1.7852,1.667-.3206.2012-.6591.3596-1.0272.4505-.1546.0382-.3396.0855-.5019.066-.2856-.0344-.2934-.2127-.2808-.4655.0814-1.6357,1.1743-3.1623,2.391-4.1792,1.5173-1.2681,3.5515-1.827,5.4648-1.2177.6146.1957.8777-.7694.2658-.9643-2.2094-.7035-4.5539-.0542-6.3203,1.3782-.8263.67-1.5438,1.5121-2.0471,2.4511-.454.8471-.9284,2.0447-.7241,3.0242.2352,1.1281,1.5115,1.0749,2.3707.7645,1.0265-.3707,1.8822-1.11,2.6009-1.9135.6866-.7676,1.2886-1.6764,1.3822-2.7281.0806-.9059-.2504-1.8853-.9966-2.4391-.9001-.668-2.2141-.5878-3.261-.4064-1.09.1889-2.1396.6066-3.0111,1.2926-.5053.3977.2067,1.101.7071.7071h0Z"/></svg>