<?xml version="1.0" encoding="UTF-8" standalone="no"?>
<svg
   viewBox="0 0 48 48"
   version="1.1"
   id="svg1"
   sodipodi:docname="boss_zhipin.svg"
   inkscape:version="1.2.2 (b0a8486541, 2022-12-01)"
   xml:space="preserve"
   xmlns:inkscape="http://www.inkscape.org/namespaces/inkscape"
   xmlns:sodipodi="http://sodipodi.sourceforge.net/DTD/sodipodi-0.dtd"
   xmlns="http://www.w3.org/2000/svg"
   xmlns:svg="http://www.w3.org/2000/svg"><sodipodi:namedview
     id="namedview1"
     pagecolor="#505050"
     bordercolor="#eeeeee"
     borderopacity="1"
     inkscape:showpageshadow="0"
     inkscape:pageopacity="0"
     inkscape:pagecheckerboard="0"
     inkscape:deskcolor="#505050"
     inkscape:zoom="12.59534"
     inkscape:cx="-6.6691334"
     inkscape:cy="30.566862"
     inkscape:window-width="1918"
     inkscape:window-height="1053"
     inkscape:window-x="0"
     inkscape:window-y="0"
     inkscape:window-maximized="1"
     inkscape:current-layer="svg1"
     showgrid="false" /><defs
     id="defs1"><style
       id="style1">.a { fill:none;stroke:#fff;stroke-linecap:round;stroke-linejoin:round; }
</style></defs><path
     style="fill:none;stroke:#ffffff;stroke-linecap:round;stroke-linejoin:round"
     d="m 9.5,5.5 h 29 c 2.216,0 4,1.784 4,4 v 29 c 0,2.216 -1.784,4 -4,4 h -29 c -2.216,0 -4,-1.784 -4,-4 v -29 c 0,-2.216 1.784,-4 4,-4 z"
     id="path8469" /><g
     id="g8522"><path
       style="fill:none;stroke:#ffffff;stroke-linecap:round;stroke-linejoin:round"
       d="M 9.7430659,25.491742 H 22.153161"
       id="path8467" /><path
       style="fill:none;stroke:#ffffff;stroke-linecap:round;stroke-linejoin:round"
       d="m 15.948113,24.34767 v 3.572029"
       id="path8465" /><path
       style="fill:none;stroke:#ffffff;stroke-linecap:round;stroke-linejoin:round"
       d="m 11.235092,36.316034 v -8.395527 h 9.426042 v 8.395527"
       id="path8463" /><path
       style="fill:none;stroke:#ffffff;stroke-linecap:round;stroke-linejoin:round"
       d="M 22.396225,36.316034 H 9.5000006"
       id="path8461" /><path
       style="fill:none;stroke:#ffffff;stroke-linecap:round;stroke-linejoin:round"
       d="m 11.235063,30.019389 h 9.426368"
       id="path8459" /><path
       style="fill:none;stroke:#ffffff;stroke-linecap:round;stroke-linejoin:round"
       d="m 11.235063,32.118271 h 9.426368"
       id="path8457" /><path
       style="fill:none;stroke:#ffffff;stroke-linecap:round;stroke-linejoin:round"
       d="m 11.235063,34.217152 9.426368,1e-6"
       id="path8455" /></g><g
     id="g8536"><path
       style="fill:none;stroke:#ffffff;stroke-linecap:round;stroke-linejoin:round"
       d="m 25.687391,25.491742 h 4.53909"
       id="path8453" /><path
       style="fill:none;stroke:#ffffff;stroke-linecap:round;stroke-linejoin:round"
       d="m 29.298055,34.429533 v 2.727449"
       id="path8451" /><path
       style="fill:none;stroke:#ffffff;stroke-linecap:round;stroke-linejoin:round"
       d="m 29.298055,25.492659 v 8.936874"
       id="path8449" /><path
       style="fill:none;stroke:#ffffff;stroke-linecap:round;stroke-linejoin:round"
       d="m 26.571634,25.492659 v 9.460465"
       id="path8447" /><path
       style="fill:none;stroke:#ffffff;stroke-linecap:round;stroke-linejoin:round"
       d="m 26.571525,28.527221 h 2.724993"
       id="path8445" /><path
       style="fill:none;stroke:#ffffff;stroke-linecap:round;stroke-linejoin:round"
       d="m 26.571525,31.456224 h 2.724993"
       id="path8443" /><path
       style="fill:none;stroke:#ffffff;stroke-linecap:round;stroke-linejoin:round"
       d="m 25.707019,35.121594 4.927902,-0.94945"
       id="path8441" /><path
       style="fill:none;stroke:#ffffff;stroke-linecap:round;stroke-linejoin:round"
       d="m 31.759089,25.657069 h 5.903955 v 4.167857 h -5.903955 z"
       id="path8439" /><path
       style="fill:none;stroke:#ffffff;stroke-linecap:round;stroke-linejoin:round"
       d="m 34.711067,24.283753 v 5.541904"
       id="path8437" /><path
       style="fill:none;stroke:#ffffff;stroke-linecap:round;stroke-linejoin:round"
       d="m 31.760246,27.740998 h 5.902883"
       id="path8435" /><path
       style="fill:none;stroke:#ffffff;stroke-linecap:round;stroke-linejoin:round"
       d="m 31.055641,31.797808 h 7.444358"
       id="path8433" /><path
       style="fill:none;stroke:#ffffff;stroke-linecap:round;stroke-linejoin:round"
       d="m 33.408125,31.798863 -0.590175,2.049425 h 4.549048 v 1.280068 c 0,0.886523 -0.599616,1.458239 -1.480084,1.480219 l -2.288671,0.05714"
       id="path8431" /></g><g
     id="g8513"><path
       style="fill:none;stroke:#ffffff;stroke-linecap:round;stroke-linejoin:round"
       d="m 25.322921,18.55694 c 0.50964,0.611624 1.121208,0.917436 2.038561,0.917436 h 1.223136 c 1.121208,0 2.038561,-0.917436 2.038561,-2.038749 v 0 c 0,-1.121312 -0.917353,-2.038748 -2.038561,-2.038748 h -1.325064 c -1.121209,0 -2.038561,-0.917437 -2.038561,-2.038749 v 0 c 0,-1.121313 0.917352,-2.038748 2.038561,-2.038748 h 1.223136 c 0.917352,0 1.528921,0.203873 2.038561,0.917435"
       id="path8429" /><path
       style="fill:none;stroke:#ffffff;stroke-linecap:round;stroke-linejoin:round"
       d="m 20.24155,19.474376 v 0 c -1.528921,0 -2.650129,-1.22325 -2.650129,-2.650374 v -2.752311 c 0,-1.529061 1.223137,-2.752309 2.650129,-2.752309 v 0 c 1.528921,0 2.752057,1.223248 2.752057,2.752309 v 2.650374 c 0,1.529061 -1.223136,2.752311 -2.752057,2.752311 z"
       id="path8427" /><path
       style="fill:none;stroke:#ffffff;stroke-linecap:round;stroke-linejoin:round"
       d="m 32.952491,18.55694 c 0.509641,0.611624 1.121209,0.917436 2.038561,0.917436 h 1.223137 c 1.121208,0 2.038561,-0.917436 2.038561,-2.038749 v 0 c 0,-1.121312 -0.917353,-2.038748 -2.038561,-2.038748 h -1.325065 c -1.121208,0 -2.038561,-0.917437 -2.038561,-2.038749 v 0 c 0,-1.121313 0.917353,-2.038748 2.038561,-2.038748 h 1.223137 c 0.917352,0 1.52892,0.203873 2.03856,0.917435"
       id="path8425" /><g
       id="g8504"><path
         style="fill:none;stroke:#ffffff;stroke-linecap:round;stroke-linejoin:round"
         d="m 13.325476,15.396879 c 1.121208,0 2.03856,0.917437 2.03856,2.038748 0,1.121312 -0.917352,2.038749 -2.03856,2.038749 H 9.9618504 v -8.154995 h 3.3636256 c 1.121208,0 2.03856,0.917437 2.03856,2.038749 0,1.121312 -0.917352,2.038749 -2.03856,2.038749 z"
         id="path8423" /><path
         style="fill:none;stroke:#ffffff;stroke-linecap:round;stroke-linejoin:round"
         d="M 13.325473,15.396879 H 9.9614476"
         id="path8421" /><path
         style="fill:none;stroke:#ffffff;stroke-linecap:round;stroke-linejoin:round"
         d="m 13.325473,15.396879 v 0"
         id="path8378" /></g></g></svg>
