<?xml version="1.0" encoding="UTF-8"?>
<!-- Created with Inkscape (http://www.inkscape.org/) -->
<svg version="1.1" viewBox="0 0 48 48" xml:space="preserve" xmlns="http://www.w3.org/2000/svg"><defs><style>
      .cls-1 {
        fill: none;
        stroke: #fff;
        stroke-linecap: round;
        stroke-linejoin: round;
      }
    </style></defs><rect class="cls-1" x="5.5" y="5.5" width="37" height="37" rx="4" ry="4"/><g transform="translate(-216.33 55.296)">
	<g id="b">	
<g transform="translate(71.305 .21198)"><g class="st0">
</g>
	<g transform="matrix(.89868 0 0 .89868 16.222 -12.471)"><g transform="translate(11.823 -65.833)">
		<polyline class="st5" points="164 40.65 164 48.65 168 48.65"/>
	</g><g transform="translate(-61.037 -65.833)">
		<line class="st5" x1="243.35" x2="248.65" y1="40.65" y2="40.65"/>
		<line class="st5" x1="246" x2="246" y1="48.65" y2="40.65"/>
	</g><path class="st5" d="m168.03-25.183v5.35c0 1.4636 1.1864 2.65 2.65 2.65s2.65-1.1864 2.65-2.65v-5.35"/><g transform="translate(89.101 -65.833)">
		<path class="st5" d="m66.65 44.65c1.1046 0 2 0.89543 2 2s-0.89543 2-2 2h-3.3v-8l3.3 4e-6c1.1046 0 2 0.89543 2 2s-0.89543 2-2 2z"/>
		<line class="st5" x1="66.65" x2="63.35" y1="44.65" y2="44.65"/>
	</g><path class="st5" d="m162.89-17.183c-1.4636 0-2.65-1.1864-2.65-2.65v-2.7c0-1.4636 1.1864-2.65 2.65-2.65s2.65 1.1864 2.65 2.65v2.7c0 1.4636-1.1864 2.65-2.65 2.65z"/></g>
</g></g></g><style type="text/css">
	.st0{display:none;}
	.st1{display:inline;}
	.st5{fill:none;stroke:#FFFFFF;stroke-linecap:round;stroke-linejoin:round;stroke-miterlimit:10;}
	.st6{fill:#FFFFFF;}
</style>
</svg>
