<svg xmlns="http://www.w3.org/2000/svg" xml:space="preserve" id="svg1" version="1.1" viewBox="0 0 48 48"><defs id="defs1"><style id="style1">.a{fill:none;stroke:#fff;stroke-linecap:round;stroke-linejoin:round}</style></defs><path id="path11" d="M32.558 14.009c-4.848-5.428-12.826-6.2-18.378-1.775v0c-.971.773-2.219 1.035-3.53.882a5.789 5.789 0 0 1-3.761-2.053 1.496 1.496 0 0 1 2.296-1.92c.545.652 1.193.929 1.812 1 .618.073 1.179-.138 1.318-.249 6.84-5.452 16.543-4.711 22.6 2.261" style="fill:none;fill-opacity:0;stroke:#fff;stroke-width:1;stroke-linecap:round;stroke-linejoin:round;stroke-dasharray:none;stroke-opacity:1"/><path id="path10" d="M36.045 13.59c5.358 7.524 3.804 17.13-3.1 22.5-.14.11-.477.606-.552 1.224-.075.618.043 1.313.548 1.995a1.496 1.496 0 0 1-2.405 1.782 5.789 5.789 0 0 1-1.114-4.138c.16-1.31.706-2.461 1.686-3.223 5.604-4.36 6.722-12.297 2.583-18.283" style="fill:none;fill-opacity:0;stroke:#fff;stroke-width:1;stroke-linecap:round;stroke-linejoin:round;stroke-dasharray:none;stroke-opacity:1"/><path id="path9" d="m37.23 7.517 6.27-.96-2.403 5.87Z" style="fill:none;fill-opacity:0;stroke:#fff;stroke-width:1;stroke-linecap:round;stroke-linejoin:round;stroke-dasharray:none;stroke-opacity:1"/><path id="path8" d="M39.677 10.73 8.927 34.947l-1.13-1.435 30.75-24.217" style="fill:none;fill-opacity:0;stroke:#fff;stroke-width:1;stroke-linecap:round;stroke-linejoin:round;stroke-dasharray:none;stroke-opacity:1"/><path id="path7" d="M7.802 33.41 4.5 32.525l5.85-4.606 3.302.884" style="fill:none;fill-opacity:0;stroke:#fff;stroke-width:1;stroke-linecap:round;stroke-linejoin:round;stroke-dasharray:none;stroke-opacity:1"/><path id="path6" d="m9.026 34.965.086 3.417 5.85-4.607-.086-3.417" style="fill:none;fill-opacity:0;stroke:#fff;stroke-width:1;stroke-linecap:round;stroke-linejoin:round;stroke-dasharray:none;stroke-opacity:1"/><path id="path5" d="M32.74 37.05c-1.143-.073-2.228-.193-3.665-.035" style="fill:none;fill-opacity:0;stroke:#fff;stroke-width:1;stroke-linecap:round;stroke-linejoin:round;stroke-dasharray:none;stroke-opacity:1"/><path id="path4" d="M32.893 38.164c-1.29.003-2.623-.102-3.806.175" style="fill:none;fill-opacity:0;stroke:#fff;stroke-width:1;stroke-linecap:round;stroke-linejoin:round;stroke-dasharray:none;stroke-opacity:1"/><path id="path3" d="m29.298 37.566-16.246-2.284" style="fill:none;fill-opacity:0;stroke:#fff;stroke-width:1;stroke-linecap:round;stroke-linejoin:round;stroke-dasharray:none;stroke-opacity:1"/><path id="path2" d="M11.334 9.868c-.196 1.129-.335 2.211-.825 3.571" style="fill:none;fill-opacity:0;stroke:#fff;stroke-width:1;stroke-linecap:round;stroke-linejoin:round;stroke-dasharray:none;stroke-opacity:1"/><path id="path1" d="M10.288 9.459c-.306 1.254-.517 2.574-1.063 3.659" style="fill:none;fill-opacity:0;stroke:#fff;stroke-width:1;stroke-linecap:round;stroke-linejoin:round;stroke-dasharray:none;stroke-opacity:1"/><path id="path21" d="m10.026 13.093-1.588 16.33" style="fill:none;fill-opacity:0;stroke:#fff;stroke-width:1;stroke-linecap:round;stroke-linejoin:round;stroke-dasharray:none;stroke-opacity:1"/></svg>