<?xml version="1.0" encoding="UTF-8"?><svg id="a" xmlns="http://www.w3.org/2000/svg" viewBox="0 0 48 48"><defs><style>.b{fill:none;stroke:#fff;stroke-linecap:round;stroke-linejoin:round;}</style></defs><rect class="b" x="5.5" y="5.5" width="37" height="37" rx="4" ry="4"/><path class="b" d="m36.05 25.625-2 8-2-8-2 8-2-8"/><rect class="b" x="20" y="25.625" width="5.3" height="8" rx="2.65" ry="2.65"/><path class="b" d="m11.95 33.625v-8l5.3 8v-8"/><line class="b" x1="33.35" x2="28.05" y1="14.375" y2="22.375"/><line class="b" x1="28.05" x2="33.35" y1="14.375" y2="22.375"/><rect class="b" x="20" y="14.375" width="5.3" height="8" rx="2.65" ry="2.65"/><line class="b" x1="15.25" x2="11.954" y1="18.375" y2="18.375"/><path class="b" d="m15.25 18.375c1.1046 0 2 .89543 2 2s-.89543 2-2 2h-3.3v-8h3.3c1.1046 0 2 .89543 2 2s-.89543 2-2 2z"/></svg>
