<?xml version="1.0" encoding="UTF-8" standalone="no"?>
<svg
   id="Layer_1"
   data-name="Layer 1"
   version="1.1"
   viewBox="0 0 48 48"
   xmlns="http://www.w3.org/2000/svg"
   xmlns:svg="http://www.w3.org/2000/svg">
  <defs
     id="defs1">
    <style
       id="style1">
      .cls-1 {
        fill: none;
        stroke: #fff;
        stroke-linecap: round;
        stroke-linejoin: round;
      }
    </style>
  </defs>
  <rect
     class="cls-1"
     x="5.5"
     y="5.5"
     width="37"
     height="37"
     rx="4"
     ry="4"
     id="rect1" />
  <g
     id="g1"
     transform="translate(-2.5810824,4.5)">
    <path
       class="r"
       d="m 13.800005,19.5 c 1.10456,0 2,0.89543 2,2 0,1.104569 -0.89544,2 -2,2 H 10.5 v -8 l 3.300005,4e-6 c 1.10456,0 2,0.89543 2,2 0,1.104569 -0.89544,2 -2,2 z"
       id="path93"
       style="fill:none;stroke:#ffffff;stroke-linecap:round;stroke-linejoin:round" />
    <line
       class="r"
       x1="13.799997"
       y1="19.500004"
       x2="10.500002"
       y2="19.500004"
       id="line93"
       style="fill:none;stroke:#ffffff;stroke-linecap:round;stroke-linejoin:round" />
  </g>
  <g
     id="g2"
     transform="translate(-3.5739478,3.5)">
    <path
       class="r"
       d="m 18.5,24.5 v -8 h 2.61904 c 1.48065,0 2.68096,1.202894 2.68096,2.68674 0,1.483845 -1.20031,2.68674 -2.68096,2.68674 H 18.5"
       id="path19"
       style="fill:none;stroke:#ffffff;stroke-linecap:round;stroke-linejoin:round" />
    <line
       class="r"
       x1="21.119047"
       y1="21.873478"
       x2="23.737852"
       y2="24.49799"
       id="line19"
       style="fill:none;stroke:#ffffff;stroke-linecap:round;stroke-linejoin:round" />
  </g>
  <g
     id="g3"
     transform="translate(-3.0739507,2.500062)">
    <line
       class="r"
       x1="28.922174"
       y1="22.849892"
       x2="25.377825"
       y2="22.849892"
       id="line241"
       style="fill:none;stroke:#ffffff;stroke-linecap:round;stroke-linejoin:round" />
    <polyline
       class="r"
       points="87.18380544 48.65004656 89.83380544 40.65 92.48380544 48.65004656"
       id="polyline241"
       style="fill:none;stroke:#ffffff;stroke-linecap:round;stroke-linejoin:round"
       transform="translate(-62.683805,-23.150109)" />
  </g>
  <path
     class="r"
     d="m 27.926047,20 v 5.35 c 0,1.463554 1.18644,2.65 2.65,2.65 1.46355,0 2.65,-1.186446 2.65,-2.65 V 20"
     id="path75"
     style="fill:none;stroke:#ffffff;stroke-linecap:round;stroke-linejoin:round" />
  <polyline
     class="r"
     points="217.20430529 48.65004656 217.20430529 40.65004656 222.50430529 48.65004656 222.50430529 40.65004656"
     id="polyline25"
     style="fill:none;stroke:#ffffff;stroke-linecap:round;stroke-linejoin:round"
     transform="translate(-182.42322,-20.650047)" />
</svg>
