<?xml version="1.0" encoding="UTF-8"?><svg id="b" xmlns="http://www.w3.org/2000/svg" viewBox="0 0 48 48"><defs><style>.o{fill:none;stroke:#fff;stroke-linecap:round;stroke-linejoin:round;}</style></defs><rect id="c" class="o" x="5.5" y="5.5" width="37" height="37" rx="4" ry="4"/><g id="d"><path id="e" class="o" d="M11.2189,24c1.1046,0,2,.8954,2,2s-.8954,2-2,2h-3.3v-8h3.3c1.1046,0,2,.8954,2,2s-.8954,2-2,2Z"/><line id="f" class="o" x1="11.2189" y1="24" x2="7.9189" y2="24"/></g><g id="g"><path id="h" class="o" d="M14.9261,28v-8h2.619c1.4806,0,2.681,1.2029,2.681,2.6867s-1.2003,2.6867-2.681,2.6867h-2.619"/><line id="i" class="o" x1="17.5451" y1="25.3735" x2="20.1639" y2="27.998"/></g><g id="j"><line id="k" class="o" x1="25.8482" y1="25.35" x2="22.3039" y2="25.35"/><polyline id="l" class="o" points="21.4261 28 24.0761 19.9999 26.7261 28"/></g><path id="m" class="o" d="M27.926,20v5.35c0,1.4636,1.1864,2.65,2.65,2.65s2.65-1.1864,2.65-2.65v-5.35"/><polyline id="n" class="o" points="34.7811 28 34.7811 20 40.0811 28 40.0811 20"/></svg>