<?xml version="1.0" encoding="UTF-8" standalone="no"?>
<svg
   viewBox="0 0 48 48"
   version="1.1"
   id="svg1"
   sodipodi:docname="breeno.svg"
   inkscape:version="1.2.2 (b0a8486541, 2022-12-01)"
   xml:space="preserve"
   xmlns:inkscape="http://www.inkscape.org/namespaces/inkscape"
   xmlns:sodipodi="http://sodipodi.sourceforge.net/DTD/sodipodi-0.dtd"
   xmlns="http://www.w3.org/2000/svg"
   xmlns:svg="http://www.w3.org/2000/svg"><sodipodi:namedview
     id="namedview1"
     pagecolor="#505050"
     bordercolor="#eeeeee"
     borderopacity="1"
     inkscape:showpageshadow="0"
     inkscape:pageopacity="0"
     inkscape:pagecheckerboard="0"
     inkscape:deskcolor="#505050"
     inkscape:zoom="6.2976698"
     inkscape:cx="-29.534734"
     inkscape:cy="15.561311"
     inkscape:window-width="1918"
     inkscape:window-height="1053"
     inkscape:window-x="0"
     inkscape:window-y="0"
     inkscape:window-maximized="1"
     inkscape:current-layer="svg1"
     showgrid="false" /><defs
     id="defs1"><style
       id="style1">.a { fill:none;stroke:#fff;stroke-linecap:round;stroke-linejoin:round; }
</style></defs><path
     style="fill:none;stroke:#ffffff;stroke-width:1;stroke-linecap:round;stroke-linejoin:round;stroke-dashoffset:3.6;stroke-opacity:1"
     d="M 45.500004,24 A 21.500004,21.500004 0 0 1 24,45.500004 21.500004,21.500004 0 0 1 2.4999961,24 21.500004,21.500004 0 0 1 24,2.4999961 21.500004,21.500004 0 0 1 45.500004,24 Z"
     id="path25150" /><path
     style="fill:none;stroke:#ffffff;stroke-width:1;stroke-linecap:round;stroke-linejoin:round;stroke-dashoffset:3.6;stroke-opacity:1"
     d="M 37.691525,24 A 11.662343,16.073772 49.575874 0 1 19.588573,37.691524 11.662343,16.073772 49.575874 0 1 10.308477,24 11.662343,16.073772 49.575874 0 1 28.41143,10.308476 11.662343,16.073772 49.575874 0 1 37.691525,24 Z"
     id="path25148" /><path
     style="fill:none;stroke:#ffffff;stroke-width:1;stroke-linecap:round;stroke-linejoin:round;stroke-dashoffset:3.6;stroke-opacity:1"
     d="M 34.723003,26.240236 A 17.068056,7.0280511 44.476266 0 1 31.588443,36.77208 17.068056,7.0280511 44.476266 0 1 13.276996,21.759762 17.068056,7.0280511 44.476266 0 1 16.411556,11.22792 17.068056,7.0280511 44.476266 0 1 34.723003,26.240236 Z"
     id="circle25097-5" /></svg>
