<?xml version="1.0" encoding="UTF-8"?><svg id="b" xmlns="http://www.w3.org/2000/svg" viewBox="0 0 48 48"><defs><style>.d{fill:none;stroke:#fff;stroke-linecap:round;stroke-linejoin:round;stroke-width:1px;}.e{fill:#fff;}</style></defs><circle class="e" cx="19.1131" cy="28.8341" r=".75"/><circle class="e" cx="19.1131" cy="18.8921" r=".75"/><path class="d" d="M30.2217,19.3328c-.0658.7507-.7223,1.3604-1.4745,1.3604h0c-.7522,0-1.3087-.6085-1.2429-1.3592l.0774-.8835c.0658-.7507.729-1.3592,1.4812-1.3592s1.3028.6021,1.237,1.3528M30.4251,17.0913s-.2127,2.2414-.268,3.0577c-.037.5442.5527.868,1.0529.868,1.1379,0,1.7807-1.0024,1.8526-2.3968.1473-2.8542-1.6041-4.1965-3.9845-4.1965-2.2923,0-4.1364,1.7796-4.3545,4.1965-.1823,2.0208.9135,4.7404,3.8185,4.7404,1.0386,0,1.8953-.1333,2.5508-.5776"/><path class="d" d="M38.6595,12.0031v-4.8772M40.7149,9.1557c.2845-.3414.4143-.7095.4121-1.5353l-.0009-.4897c0-.6811-.5521-1.2332-1.2332-1.2332h0c-.6811,0-1.2332.5521-1.2332,1.2332M36.6093,9.1551c-.2854-.3405-.4162-.7083-.4162-1.5342v-.4903c0-.6811.5521-1.2332,1.2332-1.2332h0c.6811,0,1.2332.5521,1.2332,1.2332"/><path class="d" d="M25.1637,42.4997h2.4857v-.2107c-1.448-.5103-2.4857-1.8904-2.4857-3.513,0-2.0565,1.6671-3.7237,3.7237-3.7237s3.7237,1.6671,3.7237,3.7237c0,1.6225-1.0377,3.0027-2.4857,3.513v.2111h2.4857"/><path class="d" d="M6.6936,37.3171h5.9982M5.9847,40.2349h5.9982M10.1654,42.2265l1.6765-6.9008M6.8474,42.2265l1.6765-6.9008"/><path class="d" d="M16.4681,37.3171h5.9982M15.7592,40.2349h5.9982M19.94,42.2265l1.6765-6.9008M16.6219,42.2265l1.6765-6.9008"/><path class="d" d="M6.6936,27.3751h5.9982M5.9847,30.2929h5.9982M10.1654,32.2845l1.6765-6.9008M6.8474,32.2845l1.6765-6.9008"/><path class="d" d="M6.6936,17.4334h5.9982M5.9847,20.3512h5.9982M10.1654,22.3428l1.6765-6.9008M6.8474,22.3428l1.6765-6.9008"/><path class="d" d="M6.6936,7.4914h5.9982M5.9847,10.4092h5.9982M10.1654,12.4008l1.6765-6.9008M6.8474,12.4008l1.6765-6.9008"/><circle class="e" cx="38.6633" cy="28.8341" r=".75"/><circle class="e" cx="38.6633" cy="18.8921" r=".75"/><circle class="e" cx="28.8873" cy="28.8341" r=".75"/><circle class="e" cx="19.1131" cy="8.9505" r=".75"/><circle class="e" cx="28.8873" cy="8.9505" r=".75"/><path class="d" d="M36.0171,37.3171h5.9982M35.3082,40.2349h5.9982M39.489,42.2265l1.6765-6.9008M36.1709,42.2265l1.6765-6.9008"/></svg>