<?xml version="1.0" encoding="UTF-8"?>
<!-- Created with Inkscape (http://www.inkscape.org/) -->
<svg width="48" height="48" version="1.1" viewBox="0 0 48 48" xml:space="preserve" xmlns="http://www.w3.org/2000/svg"><defs><style>
      .cls-1 {
        fill: none;
        stroke: #fff;
        stroke-linecap: round;
        stroke-linejoin: round;
      }
    </style></defs><g id="Icon"><g fill="none" stroke="#fff" stroke-linecap="round" stroke-linejoin="round"><path d="m42.013 34.368h-1.2608s-4.3302-2.1924-4.5414-2.4455c-0.21121-0.25309 1.4047-1.1768 1.2999-2.1009s-0.5127-2.2967-0.54582-2.5581c-0.03312-0.26137 3.1662-1.551 1.1615-4.3704s-1.955-2.6453-2.4151-3.9425 0.16353-3.4414-3.0481-6.9244c-3.2117-3.483-6.3896-4.2598-9.6486-4.5488-3.259-0.28895-7.441 1.4754-9.4157 4.1896-1.9748 2.7142-2.8231 6.1032-3.3061 9.2178-0.48301 3.1146-1.1414 5.1123-0.95926 6.2288 0.18211 1.1165 1.9636 2.308 1.9636 2.308s-0.62332-2.1418-0.4013-3.4931 0.23883-0.81061 0.23883-0.81061 0.15508 3.4563 1.8222 4.6231c1.6671 1.1668 3.3218 0.94826 3.3218 0.94826s-0.49542-0.4519-0.85712-1.6047-0.33389-1.1338-0.33389-1.1338 0.85796 2.4595 3.884 2.976l0.08871 1.3208s-1.1015-0.66319-4.3332-1.1154-4.644-1.7329-6.9357-1.7329h-1.8049"/><path d="m31.366 10.76s5.5396 2.0868 7.005 9.7555"/><path d="m25.646 30.301s2.3284 0.2883 2.9543 0.34587 1.5117-1.0832 2.2063-1.8378c0.69455-0.75461 1.5434-1.699 1.779-3.2312 0.25588-1.6642-0.02581-2.6496 0.72643-4.2417s1.0613-3.7132 1.0613-3.7132"/><path d="m21.897 19.608c1.4292-1.3207 2.1031-4.0274 2.1031-4.0274l0.33852 1.4041s0.33397-1.7529 0.37396-2.3465c0.03999-0.59358 0.13543-1.9039 0.13543-1.9039s0.72026 1.2749 1.2013 2.9022 0.71512 3.3183 0.71512 3.3183c0.47467 0.22277 1.1008 0.16988 1.1008 0.16988l-0.19246-3.0015s0.6858 1.3788 0.91454 2.2004l0.22874 0.82166 2.0502 0.03191s0.37292-0.75316 0.45843-1.157c0.08551-0.40388 0.23768-1.606 0.23768-1.606s0.30475 1.0399 0.28944 1.7797c-0.01532 0.73983-0.01532 1.0066-0.01532 1.0066l0.94021-0.63088 0.6737 2.4569"/><path d="m22.848 20.235s1.7552-2.0173 3.6972-0.38074"/></g><ellipse cx="25.197" cy="21.29" rx="1.3093" ry="2.0615" fill="#fff"/><path d="m31.334 20.852s1.2178-1.5764 2.116 0.17398" fill="none" stroke="#fff" stroke-linecap="round" stroke-linejoin="round"/><ellipse transform="matrix(.85853 -.51277 -.0028904 1 0 0)" cx="36.605" cy="40.674" rx="1.0268" ry="1.7304" fill="#fff"/><path d="m27.391 26.477s0.38825 1.4371 1.2335 1.4318c0.7221-0.0045 1.3506-1.189 1.3468-1.6278-0.0743-0.33064-1.8176-0.74015-2.5803 0.19602-0.19963 0.73027 0-5e-6 0-5e-6z" fill="#fff"/><g fill="none" stroke="#fff" stroke-linecap="round" stroke-linejoin="round"><path d="m24.859 9.3549s-0.57769-1.1591-1.1429-0.7647-2.9182 5.8076-1.8195 11.018 2.5665 5.6034 3.7578 7.3235-0.0088 3.3697-0.0088 3.3697"/><path d="m24.1 27.259c1.3144 1.8986 1.0462 3.8916 1.0462 3.8916s-1.0838-0.08027-1.4829-0.34935c-0.39916-0.26908-0.75324-0.14714-2.2661 0s-2.4251 0.12618-2.4251 0.12618"/><path d="m30.366 29.641c3.9026 0.11441 5.279-3.1419 5.279-3.1419s0.14036 0.55108-0.08719 1.0962c-0.22755 0.54513-0.34522 0.85505-0.34522 0.85505l2.5608-1.8753"/><path d="m17.808 11.984c-0.28723-1.1732-0.41949-1.7986-0.11939-2.0788 0.3001-0.28015 1.9864-0.02207 1.9864-0.02207"/><path d="m23.663 30.801c-6.6443-3.5556-5.6457-14.176-5.6457-14.176"/><path d="m23.29 34.126c2.3486-2.7587 9.2404-4.8079 9.2404-4.8079"/><path d="m36.211 31.923c-3.826 0.33815-12.921 2.2034-12.921 2.2034"/><path d="m23.29 34.126-3.2967-3.2221"/><path d="m23.29 34.126-4.4646-1.9945"/><path d="m26.585 41.932s-0.9187-3.2503-3.2952-7.8052c-8.0175 1.7561-10.601 4.5825-11.58 5.6583s-1.7741 2.2284-1.7741 2.2284"/><path d="m11.711 39.785c9.1029-1.691 14.375 1.0439 14.375 1.0439"/><path d="m24.525 36.716c-2.8826 1.4594-4.8873 2.5996-4.8873 2.5996s-0.99457-2.1359-1.4188-3.7086"/><path d="m18.826 32.132c-5.0482 2.0768-9.2417 3.4728-9.6094 3.5824-0.36773 0.10966-3.2294-1.2283-3.2294-1.2283"/></g></g><rect id="Frame" class="cls-1" x="5.9864" y="5.9864" width="36" height="36" rx="3.8919" ry="3.8919" stroke-width=".99998"/></svg>
