<svg data-name="Layer 2" version="1.1" viewBox="0 0 48 48" xmlns="http://www.w3.org/2000/svg">
 <defs>
  <style>.cls-1{fill:none;stroke:#fff;stroke-linecap:round;stroke-linejoin:round;}</style>
 </defs>
 <path class="cls-1" d="m24.512 10.851v6.8764h2.0738v-6.8764zm-6.5069 0v6.8764h2.1746v-6.8764zm-7.8083-6.4314-5.7765 5.7429v21.091h6.9687v5.8772l5.9276-5.8772h4.7102l10.554-10.461v-16.372zm1.1922 2.4265h18.866v12.762l-4.5759 4.5423h-4.7102l-4.2988 4.3072v-4.3072h-5.2811z" stroke-width=".83961"/>
 <g fill="none" stroke="#fff" stroke-linecap="round" stroke-linejoin="round">
  <g>
   <path class="t" d="m22.975 38.5c0.82845 0 1.5 0.67155 1.5 1.5s-0.67155 1.5-1.5 1.5h-2.475v-6h2.475c0.82845 0 1.5 0.67155 1.5 1.5s-0.67155 1.5-1.5 1.5z"/>
   <line class="t" x1="22.975" x2="20.5" y1="38.5" y2="38.5"/>
   <line class="t" x1="26.175" x2="30.15" y1="35.5" y2="35.5"/>
   <line class="t" x1="28.162" x2="28.162" y1="41.5" y2="35.5"/>
   <line class="t" x1="31.85" x2="35.825" y1="35.5" y2="35.5"/>
   <line class="t" x1="33.837" x2="33.837" y1="41.5" y2="35.5"/>
  </g>
  <polyline class="t" transform="matrix(.75001 0 0 .75001 -185.37 5.0121)" points="302.48 40.65 299.83 48.65 297.18 40.65" stroke-width="1.3333"/>
 </g>
</svg>
