<?xml version="1.0" encoding="UTF-8"?><svg id="a" xmlns="http://www.w3.org/2000/svg" viewBox="0 0 48 48"><defs><style>.b{fill:none;stroke:#fff;stroke-linecap:round;stroke-linejoin:round;}</style></defs><path class="b" d="M24.3556,11.9264v31.5736M21.4871,8.6607s-8.0217,2.7495,1.8433,8.8663c6.8476,4.2418,4.7785,6.5274,3.0482,7.6296M21.3947,4.5c-7.7128,1.2264-13.6028,7.8267-13.6028,15.7755,0,7.5178,5.2722,13.8296,12.3671,15.5282M28.0883,35.7318c6.9707-1.7817,12.1198-8.0319,12.1198-15.4666s-5.6016-14.2001-13.0157-15.6626M23.0686,39.1587c-.5049.7718-.6497,1.6185.0513,2.34M22.6766,27.9103c-1.1115,1.3383-1.5189,3.0636,1.3137,4.68,2.4878,1.4225,3.1682,2.7403,1.6739,4.29M21.4871,8.6597s-8.0217,2.7495,1.8433,8.8653c6.8476,4.2428,4.7785,6.5284,3.0482,7.6307M23.0142,34.1585c-1.2624,1.2829-1.3178,2.4827,1.6195,4.1597,2.1727,1.2357,1.2552,2.8583.9555,3.2391M22.5585,19.5017c-3.4289,3.0071-1.7509,4.7477-.3089,5.654,1.4799.9339,6.7254,3.5921,3.7666,6.4319M26.5016,16.7429c7.9601-5.5606.6384-8.073.6384-8.073"/></svg>