<svg xmlns="http://www.w3.org/2000/svg" width="48" height="48"><path fill="none" stroke="#fff" stroke-linecap="round" stroke-linejoin="round" d="M24.401 12.301v30.764M21.606 9.119s-7.816 2.679 1.796 8.639c6.672 4.133 4.656 6.36 2.97 7.434M21.516 5.065C14.001 6.26 8.262 12.691 8.262 20.436c0 7.325 5.137 13.475 12.05 15.13m7.726-.07c6.792-1.736 11.809-7.826 11.809-15.07S34.389 6.59 27.165 5.165m-4.018 33.67c-.492.752-.633 1.577.05 2.28m-.432-13.24c-1.083 1.304-1.48 2.985 1.28 4.56 2.424 1.386 3.087 2.67 1.631 4.18m-4.07-27.497s-7.816 2.679 1.796 8.638c6.672 4.134 4.656 6.361 2.97 7.435m-3.278 8.772c-1.23 1.25-1.284 2.419 1.578 4.053 2.117 1.204 1.223 2.785.931 3.156m-2.953-21.49c-3.341 2.93-1.706 4.626-.301 5.509 1.442.91 6.553 3.5 3.67 6.267m.473-14.464c7.756-5.418.622-7.866.622-7.866"/></svg>