<?xml version="1.0" encoding="UTF-8" standalone="no"?>
<svg
   viewBox="0 0 48 48"
   version="1.1"
   id="svg1"
   sodipodi:docname="business_empire.svg"
   inkscape:version="1.2.2 (b0a8486541, 2022-12-01)"
   xml:space="preserve"
   xmlns:inkscape="http://www.inkscape.org/namespaces/inkscape"
   xmlns:sodipodi="http://sodipodi.sourceforge.net/DTD/sodipodi-0.dtd"
   xmlns="http://www.w3.org/2000/svg"
   xmlns:svg="http://www.w3.org/2000/svg"><sodipodi:namedview
     id="namedview1"
     pagecolor="#505050"
     bordercolor="#eeeeee"
     borderopacity="1"
     inkscape:showpageshadow="0"
     inkscape:pageopacity="0"
     inkscape:pagecheckerboard="0"
     inkscape:deskcolor="#505050"
     inkscape:zoom="17.8125"
     inkscape:cx="28.8"
     inkscape:cy="27.284211"
     inkscape:window-width="1918"
     inkscape:window-height="1053"
     inkscape:window-x="0"
     inkscape:window-y="0"
     inkscape:window-maximized="1"
     inkscape:current-layer="svg1"
     showgrid="false" /><defs
     id="defs1"><style
       id="style1">.a { fill:none;stroke:#fff;stroke-linecap:round;stroke-linejoin:round; }
</style></defs><g
     id="g24501"><path
       style="fill:none;stroke:#ffffff;stroke-width:1;stroke-linecap:round;stroke-linejoin:round"
       d="M 7.5189869,9.4963909 33.967804,25.541577 c 0.912517,0.553578 1.647141,1.85848 1.647141,2.925788 v 12.861754 c 0,1.067308 -0.734624,1.480887 -1.647141,0.92731 L 7.5189869,26.211243 C 6.6064711,25.657665 5.8718464,24.352764 5.8718464,23.285456 V 10.423701 c 0,-1.0673078 0.7346247,-1.4808881 1.6471405,-0.9273101 z"
       id="path24464" /><path
       style="fill:none;stroke:#ffffff;stroke-width:1;stroke-linecap:round;stroke-linejoin:round"
       d="M 35.228588,42.341386 40.481013,39.155 c 0.912515,-0.553578 1.647141,-1.858481 1.647141,-2.925787 V 24.694444 c 0,-1.067306 -0.734626,-2.37221 -1.647141,-2.925787 L 14.0322,5.7234707 C 13.533076,5.4206772 12.780368,5.4583178 12.281244,5.7611113 L 6.3266545,9.373465"
       id="path24462" /><g
       id="g24488"><path
         style="fill:none;stroke:#ffffff;stroke-width:1;stroke-linecap:round;stroke-linejoin:round"
         d="m 27.491403,38.331643 c -0.165759,-5.236068 -0.330851,-10.715142 0.07481,-15.933983 0.01634,-0.210182 0.110555,-0.414316 0.24669,-0.591626"
         id="path24460" /><path
         style="fill:none;stroke:#ffffff;stroke-width:1;stroke-linecap:round;stroke-linejoin:round"
         d="m 27.812904,21.806034 c 0.136136,-0.17731 0.314188,-0.327796 0.498193,-0.43068 l 5.995136,-3.352124"
         id="path24458" /><path
         style="fill:none;stroke:#ffffff;stroke-width:1;stroke-linecap:round;stroke-linejoin:round"
         d="M 14.161902,13.528146 C 14.303418,13.303 14.516,13.110546 14.737185,12.986874 L 20.60074,9.7083232"
         id="path24456" /><path
         style="fill:none;stroke:#ffffff;stroke-width:1;stroke-linecap:round;stroke-linejoin:round"
         d="m 13.922341,30.09616 c -0.167332,-5.282255 -0.33965,-10.817291 0.06996,-16.08698 0.01303,-0.167713 0.07567,-0.331577 0.169601,-0.481034"
         id="path24454" /><path
         style="fill:none;stroke:#ffffff;stroke-width:1;stroke-linecap:round;stroke-linejoin:round"
         d="m 17.557953,11.40972 13.62994,8.356885"
         id="path24452" /></g><g
       id="g24481"><path
         style="fill:none;stroke:#ffffff;stroke-width:1;stroke-linecap:round;stroke-linejoin:round"
         d="m 18.047064,27.146143 c 0.481633,0.905836 1.059594,1.588263 1.926534,2.178429 l 1.155921,0.786889 c 1.059593,0.721315 1.926534,0.444535 1.926534,-0.615067 v 0 c 0,-1.059602 -0.866941,-2.516715 -1.926534,-3.23803 L 19.877271,25.405901 C 18.817678,24.684585 17.950737,23.227472 17.950737,22.16787 v 0 c 0,-1.059601 0.866941,-1.336382 1.926534,-0.615067 l 1.155921,0.786889 c 0.86694,0.590167 1.4449,1.176266 1.926534,2.178429"
         id="path24450" /><path
         style="fill:none;stroke:#ffffff;stroke-width:1;stroke-linecap:round;stroke-linejoin:round"
         d="M 20.455231,30.519387 V 20.886643"
         id="line9573" /></g></g></svg>
