<?xml version="1.0" encoding="UTF-8"?><svg id="a" xmlns="http://www.w3.org/2000/svg" viewBox="0 0 48 48"><path d="M29.733,20.111v2.8889c0,.554-.446,1-1,1h-4.733v3.8889M22.5,23.9999h-3.233c-.554,0-1-.446-1-1v-2.8889" style="fill:none; stroke:#fff; stroke-linecap:round; stroke-linejoin:round;"/><path d="M32.033,27.889l7.5809-.0056c2.1462,0,3.8861-1.7399,3.8861-3.8861s-1.7399-3.8861-3.8861-3.8861h-7.5809" style="fill:none; stroke:#fff; stroke-linecap:round; stroke-linejoin:round;"/><path d="M4.5,20.111h9.5218c1.0739,0,1.9445.8706,1.9445,1.9445s-.8706,1.9445-1.9445,1.9445c1.0739,0,1.9445.8706,1.9445,1.9445s-.8706,1.9445-1.9445,1.9445l-9.5218-.0002" style="fill:none; stroke:#fff; stroke-linecap:round; stroke-linejoin:round;"/><path d="M14.022,24H4.5002" style="fill:none; stroke:#fff; stroke-linecap:round; stroke-linejoin:round;"/></svg>