<?xml version="1.0" encoding="UTF-8" standalone="no"?>
<svg
   id="Layer_1"
   data-name="Layer 1"
   version="1.1"
   viewBox="0 0 48 48"
   sodipodi:docname="c64.svg"
   inkscape:export-filename="2600.png"
   inkscape:export-xdpi="1024"
   inkscape:export-ydpi="1024"
   inkscape:version="1.3.2 (091e20ef0f, 2023-11-25)"
   xmlns:inkscape="http://www.inkscape.org/namespaces/inkscape"
   xmlns:sodipodi="http://sodipodi.sourceforge.net/DTD/sodipodi-0.dtd"
   xmlns="http://www.w3.org/2000/svg"
   xmlns:svg="http://www.w3.org/2000/svg">
  <sodipodi:namedview
     id="namedview1"
     pagecolor="#505050"
     bordercolor="#ffffff"
     borderopacity="1"
     inkscape:showpageshadow="0"
     inkscape:pageopacity="0"
     inkscape:pagecheckerboard="1"
     inkscape:deskcolor="#505050"
     inkscape:zoom="16.8125"
     inkscape:cx="24"
     inkscape:cy="24"
     inkscape:window-width="1920"
     inkscape:window-height="1008"
     inkscape:window-x="0"
     inkscape:window-y="0"
     inkscape:window-maximized="1"
     inkscape:current-layer="Layer_1" />
  <defs
     id="defs1">
    <style
       id="style1">
      .cls-1 {
        fill: none;
        stroke: #fff;
        stroke-linecap: round;
        stroke-linejoin: round;
      }
    </style>
  </defs>
  <rect
     class="cls-1"
     x="2.950386"
     y="2.950386"
     width="42.099228"
     height="42.099228"
     rx="4.5512676"
     ry="4.5512676"
     id="rect1"
     style="stroke-width:0.900771;stroke-dasharray:none" />
  <polyline
     class="cls-2"
     points="97.5 32.7 97.5 24.6 93.2 30 98.5 30"
     id="polyline2203"
     style="fill:none;stroke:#ffffff;stroke-width:0.819501;stroke-linecap:round;stroke-linejoin:round;stroke-dasharray:none"
     transform="matrix(1.2202553,0,0,1.2202553,-83.515702,-9.174293)" />
  <circle
     class="cls-2"
     cx="24.184767"
     cy="27.325781"
     id="circle2235"
     style="fill:none;stroke:#ffffff;stroke-width:1;stroke-linecap:round;stroke-linejoin:round;stroke-dasharray:none"
     r="3.3257794" />
  <path
     class="cls-2"
     d="M 27.141014,21.905991 C 26.648305,21.166929 25.786065,20.67422 24.43112,20.67422 h -0.246356 c -1.847654,0 -3.325778,1.478125 -3.325778,3.202602 v 3.448958"
     id="path2236"
     style="fill:none;stroke:#ffffff;stroke-width:1;stroke-linecap:round;stroke-linejoin:round;stroke-dasharray:none" />
  <path
     class="cls-2"
     d="m 18.157387,27.21334 v 0 c 0,1.874095 -1.499276,3.373371 -3.373372,3.373371 v 0 c -1.874095,0 -3.373371,-1.499276 -3.373371,-3.248432 v -3.373371 c 0,-1.874095 1.499276,-3.373371 3.373371,-3.248432 v 0 c 1.874096,0 3.248432,1.499276 3.248432,3.248432 v 0"
     id="path2224"
     style="fill:none;stroke:#ffffff;stroke-width:1;stroke-linecap:round;stroke-linejoin:round;stroke-dasharray:none" />
</svg>
