<?xml version="1.0" encoding="UTF-8" standalone="no"?>
<svg
   viewBox="0 0 48 48"
   version="1.1"
   id="svg1"
   sodipodi:docname="cab_compare.svg"
   inkscape:version="1.3.2 (091e20ef0f, 2023-11-25)"
   xml:space="preserve"
   xmlns:inkscape="http://www.inkscape.org/namespaces/inkscape"
   xmlns:sodipodi="http://sodipodi.sourceforge.net/DTD/sodipodi-0.dtd"
   xmlns="http://www.w3.org/2000/svg"
   xmlns:svg="http://www.w3.org/2000/svg"><sodipodi:namedview
     id="namedview1"
     pagecolor="#505050"
     bordercolor="#eeeeee"
     borderopacity="1"
     inkscape:showpageshadow="0"
     inkscape:pageopacity="0"
     inkscape:pagecheckerboard="0"
     inkscape:deskcolor="#505050"
     inkscape:zoom="4.453125"
     inkscape:cx="-60.968421"
     inkscape:cy="38.512281"
     inkscape:window-width="1918"
     inkscape:window-height="1053"
     inkscape:window-x="0"
     inkscape:window-y="0"
     inkscape:window-maximized="1"
     inkscape:current-layer="svg1" /><defs
     id="defs1"><style
       id="style1">.a { fill:none;stroke:#fff;stroke-linecap:round;stroke-linejoin:round; }
</style></defs><path
     style="fill:none;fill-opacity:0;stroke:#ffffff;stroke-width:1;stroke-linecap:round;stroke-linejoin:round;stroke-opacity:1"
     d="m 11.478499,38.523255 v 2.105404 c 0,0.869218 -0.94687,1.871341 -1.8161465,1.871341 h -2.235451 c -0.869276,0 -1.816145,-1.002123 -1.816145,-1.871341 V 23.777025 L 9.7461645,12.057272 C 10.136564,10.950879 11.117855,9.705325 12.291175,9.705325 h 5.758447 V 5.5 h 11.900755 v 4.205325 h 5.758447 c 1.17332,0 2.154612,1.245554 2.54501,2.351947 l 4.135409,11.719753 v 16.851634 c 0,0.869218 -0.946869,1.871341 -1.816146,1.871341 H 38.337646 C 37.46837,42.5 36.5215,41.497877 36.5215,40.628659 v -2.105404 z"
     id="path4" /><path
     style="fill:none;fill-opacity:0;stroke:#ffffff;stroke-width:1;stroke-linecap:round;stroke-linejoin:round;stroke-opacity:1"
     d="M 12.869806,12.807659 9.6171545,22.025677 H 38.382844 l -3.252652,-9.218018 z"
     id="path3" /><path
     style="fill:none;fill-opacity:0;stroke:#ffffff;stroke-width:1;stroke-linecap:round;stroke-linejoin:round;stroke-opacity:1"
     d="m 15.679472,29.097443 a 2.9623332,2.9621373 0 0 1 -2.962333,2.962137 2.9623332,2.9621373 0 0 1 -2.9623325,-2.962137 2.9623332,2.9621373 0 0 1 2.9623325,-2.962137 2.9623332,2.9621373 0 0 1 2.962333,2.962137 z"
     id="path2" /><path
     style="fill:none;fill-opacity:0;stroke:#ffffff;stroke-width:1;stroke-linecap:round;stroke-linejoin:round;stroke-opacity:1"
     d="m 38.245193,29.097443 a 2.9623332,2.9621373 0 0 1 -2.962333,2.962137 2.9623332,2.9621373 0 0 1 -2.962334,-2.962137 2.9623332,2.9621373 0 0 1 2.962334,-2.962137 2.9623332,2.9621373 0 0 1 2.962333,2.962137 z"
     id="circle2" /></svg>
