<?xml version="1.0" encoding="UTF-8" standalone="no"?>
<svg
   viewBox="0 0 48 48"
   version="1.1"
   id="svg1"
   sodipodi:docname="caff_nero.svg"
   xml:space="preserve"
   inkscape:version="1.4.3 (0d15f75042, 2025-12-25)"
   xmlns:inkscape="http://www.inkscape.org/namespaces/inkscape"
   xmlns:sodipodi="http://sodipodi.sourceforge.net/DTD/sodipodi-0.dtd"
   xmlns="http://www.w3.org/2000/svg"
   xmlns:svg="http://www.w3.org/2000/svg"><sodipodi:namedview
     id="namedview1"
     pagecolor="#505050"
     bordercolor="#ffffff"
     borderopacity="1"
     inkscape:showpageshadow="0"
     inkscape:pageopacity="0"
     inkscape:pagecheckerboard="1"
     inkscape:deskcolor="#505050"
     inkscape:zoom="11.770402"
     inkscape:cx="13.041186"
     inkscape:cy="18.690951"
     inkscape:window-width="1600"
     inkscape:window-height="1000"
     inkscape:window-x="0"
     inkscape:window-y="0"
     inkscape:window-maximized="0"
     inkscape:current-layer="svg1" /><defs
     id="defs1"><style
       id="style1">.a{fill:none;stroke:#fff;stroke-linecap:round;stroke-linejoin:round;}</style></defs><text
     xml:space="preserve"
     style="font-size:21.3333px;font-family:'JetBrainsMono Nerd Font';-inkscape-font-specification:'JetBrainsMono Nerd Font, Normal';writing-mode:lr-tb;direction:ltr;fill:#000000;fill-opacity:0;stroke:#ffffff;stroke-linecap:round;stroke-linejoin:round;paint-order:stroke fill markers"
     x="14.334525"
     y="17.737164"
     id="text1"><tspan
       sodipodi:role="line"
       id="tspan1"></tspan></text><g
     id="g6"
     transform="matrix(1.037764,0,0,1.0387289,-0.90633596,-2.1208582)"
     style="stroke-width:0.963163"><g
       id="g5"
       transform="matrix(1.0284742,0,0,1.0290319,-1.8698045,1.1277872)"
       style="stroke-width:0.936242"><path
         class="r"
         d="m 17.788356,19.308465 v 0.01771 c 0,0.791016 -0.610388,1.432263 -1.363335,1.432263 h -6e-6 c -0.752946,0 -1.363329,-0.641247 -1.363329,-1.432263 v -1.459291 c 0,-0.791018 0.610383,-1.432264 1.363335,-1.432262 v 0 c 0.752947,10e-7 1.363335,0.641245 1.363335,1.432262 v 0.01771"
         id="path73"
         style="fill:none;stroke:#ffffff;stroke-width:0.936242;stroke-linecap:round;stroke-linejoin:round" /><path
         id="polyline241"
         style="fill:none;stroke:#ffffff;stroke-width:0.936242;stroke-linecap:round;stroke-linejoin:round"
         class="r"
         d="m 19.425677,20.758526 1.363412,-4.324108 1.363413,4.324108 m -0.451637,-1.432378 h -1.823551" /><path
         id="polyline77"
         style="fill:none;stroke:#ffffff;stroke-width:0.936242;stroke-linecap:round;stroke-linejoin:round"
         class="r"
         d="m 28.154151,20.75853 v -4.324 h 2.726995 m -2.727001,2.162 h 1.772554" /><path
         id="polyline77-3"
         style="fill:none;stroke:#ffffff;stroke-width:0.936242;stroke-linecap:round;stroke-linejoin:round"
         class="r"
         d="m 23.78983,20.75853 v -4.324 h 2.726995 m -2.727002,2.162 h 1.772553" /><line
         class="r"
         x1="34.224663"
         y1="14.931008"
         x2="33.539268"
         y2="14.65558"
         id="line78"
         style="fill:none;stroke:#ffffff;stroke-width:0.936242;stroke-linecap:round;stroke-linejoin:round" /><path
         id="polyline75"
         style="fill:none;stroke:#ffffff;stroke-width:0.936242;stroke-linecap:round;stroke-linejoin:round"
         class="r"
         d="m 35.245467,20.799957 h -2.727 v -4.406854 h 2.727 m -2.727,2.203428 h 1.777978" /></g><g
       id="g4"
       transform="matrix(1.0284742,0,0,1.0290319,-1.2061325,-27.861329)"
       style="stroke-width:0.936242"><polyline
         class="r"
         points="217.20430529 48.65004656 217.20430529 40.65004656 222.50430529 48.65004656 222.50430529 40.65004656"
         id="polyline25"
         style="fill:none;stroke:#ffffff;stroke-width:0.936242;stroke-linecap:round;stroke-linejoin:round"
         transform="translate(-209.10171,11.548642)" /><path
         id="polyline75-7"
         style="fill:none;stroke:#ffffff;stroke-width:0.936242;stroke-linecap:round;stroke-linejoin:round"
         class="r"
         d="m 22.573051,60.198689 h -5.3 v -8 h 5.3 m -5.3,4 h 3.455547" /><path
         id="line19"
         style="fill:none;stroke:#ffffff;stroke-width:0.936242;stroke-linecap:round;stroke-linejoin:round"
         class="r"
         d="m 29.062555,57.572178 2.6188,2.624512 m -5.23785,0.002 v -8 h 2.61904 c 1.48065,0 2.68096,1.202894 2.68096,2.68674 0,1.483845 -1.20031,2.68674 -2.68096,2.68674 h -2.61904" /><rect
         class="r"
         x="35.61396"
         y="52.198696"
         width="5.3000021"
         height="7.9999881"
         rx="2.6499984"
         ry="2.6499984"
         id="rect135"
         style="fill:none;stroke:#ffffff;stroke-width:0.936242;stroke-linecap:round;stroke-linejoin:round" /></g></g><circle
     class="a"
     cx="24"
     cy="24"
     r="21.5"
     id="circle1"
     style="fill:none;stroke:#ffffff;stroke-linecap:round;stroke-linejoin:round" /></svg>
