<svg xmlns="http://www.w3.org/2000/svg" viewBox="0 0 48 48"><path style="fill:none;fill-opacity:0;transform-origin:35.06px 5.812px 0;stroke:#fff;stroke-linejoin:round;pointer-events:none" d="M32.757.072c3.506 0 5.719 4.832 3.966 8.468-.814 1.689-2.319 2.727-3.945 2.727" transform="rotate(-89.996)"/><path style="fill:none;fill-opacity:0;transform-origin:28.014px 11.911px 0;stroke:#fff;stroke-linejoin:round;pointer-events:none" d="M26.231 16.191c1.511-.09 2.675-.83 3.432-2.095 1.737-2.907-.434-6.541-3.912-6.541h-9.58c-3.478 0-5.649 3.634-3.912 6.541.757 1.265 2.12 2.081 3.631 2.171" transform="scale(-1)"/><path style="fill:transparent;stroke:#fff;stroke-linejoin:round;pointer-events:none" d="M38.244 16.252V40.43a3 3 0 0 1-3 3H8.498a3 3 0 0 1-3-3V13.684a3 3 0 0 1 3-3h17.42"/><path style="fill:transparent;stroke:#fff;stroke-linejoin:round;pointer-events:none" d="M8.6 19.085h26.3v18.498a3 3 0 0 1-3 3H11.6a3 3 0 0 1-3-3z"/><path style="fill:none;stroke:#fff;stroke-linejoin:round;stroke-linecap:round;pointer-events:none" d="m11.863 7.642.015 6.601"/><path class="c" d="M11.662 25.333c0-2.963 2.37-5.333 5.136-5.333s5.334 2.37 5.334 5.333c0 1.383-.593 2.766-1.58 3.753-2.174 1.778-8.89 6.914-8.89 6.914h10.47m12.373 0V20l-8.6 10.8h10.6" style="fill:none;stroke:#fff;stroke-linecap:round;stroke-linejoin:round" transform="translate(1.455 6.156)scale(.8409)"/></svg>