<?xml version="1.0" encoding="UTF-8"?><svg xmlns="http://www.w3.org/2000/svg" viewBox="0 0 48 48"><defs><style>.c,.d{fill:none;stroke:#fff;stroke-linejoin:round;}.d{stroke-linecap:round;}</style></defs><g id="a"><path class="d" d="M24.2591,31.5252h-1.82c-1.54,0-2.8,1.26-2.8,2.8h0c0,1.54,1.26,2.8,2.8,2.8h1.82c1.54,0,2.8-1.26,2.8-2.8h0c0-1.54-1.26-2.8-2.8-2.8Z"/><path class="d" d="M24.2591,31.5252c1.54,0,2.8-1.26,2.8-2.8h0c0-1.54-1.26-2.8-2.8-2.8h-1.82c-1.54,0-2.8,1.26-2.8,2.8h0c0,1.54,1.26,2.8,2.8,2.8"/></g><g id="b"><line class="d" x1="39.9" y1="19.6612" x2="6.9" y2="19.6612"/><path class="d" d="M39.9,16.1047v23.4126c0,2.2091-1.7909,4-4,4H10.9c-2.2091,0-4-1.7909-4-4V14.5173c0-2.2091,1.7909-4,4-4h14.9534"/><path class="d" d="M39.9,16.1047v23.4126c0,2.2091-1.7909,4-4,4H10.9c-2.2091,0-4-1.7909-4-4V14.5173c0-2.2091,1.7909-4,4-4h14.9534"/><path class="d" d="M12.8925,7.5173l.0151,6"/><path class="c" d="M39.9,16.1047c2.201,0,3.9852-1.7842,3.9852-3.9851s-1.7842-3.9851-3.9852-3.9851c-.0865,0-.1675.02-.2527.0255-.6538-2.1236-2.608-3.6772-4.946-3.6772s-4.2923,1.5536-4.9461,3.6772c-.0852-.0055-.1662-.0255-.2527-.0255-2.201,0-3.9851,1.7842-3.9851,3.9851s1.7842,3.9851,3.9851,3.9851h10.3975Z"/></g></svg>