<svg viewBox="0 0 48 48" xmlns="http://www.w3.org/2000/svg"><path style="fill:none;fill-opacity:0;stroke-linejoin:round;stroke:#fff" d="M29.803 8.36c-1.511.082-2.67.723-3.427 1.893-1.737 2.689.434 6.051 3.912 6.051h9.58c3.478 0 5.649-3.362 3.912-6.05-.757-1.171-2.12-1.926-3.667-1.94-.037-1.398-.989-2.759-2.541-3.494-3.338-1.586-7.769.371-7.769 3.54Z"/><path style="fill:none;stroke-linejoin:round;stroke:#fff" d="M38.244 16.252V40.43a3 3 0 0 1-3 3H8.498a3 3 0 0 1-3-3V13.684a3 3 0 0 1 3-3h17.42"/><path style="fill:none;stroke-linecap:round;stroke-linejoin:round;stroke:#fff" d="m11.863 7.642.015 6.601"/><path style="fill:none;stroke:#fff" d="M8 18.7h27.8v19.336a3 3 0 0 1-3 3H11a3 3 0 0 1-3-3z"/><a transform="matrix(0 0 0 0 17.55 22.65)">
    <path class="c" d="M17.023 35.766c.995.835 2.07 1.217 4.484 1.217h.563a3.604 3.604 0 0 0 0-7.209" style="fill:none;stroke:#fff;stroke-linecap:round;stroke-linejoin:round"/>
    <path class="c" d="M17.021 23.765c.998-.831 2.074-1.21 4.488-1.204l.561.004a3.605 3.605 0 0 1 0 7.209m-2.771 0h2.771" style="fill:none;stroke:#fff;stroke-linecap:round;stroke-linejoin:round"/>
  </a><path class="c" d="M10.8 27.366c0-2.703 2.162-4.866 4.686-4.866s4.867 2.163 4.867 4.866c0 1.262-.541 2.524-1.441 3.425C16.928 32.413 10.8 37.1 10.8 37.1h9.553m3.901-1.232c1.008.845 2.096 1.232 4.54 1.232h.569a3.65 3.65 0 0 0-.001-7.298m-5.11-6.083c1.011-.841 2.099-1.225 4.544-1.219l.567.004a3.65 3.65 0 1 1-.001 7.298m-2.804 0h2.805" style="fill:none;stroke:#fff;stroke-linecap:round;stroke-linejoin:round;stroke-width:1px"/></svg>