<svg viewBox="0 0 48 48" xmlns="http://www.w3.org/2000/svg"><path style="fill:none;fill-opacity:0;stroke-linejoin:round;stroke:#fff" d="M29.803 8.36c-1.511.082-2.67.723-3.427 1.893-1.737 2.689.434 6.051 3.912 6.051h9.58c3.478 0 5.649-3.362 3.912-6.05-.757-1.171-2.12-1.926-3.667-1.94-.037-1.398-.989-2.759-2.541-3.494-3.338-1.586-7.769.371-7.769 3.54Z"/><path style="fill:none;stroke-linejoin:round;stroke:#fff" d="M38.244 16.252V40.43a3 3 0 0 1-3 3H8.498a3 3 0 0 1-3-3V13.684a3 3 0 0 1 3-3h17.42"/><path style="fill:none;stroke-linecap:round;stroke-linejoin:round;stroke:#fff" d="m11.863 7.642.015 6.601"/><path style="fill:none;stroke:#fff" d="M8 18.7h27.8v19.336a3 3 0 0 1-3 3H11a3 3 0 0 1-3-3z"/><a transform="matrix(0 0 0 0 17.55 22.65)">
    <path class="c" d="M17.023 35.766c.995.835 2.07 1.217 4.484 1.217h.563a3.604 3.604 0 0 0 0-7.209" style="fill:none;stroke:#fff;stroke-linecap:round;stroke-linejoin:round"/>
    <path class="c" d="M17.021 23.765c.998-.831 2.074-1.21 4.488-1.204l.561.004a3.605 3.605 0 0 1 0 7.209m-2.771 0h2.771" style="fill:none;stroke:#fff;stroke-linecap:round;stroke-linejoin:round"/>
  </a><a transform="translate(.23 -.412)">
    <g transform="translate(-.364 4.712)scale(.9125)"><circle class="c" cx="24" cy="30.667" r="5.333" style="fill:none;stroke:#fff;stroke-linecap:round;stroke-linejoin:round"/><path class="c" d="M28.74 21.975C27.95 20.79 26.569 20 24.396 20H24a5.31 5.31 0 0 0-5.333 5.333v5.334" style="fill:none;stroke:#fff;stroke-linecap:round;stroke-linejoin:round"/></g>
  </a></svg>