<svg viewBox="0 0 48 48" xmlns="http://www.w3.org/2000/svg"><path style="fill:none;fill-opacity:0;stroke:#fff;stroke-linejoin:round" d="M29.32 8.115c0-3.506 4.832-5.72 8.468-3.966 1.69.814 2.727 2.32 2.727 3.945"/><path style="fill:none;fill-opacity:0;stroke:#fff;stroke-linejoin:round" d="M29.808 7.668c-1.511.09-2.675.83-3.432 2.095-1.737 2.907.434 6.541 3.912 6.541h9.58c3.478 0 5.649-3.634 3.912-6.54-.757-1.266-2.12-2.082-3.631-2.172"/><path style="fill:none;stroke:#fff;stroke-linejoin:round" d="M38.244 16.252V40.43a3 3 0 0 1-3 3H8.498a3 3 0 0 1-3-3V13.684a3 3 0 0 1 3-3h17.42"/><path style="fill:none;stroke:#fff;stroke-linejoin:round" d="M8.6 19.085h26.3v18.498a3 3 0 0 1-3 3H11.6a3 3 0 0 1-3-3z"/><path style="fill:none;stroke:#fff;stroke-linecap:round;stroke-linejoin:round" d="m11.863 7.642.015 6.601"/><g transform="translate(.356 5.483)scale(.87393)"><circle class="c" cx="24" cy="30.667" r="5.333" style="fill:none;stroke:#fff;stroke-linecap:round;stroke-linejoin:round"/><path class="c" d="M28.74 21.975C27.95 20.79 26.569 20 24.396 20H24a5.31 5.31 0 0 0-5.333 5.333v5.334" style="fill:none;stroke:#fff;stroke-linecap:round;stroke-linejoin:round"/></g></svg>