<?xml version="1.0" encoding="UTF-8"?><svg xmlns="http://www.w3.org/2000/svg" viewBox="0 0 48 48"><defs><style>.g{fill:none;stroke:#fff;stroke-linecap:round;stroke-linejoin:round;}</style></defs><g id="a"><path class="g" d="M24.1758721,33.06193886c0,2.07407251,1.65925906,3.7333263,3.73333158,3.7333263s3.59505691-1.65925379,3.59505691-3.7333263v-3.7333263c0-2.07407251-1.65925906-3.7333263-3.59505691-3.7333263s-3.73333158,1.65925379-3.73333158,3.7333263v3.7333263Z"/><line class="g" x1="16.49573941" y1="27.13527358" x2="19.29573941" y2="25.59527571"/><line class="g" x1="19.29573941" y1="25.59527571" x2="19.29573941" y2="36.79527571"/></g><g id="b"><path id="c" class="g" d="M11.5320413,9.56735452l24.93586075-.00000002c2.20913926,0,4.00000048,1.79086121,4.00000048,4.00000047l.00000002,24.93264496c0,2.20913926-1.79086121,4.00000048-4.00000047,4.00000048l-24.93586075.00000002c-2.20913926,0-4.00000048-1.79086121-4.00000048-4.00000047l-.00000002-24.93264496c0-2.20913926,1.79086121-4.00000048,4.00000047-4.00000048Z"/><path id="d" class="g" d="M13.71514511,5.50000031v4.06813622"/><path id="e" class="g" d="M34.13961654,5.50000029v4.06813622"/><path id="f" class="g" d="M9.73125889,19.8905617l28.36001067-.00000003"/></g></svg>