<svg xmlns="http://www.w3.org/2000/svg" xml:space="preserve" width="48" height="48" viewBox="0 0 12.7 12.7"><path fill="none" stroke="#fff" stroke-linecap="round" stroke-linejoin="round" stroke-width=".265" d="M9.436 3.867a.263.26 0 0 1-.263.261.263.26 0 0 1-.263-.26.263.26 0 0 1 .263-.261.263.26 0 0 1 .263.26zm-2.277 0a.263.26 0 0 1-.264.261.263.26 0 0 1-.263-.26.263.26 0 0 1 .263-.261.263.26 0 0 1 .264.26zm-.392.971c.139.635.663 1.084 1.267 1.084.604 0 1.128-.45 1.267-1.084zm3.413-.4c0 .24-.004.364-.068.685-.102.51-.477 1.429-1.993 2.665.292-.682.125-1.105-.531-1.27-.962-.241-1.7-1.057-1.7-2.08 0-1.175.961-2.127 2.146-2.127s2.146.952 2.146 2.127zm1.858 1.912a5.688 5.69 0 0 1-5.688 5.69A5.688 5.69 0 0 1 .662 6.35 5.688 5.69 0 0 1 6.35.66a5.688 5.69 0 0 1 5.688 5.69zm-7.752-.491a3.787 3.787 0 0 1-.138-.69.461.461 0 0 0-.462-.405H2.601a.474.474 0 0 0-.47.519 5.824 5.824 0 0 0 5.28 5.281.473.473 0 0 0 .519-.469v-.968c0-.353-.173-.556-.406-.58a3.785 3.785 0 0 1-.689-.139.77.77 0 0 0-.765.196l-.464.464a4.914 4.914 0 0 1-1.98-1.98l.465-.464a.77.77 0 0 0 .195-.765z"/></svg>
