<svg xmlns="http://www.w3.org/2000/svg" xml:space="preserve" id="svg1" version="1.1" viewBox="0 0 48 48"><defs id="defs1"><style id="style1">.a{fill:none;stroke:#fff;stroke-linecap:round;stroke-linejoin:round}</style></defs><path id="path1868" d="M28.677 17.633c4.868 0 13.03 3.35 14.157 6.01 1.126 2.662.98 6.715-1.696 6.724-2.053.007-5.982-.83-7.597-1.757-3.077-1.766-.44-3.896-2.92-5.355-.958-.564-2.606-.441-6.621-.441-4.015 0-5.663-.123-6.622.441-2.48 1.459.158 3.59-2.919 5.355-1.615.926-5.544 1.764-7.597 1.757-2.676-.01-2.822-4.062-1.696-6.723 1.126-2.662 9.289-6.011 14.157-6.011z" style="fill:none;stroke:#fff;stroke-width:1;stroke-linecap:round;stroke-linejoin:round;stroke-dashoffset:1.3;stroke-opacity:1"/></svg>