<?xml version="1.0" encoding="UTF-8"?>
<!-- Created with Inkscape (http://www.inkscape.org/) -->
<svg version="1.1" viewBox="0 0 48 48" xml:space="preserve" xmlns="http://www.w3.org/2000/svg"><defs><style>.a{fill:none;stroke:#fff;stroke-linecap:round;stroke-linejoin:round;}</style></defs><g transform="matrix(1.0993 0 0 1.0993 -58.814 -1.757)" fill-opacity="0" stroke="#fff" stroke-linecap="round" stroke-linejoin="round" stroke-width=".90968"><path d="m74.487 32.456c-0.42142-0.14508-0.84283-0.29016-0.96718-0.71158-0.12435-0.42142 0.04836-1.1192 0.67013-1.6511 0.62177-0.53196 1.6926-0.8981 2.6598-0.64938 0.96719 0.24871 1.8307 1.1123 1.9309 2.2729 0.10017 1.1606-0.56303 2.6183-2.1002 3.4162-1.5372 0.79793-3.9482 0.9361-6.1002-0.01384-2.152-0.94993-4.0449-2.9879-4.9119-6.0657-0.86701-3.0778-0.70812-7.1951 0.96031-10.214 1.6684-3.019 4.8463-4.9395 7.1882-5.772s3.848-0.57686 5.354-0.32125"/><path d="m72.015 25.309c-0.0635 1.1236-0.12701 2.2471-0.04396 2.9896 0.08305 0.74253 0.31264 1.104 0.5862 1.17 0.27356 0.06595 0.59108-0.16365 1.1651-0.9013 0.574-0.73765 1.4044-1.9833 1.5119-3.0434 0.10746-1.0601-0.50804-1.9345-1.3434-2.4132s-1.8905-0.56178-2.9457-0.64482"/><path d="m71.952 26.538c-0.45719 0.24203-0.91437 0.48405-1.1864 0.63012-0.272 0.14607-0.3588 0.19618-0.41924 0.91986-0.06045 0.72368-0.09455 2.1209 0.44455 3.3169 0.53909 1.196 1.6513 2.1908 2.8051 2.4464 1.1537 0.25561 2.3489-0.22798 2.8739-0.87738 0.52504-0.6494 0.37997-1.4646-0.06217-1.5786-0.44214-0.11399-1.1813 0.47323-1.9206 1.0604"/><path d="m81.005 19.264c0.59758 0.57686 1.1952 1.1537 2.2591 1.3696 1.0639 0.21589 2.5941 0.07081 3.8672-0.35077 1.2731-0.42158 2.289-1.1196 2.7799-1.6763 0.49087-0.55665 0.45667-0.97187 0.42248-1.3871"/><path d="m85.782 18.135c0.77375 0.02073 1.5475 0.04145 2.3061-0.11105 0.75858-0.1525 1.502-0.47823 1.9821-0.68894 0.48014-0.21071 0.69702-0.30639 0.56512-0.79246-0.1319-0.48607-0.61256-1.3625-1.273-2.2355-0.66046-0.87299-1.5007-1.7425-2.5656-2.0747-1.0649-0.33218-2.3546-0.12701-3.1899-0.50806-0.83534-0.38104-1.2164-1.3483-1.8026-1.656-0.58621-0.30775-1.3776 0.04396-1.8507 0.60023-0.47313 0.55627-0.628 1.3171-0.72082 1.9765-0.09282 0.65948-0.12357 1.2176-0.15433 1.7758"/><circle cx="85.952" cy="15.23" r="1.4"/><path d="m77.012 19.77c0.43477 0.44942 0.86953 0.89884 1.1309 1.1675 0.26135 0.26868 0.34928 0.35661 0.12701 0.72055-0.22227 0.36394-0.75473 1.0039-0.72297 1.6487 0.03176 0.64483 0.62772 1.2945 1.4606 1.678 0.83291 0.38348 1.9027 0.50071 2.5048 0.57033 0.60208 0.06961 0.73642 0.0916 0.93548-0.03053 0.19907-0.12213 0.46285-0.38836 0.51292-0.72909s-0.11358-0.75595-0.50455-1.0356-1.0092-0.42374-1.3685-0.51132c-0.35923-0.08759-0.4594-0.11867-0.11394-0.56038 0.34546-0.44171 1.1365-1.294 1.9276-2.1463"/><path d="m75.245 25.208c0.46579-0.01909 0.93158-0.03819 1.3729-0.21571 0.44132-0.17752 0.85814-0.51345 1.275-0.8494"/><path d="m65.755 20.924c0.42085 0.32831 0.84171 0.65662 1.472 0.83415 0.63032 0.17753 1.4701 0.20428 1.9426 0.09061 0.47255-0.11366 0.57785-0.36773 0.5683-0.5936-0.0095-0.22587-0.13394-0.42354-0.42574-0.66649s-0.75097-0.53115-1.1718-0.92152c-0.42081-0.39037-0.80322-0.88288-1.1856-1.3754"/><path d="m65.876 29.716c-1.8689 1.4178-3.7377 2.8355-4.5893 3.8656-0.85153 1.0301-0.68573 1.6726-0.23322 2.0353s1.1917 0.4456 2.2845-0.12359c1.0928-0.56919 2.539-1.7904 3.9853-3.0117"/><path d="m70.596 30.89c2.2708-1.3376 4.5416-2.6752 8.0203-3.9397 3.4786-1.2646 8.1648-2.456 11.309-3.0898 3.144-0.63383 4.7453-0.70996 4.5094-0.84939-0.2359-0.13943-2.3098-0.34222-3.4691-0.48802-1.1593-0.14581-1.4054-0.23478-0.37526-0.86068 1.0301-0.62591 3.3364-1.7887 1.9655-1.6139-1.3709 0.1748-6.4899 1.7084-11.467 3.1996"/><path d="m62.414 32.459c-0.88341-0.8983-1.7668-1.7966-2.2134-2.7343-0.44659-0.93766-0.45636-1.9146-0.32446-2.5253 0.1319-0.61063 0.40545-0.85488 0.59597-1.0283 0.19052-0.17342 0.29799-0.276 0.42011-0.26623 0.12213 0.0098 0.2589 0.1319 0.61307 0.5227s0.92571 1.0503 1.2432 1.7928c0.31753 0.74253 0.38103 1.5681 0.35044 2.2302-0.03059 0.66212-0.15528 1.1608-0.27998 1.6594"/><path d="m61.155 31.121c-0.68875-0.14948-1.3775-0.29895-1.9515-0.21981-0.57398 0.07914-1.0331 0.38688-1.1821 0.6287-0.149 0.24182 0.0122 0.41767 0.32973 0.64971s0.79136 0.52025 1.4266 0.63784c0.63525 0.11759 1.4319 0.06455 2.2285 0.0115"/><path d="m68.085 16.826c0.31013 0.59518 0.62025 1.1903 1.1104 1.7815 0.49013 0.59121 1.1602 1.1784 1.6887 1.5135 0.52851 0.33507 0.91537 0.41796 1.2124 0.32815 0.29707-0.08981 0.50432-0.35233 0.39724-0.85665s-0.52849-1.2504-0.88214-2.1171-0.63951-1.8539-0.92538-2.8411"/><path d="m71.883 13.926c0.20029 0.79983 0.40058 1.5997 0.66682 2.3196 0.26624 0.7199 0.59842 1.3598 0.91866 1.6848 0.32024 0.32497 0.62853 0.33498 0.86546 0.1982s0.40247-0.42034 0.44861-1.0262c0.04614-0.60587-0.02714-1.534-0.07317-2.3027-0.046041-0.7687-0.064841-1.3779-0.083641-1.9872"/><path d="m75.991 12.548c-0.02369 0.70724-0.04739 1.4145-0.01379 2.0036 0.03359 0.5891 0.12446 1.06 0.37459 1.286 0.25013 0.22603 0.65948 0.20714 0.87037-0.03827s0.22328-0.71729 0.28129-1.2978c0.05801-0.58048 0.16164-1.2695 0.26527-1.9585"/><path d="m85.661 24.839c-0.57232 0.90413-1.1446 1.8083-1.2745 2.7977-0.12984 0.98943 0.1828 2.0641 0.39041 2.6405 0.20761 0.57643 0.3102 0.65459 0.43721 0.67413 0.12701 0.01954 0.27844-0.01954 0.52026-0.2296 0.24181-0.21006 0.57399-0.59108 0.84999-1.1504s0.49583-1.297 0.53566-1.7504c0.03983-0.45347-0.10034-0.62275-0.2591-0.84746-0.15877-0.22471-0.33612-0.50484-0.44709-0.89293-0.11097-0.38808-0.15554-0.8841 6.51e-4 -1.1753 0.1562-0.29121 0.51315-0.37759 1.0044-0.32986 0.49126 0.04773 1.1168 0.22957 1.6934 0.5965 0.57657 0.36693 1.1041 0.91893 1.3777 1.5564 0.27356 0.6375 0.2931 1.3605 0.26868 1.7806-0.02443 0.42011-0.09282 0.53735-0.2931 0.55933-0.20029 0.02198-0.53246-0.05129-0.96235-0.22227-0.42989-0.17098-0.95746-0.43965-1.411-0.75878-0.45356-0.31913-0.83309-0.6887-1.2126-1.0583"/></g></svg>
