<?xml version="1.0" encoding="UTF-8"?>
<!-- Created with Inkscape (http://www.inkscape.org/) -->
<svg version="1.1" viewBox="0 0 48 48" xml:space="preserve" xmlns="http://www.w3.org/2000/svg"><defs><style>.a{fill:none;stroke:#fff;stroke-linecap:round;stroke-linejoin:round;}</style></defs><g transform="translate(-55.141 1.6852)" fill-opacity="0" stroke="#fff" stroke-linecap="round" stroke-linejoin="round"><path d="m62.881 34.404c4.4722 1.4778 9.1413 2.3585 13.845 2.6114 4.6492 0.25002 9.331-0.11334 13.886-1.0777"/><path d="m90.404 30.964 0.20725 4.9741"/><path d="m66.902 12.933-4.0207 21.472"/><path d="m92.386 19.403 7.6793-0.8793"/><path d="m98.005 18.76 0.12558 7.5606"/><ellipse cx="78.031" cy="16.601" rx=".89119" ry=".72539"/><path d="m91.959 30.881c-0.41457-0.64081-0.82914-1.2816-1.2758-2.4569-0.44666-1.1753-0.92538-2.885-1.3015-4.8635-0.37615-1.9785-0.64971-4.2255-0.67413-5.7839-0.02442-1.5583 0.20028-2.4278 0.97702-3.1069 0.77673-0.67902 2.1054-1.1675 3.2343-1.3905 1.1289-0.223 2.0579-0.1805 2.9869-0.13799"/><path d="m66.902 12.933c-0.33852-0.20725-0.67703-0.41451-1.0225-0.78757-0.34543-0.37306-0.69775-0.91191-0.94991-1.4853-0.25216-0.57341-0.40414-1.1813-0.44214-1.7617-0.038-0.58032 0.038-1.133 0.17962-1.4508 0.14163-0.31779 0.34888-0.40069 1.4064-0.25823 1.0576 0.14246 2.9654 0.51026 4.8732 0.87807"/><path d="m81.958 8.1983c1.0951-0.73622 2.1902-1.4724 2.9622-1.8129 0.77207-0.34047 1.2211-0.28521 1.4962 0.28358s0.37617 1.6511 0.47727 2.7334"/><path d="m75.544 15.668c0.45596-0.29016 0.91192-0.58031 1.6339-0.68394 0.72194-0.10363 1.7098-0.02073 2.6977 0.06218"/><path d="m84.999 30.717c0.977 0.17586 1.954 0.35172 2.8548 0.39284 0.9008 0.04112 1.7254-0.0525 2.3967-0.11313 0.67137-0.06063 1.1895-0.08826 2.1157-0.24662 0.92621-0.15836 2.2605-0.44744 3.504-0.84601 1.2436-0.39857 2.3964-0.9066 3.1194-1.5319s1.0161-1.3678 1.2506-2.335c0.23448-0.96724 0.41034-2.1592 0.40057-3.7224-0.01-1.5632-0.20517-3.4977-0.66437-4.8948-0.4592-1.3971-1.1822-2.2569-2.3057-3.2046s-2.6477-1.9833-4.5106-2.8002c-1.863-0.81684-4.0647-1.4149-6.6929-2.0402-2.6282-0.62529-5.6826-1.2778-8.4731-1.5258-2.7904-0.24804-5.3167-0.091602-7.0216 0.41645-1.7049 0.50805-2.5883 1.3677-3.1299 2.2041-0.54166 0.83644-0.74154 1.6496-0.94143 2.4628"/></g></svg>
