<?xml version="1.0" encoding="UTF-8" standalone="no"?>
<svg
   viewBox="0 0 48 48"
   version="1.1"
   id="svg1"
   sodipodi:docname="carrion.svg"
   inkscape:version="1.2.2 (b0a8486541, 2022-12-01)"
   xml:space="preserve"
   xmlns:inkscape="http://www.inkscape.org/namespaces/inkscape"
   xmlns:sodipodi="http://sodipodi.sourceforge.net/DTD/sodipodi-0.dtd"
   xmlns="http://www.w3.org/2000/svg"
   xmlns:svg="http://www.w3.org/2000/svg"><sodipodi:namedview
     id="namedview1"
     pagecolor="#505050"
     bordercolor="#eeeeee"
     borderopacity="1"
     inkscape:showpageshadow="0"
     inkscape:pageopacity="0"
     inkscape:pagecheckerboard="0"
     inkscape:deskcolor="#505050"
     inkscape:zoom="12.59534"
     inkscape:cx="41.285112"
     inkscape:cy="21.198317"
     inkscape:window-width="1918"
     inkscape:window-height="1053"
     inkscape:window-x="0"
     inkscape:window-y="0"
     inkscape:window-maximized="1"
     inkscape:current-layer="svg1"
     showgrid="false" /><defs
     id="defs1"><style
       id="style1">.a { fill:none;stroke:#fff;stroke-linecap:round;stroke-linejoin:round; }
</style></defs><g
     id="g10253"><path
       style="fill:none;stroke:#ffffff;stroke-width:1;stroke-linecap:round;stroke-linejoin:round;stroke-opacity:1;stop-color:#000000"
       d="m 25.780877,7.5732765 c -3.364954,2.4129038 0.149796,4.9388325 0.376445,9.6711445 1.871641,-1.489728 3.57889,-4.982444 2.706046,-9.065237 z"
       id="path10211" /><path
       style="fill:none;stroke:#ffffff;stroke-width:1;stroke-linecap:round;stroke-linejoin:round;stroke-opacity:1;stop-color:#000000"
       d="m 39.442125,18.723447 -1.014048,2.121242 -3.022021,-0.03174 -0.252342,-0.427842 -1.456563,0.725452 c 0.400596,-2.183394 1.560449,-4.477208 3.551328,-4.607989 0.832154,-0.05467 1.320885,1.015019 2.193646,2.220887 z"
       id="path10209" /><path
       style="fill:none;stroke:#ffffff;stroke-width:1;stroke-linecap:round;stroke-linejoin:round;stroke-opacity:1;stop-color:#000000"
       d="m 15.095515,15.810608 c 1.178863,2.492102 1.668221,5.466929 1.255294,7.740393 -1.067363,-1.338698 -2.326154,-2.80535 -3.693211,-3.756258 -0.862295,-0.5998 -0.962372,-1.608547 -0.557812,-2.513615 0.523414,-1.170966 1.052545,-1.331321 1.917427,-1.853433 z"
       id="path10205" /><path
       style="fill:none;stroke:#ffffff;stroke-width:1;stroke-linecap:round;stroke-linejoin:round;stroke-opacity:1;stop-color:#000000"
       d="m 19.426721,15.502075 h 1.477617 c 0.980389,3.441092 1.390462,4.616192 1.163264,7.023084 -1.014562,-2.356665 -2.939143,-2.879513 -3.155707,-4.751914 -0.09195,-0.795017 -0.03097,-1.637798 0.514826,-2.27117 z"
       id="path10203" /><path
       style="fill:none;stroke:#ffffff;stroke-width:1;stroke-linecap:round;stroke-linejoin:round;stroke-opacity:1;stop-color:#000000"
       d="m 27.446509,22.537421 c 1.640305,-1.209814 3.436205,-2.326817 4.248792,-3.629441 0.31148,-0.499321 0.373777,-0.959891 -0.03484,-1.3146 -0.705327,-0.612273 -1.515727,-0.193979 -2.200321,0.365769 -1.530391,1.251305 -1.884981,2.766296 -2.013631,4.578272 z"
       id="path10199" /><path
       style="fill:none;stroke:#ffffff;stroke-width:1;stroke-linecap:round;stroke-linejoin:round;stroke-opacity:1;stop-color:#000000"
       d="m 35.105387,25.335927 0.0294,2.141932 c -3.86148,0.11978 -3.789801,-0.770603 -5.114809,-2.058283 3.781617,-0.562041 3.460107,0.06149 5.08541,-0.08366 z"
       id="path10197" /><path
       style="fill:none;stroke:#ffffff;stroke-width:1;stroke-linecap:round;stroke-linejoin:round;stroke-opacity:1;stop-color:#000000"
       d="m 20.200602,34.397432 -0.9822,0.293135 c -1.125019,0.9438 -2.223208,1.974187 -2.55822,3.488778 -0.212923,0.962626 0.215137,1.829943 1.250052,2.172341 0.75007,0.248159 1.785575,-0.08619 2.057218,-0.80532 0.447446,-1.451371 0.531158,-3.409101 0.23315,-5.148934 z"
       id="path10189" /><path
       style="fill:none;stroke:#ffffff;stroke-width:1;stroke-linecap:round;stroke-linejoin:round;stroke-opacity:1;stop-color:#000000"
       d="m 35.466906,31.812798 c -1.634476,-1.382019 -3.408348,-2.057894 -5.230005,-2.28978 0.326669,1.324666 1.407566,2.539605 2.429889,4.124091 0.652747,1.011682 1.281874,0.69642 1.838295,0.231674 z"
       id="path10187" /><path
       style="fill:none;stroke:#ffffff;stroke-width:1;stroke-linecap:round;stroke-linejoin:round;stroke-opacity:1;stop-color:#000000"
       d="m 14.700628,28.200837 c -1.567038,1.27236 -3.003848,1.158479 -4.054935,2.714921 -0.268843,0.398101 -0.191697,0.828523 0.124115,1.411169 0.302788,0.558618 1.111712,0.942037 1.84323,0.879048 0.923512,-0.768275 2.204652,-3.507507 2.08759,-5.005138 z"
       id="path10185" /><path
       style="fill:none;stroke:#ffffff;stroke-width:1;stroke-linecap:round;stroke-linejoin:round;stroke-opacity:1;stop-color:#000000"
       d="m 27.690423,41.354869 c -1.18387,-1.935446 -1.635277,-3.969044 -1.829503,-6.022261 -0.07399,-0.782221 -0.01113,-1.4413 0.823938,-0.849898 1.244375,0.881275 2.660514,2.103917 3.985841,4.438799 0.584822,1.030308 0.48739,1.860317 -0.460796,2.21295 -0.85475,0.317883 -2.345489,0.504861 -2.51948,0.22041 z"
       id="path10181" /></g><g
     id="g10271"><path
       style="fill:none;stroke:#ffffff;stroke-width:1;stroke-linecap:round;stroke-linejoin:round;stroke-opacity:1;stop-color:#000000"
       d="M 23.233669,8.9666163 C 22.721768,11.04949 18.040905,14.269934 15.305939,15.800784"
       id="path10207" /><path
       style="fill:none;stroke:#ffffff;stroke-width:1;stroke-linecap:round;stroke-linejoin:round;stroke-opacity:1;stop-color:#000000"
       d="m 24.016017,13.693635 c -0.564056,0.234943 -0.931481,0.534439 -2.024804,0.595636 -0.166163,0.368485 -0.619522,0.974137 -1.087272,1.183824"
       id="path10201" /><path
       style="fill:none;stroke:#ffffff;stroke-width:1;stroke-linecap:round;stroke-linejoin:round;stroke-opacity:1;stop-color:#000000"
       d="m 34.580005,22.581047 c 0.0054,0.563525 -0.03493,1.127302 -0.03378,1.644216 7.43e-4,0.333932 -0.351352,0.573678 -0.368578,0.882824"
       id="path10195" /><path
       style="fill:none;stroke:#ffffff;stroke-width:1;stroke-linecap:round;stroke-linejoin:round;stroke-opacity:1;stop-color:#000000"
       d="m 33.930484,27.729726 c 0.0123,0.45057 -0.06701,0.9011 -0.203782,1.351604"
       id="path10193" /><path
       style="fill:none;stroke:#ffffff;stroke-width:1;stroke-linecap:round;stroke-linejoin:round;stroke-opacity:1;stop-color:#000000"
       d="m 25.17641,38.324409 c -0.21472,-0.08932 -0.484285,-0.12105 -0.840219,-0.05304 -1.47192,0.281261 -0.938829,1.332545 -1.701292,1.323931 -0.498105,-0.0056 -0.377852,-0.934472 -0.985708,-1.318425 -0.441899,-0.279127 -0.825179,-0.327885 -1.280914,-0.29105"
       id="path10191" /><path
       style="fill:none;stroke:#ffffff;stroke-width:1;stroke-linecap:round;stroke-linejoin:round;stroke-opacity:1;stop-color:#000000"
       d="m 10.880104,19.504505 c -0.362374,0.403974 -0.826169,0.861324 -1.4094883,1.127633 0.066114,3.702688 -0.3610696,8.21076 0.8002143,10.353922"
       id="path10183" /><path
       style="fill:none;stroke:#ffffff;stroke-width:1;stroke-linecap:round;stroke-linejoin:round;stroke-opacity:1;stop-color:#000000"
       d="m 29.031909,6.1515108 2.156329,0.7660184 c 2.892202,2.7102626 2.388603,0.2963028 6.122194,3.6452548 1.777508,1.594386 2.016229,3.330054 3.543004,5.265167 1.85836,2.355382 1.886607,5.602589 2.089715,8.568584 0.159517,2.329431 0.03023,4.450679 -0.655403,5.977261 -4.305114,4.125598 -2.518185,3.312558 -2.960188,4.724144 -1.517746,1.588264 -3.205365,2.728453 -3.299,4.257704"
       id="path10179" /><path
       style="fill:none;stroke:#ffffff;stroke-width:1;stroke-linecap:round;stroke-linejoin:round;stroke-opacity:1;stop-color:#000000"
       d="m 25.698163,44.318967 -6.939736,0.433508 C 16.972739,44.14542 15.687328,43.053587 14.286492,41.808273"
       id="path10177" /><path
       style="fill:none;stroke:#ffffff;stroke-width:1;stroke-linecap:round;stroke-linejoin:round;stroke-opacity:1;stop-color:#000000"
       d="M 11.157635,40.828657 C 8.0329607,37.116865 5.7000316,33.174534 6.0934605,30.112142 L 4.9936181,27.933931 C 6.5243417,24.674388 7.1640182,21.105188 7.2640711,15.956197 9.3713873,12.287638 10.689909,10.227203 14.873382,7.6450195 18.171502,5.6093051 20.647788,4.6264312 24.900577,3.2475261"
       id="path10175" /><path
       style="fill:none;stroke:#ffffff;stroke-width:1;stroke-linecap:round;stroke-linejoin:round;stroke-opacity:1;stop-color:#000000"
       d="m 30.860169,21.604545 c 0.328639,0.673603 0.589071,1.285902 0.750486,1.886407"
       id="path10173" /><path
       style="fill:none;stroke:#ffffff;stroke-width:1;stroke-linecap:round;stroke-linejoin:round;stroke-opacity:1;stop-color:#000000"
       d="m 26.551536,18.554347 0.755949,0.271275"
       id="path10171" /><path
       style="fill:none;stroke:#ffffff;stroke-width:1;stroke-linecap:round;stroke-linejoin:round;stroke-opacity:1;stop-color:#000000"
       d="m 30.138026,13.351594 c 1.022535,0.719752 2.027829,1.444245 3.252425,2.108431 -0.05074,0.847384 -0.0082,1.697627 0.07177,2.549018"
       id="path10169" /><path
       style="fill:none;stroke:#ffffff;stroke-width:1;stroke-linecap:round;stroke-linejoin:round;stroke-opacity:1;stop-color:#000000"
       d="m 18.49756,19.910529 c -0.225342,0.199586 -0.443847,0.404281 -0.660056,0.616585"
       id="path10167" /><path
       style="fill:none;stroke:#ffffff;stroke-width:1;stroke-linecap:round;stroke-linejoin:round;stroke-opacity:1;stop-color:#000000"
       d="m 30.955248,33.677359 c -0.325211,0.371319 -0.727428,0.699554 -1.218323,0.933755 l -0.06626,0.775463"
       id="path10165" /><path
       style="fill:none;stroke:#ffffff;stroke-width:1;stroke-linecap:round;stroke-linejoin:round;stroke-opacity:1;stop-color:#000000"
       d="m 15.223727,26.183656 c 0.140874,-0.497211 0.258575,-1.033265 0.339851,-1.598819"
       id="path10163" /><path
       style="fill:none;stroke:#ffffff;stroke-width:1;stroke-linecap:round;stroke-linejoin:round;stroke-opacity:1;stop-color:#000000"
       d="m 15.351739,31.612816 c 0.126635,0.797941 0.191526,1.604802 0.177233,2.457145 0.432595,0.308132 0.841551,0.561043 1.293644,0.735241"
       id="path9166" /></g></svg>
