<svg width="49" height="49" viewBox="0 0 49 49" fill="none" xmlns="http://www.w3.org/2000/svg">
<path d="M32.3142 26.2111C27.5646 26.2111 23.7142 30.0615 23.7142 34.8111C23.7142 36.5182 24.2116 38.1092 25.0694 39.447C25.2516 39.7311 25.136 40.1224 24.8096 40.2085C24.3835 40.3209 23.9958 40.3781 23.6593 40.3781C20.0818 40.3781 10.8495 33.9155 10.8495 23.4137V14.8231C10.8495 14.7838 10.8726 14.7481 10.9084 14.7319L23.6184 9.00675C23.6444 8.99503 23.6742 8.99498 23.7002 9.00661L36.5253 14.732C36.5613 14.7481 36.5845 14.7839 36.5845 14.8233V23.4137C36.5845 24.4842 36.4874 25.5128 36.3091 26.4968C36.2509 26.818 35.8988 26.9846 35.5971 26.8599C34.5856 26.4418 33.4768 26.2111 32.3142 26.2111Z" stroke="white"/>
<path d="M33.27 29.0444H31.4287C31.1526 29.0444 30.9287 29.2683 30.9287 29.5444V32.8064C30.9287 33.0825 30.7049 33.3064 30.4287 33.3064H27.0886C26.8125 33.3064 26.5886 33.5302 26.5886 33.8064V35.7123C26.5886 35.9884 26.8125 36.2123 27.0886 36.2123H30.4287C30.7049 36.2123 30.9287 36.4361 30.9287 36.7123V40.0349C30.9287 40.3111 31.1526 40.5349 31.4287 40.5349H33.27C33.5461 40.5349 33.77 40.3111 33.77 40.0349V36.7123C33.77 36.4361 33.9939 36.2123 34.27 36.2123H37.5965C37.8727 36.2123 38.0965 35.9884 38.0965 35.7123V33.8064C38.0965 33.5302 37.8727 33.3064 37.5965 33.3064H34.27C33.9939 33.3064 33.77 33.0825 33.77 32.8064V29.5444C33.77 29.2683 33.5461 29.0444 33.27 29.0444Z" stroke="white"/>
</svg>
