<?xml version="1.0" encoding="UTF-8" standalone="no"?>
<svg
   viewBox="0 0 48 48"
   version="1.1"
   id="svg1"
   xml:space="preserve"
   xmlns="http://www.w3.org/2000/svg"
   xmlns:svg="http://www.w3.org/2000/svg"><defs
     id="defs1"><style
       id="style1">.a{fill:none;stroke:#fff;stroke-linecap:round;stroke-linejoin:round;}</style></defs><path
     class="a"
     d="M40.5,5.5H7.5a2,2,0,0,0-2,2v33a2,2,0,0,0,2,2h33a2,2,0,0,0,2-2V7.5A2,2,0,0,0,40.5,5.5Z"
     id="path1" /><path
     style="opacity:1;fill:none;stroke:#ffffff;stroke-linecap:round;stroke-linejoin:round;stroke-dashoffset:0.5"
     d="M 42.5,28.406102 5.5,38.708048"
     id="path2" /><path
     style="opacity:1;fill:none;stroke:#ffffff;stroke-linecap:round;stroke-linejoin:round;stroke-dashoffset:0.5"
     d="m 29.921094,5.5 8.685955,37"
     id="path3" /><path
     style="opacity:1;fill:none;stroke:#ffffff;stroke-linecap:round;stroke-linejoin:round;stroke-dashoffset:0.5"
     d="M 10.476682,37.322386 11.56444,42.5"
     id="path4" /><path
     style="opacity:1;fill:none;stroke:#ffffff;stroke-linecap:round;stroke-linejoin:round;stroke-dashoffset:0.5"
     d="M 5.5,24 32.663969,17.183963"
     id="path5" /><path
     style="opacity:1;fill:none;stroke:#ffffff;stroke-linecap:round;stroke-linejoin:round;stroke-dashoffset:0.5"
     d="m 11.690689,5.5 3.99147,15.945072"
     id="path6" /><path
     style="opacity:1;fill:none;stroke:#ffffff;stroke-linecap:round;stroke-linejoin:round;stroke-dashoffset:0.5"
     d="m 24,33.557075 c 2.62181,-4.46081 6.701222,-8.907673 6.67859,-13.38243 C 30.665999,17.685297 27.95976,14.336883 24,14.240926 20.288496,14.150985 17.399909,17.217649 17.463904,20.997994 17.514723,24 20.945559,28.861989 24,33.557075 Z"
     id="path7" /><circle
     style="opacity:1;fill:none;stroke:#ffffff;stroke-linecap:round;stroke-linejoin:round;stroke-dashoffset:0.5"
     id="path8"
     cx="24"
     cy="20.399986"
     r="2.5" /></svg>
