<?xml version="1.0" encoding="UTF-8" standalone="no"?>
<svg
   id="Layer_1"
   data-name="Layer 1"
   version="1.1"
   viewBox="0 0 48 48"
   sodipodi:docname="cartes_ign.svg"
   inkscape:version="1.1.2 (0a00cf5339, 2022-02-04)"
   xmlns:inkscape="http://www.inkscape.org/namespaces/inkscape"
   xmlns:sodipodi="http://sodipodi.sourceforge.net/DTD/sodipodi-0.dtd"
   xmlns="http://www.w3.org/2000/svg"
   xmlns:svg="http://www.w3.org/2000/svg">
  <sodipodi:namedview
     id="namedview9"
     pagecolor="#ffffff"
     bordercolor="#666666"
     borderopacity="1.0"
     inkscape:pageshadow="2"
     inkscape:pageopacity="0.0"
     inkscape:pagecheckerboard="0"
     showgrid="false"
     inkscape:zoom="10.562408"
     inkscape:cx="29.302032"
     inkscape:cy="24.047548"
     inkscape:window-width="1502"
     inkscape:window-height="988"
     inkscape:window-x="82"
     inkscape:window-y="25"
     inkscape:window-maximized="0"
     inkscape:current-layer="Layer_1" />
  <defs
     id="defs4">
    <style
       id="style2">
      .cls-1 {
        fill: none;
        stroke: #fff;
        stroke-linecap: round;
        stroke-linejoin: round;
      }
    </style>
  </defs>
  <path
     id="France-outline"
     fill="#86aae0"
     d="m 21.132709,13.731791 c -1.433164,-0.577299 0.84063,-1.584138 1.571542,-1.610799 0.399702,-0.326599 1.308891,-0.87371 1.08872,-0.953154 -0.404657,-1.4141356 0.134043,-2.7549261 1.792551,-2.6221806 0.477478,-0.1098538 0.348675,1.7520786 1.321026,0.8760015 0.400225,0.3966854 0.380087,1.0642071 1.099668,0.9790811 -0.09866,0.858378 1.682273,0.0016 1.039169,1.058437 0.04001,0.920338 1.185378,0.594054 1.484599,-0.0676 -0.301851,1.018053 0.953153,1.570132 1.63116,1.944543 0.844739,0.113312 2.103553,-0.189862 2.493196,0.984989 0.930773,-0.14979 2.059289,0.195555 3.186485,0.514112 -1.038854,1.111339 -1.128505,2.588014 -1.28806,4.023947 0.415983,0.811871 -0.347504,1.2148 -0.938516,0.94299 -0.112383,1.092695 -1.535325,2.084699 -1.948142,3.401741 0.429335,0.397364 -0.642698,1.289578 0.375971,0.746842 0.102746,-1.018946 1.656737,-0.8412 1.481964,0.292114 1.008292,0.432056 -0.811679,1.215825 0.298042,1.372496 0.62803,0.832698 0.365554,1.621474 -0.649164,1.85079 0.434288,0.731561 1.38252,1.000791 0.650403,1.959892 0.01715,1.179215 1.480774,0.753928 1.950336,1.126482 -0.25633,1.276694 -1.35857,1.652928 -2.220689,2.522253 0.148062,0.668186 -1.14136,1.027202 -1.4431,0.887715 -1.002503,0.264825 -1.636862,-0.73891 -2.596401,-0.857244 -0.278694,0.05062 -0.967437,0.461844 -0.900518,-0.166866 -1.029304,-0.161919 -1.823578,-0.330274 -2.574236,0.595784 -0.917628,0.342755 -1.299288,0.544573 -0.987857,1.453054 -0.179048,0.770388 0.675339,1.523757 -0.487298,1.204784 -0.61039,0.846455 -1.371709,-0.165433 -2.084509,0.270925 -0.550457,-0.831465 -2.19853,-1.515714 -3.058382,-1.337683 -0.560146,0.808702 -1.933208,-0.133796 -2.632184,-0.158554 -0.664268,-0.185374 -1.888436,-0.85938 -2.343486,-1.077102 0.63814,-0.771487 -1.529728,-0.566096 -0.297389,-1.122784 0.733191,-1.127062 0.69834,-2.550581 1.089445,-3.80482 0.68435,0.270329 0.05722,-0.705914 -0.101382,0.0057 0.261702,-0.890616 0.01936,-2.21142 0.548998,-2.851306 0.505924,0.284589 1.04248,2.27952 0.745649,0.721522 -0.215494,-0.800238 -1.762908,-1.49088 -1.263202,-2.27237 0.31517,0.147947 0.275913,1.200473 0.479009,0.226772 0.321288,-0.640722 -1.798549,-1.185688 -0.309927,-0.76188 0.722391,-0.548932 -1.543401,-0.608592 -1.40092,-1.574818 -1.043248,-0.505012 0.3779,-1.326013 -0.626696,-1.606696 0.887129,-0.68386 -1.2652,-0.148869 -0.424822,-1.09347 -0.209902,-0.06968 -1.362619,-0.121553 -0.573216,-0.385533 -0.676996,-0.405303 -0.876737,0.830427 -1.070719,-0.264917 -0.794257,-0.620181 -1.728264,-0.750979 -2.361766,-0.837937 -0.133859,-0.677881 -1.2204681,-0.788727 0.03677,-0.819 0.679621,-0.236318 -1.327567,-0.716616 0.02534,-0.640098 0.33712,0.236282 -0.05138,-0.667632 -0.59516,-0.137265 -0.8936946,-1.014954 1.639587,-1.115794 1.847083,-1.051309 0.729688,-0.08928 1.917523,-0.909867 2.213487,0.519469 0.328303,0.608751 0.918886,-0.674325 1.371362,0.0076 0.3203,-0.517623 1.987581,0.590888 1.273843,-0.384743 0.535772,-1.007858 -1.067187,-2.669185 -0.361441,-3.076953 0.613866,0.259024 1.380888,-0.228575 1.195969,0.858859 0.658699,0.426281 2.351394,0.837002 3.195934,0.196914"
     style="fill:none;stroke:#ffffff;stroke-width:1;stroke-miterlimit:4;stroke-dasharray:none;stroke-opacity:1;stroke-linecap:round;stroke-linejoin:round" />
  <line
     class="r"
     x1="20.3314"
     y1="20.71162"
     x2="20.3314"
     y2="26.117939"
     id="line8"
     style="fill:none;stroke:#ffffff;stroke-width:1;stroke-linecap:round;stroke-linejoin:round;stroke-opacity:1;stroke-miterlimit:4;stroke-dasharray:none" />
  <polyline
     class="r"
     points="217.20430529 48.65004656 217.20430529 40.65004656 222.50430529 48.65004656 222.50430529 40.65004656"
     id="polyline74"
     style="fill:none;stroke:#ffffff;stroke-linecap:round;stroke-linejoin:round;stroke-opacity:1;stroke-width:1.47975009;stroke-miterlimit:4;stroke-dasharray:none"
     transform="matrix(0.67578979,0,0,0.67578979,-118.54074,-6.5559994)" />
  <path
     class="r"
     d="m 26.190093,22.61327 c 0,-0.989055 -0.801791,-1.790842 -1.790844,-1.790842 h -6e-6 c -0.989053,0 -1.790843,0.801787 -1.790843,1.790842 v 1.824626 c 0,0.989055 0.80179,1.790842 1.790843,1.790842 h 6e-6 c 0.989053,0 1.790844,-0.801787 1.790844,-1.790842 h -1.790844"
     id="path496"
     style="fill:none;stroke:#ffffff;stroke-width:1;stroke-linecap:round;stroke-linejoin:round;stroke-opacity:1;stroke-miterlimit:4;stroke-dasharray:none" />
</svg>
