<svg xmlns="http://www.w3.org/2000/svg" xml:space="preserve" id="svg1" version="1.1" viewBox="0 0 48 48"><defs id="defs1"><style id="style1">.a{fill:none;stroke:#fff;stroke-linecap:round;stroke-linejoin:round}</style></defs><path id="path6" d="M22.192 19.604A2.92 2.92 0 0 1 24 18.977a2.92 2.92 0 0 1 1.808.627m-6.965-3.372A7.579 7.579 0 0 1 24 14.207a7.579 7.579 0 0 1 5.158 2.026m-13.707-3.421A12.394 12.394 0 0 1 24 9.392a12.394 12.394 0 0 1 8.549 3.42m-10.312 25.04h3.526c.82 0 1.479.66 1.479 1.48v.052c0 .82-.66 1.479-1.479 1.479h-3.526c-.82 0-1.479-.66-1.479-1.48v-.052c0-.819.66-1.478 1.479-1.478zm-4.76-1.812V24.714c0-.82.66-1.479 1.478-1.479v0h10.048c.819 0 1.479.66 1.479 1.48V36.04Zm1.565-15.674h9.916a4.427 4.427 0 0 1 4.436 4.437v13.213a4.427 4.427 0 0 1-4.436 4.437h-9.916a4.427 4.427 0 0 1-4.436-4.437V24.803a4.427 4.427 0 0 1 4.436-4.437zm-4.436 14.157H7.472A1.967 1.967 0 0 1 5.5 32.551V7.52c0-1.092.88-1.972 1.972-1.972v0h33.056c1.093 0 1.972.88 1.972 1.972v25.032c0 1.093-.88 1.972-1.972 1.972h-7.134" style="fill:none;stroke:#fff;stroke-width:1;stroke-linecap:round;stroke-linejoin:round;stroke-opacity:1"/></svg>