<?xml version="1.0" encoding="UTF-8" standalone="no"?>
<svg
   id="a"
   viewBox="0 0 48 48"
   version="1.1"
   sodipodi:docname="cdula_digital.svg"
   inkscape:version="1.4.2 (ebf0e940d0, 2025-05-08)"
   xml:space="preserve"
   xmlns:inkscape="http://www.inkscape.org/namespaces/inkscape"
   xmlns:sodipodi="http://sodipodi.sourceforge.net/DTD/sodipodi-0.dtd"
   xmlns="http://www.w3.org/2000/svg"
   xmlns:svg="http://www.w3.org/2000/svg"><sodipodi:namedview
     id="namedview5"
     pagecolor="#505050"
     bordercolor="#eeeeee"
     borderopacity="1"
     inkscape:showpageshadow="0"
     inkscape:pageopacity="0"
     inkscape:pagecheckerboard="0"
     inkscape:deskcolor="#505050"
     inkscape:zoom="10.370899"
     inkscape:cx="26.516505"
     inkscape:cy="34.953575"
     inkscape:window-width="1895"
     inkscape:window-height="1135"
     inkscape:window-x="12"
     inkscape:window-y="52"
     inkscape:window-maximized="0"
     inkscape:current-layer="a" /><defs
     id="defs1"><style
       id="style1">.b{fill:none;stroke:#fff;stroke-linecap:round;stroke-linejoin:round;}</style><style
       id="style1-6">.a{fill:none;stroke:#fff;stroke-linecap:round;stroke-linejoin:round;}</style><style
       id="style1-67">
      .cls-1 {
        fill: none;
        stroke: #fff;
        stroke-linecap: round;
        stroke-linejoin: round;
      }
    </style></defs><path
     class="b"
     d="m 24.178884,28.111212 c 0,3.615088 2.926285,6.545707 6.536029,6.545707 0.680215,0 1.336188,-0.104082 1.95286,-0.297161"
     id="path1"
     style="stroke-width:1" /><path
     class="b"
     d="M 12.153184,20.407839 C 14.671799,16.530419 19.036916,13.966551 24,13.966551 c 4.963086,0 9.328203,2.563936 11.846818,6.441288"
     id="path2"
     style="stroke-width:1" /><path
     class="b"
     d="M 15.332162,12.755053 C 17.891091,11.303134 20.848912,10.474278 24,10.474278 c 3.15109,0 6.10891,0.828856 8.66784,2.280775"
     id="path3"
     style="stroke-width:1" /><path
     class="b"
     d="m 31.148514,28.110063 c 0,-3.857401 -3.122389,-6.984413 -6.974087,-6.984413 -3.851698,0 -6.974087,3.127012 -6.974087,6.984413 v 0 c 0,3.559294 1.519126,6.763334 3.943469,8.997107"
     id="path4"
     style="stroke-width:1" /><path
     class="b"
     d="m 14.358669,33.333156 c -0.641523,-1.615919 -0.994224,-3.378253 -0.994224,-5.223093 v 0 c 0,-5.882609 4.761713,-10.651373 10.635623,-10.651373 5.87391,0 10.635623,4.768764 10.635623,10.651373 0,1.9287 -1.561193,3.492206 -3.487042,3.492206 -1.92585,0 -3.487044,-1.563506 -3.487044,-3.492206 0,-1.928701 -1.561193,-3.492207 -3.487043,-3.492207 -1.925849,0 -3.487043,1.563506 -3.487043,3.492207 h 0.0022 c 0,4.644462 3.289589,8.519447 7.662608,9.41566"
     id="path5"
     style="stroke-width:1" /><path
     id="rect5"
     style="fill:none;stroke:#ffffff;stroke-width:1;stroke-linecap:round;stroke-linejoin:round;stroke-dasharray:none;stroke-opacity:1;paint-order:markers stroke fill"
     d="m 5.5000024,11.317692 v -0.792999 c 0,-2.7836783 2.2410123,-5.0246906 5.0246906,-5.0246906 v 0 l 0.793,1e-7" /><path
     id="path12"
     style="fill:none;stroke:#ffffff;stroke-width:1;stroke-linecap:round;stroke-linejoin:round;stroke-dasharray:none;stroke-opacity:1;paint-order:markers stroke fill"
     d="m 11.317692,42.5 h -0.792999 c -2.7836783,0 -5.0246906,-2.241011 -5.0246906,-5.024691 l 1e-7,-0.792998" /><path
     id="path10"
     style="fill:none;stroke:#ffffff;stroke-width:1;stroke-linecap:round;stroke-linejoin:round;stroke-dasharray:none;stroke-opacity:1;paint-order:markers stroke fill"
     d="m 42.5,36.68231 v 0.792999 C 42.5,40.258989 40.258989,42.5 37.475309,42.5 l -0.792998,10e-7" /><path
     id="path8"
     style="fill:none;stroke:#ffffff;stroke-width:1;stroke-linecap:round;stroke-linejoin:round;stroke-dasharray:none;stroke-opacity:1;paint-order:markers stroke fill"
     d="m 36.68231,5.5000024 h 0.792999 c 2.78368,0 5.024691,2.2410123 5.024691,5.0246906 l 10e-7,0.793" /></svg>
