<?xml version="1.0" encoding="UTF-8" standalone="no"?>
<svg
   viewBox="0 0 48 48"
   version="1.1"
   id="svg1"
   xml:space="preserve"
   xmlns="http://www.w3.org/2000/svg"
   xmlns:svg="http://www.w3.org/2000/svg"><defs
     id="defs1"><style
       id="style1">.a{fill:none;stroke:#fff;stroke-linecap:round;stroke-linejoin:round;}</style></defs><path
     class="a"
     d="M40.5,5.5H7.5a2,2,0,0,0-2,2v33a2,2,0,0,0,2,2h33a2,2,0,0,0,2-2V7.5A2,2,0,0,0,40.5,5.5Z"
     id="path1" /><path
     style="fill:none;stroke:#ffffff;stroke-linecap:round;stroke-linejoin:round;stroke-dashoffset:0.5"
     d="m 15.070349,11.068264 c 0,0 5.924049,-0.825429 8.929651,-0.825429 3.005603,0 8.929651,0.825429 8.929651,0.825429"
     id="path2" /><path
     style="fill:none;stroke:#ffffff;stroke-linecap:round;stroke-linejoin:round;stroke-dashoffset:0.5"
     d="m 10.793122,16.946326 c 0,0 8.781622,0.800417 13.206878,0.800417 4.425256,0 13.206879,-0.800417 13.206879,-0.800417"
     id="path3" /><path
     style="fill:none;stroke:#ffffff;stroke-linecap:round;stroke-linejoin:round;stroke-dashoffset:0.5"
     d="m 8.7170401,22.299114 c 0,0 10.1267879,2.388744 15.2829599,2.388744 5.156172,0 15.28296,-2.388744 15.28296,-2.388744"
     id="path4" /><path
     style="fill:none;stroke:#ffffff;stroke-linecap:round;stroke-linejoin:round;stroke-dashoffset:0.5"
     d="m 9.4924441,28.177175 c 0,0 9.5759349,2.901511 14.5075559,2.901511 4.931621,0 14.507556,-2.901511 14.507556,-2.901511"
     id="path5" /><path
     style="fill:none;stroke:#ffffff;stroke-linecap:round;stroke-linejoin:round;stroke-dashoffset:0.5"
     d="m 12.468994,34.430432 c 0,0 7.530572,3.326733 11.531006,3.326733 4.000434,0 11.531005,-3.326733 11.531005,-3.326733"
     id="path6" /></svg>
