<?xml version="1.0" encoding="UTF-8"?><svg id="a" xmlns="http://www.w3.org/2000/svg" viewBox="0 0 48 48"><defs><style>.d{fill:none;stroke:#fff;stroke-linecap:round;stroke-linejoin:round;}</style></defs><path class="d" d="m42.5 9.6111v-4.1111h-18.5c-10.217 0-18.5 8.2827-18.5 18.5s8.2827 18.5 18.5 18.5h18.5v-4.1111h-18.5c-7.9468 0-14.389-6.4421-14.389-14.389-2e-7 -7.9468 6.4421-14.389 14.389-14.389z"/><path class="d" d="m32.333 30.167-4.1111 4.1111h-4.2222c-5.6763 0-10.278-4.6015-10.278-10.278s4.6015-10.278 10.278-10.278h4.2222l4.1111 4.1111h-8.3333c-3.4058 0-6.1667 2.7609-6.1667 6.1667s2.7609 6.1667 6.1667 6.1667z"/><path class="d" d="m36.444 26.056 2.0556-2.0556-2.0556-2.0556h-12.444c-1.1353 0-2.0556 0.9203-2.0556 2.0556s0.9203 2.0556 2.0556 2.0556z"/><path class="d" d="m32.222 13.722 4.1111 4.1111h6.1667v-4.1111z"/><path class="d" d="m36.333 30.167-4.1111 4.1111h10.278v-4.1111z"/></svg>
