<?xml version="1.0" encoding="UTF-8" standalone="no"?>
<!-- Created with Inkscape (http://www.inkscape.org/) -->

<svg
   width="48"
   height="48"
   viewBox="0 0 48 48"
   version="1.1"
   id="svg1"
   xml:space="preserve"
   xmlns="http://www.w3.org/2000/svg"
   xmlns:svg="http://www.w3.org/2000/svg"><defs
     id="defs1"><style
       id="style1">.a{fill:none;stroke:#fff;stroke-linecap:round;stroke-linejoin:round;}</style><style
       id="style1-2">.q,.r,.s{stroke-width:0px;}.t{stroke:#fff;stroke-linecap:round;stroke-linejoin:round;}.t,.u{fill:none;}.r,.u{stroke-miterlimit:10;stroke-width:0px;}.s{fill:#fff;}.v{font-family:OpenSans-Regular, 'Open Sans';font-size:6px;font-variation-settings:'wght' 400, 'wdth' 100;}</style><style
       id="style1-5">.q,.r,.s{stroke-width:0px;}.t{stroke:#fff;stroke-linecap:round;stroke-linejoin:round;}.t,.u{fill:none;}.r,.u{stroke-miterlimit:10;stroke-width:0px;}.s{fill:#fff;}.v{font-family:OpenSans-Regular, 'Open Sans';font-size:6px;font-variation-settings:'wght' 400, 'wdth' 100;}</style></defs><g
     id="layer1"><g
       id="layer2"
       transform="matrix(0.47546075,0,0,0.47546075,-21.65559,-21.65369)"
       style="display:inline"><rect
         style="fill:none;fill-rule:evenodd;stroke:#ffffff;stroke-width:1;stroke-linecap:round;stroke-linejoin:round;stroke-miterlimit:3.4;stroke-dasharray:none;paint-order:stroke fill markers"
         id="rect1"
         width="26.148018"
         height="26.14802"
         x="10.925991"
         y="10.92599"
         ry="2.8355663"
         transform="matrix(2.103223,0,0,2.103223,45.546535,45.54254)" /><g
         id="layer3"
         transform="matrix(2.103223,0,0,2.103223,45.546536,45.54254)"><path
           id="path28"
           style="display:inline;fill:none;fill-rule:evenodd;stroke:#ffffff;stroke-width:1;stroke-linecap:round;stroke-linejoin:round;stroke-miterlimit:3.4;stroke-dasharray:none;paint-order:stroke fill markers"
           d="m 5.4335,17.5565 4.066,0 m -4.066,4.278 4.066,0 m -4.066,4.338 4.066,0 m -4.066,4.278 4.066,0" /><path
           id="path25"
           style="display:inline;fill:none;fill-rule:evenodd;stroke:#ffffff;stroke-width:1;stroke-linecap:round;stroke-linejoin:round;stroke-miterlimit:3.4;stroke-dasharray:none;paint-order:stroke fill markers"
           d="M 30.447,38.504 V 42.57 M 26.169,38.504 V 42.57 M 21.831,38.504 V 42.57 M 17.553,38.504 V 42.57" /><path
           id="path27"
           style="display:inline;fill:none;fill-rule:evenodd;stroke:#ffffff;stroke-width:1;stroke-linecap:round;stroke-linejoin:round;stroke-miterlimit:3.4;stroke-dasharray:none;paint-order:stroke fill markers"
           d="m 38.5005,17.5565 4.066,0 m -4.066,4.278 4.066,0 m -4.066,4.338 4.066,0 m -4.066,4.278 h 4.066" /><path
           id="path8"
           style="display:inline;fill:none;fill-rule:evenodd;stroke:#ffffff;stroke-width:1;stroke-linecap:round;stroke-linejoin:round;stroke-miterlimit:3.4;stroke-dasharray:none;paint-order:stroke fill markers"
           d="M 30.447,5.437 V 9.503 M 26.169,5.437 V 9.503 M 21.831,5.437 V 9.503 M 17.553,5.437 v 4.066" /></g></g><g
       id="g6"
       style="display:inline"
       transform="matrix(0.74338039,0,0,0.74338039,1.2136541,2.4419814)"><circle
         class="s"
         cx="33.520889"
         cy="25.767883"
         r="0.75"
         id="circle4"
         style="display:inline;fill:#ffffff;stroke-width:0px"
         transform="translate(-1.2167626,10.882101)" /><circle
         class="s"
         cx="33.520889"
         cy="20.46788"
         r="0.75"
         id="circle5"
         style="display:inline;fill:#ffffff;stroke-width:0px"
         transform="translate(-1.2167626,10.882101)" /><polyline
         class="t"
         points="97.8338 25.739 99.8338 24.65 99.8338 32.65"
         id="polyline3"
         style="display:inline;fill:none;stroke:#ffffff;stroke-linecap:round;stroke-linejoin:round"
         transform="translate(-56.229673,5.3499658)" /><path
         class="t"
         d="m 29.999979,8.149093 c 0,-1.6355 1.4816,-2.925 3.1759,-2.5994 1.1113,0.2136 1.9988,1.1747 2.1094,2.301 0.0823,0.8378 -0.1828,1.6644 -0.7615,2.1722 -1.072,0.9408 -4.5238,3.4762 -4.5238,3.4762 h 5.3"
         id="path424-8"
         style="display:inline;fill:none;stroke:#ffffff;stroke-linecap:round;stroke-linejoin:round"
         transform="matrix(0.99997291,0,0,1.0000016,4.3049469,24.500439)" /><path
         class="t"
         d="m 26.1009,16.825166 c 0.5523,0.4628 1.1485,0.6748 2.4876,0.6748 h 0.312 c 1.1043,0 1.9995,-0.8952 1.9995,-1.9995 v 0 c 0,-1.1043 -0.8952,-1.9995 -1.9995,-1.9995"
         id="path469-7"
         style="display:inline;fill:none;stroke:#ffffff;stroke-linecap:round;stroke-linejoin:round"
         transform="translate(-0.5958738,20.499986)" /><path
         class="t"
         d="m 26.1,10.168166 c 0.5535,-0.4613 1.1503,-0.6717 2.4894,-0.6681 l 0.3111,0.0018 c 1.1043,0 1.9995,0.8952 1.9995,1.9995 v 0 c 0,1.1043 -0.8952,1.9995 -1.9995,1.9995"
         id="path470-5"
         style="display:inline;fill:none;stroke:#ffffff;stroke-linecap:round;stroke-linejoin:round"
         transform="translate(-0.5958738,20.499986)" /><line
         class="t"
         x1="27.363504"
         y1="13.500866"
         x2="28.900499"
         y2="13.500866"
         id="line470-2"
         style="display:inline;fill:none;stroke:#ffffff;stroke-linecap:round;stroke-linejoin:round"
         transform="translate(-0.5958738,20.499986)" /><polyline
         class="t"
         points="131.3111 32.65 131.3107 24.65 127.0172 30.0236 132.3172 30.0236"
         id="polyline2"
         style="display:inline;fill:none;stroke:#ffffff;stroke-linecap:round;stroke-linejoin:round"
         transform="matrix(1.0000093,0,0,0.99999945,-108.8143,5.3499523)" /><circle
         class="s"
         cx="33.520889"
         cy="25.767883"
         r="0.75"
         id="circle440-5"
         style="display:inline;fill:#ffffff;stroke-width:0px"
         transform="translate(-1.2208888,0.8821182)" /><circle
         class="s"
         cx="33.520889"
         cy="20.46788"
         r="0.75"
         id="circle441-8"
         style="display:inline;fill:#ffffff;stroke-width:0px"
         transform="translate(-1.2208888,0.8821182)" /><polyline
         class="t"
         points="97.8338 25.739 99.8338 24.65 99.8338 32.65"
         id="polyline344-5"
         style="display:inline;fill:none;stroke:#ffffff;stroke-linecap:round;stroke-linejoin:round"
         transform="translate(-56.2338,-4.650017)" /><polyline
         class="t"
         points="131.3111 32.65 131.3107 24.65 127.0172 30.0236 132.3172 30.0236"
         id="polyline1"
         style="display:inline;fill:none;stroke:#ffffff;stroke-linecap:round;stroke-linejoin:round"
         transform="matrix(1.0000093,0,0,0.99999945,-92.71843,-4.6500306)" /><path
         class="t"
         d="m 25,28 v -8 h 1.8 c 1.933,0 3.5,1.567 3.5,3.5 v 1 c 0,1.933 -1.567,3.5 -3.5,3.5 z"
         id="path413-4"
         style="display:inline;fill:none;stroke:#ffffff;stroke-linecap:round;stroke-linejoin:round" /><polyline
         class="t"
         points="131.3111 32.65 131.3107 24.65 127.0172 30.0236 132.3172 30.0236"
         id="polyline389-8"
         style="display:inline;fill:none;stroke:#ffffff;stroke-linecap:round;stroke-linejoin:round"
         transform="matrix(1.0000093,0,0,0.99999945,-109.31843,-4.6500306)" /></g></g></svg>
