<svg xmlns="http://www.w3.org/2000/svg" xml:space="preserve" id="svg1" version="1.1" viewBox="0 0 48 48"><defs id="defs1"><style id="style1">.a{fill:none;stroke:#fff;stroke-linecap:round;stroke-linejoin:round}</style></defs><path id="path26879" d="M27.37 33.558v6.972a2.965 2.965 0 0 1-2.973 2.97H11.488a2.965 2.965 0 0 1-2.973-2.97V14.232a2.965 2.965 0 0 1 2.973-2.97v0h12.91a2.965 2.965 0 0 1 2.973 2.97v6.974" style="fill:none;stroke:#fff;stroke-width:1;stroke-linecap:round;stroke-linejoin:round;stroke-opacity:1"/><path id="path26877" d="M20.83 11.166V7.47a2.965 2.965 0 0 1 2.973-2.97v0h12.709a2.965 2.965 0 0 1 2.973 2.97v26.298a2.965 2.965 0 0 1-2.973 2.97h-9.046" style="fill:none;stroke:#fff;stroke-width:1;stroke-linecap:round;stroke-linejoin:round;stroke-opacity:1"/><path id="path26875" d="m22.561 33.284-6.202-6.02 6.202-6.018" style="fill:none;stroke:#fff;stroke-width:1;stroke-linecap:round;stroke-linejoin:round;stroke-opacity:1"/><path id="path26586" d="M16.369 27.274c9.037.536 17.56.542 18.803-10.362" style="fill:none;stroke:#fff;stroke-width:1;stroke-linecap:round;stroke-linejoin:round;stroke-opacity:1"/></svg>