<?xml version="1.0" encoding="UTF-8" standalone="no"?>
<!-- Created with Inkscape (http://www.inkscape.org/) -->

<svg
   width="48"
   height="48"
   viewBox="0 0 48 48"
   version="1.1"
   id="svg1"
   xml:space="preserve"
   xmlns="http://www.w3.org/2000/svg"
   xmlns:svg="http://www.w3.org/2000/svg"><defs
     id="defs1"><style
       id="style1">.a{fill:none;stroke:#fff;stroke-linecap:round;stroke-linejoin:round;}</style><style
       id="style1-2">.q,.r,.s{stroke-width:0px;}.t{stroke:#fff;stroke-linecap:round;stroke-linejoin:round;}.t,.u{fill:none;}.r,.v{fill:#ff0;}.u{stroke:#ff0;stroke-miterlimit:10;stroke-width:.25px;}.s{fill:#fff;}.v{font-family:OpenSans-Regular, 'Open Sans';font-size:6px;font-variation-settings:'wght' 400, 'wdth' 100;}</style><style
       id="style1-5">.q,.r,.s{stroke-width:0px;}.t{stroke:#fff;stroke-linecap:round;stroke-linejoin:round;}.t,.u{fill:none;}.r,.v{fill:#ff0;}.u{stroke:#ff0;stroke-miterlimit:10;stroke-width:.25px;}.s{fill:#fff;}.v{font-family:OpenSans-Regular, 'Open Sans';font-size:6px;font-variation-settings:'wght' 400, 'wdth' 100;}</style></defs><g
     id="layer1"><g
       id="layer2"
       transform="matrix(0.47546075,0,0,0.47546075,-21.655387,-21.65369)"
       style="display:inline"><rect
         style="fill:none;stroke:#ffffff;stroke-width:2.10322;stroke-dasharray:none;stroke-opacity:1;paint-order:stroke fill markers"
         id="rect2"
         width="55.350018"
         height="54.895084"
         x="68.324989"
         y="68.55246"
         ry="6.1201186" /><path
         id="rect3-4-7"
         style="fill:none;stroke:#ffffff;stroke-width:2.10322;stroke-dasharray:none;stroke-opacity:1;paint-order:stroke fill markers"
         d="m 100.58487,65.529448 c 0,0.509848 0,-8.549815 0,-8.549815 0,-0.509848 0,8.549815 0,8.549815 z m 8.99839,-3.32e-4 c 0,0.509848 0,-8.549815 0,-8.549815 0,-0.509848 0,8.549815 0,8.549815 z m -27.119108,0 c 0,0.509848 0,-8.549815 0,-8.549815 0,-0.509848 0,8.549815 0,8.549815 z m 8.998389,-3.31e-4 c 0,0.509847 0,-8.549816 0,-8.549816 0,-0.509848 0,8.549816 0,8.549816 z" /><path
         id="rect3-4-7-6"
         style="fill:none;stroke:#ffffff;stroke-width:2.10322;stroke-linecap:round;stroke-linejoin:round;stroke-dasharray:none;stroke-opacity:1;paint-order:stroke fill markers"
         d="m 100.58437,135.06082 c 0,0.50984 0,-8.54982 0,-8.54982 0,-0.50985 0,8.54982 0,8.54982 z m 8.99838,-3.4e-4 c 0,0.50985 0,-8.54981 0,-8.54981 0,-0.50985 0,8.54981 0,8.54981 z m -27.119094,0 v -8.54981 z m 8.998389,-3.3e-4 c 0,0.50984 10e-7,-8.54982 10e-7,-8.54982 0,-0.50985 -10e-7,8.54982 -10e-7,8.54982 z" /><path
         id="rect3-4-7-0"
         style="fill:none;stroke:#ffffff;stroke-width:2.10322;stroke-linecap:round;stroke-linejoin:round;stroke-dasharray:none;stroke-opacity:1;paint-order:stroke fill markers"
         d="m 126.514,100.58344 c -0.50989,0 8.5506,0 8.5506,0 0.50989,0 -8.5506,0 -8.5506,0 z m 3.2e-4,8.99921 c -0.50989,0 8.5506,0 8.5506,0 0.50989,0 -8.5506,0 -8.5506,0 z m 0,-27.121579 h 8.5506 z m 8.55093,8.999208 h -8.55059 z" /><path
         id="rect3-4-7-6-6"
         style="fill:none;stroke:#ffffff;stroke-width:2.10322;stroke-linecap:round;stroke-linejoin:round;stroke-dasharray:none;stroke-opacity:1;paint-order:stroke fill markers"
         transform="rotate(90)"
         d="m 100.58116,-56.982526 c 0,0.509848 0,-8.549816 0,-8.549816 0,-0.509847 0,8.549816 0,8.549816 z m 8.99838,-3.51e-4 c 0,0.509848 0,-8.549816 0,-8.549816 0,-0.509847 0,8.549816 0,8.549816 z m -27.119112,0 v -8.549816 z m 8.99839,-3.51e-4 c 0,0.509848 0,-8.549816 0,-8.549816 0,-0.509847 0,8.549816 0,8.549816 z" /><path
         id="path1"
         style="display:none;fill:none;stroke:#ffffff;stroke-width:2.10322;stroke-linecap:round;stroke-linejoin:round;stroke-dasharray:none;stroke-opacity:1;paint-order:stroke fill markers"
         d="m 112.19732,87.340723 c -4.62486,-3.458412 -9.25011,-5.741819 -16.173857,-5.769529 -6.923743,0.02771 -11.549,2.311117 -16.173861,5.769529 l 16.173861,23.127947 z" /></g><g
       id="g6"
       style="display:inline"
       transform="matrix(0.74338039,0,0,0.74338039,1.2138569,2.4419814)"><circle
         class="s"
         cx="33.520889"
         cy="25.767883"
         r="0.75"
         id="circle4"
         style="display:inline;fill:#ffffff;stroke-width:0px"
         transform="translate(-1.2167626,10.882101)" /><circle
         class="s"
         cx="33.520889"
         cy="20.46788"
         r="0.75"
         id="circle5"
         style="display:inline;fill:#ffffff;stroke-width:0px"
         transform="translate(-1.2167626,10.882101)" /><polyline
         class="t"
         points="97.8338 25.739 99.8338 24.65 99.8338 32.65"
         id="polyline3"
         style="display:inline;fill:none;stroke:#ffffff;stroke-linecap:round;stroke-linejoin:round"
         transform="translate(-56.229673,5.3499658)" /><path
         class="t"
         d="m 29.999979,8.149093 c 0,-1.6355 1.4816,-2.925 3.1759,-2.5994 1.1113,0.2136 1.9988,1.1747 2.1094,2.301 0.0823,0.8378 -0.1828,1.6644 -0.7615,2.1722 -1.072,0.9408 -4.5238,3.4762 -4.5238,3.4762 h 5.3"
         id="path424-8"
         style="display:inline;fill:none;stroke:#ffffff;stroke-linecap:round;stroke-linejoin:round"
         transform="matrix(0.99997291,0,0,1.0000016,4.3049469,24.500439)" /><path
         class="t"
         d="m 26.1009,16.825166 c 0.5523,0.4628 1.1485,0.6748 2.4876,0.6748 h 0.312 c 1.1043,0 1.9995,-0.8952 1.9995,-1.9995 v 0 c 0,-1.1043 -0.8952,-1.9995 -1.9995,-1.9995"
         id="path469-7"
         style="display:inline;fill:none;stroke:#ffffff;stroke-linecap:round;stroke-linejoin:round"
         transform="translate(-0.5958738,20.499986)" /><path
         class="t"
         d="m 26.1,10.168166 c 0.5535,-0.4613 1.1503,-0.6717 2.4894,-0.6681 l 0.3111,0.0018 c 1.1043,0 1.9995,0.8952 1.9995,1.9995 v 0 c 0,1.1043 -0.8952,1.9995 -1.9995,1.9995"
         id="path470-5"
         style="display:inline;fill:none;stroke:#ffffff;stroke-linecap:round;stroke-linejoin:round"
         transform="translate(-0.5958738,20.499986)" /><line
         class="t"
         x1="27.363504"
         y1="13.500866"
         x2="28.900499"
         y2="13.500866"
         id="line470-2"
         style="display:inline;fill:none;stroke:#ffffff;stroke-linecap:round;stroke-linejoin:round"
         transform="translate(-0.5958738,20.499986)" /><polyline
         class="t"
         points="131.3111 32.65 131.3107 24.65 127.0172 30.0236 132.3172 30.0236"
         id="polyline2"
         style="display:inline;fill:none;stroke:#ffffff;stroke-linecap:round;stroke-linejoin:round"
         transform="matrix(1.0000093,0,0,0.99999945,-108.8143,5.3499523)" /><circle
         class="s"
         cx="33.520889"
         cy="25.767883"
         r="0.75"
         id="circle440-5"
         style="display:inline;fill:#ffffff;stroke-width:0px"
         transform="translate(-1.2208888,0.8821182)" /><circle
         class="s"
         cx="33.520889"
         cy="20.46788"
         r="0.75"
         id="circle441-8"
         style="display:inline;fill:#ffffff;stroke-width:0px"
         transform="translate(-1.2208888,0.8821182)" /><polyline
         class="t"
         points="97.8338 25.739 99.8338 24.65 99.8338 32.65"
         id="polyline344-5"
         style="display:inline;fill:none;stroke:#ffffff;stroke-linecap:round;stroke-linejoin:round"
         transform="translate(-56.2338,-4.650017)" /><polyline
         class="t"
         points="131.3111 32.65 131.3107 24.65 127.0172 30.0236 132.3172 30.0236"
         id="polyline1"
         style="display:inline;fill:none;stroke:#ffffff;stroke-linecap:round;stroke-linejoin:round"
         transform="matrix(1.0000093,0,0,0.99999945,-92.71843,-4.6500306)" /><path
         class="t"
         d="m 25,28 v -8 h 1.8 c 1.933,0 3.5,1.567 3.5,3.5 v 1 c 0,1.933 -1.567,3.5 -3.5,3.5 z"
         id="path413-4"
         style="display:inline;fill:none;stroke:#ffffff;stroke-linecap:round;stroke-linejoin:round" /><polyline
         class="t"
         points="131.3111 32.65 131.3107 24.65 127.0172 30.0236 132.3172 30.0236"
         id="polyline389-8"
         style="display:inline;fill:none;stroke:#ffffff;stroke-linecap:round;stroke-linejoin:round"
         transform="matrix(1.0000093,0,0,0.99999945,-109.31843,-4.6500306)" /></g></g></svg>
