<svg xmlns="http://www.w3.org/2000/svg" xml:space="preserve" id="svg1" version="1.1" viewBox="0 0 48 48"><defs id="defs1"><style id="style1">.a{fill:none;stroke:#fff;stroke-linecap:round;stroke-linejoin:round}</style></defs><path id="path1157" d="M44.970135 21.687517a6.9999563 7.0000529 0 0 1-6.999959 7.000053 6.9999563 7.0000529 0 0 1-6.999955-7.000053 6.9999563 7.0000529 0 0 1 6.999955-7.000052 6.9999563 7.0000529 0 0 1 6.999959 7.000052z" style="fill:none;stroke:#fff;stroke-width:1;stroke-linecap:round;stroke-linejoin:round;stroke-opacity:1;stop-color:#000"/><path id="path1155" d="M30.840448 20.222248a7.3515829 7.3516845 0 0 1-.414689.01166 7.3515829 7.3516845 0 0 1-7.351581-7.351685 7.3515829 7.3516845 0 0 1 7.351581-7.3516839 7.3515829 7.3516845 0 0 1 7.351584 7.3516839v0a7.3515829 7.3516845 0 0 1-.160847 1.529384" style="fill:none;stroke:#fff;stroke-width:1;stroke-linecap:round;stroke-linejoin:round;stroke-opacity:1;stop-color:#000"/><path id="path1153" d="M17.010731 21.555503a6.9999563 7.0000529 0 0 1-6.980909 6.484016 6.9999563 7.0000529 0 0 1-6.999957-7.000053 6.9999563 7.0000529 0 0 1 6.5811337-6.987513" style="fill:none;stroke:#fff;stroke-width:1;stroke-linecap:round;stroke-linejoin:round;stroke-opacity:1;stop-color:#000"/><path id="path19066" d="M24.847219 7.7089914C23.244516 5.6820141 20.802451 4.4998115 18.218428 4.5v0c-4.667133.0008405-8.4497432 3.7853533-8.4482993 8.45255.0008426 4.665582 3.7827813 8.447572 8.4482993 8.448413.919304-.0067 1.831396-.162902 2.70031-.463152.673572 2.083644.992264 4.37836.75675 6.302195-1.549298-.898248-3.281337-1.493789-4.792744-1.488708 6.183663 4.163964-.110161 7.741031 2.878128 17.748701h10.474567c-5.464687-5.255722-8.408283-14.372636 1.306733-16.09458-1.263699-1.314168-2.737139-1.348326-4.122834-1.153748.890539-1.422796 1.218407-3.388342 1.029677-4.883789-1.058153 1.132981-2.312748 2.189573-3.961562 2.592834-.632724-1.325683-1.381534-2.545441-2.20822-3.610117 1.019429-.556015 1.913319-1.316183 2.625879-2.233061" style="fill:none;stroke:#fff;stroke-width:1;stroke-linecap:round;stroke-linejoin:round;stroke-opacity:1;stop-color:#000"/></svg>