<?xml version="1.0" encoding="UTF-8" standalone="no"?>
<!-- Created with Inkscape (http://www.inkscape.org/) -->

<svg
   width="48"
   height="48"
   viewBox="0 0 48 48"
   version="1.1"
   id="svg1"
   xml:space="preserve"
   inkscape:version="1.3.2 (091e20e, 2023-11-25, custom)"
   sodipodi:docname="chargeatfriends.svg"
   xmlns:inkscape="http://www.inkscape.org/namespaces/inkscape"
   xmlns:sodipodi="http://sodipodi.sourceforge.net/DTD/sodipodi-0.dtd"
   xmlns="http://www.w3.org/2000/svg"
   xmlns:svg="http://www.w3.org/2000/svg"><sodipodi:namedview
     id="namedview1"
     pagecolor="#505050"
     bordercolor="#ffffff"
     borderopacity="1"
     inkscape:showpageshadow="0"
     inkscape:pageopacity="0"
     inkscape:pagecheckerboard="1"
     inkscape:deskcolor="#505050"
     inkscape:document-units="px"
     inkscape:zoom="8"
     inkscape:cx="-2.3125"
     inkscape:cy="14.1875"
     inkscape:window-width="2400"
     inkscape:window-height="1261"
     inkscape:window-x="2391"
     inkscape:window-y="-9"
     inkscape:window-maximized="1"
     inkscape:current-layer="layer1" /><defs
     id="defs1" /><g
     inkscape:label="Layer 1"
     inkscape:groupmode="layer"
     id="layer1"><path
       id="path1-9"
       style="fill:none;stroke:#ffffff;stroke-linecap:round;stroke-linejoin:round;stroke-opacity:1"
       d="m 13.176174,9.8263001 5.084444,4.8764029 v 9.637065 l -5.0652,-0.05787 M 13.177108,9.8341126 8.0926641,14.702703 v 9.637065 l 5.1081689,-0.05787" /><path
       id="path1-6"
       style="fill:none;stroke:#ffffff;stroke-linecap:round;stroke-linejoin:round;stroke-opacity:1"
       d="m 36.5,15.40625 h 3.125 c 0,0 2.90625,0.65625 2.9375,3.59375 h 1.5 c 0,0 0.921875,0.640625 0,1.5625 h -0.65625 v 1.15625 c 0,0 1.09375,1.25 -0.5625,2.40625 v 1.40625 c 0,0 -0.9375,1.28125 -1.90625,0 V 24.25 H 36.40625 M 37,15.40625 h -3.125 c 0,0 -2.90625,0.65625 -2.9375,3.59375 h -1.5 c 0,0 -0.921875,0.640625 0,1.5625 h 0.65625 v 1.15625 c 0,0 -1.09375,1.25 0.5625,2.40625 v 1.40625 c 0,0 0.9375,1.28125 1.90625,0 V 24.25 h 4.53125" /><path
       id="path1-5"
       style="fill:none;stroke:#ffffff;stroke-linecap:round;stroke-linejoin:round;stroke-opacity:1"
       d="m 36.466818,26.693281 c 0,0 0.792344,12.772116 -11.623068,12.772116 M 13.258252,26.693281 c 0,0 -0.792344,12.772116 11.623068,12.772116" /><path
       style="fill:none;stroke:#ffffff;stroke-linecap:round;stroke-linejoin:round;stroke-opacity:1"
       d="m 41.18897,19.180271 c 0,-1.96664 -1.524699,-2.563262 -1.524699,-2.563262 h -5.701048 c 0,0 -1.590991,0.508233 -1.568894,2.607457 z"
       id="path1" /><path
       style="fill:none;stroke:#ffffff;stroke-linecap:round;stroke-linejoin:round;stroke-opacity:1"
       d="M 16.515625,15.1875 H 13.75 v 3.546875 h 2.765625 l 0.0039,-3.542969"
       id="path2" /></g></svg>
