<?xml version="1.0" encoding="UTF-8"?><svg id="a" xmlns="http://www.w3.org/2000/svg" viewBox="0 0 48 48"><defs><style>.b{fill:none;stroke:#fff;stroke-linecap:round;stroke-linejoin:round;}</style></defs><path class="b" d="M8.9194,32.017s1.5,3.5,1.3,5.1-1.2,2.7-2.3,2.4-2-1.3-.9-3.4,1.9-4.2,1.9-4.2M8.0194,29.017s-3-13.6,8.1-15.5c12.1-2.1,6.8,12.3,6.8,12.3l-2.2,4.9h0s3-6.1,3.9-7.5c.3-.5.3-2.6,6-2.6,10.9,0,11.9-6.3,11.9-6.3-3.3.5-5.8-.5-8.2-.3-3.2.3-7.8,3.6-9.7,8.3,0,0,3.2-11.4-5.8-13.6-4.5-1.1-8.1,1.1-11,4.9s-3.4,9.7.2,15.4h0Z"/></svg>