<?xml version="1.0" encoding="UTF-8"?><svg id="a" xmlns="http://www.w3.org/2000/svg" viewBox="0 0 48 48"><defs><style>.d{fill:none;stroke:#fff;stroke-linecap:round;stroke-linejoin:round;}</style></defs><path class="d" d="m24 2.5a21.5 21.5 0 0 0-5.9141 0.8457 6 6 0 0 1-5.9746 5.8027 6 6 0 0 1-2.8809-0.75391 21.5 21.5 0 0 0-6.0684 10.379 6 6 0 0 1 2.8379 5.0996 6 6 0 0 1-2.9102 5.127 21.5 21.5 0 0 0 5.9766 10.451 6 6 0 0 1 2.8203-0.73047 6 6 0 0 1 5.9941 5.873 21.5 21.5 0 0 0 6.1191 0.90625 21.5 21.5 0 0 0 5.9141-0.8457 6 6 0 0 1 5.9746-5.8027 6 6 0 0 1 2.8867 0.74805 21.5 21.5 0 0 0 6.0664-10.396 6 6 0 0 1-2.8398-5.0723 6 6 0 0 1 2.9004-5.1211 21.5 21.5 0 0 0-5.959-10.465 6 6 0 0 1-2.8301 0.73438 6 6 0 0 1-5.9844-5.8867 21.5 21.5 0 0 0-6.1289-0.89258z"/><circle class="d" cx="24" cy="24" r="3.5"/><circle class="d" cx="24" cy="12.196" r="4"/><circle class="d" cx="34.222" cy="18.098" r="4"/><circle class="d" cx="34.222" cy="29.902" r="4"/><circle class="d" cx="24" cy="35.804" r="4"/><circle class="d" cx="13.778" cy="29.902" r="4"/><circle class="d" cx="13.778" cy="18.098" r="4"/></svg>
