<?xml version="1.0" encoding="UTF-8"?>
<!-- Created with Inkscape (http://www.inkscape.org/) -->
<svg version="1.1" viewBox="0 0 48 48" xml:space="preserve" xmlns="http://www.w3.org/2000/svg"><defs><style>
      .cls-1 {
        fill: none;
        stroke: #fff;
        stroke-linecap: round;
        stroke-linejoin: round;
      }
    </style></defs><g><rect class="cls-1" x="5.5" y="5.5" width="37" height="37" rx="4" ry="4"/><g transform="translate(-176.72 87.998)">
		<g id="b">
	<g stroke-width="1.3039"><g transform="matrix(.76695 0 0 .76695 147.4 -44.736)"><g transform="translate(-166.02 -83.006)">
		<line class="st5" x1="243.35" x2="248.65" y1="40.65" y2="40.65"/>
		<line class="st5" x1="246" x2="246" y1="48.65" y2="40.65"/>
	</g><g transform="translate(-66.941 -83.006)">
		<line class="st5" x1="123.35" x2="123.35" y1="40.65" y2="48.65"/>
		<line class="st5" x1="128.65" x2="128.65" y1="40.65" y2="48.65"/>
		<line class="st5" x1="123.35" x2="128.65" y1="44.635" y2="44.635"/>
	</g><g transform="translate(-148.57 -83.006)">
		<path class="st5" d="m233.51 47.774c0.49057 0.63866 1.1057 0.87654 1.9615 0.87654h1.1844c1.1022 0 1.9957-0.8935 1.9957-1.9957v-0.0086c0-1.1022-0.89349-1.9957-1.9957-1.9957h-1.3065c-1.1034 0-1.9978-0.89447-1.9978-1.9978v-4e-6c0-1.1058 0.89639-2.0022 2.0022-2.0022h1.1779c0.85579 0 1.4709 0.23788 1.9615 0.87654" stroke-width="1.3039"/>
	</g><path class="st5" d="m54.264-37.039v0.03277c0 1.4636-1.1864 2.65-2.65 2.65-1.4636 0-2.65-1.1864-2.65-2.65v-2.7c0-1.4636 1.1864-2.65 2.65-2.65h8e-6c1.4636 0 2.65 1.1864 2.65 2.65v0.03277"/><g transform="translate(-30.151 -83.006)">
		<line class="st5" x1="94" x2="96.608" y1="44.65" y2="44.65"/>
		<polyline class="st5" points="98 48.65 94 48.65 94 40.65 98 40.65"/>
	</g><g transform="translate(16.591 -83.006)">
		
			<line class="st5" x1="57.73" x2="54.264" y1="45.974" y2="45.974" stroke-width="1.3039"/>
		
		<polyline class="st5" points="53.4 48.626 56 40.65 58.6 48.65"/>
	</g></g><g transform="matrix(.76695 0 0 .76695 153.03 -50.406)"><g transform="translate(-156.23 -62.372)">
		<g stroke-width="1.3039">
			<path class="st5" d="m223.35 48.65v-8h2.619c1.4806 0 2.681 1.2029 2.681 2.6867 0 1.4838-1.2003 2.6867-2.681 2.6867h-2.619"/>
		
		
			
				<line class="st5" x1="225.97" x2="228.59" y1="46.024" y2="48.648" stroke-width="1.3039"/>
			
		</g>
	</g><g transform="translate(-52.055 -62.372)">
		<path class="st5" d="m104 48.65"/>
		<line class="st5" x1="104" x2="106.6" y1="44.65" y2="44.65"/>
		<polyline class="st5" points="104 48.65 104 40.65 108 40.65"/>
	</g><path class="st5" d="m61.534-13.722c-1.4636 0-2.65-1.1864-2.65-2.65v-2.7c0-1.4636 1.1864-2.65 2.65-2.65s2.65 1.1864 2.65 2.65v2.7c0 1.4636-1.1864 2.65-2.65 2.65z"/></g><g transform="matrix(.76695 0 0 .76695 153.03 -50.733)"><g transform="translate(-183.77 -48.704)" fill="none" stroke="#fff" stroke-linecap="round" stroke-linejoin="round" stroke-miterlimit="10">
		<line class="st5" x1="243.35" x2="248.65" y1="40.65" y2="40.65"/>
		<line class="st5" x1="246" x2="246" y1="48.65" y2="40.65"/>
	</g><g transform="translate(13.822 -48.704)">
		
			<line class="st5" x1="57.73" x2="54.264" y1="45.974" y2="45.974" fill="none" stroke="#fff" stroke-linecap="round" stroke-linejoin="round" stroke-miterlimit="10" stroke-width="1.3039"/>
		
		<polyline class="st5" points="53.4 48.626 56 40.65 58.6 48.65" fill="none" stroke="#fff" stroke-linecap="round" stroke-linejoin="round" stroke-miterlimit="10"/>
	</g><path class="st5" d="m57.245-5.4044c0-1.4636-1.1864-2.65-2.65-2.65-1.4636 0-2.65 1.1864-2.65 2.65v2.7c0 1.4636 1.1864 2.65 2.65 2.65s2.65-1.1864 2.65-2.65h-2.65"/></g></g>
	
</g></g></g><style type="text/css">
	.st0{display:none;}
	.st1{display:inline;}
	.st5{fill:none;stroke:#FFFFFF;stroke-linecap:round;stroke-linejoin:round;stroke-miterlimit:10;}
	.st6{fill:#FFFFFF;}
</style></svg>
