<svg xmlns="http://www.w3.org/2000/svg" xml:space="preserve" style="clip-rule:evenodd;stroke-linecap:round;stroke-linejoin:round;stroke-miterlimit:1.5" viewBox="0 0 48 48"><path d="M588 0h48v48h-48z" style="fill:none" transform="translate(-588)"/><path d="M9.429 21.071c-3.699 5.885 4.428 9.796 6.01 2.094 1.128-5.494-1.407-10.204-4.449-10.678C1.435 10.997.416 41.14 22.531 41.981c14.623.556 23.269-19.926 18.404-21.773-3.811-1.446-4.67 5.773-9.623 4.219-2.459-.772-4.525-3.308-2.952-6.861 2.191-4.952 10.23-.356 10.964-3.854.983-4.679-11.243-7.901-16.555-2.983" style="fill:none;stroke:#fff;stroke-width:1.05px" transform="translate(1.774 .153)scale(.94892)"/><path d="M12.496 13.1c.874-1.602 2.015-2.595 3.495-2.171 3.216.922 5.739 6.117 4.438 11.541-1.243 5.187-4.641 5.471-5.952 3.216" style="fill:none;stroke:#fff;stroke-width:1.05px" transform="translate(1.774 .153)scale(.94892)"/><path d="M16.747 11.23c.922-1.127 2.063-1.743 3.471-1.392 3.704.921 5.985 5.905 4.857 11.4-.871 4.241-3.769 4.93-5.579 3.71" style="fill:none;stroke:#fff;stroke-width:1.05px" transform="translate(1.774 .153)scale(.94892)"/><ellipse cx="18.239" cy="31.785" rx=".967" ry="1.026" style="fill:#fff" transform="matrix(.77577 0 0 .73134 4.264 6.727)"/><ellipse cx="18.239" cy="31.785" rx=".967" ry="1.026" style="fill:#fff" transform="matrix(.77577 0 0 .73134 13.718 6.727)"/><path d="M25.74 35.967c-.557.888-1.62 1.44-2.776 1.44s-2.219-.552-2.776-1.44" style="fill:none;stroke:#fff;stroke-width:1.01px" transform="matrix(.97493 0 0 .99592 .804 -1.344)"/></svg>