<svg xmlns="http://www.w3.org/2000/svg" xml:space="preserve" id="svg1" version="1.1" viewBox="0 0 48 48"><defs id="defs1"><style id="style1">.a{fill:none;stroke:#fff;stroke-linecap:round;stroke-linejoin:round}</style></defs><path id="path30" d="M12.408 26.66h3.746m15.692 0h3.746m-23.877-7.78h4.1m16.37 0h4.1M11.07 11.096h4.125m17.61 0h4.125m-1.337 13.72v3.69m-23.186-3.69v3.69m23.88-11.472v3.69m-24.574-3.69v3.69M36.932 9.251v3.689M11.068 9.25v3.69m7.501 24.506h10.864M18.707 32.18h10.588m-2.463-22.055v15.858m-5.664-15.858v15.858M31.791 5.752c.723.216 1.256.8 1.37 1.263-.602 7.252-1.216 12.292-1.359 21.642l-2.517 3.073.27 10.38c.016.655-.742 1.39-1.403 1.39h-8.304c-.66 0-1.42-.735-1.402-1.39l.269-10.38-2.517-3.073c-.143-9.35-.757-14.39-1.36-21.642.115-.463.648-1.047 1.37-1.263 0 0 2.562-1.252 7.792-1.252s7.791 1.252 7.791 1.252z" style="fill:none;stroke:#fff;stroke-width:1;stroke-linecap:round;stroke-linejoin:round;stroke-dasharray:none;stroke-opacity:1"/></svg>