<?xml version="1.0" encoding="UTF-8"?>
<svg width="48" height="48" version="1.1" viewBox="0 0 48 48" xml:space="preserve" xmlns="http://www.w3.org/2000/svg"><defs><style>.q{fill:#fff;}.r,.s{fill:none;stroke:#fff;stroke-linecap:round;stroke-linejoin:round;}.s{stroke-width:1.0050968px;}</style></defs><path d="m16.675 26.308c-0.16875-0.43976 0.23014-0.72512 2.6825-1.919 2.3286-1.1336 2.407-1.3414 1.2922-3.428-1.8896-3.5369-5.6846-5.8561-12.332-7.5366-3.5952-0.90887-2.9755-1.2869 1.8823-1.1482 8.5086 0.243 10.016 0.90558 13.259 5.829 2.0764 3.1526 2.4274 3.3087 3.9045 1.737 2.3818-2.5344 4.8027-4.0084 7.8213-4.7619 2.1019-0.52473 5.5319-0.86633 5.0157-0.49952-0.165 0.11724-0.57 0.21575-0.9 0.2189-3.4784 0.03327-11.793 5.767-9.2089 6.3507 0.65513 0.14797 1.3167 0.37327 1.4702 0.50067 0.1535 0.12739 0.69154 0.37055 1.1957 0.54035 1.291 0.43483 1.3335 0.80872 0.091971 0.80872-0.89141 0-1.1526 0.12105-2.7667 1.2822-2.6894 1.9347-3.4804 2.1417-7.9441 2.0787-2.001-0.02821-4.0205 0.02192-4.4878 0.1114-0.70007 0.13407-0.87165 0.10514-0.97508-0.16442zm24.725-15.116c0-1.1571-1.1315-2.5015-2.31-2.7447-1.2599-0.25995-1.3444-1.561-0.090458-1.3928 2.2335 0.29958 5.0601 4.5454 3.026 4.5454-0.4963 0-0.62556-0.084299-0.62556-0.40797zm3.1358-0.60413c-0.3433-2.8987-3.2101-5.5879-5.9569-5.5879-0.29104 0-0.37893-0.14491-0.37893-0.62477 0-1.3019 3.1387-0.40167 5.1252 1.4699 1.9066 1.7963 3.1237 5.7548 1.7694 5.7548-0.37814 0-0.45538-0.13992-0.55868-1.0121z" fill="none" stroke="#fff" stroke-linecap="round" stroke-linejoin="round" stroke-opacity=".75426"/></svg>
