<?xml version="1.0" encoding="UTF-8" standalone="no"?><svg viewBox="0 0 48 48" version="1.1" xml:space="preserve" xmlns="http://www.w3.org/2000/svg"><style>.c{fill:none;stroke:#fff;stroke-linecap:round;stroke-linejoin:round;}</style><path class="c" d="m 34.885058,38.602901 c -2.988931,2.230731 -6.823991,3.627646 -10.840384,3.627646 -6.313323,0 -11.864509,-3.263091 -15.05901,-8.194722"/><path class="c" d="m 18.887574,36.090492 c 3.127141,4.10221 8.775639,3.521099 9.267972,0.73381"/><path class="c" d="m 17.194227,27.654048 c 0.620903,2.125397 2.748622,3.852442 7.020976,4.871697 5.513645,-0.768558 9.539584,-5.559716 9.88668,-9.170254 0.347097,-3.610539 -0.358213,-9.361301 -7.594117,-11.176247 -7.976211,-0.07164 -9.218016,5.588124 -9.313539,15.474804 z"/><path class="c" d="m 20.11419,31.227487 c 0.237169,4.774535 -3.217787,5.764317 -5.90437,7.6151"/><path class="c" d="m 26.149553,32.09589 c 0.141729,4.841845 3.798201,6.20102 8.11413,6.678929"/><path class="c" d="m 20.561429,38.185512 -2.077635,2.650776"/><path class="c" d="m 27.43912,38.328797 2.925055,2.444541"/><path class="c" d="M 13.683739,38.543725 17.050941,28.012261"/><path class="c" d="M 8.9460693,33.911539 C 9.4467901,27.13166 13.669562,25.42341 13.683739,19.988288"/><path class="c" d="M 11.781722,26.170349 C 22.098258,14.277675 17.560908,7.00747 27.295835,8.4538282"/><path class="c" d="M 26.364481,11.821031 28.80033,6.5194776"/><path class="c" d="m 34.903838,38.559891 c 2.455973,-2.368767 -1.709428,-4.672936 -0.65867,-7.753568"/><path class="c" d="M 32.812316,33.672027 C 31.129269,30.005303 37.320934,32.053017 37.564699,23.355979 37.779457,15.69386 32.285945,7.6482678 26.651051,11.964316"/><path class="c" d="M 28.728687,6.0179793 C 20.882261,2.3659951 16.803603,6.9961637 14.113594,11.032962"/><path class="c" d="M 11.24789,26.722694 C 8.9534423,17.840908 14.031901,4.2824194 25.50477,6.5194776"/><path class="c" d="m 28.871972,6.3045498 c 2.770722,-1.465341 8.954506,7.8161982 7.880688,11.3911752"/><path class="c" d="M 22.853994,17.83901 C 22.568019,16.463776 20.255362,16.808734 18.770365,16.621086"/><path class="c" d="m 28.513759,17.910653 c 0.348387,-1.238872 2.311662,-0.99743 4.94334,-0.143285"/><path class="c" d="m 27.72569,22.352495 c 0.645672,-2.56114 2.799959,-3.154436 5.731409,-1.432853"/><path class="c" d="M 22.710708,21.922639 C 21.779056,19.177231 20.107642,18.651113 17.83901,19.916646"/><path class="c" d="m 31.07551,22.01272 a 0.97077554,1.0720935 0 0 1 -0.904025,1.069556 0.97077554,1.0720935 0 0 1 -1.028347,-0.92247 0.97077554,1.0720935 0 0 1 0.762607,-1.196415 0.97077554,1.0720935 0 0 1 1.13322,0.757939"/><path class="c" d="m 20.946926,21.266249 a 0.97077554,1.0720935 0 0 1 -0.904025,1.069556 0.97077554,1.0720935 0 0 1 -1.028346,-0.922471 0.97077554,1.0720935 0 0 1 0.762606,-1.196414 0.97077554,1.0720935 0 0 1 1.13322,0.757939"/><path class="c" d="m 22.463446,22.107514 c -1.669326,1.010532 -3.479039,1.325811 -4.767721,-0.32816"/><path class="c" d="m 27.725691,22.49578 c 0.836639,2.027084 4.656074,2.277215 4.850902,-1.615447"/><path class="c" d="m 22.49578,27.510763 c 1.710856,0.552899 3.405897,1.200683 5.301553,0.644783"/><path class="c" d="m 24.859986,25.648055 1.289567,0.07164"/><path class="c" d="M 23.642062,28.728687 25.934625,29.0869"/></svg>
