<?xml version="1.0" encoding="UTF-8"?><svg id="a" xmlns="http://www.w3.org/2000/svg" viewBox="0 0 48 48"><defs><style>.d{fill:none;stroke:#fff;stroke-linecap:round;stroke-linejoin:round;}.c{fill:#fff;stroke-width:0px;}</style></defs><circle class="c" cx="25.375" cy="5.6698" r=".75"/><line class="d" x1="25.481" x2="25.481" y1="10.947" y2="22.363"/><path class="d" d="m19.713 16.585v0.07065c0 3.1525-2.5101 5.708-5.6067 5.708-3.0966 3e-6 -5.6067-2.5555-5.6067-5.708v-5.8157c0-3.1525 2.5101-5.708 5.6067-5.708 3.0966 0 5.6067 2.5555 5.6067 5.708v0.07065"/><path class="d" d="m38.945 20.19c-0.72887 1.2986-2.1024 2.174-3.6767 2.174-2.337 0-4.2314-1.9287-4.2314-4.3079v-2.8001c0-2.3793 1.8944-4.3079 4.2314-4.3079s4.2314 1.9287 4.2314 4.3079v1.4001h-8.4629"/><path class="d" d="m8.995 34.989c-0.057172 0.01182-2.0982 3.3053 4.0715 1.9788 8.0879-1.739 4.4555-5.1749 1.7514-5.5961-0.73779-0.11492-6.3178-1.4237-3.3914-3.8634 2.9265-2.4396 14.054-5.1453 28.074-0.60813l-2.0374-0.2301"/><path class="d" d="m23.313 34.396c-3.2895 4.1709-4.3661 1.8952-4.1229 1.0048 0.24311-0.89041 2.2482-4.9914 3.0771-5.897-0.77153 0.05164-1.5529 1.1396-1.5529 1.1396"/><path class="d" d="m23.142 27.64c0.32298-0.54683 0.62091-0.91442 0.8883-1.0636"/><path class="d" d="m29.127 29.508c-6.5927 0.73245-10.376 15.238 1.6325 0.04901l-7.0374 12.775c-0.7406 1.6601-5.0583-0.44615 7.7255-7.8065"/><path class="d" d="m34.553 29.295-4.1627 7.2055c7.0837-9.3159 9.9621-8.3212 5.9364-3.616-2.7638 3.7183-1.0088 4.5305 3.1735 3.2186"/></svg>
