<?xml version="1.0" encoding="UTF-8" standalone="no"?>
<svg
   viewBox="0 0 48 48"
   version="1.1"
   id="svg1"
   sodipodi:docname="cineplex.svg"
   inkscape:version="1.3.2 (091e20ef0f, 2023-11-25)"
   xml:space="preserve"
   xmlns:inkscape="http://www.inkscape.org/namespaces/inkscape"
   xmlns:sodipodi="http://sodipodi.sourceforge.net/DTD/sodipodi-0.dtd"
   xmlns="http://www.w3.org/2000/svg"
   xmlns:svg="http://www.w3.org/2000/svg"><sodipodi:namedview
     id="namedview1"
     pagecolor="#505050"
     bordercolor="#eeeeee"
     borderopacity="1"
     inkscape:showpageshadow="0"
     inkscape:pageopacity="0"
     inkscape:pagecheckerboard="0"
     inkscape:deskcolor="#505050"
     inkscape:zoom="8.90625"
     inkscape:cx="9.7122807"
     inkscape:cy="27.677193"
     inkscape:window-width="1918"
     inkscape:window-height="1053"
     inkscape:window-x="0"
     inkscape:window-y="0"
     inkscape:window-maximized="1"
     inkscape:current-layer="svg1" /><defs
     id="defs1"><style
       id="style1">.a { fill:none;stroke:#fff;stroke-linecap:round;stroke-linejoin:round; }
</style></defs><path
     id="path6"
     style="fill:none;fill-opacity:0;stroke-opacity:1;stroke:#ffffff;stroke-linecap:round;stroke-linejoin:round;"
     d="m 26.105254,22.19234 a 10.888496,2.62713 0 0 1 8.783241,2.577557 10.888496,2.62713 0 0 1 -9.144611,2.593219 m -3.48805,-1.2e-5 a 10.888496,2.62713 0 0 1 -9.14433,-2.593207 10.888496,2.62713 0 0 1 8.78324,-2.577557 m 4.783478,-3.346739 A 19.5,5.192166 0 0 1 43.5,23.988564 v 0 A 19.5,5.192166 0 0 1 25.96016,29.15443 m -3.920319,0 A 19.5,5.192166 0 0 1 4.4999996,23.988564 19.5,5.192166 0 0 1 21.322646,18.84557" /></svg>
