<?xml version="1.0" encoding="UTF-8"?><svg id="a" xmlns="http://www.w3.org/2000/svg" viewBox="0 0 48 48"><defs><style>.d{fill:none;stroke:#fff;stroke-linecap:round;stroke-linejoin:round;}.c{fill:#fff;stroke-width:0px;}</style></defs><path class="d" d="m45.5 24a21.5 21.5 0 0 1-13.272 19.863 21.5 21.5 0 0 1-23.43-4.6606 21.5 21.5 0 0 1-4.6606-23.43 21.5 21.5 0 0 1 19.863-13.272"/><path class="d" d="m34.75 24a10.75 10.75 0 0 1-6.6362 9.9317 10.75 10.75 0 0 1-11.715-2.3303 10.75 10.75 0 0 1-2.3303-11.715 10.75 10.75 0 0 1 9.9317-6.6362"/><circle class="c" cx="24" cy="24" r=".75"/></svg>
