<svg xmlns="http://www.w3.org/2000/svg" xml:space="preserve" id="svg1" version="1.1" viewBox="0 0 48 48"><defs id="defs1"><style id="style1">.a{fill:none;stroke:#fff;stroke-linecap:round;stroke-linejoin:round}</style></defs><path id="ellipse3" d="M23.482 6.324c-1.372-.028-2.509 1.19-2.54 2.719-.03 1.53 1.056 2.792 2.428 2.82 1.372.029 2.51-1.188 2.542-2.719.03-1.53-1.057-2.793-2.43-2.82zm7.368 3.58a2.266 2.266 0 0 0-.67.084c-1.41.375-2.597 1.293-4.006 2.667-1.305 1.272-2.715 2.078-3.4 1.52-2.104-1.712-4.775-4.378-6.068-3.869-.919.363-.78 1.297-.024 2.268 1.038 1.301 3.95 3.5 3.782 4.771-.264 2.013-1.334 3.026-2.386 4.336-.477.595-.587 1.204-.467 1.688-.923.762-1.864 1.597-2.723 2.295-.784.637-2.398-.284-3.889-1.736-1.612-1.569-2.968-2.617-4.58-3.045-2.29-.608-2.608 1.744-.522 3.257 1.49 1.08 3.153 1.25 4.256 2.967.808 1.256.377 2.92-.428 4.097-1.265 1.85-2.835 3.035-3.385 5.459-.296 1.302.82 1.827 2.323 1.368 1.73-.529 2.474-2.723 5.059-5.599.26-.288.7-.316.998.036l3.441 4.072c.472.535.978.738 1.422.709-.254.313-.52.624-.786.954-1.413 1.76.395 3.65 1.831 2.019l3.01-3.566c.26-.308.646-.283.873-.03 2.26 2.518 2.912 4.44 4.425 4.903 1.315.403 2.291-.059 2.032-1.2-.414-1.827-1.49-2.852-2.487-4.136.428.007.91-.2 1.359-.709l3.44-4.072c.297-.352.74-.324 1-.036 2.584 2.876 3.329 5.07 5.058 5.599 1.504.46 2.62-.066 2.324-1.368-.55-2.424-2.12-3.612-3.386-5.461-.805-1.177-1.235-2.84-.428-4.095 1.103-1.717 2.765-1.886 4.254-2.967 2.086-1.513 1.77-3.865-.52-3.257-1.611.428-2.97 1.476-4.582 3.045-1.491 1.452-3.103 2.373-3.887 1.736-1.293-1.051-2.887-2.272-4.096-3.361-.68-.612-1.171-1.404-1.73-2.22-.704-1.03-1.08-2.488-.374-3.588.965-1.503 2.42-1.65 3.723-2.597 1.596-1.16 1.584-2.883.214-2.939zm3.074 5.739c-1.569-.032-2.868 1.359-2.904 3.105-.035 1.747 1.208 3.188 2.777 3.22 1.569.031 2.868-1.36 2.904-3.106.035-1.746-1.208-3.188-2.777-3.22zm-19.849 1.056c-1.568.031-2.812 1.473-2.776 3.22.035 1.747 1.336 3.137 2.905 3.105 1.569-.032 2.812-1.473 2.777-3.22-.035-1.747-1.336-3.138-2.906-3.105zm9.295 3.21a.562.562 0 0 1 .424.195c2.26 2.518 2.91 4.44 4.423 4.903.403.124 1.553 1.57 1.745 1.846-1.027.477-1.983 1.264-3.071 2.324-1.305 1.271-2.715 2.08-3.4 1.522-1.535-1.249-3.369-3.001-4.752-3.663 1.024-1.142 2.425-2.342 3.112-3.201.83-1.067 1.007-2.09.085-2.536l.983-1.164a.594.594 0 0 1 .45-.227zm.831 2.936c-1.372-.027-2.51 1.191-2.54 2.721-.03 1.53 1.057 2.79 2.428 2.82 1.372.027 2.508-1.19 2.54-2.72.03-1.53-1.056-2.792-2.428-2.82zm-6.678 6.397c1.125 1.314 3.821 3.4 3.66 4.625a5.707 5.707 0 0 1-.388 1.463 2.61 2.61 0 0 0-.54-1.097c-1.203-1.496-2.427-2.654-2.73-4.952-.001-.013 0-.026-.002-.04zm12.383.941c-.541 1.142-1.356 1.992-2.161 2.994-.197.244-.338.49-.432.731-.126-.671-.057-1.36.32-1.947.614-.958 1.427-1.364 2.273-1.778z" style="fill:none;stroke:#fff;stroke-width:1;stroke-linecap:round;stroke-linejoin:round;stroke-opacity:1"/></svg>