<?xml version="1.0" encoding="UTF-8"?><svg id="a" xmlns="http://www.w3.org/2000/svg" viewBox="0 0 48 48"><defs><style>.d{fill:none;stroke:#fff;stroke-linecap:round;stroke-linejoin:round;}.c{fill:#fff;stroke-width:0px;}</style></defs><rect class="d" x="5.5" y="5.5" width="37" height="37" rx="4" ry="4"/><path class="d" d="m25.027 33.309v-5.4755l2.8464 5.4815 2.8464-5.4732v5.4732"/><line class="d" x1="11.383" x2="11.383" y1="27.833" y2="33.315"/><line class="d" x1="15.155" x2="15.155" y1="27.833" y2="33.315"/><line class="d" x1="11.383" x2="15.155" y1="30.564" y2="30.564"/><line class="d" x1="33.77" x2="35.628" y1="30.574" y2="30.574"/><path class="d" d="m36.617 33.315h-2.8464v-5.4815h2.8464"/><rect class="d" x="18.205" y="27.833" width="3.7715" height="5.4815" rx="1.8857" ry="1.8158"/><path class="d" d="m26.247 22.779c0.39031 0.32856 0.81161 0.47923 1.758 0.47923h0.47955c0.7804 0 1.413-0.63569 1.413-1.4199 0-0.78422-0.63259-1.4199-1.413-1.4199h-0.9591c-0.7804 0-1.413-0.63569-1.413-1.4199 0-0.78422 0.63259-1.4199 1.413-1.4199h0.47955c0.94627 0 1.3677 0.15056 1.758 0.47923"/><path class="d" d="m31.999 22.779c0.39031 0.32856 0.81161 0.47923 1.758 0.47923h0.47955c0.7804 0 1.413-0.63569 1.413-1.4199 0-0.78422-0.63259-1.4199-1.413-1.4199h-0.9591c-0.7804 0-1.413-0.63569-1.413-1.4199 0-0.78422 0.63259-1.4199 1.413-1.4199h0.47955c0.94627 0 1.3677 0.15056 1.758 0.47923"/><path class="d" d="m16.515 14.685v7.5014c0 0.59186 0.47848 1.0716 1.0687 1.0716h0.32062"/><path class="d" d="m24.146 21.115c0 1.1837-0.95696 2.1433-2.1375 2.1433-1.1805 0-2.1375-0.95954-2.1375-2.1433v-1.3931c0-1.1837 0.95696-2.1433 2.1375-2.1433 1.1805 0 2.1375 0.95954 2.1375 2.1433"/><line class="d" x1="24.146" x2="24.146" y1="23.258" y2="17.579"/><path class="d" d="m14.548 20.383v0.03515c0 1.5684-1.268 2.8398-2.8322 2.8398-1.5642 0-2.8322-1.2714-2.8322-2.8398v-2.8934c0-1.5684 1.268-2.8398 2.8322-2.8398 1.5642 0 2.8322 1.2714 2.8322 2.8398v0.03515"/><circle class="c" cx="38.366" cy="14.953" r=".75"/><path class="d" d="m39.116 23.258c-0.4641-0.26795-0.75-0.76314-0.75-1.299 0 0.5359-0.2859 1.0311-0.75 1.299"/><path class="d" d="m38.366 21.959v-4.3806"/></svg>
