<?xml version="1.0" encoding="UTF-8"?>
<svg data-name="Layer 1" version="1.1" viewBox="0 0 48 48" xml:space="preserve" xmlns="http://www.w3.org/2000/svg"><defs><style>
      .cls-1 {
        fill: none;
        stroke: #fff;
        stroke-linecap: round;
        stroke-linejoin: round;
      }
    </style></defs><circle cx="35.603" cy="35.837" r="2" fill="none" stroke="#fff" stroke-linecap="round" stroke-linejoin="round"/><path d="m25.603 35.837c0 1.1046-0.89543 2-2 2h-7c-4.4183 0-8-3.5817-8-8s3.5817-8 8-8h5v-5c0-4.4183 3.5817-8 8-8s8 3.5817 8 8v7c0 1.1046-0.89543 2-2 2s-2-0.89543-2-2v-7c0-2.2091-1.7909-4-4-4s-4 1.7909-4 4v7c0 1.1046-0.89543 2-2 2h-7c-2.2091 0-4 1.7909-4 4s1.7909 4 4 4h7c1.1046 0 2 0.89543 2 2z" fill="none" stroke="#fff" stroke-linecap="round" stroke-linejoin="round"/></svg>
