<svg xmlns="http://www.w3.org/2000/svg" xml:space="preserve" id="svg1" version="1.1" viewBox="0 0 48 48"><defs id="defs1"><style id="style1">.a{fill:none;stroke:#fff;stroke-linecap:round;stroke-linejoin:round}</style></defs><path id="path5" d="M5.501 23.918c4.857-.266 9.23 5.056 12.955 6.817 5.815 2.75 9.113-2.626 13.077-5.753 4.397-3.47 7.63-3.682 10.967.844m-36.995.766c6.512 3.968 11.18 3.719 14.82-3.445 2.765-5.445 4.662-10.57 6.807-9.454 3.605 1.876 5.964 14.882 11.147 17.125 1.52.657 2.852-2.428 4.22-4.713m0-5.686c-2.232 2.89-3.74 9.233-7.152 9.221-4.264-.014-9.39-6.503-15.044-10.013-5.757-3.573-10.707-1.45-14.804 3.383M9.5 5.5h29c2.216 0 4 1.784 4 4v29c0 2.216-1.784 4-4 4h-29c-2.216 0-4-1.784-4-4v-29c0-2.216 1.784-4 4-4z" style="fill:none;stroke:#fff;stroke-linecap:round;stroke-linejoin:round;stroke-opacity:1"/></svg>