<svg xmlns="http://www.w3.org/2000/svg" xml:space="preserve" id="svg1" version="1.1" viewBox="0 0 48 48"><defs id="defs1"><style id="style1">.a{fill:none;stroke:#fff;stroke-linecap:round;stroke-linejoin:round}</style></defs><path id="path1294" d="M7.619 18.912V37.35a3.67 3.67 0 0 0 3.677 3.68h3.616v-8.11c0-1.019.65-1.84 1.458-1.84.808 0 1.458.821 1.458 1.84v8.11h4.714v-8.11c0-1.019.65-1.84 1.458-1.84.808 0 1.458.821 1.458 1.84v8.11h4.714v-8.11c0-1.019.65-1.84 1.458-1.84.809 0 1.458.821 1.458 1.84v8.11h3.616a3.67 3.67 0 0 0 3.677-3.68V18.912" style="fill:none;stroke:#fff;stroke-width:1;stroke-linecap:round;stroke-linejoin:round;stroke-opacity:1"/><path id="path1292" d="M7.952 10.566h32.096a2.447 2.447 0 0 1 2.452 2.453v3.328a2.447 2.447 0 0 1-2.452 2.453H7.952A2.447 2.447 0 0 1 5.5 16.347v-3.328a2.447 2.447 0 0 1 2.452-2.453z" style="fill:none;stroke:#fff;stroke-width:1;stroke-linecap:round;stroke-linejoin:round;stroke-opacity:1"/><path id="path1272" d="M20.772 10.429a3.232 3.304 0 0 1-.004-.154A3.232 3.304 0 0 1 24 6.971a3.232 3.304 0 0 1 3.232 3.304v0a3.232 3.304 0 0 1-.004.154" style="fill:none;stroke:#fff;stroke-width:1;stroke-linecap:round;stroke-linejoin:round;stroke-opacity:1"/></svg>