<svg version="1.1" viewBox="0 0 48 48" xml:space="preserve" xmlns="http://www.w3.org/2000/svg"><g fill="none" stroke="#fff" stroke-linecap="round"><g stroke-width="1px"><path d="m9.453 20.73c2.057 0.1425 7.252-2.03 9.624-2.048"/><path d="m9.523 20.74c1.748 1.094 4.602 5.904 6.51 7.313"/><path d="m24 10.16c0.5 2 4.172 6.27 4.922 8.52"/><path d="m24.02 10.23c-0.5 2-4.193 6.201-4.943 8.451"/><path d="m38.55 20.73c-1.748 1.094-4.674 5.905-6.582 7.314"/><path d="m38.49 20.77c-2.057 0.1425-7.193-2.071-9.565-2.089"/><path d="m32.99 37.84c-1.58-1.324-7.061-2.62-8.99-4"/><path d="m32.93 37.79c-0.7711-1.912-0.2529-7.481-0.9687-9.743"/><path d="m15.01 37.83c0.7711-1.912 0.3102-7.525 1.026-9.786"/><path d="m15.03 37.77c1.58-1.324 7.037-2.552 8.966-3.932"/></g><circle cx="24" cy="25" r="5" stroke-linejoin="round" style="paint-order:stroke fill markers"/><path class="cls-1" d="m9.5 5.5h29c2.216 0 4 1.784 4 4v29c0 2.216-1.784 4-4 4h-29c-2.216 0-4-1.784-4-4v-29c0-2.216 1.784-4 4-4z" stroke-linejoin="round"/></g></svg>
