<svg xmlns="http://www.w3.org/2000/svg" xml:space="preserve" width="48" height="48" viewBox="0 0 12.7 12.7"><path fill="none" stroke="#fff" stroke-linecap="round" stroke-linejoin="round" stroke-width=".265" d="M6.306 9.865c.31 0 .56-.25.56-.56v-.259a3.572 3.572 0 0 0 3.83.225c.158-.088.37.109.248.27-.96 1.257-2.474 1.968-4.057 1.968v0a5.17 5.17 0 0 1-.453-.02.56.56 0 0 0 .432-.544v0a.56.56 0 0 0-1.12 0v0c0 .21.117.401.304.497a5.133 5.133 0 0 1-.844-.212.554.554 0 0 0 .079-.285v0a.56.56 0 0 0-.56-.56H3.669c-.2-.16-.388-.334-.563-.521h.038a.56.56 0 0 0 .56-.559v0a.56.56 0 0 0-1.113-.093 5.135 5.135 0 0 1-.59-1.19.558.558 0 0 0 .129-.356v0a.56.56 0 0 0-.344-.517 5.161 5.161 0 0 1 8.531-4.655c.124.16-.109.305-.247.255v0a3.264 3.264 0 0 0-1.112-.177A3.576 3.576 0 0 0 5.51 7.106h-.786a.56.56 0 1 0 0 1.12c.333-.042.529.033.774.246.261.276.247.464.247.833 0 .31.25.56.56.56zm-2.602-2.2a.56.56 0 0 1-.56.56.56.56 0 0 1-.56-.56.56.56 0 0 1 .56-.56.56.56 0 0 1 .56.56zm1.02 2.2a.56.56 0 0 1-.56-.56.56.56 0 0 1 .56-.56.56.56 0 0 1 .56.56.56.56 0 0 1-.56.56z"/></svg>
