<?xml version="1.0" encoding="UTF-8"?><svg id="a" xmlns="http://www.w3.org/2000/svg" viewBox="0 0 48 48"><defs><style>.d{fill:none;stroke:#fff;stroke-linecap:round;stroke-linejoin:round;}</style></defs><path class="d" d="m29.994 26.483a2.6875 2.6875 0 0 0-2.9288 0.58258 2.6875 2.6875 0 0 0-0.58258 2.9288l3.3349 8.0512 14.046-5.8179-3.408-8.2277"/><path class="d" d="m18.006 21.517a2.6875 2.6875 0 0 0 2.9288-0.58258 2.6875 2.6875 0 0 0 0.58258-2.9288l-3.3349-8.0512-14.046 5.8179 3.408 8.2277"/><path class="d" d="m26.483 18.006a2.6875 2.6875 0 0 0 0.58258 2.9288 2.6875 2.6875 0 0 0 2.9288 0.58258l8.0512-3.3349-5.8179-14.046-8.2277 3.408"/><path class="d" d="m21.517 29.994a2.6875 2.6875 0 0 0-0.58258-2.9288 2.6875 2.6875 0 0 0-2.9288-0.58258l-8.0512 3.3349 5.8179 14.046 8.2277-3.408"/><path class="d" d="m29.994 21.517a2.6875 2.6875 0 0 0-1.659 2.4829 2.6875 2.6875 0 0 0 1.659 2.4829l8.0512 3.3349 5.8179-14.046-8.2277-3.408"/><path class="d" d="m18.006 26.483a2.6875 2.6875 0 0 0 1.659-2.4829 2.6875 2.6875 0 0 0-1.659-2.4829l-8.0512-3.3349-5.8179 14.046 8.2277 3.408"/><path class="d" d="m21.517 18.006a2.6875 2.6875 0 0 0 2.4829 1.659 2.6875 2.6875 0 0 0 2.4829-1.659l3.3349-8.0512-14.046-5.8179-3.408 8.2277"/><path class="d" d="m26.483 29.994a2.6875 2.6875 0 0 0-2.4829-1.659 2.6875 2.6875 0 0 0-2.4829 1.659l-3.3349 8.0512 14.046 5.8179 3.408-8.2277"/></svg>
