<svg xmlns="http://www.w3.org/2000/svg" xml:space="preserve" viewBox="0 0 48 48"><path d="M30.713435 44.424999c-7.760235 1.020267-17.635089-.497294-22.1102908-6.762848 3.5052548-1.903408 5.1109108-4.555164 5.4519338-8.492687.152393-1.759553-.990935-2.8585-1.955193-4.146563-3.9453013-5.270182-2.8023722-14.249509 3.107998-18.8172403 3.542199-2.7375303 9.976244-4.0347559 14.347122-1.6153461 2.545707 1.4091267 4.447 3.4732717 5.60775 5.8419164 1.332366 2.718833 2.126084 6.172374 1.666937 8.37041-.148564.711112-.413911 1.267109-.08023 1.804411l2.635211 4.24328c.662191 1.040906-4.367182.881849-3.577849 2.051118.422191.625413.721115 1.280975.03311 1.623411.455412.532915.167069.856404-.232366 1.12153-.24441.162231-.319317.376331-.366051.586359l-.663326 2.981144c-.239564 1.076673-1.00561 1.156135-1.692219 1.207565-.973942.07294-1.972615-.493476-2.970911-.211691-2.277743.642946-3.534031 2.104665-3.786267 4.262213-.28129 2.406026 1.340554 5.305731 4.584596 5.953013z" style="fill:none;fill-opacity:.990785;stroke:#fff;stroke-width:1;stroke-linecap:round;stroke-linejoin:round;stroke-dashoffset:1.3;stroke-opacity:1"/><path d="M21.286034 23.517723c.06342-.412072.211599-1.390721.757773-1.850471.578106-.486618 1.289369-.491637 1.75629-.245673.850364.44795 1.363594.424126 2.113133.1609 1.217055-.4274 1.46616-2.183771 3.052145-2.590301 1.942411-.497892 4.176096-1.801217 3.518297-5.614661-.62864-3.6443551-4.1816-6.0415732-7.739709-6.33539-4.459391-.3682456-9.768014 1.6012325-11.502855 7.619417-.854744 2.965134.732696 8.781266 3.039923 8.911521.480832.02722 1.164979.01857 1.837183.132352.839009.142052 1.943008.952786 2.029126 2.170703.450384 6.369533-2.046688 13.904802-6.128827 15.925694" style="fill:none;fill-opacity:.990785;stroke:#fff;stroke-width:1;stroke-linecap:round;stroke-linejoin:round;stroke-dashoffset:1.3;stroke-opacity:1"/></svg>