<?xml version="1.0" encoding="UTF-8" standalone="no"?>
<svg
   id="Layer_1"
   data-name="Layer 1"
   version="1.1"
   viewBox="0 0 48 48"
   sodipodi:docname="coffee2u.svg"
   inkscape:version="1.3.2 (091e20ef0f, 2023-11-25)"
   xml:space="preserve"
   xmlns:inkscape="http://www.inkscape.org/namespaces/inkscape"
   xmlns:sodipodi="http://sodipodi.sourceforge.net/DTD/sodipodi-0.dtd"
   xmlns="http://www.w3.org/2000/svg"
   xmlns:svg="http://www.w3.org/2000/svg"><sodipodi:namedview
     id="namedview1"
     pagecolor="#242424"
     bordercolor="#000000"
     borderopacity="0.25"
     inkscape:showpageshadow="2"
     inkscape:pageopacity="0.0"
     inkscape:pagecheckerboard="0"
     inkscape:deskcolor="#535353"
     inkscape:zoom="12.59534"
     inkscape:cx="21.357105"
     inkscape:cy="27.907147"
     inkscape:window-width="1918"
     inkscape:window-height="1053"
     inkscape:window-x="0"
     inkscape:window-y="0"
     inkscape:window-maximized="1"
     inkscape:current-layer="g14" /><defs
     id="defs1"><style
       id="style1">
      .cls-1 {
        fill: none;
        stroke: #fff;
        stroke-linecap: round;
        stroke-linejoin: round;
        stroke-width: 1;
      }
    </style></defs><g
     id="g14"><g
       id="g12"><path
         style="fill:none;stroke:#ffffff;stroke-width:1;stroke-linecap:round;stroke-linejoin:round;stroke-dasharray:none"
         d="m 14.752477,16.129262 v 0 c 0,1.035515 -0.795433,1.863927 -1.789726,1.863927 v 0 c -0.994292,0 -1.789726,-0.828412 -1.789726,-1.794893 v -1.863928 c 0,-1.035515 0.795434,-1.863928 1.789726,-1.794893 v 0 c 0.994293,0 1.72344,0.828412 1.72344,1.794893 v 0"
         id="path11" /><g
         id="g4"><path
           style="fill:none;stroke:#ffffff;stroke-width:1;stroke-linecap:round;stroke-linejoin:round;stroke-dasharray:none"
           d="m 34.185581,15.231815 h 1.789723"
           id="path10" /><path
           style="fill:none;stroke:#ffffff;stroke-width:1;stroke-linecap:round;stroke-linejoin:round;stroke-dasharray:none"
           d="m 36.837027,17.993189 h -2.651446 v -5.522748 h 2.651446"
           id="path9" /></g><g
         id="g3"><path
           style="fill:none;stroke:#ffffff;stroke-width:1;stroke-linecap:round;stroke-linejoin:round;stroke-dasharray:none"
           d="m 21.466623,15.231815 h 1.72344"
           id="path8" /><path
           style="fill:none;stroke:#ffffff;stroke-width:1;stroke-linecap:round;stroke-linejoin:round;stroke-dasharray:none"
           d="M 21.466623,17.993189 V 12.470441 H 24.11807"
           id="path7" /></g><path
         style="fill:none;stroke:#ffffff;stroke-width:1;stroke-linecap:round;stroke-linejoin:round;stroke-dasharray:none"
         d="m 18.080502,17.993189 v 0 c -0.994292,0 -1.72344,-0.828412 -1.72344,-1.794893 v -1.863928 c 0,-1.035515 0.795433,-1.863928 1.72344,-1.863928 v 0 c 0.994293,0 1.789727,0.828413 1.789727,1.863928 v 1.794894 c 0,1.035515 -0.795434,1.863927 -1.789727,1.863927 z"
         id="path6" /><g
         id="g2"><path
           style="fill:none;stroke:#ffffff;stroke-width:1;stroke-linecap:round;stroke-linejoin:round;stroke-dasharray:none"
           d="m 29.945927,15.231815 h 1.789724"
           id="path5" /><path
           style="fill:none;stroke:#ffffff;stroke-width:1;stroke-linecap:round;stroke-linejoin:round;stroke-dasharray:none"
           d="m 32.597374,17.993189 h -2.651446 v -5.522748 h 2.651446"
           id="path4" /></g><g
         id="g1"><path
           style="fill:none;stroke:#ffffff;stroke-width:1;stroke-linecap:round;stroke-linejoin:round;stroke-dasharray:none"
           d="m 25.706276,15.231815 h 1.723438"
           id="path3" /><path
           style="fill:none;stroke:#ffffff;stroke-width:1;stroke-linecap:round;stroke-linejoin:round;stroke-dasharray:none"
           d="m 25.706275,17.993189 v -5.522748 h 2.651447"
           id="path2" /></g></g><g
       id="g13"><path
         style="fill:none;stroke:#ffffff;stroke-width:1;stroke-linecap:round;stroke-linejoin:round;stroke-dasharray:none"
         d="m 25.937978,20.175923 v 10.151332 c 0,2.873018 2.361264,5.171433 5.116072,5.171433 2.754809,0 5.312845,-2.298415 5.312845,-5.171433 V 20.175923"
         id="path1" /><path
         style="fill:none;stroke:#ffffff;stroke-width:1;stroke-linecap:round;stroke-linejoin:round;stroke-dasharray:none"
         d="m 11.635552,25.196954 c 0,-3.064553 2.95158,-5.554503 6.296704,-4.979899 2.164493,0.383069 3.935441,2.298415 4.132213,4.405295 0,1.532276 -0.393544,3.256087 -1.574176,4.21376 -2.164493,1.723811 -8.854741,6.70371 -8.854741,6.70371 h 10.428917"
         id="path2238" /></g></g><rect
     class="cls-1"
     x="5.5"
     y="5.5"
     width="37"
     height="37"
     rx="4"
     ry="4"
     id="rect1"
     style="fill:none;stroke:#ffffff;stroke-linecap:round;stroke-linejoin:round" /></svg>
