<svg xmlns="http://www.w3.org/2000/svg" xml:space="preserve" id="svg1" version="1.1" viewBox="0 0 48 48"><defs id="defs1"><style id="style1">.a{fill:none;stroke:#fff;stroke-linecap:round;stroke-linejoin:round}</style></defs><path id="path43244" d="M24 8.895c-9.448 7.539-7.734 22.976 0 27.744 7.734-4.768 9.448-20.205 0-27.744v0" style="fill:none;stroke:#fff;stroke-width:1;stroke-linecap:round;stroke-linejoin:round;stroke-opacity:1"/><path id="path43344" d="M29.44 35.358c6.031-3.032 10.885-11.038 8.529-18.998h0c-8.44.544-14.312 8.233-14.825 15.098" style="fill:none;stroke:#fff;stroke-width:1;stroke-linecap:round;stroke-linejoin:round;stroke-opacity:1"/><path id="path43340" d="M18.56 35.358C12.53 32.326 7.676 24.32 10.032 16.36c8.44.544 14.312 8.233 14.825 15.098" style="fill:none;stroke:#fff;stroke-width:1;stroke-linecap:round;stroke-linejoin:round;stroke-opacity:1"/><path id="path43238" d="M25.887 37.939c5 2.58 13.418.92 16.613-5.463-3.22-2.594-7.36-3.05-10.953-2.132" style="fill:none;stroke:#fff;stroke-width:1;stroke-linecap:round;stroke-linejoin:round;stroke-opacity:1"/><path id="path43167" d="M22.113 37.939c-5 2.58-13.418.92-16.613-5.463 3.22-2.594 7.36-3.05 10.953-2.132" style="fill:none;stroke:#fff;stroke-width:1;stroke-linecap:round;stroke-linejoin:round;stroke-opacity:1"/></svg>