<?xml version="1.0" encoding="UTF-8" standalone="no"?>
<svg
   id="a"
   viewBox="0 0 48 48"
   version="1.1"
   sodipodi:docname="comaps.svg"
   inkscape:version="1.4.2 (ebf0e940d0, 2025-05-08)"
   xmlns:inkscape="http://www.inkscape.org/namespaces/inkscape"
   xmlns:sodipodi="http://sodipodi.sourceforge.net/DTD/sodipodi-0.dtd"
   xmlns="http://www.w3.org/2000/svg"
   xmlns:svg="http://www.w3.org/2000/svg">
  <sodipodi:namedview
     id="namedview1"
     pagecolor="#ffffff"
     bordercolor="#666666"
     borderopacity="1.0"
     inkscape:showpageshadow="2"
     inkscape:pageopacity="0.0"
     inkscape:pagecheckerboard="0"
     inkscape:deskcolor="#d1d1d1"
     inkscape:zoom="5.6568543"
     inkscape:cx="-31.02431"
     inkscape:cy="45.431611"
     inkscape:window-width="1920"
     inkscape:window-height="1050"
     inkscape:window-x="0"
     inkscape:window-y="0"
     inkscape:window-maximized="1"
     inkscape:current-layer="shape-25ef02d5-d97e-8012-8006-7e9418d32f55" />
  <defs
     id="defs1">
    <style
       id="style1">.l{fill:none;stroke:#fff;stroke-linecap:round;stroke-linejoin:round;}</style>
    <clipPath
       id="frame-clip-25ef02d5-d97e-8012-8006-7e9418d32f54-render-1"
       class="frame-clip frame-clip-def">
      <rect
         rx="500"
         ry="500"
         x="0"
         y="0"
         width="1024"
         height="1024"
         id="rect1" />
    </clipPath>
    <clipPath
       id="inner-stroke-render-8-25ef02d5-d97e-8012-8006-7e9418d32f56-0">
      <use
         href="#stroke-shape-render-8-25ef02d5-d97e-8012-8006-7e9418d32f56-0"
         id="use12" />
    </clipPath>
    <clipPath
       id="clipPath2"
       class="frame-clip frame-clip-def">
      <rect
         rx="500"
         ry="500"
         x="0"
         y="0"
         width="1024"
         height="1024"
         id="rect2" />
    </clipPath>
    <pattern
       patternUnits="objectBoundingBox"
       width="292.51666259765625"
       height="266.20001220703125"
       id="fill-0-render-11-0">
      <g
         id="g8">
        <rect
           width="292.51666259765625"
           height="266.20001220703125"
           style="fill: rgb(87, 129, 87); fill-opacity: 1;"
           id="rect8" />
      </g>
    </pattern>
    <clipPath
       id="clipPath4">
      <use
         href="#stroke-shape-render-8-25ef02d5-d97e-8012-8006-7e9418d32f56-0"
         id="use4" />
    </clipPath>
    <rect
       width="499"
       height="257"
       class="frame-background"
       x="95.5"
       id="stroke-shape-render-8-25ef02d5-d97e-8012-8006-7e9418d32f56-0"
       style="fill:none;stroke:#000000;stroke-width:2;stroke-opacity:0"
       ry="0"
       rx="0"
       y="134.5" />
  </defs>
  <g
     id="shape-25ef02d5-d97e-8012-8006-7e9418d32f54"
     style="fill:none;stroke:#000000;stroke-opacity:1;stroke-width:20;stroke-dasharray:none"
     transform="matrix(0.05,0,0,0.05,-1.6,-1.6)">
    <defs
       id="defs2">
      <clipPath
         id="clipPath3"
         class="frame-clip frame-clip-def">
        <rect
           rx="500"
           ry="500"
           x="0"
           y="0"
           width="1024"
           height="1024"
           id="rect3" />
      </clipPath>
    </defs>
    <g
       class="frame-container-wrapper"
       id="g21"
       style="fill:none;stroke:#000000;stroke-opacity:1;stroke-width:20;stroke-dasharray:none">
      <g
         class="frame-container-blur"
         id="g20"
         style="fill:none;stroke:#000000;stroke-opacity:1;stroke-width:20;stroke-dasharray:none">
        <g
           class="frame-container-shadows"
           id="g19"
           style="fill:none;stroke:#000000;stroke-opacity:1;stroke-width:20;stroke-dasharray:none">
          <g
             clip-path="url(#frame-clip-25ef02d5-d97e-8012-8006-7e9418d32f54-render-1)"
             fill="none"
             id="g18"
             style="fill:none;stroke:#000000;stroke-opacity:1;stroke-width:20;stroke-dasharray:none">
            <g
               class="frame-children"
               id="g17"
               style="fill:none;stroke:#000000;stroke-opacity:1;stroke-width:20;stroke-dasharray:none">
              <g
                 id="shape-25ef02d5-d97e-8012-8006-7e9418d32f55"
                 xml:space="preserve"
                 rx="0"
                 ry="0"
                 style="fill:none;stroke:#000000;stroke-opacity:1;stroke-width:20;stroke-dasharray:none"><g
                   id="shape-25ef02d5-d97e-8012-8006-7e9418d32f59"
                   style="fill:none;stroke:#ffffff;stroke-width:26.66666667;stroke-dasharray:none;stroke-opacity:1"
                   transform="matrix(0.75,0,0,0.75,128.00002,127.27564)"><g
                     class="fills"
                     id="fills-25ef02d5-d97e-8012-8006-7e9418d32f59"
                     style="fill:none;stroke:#ffffff;stroke-width:26.66666667;stroke-dasharray:none;stroke-opacity:1"><path
                       d="m 792.99988,232.69995 c 3.60229,-4.75122 9.13672,-7.6477 15.09399,-7.89917 5.95728,-0.25146 11.71607,2.16821 15.70606,6.59912 68.19482,76.37256 105.82934,175.21216 105.69995,277.6001 0.10864,95.79443 -32.84668,188.69043 -93.30005,263 -3.88501,4.69727 -9.7002,7.36621 -15.79468,7.24951 -6.09448,-0.11719 -11.80298,-3.00683 -15.50537,-7.84961 l -43,-56.59961 c -5.39258,-7.06689 -5.47412,-16.84472 -0.19995,-24 38.61743,-52.7417 59.39233,-116.43261 59.30005,-181.80029 0,-74.19995 -26.19995,-142.30005 -69.8999,-195.6001 -5.89209,-7.15234 -6.09913,-17.41553 -0.5,-24.7998 z"
                       style="fill:none;stroke:#ffffff;stroke-width:26.66666667;stroke-dasharray:none;stroke-opacity:1"
                       id="path4" /></g></g><g
                   id="shape-25ef02d5-d97e-8012-8006-7e9418d35d81"
                   style="fill:none;stroke:#ffffff;stroke-width:26.66666667;stroke-dasharray:none;stroke-opacity:1"
                   transform="matrix(0.75,0,0,0.75,128.00002,127.27564)"><g
                     class="fills"
                     id="fills-25ef02d5-d97e-8012-8006-7e9418d35d81"
                     style="fill:none;stroke:#ffffff;stroke-width:26.66666667;stroke-dasharray:none;stroke-opacity:1"><path
                       d="m 355.19989,548 c -8.26855,-1.23828 -14.89429,-7.48975 -16.61108,-15.67261 -1.7168,-8.18286 1.83764,-16.57007 8.91113,-21.02734 l 282,-177.40015 c 7.06219,-4.51611 16.19159,-4.14892 22.86835,0.92017 6.67675,5.06885 9.48388,13.76391 7.03149,21.78003 L 562.39984,675.5 c -2.41797,8.04004 -9.59985,13.71387 -17.98096,14.20557 -8.38134,0.4917 -16.17724,-4.30371 -19.51904,-12.00537 l -49.19995,-111.5 z"
                       style="fill:none;stroke:#ffffff;stroke-width:26.66666667;stroke-dasharray:none;stroke-opacity:1"
                       id="path5" /></g></g><g
                   id="shape-25ef02d5-d97e-8012-8006-7e9418d35d82"
                   style="fill:none;stroke:#ffffff;stroke-width:26.66666667;stroke-dasharray:none;stroke-opacity:1"
                   transform="matrix(0.75,0,0,0.75,128.00002,127.27564)"><g
                     class="fills"
                     id="fills-25ef02d5-d97e-8012-8006-7e9418d35d82"
                     style="fill:none;stroke:#ffffff;stroke-width:26.66666667;stroke-dasharray:none;stroke-opacity:1"><path
                       d="m 720.79993,844.6001 c 3.51635,4.61767 4.85302,10.53564 3.66308,16.21679 -1.18994,5.68067 -4.78906,10.56446 -9.86303,13.38331 -61.96509,34.44482 -131.70502,52.48242 -202.60004,52.3999 C 281.42792,926.48975 94.555115,739.57227 94.499939,509 94.603943,364.52686 169.3576,230.36475 292.15936,154.25757 414.96088,78.150391 568.37225,70.904785 697.79993,135.1001 c 5.33081,2.65771 9.19946,7.55322 10.55322,13.354 1.35352,5.80103 0.0508,11.90332 -3.55322,16.646 l -42.40015,55.7998 c -5.65283,7.43433 -15.69849,9.96656 -24.19995,6.1001 -39.67841,-17.84033 -82.69525,-27.04346 -126.19989,-27 -170.65601,0 -309,138.34399 -309,309 0,170.6001 138.5,309 309,309 49.26855,0.0947 97.83618,-11.66992 141.60004,-34.2998 8.61669,-4.47315 19.20141,-2.11133 25.09985,5.60009 z"
                       style="fill:none;stroke:#ffffff;stroke-width:26.66666667;stroke-dasharray:none;stroke-opacity:1"
                       id="path6" /></g></g></g>
            </g>
          </g>
        </g>
      </g>
    </g>
  </g>
</svg>
