<?xml version="1.0" encoding="UTF-8" standalone="no"?>
<svg
   viewBox="0 0 48 48"
   version="1.1"
   id="svg8"
   sodipodi:docname="comaps.svg"
   inkscape:version="1.1.2 (0a00cf5339, 2022-02-04)"
   xmlns:inkscape="http://www.inkscape.org/namespaces/inkscape"
   xmlns:sodipodi="http://sodipodi.sourceforge.net/DTD/sodipodi-0.dtd"
   xmlns="http://www.w3.org/2000/svg"
   xmlns:svg="http://www.w3.org/2000/svg">
  <sodipodi:namedview
     id="namedview10"
     pagecolor="#ffffff"
     bordercolor="#666666"
     borderopacity="1.0"
     inkscape:pageshadow="2"
     inkscape:pageopacity="0.0"
     inkscape:pagecheckerboard="0"
     showgrid="false"
     inkscape:zoom="7.4895833"
     inkscape:cx="14.21975"
     inkscape:cy="25.902643"
     inkscape:window-width="1680"
     inkscape:window-height="988"
     inkscape:window-x="0"
     inkscape:window-y="25"
     inkscape:window-maximized="1"
     inkscape:current-layer="svg8" />
  <defs
     id="defs4">
    <style
       id="style2">.a{fill:none;stroke:#fff;stroke-linecap:round;stroke-linejoin:round;}</style>
  </defs>
  <path
     id="circle6"
     style="fill:none;stroke:#000080;stroke-width:0.881315;stroke-linecap:round;stroke-linejoin:round;stroke-opacity:1"
     class="a"
     d="m 33.937395,40.223744 c -2.926293,1.850277 -6.394363,2.921237 -10.11257,2.921237 -10.464843,0 -18.9482737,-8.483431 -18.9482743,-18.948274 1e-7,-10.464843 8.4834313,-18.9482748 18.9482743,-18.9482748 3.375311,0 6.544494,0.8825385 9.289381,2.4294474 m 4.405402,3.4233644 c 3.254405,3.402396 5.253492,8.015473 5.253492,13.095463 0,4.731643 -1.734323,9.058213 -4.601954,12.378694"
     sodipodi:nodetypes="csssccsc" />
  <path
     style="fill:none;stroke:#000080;stroke-width:1px;stroke-linecap:round;stroke-linejoin:round;stroke-opacity:1;paint-order:stroke fill markers"
     d="M 15.427894,24.701234 30.1163,15.266991 c 0.51061,-0.403385 1.466753,0.316536 1.274067,0.800233 l -4.928243,16.862804 c -0.138778,0.415797 -1.332435,0.393753 -1.574837,-6.19e-4 l -2.512919,-6.01981 -6.390745,-0.905662 c -0.504012,-0.09481 -0.728342,-0.95607 -0.555729,-1.302703 z"
     id="path1561"
     sodipodi:nodetypes="cccccccc" />
</svg>
