<?xml version="1.0" encoding="UTF-8" standalone="no"?>
<svg
   id="a"
   viewBox="0 0 48 48"
   version="1.1"
   sodipodi:docname="conty.svg"
   inkscape:version="1.1.2 (0a00cf5339, 2022-02-04)"
   xmlns:inkscape="http://www.inkscape.org/namespaces/inkscape"
   xmlns:sodipodi="http://sodipodi.sourceforge.net/DTD/sodipodi-0.dtd"
   xmlns="http://www.w3.org/2000/svg"
   xmlns:svg="http://www.w3.org/2000/svg">
  <sodipodi:namedview
     id="namedview21"
     pagecolor="#ffffff"
     bordercolor="#666666"
     borderopacity="1.0"
     inkscape:pageshadow="2"
     inkscape:pageopacity="0.0"
     inkscape:pagecheckerboard="0"
     showgrid="false"
     inkscape:zoom="14.9375"
     inkscape:cx="22.125523"
     inkscape:cy="23.966527"
     inkscape:window-width="1680"
     inkscape:window-height="988"
     inkscape:window-x="0"
     inkscape:window-y="25"
     inkscape:window-maximized="1"
     inkscape:current-layer="a" />
  <defs
     id="defs4">
    <style
       id="style2">.b{fill:none;stroke:#fff;stroke-linecap:round;stroke-linejoin:round;}</style>
  </defs>
  <path
     class="b"
     d="m 33.498276,15.323399 c -2.2242,-2.2242 -5.2968,-3.5999 -8.6908,-3.5999 -1.984409,0 -3.858978,0.470293 -5.518331,1.3055 m -3.902243,3.090887 c -1.791336,2.135435 -2.870026,4.888856 -2.870026,7.894213 0,6.7879 5.5027,12.2906 12.2906,12.2906 3.3939,0 6.4666,-1.3757 8.6908,-3.5998"
     id="path8-4"
     style="fill:none;stroke:#ffffff;stroke-linecap:round;stroke-linejoin:round"
     sodipodi:nodetypes="csccssc" />
  <polygon
     class="b"
     points="23.8305,28.1882 24.8701,24.9887 22.1485,23.0113 25.5126,23.0113 26.5522,19.8118 27.5918,23.0113 30.956,23.0113 28.2343,24.9887 29.2739,28.1882 26.5522,26.2108 "
     id="polygon18"
     style="fill:none"
     transform="rotate(-36.758623,7.0396393,33.571143)" />
  <polygon
     class="b"
     points="28.2343,24.9887 29.2739,28.1882 26.5522,26.2108 23.8305,28.1882 24.8701,24.9887 22.1485,23.0113 25.5126,23.0113 26.5522,19.8118 27.5918,23.0113 30.956,23.0113 "
     id="polygon18-1"
     style="fill:none;stroke:#ffffff;stroke-width:4.19483749;stroke-linecap:round;stroke-linejoin:round;stroke-miterlimit:4;stroke-dasharray:none;stroke-opacity:1"
     transform="matrix(0.2383147,-0.00592159,0.00592159,0.2383147,29.288919,21.629874)" />
  <path
     style="fill:none;fill-opacity:1;stroke:#ffffff;stroke-width:1;stroke-linecap:round;stroke-linejoin:round;stroke-opacity:1;stroke-miterlimit:4;stroke-dasharray:none"
     d="M 16.417445,32.547273 C 19.882502,30.622 23.300974,29.360658 26.812614,26.771456 22.719116,28.16472 15.318436,27.505101 18.102713,31.749284"
     id="path2919"
     sodipodi:nodetypes="ccc" />
  <path
     style="fill:none;stroke:#ffffff;stroke-width:1;stroke-linecap:round;stroke-linejoin:round;stroke-opacity:1;stroke-miterlimit:4;stroke-dasharray:none"
     d="m 26.812614,26.771456 c -1.234847,2.528275 -4.375972,7.937683 -8.709901,4.977828"
     id="path2954"
     sodipodi:nodetypes="cc" />
</svg>
