<?xml version="1.0" encoding="UTF-8" standalone="no"?>
<svg
   id="a"
   viewBox="0 0 48 48"
   version="1.1"
   sodipodi:docname="conty.svg"
   inkscape:version="1.1.2 (0a00cf5339, 2022-02-04)"
   xmlns:inkscape="http://www.inkscape.org/namespaces/inkscape"
   xmlns:sodipodi="http://sodipodi.sourceforge.net/DTD/sodipodi-0.dtd"
   xmlns="http://www.w3.org/2000/svg"
   xmlns:svg="http://www.w3.org/2000/svg">
  <sodipodi:namedview
     id="namedview21"
     pagecolor="#ffffff"
     bordercolor="#666666"
     borderopacity="1.0"
     inkscape:pageshadow="2"
     inkscape:pageopacity="0.0"
     inkscape:pagecheckerboard="0"
     showgrid="false"
     inkscape:zoom="14.9375"
     inkscape:cx="22.125523"
     inkscape:cy="23.966527"
     inkscape:window-width="1680"
     inkscape:window-height="988"
     inkscape:window-x="0"
     inkscape:window-y="25"
     inkscape:window-maximized="1"
     inkscape:current-layer="a" />
  <defs
     id="defs4">
    <style
       id="style2">.b{fill:none;stroke:#fff;stroke-linecap:round;stroke-linejoin:round;}</style>
  </defs>
  <path
     class="b"
     d="m 33.498276,15.323399 c -2.2242,-2.2242 -5.2968,-3.5999 -8.6908,-3.5999 -1.984409,0 -3.858978,0.470293 -5.518331,1.3055 m -3.902243,3.090887 c -1.791336,2.135435 -2.870026,4.888856 -2.870026,7.894213 0,6.7879 5.5027,12.2906 12.2906,12.2906 3.3939,0 6.4666,-1.3757 8.6908,-3.5998"
     id="path8-4"
     style="fill:none;stroke:#ffffff;stroke-linecap:round;stroke-linejoin:round;stroke-opacity:1"
     sodipodi:nodetypes="csccssc" />
  <path
     id="polygon18"
     style="fill:none;stroke:#ffffff;stroke-linecap:round;stroke-linejoin:round;stroke-opacity:1"
     class="b"
     d="m 17.270472,19.210114 c -0.360612,-1.061822 -0.721223,-2.123644 -1.081836,-3.185467 -1.12127,0.01484 -2.242542,0.02967 -3.363812,0.04451 0.898398,-0.671077 1.796796,-1.342153 2.695195,-2.01323 -0.360612,-1.061822 -0.721224,-2.123645 -1.081836,-3.185467 0.915872,0.64706 1.831744,1.29412 2.747615,1.94118 0.898425,-0.671096 1.79685,-1.342193 2.695275,-2.013289 -0.332387,1.071002 -0.664774,2.142006 -0.997161,3.213009 0.915871,0.64706 1.831743,1.29412 2.747615,1.94118 -1.121297,0.01486 -2.242596,0.02971 -3.363893,0.04457 -0.332387,1.071003 -0.664775,2.142007 -0.997162,3.213009 z" />
  <path
     id="polygon18-1"
     style="fill:none;stroke:#ffffff;stroke-width:1;stroke-linecap:round;stroke-linejoin:round;stroke-opacity:1"
     class="b"
     d="m 36.165541,27.417857 c 0.0889,0.25211 0.177798,0.504221 0.266698,0.756331 -0.22011,-0.151708 -0.440221,-0.303417 -0.660331,-0.455126 -0.212304,0.162453 -0.424608,0.324907 -0.636912,0.48736 0.07627,-0.256215 0.152538,-0.512429 0.228806,-0.768644 -0.220102,-0.151709 -0.440204,-0.303418 -0.660306,-0.455127 0.267238,-0.0066 0.534476,-0.01328 0.801714,-0.01992 0.07627,-0.256215 0.152537,-0.512429 0.228806,-0.768644 0.0889,0.252111 0.177799,0.504221 0.266698,0.756332 0.267246,-0.0066 0.534492,-0.01328 0.801738,-0.01992 -0.212304,0.162454 -0.424608,0.324907 -0.636911,0.487361 z" />
  <path
     style="fill:none;fill-opacity:1;stroke:#ffffff;stroke-width:1;stroke-linecap:round;stroke-linejoin:round;stroke-opacity:1;stroke-miterlimit:4;stroke-dasharray:none"
     d="M 16.417445,32.547273 C 19.882502,30.622 23.300974,29.360658 26.812614,26.771456 22.719116,28.16472 15.318436,27.505101 18.102713,31.749284"
     id="path2919"
     sodipodi:nodetypes="ccc" />
  <path
     style="fill:none;stroke:#ffffff;stroke-width:1;stroke-linecap:round;stroke-linejoin:round;stroke-opacity:1;stroke-miterlimit:4;stroke-dasharray:none"
     d="m 26.812614,26.771456 c -1.234847,2.528275 -4.375972,7.937683 -8.709901,4.977828"
     id="path2954"
     sodipodi:nodetypes="cc" />
</svg>
