<svg xmlns="http://www.w3.org/2000/svg" xml:space="preserve" width="48" height="48"><path fill="none" stroke="#fff" stroke-linecap="round" stroke-linejoin="round" d="M34.867 26.42v-4.845l2.557 4.85 2.557-4.843v4.843m-10.2-.531c.313.387.706.531 1.253.531h.757c.705 0 1.276-.541 1.276-1.21v-.005c0-.668-.571-1.21-1.276-1.21h-.835c-.705 0-1.277-.542-1.277-1.211v0c0-.67.573-1.214 1.28-1.214h.753c.547 0 .94.144 1.254.531m-5.067-.531v4.85m-4.357-4.85v4.85h2.557m-6.051-4.85c.938 0 1.694.716 1.694 1.606v1.638c0 .89-.756 1.606-1.694 1.606s-1.694-.716-1.694-1.606V23.18c0-.89.755-1.606 1.694-1.606m-5.168 0c.938 0 1.694.716 1.694 1.606v1.638c0 .89-.756 1.606-1.694 1.606s-1.694-.716-1.694-1.606V23.18c0-.89.755-1.606 1.694-1.606m-3.474 3.224v.02c0 .887-.758 1.606-1.694 1.606v0c-.936 0-1.694-.719-1.694-1.606V23.18c0-.887.758-1.606 1.694-1.606v0c.936 0 1.694.719 1.694 1.606v.02M40.5 5.501h-33a2 2 0 0 0-2 2v33a2 2 0 0 0 2 2h33a2 2 0 0 0 2-2v-33a2 2 0 0 0-2-2" class="t"/></svg>
