<?xml version="1.0" encoding="UTF-8"?><svg id="a" xmlns="http://www.w3.org/2000/svg" viewBox="0 0 48 48"><defs><style>.l{fill:none;stroke:#fff;stroke-linecap:round;stroke-linejoin:round;}</style></defs><path id="e" class="l" d="M11.53999996,24c0,1.9578495-1.5759573,3.54500008-3.5199995,3.54500008s-3.51999998-1.58715057-3.52000046-3.54500008h0c0-1.9578495,1.57595778-3.54500008,3.52000046-3.54500008h0c1.94404221,0,3.5199995,1.58715057,3.5199995,3.54500008Z"/><path id="f" class="l" d="M17.71999931,20.43000031c-.00054741,1.9574585-1.57634544,3.54400063-3.52000046,3.54400063-1.94404221,0-3.52000046-1.58715057-3.52000046-3.54500008h0c.00054836-1.9574585,1.57634544-3.54400063,3.52000046-3.54400063s3.51945305,1.58654213,3.52000046,3.54400063v.00099945Z"/><path id="g" class="l" d="M17.71999931,27.56999969c0,1.9578495-1.57595825,3.54500008-3.5199995,3.54500008h-.00000095c-1.94365501,0-3.5194521-1.58654213-3.52000046-3.54400063,0-1.9578495,1.5759573-3.54500008,3.52000046-3.54500008h0c1.94404221,0,3.52000046,1.58715057,3.52000046,3.54500008h0v-.00099945Z"/><path id="h" class="l" d="M14.70499992,24h28.79500008"/><path id="i" class="l" d="M37.72200012,24v6.06999969"/><path id="j" class="l" d="M42.03699875,24v6.06999969"/><path id="k" class="l" d="M37.72100067,27.54100037h4.31800079"/></svg>