<?xml version="1.0" encoding="UTF-8"?><svg id="a" xmlns="http://www.w3.org/2000/svg" viewBox="0 0 48 48"><defs><style>.d{fill:none;stroke:#fff;stroke-linecap:round;stroke-linejoin:round;}</style></defs><path class="d" d="m11.59 16.896c-1.2382 2.163-1.8896 4.6121-1.8896 7.1044 0 7.8977 6.4023 14.3 14.3 14.3s14.3-6.4023 14.3-14.3v0c0-7.8977-6.4023-14.3-14.3-14.3-5.1277 2e-7 -15.522 0-15.522 0"/><circle class="d" cx="24" cy="24" r="7.1"/><path class="d" d="m24 16.9-20.293-0.001333c-0.79853 2.2815-1.2066 4.6827-1.2066 7.1013 0 11.874 9.6259 21.5 21.5 21.5s21.5-9.6259 21.5-21.5v0c0-11.874-9.6259-21.5-21.5-21.5h-10.75"/></svg>
