<svg xmlns="http://www.w3.org/2000/svg" xml:space="preserve" width="48" height="48"><path d="M26.955 16.004a1.5 1.5 0 0 0-1.11.54l-8.044 9.685-4.725-3.536a1.5 1.5 0 0 0-2.055.244L5.59 29.512a1.5 1.5 0 0 0 .201 2.111 1.5 1.5 0 0 0 2.111-.2l4.522-5.472 4.722 3.533a1.5 1.5 0 0 0 2.051-.242l7.871-9.472L38.12 31.559a1.5 1.5 0 0 0 2.19 0l3.574-3.817a1.5 1.5 0 0 0-.07-2.12 1.5 1.5 0 0 0-2.122.07l-2.478 2.646-11.12-11.861a1.5 1.5 0 0 0-1.138-.473z" style="baseline-shift:baseline;display:inline;overflow:visible;opacity:1;vector-effect:none;fill:none;stroke:#000;stroke-linecap:round;stroke-linejoin:round;stroke-opacity:1;enable-background:accumulate;stop-color:#000;stop-opacity:1"/></svg>