<svg xmlns="http://www.w3.org/2000/svg" xml:space="preserve" viewBox="0 0 48 48"><path d="M10.940825 17.160766v.04025c0 1.797553-1.44522 3.254757-3.2279755 3.254757h-.0000121c-1.7827575 0-3.227966-1.457204-3.227966-3.254757v-3.316172c0-1.797554 1.4452085-3.254759 3.2279781-3.254755v0c1.7827555.000002 3.2279755 1.457205 3.2279755 3.254755v.04024M38.167438 15.542925h3.176769M43.039858 20.45577h-4.87242v-9.82569h4.87242M27.393189 20.455769v-9.82569h2.192589c2.354584 0 4.263366 1.92461 4.263366 4.29874v1.228211c0 2.374126-1.908782 4.298739-4.263366 4.298739zM5.740005 28.571652l2.4739946-1.338616v9.83387M21.200427 37.06687l-.000507-9.833869-5.310982 6.605452h6.556081M33.899202 30.490525a3.27804 3.2574694 0 0 1-3.27804 3.257469 3.27804 3.2574694 0 0 1-3.278041-3.257469 3.27804 3.2574694 0 0 1 3.278041-3.257468 3.27804 3.2574694 0 0 1 3.27804 3.257468" style="fill:none;stroke:#fff;stroke-width:1;stroke-linecap:round;stroke-linejoin:round;stroke-dashoffset:1.3;stroke-opacity:1"/><path d="M27.632851 35.867562c.546245.710829 1.37862 1.199364 2.758154 1.199364h.230168c1.810406 0 3.278041-1.458417 3.278041-3.257468v-3.318932M37.325519 30.489962c0-2.010432 1.83277-3.595484 3.928551-3.195242 1.374735.262538 2.472532 1.444002 2.609369 2.828437.1018 1.0298-.226148 2.045944-.941973 2.67019-1.326084 1.156439-5.595947 4.273015-5.595947 4.273015h6.556079M4.2972609 23.944687l6.8311751.04421M15.75142 23.944687l6.831176.04421M27.205579 23.944687l6.831176.04421M37.188056 23.944687l6.831175.04421M20.663296 15.608616a1.496288 1.496288 0 0 1-1.496288 1.496286 1.496288 1.496288 0 0 1-1.496288-1.496286 1.496288 1.496288 0 0 1 1.496288-1.496288 1.496288 1.496288 0 0 1 1.496288 1.496288" style="fill:none;stroke:#fff;stroke-width:1;stroke-linecap:round;stroke-linejoin:round;stroke-dashoffset:1.3;stroke-opacity:1"/><path d="M15.846765 8.3039632h6.645711c1.210237 0 2.184544.9743061 2.184544 2.1845428v26.892797c0 1.210237-.974307 2.184544-2.184544 2.184544h-6.645711c-1.210237 0-2.184544-.974307-2.184544-2.184544V10.488506c0-1.2102367.974307-2.1845428 2.184544-2.1845428" style="fill:none;stroke:#fff;stroke-width:1;stroke-linecap:round;stroke-linejoin:round;stroke-dashoffset:1.3;stroke-opacity:1"/></svg>