<?xml version="1.0" encoding="UTF-8"?><svg id="a" xmlns="http://www.w3.org/2000/svg" viewBox="0 0 48 48"><defs><style>.d{fill:none;stroke:#fff;stroke-linecap:round;stroke-linejoin:round;}</style></defs><circle class="d " cx="24" cy="24" r="21.5"/><path class="d" d="m13.448 12.827c-1.4285 0-2.5865 1.1575-2.5865 2.5854v5.1122c0 1.4279 1.158 2.5854 2.5865 2.5854s2.5865-1.1575 2.5865-2.5854v-5.1122c0-1.4279-1.158-2.5854-2.5865-2.5854z"/><path class="d" d="m18.644 11.08c-1.4285 0-2.5865 1.1575-2.5865 2.5854v5.1122c0 1.4279 1.158 2.5854 2.5865 2.5854 1.4285 0 2.5865-1.1575 2.5865-2.5854v-5.1122c0-1.4279-1.158-2.5854-2.5865-2.5854z"/><path class="d" d="m26.426 12.271v-0.53915c0-1.4279-1.158-2.5854-2.5865-2.5854-1.4285-4e-7 -2.5865 1.1575-2.5865 2.5854v5.1122c0 0.37469 0.07974 0.73076 0.22318 1.0522"/><path class="d" d="m29.035 6.1324c-1.4285 0-2.5865 1.1575-2.5865 2.5854v2.5451c0 1.4279 1.158 2.5854 2.5865 2.5854s2.5865-1.1575 2.5865-2.5854v-2.5451c0-1.4279-1.158-2.5854-2.5865-2.5854z"/><path class="d" d="m31.622 35.801v-9.1007c0-1.4279-1.158-2.5854-2.5865-2.5854s-2.5865 1.1575-2.5865 2.5854v4.4137h-13.001v-8.0048"/><path class="d" d="m26.442 27.236a8 8 0 0 1-5.1895-7.4901 8 8 0 0 1 5.3707-7.5556"/><path class="d" d="m31.492 12.066a8 8 0 0 1 5.7605 7.6801 8 8 0 0 1-5.6284 7.6404"/><path class="d" d="m29.035 21.595-1.5041-2.6051h-3.1721l1.5041 2.6051h6.3442l1.5041-2.6051h-3.1721l-1.5041 2.6051v2.5206"/><path class="d" d="m27.531 18.99 1.5041-2.6051 1.5041 2.6051"/><path class="d" d="m15.111 35.99v0.01968c0 0.87814-0.74475 1.59-1.6635 1.59-0.91876 0-1.6635-0.71182-1.6635-1.59v-1.62c0-0.87814 0.74475-1.59 1.6635-1.59 0.91876 0 1.6635 0.71182 1.6635 1.59v0.01968"/><path class="d" d="m19.171 32.8v3.2099c0 0.87814 0.74475 1.59 1.6635 1.59 0.91876 0 1.6635-0.71182 1.6635-1.59v-3.2099"/><path class="d" d="m28.629 35.2c0.6934 0 1.2555 0.53723 1.2555 1.2 0 0.66274-0.56208 1.2-1.2555 1.2h-2.0715v-4.7999h2.0715c0.6934 0 1.2555 0.53723 1.2555 1.2 0 0.66274-0.56208 1.2-1.2555 1.2z"/><line class="d" x1="28.629" x2="26.557" y1="35.2" y2="35.2"/></svg>
