<?xml version="1.0" encoding="UTF-8" standalone="no"?>
<!DOCTYPE svg PUBLIC "-//W3C//DTD SVG 1.1//EN" "http://www.w3.org/Graphics/SVG/1.1/DTD/svg11.dtd">
<svg width="100%" height="100%" viewBox="0 0 48 48" version="1.1" xmlns="http://www.w3.org/2000/svg" xmlns:xlink="http://www.w3.org/1999/xlink" xml:space="preserve" xmlns:serif="http://www.serif.com/" style="fill-rule:evenodd;clip-rule:evenodd;">
    <g id="layer1" transform="matrix(0.9901,0,0,0.9901,0.237609,0.23761)">
        <g id="c" transform="matrix(0.645527,0,0,0.645527,13.444006,20.510079)">
            <path id="path1" d="M0,9.134C-0.959,10.807 -2.762,11.935 -4.828,11.935C-7.899,11.935 -10.389,9.445 -10.389,6.374L-10.389,2.76C-10.389,-0.311 -7.899,-2.801 -4.828,-2.801C-2.766,-2.801 -0.965,-1.678 -0.006,-0.01" style="fill:none;fill-rule:nonzero;stroke:white;stroke-width:1px;"/>
        </g>
        <g id="u" transform="matrix(0,0.667797,0.667797,0,23.850644,19.727741)">
            <path id="path1-2" d="M-1.807,-12.928L7.368,-12.928C10.439,-12.928 12.928,-10.438 12.928,-7.367C12.928,-4.296 10.439,-1.807 7.368,-1.807L-1.807,-1.807" style="fill:none;fill-rule:nonzero;stroke:white;stroke-width:1px;"/>
        </g>
        <g id="Layer-2" serif:id="Layer 2" transform="matrix(0.647585,0,0,0.647585,12.672875,5.830388)">
            <g id="g1-3" transform="matrix(1,0,0,1,29.5605,29.5602)">
                <path id="path1-3" d="M0,-3.614C0,-6.685 -2.49,-9.175 -5.561,-9.175C-8.632,-9.175 -11.121,-6.685 -11.121,-3.614L-11.121,0C-11.121,3.071 -8.632,5.561 -5.561,5.561C-2.49,5.561 0,3.071 0,0" style="fill:none;fill-rule:nonzero;stroke:white;stroke-width:1px;"/>
            </g>
            <g id="g3" transform="matrix(0,-1,-1,0,40.6815,24.0001)">
                <path id="path2" d="M-11.121,11.121L11.121,11.121" style="fill:none;fill-rule:nonzero;stroke:white;stroke-width:1px;"/>
            </g>
        </g>
        <g id="Layer-21" serif:id="Layer 2" transform="matrix(0.670757,0,0,0.670757,21.421834,9.936379)">
            <g id="g1-11" transform="matrix(1,0,0,1,29.5605,35.1208)">
                <path id="path1-38" d="M0,-13.067L0,-5.56C0,-2.489 -2.49,0 -5.561,0C-7.096,0 -8.486,-0.622 -9.492,-1.628" style="fill:none;fill-rule:nonzero;stroke:white;stroke-width:1px;"/>
            </g>
            <g id="g2-7" transform="matrix(0,1,1,0,31.3675,25.8069)">
                <path id="path2-4" d="M-12.928,-1.807L-3.753,-1.807C-0.682,-1.807 1.807,-4.297 1.807,-7.368C1.807,-10.439 -0.682,-12.928 -3.753,-12.928L-12.928,-12.928" style="fill:none;fill-rule:nonzero;stroke:white;stroke-width:1px;"/>
            </g>
        </g>
        <g id="g1" transform="matrix(1.091891,0,0,1.091891,42.016208,44.19999)">
            <path id="path1-31" d="M0,-37L-33,-37C-34.105,-37 -35,-36.105 -35,-35L-35,-2C-35,-0.895 -34.105,0 -33,0L0,0C1.105,0 2,-0.895 2,-2L2,-35C2,-36.105 1.105,-37 0,-37Z" style="fill:none;fill-rule:nonzero;stroke:white;stroke-width:1px;"/>
        </g>
    </g>
</svg>
