<?xml version="1.0" encoding="UTF-8" standalone="no"?>
<svg
   id="Layer_1"
   data-name="Layer 1"
   version="1.1"
   viewBox="0 0 48 48"
   xml:space="preserve"
   xmlns="http://www.w3.org/2000/svg"
   xmlns:svg="http://www.w3.org/2000/svg"><defs
     id="defs1"><style
       id="style1">
      .cls-1 {
        fill: none;
        stroke: #fff;
        stroke-linecap: round;
        stroke-linejoin: round;
      }
    </style></defs><path
     style="fill:none;stroke:#ffffff;stroke-width:1;stroke-linecap:round;stroke-linejoin:round;stroke-dashoffset:0.5"
     d="m 28.951678,15.139197 c 0.776617,-0.644892 1.141715,-1.267233 1.095294,-1.867021 -1.19414,-1.13755 -1.877821,-2.661465 -1.443797,-4.4310638 0.434024,-1.7695995 2.115997,-3.6987924 4.704786,-3.2859578 2.588788,0.4128347 4.400432,3.2226369 3.758851,5.3521286 -0.641581,2.129491 -1.859289,2.662907 -3.086739,3.086808 -2.527386,2.818046 6.267057,7.698269 5.650722,15.035747 C 38.969402,36.903736 34.556392,42.351525 24.060194,42.497286 13.563997,42.643047 8.2106101,36.922188 8.3402341,28.880476 8.4985159,19.060883 14.969647,20.047136 14.065635,13.994091 12.201583,13.130897 10.60014,12.038596 10.630395,9.8866441 c 0.03025,-2.1519524 1.729613,-4.1628411 4.00778,-4.3314897 2.278167,-0.1686485 4.281605,1.6130309 4.679893,3.4602131 0.398288,1.8471815 -0.573084,3.1817445 -1.46869,4.3314895 0.249111,0.819888 0.738675,1.43393 1.46869,1.842127 3.251183,-1.335954 6.448139,-0.882379 9.63361,-0.04979 z"
     id="path1" /></svg>
