<?xml version="1.0" encoding="UTF-8"?><svg id="a" xmlns="http://www.w3.org/2000/svg" viewBox="0 0 48 48"><defs><style>.d{fill:none;stroke:#fff;stroke-linecap:round;stroke-linejoin:round;}</style></defs><path class="d" d="m28.788 41.87a18.5 18.5 0 0 1-21.88-10.79 18.5 18.5 0 0 1 7.8418-23.101"/><path class="d" d="m19.212 6.1304a18.5 18.5 0 0 1 17.87 4.7882 18.5 18.5 0 0 1 4.7882 17.87"/><path class="d" d="m24 39.5a15.5 15.5 0 0 1-13.423-7.75 15.5 15.5 0 0 1 0-15.5"/><path class="d" d="m13.04 13.04a15.5 15.5 0 0 1 16.892-3.36 15.5 15.5 0 0 1 9.5684 14.32"/><path class="d" d="m28.784 35.548a12.5 12.5 0 0 1-15.609-5.2985 12.5 12.5 0 0 1 3.2158-16.167 12.5 12.5 0 0 1 16.448 1.0781"/><path class="d" d="M 26.027,26.027 42.5,42.5"/><path class="d" d="m43.914 41.086-16.473-16.473"/><path class="d" d="m24.613 27.441 16.473 16.473"/></svg>
