<?xml version="1.0" encoding="UTF-8" standalone="no"?>
<!-- Created with Inkscape (http://www.inkscape.org/) -->

<svg
   width="48"
   height="48"
   viewBox="0 0 48 48"
   version="1.1"
   id="svg1"
   xml:space="preserve"
   sodipodi:docname="d.svg"
   inkscape:version="1.4.2 (f4327f4, 2025-05-13)"
   xmlns:inkscape="http://www.inkscape.org/namespaces/inkscape"
   xmlns:sodipodi="http://sodipodi.sourceforge.net/DTD/sodipodi-0.dtd"
   xmlns="http://www.w3.org/2000/svg"
   xmlns:svg="http://www.w3.org/2000/svg"><sodipodi:namedview
     id="namedview1"
     pagecolor="#ffffff"
     bordercolor="#000000"
     borderopacity="0.25"
     inkscape:showpageshadow="2"
     inkscape:pageopacity="0.0"
     inkscape:pagecheckerboard="true"
     inkscape:deskcolor="#d1d1d1"
     inkscape:zoom="27.798135"
     inkscape:cx="0.23382864"
     inkscape:cy="25.27148"
     inkscape:window-width="3840"
     inkscape:window-height="2089"
     inkscape:window-x="-8"
     inkscape:window-y="-8"
     inkscape:window-maximized="1"
     inkscape:current-layer="g15" /><defs
     id="defs1" /><g
     id="g15"
     inkscape:label="icon"
     transform="translate(0.08945972,0.3008745)"
     style="stroke:#ffffff;stroke-opacity:1;stroke-linecap:round;stroke-linejoin:round"><g
       id="g8"
       inkscape:label="ア"
       transform="translate(36.151769,2.27e-4)"
       style="stroke:#ffffff;stroke-opacity:1;stroke-linecap:round;stroke-linejoin:round"><path
         style="fill:none;fill-opacity:1;stroke:#ffffff;stroke-linecap:round;stroke-linejoin:round;stroke-opacity:1;paint-order:stroke fill markers"
         d="m 5.3990461,39.802861 c 0.1536477,1.602244 -0.2469485,2.716981 -2.1558029,3.841018"
         id="path7"
         sodipodi:nodetypes="cc"
         inkscape:label="2" /><path
         style="fill:none;fill-opacity:1;stroke:#ffffff;stroke-linecap:round;stroke-linejoin:round;stroke-opacity:1;paint-order:stroke fill markers"
         d="m 2.9952305,38.066773 5.6788554,0.0064 c -0.1342021,1.448553 -0.9350883,2.971898 -3.3322735,3.433982"
         id="path8"
         sodipodi:nodetypes="ccc"
         inkscape:label="1" /></g><g
       id="g14"
       inkscape:label="ト"
       style="stroke:#ffffff;stroke-opacity:1;stroke-linecap:round;stroke-linejoin:round"><path
         style="fill:none;stroke:#ffffff;stroke-linecap:round;stroke-linejoin:round;stroke-opacity:1;paint-order:stroke fill markers"
         d="m 33.539,37.793323 v 6.104928"
         id="path13"
         sodipodi:nodetypes="cc"
         inkscape:label="2" /><path
         style="fill:none;stroke:#ffffff;stroke-linecap:round;stroke-linejoin:round;stroke-opacity:1;paint-order:stroke fill markers"
         d="M 37.755167,41.011129 33.653419,40.044516"
         id="path14"
         sodipodi:nodetypes="cc"
         inkscape:label="1" /></g><g
       id="g12"
       inkscape:label="ス"
       style="stroke:#ffffff;stroke-opacity:1;stroke-linecap:round;stroke-linejoin:round"><path
         style="fill:none;stroke:#ffffff;stroke-linecap:round;stroke-linejoin:round;stroke-opacity:1;paint-order:stroke fill markers"
         d="m 25.541282,38.204 h 4.325829 c -0.752361,2.463592 -1.744981,4.119523 -4.676572,5.414033"
         id="path11"
         sodipodi:nodetypes="ccc"
         inkscape:label="2" /><path
         style="fill:none;stroke:#ffffff;stroke-linecap:round;stroke-linejoin:round;stroke-opacity:1;paint-order:stroke fill markers"
         d="m 28.985757,41.315721 c 0.649767,1.057412 1.277319,1.651059 2.122445,2.302313"
         id="path12"
         sodipodi:nodetypes="cc"
         inkscape:label="1" /></g><g
       id="g10"
       inkscape:label="メ"
       style="stroke:#ffffff;stroke-opacity:1;stroke-linecap:round;stroke-linejoin:round"><path
         style="fill:none;stroke:#ffffff;stroke-linecap:round;stroke-linejoin:round;stroke-opacity:1;paint-order:stroke fill markers"
         d="m 21.888712,37.901431 c -0.333682,1.945236 -0.892451,4.400148 -4.101749,5.736089"
         id="path9"
         sodipodi:nodetypes="cc"
         inkscape:label="2" /><path
         style="fill:none;stroke:#ffffff;stroke-linecap:round;stroke-linejoin:round;stroke-opacity:1;paint-order:stroke fill markers"
         d="m 18.346582,39.942766 c 1.75425,0.662016 3.007757,1.104109 4.81399,2.327504"
         id="path10"
         sodipodi:nodetypes="cc"
         inkscape:label="1" /></g><g
       id="g5"
       inkscape:label="二"
       style="stroke:#ffffff;stroke-opacity:1;stroke-linecap:round;stroke-linejoin:round"><path
         style="fill:none;fill-opacity:1;stroke:#ffffff;stroke-linecap:round;stroke-linejoin:round;stroke-opacity:1;paint-order:stroke fill markers"
         d="m 10.124006,43.376 h 5.558029"
         id="path5"
         sodipodi:nodetypes="cc"
         inkscape:label="2" /><path
         style="fill:none;fill-opacity:1;stroke:#ffffff;stroke-linecap:round;stroke-linejoin:round;stroke-opacity:1;paint-order:stroke fill markers"
         d="m 10.759936,38.505 h 4.209857"
         id="path6"
         sodipodi:nodetypes="cc"
         inkscape:label="1" /></g><g
       id="g3"
       inkscape:label="ア"
       style="stroke:#ffffff;stroke-opacity:1;stroke-linecap:round;stroke-linejoin:round"><path
         style="fill:none;fill-opacity:1;stroke:#ffffff;stroke-linecap:round;stroke-linejoin:round;stroke-opacity:1;paint-order:stroke fill markers"
         d="m 5.3990461,39.802861 c 0.1536477,1.602244 -0.2469485,2.716981 -2.1558029,3.841018"
         id="path4"
         sodipodi:nodetypes="cc"
         inkscape:label="2" /><path
         style="fill:none;fill-opacity:1;stroke:#ffffff;stroke-linecap:round;stroke-linejoin:round;stroke-opacity:1;paint-order:stroke fill markers"
         d="m 2.9952305,38.066773 5.6788554,0.0064 c -0.1342021,1.448553 -0.9350883,2.971898 -3.3322735,3.433982"
         id="path3"
         sodipodi:nodetypes="ccc"
         inkscape:label="1" /></g><path
       style="display:inline;fill:none;fill-opacity:1;stroke:#ffffff;stroke-width:1;stroke-linecap:round;stroke-linejoin:round;stroke-dasharray:none;stroke-opacity:1"
       d="m 22.14757,30.820096 c -3.494416,-0.311382 -6.39251,-2.387574 -7.759848,-5.559141 -0.513176,-1.190314 -0.721201,-2.13091 -0.780534,-3.529162 -0.2221,-5.233999 3.421906,-9.452416 8.555328,-9.903946 1.762861,-0.155056 3.328304,0.07874 4.823349,0.720503 l 0.80773,0.3467 V 8.1975255 3.5 h 2.630918 2.630917 v 11.796233 11.796233 l -0.597173,0.294477 c -0.328449,0.161965 -1.214299,0.66525 -1.968563,1.118415 -1.687416,1.013795 -2.61882,1.484877 -3.553702,1.797367 -1.385561,0.463141 -3.198677,0.659039 -4.788422,0.517371 z m 2.461232,-5.013743 c 2.369734,-0.633954 3.739566,-3.116496 3.134968,-5.681448 -0.389607,-1.652881 -1.611131,-2.909934 -3.189122,-3.281892 -2.596984,-0.612147 -4.924757,0.731665 -5.590141,3.227145 -0.161534,0.60585 -0.156995,1.903411 0.0086,2.526509 0.422002,1.585512 1.579768,2.785754 3.088707,3.202013 0.567062,0.156422 1.974841,0.160665 2.546739,0.0076 z"
       id="path2"
       sodipodi:nodetypes="csssccccccccsccccssccccc"
       inkscape:label="d" /></g></svg>
