<?xml version="1.0" encoding="UTF-8"?><svg id="a" xmlns="http://www.w3.org/2000/svg" viewBox="0 0 48 48"><defs><style>.d{fill:none;stroke:#fff;stroke-linecap:round;stroke-linejoin:round;}</style></defs><rect class="d" x="5.5" y="5.5" width="37" height="37" rx="4" ry="4"/><circle class="d" cx="24" cy="32.094" r="2"/><circle class="d" cx="15" cy="32.094" r="2"/><circle class="d" cx="33" cy="32.094" r="2"/><path class="d" d="m15.69 20.307c0-1.5044-1.2831-2.7238-2.866-2.7238s-2.866 1.2195-2.866 2.7238v1.7705c0 1.5044 1.2831 2.7238 2.866 2.7238s2.866-1.2195 2.866-2.7238"/><line class="d" x1="15.69" x2="15.69" y1="24.802" y2="13.906"/><path class="d" d="m20.442 16.772v7.4311c0 0.42612-0.18358 0.60252-0.61975 0.60252"/><path class="d" d="m18.606 19.45h3.3044"/><path class="d" d="m18.606 22.128s1.897-0.41501 3.3044-1.2051"/><path class="d" d="m24.113 16.772s-1.46 7.8947-2.554 8.0336c0 0 2.7045-0.18215 4.7294-1.3191"/><path class="d" d="m25.057 21.286s1.4331 2.1528 1.8098 3.52"/><path class="d" d="m35.977 16.778c1.6976 1.3895 2.0931 4.2969 2.0649 6.5521"/><path class="d" d="m30.349 16.778c-0.60634 1.6922-0.58172 4.2632-0.56695 5.1207 0.05007 2.9064 2.4987 4.1036 4.1305 1.3894"/></svg>
