<svg version="1.1" viewBox="0 0 48 48" xmlns="http://www.w3.org/2000/svg"><defs><style>.a{fill:none;stroke:#fff;stroke-linecap:round;stroke-linejoin:round;}</style></defs><g fill="none" stroke="#fff" stroke-linecap="round" stroke-linejoin="round"><path d="m9.3547 24.78 4.6235-5.0788 4.6235 5.0788" stop-color="#000000" style="paint-order:markers stroke fill"/><path d="m34.249 29.708 4.6235-5.0788 4.6235 5.0788" stop-color="#000000" style="paint-order:markers stroke fill"/><path d="m34.249 26.667 4.6235-5.0788 4.6235 5.0788" stop-color="#000000" style="paint-order:markers stroke fill"/><path d="m34.249 23.371 4.6235-5.0788 4.6235 5.0788" stop-color="#000000" style="paint-order:markers stroke fill"/><g><line class="t" x1="20.329" x2="20.329" y1="19.702" y2="24.78"/><path class="t" d="m27.417 24.224c0.3265 0.40548 0.73585 0.55644 1.3054 0.55644h0.78823c0.73352 0 1.3282-0.56724 1.3282-1.267v-0.0055c0-0.69973-0.59463-1.267-1.3282-1.267h-0.86949c-0.73432 0-1.3296-0.56787-1.3296-1.2683 0-0.70201 0.59656-1.2711 1.3325-1.2711h0.7839c0.56954 0 0.9789 0.15103 1.3054 0.55644"/><path class="t" d="m4.5 24.78v-5.0788h1.1979c1.2864 0 2.3293 0.9948 2.3293 2.222v0.63485c0 1.2272-1.0429 2.222-2.3293 2.222z"/><rect class="t" x="22.157" y="19.702" width="3.5272" height="5.0788" rx="2.65" ry="2.65"/><path d="m5.1263 29.708c1.6209-0.72678 1.5881-2.4519 1.5881-2.4519h-1.4777s-0.15751 0.55888-0.71667 1.0212" stop-color="#000000" style="paint-order:markers stroke fill"/><path d="m4.8127 28.026 1.268 0.85808" stop-color="#000000" style="paint-order:markers stroke fill"/></g><g><circle cx="7.7767" cy="27.211" r=".25" stop-color="#000000" stroke-width=".5" style="paint-order:markers stroke fill"/><circle cx="8.7554" cy="26.947" r=".25" stop-color="#000000" stroke-width=".5" style="paint-order:markers stroke fill"/><g><path d="m11.153 27.256s-0.74106 0.86076-2.1706 1.0212" stop-color="#000000" style="paint-order:markers stroke fill"/><path d="m10.11 29.708v-1.6831" stop-color="#000000" style="paint-order:markers stroke fill"/><path d="m13.533 28.008s-0.20629-0.40425-0.6148-0.75212" stop-color="#000000" style="paint-order:markers stroke fill"/><path d="m15.463 27.256s0.08804 1.9138-1.9329 2.4519" stop-color="#000000" style="paint-order:markers stroke fill"/><path d="m17.184 28.486h1.7063" stop-color="#000000" style="paint-order:markers stroke fill"/></g></g></g></svg>
