<svg version="1.1" viewBox="0 0 48 48" xmlns="http://www.w3.org/2000/svg"><defs><style>.a{fill:none;stroke:#fff;stroke-linecap:round;stroke-linejoin:round;}</style></defs><g fill="none" stroke="#fff" stroke-linecap="round" stroke-linejoin="round"><path d="m34.249 29.708 4.6235-5.0788 4.6235 5.0788" stop-color="#000000" style="paint-order:markers stroke fill"/><path d="m34.249 26.54 4.6235-5.0788 4.6235 5.0788" stop-color="#000000" style="paint-order:markers stroke fill"/><path d="m34.249 23.371 4.6235-5.0788 4.6235 5.0788" stop-color="#000000" style="paint-order:markers stroke fill"/></g><g fill="none" stroke="#fff" stroke-linecap="round" stroke-linejoin="round"><path d="m9.3547 26.539 4.6235-5.0788 4.6235 5.0788" stop-color="#000000" style="paint-order:markers stroke fill"/><line class="t" x1="20.329" x2="20.329" y1="21.461" y2="26.539"/><path class="t" d="m27.417 25.983c0.3265 0.40548 0.73585 0.55644 1.3054 0.55644h0.78823c0.73352 0 1.3282-0.56724 1.3282-1.267v-0.0055c0-0.69973-0.59463-1.267-1.3282-1.267h-0.86949c-0.73432 0-1.3296-0.56787-1.3296-1.2683 0-0.70201 0.59656-1.2711 1.3325-1.2711h0.7839c0.56954 0 0.9789 0.15103 1.3054 0.55644"/><path class="t" d="m4.5 26.539v-5.0788h1.1979c1.2864 0 2.3293 0.9948 2.3293 2.222v0.63485c0 1.2272-1.0429 2.222-2.3293 2.222z"/><rect class="t" x="22.157" y="21.461" width="3.5272" height="5.0788" rx="1.7636" ry="1.7636"/></g></svg>
