<?xml version="1.0" encoding="UTF-8"?><svg id="b" xmlns="http://www.w3.org/2000/svg" viewBox="0 0 48 48"><defs><style>.ao{fill:none;stroke:#fff;stroke-linecap:round;stroke-linejoin:round;}</style></defs><path id="d" class="ao" d="M24.0809,27.9843l-7.6528,13.417,15.232-.0705-7.5792-13.3465Z"/><path id="e" class="ao" d="M22.3887,27.1735c-.9518.4348-1.9036.8695-3.0787,1.6921-1.1751.8226-2.5734,2.0328-3.7661,3.0552-1.1927,1.0223-2.1797,1.8566-3.6075,2.3149-1.4277.4583-3.2961.5405-5.1644.6228"/><path id="f" class="ao" d="M9.2397,38.9478c-.0705-.7991-.141-1.5981-.5523-2.2562-.4113-.658-1.1633-1.1751-1.9154-1.6921"/><path id="g" class="ao" d="M9.2749,39.0183c2.0446-.7285,4.0893-1.4571,5.752-2.6616,1.6627-1.2045,2.9435-2.8848,3.6251-4.0187.6815-1.134.7638-1.7215,1.3161-2.5088s1.5746-1.7744,2.5969-2.7614"/><path id="h" class="ao" d="M19.821,26.5977c-4.3622,1.6369-8.7245,3.2738-13.0867,4.9106"/><path id="i" class="ao" d="M19.9207,26.5479c-4.3207-.0416-8.6414-.0831-12.9621-.1246"/><path id="j" class="ao" d="M6.6653,31.526c-.5161.0737-1.0321.1475-1.5898-.2252-.5577-.3727-1.1569-1.1918-1.2192-2.0413s.4126-1.7292,1.0084-2.2069c.5958-.4777,1.3126-.5532,2.0293-.6288"/><path id="k" class="ao" d="M19.7987,24.5235H6.855"/><path id="l" class="ao" d="M19.5529,24.4211c-3.9186-1.5156-7.8372-3.0311-11.7558-4.5467"/><path id="m" class="ao" d="M6.9779,24.5337c-.8841-.041-1.7681-.0819-2.3774-.6503s-.9438-1.664-.7185-2.5071c.2253-.8431,1.0103-1.4336,1.7425-1.6453.7322-.2116,1.4114-.0444,2.0907.1229"/><path id="n" class="ao" d="M20.6075,23.0908c-4.016-1.6739-8.0319-3.3478-12.0479-5.0217"/><path id="o" class="ao" d="M20.7099,23.0943c-.0435-.029-.0869-.0579-1.6341-1.4965-1.5472-1.4386-4.598-4.2866-7.6488-7.1347"/><path id="p" class="ao" d="M8.5017,18.0474c-.7337-.4127-1.4675-.8255-1.7897-1.5556s-.2329-1.7776.2522-2.439c.4852-.6614,1.3661-.9365,2.1614-.8134.7953.1231,1.5049.6444,2.2145,1.1658"/><path id="q" class="ao" d="M21.7443,21.7586c-2.9697-2.8536-5.9393-5.7072-8.909-8.5608"/><path id="r" class="ao" d="M21.7648,21.7791c-1.5975-3.6182-3.195-7.2364-4.7924-10.8546"/><path id="s" class="ao" d="M12.8967,13.249c-.6622-.6793-1.3244-1.3585-1.4473-2.1863-.1229-.8278.2935-1.804,1.065-2.3262.7714-.5223,1.8978-.5905,2.6932-.1655s1.2596,1.3432,1.7238,2.2614"/><path id="t" class="ao" d="M23.1573,20.8351c-1.5882-3.6977-3.1764-7.3954-4.7645-11.0931"/><path id="u" class="ao" d="M23.1719,20.8206c0-.0338,0-.0676-.0386-2.0565-.0386-1.9889-.1159-5.9327-.1931-9.8766"/><path id="v" class="ao" d="M18.3783,9.6986c-.3476-.9027-.6951-1.8054-.4562-2.5609s1.0644-1.3637,1.9478-1.5037c.8834-.14,1.8247.1882,2.3468.8209s.6249,1.5697.7276,2.5068"/><path id="w" class="ao" d="M24.7214,20.8496v-12.1937"/><path id="x" class="ao" d="M24.7214,20.8496l4.3301-10.9483"/><path id="y" class="ao" d="M24.7214,8.8442c.0097-.8882.0193-1.7764.5045-2.363.4852-.5865,1.4457-.8713,2.2881-.6565.8424.2148,1.5664.9292,1.8006,1.6992.2341.77-.0217,1.5954-.2776,2.4209"/><path id="z" class="ao" d="M26.3319,21.3081c1.536-3.7138,3.0721-7.4276,4.6081-11.1414"/><path id="aa" class="ao" d="M26.3524,21.3285c2.7853-2.8536,5.5707-5.7072,8.356-8.5608"/><path id="ab" class="ao" d="M30.8581,10.351c.5052-1.0821,1.0104-2.1641,1.9252-2.543s2.2392-.0546,2.8809.6059c.6417.6605.6008,1.6572.3089,2.4594s-.8346,1.4097-1.3773,2.0173"/><path id="ac" class="ao" d="M27.4993,22.5369c3.0448-2.9424,6.0895-5.8847,9.1343-8.8271"/><path id="ad" class="ao" d="M27.4993,22.5779c3.9664-1.6316,7.9328-3.2632,11.8991-4.8948"/><path id="ae" class="ao" d="M36.6541,13.6893c.5181-.3979,1.0361-.7957,1.7323-.7662.6962.0296,1.5705.4865,2.0471,1.2339.4766.7474.5554,1.7852.3015,2.4302s-.8404.8974-1.4269,1.1497"/><path id="af" class="ao" d="M27.868,24.4621c4.2941-1.7408,8.5881-3.4817,12.8822-5.2225"/><path id="ag" class="ao" d="M27.827,24.503h13.8448"/><path id="ah" class="ao" d="M40.8167,19.2293c.4506-.1007.9011-.2014,1.4652.1229.5641.3243,1.2416,1.0735,1.4532,1.9704s-.0427,1.9414-.4523,2.4952c-.4096.5538-.9745.617-1.5394.6801"/><path id="ai" class="ao" d="M27.6612,26.2658h13.7288"/><path id="aj" class="ao" d="M27.6757,26.2803c4.1853,1.6461,8.3705,3.2922,12.5558,4.9383"/><path id="ak" class="ao" d="M41.5349,26.2658c.3838.07.7675.14,1.0873.6626.3198.5226.5757,1.4976.3958,2.3086-.1798.811-.7953,1.4578-1.3142,1.7668s-.9413.28-1.3637.251"/><path id="al" class="ao" d="M27.053,27.714c4.0404,1.7137,8.0809,3.4274,12.1213,5.1411"/><path id="am" class="ao" d="M27.0819,27.7865c2.8819,2.9977,5.7638,5.9955,8.6457,8.9932"/><path id="an" class="ao" d="M39.2244,32.8898c.2765.2594.553.5188.5683,1.1298s-.2304,1.5736-.8056,2.1794-1.4797.8551-2.0839.8875c-.6042.0324-.908-.1519-1.2118-.3362"/></svg>