<svg xmlns="http://www.w3.org/2000/svg" id="Layer_1" data-name="Layer 1" viewBox="0 0 48 48">
  <defs>
    <style>
      .cls-1{fill:#fff}.cls-2{fill:none;stroke:#fff;stroke-linecap:round;stroke-linejoin:round}
    </style>
  </defs>
  <rect width="37" height="37" x="5.5" y="5.5" class="cls-2" rx="4" ry="4"/>
  <rect width="12.4" height="12.4" x="10.66" y="10.19" class="cls-2" rx="1.34" ry="1.34"/>
  <rect width="4.45" height="4.45" x="14.63" y="14.17" class="cls-2" rx=".48" ry=".48"/>
  <circle cx="32.42" cy="32.31" r="5.27" class="cls-2"/>
  <circle cx="32.42" cy="30.76" r="1.55" class="cls-2"/>
  <path d="M29.47 35.92c.65-.93 1.73-1.53 2.95-1.53s2.22.56 2.88 1.43" class="cls-2"/>
  <rect width="11.52" height="2.61" x="16" y="31.01" class="cls-2" rx="1.09" ry="1.09" transform="rotate(90 21.755 32.315)"/>
  <rect width="7.44" height="2.61" x="13.14" y="33.05" class="cls-2" rx="1.09" ry="1.09" transform="rotate(90 16.86 34.35)"/>
  <rect width="4.81" height="2.61" x="9.56" y="34.36" class="cls-2" rx="1.09" ry="1.09" transform="rotate(90 11.965 35.665)"/>
  <rect width="10.58" height="4.92" x="27.15" y="10.19" class="cls-2" rx="2.46" ry="2.46"/>
  <circle cx="35.09" cy="12.79" r=".75" class="cls-1"/>
  <rect width="10.58" height="4.92" x="27.15" y="17.68" class="cls-2" rx="2.46" ry="2.46" transform="matrix(-1 0 0 -1 64.87 40.28)"/>
  <circle cx="29.78" cy="20" r=".75" class="cls-1"/>
</svg>
