<svg xmlns="http://www.w3.org/2000/svg" xml:space="preserve" width="48" height="48"><path fill="none" stroke="#fff" stroke-linecap="round" stroke-linejoin="round" d="M32.73 23.832h-7.58m3.79-3.79v7.58m-2.437-.33c-1.498 1.382-3.282 2.63-5.061 3.698-4.745-2.85-9.524-6.974-8.811-11.509.847-5.39 7.256-4.508 8.81-.842 1.447-3.411 7.097-4.412 8.558-.191M42.444 42.5 35.63 31.358a16.5 16.5 0 0 0 2.94-9.351C38.57 12.89 31.18 5.5 22.062 5.5c-9.116 0-16.507 7.39-16.507 16.507 0 9.116 7.39 16.507 16.507 16.507a16.5 16.5 0 0 0 9.583-3.112z" style="-inkscape-stroke:none"/></svg>
