<svg xmlns="http://www.w3.org/2000/svg" xml:space="preserve" width="48" height="48"><path fill="none" stroke="#fff" stroke-linecap="round" stroke-linejoin="round" d="m33.314 23.393-7.13-7.13a3.083 3.083 0 0 0-4.37 0L6.404 31.675a3.083 3.083 0 0 0 0 4.37l5.57 5.57c1.21 1.21 3.159 1.21 4.32.048l5.521-5.52a3.083 3.083 0 0 1 4.37 0l5.52 5.52c1.163 1.162 3.111 1.162 4.322-.048l5.57-5.57a3.083 3.083 0 0 0 0-4.37zm0-9.887-7.13-7.13a3.083 3.083 0 0 0-4.369 0L6.402 21.788a3.083 3.083 0 0 0 0 4.37l5.57 5.57c1.21 1.21 3.16 1.21 4.32.048l5.522-5.52a3.083 3.083 0 0 1 4.37 0l5.52 5.52c1.162 1.162 3.11 1.162 4.321-.048l5.57-5.57a3.083 3.083 0 0 0 0-4.37zV9.463" style="-inkscape-stroke:none"/></svg>
