<?xml version="1.0" encoding="UTF-8" standalone="no"?>
<svg
   viewBox="0 0 48 48"
   version="1.1"
   id="svg1"
   sodipodi:docname="de_lijn.svg"
   xml:space="preserve"
   inkscape:version="1.3 (0e150ed6c4, 2023-07-21)"
   xmlns:inkscape="http://www.inkscape.org/namespaces/inkscape"
   xmlns:sodipodi="http://sodipodi.sourceforge.net/DTD/sodipodi-0.dtd"
   xmlns="http://www.w3.org/2000/svg"
   xmlns:svg="http://www.w3.org/2000/svg"><sodipodi:namedview
     id="namedview1"
     pagecolor="#505050"
     bordercolor="#ffffff"
     borderopacity="1"
     inkscape:showpageshadow="0"
     inkscape:pageopacity="0"
     inkscape:pagecheckerboard="1"
     inkscape:deskcolor="#d1d1d1"
     showgrid="true"
     inkscape:zoom="7.75"
     inkscape:cx="15.096774"
     inkscape:cy="9.4193548"
     inkscape:window-width="1858"
     inkscape:window-height="1057"
     inkscape:window-x="54"
     inkscape:window-y="-8"
     inkscape:window-maximized="1"
     inkscape:current-layer="svg1"><inkscape:grid
       id="grid1"
       units="px"
       originx="0"
       originy="0"
       spacingx="0.5"
       spacingy="0.5"
       empcolor="#0099e5"
       empopacity="0.30196078"
       color="#0099e5"
       opacity="0.14901961"
       empspacing="2"
       dotted="false"
       gridanglex="30"
       gridanglez="30"
       visible="true" /></sodipodi:namedview><defs
     id="defs1"><style
       id="style1">.a{fill:none;stroke:#fff;stroke-linecap:round;stroke-linejoin:round;}</style></defs><path
     class="a"
     d="M40.5,5.5H7.5a2,2,0,0,0-2,2v33a2,2,0,0,0,2,2h33a2,2,0,0,0,2-2V7.5A2,2,0,0,0,40.5,5.5Z"
     id="path1" /><path
     id="path6"
     style="opacity:1;fill:none;stroke:#ffffff;stroke-linecap:round;stroke-linejoin:round;paint-order:fill markers stroke"
     d="m 28.147346,22.5 h 2 l 0.705308,-4 h -2 l -0.705308,4 -1.294692,-4 h -2 l -0.705308,4 h 2 l 0.705308,-4 m -6.705308,4 0.705308,-4 h 2 L 22.411837,21 c -0.146075,0.828427 -0.936064,1.5 -1.764491,1.5 h -1.5 m -2.294692,-4 -0.352654,2 h 2 l 0.352654,-2 z m -1.505654,4 h -4 l 0.705308,-4 h 2 l -0.705308,4 m 29.153,2 H 19.173828 L 16,42.5 m 6.523438,-37 -1.939454,11 H 42.5"
     sodipodi:nodetypes="cccccccccccccssccccccccccccccccc" /></svg>
