<svg xmlns="http://www.w3.org/2000/svg" width="48" height="48"><path fill="#fff" stroke="#000" stroke-linecap="round" stroke-linejoin="round" stroke-width=".623" d="M13.15 19.052q2.417-4.355 7.489-7.46c10.846-6.49 15.187-1.615 15.398 1.18.435 5.128-3.92 8.978-6.21 11.212v-3.822c5.55-5.465 2.894-8.471 2.29-8.963-.45-.492-6.73-4.046-16.128 6.35-3.54 4.2-2.6 9.104 1.98 6.477 1.139-.59 3.808-3.035 8.908-10.593v12.531c-1.461.998-10.242 5.114-13.838.605-1.504-2.052-1.504-4.82.112-7.517z" style="stroke:#fff;stroke-width:1;stroke-miterlimit:4;stroke-dasharray:none;stroke-opacity:1;fill:none;stroke-linejoin:round;stroke-linecap:round"/><g style="fill:none;stroke:#fff;stroke-linecap:round;stroke-linejoin:round;stroke-opacity:1"><path d="M223.4 48.7v-8h2.6c1.5 0 2.7 1.2 2.7 2.7 0 1.5-1.2 2.7-2.7 2.7h-2.6M226 46l2.6 2.6" class="cls-2" style="fill:none;stroke:#fff;stroke-linecap:round;stroke-linejoin:round;stroke-opacity:1" transform="translate(-210.4 -9.888)"/></g><g style="fill:none;fill-rule:nonzero;stroke:#fff;stroke-opacity:1"><g style="fill:#000;fill-opacity:1;stroke:#fff;stroke-linecap:round;stroke-linejoin:round;stroke-opacity:1"><g style="stroke:#fff;stroke-opacity:1" transform="translate(-114.733 -25.888)"><circle cx="136" cy="56.9" r=".7" stroke="none" class="cls-7" style="fill:#fff;fill-opacity:1;stroke:none;stroke-linecap:round;stroke-linejoin:round;stroke-opacity:1"/><path d="M136 59.3v5.4" class="cls-2" style="fill:#000;fill-opacity:1;stroke:#fff;stroke-linecap:round;stroke-linejoin:round;stroke-opacity:1"/></g></g></g><path d="M34.7 37.812c-.3.6-1 1-1.7 1v0c-1.1 0-2-.9-2-2v-1.3c0-1.1.9-2 2-2v0c1.1 0 2 .9 2 2v.7h-4" class="cls-2" style="fill:none;stroke:#fff;stroke-linecap:round;stroke-linejoin:round;stroke-opacity:1"/><g style="fill:none;stroke:#fff;stroke-linecap:round;stroke-linejoin:round;stroke-opacity:1"><path d="M88 61.3c0-1.1-.9-2-2-2v0c-1.1 0-2 .9-2 2v1.3c0 1.1.9 2 2 2v0c1.1 0 2-.9 2-2M88 64.7v-8" class="cls-2" style="fill:none;stroke:#fff;stroke-linecap:round;stroke-linejoin:round;stroke-opacity:1" transform="translate(-59.767 -25.888)"/></g></svg>