<?xml version="1.0" encoding="UTF-8" standalone="no"?>
<!-- Created with Inkscape (http://www.inkscape.org/) -->

<svg
   width="48"
   height="48"
   viewBox="0 0 12.7 12.7"
   version="1.1"
   id="svg14069"
   inkscape:version="1.2.2 (b0a8486541, 2022-12-01)"
   sodipodi:docname="decathlon.svg"
   xmlns:inkscape="http://www.inkscape.org/namespaces/inkscape"
   xmlns:sodipodi="http://sodipodi.sourceforge.net/DTD/sodipodi-0.dtd"
   xmlns="http://www.w3.org/2000/svg"
   xmlns:svg="http://www.w3.org/2000/svg">
  <sodipodi:namedview
     id="namedview14071"
     pagecolor="#000000"
     bordercolor="#000000"
     borderopacity="0.25"
     inkscape:showpageshadow="2"
     inkscape:pageopacity="0"
     inkscape:pagecheckerboard="0"
     inkscape:deskcolor="#d1d1d1"
     inkscape:document-units="px"
     showgrid="false"
     inkscape:zoom="11.441216"
     inkscape:cx="22.418946"
     inkscape:cy="22.506349"
     inkscape:window-width="1920"
     inkscape:window-height="1163"
     inkscape:window-x="0"
     inkscape:window-y="0"
     inkscape:window-maximized="1"
     inkscape:current-layer="layer1" />
  <defs
     id="defs14066" />
  <g
     inkscape:label="Layer 1"
     inkscape:groupmode="layer"
     id="layer1">
    <g
       id="g13538"
       transform="matrix(0.03320731,0,0,0.03320731,-1.6497623,-1.5741472)"
       style="clip-rule:evenodd;fill-rule:evenodd;image-rendering:optimizeQuality;shape-rendering:geometricPrecision;text-rendering:geometricPrecision;fill:none;stroke:#ffffff;stroke-opacity:1;stroke-width:7.96762319;stroke-dasharray:none;stroke-linejoin:round;stroke-linecap:round">
      <path
         style="opacity:1;fill:none;stroke:#ffffff;stroke-width:7.96762;stroke-linecap:round;stroke-linejoin:round;stroke-dasharray:none;stroke-opacity:1"
         fill="#fdfdfe"
         d="m 307.5,94.5 c 14.38647,-0.497925 28.91355,-0.856162 43,2 43.77686,8.87618 65.94416,37.52718 61.5,82 -2.54318,25.4497 -13.16696,48.70144 -27,70 -17.23717,26.53985 -38.687,49.354 -63.5,69 -0.997,-19.493 -1.33,-39.16 -1,-59 14.201,-15.034 27.3203,-31.00236 37.5,-49 8.17411,-14.45178 14.44178,-30.32204 14.5,-47 0.0985,-28.21868 -16.97959,-43.73368 -45,-47 -4.9994,-0.58278 -10.1567,-0.91322 -15.5,-1 -7.40389,-0.12024 -14.50568,0.775 -21.5,2 -6.74616,1.18154 -13.47164,2.33269 -20,4.5 -58.95073,19.57072 -108.36073,53.22916 -147.5,101.5 -12.67395,15.6309 -21.39625,33.50824 -27,53 -3.172857,11.03627 -3.993285,22.29486 0,33 4.7193,12.65144 15.03495,17.3477 28.5,14.5 17.55367,-3.71239 31.53146,-12.90433 43,-24 14.23651,-13.77365 27.93131,-28.16769 40.5,-43.5 26.93052,-32.85203 51.157,-67.673 74.5,-103 0.999,63.498 1.332,127.164 1,191 -14.62647,10.45706 -33.15714,18.48319 -48,24.5 -21.42883,8.68655 -41.64807,13.62303 -63,14.5 -12.67294,0.5205 -25.39341,0.31352 -38,-1 -29.40771,-3.06408 -50.042382,-18.83367 -61.5,-46 -1.34635,-3.19223 -2.095296,-6.5859 -2.5,-10 -1.789363,-15.09515 -1.43487,-30.20008 2,-45 4.885517,-21.05036 13.763355,-40.5502 26.5,-58 46.81248,-64.1353 109.21902,-106.22341 186.5,-125.5 7.18041,-1.791046 14.61901,-2.24454 22,-2.5 z"
         id="path13536"
         sodipodi:nodetypes="ssssccssssssssssssccsssssssss" />
    </g>
  </g>
</svg>
