<?xml version="1.0" encoding="UTF-8" standalone="no"?>
<svg
   id="Layer_1"
   data-name="Layer 1"
   version="1.1"
   viewBox="0 0 48 48"
   xml:space="preserve"
   xmlns="http://www.w3.org/2000/svg"
   xmlns:svg="http://www.w3.org/2000/svg"><defs
     id="defs1"><style
       id="style1">
      .cls-1 {
        fill: none;
        stroke: #fff;
        stroke-linecap: round;
        stroke-linejoin: round;
      }
    </style></defs><path
     id="path2"
     style="fill:none;stroke:#ffffff;stroke-width:1;stroke-linecap:round;stroke-linejoin:round"
     d="m 27.894004,8.5278205 c 3.342043,-3.343853 8.760563,-3.343853 12.102605,0 3.342043,3.3438515 3.342043,8.7653065 0,12.1091595 l -7.261562,7.265495 c -3.342043,3.343853 -8.760564,3.343853 -12.102605,0 -3.342043,-3.343851 -3.342043,-8.765307 0,-12.10916 z" /><path
     id="path2-5"
     style="fill:none;stroke:#ffffff;stroke-width:1;stroke-linecap:round;stroke-linejoin:round"
     d="m 27.367558,32.206684 -7.261562,7.265495 c -3.342043,3.343853 -8.760564,3.343853 -12.102605,0 -3.342043,-3.343851 -3.342043,-8.765307 0,-12.10916 l 7.261562,-7.265495 c 0.456381,-0.456628 0.951482,-0.850899 1.47473,-1.182814 m 5.112847,-1.30832 c 2.008108,0.125389 3.980466,0.955772 5.515028,2.491165 1.997955,1.999037 2.801484,4.740596 2.410586,7.336882" /></svg>
