<svg xmlns="http://www.w3.org/2000/svg" xml:space="preserve" width="48" height="48"><path fill="none" stroke="#fff" stroke-linecap="round" stroke-linejoin="round" d="M26.474 35.414c-1.285 1.574-1.821 3.314-.939 5.396 2.624-.05 4.006-1.301 5.291-2.875zl11.03-13.512m4.352 2.521 2.537-3.108c-.796-1.75-2.354-2.788-4.352-2.521l-2.537 3.108c1.81.362 3.486 1.164 4.352 2.521l-11.03 13.512m-17.072-2.06c-.485 2.642-.41 3.608 1.157 6.593.153-1.495.077-2.064.642-2.955.993 1.162 1.95 2.138 3.662 2.12-2.292-.942-1.438-2.263-1.286-5.758m-1.893-7.554 2.718-16.85h4.8c5.154 0 8.8 3.301 8.143 7.372l-.34 2.106c-.657 4.071-5.368 7.372-10.521 7.372zm26.464-.35a5.747 5.747 0 0 1-5.76 5.76m-11.294.002-13.546.003a5.75 5.75 0 0 0-5.76 5.652m6.151 3.112h-1.03a5.75 5.75 0 0 1-5.76-5.761V11.26A5.75 5.75 0 0 1 11.26 5.5h25.48a5.75 5.75 0 0 1 5.761 5.76v5.888m0 9.287v10.304a5.75 5.75 0 0 1-5.761 5.76H21.303" style="-inkscape-stroke:none"/></svg>
