<?xml version="1.0" encoding="UTF-8"?>
<svg id="Layer_1" xmlns="http://www.w3.org/2000/svg" version="1.1" viewBox="0 0 48 48">
  <!-- Generator: Adobe Illustrator 29.0.1, SVG Export Plug-In . SVG Version: 2.1.0 Build 192)  -->
  <defs>
    <style>
      .st0 {
        fill: none;
        stroke: #fff;
        stroke-linecap: round;
        stroke-linejoin: round;
      }
    </style>
  </defs>
  <rect class="st0" x="22.9" y="6.6" width="19.6" height="19.6" rx="4.7" ry="4.7"/>
  <path class="st0" d="M26.9,33.7v7.7M26.9,38.3c0-1.1.9-1.9,1.9-1.9h0c1.1,0,1.9.9,1.9,1.9v3.2M12.3,38.3c0-1.1.9-1.9,1.9-1.9h0M12.3,36.3v5.1M40.6,38.3c0-1.1.9-1.9,1.9-1.9h0M40.6,36.3v5.1M22.9,34.7v5.8c0,.5.4,1,1,1h.3M21.9,36.3h2M37.4,40.5c-.3.6-1,1-1.7,1h0c-1.1,0-1.9-.9-1.9-1.9v-1.3c0-1.1.9-1.9,1.9-1.9h0c1.1,0,1.9.9,1.9,1.9v.6h-3.9M5.5,38.3c0-1.1.9-1.9,1.9-1.9h0c1.1,0,1.9.9,1.9,1.9v1.3c0,1.1-.9,1.9-1.9,1.9h0c-1.1,0-1.9-.9-1.9-1.9M5.5,41.4v-7.7M16.2,38.3c0-1.1.9-1.9,1.9-1.9s1.9.9,1.9,1.9v1.3c0,1.1-.9,1.9-1.9,1.9s-1.9-.9-1.9-1.9v-1.3Z"/>
</svg>