<?xml version="1.0" encoding="UTF-8"?><svg id="a" xmlns="http://www.w3.org/2000/svg" viewBox="0 0 48 48"><defs><style>.b{fill:none;stroke:#fff;stroke-linecap:round;stroke-linejoin:round;}</style></defs><path class="b" d="M20.3001,20.3435v-7.3999c0-4.0869-3.3131-7.4-7.3999-7.4s-7.4,3.3131-7.4,7.4,3.3131,7.3999,7.4,7.3999h22.1998c4.0869,0,7.4-3.3131,7.4-7.3999s-3.3131-7.4-7.4-7.4-7.3999,3.3131-7.3999,7.4l.0343,7.3999"/><path class="b" d="M20.2662,27.6565l.0338,7.3999c0,4.0869-3.3131,7.4-7.3999,7.4s-7.4-3.3131-7.4-7.4,3.3131-7.3999,7.4-7.3999h22.1999c4.0869,0,7.4,3.3131,7.4,7.3999s-3.3131,7.4-7.4,7.4-7.3999-3.3131-7.3999-7.4l.0006-7.3999"/></svg>