<svg xmlns="http://www.w3.org/2000/svg" xml:space="preserve" width="48" height="48" viewBox="0 0 12.7 12.7"><path fill="none" stroke="#fff" stroke-linecap="round" stroke-linejoin="round" stroke-width=".265" d="M7.653 8.166v2.195m0-1.29a.55.55 0 0 0 .55.549v0a.549.549 0 0 0 .548-.549v-.357a.549.549 0 0 0-.549-.548v0a.549.549 0 0 0-.549.548m-3.624.904V8.166l.686 1.454.686-1.452V9.62m1.675 0V8.166L5.979 9.62V8.166m2.046-1.201V5.51m-.548 0h1.097M7.031 6.688a.549.549 0 0 1-.476.277v0a.549.549 0 0 1-.549-.55V6.06a.55.55 0 0 1 .549-.549v0c.303 0 .548.246.548.55v.177H6.006m-.61.728V5.51h-.851c.003.436-.03.88-.183 1.291-.02.055-.041.11-.063.163m1.275.275v-.275H4.148v.275M9.2 3.135l-.407-.146a.396.396 0 0 0-.507.239l-.148.41a.396.396 0 0 0 .24.507l.406.146a.396.396 0 0 0 .508-.238l.147-.41a.396.396 0 0 0-.239-.508zm-3.251 0-.407-.146a.396.396 0 0 0-.508.239l-.147.41a.396.396 0 0 0 .239.507l.406.146a.396.396 0 0 0 .508-.238l.148-.41a.396.396 0 0 0-.24-.508zm.802 0 .407-.146a.396.396 0 0 1 .508.239l.147.41a.396.396 0 0 1-.239.507l-.406.146a.396.396 0 0 1-.508-.238l-.147-.41a.396.396 0 0 1 .238-.508zm-3.25 0 .406-.146a.396.396 0 0 1 .507.239l.148.41a.396.396 0 0 1-.24.507l-.406.146a.396.396 0 0 1-.508-.238l-.147-.41a.396.396 0 0 1 .24-.508zm-.987-1.68h7.673c.586 0 1.058.472 1.058 1.058v7.673c0 .587-.472 1.059-1.058 1.059H2.514a1.056 1.056 0 0 1-1.059-1.059V2.513c0-.586.472-1.058 1.059-1.058z" class="t"/></svg>
