<?xml version="1.0" encoding="UTF-8"?>
<!-- Created with Inkscape (http://www.inkscape.org/) -->
<svg version="1.1" viewBox="0 0 48 48" xml:space="preserve" xmlns="http://www.w3.org/2000/svg"><defs><style>.a{fill:none;stroke:#fff;stroke-linecap:round;stroke-linejoin:round;}</style></defs><g transform="matrix(1.7324 0 0 1.7324 -123.12 -18.61)" fill-opacity="0" stroke="#fff" stroke-linecap="round" stroke-linejoin="round" stroke-width=".57725"><path d="m81.783 33.565 13.885-6.7242-1.7295-3.5532-1.3104 0.61552"/><path d="m82.323 25.13 1.6076 3.1544"/><path d="m81.483 35.112-1.359 0.64082-1.8172-3.8537 5.1308-2.4194"/><path d="m86.891 21.312 2.375-1.125"/><path d="m92.377 25.246-2.8229 1.3811"/><path d="m90.965 25.936-2.6531-5.2974"/><path d="m77.185 23.992 2.8493-1.3834"/><path d="m81.267 14.6 4.3422-2.0535"/><path d="m80.711 15.992 2.4398 5.0445"/><path d="m80.251 21.313 2.4492-1.2088"/><path d="m86.952 12.628 3.0636 6.5434"/><path d="m84.547 19.156 4.4542-2.1514"/><path d="m76.211 23.289-1.3984 0.69531 1.4886 2.9939 5.0562-2.514"/><path d="m82.026 18.71 6.3559-3.0272"/><path d="m81.097 16.788 6.4091-2.9772"/><path d="m85.697 16.28 1.3037-0.59662"/><path d="m82.505 16.788 1.3037-0.64082"/></g></svg>
