<?xml version="1.0" encoding="UTF-8" standalone="no"?>
<svg
   viewBox="0 0 48 48"
   version="1.1"
   id="svg1"
   sodipodi:docname="digital_clock_alt.svg"
   inkscape:version="1.3.2 (091e20ef0f, 2023-11-25)"
   xml:space="preserve"
   xmlns:inkscape="http://www.inkscape.org/namespaces/inkscape"
   xmlns:sodipodi="http://sodipodi.sourceforge.net/DTD/sodipodi-0.dtd"
   xmlns="http://www.w3.org/2000/svg"
   xmlns:svg="http://www.w3.org/2000/svg"><sodipodi:namedview
     id="namedview1"
     pagecolor="#505050"
     bordercolor="#eeeeee"
     borderopacity="1"
     inkscape:showpageshadow="0"
     inkscape:pageopacity="0"
     inkscape:pagecheckerboard="0"
     inkscape:deskcolor="#505050"
     inkscape:zoom="8.90625"
     inkscape:cx="19.25614"
     inkscape:cy="19.480702"
     inkscape:window-width="1918"
     inkscape:window-height="1053"
     inkscape:window-x="0"
     inkscape:window-y="0"
     inkscape:window-maximized="1"
     inkscape:current-layer="svg1" /><defs
     id="defs1"><style
       id="style1">.a { fill:none;stroke:#fff;stroke-linecap:round;stroke-linejoin:round; }
</style></defs><path
     style="fill:none;stroke:#ffffff;stroke-width:1;stroke-linecap:round;stroke-linejoin:round"
     d="M 9.4999999,5.5000001 H 38.5 c 2.216,0 4,1.784 4,3.9999998 V 38.5 c 0,2.216 -1.784,4 -4,4 H 9.4999999 c -2.216,0 -4,-1.784 -4,-4 V 9.4999999 c 0,-2.2159998 1.784,-3.9999998 4,-3.9999998 z"
     id="path9" /><g
     id="g11"><path
       style="fill:none;stroke:#ffffff;stroke-width:1;stroke-linecap:round;stroke-linejoin:round"
       d="m 21.487112,27.299643 -6.147814,9.671685"
       id="path8" /><path
       style="fill:none;stroke:#ffffff;stroke-width:1;stroke-linecap:round;stroke-linejoin:round"
       d="m 18.456027,38.418176 v 0 c -2.337547,0 -4.207584,-1.929132 -4.207584,-4.179787 v -4.340547 c 0,-2.411416 1.870037,-4.179787 4.051748,-4.179787 v 0 c 2.337547,0 4.051747,1.929132 4.051747,4.179787 v 4.340547 c 0.311673,2.411416 -1.558364,4.179787 -3.895911,4.179787 z"
       id="path7" /></g><g
     id="g10"><path
       style="fill:none;stroke:#ffffff;stroke-width:1;stroke-linecap:round;stroke-linejoin:round"
       d="m 32.853723,27.299643 -6.147814,9.671685"
       id="path6" /><path
       style="fill:none;stroke:#ffffff;stroke-width:1;stroke-linecap:round;stroke-linejoin:round"
       d="m 29.822638,38.418176 v 0 c -2.337547,0 -4.207584,-1.929132 -4.207584,-4.179787 v -4.340547 c 0,-2.411416 1.870037,-4.179787 4.051748,-4.179787 v 0 c 2.337546,0 4.051747,1.929132 4.051747,4.179787 v 4.340547 c 0.311673,2.411416 -1.558364,4.179787 -3.895911,4.179787 z"
       id="path5" /></g><path
     style="fill:none;stroke:#ffffff;stroke-width:1;stroke-linecap:round;stroke-linejoin:round"
     d="m 14.515098,13.830927 c 0,-2.572177 2.337543,-4.6620697 4.986763,-4.1797869 1.714201,0.321522 3.116729,1.9291319 3.272565,3.6975039 0,1.286088 -0.311672,2.732937 -1.24669,3.536742 -1.714201,1.446849 -7.012638,5.626636 -7.012638,5.626636 h 8.259329"
     id="path4" /><g
     id="g9"><path
       style="fill:none;stroke:#ffffff;stroke-width:1;stroke-linecap:round;stroke-linejoin:round"
       d="m 26.004752,21.432552 c 0.935019,0.803805 1.714201,1.125327 3.895912,1.125327 h 0.467509 c 1.714201,0 3.116729,-1.446849 3.116729,-3.215221 v 0 c 0,-1.768371 -1.402528,-3.21522 -3.116729,-3.21522"
       id="path3" /><path
       style="fill:none;stroke:#ffffff;stroke-width:1;stroke-linecap:round;stroke-linejoin:round"
       d="M 26.004752,10.79694 C 26.939771,9.9931351 27.87479,9.6716131 29.900664,9.6716131 h 0.467509 c 1.714201,0 3.116729,1.4468489 3.116729,3.2152199 v 0 c 0,1.768372 -1.402528,3.215221 -3.116729,3.215221"
       id="path2" /><path
       style="fill:none;stroke:#ffffff;stroke-width:1;stroke-linecap:round;stroke-linejoin:round"
       d="m 28.030629,16.12744 h 2.337547"
       id="line2281" /></g></svg>
