<?xml version="1.0" encoding="UTF-8"?><svg xmlns="http://www.w3.org/2000/svg" viewBox="0 0 48 48"><defs><style>.c{fill:#161616;}.c,.d{stroke:#fff;stroke-linecap:round;stroke-linejoin:round;}.d{fill:none;}</style></defs><g id="a"><rect class="c" x="-2945.0374" y="-2683.6214" width="7784.0748" height="6228.3364"/></g><g id="b"><path class="d" d="M13.0069,5.5h10.9497c2.1903,0,3.9685,1.7782,3.9685,3.9685v33.0315H9.0384V9.4685c0-2.1903,1.7782-3.9685,3.9685-3.9685Z"/><rect class="d" x="12.331" y="9.1306" width="12.3015" height="9.3082"/><line class="d" x1="6.3251" y1="42.5" x2="30.6384" y2="42.5"/><path class="d" d="M27.9251,22.3107h4.667c.7608,0,1.3776.6168,1.3776,1.3776v10.3961c0,.7608.6168,1.3776,1.3776,1.3776h2.6907c.7608,0,1.3776-.6168,1.3776-1.3776V11.3482c0-.7608-.6168-1.3776-1.3776-1.3776h-4.9953"/><rect class="d" x="39.4155" y="12.7515" width="2.2595" height="4.5189"/></g></svg>