<?xml version="1.0" encoding="UTF-8"?>
<svg id="b" version="1.1" viewBox="0 0 48 48" xml:space="preserve" xmlns="http://www.w3.org/2000/svg"><defs><style>.c{fill:none;stroke:#fff;stroke-linecap:round;stroke-linejoin:round;}</style><style>.q{fill:#fff;}.r,.s{fill:none;stroke:#fff;stroke-linecap:round;stroke-linejoin:round;}.s{stroke-width:1.0050968px;}</style></defs><polyline class="r" transform="matrix(.65422 0 0 .65422 -68.929 5.2564)" points="131.31 32.65 131.31 24.65 127.02 30.024 132.32 30.024"/><path class="r" d="m9.5764 23.116c0-1.0701 0.96929-1.9138 2.0777-1.7007 0.72706 0.1397 1.3077 0.7686 1.38 1.5055 0.0537 0.54814-0.11966 1.089-0.49819 1.4213-0.70134 0.61555-2.9596 2.2744-2.9596 2.2744h3.4673" stroke-width=".65425"/><polyline class="r" transform="matrix(.65423 0 0 .65423 -69.867 5.2562)" points="158.18 32.65 162.48 24.65 157.18 24.65"/><path transform="matrix(1.1776 0 0 1.1776 -4.2747 -4.2056)" d="m21.51 20.451c-0.74803-1.4856-2.0128-2.7047-3.5249-3.3975-1.5121-0.69288-3.2612-0.85487-4.8749-0.45147-1.6136 0.4034-3.0808 1.3695-4.0889 2.6924-1.0081 1.3229-1.5504 2.9938-1.5114 4.6566 0.036461 1.5518 0.57687 3.0878 1.5201 4.3206s2.2845 2.156 3.7728 2.597c1.4883 0.44098 3.116 0.39742 4.5786-0.12254 1.4626-0.51995 2.7525-1.5136 3.6285-2.7951l6-8c0.87596-1.2815 2.1659-2.2752 3.6285-2.7951 1.4626-0.51995 3.0903-0.56352 4.5786-0.12254 1.4883 0.44098 2.8295 1.3642 3.7728 2.597s1.4837 2.7688 1.5201 4.3206c0.03907 1.6628-0.50323 3.3337-1.5114 4.6566-1.0081 1.3229-2.4753 2.289-4.0889 2.6924-1.6136 0.4034-3.3628 0.24141-4.8749-0.45147-1.5121-0.69288-2.7769-1.912-3.5249-3.3975" fill="none" stroke="#fff" stroke-linecap="round" stroke-linejoin="round" stroke-width=".84917"/></svg>
