<svg xmlns="http://www.w3.org/2000/svg" xml:space="preserve" viewBox="0 0 48 48"><defs><style>.a{fill:none;stroke:#fff;stroke-linecap:round;stroke-linejoin:round}</style></defs><path fill="none" stroke="#fff" stroke-linecap="round" stroke-linejoin="round" d="M45.5 24A21.5 21.5 0 0 1 24 45.5 21.5 21.5 0 0 1 2.5 24 21.5 21.5 0 0 1 24 2.5 21.5 21.5 0 0 1 45.5 24z"/><path fill="none" stroke="#fff" stroke-linecap="round" stroke-linejoin="round" d="M26.811 24A2.811 2.811 0 0 1 24 26.811 2.811 2.811 0 0 1 21.189 24 2.811 2.811 0 0 1 24 21.189 2.811 2.811 0 0 1 26.811 24z"/></svg>