<?xml version="1.0" encoding="UTF-8"?><svg id="a" xmlns="http://www.w3.org/2000/svg" viewBox="0 0 48 48"><defs><style>.d{fill:none;stroke:#fff;stroke-linecap:round;stroke-linejoin:round;}</style></defs><path class="d" d="m12.507 21.743v4.3786l-3.8311-2.2119a1.0781.62238 59.491 00-.76622.43335v2.6272a1.0781.62238 59.491 00.76622 1.3181l3.8311 2.2119v4.3786a1.0781.62238 59.491 00.76622 1.3181l2.2987 1.3271a1.0781.62238 59.491 00.76622-.43334v-4.3786l3.8311 2.2119a1.0781.62238 59.491 00.76622-.43335v-2.6272a1.0781.62238 59.491 00-.76622-1.3181l-3.8311-2.2119v-4.3786a1.0781.62238 59.491 00-.76622-1.3181l-2.2987-1.3271a1.0781.62238 59.491 00-.76622.43334z"/><path class="d" d="m33.706 32.405a2.1898 3.7926 30.002 01-2.6819 4.6449 2.1898 3.7926 30.002 01-2.6819-1.5484 2.1898 3.7926 30.002 012.6819-4.6449 2.1898 3.7926 30.002 012.6819 1.5484z"/><path class="d" d="m38.814 23.558a2.1898 3.7926 30.002 01-2.6819 4.6449 2.1898 3.7926 30.002 01-2.6819-1.5484 2.1898 3.7926 30.002 012.6819-4.6449 2.1898 3.7926 30.002 012.6819 1.5484z"/><path class="d" d="m41.155 11.786c1.2376.71453 2 2.035 2 3.4641l6.7e-5 17.5c0 1.4291-.7624 2.7496-2 3.4641l-15.156 8.75c-1.2376.71453-2.7624.71453-4 0l-15.155-8.75c-1.2376-.71453-2-2.035-2-3.4641l6.63e-5-17.5c2e-7-1.4291.7624-2.7496 2-3.4641l15.155-8.75c1.2376-.71453 2.7624-.71453 4 1e-7z"/></svg>
