<?xml version="1.0" encoding="UTF-8" standalone="no"?>
<!-- Created with Inkscape (http://www.inkscape.org/) -->

<svg
   width="48"
   height="48"
   viewBox="0 0 48 48"
   version="1.1"
   id="svg1"
   xml:space="preserve"
   inkscape:version="1.4.2 (f4327f4, 2025-05-13)"
   sodipodi:docname="DNDSync.svg"
   xmlns:inkscape="http://www.inkscape.org/namespaces/inkscape"
   xmlns:sodipodi="http://sodipodi.sourceforge.net/DTD/sodipodi-0.dtd"
   xmlns="http://www.w3.org/2000/svg"
   xmlns:svg="http://www.w3.org/2000/svg"><sodipodi:namedview
     id="namedview1"
     pagecolor="#ffffff"
     bordercolor="#000000"
     borderopacity="0.25"
     inkscape:showpageshadow="2"
     inkscape:pageopacity="0.0"
     inkscape:pagecheckerboard="true"
     inkscape:deskcolor="#d1d1d1"
     inkscape:document-units="mm"
     inkscape:zoom="17.318182"
     inkscape:cx="18.593176"
     inkscape:cy="22.548556"
     inkscape:window-width="2498"
     inkscape:window-height="1417"
     inkscape:window-x="2552"
     inkscape:window-y="-8"
     inkscape:window-maximized="1"
     inkscape:current-layer="svg1" /><defs
     id="defs1" /><path
     style="fill:#f9f9f9"
     d="m 24.13028,42.033142 c -0.27082,0 -0.385034,-0.695234 -0.385034,-2.34375 v -2.343751 h -0.880781 c -0.48443,0 -1.595264,-0.212178 -2.46852,-0.471507 -0.873256,-0.25933 -2.410499,-1.022187 -3.416094,-1.695239 -1.005596,-0.673053 -2.375268,-1.943261 -3.043716,-2.822686 -0.668447,-0.879426 -1.547354,-2.51359 -1.953125,-3.631477 -0.565435,-1.557758 -0.737766,-2.67473 -0.737766,-4.781886 0,-1.933064 0.185074,-3.287289 0.623345,-4.561146 0.34284,-0.99648 0.781934,-2.00287 0.975764,-2.236422 0.193831,-0.233552 0.522603,-0.424639 0.730604,-0.424639 0.208002,0 0.840733,0.575579 1.40607,1.279066 l 1.027886,1.279066 -0.506834,1.56932 c -0.278759,0.863126 -0.506834,2.240148 -0.506834,3.060049 0,0.8199 0.236609,2.223346 0.525798,3.118767 0.316821,0.98098 1.079104,2.24345 1.917948,3.176446 0.765683,0.851624 1.922831,1.819139 2.571441,2.150035 0.648609,0.330896 1.754282,0.730821 2.457051,0.888723 l 1.277763,0.287094 v -2.310532 c 0,-1.658315 0.111921,-2.310533 0.396488,-2.310533 0.218068,0 1.764944,1.37361 3.4375,3.052467 1.672557,1.678856 3.041013,3.263526 3.041013,3.521488 0,0.257962 -1.37361,1.837478 -3.052466,3.510035 -1.678857,1.672556 -3.225732,3.041012 -3.437501,3.041012 z m 3.144134,-3.689641 2.87286,-2.87286 -2.888514,-2.888514 -2.888514,-2.888514 v 2.107264 2.107264 l -1.328125,-0.0031 c -0.736426,-0.0017 -2.038467,-0.333811 -2.922554,-0.74547 -0.876936,-0.40833 -2.125713,-1.273701 -2.775059,-1.923047 -0.649346,-0.649346 -1.534229,-1.952994 -1.966406,-2.896994 -0.494171,-1.079411 -0.83554,-2.481089 -0.919868,-3.777026 -0.08666,-1.331734 0.03636,-2.609993 0.347764,-3.613608 l 0.481853,-1.552947 -0.688497,-0.790804 c -0.378673,-0.434942 -0.792929,-0.921254 -0.920568,-1.080693 -0.127639,-0.15944 -0.507869,0.333595 -0.844954,1.095632 -0.337085,0.762037 -0.754289,2.263581 -0.927121,3.336765 -0.206551,1.282565 -0.210143,2.620568 -0.01048,3.904369 0.167066,1.074219 0.728344,2.827521 1.247283,3.896227 0.518939,1.068705 1.604501,2.604076 2.412359,3.411934 0.807858,0.807858 2.354223,1.883157 3.436368,2.389553 1.082144,0.506397 2.699735,1.010089 3.594645,1.119317 l 1.627111,0.198595 0.09378,2.169735 0.09378,2.169735 z m 7.589522,-7.24786 c -0.201766,0 -0.9067,-0.55286 -1.56652,-1.228578 l -1.199674,-1.228578 0.538826,-1.346659 c 0.326836,-0.816845 0.538826,-2.189933 0.538826,-3.490054 0,-1.77098 -0.170384,-2.489494 -0.980632,-4.135341 -0.608904,-1.236859 -1.478187,-2.397326 -2.293199,-3.061351 -0.721912,-0.588173 -1.857084,-1.294976 -2.522605,-1.570673 -0.665522,-0.275698 -1.614741,-0.501268 -2.109376,-0.501268 h -0.899336 v 2.1875 c 0,1.597489 -0.110654,2.1875 -0.410255,2.1875 -0.22564,0 -1.772515,-1.386552 -3.4375,-3.081226 -1.664985,-1.694675 -3.027246,-3.237979 -3.027246,-3.429565 0,-0.191587 1.35318,-1.75816 3.007067,-3.4812748 1.653887,-1.7231147 3.200762,-3.1329358 3.437501,-3.1329358 0.326593,0 0.430433,0.5549197 0.430433,2.3002219 v 2.3002217 l 1.640625,0.192763 c 0.907225,0.106593 2.644292,0.687953 3.885838,1.30051 1.449605,0.71521 2.710857,1.631274 3.559264,2.585142 0.722728,0.812566 1.724424,2.345359 2.225991,3.406207 0.501567,1.060847 1.065218,2.853816 1.252558,3.984375 0.241222,1.455728 0.244851,2.633495 0.01244,4.036071 -0.1805,1.08928 -0.64048,2.706468 -1.022179,3.593751 -0.381699,0.887282 -0.859079,1.613241 -1.060844,1.613241 z m -0.126916,-0.9375 c 0.137412,0 0.462081,-0.507966 0.721488,-1.128813 0.259406,-0.620848 0.637164,-2.027098 0.83946,-3.125001 0.285889,-1.551576 0.282047,-2.46165 -0.01725,-4.08599 -0.211784,-1.149392 -0.754797,-2.872048 -1.206695,-3.828126 -0.451899,-0.956077 -1.533397,-2.449657 -2.403331,-3.319065 -0.869933,-0.869409 -2.358877,-1.960386 -3.308764,-2.424394 -0.949887,-0.464008 -2.567075,-0.947986 -3.59375,-1.075507 l -1.866683,-0.231857 -0.15625,-2.1748401 -0.15625,-2.1748402 -2.5,2.7323024 c -1.375001,1.5027659 -2.539539,2.8461539 -2.587865,2.9853069 -0.04833,0.139152 1.105481,1.505482 2.564013,3.036288 l 2.651877,2.783284 0.01411,-2.109375 0.01411,-2.109376 h 1.356337 c 0.889196,0 2.018757,0.331016 3.279666,0.961099 1.177235,0.588272 2.35732,1.490727 3.042097,2.326408 0.615322,0.75092 1.389473,2.077746 1.720334,2.948504 0.405713,1.067748 0.593827,2.319731 0.577793,3.845468 -0.01308,1.24425 -0.207001,2.754461 -0.430944,3.356023 l -0.407168,1.09375 0.801909,0.859375 c 0.44105,0.472657 0.914337,0.859376 1.05175,0.859376 z m -10.772477,-4.44674 -6.499453,0.08451 0.0932,-1.959511 0.0932,-1.959512 h 6.406251 6.406251 v 1.875001 1.875 z m 0.0932,-0.553261 h 5.937501 v -1.40625 -1.40625 h -5.937501 -5.937501 v 1.40625 1.40625 z"
     id="path2"
     sodipodi:nodetypes="sscsssssssssscsssssscsssssscccccccssssscsssssssssccccsscsssssscssssssscssssssssssssssssscccssscccsssssscssscccccccccccccccccc" /></svg>
