<svg xmlns="http://www.w3.org/2000/svg" xml:space="preserve" id="svg1" version="1.1" viewBox="0 0 48 48"><defs id="defs1"><style id="style1">.a{fill:none;stroke:#fff;stroke-linecap:round;stroke-linejoin:round}</style></defs><path id="path13382" d="M17.438 21.247c-.53-2.643-1.326-7.643-1.514-10.874-.07-1.206.38-2.572 1.634-2.596 1.266-.025 1.944.815 2.235 3.143.406 3.241.802 6.077 1.156 9.721" style="fill:none;stroke:#fff;stroke-width:1;stroke-linecap:round;stroke-linejoin:round;stroke-opacity:1"/><path id="path13380" d="M23.079 20.609c.605-6.475.79-9.05 1.77-13.467.21-.953 1.145-1.787 2.15-1.619 1.787.298 1.487 1.87 1.416 2.862-.312 4.306-.757 7.918-1.376 12.795" style="fill:none;stroke:#fff;stroke-width:1;stroke-linecap:round;stroke-linejoin:round;stroke-opacity:1"/><path id="path13378" d="M28.747 21.843c1.25-4.204 2.148-7.297 3.738-11.032.65-1.527 2.054-1.78 2.778-1.252.79.577.562 1.833.313 2.814-.958 3.784-1.423 5.953-3.283 11.015" style="fill:none;stroke:#fff;stroke-width:1;stroke-linecap:round;stroke-linejoin:round;stroke-opacity:1"/><path id="path13376" d="M33.73 24.992c1.352-2.372 3.01-4.656 4.6-6.96.612-.886 1.671-1.017 2.262-.318.439.52.175 1.74-.346 2.729-1.115 2.12-2.44 4.668-4.64 7.115" style="fill:none;stroke:#fff;stroke-width:1;stroke-linecap:round;stroke-linejoin:round;stroke-opacity:1"/><path id="path13374" d="M13.434 38.751c-3.084-2.554-4.051-5.194-5.875-8.153-.701-1.136-.398-2.796.732-3.045.851-.187 1.887.542 2.752 1.815.728 1.074 1.432 2.325 3 3.683" style="fill:none;stroke:#fff;stroke-width:1;stroke-linecap:round;stroke-linejoin:round;stroke-opacity:1"/><path id="path13353" d="M18.643 28.697c-1.242 3.239-1.78 6.245-1.58 9.786.134 2.39 1.22 3.206 3.14 3.626 7.076 1.548 12.184-1.623 12.951-7.303.956-7.083-6.684-12.976-16.496-9.585" style="fill:none;stroke:#fff;stroke-width:1;stroke-linecap:round;stroke-linejoin:round;stroke-opacity:1"/></svg>