<?xml version="1.0" encoding="UTF-8"?><svg id="a" xmlns="http://www.w3.org/2000/svg" viewBox="0 0 48 48"><defs><style>.d{fill:none;stroke:#fff;stroke-linecap:round;stroke-linejoin:round;}</style></defs><rect class="d" x="5.5" y="5.5" width="37" height="37" rx="4" ry="4"/><path class="d" d="m24 42.5s-5.5184-8.9418 0-18.5 0-18.5 0-18.5"/><path class="d" d="m16 42.5s-5.5184-8.9418 0-18.5 0-18.5 0-18.5"/><path class="d" d="m32 42.5s-5.5184-8.9418 0-18.5 0-18.5 0-18.5"/><path class="d" d="m5.5 25.5s6.1688-7.7258 18.5-1.5 18.5-1.5 18.5-1.5"/><path class="d" d="m5.5 15s6.1688-7.7258 18.5-1.5 18.5-1.5 18.5-1.5"/><path class="d" d="m5.5 36s6.1688-7.7258 18.5-1.5 18.5-1.5 18.5-1.5"/></svg>
