<?xml version="1.0" encoding="UTF-8" standalone="no"?>
<!-- Generator: Adobe Illustrator 26.0.3, SVG Export Plug-In . SVG Version: 6.00 Build 0)  -->

<svg
   version="1.1"
   id="Layer_1"
   x="0px"
   y="0px"
   viewBox="0 0 48 48"
   style="enable-background:new 0 0 48 48;"
   xml:space="preserve"
   sodipodi:docname="dnv.svg"
   inkscape:version="1.2.2 (b0a8486541, 2022-12-01)"
   xmlns:inkscape="http://www.inkscape.org/namespaces/inkscape"
   xmlns:sodipodi="http://sodipodi.sourceforge.net/DTD/sodipodi-0.dtd"
   xmlns="http://www.w3.org/2000/svg"
   xmlns:svg="http://www.w3.org/2000/svg"><defs
   id="defs9401" /><sodipodi:namedview
   id="namedview9399"
   pagecolor="#000000"
   bordercolor="#000000"
   borderopacity="0.25"
   inkscape:showpageshadow="2"
   inkscape:pageopacity="0"
   inkscape:pagecheckerboard="0"
   inkscape:deskcolor="#d1d1d1"
   showgrid="false"
   inkscape:zoom="8.765387"
   inkscape:cx="10.096531"
   inkscape:cy="27.893805"
   inkscape:window-width="1920"
   inkscape:window-height="1163"
   inkscape:window-x="0"
   inkscape:window-y="0"
   inkscape:window-maximized="1"
   inkscape:current-layer="Layer_1" />
<style
   type="text/css"
   id="style9392">
	.st0{fill:none;stroke:#FFFFFF;stroke-linecap:round;stroke-linejoin:round;}
</style>
<path
   class="st0"
   d="M12.7,4.5h-2.3c-1.1,0-2,0.9-2,2v35c0,1.1,0.9,2,2,2h2.3"
   id="path9394" />
<path
   class="st0"
   d="M12.7,4.5v39h24.9c1.1,0,2-0.9,2-2v-35c0-1.1-0.9-2-2-2H12.7z"
   id="path9396" />
<path
   class="r"
   d="m 15.5,27 v -8 h 1.8 c 1.93299,0 3.5,1.567 3.5,3.5 v 1 c 0,1.933 -1.56701,3.5 -3.5,3.5 z"
   id="path13098"
   style="fill:none;stroke:#ffffff;stroke-linecap:round;stroke-linejoin:round" /><polyline
   class="r"
   points="217.20430529 48.65004656 217.20430529 40.65004656 222.50430529 48.65004656 222.50430529 40.65004656"
   id="polyline12924"
   style="fill:none;stroke:#ffffff;stroke-linecap:round;stroke-linejoin:round"
   transform="translate(-194.07897,-21.650047)" /><polyline
   class="r"
   points="302.48380544 40.65004656 299.83380917 48.65004656 297.18380544 40.65004656"
   id="polyline12934"
   style="fill:none;stroke:#ffffff;stroke-linecap:round;stroke-linejoin:round"
   transform="translate(-266.33962,-21.650047)" /></svg>
