<?xml version="1.0" encoding="UTF-8"?><svg id="a" xmlns="http://www.w3.org/2000/svg" viewBox="0 0 48 48"><defs><style>.b{fill:none;stroke:#fff;stroke-linecap:round;stroke-linejoin:round;}</style></defs><path class="b" d="m31.461 16.539c-3.9002 2.2518-9.3566 5.114-10.785 6.5423-1.1716 1.1716-1.1716 3.0711 0 4.2426 1.1716 1.1716 3.0711 1.1716 4.2426 0 1.5089-1.5089 4.3154-6.9278 6.5423-10.785z"/><path class="b" d="m24 2.5215c-5.5097 0-11.02 2.0919-15.203 6.2754-8.3669 8.367-8.3669 22.039 0 30.406a3.5 3.5 0 004.9492 0 3.5 3.5 0 000-4.9492c-5.6919-5.6919-5.6919-14.816 0-20.508 5.6919-5.6919 14.816-5.6919 20.508 0 5.6919 5.6919 5.6919 14.816 0 20.508a3.5 3.5 0 000 4.9492 3.5 3.5 0 004.9492 0c8.367-8.367 8.367-22.039 0-30.406-4.1835-4.1835-9.6935-6.2754-15.203-6.2754z"/><path class="b" d="m39.203 8.7969-4.9492 4.9492"/></svg>
