<?xml version="1.0" encoding="UTF-8"?><svg id="b" xmlns="http://www.w3.org/2000/svg" viewBox="0 0 48 48"><defs><style>.d{fill:none;stroke:#fff;stroke-linecap:round;stroke-linejoin:round;}</style></defs><g><path class="d" d="m18.52 30.877c1.0789 1.4046 2.4317 1.9277 4.3138 1.9277h2.6047c2.424 0 4.389-1.9693 4.389-4.3985s-1.965-4.3985-4.389-4.3985h-2.878c-2.424 0-4.389-1.9693-4.389-4.3985s1.965-4.3985 4.389-4.3985h2.6047c1.8821 0 3.235.5232 4.3138 1.9277"/><line class="d" x1="24" x2="24" y1="34.996" y2="13.004"/></g><path class="d" d="m31.353 44.203a21.5 21.5 0 01-24.121-6.746 21.5 21.5 0 01-1.3654-25.009 21.5 21.5 0 0123.243-9.3319 21.5 21.5 0 0116.308 19.01"/></svg>
