<svg xmlns="http://www.w3.org/2000/svg" xml:space="preserve" width="48" height="48" viewBox="0 0 12.7 12.7"><path fill="none" stroke="#fff" stroke-linecap="round" stroke-linejoin="round" stroke-width=".265" d="m4.864 3.207-.518.718-1.428-1.823h2.021l-.658.537.583.568m-1.046 1.62-1.194-.422-.138.89-.636-1.824 2.3.728-.332.629m-1.17 1.935-1.457-.82 2.35-.79-.088.777-1.022.218.218.615m.93-.095 1.082 3.93L2.258 7.48l1.321-.812m4.256-3.46.519.717 1.428-1.823H7.761l.658.537-.583.568m1.046 1.62 1.194-.422.138.89.636-1.824-2.3.728.332.629m1.169 1.935 1.458-.82-2.35-.79.088.778 1.022.217-.218.615m-.93-.095-1.082 3.93 2.403-3.118-1.322-.812m-3.9-1.625.367 1.11h.25l.418-1.264h.19l.417 1.264h.251l.367-1.11m-1.453 3.61h.646m-.846-.651h1.046m-1.25-.662h1.454m-1.629-.568h1.804M6.76 8.935c1.317-.768 2-1.82 2.029-3.132L6.35 4.389 3.91 5.803c.03 1.313.712 2.364 2.029 3.132m1.778-4.211c.221.128.305.105.362 0 0-.96-.778-1.738-1.73-1.738-.95 0-1.728.778-1.728 1.738.056.105.14.128.361 0l1.368-.82z"/></svg>
