<svg xmlns="http://www.w3.org/2000/svg" xml:space="preserve" width="48" height="48" viewBox="0 0 12.7 12.7"><path fill="none" stroke="#fff" stroke-linecap="round" stroke-linejoin="round" stroke-width=".265" d="M8.105 6.102v1.694M6.927 5.332v2.464M5.75 4.53v3.267M4.571 5.731v2.065m.777-4.74a2.235 2.235 0 0 0-2.215 1.956A1.956 1.956 0 0 0 1.191 6.97c0 1.08.875 1.957 1.954 1.957h2.259l.969.718.969-.718h2.502a1.667 1.667 0 0 0 .366-3.295 1.995 1.995 0 0 0-3.037-1.628 2.233 2.233 0 0 0-1.825-.947z"/></svg>
