<?xml version="1.0" encoding="UTF-8"?><svg id="a" xmlns="http://www.w3.org/2000/svg" viewBox="0 0 48 48"><defs><style>.d{fill:none;stroke:#fff;stroke-linecap:round;stroke-linejoin:round;}.c{fill:#fff;stroke-width:0px;}</style></defs><rect class="d" x="5.5" y="5.5" width="37" height="37" rx="4" ry="4"/><rect class="d" x="19.403" y="29.585" width="3.5838" height="4.7133" rx="1.7919" ry="1.7786"/><path class="d" d="m10.485 31.364c0-0.98232 0.80223-1.7786 1.7919-1.7786s1.7919 0.79628 1.7919 1.7786v2.9347"/><line class="d" x1="10.485" x2="10.485" y1="29.585" y2="34.299"/><path class="d" d="m14.069 31.364c0-0.98232 0.80223-1.7786 1.7919-1.7786s1.7919 0.79628 1.7919 1.7786v2.9347"/><ellipse class="c" cx="30.251" cy="27.407" rx=".62716" ry=".62251"/><line class="d" x1="30.251" x2="30.251" y1="29.585" y2="34.299"/><line class="d" x1="32.181" x2="32.181" y1="27.185" y2="34.299"/><path class="d" d="m37.28 33.401c-0.30865 0.53616-0.8903 0.89757-1.557 0.89757-0.98966 0-1.7919-0.79628-1.7919-1.7786v-1.1561c0-0.98232 0.80223-1.7786 1.7919-1.7786 0.98966 0 1.7919 0.79628 1.7919 1.7786v0.57804h-3.5838"/><path class="d" d="m24.737 31.364c0-0.98232 0.80223-1.7786 1.7919-1.7786 0.98966 0 1.7919 0.79628 1.7919 1.7786v1.1561c0 0.98232-0.80223 1.7786-1.7919 1.7786-0.98966 0-1.7919-0.79628-1.7919-1.7786"/><line class="d" x1="24.737" x2="24.737" y1="34.299" y2="27.184"/><path class="d" d="m20.96 22.517c0.59862 0.79005 1.3492 1.0842 2.3934 1.0842h1.4452c1.3449 0 2.4351-1.1052 2.4351-2.4686v-0.01064c0-1.3634-1.0902-2.4686-2.4351-2.4686h-1.5942c-1.3464 0-2.4377-1.1065-2.4377-2.4712 0-1.3678 1.0938-2.4767 2.4431-2.4767h1.4373c1.0442 0 1.7948 0.29428 2.3934 1.0842"/><path class="d" d="m10.537 23.6v-9.8958h2.1963c2.3586 0 4.2707 1.9383 4.2707 4.3294v1.237c0 2.3911-1.912 4.3294-4.2707 4.3294z"/><path class="d" d="m35.022 18.652c1.3478 0 2.4404 1.1076 2.4404 2.4739 0 1.3664-1.0926 2.4739-2.4404 2.4739h-4.0266v-9.8958h4.0266c1.3478 0 2.4404 1.1076 2.4404 2.4739 0 1.3664-1.0926 2.4739-2.4404 2.4739z"/><line class="d" x1="35.022" x2="31" y1="18.652" y2="18.652"/></svg>
