<?xml version="1.0" encoding="UTF-8" standalone="no"?>
<svg
   version="1.1"
   x="0%"
   y="0%"
   width="100%"
   height="100%"
   viewBox="0 0 48.0 48.0"
   enable-background="new 0 0 48.0 48.0"
   xml:space="preserve"
   id="svg11"
   xmlns="http://www.w3.org/2000/svg"
   xmlns:svg="http://www.w3.org/2000/svg"><defs
   id="defs11" />&#10;	<path
   stroke="#ffffff"
   d="m 9.426788,34.312186 v 4.694677 q 0,3.493137 3.139227,3.493137 h 4.702636 7.755008 4.702636 q 3.139228,0 3.139228,-3.493137 V 34.312186 19.447774 14.753097 q 0,-3.493137 -3.139228,-3.493137 h -4.702636 -7.755008 -4.702636 q -3.139227,0 -3.139227,3.493137 v 4.694677 z"
   id="path1"
   style="fill:none;stroke-width:1;stroke-linecap:round;stroke-linejoin:round;stroke-dasharray:none" />&#10;	<path
   stroke="#ffffff"
   d="M 15.060025,11.074155 V 9.0550726 q 0,-3.4931372 3.151635,-3.4931372 h 4.702637 l 7.792231,-0.061935 h 4.702637 q 3.164043,0 3.139227,3.4807502 v 4.7070634 l 0.02482,15.508537 v 4.694677 q 0,3.133913 -3.499059,3.133913 h -2.022506"
   id="path2"
   style="fill:none;stroke-width:1;stroke-linecap:round;stroke-linejoin:round;stroke-dasharray:none" />&#10;	<path
   stroke="#ffffff"
   d="m 21.139951,22.07382 c 2.667723,0 4.826717,2.15534 4.826717,4.80616 0,2.663207 -2.158994,4.80616 -4.826717,4.80616 -2.655314,0 -4.814308,-2.142953 -4.814308,-4.80616 0,-2.65082 2.158994,-4.80616 4.814308,-4.80616 z"
   id="path3"
   style="fill:none;stroke-width:1;stroke-linecap:round;stroke-linejoin:round;stroke-dasharray:none" />&#10;	<path
   stroke="#ffffff"
   d="m 21.139951,17.317208 v 3.282558"
   id="path4"
   style="fill:none;stroke-width:1;stroke-linecap:round;stroke-linejoin:round;stroke-dasharray:none" />&#10;	<path
   stroke="#ffffff"
   d="m 21.139951,33.308838 v 3.282558"
   id="path5"
   style="fill:none;stroke-width:1;stroke-linecap:round;stroke-linejoin:round;stroke-dasharray:none" />&#10;	<path
   stroke="#ffffff"
   d="M 14.749825,26.87998 H 11.47411"
   id="path6"
   style="fill:none;stroke-width:1;stroke-linecap:round;stroke-linejoin:round;stroke-dasharray:none" />&#10;	<path
   stroke="#ffffff"
   d="M 30.793384,26.87998 H 27.505261"
   id="path7"
   style="fill:none;stroke-width:1;stroke-linecap:round;stroke-linejoin:round;stroke-dasharray:none" />&#10;	<path
   stroke="#ffffff"
   d="m 14.21628,33.767158 2.332707,-2.316371"
   id="path8"
   style="fill:none;stroke-width:1;stroke-linecap:round;stroke-linejoin:round;stroke-dasharray:none" />&#10;	<path
   stroke="#ffffff"
   d="m 25.656468,22.420656 2.320298,-2.316371"
   id="path9"
   style="fill:none;stroke-width:1;stroke-linecap:round;stroke-linejoin:round;stroke-dasharray:none" />&#10;	<path
   stroke="#ffffff"
   d="M 16.660659,22.284399 14.327953,19.968028"
   id="path10"
   style="fill:none;stroke-width:1;stroke-linecap:round;stroke-linejoin:round;stroke-dasharray:none" />&#10;	<path
   stroke="#ffffff"
   d="M 27.976766,33.767158 25.656468,31.450787"
   id="path11"
   style="fill:none;stroke-width:1;stroke-linecap:round;stroke-linejoin:round;stroke-dasharray:none" />&#10;</svg>
