<?xml version="1.0" encoding="UTF-8" standalone="no"?>
<svg
   enable-background="new 0 0 48.0 48.0"
   version="1.1"
   viewBox="0 0 48 48"
   xml:space="preserve"
   id="svg3"
   xmlns="http://www.w3.org/2000/svg"
   xmlns:svg="http://www.w3.org/2000/svg"><defs
     id="defs3" /><g
     stroke="#ffffff"
     id="g3"
     transform="matrix(1.2408012,0,0,1.238701,-5.8102488,-5.6483084)"
     style="stroke-width:0.806614">&#10;	<path
   d="m 12.28,32.26 v 3.79 q 0,2.82 2.53,2.82 h 3.79 6.25 3.79 q 2.53,0 2.53,-2.82 v -3.79 -12 -3.79 q 0,-2.82 -2.53,-2.82 H 24.85 18.6 14.81 q -2.53,0 -2.53,2.82 v 3.79 z"
   style="fill:none;stroke-width:0.806614;stroke-linecap:round;stroke-linejoin:round"
   id="path1" />&#10;	<path
   d="m 16.82,13.5 v -1.63 q 0,-2.82 2.54,-2.82 h 3.79 L 29.43,9 h 3.79 q 2.55,0 2.53,2.81 v 3.8 l 0.02,12.52 v 3.79 q 0,2.53 -2.82,2.53 h -1.63"
   style="fill:none;stroke-width:0.806614;stroke-linecap:round;stroke-linejoin:round"
   id="path2" />&#10;	<path
   d="m 20.14,21.03 a 5.49,5.49 -136.68 1 0 6.3,8.78 c -6.3,0 -8.32,-3.56 -6.3,-8.78 z"
   style="fill:none;stroke-width:0.806614;stroke-linecap:round;stroke-linejoin:round"
   id="path3" />&#10;</g></svg>
