<svg xmlns="http://www.w3.org/2000/svg" viewBox="0 0 48 48"><path d="M19.133 47.406c-3.027-1.944-4.677-4.248-4.677-6.624 0-3.261 2.88-5.924 7.809-8.071a14.485 14.485 0 1 1 22.279-3.472c1.255.052 1.721.177 2.92.299m-24.21 18.137c-3.354-3.747-4.137-7.05-3.043-11.873m.538 7.531c.824-.753 2.278-.863 3.031-.182a205 205 0 0 0 4.797 4.186q1.021.865 2.533-.861a13 13 0 0 1 3.861-3q2.16-1.113 4.82.614 1.453.943 3.443-.392 1.799-1.207 2.603-3.651c.377-1.147.223-1.874 1.684-2.293m-2.877 9.804c1.029-.765 2.103-1.784 2.95-3.095m-6.392-24.946c0 1.508-.54 2.953-1.503 4.02-.962 1.065-2.267 1.664-3.628 1.664-1.36 0-2.666-.599-3.628-1.665s-1.503-2.512-1.503-4.019.54-2.953 1.503-4.02c.962-1.065 2.267-1.664 3.628-1.664 1.36 0 2.666.599 3.628 1.665s1.503 2.512 1.503 4.019m-3.096.134c0 .745-.21 1.46-.583 1.986-.373.527-.88.823-1.407.823-.528 0-1.034-.296-1.407-.823s-.583-1.241-.583-1.986.21-1.46.583-1.986c.373-.527.88-.823 1.407-.823.528 0 1.034.296 1.407.823s.583 1.241.583 1.986m-11.105 1.813c0 2.907-1.703 5.264-3.803 5.264s-3.803-2.357-3.803-5.264 1.703-5.264 3.803-5.264 3.803 2.357 3.803 5.264m-2.294.125c0 .69-.155 1.351-.432 1.84-.276.487-.651.761-1.042.761-.814 0-1.474-1.165-1.474-2.601s.66-2.601 1.474-2.601c.39 0 .766.274 1.042.762.277.488.432 1.15.432 1.839m1.358 8.595q.04-3.174 2.09-3.968 2.904-1.125 5.185 1.216.584.599-.528 1.588-2.357 2.093-6.747 1.164m2.672 3.387c2.214.67 3.729.325 4.566-1.192.038 1.594-.623 2.479-1.205 2.912q-.714.53-1.774-.132a4.8 4.8 0 0 1-1.587-1.588m-.396-3.148c.749.82.802 2.186.528 3.042m4.419-4.657.263-.911-.296 4.824m-22.582 3.123a4.345 4.345 0 1 1-8.69 0 4.345 4.345 0 0 1 8.69 0m-8.304 7.172c.723.948 1.826 1.6 3.654 1.6h.305a4.344 4.344 0 0 0 4.345-4.345v-4.427" style="stroke:#fff;stroke-linejoin:round;stroke-linecap:round" fill="none"/></svg>