<svg xmlns="http://www.w3.org/2000/svg" viewBox="0 0 48 48"><path style="fill:none;fill-opacity:0;stroke-linejoin:round;stroke:#fff" d="M1.675 48.337c-1.459-6.69.944-13.37 6.459-19.453L6.38 27.399c-1.666-6.357-1.227-12.864 3.771-17.087 3.987-3.368 6.379-3.801 11.58-4.714 6.073-1.066 10.954.114 15.367 2.109 2.031-1.421 3.855-2.021 5.931-1.8q1.346.144.965 2.529-.262 1.645-1.764 2.829-4.042 1.946-8.751 3.161 4.833 3.77 4.958 10.715c.069 3.795-1.289 7.208-4.065 10.505 1.255.313 2.379.534 3.266 1.066q.556.333.632 1.131-.715 1.198-2.362 1.198l.732 3.195q1.38.653 1.431 1.371.522 2.034-.4 4.393"/><ellipse style="fill:#d8d8d8;transform-origin:26.724px 9.188px 0;fill-opacity:0;stroke-linejoin:round;stroke:#fff" cx="26.724" cy="9.188" rx="1.298" ry="1.713" transform="rotate(-22.363 -.453 .523)" fill="none"/><path style="fill:none;fill-opacity:0;stroke-linejoin:round;stroke:#fff" d="M12.971 15.485q2.914-.624 6.079-.437 1.302-.066 1.184 1.59a70 70 0 0 1-1.059 8.137q-.194 1.021-1.809 1.029-3.01.014-5.424-1.31-.711-.39-.624-1.496.284-3.607.717-6.796.08-.583.936-.717Z"/><circle style="fill:#d8d8d8;fill-opacity:0;stroke-linejoin:round;stroke:#fff" cx="28.375" cy="22.923" fill="none" r="5"/><path style="fill:none;fill-opacity:0;stroke-linejoin:round;stroke:#fff" d="M30.275 18.567q-3.109 1.195-3.488 4.285-.357 2.909 3.45 4.739m11.222-15.583q4.512 5.555 4.398 12.398-.124 7.455-8.454 12.284"/><path style="fill:none;fill-opacity:0;stroke-linejoin:round;stroke:#fff" d="m38.313 25.24 4.398 3.109-5.081 1.744m-.562-22.426c-3.665 3.247-9.206 6.265-16.668 8.123 5.111.124 9.401-.364 13.382-1.37m1.178 21.372c-5.618-1.204-11.713-4.516-16.483-10.085"/><path style="fill:none;fill-opacity:0;stroke-linejoin:round;stroke:#fff" d="M17.842 26.049c3.81 8.565 10.339 12.846 18.383 13.009M1.214 43.292c3.011 1.953 9.429 4.496 13.148 5.682M5.506 32.141c8.378 5.044 18.881 8.216 30.976 9.248"/><path style="fill:none;fill-opacity:0;stroke-linejoin:round;stroke:#fff" d="m25.596 48.027.045.725c0-2.867 1.047-6.428 2.699-8.469m2.144 8.354c-.818-1.375-.795-3.318.614-4.466l7.09 1.091M8.216 29.094q7.897 4.368 17.38 6.698"/></svg>