<svg xmlns="http://www.w3.org/2000/svg" viewBox="0 0 48 48"><path style="fill:none;stroke-linecap:round;stroke-linejoin:round;fill-opacity:0;stroke:#fff" d="M38.162 43.501c1.693-3.958 1.578-7.473-.258-10.928q-1.581-2.98-4.318-5.183 2.474-6.264 1.187-9.23-2.562-5.907-7.503-8.313a7 7 0 0 0-1.018-.4l.199-1.331-1.35.417-.278-2.929-4.627 2.661-.555-1.251q-1.479.119-2.443 1.072-4.369 4.327-7.292 9.904-2.2 4.197 1.22 9.733c-3.712-.591-5.929-.304-7.764.899-.65.425-.431 1.46.218 2.586l8.829 6.581m-1.117 5.7c-1.156-2.565-1.594-4.786-.917-7.184"/><path style="fill:none;stroke-linecap:round;stroke-linejoin:round;fill-opacity:0;stroke:#fff" d="M15.631 29.711a11.9 11.9 0 0 0-4.381-1.784m26.656 4.434q2.996-3.452 6.711-5.748 2.299-1.948-.554-2.79-4.552-1.345-9.453.913"/><path style="fill:none;stroke-linejoin:round;fill-opacity:0;stroke:#fff" d="m16.255 8.99-1.449-3.386-1.296 1.252-4.384-2.593L8.02 9.144l-3.278-.42L5.81 12.46l-2.288.61 6.328 5.185"/><ellipse style="fill:#d8d8d8;stroke-linejoin:round;fill-opacity:0;stroke:#fff" cx="17.665" cy="19.475" rx="3.926" ry="4.498" fill="none"/><ellipse style="fill:#d8d8d8;stroke-width:1px;stroke-linejoin:round;fill-opacity:0;stroke:#fff" cx="17.494" cy="19.318" rx="1.862" ry="2.133" fill="none"/><path style="fill:none;stroke-linejoin:round;fill-opacity:0;stroke:#fff" d="M31.859 13.38q-2.584-.665-2.599 1.595-.016 2.938 2.145 5.468.63.737 1.892.428 1.296-.318 1.313-2.774"/><path style="fill:none;stroke-linejoin:round;fill-opacity:0;stroke:#fff" d="M29.438 15.751q1.487-1.021 2.32 1.034c.327.809-.059 1.733-.958 2.573m-6.499 1.897q-.081-1.38 1.009-2.009 1.164-.668 2.638.504 1.278 1.016 0 1.176a56 56 0 0 1-3.647.329Zm.768 3.787q-.113.776.768 1.491 1.263.316 2.47-.994-1.92-.007-3.238-.497Z"/><path style="fill:none;stroke-linejoin:round;fill-opacity:0;stroke:#fff" d="M24.317 21.205c-.241 1.085.13 2.678.752 3.762m2.816-3.825.063.063c-.007 1.37-.047 2.865-.514 4.214"/></svg>