<svg xmlns="http://www.w3.org/2000/svg" viewBox="0 0 48 48"><path d="M43.637 40.823c0 1.229-.121 2.431-.351 3.592m-36.118 0a18.6 18.6 0 0 1-.35-3.592c0-3.131.782-6.081 2.161-8.662a15.35 15.35 0 0 1-4.17-10.515c0-8.474 6.87-15.344 15.344-15.344s15.343 6.87 15.343 15.344c0 1.227-.146 2.44-.431 3.614 5.152 3.263 8.572 9.013 8.572 15.563m-15.108-24.79a5.1 5.1 0 0 1-1.216 3.31l-.123.001a5.114 5.114 0 0 1-3.899-8.424l.123-.002a5.115 5.115 0 0 1 5.115 5.115m-5.253-5.115c-4.076 0-6.769 4.413-4.731 7.944 1.797 3.111 6.813 3.366 8.768.482m6.729-4.554h6.025l-4.633 4.193" style="stroke:#fff;stroke-width:1px;fill-opacity:0;stroke-linejoin:round;stroke-linecap:round;fill:transparent" fill="none"/></svg>