<svg viewBox="0 0 48 48" xmlns="http://www.w3.org/2000/svg"><path d="M16.892 47.512c.228-2.765 1.281-4.853 2.894-6.744a8.465 8.465 0 1 1 14.349-.901c2.056 1.932 3.392 4.446 3.69 7.612" style="fill-opacity:0;stroke:#fff;stroke-linecap:round;stroke-linejoin:round;fill:none"/><path style="fill-opacity:0;stroke:#fff;stroke-linejoin:round;fill:none" d="m34.594 32.846 2.921 1.037-2.389 1.54"/><circle style="fill-opacity:0;stroke:#fff;stroke-linejoin:round;fill:none" cx="28.997" cy="33.261" r="2.821"/><path style="fill-opacity:0;stroke:#fff;stroke-linejoin:round;fill:none" d="M28.446 30.44c-.546 2.611.388 4.23 2.938 4.321"/><path style="fill-opacity:0;stroke:#fff;stroke-linecap:round;stroke-linejoin:round;fill:none" d="m.512 6.995 7.751 4.672q5.135-.709 8.611 2.939 1.388 1.458 4.598.242l-3.25 8.264q-3.25 5.612-8.99 5.483-3.034-.796-5.36-3.13l-3.385-.022m2.008-3.697c.046.016-1.883-.512-2.008-.554"/><path style="fill-opacity:0;stroke:#fff;stroke-linejoin:round;fill:none" d="m9.123 28.595-1.749 2.027-.463-2.828"/><circle style="fill-opacity:0;stroke:#fff;stroke-width:1px;stroke-linejoin:round;fill:none" cx="22.123" cy="-13.158" transform="rotate(94.805)" r="2.898"/><path style="fill-opacity:0;stroke:#fff;stroke-width:1px;stroke-linejoin:round;fill:none" d="M14.147 22.596c-2.625-.784-4.363.033-4.675 2.634"/><path style="fill-opacity:0;stroke:#fff;stroke-width:1px;stroke-linecap:round;stroke-linejoin:round;fill:none" d="m47.472 12.678-5.055 3.04c-1.461 3.09-3.345 4.537-6.611 5.14q-1.959.362-2.689 3.678l-5.086-7.163q-2.89-5.727.322-10.411c1.533-1.389 2.382-2.719 4.51-3.162l1.176-2.351L35.575.5"/><path style="fill-opacity:0;stroke:#fff;stroke-linejoin:round;fill:none" d="m27.862 7.64-1.188-3.354 2.917 1.245"/><circle style="fill-opacity:0;stroke:#fff;stroke-width:1px;stroke-linejoin:round;fill:none" cx="-33.888" cy="-1.708" transform="rotate(-163.836)" r="2.866"/><path style="fill-opacity:0;stroke:#fff;stroke-width:1px;stroke-linejoin:round;fill:none" d="M31.675 14.048c1.271-2.392.817-4.236-1.644-5.047"/><path style="fill-opacity:0;stroke:#fff;stroke-linejoin:round;fill:none" d="m36.828 5.508 2.932-4.432q2.104-1.156 4.01.423 2.15-1.335 3.65-.065-2.005 7.22-6.877 10.657"/></svg>