<svg xmlns="http://www.w3.org/2000/svg" viewBox="0 0 48 48"><path style="fill:none;stroke-linejoin:round;stroke:#fff" d="M-.654 36.249c1.567-2.693 3.85-5.41 5.875-6.728q-1.286-9.585 5.329-14.44-5.359-3.38-2.12-7.45l3.839 5.788q-.488-4.986 3.267-5.043l-.86 4.069q5.734-2.887 12.722-.058 6.567 2.658 8.251 11.519 1.26 6.631-4.183 12.836c1.484 3.257 1.708 7.393 1.027 11.641"/><path style="fill:none;stroke-linejoin:round;stroke:#fff" d="m35.547 23.268 4.916 2.083-4.577 2.638"/><ellipse style="fill:#d8d8d8;fill-opacity:0;stroke-linejoin:round;stroke:#fff" cx="24.951" cy="22.61" rx="5" ry="5.007" fill="none"/><path style="fill:none;stroke-linejoin:round;stroke:#fff" d="M27.277 18.221c-2.67.564-4.385 2.355-3.973 5.047q.411 2.685 3.842 3.842"/></svg>