<svg xmlns="http://www.w3.org/2000/svg" xml:space="preserve" viewBox="0 0 48 48"><path d="M28.248 16.78A10.54 10.54 0 0 1 17.71 27.318 10.54 10.54 0 0 1 7.173 16.78 10.54 10.54 0 0 1 17.71 6.243 10.54 10.54 0 0 1 28.248 16.78" style="fill:none;fill-opacity:.466567;stroke:#fff;stroke-width:1;stroke-linecap:round;stroke-linejoin:round;stroke-dashoffset:1.3;stroke-opacity:1"/><path d="M15.45 27.172c2.978 4.323 5.588 8.487 10.429 12.266-2.318-2.258-3.178-3.862-4.006-5.63m-3.667-6.423c3.89 5.009 7.692 10.308 13.501 13.276M23.43 30.147c5.008 7.674 10.542 10.991 17.398 11.61-6.829-2.02-10.802-8.982-13.648-14.534m6.115 7.382a13.4 13.4 0 0 0 4.297 1.93c-5.963-3.287-7.513-8.254-10.667-14.524m4.362 5.623c1.47 1.524 3.274 3.028 5.524 4.267-3.775-3.399-6.081-8.011-8.85-12.387" style="fill:none;fill-opacity:.466567;stroke:#fff;stroke-width:1;stroke-linecap:round;stroke-linejoin:round;stroke-dashoffset:1.3;stroke-opacity:1"/></svg>