<svg id="b" xmlns="http://www.w3.org/2000/svg" viewBox="0 0 48 48"><defs><style>.e{fill:none;stroke:#fff;stroke-linecap:round;stroke-linejoin:round}</style></defs><circle class="e" cx="31" cy="20.25" r="3"/><path class="e" d="M25.5 30.75a5.5 5.5 0 1 1 11 0zm-17-11.44H22v3.19H9.975zm2.775 6H22v3.19h-9.25z"/><path style="fill:none;stroke-width:1px;stroke-linejoin:round;stroke:#fff" d="M36.141 39.469 7.609 39.5C5.368 39.453 3.5 38.334 3.5 36.037V11.929c0-2.297 1.868-3.416 4.109-3.463l31.344.034s3.547 0 3.547 3.429v20.529"/><ellipse style="fill:#d8d8d8;fill-opacity:0;stroke-linejoin:round;stroke:#fff" cx="40.489" cy="37.05" rx="5" ry="5.014"/><circle style="fill:#d8d8d8;fill-opacity:0;stroke:#fff" cx="-39.887" cy="36.246" transform="scale(-1 1)" r="1.5"/><path style="fill:none;stroke:#fff;transform-origin:41.909px 38.261px 0;stroke-linejoin:round;stroke-linecap:round" transform="scale(-1)" d="m42.791 39.233-1.763-1.944"/></svg>