<?xml version="1.0" encoding="UTF-8"?><svg id="a" xmlns="http://www.w3.org/2000/svg" viewBox="0 0 48 48"><defs><style>.d{fill:none;stroke:#fff;stroke-linecap:round;stroke-linejoin:round;}</style></defs><rect class="d" x="5.5" y="5.5" width="37" height="37" rx="4" ry="4"/><path class="d" d="m31.163 20.514v2.6384c0 1.0755-0.88041 1.9474-1.9665 1.9475h-0.01595c-0.52428 0.0032-1.0276-0.20352-1.3956-0.57322"/><path class="d" d="m31.163 17.286v3.2273c0 1.0798-0.88398 1.9552-1.9745 1.9552h-0.0079c-1.0874-0.0044-1.9666-0.87842-1.9666-1.9552v-3.2273"/><path class="d" d="m13.045 21.448c-0.34185 0.61888-0.9927 1.0085-1.7049 1.0208-1.0905 0.0044-1.978-0.8675-1.9825-1.9474v-0.0079-1.2721c0-1.0798 0.88398-1.9552 1.9745-1.9552h0.0079c1.0874 0.0044 1.9666 0.87842 1.9666 1.9552v0.63601h-3.9649"/><path class="d" d="m25.209 20.514c0 1.0798-0.88398 1.9552-1.9745 1.9552-1.0874-0.0044-1.9666-0.87842-1.9666-1.9552v-1.2721c0-1.0768 0.87922-1.9509 1.9666-1.9552 1.0905 0 1.9745 0.87536 1.9745 1.9552"/><line class="d" x1="25.209" x2="25.209" y1="22.469" y2="17.286"/><path class="d" d="m15.312 19.241c0-1.0798 0.88398-1.9552 1.9745-1.9552 1.0874 0.0044 1.9666 0.87842 1.9666 1.9552v1.2721c0 1.0767-0.87922 1.9509-1.9666 1.9552-1.0905 0-1.9745-0.87536-1.9745-1.9552"/><line class="d" x1="15.312" x2="15.312" y1="22.469" y2="14.656"/><rect class="d" x="18.004" y="28.671" width="3.4754" height="4.6729" rx="1.7377" ry="1.7634"/><rect class="d" x="26.945" y="28.671" width="3.4754" height="4.6729" rx="1.7377" ry="1.7634"/><path class="d" d="m9.3419 30.435c0-0.9739 0.77797-1.7634 1.7377-1.7634 0.95974 0 1.7377 0.78945 1.7377 1.7634v2.9095"/><line class="d" x1="9.3419" x2="9.3419" y1="28.671" y2="33.344"/><path class="d" d="m12.817 30.435c0-0.9739 0.77798-1.7634 1.7377-1.7634 0.95974 0 1.7377 0.78945 1.7377 1.7634v2.9095"/><path class="d" d="m32.132 30.435c0-0.9739 0.77798-1.7634 1.7377-1.7634"/><line class="d" x1="32.132" x2="32.132" y1="28.671" y2="33.344"/><path class="d" d="m35.69 32.95c0.31731 0.27032 0.65981 0.39429 1.4292 0.39429h0.38986c0.63444 0 1.1487-0.52301 1.1487-1.1682 0-0.64521-0.51428-1.1682-1.1487-1.1682h-0.77971c-0.63444 0-1.1487-0.52301-1.1487-1.1682 0-0.64521 0.51428-1.1682 1.1487-1.1682h0.38986c0.76929 0 1.1119 0.12388 1.4292 0.39428"/><path class="d" d="m24.104 27.216v5.246c0 0.48695 0.38899 0.88168 0.86886 0.88168h0.26066"/><line class="d" x1="23.191" x2="25.016" y1="28.671" y2="28.671"/></svg>
