<?xml version="1.0" encoding="UTF-8"?><svg id="a" xmlns="http://www.w3.org/2000/svg" viewBox="0 0 48 48"><defs><style>.d{fill:none;stroke:#fff;stroke-linecap:round;stroke-linejoin:round;}.c{fill:#fff;stroke-width:0px;}</style></defs><rect class="d" x="5.5" y="5.5" width="37" height="37" rx="4" ry="4"/><path class="d" d="m28.545 24.9c0-1.4213 1.1385-2.5734 2.5429-2.5734"/><line class="d" x1="28.545" x2="28.545" y1="22.327" y2="29.147"/><circle class="c" cx="26.098" cy="19.175" r=".75"/><path class="d" d="m14.132 27.848c-0.43802 0.77575-1.2635 1.2987-2.2096 1.2987-1.4045 0-2.5429-1.1521-2.5429-2.5734v-1.6727c0-1.4213 1.1385-2.5734 2.5429-2.5734 1.4045 0 2.5429 1.1521 2.5429 2.5734v0.83636h-5.0859"/><path class="d" d="m38.62 24.9c0-1.4213-1.1385-2.5734-2.5429-2.5734-1.4045 0-2.5429 1.1521-2.5429 2.5734v1.6727c0 1.4213 1.1385 2.5734 2.5429 2.5734 1.4045 0 2.5429-1.1521 2.5429-2.5734"/><line class="d" x1="38.62" x2="38.62" y1="29.147" y2="18.853"/><path class="d" d="m21.108 24c1.4045 0 2.5429 1.1521 2.5429 2.5734 0 1.4213-1.1385 2.5734-2.5429 2.5734h-4.1958v-10.294h4.1958c1.4045 0 2.5429 1.1521 2.5429 2.5734 0 1.4213-1.1385 2.5734-2.5429 2.5734z"/><line class="d" x1="21.108" x2="16.917" y1="24" y2="24"/><line class="d" x1="26.098" x2="26.098" y1="22.327" y2="29.147"/></svg>
