<?xml version="1.0" encoding="UTF-8" standalone="no"?><svg viewBox="0 0 48 48" xmlns="http://www.w3.org/2000/svg"><defs><style>.c{fill:none;stroke:#FFF;stroke-linecap:round;stroke-linejoin:round;}</style></defs><path d="M27.083333,11.222895H23.691666" class="c"/><path d="M23.691666,12.694434V13.825h-1.130565v1.130566h2.261131v1.130535h-2.261131v1.130566h-1.130535v1.130565H20.3v-1.130565h-1.130566v-1.130566h-1.130535v-1.130535h1.130535V13.825H18.038899V12.694434H16.908333V13.825h-2.261101v1.130566h1.130535v2.261101h-1.130535v1.130565h2.261101v1.130535h1.130566v2.261132h-1.130566v1.130535h-1.130566v-1.130535h-1.130535v1.130535h-1.130565v2.261132h1.130565v1.130535h1.130535v-1.130535h2.261132V24h1.130535v1.130566H20.3V24h3.391666v1.130566h1.130566v1.130535H20.3v3.391666h-1.695833v-1.130535h-1.130566v1.130535h-1.695834v1.130566h1.130566v1.130566h-1.130566v1.130535h1.130566v-1.130535h6.783333v-3.391667h2.261101v3.391667h1.130566V34.175H25.952767V33.044434H24.822232V34.175h1.130535v1.130566h-1.130535v2.2611h1.130535v-1.130658h1.130566v1.130658h1.130566V34.175h1.130535V33.044434H30.475v-2.261101h1.130566v-1.130566h2.2611v-1.130535h-1.130565v-1.130566h-1.130535v-2.2611h1.130535V24h1.130565v-2.261101h-1.130565v-3.391667h1.130565v-1.130565h-1.130565v-1.130566h1.130565v-3.391667h-1.130565v-1.130535h-1.130535v5.652768H30.475v-5.652768h-1.130566v1.130535H28.213899V13.825H27.083333V12.694434ZM30.475,18.347232v-1.130565h-1.130566v-1.130566h-1.130535v1.130566h1.130535v1.130565h-1.130535v1.130535h-1.130566v1.130566h1.130566v1.130566h-1.130566v3.391667h1.130566v1.130535h1.130535v1.130565H30.475v-1.130565l0.0047-1.227645-1.053824,0.0012-0.0047-3.231956,1.070338-0.02277-0.01655-3.432739m0,12.436101h-2.261101v-2.261101h1.130535v1.130535H30.475Z" class="c"/><path d="M21.430566,15.632853H20.3" class="c"/><rect x="5.5" y="5.5" width="37" height="37" rx="4" ry="4" class="c"/></svg>
