<?xml version="1.0" encoding="UTF-8"?><svg id="a" xmlns="http://www.w3.org/2000/svg" viewBox="0 0 48 48"><defs><style>.b{fill:none;stroke:#fff;stroke-linecap:round;stroke-linejoin:round;}</style></defs><path class="b" d="M9.2159,34.0681l8.9797-8.9797c.603-.603.603-1.5739,0-2.1769l-8.9797-8.9797,8.9797-8.9797c.603-.603,1.5739-.603,2.1769,0l5.624,5.624c1.8534-1.853,4.858-1.853,6.7114,0,1.853,1.8534,1.853,4.858,0,6.7114l5.624,5.624c.603.603.603,1.5739,0,2.1769l-5.624,5.624c-1.8534-1.853-4.858-1.853-6.7114,0-1.853,1.8534-1.853,4.858,0,6.7114l-5.624,5.624c-.603.603-1.5739.603-2.1769,0l-8.9797-8.9797V13.9321"/></svg>