<?xml version="1.0" encoding="UTF-8" standalone="no"?>
<svg
   height="48"
   width="48"
   version="1.1"
   viewBox="0 0 47.999999 47.999999"
   id="svg200"
   xmlns="http://www.w3.org/2000/svg"
   xmlns:svg="http://www.w3.org/2000/svg"
   xmlns:rdf="http://www.w3.org/1999/02/22-rdf-syntax-ns#"
   xmlns:cc="http://creativecommons.org/ns#"
   xmlns:dc="http://purl.org/dc/elements/1.1/">
  <defs
     id="defs204" />
  <metadata
     id="metadata2">
    <rdf:RDF>
      <cc:Work
         rdf:about="">
        <dc:format>image/svg+xml</dc:format>
        <dc:type
           rdf:resource="http://purl.org/dc/dcmitype/StillImage" />
      </cc:Work>
    </rdf:RDF>
  </metadata>
  <g
     transform="matrix(0.57872722,0,0,0.57872722,9.2668047,0.82660942)"
     id="g178"
     style="display:inline;stroke:#ffffff;stroke-width:1.41845;stroke-linecap:round;stroke-linejoin:round;stroke-opacity:1">
    <g
       transform="matrix(0.30163,0,0,0.30666,-19.24,14.773)"
       id="g176"
       style="stroke:#ffffff;stroke-width:1.41845;stroke-linecap:round;stroke-linejoin:round;stroke-opacity:1">
      <path
         d="m 159.04508,15.873678 c 0.9445,-0.9792 2.06072,-2.742678 1.07082,-3.877478 -1.2082,-1.8034 -3.5,-3.1898 -5.7455,-3.5523 l -4e-4,4e-4 c -2.0931,0.3785 -1.522,3.0698 -2.4548,4.4158 -2.512,5.6428 -7.7045,9.9196 -13.013,13.379 -2.2402,1.2953 -4.6623,2.6036 -7.3612,2.7647 0.5591,1.1214 0.0805,2.9602 1.745,3.3466 1.2345,0.6709 0.47768,0.09052 1.49795,0.229185 m 77.69237,65.076305 c 1.1709,2.2102 0.46468,1.62361 3.04428,2.77091 2.2723,0.5896 3.5468,-1.8695 4.1192,-3.4828 0.5404,-1.4627 1.0403,-3.1189 -0.0605,-4.5081 -5.2168,-11.962 -10.086,-24.079 -16.144,-35.707 -0.623,-1.0448 -1.1794,-2.394 -2.589,-2.6265 -4.6474,-3.4766 -8.1062,-8.0828 -11.845,-12.337 -5.9547,-7.3595 -12.047,-14.705 -16.698,-22.851 -0.75,-0.9463 -0.157,-2.6603 -1.9558,-2.4879 l 5e-4,-0.0012 c -1.4556,0.005 -2.8344,0.4824 -3.4815,1.7693 -1.6213,2.2602 -3.8592,4.5656 -3.9659,7.4063 0.1722,1.2741 1.8268,0.7855 2.6714,0.5013 m -87.417524,77.77027 c -1.362982,1.17626 -2.626376,1.77233 -3.527076,2.71923 -1.5578,-0.6614 -2.7788,-1.8406 -3.7298,-3.1342 -1.6138,-2.317 -3.4375,-5.4756 -1.6023,-8.1287 7.281,-8.85 15.316,-17.1813 22.1,-26.383 4.156,-5.311 7.2687,-11.362 8.504,-17.803 0.5202,-1.4678 0.2194,-3.9023 2.178,-4.5158 4.901,-3.0064 3.70206,-4.113633 8.50496,-7.341333 2.7215,-1.7027 2.12085,-2.910497 6.23351,-5.271378 4.37468,-1.970465 5.46115,-2.420872 5.73307,-2.138622 1.8007,1.6407 0.66575,11.738483 0.66575,11.738483"
         fill="#fec72e"
         id="path30"
         style="display:inline;fill:none;stroke:#ffffff;stroke-width:5.68147;stroke-linecap:round;stroke-linejoin:round;stroke-dasharray:none;stroke-opacity:1;paint-order:normal" />
      <path
         d="m 136.26525,38.952217 c 0.92619,-2.899064 -0.69447,-4.402731 -2.10472,-7.375331 M 159.2518,14.3587 c -1.3635,12.456 -0.3409,21.132 -6.6548,41.427 0.3199,6.0016 3.9354,5.9149 7.2336,6.4145 13.473,-3.4638 5.57007,-22.008054 5.40457,-36.131054 m 47.62567,71.971426 C 204.87785,96.135457 201.90776,95.7808 194.38476,96.678 m -86.99819,7.92669 c -10.899001,-3.6008 -18.91221,-1.4476 -29.81121,-0.4728"
         fill="#293a39"
         id="path38"
         style="display:inline;fill:none;stroke:#ffffff;stroke-width:5.68147;stroke-linecap:round;stroke-linejoin:round;stroke-dasharray:none;stroke-opacity:1" />
      <path
         d="m 123.08383,43.919614 c 0.9758,-0.551175 6.35813,-3.193999 8.80235,-3.846509 4.02987,-1.075816 4.50585,-1.257799 4.36855,-1.257799 m 21.00121,-0.561175 c 10.706,4.0091 9.92921,4.113676 9.92921,4.113676"
         fill="#293a39"
         id="path42"
         style="display:inline;fill:none;stroke:#ffffff;stroke-width:5.68147;stroke-linecap:round;stroke-linejoin:round;stroke-dasharray:none;stroke-opacity:1" />
      <path
         d="M 109.48448,91.391276 C 103.67798,102.27928 108.85,104.3932 110.884,116.5992 l 4.8257,18.914 c 1.6795,14.354 -4.513,23.572 -7.2812,32.869 m 97.51086,-9.51882 C 193.89623,155.29542 184.4815,143.3856 187.1985,125.6716 c 3.3129,-11.27 6.03808,-18.60795 5.9335,-35.511217 m -16.66146,25.653507 c 6.33395,0 -9.63614,17.94846 -28.09973,17.71818 -12.37969,-0.15388 -15.92589,-12.62162 -15.31295,-14.61046 0.31461,-1.0185 6.01725,2.09864 9.92737,1.39858 12.51144,-3.17301 21.75655,-4.83335 33.48531,-4.5063 z"
         fill="#4ec5de"
         id="path54"
         style="display:inline;fill:none;stroke:#ffffff;stroke-width:5.68147;stroke-linecap:round;stroke-linejoin:round;stroke-dasharray:none;stroke-opacity:1" />
      <path
         d="m 109.70453,91.212688 c 0,0 27.21747,-12.055688 55.04947,-9.502688 14.082,1.2921 25.252,5.7582 28.666,8.728"
         fill="#293a39"
         id="path124"
         style="fill:none;stroke:#ffffff;stroke-width:5.68147;stroke-linecap:round;stroke-linejoin:round;stroke-dasharray:none;stroke-opacity:1" />
      <path
         d="m 157.0013,61.7512 c -2.269,-0.5083 -4.1742,-1.6883 -4.4023,-5.967 6.314,-20.294 5.2916,-28.972 6.6552,-41.427"
         fill="#88a19d"
         id="path132"
         style="fill:none;stroke:#ffffff;stroke-width:5.68147;stroke-linecap:round;stroke-linejoin:round;stroke-dasharray:none;stroke-opacity:1" />
      <g
         transform="matrix(0.765,0.08983,-0.12783,0.92883,197.75,-76.422)"
         id="g142"
         style="stroke:#ffffff;stroke-width:1.41845;stroke-linecap:round;stroke-linejoin:round;stroke-opacity:1">
        <ellipse
           rx="9.0872002"
           ry="10.357"
           cy="157.42494"
           cx="-72.204628"
           fill="#fec72e"
           id="ellipse136"
           style="fill:none;stroke:#ffffff;stroke-width:6.68621;stroke-linecap:round;stroke-linejoin:round;stroke-dasharray:none;stroke-opacity:1" />
      </g>
    </g>
  </g>
  <path
     style="display:inline;fill:none;fill-rule:evenodd;stroke:#ffffff;stroke-width:1;stroke-linecap:round;stroke-linejoin:round;stroke-dasharray:none;stroke-opacity:1"
     d="m 16.899526,27.966609 c 0,0 -0.859395,0.28668 -1.101221,0.665321 -1.297163,0.05746 -2.218806,0.847974 -2.73011,1.238873 -0.499832,0.597379 -0.316325,0.536749 -0.55061,0.665321 -0.234286,0.128571 -0.734148,0.09177 -0.734148,0.09177 0,0 0.45702,0.296504 0.802974,0.298247 0.345953,0.0018 0.715577,-0.323238 1.147105,-0.412958 0.431529,-0.08973 1.033432,0.0025 1.42241,-0.09177 0.388978,-0.09426 0.894742,-0.390016 0.894742,-0.390016 l -0.32119,0.848858 c 0,0 -0.154764,0.20985 0.137654,0.596494 0.303886,0.352231 0.497645,0.544017 0.720229,0.931601 0.222585,0.387585 -0.07324,1.556126 -0.07324,1.556126 0,0 1.124497,-1.11664 1.234262,-1.5471 0.109765,-0.43046 -0.0028,-1.215932 -0.0028,-1.215932"
     id="path7" />
  <circle
     style="fill:#ffffff;fill-opacity:1;stroke:none;stroke-width:1;stroke-linecap:round;stroke-linejoin:round;stroke-dasharray:none;stroke-opacity:1;paint-order:normal"
     id="path13"
     cx="22.4375"
     cy="27.53125"
     r="0.75" />
  <circle
     style="fill:#ffffff;fill-opacity:1;stroke:none;stroke-width:1;stroke-linecap:round;stroke-linejoin:round;stroke-dasharray:none;stroke-opacity:1;paint-order:normal"
     id="path13-6"
     cx="27.875"
     cy="27.3125"
     r="0.75" />
  <circle
     style="fill:none;fill-opacity:1;stroke:#ffffff;stroke-width:0.999997;stroke-linecap:round;stroke-linejoin:round;stroke-dasharray:none;stroke-opacity:1;paint-order:normal"
     id="path11"
     cx="23.96875"
     cy="23.96875"
     r="16.96875" />
  <path
     style="fill:none;fill-rule:evenodd;stroke:#ffffff;stroke-width:1px;stroke-linecap:round;stroke-linejoin:round;stroke-opacity:1"
     d="m 17.541904,28.792525 c 0,0 2.018906,-1.927136 3.395431,-2.753053 1.376526,-0.825915 4.637565,-2.213574 4.637565,-2.213574"
     id="path12" />
</svg>
