<?xml version="1.0" encoding="UTF-8" standalone="no"?>
<svg
   viewBox="0 0 48 48"
   version="1.1"
   id="svg1"
   sodipodi:docname="eduvulcan.svg"
   inkscape:version="1.2.2 (b0a8486541, 2022-12-01)"
   xml:space="preserve"
   xmlns:inkscape="http://www.inkscape.org/namespaces/inkscape"
   xmlns:sodipodi="http://sodipodi.sourceforge.net/DTD/sodipodi-0.dtd"
   xmlns="http://www.w3.org/2000/svg"
   xmlns:svg="http://www.w3.org/2000/svg"><sodipodi:namedview
     id="namedview1"
     pagecolor="#505050"
     bordercolor="#eeeeee"
     borderopacity="1"
     inkscape:showpageshadow="0"
     inkscape:pageopacity="0"
     inkscape:pagecheckerboard="0"
     inkscape:deskcolor="#505050"
     inkscape:zoom="17.8125"
     inkscape:cx="20.884211"
     inkscape:cy="24.02807"
     inkscape:window-width="1918"
     inkscape:window-height="1053"
     inkscape:window-x="0"
     inkscape:window-y="0"
     inkscape:window-maximized="1"
     inkscape:current-layer="svg1"
     showgrid="false" /><defs
     id="defs1"><style
       id="style1">.a { fill:none;stroke:#fff;stroke-linecap:round;stroke-linejoin:round; }
</style></defs><g
     id="g16600"><path
       style="fill:none;stroke:#ffffff;stroke-linecap:round;stroke-linejoin:round;stroke-opacity:1"
       d="m 9.5,5.5 h 29 c 2.216,0 4,1.784 4,4 v 29 c 0,2.216 -1.784,4 -4,4 h -29 c -2.216,0 -4,-1.784 -4,-4 v -29 c 0,-2.216 1.784,-4 4,-4 z"
       id="path16584" /><g
       id="g16591"><path
         style="fill:none;stroke:#ffffff;stroke-linecap:round;stroke-linejoin:round;stroke-opacity:1"
         d="m 28.035958,15.378512 v 7.535824 c 0,2.511941 2.183583,4.567166 4.852407,4.567166 v 0 c 2.668823,0 4.852406,-2.055225 4.852406,-4.567166 v -7.535824"
         id="path16582" /><path
         style="fill:none;stroke:#ffffff;stroke-linecap:round;stroke-linejoin:round;stroke-opacity:1"
         d="m 37.740772,23.142696 v 4.567156"
         id="path16580" /><path
         style="fill:none;stroke:#ffffff;stroke-linecap:round;stroke-linejoin:round;stroke-opacity:1"
         d="m 19.220809,22.436646 c -0.727861,1.37015 -2.426203,2.283583 -4.124546,2.283583 v 0 c -2.668823,0 -4.852408,-2.055224 -4.852408,-4.567166 v -2.968657 c 0,-2.511942 2.183585,-4.567166 4.852408,-4.567166 v 0 c 2.668824,0 4.852407,2.055224 4.852407,4.567166 v 1.598508 h -9.704815"
         id="path16578" /><path
         style="fill:none;stroke:#ffffff;stroke-linecap:round;stroke-linejoin:round;stroke-opacity:1"
         d="m 25.50228,27.633498 c 0,-2.511941 -2.183583,-4.567166 -4.852406,-4.567166 v 0 c -2.668824,0 -4.852407,2.055225 -4.852407,4.567166 v 2.968658 c 0,2.511941 2.183583,4.567166 4.852407,4.567166 v 0 c 2.668823,0 4.852406,-2.055225 4.852406,-4.567166"
         id="path16576" /><path
         style="fill:none;stroke:#ffffff;stroke-linecap:round;stroke-linejoin:round;stroke-opacity:1"
         d="M 25.502281,35.397675 V 17.129019"
         id="line6515" /></g></g></svg>
