<svg width="48" height="48" viewBox="0 0 48 48" fill="none" xmlns="http://www.w3.org/2000/svg">
<path d="M16.7438 31.7976C16.7438 31.7976 8.99765 24.4986 9.04865 18.4983C9.11758 10.3898 15.3335 3.86503 23.4353 3.52622C31.8836 3.17292 38.8984 10.0445 39.0765 18.4983C39.1932 24.0346 32.7646 30.8835 31.9646 31.7139C31.9109 31.7697 31.8666 31.8335 31.834 31.9037L30.4737 34.8392C30.3641 35.0756 30.1272 35.227 29.8666 35.227H17.7475C17.1932 35.227 16.7438 35.6764 16.7438 36.2307V37.1508C16.7438 37.7051 17.1932 38.1545 17.7475 38.1545H29.2903C29.8446 38.1545 30.294 38.6039 30.294 39.1582V40.3292C30.294 40.8835 29.8446 41.3329 29.2903 41.3329H22.3213C21.7328 41.3329 21.4309 42.0379 21.837 42.4638L24.1881 44.9296" stroke="white" stroke-linecap="round"/>
<path d="M23.0168 24.6748L23.4459 25.0222C24.1945 25.6282 25.2837 25.5545 25.9437 24.8531L26.1116 24.6748" stroke="white" stroke-linecap="round"/>
<ellipse cx="18.75" cy="20" rx="0.75" ry="1.5" fill="white"/>
<ellipse cx="29.75" cy="20" rx="0.75" ry="1.5" fill="white"/>
</svg>
