<?xml version="1.0" encoding="UTF-8"?><svg id="a" xmlns="http://www.w3.org/2000/svg" viewBox="0 0 48 48"><defs><style>.d{fill:none;stroke:#fff;stroke-linecap:round;stroke-linejoin:round;}</style></defs><path class="d" d="m15.709 37.981a3.2081 5.2131 76.953 0 1-4.3543 4.3021 3.2081 5.2131 76.953 0 1-5.8028-1.9484 3.2081 5.2131 76.953 0 1 4.3543-4.3021 3.2081 5.2131 76.953 0 1 5.8028 1.9484z"/><path class="d" d="m42.278 34.401a3.3799 4.7548 65.446 0 1-2.9203 5.0501 3.3799 4.7548 65.446 0 1-5.7293-1.0984 3.3799 4.7548 65.446 0 1 2.9203-5.0501 3.3799 4.7548 65.446 0 1 5.7293 1.0984z"/><path class="d" d="m15.678 39.046 8.4-33.214c0.18071-0.78682 2.3915-1.0152 2.7328-0.33243l15.387 28.707"/><path class="d" d="m20.086 21.615 14.102-2.3503"/></svg>
