<svg xmlns="http://www.w3.org/2000/svg" viewBox="0 0 48 48"><path style="fill:#d8d8d8;stroke-linecap:round;stroke-linejoin:round;fill-opacity:0;stroke:#fff" d="M10.501 6H37.51a4.5 4.5 0 0 1 4.501 4.501v18.006H28.507v13.504H10.501A4.5 4.5 0 0 1 6 37.51V10.501A4.5 4.5 0 0 1 10.501 6" fill="none"/><circle class="q" cx="9.304" cy="12.004" r=".75" style="fill:#fff;stroke-width:1px"/><path class="r" style="fill:none;stroke:#fff;stroke-linecap:round;stroke-linejoin:round;stroke-width:1px" d="M9.388 15.007v6.314m4.08-3.932a2.381 2.381 0 1 1 4.763 0v3.932m-4.763-6.314v6.314m4.763-3.932a2.383 2.383 0 0 1 4.766 0v3.932m3.883-2.383a2.383 2.383 0 0 0 4.764 0v-1.549a2.382 2.382 0 0 0-4.764 0m0-2.382v9.53m9.209 0v-7.863c0-.92.746-1.667 1.668-1.667.821 0 1.333.242 1.685.699m-4.765 2.516h3.335"/></svg>