<svg xmlns="http://www.w3.org/2000/svg" xml:space="preserve" id="svg1" version="1.1" viewBox="0 0 48 48"><defs id="defs1"><style id="style1">.a{fill:none;stroke:#fff;stroke-linecap:round;stroke-linejoin:round}</style></defs><path id="path12" d="M37.856 38.474v1.52m-22.35-1.52v1.52m23.134-7.508a.998 1 0 0 1-.998 1 .998 1 0 0 1-.999-1 .998 1 0 0 1 .999-1 .998 1 0 0 1 .998 1zm-5.55 0a.998 1 0 0 1-.998 1 .998 1 0 0 1-.998-1 .998 1 0 0 1 .998-1 .998 1 0 0 1 .999 1zm-5.548 0a.998 1 0 0 1-.999 1 .998 1 0 0 1-.998-1 .998 1 0 0 1 .998-1 .998 1 0 0 1 .999 1zm-2.117-19.392h15.348a2.724 2.724 0 0 1 2.727 2.732V35.66a2.724 2.724 0 0 1-2.727 2.733H12.59a2.724 2.724 0 0 1-2.727-2.733v-6.684m11.307-5.262a.998 1 0 0 1-.999 1 .998 1 0 0 1-.998-1 .998 1 0 0 1 .998-1 .998 1 0 0 1 .999 1zm-6.65.241a6.731 6.745 0 0 1 5.892-5.91M9.703 23.957a11.528 11.55 0 0 1 10.71-10.736M4.5 23.957a16.723 16.756 0 0 1 15.914-15.95" style="fill:none;fill-opacity:.266292;stroke:#fff;stroke-width:1stroke-linecap:round;stroke-linejoin:round;stroke-opacity:1"/></svg>
