<?xml version="1.0" encoding="UTF-8" standalone="no"?>
<svg
   version="1.2"
   viewBox="0 0 48 48"
   id="svg5"
   xmlns="http://www.w3.org/2000/svg"
   xmlns:svg="http://www.w3.org/2000/svg">
  <defs
     id="defs1" />
  <path
     d="M 41.759999,42.5 H 6.2399996 c -0.408702,0 -0.74,-0.331299 -0.74,-0.740001 V 6.2399996 c 0,-0.408702 0.331298,-0.74 0.74,-0.74 H 41.759999 c 0.408702,0 0.740001,0.331298 0.740001,0.74 V 41.759999 C 42.5,42.168701 42.168701,42.5 41.759999,42.5"
     fill="none"
     stroke="#ffffff"
     stroke-linecap="round"
     stroke-linejoin="round"
     stroke-width="1"
     id="path1"
     style="stroke-width:1;stroke-dasharray:none" />
  <path
     d="m 32.805999,26.96 c -3.35664,-4.1958 -8.806,-4.206161 -8.806,-4.206161 0,0 -5.449359,0.01032 -8.805999,4.206161"
     fill="none"
     stroke="#ffffff"
     stroke-linecap="round"
     stroke-linejoin="round"
     stroke-width="1"
     id="path2"
     style="stroke-width:1;stroke-dasharray:none" />
  <path
     d="m 26.589999,25.923999 4.144001,8.288 c 0,0 0,1.036 -1.036001,1.036 -1.036,0 -4.144,-3.108 -4.144,-3.108 h -2.072 1.036001 -2.072001 c 0,0 -3.108,3.108 -4.143999,3.108 -1.036001,0 -1.036001,-1.036 -1.036001,-1.036 l 4.144001,-8.288"
     fill="none"
     stroke="#ffffff"
     stroke-linecap="round"
     stroke-linejoin="round"
     stroke-width="1"
     id="path3"
     style="stroke-width:1;stroke-dasharray:none" />
  <path
     d="M 22.445999,32.139999 20.373999,30.068 V 27.995999 H 27.626 V 30.068 l -2.072001,2.071999 h -3.108"
     fill="none"
     stroke="#ffffff"
     stroke-linecap="round"
     stroke-linejoin="round"
     stroke-width="1"
     id="path4"
     style="stroke-width:1;stroke-dasharray:none" />
  <path
     d="m 20.891999,17.339999 a 3.108,3.108 0 1 0 6.216,0 3.108,3.108 0 1 0 -6.216,0"
     fill="none"
     stroke="#ffffff"
     stroke-linecap="round"
     stroke-linejoin="round"
     stroke-width="1"
     id="path5"
     style="stroke-width:1;stroke-dasharray:none" />
  <path
     style="fill:none;stroke:#ffffff;stroke-width:1;stroke-linecap:round;stroke-linejoin:round;stroke-dashoffset:0.5;stroke-dasharray:none"
     d="m 25.607703,22.924009 0.982296,2.99999"
     id="path6" />
  <path
     style="fill:none;stroke:#ffffff;stroke-width:1;stroke-linecap:round;stroke-linejoin:round;stroke-dashoffset:0.5;stroke-dasharray:none"
     d="m 22.278984,22.944202 -0.868985,2.979797"
     id="path7" />
  <path
     style="fill:none;stroke:#ffffff;stroke-width:1;stroke-linecap:round;stroke-linejoin:round;stroke-dashoffset:0.5;stroke-dasharray:none"
     d="m 24.645974,20.380127 0.580351,2.483206"
     id="path9" />
  <path
     style="fill:none;stroke:#ffffff;stroke-width:1;stroke-linecap:round;stroke-linejoin:round;stroke-dashoffset:0.5;stroke-dasharray:none"
     d="m 22.851391,22.545619 0.583513,-2.149424"
     id="path10" />
</svg>
