<?xml version="1.0" encoding="UTF-8"?><svg id="b" xmlns="http://www.w3.org/2000/svg" viewBox="0 0 48 48"><defs><style>.h{stroke-width:1.2793px;}.h,.i,.j{fill:none;stroke:#fff;stroke-linecap:round;stroke-linejoin:round;}.k{fill:#fff;stroke-width:0px;}.i{stroke-width:1.0767px;}.j{stroke-width:.9831px;}</style></defs><path id="c" class="j" d="M16.9774,38.8134c.8275-.8849,2.2835-2.2985,3.0865-3.1571-.9266.5649-2.6819,2.1485-3.5784,2.7174-1.2452-.9199-2.4157-1.937-3.5004-3.0418,2.0887-.4624,4.0551-1.3643,5.7683-2.6457-2.016.9927-4.1923,1.6195-6.4274,1.8511-.805-1.1079-1.5347-2.2687-2.1841-3.4745,4.5586,1.2397,9.5156-.5865,12.5756-3.7742.7912.4574,1.807,1.0137,2.6362,1.4328.4943.2493.8664.6886,1.0309,1.2173,1.1131,2.9745.464,5.5965-1.55,7.9532-.8427.9861-2.0994,2.4942-3.2094,3.1626-1.633-.559-3.1934-1.3113-4.6477-2.241"/><path id="d" class="j" d="M27.0076,25.5122l-1.652-.9563c.436-.761.8582-1.5025,1.2847-2.2416,3.0828-5.3413,6.1662-10.6823,9.25-16.023.063-.1092.1242-.2199.1933-.3251.2698-.4529.8555-.6014,1.3083-.3316.4479.2669.5988.8438.3389,1.2959-.5163.9251-1.0537,1.8381-1.5833,2.7557-2.7043,4.686-5.409,9.3719-8.1139,14.0578-.333.5773-.6689,1.153-1.0262,1.7683"/><path id="e" class="j" d="M26.2172,28.7621l-3.2634-1.8855c.3409-.5854.6512-1.1603,1.0043-1.7079.1641-.2841.5274-.3813.8114-.2172.008.0046.0158.0094.0236.0144.7278.4014,1.4475.8172,2.1591,1.2475.2923.1539.4046.5156.2508.808-.0034.0064-.0069.0128-.0105.019-.2975.5795-.64,1.1361-.9753,1.7216"/><path id="f" class="i" d="M23.7722,41.5169c0,.5429.4401.9831.9831.9831s.9831-.4401.9831-.9831-.4401-.9831-.9831-.9831-.9831.4401-.9831.9831"/><path id="g" class="h" d="M27.1366,38.0759c-.0005.5425.4393.9826.9822.9831.5429.0005.9835-.4389.9839-.9814v-.0017c.0005-.5425-.4393-.9826-.9822-.9831-.5429-.0005-.9835.4389-.9839.9814v.0017"/><circle class="k" cx="27.2884" cy="40.6641" r=".75"/></svg>