<?xml version="1.0" encoding="UTF-8" standalone="no"?>
<svg
   version="1.2"
   viewBox="0 0 48 48"
   id="svg2"
   xmlns="http://www.w3.org/2000/svg"
   xmlns:svg="http://www.w3.org/2000/svg">
  <defs
     id="defs1" />
  <path
     d="m 42.371445,23.373008 c 0,0 -1.972524,-0.14636 -4.270651,-2.46512 -2.101759,-1.98535 -7.640403,-6.958455 -7.640403,-6.958455 -0.719563,-0.487935 -2.130326,-1.413588 -3.216166,-0.527604 -0.814993,0.645861 -1.03748,1.789659 -0.524148,2.694151 l 3.520208,5.193837 -3.512998,1.382764 3.512998,-1.382764 -3.512998,1.382764 -8.16217,4.34616 -7.481988,1.360854 H 7.6622269 c 0,0 -2.1622267,0 -2.1622267,1.743186 0,1.685419 1.5663204,1.882062 2.2465011,1.882062 0.6801808,0 8.6061917,0.02531 8.8173207,0 l 9.519402,0.58993 16.288221,2.325496 c 0,-2.041281 0.288874,-5.914205 0,-11.567261 v 0"
     fill="none"
     stroke="#ffffff"
     stroke-linecap="round"
     stroke-linejoin="round"
     stroke-width="1"
     id="path1" />
  <path
     d="m 25.637841,23.186843 -7.941382,-3.044231 c 0,0 -2.536191,-0.810389 -3.070201,0.59932 -0.34179,0.831414 0.05489,1.782651 0.886004,2.124566 0.0502,0.02062 0.101344,0.03878 0.153313,0.0543 L 21.75877,25.105377 13.334527,22.1462 c 0,0 -2.583394,-1.030031 -3.201203,0.730371 -0.6794328,1.936087 1.596385,2.417285 1.596385,2.417285 l 7.009263,1.652076 -9.6755046,-2.280519 c 0,0 -1.5780194,-0.436562 -2.001364,1.020232 -0.4149102,1.429578 0.8928053,1.910981 1.5060564,2.076596 0.9287188,0.250806 2.5146282,0.637356 2.5146282,0.637356"
     fill="none"
     stroke="#ffffff"
     stroke-linecap="round"
     stroke-linejoin="round"
     stroke-width="1"
     id="path2" />
</svg>
