<?xml version="1.0" encoding="UTF-8" standalone="no"?>
<svg
   version="1.2"
   viewBox="0 0 48 48"
   id="svg4"
   xmlns="http://www.w3.org/2000/svg"
   xmlns:svg="http://www.w3.org/2000/svg">
  <defs
     id="defs1" />
  <path
     d="m 5.5000004,21.153618 c 4.6784076,7.769956 13.3252756,12.344255 19.2424916,13.994056 2.953694,0.823501 10.495905,6.346142 10.495905,6.346142 0,0 -1.882297,-5.529735 -2.196817,-7.444512 -1.194352,-7.271247 8.502497,-8.13608 9.458421,-13.320844 C 36.947033,7.8239874 17.419768,-3.6614221 5.5000004,21.153618"
     fill="none"
     stroke="#ffffff"
     stroke-linecap="round"
     stroke-linejoin="round"
     stroke-width="0.976346"
     id="path1" />
  <path
     d="m 18.863809,20.543412 a 5.0650475,5.0648721 0 1 0 10.130095,0 5.0650475,5.0648721 0 1 0 -10.130095,0"
     fill="none"
     stroke="#ffffff"
     stroke-linecap="round"
     stroke-linejoin="round"
     stroke-width="0.976346"
     id="path2" />
  <path
     d="m 14.671371,20.543412 a 9.2574859,9.2571654 0 1 0 18.514971,0 9.2574859,9.2571654 0 1 0 -18.514971,0"
     fill="none"
     stroke="#ffffff"
     stroke-linecap="round"
     stroke-linejoin="round"
     stroke-width="0.976346"
     id="path3" />
  <path
     d="m 18.863809,20.543412 a 5.0650475,5.0648721 0 1 0 10.130095,0 5.0650475,5.0648721 0 1 0 -10.130095,0"
     fill="none"
     stroke="#ffffff"
     stroke-linecap="round"
     stroke-linejoin="round"
     stroke-width="0.976346"
     id="path4" />
</svg>
