<?xml version="1.0" encoding="UTF-8" standalone="no"?>
<svg
   version="1.2"
   viewBox="0 0 48 48"
   id="svg7"
   xmlns="http://www.w3.org/2000/svg"
   xmlns:svg="http://www.w3.org/2000/svg">
  <defs
     id="defs1" />
  <path
     d="m 15.498361,31.823079 v 4.878987 c 0,0.682151 0.570218,1.235071 1.273599,1.235071 H 33.726061 V 26.415914 h -18.2277 v 2.769044"
     fill="none"
     stroke="#ffffff"
     stroke-linecap="round"
     stroke-linejoin="round"
     stroke-width="1"
     id="path1"
     style="stroke-width:1;stroke-dasharray:none" />
  <path
     d="M 6.2923202,25.977745 5.506103,31.15067 8.9315733,30.618993 18.215328,32.321261 c -0.01277,0.185992 -0.0071,0.376081 0.01878,0.568015 0.206098,1.53513 1.617232,2.612213 3.151835,2.406072 1.534806,-0.206141 2.611732,-1.617504 2.405634,-3.152633 -0.206098,-1.534992 -1.617232,-2.612145 -3.15197,-2.405935 -0.289343,0.03886 -0.562364,0.120761 -0.813602,0.238038 L 9.3999711,28.063062 6.2923202,25.977745 v 0"
     fill="none"
     stroke="#ffffff"
     stroke-linecap="round"
     stroke-linejoin="round"
     stroke-width="1"
     id="path2"
     style="stroke-width:1;stroke-dasharray:none" />
  <path
     d="m 33.726061,34.492782 8.780051,2.271646 v -9.439527 l -8.780051,2.086869"
     fill="none"
     stroke="#ffffff"
     stroke-linecap="round"
     stroke-linejoin="round"
     stroke-width="1"
     id="path3"
     style="stroke-width:1;stroke-dasharray:none" />
  <path
     d="m 25.576528,16.90781 a 6.8289514,6.8303867 0 1 0 13.657902,0 6.8289514,6.8303867 0 1 0 -13.657902,0"
     fill="none"
     stroke="#ffffff"
     stroke-linecap="round"
     stroke-linejoin="round"
     stroke-width="1"
     id="path4"
     style="stroke-width:1;stroke-dasharray:none" />
  <path
     d="m 30.356793,16.90781 a 2.0486855,2.0491161 0 1 0 4.097371,0 2.0486855,2.0491161 0 1 0 -4.097371,0"
     fill="none"
     stroke="#ffffff"
     stroke-linecap="round"
     stroke-linejoin="round"
     stroke-width="1"
     id="path5"
     style="stroke-width:1;stroke-dasharray:none" />
  <path
     d="m 9.258202,16.90781 a 6.8289515,6.8303871 0 1 0 13.657903,0 6.8289515,6.8303871 0 1 0 -13.657903,0"
     fill="none"
     stroke="#ffffff"
     stroke-linecap="round"
     stroke-linejoin="round"
     stroke-width="1"
     id="path6"
     style="stroke-width:1;stroke-dasharray:none" />
  <path
     d="m 14.038468,16.90781 a 2.0486855,2.0491161 0 1 0 4.097371,0 2.0486855,2.0491161 0 1 0 -4.097371,0"
     fill="none"
     stroke="#ffffff"
     stroke-linecap="round"
     stroke-linejoin="round"
     stroke-width="1"
     id="path7"
     style="stroke-width:1;stroke-dasharray:none" />
</svg>
