<?xml version="1.0" encoding="UTF-8" standalone="no"?>
<svg
   version="1.2"
   viewBox="0 0 48 48"
   id="svg11"
   xmlns="http://www.w3.org/2000/svg"
   xmlns:svg="http://www.w3.org/2000/svg">
  <defs
     id="defs1" />
  <path
     d="m 12.087031,20.463279 c 0,0 -6.5743442,0.892485 -2.7539136,7.138664 0.9841066,1.432983 2.6157306,2.287547 4.3576206,2.28226"
     fill="none"
     stroke="#ffffff"
     stroke-linecap="round"
     stroke-linejoin="round"
     stroke-width="1"
     id="path1"
     style="stroke-width:1;stroke-dasharray:none" />
  <path
     d="m 8.1397548,23.859413 c -1.1345418,0.011 -3.3145712,0.461861 -2.4476186,3.919738 0,0 1.0659072,3.906429 5.7874858,1.68251"
     fill="none"
     stroke="#ffffff"
     stroke-linecap="round"
     stroke-linejoin="round"
     stroke-width="1"
     id="path2"
     style="stroke-width:1;stroke-dasharray:none" />
  <path
     d="m 19.478346,17.37641 c 0,0 -8.852084,-1.460209 -7.11001,6.670665 1.036222,4.836774 3.666459,5.409845 5.577681,5.110851"
     fill="none"
     stroke="#ffffff"
     stroke-linecap="round"
     stroke-linejoin="round"
     stroke-width="1"
     id="path3"
     style="stroke-width:1;stroke-dasharray:none" />
  <path
     d="m 24.966302,16.60018 c -2.020085,-0.601209 -7.36297,-1.49892 -6.674492,6.118498 0.524207,5.800969 2.626519,6.399201 4.151351,6.013547"
     fill="none"
     stroke="#ffffff"
     stroke-linecap="round"
     stroke-linejoin="round"
     stroke-width="1"
     id="path4"
     style="stroke-width:1;stroke-dasharray:none" />
  <path
     d="m 30.573119,17.495703 c 0,0 -7.541749,-5.502643 -7.06917,4.965792 0.114289,2.531057 0.551087,4.153038 1.142465,5.162204 l 0.01671,0.02777 c 0.332627,0.635788 0.629352,1.289685 0.888834,1.958472 0.194566,0.628191 0.373102,1.985758 2.138825,1.596822 0.115447,-0.02491 1.758475,-0.807506 1.860512,-0.866758"
     fill="none"
     stroke="#ffffff"
     stroke-linecap="round"
     stroke-linejoin="round"
     stroke-width="1"
     id="path5"
     style="stroke-width:1;stroke-dasharray:none" />
  <path
     d="m 35.117138,19.076786 c 0,0 -6.884602,-5.615253 -7.11763,4.082058 -0.05632,2.344671 0.256862,3.873005 0.75882,4.846619 l 0.0142,0.0268 c 0.277341,0.609413 0.519513,1.23414 0.725355,1.871143 0.145742,0.593734 0.228152,1.859597 1.95011,1.625932 0.210658,0.116544 2.011491,-0.790762 2.171862,-1.203025"
     fill="none"
     stroke="#ffffff"
     stroke-linecap="round"
     stroke-linejoin="round"
     stroke-width="1"
     id="path6"
     style="stroke-width:1;stroke-dasharray:none" />
  <path
     d="m 36.00707,31.772787 c -0.170977,0.110847 -0.369809,0.171435 -0.573701,0.174899 -1.703184,0.05469 -1.70672,-1.079842 -1.813512,-1.621373 -0.164028,-0.588265 -0.363531,-1.166077 -0.597351,-1.730398 l -0.01219,-0.0251 c -0.432775,-0.911567 -0.646846,-2.300066 -0.448562,-4.382328 0.820322,-8.612424 7.230578,-2.999542 7.230578,-2.999542 0,0 4.450039,3.984806 -3.78526,10.58384"
     fill="none"
     stroke="#ffffff"
     stroke-linecap="round"
     stroke-linejoin="round"
     stroke-width="1"
     id="path7"
     style="stroke-width:1;stroke-dasharray:none" />
  <path
     d="m 13.690738,29.884445 c 0,0 0.830319,0.243085 0,1.633711"
     fill="none"
     stroke="#ffffff"
     stroke-linecap="round"
     stroke-linejoin="round"
     stroke-width="1"
     id="path8"
     style="stroke-width:1;stroke-dasharray:none" />
  <path
     d="m 17.94559,29.155192 c 0,0 0.830258,0.243085 0,1.63371"
     fill="none"
     stroke="#ffffff"
     stroke-linecap="round"
     stroke-linejoin="round"
     stroke-width="1"
     id="path9"
     style="stroke-width:1;stroke-dasharray:none" />
  <path
     d="m 22.443222,28.733258 c 0,0 0.830319,0.243084 0,1.633771"
     fill="none"
     stroke="#ffffff"
     stroke-linecap="round"
     stroke-linejoin="round"
     stroke-width="1"
     id="path10"
     style="stroke-width:1;stroke-dasharray:none" />
  <path
     d="m 38.490408,29.633279 c 0.706216,1.178291 2.145591,0.210328 2.145591,0.210328 3.479147,-2.934334 1.030126,-4.779346 1.030126,-4.779346 -0.202063,-0.143055 -0.416744,-0.267453 -0.641483,-0.371614"
     fill="none"
     stroke="#ffffff"
     stroke-linecap="round"
     stroke-linejoin="round"
     stroke-width="1"
     id="path11"
     style="stroke-width:1;stroke-dasharray:none" />
  <path
     style="fill:none;stroke:#ffffff;stroke-width:1;stroke-linecap:round;stroke-linejoin:round;stroke-dashoffset:0.5;stroke-dasharray:none"
     d="m 13.690738,29.884445 4.254852,-0.729253 c 1.566608,-0.278144 3.685025,-0.278828 4.497571,-0.422967 1.716906,0.350853 2.439194,0.909366 3.275764,1.44402"
     id="path12" />
</svg>
