<?xml version="1.0" encoding="UTF-8" standalone="no"?>
<svg
   version="1.2"
   viewBox="0 0 48 48"
   id="svg11"
   xmlns="http://www.w3.org/2000/svg"
   xmlns:svg="http://www.w3.org/2000/svg">
  <defs
     id="defs1" />
  <path
     d="m 10.628043,26.689597 v 1.295407 12.209453 c 0,1.273351 1.032681,2.305541 2.306635,2.305541 h 25.306478 c 1.273954,0 2.306635,-1.03219 2.306635,-2.305541 v -12.209453 -1.29533 l -29.919748,-7.7e-5"
     fill="none"
     stroke="#ffffff"
     stroke-linecap="round"
     stroke-linejoin="round"
     stroke-width="1.15304"
     id="path1"
     style="stroke-width:1;stroke-dasharray:none" />
  <path
     d="M 11.51456,19.962105 37.154346,10.113295 35.380543,5.4999848 7.4521918,16.22782 8.7881179,19.702578"
     fill="none"
     stroke="#ffffff"
     stroke-linecap="round"
     stroke-linejoin="round"
     stroke-width="1.15304"
     id="path2"
     style="stroke-width:1;stroke-dasharray:none" />
  <path
     d="m 12.403307,21.747363 h 28.144484 v 4.942311"
     fill="none"
     stroke="#ffffff"
     stroke-linecap="round"
     stroke-linejoin="round"
     stroke-width="1.15304"
     id="path3"
     style="stroke-width:1;stroke-dasharray:none" />
  <path
     d="M 34.687093,11.078548 28.801021,8.0452251 32.162095,6.7538147 36.777057,9.1322113"
     fill="none"
     stroke="#ffffff"
     stroke-linecap="round"
     stroke-linejoin="round"
     stroke-width="1.15304"
     id="path4"
     style="stroke-width:1;stroke-dasharray:none" />
  <path
     d="m 13.020562,26.689674 h 3.600735 l 4.405134,-4.942311 H 17.42562 l -4.405058,4.942311"
     fill="none"
     stroke="#ffffff"
     stroke-linecap="round"
     stroke-linejoin="round"
     stroke-width="1.15304"
     id="path5"
     style="stroke-width:1;stroke-dasharray:none" />
  <path
     d="m 22.247102,26.689674 h 3.600735 l 4.405134,-4.942311 H 26.65216 l -4.405058,4.942311"
     fill="none"
     stroke="#ffffff"
     stroke-linecap="round"
     stroke-linejoin="round"
     stroke-width="1.15304"
     id="path6"
     style="stroke-width:1;stroke-dasharray:none" />
  <path
     d="m 31.473642,26.689674 h 3.600735 l 4.405134,-4.942311 H 35.8787 l -4.405058,4.942311"
     fill="none"
     stroke="#ffffff"
     stroke-linecap="round"
     stroke-linejoin="round"
     stroke-width="1.15304"
     id="path7"
     style="stroke-width:1;stroke-dasharray:none" />
  <path
     d="m 29.222289,13.174592 -3.361843,1.289028 -5.883918,-3.037473 3.361997,-1.289028 5.883764,3.037473"
     fill="none"
     stroke="#ffffff"
     stroke-linecap="round"
     stroke-linejoin="round"
     stroke-width="1.15304"
     id="path8"
     style="stroke-width:1;stroke-dasharray:none" />
  <path
     d="m 20.717265,16.44946 -3.37084,1.265357 -5.86239,-3.078665 3.370917,-1.265435 5.862313,3.078743"
     fill="none"
     stroke="#ffffff"
     stroke-linecap="round"
     stroke-linejoin="round"
     stroke-width="1.15304"
     id="path9"
     style="stroke-width:1;stroke-dasharray:none" />
  <path
     d="M 10.628043,26.422384 V 24.046679"
     fill="none"
     stroke="#ffffff"
     stroke-linecap="round"
     stroke-linejoin="round"
     stroke-width="1.15304"
     id="path10"
     style="stroke-width:1;stroke-dasharray:none" />
  <path
     d="m 8.0901301,21.747363 a 1.9310381,1.9301223 0 1 0 3.8620759,0 1.9310381,1.9301223 0 1 0 -3.8620759,0"
     fill="none"
     stroke="#ffffff"
     stroke-linecap="round"
     stroke-linejoin="round"
     stroke-width="1.15304"
     id="path11"
     style="stroke-width:1;stroke-dasharray:none" />
</svg>
