<?xml version="1.0" encoding="UTF-8" standalone="no"?>
<svg
   version="1.2"
   viewBox="0 0 48 48"
   id="svg18"
   xmlns="http://www.w3.org/2000/svg"
   xmlns:svg="http://www.w3.org/2000/svg">
  <defs
     id="defs1" />
  <path
     d="m 20.027732,16.701744 a 1.3240893,1.3241207 0 1 0 1.324089,-1.32412 1.3245528,1.3245842 0 0 0 -1.324089,1.32412"
     fill="none"
     stroke="#ffffff"
     stroke-linecap="round"
     stroke-linejoin="round"
     stroke-width="1"
     id="path1" />
  <path
     d="m 25.324089,16.701744 a 1.3240893,1.3241207 0 1 0 1.32409,-1.32412 1.3245528,1.3245842 0 0 0 -1.32409,1.32412"
     fill="none"
     stroke="#ffffff"
     stroke-linecap="round"
     stroke-linejoin="round"
     stroke-width="1"
     id="path2" />
  <path
     d="m 21.856366,24.717507 a 3.3083034,3.308382 0 0 0 4.28654,5.96e-4"
     fill="none"
     stroke="#ffffff"
     stroke-linecap="round"
     stroke-linejoin="round"
     stroke-width="1"
     id="path3" />
  <path
     d="M 14.06933,18.032816 A 9.93067,9.9309058 0 1 0 24,8.1019108 9.9343116,9.9345475 0 0 0 14.06933,18.032816"
     fill="none"
     stroke="#ffffff"
     stroke-linecap="round"
     stroke-linejoin="round"
     stroke-width="1"
     id="path4" />
  <path
     d="M 20.399206,8.7780069 A 4.9659308,4.9660488 0 1 0 14.464173,15.25832"
     fill="none"
     stroke="#ffffff"
     stroke-linecap="round"
     stroke-linejoin="round"
     stroke-width="1"
     id="path5" />
  <path
     d="m 7.4488832,36.63486 c 0,3.168356 2.225728,5.73715 4.9653348,5.73715 2.739608,0 4.965335,-2.568794 4.965335,-5.73715 0,-3.165509 -2.225727,-5.737151 -4.965335,-5.737151 -2.7396068,0 -4.9653348,2.571642 -4.9653348,5.737151"
     fill="none"
     stroke="#ffffff"
     stroke-linecap="round"
     stroke-linejoin="round"
     stroke-width="1"
     id="path6" />
  <path
     d="m 30.620447,36.63486 c 0,3.168356 2.225727,5.73715 4.965335,5.73715 2.739607,0 4.965335,-2.568794 4.965335,-5.73715 0,-3.165509 -2.225728,-5.737151 -4.965335,-5.737151 -2.739608,0 -4.965335,2.571642 -4.965335,5.737151"
     fill="none"
     stroke="#ffffff"
     stroke-linecap="round"
     stroke-linejoin="round"
     stroke-width="1"
     id="path7" />
  <path
     d="m 9.7093023,37.484151 a 2.6491718,2.6492347 0 0 0 2.6481787,2.648242"
     fill="none"
     stroke="#ffffff"
     stroke-linecap="round"
     stroke-linejoin="round"
     stroke-width="1"
     id="path8" />
  <path
     d="m 35.916804,40.132393 a 2.6491718,2.6492347 0 0 0 2.648179,-2.648242"
     fill="none"
     stroke="#ffffff"
     stroke-linecap="round"
     stroke-linejoin="round"
     stroke-width="1"
     id="path9" />
  <path
     d="m 19.034665,23.916018 c 0,2.235314 2.225728,4.047704 4.965335,4.047704 2.739607,0 4.965335,-1.81239 4.965335,-4.047704 0,-2.233262 -2.225662,-4.047639 -4.965335,-4.047639 -2.739673,0 -4.965335,1.814377 -4.965335,4.047639"
     fill="none"
     stroke="#ffffff"
     stroke-linecap="round"
     stroke-linejoin="round"
     stroke-width="1"
     id="path10" />
  <path
     d="M 33.536157,15.258386 A 4.9658646,4.9659825 0 1 0 27.601523,8.7772786"
     fill="none"
     stroke="#ffffff"
     stroke-linecap="round"
     stroke-linejoin="round"
     stroke-width="1"
     id="path11" />
  <path
     d="m 24,23.242107 c 0,0 -2.143304,-0.583276 -2.143304,-2.070727 0,-1.022619 1.012929,-1.231895 1.646175,-1.262814 l 0.836691,-0.0045 c 0.604249,0.0048 1.804006,0.154393 1.804006,1.267315 0,1.487451 -2.143237,2.070727 -2.143237,2.070727"
     fill="none"
     stroke="#ffffff"
     stroke-linecap="round"
     stroke-linejoin="round"
     stroke-width="1"
     id="path12" />
  <path
     d="m 13.59418,31.062363 c 0.74692,-3.464496 3.871571,-5.556407 3.871571,-5.556407"
     fill="none"
     stroke="#ffffff"
     stroke-linecap="round"
     stroke-linejoin="round"
     stroke-width="1"
     id="path13" />
  <path
     d="m 30.620447,25.505956 c 0,0 3.085856,2.065959 3.857336,5.491923"
     fill="none"
     stroke="#ffffff"
     stroke-linecap="round"
     stroke-linejoin="round"
     stroke-width="1"
     id="path14" />
  <path
     d="m 16.685466,29.886743 2.349199,4.012483 a 2.1317839,2.1318345 0 0 0 2.818853,0.876237 v 0 a 2.1317839,2.1318345 0 0 0 0.944275,-2.878043 l -0.672836,-1.314057"
     fill="none"
     stroke="#ffffff"
     stroke-linecap="round"
     stroke-linejoin="round"
     stroke-width="1"
     id="path15" />
  <path
     d="m 31.570348,29.886743 -2.509811,4.012483 a 2.1317839,2.1318345 0 0 1 -2.818854,0.876237 v 0 a 2.1317839,2.1318345 0 0 1 -0.944075,-2.877844 l 0.672836,-1.314058"
     fill="none"
     stroke="#ffffff"
     stroke-linecap="round"
     stroke-linejoin="round"
     stroke-width="1"
     id="path16" />
  <path
     d="m 16.244875,40.564983 c 0,0 6.258705,4.356887 15.51025,0"
     fill="none"
     stroke="#ffffff"
     stroke-linecap="round"
     stroke-linejoin="round"
     stroke-width="1"
     id="path17" />
  <path
     d="m 24,23.519775 v 1.986181"
     fill="none"
     stroke="#ffffff"
     stroke-linecap="round"
     stroke-linejoin="round"
     stroke-width="1"
     id="path18" />
</svg>
