<?xml version="1.0" encoding="UTF-8" standalone="no"?>
<svg
   version="1.2"
   viewBox="0 0 48 48"
   id="svg12"
   xmlns="http://www.w3.org/2000/svg"
   xmlns:svg="http://www.w3.org/2000/svg">
  <defs
     id="defs1" />
  <path
     d="m 24.000001,12.041036 c -10.217262,0 -18.5000006,-0.91763 -18.5000006,-2.0495739"
     fill="none"
     stroke="#ffffff"
     stroke-linecap="round"
     stroke-linejoin="round"
     id="path1"
     style="stroke-width:1;stroke-dasharray:none" />
  <path
     d="m 5.5000004,9.997587 c 0,-1.1319435 8.2827386,-2.0495748 18.5000006,-2.0495748 C 34.217262,7.9480122 42.5,8.8656435 42.5,9.997587 v -0.00612"
     fill="none"
     stroke="#ffffff"
     stroke-linecap="round"
     stroke-linejoin="round"
     id="path2"
     style="stroke-width:1;stroke-dasharray:none" />
  <path
     d="m 41.343751,13.497136 c 0,1.061218 -7.765086,1.921473 -17.34375,1.921473 -9.578665,0 -17.3437507,-0.860255 -17.3437507,-1.921473"
     fill="none"
     stroke="#ffffff"
     stroke-linecap="round"
     stroke-linejoin="round"
     id="path3"
     style="stroke-width:1;stroke-dasharray:none" />
  <path
     d="m 40.187501,16.574243 c 0,0.990435 -7.247376,1.79337 -16.1875,1.79337 -8.940125,0 -16.1875008,-0.802935 -16.1875008,-1.79337"
     fill="none"
     stroke="#ffffff"
     stroke-linecap="round"
     stroke-linejoin="round"
     id="path4"
     style="stroke-width:1;stroke-dasharray:none" />
  <path
     d="m 39.03125,19.523247 c 0,0.919712 -6.729721,1.665269 -15.031249,1.665269 -8.301528,0 -15.0312507,-0.745557 -15.0312507,-1.665269"
     fill="none"
     stroke="#ffffff"
     stroke-linecap="round"
     stroke-linejoin="round"
     id="path5"
     style="stroke-width:1;stroke-dasharray:none" />
  <path
     d="m 36.718751,22.921967 c 0,0.778204 -5.694358,1.409064 -12.71875,1.409064 -7.024393,0 -12.718751,-0.63086 -12.718751,-1.409064"
     fill="none"
     stroke="#ffffff"
     stroke-linecap="round"
     stroke-linejoin="round"
     id="path6"
     style="stroke-width:1;stroke-dasharray:none" />
  <path
     d="m 34.406251,26.06454 c 0,0.636697 -4.659052,1.15286 -10.40625,1.15286 -5.747199,0 -10.40625,-0.516163 -10.40625,-1.15286"
     fill="none"
     stroke="#ffffff"
     stroke-linecap="round"
     stroke-linejoin="round"
     id="path7"
     style="stroke-width:1;stroke-dasharray:none" />
  <path
     d="m 32.09375,28.950852 c 0,0.495246 -3.623687,0.896714 -8.093749,0.896714 -4.470063,0 -8.09375,-0.401468 -8.09375,-0.896714"
     fill="none"
     stroke="#ffffff"
     stroke-linecap="round"
     stroke-linejoin="round"
     id="path8"
     style="stroke-width:1;stroke-dasharray:none" />
  <path
     d="m 29.781251,31.869926 c 0,0.353739 -2.588381,0.64051 -5.78125,0.64051 -3.192869,0 -5.781251,-0.286771 -5.781251,-0.64051"
     fill="none"
     stroke="#ffffff"
     stroke-linecap="round"
     stroke-linejoin="round"
     id="path9"
     style="stroke-width:1;stroke-dasharray:none" />
  <path
     d="m 28.625,34.532737 c 0,0.282958 -2.07067,0.512408 -4.624999,0.512408 -2.55433,0 -4.625,-0.229392 -4.625,-0.512408"
     fill="none"
     stroke="#ffffff"
     stroke-linecap="round"
     stroke-linejoin="round"
     id="path10"
     style="stroke-width:1;stroke-dasharray:none" />
  <path
     d="m 26.312501,37.356414 c 0,0.141507 -1.035365,0.256204 -2.3125,0.256204 -1.277136,0 -2.312501,-0.114697 -2.312501,-0.256204"
     fill="none"
     stroke="#ffffff"
     stroke-linecap="round"
     stroke-linejoin="round"
     id="path11"
     style="stroke-width:1;stroke-dasharray:none" />
  <path
     d="m 25.15625,39.923886 c 0,0.07073 -0.517652,0.128102 -1.156249,0.128102 -0.638597,0 -1.15625,-0.05738 -1.15625,-0.128102"
     fill="none"
     stroke="#ffffff"
     stroke-linecap="round"
     stroke-linejoin="round"
     id="path12"
     style="stroke-width:1;stroke-dasharray:none" />
</svg>
