<?xml version="1.0" encoding="UTF-8" standalone="no"?>
<svg
   version="1.2"
   viewBox="0 0 48 48"
   id="svg7"
   xmlns="http://www.w3.org/2000/svg"
   xmlns:svg="http://www.w3.org/2000/svg">
  <defs
     id="defs1" />
  <path
     d="m 21.120336,11.452308 4.579561,-5.9531196 c -0.309288,0.4904821 -0.587,1.0001756 -0.831446,1.5259816 -1.899307,4.159395 1.446988,4.34407 1.446988,4.34407 7.827174,1.021364 13.842751,7.140827 13.842751,14.5372 0,8.111288 -7.234258,14.686849 -16.15819,14.686849 -8.923932,0 -16.1581899,-6.575561 -16.1581899,-14.686849 0,-5.60953 3.4598359,-10.484521 8.5457609,-12.958133 0.681687,-0.331318 1.384865,-0.616467 2.104783,-0.853523 0.05625,-0.01845 0.112606,-0.03661 0.169084,-0.05451 0.07356,-0.0234 0.147366,-0.04631 0.221423,-0.06876 0.733551,-0.222243 1.481011,-0.395688 2.237475,-0.519201"
     fill="none"
     stroke="#ffffff"
     stroke-linecap="round"
     stroke-linejoin="round"
     stroke-width="1"
     id="path1" />
  <path
     d="M 23.84073,40.7351 19.890001,42.500067 23.84073,40.7351"
     fill="none"
     stroke="#ffffff"
     stroke-linecap="round"
     stroke-linejoin="round"
     stroke-width="1"
     id="path2" />
  <path
     d="m 21.375426,36.13603 c -1.587924,-1.596648 -2.713851,-5.613142 -2.713851,-10.315521 0,-3.955436 0.796892,-7.425607 1.994923,-9.378453"
     fill="none"
     stroke="#ffffff"
     stroke-linecap="round"
     stroke-linejoin="round"
     stroke-width="1"
     id="path3" />
  <path
     d="m 15.480614,33.707939 c -1.196124,-1.202904 -2.044539,-4.229041 -2.044539,-7.771855 0,-2.980138 0.600413,-5.594743 1.503009,-7.065936"
     fill="none"
     stroke="#ffffff"
     stroke-linecap="round"
     stroke-linejoin="round"
     stroke-width="1"
     id="path4" />
  <path
     d="m 32.896059,33.707939 c 1.196122,-1.202904 2.044538,-4.229041 2.044538,-7.771855 0,-2.980138 -0.600481,-5.594743 -1.503077,-7.065936"
     fill="none"
     stroke="#ffffff"
     stroke-linecap="round"
     stroke-linejoin="round"
     stroke-width="1"
     id="path5" />
  <path
     d="m 26.036973,36.13603 c 1.587925,-1.596648 2.71392,-5.613142 2.71392,-10.315521 0,-3.955436 -0.796892,-7.425607 -1.994992,-9.378453"
     fill="none"
     stroke="#ffffff"
     stroke-linecap="round"
     stroke-linejoin="round"
     stroke-width="1"
     id="path6" />
  <path
     d="m 27.206109,42.5 -3.36531,-1.764968 V 42.5"
     fill="none"
     stroke="#ffffff"
     stroke-linecap="round"
     stroke-linejoin="round"
     stroke-width="1"
     id="path7" />
</svg>
