<?xml version="1.0" encoding="UTF-8" standalone="no"?>
<svg
   version="1.2"
   viewBox="0 0 48 48"
   id="svg4"
   xmlns="http://www.w3.org/2000/svg"
   xmlns:svg="http://www.w3.org/2000/svg">
  <defs
     id="defs1" />
  <path
     d="m 41.868358,29.366789 c 1.057485,-3.753723 2.339968,-13.250642 -10.387357,-17.267126 0,0 0.202498,-2.042025 -1.709976,-2.2071894 -1.912474,-0.165164 -2.197469,1.9969804 -2.197469,1.9969804 -14.864796,0.780775 -14.5798,15.585458 -14.5798,15.585458 1.910073,-0.258931 3.850297,-0.190388 5.737421,0.202701 1.829974,0.38288 5.579923,1.306296 9.284872,1.996982 1.43248,0.270268 2.87246,0.480475 4.162443,0.660654 0,0 1.671876,0.216065 2.88746,0.397895 1.215583,0.18183 3.509202,0.533029 4.499938,0.533029 0.990736,0 2.021672,-0.837305 2.302468,-1.899384 v 0"
     fill="none"
     stroke="#ffffff"
     stroke-linecap="round"
     stroke-linejoin="round"
     stroke-width="1"
     id="path1" />
  <path
     d="m 5.5013594,33.631018 c -0.044999,0.750745 0.8099888,0.653148 1.4999794,0.405402 0.6899904,-0.247745 6.1574142,-1.546533 12.3673292,2.935412 6.209914,4.481945 17.226437,-5.601456 15.748359,-6.128479"
     fill="none"
     stroke="#ffffff"
     stroke-linecap="round"
     stroke-linejoin="round"
     stroke-width="1"
     id="path2" />
  <path
     d="m 18.731177,27.685121 c 1.154984,-7.454894 3.877446,-11.553959 5.999917,-13.693581 1.387481,-1.4114 2.137471,-2.162821 5.729921,-1.689852 l 0.04605,0.0075 c 1.095434,0.186785 1.943897,1.052244 2.263693,2.117475 0.584542,1.946907 2.058647,7.822008 -0.512768,15.691614"
     fill="none"
     stroke="#ffffff"
     stroke-linecap="round"
     stroke-linejoin="round"
     stroke-width="1"
     id="path3" />
  <path
     d="M 12.873758,27.519957 5.5013594,33.631018"
     fill="none"
     stroke="#ffffff"
     stroke-linecap="round"
     stroke-linejoin="round"
     stroke-width="1"
     id="path4" />
</svg>
