<?xml version="1.0" encoding="UTF-8" standalone="no"?>
<svg
   version="1.2"
   viewBox="0 0 48 48"
   id="svg6"
   xmlns="http://www.w3.org/2000/svg"
   xmlns:svg="http://www.w3.org/2000/svg">
  <defs
     id="defs1" />
  <path
     d="M 10.764656,29.960545 H 6.1432218 c -0.3256653,0 -0.5863041,-0.259691 -0.5922264,-0.584302 l -0.050872,-3.70471 c -0.00331,-0.280583 0.059874,-0.557152 0.1853077,-0.808402 0.1562293,-0.312986 0.3555135,-0.709012 0.3792618,-0.740411 0.034171,-0.04515 0.5319969,-1.438209 1.3814865,-4.490743 0.858669,-3.086767 6.2361446,-3.494007 8.0600826,-3.541223 0.331706,-0.0059 0.604071,0.259689 0.604071,0.590204 V 29.37034 c 0,0.188865 -0.0014,0.439703 -0.0014,0.439703"
     fill="none"
     stroke="#ffffff"
     stroke-linecap="round"
     stroke-linejoin="round"
     stroke-width="0.886821"
     id="path1"
     style="stroke-width:1;stroke-dasharray:none" />
  <path
     d="M 30.054031,29.553304 H 18.183125 V 16.049439 c 0,-0.324611 0.266562,-0.590203 0.592227,-0.590203 h 23.132422 c 0.325724,0 0.592226,0.265592 0.592226,0.590203 V 28.9631 c 0,0.324612 -0.266502,0.590204 -0.592226,0.590204 h -3.939716"
     fill="none"
     stroke="#ffffff"
     stroke-linecap="round"
     stroke-linejoin="round"
     stroke-width="0.886821"
     id="path2"
     style="stroke-width:1;stroke-dasharray:none" />
  <path
     d="M 9.0392088,23.539126 H 12.049673 V 20.047068"
     fill="none"
     stroke="#ffffff"
     stroke-linecap="round"
     stroke-linejoin="round"
     stroke-width="0.886821"
     id="path3"
     style="stroke-width:1;stroke-dasharray:none" />
  <path
     d="m 10.569108,30.769124 a 1.7766793,1.7706117 0 1 0 3.553358,0 1.7766793,1.7706117 0 1 0 -3.553358,0"
     fill="none"
     stroke="#ffffff"
     stroke-linecap="round"
     stroke-linejoin="round"
     stroke-width="0.886821"
     id="path4"
     style="stroke-width:1;stroke-dasharray:none" />
  <path
     d="m 34.899781,30.769124 a 1.7766795,1.7706119 0 1 0 3.553359,0 1.7766795,1.7706119 0 1 0 -3.553359,0"
     fill="none"
     stroke="#ffffff"
     stroke-linecap="round"
     stroke-linejoin="round"
     stroke-width="0.886821"
     id="path5"
     style="stroke-width:1;stroke-dasharray:none" />
  <path
     d="m 29.569744,30.769124 a 1.7766792,1.7706116 0 1 0 3.553358,0 1.7766792,1.7706116 0 1 0 -3.553358,0"
     fill="none"
     stroke="#ffffff"
     stroke-linecap="round"
     stroke-linejoin="round"
     stroke-width="0.886821"
     id="path6"
     style="stroke-width:1;stroke-dasharray:none" />
  <path
     style="fill:none;stroke:#ffffff;stroke-width:1;stroke-linecap:round;stroke-linejoin:round;stroke-dasharray:none;stroke-dashoffset:0.5"
     d="m 32.682371,29.601031 2.646294,0.01445"
     id="path7" />
  <path
     style="fill:none;stroke:#ffffff;stroke-width:1;stroke-linecap:round;stroke-linejoin:round;stroke-dasharray:none;stroke-dashoffset:0.5"
     d="m 16.108933,29.810043 -2.25674,0.01929"
     id="path8" />
</svg>
