<?xml version="1.0" encoding="UTF-8" standalone="no"?>
<svg
   version="1.2"
   viewBox="0 0 48 48"
   id="svg5"
   xmlns="http://www.w3.org/2000/svg"
   xmlns:svg="http://www.w3.org/2000/svg">
  <defs
     id="defs1" />
  <path
     d="m 24.216026,24.805225 11.982391,3.410221 c 0.97405,0.279905 1.876084,0.756081 2.654356,1.405234 1.919507,1.600967 5.136157,4.594481 2.868455,4.983932 C 38.605251,35.139856 23.231679,30.564372 18.737685,29.1488 14.243757,27.733162 9.4039158,25.060634 6.3819007,22.796149 c -2.6450266,-1.98196 1.5054034,-1.286894 1.5054034,-1.286894 0,0 4.7759469,0.703389 6.7396159,1.207823 l 4.110765,0.862973"
     fill="none"
     stroke="#ffffff"
     stroke-linecap="round"
     stroke-linejoin="round"
     stroke-width="1"
     id="path1"
     style="stroke-width:1;stroke-dasharray:none" />
  <path
     d="M 14.045468,22.579262 8.9491402,13.66223 6.8831873,12.963808 7.8873041,21.509255"
     fill="none"
     stroke="#ffffff"
     stroke-linecap="round"
     stroke-linejoin="round"
     stroke-width="1"
     id="path2"
     style="stroke-width:1;stroke-dasharray:none" />
  <path
     d="m 29.185037,29.394138 -12.174774,-11.243483 -1.724536,-0.0739 6.399608,10.080766"
     fill="none"
     stroke="#ffffff"
     stroke-linecap="round"
     stroke-linejoin="round"
     stroke-width="1.00679"
     id="path3"
     style="stroke-width:1;stroke-dasharray:none" />
  <path
     d="m 19.928383,32.630438 a 1.3423126,1.3424735 0 1 0 2.684625,0 1.3423126,1.3424735 0 1 0 -2.684625,0"
     fill="none"
     stroke="#ffffff"
     stroke-linecap="round"
     stroke-linejoin="round"
     stroke-width="1.00679"
     id="path4"
     style="stroke-width:1;stroke-dasharray:none" />
  <path
     d="m 23.498733,33.689784 a 1.3423126,1.3424735 0 1 0 2.684625,0 1.3423126,1.3424735 0 1 0 -2.684625,0"
     fill="none"
     stroke="#ffffff"
     stroke-linecap="round"
     stroke-linejoin="round"
     stroke-width="1.00679"
     id="path5"
     style="stroke-width:1;stroke-dasharray:none" />
</svg>
