<?xml version="1.0" encoding="UTF-8" standalone="no"?>
<svg
   version="1.2"
   viewBox="0 0 48 48"
   id="svg7"
   xmlns="http://www.w3.org/2000/svg"
   xmlns:svg="http://www.w3.org/2000/svg">
  <defs
     id="defs1" />
  <path
     d="M 26.303571,6.4928577 A 17.660714,17.660714 0 0 1 37.360714,12.482143"
     fill="none"
     stroke="#ffffff"
     stroke-linecap="round"
     stroke-linejoin="round"
     stroke-width="1.15179"
     id="path1"
     style="stroke-width:1;stroke-dasharray:none" />
  <path
     d="M 26.303571,41.507143 A 17.660714,17.660714 0 0 0 41.507143,26.303572 H 26.303571 v 15.203571 m 0,-9.060715 H 39.357142 M 30.910714,26.303572 V 40.125"
     fill="none"
     stroke="#ffffff"
     stroke-linecap="round"
     stroke-linejoin="round"
     stroke-width="1.15179"
     id="path2"
     style="stroke-width:1;stroke-dasharray:none" />
  <path
     d="M 26.303571,21.696429 H 41.507143 A 17.660714,17.660714 0 0 0 39.433928,15.553572 H 26.303571 v 6.142857"
     fill="none"
     stroke="#ffffff"
     stroke-linecap="round"
     stroke-linejoin="round"
     stroke-width="1.15179"
     id="path3"
     style="stroke-width:1;stroke-dasharray:none" />
  <path
     d="M 21.696429,17.089286 V 6.4928577 A 17.660714,17.660714 0 0 0 7.6446428,17.089286"
     fill="none"
     stroke="#ffffff"
     stroke-linecap="round"
     stroke-linejoin="round"
     stroke-width="1.15179"
     id="path4"
     style="stroke-width:1;stroke-dasharray:none" />
  <path
     d="M 21.696429,41.507143 V 21.696429 H 6.4928572 a 17.660714,17.660714 0 0 0 1.3821426,9.214286"
     fill="none"
     stroke="#ffffff"
     stroke-linecap="round"
     stroke-linejoin="round"
     stroke-width="1.15179"
     id="path5"
     style="stroke-width:1;stroke-dasharray:none" />
  <path
     d="M 14.785714,21.696429 V 38.973214"
     fill="none"
     stroke="#ffffff"
     stroke-linecap="round"
     stroke-linejoin="round"
     stroke-width="1.15179"
     id="path6"
     style="stroke-width:1;stroke-dasharray:none" />
  <path
     d="m 2.5,24 a 21.5,21.5 0 1 0 43,0 21.5,21.5 0 1 0 -43,0"
     fill="none"
     stroke="#ffffff"
     stroke-linecap="round"
     stroke-linejoin="round"
     stroke-width="1.15179"
     id="path7"
     style="stroke-width:1;stroke-dasharray:none" />
</svg>
