<?xml version="1.0" encoding="UTF-8" standalone="no"?>
<svg
   version="1.2"
   viewBox="0 0 48 48"
   id="svg6"
   xmlns="http://www.w3.org/2000/svg"
   xmlns:svg="http://www.w3.org/2000/svg">
  <defs
     id="defs1" />
  <path
     d="m 29.273773,9.8963211 c 0.395791,1.0596479 1.169262,1.9342619 2.17279,2.4558299 0.948403,0.627373 2.096658,0.876714 3.219852,0.702618"
     fill="none"
     stroke="#ffffff"
     stroke-linecap="round"
     stroke-linejoin="round"
     stroke-width="1.08771"
     id="path2" />
  <path
     d="m 18.726227,9.8963211 c -0.39579,1.0596479 -1.169262,1.9342619 -2.17279,2.4558299 -0.948403,0.627373 -2.096658,0.876714 -3.219851,0.702618"
     fill="none"
     stroke="#ffffff"
     stroke-linecap="round"
     stroke-linejoin="round"
     stroke-width="1.08771"
     id="path3" />
  <path
     d="m 32.112539,33.223772 c 1.782215,0 3.935519,1.410015 3.935519,2.666645 0,0.851223 -0.662862,1.593237 -1.644369,1.983435 0.692197,2.253922 -0.900306,3.375128 -2.159026,3.538796 -0.7395,0.09617 -1.530862,-0.299962 -2.018284,-0.791548 0,1.013442 -0.821787,1.835045 -1.835455,1.835045 -1.013669,0 -2.111074,-0.678572 -2.111074,-1.692017 -0.226434,0.756715 -0.928122,1.308266 -1.758745,1.308266 -0.795927,0 -1.638212,-0.649172 -1.892608,-1.357367 -0.2641,1.081374 -1.168537,1.600624 -2.111074,1.404439 -0.778904,-0.162149 -1.329489,-0.761133 -1.41576,-1.428409 -0.127922,0.888519 -1.107112,1.765088 -2.031178,1.765088 -1.013668,0 -1.835454,-0.821603 -1.835454,-1.835045 -1.01367,0 -2.282023,-0.641424 -2.282023,-1.654939 0,-1.013444 0.831058,-1.92731 1.844727,-1.92731 -0.488581,-0.329728 -0.809834,-0.888375 -0.809834,-1.522048 0,-1.013444 1.258068,-2.003279 2.271736,-2.003279 -0.09511,-0.192854 -0.180293,-0.389908 -0.25512,-0.590801 -0.248237,-0.666697 -0.381954,-1.37547 -0.381954,-2.110387 0,-3.919435 3.804048,-7.096785 8.496521,-7.096785 4.692475,0 8.496523,3.17735 8.496523,7.096785 0,0.846588 -0.177468,1.658631 -0.503068,2.411436"
     fill="none"
     stroke="#ffffff"
     stroke-linecap="round"
     stroke-linejoin="round"
     stroke-width="1.08771"
     id="path4" />
  <path
     d="m 16.153591,15.213387 4.771358,2.906861 -4.771358,2.706983"
     fill="none"
     stroke="#ffffff"
     stroke-linecap="round"
     stroke-linejoin="round"
     stroke-width="1.08771"
     id="path5" />
  <path
     d="m 31.84641,15.213387 -4.771358,2.906861 4.771358,2.706983"
     fill="none"
     stroke="#ffffff"
     stroke-linecap="round"
     stroke-linejoin="round"
     stroke-width="1.08771"
     id="path6" />
  <path
     id="path7"
     style="fill:none;stroke:#ffffff;stroke-width:1;stroke-linecap:round;stroke-linejoin:round;stroke-dashoffset:0.5"
     d="M 13.987901,35.516803 C 9.7520628,32.585366 7.1586371,27.809257 7.1586371,22.337618 7.1586371,13.038458 14.698772,5.5000002 24,5.5000002 c 9.301228,0 16.841363,7.5384578 16.841363,16.8376178 0,4.87423 -2.071591,9.264723 -5.382542,12.339433" />
</svg>
