<?xml version="1.0" encoding="UTF-8" standalone="no"?>
<svg
   version="1.2"
   viewBox="0 0 48 48"
   id="svg3"
   xmlns="http://www.w3.org/2000/svg"
   xmlns:svg="http://www.w3.org/2000/svg">
  <defs
     id="defs1" />
  <path
     d="m 17.194818,34.400613 c -3.622959,-1.743622 -6.123347,-5.447968 -6.123347,-9.735889 0,-5.964466 4.8377,-10.799671 10.805376,-10.799671 5.384207,0 9.848605,3.935893 10.670082,9.086065"
     fill="none"
     stroke="#ffffff"
     stroke-linecap="round"
     stroke-linejoin="round"
     stroke-width="1"
     id="path1"
     style="stroke-width:1;stroke-dasharray:none" />
  <path
     d="m 23.311767,30.307474 c -0.01428,0.162751 -0.146193,0.294422 -0.309565,0.311887 -1.980359,0.21201 -3.503481,2.160952 -3.503481,4.533145 0,2.513868 1.744306,4.551736 3.895975,4.551736 h 14.852935 c 2.363969,0 4.280295,-2.153611 4.280295,-4.810222 0,-2.545897 -1.760004,-4.629884 -3.987257,-4.79909 -0.17042,-0.01297 -0.308616,-0.132144 -0.341078,-0.29898 -0.497578,-2.553595 -2.792833,-4.472639 -5.506409,-4.472639 -1.763617,0 -3.334601,0.798013 -4.354813,2.067468 -0.09969,0.124033 -0.266974,0.180869 -0.414174,0.119178 C 27.531642,27.34543 27.117053,27.2658 26.65312,27.2658 c -1.753014,1.18e-4 -3.191962,1.337244 -3.341353,3.041674 v 0"
     fill="none"
     stroke="#ffffff"
     stroke-linecap="round"
     stroke-linejoin="round"
     stroke-width="1"
     id="path2"
     style="stroke-width:1;stroke-dasharray:none" />
  <path
     d="m 18.774041,34.982076 -5.075122,3.861633 0.470803,-6.449052 -6.4523406,0.470496 3.6287636,-5.351051 -5.8182837,-2.822204 5.8183437,-2.822263 -3.6285867,-5.351347 6.4524597,0.470555 -0.470744,-6.448934 5.353877,3.626849 2.823636,-5.8152126 2.823813,5.8152706 5.354175,-3.62667 -0.470804,6.448993 6.45234,-0.470436 -3.628763,5.35105"
     fill="none"
     stroke="#ffffff"
     stroke-linecap="round"
     stroke-linejoin="round"
     stroke-width="1"
     id="path3"
     style="stroke-width:1;stroke-dasharray:none" />
  <path
     style="fill:none;stroke:#ffffff;stroke-width:1;stroke-linecap:round;stroke-linejoin:round;stroke-dashoffset:0.5;stroke-dasharray:none"
     d="m 32.546929,22.951118 c 0.14224,0.870823 0.149478,1.625989 0.146253,2.372193"
     id="path4" />
  <path
     style="fill:none;stroke:#ffffff;stroke-width:1;stroke-linecap:round;stroke-linejoin:round;stroke-dashoffset:0.5;stroke-dasharray:none"
     d="m 17.194818,34.400613 c 0.784922,0.37774 1.548774,0.597512 2.303903,0.751893"
     id="path5" />
</svg>
