<?xml version="1.0" encoding="UTF-8" standalone="no"?>
<svg
   version="1.2"
   viewBox="0 0 48 48"
   id="svg5"
   xmlns="http://www.w3.org/2000/svg"
   xmlns:svg="http://www.w3.org/2000/svg">
  <defs
     id="defs1" />
  <path
     d="M 38.265405,29.259876 H 39.1559 c 0.509897,-3.7e-5 0.923241,-0.41343 0.923278,-0.923388 v 0 c -1.5e-5,-0.669282 -0.487424,-1.238838 -1.148599,-1.342185 l -1.866637,-0.291676 c -0.703218,-0.109866 -1.142802,-0.82107 -0.926695,-1.499293 l 0.361103,-1.13323 c 0.338918,-0.924973 0.547793,-1.892525 0.620641,-2.87495 C 37.60392,14.687581 32.088974,8.9716999 24.800825,8.4283775 17.512675,7.8850552 12.013984,12.830285 10.725848,19.227472 c -0.271753,1.681035 -0.07319,3.404489 0.573719,4.979657 l 0.09815,0.223777 c 0.544094,1.241052 -0.325466,2.642023 -1.6789492,2.705 l -1.4472754,0.06735 c -0.7187451,0.03344 -1.2842317,0.626065 -1.2840387,1.345672 v 0 c 1.885e-4,0.507286 0.4114088,0.918433 0.9186342,0.918471 h 3.3516141 c 0.531962,-0.05245 1.00742,0.332116 1.067392,0.863345 v 0 c 0.06063,0.524576 -0.332236,0.992216 -0.85935,1.022913 L 7.1821055,31.217722 c -0.9234236,-0.01864 -1.6820492,0.724893 -1.6820908,1.648615 v 0.03415 c -0.00322,0.60466 0.4857443,1.096681 1.0903402,1.097164 h 9.4390511 c 0.534466,-0.03313 0.996567,0.368926 1.037749,0.902896 v 0 c 0.09465,0.57308 -0.36058,1.088647 -0.940899,1.065606 l -4.698217,0.179514 c -0.641803,0.02248 -1.150469,0.54936 -1.150443,1.191634 v 0 c 8e-6,0.635959 0.53828,1.139053 1.172709,1.09607 l 0.277844,-0.01885 c 1.426086,-0.09666 2.856872,0.09939 4.204408,0.576111 l 0.450779,0.159362 c 1.315544,0.465395 2.729235,0.581844 4.103187,0.337989 l 4.450765,-0.790526 c 1.599972,-0.28402 3.239587,-0.25821 6.114346,0.266846 l 3.32935,0.190819 c 0.65329,0 1.182886,-0.52966 1.182886,-1.183028 v 0 c -1.5e-5,-0.76503 -0.591608,-1.399769 -1.354661,-1.453458 l -0.515869,-0.03627 c -0.584238,-0.04107 -1.03721,-0.527059 -1.037203,-1.112807 v 0 c -7.2e-5,-1.197467 1.041025,-2.128905 2.230949,-1.995961 l 0.933729,0.104237 c 0.979869,0.109373 1.968363,0.118093 2.95001,0.02603 l 1.770881,-0.166125 c 1.109851,-0.104197 1.95817,-1.035885 1.958295,-2.150748 v 0 c 3.8e-5,-1.062528 -0.861198,-1.923896 -1.923599,-1.923896 h -3.281881"
     fill="none"
     stroke="#ffffff"
     stroke-linecap="round"
     stroke-linejoin="round"
     stroke-width="1"
     id="path2"
     style="stroke-width:1;stroke-dasharray:none" />
  <path
     d="m 22.01207,17.584253 a 2.048998,2.0492418 0 1 1 -2.048998,-2.049242 2.0497493,2.0499932 0 0 1 2.048998,2.049242"
     fill="none"
     stroke="#ffffff"
     stroke-linecap="round"
     stroke-linejoin="round"
     stroke-width="1.02456"
     id="path3"
     style="stroke-width:1;stroke-dasharray:none" />
  <path
     d="m 30.208062,21.13313 a 2.048998,2.0492418 0 1 1 -2.048998,-2.049242 2.0497493,2.0499932 0 0 1 2.048998,2.049242"
     fill="none"
     stroke="#ffffff"
     stroke-linecap="round"
     stroke-linejoin="round"
     stroke-width="1.02456"
     id="path4"
     style="stroke-width:1;stroke-dasharray:none" />
  <path
     d="m 21.251277,26.057048 a 7.4229051,7.4237883 0 0 0 7.43315,2.2181"
     fill="none"
     stroke="#ffffff"
     stroke-linecap="round"
     stroke-linejoin="round"
     stroke-width="1.02456"
     id="path5"
     style="stroke-width:1;stroke-dasharray:none" />
</svg>
