<?xml version="1.0" encoding="UTF-8" standalone="no"?>
<svg
   version="1.2"
   viewBox="0 0 48 48"
   id="svg4"
   xmlns="http://www.w3.org/2000/svg"
   xmlns:svg="http://www.w3.org/2000/svg">
  <defs
     id="defs1" />
  <path
     d="M 41.759999,42.5 H 6.2399996 c -0.408702,0 -0.74,-0.331298 -0.74,-0.74 V 6.24 c 0,-0.408702 0.331298,-0.74 0.74,-0.74 H 41.759999 C 42.168701,5.5 42.5,5.831298 42.5,6.24 v 35.52 c 0,0.408702 -0.331299,0.74 -0.740001,0.74"
     fill="none"
     stroke="#ffffff"
     stroke-linecap="round"
     stroke-linejoin="round"
     stroke-width="1.11"
     id="path1"
     style="stroke-width:1;stroke-dasharray:none" />
  <path
     d="m 17.142863,30.677612 c 0,0 4.845298,-1.93806 9.690522,0"
     fill="none"
     stroke="#ffffff"
     stroke-linecap="round"
     stroke-linejoin="round"
     stroke-width="1.11"
     id="path2"
     style="stroke-width:1;stroke-dasharray:none" />
  <path
     d="m 40.649999,15.6084 v 3.6038 c 0,0.4144 -0.333,0.74 -0.74,0.74 h -12.4912 c -2.101599,0 -2.5974,1.8204 -2.7084,2.8342 -0.0444,0.37 -0.3552,0.6512 -0.7326,0.6512 h -3.7148 C 19.856,23.4376 19.530399,23.1194 19.523,22.712326 19.5156,20.6404 20.129799,14.8684 27.389273,14.8684 h 3.825726 v -3.293 h -3.515 V 9.2 H 37.505 v 2.3754 h -3.515001 v 3.293 h 5.92 c 0.407,0 0.74,0.333 0.74,0.74"
     fill="none"
     stroke="#ffffff"
     stroke-linecap="round"
     stroke-linejoin="round"
     stroke-width="1.11"
     id="path3"
     style="stroke-width:1;stroke-dasharray:none" />
  <path
     d="M 15.366641,23.110224 18.273806,38.615 h 7.752387 l 2.907165,-15.504776"
     fill="none"
     stroke="#ffffff"
     stroke-linecap="round"
     stroke-linejoin="round"
     stroke-width="1.11"
     id="path4"
     style="stroke-width:1;stroke-dasharray:none" />
</svg>
