<?xml version="1.0" encoding="UTF-8" standalone="no"?>
<svg
   version="1.2"
   viewBox="0 0 48 48"
   id="svg7"
   xmlns="http://www.w3.org/2000/svg"
   xmlns:svg="http://www.w3.org/2000/svg">
  <defs
     id="defs1" />
  <path
     d="m 34.6505,16.157535 c 0,2.56618 -1.148711,3.804515 -2.415829,6.761578 -0.323569,0.754721 -2.709925,8.616183 -2.709925,8.616183 H 18.475255 c 0,0 -1.918378,-7.515011 -2.281974,-8.126773 -1.525177,-2.574552 -2.84378,-4.449763 -2.84378,-7.250988 0,-5.886437 4.768592,-10.6575351 10.650499,-10.6575351 5.881907,0 10.6505,4.7717421 10.6505,10.6575351 v 0"
     fill="none"
     stroke="#ffffff"
     stroke-linecap="round"
     stroke-linejoin="round"
     stroke-width="1"
     id="path1" />
  <path
     d="m 29.251244,38.721888 c 0,2.08643 -2.349546,3.778112 -5.248026,3.778112 -2.89848,0 -5.248025,-1.691682 -5.248025,-3.778112 h 10.496051"
     fill="none"
     stroke="#ffffff"
     stroke-linecap="round"
     stroke-linejoin="round"
     stroke-width="1"
     id="path2" />
  <path
     d="M 24,31.271273 V 23.582392"
     fill="none"
     stroke="#ffffff"
     stroke-linecap="round"
     stroke-linejoin="round"
     stroke-width="1"
     id="path3" />
  <path
     d="M 27.841903,23.582392 H 20.158098"
     fill="none"
     stroke="#ffffff"
     stroke-linecap="round"
     stroke-linejoin="round"
     stroke-width="1"
     id="path4" />
  <path
     d="M 18.660209,36.283463 29.387994,33.961377"
     fill="none"
     stroke="#ffffff"
     stroke-linecap="round"
     stroke-linejoin="round"
     stroke-width="1"
     id="path5" />
  <path
     d="m 25.415777,36.970317 3.972217,-0.784034"
     fill="none"
     stroke="#ffffff"
     stroke-linecap="round"
     stroke-linejoin="round"
     stroke-width="1"
     id="path6" />
  <path
     d="m 18.615224,34.176381 3.969,-0.844437"
     fill="none"
     stroke="#ffffff"
     stroke-linecap="round"
     stroke-linejoin="round"
     stroke-width="1"
     id="path7" />
  <path
     style="fill:none;stroke:#ffffff;stroke-width:1;stroke-linecap:round;stroke-linejoin:round;stroke-dashoffset:0.5"
     d="m 29.251244,38.721888 0.273502,-7.186592"
     id="path8" />
  <path
     style="fill:none;stroke:#ffffff;stroke-width:1;stroke-linecap:round;stroke-linejoin:round;stroke-dashoffset:0.5"
     d="m 18.475255,31.535296 0.279938,7.186592"
     id="path9" />
</svg>
