<?xml version="1.0" encoding="UTF-8" standalone="no"?>
<svg
   version="1.2"
   viewBox="0 0 48 48"
   id="svg5"
   xmlns="http://www.w3.org/2000/svg"
   xmlns:svg="http://www.w3.org/2000/svg">
  <defs
     id="defs1" />
  <path
     d="m 9.5046635,32.412978 c -0.08009,-0.160247 -2.082426,-3.285075 -0.800933,-5.608665 1.041212,-1.842847 3.6842885,-2.32359 4.0046605,-2.403714 M 28.72704,17.990696 c 0.24028,-0.721114 1.201399,-2.72421 0.800932,-4.00619 C 29.2076,12.942897 28.807133,11.580793 25.52331,9.9783161 L 19.115851,6.7733648 c 0.15482,0.7937863 0.15482,1.6099273 0,2.4037143 -0.160187,0.8813609 -0.440513,5.0311819 -1.329246,6.7574469 m 19.750691,16.478452 c 0.48056,0.08013 3.844476,0.400619 4.805595,3.204953 0.800932,2.403713 -1.601865,5.608664 -4.805595,5.608664 -3.44401,0 -5.601738,-2.648963 -13.424922,-3.060498 M 13.188951,24.480723 c -0.160186,0 -0.320372,-0.08013 -0.48056,-0.08013 -0.573788,-0.967254 -0.852191,-2.081376 -0.800931,-3.204951 0.152016,-2.053413 1.367511,-3.877271 3.203728,-4.807427 1.521772,-0.721115 2.162518,-0.08013 4.004663,-0.801239 1.266594,-0.494765 2.374284,-1.325808 3.203729,-2.403714 m 10.812587,11.7782 c 0.159386,-0.167054 0.294183,-0.355906 0.400468,-0.560863 0.160186,-0.160247 1.361584,-2.32359 0.800931,-4.00619 -0.800931,-2.403713 -4.805594,-2.323589 -5.606526,-2.403713 -1.058272,1.586051 -2.419217,2.947514 -4.004663,4.006189 -1.498865,1.037283 -3.185628,1.772098 -4.96578,2.163342 m -0.400466,8.01238 c 2.359866,-0.260722 4.660225,-0.910527 6.807925,-1.922971 M 13.66951,32.412978 h 0.560653 m 20.103403,-8.012379 c 1.230553,0.114897 2.373483,0.686581 3.20373,1.602476 1.041213,1.362105 2.002332,3.605571 0,5.608665 -2.2161,2.259732 -4.97331,3.914688 -8.009324,4.807428 -4.805595,1.602476 -12.013986,4.00619 -16.819581,4.00619 -4.0847545,0 -7.2083904,-0.801238 -7.2083904,-4.00619 0,-3.525447 6.1671794,-3.926065 8.1695094,-4.00619"
     fill="none"
     stroke="#ffffff"
     stroke-linecap="round"
     stroke-linejoin="round"
     id="path1"
     style="stroke-width:1;stroke-dasharray:none" />
  <path
     d="m 19.035758,32.092483 c -0.599338,0.824314 -1.544678,1.32669 -2.562984,1.362105 -2.162517,0 -3.924569,-2.483838 -3.924569,-5.528542 0,-3.044704 1.762052,-5.528541 3.924569,-5.528541 2.162518,0 3.924568,2.483837 3.924568,5.528541 0.01658,1.500799 -0.461977,2.965222 -1.361584,4.166437"
     fill="none"
     stroke="#ffffff"
     stroke-linecap="round"
     stroke-linejoin="round"
     id="path2"
     style="stroke-width:1;stroke-dasharray:none" />
  <path
     d="m 26.164056,30.249636 c -0.327982,-0.870304 -0.490971,-1.794132 -0.48056,-2.724209 0,-3.044704 1.762052,-5.528542 3.924569,-5.528542 2.162518,0 3.92457,2.403714 3.92457,5.528542 0,3.124828 -1.762052,5.528541 -3.92457,5.528541 -1.441678,0 -2.72317,-1.121732 -3.444009,-2.804332"
     fill="none"
     stroke="#ffffff"
     stroke-linecap="round"
     stroke-linejoin="round"
     id="path3"
     style="stroke-width:1;stroke-dasharray:none" />
  <path
     d="m 31.20993,27.605551 c 0,0.885047 -0.717155,1.602475 -1.601865,1.602475 -0.88471,0 -1.601864,-0.717428 -1.601864,-1.602475 0,-0.885048 0.717154,-1.602476 1.601864,-1.602476 0.88471,0 1.601865,0.717428 1.601865,1.602476"
     fill="none"
     stroke="#ffffff"
     stroke-linecap="round"
     stroke-linejoin="round"
     id="path4"
     style="stroke-width:1;stroke-dasharray:none" />
  <path
     d="m 18.074639,27.926046 c 0,0.885048 -0.717155,1.602476 -1.601865,1.602476 -0.88471,0 -1.601865,-0.717428 -1.601865,-1.602476 0,-0.885047 0.717155,-1.602476 1.601865,-1.602476 0.88471,0 1.601865,0.717429 1.601865,1.602476"
     fill="none"
     stroke="#ffffff"
     stroke-linecap="round"
     stroke-linejoin="round"
     id="path5"
     style="stroke-width:1;stroke-dasharray:none" />
</svg>
