<?xml version="1.0" encoding="UTF-8" standalone="no"?>
<svg
   version="1.2"
   viewBox="0 0 48 48"
   id="svg9"
   xmlns="http://www.w3.org/2000/svg"
   xmlns:svg="http://www.w3.org/2000/svg">
  <defs
     id="defs1" />
  <path
     d="m 18.583034,8.6933907 15.984608,9.2311363 v 3.757365 c 0,0.508024 -0.270966,0.977383 -0.710773,1.231395 l -3.08245,1.780084 c -0.446291,0.257754 -1.01703,0.104835 -1.274778,-0.341574 -0.08193,-0.141942 -0.125071,-0.302906 -0.125071,-0.466801 V 20.923533 L 13.432732,11.682106"
     fill="none"
     stroke="#ffffff"
     stroke-linecap="round"
     stroke-linejoin="round"
     stroke-width="0.935351"
     id="path1"
     style="stroke-width:1;stroke-dasharray:none" />
  <path
     d="m 35.593401,35.641165 v -1.874878 c 0,-0.291805 -0.236488,-0.528356 -0.528217,-0.528356 -0.09271,0 -0.183803,0.02439 -0.264109,0.07079 l -3.786426,2.186639 c -0.380203,0.219462 -0.614384,0.62521 -0.614321,1.064259 v 2.080557"
     fill="none"
     stroke="#ffffff"
     stroke-linecap="round"
     stroke-linejoin="round"
     stroke-width="0.935351"
     id="path2"
     style="stroke-width:1;stroke-dasharray:none" />
  <path
     d="m 29.521089,30.203003 v 0.541515 c 0,0.515509 0.417735,0.933416 0.933171,0.933416 0.163852,0 0.324773,-0.04315 0.466679,-0.125104 l 4.242693,-2.344922 c 0.439807,-0.254013 0.710774,-0.723372 0.710774,-1.231396 v -0.69749 c 0,-0.497423 -0.403146,-0.900675 -0.900438,-0.900675 -0.158053,0 -0.313301,0.0416 -0.450219,0.120677 l -4.205721,2.323218 c -0.493115,0.284821 -0.796877,0.811119 -0.796877,1.380699 l -6.2e-5,6.2e-5"
     fill="none"
     stroke="#ffffff"
     stroke-linecap="round"
     stroke-linejoin="round"
     stroke-width="0.935351"
     id="path3"
     style="stroke-width:1;stroke-dasharray:none" />
  <path
     d="M 40.017217,14.749964 23.999876,5.4999929 7.982533,14.749964 v 18.499941 l 16.017343,9.249971 16.017341,-9.249971 v -18.499941 0"
     fill="none"
     stroke="#ffffff"
     stroke-linecap="round"
     stroke-linejoin="round"
     stroke-width="0.935351"
     id="path4"
     style="stroke-width:1;stroke-dasharray:none" />
  <path
     d="m 21.201049,25.819121 -5.173683,-2.901842 v 4.6412 l 5.173683,2.901842 v -4.6412 0"
     fill="none"
     stroke="#ffffff"
     stroke-linecap="round"
     stroke-linejoin="round"
     stroke-width="0.935351"
     id="path5"
     style="stroke-width:1;stroke-dasharray:none" />
  <path
     d="M 24.000124,24.020702 V 42.5"
     fill="none"
     stroke="#ffffff"
     stroke-linecap="round"
     stroke-linejoin="round"
     stroke-width="0.935351"
     id="path6"
     style="stroke-width:1;stroke-dasharray:none" />
  <path
     d="M 24.0361,24.020702 8.0187575,14.770669"
     fill="none"
     stroke="#ffffff"
     stroke-linecap="round"
     stroke-linejoin="round"
     stroke-width="0.935351"
     id="path7"
     style="stroke-width:1;stroke-dasharray:none" />
  <path
     d="m 34.564775,17.919601 5.452692,-3.148932"
     fill="none"
     stroke="#ffffff"
     stroke-linecap="round"
     stroke-linejoin="round"
     stroke-width="0.935351"
     id="path8"
     style="stroke-width:1;stroke-dasharray:none" />
  <path
     d="m 24.000124,24.020702 5.37164,-3.102157"
     fill="none"
     stroke="#ffffff"
     stroke-linecap="round"
     stroke-linejoin="round"
     stroke-width="0.935351"
     id="path9"
     style="stroke-width:1;stroke-dasharray:none" />
</svg>
