<?xml version="1.0" encoding="UTF-8" standalone="no"?>
<svg
   version="1.2"
   viewBox="0 0 48 48"
   id="svg5"
   xmlns="http://www.w3.org/2000/svg"
   xmlns:svg="http://www.w3.org/2000/svg">
  <defs
     id="defs1" />
  <path
     d="m 19.611443,17.070357 c -0.620993,-0.841338 -2.503029,-3.018896 -5.347403,-3.018896 -3.52542,0 -4.248364,4.022351 -4.248364,4.022351 0,0 -1.6111778,13.472891 3.656289,20.970313 3.745096,5.330854 6.092775,3.081299 7.136936,1.335728"
     fill="none"
     stroke="#ffffff"
     stroke-linecap="round"
     stroke-linejoin="round"
     stroke-width="1"
     id="path1"
     style="stroke-width:1;stroke-dasharray:none" />
  <path
     d="m 28.163541,17.396641 c 0,0 2.046999,-3.34518 5.572419,-3.34518 3.525419,0 4.248363,4.022351 4.248363,4.022351 0,0 1.61118,13.472891 -3.656289,20.970313 -3.41246,4.857375 -5.664676,3.421115 -6.827794,1.807155"
     fill="none"
     stroke="#ffffff"
     stroke-linecap="round"
     stroke-linejoin="round"
     stroke-width="1"
     id="path2"
     style="stroke-width:1;stroke-dasharray:none" />
  <path
     d="m 28.675435,16.345625 a 6.2724424,6.2609174 0 0 0 -4.745717,-2.294164 c -3.382063,0.143094 -4.810698,4.022351 -4.810698,4.022351 a 31.153544,31.096302 0 0 0 -1.484747,10.140257"
     fill="none"
     stroke="#ffffff"
     stroke-linecap="round"
     stroke-linejoin="round"
     stroke-width="1"
     id="path3"
     style="stroke-width:1;stroke-dasharray:none" />
  <path
     d="m 19.409922,39.384761 c 0.672503,0 1.39865,0.994846 1.39865,0.994846 2.98658,3.367156 5.264018,1.931634 6.693803,0.470116 0,0 1.045312,-1.464962 1.955236,-1.464962"
     fill="none"
     stroke="#ffffff"
     stroke-linecap="round"
     stroke-linejoin="round"
     stroke-width="1"
     id="path4"
     style="stroke-width:1;stroke-dasharray:none" />
  <path
     d="m 18.013788,14.966887 c 1.152698,-1.53044 3.70496,-2.956536 5.065978,-3.164242 0,0 -0.741592,-7.1365334 4.928095,-6.2928164 1.232998,0.207904 2.411514,0.661204 3.465448,1.332938 0.846493,0.593347 0.935589,1.81217 0.184351,2.521883 v 0 c -0.537472,0.504103 -1.344534,0.591697 -1.977991,0.21468 -1.392488,-0.806898 -3.726776,-1.709818 -3.784529,2.4203654 1.320853,0.321956 3.39644,1.260919 4.750246,2.967192"
     fill="none"
     stroke="#ffffff"
     stroke-linecap="round"
     stroke-linejoin="round"
     stroke-width="1"
     id="path5"
     style="stroke-width:1;stroke-dasharray:none" />
</svg>
