<?xml version="1.0" encoding="UTF-8" standalone="no"?>
<svg
   version="1.2"
   viewBox="0 0 48 48"
   id="svg9"
   xmlns="http://www.w3.org/2000/svg"
   xmlns:svg="http://www.w3.org/2000/svg">
  <defs
     id="defs1" />
  <path
     d="m 23.089322,32.343696 2.808419,-4.248936 0.748952,3.70259 1.891476,-2.469724 0.459516,2.046159 c 2.860219,-1.57428 5.689347,0.877989 7.918179,0.06892"
     fill="none"
     stroke="#ffffff"
     stroke-linecap="round"
     stroke-linejoin="round"
     stroke-width="1"
     id="path1" />
  <path
     d="M 18.39814,32.343696 18.292153,30.397143 A 3.1473871,3.1418877 0 0 0 15.184451,27.418485 H 11.646774 A 3.1473871,3.1418877 0 0 0 8.5387738,30.397143 L 8.4327867,32.343636"
     fill="none"
     stroke="#ffffff"
     stroke-linecap="round"
     stroke-linejoin="round"
     stroke-width="1"
     id="path2" />
  <path
     d="M 8.4330255,15.66107 H 18.39814"
     fill="none"
     stroke="#ffffff"
     stroke-linecap="round"
     stroke-linejoin="round"
     stroke-width="1"
     id="path3" />
  <path
     d="M 23.320512,15.66107 H 39.535285"
     fill="none"
     stroke="#ffffff"
     stroke-linecap="round"
     stroke-linejoin="round"
     stroke-width="1"
     id="path4" />
  <path
     d="M 23.363898,20.161106 H 34.806685"
     fill="none"
     stroke="#ffffff"
     stroke-linecap="round"
     stroke-linejoin="round"
     stroke-width="1"
     id="path5" />
  <path
     d="M 23.363898,22.54296 H 34.806685"
     fill="none"
     stroke="#ffffff"
     stroke-linecap="round"
     stroke-linejoin="round"
     stroke-width="1"
     id="path6" />
  <path
     d="M 23.363898,24.924754 H 34.806685"
     fill="none"
     stroke="#ffffff"
     stroke-linecap="round"
     stroke-linejoin="round"
     stroke-width="1"
     id="path7" />
  <path
     d="m 11.665512,23.285361 a 1.7903226,1.7871944 0 1 0 3.580645,0 1.7903226,1.7871944 0 1 0 -3.580645,0"
     fill="none"
     stroke="#ffffff"
     stroke-linecap="round"
     stroke-linejoin="round"
     stroke-width="1"
     id="path8" />
  <path
     d="M 7.5935432,12.681102 H 40.406455 A 2.0935435,2.0898855 0 0 1 42.5,14.770988 v 18.458024 a 2.0935435,2.0898855 0 0 1 -2.093545,2.089886 H 7.5935432 A 2.0935435,2.0898855 0 0 1 5.4999996,33.229012 V 14.770988 a 2.0935435,2.0898855 0 0 1 2.0935436,-2.089886"
     fill="none"
     stroke="#ffffff"
     stroke-linecap="round"
     stroke-linejoin="round"
     stroke-width="1"
     id="path9" />
</svg>
