<?xml version="1.0" encoding="UTF-8" standalone="no"?>
<svg
   version="1.2"
   viewBox="0 0 48 48"
   id="svg6"
   xmlns="http://www.w3.org/2000/svg"
   xmlns:svg="http://www.w3.org/2000/svg">
  <defs
     id="defs1" />
  <path
     d="m 18.392106,19.256845 c 0,1.548525 -1.256916,2.803945 -2.803947,2.803945 -1.547124,0 -2.803947,-1.255513 -2.803947,-2.803945 0,-1.547032 1.256823,-2.803947 2.803947,-2.803947 1.547031,0 2.803947,1.256915 2.803947,2.803947"
     fill="none"
     stroke="#ffffff"
     stroke-linecap="round"
     stroke-linejoin="round"
     stroke-width="1.20652"
     id="path1"
     style="stroke-width:1;stroke-dasharray:none" />
  <path
     d="m 35.215792,19.256845 c 0,1.548525 -1.256822,2.803945 -2.803948,2.803945 -1.547124,0 -2.803946,-1.255513 -2.803946,-2.803945 0,-1.547032 1.256822,-2.803947 2.803946,-2.803947 1.547126,0 2.803948,1.256915 2.803948,2.803947"
     fill="none"
     stroke="#ffffff"
     stroke-linecap="round"
     stroke-linejoin="round"
     stroke-width="1.20652"
     id="path2"
     style="stroke-width:1;stroke-dasharray:none" />
  <path
     d="m 16.522809,33.346488 c 0,0 -0.11132,-2.714034 0,-2.803947 1.27916,-0.68304 3.705417,-0.934649 7.477193,-0.934649 3.738597,0 6.217474,0.261235 7.477193,0.934649 0.08206,0.05346 0,2.803947 0,2.803947 H 16.522809"
     fill="none"
     stroke="#ffffff"
     stroke-linecap="round"
     stroke-linejoin="round"
     stroke-width="1.20652"
     id="path3"
     style="stroke-width:1;stroke-dasharray:none" />
  <path
     d="m 11.988171,13.01797 c 0.45536,0.212633 2.455978,1.08494 4.826435,0.310957 1.923132,-0.627895 2.969474,-1.973697 3.308283,-2.452423"
     fill="none"
     stroke="#ffffff"
     stroke-linecap="round"
     stroke-linejoin="round"
     stroke-width="1.20652"
     id="path4"
     style="stroke-width:1;stroke-dasharray:none" />
  <path
     d="m 36.011833,13.01797 c -0.455361,0.212633 -2.455977,1.08494 -4.826434,0.310957 -1.923134,-0.627895 -2.969475,-1.973697 -3.308285,-2.452423"
     fill="none"
     stroke="#ffffff"
     stroke-linecap="round"
     stroke-linejoin="round"
     stroke-width="1.20652"
     id="path5"
     style="stroke-width:1;stroke-dasharray:none" />
  <path
     d="M 2.5030692,24 A 21.496931,21.496922 0 1 0 45.496931,24 21.496931,21.496922 0 1 0 2.5030692,24"
     fill="none"
     stroke="#ffffff"
     stroke-linecap="round"
     stroke-linejoin="round"
     stroke-width="1.20652"
     id="path6"
     style="stroke-width:1;stroke-dasharray:none" />
</svg>
