<?xml version="1.0" encoding="UTF-8" standalone="no"?>
<svg
   version="1.2"
   viewBox="0 0 48 48"
   id="svg2"
   xmlns="http://www.w3.org/2000/svg"
   xmlns:svg="http://www.w3.org/2000/svg">
  <defs
     id="defs1" />
  <path
     d="m 27.62433,12.0674 c -1.442867,0.856429 -2.986105,2.286705 -4.247527,4.075401 L 10.01743,35.086116 c -4.8533304,6.881927 -0.5968951,10.369976 5.20293,4.26374 L 31.185057,22.541564 c 1.480433,-1.558653 2.568428,-3.315739 3.13481,-4.876841"
     fill="none"
     stroke="#ffffff"
     stroke-linecap="round"
     stroke-linejoin="round"
     stroke-width="0.996997"
     id="path1"
     style="stroke-width:1;stroke-dasharray:none" />
  <path
     d="m 32.172829,7.4208253 c 0.687467,-1.1561524 1.487038,-1.9223448 1.487038,-1.9223448 0,0 1.381469,0.7463789 1.362687,2.7079058 1.749851,-1.6821357 3.611879,-1.9572229 3.611879,-1.9572229 0,0 -0.007,1.8787108 -1.420223,3.8519626 0.4473,-0.06976 0.844266,-0.05618 1.184806,0.01005 1.13937,0.207409 1.695507,0.950226 1.695507,0.950226 0,0 -1.673754,2.331079 -3.999786,3.01646 -0.478779,0.143963 -0.905141,0.189525 -1.281319,0.177059 -1.46291,-0.04764 -3.907728,-1.958336 -3.566518,-4.3680747 0.128881,-0.910229 0.506543,-1.7606466 0.925929,-2.4659888"
     fill="none"
     stroke="#ffffff"
     stroke-linecap="round"
     stroke-linejoin="round"
     stroke-width="0.996997"
     id="path2"
     style="stroke-width:1;stroke-dasharray:none" />
  <path
     style="fill:none;stroke:#ffffff;stroke-width:1;stroke-linecap:round;stroke-linejoin:round;stroke-dashoffset:0.5;stroke-dasharray:none"
     d="m 34.38663,14.195253 c 0.419683,1.121984 0.220304,2.508811 -0.06676,3.46947"
     id="path3" />
  <path
     style="fill:none;stroke:#ffffff;stroke-width:1;stroke-linecap:round;stroke-linejoin:round;stroke-dashoffset:0.5;stroke-dasharray:none"
     d="M 31.293214,11.510844 C 30.116693,11.61664 29.329031,11.054885 27.62433,12.0674"
     id="path4" />
</svg>
