<?xml version="1.0" encoding="UTF-8" standalone="no"?>
<svg
   version="1.2"
   viewBox="0 0 48 48"
   id="svg8"
   xmlns="http://www.w3.org/2000/svg"
   xmlns:svg="http://www.w3.org/2000/svg">
  <defs
     id="defs1" />
  <path
     d="M 5.5000004,24 A 8.6567663,14.740914 0 1 0 22.813533,24 8.6567663,14.740914 0 1 0 5.5000004,24"
     fill="none"
     stroke="#ffffff"
     stroke-linecap="round"
     stroke-linejoin="round"
     stroke-width="0.897125"
     id="path1"
     style="stroke-width:1;stroke-dasharray:none" />
  <path
     d="M 25.186468,24 A 8.6567663,14.740914 0 1 0 42.5,24 8.6567663,14.740914 0 1 0 25.186468,24"
     fill="none"
     stroke="#ffffff"
     stroke-linecap="round"
     stroke-linejoin="round"
     stroke-width="0.897125"
     id="path2"
     style="stroke-width:1;stroke-dasharray:none" />
  <path
     d="m 8.1351053,25.111455 a 2.1675423,2.1660515 0 1 0 4.3350847,0 2.1675423,2.1660515 0 1 0 -4.3350847,0"
     fill="none"
     stroke="#ffffff"
     stroke-linecap="round"
     stroke-linejoin="round"
     stroke-width="0.897125"
     id="path3"
     style="stroke-width:1;stroke-dasharray:none" />
  <path
     d="m 27.821573,25.111455 a 2.1675423,2.1660515 0 1 0 4.335084,0 2.1675423,2.1660515 0 1 0 -4.335084,0"
     fill="none"
     stroke="#ffffff"
     stroke-linecap="round"
     stroke-linejoin="round"
     stroke-width="0.897125"
     id="path4"
     style="stroke-width:1;stroke-dasharray:none" />
  <path
     d="m 8.1351053,25.111455 a 2.1675423,2.1660515 0 1 0 4.3350847,0 2.1675423,2.1660515 0 1 0 -4.3350847,0"
     fill="none"
     stroke="#ffffff"
     stroke-linecap="round"
     stroke-linejoin="round"
     stroke-width="0.897125"
     id="path5"
     style="stroke-width:1;stroke-dasharray:none" />
  <path
     d="m 5.5000004,25.111455 a 4.802647,4.7993438 0 1 0 9.6052936,0 4.802647,4.7993438 0 1 0 -9.6052936,0"
     fill="none"
     stroke="#ffffff"
     stroke-linecap="round"
     stroke-linejoin="round"
     stroke-width="0.897125"
     id="path6"
     style="stroke-width:1;stroke-dasharray:none" />
  <path
     d="m 27.821573,25.111455 a 2.1675423,2.1660515 0 1 0 4.335084,0 2.1675423,2.1660515 0 1 0 -4.335084,0"
     fill="none"
     stroke="#ffffff"
     stroke-linecap="round"
     stroke-linejoin="round"
     stroke-width="0.897125"
     id="path7"
     style="stroke-width:1;stroke-dasharray:none" />
  <path
     d="m 25.186468,25.111455 a 4.802647,4.7993438 0 1 0 9.605294,0 4.802647,4.7993438 0 1 0 -9.605294,0"
     fill="none"
     stroke="#ffffff"
     stroke-linecap="round"
     stroke-linejoin="round"
     stroke-width="0.897125"
     id="path8"
     style="stroke-width:1;stroke-dasharray:none" />
</svg>
