<?xml version="1.0" encoding="UTF-8" standalone="no"?>
<svg
   version="1.2"
   viewBox="0 0 48 48"
   id="svg6"
   xmlns="http://www.w3.org/2000/svg"
   xmlns:svg="http://www.w3.org/2000/svg">
  <defs
     id="defs1" />
  <path
     d="m 13.901072,35.598305 c -0.556185,0.860823 -1.579383,1.186295 -2.286749,0.729241 -0.707365,-0.457126 -0.829984,-1.525458 -0.273799,-2.38628 0,0 0.648313,-1.115842 2.964883,-2.248707 0,0 0.456432,-0.261532 0.423576,0.237186 -0.141636,2.590238 -0.827911,3.66856 -0.827911,3.66856"
     fill="none"
     stroke="#ffffff"
     stroke-linecap="round"
     stroke-linejoin="round"
     stroke-width="1.11004"
     id="path1"
     style="stroke-width:1;stroke-dasharray:none" />
  <path
     d="m 36.178475,35.598305 c -0.556184,0.860823 -1.579382,1.186295 -2.286747,0.729241 -0.707367,-0.457126 -0.829985,-1.525458 -0.273801,-2.38628 0,0 0.648315,-1.115842 2.964885,-2.248707 0,0 0.456432,-0.261532 0.423576,0.237186 -0.141636,2.590238 -0.827913,3.66856 -0.827913,3.66856"
     fill="none"
     stroke="#ffffff"
     stroke-linecap="round"
     stroke-linejoin="round"
     stroke-width="1.11004"
     id="path2"
     style="stroke-width:1;stroke-dasharray:none" />
  <path
     d="m 25.039773,35.598305 c -0.556183,0.860823 -1.579381,1.186295 -2.286748,0.729241 -0.707366,-0.457126 -0.829983,-1.525458 -0.2738,-2.38628 0,0 0.648314,-1.115842 2.964884,-2.248707 0,0 0.456432,-0.261532 0.423576,0.237186 -0.141636,2.590238 -0.827912,3.66856 -0.827912,3.66856"
     fill="none"
     stroke="#ffffff"
     stroke-linecap="round"
     stroke-linejoin="round"
     stroke-width="1.11004"
     id="path3"
     style="stroke-width:1;stroke-dasharray:none" />
  <path
     d="m 19.100385,41.201273 c -0.556183,0.860823 -1.579381,1.186295 -2.286748,0.729242 -0.707366,-0.457127 -0.829983,-1.525459 -0.2738,-2.38628 0,0 0.648314,-1.115843 2.964884,-2.248707 0,0 0.456432,-0.261533 0.423576,0.237185 -0.141636,2.590312 -0.827912,3.66856 -0.827912,3.66856"
     fill="none"
     stroke="#ffffff"
     stroke-linecap="round"
     stroke-linejoin="round"
     stroke-width="1.11004"
     id="path4"
     style="stroke-width:1;stroke-dasharray:none" />
  <path
     d="m 30.239087,41.201273 c -0.556184,0.860823 -1.579382,1.186295 -2.286747,0.729242 -0.707367,-0.457053 -0.829985,-1.525459 -0.273801,-2.38628 0,0 0.648315,-1.115843 2.964885,-2.248707 0,0 0.456432,-0.261533 0.423576,0.237185 -0.141636,2.590312 -0.827913,3.66856 -0.827913,3.66856"
     fill="none"
     stroke="#ffffff"
     stroke-linecap="round"
     stroke-linejoin="round"
     stroke-width="1.11004"
     id="path5"
     style="stroke-width:1;stroke-dasharray:none" />
  <path
     d="m 11.626238,13.872973 c -0.02294,0.261606 -0.234876,0.473334 -0.497355,0.501381 -3.1817032,0.340866 -5.6288832,3.474003 -5.6288832,7.287611 0,4.041248 2.8024537,7.317361 6.2595112,7.317361 h 23.86352 c 3.798051,0 6.876969,-3.46216 6.876969,-7.732897 0,-4.092829 -2.827689,-7.443021 -6.406107,-7.715062 -0.2738,-0.02079 -0.4958,-0.212468 -0.548043,-0.480586 -0.799422,-4.1051874 -4.487064,-7.1902213 -8.846922,-7.1902213 -2.833461,0 -5.357526,1.2828712 -6.996627,3.3236989 -0.160136,0.199442 -0.428978,0.290764 -0.665408,0.191598 -0.630702,-0.264568 -1.29685,-0.392521 -2.042178,-0.392521 -2.816587,0 -5.128422,2.1496134 -5.368477,4.8896374"
     fill="none"
     stroke="#ffffff"
     stroke-linecap="round"
     stroke-linejoin="round"
     stroke-width="1.11004"
     id="path6"
     style="stroke-width:1;stroke-dasharray:none" />
</svg>
