<?xml version="1.0" encoding="UTF-8" standalone="no"?>
<svg
   version="1.2"
   viewBox="0 0 48 48"
   id="svg8"
   xmlns="http://www.w3.org/2000/svg"
   xmlns:svg="http://www.w3.org/2000/svg">
  <defs
     id="defs1" />
  <path
     d="m 32.152333,22.088333 v -2.259467 a 2.31435,2.3143501 0 0 0 2.0128,-1.216684 h 2.0128 v 5.488951 h -2.0128 a 2.31435,2.3143501 0 0 0 -2.0128,-1.216683 v -2.259467"
     fill="none"
     stroke="#ffffff"
     stroke-linecap="round"
     stroke-linejoin="round"
     stroke-width="0.925"
     id="path1"
     style="stroke-width:1;stroke-dasharray:none" />
  <path
     d="m 25.7945,14.083999 c 0,0 -1.9425,-0.417237 -2.927317,-0.548833 -1.463966,-0.183212 -1.463966,0.914516 -1.463966,1.6465 0,0.731983 0.548833,1.280816 1.6465,1.097666 0.597488,-0.151206 1.214216,-0.212873 1.82965,-0.182965 0.51615,-0.05989 1.036616,0.07018 1.463966,0.36593 v 0.915134 H 27.441 v -0.915134 c 0.427227,-0.295753 0.947817,-0.425808 1.463967,-0.36593 0.615618,-0.02993 1.2321,0.03173 1.82965,0.182965 1.097666,0.182965 1.6465,-0.36593 1.6465,-1.097666 0,-0.731737 0,-1.82965 -1.463967,-1.6465 -0.984817,0.131596 -2.927317,0.548833 -2.927317,0.548833 H 25.7945"
     fill="none"
     stroke="#ffffff"
     stroke-linecap="round"
     stroke-linejoin="round"
     stroke-width="0.925"
     id="path2"
     style="stroke-width:1;stroke-dasharray:none" />
  <path
     d="m 24.555456,24.10175 h 5.611211 v -5.035084 h -8.325 v 2.289992"
     fill="none"
     stroke="#ffffff"
     stroke-linecap="round"
     stroke-linejoin="round"
     stroke-width="0.999999"
     id="path5"
     style="stroke-width:1;stroke-dasharray:none" />
  <path
     d="m 19.603167,21.447 c -1.521934,0.065 -3.1302,1.658833 -3.00255,3.16905 h 2.466666 c -0.343976,-0.154475 0.463364,-1.7982 2.0128,-1.644033"
     fill="none"
     stroke="#ffffff"
     stroke-linecap="round"
     stroke-linejoin="round"
     stroke-width="0.925"
     id="path6"
     style="stroke-width:1;stroke-dasharray:none" />
  <path
     d="m 17.5435,34.483333 h -2.744167 l -1.282666,-8.2325 h 7.868666 l -0.5735,3.687667 -0.709166,4.544833 H 17.3585"
     fill="none"
     stroke="#ffffff"
     stroke-linecap="round"
     stroke-linejoin="round"
     stroke-width="0.925"
     id="path7"
     style="stroke-width:1;stroke-dasharray:none" />
  <path
     d="m 5.5,24 a 18.5,18.500001 0 1 0 37,0 18.5,18.500001 0 1 0 -37,0"
     fill="none"
     stroke="#ffffff"
     stroke-linecap="round"
     stroke-linejoin="round"
     stroke-width="0.925"
     id="path8"
     style="stroke-width:1;stroke-dasharray:none" />
  <path
     style="fill:none;stroke:#ffffff;stroke-width:1;stroke-linecap:round;stroke-linejoin:round;stroke-dashoffset:0.5;stroke-dasharray:none"
     d="M 11.131382,10.709075 37.321023,36.837459"
     id="path9" />
  <path
     style="fill:none;stroke:#ffffff;stroke-width:1;stroke-linecap:round;stroke-linejoin:round;stroke-dashoffset:0.5;stroke-dasharray:none"
     d="m 19.603167,21.447 2.244697,-0.09034"
     id="path10" />
  <path
     style="fill:none;stroke:#ffffff;stroke-width:1;stroke-linecap:round;stroke-linejoin:round;stroke-dashoffset:0.5;stroke-dasharray:none"
     d="m 21.080083,22.972017 0.761584,0.05951 v 1.070225 h 2.713789"
     id="path11" />
</svg>
