<?xml version="1.0" encoding="UTF-8" standalone="no"?>
<svg
   version="1.2"
   viewBox="0 0 48 48"
   id="svg14"
   xmlns="http://www.w3.org/2000/svg"
   xmlns:svg="http://www.w3.org/2000/svg">
  <defs
     id="defs1" />
  <path
     d="m 24.068361,32.711622 c 0,0 -2.641638,1.166113 -2.707442,-0.785735"
     fill="none"
     stroke="#ffffff"
     stroke-linecap="round"
     stroke-linejoin="round"
     stroke-width="1"
     id="path1" />
  <path
     d="m 17.584582,13.089134 c 0,0 -4.988844,-7.5432935 -9.6937714,-4.4205327 C 3.6069909,11.511888 5.5081708,18.496862 10.142233,20.776874"
     fill="none"
     stroke="#ffffff"
     stroke-linecap="round"
     stroke-linejoin="round"
     stroke-width="1"
     id="path2" />
  <path
     d="M 14.380365,38.192887 C 4.0376377,34.096798 9.2856754,22.611008 9.2856754,22.611008 c 0,0 2.3654426,-6.072659 6.0622816,-7.532652"
     fill="none"
     stroke="#ffffff"
     stroke-linecap="round"
     stroke-linejoin="round"
     stroke-width="1"
     id="path3" />
  <path
     d="m 33.86616,38.192887 c 10.342727,-4.096089 5.094689,-15.581879 5.094689,-15.581879 0,0 -2.365442,-6.072659 -6.062281,-7.532652"
     fill="none"
     stroke="#ffffff"
     stroke-linecap="round"
     stroke-linejoin="round"
     stroke-width="1"
     id="path4" />
  <path
     d="m 29.70668,34.266351 c -0.791336,1.248456 -2.630995,3.321321 -5.360177,1.452595 h -0.556284 c -2.729183,1.868661 -4.568777,-0.204204 -5.360178,-1.452595"
     fill="none"
     stroke="#ffffff"
     stroke-linecap="round"
     stroke-linejoin="round"
     stroke-width="1"
     id="path5" />
  <path
     d="m 24.068361,32.711622 c 0,0 2.641637,1.166113 2.707441,-0.785735"
     fill="none"
     stroke="#ffffff"
     stroke-linecap="round"
     stroke-linejoin="round"
     stroke-width="1"
     id="path6" />
  <path
     d="m 30.552139,13.089134 c 0,0 4.988845,-7.5432935 9.693772,-4.4205327 4.28382,2.8432867 1.870178,9.5170727 -2.178506,12.0380977"
     fill="none"
     stroke="#ffffff"
     stroke-linecap="round"
     stroke-linejoin="round"
     stroke-width="1"
     id="path7" />
  <path
     d="m 16.712581,11.827895 c 0,0 5.652272,-3.199265 14.488514,0"
     fill="none"
     stroke="#ffffff"
     stroke-linecap="round"
     stroke-linejoin="round"
     stroke-width="1"
     id="path8" />
  <path
     d="m 20.586001,39.490658 c 2.330659,0.792549 4.652297,0.798842 6.964654,0"
     fill="none"
     stroke="#ffffff"
     stroke-linecap="round"
     stroke-linejoin="round"
     stroke-width="1"
     id="path9" />
  <path
     d="m 29.240016,30.570495 c 0,0 4.782348,1.046847 4.810967,-2.729666 0.01486,-1.960283 -1.231198,-3.685279 -2.989868,-4.551736 -2.285621,-1.126076 -5.471538,-1.671724 -5.471538,4.03691"
     fill="none"
     stroke="#ffffff"
     stroke-linecap="round"
     stroke-linejoin="round"
     stroke-width="1"
     id="path10" />
  <path
     d="m 19.064265,30.570495 c 0,0 -4.782282,1.046847 -4.810966,-2.729666 -0.01486,-1.960283 1.231199,-3.685279 2.989867,-4.551736 2.285621,-1.126076 5.471473,-1.671724 5.471473,4.03691"
     fill="none"
     stroke="#ffffff"
     stroke-linecap="round"
     stroke-linejoin="round"
     stroke-width="1"
     id="path11" />
  <path
     d="m 24.068361,32.711622 0.02057,3.007389"
     fill="none"
     stroke="#ffffff"
     stroke-linecap="round"
     stroke-linejoin="round"
     stroke-width="1"
     id="path12" />
  <path
     d="m 17.990179,26.13439 a 1.297911,1.2977709 0 1 0 2.595822,0 1.297911,1.2977709 0 1 0 -2.595822,0"
     fill="none"
     stroke="#ffffff"
     stroke-linecap="round"
     stroke-linejoin="round"
     stroke-width="1"
     id="path13" />
  <path
     d="m 27.55072,26.13439 a 1.2979115,1.2977714 0 1 0 2.595823,0 1.2979115,1.2977714 0 1 0 -2.595823,0"
     fill="none"
     stroke="#ffffff"
     stroke-linecap="round"
     stroke-linejoin="round"
     stroke-width="1"
     id="path14" />
  <path
     style="fill:none;stroke:#ffffff;stroke-width:1;stroke-linecap:round;stroke-linejoin:round;stroke-dashoffset:0.5"
     d="m 33.86616,38.192887 c -2.028432,0.747365 -4.622563,0.56021 -6.315505,1.297771"
     id="path15" />
  <path
     style="fill:none;stroke:#ffffff;stroke-width:1;stroke-linecap:round;stroke-linejoin:round;stroke-dashoffset:0.5"
     d="m 14.380365,38.192887 c 2.265785,0.892767 4.378128,0.648886 6.205636,1.297771"
     id="path16" />
  <path
     style="fill:none;stroke:#ffffff;stroke-width:1;stroke-linecap:round;stroke-linejoin:round;stroke-dashoffset:0.5"
     d="m 32.898568,15.078356 c -0.978825,-0.421852 -1.974488,-0.692183 -2.981973,-0.856125 0.09381,-0.357086 0.450234,-0.852694 0.635544,-1.133097"
     id="path17" />
  <path
     style="fill:none;stroke:#ffffff;stroke-width:1;stroke-linecap:round;stroke-linejoin:round;stroke-dashoffset:0.5"
     d="m 17.584582,13.089134 c 0.242839,0.300873 0.429241,0.592323 0.576778,0.930089 -0.893339,0.271252 -1.716584,0.459999 -2.813403,1.059133"
     id="path18" />
  <path
     style="fill:none;stroke:#ffffff;stroke-width:1;stroke-linecap:round;stroke-linejoin:round;stroke-dashoffset:0.5"
     d="m 25.589577,27.326003 c 0.0048,1.622246 0,3.092679 3.650439,3.244492"
     id="path19" />
  <path
     style="fill:none;stroke:#ffffff;stroke-width:1;stroke-linecap:round;stroke-linejoin:round;stroke-dashoffset:0.5"
     d="m 22.714639,27.326003 c -0.01743,1.406472 0,2.835902 -3.650374,3.244492"
     id="path20" />
</svg>
