<?xml version="1.0" encoding="UTF-8" standalone="no"?>
<svg
   version="1.2"
   viewBox="0 0 48 48"
   id="svg3"
   xmlns="http://www.w3.org/2000/svg"
   xmlns:svg="http://www.w3.org/2000/svg">
  <defs
     id="defs1" />
  <path
     d="m 39.164496,31.266867 c 0.449696,-0.224974 0.869563,-0.50527 1.249832,-0.834351 0.603951,-0.524363 1.09918,-1.162151 1.457659,-1.877212 0.449997,-0.979197 0.663461,-2.050472 0.623187,-3.12746 0.02555,-1.126373 -0.115636,-2.250341 -0.418964,-3.335372 -0.339019,-1.236793 -0.829739,-2.426907 -1.460966,-3.543132 -0.726426,-1.609394 -1.713051,-3.087923 -2.920354,-4.37613 -0.932828,-0.996635 -2.071155,-1.778443 -3.336088,-2.291081 -0.659103,-0.279394 -1.368397,-0.420857 -2.084229,-0.415596 -1.053347,0.05578 -2.050567,0.523912 -2.916823,1.044291 -0.965436,0.60885 -1.686376,1.304066 -2.081823,2.294538 -0.555639,1.775287 0.621609,3.623636 0.836126,3.960458 0.0024,0.0037 0.140657,0.210918 0.417236,0.625162 1.136073,1.701998 1.193553,1.772205 1.251558,1.875484 0.485536,0.917785 0.837028,1.900438 1.043806,2.91797 0.783905,3.007044 1.175895,4.510602 1.670448,5.21078 0.907731,1.28535 2.596212,2.56589 4.377863,2.498916 0.795928,-0.06607 1.572846,-0.278718 2.291532,-0.627265 v 0"
     fill="none"
     stroke="#ffffff"
     stroke-linecap="round"
     stroke-linejoin="round"
     stroke-width="1.12728"
     id="path1"
     style="stroke-width:1;stroke-dasharray:none" />
  <path
     d="m 13.014903,27.696449 c -1.157187,0.416123 -2.126606,1.234012 -2.73176,2.304911 -0.5364052,1.026176 -0.7193632,2.200731 -0.5205502,3.341536 0.133669,0.937328 0.4746402,1.83309 0.9981972,2.621889 1.526711,2.42623 4.044404,3.324697 5.259597,3.758334 1.211887,0.421685 2.476069,0.674621 3.756856,0.751667 1.793373,0.153941 5.201892,0.402292 8.265082,-1.503334 0.96679,-0.499858 1.754452,-1.287831 2.254114,-2.255001 0.496581,-1.203568 0.496581,-2.554765 0,-3.758334 -0.292283,-0.868776 -0.842362,-1.627659 -1.576978,-2.175549 -0.690585,-0.450249 -1.483582,-0.718744 -2.305583,-0.780681 -1.54572,-0.235648 -2.070403,0.104632 -3.767599,0.04292 -0.955369,-0.01451 -1.904125,-0.160556 -2.819671,-0.434012 -2.281238,-0.714083 -2.502066,-1.84677 -4.424674,-2.12639 -0.801262,-0.118613 -1.619206,-0.04592 -2.387031,0.212044 v 0"
     fill="none"
     stroke="#ffffff"
     stroke-linecap="round"
     stroke-linejoin="round"
     stroke-width="1.12728"
     id="path2"
     style="stroke-width:1;stroke-dasharray:none" />
  <path
     d="m 6.0271509,17.153945 c 1.3210607,-2.708932 3.9906831,-2.398268 7.1981351,-5.33022 2.029679,-1.8555654 2.147645,-3.0654484 4.217147,-3.910547 1.057179,-0.4840734 2.24179,-0.6158406 3.379441,-0.3758334 1.54234,0.3572672 2.825907,1.421176 3.463596,2.8707664 0.83868,2.061296 -0.235706,4.087039 -1.050718,5.623896 -0.714253,1.269791 -1.627996,2.416534 -2.706138,3.396106 -1.111504,1.166588 -2.37516,2.177956 -3.756856,3.006668 C 14.796253,23.592799 12.0137,25.223916 9.2663118,24.261332 8.1533058,23.849418 7.1864415,23.118272 6.4867647,22.15937 5.3628637,20.726543 5.1829855,18.767624 6.0271509,17.153945 v 0"
     fill="none"
     stroke="#ffffff"
     stroke-linecap="round"
     stroke-linejoin="round"
     stroke-width="1.12728"
     id="path3"
     style="stroke-width:1;stroke-dasharray:none" />
</svg>
