<?xml version="1.0" encoding="UTF-8" standalone="no"?>
<svg
   version="1.2"
   viewBox="0 0 48 48"
   id="svg9"
   xmlns="http://www.w3.org/2000/svg"
   xmlns:svg="http://www.w3.org/2000/svg">
  <defs
     id="defs1" />
  <path
     d="m 30.29727,14.411123 h 6.634369 c 0.09743,1.584324 1.431435,2.823251 3.035244,2.823251 0.112416,0 0.224833,0 0.32226,-0.0075 v 13.447981 c -0.09743,-0.0075 -0.209844,-0.0075 -0.32226,-0.0075 -1.611303,0 -2.960301,1.261453 -3.035244,2.860794 H 30.29727 m -12.995342,0 h -6.263546 c -0.06745,-1.599435 -1.4089515,-2.860888 -3.0352435,-2.860888 -0.104918,0 -0.202349,0 -0.292283,0.0075 V 17.226827 c 0.08993,0.0075 0.187362,0.0075 0.292283,0.0075 1.618797,0 2.9528055,-1.238927 3.0352435,-2.823251 h 6.263546"
     fill="none"
     stroke="#ffffff"
     stroke-linecap="round"
     stroke-linejoin="round"
     stroke-width="1"
     id="path1"
     style="stroke-width:1;stroke-dasharray:none" />
  <path
     d="m 30.29727,13.00528 v 21.989438 c 0,0.07907 -0.01499,0.150999 -0.03747,0.222931 -0.09743,0.287582 -0.382216,0.496173 -0.71197,0.496173 H 18.05137 c -0.329754,0 -0.614542,-0.208591 -0.71197,-0.496173 -0.02248,-0.07194 -0.03747,-0.14379 -0.03747,-0.222931 V 13.00528 c 0,-0.07907 0.01499,-0.150998 0.03747,-0.222931 0.09743,-0.287656 0.382216,-0.496171 0.71197,-0.496171 h 11.496456 c 0.329755,0 0.614545,0.208515 0.711971,0.496171 0.02256,0.07186 0.03747,0.143791 0.03747,0.222931 v 0"
     fill="none"
     stroke="#ffffff"
     stroke-linecap="round"
     stroke-linejoin="round"
     stroke-width="1"
     id="path2"
     style="stroke-width:1;stroke-dasharray:none" />
  <path
     d="M 18.040538,35.713746 H 6.2494424 c -0.4139174,0 -0.7494429,-0.336163 -0.7494429,-0.750864 v -21.92584 c 0,-0.414703 0.3355255,-0.750864 0.7494429,-0.750864 H 18.050605"
     fill="none"
     stroke="#ffffff"
     stroke-linecap="round"
     stroke-linejoin="round"
     stroke-width="1"
     id="path3"
     style="stroke-width:1;stroke-dasharray:none" />
  <path
     d="m 29.547826,12.286178 h 12.202731 c 0.413918,0 0.749443,0.336161 0.749443,0.750864 v 21.925839 c 0,0.414702 -0.335526,0.750865 -0.749443,0.750865 H 29.558659"
     fill="none"
     stroke="#ffffff"
     stroke-linecap="round"
     stroke-linejoin="round"
     stroke-width="1"
     id="path4"
     style="stroke-width:1;stroke-dasharray:none" />
  <path
     d="m 30.29727,17.6775 c 3.990867,0.02417 5.608456,3.983069 5.608456,6.063413 0,2.098216 -1.868013,6.128488 -5.608456,6.08411"
     fill="none"
     stroke="#ffffff"
     stroke-linecap="round"
     stroke-linejoin="round"
     stroke-width="1"
     id="path5"
     style="stroke-width:1;stroke-dasharray:none" />
  <path
     d="m 17.301928,29.825023 c -4.427452,0 -5.634762,-4.300431 -5.634762,-6.08411 0,-1.930022 1.009794,-6.063413 5.634762,-6.063413"
     fill="none"
     stroke="#ffffff"
     stroke-linecap="round"
     stroke-linejoin="round"
     stroke-width="1"
     id="path6"
     style="stroke-width:1;stroke-dasharray:none" />
  <path
     d="M 25.527215,21.897542 C 25.363236,21.258256 24.654189,20.777327 23.80432,20.777327 v 0 c -0.971278,0 -1.758643,0.628173 -1.758643,1.40299 0,0.774817 0.787365,1.40299 1.758643,1.40299 l -0.03567,0.0052 c 0.971279,0 1.758643,0.628173 1.758643,1.40299 0,0.774817 -0.787364,1.40299 -1.758643,1.40299 v 0 c -0.849868,0 -1.558991,-0.480854 -1.722968,-1.120215"
     fill="none"
     stroke="#ffffff"
     stroke-linecap="round"
     stroke-linejoin="round"
     stroke-width="1"
     id="path7"
     style="stroke-width:1;stroke-dasharray:none" />
  <path
     d="M 23.786408,20.777327 V 19.439738"
     fill="none"
     stroke="#ffffff"
     stroke-linecap="round"
     stroke-linejoin="round"
     stroke-width="1"
     id="path8"
     style="stroke-width:1;stroke-dasharray:none" />
  <path
     d="M 23.786408,27.732057 V 26.394468"
     fill="none"
     stroke="#ffffff"
     stroke-linecap="round"
     stroke-linejoin="round"
     stroke-width="1"
     id="path9"
     style="stroke-width:1;stroke-dasharray:none" />
</svg>
