<?xml version="1.0" encoding="UTF-8" standalone="no"?>
<svg
   version="1.2"
   viewBox="0 0 48 48"
   id="svg4"
   xmlns="http://www.w3.org/2000/svg"
   xmlns:svg="http://www.w3.org/2000/svg">
  <defs
     id="defs1" />
  <path
     d="m 19.495757,20.705636 c -0.02488,0.347507 -0.994822,1.540515 -1.24326,1.712808 -0.51812,0.359242 -0.720365,0.194574 -1.171766,0.54923 -0.286095,0.224779 -0.643621,0.465109 -1.081653,0.54923 -0.242469,0.04654 -0.135229,-0.182183 -0.680741,0.167528 -0.303876,0.194813 -0.03408,0.404461 0,0.595758 0.04583,0.257189 0.08009,0.102173 0.596774,0.595759 0.269742,0.257726 0.293853,0.48739 0.596775,0.595759 0.189356,0.06774 0.326972,0.03063 0.596774,0 0.565682,-0.06417 0.314142,0.492455 0.596774,0.595759 0.650006,0.237529 0.594685,1.091609 1.193549,1.191519 0.241872,0.04033 0.328703,-0.08597 0.596774,0 0.245393,0.07876 0.527012,0.298355 0.596774,0.595758 0.09185,0.391712 -0.22188,0.756137 -0.596774,1.191518 -0.303221,0.352152 -0.359497,0.297879 -0.596774,0.595758 -0.317007,0.397968 -0.232145,0.514498 -0.596775,1.191519 -0.369045,0.685241 -0.571949,0.781218 -0.596774,1.191518 -0.01038,0.171578 -4.77e-4,0.57735 0,0.595759 0.01044,0.413992 0.03354,0.468682 0,0.595758 -0.07799,0.296092 -0.680322,0.555427 -0.907575,0.521289 -0.447341,-0.06714 -0.439284,-1.610335 -0.459991,-1.849355 -0.04201,-0.482624 0.156115,-0.752443 0.174018,-1.054969 0.06189,-1.046629 0.236919,-1.371199 0,-1.787277 -0.151164,-0.26547 -0.231011,-0.148523 -0.596775,-0.595759 -0.206542,-0.252542 -0.519431,-0.644373 -0.596774,-1.191517 -0.04875,-0.344647 0.05311,-0.346732 0,-0.59576 -0.09859,-0.461951 -0.482492,-0.61107 -1.193548,-1.191518 -0.438689,-0.35811 -0.827784,-0.67571 -1.193548,-1.191518 -0.190073,-0.268032 -0.459039,-0.647291 -0.596775,-1.191518 -0.181299,-0.716339 0.08874,-0.833228 0,-1.787276 -0.01999,-0.214891 -0.10712,-0.998491 -0.596774,-1.787278 -0.207856,-0.334875 -0.354304,-0.563408 -0.596773,-0.595759 -0.462202,-0.06166 -0.710222,0.664391 -1.1935488,0.595759 -0.2888387,-0.04105 -0.512092,-0.344645 -0.5967741,-0.595759 -0.022618,-0.06708 -0.1052115,-0.323913 0,-0.595758 0.058304,-0.150667 0.2378145,-0.29901 0.5967741,-0.595759 0.3662998,-0.302824 0.5504048,-0.457066 0.5967738,-0.595759 0.08731,-0.261299 -0.07006,-0.354477 0,-0.595758 0.119833,-0.412861 0.75486,-0.740887 1.193548,-0.59576 0.252019,0.08335 0.197652,0.242951 0.596774,0.59576 0.193773,0.17128 0.61253,0.492454 1.19355,0.595758 0.293433,0.05219 0.44012,0.07823 0.596773,0 0.385934,-0.192787 0.201411,-0.703471 0.596775,-1.191518 0.363673,-0.448904 0.954539,-0.553459 1.193547,-0.59576 0.590867,-0.104554 0.671611,0.119511 1.193549,0 0.560909,-0.128445 0.544735,-0.404877 1.193548,-0.595758 0.284125,-0.08358 0.784699,-0.230916 1.193549,0 0.368091,0.207862 0.319275,0.528915 0.596774,0.595758 0.387306,0.09336 0.577081,-0.509373 1.193549,-0.595758 0.470675,-0.06595 1.030569,0.191358 1.193547,0.595758 0.08093,0.200712 0.04303,0.385636 0,0.59576 -0.129917,0.634662 -0.474732,0.673089 -0.596773,1.191518 -0.132663,0.56335 0.15152,0.699957 0,1.191518 -0.09949,0.322722 -0.298388,0.22341 -0.615395,0.484054 -0.145135,0.119271 -0.180285,0.310271 -0.578154,0.707463 -0.198905,0.198568 -0.405449,0.389866 -0.596774,0.59576 -0.436062,0.469219 -0.505646,0.504786 -0.596774,0.595758"
     fill="none"
     stroke="#ffffff"
     stroke-linecap="round"
     stroke-linejoin="round"
     stroke-width="0.943127"
     id="path1"
     style="stroke-width:1;stroke-dasharray:none" />
  <path
     d="m 23.076402,23.684432 c -0.138869,-0.176643 -0.732958,-1.087857 -0.596775,-1.191519 0.168232,-0.128028 0.466022,0.12368 0.596775,0 0.108375,-0.10253 -0.06958,-0.300441 0,-0.595758 0.06708,-0.284833 0.332044,-0.522778 0.596775,-0.595759 0.315096,-0.08686 0.535307,0.08621 0.596773,0 0.118281,-0.165978 -0.738508,-0.751908 -0.596773,-1.191518 0.0879,-0.272679 0.479506,-0.239316 0.596773,-0.59576 0.07884,-0.239494 -0.07585,-0.321769 0,-0.595759 0.07668,-0.276968 0.320646,-0.503296 0.596775,-0.595758 0.07848,-0.02628 0.341175,-0.114266 0.596774,0 0.323333,0.144531 0.273025,0.451049 0.596773,0.595758 0.181958,0.08132 0.414818,0.08132 0.596776,0 0.323092,-0.144411 0.288122,-0.456886 0.596774,-0.595758 0.204513,-0.09199 0.306204,0.0064 0.596773,0 0.666777,-0.01448 1.157265,-0.554712 1.193549,-0.595759 0.300475,-0.340178 0.148179,-0.476308 0.596775,-1.191517 0.239544,-0.381942 0.396616,-0.524208 0.596773,-0.59576 0.05686,-0.02032 0.331629,-0.118495 0.596775,0 0.321839,0.143876 0.289375,0.45498 0.596773,0.59576 0.15922,0.07292 0.26282,0.03295 0.596775,0 0.04249,-0.0042 0.426156,-0.0028 1.193548,0 1.137034,0.0041 1.086367,0.02615 1.193549,0 0.603218,-0.147154 0.591582,-0.448906 1.193548,-0.59576 0.416311,-0.101577 0.407417,0.046 1.193548,0 0.714817,-0.04182 1.059096,-0.183553 1.193549,0 0.05127,0.07 0.01253,0.106105 0,0.59576 -0.0051,0.19946 0.161606,0.387362 0.16471,0.620601 0.0069,0.531238 0.02572,0.497578 -0.003,0.570916 -0.123831,0.315276 -0.215794,0.392486 -0.360572,0.707464 -0.054,0.117483 -0.07119,0.163298 -0.0497,0.60815 0.03157,0.653548 0.212274,0.504966 0.248676,1.067422 0.02835,0.439789 0.07466,0.528141 0,0.595758 -0.200695,0.181826 -1.296909,-0.157101 -1.541646,-0.670228 -0.25727,-0.539222 -0.07287,-0.996645 -0.248677,-1.117049 -0.241394,-0.165322 -1.332715,0.670706 -1.491935,1.200813 -0.0315,0.104913 -0.169603,0.26964 0.344996,0.735405 0.520148,0.470768 0.745072,0.645982 0.792575,0.688816 0.289077,0.260645 0.601608,0.61244 0.354364,0.94952 -0.332287,0.452718 -0.964151,0.18826 -1.193551,0.595759 -0.205708,0.365319 0.230176,0.705796 0,1.191518 -0.06637,0.140003 -0.243186,0.291922 -0.596774,0.595759 -0.393513,0.338093 -0.539841,0.38778 -0.596774,0.595759 -0.0762,0.278398 0.110224,0.46642 0,0.595759 -0.141376,0.165979 -0.576902,0.0074 -0.596775,0 -0.769778,-0.28811 -0.80087,-1.173764 -1.193548,-1.191518 -0.470795,-0.02128 -0.729019,1.238046 -1.193549,1.191518 -0.104316,-0.01042 -0.268429,-0.205537 -0.596774,-0.595759 -0.315812,-0.375387 -0.383009,-0.513306 -0.596774,-0.595759 -0.273382,-0.105509 -0.531905,-0.02199 -0.596774,0 -0.107718,0.03652 -0.300297,0.13202 -0.596774,0.595759 -0.421978,0.660042 -0.261626,0.831322 -0.596775,1.191518 -0.284183,0.305446 -0.512032,0.303241 -0.596774,0.59576 -0.01801,0.06213 -0.01199,0.23997 0,0.595758 0.01235,0.365736 0.01815,0.549587 0,0.595759 -0.124368,0.316587 -0.454741,0.280424 -0.596773,0.595759 -0.09757,0.216559 0.01558,0.328442 0,0.595758 -0.03593,0.616016 -0.710043,1.27969 -1.19355,1.191519 -0.19216,-0.03502 -0.327032,-0.22198 -0.596773,-0.59576 -0.23871,-0.330764 -0.494428,-0.685122 -0.596775,-1.191517 -0.110165,-0.545061 0.09161,-0.601896 0,-1.191518 -0.04643,-0.299012 -0.151104,-0.972338 -0.596774,-1.191518 -0.427648,-0.210302 -0.743222,0.207085 -1.193548,0 -0.419234,-0.192787 -0.610561,-0.768171 -0.596775,-1.191518 0.01475,-0.4523 0.264909,-0.770078 0.596775,-1.191518 0.259954,-0.330229 0.389992,-0.495373 0.596715,-0.595758"
     fill="none"
     stroke="#ffffff"
     stroke-linecap="round"
     stroke-linejoin="round"
     stroke-width="0.943127"
     id="path2"
     style="stroke-width:1;stroke-dasharray:none" />
  <path
     d="m 35.011886,29.046262 c -0.704254,0.345123 -1.040834,0.269819 -1.193548,0.595758 -0.11846,0.2529 -0.02352,0.527783 0,0.595759 0.144956,0.419356 0.552016,0.579019 0.596774,0.59576 0.515493,0.192728 0.799021,-0.211197 1.193548,0 0.301014,0.161152 0.253986,0.459509 0.596774,0.595759 0.1887,0.075 0.356215,0.04551 0.596774,0 0.413386,-0.07823 0.944455,-0.178788 1.193549,-0.595759 0.178495,-0.298713 0.117862,-0.601954 0,-1.191519 -0.09149,-0.457662 -0.211795,-1.059319 -0.596774,-1.191517 -0.07502,-0.02574 -0.08223,-0.007 -0.596775,0 -0.43642,0.0059 -0.481178,-0.007 -0.596774,0 -0.456592,0.02753 -0.539722,0.27536 -1.193548,0.595759"
     fill="none"
     stroke="#ffffff"
     stroke-linecap="round"
     stroke-linejoin="round"
     stroke-width="0.943127"
     id="path3"
     style="stroke-width:1;stroke-dasharray:none" />
  <path
     d="M 5.4715636,12.662891 H 42.471564 V 35.30173 H 5.4715636 V 12.662891"
     fill="none"
     stroke="#ffffff"
     stroke-linecap="round"
     stroke-linejoin="round"
     stroke-width="0.943127"
     id="path4"
     style="stroke-width:1;stroke-dasharray:none" />
</svg>
