<?xml version="1.0" encoding="UTF-8"?><svg id="a" xmlns="http://www.w3.org/2000/svg" viewBox="0 0 48 48"><path id="e" d="M31.578,11.2583c.7298,1.2774,5.4339-1.3191,6.8134-.0769.7932.6497,1.2696,1.6085,1.3082,2.6332-.057,1.65-1.569,2.6443-2.3454,3.1549-1.2082.77-2.6271,1.1426-4.0578,1.0655-4.8427,4.1259-9.3138,11.5128-11.0051,14.5801-.4548.9007-.5453,1.9418-.2528,2.9075.3417,1.1353.338,2.3465-.0107,3.4797-.1174.3678-1.001,3.1385-3.2352,3.473-1.1947.1382-2.3826-.3089-3.1896-1.2005-1.0491-1.1828-1.5193-4.5047-3.5407-4.2496" style="fill:none; stroke:#fff; stroke-linecap:round; stroke-linejoin:round;"/><path id="f" d="M16.422,36.7416c-.7299-1.2774-5.434,1.3191-6.8135.0769-.7932-.6497-1.2696-1.6085-1.3082-2.6332.057-1.65,1.569-2.6443,2.3454-3.1549,1.1893-.7738,2.5908-1.1565,4.0084-1.0945,4.7888-3.7815,8.6009-8.6563,11.1164-14.2155.4362-1.0265.5037-2.1724.191-3.2431-.3417-1.1353-.338-2.3465.0108-3.4797.1173-.3678,1.0009-3.1385,3.2351-3.473,1.1947-.1382,2.3826.3089,3.1897,1.2005,1.049,1.1828,1.5193,4.5047,3.5407,4.2496" style="fill:none; stroke:#fff; stroke-linecap:round; stroke-linejoin:round;"/></svg>