<?xml version="1.0" encoding="UTF-8" standalone="no"?>
<svg
   version="1.2"
   viewBox="0 0 48 48"
   id="svg5"
   xmlns="http://www.w3.org/2000/svg"
   xmlns:svg="http://www.w3.org/2000/svg">
  <defs
     id="defs1" />
  <path
     d="m 13.893958,17.193793 a 2.0307198,2.0208255 0 0 0 -1.970142,1.764969 l -0.815499,7.710017 a 1.5753535,1.5676779 0 0 0 1.596695,1.764969 h 22.589975 a 1.5753535,1.5676779 0 0 0 1.596695,-1.764969 L 36.076183,18.958762 A 2.0307198,2.0208255 0 0 0 34.10604,17.193793 H 13.893958"
     fill="none"
     stroke="#ffffff"
     stroke-linecap="round"
     stroke-linejoin="round"
     stroke-width="0.889535"
     id="path1"
     style="stroke-width:1;stroke-dasharray:none" />
  <path
     d="M 23.999999,30.800054 H 11.516067 a 1.4501575,1.4430919 0 0 1 -1.081941,-0.345066 l -0.14202,-0.140855 -2.3384785,-4.7377 -2.4536279,-0.011"
     fill="none"
     stroke="#ffffff"
     stroke-linecap="round"
     stroke-linejoin="round"
     stroke-width="0.889535"
     id="path2"
     style="stroke-width:1;stroke-dasharray:none" />
  <path
     d="m 23.999999,30.800054 h 12.483933 a 1.4501575,1.4430919 0 0 0 1.081941,-0.345066 l 0.14202,-0.140855 2.338657,-4.737522 2.45345,-0.01118"
     fill="none"
     stroke="#ffffff"
     stroke-linecap="round"
     stroke-linejoin="round"
     stroke-width="0.889535"
     id="path3"
     style="stroke-width:1;stroke-dasharray:none" />
  <path
     d="M 9.3640742,28.433748 H 11.187917 23.999999"
     fill="none"
     stroke="#ffffff"
     stroke-linecap="round"
     stroke-linejoin="round"
     stroke-width="0.889535"
     id="path4"
     style="stroke-width:1;stroke-dasharray:none" />
  <path
     d="M 38.635924,28.433748 H 36.812082 23.999999"
     fill="none"
     stroke="#ffffff"
     stroke-linecap="round"
     stroke-linejoin="round"
     stroke-width="0.889535"
     id="path5"
     style="stroke-width:1;stroke-dasharray:none" />
</svg>
