<?xml version="1.0" encoding="UTF-8" standalone="no"?>
<svg
   version="1.2"
   viewBox="0 0 48 48"
   id="svg3"
   xmlns="http://www.w3.org/2000/svg"
   xmlns:svg="http://www.w3.org/2000/svg">
  <defs
     id="defs1" />
  <path
     d="M 31.031518,30.533026 16.616023,5.5031048 12.642979,7.8534597 11.58753,9.8105088 l 2.154542,0.5494692 -1.055384,1.956917 2.154278,0.54914 -1.055581,1.956786 2.154278,0.549075 -1.055383,1.956983 2.154279,0.549075 -1.055385,1.956982 2.154279,0.549075 -1.055384,1.956983 2.154278,0.549075 -1.055383,1.956983 2.154278,0.549075 -1.055515,1.957115 2.154541,0.549403 -1.055383,1.956917 2.154673,0.549141 -1.055384,1.956917 2.154081,0.54914 -1.055384,1.956917 1.369307,1.634583"
     fill="none"
     stroke="#ffffff"
     stroke-linecap="round"
     stroke-linejoin="round"
     stroke-width="0.999996"
     id="path1"
     style="stroke-width:1;stroke-dasharray:none" />
  <path
     d="m 23.946178,36.50626 3.164111,-4.9578 a 1.3853024,1.3855243 0 0 1 0.986464,-0.628144 l 3.797026,-0.50108 a 1.3176336,1.3178447 0 0 1 1.306574,0.63565 l 3.124945,5.284414 a 0.68695725,0.68706733 0 0 1 -0.241581,0.94113 l -0.413451,0.244516 a 0.68689143,0.6870015 0 0 1 -0.940912,-0.241554 l -0.34598,-0.585021 -6.641158,3.928516 0.34598,0.585021 a 0.68689143,0.6870015 0 0 1 -0.24158,0.941064 l -0.433594,0.256762 a 0.68695725,0.68706733 0 0 1 -0.940979,-0.24162 l -2.548904,-4.31063 a 1.2901842,1.290391 0 0 1 0.02304,-1.351224"
     fill="none"
     stroke="#ffffff"
     stroke-linecap="round"
     stroke-linejoin="round"
     stroke-width="0.987465"
     id="path2"
     style="stroke-width:1;stroke-dasharray:none" />
  <path
     d="m 33.096415,34.518269 -0.664182,-1.123825 -6.076373,3.59466 0.664182,1.123825"
     fill="none"
     stroke="#ffffff"
     stroke-linecap="round"
     stroke-linejoin="round"
     stroke-width="0.987465"
     id="path3"
     style="stroke-width:1;stroke-dasharray:none" />
</svg>
