<?xml version="1.0" encoding="UTF-8" standalone="no"?>
<svg
   version="1.2"
   viewBox="0 0 48 48"
   id="svg5"
   xmlns="http://www.w3.org/2000/svg"
   xmlns:svg="http://www.w3.org/2000/svg">
  <defs
     id="defs1" />
  <path
     d="m 7.5034517,30.805132 c -2.675793,2.675793 -2.6771637,7.015398 0,9.691876 2.6757933,2.676479 7.0167013,2.676479 9.6924933,6.86e-4 l 23.301118,-23.30242 c 2.675793,-2.677163 2.675793,-7.016084 0,-9.691876 C 37.819899,4.8262344 33.480979,4.8262344 30.804501,7.5027128 L 7.5034517,30.805132"
     fill="none"
     stroke="#ffffff"
     stroke-linecap="round"
     stroke-linejoin="round"
     stroke-width="0.997219"
     id="path1"
     style="stroke-width:1;stroke-dasharray:none" />
  <path
     d="m 30.804501,7.5027128 c -2.675793,2.6764772 -2.675793,7.0160832 0,9.6925612"
     fill="none"
     stroke="#ffffff"
     stroke-linecap="round"
     stroke-linejoin="round"
     stroke-width="0.997219"
     id="path2"
     style="stroke-width:1;stroke-dasharray:none" />
  <path
     d="m 24.979067,13.328146 c -2.675792,2.676478 -2.675792,7.016084 0,9.692561"
     fill="none"
     stroke="#ffffff"
     stroke-linecap="round"
     stroke-linejoin="round"
     stroke-width="0.997219"
     id="path3"
     style="stroke-width:1;stroke-dasharray:none" />
  <path
     d="m 19.153634,19.15358 c -2.675108,2.677163 -2.675108,7.016768 0,9.692561"
     fill="none"
     stroke="#ffffff"
     stroke-linecap="round"
     stroke-linejoin="round"
     stroke-width="0.997219"
     id="path4"
     style="stroke-width:1;stroke-dasharray:none" />
  <path
     d="m 13.328886,24.979698 c -2.675794,2.676479 -2.675794,7.016084 0,9.692562"
     fill="none"
     stroke="#ffffff"
     stroke-linecap="round"
     stroke-linejoin="round"
     stroke-width="0.997219"
     id="path5"
     style="stroke-width:1;stroke-dasharray:none" />
</svg>
