<?xml version="1.0" encoding="UTF-8" standalone="no"?>
<svg
   version="1.2"
   viewBox="0 0 48 48"
   id="svg1"
   xmlns="http://www.w3.org/2000/svg"
   xmlns:svg="http://www.w3.org/2000/svg">
  <defs
     id="defs1" />
  <path
     d="M 44.825285,18.624972 C 44.64728,17.942905 44.439768,17.268251 44.195113,16.615838 43.957873,15.956011 43.683562,15.303598 43.379598,14.680841 41.26667,10.291884 37.708056,6.7332693 33.319097,4.620342 32.69634,4.3163769 32.043928,4.0420672 31.3841,3.8048261 30.731688,3.5601714 30.057034,3.3525856 29.374967,3.1746549 27.654969,2.7372418 25.85342,2.5000009 23.999975,2.5000009 c -0.326206,0 -0.652412,0.00742 -0.978619,0.029655 -0.08155,-0.00741 -0.163103,-4e-7 -0.237241,0.00741 -0.23724,0.00741 -0.474482,0.029655 -0.704309,0.051896 -0.103789,0.00742 -0.207586,0.014827 -0.311378,0.029656 -0.244655,0.022241 -0.481897,0.051897 -0.726552,0.088965 -0.244654,0.029656 -0.481895,0.066724 -0.72655,0.1112067 -0.474482,0.081551 -0.948963,0.1779307 -1.416032,0.2965511 -0.222413,0.051897 -0.444826,0.1112067 -0.66724,0.170517 -0.02224,0 -0.05182,0.00742 -0.07414,0.022241 -0.444827,0.1186204 -0.889654,0.2594822 -1.319654,0.4225854 -0.200172,0.066724 -0.400344,0.1408618 -0.600516,0.2224134 -0.05189,0.00741 -0.09638,0.029655 -0.148272,0.05931 -0.415171,0.1482756 -0.822929,0.3262063 -1.223274,0.5263783 -0.214999,0.1037926 -0.422585,0.2075859 -0.630171,0.3113788 -0.422586,0.2149997 -0.837757,0.4448268 -1.238101,0.6820678 l 0.0126,0.011121 C 9.0565359,7.8929331 5.922064,11.463409 4.1458704,15.755839 4.0124224,16.074632 3.8863882,16.393424 3.7678418,16.719631 3.5306007,17.36463 3.323015,18.03187 3.1599117,18.706523 3.048705,19.121696 2.9597397,19.536867 2.8856018,19.959453 2.7595676,20.574796 2.6706022,21.204968 2.611292,21.835139 2.53708,22.546862 2.5000111,23.273412 2.5000111,23.999962 c 0,1.853446 0.237241,3.655069 0.6746541,5.367652 0.1780048,0.689482 0.3855165,1.356722 0.6301713,2.016548 0.3558615,0.986033 0.7932746,1.942411 1.2899978,2.861719 0.9934467,1.831204 2.2463756,3.499304 3.7068906,4.952405 0.733964,0.741378 1.5124111,1.416032 2.3427541,2.023962 0.548694,0.422586 1.119481,0.808102 1.70517,1.163963 h 0.0075 c 0.585689,0.363276 1.19362,0.689481 1.82379,0.993447 2.817238,1.356722 5.975508,2.120341 9.319123,2.120341 0.311378,0 0.622757,-0.0073 0.934136,-0.02224 0.111207,0 0.229828,-0.0075 0.348448,-0.02224 0.237241,-0.0073 0.467069,-0.02224 0.696895,-0.0519 0.348448,-0.02224 0.689482,-0.06672 1.030516,-0.118621 0.192758,-0.02224 0.39293,-0.0519 0.585689,-0.08897 0.467068,-0.07414 0.926722,-0.170516 1.386376,-0.281723 0.207586,-0.04448 0.415246,-0.09638 0.622758,-0.155689 0.489309,-0.126035 0.971206,-0.27431 1.445687,-0.452241 0.207586,-0.06672 0.407758,-0.140862 0.600516,-0.214999 0.437414,-0.15569 0.86,-0.341035 1.282585,-0.541207 0.207585,-0.0963 0.415171,-0.192684 0.622758,-0.296551 0.407757,-0.207585 0.808101,-0.422586 1.208445,-0.652412 l -0.0095,-0.0083 c 3.980533,-2.297678 7.167198,-5.834051 8.994991,-10.096678 0.0075,-0.0075 0.0075,-0.0075 0.0075,-0.01482 0.281723,-0.644999 0.526378,-1.312239 0.741378,-1.986894 0.10379,-0.341034 0.207585,-0.689481 0.296551,-1.037928 0.07403,-0.281687 0.140751,-0.570824 0.207475,-0.859962 0.09638,-0.415171 0.170516,-0.837757 0.23724,-1.267756 0.05931,-0.363349 0.103794,-0.72655 0.140863,-1.097239 0.02966,-0.266896 0.05182,-0.541206 0.06672,-0.815516 0.03707,-0.467069 0.0519,-0.94155 0.0519,-1.416032 0,-1.853519 -0.237242,-3.655067 -0.674655,-5.375065 m -17.118419,5.37499 c 0,2.046204 -1.660687,3.706891 -3.706891,3.706891 -2.046207,0 -3.706893,-1.660687 -3.706893,-3.706891 0,-2.046128 1.660686,-3.706889 3.70689,-3.706889 2.046203,0 3.706891,1.660686 3.706891,3.706889"
     fill="none"
     stroke="#ffffff"
     stroke-linecap="round"
     stroke-linejoin="round"
     stroke-width="1.11207"
     id="path1"
     style="stroke-width:1;stroke-dasharray:none" />
</svg>
