<?xml version="1.0" encoding="UTF-8" standalone="no"?>
<svg
   version="1.2"
   viewBox="0 0 48 48"
   id="svg10"
   sodipodi:docname="emoji_dog_face.svg"
   inkscape:version="1.4 (86a8ad7, 2024-10-11)"
   xmlns:inkscape="http://www.inkscape.org/namespaces/inkscape"
   xmlns:sodipodi="http://sodipodi.sourceforge.net/DTD/sodipodi-0.dtd"
   xmlns="http://www.w3.org/2000/svg"
   xmlns:svg="http://www.w3.org/2000/svg">
  <sodipodi:namedview
     id="namedview10"
     pagecolor="#ffffff"
     bordercolor="#000000"
     borderopacity="0.25"
     inkscape:showpageshadow="2"
     inkscape:pageopacity="0.0"
     inkscape:pagecheckerboard="true"
     inkscape:deskcolor="#d1d1d1"
     inkscape:zoom="28.240077"
     inkscape:cx="18.271905"
     inkscape:cy="18.254199"
     inkscape:window-width="3840"
     inkscape:window-height="2097"
     inkscape:window-x="-8"
     inkscape:window-y="-8"
     inkscape:window-maximized="1"
     inkscape:current-layer="svg10" />
  <defs
     id="defs1" />
  <path
     d="m 19.841288,20.141066 c 0,0 -1.183385,0.81444 -1.801793,0.437834 -0.618472,-0.376606 -0.81449,-1.183311 -0.43786,-1.801679 0.37663,-0.618368 1.183319,-0.81444 1.801792,-0.437833 0.618474,0.376606 0.437861,1.801678 0.437861,1.801678"
     fill="none"
     stroke="#ffffff"
     stroke-linecap="round"
     stroke-linejoin="round"
     stroke-width="0.983337"
     id="path1"
     style="stroke-width:1;stroke-dasharray:none" />
  <path
     d="m 22.203339,24.66244 h 4.028989 c 0.262953,0 0.50047,0.157132 0.60333,0.399156 l 0.759095,1.786011 -1.428638,0.750985 c -0.403574,0.212131 -0.895127,-0.04228 -0.954981,-0.494276"
     fill="none"
     stroke="#ffffff"
     stroke-linecap="round"
     stroke-linejoin="round"
     stroke-width="0.983337"
     id="path2"
     style="stroke-width:1;stroke-dasharray:none" />
  <path
     d="m 23.286158,27.125293 c -0.07421,0.410891 -0.508532,0.648655 -0.894669,0.489752 l -1.516484,-0.624071 0.714515,-1.903353 c 0.09605,-0.255725 0.340573,-0.425181 0.613753,-0.425181"
     fill="none"
     stroke="#ffffff"
     stroke-linecap="round"
     stroke-linejoin="round"
     stroke-width="0.983337"
     id="path3"
     style="stroke-width:1;stroke-dasharray:none" />
  <path
     d="m 20.451304,33.198061 c 0,0 -0.471164,5.764403 1.971456,6.514404 1.734597,0.532624 3.376035,0.349007 3.974447,-0.163885 0.573631,-0.491653 1.72568,-2.93294 1.197546,-6.350519"
     fill="none"
     stroke="#ffffff"
     stroke-linecap="round"
     stroke-linejoin="round"
     stroke-width="0.983337"
     id="path4"
     style="stroke-width:1;stroke-dasharray:none" />
  <path
     d="m 29.516123,20.141066 c 0,0 1.183319,0.81444 1.801792,0.437834 0.618474,-0.376606 0.814491,-1.183311 0.437861,-1.801679 -0.37663,-0.618434 -1.183319,-0.81444 -1.801793,-0.437833 -0.618472,0.376606 -0.43786,1.801678 -0.43786,1.801678"
     fill="none"
     stroke="#ffffff"
     stroke-linecap="round"
     stroke-linejoin="round"
     stroke-width="0.983337"
     id="path5"
     style="stroke-width:1;stroke-dasharray:none" />
  <path
     d="m 17.296725,28.486386 c -0.3114,2.361508 1.464759,3.769668 2.808959,4.484794 0.784596,0.41738 1.737808,0.339699 2.437179,-0.208527 l 1.692048,-1.326349 1.692049,1.326349 c 0.699438,0.548226 1.652649,0.625907 2.43718,0.208527 1.344198,-0.715126 3.120357,-2.123286 2.808958,-4.484794"
     fill="none"
     stroke="#ffffff"
     stroke-linecap="round"
     stroke-linejoin="round"
     stroke-width="0.983337"
     id="path6"
     style="stroke-width:1;stroke-dasharray:none" />
  <path
     d="m 13.577234,18.992827 c -1.518714,3.382377 -0.333296,8.53831 0.07801,10.079478 0.07998,0.299646 0.04949,0.613256 -0.08332,0.893563 l -1.302896,2.749127 c -0.408427,0.86177 -1.569063,1.018247 -2.183733,0.289027 C 7.9926211,30.521436 4.474589,25.537516 5.7921711,22.065725 10.422195,9.8659107 16.194697,10.172374 16.194697,10.172374 c 1.865318,-1.2675467 8.590835,-4.5477905 16.266548,0.573595 0,0 5.659152,-1.1258848 9.792707,11.103166 1.182401,3.498079 -2.248438,8.434669 -4.294434,10.910896 -0.610475,0.738791 -1.780683,0.585985 -2.191141,-0.280046 l -1.294178,-2.730706 c -0.13282,-0.280242 -0.163305,-0.593917 -0.08332,-0.893564 0.411373,-1.541102 1.596725,-6.697035 0.07801,-10.079478"
     fill="none"
     stroke="#ffffff"
     stroke-linecap="round"
     stroke-linejoin="round"
     stroke-width="0.983337"
     id="path7"
     style="stroke-width:1;stroke-dasharray:none" />
  <path
     d="m 35.001547,30.861726 c 0,0 -2.565006,5.321028 -7.51308,6.287607"
     fill="none"
     stroke="#ffffff"
     stroke-linecap="round"
     stroke-linejoin="round"
     stroke-width="1"
     id="path8"
     sodipodi:nodetypes="cc"
     style="stroke-width:1;stroke-dasharray:none" />
  <path
     d="m 13.240332,31.193559 c 0,0 2.665648,5.492924 7.488025,6.139494"
     fill="none"
     stroke="#ffffff"
     stroke-linecap="round"
     stroke-linejoin="round"
     stroke-width="1"
     id="path9"
     sodipodi:nodetypes="cc"
     style="stroke-width:1;stroke-dasharray:none" />
  <path
     d="M 24.234911,31.436304 V 29.450026"
     fill="none"
     stroke="#ffffff"
     stroke-linecap="round"
     stroke-linejoin="round"
     stroke-width="0.983337"
     id="path10"
     style="stroke-width:1;stroke-dasharray:none" />
</svg>
