<?xml version="1.0" encoding="UTF-8" standalone="no"?>
<svg
   version="1.2"
   viewBox="0 0 48 48"
   id="svg9"
   xmlns="http://www.w3.org/2000/svg"
   xmlns:svg="http://www.w3.org/2000/svg">
  <defs
     id="defs1" />
  <path
     d="m 13.786377,16.735449 c 0,0 15.474146,0.804163 24.968368,-5.703389"
     fill="none"
     stroke="#ffffff"
     stroke-linecap="round"
     stroke-linejoin="round"
     stroke-width="0.936057"
     id="path1"
     style="stroke-width:1;stroke-dasharray:none" />
  <path
     d="m 13.786377,28.526526 c 0,0 15.474146,-0.804163 24.968368,5.703388"
     fill="none"
     stroke="#ffffff"
     stroke-linecap="round"
     stroke-linejoin="round"
     stroke-width="0.936057"
     id="path2"
     style="stroke-width:1;stroke-dasharray:none" />
  <path
     d="M 9.5479968,16.735449 H 13.784504 V 28.358082 H 9.5479968 c -0.6895015,0 -1.2484185,-0.55861 -1.2484185,-1.247733 v -9.127168 c 0,-0.689123 0.558917,-1.247732 1.2484185,-1.247732 v 0"
     fill="none"
     stroke="#ffffff"
     stroke-linecap="round"
     stroke-linejoin="round"
     stroke-width="0.936057"
     id="path3"
     style="stroke-width:1;stroke-dasharray:none" />
  <path
     d="m 13.783881,28.551481 0.547182,2.899731 h -0.936314 l 0.976262,5.177469 h 0.311856 l 0.237199,1.257715 -3.417546,0.04729 -1.7696325,-9.382952"
     fill="none"
     stroke="#ffffff"
     stroke-linecap="round"
     stroke-linejoin="round"
     stroke-width="0.936057"
     id="path4"
     style="stroke-width:1;stroke-dasharray:none" />
  <path
     d="m 13.786377,16.735449 c 0,0 15.474146,0.804163 24.968368,-5.703389"
     fill="none"
     stroke="#ffffff"
     stroke-linecap="round"
     stroke-linejoin="round"
     stroke-width="0.936057"
     id="path5"
     style="stroke-width:1;stroke-dasharray:none" />
  <path
     d="m 13.786377,28.526526 c 0,0 15.474146,-0.804163 24.968368,5.703388"
     fill="none"
     stroke="#ffffff"
     stroke-linecap="round"
     stroke-linejoin="round"
     stroke-width="0.936057"
     id="path6"
     style="stroke-width:1;stroke-dasharray:none" />
  <path
     d="M 8.2995783,18.488513 H 6.7484185 c -0.6895014,0 -1.2484184,0.558611 -1.2484184,1.247734 v 5.566137 c 0,0.689123 0.558917,1.247733 1.2484184,1.247733 h 1.5511598"
     fill="none"
     stroke="#ffffff"
     stroke-linecap="round"
     stroke-linejoin="round"
     stroke-width="0.936057"
     id="path7"
     style="stroke-width:1;stroke-dasharray:none" />
  <path
     d="m 10.041122,26.105924 h 1.872627"
     fill="none"
     stroke="#ffffff"
     stroke-linecap="round"
     stroke-linejoin="round"
     stroke-width="0.936057"
     id="path8"
     style="stroke-width:1;stroke-dasharray:none" />
  <path
     d="m 40.003163,10.066315 h 1.248419 A 1.2484184,1.247733 0 0 1 42.5,11.314049 v 22.465433 a 1.2484184,1.247733 0 0 1 -1.248418,1.247734 H 40.003163 A 1.2484184,1.247733 0 0 1 38.754745,33.779482 V 11.314049 a 1.2484184,1.247733 0 0 1 1.248418,-1.247734"
     fill="none"
     stroke="#ffffff"
     stroke-linecap="round"
     stroke-linejoin="round"
     stroke-width="0.936057"
     id="path9"
     style="stroke-width:1;stroke-dasharray:none" />
</svg>
