<?xml version="1.0" encoding="UTF-8" standalone="no"?>
<svg
   version="1.2"
   viewBox="0 0 48 48"
   id="svg4"
   xmlns="http://www.w3.org/2000/svg"
   xmlns:svg="http://www.w3.org/2000/svg">
  <defs
     id="defs1" />
  <path
     d="M 7.0413198,35.42291 C 6.316111,33.864127 9.6057391,30.733828 11.575854,26.320186 12.425033,24.417777 12.50243,22.77401 12.132025,21.510484 11.165431,19.574473 10.356195,18.783178 9.5566031,16.897796 8.9204721,15.397777 15.716697,16.679535 15.881513,16.614141 16.548693,16.021893 18.341631,9.4161612 19.97126,7.3923799 20.715385,6.46826 22.530555,5.402275 24.327789,5.5079016 c 1.520957,0.089428 3.090748,0.9803988 3.738184,1.7890979 1.636109,2.0435967 3.552491,9.1962205 4.092761,9.3077985 1.454638,0.300457 6.005149,-1.4295 6.270875,0.310326 0.0581,0.380693 -1.447026,4.35058 -1.691049,4.606812 -0.428961,1.015582 -0.878194,2.54084 -0.238445,4.128554 0.914519,2.269465 4.563171,6.468387 4.562719,10.5656 0,0.145029 -0.698078,4.158313 -5.795868,2.747949 -0.113872,-0.0315 -3.753708,-1.489169 -5.936871,-0.843958 -2.574895,0.760933 -2.118578,2.243699 -5.240677,3.558683 -0.816547,0.343926 -2.344739,0.966762 -4.350725,0.790767 -0.538989,-0.04732 -2.09416,-0.201534 -3.626045,-1.209884 C 13.915393,39.813271 14.333576,38.299616 12.504389,36.964441 10.081198,35.19561 7.5663672,36.551503 7.0413198,35.42291 v 0"
     fill="none"
     stroke="#ffffff"
     stroke-linecap="round"
     stroke-linejoin="round"
     stroke-width="1"
     id="path1" />
  <path
     d="m 25.27524,14.203563 a 1.286732,2.4012361 0 1 0 2.573464,0 1.286732,2.4012361 0 1 0 -2.573464,0"
     fill="none"
     stroke="#ffffff"
     stroke-linecap="round"
     stroke-linejoin="round"
     stroke-width="1"
     id="path2" />
  <path
     d="m 22.678793,19.574473 a 1.3370733,1.6012753 0 1 0 2.674146,0 1.3370733,1.6012753 0 1 0 -2.674146,0"
     fill="none"
     stroke="#ffffff"
     stroke-linecap="round"
     stroke-linejoin="round"
     stroke-width="1"
     id="path3" />
  <path
     d="m 20.152732,14.203563 a 1.2867315,2.401235 0 1 0 2.573463,0 1.2867315,2.401235 0 1 0 -2.573463,0"
     fill="none"
     stroke="#ffffff"
     stroke-linecap="round"
     stroke-linejoin="round"
     stroke-width="1"
     id="path4" />
</svg>
