<?xml version="1.0" encoding="UTF-8" standalone="no"?>
<svg
   version="1.2"
   viewBox="0 0 48 48"
   id="svg6"
   xmlns="http://www.w3.org/2000/svg"
   xmlns:svg="http://www.w3.org/2000/svg">
  <defs
     id="defs1" />
  <path
     d="m 17.435016,30.865651 v 8.835681 c 0,0 -0.08666,1.005233 1.869536,1.005233 h 8.709355 c 0,0 1.66833,0.294094 1.66833,-1.273493 V 30.89754"
     fill="none"
     stroke="#ffffff"
     stroke-linecap="round"
     stroke-linejoin="round"
     stroke-width="1"
     id="path1" />
  <path
     d="m 42.5,24.295129 c 0,6.541124 -8.282747,6.662077 -18.500001,6.662077 -10.217253,0 -18.4999994,-0.120953 -18.4999994,-6.662077 0,-6.541124 8.2827464,-17.0253105 18.4999994,-17.0253105 C 34.217253,7.2698185 42.5,17.754005 42.5,24.295129"
     fill="none"
     stroke="#ffffff"
     stroke-linecap="round"
     stroke-linejoin="round"
     stroke-width="1"
     id="path2" />
  <path
     d="m 42.5,24.295129 c 0,6.541124 -8.282747,6.662077 -18.500001,6.662077 -10.217253,0 -18.4999994,-0.120953 -18.4999994,-6.662077 0,-6.541124 8.2827464,-17.0253105 18.4999994,-17.0253105 C 34.217253,7.2698185 42.5,17.754005 42.5,24.295129"
     fill="none"
     stroke="#ffffff"
     stroke-linecap="round"
     stroke-linejoin="round"
     stroke-width="1"
     id="path3" />
  <path
     d="m 14.192114,10.547931 c 0,0 3.472006,10.452874 -8.0847962,10.372263 0,-7.4e-5 2.2236996,-6.709231 8.0847962,-10.372263"
     fill="none"
     stroke="#ffffff"
     stroke-linecap="round"
     stroke-linejoin="round"
     stroke-width="1"
     id="path4" />
  <path
     d="m 33.737733,10.547931 c 0,0 -3.472006,10.452874 8.084796,10.372263 -7.3e-5,-7.4e-5 -2.223774,-6.709231 -8.084796,-10.372263"
     fill="none"
     stroke="#ffffff"
     stroke-linecap="round"
     stroke-linejoin="round"
     stroke-width="1"
     id="path5" />
  <path
     d="m 18.064607,21.47522 a 5.935392,4.5715918 0 1 0 11.870784,0 5.935392,4.5715918 0 1 0 -11.870784,0"
     fill="none"
     stroke="#ffffff"
     stroke-linecap="round"
     stroke-linejoin="round"
     stroke-width="1"
     id="path6" />
</svg>
