<?xml version="1.0" encoding="UTF-8" standalone="no"?>
<svg
   version="1.2"
   viewBox="0 0 48 48"
   id="svg5"
   xmlns="http://www.w3.org/2000/svg"
   xmlns:svg="http://www.w3.org/2000/svg">
  <defs
     id="defs1" />
  <path
     d="m 25.195211,7.9113559 a 10.279776,10.282915 0 0 0 -9.13315,0.05706 38.240743,38.252419 0 0 0 -7.2936774,4.7294341 l 1.01728,1.597303 -1.432882,0.868653 -0.7171277,-1.125972 a 1.8182462,1.8188013 0 0 0 -2.1356548,1.360989 l 2.9417365,4.61899 A 2.1572632,2.1579219 0 0 0 10.577391,18.6569 l -0.7540084,-1.183866 1.4253994,-0.880415 1.159759,1.821016 7.330939,-4.671386 -2.096027,-3.291073 c 0,0 4.905897,-3.1265543 7.551758,-2.5398151"
     fill="none"
     stroke="#ffffff"
     stroke-linecap="round"
     stroke-linejoin="round"
     stroke-width="1.1455"
     id="path1"
     style="stroke-width:1;stroke-dasharray:none" />
  <path
     d="m 31.221392,7.7224724 -3.640234,5.7162446 7.330099,4.671461 c 0,0 4.938348,1.24497 7.588789,1.797493 l -3.911599,-7.57125 -7.367055,-4.6139486"
     fill="none"
     stroke="#ffffff"
     stroke-linecap="round"
     stroke-linejoin="round"
     stroke-width="1.1455"
     id="path2"
     style="stroke-width:1;stroke-dasharray:none" />
  <path
     d="m 25.445503,28.375297 1.839397,1.419113 5.715186,9.102026 -0.692542,0.441468 -2.077625,1.32364 -0.692541,0.441467 L 25.150772,34.216726 23.96803,32.3592"
     fill="none"
     stroke="#ffffff"
     stroke-linecap="round"
     stroke-linejoin="round"
     stroke-width="1.1455"
     id="path3"
     style="stroke-width:1;stroke-dasharray:none" />
  <path
     d="m 22.422601,28.389045 -1.220919,-1.940014 -6.065657,-9.729094 2.077625,-1.32364 5.456342,8.759851 1.259861,2.002644"
     fill="none"
     stroke="#ffffff"
     stroke-linecap="round"
     stroke-linejoin="round"
     stroke-width="1.1455"
     id="path4"
     style="stroke-width:1;stroke-dasharray:none" />
  <path
     d="m 23.929853,26.158792 6.790266,-10.762495 2.077625,1.32364 -8.090596,12.825478 -0.573427,2.557153 -5.831247,9.027939 -0.69254,-0.441467 -2.077625,-1.324403 -0.692542,-0.440705 5.773216,-9.065364 2.015777,-1.636792 1.301093,-2.062984"
     fill="none"
     stroke="#ffffff"
     stroke-linecap="round"
     stroke-linejoin="round"
     stroke-width="1.1455"
     id="path5"
     style="stroke-width:1;stroke-dasharray:none" />
</svg>
