<?xml version="1.0" encoding="UTF-8" standalone="no"?>
<svg
   version="1.2"
   viewBox="0 0 48 48"
   id="svg7"
   xmlns="http://www.w3.org/2000/svg"
   xmlns:svg="http://www.w3.org/2000/svg">
  <defs
     id="defs1" />
  <path
     d="m 27.425044,25.486304 a 13.524061,13.524059 0 0 1 1.679805,0.517869 l 0.0402,0.01552 a 5.6086956,5.6086948 0 1 0 -0.211821,-7.742989 c -4.196426,1.900598 -8.973913,0.315862 -9.884578,-0.02009 a 5.6086956,5.6086948 0 1 0 -0.194436,7.763089 0.79652826,0.79652814 0 0 0 0.08217,-0.03375 9.6095651,9.6095637 0 0 1 1.33543,-0.510764 c 0,0 0.398686,-5.366587 3.66089,-5.366587 3.262204,0 3.492348,5.377711 3.492348,5.377711 m -12.490667,0.289774 a 3.7391304,3.7391299 0 1 1 3.739131,-3.73913 3.7391304,3.7391299 0 0 1 -3.739131,3.73913 v 0 m 18.131417,0 a 3.7391304,3.7391299 0 1 1 3.739131,-3.73913 3.7391304,3.7391299 0 0 1 -3.739131,3.73913 v 0"
     fill="none"
     stroke="#ffffff"
     stroke-linecap="round"
     stroke-linejoin="round"
     stroke-width="1.40217"
     id="path1"
     style="stroke-width:1;stroke-dasharray:none" />
  <path
     d="m 20.077806,18.585456 c 0,0 0.06529,-6.024483 -7.592083,-6.024483 0.08905,0.345583 0.244945,0.670368 0.458884,0.956002 0,0 -4.0535913,-0.458884 -4.7801983,1.223725 l 0.726607,0.956094 c -0.948952,0.253962 -1.567755,1.165847 -1.453213,2.141494 -0.05283,0.933051 0.672143,1.726973 1.606144,1.758887 l 0.773052,0.0802"
     fill="none"
     stroke="#ffffff"
     stroke-linecap="round"
     stroke-linejoin="round"
     stroke-width="0.999999"
     id="path2"
     style="stroke-width:1;stroke-dasharray:none" />
  <path
     d="m 28.588194,18.424718 c 0,0 -0.162839,-5.863745 7.494619,-5.863745 -0.08905,0.345583 -0.244945,0.670368 -0.458885,0.956002 0,0 4.053498,-0.458884 4.780105,1.223725 l -0.726607,0.956094 c 0.948952,0.253962 1.567756,1.165847 1.453213,2.141494 0.05283,0.933051 -0.672143,1.726973 -1.606144,1.758887 l -1.422648,-0.08643"
     fill="none"
     stroke="#ffffff"
     stroke-linecap="round"
     stroke-linejoin="round"
     stroke-width="0.999999"
     id="path3"
     style="stroke-width:1;stroke-dasharray:none" />
  <path
     d="m 20.186929,33.03112 a 2.3961283,2.3961279 0 0 0 -1.716355,-0.831302 1.414887,1.4148868 0 0 1 -1.448071,-1.608947 3.4148543,3.4148538 0 0 1 1.662604,-2.73536 5.875576,5.8755751 0 0 0 2.06587,-3.636305 c 0.38943,-4.167166 2.935217,-4.39273 3.164987,-4.404601 h 0.03655 c 0.250335,0.01388 2.773968,0.257252 3.161529,4.404415 a 5.875576,5.8755751 0 0 0 2.065863,3.636303 3.4148543,3.4148538 0 0 1 1.662698,2.735548 1.414887,1.4148868 0 0 1 -1.448071,1.608947 2.3961283,2.3961279 0 0 0 -1.716355,0.831302"
     fill="none"
     stroke="#ffffff"
     stroke-linecap="round"
     stroke-linejoin="round"
     stroke-width="1.40217"
     id="path4"
     style="stroke-width:1;stroke-dasharray:none" />
  <path
     d="m 19.945568,30.885795 c 0,0 -0.714361,4.451621 3.987128,4.451621 4.701489,0 3.950671,-4.451621 3.950671,-4.451621"
     fill="none"
     stroke="#ffffff"
     stroke-linecap="round"
     stroke-linejoin="round"
     stroke-width="1.40217"
     id="path5"
     style="stroke-width:1;stroke-dasharray:none" />
  <path
     d="m 30.372414,31.853575 c 0,0 4.751218,0.06544 2.368272,4.063686 A 4.1998848,4.1998842 0 0 0 31.046111,35.14943 c 0,0 0.211822,2.727136 -3.283143,3.018413 v -1.323932 c 0,0 -0.564703,1.959304 -3.830272,1.959304 h -0.0157 c -3.265477,0 -3.830272,-1.959304 -3.830272,-1.959304 v 1.323839 c -3.494965,-0.291278 -3.283143,-3.018412 -3.283143,-3.018412 a 4.1999782,4.1999776 0 0 0 -1.694481,0.76783 c -2.382948,-3.997971 2.368272,-4.063687 2.368272,-4.063687"
     fill="none"
     stroke="#ffffff"
     stroke-linecap="round"
     stroke-linejoin="round"
     stroke-width="1.40217"
     id="path6"
     style="stroke-width:1;stroke-dasharray:none" />
  <path
     d="M 2.5000003,24 A 21.5,21.499996 0 1 0 45.5,24 21.5,21.499996 0 1 0 2.5000003,24"
     fill="none"
     stroke="#ffffff"
     stroke-linecap="round"
     stroke-linejoin="round"
     stroke-width="1.40217"
     id="path7"
     style="stroke-width:1;stroke-dasharray:none" />
</svg>
