<svg width="48" height="49" viewBox="0 0 48 49" fill="none" xmlns="http://www.w3.org/2000/svg">
<path d="M10.9843 30.7065C10.1274 28.9196 9.58194 27.2723 9.58194 25.6594C9.58194 25.5152 9.58833 25.3732 9.60046 25.2332M10.9843 30.7065C12.0153 32.8565 13.4972 35.2085 15.0224 37.9454C15.4859 38.7772 32.5112 38.848 33.0007 37.9454C34.4899 35.1996 35.8985 32.8039 36.9045 30.7065M10.9843 30.7065C10.7776 27.3571 37.3748 27.6431 36.9045 30.7065M36.9045 30.7065C37.8251 28.7874 38.4087 27.1181 38.4087 25.6594C38.4219 25.5212 38.4211 25.3712 38.4063 25.2332M9.60046 25.2332C10.3294 20.4895 38.4063 20.8204 38.4063 25.2332M9.60046 25.2332C9.77036 23.2735 11.0665 21.7254 11.7106 20.4895M38.4063 25.2332C38.2616 23.7475 36.7978 21.9072 36.1743 20.4895M11.7106 20.4895C11.9284 20.0717 12.0716 19.6896 12.0716 19.3393C12.0716 18.9414 11.9884 18.5674 11.8638 18.2121M11.7106 20.4895C14.4965 16.5308 33.6979 16.7351 36.1743 20.4895M36.1743 20.4895C35.9855 20.0602 35.8737 19.6696 35.8991 19.3393C35.9316 18.9151 35.9986 18.5434 36.0854 18.2121M11.8638 18.2121C11.5311 17.2634 10.9035 16.4477 10.7776 15.6638C9.56754 8.12834 38.59 8.32658 37.0932 15.6638C36.9493 16.3691 36.3933 17.0367 36.0854 18.2121M11.8638 18.2121C12.7807 12.8539 35.4955 13.385 36.0854 18.2121" stroke="white"/>
</svg>
