<?xml version="1.0" encoding="UTF-8" standalone="no"?>
<!-- Created with Inkscape (http://www.inkscape.org/) -->

<svg
   width="48"
   height="48"
   viewBox="0 0 48 48"
   version="1.1"
   id="svg1"
   xml:space="preserve"
   xmlns="http://www.w3.org/2000/svg"
   xmlns:svg="http://www.w3.org/2000/svg"><defs
     id="defs1" /><path
     style="display:inline;fill:none;fill-opacity:1;stroke:#ffffff;stroke-width:1;stroke-linecap:round;stroke-linejoin:round;stroke-dasharray:none;stroke-opacity:1;paint-order:stroke fill markers"
     d="M 6.6012886,16.609807 C 7.0891835,14.049076 8.1662761,12.115766 9.9113825,9.9358857 10.529824,9.1633781 11.928916,7.7728312 12.728733,7.1357537 14.831394,5.4609366 17.16728,4.203265 19.811749,3.3221812 l 0.783216,-0.2609545 -4.610134,-0.00196 -4.610135,-0.00196 -0.531854,0.4227835 C 10.142287,4.0369726 8.6514988,5.5311575 8.0709582,6.258277 6.5119654,8.2109039 5.2185961,10.714687 4.5642913,13.046696 4.008094,15.02904 3.8798974,16.150391 3.9077939,18.789761 c 0.01204,1.142473 0.038664,2.169172 0.059121,2.281541 0.020457,0.112379 0.087204,0.541446 0.1482821,0.953482 0.466997,3.149533 1.8272591,6.39368 3.7618365,8.971775 0.3095042,0.412467 0.6741749,0.953062 0.8103783,1.20134 2.0907692,3.811062 5.5258062,6.716907 9.6280942,8.144816 0.644781,0.224434 1.712893,0.519741 2.21133,0.611461 1.243821,0.228781 2.399588,0.341579 3.430798,0.333779 0.674802,-0.0049 0.60369,0.06801 -0.203106,0.208147 C 18.762574,42.363184 13.977896,41.147739 10.072592,38.020503 8.7549872,36.965409 7.2187227,35.27172 6.1953718,33.745959 4.957218,31.899965 4.1464384,30.232254 3.3941239,27.984052 l -0.3988317,-1.191856 -0.00294,4.808934 -0.00294,4.808924 0.5850432,0.70765 c 3.271935,3.957602 7.9641256,6.402842 13.1723476,6.864524 0.653453,0.05794 3.441458,0.04355 3.882036,-0.02007 0.131104,-0.01889 0.422255,-0.05266 0.647003,-0.07498 3.284308,-0.326477 6.985349,-1.807409 9.765474,-3.907564 0.285181,-0.21543 0.794336,-0.539283 1.131462,-0.719681 3.666715,-1.962033 6.519224,-5.152638 8.031291,-8.983217 0.347512,-0.880364 0.578133,-1.692348 1.000102,-2.858852 0.314124,-0.868375 0.05321,-0.31263 0.58855,-1.487665 0.137911,0.790724 -0.0024,3.237166 -0.0091,3.279795 -0.01481,0.09364 -0.06346,0.415452 -0.10819,0.715119 -0.253143,1.697457 -0.908652,3.683472 -1.715184,5.196548 -0.376034,0.705448 -1.306935,2.100801 -1.855185,2.78079 -0.432405,0.536308 -1.561831,1.713637 -2.11843,2.208296 -0.149828,0.133159 -0.548249,0.458716 -0.885375,0.723468 -2.033811,1.597167 -4.506468,2.887101 -7.11706,3.712798 -0.46823,0.148086 -0.912656,0.29554 -0.987536,0.32774 -0.0777,0.03328 1.932747,0.06014 4.679993,0.06304 l 4.816217,0.0049 0.666305,-0.536288 c 3.326925,-2.67774 5.728088,-6.634725 6.58268,-10.847916 0.320102,-1.578119 0.349372,-1.928127 0.349372,-4.177984 0,-2.068187 -0.04063,-2.725242 -0.240977,-3.897208 C 43.305731,22.298056 41.99026,19.256321 40.043663,16.681466 39.830152,16.399045 39.511818,15.902635 39.336257,15.578331 37.178674,11.592823 33.481958,8.5570688 29.145826,7.2099425 28.781968,7.0968981 28.425349,6.9927221 28.353409,6.9783331 28.281436,6.9639933 28.02334,6.9058512 27.779867,6.8491772 27.536385,6.7925029 27.213363,6.7278029 27.062027,6.7054859 26.910691,6.6831689 26.720814,6.6522379 26.640154,6.6366749 26.559459,6.6211119 26.28486,6.5874399 26.029935,6.5617949 25.775,6.5362479 25.5089,6.5044359 25.43852,6.4913199 c -0.07035,-0.013214 -0.47657,-0.030345 -0.902721,-0.037195 -0.42615,-0.00734 -0.762443,-0.025645 -0.747273,-0.040817 0.0469,-0.046905 1.542333,-0.274756 2.152483,-0.328004 0.639985,-0.055994 2.571635,-0.05844 2.976761,-0.00392 0.142047,0.019185 0.426826,0.052857 0.632849,0.07488 0.574765,0.06149 1.71812,0.2983358 2.499868,0.5178469 4.671595,1.3117614 8.776264,4.9331652 11.26238,9.9364052 0.598854,1.205187 0.896691,1.935537 1.360876,3.337184 l 0.327045,0.987536 0.0049,-4.777622 0.0049,-4.77763 -0.454272,-0.568688 C 43.410397,9.376791 41.429002,7.6214657 39.8686,6.6584202 37.557929,5.2323321 34.955226,4.2778611 32.479114,3.9485162 32.198172,3.9111737 31.815079,3.8599817 31.627791,3.8348257 31.142843,3.7696357 28.780509,3.7558347 27.812707,3.8125087 23.913923,4.0407215 19.977366,5.4832244 16.950979,7.7926719 16.744956,7.9498809 16.377182,8.1788376 16.13371,8.3014647 14.981379,8.8817998 13.354309,9.9904454 12.423751,10.829336 9.8825953,13.120157 8.4471986,15.270078 7.5754406,17.228627 L 6.6509972,19.423125 C 6.5045471,18.900983 6.4493512,17.987159 6.6012886,16.609807 Z"
     id="path2" /><path
     style="fill:none;fill-opacity:1;stroke:#ffffff;stroke-width:1;stroke-linecap:round;stroke-linejoin:round;stroke-dasharray:none;stroke-opacity:1;paint-order:stroke fill markers"
     d="m 39.90181,21.070312 c 0,0 -0.590456,-0.481161 -1.125,-0.578125 -1.083269,-0.196501 -1.744822,-0.05655 -2.226562,0.492188 -0.353093,0.402202 -0.390817,0.809625 -0.25,1.453124 0.07952,0.36341 0.597958,0.841662 0.937499,0.906251 1.002126,0.190628 1.255703,0.150707 1.21875,0.15625 0,0 0.947034,0.06189 1.367188,0.375 0.268129,0.199841 0.42735,0.49376 0.476562,0.882812 0.07074,0.559212 -0.381672,1.124655 -0.851562,1.460938 -0.398114,0.284916 -0.964234,0.325773 -1.390625,0.289063 -0.746261,-0.06425 -1.13941,-0.17793 -1.789063,-0.695314"
     id="path8" /><ellipse
     style="fill:none;fill-opacity:1;stroke:#ffffff;stroke-width:1;stroke-linecap:round;stroke-linejoin:round;stroke-dasharray:none;stroke-opacity:1;paint-order:stroke fill markers"
     id="path6"
     cx="31.3125"
     cy="23.541317"
     rx="2.9945912"
     ry="2.9265325" /><path
     style="fill:none;fill-opacity:1;stroke:#ffffff;stroke-width:1;stroke-linecap:round;stroke-linejoin:round;stroke-dasharray:none;stroke-opacity:1;paint-order:stroke fill markers"
     d="m 26.176928,20.586 h -4.008251 v 2.847875 l 3.992626,1.25e-4 h -3.992626 v 2.851 h 4.000438"
     id="path5" /><path
     style="display:inline;fill:none;fill-opacity:1;stroke:#ffffff;stroke-width:1;stroke-linecap:round;stroke-linejoin:round;stroke-dasharray:none;stroke-opacity:1;paint-order:stroke fill markers"
     d="m 19.368,20.539 v 5.911 l -5.668,-5.911 5.8e-5,5.911"
     id="path7" /><path
     style="display:inline;fill:none;fill-opacity:1;stroke:#ffffff;stroke-width:1;stroke-linecap:round;stroke-linejoin:round;stroke-dasharray:none;stroke-opacity:1;paint-order:stroke fill markers"
     d="M 11.449219,20.586 H 7.4409687 v 2.847875 L 11.433594,23.434 H 7.4409687 v 2.851 h 4.0004373"
     id="path4" /></svg>
