<?xml version="1.0" encoding="UTF-8"?><svg id="a" xmlns="http://www.w3.org/2000/svg" viewBox="0 0 48 48"><defs><style>.b{stroke-miterlimit:10;}.b,.c{fill:none;stroke:#fff;}.c{stroke-linecap:round;stroke-linejoin:round;}</style></defs><path class="c" d="M25.8709,14.0934c2.9838,0,5.5018,1.3454,7.1206,3.5599.6876.9406.0103,2.2655-1.1548,2.2655h-12.5302c-1.1972,0-1.8737-1.3963-1.1123-2.3202,1.787-2.1683,4.5133-3.5052,7.6766-3.5052ZM15.8109,6.9019c2.9264-1.698,6.3652-2.6619,10.0591-2.6619,5.3,0,10.17,2.1,13.69,5.93,2.39,2.59,4.02,5.81,4.77,9.34,1.03,4.88-2.73,9.47-7.72,9.47h-17.27c-1.04,0-1.56,1.24-.84,1.99,1.9,2,4.64,2.94,7.37,2.94,2.79,0,5.43-.74,7.43-2.09,2.27-1.53,5.37-.91,6.87,1.39,1.51,2.29.72,5.42-1.57,6.92-3.58,2.35-8.09,3.63-12.73,3.63-5.29,0-10.21-1.89-13.84-5.34-3.82-3.63-5.92-8.75-5.92-14.42,0-1.7601.2203-3.4613.6332-5.0759"/><circle class="b" cx="9.4066" cy="13.7143" r="1.6965"/><line class="c" x1="8.8947" y1="15.3317" x2="8.4388" y2="16.7719"/><path class="c" d="M6.1564,7.7991l9.3961,2.9741c.9474.2999,1.4723,1.311,1.1724,2.2583l-2.0613,6.5123c-.2999.9474-1.311,1.4723-2.2584,1.1724l-9.4729-2.9984c-.9474-.2999-1.4723-1.311-1.1725-2.2584l2.1447-6.5081c.3084-.9359,1.3124-1.4496,2.2519-1.1523Z"/><path class="c" d="M6.5458,7.9224l.5661-1.7885c.7531-2.3541,3.272-3.6519,5.6261-2.8988,2.3438.7498,3.6425,3.2514,2.9071,5.5998l-.5661,1.7885"/></svg>