<?xml version="1.0" encoding="UTF-8" standalone="no"?>
<!-- Created with Inkscape (http://www.inkscape.org/) -->

<svg
   width="48"
   height="48"
   viewBox="0 0 48 48"
   version="1.1"
   id="svg1"
   xml:space="preserve"
   xmlns="http://www.w3.org/2000/svg"
   xmlns:svg="http://www.w3.org/2000/svg"><defs
     id="defs1"><style
       id="style1-9">
      .cls-1 {
        fill: none;
        stroke: #fff;
        stroke-linecap: round;
        stroke-linejoin: round;
      }
    </style></defs><g
     id="layer1"><path
       style="display:inline;fill:none;fill-opacity:1;stroke:#ffffff;stroke-width:1;stroke-linecap:round;stroke-linejoin:round;stroke-dasharray:none;stroke-opacity:1"
       d="M 7.8500736,14.392281 C 7.6685274,12.453031 8.1576795,11.678027 9.2848297,10.556897 10.803705,9.0454394 13.958221,8.618432 15.966751,9.1987488 c 0.240121,0.06866 1.182708,0.5125969 1.41247,0.6452139 0.695876,0.4034943 1.752404,1.3816613 2.075389,2.1199903 0.161963,0.371516 0.279669,1.297953 0.115822,1.670409 -0.162904,0.369634 -0.688343,0.744912 -1.061235,0.869064 0.395491,0.867183 1.556541,1.435274 0.282495,1.881091 0.04121,1.171254 -0.669083,2.750732 -0.673278,2.753918 -0.815466,0.618878 -2.50478,-0.268055 -3.22043,1.010146 -0.08192,0.145784 -0.186447,0.396909 -0.209988,0.562446 -0.119589,0.84367 1.070652,1.332753 1.324897,1.555663 0.772149,0.677193 1.224859,1.635446 1.452737,2.632425 1.990544,-1.367522 3.325381,-1.769052 4.512147,-2.430673 -0.02098,-0.20979 0.06841,-0.633682 0.152324,-0.738578 0.125566,-0.09379 0.511953,-0.116014 0.806005,-0.120758 -0.907607,-0.664956 -2.19607,-0.758552 -2.090791,-0.85067 l 4.310776,-5.607405 c 0.662023,-0.557036 1.679235,-0.484695 2.230434,0.544573 0.951304,-0.858979 2.699024,-1.293678 4.669623,-0.874073 l 1.527033,1.316925 -2.505588,3.348409 -2.595264,3.428956 -2.241817,-0.444346 -0.281908,0.219684 c -0.281006,0.446243 -0.727765,0.701079 -1.344095,0.811998 l -1.375104,0.158818 -5.243349,4.404797 c 0.201594,0.564709 0.556916,2.235059 1.033024,2.307847 l 4.12021,-3.596963 c 1.819765,-1.368601 2.834695,-1.446667 3.3639,-1.208709 0.727894,0.32731 1.666715,1.802086 2.152605,2.478338 l 2.502896,2.820252 c 0.692002,0.956719 -10e-4,1.320731 0.134987,1.775014 0.465173,0.862481 1.803862,2.073201 2.554355,2.682675 1.195891,0.971583 3.383335,1.744712 4.896561,2.05227 l 1.600799,0.288747 c 0.161963,0.02445 0.545212,0.05926 0.629019,0.216326 0.127123,0.237018 -0.183621,0.519181 -0.348408,0.646155 -0.546156,0.424186 -1.307006,0.522003 -1.975575,0.519181 H 37.05963 l -0.753317,-0.08277 -1.22414,0.08653 -1.845345,-0.03628 c -0.740237,-0.181212 -1.049613,-0.826672 -1.019782,-1.371033 0.03951,-0.720998 -1.200255,-1.283862 -1.748939,-1.786777 -0.225996,-0.215386 -0.959539,-0.876589 -1.224141,-0.967822 -0.470824,-0.145785 -1.117735,0.540813 -1.779712,0 -0.29756,-0.252066 -0.602654,-0.852134 -0.802283,-1.199196 -0.406792,-0.708231 -0.933172,-1.661944 -1.467085,-2.257308 -1.073477,2.22627 -3.304237,4.764803 -5.273219,6.2424 -0.988729,0.74303 -1.721329,1.374137 -3.013269,1.376017 H 12.859319 C 10.922591,38.907557 9.9902195,38.056388 9.6577221,36.230028 L 9.1537522,34.947483 C 8.8393413,34.288208 8.3368998,27.323068 8.339417,26.824573 8.3171166,26.209206 8.5568756,23.543528 8.8718255,23.421442 9.2438189,22.754419 10.436763,21.796746 10.436763,21.796746 10.80792,21.081732 10.81703,20.921271 11.135956,19.956294 9.694449,21.429749 8.1341631,21.74794 7.2980494,20.798191 6.8240603,19.827925 6.9375582,18.888268 8.5046866,18.0775 8.2300901,17.363118 7.854577,15.383829 7.8500736,14.392281 Z"
       id="Selection" /></g><style
     type="text/css"
     id="style1">
	.st0{fill:none;stroke:#FFFFFF;stroke-linecap:round;stroke-linejoin:round;}
</style></svg>
