<?xml version="1.0" encoding="UTF-8" standalone="no"?>
<svg
   viewBox="0 0 48 48"
   version="1.1"
   id="svg1"
   sodipodi:docname="epic_plane.svg"
   inkscape:version="1.2.2 (b0a8486541, 2022-12-01)"
   xml:space="preserve"
   xmlns:inkscape="http://www.inkscape.org/namespaces/inkscape"
   xmlns:sodipodi="http://sodipodi.sourceforge.net/DTD/sodipodi-0.dtd"
   xmlns="http://www.w3.org/2000/svg"
   xmlns:svg="http://www.w3.org/2000/svg"><sodipodi:namedview
     id="namedview1"
     pagecolor="#505050"
     bordercolor="#eeeeee"
     borderopacity="1"
     inkscape:showpageshadow="0"
     inkscape:pageopacity="0"
     inkscape:pagecheckerboard="0"
     inkscape:deskcolor="#505050"
     inkscape:zoom="17.8125"
     inkscape:cx="27.508772"
     inkscape:cy="17.796491"
     inkscape:window-width="1918"
     inkscape:window-height="1053"
     inkscape:window-x="0"
     inkscape:window-y="0"
     inkscape:window-maximized="1"
     inkscape:current-layer="g1732"
     showgrid="false" /><defs
     id="defs1"><style
       id="style1">.a { fill:none;stroke:#fff;stroke-linecap:round;stroke-linejoin:round; }
</style></defs><g
     id="g1728"><path
       style="fill:none;stroke:#ffffff;stroke-width:1;stroke-linecap:round;stroke-linejoin:round;stroke-opacity:1;stop-color:#000000"
       d="m 13.836741,24.794521 c -1.630208,0.316347 -2.380152,1.83168 -2.380152,2.486438 0,0.604418 1.684243,1.647561 3.439077,1.216188 0.64015,-0.157361 0.806013,-1.461143 0.595995,-2.186936 -0.207885,-0.718419 -0.854458,-1.671023 -1.65492,-1.51569 z"
       id="path1704" /><path
       style="fill:none;stroke:#ffffff;stroke-width:1;stroke-linecap:round;stroke-linejoin:round;stroke-opacity:1;stop-color:#000000"
       d="m 15.138908,28.602357 c 1.108292,0.711818 2.310264,2.614835 2.483945,4.244836 0.142877,1.340909 -0.52586,3.419059 -1.261749,3.843859 -0.968943,0.559334 -3.531423,0.623419 -4.120947,-0.476643 -0.318877,-0.595031 -0.332492,-3.248115 0.01315,-4.815749 0.213079,-0.966401 0.939444,-2.290372 1.241148,-2.69713"
       id="path1702" /><path
       style="fill:none;stroke:#ffffff;stroke-width:1;stroke-linecap:round;stroke-linejoin:round;stroke-opacity:1;stop-color:#000000"
       d="M 11.364849,27.379397 C 10.020753,27.849979 8.8560658,28.110372 6.9969189,28.124916 6.103994,28.131916 5.6836532,26.511107 5.5583401,25.530242 5.43476,24.562941 5.4465063,22.68459 6.2881765,22.69719 c 1.1460417,0.01715 2.2987481,0.09105 3.4905901,0.233682 1.4507064,0.173613 2.5144364,1.169388 2.5161344,2.579749"
       id="path1700" /><path
       style="fill:none;stroke:#ffffff;stroke-width:1;stroke-linecap:round;stroke-linejoin:round;stroke-opacity:1;stop-color:#000000"
       d="m 13.049948,24.968635 c -0.07639,-2.112504 0.05844,-4.08741 -0.367082,-6.377445 -0.305157,-1.642256 1.985522,-0.883609 2.875923,-0.492438 1.116674,0.490576 1.970828,1.854432 1.983777,3.073612 0.01705,1.605716 -0.763485,3.02611 -2.461274,4.123192"
       id="path1698" /></g><g
     id="g1732"
     style="display:inline"><path
       style="fill:none;stroke:#ffffff;stroke-width:1;stroke-linecap:round;stroke-linejoin:round;stroke-opacity:1;stop-color:#000000"
       d="m 17.467598,25.190412 c 0.269919,0.539245 0.454959,1.109693 0.529136,1.627548 0.09173,0.640393 0.01564,1.470324 -0.30366,2.135947"
       id="path1696" /><path
       style="fill:none;stroke:#ffffff;stroke-width:1;stroke-linecap:round;stroke-linejoin:round;stroke-opacity:1;stop-color:#000000"
       d="m 23.168639,30.946752 -4.542915,0.899236 c 1.260221,-0.524102 1.973954,-2.997255 1.94776,-4.581746 -0.02619,-1.584492 -0.138188,-3.499488 -1.757117,-5.235379"
       id="path1690" /><path
       style="fill:none;stroke:#ffffff;stroke-width:1;stroke-linecap:round;stroke-linejoin:round;stroke-opacity:1;stop-color:#000000"
       d="m 18.136857,19.074828 3.619639,-0.836953"
       id="path1694" /><path
       style="fill:none;stroke:#ffffff;stroke-width:1;stroke-linecap:round;stroke-linejoin:round;stroke-opacity:1;stop-color:#000000"
       d="m 31.37981,17.451016 c -1.251003,-1.494023 -3.230471,-3.198438 -2.791208,-4.047322 0.683919,-1.321694 4.339198,2.196327 6.436062,3.730877 1.972659,-1.934865 3.566658,-3.826756 4.51989,-3.360981 1.312056,0.641108 -0.671899,2.890922 -2.015621,5.28384 2.525609,2.552491 5.715815,5.665307 4.81578,6.302067 -1.025581,0.725583 -3.812977,-1.708038 -6.716106,-4.004452 -1.867493,1.758184 -3.161885,3.03074 -6.617344,5.361436 0.338855,0.341023 0.705929,0.639355 1.084801,0.963193 5.01018,4.282426 6.860841,5.866341 10.121435,9.095825 0.995294,0.985798 2.101707,2.082472 0.944247,3.06016 -0.732533,0.677075 -2.315714,0.159851 -4.263243,-0.830273 C 32.60037,36.820215 29.62486,34.913658 22.938602,31.082469"
       id="path1688" /><path
       style="fill:none;stroke:#ffffff;stroke-width:1;stroke-linecap:round;stroke-linejoin:round;stroke-opacity:1;stop-color:#000000"
       d="m 30.806693,17.595971 1.083811,-0.151055"
       id="path1686" /><path
       style="fill:none;stroke:#ffffff;stroke-width:1;stroke-linecap:round;stroke-linejoin:round;stroke-opacity:1;stop-color:#000000"
       d="m 23.139782,30.966007 c 0.854149,-2.22549 4.279074,-3.618014 5.947033,-4.21303"
       id="path1684" /><path
       style="fill:none;stroke:#ffffff;stroke-width:1;stroke-linecap:round;stroke-linejoin:round;stroke-opacity:1;stop-color:#000000"
       d="m 32.170546,36.005711 c 0.669765,-1.52496 2.672359,-2.976788 3.890181,-3.080172"
       id="path1682" /><path
       style="fill:none;stroke:#ffffff;stroke-width:1;stroke-linecap:round;stroke-linejoin:round;stroke-opacity:1;stop-color:#000000"
       d="M 20.689683,18.351065 12.503112,9.9141379 C 11.175864,8.5463013 9.5825759,7.3443173 7.9716001,8.0711561 6.7934228,8.6027253 7.3600555,9.7774892 7.7985832,10.439643 l 4.8556608,7.331798"
       id="path1680" /><path
       style="fill:none;stroke:#ffffff;stroke-width:1;stroke-linecap:round;stroke-linejoin:round;stroke-opacity:1;stop-color:#000000"
       d="m 10.682314,14.519629 c 0.736697,-1.572099 3.549478,-2.09667 4.946144,-1.318987"
       id="path1515" /><path
       style="fill:none;stroke:#ffffff;stroke-width:1;stroke-linecap:round;stroke-linejoin:round;stroke-opacity:1;stop-color:#000000"
       d="m 21.519362,18.608456 c 1.687804,-2.487676 3.229798,-3.408848 6.265181,-2.95533 1.415545,0.211497 3.999067,2.604087 4.229617,4.46552 0.04078,0.87982 -0.876335,2.061498 -2.284166,2.63946 -1.374017,0.564081 -3.071622,1.373404 -3.629504,0.473528 -1.093712,-1.764183 -2.460636,-3.458422 -4.581128,-4.623178 z"
       id="path1692" /></g></svg>
