<?xml version="1.0" encoding="utf-8"?>
<svg
	version="1.1"
	xmlns="http://www.w3.org/2000/svg"
	xmlns:xlink="http://www.w3.org/1999/xlink"
	x="0%" y="0%"
	width="100%" height="100%"
	viewBox="0 0 48.0 48.0"
	enable-background="new 0 0 48.0 48.0"
	xml:space="preserve">
	<path
		fill="#FFFFFF"
		stroke="#FFFFFF"
		fill-opacity="0.000"
		stroke-opacity="1.000"
		fill-rule="nonzero"
		stroke-width="0.43243152"
		stroke-linejoin="round"
		stroke-linecap="square"
		d="M13.77,45.02Q12.31,43.01,13.77,40.76L26.28,40.80Q28.16,42.45,26.61,45.02L13.77,45.02z"/>
	<path
		fill="#FFFFFF"
		stroke="#FFFFFF"
		fill-opacity="0.000"
		stroke-opacity="1.000"
		fill-rule="nonzero"
		stroke-width="0.43243152"
		stroke-linejoin="round"
		stroke-linecap="square"
		d="M28.05,18.24L24.51,14.64C25.55,13.68,26.60,12.72,27.42,12.43C28.24,12.15,28.83,12.54,29.24,12.89C29.64,13.24,29.87,13.56,30.08,14.00C30.30,14.44,30.50,15.01,30.16,15.74C29.82,16.46,28.93,17.35,28.05,18.24z"/>
	<path
		fill="#FFFFFF"
		stroke="#FFFFFF"
		fill-opacity="0.000"
		stroke-opacity="1.000"
		fill-rule="nonzero"
		stroke-width="0.43243152"
		stroke-linejoin="round"
		stroke-linecap="square"
		d="M26.32,16.02Q28.10,13.64,30.03,15.58"/>
	<path
		fill="#FFFFFF"
		stroke="#FFFFFF"
		fill-opacity="0.000"
		stroke-opacity="1.000"
		fill-rule="nonzero"
		stroke-width="0.43243152"
		stroke-linejoin="round"
		stroke-linecap="square"
		d="M24.64,12.35L25.49,11.55C25.02,11.15,24.55,10.75,24.20,10.57C23.86,10.39,23.66,10.43,23.50,10.55C23.35,10.67,23.25,10.87,23.45,11.18C23.65,11.50,24.15,11.92,24.64,12.35z"/>
	<path
		fill="#FFFFFF"
		stroke="#FFFFFF"
		fill-opacity="0.000"
		stroke-opacity="1.000"
		fill-rule="nonzero"
		stroke-width="0.43243152"
		stroke-linejoin="round"
		stroke-linecap="square"
		d="M27.37,11.12L28.53,11.07C28.52,10.45,28.50,9.82,28.40,9.45C28.31,9.08,28.14,8.96,27.94,8.92C27.75,8.88,27.54,8.92,27.44,9.30C27.34,9.68,27.35,10.40,27.37,11.12z"/>
	<path
		fill="#FFFFFF"
		stroke="#FFFFFF"
		fill-opacity="0.000"
		stroke-opacity="1.000"
		fill-rule="nonzero"
		stroke-width="0.43243152"
		stroke-linejoin="round"
		stroke-linecap="square"
		d="M29.85,11.88L30.65,12.73C31.11,12.31,31.57,11.90,31.79,11.58C32.01,11.27,31.99,11.06,31.90,10.89C31.80,10.72,31.63,10.58,31.28,10.75C30.93,10.92,30.39,11.40,29.85,11.88z"/>
	<path
		fill="#FFFFFF"
		stroke="#FFFFFF"
		fill-opacity="0.000"
		stroke-opacity="1.000"
		fill-rule="nonzero"
		stroke-width="0.43243152"
		stroke-linejoin="round"
		stroke-linecap="square"
		d="M31.47,14.36L31.40,15.52C32.02,15.57,32.64,15.61,33.02,15.56C33.40,15.50,33.54,15.34,33.60,15.15C33.66,14.96,33.64,14.75,33.27,14.61C32.90,14.48,32.19,14.42,31.47,14.36z"/>
	<path
		fill="#FFFFFF"
		stroke="#FFFFFF"
		fill-opacity="0.000"
		stroke-opacity="1.000"
		fill-rule="nonzero"
		stroke-width="0.43243152"
		stroke-linejoin="round"
		stroke-linecap="square"
		d="M30.78,17.05L29.93,17.85C30.35,18.31,30.77,18.76,31.09,18.98C31.40,19.20,31.61,19.18,31.78,19.08C31.95,18.98,32.09,18.81,31.91,18.46C31.74,18.11,31.26,17.58,30.78,17.05z"/>
	<path
		fill="#FFFFFF"
		stroke="#FFFFFF"
		fill-opacity="0.000"
		stroke-opacity="1.000"
		fill-rule="nonzero"
		stroke-width="0.43243152"
		stroke-linejoin="round"
		stroke-linecap="square"
		d="M38.17,7.66C39.22,6.52,41.68,9.33,40.66,10.14L39.15,11.73L36.68,9.05L38.17,7.66z"/>
	<path
		fill="#FFFFFF"
		stroke="#FFFFFF"
		fill-opacity="0.000"
		stroke-opacity="1.000"
		fill-rule="nonzero"
		stroke-width="0.31083772"
		stroke-linejoin="round"
		stroke-linecap="square"
		d="M18.80,15.47C19.67,15.47,20.37,16.17,20.37,17.04C20.37,17.90,19.67,18.61,18.80,18.61C17.94,18.61,17.23,17.90,17.23,17.04C17.23,16.17,17.94,15.47,18.80,15.47z"/>
	<path
		fill="#FFFFFF"
		stroke="#FFFFFF"
		fill-opacity="0.000"
		stroke-opacity="1.000"
		fill-rule="nonzero"
		stroke-width="0.31083772"
		stroke-linejoin="round"
		stroke-linecap="square"
		d="M16.02,18.14C16.88,18.14,17.59,18.84,17.59,19.70C17.59,20.57,16.88,21.27,16.02,21.27C15.15,21.27,14.45,20.57,14.45,19.70C14.45,18.84,15.15,18.14,16.02,18.14z"/>
	<path
		fill="#FFFFFF"
		stroke="#FFFFFF"
		fill-opacity="0.000"
		stroke-opacity="1.000"
		fill-rule="nonzero"
		stroke-width="0.31083772"
		stroke-linejoin="round"
		stroke-linecap="square"
		d="M13.23,20.88C14.09,20.88,14.80,21.58,14.80,22.45C14.80,23.31,14.09,24.02,13.23,24.02C12.36,24.02,11.66,23.31,11.66,22.45C11.66,21.58,12.36,20.88,13.23,20.88z"/>
	<path
		fill="#FFFFFF"
		stroke="#FFFFFF"
		fill-opacity="0.000"
		stroke-opacity="1.000"
		fill-rule="nonzero"
		stroke-width="0.3108377"
		stroke-linejoin="round"
		stroke-linecap="square"
		d="M22.09,18.60C22.95,18.60,23.66,19.31,23.66,20.17C23.66,21.04,22.95,21.74,22.09,21.74C21.22,21.74,20.52,21.04,20.52,20.17C20.52,19.31,21.22,18.60,22.09,18.60z"/>
	<path
		fill="#FFFFFF"
		stroke="#FFFFFF"
		fill-opacity="0.000"
		stroke-opacity="1.000"
		fill-rule="nonzero"
		stroke-width="0.3108376"
		stroke-linejoin="round"
		stroke-linecap="square"
		d="M19.25,21.38C20.12,21.38,20.82,22.09,20.82,22.95C20.82,23.82,20.12,24.52,19.25,24.52C18.38,24.52,17.68,23.82,17.68,22.95C17.68,22.09,18.38,21.38,19.25,21.38z"/>
	<path
		fill="#FFFFFF"
		stroke="#FFFFFF"
		fill-opacity="0.000"
		stroke-opacity="1.000"
		fill-rule="nonzero"
		stroke-width="0.3108376"
		stroke-linejoin="round"
		stroke-linecap="square"
		d="M22.29,24.70C23.16,24.70,23.86,25.40,23.86,26.26C23.86,27.13,23.16,27.83,22.29,27.83C21.43,27.83,20.72,27.13,20.72,26.26C20.72,25.40,21.43,24.70,22.29,24.70z"/>
	<path
		fill="#FFFFFF"
		stroke="#FFFFFF"
		fill-opacity="0.000"
		stroke-opacity="1.000"
		fill-rule="nonzero"
		stroke-width="0.3108376"
		stroke-linejoin="round"
		stroke-linecap="square"
		d="M19.56,27.42C20.43,27.42,21.13,28.12,21.13,28.99C21.13,29.85,20.43,30.56,19.56,30.56C18.70,30.56,17.99,29.85,17.99,28.99C17.99,28.12,18.70,27.42,19.56,27.42z"/>
	<path
		fill="#FFFFFF"
		stroke="#FFFFFF"
		fill-opacity="0.000"
		stroke-opacity="1.000"
		fill-rule="nonzero"
		stroke-width="0.43243152"
		stroke-linejoin="round"
		stroke-linecap="square"
		d="M13.10,38.57L13.12,30.81L17.90,35.54Q19.06,36.82,20.70,36.69Q22.25,36.63,23.46,35.43L27.53,31.79Q28.91,30.79,28.27,29.64L26.57,25.52Q25.79,23.68,27.24,22.61Q28.51,21.33,29.79,22.61L33.42,30.17Q34.03,31.61,33.08,33.14L26.61,39.60L15.78,39.58L14.08,39.58Q13.08,39.56,13.10,38.57z"/>
	<path
		fill="#FFFFFF"
		stroke="#FFFFFF"
		fill-opacity="0.000"
		stroke-opacity="1.000"
		fill-rule="nonzero"
		stroke-width="0.43243152"
		stroke-linejoin="round"
		stroke-linecap="square"
		d="M32.81,23.65L38.93,17.49C40.46,15.79,40.43,14.30,38.19,12.00L28.68,2.85Q27.10,1.59,25.49,3.15L14.98,13.55L8.86,19.71C7.34,21.41,7.36,22.89,9.60,25.20L18.43,33.47Q21.13,35.80,24.36,32.20L25.39,31.01Q26.90,29.18,25.72,27.64L24.99,26.17C23.90,24.33,25.25,21.46,27.83,20.21L20.84,13.18Q20.35,12.11,21.57,10.91L26.02,6.56Q27.01,5.57,28.00,6.56L36.11,14.00Q37.54,15.49,34.51,18.00L30.78,21.18L32.81,23.65z"/>
</svg>