<?xml version="1.0" encoding="utf-8"?>
<svg
	version="1.1"
	xmlns="http://www.w3.org/2000/svg"
	xmlns:xlink="http://www.w3.org/1999/xlink"
	x="0%" y="0%"
	width="100%" height="100%"
	viewBox="0 0 48.0 48.0"
	enable-background="new 0 0 48.0 48.0"
	xml:space="preserve">
	<path
		fill="#FFFFFF"
		stroke="#FFFFFF"
		fill-opacity="0.000"
		stroke-opacity="1.000"
		fill-rule="nonzero"
		stroke-width="1.000"
		stroke-linejoin="round"
		stroke-linecap="square"
		d="M13.74,45.35Q12.28,43.34,13.74,41.09L26.25,41.13Q28.13,42.79,26.58,45.35L13.74,45.35z"/>
	<path
		fill="#FFFFFF"
		stroke="#FFFFFF"
		fill-opacity="0.000"
		stroke-opacity="1.000"
		fill-rule="nonzero"
		stroke-width="1.000"
		stroke-linejoin="round"
		stroke-linecap="square"
		d="M27.77,17.20L24.24,13.61C25.28,12.64,26.33,11.68,27.15,11.40C27.96,11.11,28.56,11.50,28.96,11.86C29.37,12.21,29.60,12.52,29.81,12.96C30.03,13.40,30.23,13.97,29.89,14.70C29.55,15.43,28.66,16.31,27.77,17.20z"/>
	<path
		fill="#FFFFFF"
		stroke="#FFFFFF"
		fill-opacity="0.000"
		stroke-opacity="1.000"
		fill-rule="nonzero"
		stroke-width="1.000"
		stroke-linejoin="round"
		stroke-linecap="square"
		d="M38.48,7.23C39.47,6.04,42.08,8.71,40.95,9.68L39.68,11.25L37.08,8.70L38.48,7.23z"/>
	<path
		fill="#FFFFFF"
		stroke="#FFFFFF"
		fill-opacity="0.000"
		stroke-opacity="1.000"
		fill-rule="nonzero"
		stroke-width="1.000"
		stroke-linejoin="round"
		stroke-linecap="square"
		d="M13.10,38.57L13.12,30.81L17.90,35.54Q19.06,36.82,20.70,36.69Q22.25,36.63,23.46,35.43L27.53,31.79Q28.91,30.79,28.27,29.64L26.57,25.52Q25.79,23.68,27.24,22.61Q28.51,21.33,29.79,22.61L33.42,30.17Q34.03,31.61,33.08,33.14L26.61,39.60L15.78,39.58L14.08,39.58Q13.08,39.56,13.10,38.57z"/>
	<path
		fill="#FFFFFF"
		stroke="#FFFFFF"
		fill-opacity="0.000"
		stroke-opacity="1.000"
		fill-rule="nonzero"
		stroke-width="1.000"
		stroke-linejoin="round"
		stroke-linecap="square"
		d="M32.81,23.65L38.93,17.49C40.46,15.79,40.43,14.30,38.19,12.00L28.68,2.85Q27.10,1.59,25.49,3.15L14.98,13.55L8.86,19.71C7.34,21.41,7.36,22.89,9.60,25.20L18.43,33.47Q21.13,35.80,24.36,32.20L25.39,31.01Q26.90,29.18,25.72,27.64L24.99,26.17C23.90,24.33,25.25,21.46,27.83,20.21L20.84,13.18Q20.35,12.11,21.57,10.91L26.02,6.56Q27.01,5.57,28.00,6.56L36.11,14.00Q37.54,15.49,34.51,18.00L30.78,21.18L32.81,23.65z"/>
	<path
		fill="#FFFFFF"
		stroke="#FFFFFF"
		fill-opacity="0.000"
		stroke-opacity="1.000"
		fill-rule="nonzero"
		stroke-width="1.000"
		stroke-linejoin="round"
		stroke-linecap="square"
		d="M30.26,11.09L30.57,10.76"/>
	<path
		fill="#FFFFFF"
		stroke="#FFFFFF"
		fill-opacity="0.000"
		stroke-opacity="1.000"
		fill-rule="nonzero"
		stroke-width="1.000"
		stroke-linejoin="round"
		stroke-linecap="square"
		d="M27.20,9.67L27.11,9.22"/>
	<path
		fill="#FFFFFF"
		stroke="#FFFFFF"
		fill-opacity="0.000"
		stroke-opacity="1.000"
		fill-rule="nonzero"
		stroke-width="1.000"
		stroke-linejoin="round"
		stroke-linecap="square"
		d="M32.24,14.10L31.79,14.17"/>
	<path
		fill="#FFFFFF"
		stroke="#FFFFFF"
		fill-opacity="0.000"
		stroke-opacity="1.000"
		fill-rule="nonzero"
		stroke-width="1.000"
		stroke-linejoin="round"
		stroke-linecap="square"
		d="M18.43,14.51C19.16,14.51,19.75,15.11,19.75,15.84C19.75,16.57,19.16,17.16,18.43,17.16C17.70,17.16,17.10,16.57,17.10,15.84C17.10,15.11,17.70,14.51,18.43,14.51z"/>
	<path
		fill="#FFFFFF"
		stroke="#FFFFFF"
		fill-opacity="0.000"
		stroke-opacity="1.000"
		fill-rule="nonzero"
		stroke-width="1.000"
		stroke-linejoin="round"
		stroke-linecap="square"
		d="M15.17,18.06C15.90,18.06,16.50,18.65,16.50,19.38C16.50,20.11,15.90,20.71,15.17,20.71C14.44,20.71,13.85,20.11,13.85,19.38C13.85,18.65,14.44,18.06,15.17,18.06zM11.84,21.58C11.11,21.58,10.51,22.18,10.51,22.91C10.51,23.64,11.11,24.23,11.84,24.23C12.57,24.23,13.16,23.64,13.16,22.91C13.16,22.18,12.57,21.58,11.84,21.58z"/>
	<path
		fill="#FFFFFF"
		stroke="#FFFFFF"
		fill-opacity="0.000"
		stroke-opacity="1.000"
		fill-rule="nonzero"
		stroke-width="1.000"
		stroke-linejoin="round"
		stroke-linecap="square"
		d="M22.32,17.96C23.05,17.96,23.64,18.55,23.64,19.29C23.64,20.02,23.05,20.61,22.32,20.61C21.59,20.61,20.99,20.02,20.99,19.29C20.99,18.55,21.59,17.96,22.32,17.96z"/>
	<path
		fill="#FFFFFF"
		stroke="#FFFFFF"
		fill-opacity="0.000"
		stroke-opacity="1.000"
		fill-rule="nonzero"
		stroke-width="1.000"
		stroke-linejoin="round"
		stroke-linecap="square"
		d="M19.06,21.51C19.79,21.51,20.39,22.10,20.39,22.83C20.39,23.56,19.79,24.16,19.06,24.16C18.33,24.16,17.74,23.56,17.74,22.83C17.74,22.10,18.33,21.51,19.06,21.51zM19.69,28.50C18.96,28.50,18.36,29.09,18.36,29.82C18.36,30.55,18.96,31.15,19.69,31.15C20.42,31.15,21.01,30.55,21.01,29.82C21.01,29.09,20.42,28.50,19.69,28.50zM15.73,25.03C14.99,25.03,14.40,25.63,14.40,26.36C14.40,27.09,14.99,27.68,15.73,27.68C16.46,27.68,17.05,27.09,17.05,26.36C17.05,25.63,16.46,25.03,15.73,25.03z"/>
</svg>