<?xml version="1.0" encoding="UTF-8"?><svg id="b" xmlns="http://www.w3.org/2000/svg" viewBox="0 0 48 48"><defs><style>.i{fill:none;stroke:#fff;stroke-linecap:round;stroke-linejoin:round;}</style></defs><path id="d" class="i" d="M35.6821,6.1594c1.6293.9636,2.3808,2.9413,1.7925,4.7137l-.2618.7898c-1.0318,3.0961.927,6.4703,4.1394,7.1337l.8162.1706c1.8387.3791,3.1877,2.0156,3.2093,3.9017l.04,2.8465c.0246,1.8861-1.2812,3.4879-3.1076,3.8164l-.8131.1453c-3.1969.5782-5.0664,3.8986-3.9546,7.0263l.2834.7961c.6345,1.7882-.0647,3.7469-1.6693,4.6695l-2.4208,1.3901c-1.6046.9194-3.662.5402-4.9001-.9004l-.5513-.6413c-2.1652-2.5243-5.9935-2.5748-8.094-.1106l-.5359.6255c-1.2012,1.4091-3.2462,1.7313-4.8755.7677l-2.4608-1.4564c-1.6293-.9667-2.3808-2.9445-1.7925-4.7168l.2618-.7898c1.0287-3.0961-.9271-6.4703-4.1394-7.1337l-.8162-.1706c-1.8387-.3791-3.1846-2.0156-3.2093-3.9017l-.04-2.8465c-.0246-1.8861,1.2812-3.4879,3.1076-3.8164l.8131-.1453c3.1969-.5782,5.0664-3.8986,3.9546-7.0263l-.2834-.7961c-.6345-1.7882.0647-3.7469,1.6693-4.6695l2.4208-1.3901c1.6046-.9194,3.662-.5402,4.9001.9004l.5513.6413c2.1683,2.5243,5.9935,2.5748,8.094.1106l.5359-.6255c1.2012-1.4091,3.2462-1.7313,4.8755-.7677l2.4608,1.4596Z"/><path id="e" class="i" d="M33.8003,5.0031c1.7186.7835,2.6672,2.6728,2.2637,4.4989l-.1817.8119c-.7084,3.1909,1.5831,6.3344,4.8447,6.6503l.8316.0821c1.8664.1801,3.3725,1.665,3.5881,3.5353l.3265,2.8276c.2187,1.8735-.9147,3.6048-2.7011,4.1292l-.7946.2338c-3.1199.9162-4.6383,4.4199-3.2154,7.4086l.3634.7614c.8131,1.7123.3172,3.7343-1.1827,4.8211l-2.2699,1.6428c-1.4999,1.09-3.585.932-4.9617-.3696l-.616-.5782c-2.4116-2.2747-6.2214-1.9177-8.0601.7582l-.4681.6792c-1.0502,1.5323-3.0553,2.0725-4.7708,1.2858l-2.5964-1.1847c-1.7186-.7835-2.6672-2.6728-2.2637-4.4989l.1817-.8119c.7084-3.1909-1.5831-6.3376-4.8447-6.6503l-.8285-.0821c-1.8695-.1801-3.3756-1.665-3.5912-3.5353l-.3265-2.8276c-.2187-1.8735.9147-3.6048,2.7011-4.1292l.7946-.2338c3.1199-.9162,4.6383-4.4199,3.2154-7.4086l-.3634-.7614c-.8131-1.7123-.3172-3.7343,1.1827-4.8211l2.2699-1.6428c1.4999-1.09,3.585-.932,4.9648.3696l.6129.5782c2.4116,2.2747,6.2214,1.9177,8.0601-.7582l.4681-.6793c1.0502-1.5323,3.0553-2.0725,4.7708-1.2858l2.5964,1.1847Z"/><path id="f" class="i" d="M31.8106,4.0553c1.7894.5971,2.9259,2.3726,2.7072,4.2335l-.0955.8246c-.3788,3.2509,2.2206,6.1322,5.4945,6.0975l.8347-.0095c1.8757-.0221,3.5265,1.2922,3.93,3.1309l.616,2.777c.4065,1.8387-.5451,3.6838-2.2668,4.3978l-.7669.3159c-3.0091,1.2448-4.164,4.8938-2.4424,7.715l.4373.7172c.9856,1.6144.6961,3.6806-.6837,4.9222l-2.0882,1.8766c-1.3829,1.2416-3.4711,1.3111-4.9771.1643l-.6683-.5086c-2.6302-2.0062-6.3846-1.2416-7.94,1.6176l-.3942.7266c-.8901,1.6365-2.8274,2.3853-4.6168,1.7913l-2.7011-.9004c-1.7894-.5971-2.9259-2.3726-2.7072-4.2303l.0955-.8277c.3788-3.2509-2.2206-6.1322-5.4976-6.0975l-.8316.0095c-1.8757.0221-3.5234-1.2953-3.93-3.134l-.616-2.777c-.4065-1.8356.5451-3.6806,2.2668-4.3946l.7669-.3159c3.0091-1.2448,4.164-4.8938,2.4424-7.715l-.4373-.7172c-.9856-1.6144-.6961-3.6806.6868-4.9222l2.0851-1.8766c1.3829-1.2416,3.4711-1.3111,4.9771-.1643l.6683.5086c2.6302,2.0062,6.3846,1.2416,7.94-1.6176l.3942-.7266c.8901-1.6365,2.8274-2.3853,4.6168-1.7913l2.7011.9004Z"/><path id="g" class="i" d="M29.7348,3.3287c1.8418.4012,3.1507,2.0441,3.1261,3.9175l-.0123.8309c-.0462,3.273,2.8335,5.8605,6.0859,5.4751l.8285-.0979c1.8633-.2243,3.6374.9067,4.2287,2.6917l.8932,2.698c.5913,1.785-.1663,3.7217-1.8048,4.6126l-.7299.3981c-2.8674,1.5607-3.6435,5.314-1.6447,7.933l.5082.6666c1.1457,1.5007,1.0687,3.5858-.1786,4.9696l-1.8849,2.0915c-1.2474,1.3838-3.3171,1.6744-4.9309.6982l-.7176-.436c-2.8212-1.7123-6.477-.5497-7.7306,2.4611l-.3203.7646c-.7176,1.7218-2.5686,2.6759-4.4073,2.2747l-2.7781-.6066c-1.8418-.4012-3.1507-2.0441-3.1261-3.9175l.0123-.8309c.0462-3.273-2.8335-5.8605-6.0859-5.4751l-.8285.0979c-1.8633.2243-3.6374-.9067-4.2287-2.6917l-.8932-2.698c-.5913-1.785.1663-3.7217,1.8048-4.6126l.7299-.3981c2.8674-1.5607,3.6435-5.3108,1.6447-7.933l-.5082-.6666c-1.1457-1.5007-1.0687-3.5858.1786-4.9696l1.8849-2.0915c1.2474-1.3838,3.3171-1.6776,4.9309-.6982l.7176.436c2.8212,1.7123,6.474.5497,7.7306-2.4611l.3203-.7646c.7176-1.7218,2.5686-2.6759,4.4073-2.2747l2.7781.6066Z"/><path id="h" class="i" d="M27.5973,2.8263c1.8695.2022,3.3417,1.6965,3.508,3.5605l.0739.8309c.2864,3.2572,3.4125,5.5225,6.6095,4.7895l.8131-.1864c1.8295-.4202,3.7113.515,4.4813,2.2242l1.1611,2.5875c.7731,1.7123.2156,3.7185-1.3244,4.7832l-.6837.4739c-2.6918,1.8577-3.083,5.671-.8285,8.0657l.5729.6097c1.2905,1.368,1.4291,3.45.3296,4.9601l-1.6631,2.281c-1.0995,1.5101-3.1261,2.022-4.8324,1.2227l-.7577-.357c-2.9783-1.3996-6.4955.1485-7.438,3.2762l-.2402.7961c-.539,1.7882-2.2791,2.935-4.1517,2.7328l-2.8243-.3033c-1.8695-.2022-3.3417-1.6965-3.508-3.5605l-.0739-.8309c-.2864-3.2572-3.4125-5.5225-6.6095-4.7895l-.8131.1864c-1.8295.4202-3.7113-.515-4.4813-2.2273l-1.1611-2.5843c-.77-1.7123-.2156-3.7185,1.3244-4.7832l.6837-.4739c2.6918-1.8577,3.083-5.671.8285-8.0657l-.5759-.6097c-1.2874-1.368-1.426-3.45-.3265-4.9601l1.6631-2.281c1.0995-1.5101,3.1261-2.022,4.8324-1.2227l.7577.357c2.9783,1.3996,6.4955-.1485,7.438-3.2762l.2402-.7961c.539-1.7882,2.2791-2.935,4.1517-2.7328l2.8243.3033Z"/><path class="i" d="M25.4198,2.5578c1.8818,0,3.4957,1.3269,3.8499,3.1656l.1571.8151c.6191,3.2099,3.9577,5.1276,7.0653,4.0565l.7885-.2749c1.7771-.6129,3.7421.1137,4.6815,1.7345l1.4229,2.4453c.9394,1.6207.5913,3.6774-.8316,4.9001l-.6345.5434c-2.4855,2.1388-2.4855,5.9743,0,8.1131l.6345.5434c1.4229,1.2227,1.7709,3.2794.8316,4.9001l-1.4229,2.4453c-.9394,1.6207-2.9044,2.3474-4.6815,1.7345l-.7885-.2749c-3.1076-1.071-6.4462.8435-7.0653,4.0565l-.1571.8151c-.3542,1.8387-1.9681,3.1656-3.8499,3.1656h-2.8397c-1.8818,0-3.4957-1.3269-3.8499-3.1656l-.1571-.8151c-.6191-3.213-3.9608-5.1276-7.0653-4.0566l-.7885.2717c-1.7771.6161-3.7421-.1106-4.6815-1.7313l-1.4229-2.4453c-.9394-1.6207-.5913-3.6774.8316-4.9001l.6345-.5434c2.4855-2.1388,2.4855-5.9743,0-8.1131l-.6345-.5434c-1.4229-1.2227-1.7709-3.2794-.8316-4.9001l1.4229-2.4453c.9394-1.6207,2.9044-2.3474,4.6815-1.7345l.7885.2749c3.1045,1.071,6.4462-.8467,7.0653-4.0565l.1571-.8183c.3542-1.8356,1.9681-3.1625,3.8499-3.1625h2.8397Z"/><path class="i" d="M26.8712,12.5182c-1.774-.4466-3.6435-.4743-5.4514-.0708-2.658.5944-5.0295,2.0851-6.7142,4.2226s-2.584,4.7923-2.5409,7.515c.0431,2.7196,1.0225,5.3436,2.7719,7.4287,1.7525,2.0851,4.1671,3.5019,6.8405,4.0131s5.4422.0832,7.8384-1.2073c2.3962-1.2905,4.2749-3.3694,5.319-5.8826.7084-1.7155,1.004-3.5573.8716-5.3837-.1016-1.4229-1.5708-2.2083-2.9382-1.7987-1.3675.4065-2.0913,1.8757-2.2299,3.2955-.0647.6499-.2248,1.2936-.4774,1.9065-.5883,1.4168-1.6447,2.5871-2.9967,3.314-1.349.7269-2.9105.9671-4.4166.6807-.5267-.1016-1.041-.2649-1.5246-.4866-.6252-.2864-.4959-1.1242.1571-1.3459l1.4168-.4805c.077-.0123.154-.0339.2279-.0585l.9948-.3265.9917-.3419c.5944-.2064,1.0379-.7084,1.1673-1.3244l.2156-1.0256.2002-1.0287c.1201-.6191-.0955-1.2535-.5636-1.6755l-.7792-.6991-.7915-.6868c-.4774-.4127-1.1334-.5451-1.734-.348l-.8716.2864c-.154.0277-.308.0708-.462.1201l-2.3869.81c-.6468.2187-1.2566-.3603-.9455-.9702.1971-.385.4312-.7546.7053-1.0995.9486-1.2042,2.2853-2.0451,3.7821-2.3777.6468-.1448,1.3059-.191,1.9588-.1417,1.4229.1078,2.9937-.3511,3.6312-1.6293.6375-1.2751.1201-2.8582-1.2658-3.2031Z"/></svg>