<svg xmlns="http://www.w3.org/2000/svg" xml:space="preserve" x="0%" y="0%" viewBox="0 0 48 48"><path fill="none" stroke="#000" stroke-linecap="round" stroke-linejoin="round" stroke-width=".408" d="M12.836 35.335q4.919-4.656 9.49-.127-4.919 4.647-9.49.127z" style="stroke-width:1;stroke-miterlimit:4;stroke-dasharray:none;stroke:#fff;stroke-opacity:1"/><path fill="none" stroke="#000" stroke-linecap="square" stroke-linejoin="round" stroke-width=".408" d="M26.108 35.267q4.928-4.648 9.5-.119-4.92 4.648-9.5.119z" style="stroke-width:1;stroke-miterlimit:4;stroke-dasharray:none;stroke:#fff;stroke-opacity:1"/><path fill="none" stroke="#000" stroke-linecap="round" stroke-width=".408" d="M15.49 37.133a2.148 2.148 0 1 1 4.292-.178m9.108.084a2.147 2.147 0 1 1 4.292-.17" style="stroke-width:1;stroke-miterlimit:4;stroke-dasharray:none;stroke:#fff;stroke-opacity:1"/><path fill="none" stroke="#000" stroke-linecap="round" stroke-linejoin="round" stroke-width=".408" d="M7.306 41.399c-1.603-17.352 11.958-14.57 12.688-25.435q-1.12-3.384-.365-6.75 1.518.593 2.884 2.493.33-3.393 1.645-5.106 1.28 1.374 1.84 5.106.831-1.9 2.002-2.57.704 3.452.06 6.513c.618 11.178 14.18 8.397 12.644 25.749" style="stroke-width:1;stroke-miterlimit:4;stroke-dasharray:none;stroke:#fff;stroke-opacity:1"/><path fill="none" stroke="#000" stroke-linecap="round" stroke-linejoin="round" stroke-width=".408" d="m19.994 15.693 2.18 2.23 1.178-2.434 1.925 2.282 2.782-2.12" style="stroke-width:1;stroke-miterlimit:4;stroke-dasharray:none;stroke:#fff;stroke-opacity:1"/></svg>