<svg xmlns="http://www.w3.org/2000/svg" xml:space="preserve" id="svg1" version="1.1" viewBox="0 0 48 48"><defs id="defs1"><style id="style1">.a{fill:none;stroke:#fff;stroke-linecap:round;stroke-linejoin:round}</style></defs><path id="path4" d="M24.797 6.529c.126 2.058-1.144 4.89-2.987 4.972-1.715.075-2.334-.7-2.245-2.118m-3.499 6.161c.316-2.947 1.979-5.472 3.546-6.296l8.311-4.47m-1.217 8.063c-1.947-7.134 1.312-10.526 5.615-6.833l-5.595 6.328m-5.41 27.944a.755.75 0 0 1-.755.75.755.75 0 0 1-.755-.75.755.75 0 0 1 .755-.75.755.75 0 0 1 .755.75zm-4.418-24.963 8.89-2.76c.644-.2 1.218.54 1.218 1.21V42.26c0 .67-.574 1.41-1.219 1.21l-8.89-2.76c-.644-.2-1.218-.54-1.218-1.21V16.527c0-.67.574-1.01 1.219-1.21z" style="fill:none;fill-opacity:.266292;stroke:#fff;stroke-width:1stroke-linecap:round;stroke-linejoin:round;stroke-opacity:1"/></svg>
