<svg xmlns="http://www.w3.org/2000/svg" xml:space="preserve" id="svg1" version="1.1" viewBox="0 0 48 48"><defs id="defs1"><style id="style1">.a{fill:none;stroke:#fff;stroke-linecap:round;stroke-linejoin:round}</style></defs><path id="path1" d="M35.061 31.51h-1.39c-.92 0-1.785-.436-2.326-1.173l-5.704-7.768c-.733-.953-2.023-2.208-2.023-4.068 0-1.755 1.44-3.282 3.442-3.282 1.95 0 3.333 1.526 3.333 3.282 0 1.86-1.521 3.45-4.331 3.977-2.545.478-4.315 1.692-4.89 3.635m-8.233.001h8.222V24.79c0-2.25-1.84-4.073-4.111-4.073v0c-2.27 0-4.111 1.824-4.111 4.073v2.648c0 2.25 1.84 4.072 4.11 4.072v0c1.53 0 2.865-.828 3.573-2.055l.753.002c.612 1.25 1.922 2.053 3.927 2.053 3.795 0 6.029-3.565 9.328-7.946M9.5 5.5h29c2.216 0 4 1.784 4 4v29c0 2.216-1.784 4-4 4h-29c-2.216 0-4-1.784-4-4v-29c0-2.216 1.784-4 4-4z" style="fill:none;stroke:#fff;stroke-width:1stroke-linecap:round;stroke-linejoin:round;stroke-opacity:1"/></svg>
