<svg xmlns="http://www.w3.org/2000/svg" xml:space="preserve" width="48" height="48" viewBox="0 0 12.7 12.7"><path fill="none" stroke="#fff" stroke-linecap="round" stroke-linejoin="round" stroke-width=".265" d="m3.885 7.553.8-2.416.8 2.416m-.265-.8H4.15m3.271.8v-1.6m0 .996c.029.517-.684.812-1.03.427-.25-.248-.17-.626-.164-.941.076-.51.827-.658 1.091-.216a.602.602 0 0 1 .103.337m2.64.735c.453.258 1.02.399 1.291.883.404.66-.025 1.617-.786 1.754-.608.146-1.117-.303-1.641-.528m-.178-3.055c.109 2.294-2.717 3.91-4.64 2.68-2.035-1.052-2.035-4.307 0-5.36 1.854-1.195 4.524.253 4.628 2.41zm1.39 0c.143 3.185-3.636 5.532-6.429 4.042C.788 9.132.29 4.71 2.858 2.838c2.22-1.937 6.004-.85 6.969 1.868.204.52.31 1.08.31 1.64z"/></svg>
