<svg xmlns="http://www.w3.org/2000/svg" viewBox="0 0 48 48"><path style="stroke-linejoin:round;stroke:#fff;fill:transparent" d="M11.24 5.213h10.489v10.489a5 5 0 0 1-5 5H11.24a5 5 0 0 1-5-5v-5.489a5 5 0 0 1 5-5Z" fill="none"/><path style="stroke-width:1px;stroke-linejoin:round;stroke:#fff;fill:transparent" d="M32.02 5.213h10.489v10.489a5 5 0 0 1-5 5H32.02a5 5 0 0 1-5-5v-5.489a5 5 0 0 1 5-5Z" fill="none"/><path style="stroke-width:17.9593px;stroke-linejoin:round;stroke:#fff;transform-origin:1006.25px 647.999px 0;fill:transparent" transform="matrix(0 .05282 -.05855 0 -981.927 -612.308)" d="M846.5 328.5a319.5 319.5 0 1 1 0 639z" fill="none"/></svg>