<?xml version="1.0" encoding="UTF-8"?><svg id="a" xmlns="http://www.w3.org/2000/svg" viewBox="0 0 48 48"><defs><style>.b{fill:none;stroke:#fff;stroke-linecap:round;stroke-linejoin:round;}</style></defs><line class="b" x1="19.443" x2="19.443" y1="28.994" y2="32.794"/><line class="b" x1="21.96" x2="21.96" y1="28.994" y2="32.794"/><line class="b" x1="19.443" x2="21.96" y1="30.887" y2="30.887"/><path class="b" d="m38.383 32.371c.23303.30338.52523.41637.93175.41637h.56262c.52357 0 .948-.42443.948-.95004 0-.52561-.42444-.95004-.948-.95004h-.62062c-.52414 0-.949-.42489-.949-.94957 0-.52471.4258-.95052.95109-.95052h.55953c.40653 0 .69876.113.93175.41637"/><path class="b" d="m15.672 31.52v.01557c0 .69524-.56356 1.2588-1.2588 1.2588h-4e-6c-.69524 0-1.2588-.56356-1.2588-1.2588v-1.2826c0-.69524.56356-1.2588 1.2588-1.2588h4e-6c.69524 1e-6 1.2588.56356 1.2588 1.2588v.01557"/><line class="b" x1="7.175" x2="8.4101" y1="30.894" y2="30.894"/><path class="b" d="m9.0751 32.794h-1.9001v-3.8002h1.9001"/><line class="b" x1="32.328" x2="33.563" y1="30.887" y2="30.887"/><path class="b" d="m34.228 32.787h-1.9001v-3.8002h1.9001"/><rect class="b" x="25.731" y="28.987" width="2.5176" height="3.8002" rx="1.2588" ry="1.2588"/><path class="b" d="M15.3333,15.2145H4.5v1.0834"/><path class="b" d="m4.5 19.277h10.833"/><path class="b" d="m4.5 22.256v1.0838h10.833"/><path class="b" d="M18.8542,15.2145,24,24.4229l5.1458-9.2084"/><path class="b" d="m43.5 15.159h-10.833v1.0833"/><path class="b" d="M32.6667,19.277H43.5"/><path class="b" d="m32.667 22.2v1.0833h10.833"/></svg>
