<?xml version="1.0" encoding="UTF-8" standalone="no"?>
<svg
   id="Layer_1"
   data-name="Layer 1"
   version="1.1"
   viewBox="0 0 48 48"
   xml:space="preserve"
   xmlns="http://www.w3.org/2000/svg"
   xmlns:svg="http://www.w3.org/2000/svg"><defs
     id="defs1"><style
       id="style1">.cls-1 { fill: none;        stroke: #fff;        stroke-linecap: round;        stroke-linejoin: round; }
</style></defs><rect
     class="cls-1"
     x="5.5"
     y="5.5"
     width="37"
     height="37"
     rx="4"
     ry="4"
     id="rect1" /><circle
     style=""
     id="path1"
     cx="18.959299"
     cy="33.410793"
     r="3.8448932"
     class="cls-1" /><path
     style=""
     d="M 22.318058,6.9826795 C 13.744389,6.2092814 10.84967,17.213631 18.296388,26.339728 c -0.132583,-3.137787 1.613087,-6.872194 1.900349,-8.838835 -0.331455,3.071495 -0.795493,6.629126 -1.016466,7.778174 2.121321,-3.226174 7.733981,-11.313708 3.137787,-18.2963875 z"
     id="path2"
     class="cls-1" /><path
     style=""
     d="m 6.331765,7.052284 c 1.8441572,2.361075 5.343569,6.560969 7.703921,8.946731"
     id="path3"
     class="cls-1" /><path
     style=""
     d="M 5.6350084,8.4616619 C 7.2036503,11.52565 11.799844,17.766058 13.258252,19.489631"
     id="path4"
     class="cls-1" /><path
     style=""
     d="m 15.443841,10.151563 c -1.541929,0.977663 -2.913529,2.910775 -3.313611,3.813654"
     id="path5"
     class="cls-1" /><path
     style=""
     d="m 26.25,5.5 c -0.46875,2.9616619 -1.625,9.25 -2.03125,9.8125"
     id="path6"
     class="cls-1" /><path
     style=""
     d="m 27.9375,5.5 c 0,2.9616619 -0.59375,9.875 -0.5625,10.84375"
     id="path7"
     class="cls-1" /><path
     style=""
     d="M 27.828535,8.6266901 C 29.359375,9.9375 34.125,15.625 33.375,24.75 32.625,33.875 32.195456,41.070991 30.49398,42.5"
     id="path8"
     class="cls-1" /><path
     style=""
     d="M 29.244019,30.211846 C 29.509184,32.885594 30.029941,40.385981 28.129592,42.5"
     id="path9"
     class="cls-1" /><path
     style=""
     d="m 31.333669,23.842757 c -0.441941,2.894718 -1.908882,6.828002 -3.396169,8.198019 1.230655,-2.96101 1.650499,-7.535107 1.230655,-11.711456"
     id="path10"
     class="cls-1" /><path
     style=""
     d="m 33.454229,22.721345 c 0.703802,-0.874268 1.747699,-0.133046 1.981701,1.615148 0.248113,1.853623 -1.415739,3.044511 -2.370755,4.236396"
     id="path11"
     class="cls-1" /><path
     style=""
     d="M 32.904796,30.507841 C 34.5,28.40625 37.0625,25.0625 36.46875,21.90625"
     id="path12"
     class="cls-1" /><path
     style=""
     d="m 22.318058,6.9826795 c 1.045512,0.095906 2.742767,0.4664533 3.560359,0.7316183"
     id="path13"
     class="cls-1" /><path
     style=""
     d="M 34.59375,13.21875 C 32.746209,10.921875 30.090508,8.9898017 27.84055,8.3982292"
     id="path14"
     class="cls-1" /><path
     style=""
     d="M 10.85762,16.376291 C 10.296875,18.75 8.96875,24.586846 12.5,30.211846 11.96875,28.399346 11.53125,27.25 11.78125,25.28125 12.610485,28.191291 15.445863,36.894642 11.479437,42.5"
     id="path15"
     class="cls-1" /><path
     style=""
     d="M 29.430583,32.620072 C 27.828535,34.34375 25.125,36.59375 23.4375,37.03125 22.879701,36.85282 22.114804,36.48128 21.621271,36.18516"
     id="path16"
     class="cls-1" /><path
     style=""
     d="M 42.5,32.734375 C 42,31.859375 38.375,23.84375 37.734375,21.4375 38.5625,22.515625 42,27.78125 42.5,28.921875"
     id="path17"
     class="cls-1" /><path
     style=""
     d="m 36.743815,14.046875 c 0.449126,-1.039529 3.806642,-2.069384 5.756185,0.5625"
     id="path18"
     class="cls-1" /><path
     style=""
     d="M 16.777428,36.576649 C 16.396038,38.360543 15.644738,40.717438 14.009553,42.5"
     id="path19"
     class="cls-1" /><path
     style=""
     d="m 5.5,32.25 c 1.484375,1.46875 6.695593,5.897005 7.410297,7.31569"
     id="path20"
     class="cls-1" /><path
     style=""
     d="m 11.107807,37.470328 c 0.595318,0.01405 1.669847,0.136237 2.210708,0.372017"
     id="path21"
     class="cls-1" /><path
     style=""
     d="m 22.303009,36.554503 c 0.05924,1.739749 -0.07334,3.949457 -1.575942,4.413496 C 19.224466,41.432038 16.572815,40.562758 15.048116,42.5"
     id="path22"
     class="cls-1" /><path
     style=""
     d="m 22.050719,39.418497 c -1.307775,1.201302 -4.732803,0.0649 -6.366035,0.522235"
     id="path23"
     class="cls-1" /><path
     style=""
     d="m 5.5,18.5 c 1.25,-0.375 3.8922308,-0.896161 5.11799,-1.057456"
     id="path24"
     class="cls-1" /><path
     style=""
     d="m 5.5,24 c 1.34375,-1 3.5030122,-1.813062 4.642131,-2.281531"
     id="path25"
     class="cls-1" /><path
     d="M 29.168155,20.32932 C 28.78125,21.8125 27.9375,23.875 27.4375,24.53125 c 0.34375,-3.25 0.21875,-6.84375 0.28125,-8.0625"
     id="path26"
     class="cls-1" /><path
     style=""
     d="M 37.71875,21.375 C 38,20.59375 37.640625,19.8125 37.328125,19.953125 37.40625,19.703125 37,19.1875 36.6875,19.21875 c 0.28125,-0.40625 0.421875,-1.546875 -0.390625,-1.8125 -0.203125,-0.125 -0.1875,-0.3125 -0.125,-0.390625 0.4375,-0.28125 0.8125,-1.625 0,-1.953125 0.375,-0.34375 1.171875,-1.515625 0.34375,-1.609375 0.578125,-0.40625 0.25,-1.734375 -0.53125,-0.59375 -0.203125,-0.703125 -1.640625,-0.84375 -0.90625,0.828125 -0.8125,-0.04687 -1.234375,0.953125 -0.25,1.484375 -0.8125,0.296875 -1.21875,1.359375 -0.0625,2.109375 -0.546875,0.390625 -0.265625,1.65625 0.28125,1.984375 -0.234375,0.5625 0.15625,2.203125 0.875,1.703125 C 35.96875,21.515625 36.875,22.25 37,21.421875 37.40625,21.765625 37.734375,21.75 37.71875,21.375 Z"
     id="path27"
     class="cls-1" /><path
     d="m 23.97534,23.953242 c -0.08839,-1.613088 1.656441,-2.855025 3.656647,-2.211959"
     id="path28"
     class="cls-1" /><path
     id="path30"
     style="stroke-width:0.999996"
     d="m 27.536623,24.202537 c -0.304875,0.270977 -0.750473,0.626898 -1.50142,0.460086 -0.438447,-0.604312 -0.834125,-1.73726 -0.73469,-2.781155"
     class="cls-1" /><path
     style=""
     d="m 14.871339,26.383922 c -0.256933,-0.994369 0.19844,-2.397156 1.734405,-2.424967"
     id="path31"
     class="cls-1" /><path
     style=""
     d="M 15.008198,32.495955 C 14.169691,29.654506 14.235225,27.191113 13.22739,24.144473 12.675701,22.476744 12.769635,20.320902 13.050613,19.239683"
     id="path32"
     class="cls-1" /><path
     style=""
     d="m 22.541222,19.418991 c 1.199625,-0.639962 2.577325,-0.841658 3.864797,-0.835341"
     id="path33"
     class="cls-1" /><path
     d="m 16.375,24.242188 c -0.164063,0.773437 -0.04687,2.085937 0.5,2.710937 0.334151,0.01563 0.903361,-0.03906 1.1875,-0.257812 0.01193,-0.34144 0.01181,-0.512267 -0.07031,-0.789063"
     id="path34"
     class="cls-1" /></svg>
