<svg xmlns="http://www.w3.org/2000/svg" xml:space="preserve" viewBox="0 0 48 48"><path d="M21.73 28.57c-.99 1.68-2.859 2.811-5 2.811v0c-3.179 0-5.755-2.494-5.755-5.57v-3.622c0-3.076 2.576-5.57 5.755-5.57v0c3.178 0 5.755 2.494 5.755 5.57V24h-11.51m26.05 7.381L25.515 16.62m11.51 0-11.51 14.76M9.5 5.5h29c2.216 0 4 1.784 4 4v29c0 2.216-1.784 4-4 4h-29c-2.216 0-4-1.784-4-4v-29c0-2.216 1.784-4 4-4z" class="t" style="display:inline;fill:none;stroke:#fff;stroke-width:1stroke-linecap:round;stroke-linejoin:round"/></svg>
