<?xml version="1.0" encoding="UTF-8"?>
<svg width="48" height="48" version="1.1" viewBox="0 0 12.7 12.7" xmlns="http://www.w3.org/2000/svg"><defs><style>.a{fill:none;stroke:#fff;stroke-linecap:round;stroke-linejoin:round;}</style></defs><g fill="none" stroke="#fff" stroke-linecap="round" stroke-linejoin="round"><path d="m4.5175 3.1687 1.4276 2.4874" stroke-width=".26458"/><path d="m6.72 7.0049 1.4404 2.5369" stroke-width=".26458"/><g transform="matrix(1.4571 0 0 1.4664 -2.9102 -2.9625)" stroke-width=".181"><path d="m3.0436 4.966c0.68469 1.1843 1.3694 2.3687 2.0541 3.553"/><path d="m7.6023 4.181c-0.83486 1.446-1.6697 2.892-2.5046 4.338"/><path d="m9.664 4.9514c-0.68723 1.1892-1.3745 2.3784-2.0617 3.5676"/><path d="m7.6023 4.181c0.52014-0.00227 1.0403-0.00455 1.5604-0.00682"/><path d="m5.0977 4.181c-0.5176 0.00258-1.0352 0.00517-1.5528 0.00775"/><path d="m9.1627 4.1742a0.55708 0.55704 0 0 1 0.45781 0.25505 0.55708 0.55704 0 0 1 0.04347 0.52223"/><path transform="scale(-1,1)" d="m-3.5449 4.1887a0.55708 0.55704 0 0 1 0.45781 0.25505 0.55708 0.55704 0 0 1 0.04347 0.52223"/></g><circle cx="9.3785" cy="4.4963" r=".33073" stroke-width=".26458"/></g></svg>
