<svg xmlns="http://www.w3.org/2000/svg" xml:space="preserve" width="48" height="48"><path fill="none" stroke="#fff" stroke-linecap="round" stroke-linejoin="round" d="M35.084 36.448 24.082 25.46m-8.185-8.175-5.48-5.472m23.704-3.62c.624 3.034.497 6.729-1.865 9.102l-8.175 8.165-8.175-8.165c-2.361-2.373-2.489-6.068-1.864-9.101-10.45 8.355-7.902 19.162-1.103 26.883 1.633-1.623 3.798-2.521 6.049-2.521 4.87 0 8.817 4.122 8.817 9.207v0c0 .573-.05 1.144-.061 1.736 10.813-7.734 20.104-24.331 6.377-35.306m-10.174 11.62-5.585-5.461c-.828-.81-1.062-2.2-1.062-3.213A6.643 6.643 0 0 1 23.947 4.5a6.643 6.643 0 0 1 6.646 6.638v0c0 1.014-.234 2.403-1.062 3.213z"/></svg>
