<svg xmlns="http://www.w3.org/2000/svg" xml:space="preserve" width="48" height="48"><path fill="none" stroke="#fff" stroke-linecap="round" stroke-linejoin="round" d="M39.412 27.307c.283.61.534 1.273.748 1.98.538 1.772.844 3.785.844 5.966q0 .315-.008.63l-33.986.004a23 23 0 0 1 .205-3.736M35.323 27.4c-.282.61-.522 1.145-.736 1.852-.538 1.772-.844 3.82-.844 6 0 .211.003.421-.028.633-.011-.43.001-.866.001-1.301v0c0-4.388-1.241-8.234-3.105-10.387m-6.905.017c-.52.606-.993 1.344-1.403 2.19m17.334-6.488a4.23 4.23 0 0 0-2.264-.653 4.265 4.265 0 0 0-4.259 4.271c0 2.359 1.907 4.271 4.259 4.271s4.258-1.912 4.258-4.271a4.27 4.27 0 0 0-1.994-3.618c.471-.72 2.352-1.183 2.495.246.19 1.897 2.385 1.595 2.367-.092M33.67 18.66a6.527 6.546 0 0 1-6.527 6.545 6.527 6.546 0 0 1-6.526-6.546 6.527 6.546 0 0 1 6.526-6.546 6.527 6.546 0 0 1 6.527 6.546M21.223 21.4a5.45 5.45 0 0 1-.903 2.4m.329-5.596a5.44 5.44 0 0 0-4.823-2.934c-2.012 0-3.722 1.124-4.71 2.725-.808 1.31-1.867.772-2.562-.093-.65 2.144.957 3.96 1.933 3.868a5.433 5.433 0 0 0 9.833 2.03c.586.604 1.602 1.73 1.984 2.604-1.049 2.165-1.687 5.033-1.687 8.18q0 .653.037 1.303m-8.712-5.485a3.9 3.9 0 0 0 .482-1.877c0-1.232-.644-2.248-1.466-3.04l-2.743-2.643c-.398.135-.038 1.051-.985.629-.583-.26-.641.03-.737.427-.059.245.198.628-.67.476-.358-.063-.687-.192-.573.541.045.29.41.826-.459.755-.41-.033-.651.05-.523.526.078.291.758.746-.197.82-.965.075-.461.61-.294.821.622.786.596.968-.065 1.082l1.983 2.208a3.862 3.862 0 0 0 6.247-.726c1.118 1.618 1.398 3.508 1.465 5.486a23 23 0 0 1-.01-.635c0-3.474.795-6.784 2.184-9.1"/></svg>