<?xml version="1.0" encoding="UTF-8" standalone="no"?>
<svg
   viewBox="0 0 48 48"
   version="1.1"
   id="svg2"
   xmlns="http://www.w3.org/2000/svg"
   xmlns:svg="http://www.w3.org/2000/svg">
  <defs
     id="defs1">
    <style
       id="style1">.c{fill:none;stroke:#000;stroke-linecap:round;stroke-linejoin:round;}</style>
  </defs>
  <g
     id="a"
     style="fill:none;stroke:#ffffff;stroke-opacity:1;stroke-linejoin:round;stroke-linecap:round">
    <path
       class="c"
       d="m39.5,15.5h-9c-1.1046,0-2-.8954-2-2V4.5H10.5c-1.1046,0-2,.8954-2,2v35c0,1.1046.8954,2,2,2h27c1.1046,0,2-.8954,2-2V15.5Z"
       id="path1"
       style="fill:none;stroke:#ffffff;stroke-opacity:1;stroke-linejoin:round;stroke-linecap:round" />
    <line
       class="c"
       x1="28.5"
       y1="4.5"
       x2="39.5"
       y2="15.5"
       id="line1"
       style="fill:none;stroke:#ffffff;stroke-opacity:1;stroke-linejoin:round;stroke-linecap:round" />
  </g>
  <g
     id="b"
     style="fill:none;stroke:#ffffff;stroke-opacity:1;stroke-linejoin:round;stroke-linecap:round">
    <path
       class="c"
       d="m29.0077,21.386c1.6883,0,3.0569,1.3686,3.0569,3.0569s-1.3686,3.0569-3.0569,3.0569-3.0569-1.3686-3.0569-3.0569,1.3686-3.0569,3.0569-3.0569h0Zm-7.7413,6.0727l4.9375,4.9375c.185.1888.4881.1919.677.0069.0023-.0023.0046-.0046.0069-.0069l.9437-.9437c.1893-.1878.4946-.1878.6839,0l5.341,5.341c.1889.185.192.4881.007.6769-.0917.0937-.2179.1456-.3489.1437H14.4825c-.2644.0021-.4804-.2105-.4825-.4749-.0008-.0991.0292-.196.0858-.2774l6.4967-9.3142c.1573-.2125.4571-.2572.6696-.0999.0048.0036.0096.0072.0143.011Z"
       id="path2"
       style="fill:none;stroke:#ffffff;stroke-opacity:1;stroke-linejoin:round;stroke-linecap:round" />
  </g>
</svg>
