<?xml version="1.0" encoding="UTF-8" standalone="no"?>
<svg
   viewBox="0 0 48 48"
   version="1.1"
   id="svg4"
   xmlns="http://www.w3.org/2000/svg"
   xmlns:svg="http://www.w3.org/2000/svg">
  <defs
     id="defs1">
    <style
       id="style1">.c{fill:none;stroke:#000;stroke-linecap:round;stroke-linejoin:round;}</style>
  </defs>
  <g
     id="a"
     style="fill:none;stroke:#ffffff;stroke-opacity:1;stroke-linejoin:round;stroke-linecap:round">
    <path
       class="c"
       d="m39.5,15.5h-9c-1.1046,0-2-.8954-2-2V4.5H10.5c-1.1046,0-2,.8954-2,2v35c0,1.1046.8954,2,2,2h27c1.1046,0,2-.8954,2-2V15.5Z"
       id="path1"
       style="fill:none;stroke:#ffffff;stroke-opacity:1;stroke-linejoin:round;stroke-linecap:round" />
    <line
       class="c"
       x1="28.5"
       y1="4.5"
       x2="39.5"
       y2="15.5"
       id="line1"
       style="fill:none;stroke:#ffffff;stroke-opacity:1;stroke-linejoin:round;stroke-linecap:round" />
  </g>
  <g
     id="b"
     style="fill:none;stroke:#ffffff;stroke-opacity:1;stroke-linejoin:round;stroke-linecap:round">
    <path
       class="c"
       d="m18.8182,20.8574c-1.5049,0-2.7248,1.2198-2.7248,2.7248v3.1931c0,1.5049-1.2199,2.7248-2.7248,2.7248,1.5049,0,2.7248,1.2198,2.7248,2.7248v3.1931c0,1.5049,1.2199,2.7248,2.7248,2.7248"
       id="path2"
       style="fill:none;stroke:#ffffff;stroke-opacity:1;stroke-linejoin:round;stroke-linecap:round" />
    <path
       class="c"
       d="m29.1818,38.1426c1.5049,0,2.7248-1.2198,2.7248-2.7248v-3.1931c0-1.5049,1.2199-2.7248,2.7248-2.7248-1.5049,0-2.7248-1.2198-2.7248-2.7248v-3.1931c0-1.5049-1.2199-2.7248-2.7248-2.7248"
       id="path3"
       style="fill:none;stroke:#ffffff;stroke-opacity:1;stroke-linejoin:round;stroke-linecap:round" />
    <circle
       class="c"
       cx="24"
       cy="24.9777"
       r="2.1203"
       id="circle3"
       style="fill:none;stroke:#ffffff;stroke-opacity:1;stroke-linejoin:round;stroke-linecap:round" />
    <circle
       class="c"
       cx="24"
       cy="34.0223"
       r="2.1203"
       id="circle4"
       style="fill:none;stroke:#ffffff;stroke-opacity:1;stroke-linejoin:round;stroke-linecap:round" />
  </g>
</svg>
