<?xml version="1.0" encoding="UTF-8" standalone="no"?>
<svg
   id="a"
   viewBox="0 0 48 48"
   version="1.1"
   sodipodi:docname="file_associations.svg"
   inkscape:version="1.4.3 (0d15f75042, 2025-12-25)"
   xmlns:inkscape="http://www.inkscape.org/namespaces/inkscape"
   xmlns:sodipodi="http://sodipodi.sourceforge.net/DTD/sodipodi-0.dtd"
   xmlns="http://www.w3.org/2000/svg"
   xmlns:svg="http://www.w3.org/2000/svg">
  <sodipodi:namedview
     id="namedview2"
     pagecolor="#727272"
     bordercolor="#000000"
     borderopacity="0.25"
     inkscape:showpageshadow="2"
     inkscape:pageopacity="0.0"
     inkscape:pagecheckerboard="true"
     inkscape:deskcolor="#d1d1d1"
     inkscape:zoom="39.4375"
     inkscape:cx="24.012678"
     inkscape:cy="24"
     inkscape:window-width="1920"
     inkscape:window-height="2102"
     inkscape:window-x="0"
     inkscape:window-y="0"
     inkscape:window-maximized="0"
     inkscape:current-layer="a" />
  <defs
     id="defs1">
    <style
       id="style1">.c{fill:none;stroke:#000;stroke-linecap:round;stroke-linejoin:round;}</style>
  </defs>
  <path
     class="c"
     d="m39.5,15.5h-9c-1.1046,0-2-.8954-2-2V4.5H10.5c-1.1046,0-2,.8954-2,2v35c0,1.1046.8954,2,2,2h27c1.1046,0,2-.8954,2-2V15.5Z"
     id="path1"
     style="stroke:#ffffff;stroke-opacity:1;stroke-linejoin:round;stroke-linecap:round;fill:none" />
  <line
     class="c"
     x1="28.5"
     y1="4.5"
     x2="39.5"
     y2="15.5"
     id="line1"
     style="stroke:#ffffff;stroke-opacity:1;stroke-linejoin:round;stroke-linecap:round;fill:none" />
  <g
     id="b"
     style="stroke:#ffffff;stroke-opacity:1;stroke-linejoin:round;stroke-linecap:round;fill:none">
    <path
       class="c"
       d="m29.5024,26.5025c0-3.4657-3.204-6.183-6.8116-5.3516-1.9666.4533-3.5674,2.0409-4.0334,4.0044-.5633,2.3735.412,4.5739,2.1283,5.8112.4141.2986.6341.7978.6341,1.3084v2.8104h5.1603v-2.9159c0-.4483.19-.8929.558-1.1489,1.4286-.9936,2.3644-2.6459,2.3644-4.5181h-.0001Z"
       id="path2"
       style="stroke:#ffffff;stroke-opacity:1;stroke-linejoin:round;stroke-linecap:round;fill:none" />
    <line
       class="c"
       x1="21.4199"
       y1="38"
       x2="26.5801"
       y2="38"
       id="line2"
       style="stroke:#ffffff;stroke-opacity:1;stroke-linejoin:round;stroke-linecap:round;fill:none" />
  </g>
</svg>
