<?xml version="1.0" encoding="UTF-8" standalone="no"?>
<svg
   viewBox="0 0 48 48"
   version="1.1"
   id="svg2"
   sodipodi:docname="file_browser.svg"
   inkscape:version="1.4.3 (0d15f75042, 2025-12-25)"
   xmlns:inkscape="http://www.inkscape.org/namespaces/inkscape"
   xmlns:sodipodi="http://sodipodi.sourceforge.net/DTD/sodipodi-0.dtd"
   xmlns="http://www.w3.org/2000/svg"
   xmlns:svg="http://www.w3.org/2000/svg">
  <sodipodi:namedview
     id="namedview2"
     pagecolor="#ffffff"
     bordercolor="#000000"
     borderopacity="0.25"
     inkscape:showpageshadow="2"
     inkscape:pageopacity="0.0"
     inkscape:pagecheckerboard="true"
     inkscape:deskcolor="#d1d1d1"
     inkscape:zoom="39.4375"
     inkscape:cx="23.987322"
     inkscape:cy="24"
     inkscape:window-width="3840"
     inkscape:window-height="2102"
     inkscape:window-x="0"
     inkscape:window-y="0"
     inkscape:window-maximized="1"
     inkscape:current-layer="svg2" />
  <defs
     id="defs1">
    <style
       id="style1">.c{fill:none;stroke:#000;stroke-linecap:round;stroke-linejoin:round;}</style>
  </defs>
  <g
     id="a"
     style="stroke:#ffffff;stroke-opacity:1;fill:none;stroke-linejoin:round;stroke-linecap:round">
    <path
       class="c"
       d="m39.5,15.5h-9c-1.1046,0-2-.8954-2-2V4.5H10.5c-1.1046,0-2,.8954-2,2v35c0,1.1046.8954,2,2,2h27c1.1046,0,2-.8954,2-2V15.5Z"
       id="path1"
       style="stroke:#ffffff;stroke-opacity:1;fill:none;stroke-linejoin:round;stroke-linecap:round" />
    <line
       class="c"
       x1="28.5"
       y1="4.5"
       x2="39.5"
       y2="15.5"
       id="line1"
       style="stroke:#ffffff;stroke-opacity:1;fill:none;stroke-linejoin:round;stroke-linecap:round" />
  </g>
  <g
     id="b"
     style="stroke:#ffffff;stroke-opacity:1;fill:none;stroke-linejoin:round;stroke-linecap:round">
    <path
       class="c"
       d="m24,19.5c-5.5218.0026-9.9974,4.4782-10,10h0c.0026,5.5218,4.4782,9.9974,10,10h0c5.5218-.0026,9.9974-4.4782,10-10h0c-.0026-5.5218-4.4782-9.9974-10-10Zm-2.0744,1.907l1.1442,1.2512-.707,1.3256-2.3256,1.3581-.8744,2.986,4.0047,1.2698-4.2837,6.5023c-.4684-.3631-.8972-.7747-1.2791-1.2279l-.6419-5.3721,2.2-1.1581-3.1302-1.3721c.87-2.7508,3.095-4.8598,5.8884-5.5814l.0047.0186Zm5.7953.614c1.0247.5082,1.9336,1.2223,2.6698,2.0977l-4.0651.1488,1.3953-2.2465Zm3.1442,2.7163c2.4453,3.5043,1.8425,8.2905-1.3953,11.0791l-.4279-4.7488-2.7907-.7907-.6465-3.1628,5.2605-2.3767Z"
       id="path2"
       style="stroke:#ffffff;stroke-opacity:1;fill:none;stroke-linejoin:round;stroke-linecap:round" />
  </g>
</svg>
