<?xml version="1.0" encoding="UTF-8"?><svg id="a" xmlns="http://www.w3.org/2000/svg" viewBox="0 0 48 48"><defs><style>.d{fill:none;stroke:#fff;stroke-linecap:round;stroke-linejoin:round;}</style></defs><path class="d" d="m36 21.5c0-5.9658-4.3112-10.885-10-11.832v-2.168c0-1.108-.892-2-2-2s-2 .892-2 2v2.168c-5.6888.94738-10 5.8662-10 11.832v11.379l-3.0607 3.0607c-.429.429-.55733 1.0742-.32516 1.6347.23217.56051.77913.92598 1.3858.92598h28c.60669 0 1.1536-.36546 1.3858-.92598.23217-.56051.10384-1.2057-.32516-1.6347l-3.0606-3.0606z"/><path class="d" d="m28 38.5a4 4 0 01-2 3.4641 4 4 0 01-4 0 4 4 0 01-2-3.4641z"/><path class="d" d="m16 20h16"/><path class="d" d="m21.5 30.672h5"/><path class="d" d="m18.5 25.336h11"/></svg>
