<?xml version="1.0" encoding="UTF-8" standalone="no"?>
<svg
   viewBox="0 0 48 48"
   version="1.1"
   id="svg1"
   sodipodi:docname="finshell_wallet.svg"
   inkscape:version="1.2.2 (b0a8486541, 2022-12-01)"
   xml:space="preserve"
   xmlns:inkscape="http://www.inkscape.org/namespaces/inkscape"
   xmlns:sodipodi="http://sodipodi.sourceforge.net/DTD/sodipodi-0.dtd"
   xmlns="http://www.w3.org/2000/svg"
   xmlns:svg="http://www.w3.org/2000/svg"><sodipodi:namedview
     id="namedview1"
     pagecolor="#505050"
     bordercolor="#eeeeee"
     borderopacity="1"
     inkscape:showpageshadow="0"
     inkscape:pageopacity="0"
     inkscape:pagecheckerboard="0"
     inkscape:deskcolor="#505050"
     inkscape:zoom="6.2976698"
     inkscape:cx="-54.782167"
     inkscape:cy="27.788056"
     inkscape:window-width="1918"
     inkscape:window-height="1053"
     inkscape:window-x="0"
     inkscape:window-y="0"
     inkscape:window-maximized="1"
     inkscape:current-layer="svg1"
     showgrid="false" /><defs
     id="defs1"><style
       id="style1">.a { fill:none;stroke:#fff;stroke-linecap:round;stroke-linejoin:round; }
</style></defs><path
     style="fill:none;stroke:#ffffff;stroke-width:1;stroke-linecap:round;stroke-linejoin:round;stroke-dashoffset:3.6;stroke-opacity:1"
     d="m 10.979988,5.5004806 h 26.040024 c 3.035646,0 5.479506,2.4438599 5.479506,5.4795064 v 26.040026 c 0,3.035647 -2.44386,5.479506 -5.479506,5.479506 H 10.979988 c -3.0356465,0 -5.4795062,-2.443859 -5.4795062,-5.479506 V 10.979987 c 0,-3.0356465 2.4438597,-5.4795064 5.4795062,-5.4795064 z"
     id="path14140" /><path
     style="fill:none;stroke:#ffffff;stroke-width:1;stroke-linecap:round;stroke-linejoin:round;stroke-dashoffset:3.6;stroke-opacity:1"
     d="m 5.5004818,17.278532 v 0 c 0,-3.035643 2.4438626,-5.479506 5.4795062,-5.479506 v 0 h 26.040024 c 3.035643,0 5.479506,2.443863 5.479506,5.479506"
     id="path14138" /><path
     style="fill:none;stroke:#ffffff;stroke-width:1;stroke-linecap:round;stroke-linejoin:round;stroke-dashoffset:3.6;stroke-opacity:1"
     d="m 5.5004818,23.577078 v 0 c 0,-3.035643 2.4438626,-5.479506 5.4795062,-5.479506 v 0 h 26.040024 c 3.035643,0 5.479506,2.443863 5.479506,5.479506"
     id="path14136" /><path
     style="fill:none;stroke:#ffffff;stroke-width:1;stroke-linecap:round;stroke-linejoin:round;stroke-dashoffset:3.6;stroke-opacity:1"
     d="m 5.5000004,24.091409 5.5612016,-10e-7 c 2.320827,0.03419 3.774126,0.993849 4.230398,2.863405 0.456272,1.869556 1.974757,2.414601 4.586583,2.414601 h 8.243636 c 2.611826,0 4.130312,-0.545045 4.586585,-2.414601 0.456271,-1.869556 1.90957,-2.829219 4.230397,-2.863405 H 42.5"
     id="path14115" /></svg>
