<?xml version="1.0" encoding="UTF-8"?><svg id="a" xmlns="http://www.w3.org/2000/svg" viewBox="0 0 48 48"><defs><style>.b{fill:none;stroke:#fff;stroke-linecap:round;stroke-linejoin:round;}</style></defs><ellipse class="b" cx="22.4819" cy="5.8125" rx="4.8467" ry="1.3046" transform="translate(-.167 .6891) rotate(-1.7495)"/><path class="b" d="M18.8626,12.0025c-1.0122.4419-1.6117.9775-1.5704,1.5126.0862,1.1161,2.9287,1.8066,6.3487,1.5424,3.4201-.2642,6.1227-1.3832,6.0365-2.4993-.0449-.5808-.836-1.0463-2.0665-1.322"/><path class="b" d="M17.652,6.0307c.5873,1.6214,1.3684,7.0059,1.3684,7.0059"/><path class="b" d="M27.3265,5.6645c-.2208,2.6385.4446,6.6886.4446,6.6886"/><path class="b" d="M19.859,27.4542c1.6629.0025,4.2237-.0723,4.0212,1.5333s-2.3867,2.6326-4.2671,2.4879-3.7897-.9981-3.674-2.7049,2.4878-1.3185,3.9199-1.3163Z"/><path class="b" d="M20.047,27.4542c.0868-2.6904-1.6779-4.53-3.2256-4.0791-1.837.5352-2.1579,3.2528-.7535,4.8809"/><path class="b" d="M23.0558,27.765c-.5209-1.685-.7089-4.9106,2.5456-3.8258s2.6615,3.457,2.0684,4.0646-2.5326,1.2966-3.7832.7206"/><path class="b" d="M22.665,22.204c2.5024-.6509,4.6287,0,4.6287,0"/><path class="b" d="M18.9766,22.0589c-2.0395-.6943-4.2381.1446-4.2381.1446"/><line class="b" x1="25.601" y1="25.386" x2="25.681" y2="26.264"/><line class="b" x1="18.118" y1="25.182" x2="18.21" y2="26.022"/><path class="b" d="M26.5844,28.6341c1.7653-.1891,3.3709,1.1127,3.9784,3.7814s-1.4537,4.3177-5.3158,4.5347-5.3343-.1302-5.3343-.1302c-3.0841.6075-7.8574.8933-8.2046-4.0012s4.2309-4.0484,4.2309-4.0484"/><path class="b" d="M19.736,31.4889c-.6509,1.7945.1767,5.3311.1767,5.3311"/><path class="b" d="M34.1862,22.5217c2.7772,1.2584,9.0042-.3038,6.2704-6.1836-2.7338-5.8799-8.093.9113-8.093.9113-.0651,2.6036,1.8225,5.2724,1.8225,5.2724h0Z"/><path class="b" d="M29.544,13.037c2.5591.4375,4.0632,2.8934,4.0632,2.8934"/><path class="b" d="M14.339,16.231c-1.7141-2.3216-6.753-3.6466-8.4237.3239-1.6707,3.9705,4.1715,6.5303,6.4034,5.2287"/><path class="b" d="M17.623,14.1c-4.7649,2.347-6.0884,5.8185-4.895,11.503-1.9093,2.2348-1.0096,6.1174-1.0096,6.1174"/><path class="b" d="M36.008,22.921c.0112,1.9981,2.1701,3.6688,1.964,5.9361s-1.3127,3.3739-3.5041,3.1569"/><path class="b" d="M35.683,30.257c-1.1065,1.3778-2.18,3.83-5.3046,4.3451"/><path class="b" d="M33.572,32.973c-.289,11.384-7.9632,10.76-12.772,10.356-5.4242-.4556-8.3659-1.7357-6.9602-6.8237"/><line class="b" x1="27.579" y1="36.614" x2="27.677" y2="37.406"/><line class="b" x1="25.149" y1="37.01" x2="25.236" y2="38.024"/><line class="b" x1="22.839" y1="37.022" x2="22.871" y2="38.144"/><line class="b" x1="19.624" y1="36.875" x2="19.649" y2="37.937"/><line class="b" x1="17.49" y1="37.149" x2="17.469" y2="37.775"/><path class="b" d="M15.7349,37.0762c.4862,2.2172,3.4587,1.6206,6.225,1.6423s6.3472.4846,6.938-2.6543"/><path class="b" d="M41.371,43.5v-8l-4.29,5.374h5.3"/></svg>