<?xml version="1.0" encoding="UTF-8" standalone="no"?>
<!-- Created with Inkscape (http://www.inkscape.org/) -->

<svg
   width="48"
   height="48"
   viewBox="0 0 48 48"
   version="1.1"
   id="svg1"
   xml:space="preserve"
   sodipodi:docname="flappy_dragon.svg"
   inkscape:version="1.4.4 (dcaf3e7d9e, 2026-05-05)"
   xmlns:inkscape="http://www.inkscape.org/namespaces/inkscape"
   xmlns:sodipodi="http://sodipodi.sourceforge.net/DTD/sodipodi-0.dtd"
   xmlns="http://www.w3.org/2000/svg"
   xmlns:svg="http://www.w3.org/2000/svg"><sodipodi:namedview
     id="namedview1"
     pagecolor="#505050"
     bordercolor="#eeeeee"
     borderopacity="1"
     inkscape:showpageshadow="0"
     inkscape:pageopacity="0"
     inkscape:pagecheckerboard="0"
     inkscape:deskcolor="#505050"
     inkscape:zoom="2.0937501"
     inkscape:cx="-41.313431"
     inkscape:cy="-9.0746265"
     inkscape:window-width="1920"
     inkscape:window-height="1012"
     inkscape:window-x="0"
     inkscape:window-y="0"
     inkscape:window-maximized="1"
     inkscape:current-layer="layer2" /><defs
     id="defs1" /><g
     id="layer2"
     inkscape:label="layer2"><path
       style="fill:none;stroke:#ffffff;stroke-width:0.998627;stroke-linecap:round;stroke-linejoin:round;stroke-dasharray:none;stroke-dashoffset:0;stroke-opacity:1;paint-order:normal"
       d="m 8.6048886,14.472821 0.6249251,0.662221 0.2999672,0.515061 c 0,0 1.2748471,0.392428 2.0247571,0.04906 0.749909,-0.343376 2.849656,-3.213004 2.849656,-3.213004 l 0.824901,0.441479 1.424831,-0.02449 2.524694,-2.428144 0.74991,0.735801 0.99988,0.760329 0.974884,0.196214 -1.349838,0.515062 c 0,0 -2.349718,3.06584 -2.199736,4.70913 0.149979,1.64329 -0.174977,3.629954 1.299844,5.395878 1.474823,1.765924 1.099867,1.520656 1.099867,1.520656 0,0 2.074751,1.520658 4.424469,0.53959 2.349717,-0.981085 1.999758,-3.384703 1.999758,-3.384703 0,0 0.124988,-1.079175 -1.474822,-1.986664 -1.59981,-0.907509 -1.374837,-0.981088 -1.374837,-0.981088 0,0 0.366956,-3.627387 1.097328,-5.444932 0.989335,-2.461977 1.059054,-2.422841 2.152282,-4.2676493 0.93859,-1.151573 1.589532,-1.6485812 2.799662,-2.5998332 0.399952,-0.098107 2.924649,2.2809858 2.924649,2.2809858 l 5.249366,1.5942367 1.599807,4.41481 3.124631,4.512916 c 0,0 -1.574814,0.907488 -2.924658,1.888557 -1.349837,0.98107 -1.76968,2.679487 -2.23908,4.403089 -0.353697,0.955886 -0.440495,1.82148 0.621206,2.589623 0.974883,0.711274 -2.231657,-1.964733 -4.28141,-1.891153 -2.049754,0.07357 -2.999639,-0.858436 -4.874413,0.564114 -1.874775,1.42255 -0.974884,2.575306 -0.974884,2.575306 0,0 2.674678,2.035717 4.924408,1.177282 2.24973,-0.858435 8.873935,1.054649 8.873935,1.054649 l 1.024872,0.367904 0.07499,10.718176 c 0,0 -6.124264,-1.765925 -7.699074,-2.428146 -1.574823,-0.662225 -1.960911,-0.811417 -1.960911,-0.811417 0,0 -1.802905,0.450913 -2.015012,1.422132 -0.21211,0.971208 0.919128,3.884829 0.919128,3.884829 L 26.275575,44.39661 22.033444,37.840958 19.594218,36.2454 c 0,0 -2.015012,2.323967 -2.015012,2.844257 0,0.520289 0.04751,1.377771 0.837403,2.076327 0.765138,0.676662 0.672341,1.739133 0.672341,1.739133 0,0 -0.378507,-0.76309 -0.908775,-0.832466 -0.530265,-0.0694 -0.651946,0.446417 -0.707021,0.659039 -0.08786,0.339176 0.436344,0.842619 0.754504,1.01605 0.318163,0.173451 -1.143365,-0.04488 -1.320121,-0.322298 -0.176754,-0.277498 -0.850938,0.416235 -0.850938,0.416235 l -0.174244,-1.214008 c 0,0 1.060534,-2.219904 0.530267,-3.468605 -0.530261,-1.248722 0.848432,-3.954234 0.742378,-4.994814 -0.106053,-1.04058 -0.848425,-1.422128 -0.848425,-1.422128 0,0 -3.782568,0.242801 -4.242132,1.664931 -0.459563,1.422126 -1.555448,2.913625 -0.98983,3.954204 0.565617,1.04058 0.01917,-0.05581 0.01917,-0.05581 0,0 -1.4044642,-0.451355 -1.9700813,-0.347287 -0.5656248,0.104028 -2.856834,-2.614587 -2.856834,-2.614587 l -0.707022,-3.884835 -1.0605325,-1.526185 0.1767552,-9.469282 6.8227606,1.248696 c 0,0 -0.636319,2.115847 -0.636319,2.774882 0,0.659035 0.530266,1.838359 1.484745,2.532079 0.954479,0.693721 2.26247,1.387442 3.040194,0.901837 0.777724,-0.485605 -0.813075,-6.971891 -0.813075,-6.971891 0,0 -1.767554,-2.670823 -2.156417,-2.670823 -0.388861,0 -0.742373,0.693721 -0.742373,0.693721 0,0 -3.2876506,0.17343 -3.8179172,0.03468 C 7.327403,18.867716 6.5850303,17.861819 6.5850303,17.861819 l 0.8484263,-2.289277 0.7777239,1.422126 c 0,0 1.2019375,0.346863 1.4847455,0.138746 L 9.9787355,16.925297 8.4232872,16.613125 Z"
       id="path1"
       sodipodi:nodetypes="ccccccccccccsscccccsssccccsccsscscccccsccccssccscccccscsscccccccssscscccccsccc" /><path
       style="fill:none;stroke:#ffffff;stroke-width:0.998627;stroke-linecap:round;stroke-linejoin:round;stroke-dasharray:none;stroke-dashoffset:0;stroke-opacity:1;paint-order:normal"
       d="m 19.75355,22.885486 c 0,0 1.549812,3.973328 2.449705,4.463862 0.899891,0.490536 1.949765,1.079177 1.949765,1.079177 l 0.249971,3.973328 -1.049875,0.735802 0.374957,1.079174 c 0,0 0.674919,-1.226334 0.974882,-1.226334 0.299967,0 0.749911,0.932015 0.599928,1.422549 -0.149982,0.490534 -0.824902,0.833908 -0.824902,0.833908 l 1.324841,-0.784855 c 0.149976,0.22892 -0.09093,1.685164 0.449946,0.686749 l 0.549933,-1.12823 -0.849897,-1.913083 c 0,0 4.69545,5.783374 8.295018,7.25498"
       id="path2" /><path
       style="opacity:1;fill:none;stroke:#ffffff;stroke-width:0.998627;stroke-linecap:round;stroke-linejoin:round;stroke-dasharray:none;stroke-dashoffset:0;stroke-opacity:1;paint-order:normal"
       d="m 27.014275,22.895081 -0.611524,2.639291 0.74991,0.14716 -0.599928,1.667818 2.099747,1.765924"
       id="path3" /><path
       style="opacity:1;fill:none;stroke:#ffffff;stroke-width:0.998627;stroke-linecap:round;stroke-linejoin:round;stroke-dasharray:none;stroke-dashoffset:0;stroke-opacity:1;paint-order:normal"
       d="m 15.604047,26.760707 1.549814,7.55423"
       id="path4" /><path
       style="opacity:1;fill:none;stroke:#ffffff;stroke-width:0.998627;stroke-linecap:round;stroke-linejoin:round;stroke-dasharray:none;stroke-dashoffset:0;stroke-opacity:1;paint-order:normal"
       d="m 14.883699,14.627347 1.087046,-0.390218"
       id="path5" /><path
       style="opacity:1;fill:none;stroke:#ffffff;stroke-width:0.998627;stroke-linecap:round;stroke-linejoin:round;stroke-dasharray:none;stroke-dashoffset:0;stroke-opacity:1;paint-order:normal"
       d="m 16.931372,33.424551 2.863662,2.965552"
       id="path6" /><path
       style="opacity:1;fill:none;stroke:#ffffff;stroke-width:0.998627;stroke-linecap:round;stroke-linejoin:round;stroke-dasharray:none;stroke-dashoffset:0;stroke-opacity:1;paint-order:normal"
       d="m 22.203255,38.042999 1.918944,1.342185 c 1.249773,0.874142 3.514401,1.612958 5.017732,1.903182 0.250577,0.04839 1.787809,-0.07056 2.859849,-1.077978 0.149519,-0.140468 0.237798,-0.235052 0.237798,-0.235052"
       id="path7" /><path
       style="fill:none;stroke:#ffffff;stroke-width:0.998627;stroke-linecap:round;stroke-linejoin:round;stroke-dasharray:none"
       d="m 36.408201,30.077141 c 0,0 0.469481,-2.119655 0.469481,-3.235263"
       id="path8"
       sodipodi:nodetypes="cc" /><path
       style="fill:none;stroke:#ffffff;stroke-width:0.998627;stroke-linecap:round;stroke-linejoin:round;stroke-dasharray:none"
       d="m 29.845764,29.630899 c 0,0 2.780995,-2.454338 2.780995,-3.569947"
       id="path9"
       sodipodi:nodetypes="cc" /><path
       style="opacity:1;fill:none;stroke:#ffffff;stroke-width:0.998627;stroke-linecap:round;stroke-linejoin:round;stroke-dasharray:none"
       d="M 28.449524,7.4542094 C 26.368954,6.977366 25.222943,4.9576501 24.133504,3.4991373 24.7192,5.8925589 25.282427,8.1143051 26.951219,9.4577886"
       id="path10"
       sodipodi:nodetypes="ccc" /></g></svg>
