<?xml version="1.0" encoding="UTF-8"?><svg id="b" xmlns="http://www.w3.org/2000/svg" viewBox="0 0 48 48"><defs><style>.e{fill:none;stroke:#fff;stroke-linecap:round;stroke-linejoin:round;}</style></defs><path class="e" d="M17,4.5h14c3.0376,0,5.5,2.4624,5.5,5.5h0c0,3.0376-2.4624,5.5-5.5,5.5h-14c-3.0376,0-5.5-2.4624-5.5-5.5h0c0-3.0376,2.4624-5.5,5.5-5.5Z"/><circle class="e" cx="31" cy="24" r="5.5"/><path class="e" d="M17,18.5h0c3.0376,0,5.5,2.4624,5.5,5.5v14c0,3.0376-2.4624,5.5-5.5,5.5h0c-3.0376,0-5.5-2.4624-5.5-5.5v-14c0-3.0376,2.4624-5.5,5.5-5.5Z"/></svg>