<svg width="48" height="48" version="1.1" viewBox="0 0 48 48" xml:space="preserve" xmlns="http://www.w3.org/2000/svg" xmlns:xlink="http://www.w3.org/1999/xlink"><path d="m24.792 35.937c0.6715-2.2074 3.3026-5.0673 5.1407-5.5876 0.25793-0.07301 0.56201-0.20682 0.67574-0.29735 0.11373-0.09053 0.74682-0.21224 1.4069-0.27045 2.0185-0.17802 1.9902-0.16259 2.2152-1.2116 0.11123-0.51863 0.28963-1.5528 0.39645-2.2982s0.27283-1.6929 0.3689-2.1056c0.47356-2.0341 0.49667-1.9287-0.45363-2.0712-1.1473-0.17205-4.1623 0.20089-5.601 0.6928-1.8748 0.64105-3.9027 1.6925-5.1989 2.6955-0.15476 0.11976-0.91534 0.84314-1.6902 1.6075-1.4796 1.4596-2.8534 3.3768-3.55 4.9539-0.22783 0.51586-0.49374 1.0863-0.5909 1.2677-0.25909 0.48362-0.73221 2.6171-0.62046 2.7979 0.0527 0.08527 1.7395 0.15504 3.7485 0.15504 3.3157 0 3.6619-0.03029 3.7526-0.32827zm11.464-18.43c0.57936-3.4162 0.85592-5.1916 0.87662-5.6275l0.02227-0.46896-12.933-0.0482c-9.0571-0.03376-12.992 0.01239-13.131 0.154-0.14009 0.14287-0.06066 0.31204 0.27069 0.5765 0.25793 0.20586 0.80661 0.65558 1.2193 0.99938s1.1302 0.92968 1.5945 1.302c0.46427 0.37229 0.96708 0.78181 1.1173 0.91004 0.15027 0.12823 1.2476 1.0143 2.4386 1.969l2.1654 1.7358 16.12-0.0951z" fill="none" stroke="#fff"/></svg>
