<?xml version="1.0" encoding="UTF-8" standalone="no"?>
<!-- Created with Inkscape (http://www.inkscape.org/) -->

<svg
   width="48"
   height="48"
   viewBox="0 0 48 48"
   version="1.1"
   id="svg1"
   xml:space="preserve"
   xmlns="http://www.w3.org/2000/svg"
   xmlns:svg="http://www.w3.org/2000/svg"><defs
     id="defs1"><style
       id="style1">.a{fill:none;stroke:#fff;stroke-linecap:round;stroke-linejoin:round;}</style></defs><g
     id="layer1"><circle
       style="display:inline;fill:none;stroke:#ffffff;stroke-width:0.977778;stroke-dasharray:none;stroke-opacity:1"
       id="path5-2"
       cx="24"
       cy="24"
       r="21.51111" /><path
       id="rect3-0"
       d="m 34.460009,103.4137 c -5.802357,-5.80236 -5.802358,-15.144788 2e-6,-20.947148 l 58.35839,-58.358391 c 5.802361,-5.80236 15.144789,-5.802359 20.947149,-2e-6 l 0.88388,0.883883 c 5.80236,5.802363 5.80236,15.144788 0,20.947148 l -57.662564,57.66256 -11.1694,11.1694 -11.158361,-11.15836 z"
       style="display:inline;fill:none;fill-opacity:1;stroke:#ffffff;stroke-width:5.18061;stroke-linecap:round;stroke-linejoin:round;stroke-dasharray:none;stroke-opacity:1"
       transform="matrix(0.19302737,0,0,0.19302737,6.977499,6.048751)" /><path
       id="path1-7"
       d="M 52.602778,121.97443 94.58616,79.616043 c 5.7765,-5.828101 15.14479,-5.80236 20.94715,-3e-6 l 0.88388,0.883884 c 5.80236,5.802363 5.80236,15.144786 0,20.947146 l -41.983383,42.35839 z"
       style="display:inline;fill:none;fill-opacity:1;stroke:#ffffff;stroke-width:5.18061;stroke-linecap:round;stroke-linejoin:round;stroke-dasharray:none;stroke-opacity:1"
       transform="matrix(0.19302737,0,0,0.19302737,6.977499,6.048751)" /><path
       id="path4-6"
       d="m 103.01188,128.47995 11.46666,11.57779 c 5.77431,5.83027 5.80236,15.14479 1e-5,20.94715 l -0.88389,0.88388 c -5.80236,5.80236 -15.14478,5.80236 -20.94714,0 L 81.180853,150.31098 Z"
       style="display:inline;fill:none;fill-opacity:1;stroke:#ffffff;stroke-width:5.18061;stroke-linecap:round;stroke-linejoin:round;stroke-dasharray:none;stroke-opacity:1"
       transform="matrix(0.19302737,0,0,0.19302737,6.977499,6.048751)" /></g></svg>
