<?xml version="1.0" encoding="UTF-8" standalone="no"?>
<svg
 id="Layer_1"
 data-name="Layer 1"
 version="1.1"
 viewBox="0 0 48 48"
 xmlns="http://www.w3.org/2000/svg"
 xmlns:svg="http://www.w3.org/2000/svg">
 <defs>
 <style>
 .a { fill: none; stroke: #fff; stroke-linecap: round; stroke-linejoin: round;
 }
 </style>
 </defs>
 <rect
 class="a"
 x="5.5"
 y="5.5"
 width="37"
 height="37"
 rx="4"
 ry="4"
 />
 <path
 class="a"
 d="m 10.430097,24.053078 3.277008,-0.07334" />
 <path
 class="a"
 d="m 38.267531,20.652341 0.07548,5.758408"
 />
 <ellipse
 class="a"
 id="path1093"
 cx="22.166996"
 cy="23.544872"
 rx="2.6164258"
 ry="2.6351905" />
 <ellipse
 class="a"
 id="path1093-9"
 cx="35.687492"
 cy="23.596373"
 rx="2.6164258"
 ry="2.6351905" />
 <path
 class="a"
 d="m 31.241315,22.069304 v 2.467645 c 0,1.009512 -1.003897,1.827885 -2.242269,1.827885 h -10e-6 c -0.619159,0 -1.179714,-0.204581 -1.585486,-0.535345"
 /> <path
 class="a"
 d="m 31.245744,20.583684 v 2.086454 c 0,0.698373 -1.039043,1.264517 -2.320769,1.264517 h -1.1e-5 c -1.281727,0 -2.320758,-0.566144 -2.320758,-1.264517 v -2.086454"
 /> <path
 class="a"
 d="m 16.162647,20.850936 c 0,0 0.07289,2.887984 0.07488,3.467573 0.002,0.579589 0.735366,1.723159 1.734871,1.723159 h 0.542924"
 />
 <path
 class="a"
 d="m 10.281559,26.476175 c 0,0 0.01259,-2.613459 0.02261,-3.427499 0.01002,-0.81404 0.787774,-1.853642 1.96557,-1.916708 v 0 c 0.978527,0 1.589353,0.136281 2.00832,0.391298"
 />
</svg>
