<svg width="49" height="49" viewBox="0 0 49 49" fill="none" xmlns="http://www.w3.org/2000/svg">
<path d="M24.0492 29.1129L19.1709 24.2345C19.1326 24.1963 19.1317 24.1345 19.1689 24.0951L20.498 22.6902C20.5365 22.6495 20.6009 22.6484 20.6408 22.6877L24.0492 26.0457C24.0884 26.0842 24.1513 26.084 24.1901 26.0451L31.0486 19.1867C31.0876 19.1476 31.1509 19.1476 31.19 19.1867L32.5827 20.5794C32.6218 20.6184 32.6218 20.6818 32.5827 20.7208L24.1906 29.1129C24.1516 29.1519 24.0883 29.1519 24.0492 29.1129Z" stroke="white"/>
<path d="M26.2323 9.42322C26.2323 10.2428 24.9425 12.1806 24.6048 12.6739C24.5657 12.731 24.4836 12.731 24.4445 12.6739C24.1067 12.1806 22.817 10.2428 22.817 9.42322C22.817 8.48011 23.5815 7.71558 24.5246 7.71558C25.4678 7.71558 26.2323 8.48011 26.2323 9.42322Z" stroke="white"/>
<path d="M22.817 39.5958C22.817 38.7762 24.1067 36.8385 24.4445 36.3451C24.4836 36.288 24.5657 36.288 24.6048 36.3451C24.9425 36.8385 26.2323 38.7762 26.2323 39.5958C26.2323 40.5389 25.4678 41.3035 24.5246 41.3035C23.5815 41.3035 22.817 40.5389 22.817 39.5958Z" stroke="white"/>
<path d="M9.37845 22.8275C10.1981 22.8275 12.1358 24.1173 12.6292 24.4551C12.6862 24.4941 12.6862 24.5763 12.6292 24.6154C12.1358 24.9531 10.1981 26.2429 9.37845 26.2429C8.43534 26.2429 7.67081 25.4784 7.67081 24.5352C7.67081 23.5921 8.43534 22.8275 9.37845 22.8275Z" stroke="white"/>
<path d="M39.5675 26.243C38.7479 26.243 36.8102 24.9532 36.3168 24.6155C36.2598 24.5764 36.2598 24.4942 36.3168 24.4552C36.8102 24.1174 38.7479 22.8276 39.5675 22.8276C40.5106 22.8276 41.2752 23.5922 41.2752 24.5353C41.2752 25.4785 40.5106 26.243 39.5675 26.243Z" stroke="white"/>
<path d="M36.3999 15.0734C35.8203 15.653 33.5381 16.1112 32.9504 16.2212C32.8825 16.2339 32.8243 16.1758 32.8371 16.1079C32.9471 15.5202 33.4053 13.238 33.9848 12.6584C34.6517 11.9915 35.7329 11.9916 36.3998 12.6584C37.0667 13.3253 37.0667 14.4066 36.3999 15.0734Z" stroke="white"/>
<path d="M15.0644 12.6584C15.644 13.238 16.1021 15.5202 16.2122 16.1079C16.2249 16.1758 16.1668 16.2339 16.0988 16.2212C15.5111 16.1112 13.2289 15.653 12.6494 15.0735C11.9825 14.4066 11.9825 13.3253 12.6494 12.6584C13.3163 11.9916 14.3975 11.9915 15.0644 12.6584Z" stroke="white"/>
<path d="M12.6494 33.9976C13.2289 33.418 15.5111 32.9599 16.0988 32.8498C16.1668 32.8371 16.2249 32.8952 16.2122 32.9632C16.1021 33.5509 15.644 35.8331 15.0644 36.4126C14.3975 37.0795 13.3163 37.0795 12.6494 36.4126C11.9825 35.7457 11.9825 34.6645 12.6494 33.9976Z" stroke="white"/>
<path d="M33.9849 36.4126C33.4053 35.8331 32.9471 33.5509 32.8371 32.9632C32.8244 32.8952 32.8825 32.8371 32.9505 32.8498C33.5382 32.9599 35.8203 33.418 36.3999 33.9976C37.0668 34.6645 37.0668 35.7457 36.3999 36.4126C35.733 37.0795 34.6517 37.0795 33.9849 36.4126Z" stroke="white"/>
</svg>
