<svg xmlns="http://www.w3.org/2000/svg" xml:space="preserve" viewBox="0 0 48 48"><path d="M9.5 5.5h29c2.216 0 4 1.784 4 4v29c0 2.216-1.784 4-4 4h-29c-2.216 0-4-1.784-4-4v-29c0-2.216 1.784-4 4-4" style="fill:none;stroke:#fff;stroke-linecap:round;stroke-linejoin:round;stroke-dashoffset:1.3;stroke-opacity:1"/><path d="M21.167 23.57q1.35-.242 2.833-.248c12.051-.04 17.324 8.944 16.107 18.844M7.56 42.002c.508-7.463 3.793-14.288 9.775-17.197" style="fill:none;stroke:#fff;stroke-linecap:round;stroke-linejoin:round;stroke-dashoffset:1.3;stroke-opacity:1"/><path d="M23.924 25.725c-.02-2.61.952-5.622 3.519-6.108M30.987 11.712c-2.917.25-3.926 3.798-2.162 5.74 3.22-1.594 3.543-4.825 2.162-5.74M30.529 19.631c2.154 3.215 4.622 4.194 7.226 2.02-.27-4.849-4.817-4.053-7.226-2.02M18.765 31.587a.854 1.296 11.73 0 1-1.099 1.096.854 1.296 11.73 0 1-.572-1.443.854 1.296 11.73 0 1 1.1-1.096.854 1.296 11.73 0 1 .571 1.443M29.127 31.655a1.296.854 66.671 0 0 1.297.852 1.296.854 66.671 0 0 .27-1.528 1.296.854 66.671 0 0-1.297-.852 1.296.854 66.671 0 0-.27 1.528M20.403 32.994c-.318 5.425 6.546 5.486 6.393-.566-.012-.503-6.335-.43-6.393.566M10.86 12.562c.364 2.233 1.66 4.193 3.064 5.63-1.43 1.417-2.625 3.531-2.794 5.01M20.582 12.561c-.332 2.401-1.651 3.987-3.22 5.366 1.49 1.727 2.51 3.55 2.856 5.367M9.948 12.56h11.419c-.118-.7.089-1.737-.823-1.783-2.915-.148-7.653-.01-9.206.087-1.538.097-1.316.842-1.39 1.696" style="fill:none;stroke:#fff;stroke-linecap:round;stroke-linejoin:round;stroke-dashoffset:1.3;stroke-opacity:1"/><path d="M11.751 23.23c-.871-.007-1.527.07-1.432.864.09.754.833.753 1.346.75l7.511-.05c.54-.004 2.113.156 2.124-.682.012-.92-.679-.814-1.167-.818zM13.316 14.585c.267 1 1.162 2.24 2.443 2.784 1.139-.774 1.425-1.548 2.107-2.321-.728-.9-1.389-.083-2.003-.502-1.503-1.025-2.676-.447-2.547.039M14.249 23.213c.453-.606 1.01-.94 1.73-1.127.659.147 1.243.498 1.515.942" style="fill:none;stroke:#fff;stroke-linecap:round;stroke-linejoin:round;stroke-dashoffset:1.3;stroke-opacity:1"/><circle cx="15.737" cy="19.483" r=".75" style="fill:#fff;fill-opacity:1;stroke:none;stroke-width:1;stroke-linecap:round;stroke-linejoin:round;stroke-dashoffset:1.3;stroke-opacity:.452613"/></svg>