<?xml version="1.0" encoding="utf-8"?>
<svg id="a" xmlns="http://www.w3.org/2000/svg" viewBox="0 0 48 48">
  <defs>
    <style>.c{fill:none;stroke:#fff;stroke-linecap:round;stroke-linejoin:round;}</style>
  </defs>
  <path class="c" d="m4.5,11.5c0-1.6569,1.3431-3,3-3h8.7181c.8337,0,1.6465.2605,2.325.7451l4.9138,3.5099c.6784.4846,1.4913.7451,2.325.7451h14.7181c1.6569,0,3,1.3431,3,3v20c0,1.6569-1.3431,3-3,3H7.5c-1.6569,0-3-1.3431-3-3V11.5Z"/>
  <path class="b" d="M 27.162 23.36 L 27.162 17.289 L 21.304 17.289 L 21.304 23.36 M 27.162 29.218 L 33.233 29.218 L 33.233 23.36 L 27.162 23.36 M 21.304 29.218 L 21.304 35.289 L 27.162 35.289 L 27.162 29.218 M 21.304 23.36 L 15.233 23.36 L 15.233 29.218 L 21.304 29.218" style="fill: none; stroke: rgb(255, 255, 255); stroke-linecap: round; stroke-linejoin: round; stroke-width: 1px;"/>
</svg>