<svg viewBox="0 0 48 48" xmlns="http://www.w3.org/2000/svg"><path d="M4.5 11.5a3 3 0 0 1 3-3h8.718a4 4 0 0 1 2.325.745l4.914 3.51a4 4 0 0 0 2.325.745H40.5a3 3 0 0 1 3 3v20a3 3 0 0 1-3 3h-33a3 3 0 0 1-3-3v-25Z" style="fill:none;stroke:#fff;stroke-linecap:round;stroke-linejoin:round"/><g transform="matrix(2.18465 0 0 2.18465 -294.959 -35.952)" style="stroke-width:.45773941;stroke-dasharray:none"><circle class="cls-2" cx="146" cy="27.3" r="2.7" style="fill:none;stroke:#fff;stroke-linecap:round;stroke-linejoin:round;stroke-width:.45773941;stroke-dasharray:none"/><path class="cls-2" d="M143.6 31.7c.4.6 1.1 1 2.2 1h.2c1.5 0 2.6-1.2 2.6-2.7v-2.7" style="fill:none;stroke:#fff;stroke-linecap:round;stroke-linejoin:round;stroke-width:.45773941;stroke-dasharray:none"/></g></svg>