<?xml version="1.0" encoding="UTF-8" standalone="no"?>
<svg
   viewBox="0 0 48 48"
   version="1.1"
   id="svg1"
   sodipodi:docname="fossify_keyboard.svg"
   inkscape:version="1.2.2 (b0a8486541, 2022-12-01)"
   xmlns:inkscape="http://www.inkscape.org/namespaces/inkscape"
   xmlns:sodipodi="http://sodipodi.sourceforge.net/DTD/sodipodi-0.dtd"
   xmlns="http://www.w3.org/2000/svg"
   xmlns:svg="http://www.w3.org/2000/svg">
  <sodipodi:namedview
     id="namedview1"
     pagecolor="#505050"
     bordercolor="#eeeeee"
     borderopacity="1"
     inkscape:showpageshadow="0"
     inkscape:pageopacity="0"
     inkscape:pagecheckerboard="0"
     inkscape:deskcolor="#505050"
     inkscape:zoom="17.8125"
     inkscape:cx="20.996491"
     inkscape:cy="24.02807"
     inkscape:window-width="1918"
     inkscape:window-height="1053"
     inkscape:window-x="0"
     inkscape:window-y="0"
     inkscape:window-maximized="1"
     inkscape:current-layer="svg1"
     showgrid="false" />
  <defs
     id="defs1">
    <style
       id="style1">.a { fill:none;stroke:#fff;stroke-linecap:round;stroke-linejoin:round; }
</style>
  </defs>
  <g
     id="g21120">
    <g
       id="g21104">
      <path
         style="fill:none;stroke:#ffffff;stroke-width:1;stroke-linecap:round;stroke-linejoin:round;stroke-opacity:1;stop-color:#000000"
         d="M 6.6726329,11.025796 H 41.327367 c 1.203639,0 2.172633,0.970047 2.172633,2.174994 v 21.59842 c 0,1.204947 -0.968994,2.174994 -2.172633,2.174994 H 6.6726329 C 5.4689943,36.974204 4.5,36.004157 4.5,34.79921 V 13.20079 c 0,-1.204947 0.9689943,-2.174994 2.1726329,-2.174994 z"
         id="path21052" />
      <path
         style="fill:none;stroke:#ffffff;stroke-width:1;stroke-linecap:round;stroke-linejoin:round;stroke-opacity:1;stop-color:#000000"
         d="M 17.194235,30.425106 H 30.805759"
         id="path20323" />
    </g>
    <g
       id="g21100">
      <path
         style="stroke-width:1;stroke-linecap:round;stroke-linejoin:round;stroke-opacity:0;stop-color:#000000;fill:#ffffff;fill-opacity:1"
         d="m 11.830847,17.491951 a 0.81473738,0.81562269 0 0 1 -0.814738,0.815623 0.81473738,0.81562269 0 0 1 -0.814737,-0.815623 0.81473738,0.81562269 0 0 1 0.814737,-0.815623 0.81473738,0.81562269 0 0 1 0.814738,0.815623 z"
         id="path21072" />
      <path
         style="stroke-width:1;stroke-linecap:round;stroke-linejoin:round;stroke-opacity:0;stop-color:#000000;fill:#ffffff;fill-opacity:1"
         d="m 37.808878,17.491951 a 0.81473738,0.81562269 0 0 1 -0.814737,0.815623 0.81473738,0.81562269 0 0 1 -0.814738,-0.815623 0.81473738,0.81562269 0 0 1 0.814738,-0.815623 0.81473738,0.81562269 0 0 1 0.814737,0.815623 z"
         id="path21070" />
      <path
         style="stroke-width:1;stroke-linecap:round;stroke-linejoin:round;stroke-opacity:0;stop-color:#000000;fill:#ffffff;fill-opacity:1"
         d="m 18.325354,17.491951 a 0.81473738,0.81562269 0 0 1 -0.814738,0.815623 0.81473738,0.81562269 0 0 1 -0.814737,-0.815623 0.81473738,0.81562269 0 0 1 0.814737,-0.815623 0.81473738,0.81562269 0 0 1 0.814738,0.815623 z"
         id="path21068" />
      <path
         style="stroke-width:1;stroke-linecap:round;stroke-linejoin:round;stroke-opacity:0;stop-color:#000000;fill:#ffffff;fill-opacity:1"
         d="m 24.819864,17.491951 a 0.81473738,0.81562269 0 0 1 -0.814737,0.815623 0.81473738,0.81562269 0 0 1 -0.814737,-0.815623 0.81473738,0.81562269 0 0 1 0.814737,-0.815623 0.81473738,0.81562269 0 0 1 0.814737,0.815623 z"
         id="path21066" />
      <path
         style="stroke-width:1;stroke-linecap:round;stroke-linejoin:round;stroke-opacity:0;stop-color:#000000;fill:#ffffff;fill-opacity:1"
         d="m 31.314365,17.491951 a 0.81473738,0.81562269 0 0 1 -0.814737,0.815623 0.81473738,0.81562269 0 0 1 -0.814737,-0.815623 0.81473738,0.81562269 0 0 1 0.814737,-0.815623 0.81473738,0.81562269 0 0 1 0.814737,0.815623 z"
         id="path21064" />
      <path
         style="stroke-width:1;stroke-linecap:round;stroke-linejoin:round;stroke-opacity:0;stop-color:#000000;fill:#ffffff;fill-opacity:1"
         d="m 11.830847,23.970104 a 0.81473738,0.81562269 0 0 1 -0.814738,0.815623 0.81473738,0.81562269 0 0 1 -0.814737,-0.815623 0.81473738,0.81562269 0 0 1 0.814737,-0.815622 0.81473738,0.81562269 0 0 1 0.814738,0.815622 z"
         id="path21062" />
      <path
         style="stroke-width:1;stroke-linecap:round;stroke-linejoin:round;stroke-opacity:0;stop-color:#000000;fill:#ffffff;fill-opacity:1"
         d="m 37.808878,23.970104 a 0.81473738,0.81562269 0 0 1 -0.814737,0.815623 0.81473738,0.81562269 0 0 1 -0.814738,-0.815623 0.81473738,0.81562269 0 0 1 0.814738,-0.815622 0.81473738,0.81562269 0 0 1 0.814737,0.815622 z"
         id="path21060" />
      <path
         style="stroke-width:1;stroke-linecap:round;stroke-linejoin:round;stroke-opacity:0;stop-color:#000000;fill:#ffffff;fill-opacity:1"
         d="m 18.325354,23.970104 a 0.81473738,0.81562269 0 0 1 -0.814738,0.815623 0.81473738,0.81562269 0 0 1 -0.814737,-0.815623 0.81473738,0.81562269 0 0 1 0.814737,-0.815622 0.81473738,0.81562269 0 0 1 0.814738,0.815622 z"
         id="path21058" />
      <path
         style="stroke-width:1;stroke-linecap:round;stroke-linejoin:round;stroke-opacity:0;stop-color:#000000;fill:#ffffff;fill-opacity:1"
         d="m 24.819864,23.970104 a 0.81473738,0.81562269 0 0 1 -0.814737,0.815623 0.81473738,0.81562269 0 0 1 -0.814737,-0.815623 0.81473738,0.81562269 0 0 1 0.814737,-0.815622 0.81473738,0.81562269 0 0 1 0.814737,0.815622 z"
         id="path21056" />
      <path
         style="stroke-width:1;stroke-linecap:round;stroke-linejoin:round;stroke-opacity:0;stop-color:#000000;fill:#ffffff;fill-opacity:1"
         d="m 31.314365,23.970104 a 0.81473738,0.81562269 0 0 1 -0.814737,0.815623 0.81473738,0.81562269 0 0 1 -0.814737,-0.815623 0.81473738,0.81562269 0 0 1 0.814737,-0.815622 0.81473738,0.81562269 0 0 1 0.814737,0.815622 z"
         id="circle20395" />
    </g>
  </g>
</svg>
