<?xml version="1.0" encoding="UTF-8" standalone="no"?>
<svg
   viewBox="0 0 48 48"
   version="1.1"
   id="svg1"
   sodipodi:docname="launcher_alt_2.svg"
   inkscape:version="1.2.2 (b0a8486541, 2022-12-01)"
   xmlns:inkscape="http://www.inkscape.org/namespaces/inkscape"
   xmlns:sodipodi="http://sodipodi.sourceforge.net/DTD/sodipodi-0.dtd"
   xmlns="http://www.w3.org/2000/svg"
   xmlns:svg="http://www.w3.org/2000/svg">
  <sodipodi:namedview
     id="namedview1"
     pagecolor="#505050"
     bordercolor="#eeeeee"
     borderopacity="1"
     inkscape:showpageshadow="0"
     inkscape:pageopacity="0"
     inkscape:pagecheckerboard="0"
     inkscape:deskcolor="#505050"
     inkscape:zoom="17.8125"
     inkscape:cx="20.996491"
     inkscape:cy="24.02807"
     inkscape:window-width="1918"
     inkscape:window-height="1053"
     inkscape:window-x="0"
     inkscape:window-y="0"
     inkscape:window-maximized="1"
     inkscape:current-layer="svg1"
     showgrid="false" />
  <defs
     id="defs1">
    <style
       id="style1">.a { fill:none;stroke:#fff;stroke-linecap:round;stroke-linejoin:round; }
</style>
  </defs>
  <g
     id="g12589">
    <path
       style="fill:none;stroke:#ffffff;stroke-width:1;stroke-linecap:round;stroke-linejoin:round;stroke-opacity:1;stop-color:#000000"
       d="m 20.63652,31.158287 -0.4026,3.837984 c -0.211984,2.020815 -1.636712,3.667674 -3.669758,3.667674 H 14.33516 c -2.033046,0 -3.669758,-1.635784 -3.669758,-3.667674 V 18.769559"
       id="path12572" />
    <path
       style="fill:none;stroke:#ffffff;stroke-width:1;stroke-linecap:round;stroke-linejoin:round;stroke-opacity:1;stop-color:#000000"
       d="m 27.901778,31.10501 c 0,-1.713935 -0.449408,-3.641035 -3.632629,-3.641035 -3.183221,0 -3.452499,1.977167 -3.632629,3.694312"
       id="path12570" />
    <path
       style="fill:none;stroke:#ffffff;stroke-width:1;stroke-linecap:round;stroke-linejoin:round;stroke-opacity:1;stop-color:#000000"
       d="m 37.470288,18.875218 v 16.121053 c 0,2.03189 -1.636712,3.667674 -3.669758,3.667674 h -2.228994 c -2.033045,0 -3.669758,-1.635784 -3.669758,-3.667674 V 31.10501"
       id="path12568" />
  </g>
  <path
     style="fill:none;stroke:#ffffff;stroke-width:1;stroke-linecap:round;stroke-linejoin:round;stroke-opacity:1;stop-color:#000000"
     d="m 20.143737,19.589331 c 0.209707,-1.807529 1.873255,-3.178839 3.856264,-3.178839 1.983173,0 3.646794,1.371527 3.85631,3.179225 z"
     id="path12566" />
  <g
     id="g12593">
    <path
       style="fill:none;stroke:#ffffff;stroke-width:1;stroke-linecap:round;stroke-linejoin:round;stroke-opacity:1;stop-color:#000000"
       d="M 5.4999975,22.767421 22.114093,9.9129557 c 0.994174,-0.7692013 2.77764,-0.7692013 3.771815,0 L 42.500002,22.767421"
       id="path12574" />
    <path
       style="fill:none;stroke:#ffffff;stroke-width:1;stroke-linecap:round;stroke-linejoin:round;stroke-opacity:1;stop-color:#000000"
       d="M 34.487076,10.422474 V 16.56641"
       id="path10560" />
  </g>
</svg>
