<?xml version="1.0" encoding="UTF-8"?><svg id="a" xmlns="http://www.w3.org/2000/svg" viewBox="0 0 48 48"><defs><style>.e{fill:none;stroke:#fff;stroke-linecap:round;stroke-linejoin:round;}</style></defs><path id="b" class="e" d="M25.57406194,35.91669727l-7.34592056,1.80247879c-.49118614.12053299-1.41566277.27730179-1.91833878-.22795486-.5026741-.50525665-.34669685-1.43447876-.22678947-1.92818832l1.79327202-7.38363647,7.69777679,7.73730087Z"/><path id="c" class="e" d="M17.87628515,28.17939831l17.04566002-17.13318348c1.17643738-1.18248081,3.07063293-1.18248081,4.2470665,0l3.4507103,3.4684248c1.17643738,1.18247986,1.17643738,3.08639717,0,4.26887703l-17.04566002,17.13318062"/><path id="d" class="e" d="M11.70755155,15.85637356c3.31531143.68217278,6.35061455,1.76283646,5.82542419,5.08124352-.52519226,3.31840897-2.99289989,2.76495552-6.74510384,3.28059769-3.75220585.51564026-6.00246859,2.2221508-6.23793077,4.64286804-.23546219,2.42071915.11710501,4.971035,5.62934256,5.66294479"/></svg>