<?xml version="1.0" encoding="UTF-8" standalone="no"?>
<svg
   viewBox="0 0 48 48"
   version="1.1"
   id="svg1"
   sodipodi:docname="camera_alt.svg"
   inkscape:version="1.2.2 (b0a8486541, 2022-12-01)"
   xmlns:inkscape="http://www.inkscape.org/namespaces/inkscape"
   xmlns:sodipodi="http://sodipodi.sourceforge.net/DTD/sodipodi-0.dtd"
   xmlns="http://www.w3.org/2000/svg"
   xmlns:svg="http://www.w3.org/2000/svg">
  <sodipodi:namedview
     id="namedview1"
     pagecolor="#505050"
     bordercolor="#eeeeee"
     borderopacity="1"
     inkscape:showpageshadow="0"
     inkscape:pageopacity="0"
     inkscape:pagecheckerboard="0"
     inkscape:deskcolor="#505050"
     inkscape:zoom="8.90625"
     inkscape:cx="-6.6245614"
     inkscape:cy="27.845614"
     inkscape:window-width="1918"
     inkscape:window-height="1053"
     inkscape:window-x="0"
     inkscape:window-y="0"
     inkscape:window-maximized="1"
     inkscape:current-layer="svg1"
     showgrid="false" />
  <defs
     id="defs1">
    <style
       id="style1">.a { fill:none;stroke:#fff;stroke-linecap:round;stroke-linejoin:round; }
</style>
  </defs>
  <path
     style="display:inline;fill:none;stroke:#ffffff;stroke-width:1;stroke-linecap:round;stroke-linejoin:round;stroke-opacity:1;stop-color:#000000"
     d="m 45.499975,23.999994 c 2e-6,11.874124 -9.625866,21.500011 -21.499973,21.500012 C 12.125894,45.500009 2.5000218,35.874127 2.5000252,23.999993 2.5000323,12.125873 12.125895,2.4999957 24.000003,2.4999937 35.87411,2.4999916 45.499974,12.125869 45.499975,23.999994 v 0"
     id="path20256" />
  <path
     style="display:inline;fill:none;stroke:#ffffff;stroke-width:1;stroke-linecap:round;stroke-linejoin:round;stroke-opacity:1;stop-color:#000000"
     d="m 44.708847,18.203149 -13.816269,4e-6 -4.804195,0.01284 c -1.896507,0.0051 -3.380919,-1.647937 -3.403243,-3.543445"
     id="path20254" />
  <path
     style="display:inline;fill:none;stroke:#ffffff;stroke-width:1;stroke-linecap:round;stroke-linejoin:round;stroke-opacity:1;stop-color:#000000"
     d="m 29.33438,3.1674764 -6.9094,11.9673266 -2.386392,4.159266 c -0.944587,1.646273 -3.116931,2.110155 -4.771589,1.182135"
     id="path20252" />
  <path
     style="display:inline;fill:none;stroke:#ffffff;stroke-width:1;stroke-linecap:round;stroke-linejoin:round;stroke-opacity:1;stop-color:#000000"
     d="m 8.6257684,8.9643212 6.9740266,12.0792768 2.464099,4.265629 c 0.898108,1.554725 0.06486,3.56985 -1.477536,4.489244"
     id="path20250" />
  <path
     style="display:inline;fill:none;stroke:#ffffff;stroke-width:1;stroke-linecap:round;stroke-linejoin:round;stroke-opacity:1;stop-color:#000000"
     d="m 31.421352,18.196994 c -1.632915,0.967883 -2.317196,3.081096 -1.365435,4.724009 l 4.514712,7.793244 4.804405,8.321434"
     id="path20248" />
  <path
     style="display:inline;fill:none;stroke:#ffffff;stroke-width:1;stroke-linecap:round;stroke-linejoin:round;stroke-opacity:1;stop-color:#000000"
     d="m 32.734706,27.524745 c -1.65239,-0.927866 -3.825803,-0.469312 -4.76842,1.173916 l -2.325739,4.054413 -6.974025,12.079463"
     id="path20246" />
  <path
     style="display:inline;fill:none;stroke:#ffffff;stroke-width:1;stroke-linecap:round;stroke-linejoin:round;stroke-opacity:1;stop-color:#000000"
     d="m 25.314837,33.324013 c -0.02291,-1.796485 -1.351011,-3.528749 -3.147209,-3.528324 l -4.921833,0.0011 -13.9538107,7e-6"
     id="path18874" />
</svg>
