<?xml version="1.0" encoding="UTF-8" standalone="no"?>
<svg
   id="Layer_1"
   data-name="Layer 1"
   version="1.1"
   viewBox="0 0 48 48"
   sodipodi:docname="fpoho.svg"
   xml:space="preserve"
   inkscape:version="1.3.2 (091e20ef0f, 2023-11-25, custom)"
   xmlns:inkscape="http://www.inkscape.org/namespaces/inkscape"
   xmlns:sodipodi="http://sodipodi.sourceforge.net/DTD/sodipodi-0.dtd"
   xmlns="http://www.w3.org/2000/svg"
   xmlns:svg="http://www.w3.org/2000/svg"><sodipodi:namedview
     id="namedview1"
     pagecolor="#ffffff"
     bordercolor="#666666"
     borderopacity="1.0"
     inkscape:showpageshadow="2"
     inkscape:pageopacity="0.0"
     inkscape:pagecheckerboard="0"
     inkscape:deskcolor="#d1d1d1"
     inkscape:zoom="3.5542372"
     inkscape:cx="8.5813068"
     inkscape:cy="33.621841"
     inkscape:window-width="1920"
     inkscape:window-height="980"
     inkscape:window-x="0"
     inkscape:window-y="0"
     inkscape:window-maximized="1"
     inkscape:current-layer="Layer_1" /><defs
     id="defs1"><style
       id="style1">
      .cls-1 {
        fill: none;
        stroke: #fff;
        stroke-linecap: round;
        stroke-linejoin: round;
      }
    </style></defs><rect
     class="cls-1"
     x="5.5"
     y="5.5"
     width="37"
     height="37"
     rx="4"
     ry="4"
     id="rect1" /><path
     class="cls-2"
     d="m 17.184298,27.130261 c 0,0 1.387065,2.021885 4.161799,1.646583 3.035525,-0.410576 3.794403,-3.931509 3.794403,-3.931509"
     id="path2261"
     style="fill:none;stroke:#ffffff;stroke-linecap:round;stroke-linejoin:round"
     sodipodi:nodetypes="csc" /><g
     id="g2191"
     transform="matrix(1.009313,0,0,0.91937158,-97.68355,-35.698204)"
     style="stroke-width:1.03811;stroke-dasharray:none"><line
       class="cls-2"
       x1="124"
       y1="56.599998"
       x2="124"
       y2="64.699997"
       id="line2190"
       style="fill:none;stroke:#ffffff;stroke-width:1.03811;stroke-linecap:round;stroke-linejoin:round;stroke-dasharray:none" /><path
       class="cls-2"
       d="m 124,61.3 c 0,-1.1 0.9,-2 2,-2 v 0 c 1.1,0 2,0.9 2,2 v 3.3"
       id="path2191"
       style="fill:none;stroke:#ffffff;stroke-width:1.03811;stroke-linecap:round;stroke-linejoin:round;stroke-dasharray:none" /></g><g
     id="g2241"
     transform="matrix(0.99122779,0.17000544,-0.19133907,0.88070942,-174.84508,-67.842354)"
     style="stroke-width:1.05088;stroke-dasharray:none"><path
       class="cls-2"
       d="m 204,62.7 c 0,1.1 0.9,2 2,2 v 0 c 1.1,0 2,-0.9 2,-2 v -1.3 c 0,-1.1 -0.9,-2 -2,-2 v 0 c -1.1,0 -2,0.9 -2,2"
       id="path2241"
       style="fill:none;stroke:#ffffff;stroke-width:1.05088;stroke-linecap:round;stroke-linejoin:round;stroke-dasharray:none" /><line
       class="cls-2"
       x1="204"
       y1="59.299999"
       x2="204"
       y2="67.300003"
       id="line2241"
       style="fill:none;stroke:#ffffff;stroke-width:1.05088;stroke-linecap:round;stroke-linejoin:round;stroke-dasharray:none" /></g><g
     id="g2245"
     transform="matrix(1.3303998,-0.15743541,0.15743541,1.3303998,-139.33016,-44.266371)"
     style="stroke-width:0.746445;stroke-dasharray:none"><g
       id="g2"
       transform="translate(0.92104796,0.45866717)"
       style="stroke-width:0.746445;stroke-dasharray:none"><path
         class="cls-2"
         d="M 105.2,64.7 V 58 c 0,-0.8 0.6,-1.4 1.4,-1.4 v 0 c 0.7,0 1.1,0.2 1.4,0.6"
         id="path2245"
         style="fill:none;stroke:#ffffff;stroke-width:0.746445;stroke-linecap:round;stroke-linejoin:round;stroke-dasharray:none" /><line
         class="cls-2"
         x1="104"
         y1="59.299999"
         x2="106.8"
         y2="59.299999"
         id="line2245"
         style="fill:none;stroke:#ffffff;stroke-width:0.746445;stroke-linecap:round;stroke-linejoin:round;stroke-dasharray:none" /></g></g><path
     class="cls-2"
     d="m 21.392087,20.702748 c 0,-0.852744 0.924244,-1.550443 2.053873,-1.550443 1.129632,0 2.053876,0.697699 2.053876,1.550443 v 1.007788 c 0,0.852744 -0.924244,1.550443 -2.053876,1.550443 -1.129629,0 -2.053873,-0.697699 -2.053873,-1.550443 z"
     id="path2463"
     style="fill:none;stroke:#ffffff;stroke-width:1;stroke-linecap:round;stroke-linejoin:round;stroke-dasharray:none" /><path
     class="cls-2"
     d="m 33.444771,20.468319 c 0,-0.846697 0.924888,-1.53945 2.055303,-1.53945 1.130418,0 2.055306,0.692753 2.055306,1.53945 v 1.000642 c 0,0.846697 -0.924888,1.539449 -2.055306,1.539449 -1.130415,0 -2.055303,-0.692752 -2.055303,-1.539449 z"
     id="path2463-4"
     style="fill:none;stroke:#ffffff;stroke-width:1;stroke-linecap:round;stroke-linejoin:round;stroke-dasharray:none" /></svg>
