<svg xmlns="http://www.w3.org/2000/svg" xml:space="preserve" id="svg1" version="1.1" viewBox="0 0 48 48"><defs id="defs1"><style id="style1">.a{fill:none;stroke:#fff;stroke-linecap:round;stroke-linejoin:round}</style></defs><path id="path15" d="m36.197 26.743 4.932-1.96c.764-.304 1.371-1.227 1.371-2.049V7.74a1.957 1.957 0 0 0-1.961-1.961H7.46A1.957 1.957 0 0 0 5.5 7.74v14.994c0 .822.607 1.745 1.37 2.048l4.958 1.97" style="fill:none;fill-opacity:.261961;stroke:#fff;stroke-width:1;stroke-linecap:round;stroke-linejoin:round;stroke-opacity:1"/><path id="path14" d="M36.547 29.674A12.547 12.547 0 0 1 24 42.221a12.547 12.547 0 0 1-12.547-12.547A12.547 12.547 0 0 1 24 17.128a12.547 12.547 0 0 1 12.547 12.546Z" style="fill:none;fill-opacity:.261961;stroke:#fff;stroke-width:1;stroke-linecap:round;stroke-linejoin:round;stroke-opacity:1"/><path id="path13" d="M25.224 29.674A1.224 1.224 0 0 1 24 30.898a1.224 1.224 0 0 1-1.224-1.224A1.224 1.224 0 0 1 24 28.451a1.224 1.224 0 0 1 1.224 1.223z" style="fill:none;fill-opacity:.261961;stroke:#fff;stroke-width:1;stroke-linecap:round;stroke-linejoin:round;stroke-opacity:1"/><path id="path12" d="M27.539 24.288a.62.62 0 0 1-.62.62.62.62 0 0 1-.62-.62.62.62 0 0 1 .62-.62.62.62 0 0 1 .62.62z" style="fill:none;fill-opacity:.261961;stroke:#fff;stroke-width:1;stroke-linecap:round;stroke-linejoin:round;stroke-opacity:1"/><path id="path11" d="M20.066 30.653a.62.62 0 0 1-.62.62.62.62 0 0 1-.62-.62.62.62 0 0 1 .62-.62.62.62 0 0 1 .62.62z" style="fill:none;fill-opacity:.261961;stroke:#fff;stroke-width:1;stroke-linecap:round;stroke-linejoin:round;stroke-opacity:1"/><path id="path10" d="M21.984 33.399a.62.62 0 0 1-.62.62.62.62 0 0 1-.62-.62.62.62 0 0 1 .62-.62.62.62 0 0 1 .62.62z" style="fill:none;fill-opacity:.261961;stroke:#fff;stroke-width:1;stroke-linecap:round;stroke-linejoin:round;stroke-opacity:1"/><path id="path9" d="M8.375 18.376V8.32h4.579" style="fill:none;fill-opacity:.261961;stroke:#fff;stroke-width:1;stroke-linecap:round;stroke-linejoin:round;stroke-opacity:1"/><path id="path8" d="M14.994 12.611c1.627-.102 3.322-.176 5.057-.22" style="fill:none;fill-opacity:.261961;stroke:#fff;stroke-width:1;stroke-linecap:round;stroke-linejoin:round;stroke-opacity:1"/><path id="path7" d="M8.375 13.231a91.018 91.018 0 0 1 4.577-.475" style="fill:none;fill-opacity:.261961;stroke:#fff;stroke-width:1;stroke-linecap:round;stroke-linejoin:round;stroke-opacity:1"/><path id="path6" d="m8.356 13.234.019-.003" style="fill:none;fill-opacity:.261961;stroke:#fff;stroke-width:1;stroke-linecap:round;stroke-linejoin:round;stroke-opacity:1"/><path id="path5" d="M15.003 16.805V8.321h4.716l1.519 1.083v2.09l-1.3.985 1.3.985v2.714" style="fill:none;fill-opacity:.261961;stroke:#fff;stroke-width:1;stroke-linecap:round;stroke-linejoin:round;stroke-opacity:1"/><path id="path4" d="m30.454 16.453-2.19-8.132h-1.992l-2.164 7.784" style="fill:none;fill-opacity:.261961;stroke:#fff;stroke-width:1;stroke-linecap:round;stroke-linejoin:round;stroke-opacity:1"/><path id="path3" d="M24.663 14.11a24.333 2.936 0 0 1 5.183.085" style="fill:none;fill-opacity:.261961;stroke:#fff;stroke-width:1;stroke-linecap:round;stroke-linejoin:round;stroke-opacity:1"/><path id="path2" d="M37.543 13.064c.644.067 1.267.062 1.86.139l-.008 3.84-1.211.874a42.855 42.855 0 0 0-3.894-.901l-.996-1.455V9.142l1.141-.82h3.804l1.156 1.293v.533" style="fill:none;fill-opacity:.261961;stroke:#fff;stroke-width:1;stroke-linecap:round;stroke-linejoin:round;stroke-opacity:1"/><path id="path1" d="M33.93 29.674a9.93 9.93 0 0 1-9.93 9.93 9.93 9.93 0 0 1-9.93-9.93A9.93 9.93 0 0 1 24 19.745a9.93 9.93 0 0 1 9.93 9.93z" style="fill:none;fill-opacity:.261961;stroke:#fff;stroke-width:1;stroke-linecap:round;stroke-linejoin:round;stroke-opacity:1"/><path id="circle45" d="M29.53 29.674a5.53 5.53 0 0 1-5.53 5.53 5.53 5.53 0 0 1-5.53-5.53A5.53 5.53 0 0 1 24 24.145a5.53 5.53 0 0 1 5.53 5.53z" style="fill:none;fill-opacity:.261961;stroke:#fff;stroke-width:1;stroke-linecap:round;stroke-linejoin:round;stroke-opacity:1"/></svg>