<?xml version="1.0" encoding="UTF-8" standalone="no"?><svg viewBox="0 0 48 48" version="1.1" xmlns="http://www.w3.org/2000/svg"><defs><style>.c{fill:none;stroke:#fff;stroke-width:1px;stroke-linecap:round;stroke-linejoin:round;stroke-opacity:1}</style></defs><path class="c" d="m 19.484575,37.72597 c 0.08646,-11.405502 -2.798541,-19.708167 -3.963838,-23.164906 -1.20198,-3.565553 8.082435,-5.347114 15.462192,-7.7932162 2.619381,-0.868223 3.597298,4.4073312 1.888594,5.6772662 -3.739549,2.77929 -10.196244,1.230369 -12.697646,2.927892 -1.642075,1.114359 -0.989388,5.967868 0.826115,5.166522 3.62267,-1.599012 5.14562,-2.584116 8.308483,-2.263954 1.626267,0.16462 2.544364,1.963555 0.945909,3.154902 -3.245619,2.418998 -7.490141,0.462694 -9.070623,1.705765 -1.570139,1.234935 -0.36961,8.257714 2.365562,16.703126 0.749388,2.313891 -4.100247,2.569428 -4.064748,-2.113397 z"/></svg>
