<?xml version="1.0" encoding="UTF-8" standalone="no"?>
<svg
   id="b"
   viewBox="0 0 48 48"
   version="1.1"
   sodipodi:docname="fruitissimo.svg"
   inkscape:version="1.1.2 (0a00cf5339, 2022-02-04)"
   xmlns:inkscape="http://www.inkscape.org/namespaces/inkscape"
   xmlns:sodipodi="http://sodipodi.sourceforge.net/DTD/sodipodi-0.dtd"
   xmlns="http://www.w3.org/2000/svg"
   xmlns:svg="http://www.w3.org/2000/svg">
  <sodipodi:namedview
     id="namedview13"
     pagecolor="#ffffff"
     bordercolor="#666666"
     borderopacity="1.0"
     inkscape:pageshadow="2"
     inkscape:pageopacity="0.0"
     inkscape:pagecheckerboard="0"
     showgrid="false"
     inkscape:zoom="14.9375"
     inkscape:cx="24"
     inkscape:cy="24.033473"
     inkscape:window-width="1920"
     inkscape:window-height="1138"
     inkscape:window-x="0"
     inkscape:window-y="25"
     inkscape:window-maximized="1"
     inkscape:current-layer="b"
     inkscape:object-nodes="false" />
  <defs
     id="defs4">
    <style
       id="style2">.c{fill:none;stroke:#000;stroke-linecap:round;stroke-linejoin:round;}</style>
  </defs>
  <path
     style="fill:none;stroke:#ffffff;stroke-width:1px;stroke-linecap:round;stroke-linejoin:round;stroke-opacity:1"
     d="m 19.484575,37.72597 c 0.08646,-11.405502 -2.798541,-19.708167 -3.963838,-23.164906 -1.20198,-3.565553 8.082435,-5.347114 15.462192,-7.7932162 2.619381,-0.868223 3.597298,4.4073312 1.888594,5.6772662 -3.739549,2.77929 -10.196244,1.230369 -12.697646,2.927892 -1.642075,1.114359 -0.989388,5.967868 0.826115,5.166522 3.62267,-1.599012 5.14562,-2.584116 8.308483,-2.263954 1.626267,0.16462 2.544364,1.963555 0.945909,3.154902 -3.245619,2.418998 -7.490141,0.462694 -9.070623,1.705765 -1.570139,1.234935 -0.36961,8.257714 2.365562,16.703126 0.749388,2.313891 -4.100247,2.569428 -4.064748,-2.113397 z"
     id="path1564"
     sodipodi:nodetypes="sssssssssss" />
</svg>
