<?xml version="1.0" encoding="UTF-8"?><svg id="a" xmlns="http://www.w3.org/2000/svg" viewBox="0 0 48 48"><defs><style>.i{fill:none;stroke:#fff;stroke-linecap:round;stroke-linejoin:round;}</style></defs><path id="b" class="i" d="M39.2681,9.7335c1.8629,1.5686,3.0427,3.9199,3.0427,6.5567v17.6451c0,4.7448-3.8203,8.5646-8.5656,8.5646H14.2547c-4.7453,0-8.5656-3.8198-8.5656-8.5646v-17.6451c0-4.7448,3.8203-8.5646,8.5656-8.5646h16.4457"/><g id="c"><path id="d" class="i" d="M13.2085,20.2089h11.174"/><path id="e" class="i" d="M13.2085,31.3078h20.1403"/></g><g id="f"><path id="g" class="i" d="M25.9823,7.7248v-.0836c0-1.1862.9551-2.1411,2.1414-2.1411h.8324"/><path id="h" class="i" d="M28.5586,5.5h8.5646c1.1863,0,2.1414.9549,2.1414,2.1411v16.4368l-4.2894-2.4368-4.2762,2.4368V7.6411c0-1.1862-.9551-2.1411-2.1414-2.1411"/></g></svg>