<?xml version="1.0" encoding="UTF-8" standalone="no"?>
<svg
   viewBox="0 0 48 48"
   version="1.1"
   id="svg1"
   sodipodi:docname="fun_habit.svg"
   inkscape:version="1.2.2 (b0a8486541, 2022-12-01)"
   xml:space="preserve"
   xmlns:inkscape="http://www.inkscape.org/namespaces/inkscape"
   xmlns:sodipodi="http://sodipodi.sourceforge.net/DTD/sodipodi-0.dtd"
   xmlns="http://www.w3.org/2000/svg"
   xmlns:svg="http://www.w3.org/2000/svg"><sodipodi:namedview
     id="namedview1"
     pagecolor="#505050"
     bordercolor="#eeeeee"
     borderopacity="1"
     inkscape:showpageshadow="0"
     inkscape:pageopacity="0"
     inkscape:pagecheckerboard="0"
     inkscape:deskcolor="#505050"
     inkscape:zoom="7.5276739"
     inkscape:cx="3.1882359"
     inkscape:cy="21.387749"
     inkscape:window-width="1918"
     inkscape:window-height="1053"
     inkscape:window-x="0"
     inkscape:window-y="0"
     inkscape:window-maximized="1"
     inkscape:current-layer="svg1"
     showgrid="false" /><defs
     id="defs1"><style
       id="style1">.a { fill:none;stroke:#fff;stroke-linecap:round;stroke-linejoin:round; }
</style></defs><path
     style="fill:none;stroke:#ffffff;stroke-width:1;stroke-linecap:round;stroke-linejoin:round;stroke-dashoffset:3.6;stroke-opacity:1"
     d="m 39.268122,9.7335145 c 1.862851,1.5686495 3.042746,3.9198625 3.042746,6.5567505 V 33.935397 C 42.310868,38.680182 38.490607,42.5 33.74527,42.5 H 14.25473 C 9.509393,42.5 5.689132,38.680182 5.689132,33.935397 V 16.290265 c 0,-4.744784 3.820261,-8.5646015 8.565598,-8.5646015 v 0 h 16.445666"
     id="path17647" /><g
     id="g17664"><path
       style="fill:none;stroke:#ffffff;stroke-width:1;stroke-linecap:round;stroke-linejoin:round;stroke-dashoffset:3.6;stroke-opacity:1"
       d="M 13.208523,20.208859 H 24.382522"
       id="path17645" /><path
       style="fill:none;stroke:#ffffff;stroke-width:1;stroke-linecap:round;stroke-linejoin:round;stroke-dashoffset:3.6;stroke-opacity:1"
       d="M 13.208523,31.307784 H 33.34885"
       id="path17643" /></g><g
     id="g17660"><path
       style="fill:none;stroke:#ffffff;stroke-width:1;stroke-linecap:round;stroke-linejoin:round;stroke-dashoffset:3.6;stroke-opacity:1"
       d="m 25.982303,7.7247855 v -0.08363 c 0,-1.186193 0.955069,-2.141147 2.1414,-2.141147 h 0.832416"
       id="path17641" /><path
       style="fill:none;stroke:#ffffff;stroke-width:1;stroke-linecap:round;stroke-linejoin:round;stroke-dashoffset:3.6;stroke-opacity:1"
       d="m 28.558625,5.5000005 h 8.564641 c 1.186334,0 2.1414,0.95495 2.1414,2.141146 V 24.077979 l -4.289364,-2.436772 -4.276234,2.436772 V 7.6411465 c 0,-1.186197 -0.955064,-2.141146 -2.141399,-2.141146"
       id="path17580" /></g></svg>
