<?xml version="1.0" encoding="UTF-8"?><svg id="a" xmlns="http://www.w3.org/2000/svg" viewBox="0 0 48 48"><defs><style>.v{fill:none;stroke:#fff;stroke-linecap:round;stroke-linejoin:round;}.w{fill:#fff;stroke-width:0px;}</style></defs><path id="b" class="v" d="M36.4479,38.2767h-14.1514"/><g id="c"><g id="d"><g id="e"><g id="f"><path id="g" class="v" d="M21.9771,20.156c0,1.3742-1.1132,2.4883-2.4865,2.4883s-2.4865-1.114-2.4865-2.4883,1.1132-2.4883,2.4865-2.4883,2.4865,1.114,2.4865,2.4883Z"/><path id="h" class="v" d="M13.4278,19.8421c.6313-.932,1.6119-.7121,2.5865-.0351"/><path id="i" class="v" d="M14.0069,21.4091c.4552-.7862,1.2429-.7975,2.0856-.0023"/><path id="j" class="w" d="M21.2081,20.0746c0,.4142-.3358.75-.75.75s-.75-.3358-.75-.75.3358-.75.75-.75.75.3358.75.75Z"/></g><g id="k"><path id="l" class="w" d="M26.7925,20.0751c0,.4142.3358.75.75.75s.75-.3358.75-.75-.3358-.75-.75-.75-.75.3358-.75.75Z"/><path id="m" class="v" d="M26.0231,20.156c0,1.3742,1.1132,2.4883,2.4865,2.4883s2.4865-1.114,2.4865-2.4883-1.1132-2.4883-2.4865-2.4883-2.4865,1.114-2.4865,2.4883Z"/><path id="n" class="v" d="M34.5724,19.8421c-.6313-.932-1.6119-.7121-2.5865-.0351"/><path id="o" class="v" d="M33.9933,21.4091c-.4552-.7862-1.2429-.7975-2.0856-.0023"/></g><g id="p"><path id="q" class="v" d="M24.0001,25.2701c-1.8545,0-1.3698,1.3691,0,1.3691s1.8545-1.3691,0-1.3691Z"/><path id="r" class="v" d="M21.8376,28.0161c.4047.7917,1.9141.8139,2.1625-.5784.2483,1.3923,1.7578,1.37,2.1625.5784"/></g></g><path id="s" class="v" d="M17.0081,38.2767h-1.4212c-1.9545,0-3.5279-1.4884-3.5279-3.3372s1.5735-3.3372,3.5279-3.3372h0l20.8628.0029c2.5258-5.674,4.1167-12.8643-.2734-18.1321-.5939-3.4159-1.6949-7.8545-3.3088-7.9692-2.1425-.1523-3.274,4.1394-4.3771,6.6189-1.4912-.8202-2.682-.9565-4.4903-.9565s-2.9991.1363-4.4903.9565c-1.1031-2.4795-2.2347-6.7712-4.3771-6.6189-1.6139.1147-2.7149,4.5533-3.3088,7.9692-4.8364,5.8033-2.4139,13.94.5182,19.816"/></g><path id="t" class="v" d="M15.7161,34.9395h20.7318"/><path id="u" class="v" d="M17.0075,36.2474h3.9628v6.2527l-1.9814-1.2397-1.9814,1.2397v-6.2527Z"/></g></svg>