<?xml version="1.0" encoding="UTF-8" standalone="no"?>
<svg
   viewBox="0 0 48 48"
   version="1.1"
   id="svg1"
   sodipodi:docname="fun_print.svg"
   inkscape:version="1.2.2 (b0a8486541, 2022-12-01)"
   xml:space="preserve"
   xmlns:inkscape="http://www.inkscape.org/namespaces/inkscape"
   xmlns:sodipodi="http://sodipodi.sourceforge.net/DTD/sodipodi-0.dtd"
   xmlns="http://www.w3.org/2000/svg"
   xmlns:svg="http://www.w3.org/2000/svg"><sodipodi:namedview
     id="namedview1"
     pagecolor="#505050"
     bordercolor="#eeeeee"
     borderopacity="1"
     inkscape:showpageshadow="0"
     inkscape:pageopacity="0"
     inkscape:pagecheckerboard="0"
     inkscape:deskcolor="#505050"
     inkscape:zoom="17.8125"
     inkscape:cx="8.7578947"
     inkscape:cy="21.333333"
     inkscape:window-width="1918"
     inkscape:window-height="1053"
     inkscape:window-x="0"
     inkscape:window-y="0"
     inkscape:window-maximized="1"
     inkscape:current-layer="svg1"
     showgrid="false" /><defs
     id="defs1"><style
       id="style1">.a { fill:none;stroke:#fff;stroke-linecap:round;stroke-linejoin:round; }
</style></defs><path
     style="fill:none;stroke:#ffffff;stroke-width:1;stroke-linecap:round;stroke-linejoin:round;stroke-dashoffset:0.5;stroke-opacity:1"
     d="M 36.447518,38.276598 H 22.296075"
     id="path2488" /><g
     id="g24974"><g
       id="g24954"><g
         id="g24937"><g
           id="g24912"><path
             style="fill:none;stroke:#ffffff;stroke-width:1;stroke-linecap:round;stroke-linejoin:round;stroke-dashoffset:0.5;stroke-opacity:1"
             d="m 21.976727,20.155909 a 2.4864697,2.488297 0 0 1 -2.48647,2.488297 2.4864697,2.488297 0 0 1 -2.486469,-2.488297 2.4864697,2.488297 0 0 1 2.486469,-2.488297 2.4864697,2.488297 0 0 1 2.48647,2.488297 z"
             id="path2506" /><path
             style="fill:none;stroke:#ffffff;stroke-width:1;stroke-linecap:round;stroke-linejoin:round;stroke-dashoffset:0.5;stroke-opacity:1"
             d="m 13.427412,19.842002 c 0.631265,-0.93198 1.611883,-0.712051 2.586514,-0.0351"
             id="path24783" /><path
             style="fill:none;stroke:#ffffff;stroke-width:1;stroke-linecap:round;stroke-linejoin:round;stroke-dashoffset:0.5;stroke-opacity:1"
             d="m 14.006576,21.408987 c 0.455177,-0.786186 1.242929,-0.797471 2.08557,-0.0023"
             id="path2502" /><path
             style="fill:#ffffff;stroke-width:1;stroke-linecap:round;stroke-linejoin:round;stroke-dasharray:none;stroke-dashoffset:0.5;stroke-opacity:0"
             d="m 21.207803,20.074539 a 0.75,0.75 0 0 1 -0.75,0.75 0.75,0.75 0 0 1 -0.75,-0.75 0.75,0.75 0 0 1 0.75,-0.75 0.75,0.75 0 0 1 0.75,0.75 z"
             id="path24864" /></g><g
           id="g24918"><path
             style="fill:#ffffff;stroke-width:1;stroke-linecap:round;stroke-linejoin:round;stroke-dasharray:none;stroke-dashoffset:0.5;stroke-opacity:0"
             d="m 26.792196,20.075 a 0.75,0.75 0 0 0 0.75,0.75 0.75,0.75 0 0 0 0.75,-0.75 0.75,0.75 0 0 0 -0.75,-0.75 0.75,0.75 0 0 0 -0.75,0.75 z"
             id="circle2162" /><path
             style="fill:none;stroke:#ffffff;stroke-width:1;stroke-linecap:round;stroke-linejoin:round;stroke-dashoffset:0.5;stroke-opacity:1"
             d="m 26.022766,20.155909 a 2.4864697,2.488297 0 0 0 2.486469,2.488297 2.4864697,2.488297 0 0 0 2.48647,-2.488297 2.4864697,2.488297 0 0 0 -2.48647,-2.488297 2.4864697,2.488297 0 0 0 -2.486469,2.488297 z"
             id="path2500" /><path
             style="fill:none;stroke:#ffffff;stroke-width:1;stroke-linecap:round;stroke-linejoin:round;stroke-dashoffset:0.5;stroke-opacity:1"
             d="m 34.572081,19.842002 c -0.631265,-0.93198 -1.611883,-0.712051 -2.586514,-0.0351"
             id="path24806" /><path
             style="fill:none;stroke:#ffffff;stroke-width:1;stroke-linecap:round;stroke-linejoin:round;stroke-dashoffset:0.5;stroke-opacity:1"
             d="m 33.992917,21.408987 c -0.455177,-0.786186 -1.242929,-0.797471 -2.08557,-0.0023"
             id="path2496" /></g><g
           id="g24922"><path
             style="fill:none;stroke:#ffffff;stroke-width:1;stroke-linecap:round;stroke-linejoin:round;stroke-dashoffset:0.5;stroke-opacity:1"
             d="m 23.999747,25.269973 c -1.854467,0 -1.369808,1.369117 0,1.369117 1.369807,0 1.854466,-1.369117 0,-1.369117 z"
             id="path2494" /><path
             style="fill:none;stroke:#ffffff;stroke-width:1;stroke-linecap:round;stroke-linejoin:round;stroke-dashoffset:0.5;stroke-opacity:1"
             d="m 21.837263,28.016025 c 0.40471,0.791655 1.914138,0.813889 2.162484,-0.578385 0.248345,1.392274 1.757773,1.37004 2.162483,0.578385"
             id="path2492" /></g></g><path
         style="fill:none;stroke:#ffffff;stroke-width:1;stroke-linecap:round;stroke-linejoin:round;stroke-dashoffset:0.5;stroke-opacity:1"
         d="m 17.007728,38.276598 h -1.421162 c -1.954474,0 -3.527938,-1.488405 -3.527938,-3.337224 0,-1.848818 1.573464,-3.337224 3.527938,-3.337224 v 0 l 20.862815,0.0029 C 38.975188,25.931079 40.566054,18.740716 36.175999,13.472939 35.582096,10.057041 34.481115,5.6184749 32.867195,5.5037388 30.724719,5.3514271 29.593174,9.6431484 28.490045,12.122649 26.998891,11.30241 25.808039,11.166112 23.999747,11.166112 c -1.808293,0 -2.999145,0.136298 -4.490299,0.956537 -1.103129,-2.4795006 -2.234674,-6.7712219 -4.37715,-6.6189102 -1.61392,0.1147361 -2.714901,4.5533022 -3.308804,7.9692002 -4.8363694,5.803325 -2.4138985,13.940023 0.518176,19.815996"
         id="path2490" /></g><path
       style="fill:none;stroke:#ffffff;stroke-width:1;stroke-linecap:round;stroke-linejoin:round;stroke-dashoffset:0.5;stroke-opacity:1"
       d="M 15.715745,34.939374 H 36.447518"
       id="path2486" /><path
       style="fill:none;stroke:#ffffff;stroke-width:1;stroke-linecap:round;stroke-linejoin:round;stroke-dashoffset:0.5;stroke-opacity:1"
       d="m 17.007172,36.247297 h 3.962794 v 6.252743 l -1.981397,-1.239694 -1.981397,1.239694 z"
       id="rect2339" /></g></svg>
