<svg xmlns="http://www.w3.org/2000/svg" xml:space="preserve" id="svg1" version="1.1" viewBox="0 0 48 48"><defs id="defs1"><style id="style1">.a{fill:none;stroke:#fff;stroke-linecap:round;stroke-linejoin:round}</style></defs><path id="path22" d="m18.659 20.65 3.959 2.781-5.415 2.605m14.528.136-3.959-2.782 5.415-2.605m-22.226 2.604h11.657M33.073 5.5l-3.96 14.791M27.46 26.46 23.165 42.5l5.94.001c3.266 0 4.348-1.153 5.371-4.973v0l2.939-10.886c.472-1.748.357-2.007-.516-3.217h0v0m-8.995-.034h9.044m-.049.034c1.186-.712 1.884-1.972 2.183-3.09l2.479-9.264c.823-3.076 1.321-5.57-2.252-5.57h-23.56l-9.908 37" style="fill:none;stroke:#fff;stroke-width:1;stroke-linecap:round;stroke-linejoin:round;stroke-opacity:1"/></svg>