<?xml version="1.0" encoding="UTF-8" standalone="no"?>
<svg
   id="b"
   viewBox="0 0 48 48"
   version="1.1"
   width="48"
   height="48"
   xmlns="http://www.w3.org/2000/svg"
   xmlns:svg="http://www.w3.org/2000/svg">
  <defs
     id="defs1">
    <style
       id="style1">.c{fill:none;stroke:#fff;stroke-linecap:round;stroke-linejoin:round;}</style>
  </defs>
  <path
     class="c"
     d="m 9.4833,10.0915 h 2.9841 m -2.9871,4.59 V 5.5 h 4.5907"
     id="path1" />
  <path
     class="c"
     d="m 16.3698,5.5007 v 6.082 c 0,1.722 1.3767,3.1002 2.9841,3.1002 1.6074,0 2.9841,-1.3782 2.9841,-3.0994 V 5.5"
     id="path2" />
  <path
     class="c"
     d="m 24.4037,5.5 h 5.9674 m -2.9833,9.1814 V 5.5"
     id="path3" />
  <path
     class="c"
     d="m 35.421,14.6815 v 0 c -1.7212,0 -2.9841,-1.3767 -2.9841,-2.9841 V 8.598 c 0,-1.7205 1.3774,-3.0979 2.9841,-3.0979 v 0 c 1.7043,-0.007 3.0916,1.3689 3.0987,3.0732 0,0.0085 0,0.017 0,0.0255 v 2.9841 c 0.007,1.7043 -1.3689,3.0916 -3.0732,3.0987 -0.0085,0 -0.017,0 -0.0255,0 z"
     id="path4" />
  <path
     id="rect7"
     style="fill:none;stroke:#fefefe;stroke-width:0.999969;stroke-linecap:round;stroke-linejoin:round;stroke-miterlimit:3.4;paint-order:stroke fill markers"
     d="m 17.595941,25.914984 h 4.051165 c 0.749248,0 1.352433,0.603185 1.352433,1.352432 v 4.051643 c 0,0.749248 -0.603185,1.352433 -1.352433,1.352433 h -4.051165 c -0.749248,0 -1.352433,-0.603185 -1.352433,-1.352433 v -4.051643 c 0,-0.749247 0.603185,-1.352432 1.352433,-1.352432 z" />
  <path
     id="rect10"
     style="fill:none;stroke:#fefefe;stroke-linecap:round;stroke-linejoin:round;stroke-miterlimit:3.4;paint-order:stroke fill markers"
     d="m 17.59595,17.159189 h 4.051624 c 0.749244,0 1.352427,0.603182 1.352427,1.352427 v 4.051624 c 0,0.749244 -0.603183,1.352427 -1.352427,1.352427 H 17.59595 c -0.749244,0 -1.352427,-0.603183 -1.352427,-1.352427 v -4.051624 c 0,-0.749245 0.603183,-1.352427 1.352427,-1.352427 z" />
  <path
     id="rect12"
     style="fill:none;stroke:#fefefe;stroke-width:0.999969;stroke-linecap:round;stroke-linejoin:round;stroke-miterlimit:3.4;paint-order:stroke fill markers"
     d="m 26.35218,25.914984 h 4.051165 c 0.749248,0 1.352433,0.603185 1.352433,1.352432 v 4.051643 c 0,0.749248 -0.603185,1.352433 -1.352433,1.352433 H 26.35218 c -0.749248,0 -1.352433,-0.603185 -1.352433,-1.352433 v -4.051643 c 0,-0.749247 0.603185,-1.352432 1.352433,-1.352432 z" />
  <path
     id="rect13"
     style="fill:none;stroke:#fefefe;stroke-linecap:round;stroke-linejoin:round;stroke-miterlimit:3.4;paint-order:stroke fill markers"
     d="m 26.352189,17.159189 h 4.051624 c 0.749244,0 1.352427,0.603182 1.352427,1.352427 v 4.051624 c 0,0.749244 -0.603183,1.352427 -1.352427,1.352427 h -4.051624 c -0.749245,0 -1.352427,-0.603183 -1.352427,-1.352427 v -4.051624 c 0,-0.749245 0.603182,-1.352427 1.352427,-1.352427 z" />
  <path
     id="rect14"
     style="fill:none;stroke:#fefefe;stroke-width:0.999969;stroke-linecap:round;stroke-linejoin:round;stroke-miterlimit:3.4;paint-order:stroke fill markers"
     d="m 35.108178,25.914984 h 4.051166 c 0.749247,0 1.352432,0.603185 1.352432,1.352432 v 4.051643 c 0,0.749248 -0.603185,1.352433 -1.352432,1.352433 h -4.051166 c -0.749247,0 -1.352432,-0.603185 -1.352432,-1.352433 v -4.051643 c 0,-0.749247 0.603185,-1.352432 1.352432,-1.352432 z" />
  <path
     id="rect15"
     style="fill:none;stroke:#fefefe;stroke-linecap:round;stroke-linejoin:round;stroke-miterlimit:3.4;paint-order:stroke fill markers"
     d="m 35.108187,17.159189 h 4.051625 c 0.749244,0 1.352426,0.603182 1.352426,1.352427 v 4.051624 c 0,0.749244 -0.603182,1.352427 -1.352426,1.352427 h -4.051625 c -0.749244,0 -1.352426,-0.603183 -1.352426,-1.352427 v -4.051624 c 0,-0.749245 0.603182,-1.352427 1.352426,-1.352427 z" />
  <path
     id="rect16"
     style="fill:none;stroke:#fefefe;stroke-width:0.999969;stroke-linecap:round;stroke-linejoin:round;stroke-miterlimit:3.4;paint-order:stroke fill markers"
     d="m 8.8401798,25.914984 h 4.0511652 c 0.749248,0 1.352432,0.603185 1.352432,1.352432 v 4.051643 c 0,0.749248 -0.603184,1.352433 -1.352432,1.352433 H 8.8401798 c -0.749248,0 -1.352433,-0.603185 -1.352433,-1.352433 v -4.051643 c 0,-0.749247 0.603185,-1.352432 1.352433,-1.352432 z" />
  <path
     id="rect17"
     style="fill:none;stroke:#fefefe;stroke-linecap:round;stroke-linejoin:round;stroke-miterlimit:3.4;paint-order:stroke fill markers"
     d="m 8.8401888,17.159189 h 4.0516242 c 0.749244,0 1.352427,0.603182 1.352427,1.352427 v 4.051624 c 0,0.749244 -0.603183,1.352427 -1.352427,1.352427 H 8.8401888 c -0.749245,0 -1.352427,-0.603183 -1.352427,-1.352427 v -4.051624 c 0,-0.749245 0.603182,-1.352427 1.352427,-1.352427 z" />
  <path
     id="rect19"
     style="fill:none;stroke:#fefefe;stroke-linecap:round;stroke-linejoin:round;stroke-miterlimit:3.4;paint-order:stroke fill markers"
     d="m 15.001263,34.997578 h 17.997476 c 0.676814,0 1.221687,0.544872 1.221687,1.221687 v 3.659953 c 0,0.676814 -0.544873,1.221686 -1.221687,1.221686 H 15.001263 c -0.676814,0 -1.221687,-0.544872 -1.221687,-1.221686 v -3.659953 c 0,-0.676815 0.544873,-1.221687 1.221687,-1.221687 z" />
</svg>
