<?xml version="1.0" encoding="UTF-8" standalone="no"?>
<svg
   viewBox="0 0 48 48"
   version="1.1"
   id="svg1"
   sodipodi:docname="fwallet.svg"
   inkscape:version="1.3.2 (091e20ef0f, 2023-11-25, custom)"
   xml:space="preserve"
   xmlns:inkscape="http://www.inkscape.org/namespaces/inkscape"
   xmlns:sodipodi="http://sodipodi.sourceforge.net/DTD/sodipodi-0.dtd"
   xmlns="http://www.w3.org/2000/svg"
   xmlns:svg="http://www.w3.org/2000/svg"><sodipodi:namedview
     id="namedview1"
     pagecolor="#000000"
     bordercolor="#000000"
     borderopacity="0.25"
     inkscape:showpageshadow="2"
     inkscape:pageopacity="0.0"
     inkscape:pagecheckerboard="0"
     inkscape:deskcolor="#d1d1d1"
     inkscape:zoom="8.4895835"
     inkscape:cx="19.317791"
     inkscape:cy="22.203681"
     inkscape:window-width="1920"
     inkscape:window-height="1015"
     inkscape:window-x="0"
     inkscape:window-y="0"
     inkscape:window-maximized="1"
     inkscape:current-layer="svg1" /><defs
     id="defs1"><inkscape:path-effect
       effect="fillet_chamfer"
       id="path-effect3"
       is_visible="true"
       lpeversion="1"
       nodesatellites_param="F,0,0,1,0,4,0,1 @ F,0,0,1,0,4,0,1 @ F,0,0,1,0,4,0,1 @ F,0,0,1,0,4,0,1"
       radius="4"
       unit="px"
       method="auto"
       mode="F"
       chamfer_steps="1"
       flexible="false"
       use_knot_distance="true"
       apply_no_radius="true"
       apply_with_radius="true"
       only_selected="false"
       hide_knots="false" /><inkscape:path-effect
       effect="fillet_chamfer"
       id="path-effect2"
       is_visible="true"
       lpeversion="1"
       nodesatellites_param="F,0,0,1,0,4,0,1 @ F,0,0,1,0,4,0,1 @ F,0,0,1,0,4,0,1 @ F,0,0,1,0,4,0,1"
       radius="4"
       unit="px"
       method="auto"
       mode="F"
       chamfer_steps="1"
       flexible="false"
       use_knot_distance="true"
       apply_no_radius="true"
       apply_with_radius="true"
       only_selected="false"
       hide_knots="false" /><style
       id="style1">.a{fill:none;stroke:#fff;stroke-linecap:round;stroke-linejoin:round;}</style></defs><path
     id="path3"
     style="fill:none;stroke:#ffffff;stroke-width:1.33334;stroke-linecap:round;stroke-linejoin:round"
     d="M 40.76948,23.038648 30.521238,29.28699 7.2305203,23.089146 m 5.0345467,-5.949312 h 23.469865 a 5.0345464,5.5132164 0 0 1 5.034547,5.513216 v 8.215517 a 5.0345464,5.5132164 0 0 1 -5.034547,5.513216 H 12.265067 A 5.0345464,5.5132164 0 0 1 7.2305203,30.868567 V 22.65305 a 5.0345464,5.5132164 0 0 1 5.0345467,-5.513216 z m 0,-5.521617 h 23.469865 a 5.0345464,5.05236 0 0 1 5.034547,5.05236 v 14.658846 a 5.0345464,5.05236 0 0 1 -5.034547,5.05236 H 12.265067 A 5.0345464,5.05236 0 0 1 7.2305203,31.329423 V 16.670577 a 5.0345464,5.05236 0 0 1 5.0345467,-5.05236 z" /></svg>
