<svg xmlns="http://www.w3.org/2000/svg" xml:space="preserve" id="svg1" version="1.1" viewBox="0 0 48 48"><defs id="defs1"><style id="style1">.a{fill:none;stroke:#fff;stroke-linecap:round;stroke-linejoin:round}</style></defs><path id="path20" d="M11.252 14.017A16.163 16.163 0 0 1 24 7.809c5.02 0 9.705 2.324 12.746 6.207" style="display:inline;fill:none;stroke:#fff;stroke-width:1;stroke-linecap:round;stroke-linejoin:round;stroke-opacity:1"/><path id="path19" d="M42.282 20.345a20.122 26.338 85.261 0 0 1.467-4.926" style="display:inline;fill:none;stroke:#fff;stroke-width:1;stroke-linecap:round;stroke-linejoin:round;stroke-opacity:1"/><path id="path18" d="M45.5 24A21.5 21.5 0 0 1 24 45.5 21.5 21.5 0 0 1 2.5 24 21.5 21.5 0 0 1 24 2.5 21.5 21.5 0 0 1 45.5 24v0" style="display:inline;fill:none;stroke:#fff;stroke-width:1;stroke-linecap:round;stroke-linejoin:round;stroke-opacity:1"/><path id="path17" d="M9.504 27.911a7.412 7.412 0 0 1-1.402-.845 16.19 16.19 0 0 1-.284-2.538" style="display:inline;fill:none;stroke:#fff;stroke-width:1;stroke-linecap:round;stroke-linejoin:round;stroke-opacity:1"/><path id="path16" d="M38.541 25.719a20.122 26.338 85.261 0 0 1.05-1.176" style="display:inline;fill:none;stroke:#fff;stroke-width:1;stroke-linecap:round;stroke-linejoin:round;stroke-opacity:1"/><path id="path15" d="M4.105 32.029a20.122 26.338 85.261 0 0 5.398 1.687" style="display:inline;fill:none;stroke:#fff;stroke-width:1;stroke-linecap:round;stroke-linejoin:round;stroke-opacity:1"/><path id="path14" d="M28.111 15.166v8.214" style="display:inline;fill:none;stroke:#fff;stroke-width:1;stroke-linecap:round;stroke-linejoin:round;stroke-opacity:1"/><path id="path13" d="M33.553 15.166v8.214" style="display:inline;fill:none;stroke:#fff;stroke-width:1;stroke-linecap:round;stroke-linejoin:round;stroke-opacity:1"/><path id="path12" d="M28.111 19.258h5.442" style="display:inline;fill:none;stroke:#fff;stroke-width:1;stroke-linecap:round;stroke-linejoin:round;stroke-opacity:1"/><path id="path11" d="M26.23 20.625v.034a2.72 2.72 0 0 1-2.72 2.72v0a2.72 2.72 0 0 1-2.72-2.72v-2.772a2.72 2.72 0 0 1 2.72-2.72v0a2.72 2.72 0 0 1 2.72 2.72v.034" style="display:inline;fill:none;stroke:#fff;stroke-width:1;stroke-linecap:round;stroke-linejoin:round;stroke-opacity:1"/><path id="path10" d="M18.469 20.66h-3.64" style="display:inline;fill:none;stroke:#fff;stroke-width:1;stroke-linecap:round;stroke-linejoin:round;stroke-opacity:1"/><path id="path9" d="m13.929 23.38 2.72-8.214 2.721 8.214" style="display:inline;fill:none;stroke:#fff;stroke-width:1;stroke-linecap:round;stroke-linejoin:round;stroke-opacity:1"/><path id="path8" d="M40.031 20.66h-3.639" style="display:inline;fill:none;stroke:#fff;stroke-width:1;stroke-linecap:round;stroke-linejoin:round;stroke-opacity:1"/><path id="path7" d="m35.49 23.38 2.722-8.214 2.72 8.214" style="display:inline;fill:none;stroke:#fff;stroke-width:1;stroke-linecap:round;stroke-linejoin:round;stroke-opacity:1"/><path id="path5" d="M12.51 17.887a2.72 2.72 0 0 0-2.722-2.72v0a2.72 2.72 0 0 0-2.72 2.72v2.772a2.72 2.72 0 0 0 2.72 2.72v0a2.72 2.72 0 0 0 2.721-2.72H9.79" style="display:inline;fill:none;stroke:#fff;stroke-width:1;stroke-linecap:round;stroke-linejoin:round;stroke-opacity:1"/><path id="path4" d="M18.51 25.664v8.213h4.107" style="display:inline;fill:none;stroke:#fff;stroke-width:1;stroke-linecap:round;stroke-linejoin:round;stroke-opacity:1"/><path id="path3" d="M23.967 25.664v5.493a2.72 2.72 0 1 0 5.441 0v-5.493" style="display:inline;fill:none;stroke:#fff;stroke-width:1;stroke-linecap:round;stroke-linejoin:round;stroke-opacity:1"/><path id="path2" d="M34.819 29.77a2.053 2.053 0 1 1 0 4.107h-3.388v-8.213h3.388a2.053 2.053 0 1 1 0 4.107z" style="display:inline;fill:none;stroke:#fff;stroke-width:1;stroke-linecap:round;stroke-linejoin:round;stroke-opacity:1"/><path id="path1" d="M34.819 29.77h-3.388" style="display:inline;fill:none;stroke:#fff;stroke-width:1;stroke-linecap:round;stroke-linejoin:round;stroke-opacity:1"/><path id="path6" d="M16.57 31.123v.034a2.72 2.72 0 0 1-2.722 2.72v0a2.72 2.72 0 0 1-2.72-2.72v-2.772a2.72 2.72 0 0 1 2.72-2.721v0a2.72 2.72 0 0 1 2.721 2.72v.034" style="display:inline;fill:none;stroke:#fff;stroke-width:1;stroke-linecap:round;stroke-linejoin:round;stroke-opacity:1"/></svg>