<?xml version="1.0" encoding="UTF-8" standalone="no"?>
<svg
   viewBox="0 0 48 48"
   version="1.1"
   id="svg1"
   sodipodi:docname="galp.svg"
   xml:space="preserve"
   inkscape:version="1.4.1 (93de688d07, 2025-03-30)"
   xmlns:inkscape="http://www.inkscape.org/namespaces/inkscape"
   xmlns:sodipodi="http://sodipodi.sourceforge.net/DTD/sodipodi-0.dtd"
   xmlns="http://www.w3.org/2000/svg"
   xmlns:svg="http://www.w3.org/2000/svg"><sodipodi:namedview
     id="namedview1"
     pagecolor="#636363"
     bordercolor="#000000"
     borderopacity="0.25"
     inkscape:showpageshadow="2"
     inkscape:pageopacity="0.0"
     inkscape:pagecheckerboard="true"
     inkscape:deskcolor="#575757"
     inkscape:zoom="11.748233"
     inkscape:cx="32.472969"
     inkscape:cy="18.428304"
     inkscape:window-width="1890"
     inkscape:window-height="1126"
     inkscape:window-x="15"
     inkscape:window-y="59"
     inkscape:window-maximized="1"
     inkscape:current-layer="svg1" /><defs
     id="defs1"><style
       id="style1">.a{fill:none;stroke:#fff;stroke-linecap:round;stroke-linejoin:round;}</style></defs><path
     style="display:inline;fill:#000000;fill-opacity:0;stroke:#ffffff;stroke-opacity:1"
     d="M 23.133719,44.886921 C 14.086775,43.620254 3.2737081,32.313426 3.2737081,24.120036 c 0,-8.594706 12.1238769,-20.718582 20.7185819,-20.718582 9.479447,0 22.436556,14.208512 20.616305,22.607438 -1.978131,9.127409 -14.224766,19.893121 -21.474876,18.878029 z m -0.05724,-7.034973 c -2.063551,-0.320153 -2.552642,-0.684818 -7.341963,-5.474139 -7.6918299,-7.69183 -7.6912654,-8.782614 0.0085,-16.499414 4.753592,-4.764085 4.128414,-4.438005 5.602985,-2.922399 2.329173,2.393988 2.280872,3.291299 -0.320237,5.949255 -4.229402,4.321836 -3.570433,9.318771 1.421059,10.775814 5.907195,1.724343 10.317546,-7.39783 4.962327,-10.263857 -0.295961,-0.158393 -2.417944,1.852198 -2.362601,2.238577 0.04905,0.34245 0.454604,0.346529 0.772848,0.0078 1.078127,-1.147614 2.309429,2.15314 1.475198,3.954567 -1.634833,3.530236 -6.891283,2.388942 -6.902788,-1.498751 -0.0044,-1.488151 0.03382,-1.538217 4.850307,-6.352766 5.107436,-5.105383 3.996585,-4.955194 7.863438,-1.063152 6.714559,6.758299 6.636871,8.179543 -0.856733,15.673147 -5.315152,5.315151 -6.323853,5.917283 -9.172378,5.475344 z"
     id="path1"
     sodipodi:nodetypes="ssssscscssssscssssscc" /></svg>
