<?xml version="1.0" encoding="UTF-8"?><svg id="b" xmlns="http://www.w3.org/2000/svg" viewBox="0 0 48 48"><defs><style>.d{fill:none;stroke:#fff;stroke-linecap:round;stroke-linejoin:round;}</style></defs><circle class="d" cx="15.7751" cy="24" r="1.89"/><circle class="d" cx="23.8957" cy="24" r="1.2483"/><path class="d" d="M15.7751,35.2751c-6.2172,0-11.2751-5.0579-11.2751-11.2751s5.0579-11.2751,11.2751-11.2751c1.7237,0,3.1208,1.397,3.1208,3.1208s-1.397,3.1208-3.1208,3.1208c-2.7758,0-5.0335,2.2577-5.0335,5.0335s2.2577,5.0335,5.0335,5.0335,5.0347-2.2577,5.0347-5.0335c0-1.7237,1.397-3.1208,3.1208-3.1208s3.1208,1.397,3.1208,3.1208c0,6.2172-5.0591,11.2751-11.2763,11.2751Z"/><circle class="d" cx="32.1549" cy="15.8457" r="3.1208"/><circle class="d" cx="32.1549" cy="32.1543" r="3.1208"/><circle class="d" cx="40.3792" cy="24" r="3.1208"/><path class="d" d="M35.2757,15.6888v8.9768"/><path class="d" d="M29.0341,31.9974v-8.5369"/><path class="d" d="M42.5761,26.2162l-8.225,8.1543"/><path class="d" d="M29.9576,29.938l8.225-8.1543"/><path class="d" d="M21.7652,21.7529l8.1656-8.0978"/><path class="d" d="M34.3779,18.0364l-7.4385,7.5502"/><path class="d" d="M17.2889,22.7517h3.7834"/><path class="d" d="M20.6511,25.2483h-3.3623"/></svg>