<?xml version="1.0" encoding="UTF-8"?>
<svg version="1.1" viewBox="0 0 48 48" xmlns="http://www.w3.org/2000/svg">
 <defs>
  <style>.a {
        fill: none;
        stroke: #fff;
        stroke-linecap: round;
        stroke-linejoin: round;
      }</style>
 </defs>
 <path d="m12.675 37.174 2.2968-1.361 0.68053-23.903c0-0.85066 0.25387-1.1059 0.93572-1.1059h15.652c0.97825 0 1.4461 0.16916 1.4461 1.1059l0.76559 24.074 1.8714 1.1913z" class="a"/>
 <path d="m20.416 19.14c0 6.0404 8.6767 6.0396 8.6767 0" class="a"/>
 <path d="m14.977 32.656s-8.7632 1.092-6.8775-7.3808" class="a"/>
 <path d="m41.895 24.771c1.875 9-7.504 7.7911-7.504 7.7911" class="a"/>
 <path d="m39.92 22.628 3.125-0.9375" class="a"/>
 <path d="m41.389 22.159s-0.65508-3.6973-1.1053-5.6709c-0.1205-0.52826-0.22632-0.93303-0.30098-1.1103-0.15468-0.33146-2-1.625-2-1.625" class="a"/>
 <path d="m40.249 16.488s-3.2353-0.2009-2.5705 3.3603" class="a"/>
 <path d="m9.9559 13.576 1.5058 5.1057-3.5591-0.93169 1.4971 5.0988" class="a"/>
</svg>
