<?xml version="1.0" encoding="UTF-8" standalone="no"?>
<svg
   id="Layer_1"
   data-name="Layer 1"
   version="1.1"
   viewBox="0 0 48 48"
   sodipodi:docname="gbc.svg"
   inkscape:export-filename="gbc.png"
   inkscape:export-xdpi="1024"
   inkscape:export-ydpi="1024"
   inkscape:version="1.3.2 (091e20ef0f, 2023-11-25)"
   xmlns:inkscape="http://www.inkscape.org/namespaces/inkscape"
   xmlns:sodipodi="http://sodipodi.sourceforge.net/DTD/sodipodi-0.dtd"
   xmlns="http://www.w3.org/2000/svg"
   xmlns:svg="http://www.w3.org/2000/svg">
  <sodipodi:namedview
     id="namedview1"
     pagecolor="#505050"
     bordercolor="#ffffff"
     borderopacity="1"
     inkscape:showpageshadow="0"
     inkscape:pageopacity="0"
     inkscape:pagecheckerboard="1"
     inkscape:deskcolor="#505050"
     inkscape:zoom="16.8125"
     inkscape:cx="24"
     inkscape:cy="24"
     inkscape:window-width="1920"
     inkscape:window-height="1008"
     inkscape:window-x="0"
     inkscape:window-y="0"
     inkscape:window-maximized="1"
     inkscape:current-layer="Layer_1" />
  <defs
     id="defs1">
    <style
       id="style1">
      .cls-1 {
        fill: none;
        stroke: #fff;
        stroke-linecap: round;
        stroke-linejoin: round;
      }
    </style>
  </defs>
  <rect
     class="cls-1"
     x="2.950386"
     y="2.950386"
     width="42.099228"
     height="42.099228"
     rx="4.5512676"
     ry="4.5512676"
     id="rect1"
     style="stroke-width:0.900771;stroke-dasharray:none" />
  <path
     class="cls-2"
     d="m 18.328535,22.358225 c 0,-1.840428 -1.472342,-3.312771 -3.312771,-3.312771 v 0 c -1.840428,0 -3.312771,1.472343 -3.312771,3.312771 v 3.312771 c 0,1.840429 1.472343,3.190076 3.312771,3.190076 v 0 c 1.840429,0 3.312771,-1.472342 3.312771,-3.190076 h -3.312771"
     id="path2295"
     style="fill:none;stroke:#ffffff;stroke-width:1;stroke-linecap:round;stroke-linejoin:round;stroke-dasharray:none" />
  <g
     id="g2244"
     transform="matrix(1.1373657,0,0,1.2397194,-51.117556,-31.415457)"
     style="stroke-width:0.799646;stroke-dasharray:none">
    <path
       class="cls-2"
       d="m 66.7,44.7 c 1.1,0 2,0.9 2,2 0,1.1 -0.9,2 -2,2 h -3.3 v -8 h 3.3 c 1.1,0 2,0.9 2,2 0,1.1 -0.9,2 -2,2 z"
       id="path2244"
       style="fill:none;stroke:#ffffff;stroke-width:0.799646;stroke-linecap:round;stroke-linejoin:round;stroke-dasharray:none" />
    <line
       class="cls-2"
       x1="66.709579"
       y1="44.700001"
       x2="63.390419"
       y2="44.700001"
       id="line2244"
       style="fill:none;stroke:#ffffff;stroke-width:0.799646;stroke-linecap:round;stroke-linejoin:round;stroke-dasharray:none" />
  </g>
  <path
     class="cls-2"
     d="m 36.305546,25.566933 v 0 c 0,1.882008 -1.505606,3.387613 -3.387613,3.387613 v 0 c -1.882007,0 -3.387613,-1.505605 -3.387613,-3.262145 v -3.387613 c 0,-1.882008 1.505606,-3.387614 3.387613,-3.262146 v 0 c 1.882007,0 3.262146,1.505605 3.262146,3.262146 v 0"
     id="path2224"
     style="fill:none;stroke:#ffffff;stroke-width:1;stroke-linecap:round;stroke-linejoin:round;stroke-dasharray:none" />
</svg>
