<?xml version="1.0" encoding="UTF-8" standalone="no"?>
<!-- Created with Inkscape (http://www.inkscape.org/) -->

<svg
   width="48"
   height="48"
   viewBox="0 0 48 48"
   version="1.1"
   id="svg1"
   xml:space="preserve"
   xmlns="http://www.w3.org/2000/svg"
   xmlns:svg="http://www.w3.org/2000/svg"><defs
     id="defs1"><style
       id="style1">.a{fill:none;stroke:#fff;stroke-linecap:round;stroke-linejoin:round;}</style><style
       id="style1-0">.a{fill:none;stroke:#fff;stroke-linecap:round;stroke-linejoin:round;}</style><style
       id="style1-8">.a{fill:none;stroke:#fff;stroke-linecap:round;stroke-linejoin:round;}</style><style
       id="style1-5">.cls-1{fill:none;stroke:#fff;stroke-linecap:round;stroke-linejoin:round;}</style><style
       id="style1-53">.a{fill:none;stroke:#fff;stroke-linecap:round;stroke-linejoin:round;}</style></defs><g
     id="layer1"><path
       id="path2"
       style="display:inline;fill:none;stroke:#ffffff;stroke-width:1;stroke-linecap:round;stroke-linejoin:round;stroke-dasharray:none;paint-order:stroke fill markers"
       d="m 13.870523,27.037601 0,-6.162822 a 4.6205693,4.6205693 120.12077 0 1 2.327175,-4.011234 l 5.460207,-3.121835 a 4.688628,4.688628 180 0 1 4.65435,0 l 5.460208,3.121835 a 4.6205691,4.6205691 59.879224 0 1 2.327175,4.011234 v 6.162822 a 4.6586406,4.6586406 119.91711 0 1 -2.317657,4.027745 l -5.479244,3.184615 a 4.6122203,4.6122203 1.230517e-6 0 1 -4.635314,0 L 16.18818,31.065346 a 4.6586408,4.6586408 60.082887 0 1 -2.317657,-4.027745 z"
       transform="matrix(1.0895899,0,0,1.0895899,-2.4789347,-2.1500669)" /><path
       style="display:inline;fill:none;stroke:#ffffff;stroke-width:1;stroke-linecap:round;stroke-linejoin:round;stroke-dasharray:none;paint-order:stroke fill markers"
       d="m 32.887051,30.150307 6.387495,4.394281 a 1.2734754,1.2734754 168.77494 0 0 1.789519,-0.355148 l 0.199354,-0.306699 a 1.2929623,1.2929623 74.859847 0 0 -0.503207,-1.859786 l -6.781538,-3.410144"
       id="path3"
       transform="matrix(1.0895899,0,0,1.0895899,-2.4789347,-2.1500669)" /><path
       style="display:inline;fill:none;stroke:#ffffff;stroke-width:1;stroke-linecap:round;stroke-linejoin:round;stroke-dasharray:none;paint-order:stroke fill markers"
       d="m 26.72169,19.387831 1.572332,0.954306 a 2.2602835,2.2602835 60.627549 0 1 1.087537,1.932239 v 6.784308 l 0.478552,-0.326342 a 2.8832568,2.8832568 117.85424 0 0 1.258819,-2.382094 v -4.28911 a 3.6706481,3.6706481 59.456499 0 0 -1.89596,-3.213119 l -0.748534,-0.413435 z"
       id="path4"
       transform="matrix(1.0895899,0,0,1.0895899,-2.4789347,-2.1500669)" /><path
       id="path6"
       style="fill:none;stroke:#ffffff;stroke-width:1;stroke-linecap:round;stroke-linejoin:round;stroke-dasharray:none;paint-order:stroke fill markers"
       d="m 22.085982,16.812525 0.958121,-0.315513 a 3.0568957,3.0568957 0 0 1 1.91228,0 l 0.958121,0.315513 -1.914261,1.091622 z"
       transform="matrix(1.0895899,0,0,1.0895899,-2.4789347,-2.1500669)" /><path
       id="path8"
       style="fill:none;stroke:#ffffff;stroke-width:1;stroke-linecap:round;stroke-linejoin:round;stroke-dasharray:none;paint-order:stroke fill markers"
       d="m 21.440958,30.634619 v -7.289377 a 1.307422,1.307422 118.61565 0 1 0.599781,-1.099362 l 1.956013,-1.259052 1.956013,1.259052 a 1.307422,1.307422 61.384346 0 1 0.599781,1.099362 v 7.289377 l -1.38555,0.679309 a 2.6583229,2.6583229 0 0 1 -2.340488,0 z"
       transform="matrix(1.0895899,0,0,1.0895899,-2.4789347,-2.1500669)" /><path
       style="display:inline;fill:none;stroke:#ffffff;stroke-width:1;stroke-linecap:round;stroke-linejoin:round;stroke-dasharray:none;paint-order:stroke fill markers"
       d="m 26.72169,19.387831 1.572332,0.954306 a 2.2602835,2.2602835 60.627549 0 1 1.087537,1.932239 v 6.784308 l 0.478552,-0.326342 a 2.8832568,2.8832568 117.85424 0 0 1.258819,-2.382094 v -4.28911 a 3.6706481,3.6706481 59.456499 0 0 -1.89596,-3.213119 l -0.748534,-0.413435 z"
       id="path9"
       transform="matrix(-1.0895899,0,0,1.0895899,49.822137,-2.1500669)" /></g></svg>
