<?xml version="1.0" encoding="UTF-8"?><svg id="b" xmlns="http://www.w3.org/2000/svg" viewBox="0 0 48 48"><defs><style>.o{fill:none;stroke:#fff;stroke-linecap:round;stroke-linejoin:round;}</style></defs><path id="c" class="o" d="M28.497,22.6274v-10.4128l6.9889,10.4128v-10.4128"/><path id="d" class="o" d="M21.298,17.421h5.2746"/><path id="e" class="o" d="M21.298,12.2147l5.2746-.0004"/><path id="f" class="o" d="M26.5727,22.6274h-5.2747"/><path id="g" class="o" d="M19.3737,15.6639c0-1.905-1.5645-3.4492-3.4945-3.4492h0c-1.9299,0-3.4945,1.5443-3.4945,3.4492v3.5143c0,1.905,1.5645,3.4492,3.4945,3.4492h0c1.9299,0,3.4945-1.5443,3.4945-3.4492h-3.4945"/><path id="h" class="o" d="M27.5197,32.3361c0,1.905-1.5645,3.4492-3.4945,3.4492s-3.4945-1.5443-3.4945-3.4492,1.5645-3.4492,3.4945-3.4492,3.4945,1.5443,3.4945,3.4492Z"/><path id="i" class="o" d="M27.2108,26.6425c-.5823-.7527-1.4696-1.27-2.9403-1.27h-.2454c-1.93,0-3.4945,1.5443-3.4945,3.4492v3.5143"/><path id="j" class="o" d="M12.5682,34.907c.7282.6023,1.5145.8783,3.2803.8783h.4114c1.4562,0,2.6367-1.1652,2.6367-2.6026h0c0-1.4374-1.1805-2.6026-2.6367-2.6026"/><path id="k" class="o" d="M12.5671,26.2423c.7299-.6004,1.5169-.8743,3.2827-.8697l.4102.0023c1.4562,0,2.6367,1.1652,2.6367,2.6026h0c0,1.4374-1.1805,2.6026-2.6367,2.6026"/><path id="l" class="o" d="M14.2331,30.5802h2.0268"/><path id="m" class="o" d="M29.1538,34.907c.7282.6023,1.4348.8783,3.2006.8783h.3034c1.6334,0,2.9575-1.307,2.9575-2.9192h0c0-1.6122-1.3241-2.9192-2.9575-2.9192h-3.504v-4.5744h6.4615"/><path id="n" class="o" d="M9.5,5.5h29c2.216,0,4,1.784,4,4v29c0,2.216-1.784,4-4,4H9.5c-2.216,0-4-1.784-4-4V9.5c0-2.216,1.784-4,4-4Z"/></svg>