<svg xmlns="http://www.w3.org/2000/svg" xml:space="preserve" id="svg1" version="1.1" viewBox="0 0 48 48"><defs id="defs1"><style id="style1">.a{fill:none;stroke:#fff;stroke-linecap:round;stroke-linejoin:round}</style></defs><path id="path2923" d="M6.1955741 22.121149C5.1979521 13.783352 11.404273 2.4999998 23.999999 2.4999998c12.595727 0 18.802048 11.2833522 17.804426 19.6211492-1.055992 8.825639-10.789737 16.899437-17.804426 23.378873-7.014688-6.479436-16.7484328-14.553234-17.8044249-23.378873Z" style="fill:none;stroke:#fff;stroke-width:1;stroke-linecap:round;stroke-linejoin:round;stroke-opacity:1;stop-color:#000"/><path id="path2921" d="m17.811679 39.785012 7.704946-7.704946-6.537609-6.53761 8.139925-8.139925 11.98098 11.98098" style="fill:none;stroke:#fff;stroke-width:1;stroke-linecap:round;stroke-linejoin:round;stroke-opacity:1;stop-color:#000"/><path id="path1280" d="m30.295174 20.573725 1.794697-1.794698c.644453-.644455.644453-2.089732 0-2.734186l-2.555792-2.555793c-.701318-.701318-2.274125-.701318-2.975443 0l-7.506814 7.058276c-1.147504 1.07894-1.31544 3.752506-.07281 4.995132" style="fill:none;stroke:#fff;stroke-width:1;stroke-linecap:round;stroke-linejoin:round;stroke-opacity:1;stop-color:#000"/></svg>