<svg xmlns="http://www.w3.org/2000/svg" xml:space="preserve" width="48" height="48"><path fill="none" stroke="#fff" stroke-linecap="round" stroke-linejoin="round" d="M34.35 12.85A10.35 10.35 0 0 1 24 23.2a10.35 10.35 0 0 1-10.35-10.35A10.35 10.35 0 0 1 24 2.5a10.35 10.35 0 0 1 10.35 10.35m5.519 5.519a15.87 15.87 0 0 1-15.87 15.869 15.87 15.87 0 0 1-15.868-15.87A15.87 15.87 0 0 1 24 2.5a15.87 15.87 0 0 1 15.869 15.869m5.63 5.63A21.5 21.5 0 0 1 24 45.5 21.5 21.5 0 0 1 2.5 24 21.5 21.5 0 0 1 24 2.5 21.5 21.5 0 0 1 45.5 24"/></svg>
