<?xml version="1.0" encoding="UTF-8"?><svg id="b" xmlns="http://www.w3.org/2000/svg" viewBox="0 0 48 48"><defs><style>.c{fill:#fff;}.d{fill:none;stroke:#fff;stroke-linecap:round;stroke-linejoin:round;}</style></defs><rect class="d" x="5.5" y="5.5" width="37" height="37" rx="4" ry="4"/><circle class="c" cx="25.163" cy="12.757" r=".7"/><line class="d" x1="25.163" y1="15.837" x2="25.163" y2="22.499"/><path class="d" d="M22.163,14.957c-1.1379-1.9709-3.4577-2.9318-5.656-2.3428s-3.7268,2.5811-3.7268,4.8569,1.5286,4.2679,3.7268,4.8569,4.5181-.3719,5.656-2.3428v-2.5141h-4.3546"/><path class="d" d="M22.163,28.014c-1.1379-1.9709-3.4577-2.9318-5.656-2.3428s-3.7268,2.5811-3.7268,4.8569,1.5286,4.2679,3.7268,4.8569,4.5181-.3719,5.656-2.3428v-2.5141h-4.3546"/><circle class="d" cx="30.191" cy="30.529" r="5.0285"/></svg>