<?xml version="1.0" encoding="UTF-8" standalone="no"?>
<svg
   viewBox="0 0 48 48"
   version="1.1"
   id="svg1"
   sodipodi:docname="gitbook.svg"
   inkscape:version="1.3.2 (091e20ef0f, 2023-11-25)"
   xmlns:inkscape="http://www.inkscape.org/namespaces/inkscape"
   xmlns:sodipodi="http://sodipodi.sourceforge.net/DTD/sodipodi-0.dtd"
   xmlns="http://www.w3.org/2000/svg"
   xmlns:svg="http://www.w3.org/2000/svg">
  <sodipodi:namedview
     id="namedview1"
     pagecolor="#505050"
     bordercolor="#eeeeee"
     borderopacity="1"
     inkscape:showpageshadow="0"
     inkscape:pageopacity="0"
     inkscape:pagecheckerboard="0"
     inkscape:deskcolor="#505050"
     inkscape:zoom="17.8125"
     inkscape:cx="14.680702"
     inkscape:cy="31.691228"
     inkscape:window-width="1918"
     inkscape:window-height="1053"
     inkscape:window-x="0"
     inkscape:window-y="0"
     inkscape:window-maximized="1"
     inkscape:current-layer="svg1" />
  <defs
     id="defs1">
    <style
       id="style1">.a { fill:none;stroke:#fff;stroke-linecap:round;stroke-linejoin:round; }
</style>
  </defs>
  <path
     d="m 21.083554,24.947013 c 1.809008,1.042899 2.713541,1.564348 3.706873,1.565215 0.993333,8.65e-4 1.898791,-0.519024 3.709649,-1.558746 l 11.543053,-6.627717 c 0.521123,-0.299184 0.842385,-0.853779 0.842385,-1.454167 0,-0.600389 -0.321262,-1.154984 -0.842385,-1.454168 L 28.495855,8.7872885 c -1.808892,-1.038619 -2.71331,-1.557926 -3.705717,-1.557539 -0.99235,3.87e-4 -1.89642,0.520398 -3.704503,1.560421 L 11.158842,14.50013 c -0.07353,0.04233 -0.110364,0.06352 -0.144647,0.08356 -3.3908988,1.982777 -5.4859108,5.602662 -5.5139268,9.527274 -2.83e-4,0.03967 -2.83e-4,0.08206 -2.83e-4,0.166887 0,0.08466 0,0.127042 2.83e-4,0.166655 0.02795,3.920224 2.118293,7.536702 5.5031728,9.52104 0.03423,0.02004 0.07094,0.04123 0.144359,0.08361 l 6.218128,3.586044 c 3.623277,2.08955 5.434943,3.134357 7.424384,3.13505 1.989497,5.78e-4 3.801801,-1.042901 7.426523,-3.130083 l 6.564075,-3.779666 c 1.814965,-1.045096 2.722385,-1.567586 3.220728,-2.429043 0.498287,-0.861459 0.498287,-1.907707 0.498287,-4.00026 v -4.042414 c 0,-0.580467 -0.314791,-1.115428 -0.822494,-1.397923 -0.491352,-0.273313 -1.090232,-0.269271 -1.57782,0.01068 l -13.45965,7.728189 c -0.903087,0.518504 -1.354602,0.777785 -1.850112,0.777958 -0.495509,1.16e-4 -0.947198,-0.258876 -1.850574,-0.776803 l -9.109847,-5.223271 c -0.456313,-0.261649 -0.684499,-0.392502 -0.867706,-0.416119 -0.41781,-0.05388 -0.819607,0.179937 -0.978765,0.569551 -0.06978,0.170872 -0.06839,0.433675 -0.06556,0.959224 0.002,0.3869 0.0031,0.58035 0.03937,0.758324 0.08105,0.398508 0.29097,0.759306 0.597376,1.027018 0.136841,0.119536 0.304613,0.216261 0.640098,0.409653 l 9.739944,5.615078 c 0.90569,0.522142 1.358534,0.783212 1.855836,0.783385 0.497244,1.15e-4 0.950263,-0.260722 1.856241,-0.782346 l 11.938317,-6.873831 c 0.309467,-0.178206 0.464178,-0.267308 0.580206,-0.200322 0.116029,0.06699 0.116029,0.245364 0.116029,0.602178 v 1.833502 c 0,0.523183 0,0.784715 -0.124584,1.000109 -0.124585,0.215336 -0.351445,0.345958 -0.805211,0.60726 l -9.846782,5.669534 c -1.812766,1.043761 -2.719091,1.565616 -3.714043,1.565154 -0.994893,-4.63e-4 -1.900813,-0.523126 -3.712596,-1.568562 l -9.212462,-5.31554 c -0.02925,-0.01692 -0.04388,-0.02535 -0.05752,-0.03332 -1.9316388,-1.127439 -3.1235228,-3.190021 -3.1347038,-5.424688 -8.1e-5,-0.01577 -8.1e-5,-0.03263 -8.1e-5,-0.0664 v -1.683074 c 0,-1.233634 0.657772,-2.373893 1.7262838,-2.992529 0.944151,-0.546626 2.108782,-0.547723 3.054016,-0.0028 z"
     stroke="#f2f7f7"
     stroke-width="2"
     id="path1"
     style="fill:none;stroke:#ffffff;stroke-width:1;stroke-linecap:round;stroke-linejoin:round;stroke-dasharray:none;stroke-opacity:1" />
</svg>
