<?xml version="1.0" encoding="UTF-8"?>
<svg width="48" height="48" version="1.1" viewBox="0 0 12.7 12.7" xml:space="preserve" xmlns="http://www.w3.org/2000/svg"><defs><style>.q{fill:#fff;}.r,.s{fill:none;stroke:#fff;stroke-linecap:round;stroke-linejoin:round;}.s{stroke-width:1.0050968px;}</style><style>.a{fill:none;stroke:#fff;stroke-linecap:round;stroke-linejoin:round;}</style><style>
      .cls-1 {
        fill: none;
        stroke: #fff;
        stroke-linecap: round;
        stroke-linejoin: round;
      }
    </style><style>.a{fill:none;stroke:#fff;stroke-linecap:round;stroke-linejoin:round;}</style><style>
      .cls-1 {
        fill: none;
        stroke: #fff;
        stroke-linecap: round;
        stroke-linejoin: round;
      }
    </style><style>.q{fill:#fff;}.r,.s{fill:none;stroke:#fff;stroke-linecap:round;stroke-linejoin:round;}.s{stroke-width:1.0050968px;}</style></defs><g transform="translate(-.95408 -.95459)"><path d="m7.5374 10.121-3e-7 -1.0415" fill="none" stroke="#fff" stroke-linecap="round" stroke-linejoin="round" stroke-width=".29772"/><path d="m7.0707 10.121 2e-7 -1.0415" fill="none" stroke="#fff" stroke-linecap="round" stroke-linejoin="round" stroke-width=".29772"/><circle transform="scale(-1,1)" cx="-7.8525" cy="6.5423" r=".22329" fill="#fff"/><circle cx="6.7557" cy="6.5423" r=".22329" fill="#fff"/><path d="m5.9329 2.0582c-0.16722 0.0023729-0.33444 0.044358-0.44775 0.11397-0.37805 0.23225-0.54154 0.66242-0.46578 1.0775 0.12405 0.67967 0.44596 0.77102 0.54428 1.2508 0.096776 0.47224-0.31381 1.0663 0.28144 1.7974-0.31614 0.01012-0.7484-0.041034-1.0746-0.32505-0.6682-0.58179-0.10092-1.0615-0.33203-1.7782-0.12388-0.38414-0.37816-0.65506-0.91062-0.63499-0.37432 0.01411-0.89538 0.37698-0.50241 0.99842-0.052437-0.42527 0.28142-0.62488 0.54428-0.59545 0.40872 0.045755 0.54296 0.37051 0.38495 1.0199-0.11493 0.47237-0.016469 1.2261 0.79781 1.5753 0.55357 0.23738 0.89011 0.44041 1.181 0.91236-0.52736 0.16251-0.78954 0.15546-1.3514-0.097109-0.38211-0.17177-0.65534 0.065564-1.0758 0.21457-0.27359 0.096965-0.61876 0.2119-0.92806-0.073849-0.21575-0.19933-0.1963-0.66988 0.054079-0.85421 0.25332-0.1865 0.57018-0.11705 0.67802 0.2041-0.11154-0.61357-0.76159-0.47928-1.0298-0.25353-0.34499 0.29034-0.23694 0.91435-0.035471 1.1281 0.30509 0.32368 0.6192 0.34662 0.90945 0.34424 0.56848-0.0046517 0.86934-0.41201 1.4462-0.22271 0.47353 0.1554 0.64222 0.3732 1.4398 0.095946a1.3888 1.9224 0 0 0 0.018027 0.052916c-0.26292 0.35257-0.48225 0.61054-0.86235 0.8199-0.40709 0.22423-0.63794 0.26016-1.0775 0.27156-0.47656 0.012355-0.73882 0.021254-1.0862 0.35936-0.30568 0.2975-0.2804 0.6989-0.19713 0.97051 0.096196 0.31376 0.50864 0.5407 0.94551 0.23492-0.55902 0.23915-0.78702-0.2427-0.69198-0.59836 0.099926-0.37391 0.44213-0.64631 1.1647-0.55998 0.25532 0.030504 0.68553 0.030593 1.0926-0.19364 0.3801-0.20936 0.63252-0.38142 0.94725-0.83677a1.3888 1.9224 0 0 0 0.13025 0.16805 1.3888 1.9224 0 0 0 0.00174 0.00233c-0.15881 0.69353-0.54831 0.9173-0.61173 1.5735-0.040737 0.42154 0.2072 0.73181 0.39367 0.96353 0.24614 0.30586 0.21669 0.62908 0.059894 0.84433-0.18488 0.2538-0.50085 0.21915-0.68849 0.11688-0.25636-0.13974-0.38941-0.4183-0.2483-0.81118-0.40391 0.38548-0.24681 0.89412 0.1413 1.1002 0.4138 0.2197 0.78958 0.12055 1.1025-0.20236 0.22168-0.22875 0.31815-0.7848 0.036052-1.1804-0.2171-0.30449-0.4026-0.61689-0.28842-0.96237 0.12744-0.3856 0.33239-0.52715 0.55765-1.1002a1.3888 1.9224 0 0 0 0.13898 0.05059 1.3888 1.9224 0 0 0 0.28551 0.041286 1.3888 1.9224 0 0 0 0.14363-0.010467 1.3888 1.9224 0 0 0 0.14188-0.030819 1.3888 1.9224 0 0 0 0.13898-0.05059c0.22526 0.57303 0.43021 0.71459 0.55765 1.1002 0.11419 0.34548-0.071314 0.65788-0.28842 0.96237-0.28209 0.39563-0.18563 0.95168 0.036053 1.1804 0.31293 0.32291 0.68871 0.42205 1.1025 0.20236 0.38811-0.20606 0.54521-0.7147 0.1413-1.1002 0.14111 0.39288 0.00807 0.67144-0.2483 0.81118-0.18764 0.10228-0.50361 0.13692-0.68849-0.11688-0.1568-0.21525-0.18624-0.53847 0.059894-0.84433 0.18647-0.23172 0.43441-0.542 0.39367-0.96353-0.063416-0.65621-0.45292-0.87999-0.61173-1.5735a1.3888 1.9224 0 0 0 0.00174-0.00233 1.3888 1.9224 0 0 0 0.13025-0.16805c0.31473 0.45534 0.56715 0.62741 0.94725 0.83677 0.40709 0.22423 0.83731 0.22414 1.0926 0.19364 0.7226-0.086334 1.0648 0.18606 1.1647 0.55998 0.09505 0.35565-0.13296 0.83751-0.69198 0.59836 0.43687 0.30577 0.84931 0.07884 0.94551-0.23492 0.08327-0.27161 0.10856-0.67301-0.19712-0.97051-0.34741-0.33811-0.60967-0.347-1.0862-0.35936-0.43957-0.011396-0.67041-0.047327-1.0775-0.27156-0.3801-0.20936-0.59944-0.46733-0.86235-0.8199a1.3888 1.9224 0 0 0 0.018027-0.052916c0.79756 0.27725 0.96624 0.059454 1.4398-0.095946 0.57683-0.1893 0.87769 0.21806 1.4462 0.22271 0.29025 0.00237 0.60437-0.02056 0.90946-0.34424 0.20147-0.21375 0.30952-0.83775-0.03547-1.1281-0.26824-0.22575-0.91828-0.36004-1.0298 0.25353 0.10784-0.32116 0.4247-0.39061 0.67802-0.2041 0.25038 0.18433 0.26983 0.65489 0.05408 0.85421-0.3093 0.28575-0.65448 0.17081-0.92806 0.073849-0.42043-0.14901-0.69365-0.38634-1.0758-0.21457-0.56185 0.25257-0.82403 0.25962-1.3514 0.097109 0.2909-0.47195 0.62744-0.67498 1.181-0.91236 0.81428-0.34917 0.91274-1.1029 0.79781-1.5753-0.15801-0.64943-0.023768-0.97418 0.38495-1.0199 0.26286-0.029427 0.59671 0.17018 0.54428 0.59545 0.39297-0.62145-0.12809-0.98431-0.50241-0.99842-0.53246-0.020071-0.78674 0.25084-0.91062 0.63499-0.23111 0.71666 0.33616 1.1964-0.33203 1.7782-0.3262 0.28402-0.75846 0.33517-1.0746 0.32505 0.59526-0.73113 0.18467-1.3252 0.28144-1.7974 0.098318-0.47977 0.42022-0.57112 0.54428-1.2508 0.07576-0.41508-0.087729-0.84525-0.46578-1.0775-0.11331-0.069614-0.28053-0.1116-0.44775-0.11397-0.36789-0.0052203-0.7347 0.17965-0.51985 0.67453-0.023158-0.3463 0.3441-0.45977 0.70477-0.28202 0.1853 0.091321 0.32071 0.37444 0.25702 0.67976-0.14108 0.67634-0.51457 0.66207-0.66988 1.2461-0.15268 0.57418 0.32768 0.99592-0.019189 1.4049l-0.082571 0.10409a1.3888 1.9224 0 0 0-0.031983-0.043612 1.3888 1.9224 0 0 0-0.067453-0.091876 1.3888 1.9224 0 0 0-0.069779-0.084898 1.3888 1.9224 0 0 0-0.083153-0.084316 1.3888 1.9224 0 0 0-0.069779-0.065127 1.3888 1.9224 0 0 0-0.091294-0.068035 1.3888 1.9224 0 0 0-0.078501-0.053497 1.3888 1.9224 0 0 0-0.095946-0.048845 1.3888 1.9224 0 0 0-0.081409-0.038379 1.3888 1.9224 0 0 0-0.12618-0.037216 1.3888 1.9224 0 0 0-0.055823-0.0157 1.3888 1.9224 0 0 0-0.19015-0.018608 1.3888 1.9224 0 0 0-0.19015 0.018608 1.3888 1.9224 0 0 0-0.055823 0.015701 1.3888 1.9224 0 0 0-0.12618 0.037216 1.3888 1.9224 0 0 0-0.081409 0.038378 1.3888 1.9224 0 0 0-0.095946 0.048845 1.3888 1.9224 0 0 0-0.078501 0.053497 1.3888 1.9224 0 0 0-0.091294 0.068034 1.3888 1.9224 0 0 0-0.069779 0.065128 1.3888 1.9224 0 0 0-0.083153 0.084317 1.3888 1.9224 0 0 0-0.069779 0.084898 1.3888 1.9224 0 0 0-0.067455 0.091875 1.3888 1.9224 0 0 0-0.031982 0.043612l-0.082574-0.10409c-0.34686-0.40896 0.13349-0.83071-0.019189-1.4049-0.15531-0.58407-0.5288-0.56979-0.66988-1.2461-0.06369-0.30533 0.071715-0.58844 0.25702-0.67976 0.36067-0.17774 0.72793-0.064277 0.70477 0.28202 0.21485-0.49488-0.15196-0.67975-0.51985-0.67453z" fill="none" stroke="#fff" stroke-linecap="round" stroke-linejoin="round" stroke-width=".29772"/></g></svg>
