<?xml version="1.0" encoding="UTF-8" standalone="no"?>
<!-- Created with Inkscape (http://www.inkscape.org/) -->

<svg
   width="48"
   height="48"
   viewBox="0 0 12.7 12.7"
   version="1.1"
   id="svg1"
   xml:space="preserve"
   xmlns="http://www.w3.org/2000/svg"
   xmlns:svg="http://www.w3.org/2000/svg"><defs
     id="defs1" /><path
     style="opacity:1;fill:none;stroke:#ffffff;stroke-width:0.264191;stroke-linecap:round;stroke-linejoin:round;stroke-dasharray:none;stroke-opacity:1"
     d="M 3.1297814,2.8000537 6.3255493,5.4463438 9.3978908,2.8879187"
     id="path38" /><path
     style="opacity:1;fill:none;stroke:#ffffff;stroke-width:0.264191;stroke-linecap:round;stroke-linejoin:round;stroke-dasharray:none;stroke-opacity:1"
     d="M 10.589103,4.4967499 6.3833622,7.9882627 1.8739581,4.3074318"
     id="path39" /><path
     style="opacity:1;fill:none;stroke:#ffffff;stroke-width:0.264583;stroke-linecap:round;stroke-linejoin:round;stroke-dasharray:none;stroke-opacity:1"
     d="M 3.3003233,2.882725 C 3.1427941,2.7580014 2.9288166,2.5233963 2.6490536,2.599069 2.603874,2.6112896 2.5582638,2.624704 2.5128948,2.6389135 2.1682713,2.7468494 1.7676075,3.1461016 1.7279273,3.5036381 c -0.034992,0.315294 0.00485,0.6267186 0.166345,0.7672454"
     id="path40"
     transform="matrix(0.99888163,0,0,0.99815615,0.00742814,0.06539812)" /><path
     style="opacity:1;fill:none;stroke:#ffffff;stroke-width:0.264583;stroke-linecap:round;stroke-linejoin:round;stroke-dasharray:none;stroke-opacity:1"
     d="M 8.8121685,3.3193623 9.3450897,2.8748546 a 1.2277267,1.2277267 146.31872 0 1 0.218902,-0.1458862 1.4890009,1.4890009 178.6843 0 1 0.7931493,-0.018216 0.68057566,0.68057566 49.44763 0 1 0.603824,0.7056799 l 0.0058,0.5730802 a 0.27683424,0.27683424 114.9639 0 1 -0.100754,0.2164224 l -0.01734,0.014294 a 8.684347,8.684347 139.63305 0 0 -0.201566,0.1713456 l -0.0012,0.00101 a 10.434982,10.434982 139.48665 0 1 -0.201135,0.1718662 l -0.332759,0.2771168"
     id="path41"
     transform="matrix(0.99888163,0,0,0.99815615,0.00742814,0.06539812)" /><path
     style="opacity:1;fill:none;stroke:#ffffff;stroke-width:0.263679;stroke-linecap:round;stroke-linejoin:round;stroke-dasharray:none;stroke-opacity:1"
     d="m 1.7158653,3.7080351 0.019596,5.9823308 a 0.26545145,0.26545145 44.906158 0 0 0.26545,0.2645819 H 3.3817057 A 0.26458334,0.26458334 135 0 0 3.646289,9.6903645 V 5.8042968"
     id="path42"
     transform="matrix(0.99841226,0,0,1.0054847,0.00868656,0.03867651)" /><path
     style="opacity:1;fill:none;stroke:#ffffff;stroke-width:0.264583;stroke-linecap:round;stroke-linejoin:round;stroke-dasharray:none;stroke-opacity:1"
     d="m 10.967425,3.938954 0.01779,5.7933056 A 0.26555407,0.26555407 134.71917 0 1 10.721448,9.998623 l -1.3129131,0.00884 A 0.26280799,0.26280799 44.807127 0 1 9.1439576,9.7446604 V 5.6594321"
     id="path43"
     transform="matrix(0.99888163,0,0,0.99815615,0.00742814,0.06539812)" /></svg>
