<?xml version="1.0" encoding="UTF-8" standalone="no"?>
<!-- Created with Inkscape (http://www.inkscape.org/) -->

<svg
   width="48"
   height="48"
   viewBox="0 0 12.7 12.7"
   version="1.1"
   id="svg1"
   xml:space="preserve"
   xmlns="http://www.w3.org/2000/svg"
   xmlns:svg="http://www.w3.org/2000/svg"><defs
     id="defs1" /><ellipse
     style="opacity:1;fill:none;stroke:#ffffff;stroke-width:0.310291;stroke-linecap:round;stroke-linejoin:round;stroke-dasharray:none;stroke-opacity:1"
     id="path43"
     cx="6.3487835"
     cy="5.2188973"
     rx="2.1767898"
     ry="2.1673012" /><path
     id="path45"
     style="opacity:1;fill:none;stroke:#ffffff;stroke-width:0.301357;stroke-linecap:round;stroke-linejoin:round;stroke-dasharray:none;stroke-opacity:1"
     d="M 4.4928936,9.5248467 A 4.4795289,4.5615936 0 0 1 1.8704703,5.3737307 4.4795289,4.5615936 0 0 1 6.3499992,0.81213701 4.4795289,4.5615936 0 0 1 10.829529,5.3737307 v 0 a 4.4795289,4.5615936 0 0 1 -2.4565406,4.069931" /><path
     style="opacity:1;fill:none;stroke:#ffffff;stroke-width:0.264583;stroke-linecap:round;stroke-linejoin:round;stroke-dasharray:none;stroke-opacity:1"
     d="M 8.1228509,8.87469 C 7.3203336,9.3889385 7.0250777,10.199296 6.5797973,10.891712 6.5011891,11.013948 6.3530489,11.019777 6.2646522,10.903456 5.7214828,10.188697 5.3231122,9.2446663 4.6946774,8.9343839"
     id="path55"
     transform="matrix(1.1753197,0,0,1.1701962,-1.1144954,-0.97339106)" /></svg>
