<?xml version="1.0" encoding="UTF-8"?><svg id="a" xmlns="http://www.w3.org/2000/svg" viewBox="0 0 48 48"><defs><style>.d{fill:none;stroke:#fff;stroke-linecap:round;stroke-linejoin:round;}</style></defs><path class="d" d="m10.18 7.53a21.5 21.5 0 0 1 27.64 5e-7"/><path class="d" d="m10.18 7.53a21.5 21.5 0 0 1 27.64 5e-7"/><path class="d" d="m14.872 13.323a14.2 14.2 0 0 1 18.255 1e-6"/><path class="d" d="m19.436 18.961a7.1 7.1 0 0 1 9.1276 0"/><path class="d" d="m40.47 10.18a21.5 21.5 0 0 1 2.6008 23.748 21.5 21.5 0 0 1-20.945 11.491"/><path class="d" d="m18.435 44.767a21.5 21.5 0 0 1-9.6382-5.5646"/><path class="d" d="m6.3882 36.332a21.5 21.5 0 0 1 1.1418-26.152"/><circle class="d" cx="24" cy="24.6" r="1.5"/></svg>
