<svg xmlns="http://www.w3.org/2000/svg" xml:space="preserve" id="svg1" version="1.1" viewBox="0 0 48 48"><defs id="defs1"><style id="style1">.a{fill:none;stroke:#fff;stroke-linecap:round;stroke-linejoin:round}</style></defs><path id="path8021" d="M9.5 5.5h29c2.216 0 4 1.784 4 4v29c0 2.216-1.784 4-4 4h-29c-2.216 0-4-1.784-4-4v-29c0-2.216 1.784-4 4-4z" style="fill:none;stroke:#fff;stroke-linecap:round;stroke-linejoin:round"/><path id="path8019" d="M11.061359 27.463569v5.432499" style="fill:none;stroke:#fff;stroke-linecap:round;stroke-linejoin:round"/><path id="path8017" d="M33.564053 27.463568h3.374587" style="fill:none;stroke:#fff;stroke-linecap:round;stroke-linejoin:round"/><path id="path8015" d="M35.251343 32.896068v-5.4325" style="fill:none;stroke:#fff;stroke-linecap:round;stroke-linejoin:round"/><path id="path8013" d="M13.34609 32.896068v-5.432499l3.374593 5.432499v-5.432499" style="fill:none;stroke:#fff;stroke-linecap:round;stroke-linejoin:round"/><path id="path8011" d="m22.105543 27.463605-1.687296 5.4325-1.687296-5.4325" style="fill:none;stroke:#fff;stroke-linecap:round;stroke-linejoin:round"/><path id="path8009" d="M28.520881 32.300845c.312347.43369.704017.595227 1.248924.595229l.754107-.000002c.701782 0 1.270693-.606743 1.270693-1.355199v-.0059c0-.748456-.568911-1.3552-1.270693-1.3552h-.831844c-.702539 0-1.272055-.607398-1.272055-1.356662v-.000002c0-.750878.570745-1.359585 1.2748-1.359585h.749994c.544907 0 .936576.16154 1.248924.595227" style="fill:none;stroke:#fff;stroke-linecap:round;stroke-linejoin:round"/><path id="path8007" d="M24.103706 30.179829h1.660529" style="fill:none;stroke:#fff;stroke-linecap:round;stroke-linejoin:round"/><path id="path8005" d="M26.650568 32.896079h-2.546862v-5.4325h2.546862" style="fill:none;stroke:#fff;stroke-linecap:round;stroke-linejoin:round"/><path id="path8003" d="M25.637435 15.103921v8h4" style="fill:none;stroke:#fff;stroke-linecap:round;stroke-linejoin:round"/><path id="path8001" d="M16.366933 17.753925c0-1.463554-1.18645-2.649998-2.65-2.649998h-.00001c-1.46355 0-2.65 1.186444-2.65 2.649998v2.699991c0 1.463554 1.18645 2.649999 2.65 2.649999h.00001c1.46355 0 2.65-1.186445 2.65-2.649999h-2.65" style="fill:none;stroke:#fff;stroke-linecap:round;stroke-linejoin:round"/><path id="path7999" d="M31.622686 23.103921v-8h1.8c1.93299 0 3.5 1.567003 3.5 3.5v1c0 1.932996-1.56701 3.5-3.5 3.5z" style="fill:none;stroke:#fff;stroke-linecap:round;stroke-linejoin:round"/><path id="rect981" d="M21.002184 15.103927v0c1.4681 0 2.65 1.181899 2.65 2.649999v2.699991c0 1.468099-1.1819 2.649998-2.65 2.649998v0c-1.4681 0-2.65-1.181899-2.65-2.649998v-2.699991c0-1.4681 1.1819-2.649999 2.65-2.649999z" style="fill:none;stroke:#fff;stroke-linecap:round;stroke-linejoin:round"/></svg>