<svg xmlns="http://www.w3.org/2000/svg" xml:space="preserve" width="48" height="48"><path fill="none" stroke="#fff" stroke-linecap="round" stroke-linejoin="round" d="M15.221 16.965a2.79 2.79 0 0 0-2.786-2.798v0a2.79 2.79 0 0 0-2.786 2.798v2.85a2.79 2.79 0 0 0 2.786 2.798v0a2.79 2.79 0 0 0 2.786-2.798h-2.786m8.166-5.648a2.786 2.786 0 0 1 2.786 2.798v2.85a2.786 2.786 0 1 1-5.573 0v-2.85a2.786 2.786 0 0 1 2.786-2.798m12.178 8.446v-8.446h1.892a3.69 3.69 0 0 1 3.68 3.695v1.056a3.687 3.687 0 0 1-3.68 3.695zm-6.8-8.446v8.446h4.206m-7.089 5.004c1.164 0 2.102.918 2.102 2.059v2.098c0 1.14-.938 2.059-2.102 2.059s-2.101-.919-2.101-2.06v-2.097c0-1.14.937-2.06 2.101-2.06m10.22 0-1.587 6.216-1.586-6.216-1.586 6.216-1.586-6.216m-12.287 6.216v-6.216l4.203 6.216v-6.216M10.999 5h26c3.324 0 6 2.676 6 6v26c0 3.324-2.676 6-6 6H11c-3.324 0-6-2.676-6-6V11c0-3.324 2.676-6 6-6"/></svg>