<?xml version="1.0" encoding="UTF-8" standalone="no"?>
<svg
   viewBox="0 0 48 48"
   version="1.1"
   id="svg1"
   sodipodi:docname="gold_apple.svg"
   inkscape:version="1.2.2 (b0a8486541, 2022-12-01)"
   xml:space="preserve"
   xmlns:inkscape="http://www.inkscape.org/namespaces/inkscape"
   xmlns:sodipodi="http://sodipodi.sourceforge.net/DTD/sodipodi-0.dtd"
   xmlns="http://www.w3.org/2000/svg"
   xmlns:svg="http://www.w3.org/2000/svg"><path
     style="fill:none;stroke:#ffffff;stroke-width:1;stroke-linecap:round;stroke-linejoin:round;stop-color:#000000"
     d="m 11.861664,32.318735 6.51187,-3.365406 c 5.545093,-2.865764 7.601357,-7.40052 7.651644,-11.417295 0.05271,-4.21052 -3.158834,-6.349545 -6.570571,-4.586322 l -7.592943,3.924116"
     id="path1738" /><path
     style="fill:none;stroke:#ffffff;stroke-width:1;stroke-linecap:round;stroke-linejoin:round;stop-color:#000000"
     d="m 11.861664,43.500001 6.51187,-3.365406 c 5.545093,-2.865764 7.601357,-7.40052 7.651644,-11.417294 0.05271,-4.21052 -3.158834,-6.349545 -6.570571,-4.586323 l -7.592943,3.924116"
     id="path1736" /><path
     style="fill:none;stroke:#ffffff;stroke-width:1;stroke-linecap:round;stroke-linejoin:round;stop-color:#000000"
     d="m 36.138336,15.681266 -6.511871,3.365406 c -5.545092,2.865764 -7.601357,7.40052 -7.651644,11.417295 -0.05271,4.210519 3.158835,6.349545 6.570572,4.586322 l 7.592943,-3.924116"
     id="path1734" /><path
     style="fill:none;stroke:#ffffff;stroke-width:1;stroke-linecap:round;stroke-linejoin:round;stop-color:#000000"
     d="M 36.138336,4.4999997 29.626465,7.8654058 C 24.081373,10.73117 22.025108,15.265925 21.974821,19.2827 c -0.05271,4.21052 3.158835,6.349545 6.570572,4.586322 l 7.592943,-3.924115"
     id="path1634" /><sodipodi:namedview
     id="namedview1"
     pagecolor="#505050"
     bordercolor="#eeeeee"
     borderopacity="1"
     inkscape:showpageshadow="0"
     inkscape:pageopacity="0"
     inkscape:pagecheckerboard="0"
     inkscape:deskcolor="#505050"
     inkscape:zoom="8.90625"
     inkscape:cx="-12.575439"
     inkscape:cy="34.694737"
     inkscape:window-width="1912"
     inkscape:window-height="1054"
     inkscape:window-x="0"
     inkscape:window-y="0"
     inkscape:window-maximized="1"
     inkscape:current-layer="svg1"
     showgrid="false" /><defs
     id="defs1"><style
       id="style1">.a { fill:none;stroke:#fff;stroke-linecap:round;stroke-linejoin:round; }
</style></defs></svg>
