<svg xmlns="http://www.w3.org/2000/svg" xml:space="preserve" id="svg1" version="1.1" viewBox="0 0 48 48"><defs id="defs1"><style id="style1">.a{fill:none;stroke:#fff;stroke-linecap:round;stroke-linejoin:round}</style></defs><path id="path2" d="M43.5 33.393a3.547 3.547 0 0 1-3.54 3.553 3.547 3.547 0 0 1-3.542-3.553 3.547 3.547 0 0 1 3.541-3.553 3.546 3.546 0 0 1 3.541 3.553zm-21.638-19.5v27.809m10.921-4.796-8.782 4.297c-.722.353-1.558.718-2.14.718-.58 0-1.417-.365-2.14-.718L6.649 34.806c-1.07-.523-2.148-.96-2.148-2.155V8.952c0-1.194 1.078-2.678 2.148-2.155l13.074 6.397c.708.346 1.697.703 2.14.703.443 0 1.43-.357 2.14-.703l13.073-6.397c1.07-.523 2.148.961 2.148 2.155v16.472" style="fill:none;fill-opacity:.266292;stroke:#fff;stroke-width:1stroke-linecap:round;stroke-linejoin:round;stroke-opacity:1"/></svg>
