<svg xmlns="http://www.w3.org/2000/svg" xml:space="preserve" width="48" height="48"><path fill="none" stroke="#fff" stroke-linecap="round" stroke-linejoin="round" d="M40.685 21.927c1.569-.116 3.006-1.29 2.271-2.284-1.465-1.981-5.305 5.556.544 3.25m-10.556-2.51.256 2.09c.232 1.898.474.8.672 0 1.381-4.195 1.723-2.156 1.631-.868-.129 1.813.91 1.628 1.696.097 1.217-2.374 1.84-3.62 1.759-.418-.02.772-.061 1.15.096 1.415m-7.582-2.734-.032-.837m-.127 2.316.095 2.252m-2.11-7.334c.048 1.494.114 1.616-.48 3.345-1.466 4.266.572 4.869 1.503 2.413m-3.391-3.7 7.39-1.447m-7.486.225c-.298 2.653-1.66 7.346-3.487 7.142-1.278-.143.336-5.133 2.623-3.764l.096 2.96m-3.934 1.93c.485.536 1.02.733 1.759.514m-11.644 1.126c3.355 2.803 8.416 1.65 10.492-1.03m-1.158-3.182a2.015 1.978 0 0 1-2.015 1.978 2.015 1.978 0 0 1-2.015-1.978 2.015 1.978 0 0 1 2.015-1.978 2.015 1.978 0 0 1 2.015 1.978m-4.888.69a2.015 1.978 0 0 1-2.015 1.978 2.015 1.978 0 0 1-2.016-1.978 2.015 1.978 0 0 1 2.016-1.979 2.015 1.978 0 0 1 2.015 1.979M9.347 21.43c1.233-1.13 1.09-1.824.452-2.092-1.137-.479-3.329 1.86-4.263 3.32-1.302 2.036-2.848 7.953 5.735.805.317 3.175-3.853 9.459-6.062 7.953-1.996-1.36 4.317-4.395 7.325-4.472" style="-inkscape-stroke:none"/></svg>
