<?xml version="1.0" encoding="UTF-8"?><svg id="a" xmlns="http://www.w3.org/2000/svg" viewBox="0 0 48 48"><defs><style>.d{fill:none;stroke:#fff;stroke-linecap:round;stroke-linejoin:round;}</style></defs><circle class="d" cx="13.722" cy="34.278" r="8.2222"/><path class="d" d="m37.281 20.018c-2.5688 2.5688-6.7336 2.5688-9.3024 0-2.5688-2.5688-2.5688-6.7336 0-9.3024l3.292-3.2889c2.5688-2.5688 6.7336-2.5688 9.3024 4e-7 2.5688 2.5688 2.5688 6.7336 0 9.3024z"/><path class="d" d="m41.598 41.598c-2.0707 2.0707-4.3922-.07358-7.3206-.07358s-5.2499 2.1443-7.3206.07358c-2.0707-2.0707.07358-4.3922.07358-7.3206s-2.1443-5.2499-.07358-7.3206c2.0707-2.0707 4.3922.07358 7.3206.07358 2.9284 0 5.2499-2.1443 7.3206-.07358 2.0707 2.0707-.07358 4.3922-.07358 7.3206 0 2.9284 2.1443 5.2499.07358 7.3206z"/><path class="d" d="m13.722 5.5c1.4422-1e-7 2.451 1.0925 3.7 1.8136 1.249.7211 2.6996 1.0485 3.4207 2.2975.7211 1.249.27935 2.6689.27935 4.1111s.44176 2.8621-.27935 4.1111c-.7211 1.249-2.1717 1.5764-3.4207 2.2975-1.249.7211-2.2578 1.8136-3.7 1.8136s-2.451-1.0925-3.7-1.8136c-1.249-.7211-2.6996-1.0485-3.4207-2.2975-.7211-1.249-.27935-2.6689-.27935-4.1111 1e-7-1.4422-.44176-2.8621.27935-4.1111.7211-1.249 2.1717-1.5764 3.4207-2.2975 1.249-.7211 2.2578-1.8136 3.7-1.8136z"/></svg>
