<?xml version="1.0" encoding="UTF-8" standalone="no"?>
<svg
   id="b"
   viewBox="0 0 48 48"
   version="1.1"
   xmlns="http://www.w3.org/2000/svg"
   xmlns:svg="http://www.w3.org/2000/svg">
  <defs
     id="defs1" />
  <path
     d="M 31.01,33.47 C 35.96,30.93 39.34,25.78 39.34,19.84 39.34,11.37 32.47,4.5 24,4.5 15.53,4.5 8.66,11.37 8.66,19.84 c 0,5.94 3.38,11.09 8.33,13.63"
     id="path4"
     style="stroke:#ffffff;stroke-opacity:1;fill:none" />
  <path
     d="m 16.9888,25.0955 c 0,-3.8722 3.1391,-7.0112 7.0112,-7.0112 3.8721,0 7.0112,3.1391 7.0112,7.0112 V 36.4888 C 31.0112,40.361 27.8721,43.5 24,43.5 c -3.8721,0 -7.0112,-3.1391 -7.0112,-7.0112 z"
     id="path5"
     style="stroke:#ffffff;stroke-opacity:1;fill:none" />
  <path
     d="m 20.0562,30.573 c 0,-1.5731 1.2752,-2.8483 2.8483,-2.8483 h 2.191 c 1.5731,0 2.8483,1.2752 2.8483,2.8483 0,1.5731 -1.2752,2.8483 -2.8483,2.8483 h -2.191 c -1.5731,0 -2.8483,-1.2752 -2.8483,-2.8483"
     id="path6"
     style="stroke:#ffffff;stroke-opacity:1;fill:none" />
  <line
     x1="16.9888"
     y1="33.4213"
     x2="31.0112"
     y2="33.4213"
     id="line6"
     style="stroke:#ffffff;stroke-opacity:1;fill:none" />
</svg>
