<?xml version="1.0" encoding="UTF-8" standalone="no"?>
<svg
   id="b"
   viewBox="0 0 48 48"
   version="1.1"
   xmlns="http://www.w3.org/2000/svg"
   xmlns:svg="http://www.w3.org/2000/svg">
  <defs
     id="defs1">
    <style
       id="style1">.g{fill:none;stroke:#fff;stroke-linecap:round;stroke-linejoin:round;}</style>
  </defs>
  <g
     id="d"
     style="fill:none;stroke:#ffffff;stroke-opacity:1;stroke-linecap:round;stroke-linejoin:round">
    <path
       class="g"
       d="M23.7566,6.9934h12.6579c3.3609,0,6.0855,2.7246,6.0855,6.0855h0c0,3.3609-2.7246,6.0855-6.0855,6.0855h-12.6579c-3.3609,0-6.0855-2.7246-6.0855-6.0855h0c0-3.3609,2.7246-6.0855,6.0855-6.0855Z"
       id="path1"
       style="fill:none;stroke:#ffffff;stroke-opacity:1;stroke-linecap:round;stroke-linejoin:round" />
  </g>
  <path
     class="g"
     d="M23.7566,31.3355h12.6579c3.3609,0,6.0855,2.7246,6.0855,6.0855h0c0,3.3609-2.7246,6.0855-6.0855,6.0855h-12.6579c-3.3609,0-6.0855-2.7246-6.0855-6.0855h0c0-3.3609,2.7246-6.0855,6.0855-6.0855Z"
     id="path2"
     style="fill:none;stroke:#ffffff;stroke-opacity:1;stroke-linecap:round;stroke-linejoin:round" />
  <path
     class="g"
     d="M11.5855,31.3355h0c3.3609,0,6.0855,2.7246,6.0855,6.0855h0c0,3.3609-2.7246,6.0855-6.0855,6.0855h0c-3.3609,0-6.0855-2.7246-6.0855-6.0855h0c0-3.3609,2.7246-6.0855,6.0855-6.0855Z"
     id="path3"
     style="fill:none;stroke:#ffffff;stroke-opacity:1;stroke-linecap:round;stroke-linejoin:round" />
  <path
     class="g"
     d="M11.5855,19.1645h0c3.3609,0,6.0855,2.7246,6.0855,6.0855h0c0,3.3609-2.7246,6.0855-6.0855,6.0855h0c-3.3609,0-6.0855-2.7246-6.0855-6.0855h0c0-3.3609,2.7246-6.0855,6.0855-6.0855Z"
     id="path4"
     style="fill:none;stroke:#ffffff;stroke-opacity:1;stroke-linecap:round;stroke-linejoin:round" />
  <path
     class="g"
     d="M23.7566,19.1645h12.6579c3.3609,0,6.0855,2.7246,6.0855,6.0855h0c0,3.3609-2.7246,6.0855-6.0855,6.0855h-12.6579c-3.3609,0-6.0855-2.7246-6.0855-6.0855h0c0-3.3609,2.7246-6.0855,6.0855-6.0855Z"
     id="path5"
     style="fill:none;stroke:#ffffff;stroke-opacity:1;stroke-linecap:round;stroke-linejoin:round" />
  <g
     class="f"
     mask="url(#e)"
     id="g6"
     style="fill:none;stroke:#ffffff;stroke-opacity:1;stroke-linecap:round;stroke-linejoin:round">
    <path
       class="g"
       d="M23.7566,6.9934h12.6579c3.3609,0,6.0855,2.7246,6.0855,6.0855h0c0,3.3609-2.7246,6.0855-6.0855,6.0855h-12.6579c-3.3609,0-6.0855-2.7246-6.0855-6.0855h0c0-3.3609,2.7246-6.0855,6.0855-6.0855Z"
       id="path6"
       style="fill:none;stroke:#ffffff;stroke-opacity:1;stroke-linecap:round;stroke-linejoin:round" />
  </g>
  <path
     class="g"
     d="M11.5855,6.9934h0c3.3609,0,6.0855,2.7246,6.0855,6.0855h0c0,3.3609-2.7246,6.0855-6.0855,6.0855h0c-3.3609,0-6.0855-2.7246-6.0855-6.0855h0c0-3.3609,2.7246-6.0855,6.0855-6.0855Z"
     id="path7"
     style="fill:none;stroke:#ffffff;stroke-opacity:1;stroke-linecap:round;stroke-linejoin:round" />
  <path
     class="g"
     d="M23.7566,13.0789h12.6579"
     id="path8"
     style="fill:none;stroke:#ffffff;stroke-opacity:1;stroke-linecap:round;stroke-linejoin:round" />
  <circle
     class="g"
     cx="11.5855"
     cy="13.0789"
     r="2.9211"
     id="circle8"
     style="fill:none;stroke:#ffffff;stroke-opacity:1;stroke-linecap:round;stroke-linejoin:round" />
</svg>
