<?xml version="1.0" encoding="UTF-8"?><svg id="a" xmlns="http://www.w3.org/2000/svg" viewBox="0 0 48 48"><defs><style>.j{fill:none;stroke:#fff;stroke-linecap:round;stroke-linejoin:round;}</style></defs><path id="e" class="j" d="M8.22987267,12.68029488c1.78208277-1.9993578,4.7404472-3.75575271,6.78475927-4.9620032,2.48314209-1.46633829,6.32880231-3.71829168,9.19832998-3.71829168h0c2.86845794,0,6.71304639,2.25302363,9.19725821,3.71829168,2.48421182,1.46633829,6.3159594,3.74290878,7.75018837,6.28170756s1.44814365,7.06839342,1.44814365,10.00000026-.01391468,7.46120148-1.44814365,10.0000023-5.26597655,4.81644003-7.74911864,6.28170756c-2.48528359,1.46633726-6.32987204,3.71829065-9.19832998,3.71829065s-6.71411816-2.25302312-9.19832998-3.71829065c-2.04431105-1.20624947-5.00267548-2.96264744-6.78475927-4.96200525"/><path id="f" class="j" d="M14.99750601,28.94594855c0,1.75934994-1.42592222,3.18574986-3.18527216,3.18634189-1.75976844,0-3.18634291-1.42657345-3.18634291-3.18634189s1.42657447-3.18634189,3.18634291-3.18634189c1.75934994.00059203,3.18527216,1.42699195,3.18527216,3.18634189Z"/><path id="g" class="j" d="M33.90364016,28.94594855c0,1.75976844-1.42657345,3.18634189-3.18634189,3.18634189-1.75976844.00000204-3.18634393-1.4265714-3.18634597-3.18633985v-.00107177c0-1.75976844,1.42657345-3.18634189,3.18634189-3.18634189s3.18634189,1.42657345,3.18634189,3.18634189l.00000408.00106973Z"/><path id="h" class="j" d="M8.69439157,28.4289842h-1.05961656c-2.73573767,0-2.55913491-3.67547892-1.61939418-6.3266608.82628687-2.33329794,2.17917129-4.6922817,4.7672053-5.52499257,1.9287167-.62078552,3.90131691-.74173261,6.29348278-.74173261h4.00834728c1.83987994,0,3.0621856.76955994,4.36690554,1.6900358l5.10007417,3.60269631c2.38895463.97613255,4.79503518,1.58407312,6.60066532,2.63298828,1.43958171.83485034,1.19447834,4.66659588-1.38606245,4.66659588h-1.91159078"/><path id="i" class="j" d="M27.59838421,28.4289842h-12.64690219"/></svg>