<svg xmlns="http://www.w3.org/2000/svg" viewBox="0 0 48 48"><defs><style>.a{fill:none;stroke:#fff;stroke-linecap:round;stroke-linejoin:round;}</style></defs><circle class="a" cx="24" cy="32.37" r="2.27"/><path class="a" d="M40.39,12.48c-3.63.06-11,4.15-12.78,14.55"/><path class="a" d="M42.5,15.15c-.28,6.31-2.73,14.67-11.08,18.19"/><path class="a" d="M27.61,27a53.43,53.43,0,0,0,1.48-10.91c0-5-3.3-10.8-3.3-10.8"/><path class="a" d="M7.61,12.48c3.63.06,11,4.15,12.78,14.55"/><path class="a" d="M5.5,15.15c.28,6.31,2.73,14.67,11.08,18.19"/><path class="a" d="M20.39,27a53.43,53.43,0,0,1-1.48-10.91c0-5,3.3-10.8,3.3-10.8"/><path class="a" d="M16.58,33.34c-3.52-1.71-4.32-6-3.75-10.63,0,0,5.06-1.42,7.56,4.32A14.71,14.71,0,0,1,24,17.54,14.71,14.71,0,0,1,27.61,27c2.5-5.74,7.56-4.32,7.56-4.32.57,4.66-.23,8.92-3.75,10.63"/><line class="a" x1="7.61" y1="42.68" x2="40.39" y2="42.68"/><line class="a" x1="6.62" y1="38.21" x2="41.38" y2="38.21"/></svg>