<svg xmlns="http://www.w3.org/2000/svg" xml:space="preserve" viewBox="0 0 48 48"><defs><style>.a{fill:none;stroke:#fff;stroke-linecap:round;stroke-linejoin:round}</style></defs><path fill="none" stroke="#fff" stroke-linecap="round" stroke-linejoin="round" d="M38.004 30.264a6.87 6.87 0 0 0 2.238-.79 6.478 6.478 0 0 0 3.258-5.636c0-3.59-2.907-6.5-6.493-6.5a6.47 6.47 0 0 0-4.621 1.933M4.5 30.662c1.601-3.701 3.744-7.644 7.545-9.518 3.538-1.745 3.706 1.051 4.574 4.114.691 2.44 2.453 1.726 3.855-.265 1.99-2.827 4.316-6.932 7.58-3.564 2.488 2.566 2.39 6.733 6.783 8.54"/></svg>