<svg xmlns="http://www.w3.org/2000/svg" id="Layer_1" viewBox="0 0 48 48">
  <defs>
    <style>
      .st0{fill:none;stroke:#fff;stroke-linecap:round;stroke-linejoin:round}
    </style>
  </defs>
  <circle cx="24" cy="24" r="21.5" class="st0"/>
  <path d="m10 10 .9 3.2 2.3-2.3zM13.7 28.1c-1-2.6-1-5.6 0-8.2M28.2 34.4c-2.7 1.1-5.7 1.1-8.3 0M34.3 19.9l.2.7c.8 2.4.8 5.1-.2 7.5M19.9 13.7l.8-.2c2.4-.8 5-.7 7.4.3M17.1 19l-3-2.9 4.9 1-2.9-3M31.4 33.3c.4 0 .7 0 1-.4l.4-.4c.4-.4.4-1.1 0-1.5h0c-.4-.4-1.1-.4-1.5 0l-.5.5c-.4.4-1.1.4-1.5 0h0c-.4-.4-.4-1.1 0-1.5l.4-.4c.3-.3.6-.4 1-.4M16.8 28.3l2.2 3.6-3.7-2.2 2.2 3.7-3.6-2.2M30.5 17.5l1-.9M33.4 17.5 32 19l-3-2.9 1.5-1.5" class="st0"/>
  <circle cx="16.8" cy="16.8" r="4.4" class="st0"/>
  <circle cx="31.2" cy="31.2" r="4.4" class="st0"/>
  <circle cx="31.2" cy="16.8" r="4.4" class="st0"/>
  <circle cx="16.8" cy="31.2" r="4.4" class="st0"/>
  <path d="M24 35.2V20.7M24 20.1l-2.6 2.1M26.7 22.2 24 20.1M24 2.5v2.9M24 42.6v2.9M45.5 24h-2.9M5.4 24H2.5M39.2 8.8l-2.1 2.1M10.9 37.1l-2.1 2.1M39.2 39.2l-2.1-2.1" class="st0"/>
</svg>
