<?xml version="1.0" encoding="UTF-8"?><svg id="a" xmlns="http://www.w3.org/2000/svg" viewBox="0 0 48 48"><defs><style>.b{fill:none;stroke:#fff;stroke-linecap:round;stroke-linejoin:round;}</style></defs><path class="b" d="m39.203 8.7972a21.5 21.5 0 0 0-27.148-2.6738 21.5 21.5 0 0 0-7.9186 26.104 21.5 21.5 0 0 0 24.058 12.859 21.5 21.5 0 0 0 17.306-21.087h-21.747"/><path class="b" d="m37.533 29.205a14.5 14.5 0 0 1-12.585 9.2637 14.5 14.5 0 0 1-14.345-8.92 14.5 14.5 0 0 1 3.8357-16.451 14.5 14.5 0 0 1 16.811-1.6557"/><path class="b" d="m24 31.5a7.5 7.5 0 0 1-6.4952-3.75 7.5 7.5 0 0 1-1e-6 -7.5 7.5 7.5 0 0 1 6.4952-3.75"/></svg>
