<?xml version="1.0" encoding="utf-8"?>
<svg
	version="1.1"
	xmlns="http://www.w3.org/2000/svg"
	xmlns:xlink="http://www.w3.org/1999/xlink"
	x="0%" y="0%"
	width="100%" height="100%"
	viewBox="0 0 48.0 48.0"
	enable-background="new 0 0 48.0 48.0"
	xml:space="preserve">
	<path
		fill="#FFFFFF"
		stroke="#FFFFFF"
		fill-opacity="0.024"
		stroke-opacity="1.000"
		fill-rule="nonzero"
		stroke-width="1.000"
		stroke-linejoin="round"
		stroke-linecap="square"
		d="M25.05,43.21C32.51,41.90,36.82,30.89,37.16,23.51Q37.39,21.87,37.61,21.51L38.40,14.94Q38.65,13.14,36.58,12.85Q36.50,9.17,33.78,7.25Q23.39,3.64,13.69,7.44Q10.96,9.36,10.88,13.04Q8.82,13.33,9.06,15.12L9.86,21.69Q10.08,22.06,10.30,23.70C10.64,31.08,14.96,42.09,22.93,43.21L25.05,43.21z"/>
	<path
		fill="#FFFFFF"
		stroke="#FFFFFF"
		fill-opacity="0.024"
		stroke-opacity="1.000"
		fill-rule="nonzero"
		stroke-width="1.000"
		stroke-linejoin="round"
		stroke-linecap="square"
		d="M10.47,23.24C13.14,26.86,22.61,25.40,22.61,19.25Q24.11,16.46,25.74,19.25C25.74,24.57,34.35,26.82,37.02,23.20"/>
	<path
		fill="#FFFFFF"
		stroke="#FFFFFF"
		fill-opacity="0.024"
		stroke-opacity="1.000"
		fill-rule="nonzero"
		stroke-width="1.000"
		stroke-linejoin="round"
		stroke-linecap="square"
		d="M11.02,12.96Q18.76,11.39,22.61,14.72L25.53,14.77Q29.03,11.59,36.23,12.76"/>
	<path
		fill="#FFFFFF"
		stroke="#FFFFFF"
		fill-opacity="0.024"
		stroke-opacity="1.000"
		fill-rule="nonzero"
		stroke-width="1.000"
		stroke-linejoin="round"
		stroke-linecap="square"
		d="M22.93,42.64Q22.90,40.93,22.00,36.72C21.59,34.90,19.95,34.11,22.00,34.11L25.70,34.11C27.75,34.11,26.11,34.90,25.70,36.72Q24.80,40.93,24.77,42.64"/>
	<path
		fill="#FFFFFF"
		stroke="#FFFFFF"
		fill-opacity="0.024"
		stroke-opacity="1.000"
		fill-rule="nonzero"
		stroke-width="1.000"
		stroke-linejoin="round"
		stroke-linecap="square"
		d="M18.19,32.08L30.10,32.08"/>
	<path
		fill="#FFFFFF"
		stroke="#FFFFFF"
		fill-opacity="0.024"
		stroke-opacity="1.000"
		fill-rule="nonzero"
		stroke-width="1.000"
		stroke-linejoin="round"
		stroke-linecap="square"
		d="M26.13,31.84Q25.69,30.26,26.51,29.69C29.75,27.80,28.36,25.69,26.08,27.19Q24.14,29.11,22.23,27.17C19.95,25.67,18.56,27.78,21.36,29.49Q22.61,30.23,21.91,31.78"/>
</svg>