<?xml version="1.0" encoding="UTF-8" standalone="no"?>
<!-- Created with Inkscape (http://www.inkscape.org/) -->

<svg
   width="48"
   height="48"
   viewBox="0 0 12.7 12.7"
   version="1.1"
   id="svg5"
   inkscape:version="1.2.2 (b0a8486541, 2022-12-01)"
   sodipodi:docname="cajamar.svg"
   xmlns:inkscape="http://www.inkscape.org/namespaces/inkscape"
   xmlns:sodipodi="http://sodipodi.sourceforge.net/DTD/sodipodi-0.dtd"
   xmlns="http://www.w3.org/2000/svg"
   xmlns:svg="http://www.w3.org/2000/svg">
  <sodipodi:namedview
     id="namedview7"
     pagecolor="#000000"
     bordercolor="#000000"
     borderopacity="0.25"
     inkscape:showpageshadow="2"
     inkscape:pageopacity="0"
     inkscape:pagecheckerboard="0"
     inkscape:deskcolor="#ffffff"
     inkscape:document-units="px"
     showgrid="false"
     inkscape:zoom="7.0824148"
     inkscape:cx="20.685035"
     inkscape:cy="28.027164"
     inkscape:window-width="1920"
     inkscape:window-height="1163"
     inkscape:window-x="0"
     inkscape:window-y="0"
     inkscape:window-maximized="1"
     inkscape:current-layer="layer1" />
  <defs
     id="defs2" />
  <g
     inkscape:label="Layer 1"
     inkscape:groupmode="layer"
     id="layer1">
    <path
       style="clip-rule:evenodd;opacity:1;fill-rule:evenodd;image-rendering:optimizeQuality;shape-rendering:geometricPrecision;text-rendering:geometricPrecision;stroke-width:10.00000126;stroke-dasharray:none;stroke:#ffffff;stroke-opacity:1;fill:none;stroke-linejoin:round;stroke-linecap:round"
       fill="#fdfdfd"
       d="m 320.5,186.5 c 23.828,-0.998 47.828,-1.331 72,-1 6.69074,0.0178 17.99882,8.29637 18,14 0.979,44.643 1.313,89.31 1,134 -21.934,18.144 -46.268,32.477 -73,43 -0.667,-58.333 -1.333,-116.667 -2,-175 0.0319,-5.65861 -8.004,-12.666 -16,-15 z"
       id="path2344"
       transform="matrix(0.02645833,0,0,0.02645833,0.01322916,0.01322916)"
       sodipodi:nodetypes="ccccccc" />
    <path
       style="clip-rule:evenodd;opacity:1;fill-rule:evenodd;image-rendering:optimizeQuality;shape-rendering:geometricPrecision;text-rendering:geometricPrecision;stroke-width:10.00000126;stroke-dasharray:none;stroke:#ffffff;stroke-opacity:1;fill:none;stroke-linejoin:round;stroke-linecap:round"
       fill="#fdfdfd"
       d="m 158.5,186.5 c -2.09159,0.1895 -3.89351,0.66653 -6,1.5 -6.44895,2.75062 -10.64761,9.1193 -10.5,13.5 -0.167,58.501 -0.667,116.835 -1.5,175 -15.555,-5.277 -30.222,-12.444 -44,-21.5 -10.4134,-6.259 -20.0801,-13.426 -29,-21.5 -0.3126,-44.69 0.0207,-89.357 1,-134 0.345113,-4.21607 7.519941,-12.88673 13,-13 25.813,-1.301 51.48,-1.301 77,0 z"
       id="path2336"
       transform="matrix(0.02645833,0,0,0.02645833,0.01322916,0.01322916)"
       sodipodi:nodetypes="ccccccccc" />
    <path
       style="clip-rule:evenodd;opacity:1;fill-rule:evenodd;image-rendering:optimizeQuality;shape-rendering:geometricPrecision;text-rendering:geometricPrecision;stroke-width:10.00000126;stroke-dasharray:none;stroke:#ffffff;stroke-opacity:1;fill:none;stroke-linejoin:round;stroke-linecap:round"
       fill="#fdfdfd"
       d="m 221.5,185.5 c 10.28552,-0.0833 15.777,8.444 18.5,18 1.583,-8.533 7.09513,-15.73443 14.5,-17 15,-1.333 30,-1.333 45,0 6.84271,0.81041 14.42454,9.4346 14.5,15 0.5,61.332 0.667,122.666 0.5,184 -24.39156,6.93124 -44.28022,8.50994 -72.89382,10.14187 C 212.46086,394.4718 193.16508,393.37832 166.5,385.5 c -0.996,-60.929 -1.329,-121.929 -1,-183 -0.0334,-7.6712 6.4069,-15.43296 14,-16 13.971,-0.929 27.971,-1.262 42,-1 z"
       id="path2340"
       transform="matrix(0.02645833,0,0,0.02645833,0.01322916,0.01322916)"
       sodipodi:nodetypes="ccccccccccc" />
    <circle
       style="fill:none;fill-opacity:1;stroke-width:0.26458333;stroke-dasharray:none;stroke:#ffffff;stroke-opacity:1"
       id="path6035"
       cx="6.3499999"
       cy="3.3072915"
       r="1.190625" />
    <circle
       style="fill:none;fill-opacity:1;stroke-width:0.26458333;stroke:#ffffff;stroke-opacity:1;stroke-dasharray:none"
       id="path6172"
       cy="3.5057292"
       cx="3.5586457"
       r="0.9921875" />
    <circle
       style="fill:none;fill-opacity:1;stroke-width:0.26458333;stroke:#ffffff;stroke-opacity:1;stroke-dasharray:none"
       id="path6174"
       cx="9.1413546"
       cy="3.5057292"
       r="0.9921875" />
  </g>
</svg>
