<svg xmlns="http://www.w3.org/2000/svg" xml:space="preserve" width="48" height="48"><path fill="none" stroke="#fff" stroke-linecap="round" stroke-linejoin="round" d="m35.47 38.066.998.999m1.427-3.424-3.24 3.241m4.746-6.877a2.13 2.13 0 1 1-2.13 2.13 2.13 2.13 0 0 1 2.13-2.13m6.761 3.636a8.267 8.267 0 0 1-8.267 8.267 8.267 8.267 0 0 1-8.267-8.267 8.267 8.267 0 0 1 8.267-8.267 8.267 8.267 0 0 1 8.267 8.267m-33.146-1.164 2.04-6.052 2.039 6.052m-.676-2.004h-2.727m-6.63 1.341c.377.483.85.663 1.509.663h.911c.849 0 1.536-.676 1.536-1.51v-.006c0-.834-.687-1.51-1.536-1.51H8.477c-.849 0-1.537-.677-1.537-1.511v0c0-.837.69-1.515 1.54-1.515h.907c.658 0 1.132.18 1.51.663m8.456 5.383v-6.046l3.078 6.052 3.078-6.043v6.043m-13.127-23.05 2.167 3.762m20.726-3.762-2.087 3.624M19.51 19.749a1.108 1.11 0 0 1-1.109 1.11 1.108 1.11 0 0 1-1.108-1.11 1.108 1.11 0 0 1 1.108-1.11 1.108 1.11 0 0 1 1.109 1.11m10.915 0a1.108 1.11 0 0 1-1.109 1.11 1.108 1.11 0 0 1-1.108-1.11 1.108 1.11 0 0 1 1.108-1.11 1.108 1.11 0 0 1 1.109 1.11m12.266 6.6q.46 1.497.662 3.084m-13.657 7.14H5.153a17.8 17.8 0 0 1-.652-4.8c0-10.472 8.73-18.962 19.5-18.962 5.478 0 10.429 2.197 13.97 5.734m4.72 7.804H28.118" class="a"/></svg>
