<svg xmlns="http://www.w3.org/2000/svg" xml:space="preserve" width="48" height="48"><path fill="none" stroke="#fff" stroke-linecap="round" stroke-linejoin="round" d="m13.017 34.477 2.04-6.052 2.038 6.052m-.675-2.005h-2.728m-6.63 1.342c.378.483.851.663 1.51.663h.911c.848 0 1.536-.676 1.536-1.51v-.006c0-.834-.688-1.51-1.536-1.51H8.478c-.85 0-1.537-.677-1.537-1.512v0c0-.836.69-1.514 1.54-1.514h.907c.658 0 1.132.18 1.51.663m8.456 5.382v-6.045l3.078 6.052 3.078-6.043v6.043m-13.127-23.05 2.167 3.762m20.726-3.762-2.087 3.624M19.51 19.749a1.108 1.11 0 0 1-1.109 1.11 1.108 1.11 0 0 1-1.108-1.11 1.108 1.11 0 0 1 1.108-1.11 1.108 1.11 0 0 1 1.109 1.11m10.915 0a1.108 1.11 0 0 1-1.109 1.11 1.108 1.11 0 0 1-1.108-1.11 1.108 1.11 0 0 1 1.108-1.11 1.108 1.11 0 0 1 1.109 1.11m12.266 6.6a18.5 18.5 0 0 1 .809 5.424v0c0 1.62-.214 3.235-.652 4.8H5.153a17.8 17.8 0 0 1-.652-4.8C4.5 21.3 13.23 12.81 24 12.81c5.478 0 10.429 2.197 13.97 5.733m4.72 7.805H28.118" class="t"/></svg>
