<svg xmlns="http://www.w3.org/2000/svg" xml:space="preserve" viewBox="0 0 48 48"><path d="M18.718 39.335h10.959M18.718 41.932h10.959M27.867 44.142a2.59 2.59 0 0 1-2.285 1.358h-2.769c-.99 0-1.846-.548-2.285-1.358M16.895 18.3a7.302 7.302 0 1 1 14.605 0 7.302 7.302 0 0 1-14.605 0M36.996 22.345l-1.099 2.13M37.897 15.684l-.072 3.384M36.612 10.914l.624 1.43M33.649 6.913l1.069 1.133M30.737 4.533l.277.18M27.407 3.265l.17.029M21.732 3.308l2.231-.188M15.215 6.153l3.277-1.85M10.934 11.833l1.906-3.327M10.195 18.06l-.081-2.972M13.064 25.619l-2.06-4.247M16.842 29.39l-1.614-1.182M18.228 35.263v-3.107M28.417 37.013h-8.438M30.167 32.156v3.107M33.81 27.162l-2.349 2.092M25.023 33.908l3.674 2.218M19.6 35.975l2.555-1.933M22.075 29.961l.705 1.479M28.493 30.023l-5.467-1.25M25.149 32.37l3.395-1.33M14.922 21.034l-2.992-.789M14.576 25.617l1.252-2.584M19.627 28.11l-4.08-.655M19.666 29.466l.22-.144M21.973 32.243l-2.176-1.068M15.266 8.068l-.12-.08M11.531 12.392l3.721-2.428M15.506 20.129l-4.361-5.437M20.352 26.967l-2.78-4.053M28.107 24.468l-5.294 3.055M29.599 28.769l-1.492-4.3M17.938 10.245l2.112 2.064M25.618 7.274 18.403 8.69M21.57 4.208l4.166 1.989M17.58 7.523l1.535-2.59M16.6 19.726l.075-8.953M34.933 12.986l1.354.432M32.663 7.355l.416 3.398M28.995 6.518l1.793-.451M25.949 11.212l.83-2.622M28.184 5.436l.217-.371M26.343 4.591l.298.733M31.652 13.028l-1.819.63M28.578 8.121l3.433 3.164M28.107 24.468l5.32 1.172M36.16 21.425l-8.053 3.043M34.106 13.98l2.864 5.312M31.48 16.714l1.125-2.646" style="display:inline;fill:none;stroke:#fff;stroke-width:1;stroke-linecap:round;stroke-linejoin:round;stroke-dashoffset:1.3;stroke-opacity:1"/><path d="M18.978 37.013a.75.75 0 0 1-.75.75.75.75 0 0 1-.75-.75.75.75 0 0 1 .75-.75.75.75 0 0 1 .75.75M30.917 37.013a.75.75 0 0 1-.75.75.75.75 0 0 1-.75-.75.75.75 0 0 1 .75-.75.75.75 0 0 1 .75.75M18.978 30.406a.75.75 0 0 1-.75.75.75.75 0 0 1-.75-.75.75.75 0 0 1 .75-.75.75.75 0 0 1 .75.75M30.917 30.406a.75.75 0 0 1-.75.75.75.75 0 0 1-.75-.75.75.75 0 0 1 .75-.75.75.75 0 0 1 .75.75M24.276 33.005a.75.75 0 0 1-.75.75.75.75 0 0 1-.75-.75.75.75 0 0 1 .75-.75.75.75 0 0 1 .75.75M22.073 28.383a.75.75 0 0 1-.75.75.75.75 0 0 1-.75-.75.75.75 0 0 1 .75-.75.75.75 0 0 1 .75.75M14.57 27.177a.75.75 0 0 1-.75.75.75.75 0 0 1-.75-.75.75.75 0 0 1 .75-.75.75.75 0 0 1 .75.75M35.855 26.01a.75.75 0 0 1-.75.75.75.75 0 0 1-.75-.75.75.75 0 0 1 .75-.75.75.75 0 0 1 .75.75M38.538 20.81a.75.75 0 0 1-.75.75.75.75 0 0 1-.75-.75.75.75 0 0 1 .75-.75.75.75 0 0 1 .75.75M17.335 21.473a.75.75 0 0 1-.75.75.75.75 0 0 1-.75-.75.75.75 0 0 1 .75-.75.75.75 0 0 1 .75.75M10.992 19.8a.75.75 0 0 1-.75.75.75.75 0 0 1-.75-.75.75.75 0 0 1 .75-.75.75.75 0 0 1 .75.75M10.816 13.348a.75.75 0 0 1-.75.75.75.75 0 0 1-.75-.75.75.75 0 0 1 .75-.75.75.75 0 0 1 .75.75M17.44 9.026a.75.75 0 0 1-.75.75.75.75 0 0 1-.75-.75.75.75 0 0 1 .75-.75.75.75 0 0 1 .75.75M14.446 7.012a.75.75 0 0 1-.75.75.75.75 0 0 1-.75-.75.75.75 0 0 1 .75-.75.75.75 0 0 1 .75.75M20.741 3.455a.75.75 0 0 1-.75.75.75.75 0 0 1-.75-.75.75.75 0 0 1 .75-.75.75.75 0 0 1 .75.75M28.051 6.944a.75.75 0 0 1-.75.75.75.75 0 0 1-.75-.75.75.75 0 0 1 .75-.75.75.75 0 0 1 .75.75M26.434 2.974a.75.75 0 0 1-.75.75.75.75 0 0 1-.75-.75.75.75 0 0 1 .75-.75.75.75 0 0 1 .75.75M30.02 3.58a.75.75 0 0 1-.75.75.75.75 0 0 1-.75-.75.75.75 0 0 1 .75-.75.75.75 0 0 1 .75.75M33.204 5.648a.75.75 0 0 1-.75.75.75.75 0 0 1-.75-.75.75.75 0 0 1 .75-.75.75.75 0 0 1 .75.75M34.038 12.462a.75.75 0 0 1-.75.75.75.75 0 0 1-.75-.75.75.75 0 0 1 .75-.75.75.75 0 0 1 .75.75M38.684 13.942a.75.75 0 0 1-.75.75.75.75 0 0 1-.75-.75.75.75 0 0 1 .75-.75.75.75 0 0 1 .75.75M36.663 9.312a.75.75 0 0 1-.75.75.75.75 0 0 1-.75-.75.75.75 0 0 1 .75-.75.75.75 0 0 1 .75.75" style="display:inline;fill:#fff;stroke-width:1;stroke-linecap:round;stroke-linejoin:round;stroke-dashoffset:1.3"/></svg>