<svg xmlns="http://www.w3.org/2000/svg" xml:space="preserve" viewBox="0 0 48 48"><path d="m23.272 15.077-6.071 5.186c-.422.35-.488 1.182-.154 1.615l.535.692c.347.45 1.078.414 1.583.151l3.789-1.97c.624-.326 1.19-.122 1.633.32l6.716 6.705c.82.82.464 2.256-.174 2.61-.493.272-1.168.34-1.841.417-.164.52-.474.88-.877 1.033l-2.15-.064c-.183.89-1.717 1.413-1.99 1.017-.961-1.4-3.16.384-4.262-.64l-3.703-3.438C14.668 27.191 8.63 25.841 3 25.502l3.595-10.224 7.38 4.096c.317.176.765.164 1.089 0z" style="fill:none;stroke:#fff;stroke-width:1;stroke-linecap:round;stroke-linejoin:round;stroke-dashoffset:1.3;stroke-opacity:1"/><path d="m23.272 15.077 8.392 3.927c.884.413 1.408.395 2.403 0l8.46-3.357L45 26.864H34.997c-2.27 0-3.694.734-3.694.734" style="fill:none;stroke:#fff;stroke-width:1;stroke-linecap:round;stroke-linejoin:round;stroke-dashoffset:1.3;stroke-opacity:1"/></svg>