<svg xmlns="http://www.w3.org/2000/svg" xml:space="preserve" viewBox="0 0 48 48"><path d="M39.233 13.17v8.534M39.233 18.183c0-1.178.955-2.133 2.133-2.133h0c1.179 0 2.134.955 2.134 2.133v6.586M36.493 20.63a2.13 2.13 0 0 1-1.853 1.074v0a2.134 2.134 0 0 1-2.133-2.134v-1.387c0-1.178.955-2.133 2.133-2.133v0c.792 0 1.483.43 1.85 1.07M29.767 19.57a2.134 2.134 0 0 1-2.133 2.134h0A2.134 2.134 0 0 1 25.5 19.57v-1.387c0-1.178.955-2.133 2.134-2.133h0c1.178 0 2.133.955 2.133 2.133M29.767 21.704V16.05M14.324 18.842v.035a2.827 2.827 0 0 1-2.827 2.827h0a2.827 2.827 0 0 1-2.827-2.827v-2.88a2.827 2.827 0 0 1 2.827-2.827v0a2.827 2.827 0 0 1 2.827 2.827v.034M22.902 18.802A2.9 2.9 0 0 1 20 21.704a2.9 2.9 0 0 1-2.902-2.902A2.9 2.9 0 0 1 20 15.9a2.9 2.9 0 0 1 2.902 2.902M15.133 34.83a5.025 5.427 0 0 1-.158-1.349A5.025 5.427 0 0 1 20 28.054a5.025 5.427 0 0 1 5.024 5.427v0a5.025 5.427 0 0 1-.156 1.345M24.09 23.832A5.025 5.427 0 0 1 20 26.107a5.025 5.427 0 0 1-4.092-2.277M28.331 34.818V23.83l5.5 11 5.5-10.983V34.83M10.58 31.186H5.708M4.5 34.83l3.644-11 3.644 11" style="fill:none;stroke:#fff;stroke-width:1;stroke-linecap:round;stroke-linejoin:round"/></svg>