<svg xmlns="http://www.w3.org/2000/svg" xml:space="preserve" viewBox="0 0 48 48"><path d="M21.177 24.598c-.187-.91-1.053-1.65-1.933-1.65v0c-.88 0-1.44.74-1.253 1.65l.346 1.681c.188.912 1.053 1.65 1.933 1.65v0c.88 0 1.441-.738 1.254-1.65H19.93m12.262-3.33c.883 0 1.745.735 1.933 1.65l.347 1.68c.188.915-.371 1.65-1.254 1.65s-1.745-.735-1.933-1.65l-.346-1.68c-.189-.915.37-1.65 1.253-1.65zm-2.36 3.31.004.02c.188.912-.373 1.65-1.253 1.65v0c-.88 0-1.746-.738-1.933-1.65l-.346-1.68c-.188-.912.373-1.65 1.253-1.65v0c.88 0 1.746.738 1.933 1.65l.004.02m-4.926 3.31-1.026-4.98m-1.593 0h3.186m5.777-8.118 1.1 4.907v0h-5.68l-1.1-4.907Zm-18.57-2.63L5.5 19.866m11.032 11.67-9.21 10.32m30.817-10.32L28.354 42.5m5.604-30.298 4.18 19.334v0H16.54l-4.181-19.334ZM9.5 5.5h29c2.216 0 4 1.784 4 4v29c0 2.216-1.784 4-4 4h-29c-2.216 0-4-1.784-4-4v-29c0-2.216 1.784-4 4-4z" class="t" style="display:inline;fill:none;stroke:#fff;stroke-width:1;stroke-linecap:round;stroke-linejoin:round;stroke-opacity:1"/></svg>