<?xml version="1.0" encoding="UTF-8" standalone="no"?>
<svg
   id="Layer_1"
   data-name="Layer 1"
   version="1.1"
   viewBox="0 0 48 48"
   sodipodi:docname="h3.svg"
   xml:space="preserve"
   inkscape:version="1.4.1 (93de688d07, 2025-03-30)"
   xmlns:inkscape="http://www.inkscape.org/namespaces/inkscape"
   xmlns:sodipodi="http://sodipodi.sourceforge.net/DTD/sodipodi-0.dtd"
   xmlns="http://www.w3.org/2000/svg"
   xmlns:svg="http://www.w3.org/2000/svg"><sodipodi:namedview
     id="namedview1"
     pagecolor="#616161"
     bordercolor="#000000"
     borderopacity="0.25"
     inkscape:showpageshadow="2"
     inkscape:pageopacity="0.0"
     inkscape:pagecheckerboard="true"
     inkscape:deskcolor="#767676"
     inkscape:clip-to-page="true"
     showguides="true"
     inkscape:zoom="15.210417"
     inkscape:cx="26.067661"
     inkscape:cy="23.832351"
     inkscape:window-width="1920"
     inkscape:window-height="1200"
     inkscape:window-x="0"
     inkscape:window-y="0"
     inkscape:window-maximized="1"
     inkscape:current-layer="Layer_1"><sodipodi:guide
       position="12.043854,27.343961"
       orientation="1,0"
       id="guide1"
       inkscape:locked="false" /><sodipodi:guide
       position="35.86159,20.843023"
       orientation="1,0"
       id="guide2"
       inkscape:locked="false" /><sodipodi:guide
       position="20.715924,30.88859"
       orientation="0,-1"
       id="guide5"
       inkscape:locked="false" /><sodipodi:guide
       position="20.591041,32.687042"
       orientation="1,0"
       id="guide7"
       inkscape:locked="false" /><sodipodi:guide
       position="24.324785,26.400847"
       orientation="0,-1"
       id="guide8"
       inkscape:locked="false" /></sodipodi:namedview><defs
     id="defs1"><style
       id="style1">
      .cls-1 {
        fill: none;
        stroke: #fff;
        stroke-linecap: round;
        stroke-linejoin: round;
      }
    </style></defs><path
     id="path7"
     style="display:inline;fill:#c1c1c1;fill-opacity:0;stroke:#ffffff;stroke-linejoin:round;stroke-opacity:1;stroke-linecap:round"
     d="m 24.303518,21.590379 -3.153938,0.01953 -0.01331,8.151609 2.734131,0.0098 M 12.483416,16.98916 l -0.01033,2.966466 8.275537,-0.04278 -0.0011,-2.989882 m 11.070306,24.574525 c 2.297657,-2.167525 3.600049,-5.18644 3.600184,-8.345141 1.32e-4,-2.785957 -1.01344,-5.476784 -2.851563,-7.570313 1.8184,-2.088433 2.820114,-4.764064 2.820313,-7.533203 C 35.386449,11.712766 30.250124,6.5764414 23.914062,6.5761719 v 0 C 17.94307,6.5764266 12.97044,11.156405 12.48015,17.107234 m 8.250299,-0.05252 c 0.415418,-1.598519 1.858427,-2.714454 3.510043,-2.714454 2.002935,0 3.626634,1.623699 3.626634,3.626634 v 0 c 0,1.980687 -1.589134,3.591117 -3.569576,3.622279 m -0.478192,8.180529 c 1.877629,0.158949 3.320719,1.729363 3.320719,3.613708 v 0 c 0,0.795476 -0.261542,1.568888 -0.744337,2.201099 l 5.422089,5.91298"
     sodipodi:nodetypes="ccccccccccccssccsssccssc" /></svg>
