<svg xmlns="http://www.w3.org/2000/svg" xml:space="preserve" id="svg1" version="1.1" viewBox="0 0 48 48"><defs id="defs1"><style id="style1">.a{fill:none;stroke:#fff;stroke-linecap:round;stroke-linejoin:round}</style></defs><path id="path54078" d="M13.384 15.41c-7.436-2.317-5.546.598-3.343 4.125-1.022 1.563-1.252 2.285-2.378 3.676-.876 1.081-1.855 1.776-3.163 1.859.018 1.074.838 1.682 2.193 2.316-.319.43-.838.789-1.564 1.044C7.84 33.322 16.185 37.028 24 37.028c7.815 0 16.162-3.706 18.87-8.598-.725-.255-1.244-.614-1.563-1.044 1.355-.634 2.175-1.242 2.193-2.316-1.308-.083-2.287-.778-3.163-1.859-1.126-1.39-1.356-2.113-2.378-3.676 2.203-3.527 4.093-6.442-3.343-4.126-2.279-2.86-5.51-4.437-10.616-4.437s-8.337 1.577-10.616 4.437z" style="fill:none;fill-opacity:0;stroke:#fff;stroke-width:1;stroke-linecap:round;stroke-linejoin:round;stroke-opacity:1"/><path id="path54076" d="M19.942 24.877c-1.332.687-1.816.764-2.902.764-2.706 0-4.9-1.76-4.9-3.933 0-2.172 2.194-3.933 4.9-3.933 1.252 0 2.308.307 3.26.998.954.691 1.708 2.358 3.7 2.358 1.992 0 2.746-1.667 3.7-2.358.952-.69 2.008-.998 3.26-.998 2.706 0 4.9 1.761 4.9 3.933 0 2.173-2.194 3.933-4.9 3.933-1.086 0-1.57-.077-2.902-.764-1.333-.687-1.724-1.727-4.058-1.727-2.334 0-2.725 1.04-4.058 1.727z" style="fill:none;fill-opacity:0;stroke:#fff;stroke-width:1;stroke-linecap:round;stroke-linejoin:round;stroke-opacity:1"/><path id="path54074" d="M18.452 21.775a1.053.875 0 0 1-1.053.875 1.053.875 0 0 1-1.054-.875A1.053.875 0 0 1 17.4 20.9a1.053.875 0 0 1 1.053.875z" style="fill:none;fill-opacity:0;stroke:#fff;stroke-width:1;stroke-linecap:round;stroke-linejoin:round;stroke-opacity:1"/><path id="path54072" d="M29.548 21.775a1.053.875 0 0 0 1.053.875 1.053.875 0 0 0 1.054-.875A1.053.875 0 0 0 30.6 20.9a1.053.875 0 0 0-1.053.875z" style="fill:none;fill-opacity:0;stroke:#fff;stroke-width:1;stroke-linecap:round;stroke-linejoin:round;stroke-opacity:1"/><path id="path54070" d="M18.438 29.517a1.926 1.925 0 0 1-1.926 1.925 1.926 1.925 0 0 1-1.927-1.925 1.926 1.925 0 0 1 1.927-1.924 1.926 1.925 0 0 1 1.926 1.924z" style="fill:none;fill-opacity:0;stroke:#fff;stroke-width:1;stroke-linecap:round;stroke-linejoin:round;stroke-opacity:1"/><path id="path54068" d="M33.415 29.517a1.926 1.925 0 0 1-1.927 1.925 1.926 1.925 0 0 1-1.926-1.925 1.926 1.925 0 0 1 1.926-1.924 1.926 1.925 0 0 1 1.927 1.924z" style="fill:none;fill-opacity:0;stroke:#fff;stroke-width:1;stroke-linecap:round;stroke-linejoin:round;stroke-opacity:1"/><path id="path54066" d="M24 31.471v1.504" style="fill:none;fill-opacity:0;stroke:#fff;stroke-width:1;stroke-linecap:round;stroke-linejoin:round;stroke-opacity:1"/><path id="path54064" d="M28.432 27.741c-.558.647-1.527 1.087-2.46 1-.827-.077-1.845-.623-1.972-1.615-.127.992-1.145 1.538-1.972 1.615-.933.087-1.902-.353-2.46-1" style="fill:none;fill-opacity:0;stroke:#fff;stroke-width:1;stroke-linecap:round;stroke-linejoin:round;stroke-opacity:1"/><path id="path53998" d="M25.294 28.577A1.314 1.312 0 0 1 24 29.662a1.314 1.312 0 0 1-1.294-1.085" style="fill:none;fill-opacity:0;stroke:#fff;stroke-width:1;stroke-linecap:round;stroke-linejoin:round;stroke-opacity:1"/></svg>