<?xml version="1.0" encoding="utf-8"?>
<svg
	version="1.1"
	xmlns="http://www.w3.org/2000/svg"
	xmlns:xlink="http://www.w3.org/1999/xlink"
	x="0%" y="0%"
	width="100%" height="100%"
	viewBox="0 0 48.0 48.0"
	enable-background="new 0 0 48.0 48.0"
	xml:space="preserve">
	<path
		fill="#FFFFFF"
		stroke="#FFFFFF"
		fill-opacity="0.000"
		stroke-opacity="1.000"
		fill-rule="nonzero"
		stroke-width="1.000"
		stroke-linejoin="round"
		stroke-linecap="square"
		d="M25.25,17.20C28.03,17.20,30.29,19.41,30.29,22.14C30.29,24.86,28.03,27.07,25.25,27.07C22.46,27.07,20.20,24.86,20.20,22.14C20.20,19.41,22.46,17.20,25.25,17.20z"/>
	<path
		fill="#FFFFFF"
		stroke="#FFFFFF"
		fill-opacity="0.000"
		stroke-opacity="1.000"
		fill-rule="nonzero"
		stroke-width="1.000"
		stroke-linejoin="round"
		stroke-linecap="square"
		d="M12.03,30.67C12.74,31.66,13.46,32.64,14.07,33.15C14.69,33.66,15.19,33.69,15.63,33.59C16.07,33.49,16.44,33.26,16.66,32.89C16.88,32.51,16.95,31.99,17.01,31.68C17.08,31.37,17.15,31.27,17.35,31.39C17.54,31.51,17.86,31.85,18.24,31.79C18.61,31.72,19.04,31.25,19.22,30.83C19.41,30.41,19.36,30.05,19.30,29.73C19.24,29.40,19.18,29.12,19.11,28.83"/>
	<path
		fill="#FFFFFF"
		stroke="#FFFFFF"
		fill-opacity="0.000"
		stroke-opacity="1.000"
		fill-rule="nonzero"
		stroke-width="1.000"
		stroke-linejoin="round"
		stroke-linecap="square"
		d="M20.06,23.57L18.87,24.56L10.50,19.49L7.58,22.60L5.88,24.12C5.62,22.79,5.36,21.45,5.30,20.36C5.23,19.26,5.35,18.42,5.54,17.56C5.72,16.70,5.96,15.84,6.32,14.96C6.69,14.09,7.17,13.21,7.62,12.51C8.07,11.81,8.48,11.28,8.86,10.79C9.24,10.30,9.59,9.83,10.16,9.29C10.73,8.74,11.51,8.12,12.21,7.61C12.92,7.11,13.54,6.73,14.30,6.34C15.06,5.95,15.95,5.55,16.69,5.26C17.42,4.97,17.99,4.79,18.59,4.67C19.19,4.54,19.81,4.49,20.35,4.43C20.88,4.38,21.31,4.33,21.90,4.31C22.48,4.29,23.21,4.30,23.89,4.33C24.58,4.36,25.23,4.42,25.93,4.54C26.63,4.67,27.38,4.88,28.14,5.11C28.89,5.33,29.65,5.58,30.29,5.81C30.92,6.03,31.43,6.24,32.03,6.55C32.63,6.86,33.31,7.27,33.89,7.67C34.47,8.07,34.95,8.45,35.34,8.80C35.74,9.14,36.05,9.45,36.56,10.06C37.07,10.67,37.79,11.58,38.30,12.37C38.82,13.16,39.13,13.83,39.45,14.67C39.77,15.51,40.09,16.52,40.25,17.18C40.41,17.84,40.40,18.15,40.45,18.56C40.50,18.96,40.60,19.46,40.55,20.13C40.51,20.80,40.31,21.64,40.12,22.47L38.59,20.69L37.06,18.90L32.65,22.58L30.80,21.72"/>
	<path
		fill="#FFFFFF"
		stroke="#FFFFFF"
		fill-opacity="0.000"
		stroke-opacity="1.000"
		fill-rule="nonzero"
		stroke-width="1.000"
		stroke-linejoin="round"
		stroke-linecap="square"
		d="M7.79,22.79C7.74,23.62,7.68,24.46,7.63,25.07C7.58,25.67,7.53,26.04,7.49,26.63C7.45,27.21,7.42,28.01,7.45,28.70C7.47,29.40,7.56,29.99,7.74,30.76C7.93,31.52,8.20,32.46,8.37,33.06C8.53,33.67,8.59,33.94,8.68,34.20C8.78,34.46,8.93,34.69,9.20,35.07C9.47,35.44,9.87,35.94,10.28,36.35C10.69,36.76,11.10,37.08,11.42,37.32C11.75,37.56,11.99,37.72,12.44,38.02C12.89,38.31,13.55,38.74,14.13,38.99C14.71,39.24,15.21,39.30,15.57,39.38C15.93,39.46,16.15,39.56,16.60,39.65C17.05,39.75,17.75,39.84,18.38,39.91C19.02,39.99,19.60,40.05,20.32,40.12C21.03,40.18,21.88,40.25,22.81,40.32C23.74,40.40,24.75,40.47,25.82,40.42C26.89,40.36,28.02,40.17,29.16,39.95C30.29,39.72,31.43,39.47,32.21,39.22C32.99,38.98,33.41,38.73,34.07,38.34C34.73,37.96,35.62,37.42,36.34,36.78C37.05,36.13,37.58,35.37,37.97,34.80C38.36,34.22,38.61,33.82,38.83,33.27C39.05,32.72,39.24,32.02,39.40,31.28C39.56,30.55,39.69,29.79,39.73,29.05C39.77,28.31,39.72,27.60,39.59,26.76C39.46,25.92,39.25,24.97,39.08,24.08C38.91,23.18,38.77,22.36,38.69,21.85C38.61,21.34,38.60,21.15,38.58,20.97"/>
	<path
		fill="#FFFFFF"
		stroke="#FFFFFF"
		fill-opacity="0.000"
		stroke-opacity="1.000"
		fill-rule="nonzero"
		stroke-width="1.000"
		stroke-linejoin="round"
		stroke-linecap="square"
		d="M8.62,34.31C8.00,34.52,7.38,34.73,7.12,35.01C6.87,35.28,6.97,35.63,7.20,36.00C7.43,36.37,7.79,36.76,8.10,37.03C8.41,37.31,8.66,37.45,9.03,37.62C9.39,37.78,9.87,37.97,10.36,38.15C10.86,38.33,11.38,38.49,11.83,38.59C12.28,38.69,12.65,38.73,12.86,38.74C13.07,38.74,13.10,38.72,13.14,38.69"/>
	<path
		fill="#FFFFFF"
		stroke="#FFFFFF"
		fill-opacity="0.000"
		stroke-opacity="1.000"
		fill-rule="nonzero"
		stroke-width="1.000"
		stroke-linejoin="round"
		stroke-linecap="square"
		d="M36.34,21.94C36.75,21.94,37.09,22.28,37.09,22.69C37.09,23.11,36.75,23.44,36.34,23.44C35.92,23.44,35.59,23.11,35.59,22.69C35.59,22.28,35.92,21.94,36.34,21.94z"/>
	<path
		fill="#FFFFFF"
		stroke="#FFFFFF"
		fill-opacity="0.000"
		stroke-opacity="1.000"
		fill-rule="nonzero"
		stroke-width="1.000"
		stroke-linejoin="round"
		stroke-linecap="square"
		d="M26.41,21.58C26.83,21.58,27.16,21.92,27.16,22.33C27.16,22.75,26.83,23.08,26.41,23.08C26.00,23.08,25.66,22.75,25.66,22.33C25.66,21.92,26.00,21.58,26.41,21.58z"/>
	<path
		fill="#FFFFFF"
		stroke="#FFFFFF"
		fill-opacity="0.000"
		stroke-opacity="1.000"
		fill-rule="nonzero"
		stroke-width="1.000"
		stroke-linejoin="round"
		stroke-linecap="square"
		d="M33.48,27.71C33.80,25.64,32.76,25.43,31.17,26.32L33.48,27.71z"/>
</svg>