<?xml version="1.0" encoding="UTF-8"?>
<!-- Created with Inkscape (http://www.inkscape.org/) -->
<svg version="1.1" viewBox="0 0 48 48" xml:space="preserve" xmlns="http://www.w3.org/2000/svg"><defs><style>
      .cls-1 {
        fill: none;
        stroke: #fff;
        stroke-linecap: round;
        stroke-linejoin: round;
      }
    </style></defs><g transform="translate(-176,-46)">
		<g id="b" transform="translate(5.3931 113.49)">
	
	<g transform="matrix(.82381 0 0 .82381 145.53 -25.938)" stroke-width="1.2139"><g stroke-width="1.2139"><g transform="translate(-169.91 -71.889)">
		<g stroke-width="1.2139">
			<path class="st5" d="m223.35 48.65v-8h2.619c1.4806 0 2.681 1.2029 2.681 2.6867 0 1.4838-1.2003 2.6867-2.681 2.6867h-2.619"/>
				<line class="st5" x1="225.97" x2="228.59" y1="46.024" y2="48.648" stroke-width="1.2139"/>
			
		</g>
	</g><g transform="translate(-149.28 -71.889)">
		<g stroke-width="1.2139">
			<path class="st5" d="m223.35 48.65v-8h2.619c1.4806 0 2.681 1.2029 2.681 2.6867 0 1.4838-1.2003 2.6867-2.681 2.6867h-2.619" fill="none" stroke="#fff" stroke-linecap="round" stroke-linejoin="round" stroke-miterlimit="10"/>
				<line class="st5" x1="225.97" x2="228.59" y1="46.024" y2="48.648" fill="none" stroke="#fff" stroke-linecap="round" stroke-linejoin="round" stroke-miterlimit="10" stroke-width="1.2139"/>		
		</g>
	</g><g transform="translate(-83.565 -71.889)">
		<line class="st5" x1="123.35" x2="123.35" y1="40.65" y2="48.65"/>
		<line class="st5" x1="128.65" x2="128.65" y1="40.65" y2="48.65"/>
		<line class="st5" x1="123.35" x2="128.65" y1="44.635" y2="44.635"/>
	</g><g transform="translate(-3.0327 -71.889)">
		<path class="st5" d="m66.65 44.65c1.1046 0 2 0.89543 2 2s-0.89543 2-2 2h-3.3v-8l3.3 4e-6c1.1046 0 2 0.89543 2 2s-0.89543 2-2 2z"/>
		<line class="st5" x1="66.65" x2="63.35" y1="44.65" y2="44.65"/>
	</g><g transform="translate(-6.7391 -71.889)">
		
			<line class="st5" x1="57.73" x2="54.264" y1="45.974" y2="45.974" stroke-width="1.2139"/>
		
		<polyline class="st5" points="53.4 48.626 56 40.65 58.6 48.65"/>
	</g><path class="st5" d="m69.846-23.239c-1.4636 0-2.65-1.1864-2.65-2.65v-2.7c0-1.4636 1.1864-2.65 2.65-2.65s2.65 1.1864 2.65 2.65v2.7c0 1.4636-1.1864 2.65-2.65 2.65z"/><g transform="translate(-77.722 -60.021)">
		<line class="st5" x1="136" x2="136" y1="40.65" y2="48.65" stroke-width="1.2139"/>
	</g><g transform="translate(-169.28 -60.021)">
		<line class="st5" x1="243.35" x2="248.65" y1="40.65" y2="40.65"/>
		<line class="st5" x1="246" x2="246" y1="48.65" y2="40.65"/>
	</g><g transform="translate(-56.305 -60.021)" fill="none" stroke="#fff" stroke-linecap="round" stroke-linejoin="round" stroke-miterlimit="10">
		<line class="st5" x1="123.35" x2="123.35" y1="40.65" y2="48.65"/>
		<line class="st5" x1="128.65" x2="128.65" y1="40.65" y2="48.65"/>
		<line class="st5" x1="123.35" x2="128.65" y1="44.635" y2="44.635"/>
	</g><g transform="translate(-41.454 -60.021)">
		<line class="st5" x1="94" x2="96.608" y1="44.65" y2="44.65"/>
		<polyline class="st5" points="98 48.65 94 48.65 94 40.65 98 40.65"/>
	</g><g transform="translate(-64.217 -60.021)">
		<path class="st5" d="m104 48.65"/>
		<line class="st5" x1="104" x2="106.6" y1="44.65" y2="44.65"/>
		<polyline class="st5" points="104 48.65 104 40.65 108 40.65"/>
	</g><g transform="translate(-177.84 -60.021)">
		<g stroke-width="1.2139">
			<path class="st5" d="m223.35 48.65v-8h2.619c1.4806 0 2.681 1.2029 2.681 2.6867 0 1.4838-1.2003 2.6867-2.681 2.6867h-2.619" fill="none" stroke="#fff" stroke-linecap="round" stroke-linejoin="round" stroke-miterlimit="10"/>
		
		
			
				<line class="st5" x1="225.97" x2="228.59" y1="46.024" y2="48.648" fill="none" stroke="#fff" stroke-linecap="round" stroke-linejoin="round" stroke-miterlimit="10" stroke-width="1.2139"/>
			
		</g>
	</g><path class="st5" d="m65.31-16.721c0-1.4636-1.1864-2.65-2.65-2.65-1.4636 0-2.65 1.1864-2.65 2.65v2.7c0 1.4636 1.1864 2.65 2.65 2.65s2.65-1.1864 2.65-2.65h-2.65"/></g></g>
	
</g></g><rect class="cls-1" x="4.5" y="8.5" width="39" height="31" rx="4" ry="4"/><style type="text/css">
	.st0{display:none;}
	.st1{display:inline;}
	.st5{fill:none;stroke:#FFFFFF;stroke-linecap:round;stroke-linejoin:round;stroke-miterlimit:10;}
	.st6{fill:#FFFFFF;}
</style></svg>
