<?xml version="1.0" encoding="UTF-8"?><svg id="a" xmlns="http://www.w3.org/2000/svg" viewBox="0 0 48 48"><defs><style>.d{fill:none;stroke:#fff;stroke-linecap:round;stroke-linejoin:round;}</style></defs><path class="d" d="m25.501 2.5524a21.5 21.5 0 0119.999 21.448 21.5 21.5 0 01-19.996 21.447"/><path class="d" d="m22.496 45.447a21.5 21.5 0 01-19.996-21.447 21.5 21.5 0 0119.996-21.447"/><path class="d" d="m9.8295 22.497a14.25 14.25 0 0114.171-12.747 14.25 14.25 0 0114.171 12.75"/><path class="d" d="m38.171 25.503a14.25 14.25 0 01-14.171 12.747 14.25 14.25 0 01-14.171-12.747"/><path class="d" d="m27.5 30.062c-2.7438 1.5841-6.2095 1.1279-8.4497-1.1124-2.2403-2.2403-2.6966-5.706-1.1124-8.4497s4.8136-4.0815 7.8739-3.2615 5.1883 3.5932 5.1883 6.7615h-8.5"/></svg>
