<?xml version="1.0" encoding="UTF-8" standalone="no"?>
<svg
   viewBox="0 0 48 48"
   version="1.1"
   id="svg1"
   sodipodi:docname="hermine.svg"
   xml:space="preserve"
   inkscape:version="1.4.3 (0d15f75042, 2025-12-25)"
   xmlns:inkscape="http://www.inkscape.org/namespaces/inkscape"
   xmlns:sodipodi="http://sodipodi.sourceforge.net/DTD/sodipodi-0.dtd"
   xmlns="http://www.w3.org/2000/svg"
   xmlns:svg="http://www.w3.org/2000/svg"><sodipodi:namedview
     id="namedview1"
     pagecolor="#000000"
     bordercolor="#000000"
     borderopacity="0.25"
     inkscape:showpageshadow="2"
     inkscape:pageopacity="0.0"
     inkscape:pagecheckerboard="0"
     inkscape:deskcolor="#d1d1d1"
     showguides="false"
     inkscape:zoom="16"
     inkscape:cx="19.53125"
     inkscape:cy="24.71875"
     inkscape:window-width="2648"
     inkscape:window-height="1427"
     inkscape:window-x="0"
     inkscape:window-y="0"
     inkscape:window-maximized="1"
     inkscape:current-layer="svg1"
     showgrid="true"><inkscape:grid
       id="grid9"
       units="px"
       originx="0"
       originy="0"
       spacingx="0.1"
       spacingy="0.1"
       empcolor="#0099e5"
       empopacity="0.30196078"
       color="#0099e5"
       opacity="0.14902"
       empspacing="10"
       enabled="true"
       visible="true"
       dotted="false"
       snapvisiblegridlinesonly="true" /></sodipodi:namedview><defs
     id="defs1"><style
       id="style1">.a{fill:none;stroke:#fff;stroke-linecap:round;stroke-linejoin:round;}</style><style
       id="style1-6">.c{fill:none;stroke:#fff;stroke-linecap:round;stroke-linejoin:round;}</style><style
       id="style1-5">.q{fill:#fff;}.r,.s{fill:none;stroke:#fff;stroke-linecap:round;stroke-linejoin:round;}.s{stroke-width:1px;}</style><style
       id="style1-4">.q{fill:#fff;}.r,.s{fill:none;stroke:#fff;stroke-linecap:round;stroke-linejoin:round;}.s{stroke-width:1px;}</style></defs><path
     id="path2"
     style="fill:none;stroke:#ffffff;stroke-width:1;stroke-linecap:round;stroke-linejoin:round;stroke-dasharray:none"
     d="m 21.695312,39.498047 0.580079,4.5 h 3.419921 l 0.59961,-4.5 3.458984,-0.925781 2.751953,3.607422 2.960938,-1.708985 -1.730469,-4.197265 2.533203,-2.53125 4.1875,1.748046 1.708985,-2.960937 -3.597657,-2.769531 0.927735,-3.457032 4.5,-0.582031 v -3.417969 l -4.5,-0.601562 -0.923828,-3.457031 3.605468,-2.753907 -1.708984,-2.960937 -4.197266,1.730469 -2.53125,-2.53125 L 35.488281,7.5410156 32.527344,5.8300781 29.757812,9.4277344 26.300781,8.5 25.71875,4 h -3.417969 l -0.601562,4.5 -3.457031,0.9257812 -2.753907,-3.6074218 -2.960937,1.7089844 1.730468,4.1972652 -2.53125,2.53125 -4.1874995,-1.746093 -1.7109375,2.958984 3.5976562,2.769531 -0.9277343,3.458985 -4.5,0.580078 v 3.419922 l 4.5,0.599609 0.9257812,3.457031 -3.6074219,2.753906 1.7089844,2.960938 4.1972654,-1.730469 2.53125,2.533203 -1.746094,4.1875 2.960938,1.708985 2.769531,-3.597657 z"
     sodipodi:nodetypes="ccccccccccccccccccccccccccccccccccccccccccccccccc" /><circle
     style="display:inline;fill:none;stroke:#ffffff;stroke-width:1;stroke-linecap:round;stroke-linejoin:round;stroke-dasharray:none"
     id="path1-6"
     cx="24"
     cy="24"
     r="13.192916" /></svg>
