<svg xmlns="http://www.w3.org/2000/svg" xml:space="preserve" id="svg1" version="1.1" viewBox="0 0 48 48"><defs id="defs1"><style id="style1">.a{fill:none;stroke:#fff;stroke-linecap:round;stroke-linejoin:round}</style></defs><path id="path24931" d="M33.578 19.376h8.146c.43 0 .776.346.776.777v19.785c0 .43-.346.777-.776.777h-8.146a.775.775 0 0 1-.776-.777V20.153c0-.43.346-.777.776-.777z" style="fill:none;stroke:#fff;stroke-width:1;stroke-linecap:round;stroke-linejoin:round;stroke-opacity:1"/><path id="path24929" d="M41.724 7.285c.43 0 .776.347.776.777v8.359c0 .43-.346.777-.776.777h-8.146a.775.775 0 0 1-.776-.777v-3.766z" style="fill:none;stroke:#fff;stroke-width:1;stroke-linecap:round;stroke-linejoin:round;stroke-opacity:1"/><path id="path24927" d="M28.06 15.31c.43 0 .776.347.776.778v23.85c0 .43-.346.777-.776.777h-8.146a.775.775 0 0 1-.776-.777V20.68Z" style="fill:none;stroke:#fff;stroke-width:1;stroke-linecap:round;stroke-linejoin:round;stroke-opacity:1"/><path id="path24925" d="M14.422 23.46c.43 0 .776.347.776.778v15.7c0 .43-.346.777-.776.777H6.276a.775.775 0 0 1-.776-.777V28.83Z" style="fill:none;stroke:#fff;stroke-width:1;stroke-linecap:round;stroke-linejoin:round;stroke-opacity:1"/><path id="path24880" d="M15.199 34.879h3.94" style="fill:none;stroke:#fff;stroke-width:1;stroke-linecap:round;stroke-linejoin:round;stroke-opacity:1"/></svg>