<?xml version="1.0" encoding="UTF-8" standalone="no"?>
<svg
   viewBox="0 0 48 48"
   version="1.1"
   id="svg1"
   sodipodi:docname="hide_online.svg"
   inkscape:version="1.2.2 (b0a8486541, 2022-12-01)"
   xml:space="preserve"
   xmlns:inkscape="http://www.inkscape.org/namespaces/inkscape"
   xmlns:sodipodi="http://sodipodi.sourceforge.net/DTD/sodipodi-0.dtd"
   xmlns="http://www.w3.org/2000/svg"
   xmlns:svg="http://www.w3.org/2000/svg"><sodipodi:namedview
     id="namedview1"
     pagecolor="#505050"
     bordercolor="#eeeeee"
     borderopacity="1"
     inkscape:showpageshadow="0"
     inkscape:pageopacity="0"
     inkscape:pagecheckerboard="0"
     inkscape:deskcolor="#505050"
     inkscape:zoom="12.59534"
     inkscape:cx="15.640706"
     inkscape:cy="24.374095"
     inkscape:window-width="1918"
     inkscape:window-height="1053"
     inkscape:window-x="0"
     inkscape:window-y="0"
     inkscape:window-maximized="1"
     inkscape:current-layer="svg1"
     showgrid="false" /><defs
     id="defs1"><style
       id="style1">.a { fill:none;stroke:#fff;stroke-linecap:round;stroke-linejoin:round; }
</style></defs><g
     id="g13529"><path
       style="fill:none;stroke:#ffffff;stroke-width:1;stroke-linecap:round;stroke-linejoin:round;stroke-opacity:1;stop-color:#000000"
       d="m 18.85785,41.457121 c 4.33735,-1.712949 9.379372,-1.561211 11.947919,-0.63997"
       id="path13470" /><g
       id="g13501"><path
         style="fill:none;stroke:#ffffff;stroke-width:1;stroke-linecap:round;stroke-linejoin:round;stroke-opacity:1;stop-color:#000000"
         d="m 22.334934,23.750493 c 1.116145,2.83934 -0.129661,5.025714 -4.124267,3.366855 C 12.575609,24.777252 10.196237,24.650544 5.5,24.542548"
         id="path13466" /><path
         style="fill:none;stroke:#ffffff;stroke-width:1;stroke-linecap:round;stroke-linejoin:round;stroke-opacity:1;stop-color:#000000"
         d="m 6.4396034,26.19796 c 1.6625308,-0.810244 2.910879,-1.022556 5.0400056,-1.208987"
         id="path13464" /><path
         style="fill:none;stroke:#ffffff;stroke-width:1;stroke-linecap:round;stroke-linejoin:round;stroke-opacity:1;stop-color:#000000"
         d="m 7.0317747,25.98373 c -1.0719647,3.924322 0.584729,6.879783 4.4976913,7.615642 3.692391,0.694378 8.605842,-1.750036 8.629443,-5.934008"
         id="path13458" /><path
         style="fill:none;stroke:#ffffff;stroke-width:1;stroke-linecap:round;stroke-linejoin:round;stroke-opacity:1;stop-color:#000000"
         d="m 17.92962,26.998682 a 2.5153175,2.7530732 0 0 1 -2.489498,2.359622 2.5153175,2.7530732 0 0 1 -2.515318,-2.753073 2.5153175,2.7530732 0 0 1 0.269511,-1.239848"
         id="path13456" /></g><g
       id="g13495"><path
         style="fill:none;stroke:#ffffff;stroke-width:1;stroke-linecap:round;stroke-linejoin:round;stroke-opacity:1;stop-color:#000000"
         d="m 25.812873,24.439457 c -1.295503,3.777619 3.578675,4.286515 6.836967,2.95843 3.137119,-1.278695 5.90242,-2.52185 9.85016,-3.06281"
         id="path13468" /><path
         style="fill:none;stroke:#ffffff;stroke-width:1;stroke-linecap:round;stroke-linejoin:round;stroke-opacity:1;stop-color:#000000"
         d="M 41.567526,26.523868 C 40.863888,25.912434 39.917384,25.396892 38.825567,25.102617"
         id="path13462" /><path
         style="fill:none;stroke:#ffffff;stroke-width:1;stroke-linecap:round;stroke-linejoin:round;stroke-opacity:1;stop-color:#000000"
         d="m 40.812049,25.968019 c 0.235661,2.190005 -0.02599,4.383806 -1.69141,6.253615 -2.064868,2.318281 -7.152118,2.108952 -9.533535,-0.124186 -1.622479,-1.521456 -2.362815,-2.342593 -2.360758,-4.363195"
         id="path13460" /><path
         style="fill:none;stroke:#ffffff;stroke-width:1;stroke-linecap:round;stroke-linejoin:round;stroke-opacity:1;stop-color:#000000"
         d="m 30.052284,28.029503 a 2.5153175,2.7530732 0 0 0 2.221528,1.461891 2.5153175,2.7530732 0 0 0 2.515318,-2.753073 2.5153175,2.7530732 0 0 0 -0.0074,-0.210612"
         id="path13454" /></g><g
       id="g13509"><path
         style="fill:none;stroke:#ffffff;stroke-width:1;stroke-linecap:round;stroke-linejoin:round;stroke-opacity:1;stop-color:#000000"
         d="m 26.010253,10.053484 -0.05027,0.565816 c 0.668878,0.218185 1.298122,0.268679 1.915514,0.26903 l -1.31067,1.013017"
         id="path13452" /><path
         style="fill:none;stroke:#ffffff;stroke-width:1;stroke-linecap:round;stroke-linejoin:round;stroke-opacity:1;stop-color:#000000"
         d="m 24.06626,10.626004 c -0.769918,0.09641 -1.516121,0.561297 -2.442975,0.835354 L 20.93946,10.839211 c 0.215594,-0.707325 0.346622,-1.4905944 0.357413,-2.3689364 0.270503,0.3818052 0.340595,0.5433442 0.771999,0.658165 0.415079,-0.9639927 1.157433,-1.8194791 1.878047,-2.6821731 -0.192297,0.8059756 -0.228673,1.6539092 0.224772,2.6284439 h 1.04348"
         id="path13450" /><path
         style="fill:none;stroke:#ffffff;stroke-width:1;stroke-linecap:round;stroke-linejoin:round;stroke-opacity:1;stop-color:#000000"
         d="m 26.614049,11.969078 c 1.59406,2.155596 0.293954,3.738172 -0.09375,3.916469 0.56467,0.377229 0.676315,0.911778 1.011087,1.336919 0.980105,-1.895448 1.634123,-1.749506 1.864326,-2.65332 -0.316281,-0.334892 -0.557061,-0.446819 -0.951957,-0.553539 l 0.742329,-0.942023 c -1.033947,-0.711915 -2.21646,-0.391485 -2.572036,-1.104506 z"
         id="path13448" /><path
         style="fill:none;stroke:#ffffff;stroke-width:1;stroke-linecap:round;stroke-linejoin:round;stroke-opacity:1;stop-color:#000000"
         d="m 26.262255,16.003746 c -0.613489,0.15827 -0.98952,0.47828 -1.456768,0.665065"
         id="path13446" /><path
         style="fill:none;stroke:#ffffff;stroke-width:1;stroke-linecap:round;stroke-linejoin:round;stroke-opacity:1;stop-color:#000000"
         d="m 22.124395,16.238142 c 0.13284,0.670885 0.398377,1.399343 0.287058,1.964294 0.515855,-0.151661 0.927209,-0.343938 1.233268,-0.683753 0.362392,0.424786 0.719176,0.88211 1.058957,1.438086 0.327888,-0.273753 0.618401,-0.562771 0.75325,-0.915365 0.296363,0.06703 0.592724,0.189636 0.889087,0.509035"
         id="path13444" /><path
         style="fill:none;stroke:#ffffff;stroke-width:1;stroke-linecap:round;stroke-linejoin:round;stroke-opacity:1;stop-color:#000000"
         d="m 19.70439,10.706117 c 0.772133,0.161697 1.377183,0.47356 1.969395,0.796962 -0.68387,1.596996 -1.627085,3.023538 0.39938,4.677442 h 3e-6 c -0.876132,-0.597678 -1.667395,-1.1192 -3.003058,0.666937 -0.169114,-0.473482 -0.301289,-1.159347 -0.314627,-1.723479 -0.486175,-0.471675 -1.116838,-0.613298 -1.690581,-0.884944 0.861971,-0.806166 1.501466,-2.522793 2.164961,-1.828139 l -0.03054,-1.467977"
         id="path13266" /></g></g></svg>
