<?xml version="1.0" encoding="UTF-8"?>
<!-- Created with Inkscape (http://www.inkscape.org/) -->
<svg version="1.1" viewBox="0 0 48 48" xml:space="preserve" xmlns="http://www.w3.org/2000/svg"><defs><style>
      .cls-1 {
        fill: none;
        stroke: #fff;
        stroke-linecap: round;
        stroke-linejoin: round;
      }
    </style></defs><rect class="cls-1" x="5.5" y="5.5" width="37" height="37" rx="4" ry="4"/><g transform="translate(-184.62 66.083)">
	<g id="b">
	<g transform="translate(89.514 -19.956)"><g transform="translate(-18.238 -66.777)">
		<line class="st5" x1="123.35" x2="123.35" y1="40.65" y2="48.65"/>
		<line class="st5" x1="128.65" x2="128.65" y1="40.65" y2="48.65"/>
		<line class="st5" x1="123.35" x2="128.65" y1="44.635" y2="44.635"/>
	</g><path class="st5" d="m124.93-18.127c-1.1046 0-2-0.89543-2-2v-1.3c0-1.1046 0.89543-2 2-2s2 0.89543 2 2v1.3c0 1.1046-0.89543 2-2 2z"/><g transform="translate(-23.211 -82.777)">
		<circle class="st6" cx="136" cy="56.9" r=".7"/>
		<line class="st5" x1="136" x2="136" y1="59.35" y2="64.65"/>
	</g><g transform="translate(-126.3 -82.777)">
		
			<line class="st5" x1="246" x2="246" y1="57.7" y2="64.65"/>
		
		<line class="st5" x1="244.95" x2="247.05" y1="59.35" y2="59.35"/>
	</g><path class="st5" d="m115.17-26.127v7c0 0.55228 0.4477 1 1 1h0.29998"/><g transform="translate(-55.151 -82.777)">
		<path class="st5" d="m188.26 64.65v-3.3c0-1.1046-0.89544-2-2-2-1.1046 0-2 0.89543-2 2"/>
		<line class="st5" x1="184.26" x2="184.26" y1="64.65" y2="59.35"/>
	</g></g>
</g></g><style type="text/css">
	.st0{display:none;}
	.st1{display:inline;}
	.st5{fill:none;stroke:#FFFFFF;stroke-linecap:round;stroke-linejoin:round;stroke-miterlimit:10;}
	.st6{fill:#FFFFFF;}
</style></svg>
