<svg xmlns="http://www.w3.org/2000/svg" xml:space="preserve" id="svg1" version="1.1" viewBox="0 0 48 48"><defs id="defs1"><style id="style1">.a{fill:none;stroke:#fff;stroke-linecap:round;stroke-linejoin:round}</style></defs><path id="path4" d="M43.5 14.363c0-2.09-2.062-2.087-2.92-.986l-4.975 4.325c-.76.66-1.203 1.645-1.173 3.376.023 1.305.411 2.528 1.017 3.151a36.196 36.196 0 0 0 5.034 4.32c1.219.87 3.017.965 3.017-1.11V14.364zm-19.063 2.579a.796.796 0 0 1-.781.722c-.4 0-.7-.323-.668-.722a.796.796 0 0 1 .781-.722c.4 0 .7.323.668.722zm-.923 2.527-.43 5.468m-9.606-4.142h5.485m.323-4.11-.648 8.252m-4.837-8.253-.648 8.253m1.98-11.83c-2.047.406-3.68.899-5.028 3.152-1.327 2.217-1.468 6.607-.168 9.492.49 1.085 1.4 2.025 2.717 2.523 3.832 1.447 7.957 1.48 11.51 0 1.561-.651 2.82-2.009 3.38-3.339 1.443-3.422.702-7.052-.223-8.966-1.442-2.986-3.558-3.011-5.541-3.153-3.037-.216-5.07-.023-6.648.29zM12.31 32.981c.97.121 1.464.665 1.612 1.614v3.234c0 .955 1.164 2.124 2.19 1.286 3.08-2.517 4.205-3.965 6.864-5.462 2.655-1.495 7.224-1.853 8.691-6.11 1.196-3.47 1.65-8.01 0-12.589-1.606-4.46-5.403-6.339-13.061-6.339s-11.455 1.88-13.061 6.34c-1.65 4.578-1.124 8.549 0 12.588.736 2.647 3.22 5.258 6.765 5.438" style="fill:none;stroke:#fff;stroke-width:1;stroke-linecap:round;stroke-linejoin:round;stroke-opacity:1"/></svg>