<?xml version="1.0" encoding="UTF-8" standalone="no"?>
<!-- Created with Inkscape (http://www.inkscape.org/) -->

<svg
   width="48"
   height="48"
   viewBox="0 0 12.7 12.7"
   version="1.1"
   id="svg1"
   xml:space="preserve"
   inkscape:version="1.3.2 (091e20ef0f, 2023-11-25)"
   sodipodi:docname="hkust_student.svg"
   xmlns:inkscape="http://www.inkscape.org/namespaces/inkscape"
   xmlns:sodipodi="http://sodipodi.sourceforge.net/DTD/sodipodi-0.dtd"
   xmlns="http://www.w3.org/2000/svg"
   xmlns:svg="http://www.w3.org/2000/svg"><sodipodi:namedview
     id="namedview1"
     pagecolor="#000000"
     bordercolor="#000000"
     borderopacity="0.25"
     inkscape:showpageshadow="2"
     inkscape:pageopacity="0.0"
     inkscape:pagecheckerboard="0"
     inkscape:deskcolor="#d1d1d1"
     inkscape:document-units="mm"
     showguides="true"
     inkscape:zoom="2.9178866"
     inkscape:cx="-51.578427"
     inkscape:cy="-2.7417104"
     inkscape:window-width="1916"
     inkscape:window-height="1006"
     inkscape:window-x="0"
     inkscape:window-y="40"
     inkscape:window-maximized="1"
     inkscape:current-layer="g15" /><defs
     id="defs1"><inkscape:path-effect
       effect="mirror_symmetry"
       start_point="-13.687812,2.7333371"
       end_point="-13.687812,10.350627"
       center_point="-13.687812,6.541982"
       id="path-effect3"
       is_visible="true"
       lpeversion="1.2"
       lpesatellites=""
       mode="free"
       discard_orig_path="false"
       fuse_paths="false"
       oposite_fuse="false"
       split_items="false"
       split_open="false"
       link_styles="false" /></defs><path
     style="display:none;fill:none;fill-opacity:1;stroke:#ffffff;stroke-width:0.354972;stroke-linecap:round;stroke-linejoin:round;stroke-dasharray:none;stroke-opacity:1"
     d="m -11.346059,-0.11955666 c 0,0 0.646084,2.63749346 2.9746756,2.85049776 2.3285914,0.2130043 -2.6647396,1.7081277 -2.6647396,1.7081277 L -9.5006066,3.425961 c 0,0 -2.0875054,-1.1223983 -1.8454524,-3.54551766 z"
     id="path6"
     sodipodi:nodetypes="czccc"
     transform="matrix(0.74536337,0,0,0.74536337,16.558145,2.5370433)" /><g
     id="g5"
     transform="translate(15.523647,0.46012405)"><g
       id="g6"
       transform="matrix(1.131537,0,0,1.131537,1.2066735,-0.77473661)"><g
         id="g15"
         transform="matrix(1.5574671,0,0,1.5574671,23.425152,0.03748243)"
         style="stroke-width:0.15013254;stroke-dasharray:none"><g
           id="g3"
           transform="matrix(1.1590629,0,0,1.1590629,3.1286714,-0.90013603)"><path
             style="fill:none;stroke:#ffffff;stroke-width:0.150133;stroke-linecap:round;stroke-linejoin:round;stroke-dasharray:none;paint-order:stroke markers fill"
             d="m -21.348151,2.093497 c 0.46134,0.7332254 -0.571743,1.4132219 -0.08187,2.234829 0.278837,0.4676602 0.826029,0.4759422 1.177405,0.2400673 0.154937,-0.1040075 0.267413,-0.3045708 0.302652,-0.6145908 -0.191807,0.1432404 -0.269713,0.3789799 -0.731396,0.3280617 l 0.08633,-0.6922529 -0.332096,0.5752066 c -0.666393,-0.4302232 0.387931,-1.2393606 -0.421025,-2.0713209 z"
             id="path13"
             sodipodi:nodetypes="cssccccc" /><g
             id="g2"
             transform="translate(0.07073143,-0.41822015)"><g
               id="g1"
               transform="translate(0,-0.07339134)"><path
                 style="fill:none;stroke:#ffffff;stroke-width:0.150133;stroke-linecap:round;stroke-linejoin:round;stroke-dasharray:none;paint-order:stroke markers fill"
                 d="m -23.343813,4.4803317 c 1.546099,0.1547311 1.954304,1.3251824 2.508579,1.9548914 -0.615533,-0.3720196 -1.082779,-1.3642948 -2.508579,-1.3524368 z"
                 id="path1"
                 sodipodi:nodetypes="cccc" /><path
                 style="fill:none;stroke:#ffffff;stroke-width:0.150133;stroke-linecap:round;stroke-linejoin:round;stroke-dasharray:none;paint-order:stroke markers fill"
                 d="m -18.312776,4.4803317 c -1.546099,0.1547311 -1.961244,1.3251824 -2.515519,1.9548914 0.615533,-0.3720196 1.089719,-1.3642948 2.515519,-1.3524368 z"
                 id="path1-6"
                 sodipodi:nodetypes="cccc" /></g><path
               style="fill:none;stroke:#ffffff;stroke-width:0.150133;stroke-linecap:round;stroke-linejoin:round;stroke-dasharray:none;paint-order:stroke markers fill"
               d="m -18.638062,5.2729798 c -1.246226,0.1247203 -1.743461,0.5812774 -2.190233,1.088852 0.496148,-0.299865 1.040973,-0.6128041 2.190233,-0.603246 z"
               id="path1-6-2"
               sodipodi:nodetypes="cccc" /><path
               style="fill:none;stroke:#ffffff;stroke-width:0.150133;stroke-linecap:round;stroke-linejoin:round;stroke-dasharray:none;paint-order:stroke markers fill"
               d="m -23.025467,5.2729798 c 1.246227,0.1247203 1.743462,0.5812774 2.190233,1.088852 -0.496147,-0.299865 -1.040973,-0.6128041 -2.190233,-0.603246 z"
               id="path1-6-2-3"
               sodipodi:nodetypes="cccc" /></g></g></g></g><text
       xml:space="preserve"
       style="font-size:9.525px;font-family:'mononoki Nerd Font';-inkscape-font-specification:'mononoki Nerd Font';letter-spacing:1.61925px;fill:#ffffff;stroke-width:0.264583;stroke-linecap:round;stroke-linejoin:round;paint-order:stroke markers fill"
       x="-3.6016402"
       y="18.820065"
       id="text1"><tspan
         sodipodi:role="line"
         id="tspan1"
         style="stroke-width:0.264583"
         x="-3.6016402"
         y="18.820065" /></text></g></svg>
