<?xml version="1.0" encoding="UTF-8"?><svg id="b" xmlns="http://www.w3.org/2000/svg" viewBox="0 0 48 48"><defs><style>.c{fill:none;stroke:#fff;stroke-linecap:round;stroke-linejoin:round;}</style></defs><path class="c" d="M18.2786,7.964l-3.9389-2.2792-5.7108,3.2939v31.2275l1.4278.8235"/><path class="c" d="M24.1636,24.5238l-9.8235-5.6842v24.6604l27.0275-15.6227.003-6.5513-14.8119-8.5709"/><path class="c" d="M41.3711,21.3258l-27.0307,15.5868"/><path class="c" d="M8.6289,8.9787l21.2037,12.2695-15.4929,8.9551"/><path class="c" d="M12.913,39.3822l-2.8561,1.6468V11.4433l8.7089,5.0393v3.2783l-5.8535-3.3924v26.3075l1.4278.8235"/><path class="c" d="M32.7167,21.2677v3.3737"/><path class="c" d="M14.3394,36.9126v-2.9914"/><path class="c" d="M14.3394,31.9451l18.3763-10.6784-8.0464-4.6344,2.8554-1.6469,10.9603,6.3207-24.1462,13.9546"/><path class="c" d="M12.9119,16.3688l2.8217-1.6397"/><path class="c" d="M18.3884,7.1953l4.2468,4.1211,4.5179-2.6953-4.2468-4.1211-4.5179,2.6953Z"/><path class="c" d="M18.3884,7.1953l-.6199,4.3192,4.2468,4.1211,4.5179-2.6953.6199-4.3192"/><path class="c" d="M22.6348,11.3168l-.6199,4.3192"/></svg>