<?xml version="1.0" encoding="UTF-8" standalone="no"?>
<svg
   viewBox="0 0 48 48"
   version="1.1"
   id="svg1"
   sodipodi:docname="hole_io.svg"
   inkscape:version="1.2.2 (b0a8486541, 2022-12-01)"
   xml:space="preserve"
   xmlns:inkscape="http://www.inkscape.org/namespaces/inkscape"
   xmlns:sodipodi="http://sodipodi.sourceforge.net/DTD/sodipodi-0.dtd"
   xmlns="http://www.w3.org/2000/svg"
   xmlns:svg="http://www.w3.org/2000/svg"><sodipodi:namedview
     id="namedview1"
     pagecolor="#505050"
     bordercolor="#eeeeee"
     borderopacity="1"
     inkscape:showpageshadow="0"
     inkscape:pageopacity="0"
     inkscape:pagecheckerboard="0"
     inkscape:deskcolor="#505050"
     inkscape:zoom="12.59534"
     inkscape:cx="11.631286"
     inkscape:cy="19.967703"
     inkscape:window-width="1912"
     inkscape:window-height="1054"
     inkscape:window-x="0"
     inkscape:window-y="0"
     inkscape:window-maximized="1"
     inkscape:current-layer="svg1"
     showgrid="false" /><defs
     id="defs1"><style
       id="style1">.a { fill:none;stroke:#fff;stroke-linecap:round;stroke-linejoin:round; }
</style></defs><g
     id="g12123"><path
       style="color:#000000;fill:none;stroke:#ffffff;stroke-width:1;stroke-linecap:round;stroke-linejoin:round;stroke-opacity:1;-inkscape-stroke:none"
       d="m 33.650152,9.9565778 h -0.874909 c -0.898304,-1.5e-6 -1.697076,0.4010482 -2.229416,1.0347752 A 20.988883,14.621052 0 0 0 24,10.25887 20.988883,14.621052 0 0 0 17.474521,11.014606 C 16.942342,10.367114 16.134289,9.9565778 15.224758,9.9565778 h -0.828402"
       id="path12089" /><path
       style="color:#000000;fill:none;stroke:#ffffff;stroke-width:1;stroke-linecap:round;stroke-linejoin:round;stroke-opacity:1;-inkscape-stroke:none"
       d="m 5.4321796,13.464931 v 0.979547 c 0,0.951436 0.4581384,1.789597 1.1655753,2.316618 A 20.988883,14.621052 0 0 0 3.0109204,24.879431 20.988883,14.621052 0 0 0 24,39.499992 20.988883,14.621052 0 0 0 44.98908,24.879431 20.988883,14.621052 0 0 0 41.428407,16.74075 c 0.692319,-0.528167 1.139414,-1.356761 1.139414,-2.296272 v -0.915601"
       id="path12087" /><g
       id="g12106"><path
         style="color:#000000;fill:none;stroke:#ffffff;stroke-width:1;stroke-linecap:round;stroke-linejoin:round;stroke-opacity:1;-inkscape-stroke:none"
         d="m 32.658875,11.566951 c 0.328974,-1.7549925 2.548251,-3.0669428 5.173677,-3.0669428 2.89093,0 5.234491,1.5808948 5.234491,3.5310278 0,1.42745 -1.274077,2.71449 -3.2259,3.260523 -1.975235,-1.586806 -4.420557,-2.857096 -7.182268,-3.724608 z"
         id="path12085" /><path
         style="color:#000000;fill:none;stroke:#ffffff;stroke-width:1;stroke-linecap:round;stroke-linejoin:round;stroke-opacity:1;-inkscape-stroke:none"
         d="m 34.63794,12.281365 a 2.4905221,1.6559668 0 0 1 2.48447,-1.540594 2.4905221,1.6559668 0 0 1 2.490522,1.655968 v 0 a 2.4905221,1.6559668 0 0 1 -1.664705,1.562282"
         id="path12081" /></g><g
       id="g12110"><path
         style="color:#000000;fill:none;stroke:#ffffff;stroke-width:1;stroke-linecap:round;stroke-linejoin:round;stroke-opacity:1;-inkscape-stroke:none"
         d="M 15.349816,11.571251 C 15.023575,9.8193122 12.800394,8.5000413 10.167448,8.5000413 c -2.8909297,0 -5.2344905,1.5808947 -5.2344905,3.5310277 0,1.439552 1.2954817,2.734977 3.2626504,3.25565 1.9651911,-1.59683 4.4057241,-2.860931 7.1542081,-3.715468 z"
         id="path12083" /><path
         style="color:#000000;fill:none;stroke:#ffffff;stroke-width:1;stroke-linecap:round;stroke-linejoin:round;stroke-opacity:1;-inkscape-stroke:none"
         d="m 10.054524,13.959658 a 2.4905221,1.6559668 0 0 1 -1.6674557,-1.562923 2.4905221,1.6559668 0 0 1 2.4905227,-1.655968 2.4905221,1.6559668 0 0 1 2.484151,1.537598"
         id="path12079" /></g><path
       style="color:#000000;fill:none;stroke:#ffffff;stroke-width:1;stroke-linecap:round;stroke-linejoin:round;stroke-opacity:1;-inkscape-stroke:none"
       d="M 40.728329,24.880204 A 16.728329,11.191105 0 0 1 24,36.071309 16.728329,11.191105 0 0 1 7.2716712,24.880204 16.728329,11.191105 0 0 1 24,13.689098 16.728329,11.191105 0 0 1 40.728329,24.880204 Z"
       id="path12077" /><path
       style="color:#000000;fill:none;stroke:#ffffff;stroke-width:1;stroke-linecap:round;stroke-linejoin:round;stroke-opacity:1;-inkscape-stroke:none"
       d="m 8.3443952,28.793894 a 17.86567,11.191105 0 0 1 15.6556078,-5.799525 17.86567,11.191105 0 0 1 15.649675,5.79277"
       id="path12075" /><path
       style="color:#000000;fill:none;stroke:#ffffff;stroke-width:1;stroke-linecap:round;stroke-linejoin:round;stroke-opacity:1;-inkscape-stroke:none"
       d="m 26.972519,35.884398 -2.216785,-7.348374 a 2.9764322,2.9764322 0 0 0 -3.708912,-1.988162 v 0 a 2.9764322,2.9764322 0 0 0 -1.988165,3.708912 l 1.687706,5.598573"
       id="path10523" /></g></svg>
