<svg viewBox="0 0 48 48" version="1.1" id="svg8" xmlns="http://www.w3.org/2000/svg"><defs id="defs4"><style id="style2">.a,.cls-1{fill:none;stroke:#fff;stroke-linecap:round;stroke-linejoin:round}</style></defs><g id="layer4" style="display:inline"><path style="fill:none;stroke:#fff;stroke-width:1;stroke-linecap:round;stroke-linejoin:round;stroke-miterlimit:4;stroke-dasharray:none;stroke-opacity:1" d="M6.814 20.097h1.049v7.69h.779" id="path2335"/><path style="fill:none;stroke:#fff;stroke-width:1;stroke-linecap:round;stroke-linejoin:round;stroke-miterlimit:4;stroke-dasharray:none;stroke-opacity:1" d="M7.863 23.764c0-1.012 3.725-1.012 3.747 0v4.022h.698" id="path2337"/><ellipse style="fill:none;stroke:#fff;stroke-width:1;stroke-linecap:round;stroke-linejoin:round;stroke-miterlimit:4;stroke-dasharray:none;stroke-opacity:1" id="path2646" cx="16.192" cy="25.269" rx="2.125" ry="2.517"/><path style="fill:none;stroke:#fff;stroke-width:1;stroke-linecap:round;stroke-linejoin:round;stroke-miterlimit:4;stroke-dasharray:none;stroke-opacity:1" d="M19.895 22.752h.884v5.034h.744" id="path2681"/><path style="fill:none;stroke:#fff;stroke-width:1;stroke-linecap:round;stroke-linejoin:round;stroke-miterlimit:4;stroke-dasharray:none;stroke-opacity:1" d="M20.78 23.824c0-1.072 3.377-1.072 3.44 0v3.962h.717" id="path2683"/><path style="fill:none;stroke:#fff;stroke-width:1;stroke-linecap:round;stroke-linejoin:round;stroke-miterlimit:4;stroke-dasharray:none;stroke-opacity:1" d="M24.22 23.824c-.008-1.072 3.364-1.072 3.364 0v3.962h.747" id="path2685"/><path style="fill:none;stroke:#fff;stroke-width:1;stroke-linecap:round;stroke-linejoin:round;stroke-miterlimit:4;stroke-dasharray:none;stroke-opacity:1" d="M29.654 20.097h.815v7.69c1.652.584 4.232.066 4.08-2.484-.15-2.55-2.001-2.993-4.083-1.531" id="path2687"/><path style="fill:none;stroke:#fff;stroke-width:1;stroke-linecap:round;stroke-linejoin:round;stroke-miterlimit:4;stroke-dasharray:none;stroke-opacity:1" d="M36.01 20.097h.954v7.69h.697" id="path2689"/><path style="fill:none;stroke:#fff;stroke-width:1;stroke-linecap:round;stroke-linejoin:round;stroke-miterlimit:4;stroke-dasharray:none;stroke-opacity:1" d="M39.119 22.752h1.054v5.034h.76" id="path2691"/><circle style="fill:#fffffc;fill-opacity:1;stroke:none;stroke-width:.635573;stroke-linecap:round;stroke-linejoin:round;stroke-miterlimit:4;stroke-dasharray:none;stroke-opacity:1" id="path4798" cx="40.181" cy="20.557" r=".75"/></g></svg>