<svg xmlns="http://www.w3.org/2000/svg" xml:space="preserve" id="svg1" version="1.1" viewBox="0 0 48 48"><defs id="defs1"><style id="style1">.a{fill:none;stroke:#fff;stroke-linecap:round;stroke-linejoin:round}</style></defs><path id="path3" d="M32.18 16.057a2.414 2.415 0 0 0-1.707.707l-6.548 6.552-3.14-3.217a2.414 2.415 0 0 0-3.413-.04 2.414 2.415 0 0 0-.04 3.415l4.845 4.963a2.414 2.415 0 0 0 3.434.021l8.275-8.28a2.414 2.415 0 0 0 0-3.414 2.414 2.415 0 0 0-1.705-.707zm7.681-4.201C35.857 6.99 27.413 6.806 24 12.168c-3.413-5.362-11.857-5.177-15.861-.312C-1.958 24.122 19.839 39.834 24 39.834c4.16 0 25.958-15.712 15.861-27.978z" style="color:#000;fill:none;fill-opacity:.470664;stroke:#fff;stroke-width:1;stroke-linecap:round;stroke-linejoin:round;stroke-opacity:1;-inkscape-stroke:none"/></svg>