<?xml version="1.0" encoding="UTF-8"?>
<!-- Created with Inkscape (http://www.inkscape.org/) -->
<svg width="48" height="48" version="1.1" viewBox="0 0 48 48" xml:space="preserve" xmlns="http://www.w3.org/2000/svg"><defs><style>
      .cls-1 {
        fill: none;
        stroke: #fff;
        stroke-linecap: round;
        stroke-linejoin: round;
      }
    </style></defs><g><rect class="cls-1" x="5.5" y="5.5" width="37" height="37" rx="4" ry="4"/><g transform="matrix(.7696 0 0 .7696 -39.571 8.1029)" fill-opacity="0" stroke="#fff" stroke-linecap="round" stroke-linejoin="round" stroke-width="1.2994"><path d="m82.602 44.695-9.59e-4 -23.053 8.6029 4.167 2.6684 18.886"/><path d="m82.601 21.642-8.8045 4.2342-2.7948 18.702"/><path d="m58.58 39.918 14.194-7.1993"/><path d="m92.224 32.683 14.393 7.3103"/><path d="m73.797 25.876-2.4532-0.94094 11.224-5.9481 11.09 6.1161-2.4532 0.70571"/><path d="m90.217 23.206-0.18932-3.2107 2.6884 0.10082-2.4868-5.7801-7.5947-6.7546-8.0988 7.3259-2.554 5.5448 3.3605-0.33605-0.65208 3.0655"/><path d="m82.635 7.5611-0.16802 5.3768 10.25 7.1579"/><path d="m71.982 20.432 10.485-7.4939"/><path d="m82.467 12.938 0.10082 6.0489"/><path d="m69.721 34.255c-2.1811-2.2105-4.3622-4.421-5.5423-8.4387s-1.3594-9.8425 0.8474-14.502c2.2068-4.6599 6.7994-8.1548 11.661-9.7454 4.8616-1.5906 9.9919-1.277 14.305 0.96338 4.3127 2.2404 7.8075 6.4073 9.4654 11.045 1.6578 4.6376 1.4786 9.7454 0.23944 13.234-1.2392 3.4886-3.5383 5.3578-5.8374 7.2269"/></g></g></svg>
