<?xml version="1.0" encoding="UTF-8" standalone="no"?>
<!-- Created with Inkscape (http://www.inkscape.org/) -->

<svg
   width="48"
   height="48"
   viewBox="0 0 12.7 12.7"
   version="1.1"
   id="svg1"
   xml:space="preserve"
   inkscape:version="1.3.2 (091e20ef0f, 2023-11-25)"
   sodipodi:docname="hot_stuff.svg"
   xmlns:inkscape="http://www.inkscape.org/namespaces/inkscape"
   xmlns:sodipodi="http://sodipodi.sourceforge.net/DTD/sodipodi-0.dtd"
   xmlns="http://www.w3.org/2000/svg"
   xmlns:svg="http://www.w3.org/2000/svg"><sodipodi:namedview
     id="namedview1"
     pagecolor="#505050"
     bordercolor="#ffffff"
     borderopacity="1"
     inkscape:showpageshadow="0"
     inkscape:pageopacity="0"
     inkscape:pagecheckerboard="1"
     inkscape:deskcolor="#505050"
     inkscape:document-units="mm"
     inkscape:zoom="11.429417"
     inkscape:cx="14.348939"
     inkscape:cy="24.279454"
     inkscape:window-width="1600"
     inkscape:window-height="775"
     inkscape:window-x="0"
     inkscape:window-y="32"
     inkscape:window-maximized="1"
     inkscape:current-layer="layer2" /><defs
     id="defs1" /><g
     inkscape:groupmode="layer"
     id="layer2"
     inkscape:label="Layer 2"><path
       style="fill:#000000;fill-opacity:0;stroke:#ffffff;stroke-width:0.264583;stroke-linecap:round;stroke-linejoin:round;stroke-dasharray:none;paint-order:stroke fill markers"
       d="M 4.1367061,11.322985 C 3.3688842,11.050568 1.523376,9.9607871 1.6462311,7.9963694 1.7690862,6.0319514 3.0323385,5.8347663 3.3286909,5.2350709 3.5676112,4.7515945 3.9986084,4.1973058 3.6516188,3.6497606 3.3046289,3.1022157 4.6866315,3.8651897 4.5236733,5.0125283 4.3607153,6.1598669 3.3414948,7.1540009 3.3414948,7.1540009 c 0,0 -1.5013902,2.1791687 0.7952113,4.1689841 z"
       id="path1"
       sodipodi:nodetypes="csssscc" /><path
       style="fill:#000000;fill-opacity:0;stroke:#ffffff;stroke-width:0.264583;stroke-linecap:round;stroke-linejoin:round;stroke-dasharray:none;paint-order:stroke fill markers"
       d="M 5.1907156,11.014669 C 5.1054199,11.524193 3.3172194,9.4683825 3.504508,8.4920382 3.5999155,7.9946745 3.3428182,7.722589 5.0382444,6.138965 5.4759699,5.7301046 5.300401,4.9897458 5.0900468,4.0131469 c 0,0 -0.9961192,-1.6575064 0.926504,-2.7248459 C 7.6435359,0.38508426 5.7645172,2.5604034 7.0888152,4.2241055 7.5248685,4.7719148 6.8486489,6.3498934 5.952171,7.035129 3.6680733,8.7810115 5.3616756,9.9934196 5.1907156,11.014669 Z"
       id="path2"
       sodipodi:nodetypes="ssscssss" /><path
       style="fill:#000000;fill-opacity:0;stroke:#ffffff;stroke-width:0.264583;stroke-linecap:round;stroke-linejoin:round;stroke-dasharray:none;paint-order:stroke fill markers"
       d="m 7.9011512,5.6879047 c 0,0 0.4241622,-1.3279331 -0.4164859,-2.6547203 C 6.6440171,1.7063972 7.9097898,2.421468 7.9097898,2.421468 c 0,0 1.1317991,1.0325274 0.9107305,1.9227492 C 8.5994514,5.2344393 7.9011512,5.6879047 7.9011512,5.6879047 Z"
       id="path3" /><path
       style="fill:#000000;fill-opacity:0;stroke:#ffffff;stroke-width:0.264583;stroke-linecap:round;stroke-linejoin:round;stroke-dasharray:none;paint-order:stroke fill markers"
       d="M 5.6311815,9.4514976 C 5.1892234,9.7503647 5.2751066,7.7374371 8.2412924,6.3544534 9.4649044,5.7839445 9.669906,5.4701149 9.6348712,4.0367455 9.6128438,3.1355448 10.950324,4.6087101 9.9091676,6.4075447 9.5106528,7.0960698 8.168123,7.9283867 7.5235362,8.0806461 6.5782671,8.3039304 6.0634526,9.1591812 5.6311815,9.4514976 Z"
       id="path4"
       sodipodi:nodetypes="ssssss" /><path
       style="fill:#000000;fill-opacity:0;stroke:#ffffff;stroke-width:0.264583;stroke-linecap:round;stroke-linejoin:round;stroke-dasharray:none;paint-order:stroke fill markers"
       d="m 6.2102767,11.684296 c 0,0 -1.3128585,-0.90744 0.6683872,-2.3334026 C 8.8599097,7.9249305 6.6117345,11.816603 6.2102767,11.684296 Z"
       id="path5" /><path
       style="fill:#000000;fill-opacity:0;stroke:#ffffff;stroke-width:0.264583;stroke-linecap:round;stroke-linejoin:round;stroke-dasharray:none;paint-order:stroke fill markers"
       d="M 7.7099572,11.353977 C 6.6572187,11.459774 8.3627967,10.757846 8.401111,8.9696826 8.4188371,8.1423895 8.902048,7.8714634 10.41112,7.0092019 c 0.337222,-0.192684 0.719409,1.2328805 -0.06278,2.5801223 0,0 -0.662259,1.5660578 -2.6383828,1.7646528 z"
       id="path6"
       sodipodi:nodetypes="ssscs" /></g></svg>
