<svg xmlns="http://www.w3.org/2000/svg" xml:space="preserve" id="svg1" version="1.1" viewBox="0 0 48 48"><defs id="defs1"><style id="style1">.a{fill:none;stroke:#fff;stroke-linecap:round;stroke-linejoin:round}</style></defs><path id="path9280" d="M9.5 5.5h29c2.216 0 4 1.784 4 4v29c0 2.216-1.784 4-4 4h-29c-2.216 0-4-1.784-4-4v-29c0-2.216 1.784-4 4-4z" style="fill:none;stroke:#fff;stroke-linecap:round;stroke-linejoin:round;stroke-dashoffset:1.3;stroke-opacity:1"/><path id="path9278" d="M27.933 23.258V11.236h4.01c2.268 0 4.106 1.808 4.106 4.038 0 2.23-1.838 4.037-4.105 4.037h-4.01" style="fill:none;stroke:#fff;stroke-linecap:round;stroke-linejoin:round;stroke-dashoffset:1.3;stroke-opacity:1"/><path id="path9276" d="M14.211 11.236v12.022" style="fill:none;stroke:#fff;stroke-linecap:round;stroke-linejoin:round;stroke-dashoffset:1.3;stroke-opacity:1"/><path id="path9274" d="M22.327 11.236v12.022" style="fill:none;stroke:#fff;stroke-linecap:round;stroke-linejoin:round;stroke-dashoffset:1.3;stroke-opacity:1"/><path id="path9272" d="M14.211 17.224h8.116" style="fill:none;stroke:#fff;stroke-linecap:round;stroke-linejoin:round;stroke-dashoffset:1.3;stroke-opacity:1"/><path id="path9270" d="M17.648 32.13v-5.403h1.721c.973 0 1.761.812 1.761 1.815 0 1.002-.788 1.814-1.76 1.814h-1.722" style="fill:none;stroke:#fff;stroke-linecap:round;stroke-linejoin:round;stroke-dashoffset:1.3;stroke-opacity:1"/><path id="path9268" d="m31.78 26.727-1.74 2.701-1.741-2.7" style="fill:none;stroke:#fff;stroke-linecap:round;stroke-linejoin:round;stroke-dashoffset:1.3;stroke-opacity:1"/><path id="path9266" d="M30.04 32.13v-2.702" style="fill:none;stroke:#fff;stroke-linecap:round;stroke-linejoin:round;stroke-dashoffset:1.3;stroke-opacity:1"/><path id="path9264" d="M25.879 30.34H23.55" style="fill:none;stroke:#fff;stroke-linecap:round;stroke-linejoin:round;stroke-dashoffset:1.3;stroke-opacity:1"/><path id="path9262" d="m22.974 32.13 1.74-5.403 1.741 5.403" style="fill:none;stroke:#fff;stroke-linecap:round;stroke-linejoin:round;stroke-dashoffset:1.3;stroke-opacity:1"/><path id="path9260" d="M12.147 29.353c-.133 2.666-1.475 3.673-3.824 3.818" style="fill:none;stroke:#fff;stroke-linecap:round;stroke-linejoin:round;stroke-dashoffset:1.3;stroke-opacity:1"/><path id="path9258" d="M11.435 31.968c3.432 3.387 7.408 5.848 12.565 5.848 5.157 0 9.133-2.461 12.565-5.848" style="fill:none;stroke:#fff;stroke-linecap:round;stroke-linejoin:round;stroke-dashoffset:1.3;stroke-opacity:1"/><path id="path9214" d="M35.853 29.353c.133 2.666 1.475 3.673 3.824 3.818" style="fill:none;stroke:#fff;stroke-linecap:round;stroke-linejoin:round;stroke-dashoffset:1.3;stroke-opacity:1"/></svg>