<svg xmlns="http://www.w3.org/2000/svg" xml:space="preserve" viewBox="0 0 48 48"><defs><style>.a{fill:none;stroke:#fff;stroke-linecap:round;stroke-linejoin:round}</style></defs><g fill="none" stroke="#fff" stroke-linecap="round" stroke-linejoin="round"><path d="M41.584 27.444a9.218 9.213 0 0 1-9.218 9.213 9.218 9.213 0 0 1-9.218-9.213 9.218 9.213 0 0 1 9.218-9.213 9.218 9.213 0 0 1 9.218 9.213zM35.094 9.49a2.663 2.662 0 0 1-2.664 2.661 2.663 2.662 0 0 1-2.663-2.662 2.663 2.662 0 0 1 2.663-2.662 2.663 2.662 0 0 1 2.664 2.662zM12.971 8.776a3.277 3.276 0 0 1-3.277 3.275 3.277 3.276 0 0 1-3.278-3.275A3.277 3.276 0 0 1 9.694 5.5a3.277 3.276 0 0 1 3.277 3.276zM22.056 39.97a2.531 2.53 0 0 1-2.531 2.53 2.531 2.53 0 0 1-2.532-2.53 2.531 2.53 0 0 1 2.532-2.53 2.531 2.53 0 0 1 2.53 2.53zM21.496 38l4.01-4.007M12.345 10.834l13.073 10.149M32.43 12.448v5.484"/></g></svg>