<svg xmlns="http://www.w3.org/2000/svg" xml:space="preserve" width="48" height="48" viewBox="0 0 12.7 12.7"><path fill="none" stroke="#fff" stroke-linecap="round" stroke-linejoin="round" stroke-width=".265" d="M12.039 6.35a5.689 5.689 0 0 1-5.688 5.689A5.689 5.689 0 0 1 .661 6.35 5.689 5.689 0 0 1 6.35.661a5.689 5.689 0 0 1 5.69 5.689zm-2.968-.003h1.161m0-.859v1.724M9.071 5.488v1.724M4.188 5.488v1.153c0 .315.26.57.58.57a.576.576 0 0 0 .582-.57V5.488m3.19 1.146v.007c0 .315-.26.57-.58.57v0a.576.576 0 0 1-.582-.57v-.582c0-.315.26-.57.581-.57v0c.321 0 .581.255.581.57v.007m-6.071.28H3.63m0-.858v1.724M2.47 5.488v1.724m3.94 0V5.488m-.58 0h1.16" class="a"/></svg>
