<?xml version="1.0" encoding="UTF-8" standalone="no"?>
<svg
   viewBox="0 0 48 48"
   version="1.1"
   id="svg1"
   sodipodi:docname="huya_live.svg"
   inkscape:version="1.2.2 (b0a8486541, 2022-12-01)"
   xml:space="preserve"
   xmlns:inkscape="http://www.inkscape.org/namespaces/inkscape"
   xmlns:sodipodi="http://sodipodi.sourceforge.net/DTD/sodipodi-0.dtd"
   xmlns="http://www.w3.org/2000/svg"
   xmlns:svg="http://www.w3.org/2000/svg"><sodipodi:namedview
     id="namedview1"
     pagecolor="#505050"
     bordercolor="#eeeeee"
     borderopacity="1"
     inkscape:showpageshadow="0"
     inkscape:pageopacity="0"
     inkscape:pagecheckerboard="0"
     inkscape:deskcolor="#505050"
     inkscape:zoom="17.8125"
     inkscape:cx="12.154386"
     inkscape:cy="26.385965"
     inkscape:window-width="1918"
     inkscape:window-height="1053"
     inkscape:window-x="0"
     inkscape:window-y="0"
     inkscape:window-maximized="1"
     inkscape:current-layer="svg1"
     showgrid="false" /><defs
     id="defs1"><style
       id="style1">.a { fill:none;stroke:#fff;stroke-linecap:round;stroke-linejoin:round; }
</style></defs><g
     id="g676"><path
       style="fill:none;stroke:#ffffff;stroke-width:1;stroke-linecap:round;stroke-linejoin:round;stroke-opacity:1;stop-color:#000000"
       d="m 36.504815,14.142354 c 8.681004,9.380437 6.687628,18.158476 2.032126,22.233988 -2.84717,2.492464 -7.109789,3.919323 -11.935304,4.277933 C 17.489404,41.331452 7.831785,38.791381 5.824439,29.631578 5.0184112,25.953558 5.4611385,20.867661 9.8927378,16.141068 c 0.0063,-3.585625 0.9291092,-5.805654 2.6357812,-8.4728804 2.530192,0.1819358 4.802546,1.015299 6.627521,2.2024117 2.339035,-0.7347851 4.115739,-0.8677228 6.372389,-0.5817935 1.186382,-0.9187127 1.836673,-1.5618714 3.143456,-2.0469136 4.189629,1.7722613 5.993396,3.9381548 7.83293,6.9004618 z"
       id="path629" /><g
       id="g656"><path
         style="fill:none;stroke:#ffffff;stroke-width:1;stroke-linecap:round;stroke-linejoin:round;stroke-opacity:1;stop-color:#000000"
         d="m 18.866125,32.39109 c 1.943228,2.416933 11.815599,1.560036 14.092185,-1.254304"
         id="path627" /><path
         style="fill:none;stroke:#ffffff;stroke-width:1;stroke-linecap:round;stroke-linejoin:round;stroke-opacity:1;stop-color:#000000"
         d="m 32.73962,31.381799 c 0.22326,1.426867 -0.0052,2.721931 -0.592362,3.853132 -1.062768,-0.310428 -2.257967,-1.062943 -2.836403,-2.13933"
         id="path625" /><path
         style="fill:none;stroke:#ffffff;stroke-width:1;stroke-linecap:round;stroke-linejoin:round;stroke-opacity:1;stop-color:#000000"
         d="m 22.930362,33.769049 c -0.419131,1.048349 -1.217416,1.894186 -2.362542,2.504566 -0.822897,-1.002499 -1.36153,-2.28669 -1.402656,-3.583594"
         id="path623" /></g><g
       id="g651"><path
         style="fill:none;stroke:#ffffff;stroke-width:1;stroke-linecap:round;stroke-linejoin:round;stroke-opacity:1;stop-color:#000000"
         d="M 5.8661592,29.814008 C 7.2825531,28.952522 9.1327616,28.432015 11.25491,28.239105 9.6810668,29.897972 8.3145776,31.661065 7.4236612,33.663157"
         id="path621" /><path
         style="fill:none;stroke:#ffffff;stroke-width:1;stroke-linecap:round;stroke-linejoin:round;stroke-opacity:1;stop-color:#000000"
         d="m 9.5501585,36.241012 c 1.4230755,-1.984846 3.3394045,-3.374772 5.6983165,-4.017794 -1.227248,1.975315 -1.684944,4.42421 -1.544987,6.673729"
         id="path619" /></g><g
       id="g647"><path
         style="fill:none;stroke:#ffffff;stroke-width:1;stroke-linecap:round;stroke-linejoin:round;stroke-opacity:1;stop-color:#000000"
         d="m 42.342953,29.435703 c -0.752889,-1.065694 -1.707846,-2.063626 -3.203922,-3.179203 1.195159,-0.17048 2.155327,-0.08489 3.349412,0.23229"
         id="path617" /><path
         style="fill:none;stroke:#ffffff;stroke-width:1;stroke-linecap:round;stroke-linejoin:round;stroke-opacity:1;stop-color:#000000"
         d="M 38.748206,36.183417 C 38.4478,34.468068 37.6763,32.319972 36.129435,30.703092 c 2.081637,0.225039 3.809249,1.111891 5.089034,2.182258"
         id="path615" /></g><g
       id="g660"><path
         style="fill:none;stroke:#ffffff;stroke-width:1;stroke-linecap:round;stroke-linejoin:round;stroke-opacity:1;stop-color:#000000"
         d="m 30.182961,20.277737 c 0.08643,1.716573 -5.601079,5.453533 -7.109394,4.671201 -1.508315,-0.782333 -1.854058,-7.648622 -0.43218,-8.582862 1.42188,-0.93424 7.455137,2.195089 7.541574,3.911661 z"
         id="path613" /><path
         style="fill:none;stroke:#ffffff;stroke-width:1;stroke-linecap:round;stroke-linejoin:round;stroke-opacity:1;stop-color:#000000"
         d="M 25.733118,28.983981 C 33.292805,28.324295 37.550023,28.114071 38.537461,24.052862 39.764186,19.0075 32.95567,11.356731 24.215977,12.11922 c -6.276889,0.547623 -12.649573,4.821891 -12.519892,11.765626 0.10915,5.844472 4.485782,5.932611 14.037033,5.099135 z"
         id="path1355" /></g></g></svg>
