<svg xmlns="http://www.w3.org/2000/svg" xml:space="preserve" width="48" height="48"><g fill="none"><path d="M11.06 22.79s1.31-5.334 12.914-16.067m12.913 16.055s-1.308-5.324-12.888-16.035M11.186 22.411a13.757 13.952 0 0 1 1.008-2.063m23.647.143a13.757 13.952 0 0 1 .936 1.952m0 0a13.757 13.952 0 0 1 .956 5.108v0a13.757 13.952 0 0 1-13.758 13.953A13.757 13.952 0 0 1 10.218 27.55a13.757 13.952 0 0 1 .968-5.14" style="display:inline;fill:#000;fill-opacity:0;stroke:#fff;stroke-width:1;stroke-linecap:round;stroke-linejoin:round;stroke-dasharray:none"/><path d="M16.367 28.78s1.15 6.529 7.954 6.529" style="fill:#000;fill-opacity:0;stroke:#fff;stroke-width:1;stroke-linecap:round;stroke-linejoin:round;stroke-dasharray:none"/></g></svg>