<svg xmlns="http://www.w3.org/2000/svg" xml:space="preserve" width="48" height="48"><path fill="none" stroke="#fff" stroke-linecap="round" stroke-linejoin="round" d="M16.632 28.057 8.78 39.141l11.084-7.852 3.081-6.313zm14.64 0 7.852 11.084-11.084-7.852-3.081-6.313zm-5.034 4.054L23.952 45.5l-2.285-13.39 2.285-6.643zm-9.606-12.168L8.781 8.859l11.084 7.851 3.08 6.313zm14.64 0 7.852-11.084L28.04 16.71l-3.08 6.313zm-5.034-4.054-2.285-13.39-2.286 13.39 2.286 6.642zM15.912 26.285 2.522 24l13.39-2.286L22.555 24zm16.178 0L45.48 24l-13.39-2.286L25.448 24z"/></svg>
