<?xml version="1.0" encoding="UTF-8"?><svg id="a" xmlns="http://www.w3.org/2000/svg" viewBox="0 0 48 48"><defs><style>.b{fill:none;stroke:#fff;stroke-linecap:round;stroke-linejoin:round;}</style></defs><path class="b" d="m40.5,5.5H7.5c-1.1046,0-2,.8954-2,2v33c0,1.1046.8954,2,2,2h33c1.1046,0,2-.8954,2-2V7.5c0-1.1046-.8954-2-2-2Z"/><rect class="b" x="22" y="22" width="4" height="4" rx="1" ry="1"/><rect class="b" x="16" y="22" width="4" height="4" rx="1" ry="1"/><rect class="b" x="28" y="22" width="4" height="4" rx="1" ry="1"/><rect class="b" x="22" y="16" width="4" height="4" rx="1" ry="1"/><rect class="b" x="16" y="16" width="4" height="4" rx="1" ry="1"/><rect class="b" x="28" y="16" width="4" height="4" rx="1" ry="1"/><rect class="b" x="22" y="10" width="4" height="4" rx="1" ry="1"/><rect class="b" x="16" y="10" width="4" height="4" rx="1" ry="1"/><rect class="b" x="28" y="10" width="4" height="4" rx="1" ry="1"/><path class="b" d="m26,5.5v1.5c0,.55-.45,1-1,1h-2c-.55,0-1-.45-1-1v-1.5"/><path class="b" d="m20,5.5v1.5c0,.55-.45,1-1,1h-2c-.55,0-1-.45-1-1v-1.5"/><path class="b" d="m32,5.5v1.5c0,.55-.45,1-1,1h-2c-.55,0-1-.45-1-1v-1.5"/><rect class="b" x="22" y="28" width="4" height="4" rx="1" ry="1"/><rect class="b" x="16" y="28" width="4" height="4" rx="1" ry="1"/><rect class="b" x="28" y="28" width="4" height="4" rx="1" ry="1"/><rect class="b" x="22" y="34" width="4" height="4" rx="1" ry="1"/><rect class="b" x="16" y="34" width="4" height="4" rx="1" ry="1"/><rect class="b" x="28" y="34" width="4" height="4" rx="1" ry="1"/><path class="b" d="m26,42.5v-1.5c0-.55-.45-1-1-1h-2c-.55,0-1,.45-1,1v1.5"/><path class="b" d="m20,42.5v-1.5c0-.55-.45-1-1-1h-2c-.55,0-1,.45-1,1v1.5"/><path class="b" d="m32,42.5v-1.5c0-.55-.45-1-1-1h-2c-.55,0-1,.45-1,1v1.5"/></svg>