<?xml version="1.0" encoding="UTF-8" standalone="no"?>
<svg
   id="b"
   viewBox="0 0 48 48"
   version="1.1"
   sodipodi:docname="icsx.svg"
   inkscape:version="1.3 (0e150ed, 2023-07-21)"
   xmlns:inkscape="http://www.inkscape.org/namespaces/inkscape"
   xmlns:sodipodi="http://sodipodi.sourceforge.net/DTD/sodipodi-0.dtd"
   xmlns="http://www.w3.org/2000/svg"
   xmlns:svg="http://www.w3.org/2000/svg">
  <sodipodi:namedview
     id="namedview1"
     pagecolor="#ffffff"
     bordercolor="#000000"
     borderopacity="0.25"
     inkscape:showpageshadow="2"
     inkscape:pageopacity="0.0"
     inkscape:pagecheckerboard="0"
     inkscape:deskcolor="#d1d1d1"
     inkscape:zoom="4.9166667"
     inkscape:cx="24"
     inkscape:cy="24"
     inkscape:window-width="1280"
     inkscape:window-height="449"
     inkscape:window-x="0"
     inkscape:window-y="25"
     inkscape:window-maximized="0"
     inkscape:current-layer="b" />
  <defs
     id="defs1">
    <style
       id="style1">.h{fill:none;stroke:#000;stroke-linecap:round;stroke-linejoin:round;}</style>
  </defs>
  <circle
     id="c"
     class="h"
     cx="24"
     cy="24"
     r="21.5"
     style="stroke-width:1;stroke-dasharray:none" />
  <g
     id="a"
     transform="matrix(0.77241512,0,0,0.77241512,5.3080607,4.7452941)"
     style="stroke-width:1.29464063;stroke-dasharray:none">
    <g
       id="g4"
       style="stroke-width:1.29464063;stroke-dasharray:none">
      <g
         id="g2"
         style="stroke-width:1.29464063;stroke-dasharray:none">
        <line
           class="c"
           x1="27.2024"
           y1="20.905701"
           x2="30.7024"
           y2="19"
           id="line1"
           style="fill:none;stroke:#000000;stroke-linecap:round;stroke-linejoin:round;stroke-width:1.29464063;stroke-dasharray:none" />
        <line
           class="c"
           x1="30.7024"
           y1="19"
           x2="30.7024"
           y2="33"
           id="line2"
           style="fill:none;stroke:#000000;stroke-linecap:round;stroke-linejoin:round;stroke-width:1.29464063;stroke-dasharray:none" />
      </g>
      <g
         id="g3"
         style="stroke-width:1.29464063;stroke-dasharray:none">
        <path
           class="c"
           d="m 21.0013,26 c 1.9012,0 3.4568,1.5556 3.4568,3.4568 v 0 c 0,1.9012 -1.5556,3.4568 -3.4568,3.4568 h -1.3827 c -2.4198,0 -3.284,-0.3457 -4.321,-1.2099"
           id="path2"
           style="fill:none;stroke:#000000;stroke-linecap:round;stroke-linejoin:round;stroke-width:1.29464063;stroke-dasharray:none" />
        <path
           class="c"
           d="m 15.2976,20.2963 c 1.037,-0.8642 2.0741,-1.2099 4.321,-1.2099 h 1.3827 v 0 c 1.9012,0 3.4568,1.5555 3.4568,3.4568 v 0 C 24.4581,24.4444 22.9025,26 21.0013,26 h -3.4568"
           id="path3"
           style="fill:none;stroke:#000000;stroke-linecap:round;stroke-linejoin:round;stroke-width:1.29464063;stroke-dasharray:none" />
      </g>
    </g>
  </g>
  <g
     id="b-9"
     transform="matrix(0.77241512,0,0,0.77241512,5.3080607,4.7452941)"
     style="stroke-width:1.29464063;stroke-dasharray:none">
    <path
       class="c"
       d="M 16.862699,7.8588 H 8.0988 c -1.0601,0 -1.9194,0.8593 -1.9194,1.9194 v 31.8025 c 0,1.06 0.8593,1.9193 1.9193,1.9193 h 31.8025 c 1.06,0 1.9193,-0.8592 1.9194,-1.9192 v 0 -31.8026 c 0,-1.0601 -0.859337,-1.9105205 -1.9194,-1.9194 L 31.316441,7.786891"
       id="path4"
       sodipodi:nodetypes="csssssscssc"
       style="fill:none;stroke:#000000;stroke-linecap:round;stroke-linejoin:round;stroke-width:1.29464063;stroke-dasharray:none" />
    <line
       class="c"
       x1="12.8166"
       y1="10.258"
       x2="12.8166"
       y2="4.5"
       id="line4"
       style="fill:none;stroke:#000000;stroke-linecap:round;stroke-linejoin:round;stroke-width:1.29464063;stroke-dasharray:none" />
    <line
       class="c"
       x1="35.183399"
       y1="10.258"
       x2="35.183399"
       y2="4.5"
       id="line5"
       style="fill:none;stroke:#000000;stroke-linecap:round;stroke-linejoin:round;stroke-width:1.29464063;stroke-dasharray:none" />
  </g>
  <path
     class="a"
     d="m 23.904854,5.8111454 a 5.407902,5.407902 0 1 0 5.407901,5.4079026 v 0 A 5.4015097,5.4015097 0 0 0 23.904854,5.8111454 Z"
     id="path1"
     style="fill:none;stroke:#000000;stroke-width:1;stroke-linecap:round;stroke-linejoin:round;stroke-dasharray:none" />
  <line
     class="a"
     x1="23.958288"
     y1="13.916605"
     x2="23.958288"
     y2="8.5150976"
     id="line4-6"
     style="fill:none;stroke:#000000;stroke-width:1;stroke-linecap:round;stroke-linejoin:round;stroke-dasharray:none" />
  <line
     class="a"
     x1="25.716179"
     y1="12.07562"
     x2="23.958288"
     y2="13.916605"
     id="line5-9"
     style="fill:none;stroke:#000000;stroke-width:1;stroke-linecap:round;stroke-linejoin:round;stroke-dasharray:none" />
  <line
     class="a"
     x1="22.206797"
     y1="12.07562"
     x2="23.958288"
     y2="13.916605"
     id="line6"
     style="fill:none;stroke:#000000;stroke-width:1;stroke-linecap:round;stroke-linejoin:round;stroke-dasharray:none" />
</svg>
