<?xml version="1.0" encoding="UTF-8"?><svg id="a" xmlns="http://www.w3.org/2000/svg" viewBox="0 0 48 48"><defs><style>.d{fill:none;stroke:#fff;stroke-linecap:round;stroke-linejoin:round;}</style></defs><circle class="d" cx="8.6869" cy="16.805" r="2.25"/><path class="d" d="m6.4369 21.695-0.035063 9.2353"/><path class="d" d="m10.937 21.683-0.03506 9.2479"/><path class="d" d="m10.937 21.683c-0.89548 0.085816-4.9688 0.61176-6.4369-0.97026"/><path class="d" d="m4.5 31.773c1.9018-0.84193 6.4018-0.84193 7.8702-0.14573"/><path class="d" d="m17.552 16.326c7.5012 2.3315 10.387-0.9833 15.855-0.8102 6.312 0.19981 9.6638 2.6698 9.793 8.484-0.1292 5.8142-3.481 8.2842-9.793 8.484-5.4682 0.1731-8.3537-3.1417-15.855-0.8102"/><path class="d" d="m34.736 15.596c5.15 1.7497 4.8618 7.3151 4.8618 8.4041s0.28818 6.6543-4.8618 8.4041"/><path class="d" d="m23.761 17.116 1e-6 13.769"/><path class="d" d="m19.925 16.913v14.174"/></svg>
