<?xml version="1.0" encoding="UTF-8" standalone="no"?>
<svg
   viewBox="0 0 48 48"
   version="1.1"
   id="svg1"
   sodipodi:docname="idtech4aplusplus.svg"
   inkscape:version="1.3.2 (091e20ef0f, 2023-11-25)"
   xmlns:inkscape="http://www.inkscape.org/namespaces/inkscape"
   xmlns:sodipodi="http://sodipodi.sourceforge.net/DTD/sodipodi-0.dtd"
   xmlns="http://www.w3.org/2000/svg"
   xmlns:svg="http://www.w3.org/2000/svg">
  <sodipodi:namedview
     id="namedview1"
     pagecolor="#505050"
     bordercolor="#eeeeee"
     borderopacity="1"
     inkscape:showpageshadow="0"
     inkscape:pageopacity="0"
     inkscape:pagecheckerboard="0"
     inkscape:deskcolor="#505050"
     inkscape:zoom="16.708333"
     inkscape:cx="24"
     inkscape:cy="22.743143"
     inkscape:window-width="1920"
     inkscape:window-height="1008"
     inkscape:window-x="0"
     inkscape:window-y="0"
     inkscape:window-maximized="1"
     inkscape:current-layer="svg1" />
  <defs
     id="defs1">
    <style
       id="style1">.a{fill:none;stroke:#fff;stroke-linecap:round;stroke-linejoin:round;}</style>
  </defs>
  <path
     class="a"
     id="circle1"
     sodipodi:type="arc"
     sodipodi:cx="22.142767"
     sodipodi:cy="12.148082"
     sodipodi:rx="14.912572"
     sodipodi:ry="8.137845"
     sodipodi:start="3.132866"
     sodipodi:end="0"
     sodipodi:arc-type="arc"
     d="M 7.2307629,12.219097 A 14.912572,8.137845 0 0 1 14.611473,5.1242924 14.912572,8.137845 0 0 1 29.561454,5.0886951 14.912572,8.137845 0 0 1 37.055339,12.148082"
     sodipodi:open="true"
     style="stroke-width:1;stroke-dasharray:none" />
  <line
     class="t"
     x1="37.083122"
     y1="12.193204"
     x2="36.135246"
     y2="32.891273"
     id="line418"
     style="fill:none;stroke:#ffffff;stroke-width:1;stroke-linecap:round;stroke-linejoin:round;stroke-dasharray:none" />
  <line
     class="t"
     x1="7.2506242"
     y1="11.976232"
     x2="8.1984997"
     y2="32.674301"
     id="line418-9"
     style="fill:none;stroke:#ffffff;stroke-width:1;stroke-linecap:round;stroke-linejoin:round;stroke-dasharray:none" />
  <path
     class="a"
     id="circle1-5"
     style="fill:none;stroke:#ffffff;stroke-width:1;stroke-linecap:round;stroke-linejoin:round;stroke-dasharray:none"
     sodipodi:type="arc"
     sodipodi:cx="-36.040531"
     sodipodi:cy="-38.630676"
     sodipodi:rx="3.9635322"
     sodipodi:ry="5.71771"
     sodipodi:start="0"
     sodipodi:end="1.563815"
     sodipodi:arc-type="arc"
     d="m -32.076999,-38.630676 a 3.9635322,5.71771 0 0 1 -3.935862,5.71757"
     transform="scale(-1)"
     sodipodi:open="true" />
  <path
     class="a"
     id="circle1-5-3"
     style="fill:none;stroke:#ffffff;stroke-width:1;stroke-linecap:round;stroke-linejoin:round;stroke-dasharray:none"
     sodipodi:type="arc"
     sodipodi:cx="8.4505033"
     sodipodi:cy="-38.473553"
     sodipodi:rx="3.9628987"
     sodipodi:ry="5.7177825"
     sodipodi:start="0"
     sodipodi:end="1.563815"
     sodipodi:arc-type="arc"
     d="M 12.413402,-38.473553 A 3.9628987,5.7177825 0 0 1 8.4781694,-32.75591"
     transform="scale(1,-1)"
     sodipodi:open="true" />
  <path
     class="a"
     id="circle1-1"
     sodipodi:type="arc"
     sodipodi:cx="22.230795"
     sodipodi:cy="-38.36541"
     sodipodi:rx="9.831254"
     sodipodi:ry="7.0432"
     sodipodi:start="3.132866"
     sodipodi:end="0"
     sodipodi:arc-type="arc"
     d="m 12.399915,-38.303947 a 9.831254,7.0432 0 0 1 4.865803,-6.140462 9.831254,7.0432 0 0 1 9.855917,-0.03081 9.831254,7.0432 0 0 1 4.940414,6.109808"
     sodipodi:open="true"
     style="fill:none;stroke:#ffffff;stroke-width:1.00222;stroke-linecap:round;stroke-linejoin:round;stroke-dasharray:none"
     transform="scale(1,-1)" />
  <line
     class="t"
     x1="26.233433"
     y1="22.602198"
     x2="26.233433"
     y2="11.644297"
     id="line425"
     style="fill:none;stroke:#ffffff;stroke-width:1.2476;stroke-linecap:round;stroke-linejoin:round" />
  <path
     class="t"
     d="m 26.233433,18.082061 c 0,-1.513013 -1.017492,-2.739476 -2.272708,-2.739476 v 0 c -1.255217,0 -2.272709,1.226463 -2.272709,2.739476 v 1.780659 c 0,1.513012 1.017492,2.739475 2.272709,2.739475 v 0 c 1.255216,0 2.272708,-1.226463 2.272708,-2.739475"
     id="path425"
     style="fill:none;stroke:#ffffff;stroke-width:1.2476;stroke-linecap:round;stroke-linejoin:round" />
  <line
     class="t"
     x1="18.642563"
     y1="15.429903"
     x2="18.642563"
     y2="22.560715"
     id="line388"
     style="fill:none;stroke:#ffffff;stroke-width:1;stroke-linecap:round;stroke-linejoin:round;stroke-dasharray:none" />
  <ellipse
     class="s"
     cx="18.642563"
     cy="12.133592"
     id="circle387"
     style="fill:#ffffff;stroke-width:1;stroke-dasharray:none"
     rx="0.69999999"
     ry="0.94180471" />
  <line
     class="t"
     x1="15.772383"
     y1="33.274708"
     x2="15.772383"
     y2="27.935785"
     id="line360"
     style="display:inline;fill:none;stroke:#ffffff;stroke-width:0.524072;stroke-linecap:round;stroke-linejoin:round;stroke-dasharray:none" />
  <line
     class="t"
     x1="13.968714"
     y1="27.910969"
     x2="17.57605"
     y2="27.910969"
     id="line359"
     style="display:inline;fill:none;stroke:#ffffff;stroke-width:0.5;stroke-linecap:round;stroke-linejoin:round;stroke-dasharray:none" />
  <polyline
     class="t"
     points="131.8338 48.65 127.8338 48.65 127.8338 40.65 131.8338 40.65"
     id="polyline412"
     style="display:inline;fill:none;stroke:#ffffff;stroke-width:0.773785;stroke-linecap:round;stroke-linejoin:round;stroke-dasharray:none"
     transform="matrix(0.62901621,0,0,0.66380089,-61.760222,0.92507602)" />
  <line
     class="t"
     x1="18.649309"
     y1="30.563782"
     x2="20.289785"
     y2="30.563782"
     id="line412"
     style="display:inline;fill:none;stroke:#ffffff;stroke-width:0.5;stroke-linecap:round;stroke-linejoin:round;stroke-dasharray:none" />
  <path
     class="t"
     d="m 25.538904,31.445991 v 0.0227 c 0,1.012601 -0.713812,1.83342 -1.594405,1.83342 v 0 c -0.880593,0 -1.594405,-0.820819 -1.594405,-1.83342 v -1.868013 c 0,-1.0126 0.713812,-1.833418 1.594405,-1.833418 v 0 c 0.880593,0 1.594405,0.820818 1.594405,1.833418 v 0.0227"
     id="path410"
     style="display:inline;fill:none;stroke:#ffffff;stroke-width:0.480891;stroke-linecap:round;stroke-linejoin:round;stroke-dasharray:none" />
  <line
     class="t"
     x1="26.820213"
     y1="30.458729"
     x2="29.834755"
     y2="30.458729"
     id="line367"
     style="display:inline;fill:none;stroke:#ffffff;stroke-width:0.5;stroke-linecap:round;stroke-linejoin:round;stroke-dasharray:none" />
  <line
     class="t"
     x1="29.834755"
     y1="27.753275"
     x2="29.834755"
     y2="33.184692"
     id="line366"
     style="display:inline;fill:none;stroke:#ffffff;stroke-width:0.5;stroke-linecap:round;stroke-linejoin:round;stroke-dasharray:none" />
  <line
     class="t"
     x1="26.820213"
     y1="27.753275"
     x2="26.820213"
     y2="33.184692"
     id="line365"
     style="display:inline;fill:none;stroke:#ffffff;stroke-width:0.5;stroke-linecap:round;stroke-linejoin:round;stroke-dasharray:none" />
  <polyline
     class="t"
     points="131.3111 32.65 131.3107 24.65 127.0172 30.0236 132.3172 30.0236"
     id="polyline389"
     style="display:inline;fill:none;stroke:#ffffff;stroke-width:1.52259;stroke-linecap:round;stroke-linejoin:round;stroke-dasharray:none"
     transform="matrix(0.64552469,0,0,0.70113876,-62.063315,18.889269)" />
  <polyline
     class="t"
     points="87.1838 48.65 89.8338 40.65 92.4838 48.65"
     id="polyline580"
     style="display:inline;fill:none;stroke:#ffffff;stroke-linecap:round;stroke-linejoin:round"
     transform="translate(-47.830152,-15.702712)" />
  <line
     class="t"
     x1="43.775852"
     y1="30.297289"
     x2="40.231449"
     y2="30.297289"
     id="line580"
     style="display:inline;fill:none;stroke:#ffffff;stroke-linecap:round;stroke-linejoin:round" />
  <line
     class="t"
     x1="43.938206"
     y1="34.954029"
     x2="43.938206"
     y2="37.663807"
     id="line449-6"
     style="display:inline;fill:none;stroke:#ffffff;stroke-width:0.670985;stroke-linecap:round;stroke-linejoin:round" />
  <line
     class="t"
     x1="42.609032"
     y1="36.308914"
     x2="45.26738"
     y2="36.308914"
     id="line448-4"
     style="display:inline;fill:none;stroke:#ffffff;stroke-width:0.670985;stroke-linecap:round;stroke-linejoin:round" />
  <line
     class="t"
     x1="39.939682"
     y1="34.910927"
     x2="39.939682"
     y2="37.620705"
     id="line449-6-0"
     style="display:inline;fill:none;stroke:#ffffff;stroke-width:0.670985;stroke-linecap:round;stroke-linejoin:round" />
  <line
     class="t"
     x1="38.610508"
     y1="36.265812"
     x2="41.268856"
     y2="36.265812"
     id="line448-4-9"
     style="display:inline;fill:none;stroke:#ffffff;stroke-width:0.670985;stroke-linecap:round;stroke-linejoin:round" />
</svg>
