<?xml version="1.0" encoding="UTF-8" standalone="no"?>
<svg
   viewBox="0 0 48 48"
   version="1.1"
   id="svg1"
   sodipodi:docname="iflytek_input.svg"
   inkscape:version="1.3.2 (091e20ef0f, 2023-11-25)"
   xml:space="preserve"
   xmlns:inkscape="http://www.inkscape.org/namespaces/inkscape"
   xmlns:sodipodi="http://sodipodi.sourceforge.net/DTD/sodipodi-0.dtd"
   xmlns="http://www.w3.org/2000/svg"
   xmlns:svg="http://www.w3.org/2000/svg"><sodipodi:namedview
     id="namedview1"
     pagecolor="#505050"
     bordercolor="#eeeeee"
     borderopacity="1"
     inkscape:showpageshadow="0"
     inkscape:pageopacity="0"
     inkscape:pagecheckerboard="0"
     inkscape:deskcolor="#505050"
     inkscape:zoom="8.90625"
     inkscape:cx="1.0666667"
     inkscape:cy="21.838596"
     inkscape:window-width="1918"
     inkscape:window-height="1053"
     inkscape:window-x="0"
     inkscape:window-y="0"
     inkscape:window-maximized="1"
     inkscape:current-layer="svg1" /><defs
     id="defs1"><style
       id="style1">.a { fill:none;stroke:#fff;stroke-linecap:round;stroke-linejoin:round; }
</style></defs><path
     style="display:inline;fill:none;stroke:#ffffff;stroke-width:1;stroke-linecap:round;stroke-linejoin:round;stroke-opacity:1"
     d="M 11.407093,11.404523 C 5.8009753,17.01064 4.5870733,25.648446 8.4208788,32.588118 c 0.806546,1.45995 2.2352132,4.140558 0.3688399,6.583669 -8.39048533,-8.390485 -8.3904851,-21.994151 0,-30.3846367 8.3904853,-8.39048571 21.9941523,-8.39048594 30.4038843,0.019249 8.409731,8.4097297 8.409731,22.0133957 0.01925,30.4038817 -8.390485,8.390485 -21.994152,8.390485 -30.3846378,0 2.4431118,-1.866371 5.1237198,-0.437705 6.5836708,0.368842 6.939671,3.833805 15.577477,2.619904 21.183594,-2.986215 C 43.54043,29.647959 43.54043,18.387969 36.57623,11.423773 29.612033,4.4595725 18.352043,4.4595723 11.407093,11.404523 Z"
     id="path16" /><path
     style="display:inline;fill:none;stroke:#ffffff;stroke-width:1;stroke-linecap:round;stroke-linejoin:round;stroke-opacity:1"
     d="m 24.329063,18.296231 v 11.404967 h 5.66638"
     id="path15" /><g
     id="g16"><path
       style="display:inline;fill:none;stroke:#ffffff;stroke-width:1;stroke-linecap:round;stroke-linejoin:round;stroke-opacity:1"
       d="M 36.876604,18.296229 33.122627,23.998712 29.36865,18.296229"
       id="path14" /><path
       style="display:inline;fill:none;stroke:#ffffff;stroke-width:1;stroke-linecap:round;stroke-linejoin:round;stroke-opacity:1"
       d="M 33.122627,29.701199 V 23.998715"
       id="path13" /></g><g
     id="g17"><path
       style="display:inline;fill:none;stroke:#ffffff;stroke-width:1;stroke-linecap:round;stroke-linejoin:round;stroke-opacity:1"
       d="m 15.523936,23.998717 h 3.683161"
       id="path12" /><path
       style="display:inline;fill:none;stroke:#ffffff;stroke-width:1;stroke-linecap:round;stroke-linejoin:round;stroke-opacity:1"
       d="M 15.523936,29.701198 V 18.296231 h 5.66638"
       id="path11" /></g><g
     id="g18"><path
       style="display:inline;fill:none;stroke:#ffffff;stroke-width:1;stroke-linecap:round;stroke-linejoin:round;stroke-opacity:1"
       d="m 11.479468,22.002844 v 7.69835"
       id="path8" /><circle
       class="cls-7"
       cx="11.479468"
       cy="18.58136"
       id="circle11"
       style="fill:#ffffff;stroke:#ffffff;stroke-width:0px;stroke-opacity:1"
       r="0.75" /></g></svg>
