<?xml version="1.0" encoding="UTF-8"?>
<!-- Created with Inkscape (http://www.inkscape.org/) -->
<svg version="1.1" viewBox="0 0 48 48" xml:space="preserve" xmlns="http://www.w3.org/2000/svg"><defs><style>.a{fill:none;stroke:#fff;stroke-linecap:round;stroke-linejoin:round;}</style></defs><g transform="matrix(1.3955 0 0 1.3955 -113.95 -8.0341)" fill-opacity="0" stroke="#fff" stroke-linecap="round" stroke-linejoin="round" stroke-width=".71659"><path transform="matrix(-1 0 0 1 198.29 -.32096)" d="m87.046 17.774c0.05374-0.12945 0.11724-0.30531 0.38836-0.78894 0.27112-0.48362 0.74985-1.275 1.3971-2.0712 0.64727-0.79627 1.4631-1.5974 2.3155-2.2593 0.85244-0.66193 1.7415-1.1846 2.2422-1.4557 0.50072-0.27112 0.61307-0.29066 0.69612-0.29554 0.08305-0.0049 0.13678 0.0049 0.1441 0.06595 0.0073 0.06106-0.03175 0.17342-0.0806 0.41034s-0.10747 0.59841-0.16609 0.98433c-0.05862 0.38592-0.11724 0.79625-0.1612 1.1846-0.04397 0.38836-0.07328 0.75473-0.09282 0.96235-0.01954 0.20762-0.02931 0.25646-0.10747 0.33706-0.07816 0.08061-0.22471 0.19296-0.41767 0.3273-0.19296 0.13434-0.43232 0.29066-0.70589 0.53003-0.27356 0.23937-0.58132 0.56177-0.82801 0.86221-0.2467 0.30043-0.43232 0.57887-0.54224 0.75718-0.10991 0.1783-0.14411 0.25646-0.21494 0.31508-0.07083 0.05862-0.1783 0.0977-0.41523 0.1319-0.23693 0.0342-0.6033 0.06351-1.1529 0.13678-0.54957 0.07328-1.2823 0.19052-1.7146 0.26868s-0.56422 0.11724-0.63505 0.09281c-0.07083-0.02443-0.0806-0.11235-0.0635-0.19784 0.0171-0.08549 0.06106-0.16853 0.1148-0.29798z"/><path transform="rotate(180 99.218 23.124)" d="m87.046 17.774c0.05374-0.12945 0.11724-0.30531 0.38836-0.78894 0.27112-0.48362 0.74985-1.275 1.3971-2.0712 0.64727-0.79627 1.4631-1.5974 2.3155-2.2593 0.85244-0.66193 1.7415-1.1846 2.2422-1.4557 0.50072-0.27112 0.61307-0.29066 0.69612-0.29554 0.08305-0.0049 0.13678 0.0049 0.1441 0.06595 0.0073 0.06106-0.03175 0.17342-0.0806 0.41034s-0.10747 0.59841-0.16609 0.98433c-0.05862 0.38592-0.11724 0.79625-0.1612 1.1846-0.04397 0.38836-0.07328 0.75473-0.09282 0.96235-0.01954 0.20762-0.02931 0.25646-0.10747 0.33706-0.07816 0.08061-0.22471 0.19296-0.41767 0.3273-0.19296 0.13434-0.43232 0.29066-0.70589 0.53003-0.27356 0.23937-0.58132 0.56177-0.82801 0.86221-0.2467 0.30043-0.43232 0.57887-0.54224 0.75718-0.10991 0.1783-0.14411 0.25646-0.21494 0.31508-0.07083 0.05862-0.1783 0.0977-0.41523 0.1319-0.23693 0.0342-0.6033 0.06351-1.1529 0.13678-0.54957 0.07328-1.2823 0.19052-1.7146 0.26868s-0.56422 0.11724-0.63505 0.09281c-0.07083-0.02443-0.0806-0.11235-0.0635-0.19784 0.0171-0.08549 0.06106-0.16853 0.1148-0.29798z"/><path transform="matrix(-1 0 0 1 198.16 -.071742)" d="m84.099 21.412c-0.0046 0.68704-0.01377 2.0611-0.01835 2.8129-0.0046 0.75177-0.0046 0.88122 0.01495 0.98381 0.01954 0.10259 0.05862 0.1783 0.11968 0.24059 0.06106 0.06228 0.14411 0.11113 0.50438 0.2467 0.36028 0.13556 0.99776 0.35782 1.7611 0.57888 0.76329 0.22105 1.6523 0.44087 2.5207 0.58986s1.7159 0.22715 2.1763 0.25768c0.46042 0.03053 0.53369 0.01343 0.59231-0.01832 0.05862-0.03175 0.10258-0.07816 0.66193-0.69124 0.55934-0.61308 1.634-1.7928 2.197-2.4169 0.563-0.62406 0.61429-0.69245 0.64482-0.77184 0.03053-0.07939 0.0403-0.16975 0.01954-0.24302-0.02076-0.07328-0.07205-0.12945-0.60209-0.75597-0.53004-0.62652-1.5388-1.8233-2.0651-2.4486-0.52636-0.62528-0.57032-0.67902-0.65703-0.71199-0.08671-0.03297-0.21616-0.04519-0.79382-0.0061-0.57766 0.03908-1.6035 0.12945-2.7063 0.32486s-2.2825 0.49583-3.0006 0.69611-0.97456 0.30043-1.1187 0.36515c-0.14411 0.06473-0.17586 0.09404-0.19814 0.13486-0.02228 0.04082-0.03509 0.09315-0.04149 0.11932-0.0064 0.02617-0.0064 0.02617-0.01099 0.71321z"/><path transform="rotate(-89.755 99.091 22.994)" d="m84.099 21.412c-0.0046 0.68704-0.01377 2.0611-0.01835 2.8129-0.0046 0.75177-0.0046 0.88122 0.01495 0.98381 0.01954 0.10259 0.05862 0.1783 0.11968 0.24059 0.06106 0.06228 0.14411 0.11113 0.50438 0.2467 0.36028 0.13556 0.99776 0.35782 1.7611 0.57888 0.76329 0.22105 1.6523 0.44087 2.5207 0.58986s1.7159 0.22715 2.1763 0.25768c0.46042 0.03053 0.53369 0.01343 0.59231-0.01832 0.05862-0.03175 0.10258-0.07816 0.66193-0.69124 0.55934-0.61308 1.634-1.7928 2.197-2.4169 0.563-0.62406 0.61429-0.69245 0.64482-0.77184 0.03053-0.07939 0.0403-0.16975 0.01954-0.24302-0.02076-0.07328-0.07205-0.12945-0.60209-0.75597-0.53004-0.62652-1.5388-1.8233-2.0651-2.4486-0.52636-0.62528-0.57032-0.67902-0.65703-0.71199-0.08671-0.03297-0.21616-0.04519-0.79382-0.0061-0.57766 0.03908-1.6035 0.12945-2.7063 0.32486s-2.2825 0.49583-3.0006 0.69611-0.97456 0.30043-1.1187 0.36515c-0.14411 0.06473-0.17586 0.09404-0.19814 0.13486-0.02228 0.04082-0.03509 0.09315-0.04149 0.11932-0.0064 0.02617-0.0064 0.02617-0.01099 0.71321z"/><path transform="rotate(90.245 99.028 23.055)" d="m84.099 21.412c-0.0046 0.68704-0.01377 2.0611-0.01835 2.8129-0.0046 0.75177-0.0046 0.88122 0.01495 0.98381 0.01954 0.10259 0.05862 0.1783 0.11968 0.24059 0.06106 0.06228 0.14411 0.11113 0.50438 0.2467 0.36028 0.13556 0.99776 0.35782 1.7611 0.57888 0.76329 0.22105 1.6523 0.44087 2.5207 0.58986s1.7159 0.22715 2.1763 0.25768c0.46042 0.03053 0.53369 0.01343 0.59231-0.01832 0.05862-0.03175 0.10258-0.07816 0.66193-0.69124 0.55934-0.61308 1.634-1.7928 2.197-2.4169 0.563-0.62406 0.61429-0.69245 0.64482-0.77184 0.03053-0.07939 0.0403-0.16975 0.01954-0.24302-0.02076-0.07328-0.07205-0.12945-0.60209-0.75597-0.53004-0.62652-1.5388-1.8233-2.0651-2.4486-0.52636-0.62528-0.57032-0.67902-0.65703-0.71199-0.08671-0.03297-0.21616-0.04519-0.79382-0.0061-0.57766 0.03908-1.6035 0.12945-2.7063 0.32486s-2.2825 0.49583-3.0006 0.69611-0.97456 0.30043-1.1187 0.36515c-0.14411 0.06473-0.17586 0.09404-0.19814 0.13486-0.02228 0.04082-0.03509 0.09315-0.04149 0.11932-0.0064 0.02617-0.0064 0.02617-0.01099 0.71321z"/><path d="m84.099 21.412c-0.0046 0.68704-0.01377 2.0611-0.01835 2.8129-0.0046 0.75177-0.0046 0.88122 0.01495 0.98381 0.01954 0.10259 0.05862 0.1783 0.11968 0.24059 0.06106 0.06228 0.14411 0.11113 0.50438 0.2467 0.36028 0.13556 0.99776 0.35782 1.7611 0.57888 0.76329 0.22105 1.6523 0.44087 2.5207 0.58986s1.7159 0.22715 2.1763 0.25768c0.46042 0.03053 0.53369 0.01343 0.59231-0.01832 0.05862-0.03175 0.10258-0.07816 0.66193-0.69124 0.55934-0.61308 1.634-1.7928 2.197-2.4169 0.563-0.62406 0.61429-0.69245 0.64482-0.77184 0.03053-0.07939 0.0403-0.16975 0.01954-0.24302-0.02076-0.07328-0.07205-0.12945-0.60209-0.75597-0.53004-0.62652-1.5388-1.8233-2.0651-2.4486-0.52636-0.62528-0.57032-0.67902-0.65703-0.71199-0.08671-0.03297-0.21616-0.04519-0.79382-0.0061-0.57766 0.03908-1.6035 0.12945-2.7063 0.32486s-2.2825 0.49583-3.0006 0.69611-0.97456 0.30043-1.1187 0.36515c-0.14411 0.06473-0.17586 0.09404-0.19814 0.13486-0.02228 0.04082-0.03509 0.09315-0.04149 0.11932-0.0064 0.02617-0.0064 0.02617-0.01099 0.71321z"/><path d="m87.046 17.774c0.05374-0.12945 0.11724-0.30531 0.38836-0.78894 0.27112-0.48362 0.74985-1.275 1.3971-2.0712 0.64727-0.79627 1.4631-1.5974 2.3155-2.2593 0.85244-0.66193 1.7415-1.1846 2.2422-1.4557 0.50072-0.27112 0.61307-0.29066 0.69612-0.29554 0.08305-0.0049 0.13678 0.0049 0.1441 0.06595 0.0073 0.06106-0.03175 0.17342-0.0806 0.41034s-0.10747 0.59841-0.16609 0.98433c-0.05862 0.38592-0.11724 0.79625-0.1612 1.1846-0.04397 0.38836-0.07328 0.75473-0.09282 0.96235-0.01954 0.20762-0.02931 0.25646-0.10747 0.33706-0.07816 0.08061-0.22471 0.19296-0.41767 0.3273-0.19296 0.13434-0.43232 0.29066-0.70589 0.53003-0.27356 0.23937-0.58132 0.56177-0.82801 0.86221-0.2467 0.30043-0.43232 0.57887-0.54224 0.75718-0.10991 0.1783-0.14411 0.25646-0.21494 0.31508-0.07083 0.05862-0.1783 0.0977-0.41523 0.1319-0.23693 0.0342-0.6033 0.06351-1.1529 0.13678-0.54957 0.07328-1.2823 0.19052-1.7146 0.26868s-0.56422 0.11724-0.63505 0.09281c-0.07083-0.02443-0.0806-0.11235-0.0635-0.19784 0.0171-0.08549 0.06106-0.16853 0.1148-0.29798z"/><path transform="matrix(1 0 0 -1 -.13386 46.186)" d="m87.046 17.774c0.05374-0.12945 0.11724-0.30531 0.38836-0.78894 0.27112-0.48362 0.74985-1.275 1.3971-2.0712 0.64727-0.79627 1.4631-1.5974 2.3155-2.2593 0.85244-0.66193 1.7415-1.1846 2.2422-1.4557 0.50072-0.27112 0.61307-0.29066 0.69612-0.29554 0.08305-0.0049 0.13678 0.0049 0.1441 0.06595 0.0073 0.06106-0.03175 0.17342-0.0806 0.41034s-0.10747 0.59841-0.16609 0.98433c-0.05862 0.38592-0.11724 0.79625-0.1612 1.1846-0.04397 0.38836-0.07328 0.75473-0.09282 0.96235-0.01954 0.20762-0.02931 0.25646-0.10747 0.33706-0.07816 0.08061-0.22471 0.19296-0.41767 0.3273-0.19296 0.13434-0.43232 0.29066-0.70589 0.53003-0.27356 0.23937-0.58132 0.56177-0.82801 0.86221-0.2467 0.30043-0.43232 0.57887-0.54224 0.75718-0.10991 0.1783-0.14411 0.25646-0.21494 0.31508-0.07083 0.05862-0.1783 0.0977-0.41523 0.1319-0.23693 0.0342-0.6033 0.06351-1.1529 0.13678-0.54957 0.07328-1.2823 0.19052-1.7146 0.26868s-0.56422 0.11724-0.63505 0.09281c-0.07083-0.02443-0.0806-0.11235-0.0635-0.19784 0.0171-0.08549 0.06106-0.16853 0.1148-0.29798z"/></g></svg>
