<?xml version="1.0" encoding="UTF-8" standalone="no"?>
<svg
   id="Layer_1"
   data-name="Layer 1"
   version="1.1"
   viewBox="0 0 48 48"
   sodipodi:docname="ignrando.svg"
   inkscape:version="1.1.2 (0a00cf5339, 2022-02-04)"
   xmlns:inkscape="http://www.inkscape.org/namespaces/inkscape"
   xmlns:sodipodi="http://sodipodi.sourceforge.net/DTD/sodipodi-0.dtd"
   xmlns="http://www.w3.org/2000/svg"
   xmlns:svg="http://www.w3.org/2000/svg">
  <sodipodi:namedview
     id="namedview9"
     pagecolor="#ffffff"
     bordercolor="#666666"
     borderopacity="1.0"
     inkscape:pageshadow="2"
     inkscape:pageopacity="0.0"
     inkscape:pagecheckerboard="0"
     showgrid="false"
     inkscape:zoom="14.9375"
     inkscape:cx="27.949791"
     inkscape:cy="24.033473"
     inkscape:window-width="1680"
     inkscape:window-height="988"
     inkscape:window-x="0"
     inkscape:window-y="25"
     inkscape:window-maximized="1"
     inkscape:current-layer="Layer_1"
     showguides="true"
     inkscape:guide-bbox="true">
    <sodipodi:guide
       position="19.146444,8.8368201"
       orientation="0,-1"
       id="guide1419" />
    <sodipodi:guide
       position="17.941423,19.213389"
       orientation="0,-1"
       id="guide1501" />
  </sodipodi:namedview>
  <defs
     id="defs4">
    <style
       id="style2">
      .cls-1 {
        fill: none;
        stroke: #fff;
        stroke-linecap: round;
        stroke-linejoin: round;
      }
    </style>
  </defs>
  <line
     class="r"
     x1="6.0670638"
     y1="19.623308"
     x2="6.0670638"
     y2="28.78661"
     id="line8"
     style="fill:none;stroke:#ffffff;stroke-width:1;stroke-linecap:round;stroke-linejoin:round;stroke-miterlimit:4;stroke-dasharray:none;stroke-opacity:1" />
  <polyline
     class="r"
     points="217.20430529 48.65004656 217.20430529 40.65004656 222.50430529 48.65004656 222.50430529 40.65004656"
     id="polyline74"
     style="fill:none;stroke:#ffffff;stroke-width:0.873048;stroke-linecap:round;stroke-linejoin:round;stroke-miterlimit:4;stroke-dasharray:none;stroke-opacity:1"
     transform="matrix(1.1454125,0,0,1.1454125,-228.27718,-26.937761)" />
  <path
     class="r"
     d="m 16.356768,22.360077 c 0,-1.676372 -1.358974,-3.035341 -3.035343,-3.035341 h -1.1e-5 c -1.676369,0 -3.035343,1.358969 -3.035343,3.035341 v 3.092603 c 0,1.676374 1.358974,3.035342 3.035343,3.035342 h 1.1e-5 c 1.676369,0 3.035343,-1.358968 3.035343,-3.035342 h -3.035343"
     id="path496"
     style="fill:none;stroke:#ffffff;stroke-width:1;stroke-linecap:round;stroke-linejoin:round;stroke-miterlimit:4;stroke-dasharray:none;stroke-opacity:1" />
  <path
     class="r"
     d="m 5.8341953,35.863175 c 0,-1.104568 0.89543,-1.999998 2.0000003,-1.999998 h 10e-6"
     id="path126"
     style="fill:none;stroke:#ffffff;stroke-width:1;stroke-linecap:round;stroke-linejoin:round;stroke-miterlimit:4;stroke-dasharray:none;stroke-opacity:1" />
  <line
     class="r"
     x1="5.8341975"
     y1="33.863178"
     x2="5.8341975"
     y2="39.163181"
     id="line128"
     style="fill:none;stroke:#ffffff;stroke-width:1;stroke-linecap:round;stroke-linejoin:round;stroke-miterlimit:4;stroke-dasharray:none;stroke-opacity:1" />
  <path
     class="r"
     d="m 15.075557,37.163179 c 0,1.104568 -0.89543,1.999998 -1.999999,1.999998 h -4e-6 c -1.104568,0 -1.999998,-0.89543 -1.999998,-1.999998 v -1.300004 c 0,-1.104568 0.89543,-1.999998 1.999998,-1.999998 h 4e-6 c 1.104569,0 1.999999,0.89543 1.999999,1.999998"
     id="path216"
     style="fill:none;stroke:#ffffff;stroke-width:1;stroke-linecap:round;stroke-linejoin:round;stroke-miterlimit:4;stroke-dasharray:none;stroke-opacity:1" />
  <line
     class="r"
     x1="15.075562"
     y1="39.163181"
     x2="15.075562"
     y2="33.863178"
     id="line218"
     style="fill:none;stroke:#ffffff;stroke-width:1;stroke-linecap:round;stroke-linejoin:round;stroke-miterlimit:4;stroke-dasharray:none;stroke-opacity:1" />
  <path
     class="r"
     d="m 23.14644,39.163179 v -3.3 c 0,-1.104569 -0.89543,-2 -2,-2 h -10e-6 c -1.10457,0 -1.99999,0.89543 -1.99999,1.999998"
     id="path230"
     style="fill:none;stroke:#ffffff;stroke-width:1;stroke-linecap:round;stroke-linejoin:round;stroke-miterlimit:4;stroke-dasharray:none;stroke-opacity:1" />
  <line
     class="r"
     x1="19.146444"
     y1="39.163181"
     x2="19.146444"
     y2="33.863178"
     id="line232"
     style="fill:none;stroke:#ffffff;stroke-width:1;stroke-linecap:round;stroke-linejoin:round;stroke-miterlimit:4;stroke-dasharray:none;stroke-opacity:1" />
  <path
     class="r"
     d="m 34.46912,35.688222 c 0,-1.104569 0.89543,-2 2,-2 1.10457,0 2,0.895431 2,2 v 1.3 c 0,1.104569 -0.89543,2 -2,2 -1.10457,0 -2,-0.895431 -2,-2 z"
     id="path1025"
     style="fill:none;stroke:#ffffff;stroke-width:1;stroke-linecap:round;stroke-linejoin:round;stroke-miterlimit:4;stroke-dasharray:none;stroke-opacity:1" />
  <path
     class="r"
     d="m 30.469603,35.749043 c 0,-1.104568 -0.89543,-1.999998 -2,-1.999998 h -10e-6 c -1.10457,0 -1.99999,0.89543 -1.99999,1.999998 v 1.300004 c 0,1.104568 0.89542,1.999998 1.99999,1.999998 h 10e-6 c 1.10457,0 2,-0.89543 2,-1.999998"
     id="path298-1"
     style="fill:none;stroke:#ffffff;stroke-width:1;stroke-linecap:round;stroke-linejoin:round;stroke-miterlimit:4;stroke-dasharray:none;stroke-opacity:1" />
  <line
     class="r"
     x1="30.402658"
     y1="39.163181"
     x2="30.402658"
     y2="31.163177"
     id="line300-2"
     style="fill:none;stroke:#ffffff;stroke-width:1;stroke-linecap:round;stroke-linejoin:round;stroke-miterlimit:4;stroke-dasharray:none;stroke-opacity:1" />
  <path
     class="a"
     d="m 35.350912,8.5073815 a 7.0013456,7.0013456 0 0 0 -7.001345,7.0013455 c 0,5.482337 5.348621,12.093233 6.744611,13.708517 a 0.42788972,0.42788972 0 0 0 0.647184,0 c 1.363898,-1.604586 6.610896,-8.22618 6.610896,-13.708517 A 7.0013456,7.0013456 0 0 0 35.350912,8.5073815 Z m 0,9.6275185 a 2.6208246,2.6208246 0 1 1 2.615476,-2.620824 2.6154759,2.6154759 0 0 1 -2.615476,2.615476 z"
     id="path6"
     style="fill:none;stroke:#ffffff;stroke-width:1;stroke-linecap:round;stroke-linejoin:round;stroke-miterlimit:4;stroke-dasharray:none;stroke-opacity:1" />
</svg>
