<?xml version="1.0" encoding="UTF-8"?><svg viewBox="0 0 48 48"><style>.a {fill: none;stroke: #fff;stroke-linecap: round;stroke-linejoin: round;}</style><line class="a" x1="6.0670638" y1="19.623308" x2="6.0670638" y2="28.78661" /><polyline class="a" points="217.20430529 48.65004656 217.20430529 40.65004656 222.50430529 48.65004656 222.50430529 40.65004656" transform="matrix(1.1454125,0,0,1.1454125,-228.27718,-26.937761)" /><path class="a" d="m 16.356768,22.360077 c 0,-1.676372 -1.358974,-3.035341 -3.035343,-3.035341 h -1.1e-5 c -1.676369,0 -3.035343,1.358969 -3.035343,3.035341 v 3.092603 c 0,1.676374 1.358974,3.035342 3.035343,3.035342 h 1.1e-5 c 1.676369,0 3.035343,-1.358968 3.035343,-3.035342 h -3.035343" /><path class="a" d="m 5.8341953,35.863175 c 0,-1.104568 0.89543,-1.999998 2.0000003,-1.999998 h 10e-6" /><line class="a" x1="5.8341975" y1="33.863178" x2="5.8341975" y2="39.163181" /><path class="a" d="m 15.075557,37.163179 c 0,1.104568 -0.89543,1.999998 -1.999999,1.999998 h -4e-6 c -1.104568,0 -1.999998,-0.89543 -1.999998,-1.999998 v -1.300004 c 0,-1.104568 0.89543,-1.999998 1.999998,-1.999998 h 4e-6 c 1.104569,0 1.999999,0.89543 1.999999,1.999998" /><line class="a" x1="15.075562" y1="39.163181" x2="15.075562" y2="33.863178" /><path class="a" d="m 23.14644,39.163179 v -3.3 c 0,-1.104569 -0.89543,-2 -2,-2 h -10e-6 c -1.10457,0 -1.99999,0.89543 -1.99999,1.999998" /><line class="a" x1="19.146444" y1="39.163181" x2="19.146444" y2="33.863178" /><path class="a" d="m 34.46912,35.688222 c 0,-1.104569 0.89543,-2 2,-2 1.10457,0 2,0.895431 2,2 v 1.3 c 0,1.104569 -0.89543,2 -2,2 -1.10457,0 -2,-0.895431 -2,-2 z" /><path class="a" d="m 30.469603,35.749043 c 0,-1.104568 -0.89543,-1.999998 -2,-1.999998 h -10e-6 c -1.10457,0 -1.99999,0.89543 -1.99999,1.999998 v 1.300004 c 0,1.104568 0.89542,1.999998 1.99999,1.999998 h 10e-6 c 1.10457,0 2,-0.89543 2,-1.999998" /><line class="a" x1="30.402658" y1="39.163181" x2="30.402658" y2="31.163177" /><path class="a" d="m 35.350912,8.5073815 a 7.0013456,7.0013456 0 0 0 -7.001345,7.0013455 c 0,5.482337 5.348621,12.093233 6.744611,13.708517 a 0.42788972,0.42788972 0 0 0 0.647184,0 c 1.363898,-1.604586 6.610896,-8.22618 6.610896,-13.708517 A 7.0013456,7.0013456 0 0 0 35.350912,8.5073815 Z m 0,9.6275185 a 2.6208246,2.6208246 0 1 1 2.615476,-2.620824 2.6154759,2.6154759 0 0 1 -2.615476,2.615476 z" /></svg>