<?xml version="1.0" encoding="UTF-8"?>
<!-- Created with Inkscape (http://www.inkscape.org/) -->
<svg version="1.1" viewBox="0 0 48 48" xml:space="preserve" xmlns="http://www.w3.org/2000/svg"><defs><style>.q{fill:#fff;}.r,.s{fill:none;stroke:#fff;stroke-linecap:round;stroke-linejoin:round;}.s{stroke-width:1.0050968px;}</style><style>
      .cls-1 {
        fill: none;
        stroke: #fff;
        stroke-linecap: round;
        stroke-linejoin: round;
      }
    </style></defs><g transform="translate(-298.81 54.488)"><g transform="translate(176.02 -14.703)"><g transform="translate(.58265 -76.435)"><line class="r" x1="157.83" x2="157.83" y1="56.65" y2="64.65"/><path class="r" d="m157.83 61.35c0-1.1046 0.89542-2 2-2h1e-5c1.1046 0 2 0.89543 2 2v3.3"/></g><g transform="translate(-118.9 -76.435)"><path class="r" d="m258.83 61.35c0-1.1046 0.89543-2 2-2h1e-5"/><line class="r" x1="258.83" x2="258.83" y1="59.35" y2="64.65"/></g><g transform="translate(-38.466 -76.435)"><circle class="q" cx="169.83" cy="56.9" r=".7"/><line class="r" x1="169.83" x2="169.83" y1="59.35" y2="64.65"/></g><g transform="translate(-124.25 -76.435)"><path class="r" d="m279.83 57.7v5.95c0 0.55228 0.44771 1 1 1h0.3"/><line class="r" x1="278.78" x2="280.88" y1="59.35" y2="59.35"/></g><g transform="translate(55.633 -76.435)"><path class="r" d="m91.834 62.65c0 1.1046-0.89543 2-2 2h-4e-6c-1.1046 0-2-0.89543-2-2v-1.3c0-1.1046 0.89543-2 2-2h4e-6c1.1046 0 2 0.89543 2 2"/><line class="r" x1="91.834" x2="91.834" y1="64.65" y2="59.35"/></g><g transform="translate(-69.091 -76.435)"><path class="r" d="m222.09 64.65v-3.3c0-1.1046-0.89543-2-2-2h-1e-5c-1.1046 0-2 0.89543-2 2"/><line class="r" x1="218.09" x2="218.09" y1="64.65" y2="59.35"/></g><path class="r" d="m138.4-17.135c0-1.4636-1.1864-2.65-2.65-2.65h-1e-5c-1.4636 0-2.65 1.1864-2.65 2.65v2.7c0 1.4636 1.1864 2.65 2.65 2.65h1e-5c1.4636 0 2.65-1.1864 2.65-2.65h-2.65"/></g></g><rect class="cls-1" x="5.5" y="5.5" width="37" height="37" rx="4" ry="4"/></svg>
