<svg xmlns="http://www.w3.org/2000/svg" xml:space="preserve" id="svg1" version="1.1" viewBox="0 0 48 48"><defs id="defs1"><style id="style1">.a{fill:none;stroke:#fff;stroke-linecap:round;stroke-linejoin:round}</style></defs><path id="path10130" d="M43.522 23.02c.068 1.369-3.24 7.778-3.865 8.998-.625 1.22-3.895 7.649-5.047 8.393-1.151.744-8.357 1.085-9.727 1.153-1.37.07-8.574.453-9.794-.172-1.22-.625-5.119-6.694-5.863-7.845-.745-1.152-4.679-7.197-4.748-8.566-.069-1.37 3.24-7.779 3.865-8.999.625-1.22 3.895-7.649 5.047-8.393 1.151-.744 8.357-1.085 9.727-1.153 1.37-.07 8.574-.453 9.794.172 1.22.625 5.119 6.694 5.863 7.845.745 1.152 4.679 7.197 4.748 8.566z" style="fill:none;stroke:#fff;stroke-width:1;stroke-linecap:round;stroke-linejoin:round;stroke-opacity:1"/><path id="path10128" d="M38.44 8.06c1.998 1.808 3.165 7.445 3.99 10.01.826 2.563 3.167 7.823 2.6 10.456-.568 2.634-4.87 6.463-6.679 8.46-1.809 1.998-5.196 6.655-7.761 7.48-2.566.826-8.034-.982-10.67-1.549-2.634-.567-8.362-1.17-10.36-2.977-1.998-1.808-3.165-7.445-3.99-10.01-.826-2.563-3.167-7.823-2.6-10.456.568-2.634 4.87-6.463 6.679-8.46 1.809-1.998 5.196-6.655 7.761-7.48 2.566-.826 8.034.982 10.67 1.549 2.634.567 8.362 1.17 10.36 2.977z" style="fill:none;stroke:#fff;stroke-width:1;stroke-linecap:round;stroke-linejoin:round;stroke-opacity:1"/><path id="path10057" d="M28.804 3.038c2.626.6 6.4 4.948 8.375 6.782 1.974 1.833 6.588 5.278 7.38 7.852.792 2.575-1.087 8.018-1.69 10.645-.601 2.626-1.279 8.344-3.113 10.318-1.835 1.974-7.49 3.069-10.065 3.862-2.576.792-7.868 3.066-10.495 2.465-2.626-.6-6.4-4.948-8.375-6.782-1.974-1.833-6.588-5.278-7.38-7.852-.792-2.575 1.087-8.018 1.69-10.645.601-2.626 1.279-8.344 3.113-10.318 1.835-1.974 7.49-3.069 10.065-3.862 2.576-.792 7.868-3.066 10.495-2.465Z" style="fill:none;stroke:#fff;stroke-width:1;stroke-linecap:round;stroke-linejoin:round;stroke-opacity:1"/></svg>