<?xml version="1.0" encoding="UTF-8"?>
<svg
   width="48"
   height="48"
   viewBox="0 0 48 48"
   version="1.1"
   xmlns="http://www.w3.org/2000/svg">
  <defs>
    <style>
      .a {
        fill: none;
        stroke: #fff;
        stroke-linecap: round;
        stroke-linejoin: round;
      }
    </style>
  </defs>
  <path class="a" d="m 38.521374,30.11839 -4.874803,3.02009 0.163376,5.705316 -8.336662,-10.129411 z" />
  <path class="a" d="m 15.641415,11.746895 5.719132,0.419742 3.219439,-4.7130179 0.79583,13.0947139 z" />
  <path class="a" d="m 32.750317,12.368847 1.481318,5.539887 5.508789,1.49351 -12.107462,5.051161 z" />
  <path class="a" d="M 23.184941,39.579139 18.819016,35.861161 13.436863,37.7611 20.532289,26.726617 Z" />
  <path class="a" d="M 9.5341556,28.607406 11.74396,23.315768 8.293497,18.769162 20.965941,22.162395 Z" />
  <path class="a" d="M 21.360547,12.166637 18.344448,5.621453" />
  <path class="a" d="m 34.231635,17.908734 8.136328,-7.6052" />
  <path class="a" d="m 33.646571,33.13848 8.783759,4.912839" />
  <path class="a" d="m 18.819016,35.861161 -1.203335,6.752574" />
  <path class="a" d="M 11.74396,23.315768 5.7376504,24.180785" />
</svg>

