<?xml version="1.0" encoding="UTF-8"?>
<!-- Created with Inkscape (http://www.inkscape.org/) -->
<svg version="1.1" viewBox="0 0 48 48" xml:space="preserve" xmlns="http://www.w3.org/2000/svg"><defs><style>.a,.b{fill:none;stroke:#fff;stroke-linejoin:round;}.a{stroke-linecap:round;}</style><style>
      .cls-1 {
        fill: none;
        stroke: #fff;
        stroke-linecap: round;
        stroke-linejoin: round;
      }
    </style></defs><g><g transform="matrix(-.70961 0 0 .78961 37.358 5.0493)" stroke-width="1.3359"><path class="a" d="m42.121 26.609s-8.5406 2.6346-18.905-16.63h-2.09v-2.8179h-11.728v3.1067h-1.1713s-1.7851-0.74-3.5073 8.2075v10.317s0.1432 4.5994 2.8479 4.9328 34.265 0 34.265 0 2.7355-2.8631 0.2888-7.1165z"/><path class="a" d="m26.785 21.187a1.42 1.42 0 0 1 1.42 1.42v3.1542a1.42 1.42 0 0 1-2.84 0v-3.1544a1.42 1.42 0 0 1 1.42-1.4198z"/><path class="a" d="m31.17 24.58a1.2215 1.2215 0 0 1 1.2215 1.2214v2.2837a1.2215 1.2215 0 0 1-2.4429 0v-2.2835a1.2214 1.2214 0 0 1 1.2214-1.2216z"/><path class="a" d="m35.169 26.836a1.0424 1.0424 0 0 1 1.0424 1.0424v1.5336a1.0424 1.0424 0 1 1-2.0847 0v-1.5336a1.0423 1.0423 0 0 1 1.0423-1.0424z"/><path class="a" d="m38.972 28.196a0.8379 0.8379 0 0 1 0.8379 0.838v1.2744a0.838 0.838 0 0 1-1.6759 0v-1.2744a0.838 0.838 0 0 1 0.838-0.838z"/><circle class="a" cx="9.015" cy="25.963" r="2.3535"/><circle class="a" cx="19.081" cy="25.963" r="2.3535"/><path class="a" d="m18.148 13.265a3.1759 3.1759 0 1 1 0 6.3517"/><path class="a" d="m10.818 13.265a3.1759 3.1759 0 1 0 0 6.3517h7.33"/><path class="a" d="m18.148 13.265h-7.33"/><path class="b" d="m42.412 35.896a0.9853 0.9853 0 0 1 1.0885 1.0886c0 1.1977-0.4607 1.06-0.4607 1.06h-1.18c-12.597 0-18.041 2.7942-18.041 2.7942h-19.318v-2.2269h2.0213v-2.42h5.4372v2.321h7.9766v-2.6169z"/></g><rect class="cls-1" x="4.5" y="8.5" width="39" height="31" rx="4" ry="4"/><g transform="translate(-195 69.411)"><g id="a" class="st0">
</g><g id="b">
<g transform="matrix(.84485 0 0 .94053 119.25 -97.041)" stroke-width="1.1218">
		<line class="st5" x1="136" x2="136" y1="40.65" y2="48.65" fill="none" stroke="#fff" stroke-linecap="round" stroke-linejoin="round" stroke-miterlimit="10" stroke-width="1.1218"/>
	</g><g transform="matrix(.84485 0 0 .94053 26.312 -87.405)" fill="none" stroke="#fff" stroke-linecap="round" stroke-linejoin="round" stroke-miterlimit="10" stroke-width="1.1218">
		<line class="st5" x1="243.35" x2="248.65" y1="40.65" y2="40.65"/>
		<line class="st5" x1="246" x2="246" y1="48.65" y2="40.65"/>
	</g><path class="st5" d="m236.36-34.561v0.03082c0 1.3765-1.0024 2.4924-2.2389 2.4924v0c-1.2365 0-2.2389-1.1159-2.2389-2.4924v-2.5394c0-1.3765 1.0024-2.4924 2.2389-2.4924h1e-5c1.2365 0 2.2388 1.1159 2.2388 2.4924v0.03082" fill="none" stroke="#fff" stroke-linecap="round" stroke-linejoin="round" stroke-miterlimit="10"/></g></g></g><style type="text/css">
	.st0{display:none;}
	.st5{fill:none;stroke:#FFFFFF;stroke-linecap:round;stroke-linejoin:round;stroke-miterlimit:10;}
</style></svg>
