<svg xmlns="http://www.w3.org/2000/svg" xml:space="preserve" id="svg1" version="1.1" viewBox="0 0 48 48"><defs id="defs1"><style id="style1">.a{fill:none;stroke:#fff;stroke-linecap:round;stroke-linejoin:round}</style></defs><path id="path63844" d="M25.645 19.457c.546.003 1.137.137 1.751.432l-1.348 3.538 2.37-1.018c-.998.837-1.765 1.91-2.147 3.185 4.76-2.255 7.598 2.833 4.315 5.462l-2.565-2.646-.122 2.834c-.212-1.6-.93-3.328-2.296-5.105-.967 5.632-5.363 6.175-6.943 1.764l3.739-.604-2.368-1.546c1.318.422 2.867.585 4.644.397-3.578-2.899-1.978-6.708.97-6.693z" style="fill:none;fill-opacity:0;stroke:#fff;stroke-width:1;stroke-linecap:round;stroke-linejoin:round;stroke-opacity:1"/><path id="path63389" d="m31.772 7.996-1.007 3.006C25.232 8.6 17.811 9.144 15.414 14.55c-1.36 3.067-.973 6.507 1.025 8.855l-4.75-3.102L5.5 30.558l3.614-.531c1.663 6.45 6.305 10.356 11.069 9.93 3.675-.33 6.833-2.718 7.603-6.092l-.263 6.139 12.322-.258-2.32-2.129c4.745-3.833 6.791-10.223 3.026-14.512-1.962-2.235-4.893-3.01-7.612-2.637l4.624-1.987z" style="fill:none;fill-opacity:0;stroke:#fff;stroke-width:1;stroke-linecap:round;stroke-linejoin:round;stroke-opacity:1"/></svg>