<svg xmlns="http://www.w3.org/2000/svg" xml:space="preserve" width="48" height="48" viewBox="0 0 12.7 12.7"><path fill="none" stroke="#fff" stroke-linecap="round" stroke-linejoin="round" stroke-width=".265" d="M3.969 8.648a.174.174 0 0 1-.175.174.174.174 0 0 1-.174-.174.174.174 0 0 1 .174-.174.174.174 0 0 1 .175.174zm.357-.723a.22.22 0 0 1-.22.22.22.22 0 0 1-.22-.22.22.22 0 0 1 .22-.22.22.22 0 0 1 .22.22zm1.31 1.368a.766.766 0 0 1-.766.766.766.766 0 0 1-.766-.766.766.766 0 0 1 .766-.765.766.766 0 0 1 .765.765zm2.596.161a.451.451 0 0 1-.451.451.451.451 0 0 1-.451-.45.451.451 0 0 1 .45-.452.451.451 0 0 1 .452.451zM6.707 5.87a.36.36 0 0 1-.36.36.36.36 0 0 1-.361-.36.36.36 0 0 1 .36-.36.36.36 0 0 1 .361.36zm0-1.488a.36.36 0 0 1-.36.36.36.36 0 0 1-.361-.36.36.36 0 0 1 .36-.36.36.36 0 0 1 .361.36zm0-1.488a.36.36 0 0 1-.36.36.36.36 0 0 1-.361-.36.36.36 0 0 1 .36-.36.36.36 0 0 1 .361.36zm-3.329 6.23c.096.945.995 1.655 1.997 1.655H7.33a2 2 0 0 0 2.005-1.967c.009-.39-.055-.755-.262-1.103-.89.256-1.752-.067-2.773-.395-1.449-.464-3.156-.493-2.923 1.81zm1.05-7.933c-.43 0-.777.258-.777.58 0 .322.347.581.778.581h.073v2.899C3.495 6.283 2.47 7.125 2.498 8.918a2.576 2.576 0 0 0 2.584 2.591h2.529a2.586 2.586 0 0 0 2.59-2.591c.035-1.793-.989-2.635-1.997-3.667V2.352h.06c.431 0 .778-.26.778-.58 0-.323-.347-.581-.778-.581z"/></svg>
