<svg xmlns="http://www.w3.org/2000/svg" viewBox="0 0 48 48"><path style="fill:#d8d8d8;stroke:#fff;fill-opacity:0;stroke-linejoin:round" fill="none" d="M19.481 13.45h8.187v8.443h-8.187z"/><circle class="q" cx="6.823" cy="26.957" r=".673" style="fill:#fff;stroke-width:1px;stroke-linejoin:round"/><path class="r" style="fill:none;stroke:#fff;stroke-linecap:round;stroke-width:1px;stroke-linejoin:round" d="M6.823 29.313v5.094m6.481.04v-3.173a1.924 1.924 0 1 0-3.845 0m0 3.173v-5.096m6.828 5.086V28.09c0-.742.603-1.345 1.346-1.345.663 0 1.076.196 1.36.563m-3.845 2.075h2.691m2.16 1.888a1.924 1.924 0 0 1 2.884-1.666c.595.344.961.979.961 1.666v1.25a1.923 1.923 0 1 1-3.845 0zm9.614 2.147a1.922 1.922 0 0 1-3.591-.955v-1.25a1.924 1.924 0 0 1 3.59-.957m6.032 2.21a1.924 1.924 0 0 1-3.846 0v-1.251a1.924 1.924 0 0 1 3.846 0m0 3.173v-5.095m2.226-2.48v6.73c0 .531.431.961.962.961h.288m1.489-7.691v6.729a.96.96 0 0 0 .962.961h.288"/></svg>