<svg xmlns="http://www.w3.org/2000/svg" viewBox="0 0 48 48"><defs><style>.a{fill:none;stroke:#fff;stroke-linecap:round;stroke-linejoin:round;}</style></defs><path class="a" d="m34.5 32.1 2.07 0.589c0.907 0.255 1.62-0.216 1.62-0.848v-15.4c0-0.588-0.295-0.943-0.717-1.19l-18.3-5.36c-0.741 0-1.31 0.5-1.31 1.25l0.0042 2.15"/><path class="a" d="m30.2 34.6 2.69 0.799c0.907 0.255 1.62-0.216 1.62-0.848v-15.4c0-0.588-0.295-0.943-0.717-1.19l-18.3-5.36c-0.741 0-1.31 0.5-1.31 1.25l0.0042 2.29"/><path class="a" d="m9.91 16.6 0.0273 14.9c0 0.663 0.245 1.03 0.771 1.23l17.9 5.39c0.907 0.255 1.62-0.216 1.62-0.848v-15.4c0-0.588-0.295-0.943-0.717-1.19l-18.3-5.36c-0.741 0-1.31 0.5-1.31 1.25z"/><path class="a" d="m10.6 15.8 7.1 13.9c0.349 0.575 1.17 1.18 1.97 0.553l10.2-8.82"/><path class="a" d="m38.2 3v9.34-1.46l5.23-5.23-2.24 2.24 2.5 4.49"/></svg>
