<?xml version="1.0" encoding="UTF-8"?><svg id="a" xmlns="http://www.w3.org/2000/svg" viewBox="0 0 48 48"><defs><style>.d{fill:none;stroke:#fff;stroke-linecap:round;stroke-linejoin:round;}</style></defs><path class="d" d="m4.9004 17.744 7.75 16c.96329 1.988 3.3558 2.8187 5.3438 1.8555 1.988-.96329 2.8187-3.3558 1.8555-5.3438l-7.75-16c-.96329-1.988-3.3558-2.8187-5.3438-1.8555-1.988.96329-2.8187 3.3558-1.8555 5.3438z"/><path class="d" d="m19.85 33.744 4.1503-8.5681 4.1504 8.5684c1.4579 3.0068 5.7413 3.0068 7.1992 0l7.75-16c.9632-1.988.1325-4.3804-1.8555-5.3438-1.988-.9632-4.3804-.1325-5.3438 1.8555l-4.1504 8.5684-4.1504-8.5684c-.66852-1.3795-2.0666-2.2557-3.5996-2.2559-1.533.000138-2.9311.87632-3.5996 2.2559l-4.1505 8.5685"/></svg>
