<svg xmlns="http://www.w3.org/2000/svg" xml:space="preserve" viewBox="0 0 48 48"><path d="M17.718 40.313h-2.2v-4.4h2.2m-2.2 2.2h1.435m20.247 2.2H35v-4.4h2.2m-2.2 2.2h1.434m-24.193.756 1.44 1.443m-2.88.001v-4.4h1.44c.815 0 1.475.662 1.475 1.478s-.66 1.478-1.475 1.478h-1.44m13.278-2.956v2.943a1.458 1.458 0 1 0 2.915 0v-2.943M19.45 39.83c.27.352.608.482 1.079.482h.651c.606 0 1.098-.491 1.098-1.097v-.005c0-.606-.492-1.098-1.098-1.098h-.719a1.099 1.099 0 0 1-1.098-1.099v0a1.1 1.1 0 0 1 1.1-1.101h.649c.47 0 .809.13 1.079.482m6.606 3.914v-4.396l2.2 4.4 2.201-4.394v4.394m-20.984-8.73h7.836m-7.836-3.405h7.836m-7.836-3.404h7.836m2.492 4.87h13.07m-13.07-4h13.07m-13.07-4h13.07m-13.07-4h13.07m-13.07-4h13.07M12.213 12.26h7.836v9.444h-7.836ZM9.745 32.848V9.873v0h28.51v22.975m4.274-.726A26.835 5.888 0 0 1 24 33.752a26.835 5.888 0 0 1-18.53-1.63M9.5 5.5h29c2.216 0 4 1.784 4 4v29c0 2.216-1.784 4-4 4h-29c-2.216 0-4-1.784-4-4v-29c0-2.216 1.784-4 4-4z" class="t" style="display:inline;fill:none;stroke:#fff;stroke-width:1;stroke-linecap:round;stroke-linejoin:round;stroke-opacity:1"/></svg>