<?xml version="1.0" encoding="UTF-8"?>
<!-- Created with Inkscape (http://www.inkscape.org/) -->
<svg width="48" height="48" version="1.1" viewBox="0 0 48 48" xml:space="preserve" xmlns="http://www.w3.org/2000/svg"><g transform="matrix(.9938 0 0 .9938 -.20285 .074082)" fill="none" stroke="#fff" stroke-linecap="round" stroke-linejoin="round"><path d="m27.996 8.9815a15.022 15.022 0 0 0-15.021 15.021 15.022 15.022 0 0 0 15.021 15.021 15.022 15.022 0 0 0 7.7051-2.1582l1.8398 0.67774 4.416 1.625-1.625-4.416-0.54883-1.4922a15.022 15.022 0 0 0 3.2344-9.2578 15.022 15.022 0 0 0-15.021-15.021z" stroke-width="1.006"/><path d="m13.042 12.165c-4.1392 2.4418-6.6892 6.9543-6.6895 11.838 0.00689 2.3062 0.58472 4.5732 1.6797 6.5898l-1.0566 2.0137-1.2852 2.4473 4.8672-1.0996c0.75389 0.725 1.5876 1.3581 2.4844 1.8867" stroke-width="1.0062"/><path d="m24.361 9.4275s4.1238 1.8011 3.2238 4.2948c-0.61152 1.6943-1.5819 1.8423-0.79933 3.4067 0.78261 1.5644-0.12273 3.643 2.263 4.6642 1.859 0.79571 2.9054 1.4141 4.3512 3.4641 0.81657 1.6073 7.3144 5.5377 3.7303 0-1.5155-2.3416 0.53464-2.5591 1.0783-2.8718 0.262-0.15067 1.7551 0.89739 2.061 0 0.32888-0.96472 1.9366-2.2469 1.7808-3.6856" stroke-width="1.006"/><path d="m20.88 37.233c2.7019-1.8154 3.1137-1.7011 2.3911-2.937-0.91502-1.565 0.68588-3.5452 0.31082-4.6894-0.37505-1.1442-0.80024-3.0705-2.4012-2.8198s-0.0091-0.24916-1.7715-1.7144c-1.7624-1.4653-2.6524 0.37934-3.2562-1.0693-0.64593-1.5496-2.5424 3.6946-3.1795 0" stroke-width="1.006"/></g></svg>
