<?xml version="1.0" encoding="UTF-8" standalone="no"?>
<svg
   id="Layer_1"
   data-name="Layer 1"
   version="1.1"
   viewBox="0 0 48 48"
   sodipodi:docname="invader2.svg"
   xml:space="preserve"
   inkscape:version="1.3 (0e150ed, 2023-07-21)"
   xmlns:inkscape="http://www.inkscape.org/namespaces/inkscape"
   xmlns:sodipodi="http://sodipodi.sourceforge.net/DTD/sodipodi-0.dtd"
   xmlns="http://www.w3.org/2000/svg"
   xmlns:svg="http://www.w3.org/2000/svg"><sodipodi:namedview
     id="namedview1"
     pagecolor="#ffffff"
     bordercolor="#000000"
     borderopacity="0.25"
     inkscape:showpageshadow="2"
     inkscape:pageopacity="0.0"
     inkscape:pagecheckerboard="0"
     inkscape:deskcolor="#d1d1d1"
     inkscape:zoom="9.8333333"
     inkscape:cx="30"
     inkscape:cy="24.40678"
     inkscape:window-width="1280"
     inkscape:window-height="669"
     inkscape:window-x="0"
     inkscape:window-y="25"
     inkscape:window-maximized="0"
     inkscape:current-layer="Layer_1" /><defs
     id="defs1"><style
       id="style1">&#10;      .cls-1 {&#10;        fill: none;&#10;        stroke: #fff;&#10;        stroke-linecap: round;&#10;        stroke-linejoin: round;&#10;      }&#10;    </style></defs><rect
     class="cls-1"
     x="4.5"
     y="8.5"
     width="39"
     height="31"
     rx="4"
     ry="4"
     id="rect1"
     style="fill:none;stroke:#000000;stroke-opacity:1" /><path
     style="fill:none;stroke:#000000;stroke-linecap:round;stroke-linejoin:round;stroke-miterlimit:4.1;stroke-opacity:1"
     d="m 7.5053452,26.234507 h 3.0201858 v -5.465096 l 3.092094,-0.03595 0.07191,-2.876366 h 3.020185 l -0.03595,-5.572961 h -3.05614 v 2.804457 l 5.96846,-10e-7 1e-6,2.696594 h 8.772918 l 0.07191,-2.768503 5.896551,0.03596 v -2.624685 l -3.020185,-0.03595 1e-6,5.393187 3.092094,0.03596 v 2.948275 h 2.876367 l 0.07191,5.608915 3.020185,0.07191 0.03595,5.644869 -2.912321,0.03595 V 29.39851 h -3.092094 l 0.07191,5.752733 h 3.092095 l -0.03595,-2.98423 -9.096509,0.03596 0.03596,2.984231 3.05614,-0.03596 -0.143819,-5.968461 -14.957106,0.07191 0.03595,5.824642 3.199959,10e-7 V 32.05915 l -6.184189,0.07191 1e-6,-2.804457 -3.092095,-10e-7 10e-7,5.788687 h 3.092094 v -2.948275 l -5.9684619,-1e-6 z"
     id="path4"
     sodipodi:nodetypes="ccccccccccccccccccccccccccccccccccccccccccccc" /><path
     style="fill:none;stroke:#000000;stroke-linecap:round;stroke-linejoin:round;stroke-miterlimit:4.1;stroke-opacity:1"
     d="m 16.529946,20.769411 3.092094,0.03595 v 5.680824 l -3.092094,0.03595 z"
     id="path5"
     sodipodi:nodetypes="ccccc" /><path
     style="fill:none;stroke:#000000;stroke-linecap:round;stroke-linejoin:round;stroke-miterlimit:4.1;stroke-opacity:1"
     d="m 28.182806,20.844894 3.092094,0.03595 v 5.680824 l -3.092094,0.03595 z"
     id="path5-6"
     sodipodi:nodetypes="ccccc" /></svg>
