<?xml version="1.0" encoding="UTF-8"?><svg id="b" xmlns="http://www.w3.org/2000/svg" viewBox="0 0 48 48"><defs><style>.c{fill:none;stroke:#fff;stroke-linecap:round;stroke-linejoin:round;}.d{fill:#fff;stroke-width:0px;}</style></defs><path class="c" d="m5.2748,23.221v5.1656"/><circle class="d" cx="5.2748" cy="20.3882" r=".75"/><path class="c" d="m31.1026,24.2541c0,2.2822-1.8502,4.1325-4.1325,4.1325s-4.1325-1.8502-4.1325-4.1325,1.8502-4.1325,4.1325-4.1325,4.1325,1.8502,4.1325,4.1325Z"/><path class="c" d="m43.5,24.2541c0,2.2822-1.8502,4.1325-4.1325,4.1325s-4.1325-1.8502-4.1325-4.1325,1.8502-4.1325,4.1325-4.1325,4.1325,1.8502,4.1325,4.1325Z"/><path class="c" d="m15.1628,24.8441l3.5421,3.4388m-4.1325.1033c-2.2822,0-4.1325-1.8502-4.1325-4.1325s1.8502-4.1325,4.1325-4.1325,4.1325,1.8502,4.1325,4.1325"/></svg>