<svg xmlns="http://www.w3.org/2000/svg" xml:space="preserve" width="48" height="48" viewBox="0 0 12.7 12.7"><path fill="none" stroke="#fff" stroke-linecap="round" stroke-linejoin="round" stroke-width=".265" d="M8.542 4.244c.326-.368.473-.635.641-.657.244-.03.306.32.38.494.604 1.44.917 2.838.446 4.355-.534 1.719-3.248 2.99-6.293 3.073M6.91 3.331c.315-.369.458-.634.625-.653.214-.024.356.308.463.486 1.07 1.79 1.309 3.685.864 4.796-.84 2.098-2.982 2.835-5.147 3.55m1.503-8.898c.353-.4.502-.694.678-.714.214-.025.35.31.463.486C7.418 4.03 7.778 5.403 7.825 6.789c-.08 1.987-1.914 3.697-4.108 4.72m0 0h0m0 0h-.001m0 0L2.463 3.813c1.456-1.38 1.37-2.455 1.68-2.602.222-.106.394.212.49.375 1.268 2.17 2.578 4.52 1.43 6.89-.57 1.176-1.41 2.114-2.347 3.033"/></svg>
