<?xml version="1.0" encoding="UTF-8"?>
<svg version="1.1" viewBox="0 0 48 48" xmlns="http://www.w3.org/2000/svg"><defs><style>.cls-1 {
        fill: none;
        stroke: #fff;
        stroke-linecap: round;
        stroke-linejoin: round;
      }</style></defs><g transform="translate(-1.8337 2.1562)"><path class="cls-1" d="m11.334 3.3438h29c2.216 0 4 1.784 4 4v29c0 2.216-1.784 4-4 4h-29c-2.216 0-4-1.784-4-4v-29c0-2.216 1.784-4 4-4zm9.7108 8.5985c0.21592-1.0454-0.50173-2.0116-1.6513-1.883-0.20726-1.3087-1.7005-1.4143-2.2374-0.82616-0.89689-2.2318-4.0769-1.8266-4.0092 0.78264-1.7604-0.48074-2.189 0.66593-2.1101 1.975 3.3358 0.0215 6.6722-0.02628 10.008-0.04849zm-0.58311 13.959h13.254m10.618 0.06266-7.6351-0.01217m-29.365 0.01217 8.5264-0.01049m7.0755-6.8592-1.125 1m-0.08741-2.625h1.3062m-0.09375-1.625-1.125-1m11.578 4.25 1.125 1m0.08741-2.625h-1.3062m0.09375-1.625 1.125-1m-6.3513 1.7291v10.656m-3.1581 0.38298v-8.8028m0.07402-2.2113c0.86355-0.32968 2.1715-0.30138 3.0841-0.33767m-3.6751 2.3712 1.2523-0.16033 1.5419-0.02567 0.87666-0.0067m-0.59905-6.6348-5e-6 -0.34891-0.28269-0.49156 0.0018-0.34087c0.12804-0.08924 0.74352-0.50862 0.8917-0.54669m-0.61081 1.728c-2.1445 0.62387-2.557 2.4776-2.5842 4.5195-0.20919 0.22142-0.42731 0.08887-0.5633 0.24792l0.56514 0.14826 0.01129 0.98588 0.0035 0.60167m6.3183 8.8882v-8.3861m-0.07403-2.2113c-0.86355-0.32968-2.1376-0.30138-3.0502-0.33767m3.6412 2.3712-1.2523-0.16033-1.5601-0.03917-0.85636 0.0067m0.59687-6.6347 5e-6 -0.34891 0.28269-0.49156-0.0018-0.34087c-0.12803-0.089241-0.71776-0.50862-0.86595-0.54669m0.58507 1.728c2.2585 0.64715 2.569 2.5104 2.5842 4.5195 0.20919 0.22142 0.42731 0.08887 0.5633 0.24792l-0.56514 0.14826-0.01129 0.98588-0.0035 0.60167m-23.988 14.231c0.9067-0.11391 1.5638-0.69116 2.5062-0.50413-0.74945 2.0315 2.0548 1.2329 2.7833 0.7572m21.427 4.6714c1.0799 0.59521 1.9275-0.6611 2.4976-0.70643 0.59852 1.8095 2.3283-0.07167 2.5846 0.06725 0.21798 0.84417 1.4756 0.88105 2.0283 0.6225m-27.777-0.37833c0.74052 0.0367 2.5563-1.1186 3.1787-1.0794 0.33349 2.3607 2.9031 0.16608 3.3691 0.18895-0.18683 1.3744 1.9437 1.0954 2.7628 0.66528m-4.5372-9.5031-0.82336-0.36598-0.94098-0.61759-0.1882-0.84633s-0.22854-1.3269-0.23524-1.4182c-0.02353-0.32024 0.07633-1.1865 0.21172-1.441 0.11702-0.22004 0.16467-1.441 0.16467-1.441s0.42344-1.624 0.47049-1.7155c0.04704-0.0915 0.44697-0.76342 0.44697-0.76342l0.32934-0.39348s0.61164-0.66334 0.68221-0.57184c0.07057 0.0915 0.63516 0.5261 0.75279 0.73196 0.11762 0.20586 0.28229 0.41635 0.28229 0.41635l0.25877 0.48893s0.02352 0.70909 0.14115 0.89208c0.11762 0.18299 0.23524 0.57184 0.30582 0.93782 0.01738 0.0901 1e-3 0.61197 5e-3 0.89138 6e-3 0.42128 0.12195 0.91536 0.1361 1.0529 0.02352 0.22874 0.02352 0.8692-0.02353 1.3724-0.04704 0.50322-0.04704 0.34311-0.04704 0.50322 0 0.16012-0.0941 0.70909-0.0941 0.70909s-0.21172 0.57184-0.30582 0.73196c-0.0941 0.16012-0.54106 0.64047-0.54106 0.64047zm0.06998 0.31742 0.01664 2.1571m16.763-0.4795-0.55141-0.25948-0.63018-0.43786-0.12604-0.60004s-0.15305-0.94077-0.15754-1.0055c-0.01576-0.22704 0.05112-0.84119 0.14179-1.0217 0.07837-0.15601 0.11028-1.0217 0.11028-1.0217s0.28358-1.1514 0.31509-1.2163c0.0315-0.06487 0.29934-0.54125 0.29934-0.54125l0.22056-0.27897s0.40962-0.4703 0.45688-0.40543c0.04726 0.06487 0.42537 0.373 0.50414 0.51895 0.07877 0.14596 0.18905 0.29519 0.18905 0.29519l0.1733 0.34665s0.01575 0.50274 0.09453 0.63247c0.07877 0.12974 0.15754 0.40543 0.20481 0.66491 0.01163 0.06388 7.14e-4 0.43388 0.0034 0.63198 4e-3 0.29868 0.08167 0.64898 0.09114 0.74649 0.01576 0.16217 0.01575 0.61626-0.01576 0.97304-0.0315 0.35678-0.0315 0.24326-0.0315 0.35678s-0.06302 0.50274-0.06302 0.50274-0.14179 0.40543-0.20481 0.51895c-0.06302 0.11352-0.36235 0.45408-0.36235 0.45408zm0.04686 0.22505 0.01114 1.1519m-20.204 0.93136c0.287 0.37111 2.4251 1.0547 3.0505 1.4258 1.0937 0.69149 2.1891 0.86303 3.4389 0.69274 2.6015-0.13089 3.8257 2.3311 8.9228 0.60203 1.2254-0.43058 3.3256 0.32874 5.5306 0.1678 1.1197-0.1672 2.122-1.3237 3.3987-1.0311 0.96894 0.42203 2.6419-0.41894 3.43-0.91268-0.96014-0.86602-1.4347-1.5525-2.5027-1.8153-0.57034-0.47169-1.0199-1.1246-1.7308-1.3855-1.4454-0.82381-2.0423-0.98467-2.2771-0.86269m-21.261 3.1188c2.5879-1.857 6.3444-2.9426 9.2685-3.8194 0 0 1.8933-0.47358 2.1947-0.47358 0.30145 0 3.5571 0.06021 3.5571 0.06021s2.4719 0.06021 2.7733 0.15051c0.07912 0.02371 0.95523 0.05127 1.0446 0.47662" fill="none" stroke="#fff" stroke-linecap="round" stroke-linejoin="round"/></g></svg>
