<?xml version="1.0" encoding="UTF-8"?>
<svg id="Layer_1" xmlns="http://www.w3.org/2000/svg" version="1.1" viewBox="0 0 48 48">
  <!-- Generator: Adobe Illustrator 29.0.1, SVG Export Plug-In . SVG Version: 2.1.0 Build 192)  -->
  <defs>
    <style>
      .st0 {
        fill: none;
        stroke: #fff;
        stroke-linecap: round;
        stroke-linejoin: round;
      }
    </style>
  </defs>
  <g>
    <line class="st0" x1="8" y1="12" x2="11.8" y2="16"/>
    <line class="st0" x1="40" y1="12" x2="36.2" y2="16"/>
    <line class="st0" x1="23.9" y1="7" x2="23.9" y2="12.4"/>
  </g>
  <path class="st0" d="M12,40.6c-3.6,0-6.5-2.9-6.5-6.5s2.9-6.5,6.5-6.5l.4-1.1c1.3-4.8,5.7-8.3,10.8-8.3s11.2,5,11.2,11.2-5,11.2-11.2,11.2"/>
  <path class="st0" d="M36,27.6c3.6,0,6.5,2.9,6.5,6.5s-2.9,6.5-6.5,6.5"/>
  <line class="st0" x1="36" y1="40.6" x2="15.3" y2="40.6"/>
  <line class="st0" x1="36" y1="27.6" x2="34.2" y2="27.6"/>
</svg>