<svg xmlns="http://www.w3.org/2000/svg" xml:space="preserve" width="48" height="48" viewBox="0 0 12.7 12.7"><path fill="none" stroke="#fff" stroke-linecap="round" stroke-linejoin="round" stroke-width=".265" d="M6.275 8.494s-.736.482-2.591.482c-1.856 0-2.493-.414-2.493-.414v1.334s.637.414 2.493.414 2.59-.483 2.59-.483l.151-.35s.735-.482 2.591-.482c1.856 0 2.493.414 2.493.414V8.075s-.637-.414-2.493-.414c-1.856 0-2.59.482-2.59.482zm0-2.636s-.736.483-2.591.483c-1.856 0-2.493-.414-2.493-.414V7.26s.637.414 2.493.414 2.59-.482 2.59-.482l.151-.35s.735-.482 2.591-.482c1.856 0 2.493.414 2.493.414V5.44s-.637-.414-2.493-.414c-1.856 0-2.59.482-2.59.482zm0-2.635s-.736.482-2.591.482c-1.856 0-2.493-.414-2.493-.414v1.334s.637.414 2.493.414 2.59-.482 2.59-.482l.151-.35s.735-.483 2.591-.483c1.856 0 2.493.414 2.493.414V2.804s-.637-.414-2.493-.414c-1.856 0-2.59.483-2.59.483z"/></svg>
