<svg xmlns="http://www.w3.org/2000/svg" xml:space="preserve" width="48" height="48" viewBox="0 0 48 48"><g transform="translate(5.416 1.018)"><circle cx="11.034" cy="20.827" r=".7" class="q" style="fill:#fff"/><path d="M11.034 23.277v5.3" class="r" style="fill:none;stroke:#fff;stroke-linecap:round;stroke-linejoin:round"/></g><path d="M19.034 20.577v7a1 1 0 0 0 1 1h.3" class="r" style="fill:none;stroke:#fff;stroke-linecap:round;stroke-linejoin:round" transform="translate(5.416 1.018)"/><path d="M337.834 59.35h4l-4 5.3h4" class="r" style="fill:none;stroke:#fff;stroke-linecap:round;stroke-linejoin:round" transform="translate(-319.384 -35.055)"/><path d="M37.725 24.836v2.7a2 2 0 0 1-2 2h0a2 2 0 0 1-1.414-.586" class="r" style="fill:none;stroke:#fff;stroke-linecap:round;stroke-linejoin:round" transform="translate(-5.975 2.759)"/><path d="M37.725 21.536v3.3a2 2 0 0 1-2 2h0a2 2 0 0 1-2-2v-3.3" class="r" style="fill:none;stroke:#fff;stroke-linecap:round;stroke-linejoin:round" transform="translate(-5.975 2.759)"/><path d="M26.61 16.948c.37.468.59 1.06.59 1.702" style="fill:none;stroke:#fff;stroke-width:1.00037;stroke-linecap:round;stroke-linejoin:round" transform="translate(0 2.945)"/><path d="M28.066 15.57a4.73 4.73 0 0 1 1.134 3.08h0q0 .123-.006.244" style="fill:none;stroke:#fff;stroke-width:1.00019;stroke-linecap:round;stroke-linejoin:round" transform="translate(0 2.945)"/><path d="M29.49 14.16a6.73 6.73 0 0 1 1.71 4.49h0q0 .234-.015.463" style="fill:none;stroke:#fff;stroke-width:1.0001;stroke-linecap:round;stroke-linejoin:round" transform="translate(0 2.945)"/><path d="M30.921 12.76a8.72 8.72 0 0 1 2.28 5.89h0q0 .36-.03.714" style="fill:none;stroke:#fff;stroke-width:1.00006;stroke-linecap:round;stroke-linejoin:round" transform="translate(0 2.945)"/></svg>