<?xml version="1.0" encoding="UTF-8"?><svg id="a" xmlns="http://www.w3.org/2000/svg" viewBox="0 0 48 48"><defs><style>.d{fill:none;stroke:#fff;stroke-linecap:round;stroke-linejoin:round;}</style></defs><path class="d" d="m22.57 32.5h14.93c2.7614 0 5 2.2386 5 5s-2.2386 5-5 5h-16.882"/><circle class="d" cx="10.5" cy="10.5" r="5"/><path class="d" d="m42.5 10.5v13.5c0 2.7614-2.2386 5-5 5s-5-2.2386-5-5v-1.4286"/><path class="d" d="m5.5 37.5v-13.5c0-2.7614 2.2386-5 5-5 2.7614 0 5 2.2386 5 5v1.4297"/><path class="d" d="m25.43 15.501h-1.4295c-2.7614 0-5-2.2386-5-5s2.2386-5 5-5h3.3822"/><path class="d" d="m29.739 11.191c0.95333-0.95333 1.2385-2.3871 0.72258-3.6326s-1.7314-2.0577-3.0796-2.0577h10.118c2.0223 0 3.8455 1.2182 4.6194 3.0866 0.7739 1.8684 0.34612 4.019-1.0839 5.449l-22.775 22.773c-0.95333 0.95333-1.2385 2.3871-0.72258 3.6326s1.7314 2.0577 3.0796 2.0577h-10.118c-2.0223 0-3.8455-1.2182-4.6194-3.0866-0.7739-1.8684-0.34613-4.019 1.0839-5.449z"/></svg>
