<?xml version="1.0" encoding="UTF-8"?><svg id="a" xmlns="http://www.w3.org/2000/svg" viewBox="0 0 48 48"><defs><style>.ac{fill:none;stroke:#fff;stroke-linecap:round;stroke-linejoin:round;}</style></defs><circle id="b" class="ac" cx="24" cy="24" r="21.5"/><path id="c" class="ac" d="M18.8354,21.7108c.6461.4541-1.2881,1.962-1.7661-.0781.6064-.3934,1.2379-.2311,1.7661.0781"/><path id="d" class="ac" d="M33.6675,11.8562c-.4611-.4228-4.6833-3.5059-9.5049-2.9766-7.3663.9646-12.5901,8.5129-8.7295,16.7087"/><path id="e" class="ac" d="M28.5035,9.2756c-.1047-1.0424,1.194-2.1797-1.1268-3.0724-3.2932-1.4545-2.6613,1.2367-3.2142,2.6764"/><path id="f" class="ac" d="M28.7723,7.6393c2.3722-1.7846,4.0388,1.484,2.4109,2.6674"/><path id="g" class="ac" d="M31.8268,8.8452c.6489-.1367,1.3377-.2958,1.9533-.1329"/><path id="h" class="ac" d="M35.3343,5.7302c-.713.4112-1.4476.8039-1.4791,1.7993l.025,8.6539c.692-.2982.8253-.8114,2.2887-.8129h5.9581c.8395,0,.9081-.7008,1.0742-1.0434"/><path id="i" class="ac" d="M41.1233,11.1056c-.3414,1.0739-1.4105,1.7423-2.5255,1.5789-1.1149-.1634-1.9473-1.1105-1.9661-2.2372s.7813-2.1011,1.8902-2.3017"/><path id="j" class="ac" d="M34.022,6.8392c-2.095-1.2588-4.1901-.9926-6.2851-.4821"/><path id="k" class="ac" d="M22.4375,4.0312l2.4487,2.1837"/><path id="l" class="ac" d="M18.9688,6.618l5.453,1.1133"/><path id="m" class="ac" d="M36.9062,15.6875c2.4761,7.1946.3076,16.7944-6.6037,16.6406"/><path id="n" class="ac" d="M37.3628,17.2496l1.9653,2.6723"/><path id="o" class="ac" d="M15.433,25.5883c-.2297-4.1082.5502-7.9796,4.3795-11.1352-1.302,5.262.8053,6.2256,3.0359,8.0638-.2689-1.6543-.2312-3.4251.9612-5.6348,1.0123,1.8444,2.014,3.9737,3.0825,4.2979-.6917-1.8426-.0195-3.0954.3094-4.4967.4243,2.8192.8836,5.103,1.4253,6.1318"/><path id="p" class="ac" d="M30.3026,32.3281c-2.2852-.255-.5139-3.0524,1.5412-3.6875,2.6666-1.0124,2.2865-2.9801,2.3238-4.2969-2.1031,3.9612-6.2945,5.1402-9.605,8.7031"/><path id="q" class="ac" d="M28.6268,22.8152c-.452,3.6201-4.4922,6.5504-4.0643,10.2316"/><path id="r" class="ac" d="M15.433,25.5883c.8751,2.434,1.1277,5.1255,4.2857,6.6148,1.24.4289,3.3976,0,4.9111-.6957"/><path id="s" class="ac" d="M33.6649,19.1471c.8545-2.2812,2.2075-.8154,2.0219.3536.9659-.0927,1.9697,1.6675-.0221,2.1987.0439,2.3808-1.9923,1.5241-2.0771.3757-.8933,1.2032-2.6582.2117-1.3148-1.4142-1.0462-1.6326.3085-2.5891,1.3921-1.5137Z"/><path id="t" class="ac" d="M19.7188,32.2031c-3.7707,2.4968-7.4855,5.0273-6.8798,10.173"/><path id="u" class="ac" d="M31.2854,32.5932v1.2374c4.3268-.3746,6.0985,4.6488,6.3528,6.7901"/><path id="v" class="ac" d="M14.9308,35.9597l.0022-5.3347h-6.1518v8.6057"/><path id="w" class="ac" d="M7.5,32.8912h8.747"/><path id="x" class="ac" d="M8.7812,30.625h-2.0938v-1.4375l-1.8438-.1977,1.4062-1.6773c3.2176,1.7551,6.4758,1.023,9.8534.6186"/><path id="y" class="ac" d="M14.933,30.625h2.5848"/><path id="z" class="ac" d="M26.5786,23.2031c.6461.4541-1.4543,2.5159-1.7661-.0781.5574-.193,1.1264-.305,1.7661.0781"/><path id="aa" class="ac" d="M19.5245,28.0782c.3906.343,1.9001.6172,2.6849.2431"/><path id="ab" class="ac" d="M23.1383,32.0449c.1054,1.7004,1.0878,2.6917,1.768,3.9082,1.8957-1.249,3.8185-2.4101,5.8791-3.1232"/></svg>