<?xml version="1.0" encoding="UTF-8" standalone="no"?>
<svg
   viewBox="0 0 48 48"
   version="1.1"
   id="svg1"
   sodipodi:docname="jiaoguan12123.svg"
   inkscape:version="1.2.2 (b0a8486541, 2022-12-01)"
   xml:space="preserve"
   xmlns:inkscape="http://www.inkscape.org/namespaces/inkscape"
   xmlns:sodipodi="http://sodipodi.sourceforge.net/DTD/sodipodi-0.dtd"
   xmlns="http://www.w3.org/2000/svg"
   xmlns:svg="http://www.w3.org/2000/svg"><sodipodi:namedview
     id="namedview1"
     pagecolor="#505050"
     bordercolor="#eeeeee"
     borderopacity="1"
     inkscape:showpageshadow="0"
     inkscape:pageopacity="0"
     inkscape:pagecheckerboard="0"
     inkscape:deskcolor="#505050"
     inkscape:zoom="25.19068"
     inkscape:cx="17.784355"
     inkscape:cy="23.024388"
     inkscape:window-width="1918"
     inkscape:window-height="1053"
     inkscape:window-x="0"
     inkscape:window-y="0"
     inkscape:window-maximized="1"
     inkscape:current-layer="svg1"
     showgrid="false" /><defs
     id="defs1"><style
       id="style1">.a { fill:none;stroke:#fff;stroke-linecap:round;stroke-linejoin:round; }
</style></defs><g
     id="g15887"><path
       style="fill:none;stroke:#ffffff;stroke-linecap:round;stroke-linejoin:round"
       d="m 9.5,5.5 h 29 c 2.216,0 4,1.784 4,4 v 29 c 0,2.216 -1.784,4 -4,4 h -29 c -2.216,0 -4,-1.784 -4,-4 v -29 c 0,-2.216 1.784,-4 4,-4 z"
       id="path15867" /><g
       id="g15876"><path
         style="fill:none;stroke:#ffffff;stroke-linecap:round;stroke-linejoin:round"
         d="m 21.6,21.05 2,-1.1 v 8.1"
         id="path15865" /><path
         style="fill:none;stroke:#ffffff;stroke-linecap:round;stroke-linejoin:round"
         d="m 26.35,22.65 c 0,-1.6 1.5,-2.9 3.2,-2.6 1.1,0.2 2,1.2 2.1,2.3 0,0.8 -0.2,1.7 -0.8,2.2 -1.1,0.9 -4.5,3.5 -4.5,3.5 h 5.3"
         id="path15863" /><path
         style="fill:none;stroke:#ffffff;stroke-linecap:round;stroke-linejoin:round"
         d="m 34.4,27.35 c 0.6,0.5 1.1,0.7 2.5,0.7 h 0.3 c 1.1,0 2,-0.9 2,-2 v 0 c 0,-1.1 -0.9,-2 -2,-2"
         id="path15861" /><path
         style="fill:none;stroke:#ffffff;stroke-linecap:round;stroke-linejoin:round"
         d="m 34.4,20.65 c 0.6,-0.5 1.2,-0.7 2.5,-0.7 h 0.3 c 1.1,0 2,0.9 2,2 v 0 c 0,1.1 -0.9,2 -2,2"
         id="path15859" /><path
         style="fill:none;stroke:#ffffff;stroke-linecap:round;stroke-linejoin:round"
         d="m 35.700001,24.050001 h 1.5"
         id="path15857" /><path
         style="fill:none;stroke:#ffffff;stroke-linecap:round;stroke-linejoin:round"
         d="m 8.8,21.05 2,-1.1 v 8.1"
         id="path15855" /><path
         style="fill:none;stroke:#ffffff;stroke-linecap:round;stroke-linejoin:round"
         d="m 13.55,22.65 c 0,-1.6 1.5,-2.9 3.2,-2.6 1.1,0.2 2,1.2 2.1,2.3 0,0.8 -0.2,1.7 -0.8,2.2 -1.1,0.9 -4.5,3.5 -4.5,3.5 h 5.3"
         id="path15820" /></g></g></svg>
