<?xml version="1.0" encoding="UTF-8"?>
<!-- Created with Inkscape (http://www.inkscape.org/) -->
<svg width="48" height="48" version="1.1" viewBox="0 0 48 48" xml:space="preserve" xmlns="http://www.w3.org/2000/svg"><g fill="none" stroke="#fff" stroke-linecap="round" stroke-linejoin="round"><g id="Yuna" transform="matrix(.99794 0 0 1.0266 -.63337 -6.3457)"><g stroke-width=".98833"><path d="m40.589 22.828c-0.05811 0.56777-0.08066 0.5051 0.0077 1.1994 0.09208 0.72375 0.59866 2.1406 1.1076 2.6201 0.53053 0.49984 0.05745 1.0663-0.40552 1.6252 0.27186 0.37395-0.06499 0.84535-0.44762 1.1907-0.01046 0.58487-0.56072 0.64158-0.71268 1.1172-0.24659 0.7718-0.07674 1.7146-1.0608 1.9761-2.4882 0.66129-5.1637-1.0624-6.5841-2.2082"/><path d="m39.064 25.27c-1.404 0.72446-2.7267-0.34474-2.7267-0.34474"/><path d="m39.404 21.874c-2.126-0.58232-2.699-0.16793-2.699-0.16793"/><path d="m40.589 22.828c-1.5508 0.22819-4.2741 0.12892-4.2741 0.12892"/><path d="m36.315 22.957c-1.1638 2.9453-6.3046 4.1665-5.4883 3.6906 3.5592-2.0752 3.2374-4.9293 3.2374-4.9293m0.02312 3.7273c-0.16922 0.94006-0.37174 3.1756-0.80072 3.8978-0.24654 0.41507-0.51292 0.74636-0.78691 1.0099-1.478 1.4218-3.1775 0.87265-3.1775 0.87265s1.3092-0.02107 2.149-1.8012c1.667-3.5335-0.4547-9.5158 1.3604-12.273 1.5042-2.2854 4.6689-1.8905 4.6689-1.8905s4.925 0.15337 4.634 7.214c-0.0125 0.30345-1.5453 0.35322-1.5453 0.35322"/><path d="m32.43 16.204c-0.93757 1.0367-1.0794 2.2357-1.0794 2.2357"/><path d="m31.658 15.85c-0.93757 1.0367-1.0794 2.2357-1.0794 2.2357"/><path d="m31.279 15.497c-1.2218-0.98856-3.1192-0.79584-4.3187 0-2.2318 1.4807-1.8705 5.2996-3.1237 7.4029-0.52506 0.42477 2.0265-0.66257 2.8735-2.7188 0.53355-1.2953 0.7364-1.8309 1.3482-2.3326l-0.11774 1.7713c1.6875-0.57577 1.1736-1.8981 2.6531-1.6295"/><path d="m37.501 15.261c-8.6722-5.8569-18.241-0.94169-19.124 11.82-0.34194 4.9429-4.0968 4.6253-5.8979 7.1247-2.1529 2.9875-1.7426 8.2073-5.8386 9.3689 1.8462 0.6951 2.7184 0.17113 4.096-1.1617 0 0 0.35502 1.789-1.6142 4.3531 3.1283-1.0076 4.0719-3.7858 4.9356-6.8098 0.18759 4.6147-0.85795 5.5803-0.89308 5.7936 3.0409-0.84733 4.1657-4.5608 4.1657-4.5608s0.57786 1.7912 2.3951 3.8927c-1.5389-10.876 5.0481-12.455 5.0481-12.455m-4.8703 6.0527s6.7389-1.709 9.0827-4.0315c1.1525-1.142 1.7997-2.0057 1.9945-4.4195"/><path d="m34.884 32.053c-1.8569 0.26496-2.8693 2.81-2.7259 3.7207 0.44443 2.8219 2.2144 5.3941 2.2144 5.3941"/><path d="m39.005 15.293c0.88606-0.87355 2.4266-0.76079 3.132 0 1.5522 1.6743-0.491 3.6463-0.06533 5.2262"/></g><g stroke-width=".99278"><path transform="matrix(1.0013 0 0 .98975 1.1328 5.9436)" d="m31.942 27.507c-1.7182 0.15889-2.6642-0.48824-2.6642-0.48824"/><path transform="matrix(1.0013 0 0 .98975 1.1328 5.9436)" d="m24.67 31.531c2.1322 2.3384 2.1583 5.3667 2.1583 5.3667"/><path transform="matrix(1.0013 0 0 .98975 1.1328 5.9436)" d="m23.301 31.81c0.98295 1.1637-0.48462 1.819-0.0837 2.5806 0.28836 0.54776 1.1113 0.3283 1.5642 1.0009 0.51635 0.76688-0.15842 1.3588-0.15842 1.3588"/><path transform="matrix(1.0013 0 0 .98975 1.1328 5.9436)" d="m31.131 29.055c1.2046 2.1083 1.9304 0.89013 3.5269 1.9411 1.5965 1.051 1.9345 2.643 1.9345 2.643"/><path transform="matrix(1.0013 0 0 .98975 1.1328 5.9436)" d="m34.949 34.717c0.05483-1.3524-1.0002-0.42996-1.1829-0.8823-0.16644-0.41226 0.4241-0.91656 0.22354-1.3124-0.21437-0.42312-1.015-0.23868-1.2724-0.6371-0.26786-0.41463-0.06006-1.4797-0.06006-1.4797"/></g></g><path id="Moon" d="m12.4 27.65c-1.0825-2.2769-1.6903-4.838-1.6902-7.5458 0.011235-5.6414 2.7095-10.916 7.2154-14.104-6.8575 2.8131-11.369 9.6757-11.387 17.322 1.788e-4 3.7776 1.387 7.5872 3.2467 10.526m5.1082 5.2131c2.8365 1.9315 6.0142 2.9387 9.6613 2.9385 8.1673-0.01355 15.304-5.7223 17.389-13.91-2.8621 5.6152-8.4938 9.1375-14.638 9.1553-3.1367 1.63e-4 -5.911-0.58791-8.413-2.1497" stroke-width="1.0003"/></g></svg>
