<?xml version="1.0" encoding="UTF-8"?><svg id="a" xmlns="http://www.w3.org/2000/svg" viewBox="0 0 48 48"><defs><style>.d{fill:none;stroke:#fff;stroke-linecap:round;stroke-linejoin:round;}</style></defs><path class="d" d="m8.9972 17.012c1.8195-6.7904 7.9729-11.512 15.003-11.512 7.0299 2e-7 13.183 4.7217 15.003 11.512 1.8195 6.7904-1.1487 13.956-7.2368 17.471-6.9425 4.0083-7.766 8.0166-7.766 8.0166s-0.8235-4.0083-7.766-8.0166c-6.0881-3.515-9.0563-10.681-7.2368-17.471z"/><circle class="d" cx="30" cy="14.033" r="3"/><path class="d" d="m28 31.033h-7c-1.5913 0-3.1174-0.63214-4.2426-1.7574-1.1252-1.1252-1.7574-2.6513-1.7574-4.2426v-11.143"/><path class="d" d="m15 21.033s6.6675-0.82213 13.824-2.7397"/></svg>
