<?xml version="1.0" encoding="UTF-8"?>
<!-- Created with Inkscape (http://www.inkscape.org/) -->
<svg width="48" height="48" version="1.1" viewBox="0 0 48 48" xml:space="preserve" xmlns="http://www.w3.org/2000/svg"><defs><style>.a{fill:none;stroke:#fff;stroke-linecap:round;stroke-linejoin:round;}</style></defs><circle class="a" cx="24" cy="24" r="21.5"/><g transform="translate(-54.006 -.7813)" fill-opacity="0" stroke="#fff" stroke-linecap="round" stroke-linejoin="round"><path d="m63.741 29.859c-0.24544 0.42767-0.29429 0.34951-0.43596-0.30021s-0.37614-1.871-0.45919-3.3707c-0.08304-1.4997-0.01466-3.2778 0.79019-4.5526 0.80484-1.2747 2.3461-2.046 5.7282-2.8877 3.3821-0.84162 8.6048-1.7535 12.936-1.6015 4.3316 0.152 7.772 1.3679 9.4715 2.6183 1.6995 1.2504 1.658 2.5354 1.0086 3.7513s-1.9067 2.3627-4.4629 2.5078c-2.5562 0.14507-6.411-0.71156-10.535-0.62174-4.1244 0.08982-8.5181 1.1261-10.936 2.111-2.4179 0.9849-2.8599 1.9184-3.1054 2.3461z"/><path d="m65.955 16.111c-0.03454 0.58031 0.80829-0.22107 2.6943-0.96719 1.886-0.74612 4.8152-1.437 8.076-1.6373 3.2608-0.20034 6.8532 0.08981 8.8843 0.07599 2.0311-0.01382 2.5009-0.3316 2.6045-0.91883 0.10362-0.58723-0.15889-1.4439-1.7824-2.3143-1.6235-0.87048-4.6079-1.7547-7.9378-1.5475-3.3299 0.20727-7.0051 1.506-9.2988 3.1364-2.2936 1.6304-3.2055 3.5924-3.2401 4.1727z"/><path d="m72.904 40.768c-0.5862-0.13434-2.8333-1.2384-4.4014-2.5427-1.5681-1.3043-2.4572-2.8089-1.9882-4.1132 0.46898-1.3043 2.2959-2.4083 5.7692-3.0482 3.4733-0.63994 8.5927-0.8158 11.778-0.31751 3.185 0.49828 4.4356 1.6707 4.5284 3.0825 0.0928 1.4118-0.97211 3.0629-2.9994 3.5758s-5.0169-0.11235-7.5522 0.0025c-2.5353 0.11481-4.6163 0.96967-5.1195 1.8148-0.50315 0.84512 0.57154 1.6804-0.01467 1.5461z"/></g></svg>
