<?xml version="1.0" encoding="UTF-8" standalone="no"?>
<svg
   id="Layer_1"
   data-name="Layer 1"
   version="1.1"
   viewBox="0 0 48 48"
   sodipodi:docname="jobsdb.svg"
   inkscape:version="1.3.2 (091e20ef0f, 2023-11-25)"
   xml:space="preserve"
   xmlns:inkscape="http://www.inkscape.org/namespaces/inkscape"
   xmlns:sodipodi="http://sodipodi.sourceforge.net/DTD/sodipodi-0.dtd"
   xmlns="http://www.w3.org/2000/svg"
   xmlns:svg="http://www.w3.org/2000/svg"><sodipodi:namedview
     id="namedview1"
     pagecolor="#242424"
     bordercolor="#000000"
     borderopacity="0.25"
     inkscape:showpageshadow="2"
     inkscape:pageopacity="0.0"
     inkscape:pagecheckerboard="0"
     inkscape:deskcolor="#535353"
     inkscape:zoom="12.59534"
     inkscape:cx="15.045247"
     inkscape:cy="28.145331"
     inkscape:window-width="1918"
     inkscape:window-height="1053"
     inkscape:window-x="0"
     inkscape:window-y="0"
     inkscape:window-maximized="1"
     inkscape:current-layer="Layer_1" /><defs
     id="defs1"><style
       id="style1">
      .cls-1 {
        fill: none;
        stroke: #fff;
        stroke-linecap: round;
        stroke-linejoin: round;
      }
    </style></defs><path
     style="fill:none;stroke:#ffffff;stroke-linecap:round;stroke-linejoin:round"
     d="M 45.5,24 A 21.5,21.5 0 0 1 24,45.5 21.5,21.5 0 0 1 2.5,24 21.5,21.5 0 0 1 24,2.5 21.5,21.5 0 0 1 45.5,24 Z"
     id="path82" /><g
     id="g82"><path
       style="fill:none;stroke:#ffffff;stroke-linecap:round;stroke-linejoin:round"
       d="m 15.702774,24.020159 a 0.85719812,0.8572557 0 0 1 -0.857198,0.857255 0.85719812,0.8572557 0 0 1 -0.857198,-0.857255 0.85719812,0.8572557 0 0 1 0.857198,-0.857256 0.85719812,0.8572557 0 0 1 0.857198,0.857256 z"
       id="path81" /><path
       style="fill:none;stroke:#ffffff;stroke-linecap:round;stroke-linejoin:round"
       d="m 19.24328,24.020159 a 1.0255371,1.025606 0 0 1 -1.025537,1.025606 1.0255371,1.025606 0 0 1 -1.025537,-1.025606 1.0255371,1.025606 0 0 1 1.025537,-1.025606 1.0255371,1.025606 0 0 1 1.025537,1.025606 z"
       id="path80" /><path
       style="fill:none;stroke:#ffffff;stroke-linecap:round;stroke-linejoin:round"
       d="m 22.99506,24.020159 a 1.211935,1.2120165 0 0 1 -1.211935,1.212016 1.211935,1.2120165 0 0 1 -1.211935,-1.212016 1.211935,1.2120165 0 0 1 1.211935,-1.212017 1.211935,1.2120165 0 0 1 1.211935,1.212017 z"
       id="path79" /><path
       style="fill:none;stroke:#ffffff;stroke-linecap:round;stroke-linejoin:round"
       d="m 27.434258,24.020159 a 1.4257154,1.4258113 0 0 1 -1.425715,1.425811 1.4257154,1.4258113 0 0 1 -1.425715,-1.425811 1.4257154,1.4258113 0 0 1 1.425715,-1.425812 1.4257154,1.4258113 0 0 1 1.425715,1.425812 z"
       id="path78" /><path
       style="fill:none;stroke:#ffffff;stroke-linecap:round;stroke-linejoin:round"
       d="m 31.890476,24.020159 a 1.5728148,1.5729204 0 0 1 -1.572815,1.57292 1.5728148,1.5729204 0 0 1 -1.572815,-1.57292 1.5728148,1.5729204 0 0 1 1.572815,-1.572921 1.5728148,1.5729204 0 0 1 1.572815,1.572921 z"
       id="path77" /><path
       style="fill:none;stroke:#ffffff;stroke-linecap:round;stroke-linejoin:round"
       d="m 36.704393,24.020159 a 1.6916516,1.6917652 0 0 1 -1.691652,1.691765 1.6916516,1.6917652 0 0 1 -1.691651,-1.691765 1.6916516,1.6917652 0 0 1 1.691651,-1.691765 1.6916516,1.6917652 0 0 1 1.691652,1.691765 z"
       id="path76" /><path
       style="fill:none;stroke:#ffffff;stroke-linecap:round;stroke-linejoin:round"
       d="m 41.499999,24.020159 a 1.7907284,1.7908487 0 0 1 -1.790729,1.790848 1.7907284,1.7908487 0 0 1 -1.790728,-1.790848 1.7907284,1.7908487 0 0 1 1.790728,-1.790849 1.7907284,1.7908487 0 0 1 1.790729,1.790849 z"
       id="path75" /><path
       style="fill:none;stroke:#ffffff;stroke-linecap:round;stroke-linejoin:round"
       d="m 12.719039,24.020159 a 0.68367285,0.68371874 0 0 1 -0.683673,0.683719 0.68367285,0.68371874 0 0 1 -0.683673,-0.683719 0.68367285,0.68371874 0 0 1 0.683673,-0.683719 0.68367285,0.68371874 0 0 1 0.683673,0.683719 z"
       id="path74" /><path
       style="fill:none;stroke:#ffffff;stroke-linecap:round;stroke-linejoin:round"
       d="M 9.890306,24.020159 A 0.6171546,0.61719608 0 0 1 9.2731514,24.637355 0.6171546,0.61719608 0 0 1 8.6559968,24.020159 0.6171546,0.61719608 0 0 1 9.2731514,23.402963 0.6171546,0.61719608 0 0 1 9.890306,24.020159 Z"
       id="path73" /><path
       style="fill:none;stroke:#ffffff;stroke-linecap:round;stroke-linejoin:round"
       d="M 7.444732,24.020159 A 0.47236612,0.47239786 0 0 1 6.9723659,24.492557 0.47236612,0.47239786 0 0 1 6.4999997,24.020159 0.47236612,0.47239786 0 0 1 6.9723659,23.547761 0.47236612,0.47239786 0 0 1 7.444732,24.020159 Z"
       id="path72" /><path
       style="fill:none;stroke:#ffffff;stroke-linecap:round;stroke-linejoin:round"
       d="m 15.702774,19.482698 a 0.85719812,0.8572557 0 0 1 -0.857198,0.857256 0.85719812,0.8572557 0 0 1 -0.857198,-0.857256 0.85719812,0.8572557 0 0 1 0.857198,-0.857255 0.85719812,0.8572557 0 0 1 0.857198,0.857255 z"
       id="path71" /><path
       style="fill:none;stroke:#ffffff;stroke-linecap:round;stroke-linejoin:round"
       d="m 19.24328,19.482698 a 1.0255371,1.025606 0 0 1 -1.025537,1.025606 1.0255371,1.025606 0 0 1 -1.025537,-1.025606 1.0255371,1.025606 0 0 1 1.025537,-1.025606 1.0255371,1.025606 0 0 1 1.025537,1.025606 z"
       id="path70" /><path
       style="fill:none;stroke:#ffffff;stroke-linecap:round;stroke-linejoin:round"
       d="m 22.99506,19.482698 a 1.211935,1.2120165 0 0 1 -1.211935,1.212017 1.211935,1.2120165 0 0 1 -1.211935,-1.212017 1.211935,1.2120165 0 0 1 1.211935,-1.212016 1.211935,1.2120165 0 0 1 1.211935,1.212016 z"
       id="path69" /><path
       style="fill:none;stroke:#ffffff;stroke-linecap:round;stroke-linejoin:round"
       d="m 27.434258,19.482698 a 1.4257154,1.4258113 0 0 1 -1.425715,1.425812 1.4257154,1.4258113 0 0 1 -1.425715,-1.425812 1.4257154,1.4258113 0 0 1 1.425715,-1.425811 1.4257154,1.4258113 0 0 1 1.425715,1.425811 z"
       id="path68" /><path
       style="fill:none;stroke:#ffffff;stroke-linecap:round;stroke-linejoin:round"
       d="m 31.890476,19.482698 a 1.5728148,1.5729204 0 0 1 -1.572815,1.572921 1.5728148,1.5729204 0 0 1 -1.572815,-1.572921 1.5728148,1.5729204 0 0 1 1.572815,-1.57292 1.5728148,1.5729204 0 0 1 1.572815,1.57292 z"
       id="path67" /><path
       style="fill:none;stroke:#ffffff;stroke-linecap:round;stroke-linejoin:round"
       d="m 36.704393,19.482698 a 1.6916516,1.6917652 0 0 1 -1.691652,1.691766 1.6916516,1.6917652 0 0 1 -1.691651,-1.691766 1.6916516,1.6917652 0 0 1 1.691651,-1.691765 1.6916516,1.6917652 0 0 1 1.691652,1.691765 z"
       id="path66" /><path
       style="fill:none;stroke:#ffffff;stroke-linecap:round;stroke-linejoin:round"
       d="m 12.719039,19.482698 a 0.68367285,0.68371874 0 0 1 -0.683673,0.683719 0.68367285,0.68371874 0 0 1 -0.683673,-0.683719 0.68367285,0.68371874 0 0 1 0.683673,-0.683718 0.68367285,0.68371874 0 0 1 0.683673,0.683718 z"
       id="path65" /><path
       style="fill:none;stroke:#ffffff;stroke-linecap:round;stroke-linejoin:round"
       d="M 9.890306,19.482698 A 0.6171546,0.61719608 0 0 1 9.2731514,20.099895 0.6171546,0.61719608 0 0 1 8.6559968,19.482698 0.6171546,0.61719608 0 0 1 9.2731514,18.865502 0.6171546,0.61719608 0 0 1 9.890306,19.482698 Z"
       id="path64" /><path
       style="fill:none;stroke:#ffffff;stroke-linecap:round;stroke-linejoin:round"
       d="M 7.444732,19.482698 A 0.47236612,0.47239786 0 0 1 6.9723659,19.955096 0.47236612,0.47239786 0 0 1 6.4999997,19.482698 0.47236612,0.47239786 0 0 1 6.9723659,19.010301 0.47236612,0.47239786 0 0 1 7.444732,19.482698 Z"
       id="path63" /><path
       style="fill:none;stroke:#ffffff;stroke-linecap:round;stroke-linejoin:round"
       d="m 15.702774,28.557619 a 0.85719812,0.8572557 0 0 1 -0.857198,0.857256 0.85719812,0.8572557 0 0 1 -0.857198,-0.857256 0.85719812,0.8572557 0 0 1 0.857198,-0.857256 0.85719812,0.8572557 0 0 1 0.857198,0.857256 z"
       id="path62" /><path
       style="fill:none;stroke:#ffffff;stroke-linecap:round;stroke-linejoin:round"
       d="m 19.24328,28.557619 a 1.0255371,1.025606 0 0 1 -1.025537,1.025606 1.0255371,1.025606 0 0 1 -1.025537,-1.025606 1.0255371,1.025606 0 0 1 1.025537,-1.025606 1.0255371,1.025606 0 0 1 1.025537,1.025606 z"
       id="path61" /><path
       style="fill:none;stroke:#ffffff;stroke-linecap:round;stroke-linejoin:round"
       d="m 22.99506,28.557619 a 1.211935,1.2120165 0 0 1 -1.211935,1.212017 1.211935,1.2120165 0 0 1 -1.211935,-1.212017 1.211935,1.2120165 0 0 1 1.211935,-1.212016 1.211935,1.2120165 0 0 1 1.211935,1.212016 z"
       id="path60" /><path
       style="fill:none;stroke:#ffffff;stroke-linecap:round;stroke-linejoin:round"
       d="m 27.434258,28.557619 a 1.4257154,1.4258113 0 0 1 -1.425715,1.425811 1.4257154,1.4258113 0 0 1 -1.425715,-1.425811 1.4257154,1.4258113 0 0 1 1.425715,-1.425811 1.4257154,1.4258113 0 0 1 1.425715,1.425811 z"
       id="path59" /><path
       style="fill:none;stroke:#ffffff;stroke-linecap:round;stroke-linejoin:round"
       d="m 31.890476,28.557619 a 1.5728148,1.5729204 0 0 1 -1.572815,1.572921 1.5728148,1.5729204 0 0 1 -1.572815,-1.572921 1.5728148,1.5729204 0 0 1 1.572815,-1.57292 1.5728148,1.5729204 0 0 1 1.572815,1.57292 z"
       id="path58" /><path
       style="fill:none;stroke:#ffffff;stroke-linecap:round;stroke-linejoin:round"
       d="m 36.704393,28.557619 a 1.6916516,1.6917652 0 0 1 -1.691652,1.691765 1.6916516,1.6917652 0 0 1 -1.691651,-1.691765 1.6916516,1.6917652 0 0 1 1.691651,-1.691765 1.6916516,1.6917652 0 0 1 1.691652,1.691765 z"
       id="path57" /><path
       style="fill:none;stroke:#ffffff;stroke-linecap:round;stroke-linejoin:round"
       d="m 12.719039,28.557619 a 0.68367285,0.68371874 0 0 1 -0.683673,0.683719 0.68367285,0.68371874 0 0 1 -0.683673,-0.683719 0.68367285,0.68371874 0 0 1 0.683673,-0.683719 0.68367285,0.68371874 0 0 1 0.683673,0.683719 z"
       id="path56" /><path
       style="fill:none;stroke:#ffffff;stroke-linecap:round;stroke-linejoin:round"
       d="M 9.890306,28.557619 A 0.6171546,0.61719608 0 0 1 9.2731514,29.174815 0.6171546,0.61719608 0 0 1 8.6559968,28.557619 0.6171546,0.61719608 0 0 1 9.2731514,27.940423 0.6171546,0.61719608 0 0 1 9.890306,28.557619 Z"
       id="path55" /><path
       style="fill:none;stroke:#ffffff;stroke-linecap:round;stroke-linejoin:round"
       d="M 7.444732,28.557619 A 0.47236612,0.47239786 0 0 1 6.9723659,29.030017 0.47236612,0.47239786 0 0 1 6.4999997,28.557619 0.47236612,0.47239786 0 0 1 6.9723659,28.085221 0.47236612,0.47239786 0 0 1 7.444732,28.557619 Z"
       id="path54" /><path
       style="fill:none;stroke:#ffffff;stroke-linecap:round;stroke-linejoin:round"
       d="m 27.434258,14.945239 a 1.4257154,1.4258113 0 0 1 -1.425715,1.425811 1.4257154,1.4258113 0 0 1 -1.425715,-1.425811 1.4257154,1.4258113 0 0 1 1.425715,-1.425811 1.4257154,1.4258113 0 0 1 1.425715,1.425811 z"
       id="path53" /><path
       style="fill:none;stroke:#ffffff;stroke-linecap:round;stroke-linejoin:round"
       d="m 31.890476,14.945239 a 1.5728148,1.5729204 0 0 1 -1.572815,1.572921 1.5728148,1.5729204 0 0 1 -1.572815,-1.572921 1.5728148,1.5729204 0 0 1 1.572815,-1.57292 1.5728148,1.5729204 0 0 1 1.572815,1.57292 z"
       id="path52" /><path
       style="fill:none;stroke:#ffffff;stroke-linecap:round;stroke-linejoin:round"
       d="m 27.434258,10.361247 a 1.4257154,1.4258113 0 0 1 -1.425715,1.425811 1.4257154,1.4258113 0 0 1 -1.425715,-1.425811 1.4257154,1.4258113 0 0 1 1.425715,-1.4258112 1.4257154,1.4258113 0 0 1 1.425715,1.4258112 z"
       id="path51" /><path
       style="fill:none;stroke:#ffffff;stroke-linecap:round;stroke-linejoin:round"
       d="m 27.434258,33.095078 a 1.4257154,1.4258113 0 0 1 -1.425715,1.425811 1.4257154,1.4258113 0 0 1 -1.425715,-1.425811 1.4257154,1.4258113 0 0 1 1.425715,-1.425812 1.4257154,1.4258113 0 0 1 1.425715,1.425812 z"
       id="path50" /><path
       style="fill:none;stroke:#ffffff;stroke-linecap:round;stroke-linejoin:round"
       d="m 31.890476,33.095078 a 1.5728148,1.5729204 0 0 1 -1.572815,1.57292 1.5728148,1.5729204 0 0 1 -1.572815,-1.57292 1.5728148,1.5729204 0 0 1 1.572815,-1.572921 1.5728148,1.5729204 0 0 1 1.572815,1.572921 z"
       id="path49" /><path
       style="fill:none;stroke:#ffffff;stroke-linecap:round;stroke-linejoin:round"
       d="m 27.434258,37.638752 a 1.4257154,1.4258113 0 0 1 -1.425715,1.425811 1.4257154,1.4258113 0 0 1 -1.425715,-1.425811 1.4257154,1.4258113 0 0 1 1.425715,-1.425811 1.4257154,1.4258113 0 0 1 1.425715,1.425811 z"
       id="circle46" /></g></svg>
