<svg xmlns="http://www.w3.org/2000/svg" xml:space="preserve" id="svg1" version="1.1" viewBox="0 0 48 48"><defs id="defs1"><style id="style1">.a{fill:none;stroke:#fff;stroke-linecap:round;stroke-linejoin:round}</style></defs><path id="path15119" d="M38.669 10.345a5.846 5.845 0 0 1-5.847 5.845 5.846 5.845 0 0 1-5.846-5.845A5.846 5.845 0 0 1 32.822 4.5a5.846 5.845 0 0 1 5.847 5.845z" style="fill:none;stroke:#fff;stroke-width:1;stroke-linecap:round;stroke-linejoin:round;stroke-dashoffset:1.3;stroke-opacity:1"/><path id="path15117" d="M20.235 16.712a4.86 4.86 0 0 1-4.86 4.86 4.86 4.86 0 0 1-4.86-4.86 4.86 4.86 0 0 1 4.86-4.86 4.86 4.86 0 0 1 4.86 4.86z" style="fill:none;stroke:#fff;stroke-width:1;stroke-linecap:round;stroke-linejoin:round;stroke-dashoffset:1.3;stroke-opacity:1"/><path id="path15115" d="M16.378 31.205a3.523 3.522 0 0 1-3.523 3.522 3.523 3.522 0 0 1-3.524-3.522 3.523 3.522 0 0 1 3.524-3.523 3.523 3.522 0 0 1 3.523 3.523z" style="fill:none;stroke:#fff;stroke-width:1;stroke-linecap:round;stroke-linejoin:round;stroke-dashoffset:1.3;stroke-opacity:1"/><path id="path15113" d="M24.523 40.379A3.122 3.121 0 0 1 21.4 43.5a3.122 3.121 0 0 1-3.122-3.121 3.122 3.121 0 0 1 3.122-3.122 3.122 3.121 0 0 1 3.122 3.122z" style="fill:none;stroke:#fff;stroke-width:1;stroke-linecap:round;stroke-linejoin:round;stroke-dashoffset:1.3;stroke-opacity:1"/><path id="path15111" d="M20.489 16.728c2.097-1.587 4.626-2.604 7.32-2.8" style="fill:none;stroke:#fff;stroke-width:1;stroke-linecap:round;stroke-linejoin:round;stroke-dashoffset:1.3;stroke-opacity:1"/><path id="path15109" d="M15.672 11.602c3.307-3.01 7.62-4.77 11.868-4.434" style="fill:none;stroke:#fff;stroke-width:1;stroke-linecap:round;stroke-linejoin:round;stroke-dashoffset:1.3;stroke-opacity:1"/><path id="path15107" d="M14.846 27.97a13.524 13.524 0 0 1 1.468-6.248" style="fill:none;stroke:#fff;stroke-width:1;stroke-linecap:round;stroke-linejoin:round;stroke-dashoffset:1.3;stroke-opacity:1"/><path id="path15105" d="M10.347 28.358c-.87-3.289-.624-6.518.406-9.426" style="fill:none;stroke:#fff;stroke-width:1;stroke-linecap:round;stroke-linejoin:round;stroke-dashoffset:1.3;stroke-opacity:1"/><path id="path15103" d="M19.005 38.07c-1.352-1.554-2.342-3.15-3.017-4.743" style="fill:none;stroke:#fff;stroke-width:1;stroke-linecap:round;stroke-linejoin:round;stroke-dashoffset:1.3;stroke-opacity:1"/><path id="path14995" d="M18.198 39.472c-1.844-1.475-3.345-3.004-4.54-4.559" style="fill:none;stroke:#fff;stroke-width:1;stroke-linecap:round;stroke-linejoin:round;stroke-dashoffset:1.3;stroke-opacity:1"/></svg>