<?xml version="1.0" encoding="UTF-8"?><svg id="a" xmlns="http://www.w3.org/2000/svg" viewBox="0 0 48 48"><defs><style>.b{fill:none;stroke:#fff;stroke-linecap:round;stroke-linejoin:round;}</style></defs><path class="b" d="M30.9603,34.9605c-4.433,4.4329-11.0998,5.759-16.8917,3.3599-5.7921-2.3991-9.5686-8.0511-9.5686-14.3204,0-6.2693,3.7765-11.9213,9.5686-14.3204,5.7919-2.3991,12.4587-1.073,16.8917,3.3599"/><path class="b" d="M43.5,24c-4.7479-1.5818-7.8621-6.7732-12.58-11"/><path class="b" d="M43.5,24c-4.7479,1.5818-7.8621,6.7732-12.58,11"/><path class="b" d="M29.1022,20.238l-18.143-.0049"/><path class="b" d="M10.9599,20.233c1.5227-3.6666,5.1031-6.0558,9.0732-6.0547,3.9702.0011,7.5492,2.3922,9.0699,6.0596"/><path class="b" d="M29.1022,27.902l-18.143.0049"/><path class="b" d="M10.9599,27.907c1.5227,3.6666,5.1031,6.0558,9.0732,6.0547,3.9702-.0011,7.5492-2.3922,9.0699-6.0596"/></svg>