<?xml version="1.0" encoding="UTF-8"?><svg id="a" xmlns="http://www.w3.org/2000/svg" viewBox="0 0 48 48"><defs><style>.d{fill:none;stroke:#fff;stroke-linecap:round;stroke-linejoin:round;}</style></defs><rect class="d" x="5.5" y="5.5" width="37" height="37" rx="4" ry="4"/><path class="d" d="m15.675 20v6c0 1.1046-0.8954 2-2 2s-2-0.8954-2-2v-0.6642"/><path class="d" d="m20.858 27.123c0.4906 0.6387 1.1057 0.8765 1.9615 0.8765h1.1844c1.1022 0 1.9957-0.8935 1.9957-1.9957v-0.0086c0-1.1022-0.8935-1.9957-1.9957-1.9957h-1.3065c-1.1034 0-1.9978-0.8945-1.9978-1.9978 0-1.1058 0.8964-2.0022 2.0022-2.0022h1.1779c0.8558 0 1.4709 0.2379 1.9615 0.8765"/><path class="d" d="m31.025 20 2.65 3 2.65-3"/><path class="d" d="m36.325 28-2.65-3-2.65 3"/></svg>
