<?xml version="1.0" encoding="UTF-8"?><svg id="a" xmlns="http://www.w3.org/2000/svg" viewBox="0 0 48 48"><defs><style>.b{fill:none;stroke:#fff;stroke-linecap:round;stroke-linejoin:round;}</style></defs><rect class="b" x="5.5" y="5.5" width="37" height="37" rx="4" ry="4"/><path class="b" d="M15.675,20v6c0,1.1046-.8954,2-2,2s-2-.8954-2-2v-.6642"/><path class="b" d="M20.858,27.123c.4906.6387,1.1057.8765,1.9615.8765h1.1844c1.1022,0,1.9957-.8935,1.9957-1.9957v-.0086c0-1.1022-.8935-1.9957-1.9957-1.9957h-1.3065c-1.1034,0-1.9978-.8945-1.9978-1.9978,0-1.1058.8964-2.0022,2.0022-2.0022h1.1779c.8558,0,1.4709.2379,1.9615.8765"/><path class="b" d="M31.025,20l2.65,3,2.65-3"/><path class="b" d="M36.325,28l-2.65-3-2.65,3"/></svg>