<svg xmlns="http://www.w3.org/2000/svg" xml:space="preserve" viewBox="0 0 48 48"><path d="M34.03 32.267V15.733m0 9.714c0-2.283-1.957-4.134-4.37-4.134v0c-2.415 0-4.371 1.85-4.371 4.134v2.686c0 2.283 1.956 4.134 4.37 4.134v0c2.414 0 4.37-1.85 4.37-4.134m-12.427-12.4v12.4c0 2.283-1.957 4.134-4.37 4.134v0c-2.415 0-4.371-1.85-4.371-4.134v-1.372M9.5 5.5h29c2.216 0 4 1.784 4 4v29c0 2.216-1.784 4-4 4h-29c-2.216 0-4-1.784-4-4v-29c0-2.216 1.784-4 4-4z" class="t" style="fill:none;stroke:#fff;stroke-width:1stroke-linecap:round;stroke-linejoin:round;stroke-opacity:1"/></svg>
