<?xml version="1.0" encoding="UTF-8" standalone="no"?>
<svg
   viewBox="0 0 48 48"
   version="1.1"
   id="svg1"
   sodipodi:docname="k_powerpay.svg"
   inkscape:version="1.2.2 (b0a8486541, 2022-12-01)"
   xml:space="preserve"
   xmlns:inkscape="http://www.inkscape.org/namespaces/inkscape"
   xmlns:sodipodi="http://sodipodi.sourceforge.net/DTD/sodipodi-0.dtd"
   xmlns="http://www.w3.org/2000/svg"
   xmlns:svg="http://www.w3.org/2000/svg"><sodipodi:namedview
     id="namedview1"
     pagecolor="#505050"
     bordercolor="#eeeeee"
     borderopacity="1"
     inkscape:showpageshadow="0"
     inkscape:pageopacity="0"
     inkscape:pagecheckerboard="0"
     inkscape:deskcolor="#505050"
     inkscape:zoom="12.59534"
     inkscape:cx="5.4782167"
     inkscape:cy="20.245584"
     inkscape:window-width="1918"
     inkscape:window-height="1053"
     inkscape:window-x="0"
     inkscape:window-y="0"
     inkscape:window-maximized="1"
     inkscape:current-layer="svg1"
     showgrid="false" /><defs
     id="defs1"><style
       id="style1">.a { fill:none;stroke:#fff;stroke-linecap:round;stroke-linejoin:round; }
</style></defs><g
     id="g9683"><path
       style="fill:none;stroke:#ffffff;stroke-width:1;stroke-linecap:round;stroke-linejoin:round;stroke-dasharray:none;stroke-opacity:1;stop-color:#000000"
       d="M 45.5,24 C 45.5,35.883504 35.883504,45.5 24,45.5 12.116497,45.5 2.5000002,35.883504 2.5000002,24 2.5000002,12.116497 12.116497,2.5000003 24,2.5000003 35.883504,2.5000003 45.5,12.116497 45.5,24"
       id="path9648" /><g
       id="g9665"><path
         style="fill:none;stroke:#ffffff;stroke-width:1;stroke-linecap:round;stroke-linejoin:round;stroke-dasharray:none;stroke-opacity:1;stop-color:#000000"
         d="m 22.418,34.527941 -4.45e-4,-13.601566 c -4.3e-5,-1.306254 0.07273,-2.372537 -1.499253,-3.620625 L 16.611907,13.886648 C 13.730377,11.59883 13.295369,9.5081566 13.295369,9.5081566 v 6.7613624 c 0,1.859711 0.86055,3.004049 2.447281,4.158808 l 3.414679,2.485065 c 3.058412,2.225789 3.232603,4.657225 3.260671,8.636262"
         id="path9646" /><path
         style="fill:none;stroke:#ffffff;stroke-width:1;stroke-linecap:round;stroke-linejoin:round;stroke-dasharray:none;stroke-opacity:1;stop-color:#000000"
         d="m 24.06549,34.528 5.02e-4,-13.601625 c 4.8e-5,-1.306254 -0.303168,-2.480915 1.504073,-3.679525 l 5.1525,-3.417274 c 3.395219,-2.251799 3.634626,-4.3214194 3.634626,-4.3214194 v 6.3850324 c 0,2.516159 -1.498181,3.705185 -3.294913,4.849552 l -3.207149,2.042684 c -3.463189,2.205759 -3.789639,2.498401 -3.789639,8.764229"
         id="path9644" /><path
         style="fill:none;stroke:#ffffff;stroke-width:1;stroke-linecap:round;stroke-linejoin:round;stroke-dasharray:none;stroke-opacity:1;stop-color:#000000"
         d="m 34.357191,15.893189 v 7.290437 c 0,1.271296 -0.459086,2.792217 -1.515118,3.500024 l -4.537636,3.041359 c -1.35955,0.911241 -2.659731,1.614933 -2.659731,3.538973 V 34.528 28.340984 c 0,-2.065167 -0.175234,-4.153091 2.210423,-5.555559"
         id="path9642" /></g><g
       id="g9671"><path
         style="fill:none;stroke:#ffffff;stroke-width:1;stroke-linecap:round;stroke-linejoin:round;stroke-dasharray:none;stroke-opacity:1;stop-color:#000000"
         d="M 10.409139,36.047601 C 13.067083,35.809299 14.286618,34.067835 17,34.104439 c 2.912513,0.03929 3.920312,1.970044 7,1.970044 3.079687,0 4.087486,-1.930751 6.999999,-1.970044 2.713382,-0.0366 3.932917,1.70486 6.590862,1.943162"
         id="path9640" /><path
         style="fill:none;stroke:#ffffff;stroke-width:1;stroke-linecap:round;stroke-linejoin:round;stroke-dasharray:none;stroke-opacity:1;stop-color:#000000"
         d="M 15.146959,39.859021 C 15.698724,39.687956 16.299594,39.578929 17,39.588378 c 2.912513,0.03929 3.920312,1.970044 7,1.970044 3.079687,0 4.087486,-1.930751 6.999999,-1.970044 0.700406,-0.0094 1.301276,0.09958 1.853041,0.270643"
         id="path9638" /><path
         style="fill:none;stroke:#ffffff;stroke-width:1;stroke-linecap:round;stroke-linejoin:round;stroke-dasharray:none;stroke-opacity:1;stop-color:#000000"
         d="M 13.413233,38.757026 C 14.481692,38.250809 15.518041,37.740406 17,37.760398 c 2.912513,0.03929 3.920312,1.970044 7,1.970044 3.079687,0 4.087486,-1.930751 6.999999,-1.970044 1.481959,-0.01999 2.518308,0.490411 3.586767,0.996628"
         id="path9636" /><path
         style="fill:none;stroke:#ffffff;stroke-width:1;stroke-linecap:round;stroke-linejoin:round;stroke-dasharray:none;stroke-opacity:1;stop-color:#000000"
         d="M 11.914867,37.558837 C 13.642531,36.986631 14.854096,35.903471 17,35.932419 c 2.912513,0.03929 3.920312,1.970044 7,1.970044 3.079687,0 4.087486,-1.930751 6.999999,-1.970044 2.145904,-0.02895 3.357469,1.054211 5.085133,1.626418"
         id="path9607" /></g></g></svg>
