<?xml version="1.0" encoding="UTF-8"?><svg id="a" xmlns="http://www.w3.org/2000/svg" viewBox="0 0 48 48"><defs><style>.b{fill:none;stroke:#fff;stroke-linecap:round;stroke-linejoin:round;}</style></defs><path class="b" d="M23.557,25.992l8.665,11.28h-3.21c-1.33,0-2.015-.872-2.72-1.798l-5.036-6.616,5.038-6.332c.704-.925,1.39-1.798,2.72-1.798h3.209l-6.325,8.31-2.341-3.046ZM15.452,20.893h3.988v16.17h-3.988v-16.17ZM41.995,17.111c-.3772.1491-.7794.2251-1.185.224-1.853,0-3.345-1.561-3.345-3.5M37.454,5.5v8.335c0,1.939-1.492,3.5-3.345,3.5s-3.345-1.561-3.349-3.5c-.003,1.939-1.495,3.5-3.348,3.5s-3.345-1.561-3.345-3.5M24.066,6.001l-.005,7.834c-.006,1.939-1.498,3.5-3.35,3.5s-3.346-1.561-3.344-3.5c0,1.939-1.491,3.5-3.344,3.5s-3.345-1.561-3.351-3.5c-.006,1.939-1.498,3.5-3.35,3.5-.47,0-.916-.1-1.321-.282M30.756,6.001v7.834M17.366,6.001v7.834M10.666,5.5v8.335"/><rect class="b" x="5.5" y="5.5" width="37" height="37" rx="4" ry="4"/></svg>