<svg xmlns="http://www.w3.org/2000/svg" xml:space="preserve" width="48" height="48"><path fill="none" stroke="#fff" stroke-linecap="round" stroke-linejoin="round" d="m23.561 25.995 8.665 11.28h-3.21c-1.33 0-2.015-.872-2.72-1.798l-5.036-6.616zl2.737-3.466c.704-.925 1.39-1.798 2.72-1.798h3.209l-6.325 8.31m-10.446-8.145h3.988v16.17h-3.988zm26.543-3.782a3.2 3.2 0 0 1-1.185.224c-1.853 0-3.345-1.561-3.345-3.5m-.011-6.652v6.652c0 1.939-1.492 3.5-3.345 3.5s-3.345-1.561-3.349-3.5c-.003 1.939-1.495 3.5-3.348 3.5s-3.345-1.561-3.345-3.5m-.001-7.834-.005 7.834c-.006 1.939-1.498 3.5-3.35 3.5s-3.346-1.561-3.344-3.5c0 1.939-1.491 3.5-3.344 3.5s-3.345-1.561-3.351-3.5c-.006 1.939-1.498 3.5-3.35 3.5-.47 0-.916-.1-1.321-.282M30.76 6.004v7.834M17.37 6.004v7.834m-6.7-6.728v6.728m4.334-7.835h17.993c4.986 0 9 4.014 9 9v17.993c0 4.986-4.014 9-9 9H15.004a8.98 8.98 0 0 1-9-9V15.003c0-4.986 4.014-9 9-9"/></svg>
