<?xml version="1.0" encoding="UTF-8" standalone="no"?>
<svg
   viewBox="0 0 48 48"
   version="1.1"
   id="svg1"
   sodipodi:docname="kajanurak.svg"
   inkscape:version="1.2.2 (b0a8486541, 2022-12-01)"
   xml:space="preserve"
   xmlns:inkscape="http://www.inkscape.org/namespaces/inkscape"
   xmlns:sodipodi="http://sodipodi.sourceforge.net/DTD/sodipodi-0.dtd"
   xmlns="http://www.w3.org/2000/svg"
   xmlns:svg="http://www.w3.org/2000/svg"><sodipodi:namedview
     id="namedview1"
     pagecolor="#505050"
     bordercolor="#eeeeee"
     borderopacity="1"
     inkscape:showpageshadow="0"
     inkscape:pageopacity="0"
     inkscape:pagecheckerboard="0"
     inkscape:deskcolor="#505050"
     inkscape:zoom="17.8125"
     inkscape:cx="13.473684"
     inkscape:cy="27.929825"
     inkscape:window-width="1912"
     inkscape:window-height="1054"
     inkscape:window-x="0"
     inkscape:window-y="0"
     inkscape:window-maximized="0"
     inkscape:current-layer="svg1"
     showgrid="false" /><defs
     id="defs1"><style
       id="style1">.a { fill:none;stroke:#fff;stroke-linecap:round;stroke-linejoin:round; }
</style></defs><g
     id="g721"><g
       id="g698"><path
         style="fill:none;stroke:#ffffff;stroke-width:1;stroke-linecap:round;stroke-linejoin:round;stroke-opacity:1;stop-color:#000000"
         d="M 24.173446,31.94775 C 18.739368,32.791047 14.802838,31.1531 13.845035,26.878207 12.574612,21.208026 15.454211,15.796366 19.756792,14.228729"
         id="path535" /><path
         style="fill:none;stroke:#ffffff;stroke-width:1;stroke-linecap:round;stroke-linejoin:round;stroke-opacity:1;stop-color:#000000"
         d="m 30.240819,30.78767 c 5.207412,-2.49908 5.665472,-5.297057 4.820361,-9.3546 -1.039964,-4.993068 -5.69414,-7.986866 -9.076272,-8.240175"
         id="path533" /></g><g
       id="g686"><path
         style="fill:none;stroke:#ffffff;stroke-width:1;stroke-linecap:round;stroke-linejoin:round;stroke-opacity:1;stop-color:#000000"
         d="m 21.215305,29.274768 c 0.373568,0.353469 0.695085,0.472764 1.241446,0.454032 0.560627,0.587797 0.869433,1.158176 1.819609,1.772917 0.698681,1.627624 -0.369806,2.610784 -2.676234,2.221622 -0.218694,-0.641957 -0.475264,-1.012643 -0.891081,-1.494497 -0.191337,0.302968 -0.257566,0.670549 -0.636116,0.899714 -0.604479,0.365937 -1.404249,0.973854 -0.846822,1.258261 0.568303,0.289965 1.388861,0.418738 2.263637,0.29148 6.76497,4.171612 9.383696,-3.063405 8.494103,-7.056114 0.197513,-0.194557 0.372054,-0.378045 0.437137,-0.62441"
         id="path531" /><path
         style="fill:none;stroke:#ffffff;stroke-width:1;stroke-linecap:round;stroke-linejoin:round;stroke-opacity:1;stop-color:#000000"
         d="m 27.918713,32.027131 c -0.521772,0.27799 -1.119474,0.382495 -1.904633,0.270561"
         id="path529" /><path
         style="fill:none;stroke:#ffffff;stroke-width:1;stroke-linecap:round;stroke-linejoin:round;stroke-opacity:1;stop-color:#000000"
         d="m 25.275615,30.382196 c 1.010342,0.02109 1.86956,-0.09281 2.732678,-0.401098"
         id="path527" /><path
         style="fill:none;stroke:#ffffff;stroke-width:1;stroke-linecap:round;stroke-linejoin:round;stroke-opacity:1;stop-color:#000000"
         d="m 24.043185,28.373924 c 0.607617,-0.773817 2.411408,-1.390704 3.571462,-1.034218"
         id="path525" /></g><g
       id="g613"><path
         style="fill:none;stroke:#ffffff;stroke-width:1;stroke-linecap:round;stroke-linejoin:round;stroke-opacity:1;stop-color:#000000"
         d="m 21.947947,13.790895 c -0.007,-0.926212 1.132432,-1.518894 2.554459,-1.723872"
         id="path523" /><path
         style="fill:none;stroke:#ffffff;stroke-width:1;stroke-linecap:round;stroke-linejoin:round;stroke-opacity:1;stop-color:#000000"
         d="m 25.009609,13.329254 c -0.643331,-0.236889 -2.460357,-0.278257 -3.061662,0.461641"
         id="path521" /><path
         style="fill:none;stroke:#ffffff;stroke-width:1;stroke-linecap:round;stroke-linejoin:round;stroke-opacity:1;stop-color:#000000"
         d="m 20.2708,12.171231 c 1.111537,0.479889 1.052543,1.257658 1.149139,1.934588 -0.304689,-0.469279 -1.109507,-1.273735 -2.263646,-0.697415"
         id="path519" /></g><g
       id="g671"><path
         style="fill:none;stroke:#ffffff;stroke-width:1;stroke-linecap:round;stroke-linejoin:round;stroke-opacity:1;stop-color:#000000"
         d="m 31.735525,23.951576 a 1.5154923,1.5099746 0 0 1 -1.515493,1.509974 1.5154923,1.5099746 0 0 1 -1.515492,-1.509974 1.5154923,1.5099746 0 0 1 1.515492,-1.509974 1.5154923,1.5099746 0 0 1 1.515493,1.509974 z"
         id="path517" /><path
         style="fill:none;stroke:#ffffff;stroke-width:1;stroke-linecap:round;stroke-linejoin:round;stroke-opacity:1;stop-color:#000000"
         d="m 20.938535,26.257878 a 1.5154923,1.5099746 0 0 0 -1.515492,-1.509974 1.5154923,1.5099746 0 0 0 -1.515493,1.509974 1.5154923,1.5099746 0 0 0 1.515493,1.509975 1.5154923,1.5099746 0 0 0 1.515492,-1.509975 z"
         id="path515" /></g><g
       id="g690"><path
         style="fill:none;stroke:#ffffff;stroke-width:1;stroke-linecap:round;stroke-linejoin:round;stroke-opacity:1;stop-color:#000000"
         d="M 14.876265,29.480012 C 13.048253,35.068579 9.8304873,35.542127 8.1653944,32.80421 7.4827636,31.681758 7.3603911,31.196792 6.3460968,30.477675 4.6433063,29.270424 1.8631733,28.435848 2.77184,23.991501 4.0494691,17.742536 11.708914,16.305278 15.424117,17.598292"
         id="path513" /><path
         style="fill:none;stroke:#ffffff;stroke-width:1;stroke-linecap:round;stroke-linejoin:round;stroke-opacity:1;stop-color:#000000"
         d="m 14.336552,19.616474 c -3.883068,-0.829439 -7.795697,1.145137 -7.1743431,6.224129 0.4821939,3.941488 2.8117423,5.642396 7.3797641,3.141465"
         id="path511" /></g><g
       id="g694"><path
         style="fill:none;stroke:#ffffff;stroke-width:1;stroke-linecap:round;stroke-linejoin:round;stroke-opacity:1;stop-color:#000000"
         d="m 34.791597,27.200344 c 2.932867,4.132885 5.858291,3.698579 6.76742,0.822916 0.395753,-1.251805 0.399106,-1.751851 1.213121,-2.690277 1.366564,-1.575419 3.868461,-3.043579 1.927092,-7.146062 C 41.959847,12.398086 34.131107,12.836734 30.850466,14.99119"
         id="path509" /><path
         style="fill:none;stroke:#ffffff;stroke-width:1;stroke-linecap:round;stroke-linejoin:round;stroke-opacity:1;stop-color:#000000"
         d="m 32.640437,16.570424 c 3.52812,-1.580933 7.640351,-0.527106 8.234335,4.450971 0.443833,3.719693 -1.184479,5.891067 -5.596188,4.992142"
         id="path1317" /></g></g></svg>
