<svg xmlns="http://www.w3.org/2000/svg" viewBox="0 0 48 48" xmlns:v="https://vecta.io/nano"><path d="M6.098 28.819h35.803m-28.053-12.27h19.418c1.187 0 1.403 1.013.657 1.837-2.923 3.232-6.867 4.687-10.307 5.489-1.006.235-.818.802-.374 1.265.978 1.02 2.064 2.448 2.064 5.002v8.929c0 2.169-1.614 3.443-3.556 3.443-1.734 0-3.229-.364-5.203-1.375m7.461-35.655v4.064M7.019 16.323v-5.182a1.59 1.59 0 0 1 1.592-1.592h30.798A1.59 1.59 0 0 1 41 11.141v5.125" fill="none" stroke="#000" stroke-linecap="round" stroke-linejoin="round" paint-order="fill markers stroke"/></svg>