<?xml version="1.0" encoding="UTF-8"?><svg id="a" xmlns="http://www.w3.org/2000/svg" viewBox="0 0 48 48"><defs><style>.d{fill:none;stroke:#fff;stroke-linecap:round;stroke-linejoin:round;}</style></defs><path class="d" d="m22.5 2.9023-16.021 9.25a3.0003 3.0003 0 0 0-1.5 2.5977v18.5a3.0003 3.0003 0 0 0 1.5 2.5977l16.021 9.25a3.0003 3.0003 0 0 0 3 0l16.021-9.25a3.0003 3.0003 0 0 0 1.5-2.5977v-18.5a3.0003 3.0003 0 0 0-1.5-2.5977l-16.021-9.25a3.0003 3.0003 0 0 0-3 0z"/><circle class="d" cx="24" cy="18" r="6"/><circle class="d" cx="24" cy="15.696" r="1.5"/><path class="d" d="m22.034 23.669v3.4266l1.2607 1.173-1.2607 1.173 1.2607 1.173-1.2607 1.173v2.7456l1.9657 1.257 1.9657-1.257v-10.864"/></svg>
