<?xml version="1.0" encoding="UTF-8" standalone="no"?>
<svg
   viewBox="0 0 48 48"
   version="1.1"
   id="svg1"
   sodipodi:docname="katawa_shoujo.svg"
   xml:space="preserve"
   inkscape:version="1.3.2 (091e20ef0f, 2023-11-25)"
   inkscape:export-filename="scratchjr.png"
   inkscape:export-xdpi="2385.7209"
   inkscape:export-ydpi="2385.7209"
   xmlns:inkscape="http://www.inkscape.org/namespaces/inkscape"
   xmlns:sodipodi="http://sodipodi.sourceforge.net/DTD/sodipodi-0.dtd"
   xmlns="http://www.w3.org/2000/svg"
   xmlns:svg="http://www.w3.org/2000/svg"><sodipodi:namedview
     id="namedview1"
     pagecolor="#505050"
     bordercolor="#eeeeee"
     borderopacity="1"
     inkscape:showpageshadow="0"
     inkscape:pageopacity="0"
     inkscape:pagecheckerboard="0"
     inkscape:deskcolor="#505050"
     inkscape:zoom="13.58496"
     inkscape:cx="31.284597"
     inkscape:cy="22.819353"
     inkscape:window-width="1920"
     inkscape:window-height="1008"
     inkscape:window-x="0"
     inkscape:window-y="0"
     inkscape:window-maximized="1"
     inkscape:current-layer="svg1"
     showguides="true"
     inkscape:lockguides="false" /><defs
     id="defs1"><inkscape:path-effect
       effect="fillet_chamfer"
       id="path-effect18"
       is_visible="true"
       lpeversion="1"
       nodesatellites_param="F,0,0,1,0,1.0991045,0,1 @ F,0,0,1,0,1.1718884,0,1 @ F,0,1,1,0,1.1718884,0,1"
       radius="0"
       unit="px"
       method="auto"
       mode="F"
       chamfer_steps="1"
       flexible="false"
       use_knot_distance="true"
       apply_no_radius="true"
       apply_with_radius="true"
       only_selected="false"
       hide_knots="false" /><style
       id="style1">.a{fill:none;stroke:#fff;stroke-linecap:round;stroke-linejoin:round;}</style></defs><path
     id="path1-6"
     style="display:inline;fill:none;stroke:#ffffff;stroke-linecap:round;stroke-linejoin:round"
     d="m 24,10.309126 c 13.994458,-18.5751865 42.890351,7.189891 0,33.697334 v 0 0 M 24,10.309126 C 10.005542,-8.2660609 -18.890351,17.499017 24,44.00646 v 0 0"
     inkscape:label="Heart" /><path
     id="path2"
     style="fill:none;stroke:#ffffff;stroke-linecap:round;stroke-linejoin:round"
     d="m 37.240971,25.844621 -1.624058,2.004803 v 0 0 m 4.077899,3.364487 -4.077899,-3.364487 v 0 0 m 5.701957,1.359684 -4.077899,-3.364487 v 0 0"
     inkscape:label="Spanner1" /><path
     id="path4"
     style="fill:none;stroke:#ffffff;stroke-width:1;stroke-linecap:round;stroke-linejoin:round;stroke-dasharray:none"
     d="m 40.138257,16.12877 2.053626,1.559096 M 31.90069,29.860555 v 0 0 l 7.228524,-8.989497 2.337303,-0.99342 0.725366,-2.189772 m -11.959499,10.929166 1.517374,1.242714 v 0 0 m -1.517373,-1.242714 v 0 0 l 7.388668,-8.858338 0.513323,-2.487242 2.003881,-1.142682"
     inkscape:label="Screw1" /><path
     id="path2-7-1-5"
     style="fill:none;stroke:#ffffff;stroke-width:1;stroke-linecap:round;stroke-linejoin:round;stroke-dasharray:none"
     d="m 22.803073,35.594789 c 0.319762,2.364402 1.849431,2.984774 3.716568,3.043834 v 0 0 m 5.283205,-6.450873 -5.283205,6.450873 v 0 0 m 1.566637,-9.494706 -5.283205,6.450872 v 0 0 m 5.283205,-6.450872 3.716568,3.043833 v 0 0"
     inkscape:label="Screw2" /><path
     id="path13-9-8"
     style="fill:none;stroke:#ffffff;stroke-width:1;stroke-linecap:round;stroke-linejoin:round;stroke-dasharray:none"
     d="m 31.592876,24.502276 -1.82359,-1.50456 v 0 0 m 3.447648,-0.500243 -1.82359,-1.50456 v 0 0 m 1.82359,1.50456 -1.624058,2.004803 v 0 0 m -5.510129,-9.062203 2.341045,2.008109 v 0 0 m -2.218716,2.639342 2.213937,-2.628363 v 0 0 m -4.524715,0.64539 2.322048,1.99181 v 0 0 m -0.133003,-4.655667 a 4,4 0 0 1 4.767682,1.463331 4,4 0 0 1 -0.364586,4.973852 4,4 0 0 1 -4.9301,0.75248 4,4 0 0 1 -1.831736,-4.638628"
     inkscape:label="Spanner2" /></svg>
