<?xml version="1.0" encoding="UTF-8"?><svg id="a" xmlns="http://www.w3.org/2000/svg" viewBox="0 0 48 48"><g id="e"><g id="f"><path id="g" d="M20.7735,10.8878c-1.4534-1.6947.3222-2.3904,2.354-2.9356,1.0634-.2853,2.7908-1.8228,1.1738-2.4045" style="fill:none; stroke:#fff; stroke-linecap:round; stroke-linejoin:round;"/><path id="h" d="M22.6164,8.2457c-.5548.5752-.7731,1.0901-.5635,1.794.7756-.4836,1.7609-.6256,2.541-.4994" style="fill:none; stroke:#fff; stroke-linecap:round; stroke-linejoin:round;"/><path id="i" d="M21.1671,10.4867c-1.0015.9656-1.3915,2.0763-1.2761,3.0751" style="fill:none; stroke:#fff; stroke-linecap:round; stroke-linejoin:round;"/><path id="j" d="M25.0503,13.5471c-.1772-1.3961-1.0347-2.3336-2.0325-2.1117" style="fill:none; stroke:#fff; stroke-linecap:round; stroke-linejoin:round;"/><path id="k" d="M19.8189,16.6519c.0156.1577.0479.3194.1043.4867" style="fill:none; stroke:#fff; stroke-linecap:round; stroke-linejoin:round;"/><path id="l" d="M24.7874,16.8167c.0253.3533.0086.7143-.0618,1.0495" style="fill:none; stroke:#fff; stroke-linecap:round; stroke-linejoin:round;"/></g><g id="m"><g id="n"><path id="o" d="M34.2246,13.9053l4.2177-1.2451" style="fill:none; stroke:#fff; stroke-linecap:round; stroke-linejoin:round;"/><path id="p" d="M29.905,16.5481l.0992.3572" style="fill:none; stroke:#fff; stroke-linecap:round; stroke-linejoin:round;"/><path id="q" d="M29.3965,12.2947l.1611,1.2221c-.0552.1585-.1049.3344-.1412.5183" style="fill:none; stroke:#fff; stroke-linecap:round; stroke-linejoin:round;"/></g><g id="r"><path id="s" d="M31.0069,16.6391c-.1406.4454-.4876.9489-1.325,1.7529l-.6421,1.6345" style="fill:none; stroke:#fff; stroke-linecap:round; stroke-linejoin:round;"/><path id="t" d="M34.1883,14.1897l-.4412-1.466c-.3-.1267-.4918-.1684-.6496.1485-.2658-.395-.7214-.4438-1.0908-.0531-.4882-.1905-.642-.0914-.8682.306-.3014-.1072-.625-.0299-.7182.2884-.0573.1956-.0627.4125-.0124.6207" style="fill:none; stroke:#fff; stroke-linecap:round; stroke-linejoin:round;"/><path id="u" d="M27.6908,23.7759c1.5897.0291,2.8543-.6642,3.9723-1.4953.8863-.2384,1.2427-.9783,1.4772-2.4006l.4784-2.901" style="fill:none; stroke:#fff; stroke-linecap:round; stroke-linejoin:round;"/><path id="v" d="M28.8534,19.7845c-.4528.5994-.9813,1.1935-1.3503,1.7989" style="fill:none; stroke:#fff; stroke-linecap:round; stroke-linejoin:round;"/></g><g id="w"><path id="x" d="M24.8524,19.8665l-.8396.9152" style="fill:none; stroke:#fff; stroke-linecap:round; stroke-linejoin:round;"/><path id="y" d="M27.3321,19.4565l-.2062-.1044" style="fill:none; stroke:#fff; stroke-linecap:round; stroke-linejoin:round;"/><path id="z" d="M24.3871,18.9802l-.5661.1155c-.0416-.0948-.5907-.3532-1.2805.1352l-1.117-1.0961c-.8843-.8678-1.8237-.9859-2.516-1.3705" style="fill:none; stroke:#fff; stroke-linecap:round; stroke-linejoin:round;"/><path id="aa" d="M24.3496,26.1965l-2.3008.6099c-.4549.1206-.95.2002-1.3295-.08l-4.5081-3.6593c2.4782.3626,4.7564-1.0585,6.0813-1.9627" style="fill:none; stroke:#fff; stroke-linecap:round; stroke-linejoin:round;"/><path id="ab" d="M15.404,21.8994c-1.0152-1.6874-1.3747-3.3668-1.0906-5.0329" style="fill:none; stroke:#fff; stroke-linecap:round; stroke-linejoin:round;"/><path id="ac" d="M24.6211,28.0142l-5.6198,2.0149c-1.1776-.7578-2.1519-1.6051-3.5629-2.2483-5.1238-2.3356-4.4286-6.893-6.6048-10.9981,1.4693,1.8022,2.3146,2.9872,3.044,3.9218" style="fill:none; stroke:#fff; stroke-linecap:round; stroke-linejoin:round;"/><path id="ad" d="M28.0619,24.9068l-.6514,1.3829" style="fill:none; stroke:#fff; stroke-linecap:round; stroke-linejoin:round;"/><path id="ae" d="M11.1377,19.5262l2.5182-1.4933" style="fill:none; stroke:#fff; stroke-linecap:round; stroke-linejoin:round;"/></g></g><g id="af"><path id="ag" d="M27.893,29.8881c.2504.0161.4982.0354.7472.0532" style="fill:none; stroke:#fff; stroke-linecap:round; stroke-linejoin:round;"/><path id="ah" d="M27.9357,31.628c.8792-.4702,1.8607-.7744,2.901-.9995.7872-.1703,1.6124-1.5896,1.0693-2.7963l-1.3952-3.0998" style="fill:none; stroke:#fff; stroke-linecap:round; stroke-linejoin:round;"/><path id="ai" d="M22.2011,38.5467l.1942-.5978,1.1444-.1557,1.1633-2.2829" style="fill:none; stroke:#fff; stroke-linecap:round; stroke-linejoin:round;"/><path id="aj" d="M19.8804,40.6551l.2777.6395c.5422,1.2487,2.0657,1.4042,2.6318.861.4266.0553.7315-.4126.5189-.8496l-.5868-1.4619" style="fill:none; stroke:#fff; stroke-linecap:round; stroke-linejoin:round;"/><path id="ak" d="M17.3862,30.9844l-.2427,2.4557c-.1988,2.0118,1.0809,3.5896,1.6998,6.3492l.553-.2494" style="fill:none; stroke:#fff; stroke-linecap:round; stroke-linejoin:round;"/></g></g><g id="al"><path id="am" d="M4.5,15.0905l39,.3809" style="fill:none; stroke:#fff; stroke-linecap:round; stroke-linejoin:round;"/><path id="an" d="M26.0483,6.5496l.1681,29.9805" style="fill:none; stroke:#fff; stroke-linecap:round; stroke-linejoin:round;"/></g></svg>