<?xml version="1.0" encoding="UTF-8"?><svg id="b" xmlns="http://www.w3.org/2000/svg" viewBox="0 0 48 48"><defs><style>.ay{fill:#fff;}.az{fill:none;stroke:#fff;stroke-linecap:round;stroke-linejoin:round;}</style></defs><path id="c" class="az" d="M9.2308,11.8701c-.7751,1.1673-1.0279,3.4122-1.3438,5.092-.262,1.3932-.418,3.6222-.4531,5.7836-.0731,4.5011.9145,9.8555,1.9548,15.2112"/><path id="d" class="az" d="M9.4915,38.2219c.2972-3.1251.5944-6.2501.8552-6.6302.2607-.3802.485,1.9845.7092,4.3493"/><path id="e" class="az" d="M12.1479,24.095c.887-.2672,1.7609-.5304,2.7577-.5769.9968-.0465,2.0858.1251,3.1911.2993"/><path id="f" class="az" d="M13.7756,24.0546c.0647.6637.1293,1.3274.2364,1.9033.1071.5759.2566,1.0639.4345,1.4406.1778.3768.384.6422.557.8131.173.1708.3129.247.4791.2778.1662.0307.3586.016.5595.011.2008-.005.4101-.0004.677-.042.2669-.0416.5915-.1294.8187-.2657.2272-.1363.3569-.3211.4573-.5485s.1715-.4971.2138-.7579c.0423-.2608.0558-.5127.0599-.7958.004-.2831-.0014-.5973-.0243-.9398-.0229-.3426-.0633-.7135-.1038-1.0843"/><path id="g" class="az" d="M18.2627,23.5194c-.1576-.6442-.3282-1.3271-.4454-2.0825-.1172-.7555-.194-1.6222-.2095-2.6194-.0155-.9973.0304-2.125.1294-2.043.099.082.2512,1.3737.4688,2.3416.2176.968.5005,1.6121.8218,2.1821.3213.57.681,1.0658,1.0306,1.4972.3496.4314.6891.7984,1.1256,1.1615.4365.3631.97.7223,1.4449.9877.4749.2655.8912.4373,1.3075.609"/><path id="h" class="az" d="M11.412,23.7451c.3087-1.0601.6173-2.1202,1.0717-3.2824.4544-1.1623,1.0546-2.4266,1.4032-2.3162.3487.1104.4458,1.5956.7859,2.6999.3401,1.1043.9231,1.8276,1.5061,2.5508"/><path id="i" class="az" d="M15.0473,21.7408c-.3887-1.1926-.7773-2.3852-.9517-3.898-.1743-1.5129-.1343-3.3459-.0943-5.179"/><path id="j" class="az" d="M11.7871,30.7659c-.0889.8199-.1778,1.6397-.2587,2.4908-.0808.8511-.1536,1.7334-.2263,2.6158"/><path id="k" class="az" d="M11.2406,19.8029c.0101,3.0633.0202,6.1266.0869,7.8383.0667,1.7117.1901,2.0718.1071,2.3756-.083.3038-.3723.5515,1.1559,1.1076,1.5282.5561,4.8738,1.4206,8.2612,1.4071s6.8166-.9049,10.2458-1.7964"/><path id="l" class="az" d="M21.5634,19.8029c.2172.9717.4344,1.9435.8402,2.8904.4058.9469,1.0003,1.869,1.5947,2.791"/><path id="m" class="az" d="M22.0607,21.7408c.5259.7564.8969,1.0336,1.8227,1.5191"/><path id="n" class="az" d="M23.7583,18.1299c-.1267,1.0229-.0063,1.3081.0219,2.0651.0312.8361.3404,2.0504.5565,2.5932"/><path id="o" class="az" d="M23.8007,19.7017c.2794.565.6751,1.0908,1.0293,1.5477.3706.4782.7002.9717,1.0717,1.4355"/><path id="p" class="az" d="M23.9487,23.4222c.383-.0994,1.0214-.29,1.3186-.3535.2972-.0635.5087-.0911.7745-.1187.2658-.0276.5859-.0552.8831-.0718.2972-.0166.5716-.0221.8974-.0166.3258.0054.703.0221,1.046.0442.343.0221.6516.0497.9868.1069.3352.0572.697.1439,1.0588.2306"/><path id="q" class="az" d="M25.1815,13.0614c.1715.7067.3429,1.4134.4887,2.0705.1458.657.2658,1.2644.3801,1.9821.1143.7178.2229,1.5459.2887,2.1892.0657.6432.0886,1.1015.08,1.6592-.0086.5577-.0486,1.2147-.0886,1.8717"/><path id="r" class="az" d="M26.0947,16.465c1.0508,1.0268,2.1017,2.0536,3.0192,3.3791.5559.8032,1.0629,1.716,1.5506,2.672.3171.6217.5166,1.2982.8256,1.9382"/><path id="s" class="az" d="M31.4575,19.6207c.08,3.1251.16,6.2501.0343,8.685-.1258,2.4349-.4573,4.1796-.8145,5.5075-.3572,1.3279-.7402,2.2389-1.1232,3.1499"/><path id="t" class="az" d="M25.2158,23.4966c.0629.7178.1257,1.4355.1943,2.0401.0686.6046.1429,1.096.2572,1.4328.1143.3368.2686.519.4115.635s.2744.1656.603.2209c.3287.0552.8545.1159,1.2746.1104.4201-.0054.7345-.0773.946-.1684.2115-.0911.3201-.2015.4201-.3175.1-.116.1915-.2374.3058-.5328.1143-.2954.2515-.7647.2972-1.4107.0457-.646,0-1.4687-.0457-2.2913"/><path id="u" class="az" d="M29.611,36.8915c.873-.5388,1.746-1.0775,2.4836-1.9697s1.3398-2.1375,1.942-3.3829"/><path id="v" class="az" d="M33.77,32.0308c-.0242.6208-.0485,1.2415-.1173,1.8957-.0688.6542-.1823,1.3419.1961.3379.3784-1.004,1.2485-3.6994,1.6922-6.5269.4437-2.8275.4608-5.7868.3979-7.7359-.0629-1.9491-.2058-2.8877-.4173-3.8208s-.4916-1.8607-.7716-2.7882"/><path id="w" class="az" d="M36.2246,23.1156c.3201-.1436.6402-.2871.9746-.2816.3344.0054.683.1601.8988.6557.2158.4955.2987,1.332.1986,2.1036s-.383,1.4783-.8331,1.9739c-.4501.4955-1.0674.7799-1.6847,1.0642"/><path id="x" class="az" d="M36.1217,24.1675c.2744.1408.5487.2816.7452.5311.1965.2495.3698.4982.4355.8336.0657.3354.2702,1.3962.2831,1.7089"/><path id="y" class="az" d="M35.7451,26.4899c.1315-.2429.5366-.6136.7053-.7986.1686-.185.3744-.312.5802-.4389"/><path id="z" class="az" d="M31.1094,5.5957c1.389.7746,4.9518,2.9863,6.789,6.073,1.5946,2.679,1.9978,5.2917,2.4584,7.6876.3093,1.6088.6626,4.6803.855,5.5189.1618.7051.9944,9.6256,1.2882,10.6197"/><path id="aa" class="az" d="M35.7221,28.7513c.639.755.9549,3.0872,1.1307,4.0937.2083,1.1925.2045,2.4028.3673,4.0623"/><path id="ab" class="az" d="M19.0985,32.7687c.1455.5466.291,1.0932.8569,2.282.5659,1.1888,1.552,3.0198,2.1179,4.0193.5658.9995.7113,1.1673.8508,1.019.1394-.1484.2728-.6129.9821-2.0126s1.9946-3.7343,3.2798-6.069"/><path id="ac" class="az" d="M22.7967,39.8781c.0242.7379.0485,1.4758.1111,2.0848.0627.6091-.014-.1989.0871.2813"/><path id="ad" class="az" d="M18.4438,36.0247c-.6838,1.3861-1.3676,2.7723-1.8991,3.7659-.5315.9936-1.1388,1.987-1.5179,2.5881"/><path id="ae" class="az" d="M27.7801,35.5094c.6719,1.5498,1.3439,3.0995,1.8612,4.1732.5173,1.0736,1.1629,2.0908,1.5257,2.6884"/><path id="af" class="az" d="M18.8884,32.7558c-2.8236,2.065-5.6473,4.1299-8.4709,6.1949"/><path id="ag" class="az" d="M27.3421,32.3252c.9888.5632,1.9777,1.1263,2.9665,1.6895"/><path id="ah" class="az" d="M32.3321,35.1079c.623.3258,1.2461.6515,1.972.9248.7259.2733,2.4321,1.0232,3.2609,1.244"/><path id="ai" class="az" d="M15.8854,40.7449c-.4446.2733-1.3431,1.3375-1.7876,1.6108"/><path id="aj" class="az" d="M29.7204,39.7346l2.7349,2.6858"/><path id="ak" class="az" d="M21.7006,32.5239c.2629.5853.5259,1.1705.8145,1.1595.2887-.011.603-.6184.9174-1.2257"/><path id="al" class="az" d="M20.0373,33.1368c.2744.2374.5487.4748.8374.5687.2887.0939.5916.0442.8945-.0054"/><path id="am" class="az" d="M23.3639,33.6337c.543-.0054,1.086-.011,1.4918-.2374.4058-.2264.6745-.6736.9431-1.1208"/><path id="an" class="az" d="M22.5151,34.8815c-.2829.0276-.4887.4417-.4515.9883.0372.5466.3172,1.2257.6002,1.1981.2829-.0276.5687-.7619.5316-1.3085-.0372-.5466-.3972-.9055-.6802-.8779Z"/><path id="ao" class="az" d="M16.0573,9.1607c1.1889.5687,2.3778,1.1374,3.7753,1.0518,1.3976-.0856,3.0037-.8254,4.6098-1.5653"/><path id="ap" class="az" d="M10.3677,38.9862c-.4322.314-.8645.6279-1.0064.9225s.0064.5699.2269.986c.2204.4161.5129.9731.8053,1.53"/><path id="aq" class="az" d="M37.1543,37.143c.4106.1005.8211.2009.7199,1.0845-.1012.8835-.714,2.5501-1.3269,4.2167"/><path id="ar" class="az" d="M37.9579,39.7975c.2615.5018.5231,1.0036.4516,1.443-.0715.4395-.4759.8166-.8804,1.1937"/><path id="as" class="az" d="M39.3276,41.3271c-.0031.298-.0061.5961-.0091.8941"/><path id="at" class="az" d="M19.7757,6.3655c-.3041-.2524-.6082-.5048-.9124-.7573"/><path id="au" class="az" d="M20.8614,6.4203c.371-.3072.6506-.5934,1.0216-.9006"/><path id="av" class="az" d="M5.5247,13.2082c.6082-1.4354,1.2165-2.8709,2.1349-4.1178.9185-1.2469,2.1471-2.3052,3.3757-3.3635"/><path id="aw" class="az" d="M5.5247,28.4993c.1338-.7877.2676-1.5753.4014-2.363"/><circle class="ay" cx="26.2875" cy="7.7901" r=".75"/><rect id="ax" class="az" x="5.5" y="5.5" width="37" height="37" rx="4" ry="4"/></svg>