<?xml version="1.0" encoding="UTF-8"?><svg id="a" xmlns="http://www.w3.org/2000/svg" viewBox="0 0 48 48"><defs><style>.d{fill:none;stroke:#fff;stroke-linecap:round;stroke-linejoin:round;}</style></defs><path class="d" d="m27.425 8.4798h7.9535l-7.9535 11.98h7.9535"/><path class="d" d="m20.165 14.47c1.6576 0 3.0013 1.3409 3.0013 2.9951s-1.3437 2.9951-3.0013 2.9951h-4.9522v-11.98h4.9522c1.6576 0 3.0013 1.3409 3.0013 2.9951s-1.3437 2.9951-3.0013 2.9951z"/><path class="d" d="m20.165 14.47h-4.9522"/><path class="d" d="m15.003 35.5v-11.98h3.9302c2.222 0 4.0233 1.8014 4.0233 4.0235s-1.8012 4.0235-4.0233 4.0235h-3.9302"/><path class="d" d="m40.694 35.535-3.197-7.937"/><path class="d" d="m43.499 27.598-3.8111 10.781c-.25406.71868-.93461 1.1992-1.6983 1.1992h-.49327"/><path class="d" d="m33.222 32.54c0 1.6542-1.3335 2.9951-2.9785 2.9951h-1.0454c-1.0898 0-1.9732-.88835-1.9732-1.9843 0-1.0959.88344-1.9843 1.9732-1.9843h4.0294"/><path class="d" d="m27.975 28.384c.72332-.72287 1.2301-.78622 2.6262-.78622 1.5848 0 2.6262.69561 2.6262 2.5759v5.3611"/><path class="d" d="m4.5 8.5v11.98"/><path class="d" d="m4.5 16.307 6.4528-7.7672"/><path class="d" d="m10.953 20.48-4.943-5.9902"/><path class="d" d="m4.5 35.5h4.5l-4.5-4.5z"/><path class="d" d="m43.5 8.5h-4.5l4.5 4.5z"/></svg>
