<?xml version="1.0" encoding="UTF-8"?><svg id="b" xmlns="http://www.w3.org/2000/svg" viewBox="0 0 48 48"><defs><style>.c{fill:none;stroke:#fff;stroke-linecap:round;stroke-linejoin:round;}</style></defs><path class="c" d="M6.678,9.7223c-.8707-2.3358,2.104-3.6112,4.0445-3.7034,1.1959-.0529,3.3225-.2027,4.7259-.333,3.1243-.29,21.0128-.2238,21.9062.0811,1.1534.309,3.068,4.3004.8284,4.3004-1.8543-.465-20.4337-.0553-23.3017.5138-1.0915.2166-2.6862.5388-3.5437.716-2.9307.7143-3.7701.5478-4.6596-1.5749h0Z"/><path class="c" d="M32.4011,36.0263c-3.1515-4.384-6.1823-9.0835-9.8287-12.3687-1.5263,1.5263-6.1102,9.2174-6.8535,11.8193,4.0248-.1596,11.4116-.649,16.6825.5494h-.0003Z"/><path class="c" d="M13.3352,40.2159l-.8412.9214c-1.1158.8472-3.0757,1.1732-4.5586.6057-1.6071-.9278-.2317-3.2511.9362-5.2739,1.9629-3.3998,7.4982-13.6091,10.4248-16.7246-1.9529-2.0988-3.9574-3.5121-5.8376-5.4168-.8286-.8286,1.1477-3.5388,2.3074-3.826,1.0926-.2053,1.7838.2809,4.5568,3.2054,1.947,2.0533,2.0329,2.108,2.5615,1.6295.8629-.8629,1.2975.2039.9262,1.5896,1.2952-1.4571,1.736-1.1313,2.4098-.4988.4.3755.163,1.8877-.2336,2.987,2.5619,2.5619,10.9249,13.0628,15.3168,20.6709.3946,1.0607.0657,2.0187-.46,2.2572-.603.2734-1.2089.155-1.7242-.0803-8.1246-2.7943-18.916-2.2545-25.7847-2.0459l.0004-.0002Z"/></svg>