<?xml version="1.0" encoding="UTF-8" standalone="no"?>
<!-- Created with Inkscape (http://www.inkscape.org/) -->

<svg
   width="48"
   height="48"
   viewBox="0 0 12.7 12.7"
   version="1.1"
   id="svg1"
   xml:space="preserve"
   xmlns="http://www.w3.org/2000/svg"
   xmlns:svg="http://www.w3.org/2000/svg"><defs
     id="defs1"><style
       id="style1">.a{fill:none;stroke:#fff;stroke-linecap:round;stroke-linejoin:round;}</style></defs><g
     id="layer5"><g
       id="g5"
       transform="matrix(1.3733119,0,0,1.3733119,0.45574426,-1.8635434)"
       style="display:inline;stroke:#ffffff;stroke-opacity:1"><path
         style="fill:none;stroke:#ffffff;stroke-width:0.264583;stroke-linecap:round;stroke-linejoin:round;stroke-dasharray:none;stroke-opacity:1"
         d="M 1.2725354,3.30683 0.3971005,4.8231277 c 0,0 0.8348914,0.4820246 1.1238829,0.6488739 0.2889915,0.1668493 0.4744567,0.2577165 0.6100664,0.3522221 0.1356097,0.094506 0.1369112,0.3507138 0,0.449608 -0.1369112,0.098894 -0.3496889,0.2018931 -0.6387189,0.3687646 -0.28903,0.1668715 -1.095461,0.6324645 -1.095461,0.6324645 l 0.8428053,1.4597817 c 0,0 1.0366016,-0.4935655 1.4366817,-0.8294682 0.4000801,-0.3359027 0.7804165,-0.6706704 0.9477345,-1.1307837 0.167318,-0.4601133 0.1301797,-1.0210757 0,-1.4621245 C 3.4939117,4.8714173 3.3070207,4.5856916 2.9197868,4.2233154 2.5325529,3.8609392 1.2725354,3.30683 1.2725354,3.30683 Z"
         id="path2-0" /><path
         style="fill:none;stroke:#ffffff;stroke-width:0.264583;stroke-linecap:round;stroke-linejoin:round;stroke-dasharray:none;stroke-opacity:1"
         d="m 3.4306219,9.9513331 1.7506775,0.02595 c 0,0 0.014287,-0.9639435 0.019233,-1.2976055 0.00495,-0.333662 -0.00604,-0.5398986 0.01044,-0.7043667 0.016479,-0.1644682 0.2396017,-0.2904063 0.3926609,-0.2190086 0.153059,0.071398 0.3466585,0.2070532 0.6331836,0.37819 0.2865251,0.1711368 1.0859668,0.6486305 1.0859668,0.6486305 L 8.1871312,7.3359912 c 0,0 -0.9359895,-0.6648854 -1.4242304,-0.8506699 C 6.2746603,6.2995363 5.7970284,6.130442 5.3136905,6.2084423 4.8303524,6.2864423 4.358532,6.5921278 4.036758,6.9206582 3.7149841,7.2491888 3.5564848,7.5515882 3.4286326,8.0662924 c -0.1278522,0.5147042 0.00199,1.8850407 0.00199,1.8850407 z"
         id="path3-9" /><path
         style="fill:none;stroke:#ffffff;stroke-width:0.264583;stroke-linecap:round;stroke-linejoin:round;stroke-dasharray:none;stroke-opacity:1"
         d="M 8.1084392,4.7166972 7.2278903,3.2033636 c 0,0 -0.8332581,0.4848418 -1.1216848,0.6526657 C 5.8177768,4.0238497 5.6467439,4.139617 5.497332,4.2103095 5.3479205,4.2810029 5.1249598,4.1547783 5.1072032,3.9868216 5.089447,3.8188649 5.1058395,3.5830379 5.1047126,3.2492967 c -0.00113,-0.3337411 -0.00427,-1.264922 -0.00427,-1.264922 l -1.6856018,0.00569 c 0,0 -0.086996,1.1448058 0.0056,1.6589272 0.092596,0.5141214 0.1940225,1.0105465 0.5100977,1.3844396 0.316075,0.3738934 0.8212879,0.6205067 1.2686985,0.7267821 0.4474107,0.1062752 0.7882359,0.086135 1.2951563,-0.069744 0.5069195,-0.155879 1.6140449,-0.9737755 1.6140449,-0.9737749 z"
         id="path4-6" /></g></g></svg>
