<svg xmlns="http://www.w3.org/2000/svg" xml:space="preserve" viewBox="0 0 48 48"><path d="M37.368678 19.310944c.694495 1.35921.494004 2.931279-.515064 3.816956 2.72826 3.636397-3.009075 6.237055-4.413827 5.539496-.770568 1.287447-2.446597 1.345318-3.342429.376207-1.003043 1.819938-4.437851 2.01487-5.395241.234858-2.425532 1.446904-4.764146.380474-5.319787-2.391494-2.233586.672433-5.236982-.129559-4.958512-3.839449-.817238-1.476804-.490681-3.238861.80692-4.09797v0M36.834358 16.50354l.000001.000082M14.592406 16.377677c.470466-.829052 1.314333-1.387588 2.549067-1.413857.449897-2.493282 3.674792-5.3104024 7.64657-3.156489.949579-.892477 3.77821-1.258197 4.873643.05682 1.795345-.648902 3.856288.562047 3.317423 2.198911 1.380444-.499662 3.831709.439916 3.855249 2.440478" style="fill:none;fill-opacity:.990785;stroke:#fff;stroke-width:1;stroke-linecap:round;stroke-linejoin:round;stroke-dashoffset:1.3;stroke-opacity:1"/><path d="M14.230738 18.949556c-.172335-.938939-.04446-1.856204.361668-2.571879M26.477613 18.687287a.7132745.9961815 0 0 1-.713275.996183.7132745.9961815 0 0 1-.713275-.996183.7132745.9961815 0 0 1 .713275-.996179.7132745.9961815 0 0 1 .713275.996179M19.63642 18.687287a.7132745.9961815 0 0 1-.713274.996183.7132745.9961815 0 0 1-.713275-.996183.7132745.9961815 0 0 1 .713275-.996179.7132745.9961815 0 0 1 .713274.996179M20.351489 20.586239c.952001.604352 2.506591.480551 3.184781-.154721" style="fill:none;fill-opacity:.990785;stroke:#fff;stroke-width:1;stroke-linecap:round;stroke-linejoin:round;stroke-dashoffset:1.3;stroke-opacity:1"/><path d="M14.58797 16.385523c5.441206-4.142823 17.440253-3.371817 22.246388.118007.571426.99454.61924 1.871338.534109 2.807009-4.80435-3.932744-16.112713-4.199884-23.137729-.360983M12.153572 12.556106c-.413688 2.248011-.637547 5.321055 1.47392 6.911921" style="fill:none;fill-opacity:.990785;stroke:#fff;stroke-width:1;stroke-linecap:round;stroke-linejoin:round;stroke-dashoffset:1.3;stroke-opacity:1"/><path d="M11.924667 13.915512c-2.0426467-.628371-2.3967198 2.532171-.237363 2.096554M34.535291 28.670925c-.179086.983432-.498587 1.907493-1.172225 2.18486M15.584491 34.295034c-1.741943-.142761-4.163036.554904-4.575793 2.603754-.289194 1.435499 1.603116 2.82076 3.432699 3.120848.539476 2.886493 4.099327 4.234615 7.098237 2.539301 1.036422 1.132736 3.663862 1.27166 5.324683.258497 1.689389.842306 4.51153.586125 5.353216-1.113779 1.671843.0894 3.610452-.216771 4.453842-2.157414.551017-1.267893-.825863-2.479274-2.901191-2.892349-.38081-1.997261-2.690469-2.90781-4.497567-2.759468-1.854551-3.658268-6.138117-2.995081-7.865374-.855681-1.919067-1.29306-4.735426-.255128-5.822752 1.256291" style="fill:none;fill-opacity:.990785;stroke:#fff;stroke-width:1;stroke-linecap:round;stroke-linejoin:round;stroke-dashoffset:1.3;stroke-opacity:1"/><path d="M29.122987 29.305129c-.03026 1.25989-.179539 2.55508-.421481 3.585157M21.002357 30.013809l.684716 2.599428M13.748628 11.132429h1.988569M14.023108 12.101009c0 .427982.453443.546375.826146.538276.372702-.0081.767605-.142881.767605-.592025M13.057101 10.116768a2.3004802 2.3003899 0 0 1-.614669-1.5652656 2.3004802 2.3003899 0 0 1 2.300481-2.3003898 2.3004802 2.3003899 0 0 1 2.30048 2.3003898v0a2.3004802 2.3003899 0 0 1-.61467 1.5652656M11.592216 7.7271577l-.582503-.2579007M12.613271 5.873736l-.368874-.4439114M15.171707 4.4999998l.01806.7144214M17.682045 5.7888872l-.56957.4316442M17.992512 7.9941694l.487494-.1774184M17.674676 20.437442l-.869213-.04359M26.949207 20.510012h.69975" style="fill:none;fill-opacity:.990785;stroke:#fff;stroke-width:1;stroke-linecap:round;stroke-linejoin:round;stroke-dashoffset:1.3;stroke-opacity:1"/></svg>