<svg id="b" version="1.1" viewBox="0 0 48 48" xmlns="http://www.w3.org/2000/svg">
 <defs>
  <style>.d{fill:none;stroke:#fff;stroke-linecap:round;stroke-linejoin:round;}.e{fill:#fff;stroke-width:0px;}</style>
 </defs>
 <path class="d" d="m22.482 13.09v8.582c0 1.3542-1.0874 2.4521-2.4289 2.4521"/>
 <ellipse class="e" cx="17.315" cy="10.933" rx=".74999" ry=".75002"/>
 <ellipse class="e" cx="22.482" cy="10.933" rx=".74999" ry=".75002"/>
 <ellipse class="e" cx="27.65" cy="10.933" rx=".74999" ry=".75002"/>
 <ellipse class="e" cx="32.818" cy="10.933" rx=".74999" ry=".75002"/>
 <ellipse class="e" cx="37.986" cy="10.933" rx=".74999" ry=".75002"/>
 <g>
  <line class="d" x1="17.315" x2="17.315" y1="13.09" y2="19.588"/>
  <line class="d" x1="27.65" x2="27.65" y1="13.09" y2="19.588"/>
  <path class="d" d="m32.818 13.09v8.1731c0 1.3542-1.0874 2.4521-2.4289 2.4521"/>
  <line class="d" x1="37.986" x2="37.986" y1="13.09" y2="19.588"/>
  <line class="d" x1="9.264" x2="9.264" y1="9.877" y2="19.685"/>
  <line class="d" x1="9.2651" x2="13.704" y1="17.601" y2="13.183"/>
  <line class="d" x1="10.678" x2="14.168" y1="16.195" y2="19.67"/>
 </g>
 <path id="c" class="d" d="m38.501 5.4992h-29.001c-2.2001 0-4.0002 1.8001-4.0002 4.0002v29.001c0 2.2001 1.8001 4.0002 4.0002 4.0002h29.001c2.2001 0 4.0002-1.8001 4.0002-4.0002v-29.001c0-2.2001-1.8001-4.0002-4.0002-4.0002z"/>
 <g transform="translate(.8 1.1)" fill="none" stroke="#fff" stroke-linecap="round" stroke-linejoin="round">
  <g transform="matrix(.80001 0 0 .80001 .9999 5.9997)" stroke-width="1.25">
   <line class="t" x1="14.922" x2="11.378" y1="35.85" y2="35.85"/>
   <polyline class="t" transform="translate(-76.684 -10.15)" points="87.184 48.65 89.834 40.65 92.484 48.65"/>
  </g>
  <g>
   <path class="t" d="m15.24 30.4v4.28c0 1.1709 0.94912 2.12 2.12 2.12s2.12-0.94912 2.12-2.12v-4.28"/>
   <line class="t" x1="21.08" x2="25.32" y1="30.4" y2="30.4"/>
   <line class="t" x1="23.2" x2="23.2" y1="36.8" y2="30.4"/>
   <rect class="t" x="26.92" y="30.4" width="4.24" height="6.4" rx="2.12" ry="2.12"/>
   <path class="t" d="m32.887 36.099c0.39248 0.51096 0.88456 0.7012 1.5692 0.7012h0.94752c0.88176 0 1.5966-0.7148 1.5966-1.5966v-0.0069c0-0.88174-0.7148-1.5965-1.5966-1.5965h-1.0452c-0.88272 0-1.5982-0.7156-1.5982-1.5982 0-0.88464 0.71712-1.6018 1.6018-1.6018h0.94232c0.68464 0 1.1767 0.19032 1.5692 0.7012"/>
  </g>
 </g>
 <path d="m8 28.5h32" fill="none" stroke="#fff" stroke-linecap="round" stroke-linejoin="round" stroke-width="1px"/>
</svg>
