<svg xmlns="http://www.w3.org/2000/svg" xml:space="preserve" width="48" height="48" viewBox="0 0 12.7 12.7"><path fill="none" stroke="#fff" stroke-linecap="round" stroke-linejoin="round" stroke-width=".265" d="M4.911 5.26c-.512.016-.974.04-.987-.163-.018-.268.257-.275.45-.336m-2.37-.393c.227 1.355-.007 3.418 2.208 2.862 1.231-.31 2.433-.395 3.62.208-.531-.614-1.029-.93-2.246-.876-1.367.06-1.663.124-1.681-.185-.026-.432 1.02-.36 1.693-.424M8.936 2.46a4.894 4.894 0 0 1 2.309 4.156v0a4.894 4.894 0 1 1-9.242-2.249m2.96-2.244c-.27-.406-.57-.757-.964-.932-.225 1.054-.363 2.084-.059 2.988m3.825-2.058c.27-.405.57-.756.963-.93.225 1.054.363 2.084.059 2.988m-3.155-.283c-.17-.215-.41-.276-.705-.27m2.172.27c.17-.215.41-.276.706-.27M6.049 5.738a.386.386 0 0 1 .308-.154.386.386 0 0 1 .307.153M3.745 4.18c1.097-.012 1.74-.049 2.345 1.668.064.181.054.41.267.41.213 0 .203-.229.267-.41.605-1.717 1.248-1.68 2.345-1.668m.006 0s-.654.468-1.284 1.154L6.644 6.476c-.068.074-.088.092-.287.092-.2 0-.219-.018-.286-.092l-1.048-1.14A9.342 9.342 0 0 0 3.739 4.18m.236-.122a2.39 2.39 0 0 1 4.781 0"/></svg>
