<?xml version="1.0" encoding="UTF-8"?>
<svg id="Layer_1" xmlns="http://www.w3.org/2000/svg" version="1.1" viewBox="0 0 48 48">
  <!-- Generator: Adobe Illustrator 29.0.1, SVG Export Plug-In . SVG Version: 2.1.0 Build 192)  -->
  <defs>
    <style>
      .st0 {
        fill: none;
        stroke: #fff;
        stroke-linecap: round;
        stroke-linejoin: round;
      }
    </style>
  </defs>
  <g>
    <g>
      <line class="st0" x1="34.5" y1="16.2" x2="36.7" y2="22.7"/>
      <path class="st0" d="M35.8,20c-.3-.9.2-1.9,1.1-2.2h0c.9-.3,1.9.2,2.2,1.1l.9,2.7"/>
    </g>
    <line class="st0" x1="17.8" y1="24.4" x2="19.3" y2="28.7"/>
    <path class="st0" d="M26.7,25.7c.4.1.7.1,1.5,0h.4c.6-.3.9-1,.7-1.6h0c-.2-.6-.8-.9-1.4-.7l-.7.3c-.6.2-1.2-.1-1.4-.7h0c-.2-.6.1-1.2.7-1.4h.4c.7-.4,1.1-.4,1.5-.2"/>
    <path class="st0" d="M13.6,23.4l2,5.7c.2.4.6.7,1.1.5h.2"/>
    <path class="st0" d="M34.3,22.6c-.1.6-.5,1.1-1.1,1.3h0c-.9.3-1.9-.2-2.2-1.1l-.4-1.1c-.3-.9.2-1.9,1.1-2.2h0c.6-.2,1.2,0,1.7.3"/>
    <g>
      <path class="st0" d="M21.3,26.2c.3.9,1.3,1.4,2.2,1.1h0c.9-.3,1.4-1.3,1.1-2.2l-.4-1.1c-.3-.9-1.3-1.4-2.2-1.1h0c-.9.3-1.4,1.3-1.1,2.2"/>
      <line class="st0" x1="20.4" y1="23.5" x2="22.6" y2="30"/>
    </g>
    <g>
      <line class="st0" x1="8" y1="25.3" x2="10.3" y2="31.8"/>
      <line class="st0" x1="9.5" y1="29.6" x2="11.5" y2="24.2"/>
      <line class="st0" x1="13.8" y1="30.6" x2="10" y2="28.3"/>
    </g>
  </g>
  <g>
    <line class="st0" x1="16.8" y1="21.8" x2="16.4" y2="22.2"/>
    <line class="st0" x1="18.7" y1="19.9" x2="18.3" y2="20.3"/>
    <line class="st0" x1="16.8" y1="20.3" x2="16.4" y2="19.9"/>
    <line class="st0" x1="18.7" y1="22.2" x2="18.3" y2="21.8"/>
  </g>
</svg>