<svg width="48" height="48" viewBox="0 0 48 48" fill="none" xmlns="http://www.w3.org/2000/svg">
<path d="M26.0001 10.1146C40.7683 13.6526 40.3484 33.7229 27.1911 37.9017C27.1546 37.9133 27.1175 37.9299 27.0844 37.9492C23.4935 40.0466 21.9524 38.5548 19.8302 37.5895C19.7974 37.5745 19.7623 37.5633 19.727 37.5557C8.63523 35.1756 5.43449 14.0623 21.1919 10.3998C21.3275 10.3683 21.4488 10.2812 21.5257 10.1652C22.7424 8.3318 24.9242 8.46637 26.0001 10.1146ZM26.0001 10.1146C27.0281 17.6676 35.1155 18.48 41.2556 17.4386C41.606 17.3791 41.7736 16.9813 41.5723 16.6884C38.2844 11.9049 32.0305 5.01173 26.0001 10.1146ZM19.7806 31.928C22.9506 29.1691 26.02 24.1235 26.02 19.6305C26.02 15.1376 21.5084 15.0333 21.5084 19.6305C21.5084 24.2278 24.9681 29.0148 28.1157 31.928" stroke="white" stroke-linecap="round"/>
</svg>
