<?xml version="1.0" encoding="UTF-8"?><svg id="a" xmlns="http://www.w3.org/2000/svg" viewBox="0 0 48 48"><defs><style>.r{fill:none;stroke:#fff;stroke-linecap:round;stroke-linejoin:round;}</style></defs><g id="b"><path id="c" class="r" d="M24.0009,14.0643c-1.4008.0037-2.6531.8743-3.1449,2.1861h-11.4894c-.5387,0-.9723.4337-.9723.9725v20.1728c0,.5387.4337.9725.9723.9725h2.6948l-1.0198,2.83c-.1819.5045.0789,1.0611.583,1.2441.5049.1828,1.0624-.0784,1.2452-.5834.0002-.0005.0004-.0011.0006-.0016l1.2591-3.4891h19.7409l1.2591,3.4891c.1819.5053.7389.7675,1.2442.5856.0005-.0002.0011-.0004.0016-.0006.5041-.1829.7649-.7395.583-1.2441l-1.0198-2.83h2.6948c.5387,0,.9723-.4337.9723-.9725v-20.1728c0-.5387-.4337-.9725-.9723-.9725h-11.4799c-.4927-1.3145-1.7488-2.1856-3.1525-2.1861Z"/><g id="d"><path id="e" class="r" d="M16.8106,5.4994l6.4245,8.6648"/><path id="f" class="r" d="M31.1894,5.4994l-6.4229,8.6627"/></g><g id="g"><path id="h" class="r" d="M12.7209,19.1524h16.1335c1.0773,0,1.9447.8674,1.9447,1.9449v12.1658c0,1.0775-.8673,1.9449-1.9447,1.9449H12.7209c-1.0773,0-1.9447-.8674-1.9447-1.9449v-12.1658c0-1.0775.8673-1.9449,1.9447-1.9449Z"/><g id="i"><path id="j" class="r" d="M36.6344,33.1285c0,.7639-.6192,1.3831-1.3829,1.3831h0c-.7638,0-1.3829-.6192-1.3829-1.3831h0c0-.7639.6192-1.3831,1.3829-1.3831h0c.7638,0,1.3829.6192,1.3829,1.3831h0Z"/><path id="k" class="r" d="M35.2514,30.6026v1.143"/></g><g id="l"><path id="m" class="r" d="M33.421,19.6538h3.6608"/><path id="n" class="r" d="M33.421,28.0898h3.6608"/><path id="o" class="r" d="M33.421,21.7628h3.6608"/><path id="p" class="r" d="M33.421,23.8718h3.6608"/><path id="q" class="r" d="M33.421,25.9808h3.6608"/></g></g></g></svg>