<?xml version="1.0" encoding="UTF-8" standalone="no"?>
<svg
   id="a"
   viewBox="0 0 48 48"
   version="1.1"
   sodipodi:docname="kpn_fresh.svg"
   inkscape:version="1.4.4 (dcaf3e7, 2026-05-05)"
   xmlns:inkscape="http://www.inkscape.org/namespaces/inkscape"
   xmlns:sodipodi="http://sodipodi.sourceforge.net/DTD/sodipodi-0.dtd"
   xmlns="http://www.w3.org/2000/svg"
   xmlns:svg="http://www.w3.org/2000/svg">
  <sodipodi:namedview
     id="namedview1"
     pagecolor="#000000"
     bordercolor="#000000"
     borderopacity="0.25"
     inkscape:showpageshadow="2"
     inkscape:pageopacity="0.0"
     inkscape:pagecheckerboard="0"
     inkscape:deskcolor="#d1d1d1"
     inkscape:zoom="9.5164788"
     inkscape:cx="24.483846"
     inkscape:cy="9.877603"
     inkscape:window-width="1536"
     inkscape:window-height="890"
     inkscape:window-x="-6"
     inkscape:window-y="-6"
     inkscape:window-maximized="1"
     inkscape:current-layer="g8" />
  <defs
     id="defs1">
    <style
       id="style1">.h{fill:none;stroke:#fff;stroke-linecap:round;stroke-linejoin:round;}</style>
    <clipPath
       clipPathUnits="userSpaceOnUse"
       id="clipPath5">
      <g
         inkscape:label="Clip"
         id="use5"
         style="stroke-width:1.27158">
        <path
           style="fill:#ffffff;stroke:#ffffff;stroke-width:1.27158;stroke-linecap:square;stroke-dasharray:none"
           d="m 18,10 h 2 v 4 h 4 v 2 h -4 v 4 h -2 v -4 h -4 v -2 h 4 z"
           id="path1"
           sodipodi:nodetypes="ccccccccccccc" />
      </g>
    </clipPath>
  </defs>
  <g
     id="b">
    <rect
       id="c"
       class="h"
       x="5.5"
       y="5.5"
       width="37"
       height="37"
       rx="4"
       ry="4" />
    <g
       id="g3"
       transform="matrix(0.91430453,0,0,0.90084067,2.1737331,1.0913352)"
       style="stroke-width:1.10187;stroke-dasharray:none" />
    <g
       id="g11">
      <a
         id="a7"
         transform="translate(-6.8428413,6.5150152)">
        <line
           class="r"
           x1="19.499998"
           y1="6.7066994"
           x2="19.499998"
           y2="14.706699"
           id="line249"
           style="fill:none;stroke:#ffffff;stroke-linecap:round;stroke-linejoin:round" />
        <line
           class="r"
           x1="19.499998"
           y1="11.920231"
           x2="23.800001"
           y2="6.7335892"
           id="line250"
           style="fill:none;stroke:#ffffff;stroke-linecap:round;stroke-linejoin:round" />
        <line
           class="r"
           x1="23.800001"
           y1="14.706699"
           x2="20.506071"
           y2="10.706699"
           id="line251"
           style="fill:none;stroke:#ffffff;stroke-linecap:round;stroke-linejoin:round" />
      </a>
      <path
         class="r"
         d="m 21.112703,21.221715 v -8 h 2.61904 c 1.48065,0 2.68096,1.202894 2.68096,2.68674 0,1.483845 -1.20031,2.68674 -2.68096,2.68674 h -2.61904"
         id="path16"
         style="fill:none;stroke:#ffffff;stroke-linecap:round;stroke-linejoin:round" />
      <polyline
         class="r"
         points="217.20430529 48.65004656 217.20430529 40.65004656 222.50430529 48.65004656 222.50430529 40.65004656"
         id="polyline25"
         style="fill:none;stroke:#ffffff;stroke-linecap:round;stroke-linejoin:round"
         transform="translate(-186.63606,-27.428332)" />
    </g>
    <g
       id="g7"
       transform="translate(0,-0.92609054)">
      <path
         class="r"
         d="m 13.167352,32.662818 v -6.600002 c 0,-0.773199 0.6268,-1.4 1.4,-1.4 v 0 c 0.68904,0 1.11916,0.204005 1.41418,0.585753"
         id="path94"
         style="fill:none;stroke:#ffffff;stroke-linecap:round;stroke-linejoin:round" />
      <line
         class="r"
         x1="11.981524"
         y1="27.362818"
         x2="14.781527"
         y2="27.362818"
         id="line94"
         style="fill:none;stroke:#ffffff;stroke-linecap:round;stroke-linejoin:round" />
    </g>
    <g
       id="g8"
       transform="translate(-0.45410869,-1.1279385)">
      <line
         class="r"
         x1="17.483824"
         y1="27.564661"
         x2="17.483824"
         y2="32.864666"
         id="line41"
         style="fill:none;stroke:#ffffff;stroke-linecap:round;stroke-linejoin:round" />
      <path
         class="b"
         d="m 20.194871,27.302303 c -0.90455,-0.365283 -2.275335,0.35095 -2.092601,1.541042 0.90455,0.364919 2.275297,-0.351088 2.092601,-1.541042 z"
         id="path6"
         style="fill:none;stroke:#ffffff;stroke-width:0.999999;stroke-linecap:round;stroke-linejoin:round" />
    </g>
    <path
       class="r"
       d="m 24.656314,30.727443 c -0.34447,0.602918 -0.99366,1.009285 -1.73777,1.009285 h -10e-6 c -1.10457,0 -1.99999,-0.89543 -1.99999,-1.999998 v -1.300004 c 0,-1.104568 0.89542,-1.999998 1.99999,-1.999998 h 10e-6 c 1.10457,0 2,0.89543 2,1.999998 v 0.650002 c 0,0 -4,0 -4,0"
       id="path77"
       style="fill:none;stroke:#ffffff;stroke-linecap:round;stroke-linejoin:round" />
    <path
       class="r"
       d="m 26.51303,31.28957 c 0.36517,0.306646 0.75944,0.447158 1.64487,0.447158 h 0.44869 c 0.7302,0 1.32215,-0.593222 1.32215,-1.324998 v -3e-6 c 0,-0.731777 -0.59195,-1.324999 -1.32215,-1.324999 H 27.7092 c -0.7302,0 -1.32215,-0.593222 -1.32215,-1.324999 v -2e-6 c 0,-0.731777 0.59195,-1.324999 1.32215,-1.324999 h 0.4487 c 0.88542,0 1.27969,0.140513 1.64486,0.447158"
       id="path52"
       style="fill:none;stroke:#ffffff;stroke-linecap:round;stroke-linejoin:round" />
    <g
       id="g9"
       transform="translate(-1.7863751,-0.48845414)">
      <g
         id="g10">
        <line
           class="r"
           x1="33.18362"
           y1="24.225176"
           x2="33.18362"
           y2="32.225182"
           id="line39"
           style="fill:none;stroke:#ffffff;stroke-linecap:round;stroke-linejoin:round" />
        <path
           class="r"
           d="m 33.183628,28.925177 c 0,-1.104568 0.89542,-1.999998 1.99999,-1.999998 h 10e-6 c 1.10457,0 2,0.89543 2,1.999998 v 3.300002"
           id="path40"
           style="fill:none;stroke:#ffffff;stroke-linecap:round;stroke-linejoin:round" />
      </g>
    </g>
  </g>
</svg>
