<svg xmlns="http://www.w3.org/2000/svg" xml:space="preserve" viewBox="0 0 48 48"><path d="m21.545 21.026-2.047 4.907c-.959 2.296.232 5.015 4.92 2.296 3.815-2.214 8.188-9.903 6.256-15.364-1.263-3.57-4.554-4.726-8.172-4.956-6.654-.422-11.95 2.615-14.85 5.834C2.131 19.87-.06 30.63 8.5 37.146c5.275 4.015 15.928 3.944 21.491 0C38.17 31.349 40.5 24.662 43.162 16.95l2.054 6.537M23.615 16.065l-2.034 4.875M43.162 16.95l-5.913 3.75" style="fill:none;stroke:#fff;stroke-width:1;stroke-linecap:round;stroke-linejoin:round;stroke-dashoffset:1.3"/><path d="M18.87 15.776c-3.507-.501-6.112 3.126-7.396 5.645-1.783 3.498-2.004 7.178.746 7.548 2.169.291 3.91-.156 7.1-4.046.405-.494 1.253-1.567 2.237-3.924.971-2.014-.255-4.875-2.687-5.223" style="fill:none;stroke:#fff;stroke-width:1;stroke-linecap:round;stroke-linejoin:round;stroke-dashoffset:1.3"/></svg>