<svg xmlns="http://www.w3.org/2000/svg" xml:space="preserve" viewBox="0 0 48 48"><path d="M9.5 5.5h29c2.216 0 4 1.784 4 4v29c0 2.216-1.784 4-4 4h-29c-2.216 0-4-1.784-4-4v-29c0-2.216 1.784-4 4-4" style="fill:none;stroke:#fff;stroke-linecap:round;stroke-linejoin:round"/><path d="M42.398 21.665a10.04 10.04 0 0 0-8.533-4.737h0v0c-5.539 0-10.029 4.468-10.03 9.98.009.649.08 1.295.214 1.93a2.85 2.85 0 0 0-1.069 2.217 2.85 2.85 0 0 0 3.653 2.734 10.05 10.05 0 0 0 7.232 3.1c3.5 0 6.743-1.817 8.562-4.784M33.745 16.696c.563-1.789 2.551-3.058 4.848-3.058 1.45 0 2.827.512 3.775 1.398" style="fill:none;stroke:#fff;stroke-linecap:round;stroke-linejoin:round"/><path d="M24.049 28.838c4.392-.946 10.125-3.672 12.465-7.463 1.223 1.857 4.273 3.793 5.654 3.827M40.536 27.961a1.094 1.094 0 0 1-1.094 1.094 1.094 1.094 0 0 1-1.094-1.094 1.094 1.094 0 0 1 1.094-1.094 1.094 1.094 0 0 1 1.094 1.094M30.245 29.218a1.094 1.094 0 0 1-1.094 1.094 1.094 1.094 0 0 1-1.094-1.094 1.094 1.094 0 0 1 1.094-1.095 1.094 1.094 0 0 1 1.094 1.095M38.755 27.11l-.43-.495M28.521 28.323l-.43-.495M36.297 31.94c.722-.111.865.495.78.851-.17.72-.796 1.407-2.269 1.522-1.472.115-2.241-.64-2.38-1.209-.057-.235.008-.566.772-.684zM41.096 34.022c.313 3.393-1.69 5.416-3.633 5.98-.835.242-3.34.593-3.908-.531l-1.299-2.566M41.344 34.448l.808.043M32.878 38.158c-2.648.421-5.867 2.092-6.183 4.032M5.69 23.31c6.924 1.808 12.779 6.456 16.318 12.348.29.485.811.683 1.349.683h3.788M7.319 21.055q.135-1.262.46-2.555c1.797-7.09 7.359-11.917 12.425-10.781 3.662.821 6.063 4.534 6.433 9.208" style="fill:none;stroke:#fff;stroke-linecap:round;stroke-linejoin:round"/><path d="M9.574 21.853a6.739 10.06 17.17 0 1 .491-2.85 6.739 10.06 17.17 0 1 9.243-8.138 6.739 10.06 17.17 0 1 4.382 8.391M20.86 26.908a6.739 10.06 17.17 0 1-1.852 1.913M30.511 15.427c-.628-1.775-1.569-3.711-3.397-5.161-1.648-1.307-5.705-2.336-7.63-2.669" style="fill:none;stroke:#fff;stroke-linecap:round;stroke-linejoin:round"/><path d="M17.5 20.14a2 2 0 0 1-.765 3.926l-3.239-.63 1.528-7.853 3.24.63a2 2 0 0 1-.765 3.926M17.5 20.14l-3.24-.63M15.686 24.88l1.91-9.816" style="fill:none;stroke:#fff;stroke-linecap:round;stroke-linejoin:round"/></svg>