<svg xmlns="http://www.w3.org/2000/svg" viewBox="0 0 48 48"><path d="M9.5 5.5h29c2.216 0 4 1.784 4 4v29c0 2.216-1.784 4-4 4h-29c-2.216 0-4-1.784-4-4v-29c0-2.216 1.784-4 4-4" style="fill:none;stroke:#fff;stroke-width:1;stroke-linecap:round;stroke-linejoin:round"/><path d="M17.078 28.699C22.61 23.676 24 17.196 24.016 8.343c.016 8.853 1.405 15.333 6.937 20.356" style="fill:none;stroke:#fff;stroke-width:1;stroke-linecap:round;stroke-linejoin:round"/><path d="M24 8.343c-6.302 0-11.411 5.11-11.411 11.412S17.698 31.166 24 31.166s11.411-5.11 11.411-11.411c0-6.303-5.109-11.412-11.411-11.412" style="fill:none;stroke:#fff;stroke-width:1;stroke-linecap:round;stroke-linejoin:round"/><path d="M18.385 9.91c0 5.54.755 9.023 3.625 11.319" style="fill:none;stroke:#fff;stroke-width:1;stroke-linecap:round;stroke-linejoin:round"/><path d="M18.395 9.91c0 6.549-1.054 10.222-5.408 12.458M29.615 9.91c0 5.54-.755 9.023-3.625 11.319" style="fill:none;stroke:#fff;stroke-width:1;stroke-linecap:round;stroke-linejoin:round"/><path d="M29.605 9.91c0 6.549 1.054 10.222 5.408 12.458M23.995 33.798v5.853M26.099 33.798h3.797L26.1 39.65h3.797M20.463 36.725c.792 0 1.433.655 1.433 1.463s-.641 1.463-1.433 1.463H18.1v-5.853h2.364c.792 0 1.433.655 1.433 1.463s-.641 1.464-1.433 1.464M20.463 36.725H18.1" style="fill:none;stroke:#fff;stroke-width:1;stroke-linecap:round;stroke-linejoin:round"/></svg>