<svg xmlns="http://www.w3.org/2000/svg" xml:space="preserve" viewBox="0 0 48 48"><path d="M9.5 5.5h29c2.216 0 4 1.784 4 4v29c0 2.216-1.784 4-4 4h-29c-2.216 0-4-1.784-4-4v-29c0-2.216 1.784-4 4-4" style="fill:none;stroke:#fff;stroke-linecap:round;stroke-linejoin:round;stroke-dashoffset:1.3;stroke-opacity:1"/><path d="M33.246 27.672A9.246 9.246 0 0 1 24 36.918a9.246 9.246 0 0 1-9.246-9.246A9.246 9.246 0 0 1 24 18.426a9.246 9.246 0 0 1 9.246 9.246M32.127 5.52A9.25 9.25 0 0 1 24 10.358a9.25 9.25 0 0 1-8.127-4.836M31.262 14.632H42.5M20.738 14.632h6.524M5.5 14.632h11.238M18.891 8.914l-.298 11.153M29.109 8.914l.298 11.153" style="fill:none;stroke:#fff;stroke-linecap:round;stroke-linejoin:round;stroke-dashoffset:1.3;stroke-opacity:1"/><path d="m30.228 27.991-2.93-1.62c-.852-.473-1.457-1.522-1.179-2.357.233-.698 1.257-1.126 1.96-.952.793.195 1.517 1.135 1.478 1.981-.148 3.269-3.562 7.451-5.557 8.203-1.995-.752-5.409-4.934-5.557-8.203-.039-.846.685-1.786 1.477-1.981.704-.174 1.728.254 1.96.952.28.835-.326 1.884-1.179 2.356l-2.93 1.621" style="fill:none;stroke:#fff;stroke-linecap:round;stroke-linejoin:round;stroke-dashoffset:1.3;stroke-opacity:1"/><path d="M21.24 30.959c1.801-1.795 2.94-3.648 1.546-4.25h2.428c-1.395.602-.255 2.455 1.545 4.25" style="fill:none;stroke:#fff;stroke-linecap:round;stroke-linejoin:round;stroke-dashoffset:1.3;stroke-opacity:1"/></svg>