<?xml version="1.0" encoding="UTF-8" standalone="no"?>
<svg
   id="Layer_1"
   data-name="Layer 1"
   version="1.1"
   viewBox="0 0 48 48"
   sodipodi:docname="ktw_store.svg"
   inkscape:version="1.3.2 (091e20ef0f, 2023-11-25)"
   xml:space="preserve"
   xmlns:inkscape="http://www.inkscape.org/namespaces/inkscape"
   xmlns:sodipodi="http://sodipodi.sourceforge.net/DTD/sodipodi-0.dtd"
   xmlns="http://www.w3.org/2000/svg"
   xmlns:svg="http://www.w3.org/2000/svg"><sodipodi:namedview
     id="namedview1"
     pagecolor="#242424"
     bordercolor="#000000"
     borderopacity="0.25"
     inkscape:showpageshadow="2"
     inkscape:pageopacity="0.0"
     inkscape:pagecheckerboard="0"
     inkscape:deskcolor="#535353"
     inkscape:zoom="12.59534"
     inkscape:cx="33.980823"
     inkscape:cy="31.082925"
     inkscape:window-width="1918"
     inkscape:window-height="1053"
     inkscape:window-x="0"
     inkscape:window-y="0"
     inkscape:window-maximized="1"
     inkscape:current-layer="Layer_1" /><defs
     id="defs1"><style
       id="style1">
      .cls-1 {
        fill: none;
        stroke: #fff;
        stroke-linecap: round;
        stroke-linejoin: round;
      }
    </style></defs><path
     id="path1"
     style="fill:none;stroke:#ffffff;stroke-linecap:round;stroke-linejoin:round;stroke-opacity:1"
     d="M 12.127158,17.80478 C 10.048547,22.690652 11.062213,28.343821 14.709,32.203007 l -3.782704,8.849067 C 3.1225972,35.093187 0.36952651,24.59813 4.2245351,15.567458 v 0 C 8.8863611,4.6467502 21.51853,-0.42708785 32.439238,4.2347382 43.359946,8.8965642 48.433784,21.528732 43.771958,32.449441 v 0 C 39.916949,41.480113 30.433452,46.75163 20.732125,45.237981 L 24.506,36.385145 C 29.815527,36.349226 34.599254,33.170844 36.689776,28.290056 38.84107,23.249391 37.652805,17.621911 34.11549,13.876869 L 29.4796,24.746244 23.63717,24.854125 19.67373,20.56032 24.316425,9.6938502 C 19.165094,9.7298872 14.279189,12.764429 12.127113,17.80476 Z"
     sodipodi:nodetypes="cccsssssccccccccc" /></svg>
