<?xml version="1.0" encoding="UTF-8" standalone="no"?>
<svg
   id="b"
   viewBox="0 0 48 48"
   version="1.1"
   sodipodi:docname="kwai_lite.svg"
   inkscape:version="1.2.2 (b0a8486541, 2022-12-01)"
   xml:space="preserve"
   xmlns:inkscape="http://www.inkscape.org/namespaces/inkscape"
   xmlns:sodipodi="http://sodipodi.sourceforge.net/DTD/sodipodi-0.dtd"
   xmlns="http://www.w3.org/2000/svg"
   xmlns:svg="http://www.w3.org/2000/svg"><sodipodi:namedview
     id="namedview17"
     pagecolor="#505050"
     bordercolor="#eeeeee"
     borderopacity="1"
     inkscape:showpageshadow="0"
     inkscape:pageopacity="0"
     inkscape:pagecheckerboard="0"
     inkscape:deskcolor="#505050"
     showgrid="false"
     inkscape:zoom="12.831042"
     inkscape:cx="48.787932"
     inkscape:cy="34.993261"
     inkscape:window-width="1918"
     inkscape:window-height="1053"
     inkscape:window-x="0"
     inkscape:window-y="0"
     inkscape:window-maximized="1"
     inkscape:current-layer="b" /><defs
     id="defs4"><style
       id="style2">.c{fill:none;stroke:#fff;stroke-linecap:round;stroke-linejoin:round;}</style></defs><g
     id="g1430"><g
       id="g1418"><g
         id="g1410"><path
           style="fill:none;stroke:#ffffff;stroke-width:1;stroke-linecap:round;stroke-linejoin:round;stroke-dashoffset:3.6;stroke-opacity:1"
           d="M 26.088901,13.2606 A 7.7606001,7.7606001 0 0 1 18.3283,21.0212 7.7606001,7.7606001 0 0 1 10.5677,13.2606 7.7606001,7.7606001 0 0 1 18.3283,5.5 a 7.7606001,7.7606001 0 0 1 7.760601,7.7606 z"
           id="path1396" /><path
           style="fill:none;stroke:#ffffff;stroke-width:1;stroke-linecap:round;stroke-linejoin:round;stroke-dashoffset:3.6;stroke-opacity:1"
           d="m 39.7188,14.2064 a 6.8148999,6.8148999 0 0 1 -6.8149,6.8149 6.8148999,6.8148999 0 0 1 -6.8149,-6.8149 6.8148999,6.8148999 0 0 1 6.8149,-6.8149 6.8148999,6.8148999 0 0 1 6.8149,6.8149 z"
           id="path1394" /></g><g
         id="g1406"><path
           style="fill:none;stroke:#ffffff;stroke-width:1;stroke-linecap:round;stroke-linejoin:round;stroke-dashoffset:3.6;stroke-opacity:1"
           d="M 39.7187,31.609868 V 29.3446 c 0,-2.977397 -2.413703,-5.391 -5.391,-5.391 H 20.8501 c -2.977397,0 -5.391,2.413703 -5.391,5.391 v 7.7644 c 0,2.977397 2.413703,5.391 5.391,5.391 v 0 h 11.936689"
           id="path1398" /><path
           style="fill:none;stroke:#ffffff;stroke-width:1;stroke-linecap:round;stroke-linejoin:round;stroke-dashoffset:3.6;stroke-opacity:1"
           d="m 15.4591,30.5937 -4.4824,-2.5879 c -1.198,-0.6917 -2.6955,0.1729 -2.6955,1.5563 v 7.3526 c 0,1.3833 1.4975,2.2479 2.6955,1.5563 l 4.4824,-2.5879"
           id="path1392" /></g></g><g
       id="g1402"><path
         style="fill:none;stroke:#ffffff;stroke-width:1;stroke-linecap:round;stroke-linejoin:round;stroke-dashoffset:3.6;stroke-opacity:1"
         d="m 45.5,38.5 a 7,7 0 0 1 -7,7 7,7 0 0 1 -7,-7 7,7 0 0 1 7,-7 7,7 0 0 1 7,7 z"
         id="path1390" /><path
         style="fill:none;stroke:#ffffff;stroke-width:1;stroke-linecap:round;stroke-linejoin:round;stroke-dashoffset:3.6;stroke-opacity:1"
         d="m 37.142523,39.458271 -0.706572,2.513082 c -0.20608,0.732965 0.164161,1.036544 0.552418,0.631596 l 4.41696,-4.606833 c 0.214003,-0.223201 0.205576,-0.613853 -0.242932,-0.613853 h -0.87621 c -0.317532,0 -0.357249,-0.294304 -0.218605,-0.576949 l 0.938502,-1.913267 c 0.142808,-0.291133 -0.03569,-0.672913 -0.437874,-0.672913 h -2.566473 c -0.204455,0 -0.39076,0.193892 -0.492988,0.376629 l -1.947306,3.480907 c -0.211372,0.377836 -0.09274,0.702446 0.301872,0.702446 h 1.144915 c 0.259024,0 0.233268,0.327134 0.134293,0.679155 z"
         id="path556" /></g></g></svg>
