<svg xmlns="http://www.w3.org/2000/svg" xml:space="preserve" viewBox="0 0 48 48"><path d="M15.86 5.337V16.26a3.5 3.5 0 0 1-3.505 3.506H3.111h9.244a3.5 3.5 0 0 1 3.506 3.506v19.391" style="fill:none;fill-opacity:.466567;stroke:#fff;stroke-width:1;stroke-linecap:round;stroke-linejoin:round;stroke-dashoffset:1.3"/><path d="M3.111 19.766v-.847L8.5 14.2V35.47M24.409 10.18v22.953c0 1.619-1.025 2.922-2.297 2.922s-2.297-1.303-2.297-2.922V19.154v13.629a3.265 3.265 0 0 1-3.273 3.272h-1.36a3.265 3.265 0 0 1-3.273-3.272v-7.934M37.615 14.796v25.156M27.937 36.3c-.897.629-2.183 1.461-3.001 2.124-1.308 1.06-.67 3.644 1.262 3.487 1.884-.153 3.442-1.366 4.77-2.275 2.518-1.724 4.016-3.45 2.911-5.62L28.1 18.572c-.873-2.998 1.132-4.447 3.568-6.473 1.837-1.527 5.947-3.995 5.947-1.929v1.382" style="fill:none;fill-opacity:.466567;stroke:#fff;stroke-width:1;stroke-linecap:round;stroke-linejoin:round;stroke-dashoffset:1.3"/><path d="M35.493 27.438h5.489c1.382 0 3.357-.289 3.807-2.172.895-3.742-4.768-8.502-6.998-9.398" style="fill:none;fill-opacity:.466567;stroke:#fff;stroke-width:1;stroke-linecap:round;stroke-linejoin:round;stroke-dashoffset:1.3"/></svg>