<?xml version="1.0" encoding="UTF-8" standalone="no"?>
<!-- Created with Inkscape (http://www.inkscape.org/) -->

<svg
   width="48"
   height="48"
   viewBox="0 0 48 48"
   version="1.1"
   id="svg1"
   xml:space="preserve"
   xmlns="http://www.w3.org/2000/svg"
   xmlns:svg="http://www.w3.org/2000/svg"><defs
     id="defs1"><style
       id="style1">
      .cls-1 {
        fill: none;
        stroke: #fff;
        stroke-linecap: round;
        stroke-linejoin: round;
      }
    </style><style
       id="style1-4">.q{fill:#fff;}.r,.s{fill:none;stroke:#fff;stroke-linecap:round;stroke-linejoin:round;}.s{stroke-width:1.0050968px;}</style></defs><rect
     class="cls-1"
     x="5.5"
     y="5.5"
     width="37"
     height="37"
     rx="4"
     ry="4"
     id="rect1"
     style="display:inline" /><g
     id="g18"
     transform="translate(0,8.7823263)"
     style="opacity:1;stroke:#ffffff;stroke-opacity:1"><path
       id="path15"
       style="opacity:1;fill:none;fill-opacity:1;fill-rule:evenodd;stroke:#ffffff;stroke-width:1;stroke-linecap:round;stroke-linejoin:round;stroke-dasharray:none;stroke-opacity:1"
       d="m 38.720152,16.340179 v 2.706545 m -5.385539,-2.706545 v 2.706545 m 0,-2.684127 a 2.694145,2.6941466 88.549745 0 1 2.693645,-2.607106 2.694145,2.6941466 88.549745 0 1 2.691894,2.608911" /><path
       id="path8"
       style="opacity:1;fill:none;fill-rule:evenodd;stroke:#ffffff;stroke-width:1;stroke-linecap:round;stroke-linejoin:round;stroke-dasharray:none;stroke-opacity:1"
       d="m 30.808903,14.807134 -2.038205,1.548481 m 2.466732,0.559953 c -0.167844,1.073022 -1.12487,1.888045 -2.165221,2.076896 -0.77616,0.159352 -1.629956,-0.0393 -2.215552,-0.58472 -0.87348,-0.668177 -1.131689,-1.917694 -0.788473,-2.931728 0.234846,-0.753571 0.823956,-1.3919 1.577948,-1.643103 1.112267,-0.440752 2.49419,-0.0207 3.162771,0.974221" /><path
       id="path11"
       style="display:inline;opacity:1;fill:none;fill-rule:evenodd;stroke:#ffffff;stroke-width:1;stroke-linecap:round;stroke-linejoin:round;stroke-dasharray:none;stroke-opacity:1"
       d="m 22.560214,19.046724 c 0,0 -0.03935,-3.015726 -0.03935,-4.600555 0.01774,-2.242961 1.114414,-2.568118 1.684473,-2.857057 M 22.576482,15.219876 24,15.178006" /><g
       id="g11"
       transform="translate(0,-8.814351)"
       style="stroke:#ffffff;stroke-opacity:1;opacity:1"><path
         style="opacity:1;fill:none;fill-rule:evenodd;stroke:#ffffff;stroke-width:1;stroke-linecap:round;stroke-linejoin:round;stroke-dasharray:none;stroke-opacity:1"
         d="m 20.309858,22.221717 v 5.639358"
         id="path3" /><circle
         class="q"
         cx="20.309858"
         cy="20.452974"
         id="circle106"
         r="0.75"
         style="opacity:1;stroke:none;stroke-opacity:1" /></g><path
       id="path17"
       style="display:inline;opacity:1;fill:none;fill-opacity:1;fill-rule:evenodd;stroke:#ffffff;stroke-width:1;stroke-linecap:round;stroke-linejoin:round;stroke-dasharray:none;stroke-opacity:1"
       d="m 17.983456,16.318305 v 2.728419 M 15.9315,18.933307 a 2.6933424,2.6933424 0 0 1 -2.905418,-1.151583 2.6933424,2.6933424 0 0 1 0.13902,-3.122222 2.6933424,2.6933424 0 0 1 2.996267,-0.888806 2.6933424,2.6933424 0 0 1 1.819059,2.541382" /><path
       id="path18"
       style="display:inline;opacity:1;fill:none;fill-rule:evenodd;stroke:#ffffff;stroke-width:1;stroke-linecap:round;stroke-linejoin:round;stroke-dasharray:none;stroke-opacity:1"
       d="m 9.216464,11.589112 c 0,0 -0.03935,3.015726 -0.03935,4.600555 0.01774,2.242961 1.114414,2.568118 1.684473,2.857057" /></g></svg>
