<?xml version="1.0" encoding="UTF-8"?><svg id="a" xmlns="http://www.w3.org/2000/svg" viewBox="0 0 48 48"><defs><style>.d{fill:none;stroke:#fff;stroke-linecap:round;stroke-linejoin:round;}</style></defs><path class="d" d="m18.793 5.4754c-1.5665 2.7216-2.3909 5.8069-2.3909 8.9471 0.0021 3.6685 1.129 7.2482 3.2288 10.256l-2.1464 4.8428 4.8576-1.7751c3.2918 2.9667 7.5654 4.6098 11.997 4.6125 2.8468 2.82e-4 5.6527-0.67703 8.1859-1.9759"/><rect class="d" x="5.5" y="5.5" width="37" height="37" rx="4" ry="4"/><path class="d" d="m9.8894 27.164c-1.0609 1.0609-1.6216 2.6235-1.428 4.436 0.38714 3.625 3.6408 6.8787 7.2658 7.2658 3.625 0.38714 6.2498-2.2376 5.8626-5.8626l-3.8334 0.80014 0.37931 1.6071c-1.4534 1.4533-4.024 1.2387-5.7411-0.47923-1.7168-1.7172-1.9307-4.2868-0.47785-5.7397l1.6082 0.37217 0.79899-3.8262c-1.8125-0.19357-3.3737 0.3657-4.4346 1.4266z"/><path class="d" d="m21.695 14.474v6.5826h3.3389"/><path class="d" d="m29.974 19.411c0 0.90889-0.74742 1.6456-1.6695 1.6456-0.92204 0-1.6695-0.73676-1.6695-1.6456v-1.0697c0-0.90889 0.74742-1.6456 1.6695-1.6456 0.92204 0 1.6695 0.73676 1.6695 1.6456"/><line class="d" x1="29.974" x2="29.974" y1="21.057" y2="16.696"/><path class="d" d="m31.575 14.474v6.5826h3.3389"/><path class="d" d="m39.85 19.411c0 0.90889-0.74742 1.6456-1.6695 1.6456-0.92204 0-1.6695-0.73676-1.6695-1.6456v-1.0697c0-0.90889 0.74742-1.6456 1.6695-1.6456 0.92204 0 1.6695 0.73676 1.6695 1.6456"/><line class="d" x1="39.85" x2="39.85" y1="21.057" y2="16.696"/></svg>
