<svg xmlns="http://www.w3.org/2000/svg" xml:space="preserve" viewBox="0 0 48 48"><path d="m22.964555 18.976419-.0272.785883c-2.081294.03388-3.566873 2.658085-.909621 3.354969l-1.624865 1.618779c-1.114528-2.249665-3.629798-1.703523-2.835678 1.936803-.99584-.591503-2.445593-.284975-3.346267-.02343 1.572415-3.795055-.643994-3.89127-2.20455-2.135448M10.985646 14.456808l1.075315-1.124507c1.544431 2.168267 3.804488 1.577599 3.624921-1.656496l1.760586.16536c-1.328859 2.9296 2.155915 3.790372 3.780462 1.595677l.827685 1.582188c-1.062069.807111-1.793221 2.863239.506598 3.177778M11.334664 24.407396c-.32162-.370306-.701188-.673544-1.259946-1.022733 2.058947-.610989 2.755519-4.069134-1.3358097-3.411721l.4488999-2.098885c1.6368898.916394 4.1002278-1.305168 1.7869478-2.519917" style="fill:none;stroke:#fff;stroke-width:1;stroke-linecap:round;stroke-linejoin:round;stroke-dashoffset:1.3;stroke-opacity:1"/><path d="M13.351806 20.980427c-1.064134-2.217265-.246811-3.781655 1.267784-4.497428 1.264746-.5977 3.154679-.358893 3.97987.501169 1.259873 1.313116.54319 3.089601-.689969 4.218386-1.268244 1.1609-3.677777 1.340486-4.557685-.222127M28.007461 12.391819l-1.010297.743239c1.555229 1.884273-.554819 3.708781-2.632875 2.290986-.08003.526179-.195049 1.041062-.493101 1.496842 2.317368 1.320731 2.239463 2.994573.433873 3.784968.526489.6497.702667 1.244491.797994 1.949103 1.788206-1.329602 4.143095-.630276 2.234218 2.426531.703696.255126 1.329305.617727 1.925505 1.020809M32.117184 12.462861c-.714452 1.427154-2.607845 1.375508-3.447926-.166432M36.664238 14.788731c-2.472334 1.342698-3.819985-.836342-2.552918-2.704015-.924852.124149-1.405814-.317657-1.512618-.679319M37.517504 21.633998l.526137-1.823652c-2.024831.18942-2.788899-2.846424-.279921-3.247001l-.5627-1.587891M33.160074 25.685599c.632794-.473624 1.254307-.837994 1.926576-1.076672-1.574002-2.297487.223555-3.433953 1.848571-2.582775M30.022834 25.789254c-.167342-2.31918 2.88391-3.192713 2.78573-.463472" style="fill:none;stroke:#fff;stroke-width:1;stroke-linecap:round;stroke-linejoin:round;stroke-dashoffset:1.3;stroke-opacity:1"/><path d="M28.946652 16.15369c1.323894-1.037976 3.637292-1.174281 4.676442.778229.935036 1.756885.437507 3.651322-1.603637 4.48336-2.279098.929036-4.156541-.227423-4.661794-2.134019-.319109-1.204175.6291-2.374988 1.588989-3.12757M25.164744 26.286704c-.66667 1.216248-1.426334 2.123335-1.981404 2.631316-3.047582 2.789041-2.873015 5.056043-.516045 8.67575-3.094205.397528-7.039803.558207-10.163641 2.030042.716256-1.795593.759433-3.77552-.0651-5.523861-3.3135695 1.735509-7.2806711 1.131562-6.1635807-2.709781-1.238759.589429-1.8993988-.645645-1.4213003-1.685427l-.772928-1.29194c-.2809409-.46959.3291978-.95901.685264-1.307065-1.0691976-.489481-2.4960249-1.781668-1.5494496-2.581812 3.2989436-2.788609.8683597-5.424246 1.4830234-8.873087 1.0347464-5.8059 9.5634462-10.3113381 17.6837882-4.738357 1.010854.693748 1.826401 1.676622 2.462952 2.794221" style="fill:none;stroke:#fff;stroke-width:1;stroke-linecap:round;stroke-linejoin:round;stroke-dashoffset:1.3;stroke-opacity:1"/><path d="M22.033678 26.058069c.663466 1.295056 1.546817 2.475897 2.654128 3.625785 1.924399 1.998395 3.713436 4.108631.149102 8.172944l9.510351 1.723942c-.893704-2.135818-1.102068-5.1063.658923-5.950336 1.106297 1.408705 4.067766 2.483929 6.034239 1.486856.697703-.353761 1.225154-1.187543.690735-2.006508-.433062-.663642-.465707-1.255731-.396216-1.785035l1.808976-.372691.06502-1.329495c1.940255.34592.505652-1.157117-.104881-2.159998.983597-.448145 1.353082-1.038376 1.988515-1.84372-4.291539-3.233343-1.326379-6.756645-2.59257-10.260467-1.537737-4.255244-4.577412-7.1217241-11.568495-6.618196-3.108491.223887-5.841607 1.843814-7.726995 3.976121" style="fill:none;stroke:#fff;stroke-width:1;stroke-linecap:round;stroke-linejoin:round;stroke-dashoffset:1.3;stroke-opacity:1"/></svg>