<svg xmlns="http://www.w3.org/2000/svg" xml:space="preserve" width="48" height="48"><path fill="none" stroke="#fff" stroke-linecap="round" stroke-linejoin="round" d="M2.5 18.323c2.295-7.889 8.814-13.979 16.945-15.659m-4.876 42.233A22.468 22.468 0 0 1 3.203 32.892m21.954-28.59c8.8.381 16.238 6.268 18.846 14.371m-3.411 14.2c-3.206 6.035-9.556 10.145-16.866 10.145-1.873 0-3.682-.27-5.392-.772m8.389-35.542C35.498 7.96 42.39 15.347 42.727 24.52c.014.389.016.776.007 1.16m-36.495 2.8a18.101 18.101 0 0 1-.445-4.002c0-8.264 5.556-15.23 13.136-17.367m25.667 17.476c0 11.376-9.222 20.598-20.598 20.598M45.5 33.478a23.35 23.35 0 0 1-10.975 11.858m5.324-20.749c0 8.755-7.097 15.851-15.851 15.851-8.755 0-15.851-7.096-15.851-15.85 0-8.755 7.096-15.852 15.85-15.852 8.755 0 15.852 7.097 15.852 15.851z"/></svg>
