<svg xmlns="http://www.w3.org/2000/svg" xml:space="preserve" width="48" height="48" viewBox="0 0 12.7 12.7"><path fill="none" stroke="#fff" stroke-linecap="round" stroke-linejoin="round" stroke-width=".265" d="M9.224 6.835c-.223.728-.704 1.283-1.298.693M3.652 9.831c-2.187-1.256-.662-3.774.944-4.033 1.684-.271 2.484.886 3.33 1.73m-3.307.77c.563.087.43 1.28-.426 1.635-1.067.441-2.296-.43-2.42-1.286m6.153-1.119a3.467 3.467 0 0 1-.623-.801c-1.164-1.948-3.94-2.26-5.28 0-.372.627-.437 1.336-.25 1.92-.185 1.722 2.63 3.964 4.466 2.255.445-.415.96-1.58-.375-2.343-.74-.422-1.657-.461-2.002.348.254-.067.503-.06.707.05M2.613 1.901c-.485.352-.238 1.524.692 1.199.42-.147.57-.397 1.092-.648.754-.362 3.05-.578 4.208 1.089C7.27 1.28 4.582.472 2.613 1.9zm6.574 3.43c-.303-.17-.5-.533-.5-.931v0c0-.184.042-.36.116-.512a.952.952 0 0 1 .384-.42c.304.17.5.533.5.932 0 .15-.028.294-.078.425m-.5.563c-.255.237-.66.313-1.04.19v0c-.379-.122-.664-.42-.732-.761.254-.237.66-.313 1.039-.19.15.048.285.124.398.219m.366.636c.152.312.107.722-.12 1.05v0c-.228.327-.597.513-.943.479-.152-.313-.106-.723.121-1.05.095-.137.214-.249.347-.33m.69-.15c.346-.042.718.136.953.458v0c.234.323.289.732.143 1.048-.345.041-.717-.137-.952-.46a1.185 1.185 0 0 1-.184-.38m.07-.76c.064-.342.344-.645.722-.772v0c.377-.128.784-.059 1.042.175-.064.342-.344.644-.722.772a1.178 1.178 0 0 1-.464.06"/></svg>
