<svg xmlns="http://www.w3.org/2000/svg" xml:space="preserve" width="48" height="48" viewBox="0 0 12.7 12.7"><path fill="none" stroke="#fff" stroke-linecap="round" stroke-linejoin="round" stroke-width=".265" d="M8.305 6.811a3.18 3.175 0 0 1 .573 3.323m-.705-3.191a2.768 2.768 0 0 0 .112-3.81c-.036-.04-1.964 1.96-1.964 1.96 1.09-1.087 1.114-2.814.025-3.902L2.57 4.96l3.794 3.788 1.809-1.806 1.966-1.964c1.09 1.088 1.072 2.821-.018 3.91l-1.809 1.806a2.778 2.778 0 0 1-3.933 0L2.57 8.888a2.768 2.768 0 0 1 0-3.927"/></svg>
