<svg xmlns="http://www.w3.org/2000/svg" xml:space="preserve" width="48" height="48" viewBox="0 0 12.7 12.7"><path fill="none" stroke="#fff" stroke-linecap="round" stroke-linejoin="round" stroke-width=".265" d="M6.699 5.158h3.977v2.381H6.699M9.81 5.66l-.445 1.378-.444-1.377M8.01 7.037V5.66m-.444 0h.889m-6.431-.502h4.67v2.381h-4.67zm1.78 1.88.444-1.378.444 1.377m-.147-.456h-.594m1.655-.921a.45.45 0 0 1 .444.456v.465a.45.45 0 0 1-.444.456.45.45 0 0 1-.445-.456v-.465a.45.45 0 0 1 .445-.456zm-2.94 0v1.377h.67m-.822-5.582h7.672c.587 0 1.059.472 1.059 1.059v7.672c0 .587-.472 1.059-1.059 1.059H2.514a1.056 1.056 0 0 1-1.059-1.059V2.514c0-.587.472-1.059 1.059-1.059z"/></svg>
