<?xml version="1.0" encoding="UTF-8" standalone="no"?>
<svg
   viewBox="0 0 48 48"
   version="1.1"
   id="svg1"
   sodipodi:docname="last_day_on_earth_survival.svg"
   inkscape:version="1.2.2 (b0a8486541, 2022-12-01)"
   xml:space="preserve"
   xmlns:inkscape="http://www.inkscape.org/namespaces/inkscape"
   xmlns:sodipodi="http://sodipodi.sourceforge.net/DTD/sodipodi-0.dtd"
   xmlns="http://www.w3.org/2000/svg"
   xmlns:svg="http://www.w3.org/2000/svg"><sodipodi:namedview
     id="namedview1"
     pagecolor="#505050"
     bordercolor="#eeeeee"
     borderopacity="1"
     inkscape:showpageshadow="0"
     inkscape:pageopacity="0"
     inkscape:pagecheckerboard="0"
     inkscape:deskcolor="#505050"
     inkscape:zoom="25.190679"
     inkscape:cx="24.532884"
     inkscape:cy="24.413792"
     inkscape:window-width="1918"
     inkscape:window-height="1053"
     inkscape:window-x="0"
     inkscape:window-y="0"
     inkscape:window-maximized="1"
     inkscape:current-layer="g1594"
     showgrid="false" /><defs
     id="defs1"><style
       id="style1">.a { fill:none;stroke:#fff;stroke-linecap:round;stroke-linejoin:round; }
</style></defs><path
     style="fill:none;stroke:#ffffff;stroke-linecap:round;stroke-linejoin:round;stroke-opacity:1;stop-color:#000000"
     d="m 9.5,5.5 h 29 c 2.216,0 4,1.784 4,4 v 29 c 0,2.216 -1.784,4 -4,4 h -29 c -2.216,0 -4,-1.784 -4,-4 v -29 c 0,-2.216 1.784,-4 4,-4 z"
     id="path1541" /><g
     id="g1642"><g
       id="g1618"><path
         style="fill:none;stroke:#ffffff;stroke-linecap:round;stroke-linejoin:round;stroke-opacity:1;stop-color:#000000"
         d="m 14.661628,27.430425 c 0.0076,-0.758867 0.740024,-1.583894 0.09651,-2.260968 -0.06216,-0.732254 0.715959,-1.26287 0.535024,-2.044011 -0.04646,-0.938811 1.582807,-1.064107 0.874432,-2.045766 -0.401713,-0.892377 1.001957,-1.239779 0.983437,-2.047353 -0.205063,-0.750188 0.0732,-1.479412 0.375921,-2.1533 0.277868,-0.722087 0.408864,-1.580327 1.214708,-1.906838 0.519017,-0.312465 1.039212,-0.632566 1.604178,-0.856349"
         id="path1539" /><path
         style="fill:none;stroke:#ffffff;stroke-linecap:round;stroke-linejoin:round;stroke-opacity:1;stop-color:#000000"
         d="m 19.086851,22.474239 c -0.922227,0.407556 -0.406499,1.706969 -1.187153,2.246367 -0.377861,0.258869 -0.725255,0.54903 -1.033337,0.87656"
         id="path1537" /><path
         style="fill:none;stroke:#ffffff;stroke-linecap:round;stroke-linejoin:round;stroke-opacity:1;stop-color:#000000"
         d="m 18.286416,15.610983 c 1.153624,1.099736 2.00658,2.495296 2.534783,3.994656 -0.149609,1.188621 -0.667955,2.29181 -1.26245,3.318265 0.459019,0.564177 0.58552,1.377572 0.228406,2.021484 -0.152821,0.633154 -0.305643,1.266308 -0.458465,1.899462 0.883195,0.145702 -0.07062,1.104907 -0.04188,1.313319 2.130597,0.03501 4.131036,0.935949 6.257378,1.01503 0.898311,0.07746 1.798188,0.134829 2.696952,0.206551 0.800002,-0.101856 1.372429,-1.229607 0.756192,-1.85112 0.123862,-0.306813 0.460105,-0.594471 0.28655,-0.955449"
         id="path1535" /><path
         style="fill:none;stroke:#ffffff;stroke-linecap:round;stroke-linejoin:round;stroke-opacity:1;stop-color:#000000"
         d="m 16.440972,26.483761 c 0.494361,0.286666 0.818916,0.739353 0.815759,1.610794 -0.474221,0.255264 -0.577207,0.818331 -0.796063,1.471224 l -0.234028,-0.04171 -0.315858,0.299168 c -0.575226,0.03818 -1.26092,-0.568473 -1.328441,-0.895477 -0.08316,-0.402742 0.03401,-0.726828 0.175838,-1.034472"
         id="path1533" /><g
         id="g1605"><path
           style="fill:none;stroke:#ffffff;stroke-linecap:round;stroke-linejoin:round;stroke-opacity:1;stop-color:#000000"
           d="m 27.999338,15.627253 c 1.443093,0.553051 2.843867,0.912103 4.32928,1.659154 0.699161,0.351626 0.935275,0.949142 0.631686,1.793508 -0.122653,0.341132 -0.46428,0.689847 -1.091214,0.425778 l -3.05737,-1.287788 c 0.02806,-0.834687 -0.217195,-1.896456 -0.812385,-2.590652 z"
           id="path1531" /><path
           style="fill:none;stroke:#ffffff;stroke-linecap:round;stroke-linejoin:round;stroke-opacity:1;stop-color:#000000"
           d="m 32.460682,19.712168 c -0.219721,2.043691 -0.448094,4.063044 -1.399394,5.712345 -0.946784,0.453331 -2.100744,1.291889 -3.689119,0.686868 l -3.68458,-1.403478 c -0.301767,-1.332475 0.0778,-2.972455 0.839372,-4.672479 0.893014,-1.993425 2.009447,-4.264955 3.466077,-4.226859"
           id="path1529" /><path
           style="fill:none;stroke:#ffffff;stroke-linecap:round;stroke-linejoin:round;stroke-opacity:1;stop-color:#000000"
           d="m 28.275244,17.083333 c -0.752366,2.923357 -2.565861,7.716016 -4.544455,7.128271"
           id="path1527" /><path
           style="fill:none;stroke:#ffffff;stroke-linecap:round;stroke-linejoin:round;stroke-opacity:1;stop-color:#000000"
           d="m 29.165417,14.130947 c 0.457769,0.827196 0.442625,1.326971 0.113096,1.98536"
           id="path1525" /></g><path
         style="fill:none;stroke:#ffffff;stroke-linecap:round;stroke-linejoin:round;stroke-opacity:1;stop-color:#000000"
         d="m 30.447014,15.252104 0.644273,0.358109 0.442262,1.167066"
         id="path1523" /><path
         style="fill:none;stroke:#ffffff;stroke-linecap:round;stroke-linejoin:round;stroke-opacity:1;stop-color:#000000"
         d="m 24.100963,17.205829 c -1.532111,-0.904777 -2.798417,-1.993976 -3.646859,-3.132415 0.788966,-2.99557 7.295815,-3.323429 8.061457,0.174738"
         id="path1521" /></g><g
       id="g1582"><path
         style="fill:none;stroke:#ffffff;stroke-linecap:round;stroke-linejoin:round;stroke-opacity:1;stop-color:#000000"
         d="M 22.862329,9.4748584 C 23.946503,9.189046 25.37711,9.184033 26.812977,9.365499 26.819151,8.2916856 26.309255,7.0339289 24.852395,6.9225776 23.14209,6.7918549 22.454369,8.2092493 22.862329,9.4748584 Z"
         id="path1519" /><path
         style="fill:none;stroke:#ffffff;stroke-linecap:round;stroke-linejoin:round;stroke-opacity:1;stop-color:#000000"
         d="m 23.177169,10.160696 -0.297857,0.657373"
         id="path1517" /><path
         style="fill:none;stroke:#ffffff;stroke-linecap:round;stroke-linejoin:round;stroke-opacity:1;stop-color:#000000"
         d="m 24.416878,10.110436 -0.387186,0.712262"
         id="path1515" /><path
         style="fill:none;stroke:#ffffff;stroke-linecap:round;stroke-linejoin:round;stroke-opacity:1;stop-color:#000000"
         d="m 25.53085,10.127947 -0.378287,0.712799"
         id="path1513" /><path
         style="fill:none;stroke:#ffffff;stroke-linecap:round;stroke-linejoin:round;stroke-opacity:1;stop-color:#000000"
         d="m 26.750646,10.106525 -0.43805,0.87811"
         id="path1511" /></g><g
       id="g1599"><path
         style="fill:none;stroke:#ffffff;stroke-linecap:round;stroke-linejoin:round;stroke-opacity:1;stop-color:#000000"
         d="m 19.26743,28.362349 c -0.466729,0.608782 -0.356061,1.386885 -0.330221,2.094088 0.07238,0.975903 -0.778602,1.629088 -0.45568,2.553459 -0.0036,0.91531 -0.597579,1.565105 -0.707921,2.419714 0.279612,0.719815 0.456747,1.416801 -0.195692,2.018179 -0.24538,0.897791 -0.555358,1.797596 -0.628559,2.733236 0.01102,0.741277 -0.07765,1.473066 -0.145187,2.210572"
         id="path1487" /><path
         style="fill:none;stroke:#ffffff;stroke-linecap:round;stroke-linejoin:round;stroke-opacity:1;stop-color:#000000"
         d="m 20.308825,42.181744 c -0.513071,-0.735331 0.489799,-1.39569 0.417254,-2.165293 0.189463,-0.711842 -0.305583,-1.491147 -0.07514,-2.12221 0.162705,-0.829642 0.744555,-1.404822 1.123537,-2.090704 0.02156,-0.773092 -0.114006,-1.596829 0.441155,-2.239219 0.481231,-0.825833 0.893445,-1.693296 1.244765,-2.582247 0.798964,-0.299238 0.85327,0.88365 1.15802,1.355912 0.37998,0.885458 0.6999,1.827797 0.678488,2.803347 0.246799,0.78709 1.215912,1.290775 0.953008,2.236864 0.01496,0.910722 -0.457708,1.763112 -0.114144,2.654883 0.178837,0.607522 -0.04927,1.349431 0.38973,1.854168 0.111634,0.162894 0.223268,0.325789 0.334902,0.488683"
         id="path1485" /><path
         style="fill:none;stroke:#ffffff;stroke-linecap:round;stroke-linejoin:round;stroke-opacity:1;stop-color:#000000"
         d="m 29.683763,42.231196 c 0.117016,-1.002206 -0.286376,-2.086215 0.234741,-3.021265 0.273573,-0.683346 -0.356417,-1.245871 -0.508654,-1.870139 -0.03588,-0.441289 0.02082,-0.8934 -0.05036,-1.337801 -0.06015,-0.444974 0.01368,-0.887519 0.123222,-1.316513 0.04833,-0.712606 -0.563036,-1.311746 -0.396309,-2.037404 0.04108,-0.741223 0.105053,-1.492109 0.117536,-2.22818 -0.182958,-0.344402 -0.365917,-0.688805 -0.548875,-1.033207"
         id="path658" /></g><g
       id="g1594"><path
         style="fill:none;stroke:#ffffff;stroke-linecap:round;stroke-linejoin:round;stroke-opacity:1;stop-color:#000000"
         d="m 17.834766,25.796996 0.544178,0.385658"
         id="path1509" /><path
         style="fill:none;stroke:#ffffff;stroke-linecap:round;stroke-linejoin:round;stroke-opacity:1;stop-color:#000000"
         d="m 12.738437,32.946899 5.176009,-7.048774"
         id="path1507" /><path
         style="fill:none;stroke:#ffffff;stroke-linecap:round;stroke-linejoin:round;stroke-opacity:1;stop-color:#000000"
         d="m 13.366929,35.910107 c -0.539823,0.970224 -1.051003,1.769441 -2.172825,2.131606"
         id="path1505" /><path
         style="fill:none;stroke:#ffffff;stroke-linecap:round;stroke-linejoin:round;stroke-opacity:1;stop-color:#000000"
         d="m 12.494195,38.21133 c -0.773331,0.552592 -1.664038,0.99981 -2.478227,1.072311"
         id="path1503" /><path
         style="fill:none;stroke:#ffffff;stroke-linecap:round;stroke-linejoin:round;stroke-opacity:1;stop-color:#000000"
         d="M 7.9526309,39.110933 C 7.7874475,38.586237 7.7505728,37.93805 7.9760509,37.317554"
         id="path1499" /><path
         style="fill:none;stroke:#ffffff;stroke-linecap:round;stroke-linejoin:round;stroke-opacity:1;stop-color:#000000"
         d="M 7.4518563,37.004675 C 7.6768815,36.491421 8.0917528,35.967109 8.7230905,35.555319"
         id="path1497" /><path
         style="fill:none;stroke:#ffffff;stroke-linecap:round;stroke-linejoin:round;stroke-opacity:1;stop-color:#000000"
         d="M 8.1818965,35.212688 C 8.6700559,34.815677 9.1758517,34.451413 9.866476,34.304595"
         id="path1495" /><path
         style="fill:none;stroke:#ffffff;stroke-linecap:round;stroke-linejoin:round;stroke-opacity:1;stop-color:#000000"
         d="M 9.7739812,36.983944 11.149744,35.110407"
         id="path1493" /><path
         style="fill:none;stroke:#ffffff;stroke-linecap:round;stroke-linejoin:round;stroke-opacity:1;stop-color:#000000"
         d="M 9.6034841,33.777171 C 9.8326849,33.636417 10.227439,33.537348 10.61971,33.540603"
         id="path1491" /><path
         style="fill:none;stroke:#ffffff;stroke-linecap:round;stroke-linejoin:round;stroke-opacity:1;stop-color:#000000"
         d="m 11.697428,32.212828 2.041408,1.460597 -1.492312,2.088658 -2.041408,-1.460597 z"
         id="path1489" /><path
         style="fill:none;stroke:#ffffff;stroke-linecap:round;stroke-linejoin:round;stroke-opacity:1;stop-color:#000000"
         d="m 8.2441978,38.89187 c 0.3621206,0.62056 1.0128167,0.887858 2.0249462,1.071816"
         id="path1501" /></g></g></svg>
