<?xml version="1.0" encoding="UTF-8"?><svg id="b" xmlns="http://www.w3.org/2000/svg" viewBox="0 0 48 48"><defs><style>.ap{fill:none;stroke:#fff;stroke-linecap:round;stroke-linejoin:round;}</style></defs><path id="f" class="ap" d="M9.5,5.5h29c2.2159996,0,4,1.78399992,4,4v29c0,2.2159996-1.7840004,4-4,4H9.5c-2.21600008,0-4-1.7840004-4-4V9.5c0-2.21600008,1.78399992-4,4-4Z"/><g id="g"><g id="h"><path id="i" class="ap" d="M14.66162777,27.43042564c.00759983-.75886726.74002361-1.58389473.09650993-2.26096725-.06215954-.73225403.7159586-1.26287079.53502369-2.04401207-.04646015-.93881035,1.58280754-1.06410599.87443161-2.04576683-.40171337-.89237785,1.00195694-1.23977852.98343658-2.04735374-.20506287-.75018883.07320023-1.47941208.37592125-2.15329933.27786827-.72208786.40886307-1.58032703,1.21470833-1.90683842.51901627-.31246471,1.03921127-.6325655,1.60417747-.85634899"/><path id="j" class="ap" d="M19.08685112,22.47423935c-.92222786.40755653-.40649986,1.70696831-1.18715286,2.2463665-.37786102.25886917-.72525597.5490303-1.03333664.87656021"/><path id="k" class="ap" d="M18.2864151,15.61098289c1.15362358,1.09973526,2.00658035,2.49529648,2.53478241,3.99465561-.14960861,1.18862152-.6679554,2.29181099-1.26244926,3.31826591.45901871.56417656.58551979,1.37757111.22840691,2.02148438-.15282059.63315392-.30564308,1.26630783-.45846558,1.89946175.88319588.14570236-.07061958,1.10490608-.04187965,1.31331825,2.13059807.03500938,4.13103676.93594933,6.25737762,1.01502991.89831161.07745934,1.79818726.13482857,2.69695282.2065506.80000114-.10185623,1.37242889-1.22960663.75619125-1.85112.12386131-.30681229.4601059-.59447098.28655052-.95544815"/><path id="l" class="ap" d="M16.44097137,26.48376083c.49436188.28666687.81891632.73935318.81575966,1.61079407-.47422028.25526428-.57720757.81833076-.79606247,1.47122383l-.23402786-.0417099-.31585789.29916763c-.57522583.0381794-1.26092052-.56847382-1.32844067-.89547729-.0831604-.40274239.03400993-.72682762.17583847-1.03447151"/><g id="m"><path id="n" class="ap" d="M27.99933815,15.62725258c1.44309235.55305099,2.84386635.91210365,4.32927895,1.65915489.69916153.35162544.93527603.94914246.63168716,1.79350853-.12265396.34113121-.46427917.68984795-1.09121323.42577744l-3.05736923-1.28778839c.02806091-.83468628-.21719551-1.89645576-.81238365-2.59065247Z"/><path id="o" class="ap" d="M32.46068192,19.71216774c-.21972275,2.04369164-.44809341,4.06304359-1.39939499,5.71234512-.94678497.45333099-2.10074425,1.29188919-3.68911934.68686867l-3.68457985-1.40347862c-.30176735-1.33247566.07780075-2.97245598.83937263-4.67247963.89301491-1.99342537,2.0094471-4.26495552,3.4660778-4.22685909"/><path id="p" class="ap" d="M28.27524376,17.08333206c-.75236511,2.92335701-2.56586075,7.71601486-4.54445457,7.1282711"/><path id="q" class="ap" d="M29.16541672,14.13094711c.45776939.82719612.44262505,1.32697105.11309624,1.98535919"/></g><path id="r" class="ap" d="M30.44701385,15.25210381l.64427376.35810852.44226265,1.16706657"/><path id="s" class="ap" d="M24.10096359,17.20582962c-1.53211021-.90477753-2.79841614-1.99397564-3.64685822-3.13241482.78896523-2.99557018,7.29581451-3.32342911,8.06145668.17473793"/></g><g id="t"><path id="u" class="ap" d="M22.86232948,9.47485828c1.0841732-.28581238,2.51478004-.29082489,3.95064735-.10935974.00617409-1.07381248-.50372124-2.33156967-1.96058273-2.44292116-1.71030426-.13072252-2.39802551,1.28667212-1.99006462,2.5522809Z"/><path id="v" class="ap" d="M23.1771698,10.16069603l-.29785728.65737343"/><path id="w" class="ap" d="M24.41687775,10.11043644l-.38718605.71226215"/><path id="x" class="ap" d="M25.53084946,10.12794685l-.37828636.71279907"/><path id="y" class="ap" d="M26.75064659,10.10652542l-.43804932.87810993"/></g><g id="z"><path id="aa" class="ap" d="M19.26742935,28.36234856c-.46672821.60878181-.35606194,1.38688469-.33022118,2.0940876.07238007.97590256-.7786026,1.62908936-.45568085,2.55345917-.00359917.91530991-.59757805,1.56510544-.70792198,2.41971588.27961159.7198143.45674706,1.41680145-.19569206,2.01818085-.2453804.89779282-.55535889,1.79759598-.62855911,2.73323441.01102066.74127579-.07765007,1.47306442-.14518738,2.21057129"/><path id="ab" class="ap" d="M20.30882454,42.18174362c-.51307106-.73533249.4897995-1.39569092.41725349-2.16529465.18946266-.71184158-.30558395-1.49114609-.07514-2.12221146.16270447-.82964325.74455452-1.4048233,1.12353706-2.09070206.02156067-.77309036-.11400604-1.59682846.44115448-2.23921967.48123169-.82583237.89344406-1.69329643,1.24476433-2.58224678.79896355-.2992382.85326958.88364983,1.15802002,1.35591316.37998009.8854599.69989967,1.82779694.67848778,2.80334854.24679947.7870903,1.21591187,1.2907753.95300865,2.236866.01495934.91072083-.45770836,1.76311111-.11414337,2.65488434.17883682.60752106-.04927063,1.34943008.38973045,1.85416794.1116333.1628952.22326851.32579041.33490181.48868179"/><path id="ac" class="ap" d="M29.6837635,42.23119736c.11701584-1.0022049-.28637505-2.08621597.23474121-3.02126694.27357292-.68334579-.3564167-1.2458725-.50865364-1.87014008-.03587914-.44128799.02082062-.89339828-.05035973-1.33779907-.06015015-.44497299.0136795-.88751984.12322235-1.31651306.04833031-.71260452-.56303596-1.31174469-.3963089-2.03740311.04108047-.74122238.10505295-1.4921093.11753654-2.22817993l-.54887581-1.03320694"/></g><g id="ad"><path id="ae" class="ap" d="M17.83476639,25.79699516l.54417801.38565826"/><path id="af" class="ap" d="M12.7384367,32.94689941l5.17600918-7.04877472"/><path id="ag" class="ap" d="M13.36692905,35.91010666c-.53982258.97022247-1.05100346,1.7694397-2.17282486,2.13160706"/><path id="ah" class="ap" d="M12.49419498,38.21133041c-.77333069.55259323-1.6640377.99980927-2.47822666,1.0723114"/><path id="ai" class="ap" d="M7.952631,39.1109314c-.16518354-.52469254-.20205832-1.17288208.02341986-1.79337692"/><path id="aj" class="ap" d="M7.45185614,37.00467682c.22502518-.51325607.63989687-1.03756714,1.27123404-1.44935608"/><path id="ak" class="ap" d="M8.18189621,35.21268845c.48816013-.3970108.99395561-.76127625,1.68457985-.9080925"/><path id="al" class="ap" d="M9.77398109,36.98394394l1.37576294-1.87353516"/><path id="am" class="ap" d="M9.60348415,33.77717209c.22920036-.1407547.62395477-.23982239,1.01622581-.23656845"/><path id="an" class="ap" d="M11.69742775,32.21282959l2.04140854,1.46059799-1.49231148,2.08865738-2.04140854-1.46059799,1.49231148-2.08865738Z"/><path id="ao" class="ap" d="M8.24419785,38.89186859c.36212063.62055969,1.01281643.88785934,2.02494621,1.07181549"/></g></g></svg>