<svg xmlns="http://www.w3.org/2000/svg" xml:space="preserve" width="48" height="48" viewBox="0 0 12.7 12.7"><path fill="none" stroke="#fff" stroke-linecap="round" stroke-linejoin="round" stroke-width=".265" d="M6.459 5.649h.74M6.774 7.05V5.305a.37.37 0 0 1 .37-.37v0c.182 0 .296.054.374.155M4.453 6.784a.529.529 0 0 1-.46.267v0a.53.53 0 0 1-.529-.529v-.344a.53.53 0 0 1 .53-.53v0a.53.53 0 0 1 .528.53v.172H3.464m7.125.463a.238.238 0 0 1-.238.238.238.238 0 0 1-.238-.238.238.238 0 0 1 .238-.238.238.238 0 0 1 .238.238zm-4.57.238V5.65m0 .873a.53.53 0 0 1-.528.53v0a.53.53 0 0 1-.53-.53v-.344a.53.53 0 0 1 .53-.53v0a.53.53 0 0 1 .529.53m1.916-1.243v1.852c0 .146.118.264.264.264h.08M9.653 5.65v.873a.53.53 0 0 1-.529.53v0a.53.53 0 0 1-.53-.53V5.65m1.06.873v.714a.53.53 0 0 1-.53.53v0a.527.527 0 0 1-.374-.155M2.11 4.935V7.05h1.06m-.655-5.596h7.672c.587 0 1.059.472 1.059 1.059v7.673c0 .586-.472 1.058-1.059 1.058H2.514a1.056 1.056 0 0 1-1.059-1.058V2.514c0-.587.472-1.059 1.059-1.059z" class="t"/></svg>
