<?xml version="1.0" encoding="UTF-8" standalone="no"?>
<svg
   id="Layer_1"
   data-name="Layer 1"
   version="1.1"
   viewBox="0 0 48 48"
   xml:space="preserve"
   xmlns="http://www.w3.org/2000/svg"
   xmlns:svg="http://www.w3.org/2000/svg"><defs
     id="defs1"><style
       id="style1">
      .cls-1 {
        fill: none;
        stroke: #fff;
        stroke-linecap: round;
        stroke-linejoin: round;
      }
    </style></defs><path
     style="fill:none;stroke:#ffffff;stroke-width:1.13386;stroke-linecap:round;stroke-linejoin:round;stroke-dashoffset:0.5"
     d="m 19.911721,23.651688 c 0.564517,-1.66539 1.168362,-3.373073 1.114313,-5.313255 -0.114422,-4.107416 -4.780353,-7.219537 -8.059335,-7.20529 -2.903746,0.01262 -7.6968479,2.746965 -7.3855657,7.956922 1.2435491,20.813388 22.0204387,26.337828 35.3211417,15.810172 -5.28651,0.6134 -9.398239,-0.742992 -12.33519,-4.069175 2.108409,-0.822752 3.84395,-1.406732 6.685881,-0.492449 3.938547,-4.620099 7.269399,-9.312308 7.178251,-14.410582 z"
     id="path1" /><path
     style="fill:none;stroke:#ffffff;stroke-width:1.13386;stroke-linecap:round;stroke-linejoin:round;stroke-dashoffset:0.5"
     d="m 13.536812,14.113749 1.166143,3.784074"
     id="path2" /><path
     style="fill:none;stroke:#ffffff;stroke-width:1.13386;stroke-linecap:round;stroke-linejoin:round;stroke-dashoffset:0.5"
     d="m 16.128239,15.254154 -3.602083,1.166324"
     id="path3" /><path
     style="fill:none;stroke:#ffffff;stroke-width:1.13386;stroke-linecap:round;stroke-linejoin:round;stroke-dashoffset:0.5"
     d="m 14.819893,11.4118 3.588802,-3.5184462 0.103657,3.9395842 2.565511,-1.606936 -1.587308,4.260132"
     id="path4" /><path
     style="fill:none;stroke:#ffffff;stroke-width:1.13386;stroke-linecap:round;stroke-linejoin:round;stroke-dashoffset:0.5"
     d="M 21.026034,18.338433 36.31545,12.221712 35.460279,18.338433"
     id="path5" /></svg>
