<?xml version="1.0" encoding="utf-8"?>
<svg
	version="1.1"
	xmlns="http://www.w3.org/2000/svg"
	xmlns:xlink="http://www.w3.org/1999/xlink"
	x="0%" y="0%"
	width="100%" height="100%"
	viewBox="0 0 48.0 48.0"
	enable-background="new 0 0 48.0 48.0"
	xml:space="preserve">
	<path
		fill="#FFFFFF"
		stroke="#FFFFFF"
		fill-opacity="0.000"
		stroke-opacity="1.000"
		fill-rule="nonzero"
		stroke-width="0.57369006"
		stroke-linejoin="miter"
		stroke-linecap="square"
		d="M24.34,3.51C27.45,3.51,29.98,6.07,29.98,9.23C29.98,12.39,27.45,14.95,24.34,14.95C21.22,14.95,18.70,12.39,18.70,9.23C18.70,6.07,21.22,3.51,24.34,3.51z"/>
	<path
		fill="#FFFFFF"
		stroke="#FFFFFF"
		fill-opacity="0.000"
		stroke-opacity="1.000"
		fill-rule="nonzero"
		stroke-width="0.57369006"
		stroke-linejoin="round"
		stroke-linecap="square"
		d="M24.69,16.74L35.16,16.73L35.15,28.02L29.84,28.01L29.84,23.12Q29.55,22.03,28.38,22.07L28.38,36.38Q28.46,37.28,29.16,37.59L29.15,42.01L24.27,42.05L19.39,42.01L19.38,37.59Q20.08,37.28,20.16,36.38L20.16,22.07Q18.99,22.03,18.70,23.12L18.70,28.01L13.39,28.02L13.38,16.73L24.69,16.74z"/>
</svg>