<?xml version="1.0" encoding="UTF-8" standalone="no"?><svg viewBox="0 0 48 48" version="1.1" xmlns="http://www.w3.org/2000/svg"><defs><style>.c{fill:none;stroke:#fff;stroke-linecap:round;stroke-linejoin:round;}</style></defs><circle class="c" cx="24" cy="24" r="21.5"/><polyline class="c" points="7.92523 19.90678 7.92523 27.90678 11.92523 27.90678"/><path class="c" d="m 17.904636,26.969491 c -0.3,0.6 -1,1 -1.7,1 v 0 c -1.1,0 -2,-0.9 -2,-2 v -1.3 c 0,-1.1 0.9,-2 2,-2 v 0 c 1.1,0 2,0.9 2,2 v 0.7 h -4"/><path class="c" d="m 26.290829,25.265031 v 0 c 0,1.5 -1.2,2.7 -2.7,2.7 v 0 c -1.5,0 -2.7,-1.2 -2.7,-2.6 v -2.7 c 0,-1.5 1.2,-2.7 2.7,-2.6 v 0 c 1.5,0 2.6,1.2 2.6,2.6 v 0"/><path class="c" d="m 33.407066,25.954417 c 0,1.1 -0.9,2 -2,2 v 0 c -1.1,0 -2,-0.9 -2,-2 v -1.3 c 0,-1.1 0.9,-2 2,-2 v 0 c 1.1,0 2,0.9 2,2"/><line class="c" x1="33.407066" y1="27.954414" x2="33.407066" y2="22.554417"/><path class="c" d="m 36.674517,24.626326 c 0,-1.1 0.9,-2 2,-2 v 0 c 1.1,0 2,0.9 2,2 v 1.3 c 0,1.1 -0.9,2 -2,2 v 0 c -1.1,0 -2,-0.9 -2,-2"/><line class="c" x1="36.674519" y1="28.026323" x2="36.674519" y2="20.026327"/></svg>
