<?xml version="1.0" encoding="UTF-8"?><svg id="a" xmlns="http://www.w3.org/2000/svg" viewBox="0 0 48 48"><defs><style>.d{fill:none;stroke:#fff;stroke-linecap:round;stroke-linejoin:round;}</style></defs><path class="d" d="m31.662 24h-29.162"/><path class="d" d="m4.8438 28.869v3.8809a4.0004 4.0004 0 0 0 2 3.4648l15.156 8.75a4.0004 4.0004 0 0 0 4 0l15.156-8.75a4.0004 4.0004 0 0 0 2-3.4648v-17.5a4.0004 4.0004 0 0 0-2-3.4648l-15.156-8.75a4.0004 4.0004 0 0 0-4 0v0l-15.156 8.75a4.0004 4.0004 0 0 0-2 3.4648l1e-7 3.8809"/><path class="d" d="M 24,16.3375 31.6625,24 24,31.6625"/></svg>
