<?xml version="1.0" encoding="UTF-8"?><svg id="a" xmlns="http://www.w3.org/2000/svg" viewBox="0 0 48 48"><defs><style>.b{fill:none;stroke:#fff;stroke-linecap:round;stroke-linejoin:round;}</style></defs><path class="b" d="m40.123 9.5455a11.4 11.4 0 00-16.123-6e-7 11.4 11.4 0 00-16.123 6e-7 11.4 11.4 0 00-6e-7 16.123l16.123 16.123 16.123-16.123a11.4 11.4 0 00-1e-6-16.123z"/><path class="b" d="m13.252 31.042 16.123-16.123c1.484-1.484 3.89-1.484 5.374 0 1.484 1.484 1.484 3.89 0 5.374l-12.092 12.092"/><path class="b" d="m18.625 14.919c-1.484-1.484-3.89-1.484-5.374 0-1.484 1.484-1.484 3.89 0 5.374l10.749-10.748"/></svg>
