<?xml version="1.0" encoding="UTF-8"?>
<!-- Created with Inkscape (http://www.inkscape.org/) -->
<svg version="1.1" viewBox="0 0 48 48" xml:space="preserve" xmlns="http://www.w3.org/2000/svg"><defs><style>.a{fill:none;stroke:#fff;stroke-linecap:round;stroke-linejoin:round;}</style></defs><circle class="a" cx="24" cy="24" r="21.5"/><path transform="matrix(.60718 0 0 .60718 -92.881 13.64)" d="m182.88 4.8847c0.39645 1.1069 0.79289 2.2138 1.4169 3.0976s1.4756 1.5445 2.5657 2.2049c1.09 0.6604 2.4185 1.3205 3.8868 1.7904s3.0764 0.74973 4.9677 0.8185c1.8913 0.06878 4.0656-0.07346 5.95-0.64621 1.8844-0.57275 3.4786-1.576 4.7718-2.7865 1.2932-1.2105 2.2852-2.6283 3.0214-4.1627s1.2163-3.1854 1.3906-4.6969c0.17429-1.5115 0.0427-2.8833-0.3402-4.0742-0.38293-1.1909-1.0172-2.2007-1.8394-2.8386-0.82221-0.63788-1.8323-0.90377-2.8832-0.89981-1.0508 0.00396-2.1424 0.27777-3.0534 0.80658s-1.6417 1.3126-2.273 2.1473c-0.63128 0.83471-1.1632 1.7203-1.6074 2.8432-0.44421 1.1229-0.80067 2.483-1.789 8.2355-0.9883 5.7525-2.6084 15.897-3.6186 21.455-1.0102 5.5576-1.4105 6.5279-2.0318 7.4504s-1.4636 1.797-2.4092 2.5162c-0.94562 0.7192-1.9945 1.283-3.3724 1.5895-1.3779 0.30648-3.0846 0.35559-4.6187 0.18662s-2.8955-0.556-4.0563-1.1503c-1.1607-0.59431-2.1207-1.3958-2.5747-2.3053-0.45402-0.90944-0.4021-1.9267 4e-3 -2.7455 0.40635-0.81878 1.1671-1.439 2.0036-1.9235 0.83656-0.48446 1.7489-0.83313 3.0432-1.1443 1.2943-0.31113 2.9704-0.58471 4.6116-0.6507 1.6412-0.06599 3.2473 0.07562 5.6152 0.8375 2.3678 0.76187 5.4108 2.1058 8.5498 3.9752 3.139 1.8694 6.3283 4.2441 9.5178 6.6189" fill-opacity="0" stroke="#fff" stroke-linecap="round" stroke-linejoin="round" stroke-width="1.647"/></svg>
