<svg xmlns="http://www.w3.org/2000/svg" xml:space="preserve" viewBox="0 0 48 48"><path d="M3.3383989 18.914485c.8975619 2.169502.1550133 4.808664.1645858 7.64114.00344 1.01768 1.0298234 1.166953 1.6876457.609977l2.9422537-2.491195 1.9927759-.879449c2.009828-1.37582 1.110839-3.693974-.1933705-3.344014-2.713998.728252-2.6268221 4.529222-.8466492 5.367733 1.6379937.771542 3.5580207-.03821 4.9238567-2.059075M14.397227 19.47578c-.367257 1.977474-.442194 4.932553.284677 5.680922.435538.448419.566733-1.677215 1.266518-3.521161.808024-2.129157 2.436654-3.187711 2.285914-1.931411-.239865 1.999087-.320172 3.787635.409472 4.909655.288049.442954.505749-2.250485 1.299298-3.79841 1.280602-2.497993 2.527321-2.630837 2.305672-1.323824-.331161 1.952781-.511623 4.862251.838877 4.630573.869131-.149101 1.847073-1.050666 2.47769-1.85179M27.790962 18.232346c-1.334316-.05541-2.198323 1.169151-2.203483 2.869069-.0052 1.699918.524382 2.829926 2.14623 2.829926 1.189509 0 2.109321-1.129385 2.11031-2.88531.000989-1.755923-.760893-2.760026-2.053057-2.813685" style="fill:none;stroke:#fff;stroke-width:1;stroke-linecap:round;stroke-linejoin:round;stroke-dashoffset:1.3;stroke-opacity:1"/><path d="M28.335002 18.448556c.223751 3.260477 4.271082 3.142703 5.064469.156029.272428-1.025548-.374036-.223772-.586008 1.132973-.259052 1.658076-.296526 5.271596.297402 3.708029.424361-1.117162.912396-2.091979 1.584961-3.191132 1.117233-1.825867 2.762657-3.080758 2.472839-1.549288-.309457 1.635256-.491312 3.409618-.413858 4.905765M42.30196 20.069542c.721748 0 2.359639-1.192638 2.359639-2.014981 0-.822341-.706834-1.710939-2.115303-1.718767-1.408469-.0078-2.876845 1.006778-2.296039 2.407.473835 1.142332 3.869731 1.58907 4.036386 3.485152.09545 1.085922-1.193689 1.972238-2.29108 1.921669-1.970869-.09081-2.581362-.806815-2.62756-1.744901-.05904-1.198822 1.469684-1.98973 2.933957-2.335172M10.919102 31.664253c6.742956-1.906477 18.889894-3.458297 27.757857-2.69978" style="fill:none;stroke:#fff;stroke-width:1;stroke-linecap:round;stroke-linejoin:round;stroke-dashoffset:1.3;stroke-opacity:1"/></svg>