<svg xmlns="http://www.w3.org/2000/svg" xml:space="preserve" id="svg1" version="1.1" viewBox="0 0 48 48"><defs id="defs1"><style id="style1">.a{fill:none;stroke:#fff;stroke-linecap:round;stroke-linejoin:round}</style></defs><path id="path57213" d="M43.366 28.119v2.278" style="fill:none;stroke:#fff;stroke-width:1;stroke-linecap:round;stroke-linejoin:round;stroke-opacity:1"/><path id="path57211" d="M40.783 28.119v2.278" style="fill:none;stroke:#fff;stroke-width:1;stroke-linecap:round;stroke-linejoin:round;stroke-opacity:1"/><path id="path57209" d="M38.2 28.119v2.278" style="fill:none;stroke:#fff;stroke-width:1;stroke-linecap:round;stroke-linejoin:round;stroke-opacity:1"/><path id="path57207" d="M35.618 28.119v2.278" style="fill:none;stroke:#fff;stroke-width:1;stroke-linecap:round;stroke-linejoin:round;stroke-opacity:1"/><path id="path57205" d="M33.036 28.119v2.278" style="fill:none;stroke:#fff;stroke-width:1;stroke-linecap:round;stroke-linejoin:round;stroke-opacity:1"/><path id="path57203" d="M30.453 28.119v2.278" style="fill:none;stroke:#fff;stroke-width:1;stroke-linecap:round;stroke-linejoin:round;stroke-opacity:1"/><path id="path57201" d="M27.87 28.119v2.278" style="fill:none;stroke:#fff;stroke-width:1;stroke-linecap:round;stroke-linejoin:round;stroke-opacity:1"/><path id="path57199" d="M25.288 28.119v2.278" style="fill:none;stroke:#fff;stroke-width:1;stroke-linecap:round;stroke-linejoin:round;stroke-opacity:1"/><path id="path57197" d="M22.705 28.119v2.278" style="fill:none;stroke:#fff;stroke-width:1;stroke-linecap:round;stroke-linejoin:round;stroke-opacity:1"/><path id="path57195" d="M20.123 28.119v2.278" style="fill:none;stroke:#fff;stroke-width:1;stroke-linecap:round;stroke-linejoin:round;stroke-opacity:1"/><path id="path57193" d="M17.54 28.119v2.278" style="fill:none;stroke:#fff;stroke-width:1;stroke-linecap:round;stroke-linejoin:round;stroke-opacity:1"/><path id="path57191" d="M14.957 28.119v2.278" style="fill:none;stroke:#fff;stroke-width:1;stroke-linecap:round;stroke-linejoin:round;stroke-opacity:1"/><path id="path57189" d="M12.375 28.119v2.278" style="fill:none;stroke:#fff;stroke-width:1;stroke-linecap:round;stroke-linejoin:round;stroke-opacity:1"/><path id="path57187" d="M9.792 28.119v2.278" style="fill:none;stroke:#fff;stroke-width:1;stroke-linecap:round;stroke-linejoin:round;stroke-opacity:1"/><path id="path57185" d="M7.21 28.119v2.278" style="fill:none;stroke:#fff;stroke-width:1;stroke-linecap:round;stroke-linejoin:round;stroke-opacity:1"/><path id="path57183" d="M4.627 28.119v2.278" style="fill:none;stroke:#fff;stroke-width:1;stroke-linecap:round;stroke-linejoin:round;stroke-opacity:1"/><path id="path57181" d="M15.608 19.766v2.643c0 .885.682 1.602 1.524 1.602h0c.841 0 1.523-.717 1.523-1.602v-2.643" style="fill:none;stroke:#fff;stroke-width:1;stroke-linecap:round;stroke-linejoin:round;stroke-opacity:1"/><path id="path57179" d="M18.655 22.409v1.602" style="fill:none;stroke:#fff;stroke-width:1;stroke-linecap:round;stroke-linejoin:round;stroke-opacity:1"/><path id="path57177" d="M41.98 21.368c0-.885.682-1.602 1.523-1.602h0" style="fill:none;stroke:#fff;stroke-width:1;stroke-linecap:round;stroke-linejoin:round;stroke-opacity:1"/><path id="path57175" d="M41.98 19.766v4.245" style="fill:none;stroke:#fff;stroke-width:1;stroke-linecap:round;stroke-linejoin:round;stroke-opacity:1"/><path id="path57173" d="M4.617 23.309c.374.511.842.702 1.494.702h.903c.84 0 1.52-.716 1.52-1.599v-.007c0-.883-.68-1.598-1.52-1.598h-.996c-.84 0-1.521-.717-1.521-1.6v0c0-.886.682-1.604 1.525-1.604h.897c.652 0 1.12.19 1.494.702" style="fill:none;stroke:#fff;stroke-width:1;stroke-linecap:round;stroke-linejoin:round;stroke-opacity:1"/><path id="path57171" d="M39.695 22.409c0 .885-.683 1.602-1.524 1.602h0c-.841 0-1.523-.717-1.523-1.602v-1.041c0-.885.682-1.602 1.523-1.602h0c.841 0 1.524.717 1.524 1.602" style="fill:none;stroke:#fff;stroke-width:1;stroke-linecap:round;stroke-linejoin:round;stroke-opacity:1"/><path id="path57169" d="M39.695 24.01v-4.244" style="fill:none;stroke:#fff;stroke-width:1;stroke-linecap:round;stroke-linejoin:round;stroke-opacity:1"/><path id="path57167" d="M23.931 24.01v-2.642c0-.885-.682-1.602-1.523-1.602h0c-.842 0-1.524.717-1.524 1.602" style="fill:none;stroke:#fff;stroke-width:1;stroke-linecap:round;stroke-linejoin:round;stroke-opacity:1"/><path id="path57165" d="M20.884 24.01v-4.244" style="fill:none;stroke:#fff;stroke-width:1;stroke-linecap:round;stroke-linejoin:round;stroke-opacity:1"/><path id="path57163" d="M29.068 21.368c0-.885-.682-1.602-1.523-1.602h0c-.842 0-1.524.717-1.524 1.602v1.041c0 .885.682 1.602 1.524 1.602h0c.841 0 1.523-.717 1.523-1.602" style="fill:none;stroke:#fff;stroke-width:1;stroke-linecap:round;stroke-linejoin:round;stroke-opacity:1"/><path id="path57161" d="M29.068 24.01v-6.407" style="fill:none;stroke:#fff;stroke-width:1;stroke-linecap:round;stroke-linejoin:round;stroke-opacity:1"/><path id="path57159" d="M31.593 21.368c0-.885.683-1.602 1.524-1.602h0c.841 0 1.523.717 1.523 1.602v1.041c0 .885-.682 1.602-1.523 1.602h0c-.841 0-1.524-.717-1.524-1.602" style="fill:none;stroke:#fff;stroke-width:1;stroke-linecap:round;stroke-linejoin:round;stroke-opacity:1"/><path id="path57157" d="M31.593 24.01v-6.407" style="fill:none;stroke:#fff;stroke-width:1;stroke-linecap:round;stroke-linejoin:round;stroke-opacity:1"/><path id="path1847" d="M10.471 21.368c0-.885.682-1.602 1.524-1.602.84 0 1.523.717 1.523 1.602v1.041c0 .885-.682 1.602-1.523 1.602-.842 0-1.524-.717-1.524-1.602z" style="fill:none;stroke:#fff;stroke-width:1;stroke-linecap:round;stroke-linejoin:round;stroke-opacity:1"/></svg>