<?xml version="1.0" encoding="UTF-8"?><svg id="a" xmlns="http://www.w3.org/2000/svg" viewBox="0 0 48 48"><defs><style>.d{fill:none;stroke:#fff;stroke-linecap:round;stroke-linejoin:round;}</style></defs><circle class="d" cx="24" cy="24" r="21.5"/><path class="d" d="m32.393 27.262v-6.5306l3.3322 6.5378 3.3322-6.5278v6.5278"/><line class="d" x1="8.9428" x2="13.358" y1="20.731" y2="27.269"/><line class="d" x1="13.358" x2="8.9428" y1="20.731" y2="27.269"/><path class="d" d="m17.554 24c0.92018 0 1.6661 0.73174 1.6661 1.6345 0 0.90271-0.7459 1.6344-1.6661 1.6344h-2.749v-6.5378h2.749c0.92018 0 1.6661 0.73174 1.6661 1.6345 0 0.90271-0.7459 1.6344-1.6661 1.6344z"/><line class="d" x1="17.554" x2="14.809" y1="24" y2="24"/><rect class="d" x="20.668" y="20.731" width="4.4151" height="6.5378" rx="2.2076" ry="2.1656"/><rect class="d" x="26.53" y="20.731" width="4.4151" height="6.5378" rx="2.2076" ry="2.1656"/></svg>
