<svg xmlns="http://www.w3.org/2000/svg" viewBox="0 0 48 48"><defs><style>.a{fill:none;stroke:#fff;stroke-linecap:round;stroke-linejoin:round}</style></defs><path class="a" d="M42.5 33.525V5.5h-37v37h28.023"/><path class="a" d="M40.361 32.643a18.489 18.489 0 1 0-7.762 7.741"/><circle class="a" cx="39" cy="39" r="6.5"/><path class="a" d="M10.278 19.909v8.687h3.794m13.656 0V19.91h1.954a3.8 3.8 0 0 1 3.801 3.8v1.086a3.8 3.8 0 0 1-3.8 3.801Zm-11.544-4.274 4.414-4.414 4.414 4.414-4.414 4.415zm4.414 4.415-1.181 1.181m6.777-6.776-1.182 1.181m-8.828 0-1.181 1.181"/><circle class="a" cx="20.008" cy="15.82" r="2.401"/><path class="a" d="M9.405 19.909h1.745m-1.745 8.687h.873m16.577 0h.873m-.873-8.687h.873m7.945 0v8.687h3.795M34.8 19.909h1.745M34.8 28.596h.873"/><path class="r" style="fill:none;stroke:#fff;stroke-linecap:round;stroke-linejoin:round;stroke-width:1px" d="M37.148 39.002h2.282m1.218 3.5h-3.5v-7h3.5"/></svg>