<svg xmlns="http://www.w3.org/2000/svg" xml:space="preserve" id="svg1" width="48" height="48" viewBox="0 0 48 48"><defs id="defs1"><style id="style1">.k{fill:none;stroke:#fff;stroke-linecap:round;stroke-linejoin:round}</style></defs><g id="layer5"><path id="path11" d="M15.85 15.352c-.837.09-1.642-.082-2.435.18-1.593.462-1.963 2.984-.718 3.867 1.923.19.562-2.715 2.525-2.104q.87.005 1.737.018m6.122 3.271c-2.982-.112-5.684-1.938-6.967-4.728-.944-1.22-.244-5.235-2.624-3.696-1.66 1.276-3.94 2.68-5.982 1.313-1.036-.737-2.046-1.654-2.45-2.95-.848-1.94 1.03-3.604 2.551-4.461 1.911-1.174 3.82-3.144 6.266-2.66 2.231.192 3.368 2.293 4.565 3.886 1.609 1.38 3.467 2.562 5.423 3.375 3.18.986 6.843-.13 9.748 1.814 2.188 1.463 5.27 2.009 7.527.386.83-.537 2.692-2.394 2.152-.273-1.082 1.428-2.15 2.906-3.526 4.075-1.85 1.49-4.023 2.69-6.37 3.139-1.265-.166-.471-2.222-.612-3.054m.034 2.965c-.783 1.808-1.585 4.007-3.329 5.102-.87 1.393.198 4.503-2.519 4.072-1.643-.355-4.704.923-5.331-1.088.641-1.58 4.285-.681 3-3.127-.828-1.252-1.542-2.58-1.543-4.12-.176-1.798.3-3.592 1.203-5.142" style="fill:#000;fill-opacity:0;stroke:#fff;stroke-width:1;stroke-linecap:round;stroke-linejoin:round;stroke-dasharray:none;stroke-opacity:1"/><g id="g11" style="stroke-width:1;stroke-dasharray:none" transform="translate(.111 11.936)"><path id="c" d="M13.355 14.887h2.366c.783 0 1.42.636 1.42 1.42v15.372c0 .792-.643 1.434-1.435 1.434H13.34a1.42 1.42 0 0 1-1.42-1.42V16.322c0-.792.644-1.434 1.435-1.434" class="k" style="stroke-width:1;stroke-dasharray:none"/><path id="d" d="M11.9 30.889H9.045c-.786 0-1.42-.64-1.42-1.434V18.438c0-.795.634-1.434 1.42-1.434h2.857" class="k" style="stroke-width:1;stroke-dasharray:none"/><path id="e" d="M7.625 21.614H4.5v5.077h3.125" class="k" style="stroke-width:1;stroke-dasharray:none"/><path id="f" d="M32.294 14.887h2.366c.783 0 1.42.636 1.42 1.42v15.372c0 .792-.644 1.434-1.435 1.434h-2.366a1.42 1.42 0 0 1-1.42-1.42V16.322c0-.792.643-1.434 1.435-1.434" class="k" style="stroke-width:1;stroke-dasharray:none"/><path id="g" d="M36.1 17.111h2.856c.786 0 1.42.64 1.42 1.434v11.017c0 .795-.634 1.434-1.42 1.434h-2.857" class="k" style="stroke-width:1;stroke-dasharray:none"/><path id="h" d="M40.375 26.691H43.5v-5.077h-3.125" class="k" style="stroke-width:1;stroke-dasharray:none"/><path id="i" d="M17.14 21.614h13.72" class="k" style="stroke-width:1;stroke-dasharray:none"/><path id="j" d="M17.14 26.691h13.72" class="k" style="stroke-width:1;stroke-dasharray:none"/></g></g></svg>