<?xml version="1.0" encoding="UTF-8"?><svg id="a" xmlns="http://www.w3.org/2000/svg" viewBox="0 0 48 48"><defs><style>.d{fill:none;stroke:#fff;stroke-linecap:round;stroke-linejoin:round;}</style></defs><path class="d" d="m14.454 27.546c-4.5541-4.5541-5.257-11.691-1.6789-17.046 3.5782-5.3551 10.441-7.4368 16.391-4.9722s9.3309 8.7893 8.0744 15.106c-1.2565 6.3168-6.8001 10.866-13.241 10.866h-7c-0.554 0-1 0.446-1 1v2c0 0.554 0.446 1 1 1h13c0.554 0 1 0.446 1 1v2c0 0.554-0.446 1-1 1h-11.5c-0.554 0-1 0.446-1 1v2c0 0.554 0.446 1 1 1h11"/><path class="d" d="m32.5 18a8.5 8.5 0 0 1-5.2472 7.853 8.5 8.5 0 0 1-9.2632-1.8426 8.5 8.5 0 0 1-1.8426-9.2632 8.5 8.5 0 0 1 7.853-5.2472"/></svg>
