<svg xmlns="http://www.w3.org/2000/svg" id="Layer_1" data-name="Layer 1" viewBox="0 0 48 48">
  <defs>
    <style>
      .cls-1{fill:none;stroke:#fff;stroke-linecap:round;stroke-linejoin:round}
    </style>
  </defs>
  <path d="m24.1 33.75 1.68-.92v6.72M15.46 36.19h2.18M15.46 39.55v-6.72h3.36" class="cls-1"/>
  <circle cx="30.31" cy="37.33" r="2.23" class="cls-1"/>
  <path d="M32.34 33.65c-.37-.49-.94-.82-1.87-.82h-.16c-1.23 0-2.23 1-2.23 2.23v2.27M22.16 31.93l-2.51 8.53" class="cls-1"/>
  <circle cx="24" cy="17.99" r="9.87" class="cls-1"/>
  <path d="M42.96 31.11C42.96 13.94 32.61 4.69 24 4.69S5.04 13.94 5.04 31.11c0 0-.13 8.25 1.75 13h34.42c1.88-4.3 1.75-13 1.75-13" class="cls-1"/>
</svg>
