<svg xmlns="http://www.w3.org/2000/svg" xml:space="preserve" width="48" height="48"><path fill="none" stroke="#fff" stroke-linecap="round" stroke-linejoin="round" d="M17.21 33.449a2 2 0 0 1-3.738-.99v-1.3a2 2 0 1 1 4 0v.65h-4m21.974-.651a2 2 0 1 1 4 0v3.3m-4-8v8m-4.506-5.169h2.1m-1.05-1.78v5.95a1 1 0 0 0 1 1h.3m-13.662-.001v-5.3m4 5.3v-3.3a2 2 0 1 0-4 0m7.347-17.616 6.226 8.231m0 0v-8.231m-6.226 8.231v-8.231m8.333 0v8.231m0-4.115h2.069m-2.069-4.116h4.128m-4.128 8.231h4.128M22.8 13.542v8.231m-2.059-8.231h4.128m-4.128 8.231h4.128m-11.412-8.231v8.231h4.128m11.2 4.96-3 10.15M9.477 42.999h31A2.517 2.517 0 0 0 43 40.477V7.522a2.517 2.517 0 0 0-2.522-2.523H9.477zH7.522A2.517 2.517 0 0 1 5 40.477V7.522a2.517 2.517 0 0 1 2.522-2.523h1.955" class="t"/></svg>
