<svg xmlns="http://www.w3.org/2000/svg" xml:space="preserve" width="48" height="48"><path fill="none" stroke="#fff" stroke-linecap="round" stroke-linejoin="round" d="M33.11 37.758a1.45 2.498 59.62 0 1-2.628-.385 1.45 2.498 59.62 0 1 1.859-2.486 1.45 2.498 59.62 0 1 2.628.386 1.45 2.498 59.62 0 1-1.859 2.485m-7.242-2.24a1.45 2.498 59.62 0 1-2.628-.385 1.45 2.498 59.62 0 1 1.859-2.485 1.45 2.498 59.62 0 1 2.628.385 1.45 2.498 59.62 0 1-1.86 2.486m-10.271-1.68a2.498 1.451 74.612 0 1-1.053 2.439 2.498 1.451 74.612 0 1-1.92-2.439 2.498 1.451 74.612 0 1 1.053-2.438 2.498 1.451 74.612 0 1 1.92 2.438m3.297-5.803a2.498 1.451 74.612 0 1-1.053 2.44 2.498 1.451 74.612 0 1-1.92-2.44 2.498 1.451 74.612 0 1 1.053-2.438 2.498 1.451 74.612 0 1 1.92 2.438m-7.242-2.81a2.498 1.451 74.612 0 1-1.053 2.438 2.498 1.451 74.612 0 1-1.92-2.439 2.498 1.451 74.612 0 1 1.053-2.438 2.498 1.451 74.612 0 1 1.92 2.438m3.297-5.804a2.498 1.451 74.612 0 1-1.053 2.439 2.498 1.451 74.612 0 1-1.92-2.439 2.498 1.451 74.612 0 1 1.053-2.438 2.498 1.451 74.612 0 1 1.92 2.438m16.816-2.554a2.662 2.307 42.895 0 1-2.124 2.478 2.662 2.307 42.895 0 1-2.833-2.478 2.662 2.307 42.895 0 1 2.123-2.478 2.662 2.307 42.895 0 1 2.834 2.478m8.98 12.664L37.08 36c-1.32 2.33-2.911 3.372-4.846 3.734l-12.71 2.377m0 0-1.948.357m1.948-.357-1.948.357m-5.22-2.687c1.24 2.73 3.179 3.018 4.84.088l3.667-6.47c1.458-2.779 1.37-5.042.68-7.104L15.72 13.464c-1.272-2.802-1.273-4.86 2.292-5.533m5.532 22.938c-.982.473-1.936 1.216-2.681 2.53m5.533-3.436c-3.05.576-3.735-1.205-4.853-3.667m4.853 3.667 9.706-1.834c6.2-1.17 7.141-2.804 5.217-7.043L35.495 8.254c-1.499-3.301-3.274-3.007-7.778-2.156L18.01 7.93m-5.332 2.914c-.661.812-1.25 1.84-2.029 3.212l-3.667 6.47c-.985 1.74-1.876 3.284-.451 6.423l5.823 12.832"/></svg>
