<?xml version="1.0" encoding="UTF-8" standalone="no"?>
<svg
   viewBox="0 0 48 48"
   version="1.1"
   id="svg8"
   xmlns="http://www.w3.org/2000/svg"
   xmlns:svg="http://www.w3.org/2000/svg">
  <defs
     id="defs8" />
  <path
     d="M40.5 5.5h-33a2 2 0 00-2 2v33a2 2 0 002 2h33a2 2 0 002-2v-33a2 2 0 00-2-2z"
     fill="none"
     stroke="#fff"
     stroke-linecap="round"
     stroke-linejoin="round"
     id="path1" />
  <path
     d="M18.184 5.5c-.166 2.872-.388 5.713.025 8.908.404 3.115 1.27 6.08 1.326 9.18.032 1.76.003 3.657 1.851 5.152 2.237 1.81 3.904 4.062 5.778 6.128 1.017 1.12 1.702 1.473 2.752 1.376 1.652-.153 3.713-.09 4.977-.075 1.322.015 2.602-.792 3.252-1.951 1.114-1.987 2.802-3.318 4.355-4.803"
     fill="none"
     stroke="#fff"
     stroke-linecap="round"
     stroke-linejoin="round"
     stroke-dashoffset=".5"
     id="path2" />
  <path
     d="M21.386 28.74l.25 8.73c-2.53 2.12-5.607 3.556-8.654 5.03"
     fill="none"
     stroke="#fff"
     stroke-linecap="round"
     stroke-linejoin="round"
     stroke-dashoffset=".5"
     id="path3" />
  <path
     d="M5.5 33.517c3.45 1.752 6.996.481 8.357-.925l-2.901-2.251 8.854.025-3.777 8.554-.525-3.552c-3.23 1.185-6.593 2.846-10.008-.25M19.435 8.88c3.795-1.983 6.387.299 9.53.625M42.5 7.5c-2.852.487-5.926.815-7.632 2.13m-6.528 3.227c-2.629.664-5.311 1.514-7.229-.275 3.286-3.328 5.241-1.464 7.229.275zm7.153-.15c.739.502 4.375.898 6.354-.51-1.056-1.388-3.942-2.81-6.354.51z"
     fill="none"
     stroke="#fff"
     stroke-linecap="round"
     stroke-linejoin="round"
     stroke-dashoffset=".5"
     id="path4" />
  <circle
     cx="13.073"
     cy="13.707"
     r="5"
     fill="none"
     stroke="#fff"
     stroke-linecap="round"
     stroke-linejoin="round"
     stroke-dashoffset=".5"
     id="circle4" />
  <path
     d="M16.11 17.68c.583.629.833 1.176 1.55 3.556.207.692.99.735 1.77.656M14.533 5.5c-.164 1.075-.746 1.921-.251 3.356m6.516 11.18l.85.9m1.026 1.214l.963 1.025m.851 1.3l.112 1.113m.238 1.326l.15 1.513m.212 1.313l.088 1.251m15.94-8.568l-.654.765m-.884 1.362l-.124 1.184m-.142 1.46l-.106 1.247m-.252 1.468l-.08 1.087M30.237 17.18c-.72 1.802-3.201 3.428-1.397 5.482m4.624-5.482c.584 1.88 2.993 3.306 1.53 5.482m-5.032-1.012c.775.273 1.085 1.155 1.974 1.155.886 0 1.228-.882 1.94-1.156m-7.452 5.447s1.793 1.166 2.416 2.045c.267.377 1.134.356 1.897.168a5.346 5.346 0 012.762.1c.582.186 1.05.194 1.707-.468.703-.709 2.75-1.823 2.75-1.845"
     fill="none"
     stroke="#fff"
     stroke-linecap="round"
     stroke-linejoin="round"
     stroke-dashoffset=".5"
     id="path5" />
  <path
     d="M26.424 27.096c3.218.172 2.436-.165 3.484-.166.503 0 1.852.152 2.405.166.66.018 1.537-.22 2.394-.203.922.017 1.749.2 3.249.203"
     fill="none"
     stroke="#fff"
     stroke-linecap="round"
     stroke-linejoin="round"
     stroke-dashoffset=".5"
     id="path6" />
  <path
     class="prefix__prefix__prefix__t"
     d="M10.113 15.425c.28.234.582.342 1.26.342h.159c.56 0 1.014-.454 1.014-1.014h0c0-.56-.454-1.013-1.014-1.013m-1.419-1.69c.28-.233.583-.34 1.261-.338h.158c.56 0 1.014.455 1.014 1.014h0c0 .56-.454 1.014-1.014 1.014"
     fill="none"
     stroke="#fff"
     stroke-linecap="round"
     stroke-linejoin="round"
     id="path7" />
  <path
     class="prefix__prefix__prefix__t"
     fill="none"
     stroke="#ffffff"
     stroke-linecap="round"
     stroke-linejoin="round"
     d="m 16.08665,12.189721 -2.053878,3.100078"
     id="path8"
     style="stroke-width:1" />
  <rect
     class="prefix__prefix__prefix__t"
     x="13.718"
     y="11.71224"
     width="2.6864641"
     height="4.0550399"
     rx="1.343232"
     ry="1.343232"
     fill="none"
     stroke="#ffffff"
     stroke-linecap="round"
     stroke-linejoin="round"
     id="rect8"
     style="stroke-width:1" />
</svg>
