<svg xmlns="http://www.w3.org/2000/svg" xml:space="preserve" width="48" height="48"><path fill="none" stroke="#fff" stroke-linecap="round" stroke-linejoin="round" d="M21.373 15.828c-.215-2.825-.375-5.658-1.284-8.348-.303-.895-1.475-.94-1.536.196-.159 2.949-.238 5.89.056 8.766zm5.254 0c.215-2.825.375-5.658 1.284-8.348.303-.895 1.475-.94 1.536.196.158 2.949.238 5.89-.056 8.766zM13.862 29.871c-1.191 0-2.15.46-2.15 1.033s.959 1.033 2.15 1.033 2.15-.46 2.15-1.033-.96-1.033-2.15-1.033m7.398-9.604 1.508 4.746m-1.508 2.178-3.853 2.345m.559-6.421 3.294 4.076-4.69-.894m17.568 3.574c1.191 0 2.15.46 2.15 1.033s-.96 1.033-2.15 1.033c-1.191 0-2.15-.46-2.15-1.033s.96-1.033 2.15-1.033m-7.399-9.604-1.507 4.746m1.507 2.178 3.853 2.345m-.558-6.421L26.74 27.19l4.69-.894m-4.694 6.005v1.942c0 2.774-1.17 5.008-2.624 5.008h-.224c-1.454 0-2.624-2.234-2.624-5.008v-1.942zm-2.68-2.375c.74 0 1.34-.475 1.34-1.061s-.6-1.061-1.34-1.061-1.34.475-1.34 1.06c0 .587.6 1.062 1.34 1.062v2.375M19.284 4.5c-1.175-.05-2.268 1.617-2.35 4.096-.089 2.682.104 5.36.223 8.04l.012.148a16.622 13.977 0 0 0-9.791 12.737A16.622 13.977 0 0 0 24 43.5a16.622 13.977 0 0 0 16.622-13.977 16.622 13.977 0 0 0-9.795-12.702l.016-.183c.12-2.68.312-5.358.223-8.04-.146-4.407-3.486-6.244-4.803-.446-.596 2.625-.902 5.22-.948 7.425l-.004.057A16.622 13.977 0 0 0 24 15.547a16.622 13.977 0 0 0-1.31.078l-.005-.049c-.046-2.205-.352-4.8-.948-7.425-.577-2.537-1.54-3.613-2.454-3.65z" style="-inkscape-stroke:none"/></svg>
