<?xml version="1.0" encoding="UTF-8"?>
<svg version="1.1" viewBox="0 0 48 48" xmlns="http://www.w3.org/2000/svg"><defs><style>.b{fill:none;stroke:#000;stroke-linecap:round;stroke-linejoin:round;}</style></defs><polyline class="b" points="26.442 21.833 26.442 13.818 32.504 21.833 32.504 13.818" style="stroke:#fff"/><line class="b" x1="34.75" x2="36.765" y1="17.826" y2="17.826" style="stroke:#fff"/><polyline class="b" points="38.77 21.833 34.75 21.833 34.75 13.818 38.77 13.818" style="stroke:#fff"/><line class="b" x1="22.273" x2="22.273" y1="13.818" y2="21.833" style="stroke:#fff"/><line class="b" x1="20.268" x2="24.287" y1="13.818" y2="13.818" style="stroke:#fff"/><line class="b" x1="20.268" x2="24.287" y1="21.833" y2="21.833" style="stroke:#fff"/><polyline class="b" points="14.259 13.818 14.259 21.833 18.279 21.833" style="stroke:#fff"/><path class="b" d="M17.5088,33.2013c-.5322.9346-1.7212,1.2609-2.6558.7287-.6083-.3464-.9839-.9926-.9838-1.6926v-1.2658c0-1.0755.8719-1.9474,1.9474-1.9474s1.9474.8719,1.9474,1.9474v.6329h-3.8947" style="stroke:#fff"/><path class="b" d="M35.2649,30.9706c0-1.0755.8719-1.9474,1.9474-1.9474s1.9474.8719,1.9474,1.9474v3.2132" style="stroke:#fff"/><line class="b" x1="35.265" x2="35.265" y1="26.394" y2="34.184" style="stroke:#fff"/><line class="b" x1="30.878" x2="32.922" y1="29.151" y2="29.151" style="stroke:#fff"/><path class="b" d="M31.8998,27.4176v5.7934c0,.5378.4359.9737.9737.9737h.2921" style="stroke:#fff"/><line class="b" x1="19.863" x2="19.863" y1="34.184" y2="29.023" style="stroke:#fff"/><path class="b" d="M23.7579,34.1838v-3.2132c0-1.0755-.8719-1.9474-1.9474-1.9474s-1.9474.8719-1.9474,1.9474" style="stroke:#fff"/><line class="b" x1="28.779" x2="25.858" y1="26.662" y2="36.545" style="stroke:#fff"/><path d="m10.5 42.5h28c2.2091 0 4-1.7909 4-4v-29c0-2.2091-1.7909-4-4-4h-29c-2.2091 0-4 1.7909-4 4v29c0 2.2091 1.7909 4 4 4h1v-37" style="fill:none;stroke-linecap:round;stroke-linejoin:round;stroke:#fff"/></svg>
