<?xml version="1.0" encoding="UTF-8"?><svg id="a" xmlns="http://www.w3.org/2000/svg" viewBox="0 0 48 48"><defs><style>.b{fill:none;stroke:#fff;stroke-linecap:round;stroke-linejoin:round;}</style></defs><polyline class="b" points="26.4416 21.8326 26.4416 13.8182 32.5037 21.8326 32.5037 13.8182"/><line class="b" x1="34.7502" y1="17.8259" x2="36.7647" y2="17.8259"/><polyline class="b" points="38.7695 21.8326 34.7502 21.8326 34.7502 13.8182 38.7695 13.8182"/><line class="b" x1="22.2726" y1="13.8182" x2="22.2726" y2="21.8326"/><line class="b" x1="20.2678" y1="13.8182" x2="24.2872" y2="13.8182"/><line class="b" x1="20.2678" y1="21.8326" x2="24.2872" y2="21.8326"/><polyline class="b" points="14.2592 13.8182 14.2592 21.8326 18.2786 21.8326"/><path class="b" d="M17.5088,33.2013c-.5322.9346-1.7212,1.2609-2.6558.7287-.6083-.3464-.9839-.9926-.9838-1.6926v-1.2658c0-1.0755.8719-1.9474,1.9474-1.9474s1.9474.8719,1.9474,1.9474v.6329h-3.8947"/><path class="b" d="M35.2649,30.9706c0-1.0755.8719-1.9474,1.9474-1.9474s1.9474.8719,1.9474,1.9474v3.2132"/><line class="b" x1="35.2649" y1="26.3943" x2="35.2649" y2="34.1838"/><line class="b" x1="30.8775" y1="29.1508" x2="32.9222" y2="29.1508"/><path class="b" d="M31.8998,27.4176v5.7934c0,.5378.4359.9737.9737.9737h.2921"/><line class="b" x1="19.8631" y1="34.1838" x2="19.8631" y2="29.0232"/><path class="b" d="M23.7579,34.1838v-3.2132c0-1.0755-.8719-1.9474-1.9474-1.9474s-1.9474.8719-1.9474,1.9474"/><line class="b" x1="28.7792" y1="26.6621" x2="25.8581" y2="36.5449"/><path class="b" d="M7.0215,41.6398c-.9268-.7326-1.5215-1.8667-1.5215-3.1398V9.5c0-2.2091,1.7909-4,4-4h29c2.2091,0,4,1.7909,4,4v29c0,2.2091-1.7909,4-4,4H10.5s0-37,0-37l-3.4778,36.1389-.0007.0009Z"/></svg>