<?xml version="1.0" encoding="UTF-8" standalone="no"?>
<svg
   viewBox="0 0 48 48"
   version="1.1"
   id="svg1"
   xml:space="preserve"
   xmlns="http://www.w3.org/2000/svg"
   xmlns:svg="http://www.w3.org/2000/svg"><defs
     id="defs1"><style
       id="style1">.a{fill:none;stroke:#fff;stroke-linecap:round;stroke-linejoin:round;}</style></defs><path
     class="a"
     d="M40.5,5.5H7.5a2,2,0,0,0-2,2v33a2,2,0,0,0,2,2h33a2,2,0,0,0,2-2V7.5A2,2,0,0,0,40.5,5.5Z"
     id="path1"
     style="opacity:1" /><path
     style="opacity:1;fill:none;stroke:#ffffff;stroke-linecap:round;stroke-linejoin:round;stroke-dashoffset:0.5"
     d="m 18.184471,5.5 c -0.166673,2.8719405 -0.388387,5.713303 0.02501,8.907504 0.403157,3.115083 1.270217,6.080419 1.325691,9.179781 0.03153,1.761578 0.0033,3.657585 1.850964,5.152684 2.236592,1.809789 3.903428,4.061674 5.778009,6.128192 1.016632,1.120724 1.701692,1.472826 2.751433,1.375716 1.652331,-0.152854 3.713643,-0.0894 4.977593,-0.07504 1.321523,0.01501 2.601403,-0.791788 3.251693,-1.951016 C 39.259185,32.231398 40.946616,30.899957 42.5,29.41532"
     id="path2" /><path
     style="opacity:1;fill:none;stroke:#ffffff;stroke-linecap:round;stroke-linejoin:round;stroke-dashoffset:0.5"
     d="m 21.386136,28.739969 0.250133,8.729546 C 19.106728,39.590462 16.028983,41.026155 12.981761,42.5"
     id="path3" /><path
     style="opacity:1;fill:none;stroke:#ffffff;stroke-linecap:round;stroke-linejoin:round;stroke-dashoffset:0.5"
     d="m 5.5,33.517457 c 3.4501264,1.751223 6.996491,0.480553 8.357217,-0.925482 l -2.901511,-2.251172 8.854612,0.02501 -3.776967,8.554455 -0.525274,-3.55185 C 12.278744,36.552729 8.915321,38.213612 5.5,35.118291"
     id="path4" /><path
     style="opacity:1;fill:none;stroke:#ffffff;stroke-linecap:round;stroke-linejoin:round;stroke-dashoffset:0.5"
     d="m 19.435122,8.8796248 c 3.794568,-1.9823407 6.386485,0.2992599 9.529964,0.6253257"
     id="path5" /><path
     style="opacity:1;fill:none;stroke:#ffffff;stroke-linecap:round;stroke-linejoin:round;stroke-dashoffset:0.5"
     d="M 42.5,7.5 C 39.647668,7.9872822 36.574137,8.3148096 34.868161,9.6300156"
     id="path6" /><path
     style="opacity:1;fill:none;stroke:#ffffff;stroke-linecap:round;stroke-linejoin:round;stroke-dashoffset:0.5"
     d="m 28.33976,12.856696 c -2.628562,0.664741 -5.31073,1.514666 -7.228765,-0.275143 3.28626,-3.3273048 5.241353,-1.46306 7.228765,0.275143 z"
     id="path7" /><path
     style="opacity:1;fill:none;stroke:#ffffff;stroke-linecap:round;stroke-linejoin:round;stroke-dashoffset:0.5"
     d="m 35.493486,12.706618 c 0.738053,0.502454 4.37414,0.898047 6.353309,-0.508896 -1.055889,-1.388353 -3.941593,-2.8101115 -6.353309,0.508896 z"
     id="path8" /><circle
     style="opacity:1;fill:none;stroke:#ffffff;stroke-linecap:round;stroke-linejoin:round;stroke-dashoffset:0.5"
     id="path9"
     cx="13.073267"
     cy="13.707191"
     r="5" /><path
     style="opacity:1;fill:none;stroke:#ffffff;stroke-linecap:round;stroke-linejoin:round;stroke-dashoffset:0.5"
     d="m 16.109256,17.679945 c 0.584074,0.628589 0.833553,1.176053 1.549941,3.556115 0.208247,0.691862 0.991604,0.73461 1.77124,0.655891"
     id="path10" /><path
     style="opacity:1;fill:none;stroke:#ffffff;stroke-linecap:round;stroke-linejoin:round;stroke-dashoffset:0.5"
     d="M 14.532569,5.5 C 14.369376,6.5750373 13.786696,7.4212637 14.282045,8.8555056"
     id="path11" /><path
     style="opacity:1;fill:none;stroke:#ffffff;stroke-linecap:round;stroke-linejoin:round;stroke-dashoffset:0.5"
     d="m 20.798489,20.035591 0.850443,0.90047"
     id="path12" /><path
     style="opacity:1;fill:none;stroke:#ffffff;stroke-linecap:round;stroke-linejoin:round;stroke-dashoffset:0.5"
     d="m 22.674414,22.149141 0.963001,1.025533"
     id="path13" /><path
     style="opacity:1;fill:none;stroke:#ffffff;stroke-linecap:round;stroke-linejoin:round;stroke-dashoffset:0.5"
     d="m 24.487806,24.4753 0.11256,1.11308"
     id="path14" /><path
     style="opacity:1;fill:none;stroke:#ffffff;stroke-linecap:round;stroke-linejoin:round;stroke-dashoffset:0.5"
     d="m 24.837972,26.91407 0.149835,1.513288"
     id="path15" /><path
     style="opacity:1;fill:none;stroke:#ffffff;stroke-linecap:round;stroke-linejoin:round;stroke-dashoffset:0.5"
     d="m 25.200416,29.740803 0.08755,1.25039"
     id="path16" /><path
     style="opacity:1;fill:none;stroke:#ffffff;stroke-linecap:round;stroke-linejoin:round;stroke-dashoffset:0.5"
     d="m 41.228121,22.422623 -0.654415,0.764878"
     id="path17" /><path
     style="opacity:1;fill:none;stroke:#ffffff;stroke-linecap:round;stroke-linejoin:round;stroke-dashoffset:0.5"
     d="m 39.689362,24.549392 -0.123808,1.185021"
     id="path18" /><path
     style="opacity:1;fill:none;stroke:#ffffff;stroke-linecap:round;stroke-linejoin:round;stroke-dashoffset:0.5"
     d="m 39.424059,27.193581 -0.106121,1.246925"
     id="path19" /><path
     style="opacity:1;fill:none;stroke:#ffffff;stroke-linecap:round;stroke-linejoin:round;stroke-dashoffset:0.5"
     d="m 39.065554,29.908516 -0.07959,1.087744"
     id="path20" /><path
     style="opacity:1;fill:none;stroke:#ffffff;stroke-linecap:round;stroke-linejoin:round;stroke-dashoffset:0.5"
     d="m 30.236633,17.179945 c -0.719703,1.801915 -3.200586,3.427711 -1.396928,5.481962"
     id="path21" /><path
     style="opacity:1;fill:none;stroke:#ffffff;stroke-linecap:round;stroke-linejoin:round;stroke-dashoffset:0.5"
     d="m 33.46358,17.179945 c 0.584705,1.880725 2.993029,3.305881 1.529927,5.481962"
     id="path22" /><path
     style="opacity:1;fill:none;stroke:#ffffff;stroke-linecap:round;stroke-linejoin:round;stroke-dashoffset:0.5"
     d="m 29.961577,21.649141 c 0.775056,0.273482 1.085435,1.155921 1.974763,1.155921 0.885745,0 1.22724,-0.882439 1.939483,-1.155921"
     id="path23" /><path
     style="opacity:1;fill:none;stroke:#ffffff;stroke-linecap:round;stroke-linejoin:round;stroke-dashoffset:0.5"
     d="m 26.424201,27.096302 c 0,0 1.792778,1.166153 2.415504,2.044501 0.267609,0.377459 1.134324,0.356664 1.896928,0.167713 0.727481,-0.180248 1.790604,-0.21112 2.762321,0.1 0.582486,0.186498 1.049737,0.194441 1.706796,-0.46801 0.702789,-0.708556 2.750298,-1.822109 2.750298,-1.844204"
     id="path24" /><path
     style="opacity:1;fill:none;stroke:#ffffff;stroke-linecap:round;stroke-linejoin:round;stroke-dashoffset:0.5"
     d="m 26.424201,27.096302 c 3.217394,0.171236 2.435805,-0.165712 3.484108,-0.166016 0.503134,-1.46e-4 1.851608,0.151315 2.4049,0.166016 0.659662,0.01753 1.536812,-0.219707 2.394221,-0.203483 0.921467,0.01743 1.748371,0.20095 3.248618,0.203483"
     id="path25" /><g
     id="g25"
     transform="matrix(0.50686476,0,0,0.50686476,5.8041988,6.8967457)"
     style="stroke-width:1.97293"><path
       class="t"
       d="m 8.5009,16.825138 c 0.5523,0.4628 1.1485,0.6748 2.4876,0.6748 h 0.312 c 1.1043,0 1.9995,-0.8952 1.9995,-1.9995 v 0 c 0,-1.1043 -0.8952,-1.9995 -1.9995,-1.9995"
       id="path469"
       style="fill:none;stroke:#ffffff;stroke-width:1.97293;stroke-linecap:round;stroke-linejoin:round" /><path
       class="t"
       d="m 8.5,10.168138 c 0.5535,-0.4613 1.1503,-0.6717 2.4894,-0.6681 l 0.3111,0.0018 c 1.1043,0 1.9995,0.8952 1.9995,1.9995 v 0 c 0,1.1043 -0.8952,1.9995 -1.9995,1.9995"
       id="path470"
       style="fill:none;stroke:#ffffff;stroke-width:1.97293;stroke-linecap:round;stroke-linejoin:round" /></g><g
     id="g26"
     transform="matrix(0.50687892,0,0,0.50687892,7.3820106,6.3897308)"
     style="stroke-width:1.97285"><line
       class="t"
       x1="17.172798"
       y1="11.4422"
       x2="13.121002"
       y2="17.5581"
       id="line479"
       style="fill:none;stroke:#ffffff;stroke-width:1.97285;stroke-linecap:round;stroke-linejoin:round" /><rect
       class="t"
       x="12.5"
       y="10.5"
       width="5.3000002"
       height="8"
       rx="2.6500001"
       ry="2.6500001"
       id="rect480"
       style="fill:none;stroke:#ffffff;stroke-width:1.97285;stroke-linecap:round;stroke-linejoin:round" /></g></svg>
