<svg xmlns="http://www.w3.org/2000/svg" xml:space="preserve" width="48" height="48"><path fill="none" stroke="#fff" stroke-linecap="round" stroke-linejoin="round" d="M24.342 42.999c1.153-.309 1.97-1.99.904-2.69 0 0-.078-.2-1.27-.2-1.193 0-1.272.2-1.272.2v0c-1.065.7-.249 2.381.904 2.69m-3.867-.004a4.71 6.051 0 0 1 4.276-3.513A4.71 6.051 0 0 1 28.295 43m-5.8-5.49a1.3 1.3 0 0 1-1.3 1.302 1.3 1.3 0 0 1-1.301-1.301 1.3 1.3 0 0 1 1.3-1.301 1.3 1.3 0 0 1 1.301 1.3m5.646 0a1.3 1.3 0 0 1-1.301 1.302 1.3 1.3 0 0 1-1.301-1.301 1.3 1.3 0 0 1 1.3-1.301 1.3 1.3 0 0 1 1.302 1.3m-18.024-9.48a16.34 10.368 0 0 1 5.676-3.654m16.484-.145a16.34 10.368 0 0 1 5.79 3.51M15.82 24.378a4.154 3.335 79.533 0 0-3.887-2.804 4.154 3.335 79.533 0 0-2.496 4.715 4.154 3.335 79.533 0 0 .683 1.742m22.147-3.803a3.335 4.154 10.467 0 1 3.836-2.654 3.335 4.154 10.467 0 1 2.496 4.715v0a3.335 4.154 10.467 0 1-.519 1.461m-21.416-5.927a6.439 5.213 79.106 0 0-5.17-2.492 6.439 5.213 79.106 0 0-3.901 7.308v0a6.439 5.213 79.106 0 0 .388 1.355m23.39-6.172a5.213 6.439 10.894 0 1 5.17-2.491 5.213 6.439 10.894 0 1 3.902 7.308v0a5.213 6.439 10.894 0 1-.388 1.352M4.977 31.165a21.352 15.415 0 0 1 2.99-3.19m32.091-.006a21.352 15.415 0 0 1 2.963 3.146M12.95 11.438a1.81 1.81 0 0 1-1.812 1.812 1.81 1.81 0 0 1-1.812-1.812 1.81 1.81 0 0 1 1.812-1.812 1.81 1.81 0 0 1 1.812 1.812m11.884 12.544a.82.82 0 0 1-.818.818.82.82 0 0 1-.818-.818.82.82 0 0 1 .818-.818.82.82 0 0 1 .818.818m-1.195-2.899h.753a2.517 2.517 0 0 1 2.523 2.523v.753a2.517 2.517 0 0 1-2.523 2.522h-.753a2.517 2.517 0 0 1-2.522-2.522v-.753a2.517 2.517 0 0 1 2.522-2.523m-.594-4.571h1.941c3.601 0 6.5 2.899 6.5 6.5v1.94c0 3.602-2.899 6.5-6.5 6.5h-1.94a6.486 6.486 0 0 1-6.5-6.5v-1.94c0-3.601 2.898-6.5 6.5-6.5M12.016 5h24c3.878 0 7 3.122 7 7v24c0 3.878-3.122 7-7 7h-24c-3.878 0-7-3.122-7-7V12c0-3.878 3.122-7 7-7" style="-inkscape-stroke:none"/></svg>
