<?xml version="1.0" encoding="UTF-8"?>
<svg width="48" height="48" version="1.1" viewBox="0 0 48 48" xml:space="preserve" xmlns="http://www.w3.org/2000/svg"><g transform="matrix(1.4658 0 0 1.4658 -11.629 -4.4186)" fill="none" stroke="#fff" stroke-linecap="round" stroke-linejoin="round" stroke-width=".68224"><path d="m12.92 8.149 4.4e-5 24.399s1.3529 0.66708 2.4896 0.66708 2.6733-0.71632 2.6733-0.71632v-1.968"/><path d="m35.696 8.149v24.399s-1.3529 0.66708-2.4896 0.66708-2.6733-0.71632-2.6733-0.71632v-1.968"/><path d="m12.968 27.937s5.9557 3.7944 10.927 3.7944c4.9711 0 10.831-2.7377 11.767-3.9384"/><path d="m12.98 21.188s6.2679 2.4735 11.239 2.4735c4.9711 0 10.519-1.609 11.455-2.8098"/><path d="m12.92 8.149c4.0638-3.714 19.408-3.176 22.774 0"/><path d="m19.308 28.622s4.517 2.0038 9.7726-0.11038"/><path d="m17.4 27.344a1.8486 1.7977 0 0 1-2.5812-0.39777 1.8486 1.7977 0 0 1 0.40705-2.5103 1.8486 1.7977 0 0 1 2.5818 0.3939 1.8486 1.7977 0 0 1-0.40307 2.511"/><path d="m33.39 27.343a1.8486 1.7977 0 0 1-2.5812-0.39777 1.8486 1.7977 0 0 1 0.40705-2.5103 1.8486 1.7977 0 0 1 2.5818 0.3939 1.8486 1.7977 0 0 1-0.40307 2.511"/><path d="m12.944 9.4688s9.4313-5.2687 22.744-0.15"/><path d="m16.938 8.0437v2.325h14.606v-2.1375"/></g></svg>
