<?xml version="1.0" encoding="UTF-8" standalone="no"?>
<svg
   id="Layer_1"
   data-name="Layer 1"
   version="1.1"
   viewBox="0 0 48 48"
   xml:space="preserve"
   xmlns="http://www.w3.org/2000/svg"
   xmlns:svg="http://www.w3.org/2000/svg"><defs
     id="defs1"><style
       id="style1">
      .cls-1 {
        fill: none;
        stroke: #fff;
        stroke-linecap: round;
        stroke-linejoin: round;
      }
    </style></defs><path
     style="fill:none;stroke:#ffffff;stroke-width:1;stroke-linecap:round;stroke-linejoin:round;stroke-dashoffset:0.5"
     d="m 20.04612,10.668201 c -4.751049,3.748842 -2.665549,5.391212 -8.326668,9.438832 -0.779394,0.28345 -0.714457,1.388961 0,2.349582 0.766931,1.031174 2.267959,2.858602 6.143949,2.75468 2.755793,-0.07388 3.228644,2.526326 2.506084,4.192787 -1.762793,4.474242 -2.119842,8.599512 -1.071148,12.375809 6.231294,0.908746 12.468038,1.845543 17.54259,-3.200291 V 21.848964 C 36.7082,18.460584 33.798523,10.813482 28.231314,9.1895851"
     id="path1" /><path
     style="fill:none;stroke:#ffffff;stroke-width:1;stroke-linecap:round;stroke-linejoin:round;stroke-dashoffset:0.5"
     d="m 12.831022,21.585649 c 9.24593,-3.396937 13.704977,2.418995 13.965357,4.759927 1.008056,9.062856 -6.861785,3.66691 -2.943015,16.018099"
     id="path2" /><path
     style="fill:none;stroke:#ffffff;stroke-width:1;stroke-linecap:round;stroke-linejoin:round;stroke-dashoffset:0.5"
     d="m 11.719452,20.107033 c 1.536776,0.395648 1.848229,1.375957 0,2.349582"
     id="path3" /><path
     style="fill:none;stroke:#ffffff;stroke-width:1;stroke-linecap:round;stroke-linejoin:round;stroke-dashoffset:0.5"
     d="m 17.984663,18.142297 c 0.798974,1.049173 1.805005,0.758411 2.324191,-0.121529"
     id="path4" /><ellipse
     style="fill:none;stroke:#ffffff;stroke-width:1;stroke-linecap:round;stroke-linejoin:round;stroke-dashoffset:0.5"
     id="path5"
     cx="26.826694"
     cy="16.451004"
     rx="4.8479595"
     ry="4.8586698" /><ellipse
     style="fill:none;stroke:#ffffff;stroke-width:1;stroke-linecap:round;stroke-linejoin:round;stroke-dashoffset:0.5"
     id="path6"
     cx="26.796379"
     cy="16.602917"
     rx="2.4239798"
     ry="2.4293349" /><path
     style="fill:none;stroke:#ffffff;stroke-width:1;stroke-linecap:round;stroke-linejoin:round;stroke-dashoffset:0.5"
     d="m 25.434576,11.796963 -0.05292,-5.0987437 c -0.0043,-0.4103121 0.262464,-0.6684152 0.646732,-0.6684152 h 1.414725 c 0.613693,-0.032862 0.654504,0.3361815 0.747783,0.6684152 l 0.0071,5.0925337"
     id="path7" /><path
     style="fill:none;stroke:#ffffff;stroke-width:1;stroke-linecap:round;stroke-linejoin:round;stroke-dashoffset:0.5"
     d="m 20.04612,10.668201 0.02021,-4.0510017 c 0.009,-1.7959176 1.287534,-1.0095303 1.940194,-0.5063752 l 1.050938,0.8102002"
     id="path8" /><path
     style="fill:none;stroke:#ffffff;stroke-width:1;stroke-linecap:round;stroke-linejoin:round;stroke-dashoffset:0.5"
     d="M 23.118094,9.4326452 C 22.3411,9.4640712 21.317108,9.8759232 20.04612,10.668201"
     id="path9" /><path
     style="display:inline;fill:none;stroke:#ffffff;stroke-width:1;stroke-linecap:round;stroke-linejoin:round;stroke-dashoffset:0.5"
     d="M 25.381652,6.6982193 24.856184,6.1108241 C 24.010581,5.1655653 23.008545,5.4748508 23.05746,6.9210243 l 0.161686,4.7801817"
     id="path10" /></svg>
