<?xml version="1.0" encoding="UTF-8" standalone="no"?>
<svg
   version="1.1"
   viewBox="0 0 48 48"
   id="svg23"
   sodipodi:docname="listenbrainz.svg"
   inkscape:version="1.3.2 (091e20ef0f, 2023-11-25)"
   xmlns:inkscape="http://www.inkscape.org/namespaces/inkscape"
   xmlns:sodipodi="http://sodipodi.sourceforge.net/DTD/sodipodi-0.dtd"
   xmlns="http://www.w3.org/2000/svg"
   xmlns:svg="http://www.w3.org/2000/svg">
  <sodipodi:namedview
     id="namedview23"
     pagecolor="#505050"
     bordercolor="#eeeeee"
     borderopacity="1"
     inkscape:showpageshadow="0"
     inkscape:pageopacity="0"
     inkscape:pagecheckerboard="0"
     inkscape:deskcolor="#d1d1d1"
     showgrid="false"
     inkscape:zoom="9.2463392"
     inkscape:cx="21.522031"
     inkscape:cy="25.361389"
     inkscape:window-width="1896"
     inkscape:window-height="1035"
     inkscape:window-x="10"
     inkscape:window-y="31"
     inkscape:window-maximized="1"
     inkscape:current-layer="svg23" />
  <defs
     id="defs2">
    <style
       id="style1">.a{fill:none;stroke:#000;stroke-linecap:round;stroke-linejoin:round;}</style>
    <style
       id="style2">.cls-1{fill:none;stroke:#000;stroke-linecap:round;stroke-linejoin:round;}</style>
  </defs>
  <circle
     class="a"
     cx="32"
     cy="12"
     id="ellipse2"
     style="stroke:#ffffff"
     r="1.41" />
  <circle
     class="a"
     cx="38"
     cy="16.1"
     id="ellipse3"
     style="stroke:#ffffff"
     r="1.41" />
  <circle
     class="a"
     cx="38.099998"
     cy="23.299999"
     id="ellipse4"
     style="stroke:#ffffff"
     r="1.41" />
  <circle
     class="a"
     cx="38.099998"
     cy="31.299999"
     id="ellipse5"
     style="stroke:#ffffff"
     r="1.41" />
  <circle
     class="a"
     cx="33.099998"
     cy="35.700001"
     id="ellipse6"
     style="stroke:#ffffff"
     r="1.41" />
  <circle
     class="a"
     cx="30.1"
     cy="29.799999"
     id="ellipse7"
     style="stroke:#ffffff"
     r="1.41" />
  <circle
     class="a"
     cx="31.1"
     cy="19"
     id="ellipse8"
     style="stroke:#ffffff"
     r="1.41" />
  <path
     class="a"
     d="M 30.2,17.8 A 7.14,7.13 0 0 0 26.48,14.62"
     id="path8"
     style="stroke:#ffffff" />
  <path
     class="a"
     d="m 27.6,15.1 a 8.02,8.01 0 0 0 3.61,-1.93"
     id="path9"
     style="stroke:#ffffff" />
  <path
     class="a"
     d="m 37.4,17.4 a 11.7,11.7 0 0 0 0.0592,4.66"
     id="path10"
     style="stroke:#ffffff" />
  <path
     class="a"
     d="m 37.3,30.2 c 0,0 -2.83,-3.45 -3.46,-3.95 A 6.22,6.21 0 0 0 30.1,25.09 c -1.98,0.0257 -2.67,-0.872 -3.55,-1.56"
     id="path11"
     style="stroke:#ffffff" />
  <path
     class="a"
     d="m 32,25.3 c 0,0 2.78,-2.07 4.74,-2.02"
     id="path12"
     style="stroke:#ffffff" />
  <path
     class="a"
     d="m 31.9,36.3 c -3.22,1.83 -3.07,-0.558 -5.35,-0.312"
     id="path13"
     style="stroke:#ffffff" />
  <path
     class="a"
     d="m 29.6,31.1 c 0,0 -1.44,3.67 -3.14,4.9"
     id="path14"
     style="stroke:#ffffff" />
  <polygon
     class="a"
     transform="matrix(1,0,0,0.999,0,0.00305)"
     points="26.5,44.5 26.5,3.48 43,13 43,35 "
     id="polygon14"
     style="stroke:#ffffff" />
  <polygon
     class="a"
     transform="matrix(1,0,0,0.999,0,0.00305)"
     points="21.5,3.48 21.5,44.5 4.98,35 4.98,13 "
     id="polygon15"
     style="stroke:#ffffff" />
  <path
     d="m 21.5,14 c 0,0 -10.4,-0.533 -10.4,10.6"
     id="path15"
     style="fill:none;stroke:#ffffff" />
  <path
     d="m 13.4,34 c -0.929,0 -1.68,-0.752 -1.68,-1.68 v -7.75 c 0,-0.928 0.753,-1.68 1.68,-1.68 0.927,0 1.68,0.752 1.68,1.68 v 7.75 c 0,0.928 -0.753,1.68 -1.68,1.68 z"
     stroke-linejoin="round"
     id="path16"
     style="fill:none;stroke:#ffffff;stroke-linecap:round" />
  <path
     d="m 11.2,32.3 c -0.929,0 -1.68,-0.513 -1.68,-1.15 v -5.28 c 0,-0.633 0.753,-1.15 1.68,-1.15"
     stroke-linejoin="round"
     id="path17"
     style="fill:none;stroke:#ffffff;stroke-linecap:round" />
  <path
     d="m 16.6,27.7 v 1.57"
     id="path18"
     style="fill:none;stroke:#ffffff;stroke-linecap:round" />
  <path
     d="m 19.9,26.1 v 4.86"
     id="path19"
     style="fill:none;stroke:#ffffff;stroke-linecap:round" />
  <path
     d="m 18.2,26.9 v 3.23"
     id="path20"
     style="fill:none;stroke:#ffffff;stroke-linecap:round" />
</svg>
