<svg xmlns="http://www.w3.org/2000/svg" width="48" height="48"><path d="M163.5 40.7v8h4" class="cls-2" style="fill:none;stroke:#fff;stroke-linecap:round;stroke-linejoin:round;stroke-opacity:1" transform="translate(-158.257 -21.3)"/><path d="m268 59.3-2 5.4-2-5.4" class="cls-2" style="fill:none;stroke:#fff;stroke-linecap:round;stroke-linejoin:round;stroke-opacity:1" transform="translate(-250.464 -37.3)"/><g style="fill:none;stroke:#fff;stroke-linecap:round;stroke-linejoin:round;stroke-opacity:1"><path d="M118 59.4v6c0 1.1-.9 2-2 2v0c-.6 0-1.1-.2-1.4-.6" class="cls-2" style="fill:none;stroke:#fff;stroke-linecap:round;stroke-linejoin:round;stroke-opacity:1" transform="translate(-86.225 -37.2)"/><path d="M116 59.3v0c1.1 0 2 .9 2 2v1.3c0 1.1-.9 2-2 2v0c-1.1 0-2-.9-2-2v-1.3c0-1.1.9-2 2-2z" class="cls-2" style="fill:none;stroke:#fff;stroke-linecap:round;stroke-linejoin:round;stroke-opacity:1" transform="translate(-86.225 -37.2)"/></g><g style="fill:none;stroke:#fff;stroke-linecap:round;stroke-linejoin:round;stroke-opacity:1"><path d="M188.3 64.7v-3.3c0-1.1-.9-2-2-2v0c-1.1 0-2 .9-2 2M184.3 64.7v-5.4" class="cls-2" style="fill:none;stroke:#fff;stroke-linecap:round;stroke-linejoin:round;stroke-opacity:1" transform="translate(-162.472 -37.3)"/></g><g style="fill:none;stroke:#fff;stroke-linecap:round;stroke-linejoin:round;stroke-opacity:1"><path d="M217.7 76.1s-.2 2.4-.3 3.3c0 .6.6.9 1.1.9 1.2 0 1.9-1.1 2-2.6.2-3.1-1.7-4.5-4.3-4.5-2.6 0-4.4 1.9-4.7 4.5-.2 2.2 1 5.1 4.1 5.1 3.1 0 2 0 2.7-.6" class="cls-2" style="fill:none;stroke:#fff;stroke-linecap:round;stroke-linejoin:round;stroke-opacity:1" transform="translate(-177.757 -55.4)"/><path d="M217.4 78.5c-.1.8-.8 1.5-1.6 1.5v0c-.8 0-1.4-.7-1.3-1.5v-.9c.2-.8.9-1.5 1.7-1.5v0c.8 0 1.4.6 1.3 1.5" class="cls-2" style="fill:none;stroke:#fff;stroke-linecap:round;stroke-linejoin:round;stroke-opacity:1" transform="translate(-177.757 -55.4)"/></g><g style="fill:none;fill-opacity:1;stroke:#fff;stroke-linecap:round;stroke-linejoin:round;stroke-opacity:1"><g style="stroke:#fff;stroke-opacity:1" transform="translate(-124.61 -37.3)"><circle cx="136" cy="56.9" r=".7" class="cls-7" style="fill:#000;fill-opacity:1;stroke:#fff;stroke-linecap:round;stroke-linejoin:round;stroke-opacity:1"/><path d="M136 59.3v5.4" class="cls-2" style="fill:none;fill-opacity:1;stroke:#fff;stroke-linecap:round;stroke-linejoin:round;stroke-opacity:1"/></g></g><g style="fill:none;fill-opacity:1;stroke:#fff;stroke-linecap:round;stroke-linejoin:round;stroke-opacity:1"><g style="stroke:#fff;stroke-opacity:1" transform="translate(-116.318 -37.3)"><circle cx="136" cy="56.9" r=".7" class="cls-7" style="fill:#000;fill-opacity:1;stroke:#fff;stroke-linecap:round;stroke-linejoin:round;stroke-opacity:1"/><path d="M136 59.3v5.4" class="cls-2" style="fill:none;fill-opacity:1;stroke:#fff;stroke-linecap:round;stroke-linejoin:round;stroke-opacity:1"/></g></g></svg>