<?xml version="1.0" encoding="UTF-8"?><svg id="b" xmlns="http://www.w3.org/2000/svg" viewBox="0 0 48 48"><defs><style>.c{fill:none;stroke:#fff;stroke-linecap:round;stroke-linejoin:round;}</style></defs><path class="c" d="M27.6526,20.988l3.5638-3.5638,3.4779-1.4905M27.0682,20.2716l3.3155-5.4162,2.6342-1.6505M26.5886,19.7009l2.2757-6.8417-.1322-2.8876M26.0043,19.0368l-.4951-5.3743-2.1925-1.7295M30.7727,29.7919c1.245,1.4008,2.5714,2.7272,3.9722,3.9722,1.6073,1.4662,2.1811,1.8304,2.7594,1.7807,1.4458-.1242.9102-1.6893.948-1.9575M36.9057,29.4372l1.2204-2.8401M15.5719,12.4328l-3.2354-6.9328c-.1968.9879-.6461,1.9079-1.3042,2.6705-.5655.5835-1.3048.8206-2.1141.7477M28.8304,22.7727c-.2062-.7279,2.8123-2.8952,6.0934-3.0939,1.016-.0621,3.9563-.24,5.9621,1.9874,1.7056,1.9051,2.0976,4.6493.9937,6.9557-.5624,1.0568-1.4274,1.9218-2.4842,2.4842-.8437-2.6012-1.5077-5.2572-1.9874-7.9494-.9936.0146-1.9874.0146-2.981,0-3.5648-.0522-5.4019-.0462-5.5965-.384Z"/><path class="c" d="M20.988,27.6526l-3.5638,3.5638-1.4905,3.4779M20.2716,27.0682l-5.4162,3.3155-1.6505,2.6342M19.7009,26.5886l-6.8417,2.2757-2.8876-.1322M19.0368,26.0043l-5.3743-.4951-1.7295-2.1925M29.7919,30.7727c1.4008,1.245,2.7272,2.5714,3.9722,3.9722,1.4662,1.6073,1.8304,2.1811,1.7807,2.7594-.1242,1.4458-1.6893.9102-1.9575.948M29.4372,36.9057l-2.8401,1.2204M12.4328,15.5719l-6.9328-3.2354c.9879-.1968,1.9079-.6461,2.6705-1.3042.5835-.5655.8206-1.3048.7477-2.1141M22.7727,28.8304c-.7279-.2062-2.8952,2.8123-3.0939,6.0934-.0621,1.016-.24,3.9563,1.9874,5.9621,1.9051,1.7056,4.6493,2.0976,6.9557.9937,1.0568-.5624,1.9218-1.4274,2.4842-2.4842-2.6012-.8437-5.2572-1.5077-7.9494-1.9874.0146-.9936.0146-1.9874,0-2.981-.0522-3.5648-.0462-5.4019-.384-5.5965Z"/><path class="c" d="M12.3961,12.3961c-.2621.3003-.5707.8061-.4268,1.4791.6434,3.0078,2.6971,6.8618,3.5405,8.1333,1.5321,2.3097,3.599,4.1735,5.7842,5.8786.7694.6004,4.2953,2.6323,5.6252,2.8837.8291.7441,2.1105.7536,2.9035-.0288.1239-.1222.4596-.4596.4596-.4596,0,0,.3374-.3357.4596-.4596.7824-.7931.7729-2.0744.0288-2.9035-.2513-1.3299-2.2833-4.8558-2.8837-5.6252-1.7051-2.1852-3.5689-4.2521-5.8786-5.7842-1.2715-.8434-5.1255-2.897-8.1333-3.5405-.673-.144-1.1788.1647-1.4791.4268Z"/><line class="c" x1="12.3961" y1="12.3961" x2="8.9183" y2="8.9183"/></svg>