<?xml version="1.0" encoding="UTF-8"?>
<svg data-name="Layer 1" version="1.1" viewBox="0 0 48 48" xmlns="http://www.w3.org/2000/svg">
 <defs>
  <style>.cls-1 {
        fill: none;
        stroke: #fff;
        stroke-linecap: round;
        stroke-linejoin: round;
      }</style>
 </defs>
 <path d="m10.8 26.115 5.7-0.11452m-5.7-2.6h7.1m14.7-5.2h4.7l3.1-5-2.2-4.1zm-8.2 0h4.6l6.2-9.7002-5.2 0.60017zm-8.4 0h4.6l5.2-8-5.4 0.9zm-8.4-4.2 1.8 2.2v2h3l3.6-6.2zm32.9 5.8v13.8c0 1.6151-1.2839 2.9-2.9 2.9h-9.3699c0.49919 1.7055 2.1032 3 3.9699 3h7.2c2.2661 0 4.1001-1.8343 4.1001-4.1v-11.7c0-1.8655-1.2935-3.4022-3.0001-3.9zm-36-3.7v18.7c0 2.5494 2.0491 4.7002 4.6001 4.7002h8.1c1.9624 0 3.7303-1.2739 4.4-3.0002h-11.2c-1.6161 0-2.9-1.2849-2.9-2.9v-14.3z" fill="none" stroke="#fff" stroke-linecap="round" stroke-linejoin="round" stroke-miterlimit="0" style="paint-order:normal"/>
</svg>
