<?xml version="1.0" encoding="UTF-8" standalone="no"?>
<svg
   id="vector"
   width="48"
   height="48"
   viewBox="0 0 48 48"
   version="1.1"
   xmlns="http://www.w3.org/2000/svg"
   xmlns:svg="http://www.w3.org/2000/svg">
  <defs
     id="defs1" />
  <path
     id="path_0"
     style="fill:none;fill-opacity:1;stroke:#ffffff;stroke-width:1;stroke-linecap:round;stroke-linejoin:round;stroke-dasharray:none;stroke-opacity:1;paint-order:normal"
     d="m 6.6625007,15.944051 v 9.011719 5.699218 3.769532 c 0,2.268154 1.8412178,4.111328 4.1093743,4.111328 h 7.22461 c 1.744807,0 3.23656,-1.09112 3.832031,-2.626953 h -9.935547 c -1.436899,0 -2.6035152,-1.166618 -2.6035152,-2.603516 V 31.354207 21.123738 18.744832 Z" />
  <path
     fill="#ffffff"
     d="m 38.710581,20.99355 v 12.311655 c 0,1.436898 -1.165982,2.60288 -2.602882,2.60288 h -8.346774 c 0.44383,1.517343 1.846518,2.626917 3.506258,2.626917 h 6.418888 c 2.014805,0 3.651428,-1.636622 3.651428,-3.652347 V 24.49888 c 0,-1.659741 -1.109575,-3.062426 -2.626918,-3.50533 z"
     id="path_1"
     style="fill:none;fill-opacity:1;stroke:#ffffff;stroke-width:1;stroke-linecap:round;stroke-linejoin:round;stroke-dasharray:none;stroke-opacity:1;paint-order:normal" />
  <path
     fill="#ffffff"
     d="m 8.9397608,14.717977 1.7512792,1.92604 v 1.92696 h 2.801677 l 3.3278,-5.77904 z"
     id="path_3"
     style="fill:none;fill-opacity:1;stroke:#ffffff;stroke-width:1;stroke-linecap:round;stroke-linejoin:round;stroke-dasharray:none;stroke-opacity:1;paint-order:normal" />
  <path
     fill="#ffffff"
     d="m 16.820517,18.570977 h 4.378198 l 4.815556,-7.530313 -5.078155,0.875636 z"
     id="path_4"
     style="fill:none;fill-opacity:1;stroke:#ffffff;stroke-width:1;stroke-linecap:round;stroke-linejoin:round;stroke-dasharray:none;stroke-opacity:1;paint-order:normal" />
  <path
     fill="#ffffff"
     d="m 24.701274,18.570977 h 4.377272 l 5.779036,-9.106836 -4.903396,0.5251993 z"
     id="path_5"
     style="fill:none;fill-opacity:1;stroke:#ffffff;stroke-width:1;stroke-linecap:round;stroke-linejoin:round;stroke-dasharray:none;stroke-opacity:1;paint-order:normal" />
  <path
     fill="#ffffff"
     d="m 32.406349,18.570977 h 4.378192 l 2.976434,-4.728636 -2.100789,-3.8530007 z"
     id="path_6"
     style="fill:none;fill-opacity:1;stroke:#ffffff;stroke-width:1;stroke-linecap:round;stroke-linejoin:round;stroke-dasharray:none;stroke-opacity:1;paint-order:normal" />
  <path
     style="fill:none;fill-opacity:1;stroke:#ffffff;stroke-width:1;stroke-linecap:round;stroke-linejoin:round;stroke-miterlimit:0;stroke-dasharray:none;stroke-opacity:1;paint-order:normal"
     d="m 12.282391,24.242004 h 6.32198"
     id="path2" />
  <path
     style="fill:none;fill-opacity:1;stroke:#ffffff;stroke-width:0.899325;stroke-linecap:round;stroke-linejoin:round;stroke-miterlimit:0;stroke-dasharray:none;stroke-opacity:1;paint-order:normal"
     d="m 12.189673,26.626872 h 5.113123"
     id="path2-7" />
</svg>
