<svg xmlns="http://www.w3.org/2000/svg" xml:space="preserve" id="svg1" version="1.1" viewBox="0 0 48 48"><defs id="defs1"><style id="style1">.a{fill:none;stroke:#fff;stroke-linecap:round;stroke-linejoin:round}</style></defs><path id="path30" d="M18.341 20.657a1.825 1.192 79.83 0 1-.85 2.007 1.825 1.192 79.83 0 1-1.496-1.586 1.825 1.192 79.83 0 1 .851-2.006 1.825 1.192 79.83 0 1 1.495 1.585v0" style="fill:none;stroke:#fff;stroke-linecap:round;stroke-linejoin:round;stroke-opacity:1"/><path id="path29" d="M25.475 19.378a1.825 1.192 79.83 0 1-.851 2.006 1.825 1.192 79.83 0 1-1.495-1.586 1.825 1.192 79.83 0 1 .85-2.006 1.825 1.192 79.83 0 1 1.496 1.586v0" style="fill:none;stroke:#fff;stroke-linecap:round;stroke-linejoin:round;stroke-opacity:1"/><path id="path28" d="m20.686 22.007.713-.128" style="fill:none;stroke:#fff;stroke-linecap:round;stroke-linejoin:round;stroke-opacity:1"/><path id="path27" d="M22.065 29.625c-1.425-2.02-2.028-3.305-2.849-5.427-.115-.298.016-.742.284-.913.45-.288.867-.408 1.684-.554.817-.147 1.249-.18 1.771-.066.312.067.589.438.584.757-.032 2.275-.15 3.69-.785 6.079-.067.255-.537.34-.69.124v0" style="fill:none;stroke:#fff;stroke-linecap:round;stroke-linejoin:round;stroke-opacity:1"/><path id="path26" d="M19.684 23.163c.062.089.639.876 1.7.685 1.062-.19 1.33-1.128 1.357-1.233" style="fill:none;stroke:#fff;stroke-linecap:round;stroke-linejoin:round;stroke-opacity:1"/><path id="path25" d="M12.166 31.472a13.084 13.084 0 0 1-4.162-7.465c-1.123-6.262 2.41-12.234 8.087-14.535 1.694-.687 2.605.49 2.445 4.78.299-.19.642-.307 1.059-.382.416-.074.779-.085 1.125-.01-1.64-3.966-1.196-5.387.631-5.332 6.124.184 11.512 4.557 12.635 10.819.138.77.206 1.536.209 2.292" style="fill:none;stroke:#fff;stroke-linecap:round;stroke-linejoin:round;stroke-opacity:1"/><path id="path24" d="m10.26 25.664 3.835-.905" style="fill:none;stroke:#fff;stroke-linecap:round;stroke-linejoin:round;stroke-opacity:1"/><path id="path23" d="m11.483 28.332 3.606-1.587" style="fill:none;stroke:#fff;stroke-linecap:round;stroke-linejoin:round;stroke-opacity:1"/><path id="path22" d="M37.999 31.837c.45-.35.797-.843.963-1.437l1.184-4.236a2.75 2.75 0 0 0-1.912-3.395l-.225-.063.973-1.545a.984.984 0 0 0-.307-1.356.984.984 0 0 0-.233-.109h0a.984.984 0 0 0-1.125.415l-1.286 2.042-2.935-.82-.041-2.413a.984.984 0 0 0-1-.966.984.984 0 0 0-.967 1l.031 1.826-.225-.063a2.75 2.75 0 0 0-3.395 1.912l-1.184 4.235a2.75 2.75 0 0 0 1.912 3.396l1.825.51" style="fill:none;stroke:#fff;stroke-linecap:round;stroke-linejoin:round;stroke-opacity:1"/><path id="path21" d="m31.089 22.536 6.035 1.687c.84.235 1.327 1.1 1.093 1.94l-.905 3.238a1.571 1.571 0 0 1-1.94 1.092l-6.036-1.687a1.571 1.571 0 0 1-1.093-1.94l.905-3.238a1.571 1.571 0 0 1 1.94-1.092h0v0" style="fill:none;stroke:#fff;stroke-linecap:round;stroke-linejoin:round;stroke-opacity:1"/><path id="path20" d="m33.172 24.541.066.019" style="fill:none;stroke:#fff;stroke-linecap:round;stroke-linejoin:round;stroke-opacity:1"/><path id="path19" d="m32.914 25.463.066.018" style="fill:none;stroke:#fff;stroke-linecap:round;stroke-linejoin:round;stroke-opacity:1"/><path id="path18" d="m32.656 26.384.067.019" style="fill:none;stroke:#fff;stroke-linecap:round;stroke-linejoin:round;stroke-opacity:1"/><path id="path17" d="m32.399 27.306.066.018" style="fill:none;stroke:#fff;stroke-linecap:round;stroke-linejoin:round;stroke-opacity:1"/><path id="path16" d="m32.141 28.227.067.019" style="fill:none;stroke:#fff;stroke-linecap:round;stroke-linejoin:round;stroke-opacity:1"/><path id="path15" d="m33.838 25.72.066.02" style="fill:none;stroke:#fff;stroke-linecap:round;stroke-linejoin:round;stroke-opacity:1"/><path id="path14" d="m33.58 26.642.067.019" style="fill:none;stroke:#fff;stroke-linecap:round;stroke-linejoin:round;stroke-opacity:1"/><path id="path13" d="m33.323 27.564.066.019" style="fill:none;stroke:#fff;stroke-linecap:round;stroke-linejoin:round;stroke-opacity:1"/><path id="path12" d="m34.498 26.899.067.019" style="fill:none;stroke:#fff;stroke-linecap:round;stroke-linejoin:round;stroke-opacity:1"/><path id="path11" d="M5.486 32.943a28.893 10.326 0 0 1 18.524-2.401 28.893 10.326 0 0 1 18.504 2.395" style="fill:none;stroke:#fff;stroke-linecap:round;stroke-linejoin:round;stroke-opacity:1"/><path id="path10" d="M10.338 33.93v6.061h3.023" style="fill:none;stroke:#fff;stroke-linecap:round;stroke-linejoin:round;stroke-opacity:1"/><path id="path9" d="M16.327 33.93c1.11 0 2.003.896 2.003 2.008v2.046a2.001 2.001 0 0 1-2.003 2.007 2.001 2.001 0 0 1-2.003-2.007v-2.046a2 2 0 0 1 2.003-2.007z" style="fill:none;stroke:#fff;stroke-linecap:round;stroke-linejoin:round;stroke-opacity:1"/><path id="path8" d="M20.016 33.93v6.061" style="fill:none;stroke:#fff;stroke-linecap:round;stroke-linejoin:round;stroke-opacity:1"/><path id="path7" d="m20.016 37.88 3.25-3.929" style="fill:none;stroke:#fff;stroke-linecap:round;stroke-linejoin:round;stroke-opacity:1"/><path id="path6" d="m23.266 39.991-2.49-3.03" style="fill:none;stroke:#fff;stroke-linecap:round;stroke-linejoin:round;stroke-opacity:1"/><path id="path5" d="M24.754 33.93v6.061h3.024" style="fill:none;stroke:#fff;stroke-linecap:round;stroke-linejoin:round;stroke-opacity:1"/><path id="path4" d="M30.743 33.93c1.11 0 2.003.896 2.003 2.008v2.046a2.001 2.001 0 0 1-2.003 2.007 2.001 2.001 0 0 1-2.003-2.007v-2.046c0-1.112.894-2.007 2.003-2.007z" style="fill:none;stroke:#fff;stroke-linecap:round;stroke-linejoin:round;stroke-opacity:1"/><path id="path3" d="M34.432 33.93v6.061" style="fill:none;stroke:#fff;stroke-linecap:round;stroke-linejoin:round;stroke-opacity:1"/><path id="path2" d="m34.432 37.88 3.25-3.929" style="fill:none;stroke:#fff;stroke-linecap:round;stroke-linejoin:round;stroke-opacity:1"/><path id="path1" d="m37.682 39.991-2.49-3.03" style="fill:none;stroke:#fff;stroke-linecap:round;stroke-linejoin:round;stroke-opacity:1"/><path id="rect1" d="M9.5 5.5h29c2.216 0 4 1.784 4 4v29c0 2.216-1.784 4-4 4h-29c-2.216 0-4-1.784-4-4v-29c0-2.216 1.784-4 4-4z" style="fill:none;stroke:#fff;stroke-linecap:round;stroke-linejoin:round;stroke-opacity:1"/></svg>