<?xml version="1.0" encoding="UTF-8"?>
<!-- Created with Inkscape (http://www.inkscape.org/) -->
<svg version="1.1" viewBox="0 0 48 48" xml:space="preserve" xmlns="http://www.w3.org/2000/svg"><defs><style>.a{fill:none;stroke:#fff;stroke-linecap:round;stroke-linejoin:round;}</style></defs><circle class="a" cx="24" cy="24" r="21.5"/><g transform="translate(-49.239 .43645)" fill-opacity="0" stroke="#fff" stroke-linecap="round" stroke-linejoin="round"><path d="m78.991 2.8473c-1.1837 1.4688-2.3674 2.9377-2.897 5.1851-0.52966 2.2474-0.40532 5.2733-0.16352 7.5462 0.2418 2.2729 0.60103 3.7927 0.96027 5.3126"/><path d="m76.152 17.283c-0.53089-0.12381-1.0618-0.24761-1.4084-0.25424-0.34662-0.0066-0.50896 0.1039-0.52278 0.66522-0.01382 0.56132 0.1209 1.5734 0.30225 2.2349 0.18135 0.66149 0.40932 0.97236 0.4525 1.5302 0.04318 0.55787-0.09844 1.3627 0.20286 2.4656 0.3013 1.1029 1.0455 2.5039 1.4298 3.6661 0.38432 1.1621 0.40874 2.0854 0.68231 2.7717 0.27357 0.68635 0.79625 1.1358 1.1651 1.7904 0.36882 0.6546 0.58376 1.5143 0.91594 2.4621 0.33219 0.9477 0.7816 1.9833 1.0894 2.8284s0.47384 1.4997 0.61063 1.9296c0.13678 0.42988 0.24425 0.63505 0.35172 0.84022"/><path d="m77.291 30.363c-1.0747 2.2284-2.1494 4.4568-2.7188 6.9053-0.56936 2.4486-0.63337 5.1172-0.69738 7.786"/><path d="m74.565 37.052c-1.8368 0.76056-3.6735 1.5211-5.335 2.554-1.6614 1.0329-3.1475 2.3381-4.6335 3.6434"/><path d="m75.179 23.925c0.65374 0.06644 1.3075 0.13287 1.8485 0.42516 0.54104 0.29229 0.96935 0.81042 2.0056 1.3976s2.6805 1.2435 4.6629 1.7266c1.9824 0.48311 4.3029 0.793 5.6415 0.95284 1.3386 0.15984 1.6952 0.16961 2.0542 0.08656 0.35905-0.08305 0.72054-0.2589 0.98433-0.34684 0.26379-0.08793 0.42988-0.08793 0.74253-0.16121 0.31265-0.07328 0.77183-0.21982 1.231-0.36637"/><path d="m76.124 7.9931c-0.42698-0.38795-0.85396-0.77591-1.4632-1.0871-0.60919-0.31122-1.4005-0.5457-2.7781-0.65317-1.3776-0.10747-3.3413-0.087931-5.3222 0.53248-1.9809 0.62041-3.9788 1.8416-5.2416 3.1899-1.2628 1.3483-1.7904 2.8235-1.9906 3.8592-0.20028 1.0356-0.07328 1.6316-0.37127 2.4767-0.29799 0.84512-1.021 1.9393-1.148 2.9408-0.12701 1.0014 0.34195 1.91 0.31752 2.9554s-0.54223 2.2276-0.32728 3.5514c0.21495 1.3239 1.1626 2.7893 1.7342 3.9422 0.57155 1.1529 0.76695 1.9931 0.81091 2.9701 0.04396 0.97702-0.0635 2.0908 0.08794 2.8089 0.15144 0.7181 0.56177 1.0405 1.192 1.402 0.63018 0.3615 1.4802 0.76206 2.8236 0.90372s3.1801 0.02443 4.7043-0.40546c1.5241-0.42989 2.7356-1.1724 3.9471-1.9149"/><path d="m60.345 32.671c-1.8154 0.83699-3.4862 1.6073-5.2528 2.4218"/><path d="m58.071 33.72c-0.59185 1.0261-1.1837 2.0522-1.7755 3.0783"/><path d="m80.867 21.137c0.38103-0.08305 1.1431-0.24914 2.1554-0.07259 1.0123 0.17655 2.2749 0.69572 2.9114 1.0054s0.64684 0.40985 0.59848 0.52211c-0.04836 0.11226-0.15544 0.23661-0.46805 0.4076-0.31261 0.17099-0.83074 0.3886-1.4646 0.46804-0.63386 0.07945-1.3834 0.02073-2.0639-0.33852-0.68049-0.35925-1.2919-1.019-1.622-1.3872-0.33012-0.36825-0.37896-0.445-0.40338-0.48338-0.02442-0.03837-0.02442-0.03837 0.35661-0.12142z"/><path d="m88.58 21.016c-0.44214-0.34542-0.88428-0.69085-1.7479-1.1226s-2.1485-0.94991-3.2539-1.2919c-1.1054-0.34197-2.0311-0.50777-2.791-0.46632-0.75994 0.04145-1.3541 0.29015-1.6477 0.50432-0.29361 0.21416-0.2867 0.39378-0.27979 0.5734"/><path d="m92.187 21.223c0.40069-0.33161 0.80138-0.66321 1.1606-0.85665 0.35924-0.19344 0.67703-0.2487 0.99482-0.30397"/><path d="m64.85 20.829c0.42832-0.14508 0.85665-0.29016 1.2643-0.54405 0.4076-0.25389 0.79447-0.61658 1.0259-0.84283 0.23143-0.22625 0.30743-0.31606 0.40933-0.34715 0.1019-0.03109 0.2297-0.0035 0.56995 0.05181 0.34025 0.05527 0.89291 0.13817 1.2573 0.1848 0.36442 0.04663 0.54059 0.057 0.71675 0.06736"/><path d="m61.824 21.409c-0.27634-0.35233-0.55268-0.70466-0.87392-0.94992-0.32125-0.24525-0.68739-0.38342-0.98446-0.53886-0.29707-0.15544-0.52504-0.32815-0.8596-0.50962s-0.77569-0.37168-1.2168-0.56189"/><path d="m62.183 22.447c-0.20065 0.74883-0.4013 1.4977-0.57734 1.9185s-0.32748 0.51364-0.49112 0.65286-0.33951 0.32485-0.39813 0.54956c-0.05862 0.22471 0 0.4885 0.12457 0.72787 0.12457 0.23937 0.31508 0.4543 0.59598 0.65215 0.28089 0.19784 0.65215 0.37859 0.94525 0.42255 0.2931 0.04396 0.50804-0.04885 0.73275-0.23448 0.22471-0.18563 0.45919-0.46408 0.7181-0.61063 0.25891-0.14655 0.54223-0.16121 0.82556-0.17586"/><path d="m67.677 31.259-0.74741-0.24914-2.4767-1.9638-0.55689-0.07328-1.2017 0.80603-0.84999-0.89396-0.86465 0.35172 0.43965 1.0259-0.20517 0.8793 2.2129 1.6414 2.6672-0.23448"/><path d="m66.352 22.238 1.0777 0.68394 1.658-0.36269 1.0674-1.0881-2.9223-0.29016"/><path d="m59.047 23.15 1.4412-0.17942 0.09253-0.40089-1.4468-0.97262"/></g></svg>
