<?xml version="1.0" encoding="UTF-8"?><svg id="b" xmlns="http://www.w3.org/2000/svg" viewBox="0 0 48 48"><defs><style>.c{fill:none;stroke:#fff;stroke-linecap:round;stroke-linejoin:round;}</style></defs><path class="c" d="M16,5.5c3.324,0,6,2.676,6,6v10.5h-10.5c-3.324,0-6-2.676-6-6,0-5.799,4.701-10.5,10.5-10.5Z"/><path class="c" d="M32,5.5c-3.324,0-6,2.676-6,6v10.5h10.5c3.324,0,6-2.676,6-6,0-5.799-4.701-10.5-10.5-10.5Z"/><path class="c" d="M16,42.5c3.324,0,6-2.676,6-6v-10.5h-10.5c-3.324,0-6,2.676-6,6,0,5.799,4.701,10.5,10.5,10.5Z"/><path class="c" d="M32,42.5c-3.324,0-6-2.676-6-6v-10.5h10.5c3.324,0,6,2.676,6,6,0,5.799-4.701,10.5-10.5,10.5Z"/></svg>