<svg version="1.1" viewBox="0 0 48 48" xml:space="preserve" xmlns="http://www.w3.org/2000/svg"><g fill="none" stroke="#fff" stroke-linecap="round" stroke-linejoin="round"><path d="m37.5 26.5c1.662 0 3 1.338 3 3v6c0 1.662-1.338 3-3 3h-27c-1.662 0-3-1.338-3-3v-6c0-1.662 1.338-3 3-3h19" style="paint-order:stroke fill markers"/><path d="m29.5 26.5v-4.5c0-2.5 3-2.5 3 0v4.5" stroke-width="1px"/><path d="m37.5 26.5h-5" stroke-width="1px"/><path d="m25.343 16.34a8 8 0 0 1 11.314-1e-6" style="paint-order:stroke fill markers"/><path d="m22.515 13.012a12 12 0 0 1 16.971-1e-6" style="paint-order:stroke fill markers"/><rect x="12.5" y="31.5" width="3" height="3" style="paint-order:stroke fill markers"/><rect x="18" y="31.5" width="3" height="3" style="paint-order:stroke fill markers"/><rect x="23.5" y="31.5" width="3" height="3" style="paint-order:stroke fill markers"/></g></svg>
