<?xml version="1.0" encoding="UTF-8" standalone="no"?>
<!-- Created with Inkscape (http://www.inkscape.org/) -->

<svg
   width="48"
   height="48"
   viewBox="0 0 48 48"
   version="1.1"
   id="svg1"
   xml:space="preserve"
   inkscape:version="1.4.2 (ebf0e940d0, 2025-05-08)"
   sodipodi:docname="Lumo.svg"
   xmlns:inkscape="http://www.inkscape.org/namespaces/inkscape"
   xmlns:sodipodi="http://sodipodi.sourceforge.net/DTD/sodipodi-0.dtd"
   xmlns="http://www.w3.org/2000/svg"
   xmlns:svg="http://www.w3.org/2000/svg"><sodipodi:namedview
     id="namedview1"
     pagecolor="#505050"
     bordercolor="#eeeeee"
     borderopacity="1"
     inkscape:showpageshadow="0"
     inkscape:pageopacity="0"
     inkscape:pagecheckerboard="0"
     inkscape:deskcolor="#505050"
     inkscape:document-units="px"
     inkscape:zoom="10.541667"
     inkscape:cx="20.300395"
     inkscape:cy="27.035573"
     inkscape:window-width="1366"
     inkscape:window-height="708"
     inkscape:window-x="0"
     inkscape:window-y="28"
     inkscape:window-maximized="1"
     inkscape:current-layer="layer3" /><defs
     id="defs1" /><g
     inkscape:groupmode="layer"
     id="layer3"
     inkscape:label="Camada 3"><g
       id="g16"
       transform="matrix(1.0900438,0,0,1.0900438,-2.1755107,-2.4199113)"><path
         id="path2"
         style="display:inline;opacity:1;fill:none;stroke:#ffffff;stroke-linecap:round;stroke-linejoin:round;stroke-opacity:1"
         d="m 13.671468,8.5629921 c -0.173599,0.00763 -0.327255,0.047295 -0.455078,0.1210938 -1.769152,1.0214195 -1.951955,7.2190581 -1.970703,8.3203121 a 15.83025,11.403145 0 0 0 -3.0624998,6.742188 15.83025,11.403145 0 0 0 5.3808588,8.566406 v 4.447266 h 7.050781 a 4.0581779,3.5550995 0 0 0 -0.660156,1.943359 4.0581779,3.5550995 0 0 0 4.058594,3.554687 4.0581779,3.5550995 0 0 0 4.058594,-3.554687 4.0581779,3.5550995 0 0 0 -0.660157,-1.943359 h 6.738282 v -4.25586 a 15.83025,11.403145 0 0 0 5.693359,-8.757812 15.83025,11.403145 0 0 0 -3.013672,-6.69336 C 36.815501,16.098443 36.653688,9.7213949 34.857015,8.6840859 33.862328,8.1098033 31.344715,9.6870105 29.431234,11.092289 A 8.1834335,3.4209435 0 0 0 24.280843,10.33057 8.1834335,3.4209435 0 0 0 18.802327,11.21143 C 17.113044,9.9577187 14.88666,8.5095952 13.671468,8.5629921 Z" /><ellipse
         style="display:inline;opacity:1;fill:none;stroke:#ffffff;stroke-linecap:round;stroke-linejoin:round;stroke-opacity:1"
         id="path2-7"
         cx="24.013681"
         cy="38.703617"
         rx="4.0581779"
         ry="3.5550995" /><path
         style="display:inline;opacity:1;fill:none;stroke:#ffffff;stroke-linecap:round;stroke-linejoin:round;stroke-opacity:1"
         d="m 20.335968,27.106719 c 0,0 1.409212,0.0039 1.849803,1.648222 0,0 0.568661,-1.695652 1.814229,-1.695652"
         id="path4"
         sodipodi:nodetypes="ccc" /><ellipse
         style="display:inline;opacity:1;fill:none;stroke:#ffffff;stroke-linecap:round;stroke-linejoin:round;stroke-opacity:1"
         id="path5"
         cx="15.226552"
         cy="22.856598"
         rx="1.5092398"
         ry="3.0017102" /><ellipse
         style="display:inline;opacity:1;fill:none;stroke:#ffffff;stroke-linecap:round;stroke-linejoin:round;stroke-opacity:1"
         id="path5-0"
         cx="30.482883"
         cy="23.057579"
         rx="1.5092398"
         ry="3.0017102" /><ellipse
         style="display:inline;opacity:1;fill:none;stroke:#ffffff;stroke-linecap:round;stroke-linejoin:round;stroke-opacity:1"
         id="path6"
         cx="20.549629"
         cy="32.137154"
         ry="4.6465478"
         rx="5.2488008"
         transform="rotate(-20.083735)" /><ellipse
         style="display:inline;opacity:1;fill:none;stroke:#ffffff;stroke-linecap:round;stroke-linejoin:round;stroke-opacity:1"
         id="path6-6"
         cx="-22.14945"
         cy="16.238035"
         ry="4.6465478"
         rx="5.2488008"
         transform="matrix(-0.93919177,-0.34339309,-0.34339309,0.93919177,0,0)" /><g
         id="g15"><ellipse
           style="opacity:1;fill:none;stroke:#ffffff;stroke-linecap:round;stroke-linejoin:round;stroke-opacity:1"
           id="path14"
           cx="23.208754"
           cy="37.806458"
           rx="0.50307995"
           ry="0.49469525" /><rect
           style="opacity:1;fill:none;stroke:#ffffff;stroke-linecap:round;stroke-linejoin:round;stroke-opacity:1"
           id="rect15"
           width="0.23477063"
           height="1.3110865"
           x="23.091368"
           y="38.616688" /></g></g></g></svg>
