<?xml version="1.0" encoding="UTF-8"?><svg id="a" xmlns="http://www.w3.org/2000/svg" viewBox="0 0 48 48"><defs><style>.d{fill:none;stroke:#fff;stroke-linecap:round;stroke-linejoin:round;}</style></defs><path class="d" d="m24.08 26.027-16.489-10.264 16.489-10.264 16.489 10.264-16.489 10.264z"/><path class="d" d="m40.569 15.764v16.472l-16.489 10.264-16.489-10.264v-16.472"/><path class="d" d="m32.862 28.353 4.5793-3.0165-3.6714 8.5306 4.6433-3.1207"/><line class="d" x1="24.08" x2="24.08" y1="42.5" y2="26.027"/><path class="d" d="m32.432 42.459v-3.1219h1.128c0.63772 0 1.1547 0.46942 1.1547 1.0484s-0.51696 1.0485-1.1547 1.0485h-1.128"/><path class="d" d="m36.175 42.459v-3.1219h1.128c0.63772 0 1.1547 0.46942 1.1547 1.0484s-0.51696 1.0485-1.1547 1.0485h-1.128"/><line class="d" x1="37.303" x2="38.431" y1="41.434" y2="42.458"/><path class="d" d="m41.061 39.337c0.63229 0 1.1413 0.46122 1.1413 1.0341v1.0536c0 0.57291-0.50903 1.0341-1.1413 1.0341s-1.1413-0.46122-1.1413-1.0341v-1.0536c0-0.57291 0.50903-1.0341 1.1413-1.0341z"/></svg>
