<?xml version="1.0" encoding="UTF-8"?>
<svg version="1.1" viewBox="0 0 48 48" xml:space="preserve" xmlns="http://www.w3.org/2000/svg"><defs><style>.c{fill:none;stroke:#fff;stroke-linecap:round;stroke-linejoin:round;}</style></defs><g transform="matrix(.93468 0 0 .93384 1.5677 1.5879)" fill="none" stroke="#fff" stroke-linecap="round" stroke-linejoin="round" stroke-width="1.0704"><path d="m14 16c-4.432 0-8 3.568-8 8v10c0 4.432 3.568 8 8 8h10c-4.432 0-8-3.568-8-8v-18z"/><path d="m42 24c0 4.432-3.568 8-8 8h-18v2c0 4.432 3.568 8 8 8h10c4.432 0 8-3.568 8-8z"/><path d="m14 6c-4.432 0-8 3.568-8 8v10c0-4.432 3.568-8 8-8h18v-2c0-4.432-3.568-8-8-8z"/><path d="m24 6c4.432 0 8 3.568 8 8v18h2c4.432 0 8-3.568 8-8v-10c0-4.432-3.568-8-8-8z"/></g></svg>
