<svg xmlns="http://www.w3.org/2000/svg" xml:space="preserve" viewBox="0 0 48 48"><path d="M26.807 28.521 29.06 14.87h6.84m-7.968 6.826h4.447m-20.677 5.188 1.959-12.014 4.532 13.652 8.98-13.631-2.222 13.631m12.87-2.444V10.735a3.469 3.469 0 0 1-3.469-3.47c0-.096.004-.192.02-.286C33.721 6.447 30.842 4.5 24 4.5c-6.842 0-9.721 1.947-10.373 2.479.015.094.02.19.02.286a3.469 3.469 0 0 1-3.468 3.47v15.342M8.584 34.13v-8.897L24 33.384l15.416-8.15v8.897L24 43.5z" class="t" style="display:inline;fill:none;stroke:#fff;stroke-width:1stroke-linecap:round;stroke-linejoin:round;stroke-opacity:1"/></svg>
