<?xml version="1.0" encoding="UTF-8"?><svg id="b" xmlns="http://www.w3.org/2000/svg" viewBox="0 0 48 48"><defs><style>.as{fill:none;stroke:#fff;stroke-linecap:round;stroke-linejoin:round;}</style></defs><path id="f" class="as" d="M9.5,5.5h29c2.2159996,0,4,1.78399992,4,4v29c0,2.2159996-1.7840004,4-4,4H9.5c-2.21600008,0-4-1.7840004-4-4V9.5c0-2.21600008,1.78399992-4,4-4Z"/><g id="g"><g id="h"><path id="i" class="as" d="M20.8695507,13.33463955l.22623634-.47947598"/><path id="j" class="as" d="M21.99798393,13.01103687l.31907272-.64586639"/><path id="k" class="as" d="M23.06951523,12.68597031l.2474041-.46284771"/><path id="l" class="as" d="M19.93400574,13.23584366l-.25553131-.34429359"/></g><g id="m"><path id="n" class="as" d="M29.29711914,25.62721443l.91115379,4.74728394"/><path id="o" class="as" d="M20.74050903,31.73973656c-.01807976,1.84528923-.41458702,3.29119682-.92543602,4.86554909-1.87223816,2.19305038-2.84968758,3.84718704-2.74266243,5.77077866"/><path id="p" class="as" d="M27.10732269,34.67570114c-4.03199768,3.17416-5.56480789,3.09279633-7.81973839,5.30535126-.68088531.66809082-1.14415932,1.41949081-1.42963982,2.2505455"/></g><g id="q"><path id="r" class="as" d="M20.68727875,42.3146286l5.71116257-6.0162735c1.08869934-2.58866882,2.60190392-4.21146774,4.04351425-6.20574951l2.47283936,3.76860428c-2.42194939,1.38229752-4.65048981,3.23859024-4.6534214,6.00888062l-2.79839516.66073227,1.70332146.8914032-1.68181038,1.03770447"/><path id="s" class="as" d="M13.72455597,42.43953323c.14752007-1.61566544,1.1939764-2.93419266,2.35401154-4.19589615l.82119942.28020859c1.01914787-1.92898941,2.13347626-3.64930344,3.50250053-4.22341156"/><path id="t" class="as" d="M32.80197525,34.19475555c1.95493317,1.41020966,3.72960663,2.41363907,4.59248734,3.48667908,1.99941635.5270195,3.26305771,1.88365173,2.88524246,4.00964355"/><path id="u" class="as" d="M35.70397949,39.09070969c-1.64854813.06793976-2.96368408,1.87634659-3.11715698,3.36172104"/></g><g id="v"><g id="w"><path id="x" class="as" d="M29.48007965,24.57681084c-.6872139,2.76094818-2.41331673,5.19921684-7.31063271,6.82749557-.98431206.3272686-1.86363602.13821793-2.25115585-.25177574-1.00699615-1.01342392-1.61859512-2.06600761-2.29298401-3.17383385-.49342155-.81055069-1.35439873-1.60079002-1.76056576-2.52666283-.94753838-2.15994644-.60562611-4.17928505-.71432972-6.69739914"/><path id="y" class="as" d="M31.79299927,17.43499947c.89448929.69530869.81567001,3.22900963.33756638,3.91996193-.24098206.34826851-.50379372.54149628-.7228508.71292114"/><path id="z" class="as" d="M19.50167847,24.13158417l.02601051-.80197144"/></g><g id="aa"><path id="ab" class="as" d="M14.08742714,19.41206169c1.0063448-3.12362671,3.21809578-8.62869072,9.6506443-7.61980438"/><path id="ac" class="as" d="M35.0326767,20.22172546c-.98182297-8.40168571-3.73731041-13.41247272-10.01211739-13.81274462-5.95118141-2.39469862-11.69765091,2.15980768-12.6147871,7.67746973-.13643265.8208046.20517159,1.44114208.47870541,2.07049179"/><path id="ad" class="as" d="M23.83854675,12.65178967c1.9845314,1.25822067,4.53972054,2.67343044,6.08362198,4.77167416"/><path id="ae" class="as" d="M31.15776825,11.75647926c1.24833298,2.51938534,1.41131973,5.52165604-.11402893,5.81084633"/><path id="af" class="as" d="M12.87867641,17.88996506l-.62812328.40258408c.14799595.96017647,1.6103611,2.77960968,2.63596916,1.33919716"/><path id="ag" class="as" d="M16.34074593,26.67686081c.2082653,1.57073593-.22345352,2.86964417-.92026806,4.02499008"/><path id="ah" class="as" d="M17.03173828,27.3978653c.16102028,1.6881485.50818253,3.43345261-.88606262,4.66783142"/><path id="ai" class="as" d="M15.58390045,33.19360733c1.68263435,1.02882767,3.49726677.50344467,5.11102104-.75354767"/><path id="aj" class="as" d="M35.34173965,29.62367821c-1.80342102-.69742775-2.28435898-2.64150429-1.85612488-5.80048943.12464142-.91944504.29959869-1.88521767.45243073-2.87536049"/><path id="ak" class="as" d="M12.99886799,16.45839691c.51692772-1.92716694,1.94520569-3.47699356,3.49085522-4.97136593"/><path id="al" class="as" d="M32.06812668,32.29276657c1.75853729.90834427,4.22289658.07482147,4.90011597-1.93008041-1.09991074.53155899-2.23991776.15534782-3.0153389-.34270668"/><g id="am"><path id="an" class="as" d="M23.84367943,8.12512589l.56292152-.35240936"/><path id="ao" class="as" d="M24.60450745,10.16042614l.66596603.14170742"/><path id="ap" class="as" d="M24.30822945,9.06543541l.41088676-.15171051"/></g><path id="aq" class="as" d="M28.59254265,16.01981354c1.27140999,1.897295,1.23011017,4.38661575,1.00191689,6.04491997"/></g><path id="ar" class="as" d="M30.36422348,22.63075829c.5467453.48701859.61251259,1.57934189.48295975,2.36118698"/></g></g></svg>