<?xml version="1.0" encoding="UTF-8" standalone="no"?>
<svg
   viewBox="0 0 48 48"
   version="1.1"
   id="svg1"
   sodipodi:docname="magalu.svg"
   inkscape:version="1.2.2 (b0a8486541, 2022-12-01)"
   xml:space="preserve"
   xmlns:inkscape="http://www.inkscape.org/namespaces/inkscape"
   xmlns:sodipodi="http://sodipodi.sourceforge.net/DTD/sodipodi-0.dtd"
   xmlns="http://www.w3.org/2000/svg"
   xmlns:svg="http://www.w3.org/2000/svg"><sodipodi:namedview
     id="namedview1"
     pagecolor="#505050"
     bordercolor="#eeeeee"
     borderopacity="1"
     inkscape:showpageshadow="0"
     inkscape:pageopacity="0"
     inkscape:pagecheckerboard="0"
     inkscape:deskcolor="#505050"
     inkscape:zoom="6.2976698"
     inkscape:cx="-25.088645"
     inkscape:cy="10.480067"
     inkscape:window-width="1918"
     inkscape:window-height="1053"
     inkscape:window-x="0"
     inkscape:window-y="0"
     inkscape:window-maximized="1"
     inkscape:current-layer="svg1"
     showgrid="false" /><defs
     id="defs1"><style
       id="style1">.a { fill:none;stroke:#fff;stroke-linecap:round;stroke-linejoin:round; }
</style></defs><path
     style="fill:none;stroke:#ffffff;stroke-linecap:round;stroke-linejoin:round;stroke-opacity:1;stop-color:#000000"
     d="m 9.5,5.5 h 29 c 2.216,0 4,1.784 4,4 v 29 c 0,2.216 -1.784,4 -4,4 h -29 c -2.216,0 -4,-1.784 -4,-4 v -29 c 0,-2.216 1.784,-4 4,-4 z"
     id="path20221" /><g
     id="g20405"><g
       id="g20262"><path
         style="fill:none;stroke:#ffffff;stroke-linecap:round;stroke-linejoin:round;stroke-opacity:1;stop-color:#000000"
         d="m 20.86955,13.33464 0.226236,-0.479476"
         id="path20195" /><path
         style="fill:none;stroke:#ffffff;stroke-linecap:round;stroke-linejoin:round;stroke-opacity:1;stop-color:#000000"
         d="m 21.997984,13.011037 0.319073,-0.645866"
         id="path20193" /><path
         style="fill:none;stroke:#ffffff;stroke-linecap:round;stroke-linejoin:round;stroke-opacity:1;stop-color:#000000"
         d="m 23.069515,12.68597 0.247404,-0.462848"
         id="path20191" /><path
         style="fill:none;stroke:#ffffff;stroke-linecap:round;stroke-linejoin:round;stroke-opacity:1;stop-color:#000000"
         d="M 19.934005,13.235844 19.678475,12.89155"
         id="path20189" /></g><g
       id="g20316"><path
         style="fill:none;stroke:#ffffff;stroke-linecap:round;stroke-linejoin:round;stroke-opacity:1;stop-color:#000000"
         d="m 29.29712,25.627215 0.911153,4.747284"
         id="path20181" /><path
         style="fill:none;stroke:#ffffff;stroke-linecap:round;stroke-linejoin:round;stroke-opacity:1;stop-color:#000000"
         d="m 20.740509,31.739736 c -0.01808,1.84529 -0.414587,3.291198 -0.925436,4.86555 -1.872239,2.193051 -2.849688,3.847186 -2.742662,5.770779"
         id="path20179" /><path
         style="fill:none;stroke:#ffffff;stroke-linecap:round;stroke-linejoin:round;stroke-opacity:1;stop-color:#000000"
         d="m 27.107322,34.675703 c -4.031998,3.17416 -5.564808,3.092796 -7.819738,5.305352 -0.680885,0.66809 -1.144159,1.419489 -1.42964,2.250546"
         id="path20173"
         sodipodi:nodetypes="csc" /></g><g
       id="g20322"><path
         style="fill:none;stroke:#ffffff;stroke-linecap:round;stroke-linejoin:round;stroke-opacity:1;stop-color:#000000"
         d="m 20.687279,42.314628 5.711162,-6.016273 c 1.0887,-2.588669 2.601904,-4.211469 4.043515,-6.205749 l 2.47284,3.768606 c -2.42195,1.382299 -4.650489,3.238592 -4.653422,6.00888 l -2.798396,0.660731 1.703322,0.891403 -1.681811,1.037703"
         id="path20177" /><path
         style="fill:none;stroke:#ffffff;stroke-linecap:round;stroke-linejoin:round;stroke-opacity:1;stop-color:#000000"
         d="m 13.724556,42.439535 c 0.14752,-1.615666 1.193976,-2.934192 2.354011,-4.195896 l 0.8212,0.280207 c 1.019147,-1.928989 2.133477,-3.649304 3.502501,-4.223413"
         id="path20175" /><path
         style="fill:none;stroke:#ffffff;stroke-linecap:round;stroke-linejoin:round;stroke-opacity:1;stop-color:#000000"
         d="m 32.801974,34.194756 c 1.954932,1.410209 3.729605,2.413638 4.592487,3.486681 1.999417,0.527019 3.263056,1.883651 2.885243,4.009642"
         id="path20171" /><path
         style="fill:none;stroke:#ffffff;stroke-linecap:round;stroke-linejoin:round;stroke-opacity:1;stop-color:#000000"
         d="m 35.703978,39.09071 c -1.648547,0.06794 -2.963685,1.876345 -3.117158,3.36172"
         id="path20169" /></g><g
       id="g20311"><g
         id="g20289"><path
           style="fill:none;stroke:#ffffff;stroke-linecap:round;stroke-linejoin:round;stroke-opacity:1;stop-color:#000000"
           d="m 29.48008,24.576811 c -0.687214,2.760949 -2.413317,5.199218 -7.310632,6.827496 -0.984312,0.327268 -1.863636,0.138218 -2.251156,-0.251776 -1.006996,-1.013424 -1.618595,-2.066008 -2.292984,-3.173834 -0.493422,-0.81055 -1.354399,-1.60079 -1.760566,-2.526662 -0.947538,-2.159946 -0.605626,-4.179285 -0.71433,-6.697398"
           id="path20219" /><path
           style="fill:none;stroke:#ffffff;stroke-linecap:round;stroke-linejoin:round;stroke-opacity:1;stop-color:#000000"
           d="m 31.793,17.434999 c 0.894488,0.695308 0.815671,3.229009 0.337568,3.919963 -0.240983,0.348269 -0.503794,0.541497 -0.722851,0.712922"
           id="path20203" /><path
           style="fill:none;stroke:#ffffff;stroke-linecap:round;stroke-linejoin:round;stroke-opacity:1;stop-color:#000000"
           d="m 19.501679,24.131584 0.02601,-0.801972"
           id="path20199" /></g><g
         id="g20284"><path
           style="fill:none;stroke:#ffffff;stroke-linecap:round;stroke-linejoin:round;stroke-opacity:1;stop-color:#000000"
           d="m 14.087427,19.412061 c 1.006345,-3.123627 3.218096,-8.628691 9.650645,-7.619804"
           id="path20217" /><path
           style="fill:none;stroke:#ffffff;stroke-linecap:round;stroke-linejoin:round;stroke-opacity:1;stop-color:#000000"
           d="M 35.032675,20.221726 C 34.050855,11.82004 31.295366,6.8092526 25.020559,6.408981 19.069377,4.0142823 13.322908,8.5687883 12.405772,14.086451 c -0.136433,0.820805 0.205172,1.441142 0.478705,2.070492"
           id="path20213" /><path
           style="fill:none;stroke:#ffffff;stroke-linecap:round;stroke-linejoin:round;stroke-opacity:1;stop-color:#000000"
           d="m 23.838547,12.65179 c 1.984531,1.258221 4.53972,2.673431 6.083621,4.771674"
           id="path20207" /><path
           style="fill:none;stroke:#ffffff;stroke-linecap:round;stroke-linejoin:round;stroke-opacity:1;stop-color:#000000"
           d="m 31.157768,11.756479 c 1.248333,2.519385 1.411318,5.521656 -0.114028,5.810847"
           id="path20205" /><path
           style="fill:none;stroke:#ffffff;stroke-linecap:round;stroke-linejoin:round;stroke-opacity:1;stop-color:#000000"
           d="m 12.878676,17.889965 -0.628123,0.402584 c 0.147996,0.960177 1.610361,2.77961 2.635969,1.339198"
           id="path20197" /><path
           style="fill:none;stroke:#ffffff;stroke-linecap:round;stroke-linejoin:round;stroke-opacity:1;stop-color:#000000"
           d="m 16.340745,26.676861 c 0.208265,1.570735 -0.223453,2.869645 -0.920268,4.02499"
           id="path20187" /><path
           style="fill:none;stroke:#ffffff;stroke-linecap:round;stroke-linejoin:round;stroke-opacity:1;stop-color:#000000"
           d="m 17.031739,27.397866 c 0.16102,1.688149 0.508182,3.433452 -0.886063,4.66783"
           id="path20185" /><path
           style="fill:none;stroke:#ffffff;stroke-linecap:round;stroke-linejoin:round;stroke-opacity:1;stop-color:#000000"
           d="m 15.5839,33.193608 c 1.682634,1.028826 3.497267,0.503446 5.111021,-0.753547"
           id="path20183" /><path
           style="fill:none;stroke:#ffffff;stroke-linecap:round;stroke-linejoin:round;stroke-opacity:1;stop-color:#000000"
           d="m 35.34174,29.623678 c -1.803421,-0.697428 -2.284358,-2.641505 -1.856125,-5.80049 0.12464,-0.919445 0.299599,-1.885218 0.452432,-2.87536"
           id="path20167" /><path
           style="fill:none;stroke:#ffffff;stroke-linecap:round;stroke-linejoin:round;stroke-opacity:1;stop-color:#000000"
           d="m 12.998868,16.458397 c 0.516928,-1.927167 1.945206,-3.476994 3.490856,-4.971366"
           id="path20215" /><path
           style="fill:none;stroke:#ffffff;stroke-linecap:round;stroke-linejoin:round;stroke-opacity:1;stop-color:#000000"
           d="m 32.068128,32.292765 c 1.758536,0.908343 4.222898,0.07482 4.900116,-1.93008 -1.099912,0.531559 -2.239918,0.155348 -3.015338,-0.342707"
           id="path20165" /><g
           id="g20267"><path
             style="fill:none;stroke:#ffffff;stroke-linecap:round;stroke-linejoin:round;stroke-opacity:1;stop-color:#000000"
             d="M 23.843679,8.1251262 24.406601,7.7727165"
             id="path20211" /><path
             style="fill:none;stroke:#ffffff;stroke-linecap:round;stroke-linejoin:round;stroke-opacity:1;stop-color:#000000"
             d="m 24.604507,10.160426 0.665966,0.141707"
             id="path20209" /><path
             style="fill:none;stroke:#ffffff;stroke-linecap:round;stroke-linejoin:round;stroke-opacity:1;stop-color:#000000"
             d="M 24.30823,9.0654351 24.719116,8.9137252"
             id="path20163" /></g><path
           style="fill:none;stroke:#ffffff;stroke-linecap:round;stroke-linejoin:round;stroke-opacity:1;stop-color:#000000"
           d="m 28.592542,16.019814 c 1.271411,1.897295 1.230111,4.386616 1.001917,6.04492"
           id="path19922" /></g><path
         style="fill:none;stroke:#ffffff;stroke-linecap:round;stroke-linejoin:round;stroke-opacity:1;stop-color:#000000"
         d="m 30.364224,22.630759 c 0.546746,0.487018 0.612512,1.579341 0.482959,2.361187"
         id="path20201" /></g></g></svg>
