<svg xmlns="http://www.w3.org/2000/svg" xml:space="preserve" width="48" height="48" viewBox="0 0 12.7 12.7"><path fill="none" stroke="#fff" stroke-linecap="round" stroke-linejoin="round" stroke-width=".265" d="M10.23 6.273c.088 1.012-.66 1.238-1.595 1.366-.068.01-.137.018-.206.026m-4.143.386c-.453.115-.9.282-1.34.528M8.47 1.455a2.785 2.785 0 0 0-.148 1.41m.585 1.429c.24.364.54.717.881 1.057M5.06 7.928c-.85 1.015-1.231 2.142-1.353 3.317m2.742-2.92c-.094.071-.187.144-.278.217m-.288.237c-.804.685-1.477 1.456-1.793 2.465m3.215-1.477c.422-.038.296.684.34 1.197-.162-.289-.342-.584-.49-.744-.203-.221-.06-.434.15-.453zm-5.004-3.5c.262.125.524.142.786.42.198.017.317-.11.275-.24-.056-.174-.216-.3-.463-.294-.225.005-.415.024-.598.114zm3.03-.991c-.538.445-1.118.748-1.92 1.138.718-.166 1.453-.332 2.12-.5m5.042-4.387-.276.4c-.235.342-.53-.076-.284-.215l.407-.231m-.326.712c-.324.617-.786 1.141-1.308 1.628-.242.136-.366-.181-.392-.402-.018-.148.08-.266.228-.321.741-.277.981-.603 1.472-.905zm-2.45 5.042c-.327-1.225.023-1.64.322-2.436.226-.598.552-1.172.275-1.21-1.01.095-1.87.548-2.768 1.236-.173.133-.202.463-.05.762.19.374.29.547.366.758m-.382.806c.37.841.992 1.758 1.614 2.676-.968-.897-2.616-2.275-2.566-3.058.02-.318.63-.772 1.278-.453.887.478 1.352.639 1.925.985.25.152.3.552.186.97-.113.412-.793.634-1.37.02zm1.516-3.29c-.845.212-1.188-1.033-.995-1.528.175-.45 1.138-.63 1.45-.16.294.444.279 1.504-.455 1.688zm-4.41-2.406h7.673c.586 0 1.058.472 1.058 1.058v7.673c0 .587-.472 1.058-1.058 1.058H2.513a1.056 1.056 0 0 1-1.058-1.058V2.513c0-.586.472-1.058 1.058-1.058z"/></svg>
