<?xml version="1.0" encoding="UTF-8" standalone="no"?>
<svg
   viewBox="0 0 48 48"
   version="1.1"
   id="svg1"
   sodipodi:docname="magic_rampage.svg"
   inkscape:version="1.2.2 (b0a8486541, 2022-12-01)"
   xml:space="preserve"
   xmlns:inkscape="http://www.inkscape.org/namespaces/inkscape"
   xmlns:sodipodi="http://sodipodi.sourceforge.net/DTD/sodipodi-0.dtd"
   xmlns="http://www.w3.org/2000/svg"
   xmlns:svg="http://www.w3.org/2000/svg"><sodipodi:namedview
     id="namedview1"
     pagecolor="#505050"
     bordercolor="#eeeeee"
     borderopacity="1"
     inkscape:showpageshadow="0"
     inkscape:pageopacity="0"
     inkscape:pagecheckerboard="0"
     inkscape:deskcolor="#505050"
     inkscape:zoom="8.0000001"
     inkscape:cx="4.875"
     inkscape:cy="49.5"
     inkscape:window-width="1912"
     inkscape:window-height="1054"
     inkscape:window-x="0"
     inkscape:window-y="0"
     inkscape:window-maximized="1"
     inkscape:current-layer="svg1"
     showgrid="false" /><defs
     id="defs1"><style
       id="style1">.a { fill:none;stroke:#fff;stroke-linecap:round;stroke-linejoin:round; }
</style></defs><g
     id="g3336"><g
       id="g3261"><path
         style="fill:none;stroke:#ffffff;stroke-linecap:round;stroke-linejoin:round;stroke-opacity:1;stop-color:#000000"
         d="m 25.005594,22.931826 c -1.577435,0.626809 -4.332091,-0.230853 -4.78572,-1.854146 -0.25763,-0.921917 -0.171928,-1.629235 0.186349,-2.61113 l 0.894279,0.191858 c 0.01848,-0.445191 0.303499,-0.933933 0.686435,-1.321947 l 2.389261,2.019965"
         id="path3067" /><g
         id="g3147"><path
           style="fill:none;stroke:#ffffff;stroke-linecap:round;stroke-linejoin:round;stroke-opacity:1;stop-color:#000000"
           d="m 19.986107,22.937326 c -0.263914,-1.181526 -1.264482,-2.4031 -2.746113,-2.79712 l -0.04596,-1.358728 c -1.483554,1.232714 -2.409154,2.580882 -3.162747,4.143092 -0.797398,0.615355 -0.980735,1.573228 -0.707442,2.454573 1.284987,0.03798 3.393935,0.188669 5.348077,-0.367414 l 0.723445,-1.731744 z"
           id="path3065" /><path
           style="fill:none;stroke:#ffffff;stroke-linecap:round;stroke-linejoin:round;stroke-opacity:1;stop-color:#000000"
           d="m 18.750789,25.026257 c 1.211736,0.265473 1.922862,1.567426 1.757979,2.785653 -0.153756,1.77813 -1.688038,1.95267 -2.294783,0.16428 -0.422999,-1.246799 -1.481058,-0.795738 -2.297351,-0.727715 -2.048064,0.339498 -1.916281,0.874839 -1.918603,1.302571 -0.0052,0.951306 -0.352724,1.519915 -1.05552,1.544045 -1.100583,0.03778 -1.321343,-1.585401 -0.78014,-2.591449 -0.467947,0.845594 -1.080231,1.98509 -1.98233,1.538552 -1.1311885,-0.559938 -0.5504465,-2.129539 0.362472,-2.851914 -1.7619617,0.203106 -1.3168007,-1.493823 -0.503877,-1.893659 0.956501,-0.470455 1.893043,-0.273766 2.968469,-0.02271"
           id="path3053" /></g></g><g
       id="g3269"><path
         style="fill:none;stroke:#ffffff;stroke-linecap:round;stroke-linejoin:round;stroke-opacity:1;stop-color:#000000"
         d="m 23.144297,23.230584 c -0.495036,0.946554 -0.670814,1.519307 -0.893214,2.470502 0.572108,1.017898 4.773072,4.152676 7.927264,2.301156"
         id="path3051" /><path
         style="fill:none;stroke:#ffffff;stroke-linecap:round;stroke-linejoin:round;stroke-opacity:1;stop-color:#000000"
         d="m 22.289541,26.162216 -0.426812,0.752277"
         id="path3049" /><path
         style="fill:none;stroke:#ffffff;stroke-linecap:round;stroke-linejoin:round;stroke-opacity:1;stop-color:#000000"
         d="m 28.077132,29.758919 c -2.007014,0.55444 -4.649459,0.364858 -6.136002,-0.568862"
         id="path3047" /><path
         style="fill:none;stroke:#ffffff;stroke-linecap:round;stroke-linejoin:round;stroke-opacity:1;stop-color:#000000"
         d="m 28.068511,30.656862 0.875434,0.186329"
         id="path3045"
         sodipodi:nodetypes="cc" /><path
         style="fill:none;stroke:#ffffff;stroke-linecap:round;stroke-linejoin:round;stroke-opacity:1;stop-color:#000000"
         d="m 17.140163,29.675926 c -0.443479,1.058571 0.394363,3.199667 1.35316,3.672942 1.149584,-0.64516 2.067077,-1.15692 2.663841,-1.892167"
         id="path3041" /><path
         style="fill:none;stroke:#ffffff;stroke-linecap:round;stroke-linejoin:round;stroke-opacity:1;stop-color:#000000"
         d="m 21.345352,31.639881 c -0.158723,0.951795 -0.588125,1.742156 -1.23313,2.711115 1.880824,1.759925 5.320073,0.906873 6.446261,0.234671 1.161396,-0.693218 1.737013,-2.145888 2.995122,-3.14204"
         id="path3039" /></g><g
       id="g3151"><path
         style="fill:none;stroke:#ffffff;stroke-linecap:round;stroke-linejoin:round;stroke-opacity:1;stop-color:#000000"
         d="M 16.957143,15.312311 18.684145,14.17801"
         id="path3037" /><path
         style="fill:none;stroke:#ffffff;stroke-linecap:round;stroke-linejoin:round;stroke-opacity:1;stop-color:#000000"
         d="m 16.378447,12.568063 2.481576,4.032693"
         id="path3035" /></g><g
       id="g3282"><path
         style="fill:none;stroke:#ffffff;stroke-linecap:round;stroke-linejoin:round;stroke-opacity:1;stop-color:#000000"
         d="m 19.800867,36.585687 c -0.201514,1.115494 -0.712875,2.140376 -1.80764,2.994644 -0.316455,-0.972161 -1.38353,-1.73156 -2.918284,-0.380752 L 14.18767,37.52489 12.984937,37.122392 10.309271,37.906021 c -1.7604024,0.970047 -2.222372,1.8553 -2.8542855,2.730243 l 0.013516,0.938661 H 18.300212 l 0.09943,-1.681267"
         id="path3033" /><path
         style="fill:none;stroke:#ffffff;stroke-linecap:round;stroke-linejoin:round;stroke-opacity:1;stop-color:#000000"
         d="m 17.898294,34.598755 c 0.307881,0.279744 0.716882,0.47436 1.132193,0.565312"
         id="path3031" /><path
         style="fill:none;stroke:#ffffff;stroke-linecap:round;stroke-linejoin:round;stroke-opacity:1;stop-color:#000000"
         d="m 13.054307,36.674555 0.379086,-0.982867 c -0.31427,-0.568341 -0.46587,-1.207067 -0.444176,-1.920768 l 0.877211,-0.254719 c -0.02059,-0.700376 0.7429,-1.583188 1.852756,-2.060012"
         id="path3029" /></g><g
       id="g3277"><path
         style="fill:none;stroke:#ffffff;stroke-linecap:round;stroke-linejoin:round;stroke-opacity:1;stop-color:#000000"
         d="m 28.875299,34.9567 c 0.670298,0.177317 1.325064,0.258858 1.979789,0.256282 l 0.03287,-0.738322 0.832401,-0.649957"
         id="path3025" /><path
         style="fill:none;stroke:#ffffff;stroke-linecap:round;stroke-linejoin:round;stroke-opacity:1;stop-color:#000000"
         d="m 34.54362,37.710832 c 1.225023,0.835231 2.974167,2.006662 3.211212,3.864093 H 27.420673 c -1.119868,-0.329907 -0.819721,-1.853183 -0.390121,-2.813206 0.01355,-1.072506 0.0724,-2.024004 0.348789,-2.932087"
         id="path3023" /><path
         style="fill:none;stroke:#ffffff;stroke-linecap:round;stroke-linejoin:round;stroke-opacity:1;stop-color:#000000"
         d="m 34.616971,35.049801 -0.94043,1.408842 0.04805,0.982425 0.39643,0.50304"
         id="path3021" /><path
         style="fill:none;stroke:#ffffff;stroke-linecap:round;stroke-linejoin:round;stroke-opacity:1;stop-color:#000000"
         d="m 31.70818,38.278887 c -0.553303,0.455537 -1.258389,0.89076 -1.957815,1.32674 -0.394023,-1.189551 -1.9742,-1.472336 -2.558363,-0.826081"
         id="path3019" /><path
         style="fill:none;stroke:#ffffff;stroke-linecap:round;stroke-linejoin:round;stroke-opacity:1;stop-color:#000000"
         d="m 34.066441,38.156921 c -0.691837,0.182986 -1.383675,0.15167 -2.075512,0.549051"
         id="path3017" /><path
         style="fill:none;stroke:#ffffff;stroke-linecap:round;stroke-linejoin:round;stroke-opacity:1;stop-color:#000000"
         d="m 29.698753,31.473435 c 0.689169,0.07985 2.210977,0.409849 2.942413,1.505578"
         id="path3015" /></g><g
       id="g3187"
       style="display:inline"><g
         id="g3155"><path
           style="fill:none;stroke:#ffffff;stroke-linecap:round;stroke-linejoin:round;stroke-opacity:1;stop-color:#000000"
           d="m 29.720671,15.425535 2.747848,2.851175 1.766952,2.656944 1.319574,0.113821"
           id="path3087" /><path
           style="fill:none;stroke:#ffffff;stroke-linecap:round;stroke-linejoin:round;stroke-opacity:1;stop-color:#000000"
           d="m 28.513764,11.925352 -4.139852,-1.305808 c -0.416184,0.220591 -0.760953,0.828804 -0.824668,1.277944 l 4.372546,2.234672"
           id="path3085" /></g><g
         id="g3169"><path
           style="fill:none;stroke:#ffffff;stroke-linecap:round;stroke-linejoin:round;stroke-opacity:1;stop-color:#000000"
           d="m 31.424817,9.8047248 c 4.467461,-1.9155373 10.131247,2.9560122 8.074482,7.4695212"
           id="path3091" /><path
           style="fill:none;stroke:#ffffff;stroke-linecap:round;stroke-linejoin:round;stroke-opacity:1;stop-color:#000000"
           d="m 35.413317,11.076296 c 4.261862,2.303923 3.218314,7.509388 0.357754,9.308752 0.927606,-2.563509 -4.030017,-3.945318 -4.949753,-7.089657 -1.196208,1.099456 -1.495523,2.912774 -1.558496,4.435645 -1.398046,-1.665255 -1.677488,-4.589252 0.22593,-6.515994"
           id="path3089" /><path
           style="fill:none;stroke:#ffffff;stroke-linecap:round;stroke-linejoin:round;stroke-opacity:1;stop-color:#000000"
           d="m 24.277674,10.488174 c -0.7955,-0.3024 -1.163139,-0.5271293 -1.359553,-1.023807 2.074866,0.850086 7.503451,-4.326539 11.988852,0.032975"
           id="path3083" /><path
           style="fill:none;stroke:#ffffff;stroke-linecap:round;stroke-linejoin:round;stroke-opacity:1;stop-color:#000000"
           d="m 33.43313,6.4304625 c 2.218033,-0.1293963 3.103031,1.9707672 2.370529,3.2871879"
           id="path3081" /><path
           style="fill:none;stroke:#ffffff;stroke-linecap:round;stroke-linejoin:round;stroke-opacity:1;stop-color:#000000"
           d="m 23.539241,11.768242 c -0.486297,0.393429 -1.583359,0.650105 -2.361858,0.364246"
           id="path3079" /><path
           style="fill:none;stroke:#ffffff;stroke-linecap:round;stroke-linejoin:round;stroke-opacity:1;stop-color:#000000"
           d="m 35.464902,21.244753 c -0.258302,0.480673 -0.709161,1.362227 -1.096277,1.698993 -2.248857,1.956361 -6.577661,1.390352 -8.296531,-0.802044"
           id="path3077" /><path
           style="fill:none;stroke:#ffffff;stroke-linecap:round;stroke-linejoin:round;stroke-opacity:1;stop-color:#000000"
           d="m 26.602256,14.896357 c -1.219143,1.528541 -1.592327,3.647727 -0.718336,5.678795"
           id="path3075" /><path
           style="fill:none;stroke:#ffffff;stroke-linecap:round;stroke-linejoin:round;stroke-opacity:1;stop-color:#000000"
           d="M 27.971473,15.750161 26.295851,15.400328"
           id="path3073" /><path
           style="fill:none;stroke:#ffffff;stroke-linecap:round;stroke-linejoin:round;stroke-opacity:1;stop-color:#000000"
           d="m 38.297334,15.948422 c 0.638823,1.836798 0.176068,5.333744 2.109749,7.55555"
           id="path3071" /><path
           style="fill:none;stroke:#ffffff;stroke-linecap:round;stroke-linejoin:round;stroke-opacity:1;stop-color:#000000"
           d="m 23.024994,13.332532 c -1.554201,0.795587 -2.504514,2.203461 -2.81891,3.52755"
           id="path3069" /><path
           style="fill:none;stroke:#ffffff;stroke-linecap:round;stroke-linejoin:round;stroke-opacity:1;stop-color:#000000"
           d="m 39.008668,23.43547 c -0.0031,0.201935 -0.06653,0.585198 -0.238024,0.876406"
           id="path2907" /></g></g><g
       id="g3255"><g
         id="g3143"><path
           style="fill:none;stroke:#ffffff;stroke-linecap:round;stroke-linejoin:round;stroke-opacity:1;stop-color:#000000"
           d="m 30.603286,27.744573 c -0.931864,0.660724 -0.697177,2.555307 0.717358,2.749092 l 1.696496,0.232411"
           id="path3063" /><path
           style="fill:none;stroke:#ffffff;stroke-linecap:round;stroke-linejoin:round;stroke-opacity:1;stop-color:#000000"
           d="m 34.966614,26.827299 c 0.122631,-0.822325 0.491465,-1.924248 1.499255,-1.849702 0.512785,0.03793 0.766942,0.173018 1.150314,0.259547 0.730384,0.164852 0.799007,0.676615 0.625504,1.214514 l -0.887004,2.749904"
           id="path3061" /><path
           style="fill:none;stroke:#ffffff;stroke-linecap:round;stroke-linejoin:round;stroke-opacity:1;stop-color:#000000"
           d="m 38.408123,26.61918 1.243267,0.387576 c 0.596499,0.185954 1.16696,0.948515 0.772108,2.358155 -0.162118,0.578769 -0.758114,1.38534 -1.601363,1.138909 l -0.708226,-0.206972"
           id="path3059" /><path
           style="fill:none;stroke:#ffffff;stroke-linecap:round;stroke-linejoin:round;stroke-opacity:1;stop-color:#000000"
           d="m 39.175408,30.710405 -0.382105,0.936603 c -0.500743,0.312437 -1.041396,0.537215 -2.152052,0.318782 -0.448124,-0.08813 -0.803603,-0.307996 -1.035749,-0.598826"
           id="path3057" /><path
           style="fill:none;stroke:#ffffff;stroke-linecap:round;stroke-linejoin:round;stroke-opacity:1;stop-color:#000000"
           d="m 34.584157,26.948889 c -0.660206,0.18972 -2.618233,3.176128 -0.444491,4.778478 -0.01462,0.736056 0.846302,1.587911 2.234053,1.548437 l 0.89628,-0.440533 0.193114,-0.699457"
           id="path3055" /></g><g
         id="g3244"><path
           style="fill:none;stroke:#ffffff;stroke-linecap:round;stroke-linejoin:round;stroke-opacity:1;stop-color:#000000"
           d="m 29.387897,24.378254 1.000128,2.624091 c 0.14718,0.484063 0.776474,0.812895 1.668739,0.88634"
           id="path3043" /><path
           style="display:inline;fill:none;stroke:#ffffff;stroke-linecap:round;stroke-linejoin:round;stroke-opacity:1;stop-color:#000000"
           d="m 36.228593,22.112491 c 0.08381,0.446574 0.105199,0.954853 0.06269,1.447384"
           id="path3013" /></g></g></g></svg>
