<svg xmlns="http://www.w3.org/2000/svg" xml:space="preserve" viewBox="0 0 48 48"><path d="M9.32 17.42v-4.798a3.303 3.303 0 0 1 3.311-3.31h29.865v19.454a3.303 3.303 0 0 1-3.31 3.31H17.412" style="fill:none;stroke:#fff;stroke-width:1;stroke-linecap:round;stroke-linejoin:round;stroke-dashoffset:1.3;stroke-opacity:1"/><path d="m23.977 17.354 5.583 3.34-5.583 3.34zM7.16 17.42h8.596c.917 0 1.655.739 1.655 1.656v17.957c0 .917-.738 1.655-1.655 1.655H7.159a1.65 1.65 0 0 1-1.655-1.655V19.076c0-.917.738-1.656 1.655-1.656" style="fill:none;stroke:#fff;stroke-width:1;stroke-linecap:round;stroke-linejoin:round;stroke-dashoffset:1.3;stroke-opacity:1"/><path d="M7.233 20.133h8.45v14.65h-8.45ZM20.924 35.957h9.97" style="fill:none;stroke:#fff;stroke-width:1;stroke-linecap:round;stroke-linejoin:round;stroke-dashoffset:1.3;stroke-opacity:1"/></svg>