<?xml version="1.0" encoding="UTF-8"?>
<svg width="48" height="48" version="1.1" viewBox="0 0 12.7 12.7" xml:space="preserve" xmlns="http://www.w3.org/2000/svg"><defs><style>.q{fill:#fff;}.r,.s{fill:none;stroke:#fff;stroke-linecap:round;stroke-linejoin:round;}.s{stroke-width:1.0050968px;}</style><style>.a{fill:none;stroke:#fff;stroke-linecap:round;stroke-linejoin:round;}</style><style>
      .cls-1 {
        fill: none;
        stroke: #fff;
        stroke-linecap: round;
        stroke-linejoin: round;
      }
    </style><style>.c{fill:none;stroke:#fff;stroke-linecap:round;stroke-linejoin:round;}</style><style>
      .cls-1 {
        fill: none;
        stroke: #fff;
        stroke-linecap: round;
        stroke-linejoin: round;
      }
    </style><style>.c{fill:none;stroke:#fff;stroke-linecap:round;stroke-linejoin:round;}</style><style>.c{fill:none;stroke:#fff;stroke-linecap:round;stroke-linejoin:round;}</style><style>.a{fill:none;stroke:#fff;stroke-linecap:round;stroke-linejoin:round;}</style><style>.b{fill:none;stroke:#fff;stroke-linecap:round;stroke-linejoin:round;}</style></defs><g transform="translate(-.84074 -3.5872)" fill="none" stroke="#fff" stroke-linecap="round" stroke-linejoin="round" stroke-width=".26458"><path d="m1.9897 10.537h10.402"/><path d="m2.5765 11.595h9.2284"/><path d="m1.8138 12.653h10.754"/><path d="m4.032 10.537a3.2669 1.7939 0 0 1 3.1587-1.3359 3.2669 1.7939 0 0 1 3.1587 1.3359"/><path d="m5.118 7.2244a1.249 1.3792 0 0 0-1.249 1.3792 1.249 1.3792 0 0 0 0.17983 0.71313c-0.23011 0.19606-0.42057 0.42552-0.54932 0.69143-0.08491 0.16661-0.14366 0.34337-0.16898 0.52813h7.7204c-0.025285-0.18476-0.084031-0.36152-0.16894-0.52813-0.12875-0.26591-0.31921-0.49537-0.54932-0.69143a1.249 1.3792 0 0 0 0.17983-0.71313 1.249 1.3792 0 0 0-1.249-1.3792 1.249 1.3792 0 0 0-1.2356 1.1787c-0.27877-0.030708-0.55828-0.046388-0.83716-0.045475-0.27888-9.132e-4 -0.55839 0.014767-0.83716 0.045475a1.249 1.3792 0 0 0-1.2356-1.1787z"/><circle cx="5.0753" cy="8.4233" r=".35101"/><circle transform="scale(-1,1)" cx="-9.3062" cy="8.4233" r=".35101"/></g></svg>
