<?xml version="1.0" encoding="UTF-8"?><svg id="a" xmlns="http://www.w3.org/2000/svg" viewBox="0 0 48 48"><defs><style>.d{fill:none;stroke:#fff;stroke-linecap:round;stroke-linejoin:round;}.c{fill:#fff;}</style></defs><circle class="d" cx="14.267" cy="27.498" r="4.5"/><ellipse class="d" cx="14.267" cy="36.737" rx="4" ry="2.2"/><ellipse class="d" cx="27.823" cy="37.168" rx="3.6873" ry="2.2794"/><ellipse class="d" cx="35.935" cy="33.279" rx="3.6873" ry="2.2794"/><path class="d" d="m20.579 26.415h6.8424"/><path class="d" d="m20.379 29.151h7.2424"/><path class="d" d="m20.179 31.887h7.6428"/><path class="d" d="m14.267 32.088v4.4338"/><path class="d" d="m7.2384 27.424c0.27083-1.4625 1.5975-3.4238 3.6736-3.4238-2.076 0-3.4027-1.9613-3.6736-3.4238 0 0-1.644-8.6211-1.7384-11.076 0-2.216 1.784-4 4-4h29c2.216 0 4 1.784 4 4-0.09443 2.4551-1.7384 11.076-1.7384 11.076-0.27083 1.4625-1.5975 3.4238-3.6736 3.4238 2.076 0 3.4027 1.9613 3.6736 3.4238 0 0 1.644 8.6211 1.7384 11.076 0 2.216-1.784 4-4 4h-29c-2.216 0-4-1.784-4-4 0.094428-2.4551 1.7384-11.076 1.7384-11.076z"/><path class="d" d="m10.912 24h0.51128"/><path class="d" d="m37.088 24h-19.913"/><path class="d" d="m25.534 21.24c0-3.4794 2.8206-6.3 6.3-6.3s6.3 2.8206 6.3 6.3z"/><path class="d" d="m34.69 15.625 1.0542-1.4219"/><path class="d" d="m25.534 21.24"/><path class="d" d="m28.981 15.628-1.057-1.4257"/><path class="d" d="m38.134 21.24"/><circle class="c" cx="29.508" cy="18.039" r=".75"/><circle class="c" cx="34.161" cy="18.039" r=".75"/><path class="d" d="m25.534 24v-2.4918c0-0.74229-0.59114-1.2293-1.2386-1.2293s-1.2386 0.53124-1.2386 1.2293v2.4918"/><path class="d" d="m38.134 21.24v2.7602"/><path class="d" d="m34.901 42.501a3.2901 1.7166 0 0 1-3.2878 1.6528 3.2901 1.7166 0 0 1-3.2878-1.6528"/><path class="d" d="m18.013 14.678v-5.6291l-4.4751 5.6291v-5.6291l-4.7422 5.6291"/><path class="d" d="m36.998 14.678h-5.2929l4.7422-5.6291h2.7575"/><path class="d" d="m34.077 11.863h1.8865"/><path class="d" d="m22.312 16.914h-3.9892l2.7356-3.2958-1.02e-4 4.2337"/><path class="d" d="m31.705 14.678v-5.6291l-4.4751 5.6291v-5.6291l-4.4751 5.6291v-5.6291l-6.5218 7.7413"/></svg>
