<svg version="1.1" viewBox="0 0 48 48" xml:space="preserve" xmlns="http://www.w3.org/2000/svg"><g fill="none" stroke="#fff" stroke-linecap="round" stroke-linejoin="round"><path d="m24 10.818c-8.2529 0-9.4319 6.2249-12.969 9.2789-3.537 3.054-5.8949 0.2605-6.4844-2.1827 1.7685-1.2216 4.6512-5.6314 5.8949-6.7188 4.2503-3.7161 8.8424-5.6141 13.558-5.6141"/><path d="m33.535 15.883v15.783s-8.0349 6.0839-9.5349 6.0839-9.5349-6.0839-9.5349-6.0839v-15.783"/><path d="m8.63 13.307c2.2072-5.9436-5.1141-1.877-1.4654-1.0451"/><path d="m6.2152 11.125-2.415 2.5023c-0.80479 0.83389 0.15705 1.4328 1.1314 1.1723"/><path d="m5.3746 14.296c0.86769 0.22709 1.0759 0.915 0.99471 1.8288"/><path d="m4.9316 14.8 2.233-2.5381"/><path d="m16.337 7.3047c0-4.5855 1.9959-5.6738 5.8949-1.6338"/><path d="m17.918 3.2239c-0.02065 1.2409 0.18313 1.5665 0.9853 1.6075"/><path d="m24 10.818c8.2529 0 9.4319 6.2249 12.969 9.2789 3.537 3.054 5.8949 0.26051 6.4844-2.1827-1.7685-1.2216-4.6512-5.6314-5.8949-6.7188-4.2503-3.7161-8.8424-5.6141-13.558-5.6141"/><path d="m39.37 13.307c-2.2072-5.9436 5.1141-1.877 1.4654-1.0451"/><path d="m41.785 11.125 2.415 2.5023c0.80479 0.83389-0.15704 1.4328-1.1314 1.1723"/><path d="m42.625 14.296c-0.86769 0.22709-1.0759 0.915-0.9947 1.8288"/><path d="m43.068 14.8-2.233-2.5381"/><path d="m31.663 7.3047c0-4.5855-1.9959-5.6738-5.8949-1.6338"/><path d="m30.082 3.2239c0.02064 1.2409-0.18312 1.5665-0.9853 1.6075"/><path d="m22.232 5.6709c1.179-4.2106 2.358-4.2452 3.537 0"/><path d="m22.972 3.5774 0.79265 0.47709"/><path d="m17.607 12.648h12.786"/><path d="m14.465 20.304h19.07"/><path d="M 9.625,26.0625 A 3.0625,3.0625 0 0 1 6.5625,29.125 3.0625,3.0625 0 0 1 3.5,26.0625 3.0625,3.0625 0 0 1 6.5625,23 3.0625,3.0625 0 0 1 9.625,26.0625 Z" style="paint-order:stroke fill markers"/><path d="m18.279 20.304-0.95349-2.4696 1.4302 0.49399 11.919-1.3e-5v2.0097"/><path d="m21.241 36.488a17.64 16.301 0 0 1-9.7136-4.5738" style="paint-order:stroke fill markers"/><path d="m36.473 31.914a17.64 16.301 0 0 1-9.7136 4.5738" style="paint-order:stroke fill markers"/><path d="M 40.855,36.455 A 23.837,22.723 0 0 1 24,43.1104 23.837,22.723 0 0 1 7.145,36.455" style="paint-order:stroke fill markers"/><path d="m11.527 31.914c-3.8816-4.0219-8.4399 0.22042-4.3824 4.5412"/><path d="m36.473 31.914c3.8816-4.0219 8.4399 0.22042 4.3824 4.5412"/><path d="m27.814 14.377h1.907v2.4699h-1.907z" style="paint-order:stroke fill markers"/><path d="m28.767 16.847v1.4819"/><path d="m24.477 14.377h1.907v2.4699h-1.907z" style="paint-order:stroke fill markers"/><path d="m25.43 16.847v1.4819"/><path d="m21.14 14.377h1.907v2.4699h-1.907z" style="paint-order:stroke fill markers"/><path d="m22.093 16.847v1.4819"/><path d="m19.233 17.094 0.47674-2.2229-1.907 1.4819 1.4302 0.74097"/><path d="m22.093 44.51v-1.4717"/><path d="m25.907 44.51v-1.4717"/><path d="m18.279 42.447c0 3.5449 3.814 4.3402 3.814 0.5913"/><path d="m22.093 43.038c-0.052 3.2396 3.7566 3.3197 3.814-4e-6"/><path d="m20.792 42.904c-0.01954 0.66866-0.28021 0.92536-0.60635 1.0702"/><path d="m29.721 42.447c0 3.5449-3.814 4.3402-3.814 0.5913"/><path d="m27.208 42.904c0.01954 0.66866 0.28021 0.92536 0.60635 1.0702"/><path d="m24.651 43.102c-0.09259 0.3064 0.0432 0.53907-0.65087 1.1656"/><g><path d="m4.9966 23.956c0.2902 0.32511 2.1298 0.94894 3.1317 0"/><path d="m5.8388 24.346c-0.77228 1.4593-0.49577 3.8264 0.14598 4.7244"/><path d="m7.4161 24.361c-0.79253 1.567-0.08792 3.2867 0.45918 4.4689"/><path d="m3.6928 24.993c0.27686 0.63186 0.86636 0.88358 1.7087 0.91088"/><path d="m9.5018 25.202c-0.32141 1.199-1.6078 1.7901-2.3385 1.6377"/><path d="m44.5 26.062a3.0625 3.0625 0 0 1-3.0625 3.0625 3.0625 3.0625 0 0 1-3.0625-3.0625 3.0625 3.0625 0 0 1 3.0625-3.0625 3.0625 3.0625 0 0 1 3.0625 3.0625z" style="paint-order:stroke fill markers"/><path d="m39.872 23.956c0.2902 0.32511 2.1298 0.94894 3.1317 0"/><path d="m40.714 24.346c-0.77227 1.4593-0.49577 3.8264 0.14598 4.7244"/><path d="m42.291 24.361c-0.79253 1.567-0.08792 3.2867 0.45918 4.4689"/><path d="m38.568 24.993c0.27686 0.63186 0.86636 0.88358 1.7087 0.91088"/><path d="m44.377 25.202c-0.32141 1.199-1.6078 1.7901-2.3385 1.6377"/></g><g stroke-width="1px"><path d="m29.5 29.25c-1.3289 0.06048-2.9808-0.11426-3.875-0.5l-0.69476 2 1.2573-0.25-0.1875 1.25 1.5 0.25v2.5l-4-2.75 0.875 2-0.75 0.5 0.24999 1.25h-1.8752l-1-1.25 0.5-2-1-0.25-1.5-1-0.5-4"/><path d="m18.5 27-0.5-0.75c1.1292-1.4375 0.30973-1.6049-1.5-0.75 0.17365-0.64807-0.07412-1.2553-0.5-1.5 1.0619 0.07109 1.876-0.30909 2-1 0.42708 0.375 0.84375 0.375 1.25 0 0.14679 0.89724 0.56486 1.684 1.25 2.25l-0.5 1.75 0.74984 2.75 1.25-1.75c-0.63542-1-0.61198-1.5 0-2.5"/><path d="m22 25.5-0.99968-3h0.75l0.75-0.75 0.75 0.75 0.5 0.01562 0.75-0.76562 0.75 0.75 0.75 2e-6"/><path d="m26 22.5-1 3 0.75 0.75-0.75 1"/><path d="m25 27.25c2.3719-0.53394 4.1243-0.19211 4.5 0.5"/><path d="m25 27.25 0.625 1.9375"/><path d="m29.5 33v-7.5"/><path d="m31 25.456h-3"/><path d="m28 25.456v-2.4558"/><path d="m31 25.456v-2.4558"/><path d="m29.5 25.456v-2.4558"/><path d="m31.307 8.5-1.3616 2.0967"/><path d="m31.307 8.5 2.8318 4.8199"/><path d="m35.5 11.223-1.3616 2.0967"/><path d="m12.5 11.223 1.3616 2.0967"/><path d="m12.5 11.223 3.4583 0.73508"/><path d="m16.693 8.5 1.3616 2.0967"/><path d="m16.693 8.5-0.73509 3.4583"/><path d="m13.832 36.241-0.35837 0.93358c-0.71674 1.8672 3.9512 3.659 4.6679 1.7918l0.35837-0.93358"/><path d="M 26.5,9.5 24,7"/><path d="M 21.5,9.5 24,7"/><path d="m22.25 8.7498h3.4996"/><path d="m24 41.5v-2.5"/><path d="m26.5 39h-5"/><path d="m33.644 39.133c1.8794-0.68405 1.0242-3.0336-0.85516-2.3495"/><path d="m30.355 40.329-0.85505-2.3492"/><path d="m29.5 37.981 3.2888-1.197"/><path d="m30.355 40.329 3.2889-1.1967"/></g></g></svg>
