<?xml version="1.0" encoding="UTF-8" standalone="no"?>
<svg
   viewBox="0 0 2304 2304"
   version="1.1"
   id="svg1"
   xml:space="preserve"
   width="2304"
   height="2304"
   xmlns="http://www.w3.org/2000/svg"
   xmlns:svg="http://www.w3.org/2000/svg"><defs
     id="defs1"><style
       id="style1">.a{fill:none;stroke:#fff;stroke-linecap:round;stroke-linejoin:round;}</style></defs><path
     style="fill:none;stroke:#ffffff;stroke-width:1;stroke-linecap:round;stroke-linejoin:round;stroke-dasharray:none;stroke-opacity:1"
     d="m 22.314302,41.944391 c -0.07903,-0.02015 -0.211985,-0.07691 -0.2955,-0.125667 -0.08349,-0.04891 -0.197275,-0.16935 -0.252814,-0.268016 -0.05556,-0.09862 -0.114714,-0.270037 -0.131464,-0.380923 -0.01814,-0.118431 0.0029,-0.450983 0.05049,-0.806053 0.05604,-0.417277 0.07362,-0.753174 0.05665,-1.084617 -0.02239,-0.441947 -0.0388,-0.510466 -0.207305,-0.861169 -0.100561,-0.209546 -0.29082,-0.541218 -0.422862,-0.737022 -0.13198,-0.195774 -0.361842,-0.519662 -0.51068,-0.719718 -0.148885,-0.200029 -0.330529,-0.490692 -0.403673,-0.645851 -0.07312,-0.155178 -0.163822,-0.451836 -0.201575,-0.659246 -0.04836,-0.266211 -0.06104,-0.530934 -0.04307,-0.899992 0.01433,-0.287581 0.08685,-1.013883 0.161605,-1.614041 0.07475,-0.600148 0.156855,-1.3776 0.182427,-1.727692 0.02553,-0.350092 0.04678,-0.888872 0.04678,-1.197311 l 2.13e-4,-0.560786 -0.488779,0.02869 c -0.268813,0.0159 -0.765644,0.01052 -1.104075,-0.01165 -0.521417,-0.03456 -0.658339,-0.05997 -0.897229,-0.16718 -0.175728,-0.07889 -0.357793,-0.207619 -0.483402,-0.341904 -0.110841,-0.1185 -0.256379,-0.323726 -0.32346,-0.456085 -0.06709,-0.132361 -0.169576,-0.428396 -0.227777,-0.657818 -0.0582,-0.229427 -0.127523,-0.660892 -0.154058,-0.958827 -0.02657,-0.297941 -0.06927,-1.656752 -0.09494,-3.019584 -0.02553,-1.362833 -0.0674,-3.163272 -0.09274,-4.000981 -0.02553,-0.837709 -0.06607,-1.764378 -0.09052,-2.059287 -0.02446,-0.294899 -0.07193,-0.601794 -0.105512,-0.681977 -0.03349,-0.08019 -0.142883,-0.219637 -0.242875,-0.309877 -0.09998,-0.09022 -0.27195,-0.196933 -0.382038,-0.23709 -0.110147,-0.04018 -0.284761,-0.09435 -0.388045,-0.120403 -0.144967,-0.03657 -0.200881,-0.07889 -0.245055,-0.185502 -0.04252,-0.102451 -0.04464,-0.166169 -0.0079,-0.2466 0.02712,-0.05966 0.210664,-0.211882 0.407766,-0.338306 0.197052,-0.126412 0.484846,-0.361606 0.639456,-0.522625 0.15464,-0.161021 0.331861,-0.401705 0.39384,-0.53485 0.06196,-0.133152 0.112901,-0.300378 0.113169,-0.37162 2.13e-4,-0.07123 -0.03241,-0.198636 -0.07245,-0.283103 -0.05263,-0.110998 -0.144048,-0.18854 -0.329625,-0.279648 -0.233096,-0.114457 -0.298635,-0.125406 -0.711406,-0.118938 -0.294117,0.0047 -0.583093,0.04073 -0.818383,0.102241 -0.200029,0.05232 -0.508605,0.166159 -0.685733,0.252997 -0.177123,0.08684 -0.502919,0.286334 -0.72403,0.443325 -0.221122,0.156996 -0.654684,0.52725 -0.963486,0.822782 -0.3577,0.342365 -0.58996,0.531907 -0.639953,0.522344 -0.06523,-0.01249 -0.08431,-0.09181 -0.112968,-0.469148 -0.01903,-0.249774 -0.08489,-0.763353 -0.146512,-1.141289 -0.0616,-0.377934 -0.165902,-0.838279 -0.231762,-1.022974 -0.06585,-0.184707 -0.240695,-0.590174 -0.388526,-0.901044 -0.183347,-0.385452 -0.254037,-0.580017 -0.22231,-0.611748 0.03192,-0.03173 0.100676,-0.03041 0.216779,0.0044 0.09367,0.02792 0.432484,0.144639 0.752993,0.259393 0.425947,0.152526 0.650398,0.208653 0.834246,0.208653 0.140713,0 0.321972,-0.03344 0.411434,-0.07587 0.08797,-0.04172 0.226609,-0.14457 0.308153,-0.228537 0.09494,-0.09777 0.332281,-0.543769 0.660042,-1.240396 0.281519,-0.59826 0.555109,-1.128307 0.608032,-1.1778764 0.05315,-0.049599 0.155222,-0.1124874 0.227351,-0.1398124 0.09199,-0.034874 0.20545,-0.035938 0.380445,-0.00352 0.137151,0.02536 0.446783,0.1365924 0.688086,0.2472014 0.241279,0.1106108 0.512912,0.2150313 0.603639,0.2320465 0.10056,0.01888 0.20482,0.00956 0.267219,-0.023822 0.0563,-0.03014 0.15128,-0.1087059 0.211134,-0.1746569 0.05985,-0.065946 0.170427,-0.2256502 0.245745,-0.3549034 0.07532,-0.1292446 0.166956,-0.2599414 0.203701,-0.2904276 0.05347,-0.044382 0.08383,-0.040034 0.152132,0.021783 0.04731,0.042994 0.09877,0.1717612 0.115679,0.2904389 0.01657,0.117269 0.08192,0.4463959 0.144899,0.7314069 0.06299,0.284999 0.171904,0.704424 0.242023,0.932043 0.07011,0.227619 0.199178,0.599384 0.286783,0.826152 0.08759,0.226756 0.215232,0.52342 0.283537,0.659248 0.06829,0.135826 0.230969,0.410637 0.361415,0.610681 0.130458,0.200057 0.337652,0.474857 0.460445,0.610682 0.122798,0.135827 0.340791,0.333577 0.484419,0.439449 0.143692,0.105874 0.358493,0.228297 0.477404,0.272052 0.118901,0.04375 0.231445,0.09245 0.250103,0.108253 0.01859,0.01578 -0.126358,0.355088 -0.322184,0.754037 -0.195886,0.398938 -0.503131,0.984855 -0.682791,1.302061 -0.179675,0.317192 -0.358012,0.665001 -0.396391,0.772908 -0.03828,0.107909 -0.09669,0.375952 -0.129605,0.595645 -0.04519,0.30249 -0.05049,0.628002 -0.02127,1.341237 0.02127,0.517982 0.05992,1.228235 0.08624,1.578325 0.02605,0.35008 0.07908,0.933176 0.117379,1.29577 0.03828,0.362583 0.100949,0.812285 0.139324,0.999342 0.03827,0.187063 0.09095,0.381399 0.116775,0.431897 0.02605,0.0505 0.09855,0.147096 0.161537,0.214652 0.06299,0.06755 0.170112,0.135024 0.238089,0.149961 0.07117,0.01544 0.203163,-0.0048 0.311288,-0.04786 0.103228,-0.04148 0.251698,-0.147988 0.329947,-0.237077 0.07826,-0.08909 0.363272,-0.613808 0.633399,-1.166033 0.270143,-0.552233 0.523544,-1.129762 0.563072,-1.283414 0.03935,-0.153646 0.07193,-0.341412 0.07193,-0.41725 0,-0.07585 -0.06879,-0.269857 -0.152827,-0.431135 -0.08409,-0.161346 -0.319885,-0.532773 -0.52401,-0.825475 -0.204122,-0.292699 -0.420259,-0.629142 -0.480326,-0.747672 -0.06009,-0.118506 -0.142728,-0.344961 -0.183772,-0.503236 -0.04093,-0.158265 -0.07584,-0.473926 -0.07739,-0.701472 -0.002,-0.313308 0.02172,-0.485436 0.09781,-0.70924 0.05532,-0.162537 0.143466,-0.367127 0.195886,-0.454657 0.05263,-0.08751 0.196737,-0.288391 0.32075,-0.446374 0.124074,-0.157983 0.395273,-0.430194 0.602772,-0.604919 0.243513,-0.205042 0.410477,-0.386354 0.471024,-0.511391 0.06282,-0.129773 0.09355,-0.282779 0.09312,-0.463523 -4.3e-4,-0.191955 -0.05155,-0.420714 -0.177121,-0.792672 -0.09706,-0.287576 -0.299745,-0.794775 -0.450444,-1.127136 -0.150642,-0.332346 -0.4034,-0.843073 -0.561613,-1.134953 -0.158246,-0.291868 -0.628882,-1.053157 -1.045895,-1.6917364 l -0.758233,-1.1611193 0.942765,-0.01222 0.942763,-0.01222 0.515623,-1.0789331 c 0.28371,-0.5938385 0.560473,-1.1690929 0.615139,-1.2787775 0.0994,-0.1994173 0.0994,-0.1994173 0.769421,1.0798164 l 0.67002,1.2792262 h 0.718724 0.718732 l 0.718175,-1.2529944 c 0.44291,-0.7726931 0.730262,-1.2301304 0.749704,-1.1934754 0.01747,0.032691 0.27206,0.5965172 0.566029,1.2529223 l 0.534508,1.1934754 h 0.926408 0.926409 l -0.291465,0.3477972 c -0.160327,0.1912999 -0.377309,0.4977983 -0.482186,0.681116 -0.104889,0.1833138 -0.261107,0.4960856 -0.347114,0.6950286 -0.08601,0.198957 -0.209321,0.562502 -0.274078,0.807895 -0.10531,0.399175 -0.121454,0.570622 -0.153476,1.628271 -0.02817,0.927801 -0.05539,1.265245 -0.126782,1.568566 -0.04995,0.212553 -0.103808,0.41907 -0.119552,0.458937 -0.02126,0.05437 0.211718,0.258693 0.934042,0.818373 0.529443,0.41025 0.990766,0.768623 1.025122,0.796389 0.03456,0.02775 0.06244,0.107995 0.06244,0.17829 0,0.09146 -0.05551,0.180569 -0.195148,0.313253 -0.107326,0.101989 -0.4251,0.316257 -0.70619,0.476148 -0.281096,0.159902 -0.561535,0.350713 -0.62324,0.424043 -0.06171,0.07333 -0.112161,0.184254 -0.112161,0.246505 0,0.06225 0.02341,0.157844 0.0521,0.212463 0.02869,0.05461 0.07479,0.114344 0.102261,0.13271 0.02762,0.0184 0.115297,0.03371 0.19508,0.03413 0.07977,0 0.28944,-0.0514 0.465976,-0.11506 0.176471,-0.06367 0.690582,-0.288971 1.142412,-0.500674 0.451833,-0.211703 0.937773,-0.423927 1.079876,-0.471613 0.142101,-0.04768 0.418399,-0.108813 0.614016,-0.135849 0.195618,-0.02707 0.487129,-0.04917 0.647883,-0.04917 h 0.292262 V 16.297062 15.569608 H 31.0736 29.664163 v -2.270415 -2.270426 l -0.250581,-0.399115 c -0.137836,-0.219521 -0.245212,-0.411206 -0.238674,-0.425971 0.0062,-0.01478 0.277853,-0.5006439 0.602948,-1.0797208 0.325057,-0.5790737 0.601287,-1.052937 0.61379,-1.0530128 0.01275,0 0.294967,0.4886503 0.627652,1.086063 l 0.604913,1.0862046 -0.252549,0.391494 -0.252548,0.391496 v 1.203267 1.203255 h 0.750273 0.750184 V 12.241299 11.04987 l -0.255522,-0.403094 c -0.255526,-0.403084 -0.255526,-0.403084 -0.139279,-0.61583 0.06395,-0.1170111 0.34026,-0.6084301 0.614048,-1.0920431 0.27381,-0.4836211 0.507755,-0.8621262 0.519926,-0.8411222 0.01233,0.021006 0.252178,0.4473852 0.533383,0.9475009 0.281203,0.5001263 0.548982,0.9718214 0.595105,1.0482234 0.08387,0.138906 0.08387,0.138906 -0.163306,0.522862 l -0.247127,0.383943 -0.0012,1.216213 -0.0012,1.216203 h 0.727397 0.727446 v -1.218065 -1.218066 l -0.227402,-0.36001 c -0.124954,-0.198001 -0.22729,-0.377786 -0.22729,-0.399522 0,-0.02174 0.24888,-0.4829203 0.553135,-1.0248384 0.304217,-0.5419294 0.576886,-1.0206287 0.605919,-1.0637678 0.04519,-0.066878 0.141139,0.077792 0.651705,0.9806546 0.329414,0.5825031 0.598924,1.0789866 0.598924,1.1032856 0,0.02429 -0.102261,0.206187 -0.227297,0.404185 l -0.227353,0.360011 v 2.286508 2.286508 h -1.409434 -1.40944 v 1.072838 c 0,1.072834 0,1.072834 0.186905,1.284404 0.102799,0.116362 0.276842,0.364838 0.38677,0.552172 0.109923,0.187325 0.2627,0.491506 0.339513,0.675956 0.0768,0.184449 0.181375,0.500413 0.232348,0.702142 0.06778,0.267937 0.08721,0.459451 0.07234,0.710735 -0.01233,0.206743 -0.05711,0.426525 -0.112476,0.55088 -0.05048,0.113797 -0.159096,0.283241 -0.241015,0.37654 -0.148192,0.168802 -0.148684,0.170921 -0.09749,0.425838 0.02817,0.140913 0.05155,0.412705 0.05155,0.603979 0,0.191275 -0.02172,0.465354 -0.04838,0.609035 -0.02658,0.143691 -0.08931,0.35716 -0.139481,0.474372 -0.04996,0.117201 -0.222779,0.410956 -0.383634,0.652736 l -0.292416,0.439608 v 5.494923 c 0,4.913853 -0.0074,5.505687 -0.07122,5.596596 -0.03935,0.05592 -0.152355,0.143042 -0.251591,0.193648 -0.123581,0.06307 -0.272537,0.09277 -0.473097,0.09429 -0.16102,0.0012 -0.370025,-0.0224 -0.464486,-0.05263 -0.09446,-0.0303 -0.228043,-0.107371 -0.296774,-0.171591 -0.124974,-0.116681 -0.124974,-0.116681 -0.124974,-5.512371 V 24.94801 l -0.224225,-0.209702 c -0.123335,-0.115341 -0.369335,-0.303579 -0.546723,-0.418346 -0.17739,-0.114759 -0.54196,-0.317929 -0.81015,-0.451514 -0.268179,-0.133591 -0.661535,-0.31437 -0.874086,-0.401759 -0.212525,-0.0874 -0.564538,-0.221391 -0.782196,-0.297786 l -0.395751,-0.138854 -0.19058,0.213957 c -0.104816,0.117694 -0.320748,0.411273 -0.479741,0.652494 -0.15905,0.241173 -0.411326,0.691307 -0.560609,1.000239 -0.149309,0.308948 -0.284282,0.626084 -0.299963,0.704784 -0.02762,0.139524 -0.02338,0.14416 0.179875,0.187533 0.126293,0.02712 0.292312,0.0287 0.421324,0.0048 0.117043,-0.02171 0.296508,-0.08876 0.398783,-0.148729 0.102263,-0.05991 0.226821,-0.154148 0.276786,-0.209434 0.04996,-0.05528 0.166799,-0.139211 0.259568,-0.18657 0.102798,-0.05263 0.262595,-0.08601 0.409203,-0.0859 0.158132,9.8e-5 0.290288,0.0303 0.385811,0.08879 0.0799,0.04891 0.17963,0.140978 0.221547,0.204977 0.04838,0.07375 0.0665,0.162028 0.04943,0.240853 -0.01432,0.06845 -0.07816,0.350038 -0.141138,0.625688 -0.06307,0.275674 -0.132204,0.664378 -0.153721,0.863838 -0.02172,0.199492 -0.02172,0.425894 -6.77e-4,0.503183 0.0239,0.08676 0.08628,0.162768 0.16335,0.198596 0.06866,0.03189 0.330265,0.07337 0.58125,0.09201 0.257439,0.01904 0.515091,0.0645 0.591056,0.104038 0.0741,0.03827 0.179719,0.118274 0.234741,0.177233 0.05506,0.05895 0.145326,0.209232 0.200611,0.333931 0.06011,0.135607 0.108916,0.356047 0.121366,0.548314 0.01544,0.238038 -0.01904,0.545045 -0.132404,1.182103 -0.148103,0.831755 -0.153097,0.898621 -0.149469,1.997215 0.0033,1.046996 0.0132,1.182645 0.125017,1.719999 0.06671,0.320856 0.121297,0.714282 0.121297,0.8743 0,0.162117 -0.03241,0.372416 -0.07368,0.475009 -0.0404,0.101253 -0.110775,0.20397 -0.156118,0.228256 -0.04519,0.02446 -0.125777,0.04412 -0.178666,0.04412 -0.05315,0 -0.15473,-0.0303 -0.226237,-0.06724 -0.07157,-0.03721 -0.802462,-0.77866 -1.624261,-1.648133 -0.821792,-0.86948 -2.278066,-2.414686 -3.236155,-3.433784 -0.958085,-1.019108 -1.760615,-1.841393 -1.783404,-1.827318 -0.02285,0.01432 -0.04148,0.193603 -0.04148,0.398942 0,0.235859 0.03457,0.498561 0.09336,0.713411 0.05158,0.187064 0.202045,0.567088 0.334944,0.844547 0.132897,0.277477 0.364869,0.700645 0.515569,0.940406 0.150698,0.239788 0.449016,0.671322 0.662962,0.959003 0.213911,0.287686 0.431313,0.606089 0.483092,0.707573 0.05158,0.101484 0.106676,0.276042 0.121992,0.387938 0.02285,0.165165 0.005,0.250423 -0.09455,0.453643 -0.06736,0.137622 -0.208157,0.324204 -0.312883,0.414516 -0.104773,0.09036 -0.428549,0.305122 -0.719552,0.477297 -0.291035,0.172128 -0.582558,0.37651 -0.647887,0.454173 -0.096,0.114064 -0.118814,0.18834 -0.118814,0.386717 0,0.152178 0.04412,0.362583 0.115836,0.553469 0.06368,0.169352 0.209702,0.481817 0.324416,0.694389 0.11476,0.212522 0.321228,0.557643 0.458904,0.766873 0.137667,0.209232 0.403516,0.586317 0.590793,0.837956 0.187265,0.251645 0.378318,0.540808 0.424565,0.642567 0.04624,0.101747 0.08448,0.288431 0.08504,0.414783 6.72e-4,0.157237 -0.03613,0.303845 -0.115923,0.464486 -0.06437,0.129226 -0.230916,0.338876 -0.370558,0.466452 -0.139479,0.12748 -0.409096,0.322875 -0.599127,0.434294 -0.190042,0.111355 -0.560375,0.286675 -0.822937,0.389479 -0.262597,0.102797 -0.710119,0.245799 -0.994569,0.317665 -0.284443,0.07186 -0.652719,0.14002 -0.818383,0.151349 -0.165679,0.0112 -0.365827,0.004 -0.44487,-0.01657 z M 32.483146,20.711924 c 0,-0.768201 0,-0.768201 -0.168412,-0.916081 -0.09266,-0.08132 -0.276948,-0.197558 -0.409576,-0.258273 -0.132629,-0.06072 -0.363754,-0.127736 -0.513655,-0.148926 -0.152088,-0.02147 -0.460499,-0.02074 -0.69787,0.0019 -0.233945,0.02212 -0.537435,0.08217 -0.674402,0.133415 -0.136995,0.05125 -0.296138,0.143309 -0.353706,0.204592 -0.08356,0.08896 -0.09935,0.144182 -0.07827,0.274098 0.01433,0.08948 0.101211,0.264641 0.192685,0.38923 0.09147,0.124594 0.296031,0.319112 0.454599,0.432267 0.158558,0.113166 0.413987,0.256801 0.567552,0.319207 0.153564,0.06239 0.405374,0.146261 0.559578,0.186344 0.154213,0.04009 0.454226,0.08736 0.666794,0.105057 0.212568,0.0177 0.401813,0.03519 0.420576,0.03885 0.01859,0.0037 0.03401,-0.338998 0.03401,-0.761501 z"
     id="path5" /></svg>
