<svg xmlns="http://www.w3.org/2000/svg" xml:space="preserve" width="48" height="48"><path d="M9.5 5.5h29c2.216 0 4 1.784 4 4v29c0 2.216-1.784 4-4 4h-29c-2.216 0-4-1.784-4-4v-29c0-2.216 1.784-4 4-4m25.13 29.29c-.551 0-.998.442-.998.987s.447.987.998.987.998-.442.998-.987-.447-.987-.998-.987m-8.313-6.661V26.57m-3.854 9.227c0 .533-.437.966-.976.966s-.977-.433-.977-.966c0-.534.438-.946.977-.966.7-.027 2.515.479 4.83 1.932V29.46m-3.854 6.337v-5.263a1.08 1.08 0 0 0-1.086-1.074c-.6 0-1.086.48-1.086 1.074a1.08 1.08 0 0 0 1.086 1.075c.6 0 1.086-.481 1.086-1.075m3.854-19.578V9.4m-3.854 9.227c0 .533-.437.966-.976.966s-.977-.433-.977-.966c0-.534.438-.946.977-.967.7-.026 2.515.48 4.83 1.933V12.29m-3.854 6.337v-5.263a1.08 1.08 0 0 0-1.086-1.075c-.6 0-1.086.482-1.086 1.075a1.08 1.08 0 0 0 1.086 1.075c.6 0 1.086-.481 1.086-1.075M16.257 35.69a1.08 1.08 0 0 0 1.086 1.075c.6 0 1.087-.481 1.087-1.075a1.08 1.08 0 0 0-1.087-1.075c-.6 0-1.086.482-1.086 1.075v-6.23m-3.885 6.23c0 .593.486 1.074 1.086 1.074s1.087-.481 1.087-1.075c0-.593-.487-1.075-1.087-1.075s-1.086.482-1.086 1.075V29.46m18.304 1.075a1.08 1.08 0 0 1-1.086 1.075 1.08 1.08 0 0 1-1.087-1.075 1.08 1.08 0 0 1 1.087-1.074c.6 0 1.086.48 1.086 1.074v6.229c1.406-1.162 2.414-1.666 3.954-1.974v-5.33m0-11.84c-.551 0-.998.442-.998.987s.447.987.998.987.997-.442.997-.987-.446-.987-.997-.987m-18.373.899a1.08 1.08 0 0 0 1.086 1.075c.6 0 1.086-.482 1.086-1.075a1.08 1.08 0 0 0-1.086-1.075c-.6 0-1.086.481-1.086 1.075V12.29m-3.887 6.23c0 .593.487 1.075 1.087 1.075s1.086-.482 1.086-1.075c0-.594-.486-1.075-1.086-1.075s-1.087.481-1.087 1.075v-6.23m18.304 1.075a1.08 1.08 0 0 1-1.086 1.075 1.08 1.08 0 0 1-1.086-1.075 1.08 1.08 0 0 1 1.086-1.075c.6 0 1.086.481 1.086 1.075v6.229c1.407-1.162 2.414-1.666 3.954-1.974v-5.33" style="fill:none;stroke:#fff;stroke-linecap:round;stroke-linejoin:round"/></svg>