<?xml version="1.0" encoding="UTF-8"?><svg id="b" xmlns="http://www.w3.org/2000/svg" viewBox="0 0 48 48"><defs><style>.m{fill:none;stroke:#fff;stroke-linecap:round;stroke-linejoin:round;}</style></defs><path id="d" class="m" d="M25.4197,7.1973c4.7892.3122,8.6063,2.4262,11.1301,5.5794M39.1852,17.7281c1.1264,3.5234,1.1058,7.5939-.2896,11.6704-.212.6193,1.6371,1.6528,1.4783,2.8709-.4504,3.4538-2.9155,3.0653-5.5464,2.4177-1.0782-.2654-3.1805.6965-3.1681,3.597M28.383,42.4735c-1.0734.264-2.339.4272-3.7117.4642-4.2697-.1189-7.5024-1.4542-7.1408-3.2494.1377-.6833.1763-1.2882.1397-1.8198M9.658,34.1951c-.337-.4393-.5765-1.0637-.6894-1.9294-.1588-1.2181,1.6903-2.2516,1.4783-2.8709-.5931-1.7327-.9471-3.4643-1.0765-5.1533"/><path id="e" class="m" d="M26.6836,34.8302c.8494-1.4793-.2785-4.7795-2.0124-6.4301-1.7338,1.651-2.8618,4.9512-2.0124,6.4305.8772.1373,1.2825-1.0308,2.0124-1.4843.7299.453,1.1352,1.6212,2.0124,1.4838Z"/><path id="f" class="m" d="M30.4217,20.9624c-.4028-.008-4.6299,2.7124-2.3817,5.8291,1.2377,1.7159,3.6703,3.1333,5.7511,2.7505,1.6985-.3125,3.152-1.6725,3.4382-3.3756.1326-.7893.1454-2.4614-.8192-3.499-1.6204-1.3489-3.9332-1.6467-5.9884-1.705Z"/><g id="g"><path id="h" class="m" d="M24.6712,40.8336v1.953"/><path id="i" class="m" d="M22.2286,39.7432v2.736"/><path id="j" class="m" d="M19.7861,38.7874v2.9566"/></g><path id="k" class="m" d="M7.3844,19.1742C4.6405,8.6218,15.943.6391,26.0054,7.6409c3.0804,2.1435,6.8547,4.8343,9.9276,5.203,3.0728.3686,1.7893-3.7521-2.4489-7.6816,6.2665,2.3375,7.7654,7.2511,7.5251,9.7925s-4.0325,5.3439-10.3988,1.4748c-6.3663-3.8691-10.3624-5.4494-13.9564-4.0127-3.5941,1.4367-4.0781,5.9081-.1921,8.7176.8462-.0921,1.6716-.1496,2.4591-.172.4028-.008,4.6299,2.7124,2.3817,5.8291-1.2377,1.7159-3.6703,3.1333-5.7511,2.7505-1.0146-.1867-2.3521-1.3797-2.3521-1.3797,0,0-3.8663-1.4943-5.8149-8.9881Z"/><path id="l" class="m" d="M33.7483,34.8368c3.0512,8.0526-11.0429.1038-13.6191-.8302-3.4143-1.2378-6.2787-1.819-10.0665.4083-3.7878,2.2273-1.5037,7.8678,4.6907,7.7628-5.6914-1.338-3.2695-6.3264,1.9893-4.6465,5.2588,1.6799,6.7966,2.7082,11.2197,4.7459,2.4458,1.1268,7.8234,1.0379,10.1022-.9932,1.8421-1.6419.908-5.0612.6386-6.1588"/></svg>