<?xml version="1.0" encoding="UTF-8"?>
<!-- Created with Inkscape (http://www.inkscape.org/) -->
<svg version="1.1" viewBox="0 0 48 48" xml:space="preserve" xmlns="http://www.w3.org/2000/svg"><defs><style>.a{fill:none;stroke:#fff;stroke-linecap:round;stroke-linejoin:round;}</style></defs><g transform="matrix(1.2035 0 0 1.2035 -73.941 .099613)" fill-opacity="0" stroke="#fff" stroke-linecap="round" stroke-linejoin="round" stroke-width=".83088"><path d="m81.373 26.101c1.8634 0.04707 3.6952-1.9058 3.6845-4.2064-0.01394-3.0072-3.601-8.3448-3.601-8.3448s-3.5443 5.651-3.5172 8.2068c0.02811 2.6483 1.5885 4.2978 3.4337 4.3444z"/><path d="m83.136 16.374s1.2161-1.0484 1.8735-1.5068c1.483-1.0343 4.6507-2.7918 4.6507-2.7918s0.32923 4.8596 0.52758 8.0896c0.25239 4.1099-6.9959 5.3556-6.9959 5.3556"/><path d="m79.812 16.454s-1.2161-1.0484-1.8735-1.5068c-1.483-1.0343-4.6507-2.7918-4.6507-2.7918s-0.32923 4.8596-0.52758 8.0896c-0.25239 4.1099 6.9959 5.3556 6.9959 5.3556"/><path d="m79.756 25.6s-1.1773 0.89398-0.97416 3.2201c0.16286 1.8649 2.7296 4.8569 2.7296 4.8569s2.1291-3.358 2.518-5.2637c0.33102-1.6223-0.83812-2.8927-0.83812-2.8927"/><path d="m83.191 25.521s3.7237 1.7026 5.7063 1.6789c2.657-0.03187 5.3873-0.94855 7.5913-2.4327 1.1507-0.77487 2.6672-3.1948 2.6672-3.1948s-2.8768 0.11199-4.3965-0.14655c-1.6047-0.27298-4.5724-1.2603-4.5724-1.2603"/><path d="m79.756 25.6s-3.7237 1.7026-5.7063 1.6789c-2.657-0.03187-5.3873-0.94855-7.5913-2.4327-1.1507-0.77487-2.6672-3.1948-2.6672-3.1948s3.6021-0.01236 4.3965-0.14655c1.605-0.27112 4.5838-1.6835 4.5838-1.6835"/><path d="m89.641 27.168 2.0998 4.4575s-3.4231 0.34188-4.9827-0.23448c-1.1583-0.42804-2.9244-2.274-2.9244-2.274"/><path d="m73.073 27.399-2.0998 4.4575s3.4231 0.34188 4.9827-0.23448c1.1583-0.42804 2.9244-2.274 2.9244-2.274"/><path d="m89.944 15.513 5.9943-0.73623-2.2105 6.3883"/><path d="m73.06 15.561-5.9943-0.73623 2.2105 6.3883"/><path d="m85.009 14.868c-0.02141-1.1012-0.04282-2.2024-0.63587-3.8445-0.59305-1.642-2.382-4.9948-2.9182-4.9836-0.53626 0.011106-2.2977 3.4373-2.8504 5.0678-0.55269 1.6304-0.51124 2.6605-0.46979 3.6907"/><path d="m84.061 10.249 3.2536-2.3055 0.67405 5.0836"/><path d="m78.855 10.31-3.2536-2.3055-0.67405 5.0836"/></g></svg>
