<?xml version="1.0" encoding="UTF-8" standalone="no"?>
<svg
   version="1.1"
   width="48"
   height="48"
   viewBox="0 0 48 48"
   id="svg1"
   sodipodi:docname="ManusAI.svg"
   inkscape:version="1.4.2 (f4327f4, 2025-05-13)"
   xml:space="preserve"
   inkscape:export-filename="..\Desktop\PocketMagnifierXXL.png"
   inkscape:export-xdpi="96"
   inkscape:export-ydpi="96"
   xmlns:inkscape="http://www.inkscape.org/namespaces/inkscape"
   xmlns:sodipodi="http://sodipodi.sourceforge.net/DTD/sodipodi-0.dtd"
   xmlns="http://www.w3.org/2000/svg"
   xmlns:svg="http://www.w3.org/2000/svg"><defs
     id="defs1" /><sodipodi:namedview
     id="namedview1"
     pagecolor="#ffffff"
     bordercolor="#000000"
     borderopacity="0.25"
     inkscape:showpageshadow="2"
     inkscape:pageopacity="0.0"
     inkscape:pagecheckerboard="0"
     inkscape:deskcolor="#d1d1d1"
     inkscape:document-units="px"
     inkscape:zoom="9.4970706"
     inkscape:cx="2.0006169"
     inkscape:cy="47.540975"
     inkscape:window-width="2560"
     inkscape:window-height="1369"
     inkscape:window-x="-8"
     inkscape:window-y="-8"
     inkscape:window-maximized="1"
     inkscape:current-layer="svg1" /><path
     style="fill:none;stroke:#ffffff;stroke-linecap:round;stroke-linejoin:round"
     d="m 34.800205,28.640411 -2.421799,-1.000309 c 0.604638,-2.241411 0.284968,-3.372915 -1.2109,-5.05419 -2.456008,-2.287117 0.682125,-4.456093 0.06618,-6.165899 -1.227427,-3.407235 -6.068428,-2.365474 -6.805104,4.165282 C 5.1398447,8.8833997 9.5776866,24.958547 16.531414,23.217686"
     id="path1"
     sodipodi:nodetypes="cccscc" /><path
     style="fill:none;stroke:#ffffff;stroke-linecap:round;stroke-linejoin:round"
     d="m 21.851489,29.882699 c 0.877974,1.526422 5.873616,3.435803 5.683318,-2.295245 -2.605179,-8.69881 -17.459943,-6.17232 -10.108381,1.737378 -3.235115,5.120374 5.637668,5.859847 12.161645,7.370694"
     id="path2"
     sodipodi:nodetypes="cccc" /><path
     style="fill:none;stroke:#ffffff;stroke-linecap:round;stroke-linejoin:round"
     d="m 33.25969,33.312338 c 2.434534,-5.425451 4.315763,-11.867438 4.265757,-0.924304 -0.08989,2.341481 -0.384224,4.631853 -1.861381,6.626518 -3.684061,4.512484 -5.631521,1.186048 -6.552063,-1.56356 3.257952,-2.240353 3.292292,-2.853044 4.147687,-4.138654 z"
     id="path3"
     sodipodi:nodetypes="ccccc" /><path
     style="fill:none;stroke:#ffffff;stroke-linecap:round;stroke-linejoin:round"
     d="m 11.266632,9.8451411 c 2.286763,0.6515839 3.627233,1.6299959 4.896247,3.8959379"
     id="path4"
     sodipodi:nodetypes="cc" /><path
     style="fill:none;stroke:#ffffff;stroke-linecap:round;stroke-linejoin:round"
     d="M 26.239228,7.5798971 C 24.88125,8.8795196 24.547447,10.119239 24.028021,12.397172"
     id="path4-4"
     sodipodi:nodetypes="cc" /><path
     style="fill:none;stroke:#ffffff;stroke-linecap:round;stroke-linejoin:round"
     d="m 18.763239,7.079743 c 0.766302,1.8307186 0.816168,2.7736722 0.947661,4.475064"
     id="path4-7"
     sodipodi:nodetypes="cc" /></svg>
