<svg xmlns="http://www.w3.org/2000/svg" xml:space="preserve" x="0%" y="0%" viewBox="0 0 48 48"><path fill="#FFF" stroke="#000" stroke-linecap="square" stroke-width=".533" d="M17.931 22.73h11.49M18.673 17.296H30.07M26.273 25.62l1.216-11.24M20.744 25.62l1.216-11.24" style="fill:none;stroke-width:.862641;stroke-linecap:round;stroke-linejoin:round;stroke-miterlimit:4;stroke-dasharray:none;stroke:#fff;stroke-opacity:1"/><path d="M24 4.504c-7.23 0-13.09 5.86-13.09 13.09 0 10.25 10 22.61 12.61 25.63a.8.8 0 0 0 1.21 0c2.55-3 12.36-15.38 12.36-25.63 0-7.23-5.86-13.09-13.09-13.09Z" class="a" style="fill:none;stroke:#fff;stroke-linecap:round;stroke-linejoin:round;stroke-opacity:1"/><path d="M24 6.785c-6.384 0-11.558 5.175-11.558 11.559 0 9.05 8.83 19.964 11.134 22.631a.706.706 0 0 0 1.069 0c2.251-2.649 10.913-13.58 10.913-22.631 0-6.384-5.174-11.559-11.558-11.559z" class="a" style="fill:none;stroke:#fff;stroke-width:.883001;stroke-linecap:round;stroke-linejoin:round;stroke-opacity:1"/></svg>