<?xml version="1.0" encoding="UTF-8"?><svg id="a" xmlns="http://www.w3.org/2000/svg" viewBox="0 0 48 48"><defs><style>.d{fill:none;stroke:#fff;stroke-linecap:round;stroke-linejoin:round;}</style></defs><rect class="d" x="5.5" y="5.5" width="37" height="37" rx="4" ry="4"/><path class="d" d="m10.674 27.991v-7.9912l4 8 4-7.9878v7.9878"/><path class="d" d="m32.184 27.124c0.4906 0.6387 1.1057 0.8765 1.9615 0.8765h1.1844c1.1022 0 1.9957-0.8935 1.9957-1.9957v-0.0086c0-1.1022-0.8935-1.9957-1.9957-1.9957h-1.3065c-1.1034 0-1.9978-0.8945-1.9978-1.9978 0-1.1058 0.8964-2.0022 2.0022-2.0022h1.1779c0.8558 0 1.4709 0.2379 1.9615 0.8765"/><path class="d" d="m28.777 28h-0.676c-0.4478 0-0.8687-0.2143-1.1321-0.5764l-2.7747-3.8142c-0.3567-0.4682-0.9838-1.0845-0.9838-1.9977 0-0.8621 0.7002-1.6117 1.6742-1.6117 0.9486 0 1.6212 0.7495 1.6212 1.6117 0 0.913-0.7398 1.6936-2.1069 1.9529-1.524 0.2891-2.4766 1.1253-2.4766 2.5038 0 1.1145 0.7026 1.9315 2.107 1.9315 1.8463 0 2.9329-1.7507 4.5378-3.9023"/></svg>
