<svg xmlns="http://www.w3.org/2000/svg" xml:space="preserve" id="svg1" version="1.1" viewBox="0 0 48 48"><defs id="defs1"><style id="style1">.a{fill:none;stroke:#fff;stroke-linecap:round;stroke-linejoin:round}</style></defs><path id="path2" d="M31.635 15.223a.998.998 0 0 0-1.414 0l-.812.812c-2.84-2.84-8.84-5.024-12.776-3.44-1.575.634-1.1 1.846.395 1.925 3.75.2 7.311 2.352 9.58 4.316l-13.99 13.99a1.827 1.827 0 1 0 2.583 2.583l13.995-13.993c1.833 2.067 3.855 4.453 4.472 7.761.125.67.268 2.078 1.078 2.175.463.055.784-.498.928-.951.926-2.922-.826-8.96-3.68-11.782l.811-.812a.998.998 0 0 0 0-1.414zM9.5 5.5h29c2.216 0 4 1.784 4 4v29c0 2.216-1.784 4-4 4h-29c-2.216 0-4-1.784-4-4v-29c0-2.216 1.784-4 4-4z" style="display:inline;fill:none;stroke:#fff;stroke-linecap:round;stroke-linejoin:round;stroke-opacity:1"/></svg>