<svg xmlns="http://www.w3.org/2000/svg" xml:space="preserve" width="48" height="48" viewBox="0 0 12.7 12.7"><path fill="none" stroke="#fff" stroke-linecap="round" stroke-linejoin="round" stroke-width=".265" d="M7.008 3.43a.73.73 0 0 0 .73.73.73.73 0 0 0 .73-.73.73.73 0 0 0-.73-.73.73.73 0 0 0-.73.73zm1.643 2.167a.73.73 0 0 0 .73.73.73.73 0 0 0 .73-.73.73.73 0 0 0-.73-.73.73.73 0 0 0-.73.73zM5.792 3.43a.73.73 0 0 1-.73.73.73.73 0 0 1-.73-.73.73.73 0 0 1 .73-.73.73.73 0 0 1 .73.73zM4.149 5.597a.73.73 0 0 1-.73.73.73.73 0 0 1-.73-.73.73.73 0 0 1 .73-.73.73.73 0 0 1 .73.73zm3.11 4.938c0 .384-.312.695-.753.694-2.815 0-5.05-2.185-5.05-4.88 0-2.694 2.235-4.878 4.993-4.878 2.757 0 5.134 2.369 4.756 4.878-.171 1.133-1.147 2.199-2.726 2.199l-.883-.001c-.454 0-.766.31-.766.694 0 .345.096.49.214.647.119.156.214.305.214.647z"/></svg>
