<?xml version="1.0" encoding="UTF-8"?><svg id="b" xmlns="http://www.w3.org/2000/svg" viewBox="0 0 48 48"><defs><style>.f{fill:none;stroke:#fff;stroke-linecap:round;stroke-linejoin:round;}</style></defs><circle class="f" cx="23.2642" cy="21.85" r="1.2"/><path class="f" d="M14.0982,44.251h-1.8484c-2.216,0-4-1.784-4-4V11.251c0-2.216,1.784-4,4-4h10.282M25.3288,7.251h15.921c2.216,0,4,1.784,4,4v29c0,2.216-1.784,4-4,4h-13.913"/><path class="f" d="M16.7152,21.585c-2.0454-2.0454-1.676,2.743.8746,2.0596"/><path class="f" d="M21.2582,20.146c1.9185,0,5.953,1.1567,5.9247,2.8495"/><path class="f" d="M29.4112,24.575c1.3542.9592,2.511,1.3824,3.4138.8464"/><path class="f" d="M28.4502,26.122l.054.2376"/><path class="f" d="M25.8362,27.226c.2402.3287,1.0999,1.1252,1.7953.5184"/><path class="f" d="M19.1982,29.021c-.505.7455-.2405,1.2986-1.7074,1.4188-1.4669.1202-1.5157,1.3711-2.9819,2.9338-1.8276,1.9478-.9619,3.3426-1.7314,4.4488-.7695,1.1062-1.9478,4.5846-.1683,5.5068,1.9478.9222,5.3385,4.6171,8.5368,1.9959.4234-.3366,2.4764-.6925,4.4473-.0355"/><path class="f" d="M27.2532,41.436c1.1913,1.0393.3987,3.6414-1.6596,3.8535-2.2611-2.1959-2.8441-5.1869-.7656-5.3137"/><path class="f" d="M25.9182,42.003c-1.0139-.3042-1.5969-.6337-.6844-2.7122,1.0956-.3722,1.6542-.9438,2.2778-1.9961.6236-1.0523,2.6372-1.2212,4.0663-2.4813"/><path class="f" d="M29.0452,37.566c.9743-.7405,1.8696-.9071,3.3766-.7642"/><path class="f" d="M29.3822,38.724c.9-.7954,2.2085-.1819,2.0916.7145"/><path class="f" d="M31.2792,40.764c.039-.5846-.5716-1.2861-1.5719-.6885-.8964,2.3514-2.6092.6029-3.7889,1.9281"/><path class="f" d="M33.3642,36.348s1.8964-3.3052,2.9259-10.051c-.7857.8669-3.9013,7.5587-3.9013,7.5587"/><path class="f" d="M30.2962,41.313s-1.0271,2.2062-1.6869,1.8252"/><path class="f" d="M38.2952,34.614c.6926.077,4.1553,1.3782.1998,4.9814"/><path class="f" d="M38.6202,32.338c.4877.1625,1.2995.4537,1.2462,1.7339"/><path class="f" d="M37.8542,31.002c.0132.1986.1643.4097.1643.4097"/><path class="f" d="M36.7422,31.254l.0662.0927"/><path class="f" d="M33.2122,32.115c-1.9326-.5021-3.3345.6635-2.4245,3.2681"/><path class="f" d="M31.3382,36.758c1.2877,2.5432,2.65,3.596,3.9979,2.8178.832-.4803,1.5089.633,2.0314.2673"/><path class="f" d="M39.9432,39.718c0,.3492-.2993.8481-.6236,1.0976.2495.2744.3243.8232.3243.8232"/><path class="f" d="M34.2312,40.99c.1247.3492.6735.7733,1.0976.9978"/><path class="f" d="M22.4822,17.694c.6397-.0492,1.427.1476,1.427.1476"/><path class="f" d="M30.7492,21.237c.7873-.1476,2.2143.1476,2.2143.1476"/><path class="f" d="M17.9402,40.555c1.9475-1.704,6.9582-1.8931,7.2932-1.2635"/><path class="f" d="M21.0312,30.021c-2.0967,2.2145-1.9554,7.5623,1.0366,7.7743"/><path class="f" d="M22.6192,31.069c.5836,1.584,2.6122,2.5844,2.6122,2.5844.7503-.2223,1.6952-.528,1.7229-1.3061"/><path class="f" d="M27.3252,30.863c.1481.5371,2.5371,1.7408,1.9815,3.5742"/><path class="f" d="M29.7782,30.477c-.0856.1541-.1712.6711.8844.9119"/><path class="f" d="M15.9452,18.257c0,1.3343,1.532,3.83,2.4709,4.2994.939.4695,2.4462,2.8663,1.2602,4.9172"/><path class="f" d="M22.5782,14.193c.4268,1.8056.4963,3.7769-2.5278,5.3182-1.3131.6566-.6566,2.298-.6566,2.298"/><path class="f" d="M27.5682,18.658c.952,1.2475,2.5061,4.0425.0044,5.4868"/><path class="f" d="M25.0082,18.132c.7222.6237,2.1219,1.5006,1.9369,2.6577"/><path class="f" d="M29.7682,15.473c1.5429,1.1818,4.9571,3.6768,1.6414,6.7626"/><path class="f" d="M33.4772,22.564c.5909,1.149,1.861,4.1361-2.3308,6.9596"/><path class="f" d="M29.8432,7.9556c1.1634-.7046,3.335-.7046,4.2915,1.0599.4136.8531,1.1892.879,2.1716.9048.9824.0259,3.7227,1.2668,2.8438,4.4466-.3102,1.1634.1551,2.5852,1.8872,3.335s1.0341,3.5159.3361,3.9037"/><path class="f" d="M39.2282,19.124c.7497,1.5511-.6463,2.6886.4653,3.4642.8355.5829-.2585,2.5594-.2585,2.5594"/><path class="f" d="M36.4462,16.192c1.4884,1.3934,2.1852,2.4385.57,3.1669-1.6151.7284.0633,2.2485.8234,2.7869.7601.5384.4122,1.6446-.19,2.1852-.6771.6077.5052,2.0464,0,2.8819"/><path class="f" d="M11.1167,11.0426c1.3676-.5229,2.8156.6542,4.505-1.5687,1.6894-2.2229,3.2369-1.6285,4.7941-1.5212.5906.0805,2.5505-1.4572,4.9131-.7017.5214.2464,1.089,1.6443,1.6276,1.522,2.0063-.3489,2.6169-1.522,2.6169-2.835"/><path class="f" d="M13.3152,12.012c-1.1091.6655-1.3312.5253-1.2757,2.0503.0555,1.525-1.6359,1.2478-1.2755,3.4382"/><path class="f" d="M12.5936,17.445c-.8318,1.5805-.8318,3.9373-.1386,5.0465.6932,1.1091,1.0537,4.0205-2.0796,3.466"/><path class="f" d="M13.8132,21.188c-.2828,1.8099,1.4335,2.7519.3882,4.9078"/><path class="f" d="M15.8652,24.931c.2495.7486,1.5528,1.83,1.7746,2.7728"/><path class="f" d="M20.0982,25.518c4.3402,3.9482,4.9202,5.2769,12.301,3.0145"/></svg>