<?xml version="1.0" encoding="UTF-8" standalone="no"?>
<!-- Created with Inkscape (http://www.inkscape.org/) -->

<svg
   width="48"
   height="48"
   viewBox="0 0 48 48"
   version="1.1"
   id="svg1"
   xml:space="preserve"
   sodipodi:docname="maxi_zoo.svg"
   inkscape:version="1.3.2 (091e20e, 2023-11-25, custom)"
   xmlns:inkscape="http://www.inkscape.org/namespaces/inkscape"
   xmlns:sodipodi="http://sodipodi.sourceforge.net/DTD/sodipodi-0.dtd"
   xmlns="http://www.w3.org/2000/svg"
   xmlns:svg="http://www.w3.org/2000/svg"><sodipodi:namedview
     id="namedview1"
     pagecolor="#000000"
     bordercolor="#000000"
     borderopacity="0.25"
     inkscape:showpageshadow="2"
     inkscape:pageopacity="0.0"
     inkscape:pagecheckerboard="0"
     inkscape:deskcolor="#d1d1d1"
     inkscape:document-units="px"
     inkscape:zoom="8"
     inkscape:cx="32.1875"
     inkscape:cy="29.9375"
     inkscape:window-width="2400"
     inkscape:window-height="1261"
     inkscape:window-x="2391"
     inkscape:window-y="-9"
     inkscape:window-maximized="1"
     inkscape:current-layer="layer2" /><defs
     id="defs1" /><g
     inkscape:groupmode="layer"
     id="layer2"
     inkscape:label="Layer 2"><path
       style="display:inline;fill:none;stroke:#fff;stroke-width:1;stroke-linecap:round;stroke-linejoin:round;stroke-dasharray:none;stroke-opacity:1"
       d="m 22.458632,21.89475 c 5.110734,-0.738908 7.094311,0.501487 7.094311,0.501487 0,0 0.845153,0.981843 0.437435,2.739719 -0.407717,1.757873 -2.445481,3.332105 -2.445481,3.332105 0,0 0.400434,1.488757 2.890294,3.006852 2.666685,1.625899 4.665539,-1.325382 4.665539,-1.325382 0,0 1.452674,-2.475639 2.337391,-3.266214 0.884715,-0.790572 2.39661,-0.295963 2.39661,-0.295963 0,0 0.798932,-0.07365 2.00286,1.769148 1.203923,1.842767 -0.589398,4.520138 -0.589398,4.520138 0,0 -1.21436,2.121921 -3.980377,3.582603 -2.76602,1.460683 -4.173465,1.199682 -4.173465,1.199682"
       id="path2-6"
       sodipodi:nodetypes="ccscscscscsc" /><path
       style="display:inline;fill:none;stroke:#fff;stroke-width:1;stroke-linecap:round;stroke-linejoin:round;stroke-dasharray:none;stroke-opacity:1"
       d="m 25.05638,36.545729 c 1.562174,1.423431 3.382661,1.629885 3.382661,1.629885 0,0 2.115699,0.380312 3.370359,0.01085 1.254658,-0.369441 1.303862,-0.93447 1.303862,-0.93447 0,0 0.688835,-1.651616 -0.135303,-2.879465 -0.824139,-1.227851 -2.915242,-0.04349 -2.915242,-0.04349 0,0 -0.959444,1.130057 -2.361712,1.249582 -1.402266,0.119523 -1.845088,-0.206452 -1.845088,-0.206452 z"
       id="path4" /><path
       style="display:inline;fill:none;stroke:#fff;stroke-width:1;stroke-linecap:round;stroke-linejoin:round;stroke-dasharray:none;stroke-opacity:1"
       d="m 22.139202,21.992602 c -4.925077,1.518304 -4.951181,2.734956 -4.951181,2.734956 0,0 -0.454663,1.213087 0.534321,2.722482 0.988983,1.509392 3.444658,2.284214 3.444658,2.284214 0,0 0.137603,1.535517 -1.6759,3.819203 -1.942295,2.445865 -4.836386,0.365066 -4.836386,0.365066 0,0 -2.217374,-1.822716 -3.320472,-2.259646 -1.103096,-0.436928 -2.3516338,0.548778 -2.3516338,0.548778 0,0 -0.7753026,0.206445 -1.2697954,2.351372 -0.4944893,2.144926 2.1122094,4.039507 2.1122094,4.039507 0,0 1.8716898,1.572894 4.9717708,1.989963 3.100081,0.417069 5.75489,-0.798336 5.75489,-0.798336 0,0 1.897402,-0.488747 4.577973,-3.192373"
       id="path2"
       sodipodi:nodetypes="ccscscscscscc" /><path
       style="fill:none;stroke:#fff;stroke-width:1;stroke-dasharray:none;stroke-opacity:1"
       d="m 14.361546,14.927481 c -0.01219,-0.0092 -0.02581,-0.01666 -0.03658,-0.02742 -0.0138,-0.01379 -0.02277,-0.03191 -0.03658,-0.0457 -0.0048,-0.0048 -0.01348,-0.0044 -0.01827,-0.0092 -0.0048,-0.0048 -0.0044,-0.01347 -0.0092,-0.01827 -0.01073,-0.01073 -0.02581,-0.01666 -0.03658,-0.02743 -0.0022,-0.0022 0.002,-0.0068 0,-0.0092 -0.0305,-0.03811 -0.07603,-0.0669 -0.109718,-0.100578 -0.01379,-0.0138 -0.02278,-0.03191 -0.03658,-0.04571 -0.01073,-0.01074 -0.02581,-0.01666 -0.03657,-0.02742 -0.0138,-0.0138 -0.02277,-0.03191 -0.03658,-0.0457 -0.02359,-0.02358 -0.07991,-0.05745 -0.109719,-0.08229 -0.02287,-0.01905 -0.03622,-0.04165 -0.05485,-0.06401 -0.02288,-0.02745 -0.07514,-0.06918 -0.100578,-0.09144 -0.04018,-0.03516 -0.09455,-0.05186 -0.137148,-0.08229 -0.01053,-0.0076 -0.01691,-0.01991 -0.02742,-0.02742 -0.01664,-0.01189 -0.03872,-0.01489 -0.05486,-0.02742 -0.08411,-0.06542 -0.157414,-0.141457 -0.237722,-0.210293 -0.076,-0.06516 -0.171576,-0.148379 -0.256009,-0.20115 -0.01156,-0.0073 -0.02522,-0.01074 -0.03658,-0.01827 -0.0447,0.01042 -0.0098,-0.02058 -0.01827,-0.02742 -0.02179,-0.01744 -0.06053,-0.0312 -0.08229,-0.04572 -0.03067,-0.02043 -0.06175,-0.04174 -0.09143,-0.064 -0.01636,-0.01226 -0.03753,-0.01661 -0.05485,-0.02743 -0.01293,-0.008 -0.02294,-0.02062 -0.03658,-0.02742 -0.0055,-0.0027 -0.01219,0 -0.01827,0 -0.0092,-0.003 -0.01907,-0.0044 -0.02742,-0.0092 -0.03013,-0.01721 -0.05973,-0.04216 -0.09143,-0.05485 -0.01167,-0.0047 -0.02559,-0.003 -0.03658,-0.0092 -0.01706,-0.0096 -0.02984,-0.02522 -0.04571,-0.03658 -0.04327,-0.03091 0.0059,0.0079 -0.03658,-0.0092 -0.0204,-0.0081 -0.0352,-0.02673 -0.05485,-0.03658 -0.0027,-0.0015 -0.006,0 -0.0092,0 -0.006,-0.003 -0.01282,-0.0051 -0.01827,-0.0092 -0.007,-0.0052 -0.01073,-0.01401 -0.01827,-0.01827 -0.03943,-0.02253 -0.08734,-0.03453 -0.128004,-0.05485 -0.02087,-0.01042 -0.02519,-0.0206 -0.04571,-0.02743 -0.114174,-0.03806 0.03241,0.02078 -0.06401,-0.02742 -0.03414,-0.01708 -0.07557,-0.01951 -0.109718,-0.03658 -0.01364,-0.0069 -0.02294,-0.02062 -0.03658,-0.02742 -0.06956,-0.03479 -0.145225,-0.07583 -0.219435,-0.100578 -0.03617,-0.01206 -0.07492,-0.0135 -0.109719,-0.02742 -0.01021,-0.0042 -0.017,-0.01483 -0.02742,-0.01827 -0.01446,-0.0048 -0.03064,0.0022 -0.04572,0 -0.09246,-0.01321 0.0015,-0.0022 -0.05486,-0.01827 -0.05061,-0.01446 -0.112834,-0.02312 -0.164576,-0.02742 -0.121328,-0.0101 -0.24308,-0.0092 -0.365729,-0.0092 -0.210697,0 -0.420182,-0.0092 -0.630877,-0.0092 -0.101495,0 -0.192141,0.0057 -0.292581,0.01827 -0.01354,0.0018 -0.03303,-0.0025 -0.04572,0 -0.062072,0.01773 -0.05405,0.01731 -0.109717,0.02742 -0.02715,0.0049 -0.055519,0.0024 -0.082294,0.0092 -0.037433,0.0094 -0.064708,0.02582 -0.1005778,0.03658 -0.017753,0.0053 -0.036797,0.0049 -0.054852,0.0092 -0.049528,0.01146 -0.097692,0.03358 -0.1462899,0.0457 -0.040735,0.01021 -0.087659,0.01301 -0.1280037,0.02743 -0.028265,0.01011 -0.054019,0.02646 -0.082294,0.03658 -0.035318,0.01262 -0.074459,0.01122 -0.1097198,0.01827 -0.043069,0.0085 -0.084586,0.03486 -0.1280027,0.0457 -0.014231,0.0034 -0.031682,-0.0043 -0.045705,0 -0.024941,0.0075 -0.048257,0.01977 -0.073147,0.02743 -0.060405,0.01859 -0.1221966,0.02837 -0.1828631,0.04571 -0.047486,0.01358 -0.1204526,0.03281 -0.1645771,0.05485 -0.0099,0.0049 -0.017224,0.0142 -0.027426,0.01827 -0.00558,0.0023 -0.012381,-0.0016 -0.018277,0 -0.030638,0.0077 -0.071288,0.02486 -0.1005778,0.03658 -0.018982,0.0076 -0.035639,0.02043 -0.054853,0.02742 -0.014614,0.0053 -0.030974,0.0043 -0.045714,0.0092 -0.058254,0.01941 -0.1307632,0.05625 -0.182864,0.08229 -0.074128,0.03706 -0.1345997,0.09307 -0.2102926,0.128004 -0.014118,0.0066 -0.030778,0.0049 -0.045716,0.0092 -0.027808,0.0079 -0.055059,0.0177 -0.082287,0.02743 -0.015454,0.0055 -0.03047,0.01219 -0.045706,0.01827 -0.015236,0.0092 -0.029211,0.02084 -0.045716,0.02743 -0.014436,0.0057 -0.031817,0.0022 -0.045706,0.0092 -0.035454,0.01772 -0.026922,0.03391 -0.054862,0.05486 -0.00493,0.0035 -0.013221,-0.0033 -0.01828,0 -0.014348,0.0096 -0.023691,0.02511 -0.036571,0.03657 -0.046275,0.04112 -0.089779,0.08854 -0.1371472,0.128005 -0.00843,0.0071 -0.01966,0.01053 -0.027425,0.01827 -0.00778,0.0078 -0.010518,0.01966 -0.01828,0.02743 -0.06876,0.06876 -0.1650108,0.110095 -0.2377213,0.173719 -0.054063,0.04731 -0.029233,0.03837 -0.091434,0.100577 -0.00778,0.0078 -0.01966,0.01052 -0.027425,0.01827 -0.021391,0.0214 -0.0353,0.05783 -0.054862,0.08229 -0.054556,0.0682 -0.1106976,0.131875 -0.1645767,0.201149 -0.024382,0.03046 -0.048763,0.06096 -0.073145,0.09144 -0.01219,0.01219 -0.025353,0.02348 -0.036572,0.03658 -0.031149,0.03635 -0.00558,0.02387 -0.045715,0.064 -0.00482,0.0048 -0.013923,0.0039 -0.018287,0.0092 -0.039237,0.04708 -0.065363,0.105136 -0.1005746,0.155434 -0.028342,0.04049 -0.059659,0.06446 -0.082289,0.109718 -0.00863,0.01724 -0.00968,0.03763 -0.018287,0.05485 -0.014852,0.0297 -0.07184,0.08033 -0.091433,0.109718 -0.00534,0.008 -0.00483,0.01882 -0.00915,0.02742 -0.010986,0.02197 -0.026594,0.04156 -0.036572,0.06401 -0.00247,0.0056 0.00208,0.01255 0,0.01827 -0.010251,0.0282 -0.026477,0.05402 -0.036572,0.08229 -0.015613,0.04373 -0.020108,0.09323 -0.036572,0.137147 -0.00479,0.01276 -0.013976,0.02365 -0.018287,0.03658 -0.00918,0.02755 -0.010241,0.06327 -0.018287,0.09143 0.034502,0.04457 -0.020965,0.03546 -0.027429,0.05486 -0.00492,0.01474 -0.00423,0.03097 -0.00915,0.0457 -0.011102,0.03331 -0.022103,0.03205 -0.027428,0.06401 -0.011043,0.06627 -0.031028,0.110071 -0.045715,0.17372 -0.00699,0.03029 -0.00845,0.06195 -0.018286,0.09143 -0.010724,0.03216 -0.023843,0.05559 -0.027428,0.09144 -0.00478,0.04775 -0.02187,0.345831 -0.00915,0.384012 0.017383,0.05214 0.022404,0.109307 0.027429,0.164577 0.00415,0.04561 -0.00231,0.06388 0.00915,0.109719 0.00999,0.03995 -0.011809,0.08864 0,0.128005 0.00749,0.02494 0.019772,0.04826 0.027429,0.07315 0.028351,0.09215 -0.00404,0.003 0.00915,0.08229 0.00443,0.02661 0.02347,0.05457 0.027429,0.08229 0.00558,0.03906 0.00354,0.07963 0.00915,0.118861 0.00862,0.06022 0.033876,0.114519 0.045715,0.17372 0.0018,0.009 -0.0018,0.01847 0,0.02743 0.00378,0.01891 0.00968,0.03762 0.018287,0.05486 0.00387,0.0077 0.015085,0.01031 0.018287,0.01827 0.0034,0.0084 -0.0018,0.01847 0,0.02742 0.00515,0.02574 0.028217,0.04808 0.036572,0.07315 0.00759,0.02278 0.00833,0.04992 0.018287,0.07315 0.0352,0.08214 0.067488,0.164151 0.1005746,0.246866 0.00936,0.02338 0.024205,0.04235 0.036572,0.06401 0.019511,0.0168 0.016158,0.04372 0.027429,0.064 0.010679,0.01921 0.027478,0.03485 0.036572,0.05486 0.00643,0.01415 0.0037,0.03116 0.00915,0.04572 0.00864,0.023 0.026895,0.04141 0.036572,0.06401 0.018491,0.04314 0.028272,0.06983 0.054859,0.109719 0.021747,0.03262 0.023419,0.0655 0.036572,0.100578 0.012308,0.03283 0.039492,0.0607 0.054859,0.09144 0.00863,0.01723 0.010689,0.03714 0.018286,0.05486 0.00339,0.0079 0.013505,0.01112 0.018287,0.01827 0.013796,0.02069 0.022594,0.04303 0.036572,0.06401 0.011723,0.0176 0.033994,0.02813 0.045715,0.04573 0.023011,0.03453 0.057973,0.09456 0.082289,0.11886 0.00482,0.0048 0.013472,0.0044 0.018291,0.0092 0.00241,0.0024 0.043526,0.0505 0.045716,0.05486 0.00142,0.0027 -0.00219,0.0071 0,0.0092 0.019681,0.01968 0.037512,0.02402 0.054862,0.0457 0.00602,0.0076 0.00318,0.01983 0.0092,0.02743 0.1343894,0.172787 0.00284,-0.0064 0.082288,0.07315 0.00778,0.0078 0.011117,0.01909 0.01828,0.02742 0.032902,0.03837 0.042879,0.03938 0.082287,0.07315 0.011862,0.01021 0.035564,0.03809 0.045728,0.04572 0.00241,0.0019 0.00679,-0.0019 0.0092,0 0.027808,0.02086 0.054851,0.04266 0.082287,0.06401 0.045815,0.03564 0.085245,0.08089 0.1371472,0.109719 0.014348,0.008 0.031467,0.01021 0.045716,0.01827 0.014972,0.0085 0.023231,0.02565 0.036571,0.03658 0.033527,0.02743 0.06403,0.05903 0.1005777,0.08229 0.026473,0.01685 0.055815,0.02887 0.082287,0.0457 0.00723,0.0046 0.010734,0.01401 0.01828,0.01827 0.014249,0.0081 0.031641,0.0099 0.045716,0.01827 0.060535,0.03633 0.028116,0.03687 0.091434,0.064 0.00559,0.0024 0.012629,-0.0023 0.01828,0 0.032146,0.01286 0.063207,0.04517 0.091434,0.06401 0.022684,0.01513 0.049221,0.02352 0.073153,0.03658 0.033154,0.0096 0.053472,0.03885 0.082287,0.05486 0.014348,0.008 0.03104,0.011 0.045728,0.01827 0.04633,0.02316 0.090863,0.05 0.1371466,0.07315 0.074266,0.03714 0.143021,0.08543 0.2194366,0.118861 0.078531,0.03436 0.166001,0.0717 0.2468643,0.100578 0.055206,0.01972 0.1189909,0.03206 0.17372,0.05486 0.1222227,0.05091 0.2458924,0.111115 0.3748724,0.14629 0.017888,0.0049 0.036964,0.0043 0.054862,0.0092 0.031317,0.0085 0.04385,0.02092 0.073146,0.02742 0.1688371,0.03753 0.3422789,0.0575 0.5120171,0.09143 0.034067,0.0069 0.066739,0.01954 0.1005778,0.02742 0.119103,0.0278 0.236792,0.04286 0.356582,0.064 0.03062,0.0054 0.06059,0.01443 0.09143,0.01827 0.01815,0.0023 0.03668,-0.0021 0.05486,0 0.03685,0.0042 0.07315,0.01219 0.109718,0.01827 0.08229,0.006 0.164635,0.01145 0.246865,0.01827 0.04898,0.0042 0.09724,0.01522 0.14629,0.01827 0.150974,0.0094 0.305923,0 0.45716,0 0.183285,0 0.365813,0.0023 0.54859,-0.0092 0.06083,-0.0038 0.121954,0.0023 0.182863,0 0.08563,-0.0032 0.190588,-0.01 0.274295,-0.01827 0.02728,0.0059 0.04827,-0.01473 0.07315,-0.01827 0.01205,-0.0018 0.02456,0.002 0.03658,0 0.04032,-0.0068 0.0802,-0.03283 0.11886,-0.0457 0.01219,-0.003 0.02439,-0.006 0.03658,-0.0092 0.006,0 0.01237,0.0016 0.01827,0 0.02284,-0.0057 0.02114,-0.01883 0.04573,-0.02743 0.06006,-0.02101 0.120741,-0.04105 0.182864,-0.05486 0.01811,-0.004 0.03657,-0.006 0.05485,-0.0092 0.02133,-0.006 0.04239,-0.01329 0.06401,-0.01827 0.02555,-0.02163 0.05523,-0.0038 0.08228,-0.0092 0.02276,-0.0046 0.04199,-0.0201 0.064,-0.02743 0.05932,-0.01977 0.01715,0.002 0.09144,-0.01827 0.01584,-0.0044 0.02988,-0.01396 0.04571,-0.01827 0.03481,-0.02021 0.0739,-10e-4 0.109719,-0.0092 0.01073,-0.0024 0.01714,-0.01442 0.02742,-0.01827 0.01454,-0.0055 0.03096,-0.0043 0.0457,-0.0092 0.01294,-0.0044 0.02406,-0.01291 0.03658,-0.01827 0.07896,-0.03384 -0.04133,0.02465 0.07315,-0.01827 0.01915,-0.0073 0.03658,-0.01827 0.05485,-0.02742 0.06012,-0.03008 0.115417,-0.0813 0.182865,-0.100578 0.01494,-0.0043 0.03204,-0.0019 0.0457,-0.0092 0.06019,-0.0324 0.113178,-0.08585 0.173721,-0.118862 0.02038,-0.01112 0.04409,-0.01549 0.06401,-0.02743 0.01112,-0.0067 0.01709,-0.01967 0.02742,-0.02742 0.01421,-0.01063 0.03125,-0.01711 0.0457,-0.02742 0.01754,-0.01252 0.02935,-0.03169 0.0457,-0.0457 0.09607,-0.08235 -0.0205,0.02118 0.07315,-0.0457 0.03806,-0.02718 0.06252,-0.0734 0.100578,-0.100578 0.01112,-0.0079 0.02621,-0.0094 0.03657,-0.01827 0.03147,-0.02697 0.04768,-0.06785 0.07316,-0.100578 0.06062,-0.07795 0.154522,-0.131436 0.210292,-0.201149 0.02641,-0.03301 0.05896,-0.06557 0.08229,-0.100577 0.02439,-0.03658 0.03865,-0.08338 0.06401,-0.118861 0.004,-0.0055 0.01403,-0.0038 0.01827,-0.0092 0.02843,-0.03556 0.03673,-0.08812 0.05486,-0.128005 0.01579,-0.03478 0.03632,-0.06719 0.05486,-0.100578 0.05446,-0.098 0.107075,-0.197148 0.146291,-0.301724 0.01523,-0.04064 0.03047,-0.0457 0.0457,-0.09144 0.0058,-0.0176 0.0052,-0.03677 0.0092,-0.05485 0.0057,-0.02593 0.03116,-0.07522 0.03658,-0.09144 0.02264,-0.06793 0.01042,-0.05877 0.02742,-0.109718 0.0052,-0.01558 0.01431,-0.02981 0.01827,-0.04572 0.0053,-0.02091 0.0023,-0.04356 0.0092,-0.06401 0.0085,-0.02586 0.02795,-0.04728 0.03657,-0.07315 0.03342,-0.100296 0.0695,-0.247847 0.08229,-0.356584 0.0025,-0.02118 -0.0024,-0.04281 0,-0.06401 7.51e-4,-0.0068 0.0082,-0.01152 0.0092,-0.01827 0.0043,-0.03381 0,-0.08407 0,-0.118862 0,-0.0646 5.07e-4,0.04568 -0.0092,-0.128005 -0.0015,-0.02435 0.0029,-0.04896 0,-0.07315 -0.01162,-0.09288 -0.03556,-0.182751 -0.04572,-0.274295 -0.0083,-0.07559 -0.02744,-0.14173 -0.05485,-0.210292 -0.01825,-0.04564 -0.0042,-0.02387 -0.0092,-0.06401 0.0049,-0.02714 -0.01415,-0.04835 -0.01827,-0.07315 -0.0058,-0.03536 -0.01388,-0.07443 -0.01827,-0.109717 -0.0038,-0.03024 0.0032,-0.06114 0,-0.09144 -0.0121,-0.108923 -0.04052,-0.214292 -0.06401,-0.320011 -0.01545,-0.06951 -0.08099,-0.177928 -0.109717,-0.246864 -0.01,-0.02404 -0.01578,-0.04985 -0.02743,-0.07316 -0.0039,-0.0077 -0.01219,-0.01219 -0.01827,-0.01827 -0.0092,-0.01523 -0.01949,-0.02983 -0.02742,-0.0457 -0.0044,-0.0085 -0.0038,-0.01941 -0.0092,-0.02742 -0.0018,-0.0025 -0.0076,0.0026 -0.0092,0 -0.0084,-0.01408 -0.01043,-0.03131 -0.01827,-0.04571 -0.06467,-0.118545 -0.0076,0.0045 -0.07316,-0.100578 -0.0052,-0.0081 -0.0044,-0.01907 -0.0092,-0.02743 -0.02326,-0.0407 -0.0287,-0.03826 -0.05486,-0.07315 -0.0051,-0.0068 -0.0132,-0.0298 -0.01827,-0.03658 -0.02675,-0.03568 -0.05494,-0.07454 -0.08228,-0.109717 -0.01588,-0.02041 -0.03869,-0.03467 -0.05485,-0.05486 -0.0043,-0.0053 -0.0044,-0.01346 -0.0092,-0.01827 -0.0078,-0.0078 -0.01966,-0.01053 -0.02742,-0.01827 -0.0132,-0.0132 -0.01994,-0.03324 -0.03658,-0.04571 -0.0089,-0.0067 -0.01966,-0.01053 -0.02742,-0.01827 -0.0048,-0.0048 -0.006,-0.01219 -0.0092,-0.01827 -0.01219,-0.01219 -0.02348,-0.02536 -0.03658,-0.03658 -0.01991,-0.01706 -0.04385,-0.02893 -0.06401,-0.04571 -0.0081,0.0082 -0.02624,-0.03538 -0.02742,-0.03658 -0.0022,-0.0022 -0.0067,0.0018 -0.0092,0 -0.02372,-0.01583 -0.01394,-0.01634 -0.02742,-0.03658 -0.014,-0.021 -0.0053,0.0039 -0.02743,-0.01827 -0.03004,-0.03004 -0.04446,-0.08608 -0.07315,-0.118862 -0.0073,-0.0082 -0.02058,-0.0098 -0.02742,-0.01827 -0.006,-0.0076 -0.0043,-0.01917 -0.0092,-0.02742 -0.01122,-0.01881 -0.03315,-0.03602 -0.0457,-0.05485 -0.0035,-0.0055 -0.02723,-0.01791 -0.02742,-0.01827 -0.0027,-0.0055 0.002,-0.0125 0,-0.01827 -0.0044,-0.01294 -0.01219,-0.02438 -0.01827,-0.03658 z"
       id="path1" /><path
       style="fill:none;stroke:#fff;stroke-width:1;stroke-dasharray:none;stroke-opacity:1"
       d="m 30.321732,16.960013 c 0.0149,-0.0032 0.02944,-0.0086 0.04462,-0.0099 0.01945,-0.0016 0.03906,0.0033 0.05851,0.002 0.0069,-5.2e-4 0.01209,-0.0075 0.01886,-0.0079 0.0069,-5.2e-4 0.01306,0.0055 0.01985,0.0049 0.01518,-0.001 0.02944,-0.0086 0.04462,-0.0099 0.003,-2.36e-4 0.0039,0.0058 0.0071,0.0059 0.04878,0.0018 0.100286,-0.01417 0.14777,-0.01783 0.01945,-0.0016 0.03906,0.0033 0.05851,0.002 0.01518,-0.001 0.02943,-0.0086 0.04462,-0.0099 0.01946,-0.0016 0.03906,0.0033 0.05851,0.002 0.03322,-0.0025 0.09563,-0.02326 0.13389,-0.02971 0.02935,-0.0049 0.05521,-3.9e-4 0.08429,2.7e-5 0.03575,5.03e-4 0.101422,-0.012 0.134879,-0.01684 0.05286,-0.0076 0.100911,-0.03802 0.151748,-0.05055 0.01261,-0.003 0.02612,1.25e-4 0.03867,-0.0029 0.01985,-0.0049 0.03649,-0.01971 0.05654,-0.02381 0.104389,-0.02125 0.209852,-0.02742 0.314383,-0.04356 0.09893,-0.01527 0.224327,-0.03366 0.319349,-0.06341 0.013,-0.0042 0.0246,-0.01215 0.03768,-0.01586 0.02119,-0.04073 0.02195,0.0059 0.03271,0.004 0.02742,-0.0052 0.06308,-0.02563 0.08827,-0.0327 0.03548,-0.01 0.07187,-0.01971 0.108103,-0.02773 0.01996,-0.0045 0.03703,-0.01768 0.05653,-0.02377 0.01449,-0.0046 0.03059,-0.004 0.04462,-0.0099 0.0056,-0.0024 0.0079,-0.0093 0.01191,-0.01389 0.0083,-0.0049 0.01572,-0.01165 0.02482,-0.01487 0.03268,-0.01167 0.0709,-0.01789 0.101161,-0.0337 0.01112,-0.0058 0.019,-0.01741 0.03075,-0.02178 0.01832,-0.0069 0.03858,-0.0061 0.05752,-0.01085 0.05163,-0.01273 -0.0099,-6.23e-4 0.03075,-0.02178 0.01946,-0.01021 0.04322,-0.0093 0.06348,-0.01785 0.0028,-0.001 0.004,-0.0046 0.0059,-0.0071 0.0064,-0.0026 0.01218,-0.0065 0.01886,-0.0079 0.0083,-0.0019 0.01765,9.46e-4 0.02578,-0.002 0.04279,-0.01525 0.08305,-0.04382 0.124968,-0.06147 0.02149,-0.0091 0.03204,-0.0057 0.05058,-0.01685 0.103214,-0.06189 -0.03688,0.01112 0.06249,-0.03073 0.03517,-0.0148 0.064,-0.04466 0.09918,-0.05949 0.01401,-0.0059 0.03059,-0.004 0.04462,-0.0099 0.07169,-0.03016 0.152108,-0.06086 0.219193,-0.101098 0.0327,-0.01962 0.05902,-0.04807 0.09224,-0.06545 0.0098,-0.0051 0.02232,-0.0031 0.03173,-0.009 0.01305,-0.0078 0.01827,-0.02468 0.02975,-0.0347 0.07021,-0.06159 7.57e-4,0.0024 0.04959,-0.02974 0.04392,-0.029 0.09099,-0.07062 0.127954,-0.107073 0.08664,-0.08553 0.165193,-0.178556 0.245035,-0.271661 0.137157,-0.159942 0.280482,-0.312995 0.417639,-0.472935 0.06607,-0.07704 0.120729,-0.149583 0.176581,-0.234003 0.0076,-0.01135 0.02341,-0.02342 0.02974,-0.0347 0.02694,-0.05867 0.02204,-0.05229 0.0506,-0.101129 0.01393,-0.02383 0.03431,-0.04371 0.04661,-0.06844 0.01722,-0.03454 0.02252,-0.06593 0.03771,-0.100161 0.0076,-0.01691 0.0202,-0.03114 0.02876,-0.0476 0.02354,-0.04506 0.03811,-0.096 0.06054,-0.140807 0.01877,-0.03756 0.04717,-0.075 0.06251,-0.115022 0.01073,-0.028 0.01505,-0.05824 0.02582,-0.08628 0.01342,-0.03502 0.03994,-0.06382 0.05755,-0.09519 0.02151,-0.03829 0.0286,-0.0869 0.04863,-0.126923 0.0066,-0.01312 0.02385,-0.02127 0.02975,-0.0347 0.01053,-0.02379 0.0164,-0.04951 0.02681,-0.07339 0.02521,-0.05795 0.05801,-0.11123 0.08435,-0.168568 0.02062,-0.04487 0.05352,-0.112789 0.0655,-0.16064 0.0026,-0.01063 4.32e-4,-0.02233 0.004,-0.03271 0.002,-0.0057 0.0092,-0.0084 0.01191,-0.01389 0.01412,-0.02824 0.02755,-0.07031 0.03771,-0.100151 0.0067,-0.01934 0.0077,-0.04036 0.01489,-0.0595 0.0055,-0.01451 0.01694,-0.02627 0.0228,-0.04067 0.02317,-0.05686 0.04243,-0.135873 0.05657,-0.192383 0.02012,-0.0804 0.01696,-0.162762 0.03972,-0.242961 0.0043,-0.01496 0.01628,-0.02658 0.0228,-0.04067 0.0121,-0.02626 0.0224,-0.05332 0.03274,-0.08033 0.0058,-0.0153 0.01053,-0.03107 0.01588,-0.04661 0.0029,-0.01752 0.0031,-0.03572 0.009,-0.05255 0.0051,-0.01469 0.01904,-0.02558 0.0228,-0.04067 0.0097,-0.03844 -0.0082,-0.04252 -0.0059,-0.07738 4.24e-4,-0.006 0.01122,-0.0078 0.01191,-0.01389 0.0022,-0.01708 -0.0035,-0.03433 -0.004,-0.05157 -10e-4,-0.06191 -0.0086,-0.125789 -0.0079,-0.187433 2.13e-4,-0.01099 0.0048,-0.02178 0.004,-0.03271 -8.43e-4,-0.01099 -0.008,-0.02081 -0.009,-0.03173 -0.0075,-0.09695 0.02385,-0.19693 0.02288,-0.29354 -7.17e-4,-0.07182 -0.0101,-0.04717 -0.01684,-0.13488 -8.43e-4,-0.01099 0.0048,-0.02177 0.004,-0.03271 -0.0023,-0.03016 -0.02092,-0.06445 -0.02674,-0.09521 -0.01625,-0.0858 -0.02805,-0.169876 -0.04557,-0.255873 -0.0073,-0.03835 -0.01453,-0.0767 -0.02178,-0.11505 -0.0015,-0.01718 -0.0015,-0.03454 -0.004,-0.05157 -0.0074,-0.0473 -0.01445,-0.01979 -0.01884,-0.07638 -5.2e-4,-0.0068 0.006,-0.01311 0.005,-0.01985 -0.01021,-0.06044 -0.03725,-0.118056 -0.05252,-0.177531 -0.01227,-0.04786 -0.01011,-0.08724 -0.02971,-0.133891 -0.0075,-0.01774 -0.02228,-0.0318 -0.02973,-0.04958 -0.01289,-0.03062 -0.01421,-0.106834 -0.02378,-0.140832 -0.0026,-0.0093 -0.01112,-0.01591 -0.01487,-0.02482 -0.0096,-0.02265 -0.01422,-0.04724 -0.02477,-0.06944 -0.0026,-0.0056 -0.01085,-0.0067 -0.01389,-0.01191 -0.01477,-0.0261 -0.02376,-0.05527 -0.03866,-0.08132 -0.02302,-0.04032 -0.0577,-0.07596 -0.0803,-0.117039 -0.0066,-0.01196 -0.0089,-0.026 -0.01586,-0.03768 -0.01494,-0.02489 -0.04139,-0.04892 -0.05751,-0.07341 -0.05629,-0.0028 -0.01326,-0.03901 -0.02381,-0.05654 -0.008,-0.01334 -0.02075,-0.02338 -0.02873,-0.03672 -0.01803,-0.03012 -0.01,-0.03764 -0.03073,-0.06248 -0.04314,-0.0515 -0.06336,-0.095203 -0.102109,-0.1477855 -0.01844,-0.02502 -0.04152,-0.046764 -0.05751,-0.073402 -0.01742,-0.029111 -0.02668,-0.054281 -0.05156,-0.080343 -0.03311,-0.034724 -0.248286,-0.2417272 -0.285541,-0.2569379 -0.05089,-0.020758 -0.09757,-0.054143 -0.142786,-0.086312 -0.0373,-0.026556 -0.04701,-0.043327 -0.08924,-0.064465 -0.03683,-0.018446 -0.05959,-0.066664 -0.09718,-0.083322 -0.02379,-0.010537 -0.04951,-0.016407 -0.07339,-0.026797 -0.08841,-0.038459 2.62e-4,-0.00504 -0.06844,-0.046615 -0.02311,-0.01392 -0.05672,-0.017701 -0.08032,-0.032754 -0.03331,-0.021159 -0.06276,-0.049137 -0.0962,-0.070422 -0.0513,-0.032674 -0.108989,-0.048827 -0.161629,-0.078386 -0.008,-0.00446 -0.01283,-0.013417 -0.02083,-0.017849 -0.0168,-0.0094 -0.03483,-0.017185 -0.05355,-0.021837 -0.0083,-0.00206 -0.01766,0.0047 -0.02578,0.00195 -0.0088,-0.00286 -0.01284,-0.013417 -0.02083,-0.01785 -0.0229,-0.012844 -0.05486,-0.00986 -0.07934,-0.019854 -0.02222,-0.00904 -0.04334,-0.026155 -0.06744,-0.03374 -0.08526,-0.026739 -0.168539,-0.055621 -0.252867,-0.084353 -0.02387,-0.00814 -0.0479,-0.00917 -0.0724,-0.013908 -0.02546,0.0039 -0.04369,-0.016188 -0.06646,-0.02085 -0.02151,-0.00446 -0.04434,-0.00183 -0.06546,-0.00791 -0.01492,-0.00434 -0.02605,-0.017506 -0.04067,-0.022798 -0.02307,-0.00848 -0.04894,-0.00653 -0.0724,-0.013908 -0.04479,-0.014049 -0.07143,-0.023998 -0.119002,-0.029775 -0.03891,-0.00473 -0.06496,-0.024861 -0.100151,-0.037713 -0.03292,-0.012027 -0.07178,-0.00953 -0.105125,-0.017872 -0.01869,-0.0047 -0.03512,-0.016091 -0.05355,-0.021837 -0.0082,-0.00253 -0.01722,0.00302 -0.0258,0.00198 -0.02469,-0.003 -0.04737,-0.010865 -0.0724,-0.013907 -0.02097,-0.00255 -0.0435,0.00749 -0.06447,0.00494 -0.04118,-0.00499 -0.109515,-0.017544 -0.143797,-0.014905 -0.0069,5.202e-4 -0.01206,0.00739 -0.01886,0.00792 -0.0033,2.603e-4 -0.06666,1.723e-4 -0.07142,-0.00102 -0.0029,-7.463e-4 -0.0039,-0.0062 -0.0071,-0.00597 -0.02774,0.00214 -0.04266,0.012827 -0.07042,0.011891 -0.0098,-3.127e-4 -0.01714,-0.010476 -0.02679,-0.010897 -0.218647,-0.010455 0.0028,0.00627 -0.1091,0.01485 -0.01099,8.424e-4 -0.02172,-0.00399 -0.03271,-0.00398 -0.05056,-6.8e-6 -0.05781,0.00692 -0.1091,0.01485 -0.01546,0.00235 -0.05207,0.0022 -0.06447,0.00495 -0.0029,6.331e-4 -0.0029,0.00631 -0.0059,0.00696 -0.03392,0.00754 -0.06809,0.013867 -0.102151,0.020802 -0.05687,0.011577 -0.116892,0.01206 -0.172565,0.032686 -0.01543,0.00568 -0.02822,0.017253 -0.04364,0.022797 -0.01626,0.00577 -0.0346,9.382e-4 -0.05157,0.00396 -0.04264,0.00756 -0.08649,0.0102 -0.12794,0.022775 -0.03003,0.00917 -0.05824,0.023579 -0.08827,0.032708 -0.0081,0.00252 -0.01765,-9.453e-4 -0.02579,0.00195 -0.01546,0.0055 -0.02808,0.017609 -0.04364,0.022798 -0.06699,0.022307 -0.04628,-0.00265 -0.108103,0.027737 -0.0055,0.00275 -0.0066,0.011113 -0.01191,0.013874 -0.03068,0.016039 -0.07545,0.01857 -0.108103,0.027736 -0.02624,0.00732 -0.04989,0.022053 -0.07539,0.031721 -0.02881,0.018983 -0.06429,0.015294 -0.0952,0.02675 -0.01542,0.00563 -0.02856,0.016393 -0.04365,0.02281 -0.04775,0.020096 -0.09711,0.036432 -0.144807,0.056492 -0.07654,0.032204 -0.157953,0.052952 -0.233074,0.089199 -0.0772,0.037257 -0.162486,0.079346 -0.237049,0.121925 -0.05089,0.029076 -0.101797,0.06946 -0.154735,0.096153 -0.118218,0.059631 -0.244415,0.1143236 -0.355079,0.1893356 -0.01539,0.010423 -0.02728,0.025307 -0.04267,0.035687 -0.02691,0.018181 -0.04442,0.019671 -0.06845,0.037668 -0.138388,0.1037386 -0.266452,0.2224023 -0.402714,0.3291543 -0.02732,0.021457 -0.05826,0.037943 -0.08629,0.058497 -0.09863,0.07232 -0.186678,0.151849 -0.280713,0.229016 -0.024,0.01973 -0.05039,0.03661 -0.07341,0.05752 -0.01355,0.01227 -0.02231,0.02918 -0.03571,0.04164 -0.02712,0.02529 -0.05686,0.04759 -0.08531,0.0714 -0.05816,0.05852 -0.115869,0.11752 -0.174581,0.175495 -0.03501,0.03449 -0.07485,0.0639 -0.10911,0.09914 -0.105408,0.108498 -0.199146,0.232229 -0.297597,0.347033 -0.119314,0.139131 -0.239873,0.276199 -0.350156,0.422401 -0.03672,0.04864 -0.08113,0.09109 -0.119039,0.138813 -0.05322,0.06716 -0.1165,0.151166 -0.164678,0.220124 -0.02227,0.01684 -0.02023,0.04623 -0.03373,0.06744 -0.0066,0.01031 -0.01746,0.01737 -0.02382,0.02775 -0.02112,0.035 -0.02729,0.08225 -0.04267,0.119984 -0.0056,0.01122 -0.01122,0.02246 -0.01686,0.03372 -0.004,0.0046 -0.0092,0.0084 -0.01191,0.01388 -0.01053,0.02105 5.3e-4,0.0283 -0.009,0.05256 -0.02314,0.05929 -0.04744,0.118376 -0.0774,0.174529 -0.0088,0.01635 -0.01919,0.03171 -0.02876,0.0476 -0.0093,0.02015 -0.01748,0.04083 -0.02778,0.0605 -2.22e-4,0.03346 -0.03309,0.04437 -0.04662,0.06844 -0.01135,0.02025 -0.01207,0.04495 -0.02086,0.06645 -0.02361,0.0579 -0.01266,0.01175 -0.04564,0.0813 -0.0071,0.01486 -0.0089,0.03177 -0.01588,0.0466 -0.0074,0.03959 -0.04724,0.05683 -0.06447,0.08926 -0.0052,0.0098 -2.08e-4,0.02239 -0.004,0.03271 -0.0053,0.01463 -0.01694,0.02626 -0.02279,0.04067 -0.0052,0.01266 -0.0058,0.02666 -0.01,0.03966 -0.02571,0.08197 0.0082,-0.04742 -0.03374,0.06744 -0.0071,0.01923 -0.01,0.03966 -0.0149,0.0595 -0.0163,0.06523 -0.01341,0.140539 -0.04268,0.204284 -0.0066,0.01411 -0.01946,0.02551 -0.02279,0.04067 -0.0146,0.06678 -0.0084,0.141794 -0.02286,0.209247 -0.0048,0.02271 -0.01694,0.04356 -0.02086,0.06645 -0.0022,0.01276 0.0038,0.02576 0.0029,0.03867 -0.001,0.01773 -0.0074,0.03486 -0.009,0.05255 -0.002,0.02147 0.005,0.0429 0.005,0.06446 -3.1e-5,0.12652 -0.0027,-0.02935 -0.01293,0.08528 -0.0042,0.04659 0.015,0.09523 0.01084,0.14182 -0.0011,0.0136 -0.01,0.02601 -0.01,0.03966 -6e-6,0.04145 0.02046,0.08039 0.02873,0.121001 0.01971,0.09676 -8.14e-4,0.202859 0.01579,0.290576 0.0079,0.04155 0.01145,0.08745 0.02277,0.127939 0.0119,0.04232 0.03812,0.08362 0.04857,0.125963 0.0017,0.0067 -0.0064,0.01312 -0.005,0.01985 0.0084,0.04474 0.04299,0.08524 0.06146,0.124975 0.01611,0.03463 0.02737,0.0713 0.04064,0.107117 0.03894,0.105136 0.07995,0.209616 0.133809,0.307462 0.02093,0.03803 0.01487,0.05289 0.03965,0.09421 0.0096,0.01588 0.02456,0.02786 0.03567,0.04266 0.01596,0.02122 0.03681,0.07262 0.04561,0.08727 0.03683,0.06141 0.03783,0.04616 0.06545,0.09224 0.0084,0.01404 0.01329,0.03025 0.02281,0.04363 0.01245,0.01762 0.03158,0.0301 0.04262,0.04862 0.01403,0.02336 0.01769,0.052 0.03172,0.07539 0.05437,0.09067 0.142904,0.214095 0.217117,0.294593 0.01444,0.01571 0.03406,0.02605 0.04859,0.04166 0.0047,0.0049 0.0032,0.01376 0.0079,0.01886 0.0229,0.02522 0.06382,0.05473 0.09023,0.07739 0.04905,0.04206 -0.03501,-0.02936 0.103119,0.07638 0.01937,0.01479 0.03521,0.03413 0.05553,0.04761 0.07805,0.05164 0.161869,0.09198 0.237975,0.143857 0.06282,0.04286 0.12545,0.07144 0.195343,0.09527 0.04654,0.01585 0.02082,0.01242 0.05456,0.03471 0.0174,0.02141 0.04591,0.02073 0.06744,0.03374 0.03065,0.01859 0.06553,0.03791 0.09518,0.05755 0.02543,0.01682 0.04425,0.04232 0.06941,0.05952 0.09057,0.06173 0.189042,0.10875 0.284588,0.159729 0.06281,0.03353 0.187792,0.05434 0.258821,0.07742 0.02473,0.0081 0.04812,0.02047 0.07339,0.02681 0.0083,0.0021 0.01718,-0.0015 0.02577,-0.002 0.01753,0.0029 0.03532,0.0046 0.05255,0.009 0.0094,0.0023 0.01719,0.0098 0.02679,0.01084 0.0029,3.38e-4 0.0029,-0.0075 0.0059,-0.0071 0.0162,0.0027 0.03056,0.01247 0.0466,0.01588 0.132078,0.02808 0.0016,-0.0085 0.123963,0.01 0.0096,0.0015 0.01729,0.0091 0.02679,0.01084 0.04604,0.0089 0.04773,0.003 0.09124,0.0059 0.0083,5.73e-4 0.0312,0.0094 0.03966,0.01 0.04452,0.0028 0.09236,0.007 0.136856,0.009 0.02584,0.0012 0.05152,-0.0068 0.07736,-0.0059 0.0069,2.13e-4 0.01304,0.0055 0.01985,0.0049 0.011,-8.42e-4 0.02079,-0.008 0.03173,-0.009 0.01861,-0.0015 0.03821,0.0066 0.05851,0.002 0.01073,-0.0024 0.02079,-0.008 0.03173,-0.009 0.0069,-5.21e-4 0.01321,0.0032 0.01985,0.0049 0.01718,-0.0015 0.03454,-0.0015 0.05157,-0.004 0.02591,-0.004 0.05052,-0.01446 0.07638,-0.01884 -9.67e-4,-0.01154 0.04394,0.003 0.04561,0.0029 0.003,-2.36e-4 0.0029,-0.0061 0.0059,-0.0071 0.02746,-0.0077 0.02148,5.1e-5 0.04562,0.0029 0.02507,0.003 4.73e-4,-0.0066 0.03173,-0.009 0.04234,-0.0031 0.09427,0.02228 0.137847,0.02185 0.011,-1.09e-4 0.02078,-0.0093 0.03173,-0.009 0.0098,3.15e-4 0.01731,0.0093 0.0268,0.01085 0.02159,0.0035 0.04892,-0.0018 0.07141,0.001 0.0066,7.96e-4 0.03132,-0.0091 0.03173,-0.009 0.0059,0.0016 0.0082,0.0097 0.01388,0.01191 0.01266,0.0052 0.02644,0.0067 0.03966,0.01 z"
       id="path1-2" /></g></svg>
