<?xml version="1.0" encoding="UTF-8"?><svg id="a" xmlns="http://www.w3.org/2000/svg" viewBox="0 0 48 48"><defs><style>.c{fill:none;stroke:#fff;stroke-linecap:round;stroke-linejoin:round;}</style></defs><line class="c" x1="19.6383" y1="14.456" x2="19.8803" y2="12.4169"/><circle class="c" cx="24" cy="5.6385" r="2.1385"/><line class="c" x1="22.225" y1="9.6583" x2="22.225" y2="6.8324"/><path class="c" d="M24.7529,39.0263l9.3724-5.9331c.279-.1766.4481-.4838.4481-.8141v-15.9523c0-.5168-.3763-.9566-.8868-1.0365l-9.6866-1.5174-9.6866,1.5174c-.5105.08-.8868.5198-.8868,1.0365v15.9523c0,.3302.1691.6374.4481.8141l9.3724,5.9331c.4598.291,1.0461.291,1.5058,0Z"/><polyline class="c" points="30.1716 35.596 30.1716 38.3231 24 44.5 17.8284 38.3231 17.8284 35.596"/><line class="c" x1="28.3617" y1="14.456" x2="28.1197" y2="12.4169"/><path class="c" d="M24,11.7874l4.566.6976c.2022.0309.3761-.1439.3441-.346l-.2973-1.877c-.0209-.1317-.1255-.2341-.2576-.2521l-4.3551-.5936-4.3551.5936c-.1321.018-.2368.1205-.2576.2521l-.2973,1.877c-.032.2021.1418.3769.3441.346l4.566-.6976Z"/><line class="c" x1="25.775" y1="9.6583" x2="25.775" y2="6.8324"/><path class="c" d="M32.0737,17.5675v13.87l-8.07,5.11-8.08-5.11v-13.87l5.16-.81,2.25,1.97c.38.33.95.33,1.33,0l2.25-1.97,5.16.81Z"/><line class="c" x1="24" y1="44.5" x2="24" y2="39.2446"/><line class="c" x1="24" y1="11.7874" x2="24" y2="13.7728"/></svg>