<?xml version="1.0" encoding="UTF-8"?><svg id="a" xmlns="http://www.w3.org/2000/svg" viewBox="0 0 48 48"><defs><style>.d{fill:none;stroke:#fff;stroke-linecap:round;stroke-linejoin:round;}</style></defs><path class="d" d="m7.7466 34.948h10.836l2.7089-4.6924 2.7089 4.6924 2.7089-4.6924 2.7089 4.6924h10.836"/><path class="d" d="m13.164 34.948 10.836-18.77 10.836 18.77"/><path class="d" d="m24 7.8389a1.0428 1.0428 0 0 0-0.90214 0.52132l-17.458 30.237a1.0428 1.0428 0 0 0 0.90417 1.564h34.912a1.0428 1.0428 0 0 0 0.90417-1.564l-17.458-30.237a1.0428 1.0428 0 0 0-0.90214-0.52132z"/><path class="d" d="m21.567 25.063c-0.17863 0.3094-0.17863 0.6906 0 1l2.4331 4.2142 2.4331-4.2142c0.17863-0.3094 0.17863-0.6906 0-1l-2.4331-4.2142z"/></svg>
