<?xml version="1.0" encoding="UTF-8" standalone="no"?>
<svg
   id="b"
   viewBox="0 0 48 48"
   version="1.1"
   sodipodi:docname="mdcalc.svg"
   inkscape:version="1.4.2 (ebf0e940d0, 2025-05-08)"
   xml:space="preserve"
   xmlns:inkscape="http://www.inkscape.org/namespaces/inkscape"
   xmlns:sodipodi="http://sodipodi.sourceforge.net/DTD/sodipodi-0.dtd"
   xmlns="http://www.w3.org/2000/svg"
   xmlns:svg="http://www.w3.org/2000/svg"><path
     id="rect1"
     style="fill:none;stroke:#ffffff;stroke-width:1;stroke-linecap:round;stroke-linejoin:round;stroke-dasharray:none"
     d="m 20.494873,6.4104765 c -1.349834,0 -2.434875,1.0873228 -2.434875,2.437158 V 18.059999 H 8.8476338 c -1.3498343,0 -2.4371571,1.085042 -2.4371571,2.434876 v 7.010252 c 0,1.349834 1.0873228,2.434876 2.4371571,2.434876 h 9.2123642 v 9.212364 c 0,1.349834 1.085041,2.437156 2.434875,2.437156 h 7.010252 c 1.349835,0 2.434875,-1.087323 2.434875,-2.437156 v -9.212365 h 9.212366 c 1.349834,0 2.437157,-1.085041 2.437157,-2.434876 v -7.010252 c 0,-1.349834 -1.087323,-2.434876 -2.437156,-2.434876 H 29.94 V 8.8476345 c 0,-1.3498352 -1.08504,-2.437158 -2.434875,-2.437158 z" /><sodipodi:namedview
     id="namedview1"
     pagecolor="#ffffff"
     bordercolor="#000000"
     borderopacity="0.25"
     inkscape:showpageshadow="2"
     inkscape:pageopacity="0.0"
     inkscape:pagecheckerboard="0"
     inkscape:deskcolor="#d1d1d1"
     inkscape:zoom="11.913092"
     inkscape:cx="33.324682"
     inkscape:cy="25.686027"
     inkscape:window-width="1920"
     inkscape:window-height="996"
     inkscape:window-x="0"
     inkscape:window-y="0"
     inkscape:window-maximized="1"
     inkscape:current-layer="b"
     showguides="true" /><defs
     id="defs1"><style
       id="style1">.c{fill:none;stroke:#000;stroke-linecap:round;stroke-linejoin:round;}</style></defs></svg>
