<?xml version="1.0" encoding="UTF-8" standalone="no"?>
<svg
   viewBox="0 0 48 48"
   version="1.1"
   id="svg1"
   xml:space="preserve"
   xmlns="http://www.w3.org/2000/svg"
   xmlns:svg="http://www.w3.org/2000/svg"><defs
     id="defs1"><style
       id="style1">.a{fill:none;stroke:#fff;stroke-linecap:round;stroke-linejoin:round;}</style></defs><path
     style="fill:none;stroke:#ffffff;stroke-linecap:round;stroke-linejoin:round"
     d="m 6.0034728,33.682642 4.7395842,-9.542362 4.297222,7.014584 -4.739584,9.352778 z"
     id="path2" /><path
     style="fill:none;stroke:#ffffff;stroke-linecap:round;stroke-linejoin:round"
     d="m 16.556946,13.460418 8.65764,13.965973 c -2.154842,2.121548 -3.02248,4.914681 -3.159723,8.08889 L 12.891668,20.348613 Z"
     id="path3" /><path
     style="fill:none;stroke:#ffffff;stroke-linecap:round;stroke-linejoin:round"
     d="m 29.322225,13.270835 6.761806,10.80625 c -2.812361,-0.48184 -5.324087,-0.36161 -7.52014,0.821528 l -2.780555,-4.486806 z"
     id="path4" /><path
     id="path9"
     style="fill:none;stroke:#ffffff;stroke-width:0.92703;stroke-linecap:round;stroke-linejoin:round"
     d="m 38.311767,34.527555 a 5.5040641,5.632411 0 0 1 -5.504064,5.632411 5.5040641,5.632411 0 0 1 -5.504064,-5.632411 5.5040641,5.632411 0 0 1 5.504064,-5.632411 5.5040641,5.632411 0 0 1 5.504064,5.632411 z" /><path
     style="fill:none;stroke:#ffffff;stroke-linecap:round;stroke-linejoin:round"
     d="m 28.640008,37.91249 c 0,0 1.192254,-2.003486 4.038016,-2.056397 3.312047,-0.06158 4.337129,2.280732 4.337129,2.280732"
     id="path10" /><path
     id="path11"
     style="fill:none;stroke:#ffffff;stroke-width:0.969528;stroke-linecap:round;stroke-linejoin:round"
     d="m 34.375768,33.051912 a 1.5481867,1.5107976 0 0 1 -1.548187,1.510798 1.5481867,1.5107976 0 0 1 -1.548187,-1.510798 1.5481867,1.5107976 0 0 1 1.548187,-1.510798 1.5481867,1.5107976 0 0 1 1.548187,1.510798 z" /><path
     style="fill:none;stroke:#ffffff;stroke-linecap:round;stroke-linejoin:round"
     d="m 32.835591,28.712122 -0.008,-1.492898"
     id="path12" /><path
     style="fill:none;stroke:#ffffff;stroke-linecap:round;stroke-linejoin:round"
     d="m 36.58517,30.194326 0.916041,-1.030872"
     id="path13" /><path
     style="fill:none;stroke:#ffffff;stroke-linecap:round;stroke-linejoin:round"
     d="m 38.474658,34.37522 1.307285,-0.01469"
     id="path14" /><path
     style="fill:none;stroke:#ffffff;stroke-linecap:round;stroke-linejoin:round"
     d="m 36.748084,38.797803 0.678349,0.647638"
     id="path15" /><path
     style="fill:none;stroke:#ffffff;stroke-linecap:round;stroke-linejoin:round"
     d="m 32.611257,40.255975 -0.008,1.058918"
     id="path16" /><path
     style="fill:none;stroke:#ffffff;stroke-linecap:round;stroke-linejoin:round"
     d="m 28.575922,38.533415 -0.683695,0.725081"
     id="path17" /><path
     style="fill:none;stroke:#ffffff;stroke-linecap:round;stroke-linejoin:round"
     d="M 27.050982,34.472698 H 25.79844"
     id="path18" /><path
     style="fill:none;stroke:#ffffff;stroke-linecap:round;stroke-linejoin:round"
     d="m 28.539866,30.521485 -1.02153,-0.98414"
     id="path19" /><path
     id="path20"
     style="fill:none;stroke:#ffffff;stroke-width:1;stroke-linecap:round;stroke-linejoin:round;stroke-dasharray:none"
     d="m 37.998939,11.067826 c -0.38395,-1.3250653 -1.596991,-2.2372343 -2.976562,-2.2382813 -1.712971,-0.000061 -3.101623,1.3885913 -3.101562,3.1015623 0.0011,0.02215 0.0024,0.04429 0.0039,0.06641" /><path
     id="circle21"
     style="fill:none;stroke:#ffffff;stroke-width:1;stroke-linecap:round;stroke-linejoin:round;stroke-dasharray:none"
     d="m 39.209522,11.365234 0.05273,0.07813 C 39.102179,9.1943099 37.231838,7.4509884 34.9771,7.4492188 c -1.297601,0.00341 -2.524251,0.5926893 -3.337891,1.6035156" /><path
     id="circle22"
     style="fill:none;stroke:#ffffff;stroke-width:1;stroke-linecap:round;stroke-linejoin:round;stroke-dasharray:none"
     d="M 40.022022,14.257812 C 40.412676,13.479323 40.617898,12.621 40.621631,11.75 40.622228,8.6320482 38.095052,6.1039971 34.9771,6.1035156 c -0.256198,0.00149 -0.511998,0.020409 -0.765625,0.056641" /><path
     id="circle23"
     style="fill:none;stroke:#ffffff;stroke-width:1;stroke-linecap:round;stroke-linejoin:round;stroke-dasharray:none"
     d="M 37.580616,18.248047 C 40.239954,17.185508 41.986932,14.61374 41.994678,11.75 41.993917,9.5818764 40.991081,7.5358304 39.277881,6.2070312" /></svg>
