<?xml version="1.0" encoding="UTF-8"?><svg id="a" xmlns="http://www.w3.org/2000/svg" viewBox="0 0 48 48"><defs><style>.b{fill:none;stroke:#fff;stroke-linecap:round;stroke-linejoin:round;}</style></defs><path class="b" d="M23.4163,41.3574c-1.0549-.266-2.1679-.427-3.5618-.073M24.4172,39.6045c-1.9099-.52-3.8928-.822-6.2406-.06M25.4162,36.5907c-5.2347-.52-9.5534.175-11.8153.8419-1.5459.456-2.1929-1.1499-2.6638-2.2889l-5.2787-12.7522c-.465-1.1239.201-2.0859.625-2.4169.288-.225.588-.397.8969-.527M21.9914,16.9209c-4.0548-2.5898-9.3195-3.5388-12.6273-2.5768-2.0899.608-1.7349,2.1079-1.0239,3.8618l5.2437,12.9362c.9379,2.3119,1.1779,2.4799,3.4208,2.4819,4.7717.002,6.5066.808,11.8463,2.4149-5.3777-23.6946-1.9169-27.7734,1.2489-29.1343,1.9979-.8599,2.6788.523,3.2448,2.3289l4.1768,13.3192c.747,2.3809.669,2.6628-1.0619,4.0898-3.6818,3.0368-4.5077,4.7617-7.6086,9.3964l-6.8596-19.1179ZM36.4275,36.6887c.646-.8759,1.4019-1.7079,2.7028-2.3209M34.5406,35.9728c1.1429-1.6149,2.4819-3.1098,4.7787-4.0148M31.8528,34.2819c3.7098-3.7298,7.4856-5.9397,9.6544-6.8626,1.4839-.632.9619-2.2829.602-3.4608l-4.0338-13.1992c-.355-1.1629-1.4809-1.4809-2.0199-1.4669-.3476.0095-.6925.0643-1.0259.163"/></svg>