<?xml version="1.0" encoding="UTF-8" standalone="no"?>
<svg
   id="a"
   viewBox="0 0 48 48"
   version="1.1"
   sodipodi:docname="medplus.svg"
   inkscape:version="1.4.4 (dcaf3e7, 2026-05-05)"
   inkscape:export-filename="D:\Documents\Pictures\test.svg"
   inkscape:export-xdpi="96"
   inkscape:export-ydpi="96"
   xmlns:inkscape="http://www.inkscape.org/namespaces/inkscape"
   xmlns:sodipodi="http://sodipodi.sourceforge.net/DTD/sodipodi-0.dtd"
   xmlns="http://www.w3.org/2000/svg"
   xmlns:svg="http://www.w3.org/2000/svg">
  <sodipodi:namedview
     id="namedview1"
     pagecolor="#000000"
     bordercolor="#000000"
     borderopacity="0.25"
     inkscape:showpageshadow="2"
     inkscape:pageopacity="0.0"
     inkscape:pagecheckerboard="0"
     inkscape:deskcolor="#d1d1d1"
     inkscape:zoom="9.5164788"
     inkscape:cx="24.168603"
     inkscape:cy="19.755206"
     inkscape:window-width="1536"
     inkscape:window-height="890"
     inkscape:window-x="-6"
     inkscape:window-y="-6"
     inkscape:window-maximized="1"
     inkscape:current-layer="g7" />
  <defs
     id="defs1">
    <style
       id="style1">
         .h {
            fill: none;
            stroke: #fff;
            stroke-linecap: round;
            stroke-linejoin: round;
         }
      </style>
    <clipPath
       clipPathUnits="userSpaceOnUse"
       id="clipPath5">
      <g
         inkscape:label="Clip"
         id="use5"
         style="fill:#ffffff;fill-opacity:1;stroke-width:0;stroke-dasharray:none">
        <path
           style="fill:#ffffff;fill-opacity:1;stroke:#ffffff;stroke-width:0;stroke-linecap:square;stroke-dasharray:none"
           d="m 18,10 h 2 v 4 h 4 v 2 h -4 v 4 h -2 v -4 h -4 v -2 h 4 z"
           id="path1"
           sodipodi:nodetypes="ccccccccccccc" />
      </g>
    </clipPath>
  </defs>
  <g
     id="b">
    <rect
       id="c"
       class="h"
       x="5.5"
       y="5.5"
       width="37"
       height="37"
       rx="4"
       ry="4" />
    <g
       id="g3"
       transform="matrix(0.91430453,0,0,0.90084067,2.1737331,1.0913352)"
       style="stroke-width:1.10187;stroke-dasharray:none">
      <polyline
         class="r"
         points="205.83380544 48.64124528 205.83380544 40.65004656 209.83380544 48.65004656 213.83380544 40.66221073 213.83380544 48.65004656"
         id="polyline8"
         style="fill:none;stroke:#ffffff;stroke-width:1.71379;stroke-linecap:round;stroke-linejoin:round;stroke-dasharray:none"
         transform="matrix(0.66021106,0,0,0.62613284,-126.71479,4.4274133)" />
      <path
         class="r"
         d="m 24.492825,34.888805 v -5.009063 h 1.729119 c 0.977541,0 1.769999,0.753172 1.769999,1.682256 0,0.929085 -0.792458,1.682257 -1.769999,1.682257 h -1.729119"
         id="path16"
         style="fill:none;stroke:#ffffff;stroke-width:1.10187;stroke-linecap:round;stroke-linejoin:round;stroke-dasharray:none" />
      <path
         class="r"
         d="m 29.575438,29.879741 v 4.382931 c 0,0.345804 0.295583,0.626133 0.660211,0.626133 h 0.198063"
         id="path57"
         style="fill:none;stroke:#ffffff;stroke-width:1.10187;stroke-linecap:round;stroke-linejoin:round;stroke-dasharray:none" />
      <g
         id="g2"
         transform="matrix(0.66021106,0,0,0.62613284,2.6999003,11.171054)"
         style="stroke-width:1.71379;stroke-dasharray:none">
        <path
           class="r"
           d="m 44.40596,32.579743 v 3.300002 c 0,1.104568 0.89542,1.999998 1.99999,1.999998 h 1e-5 c 1.10457,0 2,-0.89543 2,-1.999998 v -3.300002"
           id="path36"
           style="fill:none;stroke:#ffffff;stroke-width:1.71379;stroke-linecap:round;stroke-linejoin:round;stroke-dasharray:none" />
        <line
           class="r"
           x1="48.405949"
           y1="35.879742"
           x2="48.405949"
           y2="37.879742"
           id="line36"
           style="fill:none;stroke:#ffffff;stroke-width:1.71379;stroke-linecap:round;stroke-linejoin:round;stroke-dasharray:none" />
      </g>
      <path
         class="r"
         d="m 36.324718,34.608825 c 0.241089,0.192001 0.501391,0.27998 1.085961,0.27998 h 0.29623 c 0.482087,0 0.872899,-0.371436 0.872899,-0.829625 v -2e-6 c 0,-0.458189 -0.390812,-0.829625 -0.872899,-0.829625 h -0.592466 c -0.482086,0 -0.872898,-0.371436 -0.872898,-0.829625 v -2e-6 c 0,-0.458189 0.390812,-0.829625 0.872898,-0.829625 h 0.296236 c 0.584564,0 0.844866,0.08798 1.085955,0.27998"
         id="path52"
         style="fill:none;stroke:#ffffff;stroke-width:1.10187;stroke-linecap:round;stroke-linejoin:round;stroke-dasharray:none" />
      <path
         class="r"
         d="m 18.511865,34.256859 c -0.227423,0.377506 -0.656025,0.631946 -1.147295,0.631946 h -6e-6 c -0.72925,0 -1.320416,-0.560658 -1.320416,-1.252264 v -0.813976 c 0,-0.691606 0.591166,-1.252264 1.320416,-1.252264 h 6e-6 c 0.729249,0 1.320422,0.560658 1.320422,1.252264 v 0.406988 c 0,0 -2.640844,0 -2.640844,0"
         id="path77"
         style="fill:none;stroke:#ffffff;stroke-width:1.10187;stroke-linecap:round;stroke-linejoin:round;stroke-dasharray:none" />
      <g
         id="g1"
         transform="matrix(0.66021106,0,0,0.62613284,2.8758071,11.171054)"
         style="stroke-width:1.71379;stroke-dasharray:none">
        <path
           class="r"
           d="m 30.34412,34.579741 c 0,-1.104568 -0.89543,-1.999998 -2,-1.999998 h -10e-6 c -1.10457,0 -1.99999,0.89543 -1.99999,1.999998 v 1.300004 c 0,1.104568 0.89542,1.999998 1.99999,1.999998 h 10e-6 c 1.10457,0 2,-0.89543 2,-1.999998"
           id="path88"
           style="fill:none;stroke:#ffffff;stroke-width:1.71379;stroke-linecap:round;stroke-linejoin:round;stroke-dasharray:none" />
        <line
           class="r"
           x1="30.34412"
           y1="37.879742"
           x2="30.34412"
           y2="29.879749"
           id="line88"
           style="fill:none;stroke:#ffffff;stroke-width:1.71379;stroke-linecap:round;stroke-linejoin:round;stroke-dasharray:none" />
      </g>
    </g>
    <a
       id="a7"
       transform="translate(0,6.7933014)">
      <g
         id="g7"
         transform="matrix(0.78642799,0,0,0.78642799,5.1257279,-2.1275093)"
         style="stroke-width:1.27158">
        <g
           id="g8"
           transform="translate(0,-6.2800429)">
          <rect
             id="c-4"
             class="h"
             x="17.006357"
             y="17.591198"
             width="13.987287"
             height="13.987287"
             rx="1.512139"
             ry="1.512139"
             style="fill:none;stroke:#ffffff;stroke-width:1.27158;stroke-linecap:round;stroke-linejoin:round" />
          <g
             id="g6"
             transform="matrix(1.6830257,0,0,1.6830257,-16.723733,-4.6953737)"
             style="stroke-width:0.755532">
            <line
               class="r"
               x1="21.653595"
               y1="17.397367"
               x2="26.739883"
               y2="17.397367"
               id="line113"
               style="fill:none;stroke:#ffffff;stroke-width:0.960718;stroke-linecap:round;stroke-linejoin:round" />
            <line
               class="r"
               x1="24.196739"
               y1="14.854222"
               x2="24.196739"
               y2="19.940512"
               id="line114"
               style="fill:none;stroke:#ffffff;stroke-width:0.960718;stroke-linecap:round;stroke-linejoin:round" />
          </g>
        </g>
      </g>
    </a>
  </g>
</svg>
