<?xml version="1.0" encoding="UTF-8"?><svg id="b" xmlns="http://www.w3.org/2000/svg" viewBox="0 0 48 48"><defs><style>.v{fill:none;stroke:#fff;stroke-linecap:round;stroke-linejoin:round;}</style></defs><rect id="c" class="v" x="5.5" y="5.5" width="37" height="37" rx="4" ry="4"/><g id="d"><polyline id="e" class="v" points="9.5 32.7248 9.5 27.7986 12.1389 32.7303 14.7778 27.8061 14.7778 32.7303"/><path id="f" class="v" d="M24.8026,32.7302v-4.9317h1.4103c.9768,0,1.7687.7415,1.7687,1.6563s-.7919,1.6563-1.7687,1.6563h-1.4103"/><path id="g" class="v" d="M29.6716,27.7986v4.3152c0,.3405.2954.6165.6597.6165h.1979"/><g id="h"><path id="i" class="v" d="M31.9422,29.463v2.0343c0,.6809.5907,1.2329,1.3194,1.2329h0c.7287,0,1.3195-.552,1.3195-1.2329v-2.0343"/></g><path id="j" class="v" d="M36.2466,32.4546c.2409.189.501.2757,1.0852.2757h.296c.4817,0,.8723-.3657.8723-.8168h0c0-.4511-.3905-.8168-.8723-.8168h-.592c-.4817,0-.8723-.3657-.8723-.8168h0c0-.4511.3905-.8168.8723-.8168h.296c.5841,0,.8442.0866,1.0852.2757"/><path id="k" class="v" d="M18.5617,32.4142c-.2337.1965-.543.316-.8821.316h0c-.7287,0-1.3194-.552-1.3194-1.2329v-.8014c0-.6809.5907-1.2329,1.3194-1.2329h0c.7287,0,1.3195.552,1.3195,1.2329v.4007h-2.6389"/><g id="l"><path id="m" class="v" d="M23.2203,30.6959c0-.6809-.5907-1.2329-1.3195-1.2329h0c-.7287,0-1.3194.552-1.3194,1.2329v.8014c0,.6809.5907,1.2329,1.3194,1.2329h0c.7287,0,1.3195-.552,1.3195-1.2329"/><line id="n" class="v" x1="23.2203" y1="32.7303" x2="23.2203" y2="27.7986"/></g></g><g id="o"><g id="p"><g id="q"><rect id="r" class="v" x="18.5" y="13.5612" width="11" height="11" rx="1.1892" ry="1.1892"/><g id="s"><line id="t" class="v" x1="20.634" y1="19.0612" x2="27.3661" y2="19.0612"/><line id="u" class="v" x1="24" y1="15.6952" x2="24" y2="22.4273"/></g></g></g></g></svg>