<?xml version="1.0" encoding="UTF-8" standalone="no"?>
<svg
   viewBox="0 0 48 48"
   version="1.1"
   id="svg1"
   sodipodi:docname="megaphone.svg"
   inkscape:version="1.2.2 (b0a8486541, 2022-12-01)"
   xml:space="preserve"
   xmlns:inkscape="http://www.inkscape.org/namespaces/inkscape"
   xmlns:sodipodi="http://sodipodi.sourceforge.net/DTD/sodipodi-0.dtd"
   xmlns="http://www.w3.org/2000/svg"
   xmlns:svg="http://www.w3.org/2000/svg"><sodipodi:namedview
     id="namedview1"
     pagecolor="#505050"
     bordercolor="#eeeeee"
     borderopacity="1"
     inkscape:showpageshadow="0"
     inkscape:pageopacity="0"
     inkscape:pagecheckerboard="0"
     inkscape:deskcolor="#505050"
     inkscape:zoom="12.59534"
     inkscape:cx="30.963834"
     inkscape:cy="32.313539"
     inkscape:window-width="1918"
     inkscape:window-height="1053"
     inkscape:window-x="0"
     inkscape:window-y="0"
     inkscape:window-maximized="1"
     inkscape:current-layer="svg1"
     showgrid="false" /><defs
     id="defs1"><style
       id="style1">.a { fill:none;stroke:#fff;stroke-linecap:round;stroke-linejoin:round; }
</style></defs><g
     id="g1596"><path
       style="fill:none;stroke:#ffffff;stroke-width:1;stroke-linecap:round;stroke-linejoin:round;stroke-dashoffset:3.6;stroke-opacity:1"
       d="m 25.363938,28.008405 c -0.591079,0 -1.066929,-0.476003 -1.066929,-1.067269 V 15.616159 c 0,-0.591268 0.47585,-1.067269 1.066929,-1.067269 h 11.764946 c 1.477697,0 2.667324,1.190004 2.667324,2.668171 v 8.123173 c 0,1.478166 -1.189627,2.668171 -2.667324,2.668171 z"
       id="path1566" /><path
       style="fill:none;stroke:#ffffff;stroke-width:1;stroke-linecap:round;stroke-linejoin:round;stroke-dashoffset:3.6;stroke-opacity:1"
       d="m 39.651397,16.354497 h 0.181279 c 1.477696,0 2.667324,1.190007 2.667324,2.668171 v 4.51196 c 0,1.478164 -1.189628,2.66817 -2.667324,2.66817 l -0.181279,10e-7"
       id="path1564" /><path
       style="fill:none;stroke:#ffffff;stroke-width:1;stroke-linecap:round;stroke-linejoin:round;stroke-dashoffset:3.6;stroke-opacity:1"
       d="M 26.492325,28.007191 V 14.547851"
       id="path1562" /><path
       style="fill:none;stroke:#ffffff;stroke-width:1;stroke-linecap:round;stroke-linejoin:round;stroke-dashoffset:3.6;stroke-opacity:1"
       d="M 29.029703,14.547851 V 28.00719"
       id="path1560" /></g><g
     id="g1585"><path
       style="fill:none;stroke:#ffffff;stroke-width:1;stroke-linecap:round;stroke-linejoin:round;stroke-dashoffset:3.6;stroke-opacity:1"
       d="m 38.244831,27.762936 -2.239856,9.813538 -3.064948,2.102 -4.170762,-0.858912 2.467287,-10.810756"
       id="path1558" /><path
       style="fill:none;stroke:#ffffff;stroke-width:1;stroke-linecap:round;stroke-linejoin:round;stroke-dashoffset:3.6;stroke-opacity:1"
       d="m 30.578711,30.895481 2.504547,0.439677"
       id="path1556" /><path
       style="fill:none;stroke:#ffffff;stroke-width:1;stroke-linecap:round;stroke-linejoin:round;stroke-dashoffset:3.6;stroke-opacity:1"
       d="m 29.785965,34.366868 2.704339,0.474751"
       id="path1554" /></g><g
     id="g1590"><path
       style="fill:none;stroke:#ffffff;stroke-width:1;stroke-linecap:round;stroke-linejoin:round;stroke-dashoffset:3.6;stroke-opacity:1"
       d="m 6.9870144,8.3215295 c 0.8238061,0 1.4870144,0.7140018 1.4870144,1.6009018 V 32.634863 c 0,0.886899 -0.6632083,1.600902 -1.4870144,1.600902 -0.823806,0 -1.4870143,-0.714003 -1.4870143,-1.600902 V 9.9224313 c 0,-0.8869 0.6632083,-1.6009018 1.4870143,-1.6009018 z"
       id="path1552" /><path
       style="fill:none;stroke:#ffffff;stroke-width:1;stroke-linecap:round;stroke-linejoin:round;stroke-dashoffset:3.6;stroke-opacity:1"
       d="m 8.503695,32.698044 c 5.263256,-2.158547 9.892735,-4.142233 15.831222,-5.485941"
       id="path1550" /><path
       style="fill:none;stroke:#ffffff;stroke-width:1;stroke-linecap:round;stroke-linejoin:round;stroke-dashoffset:3.6;stroke-opacity:1"
       d="m 8.503695,9.8592483 c 5.263256,2.1585497 9.892735,4.1422347 15.831222,5.4859437"
       id="path1520" /></g></svg>
