<svg xmlns="http://www.w3.org/2000/svg" xml:space="preserve" viewBox="0 0 48 48"><path d="M9.5 5.5h29c2.216 0 4 1.784 4 4v29c0 2.216-1.784 4-4 4h-29c-2.216 0-4-1.784-4-4v-29c0-2.216 1.784-4 4-4zm7.561 12.899a1.889 1.891 0 0 1-1.888 1.891 1.889 1.891 0 0 1-1.889-1.891 1.889 1.891 0 0 1 1.889-1.891 1.889 1.891 0 0 1 1.888 1.89zm15.16 2.386a1.889 1.891 0 0 1-1.89 1.891 1.889 1.891 0 0 1-1.888-1.891 1.889 1.891 0 0 1 1.889-1.891 1.889 1.891 0 0 1 1.888 1.89zm-8.03-9.637L21.377 27.77m13.339.63c-2.867 6.994-9.334 9.64-15.853 7.976" class="cls-1" style="fill:none;stroke:#fff;stroke-linecap:round;stroke-linejoin:round;stroke-opacity:1"/></svg>