<?xml version="1.0" encoding="UTF-8" standalone="no"?>
<svg
   viewBox="0 0 48 48"
   version="1.1"
   id="svg1"
   xml:space="preserve"
   xmlns="http://www.w3.org/2000/svg"
   xmlns:svg="http://www.w3.org/2000/svg"><defs
     id="defs1"><style
       id="style1">.a{fill:none;stroke:#fff;stroke-linecap:round;stroke-linejoin:round;}</style></defs><circle
     class="a"
     cx="24"
     cy="24"
     r="21.5"
     id="circle1" /><g
     id="g3"
     transform="matrix(1.5521091,0,0,1.5521091,-16.299399,-12.777342)"
     style="stroke-width:0.644288"><path
       class="t"
       d="m 25.5,21.500002 c 0,-1.1046 0.8954,-2 2,-2 v 0 c 1.1046,0 2,0.8954 2,2 v 3.3"
       id="path375"
       style="fill:none;stroke:#ffffff;stroke-width:0.644288;stroke-linecap:round;stroke-linejoin:round" /><line
       class="t"
       x1="25.500002"
       y1="19.5"
       x2="25.500002"
       y2="24.800003"
       id="line375"
       style="fill:none;stroke:#ffffff;stroke-width:0.644288;stroke-linecap:round;stroke-linejoin:round" /><path
       class="t"
       d="m 29.5,21.500002 c 0,-1.1046 0.8954,-2 2,-2 v 0 c 1.1046,0 2,0.8954 2,2 v 3.3"
       id="path376"
       style="fill:none;stroke:#ffffff;stroke-width:0.644288;stroke-linecap:round;stroke-linejoin:round" /></g><g
     id="g4"
     transform="matrix(1.5521091,0,0,1.5521091,-10.2803,-12.222229)"
     style="stroke-width:0.644288"><path
       class="t"
       d="m 19.5,21.199998 c 0,-1.1046 -0.8954,-2 -2,-2 v 0 c -1.1046,0 -2,0.8954 -2,2 v 1.3 c 0,1.1046 0.8954,2 2,2 v 0 c 1.1046,0 2,-0.8954 2,-2"
       id="path425"
       style="fill:none;stroke:#ffffff;stroke-width:0.644288;stroke-linecap:round;stroke-linejoin:round" /><line
       class="t"
       x1="19.500002"
       y1="24.5"
       x2="19.500002"
       y2="16.5"
       id="line425"
       style="fill:none;stroke:#ffffff;stroke-width:0.644288;stroke-linecap:round;stroke-linejoin:round" /></g><path
     style="opacity:1;fill:none;stroke:#ffffff;stroke-linecap:round;stroke-linejoin:round;stroke-dashoffset:0.5"
     d="M 8.3829563,29.491846 C 23.504328,22.71527 26.675767,36.728175 40.273541,31.234087"
     id="path1" /><path
     style="opacity:1;fill:none;stroke:#ffffff;stroke-linecap:round;stroke-linejoin:round;stroke-dashoffset:0.5"
     d="M 38.607049,28.077854 C 34.524597,29.537635 29.414633,29.10538 22.548133,27.114971"
     id="path2" /><path
     style="opacity:1;fill:none;stroke:#ffffff;stroke-linecap:round;stroke-linejoin:round;stroke-dashoffset:0.5"
     d="M 24.328249,32.521831 C 18.976759,30.970329 13.627996,29.51429 8.4082062,32.57233"
     id="path3" /></svg>
