<?xml version="1.0" encoding="utf-8"?>
<svg
	version="1.1"
	xmlns="http://www.w3.org/2000/svg"
	xmlns:xlink="http://www.w3.org/1999/xlink"
	x="0%" y="0%"
	width="100%" height="100%"
	viewBox="0 0 48.0 48.0"
	enable-background="new 0 0 48.0 48.0"
	xml:space="preserve">
	<path
		fill="#FFFFFF"
		stroke="#FFFFFF"
		fill-opacity="0.000"
		stroke-opacity="1.000"
		fill-rule="nonzero"
		stroke-width="1.000"
		stroke-linejoin="miter"
		stroke-linecap="square"
		d="M24.13,4.44L24.13,0.63"/>
	<path
		fill="#FFFFFF"
		stroke="#FFFFFF"
		fill-opacity="0.000"
		stroke-opacity="1.000"
		fill-rule="nonzero"
		stroke-width="1.000"
		stroke-linejoin="miter"
		stroke-linecap="square"
		d="M23.36,4.45Q20.78,4.51,20.78,7.07L14.13,7.07Q9.58,7.07,9.58,11.36L9.58,35.85C9.76,40.51,13.04,43.62,20.67,43.66Q20.67,45.57,22.19,45.57L26.45,45.61Q28.11,45.61,28.11,43.55C35.19,43.55,38.47,40.44,38.65,35.78L38.65,11.29Q38.65,6.99,34.11,6.99L27.46,6.99Q27.46,4.44,25.05,4.44"/>
	<path
		fill="#FFFFFF"
		stroke="#FFFFFF"
		fill-opacity="0.000"
		stroke-opacity="1.000"
		fill-rule="nonzero"
		stroke-width="1.000"
		stroke-linejoin="miter"
		stroke-linecap="square"
		d="M16.53,18.25L31.50,18.25L31.50,35.24L16.53,35.24z"/>
	<path
		fill="#FFFFFF"
		stroke="#FFFFFF"
		fill-opacity="0.000"
		stroke-opacity="1.000"
		fill-rule="nonzero"
		stroke-width="1.000"
		stroke-linejoin="miter"
		stroke-linecap="square"
		d="M20.83,32.89L27.01,32.89"/>
	<path
		fill="#FFFFFF"
		stroke="#FFFFFF"
		fill-opacity="0.000"
		stroke-opacity="1.000"
		fill-rule="nonzero"
		stroke-width="1.000"
		stroke-linejoin="miter"
		stroke-linecap="square"
		d="M38.47,13.07Q33.63,15.61,28.60,13.56Q17.33,7.48,10.15,10.54"/>
	<path
		fill="#FFFFFF"
		stroke="#FFFFFF"
		fill-opacity="0.000"
		stroke-opacity="1.000"
		fill-rule="nonzero"
		stroke-width="1.000"
		stroke-linejoin="miter"
		stroke-linecap="square"
		d="M25.65,20.44L25.65,23.22L28.58,23.22L28.58,26.25L25.65,26.25L25.65,28.77L22.66,28.77L22.66,26.25L19.73,26.25L19.73,22.96L22.66,22.96L22.66,20.44L25.65,20.44z"/>
	<path
		fill="#FFFFFF"
		stroke="#FFFFFF"
		fill-opacity="0.000"
		stroke-opacity="1.000"
		fill-rule="nonzero"
		stroke-width="1.000"
		stroke-linejoin="miter"
		stroke-linecap="square"
		d="M19.73,31.19L28.11,31.19"/>
</svg>