<svg xmlns="http://www.w3.org/2000/svg" xml:space="preserve" id="svg1" version="1.1" viewBox="0 0 48 48"><defs id="defs1"><style id="style1">.a{fill:none;stroke:#fff;stroke-linecap:round;stroke-linejoin:round}</style></defs><path id="rect6" d="M36.798 26.93a1.858 1.858 0 0 1 .042-2.314l1.52-1.845a1.857 1.857 0 0 1 2.62-.254l1.844 1.52c.796.655.91 1.824.254 2.62l-1.519 1.845a1.86 1.86 0 0 1-2.127.547m-6.366-13.66c.668 0 1.207.538 1.207 1.207 0 .668-.539 1.207-1.207 1.207a1.204 1.204 0 0 1-1.207-1.207c0-.67.538-1.207 1.207-1.207zm.63-2.787c-.15-1.858-2.143-4.535-3.715-3.832-1.105.493-1.635 2.48-.662 3.922-2.82.696-3.79 3.807-4.645 6.71-.551 1.872-2.46 3.014-5.028 3.812M30.477 36.96c1.673-1.855 3.492-5.825-.897-9.625l4.277 2.644c.639.394 1.636.066 2.37 0 .96.526 2.54.563 3.047 0 .402-1.354.16-2.909-1.863-3.016l-2.94-.156c-1.204-.064-1.129-2.257-2.127-3.33-.816-.878-1.882-1.055-3.122-1.163l2.363-.305c1.481.756 3.034.88 4.564.377 2.596-.851 3.993-3.491 3.01-4.933-1.077-1.581-2.578-2.833-3.848-3.987 1.23-.536 1.307-1.714-.527-3.632-1.518-1.588-2.25-1.23-2.99-.557m-9.78 31.86a9.049 9.049 0 0 1-9.048-9.048c0-3.715 2.288-6.803 6.016-8.623 3.567-1.74 5.485-4.648 5.485-7.856 0-4.832-4.47-8.749-9.984-8.749-5.513 0-9.983 3.917-9.983 8.749 0 2.298 1.032 4.504 2.882 6.133a3.028 3.028 0 0 1-.293-1.29 2.85 2.85 0 0 1 2.856-2.857 2.85 2.85 0 0 1 2.856 2.857c-.183 1.904-3.806 6.389-3.144 11.726.785 6.322 3.24 9.014 9.581 8.959h14.868c.363-2.828-1.905-3.763-4.42-4.084-.328-4.732-3.26-7.093-7.227-7.029" style="fill:none;stroke:#fff;stroke-width:1stroke-linecap:round;stroke-linejoin:round;stroke-opacity:1"/></svg>