<?xml version="1.0" encoding="UTF-8" standalone="no"?>
<svg
   width="48"
   height="48"
   viewBox="0 0 48 48"
   version="1.1"
   xml:space="preserve"
   style="clip-rule:evenodd;fill-rule:evenodd;stroke-linejoin:round;stroke-miterlimit:2"
   id="svg3"
   sodipodi:docname="mensa-ka.svg"
   inkscape:version="1.4 (e7c3feb100, 2024-10-09)"
   xmlns:inkscape="http://www.inkscape.org/namespaces/inkscape"
   xmlns:sodipodi="http://sodipodi.sourceforge.net/DTD/sodipodi-0.dtd"
   xmlns="http://www.w3.org/2000/svg"
   xmlns:svg="http://www.w3.org/2000/svg"><defs
     id="defs3" /><sodipodi:namedview
     id="namedview3"
     pagecolor="#ff5252"
     bordercolor="#000000"
     borderopacity="0.25"
     inkscape:showpageshadow="2"
     inkscape:pageopacity="0.0"
     inkscape:pagecheckerboard="0"
     inkscape:deskcolor="#d1d1d1"
     inkscape:zoom="9.2134831"
     inkscape:cx="17.908537"
     inkscape:cy="20.513415"
     inkscape:window-width="1462"
     inkscape:window-height="732"
     inkscape:window-x="0"
     inkscape:window-y="30"
     inkscape:window-maximized="1"
     inkscape:current-layer="svg3"
     showgrid="true" /><path
     d="m 14.242304,22.333913 h 5.514779 l 1.110927,17.772131 c 0.0019,0.03797 0.0032,0.07568 0.0032,0.113661 0,1.20025 -0.972927,2.171836 -2.171838,2.171836 h -3.399687 c -1.199981,0 -2.171841,-0.971586 -2.171841,-2.171836 0,-0.03771 0.0011,-0.07568 0.0034,-0.113661 z"
     style="fill:none;fill-rule:nonzero;stroke:#ffffff;stroke-width:1;stroke-linecap:round;stroke-linejoin:round;stroke-dasharray:none;stroke-opacity:1"
     id="path1" /><path
     d="M 34.299936,25.676852 H 28.728457 V 40.301 c 0,1.154519 0.936029,2.090541 2.090273,2.090541 h 3.620539 c 1.153183,0 2.089204,-0.936022 2.089204,-2.090541 0,-0.09228 -0.0058,-0.184794 -0.01767,-0.276258 z"
     style="fill:none;fill-rule:nonzero;stroke:#ffffff;stroke-width:1;stroke-linecap:round;stroke-linejoin:round;stroke-dasharray:none;stroke-opacity:1"
     id="path2" /><path
     d="m 29.842592,5.6192207 c -0.615099,0 -1.114135,0.4993012 -1.114135,1.114402 V 25.676852 h 5.571479 c 0,0 2.228537,-3.498854 2.228537,-10.028816 0,-5.539115 -2.853536,-10.0288153 -6.685881,-10.0288153 z m -7.242945,0 c -0.91917,0 -1.671464,0.7522948 -1.671464,1.6714692 v 9.4717491 c 0,0.615101 -0.499303,1.114133 -1.114404,1.114133 -0.6151,0 -1.114134,-0.499032 -1.114134,-1.114133 V 7.2906899 c 0,-0.9191744 -0.752296,-1.6714692 -1.67147,-1.6714692 -0.919442,0 -1.671468,0.7522948 -1.671468,1.6714692 v 9.4717491 c 0,0.615101 -0.499302,1.114133 -1.114403,1.114133 -0.6151,0 -1.114402,-0.499032 -1.114402,-1.114133 V 7.2906899 c 0,-0.9191744 -0.752027,-1.6714692 -1.671469,-1.6714692 -0.919175,0 -1.6714693,0.7522948 -1.6714693,1.6714692 V 17.876572 c 0,2.461741 1.9958683,4.457341 4.4573403,4.457341 h 5.571475 c 2.461475,0 4.457341,-1.9956 4.457341,-4.457341 V 7.2906899 c 0,-0.9191744 -0.752028,-1.6714692 -1.671473,-1.6714692 z"
     style="fill:none;fill-rule:nonzero;stroke:#ffffff;stroke-width:1;stroke-linecap:round;stroke-linejoin:round;stroke-dasharray:none;stroke-opacity:1"
     id="path3" /></svg>
