<?xml version="1.0" encoding="UTF-8"?>
<svg data-name="Layer 1" version="1.1" viewBox="0 0 48 48" xml:space="preserve" xmlns="http://www.w3.org/2000/svg"><defs><style>
      .cls-1 {
        fill: none;
        stroke: #fff;
        stroke-linecap: round;
        stroke-linejoin: round;
      }
    </style><style>
      .cls-1 {
        fill: none;
        stroke: #fff;
        stroke-linecap: round;
        stroke-linejoin: round;
      }
    </style><style>.q{fill:#fff;}.r,.s{fill:none;stroke:#fff;stroke-linecap:round;stroke-linejoin:round;}.s{stroke-width:1.0050968px;}</style></defs><g><polyline class="r" transform="matrix(.60939 .35183 -.35183 .60939 -94.712 -80.181)" points="205.83 48.641 205.83 40.65 209.83 48.65 213.83 40.662 213.83 48.65" stroke-width="1.4211"/><path class="r" d="m22.332 26.103c-0.42204 0.24622-0.96063 0.26545-1.4141 0.0037l-6e-6 -4e-6c-0.67312-0.38866-0.90374-1.2494-0.51511-1.9225l0.45738-0.79221c0.38862-0.67311 1.2493-0.90374 1.9224-0.51512l7e-6 4e-6c0.67312 0.38862 0.90374 1.2493 0.51512 1.9224l-0.22869 0.39611-2.4376-1.4073"/><path class="r" d="m27.245 29.397c0.11464 0.31535 0.30547 0.53969 0.84504 0.85121l0.27343 0.15786c0.44498 0.25691 1.0144 0.10367 1.2719-0.34227l1e-6 -2e-6c0.25746-0.44594 0.10545-1.0157-0.33953-1.2726l-0.54686-0.31573c-0.44498-0.25691-0.59699-0.82668-0.33953-1.2726l1e-6 -1e-6c0.25746-0.44594 0.82691-0.59918 1.2719-0.34227l0.27344 0.15787c0.53957 0.31152 0.7304 0.53586 0.84504 0.85121"/><g transform="matrix(.60939 .35183 -.35183 .60939 -.41618 -38.74)" stroke-width="1.4211"><path class="r" d="m91.834 62.65c0 1.1046-0.89543 2-2 2h-4e-6c-1.1046 0-2-0.89543-2-2v-1.3c0-1.1046 0.89543-2 2-2h4e-6c1.1046 0 2 0.89543 2 2"/><line class="r" x1="91.834" x2="91.834" y1="64.65" y2="59.35"/></g><g transform="matrix(.60939 .35183 -.35183 .60939 -86.802 -88.615)" stroke-width="1.4211"><path class="r" d="m222.09 64.65v-3.3c0-1.1046-0.89543-2-2-2h-1e-5c-1.1046 0-2 0.89543-2 2"/><line class="r" x1="218.09" x2="218.09" y1="64.65" y2="59.35"/></g></g><path d="m24 4c-4 2.125-12 6.5-12 6.5v13.5l12 7-12 7 12 7 12-7v-14l-11.913-6.7788 11.913-6.7212z" fill="none" stroke="#fff" stroke-linecap="round" stroke-linejoin="round"/></svg>
