<?xml version="1.0" encoding="UTF-8" standalone="no"?>
<svg
   viewBox="0 0 48 48"
   version="1.1"
   id="svg1"
   sodipodi:docname="message_assistant_answer_phone.svg"
   inkscape:version="1.2.2 (b0a8486541, 2022-12-01)"
   xml:space="preserve"
   xmlns:inkscape="http://www.inkscape.org/namespaces/inkscape"
   xmlns:sodipodi="http://sodipodi.sourceforge.net/DTD/sodipodi-0.dtd"
   xmlns="http://www.w3.org/2000/svg"
   xmlns:svg="http://www.w3.org/2000/svg"><sodipodi:namedview
     id="namedview1"
     pagecolor="#505050"
     bordercolor="#eeeeee"
     borderopacity="1"
     inkscape:showpageshadow="0"
     inkscape:pageopacity="0"
     inkscape:pagecheckerboard="0"
     inkscape:deskcolor="#505050"
     inkscape:zoom="8.90625"
     inkscape:cx="-9.4315789"
     inkscape:cy="22.905263"
     inkscape:window-width="1918"
     inkscape:window-height="1053"
     inkscape:window-x="0"
     inkscape:window-y="0"
     inkscape:window-maximized="1"
     inkscape:current-layer="svg1"
     showgrid="false" /><defs
     id="defs1"><style
       id="style1">.a { fill:none;stroke:#fff;stroke-linecap:round;stroke-linejoin:round; }
</style></defs><path
     style="fill:none;stroke:#ffffff;stroke-width:1;stroke-linecap:round;stroke-linejoin:round;stroke-dashoffset:3.6;stroke-opacity:1"
     d="m 17.067506,31.429641 c 0.86957,-0.429013 1.592059,-0.489601 2.599697,0.107795 l 3.35475,1.98892 c 1.139971,0.675851 1.52085,1.654778 1.006875,3.032488 l -1.303285,3.49346 c -0.344522,0.923494 -1.7864,1.571055 -2.701049,1.203613 C 13.09521,38.472218 10.014095,34.448602 7.7049315,29.266995 5.3957691,24.085387 4.4638665,19.104061 7.0270155,12.090445 7.3653439,11.164665 8.8109743,10.525524 9.7280636,10.886833 l 3.4692334,1.36678 c 1.368156,0.539014 1.841438,1.476766 1.58179,2.776302 l -0.764102,3.824318 c -0.229507,1.14868 -0.757644,1.645382 -1.658092,2.005107 l -2.8813591,1.150784 c 0.4001627,1.912576 1.0541761,3.756619 1.8875911,5.626745 0.833415,1.870127 1.767387,3.589417 2.922056,5.165778 z"
     id="path1675" /><g
     id="g1693"><g
       id="g1687"><path
         style="fill:none;stroke:#ffffff;stroke-width:1;stroke-linecap:round;stroke-linejoin:round;stroke-dashoffset:3.6;stroke-opacity:1"
         d="m 40.772345,27.124697 a 2.3837525,2.3836546 0 0 1 -2.383753,2.383655 2.3837525,2.3836546 0 0 1 -2.383752,-2.383655 2.3837525,2.3836546 0 0 1 2.383752,-2.383655 2.3837525,2.3836546 0 0 1 2.383753,2.383655 z"
         id="path1673" /><path
         style="fill:none;stroke:#ffffff;stroke-width:1;stroke-linecap:round;stroke-linejoin:round;stroke-dashoffset:3.6;stroke-opacity:1"
         d="m 27.669727,21.45188 c -0.06921,-0.314945 -0.105696,-0.642157 -0.105696,-0.97789 0,-2.5048 2.030636,-4.535352 4.535539,-4.535352 1.8004,0 3.244542,1.107763 4.08282,2.559647 l 4.329086,7.49791"
         id="path1671" /></g><path
       style="fill:none;stroke:#ffffff;stroke-width:1;stroke-linecap:round;stroke-linejoin:round;stroke-dashoffset:3.6;stroke-opacity:1"
       d="M 42.499999,15.948267 C 41.511616,10.647579 36.861351,6.6349672 31.273852,6.6349672 c -6.307086,0 -11.41999,5.1126938 -11.41999,11.4195218 0,1.395455 0.25039,2.73242 0.708481,3.968538 2.282596,6.159374 7.581904,7.377519 9.148504,10.767861 1.582115,3.423919 2.588996,8.321442 8.708614,7.300947 1.281664,-0.213728 3.034234,-1.42511 3.840738,-3.815358"
       id="path1622" /></g></svg>
