<?xml version="1.0" encoding="UTF-8"?><svg id="a" xmlns="http://www.w3.org/2000/svg" viewBox="0 0 48 48"><defs><style>.d{fill:none;stroke:#fff;stroke-linecap:round;stroke-linejoin:round;}</style></defs><rect class="d" x="5.5" y="5.5" width="37" height="37" rx="4" ry="4"/><path class="d" d="m14.623 19.311c0-2.5895 2.0991-4.6885 4.6885-4.6885 2.5895 0 4.6885 2.0991 4.6885 4.6885v7.7361"/><line class="d" x1="14.623" x2="14.623" y1="14.623" y2="27.048"/><path class="d" d="m24 19.311c0-2.5895 2.0991-4.6885 4.6885-4.6885 2.5895 0 4.6885 2.0991 4.6885 4.6885v7.7361"/><path class="d" d="m25.534 33.377v-4.8369l3.163 4.8369v-4.8369"/><path class="d" d="m14.623 28.54h3.163l-3.163 4.8369h3.163"/><line class="d" x1="30.99" x2="32.548" y1="30.959" y2="30.959"/><path class="d" d="m33.377 33.377h-2.3872v-4.8369h2.3872"/><rect class="d" x="20.079" y="28.54" width="3.163" height="4.8369" rx="1.5815" ry="1.6022"/></svg>
