<?xml version="1.0" encoding="UTF-8"?><svg version="1.1" viewBox="0 0 48 48" xmlns="http://www.w3.org/2000/svg"><g fill="none" stroke="#fff"><g stroke-linecap="round" stroke-linejoin="round"><path d="m9.495 20.3c0 0.9514 0.6655 1.702 1.468 1.702 0.8221 0 1.468-0.7711 1.468-1.702v-1.101c0-0.9514-0.6655-1.702-1.468-1.702-0.8221 0-1.468 0.7711-1.468 1.702" stroke-width=".9903"/><path d="m9.498 17.5v7.004" stroke-width=".9962"/><path d="m16.48 21.13c-0.2545 0.5207-0.7438 0.8712-1.273 0.8712-0.8221 0-1.468-0.7711-1.468-1.702v-1.101c0-0.9514 0.6655-1.702 1.468-1.702 0.8221 0 1.468 0.7711 1.468 1.702v0.5608h-2.937" stroke-width=".9903"/><path d="m17.98 19.26c0-0.9323 0.669-1.668 1.475-1.668" stroke-width=".9826"/><path d="m17.98 17.5v4.514" stroke-width=".9826"/><path d="m20.92 21.61c0.2731 0.2658 0.5658 0.3884 1.171 0.3884h0.3317c0.5464 0 0.9756-0.5213 0.9756-1.124 0-0.644-0.439-1.124-0.9756-1.124h-0.6634c-0.5464 0-0.9756-0.5213-0.9756-1.124 0-0.6031 0.439-1.124 0.9756-1.124h0.3317c0.6634 0 0.9561 0.1226 1.171 0.3884" stroke-width=".9982"/><path d="m26.2 17.5h9.65e-4c0.8221 0 1.468 0.7711 1.468 1.702v1.101c0 0.9514-0.6655 1.702-1.468 1.702h-9.65e-4c-0.8221 0-1.468-0.7711-1.468-1.702v-1.101c0-0.9514 0.6655-1.702 1.468-1.702z" stroke-width=".9903"/><path d="m24.26 29h9.43e-4c0.8352 0 1.474 0.7613 1.474 1.703v1.102c0 0.9517-0.6682 1.703-1.474 1.703h-9.43e-4c-0.8352 0-1.474-0.7613-1.474-1.703v-1.102c0-0.9517 0.6682-1.703 1.474-1.703z" stroke-width=".9921"/><g transform="matrix(.9776 0 0 1.001 .2081 -.02232)" stroke-width=".9922"><path d="m32.44 22.01v-2.745c0-0.9314-0.6828-1.667-1.506-1.667-0.8434 0-1.506 0.7549-1.506 1.667"/><path d="m29.43 22.01v-4.51"/><path d="m36.78 20.24c0 0.9314-0.6828 1.667-1.506 1.667-0.8434 0-1.506-0.7549-1.506-1.667v-1.078c0-0.9314 0.6828-1.667 1.506-1.667 0.8434 0 1.506 0.7549 1.506 1.667"/><path d="m36.78 22.01v-4.51"/></g><path d="m26.57 19.73-0.6754 0.4406v-0.8712z" stroke-width=".9903"/><path d="m16.98 33.51v-5.788c0-0.6702 0.4708-1.219 1.079-1.219 0.5198 0 0.8435 0.1828 1.079 0.5077" stroke-width=".998"/><path d="m16 28.83h2.158" stroke-width=".998"/><path d="m32 29-1.179 4.508-1.277-4.508-1.179 4.508-1.277-4.508" stroke-width=".9921"/><path d="m20.5 26.5v6.128c0 0.48 0.3319 0.8783 0.7517 0.8783h0.2245" stroke-width=".9985"/></g><path d="m40.5 5.5h-33c-1.1 0-2 0.9-2 2v33c0 1.1 0.9 2 2 2h33c1.1 0 2-0.9 2-2v-33c0-1.1-0.9-2-2-2z"/><path d="m37.55 14.99v6.135c0 0.4805 0.3245 0.8793 0.7348 0.8793h0.2195" stroke-linecap="round" stroke-linejoin="round" stroke-width=".9878"/></g></svg>