<?xml version="1.0" encoding="UTF-8"?><svg id="a" xmlns="http://www.w3.org/2000/svg" viewBox="0 0 48 48"><defs><style>.d{fill:none;stroke:#fff;stroke-linecap:round;stroke-linejoin:round;}</style></defs><path class="d" d="m24 2.5a10.75 21.5 0 00-9.5946 11.905 21.5 10.75 0 00-11.905 9.5946 21.5 10.75 0 0011.905 9.5946 10.75 21.5 0 009.5946 11.905 10.75 21.5 0 009.5946-11.905 21.5 10.75 0 0011.905-9.5946 21.5 10.75 0 00-11.887-9.6128 10.75 21.5 0 00-9.6128-11.887z"/><path class="d" d="m14.408 33.597c2.9755.75093 6.2594 1.1457 9.5924 1.1531 3.3341-.0079 6.6189-.40347 9.5946-1.1554.75188-2.9758 1.1474-6.2605 1.1554-9.5946-.000888-3.3374-.39023-6.6285-1.1372-9.6128"/></svg>
