<?xml version="1.0" encoding="UTF-8"?><svg id="a" xmlns="http://www.w3.org/2000/svg" viewBox="0 0 48 48"><defs><style>.d{fill:none;stroke:#fff;stroke-linecap:round;stroke-linejoin:round;}</style></defs><path class="d" d="m23 13.518-7.5781 4.375a2.0002 2.0002 0 0 0-1 1.7324v8.75a2.0002 2.0002 0 0 0 1 1.7324l7.5781 4.375a2.0002 2.0002 0 0 0 2 0l7.5781-4.375a2.0002 2.0002 0 0 0 1-1.7324v-8.75a2.0002 2.0002 0 0 0-1-1.7324l-7.5781-4.375a2.0002 2.0002 0 0 0-2 0z"/><path class="d" d="m23 2.7676-16.887 9.75a2.0002 2.0002 0 0 0-1 1.7324v19.5a2.0002 2.0002 0 0 0 1 1.7324l16.887 9.75a2.0002 2.0002 0 0 0 2 0l16.887-9.75a2.0002 2.0002 0 0 0 1-1.7324v-19.5a2.0002 2.0002 0 0 0-1-1.7324l-16.887-9.75a2.0002 2.0002 0 0 0-2 0z"/><path class="d" d="m14.422 19.78-9.3086 5.3746"/><path class="d" d="m33.578 28.22 9.3086-5.3746"/></svg>
