<?xml version="1.0" encoding="UTF-8"?>
<!-- Created with Inkscape (http://www.inkscape.org/) -->
<svg version="1.1" viewBox="0 0 48 48" xml:space="preserve" xmlns="http://www.w3.org/2000/svg"><defs><style>
      .cls-1 {
        fill: none;
        stroke: #fff;
        stroke-linecap: round;
        stroke-linejoin: round;
      }
    </style></defs><rect class="cls-1" x="4.5" y="8.5" width="39" height="31" rx="4" ry="4"/><g transform="translate(-220.06 60.078)">
		<g id="b">
	<g transform="matrix(.6928 0 0 .6928 121.01 -23.252)" stroke-width="1.4434"><g transform="translate(2.775 -63.164)">
		<polyline class="st5" points="164 40.65 164 48.65 168 48.65" stroke-width="1.4434"/>
	</g><g transform="translate(28.05 -63.164)">
		<line class="st5" x1="136" x2="136" y1="40.65" y2="48.65" stroke-width="1.4434"/>
	</g><polyline class="st5" transform="translate(-18.675 -63.164)" points="172 48.641 172 40.65 176 48.65 180 40.662 180 48.65"/><g transform="translate(-42.825 -63.164)">
		<g stroke-width="1.4434">
			<path class="st5" d="m223.35 48.65v-8h2.619c1.4806 0 2.681 1.2029 2.681 2.6867 0 1.4838-1.2003 2.6867-2.681 2.6867h-2.619"/>
		
		
			
				<line class="st5" x1="225.97" x2="228.59" y1="46.024" y2="48.648" stroke-width="1.4434"/>
			
		</g>
	</g><g transform="translate(13.204 -63.164)">
		<polyline class="st5" points="183.37 48.65 183.37 40.65 188.67 48.65 188.67 40.65" stroke-width="1.4434"/>
	</g><g transform="translate(19.65 -63.164)">
		<line class="st5" x1="153.85" x2="153.85" y1="40.65" y2="48.65"/>
		<polyline class="st5" points="158.15 48.65 154.86 44.65 158.15 40.677"/>
		<line class="st5" x1="154.86" x2="153.85" y1="44.65" y2="44.65"/>
	</g><path class="st5" d="m188.55-22.514v5.35c0 1.4636 1.1864 2.65 2.65 2.65s2.65-1.1864 2.65-2.65v-5.35"/></g>
	
</g></g><style type="text/css">
	.st0{display:none;}
	.st1{display:inline;}
	.st5{fill:none;stroke:#FFFFFF;stroke-linecap:round;stroke-linejoin:round;stroke-miterlimit:10;}
	.st6{fill:#FFFFFF;}
</style></svg>
