<?xml version="1.0" encoding="UTF-8"?><svg id="a" xmlns="http://www.w3.org/2000/svg" viewBox="0 0 48 48"><defs><style>.d{fill:none;stroke:#fff;stroke-linecap:round;stroke-linejoin:round;}</style></defs><path class="d" d="m43.312 32.167c0 1.8457-.98468 3.5513-2.5831 4.4741l-14.145 8.1669c-1.5984.92286-3.5678.92286-5.1663 0l-14.145-8.1669c-1.5984-.92287-2.5831-2.6284-2.5831-4.4741l4e-7-16.334c1e-7-1.8457.98469-3.5513 2.5831-4.4741l14.145-8.1669c1.5984-.92287 3.5678-.92287 5.1663 2e-7l14.145 8.1669c1.5984.92287 2.5831 2.6284 2.5831 4.4741v5.4446l-4.9158 2.8381c-.79922.46143-1.2916 1.3142-1.2916 2.2371v2.4618c0 .66283.71754 1.0771 1.2916.74569l4.9158-2.8381z"/><path class="d" d="m9.8546 9.8676c-2.2961 1.3257-2.2961 4.6398 0 5.9655l11.562 6.6755c1.5984.92286 2.5831 2.6284 2.5831 4.4741l-1e-6 13.351c0 2.6513 2.8702 4.3084 5.1663 2.9827"/><path class="d" d="m42.277 25.505-3.1037 1.7919"/><path class="d" d="m42.277 23.69-3.1037 1.7919"/></svg>
