<?xml version="1.0" encoding="UTF-8"?><svg id="a" xmlns="http://www.w3.org/2000/svg" viewBox="0 0 48 48"><defs><style>.b{fill:none;stroke:#fff;stroke-linecap:round;stroke-linejoin:round;}</style></defs><path class="b" d="M11.4048,5.35l3.5,5.2M35.6048,5.35l-3.2,4.8M5.6048,23.25c.9,1.9,1.6,3.5,3.4,3.5,3.4,0,3.4-7.1,6.9-7.1s3.4,7.1,6.9,7.1,3.4-7.1,6.9-7.1,3.4,7.1,6.9,7.1,3.2-4,4.8-6"/><path class="b" d="M20.0048,42.55h-5.4s-.4-5.3-5-7.4c-3.8-1.7-5.2-11.6-3.2-15.4,1.7-3.2,5.9-10.4,17.3-10.4,14.8,0,18.8,9.3,18.8,14s-3.2,5.9-3.2,5.9c0,0-2.6,1.8-5.9-.3,0,0-3.2,2.7-7.3.2,0,0-5.9,2.3-5.9,6.2v7.3h0l-.2-.1Z"/></svg>