<?xml version="1.0" encoding="UTF-8"?><svg id="b" xmlns="http://www.w3.org/2000/svg" viewBox="0 0 48 48"><defs><style>.f{fill:none;stroke:#fff;stroke-linecap:round;stroke-linejoin:round;}</style></defs><polygon class="f" points="26.64287935 21.35714286 24.00002221 21.35714286 24.00002221 24 21.35716507 24 21.35716507 26.64285714 18.71430793 26.64285714 18.71430793 29.28571429 16.07145078 29.28571429 16.07145078 31.92857143 13.42859364 31.92857143 13.42859364 34.57142857 10.7857365 34.57142857 10.7857365 37.21428571 8.14287935 37.21428571 8.14287935 39.85714286 8.14287935 42.5 10.7857365 42.5 13.42859364 42.5 13.42859364 39.85714286 16.07145078 39.85714286 16.07145078 37.21428571 18.71430793 37.21428571 18.71430793 34.57142857 21.35716507 34.57142857 21.35716507 31.92857143 24.00002221 31.92857143 24.00002221 29.28571429 26.64287935 29.28571429 26.64287935 26.64285714 29.2857365 26.64285714 29.2857365 24 29.2857365 21.35714286 26.64287935 21.35714286"/><rect class="f" x="34.57145078" y="13.42857143" width="2.64285714" height="2.64285714"/><polygon class="f" points="37.2142635 18.71428571 37.2142635 16.07142857 34.57140636 16.07142857 34.57140636 13.42857143 34.57140636 10.78571429 34.57140636 8.14285714 31.92854922 8.14285714 31.92854922 5.5 29.28569207 5.5 26.64283493 5.5 26.64283493 8.14285714 23.99997779 8.14285714 23.99997779 10.78571429 21.35712065 10.78571429 21.35712065 13.42857143 18.7142635 13.42857143 18.7142635 16.07142857 18.7142635 18.71428571 21.35712065 18.71428571 21.35712065 21.35714286 23.99997779 21.35714286 26.64283493 21.35714286 29.28569207 21.35714286 29.28569207 24 31.92854922 24 31.92854922 26.64285714 34.57140636 26.64285714 37.2142635 26.64285714 37.2142635 24 39.85712065 24 39.85712065 21.35714286 39.85712065 18.71428571 37.2142635 18.71428571"/></svg>