<?xml version="1.0" encoding="UTF-8"?><svg version="1.1" viewBox="0 0 48 48" xmlns="http://www.w3.org/2000/svg"><defs><style>.a{fill:none;stroke:#fff;stroke-linecap:round;stroke-linejoin:round;}</style></defs><path class="a" d="m5.3805 13.25v21.5"/><path class="a" d="m42.62 13.25v19.592"/><path class="a" d="m28.655 5.1875v37.625"/><path class="a" d="m33.31 7.875v25.885"/><path class="a" d="m37.965 10.562v20.92"/><path class="a" d="m19.345 5.1875v37.625"/><path class="a" d="m14.69 7.875v32.25"/><path class="a" d="m10.035 10.562v26.875"/><path class="a" d="m19.345 5.1875 4.6549 2.6875 4.6549-2.6875"/><path class="a" d="m19.345 10.137 4.6549 2.6875 4.6549-2.6875"/><path class="a" d="m19.345 15.086 4.6549 2.6875 4.6549-2.6875"/><path class="a" d="m19.345 20.035 4.6549 2.6875 4.6549-2.6875"/><circle class="a" cx="38.5" cy="38.5" r="7"/><line class="a" x1="36.654" x2="36.654" y1="34.492" y2="42.508"/><polyline class="a" points="40.346 42.508 40.346 40.455 38.273 38.5 40.346 36.545 40.346 34.492"/></svg>
