<?xml version="1.0" encoding="UTF-8"?><svg id="a" xmlns="http://www.w3.org/2000/svg" viewBox="0 0 48 48"><defs><style>.c{fill:none;stroke:#fff;stroke-linecap:round;stroke-linejoin:round;}</style></defs><path id="b" class="c" d="M11.6588,38.0401c-.341,0-.652-.128-.886-.339M10.3358,35.8862v-.972M10.3358,32.2143v-.21M10.3358,27.1514v-.97M10.3358,24.2395v-.97M10.3358,21.3296v-.97M10.3358,15.5037v-.97M10.3358,9.6799v-.339c0-.22.053-.427.147-.609M12.1518,8.0179h.97M15.0637,8.0179h.97M17.9757,8.0179h.972M20.8886,8.0179h.97M23.8005,8.0179h.97M26.7114,8.0179h.97M29.6223,8.0179h.97M32.5253,8.1519c.32.07.629.166.926.287M35.0912,9.4589c.242.214.466.45.668.702M36.6962,11.8508c.106.301.187.615.241.939M37.0172,14.7267v.971M37.0172,17.6387v.971M37.0172,20.5506v.971M37.0172,23.4625v.971M37.0172,26.3754v.97M37.0172,29.2864v.97M37.0172,32.1973v.107c0,.292-.021.58-.063.86M36.3502,35.0002c-.153.287-.329.56-.526.815M34.4032,37.1232c-.2719.176-.5582.3286-.856.456M31.6683,38.0271c-.1285.0086-.2572.0129-.386.013h-.584M28.7564,38.0401h-.97M25.8444,38.0401h-.97M22.9345,38.0401h-.972M20.0226,38.0401h-.97M17.1107,38.0401h-.97M14.1997,38.0401h-.971M22.5505,12.4508c-4.5819-.47-9.4318,3.3709-9.3588,6.4578.078,3.2699-.512,4.7829-.258,6.8658.395,3.2529,1.904,4.5699,3.1999,6.0828,1.321,1.543,2.8959,2.0429,4.3479,2.1909,1.607.165,3.1369-.03,4.4669-.376,5.0299.224,7.6868-1.21,9.2748-6.8038.34-2.5799-.025-3.6199.227-6.9498-.294-4.3099-4.1659-6.9798-6.6588-7.4828-1.606-.324-3.2919-.056-5.2399.015h-.001ZM20.2936,20.4316c0,.6169-.899,1.117-2.0079,1.117h0c-1.109,0-2.0079-.5001-2.0079-1.117h0c0-.6169.899-1.117,2.0079-1.117h0c1.109,0,2.0079.5001,2.0079,1.117h0ZM31.0213,20.4316c0,.6169-.899,1.117-2.0079,1.117h-.001c-1.109,0-2.0079-.5001-2.0079-1.117h0c0-.6169.899-1.117,2.0079-1.117h0c1.109-.0003,2.0084.4995,2.0089,1.1164v.0006ZM25.7645,19.7916c-.2268,1.1269-1.1183,1.927-2.1469,1.927-1.0284.0002-1.9198-.7995-2.1469-1.926M27.5004,16.2757c-.488.286-.982.572-1.291.97-.192.246-.173.449,0,.685.297.406.803.683,1.291.97M21.4606,17.5077c0,.7047-.5122,1.276-1.144,1.276h-.001c-.6318,0-1.144-.5713-1.144-1.276h0c.0005-.7043.5125-1.275,1.144-1.275.6318-.0006,1.1444.5702,1.145,1.2749h0ZM38.3901,22.3335h5.1099l-1.506,2.6569,1.506,2.6559h-5.1099M38.3901,13.2278h5.1099l-1.506,2.6559,1.506,2.6569h-5.1099M37.3742,9.4409c1.3626.8649,2.341,2.2202,2.7329,3.7859M40.2951,18.5396v3.7959M40.2951,27.6464v7.5238c.0083,3.4765-2.8033,6.3015-6.2798,6.3098-.01,0-.02,0-.03,0H12.3958c-.806,0-1.455-.65-1.455-1.456v-.486M6.4409,31.9033h2.7399c1.076,0,1.942.711,1.942,1.594s-.866,1.594-1.941,1.594h-2.7399c-1.076,0-1.942-.71-1.942-1.594,0-.883.866-1.594,1.9409-1.594ZM6.4409,27.3134h2.7399c1.076,0,1.942.71,1.942,1.593,0,.884-.866,1.595-1.941,1.595h-2.7399c-1.076,0-1.942-.711-1.942-1.595,0-.883.866-1.594,1.941-1.594v.001ZM6.4409,15.5567h2.7399c1.076,0,1.942.711,1.942,1.594,0,.884-.866,1.595-1.941,1.595h-2.7399c-1.076,0-1.942-.711-1.942-1.595,0-.883.866-1.594,1.9409-1.594ZM6.4409,10.9668h2.7399c1.076,0,1.942.71,1.942,1.594,0,.883-.866,1.594-1.941,1.594h-2.7399c-1.076,0-1.942-.711-1.942-1.594s.866-1.594,1.9409-1.594ZM8.9979,31.9043v-1.403M8.9979,27.3134v-8.5688M8.9979,15.5577v-1.402M8.9979,10.9658v-2.9899c0-.807.65-1.456,1.456-1.456h21.5894c3.4765-.0083,6.3015,2.8033,6.3098,6.2798,0,.0097,0,.0194,0,.029v20.4005c.0077,3.4765-2.8043,6.3011-6.2808,6.3088-.0097,0-.0194,0-.029,0H10.4538c-.806,0-1.456-.65-1.456-1.456v-2.9909"/></svg>