<svg xmlns="http://www.w3.org/2000/svg" xml:space="preserve" id="svg1" version="1.1" viewBox="0 0 48 48"><defs id="defs1"><style id="style1">.a{fill:none;stroke:#fff;stroke-linecap:round;stroke-linejoin:round}</style></defs><path id="path32" d="M11.658 38.041c-.341 0-.652-.128-.886-.339m-.437-1.815v-.972m0-2.7v-.21m0-4.853v-.97m0-1.942v-.97m0-1.94v-.97m0-4.856v-.97m0-4.854v-.339c0-.22.053-.427.147-.609m1.669-.714h.97m1.942 0h.97m1.942 0h.972m1.941 0h.97m1.942 0h.97m1.941 0h.97m1.941 0h.97m1.933.134c.32.07.629.166.926.287m1.64 1.02c.242.214.466.45.668.702m.937 1.69c.106.301.187.615.241.939m.08 1.937v.971m0 1.941v.971m0 1.941v.971m0 1.941v.971m0 1.942v.97m0 1.941v.97m0 1.941v.107c0 .292-.021.58-.063.86m-.604 1.836c-.153.287-.329.56-.526.815m-1.421 1.308a5.7 5.7 0 0 1-.856.456m-1.879.448a5.873 5.873 0 0 1-.386.013h-.584m-1.942 0h-.97m-1.942 0h-.97m-1.94 0h-.972m-1.94 0h-.97m-1.942 0h-.97m-1.941 0h-.971m9.322-25.59c-4.582-.47-9.432 3.371-9.359 6.458.078 3.27-.512 4.783-.258 6.866.395 3.253 1.904 4.57 3.2 6.083 1.321 1.543 2.896 2.043 4.348 2.191 1.607.165 3.137-.03 4.467-.376 5.03.224 7.687-1.21 9.275-6.804.34-2.58-.025-3.62.227-6.95-.294-4.31-4.166-6.98-6.659-7.483-1.606-.324-3.292-.056-5.24.015zm-2.257 7.981a2.008 1.117 0 0 1-2.008 1.117 2.008 1.117 0 0 1-2.008-1.117 2.008 1.117 0 0 1 2.008-1.117 2.008 1.117 0 0 1 2.008 1.117zm10.728 0a2.008 1.117 0 0 1-2.009 1.117 2.008 1.117 0 0 1-2.008-1.117 2.008 1.117 0 0 1 2.008-1.117 2.008 1.117 0 0 1 2.009 1.117zm-5.257-.64a2.201 2.472 0 0 1-2.147 1.927 2.201 2.472 0 0 1-2.147-1.926m6.03-3.517c-.488.286-.982.572-1.291.97-.192.246-.173.449 0 .685.297.406.803.683 1.291.97m-6.04-1.393a1.144 1.276 0 0 1-1.145 1.276 1.144 1.276 0 0 1-1.144-1.276 1.144 1.276 0 0 1 1.144-1.275 1.144 1.276 0 0 1 1.145 1.275zm16.93 4.826h5.11l-1.506 2.657 1.506 2.656h-5.11m0-14.419h5.11l-1.506 2.656 1.506 2.657h-5.11m-1.016-9.1a6.295 6.295 0 0 1 2.733 3.786m.188 5.313v3.796m0 5.311v7.524a6.295 6.295 0 0 1-6.31 6.31h-21.59v0c-.806 0-1.455-.65-1.455-1.456v-.486m-4.5-7.635h2.74c1.076 0 1.942.711 1.942 1.594 0 .883-.866 1.594-1.941 1.594h-2.74c-1.076 0-1.942-.71-1.942-1.594 0-.883.866-1.594 1.941-1.594zm0-4.59h2.74c1.076 0 1.942.71 1.942 1.593 0 .884-.866 1.595-1.941 1.595h-2.74c-1.076 0-1.942-.711-1.942-1.595 0-.883.866-1.594 1.941-1.594zm0-11.757h2.74c1.076 0 1.942.711 1.942 1.594 0 .884-.866 1.595-1.941 1.595h-2.74c-1.076 0-1.942-.711-1.942-1.595 0-.883.866-1.594 1.941-1.594zm0-4.59h2.74c1.076 0 1.942.71 1.942 1.594 0 .883-.866 1.594-1.941 1.594h-2.74c-1.076 0-1.942-.711-1.942-1.594 0-.883.866-1.594 1.941-1.594zm2.557 20.938v-1.403m0-3.188v-8.569m0-3.187v-1.402m0-3.19v-2.99c0-.807.65-1.456 1.456-1.456h21.59a6.295 6.295 0 0 1 6.31 6.309V33.23a6.295 6.295 0 0 1-6.31 6.309h-21.59v0c-.806 0-1.456-.65-1.456-1.456v-2.991" style="fill:none;stroke:#fff;stroke-width:1;stroke-linecap:round;stroke-linejoin:round;stroke-dashoffset:0;stroke-opacity:1"/></svg>