<?xml version="1.0" encoding="UTF-8" standalone="no"?>
<svg
   viewBox="0 0 48 48"
   version="1.1"
   id="svg1"
   sodipodi:docname="miyoushe.svg"
   inkscape:version="1.2.2 (b0a8486541, 2022-12-01)"
   xml:space="preserve"
   xmlns:inkscape="http://www.inkscape.org/namespaces/inkscape"
   xmlns:sodipodi="http://sodipodi.sourceforge.net/DTD/sodipodi-0.dtd"
   xmlns="http://www.w3.org/2000/svg"
   xmlns:svg="http://www.w3.org/2000/svg"><sodipodi:namedview
     id="namedview1"
     pagecolor="#505050"
     bordercolor="#eeeeee"
     borderopacity="1"
     inkscape:showpageshadow="0"
     inkscape:pageopacity="0"
     inkscape:pagecheckerboard="0"
     inkscape:deskcolor="#505050"
     inkscape:zoom="12.59534"
     inkscape:cx="2.6994111"
     inkscape:cy="24.532884"
     inkscape:window-width="1918"
     inkscape:window-height="1053"
     inkscape:window-x="0"
     inkscape:window-y="0"
     inkscape:window-maximized="1"
     inkscape:current-layer="svg1"
     showgrid="false"
     showguides="false" /><defs
     id="defs1"><style
       id="style1">.a { fill:none;stroke:#fff;stroke-linecap:round;stroke-linejoin:round; }
</style></defs><path
     style="fill:none;stroke:#ffffff;stroke-linecap:round;stroke-linejoin:round;stroke-dashoffset:3.6;stroke-opacity:1"
     d="m 9.5,5.5 h 29 c 2.216,0 4,1.784 4,4 v 29 c 0,2.216 -1.784,4 -4,4 h -29 c -2.216,0 -4,-1.784 -4,-4 v -29 c 0,-2.216 1.784,-4 4,-4 z"
     id="path1788" /><g
     id="g1813"><path
       style="fill:none;stroke:#ffffff;stroke-linecap:round;stroke-linejoin:round;stroke-dashoffset:3.6;stroke-opacity:1"
       d="m 21.813205,35.1075 c 0.296554,1.161292 0.678734,1.895673 1.018101,2.540422"
       id="path1786" /><path
       style="fill:none;stroke:#ffffff;stroke-linecap:round;stroke-linejoin:round;stroke-dashoffset:3.6;stroke-opacity:1"
       d="m 32.102528,30.399389 c 0.338385,0.780545 0.627798,1.737971 1.109367,2.501914"
       id="path1784" /><path
       style="fill:none;stroke:#ffffff;stroke-linecap:round;stroke-linejoin:round;stroke-dashoffset:3.6;stroke-opacity:1"
       d="m 16.442869,42.477539 c -1.72055,-6.015728 -1.978786,-8.544568 0.504,-11.145237 5.435901,-5.694001 12.510796,-6.932911 16.14914,-7.248973 3.288488,-0.28567 4.499761,0.494461 6.223729,3.650308 1.090368,1.995996 2.13801,3.739516 3.180704,5.453811"
       id="path1782" /></g><g
     id="g1808"><path
       style="fill:none;stroke:#ffffff;stroke-linecap:round;stroke-linejoin:round;stroke-dashoffset:3.6;stroke-opacity:1"
       d="m 18.0364,26.563185 -2.911681,2.126119 c -1.531639,1.118408 -1.968741,-0.07116 -2.221139,-0.782527 -0.747199,-2.10592 -0.839749,-6.786024 -0.342723,-9.882409 0.158289,-0.986117 0.933817,-1.89287 1.794643,-2.39929 0.842723,-0.49577 1.53106,-0.762681 2.296589,-1.142911 1.042862,-0.517978 1.579757,0.207064 1.51154,1.056758 -0.233141,2.90395 -0.117775,5.757917 0.276321,8.615356 0.216893,1.572606 0.408285,1.816099 -0.40355,2.408904 z"
       id="path1780" /><path
       style="fill:none;stroke:#ffffff;stroke-linecap:round;stroke-linejoin:round;stroke-dashoffset:3.6;stroke-opacity:1"
       d="m 15.495493,21.725829 c -0.05123,2.029668 0.06628,4.234554 0.641059,6.225679"
       id="path1776" /></g><g
     id="g1804"><path
       style="fill:none;stroke:#ffffff;stroke-linecap:round;stroke-linejoin:round;stroke-dashoffset:3.6;stroke-opacity:1"
       d="m 33.207983,21.095084 -2.911681,0.960667 c -1.667987,0.550329 -2.140568,0.151679 -2.392966,-0.905032 -0.546843,-2.289458 -0.766362,-6.557405 -0.230442,-9.563169 0.238493,-1.337612 0.993363,-1.930893 1.854189,-2.4452381 0.784473,-0.4687243 1.53106,-0.700585 2.296589,-0.9515215 1.042862,-0.3418445 1.722892,0.2072292 1.651891,1.4804696 -0.172686,3.096724 -0.08971,5.578946 0.304391,8.662024 0.205889,1.610683 0.312135,2.470102 -0.571971,2.7618 z"
       id="path1778" /><path
       style="fill:none;stroke:#ffffff;stroke-linecap:round;stroke-linejoin:round;stroke-dashoffset:3.6;stroke-opacity:1"
       d="m 30.586297,15.694339 c 0.05623,2.439743 0.17255,3.839136 0.597034,6.06953"
       id="path1750" /></g></svg>
