<?xml version="1.0" encoding="UTF-8"?><svg id="a" xmlns="http://www.w3.org/2000/svg" viewBox="0 0 48 48"><defs><style>.d{fill:none;stroke:#fff;stroke-linecap:round;stroke-linejoin:round;}</style></defs><rect class="d" x="5.5" y="5.5" width="37" height="37" rx="4" ry="4"/><path class="d" d="m14.072 28.645a21.5 4 0 0 1 25.13 0.71962"/><line class="d" x1="17.969" x2="17.969" y1="19.377" y2="25.1"/><path class="d" d="m9.7563 25.093v-6.4575l3.3427 6.4646 3.3427-6.4547v6.4547"/><path class="d" d="m19.495 19.377h3.9236l-3.9236 5.7235h3.9236"/><line class="d" x1="28.87" x2="28.87" y1="19.377" y2="25.1"/><line class="d" x1="32.793" x2="32.793" y1="19.377" y2="25.1"/><line class="d" x1="28.87" x2="32.793" y1="22.228" y2="22.228"/><path class="d" d="m24.946 19.377v3.8276c0 1.0471 0.8783 1.8959 1.9618 1.8959l1.9618 2e-6"/><rect class="d" x="34.32" y="19.377" width="3.9236" height="5.7235" rx="1.9618" ry="1.8959"/></svg>
