<svg version="1.1" viewBox="0 0 48 48" xml:space="preserve" xmlns="http://www.w3.org/2000/svg"><defs><style>.a{fill:none;stroke:#fff;stroke-linecap:round;stroke-linejoin:round;}</style></defs><g fill="none" stroke="#fff" stroke-linecap="round" stroke-linejoin="round"><line class="t" x1="16.322" x2="31.678" y1="17.502" y2="17.502"/><line class="t" x1="24" x2="24" y1="34.717" y2="17.502" stroke-width=".86178"/><path d="m40.887 35.75-15.155 8.75a3.4641 3.4641 2.522e-7 0 1-3.4641 0l-15.155-8.75a3.4641 3.4641 60 0 1-1.7321-3l1e-7 -17.5a3.4641 3.4641 120 0 1 1.7321-3l15.155-8.75a3.4641 3.4641 2.522e-7 0 1 3.4641 0l15.155 8.75a3.4641 3.4641 60 0 1 1.7321 3v17.5a3.4641 3.4641 120 0 1-1.7321 3z" stroke-miterlimit="51"/></g></svg>
