<svg version="1.1" viewBox="0 0 48 48" xmlns="http://www.w3.org/2000/svg"><defs><style>.a{fill:none;stroke:#fff;stroke-linecap:round;stroke-linejoin:round;}</style></defs><g fill="none" stroke="#fff" stroke-linecap="round" stroke-linejoin="round"><path d="m36.856 32.969v-6.1298h-4.7772v7.7312h3.3541" stop-color="#000000" style="paint-order:markers stroke fill"/><path d="m30.639 32.534a14.017 14.017 0 0 1-17.757 3.8129 14.017 14.017 0 0 1-6.6159-16.914 14.017 14.017 0 0 1 15.631-9.247 14.017 14.017 0 0 1 11.638 13.943" stop-color="#000000" style="paint-order:markers stroke fill"/><circle cx="11.361" cy="24.221" r="2.2" stop-color="#000000" style="paint-order:markers stroke fill"/><circle cx="27.286" cy="22.612" r="2.2" stop-color="#000000" style="paint-order:markers stroke fill"/><ellipse transform="matrix(.99745 -.071406 .072568 .99736 0 0)" cx="17.669" cy="27.566" rx="4.2" ry="2.9334" stop-color="#000000" style="paint-order:markers stroke fill"/><path d="m17.116 26.432c1.0131 0.75176 4.7021 0.29328 5.218-0.37841" stop-color="#000000" style="paint-order:markers stroke fill"/><path d="m30.687 24.154h7.593v8.9839c-2.3586-0.5924-3.3496 0.50584-2.7416 1.615 0.48557 0.88587 1.3989 0.95794 2.6528 2.5162h-7.5041z" stop-color="#000000" style="paint-order:markers stroke fill"/><path d="m38.28 33.138c2.1392 0.57758 3.7107 2.1716 4.1276 3.6841 0.49826 1.8079-1.0553 2.5683-1.7297 2.4822-1.8198-0.23251-1.7033-1.1078-2.4867-2.0351" stop-color="#000000" style="paint-order:markers stroke fill"/><g stroke-width=".5"><circle cx="33.048" cy="35.886" r=".25" stop-color="#000000" style="paint-order:markers stroke fill"/><circle cx="34.381" cy="35.886" r=".25" stop-color="#000000" style="paint-order:markers stroke fill"/><circle cx="35.723" cy="35.886" r=".25" stop-color="#000000" style="paint-order:markers stroke fill"/></g><path d="m36.856 29.6-4.7772 2.4105" stop-color="#000000" style="paint-order:markers stroke fill"/></g></svg>
