<?xml version="1.0" encoding="UTF-8"?><svg id="a" xmlns="http://www.w3.org/2000/svg" viewBox="0 0 48 48"><defs><style>.k{fill:none;stroke:#fff;stroke-linecap:round;stroke-linejoin:round;}</style></defs><path id="b" class="k" d="M41.4122,25.1403v13.1626"/><path id="c" class="k" d="M41.4323,25.1403l1.0677-.6554-.4662-11.4464-1.2432-3.3415-.3497,14.7879.9914.6554Z"/><path id="d" class="k" d="M12.203,15.3918c0,3.2772-1.5005,4.3954-3.3515,4.3954s-3.3515-1.1183-3.3515-4.3954,1.5005-5.6042,3.3515-5.6042,3.3515,2.327,3.3515,5.6042Z"/><path id="e" class="k" d="M8.8515,19.7872v18.5157"/><path id="f" class="k" d="M26.1035,38.3029v-14.9032"/><path id="g" class="k" d="M24.0157,10.0623v8.8183"/><path id="h" class="k" d="M26.1035,11.4359v7.4447"/><path id="i" class="k" d="M28.1914,13.1666v5.714"/><path id="j" class="k" d="M24.0169,18.8804c0,2.857.3963,4.5188,2.0858,4.5188,1.6857,0,2.0864-1.654,2.0882-4.4994-.0176.3357-.48.6024-1.0441.6022-.5765,0-1.044-.2782-1.0441-.6215h0c0,.3432-.4674.6215-1.0439.6215h-.0002c-.5757-.0007-1.0417-.2788-1.0417-.6216Z"/></svg>