<?xml version="1.0" encoding="UTF-8"?><svg id="a" xmlns="http://www.w3.org/2000/svg" viewBox="0 0 48 48"><defs><style>.b{fill:none;stroke:#fff;stroke-linecap:round;stroke-linejoin:round;}</style></defs><path class="b" d="M37.5471,32.7716v-6.4602h-5.0347v8.1479h3.5349"/><path class="b" d="M30.995,32.3132c-4.4094,5.7461-12.3345,7.4479-18.7142,4.0184-6.3799-3.4291-9.3326-10.978-6.9725-17.8257,2.3597-6.8476,9.3358-10.9746,16.4736-9.7454,7.138,1.229,12.3321,7.4519,12.2653,14.6946"/><circle class="b" cx="10.6778" cy="23.5521" r="2.3186"/><circle class="b" cx="27.4613" cy="21.8563" r="2.3186"/><ellipse class="b" cx="19.3866" cy="25.671" rx="4.4264" ry="3.0915" transform="translate(-1.7567 1.4264) rotate(-4.0311)"/><path class="b" d="M16.7431,25.8822c1.0677.7923,4.9556.3091,5.4993-.3988"/><path class="b" d="M31.0456,23.4814h8.0023v9.4682c-2.4857-.6243-3.5302.5331-2.8894,1.7021.5117.9336,1.4743,1.0096,2.7958,2.6518h-7.9086v-13.822Z"/><path class="b" d="M39.0479,32.9497c2.2545.6087,3.9107,2.2887,4.3501,3.8827.5251,1.9054-1.1122,2.7067-1.8229,2.616-1.9179-.245-1.7951-1.1675-2.6207-2.1448"/><path class="b" d="M37.5471,29.221l-5.0347,2.5404"/></svg>