<svg xmlns="http://www.w3.org/2000/svg" width="48" height="48"><path d="M172 48.6v-7.9l4 8 4-8v8" class="cls-2" style="fill:none;stroke:#fff;stroke-linecap:round;stroke-linejoin:round;stroke-opacity:1;fill-opacity:1" transform="matrix(.63889 0 0 .63889 -104 -12.003)"/><path d="M183.4 48.7v-8l5.3 8v-8" class="cls-2" style="fill:none;stroke:#fff;stroke-linecap:round;stroke-linejoin:round;stroke-opacity:1;fill-opacity:1" transform="matrix(.63889 0 0 .63889 -99.975 -12.003)"/><path d="M14.067 19.111v0a1.65 1.65 0 0 1-1.661-1.661v-1.725c0-.958.766-1.725 1.66-1.725v0c.959 0 1.726.767 1.726 1.725v1.661c0 .958-.767 1.725-1.725 1.725z" class="cls-2" style="fill:none;stroke:#fff;stroke-width:.638889;stroke-linecap:round;stroke-linejoin:round;stroke-opacity:1;fill-opacity:1"/><path d="M172 48.6v-7.9l4 8 4-8v8" class="cls-2" style="fill:none;stroke:#fff;stroke-width:1.00157;stroke-linecap:round;stroke-linejoin:round;stroke-miterlimit:4;stroke-dasharray:none;stroke-opacity:1;fill-opacity:1" transform="matrix(.63878 0 0 .63878 -84.938 -5.448)"/><path d="M31 25.66v-5.11h1.66c.959 0 1.726.767 1.726 1.725 0 .958-.767 1.725-1.725 1.725H31" class="cls-2" style="fill:none;stroke:#fff;stroke-width:.63978;stroke-linecap:round;stroke-linejoin:round;stroke-miterlimit:4;stroke-dasharray:none;stroke-opacity:1;fill-opacity:1"/><g style="fill:none;stroke:#fff;stroke-width:1.00157;stroke-linecap:round;stroke-linejoin:round;stroke-miterlimit:4;stroke-dasharray:none;stroke-opacity:1;fill-opacity:1"><path d="M243.4 40.7h5.2M246 48.7v-8" class="cls-2" style="fill:none;stroke:#fff;stroke-width:1.00157;stroke-linecap:round;stroke-linejoin:round;stroke-miterlimit:4;stroke-dasharray:none;stroke-opacity:1;fill-opacity:1" transform="matrix(.63878 0 0 .63878 -120.135 -5.448)"/></g><path d="M19.63 23.936v0c0 .958-.767 1.725-1.725 1.725v0c-.958 0-1.725-.767-1.725-1.661v-1.725c0-.958.767-1.724 1.725-1.66v0c.958 0 1.66.766 1.66 1.66v0" class="cls-2" style="fill:none;stroke:#fff;stroke-width:.63978;stroke-linecap:round;stroke-linejoin:round;stroke-miterlimit:4;stroke-dasharray:none;stroke-opacity:1;fill-opacity:1"/><g style="fill:none;stroke:#fff;stroke-width:1.00157;stroke-linecap:round;stroke-linejoin:round;stroke-miterlimit:4;stroke-dasharray:none;stroke-opacity:1;fill-opacity:1"><path d="M93.5 44.7h2.7M97.5 48.7h-4v-8h4" class="cls-2" style="fill:none;stroke:#fff;stroke-width:1.00157;stroke-linecap:round;stroke-linejoin:round;stroke-miterlimit:4;stroke-dasharray:none;stroke-opacity:1;fill-opacity:1" transform="matrix(.63878 0 0 .63878 -20.102 -5.448)"/></g><path d="M22.249 25.66v0A1.65 1.65 0 0 1 20.588 24v-1.725c0-.958.766-1.724 1.66-1.724v0c.959 0 1.725.766 1.725 1.724v1.661c0 .958-.766 1.725-1.724 1.725z" class="cls-2" style="fill:none;stroke:#fff;stroke-width:.63978;stroke-linecap:round;stroke-linejoin:round;stroke-miterlimit:4;stroke-dasharray:none;stroke-opacity:1;fill-opacity:1"/><path d="M33.424 26.619v5.11" class="cls-2" style="fill:none;stroke:#fff;stroke-width:.639775;stroke-linecap:round;stroke-linejoin:round;stroke-miterlimit:4;stroke-dasharray:none;stroke-opacity:1;fill-opacity:1"/><path d="M172 48.6v-7.9l4 8 4-8v8" class="cls-2" style="fill:none;stroke:#fff;stroke-width:1.00157;stroke-linecap:round;stroke-linejoin:round;stroke-miterlimit:4;stroke-dasharray:none;stroke-opacity:1;fill-opacity:1" transform="matrix(.63878 0 0 .63878 -91.632 .62)"/><g style="fill:none;stroke:#fff;stroke-width:1.00157;stroke-linecap:round;stroke-linejoin:round;stroke-miterlimit:4;stroke-dasharray:none;stroke-opacity:1;fill-opacity:1"><path d="M223.4 48.7v-8h2.6c1.5 0 2.7 1.2 2.7 2.7 0 1.5-1.2 2.7-2.7 2.7h-2.6M226 46l2.6 2.6" class="cls-2" style="fill:none;stroke:#fff;stroke-width:1.00157;stroke-linecap:round;stroke-linejoin:round;stroke-miterlimit:4;stroke-dasharray:none;stroke-opacity:1;fill-opacity:1" transform="matrix(.63878 0 0 .63878 -128.953 .62)"/></g><g style="fill:none;stroke:#fff;stroke-width:1.00157;stroke-linecap:round;stroke-linejoin:round;stroke-miterlimit:4;stroke-dasharray:none;stroke-opacity:1;fill-opacity:1"><path d="M243.4 40.7h5.2M246 48.7v-8" class="cls-2" style="fill:none;stroke:#fff;stroke-width:1.00157;stroke-linecap:round;stroke-linejoin:round;stroke-miterlimit:4;stroke-dasharray:none;stroke-opacity:1;fill-opacity:1" transform="matrix(.63878 0 0 .63878 -126.478 .62)"/></g><path d="M183.4 48.7v-8l5.3 8v-8" class="cls-2" style="fill:none;stroke:#fff;stroke-width:1.00157;stroke-linecap:round;stroke-linejoin:round;stroke-miterlimit:4;stroke-dasharray:none;stroke-opacity:1;fill-opacity:1" transform="matrix(.63878 0 0 .63878 -78.138 .62)"/><g style="fill:none;stroke:#fff;stroke-width:1.00157;stroke-linecap:round;stroke-linejoin:round;stroke-miterlimit:4;stroke-dasharray:none;stroke-opacity:1;fill-opacity:1"><path d="M104 44.7h2.6M104 48.7v-8h4" class="cls-2" style="fill:none;stroke:#fff;stroke-width:1.00157;stroke-linecap:round;stroke-linejoin:round;stroke-miterlimit:4;stroke-dasharray:none;stroke-opacity:1;fill-opacity:1" transform="matrix(.63878 0 0 .63878 -60.827 .62)"/></g><path d="M10.923 31.73v0a1.65 1.65 0 0 1-1.66-1.662v-1.724c0-.958.766-1.725 1.66-1.725v0c.958 0 1.725.767 1.725 1.725v1.66c0 .959-.767 1.725-1.725 1.725zM36.187 31.73v0a1.65 1.65 0 0 1-1.661-1.662v-1.724c0-.958.766-1.725 1.66-1.725v0c.959 0 1.725.767 1.725 1.725v1.66c0 .959-.766 1.725-1.724 1.725z" class="cls-2" style="fill:none;stroke:#fff;stroke-width:.639775;stroke-linecap:round;stroke-linejoin:round;stroke-miterlimit:4;stroke-dasharray:none;stroke-opacity:1;fill-opacity:1"/><g style="fill:none;stroke:#fff;stroke-width:1.00157;stroke-linecap:round;stroke-linejoin:round;stroke-miterlimit:4;stroke-dasharray:none;stroke-opacity:1;fill-opacity:1"><path d="M57.8 46h-3.6M53.3 48.7l2.7-8 2.7 8" class="cls-2" style="fill:none;stroke:#fff;stroke-width:1.00157;stroke-linecap:round;stroke-linejoin:round;stroke-miterlimit:4;stroke-dasharray:none;stroke-opacity:1;fill-opacity:1" transform="matrix(.63878 0 0 .63878 -9.598 .62)"/></g></svg>