<?xml version="1.0" encoding="UTF-8" standalone="no"?>
<svg
   id="Layer_1"
   data-name="Layer 1"
   version="1.1"
   viewBox="0 0 48 48"
   sodipodi:docname="monarch_clean.svg"
   inkscape:version="1.1.2 (0a00cf5339, 2022-02-04)"
   xmlns:inkscape="http://www.inkscape.org/namespaces/inkscape"
   xmlns:sodipodi="http://sodipodi.sourceforge.net/DTD/sodipodi-0.dtd"
   xmlns="http://www.w3.org/2000/svg"
   xmlns:svg="http://www.w3.org/2000/svg">
  <sodipodi:namedview
     id="namedview57"
     pagecolor="#484848"
     bordercolor="#666666"
     borderopacity="1.0"
     inkscape:pageshadow="2"
     inkscape:pageopacity="1"
     inkscape:pagecheckerboard="true"
     showgrid="false"
     inkscape:zoom="35"
     inkscape:cx="16.457143"
     inkscape:cy="25.6"
     inkscape:window-width="2507"
     inkscape:window-height="1371"
     inkscape:window-x="0"
     inkscape:window-y="0"
     inkscape:window-maximized="1"
     inkscape:current-layer="layer3" />
  <defs
     id="defs52">
    <inkscape:path-effect
       effect="mirror_symmetry"
       start_point="23.301378,10.775964"
       end_point="23.301378,36.537785"
       center_point="23.301378,23.656875"
       id="path-effect932"
       is_visible="true"
       lpeversion="1.1"
       mode="vertical"
       discard_orig_path="false"
       fuse_paths="false"
       oposite_fuse="false"
       split_items="false"
       split_open="false" />
    <style
       id="style50">
      .cls-1 {
        fill: none;
        stroke: #fff;
        stroke-linecap: round;
        stroke-linejoin: round;
      }
    </style>
  </defs>
  <g
     inkscape:groupmode="layer"
     id="layer3"
     inkscape:label="design">
    <path
       style="fill:none;stroke:#ffffff;stroke-width:1px;stroke-linecap:round;stroke-linejoin:miter;stroke-opacity:1"
       d="M 22.13269,20.195423 C 19.598161,11.976769 14.919575,9.4309718 11.489222,12.312971 c -2.344548,1.84673 -2.2760137,4.812478 -0.57168,7.04005 1.207686,1.578451 3.491706,3.113793 5.322363,3.880519 1.508484,0.631791 4.452713,1.54936 5.374754,3.997247 0.803271,2.132572 0.507859,4.946229 -0.324066,6.410823 -1.279238,2.252085 -3.209367,3.689225 -5.398504,2.561343 -2.063081,-1.062937 -2.185335,-4.389201 -0.95785,-6.32343 1.020128,-1.607483 3.25328,-4.901697 9.143702,-4.865006 m 1.789369,-4.819094 c 2.534529,-8.218654 7.213115,-10.7644512 10.643468,-7.882452 2.344548,1.84673 2.276014,4.812478 0.57168,7.04005 -1.207686,1.578451 -3.491706,3.113793 -5.322363,3.880519 -1.508484,0.631791 -4.452713,1.54936 -5.374754,3.997247 -0.803271,2.132572 -0.507859,4.946229 0.324066,6.410823 1.279238,2.252085 3.209367,3.689225 5.398504,2.561343 2.063081,-1.062937 2.185335,-4.389201 0.95785,-6.32343 -1.020128,-1.607483 -3.25328,-4.901697 -9.143702,-4.865006"
       id="path930"
       inkscape:path-effect="#path-effect932"
       inkscape:original-d="M 22.13269,20.195423 C 19.598161,11.976769 14.919575,9.4309718 11.489222,12.312971 c -2.344548,1.84673 -2.2760137,4.812478 -0.57168,7.04005 1.207686,1.578451 3.491706,3.113793 5.322363,3.880519 1.508484,0.631791 4.452713,1.54936 5.374754,3.997247 0.803271,2.132572 0.507859,4.946229 -0.324066,6.410823 -1.279238,2.252085 -3.209367,3.689225 -5.398504,2.561343 -2.063081,-1.062937 -2.185335,-4.389201 -0.95785,-6.32343 1.020128,-1.607483 3.25328,-4.901697 9.143702,-4.865006"
       sodipodi:nodetypes="ccssssssc" />
  </g>
</svg>
