<svg xmlns="http://www.w3.org/2000/svg" xml:space="preserve" x="0%" y="0%" viewBox="0 0 48 48"><path fill="#fff" stroke="#000" stroke-linecap="square" stroke-linejoin="round" stroke-width=".48" d="m26.29 17.598-.03 5.45c-3.53-.46-6.89.85-6.89 4.67v8.74l-6.09 3.93v-12.67c0-6.03 4.94-11.46 13.01-10.12z" style="stroke-width:1;stroke-miterlimit:4;stroke-dasharray:none;stroke-linecap:round;stroke-linejoin:round;fill:none;stroke:#fff;stroke-opacity:1"/><path fill="#fff" stroke="#000" stroke-linecap="square" stroke-width=".48" d="M29.13 17.388h4.8a.79.79 0 0 1 .79.79v4.73a.79.79 0 0 1-.79.79h-4.8a.79.79 0 0 1-.79-.79v-4.73a.79.79 0 0 1 .79-.79z" style="stroke-width:1;stroke-miterlimit:4;stroke-dasharray:none;stroke-linecap:round;stroke-linejoin:round;fill:none;stroke:#fff;stroke-opacity:1"/><path fill="#fff" stroke="#000" stroke-linecap="square" stroke-width=".372" d="M20.6 7.558a3.62 3.62 0 0 1 3.63 3.61c0 2-1.62 3.62-3.63 3.62-2 0-3.63-1.62-3.63-3.62 0-1.99 1.63-3.61 3.63-3.61z" style="stroke-width:1;stroke-miterlimit:4;stroke-dasharray:none;stroke-linecap:round;stroke-linejoin:round;fill:none;stroke:#fff;stroke-opacity:1"/></svg>