<svg xmlns="http://www.w3.org/2000/svg" xml:space="preserve" width="48" height="48"><path fill="none" stroke="#fff" stroke-linecap="round" stroke-linejoin="round" d="m24.437 11.218-2.648-4.78-13.092 8.456m26.321 0-4.288-7.74-11.984 7.74m16 13.675a2.046 2.047 0 0 1-2.046 2.046 2.046 2.047 0 0 1-2.046-2.046 2.046 2.047 0 0 1 2.046-2.047 2.046 2.047 0 0 1 2.046 2.047m-2.54 5.805c-3.23 0-5.832-2.568-5.832-5.757s2.601-5.756 5.832-5.756l9.128-.097c.647 0 1.167.52 1.167 1.166v9.18c0 .646-.52 1.166-1.167 1.166zm7.824-.085v4.238a3.026 3.026 0 0 1-3.033 3.034H8.533A3.026 3.026 0 0 1 5.5 38.527v-20.6a3.026 3.026 0 0 1 3.033-3.033v0h28.464a3.026 3.026 0 0 1 3.033 3.033v4.851"/></svg>
