<?xml version="1.0" encoding="UTF-8" standalone="no"?>
<!-- Created with Inkscape (http://www.inkscape.org/) -->

<svg
   width="48"
   height="48"
   viewBox="0 0 12.7 12.7"
   version="1.1"
   id="svg1"
   xml:space="preserve"
   inkscape:version="1.3.2 (091e20ef0f, 2023-11-25)"
   sodipodi:docname="moneyback.svg"
   xmlns:inkscape="http://www.inkscape.org/namespaces/inkscape"
   xmlns:sodipodi="http://sodipodi.sourceforge.net/DTD/sodipodi-0.dtd"
   xmlns="http://www.w3.org/2000/svg"
   xmlns:svg="http://www.w3.org/2000/svg"><sodipodi:namedview
     id="namedview1"
     pagecolor="#000000"
     bordercolor="#000000"
     borderopacity="0.25"
     inkscape:showpageshadow="2"
     inkscape:pageopacity="0.0"
     inkscape:pagecheckerboard="0"
     inkscape:deskcolor="#d1d1d1"
     inkscape:document-units="mm"
     showguides="true"
     inkscape:zoom="7.3641901"
     inkscape:cx="2.7837413"
     inkscape:cy="48.342044"
     inkscape:window-width="1916"
     inkscape:window-height="1006"
     inkscape:window-x="0"
     inkscape:window-y="40"
     inkscape:window-maximized="1"
     inkscape:current-layer="svg1"><sodipodi:guide
       position="-17.482496,18.844213"
       orientation="0,-1"
       id="guide1"
       inkscape:locked="false" /><sodipodi:guide
       position="-20.09324,15.664576"
       orientation="0,-1"
       id="guide4"
       inkscape:locked="false" /><sodipodi:guide
       position="-25.857695,12.329428"
       orientation="1,0"
       id="guide6"
       inkscape:locked="false" /><sodipodi:guide
       position="-22.687245,10.84714"
       orientation="1,0"
       id="guide7"
       inkscape:locked="false" /></sodipodi:namedview><defs
     id="defs1"><inkscape:path-effect
       effect="mirror_symmetry"
       start_point="-13.687812,2.7333371"
       end_point="-13.687812,10.350627"
       center_point="-13.687812,6.541982"
       id="path-effect3"
       is_visible="true"
       lpeversion="1.2"
       lpesatellites=""
       mode="free"
       discard_orig_path="false"
       fuse_paths="false"
       oposite_fuse="false"
       split_items="false"
       split_open="false"
       link_styles="false" /></defs><path
     style="display:none;fill:none;fill-opacity:1;stroke:#ffffff;stroke-width:0.354972;stroke-linecap:round;stroke-linejoin:round;stroke-dasharray:none;stroke-opacity:1"
     d="m -11.346059,-0.11955666 c 0,0 0.646084,2.63749346 2.9746756,2.85049776 2.3285914,0.2130043 -2.6647396,1.7081277 -2.6647396,1.7081277 L -9.5006066,3.425961 c 0,0 -2.0875054,-1.1223983 -1.8454524,-3.54551766 z"
     id="path6"
     sodipodi:nodetypes="czccc"
     transform="matrix(0.74536337,0,0,0.74536337,16.558145,2.5370433)" /><g
     id="g4"
     transform="matrix(0.68763711,0,0,0.68763711,14.128402,2.2598962)"
     style="stroke-width:0.38477175;stroke-dasharray:none"><path
       style="fill:none;stroke:#ffffff;stroke-width:0.38477175;stroke-linecap:round;stroke-linejoin:round;stroke-dasharray:none;paint-order:stroke markers fill"
       d="m -8.400274,8.6614675 c -0.0106,0.049157 -3.235208,0.456671 -3.620256,-2.7445354"
       id="path2-2"
       sodipodi:nodetypes="cc" /><path
       style="fill:none;stroke:#ffffff;stroke-width:0.38477175;stroke-linecap:round;stroke-linejoin:round;stroke-dasharray:none;paint-order:stroke markers fill"
       d="m -13.917013,8.1548442 c 0,0 3.598987,-0.4824769 3.9983487,2.6284948"
       id="path2-3-6"
       sodipodi:nodetypes="cc" /><path
       id="path1"
       style="fill:none;stroke:#ffffff;stroke-width:0.38477175;stroke-linecap:round;stroke-linejoin:round;paint-order:stroke markers fill;stroke-dasharray:none"
       d="m -12.02053,5.9169321 a 2.2728832,2.2728832 0 0 1 -2.272883,2.2728832 2.2728832,2.2728832 0 0 1 -2.272883,-2.2728832 2.2728832,2.2728832 0 0 1 2.272883,-2.2728832 2.2728832,2.2728832 0 0 1 2.272883,2.2728832 z" /><path
       id="path1-6"
       style="fill:none;stroke:#ffffff;stroke-width:0.38477175;stroke-linecap:round;stroke-linejoin:round;paint-order:stroke markers fill;stroke-dasharray:none"
       d="M -6.0800922,1.3463482 A 1.9420893,1.9420893 0 0 1 -8.0221815,3.2884375 1.9420893,1.9420893 0 0 1 -9.9642708,1.3463482 1.9420893,1.9420893 0 0 1 -8.0221815,-0.59574115 1.9420893,1.9420893 0 0 1 -6.0800922,1.3463482 Z" /><path
       id="path1-6-2"
       style="fill:none;stroke:#ffffff;stroke-width:0.38477175;stroke-linecap:round;stroke-linejoin:round;paint-order:stroke markers fill;stroke-dasharray:none"
       d="m -6.0474145,10.559619 a 1.9420893,1.9420893 0 0 1 -1.9420894,1.942089 1.9420893,1.9420893 0 0 1 -1.9420893,-1.942089 1.9420893,1.9420893 0 0 1 1.9420893,-1.9420894 1.9420893,1.9420893 0 0 1 1.9420894,1.9420894 z" /><path
       style="fill:none;stroke:#ffffff;stroke-width:0.38477175;stroke-linecap:round;stroke-linejoin:round;stroke-dasharray:none;paint-order:stroke markers fill"
       d="m -13.876598,3.6825949 c 0.0106,0.049157 3.551915,0.5566083 3.9369624,-2.6445981"
       id="path2"
       sodipodi:nodetypes="cc" /><path
       style="fill:none;stroke:#ffffff;stroke-width:0.38477175;stroke-linecap:round;stroke-linejoin:round;stroke-dasharray:none;paint-order:stroke markers fill"
       d="m -8.0221815,3.2884375 c 0,0 -3.5989865,-0.4824769 -3.9983485,2.6284946"
       id="path2-3"
       sodipodi:nodetypes="cc" /></g></svg>
