<svg xmlns="http://www.w3.org/2000/svg" xml:space="preserve" width="48" height="48" viewBox="0 0 12.7 12.7"><path fill="none" stroke="#fff" stroke-linecap="round" stroke-linejoin="round" stroke-width=".265" d="M10.951 6.35a4.6 3.992 0 0 1-4.6 3.992A4.6 3.992 0 0 1 1.748 6.35 4.6 3.992 0 0 1 6.35 2.358a4.6 3.992 0 0 1 4.601 3.992zm1.088 0a5.689 5.689 0 0 1-5.689 5.689A5.689 5.689 0 0 1 .662 6.35 5.689 5.689 0 0 1 6.35.661a5.689 5.689 0 0 1 5.69 5.689zm-3.162-.767L7.759 6.71l1.459.902M4.308 5.51v2.179" class="a"/></svg>
