<?xml version="1.0" encoding="UTF-8" standalone="no"?>
<svg
   viewBox="0 0 48 48"
   version="1.1"
   id="svg5"
   xml:space="preserve"
   width="48"
   height="48"
   xmlns="http://www.w3.org/2000/svg"
   xmlns:svg="http://www.w3.org/2000/svg"><defs
     id="defs1"><style
       id="style1">.a{fill:none;stroke:#fff;stroke-linecap:round;stroke-linejoin:round;}.b{fill:#fff;}</style></defs><g
     id="g7"
     transform="matrix(0.94387091,0,0,0.94387091,1.3471318,1.3902963)"><path
       class="a"
       d="m 24.0036,27.8162 c 0,0 1.3425,-1.0523 2.1643,-0.6509 2.7556,1.3473 3.9608,5.4144 9.71,2.3029 -3.9238,7.1392 -10.1719,4.0969 -11.874,1.5981 -1.7009,2.4988 -7.949,5.5411 -11.8728,-1.5981 5.7489,3.1115 6.9541,-0.9556 9.71,-2.3029 0.8211,-0.4014 2.1625,0.6509 2.1625,0.6509 z"
       id="path1" /><path
       class="a"
       d="M 37.4232,27.3432 V 22.4018"
       id="path2" /><circle
       class="a"
       cx="30.8263"
       cy="19.3811"
       r="3.7421999"
       id="circle2" /><circle
       class="b"
       cx="37.423199"
       cy="19.3811"
       r="0.75"
       id="circle3" /><path
       class="a"
       d="M 10.578,27.3432 V 22.4018"
       id="path3" /><circle
       class="a"
       cx="17.1738"
       cy="19.3811"
       r="3.7421999"
       id="circle4" /><circle
       class="b"
       cx="10.578"
       cy="19.3811"
       r="0.75"
       id="circle5" /></g><path
     id="path5"
     class="a"
     d="M 2.5,24 C 2.5,12.125878 12.125878,2.5 24,2.5 35.874122,2.5 45.5,12.125878 45.5,24 v 0 c 0,11.874122 -9.625878,21.5 -21.5,21.5 -3.596791,0 -7.13611,-0.902359 -10.326925,-2.637222 L 2.5,45.5 5.1372221,34.326926 C 3.4023585,31.13611 2.5,27.596792 2.5,24 Z" /><circle
     style="fill:none;stroke:#ffffff;stroke-width:1;stroke-linecap:butt;stroke-linejoin:round;stroke-dasharray:none;stroke-opacity:1"
     id="path7"
     cx="24"
     cy="24"
     r="18.119612" /></svg>
