<?xml version="1.0" encoding="UTF-8" standalone="no"?>
<!-- Created with Inkscape (http://www.inkscape.org/) -->

<svg
   width="48"
   height="48"
   viewBox="0 0 48 48"
   version="1.1"
   id="svg1"
   xml:space="preserve"
   inkscape:version="1.4.2 (f4327f4, 2025-05-13)"
   sodipodi:docname="Monobloc.svg"
   xmlns:inkscape="http://www.inkscape.org/namespaces/inkscape"
   xmlns:sodipodi="http://sodipodi.sourceforge.net/DTD/sodipodi-0.dtd"
   xmlns="http://www.w3.org/2000/svg"
   xmlns:svg="http://www.w3.org/2000/svg"><sodipodi:namedview
     id="namedview1"
     pagecolor="#ffffff"
     bordercolor="#000000"
     borderopacity="0.25"
     inkscape:showpageshadow="2"
     inkscape:pageopacity="0.0"
     inkscape:pagecheckerboard="true"
     inkscape:deskcolor="#d1d1d1"
     inkscape:document-units="mm"
     inkscape:zoom="17.318182"
     inkscape:cx="23.385827"
     inkscape:cy="20.931758"
     inkscape:window-width="2498"
     inkscape:window-height="1417"
     inkscape:window-x="2552"
     inkscape:window-y="-8"
     inkscape:window-maximized="1"
     inkscape:current-layer="svg1" /><defs
     id="defs1" /><path
     style="fill:none;stroke:#ffffff;stroke-opacity:1;stroke-width:1.002;stroke-dasharray:none;stroke-linejoin:round"
     d="M 15.212569,39.210725 6.4809098,34.106939 6.5326208,23.905166 6.5843318,13.703393 14.470339,9.149752 c 4.337303,-2.5045024 8.294485,-4.7675183 8.793736,-5.0289242 l 0.907731,-0.4752835 8.726979,5.0941985 8.726978,5.0941982 -0.05171,10.206336 -0.05171,10.206335 -7.886007,4.539975 c -4.337304,2.496986 -8.292378,4.762264 -8.789055,5.03395 l -0.903047,0.493974 z m 6.834914,-7.299804 -0.0094,-6.837867 -5.694699,-3.294155 c -3.132084,-1.811785 -5.778155,-3.324101 -5.880156,-3.360703 l -0.185457,-0.06655 0,6.756351 v 6.756351 l 5.839638,3.425893 c 3.211801,1.884241 5.862098,3.43324 5.889549,3.442219 0.02745,0.009 0.04568,-3.060714 0.04052,-6.82154 z m 10.004974,3.326201 5.776433,-3.31202 v -6.77009 c 0,-3.72355 -0.0423,-6.77009 -0.094,-6.77009 -0.0517,0 -2.746916,1.536336 -5.989372,3.414081 l -5.895375,3.414081 v 6.668028 6.668029 h 0.212939 c 0.117116,0 2.812334,-1.490408 5.989372,-3.312019 z m -2.117956,-16.8522 c 3.130224,-1.811786 5.692885,-3.353127 5.694801,-3.425204 0.0019,-0.07208 -2.553626,-1.629058 -5.678985,-3.459959 -3.125358,-1.8309013 -5.805055,-3.2992194 -5.954883,-3.2629294 -0.149827,0.03629 -2.846867,1.5453826 -5.993421,3.3535394 -3.146555,1.808156 -5.655151,3.349575 -5.574659,3.425376 0.08049,0.0758 2.706807,1.627018 5.836254,3.447149 3.129447,1.82013 5.75508,3.28837 5.83474,3.262755 0.07966,-0.02562 2.70593,-1.528942 5.836153,-3.340727 z"
     id="path4" /></svg>
