<svg xmlns="http://www.w3.org/2000/svg" xml:space="preserve" id="svg1" version="1.1" viewBox="0 0 48 48"><defs id="defs1"><style id="style1">.a{fill:none;stroke:#fff;stroke-linecap:round;stroke-linejoin:round}</style></defs><path id="path4063" d="M16.981428 38.324096c0 2.037061-1.651241 3.688427-3.688147 3.688427-2.036907 0-3.6881469-1.651366-3.6881469-3.688427 0-2.037062 1.6512399-3.688427 3.6881469-3.688427 2.036906 0 3.688147 1.651365 3.688147 3.688427z" style="fill:none;stroke:#fff;stroke-width:1;stroke-linecap:round;stroke-linejoin:round;stroke-opacity:1;stop-color:#000"/><path id="path4061" d="M17.078221 38.869309h6.232645c9.395257 0 16.958981-7.332668 16.958981-16.440916 0-9.10825-7.563724-16.440915-16.958981-16.440915L7.730153 5.9874767V31.700952h19.901905c5.736959 0 7.336995-5.78198 5.591781-9.198893-1.721576-3.370632-5.030299-3.782433-7.550241-3.180906.600289-2.518944.21957-5.890306-3.145238-7.622868-3.62554-1.8668172-9.235079.215143-9.235079 5.299235v14.524147" style="fill:none;stroke:#fff;stroke-width:1;stroke-linecap:round;stroke-linejoin:round;stroke-opacity:1;stop-color:#000"/><path id="rect3154" d="M19.368707 18.184315v3.77631h-3.776024v3.582655h3.776024v3.77631h3.582379v-3.77631h3.776023v-3.582655h-3.776023v-3.77631z" style="fill:none;stroke:#fff;stroke-width:1;stroke-linecap:round;stroke-linejoin:round;stroke-opacity:1;stop-color:#000"/></svg>