<svg xmlns="http://www.w3.org/2000/svg" xml:space="preserve" viewBox="0 0 48 48"><path d="M23.754 4.67c4.244 3.266 3.881 8.7 0 11.26-3.882-2.56-4.244-7.994 0-11.26M45.443 22.442c-.707 5.309-5.593 7.711-9.752 5.63.277-4.642 4.801-7.672 9.752-5.63M40.39 34.826c-1.565 5.122-6.778 6.694-10.541 3.962 1.031-4.534 5.99-6.785 10.54-3.962M2.557 22.442c.707 5.309 5.593 7.711 9.752 5.63-.277-4.642-4.801-7.672-9.752-5.63M7.61 34.826c1.565 5.122 6.778 6.694 10.541 3.962-1.031-4.534-5.99-6.785-10.54-3.962M30.612 24.642c1.893 5.01-1.272 9.441-5.92 9.58-1.955-4.22.592-9.032 5.92-9.58M13.482 16.118c-.767 5.3 3.278 8.945 7.847 8.077 1-4.542-2.526-8.691-7.847-8.077M21.212 30.17a2.53 2.53 0 0 1-2.528 2.527 2.53 2.53 0 0 1-2.528-2.527 2.53 2.53 0 0 1 2.528-2.528 2.53 2.53 0 0 1 2.528 2.528M33.458 18.81a2.53 2.53 0 0 1-2.527 2.528 2.53 2.53 0 0 1-2.528-2.528 2.53 2.53 0 0 1 2.528-2.527 2.53 2.53 0 0 1 2.527 2.527M26.478 40.803a2.53 2.53 0 0 1-2.527 2.528 2.53 2.53 0 0 1-2.528-2.528 2.53 2.53 0 0 1 2.528-2.527 2.53 2.53 0 0 1 2.527 2.527" style="fill:none;fill-opacity:.466567;stroke:#fff;stroke-width:1;stroke-linecap:round;stroke-linejoin:round;stroke-dashoffset:1.3;stroke-opacity:1"/></svg>