<svg xmlns="http://www.w3.org/2000/svg" xml:space="preserve" width="48" height="48" viewBox="0 0 12.7 12.7"><path fill="none" stroke="#fff" stroke-linecap="round" stroke-linejoin="round" stroke-width=".265" d="M8.619 6.103h2.4V3.967H9.651l.978-1.693L8.752 1.19l-.978 1.693L7.09 1.7 5.24 2.769l1.199 2.076c.22.383.518.78.881.99.363.21.857.268 1.299.268zm0 .494h2.4v2.136H9.651l.978 1.693-1.878 1.083-.978-1.693L7.09 11 5.24 9.931l1.199-2.076c.22-.383.518-.781.881-.99.363-.21.857-.268 1.299-.268zm-2.614.991-1.2 2.077-1.85-1.068.683-1.183H1.68V5.247h1.957l-.684-1.183 1.851-1.068 1.2 2.077c.221.382.418.838.418 1.257 0 .42-.197.876-.418 1.258z"/></svg>
