<?xml version="1.0" encoding="UTF-8"?><svg id="Layer_1" xmlns="http://www.w3.org/2000/svg" viewBox="0 0 48 48"><defs><style>.cls-1{fill:none;stroke:#fff;stroke-linecap:round;stroke-linejoin:round;}</style></defs><path class="cls-1" d="M29.25,15.746v14.754c0,3.324-2.676,6-6,6h-9.25c-3.324,0-6-2.676-6-6V11.5c0-3.324,2.676-6,6-6h9.25c3.324,0,6,2.676,6,6"/><path class="cls-1" d="M18.75,36.5v-19c0-3.324,2.926-6,6.25-6h9c3.324,0,6,2.676,6,6v19c0,3.324-2.676,6-6,6h-9.25c-1.662,0-3.162-.669-4.2465-1.7535"/></svg>