<svg xmlns="http://www.w3.org/2000/svg" xml:space="preserve" id="svg1" version="1.1" viewBox="0 0 48 48"><defs id="defs1"><style id="style1">.a{fill:none;stroke:#fff;stroke-linecap:round;stroke-linejoin:round}</style></defs><path id="path19" d="M37.718 8.883h2.553c1.87 0 2.375-1.33 2.193-2.908h-4.746v9.617m0 .273a2.753 2.753 0 0 1-2.753 2.753 2.753 2.753 0 0 1-2.753-2.753 2.753 2.753 0 0 1 2.753-2.753 2.753 2.753 0 0 1 2.753 2.753zM9.165 22.677a2.544 2.544 0 1 0 3.284 3.888 2.544 2.544 0 0 0-3.284-3.888v0m5.698-1.483a5.31 5.31 0 1 0-.63 7.483 5.23 5.23 0 0 0 1.757-2.956l3.9-.009c.453 0 .945.205 1.24.554.295.349.415.868.34 1.314l-.661 3.845a5.227 5.227 0 0 0-3.208 1.237 5.31 5.31 0 1 0 6.853 8.113v0a5.31 5.31 0 0 0 .63-7.483 5.231 5.231 0 0 0-1.728-1.34l.696-4.077 13.609-1.18c1.78-.154 3.626-2.004 4.535-3.612l-17.33.028 2.922-17.082c-1.737.627-3.87 2.138-4.32 3.868l-3.436 13.22-4.136.006a5.218 5.218 0 0 0-1.033-1.929zm7.807 17.468a2.545 2.545 0 1 1-3.285-3.888 2.545 2.545 0 0 1 3.285 3.888v0m.691-13.134a.876.876 0 0 1-1.235-.104.876.876 0 0 1 .104-1.234.876.876 0 0 1 1.235.103.876.876 0 0 1-.104 1.235z" style="fill:none;stroke:#fff;stroke-width:1;stroke-linecap:round;stroke-linejoin:round;stroke-opacity:1"/></svg>