<svg xmlns="http://www.w3.org/2000/svg" xml:space="preserve" width="48" height="48" viewBox="0 0 12.7 12.7"><path fill="none" stroke="#fff" stroke-linecap="round" stroke-linejoin="round" stroke-width=".265" d="M5.474 7.247v-.224m0-1.794v-.224m-.55 1.821c.109.144.244.197.433.197h.26c.244 0 .44-.2.44-.449v0a.444.444 0 0 0-.44-.448H5.33c-.243 0-.44-.2-.44-.448v0c0-.248.197-.449.44-.449h.26c.189 0 .324.054.432.197M2.485 7.02V5.229l.88 1.794.882-1.79v1.79m2.455 0V5.229h.577c.326 0 .59.27.59.603s-.264.602-.59.602h-.577m.354 3.748a2.974 2.974 0 0 0 2.933-.048l1.424.409-.464-1.295c.353-.504.56-1.121.56-1.788 0-1.395-.91-2.573-2.157-2.954m-.38 1.545a3.893 3.893 0 0 1-5.828 3.38l-1.83.514.597-1.635a3.88 3.88 0 0 1-.72-2.259c0-2.151 1.742-3.895 3.89-3.895S8.974 3.9 8.974 6.05z" class="t"/></svg>
