<?xml version="1.0" encoding="UTF-8" standalone="no"?>
<!-- Created with Inkscape (http://www.inkscape.org/) -->

<svg
   width="48"
   height="48"
   viewBox="0 0 48 48"
   version="1.1"
   id="svg1"
   xml:space="preserve"
   inkscape:version="1.4.4 (dcaf3e7d9e, 2026-05-05)"
   sodipodi:docname="msplit.svg"
   xmlns:inkscape="http://www.inkscape.org/namespaces/inkscape"
   xmlns:sodipodi="http://sodipodi.sourceforge.net/DTD/sodipodi-0.dtd"
   xmlns="http://www.w3.org/2000/svg"
   xmlns:svg="http://www.w3.org/2000/svg"><sodipodi:namedview
     id="namedview1"
     pagecolor="#000000"
     bordercolor="#000000"
     borderopacity="0.25"
     inkscape:showpageshadow="2"
     inkscape:pageopacity="0.0"
     inkscape:pagecheckerboard="true"
     inkscape:deskcolor="#d1d1d1"
     inkscape:document-units="px"
     inkscape:zoom="15.904427"
     inkscape:cx="25.118793"
     inkscape:cy="21.47201"
     inkscape:window-width="1920"
     inkscape:window-height="1003"
     inkscape:window-x="0"
     inkscape:window-y="0"
     inkscape:window-maximized="1"
     inkscape:current-layer="layer2" /><defs
     id="defs1"><rect
       x="8.2695129"
       y="17.161462"
       width="32.099937"
       height="13.160085"
       id="rect2" /><style
       id="style1">
      .cls-1 {
        fill: none;
        stroke: #fff;
        stroke-linecap: round;
        stroke-linejoin: round;
      }
    </style></defs><g
     inkscape:groupmode="layer"
     id="layer2"
     inkscape:label="Ebene 2"
     style="display:inline"><path
       style="fill:#ffffff;fill-opacity:1;stroke:#ffffff;stroke-opacity:1"
       d="m 22.953482,36.951289 c -1.015171,-0.470499 -1.613715,-0.878162 -2.029073,-1.381982 -0.217716,-0.264085 -0.782882,-1.194857 -1.027168,-1.691643 -0.312288,-0.635077 -0.391425,-0.867156 -0.525892,-1.542237 -0.07241,-0.363528 -0.172726,-0.784889 -0.222924,-0.936359 -0.0576,-0.173812 -0.330954,-0.695109 -0.741042,-1.413211 -0.357375,-0.625796 -0.670379,-1.212397 -0.695565,-1.303557 -0.115149,-0.416793 -0.19829,-1.022903 -0.229251,-1.671265 -0.04572,-0.957347 -0.164689,-1.757673 -0.322851,-2.171797 -0.03745,-0.09805 -0.231127,-0.537675 -0.430396,-0.976938 -0.390235,-0.86022 -0.391185,-0.861384 -0.618345,-0.757883 -0.1,0.04556 -0.149442,0.128403 -0.205786,0.344784 -0.06188,0.237645 -0.04555,0.499194 0.09012,1.443618 0.118488,0.824788 0.128262,0.960727 0.128262,1.784032 0,1.172136 0.0043,1.157575 -0.667628,2.234998 -0.725739,1.163621 -0.799437,1.250478 -1.229475,1.449004 -0.190882,0.08812 -0.267815,0.100567 -0.70419,0.113924 l -0.489895,0.01499 -0.165156,-0.160411 C 12.647991,30.11642 12.261678,29.666374 11.521672,28.761813 10.953186,28.066912 10.891329,27.97607 10.62155,27.439895 10.228599,26.658922 10.023937,26.149349 9.3349553,24.236495 L 8.7456125,22.600274 8.6900352,22.046076 C 8.6594677,21.741267 8.5589835,21.073726 8.4667369,20.562651 L 8.2990158,19.633425 8.4152179,19.338117 c 0.3016585,-0.766616 0.5154268,-1.012191 2.0949361,-2.406641 1.076904,-0.95073 1.799385,-1.488693 2.706829,-2.015514 0.249306,-0.144736 0.711977,-0.4413 1.028158,-0.659032 0.316181,-0.217732 0.671842,-0.452756 0.790359,-0.522275 0.118517,-0.06952 0.335441,-0.255033 0.482053,-0.412254 0.295702,-0.3171 0.37864,-0.356743 0.746346,-0.356743 0.194233,0 0.27909,0.02272 0.514322,0.1377 0.258234,0.126224 0.30772,0.137699 0.59383,0.137699 0.367955,0 0.217863,0.07233 1.970947,-0.949799 l 1.181468,-0.688851 0.949906,-0.34053 0.949906,-0.340529 1.669139,-0.02428 1.66914,-0.02427 0.679319,0.178437 c 0.543253,0.142696 0.763901,0.22083 1.101598,0.39009 1.087517,0.545082 1.928903,1.109605 3.138836,2.105983 0.32274,0.265776 0.607998,0.483229 0.633908,0.483229 0.02591,0 0.274093,-0.11334 0.551519,-0.251867 0.277425,-0.138527 0.593496,-0.272927 0.702379,-0.298667 0.224242,-0.05301 0.713109,-0.03024 0.794116,0.03699 0.02822,0.02342 0.203504,0.278122 0.389514,0.565999 0.290158,0.449061 0.363125,0.537423 0.513669,0.622048 0.659561,0.370758 1.338269,0.893639 2.166343,1.668967 0.295074,0.276278 0.696389,0.648614 0.891811,0.827413 0.549277,0.502556 1.05085,1.138984 1.494616,1.896467 0.08874,0.15147 0.240377,0.380209 0.336976,0.50831 0.197507,0.261916 0.318782,0.488294 0.40636,0.758528 0.122762,0.378802 0.137793,0.684972 0.09639,1.963369 -0.033,1.018842 -0.05835,1.358576 -0.14695,1.969193 -0.09694,0.668094 -0.122935,0.775817 -0.274698,1.138318 -0.0922,0.220215 -0.269797,0.590417 -0.394673,0.82267 -0.235558,0.438113 -1.835157,2.860335 -2.091802,3.167552 -0.214679,0.256982 -0.71287,0.641024 -0.945573,0.728918 -0.38123,0.143994 -0.843797,0.04149 -1.191852,-0.264103 -0.217625,-0.191078 -0.376653,-0.441816 -0.721105,-1.136967 L 33.5623,28.085758 33.48369,27.275912 c -0.06999,-0.72101 -0.07381,-0.862529 -0.03483,-1.290121 0.02408,-0.264151 0.08654,-0.662038 0.138811,-0.884194 0.118463,-0.503518 0.155753,-0.87592 0.158107,-1.578957 0.0022,-0.668217 -0.04788,-0.943216 -0.208959,-1.146597 -0.141924,-0.179193 -0.291011,-0.247477 -0.467882,-0.214295 -0.104207,0.01955 -0.162397,0.06764 -0.287585,0.237702 -0.175663,0.238621 -0.385992,0.629696 -0.604078,1.12319 -0.08033,0.181763 -0.284284,0.537029 -0.453242,0.789478 -0.471928,0.705137 -0.692837,1.196826 -1.064021,2.368251 -0.156829,0.494936 -0.252856,0.884162 -0.330666,1.340278 -0.106785,0.625963 -0.110577,0.690832 -0.144919,2.478782 l -0.03526,1.835997 -0.149197,0.550799 c -0.08206,0.302939 -0.183389,0.633419 -0.225179,0.734399 -0.210608,0.508903 -1.202422,1.770153 -1.660502,2.111595 -0.635754,0.473874 -1.669756,0.910018 -2.748813,1.159455 -0.565195,0.130652 -0.937319,0.180381 -1.622502,0.216825 l -0.403919,0.02148 z m 1.395357,0.02863 c 0.463699,-0.03908 1.363047,-0.24043 1.902432,-0.42592 0.953898,-0.328036 1.677543,-0.725829 2.095358,-1.151833 0.567023,-0.578136 1.211961,-1.459621 1.363914,-1.864161 0.159235,-0.423928 0.337728,-1.133202 0.353459,-1.404536 0.0088,-0.15147 0.03091,-1.018978 0.04917,-1.927797 0.03211,-1.598096 0.03683,-1.672911 0.143663,-2.276636 0.07967,-0.45022 0.177794,-0.831277 0.352003,-1.366921 0.393816,-1.210877 0.642043,-1.745177 1.129615,-2.431458 0.121127,-0.170491 0.27376,-0.434875 0.339187,-0.587519 0.324377,-0.756799 0.699298,-1.36474 0.88524,-1.435435 0.244903,-0.09311 0.484062,-0.001 0.67235,0.258906 0.156844,0.216517 0.187681,0.426715 0.184674,1.258821 -0.0029,0.788983 -0.01139,0.872765 -0.156028,1.53125 -0.171247,0.77962 -0.188933,1.153822 -0.09876,2.089647 l 0.07928,0.822809 0.32365,0.645988 c 0.369816,0.738137 0.57801,1.042184 0.82619,1.206572 0.561335,0.371813 1.015223,0.28198 1.652388,-0.327039 0.293746,-0.28077 0.427589,-0.460243 1.163829,-1.560597 1.745548,-2.608828 1.863578,-2.944033 1.954216,-5.549976 0.02408,-0.692383 0.03231,-1.392366 0.01829,-1.555517 -0.03739,-0.435065 -0.158052,-0.767482 -0.415822,-1.145545 -0.122167,-0.179179 -0.349989,-0.531181 -0.50627,-0.782226 -0.521151,-0.837162 -0.964416,-1.376375 -1.53513,-1.867423 -0.18778,-0.161568 -0.532744,-0.477688 -0.766588,-0.702489 -0.738902,-0.710331 -1.374783,-1.208162 -2.034112,-1.592507 -0.279197,-0.162753 -0.28901,-0.173593 -0.652063,-0.720306 l -0.3686,-0.555067 -0.224398,-0.02035 c -0.377988,-0.03427 -0.58791,0.02249 -1.208111,0.326686 -0.317347,0.155651 -0.592936,0.269522 -0.61672,0.254823 -0.02365,-0.01462 -0.294242,-0.234582 -0.601317,-0.488813 -1.192316,-0.987132 -2.090972,-1.591522 -3.16974,-2.131806 -0.288616,-0.144548 -0.530306,-0.227188 -1.083239,-0.370387 l -0.711733,-0.184324 -1.634037,0.03281 -1.634037,0.03281 -0.928989,0.33249 -0.928988,0.332489 -1.237488,0.723438 c -1.674753,0.979063 -1.529283,0.91192 -1.971887,0.910156 -0.348444,-0.0014 -0.381214,-0.0084 -0.641563,-0.1377 -0.212362,-0.105449 -0.316089,-0.135599 -0.459,-0.133414 -0.305257,0.0047 -0.431623,0.0664 -0.633136,0.309297 -0.118299,0.142596 -0.294555,0.291566 -0.499624,0.422279 -0.174265,0.111078 -0.552732,0.365917 -0.841038,0.566309 -0.288307,0.200393 -0.722481,0.479285 -0.964833,0.619762 -0.963189,0.558304 -1.616931,1.044599 -2.827435,2.103223 -0.343332,0.300255 -0.849478,0.769446 -1.1247699,1.042648 -0.4861548,0.482464 -0.5065468,0.509047 -0.7099982,0.925545 -0.1152072,0.235848 -0.217752,0.491969 -0.2278775,0.569159 -0.010913,0.08319 0.048943,0.52164 0.1469899,1.076703 0.09097,0.514998 0.1851989,1.15053 0.2093979,1.412295 l 0.043998,0.475936 0.5977452,1.653821 c 0.7401496,2.047818 0.8733636,2.381632 1.2534606,3.140978 0.288839,0.577033 0.333327,0.642592 0.934425,1.376997 0.686233,0.838421 1.174954,1.408583 1.349506,1.574388 l 0.111161,0.10559 0.433818,-0.01824 c 0.751488,-0.0316 0.996476,-0.176109 1.43497,-0.846425 0.777542,-1.188612 0.890147,-1.38352 1.015744,-1.758142 0.09034,-0.269457 0.0945,-0.318167 0.0945,-1.105744 0,-0.747305 -0.01194,-0.906706 -0.12852,-1.715218 -0.140311,-0.973128 -0.157613,-1.357502 -0.07381,-1.63971 0.07446,-0.250745 0.161051,-0.321563 0.395364,-0.32336 l 0.188525,-0.0014 0.378455,0.826198 c 0.20815,0.45441 0.420937,0.958391 0.47286,1.119958 0.132102,0.411064 0.231742,1.125965 0.272845,1.957622 0.01928,0.390029 0.06112,0.860962 0.09298,1.046519 0.124139,0.722972 0.148787,0.781515 0.835574,1.984636 0.425568,0.745516 0.680097,1.232975 0.744008,1.424885 0.05343,0.160436 0.159511,0.600632 0.235736,0.978214 0.147075,0.728548 0.269893,1.061232 0.653341,1.76975 0.50855,0.939674 0.875003,1.464013 1.252873,1.792675 0.338643,0.294543 0.53425,0.414606 1.297039,0.796124 l 0.699258,0.349742 0.298308,-0.02124 c 0.16407,-0.01168 0.471811,-0.03586 0.683868,-0.05373 z"
       id="path4"
       sodipodi:nodetypes="cssssssssssssscsscsssscsscsssssssssscccccsssssssssssssssssssssscssccsssssssscssssscccssscssssssccsscsssssssssssscsssssscccccscccsssssssssscsssscssssssccsssssssssscscc" /></g></svg>
