<svg xmlns="http://www.w3.org/2000/svg" xml:space="preserve" viewBox="0 0 48 48"><path d="M9.5 5.5h29.000002c2.216 0 4 1.784 4 4v29c0 2.216-1.784 4-4 4H9.5c-2.216 0-4-1.784-4-4v-29c0-2.216 1.784-4 4-4M29.084579 15.762406v6.59504M33.462095 15.762406v6.59504M29.084579 19.047513h4.377516" style="fill:none;stroke:#fff;stroke-width:1;stroke-linecap:round;stroke-linejoin:round"/><path d="M14.537904 22.337711v-6.587785l3.303791 6.595041 3.303791-6.585013v6.585013M22.926275 15.749993h4.377515M25.115029 22.345033v-6.59504M34.751014 25.654963l-2.193019 3.297485-2.193019-3.297485M32.557986 32.249931v-3.297483M24.43214 31.527327c.405965.526492.915027.722597 1.623256.722598l.98013-.000001c.912123 0 1.651551-.736576 1.651551-1.64519v-.0071c0-.908613-.739428-1.645189-1.651551-1.645189H25.95436c-.913107 0-1.653322-.737373-1.653322-1.646967v-.000003c0-.911554.741812-1.650515 1.656889-1.650515h.974784c.708229 0 1.217292.196106 1.623257.722598M13.248986 28.952448h2.15823M16.559203 32.249931h-3.310217v-6.594968h3.310217M21.896696 30.065284H18.96355M18.237102 32.249906l2.193019-6.595007 2.193019 6.595007" style="fill:none;stroke:#fff;stroke-width:1;stroke-linecap:round;stroke-linejoin:round"/></svg>