<svg xmlns="http://www.w3.org/2000/svg" xml:space="preserve" id="svg1" version="1.1" viewBox="0 0 48 48"><defs id="defs1"><style id="style1">.a{fill:none;stroke:#fff;stroke-linecap:round;stroke-linejoin:round}</style></defs><path id="path5159" d="M16.028469 31.482374a4.4064142 4.4212183 0 0 1-3.313189 1.506409 4.4064142 4.4212183 0 0 1-4.4064134-4.421218 4.4064142 4.4212183 0 0 1 4.4064134-4.421219 4.4064142 4.4212183 0 0 1 3.311369 1.504336" style="fill:none;stroke:#fff;stroke-linecap:round;stroke-linejoin:round"/><path id="path5157" d="m19.960689 23.949138-1.094794 5.634457c-.19887 1.023503.246052 2.009982.935794 2.469576.538663.358926.996285.369758 1.5183.45657" style="fill:none;stroke:#fff;stroke-linecap:round;stroke-linejoin:round"/><path id="path5155" d="M24.306894 27.420719v5.571893" style="fill:none;stroke:#fff;stroke-linecap:round;stroke-linejoin:round"/><path id="path5153" d="M24.375734 24.84755v0" style="fill:none;stroke:#fff;stroke-linecap:round;stroke-linejoin:round"/><path id="path5151" d="M32.611484 31.518075c-.51374.509448-1.203593.803093-1.929162.813957-1.555863.02329-2.836132-1.234865-2.859561-2.81018-.02343-1.575314 1.218854-2.871234 2.774715-2.89454.504347-.0075.995522.121982 1.425711.367549" style="fill:none;stroke:#fff;stroke-linecap:round;stroke-linejoin:round"/><path id="path5149" d="m34.324285 24.600063 1.781863 7.927158" style="fill:none;stroke:#fff;stroke-linecap:round;stroke-linejoin:round"/><path id="path5147" d="m38.410406 26.140007-2.586494 3.881836" style="fill:none;stroke:#fff;stroke-linecap:round;stroke-linejoin:round"/><path id="path5145" d="m39.69114 31.588307-3.223206-2.035514" style="fill:none;stroke:#fff;stroke-linecap:round;stroke-linejoin:round"/><path id="path5143" d="M8.7231082 20.224311v-2.273873c0-.858393.6694749-1.549447 1.5010648-1.549447h.09154c.831589 0 1.501064.691054 1.501064 1.549447v2.273873" style="fill:none;stroke:#fff;stroke-width:1;stroke-linecap:round;stroke-linejoin:round"/><path id="path5141" d="M11.820478 17.950438c0-.858393.669474-1.549447 1.501065-1.549447h.09154c.831589 0 1.501064.691054 1.501064 1.549447v2.273873" style="fill:none;stroke:#fff;stroke-width:1;stroke-linecap:round;stroke-linejoin:round"/><path id="path5139" d="M22.347156 20.216521h-.468395c-.831589 0-1.501064-.691054-1.501064-1.549448v-4.190011" style="fill:none;stroke:#fff;stroke-width:1;stroke-linecap:round;stroke-linejoin:round"/><path id="path5137" d="M18.875945 20.216521h-.468395c-.83159 0-1.501065-.691054-1.501065-1.549448v-4.190011" style="fill:none;stroke:#fff;stroke-width:1;stroke-linecap:round;stroke-linejoin:round"/><path id="path5135" d="M18.532884 16.401188h-1.44644" style="fill:none;stroke:#fff;stroke-width:1;stroke-linecap:round;stroke-linejoin:round"/><path id="circle7184" d="M45.5 24A21.5 21.5 0 0 1 24 45.5 21.5 21.5 0 0 1 2.5 24 21.5 21.5 0 0 1 24 2.5 21.5 21.5 0 0 1 45.5 24Z" style="fill:none;stroke:#fff;stroke-linecap:round;stroke-linejoin:round"/></svg>