<?xml version="1.0" encoding="UTF-8"?><svg id="a" xmlns="http://www.w3.org/2000/svg" viewBox="0 0 48 48"><defs><style>.d{fill:none;stroke:#fff;stroke-linecap:round;stroke-linejoin:round;}</style></defs><rect class="d" x="4.5" y="8.5" width="39" height="31" rx="4" ry="4"/><path class="d" d="m10.721 15.771c2.6432 0 5.6856 9.3395 0 9.3395-5.6856 0-2.6432-9.3395 0-9.3395z"/><line class="d" x1="27.159" x2="32.667" y1="16.24" y2="16.24"/><line class="d" x1="29.913" x2="29.913" y1="24.655" y2="16.24"/><path class="d" d="m40.5 21.832v0.03409c0 1.5212-1.2106 2.7543-2.7042 2.7543-1.4935 0-2.7042-1.2331-2.7042-2.7543v-2.8062c0-1.5212 1.2106-2.7543 2.7042-2.7543 1.4935 0 2.7042 1.2331 2.7042 2.7543v0.03409"/><path class="d" d="m16.52 24.594v-8.3056l4.1072 8.3148 4.1072-8.3021v8.3021"/><path class="d" d="m22.753 29.849h2.0714c0.69337 0 1.2554 0.53278 1.2554 1.19s-0.56207 1.19-1.2554 1.19h-2.0714v-4.76h2.6992"/><line class="d" x1="37.173" x2="37.173" y1="27.469" y2="32.229"/><path class="d" d="m37.173 29.849h0.65213c0.63154 0 1.2211-0.30009 1.5698-0.79914l1.1049-1.5809"/><path class="d" d="m37.173 29.849h0.65213c0.63154 0 1.2211 0.30009 1.5698 0.79914l1.1049 1.5809"/><line class="d" x1="32.366" x2="32.366" y1="27.469" y2="32.229"/><line class="d" x1="35.693" x2="35.693" y1="27.469" y2="32.229"/><line class="d" x1="32.366" x2="35.693" y1="29.837" y2="29.837"/><line class="d" x1="30.335" x2="28.111" y1="30.652" y2="30.652"/><path class="d" d="m27.56 32.229 1.6634-4.76 1.6634 4.76"/></svg>
