<svg width="48" height="48" version="1.1" viewBox="0 0 48 48" xml:space="preserve" xmlns="http://www.w3.org/2000/svg"><g fill="none" stroke="#fff" stroke-linecap="round" stroke-linejoin="round"><path d="m25.889 9.961v6.8738m3.6246 11.813v9.3911m3.6939-12.708v12.699m-7.3185-12.699v12.699m-0.29906-21.124c-1.8194 2.23e-4 -3.2942 1.4751-3.2945 3.2945 1e-3 0.76933 0.27138 1.514 0.76398 2.105l-0.0129 0.0129 6.4376 6.3826s5.2962-5.2175 6.3195-6.3923c1.0233-1.1748 0.99298-3.3259-0.28528-4.5178-1.214-1.1289-3.1563-1.232-4.3518-0.11927-1.1955 1.1128-1.7375 1.7197-1.7375 1.7197s-1.2817-1.3949-1.7278-1.7294c-0.44615-0.33452-0.77178-0.7562-2.1114-0.75589zm-3.3161-6.9457v28.07m-3.6906-22.09v22.09m-3.6929-15.679v15.679" style="paint-order:stroke fill markers"/><rect class="cls-1" x="5.5" y="5.5" width="37" height="37" rx="4" ry="4"/></g></svg>
