<svg xmlns="http://www.w3.org/2000/svg" xml:space="preserve" id="svg1" version="1.1" viewBox="0 0 48 48"><defs id="defs1"><style id="style1">.a{fill:none;stroke:#fff;stroke-linecap:round;stroke-linejoin:round}</style></defs><path id="path59548" d="m18.7 5.026 12.374 36.999" style="fill:none;fill-opacity:0;stroke:#fff;stroke-linecap:round;stroke-linejoin:round;stroke-opacity:1"/><path id="path59546" d="M18.625 15.654c.554 0 1 .466 1 1.02v1.689a.992.992 0 0 1-1 .993h-2.041c-.554 0-1.013.297-1.015 1.15l-.013 8.322c-.003 1.983-1.792 3.512-3.774 3.518a3.781 3.781 0 1 1 1.619-7.198v-8.494c0-.554.446-1 1-1z" style="fill:none;fill-opacity:0;stroke:#fff;stroke-linecap:round;stroke-linejoin:round;stroke-opacity:1"/><path id="path59544" d="M23.195 17.077h11.813" style="fill:none;fill-opacity:0;stroke:#fff;stroke-linecap:round;stroke-linejoin:round;stroke-opacity:1"/><path id="path59542" d="M24.703 21.582h10.305" style="fill:none;fill-opacity:0;stroke:#fff;stroke-linecap:round;stroke-linejoin:round;stroke-opacity:1"/><path id="path59540" d="M26.21 26.087h4.16" style="fill:none;fill-opacity:0;stroke:#fff;stroke-linecap:round;stroke-linejoin:round;stroke-opacity:1"/><path id="path59538" d="m32.878 28.06 2.203 2.203 2.203-2.203" style="fill:none;fill-opacity:0;stroke:#fff;stroke-linecap:round;stroke-linejoin:round;stroke-opacity:1"/><path id="path59536" d="M35.08 25.194v5.062" style="fill:none;fill-opacity:0;stroke:#fff;stroke-linecap:round;stroke-linejoin:round;stroke-opacity:1"/><path id="path59534" d="M31.466 32.394h7.23" style="fill:none;fill-opacity:0;stroke:#fff;stroke-linecap:round;stroke-linejoin:round;stroke-opacity:1"/><path id="rect59426" d="M8.808 5.025h29c2.216 0 4 1.784 4 4v29c0 2.216-1.784 4-4 4h-29c-2.216 0-4-1.784-4-4v-29c0-2.216 1.784-4 4-4z" style="fill:none;fill-opacity:0;stroke:#fff;stroke-linecap:round;stroke-linejoin:round;stroke-opacity:1"/></svg>