<?xml version="1.0" encoding="UTF-8" standalone="no"?>
<svg
   viewBox="0 0 48 48"
   version="1.1"
   id="svg10"
   inkscape:version="1.4.4 (dcaf3e7d9e, 2026-05-05)"
   sodipodi:docname="musescore.svg"
   xmlns:inkscape="http://www.inkscape.org/namespaces/inkscape"
   xmlns:sodipodi="http://sodipodi.sourceforge.net/DTD/sodipodi-0.dtd"
   xmlns="http://www.w3.org/2000/svg"
   xmlns:svg="http://www.w3.org/2000/svg">
  <sodipodi:namedview
     id="namedview1"
     pagecolor="#ffffff"
     bordercolor="#666666"
     borderopacity="1.0"
     inkscape:showpageshadow="2"
     inkscape:pageopacity="0.0"
     inkscape:pagecheckerboard="0"
     inkscape:deskcolor="#d1d1d1"
     inkscape:zoom="12.433294"
     inkscape:cx="22.761466"
     inkscape:cy="27.024214"
     inkscape:window-width="1920"
     inkscape:window-height="1050"
     inkscape:window-x="0"
     inkscape:window-y="0"
     inkscape:window-maximized="1"
     inkscape:current-layer="svg10" />
  <defs
     id="defs1">
    <style
       id="style1">
         .a {
            fill: none;
            stroke: #000;
            stroke-linecap: round;
            stroke-linejoin: round;
         }
      </style>
  </defs>
  <path
     d="m 13.316185,19.7535 c -0.332798,-1.044337 -0.511726,-2.152125 -0.511726,-3.299625 0,-6.279682 5.35862,-11.370375 11.968861,-11.370375 3.81645,0 7.215637,1.69695 9.40725,4.339935 v 0 c 0.630225,0.68706 1.014862,1.603058 1.014862,2.608898 0,2.13211 -1.728337,3.860515 -3.860437,3.860515 -2.132213,0 -3.86055,-1.728405 -3.86055,-3.860515 0,-2.1321005 1.728337,-3.8605167 3.86055,-3.8605167 0.02937,0 0.05872,3.375e-4 0.08798,9.9e-4 -1.27485,-0.969525 -2.865713,-1.5450413 -4.591013,-1.5450413 -4.192627,0 -7.591444,3.398816 -7.591444,7.591466 0,2.182219 0.920779,4.149394 2.395012,5.534269 z"
     id="path1"
     class="a"
     style="stroke:#ffffff;stroke-opacity:1" />
  <path
     d="m 35.967638,30.549944 c 0,-0.787163 -0.0774,-1.557113 -0.225338,-2.303325 h -9.44055 c 1.21005,1.392975 1.945013,3.226612 1.945013,5.23575 0,4.357462 -3.456901,7.889962 -7.721078,7.889962 -1.718707,0 -3.306252,-0.573862 -4.589167,-1.544287 2.112007,-0.0234 3.816877,-1.742738 3.816877,-3.860325 0,-2.1321 -1.728417,-3.86055 -3.860517,-3.86055 -2.132099,0 -3.860515,1.72845 -3.860515,3.86055 0,0.9855 0.369255,1.884712 0.976968,2.566912 2.38785,2.680313 5.955146,4.381875 9.940796,4.381875 7.189335,0 13.017511,-5.536687 13.017511,-12.366562 z"
     id="path2"
     class="a"
     style="stroke:#ffffff;stroke-opacity:1" />
  <path
     d="m 31.720859,20.911531 h -8.49311 l -6.948933,6.176813 h 8.493143 z"
     id="path3"
     class="a"
     style="stroke:#ffffff;stroke-opacity:1" />
</svg>
