<svg xmlns="http://www.w3.org/2000/svg" xml:space="preserve" width="48" height="48"><path fill="none" stroke="#fff" stroke-linecap="round" stroke-linejoin="round" d="m19.718 21.41.07.06m0 0L24 25.068l4.213-3.598m0 0 .07-.06m-8.495 5.229L24 30.237l4.213-3.598M9.25 21.41v14.976H7.093v1.366H5.501v3.592h37v-3.592h-1.593v-1.366H38.75V21.411h-4.144v14.976h-2.25V21.411h-4.144v14.976h-8.425V21.411h-4.145v14.976h-2.249V21.411zm-2.006-4.486h33.513v2.478H7.244zm31.393-2.007v-1.18L24.063 6.655 9.49 13.738v1.18z" style="-inkscape-stroke:none"/></svg>
