<svg xmlns="http://www.w3.org/2000/svg" xml:space="preserve" id="svg1" version="1.1" viewBox="0 0 48 48"><defs id="defs1"><style id="style1">.a{fill:none;stroke:#fff;stroke-linecap:round;stroke-linejoin:round}</style></defs><path id="path17414" d="M16.707 12.362h19.881a2.553 2.553 0 0 1 2.56 2.559v26.02a2.553 2.553 0 0 1-2.56 2.559h-19.88a2.553 2.553 0 0 1-2.56-2.559v-26.02a2.553 2.553 0 0 1 2.56-2.56z" style="fill:none;stroke:#fff;stroke-width:1;stroke-linecap:round;stroke-linejoin:round;stroke-opacity:1"/><path id="path17412" d="M14.147 35.916H10.9a2.043 2.043 0 0 1-2.047-2.047V10.905c0-1.134.913-2.047 2.047-2.047v0h17.603c1.134 0 2.047.913 2.047 2.047v1.457" style="fill:none;stroke:#fff;stroke-width:1;stroke-linecap:round;stroke-linejoin:round;stroke-opacity:1"/><path id="path17410" d="M13.878 8.858v0l.157-2.442a2.042 2.042 0 0 1 2.174-1.912v0l17.458 1.123a2.043 2.043 0 0 1 1.912 2.174l-.293 4.562" style="fill:none;stroke:#fff;stroke-width:1;stroke-linecap:round;stroke-linejoin:round;stroke-opacity:1"/><path id="path17408" d="M21.438 24.68h10.419" style="fill:none;stroke:#fff;stroke-width:1;stroke-linecap:round;stroke-linejoin:round;stroke-opacity:1"/><path id="path17372" d="M21.438 26.957h10.419" style="fill:none;stroke:#fff;stroke-width:1;stroke-linecap:round;stroke-linejoin:round;stroke-opacity:1"/></svg>