<?xml version="1.0" encoding="UTF-8"?><svg id="a" xmlns="http://www.w3.org/2000/svg" viewBox="0 0 48 48"><defs><style>.d{fill:none;stroke:#fff;stroke-linecap:round;stroke-linejoin:round;}</style></defs><path class="d" d="m24 9.3748a19.5 19.5 0 0 0-19.5 19.5 19.5 19.5 0 0 0 2.6625 9.75h8.7279a12.698 12.698 0 0 1-4.588-9.75 12.698 12.698 0 0 1 12.698-12.698 12.698 12.698 0 0 1 12.698 12.698 12.698 12.698 0 0 1-4.588 9.75h8.7279a19.5 19.5 0 0 0 2.6625-9.75 19.5 19.5 0 0 0-19.5-19.5z"/><path class="d" d="m14.65 31.596a9.75 9.75 0 0 0 4.4747 5.7235 9.75 9.75 0 0 0 9.75 0 9.75 9.75 0 0 0 4.4747-5.7235z"/></svg>
