<?xml version="1.0" encoding="UTF-8" standalone="no"?>
<svg
   viewBox="0 0 48 48"
   version="1.1"
   id="svg1"
   sodipodi:docname="my_supermarket_simulator_3d.svg"
   inkscape:version="1.2.2 (b0a8486541, 2022-12-01)"
   xml:space="preserve"
   xmlns:inkscape="http://www.inkscape.org/namespaces/inkscape"
   xmlns:sodipodi="http://sodipodi.sourceforge.net/DTD/sodipodi-0.dtd"
   xmlns="http://www.w3.org/2000/svg"
   xmlns:svg="http://www.w3.org/2000/svg"><sodipodi:namedview
     id="namedview1"
     pagecolor="#505050"
     bordercolor="#eeeeee"
     borderopacity="1"
     inkscape:showpageshadow="0"
     inkscape:pageopacity="0"
     inkscape:pagecheckerboard="0"
     inkscape:deskcolor="#505050"
     inkscape:zoom="17.8125"
     inkscape:cx="19.031579"
     inkscape:cy="24.814035"
     inkscape:window-width="1918"
     inkscape:window-height="1053"
     inkscape:window-x="0"
     inkscape:window-y="0"
     inkscape:window-maximized="1"
     inkscape:current-layer="g4393"
     showgrid="false" /><defs
     id="defs1"><style
       id="style1">.a { fill:none;stroke:#fff;stroke-linecap:round;stroke-linejoin:round; }
</style></defs><path
     style="fill:none;stroke:#ffffff;stroke-linecap:round;stroke-linejoin:round;stroke-opacity:1;stop-color:#000000"
     d="m 9.5,5.5 h 29 c 2.216,0 4,1.784 4,4 v 29 c 0,2.216 -1.784,4 -4,4 h -29 c -2.216,0 -4,-1.784 -4,-4 v -29 c 0,-2.216 1.784,-4 4,-4 z"
     id="path4165" /><g
     id="g4259"
     style="display:inline"><g
       id="g4225"><path
         style="fill:none;stroke:#ffffff;stroke-linecap:round;stroke-linejoin:round;stroke-opacity:1;stop-color:#000000"
         d="m 22.370811,6.6070832 c 1.576128,-0.5285292 3.364292,0.1166573 3.519951,1.9881279 1.282818,0.6522628 0.993018,1.7988969 0.648368,2.9228619"
         id="path4163" /><path
         style="fill:none;stroke:#ffffff;stroke-linecap:round;stroke-linejoin:round;stroke-opacity:1;stop-color:#000000"
         d="m 19.915762,9.9623379 c -0.03345,0.6671361 0.09807,1.3311441 0.276317,1.9535931"
         id="path4161" /><path
         style="fill:none;stroke:#ffffff;stroke-linecap:round;stroke-linejoin:round;stroke-opacity:1;stop-color:#000000"
         d="m 22.440144,10.589791 c -1.290584,-0.6383325 -0.508918,-1.8113733 0.01144,-1.8743128 0.610024,-0.073785 1.02173,0.2978025 1.104941,0.8405681"
         id="path4159" /><path
         style="fill:none;stroke:#ffffff;stroke-linecap:round;stroke-linejoin:round;stroke-opacity:1;stop-color:#000000"
         d="m 21.078854,10.268913 -0.06944,0.282628"
         id="path4157" /><path
         style="fill:none;stroke:#ffffff;stroke-linecap:round;stroke-linejoin:round;stroke-opacity:1;stop-color:#000000"
         d="m 24.515136,9.768227 c 0.303199,-6.823e-4 0.590772,-0.00677 0.916008,1.722e-4 0.228418,0.00488 0.317856,0.1357876 0.411808,0.3856318"
         id="path4155" /><path
         style="fill:none;stroke:#ffffff;stroke-linecap:round;stroke-linejoin:round;stroke-opacity:1;stop-color:#000000"
         d="M 20.810129,9.1468608 C 19.720567,7.8998196 21.635921,6.8249949 22.788301,6.9528211"
         id="path4153" /><path
         style="fill:none;stroke:#ffffff;stroke-linecap:round;stroke-linejoin:round;stroke-opacity:1;stop-color:#000000"
         d="m 20.648738,13.925335 c 0.10256,2.020539 1.318883,3.20919 2.918893,3.48109 1.220975,-0.05953 2.004749,-1.763552 2.436653,-3.192847"
         id="path4151" /><path
         style="fill:none;stroke:#ffffff;stroke-linecap:round;stroke-linejoin:round;stroke-opacity:1;stop-color:#000000"
         d="m 23.496965,16.47837 -0.01455,0.787139"
         id="path4149" /><path
         style="fill:none;stroke:#ffffff;stroke-linecap:round;stroke-linejoin:round;stroke-opacity:1;stop-color:#000000"
         d="m 21.502202,16.089485 0.07783,-1.4074 c 1.357914,0.268051 2.557499,0.338892 3.619525,0.09354 l 0.111566,1.200959"
         id="path4147" /><path
         style="fill:none;stroke:#ffffff;stroke-linecap:round;stroke-linejoin:round;stroke-opacity:1;stop-color:#000000"
         d="m 19.811503,12.332793 c -0.273666,0.435604 -0.181967,1.131262 0.429049,1.771553"
         id="path4145" /><path
         style="fill:none;stroke:#ffffff;stroke-linecap:round;stroke-linejoin:round;stroke-opacity:1;stop-color:#000000"
         d="m 26.573854,12.450238 c 0.504059,0.428671 0.149526,1.829091 -0.555703,1.79222"
         id="path4143" /><path
         style="fill:none;stroke:#ffffff;stroke-linecap:round;stroke-linejoin:round;stroke-opacity:1;stop-color:#000000"
         d="m 23.426355,13.946274 0.04031,-0.457051"
         id="path4141" /></g><g
       id="g4235"><path
         style="fill:none;stroke:#ffffff;stroke-linecap:round;stroke-linejoin:round;stroke-opacity:1;stop-color:#000000"
         d="m 20.89173,15.957613 c -1.332268,0.710557 -0.250457,1.616768 1.02055,2.782628 0.919339,0.498504 1.008756,1.12076 1.272716,1.763111 0.596335,0.535851 0.744537,1.033235 1.057761,1.544783 0.856491,-2.467256 1.24965,-2.732485 1.082584,-4.519907"
         id="path4139" /><path
         style="fill:none;stroke:#ffffff;stroke-linecap:round;stroke-linejoin:round;stroke-opacity:1;stop-color:#000000"
         d="m 24.860207,16.946364 c 1.305992,1.161613 1.674223,1.979784 1.88172,3.717384 L 25.24885,19.361965"
         id="path4137" /><path
         style="fill:none;stroke:#ffffff;stroke-linecap:round;stroke-linejoin:round;stroke-opacity:1;stop-color:#000000"
         d="m 21.924099,18.670994 c -0.475157,0.586253 -1.310046,1.252399 -1.443283,2.2911 l -1.296678,-3.231342 1.127841,-1.290369"
         id="path4135" /><path
         style="fill:none;stroke:#ffffff;stroke-linecap:round;stroke-linejoin:round;stroke-opacity:1;stop-color:#000000"
         d="m 18.479296,26.21279 c 0.135707,-0.945814 0.170739,-1.963866 0.2111,-2.978092 3.574813,-0.295558 6.49962,-0.497122 9.937311,-0.02109 0.462174,2.233154 0.266467,3.55125 -0.252045,5.57761"
         id="path4133" /><path
         style="fill:none;stroke:#ffffff;stroke-linecap:round;stroke-linejoin:round;stroke-opacity:1;stop-color:#000000"
         d="m 19.02718,17.868824 c -1.331498,0.435244 -2.559329,0.870489 -4.184869,1.305733 -1.671551,0.447564 -2.401422,2.074613 -2.775446,3.809146 -0.0805,0.373337 -0.158037,0.706585 -0.239766,1.013583"
         id="path4131" /><path
         style="fill:none;stroke:#ffffff;stroke-linecap:round;stroke-linejoin:round;stroke-opacity:1;stop-color:#000000"
         d="m 26.5674,19.092449 c 1.735326,0.24764 3.283657,1.046965 3.738831,2.773192"
         id="path4129" /><path
         style="fill:none;stroke:#ffffff;stroke-linecap:round;stroke-linejoin:round;stroke-opacity:1;stop-color:#000000"
         d="m 26.871095,19.305713 c 0.557239,1.259111 1.214268,2.606536 1.1725,3.832582"
         id="path4127" /><path
         style="fill:none;stroke:#ffffff;stroke-linecap:round;stroke-linejoin:round;stroke-opacity:1;stop-color:#000000"
         d="m 17.689413,18.313466 c 1.367042,1.169341 1.577309,3.05927 1.985147,4.842625"
         id="path4125" /></g><g
       id="g4316"><path
         style="fill:none;stroke:#ffffff;stroke-linecap:round;stroke-linejoin:round;stroke-opacity:1;stop-color:#000000"
         d="m 20.176119,33.327262 1.752679,-0.265065 c 1.436998,0.986016 2.471762,0.45028 3.591108,-0.904878 l 0.997711,0.669013"
         id="path4089" /><path
         style="fill:none;stroke:#ffffff;stroke-linecap:round;stroke-linejoin:round;stroke-opacity:1;stop-color:#000000"
         d="m 22.138212,31.280538 c 0.695838,0.0537 1.3487,0.03718 1.875494,-0.233535 0.862614,-0.443286 1.724005,-1.266467 2.446205,-0.647902 l 1.276195,0.450252 1.146032,1.254362"
         id="path4087" /></g><g
       id="g4312"><path
         style="fill:none;stroke:#ffffff;stroke-linecap:round;stroke-linejoin:round;stroke-opacity:1;stop-color:#000000"
         d="m 29.341155,31.286221 c 0.278848,-0.957981 1.480689,-1.965141 2.926366,-1.787773"
         id="path4085" /><path
         style="fill:none;stroke:#ffffff;stroke-linecap:round;stroke-linejoin:round;stroke-opacity:1;stop-color:#000000"
         d="m 31.49178,29.584264 c 0.832816,0.436153 2.691176,1.192864 3.714741,1.379704"
         id="path3383" /></g></g><g
     id="g4393"><path
       style="fill:none;stroke:#ffffff;stroke-linecap:round;stroke-linejoin:round;stroke-opacity:1;stop-color:#000000"
       d="m 39.901091,26.607766 2.599374,-0.331493"
       id="path4123" /><path
       style="fill:none;stroke:#ffffff;stroke-linecap:round;stroke-linejoin:round;stroke-opacity:1;stop-color:#000000"
       d="M 37.741164,26.524796 40.047853,26.23063"
       id="path4121" /><path
       style="fill:none;stroke:#ffffff;stroke-linecap:round;stroke-linejoin:round;stroke-opacity:1;stop-color:#000000"
       d="m 42.499145,18.381466 -9.933111,0.641802 -1.946673,7.395015 1.988956,1.119511 4.906065,-0.625657"
       id="path4119" /><path
       style="fill:none;stroke:#ffffff;stroke-linecap:round;stroke-linejoin:round;stroke-opacity:1;stop-color:#000000"
       d="m 33.208318,27.361338 1.786869,-6.749047 7.504878,-0.669261"
       id="path4117" /><path
       style="fill:none;stroke:#ffffff;stroke-linecap:round;stroke-linejoin:round;stroke-opacity:1;stop-color:#000000"
       d="m 32.54091,19.120525 c 0.871665,0.57204 1.765523,1.127441 2.340898,1.921782"
       id="path4115" /><path
       style="fill:none;stroke:#ffffff;stroke-linecap:round;stroke-linejoin:round;stroke-opacity:1;stop-color:#000000"
       d="m 40.346026,30.958706 2.153842,0.564301"
       id="path4111" /><path
       style="fill:none;stroke:#ffffff;stroke-linecap:round;stroke-linejoin:round;stroke-opacity:1;stop-color:#000000"
       d="m 37.952044,30.644 -11.435088,2.114801 -0.01757,0.910822 -3.508351,1.099442 v 3.075282 l 9.841535,3.287222 9.667698,-2.623424"
       id="path4109" /><path
       style="fill:none;stroke:#ffffff;stroke-linecap:round;stroke-linejoin:round;stroke-opacity:1;stop-color:#000000"
       d="m 28.454455,33.45821 2.7996,1.125828 c 0.857437,0.344809 1.611827,1.331677 1.611827,2.255847 v 2.833897"
       id="path4107" /><path
       style="fill:none;stroke:#ffffff;stroke-linecap:round;stroke-linejoin:round;stroke-opacity:1;stop-color:#000000"
       d="m 37.961791,31.870543 c 0.0038,-2.586352 -0.102819,-3.723991 -0.447407,-4.957818 l 0.181699,-0.973289 -0.68707,-1.579803 2.514561,-0.303243 0.711136,1.697907 -0.333439,0.85299 c 0.343311,1.231609 0.449577,2.369729 0.445798,4.952051 l -2.385278,0.311205 v 0"
       id="path4113" /></g><g
     id="g4383"><path
       style="fill:none;stroke:#ffffff;stroke-linecap:round;stroke-linejoin:round;stroke-opacity:1;stop-color:#000000"
       d="m 10.205138,25.93125 h 2.431856 v 1.721103 h -2.431856 v -1.721103 0"
       id="path4105" /><path
       style="fill:none;stroke:#ffffff;stroke-linecap:round;stroke-linejoin:round;stroke-opacity:1;stop-color:#000000"
       d="m 10.455962,27.651345 -1.3961664,2.201998 c -0.4921555,0.776215 -0.3320408,3.794973 -0.2446045,7.526285 -0.4525078,1.379767 -0.3053105,2.444818 1.0532895,2.986809 0.7780534,0.432666 1.7804774,0.488475 2.3494774,-0.168631 0.251097,0.267208 0.722018,0.512479 1.188245,0.327249"
       id="path4103" /><path
       style="fill:none;stroke:#ffffff;stroke-linecap:round;stroke-linejoin:round;stroke-opacity:1;stop-color:#000000"
       d="m 17.10298,25.812167 h -2.431856 v 1.721104 h 2.431856 v -1.721104 0"
       id="path4101" /><path
       style="fill:none;stroke:#ffffff;stroke-linecap:round;stroke-linejoin:round;stroke-opacity:1;stop-color:#000000"
       d="m 12.406929,27.586752 1.2146,2.088928 1.31323,-2.143625"
       id="path4099" /><path
       style="fill:none;stroke:#ffffff;stroke-linecap:round;stroke-linejoin:round;stroke-opacity:1;stop-color:#000000"
       d="m 16.852105,27.532255 1.396167,2.201998 c 0.06668,0.105158 0.121378,0.251475 0.165913,0.435145"
       id="path4097" /><path
       style="fill:none;stroke:#ffffff;stroke-linecap:round;stroke-linejoin:round;stroke-opacity:1;stop-color:#000000"
       d="m 12.291675,31.629344 c -0.284363,0.01716 -0.576894,0.02585 -0.870609,0.02585 -1.028168,0 -2.0036592,-0.106167 -2.6645519,-0.289994"
       id="path4095" /><path
       style="fill:none;stroke:#ffffff;stroke-linecap:round;stroke-linejoin:round;stroke-opacity:1;stop-color:#000000"
       d="m 13.40731,37.073156 c -0.582973,0.09464 -1.276103,0.145376 -1.986244,0.145376 -1.004961,0 -1.9608096,-0.101447 -2.6213691,-0.278213"
       id="path4093" /><path
       style="fill:none;stroke:#ffffff;stroke-linecap:round;stroke-linejoin:round;stroke-opacity:1;stop-color:#000000"
       d="m 13.267233,41.785053 c 0.350978,-2.758684 0.284135,-4.254793 -0.01641,-6.393698 -0.25631,-1.824107 -0.862714,-3.62614 -1.426631,-4.981002 3.009547,0.230743 4.8052,-0.01686 8.345372,-0.445231 -0.312822,3.129148 0.532163,8.299123 1.272346,10.741353 -2.906509,0.190301 -5.528259,0.523992 -8.174678,1.078578 h 10e-7 v 0"
       id="path4091" /></g></svg>
