<?xml version="1.0" encoding="UTF-8"?><svg id="b" xmlns="http://www.w3.org/2000/svg" viewBox="0 0 48 48"><defs><style>.c{stroke-linecap:round;stroke-linejoin:round;}.c,.d{fill:none;stroke:#fff;}</style></defs><path class="c" d="M10.566,26.2869c-1.4295,6.238-.3897,10.2995,3.1194,12.1844,5.9677,2.0177,13.1819,1.8391,21.6426-.5355,4.1674-2.3898,4.7687-6.7444,1.8037-13.0636"/><path class="c" d="M21.0767,39.9872l.031.4045c-.001,1.4591-1.5685,2.526-3.4991,2.3836l-.5913-.0423c-1.9306-.1414-3.4981-1.4384-3.4991-2.8965l.031-1.3518"/><path class="c" d="M27.5043,39.6322v.6594c.001,1.6304,1.5674,2.8377,3.4991,2.6973l.5913-.0433c1.9317-.1414,3.496-1.5798,3.497-3.2091v-1.5427"/><path class="c" d="M9.8736,31.5598c-.5479.2322-.8977.3581-1.3187.4076-1.3724.163-2.0713-.6384-2.0968-2.4043.3952-2.4724,1.9038-4.5743,4.6207-6.8929-.9132-2.7438-1.1423-5.3771-.9277-8.4098.1685-2.3933,1.3019-4.5072,3.4-6.3419,1.38-1.2059,3.0547-1.9509,5.0242-2.235,4.5141-1.2231,9.2012-.8045,14.0614,1.2558,2.9409,1.2465,4.554,4.0037,4.8395,8.2715.1589,2.3764.1507,4.5248-.1961,6.7413,2.2877,1.9131,3.627,4.0677,4.2617,6.5081-.077,1.6943-.8792,2.4263-2.4063,2.1958"/><circle class="d" cx="15.1537" cy="11.9036" r="1.1691"/><circle class="d" cx="32.32" cy="11.4991" r="1.1691"/><path class="c" d="M29.5319,18.2373c.0877.163.26.6047.26.8028v1.2228c0,1.3218-2.6189,2.3929-5.8466,2.3929h-.8957c-3.2287,0-5.8466-1.0711-5.8466-2.3929v-1.2228c0-.2404.0722-.4643.2177-.9751-.5933-1.4302-.4334-2.5322.5015-3.6363,3.2997.4115,6.64.3744,9.9298-.1104.4413-.0634.8916-.0011,1.2991.1795.8138.3412.9823,1.2073.5056,2.5983-.0991.291-.0588.8389-.1249,1.1413"/><path class="c" d="M17.4166,18.066c3.6601,1.1815,7.8268,1.1082,12.0348-.1362"/><circle class="d" cx="33.5149" cy="17.6512" r="1.7542"/><circle class="d" cx="13.6802" cy="17.7409" r="1.7542"/></svg>