<svg xmlns="http://www.w3.org/2000/svg" xml:space="preserve" id="svg1" version="1.1" viewBox="0 0 48 48"><defs id="defs1"><style id="style1">.a{fill:none;stroke:#fff;stroke-linecap:round;stroke-linejoin:round}</style></defs><path id="path79512" d="M45.5 24A21.5 21.5 0 0 1 24 45.5 21.5 21.5 0 0 1 2.5 24 21.5 21.5 0 0 1 24 2.5 21.5 21.5 0 0 1 45.5 24Z" style="fill:none;stroke:#fff;stroke-width:1;stroke-linecap:round;stroke-linejoin:round;stroke-opacity:1"/><path id="path79510" d="M12.166 29.484v-9.278c0-3.047 2.453-5.5 5.5-5.5h.824c3.047 0 5.5 2.453 5.5 5.5l.001 7.87v-7.87c0-3.047 2.453-5.5 5.5-5.5h.825c3.047 0 5.5 2.453 5.5 5.5v9.278" style="fill:none;stroke:#fff;stroke-width:1;stroke-linecap:round;stroke-linejoin:round;stroke-opacity:1"/><path id="path79497" d="M29.54 32.29A6.88 5.644 0 0 1 24 34.586a6.88 5.644 0 0 1-5.54-2.296" style="fill:none;stroke:#fff;stroke-width:1;stroke-linecap:round;stroke-linejoin:round;stroke-opacity:1"/></svg>