<?xml version="1.0" encoding="UTF-8" standalone="no"?>
<svg
   viewBox="0 0 48 48"
   version="1.1"
   id="svg1"
   xml:space="preserve"
   xmlns="http://www.w3.org/2000/svg"
   xmlns:svg="http://www.w3.org/2000/svg"><defs
     id="defs1"><style
       id="style1">.a{fill:none;stroke:#fff;stroke-linecap:round;stroke-linejoin:round;}</style></defs><path
     class="a"
     d="M40.5,5.5H7.5a2,2,0,0,0-2,2v33a2,2,0,0,0,2,2h33a2,2,0,0,0,2-2V7.5A2,2,0,0,0,40.5,5.5Z"
     id="path1" /><g
     id="g2"
     transform="matrix(0.88243373,0,0,0.88243373,3.880511,1.5222774)"
     style="stroke-width:1.13322"><path
       class="t"
       d="m 29.5,14.8 v 2.7 c 0,1.1046 -0.8954,2 -2,2 v 0 c -0.5523,0 -1.0523,-0.2238 -1.4142,-0.5858"
       id="path371"
       style="fill:none;stroke:#ffffff;stroke-width:1.13322;stroke-linecap:round;stroke-linejoin:round" /><path
       class="t"
       d="m 29.5,11.5 v 3.3 c 0,1.1046 -0.8954,2 -2,2 v 0 c -1.1046,0 -2,-0.8954 -2,-2 v -3.3"
       id="path372"
       style="fill:none;stroke:#ffffff;stroke-width:1.13322;stroke-linecap:round;stroke-linejoin:round" /></g><g
     id="g1"
     transform="matrix(0.88243373,0,0,0.88243373,5.2924049,1.5222774)"
     style="stroke-width:1.13322"><path
       class="t"
       d="m 14.5,13.500002 c 0,-1.1046 0.8954,-2 2,-2 v 0 c 1.1046,0 2,0.8954 2,2 v 3.3"
       id="path375"
       style="fill:none;stroke:#ffffff;stroke-width:1.13322;stroke-linecap:round;stroke-linejoin:round" /><line
       class="t"
       x1="14.500001"
       y1="11.5"
       x2="14.500001"
       y2="16.800003"
       id="line375"
       style="fill:none;stroke:#ffffff;stroke-width:1.13322;stroke-linecap:round;stroke-linejoin:round" /><path
       class="t"
       d="m 18.5,13.500002 c 0,-1.1046 0.8954,-2 2,-2 v 0 c 1.1046,0 2,0.8954 2,2 v 3.3"
       id="path376"
       style="fill:none;stroke:#ffffff;stroke-width:1.13322;stroke-linecap:round;stroke-linejoin:round" /></g><polyline
     class="t"
     points="205.8338 48.6412 205.8338 40.65 209.8338 48.65 213.8338 40.6622 213.8338 48.65"
     id="polyline347"
     style="fill:none;stroke:#ffffff;stroke-width:1.1081;stroke-linecap:round;stroke-linejoin:round"
     transform="matrix(0.90243802,0,0,0.90243802,-171.45346,-12.293858)" /><polyline
     class="t"
     points="217.2043 48.65 217.2043 40.65 222.5043 48.65 222.5043 40.65"
     id="polyline364"
     style="fill:none;stroke:#ffffff;stroke-width:1.1081;stroke-linecap:round;stroke-linejoin:round"
     transform="matrix(0.90243802,0,0,0.90243802,-167.09512,-12.293858)" /><g
     id="g3"
     transform="matrix(0.90243802,0,0,0.90243802,3.4244206,3.1829551)"
     style="stroke-width:1.1081"><line
       class="t"
       x1="21.499998"
       y1="23.5"
       x2="26.799986"
       y2="23.5"
       id="line359"
       style="fill:none;stroke:#ffffff;stroke-width:1.1081;stroke-linecap:round;stroke-linejoin:round" /><line
       class="t"
       x1="24.149992"
       y1="31.5"
       x2="24.149992"
       y2="23.5"
       id="line360"
       style="fill:none;stroke:#ffffff;stroke-width:1.1081;stroke-linecap:round;stroke-linejoin:round" /></g><ellipse
     style="fill:none;stroke:#ffffff;stroke-linecap:round;stroke-linejoin:round;stroke-dashoffset:0.5"
     id="path3"
     cx="24.00008"
     cy="28"
     rx="16.03335"
     ry="7.9041171" /></svg>
