<?xml version="1.0" encoding="UTF-8"?><svg id="a" xmlns="http://www.w3.org/2000/svg" viewBox="0 0 48 48"><defs><style>.p{fill:none;stroke:#fff;stroke-linecap:round;stroke-linejoin:round;}</style></defs><path id="b" class="p" d="M38.5,5.5H9.5c-2.2091,0-4,1.7909-4,4v29c0,2.2091,1.7909,4,4,4h29c2.2091,0,4-1.7909,4-4V9.5c0-2.2091-1.7909-4-4-4Z"/><g id="c"><path id="d" class="p" d="M29.9576,14.3884v2.229c0,.9119-.7392,1.6511-1.6511,1.6511h0c-.456,0-.8687-.1848-1.1675-.4836"/><path id="e" class="p" d="M29.9576,11.664v2.7244c0,.9119-.7392,1.6511-1.6511,1.6511h0c-.9119,0-1.6511-.7392-1.6511-1.6511v-2.7244"/></g><g id="f"><path id="g" class="p" d="M18.0424,13.3151c0-.9119.7392-1.6511,1.6511-1.6511h0c.9119,0,1.6511.7392,1.6511,1.6511v2.7243"/><line id="h" class="p" x1="18.0424" y1="11.664" x2="18.0424" y2="16.0395"/><path id="i" class="p" d="M21.3447,13.3151c0-.9119.7392-1.6511,1.6511-1.6511h0c.9119,0,1.6511.7392,1.6511,1.6511v2.7243"/></g><polyline id="j" class="p" points="14.073 31.311 14.073 24.5642 17.4501 31.3184 20.8272 24.5745 20.8272 31.3184"/><polyline id="k" class="p" points="29.1645 31.3184 29.1645 24.5642 33.6392 31.3184 33.6392 24.5642"/><g id="l"><line id="m" class="p" x1="22.8185" y1="24.5642" x2="27.2932" y2="24.5642"/><line id="n" class="p" x1="25.0558" y1="31.3184" x2="25.0558" y2="24.5642"/></g><ellipse id="o" class="p" cx="24" cy="27.9413" rx="15" ry="7.3947"/></svg>