<?xml version="1.0" encoding="UTF-8"?><svg id="a" xmlns="http://www.w3.org/2000/svg" viewBox="0 0 48 48"><defs><style>.b{fill:none;stroke:#fff;stroke-linecap:round;stroke-linejoin:round;}</style></defs><path class="b" d="M4.5,13.5c0-2.216,1.784-4,4-4"/><path class="b" d="M8.5,38.5c-2.216,0-4-1.784-4-4"/><path class="b" d="M43.5,34.5c0,2.216-1.784,4-4,4"/><path class="b" d="M39.5,9.5c2.216,0,4,1.784,4,4"/><rect class="b" x="9" y="14" width="30" height="20" rx="1.5" ry="1.5"/><rect class="b" x="21" y="23.5" width="16" height="8.5"/><path class="b" d="M14.75,23.875c-.831,0-1.5.669-1.5,1.5v1c0,1.3868.6764,1.2968.6764,2.6836-2.3256,0-2.3073,1.4509-2.3073,2.5664h6.7617c0-1.0714-.0829-2.5664-2.3073-2.5664,0-1.298.6764-1.2036.6764-2.6836v-1c0-.831-.669-1.5-1.5-1.5h-.4999Z"/></svg>