<?xml version="1.0" encoding="UTF-8" standalone="no"?>
<svg
   viewBox="0 0 48 48"
   version="1.1"
   id="svg1"
   xmlns="http://www.w3.org/2000/svg"
   xmlns:svg="http://www.w3.org/2000/svg">
  <defs
     id="defs1">
    <style
       id="style1">.a{fill:none;stroke:#fff;stroke-linecap:round;stroke-linejoin:round;}</style>
  </defs>
  <path
     class="a"
     d="M40.5,5.5H7.5a2,2,0,0,0-2,2v33a2,2,0,0,0,2,2h33a2,2,0,0,0,2-2V7.5A2,2,0,0,0,40.5,5.5Z"
     id="path1" />
  <g
     id="g1"
     transform="matrix(1.4258514,0,0,1.4258514,-12.37296,-13.4286)"
     style="stroke-width:0.701331">
    <path
       class="t"
       d="m 15.5,25.500002 c 0,-1.1046 0.8954,-2 2,-2 v 0 c 1.1046,0 2,0.8954 2,2 v 3.3"
       id="path375"
       style="fill:none;stroke:#ffffff;stroke-width:0.701331;stroke-linecap:round;stroke-linejoin:round" />
    <line
       class="t"
       x1="15.500001"
       y1="23.5"
       x2="15.500001"
       y2="28.800003"
       id="line375"
       style="fill:none;stroke:#ffffff;stroke-width:0.701331;stroke-linecap:round;stroke-linejoin:round" />
    <path
       class="t"
       d="m 19.5,25.500002 c 0,-1.1046 0.8954,-2 2,-2 v 0 c 1.1046,0 2,0.8954 2,2 v 3.3"
       id="path376"
       style="fill:none;stroke:#ffffff;stroke-width:0.701331;stroke-linecap:round;stroke-linejoin:round" />
  </g>
  <g
     id="g2"
     transform="matrix(1.4258514,0,0,1.4258514,-11.963659,-13.143432)"
     style="stroke-width:0.701331">
    <path
       class="t"
       d="m 28.5,26.8 v 2.7 c 0,1.1046 -0.8954,2 -2,2 v 0 c -0.5523,0 -1.0523,-0.2238 -1.4142,-0.5858"
       id="path371"
       style="fill:none;stroke:#ffffff;stroke-width:0.701331;stroke-linecap:round;stroke-linejoin:round" />
    <path
       class="t"
       d="m 28.5,23.5 v 3.3 c 0,1.1046 -0.8954,2 -2,2 v 0 c -1.1046,0 -2,-0.8954 -2,-2 v -3.3"
       id="path372"
       style="fill:none;stroke:#ffffff;stroke-width:0.701331;stroke-linecap:round;stroke-linejoin:round" />
  </g>
  <g
     id="g3"
     transform="matrix(1.4258514,0,0,1.4258514,-11.347356,-13.000838)"
     style="stroke-width:0.701331">
    <line
       class="t"
       x1="34.799984"
       y1="28.499901"
       x2="32.149883"
       y2="25.881599"
       id="line480"
       style="fill:none;stroke:#ffffff;stroke-width:0.701331;stroke-linecap:round;stroke-linejoin:round" />
    <rect
       class="t"
       x="29.499998"
       y="20.5"
       width="5.3000002"
       height="8"
       rx="2.6500001"
       ry="2.6500001"
       id="rect481"
       style="fill:none;stroke:#ffffff;stroke-width:0.701331;stroke-linecap:round;stroke-linejoin:round" />
  </g>
</svg>
