<svg xmlns="http://www.w3.org/2000/svg" xml:space="preserve" id="svg1" version="1.1" viewBox="0 0 48 48"><defs id="defs1"><style id="style1">.a{fill:none;stroke:#fff;stroke-linecap:round;stroke-linejoin:round}</style></defs><path id="path10105" d="m41.399375 8.6791901.768784.920066c2.031876 2.4317139 1.710059 6.0252069-.721562 8.0571609L30.94704 26.430236c-2.431621 2.031953-6.024979 1.710125-8.056854-.721588l-.768783-.920066c-2.031877-2.431714-1.71006-6.025208.721562-8.057162L33.34252 7.957601c2.431622-2.0319523 6.024979-1.7101245 8.056855.7215891z" style="fill:none;stroke:#fff;stroke-width:1;stroke-linecap:round;stroke-linejoin:round;stroke-opacity:1;stop-color:#000"/><path id="rect8590" d="m25.109815 22.291352.768783.920066c2.031877 2.431714 1.710059 6.025207-.721562 8.057161l-10.499556 8.77382c-2.431621 2.031952-6.0249786 1.710124-8.0568554-.72159l-.7687833-.920065c-2.0318752-2.431714-1.7100596-6.025208.7215617-8.057161l10.499558-8.77382c2.431621-2.031953 6.024978-1.710125 8.056854.721589z" style="fill:none;stroke:#fff;stroke-width:1;stroke-linecap:round;stroke-linejoin:round;stroke-opacity:1;stop-color:#000"/></svg>