<svg xmlns="http://www.w3.org/2000/svg" xml:space="preserve" viewBox="0 0 48 48"><path d="M20.329398 26.815255c.172804 6.63851-3.251223 17.888848-7.906787 16.584255-3.2813401-.919507-4.0128991-5.147881 2.483359-10.852143 5.738705-5.039066 14.513761-6.750997 19.21861-5.486568 4.356999 1.210558 6.469735 4.562433 3.907898 7.332243-3.567923 3.857572-11.016655-2.666479-11.38403-11.216226-.292041-6.796506.715962-10.317176 2.577503-14.3743469 2.199648-4.7940683 6.252199-5.5792412 7.390967-2.373944 1.347015 3.7914519-3.387694 8.7174499-6.277565 10.7165929-10.229256 7.076361-22.0484581 5.453345-21.4435093-.132788.4575266-4.224825 5.0695843-5.728571 8.3658193-1.200053 3.176563 4.364107 2.964879 7.051558 3.067735 11.002978" style="fill:none;stroke:#fff;stroke-width:1;stroke-linecap:round;stroke-linejoin:round;stroke-dashoffset:1.3;stroke-opacity:1"/><circle cx="33.11438" cy="30.498251" r=".75" style="fill:#fff;fill-opacity:1;stroke:none;stroke-width:1;stroke-linecap:round;stroke-linejoin:round;stroke-dashoffset:1.3;stroke-opacity:.429504"/><circle cx="31.935423" cy="9.8807039" r=".75" style="fill:#fff;fill-opacity:1;stroke:none;stroke-width:1;stroke-linecap:round;stroke-linejoin:round;stroke-dashoffset:1.3;stroke-opacity:.429504"/><circle cx="13.374036" cy="17.600006" r=".75" style="fill:#fff;fill-opacity:1;stroke:none;stroke-width:1;stroke-linecap:round;stroke-linejoin:round;stroke-dashoffset:1.3;stroke-opacity:.429504"/><circle cx="23.451265" cy="24.217556" r=".75" style="fill:#fff;fill-opacity:1;stroke:none;stroke-width:1;stroke-linecap:round;stroke-linejoin:round;stroke-dashoffset:1.3;stroke-opacity:.429504"/><circle cx="14.60914" cy="37.115795" r=".75" style="fill:#fff;fill-opacity:1;stroke:none;stroke-width:1;stroke-linecap:round;stroke-linejoin:round;stroke-dashoffset:1.3;stroke-opacity:.429504"/></svg>