<svg xmlns="http://www.w3.org/2000/svg" viewBox="0 0 48 48" xmlns:v="https://vecta.io/nano"><path d="M36.189 18.127v21.419c0 1.153-.944 2.262-2.621 2.262-1.521 0-3.355-.556-4.705-1.191m-9.347-15.228h21.972M20.826 9.917h19.173m-9.826-4.225v11.781m-10.599.358h22.032M22.791 30.564a19.706 19.69 0 0 1 5.003 4.999M6.893 22.506h8.575M8.659 9.625h5.042a1.76 1.76 0 0 1 1.766 1.765v23.187a1.76 1.76 0 0 1-1.766 1.765H8.659a1.76 1.76 0 0 1-1.766-1.765V11.39a1.76 1.76 0 0 1 1.766-1.765z" fill="none" stroke="#000" stroke-linecap="round" stroke-linejoin="round"/></svg>