<?xml version="1.0" encoding="UTF-8" standalone="no"?>
<!-- Created with Inkscape (http://www.inkscape.org/) -->

<svg
   width="48"
   height="48"
   viewBox="0 0 48 48"
   version="1.1"
   id="svg1"
   xml:space="preserve"
   inkscape:version="1.4.2 (f4327f4, 2025-05-13)"
   sodipodi:docname="navicon.svg"
   xmlns:inkscape="http://www.inkscape.org/namespaces/inkscape"
   xmlns:sodipodi="http://sodipodi.sourceforge.net/DTD/sodipodi-0.dtd"
   xmlns="http://www.w3.org/2000/svg"
   xmlns:svg="http://www.w3.org/2000/svg"><sodipodi:namedview
     id="namedview1"
     pagecolor="#ffffff"
     bordercolor="#000000"
     borderopacity="0.25"
     inkscape:showpageshadow="2"
     inkscape:pageopacity="0.0"
     inkscape:pagecheckerboard="true"
     inkscape:deskcolor="#d1d1d1"
     inkscape:document-units="px"
     inkscape:zoom="13.906433"
     inkscape:cx="21.10534"
     inkscape:cy="49.653278"
     inkscape:window-width="1439"
     inkscape:window-height="2080"
     inkscape:window-x="1192"
     inkscape:window-y="0"
     inkscape:window-maximized="0"
     inkscape:current-layer="svg1" /><defs
     id="defs1"><pattern
       id="EMFhbasepattern"
       patternUnits="userSpaceOnUse"
       width="6"
       height="6"
       x="0"
       y="0" /></defs><g
     id="g1"
     inkscape:label="icon"
     transform="matrix(1.0005838,0,0,1.0005838,-0.00271387,-0.00717683)"><path
       style="fill:none;stroke:#ffffff;stroke-width:0.99941654;stroke-linecap:round;stroke-linejoin:round;stroke-dasharray:none;stroke-opacity:1;paint-order:stroke fill markers"
       d="M 12.32935,35.217534 C 8.9121219,34.66999 7.766461,30.025812 10.573415,28.099482 c 0.08351,-0.05731 0.161596,-0.114963 0.173526,-0.128117 0.07125,-0.07856 0.505386,-0.307156 0.802558,-0.422591 1.896084,-0.736517 4.187332,0.168198 5.020478,1.982372 1.345742,2.930349 -1.086472,6.19178 -4.240627,5.686388 z m 18.394788,-0.0031 c -2.898766,-0.51957 -4.299442,-3.934204 -2.571527,-6.268986 1.254607,-1.695242 3.427733,-2.153019 5.261182,-1.108288 0.09544,0.05438 0.183287,0.111312 0.195217,0.126508 0.01193,0.0152 0.102449,0.08238 0.201152,0.149305 1.567032,1.062443 2.037252,3.489007 1.007964,5.201582 -0.830513,1.381845 -2.545059,2.177507 -4.093988,1.899879 z M 17.904894,33.160295 c 0,-0.03205 0.03742,-0.167036 0.08315,-0.299959 0.603692,-1.754663 0.07094,-3.933092 -1.292148,-5.283585 -3.322216,-3.291525 -8.8708452,-1.051268 -8.9713236,3.622167 -0.00921,0.428149 -0.02443,0.786145 -0.033833,0.795548 -0.044248,0.04425 -1.1227556,-1.100371 -1.3808972,-1.465545 -1.5597607,-2.206483 -1.5238936,-5.531087 0.080923,-7.500888 0.031003,-0.03805 0.1813634,-0.225363 0.3341341,-0.416242 0.6528315,-0.815678 1.9240667,-1.663505 2.9591945,-1.973581 0.7512982,-0.225053 1.0572322,-0.270059 1.8665702,-0.274588 0.369187,-0.0021 0.671249,-0.0099 0.671249,-0.01732 0,-0.179745 0.329142,-1.381047 0.472797,-1.725616 0.01989,-0.04772 0.05673,-0.135568 0.08187,-0.195217 0.587045,-1.393362 1.530255,-2.687401 2.56186,-3.514748 0.103549,-0.08304 0.240201,-0.196399 0.303671,-0.251898 0.443969,-0.388204 1.756553,-1.104061 2.479695,-1.352375 0.08351,-0.02868 0.190879,-0.06944 0.238598,-0.09059 0.146333,-0.06485 0.690817,-0.204421 1.171302,-0.300236 0.676974,-0.134999 2.453517,-0.164176 2.975476,-0.04887 0.105257,0.02325 0.308506,0.06452 0.451665,0.09171 0.143159,0.02719 0.309094,0.06554 0.368743,0.08522 0.05965,0.01969 0.196302,0.05984 0.303671,0.08924 0.504399,0.138088 0.602147,0.1781 1.756952,0.719193 1.030189,0.482703 2.696391,1.990108 3.253615,2.943531 0.0409,0.06998 0.06199,0.06986 0.368743,-0.0021 0.398794,-0.09353 1.66587,-0.107842 2.038932,-0.02304 0.518849,0.117949 0.633958,0.146529 0.759177,0.18849 0.260889,0.08742 0.586755,0.227181 0.867631,0.372105 0.119299,0.06156 0.260679,0.132866 0.314178,0.158469 0.0535,0.0256 0.09742,0.06119 0.09761,0.07909 1.86e-4,0.01789 0.02093,0.03254 0.0461,0.03254 0.185254,0 1.095492,0.776256 1.500641,1.279755 0.382513,0.475369 0.851335,1.314729 1.017684,1.822024 0.08011,0.244292 0.09465,0.257674 0.351423,0.323296 0.126309,0.03228 0.258934,0.07296 0.294724,0.09039 0.03579,0.01743 0.113877,0.05072 0.173526,0.07398 0.629781,0.245533 1.25279,0.657365 1.756605,1.161179 0.469619,0.469619 0.649239,0.724171 1.009933,1.431243 0.798905,1.566103 0.688164,3.428604 -0.299709,5.040662 l -0.0849,0.138549 0.294855,0.08415 c 1.002798,0.286206 1.594514,0.358259 2.899165,0.353031 1.222985,-0.0049 1.196137,-0.01406 0.927272,0.316393 -1.22053,1.500112 -3.253411,2.661764 -5.44037,3.108798 -1.192674,0.243794 -1.16405,0.25114 -1.026662,-0.263488 0.143448,-0.537328 0.162055,-1.789336 0.03526,-2.372187 -0.741663,-3.409151 -4.522058,-5.18035 -7.610607,-3.565738 -2.185344,1.14244 -3.343313,3.931829 -2.567878,6.185669 0.158461,0.460576 0.679088,0.409642 -4.187172,0.409642 -3.548069,0 -4.273082,-0.0099 -4.273082,-0.05828 z"
       id="path1"
       sodipodi:nodetypes="ssscsssssscssccssssssscsccccscsssccssccssssssssscssscssssscssscc"
       inkscape:label="Path1" /><rect
       style="fill:none;stroke:#ffffff;stroke-width:0.99941654;stroke-linecap:round;stroke-linejoin:round;stroke-dasharray:none;stroke-opacity:1;paint-order:stroke fill markers"
       id="rect1"
       width="7.4965315"
       height="7.4785547"
       x="18.372793"
       y="18.534588"
       ry="1.9415474" /></g></svg>
