<?xml version="1.0" encoding="UTF-8"?>
<svg version="1.1" viewBox="0 0 48 48" xmlns="http://www.w3.org/2000/svg"><defs><style>.a{fill:none;stroke:#fff;stroke-linecap:round;stroke-linejoin:round;}</style></defs><path d="m30.164 38.985c0.75834-0.98633 2.967-0.99383 2.967-0.99383" fill="none" stop-color="#000000" stroke="#fff" stroke-linecap="round" stroke-linejoin="round" style="paint-order:fill markers stroke"/><g fill="none" stroke="#fff" stroke-linecap="round" stroke-linejoin="round"><path d="m33.322 35.048c-0.23359-1.5673-0.97297-0.28184-1.3825-1.5981-0.40499 0.32037-0.03071 1.2136-0.68611 1.3796-0.25916 0.01992-0.4947 0.22147-0.4947 0.22147s-0.3516 0.36789-0.82869-0.22838-0.4413 0.70658-0.4413 0.70658-0.25028 2.7199 0.67483 3.4556" stop-color="#000000" style="paint-order:fill markers stroke"/><path d="m29.529 37.543s-0.77041-0.56094-1.0247-0.81728" stop-color="#000000" style="paint-order:fill markers stroke"/><path d="m31.796 36.084a0.25 0.25 0 0 1-0.25 0.25 0.25 0.25 0 0 1-0.25-0.25 0.25 0.25 0 0 1 0.25-0.25 0.25 0.25 0 0 1 0.25 0.25z" stop-color="#000000" stroke-width=".5" style="paint-order:fill markers stroke"/><path d="m13.856 24.617c0.74361-2.4674 0.08202-4.0259 0.8903-9.0226s3.1445-7.9032 9.1323-8.0212c5.9879-0.118 7.2088 4.8161 6.7126 9.181-0.49626 4.3649-1.1509 7.1762-1.0193 7.8627" stop-color="#000000" style="paint-order:fill markers stroke"/><path d="m15.23 12.683c-0.53981-2.3745-0.64139-5.4129-0.45063-6.3136 0.79433 0.1579 5.2572 1.6974 5.2572 1.6974" stop-color="#000000" style="paint-order:fill markers stroke"/><path d="m14.779 6.369c0.35596 2.6932 1.457 4.4194 1.457 4.4194" stop-color="#000000" style="paint-order:fill markers stroke"/><path d="m28.842 9.248c2.1126 1.0468 6.144 0.76758 6.5644 1.014 0.42038 0.24644-2.2036 5.9806-2.4687 6.1724" stop-color="#000000" style="paint-order:fill markers stroke"/><path d="m30.575 17.041c1.1961-1.1684 2.6498-0.63643 3.3006 0.43915 0.65077 1.0756 0.11816 2.448-0.57854 2.9662-0.55248 0.41094-1.9982 0.89734-3.1137-0.27199" stop-color="#000000" style="paint-order:fill markers stroke"/><path d="m34.169 18.859c0.2394 2.0601-0.1136 4.3884 0.0057 5.7576" stop-color="#000000" style="paint-order:fill markers stroke"/><path d="m35.377 10.86c-1.565 0.6175-4.2922 3.5883-4.6225 4.1569" stop-color="#000000" style="paint-order:fill markers stroke"/><path d="m16.883 16.531c-0.79863 3.1219-0.70993 6.225-0.70993 6.225s0.93407 1.5965 2.8083 1.8578" stop-color="#000000" style="paint-order:fill markers stroke"/><path d="m16.464 18.542c0.60833 0.10907 2.1867-1.2149 2.8101-3.6324 0.62345-2.4175 0.89516-2.7194 0.89516-2.7194" stop-color="#000000" style="paint-order:fill markers stroke"/><path d="m19.161 15.51c0.27134 7.9909 5.6354 3.6939 6.5465 0.6378 0 0 0.4054-2.4855 0.32961-3.647" stop-color="#000000" style="paint-order:fill markers stroke"/><path d="m25.707 16.148c0.14706 1.3875 1.2778 4.7421 1.2778 4.7421" stop-color="#000000" style="paint-order:fill markers stroke"/><path d="m27.258 19.313c-0.01189 2.1151-1.1641 5.3043-3.0625 5.3043" stop-color="#000000" style="paint-order:fill markers stroke"/><path d="m15.56 21.575 1.2076 0.15738" stop-color="#000000" style="paint-order:fill markers stroke"/><path d="m25.512 23.062 1.2645 0.09266" stop-color="#000000" style="paint-order:fill markers stroke"/><path d="m18.335 18.834-0.36704 1.9898" stop-color="#000000" style="paint-order:fill markers stroke"/><path d="m25.441 20.004-0.33994 1.9139" stop-color="#000000" style="paint-order:fill markers stroke"/><path d="m11.293 32.09-2.8126-0.20505 3.0823-7.2682 24.28-4.5e-4 3.5904 7.0319h-10.915l-2.395-6.9146v16.695l-14.56-0.64785v-16.164" stop-color="#000000" style="paint-order:fill markers stroke"/><path d="m36.708 31.685v9.4726l-10.585 0.27125" stop-color="#000000" style="paint-order:fill markers stroke"/></g></svg>
