<svg id="b" xmlns="http://www.w3.org/2000/svg" viewBox="0 0 48 48"><defs><style>.c{fill:none;stroke:#fff;stroke-linecap:round;stroke-linejoin:round}</style></defs><path class="c" d="M30.004 36.684h-.01c-.887-.17-1.821-.368-2.303-.358-.878.019-.132.783.623 1.538-2.37.151-5.031-.575-8.005-2.18 1.227 2.775 0 2.51-3.691-.774.075 2.53-1.464 1.435-4.645-3.286q-1.357 5.24-1.765-3.738c-1.228 3.295-2.87 3.096-1.889-1.624v-.01c.104-.471.227-1 .388-1.576-.199-.34-.34-.67-.406-.991-.16-.604-.114-1.18.141-1.709l-4.71-8.477c3.558-.36 6.976-.293 10.252.217 2.926-4.173 4.2-4.579 3.814-1.228 3.634-4.408 5.38-4.72 5.24-.925 3.86-3.077 5.342-3.002 4.455.236q4.7-3.37 3.805.453l9.327-3.068c2.407-.887 3.125-.227 2.162 1.973a964 964 0 0 1-3.503 8.147c.104.114.208.236.302.359q1.19 1.428 1.671 3.125c.33 1.123.435 2.34.303 3.653-.803-.538-1.417-1.029-1.822-1.463.302.887.443 1.982.415 3.276"/><path class="c" d="M16.037 23.876q2.672-.764 3.757 1.888-.537-2.077 1.567-4.022-2.785-.226-4.012-2.917.548 2.805-1.312 5.05m10.715-2.029q2.737-.49 3.55 2.256-.33-2.124 1.963-3.842-2.747-.51-3.7-3.314.263 2.851-1.813 4.9M3.5 25.98q5.768-3.615 10.488-2.784m-9.166 5.277q4.739-3.578 8.855-3.757m19.476-3.049q5.693-2.73 11.205-2.077m-10.516 3.38q6.353-.794 10.658.405"/><circle class="c" cx="35.174" cy="32.589" r="6.608"/><path class="r" style="fill:none;stroke:#fff;stroke-linecap:round;stroke-linejoin:round;stroke-width:1px" d="m33.997 30.462 1.484-.809v5.938"/></svg>