<?xml version="1.0" encoding="utf-8"?>
<svg
	version="1.1"
	xmlns="http://www.w3.org/2000/svg"
	xmlns:xlink="http://www.w3.org/1999/xlink"
	x="0%" y="0%"
	width="100%" height="100%"
	viewBox="0 0 48.0 48.0"
	enable-background="new 0 0 48.0 48.0"
	xml:space="preserve">
	<path
		fill="#FFFFFF"
		stroke="#FFFFFF"
		fill-opacity="0.000"
		stroke-opacity="1.000"
		fill-rule="nonzero"
		stroke-width="1.000"
		stroke-linejoin="round"
		stroke-linecap="square"
		d="M36.68,31.73C38.56,31.73,40.08,33.25,40.08,35.13C40.08,37.00,38.56,38.52,36.68,38.52C34.81,38.52,33.29,37.00,33.29,35.13C33.29,33.25,34.81,31.73,36.68,31.73z"/>
	<path
		fill="#FFFFFF"
		stroke="#FFFFFF"
		fill-opacity="0.000"
		stroke-opacity="1.000"
		fill-rule="nonzero"
		stroke-width="1.000"
		stroke-linejoin="round"
		stroke-linecap="square"
		d="M33.20,37.54C33.05,37.63,32.90,37.71,32.29,37.54C31.68,37.37,30.61,36.94,30.74,37.21C30.88,37.49,32.22,38.48,31.54,38.60C30.86,38.71,28.17,37.95,27.22,37.97C26.28,37.99,27.08,38.80,27.88,39.60Q24.11,39.84,19.40,37.29Q21.35,41.69,15.49,36.47Q15.61,40.49,10.57,32.99Q9.13,38.54,8.70,29.03C7.27,32.87,5.30,32.23,7.11,25.63Q6.21,24.06,6.83,22.77L1.84,13.79Q7.49,13.21,12.70,14.02Q17.35,7.39,16.74,12.72Q22.51,5.71,22.28,11.74Q28.42,6.84,27.01,11.99Q31.98,8.41,31.03,12.47L40.92,9.22Q44.74,7.81,43.21,11.31Q41.90,14.38,39.50,19.94Q42.33,23.06,41.91,27.50Q40.63,26.64,39.97,25.95Q40.67,27.97,40.30,31.30Q39.23,30.04,38.72,29.51Q38.83,31.31,38.72,31.88"/>
	<path
		fill="#FFFFFF"
		stroke="#FFFFFF"
		fill-opacity="0.000"
		stroke-opacity="1.000"
		fill-rule="nonzero"
		stroke-width="1.000"
		stroke-linejoin="round"
		stroke-linecap="square"
		d="M14.87,24.78Q17.70,23.97,18.85,26.78Q18.28,24.58,20.51,22.52Q17.56,22.28,16.26,19.43Q16.84,22.40,14.87,24.78z"/>
	<path
		fill="#FFFFFF"
		stroke="#FFFFFF"
		fill-opacity="0.000"
		stroke-opacity="1.000"
		fill-rule="nonzero"
		stroke-width="1.000"
		stroke-linejoin="round"
		stroke-linecap="square"
		d="M26.22,22.63Q29.12,22.11,29.98,25.02Q29.63,22.77,32.06,20.95Q29.15,20.41,28.14,17.44Q28.42,20.46,26.22,22.63z"/>
	<path
		fill="#FFFFFF"
		stroke="#FFFFFF"
		fill-opacity="0.000"
		stroke-opacity="1.000"
		fill-rule="nonzero"
		stroke-width="1.000"
		stroke-linejoin="round"
		stroke-linecap="square"
		d="M1.59,27.01Q7.70,23.18,12.70,24.06"/>
	<path
		fill="#FFFFFF"
		stroke="#FFFFFF"
		fill-opacity="0.000"
		stroke-opacity="1.000"
		fill-rule="nonzero"
		stroke-width="1.000"
		stroke-linejoin="round"
		stroke-linecap="square"
		d="M2.99,29.65Q8.01,25.86,12.37,25.67"/>
	<path
		fill="#FFFFFF"
		stroke="#FFFFFF"
		fill-opacity="0.000"
		stroke-opacity="1.000"
		fill-rule="nonzero"
		stroke-width="1.000"
		stroke-linejoin="round"
		stroke-linecap="square"
		d="M33.00,22.44Q39.03,19.55,44.87,20.24"/>
	<path
		fill="#FFFFFF"
		stroke="#FFFFFF"
		fill-opacity="0.000"
		stroke-opacity="1.000"
		fill-rule="nonzero"
		stroke-width="1.000"
		stroke-linejoin="round"
		stroke-linecap="square"
		d="M33.73,23.82Q40.46,22.98,45.02,24.25"/>
	<path
		fill="#FFFFFF"
		stroke="#FFFFFF"
		fill-opacity="0.000"
		stroke-opacity="1.000"
		fill-rule="nonzero"
		stroke-width="1.000"
		stroke-linejoin="round"
		stroke-linecap="square"
		d="M36.95,33.71Q35.53,33.71,35.53,35.13Q35.53,36.55,36.95,36.55"/>
</svg>