<svg xmlns="http://www.w3.org/2000/svg" xml:space="preserve" id="svg1" version="1.1" viewBox="0 0 48 48"><defs id="defs1"><style id="style1">.a{fill:none;stroke:#fff;stroke-linecap:round;stroke-linejoin:round}</style></defs><path id="path61554" d="M41.861 28.857c-2.15 4.92-5.412 5.022-8.286 2.815-2.643-2.03-4.957-6.016-5.776-10.004-1.526-7.44-4.816-15.924-11.367-15.578-13.06.69-12.609 27.252-7.867 34.017l2.783-2.067c1.736-1.29 2.729-3.801 2.57-5.959-.407-5.547-1.13-9.692 1.117-14.098" style="fill:none;fill-opacity:0;stroke:#fff;stroke-width:1;stroke-linecap:round;stroke-linejoin:round;stroke-opacity:1"/><path id="path61507" d="M6.158 18.824c2.371-7.492 10.966-2.037 12.783 6.945 1.618 8.005 5.165 17.2 12.277 16.713 7.483-.514 10.966-10.114 11.238-19.29.184-6.233-.755-12.802-2.894-17.692L36.86 6.52c-3.547 1.337-3.86 5.056-3.562 6.92 1.618 10.16 1.474 13.194.303 18.18" style="fill:none;fill-opacity:0;stroke:#fff;stroke-width:1;stroke-linecap:round;stroke-linejoin:round;stroke-opacity:1"/></svg>