<?xml version="1.0" encoding="UTF-8"?>
<!-- Created with Inkscape (http://www.inkscape.org/) -->
<svg width="48" height="48" version="1.1" viewBox="0 0 48 48" xml:space="preserve" xmlns="http://www.w3.org/2000/svg"><defs><style>.a{fill:none;stroke:#fff;stroke-linecap:round;stroke-linejoin:round;}</style></defs><g transform="translate(-61.651 75.042)">
<g id="b">
	<g transform="matrix(1.0359 0 0 1.0359 -51.079 3.3593)"><path transform="matrix(1.5123 0 0 1.0815 28.606 -62.715)" d="m68.436 22.502-13.143-13.004 13.004-13.143 13.143 13.004z" fill-opacity="0" stroke="#fff" stroke-linecap="round" stroke-linejoin="round" stroke-width=".75484"/><g stroke-width=".96537"><g fill-opacity="0" stroke="#fff" stroke-linecap="round" stroke-linejoin="round"><path transform="translate(61.651 -75.042)" d="m59.352 16.254 22.008 0.0094"/><path transform="translate(61.651 -75.042)" d="m59.32 28.66 22.205-2e-3"/><path transform="translate(61.651 -75.042)" d="m70.231 8.6201-0.06777 7.6384"/><path transform="translate(61.651 -75.042)" d="m70.449 36.239-0.02675-7.5798"/><path transform="translate(61.651 -75.042)" d="m73.799 16.259-3.5672-7.6384-3.7226 7.6384"/><path transform="translate(61.651 -75.042)" d="m75.342 28.916-4.8931 7.5903-4.4523-7.8576"/></g><g transform="translate(.3815)"><g transform="translate(-59.894 -97.231)">
		<polyline class="st5" points="183.37 48.65 183.37 40.65 188.67 48.65 188.67 40.65" stroke-width=".96537"/>
	</g><g transform="translate(-140.03 -97.231)">
		<g stroke-width=".96537">
			<polyline class="st5" points="280 40.65 278 48.65 276 40.65 274 48.65 272 40.65" stroke-width=".96537"/>
		</g>
	</g></g></g></g>
</g></g><style type="text/css">
	.st0{display:none;}
	.st1{display:inline;}
	.st5{fill:none;stroke:#FFFFFF;stroke-linecap:round;stroke-linejoin:round;stroke-miterlimit:10;}
	.st6{fill:#FFFFFF;}
</style></svg>
