<?xml version="1.0" encoding="UTF-8"?><svg id="a" xmlns="http://www.w3.org/2000/svg" viewBox="0 0 48 48"><defs><style>.d{fill:none;stroke:#fff;stroke-linecap:round;stroke-linejoin:round;}</style></defs><path class="d" d="m14.25 23c-4.8325 0-8.75-3.9175-8.75-8.75 0-4.8325 3.9175-8.75 8.75-8.75 4.8325 0 8.75 3.9175 8.75 8.75v4.75c0 2.216-1.784 4-4 4z"/><path class="d" d="m25 14.25c0-4.8325 3.9175-8.75 8.75-8.75 4.8325 0 8.75 3.9175 8.75 8.75 0 4.8325-3.9175 8.75-8.75 8.75h-4.75c-2.216 0-4-1.784-4-4z"/><path class="d" d="m33.75 25c4.8325 0 8.75 3.9175 8.75 8.75s-3.9175 8.75-8.75 8.75-8.75-3.9175-8.75-8.75v-4.75c0-2.216 1.784-4 4-4z"/><path class="d" d="m23 33.75c0 4.8325-3.9175 8.75-8.75 8.75s-8.75-3.9175-8.75-8.75 3.9175-8.75 8.75-8.75h4.75c2.216 0 4 1.784 4 4z"/></svg>
