<?xml version="1.0" encoding="UTF-8" standalone="no"?>
<svg
   viewBox="0 0 48 48"
   version="1.1"
   id="svg1"
   sodipodi:docname="nimo_tv.svg"
   inkscape:version="1.2.2 (b0a8486541, 2022-12-01)"
   xml:space="preserve"
   xmlns:inkscape="http://www.inkscape.org/namespaces/inkscape"
   xmlns:sodipodi="http://sodipodi.sourceforge.net/DTD/sodipodi-0.dtd"
   xmlns="http://www.w3.org/2000/svg"
   xmlns:svg="http://www.w3.org/2000/svg"><sodipodi:namedview
     id="namedview1"
     pagecolor="#505050"
     bordercolor="#eeeeee"
     borderopacity="1"
     inkscape:showpageshadow="0"
     inkscape:pageopacity="0"
     inkscape:pagecheckerboard="0"
     inkscape:deskcolor="#505050"
     inkscape:zoom="12.59534"
     inkscape:cx="18.657695"
     inkscape:cy="32.313539"
     inkscape:window-width="1918"
     inkscape:window-height="1053"
     inkscape:window-x="0"
     inkscape:window-y="0"
     inkscape:window-maximized="1"
     inkscape:current-layer="svg1"
     showgrid="false" /><defs
     id="defs1"><style
       id="style1">.a { fill:none;stroke:#fff;stroke-linecap:round;stroke-linejoin:round; }
</style></defs><path
     style="fill:none;stroke:#ffffff;stroke-width:1;stroke-linecap:round;stroke-linejoin:round;stroke-opacity:1;stop-color:#000000"
     d="m 13.022544,12.100065 c -4.1674892,0 -7.5225436,3.355078 -7.5225436,7.522597 v 13.92385 c 0,4.167519 3.3550544,7.522597 7.5225436,7.522597 h 21.954913 c 4.167489,0 7.522543,-3.355078 7.522543,-7.522597 v -13.92385 c 0,-4.167519 -3.355054,-7.522597 -7.522543,-7.522597 h -2.925983 c -1.429452,0 -2.180083,0.03796 -2.035624,-1.129088 l 0.362301,-2.92694 C 30.515759,6.9323321 29.589527,6.7370433 28.756355,7.1076864 l -9.609739,4.2749706 c -1.720808,0.765515 -3.401772,0.717408 -6.124072,0.717408 z"
     id="path1345" /><path
     style="fill:none;stroke:#ffffff;stroke-width:1;stroke-linecap:round;stroke-linejoin:round;stroke-opacity:1;stop-color:#000000"
     d="m 28.649729,27.341643 v 0 L 24.188513,24.76594 c -1.373758,-0.793144 -2.636136,0.222332 -2.636136,1.582904 v 5.399871 c 0,1.360572 1.262378,2.376049 2.636136,1.582904 l 4.461216,-2.575702 v 0 c 0.742853,-0.428889 1.141026,-0.979277 1.141024,-1.707137 -2e-6,-0.727861 -0.398171,-1.278248 -1.141024,-1.707137 z"
     id="path1343" /><path
     style="fill:none;stroke:#ffffff;stroke-width:1;stroke-linecap:round;stroke-linejoin:round;stroke-opacity:1;stop-color:#000000"
     d="m 19.979873,22.389986 a 1.6322963,1.632308 0 0 1 -1.632297,1.632309 1.6322963,1.632308 0 0 1 -1.632295,-1.632309 1.6322963,1.632308 0 0 1 1.632295,-1.632307 1.6322963,1.632308 0 0 1 1.632297,1.632307 z"
     id="path1341" /><path
     style="fill:none;stroke:#ffffff;stroke-width:1;stroke-linecap:round;stroke-linejoin:round;stroke-opacity:1;stop-color:#000000"
     d="M 30.646612,23.888063 28.476715,22.389987 30.646612,20.89191"
     id="path1274" /></svg>
