<?xml version="1.0" encoding="UTF-8"?>
<!-- Created with Inkscape (http://www.inkscape.org/) -->
<svg version="1.1" viewBox="0 0 48 48" xml:space="preserve" xmlns="http://www.w3.org/2000/svg"><defs><style>.a{fill:none;stroke:#fff;stroke-linecap:round;stroke-linejoin:round;}</style></defs><g transform="matrix(1.0379 0 0 1.0379 -57.988 -2.0853)" fill-opacity="0" stroke="#fff" stroke-linecap="round" stroke-linejoin="round" stroke-width=".96353"><path d="m72.279 34.029 0.02931 0.99654s0.46896 0.67413 0.46896 0.67413l0.05862 1.1138c2.3839-0.42988 4.7678-0.85976 6.7316-1.744 1.9638-0.8842 3.5074-2.2227 4.758-2.9799s2.208-0.93304 3.1972-0.9941c0.98923-0.06106 2.0102-0.0073 2.6013 0.03908 0.59109 0.04641 0.75229 0.08549 0.89884 0.32486 0.14655 0.23937 0.27844 0.67901 0.37859 0.92326s0.16853 0.2931 0.35905 0.23936c0.19052-0.05374 0.50315-0.21005 0.74741-0.24913s0.42011 0.03908 0.81092 0.33707c0.39081 0.29799 0.99654 0.81579 1.5388 1.1431 0.54224 0.3273 1.021 0.46408 1.2506 0.61063 0.2296 0.14655 0.21006 0.30287 0.20273 0.5398-0.0073 0.23693-0.0024 0.55445-0.04396 0.76694-0.04152 0.2125-0.12945 0.31997-0.8842 0.58376-0.75475 0.2638-2.1763 0.6839-3.1899 0.89151-1.0136 0.20762-1.6194 0.20273-3.6052 0.82803-1.9858 0.6253-5.3515 1.8807-8.3973 2.5329s-5.7716 0.701-7.3495 0.77428c-1.5779 0.07328-2.0077 0.17098-2.3741 0.08793-0.36638-0.08305-0.66924-0.34683-0.63993-1.0161 0.02931-0.66926 0.3908-1.7439 0.68634-2.3399 0.29555-0.59597 0.52514-0.71321 0.63994-0.90862 0.1148-0.1954 0.1148-0.46896 0.29799-0.74741 0.18319-0.27845 0.54956-0.56178 0.74846-0.76635s0.23031-0.33038 0.26172-0.45619"/><path d="m91.76 32.622c-1.019 0.44886-2.0381 0.89772-3.0571 1.3466"/><path d="m78.281 38.75c0.82292-0.4375 1.6458-0.875 2.5833-1.151 0.93751-0.27604 1.9896-0.39062 2.724-0.59896s1.151-0.51041 2.0781-0.76562c0.9271-0.25521 2.3646-0.46354 3.6667-0.6875 1.3021-0.22396 2.4687-0.46354 3.3668-0.74843s1.5276-0.61506 2.1572-0.94525"/><path d="m88.593 31.069c-0.07269-0.44997-0.14539-0.89994-0.42653-1.651-0.28114-0.75104-0.77072-1.8031-0.96863-2.8344-0.19792-1.0313-0.10417-2.0417 0.44792-2.8854 0.55209-0.84376 1.5625-1.5208 2.3281-2.3854 0.76563-0.86459 1.2865-1.9167 1.4687-3.1563 0.18229-1.2396 0.02604-2.6667-0.40626-3.9687-0.4323-1.3021-1.1406-2.4792-1.4687-3.151-0.32812-0.67188-0.27604-0.83854-0.39584-1.3906-0.1198-0.55209-0.41146-1.4896-1.1042-2.3333-0.69272-0.84376-1.7864-1.5937-3.5156-2.0625-1.7292-0.46875-4.0937-0.65625-6.2083-0.54166-2.1146 0.11459-3.9791 0.53125-5.8646 1.1146-1.8854 0.58334-3.7916 1.3333-4.8333 2.1302-1.0417 0.79688-1.2187 1.6406-1.2604 2.1615-0.04167 0.52084 0.05208 0.71875-0.04969 1.0158-0.10177 0.29704-0.39905 0.69317-0.579 1.1104s-0.24255 0.85546-0.41933 1.2237c-0.17678 0.36829-0.46772 0.66659-0.6758 1.0422s-0.3333 0.82864-0.23938 1.2964c0.09392 0.46773 0.40695 0.95017 0.59109 1.2356 0.18414 0.28542 0.23938 0.37381 0.02762 0.80103-0.21177 0.42722-0.69053 1.1932-1.0828 1.9998-0.39223 0.80655-0.6979 1.6536-0.84705 2.171-0.14916 0.51744-0.14179 0.70526 0.11318 0.92592s0.75752 0.47413 1.2601 0.7276"/><path d="m77.22 16.487c-0.25735 0.09415-0.5147 0.1883-0.65264 0.29691-0.13794 0.10861-0.15646 0.23166-0.14047 0.38114 0.01599 0.14947 0.06651 0.32535 0.27775 0.62322 0.21124 0.29787 0.5832 0.7177 0.77471 0.99576 0.19151 0.27806 0.20256 0.41432 0.22466 0.94834 0.0221 0.53402 0.05524 1.4658 0.17126 2.1139 0.11601 0.64818 0.31488 1.0128 0.46588 1.2816s0.25412 0.44194 0.30383 0.569c0.04972 0.12706 0.04603 0.20808 0.11049 0.34803 0.06445 0.13995 0.19703 0.33882 0.26701 0.48982 0.06997 0.151 0.07734 0.25412 0.09944 0.65555s0.05893 1.1012-0.03683 1.9611-0.32409 1.8801-0.46772 2.4822-0.20256 0.78629-0.41985 0.96675-0.59294 0.35724-0.97411 0.66107c-0.38118 0.30384-0.76787 0.73472-1.1932 0.97779-0.42537 0.24307-0.8894 0.29831-1.5212 0.56524s-1.4312 0.74554-1.9707 1.1451c-0.53954 0.39959-0.81916 0.72015-1.1597 0.88595s-0.74196 0.17686-1.0329 0.33522c-0.29095 0.15837-0.4714 0.46404-1.0828 0.64081-0.61136 0.17678-1.6536 0.22465-2.3533 0.16941-0.69974-0.05524-1.057-0.2136-1.521-0.55427-0.46404-0.34067-1.0349-0.86362-1.2614-1.8028s-0.10864-2.2944-0.01105-3.0107c0.0976-0.71631 0.17494-0.79365 0.3775-1.1067 0.20256-0.31305 0.53033-0.86178 0.93729-1.1583 0.40696-0.29647 0.89308-0.34066 1.3507-0.50455 0.4576-0.16389 0.88664-0.44746 1.1021-0.63897 0.21544-0.19151 0.21728-0.29094 0.21911-0.39038"/><path d="m78.342 23.128c0.73511-0.6886 1.4702-1.3772 1.8638-1.9012 0.3936-0.52399 0.44568-0.88336 0.47172-1.4407 0.02604-0.5573 0.02604-1.3125-0.14584-2.0911-0.17188-0.77865-0.51562-1.5807-0.8776-2.0182-0.36198-0.4375-0.74218-0.51042-1.1508-0.3146-0.40858 0.19581-0.84553 0.66033-1.2825 1.1249"/><path d="m78.141 17.453c0.08333-0.09635 0.16666-0.19271 0.375-0.11979 0.20834 0.07292 0.54166 0.3151 0.74348 0.65885 0.20183 0.34376 0.27214 0.78905 0.23047 1.1836-0.04167 0.39454-0.19531 0.73828-0.34896 1.082"/><path d="m79.537 21.979c6e-3 0.45169 0.01195 0.90337 0.04624 1.1771 0.03429 0.27372 0.0969 0.36947 0.64473 0.45049 0.54783 0.08102 1.5809 0.14731 2.2042 0.1289 0.62332-0.01841 0.83692-0.12153 1.2899-0.17678 0.453-0.05524 1.1454-0.06261 1.6389-0.15468 0.4935-0.09207 0.78813-0.26885 1.2398-0.3585 0.45167-0.08965 1.0604-0.09219 1.669-0.09472"/><path d="m65.688 15.781c0.13542 0.30208 0.27083 0.60417 0.39356 0.71952 0.12272 0.11535 0.23276 0.04398 0.61739-0.14823s1.0439-0.50525 1.9554-0.3432c0.91152 0.16205 2.0753 0.79917 3.2391 1.4363"/><path d="m64.386 23.913c-0.17368 0.17368-0.52103 0.52103-0.56028 0.92673s0.22959 0.86973 0.64392 1.0373 0.97411 0.03867 1.3976 0.13443c0.42353 0.09576 0.71079 0.41616 1.5892 0.59662s2.3478 0.22097 3.2317-0.05709c0.88389-0.27806 1.1822-0.87467 1.2061-1.451 0.02394-0.57637-0.22649-1.1325-0.60951-1.51-0.38302-0.37749-0.89861-0.57636-1.3166-0.53879-0.41797 0.03758-0.73829 0.31158-0.8705 0.53104s-0.07631 0.38435-0.02909 0.46682c0.04722 0.08247 0.08576 0.08251 0.131 0.03469 0.04524-0.04782 0.09717-0.14348 0.23958-0.17882 0.14241-0.03534 0.37528-0.01034 0.55985 0.18815 0.18457 0.19849 0.32083 0.57045 0.31163 0.88533-0.0092 0.31489-0.16389 0.57268-0.56348 0.5027-0.3996-0.06998-1.0441-0.46772-1.4676-0.64265-0.42353-0.17494-0.62608-0.12706-0.81575-0.22466-0.18967-0.0976-0.36644-0.34066-0.76604-0.53585-0.3996-0.19519-1.022-0.3425-1.4155-0.39096s-0.55804 0.0019-0.64032 0.02713c-0.08228 0.0252-0.08228 0.0252-0.25596 0.19888z"/><path d="m71.633 24.047c-0.0078-0.0135-0.01564-0.02702 0.13406-0.30564 0.1497-0.27861 0.45688-0.82232 0.79798-1.3234 0.3411-0.50103 0.71609-0.95936 1.1953-1.3135 0.47917-0.35417 1.0625-0.60416 1.375-1.0521s0.35417-1.0937 0.21875-2.0417c-0.13542-0.94793-0.44791-2.1979-0.82292-3.0469-0.375-0.84896-0.8125-1.2969-0.86978-1.8229-0.05729-0.52605 0.26562-1.1302 0.58854-1.7344"/><path d="m70.578 11.49c0.91335 0.11785 1.8267 0.2357 2.4387 0.22166s0.9226-0.15997 1.4677-0.18574c0.54507-0.02578 1.3246 0.06859 1.6812-0.0094 0.3566-0.07803 0.29031-0.32846 0.62914-0.39107 0.33883-0.06261 1.0828 0.06261 1.6757 0.12522 0.59294 0.06261 1.0349 0.06261 1.2706-0.01473 0.2357-0.07734 0.26517-0.23202 0.83234-0.2799 0.56717-0.04788 1.672 0.01105 2.2428-0.03315s0.60767-0.19151 0.97596-0.16572c0.36829 0.02578 1.068 0.22465 1.3811 0.17677 0.31304-0.04788 0.23939-0.3425 0.604-0.35355 0.36461-0.01105 1.1675 0.26148 1.6204 0.33882 0.45299 0.07734 0.55611-0.04051 0.85948-0.05357 0.30337-0.01306 0.80696 0.07866 1.3106 0.17039"/><path d="m73.062 6.7812c0.77083 0.21875 1.5417 0.4375 2.3646 0.78125 0.82292 0.34375 1.6979 0.8125 2.3333 1.0365 0.63542 0.22396 1.0312 0.20313 1.4844 0.38542 0.45313 0.1823 0.96354 0.5677 1.4115 0.76562 0.44792 0.19792 0.83333 0.20833 1.2187 0.21875"/><path d="m75.406 6.0312c1.6354 0.44792 3.2708 0.89583 4.5156 1.4323 1.2448 0.53646 2.099 1.1615 2.8437 1.5937s1.3802 0.67187 2.0156 0.91146"/><path d="m78.406 5.5c0.66667 0.26042 1.3333 0.52083 2.0833 0.79167 0.75001 0.27084 1.5833 0.55208 2.25 0.93229 0.66667 0.38021 1.1667 0.85937 1.6146 1.1615 0.44792 0.30208 0.84375 0.42708 1.2292 0.64063s0.76041 0.51562 1.1354 0.81771"/><path d="m69.181 30.599c0.03807 0.08952 0.07678 0.18053 0.08486 0.35441 0.0081 0.17388-0.01401 0.43168 0.06333 0.69684s0.25412 0.53769 0.36828 0.86915c0.11417 0.33146 0.16573 0.72183 0.23202 0.95017 0.06629 0.22834 0.14732 0.29463 0.22834 0.36092"/><path d="m70.158 27.533c0.18414 0.37565 0.36828 0.7513 0.5377 1.0754 0.16941 0.32409 0.32409 0.59662 0.47877 0.86915"/><path d="m72.014 28.483c0.08102 0.44931 0.16204 0.89862 0.22465 1.289 0.06261 0.39039 0.1068 0.72184 0.27622 0.97595 0.16941 0.25412 0.46404 0.43089 0.73657 0.65555 0.27253 0.22466 0.52296 0.49718 0.7734 0.76971"/><path d="m75.992 29.721c-0.02946 0.05156-0.05893 0.10312-0.0074 0.26517 0.05156 0.16205 0.18414 0.43457 0.4042 0.66567 0.22005 0.2311 0.52757 0.42077 0.83509 0.61043"/><path d="m76.036 26.649c0.2799 0.41248 0.55979 0.82496 0.86179 1.0459 0.302 0.22097 0.62608 0.25043 0.93356 0.46776 0.30748 0.21733 0.59835 0.62251 0.88922 1.0277"/><path d="m65.982 33.079c-0.05156 0.39775-0.10312 0.7955-0.0074 1.1049 0.09576 0.30936 0.33882 0.53033 0.58189 0.7513"/><path d="m72.829 22.05c0.03054 0.70056 0.06107 1.4011 0.2789 2.1123 0.21783 0.71121 0.62293 1.433 1.028 2.1549"/><path d="m76.898 23.511c0.20624 0.2578 0.41248 0.5156 0.61872 0.7734"/><path d="m73.208 27.025c0.19151 0.69238 0.38302 1.3848 0.56716 1.8304 0.18414 0.44563 0.36092 0.6445 0.48982 0.94281 0.1289 0.29831 0.20992 0.69606 0.29094 1.0938"/><path d="m68.088 32.676c-0.09062 0.12358-0.18124 0.24716-0.1529 0.59804 0.02835 0.35088 0.17566 0.92903 0.32297 1.5072"/><path d="m69.453 28.684c0.34551 0.58121 0.69102 1.1624 0.9227 1.6077 0.23168 0.44529 0.34953 0.75464 0.44897 1.134 0.09944 0.37934 0.18046 0.82864 0.46303 1.261 0.28258 0.43238 0.76668 0.84782 1.2508 1.2633"/><path d="m73.76 21.104c0.29861 0.77778 0.59722 1.5556 0.93923 2.0851 0.34202 0.52952 0.72742 0.81076 1.1128 1.092"/><path d="m75.781 20.969c0.42708 0.13542 0.85417 0.27083 1.2032 0.41715 0.34907 0.14632 0.62012 0.30354 0.89118 0.46075"/><path d="m77.469 26.531c0.22917 0.02083 0.45833 0.04167 0.72779 0.1451 0.26946 0.10343 0.5792 0.28944 0.88894 0.47546"/><path d="m74.5 27.641c0.16146 0.34896 0.32292 0.69792 0.48438 1.0469"/><path d="m64.922 25.966 0.70591 1.0481-0.47121 1.5806"/><path d="m70.938 7.1562c0.83333 0.39583 1.6667 0.79167 2.3698 1.2448 0.70313 0.45313 1.276 0.96354 2.2164 1.4553 0.9404 0.49181 2.2482 0.965 3.5561 1.4382"/><path d="m69.375 8c0.40625 0.010417 0.8125 0.020833 1.2917 0.32813 0.47917 0.3073 1.0312 0.91145 1.9599 1.4924 0.92866 0.58096 2.2338 1.1387 3.539 1.6964"/><path d="m68 8.8125c0.59375 0.10417 1.1875 0.20833 2.0236 0.69162 0.83614 0.48328 1.9146 1.3456 2.9931 2.208"/><path d="m82.156 5.625c0.90625 0.54167 1.8125 1.0833 2.6354 1.4688 0.82292 0.38542 1.5625 0.61458 2.223 1.2249 0.66051 0.61035 1.2419 1.6019 1.8233 2.5934"/><path d="m66.385 10.115c0.69444-0.04861 1.3889-0.09722 2.0877 0.1321 0.69879 0.22932 1.4019 0.73656 1.954 1.2314 0.55209 0.4948 0.95313 0.97713 1.1484 1.411s0.1849 0.81929 0.13353 0.96114c-0.05137 0.14184-0.14369 0.04013-0.49786-0.31926-0.35417-0.35938-0.97017-0.9764-1.5985-1.363-0.62832-0.38664-1.2689-0.54289-1.8104-0.77783-0.54148-0.23495-0.98381-0.54858-1.4261-0.86221"/><path d="m64.036 31.363c0.44107 0.4363 0.66028 0.65315 1.2657 0.91449 0.60545 0.26134 0.64409 0.25196 1.1259 0.05273 0.48178-0.19923 0.68161-0.31976 1.0097-0.75206 0.32813-0.4323 0.65625-1.099 0.82812-1.6901 0.17188-0.59115 0.1875-1.1068 0.1456-1.4665-0.04189-0.35969-0.14131-0.56343-0.16667-0.74978-0.02536-0.18636 0.08311-0.5628 0.19158-0.93926"/><path d="m66.38 30.87c0.29463-0.2357 0.58926-0.4714 0.73104-0.81576s0.13074-0.79733 0.11969-1.2503"/><path transform="translate(-.48614 1.1995)" d="m66.114 28.395c-0.11048 0.41616-0.22097 0.83232-0.33146 1.2485"/><path transform="translate(.073213 .23165)" d="m74.777 24.815c0.25043 0.19887 0.50087 0.39775 0.7513 0.59662"/><path d="m78.078 25.422c0.35642 0.15044 0.71284 0.30088 1.0693 0.45133"/><path d="m66.976 17.633 2.6075 0.0221 1.3254 1.0455-1.2149 0.92114h-2.4528"/><circle cx="68.192" cy="18.61" r=".8"/><path d="m65.938 18.906-0.84375 2.2188"/><path d="m67.129 21.787c0.25386-0.03393 0.5077-0.06786 0.72131 0.02477s0.38696 0.3118 0.42613 0.5573c0.03917 0.24549-0.05584 0.51728-0.23612 0.64383-0.18028 0.12656-0.4458 0.10788-0.79482 0.0087-0.34902-0.09921-0.7815-0.27895-1.0602-0.3558-0.27874-0.07685-0.40374-0.05081-0.52874-0.02476"/><path d="m72.375 38.969c1.3438-0.57292 2.6875-1.1458 3.9844-1.5417 1.2969-0.39584 2.5469-0.61458 3.9063-1.1198 1.3594-0.50522 2.8281-1.2969 4-1.8177 1.1719-0.52084 2.0469-0.77083 2.9219-1.0208"/></g></svg>
