<?xml version="1.0" encoding="UTF-8"?><svg id="a" xmlns="http://www.w3.org/2000/svg" viewBox="0 0 48 48"><defs><style>.b{fill:none;stroke:#fff;stroke-linecap:round;stroke-linejoin:round;}.c{fill:#fff;stroke-width:0px;}</style></defs><path class="b" d="m26.061 24.137c0-1.4269 1.1567-2.5835 2.5835-2.5835 1.4269 0 2.5835 1.1567 2.5835 2.5835v4.2629"/><line class="b" x1="26.061" x2="26.061" y1="21.553" y2="28.399"/><path class="b" d="m31.228 24.137c0-1.4269 1.1567-2.5835 2.5835-2.5835 1.4269 0 2.5835 1.1567 2.5835 2.5835v4.2629"/><circle class="c" cx="23.618" cy="18.388" r=".7"/><line class="b" x1="23.618" x2="23.618" y1="21.553" y2="28.399"/><path class="b" d="m21.175 21.553v7.7506c0 1.4269-1.1458 2.5835-2.5593 2.5835-.70673 0-1.3465-.28918-1.8096-.7567"/><circle class="c" cx="21.175" cy="18.453" r=".7"/><path class="b" d="m11.886 28.399v-7.0939"/><line class="b" x1="4.5" x2="4.5" y1="28.399" y2="16.113"/><path class="b" d="m43.495 25.816c0 1.4269-1.1479 2.5835-2.5639 2.5835h-.89981c-.93811 0-1.6986-.76631-1.6986-1.7116s.76049-1.7116 1.6986-1.7116l3.4685 4e-6"/><path class="b" d="m38.974 22.231c.6226-.62354 1.0589-.67818 2.2606-.67818 1.3642 0 2.2606.60004 2.2606 2.222v4.6244"/><path class="b" d="m13.824 24.137c0-1.4269 1.1567-2.5835 2.5835-2.5835 1.4269 0 2.5835 1.1567 2.5835 2.5835v1.6793c0 1.4269-1.1567 2.5835-2.5835 2.5835-1.4269 0-2.5835-1.1567-2.5835-2.5835z"/><path class="b" d="m6.3466 17.108a3.6931 3.6931 0 013.2598-.21366 3.6931 3.6931 0 012.154 2.4561"/></svg>
