<?xml version="1.0" encoding="UTF-8" standalone="no"?>
<svg
   id="Layer_1"
   data-name="Layer 1"
   version="1.1"
   viewBox="0 0 48 48"
   sodipodi:docname="nokia-edu.svg"
   inkscape:version="1.3.2 (091e20ef0f, 2023-11-25)"
   inkscape:export-filename="nokia-edu.png"
   inkscape:export-xdpi="2048"
   inkscape:export-ydpi="2048"
   xmlns:inkscape="http://www.inkscape.org/namespaces/inkscape"
   xmlns:sodipodi="http://sodipodi.sourceforge.net/DTD/sodipodi-0.dtd"
   xmlns="http://www.w3.org/2000/svg"
   xmlns:svg="http://www.w3.org/2000/svg">
  <sodipodi:namedview
     id="namedview1"
     pagecolor="#505050"
     bordercolor="#eeeeee"
     borderopacity="1"
     inkscape:showpageshadow="0"
     inkscape:pageopacity="0"
     inkscape:pagecheckerboard="0"
     inkscape:deskcolor="#505050"
     inkscape:zoom="11.021761"
     inkscape:cx="37.924975"
     inkscape:cy="16.512788"
     inkscape:window-width="1920"
     inkscape:window-height="1008"
     inkscape:window-x="0"
     inkscape:window-y="0"
     inkscape:window-maximized="1"
     inkscape:current-layer="Layer_1" />
  <defs
     id="defs1">
    <inkscape:path-effect
       effect="powerstroke"
       id="path-effect1"
       is_visible="true"
       lpeversion="1.3"
       scale_width="1"
       interpolator_type="CubicBezierJohan"
       interpolator_beta="0.2"
       start_linecap_type="zerowidth"
       end_linecap_type="zerowidth"
       offset_points="0,18.867925"
       linejoin_type="extrp_arc"
       miter_limit="4"
       not_jump="false"
       sort_points="true"
       message="&lt;b&gt;Ctrl + click&lt;/b&gt; on existing node and move it" />
    <style
       id="style1">
      .cls-1 {
        fill: none;
        stroke: #fff;
        stroke-linecap: round;
        stroke-linejoin: round;
      }
    </style>
    <inkscape:path-effect
       effect="fill_between_many"
       method="bsplinespiro"
       autoreverse="false"
       close="false"
       join="false"
       linkedpaths="#path1,0,1"
       id="path-effect2" />
  </defs>
  <path
     id="path3-3"
     style="fill:none;stroke:#ffffff;stroke-width:1;stroke-linecap:round;stroke-linejoin:round;stroke-dasharray:none"
     d="M 14.773047,30.439323 A 6.8969954,6.4119726 0 0 1 7.8760497,24.02735 6.8969954,6.4119726 0 0 1 14.773047,17.615379 m 30.523504,12.87003 v 4.871453 M 14.578883,30.445057 H 25.635956 45.296551 M 14.773047,17.615379 h 11.057072 19.660594 m 0,-4.914666 v 4.871354 M 14.578883,35.39989 h 11.057073 19.660595 m -30.523504,0.0015 A 12.263759,11.401325 0 0 1 2.5092866,24.000006 12.263759,11.401325 0 0 1 14.773047,12.598685 m 0,0 h 11.057072 19.660594"
     inkscape:label="BookCover" />
  <path
     id="path6"
     style="fill:none;stroke:#ffffff;stroke-width:1;stroke-linecap:round;stroke-linejoin:round;stroke-dasharray:none;stroke-opacity:1"
     d="m 45.448314,19.383945 -0.0068,3.71837 m -29.719077,0 a 1.6535457,1.8721071 0 0 1 -1.653547,-1.872107 1.6535457,1.8721071 0 0 1 1.653547,-1.872109 m 29.719092,3.744216 H 15.731066 M 45.453882,19.358099 H 15.716693"
     inkscape:label="Page1" />
  <path
     id="path6-1"
     style="fill:none;stroke:#ffffff;stroke-width:0.999774;stroke-linecap:round;stroke-linejoin:round;stroke-dasharray:none;stroke-opacity:1"
     d="m 99.607815,49.800852 -0.0055,2.834238 m -23.904698,0 a 1.3300382,1.4269689 0 0 1 -1.330039,-1.426969 1.3300382,1.4269689 0 0 1 1.330039,-1.426969 M 99.602323,52.63509 H 75.704588 M 99.612292,49.781153 H 75.693027"
     inkscape:label="Page1" />
  <path
     id="path6-7"
     style="fill:none;stroke:#ffffff;stroke-width:1;stroke-linecap:round;stroke-linejoin:round;stroke-dasharray:none;stroke-opacity:1"
     d="m 45.448314,24.989074 -0.0068,3.71837 m -29.719077,0 a 1.6535457,1.8721071 0 0 1 -1.653547,-1.872108 1.6535457,1.8721071 0 0 1 1.653547,-1.872109 m 29.719087,3.744217 H 15.731066 M 45.453882,24.963227 H 15.716693"
     inkscape:label="Page1" />
</svg>
