<?xml version="1.0" encoding="UTF-8"?><svg id="a" xmlns="http://www.w3.org/2000/svg" viewBox="0 0 48 48"><defs><style>.d{fill:none;stroke:#fff;stroke-linecap:round;stroke-linejoin:round;}</style></defs><rect class="d" x="5.5" y="5.5" height="37" width="37" rx="4" ry="4"/><path class="d" d="m25 15.781v12.438c-4.79e-4 0.1991 0.07822 0.39022 0.21875 0.53125l4 4c0.47277 0.47408 1.2826 0.13827 1.2812-0.53125v-12.438c4.79e-4 -0.1991-0.07822-0.39022-0.21875-0.53125l-4-4c-0.2148-0.21474-0.53791-0.27875-0.81829-0.16233-0.28038 0.11642-0.46309 0.3901-0.46291 0.69358z"/><path class="d" d="m17.396 15.073 0.35355 0.35355 0.35355-0.35355"/><path class="d" d="m17.396 17.573 0.35355 0.35355 0.35355-0.35355"/><path class="d" d="m17.396 20.073 0.35355 0.35355 0.35355-0.35355"/><path class="d" d="m17.396 22.573 0.35355 0.35355 0.35355-0.35355"/><path class="d" d="m17.396 25.073 0.35355 0.35355 0.35355-0.35355"/><path class="d" d="m17.396 27.573 0.35355 0.35355 0.35355-0.35355"/><path class="d" d="m19.896 17.573 0.35355 0.35355 0.35355-0.35355"/><path class="d" d="m19.896 20.073 0.35355 0.35355 0.35355-0.35355"/><path class="d" d="m19.896 22.573 0.35355 0.35355 0.35355-0.35355"/><path class="d" d="m19.896 25.073 0.35355 0.35355 0.35355-0.35355"/><path class="d" d="m19.896 27.573 0.35355 0.35355 0.35355-0.35355"/><path class="d" d="m19.896 30.073 0.35355 0.35355 0.35355-0.35355"/><path class="d" d="m22.396 20.073 0.35355 0.35355 0.35355-0.35355"/><path class="d" d="m22.396 22.573 0.35355 0.35355 0.35355-0.35355"/><path class="d" d="m22.396 25.073 0.35355 0.35355 0.35355-0.35355"/><path class="d" d="m22.396 27.573 0.35355 0.35355 0.35355-0.35355"/><path class="d" d="m22.396 30.073 0.35355 0.35355 0.35355-0.35355"/><path class="d" d="m22.396 32.573 0.35355 0.35355 0.35355-0.35355"/></svg>
