<?xml version="1.0" encoding="UTF-8" standalone="no"?>
<svg
   version="1.1"
   width="48"
   height="48"
   viewBox="0 0 48 48"
   id="svg1"
   sodipodi:docname="noutube.svg"
   inkscape:version="1.4.2 (f4327f4, 2025-05-13)"
   xml:space="preserve"
   inkscape:export-filename="..\Desktop\noutube1.png"
   inkscape:export-xdpi="96"
   inkscape:export-ydpi="96"
   xmlns:inkscape="http://www.inkscape.org/namespaces/inkscape"
   xmlns:sodipodi="http://sodipodi.sourceforge.net/DTD/sodipodi-0.dtd"
   xmlns="http://www.w3.org/2000/svg"
   xmlns:svg="http://www.w3.org/2000/svg"><defs
     id="defs1" /><sodipodi:namedview
     id="namedview1"
     pagecolor="#ffffff"
     bordercolor="#000000"
     borderopacity="0.25"
     inkscape:showpageshadow="2"
     inkscape:pageopacity="0.0"
     inkscape:pagecheckerboard="0"
     inkscape:deskcolor="#d1d1d1"
     inkscape:document-units="px"
     inkscape:zoom="11.313709"
     inkscape:cx="40.835417"
     inkscape:cy="24.616155"
     inkscape:window-width="2560"
     inkscape:window-height="1369"
     inkscape:window-x="-8"
     inkscape:window-y="-8"
     inkscape:window-maximized="1"
     inkscape:current-layer="svg1" /><path
     id="path10-4"
     style="fill:none;stroke:#ffffff;stroke-width:0.922874;stroke-linecap:round;stroke-linejoin:round"
     d="m 36.397539,19.279405 c 0.217226,0.614383 0.13359,0.88181 -0.212814,1.497497 -0.292381,0.519667 -1.228053,0.422728 -1.476124,-0.163737 -0.248072,-0.586463 -0.288799,-1.220028 0.173244,-1.671568 0.462043,-0.45154 1.263738,-0.374815 1.515694,0.337808 z m -10.70337,-4.412143 c -0.138749,0.604427 -0.349044,0.767683 -0.962633,1.057347 -0.517894,0.244489 -1.254309,-0.355909 -1.156119,-0.955682 0.09819,-0.599772 0.395454,-1.120383 1.02043,-1.216287 0.624976,-0.09591 1.259258,0.413551 1.098322,1.114622 z m 0.437326,3.206423 c 1.250176,-0.706386 2.164418,-0.664163 2.946683,-0.694602 0.24711,-0.0096 0.47479,0.207064 0.62037,0.406968 0.590033,0.810213 1.387692,1.579283 1.339815,2.442658 -0.01369,0.246913 -0.244681,0.415518 -0.453499,0.547992 -0.748904,0.475101 -1.646099,0.703049 -2.721885,0.633347 -0.246776,-0.01599 -0.258734,0.212972 -0.416027,0.02215 -0.723033,-0.877137 -1.467944,-1.940015 -1.482854,-2.7083 -0.0049,-0.247248 -0.04789,-0.528511 0.167422,-0.650163 z m -3.402938,-0.344554 c -2.952789,2.862819 1.540856,6.466982 4.434215,4.291175 0.124302,4.905555 5.363626,5.961818 6.483191,1.000674 M 28.061875,38.490248 C 22.856866,39.485896 16.70247,30.75156 25.160223,31.052211 M 13.798824,18.260419 c 0.889278,1.789853 1.302923,2.141301 5.312885,2.533837 M 9.1106054,22.930142 c -0.012243,-2.242425 2.4723396,-2.824605 3.5836356,-2.245001 l 8.785079,4.421438 c 2.505723,1.346994 1.583679,4.258817 0.185359,4.615509 L 12.62097,34.379671 C 11.133271,35.06126 9.4421966,34.345597 9.0528098,32.495474 Z m -3.8159878,0.830826 0.03612,11.017469 c -0.2765088,3.092035 2.1157492,4.817863 5.0571984,3.901269 l 10.568606,-5.220675 c 0.07388,-1.825571 1.148854,-2.809577 3.979448,-2.338705 4.411341,-1.106827 3.503922,-5.67185 1.69889,-6.609243 l -7.468574,-3.773404 m 9.202081,17.732136 c 4.629441,-0.213808 10.622118,-5.910597 12.68962,-15.67301 2.875444,-0.868869 1.52822,-2.736323 0.429118,-3.289902 -1.112826,-8.357428 -11.820567,-12.9803535 -18.697267,-8.030629 -2.535846,-1.010978 -2.963331,1.047177 -1.859509,2.59514 -1.541007,1.590589 -2.286784,3.770071 -1.828859,6.590021 -1.304307,-3.180936 -3.582946,-3.975892 -5.547876,-2.441884 -4.9839655,-3.60996 -9.2503138,-2.436829 -8.2434366,5.527955"
     sodipodi:nodetypes="ssssssssssccssssscccccccccccccccccccccccccccccccc" /></svg>
