<svg xmlns="http://www.w3.org/2000/svg" xml:space="preserve" id="svg1" version="1.1" viewBox="0 0 48 48"><defs id="defs1"><style id="style1">.a{fill:none;stroke:#fff;stroke-linecap:round;stroke-linejoin:round}</style></defs><path id="path1-0" d="M30.418 21.803v-5.047M17.582 26.868v5.76h12.836v-5.76m2.658-2.403L24 15.372l-9.076 9.093M24 2.5v5.88m0 31.238v5.88M2.5 24h5.88m31.24 0h5.88m-5.88 0A15.62 15.62 0 0 1 24 39.62 15.62 15.62 0 0 1 8.38 24 15.62 15.62 0 0 1 24 8.38 15.62 15.62 0 0 1 39.62 24Zm5.88 0A21.5 21.5 0 0 1 24 45.5 21.5 21.5 0 0 1 2.5 24 21.5 21.5 0 0 1 24 2.5 21.5 21.5 0 0 1 45.5 24Z" style="fill:none;stroke:#fff;stroke-width:1;stroke-linecap:round;stroke-linejoin:round;stroke-opacity:1"/></svg>