<?xml version="1.0" encoding="UTF-8"?>
<svg version="1.1" viewBox="0 0 48 48" xmlns="http://www.w3.org/2000/svg">
 <defs>
  <style>.a {
        fill: none;
        stroke: #fff;
        stroke-width:1px;
        stroke-linecap: round;
        stroke-linejoin: round;
      }</style>
 </defs>
 <path class="a" d="m25.651 30.753c0 5.3464-4.3311 9.6805-9.6739 9.6805s-9.6739-4.3341-9.6739-9.6805 4.3311-9.6805 9.6739-9.6805c1.3357 0 1.6525-0.07137 2.8044 0.40901l-0.0055-11.042c0-4.2287 6.8731-4.2 6.8731 0v20.374"/>
 <path class="a" d="m26.616 15.095v12.928c0 4.7738 6.815 5.0208 6.815 0v-12.384c0-5.0206-6.815-4.9152-6.815-0.5439z"/>
 <path class="a" d="m34.415 20.743v3.2054c0 4.029 6.815 4.3148 6.815 0v-3.2036c0-4.0889-6.815-4.5197-6.815-0.0017z"/>
</svg>
