<svg xmlns="http://www.w3.org/2000/svg" xml:space="preserve" id="svg1" version="1.1" viewBox="0 0 48 48"><defs id="defs1"><style id="style1">.a{fill:none;stroke:#fff;stroke-linecap:round;stroke-linejoin:round}</style></defs><path id="path11" d="M43.5 13.495V25.32c0 4.292-3.004 7.747-6.735 7.747-3.73 0-6.734-3.455-6.734-7.747V13.495h-5.098v13.693c0 4.293 3.003 7.748 6.734 7.748v0c3.73 0 6.734-3.455 6.734-7.748V13.494zm-39 21.01V22.68c0-4.292 3.004-7.747 6.735-7.747 3.73 0 6.734 3.455 6.734 7.747v11.825h5.098V20.813c0-4.293-3.003-7.748-6.734-7.748v0c-3.73 0-6.734 3.455-6.734 7.748v13.694z" style="fill:none;stroke:#fff;stroke-width:1;stroke-linecap:round;stroke-linejoin:round;stroke-opacity:1"/></svg>