<?xml version="1.0" encoding="UTF-8"?>
<svg width="48" height="48" version="1.1" viewBox="0 0 12.7 12.7" xml:space="preserve" xmlns="http://www.w3.org/2000/svg"><defs><style>.q{fill:#fff;}.r,.s{fill:none;stroke:#fff;stroke-linecap:round;stroke-linejoin:round;}.s{stroke-width:1.0050968px;}</style><style>.a{fill:none;stroke:#fff;stroke-linecap:round;stroke-linejoin:round;}</style><style>
      .cls-1 {
        fill: none;
        stroke: #fff;
        stroke-linecap: round;
        stroke-linejoin: round;
      }
    </style><style>.c{fill:none;stroke:#fff;stroke-linecap:round;stroke-linejoin:round;}</style><style>
      .cls-1 {
        fill: none;
        stroke: #fff;
        stroke-linecap: round;
        stroke-linejoin: round;
      }
    </style><style>.c{fill:none;stroke:#fff;stroke-linecap:round;stroke-linejoin:round;}</style><style>.c{fill:none;stroke:#fff;stroke-linecap:round;stroke-linejoin:round;}</style><style>.a{fill:none;stroke:#fff;stroke-linecap:round;stroke-linejoin:round;}</style><style>.b{fill:none;stroke:#fff;stroke-linecap:round;stroke-linejoin:round;}</style></defs><g transform="translate(-1.0583 -1.5409)" fill="none" stroke-width=".26458"><path class="a" d="m11.359 8.2543 1.2085-3.4147-3.2459-1.4007-2.2968 0.91228 0.94192 2.372 1.4563-0.57838-0.9996 3.2996-2.9914-1.7145 1.4563-0.57838-0.94192-2.372-2.2971 0.91228-1.4004 3.2459 6.6291 3.4053"/><circle cx="11.338" cy="10.698" r=".83272" stroke="#fff" stroke-linecap="round" stroke-linejoin="round"/><path d="m9.6811 8.7738c-0.072361 0.00366-0.13809 0.029573-0.18759 0.079065-0.13198 0.13198-0.096225 0.38023 0.080615 0.55707l0.54105 0.54105a1.4334 1.4334 0 0 0-0.1111 0.22324h-0.22169c-0.18032 0-0.32556 0.14544-0.32556 0.32608v0.39481c0 0.18064 0.14524 0.32608 0.32556 0.32608h0.22169a1.4334 1.4334 0 0 0 0.1111 0.22324l-0.54105 0.54105c-0.17684 0.17684-0.21259 0.42509-0.080615 0.55707 0.13198 0.13198 0.38023 0.09623 0.55707-0.08061l0.54105-0.54106a1.4334 1.4334 0 0 0 0.22324 0.1111v0.22169c0 0.18032 0.14544 0.32556 0.32608 0.32556h0.39481c0.18064 0 0.32608-0.14524 0.32608-0.32556v-0.22169a1.4334 1.4334 0 0 0 0.22324-0.1111l0.54105 0.54105c0.17684 0.17684 0.42509 0.2126 0.55707 0.08061 0.13198-0.13198 0.09623-0.38023-0.08062-0.55707l-0.54105-0.54105a1.4334 1.4334 0 0 0 0.1111-0.22324h0.22169c0.18032 0 0.32556-0.14544 0.32556-0.32608v-0.39481c0-0.18064-0.14524-0.32608-0.32556-0.32608h-0.22169a1.4334 1.4334 0 0 0-0.1111-0.22324l0.54105-0.54105c0.17684-0.17684 0.2126-0.42509 0.08062-0.55707-0.13198-0.13198-0.38023-0.096225-0.55707 0.080615l-0.54106 0.54105a1.4334 1.4334 0 0 0-0.22324-0.1111v-0.22169c0-0.18032-0.14544-0.32556-0.32608-0.32556h-0.39481c-0.18064 0-0.32608 0.14524-0.32608 0.32556v0.22169a1.4334 1.4334 0 0 0-0.22324 0.1111l-0.54105-0.54105c-0.11053-0.11053-0.24889-0.16578-0.36949-0.15968z" stroke="#fff" stroke-linecap="round" stroke-linejoin="round"/></g></svg>
