<?xml version="1.0" encoding="UTF-8" standalone="no"?>
<svg
   viewBox="0 0 48 48"
   version="1.1"
   id="svg1"
   xml:space="preserve"
   xmlns="http://www.w3.org/2000/svg"
   xmlns:svg="http://www.w3.org/2000/svg"><defs
     id="defs1"><style
       id="style1">.a{fill:none;stroke:#fff;stroke-linecap:round;stroke-linejoin:round;}</style></defs><path
     class="a"
     d="m 40.5,5.5 h -33 a 2,2 0 0 0 -2,2 v 33 a 2,2 0 0 0 2,2 h 33 a 2,2 0 0 0 2,-2 v -33 a 2,2 0 0 0 -2,-2 z"
     id="path1"
     style="display:none" /><g
     id="g10"
     transform="matrix(0.8924156,0.24038474,-0.24029894,0.89273422,9.3576643,-3.6406046)"
     style="stroke-width:1.08182"><circle
       style="fill:none;stroke:#ffffff;stroke-width:1.08182;stroke-linecap:round;stroke-linejoin:round;stroke-dashoffset:0.5"
       id="path10-0"
       cx="20.800001"
       cy="22.900002"
       r="1.2" /><circle
       style="fill:none;stroke:#ffffff;stroke-width:1.08182;stroke-linecap:round;stroke-linejoin:round;stroke-dashoffset:0.5"
       id="path10-3"
       cx="27.013914"
       cy="16.909431"
       r="1.2" /><rect
       style="fill:none;stroke:#ffffff;stroke-width:1.08182;stroke-linecap:round;stroke-linejoin:round;stroke-dashoffset:0.5"
       id="rect1"
       width="18"
       height="38"
       x="17.959354"
       y="4.7024488"
       rx="3"
       ry="3" /><path
       style="fill:none;stroke:#ffffff;stroke-width:1.08182;stroke-linecap:round;stroke-linejoin:round;stroke-dashoffset:0.5"
       d="M 24,16.35852 V 29.515373"
       id="path2" /><path
       style="fill:none;stroke:#ffffff;stroke-width:1.08182;stroke-linecap:round;stroke-linejoin:round;stroke-dashoffset:0.5"
       d="M 29.965607,16.158416 V 29.365294"
       id="path3" /><path
       style="fill:none;stroke:#ffffff;stroke-width:1.08182;stroke-linecap:round;stroke-linejoin:round;stroke-dashoffset:0.5"
       d="M 20.1605,26.113601 H 33.267327"
       id="path4" /><path
       style="fill:none;stroke:#ffffff;stroke-width:1.08182;stroke-linecap:round;stroke-linejoin:round;stroke-dashoffset:0.5"
       d="M 20.41063,19.760292 H 33.267327"
       id="path5" /><path
       style="fill:none;stroke:#ffffff;stroke-width:1.08182;stroke-linecap:round;stroke-linejoin:round;stroke-dashoffset:0.5"
       d="m 25.563314,21.461178 2.751433,2.901511"
       id="path6" /><path
       style="fill:none;stroke:#ffffff;stroke-width:1.08182;stroke-linecap:round;stroke-linejoin:round;stroke-dashoffset:0.5"
       d="m 28.264721,21.411152 -2.701407,2.851485"
       id="path7" /><path
       style="fill:none;stroke:#ffffff;stroke-width:1.08182;stroke-linecap:round;stroke-linejoin:round;stroke-dashoffset:0.5"
       d="m 31.266284,27.464304 2.851486,2.851485"
       id="path8" /><path
       style="fill:none;stroke:#ffffff;stroke-width:1.08182;stroke-linecap:round;stroke-linejoin:round;stroke-dashoffset:0.5"
       d="m 34.11777,27.414278 -2.80146,2.851485"
       id="path9" /><circle
       style="fill:none;stroke:#ffffff;stroke-width:1.08182;stroke-linecap:round;stroke-linejoin:round;stroke-dashoffset:0.5"
       id="path10"
       cx="20.835981"
       cy="16.90904"
       r="1.2" /></g><ellipse
     style="fill:none;stroke:#ffffff;stroke-width:0.999999;stroke-linecap:round;stroke-linejoin:round;stroke-dashoffset:0.5"
     id="path11"
     cx="14.247134"
     cy="19.133171"
     rx="1.1090424"
     ry="1.1094383" /><path
     style="fill:none;stroke:#ffffff;stroke-width:0.999999;stroke-linecap:round;stroke-linejoin:round;stroke-dashoffset:0.5"
     d="m 11.404609,17.117802 c 1.271382,-1.387761 3.881918,-1.712753 5.131994,0"
     id="path12" /><path
     style="fill:none;stroke:#ffffff;stroke-width:0.999999;stroke-linecap:round;stroke-linejoin:round;stroke-dashoffset:0.5"
     d="m 10.156286,15.267775 c 2.111361,-2.316979 6.164557,-2.501781 7.998513,0"
     id="path13" /><path
     style="fill:none;stroke:#ffffff;stroke-width:0.999999;stroke-linecap:round;stroke-linejoin:round;stroke-dashoffset:0.5"
     d="m 8.3069192,13.649001 c 2.6355888,-3.311465 8.4556148,-3.250635 11.6972468,0"
     id="path14" /><path
     style="fill:none;stroke:#ffffff;stroke-width:0.999999;stroke-linecap:round;stroke-linejoin:round;stroke-dashoffset:0.5"
     d="M 10.387457,9.2551858 16.998704,20.704874"
     id="path15" /></svg>
