<svg xmlns="http://www.w3.org/2000/svg" xml:space="preserve" id="svg1" version="1.1" viewBox="0 0 48 48"><defs id="defs1"><style id="style1">.a{fill:none;stroke:#fff;stroke-linecap:round;stroke-linejoin:round}</style></defs><path id="path69589" d="M20.456 29.547a5.145 18.373 50.128 0 1-10.442 2.986 5.145 18.373 50.128 0 1 8.838-14.245m12.014-8.414a5.145 18.373 50.128 0 1 7.12-1.143v0a5.145 18.373 50.128 0 1-10.228 15.462 5.145 18.373 50.128 0 1-2.984 2.392m-2.001 7.17C21.348 21.47 26.958 14.253 35.382 9.121m0 0c-6.403.523-12.424 3.305-16.462 8.066-1.202 16.076 7.65 18.759 9.123 26.34 1.38-9.284-4.753-11.013-3.164-23.83m.082-11.566a3.657 3.66 90 0 1-3.66 3.657 3.657 3.66 90 0 1-3.66-3.657 3.657 3.66 90 0 1 3.66-3.657 3.657 3.66 90 0 1 3.66 3.657Z" style="fill:none;stroke:#fff;stroke-width:1;stroke-linecap:round;stroke-linejoin:round;stroke-opacity:1"/></svg>