<svg xmlns="http://www.w3.org/2000/svg" xml:space="preserve" width="48" height="48" viewBox="0 0 12.7 12.7"><path fill="none" stroke="#fff" stroke-linecap="round" stroke-linejoin="round" stroke-width=".265" d="M11.077 7.981a.269.27 0 0 1-.269.27.269.27 0 0 1-.269-.27.269.27 0 0 1 .27-.269.269.27 0 0 1 .268.27zm0-1.87a.269.27 0 0 1-.269.27.269.27 0 0 1-.269-.27.269.27 0 0 1 .27-.269.269.27 0 0 1 .268.27zM5.184 2.544l.975.975m.539 0 1.74-1.741M2.972 4.064h5.985c.62 0 1.12.5 1.12 1.12v3.674c0 .621-.5 1.12-1.12 1.12H2.972c-.62 0-1.12-.499-1.12-1.12V5.185c0-.62.5-1.12 1.12-1.12zm6.65 6.86v-.399m-6.434.398v-.398M2.31 3.518h8.08c.62 0 1.119.5 1.119 1.12v4.767c0 .62-.5 1.12-1.12 1.12H2.31c-.62 0-1.119-.5-1.119-1.12V4.639c0-.62.5-1.12 1.12-1.12z"/></svg>
