<?xml version="1.0" encoding="UTF-8"?><svg id="a" xmlns="http://www.w3.org/2000/svg" viewBox="0 0 48 48"><defs><style>.d{fill:none;stroke:#fff;stroke-linecap:round;stroke-linejoin:round;}</style></defs><rect class="d" x="5.5" y="5.5" width="37" height="37" rx="4" ry="4"/><line class="d" x1="23.264" x2="23.264" y1="31.754" y2="38.912"/><path class="d" d="m25.818 38.912v-7.1585h2.3418c1.324 0 2.3972 1.0764 2.3972 2.4041 0 1.3277-1.0733 2.4041-2.3972 2.4041h-2.3418"/><path class="d" d="m15.971 38.912v-7.1585h2.3418c1.324 0 2.3972 1.0764 2.3972 2.4041 0 1.3277-1.0733 2.4041-2.3972 2.4041h-2.3418"/><line class="d" x1="18.314" x2="20.656" y1="36.562" y2="38.911"/><line class="d" x1="9" x2="13.739" y1="31.754" y2="31.754"/><line class="d" x1="11.37" x2="11.37" y1="38.912" y2="31.754"/><line class="d" x1="9" x2="13.739" y1="22.127" y2="22.127"/><line class="d" x1="11.37" x2="11.37" y1="29.285" y2="22.127"/><line class="d" x1="15.971" x2="15.971" y1="22.127" y2="29.285"/><line class="d" x1="20.71" x2="20.71" y1="22.127" y2="29.285"/><line class="d" x1="15.971" x2="20.71" y1="25.693" y2="25.693"/><line class="d" x1="23.264" x2="25.598" y1="25.706" y2="25.706"/><path class="d" d="m26.841 29.285h-3.5766v-7.1585h3.5766"/><path class="d" d="m15.971 19.659v-7.1585l4.739 7.1585v-7.1585"/><rect class="d" x="9" y="12.5" width="4.739" height="7.1585" rx="2.3695" ry="2.3713"/></svg>
