<svg xmlns="http://www.w3.org/2000/svg" xml:space="preserve" id="svg1" version="1.1" viewBox="0 0 48 48"><defs id="defs1"><style id="style1">.a{fill:none;stroke:#fff;stroke-linecap:round;stroke-linejoin:round}</style></defs><path id="path14436" d="M45.5 24A21.5 21.5 0 0 1 24 45.5 21.5 21.5 0 0 1 2.5 24 21.5 21.5 0 0 1 24 2.5 21.5 21.5 0 0 1 45.5 24Z" style="fill:none;stroke:#fff;stroke-width:1;stroke-linecap:round;stroke-linejoin:round;stroke-opacity:1"/><path id="path14434" d="M8.2103726 17.841737c3.2588404-1.966581 7.7973424-2.248769 9.9261414-1.770171 1.132749-1.318174 2.716245-2.131966 5.111325-2.555765 4.535895.137122 12.43965.675257 16.542023 4.755447-3.12027-1.70753-6.932589-2.12448-11.415416-1.596978" style="fill:none;stroke:#fff;stroke-width:1;stroke-linecap:round;stroke-linejoin:round;stroke-opacity:1"/><path id="path14432" d="M37.684549 27.592186v.04541c0 2.027909-1.669841 3.671855-3.72968 3.671855h-.000014c-2.059839 0-3.729666-1.643946-3.729666-3.671855v-3.741139c0-2.027912 1.669827-3.671858 3.72968-3.671854v0c2.059839.000003 3.72968 1.643947 3.72968 3.671854v.04541" style="fill:none;stroke:#fff;stroke-width:1;stroke-linecap:round;stroke-linejoin:round;stroke-opacity:1"/><path id="path14430" d="M19.89881 23.895811c0-2.266181 2.085285-4.052871 4.469818-3.601714 1.564143.295935 2.813192 1.627696 2.968882 3.188248.115831 1.160803-.257306 2.306211-1.071756 3.009869-1.508789 1.303552-6.366944 4.816593-6.366944 4.816593h7.459361" style="fill:none;stroke:#fff;stroke-width:1;stroke-linecap:round;stroke-linejoin:round;stroke-opacity:1"/><path id="rect981" d="M13.302241 20.224605v0c2.066243 0 3.72968 1.637647 3.72968 3.671856v3.741126c0 2.034208-1.663437 3.671855-3.72968 3.671855v0c-2.066243 0-3.7296822-1.637647-3.7296822-3.671855v-3.741126c0-2.034209 1.6634392-3.671856 3.7296822-3.671856z" style="fill:none;stroke:#fff;stroke-width:1;stroke-linecap:round;stroke-linejoin:round;stroke-opacity:1"/></svg>