<?xml version="1.0" encoding="UTF-8" standalone="no"?>
<svg
   id="Layer_1"
   data-name="Layer 1"
   version="1.1"
   viewBox="0 0 48 48"
   sodipodi:docname="opentune.svg"
   inkscape:version="1.3.2 (091e20ef0f, 2023-11-25)"
   xml:space="preserve"
   xmlns:inkscape="http://www.inkscape.org/namespaces/inkscape"
   xmlns:sodipodi="http://sodipodi.sourceforge.net/DTD/sodipodi-0.dtd"
   xmlns="http://www.w3.org/2000/svg"
   xmlns:svg="http://www.w3.org/2000/svg"><sodipodi:namedview
     id="namedview1"
     pagecolor="#242424"
     bordercolor="#000000"
     borderopacity="0.25"
     inkscape:showpageshadow="2"
     inkscape:pageopacity="0.0"
     inkscape:pagecheckerboard="0"
     inkscape:deskcolor="#535353"
     inkscape:zoom="6.2976698"
     inkscape:cx="11.988561"
     inkscape:cy="9.7655168"
     inkscape:window-width="1918"
     inkscape:window-height="1053"
     inkscape:window-x="0"
     inkscape:window-y="0"
     inkscape:window-maximized="1"
     inkscape:current-layer="Layer_1" /><defs
     id="defs1"><style
       id="style1">
      .cls-1 {
        fill: none;
        stroke: #fff;
        stroke-linecap: round;
        stroke-linejoin: round;
      }
    </style></defs><path
     style="display:inline;fill:none;stroke:#ffffff;stroke-width:1;stroke-linecap:round;stroke-linejoin:round;stroke-opacity:1"
     d="m 38.883569,24.324916 c -0.01335,0.623378 -0.06502,1.237323 -0.152755,1.839572 -1.048135,7.19508 -7.243309,12.720819 -14.729076,12.720819 C 15.78081,38.885307 9.1164309,32.220928 9.1164309,24 c 0,-8.220928 6.6643791,-14.8853072 14.8853071,-14.8853072"
     id="path3" /><circle
     style="fill:none;stroke:#ffffff;stroke-width:1;stroke-linecap:round;stroke-linejoin:round;stroke-opacity:1"
     id="path4"
     cx="24"
     cy="24"
     r="21.5" /><g
     id="g6"><path
       id="path1"
       style="fill:none;stroke:#ffffff;stroke-width:1;stroke-linecap:round;stroke-linejoin:round;stroke-opacity:1"
       d="M 38.809743 22.146781 C 38.12446 16.39371 34.168113 11.636335 28.84367 9.8344798 C 28.437405 9.6969949 27.860493 9.8499516 27.860496 10.610334 L 27.860539 23.931802 " /><path
       style="fill:none;stroke:#ffffff;stroke-width:1;stroke-linecap:round;stroke-linejoin:round;stroke-opacity:1"
       d="m 27.854554,23.971882 c 0,2.113221 -1.713526,3.826327 -3.826676,3.826327 -2.113149,0 -3.826196,-1.713106 -3.826196,-3.826327 0,-2.113226 1.713047,-3.826328 3.826196,-3.826328 2.11315,0 3.826676,1.713104 3.826676,3.826328"
       id="path5" /></g></svg>
