<?xml version="1.0" encoding="UTF-8"?>
<svg id="b" version="1.1" viewBox="0 0 48 48" xml:space="preserve" xmlns="http://www.w3.org/2000/svg"><defs><style>.c{fill:none;stroke:#fff;stroke-linecap:round;stroke-linejoin:round;}</style><style>.a{fill:none;stroke:#fff;stroke-linecap:round;stroke-linejoin:round;}</style></defs><path class="c" d="m37.863 26.232c0.9583-0.8041 2.4497-0.6479 3.2538 0.3104s0.6895 2.4109-0.2688 3.2151l-1.5289-1.7903zm-9.5711 7.5704 9.5711-7.5704 1.456 1.7352 1.5289 1.7903-9.544 7.6353m-3.0124-3.5901-1.5405 4.2324 4.5529-0.6423" stroke="#fff"/><path class="a" transform="translate(-1.85 4.585)" d="m43.5 19.765v-11.385a3 3 45 0 0-3-3h-5.3208l3.94 5.74h-4.91l-3.94-5.74h-3.95l3.95 5.74h-4.91l-3.95-5.74h-3.94l3.94 5.74h-4.91l-3.94-5.74h-1.3592a3 3 135 0 0-3 3v22.07a3 3 45 0 0 3 3h15.255" stroke="#fff"/><path d="m38.547 23.617v-4.9675l-29.094 0.03955v14.035c0.069829 0.83852-0.3115 2.141 0.74805 2.482l0.07944 0.0102 0.09917 0.0129 14.909 0.0257" fill="none" stroke="#fff" stroke-linecap="round" stroke-linejoin="round" stroke-width="1px"/></svg>
