<svg xmlns="http://www.w3.org/2000/svg" xml:space="preserve" width="48" height="48" viewBox="0 0 12.7 12.7"><path fill="none" stroke="#fff" stroke-linecap="round" stroke-linejoin="round" stroke-width=".265" d="M1.453 8.675A9.079 2.56 0 0 1 6.35 8.27a9.079 2.56 0 0 1 4.895.404m-1.894.874a.621.474 0 0 1-.622.474.621.474 0 0 1-.621-.474.621.474 0 0 1 .621-.474.621.474 0 0 1 .622.474zM6.52 9.15v1.154m1.242-.756a.621.474 0 0 1-.621.474.621.474 0 0 1-.622-.474.621.474 0 0 1 .622-.474.621.474 0 0 1 .621.474zm-2.83-.398v1.154m1.243-.756a.621.474 0 0 1-.622.474.621.474 0 0 1-.621-.474.621.474 0 0 1 .621-.474.621.474 0 0 1 .621.474zm-1.588 0a.621.474 0 0 1-.621.474.621.474 0 0 1-.622-.474.621.474 0 0 1 .622-.474.621.474 0 0 1 .621.474zm4.255-5.476A2.625 2.625 0 0 1 6.35 5.875a2.625 2.625 0 0 1-2.493-1.803m5.507-.002a.596.596 0 0 1-.596.596.596.596 0 0 1-.597-.596.596.596 0 0 1 .597-.597.596.596 0 0 1 .596.597zm-4.835 0a.596.596 0 0 1-.597.596.596.596 0 0 1-.596-.596.596.596 0 0 1 .596-.597.596.596 0 0 1 .597.597zM2.514 1.455h7.673c.586 0 1.058.472 1.058 1.058v7.673c0 .587-.472 1.059-1.058 1.059H2.514a1.056 1.056 0 0 1-1.059-1.059V2.513c0-.586.472-1.058 1.059-1.058z"/></svg>
