<svg xmlns="http://www.w3.org/2000/svg" xml:space="preserve" viewBox="0 0 48 48"><path d="M13.370886 22.709998c0-3.002023 2.433532-5.435643 5.435445-5.435643s5.435443 2.43362 5.435443 5.435643c0 3.002025-2.43353 5.435645-5.435443 5.435645s-5.435445-2.43362-5.435447-5.435645c-.000001-3.002023-2.43353-5.435643-5.4354431-5.435643-3.0019137 0-5.4354449 2.43362-5.4354449 5.435643 0 3.002025 2.4335312 5.435645 5.4354449 5.435645 3.0019131 0 5.4354431-2.43362 5.4354431-5.435645M25.536904 19.715329c.972799-1.165178 2.427716-1.905182 4.053503-1.905182 2.928878 0 5.3032 2.401639 5.3032 5.364211h-8.829335M31.662054 28.11385c-.63644.273448-1.336577.42472-2.071647.42472-1.736604 0-3.278251-.844321-4.245608-2.149272M23.235765 30.725645c-1.423309-.697759-2.137877-1.317381-2.98655-2.517635" style="fill:none;stroke:#fff;stroke-width:1;stroke-linecap:round;stroke-linejoin:round;stroke-dashoffset:1.3;stroke-opacity:1"/><path d="M42.268451 28.113847c-.63644.273448-1.336578.424721-2.071645.424721-2.928876 0-5.303199-2.40164-5.303199-5.364212 0-2.962573 2.374323-5.364212 5.303199-5.364212 2.928875 0 5.303198 2.401639 5.303198 5.364212H35.178839" style="fill:none;stroke:#fff;stroke-width:1;stroke-linecap:round;stroke-linejoin:round;stroke-dashoffset:1.3;stroke-opacity:1"/></svg>