<svg xmlns="http://www.w3.org/2000/svg" viewBox="0 0 48 48"><rect class="r" x="3.086" y="17.801" width="7.022" height="10.599" rx="2.65" ry="2.65" style="fill:none;stroke:#fff;stroke-linecap:round;stroke-linejoin:round;stroke-width:1px"/><path class="r" d="M14.187 28.581V17.983h3.469a3.555 3.555 0 0 1 3.552 3.559 3.555 3.555 0 0 1-3.552 3.559h-3.469m3.469 0 3.47 3.477m4.661-5.113h3.444m-3.444 5.299V18.165h5.299" style="fill:none;stroke:#fff;stroke-linecap:round;stroke-linejoin:round;stroke-width:1px"/><path style="stroke:#fff;stroke-linejoin:round;fill:#d8d8d8;fill-opacity:0" fill="none" d="M38.978 27.059h2.061v2.129h-2.061z"/><path style="stroke-width:1px;stroke:#fff;stroke-linejoin:round;fill:#d8d8d8;fill-opacity:0" fill="none" d="M39.047 22.413h2.061v2.129h-2.061zm-.043-4.604h2.061v2.129h-2.061zm-4.359-.064h2.061v2.129h-2.061zm8.6.078h2.061v2.129h-2.061z"/></svg>