<svg data-name="Layer 1" version="1.1" viewBox="0 0 48 48" xmlns="http://www.w3.org/2000/svg">
 <defs>
  <style>.cls-1 {
        fill: none;
        stroke: #fff;
        stroke-linecap: round;
        stroke-linejoin: round;
      }</style>
 </defs>
 <rect class="cls-1" x="5.5" y="5.5" width="37" height="37" rx="4" ry="4"/>
 <path transform="rotate(-13.11)" d="m6.7959 35.367h-1.5904c-0.87167 0-1.5734-0.70174-1.5734-1.5734v-12.934c0-0.87167 0.70174-1.5734 1.5734-1.5734h21.985c0.87167 0 1.5734 0.70174 1.5734 1.5734l1e-6 5.7028" fill="none" stroke="#fff"/>
 <path d="m14.488 23.828-4.9415 1.1508-0.72514-3.1137 5.7268-1.3337" fill="#fff" stroke="#fff"/>
 <path d="m14.791 23.758-0.3027 0.070497" fill="none" stroke="#fff"/>
 <path d="m19.714 19.342 13.536-3.1524 0.7341 3.1521" fill="#fff" stroke="#fff"/>
 <path d="m14.548 20.532 0.33592-0.078233" fill="none" stroke="#fff"/>
 <rect x="14.64" y="19.345" width="25.132" height="16.081" rx="1.5734" fill="none" stroke="#fff"/>
 <path d="m19.953 26.544h-1.689c-0.58895 1.5e-5 -1.0676-0.47521-1.0717-1.0641v-1.695c-1.5e-5 -0.59069 0.48107-1.0684 1.0717-1.0641h1.689c0.58771 0 1.0641 0.47644 1.0641 1.0641v1.689c-8.2e-4 0.58836-0.4758 1.0661-1.0641 1.0702z" fill="none" stroke="#fff"/>
 <path d="m21.52 32.056h-4.176c-0.08396 0-0.15202-0.06806-0.15202-0.15202v-1.7802c0-0.08396 0.06806-0.15202 0.15202-0.15202h4.176c0.08396 0 0.15202 0.06806 0.15202 0.15202v1.7802c0 0.08396-0.06806 0.15202-0.15202 0.15202z" fill="none" stroke="#fff"/>
 <path d="m26.703 32.056h-4.176c-0.08396 0-0.15202-0.06806-0.15202-0.15202v-1.7802c0-0.08396 0.06806-0.15202 0.15202-0.15202h4.176c0.08396 0 0.15202 0.06806 0.15202 0.15202v1.7802c0 0.08396-0.06806 0.15202-0.15202 0.15202z" fill="none" stroke="#fff"/>
 <path d="m31.884 32.056h-4.1745c-0.08396 0-0.15202-0.06806-0.15202-0.15202v-1.7802c0-0.08396 0.06806-0.15202 0.15202-0.15202h4.1745c0.08396 0 0.15202 0.06806 0.15202 0.15202v1.7802c0 0.08396-0.06806 0.15202-0.15202 0.15202z" fill="none" stroke="#fff"/>
 <path d="m37.074 32.056h-4.1821c-0.08396 0-0.15202-0.06806-0.15202-0.15202v-1.7802c0-0.08396 0.06806-0.15202 0.15202-0.15202h4.1821c0.08396 0 0.15202 0.06806 0.15202 0.15202v1.7802c0 0.08396-0.06806 0.15202-0.15202 0.15202z" fill="none" stroke="#fff"/>
 <path d="m33.522 23.34a1.9079 1.9079 0 0 1 0.18343 0.23327m-0.01342 2.1359a1.9109 1.9109 0 0 1-0.19056 0.23567 1.9109 1.9109 0 0 1-1.3814 0.59535 1.9079 1.9079 0 1 1 1.402-3.2002" fill="none" stroke="#fff"/>
 <ellipse cx="35.104" cy="24.638" rx="1.9199" ry="1.9199" fill="none" stroke="#fff" stroke-linecap="round" stroke-linejoin="round" stroke-width="1.0002" style="paint-order:stroke fill markers"/>
</svg>
