<svg xmlns="http://www.w3.org/2000/svg" xml:space="preserve" width="48" height="48" viewBox="0 0 12.7 12.7"><path fill="none" stroke="#fff" stroke-linecap="round" stroke-linejoin="round" stroke-width=".265" d="M9.439 3.68v3.568m.47 1.301a.471.471 0 0 1-.47.472.471.471 0 0 1-.472-.472.471.471 0 0 1 .471-.471.471.471 0 0 1 .472.471zM8.065 6.364a2.637 2.637 0 0 1-2.637 2.637A2.637 2.637 0 0 1 2.79 6.364a2.637 2.637 0 0 1 2.637-2.637 2.637 2.637 0 0 1 2.637 2.637zm-5.55-4.909h7.672c.587 0 1.059.472 1.059 1.059v7.672c0 .587-.472 1.059-1.059 1.059H2.514a1.056 1.056 0 0 1-1.059-1.059V2.514c0-.587.472-1.059 1.059-1.059z"/></svg>
