<?xml version="1.0" encoding="UTF-8"?><svg id="a" xmlns="http://www.w3.org/2000/svg" viewBox="0 0 48 48"><defs><style>.d{fill:none;stroke:#fff;stroke-linecap:round;stroke-linejoin:round;}</style></defs><rect class="d" x="5.5" y="5.5" width="37" height="37" rx="4" ry="4"/><rect class="d" x="20.803" y="23.014" width="3.1209" height="4.0206" rx="1.5605" ry="1.5172"/><path class="d" d="m13.38 23.014v2.5034c0 0.83795 0.69862 1.5172 1.5605 1.5172 0.86184 0 1.5605-0.67925 1.5605-1.5172v-2.5034"/><line class="d" x1="16.501" x2="16.501" y1="25.517" y2="27.034"/><path class="d" d="m17.872 24.531c0-0.83795 0.69862-1.5172 1.5605-1.5172"/><line class="d" x1="17.872" x2="17.872" y1="23.014" y2="27.034"/><path class="d" d="m34.074 24.531c0-0.83795 0.69862-1.5172 1.5605-1.5172"/><line class="d" x1="34.074" x2="34.074" y1="23.014" y2="27.034"/><path class="d" d="m28.211 26.27c-0.26902 0.4566-0.77508 0.76414-1.355 0.76414-0.86184 0-1.5605-0.67925-1.5605-1.5172v-0.98618c0-0.83795 0.69862-1.5172 1.5605-1.5172 0.57885 0 1.0841 0.3064 1.3535 0.76156"/><path class="d" d="m40.126 24.531c0-0.83795-0.69862-1.5172-1.5605-1.5172s-1.5605 0.67925-1.5605 1.5172v0.98618c0 0.83795 0.69862 1.5172 1.5605 1.5172s1.5605-0.67925 1.5605-1.5172"/><line class="d" x1="40.126" x2="40.126" y1="27.034" y2="20.966"/><rect class="d" x="7.8738" y="20.966" width="4.1352" height="6.0688" rx="2.0676" ry="2.0103"/><path class="d" d="m32.7 25.517c0 0.83795-0.69331 1.5172-1.5486 1.5172h-0.54351c-0.5666 0-1.0259-0.45-1.0259-1.0051s0.45932-1.0051 1.0259-1.0051h2.095"/><path class="d" d="m29.972 23.412c0.37607-0.36618 0.63956-0.39827 1.3654-0.39827 0.824 0 1.3654 0.35237 1.3654 1.3049v2.7157"/></svg>
