<svg version="1.1" viewBox="0 0 48 48" xml:space="preserve" xmlns="http://www.w3.org/2000/svg"><g fill="none" stroke="#fff" stroke-linecap="round" stroke-linejoin="round"><circle cx="24" cy="27.249" r="7" style="paint-order:stroke fill markers"/><path d="m30.767 24.3a5.5 5.5 0 0 1 6.1066-0.23993 5.5 5.5 0 0 1 2.5585 5.5499 5.5 5.5 0 0 1-4.1483 4.4876 5.5 5.5 0 0 1-5.7335-2.1152" style="paint-order:stroke fill markers"/><path d="m27.5 17.749a5.5 5.5 0 0 1 5.5 5.5" style="paint-order:stroke fill markers"/><path d="m18.111 23.139a5.5 5.5 0 0 1-0.61625-7.0438 5.5 5.5 0 0 1 6.8297-1.83 5.5 5.5 0 0 1 2.9882 6.4082" style="paint-order:stroke fill markers"/><path d="m13.75 33.513a5.5 5.5 0 0 1-6.2853-0.5499 5.5 5.5 0 0 1-1.633-6.0944 5.5 5.5 0 0 1 5.1683-3.6189" style="paint-order:stroke fill markers"/><path d="m12.611 29.639a5.5 5.5 0 0 1-1.1922-5.9938 5.5 5.5 0 0 1 5.0813-3.3952" style="paint-order:stroke fill markers"/><path d="m18.596 32.75a3 3 0 0 1-3.8659 1.2189 3 3 0 0 1-1.5512-3.745 3 3 0 0 1 3.5955-1.8717" style="paint-order:stroke fill markers"/><path d="m13.378 21.121a3 3 0 0 1-0.25874-3.9476 3 3 0 0 1 3.8801-0.77179" style="paint-order:stroke fill markers"/><path d="m39.5 28.25a3 3 0 0 1 2.8978 2.2235 3 3 0 0 1-1.3978 3.3745 3 3 0 0 1-3.6213-0.47676" style="paint-order:stroke fill markers"/></g></svg>
