<?xml version="1.0" encoding="UTF-8" standalone="no"?>
<svg
   id="b"
   viewBox="0 0 48 48"
   version="1.1"
   sodipodi:docname="themes_alt.svg"
   xml:space="preserve"
   inkscape:version="1.2.2 (b0a8486541, 2022-12-01)"
   xmlns:inkscape="http://www.inkscape.org/namespaces/inkscape"
   xmlns:sodipodi="http://sodipodi.sourceforge.net/DTD/sodipodi-0.dtd"
   xmlns="http://www.w3.org/2000/svg"
   xmlns:svg="http://www.w3.org/2000/svg"><sodipodi:namedview
     id="namedview14600"
     pagecolor="#505050"
     bordercolor="#eeeeee"
     borderopacity="1"
     inkscape:showpageshadow="0"
     inkscape:pageopacity="0"
     inkscape:pagecheckerboard="0"
     inkscape:deskcolor="#505050"
     showgrid="false"
     inkscape:zoom="9.0729167"
     inkscape:cx="12.013777"
     inkscape:cy="23.366246"
     inkscape:window-width="1918"
     inkscape:window-height="1053"
     inkscape:window-x="0"
     inkscape:window-y="0"
     inkscape:window-maximized="1"
     inkscape:current-layer="b" /><defs
     id="defs14593"><style
       id="style14591">.c{fill:none;stroke:#fff;stroke-linecap:round;stroke-linejoin:round;}</style></defs><path
     style="fill:none;stroke:#ffffff;stroke-width:1;stroke-linecap:round;stroke-linejoin:round;stroke-dashoffset:3.6;stroke-opacity:1"
     d="M 24.289462,42.469959 C 13.912485,42.411539 5.4999844,34.200668 5.4999844,23.99998 c 0,-10.200689 8.4123356,-18.4699803 18.7894776,-18.4699803 6.602099,0 12.328686,3.6404998 15.760037,8.4093463 1.630311,2.265786 3.13317,5.465512 2.131905,10.278654 -1.001264,4.813143 -5.944447,7.888072 -8.72313,7.888072 h -4.506071 c -3.896648,0 -4.265052,3.667043 -2.634724,5.396005 1.530204,1.622782 0.408603,4.9816 -2.028017,4.967882 z"
     id="path15326" /><path
     style="fill:none;stroke:#ffffff;stroke-width:1;stroke-linecap:round;stroke-linejoin:round;stroke-dashoffset:3.6;stroke-opacity:1"
     d="m 15.932709,20.832436 a 3.2109785,3.2110505 0 0 1 -3.210979,3.21105 3.2109785,3.2110505 0 0 1 -3.2109783,-3.21105 3.2109785,3.2110505 0 0 1 3.2109783,-3.211051 3.2109785,3.2110505 0 0 1 3.210979,3.211051 z"
     id="path15324" /><path
     style="fill:none;stroke:#ffffff;stroke-width:1;stroke-linecap:round;stroke-linejoin:round;stroke-dashoffset:3.6;stroke-opacity:1"
     d="m 38.48865,20.832436 a 3.2109785,3.2110505 0 0 1 -3.210978,3.21105 3.2109785,3.2110505 0 0 1 -3.210979,-3.21105 3.2109785,3.2110505 0 0 1 3.210979,-3.211051 3.2109785,3.2110505 0 0 1 3.210978,3.211051 z"
     id="path15322" /><path
     style="fill:none;stroke:#ffffff;stroke-width:1;stroke-linecap:round;stroke-linejoin:round;stroke-dashoffset:3.6;stroke-opacity:1"
     d="m 32.446282,12.616666 a 3.2109785,3.2110505 0 0 1 -3.210978,3.21105 3.2109785,3.2110505 0 0 1 -3.210979,-3.21105 3.2109785,3.2110505 0 0 1 3.210979,-3.2110507 3.2109785,3.2110505 0 0 1 3.210978,3.2110507 z"
     id="path15320" /><path
     style="fill:none;stroke:#ffffff;stroke-width:1;stroke-linecap:round;stroke-linejoin:round;stroke-dashoffset:3.6;stroke-opacity:1"
     d="m 21.975078,12.616666 a 3.2109785,3.2110505 0 0 1 -3.210979,3.21105 3.2109785,3.2110505 0 0 1 -3.210978,-3.21105 3.2109785,3.2110505 0 0 1 3.210978,-3.2110507 3.2109785,3.2110505 0 0 1 3.210979,3.2110507 z"
     id="circle15278" /></svg>
