<?xml version="1.0" encoding="UTF-8" standalone="no"?>
<!-- Created with Inkscape (http://www.inkscape.org/) -->

<svg
   width="48"
   height="48"
   viewBox="0 0 48 48"
   version="1.1"
   id="svg1"
   xml:space="preserve"
   xmlns="http://www.w3.org/2000/svg"
   xmlns:svg="http://www.w3.org/2000/svg"><defs
     id="defs1"><style
       id="style1">
      .cls-1 {
        fill: none;
        stroke: #fff;
        stroke-linecap: round;
        stroke-linejoin: round;
      }
    </style><style
       id="style1-4">.q{fill:#fff;}.r,.s{fill:none;stroke:#fff;stroke-linecap:round;stroke-linejoin:round;}.s{stroke-width:1.0050968px;}</style></defs><rect
     class="cls-1"
     x="5.5"
     y="5.5"
     width="37"
     height="37"
     rx="4"
     ry="4"
     id="rect1"
     style="display:inline" /><g
     id="g29"
     transform="matrix(2.3952973,0,0,2.4217519,-347.12517,-126.14862)"
     style="stroke-width:0.415198"><path
       class="r"
       d="m 155.83381,61.349998 c 0,-1.104568 0.89543,-1.999998 2,-1.999998 v 0 c 1.10457,0 2,0.89543 2,1.999998 v 1.300004 c 0,1.104568 -0.89543,1.999998 -2,1.999998 v 0 c -1.10457,0 -2,-0.89543 -2,-1.999998"
       id="path20"
       style="stroke-width:0.415198" /><line
       class="r"
       x1="155.83382"
       y1="64.650002"
       x2="155.83382"
       y2="56.650002"
       id="line29"
       style="stroke-width:0.415198" /></g><g
     id="g16"
     transform="matrix(2.3952973,0,0,2.4217519,-696.33422,-126.14862)"
     style="stroke-width:0.415198"><path
       class="r"
       d="m 295.83381,62.650002 c 0,1.104568 0.89543,1.999998 2,1.999998 v 0 c 1.10457,0 2,-0.89543 2,-1.999998 v -1.300004 c 0,-1.104568 -0.89543,-1.999998 -2,-1.999998 v 0 c -1.10457,0 -2,0.89543 -2,1.999998"
       id="path3"
       style="stroke-width:0.415198" /><line
       class="r"
       x1="295.8338"
       y1="59.349998"
       x2="295.8338"
       y2="67.349998"
       id="line16"
       style="stroke-width:0.415198" /></g></svg>
