<svg xmlns="http://www.w3.org/2000/svg" xml:space="preserve" viewBox="0 0 48 48"><path d="M15.657 11.797c.304-5.321 8.627-4.48 13.05 2.417 3.684 5.747 9.794 5.97 14.47 1.132" style="fill:none;stroke:#fff;stroke-width:1;stroke-linecap:round;stroke-linejoin:round;stroke-dashoffset:1.3;stroke-opacity:1"/><path d="M42.825 18.982c-4.459 5.196-10.873 5.522-14.327 2.637-4.26-3.557-4.313-11.06-9.64-10.166" style="fill:none;stroke:#fff;stroke-width:1;stroke-linecap:round;stroke-linejoin:round;stroke-dashoffset:1.3;stroke-opacity:1"/><path d="M43.5 11.842c-5.109 3.108-8.861 2.866-13.393-2.621-4.73-5.728-12.133-5.99-16.333-3.258-3.972 2.584-6.286 7.441-4.964 12.593 1.215 4.734 7.891 5.702 4.4 8.95-3.24 3.013-6.46.94-8.71 5.067" style="fill:none;stroke:#fff;stroke-width:1;stroke-linecap:round;stroke-linejoin:round;stroke-dashoffset:1.3;stroke-opacity:1"/><path d="M12.848 13.744c-1.33 3.56-1.502 9.308 3.892 11.928 1 .486 2.36.53 3.338 0 2.205-1.193 3.51-3.462 3.831-4.755" style="fill:none;stroke:#fff;stroke-width:1;stroke-linecap:round;stroke-linejoin:round;stroke-dashoffset:1.3;stroke-opacity:1"/><path d="M22.838 23.424c-.116 2.199.764 3.015 2.736 3.226M12.088 19.804c-4.246-1.459-3.673-9.31-.017-12.5M20.153 42.765c-5.023 1.277-8.642-2.092-7.817-3.594a1.43 1.43 0 0 1 .757-.642c1.337-.496 2.734-1.284 2.52-2.449-.195-1.066-.936-1.314-1.703-.86-.405.239-.748.484-.98.74-1.978-.622-2.986-.353-4.505.916" style="fill:none;stroke:#fff;stroke-width:1;stroke-linecap:round;stroke-linejoin:round;stroke-dashoffset:1.3;stroke-opacity:1"/><path d="M12.754 34.495c1.125-2.393 3.837-4.525 7.094-5.416-2.535.17-3.771 2.269-4.025 4.665m.577 4.396q.144.37.319.707M19.157 30.961c-.537 2.736-.359 4.686 1.45 6.7" style="fill:none;stroke:#fff;stroke-width:1;stroke-linecap:round;stroke-linejoin:round;stroke-dashoffset:1.3;stroke-opacity:1"/><path d="M26.59 32.516c-.42-.706-.85-1.026-1.249-2.025-.293-.736-.733-1.116-1.612-1.604-.44-.246-1.008-.231-1.277-.113-.367.58-.762 1.16-.84 1.741-.07.519-.317.906.445 1.529.507.414 1.084 1.07 1.091 1.657l.027 2.006c.014 1.112 1.675-.386 1.789 2.994.02.622 1.096.727 1.573.29-4.03 3.827-12.114 6.375-15.357 3.479M36.436 40.023c-1.915.633-3.524 1-5.285.558M38.579 35.468c-1.081-3.338-2.46-2.532-4.191-3.575-2.095-1.261-1.533 1.415-.714 1.941 1.137.73 1.622 2.18.997 3.22-1.425 2.367-5.442 2.924-7.187 1.64-.454-1.609-.473-2.91-.19-5.035l1.284-.837.319-1.317c.24-.994 1.9-.94 3.16-.56" style="fill:none;stroke:#fff;stroke-width:1;stroke-linecap:round;stroke-linejoin:round;stroke-dashoffset:1.3;stroke-opacity:1"/><path d="M31.41 32.375c-.626.762-1.023 1.704-1.141 2.89" style="fill:none;stroke:#fff;stroke-width:1;stroke-linecap:round;stroke-linejoin:round;stroke-dashoffset:1.3;stroke-opacity:1"/></svg>