<svg width="49" height="49" viewBox="0 0 49 49" fill="none" xmlns="http://www.w3.org/2000/svg">
<rect x="11.973" y="12.1825" width="25" height="24.9999" rx="1" stroke="white" stroke-linecap="round" stroke-dasharray="6 12"/>
<path d="M20.0526 17.9084L29.5687 17.9085C29.6337 17.9085 29.6814 17.9695 29.6658 18.0326L29.0747 20.4114C29.0636 20.456 29.0236 20.4873 28.9776 20.4873H22.5754C22.5499 20.4873 22.5253 20.4775 22.5068 20.46L19.984 18.0812C19.9181 18.0191 19.9621 17.9084 20.0526 17.9084Z" stroke="white"/>
<path d="M27.668 23.831H20.1079C20.0611 23.831 20.0206 23.8634 20.0104 23.909L19.4409 26.4422C19.4329 26.4777 19.4449 26.5148 19.4721 26.5389L26.918 33.1431C26.9754 33.194 27.0663 33.164 27.0822 33.089L27.7061 30.1353C27.7136 30.0995 27.701 30.0625 27.6732 30.0387L23.7412 26.6758C23.6706 26.6154 23.7133 26.4998 23.8062 26.4998H29.498C29.5802 26.4998 29.6273 26.4062 29.5784 26.3402L27.7483 23.8714C27.7295 23.846 27.6997 23.831 27.668 23.831Z" stroke="white"/>
</svg>
