<svg version="1.1" viewBox="0 0 48 48" xmlns="http://www.w3.org/2000/svg">
 <defs>
  <style>.a{fill:none;stroke:#fff;stroke-linecap:round;stroke-linejoin:round;}</style>
 </defs>
 <g>
  <g stroke-width=".9999">
   <path class="a" d="m14.94 40.42q-9.342-3.683-6.952-16.9c3.176 6.065 13.32 9.646 6.952 16.9z"/>
   <path class="a" d="m14.94 40.42a6.068 6.068 0 0 1 1.544 2.456"/>
   <path class="a" d="m16.22 43.5c0.7661-2.232 2.096-4.228 3.86-5.794 15.49-3.745 22.17-14.16 20.03-31.25-1.405 3.045-4.454 5.405-7.846 7.681m-5.887 3.917c-6.217 4.396-11.07 9.677-6.294 19.65"/>
   <path class="a" d="m11.52 30.24a8.112 8.112 0 0 1 3.961 7.357"/>
  </g>
  <path d="m18.35 10.54 4.352 2.363 6.558-4.293-5.127 5.962-0.298 2.419 2.206-2.181 3.518 2.862 3.995-13.18z" fill="none" stroke="#fff" stroke-linecap="round" stroke-linejoin="round"/>
 </g>
</svg>
