<svg width="48" height="48" version="1.1" viewBox="0 0 48 48" xml:space="preserve" xmlns="http://www.w3.org/2000/svg" xmlns:xlink="http://www.w3.org/1999/xlink"><path d="m34.808 37.313c0.05085-0.08228 0.03474-0.23689-0.03581-0.34357-0.11046-0.16703-3.745-2.1875-8.661-4.8148-0.77357-0.41343-1.9128-1.072-2.5317-1.4636-3.7183-2.3525-4.5825-2.9099-5.3204-3.4318-0.77546-0.54843-2.4864-2.1514-2.9622-2.7752-0.60274-0.79026-0.81446-3.3922-0.37469-4.6048 0.31605-0.87146 1.7092-2.4222 2.5711-2.8619 0.40326-0.20573 1.5579-0.63504 2.5659-0.95402 1.008-0.31898 2.0014-0.64986 2.2077-0.73529 0.20628-0.08543 1.3877-0.38418 2.6254-0.66389 1.2377-0.27971 2.8757-0.66539 3.64-0.85707 0.76428-0.19168 1.5016-0.3485 1.6386-0.3485 0.90258 0 3.7489 6.5332 4.1618 9.5528 0.24438 1.787 0.10698 2.2202-1.0599 3.3414-1.0685 1.0267-3.1437 2.4835-3.5377 2.4835-0.2571 0-2.5568-1.8168-3.8298-3.0256-1.2593-1.1958-1.6694-1.878-1.6694-2.7774 0-0.94336 0.43278-1.8296 1.9852-4.0655 1.6373-2.358 1.3501-2.4781-1.1068-0.46279-1.7853 1.4644-2.627 2.7798-2.7208 4.2517-0.05691 0.89376 0.01354 1.3099 0.32521 1.9208 0.59319 1.1627 3.6758 4.2715 6.3636 6.4175 1.3055 1.0423 2.5845 2.0829 2.8424 2.3123 0.72413 0.64428 3.9708 3.1964 4.5394 3.5683 0.27911 0.18256 0.59556 0.27748 0.70324 0.21094 0.12978-0.08021 0.19578-2.2611 0.19578-6.4694 0-6.1107-0.01741-6.421-0.46486-8.2872-0.75908-3.166-1.7477-5.8824-2.8554-7.8461-0.20364-0.361-0.72494-1.303-1.1584-2.0934-0.4335-0.79037-0.89006-1.5199-1.0146-1.6211-0.15132-0.12301-0.94181-0.04234-2.383 0.24318-8.3058 1.6455-12.774 3.2041-15.994 5.5786-1.4113 1.0409-2.1702 2.0229-2.6366 3.4115-0.26965 0.80275-0.31044 1.9779-0.31044 8.9436 0 5.4155 0.06415 8.059 0.19757 8.1415 0.25109 0.15518 1.286-0.65341 4.218-3.2957 1.2863-1.1592 2.5223-2.2669 2.7468-2.4615 0.86712-0.75205 1.8392-0.58963 1.8392 0.30731 0 0.29608-0.60985 0.95772-2.0963 2.2743-2.8792 2.5502-3.3786 3.0526-3.2465 3.2662 0.13856 0.2242 20.465 0.25868 20.603 0.03495z" fill="none" stroke="#fff"/></svg>
