<?xml version="1.0" encoding="UTF-8" standalone="no"?>
<svg
   id="a"
   viewBox="0 0 48 48"
   version="1.1"
   xml:space="preserve"
   xmlns="http://www.w3.org/2000/svg"
   xmlns:svg="http://www.w3.org/2000/svg"><defs
     id="defs1"><style
       id="style1">.b{fill:none;stroke:#fff;stroke-linecap:round;stroke-linejoin:round;}</style></defs><path
     id="path5"
     style="display:inline;fill:none;stroke:#ffffff;stroke-linecap:round;stroke-linejoin:round;stroke-opacity:1;paint-order:stroke fill markers"
     d="M 43.534071,31.761398 A 5.226769,17.04299 19.463611 0 1 32.927133,46.088835 5.226769,17.04299 19.463611 0 1 33.677919,28.278194 5.226769,17.04299 19.463611 0 1 44.284857,13.950758 5.226769,17.04299 19.463611 0 1 43.534071,31.761398 Z" /><path
     id="path6"
     style="fill:none;stroke:#ffffff;stroke-width:1;stroke-linecap:round;stroke-linejoin:round;stroke-dasharray:none;stroke-opacity:1;paint-order:stroke fill markers"
     d="M 29.167662,10.825291 A 15.694533,8.0554484 50.984064 0 1 32.580744,27.99743 15.694533,8.0554484 50.984064 0 1 16.396272,20.652456 15.694533,8.0554484 50.984064 0 1 12.98319,3.4803175 15.694533,8.0554484 50.984064 0 1 29.167662,10.825291 Z" /><path
     id="path6-5"
     style="fill:none;stroke:#ffffff;stroke-width:0.967688;stroke-linecap:round;stroke-linejoin:round;stroke-dasharray:none;stroke-opacity:1;paint-order:stroke fill markers"
     d="M 19.451644,17.062063 A 16.120403,7.3440668 7.4820617 0 1 33.870643,26.619966 16.120403,7.3440668 7.4820617 0 1 16.410871,31.467724 16.120403,7.3440668 7.4820617 0 1 1.9918724,21.909821 16.120403,7.3440668 7.4820617 0 1 19.451644,17.062063 Z" /></svg>
