<svg xmlns="http://www.w3.org/2000/svg" xml:space="preserve" style="clip-rule:evenodd;stroke-linecap:round;stroke-linejoin:round;stroke-miterlimit:1.5" viewBox="0 0 48 48"><path d="M490 0h48v48h-48z" style="fill:none" transform="translate(-490)"/><path d="m38.083 13.464 3.381 12.619c1.4 5.223-1.705 10.6-6.928 12l-12.619 3.381c-5.223 1.4-10.6-1.705-12-6.928L6.536 21.917c-1.4-5.223 1.705-10.6 6.928-12l12.619-3.381c5.223-1.4 10.6 1.705 12 6.928" style="fill:none;stroke:#fff;stroke-width:.96px" transform="translate(-.944 -.944)scale(1.03934)"/><path d="M22.775 17.201v13.975c0 1.298-.766 2.352-1.71 2.352s-1.71-1.054-1.71-2.352V17.201c0-1.299.766-2.353 1.71-2.353s1.71 1.054 1.71 2.353" style="fill:none;stroke:#fff;stroke-width:.92px" transform="matrix(1.20327 .32241 -.23435 .8746 -.721 -4.002)"/><path d="M22.775 17.201v13.975c0 1.298-.766 2.352-1.71 2.352s-1.71-1.054-1.71-2.352V17.201c0-1.299.766-2.353 1.71-2.353s1.71 1.054 1.71 2.353" style="fill:none;stroke:#fff;stroke-width:.92px" transform="matrix(1.20327 .32241 -.23435 .8746 9.365 -4.002)"/></svg>