<?xml version="1.0" encoding="UTF-8"?><svg id="a" xmlns="http://www.w3.org/2000/svg" viewBox="0 0 48 48"><defs><style>.b{fill:none;stroke:#fff;stroke-linecap:round;stroke-linejoin:round;}</style></defs><path class="b" d="m5.3802 26.688v10.75l9.3098 5.375 9.3098-5.375-1e-6 -10.75"/><path class="b" d="m14.69 32.063v10.75"/><path class="b" d="m11.587 35.293v-5.0213l9.3098-5.375-3.1033-1.7917-9.3098 5.375v5.0213l1.3949-0.61573z"/><path class="b" d="m11.587 30.271 3.1033 1.7917 9.3098-5.375-9.3098-5.375-9.3098 5.375 3.1033 1.7917"/><path class="b" d="m24 15.938v10.75"/><path class="b" d="m14.69 10.563v10.75"/><path class="b" d="m33.31 10.563v10.75"/><path class="b" d="m20.897 19.168v-5.0213l9.3098-5.375-3.1033-1.7917-9.3098 5.375v5.0213l1.3949-0.61573z"/><path class="b" d="m20.897 14.146 3.1033 1.7917 9.3098-5.375-9.3098-5.375-9.3098 5.375 3.1033 1.7917"/><path class="b" d="m24 37.438 9.3098 5.375 9.3098-5.375-1e-6 -10.75"/><path class="b" d="m33.31 32.063v10.75"/><path class="b" d="m30.207 35.293v-5.0213l9.3098-5.375-3.1033-1.7917-9.3098 5.375v5.0213l1.3949-0.61573z"/><path class="b" d="m30.207 30.271 3.1033 1.7917 9.3098-5.375-9.3098-5.375-9.3098 5.375 3.1033 1.7917"/><path class="b" d="m35.073 39.466 4.4268-2.5558"/><path class="b" d="m35.073 37.355 3.1391-1.8123"/></svg>
