<?xml version="1.0" encoding="utf-8"?>
<svg
	version="1.1"
	xmlns="http://www.w3.org/2000/svg"
	xmlns:xlink="http://www.w3.org/1999/xlink"
	x="0%" y="0%"
	width="100%" height="100%"
	viewBox="0 0 48.0 48.0"
	enable-background="new 0 0 48.0 48.0"
	xml:space="preserve">
	<path
		fill="#FFFFFF"
		stroke="#000000"
		fill-opacity="0.000"
		stroke-opacity="1.000"
		fill-rule="nonzero"
		stroke-width="0.48"
		stroke-linejoin="miter"
		stroke-linecap="square"
		d="M14.13,7.72C17.39,7.72,20.03,10.35,20.03,13.60C20.03,16.85,17.39,19.48,14.13,19.48C10.87,19.48,8.23,16.85,8.23,13.60C8.23,10.35,10.87,7.72,14.13,7.72z"/>
	<path
		fill="#FFFFFF"
		stroke="#000000"
		fill-opacity="0.000"
		stroke-opacity="1.000"
		fill-rule="nonzero"
		stroke-width="0.48"
		stroke-linejoin="miter"
		stroke-linecap="square"
		d="M34.48,7.77C37.74,7.77,40.38,10.41,40.38,13.66C40.38,16.91,37.74,19.54,34.48,19.54C31.22,19.54,28.58,16.91,28.58,13.66C28.58,10.41,31.22,7.77,34.48,7.77z"/>
	<path
		fill="#FFFFFF"
		stroke="#000000"
		fill-opacity="0.000"
		stroke-opacity="1.000"
		fill-rule="nonzero"
		stroke-width="0.48"
		stroke-linejoin="miter"
		stroke-linecap="square"
		d="M34.51,28.84C37.76,28.84,40.41,31.47,40.41,34.72C40.41,37.97,37.76,40.61,34.51,40.61C31.25,40.61,28.61,37.97,28.61,34.72C28.61,31.47,31.25,28.84,34.51,28.84z"/>
	<path
		fill="#FFFFFF"
		stroke="#000000"
		fill-opacity="0.000"
		stroke-opacity="1.000"
		fill-rule="nonzero"
		stroke-width="0.48"
		stroke-linejoin="miter"
		stroke-linecap="square"
		d="M13.96,28.72C17.22,28.72,19.86,31.36,19.86,34.61C19.86,37.86,17.22,40.49,13.96,40.49C10.71,40.49,8.06,37.86,8.06,34.61C8.06,31.36,10.71,28.72,13.96,28.72z"/>
	<path
		fill="#FFFFFF"
		stroke="#000000"
		fill-opacity="0.000"
		stroke-opacity="1.000"
		fill-rule="nonzero"
		stroke-width="0.48"
		stroke-linejoin="miter"
		stroke-linecap="square"
		d="M12.45,19.33L12.44,28.82"/>
	<path
		fill="#FFFFFF"
		stroke="#000000"
		fill-opacity="0.000"
		stroke-opacity="1.000"
		fill-rule="nonzero"
		stroke-width="0.48"
		stroke-linejoin="miter"
		stroke-linecap="square"
		d="M16.19,19.33L16.18,28.82"/>
	<path
		fill="#FFFFFF"
		stroke="#000000"
		fill-opacity="0.000"
		stroke-opacity="1.000"
		fill-rule="nonzero"
		stroke-width="0.48"
		stroke-linejoin="miter"
		stroke-linecap="square"
		d="M36.25,19.33L36.24,28.82"/>
	<path
		fill="#FFFFFF"
		stroke="#000000"
		fill-opacity="0.000"
		stroke-opacity="1.000"
		fill-rule="nonzero"
		stroke-width="0.48"
		stroke-linejoin="miter"
		stroke-linecap="square"
		d="M32.50,19.33L32.49,28.82"/>
	<path
		fill="#FFFFFF"
		stroke="#000000"
		fill-opacity="0.000"
		stroke-opacity="1.000"
		fill-rule="nonzero"
		stroke-width="0.48"
		stroke-linejoin="miter"
		stroke-linecap="square"
		d="M19.46,32.26L28.95,32.24"/>
	<path
		fill="#FFFFFF"
		stroke="#000000"
		fill-opacity="0.000"
		stroke-opacity="1.000"
		fill-rule="nonzero"
		stroke-width="0.48"
		stroke-linejoin="miter"
		stroke-linecap="square"
		d="M19.82,35.91L28.64,35.94"/>
	<path
		fill="#FFFFFF"
		stroke="#000000"
		fill-opacity="0.000"
		stroke-opacity="1.000"
		fill-rule="nonzero"
		stroke-width="0.48"
		stroke-linejoin="miter"
		stroke-linecap="square"
		d="M19.80,15.53L28.62,15.56"/>
	<path
		fill="#FFFFFF"
		stroke="#000000"
		fill-opacity="0.000"
		stroke-opacity="1.000"
		fill-rule="nonzero"
		stroke-width="0.48"
		stroke-linejoin="miter"
		stroke-linecap="square"
		d="M20.03,12.20L28.62,12.20"/>
</svg>