<?xml version="1.0" encoding="UTF-8" standalone="no"?>
<svg
   id="Layer_1"
   data-name="Layer 1"
   version="1.1"
   viewBox="0 0 48 48"
   sodipodi:docname="passio_go.svg"
   xml:space="preserve"
   inkscape:version="1.4.2 (ebf0e940, 2025-05-08)"
   xmlns:inkscape="http://www.inkscape.org/namespaces/inkscape"
   xmlns:sodipodi="http://sodipodi.sourceforge.net/DTD/sodipodi-0.dtd"
   xmlns="http://www.w3.org/2000/svg"
   xmlns:svg="http://www.w3.org/2000/svg"><sodipodi:namedview
     id="namedview1"
     pagecolor="#515151"
     bordercolor="#000000"
     borderopacity="0.25"
     inkscape:showpageshadow="2"
     inkscape:pageopacity="0.0"
     inkscape:pagecheckerboard="0"
     inkscape:deskcolor="#d1d1d1"
     inkscape:zoom="20.387611"
     inkscape:cx="20.649796"
     inkscape:cy="24.132303"
     inkscape:window-width="1672"
     inkscape:window-height="1067"
     inkscape:window-x="0"
     inkscape:window-y="25"
     inkscape:window-maximized="0"
     inkscape:current-layer="Layer_1" /><defs
     id="defs1"><style
       id="style1">
      .cls-1 {
        fill: none;
        stroke: #fff;
        stroke-linecap: round;
        stroke-linejoin: round;
      }
    </style></defs><path
     style="display:inline;fill:none;stroke:#ffffff;stroke-linecap:round;stroke-linejoin:round"
     d="m 24.033489,42.378724 c 0,0 7.44295,-10.856735 10.736272,-16.547648 0.549773,-0.950016 1.949061,-3.33383 2.075499,-6.101632 0.180507,-3.951403 -1.111883,-7.213371 -3.422703,-9.7206 -2.387551,-2.5904809 -5.770772,-4.0256218 -9.884877,-4.0387701 -4.182758,-0.013368 -7.861454,2.6635707 -9.417347,4.6244271 -1.653089,2.083352 -3.31542,5.104985 -2.877131,9.475214 0.263883,2.631205 1.669903,5.439997 2.423383,6.721716 3.162325,5.37932 10.366904,15.587293 10.366904,15.587293 z"
     id="path1"
     inkscape:label="pin path"
     sodipodi:insensitive="true"
     sodipodi:nodetypes="csssssssc" /><path
     style="display:inline;fill:none;stroke:#ffffff;stroke-linecap:round;stroke-linejoin:round"
     d="m 28.140215,27.77285 c 0,0 2.112365,-1.981477 3.366046,-3.552719 0.862574,-1.081066 2.814409,-3.560783 2.025788,-7.220535 -0.803979,-3.731024 -3.557068,-6.575525 -6.444527,-7.4158209 -3.850015,-1.1204143 -7.619959,-0.048613 -9.989775,2.5035639 -2.594115,2.793733 -2.731078,5.913224 -2.596516,7.349647 0.146365,1.562413 0.794919,3.573412 1.563892,4.941345 0.974738,1.733971 7.848993,11.843525 7.848993,11.843525"
     id="path3"
     inkscape:label="swish path"
     sodipodi:insensitive="true"
     sodipodi:nodetypes="cssssssc" /><path
     style="display:inline;fill:none;stroke:#ffffff;stroke-linecap:round;stroke-linejoin:round"
     d="m 23.354652,20.132554 2.066586,4.799814 2.555457,-10.066277 -9.4663,3.955403 z"
     id="path2"
     inkscape:label="locator path"
     sodipodi:insensitive="true" /></svg>
