<?xml version="1.0" encoding="UTF-8" standalone="no"?>
<svg
   id="Layer_1"
   data-name="Layer 1"
   version="1.1"
   viewBox="0 0 48 48"
   xmlns="http://www.w3.org/2000/svg"
   xmlns:svg="http://www.w3.org/2000/svg">
  <defs
     id="defs1">
    <style
       id="style1">
      .cls-1 {
        fill: none;
        stroke: #fff;
        stroke-linecap: round;
        stroke-linejoin: round;
      }
    </style>
  </defs>
  <rect
     class="cls-1"
     x="5.5"
     y="5.5"
     width="37"
     height="37"
     rx="4"
     ry="4"
     id="rect1" />
  <path
     class="r"
     d="M 8.0623696,29.019212 V 18.980807 h 3.2863674 c 1.857926,0 3.364076,1.509389 3.364076,3.37132 0,1.861932 -1.50615,3.371325 -3.364076,3.371325 H 8.0623696"
     id="path16"
     style="fill:none;stroke:#ffffff;stroke-width:0.999998;stroke-linecap:round;stroke-linejoin:round" />
  <g
     id="g1"
     transform="matrix(1.2548,0,0,1.2548,-10.50757,-5.4877334)"
     style="stroke-width:0.796938">
    <line
       class="r"
       x1="25.922174"
       y1="24.849892"
       x2="22.377825"
       y2="24.849892"
       id="line241"
       style="fill:none;stroke:#ffffff;stroke-width:0.796938;stroke-linecap:round;stroke-linejoin:round" />
    <polyline
       class="r"
       points="87.18380544 48.65004656 89.83380544 40.65 92.48380544 48.65004656"
       id="polyline241"
       style="fill:none;stroke:#ffffff;stroke-width:0.796938;stroke-linecap:round;stroke-linejoin:round"
       transform="translate(-65.683805,-21.150109)" />
  </g>
  <path
     class="r"
     d="m 25.07771,27.919321 c 0.615552,0.801391 1.387434,1.09989 2.461305,1.099891 l 1.486149,-1e-6 c 1.383025,0 2.504204,-1.121171 2.504204,-2.504197 v -0.0086 c 0,-1.383027 -1.121179,-2.504193 -2.504204,-2.504193 h -1.639348 c -1.384526,0 -2.506893,-1.122374 -2.506893,-2.506901 v -3.4e-5 c 0,-1.387506 1.124796,-2.512297 2.512303,-2.512297 h 1.478041 c 1.073867,0 1.845752,0.298491 2.461304,1.099889"
     id="path51"
     style="fill:none;stroke:#ffffff;stroke-width:0.999998;stroke-linecap:round;stroke-linejoin:round" />
  <path
     class="r"
     d="m 33.485996,27.919321 c 0.615547,0.801391 1.387427,1.09989 2.461293,1.099891 l 1.486153,-1e-6 c 1.383028,0 2.504204,-1.121171 2.504204,-2.504197 v -0.0086 c 0,-1.383027 -1.121176,-2.504193 -2.504204,-2.504193 h -1.639344 c -1.384526,0 -2.5069,-1.122374 -2.5069,-2.506901 v -3.4e-5 c 0,-1.387506 1.124797,-2.512297 2.512305,-2.512297 h 1.478044 c 1.073866,0 1.845747,0.298491 2.461294,1.099889"
     id="path51-1"
     style="fill:none;stroke:#ffffff;stroke-width:0.999998;stroke-linecap:round;stroke-linejoin:round" />
</svg>
