<?xml version="1.0" encoding="UTF-8" standalone="no"?>
<svg
   viewBox="0 0 48 48"
   version="1.1"
   id="svg1"
   sodipodi:docname="pawxy.svg"
   inkscape:version="1.2.2 (b0a8486541, 2022-12-01)"
   xml:space="preserve"
   xmlns:inkscape="http://www.inkscape.org/namespaces/inkscape"
   xmlns:sodipodi="http://sodipodi.sourceforge.net/DTD/sodipodi-0.dtd"
   xmlns="http://www.w3.org/2000/svg"
   xmlns:svg="http://www.w3.org/2000/svg"><sodipodi:namedview
     id="namedview1"
     pagecolor="#505050"
     bordercolor="#eeeeee"
     borderopacity="1"
     inkscape:showpageshadow="0"
     inkscape:pageopacity="0"
     inkscape:pagecheckerboard="0"
     inkscape:deskcolor="#505050"
     inkscape:zoom="12.59534"
     inkscape:cx="-13.020689"
     inkscape:cy="31.281412"
     inkscape:window-width="1918"
     inkscape:window-height="1053"
     inkscape:window-x="0"
     inkscape:window-y="0"
     inkscape:window-maximized="1"
     inkscape:current-layer="svg1"
     showgrid="false" /><defs
     id="defs1"><style
       id="style1">.a { fill:none;stroke:#fff;stroke-linecap:round;stroke-linejoin:round; }
</style></defs><g
     id="g8323"><path
       style="fill:none;stroke:#ffffff;stroke-width:1;stroke-linecap:round;stroke-linejoin:round;stroke-dashoffset:3.6;stroke-opacity:1"
       d="m 9.5,5.5 h 29 c 2.216,0 4,1.784 4,4 v 29 c 0,2.216 -1.784,4 -4,4 h -29 c -2.216,0 -4,-1.784 -4,-4 v -29 c 0,-2.216 1.784,-4 4,-4 z"
       id="path8296" /><g
       id="g8312"><path
         style="fill:none;stroke:#ffffff;stroke-width:1;stroke-linecap:round;stroke-linejoin:round;stroke-dashoffset:3.6;stroke-opacity:1"
         d="m 20.954398,42.50029 6.050675,-8.949315 c 4.467102,-1.263696 8.248525,-6.158173 4.683233,-8.679128 0.812362,-1.692294 0.998307,-3.052388 -0.171321,-4.813678 -0.900944,-1.356692 -2.513688,-1.434763 -3.770531,-1.288802 -0.199343,-1.816365 -1.225794,-2.856569 -2.735956,-3.297831 -1.458903,-0.426284 -3.032207,0.441225 -4.306482,1.357777 -3.127603,-2.383091 -6.318965,2.422525 -6.667486,6.305276 L 5.5008089,35.325526"
         id="path8294" /><g
         id="g8303"><path
           style="fill:none;stroke:#ffffff;stroke-width:1;stroke-linecap:round;stroke-linejoin:round;stroke-dashoffset:3.6;stroke-opacity:1"
           d="m 21.746084,23.463652 c -1.044196,-0.663068 -3.101015,-0.845572 -3.750775,1.098442 -0.625114,1.870275 1.142093,3.220994 2.352424,4.033358 2.116276,1.420427 4.147384,2.506487 5.439962,0.738457 0.692123,-0.946709 0.463078,-2.21315 -0.621112,-3.385775 0.790638,-2.991312 -1.867201,-3.663184 -3.420499,-2.484482 z"
           id="path8292" /><path
           style="fill:none;stroke:#ffffff;stroke-width:1;stroke-linecap:round;stroke-linejoin:round;stroke-dashoffset:3.6;stroke-opacity:1"
           d="m 19.538384,21.252348 a 1.455974,1.8452254 1.2015834 0 1 -2.053944,0.214709 1.455974,1.8452254 1.2015834 0 1 -0.148865,-2.600478 1.455974,1.8452254 1.2015834 0 1 2.053946,-0.214708 1.455974,1.8452254 1.2015834 0 1 0.148863,2.600477 z"
           id="path8290" /><path
           style="fill:none;stroke:#ffffff;stroke-width:1;stroke-linecap:round;stroke-linejoin:round;stroke-dashoffset:3.6;stroke-opacity:1"
           d="m 24.683174,21.005257 a 1.6023035,2.0253687 21.35964 0 1 -2.207214,-0.544061 1.6023035,2.0253687 21.35964 0 1 0.818622,-2.738805 1.6023035,2.0253687 21.35964 0 1 2.207215,0.544063 1.6023035,2.0253687 21.35964 0 1 -0.818623,2.738803 z"
           id="path8288" /><path
           style="fill:none;stroke:#ffffff;stroke-width:1;stroke-linecap:round;stroke-linejoin:round;stroke-dashoffset:3.6;stroke-opacity:1"
           d="m 28.612697,20.931567 a 1.6023035,2.0253687 44.001959 0 1 1.827645,1.351855 1.6023035,2.0253687 44.001959 0 1 -1.809905,2.212563 1.6023035,2.0253687 44.001959 0 1 -1.827645,-1.351857 1.6023035,2.0253687 44.001959 0 1 1.809905,-2.212561 z"
           id="path8286" /><path
           style="fill:none;stroke:#ffffff;stroke-width:1;stroke-linecap:round;stroke-linejoin:round;stroke-dashoffset:3.6;stroke-opacity:1"
           d="m 28.825465,29.591977 a 1.455974,1.8452254 76.201583 0 1 -0.738993,-1.928386 1.455974,1.8452254 76.201583 0 1 2.47334,-0.816846 1.455974,1.8452254 76.201583 0 1 0.738992,1.928389 1.455974,1.8452254 76.201583 0 1 -2.473339,0.816843 z"
           id="path8250" /></g></g></g></svg>
