<?xml version="1.0" encoding="UTF-8" standalone="no"?>
<svg
   xml:space="preserve"
   x="0%"
   y="0%"
   viewBox="0 0 48 48"
   version="1.1"
   id="svg4"
   sodipodi:docname="paylib.svg"
   inkscape:version="1.1.2 (0a00cf5339, 2022-02-04)"
   xmlns:inkscape="http://www.inkscape.org/namespaces/inkscape"
   xmlns:sodipodi="http://sodipodi.sourceforge.net/DTD/sodipodi-0.dtd"
   xmlns="http://www.w3.org/2000/svg"
   xmlns:svg="http://www.w3.org/2000/svg"><defs
     id="defs8" /><sodipodi:namedview
     id="namedview6"
     pagecolor="#ffffff"
     bordercolor="#666666"
     borderopacity="1.0"
     inkscape:pageshadow="2"
     inkscape:pageopacity="0.0"
     inkscape:pagecheckerboard="0"
     showgrid="false"
     inkscape:zoom="32.375"
     inkscape:cx="26.208494"
     inkscape:cy="26.918919"
     inkscape:window-width="1644"
     inkscape:window-height="1057"
     inkscape:window-x="36"
     inkscape:window-y="30"
     inkscape:window-maximized="1"
     inkscape:current-layer="g1259" /><path
     fill="none"
     stroke="#000"
     stroke-linecap="square"
     stroke-width=".571"
     d="M34.21 16.06c4.42 0 8.01 3.59 8.01 8.01 0 4.43-3.59 8.01-8.01 8.01-4.43 0-8.01-3.58-8.01-8.01 0-4.42 3.58-8.01 8.01-8.01z"
     id="path2"
     style="stroke-width:1;stroke-miterlimit:4;stroke-dasharray:none;stroke-linecap:round;stroke-linejoin:round;stroke:#ffffff;stroke-opacity:1" /><g
     id="g5874"
     style="fill:none;stroke:#ffffff;stroke-linecap:round;stroke-linejoin:round;stroke-opacity:1"
     transform="translate(-273.21915,-38.075873)"><path
       class="cls-2"
       d="m 298,62.7 v 2.7 c 0,1.1 -0.9,2 -2,2 v 0 c -0.6,0 -1.1,-0.2 -1.4,-0.6"
       id="path5870"
       style="fill:none;stroke:#ffffff;stroke-linecap:round;stroke-linejoin:round;stroke-opacity:1" /><path
       class="cls-2"
       d="m 298,59.3 v 3.3 c 0,1.1 -0.9,2 -2,2 v 0 c -1.1,0 -2,-0.9 -2,-2 v -3.3"
       id="path5872"
       style="fill:none;stroke:#ffffff;stroke-linecap:round;stroke-linejoin:round;stroke-opacity:1" /></g><g
     id="g6034"
     style="fill:none;stroke:#ffffff;stroke-linecap:round;stroke-linejoin:round;stroke-opacity:1"
     transform="translate(-39.264754,-38.075872)"><path
       class="cls-2"
       d="m 58,62.7 c 0,1.1 -0.9,2 -2,2 v 0 c -1.1,0 -2,-0.9 -2,-2 v -1.3 c 0,-1.1 0.9,-2 2,-2 v 0 c 1.1,0 2,0.9 2,2"
       id="path6030"
       style="fill:none;stroke:#ffffff;stroke-linecap:round;stroke-linejoin:round;stroke-opacity:1" /><line
       class="cls-2"
       x1="58"
       y1="64.699997"
       x2="58"
       y2="59.299999"
       id="line6032"
       style="fill:none;stroke:#ffffff;stroke-linecap:round;stroke-linejoin:round;stroke-opacity:1" /></g><g
     id="g6154"
     style="fill:none;stroke:#ffffff;stroke-linecap:round;stroke-linejoin:round;stroke-opacity:1"
     transform="translate(-195.31036,-38.075872)"><path
       class="cls-2"
       d="m 204,62.7 c 0,1.1 0.9,2 2,2 v 0 c 1.1,0 2,-0.9 2,-2 v -1.3 c 0,-1.1 -0.9,-2 -2,-2 v 0 c -1.1,0 -2,0.9 -2,2"
       id="path6150"
       style="fill:none;stroke:#ffffff;stroke-linecap:round;stroke-linejoin:round;stroke-opacity:1" /><line
       class="cls-2"
       x1="204"
       y1="59.299999"
       x2="204"
       y2="67.300003"
       id="line6152"
       style="fill:none;stroke:#ffffff;stroke-linecap:round;stroke-linejoin:round;stroke-opacity:1" /></g><path
     class="cls-2"
     d="m 30.323128,17.224244 v 7 c 0,0.6 0.4,1 1,1 h 0.3"
     id="path5994"
     style="fill:none;stroke:#ffffff;stroke-linecap:round;stroke-linejoin:round;stroke-opacity:1" /><g
     id="g5956"
     style="fill:#000000;fill-opacity:1;stroke:#ffffff;stroke-opacity:1"
     transform="translate(-97.122778,-35.03901)"><g
       id="g1259"
       transform="translate(-5.1465523,2.2732591)"
       style="stroke:#ffffff;stroke-opacity:1"><circle
         class="cls-7"
         cx="136"
         cy="56.900002"
         r="0.69999999"
         id="circle5952"
         style="fill:#ffffff;fill-opacity:1;stroke:none;stroke-opacity:1" /><line
         class="cls-2"
         x1="136"
         y1="59.299999"
         x2="136"
         y2="64.699997"
         id="line5954"
         style="fill:#000000;fill-opacity:1;stroke:#ffffff;stroke-linecap:round;stroke-linejoin:round;stroke-opacity:1" /></g></g><g
     id="g6148"
     style="fill:none;stroke:#ffffff;stroke-linecap:round;stroke-linejoin:round;stroke-opacity:1"
     transform="translate(-27.878977,-40.01364)"><path
       class="cls-2"
       d="m 64,61.3 c 0,-1.1 0.9,-2 2,-2 v 0 c 1.1,0 2,0.9 2,2 v 1.3 c 0,1.1 -0.9,2 -2,2 v 0 c -1.1,0 -2,-0.9 -2,-2"
       id="path6144"
       style="fill:none;stroke:#ffffff;stroke-linecap:round;stroke-linejoin:round;stroke-opacity:1" /><line
       class="cls-2"
       x1="64"
       y1="64.699997"
       x2="64"
       y2="56.700001"
       id="line6146"
       style="fill:none;stroke:#ffffff;stroke-linecap:round;stroke-linejoin:round;stroke-opacity:1" /></g></svg>
