<?xml version="1.0" encoding="UTF-8"?><svg id="a" xmlns="http://www.w3.org/2000/svg" viewBox="0 0 48 48"><defs><style>.d{fill:none;stroke:#fff;stroke-linecap:round;stroke-linejoin:round;}</style></defs><path class="d" d="m11.376 31.455c0.19786-1.8291 1.8549-3.3118 3.7013-3.3118v0c1.8464 0 3.1826 1.4827 2.9848 3.3118l-0.59111 5.4644"/><line class="d" x1="11.734" x2="10.785" y1="28.144" y2="36.92"/><path class="d" d="m18.062 31.455c0.19786-1.8291 1.8549-3.3118 3.7013-3.3118v0c1.8464 0 3.1826 1.4827 2.9848 3.3118l-0.59111 5.4644"/><path class="d" d="m33.81 35.249c-0.68383 0.99833-1.8418 1.6713-3.0856 1.6713v0c-1.8464 0-3.1826-1.4827-2.9848-3.3118l0.23286-2.1526c0.19786-1.8291 1.8549-3.3118 3.7013-3.3118v0c1.8464 0 3.1826 1.4827 2.9848 3.3118l-0.11643 1.0763h-6.6861"/><path class="d" d="m38.894 12.847-0.52789 4.88c-0.21597 1.9965-2.0101 3.6148-4.0074 3.6148v0c-0.99867 0-1.859-0.4045-2.4426-1.0588"/><path class="d" d="m39.539 6.883-0.6452 5.9644c-0.21597 1.9965-2.0101 3.6148-4.0074 3.6148v0c-1.9973 0-3.4413-1.6183-3.2254-3.6148l0.6452-5.9644"/><path class="d" d="m9.1102 12.847c-0.21597 1.9965 1.228 3.6148 3.2254 3.6148v0c1.9973 0 3.7915-1.6183 4.0074-3.6148l0.25417-2.3496c0.21597-1.9965-1.228-3.6148-3.2254-3.6148v0c-1.9973 0-3.7915 1.6183-4.0074 3.6148"/><line class="d" x1="9.7554" x2="8.1913" y1="6.883" y2="21.342"/><path class="d" d="m27.612 12.847c-0.21597 1.9965-1.9978 3.6148-3.98 3.6148h-1.2596c-1.3131 0-2.2616-1.0722-2.1186-2.3948 0.14308-1.3227 1.3235-2.3948 2.6367-2.3948h4.8552"/><path class="d" d="m21.832 7.8319c0.96593-0.87243 1.5848-0.94889 3.267-0.94889 1.9096 0 3.0735 0.83954 2.8281 3.1089l-0.69992 6.4703"/><path class="d" d="m34.432 40.121c-0.90652 1.0105-1.6745 0.9959-1.8965 0.9959h-25.342c-1.0017 0-1.721-0.8061-1.6127-1.8074l1.4664-13.556c0.10832-1.0013 1.002-1.8074 2.0037-1.8074v0h25.342c0.39207 0 0.94956 0.04992 1.6665 1.1314l3.5711 6.2681c0.16425 0.25355 0.24507 0.85166 0.20895 1.1856-0.03612 0.33395-0.27416 0.9439-0.46778 1.2071z"/></svg>
