<?xml version="1.0" encoding="UTF-8"?><svg id="a" xmlns="http://www.w3.org/2000/svg" viewBox="0 0 48 48"><defs><style>.d{fill:none;stroke:#fff;stroke-linecap:round;stroke-linejoin:round;}</style></defs><path class="d" d="m39.5 28v2c0 2.216-1.784 4-4 4h-27c-2.216 0-4-1.784-4-4v-12c0-2.216 1.784-4 4-4h27c2.216 0 4 1.784 4 4l-1e-6 2"/><line class="d" x1="35.5" x2="43.5" y1="17.962" y2="30.038"/><line class="d" x1="43.5" x2="35.5" y1="17.962" y2="30.038"/><path class="d" d="m15.33 24c1.6673 0 3.0189 1.3515 3.0189 3.0189s-1.3515 3.0189-3.0189 3.0189h-4.9811v-12.075h4.9811c1.6673 0 3.0189 1.3515 3.0189 3.0189 0 1.6673-1.3515 3.0189-3.0189 3.0189z"/><line class="d" x1="15.33" x2="10.355" y1="24" y2="24"/><rect class="d" x="22.925" y="17.962" width="8" height="12.075" rx="4" ry="4"/></svg>
