<svg version="1.1" viewBox="0 0 48 48" xmlns="http://www.w3.org/2000/svg"><defs><style>.a{fill:none;stroke:#fff;stroke-linecap:round;stroke-linejoin:round;}</style></defs><path d="m38.49 29.384c0.06593 3.851-1.5531 7.5537-4.4671 10.216s-6.8591 4.0443-10.885 3.8119c-8.5653 0-13.671-6.7944-13.671-12.804 0-5.6276 4.7342-8.2605 4.7342-8.2605-1.8841 9.0576 5.1486 14.549 9.3661 10.778 1.4634-1.3083 1.8182-4.9618-1.3207-8.1617-2.9847-3.0427-10.141-11.006 1.8112-20.469-1.0526 3.9284 1.9193 5.9306 3.8981 7.6273s10.534 7.6217 10.534 17.261z" fill="none" stop-color="#000000" stroke="#fff" stroke-linecap="round" stroke-linejoin="round" style="paint-order:fill markers stroke"/><path d="m22.562 25.293c7.9296 7.9763 2.1372 13.04 0.30678 14.077-1.4837 0.84054-8.1145 3.3939-12.135-3.4728" fill="none" stop-color="#000000" stroke="#fff" stroke-linecap="round" stroke-linejoin="round" style="paint-order:fill markers stroke"/></svg>
