<?xml version="1.0" encoding="UTF-8"?><svg id="a" xmlns="http://www.w3.org/2000/svg" viewBox="0 0 48 48"><defs><style>.b{fill:none;stroke:#fff;stroke-linecap:round;stroke-linejoin:round;}</style></defs><path class="b" d="M24.1054,13.8811s2.4243,1.3703,3.6892,4.8486M24.1054,34.1189c0-4.6378-1.1595-13.1757,6.3243-16.4432,7.5892-3.2676,13.0703-2.1081,13.0703-2.1081,0,0-.7378,7.9054-6.0081,11.8054s-13.1757,3.373-13.1757,3.373"/><path class="b" d="M38.2297,15.7784s-.4216,5.6919-3.373,9.9081c-2.9514,4.2162-8.327,5.0595-8.327,5.0595M23.8946,13.8811s-2.4243,1.3703-3.6892,4.8486M23.8946,34.1189c0-4.6378,1.1595-13.1757-6.3243-16.4432-7.4838-3.2676-13.0703-2.1081-13.0703-2.1081,0,0,.7378,7.9054,6.0081,11.8054,5.2703,3.9,13.1757,3.373,13.1757,3.373"/><path class="b" d="M9.7703,15.7784s.4216,5.6919,3.373,9.9081c2.9514,4.2162,8.327,5.0595,8.327,5.0595"/></svg>