<?xml version="1.0" encoding="UTF-8" standalone="no"?>
<svg
   viewBox="0 0 48 48"
   version="1.1"
   id="svg1"
   sodipodi:docname="phone_guardian.svg"
   inkscape:version="1.2.2 (b0a8486541, 2022-12-01)"
   xml:space="preserve"
   xmlns:inkscape="http://www.inkscape.org/namespaces/inkscape"
   xmlns:sodipodi="http://sodipodi.sourceforge.net/DTD/sodipodi-0.dtd"
   xmlns="http://www.w3.org/2000/svg"
   xmlns:svg="http://www.w3.org/2000/svg"><sodipodi:namedview
     id="namedview1"
     pagecolor="#505050"
     bordercolor="#eeeeee"
     borderopacity="1"
     inkscape:showpageshadow="0"
     inkscape:pageopacity="0"
     inkscape:pagecheckerboard="0"
     inkscape:deskcolor="#505050"
     inkscape:zoom="17.8125"
     inkscape:cx="15.382456"
     inkscape:cy="22.849123"
     inkscape:window-width="1918"
     inkscape:window-height="1053"
     inkscape:window-x="0"
     inkscape:window-y="0"
     inkscape:window-maximized="1"
     inkscape:current-layer="svg1"
     showgrid="false"
     showguides="true"><sodipodi:guide
       position="26.329825,43.003509"
       orientation="0,-1"
       id="guide19162"
       inkscape:locked="false" /></sodipodi:namedview><defs
     id="defs1"><style
       id="style1">.a { fill:none;stroke:#fff;stroke-linecap:round;stroke-linejoin:round; }
</style></defs><g
     id="g19371"><path
       style="display:inline;fill:none;stroke:#ffffff;stroke-width:1;stroke-linecap:round;stroke-linejoin:round;stroke-opacity:1;stop-color:#000000"
       d="M 38.888601,24.044858 C 36.785925,19.838619 35.397612,16.021884 30.901322,12.298873 30.630929,11.746638 30.298098,11.562516 29.656771,10.068964 28.833024,8.150582 28.468463,5.5134061 27.328285,5.5000264 26.79092,5.4937205 26.213497,6.6265223 25.70083,8.2348256 25.25488,9.6338261 25.166487,11.631785 23.861035,11.575415 23.055373,11.540626 22.664983,11.354654 21.958786,8.7267503 21.742613,7.9223216 21.238499,7.315684 20.768161,7.2462275 c -0.292889,1.9484068 -0.856003,3.7044365 -0.379099,5.9154255 -0.578032,1.877168 -3.425411,2.756355 -3.438995,4.051875 -0.01319,1.257983 0.04537,2.03801 -0.604398,2.285256 -2.498086,0.950565 -4.768126,1.328567 -4.774728,3.143361 0.184649,1.176822 0.627647,2.124058 1.698915,3.4178 1.05644,0.10508 1.45816,0.379064 1.780411,0.845081 0.517185,0.311466 1.472429,0.301879 2.977557,0.246988 1.126117,-0.04107 3.144701,-0.222413 2.750329,1.091604 -0.206631,0.688478 0.151425,2.018953 0.275649,3.733603 0.210385,2.903915 0.06443,5.372464 0.570868,6.291322 0.823273,1.493716 1.495554,2.84085 2.144956,4.165771"
       id="path19325"
       sodipodi:nodetypes="ccsssssccsccccssssc" /><g
       id="g19345"><path
         style="display:inline;fill:none;stroke:#ffffff;stroke-width:1;stroke-linecap:round;stroke-linejoin:round;stroke-opacity:1;stop-color:#000000"
         d="m 12.012802,23.853517 c 0.836853,-0.255001 1.894176,-0.586468 2.720623,-1.616779 0.713733,-0.889796 -0.832972,-1.291263 -1.741539,-1.449257"
         id="path19323" /><path
         style="display:inline;fill:none;stroke:#ffffff;stroke-width:1;stroke-linecap:round;stroke-linejoin:round;stroke-opacity:1;stop-color:#000000"
         d="m 13.311942,24.337399 c 1.463152,0.738669 2.419128,2.216427 5.273168,1.510233 1.050874,-0.260026 1.991029,-0.697353 2.978151,-1.059468"
         id="path19319" /></g><g
       id="g19351"><path
         style="display:inline;fill:none;stroke:#ffffff;stroke-width:1;stroke-linecap:round;stroke-linejoin:round;stroke-opacity:1;stop-color:#000000"
         d="m 20.443816,13.139197 c 1.311012,-1.654015 1.751946,-1.032191 2.320446,-1.807209"
         id="path19317" /><path
         style="display:inline;fill:none;stroke:#ffffff;stroke-width:1;stroke-linecap:round;stroke-linejoin:round;stroke-opacity:1;stop-color:#000000"
         d="m 25.05473,10.695729 c 0.249942,0.679667 1.097121,0.601614 1.107837,1.54895 0.0096,0.849606 2.008228,1.019696 2.145673,2.055265 0.189383,1.426891 1.916765,1.779063 1.807568,0.833602 -0.189317,-1.639185 0.615184,-1.219321 0.447332,-2.219227 -0.159436,-0.949774 -1.19155,-1.33678 -0.809512,-2.178888"
         id="path19315" /><path
         style="display:inline;fill:none;stroke:#ffffff;stroke-width:1;stroke-linecap:round;stroke-linejoin:round;stroke-opacity:1;stop-color:#000000"
         d="m 33.264367,36.123259 c -0.469289,-0.01269 -0.897909,-0.212956 -1.21164,-0.925833 -0.176364,-0.400742 -0.425786,-0.359397 -1.247249,-0.114661 -0.500066,0.148984 -0.74262,0.09849 -1.239813,0.752289 -0.343337,0.451476 -1.43131,0.408998 -1.507776,0.105336 -0.132199,-0.525028 -0.523226,-0.494525 -0.947022,-0.135343 -0.311198,0.263752 -0.705918,-2.8e-5 -1.363836,-0.497874 -0.680266,-0.514756 -1.074217,-1.195323 -0.382352,-1.716862 1.309552,-0.987163 0.157333,-1.679892 0.563269,-2.102224 0.490125,-0.509917 0.1325,-0.827163 0.513427,-1.853909 0.167905,-0.452567 0.653176,-0.758082 0.880517,-1.211952 0.268692,-0.536426 0.259766,-1.22386 0.663545,-1.625655 1.622211,-1.614241 3.514299,-3.63628 3.221949,-4.867963 -0.09268,-0.390459 -0.498239,-0.472296 -0.690556,-0.70848 -0.156889,-0.192671 -0.0933,-0.521263 -0.248354,-0.930804 -0.386183,-1.020006 -1.008894,-2.175338 -3.141633,-2.322742 -0.804427,-0.0556 -1.636908,0.201104 -2.343393,-0.04893 -2.543833,-0.900286 -1.804676,1.220216 -4.537093,1.326811 -0.644538,0.02515 -0.438205,0.640832 -0.85667,1.017488 -0.921284,0.829236 -0.04823,-1.199715 -0.913874,-1.20461 -1.126254,-0.0064 -1.723946,0.295635 -2.434221,0.553666"
         id="path19313" /><path
         style="display:inline;fill:none;stroke:#ffffff;stroke-width:1;stroke-linecap:round;stroke-linejoin:round;stroke-opacity:1;stop-color:#000000"
         d="m 18.533558,17.414682 c 0.288375,-1.113062 1.129003,-2.947094 2.193696,-2.454659 0.256793,0.118771 0.213403,0.947262 0.75487,1.680936 1.119968,0.448642 1.287744,1.143407 0.504526,0.859705 -2.104527,-1.121688 -2.059296,1.610911 -3.546642,0.629771 -1.356359,0.52043 -1.65861,-1.168693 -1.154181,-1.686515"
         id="path19311" /></g><g
       id="g19356"><path
         style="display:inline;fill:none;stroke:#ffffff;stroke-width:1;stroke-linecap:round;stroke-linejoin:round;stroke-opacity:1;stop-color:#000000"
         d="m 29.540879,9.782247 c 2.878213,1.142509 6.269676,1.718758 10.366744,1.732966 v 0 c 0.452348,8.352999 -1.20896,26.753386 -15.907627,30.984791 -0.07882,-0.02268 -0.157253,-0.04578 -0.235318,-0.06929"
         id="path19309" /><path
         style="display:inline;fill:none;stroke:#ffffff;stroke-width:1;stroke-linecap:round;stroke-linejoin:round;stroke-opacity:1;stop-color:#000000"
         d="m 21.718869,8.1135669 c 0.803409,-0.5161956 1.561641,-1.0913445 2.281127,-1.7255843 0.58816,0.5184735 1.202212,0.9974591 1.84567,1.437031"
         id="path19307" /><path
         style="display:inline;fill:none;stroke:#ffffff;stroke-width:1;stroke-linecap:round;stroke-linejoin:round;stroke-opacity:1;stop-color:#000000"
         d="M 23.764678,42.43072 C 9.2835745,38.071565 7.6424462,19.823423 8.0923689,11.515213 13.198683,11.497505 17.208944,10.606752 20.495561,8.8347848"
         id="path19272" /></g></g></svg>
