<?xml version="1.0" encoding="UTF-8" standalone="no"?>
<!-- Created with Inkscape (http://www.inkscape.org/) -->

<svg
   width="48"
   height="48"
   viewBox="0 0 48 48.000001"
   version="1.1"
   id="svg1"
   xml:space="preserve"
   inkscape:version="1.4.2 (ebf0e940d0, 2025-05-08)"
   sodipodi:docname="picap.svg"
   xmlns:inkscape="http://www.inkscape.org/namespaces/inkscape"
   xmlns:sodipodi="http://sodipodi.sourceforge.net/DTD/sodipodi-0.dtd"
   xmlns="http://www.w3.org/2000/svg"
   xmlns:svg="http://www.w3.org/2000/svg"><sodipodi:namedview
     id="namedview1"
     pagecolor="#505050"
     bordercolor="#eeeeee"
     borderopacity="1"
     inkscape:showpageshadow="0"
     inkscape:pageopacity="0"
     inkscape:pagecheckerboard="0"
     inkscape:deskcolor="#505050"
     inkscape:document-units="px"
     inkscape:zoom="5.12"
     inkscape:cx="8.3007813"
     inkscape:cy="23.046875"
     inkscape:window-width="1516"
     inkscape:window-height="908"
     inkscape:window-x="0"
     inkscape:window-y="0"
     inkscape:window-maximized="1"
     inkscape:current-layer="svg1"
     showguides="true" /><defs
     id="defs1"><style
       id="style1">
      .cls-1 {
        fill: none;
        stroke: #fff;
        stroke-linecap: round;
        stroke-linejoin: round;
      }
    </style><style
       id="style1-6">.a,.b{fill:none;stroke:#fff;stroke-linejoin:round;}.b{stroke-linecap:round;}</style><style
       id="style1-1">.q{fill:#fff;}.r,.s{fill:none;stroke:#fff;stroke-linecap:round;stroke-linejoin:round;}.s{stroke-width:1.0050968px;}</style><style
       id="style1-3">
      .cls-1 {
        fill: none;
        stroke: #fff;
        stroke-linecap: round;
        stroke-linejoin: round;
      }
    </style><style
       id="style1-62">
      .cls-1 {
        fill: none;
        stroke: #fff;
        stroke-linecap: round;
        stroke-linejoin: round;
      }
    </style><style
       id="style1-37">.cls-1{fill:none;stroke:#fff;stroke-linecap:round;stroke-linejoin:round;}</style><style
       id="style1-9">.q{fill:#fff;}.r,.s{fill:none;stroke:#fff;stroke-linecap:round;stroke-linejoin:round;}.s{stroke-width:1.0050968px;}</style></defs><path
     class="r"
     d="m 7.4760591,23.931203 c 0,1.292328 1.0476286,2.339969 2.3399597,2.339969 h 1.17e-5 c 1.2923315,0 2.3399715,-1.047641 2.3399715,-2.339969 v -1.520986 c 0,-1.292329 -1.04764,-2.339969 -2.3399715,-2.339969 h -1.17e-5 c -1.2923311,0 -2.3399597,1.04764 -2.3399597,2.339969"
     id="path90-0"
     style="display:inline;fill:none;stroke:#ffffff;stroke-width:1.16999;stroke-linecap:round;stroke-linejoin:round;stroke-opacity:1"
     transform="translate(0.34179688,-0.48337378)" /><line
     class="r"
     x1="7.4760547"
     y1="20.070242"
     x2="7.4760547"
     y2="29.430128"
     id="line90-5"
     style="fill:none;stroke:#ffffff;stroke-width:1.16999;stroke-linecap:round;stroke-linejoin:round;stroke-opacity:1"
     transform="translate(0.34179688,-0.48337378)" /><circle
     class="q"
     cx="15.761151"
     cy="16.820957"
     r="0.81898999"
     id="circle33"
     style="display:inline;stroke-width:1.16999"
     transform="translate(0.34179688,-0.48337378)" /><line
     class="r"
     x1="15.761151"
     y1="19.68742"
     x2="15.761151"
     y2="25.888348"
     id="line35"
     style="display:inline;stroke-width:1.16999"
     transform="translate(0.34179688,-0.48337378)" /><path
     class="r"
     d="m 23.738151,25.104855 c -0.403352,0.70416 -1.162205,1.17859 -2.031879,1.17859 v 0 c -1.292331,0 -2.339971,-1.04764 -2.339971,-2.33997 v -1.52099 c 0,-1.29233 1.04764,-2.33997 2.339971,-2.33997 v 0 c 0.867989,0 1.625602,0.4726 2.029539,1.17451"
     id="path35"
     style="display:inline;stroke-width:1.16999"
     transform="translate(0.34179688,-0.48337378)" /><path
     class="r"
     d="m 31.78925,23.943476 c 0,1.292329 -1.04764,2.33997 -2.33997,2.33997 h -5e-6 c -1.292329,0 -2.339969,-1.047641 -2.339969,-2.33997 V 22.42249 c 0,-1.292328 1.04764,-2.339969 2.339969,-2.339969 h 5e-6 c 1.29233,0 2.33997,1.047641 2.33997,2.339969"
     id="path42"
     style="stroke-width:1.16999"
     transform="translate(0.34179688,-0.48337378)" /><line
     class="r"
     x1="31.789253"
     y1="26.283447"
     x2="31.789253"
     y2="20.08252"
     id="line45"
     style="stroke-width:1.16999"
     transform="translate(0.34179688,-0.48337378)" /><path
     class="r"
     d="m 35.160409,23.943473 c 0,1.292328 1.047629,2.339969 2.33996,2.339969 h 1.1e-5 c 1.292332,0 2.339972,-1.047641 2.339972,-2.339969 v -1.520986 c 0,-1.292329 -1.04764,-2.339969 -2.339972,-2.339969 h -1.1e-5 c -1.292331,0 -2.33996,1.04764 -2.33996,2.339969"
     id="path90-0-1"
     style="fill:none;stroke:#ffffff;stroke-width:1.16999;stroke-linecap:round;stroke-linejoin:round;stroke-opacity:1"
     transform="translate(0.34179688,-0.48337378)" /><line
     class="r"
     x1="35.160404"
     y1="20.082512"
     x2="35.160404"
     y2="29.442398"
     id="line90-5-9"
     style="fill:none;stroke:#ffffff;stroke-width:1.16999;stroke-linecap:round;stroke-linejoin:round;stroke-opacity:1"
     transform="translate(0.34179688,-0.48337378)" /><path
     id="path47"
     style="display:inline;fill:none;stroke:#ffffff;stroke-width:0.993043;stroke-linecap:round;stroke-linejoin:round;stroke-dasharray:none;stroke-opacity:1;paint-order:markers stroke fill"
     d="M 23.204293,28.268798 A 7.3337097,7.9044785 0 0 1 15.915211,35.30258 7.3337097,7.9044785 0 0 1 9.1838466,30.535309"
     transform="translate(0.34179688,-0.48337378)" /></svg>
