<?xml version="1.0" encoding="UTF-8" standalone="no"?>
<!-- Created with Inkscape (http://www.inkscape.org/) -->

<svg
   width="48"
   height="48"
   viewBox="0 0 48 48"
   version="1.1"
   id="svg1"
   xml:space="preserve"
   sodipodi:docname="piliplus.svg"
   inkscape:version="1.4.4 (dcaf3e7, 2026-05-05)"
   xmlns:inkscape="http://www.inkscape.org/namespaces/inkscape"
   xmlns:sodipodi="http://sodipodi.sourceforge.net/DTD/sodipodi-0.dtd"
   xmlns="http://www.w3.org/2000/svg"
   xmlns:svg="http://www.w3.org/2000/svg"><sodipodi:namedview
     id="namedview1"
     pagecolor="#505050"
     bordercolor="#eeeeee"
     borderopacity="1"
     inkscape:showpageshadow="0"
     inkscape:pageopacity="0"
     inkscape:pagecheckerboard="0"
     inkscape:deskcolor="#505050"
     inkscape:zoom="6.5729167"
     inkscape:cx="24.114105"
     inkscape:cy="54.161648"
     inkscape:window-width="2415"
     inkscape:window-height="1560"
     inkscape:window-x="133"
     inkscape:window-y="-12"
     inkscape:window-maximized="1"
     inkscape:current-layer="svg1" /><defs
     id="defs1" /><g
     id="layer1"
     inkscape:transform-center-x="-0.22816579"
     transform="translate(0.83676704)"><path
       style="fill:none;stroke:#ffffff;stroke-linecap:round;stroke-linejoin:round;stroke-opacity:1"
       d="m 21.152833,16.17705 c 1.437169,-0.0041 2.874339,-0.0082 4.311509,-0.01223"
       id="path1" /><path
       style="fill:none;stroke:#ffffff;stroke-linecap:round;stroke-linejoin:round;stroke-opacity:1"
       d="m 25.198098,25.768621 c -2.076775,-0.0021 -4.15355,-0.0043 -6.230326,-0.0064"
       id="path2" /><path
       style="fill:none;stroke:#ffffff;stroke-linecap:round;stroke-linejoin:round;stroke-opacity:1"
       d="m 25.274682,25.766957 c 1.185232,-0.03863 2.349806,-0.534228 3.199411,-1.361537 0.849604,-0.827308 1.375987,-1.978294 1.446119,-3.16208 0.07013,-1.183786 -0.316667,-2.388872 -1.062645,-3.310709 -0.745978,-0.921837 -1.84389,-1.551471 -3.016269,-1.729779 -0.107295,-0.01632 -0.215143,-0.02901 -0.323296,-0.03803"
       id="path13" /><path
       style="fill:none;stroke:#ffffff;stroke-linecap:round;stroke-linejoin:round;stroke-opacity:1"
       d="m 21.747574,16.134502 c -0.307517,-3.24e-4 -0.615035,-6.48e-4 -0.922552,-9.72e-4"
       id="path15"
       transform="translate(-0.00552427,0.0386699)" /><path
       style="fill:none;stroke:#ffffff;stroke-linecap:round;stroke-linejoin:round;stroke-opacity:1"
       d="M 18.953125,25.757812 17.468749,33.1875 m 1.906252,-16.234375 -1.484376,7.429688"
       id="path16" /></g><rect
     class="cls-1"
     x="5.5"
     y="5.5"
     width="37"
     height="37"
     rx="4"
     ry="4"
     id="rect1"
     style="fill:none;stroke:#ffffff;stroke-linecap:round;stroke-linejoin:round" /></svg>
