<svg xmlns="http://www.w3.org/2000/svg" xml:space="preserve" id="svg1" version="1.1" viewBox="0 0 48 48"><defs id="defs1"><style id="style1">.a{fill:none;stroke:#fff;stroke-linecap:round;stroke-linejoin:round}</style></defs><path id="path1-8" d="m24.025 13.624 9.725 6.934-9.725 6.934-9.775-6.934zM43.5 27.38V13.724l-9.725-6.889L24 13.724l-9.775-6.889L4.5 13.724V27.38L24 41.165Zm-16.78-8.333-.168 5.143m-2.134-4.886c.032 1.593-.016 3.226-.552 4.777m3.258-6.785-.822 1.004m-2.174-1.116.494 1.077m-1.274 3.29h4.61m-4.61-2.409h4.266m-5.913-2.237v7.26l-.669-.206m-.428-2.58 2.243-.373m-2.243-2.283 2.243-.07" style="fill:none;fill-opacity:.266292;stroke:#fff;stroke-width:1stroke-linecap:round;stroke-linejoin:round;stroke-opacity:1"/></svg>
