<svg xmlns="http://www.w3.org/2000/svg" xml:space="preserve" viewBox="0 0 48 48"><path d="M31.936 31.672a2.86 2.869 45.159 0 0 .262-.229 2.86 2.869 45.159 0 0 .229-.263l.946.114a.173.174 45.16 0 0 .192-.13l.37-1.375a.173.174 45.16 0 0-.098-.207l-.879-.373a2.715 2.723 45.16 0 0-.178-.669l.572-.76a.173.174 45.16 0 0-.016-.229l-1.007-1.006a.173.174 45.16 0 0-.228-.017l-.76.573a2.66 2.667 45.16 0 0-.67-.178l-.375-.881a.173.174 45.16 0 0-.207-.1l-1.375.372a.173.174 45.16 0 0-.13.191l.112.945a2.884 2.893 45.16 0 0-.262.229 2.86 2.869 45.159 0 0-.229.262l-.945-.112a.173.174 45.16 0 0-.191.13l-.371 1.375a.173.174 45.16 0 0 .099.207l.878.373a2.715 2.723 45.16 0 0 .178.669l-.572.76a.173.174 45.16 0 0 .017.229l1.004 1.004a.173.174 45.16 0 0 .228.016l.76-.572a2.66 2.667 45.16 0 0 .67.178l.372.879a.173.174 45.16 0 0 .207.099l1.375-.371a.173.174 45.16 0 0 .13-.192Zm-2.5-1.229a1.243 1.247 45.16 1 1 1.758-.004 1.241 1.245 45.16 0 1-1.759.004zM27.081 37.2a3.724 3.731 15.112 0 0 .148-.428 3.724 3.731 15.112 0 0 .086-.445l1.141-.487a.225.226 15.112 0 0 .131-.27l-.477-1.791a.225.226 15.112 0 0-.246-.169l-1.233.151a3.534 3.542 15.112 0 0-.637-.638l.15-1.23a.225.226 15.112 0 0-.168-.245l-1.79-.48a.225.226 15.112 0 0-.267.13l-.485 1.139a3.462 3.47 15.112 0 0-.87.235l-.997-.75a.225.226 15.112 0 0-.298.024l-1.308 1.312a.225.226 15.112 0 0-.022.3l.742.992a3.755 3.763 15.112 0 0-.147.428 3.724 3.731 15.112 0 0-.087.445l-1.139.487a.225.226 15.112 0 0-.13.271l.476 1.79a.225.226 15.112 0 0 .247.17l1.233-.152a3.534 3.542 15.112 0 0 .636.639l-.15 1.23a.225.226 15.112 0 0 .168.245l1.785.479a.225.226 15.112 0 0 .268-.13l.485-1.14a3.462 3.47 15.112 0 0 .87-.234l.993.748a.225.226 15.112 0 0 .298-.024l1.308-1.312a.225.226 15.112 0 0 .022-.3zm-3.619.242a1.618 1.622 15.112 1 1 1.981-1.148 1.616 1.62 15.112 0 1-1.98 1.148zM5.5 26.576c5.83-6.608 13.411-9.177 20.98-1.516M12.311 42.499c5.783-14.441 18.201-26.474 30.19-11.342m-7.036-16.865a4.574 4.574 0 0 1-4.574 4.574 4.574 4.574 0 0 1-4.574-4.574 4.574 4.574 0 0 1 4.574-4.574 4.574 4.574 0 0 1 4.574 4.574zM9.5 5.5h29c2.216 0 4 1.784 4 4v29c0 2.216-1.784 4-4 4h-29c-2.216 0-4-1.784-4-4v-29c0-2.216 1.784-4 4-4z" class="cls-1" style="fill:none;stroke:#fff;stroke-width:1;stroke-linecap:round;stroke-linejoin:round"/></svg>