<?xml version="1.0" encoding="UTF-8" standalone="no"?>
<svg
   viewBox="0 0 48 48"
   version="1.1"
   id="svg1"
   sodipodi:docname="pixel_studio.svg"
   inkscape:version="1.3.2 (091e20ef0f, 2023-11-25)"
   xml:space="preserve"
   xmlns:inkscape="http://www.inkscape.org/namespaces/inkscape"
   xmlns:sodipodi="http://sodipodi.sourceforge.net/DTD/sodipodi-0.dtd"
   xmlns="http://www.w3.org/2000/svg"
   xmlns:svg="http://www.w3.org/2000/svg"><sodipodi:namedview
     id="namedview1"
     pagecolor="#505050"
     bordercolor="#eeeeee"
     borderopacity="1"
     inkscape:showpageshadow="0"
     inkscape:pageopacity="0"
     inkscape:pagecheckerboard="0"
     inkscape:deskcolor="#505050"
     inkscape:zoom="8.90625"
     inkscape:cx="-12.407018"
     inkscape:cy="23.298246"
     inkscape:window-width="1918"
     inkscape:window-height="1053"
     inkscape:window-x="0"
     inkscape:window-y="0"
     inkscape:window-maximized="1"
     inkscape:current-layer="svg1" /><defs
     id="defs1"><style
       id="style1">.a { fill:none;stroke:#fff;stroke-linecap:round;stroke-linejoin:round; }
</style></defs><path
     style="color:#000000;fill:none;stroke:#ffffff;stroke-width:1;stroke-linecap:round;stroke-linejoin:round;stroke-opacity:1;stroke-dasharray:none"
     d="m 15.372393,16.913565 c -0.457876,0.220037 -1.512521,-0.786188 -1.991684,-0.954771 -0.479161,-0.168583 -1.930632,-0.04408 -2.150394,-0.502529 -0.219763,-0.45845 0.785202,-1.514418 0.953574,-1.994182 0.168371,-0.479764 0.04402,-1.933054 0.501899,-2.153092 0.457877,-0.220038 1.51252,0.786187 1.991683,0.95477 0.479163,0.168583 1.930633,0.04408 2.150395,0.50253 0.219763,0.45845 -0.785203,1.514416 -0.953575,1.99418 -0.168371,0.479765 -0.04402,1.933056 -0.501898,2.153094 z"
     id="path3" /><path
     style="color:#000000;fill:none;stroke:#ffffff;stroke-width:1;stroke-linecap:round;stroke-linejoin:round;stroke-opacity:1;stroke-dasharray:none"
     d="M 14.69857,9.055345 A 3.801005,3.8057737 0 0 0 11.941472,9.9884915 C 8.2972826,13.178332 6.1873812,15.78667 5.1115407,18.411967 c -1.0758405,2.625299 -0.7553576,5.946483 1.2654789,7.746489 1.4842234,1.322032 3.5774217,1.482661 4.9385654,1.205314 1.361144,-0.277348 2.398547,-0.817235 3.410397,-1.413443 2.0237,-1.192415 3.91289,-2.747521 5.575873,-4.057357 0.06381,-0.05026 0.147073,-0.08277 0.212437,-0.132654 -0.891003,1.174127 -1.496025,2.039245 -2.357354,3.24543 -1.095911,1.534681 -2.089985,3.009287 -2.766237,4.729771 -0.338126,0.860241 -0.630012,1.80879 -0.589339,3.032726 0.04068,1.223935 0.638587,2.808327 1.736036,3.794338 2.369251,2.128667 5.94093,2.417909 8.380943,1.520937 2.440011,-0.896972 4.271957,-2.424383 5.989323,-3.906407 0.507012,-0.437533 0.861478,-0.731738 1.338576,-1.157284 a 3.801005,3.8057737 0 0 0 -0.840607,4.247188 3.801005,3.8057737 0 0 0 5.272066,1.045216 c 3.282181,-2.199856 5.564035,-4.949812 6.475871,-8.126151 0.455918,-1.588169 0.587377,-3.482278 -0.383756,-5.315276 -0.971131,-1.832997 -3.083341,-2.997578 -5.000239,-3.206547 -3.071902,-0.33488 -5.149852,1.174652 -6.930438,2.529559 -1.780587,1.354907 -3.392536,2.920742 -4.895165,4.217456 -0.697634,0.602033 -1.091637,0.750857 -1.692635,1.173295 0.04526,-0.06439 0.04496,-0.08595 0.09138,-0.15095 1.883654,-2.637817 4.572258,-5.756944 6.3411,-8.805427 0.661031,-1.03549 1.172806,-1.977896 1.514463,-3.007567 0.350269,-1.055625 0.625023,-2.333113 0.0731,-3.865239 -0.551927,-1.532126 -2.158339,-2.705987 -3.371565,-3.02129 -1.213225,-0.315304 -2.154391,-0.205855 -3.042631,-0.04574 -2.775503,0.500305 -5.471729,1.991253 -8.067999,3.769179 A 3.801005,3.8057737 0 0 0 17.304909,10.34757 3.801005,3.8057737 0 0 0 14.69857,9.055345 Z"
     id="path2" /></svg>
