<?xml version="1.0" encoding="UTF-8" standalone="no"?>
<!-- Created with Inkscape (http://www.inkscape.org/) -->

<svg
   width="48"
   height="48"
   viewBox="0 0 48 48"
   version="1.1"
   id="svg1"
   xml:space="preserve"
   sodipodi:docname="Pixel Clock Widgets.svg"
   inkscape:version="1.3.2 (091e20e, 2023-11-25, custom)"
   xmlns:inkscape="http://www.inkscape.org/namespaces/inkscape"
   xmlns:sodipodi="http://sodipodi.sourceforge.net/DTD/sodipodi-0.dtd"
   xmlns="http://www.w3.org/2000/svg"
   xmlns:svg="http://www.w3.org/2000/svg"><sodipodi:namedview
     id="namedview1"
     pagecolor="#ffffff"
     bordercolor="#000000"
     borderopacity="0.25"
     inkscape:showpageshadow="2"
     inkscape:pageopacity="0.0"
     inkscape:pagecheckerboard="0"
     inkscape:deskcolor="#d1d1d1"
     inkscape:document-units="px"
     inkscape:zoom="22.627417"
     inkscape:cx="18.252194"
     inkscape:cy="22.251767"
     inkscape:window-width="2560"
     inkscape:window-height="1369"
     inkscape:window-x="-8"
     inkscape:window-y="-8"
     inkscape:window-maximized="1"
     inkscape:current-layer="layer2" /><defs
     id="defs1" /><g
     inkscape:groupmode="layer"
     id="layer2"
     inkscape:label="Layer 2"
     style="fill:none;fill-opacity:1;stroke:#ffffff;stroke-opacity:1"><path
       id="rect3"
       style="fill:none;stroke:#ffffff;stroke-width:0.99995;stroke-dasharray:none;stroke-opacity:1;fill-opacity:1"
       d="m 16.723802,16.039344 c 0.639185,-0.608825 1.643901,-0.584384 2.252725,0.0548 l 6.42955,6.750166 c 0.608825,0.639187 0.584386,1.643903 -0.0548,2.252729 -0.639184,0.608825 -1.6439,0.584384 -2.252724,-0.0548 L 16.669001,18.29207 c -0.608826,-0.639184 -0.584383,-1.643902 0.0548,-2.252727 z m 8.02463,6.378051 c 0.837655,0.28237 1.284686,1.184059 1.002316,2.021711 L 21.79709,36.167613 c -0.282372,0.837657 -1.184059,1.284688 -2.021713,1.002318 -0.837655,-0.282375 -1.284686,-1.184063 -1.002317,-2.021715 l 3.95366,-11.728505 c 0.282373,-0.837659 1.184059,-1.28469 2.021712,-1.002316 z m 17.604927,13.379514 c -1.201432,1.869165 -0.583021,4.450479 -2.227292,5.945 -1.644275,1.494512 -4.154987,0.633164 -6.130041,1.651189 -1.975056,1.018028 -2.730151,3.562719 -4.901393,4.034874 -2.171242,0.472157 -3.914909,-1.529152 -6.134371,-1.635045 -2.219461,-0.105864 -4.145738,1.720327 -6.262166,1.043606 C 14.581668,46.159811 14.072262,43.554789 12.203097,42.353356 10.333932,41.151921 7.7526198,41.770333 6.2580982,40.126064 4.7635809,38.481786 5.6249287,35.971074 4.606902,33.996019 3.5888758,32.020963 1.0441863,31.265869 0.57202799,29.094626 0.09987086,26.923384 2.1011817,25.179717 2.2070724,22.960255 2.3129533,20.740794 0.48674355,18.814518 1.1634641,16.698088 1.840185,14.581661 4.4452038,14.072256 5.6466401,12.203093 6.8480738,10.333926 6.2296599,7.752614 7.8739327,6.2580936 9.5182066,4.7635768 12.028918,5.6249266 14.003974,4.6068989 c 1.975056,-1.0180255 2.73015,-3.5627146 4.901392,-4.0348711 2.171241,-0.47215655 3.914908,1.5291554 6.134373,1.6350455 2.219459,0.1058821 4.145737,-1.7203265 6.262165,-1.0436055 2.116428,0.6767228 2.625833,3.2817414 4.494999,4.4831776 1.869163,1.2014347 4.450478,0.5830223 5.944998,2.2272934 1.494528,1.6442664 0.633169,4.1549882 1.651197,6.1300422 1.018028,1.975057 3.562715,2.730152 4.034873,4.901395 0.472158,2.171242 -1.529152,3.914905 -1.635042,6.134369 -0.105864,2.219464 1.720327,4.145738 1.043604,6.262167 -0.67672,2.116429 -3.281739,2.625834 -4.483174,4.494997 z M 25.56007,41.974333 a 1.6416943,1.6416917 84.051532 0 1 -1.662413,1.620709 1.6416943,1.6416917 84.051532 0 1 -1.620709,-1.662415 1.6416943,1.6416917 84.051532 0 1 1.662411,-1.620707 1.6416943,1.6416917 84.051532 0 1 1.620717,1.662406 z" /></g></svg>
