<?xml version="1.0" encoding="UTF-8"?><svg id="a" xmlns="http://www.w3.org/2000/svg" viewBox="0 0 48 48"><defs><style>.h{fill:none;stroke:#fff;stroke-linecap:round;stroke-linejoin:round;}</style></defs><path id="e" class="h" d="M23.23791865,12.80594463h1.524161v2.28940494c0,.74943277.60397282,1.35340559,1.35445907,1.35340559h4.13189126v1.5768649h-4.13189126c-.75048624,0-1.35445907.60291935-1.35445907,1.35235212v2.29045942h-1.524161v-2.29045942c0-.74943277-.60397282-1.35235212-1.35445907-1.35235212h-4.13189126v-1.5768649h4.13189126c.75048624,0,1.35445907-.60397282,1.35445907-1.35340559v-2.28940494Z"/><path id="f" class="h" d="M8.95021809,4.5c-.75048624,0-1.35445907.60291884-1.35445907,1.35235111v9.24405294c0,.74837829.60397282,1.35235111,1.35445907,1.35235111h4.13189126v1.5768649h-4.13189126c-.75048624,0-1.35445907.60291935-1.35445907,1.35235212v9.24405294c0,.74837728.60397282,1.35129663,1.35445907,1.35129663h4.13189126v1.5768649h-4.13189126c-.75048624,0-1.35445907.60397282-1.35445907,1.35340559v9.24299947c0,.74837728.60397282,1.35235212,1.35445907,1.35235212h12.9332415c.75048624,0,1.35445907-.60291734,1.35445907-1.35235212v-9.24405294c0-.74837728-.60397282-1.35235212-1.35445907-1.35235212h-4.13189126v-1.5768649h4.13189126c.75048624,0,1.35445907-.60291935,1.35445907-1.3523501v-2.29045942h1.524161v2.29045942c0,.74943277.60397282,1.35235212,1.35445907,1.35235212h12.9332415c.75048825,0,1.35445907-.60291935,1.35445907-1.35235212v-9.24405294c.00117008-.74513644-.60193222-1.35013459-1.34706866-1.35130467-.00246481-.00000402-.0049256-.00000201-.00739041.00000804h-4.13188925v-1.5768649h4.13188925c.75048825,0,1.35445907-.60397282,1.35445907-1.35340559V5.85235111c0-.74837829-.60397483-1.35235111-1.35445907-1.35235111h-12.9332415c-.75048624,0-1.35445907.60291884-1.35445907,1.35235111v2.29045942h-1.524161v-2.29045942c0-.74837829-.60397282-1.35235111-1.35445907-1.35235111h-12.9332415Z"/><path id="g" class="h" d="M26.11653871,31.54913116h12.9332415c.75048825,0,1.35445907.60397282,1.35445907,1.35340358v9.24405294c0,.75048825-.60397483,1.35340559-1.35445907,1.35340559h-12.9332415c-.74571545.0023281-1.35212493-.60030375-1.35445504-1.3460192-.00000603-.00211097-.00000804-.00422194-.00000402-.00633291v-9.24510642c0-.74943277.60397282-1.35340559,1.35445907-1.35340358Z"/></svg>