<?xml version="1.0" encoding="UTF-8" standalone="no"?>
<svg
   id="Layer_1"
   data-name="Layer 1"
   version="1.1"
   viewBox="0 0 48 48"
   xml:space="preserve"
   xmlns="http://www.w3.org/2000/svg"
   xmlns:svg="http://www.w3.org/2000/svg"><defs
     id="defs1"><style
       id="style1">
      .cls-1 {
        fill: none;
        stroke: #fff;
        stroke-linecap: round;
        stroke-linejoin: round;
      }
    </style><style
       id="style1-8">.a{fill:none;stroke:#fff;stroke-linecap:round;stroke-linejoin:round;}</style></defs><path
     style="fill:none;stroke:#ffffff;stroke-width:1;stroke-linecap:round;stroke-linejoin:round;stroke-dashoffset:0.5"
     d="m 38.234366,13.39707 c -0.221989,-1.440181 -0.376836,-3.5227054 0.451867,-5.3260994 0.437421,-0.9519017 1.665759,-1.8999837 2.573669,-1.2460332 1.062984,0.7656422 1.227726,1.8929662 0.581699,2.6337232 -1.005413,1.1528524 -2.383353,1.0439574 -3.607235,0.5485674"
     id="path3-5" /><path
     style="fill:none;stroke:#ffffff;stroke-width:1;stroke-linecap:round;stroke-linejoin:round;stroke-dashoffset:0.5"
     d="M 39.439613,24.969935 C 40.249424,44.316768 23.042169,42.338292 6.6354369,39.775517 4.6638243,39.467545 5.3069346,37.5751 8.0294656,37.60957 l 2.3431564,0.02967 C 8.7461406,34.116035 5.3147275,32.727074 5.6269903,26.868844 5.8763516,22.190683 10.37246,14.871726 17.520729,14.763279 c 9.269261,-0.140624 12.496894,7.070389 13.58437,12.491281 0.0098,-0.761543 0.116243,-1.725078 0.622863,-2.759356 0.467128,-0.953652 0.889806,-2.452762 0.741505,-5.489044 -0.09785,-2.003481 1.90782,-4.423943 4.923593,-4.124199 3.362338,0.33419 4.986509,2.648164 5.101553,5.103327 0.09261,1.976482 -0.968899,3.639583 -3.055,4.984647 z"
     id="path1" /><g
     id="g1"
     transform="matrix(0.351162,-0.08804358,0.08800852,0.3513019,7.8896706,21.671462)"
     style="stroke-width:2.76175"><line
       class="a"
       x1="13.2809"
       y1="9.2958002"
       x2="13.2809"
       y2="42.5"
       id="line1"
       style="stroke-width:2.76175" /><line
       class="a"
       x1="11.098"
       y1="42.5"
       x2="15.4637"
       y2="42.5"
       id="line2"
       style="stroke-width:2.76175" /><path
       class="a"
       d="M 4.3878,16.214 C 7.8784,12.73 15.8193,5.5 27.1972,5.5 c 11.3779,0 16.415,8.83 16.415,15.4669 0,6.6369 -6.3408,14.5779 -16.7706,14.5779 -10.4298,0 -13.5607,-3.9112 -13.5607,-3.9112"
       id="path2"
       style="stroke-width:2.76175" /><line
       class="a"
       x1="4.3878002"
       y1="16.214001"
       x2="5.4488001"
       y2="18.418699"
       id="line3"
       style="stroke-width:2.76175" /></g><path
     style="fill:none;stroke:#ffffff;stroke-width:1;stroke-linecap:round;stroke-linejoin:round;stroke-dashoffset:0.5"
     d="m 34.39738,13.990171 c -0.855213,-1.179635 -2.227024,-2.792352 -2.313495,-4.7752724 -0.04564,-1.046662 0.614007,-2.4513981 1.720291,-2.2846293 1.295236,0.1952533 1.95664,1.1227533 1.720291,2.0769343 -0.367831,1.4850034 -1.643288,2.0178954 -2.958222,2.1365774"
     id="path3" /></svg>
