<?xml version="1.0" encoding="UTF-8"?><svg id="b" xmlns="http://www.w3.org/2000/svg" viewBox="0 0 48 48"><defs><style>.c{fill:none;stroke:#fff;stroke-linecap:round;stroke-linejoin:round;}</style></defs><path class="c" d="M5.1047,14.0495h15.262c9.804,0,22.555,7.208,23.647,13.158.478,2.605-4.257,4.686-7.735,4.686h-5.007l-1.516-1.514H10.3627l-1.517,1.514h-4.844"/><path class="c" d="M24.7597,14.5155c3.098,6.26,11.04,9.122,17.181,9.145M19.1167,30.4165c-.0094,1.9541-1.599,3.5335-3.557,3.534-1.9584,0-3.5486-1.5795-3.558-3.534M28.1167,30.4165c-.0094,1.9545-1.5996,3.534-3.558,3.534-1.958-.0005-3.5476-1.5799-3.557-3.534M7.3937,23.8865h-1.76M8.4867,18.9105h13.362l4.985,4.976H10.0697M3.9527,18.9105h2.628M18.5807,19.0795v4.642"/></svg>