<?xml version="1.0" encoding="UTF-8" standalone="no"?>
<svg
   viewBox="0 0 48 48"
   version="1.1"
   id="svg1"
   sodipodi:docname="plants_vs_zombies_grafted.svg"
   inkscape:version="1.2.2 (b0a8486541, 2022-12-01)"
   xml:space="preserve"
   xmlns:inkscape="http://www.inkscape.org/namespaces/inkscape"
   xmlns:sodipodi="http://sodipodi.sourceforge.net/DTD/sodipodi-0.dtd"
   xmlns="http://www.w3.org/2000/svg"
   xmlns:svg="http://www.w3.org/2000/svg"><sodipodi:namedview
     id="namedview1"
     pagecolor="#505050"
     bordercolor="#eeeeee"
     borderopacity="1"
     inkscape:showpageshadow="0"
     inkscape:pageopacity="0"
     inkscape:pagecheckerboard="0"
     inkscape:deskcolor="#505050"
     inkscape:zoom="6.2976698"
     inkscape:cx="-14.291"
     inkscape:cy="26.517745"
     inkscape:window-width="1918"
     inkscape:window-height="1053"
     inkscape:window-x="0"
     inkscape:window-y="0"
     inkscape:window-maximized="1"
     inkscape:current-layer="svg1"
     showgrid="false" /><defs
     id="defs1"><style
       id="style1">.a { fill:none;stroke:#fff;stroke-linecap:round;stroke-linejoin:round; }
</style></defs><path
     style="fill:none;stroke:#ffffff;stroke-linecap:round;stroke-linejoin:round;stroke-opacity:1;stop-color:#000000"
     d="m 9.5,5.5 h 29 c 2.216,0 4,1.784 4,4 v 29 c 0,2.216 -1.784,4 -4,4 h -29 c -2.216,0 -4,-1.784 -4,-4 v -29 c 0,-2.216 1.784,-4 4,-4 z"
     id="path6897" /><path
     style="fill:none;stroke:#ffffff;stroke-linecap:round;stroke-linejoin:round;stroke-opacity:1;stop-color:#000000"
     d="m 17.100941,15.400749 c 5.242767,-1.373875 13.350694,1.31111 14.545468,7.784613 0.625294,3.387958 0.990714,8.481763 -4.384999,9.185694 -5.742711,1.002225 -13.359209,-0.168228 -16.599253,-5.597831 -1.2587208,-2.10934 -0.636881,-4.512604 3.113895,-7.008064 0.704616,-1.604573 1.953167,-3.173519 3.714648,-4.708859 4.664184,-1.702586 7.11321,-2.184684 12.255676,2.229042 0.943667,1.281439 1.227337,2.082096 1.340679,3.414526"
     id="path6895" /><path
     style="fill:none;stroke:#ffffff;stroke-linecap:round;stroke-linejoin:round;stroke-opacity:1;stop-color:#000000"
     d="m 42.501677,14.222215 c -4.812818,-0.332366 -9.980974,1.781426 -12.32565,3.688816"
     id="path6893" /><path
     style="fill:none;stroke:#ffffff;stroke-linecap:round;stroke-linejoin:round;stroke-opacity:1;stop-color:#000000"
     d="M 36.125657,9.6677967 C 38.211306,8.9750796 40.380486,8.6052832 42.398682,8.5972005"
     id="path6891" /><path
     style="fill:none;stroke:#ffffff;stroke-linecap:round;stroke-linejoin:round;stroke-opacity:1;stop-color:#000000"
     d="M 22.038602,5.4984054 C 16.971077,7.6717889 17.173226,11.344716 17.439467,15.101558"
     id="path6889" /><path
     style="fill:none;stroke:#ffffff;stroke-linecap:round;stroke-linejoin:round;stroke-opacity:1;stop-color:#000000"
     d="m 20.921831,7.8002596 c 7.366358,-2.0873907 7.848301,5.2435634 13.093446,4.4114354 0.994527,-0.15778 1.85876,-0.740895 2.76656,-1.181525 C 36.540809,9.3309636 33.413226,6.7882252 29.841875,5.4964454"
     id="path6887" /><path
     style="fill:none;stroke:#ffffff;stroke-linecap:round;stroke-linejoin:round;stroke-opacity:1;stop-color:#000000"
     d="M 25.67869,7.8461979 C 22.791744,8.8955477 20.685008,11.423579 20.392435,14.13032"
     id="path6885" /><path
     style="fill:none;stroke:#ffffff;stroke-linecap:round;stroke-linejoin:round;stroke-opacity:1;stop-color:#000000"
     d="m 27.525275,15.576831 c 1.004356,-1.422196 2.356922,-2.653192 3.908726,-3.668321"
     id="path6883" /><path
     style="fill:none;stroke:#ffffff;stroke-linecap:round;stroke-linejoin:round;stroke-opacity:1;stop-color:#000000"
     d="m 31.949443,25.490179 c 1.929675,-3.187337 6.976815,-0.42363 8.183659,4.390362 -3.526695,3.280144 -7.969381,3.759673 -9.37161,0.760454"
     id="path6881" /><path
     style="fill:none;stroke:#ffffff;stroke-linecap:round;stroke-linejoin:round;stroke-opacity:1;stop-color:#000000"
     d="m 31.86706,28.028594 c 0.64872,-0.175709 1.953868,-0.10774 3.350793,0.125939"
     id="path6879" /><path
     style="fill:none;stroke:#ffffff;stroke-linecap:round;stroke-linejoin:round;stroke-opacity:1;stop-color:#000000"
     d="m 29.178893,31.866546 c 2.615989,3.397029 -0.344099,5.15986 0.08998,7.291871 -2.464746,-0.14826 -9.637842,-4.615595 -6.413597,-6.473496"
     id="path6877" /><path
     style="fill:none;stroke:#ffffff;stroke-linecap:round;stroke-linejoin:round;stroke-opacity:1;stop-color:#000000"
     d="m 26.186026,32.531719 c 0.686029,0.769663 1.047115,1.477634 1.325489,2.169895"
     id="path6875" /><path
     style="fill:none;stroke:#ffffff;stroke-linecap:round;stroke-linejoin:round;stroke-opacity:1;stop-color:#000000"
     d="m 17.065783,31.680465 c 0.24184,0.554817 0.172894,0.947353 -0.584237,1.22546 -1.791875,0.658186 -5.334,0.900601 -6.206272,2.070468 -1.9613045,-2.96083 -0.8618799,-6.923991 1.373249,-6.829944"
     id="path6873" /><path
     style="fill:none;stroke:#ffffff;stroke-linecap:round;stroke-linejoin:round;stroke-opacity:1;stop-color:#000000"
     d="m 13.40112,29.783173 -1.372172,1.419019"
     id="path6871" /><path
     style="fill:none;stroke:#ffffff;stroke-linecap:round;stroke-linejoin:round;stroke-opacity:1;stop-color:#000000"
     d="m 15.09085,33.291788 c 0.2375,1.483343 1.531707,3.270545 3.149648,4.81905 1.820544,-0.63434 3.37043,-1.552375 4.541107,-2.587519"
     id="path6869" /><path
     style="fill:none;stroke:#ffffff;stroke-linecap:round;stroke-linejoin:round;stroke-opacity:1;stop-color:#000000"
     d="m 13.365112,33.678503 c -0.256069,1.786992 0.02553,2.547878 2.158856,0.985916"
     id="path6867" /><path
     style="fill:none;stroke:#ffffff;stroke-linecap:round;stroke-linejoin:round;stroke-opacity:1;stop-color:#000000"
     d="m 35.362372,32.511439 c 0.418198,1.505097 -0.265051,2.785746 -1.086022,4.038316 -1.483305,0.01986 -3.174642,-0.06542 -4.135858,-0.919272"
     id="path6865" /><path
     style="fill:none;stroke:#ffffff;stroke-linecap:round;stroke-linejoin:round;stroke-opacity:1;stop-color:#000000"
     d="m 36.941702,16.148342 c -0.202555,2.619219 -1.188373,4.556058 -3.290698,4.682807 -0.767075,0.04625 -1.565324,0.01009 -2.554241,-0.102918"
     id="path6863" /><path
     style="fill:none;stroke:#ffffff;stroke-linecap:round;stroke-linejoin:round;stroke-opacity:1;stop-color:#000000"
     d="m 36.476616,18.69372 c 1.151777,1.103037 2.3939,2.096172 3.160996,3.667255 -0.739672,1.202838 -1.498606,2.149071 -2.269635,2.933984"
     id="path6861" /><path
     style="fill:none;stroke:#ffffff;stroke-linecap:round;stroke-linejoin:round;stroke-opacity:1;stop-color:#000000"
     d="m 29.211787,12.174591 c -0.0017,-0.167516 -0.0048,-0.335701 -0.01013,-0.5046"
     id="path6859" /><path
     style="fill:none;stroke:#ffffff;stroke-linecap:round;stroke-linejoin:round;stroke-opacity:1;stop-color:#000000"
     d="m 25.882053,11.126748 -1.888777,2.652826"
     id="path6857" /><path
     style="fill:none;stroke:#ffffff;stroke-linecap:round;stroke-linejoin:round;stroke-opacity:1;stop-color:#000000"
     d="m 13.666669,19.726392 c -2.081829,-0.803554 -3.7350399,-1.64901 -2.933393,-3.460625 0.486181,-1.098703 1.510067,-1.937436 2.296766,-1.947342 0.426153,-1.20138 1.347907,-1.999305 2.651297,-2.227519"
     id="path6855" /><path
     style="fill:none;stroke:#ffffff;stroke-linecap:round;stroke-linejoin:round;stroke-opacity:1;stop-color:#000000"
     d="m 12.991627,14.320314 0.499742,0.951877"
     id="path6853" /><path
     style="fill:none;stroke:#ffffff;stroke-linecap:round;stroke-linejoin:round;stroke-opacity:1;stop-color:#000000"
     d="M 10.970454,27.258114 8.0248664,29.17286 C 5.9815479,28.091981 5.2474989,25.068719 8.0942194,23.529789"
     id="path6851" /><path
     style="fill:none;stroke:#ffffff;stroke-linecap:round;stroke-linejoin:round;stroke-opacity:1;stop-color:#000000"
     d="M 7.1363129,24.221031 C 5.5927862,23.3942 8.5536593,18.75907 11.432713,21.725402"
     id="path6849" /><path
     style="fill:none;stroke:#ffffff;stroke-linecap:round;stroke-linejoin:round;stroke-opacity:1;stop-color:#000000"
     d="m 8.2975809,29.082723 c -0.2569845,0.914808 0.083794,1.512097 0.9840274,1.944788"
     id="path6847" /><path
     style="fill:none;stroke:#ffffff;stroke-linecap:round;stroke-linejoin:round;stroke-opacity:1;stop-color:#000000"
     d="m 10.669326,17.777111 c -1.1199194,0.822 -1.6902233,1.845209 -1.9186784,3.026379"
     id="path6845" /><path
     style="fill:none;stroke:#ffffff;stroke-linecap:round;stroke-linejoin:round;stroke-opacity:1;stop-color:#000000"
     d="m 22.496582,35.767573 c -0.438205,2.982554 -0.340221,4.906506 0.08248,6.733417"
     id="path6843" /><path
     style="fill:none;stroke:#ffffff;stroke-linecap:round;stroke-linejoin:round;stroke-opacity:1;stop-color:#000000"
     d="m 19.418668,37.645959 c -0.760917,1.700161 -1.066683,3.309506 -1.0493,4.854358"
     id="path6841" /><path
     style="fill:none;stroke:#ffffff;stroke-linecap:round;stroke-linejoin:round;stroke-opacity:1;stop-color:#000000"
     d="m 17.318707,37.293389 c -1.130973,1.493658 -2.711847,2.252426 -4.490508,2.688106"
     id="path6839" /><path
     style="fill:none;stroke:#ffffff;stroke-linecap:round;stroke-linejoin:round;stroke-opacity:1;stop-color:#000000"
     d="m 12.275835,37.714176 c -0.415317,1.122012 0.222058,2.093349 1.093539,2.131747"
     id="path6837" /><path
     style="fill:none;stroke:#ffffff;stroke-linecap:round;stroke-linejoin:round;stroke-opacity:1;stop-color:#000000"
     d="m 14.859327,41.307214 c -0.758585,-0.05473 -1.385361,-0.264329 -1.746354,-0.786213"
     id="path6835" /><path
     style="fill:none;stroke:#ffffff;stroke-linecap:round;stroke-linejoin:round;stroke-opacity:1;stop-color:#000000"
     d="M 12.871182,42.092382 C 12.574766,41.558099 12.740299,41.07149 13.065073,40.601317"
     id="path6833" /><path
     style="fill:none;stroke:#ffffff;stroke-linecap:round;stroke-linejoin:round;stroke-opacity:1;stop-color:#000000"
     d="m 11.151522,41.012162 c 0.396663,-0.530861 0.872285,-0.843558 1.67296,-1.014972"
     id="path6831" /><path
     style="fill:none;stroke:#ffffff;stroke-linecap:round;stroke-linejoin:round;stroke-opacity:1;stop-color:#000000"
     d="m 10.912573,38.92673 c 0.586184,0.70891 1.498616,1.153073 2.378901,0.933837"
     id="path6829" /><path
     style="fill:none;stroke:#ffffff;stroke-linecap:round;stroke-linejoin:round;stroke-opacity:1;stop-color:#000000"
     d="m 26.590373,40.660642 c 0.972186,-0.435316 1.507752,-0.187853 2.210428,-0.04203 0.439112,-0.74301 1.298238,-1.47578 2.296345,-1.681397"
     id="path6827" /><path
     style="fill:none;stroke:#ffffff;stroke-linecap:round;stroke-linejoin:round;stroke-opacity:1;stop-color:#000000"
     d="m 26.451427,41.920424 c 0.782003,-0.379465 1.709462,-0.546513 2.761118,-0.532179 0.892257,-0.128755 1.219814,-1.123039 2.060096,-1.347902"
     id="path6825" /><path
     style="fill:none;stroke:#ffffff;stroke-linecap:round;stroke-linejoin:round;stroke-opacity:1;stop-color:#000000"
     d="m 25.366957,37.646939 c 1.321496,1.349295 2.481699,2.904417 4.223817,3.42959"
     id="path6823" /><path
     style="fill:none;stroke:#ffffff;stroke-linecap:round;stroke-linejoin:round;stroke-opacity:1;stop-color:#000000"
     d="m 17.467775,26.49552 c 2.36125,-0.313325 2.900294,-0.177306 5.850531,-0.19192 -1.465013,1.020873 -1.761384,2.896428 -2.551886,3.012738 -2.223902,0.327213 -2.196922,-2.102299 -3.298645,-2.820818 v 0"
     id="path6821" /><path
     style="fill:none;stroke:#ffffff;stroke-linecap:round;stroke-linejoin:round;stroke-opacity:1;stop-color:#000000"
     d="m 25.547315,20.664909 c -1.246476,1.082593 -1.786661,4.086597 -0.50194,5.124789"
     id="path6819" /><path
     style="fill:none;stroke:#ffffff;stroke-linecap:round;stroke-linejoin:round;stroke-opacity:1;stop-color:#000000"
     d="m 27.729633,21.987943 c 0.393806,1.419062 -0.0195,2.914127 -0.76065,3.812734"
     id="path6817" /><path
     style="fill:none;stroke:#ffffff;stroke-linecap:round;stroke-linejoin:round;stroke-opacity:1;stop-color:#000000"
     d="m 23.790873,21.475503 c 2.401857,-2.501809 3.541967,0.668128 5.294107,1.695245"
     id="path6815" /><path
     style="fill:none;stroke:#ffffff;stroke-linecap:round;stroke-linejoin:round;stroke-opacity:1;stop-color:#000000"
     d="m 25.045621,25.788753 c 0.691273,-0.05481 1.292892,0.0318 1.927374,0.217519"
     id="path6813" /><path
     style="fill:none;stroke:#ffffff;stroke-linecap:round;stroke-linejoin:round;stroke-opacity:1;stop-color:#000000"
     d="m 14.707805,19.936506 c 1.33773,-1.374201 3.150702,-1.944277 3.998135,0.203878"
     id="path6811" /><path
     style="fill:none;stroke:#ffffff;stroke-linecap:round;stroke-linejoin:round;stroke-opacity:1;stop-color:#000000"
     d="m 14.92549,23.600939 1.111393,0.687564"
     id="path6809" /><path
     style="fill:none;stroke:#ffffff;stroke-linecap:round;stroke-linejoin:round;stroke-opacity:1;stop-color:#000000"
     d="m 17.150905,18.719805 c -1.563382,1.030573 -2.723509,2.815191 -2.03983,4.966224"
     id="path6807" /><path
     style="fill:none;stroke:#ffffff;stroke-linecap:round;stroke-linejoin:round;stroke-opacity:1;stop-color:#000000"
     d="m 18.410302,19.61122 c -0.0084,2.10872 -1.222178,3.977816 -2.701352,4.476336"
     id="path6805" /><path
     style="fill:none;stroke:#ffffff;stroke-linecap:round;stroke-linejoin:round;stroke-opacity:1;stop-color:#000000"
     d="m 19.083059,28.736921 c 0.625959,-1.142765 1.990954,-1.316533 3.046164,-1.148376"
     id="path5463" /></svg>
