<?xml version="1.0" encoding="UTF-8"?><svg id="a" xmlns="http://www.w3.org/2000/svg" viewBox="0 0 48 48"><defs><style>.aj{fill:none;stroke:#fff;stroke-linecap:round;stroke-linejoin:round;}</style></defs><g id="e"><path id="f" class="aj" d="M20.19638448,37.0927348c.31186676-2.04099274.55711937-4.10892105,1.50577354-5.89238548,3.26070023.77054214,6.92925835,1.84419441,10.29497719,3.2099514-.13209152,2.38172531-1.23901749,4.45981216-2.34761429,5.81615448"/><path id="g" class="aj" d="M23.21037107,31.57252263l.39535713-1.80968666c2.0255928.41700172,4.54318619,1.14171791,6.9140358,2.13563919l-.22192001,1.85730362"/></g><g id="h"><path id="i" class="aj" d="M25.73383337,30.11337995c-.05999947-1.01419449.12642097-1.97722626.70824432-2.67113304-1.02159691-1.05647278-.94385338-1.26854706-.02420044-2.26114845-.12610435-1.50877571-.2554493-3.00117493-.29982376-4.92308807.60164833-.75891113,1.46803856-1.33006859,2.40202332-1.85328674l.04681969-1.64367676"/><path id="j" class="aj" d="M29.7856732,20.06016492c.83412552,3.37273598,2.25174904,4.14736366,4.01571083,3.22105217l1.95666504-2.10588074-1.85629272-1.08770943c-.6118927.56657982-1.14454651.96371269-1.66188812,1.32810211"/><path id="k" class="aj" d="M33.9823113,20.09608983c-.23917389-.94319153-1.77699661-.22643661-2.04458046-1.40082169-.43494415-1.90889359-1.29369164-2.55495644-3.38458824-1.47353935"/><path id="l" class="aj" d="M29.41122823,31.37752484l-.04550934-1.26589584.95212746-.19632149"/><path id="m" class="aj" d="M30.78886038,29.11760472l.33127213-.41881561c1.57535172-.26643562,2.81312561-.42756844,4.14234924-.8742485"/><path id="n" class="aj" d="M36.44157415,19.90306233c-.34959412-2.77506256-.52842712-4.46737862-.02529907-6.78603077-.86061478-.42689323-1.84534454-.67486858-2.83729935-.68640709-.84135437,1.28773117-1.62811852,2.4725256-3.8754406,2.98163891"/><path id="o" class="aj" d="M36.18417364,15.58378648c1.77809143-.68736076,2.36969757-1.71413231,3.25768661-.70312023"/><path id="p" class="aj" d="M40.32792669,15.67374753c-.60778809,1.74945259-.95314026,3.50091743-1.02168274,6.32103348-.02381134.9794178-.58963776.95752525-1.55596161.91755295-.99358749.35745049-1.78160477.6289444-2.39759064.80139351"/><path id="q" class="aj" d="M39.76313024,18.45522451c.61270142.31641579,1.22540283.4409008,1.83810043.40501785.63524246.54700851.83296204,1.35599709.8976326,2.23108101-1.0465126.60704041-1.26921082,1.07600975-2.45276642,2.2097435.10825348.89393616-.11214066,1.70612907-.93584442,1.78324699-1.23357391.11549568-2.83617783.20414734-4.41410065-.30099869"/><path id="r" class="aj" d="M38.30278021,26.95659398c.7049675-.25181389,1.36380005-.64908791,1.77814484-1.16829681,3.10930252-.09742928,1.981987-2.62300682.3935318-2.93880081"/><path id="s" class="aj" d="M33.67390829,24.59330701c-.85355759,1.09391785-1.69903374,1.71623039-2.53942299,2.0414505"/></g><g id="t"><g id="u"><path id="v" class="aj" d="M34.73440557,30.82240247l1.32026672-1.17188835"/><path id="w" class="aj" d="M36.16613012,26.2477641c1.07087326,1.33776665,1.19391632,3.03779411,1.63907242,4.40507317"/><path id="x" class="aj" d="M38.5769692,29.65794515l.64108658.28286743"/><path id="y" class="aj" d="M35.46462637,31.32251691c-.42199707.90038681-.00579834,1.3947525.72159195,1.63058853-.08819962.76960754.40942001,1.07512283,1.05944824.70802307.04626083.6126976.33551788.78289413.82715607.74689484.34685135.30619431.71999359.28681564.70486069-.17950821.43430328-.31726837.48847198-.60400772.34895325-1.18000031.46876526-.06678009.92694855-.30042267.81167984-1.14721298.65011978-.10943413.38554764-1.1656189-.0582695-1.14605904"/></g><path id="z" class="aj" d="M20.19818311,16.14856481c2.06070328-.97093105,4.30780983-2.18348408,5.30126953-1.92343426.61091042.15991306,1.27915382.46178913,1.9817791.88383198"/><g id="aa"><path id="ab" class="aj" d="M15.15464216,18.44001149c1.54133987.02742004,3.18871117-.46759224,4.85841751-1.26208496.91308022-.43446922,1.91047478-.19878006,2.26926422.85597992.95222855,2.79933548,1.33235359,7.06644058-.60075378,8.18497276-1.72523499.99825478-4.96531487-1.51713753-6.15208912-3.70438576"/><path id="ac" class="aj" d="M14.35093122,17.59807157c-.64875221-1.10957909-.90346718-2.47230816-.82037449-3.58089733"/><path id="ad" class="aj" d="M12.74917703,16.91479444c-2.00273514-2.40688515-2.9438076-6.15425777-.75278473-8.53679276.73707485-.8015008,1.40151405-.73100519,2.59250832-.22445583,2.26213741.96212292,4.47795963,2.61470127,5.82297993,4.92358971,1.22681236,2.10597229-.78253555,3.3448-2.02102089,4.65430164"/><path id="ae" class="aj" d="M8.53977113,18.93789815c-.85639286.74149704-1.79819679,1.51304245-1.78128099,1.76459694.24731016,3.67774963,4.41640043,9.02567291,6.25787497,5.4722538"/><path id="af" class="aj" d="M10.84927469,10.65576028c-.43900871-.6536026-1.12437248-1.37580776-2.63519478-.19625378-3.84724712,3.0036869-4.08826113,10.17254066,2.4630909,8.11266136"/><path id="ag" class="aj" d="M13.17194181,22.60524892c-.46137905,2.94007111-.25853825,7.15829277,2.16267967,7.22566414,1.91596413.05331039,4.85863113-1.13837814,4.96274757-3.43497658"/><path id="ah" class="aj" d="M11.60867315,15.3803544c-2.15707779,3.56418324-.49331474,8.64303493,4.17999268,7.05462933"/><path id="ai" class="aj" d="M15.4151898,18.53086804c.99690437,1.30257416,1.00980568,2.42379761.82062721,3.65031433"/></g></g></svg>