<?xml version="1.0" encoding="UTF-8" standalone="no"?>
<svg
   viewBox="0 0 48 48"
   version="1.1"
   id="svg1"
   sodipodi:docname="plants_vs_zombies_hybrid.svg"
   inkscape:version="1.2.2 (b0a8486541, 2022-12-01)"
   xml:space="preserve"
   xmlns:inkscape="http://www.inkscape.org/namespaces/inkscape"
   xmlns:sodipodi="http://sodipodi.sourceforge.net/DTD/sodipodi-0.dtd"
   xmlns="http://www.w3.org/2000/svg"
   xmlns:svg="http://www.w3.org/2000/svg"><sodipodi:namedview
     id="namedview1"
     pagecolor="#505050"
     bordercolor="#eeeeee"
     borderopacity="1"
     inkscape:showpageshadow="0"
     inkscape:pageopacity="0"
     inkscape:pagecheckerboard="0"
     inkscape:deskcolor="#505050"
     inkscape:zoom="17.8125"
     inkscape:cx="26.329825"
     inkscape:cy="24.701754"
     inkscape:window-width="1918"
     inkscape:window-height="1053"
     inkscape:window-x="0"
     inkscape:window-y="0"
     inkscape:window-maximized="1"
     inkscape:current-layer="svg1"
     showgrid="false" /><defs
     id="defs1"><style
       id="style1">.a { fill:none;stroke:#fff;stroke-linecap:round;stroke-linejoin:round; }
</style></defs><g
     id="g2341"><path
       style="fill:none;stroke:#ffffff;stroke-linecap:round;stroke-linejoin:round;stroke-opacity:1;stop-color:#000000"
       d="m 20.197514,37.092815 c 0.311867,-2.040991 0.55712,-4.108923 1.505774,-5.892385 3.260701,0.770542 6.929259,1.844194 10.294978,3.209952 -0.132092,2.381725 -1.239017,4.459814 -2.347615,5.816154"
       id="path2261" /><path
       style="fill:none;stroke:#ffffff;stroke-linecap:round;stroke-linejoin:round;stroke-opacity:1;stop-color:#000000"
       d="m 23.2115,31.572604 0.395357,-1.809687 c 2.025593,0.417002 4.543187,1.141718 6.914035,2.135639 l -0.22192,1.857303"
       id="path2259" /></g><g
     id="g2337"><path
       style="fill:none;stroke:#ffffff;stroke-linecap:round;stroke-linejoin:round;stroke-opacity:1;stop-color:#000000"
       d="m 25.734962,30.11346 c -0.06,-1.014195 0.126421,-1.977226 0.708245,-2.671133 -1.021597,-1.056472 -0.943854,-1.268547 -0.0242,-2.261148 -0.126105,-1.508775 -0.255449,-3.001174 -0.299824,-4.923087 0.601648,-0.758911 1.468039,-1.330069 2.402023,-1.853287 l 0.04682,-1.643677"
       id="path2257" /><path
       style="fill:none;stroke:#ffffff;stroke-linecap:round;stroke-linejoin:round;stroke-opacity:1;stop-color:#000000"
       d="m 29.786802,20.060245 c 0.834126,3.372736 2.25175,4.147364 4.015711,3.221052 l 1.956667,-2.105881 -1.856291,-1.08771 c -0.611893,0.56658 -1.144547,0.963713 -1.661888,1.328103"
       id="path2255" /><path
       style="fill:none;stroke:#ffffff;stroke-linecap:round;stroke-linejoin:round;stroke-opacity:1;stop-color:#000000"
       d="m 33.983439,20.09617 c -0.239172,-0.943192 -1.776995,-0.226437 -2.04458,-1.400822 -0.434944,-1.908893 -1.293692,-2.554956 -3.384588,-1.47354"
       id="path2253" /><path
       style="fill:none;stroke:#ffffff;stroke-linecap:round;stroke-linejoin:round;stroke-opacity:1;stop-color:#000000"
       d="m 29.412358,31.377605 -0.04551,-1.265895 0.952127,-0.196321"
       id="path2251" /><path
       style="fill:none;stroke:#ffffff;stroke-linecap:round;stroke-linejoin:round;stroke-opacity:1;stop-color:#000000"
       d="m 30.789989,29.117686 0.331272,-0.418815 c 1.57535,-0.266435 2.813125,-0.427569 4.14235,-0.874249"
       id="path2249" /><path
       style="fill:none;stroke:#ffffff;stroke-linecap:round;stroke-linejoin:round;stroke-opacity:1;stop-color:#000000"
       d="m 36.442703,19.903143 c -0.349594,-2.775062 -0.528429,-4.467378 -0.0253,-6.786031 -0.860614,-0.426893 -1.845344,-0.674869 -2.837298,-0.686407 -0.841353,1.287731 -1.628118,2.472526 -3.875441,2.981639"
       id="path2247" /><path
       style="fill:none;stroke:#ffffff;stroke-linecap:round;stroke-linejoin:round;stroke-opacity:1;stop-color:#000000"
       d="m 36.185302,15.583867 c 1.77809,-0.687361 2.369697,-1.714132 3.257687,-0.70312"
       id="path2245" /><path
       style="fill:none;stroke:#ffffff;stroke-linecap:round;stroke-linejoin:round;stroke-opacity:1;stop-color:#000000"
       d="m 40.329054,15.673828 c -0.60779,1.749452 -0.953139,3.500917 -1.021684,6.321033 -0.02381,0.979417 -0.589638,0.957526 -1.555961,0.917552 -0.993588,0.35745 -1.781606,0.628944 -2.397592,0.801394"
       id="path2243" /><path
       style="fill:none;stroke:#ffffff;stroke-linecap:round;stroke-linejoin:round;stroke-opacity:1;stop-color:#000000"
       d="m 39.76426,18.455305 c 0.612701,0.316415 1.225402,0.4409 1.838102,0.405018 0.635244,0.547009 0.832962,1.355998 0.897633,2.231081 -1.046514,0.60704 -1.26921,1.07601 -2.452766,2.209744 0.108253,0.893937 -0.112139,1.706129 -0.935843,1.783247 -1.233575,0.115495 -2.836177,0.204147 -4.414102,-0.300999"
       id="path2241" /><path
       style="fill:none;stroke:#ffffff;stroke-linecap:round;stroke-linejoin:round;stroke-opacity:1;stop-color:#000000"
       d="m 38.303911,26.956674 c 0.704966,-0.251813 1.363802,-0.649088 1.778146,-1.168297 3.109301,-0.09743 1.981987,-2.623006 0.393532,-2.9388"
       id="path2239" /><path
       style="fill:none;stroke:#ffffff;stroke-linecap:round;stroke-linejoin:round;stroke-opacity:1;stop-color:#000000"
       d="m 33.675038,24.593387 c -0.853557,1.093917 -1.699034,1.71623 -2.539423,2.041451"
       id="path2215" /></g><g
     id="g2324"><g
       id="g2307"><path
         style="fill:none;stroke:#ffffff;stroke-linecap:round;stroke-linejoin:round;stroke-opacity:1;stop-color:#000000"
         d="M 34.735533,30.822483 36.0558,29.650594"
         id="path2237" /><path
         style="fill:none;stroke:#ffffff;stroke-linecap:round;stroke-linejoin:round;stroke-opacity:1;stop-color:#000000"
         d="m 36.16726,26.247845 c 1.070875,1.337767 1.193915,3.037794 1.639073,4.405073"
         id="path2235" /><path
         style="fill:none;stroke:#ffffff;stroke-linecap:round;stroke-linejoin:round;stroke-opacity:1;stop-color:#000000"
         d="m 38.578098,29.658026 0.641086,0.282868"
         id="path2233" /><path
         style="fill:none;stroke:#ffffff;stroke-linecap:round;stroke-linejoin:round;stroke-opacity:1;stop-color:#000000"
         d="m 35.465755,31.322597 c -0.421996,0.900385 -0.0058,1.394751 0.721593,1.630588 -0.0882,0.769607 0.409421,1.075122 1.059449,0.708025 0.04626,0.612697 0.335516,0.782896 0.827156,0.746893 0.34685,0.306194 0.719995,0.286817 0.70486,-0.17951 0.434303,-0.31727 0.488473,-0.604006 0.348954,-1.179999 0.468766,-0.06678 0.926949,-0.300421 0.81168,-1.147212 0.650121,-0.109434 0.385549,-1.165619 -0.05827,-1.146059"
         id="path2231" /></g><path
       style="fill:none;stroke:#ffffff;stroke-linecap:round;stroke-linejoin:round;stroke-opacity:1;stop-color:#000000"
       d="m 20.199313,16.148646 c 2.060703,-0.970931 4.30781,-2.183484 5.30127,-1.923434 0.610911,0.159913 1.279154,0.461789 1.981779,0.883832"
       id="path2213"
       sodipodi:nodetypes="csc" /><g
       id="g2301"><path
         style="fill:none;stroke:#ffffff;stroke-linecap:round;stroke-linejoin:round;stroke-opacity:1;stop-color:#000000"
         d="m 15.155771,18.440092 c 1.541339,0.02742 3.188712,-0.467592 4.858418,-1.262085 0.91308,-0.434469 1.910475,-0.19878 2.269265,0.85598 0.952228,2.799335 1.332354,7.06644 -0.600754,8.184973 -1.725235,0.998254 -4.965314,-1.517137 -6.152089,-3.704385"
         id="path2229" /><path
         style="fill:none;stroke:#ffffff;stroke-linecap:round;stroke-linejoin:round;stroke-opacity:1;stop-color:#000000"
         d="M 14.35206,17.598152 C 13.703308,16.488574 13.448593,15.125844 13.531686,14.017255"
         id="path2227" /><path
         style="fill:none;stroke:#ffffff;stroke-linecap:round;stroke-linejoin:round;stroke-opacity:1;stop-color:#000000"
         d="M 12.750306,16.914875 C 10.747571,14.50799 9.806499,10.760617 11.997521,8.3780822 c 0.737075,-0.8015006 1.401514,-0.731005 2.592508,-0.2244561 2.262137,0.9621232 4.477959,2.6147009 5.822979,4.9235899 1.226813,2.105972 -0.782536,3.344801 -2.021021,4.654302"
         id="path2225" /><path
         style="fill:none;stroke:#ffffff;stroke-linecap:round;stroke-linejoin:round;stroke-opacity:1;stop-color:#000000"
         d="m 8.5409,18.937978 c -0.856393,0.741497 -1.798197,1.513043 -1.781281,1.764597 0.24731,3.677749 4.416401,9.025673 6.257875,5.472254"
         id="path2223" /><path
         style="fill:none;stroke:#ffffff;stroke-linecap:round;stroke-linejoin:round;stroke-opacity:1;stop-color:#000000"
         d="M 10.850404,10.655841 C 10.411395,10.002238 9.726031,9.2800333 8.215209,10.459587 4.3679619,13.463274 4.1269479,20.632127 10.6783,18.572249"
         id="path2221" /><path
         style="fill:none;stroke:#ffffff;stroke-linecap:round;stroke-linejoin:round;stroke-opacity:1;stop-color:#000000"
         d="m 13.173071,22.605329 c -0.461379,2.940071 -0.258538,7.158292 2.16268,7.225665 1.915964,0.05331 4.858632,-1.138378 4.962747,-3.434976"
         id="path2219" /><path
         style="fill:none;stroke:#ffffff;stroke-linecap:round;stroke-linejoin:round;stroke-opacity:1;stop-color:#000000"
         d="m 11.609802,15.380435 c -2.157078,3.564184 -0.493315,8.643035 4.179993,7.05463"
         id="path2217" /><path
         style="fill:none;stroke:#ffffff;stroke-linecap:round;stroke-linejoin:round;stroke-opacity:1;stop-color:#000000"
         d="m 15.416319,18.530949 c 0.996904,1.302574 1.009805,2.423798 0.820628,3.650315"
         id="path1963" /></g></g></svg>
