<?xml version="1.0" encoding="UTF-8"?><svg id="a" xmlns="http://www.w3.org/2000/svg" viewBox="0 0 48 48"><defs><style>.d{fill:none;stroke:#fff;stroke-linecap:round;stroke-linejoin:round;}</style></defs><path class="d" d="m10.5 5.5a5 5 0 0 0-3.5352 1.4648 5 5 0 0 0 0 7.0703l27 27a5 5 0 0 0 7.0703 0 5 5 0 0 0 0-7.0703l-27-27a5 5 0 0 0-3.5352-1.4648z"/><path class="d" d="m24 16.932 9.9648-9.9648a5 5 0 0 1 3.5352-1.4648v0a5 5 0 0 1 3.5352 1.4648 5 5 0 0 1 0 7.0703l-9.9648 9.9648"/><path class="d" d="m24 31.072-9.9648 9.9648a5 5 0 0 1-7.0703 0 5 5 0 0 1 0-7.0703l9.9648-9.9648"/></svg>
