<svg xmlns="http://www.w3.org/2000/svg" xml:space="preserve" id="svg1" version="1.1" viewBox="0 0 48 48"><defs id="defs1"><style id="style1">.a{fill:none;stroke:#fff;stroke-linecap:round;stroke-linejoin:round}</style></defs><path id="circle3" d="M27.173 32.36A3.173 3.164 0 0 1 24 35.522a3.173 3.164 0 0 1-3.173-3.164A3.173 3.164 0 0 1 24 29.195a3.173 3.164 0 0 1 3.173 3.164zm2.996 0A6.169 6.15 0 0 1 24 38.51a6.169 6.15 0 0 1-6.169-6.15A6.169 6.15 0 0 1 24 26.208a6.169 6.15 0 0 1 6.169 6.15ZM14.46 7.971h19.08v14.28H14.46Zm1.37-3.472h16.337a3.523 3.523 0 0 1 3.536 3.525v31.95a3.523 3.523 0 0 1-3.536 3.525H15.832a3.523 3.523 0 0 1-3.536-3.525V8.025A3.523 3.523 0 0 1 15.832 4.5z" style="fill:none;stroke:#fff;stroke-width:1;stroke-linecap:round;stroke-linejoin:round;stroke-opacity:1"/></svg>