<?xml version="1.0" encoding="UTF-8" standalone="no"?>
<svg
   version="1.1"
   width="48"
   height="48"
   viewBox="0 0 48 48"
   id="svg1"
   sodipodi:docname="podcastguru_2.svg"
   inkscape:version="1.4.2 (f4327f4, 2025-05-13)"
   xml:space="preserve"
   inkscape:export-filename="..\Desktop\pocketpal.png"
   inkscape:export-xdpi="96"
   inkscape:export-ydpi="96"
   xmlns:inkscape="http://www.inkscape.org/namespaces/inkscape"
   xmlns:sodipodi="http://sodipodi.sourceforge.net/DTD/sodipodi-0.dtd"
   xmlns="http://www.w3.org/2000/svg"
   xmlns:svg="http://www.w3.org/2000/svg"><defs
     id="defs1" /><sodipodi:namedview
     id="namedview1"
     pagecolor="#ffffff"
     bordercolor="#000000"
     borderopacity="0.25"
     inkscape:showpageshadow="2"
     inkscape:pageopacity="0.0"
     inkscape:pagecheckerboard="0"
     inkscape:deskcolor="#d1d1d1"
     inkscape:document-units="px"
     inkscape:zoom="8"
     inkscape:cx="-0.75"
     inkscape:cy="12.8125"
     inkscape:window-width="2560"
     inkscape:window-height="1369"
     inkscape:window-x="-8"
     inkscape:window-y="-8"
     inkscape:window-maximized="1"
     inkscape:current-layer="svg1" /><path
     id="path6-7-2-4-2"
     style="fill:none;stroke:#ffffff;stroke-width:0.736047;stroke-linecap:round;stroke-linejoin:round;stroke-opacity:1"
     d="m 38.540362,38.8348 c 0.881096,-2.589858 1.155534,-5.442849 0.428799,-8.104568 2.513667,-1.518255 4.593834,-3.771967 5.832018,-6.440977 m -6.335858,14.560634 c -2.618842,0.895817 -5.505454,1.144215 -8.193609,0.403922 -1.601222,2.438518 -3.839038,4.497488 -6.512624,5.698584 C 21.091526,43.707738 18.811961,41.63285 17.352452,39.07371 14.690444,39.773457 11.851585,39.469384 9.2675442,38.598263 8.3462428,36.003349 8.076801,33.127344 8.8147195,30.452196 6.4345648,28.89413 4.4611836,26.692396 3.2592017,24.107325 4.4464496,21.482186 6.4602611,19.266503 8.8770608,17.714996 7.9747972,14.992278 8.3462596,12.025482 9.2193512,9.346631 11.981758,8.4108786 15.00583,8.4400441 17.830215,9.076806 19.24552,6.6442945 21.340569,4.5766706 23.909152,3.38922 26.532431,4.5682328 28.75909,6.5808107 30.25465,9.0319794 32.992125,7.9977412 36.037194,8.3950578 38.755712,9.277252 m 0.01509,0.075042 c 0.913946,2.666047 1.177527,5.631784 0.294009,8.342763 2.47057,1.595573 4.534851,3.85579 5.778761,6.530466 m -20.978105,8.24664 v 5.360779 m 7.452528,-15.710153 c 0.07002,2.764325 0.167198,5.93463 -2.006785,7.998747 -3.204939,3.479836 -9.615256,2.766385 -11.878176,-1.429916 -1.131196,-1.99256 -0.908168,-4.369074 -0.917445,-6.568831 M 28.16129,21.36328 c 0.0076,2.440062 0.515215,5.529034 -1.843694,7.127207 -2.419553,1.783228 -6.441862,0.161914 -6.704108,-2.911613 -0.232933,-1.398037 -0.03556,-2.817091 -0.03205,-4.226769 2.893755,0.0034 5.71685,0.0096 8.579852,0.01117 z m -8.606708,-2.514638 c -0.01462,-2.435205 -0.512007,-5.512863 1.839796,-7.103687 2.418696,-1.7824673 6.438956,-0.163292 6.703918,2.908461 0.232838,1.39342 0.03602,2.807923 0.03614,4.211112 -2.889857,-0.0053 -5.712952,-0.01148 -8.579852,-0.01589 z"
     sodipodi:nodetypes="ccccccccccccccccccccccccccccccccccc" /></svg>
