<?xml version="1.0" encoding="UTF-8" standalone="no"?>
<svg
   viewBox="0 0 48 48"
   version="1.1"
   id="svg1"
   sodipodi:docname="pokemoncaferemix.svg"
   inkscape:version="1.3.2 (091e20ef0f, 2023-11-25)"
   xml:space="preserve"
   xmlns:inkscape="http://www.inkscape.org/namespaces/inkscape"
   xmlns:sodipodi="http://sodipodi.sourceforge.net/DTD/sodipodi-0.dtd"
   xmlns="http://www.w3.org/2000/svg"
   xmlns:svg="http://www.w3.org/2000/svg"><sodipodi:namedview
     id="namedview1"
     pagecolor="#505050"
     bordercolor="#eeeeee"
     borderopacity="1"
     inkscape:showpageshadow="0"
     inkscape:pageopacity="0"
     inkscape:pagecheckerboard="0"
     inkscape:deskcolor="#505050"
     inkscape:zoom="25.190679"
     inkscape:cx="24.433641"
     inkscape:cy="25.58486"
     inkscape:window-width="1918"
     inkscape:window-height="1053"
     inkscape:window-x="0"
     inkscape:window-y="0"
     inkscape:window-maximized="1"
     inkscape:current-layer="svg1" /><defs
     id="defs1"><style
       id="style1">.a { fill:none;stroke:#fff;stroke-linecap:round;stroke-linejoin:round; }
</style></defs><g
     id="g26"><path
       style="fill:none;stroke:#ffffff;stroke-width:1;stroke-linecap:round;stroke-linejoin:round;stroke-dashoffset:0.7;stroke-opacity:1"
       d="M 15.966944,12.655356 C 13.156352,9.3530974 9.0512612,8.1633677 4.6669116,8.698567 4.0058599,14.975166 5.2036366,19.8249 10.37563,21.916598 c -0.03401,1.875409 0.07236,3.610286 0.169473,5.467429 -2.6937491,6.70964 4.176036,10.887818 9.037583,11.666815 2.046871,0.327983 2.601098,0.37245 4.417336,0.372448 1.816239,-2e-6 2.370451,-0.04447 4.417292,-0.372448 4.861547,-0.778997 11.731332,-4.957175 9.037583,-11.666815 0.09712,-1.857143 0.203485,-3.59202 0.169473,-5.467429 C 42.796363,19.8249 43.99414,14.975166 43.333088,8.698567 38.948739,8.1633677 34.843648,9.3530974 32.033056,12.655356 31.264169,11.182354 29.451699,9.8772653 29.35717,11.06754 l -0.08684,1.09351 C 28.826643,10.327598 25.995789,9.1602538 26.41299,10.812341 l 0.237922,0.942154 C 25.197534,9.7096048 22.379542,8.9714519 22.867065,10.300906 l 0.567928,1.548717 c -1.5289,-2.4606613 -3.638031,-1.9000739 -2.810248,-0.68258 l 0.50242,0.738954 C 19.001742,10.140361 16.614059,9.935662 17.144687,11.001723 l 0.930328,1.869082 c -0.705318,-1.196283 -3.48472,-1.749106 -2.108071,-0.215449 z"
       id="path17" /><path
       style="fill:none;stroke:#ffffff;stroke-width:1;stroke-linecap:round;stroke-linejoin:round;stroke-dashoffset:0.7;stroke-opacity:1"
       d="m 40.362813,11.912369 c 0.184898,3.395297 -0.972824,5.694402 -3.616761,6.780076 0.303766,-0.584862 0.328756,-0.921474 0.390863,-1.719836 -0.613431,-0.03573 -1.109614,0.01192 -1.589016,0.221456 0.230719,-0.553811 0.226944,-0.876567 0.256932,-1.554264 -0.710126,-0.06341 -1.034697,-0.06803 -1.552046,0 1.23585,-2.779708 3.543761,-3.544831 6.110028,-3.727432 z"
       id="path16" /><path
       style="fill:none;stroke:#ffffff;stroke-width:1;stroke-linecap:round;stroke-linejoin:round;stroke-dashoffset:0.7;stroke-opacity:1"
       d="m 7.6371872,11.912369 c -0.1848978,3.395297 0.9728243,5.694402 3.6167608,6.780076 -0.303766,-0.584862 -0.328756,-0.921474 -0.390863,-1.719836 0.613431,-0.03573 1.109614,0.01192 1.589016,0.221456 -0.230719,-0.553811 -0.226944,-0.876567 -0.256932,-1.554264 0.710126,-0.06341 1.034697,-0.06803 1.552046,0 -1.23585,-2.779708 -3.543761,-3.544831 -6.1100278,-3.727432 z"
       id="path15" /></g><g
     id="g25"><path
       style="fill:none;stroke:#ffffff;stroke-width:1;stroke-linecap:round;stroke-linejoin:round;stroke-dashoffset:0.7;stroke-opacity:1"
       d="M 15.578124,37.763105 C 11.29248,38.020067 7.874814,35.063731 6.7559051,30.507744 5.7673245,26.482428 6.6147599,20.986836 7.7594916,21.91281 c 1.1341281,0.917396 1.7817983,1.151873 2.6119634,1.311269"
       id="path14" /><path
       style="fill:none;stroke:#ffffff;stroke-width:1;stroke-linecap:round;stroke-linejoin:round;stroke-dashoffset:0.7;stroke-opacity:1"
       d="M 10.499032,26.43013 C 9.9885361,26.43273 9.4152779,26.122124 8.8960588,25.722972 9.805015,29.132433 7.5875005,29.155746 6.4366999,28.647495"
       id="path13" /></g><g
     id="g24"><g
       id="g22"><path
         style="fill:none;stroke:#ffffff;stroke-width:1;stroke-linecap:round;stroke-linejoin:round;stroke-dashoffset:0.7;stroke-opacity:1"
         d="m 34.159061,27.436211 c 0,1.515383 -1.228433,2.743844 -2.743781,2.743844 -1.515348,0 -2.743782,-1.228461 -2.743782,-2.743844 0,-1.515385 0.327904,-5.596243 2.743782,-5.596243 2.415877,0 2.743781,4.080858 2.743781,5.596243 z"
         id="path12" /><path
         style="fill:none;stroke:#ffffff;stroke-width:1;stroke-linecap:round;stroke-linejoin:round;stroke-dashoffset:0.7;stroke-opacity:1"
         d="m 32.309774,23.075136 a 0.89449441,1.1754872 0 0 1 -0.894495,1.175487 0.89449441,1.1754872 0 0 1 -0.894494,-1.175487 0.89449441,1.1754872 0 0 1 0.894494,-1.175487 0.89449441,1.1754872 0 0 1 0.894495,1.175487 z"
         id="path11" /><path
         style="fill:none;stroke:#ffffff;stroke-width:1;stroke-linecap:round;stroke-linejoin:round;stroke-dashoffset:0.7;stroke-opacity:1"
         d="m 28.752924,28.097669 c 0.362777,-0.40216 0.624525,-0.547752 0.877237,-0.735704 0.140341,0.635501 0.672816,1.132427 1.590525,1.132427 0.917709,0 1.450185,-0.496926 1.590525,-1.132427 0.313184,0.232927 0.640243,0.400796 1.156278,1.072572"
         id="path10" /></g><path
       style="fill:none;stroke:#ffffff;stroke-width:1;stroke-linecap:round;stroke-linejoin:round;stroke-dashoffset:0.7;stroke-opacity:1"
       d="m 28.090506,22.323734 c 0.210293,-0.730662 0.701537,-1.266506 1.304434,-1.539171"
       id="path9" /><g
       id="g21"><path
         style="fill:none;stroke:#ffffff;stroke-width:1;stroke-linecap:round;stroke-linejoin:round;stroke-dashoffset:0.7;stroke-opacity:1"
         d="m 13.840939,27.436211 c 0,1.515383 1.228433,2.743844 2.743781,2.743844 1.515348,0 2.743782,-1.228461 2.743782,-2.743844 0,-1.515385 -0.327904,-5.596243 -2.743782,-5.596243 -2.415877,0 -2.743781,4.080858 -2.743781,5.596243 z"
         id="path8" /><path
         style="fill:none;stroke:#ffffff;stroke-width:1;stroke-linecap:round;stroke-linejoin:round;stroke-dashoffset:0.7;stroke-opacity:1"
         d="m 15.690226,23.075136 a 0.89449441,1.1754872 0 0 0 0.894495,1.175487 0.89449441,1.1754872 0 0 0 0.894494,-1.175487 0.89449441,1.1754872 0 0 0 -0.894494,-1.175487 0.89449441,1.1754872 0 0 0 -0.894495,1.175487 z"
         id="path7" /><path
         style="fill:none;stroke:#ffffff;stroke-width:1;stroke-linecap:round;stroke-linejoin:round;stroke-dashoffset:0.7;stroke-opacity:1"
         d="m 19.247076,28.097669 c -0.362777,-0.40216 -0.624525,-0.547752 -0.877237,-0.735704 -0.140341,0.635501 -0.672816,1.132427 -1.590525,1.132427 -0.917709,0 -1.450185,-0.496926 -1.590525,-1.132427 -0.313184,0.232927 -0.640243,0.400796 -1.156278,1.072572"
         id="path6" /></g><path
       style="fill:none;stroke:#ffffff;stroke-width:1;stroke-linecap:round;stroke-linejoin:round;stroke-dashoffset:0.7;stroke-opacity:1"
       d="M 19.909494,22.323734 C 19.699201,21.593072 19.207957,21.057228 18.60506,20.784563"
       id="path4" /><path
       style="fill:none;stroke:#ffffff;stroke-width:1;stroke-linecap:round;stroke-linejoin:round;stroke-dashoffset:0.7;stroke-opacity:1"
       d="m 23.354107,29.50596 h 1.291786"
       id="path3" /><g
       id="g23"><path
         style="fill:none;stroke:#ffffff;stroke-width:1;stroke-linecap:round;stroke-linejoin:round;stroke-dashoffset:0.7;stroke-opacity:1"
         d="m 19.563046,31.607155 c 0.258575,0.4829 0.639299,0.70891 1.062014,0.798762 1.229934,0.261434 1.876637,-0.567536 3.312833,-0.567536 1.435633,0 2.083209,0.828903 3.312833,0.567536 0.422715,-0.08985 0.80344,-0.315862 1.062014,-0.798762"
         id="path2" /><path
         style="fill:none;stroke:#ffffff;stroke-width:1;stroke-linecap:round;stroke-linejoin:round;stroke-dashoffset:0.7;stroke-opacity:1"
         d="m 26.395966,32.47118 c 0.328049,1.956317 -0.681318,4.400857 -2.436463,4.400857 -1.755146,0 -2.764513,-2.44454 -2.436464,-4.400857"
         id="path5" /></g></g></svg>
