<?xml version="1.0" encoding="UTF-8" standalone="no"?>
<svg
   id="b"
   viewBox="0 0 48 48"
   version="1.1"
   sodipodi:docname="pokeinfo.svg"
   xml:space="preserve"
   inkscape:version="1.4.2 (ebf0e940d0, 2025-05-08)"
   xmlns:inkscape="http://www.inkscape.org/namespaces/inkscape"
   xmlns:sodipodi="http://sodipodi.sourceforge.net/DTD/sodipodi-0.dtd"
   xmlns="http://www.w3.org/2000/svg"
   xmlns:svg="http://www.w3.org/2000/svg"
   xmlns:rdf="http://www.w3.org/1999/02/22-rdf-syntax-ns#"
   xmlns:cc="http://creativecommons.org/ns#"
   xmlns:dc="http://purl.org/dc/elements/1.1/"><title
     id="title1">Pantip Logo</title><sodipodi:namedview
     id="namedview3"
     pagecolor="#505050"
     bordercolor="#ffffff"
     borderopacity="1"
     inkscape:showpageshadow="0"
     inkscape:pageopacity="0"
     inkscape:pagecheckerboard="1"
     inkscape:deskcolor="#505050"
     inkscape:zoom="5.5480411"
     inkscape:cx="36.04876"
     inkscape:cy="11.355359"
     inkscape:window-width="1366"
     inkscape:window-height="707"
     inkscape:window-x="0"
     inkscape:window-y="0"
     inkscape:window-maximized="1"
     inkscape:current-layer="b" /><defs
     id="defs1"><style
       id="style1">.e{fill:none;stroke:#fff;stroke-linecap:round;stroke-linejoin:round;}</style></defs><metadata
     id="metadata5"><rdf:RDF><cc:Work
         rdf:about=""><dc:title>Pantip Logo</dc:title><dc:contributor><cc:Agent><dc:title>RouEmpire</dc:title></cc:Agent></dc:contributor></cc:Work></rdf:RDF></metadata><path
     style="fill:none;stroke:#ffffff;stroke-width:1;stroke-opacity:1;stroke-dasharray:none"
     d="M 22.294494,42.132381 C 18.070584,41.731872 13.834598,39.694422 10.922411,36.662571 8.2799531,33.911531 6.5253825,30.360408 5.9890063,26.677718 5.9285033,26.262315 5.8790011,25.870032 5.8790011,25.805979 c 0,-0.10531 0.1703884,-0.114642 1.7796953,-0.09747 l 1.7796953,0.01899 0.2141554,0.639564 c 0.6474659,1.933624 2.1920859,3.60989 4.0323039,4.375975 1.047565,0.436103 1.779462,0.581667 2.924624,0.581667 1.145162,0 1.877058,-0.145564 2.924624,-0.581667 1.840198,-0.766076 3.384729,-2.442234 4.032338,-4.375975 l 0.214189,-0.639564 9.170187,-0.01803 c 8.425782,-0.01657 9.170186,-0.0087 9.170186,0.09747 0,0.286116 -0.236878,1.69771 -0.404041,2.407755 -0.764527,3.247399 -2.644305,6.547408 -5.040841,8.849355 -2.284857,2.194675 -5.193551,3.819619 -8.202554,4.582362 -1.445522,0.366421 -2.337853,0.472809 -4.153781,0.495236 -0.938028,0.01158 -1.849408,0.0074 -2.025288,-0.0093 z M 14.039588,26.696767 c -0.548915,-0.181224 -0.841019,-0.37404 -1.258271,-0.830579 -0.503766,-0.551202 -0.676624,-1.028757 -0.680395,-1.879734 -0.0041,-0.927854 0.170545,-1.36001 0.806791,-1.996256 0.627879,-0.627878 1.060305,-0.802644 1.996256,-0.806791 0.927854,-0.0041 1.36001,0.170546 1.996256,0.806791 0.630989,0.630989 0.80516,1.062817 0.80516,1.996256 0,0.933439 -0.174171,1.365267 -0.80516,1.996256 -0.349638,0.349638 -0.576518,0.509815 -0.894783,0.631716 -0.588386,0.225363 -1.426338,0.260461 -1.965854,0.08234 z m -8.1605869,-4.52288 c 0,-0.329365 0.2477721,-1.698969 0.4691521,-2.593323 C 8.0225286,12.816253 13.466697,7.5816948 20.304738,6.1613312 21.650661,5.8817627 22.228797,5.8299221 24,5.8299828 c 1.771015,6.06e-5 2.350509,0.052023 3.695262,0.3313484 6.838041,1.4203636 12.282209,6.6549218 13.956585,13.4192328 0.22138,0.894354 0.469152,2.263958 0.469152,2.593323 0,0.09482 -1.04759,0.107061 -9.162052,0.107061 h -9.16205 l -0.117731,-0.408611 c -0.303707,-1.054083 -0.954418,-2.145988 -1.799192,-3.019076 -2.477802,-2.560852 -6.438126,-2.971507 -9.400583,-0.974768 -0.627954,0.42325 -1.483275,1.268776 -1.91452,1.892593 -0.410168,0.593329 -0.8509401,1.496837 -1.0250874,2.101251 L 9.422053,22.280948 H 7.6505274 c -1.5307551,0 -1.7715263,-0.01455 -1.7715263,-0.107061 z"
     id="path1" /></svg>
