<?xml version="1.0" encoding="UTF-8" standalone="no"?>
<!-- Created with Inkscape (http://www.inkscape.org/) -->

<svg
   width="48mm"
   height="48mm"
   viewBox="0 0 48 48"
   version="1.1"
   id="svg1"
   xml:space="preserve"
   sodipodi:docname="poland.svg"
   inkscape:version="1.3.2 (091e20ef0f, 2023-11-25, custom)"
   xmlns:inkscape="http://www.inkscape.org/namespaces/inkscape"
   xmlns:sodipodi="http://sodipodi.sourceforge.net/DTD/sodipodi-0.dtd"
   xmlns="http://www.w3.org/2000/svg"
   xmlns:svg="http://www.w3.org/2000/svg"><sodipodi:namedview
     id="namedview1"
     pagecolor="#ffffff"
     bordercolor="#666666"
     borderopacity="1.0"
     inkscape:showpageshadow="2"
     inkscape:pageopacity="0.0"
     inkscape:pagecheckerboard="0"
     inkscape:deskcolor="#d1d1d1"
     inkscape:document-units="mm"
     inkscape:zoom="1.5921581"
     inkscape:cx="-76.311516"
     inkscape:cy="136.29299"
     inkscape:window-width="1920"
     inkscape:window-height="984"
     inkscape:window-x="0"
     inkscape:window-y="0"
     inkscape:window-maximized="1"
     inkscape:current-layer="layer1" /><defs
     id="defs1"><inkscape:path-effect
       effect="powerclip"
       id="path-effect15"
       is_visible="true"
       lpeversion="1"
       inverse="true"
       flatten="false"
       hide_clip="false"
       message="Use fill-rule evenodd on &lt;b&gt;fill and stroke&lt;/b&gt; dialogue if no flatten result after convert clip to paths." /><inkscape:path-effect
       effect="powerclip"
       id="path-effect4"
       is_visible="true"
       lpeversion="1"
       inverse="true"
       flatten="false"
       hide_clip="false"
       message="Use fill-rule evenodd on &lt;b&gt;fill and stroke&lt;/b&gt; dialogue if no flatten result after convert clip to paths." /><clipPath
       clipPathUnits="userSpaceOnUse"
       id="clipPath1"><rect
         style="fill:#666666;stroke-width:1.36155;stroke-linecap:round;stroke-linejoin:round"
         id="rect2"
         width="73.836891"
         height="46.147346"
         x="-4.522531"
         y="0.71468383" /></clipPath><clipPath
       clipPathUnits="userSpaceOnUse"
       id="clipPath4"><rect
         style="display:block;fill:none;stroke:#000000;stroke-width:0.261926;stroke-linecap:round;stroke-linejoin:round;stroke-dasharray:none;stroke-opacity:1"
         id="rect4"
         width="22.289133"
         height="6.2118998"
         x="12.630957"
         y="37.402103" /></clipPath><clipPath
       clipPathUnits="userSpaceOnUse"
       id="clipPath15"><path
         id="lpe_path-effect15"
         style="fill:none;stroke:#000000;stroke-width:0.29115;stroke-linecap:round;stroke-linejoin:round;stroke-dasharray:none;stroke-opacity:1"
         class="powerclip"
         d="M -0.32584062,-0.45090929 H 48.655953 V 48.530884 H -0.32584062 Z M 31.986902,33.574432 v 7.21849 h 8.842896 v -7.21849 z" /></clipPath></defs><g
     inkscape:label="Layer 1"
     inkscape:groupmode="layer"
     id="layer1"><path
       style="fill:none;stroke:#ffffff;stroke-width:0.264583px;stroke-linecap:round;stroke-linejoin:round;stroke-opacity:1"
       d="m 37.68556,7.463781 c 0.174732,-0.073893 0.204022,-0.366972 0.386911,-0.4174014 0.274596,-0.075716 0.558875,0.126651 0.820016,0.2404099 0.21502,0.093667 0.410948,0.2275483 0.60476,0.3596237 0.445398,0.3035209 1.003651,0.5269881 1.27751,0.9912138 0.3973,0.6734751 0.172069,1.5592 0.362215,2.31766 0.29767,1.187357 0.66793,2.369939 1.211653,3.466657 0.117605,0.237215 0.376432,0.405059 0.438134,0.662537 0.06472,0.270082 -0.103925,0.550216 -0.09467,0.82779 0.02154,0.646055 0.404595,1.263779 0.34819,1.907728 -0.02979,0.340107 -0.125225,0.708914 -0.356269,0.960267 -0.358672,0.3902 -1.063413,0.302415 -1.438953,0.676409 -0.237109,0.236133 -0.216543,0.649724 -0.430816,0.906758 -0.20624,0.247398 -0.642476,0.275585 -0.783885,0.564971 -0.130627,0.267321 -0.156726,0.662971 0.03323,0.89197 0.277451,0.334477 0.889466,0.08114 1.271415,0.288431 0.257031,0.139496 0.511687,0.343735 0.628999,0.611619 0.157645,0.359986 0.182988,0.816249 0.03079,1.178572 -0.05091,0.121194 -0.276548,0.137726 -0.288731,0.268613 -0.01417,0.152251 0.239879,0.219669 0.272423,0.369075 0.09318,0.427787 -0.314723,0.849928 -0.269832,1.285438 0.04961,0.481322 0.375351,0.892303 0.58174,1.329952 0.181848,0.385609 0.323587,0.79887 0.578081,1.140917 0.172698,0.23211 0.474189,0.353703 0.628846,0.598204 0.263449,0.416493 0.194015,0.990757 0.461764,1.404499 0.163296,0.252335 0.738927,0.316216 0.666043,0.607809 -0.05587,0.223511 -0.568869,-0.03626 -0.669702,0.170893 -0.298511,0.613259 0.881816,1.192841 0.824893,1.872513 -0.03128,0.373425 -0.321833,0.709521 -0.618022,0.939077 -0.264196,0.20476 -0.678439,0.128155 -0.948681,0.324866 -0.184147,0.134043 -0.274706,0.363405 -0.409321,0.547134 -0.293197,0.400168 -0.537679,0.83872 -0.867579,1.209213 -0.369762,0.415259 -0.867797,0.703992 -1.23391,1.122472 -0.420834,0.481027 -0.718407,1.057434 -1.090305,1.577222 -0.183833,0.256936 -0.395214,0.494657 -0.563904,0.76178 -0.194431,0.307884 -0.531285,0.60053 -0.513443,0.96423 0.01033,0.21066 0.272519,0.33079 0.35063,0.526707 0.0631,0.158277 0.0802,0.333437 0.0872,0.503686 0.01353,0.328844 -0.219808,0.681881 -0.08796,0.983439 0.138416,0.316582 0.627725,0.346607 0.820622,0.633267 0.09811,0.145799 0.264442,0.382711 0.141167,0.507955 -0.458877,0.466206 -1.251853,-0.399205 -1.898887,-0.495454 -0.300813,-0.04475 -0.62974,0.07754 -0.911636,-0.03659 -0.282046,-0.114191 -0.465252,-0.393365 -0.680678,-0.608263 -0.361832,-0.360945 -0.557687,-0.932584 -1.024447,-1.140765 -0.116533,-0.05197 -0.257002,0.02138 -0.382796,0 -0.372238,-0.06327 -0.694716,-0.325376 -1.069115,-0.374259 -0.664224,-0.08672 -1.404668,-0.145221 -2.003617,0.154735 -0.305437,0.152964 -0.338483,0.71332 -0.67519,0.770927 -0.451297,0.07721 -0.749837,-0.57538 -1.197018,-0.673666 -0.461355,-0.101401 -0.977912,-0.0718 -1.412579,0.113116 -0.358885,0.152679 -0.634782,0.469124 -0.876116,0.775501 -0.13027,0.165379 -0.116322,0.448433 -0.296206,0.557805 -0.379987,0.231037 -1.045159,0.351343 -1.334068,0.01326 -0.282299,-0.330347 0.384267,-0.884945 0.216018,-1.285587 -0.15354,-0.365615 -0.714163,-0.382573 -0.975664,-0.680678 -0.128012,-0.14593 -0.171089,-0.348839 -0.268155,-0.516949 -0.09445,-0.163582 -0.119288,-0.444047 -0.3052,-0.477466 -0.389062,-0.06994 -0.67076,0.431165 -0.946699,0.714217 -0.189753,0.194645 -0.248674,0.511863 -0.474417,0.663299 -0.219836,0.147474 -0.574431,0.357644 -0.772909,0.182479 -0.132089,-0.116574 0.129202,-0.364986 0.05656,-0.525486 -0.09418,-0.208087 -0.430492,-0.20656 -0.560246,-0.394534 -0.180898,-0.262066 -0.03371,-0.680555 -0.237361,-0.925357 -0.171153,-0.205734 -0.622403,-0.09194 -0.728394,-0.337671 -0.120858,-0.280204 0.390815,-0.580333 0.289955,-0.868341 -0.159312,-0.454918 -0.731737,-0.796433 -1.213635,-0.786172 -0.159194,0.0034 -0.232122,0.300731 -0.389503,0.27654 -0.218907,-0.03365 -0.247094,-0.370571 -0.401242,-0.529603 -0.17919,-0.184867 -0.343723,-0.471322 -0.600796,-0.485393 -0.304089,-0.01665 -0.470672,0.55391 -0.769098,0.493168 -0.294709,-0.05998 -0.24737,-0.596338 -0.508717,-0.745164 -0.31504,-0.179402 -0.992883,0.28147 -1.085426,-0.06906 -0.103683,-0.392726 0.798941,-0.326429 1.019416,-0.667566 0.115019,-0.177967 0.236754,-0.46684 0.09909,-0.627931 -0.226668,-0.265242 -0.700705,0.04491 -1.046704,0 -0.432859,-0.05619 -0.887709,-0.116688 -1.266076,-0.334318 -0.412548,-0.23729 -0.536708,-0.952949 -1.009203,-1.009965 -0.200662,-0.02421 -0.450154,0.124377 -0.518321,0.314652 -0.109202,0.304818 0.315416,0.592933 0.321359,0.916667 0.0029,0.158614 -0.03494,0.336499 -0.140861,0.454598 -0.307677,0.343046 -0.850668,0.744497 -1.268364,0.549879 -0.234792,-0.109397 -0.07139,-0.533936 -0.221963,-0.744706 -0.381622,-0.534201 -1.551559,-0.489637 -1.603139,-1.144119 -0.03999,-0.507424 1.030798,-0.56509 1.088628,-1.070792 0.02845,-0.248759 -0.166375,-0.551509 -0.402766,-0.634029 -0.373958,-0.130541 -0.757174,0.540606 -1.122929,0.388589 -0.189934,-0.07894 -0.09597,-0.443401 -0.268307,-0.555671 C 9.8993168,32.031045 9.6273576,32.237279 9.4608161,32.121254 9.2376619,31.965788 9.357041,31.545028 9.1524148,31.365876 8.8470706,31.098544 8.3758471,30.999857 7.9743003,31.058694 7.7764995,31.087677 7.6518078,31.432204 7.4617717,31.370144 6.9156917,31.191811 7.254119,30.131636 6.8010642,29.77844 6.6361831,29.649901 6.367073,29.591981 6.1806331,29.686577 5.8902027,29.833935 6.003915,30.382304 5.7253656,30.551048 c -0.139197,0.08432 -0.4020726,0.139666 -0.4882373,0.0016 -0.2507224,-0.401744 0.492618,-0.820469 0.6284066,-1.274145 0.13227,-0.44192 0.1506799,-0.91247 0.1704073,-1.373338 0.017404,-0.40658 0.1636424,-0.871334 -0.046252,-1.219981 C 5.7943869,26.360774 5.263684,26.393971 5.0066215,26.115935 4.9264565,26.029225 4.8459583,25.914245 4.8536411,25.796409 4.8702871,25.541106 5.3084534,25.406284 5.2721706,25.153025 5.2366796,24.905293 4.8070223,24.89135 4.7025447,24.66394 c -0.052841,-0.115016 0.017615,-0.254378 0,-0.37972 C 4.6846294,24.156739 4.5847134,24.041208 4.596099,23.912979 4.6235184,23.60417 4.8695388,23.356481 5.0059621,23.078087 5.1059589,22.874027 5.308852,22.692914 5.3055173,22.465694 5.3017525,22.209167 4.9363334,22.040861 4.9471814,21.784536 4.9548638,21.603009 5.2770432,21.50335 5.2408021,21.325312 5.1947217,21.098937 4.7914285,21.129674 4.6689154,20.933818 4.5476385,20.739938 4.5337646,20.481294 4.5681216,20.255203 4.6063174,20.003851 4.8138492,19.807581 4.8992338,19.56811 4.9657307,19.381612 5.0839198,19.183191 5.0380842,18.990571 4.9185013,18.488034 4.4028557,18.172121 4.0359872,17.808458 3.8466891,17.620814 3.5475206,17.531645 3.4215222,17.296765 3.2399038,16.958201 3.1412864,16.502197 3.2968959,16.150919 c 0.1098926,-0.248075 0.4958586,-0.261325 0.6584563,-0.478534 0.1780601,-0.237865 0.207781,-0.55694 0.2996494,-0.839509 0.06456,-0.198572 0.1452196,-0.394566 0.1766246,-0.600994 0.044838,-0.294727 0.064867,-0.60042 0.014412,-0.894238 C 4.3934987,13.03168 4.1378096,12.774789 4.121238,12.464789 4.1098101,12.25101 4.3440069,12.046633 4.2797762,11.842411 4.2485562,11.743147 4.0736564,11.738039 4.043429,11.638468 3.9654956,11.381751 4.2352999,11.129993 4.2576392,10.862639 4.2902683,10.472138 3.8746521,9.9841837 4.1371577,9.6932431 c 0.1018916,-0.1129287 0.3062791,0.025048 0.4563037,0 C 5.0017886,9.6250694 5.3767836,9.4250581 5.7680381,9.2897855 6.3510699,9.0882077 6.9197092,8.8399639 7.5159146,8.6815377 8.0690627,8.5345529 8.6410389,8.47081 9.2037859,8.3664395 9.7602598,8.2632324 10.340368,8.2485454 10.873571,8.0587831 c 0.476358,-0.1695318 0.95212,-0.3934419 1.330006,-0.7293887 0.255859,-0.2274627 0.374557,-0.5753292 0.595908,-0.8364939 0.212924,-0.2512226 0.419091,-0.5251797 0.69981,-0.6973608 0.257476,-0.1579248 0.559111,-0.2892318 0.86108,-0.2822224 0.175866,0.00408 0.317858,0.1999901 0.493324,0.1874575 0.779482,-0.055674 1.28729,-0.9697354 2.050917,-1.1357665 0.433228,-0.094194 0.883974,0.1366302 1.32605,0.1030545 0.51299,-0.038962 0.988982,-0.3303581 1.503051,-0.3506115 0.363702,-0.014329 0.731751,0.056532 1.079624,0.163625 0.351248,0.1081315 0.700562,0.2555594 0.994278,0.4764624 0.232856,0.1751302 0.526286,0.3664555 0.58159,0.6525217 0.02297,0.1187976 -0.0055,0.3131577 -0.12312,0.3414741 -0.409893,0.098665 -0.54304,-0.6825058 -0.92344,-0.8642827 -0.142898,-0.068285 -0.36599,-0.1849128 -0.470528,-0.06594 -0.309779,0.3525542 0.241227,0.9072068 0.373126,1.357607 0.07128,0.2434092 0.0678,0.5283031 0.225985,0.7265627 0.228231,0.2860516 0.591628,0.4753012 0.949722,0.5506918 0.627415,0.1320916 1.284418,-0.079717 1.911784,-0.2120436 0.364205,-0.07682 0.695518,-0.2907638 1.065022,-0.3356338 0.05884,-0.00715 0.154794,-0.043463 0.177473,0.011304 0.108033,0.2608854 -0.310099,0.5039698 -0.559829,0.6357542 -0.265162,0.1399276 -0.624922,-0.025048 -0.892732,0.1097427 -0.102904,0.051792 -0.263595,0.1380067 -0.238231,0.2503829 0.0466,0.2064461 0.381241,0.2215371 0.592799,0.2273983 0.235889,0.00654 0.459709,-0.1177431 0.674,-0.2165653 0.278739,-0.1285434 0.54912,-0.2856509 0.783459,-0.4839041 0.157608,-0.1333385 0.28244,-0.3020521 0.408262,-0.4657236 0.09567,-0.1244556 0.118981,-0.3272703 0.26242,-0.3910522 1.038411,-0.4617422 2.253712,0.2980482 3.374557,0.4856886 0.923125,0.1545401 1.823982,0.4668332 2.758018,0.5269852 0.471553,0.030368 0.942716,-0.070787 1.415025,-0.085253 0.636926,-0.019508 1.282733,0.1003925 1.911672,-0.00203 0.277159,-0.045135 0.521501,-0.2246603 0.799185,-0.2664416 0.270931,-0.040765 0.569378,0.1257137 0.821722,0.018999 z"
       id="path16"
       sodipodi:nodetypes="ssssssssssssssssssssssssssssssssssssssssssssssssssssssssssssssssssssssssssssssssssssssssssssssssssssssssssssssssssssssssssssssssssssssssssssssssssssssssssssssssssss" /></g></svg>
