<?xml version="1.0" encoding="UTF-8" standalone="no"?>
<svg
   viewBox="0 0 48 48"
   version="1.1"
   id="svg1"
   sodipodi:docname="pony_town.svg"
   inkscape:version="1.2.2 (b0a8486541, 2022-12-01)"
   xml:space="preserve"
   xmlns:inkscape="http://www.inkscape.org/namespaces/inkscape"
   xmlns:sodipodi="http://sodipodi.sourceforge.net/DTD/sodipodi-0.dtd"
   xmlns="http://www.w3.org/2000/svg"
   xmlns:svg="http://www.w3.org/2000/svg"><sodipodi:namedview
     id="namedview1"
     pagecolor="#505050"
     bordercolor="#eeeeee"
     borderopacity="1"
     inkscape:showpageshadow="0"
     inkscape:pageopacity="0"
     inkscape:pagecheckerboard="0"
     inkscape:deskcolor="#505050"
     inkscape:zoom="12.59534"
     inkscape:cx="6.8279223"
     inkscape:cy="24.453489"
     inkscape:window-width="1918"
     inkscape:window-height="1053"
     inkscape:window-x="0"
     inkscape:window-y="0"
     inkscape:window-maximized="1"
     inkscape:current-layer="svg1"
     showgrid="false" /><defs
     id="defs1"><style
       id="style1">.a { fill:none;stroke:#fff;stroke-linecap:round;stroke-linejoin:round; }
</style></defs><path
     style="fill:none;stroke:#ffffff;stroke-width:1;stroke-linecap:round;stroke-linejoin:round;stroke-dasharray:none;stroke-opacity:1;stop-color:#000000"
     d="m 9.5,5.5 h 29 c 2.216,0 4,1.784 4,4 v 29 c 0,2.216 -1.784,4 -4,4 h -29 c -2.216,0 -4,-1.784 -4,-4 v -29 c 0,-2.216 1.784,-4 4,-4 z"
     id="path2044" /><g
     id="g2093"><path
       style="fill:none;stroke:#ffffff;stroke-width:1;stroke-linecap:round;stroke-linejoin:round;stroke-dasharray:none;stroke-opacity:1;stop-color:#000000"
       d="m 5.8222659,19.67383 8.2714841,-2e-6 2.580078,2.802734 c 0.144564,0.157091 0.587891,-0.03847 0.587891,-0.251953 v -3.298828 c 1.423152,-0.879456 2.371093,-2.449246 2.371093,-4.251953 V 5.8222654"
       id="path2042" /><g
       id="g2087"><path
         style="fill:none;stroke:#ffffff;stroke-width:1;stroke-linecap:round;stroke-linejoin:round;stroke-dasharray:none;stroke-opacity:1;stop-color:#000000"
         d="m 8.8626318,8.9756756 h 5.8003162 c 0.553999,0 1,0.4460006 1,1 v 4.8072234 c 0,0.553999 -0.446001,1 -1,1 H 11.76279 c -1.653331,0 -3.9001582,-0.81245 -3.9001582,-3.403612 V 9.9756756 c 0,-0.5539994 0.4460006,-1 1,-1 v 0"
         id="path2040" /><path
         style="fill:none;stroke:#ffffff;stroke-width:1;stroke-linecap:round;stroke-linejoin:round;stroke-dasharray:none;stroke-opacity:1;stop-color:#000000"
         d="m 11.034093,6.7450328 h 1.309534 V 10.0348"
         id="path2038" /></g></g><g
     id="g2144"><g
       id="g2083"><path
         style="fill:none;stroke:#ffffff;stroke-width:1;stroke-linecap:round;stroke-linejoin:round;stroke-dasharray:none;stroke-opacity:1;stop-color:#000000"
         d="m 36.575973,15.529399 -5.163244,-5.528467 v 2.571495"
         id="path2032" /><path
         style="fill:none;stroke:#ffffff;stroke-width:1;stroke-linecap:round;stroke-linejoin:round;stroke-dasharray:none;stroke-opacity:1;stop-color:#000000"
         d="M 32.510945,13.916539 C 30.980624,12.033328 28.873451,10.184 26.582081,10.184 h -4.922108 c -0.659407,0 -1.256879,0.246155 -1.790146,0.572928"
         id="path2030" /><path
         style="fill:none;stroke:#ffffff;stroke-width:1;stroke-linecap:round;stroke-linejoin:round;stroke-dasharray:none;stroke-opacity:1;stop-color:#000000"
         d="m 13.672367,19.642357 c 0.107892,3.248301 -0.275439,6.489335 -2.404156,8.365643 h 1.185549 c 1.741715,0 2.40137,-1.231961 3.280952,-2.159088 v 2.900711 c 0,3.953461 1.089731,5.737366 1.089731,7.230793 v 0.963437 c 1.48896,-1.48896 2.353435,-1.885091 2.353435,-3.192645 v -1.226966"
         id="path2028" /><path
         style="fill:none;stroke:#ffffff;stroke-width:1;stroke-linecap:round;stroke-linejoin:round;stroke-dasharray:none;stroke-opacity:1;stop-color:#000000"
         d="m 20.149038,21.265939 c 0,0 0.757978,-1.100991 2.266901,-1.100991 h 2.263413 c 2.203925,0 3.385518,1.181196 3.385518,1.181196"
         id="path2026" /><path
         style="fill:none;stroke:#ffffff;stroke-width:1;stroke-linecap:round;stroke-linejoin:round;stroke-dasharray:none;stroke-opacity:1;stop-color:#000000"
         d="m 29.170417,20.221769 c 0,0 0.640811,-1.247521 2.080822,-1.247521 h 1.671664 c 1.244539,0 1.894275,1.197587 1.894275,1.197587"
         id="path2024" /><path
         style="fill:none;stroke:#ffffff;stroke-width:1;stroke-linecap:round;stroke-linejoin:round;stroke-dasharray:none;stroke-opacity:1;stop-color:#000000"
         d="m 27.65802,18.334522 c 0,0 -1.692871,-2.450767 -5.088074,-2.450767 h -2.920105"
         id="path2022" /><path
         style="fill:none;stroke:#ffffff;stroke-width:1;stroke-linecap:round;stroke-linejoin:round;stroke-dasharray:none;stroke-opacity:1;stop-color:#000000"
         d="m 20.178143,34.663838 v 3.532057 c 0,2.231416 -3.079151,3.711032 -3.079151,3.711032 h 2.913337 c 2.384873,0 3.62923,-4.057287 3.62923,-4.057287 v 4.327824"
         id="path2020" /><path
         style="fill:none;stroke:#ffffff;stroke-width:1;stroke-linecap:round;stroke-linejoin:round;stroke-dasharray:none;stroke-opacity:1;stop-color:#000000"
         d="m 41.496546,23.472814 v 2.938128 c 0,3.185395 -3.584911,7.278691 -3.584911,7.278691"
         id="path2012" /></g><g
       id="g2117"><path
         style="fill:none;stroke:#ffffff;stroke-width:1;stroke-linecap:round;stroke-linejoin:round;stroke-dasharray:none;stroke-opacity:1;stop-color:#000000"
         d="m 27.915281,40.318611 c 0.305399,-0.772548 0.285094,-1.696286 1.186282,-2.216587 l 4.222853,-2.438065 c 1.607358,-0.928008 1.787646,-2.07541 3.726375,-2.07541 h 0.590628 l 2.854022,2.247668 c -0.636748,0.873082 -1.188217,1.76443 -2.494201,2.494202 h -3.93757 c -2.398852,0.902102 -4.042796,2.115212 -6.148389,1.988192 v 0"
         id="path2018" /><path
         style="fill:none;stroke:#ffffff;stroke-width:1;stroke-linecap:round;stroke-linejoin:round;stroke-dasharray:none;stroke-opacity:1;stop-color:#000000"
         d="m 27.853165,36.121956 c -0.529945,0.276058 -2.114323,1.221874 -2.114323,2.662715 v 3.392276"
         id="path2010" /><path
         style="fill:none;stroke:#ffffff;stroke-width:1;stroke-linecap:round;stroke-linejoin:round;stroke-dasharray:none;stroke-opacity:1;stop-color:#000000"
         d="M 28.611381,38.415463 27.203225,36.728101"
         id="path2008" /><path
         style="fill:none;stroke:#ffffff;stroke-width:1;stroke-linecap:round;stroke-linejoin:round;stroke-dasharray:none;stroke-opacity:1;stop-color:#000000"
         d="M 27.916236,40.254585 25.849892,38.870874"
         id="path2006" /><path
         style="fill:none;stroke:#ffffff;stroke-width:1;stroke-linecap:round;stroke-linejoin:round;stroke-dasharray:none;stroke-opacity:1;stop-color:#000000"
         d="m 38.514719,38.202632 c 0.260705,0.320758 0.744073,1.062194 0.744073,2.150322 v 1.688001"
         id="path2004" /><path
         style="fill:none;stroke:#ffffff;stroke-width:1;stroke-linecap:round;stroke-linejoin:round;stroke-dasharray:none;stroke-opacity:1;stop-color:#000000"
         d="M 39.965563,36.951539 H 42.17766"
         id="path2002" /><path
         style="fill:none;stroke:#ffffff;stroke-width:1;stroke-linecap:round;stroke-linejoin:round;stroke-dasharray:none;stroke-opacity:1;stop-color:#000000"
         d="m 30.245099,39.113329 v 2.301419"
         id="path2000" /><path
         style="fill:none;stroke:#ffffff;stroke-width:1;stroke-linecap:round;stroke-linejoin:round;stroke-dasharray:none;stroke-opacity:1;stop-color:#000000"
         d="m 26.840554,39.113329 v 2.301419"
         id="path1998" /></g><g
       id="g2107"><g
         id="g2099"><path
           style="fill:none;stroke:#ffffff;stroke-width:1;stroke-linecap:round;stroke-linejoin:round;stroke-dasharray:none;stroke-opacity:1;stop-color:#000000"
           d="M 35.782113,21.511539 V 16.72284 c 0,-0.545963 0.612202,-1.158164 1.158165,-1.158164 h 1.678796 c 1.409582,0 2.87863,1.688128 2.87863,3.097711 v 4.381947 c 0,1.297582 -1.762503,2.79267 -2.634142,2.79267 -1.27016,0 -1.922776,0.01956 -1.922776,1.282133 v 1.690502 c 0,1.600765 -0.93611,3.391969 -2.169963,5.441914"
           id="path2036" /><path
           style="fill:none;stroke:#ffffff;stroke-width:1;stroke-linecap:round;stroke-linejoin:round;stroke-dasharray:none;stroke-opacity:1;stop-color:#000000"
           d="m 38.156731,17.762959 v 3.71588"
           id="path2034" /><path
           style="fill:none;stroke:#ffffff;stroke-width:1;stroke-linecap:round;stroke-linejoin:round;stroke-dasharray:none;stroke-opacity:1;stop-color:#000000"
           d="m 21.28085,27.882143 v 2.401903 c 0,2.264537 4.011504,4.713742 5.873707,4.713742 h 1.817983 c 1.786188,0 2.451716,-1.513319 2.451716,-1.513319"
           id="path2016" /><path
           style="fill:none;stroke:#ffffff;stroke-width:1;stroke-linecap:round;stroke-linejoin:round;stroke-dasharray:none;stroke-opacity:1;stop-color:#000000"
           d="m 27.96901,35.116581 -1e-6,2.164609"
           id="path2014" /></g><path
         style="fill:none;stroke:#ffffff;stroke-width:1;stroke-linecap:round;stroke-linejoin:round;stroke-dasharray:none;stroke-opacity:1;stop-color:#000000"
         d="M 26.411424,31.779545 V 32.868 h 1.438499 c 0.699094,0 1.634077,-0.377239 1.634077,-1.150867 v -1.22889 c -0.59395,0.597667 -1.260905,0.895966 -2.001088,0.895966 H 26.79498 c -1.686681,0 -2.07298,-0.851736 -2.07298,-2.081643 V 27.943 h 3.32482"
         id="path1574" /></g></g></svg>
