<?xml version="1.0" encoding="UTF-8" standalone="no"?>
<svg
   id="Layer_1"
   data-name="Layer 1"
   version="1.1"
   viewBox="0 0 48 48"
   xmlns="http://www.w3.org/2000/svg"
   xmlns:svg="http://www.w3.org/2000/svg">
  <defs
     id="defs1">
    <style
       id="style1">
      .cls-1 {
        fill: none;
        stroke: #fff;
        stroke-linecap: round;
        stroke-linejoin: round;
      }
    </style>
  </defs>
  <rect
     class="cls-1"
     x="5.5"
     y="5.5"
     width="37"
     height="37"
     rx="4"
     ry="4"
     id="rect1" />
  <g
     id="g1"
     transform="matrix(1.4745298,0,0,1.4745298,-4.0129415,-3.2787998)"
     style="stroke-width:0.678183">
    <path
       class="r"
       d="m 10.50001,17.800004 c 0,1.104568 0.89542,1.999998 1.99999,1.999998 h 10e-6 c 1.10457,0 2,-0.89543 2,-1.999998 V 16.5 c 0,-1.104568 -0.89543,-1.999998 -2,-1.999998 H 12.5 c -1.10457,0 -1.99999,0.89543 -1.99999,1.999998"
       id="path90"
       style="fill:none;stroke:#ffffff;stroke-width:0.678183;stroke-linecap:round;stroke-linejoin:round" />
    <line
       class="r"
       x1="10.500001"
       y1="14.5"
       x2="10.500001"
       y2="22.5"
       id="line90"
       style="fill:none;stroke:#ffffff;stroke-width:0.678183;stroke-linecap:round;stroke-linejoin:round" />
  </g>
  <path
     class="r"
     d="m 20.90329,21.050953 c 0,-1.628726 1.320339,-2.949074 2.949062,-2.949074 1.628724,0 2.949063,1.320348 2.949063,2.949074 v 1.916885 c 0,1.628723 -1.320339,2.949063 -2.949063,2.949063 -1.628723,0 -2.949062,-1.32034 -2.949062,-2.949063 z"
     id="path306"
     style="fill:none;stroke:#ffffff;stroke-width:1;stroke-linecap:round;stroke-linejoin:round" />
  <g
     id="g2"
     transform="matrix(1.4745298,0,0,1.4745298,15.14968,-3.2787998)"
     style="stroke-width:0.678183">
    <path
       class="r"
       d="m 10.50001,17.800004 c 0,1.104568 0.89542,1.999998 1.99999,1.999998 h 10e-6 c 1.10457,0 2,-0.89543 2,-1.999998 V 16.5 c 0,-1.104568 -0.89543,-1.999998 -2,-1.999998 H 12.5 c -1.10457,0 -1.99999,0.89543 -1.99999,1.999998"
       id="path90-1"
       style="fill:none;stroke:#ffffff;stroke-width:0.678183;stroke-linecap:round;stroke-linejoin:round" />
    <line
       class="r"
       x1="10.500001"
       y1="14.5"
       x2="10.500001"
       y2="22.5"
       id="line90-5"
       style="fill:none;stroke:#ffffff;stroke-width:0.678183;stroke-linecap:round;stroke-linejoin:round" />
  </g>
</svg>
