<?xml version="1.0" encoding="UTF-8"?><svg id="a" xmlns="http://www.w3.org/2000/svg" viewBox="0 0 48 48"><defs><style>.d{fill:none;stroke:#fff;stroke-linecap:round;stroke-linejoin:round;}</style></defs><path class="d" d="m27.121 24.207v-16.94c0-0.97838 0.79145-1.766 1.7746-1.766h11.83c0.9831 0 1.7746 0.78765 1.7746 1.766v23.547c0 0.97838-0.79145 1.766-1.7746 1.766h-8.3893" style=""/><path class="d" d="m18.436 25.185c-2.7944 0-5.3288 0.43705-7.292 1.2215-0.98161 0.39223-1.8266 0.86719-2.4997 1.5031-0.67314 0.63591-1.2004 1.5158-1.1883 1.8927l-1.9331 11.009c-0.16064 0.8791 0.51492 1.6889 1.4095 1.6896h23.007c0.89457-6.89e-4 1.5701-0.81049 1.4095-1.6896l-1.9331-11.009c0.01213-0.37688-0.51513-1.2568-1.1883-1.8927-0.67314-0.63591-1.5181-1.1109-2.4997-1.5031-1.9632-0.78445-4.4976-1.2215-7.292-1.2215z"/><path class="d" d="m24.171 15.19c0 3.164-2.5677 7.1737-5.735 7.1737-3.1674 1e-6 -5.735-4.0097-5.735-7.1737s2.5677-5.7289 5.735-5.7289c3.1674 0 5.735 2.5649 5.735 5.7289z"/><path class="d" d="m37.358 15.857c0 1.4215-1.1408 3.2228-2.5481 3.2228s-2.5481-1.8014-2.5481-3.2228c0-1.4215 1.1408-2.5738 2.5481-2.5738s2.5481 1.1523 2.5481 2.5738z"/><path class="d" d="m12.503 31.491-1.9331 11.009"/><path class="d" d="m24.37 31.491 1.9331 11.009"/><path class="d" d="m40.725 10.209h-11.83v15.111"/><path class="d" d="m28.895 21.424c3.9962-0.87478 7.8311-0.93991 11.83 0"/><path class="d" d="m40.725 12.186 1e-6 15.683-9.4265 1e-6"/><path class="d" d="m32.965 7.8547h3.69"/></svg>
