<svg xmlns="http://www.w3.org/2000/svg" id="a" viewBox="0 0 48 48"><defs><style>.a{fill:none;stroke:#fff;stroke-linecap:round;stroke-linejoin:round}</style></defs><path d="M32.1434 40.8814H9.1186c-1.108 0-2-.892-2-2V9.1186c0-1.108.892-2 2-2h29.7628c1.108 0 2 .892 2 2v29.7628c0 1.108-.892 2-2 2" class="a"/><path d="m21.5354 19.3638 2.1759 8.1204h-7.4485M23.7115 27.4835l7.2777-7.2505 1.9018 7.0987-2.7567-10.2869s2.367-.4609 2.8276-.0653c.6438.5525.5203 1.7986-1.0077 1.6342" class="a"/><path d="M20.952 26.412c-1.0998-4.0995-5.2415-4.3013-7.379-3.0504a5.0443 5.0443 0 0 0-1.88 6.0426 4.9592 4.9592 0 0 0 9.3162-.4758M30.3051 23.0987a4.96 4.96 0 1 0 2.5861-.7273M29.8518 21.2568l-7.831-.049M22.7 19.0004l-2.8287-.0392v0" class="a"/></svg>
