<?xml version="1.0" encoding="UTF-8" standalone="no"?>
<svg
   version="1.1"
   x="0%"
   y="0%"
   width="100%"
   height="100%"
   viewBox="0 0 48.0 48.0"
   enable-background="new 0 0 48.0 48.0"
   xml:space="preserve"
   id="svg3"
   sodipodi:docname="messages.svg"
   inkscape:version="1.4.2 (f4327f4, 2025-05-13)"
   xmlns:inkscape="http://www.inkscape.org/namespaces/inkscape"
   xmlns:sodipodi="http://sodipodi.sourceforge.net/DTD/sodipodi-0.dtd"
   xmlns="http://www.w3.org/2000/svg"
   xmlns:svg="http://www.w3.org/2000/svg"><defs
   id="defs3" /><sodipodi:namedview
   id="namedview3"
   pagecolor="#505050"
   bordercolor="#eeeeee"
   borderopacity="1"
   inkscape:showpageshadow="0"
   inkscape:pageopacity="0"
   inkscape:pagecheckerboard="0"
   inkscape:deskcolor="#505050"
   inkscape:zoom="6.702783"
   inkscape:cx="12.830491"
   inkscape:cy="30.808099"
   inkscape:window-width="1280"
   inkscape:window-height="657"
   inkscape:window-x="-8"
   inkscape:window-y="-8"
   inkscape:window-maximized="1"
   inkscape:current-layer="svg3" />
	<path
   fill="#FFFFFF"
   stroke="#FFFFFF"
   fill-opacity="0.000"
   stroke-opacity="1.000"
   fill-rule="nonzero"
   stroke-width="0.48"
   stroke-linejoin="miter"
   stroke-linecap="square"
   d="M19.78,35.24L18.01,35.55Q8.88,37.76,11.13,33.03L13.46,28.21A12.15 12.31 332.69 1 1 34.98,31.00Q29.75,37.83,19.78,35.24z"
   id="path1"
   style="stroke-width:1;stroke-dasharray:none" />
	<path
   fill="#FFFFFF"
   stroke="#FFFFFF"
   fill-opacity="0.000"
   stroke-opacity="1.000"
   fill-rule="nonzero"
   stroke-width="0.96"
   stroke-linejoin="miter"
   stroke-linecap="square"
   d="M18.97,21.71L25.15,21.75A0.03 0.03 0 0 1 25.18,21.78L25.18,21.78A0.03 0.03 0 0 1 25.15,21.81L18.97,21.77A0.03 0.03 0 0 1 18.94,21.74L18.94,21.74A0.03 0.03 0 0 1 18.97,21.71z"
   id="path2"
   style="stroke-linejoin:round;stroke-width:1;stroke-dasharray:none" />
	<path
   fill="#FFFFFF"
   stroke="#FFFFFF"
   fill-opacity="0.000"
   stroke-opacity="1.000"
   fill-rule="nonzero"
   stroke-width="0.96"
   stroke-linejoin="miter"
   stroke-linecap="square"
   d="M18.99,25.84L28.76,25.90A0.01 0.01 0 0 1 28.76,25.91L28.76,25.96A0.01 0.01 0 0 1 28.75,25.97L18.99,25.92A0.01 0.01 0 0 1 18.98,25.91L18.98,25.85A0.01 0.01 0 0 1 18.99,25.84z"
   id="path3"
   style="stroke-linejoin:round;stroke-width:1;stroke-dasharray:none" />
</svg>
