<?xml version="1.0" encoding="UTF-8" standalone="no"?>
<svg
   id="Layer_1"
   data-name="Layer 1"
   version="1.1"
   viewBox="0 0 48 48"
   sodipodi:docname="prix_carburant.svg"
   inkscape:version="1.1.2 (0a00cf5339, 2022-02-04)"
   xmlns:inkscape="http://www.inkscape.org/namespaces/inkscape"
   xmlns:sodipodi="http://sodipodi.sourceforge.net/DTD/sodipodi-0.dtd"
   xmlns="http://www.w3.org/2000/svg"
   xmlns:svg="http://www.w3.org/2000/svg">
  <sodipodi:namedview
     id="namedview9"
     pagecolor="#ffffff"
     bordercolor="#666666"
     borderopacity="1.0"
     inkscape:pageshadow="2"
     inkscape:pageopacity="0.0"
     inkscape:pagecheckerboard="0"
     showgrid="false"
     inkscape:zoom="7.4895833"
     inkscape:cx="2.6036161"
     inkscape:cy="31.777469"
     inkscape:window-width="1680"
     inkscape:window-height="988"
     inkscape:window-x="0"
     inkscape:window-y="25"
     inkscape:window-maximized="1"
     inkscape:current-layer="Layer_1" />
  <defs
     id="defs4">
    <style
       id="style2">
      .cls-1 {
        fill: none;
        stroke: #fff;
        stroke-linecap: round;
        stroke-linejoin: round;
      }
    </style>
  </defs>
  <g
     style="fill:none;stroke:#ff02ff;stroke-width:8.82652498;stroke-miterlimit:4;stroke-dasharray:none;stroke-opacity:1;stroke-linejoin:round;stroke-linecap:round;paint-order:normal"
     id="g1040"
     transform="matrix(0.11329487,0,0,0.11329487,7.508023,6.9920022)">
    <g
       id="g1031"
       style="fill:none;stroke:#ff02ff;stroke-width:8.82652498;stroke-miterlimit:4;stroke-dasharray:none;stroke-opacity:1;stroke-linejoin:round;stroke-linecap:round;paint-order:normal">
	<path
   d="m 254.25135,33.381036 c -5.54637,-2.190812 -13.3836,2.751769 -15.21804,5.104392 -7.26313,9.314756 -13.12262,19.677677 -15.47041,31.938111 -4.335,22.643 3.927,47.984001 11.917,72.492001 5.626,17.258 10.94,33.559 10.94,46.512 0,11.293 -4.807,17.387 -9.33,17.387 -4.06,0 -8.336,-5.285 -8.336,-15.387 0,-12.461 0.042,-48.662 -28.958,-53.467 V 53.427539 c 0,-4.418 -3.249,-7.5 -7.667,-7.5 h -10.333 v -8.5 c 0,-4.418 -3.249,-7.5 -7.667,-7.5 H 93.128903 c -4.418,0 -8.333,3.082 -8.333,7.5 v 8.5 h -8.667 c -4.418,0 -8.333,3.082 -8.333,7.5 V 260.92754 h -16.667 c -4.418,0 -8.333,3.082 -8.333,7.5 v 18 c 0,4.418 3.915,8.5 8.333,8.5 H 217.1289 c 4.418,0 7.667,-4.082 7.667,-8.5 v -18 c 0,-4.418 -3.249,-7.5 -7.667,-7.5 h -17.333 v -122.967 m -18,-9.033 c 0,4.418 -3.582,8 -8,8 H 92.795903 c -4.418,0 -8,-3.582 -8,-8 V 71.927539 c 0,-4.418 3.582,-8 8,-8 H 173.7959 c 4.418,0 8,3.582 8,8 z m 51.02944,-76.597263 c 0,0 9.33735,18.158354 8.08759,26.05604 -1.24976,7.897687 -9.00787,16.914308 -15.48187,18.569308"
   id="path1029"
   style="fill:none;stroke:#ff02ff;stroke-width:8.82652;stroke-linecap:round;stroke-linejoin:round;stroke-miterlimit:4;stroke-dasharray:none;stroke-opacity:1;paint-order:normal"
   sodipodi:nodetypes="csccssscsscsssscsscssssssssccsssssssssczc" />

</g>
  </g>
</svg>
