<?xml version="1.0" encoding="UTF-8"?><svg id="a" xmlns="http://www.w3.org/2000/svg" viewBox="0 0 48 48"><defs><style>.b{fill:none;stroke:#fff;stroke-linecap:round;stroke-linejoin:round;}</style></defs><line class="b" x1="13.1997" y1="11.1101" x2="16.4958" y2="11.1101"/><line class="b" x1="16.4958" y1="8.6833" x2="16.4958" y2="13.5557"/><line class="b" x1="13.1997" y1="8.6833" x2="13.1997" y2="13.5557"/><polyline class="b" points="8.7764 8.6822 8.7764 13.5547 11.2646 13.5547"/><path class="b" d="M23.3959,24.4709c-.0488,4.1459,3.2726,7.5463,7.4185,7.5951s7.5463-3.2726,7.5951-7.4185c.0007-.0588.0007-.1177,0-.1765-.0013-4.1462-3.3635-7.5063-7.5096-7.505-4.1444.0013-7.5037,3.3606-7.505,7.505v13.7097"/><path class="b" d="M41.2991,6.7326C15.9541,7.1174,10.1094,23.2103,6.7009,41.2674"/><rect class="b" x="5.5" y="5.5" width="37" height="37" rx="4" ry="4"/></svg>