<?xml version="1.0" encoding="UTF-8" standalone="no"?>
<svg
   id="Layer_1"
   data-name="Layer 1"
   version="1.1"
   viewBox="0 0 48 48"
   xml:space="preserve"
   xmlns="http://www.w3.org/2000/svg"
   xmlns:svg="http://www.w3.org/2000/svg"><defs
     id="defs1"><style
       id="style1">
      .cls-1 {
        fill: none;
        stroke: #fff;
        stroke-linecap: round;
        stroke-linejoin: round;
      }
    </style></defs><path
     style="fill:none;stroke:#ffffff;stroke-width:1;stroke-linecap:round;stroke-linejoin:round;stroke-dashoffset:0.5"
     d="M 7.4923391,14.059662 34.641248,6.4517976 c 1.481237,-0.4167883 3.533909,-1.5622283 4.341446,-0.5349281 2.626674,4.4775455 1.398092,22.0638375 -0.237887,22.8830305 -0.889511,0.422184 -6.95821,-6.359699 -6.95821,-6.359699"
     id="path1" /><path
     style="fill:none;stroke:#ffffff;stroke-width:1;stroke-linecap:round;stroke-linejoin:round;stroke-dashoffset:0.5"
     d="m 16.774973,11.458415 4.928423,30.107224"
     id="path2" /><path
     style="fill:none;stroke:#ffffff;stroke-width:1;stroke-linecap:round;stroke-linejoin:round;stroke-dashoffset:0.5"
     d="m 13.974773,42.499999 c 5.471412,-0.11312 10.942824,-1.549365 16.414236,-3.298722"
     id="path3" /><path
     style="fill:none;stroke:#ffffff;stroke-width:1;stroke-linecap:round;stroke-linejoin:round;stroke-dashoffset:0.5"
     d="m 31.706099,13.507944 1.09152,0.759746 c -0.178225,-0.759746 -0.430569,-3.056079 -0.850643,-3.40333 -0.822539,-0.371693 -3.805368,0.999721 -3.817898,0.966436 l 0.535246,4.279424"
     id="path4" /><path
     style="fill:none;stroke:#ffffff;stroke-width:1;stroke-linecap:round;stroke-linejoin:round;stroke-dashoffset:0.5"
     d="m 25.437976,12.157696 -0.163548,4.546578 -3.65752,0.891856 -0.80287,-4.546887 z"
     id="path5" /><path
     style="fill:none;stroke:#ffffff;stroke-width:1;stroke-linecap:round;stroke-linejoin:round;stroke-dashoffset:0.5"
     d="m 22.297805,19.230633 c 2.043705,1.12383 3.57116,2.530493 4.582364,4.219987"
     id="path6" /><path
     style="fill:none;stroke:#ffffff;stroke-width:1;stroke-linecap:round;stroke-linejoin:round;stroke-dashoffset:0.5"
     d="m 26.225978,18.903733 c -2.097454,1.23566 -2.908724,3.655792 -3.928173,5.884207"
     id="path7" /><path
     style="fill:none;stroke:#ffffff;stroke-width:1;stroke-linecap:round;stroke-linejoin:round;stroke-dashoffset:0.5"
     d="m 28.158814,29.572573 c -1.877515,0.806274 -3.789212,1.392924 -5.861009,0.950983 l 0.597748,-4.517169 4.133295,-0.861829 0.44573,1.693939 c -1.565657,0.751998 -3.197579,1.018341 -4.846648,1.159011"
     id="path8" /><path
     style="fill:none;stroke:#ffffff;stroke-width:1;stroke-linecap:round;stroke-linejoin:round;stroke-dashoffset:0.5"
     d="m 24.962201,25.575473 0.125784,2.070577"
     id="path9" /><path
     style="fill:none;stroke:#ffffff;stroke-width:1;stroke-linecap:round;stroke-linejoin:round;stroke-dashoffset:0.5"
     d="m 24.00001,32.409149 -0.158741,5.085378"
     id="path10" /><path
     style="fill:none;stroke:#ffffff;stroke-width:1;stroke-linecap:round;stroke-linejoin:round;stroke-dashoffset:0.5"
     d="m 24.00001,33.270721 c 0,0 3.824339,-0.852125 4.235793,-0.462306 0.315397,0.490047 0,2.143423 0,3.488316 l -1.114404,-1.344893"
     id="path11" /></svg>
