<?xml version="1.0" encoding="UTF-8"?><svg id="b" xmlns="http://www.w3.org/2000/svg" viewBox="0 0 48 48"><defs><style>.n{fill:none;stroke:#fff;stroke-linecap:round;stroke-linejoin:round;}</style></defs><g id="d"><rect id="e" class="n" x="3.5" y="18.0692" width="41" height="11.8616"/></g><g id="f"><path id="g" class="n" d="M6.4222,27.7098v-7.5063h2.4574c1.3893,0,2.5155,1.1287,2.5155,2.5209s-1.1262,2.5209-2.5155,2.5209h-2.4574"/><path id="h" class="n" d="M13.7608,27.712v-7.5063h2.4574c1.3893,0,2.5155,1.1287,2.5155,2.5209s-1.1262,2.5209-2.5155,2.5209h-2.4574"/><line id="i" class="n" x1="16.2182" y1="25.2475" x2="18.6754" y2="27.7101"/><path id="j" class="n" d="M28.6981,26.8886c.4603.5992,1.0375.8224,1.8405.8224h1.1113c1.0342,0,1.8725-.8384,1.8725-1.8725v-.0081c0-1.0342-.8384-1.8725-1.8725-1.8725h-1.2258c-1.0353,0-1.8745-.8393-1.8745-1.8745h0c0-1.0375.8411-1.8786,1.8786-1.8786h1.1052c.803,0,1.3802.2232,1.8405.8224"/><path id="k" class="n" d="M21.3888,20.2048v5.0198c0,1.3732,1.1132,2.4864,2.4864,2.4864s2.4864-1.1132,2.4864-2.4864v-5.0198"/><line id="l" class="n" x1="40.2549" y1="25.2273" x2="36.9293" y2="25.2273"/><polyline id="m" class="n" points="36.1057 27.7138 38.5921 20.2075 41.0786 27.7138"/></g></svg>