<?xml version="1.0" encoding="UTF-8"?>
<!-- Created with Inkscape (http://www.inkscape.org/) -->
<svg width="48" height="48" version="1.1" viewBox="0 0 48 48" xml:space="preserve" xmlns="http://www.w3.org/2000/svg"><defs><style>.a{fill:none;stroke:#fff;stroke-linecap:round;stroke-linejoin:round;}</style><style>
      .cls-1 {
        fill: none;
        stroke: #fff;
        stroke-linecap: round;
        stroke-linejoin: round;
      }
    </style></defs><g id="a" class="st0" transform="translate(-182.19 78.416)">
</g><g><g id="b" transform="translate(-182.19 78.416)">

	<g transform="translate(-77.276 6.1793)">
		
	<path class="st5" d="m280.98-46.152c0.49057 0.63866 1.1057 0.87654 1.9615 0.87654h1.1844c1.1022 0 1.9957-0.8935 1.9957-1.9957v-0.0086c0-1.1022-0.89349-1.9957-1.9957-1.9957h-1.3065c-1.1034 0-1.9978-0.89447-1.9978-1.9978v-4e-6c0-1.1058 0.89639-2.0022 2.0022-2.0022h1.1779c0.85579 0 1.4709 0.23788 1.9615 0.87654" fill="none" stroke="#fff" stroke-linecap="round" stroke-linejoin="round" stroke-miterlimit="10"/></g>
	
	<g transform="translate(-62.925 -10.354)">
		
	<polyline class="st5" transform="translate(180.72 -61.393)" points="97.477 32.65 97.477 24.65 93.183 30.024 98.483 30.024" fill="none" stroke="#fff" stroke-linecap="round" stroke-linejoin="round" stroke-miterlimit="10"/></g>

<g transform="translate(-7.2385 -87.746)">
		<path class="st5" d="m203.35 48.65v-8h2.619c1.4806 0 2.681 1.2029 2.681 2.6867 0 1.4838-1.2003 2.6867-2.681 2.6867h-2.619" fill="none" stroke="#fff" stroke-linecap="round" stroke-linejoin="round" stroke-miterlimit="10"/>
	</g><path class="st5" d="m203.54-58.42c0-1.6355 1.4816-2.925 3.1759-2.5994 1.1113 0.21358 1.9988 1.1747 2.1094 2.301 0.0823 0.83776-0.18281 1.6644-0.7615 2.1722-1.072 0.94078-4.5238 3.4762-4.5238 3.4762h5.3" fill="none" stroke="#fff" stroke-linecap="round" stroke-linejoin="round" stroke-miterlimit="10"/></g><g transform="translate(.18455 -2.6541)"><rect class="cls-1" x="10.991" y="16.286" width="25.649" height="15.428" rx="2.6307" ry="1.9907"/></g><circle cx="24" cy="10.372" r="1" fill="#fdffff" fill-opacity=".99937" stroke="#fff"/><circle cx="24" cy="6.1124" r="1" fill="#fdffff" fill-opacity=".99937" stroke="#fff"/></g><style type="text/css">
	.st5{fill:none;stroke:#FFFFFF;stroke-linecap:round;stroke-linejoin:round;stroke-miterlimit:10;}
</style></svg>
