<?xml version="1.0" encoding="UTF-8"?>
<svg id="Layer_1" xmlns="http://www.w3.org/2000/svg" version="1.1" viewBox="0 0 48 48">
  <!-- Generator: Adobe Illustrator 29.0.1, SVG Export Plug-In . SVG Version: 2.1.0 Build 192)  -->
  <defs>
    <style>
      .st0 {
        fill: none;
        stroke: #fff;
        stroke-linecap: round;
        stroke-linejoin: round;
      }
    </style>
  </defs>
  <path class="st0" d="M42.5,40.4s-12.5-8.1-17.4-8.7c-.6,0-1-.5-1.1-1-.6-2.5-2.6-9.1-8.6-11.5C7.5,16,5.5,7.6,5.5,7.6c0,0,4.3,6.6,11,7.8,6.7,1.2,10.6,5.6,10.6,5.6,0,0,4,3.4,2.5-1.1,0,0,2.7.7,5.8,3.3,0,0,.1.6-2.3,1s-9.3,1.3-5.6,5.2c2.1.8,9.2,4.1,15,10.9h0Z"/>
</svg>