<?xml version="1.0" encoding="UTF-8"?><svg id="b" xmlns="http://www.w3.org/2000/svg" viewBox="0 0 48 48"><defs><style>.j{fill:none;stroke:#fff;stroke-linecap:round;stroke-linejoin:round;}</style></defs><rect class="j" x="5.5" y="5.5" width="37" height="37" rx="4" ry="4"/><path class="j" d="m26.218 22.481c0-2.5808 2.0693-4.6729 4.6219-4.6729s4.6219 2.0921 4.6219 4.6729v3.0374c0 2.5808-2.0693 4.6729-4.6219 4.6729s-4.6219-2.0921-4.6219-4.6729"/><line class="j" x1="26.218" x2="26.218" y1="30.192" y2="11.5"/><path class="j" d="m21.782 25.519c0 2.5808-2.0692 4.6729-4.6219 4.6729-2.5526 0-4.6219-2.0921-4.6219-4.6729v-3.0374c0-2.5808 2.0692-4.6729 4.6219-4.6729 2.5526 0 4.6219 2.0921 4.6219 4.6729"/><line class="j" x1="21.782" x2="21.782" y1="17.808" y2="36.5"/></svg>
