<?xml version="1.0" encoding="utf-8"?>
<svg
	version="1.1"
	xmlns="http://www.w3.org/2000/svg"
	xmlns:xlink="http://www.w3.org/1999/xlink"
	x="0%" y="0%"
	width="100%" height="100%"
	viewBox="0 0 48.0 48.0"
	enable-background="new 0 0 48.0 48.0"
	xml:space="preserve">
	<path
		fill="#FFFFFF"
		stroke="#FFFFFF"
		fill-opacity="0.000"
		stroke-opacity="1.000"
		fill-rule="nonzero"
		stroke-width="1.000"
		stroke-linejoin="round"
		stroke-linecap="square"
		d="M21.10,23.93C26.47,20.02,32.83,21.33,41.65,21.45C44.42,22.74,45.47,29.44,42.87,32.24Q41.23,33.33,39.93,33.33L22.78,33.15C20.75,33.08,19.21,32.21,18.79,30.54Q18.56,29.97,17.74,29.97L15.81,29.97C14.64,31.76,13.43,33.04,9.03,32.08C4.93,31.82,3.44,25.89,4.38,23.69Q5.40,21.43,6.23,23.37Q8.08,20.71,9.28,20.67Q11.74,18.23,12.21,19.94Q13.54,19.99,15.09,19.07Q16.37,18.75,16.67,23.58L21.10,23.93z"/>
	<path
		fill="#FFFFFF"
		stroke="#FFFFFF"
		fill-opacity="0.000"
		stroke-opacity="1.000"
		fill-rule="nonzero"
		stroke-width="1.000"
		stroke-linejoin="round"
		stroke-linecap="square"
		d="M6.44,23.18Q9.14,25.35,10.74,25.64C11.11,29.02,13.35,28.92,14.42,26.90Q15.40,25.42,16.00,27.07L18.55,27.14Q21.56,30.02,23.14,30.03L30.38,30.11C30.38,31.70,34.25,31.75,34.25,30.11L43.49,30.07"/>
	<path
		fill="#FFFFFF"
		stroke="#FFFFFF"
		fill-opacity="0.000"
		stroke-opacity="1.000"
		fill-rule="nonzero"
		stroke-width="1.000"
		stroke-linejoin="round"
		stroke-linecap="square"
		d="M10.21,21.85Q10.54,22.31,10.48,22.97"/>
</svg>