<?xml version="1.0" encoding="UTF-8"?>
<svg id="Layer_1" xmlns="http://www.w3.org/2000/svg" version="1.1" viewBox="0 0 48 48">
  <!-- Generator: Adobe Illustrator 29.0.1, SVG Export Plug-In . SVG Version: 2.1.0 Build 192)  -->
  <defs>
    <style>
      .st0 {
        fill: none;
        stroke: #fff;
        stroke-linecap: round;
        stroke-linejoin: round;
      }
    </style>
  </defs>
  <path class="st0" d="M10.6,11.1h26.7c1.9,0,3.5,1.5,3.5,3.3v19.2c0,1.8-1.5,3.3-3.5,3.3H10.6c-1.9,0-3.5-1.5-3.5-3.3V14.4c0-1.8,1.5-3.3,3.5-3.3Z"/>
  <polyline class="st0" points="23.1 16 23.1 20.5 25.3 20.5"/>
  <path class="st0" d="M27.7,20.5v-4.5h1c1.1,0,2,.9,2,2v.6c0,1.1-.9,2-2,2h-1Z"/>
  <g>
    <line class="st0" x1="20.3" y1="20.5" x2="18.9" y2="19"/>
    <rect class="st0" x="17.4" y="16" width="3" height="4.5" rx="1.5" ry="1.5"/>
  </g>
  <g>
    <path class="st0" d="M11.8,31.1v-7.2h2.4c1.3,0,2.4,1.1,2.4,2.4s-1.1,2.4-2.4,2.4h-2.4"/>
    <line class="st0" x1="14.1" y1="28.7" x2="16.5" y2="31.1"/>
  </g>
  <g>
    <line class="st0" x1="18.9" y1="27.5" x2="21.2" y2="27.5"/>
    <polyline class="st0" points="22.5 31.1 18.9 31.1 18.9 23.9 22.5 23.9"/>
  </g>
  <rect class="st0" x="31.4" y="23.9" width="4.8" height="7.2" rx="2.4" ry="2.4"/>
  <path class="st0" d="M29.3,26.3c0-1.3-1.1-2.4-2.4-2.4h0c-1.3,0-2.4,1.1-2.4,2.4v2.4c0,1.3,1.1,2.4,2.4,2.4h0c1.3,0,2.4-1.1,2.4-2.4h-2.4"/>
  <rect class="st0" x="4.5" y="8.5" width="39" height="31" rx="4" ry="4"/>
</svg>