<?xml version="1.0" encoding="UTF-8" standalone="no"?>
<svg
   viewBox="0 0 48 48"
   version="1.1"
   id="svg316"
   sodipodi:docname="qq.svg"
   xml:space="preserve"
   inkscape:version="1.2.2 (b0a8486541, 2022-12-01)"
   xmlns:inkscape="http://www.inkscape.org/namespaces/inkscape"
   xmlns:sodipodi="http://sodipodi.sourceforge.net/DTD/sodipodi-0.dtd"
   xmlns="http://www.w3.org/2000/svg"
   xmlns:svg="http://www.w3.org/2000/svg"><sodipodi:namedview
     id="namedview318"
     pagecolor="#505050"
     bordercolor="#eeeeee"
     borderopacity="1"
     inkscape:showpageshadow="0"
     inkscape:pageopacity="0"
     inkscape:pagecheckerboard="0"
     inkscape:deskcolor="#505050"
     showgrid="false"
     inkscape:zoom="12.831042"
     inkscape:cx="15.821007"
     inkscape:cy="29.615678"
     inkscape:window-width="1918"
     inkscape:window-height="1053"
     inkscape:window-x="0"
     inkscape:window-y="0"
     inkscape:window-maximized="1"
     inkscape:current-layer="svg316" /><defs
     id="defs296"><style
       id="style294">.a{fill:none;stroke:#fff;stroke-linecap:round;stroke-linejoin:round;}</style></defs><g
     id="g2228"><path
       style="fill:none;stroke:#ffffff;stroke-width:1;stroke-linecap:round;stroke-linejoin:round;stroke-opacity:1;stop-color:#000000"
       d="m 10.084096,25.280813 c 2.073081,0.603508 4.222058,1.069316 6.356667,1.398861 v 5.666871 0 c 1.903967,0.587274 3.451628,0.39632 5.332402,0.226554 v -5.34873 c 0.75901,0.03711 1.505536,0.05562 2.234961,0.05562 4.354049,0 9.317289,-0.659755 13.909338,-1.994905"
       id="path2176" /><path
       style="fill:none;stroke:#ffffff;stroke-width:1;stroke-linecap:round;stroke-linejoin:round;stroke-opacity:1;stop-color:#000000"
       d="m 36.150282,21.07593 c -4.076859,1.015763 -8.341587,1.518446 -12.142156,1.518446 -3.805234,0 -8.075769,-0.503917 -12.157169,-1.52219"
       id="path2174" /></g><g
     id="g2232"><path
       style="fill:none;stroke:#ffffff;stroke-width:1;stroke-linecap:round;stroke-linejoin:round;stroke-opacity:1;stop-color:#000000"
       d="m 15.513796,40.415675 c -7.9298103,2.724245 -2.35725,3.722814 6.608545,2.678261"
       id="path2164" /><path
       style="fill:none;stroke:#ffffff;stroke-width:1;stroke-linecap:round;stroke-linejoin:round;stroke-opacity:1;stop-color:#000000"
       d="m 32.490971,40.411731 c 7.949428,2.728171 2.369193,3.727955 -6.606392,2.681118"
       id="path2162" /></g><g
     id="g2236"><path
       style="fill:none;stroke:#ffffff;stroke-width:1;stroke-linecap:round;stroke-linejoin:round;stroke-opacity:1;stop-color:#000000"
       d="M 11.917115,20.912842 C 10.079461,25.445353 6.6956492,32.114237 7.9131296,36.705163 9.6003037,35.187041 10.13522,34.319769 11.259388,32.609563 11.308408,37.219434 16.024913,43.20521 24,43.20521 c 7.975087,0 12.69159,-5.985776 12.740612,-10.595647 1.124168,1.710206 1.659084,2.577478 3.346258,4.0956 C 41.304351,32.114237 37.920538,25.445353 36.082884,20.912842 37.059711,10.989139 31.607418,4.462203 24,4.5001628 16.392581,4.5381226 10.940288,10.989139 11.917115,20.912842 Z"
       id="path2178" /><path
       style="fill:none;stroke:#ffffff;stroke-width:1;stroke-linecap:round;stroke-linejoin:round;stroke-opacity:1;stop-color:#000000"
       d="m 14.684739,26.377418 c -1.698768,8.311187 1.401855,15.544591 9.314712,15.544591 7.911718,0 11.012588,-7.231318 9.315447,-15.540997"
       id="path1960" /></g><g
     id="g2207"><path
       style="fill:none;stroke:#ffffff;stroke-width:1;stroke-linecap:round;stroke-linejoin:round;stroke-opacity:1;stop-color:#000000"
       d="m 31.59613,18.118683 c -1.016356,-1.37842 -4.662497,-1.729259 -7.588004,-1.729259 -2.925506,0 -6.571647,0.350839 -7.588003,1.729259 2.286804,1.594419 5.852944,2.292121 7.588003,2.279001 1.73506,-0.01312 5.3012,-0.684582 7.588004,-2.279001 z"
       id="path2166" /><g
       id="g2199"><path
         style="fill:none;stroke:#ffffff;stroke-width:1;stroke-linecap:round;stroke-linejoin:round;stroke-opacity:1;stop-color:#000000"
         d="M 22.946863,12.37384 A 2.1901953,3.1188248 0 0 1 20.756667,15.492665 2.1901953,3.1188248 0 0 1 18.566472,12.37384 2.1901953,3.1188248 0 0 1 20.756667,9.2550153 2.1901953,3.1188248 0 0 1 22.946863,12.37384 Z"
         id="path2172" /><path
         style="fill:none;stroke:#ffffff;stroke-width:1;stroke-linecap:round;stroke-linejoin:round;stroke-opacity:1;stop-color:#000000"
         d="m 29.449779,12.37384 a 2.1901953,3.1188248 0 0 1 -2.190195,3.118828 2.1901953,3.1188248 0 0 1 -2.190196,-3.118825 2.1901953,3.1188248 0 0 1 2.190196,-3.1188247 2.1901953,3.1188248 0 0 1 2.190195,3.1188247 z"
         id="path2170" /><path
         style="fill:none;stroke:#ffffff;stroke-width:1;stroke-linecap:round;stroke-linejoin:round;stroke-opacity:1;stop-color:#000000"
         d="m 25.957266,12.76874 c 0.732052,-0.713445 1.49677,-0.688035 2.167078,-0.3689"
         id="path2168" /><circle
         style="fill:#ffffff;fill-opacity:1;stroke:none;stroke-width:1;stroke-linecap:round;stroke-linejoin:round;stroke-opacity:1;stop-color:#000000"
         id="path1995"
         cx="21.752001"
         cy="12.853"
         r="0.75" /></g></g></svg>
