<?xml version="1.0" encoding="UTF-8"?><svg id="b" xmlns="http://www.w3.org/2000/svg" viewBox="0 0 48 48"><defs><style>.v{fill:none;stroke:#fff;stroke-linecap:round;stroke-linejoin:round;}</style></defs><g id="f"><g id="g"><path id="h" class="v" d="M10.6653,5.5v8.335"/><path id="i" class="v" d="M17.3653,6.001v7.834"/><path id="j" class="v" d="M30.7553,6.001v7.834"/><path id="k" class="v" d="M24.0653,6.001l-.005,7.834c-.0067,1.939-1.498,3.5-3.35,3.5s-3.346-1.561-3.344-3.5c0,1.939-1.491,3.5-3.344,3.5s-3.345-1.561-3.351-3.5c-.0067,1.939-1.498,3.5-3.35,3.5-.47,0-.916-.1-1.321-.282"/><path id="l" class="v" d="M37.4533,5.5v8.335c0,1.939-1.492,3.5-3.345,3.5s-3.345-1.561-3.349-3.5c-.0033,1.939-1.495,3.5-3.348,3.5s-3.345-1.561-3.345-3.5"/><path id="m" class="v" d="M41.995,17.111c-.3772.1491-.7794.2251-1.185.224-1.853,0-3.345-1.561-3.345-3.5"/></g><path id="n" class="v" d="M9.5,5.5h29c2.216,0,4,1.784,4,4v29c0,2.216-1.784,4-4,4H9.5c-2.216,0-4-1.784-4-4V9.5c0-2.216,1.784-4,4-4Z"/></g><g id="o"><g id="p"><path id="q" class="v" d="M26.34,35.9247v-13.0528h4.3669c2.4688,0,4.4701,1.9626,4.4701,4.3837s-2.0013,4.3837-4.4701,4.3837h-4.3669"/><path id="r" class="v" d="M30.7069,31.6392l4.3664,4.2821"/></g><g id="s"><path id="t" class="v" d="M21.6603,35.9248l-4.4189-4.2722"/><path id="u" class="v" d="M17.2417,22.8717h0c2.4479,0,4.4186,1.9284,4.4186,4.3239v4.4054c0,2.3954-1.9707,4.3239-4.4186,4.3239h0c-2.4479,0-4.4186-1.9284-4.4186-4.3239v-4.4054c0-2.3954,1.9707-4.3239,4.4186-4.3239Z"/></g></g></svg>