<?xml version="1.0" encoding="UTF-8"?>
<svg width="48" height="48" version="1.1" viewBox="0 0 12.7 12.7" xml:space="preserve" xmlns="http://www.w3.org/2000/svg"><defs><style>.q{fill:#fff;}.r,.s{fill:none;stroke:#fff;stroke-linecap:round;stroke-linejoin:round;}.s{stroke-width:1.0050968px;}</style><style>.a{fill:none;stroke:#fff;stroke-linecap:round;stroke-linejoin:round;}</style><style>
      .cls-1 {
        fill: none;
        stroke: #fff;
        stroke-linecap: round;
        stroke-linejoin: round;
      }
    </style><style>.c{fill:none;stroke:#fff;stroke-linecap:round;stroke-linejoin:round;}</style><style>
      .cls-1 {
        fill: none;
        stroke: #fff;
        stroke-linecap: round;
        stroke-linejoin: round;
      }
    </style><style>.c{fill:none;stroke:#fff;stroke-linecap:round;stroke-linejoin:round;}</style><style>.c{fill:none;stroke:#fff;stroke-linecap:round;stroke-linejoin:round;}</style><style>.a{fill:none;stroke:#fff;stroke-linecap:round;stroke-linejoin:round;}</style><style>.b{fill:none;stroke:#fff;stroke-linecap:round;stroke-linejoin:round;}</style></defs><g transform="translate(-1.2855 -2.4324)" fill="none" stroke="#fff" stroke-linecap="round" stroke-linejoin="round" stroke-width=".26458"><path d="m8.4798 9.5639c-0.10849-0.47613-0.84434-1.2044-0.84434-1.2044s-0.73586 0.72823-0.84434 1.2044c0.10849 0.47613 0.84434 1.2044 0.84434 1.2044s0.73586-0.72823 0.84434-1.2044z"/><path d="m3.8926 12.28h7.4858"/><path d="m7.5978 5.2874c-0.31174 0.039926-0.82527 0.5986-1.2211 1.2418-0.49336 0.80162-0.69747 1.5459-1.018 1.6025-0.32055 0.056568-0.54221-0.38522-0.93224-0.76223-0.23482-0.22698-0.53205-0.47897-0.77411-0.6258-0.27694-0.16798-0.55748-0.21877-0.72657-0.12041-0.32801 0.19081-0.49002 3.1866 0.96687 4.9956h7.4858c1.4569-1.809 1.2949-4.8048 0.96687-4.9956-0.1691-0.098365-0.44963-0.047577-0.72657 0.12041-0.24207 0.14683-0.5393 0.39882-0.77411 0.6258-0.39003 0.37701-0.61169 0.8188-0.93224 0.76223-0.32055-0.056568-0.52467-0.80087-1.018-1.6025-0.39584-0.64318-0.91014-1.1963-1.2211-1.2418-0.025624-0.00375-0.050501-0.0032-0.075448 0z"/></g></svg>
