<?xml version="1.0" encoding="UTF-8"?>
<svg width="48" height="48" version="1.1" viewBox="0 0 12.7 12.7" xml:space="preserve" xmlns="http://www.w3.org/2000/svg"><defs><style>.q{fill:#fff;}.r,.s{fill:none;stroke:#fff;stroke-linecap:round;stroke-linejoin:round;}.s{stroke-width:1.0050968px;}</style><style>.a{fill:none;stroke:#fff;stroke-linecap:round;stroke-linejoin:round;}</style><style>
      .cls-1 {
        fill: none;
        stroke: #fff;
        stroke-linecap: round;
        stroke-linejoin: round;
      }
    </style><style>.c{fill:none;stroke:#fff;stroke-linecap:round;stroke-linejoin:round;}</style><style>
      .cls-1 {
        fill: none;
        stroke: #fff;
        stroke-linecap: round;
        stroke-linejoin: round;
      }
    </style><style>.c{fill:none;stroke:#fff;stroke-linecap:round;stroke-linejoin:round;}</style><style>.c{fill:none;stroke:#fff;stroke-linecap:round;stroke-linejoin:round;}</style><style>.a{fill:none;stroke:#fff;stroke-linecap:round;stroke-linejoin:round;}</style><style>.b{fill:none;stroke:#fff;stroke-linecap:round;stroke-linejoin:round;}</style></defs><g transform="translate(-.52917 -.52917)" stroke-width=".26458"><path class="a" d="m6.8792 1.1906a5.6885 5.6885 0 0 0-5.6885 5.6885 5.6885 5.6885 0 0 0 0.66198 2.6634 4.4709 5.8624 45 0 1 1.865-5.825 4.4709 5.8624 45 0 1 5.825-1.865 5.6885 5.6885 0 0 0-2.6634-0.66198zm5.0266 3.0251a4.4709 5.8624 45 0 1-1.2604 5.1439v5.167e-4l0.84491 0.85059a5.6885 5.6885 0 0 0 1.0775-3.3316 5.6885 5.6885 0 0 0-0.66198-2.6634zm-2.5104 6.4017a4.4709 5.8624 45 0 1-5.1795 1.2883 5.6885 5.6885 0 0 0 2.6634 0.66198 5.6885 5.6885 0 0 0 3.3817-1.1141z"/><path class="a" d="m7.7706 3.4721a2.9218 3.8312 45 0 0-2.9574 1.341 2.9218 3.8312 45 0 0-0.64285 4.7749 2.9218 3.8312 45 0 0 4.0871-0.069246l-1.325-1.2795 2.5998-3e-7a2.9218 3.8312 45 0 0 0.055811-4.069 2.9218 3.8312 45 0 0-1.8175-0.69815z"/></g></svg>
