<?xml version="1.0" encoding="UTF-8" standalone="no"?>
<svg
   viewBox="0 0 48 48"
   version="1.1"
   id="svg1"
   xml:space="preserve"
   xmlns="http://www.w3.org/2000/svg"
   xmlns:svg="http://www.w3.org/2000/svg"><defs
     id="defs1"><style
       id="style1">.a{fill:none;stroke:#fff;stroke-linecap:round;stroke-linejoin:round;}</style></defs><path
     style="opacity:1;fill:none;stroke:#ffffff;stroke-width:1;stroke-linecap:round;stroke-linejoin:round;stroke-dashoffset:0.5"
     id="path2"
     d="M 24.001419,42.500153 A 18.499924,18.499926 0 0 1 5.9313249,27.964931 18.499924,18.499926 0 0 1 16.256246,7.1996459 18.499924,18.499926 0 0 1 38.75179,12.834487 18.499924,18.499926 0 0 1 38.068871,36.014968" /><path
     style="opacity:1;fill:none;stroke:#ffffff;stroke-width:1;stroke-linecap:round;stroke-linejoin:round;stroke-dashoffset:0.5"
     d="M 24.001427,42.500148 H 38.061755 V 36.014963"
     id="path3" /><path
     style="opacity:1;fill:none;stroke:#ffffff;stroke-width:1;stroke-linecap:round;stroke-linejoin:round;stroke-dashoffset:0.5"
     id="path4"
     d="m 24.001419,35.100182 a 11.099953,11.099955 0 0 1 -10.842055,-8.721133 11.099953,11.099955 0 0 1 6.194952,-12.45917 11.099953,11.099955 0 0 1 13.497325,3.380904 11.099953,11.099955 0 0 1 -0.409752,13.908288" /><path
     style="opacity:1;fill:none;stroke:#ffffff;stroke-width:1;stroke-linecap:round;stroke-linejoin:round;stroke-dashoffset:0.5"
     d="M 32.441895,31.209068 V 35.07098 H 24.001427"
     id="path5" /></svg>
