<svg width="48" height="48" version="1.1" viewBox="0 0 48 48" xml:space="preserve" xmlns="http://www.w3.org/2000/svg" xmlns:xlink="http://www.w3.org/1999/xlink"><path d="m36.58 36.024c2.1491-1.0041 2.1349-0.98169 1.4589-2.3025-0.31259-0.61076-1.0527-1.6132-1.6446-2.2276-1.6511-1.7138-3.356-2.283-5.6124-1.8739-1.1674 0.21168-4.4795 1.1886-5.0738 1.4964-0.59672 0.30915-3.2587 0.59672-4.3962 0.47491-3.8652-0.41393-6.8757-3.9401-6.8757-8.0535 0-4.9716 4.0249-8.5965 8.8097-7.9343 4.1092 0.56869 7.1189 4.8591 6.4194 9.1509-0.12585 0.77206-0.40486 1.7611-0.62004 2.1979-0.21517 0.43677-0.35503 0.83032-0.31081 0.87454 0.04422 0.04422 0.62737-0.04686 1.2959-0.20241 1.1997-0.27914 3.3083-0.26817 3.9718 0.02067 0.33868 0.14743 0.42032 0.01536 0.86945-1.4066 0.30752-0.97365 0.2609-4.246-0.08027-5.6334-0.8084-3.2874-2.8156-6.085-5.6758-7.9108-2.2044-1.4071-5.617-2.3205-7.7656-2.0784-5.9905 0.67508-10.212 4.0774-11.853 9.553-0.41543 1.3861-0.46629 5.1779-0.086609 6.4572 1.206 4.0637 3.5051 6.8618 7.0495 8.5797 3.5221 1.7071 7.0373 1.7355 11.885 0.09616 3.3082-1.1187 4.4906-0.9305 5.5748 0.88754 0.51162 0.85795 0.46388 0.86092 2.6606-0.16543z" fill="none" stroke="#fff"/></svg>
