<svg xmlns="http://www.w3.org/2000/svg" xml:space="preserve" id="svg10" version="1.1" viewBox="0 0 48 48"><defs id="defs1"><style id="style1"></style></defs><path id="path1-6-1" d="M33.948 16.86a1.546 1.546 0 1 1-3.093 0 1.546 1.546 0 0 1 3.093 0z" class="c" style="display:inline;fill:#fff;stroke-width:1;stroke-dasharray:none"/><path id="path1-6" d="M28.712 16.86a1.546 1.546 0 1 1-3.093 0 1.546 1.546 0 0 1 3.093 0z" class="c" style="fill:#fff;stroke-width:1;stroke-dasharray:none"/><path id="path3" d="M22.859 34.71 25.105 42l-15.055-.123V28.52h4.847c.332-6.047.959-12.078 5.798-17.14 3.738-4.196 7.79-5.025 11.627-5.38l1.214 4.152 10.471 8.572-6.088 4.323L37.765 42" style="display:inline;fill:none;stroke:#fff;stroke-width:1;stroke-linecap:round;stroke-linejoin:round;stroke-dasharray:none;stroke-opacity:1;paint-order:stroke fill markers"/><path id="path4" d="M31.912 32.576v9.423" style="display:inline;fill:none;stroke:#fff;stroke-width:1;stroke-linecap:round;stroke-linejoin:round;stroke-dasharray:none;stroke-opacity:1;paint-order:stroke fill markers"/><path id="path5" d="M14.845 28.641v13.23" style="display:inline;fill:none;stroke:#fff;stroke-width:1;stroke-linecap:round;stroke-linejoin:round;stroke-dasharray:none;stroke-opacity:1;paint-order:stroke fill markers"/><path id="path2" d="M9.96 41.864a6.07 6.665 0 0 1-5.967-6.697 6.07 6.665 0 0 1 6.027-6.631" style="display:inline;fill:none;stroke:#fff;stroke-width:1;stroke-linecap:round;stroke-linejoin:round;stroke-dasharray:none;paint-order:stroke fill markers"/></svg>
