<?xml version="1.0" encoding="UTF-8" standalone="no"?>
<svg
   viewBox="0 0 48 48"
   version="1.1"
   id="svg1"
   sodipodi:docname="raccoon.svg"
   inkscape:version="1.3.2 (091e20ef0f, 2023-11-25, custom)"
   xml:space="preserve"
   xmlns:inkscape="http://www.inkscape.org/namespaces/inkscape"
   xmlns:sodipodi="http://sodipodi.sourceforge.net/DTD/sodipodi-0.dtd"
   xmlns="http://www.w3.org/2000/svg"
   xmlns:svg="http://www.w3.org/2000/svg"><sodipodi:namedview
     id="namedview1"
     pagecolor="#ffffff"
     bordercolor="#666666"
     borderopacity="1.0"
     inkscape:showpageshadow="2"
     inkscape:pageopacity="0.0"
     inkscape:pagecheckerboard="0"
     inkscape:deskcolor="#d1d1d1"
     inkscape:zoom="8"
     inkscape:cx="25.25"
     inkscape:cy="46.5625"
     inkscape:window-width="1920"
     inkscape:window-height="1050"
     inkscape:window-x="0"
     inkscape:window-y="0"
     inkscape:window-maximized="1"
     inkscape:current-layer="svg1" /><defs
     id="defs1"><style
       id="style1">.a{fill:none;stroke:#fff;stroke-linecap:round;stroke-linejoin:round;}</style></defs><path
     style="display:inline;fill:none;stroke:#ffffff;stroke-opacity:1"
     d="m 12.796369,39.289458 c -0.989182,-1.853496 2.13781,-1.081438 3.499084,-1.079815 -1.511749,-1.093594 -1.844126,-5.310067 1.094594,-5.830736 0.79239,-1.042267 1.069579,-1.73654 1.424188,-3.065997 -2.399023,-0.524836 -4.314045,-3.551183 -6.734039,-5.11808 0.812588,-0.671768 0.678403,-0.47651 1.347667,-0.996598 0.239108,-1.697639 1.440066,-3.636508 0.761735,-5.348875 -0.148408,-2.252059 -0.707721,-5.92271 -0.507491,-9.2894638 5.45417,0.4102934 5.553362,2.4070998 6.972824,3.9957548 1.585322,-0.182072 4.557894,-0.215891 6.064381,-0.138639 1.558,-1.755895 5.174297,-4.2871951 6.84336,-4.1775207 0.268548,2.9476237 1.139158,6.7182957 -0.266142,9.5635937 0.862977,1.607036 1.112282,3.331572 0.809562,5.160333 0.26279,0.364461 0.127093,0.213399 1.195415,1.271698 -1.210079,1.401139 -4.661915,4.360909 -6.185366,5.210159 0.469017,0.774827 0.70651,3.313436 2.059378,3.065187 1.120831,-2.520381 9.36103,1.304161 1.740448,1.806201 0.240636,0.782242 -0.684751,2.461211 -1.444054,3.82495 1.596659,0.132626 4.33133,-0.450819 3.266226,1.329578 z"
     id="path1"
     sodipodi:nodetypes="cccccccccccccccccccc" /></svg>
