<svg xmlns="http://www.w3.org/2000/svg" xml:space="preserve" viewBox="0 0 48 48"><path d="M7.957 15.707a1.608 1.608 0 1 0 0 3.214h3.53a1.608 1.608 0 1 0 0-3.214zM5.108 22.392a1.608 1.608 0 1 0 0 3.214h3.209a1.608 1.608 0 1 0 0-3.214z" style="color:#000;fill:none;fill-opacity:.841836;stroke:#fff;stroke-width:1;stroke-linecap:round;stroke-linejoin:round;stroke-dashoffset:1.3;stroke-opacity:1;-inkscape-stroke:none"/><path d="M23.668 20.657c0 .958-.72 1.735-1.608 1.735h-8.653a1.608 1.608 0 1 0 0 3.214h2.25c.888 0 1.608.777 1.608 1.736 0 .96-.72 1.737-1.608 1.737H5.588a1.608 1.608 0 1 0 0 3.214H41.77c5.304 0 1.83-6.612-1.676-10.175-3.266-3.317-7.753-6.41-12.41-6.41H16.435a1.608 1.608 0 1 0 0 3.213h5.625c.888 0 1.608.777 1.608 1.736" style="color:#000;fill:none;fill-opacity:.841836;stroke:#fff;stroke-width:1;stroke-linecap:round;stroke-linejoin:round;stroke-dashoffset:1.3;stroke-opacity:1;-inkscape-stroke:none"/><path d="M35.88 18.921h-5.624c-.888 0-1.608.777-1.608 1.736 0 .958.72 1.735 1.608 1.735h9.52" style="color:#000;fill:none;fill-opacity:.841836;stroke:#fff;stroke-width:1;stroke-linecap:round;stroke-linejoin:round;stroke-dashoffset:1.3;stroke-opacity:1;-inkscape-stroke:none"/></svg>