<?xml version="1.0" encoding="UTF-8"?><svg id="a" xmlns="http://www.w3.org/2000/svg" viewBox="0 0 48 48"><defs><style>.c{fill:none;stroke:#fff;stroke-linecap:round;stroke-linejoin:round;}</style></defs><path id="b" class="c" d="M41,31.26V8c0-2.2091-1.7909-4-4-4H8c-2.2091,0-4,1.7909-4,4v29c0,2.2091,1.7909,4,4,4h23.299"/><rect class="c" x="31.565" y="18.841" width="5.4351" height="7.2015" rx="2.7175" ry="2.7175"/><rect class="c" x="15.422" y="18.841" width="5.4351" height="7.2015" rx="2.7175" ry="2.7175"/><line class="c" x1="8" y1="15.173" x2="8" y2="26.043"/><line class="c" x1="8.0011" y1="23.734" x2="12.921" y2="18.838"/><line class="c" x1="9.567" y1="22.175" x2="13.435" y2="26.026"/><path class="c" d="M23.45,21.559c0-1.5009,1.2167-2.7175,2.7175-2.7175s2.7175,1.2167,2.7175,2.7175v1.7664c0,1.5009-1.2167,2.7175-2.7175,2.7175s-2.7175-1.2167-2.7175-2.7175"/><line class="c" x1="23.45" y1="26.043" x2="23.45" y2="15.173"/><circle class="c" cx="37" cy="37" r="7"/><path class="c" d="M34.35,41v-8h2.619c1.4807,0,2.681,1.2029,2.681,2.6867s-1.2003,2.6867-2.681,2.6867h-2.619"/><line class="c" x1="36.97" y1="38.373" x2="39.59" y2="40.998"/></svg>