<?xml version="1.0" encoding="UTF-8"?><svg id="a" xmlns="http://www.w3.org/2000/svg" viewBox="0 0 48 48"><defs><style>.d{fill:none;stroke:#fff;stroke-linecap:round;stroke-linejoin:round;}</style></defs><path class="d" d="m22.674 6.002-15.5 13.729a2.0002 2.0002 0 00-.67383 1.498v19.271a2.0002 2.0002 0 002 2h31a2.0002 2.0002 0 002-2v-19.271a2.0002 2.0002 0 00-.67383-1.498l-15.5-13.729a2.0002 2.0002 0 00-2.6523 0z"/><path class="d" d="m41.5 15.327v-8.3274c-8.3e-5-.82839-.67161-1.4999-1.5-1.5h-4.5c-.82839 8.28e-5-1.4999.67161-1.5 1.5v1.6846"/><path class="d" d="m31.645 20.229-7.6448 11.135-7.6448-11.135"/><line class="d" x1="24" x2="24" y1="42.5" y2="31.365"/><line class="d" x1="16.788" x2="31.212" y1="31.365" y2="31.365"/><line class="d" x1="16.788" x2="31.212" y1="36.932" y2="36.932"/></svg>
