<?xml version="1.0" encoding="UTF-8"?><svg id="a" xmlns="http://www.w3.org/2000/svg" viewBox="0 0 48 48"><defs><style>.c{fill:none;stroke:#fff;stroke-linecap:round;stroke-linejoin:round;}</style></defs><path id="b" class="c" d="m42.5 32.76-1e-6 -23.26c0-2.2091-1.7909-4-4-4h-29c-2.2091 0-4 1.7909-4 4v29c0 2.2091 1.7909 4 4 4h23.299" fill="none"/><rect class="c" x="33.065" y="20.341" width="5.4351" height="7.2015" rx="2.7175" ry="2.7175"/><rect class="c" x="16.922" y="20.341" width="5.4351" height="7.2015" rx="2.7175" ry="2.7175"/><line class="c" x1="9.5" x2="9.5" y1="16.673" y2="27.543"/><line class="c" x1="9.5011" x2="14.421" y1="25.234" y2="20.338"/><line class="c" x1="11.067" x2="14.935" y1="23.675" y2="27.526"/><path class="c" d="m24.95 23.059c0-1.5009 1.2167-2.7175 2.7175-2.7175 1.5009 0 2.7175 1.2167 2.7175 2.7175v1.7664c0 1.5009-1.2167 2.7175-2.7175 2.7175-1.5009 0-2.7175-1.2167-2.7175-2.7175"/><line class="c" x1="24.95" x2="24.95" y1="27.543" y2="16.673"/><circle class="c" cx="38.5" cy="38.5" r="7"/><path class="c" d="m35.85 42.5v-8h2.619c1.4807 0 2.681 1.2029 2.681 2.6867s-1.2003 2.6867-2.681 2.6867h-2.619"/><line class="c" x1="38.47" x2="41.09" y1="39.873" y2="42.498"/></svg>
