<svg xmlns="http://www.w3.org/2000/svg" xml:space="preserve" id="svg1" version="1.1" viewBox="0 0 48 48"><defs id="defs1"><style id="style1">.a{fill:none;stroke:#fff;stroke-linecap:round;stroke-linejoin:round}</style></defs><path id="path4233" d="M39.016 19.496C39.016 11.214 32.3 4.5 24 4.5S8.984 11.214 8.984 19.496C8.984 26.97 15.395 37.734 24 43.5c8.605-5.766 15.016-16.529 15.016-24.004z" style="fill:none;stroke:#fff;stroke-width:1;stroke-linecap:round;stroke-linejoin:round;stroke-dashoffset:1.3"/><path id="path4231" d="M21.106 20.224c-2.129 1.14-4.442-.275-3.708-2.887 1.478-.329 3.847.41 3.847 1.803v2.085c.006.901 1.563 3.008 2.755 4.127 1.192-1.12 2.749-3.226 2.755-4.127V19.14c0-1.394 2.37-2.132 3.847-1.803.734 2.612-1.58 4.027-3.708 2.887" style="fill:none;stroke:#fff;stroke-width:1;stroke-linecap:round;stroke-linejoin:round;stroke-dashoffset:1.3"/><path id="path4229" d="M31.601 11.478a10.58 10.578 0 0 1 2.978 7.357v0A10.58 10.578 0 0 1 24 29.413a10.58 10.578 0 0 1-10.58-10.578 10.58 10.578 0 0 1 2.982-7.361" style="fill:none;stroke:#fff;stroke-width:1;stroke-linecap:round;stroke-linejoin:round;stroke-dashoffset:1.3"/><path id="path4207" d="M32.46 12.61c-3.286-.142-6.233.556-8.46 2.64-2.227-2.084-5.174-2.782-8.46-2.64" style="fill:none;stroke:#fff;stroke-width:1;stroke-linecap:round;stroke-linejoin:round;stroke-dashoffset:1.3"/></svg>