<svg xmlns="http://www.w3.org/2000/svg" xml:space="preserve" viewBox="0 0 48 48"><path d="m28.178882 36.523122 4.778632 4.015942 11.217185-14.074053M32.830146 13.678644v2.978029m-2.618572-3.118399h5.237142c.783583 0 1.414409.630826 1.414409 1.414409v.429951c0 .783582-.630826 1.414409-1.414409 1.414409h-5.237142c-.783583 0-1.414409-.630827-1.414409-1.414409v-.429951c0-.783583.630826-1.414409 1.414409-1.414409m-2.056662 3.25877h11.440825v3.07457H28.596892m-12.338233 3.133428v2.723382h-2.725684v3.1815h2.725684v2.723383h3.179198v-2.723383h2.725685v-3.1815h-2.725685v-2.723382ZM7.1937263 36.83584H26.021031M7.1937263 18.903443H28.502692M11.335346 5.684571h13.02573v3.0714557h-13.02573zm25.903006 32.742317c1.108575-.412586 1.89421-1.478105 1.89421-2.733862m0-5.952534V19.87147M13.329225 8.7560267v1.9182353c-3.3742197 1.509082-6.1354987 5.082744-6.1354987 8.626205v19.478938c0 1.958957 1.5770665 3.536024 3.5360257 3.536024h14.236917c1.70003 0 3.112451-1.187719 3.456127-2.782019m.0799-5.346513v-14.88643c0-3.543461-2.761278-7.117123-6.135494-8.626205V8.7560267" style="fill:none;stroke:#fff;stroke-width:1;stroke-linecap:round;stroke-linejoin:round;stroke-dashoffset:1.3;stroke-opacity:1"/></svg>