<svg xmlns="http://www.w3.org/2000/svg" xml:space="preserve" width="48" height="48"><path fill="none" stroke="#fff" stroke-linecap="round" stroke-linejoin="round" d="m19.453 30.571.02 1.543c.02 1.504-1.097 2.62-2.473 2.62s-3.017-1.227-2.362-3.02l6.302-17.282c.37-1.004 1.548-2.545 3.06-2.545s2.69 1.541 3.06 2.545l6.302 17.281c.654 1.794-.986 3.021-2.362 3.021s-2.492-1.116-2.473-2.62l.02-1.543c0-.086-.036-.167-.15-.21a.52.52 0 0 0-.461.101l-.755.754a1 1 0 0 1-1.414 0l-1.06-1.058a1 1 0 0 0-1.414 0l-1.06 1.058a1 1 0 0 1-1.415 0l-.754-.754a.52.52 0 0 0-.462-.102c-.114.044-.15.125-.15.211zM24 18.182c.442 0 .602.464.72.803l1.98 5.74c.136.394-.117.748-.613.975-.349.16-.86.4-2.087.4s-1.738-.24-2.087-.4v0c-.497-.227-.75-.581-.614-.975l1.981-5.74c.118-.34.278-.803.72-.803M9.5 5.5h29c2.216 0 4 1.784 4 4v29c0 2.216-1.784 4-4 4h-29c-2.216 0-4-1.784-4-4v-29c0-2.216 1.784-4 4-4"/></svg>
