<?xml version="1.0" encoding="UTF-8" standalone="no"?>
<svg
   id="b"
   viewBox="0 0 48 48"
   version="1.1"
   sodipodi:docname="real_racing_2.svg"
   inkscape:version="1.4.2 (ebf0e940d0, 2025-05-08)"
   xmlns:inkscape="http://www.inkscape.org/namespaces/inkscape"
   xmlns:sodipodi="http://sodipodi.sourceforge.net/DTD/sodipodi-0.dtd"
   xmlns="http://www.w3.org/2000/svg"
   xmlns:svg="http://www.w3.org/2000/svg">
  <sodipodi:namedview
     id="namedview7"
     pagecolor="#ffffff"
     bordercolor="#000000"
     borderopacity="0.25"
     inkscape:showpageshadow="2"
     inkscape:pageopacity="0.0"
     inkscape:pagecheckerboard="0"
     inkscape:deskcolor="#d1d1d1"
     inkscape:zoom="16.333333"
     inkscape:cx="24"
     inkscape:cy="24"
     inkscape:window-width="1920"
     inkscape:window-height="996"
     inkscape:window-x="0"
     inkscape:window-y="0"
     inkscape:window-maximized="1"
     inkscape:current-layer="b" />
  <defs
     id="defs1">
    <style
       id="style1">.c{fill:none;stroke:#fff;stroke-linecap:round;stroke-linejoin:round;}</style>
  </defs>
  <path
     class="c"
     d="m 4.9457,13.761 c 0,-1.6355 1.4816,-2.925 3.1759,-2.5994 1.1113,0.2136 1.9988,1.1747 2.1094,2.301 0.0823,0.8378 -0.1828,1.6644 -0.7615,2.1722 -1.072,0.9408 -4.5238,3.4762 -4.5238,3.4762 h 5.3"
     id="path7" />
  <g
     id="g9">
    <path
       class="c"
       d="m 5.8383,26.0426 c 1.9799,-3.2481 5.8798,-4.7813 9.5417,-3.7512 1.4865,0.21 2.9978,0.1672 4.47,-0.1266 1.1212,-1.2833 1.09,-1.9678 3.688,-2.7089 2.598,-0.7411 9.9536,-0.0676 10.2332,-0.001 1.7999,0.2226 3.4023,1.2479 4.3586,2.7889 0,0 4.43,-0.9286 4.9113,1.655"
       id="path1-3"
       style="fill:none;stroke:#ffffff;stroke-linecap:round;stroke-linejoin:round" />
    <path
       class="c"
       d="m 5.8383,26.0426 c 0,0 -1.3887,0.35 -0.8612,2.6056 0.5275,2.2556 -0.7591,2.1736 -0.419,3.2728 0.3401,1.0992 0.7847,1.9655 3.1009,2.7387 3.6765,1.193 7.4958,1.8903 11.3567,2.0734 3.0733,0.3346 6.1815,0.1296 9.1843,-0.6058 0,0 -0.1144,-7.6889 2.0082,-9.7934 2.1226,-2.1045 3.5151,-0.2917 3.6228,1.12 0.1419,2.1902 -0.2364,4.383 -1.1039,6.3991 l 8.2509,-3.9713 c -0.2377,-0.1753 -0.2144,-6.6718 1.8022,-5.9081 0.96,0.3638 0.6827,3.2882 0.6827,3.2882"
       id="path2-6"
       style="fill:none;stroke:#ffffff;stroke-linecap:round;stroke-linejoin:round" />
    <path
       class="c"
       d="m 19.0076,28.1643 c 0,0 -2.4065,1.5648 0.0919,1.4154 2.4984,-0.1494 3.6757,0.04 5.5879,-1.7616 1.9122,-1.8016 2.6659,-2.4744 0.1981,-2.3772 -2.4678,0.0972 -5.8779,2.7234 -5.8779,2.7234 z"
       id="path3-1"
       style="fill:none;stroke:#ffffff;stroke-linecap:round;stroke-linejoin:round" />
    <path
       class="c"
       d="m 5.8383,26.0426 c 0.8194,0.6758 3.12,1.5855 3.5148,-2.9026"
       id="path4-2"
       style="fill:none;stroke:#ffffff;stroke-linecap:round;stroke-linejoin:round" />
    <path
       class="c"
       d="m 28.5253,35.4553 c 0,0 2.5278,1.9752 4.2016,-1.6018"
       id="path5-9"
       style="fill:none;stroke:#ffffff;stroke-linecap:round;stroke-linejoin:round" />
    <path
       class="c"
       d="m 40.9778,29.8822 c 0,0 2.2412,1.8782 2.4849,-2.62"
       id="path6-3"
       style="fill:none;stroke:#ffffff;stroke-linecap:round;stroke-linejoin:round" />
  </g>
</svg>
