<?xml version="1.0" encoding="UTF-8" standalone="no"?>
<svg
   viewBox="0 0 48 48"
   version="1.1"
   id="svg1"
   xml:space="preserve"
   xmlns="http://www.w3.org/2000/svg"
   xmlns:svg="http://www.w3.org/2000/svg"><defs
     id="defs1"><style
       id="style1">.a{fill:none;stroke:#fff;stroke-linecap:round;stroke-linejoin:round;}</style></defs><path
     style="fill:none;stroke:#ffffff;stroke-width:0.999999;stroke-linecap:round;stroke-linejoin:round;stroke-dashoffset:0.5"
     d="M 9.231093,30.22761 C 13.97694,28.874825 18.3554,28.779877 21.862395,31.668616"
     id="path3-5" /><path
     style="fill:none;stroke:#ffffff;stroke-width:0.999999;stroke-linecap:round;stroke-linejoin:round;stroke-dashoffset:0.5"
     d="M 9.231093,27.249043 C 13.97694,25.896258 18.3554,25.80131 21.862395,28.690049"
     id="path3-8" /><path
     style="fill:none;stroke:#ffffff;stroke-width:0.999999;stroke-linecap:round;stroke-linejoin:round;stroke-dashoffset:0.5"
     d="M 9.231093,24.349992 C 13.97694,22.997208 18.3554,22.90226 21.862395,25.790998"
     id="path3-24" /><path
     style="fill:none;stroke:#ffffff;stroke-width:0.999999;stroke-linecap:round;stroke-linejoin:round;stroke-dashoffset:0.5"
     d="M 9.231093,21.235845 C 13.97694,19.883061 18.3554,19.788113 21.862395,22.676851"
     id="path3-4" /><path
     style="fill:none;stroke:#ffffff;stroke-width:0.999999;stroke-linecap:round;stroke-linejoin:round;stroke-dashoffset:0.5"
     d="M 9.231093,18.199752 C 13.97694,16.846968 18.3554,16.75202 21.862395,19.640758"
     id="path3-2" /><path
     style="fill:none;stroke:#ffffff;stroke-width:0.999999;stroke-linecap:round;stroke-linejoin:round;stroke-dashoffset:0.5"
     d="M 5.5,9.6400153 5.616598,38.265405 c 6.889353,-2.909341 13.067842,-2.54192 18.402834,1.71363 5.656773,-3.266674 11.574973,-5.009156 18.36397,-1.674684 L 42.5,9.9515853 C 36.773166,7.7075613 30.536858,6.5842693 24.019432,11.236805 18.85499,7.3884523 12.035829,7.2611913 5.5,9.6400153 Z"
     id="path2" /><path
     style="fill:none;stroke:#ffffff;stroke-width:0.999999;stroke-linecap:round;stroke-linejoin:round;stroke-dashoffset:0.5"
     d="M 9.231093,15.365093 C 13.97694,14.012308 18.3554,13.91736 21.862395,16.806099"
     id="path3" /><path
     style="fill:none;stroke:#ffffff;stroke-width:0.999999;stroke-linecap:round;stroke-linejoin:round;stroke-dashoffset:0.5"
     d="m 26.487394,24.003638 c -0.07772,2.72972 1.626068,4.635497 4.236345,6.122031 l 5.480042,-0.657104 c 3.441324,-2.470337 3.409986,-4.841248 3.30357,-7.210011 z"
     id="path4" /><path
     style="fill:none;stroke:#ffffff;stroke-width:0.999999;stroke-linecap:round;stroke-linejoin:round;stroke-dashoffset:0.5"
     d="m 27.925419,16.339152 -1.47689,4.069706 c 1.734683,0.102687 3.565425,-0.660923 5.110819,1.14891 l 1.04937,-2.784646 c -2.431297,0.204116 -3.471711,-1.395969 -4.683299,-2.43397 z"
     id="path5" /></svg>
