<?xml version="1.0" encoding="UTF-8" standalone="no"?>
<svg
   id="Layer_1"
   data-name="Layer 1"
   version="1.1"
   viewBox="0 0 48 48"
   sodipodi:docname="red.svg"
   inkscape:version="1.4.2 (ebf0e940d0, 2025-05-08)"
   xmlns:inkscape="http://www.inkscape.org/namespaces/inkscape"
   xmlns:sodipodi="http://sodipodi.sourceforge.net/DTD/sodipodi-0.dtd"
   xmlns="http://www.w3.org/2000/svg"
   xmlns:svg="http://www.w3.org/2000/svg">
  <sodipodi:namedview
     id="namedview1"
     pagecolor="#ffffff"
     bordercolor="#000000"
     borderopacity="0.25"
     inkscape:showpageshadow="2"
     inkscape:pageopacity="0.0"
     inkscape:pagecheckerboard="0"
     inkscape:deskcolor="#d1d1d1"
     inkscape:zoom="6.2305931"
     inkscape:cx="18.778309"
     inkscape:cy="12.518872"
     inkscape:window-width="1366"
     inkscape:window-height="706"
     inkscape:window-x="0"
     inkscape:window-y="0"
     inkscape:window-maximized="1"
     inkscape:current-layer="Layer_1" />
  <defs
     id="defs1">
    <style
       id="style1">
      .cls-1 {
        fill: none;
        stroke: #fff;
        stroke-linecap: round;
        stroke-linejoin: round;
      }
    </style>
  </defs>
  <rect
     class="cls-1"
     x="5.5"
     y="5.5"
     width="37"
     height="37"
     rx="4"
     ry="4"
     id="rect1" />
  <path
     class="r"
     d="m 12.400272,23.503356 c 0,-1.919482 1.556048,-3.47553 3.475533,-3.47553 h 1.7e-5"
     id="path41"
     style="fill:none;stroke:#ffffff;stroke-width:1;stroke-linecap:round;stroke-linejoin:round;stroke-dasharray:none" />
  <line
     class="r"
     x1="12.400272"
     y1="20.027821"
     x2="12.400272"
     y2="29.237986"
     id="line41"
     style="fill:none;stroke:#ffffff;stroke-width:1;stroke-linecap:round;stroke-linejoin:round;stroke-dasharray:none" />
  <path
     class="r"
     d="m 25.538748,27.484086 c -0.598609,1.04773 -1.726749,1.753901 -3.019838,1.753901 h -1.8e-5 c -1.919484,0 -3.475515,-1.556048 -3.475515,-3.475529 v -2.259102 c 0,-1.919482 1.556031,-3.47553 3.475515,-3.47553 h 1.8e-5 c 1.919483,0 3.475532,1.556048 3.475532,3.47553 v 1.129551 c 0,0 -6.951065,0 -6.951065,0"
     id="path77"
     style="fill:none;stroke:#ffffff;stroke-width:1;stroke-linecap:round;stroke-linejoin:round;stroke-dasharray:none" />
  <path
     class="r"
     d="m 36.653719,23.503356 c 0,-1.919482 -1.556048,-3.47553 -3.475533,-3.47553 h -1.6e-5 c -1.919484,0 -3.475515,1.556048 -3.475515,3.47553 v 2.259102 c 0,1.919481 1.556031,3.475529 3.475515,3.475529 h 1.6e-5 c 1.919485,0 3.475533,-1.556048 3.475533,-3.475529"
     id="path88"
     style="fill:none;stroke:#ffffff;stroke-width:1;stroke-linecap:round;stroke-linejoin:round;stroke-dasharray:none" />
  <line
     class="r"
     x1="36.653713"
     y1="29.237986"
     x2="36.653713"
     y2="15.335859"
     id="line88"
     style="fill:none;stroke:#ffffff;stroke-width:1;stroke-linecap:round;stroke-linejoin:round;stroke-dasharray:none" />
</svg>
