<svg viewBox="0 0 48 48" version="1.1" id="svg1" xml:space="preserve" xmlns="http://www.w3.org/2000/svg"><defs id="defs1"><style id="style1">.a{fill:none;stroke:#fff;stroke-linecap:round;stroke-linejoin:round}</style></defs><path style="display:inline;fill:none;stroke:#fff;stroke-linecap:round;stroke-linejoin:round" d="M10.153 31.262h4.497V20.216c0-.814.096-1.63.78-2.314.685-.684 1.336-.761 2.072-.761h2.673v-4.497H16.34c-1.22 0-2.977.546-4.423 1.992-1.446 1.446-1.763 3.172-1.763 4.752v11.874z" id="path1"/><path style="display:inline;fill:none;stroke:#fff;stroke-linecap:round;stroke-linejoin:round" d="M22.394 7.543v16.813c0 2.13 1.093 4.753 2.548 6.02 1.455 1.267 3.818 2.389 6.005 2.437 2.187.048 4.945-1.262 6.74-3.123 1.795-1.86 2.223-4.88 2.188-7.559-.035-2.677-.962-5.22-2.346-6.806-1.384-1.587-2.89-2.45-4.849-2.453-1.958-.004-5.647 2.83-5.647 2.83V9.855c0-.77.055-1.238-.454-1.748-.51-.51-.89-.563-1.561-.563h-2.624z" id="path2"/><path id="path3" style="display:inline;fill:none;stroke:#fff;stroke-width:1.16351;stroke-linecap:round;stroke-linejoin:round" d="M34.961 23.071a3.782 6.119 0 0 1-3.782 6.119 3.782 6.119 0 0 1-3.782-6.119 3.782 6.119 0 0 1 3.782-6.119 3.782 6.119 0 0 1 3.782 6.119z"/><path style="fill:none;stroke:#fff;stroke-linecap:round;stroke-linejoin:round" d="M14.72 35.577c6.376 5.06 12.558 4.926 18.56 0-7.881 2.982-13.507 1.96-18.56 0z" id="path4"/></svg>