<svg xmlns="http://www.w3.org/2000/svg" xml:space="preserve" width="48" height="48"><path fill="none" stroke="#fff" stroke-linecap="round" stroke-linejoin="round" d="M18.093 20.335a12.326 18.488 0 0 1 5.912-12.341m0 0a12.326 18.488 0 0 1 6.17-2.483A12.326 18.488 0 0 1 42.5 24v0a12.326 18.488 0 0 1-12.326 18.488 12.326 18.488 0 0 1-6.188-2.499M34.893 19.2 39.7 24m-4.807 4.799 4.807-4.8H8.3l4.807 4.8m0-9.599L8.3 24m21.606 3.664a12.326 18.488 0 0 1-5.912 12.341m0 0a12.326 18.488 0 0 1-6.17 2.483A12.326 18.488 0 0 1 5.5 24 12.326 18.488 0 0 1 17.825 5.512a12.326 18.488 0 0 1 6.189 2.5m2.492 2.864A12.326 18.488 0 0 1 30.15 24M21.5 37.136A12.326 18.488 0 0 1 17.847 24"/></svg>
