<?xml version="1.0" encoding="UTF-8"?><svg id="b" xmlns="http://www.w3.org/2000/svg" viewBox="0 0 48 48"><defs><style>.r,.s{fill:none;stroke:#fffffa;stroke-linecap:round;}.s{stroke-linejoin:round;}</style></defs><g id="d"><path id="e" class="s" d="M16.1408,6.6463l-10.3073,30.0044"/><path id="f" class="r" d="M7.7842,38.6046l25.6708-11.6284"/><path id="g" class="r" d="M13.8132,23.4022l15.6624,18.6579"/><path id="h" class="r" d="M14.1466,21.4155l25.8496-11.8666"/><path id="i" class="r" d="M42.2022,11.2721l-10.2046,30.3319"/><path id="j" class="s" d="M16.1408,6.6463c.0762-.2599.2198-.4997.4131-.6895.1932-.1898.4356-.3291.6968-.4007.2931-.0802.6092-.0744.8992.0166s.5527.2669.7474.5003"/><path id="k" class="r" d="M18.8972,6.0731l15.1974,18.658"/><path id="l" class="s" d="M5.8335,36.6507c-.0846.2685-.0946.5601-.0285.8338.0661.2736.2081.5285.406.7288.1997.2021.4559.3479.7316.4166.2758.0686.5703.0598.8415-.0252"/><path id="m" class="s" d="M29.4756,42.0601c.3416.3277.8357.4892,1.3049.4266.5176-.069.9907-.4122,1.2171-.8828"/><path id="n" class="s" d="M39.9963,9.5489c.3043-.1527.6598-.2011.9938-.1353.3341.0658.6446.2453.8683.502.318.3648.4496.8842.3437,1.3564"/><path id="o" class="s" d="M13.8132,23.4022c-.1588-.1716-.2689-.3877-.3144-.617-.0455-.2293-.0261-.4711.0552-.6903.1069-.288.3218-.5344.5927-.6794"/><path id="p" class="s" d="M33.455,26.9763c.2314-.0701.4437-.202.6092-.3782s.2837-.3965.3392-.6318c.1011-.4291-.0176-.9042-.3088-1.2352"/><path id="q" class="s" d="M26.5897,15.7539l-5.2499,16.7611"/></g></svg>