<svg xmlns="http://www.w3.org/2000/svg" xml:space="preserve" style="clip-rule:evenodd;stroke-linecap:round;stroke-linejoin:round;stroke-miterlimit:1.5" viewBox="0 0 48 48"><path d="M686 0h48v48h-48z" style="fill:none" transform="translate(-686)"/><path d="M13.83 11.872v9.013l6.057-1.441" style="fill:none;stroke:#fff;stroke-width:1px"/><path d="M24.324 11.872h3" style="fill:none;stroke:#fff;stroke-width:1px" transform="matrix(1.00057 0 0 1 -.047 .135)"/><path d="M24.324 11.872h3" style="fill:none;stroke:#fff;stroke-width:1px" transform="matrix(1.00057 0 0 1 -.047 3.782)"/><path d="M33.653 12.136c.018.999.129 4.34-.919 6.443-1.608 3.227-5.045 3.515-5.716 3.515" style="fill:none;stroke:#fff;stroke-width:.99px" transform="matrix(1.06508 0 0 .95785 -2.576 0)"/><path d="M12.971 31.245h6.174v8.03h-6.174" style="fill:none;stroke:#fff;stroke-width:.93px" transform="matrix(1.07241 0 0 1.0684 -.94 -2.687)"/><path d="m26.312 35.059 7.888-.235" style="fill:none;stroke:#fff;stroke-width:1.01px" transform="matrix(.98788 .0298 -.02945 .99956 1.268 -.886)"/><ellipse cx="33.153" cy="8.465" rx=".607" ry=".657" style="fill:#fff" transform="matrix(1.2365 0 0 1.14187 -7.775 -1.224)"/><ellipse cx="33.153" cy="8.465" rx=".607" ry=".657" style="fill:#fff" transform="matrix(1.2365 0 0 1.14187 -21.57 16.968)"/><ellipse cx="33.153" cy="8.465" rx=".607" ry=".657" style="fill:#fff" transform="matrix(1.2365 0 0 1.14187 -4.567 -1.224)"/><ellipse cx="33.153" cy="8.465" rx=".607" ry=".657" style="fill:#fff" transform="matrix(1.2365 0 0 1.14187 -18.362 16.968)"/></svg>