<?xml version="1.0" encoding="UTF-8"?><svg id="a" xmlns="http://www.w3.org/2000/svg" viewBox="0 0 48 48"><defs><style>.e{fill:none;stroke:#fff;stroke-linecap:round;stroke-linejoin:round;}</style></defs><path class="e" d="M4.53346142,25.32028734c6.93133411-5.0652057,28.65840066-10.1304114,38.96653858-7.10906063-3.6878252-2.97691914-7.90882995-2.84362425-7.90882995-2.84362425-5.73168013-5.82054339-8.26428298-7.46451366-15.24004873-7.95326158-8.30871461,2.44373959-10.01603081,10.0240053-10.39700117,12.61858262-6.22042805,3.19907728-5.42065873,5.28736384-5.42065873,5.28736384Z"/><path class="e" d="M38.48068013,17.38948123c4.04473243,6.10958864,4.08625567,18.28337565,2.08683236,22.28222225-5.99826991.71090606-10.05609798.03664807-10.05609798.03664807"/><path class="e" d="M9.4619233,22.67466128c.31447034,5.71140846-2.52915391,15.93068312-2.52915391,15.93068312,0,0,5.28736384.75533769,9.90825325-.79976932-1.6884019-4.66532104-2.22158145-11.37449701,1.6884019-14.4402794-1.03858933,2.36598424-1.39404236,4.67642895-.90529444,6.4536941.88863258-3.0657824,4.97634244-7.1443285,4.97634244-7.1443285-1.51067538,2.34571257-1.95499167,5.4559266-1.95499167,5.4559266,1.6884019-2.97691914,4.70975267-4.70975267,4.70975267-4.70975267-1.6884019,3.19907728-.29836989,7.02019737-.29836989,7.02019737.69825455-3.73225683,2.65324622-5.90940665,2.65324622-5.90940665-.17772652,1.9994233.79976932,7.21595833.79976932,7.21595833,1.9994233-2.59506893,3.42123543-5.61641969,3.28794054-8.59333883.75533769,1.55510701,1.10015352,5.95383828,1.10015352,5.95383828"/><path class="e" d="M43.5,18.21122671c-1.06635909,2.08828656-3.25996289,2.84935182-3.25996289,2.84935182"/><path class="e" d="M4.53346142,25.32028734c3.55453031,1.15522235,4.79847283,1.07961398,4.79847283,1.07961398"/><path class="e" d="M30.04277039,31.04085957c.81726202-2.63158371,4.69157615-2.98680904,4.39873126,1.09529713-.11107907,1.54838479-1.73283353,2.54809645-2.94674319,2.24012686-1.14661414-.29089667-1.96789364-1.67420808-1.45198808-3.33542399Z"/><path class="e" d="M37.32955753,27.33081855c-.66647443,4.16546521-3.73225683,10.49697234-3.73225683,10.49697234,0,0-2.86584007,3.0657824-8.96408114,2.73254518-6.09824107-.33323722-7.82307044-1.44641478-9.47659675-2.28942231"/><path class="e" d="M33.89608931,29.74351445c.56762815-1.96837961,1.14523933-4.83810796.83421793-7.06885317.93306421,2.0791228,2.07046964,4.59058843,1.67949344,8.2223348"/><path class="e" d="M24.81094608,36.79753249c1.28851724.13329489,3.05467449,0,3.05467449,0"/><path class="e" d="M17.85739615,32.18775099c-.12079743-2.29228928,3.43234334-4.68844885,5.30957966-1.5328912.9827976,1.65204266-.49985583,3.30337904-2.13271819,3.48788287-1.59226896.17991701-3.09810823-.46054592-3.17686147-1.95499167Z"/><path class="e" d="M11.67029182,19.43031953c2.88805588-1.19965398,8.99806986-3.79890427,21.22768143-3.9988466"/><path class="e" d="M28.35436849,13.27653892c-1.93277586-3.31015636-8.00324716-5.86219804-8.00324716-5.86219804-3.94886102,3.35181101-5.45953641,8.26150601-5.45953641,8.26150601"/></svg>