<?xml version="1.0" encoding="UTF-8"?><svg id="a" xmlns="http://www.w3.org/2000/svg" viewBox="0 0 48 48"><defs><style>.d{fill:none;stroke:#fff;stroke-linecap:round;stroke-linejoin:round;}</style></defs><path class="d" d="m24 2.5a21.5 21.5 0 0 0-21.5 21.5 21.5 21.5 0 0 0 21.5 21.5 21.5 21.5 0 0 0 21.264-18.5h-7.0996a14.5 14.5 0 0 1-14.164 11.5 14.5 14.5 0 0 1-14.5-14.5 14.5 14.5 0 0 1 14.5-14.5 14.5 14.5 0 0 1 14.184 11.5h7.1055a21.5 21.5 0 0 0-21.289-18.5z"/><circle class="d" cx="24" cy="24" r="7.5"/><path class="d" d="m15.502 35.717a14.5 8.8518 0 0 1 8.4976-1.6793 14.5 8.8518 0 0 1 8.4761 1.6699"/></svg>
