<svg xmlns="http://www.w3.org/2000/svg" xml:space="preserve" style="clip-rule:evenodd;stroke-linecap:round;stroke-linejoin:round" viewBox="0 0 48 48"><path d="M784 0h48v48h-48z" style="fill:none" transform="translate(-784)"/><g><circle cx="24" cy="24" r="21.5" style="fill:none;stroke:#fff;stroke-width:1px"/><path d="M31.401 12.243c.858 4.661.561 18.346-.333 22.4-.402 1.822-1.842 3.754-3.582 4.013-1.737.258-4.325.273-5.845 0-1.731-.311-3.281-2.171-3.581-4.013-.765-4.684-1.106-18.23-.333-22.4.34-1.838 2.209-3.583 3.914-4.013 1.455-.367 4.026-.33 5.845 0 1.731.314 3.576 2.175 3.915 4.013" style="fill:none;stroke:#fff;stroke-width:.95px;stroke-miterlimit:1.5" transform="matrix(1.06478 0 0 1.03864 -2.155 -.928)"/><path d="M30.404 23.383c-.131 1.973-.328 3.66-.575 4.632-.181.71-.598 1.442-1.165 2.02-.56.57-1.268.99-2.041 1.089-1.556.2-3.873.212-5.233 0-1.55-.241-2.937-1.682-3.206-3.109-.202-1.07-.371-2.737-.491-4.638" style="fill:none;stroke:#fff;stroke-width:1px;stroke-miterlimit:1.5"/><ellipse cx="21.511" cy="34.687" rx=".708" ry=".572" style="fill:#fff" transform="matrix(-1.06001 0 0 1.31028 46.802 -9.25)"/><ellipse cx="21.511" cy="34.687" rx=".708" ry=".572" style="fill:#fff" transform="matrix(-1.06001 0 0 1.31028 44.302 -9.25)"/><ellipse cx="21.511" cy="34.687" rx=".708" ry=".572" style="fill:#fff" transform="matrix(-1.06001 0 0 1.31028 49.302 -9.25)"/><ellipse cx="21.511" cy="34.687" rx=".708" ry=".572" style="fill:#fff" transform="matrix(-1.06001 0 0 1.31028 48.052 -11.75)"/><ellipse cx="21.511" cy="34.687" rx=".708" ry=".572" style="fill:#fff" transform="matrix(-1.06001 0 0 1.31028 45.552 -11.75)"/><ellipse cx="21.511" cy="34.687" rx=".708" ry=".572" style="fill:#fff" transform="matrix(-1.06001 0 0 1.31028 43.052 -11.75)"/><ellipse cx="21.511" cy="34.687" rx=".708" ry=".572" style="fill:#fff" transform="matrix(-1.06001 0 0 1.31028 50.552 -11.75)"/></g></svg>