<?xml version="1.0" encoding="UTF-8"?>
<svg data-name="Layer 1" version="1.1" viewBox="0 0 48 48" xmlns="http://www.w3.org/2000/svg">
 <defs>
  <style>.cls-1 {
        fill: none;
        stroke: #fff;
        stroke-linecap: round;
        stroke-linejoin: round;
      }</style>
 </defs>
 <rect class="cls-1" x="8.3433" y="15.854" width="31.797" height="25.274" rx="3.2612" ry="3.2612" stroke-width=".92315"/>
 <rect class="cls-1" x="9.6401" y="18.27" width="23.886" height="20.348" rx="2.4498" ry="2.6256" stroke-width=".92315"/>
 <g fill="none" stroke="#fff" stroke-linecap="round" stroke-linejoin="round">
  <path d="m10.135 28.205h9.9247v-10.054" stroke-width=".92315"/>
  <path d="m32.984 28.205h-12.801" stroke-width=".92315"/>
  <path transform="matrix(.92315 0 0 .92315 2.1273 3.503)" d="m15.499 24.846-2.1491-1.435-2.4005 0.95684 0.70068-2.4874-1.6518-1.9873 2.5821-0.10225 1.3796-2.1851 0.89517 2.4242 2.5045 0.63687-2.0289 1.6005z"/>
  <path d="m22.486 14.758-9.8206-9.2706" stroke-width=".92315"/>
 </g>
 <g fill="#fff">
  <path d="m21.39 14.296a1.5394 1.539 0 0 1 1.949-0.9577 1.5394 1.539 0 0 1 0.96757 1.9437 1.5394 1.539 0 0 1-1.9394 0.97692 1.5394 1.539 0 0 1-0.98674-1.9341"/>
  <path d="m35.24 22.476a1.5394 1.539 0 0 1 1.949-0.9577 1.5394 1.539 0 0 1 0.96757 1.9437 1.5394 1.539 0 0 1-1.9394 0.97692 1.5394 1.539 0 0 1-0.98674-1.9341"/>
  <path d="m35.24 28.015a1.5394 1.539 0 0 1 1.949-0.9577 1.5394 1.539 0 0 1 0.96757 1.9437 1.5394 1.539 0 0 1-1.9394 0.97692 1.5394 1.539 0 0 1-0.98674-1.9341"/>
  <path d="m35.24 33.554a1.5394 1.539 0 0 1 1.949-0.9577 1.5394 1.539 0 0 1 0.96757 1.9437 1.5394 1.539 0 0 1-1.9394 0.97692 1.5394 1.539 0 0 1-0.98674-1.9341"/>
 </g>
 <g fill="none" stroke="#fff" stroke-linecap="round" stroke-linejoin="round" stroke-width=".92315">
  <path d="m23.743 14.758 9.8206-9.2706"/>
  <path d="m12.079 41.149-1.1902 2.107h4.3501l-1.131-2.0738"/>
  <path d="m34.235 41.149-1.1902 2.107h4.3501l-1.131-2.0738"/>
 </g>
</svg>
