<?xml version="1.0" encoding="UTF-8" standalone="no"?>
<svg
   id="b"
   viewBox="0 0 48 48"
   version="1.1"
   sodipodi:docname="retro_mode.svg"
   inkscape:version="1.1.2 (0a00cf5339, 2022-02-04)"
   xmlns:inkscape="http://www.inkscape.org/namespaces/inkscape"
   xmlns:sodipodi="http://sodipodi.sourceforge.net/DTD/sodipodi-0.dtd"
   xmlns="http://www.w3.org/2000/svg"
   xmlns:svg="http://www.w3.org/2000/svg">
  <sodipodi:namedview
     id="namedview19"
     pagecolor="#505050"
     bordercolor="#ffffff"
     borderopacity="1"
     inkscape:pageshadow="0"
     inkscape:pageopacity="0"
     inkscape:pagecheckerboard="1"
     showgrid="false"
     inkscape:zoom="13.395833"
     inkscape:cx="24"
     inkscape:cy="23.962675"
     inkscape:window-width="1600"
     inkscape:window-height="783"
     inkscape:window-x="0"
     inkscape:window-y="32"
     inkscape:window-maximized="1"
     inkscape:current-layer="b" />
  <defs
     id="defs4">
    <style
       id="style2">.c{fill:none;stroke:#000;stroke-linecap:round;stroke-linejoin:round;}</style>
  </defs>
  <path
     class="c"
     d="m13.7612,38.496c-.1523-3.5553-1.6007-5.2306-4.3201-5.2306-2.0299,0-3.9411,1.4917-3.9411,3.8848,0,2.163,1.7767,3.8848,3.8848,3.8848h30.6074c2.5079,0,2.5079-1.9627,2.5079-3.0167s-.6906-2.5079-3.5255-2.5079-4.3251,2.9077-4.3251,2.9077"
     id="path6"
     style="stroke:#ffffff;stroke-opacity:1" />
  <path
     class="c"
     d="m19.7417,21.4808c7.5236,7.2828,1.8061,14.2449-7.3985,17.5681"
     id="path8"
     style="stroke:#ffffff;stroke-opacity:1" />
  <path
     class="c"
     d="m24.7816,17.0084c3.7362,3.0507,5.2603,6.3756,5.2603,10.249s-4.079,8.1923-8.2266,10.9002"
     id="path10"
     style="stroke:#ffffff;stroke-opacity:1" />
  <path
     class="c"
     d="m36.5645,36.2868c1.1898-3.8535-5.4232-5.1841-10.6347-1.4339"
     id="path12"
     style="stroke:#ffffff;stroke-opacity:1" />
  <path
     class="c"
     d="m25.244,21.2578l-1.6469,1.6469-3.4481-2.7294-1.076,3.4486,1.4312,2.2618-1.1913,1.1659-2.0415-2.1874c-.5384-.5768-.8378-1.3364-.8378-2.1255v-1.7886c-3.6677-4.0447-6.547-7.4382-6.9926-13.9852,6.547.4456,9.9405,3.3249,13.9852,6.9926h1.7886c.789,0,1.5486.2994,2.1255.8378l2.1874,2.0415-1.0735,1.0969-2.3542-1.3368-3.4486,1.076,2.5927,3.5847Z"
     id="path14"
     style="stroke:#ffffff;stroke-opacity:1" />
  <circle
     class="c"
     cx="16.3994"
     cy="13.8634"
     r="2.4765"
     id="circle16"
     style="stroke:#ffffff;stroke-opacity:1" />
</svg>
