<?xml version="1.0" encoding="UTF-8"?><svg version="1.1" viewBox="0 0 48 48" xmlns="http://www.w3.org/2000/svg"><defs><style>.a{fill:none;stroke:#fff;stroke-linecap:round;stroke-linejoin:round;}</style></defs><circle class="a" cx="24" cy="24" r="21.5"/><circle class="a" cx="24" cy="24" r="4"/><path class="a" d="m9.1976 33.574h29.605"/><path class="a" d="m14.181 38.418h19.638"/><path class="a" d="m12.911 17.758v-8.6012h2.8016c1.5839 0 2.8679 1.2933 2.8679 2.8886s-1.2839 2.8886-2.8679 2.8886h-2.8016"/><line class="a" x1="15.712" x2="18.514" y1="14.934" y2="17.756"/><rect class="a" x="30.81" y="12.06" width="4.2789" height="5.6985" rx="2.1395" ry="2.1395"/><path class="a" d="m23.984 16.674c-.36852.64822-1.063 1.0852-1.859 1.0852-1.1816 0-2.1395-.96275-2.1395-2.1503v-1.3977c0-1.1876.95789-2.1503 2.1395-2.1503s2.1395.96275 2.1395 2.1503v.69886h-4.2789"/><path class="a" d="m25.389 12.056 2.1394 5.698 2.1394-5.698"/></svg>
