<?xml version="1.0" encoding="UTF-8" standalone="no"?>
<svg
   viewBox="0 0 48 48"
   version="1.1"
   id="svg1"
   sodipodi:docname="rider.svg"
   inkscape:version="1.2.2 (b0a8486541, 2022-12-01)"
   xml:space="preserve"
   xmlns:inkscape="http://www.inkscape.org/namespaces/inkscape"
   xmlns:sodipodi="http://sodipodi.sourceforge.net/DTD/sodipodi-0.dtd"
   xmlns="http://www.w3.org/2000/svg"
   xmlns:svg="http://www.w3.org/2000/svg"><sodipodi:namedview
     id="namedview1"
     pagecolor="#505050"
     bordercolor="#eeeeee"
     borderopacity="1"
     inkscape:showpageshadow="0"
     inkscape:pageopacity="0"
     inkscape:pagecheckerboard="0"
     inkscape:deskcolor="#505050"
     inkscape:zoom="17.8125"
     inkscape:cx="29.585965"
     inkscape:cy="31.214035"
     inkscape:window-width="1918"
     inkscape:window-height="1053"
     inkscape:window-x="0"
     inkscape:window-y="0"
     inkscape:window-maximized="1"
     inkscape:current-layer="g1463"
     showgrid="false" /><defs
     id="defs1"><style
       id="style1">.a { fill:none;stroke:#fff;stroke-linecap:round;stroke-linejoin:round; }
</style></defs><g
     id="g1476"><g
       id="g1459"><path
         style="fill:none;stroke:#ffffff;stroke-width:1;stroke-linecap:round;stroke-linejoin:round;stroke-dashoffset:3.6;stroke-opacity:1"
         d="m 36.069588,29.808284 a 5.4083275,5.4097344 0 0 1 0.78675,-0.05754 5.4083275,5.4097344 0 0 1 5.408328,5.409735 v 0 a 5.4083275,5.4097344 0 0 1 -5.408328,5.409733 5.4083275,5.4097344 0 0 1 -5.408327,-5.409735 5.4083275,5.4097344 0 0 1 2.089093,-4.271087"
         id="path1414" /><g
         id="g1450"><path
           style="fill:none;stroke:#ffffff;stroke-width:1;stroke-linecap:round;stroke-linejoin:round;stroke-dashoffset:3.6;stroke-opacity:1"
           d="m 32.606975,29.911609 5.3762,5.652388 0.781831,-1.62185 -3.666589,-5.614624"
           id="path1420" /><path
           style="fill:none;stroke:#ffffff;stroke-width:1;stroke-linecap:round;stroke-linejoin:round;stroke-dashoffset:3.6;stroke-opacity:1"
           d="m 11.663889,15.985142 11.579469,3.003557 0.756989,5.319918 -15.0532281,-6.070268 z"
           id="path1416" /><path
           style="fill:none;stroke:#ffffff;stroke-width:1;stroke-linecap:round;stroke-linejoin:round;stroke-dashoffset:3.6;stroke-opacity:1"
           d="m 18.969803,22.281681 0.07121,0.866947 11.006708,8.219518 0.895161,-1.247924 1.664098,-0.208613 2.491442,-1.584086 v 0 l 1.559935,-0.910907 -2.374161,-3.345724 -3.717631,-2.46775 -12.07947,-5.19871 0.113492,1.38182"
           id="path1422" /><path
           style="fill:none;stroke:#ffffff;stroke-width:1;stroke-linecap:round;stroke-linejoin:round;stroke-dashoffset:3.6;stroke-opacity:1"
           d="m 30.823676,30.285316 -4.644107,-5.774694 8.712755,0.416345"
           id="path1418" /></g><path
         style="fill:none;stroke:#ffffff;stroke-width:1;stroke-linecap:round;stroke-linejoin:round;stroke-dashoffset:3.6;stroke-opacity:1"
         d="m 15.917096,21.050586 a 5.4083275,5.4097344 0 0 1 -5.008768,3.369043 5.4083275,5.4097344 0 0 1 -5.4083275,-5.409734 5.4083275,5.4097344 0 0 1 5.4083275,-5.409735 5.4083275,5.4097344 0 0 1 5.060327,3.500547"
         id="path1412" /></g><g
       id="g1463"><path
         style="fill:none;stroke:#ffffff;stroke-width:1;stroke-linecap:round;stroke-linejoin:round;stroke-dashoffset:3.6;stroke-opacity:1"
         d="m 25.48063,17.020781 0.823697,-0.638956 4.691912,0.03552 7.70324,3.105894 3.800547,6.050022 -0.556106,0.181263 -0.950245,-0.406546 -2.846875,-3.697297"
         id="path1410" /><path
         style="fill:none;stroke:#ffffff;stroke-width:1;stroke-linecap:round;stroke-linejoin:round;stroke-dashoffset:3.6;stroke-opacity:1"
         d="m 14.016207,7.4297877 7.923245,6.5583243 9.812399,8.401306"
         id="path1408" /><path
         style="fill:none;stroke:#ffffff;stroke-width:1;stroke-linecap:round;stroke-linejoin:round;stroke-dashoffset:3.6;stroke-opacity:1"
         d="M 16.443707,9.5408757 20.771585,17.38698"
         id="path1406" /><path
         style="fill:none;stroke:#ffffff;stroke-width:1;stroke-linecap:round;stroke-linejoin:round;stroke-dashoffset:3.6;stroke-opacity:1"
         d="m 41.001597,25.350355 -2.739955,0.278663 -2.196541,-1.579247 -0.133414,2.342763"
         id="path1380" /></g></g></svg>
