<svg version="1.1" viewBox="0 0 48 48" xml:space="preserve" xmlns="http://www.w3.org/2000/svg"><defs><style>.a{fill:none;stroke:#fff;stroke-linecap:round;stroke-linejoin:round;}</style></defs><g stroke="#fff" stroke-linecap="round" stroke-linejoin="round"><circle cx="41.25" cy="33" r="2" fill="none" style="paint-order:stroke fill markers"/><circle class="a" cx="24" cy="24" r="21.5"/><g fill="none"><path class="a" d="m6.262 30.81a19 19 0 0 1 10.47-24.36 19 19 0 0 1 24.63 9.826"/><path class="a" d="m42.58 20.05a19 19 0 0 1-0.8468 10.76"/><path class="a" d="m39.93 34.35a19 19 0 0 1-15.6 8.649 19 19 0 0 1-15.9-8.099"/><circle transform="rotate(-30)" cx="11.42" cy="31.42" r="2" style="paint-order:stroke fill markers"/><circle cx="18.5" cy="11.5" r="2" style="paint-order:stroke fill markers"/><circle cx="42.63" cy="17.94" r="2" style="paint-order:stroke fill markers"/><circle transform="rotate(-45)" cx="-18.38" cy="28.28" r="2" style="paint-order:stroke fill markers"/><g stroke-width="1px"><path d="m7 31c2.497-10.56 4.73-16.75 9.5-19.5"/><path d="m20.5 11.5c2.602 2.5 3.621 3.943 4.191 8.218"/><path d="m9 33h30.25"/><path d="m8.414 31.59c3.254-3.667 9.891-8.05 15.26-9.548"/><path d="m40.63 17.94c-5.199 0-13.08 3.096-13.08 3.096"/></g></g></g></svg>
