<svg version="1.1" viewBox="0 0 48 48" xml:space="preserve" xmlns="http://www.w3.org/2000/svg"><g fill="none" stroke="#fff" stroke-width="1px"><g stroke-linecap="round" stroke-linejoin="round"><path d="m24 42.5v-15.5l10.5 3.01e-4"/><path d="m39 19h3.5"/><path d="m26 19h3.5"/></g><path d="m5.5 29.5v-24h37v37h-29.5"/><g stroke-linecap="round" stroke-linejoin="round"><path d="m40.5 27h2"/><path d="m34.5 27v6"/><path d="m40.5 27c0 3.5026-4.0038 6-6 6"/><path d="m19 33h-6"/><path d="m19 33c0 3.5026-4.0038 6-6 6"/><path d="m5.5 29.5h7.5v3.5"/><path d="m13 39v3.5"/><path d="m17.5 18.5h-5"/><path d="m17.5 14c-2.9985 0.0245-5 3.0007-5 4.5"/></g><path d="m17.5 14v-8.5"/><path d="m17.5 18.5v3h-12"/><path d="m26 5.5v13.5" stroke-linecap="round" stroke-linejoin="round"/></g></svg>
