<?xml version="1.0" encoding="UTF-8" standalone="no"?>
<svg
   viewBox="0 0 48 48"
   version="1.1"
   id="svg1"
   xml:space="preserve"
   width="48"
   height="48"
   xmlns="http://www.w3.org/2000/svg"
   xmlns:svg="http://www.w3.org/2000/svg"><defs
     id="defs1"><style
       id="style1">.a{fill:none;stroke:#fff;stroke-linecap:round;stroke-linejoin:round;}</style><style
       id="style1-2">
      .cls-1 {
        fill: none;
        stroke: #fff;
        stroke-linecap: round;
        stroke-linejoin: round;
      }
    </style></defs><g
     id="layer2"
     style="display:inline"><path
       id="path7"
       style="display:inline;fill:none;stroke:#ffffff;stroke-width:1;stroke-linecap:round;stroke-linejoin:round;stroke-dasharray:none;stroke-opacity:1"
       d="m 22.769777,19.932037 v 3.654051 h 1.218016 c 1.532706,0.04469 1.847474,-0.884975 1.766125,-2.13153 -0.296095,-0.915977 -0.762934,-1.575838 -1.705224,-1.522521 z m 17.478544,0.243604 c 0.494357,2.80442 0.158859,5.257014 -2.618736,6.820895 m -13.489539,-12.941431 18.135841,0.02307 c 0.317541,4.096651 -1.567081,6.383801 -4.524499,6.58468 l -5.663781,0.121804 M 9.6151909,26.69203 c -0.5837979,2.253333 0.1022635,6.728016 4.3531981,7.397926 l 1.958959,0.04306 m 0.112884,-6.771075 -1.27892,-3e-6 C 7.9254351,27.069723 7.6391027,22.940371 7.8795164,20.236537 M 24.109596,14.085554 H 5.4130318 c 0.2139583,2.353737 0.368139,6.59529 7.4603542,6.668643 l 3.379998,0.03045 c -0.162108,4.445763 0.839391,8.891525 -0.4872,13.337288 l 6.759994,0.0609 0.06089,-6.942697 c 2.048526,2.313759 2.430159,6.942697 6.912247,6.942697 l 1.174953,-0.01815 c 6.464515,-0.345386 7.834433,-5.085816 7.929725,-7.594453 -2.533213,1.44262 -6.516264,0.954385 -7.335116,0.913513 -0.800451,-0.173893 -1.551029,-0.597801 -2.10451,-0.974412 2.062851,-0.805026 3.093835,-3.293172 2.92324,-5.968284 C 31.6076,18.082273 30.117915,15.171026 26.484728,14.26826 Z" /></g></svg>
