<?xml version="1.0" encoding="UTF-8"?>
<!-- Created with Inkscape (http://www.inkscape.org/) -->
<svg version="1.1" viewBox="0 0 48 48" xml:space="preserve" xmlns="http://www.w3.org/2000/svg"><defs><style>.a{fill:none;stroke:#fff;stroke-linecap:round;stroke-linejoin:round;}</style></defs><g transform="matrix(.67183 0 0 .67183 -45.665 4.6514)" fill-opacity="0" stroke="#fff" stroke-linecap="round" stroke-linejoin="round" stroke-width="1.4885"><path d="m73.972 35.309 8.847-29.169 29.876-7.4514 20.722 22.355-8.466 30.291-29.747 7.5773z"/><path d="m95.419 18.012 4.4384 22.926 17.085-16.201z"/><path d="m103.69 43.353 15.569-15.864 2.1928 19.77z"/><path d="m123.79 42.124-0.8932-15.134 6.3331-3.8979z"/><path d="m96.681 14.693 15.082-10.13 6.3626 16.921z"/><path d="m116.44 7.9137 5.4652 15.586 5.8315-4.1693z"/><path d="m79.708 33.646 11.887-13.494 5.6098 21.294z"/><path d="m82.25 38.788 11.319 12.787 4.1349-5.4585z"/><path d="m100.15 47.304-0.6907 5.936 16.981-3.4722z"/><path d="m79.208 28.3 6.9397-19.07 2.3085 7.5634z"/><path d="m88.957 8.6625 3.5333 5.5308 13.463-9.9265z"/></g></svg>