<?xml version="1.0" encoding="UTF-8"?>
<svg id="b" version="1.1" viewBox="0 0 48 48" xml:space="preserve" xmlns="http://www.w3.org/2000/svg"><g transform="matrix(.92682 0 0 .92444 1.7564 1.813)" fill="none" stroke="#fff" stroke-linecap="round" stroke-linejoin="round" stroke-width="1.0804"><path class="c" d="m3.5 15.33h13.667v8.9998h-13.667z"/><path class="c" d="m17.167 15.33h13.667v8.9998h-13.667z"/><path class="c" d="m30.833 15.33h13.667v8.9998h-13.667z"/><path class="c" transform="matrix(.99998 0 0 .99998 .00010153 -4.169)" d="m34.667 21.832v4h6"/><path class="c" d="m7.3332 21.83v-3.9999h4.6594c0.74029 0 1.3405 0.60139 1.3405 1.3434 0 0.74198-0.60019 1.3434-1.3405 1.3434h-4.6594"/><path class="c" d="m11.993 20.517 1.31 1.312"/><path class="c" d="m20.999 17.83h6"/><path class="c" d="m23.999 21.83v-4"/></g><path class="cls-7" d="m9.7133 26.835a0.42129 0.4202 0 0 1-0.42129 0.4202 0.42129 0.4202 0 0 1-0.42129-0.4202 0.42129 0.4202 0 0 1 0.42129-0.4202 0.42129 0.4202 0 0 1 0.42129 0.4202zm1.4745 0a0.42129 0.4202 0 0 1-0.42128 0.4202 0.42129 0.4202 0 0 1-0.42128-0.4202 0.42129 0.4202 0 0 1 0.42128-0.4202 0.42129 0.4202 0 0 1 0.42128 0.4202z" fill="#fff" stroke-width="0px"/><path d="m37.59 30.744 1.3857 1.2215m-2.7715 0.04886v-3.9088h1.3857c0.79944 0 1.439 0.58633 1.439 1.3192 0 0.7329-0.63956 1.3192-1.439 1.3192h-1.3857m-10.073-0.68406h-1.7587m1.7587 0c0.58627 0 1.0659 0.43974 1.0659 0.97723 0 0.53747-0.47966 0.97723-1.0659 0.97723h-1.7587v-3.9088h1.7587c0.58627 0 1.0659 0.43974 1.0659 0.97723 0 0.53747-0.47966 0.97723-1.0659 0.97723zm16.868-0.63511c0-0.73291-0.63956-1.3192-1.439-1.3192-0.79944 0-1.439 0.58633-1.439 1.3192v1.3192c0 0.73291 0.63956 1.2704 1.439 1.2704 0.79945 0 1.439-0.58633 1.439-1.2704h-1.439m-6.8219 1.2702h-2.1319v-3.9088h2.1319m-2.1319 1.9545h1.439m-11.139 1.9545h-2.1319v-3.9088h2.1319m-2.1319 1.9545h1.439m-11.139 1.9545h-2.1319v-3.9088h2.1319m-2.1319 1.9545h1.439m17.935-1.9543v2.5896c0 0.73291 0.63956 1.3192 1.3857 1.3192 0.74613 0 1.439-0.58633 1.439-1.3192v-2.5896m-14.625-3.04e-4h2.7715l-2.7715 3.9089h2.7715m-5.3352 8.2e-5v-3.9088m-1.3857 0h2.7715m-10.338-1.19e-4v3.9089h2.1319" fill="none" stroke="#fff" stroke-linecap="round" stroke-linejoin="round"/></svg>
