<?xml version="1.0" encoding="UTF-8" standalone="no"?>
<svg
   viewBox="0 0 48 48"
   version="1.1"
   id="svg1"
   sodipodi:docname="rtl_travel_app.svg"
   xml:space="preserve"
   inkscape:version="1.4.2 (ebf0e940d0, 2025-05-08)"
   xmlns:inkscape="http://www.inkscape.org/namespaces/inkscape"
   xmlns:sodipodi="http://sodipodi.sourceforge.net/DTD/sodipodi-0.dtd"
   xmlns="http://www.w3.org/2000/svg"
   xmlns:svg="http://www.w3.org/2000/svg"><sodipodi:namedview
     id="namedview1"
     pagecolor="#ffffff"
     bordercolor="#000000"
     borderopacity="0.25"
     inkscape:showpageshadow="2"
     inkscape:pageopacity="0.0"
     inkscape:pagecheckerboard="0"
     inkscape:deskcolor="#d1d1d1"
     inkscape:zoom="3.0260417"
     inkscape:cx="22.636833"
     inkscape:cy="20.32358"
     inkscape:window-width="1440"
     inkscape:window-height="832"
     inkscape:window-x="0"
     inkscape:window-y="0"
     inkscape:window-maximized="1"
     inkscape:current-layer="svg1" /><defs
     id="defs1"><inkscape:path-effect
       effect="bspline"
       id="path-effect6"
       is_visible="true"
       lpeversion="1.3"
       weight="33.333333"
       steps="2"
       helper_size="0"
       apply_no_weight="true"
       apply_with_weight="true"
       only_selected="false"
       uniform="false" /><inkscape:path-effect
       effect="bspline"
       id="path-effect5"
       is_visible="true"
       lpeversion="1.3"
       weight="33.333333"
       steps="2"
       helper_size="0"
       apply_no_weight="true"
       apply_with_weight="true"
       only_selected="false"
       uniform="false" /><style
       id="style1">.a{fill:none;stroke:#fff;stroke-linecap:round;stroke-linejoin:round;}</style></defs><path
     id="path41"
     style="opacity:1;fill:none;stroke:#ffffff;stroke-width:1;stroke-linecap:round;stroke-linejoin:round"
     d="m 37.153091,7.9329099 a 7.3061879,21.189359 29.995788 0 0 -8.660354,8.6919991 7.3061879,21.189359 29.995788 0 0 -2.769605,4.184433 7.3061879,21.189359 29.995788 0 0 -0.595377,1.010036 7.3061879,21.189359 29.995788 0 0 -1.127757,2.040394 21.189359,7.3061879 60.004212 0 1 2.196587,4.649821 7.3061879,21.189359 29.995788 0 1 2.428234,-4.670143 7.3061879,21.189359 29.995788 0 1 2.107174,-3.383721 7.3061879,21.189359 29.995788 0 1 3.405622,-4.558372 7.3061879,21.189359 29.995788 0 1 5.569691,-5.316403 18.307832,18.31028 0 0 0 -2.554215,-2.6480441 z M 23.999998,34.055643 a 21.189359,7.3061879 60.004212 0 0 -2.196584,-5.54605 7.3061879,21.189359 29.995788 0 0 -2.688325,10.669393 18.307832,18.31028 0 0 0 3.570212,0.8881 7.3061879,21.189359 29.995788 0 1 1.314697,-6.011443 z M 17.268006,20.455729 a 21.189359,7.3061879 60.004212 0 1 2.107176,3.383721 21.189359,7.3061879 60.004212 0 1 2.428232,4.670143 21.189359,7.3061879 60.004212 0 1 2.196584,5.54605 21.189359,7.3061879 60.004212 0 1 1.314699,6.011443 18.307832,18.31028 0 0 0 3.570216,-0.8881 21.189359,7.3061879 60.004212 0 0 -2.688328,-10.669393 21.189359,7.3061879 60.004212 0 0 -2.196587,-4.649821 21.189359,7.3061879 60.004212 0 0 -1.127755,-2.040394 21.189359,7.3061879 60.004212 0 0 -0.595372,-1.010036 21.187231,7.3069206 0 0 1 -5.008865,-0.353613 z M 10.846909,7.9329099 a 18.307832,18.31028 0 0 0 -2.5542178,2.6480441 21.189359,7.3061879 60.004212 0 1 5.5696928,5.316403 21.187231,7.3069206 0 0 0 5.644879,0.727552 21.189359,7.3061879 60.004212 0 0 -8.660354,-8.6919991 z M 6.9779918,13.824447 a 18.307832,18.31028 0 0 0 -1.0159968,3.536142 21.187231,7.3069206 0 0 0 11.306011,3.09514 21.187231,7.3069206 0 0 0 5.008865,0.353613 21.187231,7.3069206 0 0 0 1.723127,0.02442 21.187231,7.3069206 0 0 0 1.723134,-0.02442 7.3061879,21.189359 29.995788 0 1 2.769605,-4.184433 21.187231,7.3069206 0 0 1 -4.492739,0.168679 21.187231,7.3069206 0 0 1 -4.492735,-0.168679 21.187231,7.3069206 0 0 1 -5.644879,-0.727552 21.187231,7.3069206 0 0 1 -6.8843922,-2.07291 z m 27.1596232,2.07291 a 7.3061879,21.189359 29.995788 0 0 -3.405622,4.558372 21.187231,7.3069206 0 0 0 11.306012,-3.09514 18.307832,18.31028 0 0 0 -1.015996,-3.536142 21.187231,7.3069206 0 0 1 -6.884394,2.07291 z" /></svg>
