<?xml version="1.0" encoding="UTF-8" standalone="no"?>
<svg
   viewBox="0 0 48 48"
   version="1.1"
   id="svg192"
   xml:space="preserve"
   xmlns="http://www.w3.org/2000/svg"
   xmlns:svg="http://www.w3.org/2000/svg"><defs
     id="defs188"><style
       id="style186">.a{fill:none;stroke:#000;stroke-linecap:round;stroke-linejoin:round;}</style></defs><path
     id="rect1216-6"
     style="fill:none;fill-rule:evenodd;stroke:#ffffff;stroke-linecap:round;stroke-linejoin:round;stop-color:#000000"
     d="M 29.283203,6.0591902 24.988281,10.889268 V 23.46544 c 1.001786,1.126613 1.889683,2.464152 2.675782,3.953125 2.896614,-2.922141 5.969175,-5.98323 8.617187,-8.6309 l 0.378906,-6.453125 -7.376953,7.376953 z" /><path
     id="rect1216"
     style="fill:none;fill-rule:evenodd;stroke:#ffffff;stroke-linecap:round;stroke-linejoin:round;stop-color:#000000"
     d="M 18.71875,6.0591902 V 17.201768 c 0,0 3.03092,3.015235 4.294922,4.261719 V 10.889268 Z" /><path
     id="rect1216-6-3"
     style="fill:none;fill-rule:evenodd;stroke:#ffffff;stroke-linecap:round;stroke-linejoin:round;stop-color:#000000"
     d="m 44.128906,19.805283 -6.453125,0.376954 -9.109375,9.109375 c 0.631751,1.457038 1.193025,3.096656 1.587891,4.464843 0.0017,0.006 0.0041,0.01159 0.0059,0.01758 z" /><path
     id="path1464-7"
     style="fill:none;fill-opacity:0.992157;fill-rule:evenodd;stroke:#ffffff;stroke-width:1;stroke-linecap:round;stroke-linejoin:round;stroke-dasharray:none;paint-order:fill markers stroke;stop-color:#000000"
     d="m 3.8710939,19.805283 11.5332031,11.53125 c 2.257584,2.445546 3.284523,5.703418 3.320315,8.417967 -5.84e-4,0.02344 -0.0012,0.04688 -0.002,0.07031 h 4.34375 c 7.01e-4,-0.02344 0.0014,-0.04687 0.002,-0.07031 -0.509886,-4.432746 -2.113407,-8.773519 -4.626994,-11.455037 l -8.117187,-8.117187 z" /><path
     id="path1464-7-0-9"
     style="fill:none;fill-opacity:0.992157;fill-rule:evenodd;stroke:#ffffff;stroke-width:1;stroke-linecap:round;stroke-linejoin:round;stroke-dasharray:none;paint-order:fill markers stroke;stop-color:#000000"
     d="m 11.341797,12.33458 0.378906,6.453125 c 0,0 5.412065,5.359771 8.126953,8.126954 2.714888,2.767183 5.346895,8.432786 5.181641,12.59375 -0.0021,0.116565 -0.0054,0.233107 -0.0098,0.349609 h 4.294922 c 0.0042,-0.116509 0.0074,-0.233049 0.0098,-0.349609 C 29.09291,33.306671 26.120531,27.042607 22.886719,23.879502 19.652907,20.716397 11.341797,12.33458 11.341797,12.33458 Z" /></svg>
