<?xml version="1.0" encoding="UTF-8" standalone="no"?>
<svg
   viewBox="0 0 48 48"
   version="1.1"
   id="svg1"
   sodipodi:docname="rush.svg"
   inkscape:version="1.3.2 (091e20ef0f, 2023-11-25)"
   xml:space="preserve"
   xmlns:inkscape="http://www.inkscape.org/namespaces/inkscape"
   xmlns:sodipodi="http://sodipodi.sourceforge.net/DTD/sodipodi-0.dtd"
   xmlns="http://www.w3.org/2000/svg"
   xmlns:svg="http://www.w3.org/2000/svg"><sodipodi:namedview
     id="namedview1"
     pagecolor="#505050"
     bordercolor="#eeeeee"
     borderopacity="1"
     inkscape:showpageshadow="0"
     inkscape:pageopacity="0"
     inkscape:pagecheckerboard="0"
     inkscape:deskcolor="#505050"
     inkscape:zoom="17.8125"
     inkscape:cx="11.368421"
     inkscape:cy="37.585965"
     inkscape:window-width="1918"
     inkscape:window-height="1053"
     inkscape:window-x="0"
     inkscape:window-y="0"
     inkscape:window-maximized="1"
     inkscape:current-layer="svg1" /><defs
     id="defs1"><style
       id="style1">.a { fill:none;stroke:#fff;stroke-linecap:round;stroke-linejoin:round; }
</style></defs><g
     id="g8"
     style="stroke:#ffffff;stroke-opacity:1;stroke-linejoin:round;stroke-linecap:round"><path
       style="fill:none;fill-opacity:0;stroke-linejoin:round;stroke:#ffffff;stroke-opacity:1;stroke-linecap:round"
       d="M 34.0943,29.682185 C 34.0943,36.761493 28.345115,42.5 21.253799,42.5 14.162484,42.5 8.4138358,36.761087 8.4138358,29.681779 c 0,-7.079307 5.7486482,-12.817852 12.8399632,-12.817852 7.091316,0 12.840501,5.738951 12.840501,12.818258 z"
       id="path7" /><path
       style="fill:none;fill-opacity:0;stroke-linejoin:round;stroke:#ffffff;stroke-opacity:1;stroke-linecap:round"
       d="M 33.852146,32.198808 39.586188,6.7210469 31.201641,11.471712 27.65045,5.4999699 12.721981,20.10394"
       id="path6" /></g><g
     id="g7"
     style="stroke:#ffffff;stroke-opacity:1;stroke-linejoin:round;stroke-linecap:round"><path
       style="fill:none;fill-opacity:0;stroke-linejoin:round;stroke:#ffffff;stroke-opacity:1;stroke-linecap:round"
       d="m 24.537996,23.709542 -4.31062,-0.723711 2.822145,11.430253"
       id="path5" /><path
       style="fill:none;fill-opacity:0;stroke-linejoin:round;stroke:#ffffff;stroke-opacity:1;stroke-linecap:round"
       d="m 23.191475,35.223637 a 2.238161,2.2343709 0 0 1 -2.238162,2.234372 2.238161,2.2343709 0 0 1 -2.23816,-2.234372 2.238161,2.2343709 0 0 1 2.23816,-2.23437 2.238161,2.2343709 0 0 1 2.238162,2.23437 z"
       id="path4" /></g></svg>
