<?xml version="1.0" encoding="UTF-8"?>
<!-- Created with Inkscape (http://www.inkscape.org/) -->
<svg version="1.1" viewBox="0 0 48 48" xml:space="preserve" xmlns="http://www.w3.org/2000/svg"><defs><style>.a{fill:none;stroke:#fff;stroke-linecap:round;stroke-linejoin:round;}</style></defs><g transform="matrix(1.4823 0 0 1.4823 -96.153 -13.202)" fill-opacity="0" stroke="#fff" stroke-linecap="round" stroke-linejoin="round" stroke-width=".67463"><circle cx="81.057" cy="31.212" r="5"/><path d="m68.338 18.59c0.05007 0.0806 0.11602 0.14655 1.1028 1.1333s2.8944 2.8944 3.9007 3.9007c1.0063 1.0063 1.1113 1.1113 1.2109 1.1168 0.09953 0.0055 0.19357-0.08854 0.67353-0.53064 0.47996-0.4421 1.3458-1.2322 2.9316-1.6175s3.8915-0.36577 5.4568-0.043c1.5653 0.32277 2.3901 0.94875 2.8984 1.3576 0.50829 0.40888 0.70004 0.60063 0.81485 0.71544s0.15267 0.15267 0.21104 0.13215c0.05837-0.02052 0.13726-0.0994 1.1761-1.1383 1.0389-1.0389 3.0377-3.0377 4.0751-4.0751 1.0374-1.0374 1.1134-1.1134 1.1065-1.1963-0.0069-0.08286-0.09658-0.17257-0.94594-0.85958-0.84936-0.68701-2.4583-1.9713-4.5231-2.9065-2.0648-0.93525-4.5855-1.5214-7.2356-1.5459s-5.4297 0.51292-7.4765 1.3263-3.3609 1.9027-4.1132 2.5695c-0.7523 0.66681-0.94281 0.91106-1.0796 1.0723s-0.21982 0.23936-0.24425 0.32607c-0.02443 0.08671 0.0098 0.18197 0.05984 0.26257z"/></g></svg>
