<?xml version="1.0" encoding="UTF-8"?><svg id="a" xmlns="http://www.w3.org/2000/svg" viewBox="0 0 48 48"><defs><style>.b{fill:none;stroke:#fff;stroke-linecap:round;stroke-linejoin:round;}</style></defs><path class="b" d="M9.5,27.9189v-7.7595h2.5081c1.4108,0,2.5865,1.1757,2.5865,2.5865s-1.1757,2.5865-2.5865,2.5865h-2.5081"/><line class="b" x1="12.0081" y1="25.3324" x2="14.5946" y2="27.9189"/><line class="b" x1="24.3919" y1="20.3946" x2="17.1811" y2="27.6054"/><path class="b" d="M20.7865,27.9189h0c-1.5676,0-2.8216-1.2541-2.8216-2.8216v-2.1162c0-1.5676,1.2541-2.8216,2.8216-2.8216h0c1.5676,0,2.8216,1.2541,2.8216,2.8216v2.1162c0,1.5676-1.2541,2.8216-2.8216,2.8216Z"/><line class="b" x1="34.5811" y1="24" x2="37.1676" y2="24"/><polyline class="b" points="38.5 27.9189 34.5811 27.9189 34.5811 20.0811 38.5 20.0811"/><path class="b" d="M26.9784,27.9189v-7.7595h1.7243c1.8811,0,3.3703,1.4892,3.3703,3.3703v.9405c0,1.8811-1.4892,3.3703-3.3703,3.3703h-1.7243v.0784Z"/><rect class="b" x="5.5" y="5.5" width="37" height="37" rx="4" ry="4"/></svg>