<?xml version="1.0" encoding="UTF-8"?><svg id="a" xmlns="http://www.w3.org/2000/svg" viewBox="0 0 48 48"><defs><style>.e{fill:none;stroke:#fff;stroke-linecap:round;stroke-linejoin:round;}</style></defs><path class="e" d="M24.8922,11.8702c-4.04,0-11.3121,3.1575-10.4145,10.8838"/><path class="e" d="M21.1215,27.1815c7.8781,2.424,5.8917,8.9482,1.9864,8.9482-6.1611,0-8.5851-3.2585-8.5851-3.2585l-4.7134,5.353c4.747,3.535,6.7334,4.2757,11.2448,4.2757s14.1401-3.4668,14.1401-12.5906c0-3.8717-3.1984-7.3403-8.3157-9.0909-7.8781-2.424-5.8917-8.9482-1.9864-8.9482,6.1611,0,8.5851,3.2585,8.5851,3.2585l4.7134-5.353c-4.747-3.535-6.7334-4.2757-11.2448-4.2757s-14.1401,3.4668-14.1401,12.5906c0,3.8717,3.1984,7.3403,8.3157,9.0909Z"/><path class="e" d="M23.1078,36.1298c4.04,0,11.3121-3.1575,10.4145-10.8838"/></svg>