<svg xmlns="http://www.w3.org/2000/svg" xml:space="preserve" width="48" height="48"><path fill="none" stroke="#fff" stroke-linecap="round" stroke-linejoin="round" d="M14.389 7.995a6.89 6.89 0 0 1-5.986 10.3 6.9 6.9 0 0 1-2.903-.647 6.66 6.66 0 0 0 5.258 2.6 6.664 6.664 0 0 0 6.66-6.665 6.67 6.67 0 0 0-3.029-5.588m.083 19.339c.465-.838.747-2.308.748-3.892 0-1.876-.39-3.49-.948-4.2m-1.681.746c-.333.84-.543 2.076-.543 3.454.001 1.586.285 3.058.75 3.894m2.864 4.17a2.64 2.64 0 0 0 .606-1.675 2.635 2.635 0 0 0-1.796-2.498m-1.674.003a2.635 2.635 0 0 0-1.795 2.495c0 .615.217 1.21.61 1.682m0 0c-1.032.991-1.655 2.674-1.659 4.479.003 1.536.456 2.996 1.244 4.013h4.872c.788-1.017 1.24-2.477 1.243-4.013 0-1.806-.62-3.491-1.651-4.486m15.92-10.02c.163-.353.253-.808.252-1.28.001-1.063-.448-1.926-1.001-1.926-.554 0-1.003.863-1.002 1.927.001.471.092.926.256 1.277m0 0c-.803.476-1.412 1.7-1.527 3.223-5.356.87-9.394 4.757-9.394 9.419 0 2.216-.088 4.255 1.444 5.88h20.448c1.532-1.625 1.441-3.664 1.441-5.88 0-4.663-4.036-8.548-9.392-9.419-.114-1.521-.722-2.743-1.524-3.221"/></svg>