<?xml version="1.0" encoding="UTF-8"?><svg id="a" xmlns="http://www.w3.org/2000/svg" viewBox="0 0 48 48"><defs><style>.d{fill:none;stroke:#fff;stroke-linecap:round;stroke-linejoin:round;}</style></defs><path class="d" d="m27 24h14.26a1.24 1.24 0 0 0 1.24-1.24 9.25 9.25 0 0 0-9.25-9.25 9.25 9.25 0 0 0-9.0825 7.4978"/><path class="d" d="m21 24h-14.26a1.24 1.24 0 0 0-1.24 1.24 9.25 9.25 0 0 0 9.25 9.25 9.25 9.25 0 0 0 9.0858-7.5151"/><path class="d" d="m24 27v14.25a1.24 1.24 0 0 0 1.25 1.25 9.25 9.25 0 0 0 9.25-9.25 9.25 9.25 0 0 0-7.5253-9.0878"/><path class="d" d="m24 21v-14.26a1.24 1.24 0 0 0-1.25-1.24 9.25 9.25 0 0 0-9.25 9.25 9.25 9.25 0 0 0 7.5271 9.0881"/><circle class="d" cx="24" cy="24" r="3"/></svg>
