<?xml version="1.0" encoding="UTF-8" standalone="no"?>
<!DOCTYPE svg PUBLIC "-//W3C//DTD SVG 1.1//EN" "http://www.w3.org/Graphics/SVG/1.1/DTD/svg11.dtd">
<svg width="100%" height="100%" viewBox="0 0 48 48" version="1.1" xmlns="http://www.w3.org/2000/svg" xmlns:xlink="http://www.w3.org/1999/xlink" xml:space="preserve" xmlns:serif="http://www.serif.com/" style="fill-rule:evenodd;clip-rule:evenodd;">
    <g id="layer2">
    </g>
    <g id="layer21" serif:id="layer2" transform="matrix(3.779528,0,0,3.779528,-5.25,-3.931111)">
        <g id="g6" transform="matrix(1,0,0,1,0.066153,0.113111)">
            <g id="g4" transform="matrix(0.264583,0,0,0.264583,1.322917,1.058333)">
                <path id="line1" d="M11,26.5L11,37" style="fill:none;fill-rule:nonzero;stroke:white;stroke-width:1px;"/>
                <path id="line2" d="M11,5.5L11,15.5" style="fill:none;fill-rule:nonzero;stroke:white;stroke-width:1px;"/>
                <circle id="circle2" cx="11" cy="21" r="5.5" style="fill:none;stroke:white;stroke-width:1px;"/>
                <circle id="circle3" cx="29.5" cy="37" r="5.5" style="fill:none;stroke:white;stroke-width:1px;"/>
                <path id="line3" d="M24,37L16.5,37" style="fill:none;fill-rule:nonzero;stroke:white;stroke-width:1px;"/>
                <path id="line4" d="M42.5,37L35,37" style="fill:none;fill-rule:nonzero;stroke:white;stroke-width:1px;"/>
            </g>
            <g id="g1" transform="matrix(1,0,0,1,1.322917,1.058333)">
                <g id="Warstwa-1" serif:id="Warstwa 1" transform="matrix(1,0,0,1,0.072149,-0.007914)">
                    <g id="g5" transform="matrix(0.034588,0,0,0.034588,4.707229,0.840169)">
                        <g id="g2" transform="matrix(4.166667,0,0,4.166667,0,0)">
                            <circle id="circle1" cx="24" cy="24" r="4" style="fill:none;stroke:white;stroke-width:1.33px;"/>
                        </g>
                        <g id="g3" transform="matrix(4.166667,0,0,4.166667,0,0)">
                            <path id="path1" d="M40.651,27.402C36.309,24.896 29.409,24.722 27.928,24.715C27.97,24.482 28,24.245 28,24C28,23.754 27.97,23.516 27.928,23.283C29.42,23.261 36.438,23.03 40.651,20.598C43.223,19.112 44.105,15.823 42.62,13.25C41.134,10.678 37.845,9.796 35.272,11.281C30.918,13.795 27.311,19.708 26.578,20.965C26.213,20.655 25.798,20.411 25.339,20.247C26.057,18.961 29.379,12.754 29.379,7.879C29.379,4.908 26.971,2.5 24,2.5C21.029,2.5 18.621,4.908 18.621,7.879C18.621,12.902 21.933,18.977 22.659,20.248C22.199,20.412 21.784,20.657 21.42,20.966C20.67,19.707 16.953,13.72 12.728,11.281C10.155,9.796 6.866,10.677 5.38,13.25C3.895,15.823 4.777,19.112 7.349,20.598C11.691,23.104 18.591,23.278 20.072,23.285C20.03,23.518 20,23.755 20,24C20,24.246 20.03,24.484 20.072,24.717C18.58,24.739 11.562,24.97 7.349,27.402C4.777,28.888 3.895,32.177 5.38,34.75C6.866,37.323 10.155,38.204 12.728,36.719C17.082,34.205 20.689,28.292 21.422,27.035C21.787,27.345 22.202,27.59 22.661,27.754C21.943,29.039 18.621,35.247 18.621,40.121C18.621,43.092 21.029,45.5 24,45.5C26.971,45.5 29.379,43.092 29.379,40.121C29.379,35.098 26.067,29.023 25.341,27.753C25.801,27.588 26.216,27.343 26.58,27.034C27.33,28.293 31.047,34.279 35.272,36.719C37.845,38.204 41.134,37.323 42.62,34.75C44.105,32.177 43.223,28.888 40.651,27.402Z" style="fill:none;fill-rule:nonzero;stroke:white;stroke-width:1.33px;"/>
                        </g>
                    </g>
                </g>
            </g>
        </g>
    </g>
</svg>
