<?xml version="1.0" encoding="UTF-8" standalone="no"?>
<svg
   viewBox="0 0 48 48"
   version="1.1"
   id="svg1"
   sodipodi:docname="samsung_self_repair_assistant.svg"
   inkscape:version="1.2.2 (b0a8486541, 2022-12-01)"
   xml:space="preserve"
   xmlns:inkscape="http://www.inkscape.org/namespaces/inkscape"
   xmlns:sodipodi="http://sodipodi.sourceforge.net/DTD/sodipodi-0.dtd"
   xmlns="http://www.w3.org/2000/svg"
   xmlns:svg="http://www.w3.org/2000/svg"><sodipodi:namedview
     id="namedview1"
     pagecolor="#505050"
     bordercolor="#eeeeee"
     borderopacity="1"
     inkscape:showpageshadow="0"
     inkscape:pageopacity="0"
     inkscape:pagecheckerboard="0"
     inkscape:deskcolor="#505050"
     inkscape:zoom="12.59534"
     inkscape:cx="8.3364168"
     inkscape:cy="16.672834"
     inkscape:window-width="1918"
     inkscape:window-height="1053"
     inkscape:window-x="0"
     inkscape:window-y="0"
     inkscape:window-maximized="1"
     inkscape:current-layer="svg1"
     showgrid="false"
     showguides="false" /><defs
     id="defs1"><style
       id="style1">.a { fill:none;stroke:#fff;stroke-linecap:round;stroke-linejoin:round; }
</style></defs><path
     style="fill:none;stroke:#ffffff;stroke-width:1;stroke-linecap:round;stroke-linejoin:round;stroke-dashoffset:3.6;stroke-opacity:1"
     d="M 24.000004,2.5 A 21.499885,21.499885 0 0 0 19.930674,2.9335707 4.2885457,4.2885457 0 0 1 20.029854,3.848886 4.2885457,4.2885457 0 0 1 15.742323,8.139251 4.2885457,4.2885457 0 0 1 12.14907,6.124424 21.499885,21.499885 0 0 0 6.124424,12.14907 4.2885457,4.2885457 0 0 1 8.139251,15.742323 4.2885457,4.2885457 0 0 1 3.848886,20.029854 4.2885457,4.2885457 0 0 1 2.9449057,19.88533 21.499885,21.499885 0 0 0 2.5,24 21.499885,21.499885 0 0 0 2.9449057,28.114671 4.2885457,4.2885457 0 0 1 3.848886,27.970147 4.2885457,4.2885457 0 0 1 8.139251,32.257678 4.2885457,4.2885457 0 0 1 6.124424,35.85093 21.499885,21.499885 0 0 0 12.14907,41.875577 4.2885457,4.2885457 0 0 1 15.742323,39.86075 4.2885457,4.2885457 0 0 1 20.029854,44.151115 4.2885457,4.2885457 0 0 1 19.88533,45.055095 21.499885,21.499885 0 0 0 24,45.5 a 21.499885,21.499885 0 0 0 4.114671,-0.444905 4.2885457,4.2885457 0 0 1 -0.144524,-0.90398 4.2885457,4.2885457 0 0 1 4.287531,-4.290365 4.2885457,4.2885457 0 0 1 3.593252,2.014827 21.499885,21.499885 0 0 0 6.024647,-6.024647 4.2885457,4.2885457 0 0 1 -2.014827,-3.593252 4.2885457,4.2885457 0 0 1 4.290365,-4.287531 4.2885457,4.2885457 0 0 1 0.90398,0.144524 A 21.499885,21.499885 0 0 0 45.5,24 21.499885,21.499885 0 0 0 45.094768,19.879662 4.2885457,4.2885457 0 0 1 44.151115,20.029854 4.2885457,4.2885457 0 0 1 39.86075,15.742323 4.2885457,4.2885457 0 0 1 41.918084,12.1264 21.499885,21.499885 0 0 0 35.873601,6.081917 4.2885457,4.2885457 0 0 1 32.257678,8.139251 4.2885457,4.2885457 0 0 1 27.970147,3.848886 4.2885457,4.2885457 0 0 1 28.120338,2.9052326 21.499885,21.499885 0 0 0 24,2.5 Z"
     id="path1197" /><path
     style="fill:none;stroke:#ffffff;stroke-width:1;stroke-linecap:round;stroke-linejoin:round;stroke-dashoffset:3.6;stroke-opacity:1"
     d="m 34.252862,15.908257 -4.298142,4.29814 c -0.284187,0.284187 -0.741758,0.284185 -1.025943,0 l -1.142164,-1.142164 c -0.284186,-0.284185 -0.284187,-0.741756 0,-1.025943 l 4.284114,-4.284115 a 6.5790046,6.5790046 0 0 0 -8.077298,0.939781 6.5790046,6.5790046 0 0 0 -1.550938,6.820919 l -8.808686,8.808685 c -1.136743,1.136744 -1.151928,2.951845 -0.03407,4.069709 1.117864,1.117866 2.932965,1.102679 4.069709,-0.03407 l 8.808685,-8.808686 a 6.5790046,6.5790046 0 0 0 6.820919,-1.550938 6.5790046,6.5790046 0 0 0 0.953808,-8.091324 z"
     id="path522" /></svg>
