<svg xmlns="http://www.w3.org/2000/svg" xml:space="preserve" id="svg1" version="1.1" viewBox="0 0 48 48"><defs id="defs1"><style id="style1">.a{fill:none;stroke:#fff;stroke-linecap:round;stroke-linejoin:round}</style></defs><path id="path58107" d="M9.535 19.705c.428.932-.312 2.391-.825 4.952l1.475-2.295 1.265.168c.89-1.336 4.5-2.06 4.92-.869 1.187 3.381 3.132 13.854 3.641 18.552-1.232 1.17-2.775 1.188-4.024 1.074-1.537.848-2.144-.121-3.776-1.295l.065 1.01c-2.556-.347-4.37-3.869-5.308-5.428-1.975-3.284-2.053-9.77.511-17.028l.45.02C8.843 11.232 14.716 6.41 24 6.41c9.285 0 15.158 4.821 16.07 12.157l.451-.02c2.564 7.256 2.486 13.743.51 17.027-.937 1.56-2.75 5.08-5.307 5.427l.065-1.009c-1.632 1.174-2.24 2.143-3.776 1.295-1.25.114-2.792.095-4.024-1.074.51-4.698 2.454-15.17 3.642-18.552.418-1.191 4.03-.467 4.92.87l1.264-.17 1.475 2.296c-.513-2.56-1.253-4.02-.825-4.952-2.082-6.31-8.03-8.114-14.465-8.114-6.436 0-12.383 1.803-14.465 8.114z" style="fill:none;fill-opacity:0;stroke:#fff;stroke-width:1;stroke-linecap:round;stroke-linejoin:round;stroke-opacity:1"/></svg>