<?xml version="1.0" encoding="UTF-8" standalone="no"?>
<svg
   viewBox="0 0 48 48"
   version="1.1"
   id="svg1"
   xml:space="preserve"
   xmlns="http://www.w3.org/2000/svg"
   xmlns:svg="http://www.w3.org/2000/svg"><defs
     id="defs1"><style
       id="style1">.a{fill:none;stroke:#fff;stroke-linecap:round;stroke-linejoin:round;}</style></defs><path
     class="a"
     id="circle1-2"
     style="display:inline;fill:none;stroke:#ffffff;stroke-width:0.999995;stroke-linecap:round;stroke-linejoin:round"
     d="M 26.623176,42.658542 A 18.843035,18.843035 0 0 1 11.077833,37.712333 18.843035,18.843035 0 0 1 5.2183934,22.487695" /><path
     class="a"
     id="circle1-6"
     style="display:inline;fill:none;stroke:#ffffff;stroke-width:0.999995;stroke-linecap:round;stroke-linejoin:round"
     d="M 11.222146,10.150865 A 18.843035,18.843035 0 0 1 36.424809,9.8319426 18.843035,18.843035 0 0 1 39.398222,34.86062" /><circle
     style="opacity:1;fill:none;stroke:#ffffff;stroke-width:0.999995;stroke-linecap:round;stroke-linejoin:round"
     id="path1"
     cx="32.245468"
     cy="14.865223"
     r="1.9719456" /><path
     style="opacity:1;fill:none;stroke:#ffffff;stroke-width:0.999995;stroke-linecap:round;stroke-linejoin:round"
     id="path2"
     d="m 28.753127,14.559683 a 3.505681,3.505681 0 0 1 3.390379,-3.198658 3.505681,3.505681 0 0 1 3.570629,2.996113 3.505681,3.505681 0 0 1 -2.56133,3.894313" /><path
     style="opacity:1;fill:none;stroke:#ffffff;stroke-width:0.999995;stroke-linecap:round;stroke-linejoin:round"
     d="m 33.152811,18.251452 -1.629588,7.625278 c 3.829766,4.126072 6.53357,9.229955 6.24467,14.511629 0.928641,-1.457383 1.472086,-3.299962 1.630331,-5.527739"
     id="path3" /><path
     style="opacity:1;fill:none;stroke:#ffffff;stroke-width:0.999995;stroke-linecap:round;stroke-linejoin:round"
     d="m 28.753134,14.559684 -6.941367,1.583361 c -2.65649,-2.74729 -6.635809,-4.989203 -10.58962,-5.992184"
     id="path4" /><path
     style="opacity:1;fill:none;stroke:#ffffff;stroke-width:0.999995;stroke-linecap:round;stroke-linejoin:round"
     d="M 5.2183933,22.487692 C 9.9828653,31.5225 16.828894,39.001699 26.623174,42.658541"
     id="path5" /><path
     style="opacity:1;fill:none;stroke:#ffffff;stroke-width:0.999995;stroke-linecap:round;stroke-linejoin:round"
     d="m 30.834311,18.098671 -0.998993,5.422417 c -1.678186,-2.050769 -3.623047,-3.953382 -5.834584,-5.707847 l 5.19061,-1.231989 c 0.310978,0.464141 0.858634,1.058841 1.642967,1.517419 z"
     id="path6" /><path
     style="opacity:1;fill:none;stroke:#ffffff;stroke-width:0.999995;stroke-linecap:round;stroke-linejoin:round"
     d="m 6.2112074,12.455066 c 1.4535814,7.363889 4.8656546,13.331311 10.1917676,18.302288 4.56975,4.265046 10.658413,10.6602 19.05775,9.186545 C 32.713272,32.428371 28.635188,26.551244 23.85905,22.229096 17.776622,16.724825 11.886496,12.455066 6.2112074,12.455066 Z"
     id="path7" /></svg>
