<?xml version="1.0" encoding="UTF-8"?><svg id="a" xmlns="http://www.w3.org/2000/svg" viewBox="0 0 48 48"><defs><style>.d{fill:none;stroke:#fff;stroke-linecap:round;stroke-linejoin:round;}</style></defs><circle class="d" cx="24" cy="24" r="21.5"/><path class="d" d="m19.5 20.25c0 3.7432.25 8.25.25 8.25.70584-.18913 7.7097-.21176 8.5 0 0-3.6411.25-8.25.25-8.25s-2.2775-.5-4.5-.5-4.5.5-4.5.5z"/><path class="d" d="m18.763 7.898c2.0163 2.8039 8.0953-.70174 9.5491-1.9435-.31976-.31977-1.1615-.50047-1.6173-.50047"/><path class="d" d="m21.682 4.1152c.64466 1.8617 6.5586 6.1927 7.3867 7.2081 1.1056 1.3558.60445 4.4346-2.3436 2.7326-2.8215-1.629-5.1593-2.095-6.4043.06156-1.3056 2.2614 1.4355 4.3825 4.9517 4.3825"/><path class="d" d="m7.7804 16.9c0 2.0908 3.832 1.3676 6.2006 0l-9.5464 11.874c5.7175-7.1118 12.101-5.725 12.101-1.4356 0 4.5611-6.4024 5.7843-7.9168 3.2002-.96645-1.6739 3.4819-3.7446 4.7542 1.0037"/><path class="d" d="m34.951 15.9c1.4063.71835-1.6459 5.3584.69278 7.133"/><path class="d" d="m40.816 21.897c-1.3606 2.3567-5.2171 1.1008-8.0225 4.8263-2.1573 2.8649-.25347 5.8591 10.687 3.4727"/><path class="d" d="m23.913 29.511c4.3273 2.4984 1.8236 2.3387.3554 3.5837-1.4682 1.245-1.2325 2.539 2.1276 5.5563 2.7904 2.5057-1.3609 6.8241-3.8823 3.7687"/><path class="d" d="m15.354 40.698c.6235 2.327 1.5484 2.588 5.2671-2.1045"/><path class="d" d="m29.716 37.552c1.7887.47928 3.7204 2.0783 3.7204 4.4316"/></svg>
