<?xml version="1.0" encoding="UTF-8" standalone="no"?>
<svg
   viewBox="0 0 48 48"
   version="1.1"
   id="svg1"
   sodipodi:docname="saymee.svg"
   inkscape:version="1.3.2 (091e20ef0f, 2023-11-25)"
   xmlns:inkscape="http://www.inkscape.org/namespaces/inkscape"
   xmlns:sodipodi="http://sodipodi.sourceforge.net/DTD/sodipodi-0.dtd"
   xmlns="http://www.w3.org/2000/svg"
   xmlns:svg="http://www.w3.org/2000/svg">
  <sodipodi:namedview
     id="namedview1"
     pagecolor="#505050"
     bordercolor="#eeeeee"
     borderopacity="1"
     inkscape:showpageshadow="0"
     inkscape:pageopacity="0"
     inkscape:pagecheckerboard="0"
     inkscape:deskcolor="#505050"
     inkscape:zoom="16.719666"
     inkscape:cx="18.421421"
     inkscape:cy="24.222972"
     inkscape:window-width="1920"
     inkscape:window-height="1008"
     inkscape:window-x="0"
     inkscape:window-y="0"
     inkscape:window-maximized="1"
     inkscape:current-layer="svg1" />
  <defs
     id="defs1">
    <style
       id="style1">.a{fill:none;stroke:#fff;stroke-linecap:round;stroke-linejoin:round;}</style>
  </defs>
  <path
     id="line340-2"
     style="fill:none;stroke:#ffffff;stroke-linecap:round;stroke-linejoin:round"
     class="t"
     d="M 17.244739,28.316786 H 6.4168879 M 17.551363,20.503143 H 6.5948021 m -0.1860128,7.815038 a 3.9090908,3.9090908 0 0 1 -3.3853718,-1.954546 3.9090908,3.9090908 0 0 1 -10e-8,-3.90909 3.9090908,3.9090908 0 0 1 3.3853719,-1.954546 M 21.440991,24.40909 A 3.9090908,3.9090908 0 0 1 17.5319,28.318181 3.9090908,3.9090908 0 0 1 13.622809,24.40909 3.9090908,3.9090908 0 0 1 17.5319,20.499999 3.9090908,3.9090908 0 0 1 21.440991,24.40909 Z"
     inkscape:label="eyes2" />
  <path
     id="line340-2-7"
     style="fill:none;stroke:#ffffff;stroke-linecap:round;stroke-linejoin:round"
     class="t"
     d="M 41.244738,28.316787 H 30.416887 m 11.134475,-7.813643 h -10.95656 m -0.186013,7.815038 a 3.9090908,3.9090908 0 0 1 -3.385372,-1.954546 3.9090908,3.9090908 0 0 1 0,-3.90909 A 3.9090908,3.9090908 0 0 1 30.408789,20.5 M 45.44099,24.409091 A 3.9090908,3.9090908 0 0 1 41.531899,28.318182 3.9090908,3.9090908 0 0 1 37.622808,24.409091 3.9090908,3.9090908 0 0 1 41.531899,20.5 3.9090908,3.9090908 0 0 1 45.44099,24.409091 Z"
     inkscape:label="eyes1" />
</svg>
