<svg xmlns="http://www.w3.org/2000/svg" xml:space="preserve" id="svg1" version="1.1" viewBox="0 0 48 48"><defs id="defs1"><style id="style1">.a{fill:none;stroke:#fff;stroke-linecap:round;stroke-linejoin:round}</style></defs><path id="path13" d="M12.715 21.456v5.088M30.83 15.55l-4.098-2.555m4.098 19.478-4.098-2.555m0 0v5.089M7.843 12.96v22.08m0 0 13.683-8.221m.334.198V43.5m18.297-10.993-14.025-8.496m0 0 14.025-8.426m0 0L21.86 4.5m0 39 18.297-10.993-9.326-.035m0 0-4.098 2.534L21.86 43.5m0-22.046L7.843 12.96l4.872 8.495m4.098 2.555-4.098 2.533-4.872 8.495m18.89-22.045L21.86 4.5v16.954l4.272 2.557m.601-11.017v5.09l-.6 5.927m14.024-8.426-9.326-.036-4.098 2.534-4.873 3.37m-9.145.003 4.098 2.555 9.92 5.906" style="fill:none;stroke:#fff;stroke-width:1;stroke-linecap:round;stroke-linejoin:round;stroke-opacity:1"/></svg>