<svg xmlns="http://www.w3.org/2000/svg" xml:space="preserve" id="svg1" version="1.1" viewBox="0 0 48 48"><defs id="defs1"><style id="style1">.a{fill:none;stroke:#fff;stroke-linecap:round;stroke-linejoin:round}</style></defs><path id="circle2" d="M30.97 7.675a3.18 3.175 0 0 1-3.181 3.175 3.18 3.175 0 0 1-3.18-3.175 3.18 3.175 0 0 1 3.18-3.175 3.18 3.175 0 0 1 3.18 3.175zm-7.993 0a3.18 3.175 0 0 1-3.18 3.175 3.18 3.175 0 0 1-3.18-3.175 3.18 3.175 0 0 1 3.18-3.175 3.18 3.175 0 0 1 3.18 3.175Zm1.023 9.7a8.66 8.645 0 0 0-8.66 8.645 8.66 8.645 0 0 0 2.799 6.347l-.081 2.917 2.549-1.324a8.66 8.645 0 0 0 3.393.706 8.66 8.645 0 0 0 8.66-8.646A8.66 8.645 0 0 0 24 17.375zm0-6.746A15.418 15.392 0 0 0 8.583 26.02a15.418 15.392 0 0 0 4.21 10.526c-.558.178-1.152.303-1.728.47-.938.274-1.882.682-1.372 2.2l1.026 3.056c.598 1.5 1.81 1.28 3.126 1.089 2.74-.416 5.295-.984 7.302-2.248a15.418 15.392 0 0 0 2.853.299A15.418 15.392 0 0 0 39.417 26.02 15.418 15.392 0 0 0 24 10.63Z" style="fill:none;fill-opacity:.266292;stroke:#fff;stroke-width:1stroke-linecap:round;stroke-linejoin:round;stroke-opacity:1"/></svg>
