<svg data-name="Layer 2" version="1.1" viewBox="0 0 48 48" xml:space="preserve" xmlns="http://www.w3.org/2000/svg"><defs><style>.cls-1{fill:none;stroke:#fff;stroke-linecap:round;stroke-linejoin:round;}</style></defs><g transform="translate(-1.4581e-5 2.6447)" stroke="#fff" stroke-linecap="round" stroke-linejoin="round"><path class="cls-1" d="m13 33.54-3.3 0.4-2.4-0.6-2.8-0.4 0.6-2 2.1-6.2 2.3-4.4 0.9-1.4 4.6-1.7"/><path class="cls-1" d="m14.17 13.34-3.7 5.66"/><path class="cls-1" d="m33 17.34 4.6 1.7 0.9 1.4 2.3 4.4 2.1 6.2 0.6 2.1-2.8 0.4-2.4 0.6-3.2-0.5" data-name="path1420"/><path class="cls-1" d="m24.07 36.74c1.1 0 1.4 0.2 3.3 0.2 0.5 0 1.8-0.9 3.2-1.6a28.83 28.83 0 0 1 4.6-1.7c0.4-0.8-5.8-12.7-6.5-13a12.58 12.58 0 0 0-4.6-0.7 13.22 13.22 0 0 0-4.6 0.7c-0.8 0.3-6.9 12.2-6.5 13a33 33 0 0 1 4.6 1.7 14.86 14.86 0 0 0 3.2 1.6c1.8 0 2.1-0.2 3.3-0.2z"/><path class="cls-1" d="m28.47 20.54a35.7 35.7 0 0 1 2.8-2.4 5.29 5.29 0 0 1 1.6-0.9l0.9-3.9-5.1-2s-3.1-0.34-4.67-0.34c-1.6 0-4.7 0.3-4.7 0.3l-5.2 2 0.9 3.9a11.1 11.1 0 0 1 1.6 0.9 35.7 35.7 0 0 1 2.8 2.4"/><path class="cls-1" d="m37.57 19-3.7-5.7" data-name="path2898"/></g><g fill="none" stroke="#fff" stroke-linecap="round" stroke-linejoin="round" stroke-width="1px"><path d="m16.7 14.945c0.07406-2.6789 2.2548-4.2808 5.3347-6.6433l-15.067-2.8015c3.1446 3.6295 4.2891 8.0149 3.3052 12.915-0.41237 1.6633 1.1886 1.7133 1.1886 1.7133"/><path d="m7.3 35.985-2.3 6.0153 3.2779 0.49979 6.7295 2.14e-4 1.3102-1.8464 4.4524-1.0689"/><path d="m40.7 36.185 2.44 5.8153-3.2779 0.49979-6.7295 2.14e-4 -1.3102-1.8464-4.4524-1.0689"/></g></svg>
