<?xml version="1.0" encoding="UTF-8"?><svg id="a" xmlns="http://www.w3.org/2000/svg" viewBox="0 0 48 48"><defs><style>.m{fill:none;stroke:#fff;stroke-linecap:round;stroke-linejoin:round;}</style></defs><path id="b" class="m" d="M13.4319,13.7782c1.582-1.4517,3.3492-2.5908,5.4672-3.1372M18.8991,10.641c-8.2263-6.262-5.8732.2096-5.4672,3.1372h0"/><path id="c" class="m" d="M37.48,14.4912c.903-7.2202-.7104-7.815-4.7537-3.4135,2.8666.9972,3.546,2.2343,4.7537,3.4135Z"/><path id="d" class="m" d="M23.2575,33.2925c2.7087,5.4723,8.523,5.6553,11.9677,1.1354h0"/><path id="e" class="m" d="M27.6361,27.1837c1.1079-.1558,2.2229-.0908,3.3419.0351.6762.0761,1.3214.7035,1.2919,1.3825-.0548,1.2575-.5297,2.1723-1.2712,2.6235-.5742.3494-1.7352.3517-2.4013.2177-1.507-.3033-2.1418-1.2911-2.165-2.8639-.0094-.6378.5722-1.306,1.2039-1.3948Z"/><path id="f" class="m" d="M9.796,30.4897c2.7915-1.0214,5.6372-.7804,8.1515,1.0517"/><path id="g" class="m" d="M10.3218,35.5718c2.2201-.8969,4.3091-1.5954,7.0642-.5474"/><path id="h" class="m" d="M22.4939,24.8559c0,1.7067-.5435,3.0902-1.214,3.0902h0c-.6704,0-1.214-1.3835-1.214-3.0902s.5435-3.0902,1.214-3.0902c.6704,0,1.214,1.3835,1.214,3.0902h0Z"/><path id="i" class="m" d="M36.1472,24.8559c0,1.7067-.5435,3.0902-1.214,3.0902s-1.214-1.3835-1.214-3.0902.5435-3.0902,1.214-3.0902,1.214,1.3835,1.214,3.0902Z"/><path id="j" class="m" d="M45.0248,29.3378c-2.1822-.0149-3.6337-.159-5.543,1.6612"/><path id="k" class="m" d="M39.4818,34.0871c2.2406-.6468,4.3061-.7238,6.0155.3581"/><path id="l" class="m" d="M38.8534,40.1446c.7033,1.8403.5558,4.067-3.8604,1.9973M39.4818,39.5111c5.1203.6606,4.6508-1.5313,2.9933-3.282M41.3473,27.4203c3.4357,7.0648.5205,11.2036-5.2001,14.0499M13.381,40.8335c6.8753,3.8848,15.8043,4.4877,22.7661.6367M9.796,36.8628c-.9608,4.3571-1.8038,4.2426,3.5851,3.9708l-3.5851-3.9708ZM39.2501,15.3163c3.5195,4.1066,3.1495,8.114,2.0971,12.104M6.9827,31.0155c-7.5668,5.7313-4.8196,6.8904,2.8133,5.8472h0M9.2701,15.8813c-1.4447,5.1438-2.2909,9.8731-2.2874,15.1342M28.5221,8.5154c8.9498-6.3754,12.303-7.7651,10.728,6.8008M9.2701,15.8813c-2.4512-13.2315,1.1542-14.1493,11.1743-6.2623M19.425,8.6234c4.6916-1.1876,8.5706-1.291,9.0971-.108"/></svg>