<?xml version="1.0" encoding="UTF-8" standalone="no"?>
<svg
   viewBox="0 0 48 48"
   version="1.1"
   id="svg1"
   sodipodi:docname="screenshots.svg"
   inkscape:version="1.3.2 (091e20ef0f, 2023-11-25)"
   xml:space="preserve"
   xmlns:inkscape="http://www.inkscape.org/namespaces/inkscape"
   xmlns:sodipodi="http://sodipodi.sourceforge.net/DTD/sodipodi-0.dtd"
   xmlns="http://www.w3.org/2000/svg"
   xmlns:svg="http://www.w3.org/2000/svg"><sodipodi:namedview
     id="namedview1"
     pagecolor="#505050"
     bordercolor="#eeeeee"
     borderopacity="1"
     inkscape:showpageshadow="0"
     inkscape:pageopacity="0"
     inkscape:pagecheckerboard="0"
     inkscape:deskcolor="#505050"
     inkscape:zoom="12.59534"
     inkscape:cx="1.7069806"
     inkscape:cy="14.171909"
     inkscape:window-width="1918"
     inkscape:window-height="1053"
     inkscape:window-x="0"
     inkscape:window-y="0"
     inkscape:window-maximized="1"
     inkscape:current-layer="svg1" /><defs
     id="defs1"><style
       id="style1">.a { fill:none;stroke:#fff;stroke-linecap:round;stroke-linejoin:round; }
</style></defs><path
     style="fill:none;stroke:#ffffff;stroke-width:1;stroke-linecap:round;stroke-linejoin:round;stroke-opacity:1"
     d="m 14.960481,31.012696 -3.774518,2.178346 C 9.4058061,34.218404 7.9666272,33.518721 7.9666272,31.458146 v -15.785805 0 c 0,-3.029726 0.4776042,-3.742562 1.9068904,-4.567429 L 18.773253,5.9687045 c 1.780157,-1.0273628 3.219336,-0.3276787 3.219336,1.7328964 l 1e-6,4.6861761"
     id="path5" /><path
     style="fill:none;stroke:#ffffff;stroke-width:1;stroke-linecap:round;stroke-linejoin:round;stroke-opacity:1"
     d="m 22.446563,34.968994 -4.265874,2.461916 c -1.780157,1.027363 -3.219336,0.32768 -3.219336,-1.732896 v -15.785804 0 c 0,-3.029726 0.477605,-3.742562 1.906891,-4.56743 l 8.899735,-5.136206 c 1.780157,-1.0273652 3.219336,-0.3276797 3.219336,1.732896 v 4.684029"
     id="path4" /><path
     style="fill:none;stroke:#ffffff;stroke-width:1;stroke-linecap:round;stroke-linejoin:round;stroke-opacity:1"
     d="m 38.924547,36.480337 -9.40629,5.427097 c -0.907103,0.523367 -2.017313,1.07681 -3.53128,-0.129263 -2.706288,-2.155913 -4.030898,-7.226118 -4.030898,-11.190114 v -6.435979 c 0,-3.029729 0.477604,-3.74256 1.906891,-4.567429 l 8.899735,-5.136207 c 1.780159,-1.027366 3.2198,-0.327681 3.219688,1.732896 v 5.618629 c 0,3.546455 1.044673,7.998048 3.229431,10.416538 1.184411,1.311123 1.08747,3.470651 -0.287277,4.263832 z"
     id="path1-9" /></svg>
