<?xml version="1.0" encoding="UTF-8" standalone="no"?>
<svg
   viewBox="0 0 48 48"
   version="1.1"
   id="svg12"
   sodipodi:docname="seal_plus.svg"
   xml:space="preserve"
   inkscape:version="1.4.4 (dcaf3e7d9e, 2026-05-05)"
   xmlns:inkscape="http://www.inkscape.org/namespaces/inkscape"
   xmlns:sodipodi="http://sodipodi.sourceforge.net/DTD/sodipodi-0.dtd"
   xmlns="http://www.w3.org/2000/svg"
   xmlns:svg="http://www.w3.org/2000/svg"><sodipodi:namedview
     id="namedview12"
     pagecolor="#ffffff"
     bordercolor="#000000"
     borderopacity="0.25"
     inkscape:showpageshadow="2"
     inkscape:pageopacity="0.0"
     inkscape:pagecheckerboard="0"
     inkscape:deskcolor="#d1d1d1"
     inkscape:zoom="7.9479167"
     inkscape:cx="15.224115"
     inkscape:cy="38.311927"
     inkscape:window-width="1920"
     inkscape:window-height="972"
     inkscape:window-x="0"
     inkscape:window-y="0"
     inkscape:window-maximized="1"
     inkscape:current-layer="svg12" /><defs
     id="defs1"><style
       id="style1">.a{fill:none;stroke:#fff;stroke-linecap:round;stroke-linejoin:round;}</style></defs><path
     class="a"
     d="M14.3921,18.3723c-.5744-1.234-.99-2.0128.7694-3.5582C16.0123,4.3855,29.8838.74,34.0108,14.3333a4.5148,4.5148,0,0,0,.1315,1.77C37.2161,21.8942,38,30.26,37.5691,34.817c1.0641,2.1457,2.2377,3.1423,3.5582,2.5966.7279,1.3174,2.6017,4.2313-.0962,4.7123-9.0028.8733-8.5259.0231-9.4242-.577-1.5716,1.4249-13.6558.577-20.4837.8655-1.364.0046-3.066-.8029-2.8851-2.3081-2.748-1.52-4.286-10.37.9005-9.2945.3735-4.7337,1.3245-7.83,5.2543-12.44Z"
     id="path1" /><path
     class="a"
     d="M18.01,42.3734c3.3618-2.7035,3.4555-5.6574,3.6285-8.2826"
     id="path2" /><path
     class="a"
     d="M8.237,40.1061c.63-4.43,4.8585-1.1378,6.8727-6.1509"
     id="path3" /><path
     class="a"
     d="M9.1375,30.8116a10.155,10.155,0,0,0,1.9261,6.34"
     id="path4" /><path
     class="a"
     d="M31.606,41.5487a11.23,11.23,0,0,0,5.9625-6.7318"
     id="path5" /><path
     class="a"
     d="M22.0805,12.6379a.7608.7608,0,0,1-1.1428-.1049.9936.9936,0,0,1,.3789-1.2228.7614.7614,0,0,1,1.1434.1033.993.993,0,0,1-.3775,1.2229"
     id="path6" /><path
     class="a"
     d="M29.0291,12.7176a.9113.9113,0,0,1-1.1287-.35.7078.7078,0,0,1,.1179-1.0589.9106.9106,0,0,1,1.1288.3488.7083.7083,0,0,1-.1165,1.0594"
     id="path7" /><path
     class="a"
     d="M25.163,15.8957,24.44,14.7536l-.6275-1.1975,1.3507-.0552,1.3508.0552-.6275,1.1975Z"
     id="path8" /><path
     class="a"
     d="M25.1626,15.8474l-.024,1.106-1.3945.89"
     id="path9" /><path
     class="a"
     d="M25.1386,16.9538l1.5946.8835"
     id="path10" /><path
     class="a"
     d="M22.8545,9.0435l1.0338,1.13"
     id="path11" /><path
     class="a"
     d="M26.634,10.1777l1.01-.8895"
     id="path12" /><path
     id="path22"
     style="fill:none;fill-opacity:0.321726;stroke:#ffffff;stroke-linecap:round;stroke-linejoin:round"
     transform="rotate(90)"
     d="m 28.27785,-23.716479 10e-7,3.616872 H 25.44692 v -3.616873 m 0,-2.829832 v -3.618826 0 h 2.830931 v 3.618826 m -2.75e-4,-0.0015 h 3.617575 v 2.83093 h -3.617575 m -2.830381,0 H 21.82962 v 0 -2.83093 h 3.617575" /></svg>
