<?xml version="1.0" encoding="UTF-8" standalone="no"?>
<svg
   xml:space="preserve"
   width="48"
   height="48"
   version="1.1"
   id="svg10"
   sodipodi:docname="seats.svg"
   inkscape:version="1.4 (e7c3feb100, 2024-10-09)"
   xmlns:inkscape="http://www.inkscape.org/namespaces/inkscape"
   xmlns:sodipodi="http://sodipodi.sourceforge.net/DTD/sodipodi-0.dtd"
   xmlns="http://www.w3.org/2000/svg"
   xmlns:svg="http://www.w3.org/2000/svg"><defs
     id="defs14"><style
       id="style134">.d{fill:none;stroke:#fff;stroke-linecap:round;stroke-linejoin:round;}</style></defs><sodipodi:namedview
     id="namedview12"
     pagecolor="#505050"
     bordercolor="#eeeeee"
     borderopacity="1"
     inkscape:showpageshadow="0"
     inkscape:pageopacity="0"
     inkscape:pagecheckerboard="0"
     inkscape:deskcolor="#505050"
     showgrid="false"
     inkscape:zoom="9.1354166"
     inkscape:cx="17.076397"
     inkscape:cy="22.877993"
     inkscape:window-width="1586"
     inkscape:window-height="944"
     inkscape:window-x="0"
     inkscape:window-y="0"
     inkscape:window-maximized="1"
     inkscape:current-layer="svg10"
     showguides="false"><sodipodi:guide
       position="0,48"
       orientation="0,48"
       id="guide2250"
       inkscape:locked="false" /><sodipodi:guide
       position="48,48"
       orientation="48,0"
       id="guide2252"
       inkscape:locked="false" /><sodipodi:guide
       position="48,0"
       orientation="0,-48"
       id="guide2254"
       inkscape:locked="false" /><sodipodi:guide
       position="0,0"
       orientation="-48,0"
       id="guide2256"
       inkscape:locked="false" /><sodipodi:guide
       position="48,24"
       orientation="0,1"
       id="guide1099"
       inkscape:label=""
       inkscape:locked="false"
       inkscape:color="rgb(0,134,229)" /><sodipodi:guide
       position="24,48"
       orientation="-1,0"
       id="guide2553"
       inkscape:label=""
       inkscape:locked="false"
       inkscape:color="rgb(0,134,229)" /><sodipodi:guide
       position="0,44"
       orientation="0,1"
       id="guide302"
       inkscape:locked="false"
       inkscape:label=""
       inkscape:color="rgb(0,134,229)" /><sodipodi:guide
       position="44,48"
       orientation="-1,0"
       id="guide304"
       inkscape:locked="false"
       inkscape:label=""
       inkscape:color="rgb(0,134,229)" /><sodipodi:guide
       position="48,4"
       orientation="0,1"
       id="guide306"
       inkscape:locked="false"
       inkscape:label=""
       inkscape:color="rgb(0,134,229)" /><sodipodi:guide
       position="4,0"
       orientation="-1,0"
       id="guide308"
       inkscape:locked="false"
       inkscape:label=""
       inkscape:color="rgb(0,134,229)" /></sodipodi:namedview><path
     id="path2-7-5"
     style="fill:none;stroke:#ffffff;stroke-width:0.999999;stroke-linecap:round;stroke-linejoin:round;stroke-dasharray:none;paint-order:stroke fill markers"
     d="m 17.447155,32.631775 17.261683,-1.063143 c 0,0 -2.630553,-4.0534 -8.743686,-3.773901 -4.726864,0.216117 -8.517997,4.837044 -8.517997,4.837044 z m 5.755174,-6.622452 17.2696,-0.925693 c 0,0 -2.598202,-4.074213 -8.713366,-3.843388 -4.728435,0.178481 -8.556234,4.769081 -8.556234,4.769081 z M 19.730901,9.0181301 20.971608,26.267959 c 0,0 4.026116,-2.672123 3.683729,-8.782056 -0.264744,-4.72439 -4.924436,-8.4677729 -4.924436,-8.4677729 z M 43.5,24 A 19.5,19.5 0 0 1 24,43.5 19.5,19.5 0 0 1 4.5,24 19.5,19.5 0 0 1 24,4.5 19.5,19.5 0 0 1 43.5,24 Z M 14.059853,15.870684 15.3171,33.119316 c 0,0 4.023551,-2.675983 3.675307,-8.785585 -0.269276,-4.724135 -4.932554,-8.463047 -4.932554,-8.463047 z" /></svg>
