<?xml version="1.0" encoding="UTF-8"?><svg id="b" xmlns="http://www.w3.org/2000/svg" viewBox="0 0 48 48"><defs><style>.c{fill:none;stroke:#fff;stroke-linecap:round;stroke-linejoin:round;}</style></defs><path class="c" d="M13.393,20.4904c5.8578-5.8577,15.3552-5.8577,21.213,0"/><path class="c" d="M18.343,25.4404c3.1241-3.1243,8.1894-3.1244,11.3137-.0003l.0003.0003"/><circle class="c" cx="24" cy="31.0964" r="2"/><path class="c" d="M24,43.5c9.0432-3.1174,15.4885-10.3631,16.5-19.5889.2804-4.0049.2566-8.0254-.0714-12.0267-.0898-1.3069-1.1582-2.3314-2.4677-2.3663-4.0911-.126-8.8455-.8077-12.52-4.4273-.7988-.7877-2.0822-.7877-2.881,0-3.6749,3.6192-8.4293,4.3013-12.5199,4.4273-1.3095.0349-2.3779,1.0594-2.4677,2.3663-.3283,4.0013-.3524,8.0217-.0723,12.0267,1.0115,9.2258,7.4568,16.4715,16.5,19.5889Z"/></svg>