<?xml version="1.0" encoding="UTF-8"?><svg id="a" xmlns="http://www.w3.org/2000/svg" viewBox="0 0 48 48"><defs><style>.d{fill:none;stroke:#fff;stroke-linecap:round;stroke-linejoin:round;}</style></defs><rect class="d" x="4.5" y="20" width="8" height="8"/><line class="d" x1="28.46" x2="28.46" y1="20" y2="28"/><path class="d" d="m35.98 20-2.65 4-2.65-4"/><line class="d" x1="33.33" x2="33.33" y1="28" y2="24"/><path class="d" d="m14.878 27.124c.49056.63866 1.1057.87654 1.9615.87654l1.1844-1e-6c1.1022 0 1.9957-.8935 1.9957-2s-.89351-2-1.9957-2h-1.3065c-1.1034 0-1.9978-.89447-1.9978-1.999 0-1.1046.89639-2.001 2.0022-2.001h1.1779c.85581 0 1.471.23789 1.9615.87654"/><path class="d" d="m38.2 20v5.35c0 1.4636 1.1864 2.65 2.65 2.65s2.65-1.1864 2.65-2.65v-5.35"/><line class="d" x1="22.24" x2="24.84" y1="24" y2="24"/><path class="d" d="m26.24 28h-4v-8h4"/></svg>
