<?xml version="1.0" encoding="UTF-8"?>
<!-- Created with Inkscape (http://www.inkscape.org/) -->
<svg width="48" height="48" version="1.1" viewBox="0 0 48 48" xml:space="preserve" xmlns="http://www.w3.org/2000/svg"><g transform="matrix(1.2258 0 0 1.2258 -5.4188 -5.3275)" stroke-width=".81595"><path x="12.862406" y="9.2412634" width="22.275188" height="7.6657095" d="m15.462 9.2413h17.075a2.6 2.6 45 0 1 2.6 2.6v2.4657a2.6 2.6 135 0 1-2.6 2.6h-17.075a2.6 2.6 45 0 1-2.6-2.6v-2.4657a2.6 2.6 135 0 1 2.6-2.6z" fill="none" stroke="#fff" stroke-linecap="round" stroke-linejoin="round" stroke-width=".81595"/><circle cx="16.761" cy="13.074" r=".75" fill="#fff"/><circle cx="21.461" cy="13.074" r=".75" fill="#fff"/><g transform="translate(0 11.1)"><path x="12.862406" y="9.2412634" width="22.275188" height="7.6657095" d="m15.462 9.2413h17.075a2.6 2.6 45 0 1 2.6 2.6v2.4657a2.6 2.6 135 0 1-2.6 2.6h-17.075a2.6 2.6 45 0 1-2.6-2.6v-2.4657a2.6 2.6 135 0 1 2.6-2.6z" fill="none" stroke="#fff" stroke-linecap="round" stroke-linejoin="round" stroke-width=".81595"/><circle cx="16.761" cy="13.074" r=".75" fill="#fff"/><circle cx="21.461" cy="13.074" r=".75" fill="#fff"/></g><g fill="none" stroke="#fff" stroke-linecap="round" stroke-linejoin="round"><path d="m15.572 20.341v-3.434"/><path d="m32.428 20.341v-3.434"/><circle cx="24" cy="35.478" r="3.1326"/><path d="m24 28.007v4.3388"/><path d="m27.133 35.478 8.138-0.07245"/><path d="m20.868 35.406-8.138 0.07245"/></g></g></svg>
