<svg xmlns="http://www.w3.org/2000/svg" xml:space="preserve" width="48" height="48"><path fill="none" stroke="#fff" stroke-linecap="round" stroke-linejoin="round" d="M24.919 31.784h3.845v-4.67c0-.646.603-1.166 1.352-1.166h13.368v-3.763h-13.8c-2.64 0-4.765 2.139-4.765 4.796zm18.549-12.132h-14.88c-1.169 0-2.206-.615-2.877-1.466a3.7 3.7 0 0 1-.791-2.297H43.5zm-19.631-1.466a3.7 3.7 0 0 0 .792-2.297H9.264c-2.64 0-4.765 2.139-4.765 4.796v.428c0 2.657 2.125 4.801 4.765 4.801h10.55c.749 0 1.352.52 1.352 1.165v.104c0 .646-.603 1.165-1.352 1.165H8.449c-1.169 0-2.206.615-2.877 1.467a3.7 3.7 0 0 0-.791 2.297h15.365c2.64 0 4.764-2.14 4.764-4.797v-.428c0-2.657-2.124-4.797-4.764-4.797H9.596c-.75 0-1.353-.523-1.353-1.169v-.104c0-.645.603-1.165 1.352-1.165H20.96c1.169 0 2.206-.614 2.877-1.466"/></svg>
