<?xml version="1.0" encoding="UTF-8"?><svg id="a" xmlns="http://www.w3.org/2000/svg" viewBox="0 0 48 48"><defs><style>.d{fill:none;stroke:#fff;stroke-linecap:round;stroke-linejoin:round;}</style></defs><path class="d" d="m34.627 21.151c1.4791-10.25-13.353-11.207-15.003-1.8324-3.5915-2.4049-8.1051 0.25179-7.2569 4.442-8.4692 0.06733-7.2359 8.7438-2.2911 8.9672h26.736c7.2242 0.15735 8.6654-11.197-2.1849-11.576l0.27506-0.15664"/><path class="d" d="m25.685 32.727-0.549 3.9854h1.3929l-0.675 4.1913 4.8268-5.2781h-1.9794l0.5141-2.8986"/><path class="d" d="m7.738 25.162a11.311 11.311 0 0 1-2.238-6.7542 11.311 11.311 0 0 1 11.311-11.311 11.311 11.311 0 0 1 9.8689 5.7843"/></svg>
