<svg xmlns="http://www.w3.org/2000/svg" viewBox="0 0 48 48"><path fill="none" stroke="#fff" stroke-linecap="round" stroke-linejoin="round" d="M36.352 42.5v-8h2.619c1.48 0 2.681 1.203 2.681 2.687s-1.2 2.686-2.681 2.686h-2.619M45.5 38.5a7 7 0 0 1-7 7 7 7 0 0 1-7-7 7 7 0 0 1 7-7 7 7 0 0 1 7 7m-26.67-4.465c1.334 1 2.669 1.334 5.337 1.334H25.5a4.336 4.336 0 0 0 0-8.672h-3a4.336 4.336 0 0 1 0-8.672h1.334c3.002 0 4.336.334 5.337 1.334m-18.467-5.903h28.328c1.734 0 3.469 1.734 3.469 3.468v15.834m-10.658 7.87H8.969c-1.735 0-3.469-1.735-3.469-3.47V13.457c0-2.89.578-3.758 2.89-3.758l24.86-2.313c2.023-.115 2.312.579 2.312 1.446v4.625" class="t"/></svg>
