<?xml version="1.0" encoding="UTF-8" standalone="no"?>
<svg
   viewBox="0 0 48 48"
   version="1.1"
   id="svg1"
   sodipodi:docname="shopping_list.svg"
   inkscape:version="1.2.2 (b0a8486541, 2022-12-01)"
   xml:space="preserve"
   xmlns:inkscape="http://www.inkscape.org/namespaces/inkscape"
   xmlns:sodipodi="http://sodipodi.sourceforge.net/DTD/sodipodi-0.dtd"
   xmlns="http://www.w3.org/2000/svg"
   xmlns:svg="http://www.w3.org/2000/svg"><sodipodi:namedview
     id="namedview1"
     pagecolor="#505050"
     bordercolor="#eeeeee"
     borderopacity="1"
     inkscape:showpageshadow="0"
     inkscape:pageopacity="0"
     inkscape:pagecheckerboard="0"
     inkscape:deskcolor="#505050"
     inkscape:zoom="8.90625"
     inkscape:cx="-8.3087719"
     inkscape:cy="22.231579"
     inkscape:window-width="1918"
     inkscape:window-height="1053"
     inkscape:window-x="0"
     inkscape:window-y="0"
     inkscape:window-maximized="1"
     inkscape:current-layer="svg1"
     showgrid="false" /><defs
     id="defs1"><style
       id="style1">.a { fill:none;stroke:#fff;stroke-linecap:round;stroke-linejoin:round; }
</style></defs><g
     id="g1380"><path
       style="fill:none;stroke:#ffffff;stroke-linecap:round;stroke-linejoin:round;stroke-dashoffset:3.6;stroke-opacity:1"
       d="M 24,5.4546846 A 2.4897954,2.4888807 0 0 0 21.510864,7.9408652 H 11.123467 c -0.868791,0 -1.5682169,0.6991689 -1.5682169,1.567641 V 40.977674 c 0,0.868472 0.6994259,1.567641 1.5682169,1.567641 h 25.753066 c 0.868791,0 1.568217,-0.699169 1.568217,-1.567641 V 9.5085062 c 0,-0.8684721 -0.699426,-1.567641 -1.568217,-1.567641 H 26.489136 A 2.4897954,2.4888807 0 0 0 24,5.4546846 Z"
       id="path1354" /><path
       style="fill:none;stroke:#ffffff;stroke-linecap:round;stroke-linejoin:round;stroke-dashoffset:3.6;stroke-opacity:1"
       d="M 29.691893,7.9415161 V 11.148414 H 18.308106 V 7.9415161"
       id="path1352" /></g><g
     id="g1376"><path
       style="fill:none;stroke:#ffffff;stroke-linecap:round;stroke-linejoin:round;stroke-dashoffset:3.6;stroke-opacity:1"
       d="M 17.541168,15.598417 H 30.458833"
       id="path1350" /><path
       style="fill:none;stroke:#ffffff;stroke-linecap:round;stroke-linejoin:round;stroke-dashoffset:3.6;stroke-opacity:1"
       d="M 17.541168,19.66145 H 30.458833"
       id="path1348" /></g><g
     id="g1372"><path
       style="fill:none;stroke:#ffffff;stroke-linecap:round;stroke-linejoin:round;stroke-dashoffset:3.6;stroke-opacity:1"
       d="m 13.840853,23.888709 h 0.993117 c 0.868792,0 1.399979,0.715608 1.568218,1.567641 l 1.445157,7.318951 c 0.304539,1.542327 1.178979,2.231448 2.663655,2.231448 h 7.397104 c 1.484676,0 2.359116,-0.689121 2.663655,-2.231448 l 1.371144,-6.944096 0.03337,-0.169 H 16.490269"
       id="path1346" /><path
       style="fill:none;stroke:#ffffff;stroke-linecap:round;stroke-linejoin:round;stroke-dashoffset:3.6;stroke-opacity:1"
       d="m 22.644,28.323077 h 3.575825"
       id="path1344" /><path
       style="fill:none;stroke:#ffffff;stroke-linecap:round;stroke-linejoin:round;stroke-dashoffset:3.6;stroke-opacity:1"
       d="m 28.044739,37.802605 a 0.72884429,0.72857648 0 0 1 -0.728844,0.728576 0.72884429,0.72857648 0 0 1 -0.728844,-0.728576 0.72884429,0.72857648 0 0 1 0.728844,-0.728577 0.72884429,0.72857648 0 0 1 0.728844,0.728577 z"
       id="path1342" /><path
       style="fill:none;stroke:#ffffff;stroke-linecap:round;stroke-linejoin:round;stroke-dashoffset:3.6;stroke-opacity:1"
       d="m 21.889258,37.802605 a 0.72884429,0.72857648 0 0 1 -0.728844,0.728576 0.72884429,0.72857648 0 0 1 -0.728845,-0.728576 0.72884429,0.72857648 0 0 1 0.728845,-0.728577 0.72884429,0.72857648 0 0 1 0.728844,0.728577 z"
       id="circle1312" /></g></svg>
