<svg xmlns="http://www.w3.org/2000/svg" xml:space="preserve" width="48" height="48"><path fill="none" stroke="#fff" stroke-linecap="round" stroke-linejoin="round" d="M20.192 18.092v8.198c0 .389-.383.702-.859.702s-.859-.313-.859-.702v-8.198m-2.017 0v8.198c0 .389-.383.702-.859.702s-.859-.313-.859-.702v-8.198m5.226 24.407v-9.15c0-.963.006-1.397 1.223-2.616 1.218-1.218 1.223-1.694 1.223-2.615v-8.704c0-.732-.589-1.32-1.32-1.32h-.898m-5.452 0h-.9c-.732 0-1.32.588-1.32 1.32l.003 8.704c.004.921.01 1.397 1.227 2.615s1.224 1.653 1.22 2.615l-.005 9.151m3.51-24.405h-2.017m17.025 24.405V30.577a5.206 6.765 0 0 0 2.708-5.925 5.206 6.765 0 0 0-5.208-6.766v0a5.206 6.765 0 0 0-5.205 6.766 5.206 6.765 0 0 0 2.706 5.925v11.922M16.45 12.724v-2.99c0-.731.589-1.32 1.32-1.32h12.456c.732 0 1.321.589 1.321 1.32v2.99zM33.484 42.5h3.278v0c2.195 0 3.884-1.768 3.962-3.96l.924-25.917L36.872 5.5H11.128L6.35 12.623l.924 25.917c.078 2.192 1.767 3.96 3.962 3.96h3.73m4.998 0h8.52"/></svg>
