<svg xmlns="http://www.w3.org/2000/svg" xml:space="preserve" viewBox="0 0 48 48"><path d="M4.4999965 14.096744c.1382379 10.93271 6.2088445 21.9895 13.0958725 27.356399-2.507047-7.548184-4.447454-14.844873-4.441437-22.84621-1.799443-1.160889-5.4302081-3.493003-8.6544355-4.510189" style="fill:none;stroke:#fff;stroke-width:1;stroke-linecap:round;stroke-linejoin:round;stroke-dashoffset:1.3;stroke-opacity:1"/><path d="M17.642319 41.352989 33.784865 6.5469129c-3.837962 1.3287577-7.825054 3.2882589-10.648412 5.4857011l-8.61351 18.116961M23.35273 29.593379c2.397478 4.816363 5.644102 8.935435 9.095795 11.625257-2.386102-7.184042-4.25892-14.140289-4.428874-21.693034" style="fill:none;stroke:#fff;stroke-width:1;stroke-linecap:round;stroke-linejoin:round;stroke-dashoffset:1.3;stroke-opacity:1"/><path d="m32.494974 41.118482 8.95492-19.308329c1.415692-3.052473 2.625421-5.77763 1.757978-7.885714-3.113209 1.258452-6.160071 2.880888-8.444842 4.659142l-5.387431 11.331487" style="fill:none;stroke:#fff;stroke-width:1;stroke-linecap:round;stroke-linejoin:round;stroke-dashoffset:1.3;stroke-opacity:1"/></svg>