<?xml version="1.0" encoding="UTF-8"?><svg id="b" xmlns="http://www.w3.org/2000/svg" viewBox="0 0 48 48"><defs><style>.o{fill:#fff;}.p,.q{fill:none;stroke:#fff;stroke-linecap:round;stroke-linejoin:round;}.q{stroke-width:.8782px;}</style></defs><rect class="p" x="5.5" y="5.5" width="37" height="37" rx="4" ry="4"/><path id="c" class="p" d="M10.3162,25.8154c.4311.5635.9717.7735,1.7238.7735h1.0408c.9686,0,1.7538-.7884,1.7538-1.761v-.0076c0-.9726-.7852-1.761-1.7538-1.761h-1.1481c-.9696,0-1.7557-.7893-1.7557-1.7629h0c0-.9757.7877-1.7667,1.7595-1.7667h1.0351c.7521,0,1.2927.2099,1.7238.7735"/><g id="d"><line id="e" class="q" x1="16.3948" y1="21.9121" x2="16.3948" y2="26.5888"/></g><g id="f"><path id="g" class="q" d="M18.2633,23.6769c0-.9747.7869-1.7648,1.7576-1.7648h0c.9707,0,1.7576.7901,1.7576,1.7648v2.9119"/><line id="h" class="q" x1="18.2633" y1="21.9121" x2="18.2633" y2="26.5888"/><path id="i" class="q" d="M21.7785,23.6769c0-.9747.7869-1.7648,1.7576-1.7648h0c.9707,0,1.7576.7901,1.7576,1.7648v2.9119"/></g><g id="j"><path id="k" class="q" d="M26.952,24.7202c0,.9747.7869,1.7648,1.7576,1.7648h0c.9707,0,1.7576-.7901,1.7576-1.7648v-1.1471c0-.9747-.7869-1.7648-1.7576-1.7648h0c-.9707,0-1.7576.7901-1.7576,1.7648"/><line id="l" class="q" x1="26.952" y1="21.8083" x2="26.952" y2="28.8674"/></g><path id="m" class="p" d="M31.9797,19.5297v6.1768c0,.4873.3934.8824.8788.8824h.2636"/><path id="n" class="p" d="M37.3714,25.6982c-.3027.532-.8732.8906-1.5271.8906h0c-.9707,0-1.7576-.7901-1.7576-1.7648v-1.1471c0-.9747.7869-1.7648,1.7576-1.7648h0c.9707,0,1.7576.7901,1.7576,1.7648v.5736h-3.5152"/><circle class="o" cx="16.3948" cy="19.7503" r=".75"/><circle class="o" cx="39.073" cy="26.3272" r=".75"/></svg>