<?xml version="1.0" encoding="UTF-8"?>
<svg id="Layer_1" xmlns="http://www.w3.org/2000/svg" version="1.1" viewBox="0 0 48 48">
  <!-- Generator: Adobe Illustrator 29.0.1, SVG Export Plug-In . SVG Version: 2.1.0 Build 192)  -->
  <defs>
    <style>
      .st0 {
        fill: none;
        stroke: #fff;
        stroke-linecap: round;
        stroke-linejoin: round;
      }
    </style>
  </defs>
  <path class="st0" d="M24,43.5c9-3.1,15.5-10.4,16.5-19.6.3-4,.3-8,0-12,0-1.3-1.2-2.3-2.5-2.4-4.1-.1-8.8-.8-12.5-4.4-.8-.8-2.1-.8-2.9,0-3.7,3.6-8.4,4.3-12.5,4.4-1.3,0-2.4,1.1-2.5,2.4-.3,4-.4,8,0,12,1,9.2,7.5,16.5,16.5,19.6Z"/>
  <g>
    <line class="st0" x1="18.4" y1="24" x2="29.6" y2="24"/>
    <line class="st0" x1="24" y1="18.4" x2="24" y2="29.6"/>
  </g>
</svg>