<?xml version="1.0" encoding="UTF-8" standalone="no"?>
<svg
   id="Layer_1"
   data-name="Layer 1"
   version="1.1"
   viewBox="0 0 48 48"
   xmlns="http://www.w3.org/2000/svg"
   xmlns:svg="http://www.w3.org/2000/svg">
  <defs
     id="defs1">
    <style
       id="style1">
      .cls-1 {
        fill: none;
        stroke: #fff;
        stroke-linecap: round;
        stroke-linejoin: round;
      }
    </style>
  </defs>
  <path
     class="r"
     d="m 5.680025,26.096933 c 0.5574545,0.728725 1.2564773,1.000158 2.2289886,1.00016 l 1.345875,-2e-6 c 1.2524894,0 2.2678414,-1.019508 2.2678414,-2.277134 v -0.0098 c 0,-1.257627 -1.015352,-2.277134 -2.2678414,-2.277134 H 7.770275 C 6.5164341,22.533009 5.5000023,21.512402 5.5000023,20.253418 v -5e-6 c 0,-1.261696 1.018625,-2.284503 2.2751704,-2.284503 h 1.3385339 c 0.9725114,0 1.6715344,0.271434 2.2289894,1.000158"
     id="path51"
     style="fill:none;stroke:#ffffff;stroke-width:1;stroke-linecap:round;stroke-linejoin:round" />
  <g
     id="g1"
     transform="matrix(1.1363636,0,0,1.141025,-6.5733108,-1.9419932)"
     style="stroke-width:0.878201">
    <circle
       class="q"
       cx="17.700001"
       cy="17.699999"
       r="0.69999999"
       id="circle50"
       style="fill:#ffffff;stroke-width:0.878201" />
    <line
       class="r"
       x1="17.700001"
       y1="20.149996"
       x2="17.700001"
       y2="25.449999"
       id="line51"
       style="fill:none;stroke:#ffffff;stroke-width:0.878201;stroke-linecap:round;stroke-linejoin:round" />
  </g>
  <g
     id="g2"
     transform="matrix(1.1363636,0,0,1.141025,-3.9298886,-1.2003315)"
     style="stroke-width:0.878201">
    <path
       class="r"
       d="m 17.5,21.5 c 0,-1.104568 0.89543,-1.999998 2,-1.999998 h 10e-6 c 1.10457,0 2,0.89543 2,1.999998 v 3.300002"
       id="path38"
       style="fill:none;stroke:#ffffff;stroke-width:0.878201;stroke-linecap:round;stroke-linejoin:round" />
    <line
       class="r"
       x1="17.500002"
       y1="19.5"
       x2="17.500002"
       y2="24.800003"
       id="line38"
       style="fill:none;stroke:#ffffff;stroke-width:0.878201;stroke-linecap:round;stroke-linejoin:round" />
    <path
       class="r"
       d="m 21.50001,21.5 c 0,-1.104568 0.89543,-1.999998 1.99999,-1.999998 h 10e-6 c 1.10457,0 2,0.89543 2,1.999998 v 3.300002"
       id="path39"
       style="fill:none;stroke:#ffffff;stroke-width:0.878201;stroke-linecap:round;stroke-linejoin:round" />
  </g>
  <g
     id="g3"
     transform="matrix(1.1363636,0,0,1.141025,-6.3309205,0.94740737)"
     style="stroke-width:0.878201">
    <path
       class="r"
       d="m 29.50001,20.800004 c 0,1.104568 0.89542,1.999998 1.99999,1.999998 h 10e-6 c 1.10457,0 2,-0.89543 2,-1.999998 V 19.5 c 0,-1.104568 -0.89543,-1.999998 -2,-1.999998 H 31.5 c -1.10457,0 -1.99999,0.89543 -1.99999,1.999998"
       id="path90"
       style="fill:none;stroke:#ffffff;stroke-width:0.878201;stroke-linecap:round;stroke-linejoin:round" />
    <line
       class="r"
       x1="29.500002"
       y1="17.5"
       x2="29.500002"
       y2="25.5"
       id="line90"
       style="fill:none;stroke:#ffffff;stroke-width:0.878201;stroke-linecap:round;stroke-linejoin:round" />
  </g>
  <path
     class="r"
     d="m 33.693214,17.968899 v 7.987179 c 0,0.63017 0.508761,1.141025 1.136363,1.141025 h 0.34091"
     id="path57"
     style="fill:none;stroke:#ffffff;stroke-width:1;stroke-linecap:round;stroke-linejoin:round" />
  <path
     class="r"
     d="m 40.66522,25.945473 c -0.391443,0.687944 -1.129159,1.15162 -1.974738,1.15162 h -1.2e-5 c -1.255193,0 -2.272716,-1.021708 -2.272716,-2.282048 v -1.483337 c 0,-1.26034 1.017523,-2.282048 2.272716,-2.282048 h 1.2e-5 c 1.255193,0 2.272727,1.021708 2.272727,2.282048 v 0.741668 c 0,0 -4.545455,0 -4.545455,0"
     id="path77"
     style="fill:none;stroke:#ffffff;stroke-width:1;stroke-linecap:round;stroke-linejoin:round" />
  <ellipse
     class="q"
     cx="42.147724"
     cy="26.811834"
     id="circle78"
     style="fill:#ffffff;stroke-width:1"
     rx="0.85227269"
     ry="0.85576874" />
</svg>
