<svg xmlns="http://www.w3.org/2000/svg" xml:space="preserve" viewBox="0 0 48 48"><path d="M29.034 43.5H13.177a5.1 5.1 0 0 1-5.114-5.114V9.614A5.1 5.1 0 0 1 13.177 4.5v0h15.857a5.1 5.1 0 0 1 5.113 5.114V20.64" style="fill:none;stroke:#fff;stroke-width:1;stroke-linecap:round;stroke-linejoin:round;stroke-dashoffset:1.3;stroke-opacity:1"/><path d="M24.64 34.673H11.334V10.06h19.543v10.624M18.095 39.124h6.02" style="fill:none;stroke:#fff;stroke-width:1;stroke-linecap:round;stroke-linejoin:round;stroke-dashoffset:1.3;stroke-opacity:1"/><path d="m28.279 20.685-.927 5.109a7.88 7.88 0 0 0-3.178 6.297 7.88 7.88 0 0 0 3.178 6.3l.927 5.108h7.555l.926-5.108a7.88 7.88 0 0 0 3.177-6.3 7.88 7.88 0 0 0-3.182-6.327l-.92-5.079z" style="fill:none;stroke:#fff;stroke-width:1;stroke-linecap:round;stroke-linejoin:round;stroke-dashoffset:1.3;stroke-opacity:1"/><path d="M37.588 32.092a5.53 5.53 0 0 1-5.532 5.533 5.53 5.53 0 0 1-5.532-5.533 5.53 5.53 0 0 1 5.532-5.532 5.53 5.53 0 0 1 5.532 5.532" style="fill:none;stroke:#fff;stroke-width:1;stroke-linecap:round;stroke-linejoin:round;stroke-dashoffset:1.3;stroke-opacity:1"/></svg>