<svg xmlns="http://www.w3.org/2000/svg" viewBox="0 0 48 48"><defs><style>.a{fill:none;stroke:#fff;stroke-linecap:round;stroke-linejoin:round;}</style></defs><path class="a" d="M21.1165,19.2174l3.1221-9.25m0,0,3.0064,9.25m-1.0407-3.122H22.1572"/><path class="a" d="M12.2063,38.3375a11.0267,11.0267,0,0,0,9.25,4.1625h5.55a9.25,9.25,0,0,0,0-18.5H20.9937a9.25,9.25,0,0,1,0-18.5h5.55c4.1625,0,6.9375.925,9.25,4.1625"/><path class="a" d="M35.7938,7.35V9.6625H33.4813"/><path class="a" d="M14.5188,38.3375H12.2063V40.65"/><path class="a" d="M19.7308,30.4706h8.5384"/><path class="a" d="M24,29.0475v1.4231"/><path class="a" d="M21.8654,32.6052a13.9834,13.9834,0,0,0,4.9808,5.6923"/><path class="a" d="M20.5846,38.2975c3.6027-1.1428,5.4166-4.4387,6.2616-7.8269"/></svg>