<?xml version="1.0" encoding="UTF-8"?><svg id="a" xmlns="http://www.w3.org/2000/svg" viewBox="0 0 48 48"><defs><style>.h{fill:none;stroke:#fff;stroke-linecap:round;stroke-linejoin:round;}</style></defs><g id="b"><rect id="c" class="h" x="27.0269" y="28.8197" width="7.5755" height="11.4347" rx="3.7878" ry="3.7878"/><polyline id="d" class="h" points="14.8315 40.2544 14.8315 28.8197 22.4071 40.2544 22.4071 28.8197"/><path id="e" class="h" d="M9.4209,40.3692c-2.3687-1.0208-3.9209-3.4855-3.9209-6.2255s1.5523-5.2047,3.9209-6.2255"/><path id="f" class="h" d="M38.4602,27.8684c2.4311.9864,4.0398,3.4852,4.0398,6.2752h0c0,2.7901-1.6086,5.2889-4.0398,6.2752"/><path id="g" class="h" d="M6.5396,30.4385c-.5395-1.6871-.8138-3.443-.8138-5.2088C5.7258,15.4826,13.905,7.5811,23.9945,7.5811h0c10.0895,0,18.2687,7.9016,18.2687,17.6486h0c0,1.7617-.273,3.5134-.81,5.197"/></g></svg>