<?xml version="1.0" encoding="UTF-8"?>
<svg version="1.1" viewBox="0 0 48 48" xmlns="http://www.w3.org/2000/svg">
 <defs>
  <style>.a {
        fill: none;
        stroke: #fff;
        stroke-linecap: round;
        stroke-linejoin: round;
      }</style>
 </defs>
 <path d="m5.8813 11.403c0.059995 21.478 18.059 31.318 18.059 31.318s18.179-9.8304 18.179-31.318c-15.779-5.8796-20.818-5.76-36.237-4.2e-4z" class="a"/>
 <path d="m7.4788 21.294s11.87-6.8727 15.48-9.8579c4.0956 4.3041 17.84 9.3719 17.84 9.3719l-5.5534-1.319 3.0543 2.5686-11.94-4.5124-0.06942 2.7769-3.1932-3.8182-1.8743 2.4298-2.2908-0.69422-3.8873 2.7074 1.3189-2.9157z" class="a"/>
 <path d="m15.149 35.317c-4.6162-8.5736 3.9444-11.038 5.1716-11.038 9.163-0.41653 12.94-1.4747 10.997-4.5987 8.7099 6.5385-8.899 4.1235-8.0524 7.5473 1.7354 4.7901 10.135 6.9422 10.135 6.9422" class="a"/>
 <path d="m35.907 11.909 0.6695 1.6894-1.6873 0.0754" class="a"/>
 <path d="m39.64 12.98-1.7861 0.33423 0.24856-1.6707" class="a"/>
 <path d="m38.782 16.542-0.71744-1.6696 1.6845-0.12352" class="a"/>
 <path d="m35.032 15.665 1.7389-0.52766-0.06429 1.6879" class="a"/>
</svg>
