<?xml version="1.0" encoding="UTF-8"?><svg id="a" xmlns="http://www.w3.org/2000/svg" viewBox="0 0 48 48"><defs><style>.b{fill:none;stroke:#fff;stroke-linecap:round;stroke-linejoin:round;}</style></defs><path class="b" d="m27.671 28.132a26.935 27.025 0 0 0 18.507-11.521 26.935 27.025 0 0 0-22.189-11.718 26.935 27.025 0 0 0-22.166 11.75 26.935 27.025 0 0 0 18.506 11.492" fill="none"/><path class="b" d="m24 5.6426c-6.0751 0-11 4.9249-11 11 0.0066 4.7821 3.1021 9.012 7.6582 10.465l-5.2082 15.999h17.1l-5.2082-15.999c4.5561-1.4528 7.6516-5.6828 7.6582-10.465 0-6.0751-4.9249-11-11-11z"/></svg>
