<?xml version="1.0" encoding="UTF-8"?><svg id="a" xmlns="http://www.w3.org/2000/svg" viewBox="0 0 48 48"><defs><style>.d{fill:none;stroke:#fff;stroke-linecap:round;stroke-linejoin:round;}</style></defs><rect class="d" x="5.5" y="5.5" width="37" height="37" rx="4" ry="4"/><line class="d" x1="5.5" x2="42.5" y1="24" y2="24"/><line class="d" x1="21.798" x2="21.798" y1="8.7297" y2="17.702"/><line class="d" x1="21.799" x2="25.86" y1="15.796" y2="11.754"/><line class="d" x1="23.092" x2="26.284" y1="14.51" y2="17.688"/><path class="d" d="m15.926 17.2c0.4095 0.3439 0.8517 0.5015 1.8447 0.5015h0.5032c0.8189 0 1.4828-0.6653 1.4828-1.486s-0.6639-1.486-1.4828-1.486h-1.0064c-0.8189 0-1.4828-0.6653-1.4828-1.486s0.6639-1.486 1.4828-1.486h0.5032c0.993 0 1.4352 0.1576 1.8447 0.5015"/><line class="d" x1="30.118" x2="27.729" y1="17.702" y2="11.758"/><line class="d" x1="32.215" x2="29.05" y1="11.758" y2="20.73"/><path class="d" d="m32.365 35.453c0.3652 0.3066 0.7594 0.4472 1.6449 0.4472h0.4487c0.7302 0 1.3221-0.5932 1.3221-1.325s-0.5919-1.325-1.3221-1.325h-0.8974c-0.7302 0-1.3221-0.5932-1.3221-1.325s0.5919-1.325 1.3221-1.325h0.4487c0.8854 0 1.2797 0.1405 1.6449 0.4472"/><path class="d" d="m16.219 35.9v-3.3c0-1.1046-0.8954-2-2-2s-2 0.8954-2 2"/><line class="d" x1="12.219" x2="12.219" y1="35.9" y2="30.6"/><path class="d" d="m21.764 34.891c-0.3445 0.6029-0.9937 1.0093-1.7378 1.0093-1.1046 0-2-0.8954-2-2v-1.3c0-1.1046 0.8954-2 2-2s2 0.8954 2 2v0.65h-4"/><path class="d" d="m23.83 30.6 1.65 5.3 1.65-5.3 1.65 5.3 1.65-5.3"/></svg>
