<?xml version="1.0" encoding="UTF-8" standalone="no"?>
<svg
   id="Layer_1"
   data-name="Layer 1"
   version="1.1"
   viewBox="0 0 48 48"
   xml:space="preserve"
   xmlns="http://www.w3.org/2000/svg"
   xmlns:svg="http://www.w3.org/2000/svg"><defs
     id="defs1"><style
       id="style1">
      .cls-1 {
        fill: none;
        stroke: #fff;
        stroke-linecap: round;
        stroke-linejoin: round;
      }
    </style></defs><path
     style="fill:none;stroke:#ffffff;stroke-width:0.999989;stroke-linecap:round;stroke-linejoin:round;stroke-dashoffset:0.5"
     d="m 7.7432632,20.486651 c 0.513566,1.518829 1.09881,1.8847 2.4385208,2.268406 C 8.6978232,23.115276 8.2119372,23.323999 7.7432632,24.974682 7.3347912,23.402336 7.0685482,23.00876 5.4998218,22.755057 6.9123692,22.3276 7.2879962,22.137498 7.7432632,20.486651 Z"
     id="path2-8" /><path
     style="fill:none;stroke:#ffffff;stroke-width:1;stroke-linecap:round;stroke-linejoin:round;stroke-dashoffset:0.5"
     d="M 27.98664,6.0364074 C 41.926764,9.7109484 47.546473,25.840471 37.119368,36.815488 28.63126,45.749619 11.298493,43.044744 6.6468102,28.84919 16.358006,33.456585 23.549616,30.039496 26.623966,26.416271 30.266073,22.123924 32.254955,13.879513 27.98664,6.0364074 Z"
     id="path1" /><path
     style="fill:none;stroke:#ffffff;stroke-width:1;stroke-linecap:round;stroke-linejoin:round;stroke-dashoffset:0.5"
     d="m 10.714714,13.016847 c 0.70223,2.076794 1.502474,2.577076 3.334349,3.101738 -2.029119,0.492548 -2.693501,0.777949 -3.334349,3.035034 C 10.156183,17.00365 9.7921312,16.465488 7.6471132,16.118585 9.5785792,15.534096 10.0922,15.274157 10.714714,13.016847 Z"
     id="path2" /></svg>
