<svg xmlns="http://www.w3.org/2000/svg" xml:space="preserve" width="48" height="48"><path fill="none" stroke="#fff" stroke-linecap="round" stroke-linejoin="round" d="M10.044 33.495c.566 1.3 1.526 1.785 3.007 1.785h2.05c1.908 0 3.85-1.824 4.34-4.073v0c.489-2.249-.661-4.072-2.57-4.072h-2.264c-1.908 0-3.058-1.823-2.569-4.072v0c.489-2.249 2.432-4.072 4.34-4.072h2.05c1.481 0 2.44.485 3.007 1.785m-7.908 16.533 4.427-20.361m14.584 18.659 5.418-24.915M34.773 25.33c.748-3.44-1.107-6.229-4.144-6.229v0c-3.037 0-6.106 2.789-6.854 6.229l-.88 4.049c-.748 3.44 1.108 6.228 4.145 6.228v0c3.037 0 6.105-2.788 6.853-6.228M40.5 5.5h-33a2 2 0 0 0-2 2v33a2 2 0 0 0 2 2h33a2 2 0 0 0 2-2v-33a2 2 0 0 0-2-2" class="t"/></svg>