<svg xmlns="http://www.w3.org/2000/svg" viewBox="0 0 48 48"><defs><style>.a{fill:none;stroke:#fff;stroke-linecap:round;stroke-linejoin:round;}</style></defs><path class="a" d="m26.3 32.7h-11v-17.6c0.0367-0.747 0.96-1.84 1.88-1.82h7.08c0.819-0.0033 1.97 0.838 2.01 1.68z"/><path class="a" d="m26.3 23.7h1.56c0.795-0.0218 0.751 0.179 0.751 1.01l0.1 5.45c0.0329 2.12 3.62 2.12 3.64 0l-0.1-11.3-4.08-4.08"/>/<ellipse class="a" cx="30.4" cy="19.7" rx="1.91" ry="1.91"/><path class="a" d="m17.8 15.7v4.85h6.11v-4.89z"/><path class="a" d="m1 24.1 11.7-20.1h22.7l11.6 20.1-11.6 19.9h-22.8z"/><path class="a" d="m12.8 4.01 4.34 9.13m12.5 2.95 5.79-12.1"/></svg>
