<?xml version="1.0" encoding="UTF-8"?>
<!-- Created with Inkscape (http://www.inkscape.org/) -->
<svg version="1.1" viewBox="0 0 48 48" xml:space="preserve" xmlns="http://www.w3.org/2000/svg">
<defs><style>
      .cls-1 {
        fill: none;
        stroke: #fff;
        stroke-linecap: round;
        stroke-linejoin: round;
      }
    </style>
</defs>
<g transform="translate(-233.73 80.448)">
	<g transform="matrix(1 0 0 1.1079 -1.8839 3.6322)" stroke-width=".95008"><g transform="translate(75.519 -122.18)">
		<path class="st5" d="m172 61.35c0-1.1046 0.89543-2 2-2s2 0.89543 2 2v3.3"/>
		<line class="st5" x1="172" x2="172" y1="59.35" y2="64.65"/>
		
			<path class="st5" d="m176 61.35c0-1.1046 0.89543-2 2-2s2 0.89543 2 2v3.3" stroke-width=".95008"/>
		
	</g><g transform="translate(39.008 -122.18)">
		<path class="st5" d="m225 61.35c0-1.1046 0.89543-2 2-2"/>
		<line class="st5" x1="225" x2="225" y1="59.35" y2="64.65"/>
	</g><g transform="translate(7.5038 -122.18)">
		<path class="st5" d="m234.36 64.203c0.36518 0.30665 0.75945 0.44716 1.6449 0.44716h0.4487c0.73019 0 1.3221-0.59322 1.3221-1.325s-0.59195-1.325-1.3221-1.325h-0.8974c-0.73019 0-1.3221-0.59322-1.3221-1.325v-4e-6c0-0.73178 0.59194-1.325 1.3221-1.325h0.4487c0.88542 0 1.2797 0.14051 1.6449 0.44716" stroke-width=".95008"/>
	</g><g transform="translate(22.597 -122.18)">
		
			<line class="st5" x1="246" x2="246" y1="57.7" y2="64.65" stroke-width=".95008"/>
		
		<line class="st5" x1="244.95" x2="247.05" y1="59.35" y2="59.35"/>
	</g><g transform="translate(203.76 -122.18)">
		
			<path class="st5" d="m58 62.65c0 1.1046-0.89543 2-2 2h-8e-6c-1.1046 0-2-0.89543-2-2v-1.3c0-1.1046 0.89543-2 2-2h8e-6c1.1046 0 2 0.89543 2 2" stroke-width=".95008"/>
		
		<line class="st5" x1="58" x2="58" y1="64.65" y2="59.35"/>
	</g></g><g transform="matrix(.99957 0 0 1.0671 .44138 3.116)"><g stroke-width="1.0243"><g transform="matrix(.89312 0 0 1.0004 81.156 -95.463)">
		<polyline class="st5" points="183.37 48.65 183.37 40.65 188.67 48.65 188.67 40.65" stroke-width="1.0243"/>
	</g><g transform="matrix(.89312 0 0 1.0004 155.82 -95.463)">
		<line class="st5" x1="94" x2="96.608" y1="44.65" y2="44.65"/>
		<polyline class="st5" points="98 48.65 94 48.65 94 40.65 98 40.65"/>
	</g><g transform="matrix(.89312 0 0 1.0004 56.912 -95.467)">
		<g stroke-width="1.0243">
			<path class="st5" d="m223.35 48.65v-8h2.619c1.4806 0 2.681 1.2029 2.681 2.6867 0 1.4838-1.2003 2.6867-2.681 2.6867h-2.619"/>
		
		
			
				<line class="st5" x1="225.97" x2="228.59" y1="46.024" y2="48.648" stroke-width="1.0243"/>
			
		</g>
	</g><g transform="matrix(.89312 0 0 1.0004 7.0433 -95.467)">
		<polyline class="st5" points="298.65 40.65 296 44.65 293.35 40.65"/>
		<line class="st5" x1="296" x2="296" y1="48.65" y2="44.65"/>
	</g></g><ellipse class="st6" cx="274.84" cy="-46.991" rx=".62518" ry=".70027" stroke-width=".96824"/><g transform="matrix(.89312 0 0 1.0004 167.29 -95.467)" fill="none" stroke="#fff" stroke-linecap="round" stroke-linejoin="round" stroke-miterlimit="10" stroke-width="1.0243">
		<line class="st5" x1="94" x2="96.608" y1="44.65" y2="44.65"/>
		<polyline class="st5" points="98 48.65 94 48.65 94 40.65 98 40.65"/>
	</g><path class="st5" d="m267.46-52.15c0-1.4641-1.0596-2.651-2.3668-2.651-1.3071 0-2.3668 1.1869-2.3668 2.651v2.701c0 1.4641 1.0596 2.651 2.3668 2.651s2.3668-1.1869 2.3668-2.651h-2.3668" stroke-width=".96824"/></g></g><rect class="cls-1" x="4.5" y="8.5" width="39" height="31" rx="4" ry="4"/><style type="text/css">
	.st5{fill:none;stroke:#FFFFFF;stroke-linecap:round;stroke-linejoin:round;stroke-miterlimit:10;}
	.st6{fill:#FFFFFF;}
</style></svg>
