<svg xmlns="http://www.w3.org/2000/svg" xml:space="preserve" viewBox="0 0 48 48"><circle cx="33.332" cy="15.532" r=".825" style="fill:#fff;fill-opacity:1;stroke:none;stroke-width:1;stroke-linecap:round;stroke-linejoin:round;stroke-dashoffset:1.3;stroke-opacity:.798698"/><path d="M34.388 40.784H10.193c-1.991 0-4.392-.856-4.714-3.669L3.6 20.65c-.305-2.669 1.427-3.813 3.655-3.813h15.301c2.159 0 2.992 1.035 3.477 2.346l.544 1.469M28.033 13.73h-3.569c-1.197 0-1.823-.372-2.427-1.067-.6-.69-.596-1.572-1.135-2.402-.491-.758-1.213-1.249-2.188-1.249H9.928a2.746 2.746 0 0 0-2.752 2.752v4.768M37.798 15.974a3.295 3.295 0 0 0-3.13-2.243h-3.326M37.97 21.054V19.57" style="fill:none;fill-opacity:.446467;stroke:#fff;stroke-width:1;stroke-linecap:round;stroke-linejoin:round;stroke-dashoffset:1.3;stroke-opacity:1"/><path d="M28.104 23.47a1.008 1.008 0 1 0-2.016 0 1.008 1.008 0 0 0 2.016 0M28.166 23.47h6.664M38.307 24.694a1.956 1.956 0 1 0-3.912 0 1.956 1.956 0 0 0 3.912 0M38.011 37.84a1.66 1.66 0 1 0-3.32 0 1.66 1.66 0 0 0 3.32 0M36.351 26.742v9.345M43.316 32.982a1.01 1.01 0 1 0-2.02 0 1.01 1.01 0 0 0 2.02 0M41.208 33.398l-3.616 3.049M30.994 8.378h4.541M34.748 23.392l-5.03-4.152V9.481" style="fill:none;fill-opacity:.446467;stroke:#fff;stroke-width:1;stroke-linecap:round;stroke-linejoin:round;stroke-dashoffset:1.3;stroke-opacity:1"/><path d="M42.306 31.973V29.63l-4.375-3.61M30.924 8.522a.922.922 0 1 0-1.845 0 .922.922 0 0 0 1.845 0M38.19 8.522a1.306 1.306 0 1 0-2.613 0 1.306 1.306 0 0 0 2.613 0M44.435 17.742a.939.939 0 1 0-1.878 0 .939.939 0 0 0 1.878 0M42.557 17.742h-6.472l-2.753-2.21" style="fill:none;fill-opacity:.446467;stroke:#fff;stroke-width:1;stroke-linecap:round;stroke-linejoin:round;stroke-dashoffset:1.3;stroke-opacity:1"/></svg>