<?xml version="1.0" encoding="UTF-8"?><svg id="a" xmlns="http://www.w3.org/2000/svg" viewBox="0 0 48 48"><defs><style>.l{fill:none;stroke:#fff;stroke-linecap:round;stroke-linejoin:round;}</style></defs><g id="b"><line id="c" class="l" x1="12.1592" y1="10.937" x2="26.6577" y2="10.937"/><line id="d" class="l" x1="12.1592" y1="15.2393" x2="26.6577" y2="15.2393"/><line id="e" class="l" x1="12.1592" y1="19.5416" x2="21.3503" y2="19.5416"/><path id="f" class="l" d="M28.4776,5.5H10.0804c-1.3541,0-2.4519,1.0977-2.4519,2.4519h0v20.8058l3.8402-3.8401h17.0089c1.3542,0,2.452-1.0978,2.452-2.452v-.0002h0V7.9519c0-1.3541-1.0977-2.4519-2.4519-2.4519h0Z"/></g><g id="g"><polygon id="h" class="l" points="22.2487 32.7382 22.2487 42.5 40.3714 42.5 40.3714 32.7382 31.3096 37.6201 22.2487 32.7382"/><line id="i" class="l" x1="35.3838" y1="29.0628" x2="40.3715" y2="32.7387"/><polyline id="j" class="l" points="22.2487 32.7382 31.3096 26.0607 33.64 27.7771"/><line id="k" class="l" x1="32.6717" y1="27.0649" x2="37.6593" y2="30.7409"/></g></svg>