<?xml version="1.0" encoding="UTF-8" standalone="no"?>
<svg
   viewBox="0 0 48 48"
   version="1.1"
   id="svg4"
   sodipodi:docname="sms_backup_.svg"
   inkscape:version="1.3.2 (091e20e, 2023-11-25, custom)"
   xmlns:inkscape="http://www.inkscape.org/namespaces/inkscape"
   xmlns:sodipodi="http://sodipodi.sourceforge.net/DTD/sodipodi-0.dtd"
   xmlns="http://www.w3.org/2000/svg"
   xmlns:svg="http://www.w3.org/2000/svg">
  <sodipodi:namedview
     id="namedview4"
     pagecolor="#ffffff"
     bordercolor="#000000"
     borderopacity="0.25"
     inkscape:showpageshadow="2"
     inkscape:pageopacity="0.0"
     inkscape:pagecheckerboard="0"
     inkscape:deskcolor="#d1d1d1"
     inkscape:zoom="10.604167"
     inkscape:cx="24"
     inkscape:cy="24"
     inkscape:window-width="1366"
     inkscape:window-height="705"
     inkscape:window-x="-8"
     inkscape:window-y="-8"
     inkscape:window-maximized="1"
     inkscape:current-layer="svg4" />
  <defs
     id="defs1">
    <style
       id="style1">.a{fill:none;stroke:#fff;stroke-linecap:round;stroke-linejoin:round;}</style>
  </defs>
  <g
     id="g4"
     transform="translate(-12.165029,-1.6974459)">
    <line
       class="a"
       x1="22.492399"
       y1="11.2557"
       x2="37.840801"
       y2="11.2557"
       id="line2" />
    <line
       class="a"
       x1="22.492399"
       y1="15.8102"
       x2="37.840801"
       y2="15.8102"
       id="line3" />
    <line
       class="a"
       x1="22.492399"
       y1="20.3647"
       x2="32.222198"
       y2="20.3647"
       id="line4" />
    <path
       class="a"
       d="M 39.7674,5.5 H 20.2917 a 2.5956,2.5956 0 0 0 -2.5956,2.5957 v 22.0254 l 4.0653,-4.0652 h 18.006 A 2.5957,2.5957 0 0 0 42.3631,23.46 v 0 V 8.0956 A 2.5956,2.5956 0 0 0 39.7674,5.5 Z"
       id="path4" />
  </g>
  <g
     id="g5"
     transform="translate(15.371317,0.47151277)">
    <polygon
       class="a"
       points="5.637,32.166 5.637,42.5 24.822,42.5 24.822,32.166 15.229,37.334 "
       id="polygon1" />
    <line
       class="a"
       x1="19.542101"
       y1="28.275101"
       x2="24.8221"
       y2="32.1665"
       id="line1" />
    <polyline
       class="a"
       points="5.637 32.166 15.229 25.097 17.696 26.914"
       id="polyline1" />
    <line
       class="a"
       x1="16.670923"
       y1="26.160118"
       x2="21.950922"
       y2="30.051517"
       id="line1-1"
       style="fill:none;stroke:#ffffff;stroke-linecap:round;stroke-linejoin:round" />
  </g>
</svg>
