<?xml version="1.0" encoding="UTF-8" standalone="no"?>
<svg
   viewBox="0 0 48 48"
   version="1.1"
   id="svg1"
   sodipodi:docname="smzdm.svg"
   inkscape:version="1.2.2 (b0a8486541, 2022-12-01)"
   xml:space="preserve"
   xmlns:inkscape="http://www.inkscape.org/namespaces/inkscape"
   xmlns:sodipodi="http://sodipodi.sourceforge.net/DTD/sodipodi-0.dtd"
   xmlns="http://www.w3.org/2000/svg"
   xmlns:svg="http://www.w3.org/2000/svg"><sodipodi:namedview
     id="namedview1"
     pagecolor="#505050"
     bordercolor="#eeeeee"
     borderopacity="1"
     inkscape:showpageshadow="0"
     inkscape:pageopacity="0"
     inkscape:pagecheckerboard="0"
     inkscape:deskcolor="#505050"
     inkscape:zoom="8.90625"
     inkscape:cx="-9.6561403"
     inkscape:cy="22.231579"
     inkscape:window-width="1918"
     inkscape:window-height="1053"
     inkscape:window-x="0"
     inkscape:window-y="0"
     inkscape:window-maximized="1"
     inkscape:current-layer="svg1"
     showgrid="false" /><defs
     id="defs1"><style
       id="style1">.a { fill:none;stroke:#fff;stroke-linecap:round;stroke-linejoin:round; }
</style></defs><g
     id="g2037"><path
       style="fill:none;stroke:#ffffff;stroke-width:1;stroke-linecap:round;stroke-linejoin:round;stroke-dashoffset:3.6;stroke-opacity:1"
       d="M 15.204513,11.507184 C 14.613395,16.870025 12.846584,22.390867 7.7293332,28.139349"
       id="path2010" /><path
       style="fill:none;stroke:#ffffff;stroke-width:1;stroke-linecap:round;stroke-linejoin:round;stroke-dashoffset:3.6;stroke-opacity:1"
       d="m 13.047418,20.10556 c 2.161323,3.614642 1.907083,10.38186 2.860624,17.205734"
       id="path2008" /><path
       style="fill:none;stroke:#ffffff;stroke-width:1;stroke-linecap:round;stroke-linejoin:round;stroke-dashoffset:3.6;stroke-opacity:1"
       d="m 18.54671,25.441458 c 1.475729,1.564349 1.438336,5.720417 2.013588,10.854252 6.704712,-2.165582 15.21561,-4.022536 18.587513,-4.241655"
       id="path2006" /><path
       style="fill:none;stroke:#ffffff;stroke-width:1;stroke-linecap:round;stroke-linejoin:round;stroke-dashoffset:3.6;stroke-opacity:1"
       d="m 18.989194,15.637297 c 5.173382,-0.325373 9.833873,-2.210699 13.776925,-3.633072"
       id="path2004" /><path
       style="fill:none;stroke:#ffffff;stroke-width:1;stroke-linecap:round;stroke-linejoin:round;stroke-dashoffset:3.6;stroke-opacity:1"
       d="m 25.413888,9.0811097 c 0.233559,3.4919153 0.111623,7.7790643 -0.668869,10.6342113"
       id="path2002" /><path
       style="fill:none;stroke:#ffffff;stroke-width:1;stroke-linecap:round;stroke-linejoin:round;stroke-dashoffset:3.6;stroke-opacity:1"
       d="m 22.039357,20.403355 c 1.300112,3.427699 1.585723,7.455401 2.17321,11.47888"
       id="path2000" /><path
       style="fill:none;stroke:#ffffff;stroke-width:1;stroke-linecap:round;stroke-linejoin:round;stroke-dashoffset:3.6;stroke-opacity:1"
       d="m 22.135845,20.655146 c 3.043046,-1.10699 5.604097,-2.119621 8.866398,-2.917622 0.0012,3.168527 0.834991,6.194785 1.998854,12.414529"
       id="path1998" /><path
       style="fill:none;stroke:#ffffff;stroke-width:1;stroke-linecap:round;stroke-linejoin:round;stroke-dashoffset:3.6;stroke-opacity:1"
       d="m 23.012686,23.82527 6.088995,-2.061009"
       id="path1996" /><path
       style="fill:none;stroke:#ffffff;stroke-width:1;stroke-linecap:round;stroke-linejoin:round;stroke-dashoffset:3.6;stroke-opacity:1"
       d="m 23.626088,27.511682 6.053578,-1.907463"
       id="path1994" /><path
       style="fill:none;stroke:#ffffff;stroke-width:1;stroke-linecap:round;stroke-linejoin:round;stroke-dashoffset:3.6;stroke-opacity:1"
       d="m 24.161237,31.49816 c 4.135788,-1.54665 6.696189,-2.033147 8.398983,-2.470874"
       id="path1992" /></g><path
     style="fill:none;stroke:#ffffff;stroke-width:1;stroke-linecap:round;stroke-linejoin:round;stroke-dashoffset:3.6;stroke-opacity:1"
     d="M 45.5,24.000001 C 45.499999,35.874122 35.874122,45.499999 24.000001,45.5 12.125879,45.5 2.5000009,35.874123 2.5000003,24.000001 2.5,12.125878 12.125878,2.5 24.000001,2.5000004 35.874123,2.500001 45.5,12.125879 45.5,24.000001 Z"
     id="path1976" /></svg>
