<svg xmlns="http://www.w3.org/2000/svg" xml:space="preserve" id="svg1" version="1.1" viewBox="0 0 48 48"><defs id="defs1"><style id="style1">.a{fill:none;stroke:#fff;stroke-linecap:round;stroke-linejoin:round}</style></defs><path id="path18" d="M41.205 39.923h1.539a2 2 0 0 0 2-2v0-.428" style="display:inline;fill:none;fill-opacity:.439204;stroke:#fff;stroke-width:1;stroke-linecap:round;stroke-linejoin:round;stroke-dasharray:none;stroke-opacity:1"/><path id="path17" d="M17.181 39.923h16.125" style="display:inline;fill:none;fill-opacity:.439204;stroke:#fff;stroke-width:1;stroke-linecap:round;stroke-linejoin:round;stroke-dasharray:none;stroke-opacity:1"/><path id="path16" d="M5.744 37.495v.428a2 2 0 0 0 2 2h1.539" style="display:inline;fill:none;fill-opacity:.439204;stroke:#fff;stroke-width:1;stroke-linecap:round;stroke-linejoin:round;stroke-dasharray:none;stroke-opacity:1"/><path id="path15" d="M44.744 37.495V10.923a2 2 0 0 0-2-2h-35a2 2 0 0 0-2 2v26.572" style="display:inline;fill:none;fill-opacity:.439204;stroke:#fff;stroke-width:1;stroke-linecap:round;stroke-linejoin:round;stroke-dasharray:none;stroke-opacity:1"/><path id="path14" d="M5.718 37.54c3.304-8.924 9.024-22.164 11.73-21.18 1.518.553 2.48 2.352 3.7 3.611 1.231 1.562 6.96 1.562 8.192 0 1.22-1.259 2.182-3.058 3.7-3.61 2.706-.985 8.426 12.256 11.73 21.18" style="display:inline;fill:none;fill-opacity:.439204;stroke:#fff;stroke-width:1;stroke-linecap:round;stroke-linejoin:round;stroke-dasharray:none;stroke-opacity:1"/><path id="path13" d="M27.718 13.669c1.282-1.127 3.086-.421 3.323 1.13.15.98-.963 2.461-2.734 2.344l.78 2.93" style="display:inline;fill:none;fill-opacity:.439204;stroke:#fff;stroke-width:1;stroke-linecap:round;stroke-linejoin:round;stroke-dasharray:none;stroke-opacity:1"/><path id="path12" d="m21.369 20.192.812-3.049c-1.771.117-2.884-1.365-2.735-2.343.238-1.552 2.042-2.258 3.323-1.132 0 0 .459-1.848 2.475-1.848s2.477 1.848 2.474 1.848" style="display:inline;fill:none;fill-opacity:.439204;stroke:#fff;stroke-width:1;stroke-linecap:round;stroke-linejoin:round;stroke-dasharray:none;stroke-opacity:1"/><path id="path11" d="m28.725 18.72-7.025.454" style="display:inline;fill:none;fill-opacity:.439204;stroke:#fff;stroke-width:1;stroke-linecap:round;stroke-linejoin:round;stroke-dasharray:none;stroke-opacity:1"/><path id="path10" d="M32.291 28.076a1.738 1.738 0 1 1-3.476.001 1.738 1.738 0 0 1 3.476-.001v0" style="display:inline;fill:none;fill-opacity:.439204;stroke:#fff;stroke-width:1;stroke-linecap:round;stroke-linejoin:round;stroke-dasharray:none;stroke-opacity:1"/><path id="path9" d="M21.671 28.076a1.738 1.738 0 1 1-3.476.001 1.738 1.738 0 0 1 3.476-.001v0" style="display:inline;fill:none;fill-opacity:.439204;stroke:#fff;stroke-width:1;stroke-linecap:round;stroke-linejoin:round;stroke-dasharray:none;stroke-opacity:1"/><path id="path8" d="M25.119 28.905h.25" style="display:inline;fill:none;fill-opacity:.439204;stroke:#fff;stroke-width:1;stroke-linecap:round;stroke-linejoin:round;stroke-dasharray:none;stroke-opacity:1"/><path id="path7" d="M21.953 30.55c1.318 1.015 3.056.192 3.29-1.578.236 1.77 1.974 2.593 3.292 1.577" style="display:inline;fill:none;fill-opacity:.439204;stroke:#fff;stroke-width:1;stroke-linecap:round;stroke-linejoin:round;stroke-dasharray:none;stroke-opacity:1"/><path id="path6" d="M23.141 31.025c.232.583.781 1.754 2.103 1.754s1.87-1.171 2.103-1.754" style="display:inline;fill:none;fill-opacity:.439204;stroke:#fff;stroke-width:1;stroke-linecap:round;stroke-linejoin:round;stroke-dasharray:none;stroke-opacity:1"/><path id="path5" d="M36.223 27.022c3.696-1.126 6.091-1.061 9.147-.817" style="display:inline;fill:none;fill-opacity:.439204;stroke:#fff;stroke-width:1;stroke-linecap:round;stroke-linejoin:round;stroke-dasharray:none;stroke-opacity:1"/><path id="path4" d="M37.183 29.15c2.518-.033 4.257.184 6.282.853" style="display:inline;fill:none;fill-opacity:.439204;stroke:#fff;stroke-width:1;stroke-linecap:round;stroke-linejoin:round;stroke-dasharray:none;stroke-opacity:1"/><path id="path3" d="M14.265 27.022c-3.696-1.126-6.091-1.061-9.147-.817" style="display:inline;fill:none;fill-opacity:.439204;stroke:#fff;stroke-width:1;stroke-linecap:round;stroke-linejoin:round;stroke-dasharray:none;stroke-opacity:1"/><path id="path2" d="M13.305 29.15c-2.518-.033-4.257.184-6.282.853" style="display:inline;fill:none;fill-opacity:.439204;stroke:#fff;stroke-width:1;stroke-linecap:round;stroke-linejoin:round;stroke-dasharray:none;stroke-opacity:1"/><path id="path1" d="M36.609 34.406c-2.738 3.088-4.91 6.826-1.98 8.567 2.34 1.39 5.12-.376 7.89-5.038" style="display:inline;fill:none;fill-opacity:.439204;stroke:#fff;stroke-width:1;stroke-linecap:round;stroke-linejoin:round;stroke-dasharray:none;stroke-opacity:1"/><path id="path48" d="M13.88 34.406c2.737 3.088 4.91 6.826 1.98 8.567-2.34 1.39-5.12-.376-7.892-5.038" style="display:inline;fill:none;fill-opacity:.439204;stroke:#fff;stroke-width:1;stroke-linecap:round;stroke-linejoin:round;stroke-dasharray:none;stroke-opacity:1"/></svg>