<?xml version="1.0" encoding="UTF-8"?>
<svg id="Layer_1" xmlns="http://www.w3.org/2000/svg" version="1.1" viewBox="0 0 48 48">
  <!-- Generator: Adobe Illustrator 29.0.1, SVG Export Plug-In . SVG Version: 2.1.0 Build 192)  -->
  <defs>
    <style>
      .st0 {
        fill: none;
        stroke: #fff;
        stroke-linecap: round;
        stroke-linejoin: round;
      }
    </style>
  </defs>
  <g>
    <g>
      <path class="st0" d="M30.5,12.4c0,1.3-1,2.3-2.3,2.3h0c-1.3,0-2.3-1-2.3-2.3v-1.6c0-1.3,1-2.3,2.3-2.3h0c1.3,0,2.3,1,2.3,2.3"/>
      <line class="st0" x1="30.5" y1="14.8" x2="30.5" y2="8.5"/>
    </g>
    <g>
      <path class="st0" d="M22.8,14.8v-3.9c0-1.3-1-2.3-2.3-2.3h0c-1.3,0-2.3,1-2.3,2.3"/>
      <line class="st0" x1="18.1" y1="14.8" x2="18.1" y2="8.5"/>
    </g>
    <g>
      <path class="st0" d="M33.4,12.4c0,1.3,1,2.3,2.3,2.3h0c1.3,0,2.3-1,2.3-2.3v-1.6c0-1.3-1-2.3-2.3-2.3h0c-1.3,0-2.3,1-2.3,2.3"/>
      <line class="st0" x1="33.4" y1="8.5" x2="33.4" y2="17.9"/>
    </g>
    <path class="st0" d="M9.1,13.7c.6.7,1.3,1,2.3,1h1.4c1.3,0,2.3-1,2.3-2.3h0c0-1.3-1-2.3-2.3-2.3h-1.6c-1.3,0-2.3-1-2.3-2.3h0c0-1.3,1-2.3,2.3-2.3h1.4c1,0,1.7.3,2.3,1"/>
  </g>
  <g>
    <g>
      <path class="st0" d="M29.8,28.6v-3.9c0-1.3-1-2.3-2.3-2.3h0c-1.3,0-2.3,1-2.3,2.3"/>
      <line class="st0" x1="25" y1="28.6" x2="25" y2="22.4"/>
    </g>
    <path class="st0" d="M22.1,27.5c-.4.7-1.2,1.2-2,1.2h0c-1.3,0-2.3-1-2.3-2.3v-1.6c0-1.3,1-2.3,2.3-2.3h0c1.3,0,2.3,1,2.3,2.3v.7h-4.8"/>
    <g>
      <path class="st0" d="M37.6,24.7c0-1.3-1-2.3-2.3-2.3h0c-1.3,0-2.3,1-2.3,2.3v1.6c0,1.3,1,2.3,2.3,2.3h0c1.3,0,2.3-1,2.3-2.3"/>
      <line class="st0" x1="37.6" y1="28.6" x2="37.6" y2="19.2"/>
    </g>
    <path class="st0" d="M9.1,27.6c.6.7,1.3,1,2.3,1h1.4c1.3,0,2.3-1,2.3-2.3h0c0-1.3-1-2.3-2.3-2.3h-1.6c-1.3,0-2.3-1-2.3-2.3h0c0-1.3,1-2.3,2.3-2.3h1.4c1,0,1.7.3,2.3,1"/>
  </g>
  <g>
    <polyline class="st0" points="32.5 36.3 30.2 42.5 27.9 36.3"/>
    <path class="st0" d="M25,33.1v8.2c0,.7.6,1.2,1.2,1.2h.3"/>
    <path class="st0" d="M38.7,41.3c-.4.7-1.2,1.2-2,1.2h0c-1.3,0-2.3-1-2.3-2.3v-1.6c0-1.3,1-2.3,2.3-2.3h0c1.3,0,2.3,1,2.3,2.3v.7h-4.8"/>
    <path class="st0" d="M17.8,38.6c0-1.3,1-2.3,2.3-2.3s2.3,1,2.3,2.3v1.6c0,1.3-1,2.3-2.3,2.3s-2.3-1-2.3-2.3v-1.6Z"/>
    <path class="st0" d="M9.1,41.5c.6.7,1.3,1,2.3,1h1.4c1.3,0,2.3-1,2.3-2.3h0c0-1.3-1-2.3-2.3-2.3h-1.6c-1.3,0-2.3-1-2.3-2.3h0c0-1.3,1-2.3,2.3-2.3h1.4c1,0,1.7.3,2.3,1"/>
  </g>
</svg>