<?xml version="1.0" encoding="UTF-8" standalone="no"?>
<!-- Created with Inkscape (http://www.inkscape.org/) -->

<svg
   width="48"
   height="48"
   viewBox="0 0 12.7 12.7"
   version="1.1"
   id="svg1"
   xml:space="preserve"
   inkscape:version="1.3.2 (091e20e, 2023-11-25, custom)"
   sodipodi:docname="snap_mobile.svg"
   xmlns:inkscape="http://www.inkscape.org/namespaces/inkscape"
   xmlns:sodipodi="http://sodipodi.sourceforge.net/DTD/sodipodi-0.dtd"
   xmlns="http://www.w3.org/2000/svg"
   xmlns:svg="http://www.w3.org/2000/svg"><sodipodi:namedview
     id="namedview1"
     pagecolor="#ffffff"
     bordercolor="#000000"
     borderopacity="0.25"
     inkscape:showpageshadow="2"
     inkscape:pageopacity="0.0"
     inkscape:pagecheckerboard="0"
     inkscape:deskcolor="#d1d1d1"
     inkscape:document-units="mm"
     inkscape:zoom="21.326848"
     inkscape:cx="35.049718"
     inkscape:cy="25.015417"
     inkscape:window-width="2560"
     inkscape:window-height="1316"
     inkscape:window-x="-12"
     inkscape:window-y="-12"
     inkscape:window-maximized="1"
     inkscape:current-layer="layer1" /><defs
     id="defs1" /><g
     inkscape:label="Layer 1"
     inkscape:groupmode="layer"
     id="layer1"><path
       style="fill:none;stroke:#ffffff;stroke-opacity:1;stroke-width:0.26458333;stroke-dasharray:none;stroke-linejoin:round;stroke-linecap:round"
       d="M 2.1971001,9.9313999 C 2.1025094,9.8368092 2.1624376,9.7573288 2.7676427,9.1747128 3.1023962,8.8524539 3.4402306,8.5315447 3.5183858,8.4615812 L 3.6604863,8.3343749 5.6164306,8.3184999 7.572375,8.3026249 7.7542895,8.2132942 C 8.2039588,7.9924803 8.3971882,7.4477744 8.1808844,7.0107403 8.111861,6.8712811 7.9989962,6.7570288 7.5281686,6.3499999 7.2150745,6.0793312 6.9427012,5.8212114 6.9228946,5.7764004 6.8661716,5.648069 6.9256394,5.5347744 7.0708788,5.4944696 7.1371517,5.4760784 7.6914375,5.3674494 8.302625,5.2530716 8.9138125,5.1386939 9.6111861,5.0068764 9.8523441,4.9601437 l 0.4384689,-0.084968 0.171339,0.089707 c 0.22535,0.1179859 0.440032,0.3520148 0.5651,0.6160265 0.09372,0.1978455 0.101123,0.2379009 0.101123,0.5473965 0,0.5072859 -0.05793,0.6062452 -0.753711,1.2875068 C 9.1682048,8.5970963 7.8326384,9.8613486 7.7370301,9.9126065 7.6439673,9.9624997 7.4198507,9.9669447 4.9355375,9.968169 2.8761096,9.969184 2.2261572,9.960457 2.1971001,9.9313999 Z M 2.1641293,7.6929287 C 1.558851,7.3747323 1.300927,6.6118096 1.5860456,5.982994 1.695441,5.7417275 1.7003755,5.7365537 3.1117226,4.3832738 3.5568939,3.9564182 4.1160472,3.4169758 4.3542853,3.1845128 4.5925235,2.9520498 4.8385239,2.7405109 4.900953,2.7144264 4.9985657,2.6736412 5.3861397,2.667 7.6686925,2.667 c 1.7689123,0 2.6747165,0.010963 2.7156445,0.032867 0.03378,0.018077 0.06141,0.065091 0.06141,0.1044763 0,0.070084 -0.13033,0.2054229 -1.1439333,1.1878908 l -0.3343083,0.3240392 -1.9516917,0.0088 C 5.0986954,4.333719 5.0615254,4.3350769 4.9173637,4.4017351 4.7280553,4.4892683 4.5222709,4.6761119 4.434991,4.8397091 4.3790197,4.9446216 4.3660376,5.02253 4.3658527,5.2546249 4.3655375,5.6502427 4.4012828,5.7035101 5.0401764,6.2594968 5.7486885,6.8760679 5.7854399,6.9245769 5.6594375,7.0768715 5.6042002,7.1436349 5.5339042,7.1606995 4.54025,7.3485592 4.4092813,7.37332 4.0378063,7.4439706 3.71475,7.5055603 3.3916938,7.5671501 2.9439457,7.6520102 2.7197543,7.6941383 l -0.4076208,0.076597 z"
       id="path1" /></g></svg>
