<?xml version="1.0" encoding="UTF-8"?>
<svg id="Layer_1" xmlns="http://www.w3.org/2000/svg" version="1.1" viewBox="0 0 48 48">
  <!-- Generator: Adobe Illustrator 29.0.1, SVG Export Plug-In . SVG Version: 2.1.0 Build 192)  -->
  <defs>
    <style>
      .st0 {
        fill: none;
        stroke: #fff;
        stroke-linecap: round;
        stroke-linejoin: round;
      }
    </style>
  </defs>
  <g>
    <g>
      <path class="st0" d="M28.5,16.1c0,.9-.7,1.6-1.6,1.6h0c-.9,0-1.6-.7-1.6-1.6v-1.1c0-.9.7-1.6,1.6-1.6h0c.9,0,1.6.7,1.6,1.6"/>
      <line class="st0" x1="28.5" y1="17.7" x2="28.5" y2="13.4"/>
    </g>
    <g>
      <path class="st0" d="M23.2,17.7v-2.7c0-.9-.7-1.6-1.6-1.6h0c-.9,0-1.6.7-1.6,1.6"/>
      <line class="st0" x1="19.9" y1="17.7" x2="19.9" y2="13.4"/>
    </g>
    <g>
      <path class="st0" d="M30.5,16.1c0,.9.7,1.6,1.6,1.6h0c.9,0,1.6-.7,1.6-1.6v-1.1c0-.9-.7-1.6-1.6-1.6h0c-.9,0-1.6.7-1.6,1.6"/>
      <line class="st0" x1="30.5" y1="13.4" x2="30.5" y2="19.9"/>
    </g>
    <path class="st0" d="M13.7,17c.4.5.9.7,1.6.7h1c.9,0,1.6-.7,1.6-1.6h0c0-.9-.7-1.6-1.6-1.6h-1.1c-.9,0-1.6-.7-1.6-1.6h0c0-.9.7-1.6,1.6-1.6h1c.7,0,1.2.2,1.6.7"/>
  </g>
  <g>
    <g>
      <path class="st0" d="M28,27.3v-2.7c0-.9-.7-1.6-1.6-1.6h0c-.9,0-1.6.7-1.6,1.6"/>
      <line class="st0" x1="24.7" y1="27.3" x2="24.7" y2="23"/>
    </g>
    <path class="st0" d="M22.7,26.5c-.3.5-.8.8-1.4.8h0c-.9,0-1.6-.7-1.6-1.6v-1.1c0-.9.7-1.6,1.6-1.6h0c.9,0,1.6.7,1.6,1.6v.5h-3.3"/>
    <g>
      <path class="st0" d="M33.4,24.6c0-.9-.7-1.6-1.6-1.6h0c-.9,0-1.6.7-1.6,1.6v1.1c0,.9.7,1.6,1.6,1.6h0c.9,0,1.6-.7,1.6-1.6"/>
      <line class="st0" x1="33.4" y1="27.3" x2="33.4" y2="20.8"/>
    </g>
    <path class="st0" d="M13.7,26.6c.4.5.9.7,1.6.7h1c.9,0,1.6-.7,1.6-1.6h0c0-.9-.7-1.6-1.6-1.6h-1.1c-.9,0-1.6-.7-1.6-1.6h0c0-.9.7-1.6,1.6-1.6h1c.7,0,1.2.2,1.6.7"/>
  </g>
  <g>
    <polyline class="st0" points="29.9 32.6 28.3 36.9 26.7 32.6"/>
    <path class="st0" d="M24.7,30.4v5.7c0,.5.4.8.8.8h.2"/>
    <path class="st0" d="M34.2,36.1c-.3.5-.8.8-1.4.8h0c-.9,0-1.6-.7-1.6-1.6v-1.1c0-.9.7-1.6,1.6-1.6h0c.9,0,1.6.7,1.6,1.6v.5h-3.3"/>
    <path class="st0" d="M19.7,34.2c0-.9.7-1.6,1.6-1.6s1.6.7,1.6,1.6v1.1c0,.9-.7,1.6-1.6,1.6s-1.6-.7-1.6-1.6v-1.1Z"/>
    <path class="st0" d="M13.7,36.2c.4.5.9.7,1.6.7h1c.9,0,1.6-.7,1.6-1.6h0c0-.9-.7-1.6-1.6-1.6h-1.1c-.9,0-1.6-.7-1.6-1.6h0c0-.9.7-1.6,1.6-1.6h1c.7,0,1.2.2,1.6.7"/>
  </g>
</svg>