<svg xmlns="http://www.w3.org/2000/svg" xml:space="preserve" viewBox="0 0 48 48"><path d="M9.5 5.5h29.000002c2.216 0 4 1.784 4 4v29c0 2.216-1.784 4-4 4H9.5c-2.216 0-4-1.784-4-4v-29c0-2.216 1.784-4 4-4" style="fill:none;stroke:#fff;stroke-linecap:round;stroke-linejoin:round"/><path d="M32.557986 32.249931v-3.297483m2.193028-3.297485-2.193019 3.297485-2.193019-3.297485M24.43214 31.527327c.405965.526492.915027.722597 1.623256.722598l.98013-.000001c.912123 0 1.651551-.736576 1.651551-1.64519v-.0071c0-.908613-.739428-1.645189-1.651551-1.645189H25.95436c-.913107 0-1.653322-.737373-1.653322-1.646967v-.000003c0-.911554.741812-1.650515 1.656889-1.650515h.974784c.708229 0 1.217292.196106 1.623257.722598M16.559203 32.249931h-3.310217v-6.594968h3.310217m-3.310217 3.297485h2.15823M18.237102 32.249906l2.193019-6.595007 2.193019 6.595007m-.726444-2.184622H18.96355" style="fill:none;stroke:#fff;stroke-width:1;stroke-linecap:round;stroke-linejoin:round"/><path d="M37.576906 15.750098v6.594969M16.652466 22.337744v-6.587712L19.962684 22.345l3.310218-6.58494V22.345M31.346574 22.345067v-6.594968h2.167398c1.225319 0 2.21864.99163 2.21864 2.21487 0 1.223239-.993321 2.214871-2.21864 2.214871h-2.167398M33.51398 20.179838l2.1672 2.163572M25.116234 22.345067v-6.594969l4.386039 6.594969v-6.594969M10.554195 21.622462c.405966.526493.915028.722597 1.623257.722598l.980131-.000001c.912122 0 1.65155-.736577 1.65155-1.645191v-.0071c0-.908614-.739428-1.645191-1.65155-1.645191h-1.081167c-.913107 0-1.653322-.737372-1.653322-1.646966v-.000003c0-.911555.741812-1.650515 1.656889-1.650515h.974784c.708229 0 1.217292.196106 1.623257.722597" class="r" style="fill:none;stroke:#fff;stroke-width:1;stroke-linecap:round;stroke-linejoin:round"/></svg>