<?xml version="1.0" encoding="UTF-8" standalone="no"?>
<svg
   viewBox="0 0 48 48"
   version="1.1"
   id="svg1"
   xml:space="preserve"
   xmlns="http://www.w3.org/2000/svg"
   xmlns:svg="http://www.w3.org/2000/svg"><defs
     id="defs1"><style
       id="style1">.a{fill:none;stroke:#fff;stroke-linecap:round;stroke-linejoin:round;}</style></defs><path
     id="path2"
     style="fill:none;stroke:#ffffff;stroke-width:1;stroke-linecap:round;stroke-linejoin:round;stroke-dashoffset:0.5"
     d="m 21.210943,6.5114316 c 0.939942,-0.1602769 1.824873,-0.2328072 2.810485,-0.2328072 9.43549,0 17.041613,7.6599376 17.041613,17.0975326 0,7.561047 -4.909582,13.975144 -11.714061,16.226935 m -9.07235,0.449691 C 12.738449,38.274995 6.9369585,31.44966 6.9369585,23.366904 c 0,-6.100047 3.1216635,-11.404261 7.9297305,-14.4278433" /><path
     style="fill:none;stroke:#ffffff;stroke-width:1;stroke-linecap:round;stroke-linejoin:round;stroke-dashoffset:0.5"
     d="M 21.210943,6.5114316 C 19.151998,18.825866 21.161954,30.045499 29.348981,39.603092"
     id="path4" /><path
     style="fill:none;stroke:#ffffff;stroke-width:1;stroke-linecap:round;stroke-linejoin:round;stroke-dashoffset:0.5"
     d="M 14.866689,8.9390607 C 11.989351,20.608874 14.973466,30.65252 20.27663,40.052783"
     id="path5" /><path
     style="display:none;fill:none;stroke:#ffffff;stroke-linecap:round;stroke-linejoin:round;stroke-dashoffset:0.5"
     d="m 20.665811,6.5882671 c 7.746314,2.1943454 7.23662,13.6515359 -0.01085,15.8374239"
     id="path11" /><path
     style="fill:none;stroke:#ffffff;stroke-width:1;stroke-linecap:round;stroke-linejoin:round;stroke-dashoffset:0.5"
     d="m 21.210943,6.5114316 -3.220432,-1.011439 -3.123822,3.4390681 2.146847,3.6472213 3.454284,1.728036 -2.976949,3.623686 -3.72308,1.211058 3.245746,4.016642 4.684074,1.986619 -3.294345,3.223671 -1.133902,5.646688 4.428247,-0.49074 5.39047,3.171584 -4.853484,1.010321 -1.957967,2.338936 4.025939,2.447219 4.385799,-0.449927 0.660613,-2.446983"
     id="path12" /></svg>
