<?xml version="1.0" encoding="UTF-8" standalone="no"?>
<svg
   viewBox="0 0 48 48"
   version="1.1"
   id="svg1"
   sodipodi:docname="drawing.svg"
   inkscape:version="1.3.2 (091e20ef0f, 2023-11-25)"
   xml:space="preserve"
   xmlns:inkscape="http://www.inkscape.org/namespaces/inkscape"
   xmlns:sodipodi="http://sodipodi.sourceforge.net/DTD/sodipodi-0.dtd"
   xmlns="http://www.w3.org/2000/svg"
   xmlns:svg="http://www.w3.org/2000/svg"><sodipodi:namedview
     id="namedview1"
     pagecolor="#505050"
     bordercolor="#eeeeee"
     borderopacity="1"
     inkscape:showpageshadow="0"
     inkscape:pageopacity="0"
     inkscape:pagecheckerboard="0"
     inkscape:deskcolor="#505050"
     inkscape:zoom="6.2976698"
     inkscape:cx="-15.164339"
     inkscape:cy="33.742639"
     inkscape:window-width="1918"
     inkscape:window-height="1053"
     inkscape:window-x="0"
     inkscape:window-y="0"
     inkscape:window-maximized="1"
     inkscape:current-layer="svg1" /><defs
     id="defs1"><style
       id="style1">.a { fill:none;stroke:#fff;stroke-linecap:round;stroke-linejoin:round; }
</style></defs><path
     style="fill:none;stroke:#ffffff;stroke-width:1;stroke-linecap:round;stroke-linejoin:round;stroke-dasharray:none;stroke-dashoffset:0.7;stroke-opacity:1"
     d="m 33.740149,24.435171 5.198653,0.52845 -1.501641,2.564775 V 39.84838 c 1.19032,0.951637 2.594186,0.97447 4.18062,1.03969 -2.110751,1.512017 -5.939027,1.030373 -9.643391,0.935338 -5.556499,2.054081 -11.448694,2.645313 -17.832702,-0.632786 2.703608,0.764967 4.138384,1.239705 4.642487,0.428588 0.739136,-1.189295 -3.914925,-3.053274 -7.856629,-6.829492 -3.0065523,-2.880328 -4.156393,-6.445185 -4.5453725,-9.947676 0.9443277,5.06729 3.7021415,8.861717 7.9000825,11.45436 2.073897,0.242982 3.260104,-0.391824 4.564513,-1.929713 1.429464,2.711273 2.970434,4.401798 6.055793,6.030707 2.332341,0.253013 5.43872,-0.207722 8.42318,-1.368396 v -8.483122 c -1.153827,-1.856524 -3.247868,-2.758589 -6.88833,-4.496189 -3.140245,-1.498846 -5.165242,-2.408283 -7.867488,-4.772332 l -4.156073,-0.02551 2.323231,-1.480329 v -5.929313 c 1.433711,-2.343156 2.558698,-4.2595904 3.828084,-7.4631282 h 8.254215 c 1.754813,0 1.923388,-0.7050277 2.431119,-1.8791701 1.815241,5.8957413 4.432525,8.2568683 9.757045,10.6087683 C 35.173223,14.837903 33.304183,12.944309 28.295389,9.2443166 L 21.553045,8.7178477 20.642288,10.30371 v 5.469215 c 0,1.680346 1.760237,2.777375 4.673707,4.387819 z"
     id="path1"
     sodipodi:nodetypes="cccccssccccccccscccccscccccscc" /></svg>
