<?xml version="1.0" encoding="UTF-8"?><svg id="a" xmlns="http://www.w3.org/2000/svg" viewBox="0 0 48 48"><defs><style>.d{fill:none;stroke:#fff;stroke-linecap:round;stroke-linejoin:round;}</style></defs><rect class="d" x="5.5" y="5.5" width="37" height="37" rx="4" ry="4"/><path class="d" d="m32.47 27.553c0.3652 0.3066 0.7594 0.4472 1.6449 0.4472h0.4487c0.7302 0 1.3221-0.5932 1.3221-1.325s-0.5919-1.325-1.3221-1.325h-0.8974c-0.7302 0-1.3221-0.5932-1.3221-1.325s0.5919-1.325 1.3221-1.325h0.4487c0.8854 0 1.2797 0.1405 1.6449 0.4472"/><line class="d" x1="12.115" x2="14.715" y1="24" y2="24"/><path class="d" d="m12.115 28v-8h4"/><line class="d" x1="29.087" x2="29.087" y1="21.83" y2="20"/><line class="d" x1="29.087" x2="27.986" y1="21.83" y2="23.2"/><line class="d" x1="27.486" x2="29.087" y1="20.825" y2="21.83"/><line class="d" x1="29.087" x2="30.197" y1="21.83" y2="23.2"/><line class="d" x1="30.686" x2="29.087" y1="20.825" y2="21.83"/><line class="d" x1="24.229" x2="24.229" y1="21.83" y2="20"/><line class="d" x1="24.229" x2="23.129" y1="21.83" y2="23.2"/><line class="d" x1="22.629" x2="24.229" y1="20.825" y2="21.83"/><line class="d" x1="24.229" x2="25.339" y1="21.83" y2="23.2"/><line class="d" x1="25.829" x2="24.229" y1="20.825" y2="21.83"/><line class="d" x1="19.372" x2="19.372" y1="21.83" y2="20"/><line class="d" x1="19.372" x2="18.272" y1="21.83" y2="23.2"/><line class="d" x1="17.772" x2="19.372" y1="20.825" y2="21.83"/><line class="d" x1="19.372" x2="20.482" y1="21.83" y2="23.2"/><line class="d" x1="20.972" x2="19.372" y1="20.825" y2="21.83"/></svg>
