<svg xmlns="http://www.w3.org/2000/svg" viewBox="0 0 48 48"><path fill="none" stroke="#fff" stroke-linecap="round" stroke-linejoin="round" d="M35.85 37.15a2.653 2.653 0 0 1 3.176-2.6c1.111.214 1.999 1.175 2.11 2.302.082.837-.184 1.664-.762 2.172-1.072.94-4.524 3.476-4.524 3.476h5.3m4.35-4a7 7 0 0 1-7 7 7 7 0 0 1-7-7 7 7 0 0 1 7-7 7 7 0 0 1 7 7M6 16.881c-1.978-2.966-1.751-8.12-.93-8.923.696-.681 5.271.085 7.36 1.95m5.762 27.324c5.107-.38 9.27-.605 13.385.236m5.695-5.847a11.7 11.7 0 0 0-2.766-1.764m0 0c5.76-2.368 9.76-.396 10.41-.069m0 0c.872-6.787-4.681-10.915-10.809-12.808m0 0c4.581-4.272 8.075-3.97 10.308-4.064m0 0C38.192 1.746 21.8 4.18 14.15 8.831c-3.132 1.905-7.276 4.54-8.63 9.443-.676 2.449-.656 5.463.535 9.234m14.736 1.33c1.89-2.716 2.143-3.748 2.526-7.95.369-4.045-.936-5.969-2.702-6.415-2.688-.68-8.026 3.574-9.128 9.032-.447 2.216-1.691 2.33-2.695-1.036-.16-.536-.311-5.96-1.81-5.81-.64.064-1.186.89-1.454 1.587m1.478 12.836c2.08 4.079 6.008 5.694 9.474 6.068 4.734.51 7.698-1.514 8.138-1.83 1.809-1.298 2.687-2.572 2.687-4.443s-.873-3.388-3.388-3.388c-1.871 0-2.4.842-4.123 2.198-.533.42-1.75 1.059-4.727.766-2.173-.213-2.757-1.74-4.853-1.221m-5.262.88c.485.365 1.124.689 1.854.912 1.816.556 3.509.284 3.782-.608s-.978-2.065-2.793-2.62-3.508-.284-3.781.608c-.163.532.218 1.166.938 1.708m3.84-7.643c-.567.396-.73 1.452-.586 3.093.168 1.927.823 2.902 1.37 2.832.546-.07.82-1.452.61-3.086a9 9 0 0 0-.048-.327m10.428-.525a1.311 3.515 0 0 1-1.311 3.515 1.311 3.515 0 0 1-1.311-3.515 1.311 3.515 0 0 1 1.31-3.514 1.311 3.515 0 0 1 1.312 3.514m2.425 5.907c1.894-.575 2.309.263 2.309 1m-5.915 2.66c2.617-.48 4.255-1.31 5.234-3.397m-.973-18.989c.794.408 2.885 2.197 3.774 3.192.905-.91 1.266-4.635.628-5.152-.45-.363-3.228.617-4.402 1.96m-1.92-1.21C24.49 7.788 29.106 6.618 30 7.34c1.27 1.03.234 6.958-.681 9.639" class="t"/></svg>