<?xml version="1.0" encoding="UTF-8"?>
<svg version="1.1" viewBox="0 0 48 48" xml:space="preserve" xmlns="http://www.w3.org/2000/svg"><defs><style>.a{fill:none;stroke:#fff;stroke-linecap:round;stroke-linejoin:round;}</style></defs><circle class="a" cx="24" cy="24" r="21.5"/><path d="m20.011 19.517c0-2.2033 1.7861-3.9895 3.9895-3.9895s3.9895 1.7861 3.9895 3.9895v0c0 1.4226-0.75749 2.7375-1.9881 3.4511 2.2037 0.8254 4.4815 3.6354 4.4794 6.0247l-12.963-1e-6c0-2.3892 2.2776-5.1991 4.481-6.0247-1.2306-0.71365-1.9881-2.0286-1.9881-3.4511z" fill="none" stroke="#fff" stroke-linecap="round" stroke-linejoin="round"/><path transform="translate(-.16188 -.00026526)" d="m2.6619 24c2.2183-0.64319 2.4918 2.2374 2.6849 3.8174 0.38765 1.8202 2.2701 1.8602 1.9141-0.23568-0.54774-2.5893-1.1444-5.2072 0.1326-7.6649 0.86727-1.3626 3.07-1.4719 2.0597 1.4437-1.927 5.5615 0.87216 9.8185 2.6211 9.2905 2.58-0.77895-2.9176-6.8194 1.7115-15.938 2.1008-4.1386 5.2289-1.7738 3.795 0.21212-3.4188 4.7357-6.7712 12.216 0.85244 17.355 3.465 2.3359 8.0556 2.309 11.503-0.0767 8.6163-5.9621 2.7351-14.847 0.81554-17.335-1.461-1.8937 1.6711-4.2861 3.7862-0.15567 4.6331 9.0461-0.80599 15.101 1.6525 15.916 1.8109 0.60015 4.6076-3.7058 2.68-9.2684-1.0103-2.9156 1.1924-2.8064 2.0597-1.4437 1.3881 2.3994 0.60071 5.1205 0.1326 7.6649-0.35601 2.096 1.5266 2.0558 1.9141 0.23568 0.1916-1.8633 0.79445-4.816 2.6849-3.8174" fill="none" stroke="#fff" stroke-linecap="round" stroke-linejoin="round" stroke-width="1px"/></svg>
