<svg xmlns="http://www.w3.org/2000/svg" xml:space="preserve" width="48" height="48" viewBox="0 0 12.7 12.7"><path fill="none" stroke="#fff" stroke-linecap="round" stroke-linejoin="round" stroke-width=".265" d="M2.707 8.79c.325.408.733.56 1.3.56h.786c.73 0 1.323-.57 1.323-1.274V8.07c0-.703-.592-1.274-1.323-1.274h-.866c-.732 0-1.325-.571-1.325-1.275v0c0-.706.594-1.279 1.327-1.279h.782c.567 0 .975.152 1.3.56m1.748-.344c1.267 1.774.94 4.193-.677 5.593a.56.56 0 0 0-.042.743c.24.336.584.08.888-.194.643-.577.989-1.33 1.337-2.158l1.878-4.453c.163-.482.153-1.061-.192-1.544-.344-.482-.889-.68-1.398-.681L4.48 1.746c-.897-.003-1.721.144-2.476.565-.357.2-.711.442-.471.777a.561.561 0 0 0 .716.202c1.85-1.075 4.245-.6 5.513 1.174" class="t"/></svg>
