<svg viewBox="0 0 48 48" xmlns="http://www.w3.org/2000/svg"><path style="fill:none;fill-opacity:0;stroke:#fff;stroke-linejoin:round" d="m20.667 34.578 9.078-1.157a6.1 6.1 0 0 1-2.076 2.895 99 99 0 0 1-1.726 1.302q-1.305.286-4.452-2.136z"/><ellipse style="fill:#d8d8d8;fill-opacity:0;stroke:#fff;stroke-linejoin:round" cx="16.894" cy="35.131" rx="4.2" ry="5.055" transform="rotate(-23.318)" fill="none"/><circle style="fill:#fff;stroke:#fff;stroke-linejoin:round" cx="17.756" cy="28.713" transform="rotate(-7)" r=".437"/><ellipse style="fill:#d8d8d8;fill-opacity:0;stroke:#fff;stroke-width:1px;stroke-linejoin:round" cx="30.009" cy="13.844" rx="4.2" ry="5.055" transform="rotate(28.331)" fill="none"/><circle style="fill:#fff;stroke:#fff;stroke-width:1px;stroke-linejoin:round" cx="-24.291" cy="28.902" transform="rotate(-7)scale(-1 1)" r=".437"/><path style="fill:#d8d8d8;fill-opacity:0;stroke:#fff" d="M9.411 27.372c-1.058 4.1-3.084 7.124-4.523 6.751-1.44-.37-1.748-3.996-.69-8.097.647-2.5 1.651-4.6 2.665-5.773L5.76 11.271A3.49 3.49 0 0 1 8.8 7.38l25.004-3.07a3.49 3.49 0 0 1 3.891 3.039l1.154 9.394c1.214.939 2.597 2.656 3.757 4.793 2.02 3.722 2.596 7.315 1.291 8.023-1.307.709-4.003-1.734-6.022-5.457-1.145-2.11-1.827-4.181-1.964-5.706h.005l-1.007-8.204-25.967 3.189 1.007 8.203.018-.002c.189 1.498.016 3.575-.556 5.789z" fill="none"/><path style="fill:none;fill-opacity:0;stroke:#fff" d="M10.13 21.817q12.643-3.931 26.027-3.116"/><path style="fill:none;fill-opacity:0;stroke:#fff;stroke-linejoin:round" d="M8.079 31.212c1.433 3.052 3.736 5.442 6.85 7.047q4.944 2.547 10.913 2.145 6.072-.409 10.615-5.95c1.707-2.08 2.917-4.56 3.615-7.293"/></svg>