<svg viewBox="0 0 48 48" xmlns="http://www.w3.org/2000/svg"><circle style="fill-opacity:0;stroke:#fff;fill:none" cx="21.156" cy="28.902" transform="rotate(-7)" r="19.298" fill="none"/><path style="fill-opacity:0;stroke:#fff;fill:none" d="M22.877 39.82q2.777-1.215 6.142-.317m-4.999-9.852c-.99 2.946-3.741 4.678-6.145 3.869-2.404-.81-3.548-3.852-2.556-6.797.991-2.946 3.741-4.678 6.145-3.87 2.403.81 3.548 3.852 2.556 6.798zm3.02-7.12c2.136-1.366 5.224-.35 6.899 2.267s1.3 5.848-.836 7.215c-2.137 1.365-5.224.35-6.899-2.267s-1.3-5.849.835-7.215z" fill="none"/><circle style="fill-opacity:0;stroke:#fff;fill:none" cx="17.795" cy="30.104" transform="rotate(-7)" r=".5" fill="none"/><circle style="fill-opacity:0;stroke:#fff;stroke-width:1px;fill:none" cx="25.423" cy="30.349" transform="rotate(-7)" r=".5" fill="none"/><path style="fill-opacity:0;stroke:#fff;fill:none" d="M5.152 23.531q18.454-7.408 37.838-3.661M20.581 2.028l.567 4.62 1.445-4.51-1.445 4.51 3.236-3.714-3.236 3.713 4.536-2.35-4.536 2.35 5.144-.631-5.144.631 4.97 1.184-4.97-1.184 4.038 2.82-4.038-2.82 2.493 4.026-2.493-4.026.567 4.619-.567-4.619-1.444 4.51 1.444-4.51-3.235 3.713 3.235-3.713-4.534 2.35 4.534-2.35-5.142.632 5.142-.632-4.968-1.184 4.968 1.184-4.037-2.82 4.037 2.82-2.492-4.026 2.492 4.026Z" fill="none"/></svg>