<svg xmlns="http://www.w3.org/2000/svg" viewBox="0 0 48 48"><ellipse style="fill:#d8d8d8;fill-opacity:0;stroke-linejoin:round;transform-origin:24.2px 24.684px 0;stroke:#fff" cx="24.2" cy="24.684" rx="20.863" ry="16.86" transform="rotate(-7 0 -1.395)" fill="none"/><ellipse style="fill:#d8d8d8;fill-opacity:0;stroke-linejoin:round;transform-origin:29.954px 20.009px 0;stroke:#fff" cx="29.954" cy="20.009" rx="4.393" ry="5.573" transform="rotate(17.887 -19.957 -29.078)" fill="none"/><ellipse style="fill:#d8d8d8;stroke-linejoin:round;transform-origin:22.28px 24.182px 0;stroke:#fff" cx="22.28" cy="24.182" rx=".484" ry=".5" transform="rotate(-7 1.92 -.893)"/><ellipse style="fill:#d8d8d8;fill-opacity:0;stroke-width:1px;stroke-linejoin:round;transform-origin:29.954px 20.009px 0;stroke:#fff" cx="29.954" cy="20.009" rx="4.393" ry="5.573" transform="rotate(-31.887 6.74 .49)scale(-1 1)" fill="none"/><ellipse style="fill:#d8d8d8;stroke-width:1px;stroke-linejoin:round;transform-origin:-28.255px 24.398px 0;stroke:#fff" cx="-28.255" cy="24.398" rx=".484" ry=".5" transform="rotate(173 28.323 1.48)scale(1 -1)"/><path style="fill:none;stroke-linejoin:round;transform-origin:26.33px 36.015px 0;stroke:#fff" d="m24.156 34.172 5.796.286-1.61 3.399-2.916-.393-2.719-2.308z" transform="rotate(-7)"/><path style="fill:none;stroke-linejoin:round;transform-origin:23.474px 20.219px 0;stroke:#fff" d="M2.976 23.31q20.456-10.695 40.996-2.886" transform="rotate(-7)"/><path style="fill:none;stroke-linejoin:round;transform-origin:21.41px 7.02px 0;stroke:#fff" d="M15.264 8.788h.014l.515-1.488q1.596-.3 2.647-1.317 1.495-.602 3.277-.171.36.087.487-.558 1.602-.043 2.976 1.173c1.489-.121 2.281.89 2.376 2.175" transform="rotate(-7)"/></svg>