<svg viewBox="0 0 48 48" xmlns="http://www.w3.org/2000/svg"><ellipse style="fill:none;fill-opacity:0;stroke:#fff;stroke-linejoin:round" cx="21.181" cy="27.46" rx="20.863" ry="16.86" transform="rotate(-7)" fill="none"/><ellipse style="fill:none;fill-opacity:0;stroke:#fff;stroke-linejoin:round" cx="5.747" cy="-38.943" rx="4.393" ry="5.573" transform="rotate(-43.59)scale(1 -1)" fill="none"/><ellipse style="fill:none;stroke:#fff;stroke-linejoin:round" cx="25.982" cy="27.82" rx=".484" ry=".5" transform="rotate(-7)"/><ellipse style="fill:none;stroke:#fff;stroke-width:1px;stroke-linejoin:round" cx="-17.928" cy="27.688" rx=".484" ry=".5" transform="rotate(-7)scale(-1 1)"/><path style="fill:none;stroke:#fff;stroke-linejoin:round" d="m24.068 33.154 5.788-.422-1.184 3.57-2.942-.035-2.98-1.96zM3.325 25.769q19-13.109 40.339-7.861M15.59 9.426l.013-.002.33-1.54q1.548-.492 2.467-1.63 1.41-.779 3.232-.568.368.042.415-.613 1.585-.238 3.097.801c1.463-.301 2.372.605 2.623 1.87"/><ellipse style="fill:none;fill-opacity:0;stroke:#fff;stroke-linejoin:round" cx="27.068" cy="-18.201" rx="4.393" ry="5.573" transform="rotate(18.19)scale(1 -1)" fill="none"/></svg>