<?xml version="1.0" encoding="UTF-8" standalone="no"?>
<svg
   id="Layer_1"
   data-name="Layer 1"
   version="1.1"
   viewBox="0 0 48 48"
   sodipodi:docname="spacehey_mobile.svg"
   inkscape:version="1.4.2 (ebf0e940d0, 2025-05-08)"
   xmlns:inkscape="http://www.inkscape.org/namespaces/inkscape"
   xmlns:sodipodi="http://sodipodi.sourceforge.net/DTD/sodipodi-0.dtd"
   xmlns="http://www.w3.org/2000/svg"
   xmlns:svg="http://www.w3.org/2000/svg">
  <sodipodi:namedview
     id="namedview1"
     pagecolor="#ffffff"
     bordercolor="#000000"
     borderopacity="0.25"
     inkscape:showpageshadow="2"
     inkscape:pageopacity="0.0"
     inkscape:pagecheckerboard="0"
     inkscape:deskcolor="#d1d1d1"
     inkscape:zoom="4.2470997"
     inkscape:cx="28.490031"
     inkscape:cy="-4.4736412"
     inkscape:window-width="1366"
     inkscape:window-height="706"
     inkscape:window-x="0"
     inkscape:window-y="0"
     inkscape:window-maximized="1"
     inkscape:current-layer="Layer_1" />
  <defs
     id="defs1">
    <style
       id="style1">
      .cls-1 {
        fill: none;
        stroke: #fff;
        stroke-linecap: round;
        stroke-linejoin: round;
      }
    </style>
  </defs>
  <circle
     class="a"
     cx="31.031084"
     cy="14.417823"
     r="4.1670451"
     id="circle1"
     style="fill:none;stroke:#ffffff;stroke-width:1;stroke-linecap:round;stroke-linejoin:round;stroke-dasharray:none;stroke-opacity:1" />
  <path
     style="fill:none;stroke:#ffffff;stroke-width:1;stroke-linecap:round;stroke-linejoin:round;stroke-dasharray:none;stroke-opacity:1"
     d="M 24.372396,38.456946 H 37.7221 V 25.780851 c 0,0 -2.225401,-4.792387 -6.54952,-4.803969 -4.559988,-0.01221 -6.970921,4.773758 -6.970921,4.773758 z"
     id="path1"
     sodipodi:nodetypes="cccscc" />
  <path
     style="fill:none;stroke:#ffffff;stroke-width:1;stroke-linecap:round;stroke-linejoin:round;stroke-dasharray:none;stroke-opacity:1"
     d="m 23.360478,16.209311 -12.484898,0.0018 c -3.8847538,5.6e-4 -6.5411757,13.082175 4.450796,12.870311 7.17545,-0.138303 7.954644,-5.323647 7.954644,-5.323647 z"
     id="path2"
     sodipodi:nodetypes="csscc" />
  <path
     class="r"
     d="m 20.136376,22.652919 v 1.372983 c 0,0.561685 -0.455337,1.017023 -1.017024,1.017023 h -5e-6 c -0.280831,0 -0.535082,-0.113828 -0.719127,-0.297864"
     id="path32"
     style="fill:none;stroke:#ffffff;stroke-width:0.508512;stroke-linecap:round;stroke-linejoin:round;stroke-opacity:1" />
  <path
     class="r"
     d="m 20.136376,20.97483 v 1.678089 c 0,0.561686 -0.455337,1.017023 -1.017024,1.017023 h -5e-6 c -0.561687,0 -1.017019,-0.455337 -1.017019,-1.017023 V 20.97483"
     id="path33"
     style="fill:none;stroke:#ffffff;stroke-width:0.508512;stroke-linecap:round;stroke-linejoin:round;stroke-opacity:1" />
  <line
     class="r"
     x1="10.809799"
     y1="19.601847"
     x2="10.809799"
     y2="23.669943"
     id="line39"
     style="fill:none;stroke:#ffffff;stroke-width:0.508512;stroke-linecap:round;stroke-linejoin:round;stroke-opacity:1" />
  <path
     class="r"
     d="m 10.809802,21.991853 c 0,-0.561687 0.45534,-1.017023 1.017018,-1.017023 v 0 c 0.561694,0 1.017026,0.455336 1.017026,1.017023 v 1.67809"
     id="path40"
     style="fill:none;stroke:#ffffff;stroke-width:0.508512;stroke-linecap:round;stroke-linejoin:round;stroke-opacity:1" />
  <path
     class="r"
     d="m 16.555542,23.15671 c -0.17517,0.30659 -0.50529,0.513233 -0.88367,0.513233 h -10e-6 c -0.5617,0 -1.01702,-0.455337 -1.01702,-1.017023 v -0.661067 c 0,-0.561687 0.45532,-1.017023 1.01702,-1.017023 h 10e-6 c 0.56167,0 1.01701,0.455336 1.01701,1.017023 v 0.330534 c 0,0 -2.03404,0 -2.03404,0"
     id="path77"
     style="fill:none;stroke:#ffffff;stroke-width:0.508512;stroke-linecap:round;stroke-linejoin:round;stroke-opacity:1" />
</svg>
