<?xml version="1.0" encoding="UTF-8"?><svg id="a" xmlns="http://www.w3.org/2000/svg" viewBox="0 0 48 48"><defs><style>.b{fill:none;stroke:#fff;stroke-linecap:round;stroke-linejoin:round;}</style></defs><path class="b" d="M29.6822,18.2189c-.0008-.0704-.0024-.2112-.0044-.4185-.0021-.2073-.0046-.4809.0353-.9317.0398-.4507.1219-1.0785.2466-1.7648.1247-.6862.2919-1.4309.5099-2.1052.218-.6743.4867-1.2782.7908-1.7791s.6435-.8987,1.0446-1.2251.8638-.5813,1.3513-.7395.9999-.2199,1.4304-.2041c.4305.0158.7791.1089,1.1354.2342.3563.1253.7204.2828,1.0391.4948.3187.212.5921.4785.8471.8003s.4916.6989.654,1.1526c.1624.4538.2505.9842.2444,1.4724-.0059.4882-.1063.934-.2704,1.3936-.1641.4596-.3919.9328-.6531,1.2612s-.5555.512-.9619.7462c-.4065.2342-.9251.5189-1.4634.7423-.5383.2234-1.0962.3854-1.9683.5349-.8721.1495-2.0584.2864-2.7197.3614s-.7975.088-.9086.0955c-.1111.0075-.1969.0097-.2558.0002-.0589-.0095-.0907-.0304-.1066-.0409s-.0159-.0105-.0167-.0809h0Z"/><path class="b" d="M32.11,23.9146c.0484-.0511.1453-.1533.2881-.3036.1428-.1503.3314-.3485.6737-.6444.3423-.296.8381-.6896,1.4053-1.0956.5671-.406,1.2054-.8243,1.8313-1.1569.6258-.3325,1.2391-.5792,1.806-.7272s1.0876-.1975,1.6027-.1527,1.0248.1837,1.485.4094.8711.538,1.1692.8489c.2982.3109.4837.6204.6523.9584.1687.338.3205.7044.4018,1.0785.0813.3741.0922.7557.0514,1.1642s-.1334.844-.3326,1.2828c-.1992.4389-.5051.881-.8492,1.2274-.344.3464-.7264.5967-1.1641.8125-.4376.2158-.9306.3971-1.3467.4512s-.7552-.0189-1.2101-.1336c-.4549-.1147-1.0255-.2712-1.5675-.4854-.542-.2142-1.0554-.4861-1.7857-.9857-.7303-.4996-1.6774-1.2269-2.2045-1.6333s-.6339-.4919-.7189-.5637c-.085-.0719-.1482-.1301-.1838-.1778-.0357-.0477-.0439-.085-.0481-.1036s-.0041-.0186.0443-.0697h-.0001Z"/><path class="b" d="M29.9813,29.6925c-.0008.0704-.0024.2112-.0044.4185-.0021.2073-.0046.4809.0353.9317.0398.4507.1219,1.0785.2466,1.7648.1247.6862.2919,1.4309.5099,2.1052.218.6743.4867,1.2782.7908,1.7791s.6435.8987,1.0446,1.2251.8638.5813,1.3513.7395.9999.2199,1.4304.2041c.4305-.0158.7791-.1089,1.1354-.2342.3563-.1253.7204-.2828,1.0391-.4948.3187-.212.5921-.4785.8471-.8003s.4916-.6989.654-1.1526c.1624-.4538.2505-.9842.2444-1.4724-.0059-.4882-.1063-.934-.2704-1.3936-.1641-.4596-.3919-.9328-.6531-1.2612s-.5555-.512-.9619-.7462c-.4065-.2342-.9251-.5189-1.4634-.7423-.5383-.2234-1.0962-.3854-1.9683-.5349-.8721-.1495-2.0584-.2864-2.7197-.3614s-.7975-.088-.9086-.0955c-.1111-.0075-.1969-.0097-.2558-.0002-.0589.0095-.0907.0304-.1066.0409s-.0159.0105-.0167.0809h0Z"/><path class="b" d="M4.5001,20.5688c0,1.6355,0,4.9064.0005,6.6047.0005,1.6984.0016,1.8243.0235,1.9528.0219.1284.0647.2594.1622.4201.0976.1607.25.3512.4452.5269s.4333.3368.6472.448c.2139.1113.4036.1728,1.6122.1941,1.2086.0214,3.4359.0025,5.6631-.0162.1015.0095.2029.0188.313.0831s.2287.1833,1.5569,1.5069c1.3282,1.3236,3.8659,3.8517,5.1658,5.132,1.2999,1.2804,1.3621,1.3131,1.4694,1.3598.1073.0467.2599.1075.4753.1487s.4936.063.7435.0279c.2499-.0351.4715-.127.673-.2489s.3829-.2736.5687-.4631.3761-.4166.4916-.6681c.1155-.2515.1967-.8021.198-5.063.0013-4.2608.0038-12.7823.0052-17.1159.0013-4.3338.0013-4.4799-.0226-4.6067-.0239-.1269-.0717-.2347-.1286-.3445-.057-.1098-.1232-.2214-.2291-.3649-.1059-.1435-.2516-.3188-.3947-.4546s-.2837-.2321-.4287-.3168-.2946-.1578-.4231-.2034-.2362-.0636-.3605-.0736c-.1243-.01-.2654-.012-.4095-.0053-.1441.0066-.2913.0217-.4283.052-.1369.0303-.2636.0758-.4113.1436-.1477.0678-.3164.1579-.4668.2661-.1505.1082-.2827.2346-1.5298,1.4787-1.247,1.2441-3.6087,3.6058-4.8236,4.8218s-1.2826,1.2864-1.3806,1.3212c-.098.0349-.2262.0343-1.408.0383-1.1819.0041-3.4173.0128-4.632.0337-1.2146.0209-1.4083.0539-1.5945.1183-.1862.0645-.3647.1604-.5151.2816s-.2725.2677-.3704.4033c-.098.1357-.1718.2605-.2107.4164-.0389.1559-.0428.3427-.0448.4362q-.0019.0934-.0019,1.7289h.0001Z"/></svg>