<svg width="48" height="48" viewBox="0 0 48 48" fill="none" xmlns="http://www.w3.org/2000/svg">
<path d="M21 28.5V36.2403C21 36.8768 20.4036 37.3514 19.7878 37.1904C11.6554 35.0645 15.9696 31.5444 10.3646 27.269C10.1387 27.0967 9.98024 26.8385 9.9572 26.5553C9.52945 21.2968 11.902 16.422 15.5 13.3437M27 28.5V36.2403C27 36.8768 27.5964 37.3514 28.2122 37.1904C36.3446 35.0645 32.0304 31.5444 37.6354 27.269C37.8613 27.0967 38.0197 26.8385 38.0428 26.5553C38.4705 21.2968 36.098 16.422 32.5 13.3437M18.5 18.5L15.5 13.3437M15.5 13.3437C17.9348 11.2605 20.9309 10 24 10C27.0691 10 30.0651 11.2605 32.5 13.3437M29.5 18.5L32.5 13.3437" stroke="white"/>
<path d="M29.5 18.5H18.5C18.5 24 17.5 28.5 24 29.5C30.5 28.5 29.5 24 29.5 18.5Z" stroke="white"/>
</svg>
