<svg xmlns="http://www.w3.org/2000/svg" xml:space="preserve" viewBox="0 0 48 48"><path d="M9.5 5.5h29c2.216 0 4 1.784 4 4v29c0 2.216-1.784 4-4 4h-29c-2.216 0-4-1.784-4-4v-29c0-2.216 1.784-4 4-4" style="fill:none;fill-opacity:.466567;stroke:#fff;stroke-width:1;stroke-linecap:round;stroke-linejoin:round;stroke-dashoffset:1.3;stroke-opacity:1"/><path d="M18.783 34.668c1.015 1.273 2.29 1.747 4.061 1.747h2.453c2.282 0 4.132-1.781 4.132-3.979v-.017c0-2.197-1.85-3.979-4.132-3.979h-2.705c-2.285 0-4.137-1.783-4.137-3.983v0c0-2.204 1.856-3.992 4.145-3.992h2.44c1.772 0 3.045.475 4.061 1.748M38.29 16.734a3.484 3.48 0 0 1-3.484 3.48 3.484 3.48 0 0 1-3.483-3.48 3.484 3.48 0 0 1 3.483-3.48 3.484 3.48 0 0 1 3.484 3.48" style="fill:none;fill-opacity:.466567;stroke:#fff;stroke-width:1;stroke-linecap:round;stroke-linejoin:round;stroke-dashoffset:1.3;stroke-opacity:1"/><path d="M31.292 15.757c-5.3-2.767-14.333-3.34-21.582 4.11 5.375-8.249 16.436-10.12 23.62-6.55" style="fill:none;fill-opacity:.466567;stroke:#fff;stroke-width:1;stroke-linecap:round;stroke-linejoin:round;stroke-dashoffset:1.3;stroke-opacity:1"/></svg>