<?xml version="1.0" encoding="UTF-8"?><svg id="b" xmlns="http://www.w3.org/2000/svg" viewBox="0 0 48 48"><defs><style>.c{fill:none;stroke:#fff;stroke-linecap:round;stroke-linejoin:round;}</style></defs><path class="c" d="M9.5,5.5h29c2.216,0,4,1.784,4,4v29c0,2.216-1.784,4-4,4H9.5c-2.216,0-4-1.784-4-4V9.5c0-2.216,1.784-4,4-4"/><path class="c" d="M18.783,34.668c1.015,1.273,2.29,1.747,4.061,1.747h2.453c2.282,0,4.132-1.781,4.132-3.979v-.017c0-2.197-1.85-3.979-4.132-3.979h-2.705c-2.285,0-4.137-1.783-4.137-3.983h0c0-2.204,1.856-3.992,4.145-3.992h2.44c1.772,0,3.045.475,4.061,1.748M38.29,16.734c0,1.922-1.5598,3.48-3.484,3.48h0c-1.9238-.0006-3.483-1.5584-3.483-3.48s1.5592-3.4794,3.483-3.48c1.9242,0,3.484,1.558,3.484,3.48h0"/><path class="c" d="M31.292,15.757c-5.3-2.767-14.333-3.34-21.582,4.11,5.375-8.249,16.436-10.12,23.62-6.55"/></svg>