<?xml version="1.0" encoding="UTF-8"?><svg id="a" xmlns="http://www.w3.org/2000/svg" viewBox="0 0 48 48"><defs><style>.d{fill:none;stroke:#fff;stroke-linecap:round;stroke-linejoin:round;}</style></defs><path class="d" d="m7.3761 33.742v4.2657c0 1.6051.85635 3.0884 2.2465 3.891 1.3901.80258 3.1028.80258 4.4929 0l13.18-7.6091c1.3901-.80258 2.2465-2.2858 2.2465-3.891 0-1.6051-.85636-3.0884-2.2465-3.891l-12.73-7.3496"/><path class="d" d="m36.53 28.958 1.8471-1.0664c1.3901-.80258 2.2465-2.2858 2.2465-3.891 0-1.6051-.85635-3.0884-2.2465-3.891l-24.262-14.007c-1.3901-.80258-3.1028-.80258-4.4929 0-1.3901.80258-2.2465 2.2858-2.2465 3.891v15.218c0 1.6051.85635 3.0884 2.2465 3.891l5.5413 3.1992"/></svg>
