<?xml version="1.0" encoding="UTF-8"?><svg version="1.1" viewBox="0 0 48 48" xml:space="preserve" xmlns="http://www.w3.org/2000/svg"><defs><clipPath id="a"><path d="m9.5 5v8.3398c0.0268-0.0054 0.052878-0.01318 0.080078-0.01758 0.0798-0.0115 0.16023-0.01739 0.24023-0.02149 0.0608-0.0031 0.12073-0.0048 0.17773-0.0039 0.166 0.0025 0.31617 0.02299 0.45117 0.05469 0.0033-0.0025 0.0063-0.0054 0.0098-0.0078-0.0012-7.72e-4 -0.0027-0.0012-0.0039-2e-3 -0.01751-0.01128-0.03221-0.02301-0.04492-0.03516-0.0378-0.01386-0.07446-0.02882-0.11133-0.04492-0.17441-0.07619-0.15178-0.23079-0.02734-0.24805 0.03184-0.0044 0.07153 0.0022 0.11524 0.01953 0.01604-0.0078 0.03485-0.0138 0.05664-0.01563 0.02797-0.0023 0.06115 9.43e-4 0.09766 0.01172 0.03189 0.0094 0.06333 0.01964 0.0957 0.02734 0.04553 0.01128 0.09107 0.02045 0.13672 0.03125 0.07655 0.01811 0.1211 0.05444 0.13867 0.09375 0.05917 0.0131 0.04128 0.04289 2e-3 0.07617-0.01064 0.02477-0.03287 0.04516-0.06445 0.05859 0.05864 0.07021 0.0387 0.15109-0.03516 0.17578 0.5524 0.2995 0.66257 0.8827 0.29297 1.3086 0.0306 0.0976 0.0622 0.19402 0.0957 0.29102 0.0599 0.164 0.1195 0.32923 0.1875 0.49023 0.0895 0.215 0.18048 0.42954 0.27148 0.64453 0.114 0.263 0.23875 0.52111 0.34375 0.78711 0.241 0.61 0.195 1.0906 0 1.3906 0.137 0.0784 0.27139 0.16291 0.40039 0.25391 0.305 0.221 0.5705 0.49039 0.8125 0.77539 0.05122 0.06158 0.09893 0.12621 0.14453 0.19141 0.06402 0.01929 0.1073 0.03026 0.19531 0.05859 0.64966 0.20916 1.2807 0.47202 1.9102 0.73438 0.23578 0.1011 0.47158 0.20275 0.70703 0.30469 0.06962 0.0034 0.13942 0.0054 0.20898 0.0098 0.14753 0.0092 0.29405 0.0234 0.44141 0.03516 0.39763 0.03869 0.79434 0.09782 1.1855 0.17969 0.21481-0.05381 0.42978-0.10607 0.64453-0.16016 0.11574-0.02915 0.65191-0.16555 0.79492-0.19922 0.10871-0.02559 0.21717-0.04793 0.32617-0.07227 0.24264-0.04526 0.32335-0.06599 0.5625-0.0918 0.25776-0.02784 0.51857-0.02583 0.77734-0.01953 0.31024 0.01405 0.62143 0.03313 0.92383 0.10938 0.14958 0.04327 0.18112 0.04765 0.32812 0.11133 0.1726 0.07477 0.33132 0.18092 0.47852 0.29688 0.07639 0.06468 0.15133 0.13286 0.22266 0.20312 0.0194 0.01 0.03958 0.01824 0.05859 0.0293 0.11279 0.06558 0.16587 0.11563 0.23633 0.18359 0.01891 2.78e-4 0.0377 0.0021 0.05664 0.0039 0.05131 0.0055 0.10329 0.01378 0.1543 0.02148 0.03088 0.0046 0.06273 0.0077 0.09375 0.01172-0.06264-0.09499-0.02432-0.18379 0.0625-0.1875 0.0012-5.1e-5 0.0027 2e-5 0.0039 0 0.01839-0.026 0.04856-0.04161 0.08398-0.04102 0.04368 7.36e-4 0.09389 0.02545 0.14258 0.08398 3.08e-4 3.7e-4 -3.09e-4 0.0016 0 2e-3 2.66e-4 3.2e-4 0.0017-3.21e-4 2e-3 0 0.01318-0.0074 0.02687-0.0128 0.04102-0.01367 0.06338-0.0039 0.12891 0.05798 0.12891 0.18359v0.0039c6.86e-4 6.13e-4 0.0013 0.0013 2e-3 2e-3 0.18174-0.0043 0.21089 0.15763 0.08789 0.2207 0.04639 0.06051 0.08122 0.11355-0.0293 0.09766-0.04901-0.0071-0.09073-0.03305-0.13086-0.06055-4.07e-4 2.53e-4 -0.0015-2.47e-4 -2e-3 0-0.03119 0.01886-0.0682 0.02001-0.09961 2e-3 -0.0021-4.27e-4 -0.0033-0.0012-0.0098-2e-3 -0.0073-9.25e-4 -0.01435-0.0011-0.02148-2e-3 0.01045 0.0434 0.01489 0.09315-2e-3 0.15625-0.0144 0.0535-0.03393 0.12374-0.04883 0.17774-0.0054 0.01945-0.01285 0.04303-0.01953 0.06641 0.01667 0.03463 0.03494 0.06855 0.05078 0.10352 0.07673 0.17656 0.1167 0.34658 0.10938 0.5332 0.28878 0.1183 0.57706 0.23695 0.86328 0.36133 0.19066 0.08268 0.3816 0.16735 0.57226 0.25 0.0097 0.0042 0.01954 0.0075 0.0293 0.01172 0.05793 0.01552 0.11727 0.03118 0.13477 0.03906 0.07225 0.03255 0.1424 0.07315 0.21289 0.10938-0.06368 0.13727-0.1224 0.27642-0.18164 0.41602 0.0059 0.0033 0.01171 0.0065 0.01758 0.0098 0.05546 0.0354 0.11212 0.06961 0.16602 0.10742h2.6699v-19zm0 13.301-0.00586 2e-3c0.00194 0.0033 0.00392 0.0065 0.00586 0.0098zm0 0.01172-0.00195 0.0039c7.411e-4 0.0012 0.00121 0.0027 0.00195 0.0039zm0 0.0078v0.51758c0.017122-0.0024 0.033819-0.0068 0.050781-0.0078 0.05338-0.0033 0.10644 7.53e-4 0.16016 0.0078 0.012702-0.03525 0.024086-0.07041 0.041016-0.10547-0.08454-0.13672-0.16955-0.2734-0.25195-0.4121zm0 1.8965v2e-3c0.013777 0.0039 0.039873 0.0088 0.083984 0.0098-0.054794-0.01308-0.074396-0.012879-0.083984-0.011789z"/></clipPath></defs><circle cx="19" cy="14.5" r="9" clip-path="url(#a)" fill="none" stroke="#fff" stroke-linecap="round" stroke-linejoin="round"/><path d="m24.385 21.708c-1.09 0.80693-0.99972 1.8283-0.40066 2.2094 0.61516 0.37438 6.5756 0.1392 8.9165 0 4.0357-0.23829 5.1747-4.4659 5.8837-4.6595 0.73715-0.20028 2.2299 1.4311 2.9008 3.2333 0.68015 1.8022 0.99824 4.0146 0.71215 7.0483-0.64816 5.6864-5.0337 9.033-8.6035 10.871-7.5415 3.8641-17.779 1.2115-18.179 1.1011-4.4117-1.1212-6.7346-3.6666-8.0855-6.4897-1.3509-2.8221-0.78225-5.9772 0.47917-8.2297 1.26-2.2425 3.2108-3.5743 3.8218-4.7457 0.60617-1.1613-0.137-2.1723-1.21-3.0337-1.07-0.868-2.4798-1.6016-3.5808-2.5825-1.11-0.98303-1.9099-2.1823-1.3699-2.8031 1.7399-0.21221 1.9895-0.29374 4.4603-0.62912" fill="none" stroke="#fff" stroke-linecap="round" stroke-linejoin="round" stroke-width=".9956"/><ellipse cx="14.361" cy="13.09" rx="1.49" ry="1.4869" fill="#fff" stroke-width=".99517"/></svg>