<?xml version="1.0" encoding="UTF-8"?><svg id="a" xmlns="http://www.w3.org/2000/svg" viewBox="0 0 48 48"><defs><style>.d{fill:none;stroke:#fff;stroke-linecap:round;stroke-linejoin:round;}</style></defs><rect class="d" x="5.5" y="5.5" width="37" height="37" rx="4" ry="4"/><circle class="d" cx="24" cy="24" r="16"/><path class="d" d="m26.001 10.144a14 14 0 0 1 11.999 13.856v0a14 14 0 0 1-12 13.856"/><path class="d" d="m22 37.856a14 14 0 0 1-12-13.856 14 14 0 0 1 12-13.856"/><circle class="d" cx="24" cy="24" r="12"/><path class="d" d="m24 16a4 4 0 0 0-4 4 4 4 0 0 0 2.1191 3.5195l-2.1191 8.4805h8l-2.1191-8.4805a4 4 0 0 0 2.1191-3.5195 4 4 0 0 0-4-4z"/><path class="d" d="m5.5 24h2.5"/><path class="d" d="m42.5 24h-2.5"/></svg>
