<svg xmlns="http://www.w3.org/2000/svg" id="svg8" version="1.1" viewBox="0 0 48 48">
  <defs id="defs4">
    <style id="style2">
      .a,.cls-1{fill:none;stroke:#fff;stroke-linecap:round;stroke-linejoin:round}
    </style>
  </defs>
  <g id="layer3">
    <path id="path880" d="m38.449 13.56 5.026.008-7.801 20.892h-5.092Z" style="fill:none;stroke:#fff;stroke-width:1;stroke-linecap:round;stroke-linejoin:round;stroke-miterlimit:4;stroke-dasharray:none;stroke-opacity:1"/>
    <path id="path882" d="m36.517 13.54-1.862 4.628-7.006-.033c-1.572-.008-2.48 1.485-1.07 2.943l2.166 2.237c2.567 2.652 2.63 5.358.62 8.13-2.008 2.772-7.156 4.984-11.76-.322-3.598 4.884-7.632 3.484-10.507 1.462-1.05-.739-2.198-2.195-2.573-2.578l1.779-4.831 3.599 3.82c1.169 1.24 2.62.92 3.226.386.606-.534 1.199-1.797-.043-3.09l-2.975-3.1c-1.828-1.904-1.64-5.253-.387-6.724 1.253-1.472 2.87-2.917 6.08-2.918Z" style="fill:none;stroke:#fff;stroke-width:1;stroke-linecap:round;stroke-linejoin:round;stroke-miterlimit:4;stroke-dasharray:none;stroke-opacity:1"/>
    <path id="path884" d="M21.04 18.163c-.522 1.379-.629 2.799.56 4.346l3.668 3.954c.732.789.767 2.19.01 2.902-.757.712-2.444.572-3.333-.368l-7.777-8.219c-.968-1.023-.514-2.626.996-2.624z" style="fill:none;stroke:#fff;stroke-width:1;stroke-linecap:round;stroke-linejoin:round;stroke-miterlimit:4;stroke-dasharray:none;stroke-opacity:1"/>
  </g>
</svg>
