<svg xmlns="http://www.w3.org/2000/svg" xml:space="preserve" id="svg1" version="1.1" viewBox="0 0 48 48"><defs id="defs1"><style id="style1">.a{fill:none;stroke:#fff;stroke-linecap:round;stroke-linejoin:round}</style></defs><path id="path5646" d="M5.5 5.5a38.623 38.623 0 0 1 37 37" style="display:inline;fill:none;stroke:#fff;stroke-width:1;stroke-linecap:round;stroke-linejoin:round"/><path id="path5644" d="M5.5 11.07A33.059 33.059 0 0 1 36.93 42.5" style="display:inline;fill:none;stroke:#fff;stroke-width:1;stroke-linecap:round;stroke-linejoin:round"/><path id="path5642" d="M5.501 16.642a27.494 27.494 0 0 1 25.857 25.857" style="display:inline;fill:none;stroke:#fff;stroke-width:1;stroke-linecap:round;stroke-linejoin:round"/><path id="path5640" d="M5.5 22.218a21.93 21.93 0 0 1 20.282 20.28" style="display:inline;fill:none;stroke:#fff;stroke-width:1;stroke-linecap:round;stroke-linejoin:round"/><path id="path5638" d="M5.501 27.802a16.366 16.366 0 0 1 14.697 14.696" style="display:inline;fill:none;stroke:#fff;stroke-width:1;stroke-linecap:round;stroke-linejoin:round"/><path id="path5636" d="M5.502 33.407a10.801 10.801 0 0 1 9.09 9.09" style="display:inline;fill:none;stroke:#fff;stroke-width:1;stroke-linecap:round;stroke-linejoin:round"/><path id="path5558" d="M5.503 39.8A4.577 4.577 0 0 1 8.2 42.497" style="display:inline;fill:none;stroke:#fff;stroke-width:1;stroke-linecap:round;stroke-linejoin:round"/></svg>