<svg xmlns="http://www.w3.org/2000/svg" xml:space="preserve" id="svg1" version="1.1" viewBox="0 0 48 48"><defs id="defs1"><style id="style1">.a{fill:none;stroke:#fff;stroke-linecap:round;stroke-linejoin:round}</style></defs><path id="path25" d="M5.5 29.346V9.5c0-2.216 1.784-4 4-4v0h15.022" style="fill:none;stroke:#fff;stroke-width:1;stroke-linecap:round;stroke-linejoin:round;stroke-opacity:1"/><path id="path24" d="M42.5 19.159V38.5c0 2.216-1.784 4-4 4h-29c-2.216 0-4-1.784-4-4v-3.332" style="fill:none;stroke:#fff;stroke-width:1;stroke-linecap:round;stroke-linejoin:round;stroke-opacity:1"/><path id="path22" d="M38.5 5.5c2.216 0 4 1.784 4 4" style="fill:none;stroke:#fff;stroke-width:1;stroke-linecap:round;stroke-linejoin:round;stroke-opacity:1"/><path id="path21" d="M28.723 24.2a8.362 8.362 0 0 1-5.664 14.513 8.362 8.362 0 1 1 1.128-16.648" style="fill:none;stroke:#fff;stroke-width:1;stroke-linecap:round;stroke-linejoin:round;stroke-opacity:1"/><path id="path20" d="M21.454 31.322c-3.21.168-4.523-3.952-2.95-5.655.852 2.132 1.473 3.312 2.95 5.655v0" style="fill:none;stroke:#fff;stroke-width:1;stroke-linecap:round;stroke-linejoin:round;stroke-opacity:1"/><path id="path19" d="M22.975 32.068c1.541 2.82 5.738 1.776 6.362-.457-2.261.394-3.592.484-6.362.457v0" style="fill:none;stroke:#fff;stroke-width:1;stroke-linecap:round;stroke-linejoin:round;stroke-opacity:1"/><path id="path18" d="m12.838 32.655-.742.096-.004-1.822 1.603.26c-.06.383.106.824.127 1.339.051 1.288-1.04 1.772-1.202 2.926" style="fill:none;stroke:#fff;stroke-width:1;stroke-linecap:round;stroke-linejoin:round;stroke-opacity:1"/><path id="path17" d="m9.296 29.632 1.664 1.485.851-.79c-.13-.883-.847-1.794-1.559-1.778-.974.335-1.205.597-1.145 1.325l-1.453.778c-.194.147-.19.227-.167.373" style="fill:none;stroke:#fff;stroke-width:1;stroke-linecap:round;stroke-linejoin:round;stroke-opacity:1"/><path id="path16" d="m7.777 31.23 1.962 2.059 1.247-1.067c-.214-.713-.464-1.274-1.006-1.958" style="fill:none;stroke:#fff;stroke-width:1;stroke-linecap:round;stroke-linejoin:round;stroke-opacity:1"/><path id="path15" d="m7.358 30.987-1.707 1.085 2.583 2.978 1.202-.875-1.61-2.926" style="fill:none;stroke:#fff;stroke-width:1;stroke-linecap:round;stroke-linejoin:round;stroke-opacity:1"/><path id="path14" d="M8.411 35.162c.616.836 1.06 1.819 2.534 1.635 2.279.696 2.691 1.066 4.88 1.007l-.855 3.12" style="fill:none;stroke:#fff;stroke-width:1;stroke-linecap:round;stroke-linejoin:round;stroke-opacity:1"/><path id="path13" d="M12.933 34.584c1.053.173 2.105.347 3.158.535" style="fill:none;stroke:#fff;stroke-width:1;stroke-linecap:round;stroke-linejoin:round;stroke-opacity:1"/><path id="path12" d="M23.843 38.725c-.319.467-1.055.437-1.556.978-.476.515-.747 1.635-1.045 2.794" style="fill:none;stroke:#fff;stroke-width:1;stroke-linecap:round;stroke-linejoin:round;stroke-opacity:1"/><path id="path11" d="m11.673 42.5 2.133-1.508c.312-.221 1.147-.037 1.147-.037l.966.604.326.94" style="fill:none;stroke:#fff;stroke-width:1;stroke-linecap:round;stroke-linejoin:round;stroke-opacity:1"/><path id="path10" d="M31.326 27.767c.896-.705 1.156-3.059.91-3.65-.211-.448-.488-.865-.995-1.167l-.331-.177c-.44.034-.993-.18-1.294.2l-.687.872c-.124.374.282.828.684.765l.79-.572.226.448-.458 1.269" style="fill:none;stroke:#fff;stroke-width:1;stroke-linecap:round;stroke-linejoin:round;stroke-opacity:1"/><path id="path9" d="M29.417 23.23c-.447-.303-.983-.518-1.218-1.085l1.142-.643c.617-.147 1.69.833 2.116 1.538" style="fill:none;stroke:#fff;stroke-width:1;stroke-linecap:round;stroke-linejoin:round;stroke-opacity:1"/><path id="path8" d="M31.614 27.476c2.282 1.627 1.107 5.619-.817 6.382" style="fill:none;stroke:#fff;stroke-width:1;stroke-linecap:round;stroke-linejoin:round;stroke-opacity:1"/><path id="path7" d="M29.205 24.942c-2.445-1.262-4.937-2.756-6.64-4.163l.924-1.366c1.656.773 3.529 1.703 4.97 2.804" style="fill:none;stroke:#fff;stroke-width:1;stroke-linecap:round;stroke-linejoin:round;stroke-opacity:1"/><path id="path6" d="M29.73 21.142c2.513 1.352 5.78-.217 7.512-2.119l3.199-3.513c1.18-1.297-1.882-4.46-4.281-6.283-1.948-1.69-6.331-3.971-7.365-2.449-1.129 1.664-1.838 3.59-2.632 5.627-.8 2.055-.687 5.714 1.347 7.38l-.82 1.024" style="fill:none;stroke:#fff;stroke-width:1;stroke-linecap:round;stroke-linejoin:round;stroke-opacity:1"/><path id="path5" d="m40.338 15.664.83.13.551-3.173c-.354-2.584-3.17-4.805-4.119-5.498-2.27-1.653-5.294-2.64-7.007-2.323l-2.326 1.467.285.675" style="fill:none;stroke:#fff;stroke-width:1;stroke-linecap:round;stroke-linejoin:round;stroke-opacity:1"/><path id="path4" d="M36.69 21.494c-.818.122-1.185-.755-.764-1.276" style="fill:none;stroke:#fff;stroke-width:1;stroke-linecap:round;stroke-linejoin:round;stroke-opacity:1"/><path id="path3" d="M36.377 20.06c2.77.12 3.864-1.183 5.737-3.76l-1.299-.883" style="fill:none;stroke:#fff;stroke-width:1;stroke-linecap:round;stroke-linejoin:round;stroke-opacity:1"/><path id="path2" d="M24.37 12.703c.226.863 1.259.858 1.602.221" style="fill:none;stroke:#fff;stroke-width:1;stroke-linecap:round;stroke-linejoin:round;stroke-opacity:1"/><path id="path1" d="M25.938 12.41c-1.296-2.698-.457-4.332 1.324-7.276l1.435.916" style="fill:none;stroke:#fff;stroke-width:1;stroke-linecap:round;stroke-linejoin:round;stroke-opacity:1"/><path id="path23" d="m27.49 14.574 3.94-5.041c.302.791.442 1.606.364 2.453l2.9-1.98-.556 3.544c.728-.44 1.522-.67 2.365-.745l-2.813 5.747c-.697-.72-1.372-1.484-2.819-2.438-1.446-.954-2.428-1.227-3.38-1.54v0" style="fill:none;stroke:#fff;stroke-width:1;stroke-linecap:round;stroke-linejoin:round;stroke-opacity:1"/></svg>