<svg xmlns="http://www.w3.org/2000/svg" xml:space="preserve" viewBox="0 0 48 48"><path d="M32.857 38.81a.75.75 0 0 1-.75.75.75.75 0 0 1-.75-.75.75.75 0 0 1 .75-.75.75.75 0 0 1 .75.75" style="fill:#fff;stroke-width:1;stroke-linecap:round;stroke-linejoin:round;stroke-dashoffset:1.3;stroke-opacity:.583875"/><path d="m8.5 33.514 33.106-3.31.406 4.061-33.105 3.31ZM8.5 33.514l-3 2.332 3.403 1.691M35.627 30.84l.395 3.947M38.242 30.58l.395 3.946M34.58 37.408v4.142H9.387v-1.5M9.387 31.128v-19.5H34.58v16.887" style="fill:none;stroke:#fff;stroke-width:1;stroke-linecap:round;stroke-linejoin:round;stroke-dashoffset:1.3;stroke-opacity:1"/><path d="M9.387 11.629V8.386c0-1.073.863-1.936 1.936-1.936h25.193c1.073 0 1.937.863 1.937 1.936V19.45c0 1.073.863 1.937 1.936 1.937h.175A1.93 1.93 0 0 0 42.5 19.45V9.723h-4.047" style="fill:none;stroke:#fff;stroke-width:1;stroke-linecap:round;stroke-linejoin:round;stroke-dashoffset:1.3;stroke-opacity:1"/><path d="M34.58 11.629V8.386c0-1.073.864-1.936 1.936-1.936M40.564 21.387h-5.83M12.604 14.865h18.758v5.205H12.604ZM12.604 23.263h5.166v5.205h-5.166zM20.337 25.878h11.22M20.337 28.494h9.8M29.592 23.261h.389M20.337 23.261h7.245" style="fill:none;stroke:#fff;stroke-width:1;stroke-linecap:round;stroke-linejoin:round;stroke-dashoffset:1.3;stroke-opacity:1"/><path d="M12.602 9.003a.75.75 0 0 1-.75.75.75.75 0 0 1-.75-.75.75.75 0 0 1 .75-.75.75.75 0 0 1 .75.75M15.23 9.003a.75.75 0 0 1-.75.75.75.75 0 0 1-.75-.75.75.75 0 0 1 .75-.75.75.75 0 0 1 .75.75M17.858 9.003a.75.75 0 0 1-.75.75.75.75 0 0 1-.75-.75.75.75 0 0 1 .75-.75.75.75 0 0 1 .75.75M27.6 38.81a.75.75 0 0 1-.75.75.75.75 0 0 1-.75-.75.75.75 0 0 1 .75-.75.75.75 0 0 1 .75.75M30.229 38.81a.75.75 0 0 1-.75.75.75.75 0 0 1-.75-.75.75.75 0 0 1 .75-.75.75.75 0 0 1 .75.75" style="fill:#fff;stroke-width:1;stroke-linecap:round;stroke-linejoin:round;stroke-dashoffset:1.3;stroke-opacity:.583875"/></svg>