<?xml version="1.0" encoding="UTF-8"?><svg id="b" xmlns="http://www.w3.org/2000/svg" viewBox="0 0 48 48"><defs><style>.t{fill:none;stroke:#fff;stroke-linecap:round;stroke-linejoin:round;}</style></defs><path id="c" class="t" d="m40.5,5.5H7.5c-1.1046,0-2,.8954-2,2v33c0,1.1046.8954,2,2,2h33c1.1046,0,2-.8954,2-2V7.5c0-1.1046-.8954-2-2-2Z"/><path id="d" class="t" d="m23.4268,5.5L5.5,36.4777"/><rect id="e" class="t" x="13.8132" y="22.1409" width="25.1473" height="6.9974"/><path id="f" class="t" d="m42.5,11.5713l-6.1166,10.5696"/><path id="g" class="t" d="m32.334,29.1383l-7.7324,13.3617"/><path id="h" class="t" d="m17.4625,35.5806l-2.4423,4.2204"/><path id="i" class="t" d="m21.1906,29.1383l-1.2053,2.1967"/><path id="j" class="t" d="m25.24,22.1409l2.0282-3.5048"/><path id="k" class="t" d="m32.2408,10.0435l-2.3702,4.3489"/><path id="l" class="t" d="m29.8706,22.1409v4.8512"/><path id="m" class="t" d="m33.1657,22.1409v1.7454"/><path id="n" class="t" d="m36.4608,22.1409v4.8512"/><path id="o" class="t" d="m26.5755,22.1409v1.7454"/><path id="p" class="t" d="m23.2804,22.1409v4.8512"/><path id="q" class="t" d="m19.9853,22.1409v1.7454"/><path id="r" class="t" d="m16.6902,22.1409l-.0505,4.8512"/><path id="s" class="t" d="m34.9479,5.545l-.5535.9565"/></svg>