<?xml version="1.0" encoding="UTF-8" standalone="no"?>
<svg
   viewBox="0 0 48 48"
   version="1.1"
   id="svg1"
   xml:space="preserve"
   xmlns="http://www.w3.org/2000/svg"
   xmlns:svg="http://www.w3.org/2000/svg"><defs
     id="defs1"><style
       id="style1">.a{fill:none;stroke:#fff;stroke-linecap:round;stroke-linejoin:round;}</style></defs><path
     id="rect1"
     style="opacity:1;fill:none;stroke:#ffffff;stroke-width:1;stroke-linecap:round;stroke-linejoin:round;stroke-dashoffset:0.5"
     d="m 38.252349,19.875554 v -5.949382 c 0,-1.879441 -1.511125,-3.392492 -3.388174,-3.392492 H 8.8881757 c -1.877049,0 -3.3881748,1.513051 -3.3881748,3.392492 v 18.093289 c 0,1.879441 1.5111258,3.392492 3.3881748,3.392492 H 25.334679 c 0.282933,-4.750195 4.0984,-7.24292 12.91767,-15.536399 z" /><path
     style="opacity:1;fill:none;stroke:#ffffff;stroke-width:1;stroke-linecap:round;stroke-linejoin:round;stroke-dashoffset:0.5"
     d="M 5.5000009,29.767525 28.016566,29.61337"
     id="path2" /><path
     style="opacity:1;fill:none;stroke:#ffffff;stroke-width:1;stroke-linecap:round;stroke-linejoin:round;stroke-dashoffset:0.5"
     d="m 13.371552,29.713634 v 5.698319"
     id="path3" /><path
     style="opacity:1;fill:none;stroke:#ffffff;stroke-width:1;stroke-linecap:round;stroke-linejoin:round;stroke-dashoffset:0.5"
     d="m 21.60628,29.657257 v 5.754696"
     id="path4" /><path
     style="opacity:1;fill:none;stroke:#ffffff;stroke-width:1;stroke-linecap:round;stroke-linejoin:round;stroke-dashoffset:0.5"
     d="m 38.340255,23.625741 4.159764,4.453526 -7.728703,7.707001 -6.019257,1.680073 1.571399,-6.186935 z"
     id="path5" /><path
     style="opacity:1;fill:none;stroke:#ffffff;stroke-width:1;stroke-linecap:round;stroke-linejoin:round;stroke-dashoffset:0.5"
     d="m 30.323458,31.279406 4.447858,4.506862"
     id="path6" /><path
     style="opacity:1;fill:none;stroke:#ffffff;stroke-width:1;stroke-linecap:round;stroke-linejoin:round;stroke-dashoffset:0.5"
     d="m 17.885436,15.785401 0.05326,8.373696 c 0.0069,1.085572 1.180759,0.998518 1.864371,0.586692 l 6.418766,-3.866833 c 0.890262,-0.536318 0.832248,-1.476847 0.05326,-1.946752 l -6.498667,-3.920169 c -0.590111,-0.355971 -1.897275,-0.214262 -1.890994,0.773366 z"
     id="path7" /></svg>
