<?xml version="1.0" encoding="UTF-8"?><svg id="a" xmlns="http://www.w3.org/2000/svg" viewBox="0 0 48 48"><defs><style>.b{fill:none;stroke:#fff;stroke-linecap:round;stroke-linejoin:round;}</style></defs><path class="b" d="m24 38.5v7"/><path class="b" d="m24 2.5v5"/><path class="b" d="m45.5 24h-7v-11.381" fill="none"/><path class="b" d="m2.5 24h7v-11.381" fill="none"/><path class="b" d="m41.847 12.011a21.5 21.5 0 0 1 3.6531 11.989 21.5 21.5 0 0 1-21.5 21.5 21.5 21.5 0 0 1-21.5-21.5 21.5 21.5 0 0 1 3.6552-11.992"/><path class="b" d="m7.26 10.508a21.5 21.5 0 0 1 16.74-8.0084 21.5 21.5 0 0 1 16.762 8.0362"/><path class="b" d="m38.5 24a14.5 14.5 0 0 1-7.25 12.557 14.5 14.5 0 0 1-14.5 0 14.5 14.5 0 0 1-7.25-12.557"/><path class="b" d="m17.492 19.095c2.2537-0.153 4.577 0.49222 6.5084 2.2154 4.7515-4.2392 11.874-1.9544 14.5 2.6892"/><path class="b" d="m9.5 24c1.1603-2.0521 3.199-3.6436 5.5232-4.4149"/><path class="b" d="m45.365 11.374-21.365-3.874-21.365 3.874 21.365 3.874z"/><path class="b" d="m24 10.377-7.9 1.6439v5.0275"/><path class="b" d="m15.742 19.999-1.1026 4.463h2.922l-1.1025-4.4625"/><circle class="b" cx="16.1" cy="18.548" r="1.5"/><path class="b" d="m18.571 29.206 4.6878 4.6876c0.40411 0.39535 1.0983 0.36645 1.5373-0.05495l6.8969-6.8967"/></svg>
