<?xml version="1.0" encoding="UTF-8" standalone="no"?>
<svg
   viewBox="0 0 48 48"
   version="1.1"
   id="svg1"
   sodipodi:docname="stunt_bike_extreme.svg"
   inkscape:version="1.2.2 (b0a8486541, 2022-12-01)"
   xml:space="preserve"
   xmlns:inkscape="http://www.inkscape.org/namespaces/inkscape"
   xmlns:sodipodi="http://sodipodi.sourceforge.net/DTD/sodipodi-0.dtd"
   xmlns="http://www.w3.org/2000/svg"
   xmlns:svg="http://www.w3.org/2000/svg"><sodipodi:namedview
     id="namedview1"
     pagecolor="#505050"
     bordercolor="#eeeeee"
     borderopacity="1"
     inkscape:showpageshadow="0"
     inkscape:pageopacity="0"
     inkscape:pagecheckerboard="0"
     inkscape:deskcolor="#505050"
     inkscape:zoom="25.190679"
     inkscape:cx="25.485617"
     inkscape:cy="22.548023"
     inkscape:window-width="1918"
     inkscape:window-height="1053"
     inkscape:window-x="0"
     inkscape:window-y="0"
     inkscape:window-maximized="1"
     inkscape:current-layer="g2010"
     showgrid="false" /><defs
     id="defs1"><style
       id="style1">.a { fill:none;stroke:#fff;stroke-linecap:round;stroke-linejoin:round; }
</style></defs><g
     id="g2010"><path
       style="fill:none;stroke:#ffffff;stroke-width:1;stroke-linecap:round;stroke-linejoin:round;stroke-opacity:1;stop-color:#000000"
       d="m 23.443528,14.64632 0.95855,0.520419 0.800084,0.434384"
       id="path1897" /><path
       style="fill:none;stroke:#ffffff;stroke-width:1;stroke-linecap:round;stroke-linejoin:round;stroke-opacity:1;stop-color:#000000"
       d="m 22.309258,15.955787 0.06902,2.342288"
       id="path1869" /><g
       id="g1987"><path
         style="fill:none;stroke:#ffffff;stroke-width:1;stroke-linecap:round;stroke-linejoin:round;stroke-opacity:1;stop-color:#000000"
         d="m 29.618484,17.998845 8.163637,4.432223"
         id="path1899" /><g
         id="g1962"><path
           style="fill:none;stroke:#ffffff;stroke-width:1;stroke-linecap:round;stroke-linejoin:round;stroke-opacity:1;stop-color:#000000"
           d="m 36.463537,20.312928 a 2.2424707,2.2422448 0 0 1 0.731432,-0.122628 2.2424707,2.2422448 0 0 1 2.24247,2.242245 v 0 a 2.2424707,2.2422448 0 0 1 -2.24247,2.242245 2.2424707,2.2422448 0 0 1 -2.242471,-2.242245 2.2424707,2.2422448 0 0 1 4.21e-4,-0.04343"
           id="path1895" /><path
           style="fill:none;stroke:#ffffff;stroke-width:1;stroke-linecap:round;stroke-linejoin:round;stroke-opacity:1;stop-color:#000000"
           d="M 33.445617,18.679827 A 5.3050319,5.3044973 0 0 1 37.194968,17.128048 5.3050319,5.3044973 0 0 1 42.5,22.432545 5.3050319,5.3044973 0 0 1 37.194968,27.737042 5.3050319,5.3044973 0 0 1 31.889936,22.432545 5.3050319,5.3044973 0 0 1 32.129188,20.85751"
           id="path1893" /></g><g
         id="g1966"><path
           style="fill:none;stroke:#ffffff;stroke-width:1;stroke-linecap:round;stroke-linejoin:round;stroke-opacity:1;stop-color:#000000"
           d="m 20.556161,32.885942 a 5.3050319,5.3044973 0 0 1 0.816524,2.827552 v 0 a 5.3050319,5.3044973 0 0 1 -5.305031,5.304498 5.3050319,5.3044973 0 0 1 -5.305032,-5.304498 5.3050319,5.3044973 0 0 1 5.305032,-5.304497 5.3050319,5.3044973 0 0 1 2.540593,0.647849"
           id="path1891" /><path
           style="fill:none;stroke:#ffffff;stroke-width:1;stroke-linecap:round;stroke-linejoin:round;stroke-opacity:1;stop-color:#000000"
           d="m 18.301924,35.521312 a 2.2424707,2.2422448 0 0 1 0.0082,0.192182 2.2424707,2.2422448 0 0 1 -2.24247,2.242245 2.2424707,2.2422448 0 0 1 -2.242471,-2.242245 2.2424707,2.2422448 0 0 1 2.242471,-2.242245 2.2424707,2.2422448 0 0 1 0.423604,0.04037"
           id="path1889" /></g><path
         style="fill:none;stroke:#ffffff;stroke-width:1;stroke-linecap:round;stroke-linejoin:round;stroke-opacity:1;stop-color:#000000"
         d="m 20.139778,31.356815 -3.769281,4.386228"
         id="path1881" /></g><g
       id="g1972"><path
         style="fill:none;stroke:#ffffff;stroke-width:1;stroke-linecap:round;stroke-linejoin:round;stroke-opacity:1;stop-color:#000000"
         d="M 15.936422,24.095775 5.4978518,29.853867 C 10.5589,27.290421 10.931671,26.439274 14.093437,28.353372 l 4.153597,0.02586"
         id="path1887" /><path
         style="fill:none;stroke:#ffffff;stroke-width:1;stroke-linecap:round;stroke-linejoin:round;stroke-opacity:1;stop-color:#000000"
         d="m 34.298152,14.426012 -2.853463,-0.03509 -8.989588,4.028155 -1.137795,1.328839"
         id="path1885" /><path
         style="fill:none;stroke:#ffffff;stroke-width:1;stroke-linecap:round;stroke-linejoin:round;stroke-opacity:1;stop-color:#000000"
         d="m 10.554437,29.189192 5.96457,-0.731606"
         id="path1883" /><path
         style="fill:none;stroke:#ffffff;stroke-width:1;stroke-linecap:round;stroke-linejoin:round;stroke-opacity:1;stop-color:#000000"
         d="m 25.397701,17.176866 2.912704,0.09216 -0.0096,4.586462 -0.977523,0.219653 -1.086872,-1.626472 -1.567316,0.118005 -2.299394,2.063968 -0.255741,2.626969"
         id="path1879" /><path
         style="fill:none;stroke:#ffffff;stroke-width:1;stroke-linecap:round;stroke-linejoin:round;stroke-opacity:1;stop-color:#000000"
         d="M 28.326697,16.961774 31.46918,14.571282"
         id="path1877" /></g><g
       id="g1977"><path
         style="fill:none;stroke:#ffffff;stroke-width:1;stroke-linecap:round;stroke-linejoin:round;stroke-opacity:1;stop-color:#000000"
         d="m 23.632689,26.413282 c 0.231846,-0.353221 0.631473,-0.586474 1.085585,-0.586474 0.716628,0 1.297568,0.580883 1.297568,1.297439"
         id="path1875" /><path
         style="fill:none;stroke:#ffffff;stroke-width:1;stroke-linecap:round;stroke-linejoin:round;stroke-opacity:1;stop-color:#000000"
         d="m 23.959205,30.548232 3.470132,-2.271159 c 0.110924,-0.185152 0.206598,-0.377304 0.288236,-0.575742"
         id="path1873" /><path
         style="fill:none;stroke:#ffffff;stroke-width:1;stroke-linecap:round;stroke-linejoin:round;stroke-opacity:1;stop-color:#000000"
         d="m 23.805561,25.00523 c 0.72068,-0.531091 1.400683,-0.788268 2.074571,-1.004287 2.791999,-0.894987 4.343856,2.404604 1.80274,2.663704"
         id="path1871" /></g></g><g
     id="g1958"><path
       style="fill:none;stroke:#ffffff;stroke-width:1;stroke-linecap:round;stroke-linejoin:round;stroke-opacity:1;stop-color:#000000"
       d="m 24.741979,27.74261 c -0.09062,0.505066 -0.06155,1.206363 -1.114857,1.401506 l -3.711008,0.687523 c -0.636524,0.11792 -0.402484,-1.090064 -0.48816,-1.997775 -0.727326,-1.318133 -0.698476,-1.852044 -1.286189,-2.735236 l -0.05186,-0.941944 2.458809,-0.764129 c 0.163394,0.508082 0.166369,1.038278 0.639584,1.503648 l -0.143121,1.323229 c 0.252268,0.44076 0.509295,0.855079 0.769794,1.250116 0.931222,-0.03937 1.640741,0.481064 2.927008,0.273056 z"
       id="path1947" /><path
       style="fill:none;stroke:#ffffff;stroke-width:1;stroke-linecap:round;stroke-linejoin:round;stroke-opacity:1;stop-color:#000000"
       d="m 20.180648,23.407713 c -0.467374,-1.396031 0.490282,-2.213735 -0.995494,-3.642032 -0.310499,-0.298488 -1.647806,-0.867974 -2.466002,-0.852233 l -2.013148,-0.622116 c 1.124395,-0.963071 2.57508,-1.777058 3.12772,-3.001369"
       id="path1945" /><path
       style="fill:none;stroke:#ffffff;stroke-width:1;stroke-linecap:round;stroke-linejoin:round;stroke-opacity:1;stop-color:#000000"
       d="m 20.772165,13.781365 0.05029,0.753131 c 0.479473,-0.05764 0.779349,0.06836 1.031582,0.243082 0.699271,-0.05973 1.086945,-0.223627 1.60105,-0.345259 0.33958,-0.869059 -0.51065,-1.255318 -1.544906,-1.087519 -0.29104,0.287885 -0.661807,0.447225 -1.138014,0.436564 z"
       id="path1943" /><path
       style="fill:none;stroke:#ffffff;stroke-width:1;stroke-linecap:round;stroke-linejoin:round;stroke-opacity:1;stop-color:#000000"
       d="m 17.956491,13.521633 c 0.98661,0.255661 1.988209,0.30262 2.771204,0.315372"
       id="path1941" /><path
       style="fill:none;stroke:#ffffff;stroke-width:1;stroke-linecap:round;stroke-linejoin:round;stroke-opacity:1;stop-color:#000000"
       d="m 20.784478,14.415061 c -1.464439,0.542884 -2.739974,1.102862 -4.241199,0.556777 l -0.34692,-1.544271 0.881845,-1.534143 c 0.465025,-0.809004 1.549059,-0.710649 1.897824,-0.255258 0.499062,0.651637 0.108125,1.352532 -0.56492,1.980437"
       id="path1939" /><path
       style="fill:none;stroke:#ffffff;stroke-width:1;stroke-linecap:round;stroke-linejoin:round;stroke-opacity:1;stop-color:#000000"
       d="m 18.637123,11.379063 c -1.306055,-1.157282 -3.77688,1.285445 -5.190187,2.719175 -1.090903,1.106668 -1.635902,2.500736 -2.239292,3.923817 l 0.155692,1.898818 c 0.731758,1.541847 4.332592,2.237288 6.017215,2.088516 0.214507,0.74787 0.326316,1.512343 0.833519,2.212894"
       id="path1937" /><path
       style="fill:none;stroke:#ffffff;stroke-width:1;stroke-linecap:round;stroke-linejoin:round;stroke-opacity:1;stop-color:#000000"
       d="m 11.484356,19.837762 3.474513,-1.621591"
       id="path1935" /><path
       style="fill:none;stroke:#ffffff;stroke-width:1;stroke-linecap:round;stroke-linejoin:round;stroke-opacity:1;stop-color:#000000"
       d="m 17.798931,9.7663824 c 1.864598,0.2868146 2.73991,1.8007816 3.852678,3.0778656 l 1.194447,-1.013198 c 0.740292,-0.908133 -1.132004,-0.544352 -1.778108,-2.1790047 l 0.0714,-0.2689332 c 0.121817,-0.4587866 1.016565,-0.2753458 2.423019,0.2250388 L 24.842024,9.0120506 C 23.201135,8.1699756 20.155703,6.260944 18.843617,7.2679901 18.037842,7.8864344 17.762983,8.9588645 17.798931,9.7663824 Z"
       id="path1933" /><path
       style="fill:none;stroke:#ffffff;stroke-width:1;stroke-linecap:round;stroke-linejoin:round;stroke-opacity:1;stop-color:#000000"
       d="m 16.909765,16.803288 c 0.791398,0.287974 2.148291,-0.274469 3.265821,-0.743817 0.723415,-0.303824 1.148747,0.26701 2.024146,-0.0361"
       id="path1756" /></g></svg>
