<?xml version="1.0" encoding="UTF-8"?><svg id="b" xmlns="http://www.w3.org/2000/svg" viewBox="0 0 48 48"><defs><style>.j{fill-rule:evenodd;}.j,.k{fill:none;stroke:#fff;stroke-linecap:round;stroke-linejoin:round;}</style></defs><path id="c" class="k" d="M9.1355,15.0349c3.8762-2.2951,9.1285-3.8079,14.8121-3.8079,5.7284,0,11.0014,1.5094,14.8907,3.8003,4.09,2.4096,6.6617,5.6946,6.6617,9.0251,0,3.3264-2.562,6.5776-6.6376,8.9582-3.8907,2.2723-9.1734,3.7623-14.9149,3.7623-5.6939,0-10.9566-1.4935-14.8355-3.7706-4.0548-2.3799-6.612-5.6277-6.612-8.9492,0-3.3278,2.5669-6.61,6.6355-9.0182h0Z"/><polygon id="d" class="j" points="17.5035 19.1798 26.6818 21.1749 17.603 23.0705 15.6079 28.059 13.6128 22.9704 5.2317 21.1749 13.6128 19.3788 15.5084 14.59 17.5035 19.1798"/><polygon id="e" class="j" points="28.711 24.463 32.4014 25.2204 28.711 26.0716 27.9536 28.059 27.1018 25.9773 23.6952 25.2204 27.1018 24.463 27.8586 22.5707 28.711 24.463"/><polygon id="f" class="j" points="39.0602 24.463 42.7505 25.2204 39.0602 26.0716 38.3028 28.059 37.4516 25.9773 34.1393 25.2204 37.4516 24.463 38.3028 22.5707 39.0602 24.463"/><polygon id="g" class="j" points="36.0702 18.26 39.7612 19.0168 36.0702 19.7736 35.3134 21.856 34.4622 19.7736 31.055 19.0168 34.4622 18.26 35.2184 16.367 36.0702 18.26"/><polygon id="h" class="j" points="32.1908 29.4102 35.9761 30.262 32.2851 31.0188 31.4333 33.0062 30.5821 31.0188 27.2699 30.262 30.5821 29.5046 31.4333 27.6122 32.1908 29.4102"/><polygon id="i" class="j" points="21.3506 30.141 25.0415 30.9921 21.3506 31.7496 20.5932 33.7363 19.742 31.6546 16.3354 30.9921 19.742 30.2353 20.4988 28.248 21.3506 30.141"/></svg>