<?xml version="1.0" encoding="UTF-8"?><svg id="a" xmlns="http://www.w3.org/2000/svg" viewBox="0 0 48 48"><defs><style>.e,.f{fill:none;stroke:#fff;stroke-linejoin:round;}.f{stroke-linecap:round;}</style></defs><path class="e" d="M9.5,5.5h29c2.2036-.0055,3.9945,1.7764,4,3.98,0,.0067,0,.0134,0,.02v29c.0055,2.2036-1.7764,3.9945-3.98,4-.0067,0-.0133,0-.02,0H9.5c-2.2036.0055-3.9945-1.7764-4-3.98,0-.0067,0-.0133,0-.02V9.5c-.0055-2.2036,1.7764-3.9945,3.98-4,.0067,0,.0134,0,.02,0Z"/><path class="f" d="M22.3048,22.8349v-7.1213h2.3314c1.318,0,2.3865,1.0708,2.3865,2.3916s-1.0685,2.3916-2.3865,2.3916h-2.3314"/><path class="f" d="M33.7821,22.8349v-7.1213h2.3314c1.318,0,2.3865,1.0708,2.3865,2.3916s-1.0685,2.3916-2.3865,2.3916h-2.3314"/><line class="f" x1="36.1135" y1="20.4968" x2="38.4447" y2="22.8331"/><path class="f" d="M9.641,22.0546c.4367.5685.9843.7803,1.7461.7803h1.0543c.9811,0,1.7765-.7954,1.7765-1.7765v-.0077c0-.9811-.7954-1.7765-1.7765-1.7765h-1.163c-.9822,0-1.7784-.7962-1.7784-1.7784h0c0-.9843.7979-1.7823,1.7822-1.7823h1.0485c.7618,0,1.3094.2118,1.7461.7803"/><path class="f" d="M15.8425,15.7135v4.7624c0,1.3028,1.0561,2.3589,2.3589,2.3589s2.3589-1.0561,2.3589-2.3589v-4.7624"/><line class="f" x1="28.6475" y1="19.2742" x2="30.969" y2="19.2742"/><polyline class="f" points="32.2082 22.8349 28.6475 22.8349 28.6475 15.7135 32.2082 15.7135"/><path class="f" d="M29.8433,32.2865v-7.1213h2.3314c1.318,0,2.3865,1.0708,2.3865,2.3916s-1.0685,2.3916-2.3865,2.3916h-2.3314"/><line class="f" x1="32.1747" y1="29.9484" x2="34.5059" y2="32.2847"/><line class="f" x1="19.4261" y1="25.1651" x2="24.144" y2="25.1651"/><line class="f" x1="21.785" y1="32.2865" x2="21.785" y2="25.1651"/><path class="f" d="M13.5798,31.5062c.4367.5685.9843.7803,1.7461.7803h1.0543c.9811,0,1.7765-.7954,1.7765-1.7765v-.0077c0-.9811-.7954-1.7765-1.7765-1.7765h-1.163c-.9822,0-1.7784-.7962-1.7784-1.7784h0c0-.9843.7979-1.7823,1.7822-1.7823h1.0485c.7618,0,1.3094.2118,1.7461.7803"/><line class="f" x1="27.4843" y1="29.9275" x2="24.3293" y2="29.9275"/><polyline class="f" points="23.5479 32.2865 25.9068 25.1651 28.2658 32.2865"/></svg>