<?xml version="1.0" encoding="UTF-8"?>
<svg version="1.1" viewBox="0 0 48 48" xmlns="http://www.w3.org/2000/svg">
 <defs>
  <style>.a {
        fill: none;
        stroke: #fff;
        stroke-linecap: round;
        stroke-linejoin: round;
      }</style>
 </defs>
 <circle cx="23.818" cy="24.414" r="18.374" class="a"/>
 <path d="m34.181 25.252-1.1513-5.9224 4.1172 5.3527 1.8139-6.4961 1.1508 5.9199" class="a"/>
 <path d="m20.583 21.837 3.765-0.74884" class="a"/>
 <path d="m23.57 27.277-1.1047-5.8151" class="a"/>
 <path d="m14.704 22.906 0.74673 3.8908c0.20428 1.0644 1.2218 1.7595 2.2727 1.5526 1.0509-0.2069 1.7373-1.2375 1.533-2.3019l-0.74673-3.8908" class="a"/>
 <path d="m9.614 29.186c0.42764 0.38369 0.88776 0.46724 1.4831 0.34976l0.82395-0.16258c0.76678-0.1513 1.2676-0.90496 1.1185-1.6833l-0.0011-0.0061c-0.14909-0.77841-0.89152-1.2868-1.6583-1.1355l-0.90889 0.17934c-0.7676 0.15154-1.5108-0.35736-1.66-1.1366v-4e-6c-0.14953-0.7809 0.35286-1.537 1.1221-1.6888l0.81946-0.1617c0.59538-0.11748 1.0555-0.03394 1.4831 0.34976" class="a"/>
 <circle cx="29.007" cy="23.138" r="3.0" class="a"/>
</svg>
