<?xml version="1.0" encoding="UTF-8" standalone="no"?>
<!-- Created with Inkscape (http://www.inkscape.org/) -->

<svg
   width="48"
   height="48"
   viewBox="0 0 48 48.000001"
   version="1.1"
   id="svg1"
   xml:space="preserve"
   inkscape:version="1.4.2 (ebf0e940d0, 2025-05-08)"
   sodipodi:docname="svg_viewer.svg"
   xmlns:inkscape="http://www.inkscape.org/namespaces/inkscape"
   xmlns:sodipodi="http://sodipodi.sourceforge.net/DTD/sodipodi-0.dtd"
   xmlns="http://www.w3.org/2000/svg"
   xmlns:svg="http://www.w3.org/2000/svg"><sodipodi:namedview
     id="namedview1"
     pagecolor="#505050"
     bordercolor="#eeeeee"
     borderopacity="1"
     inkscape:showpageshadow="0"
     inkscape:pageopacity="0"
     inkscape:pagecheckerboard="0"
     inkscape:deskcolor="#505050"
     inkscape:document-units="px"
     inkscape:zoom="16.000001"
     inkscape:cx="24.124999"
     inkscape:cy="28.281249"
     inkscape:window-width="1895"
     inkscape:window-height="1135"
     inkscape:window-x="12"
     inkscape:window-y="52"
     inkscape:window-maximized="0"
     inkscape:current-layer="svg1"
     showguides="true" /><defs
     id="defs1"><style
       id="style1">
      .cls-1 {
        fill: none;
        stroke:#fff;
        stroke-linecap: round;
        stroke-linejoin: round;
      }
    </style><style
       id="style1-6">.a,.b{fill:none;stroke:#fff;stroke-linejoin:round;}.b{stroke-linecap:round;}</style><style
       id="style1-1">.q{fill:#fff;}.r,.s{fill:none;stroke:#fff;stroke-linecap:round;stroke-linejoin:round;}.s{stroke-width:1px;}</style><style
       id="style1-3">
      .cls-1 {
        fill: none;
        stroke:#fff;
        stroke-linecap: round;
        stroke-linejoin: round;
      }
    </style><style
       id="style1-62">
      .cls-1 {
        fill: none;
        stroke:#fff;
        stroke-linecap: round;
        stroke-linejoin: round;
      }
    </style><style
       id="style1-37">.cls-1{fill:none;stroke:#fff;stroke-linecap:round;stroke-linejoin:round;}</style><style
       id="style1-9">.q{fill:#fff;}.r,.s{fill:none;stroke:#fff;stroke-linecap:round;stroke-linejoin:round;}.s{stroke-width:1px;}</style><style
       id="style1-5">
      .cls-1 {
        fill: none;
        stroke:#fff;
        stroke-linecap: round;
        stroke-linejoin: round;
      }
    </style><style
       id="style1-91">
      .cls-1 {
        fill: none;
        stroke:#fff;
        stroke-linecap: round;
        stroke-linejoin: round;
      }
    </style><style
       id="style1-35">.q{fill:#fff;}.r,.s{fill:none;stroke:#fff;stroke-linecap:round;stroke-linejoin:round;}.s{stroke-width:1px;}</style><style
       id="style1-7">
      .cls-1 {
        fill: none;
        stroke: #fff;
        stroke-linecap: round;
        stroke-linejoin: round;
      }
    </style><style
       id="style1-75">
      .cls-1 {
        fill: none;
        stroke: #fff;
        stroke-linecap: round;
        stroke-linejoin: round;
      }
    </style></defs><path
     class="b"
     d="m 28.194091,9.2938898 c 1.413856,0 2.55996,1.1451142 2.55996,2.5577472 0,1.41263 -1.146104,2.557746 -2.55996,2.557746 -1.413853,0 -2.559959,-1.145116 -2.559959,-2.557746 0,-1.412633 1.146106,-2.5577472 2.559959,-2.5577472 z m -6.475121,5.1032912 4.141287,4.137709 c 0.157152,0.157017 0.411945,0.157017 0.569096,0 l 0.792872,-0.792185 c 0.157152,-0.157017 0.411943,-0.157017 0.569096,0 l 4.476117,4.472249 c 0.253474,0.253254 0.07396,0.686324 -0.284549,0.686324 H 16.017055 c -0.324625,0 -0.515604,-0.364271 -0.330816,-0.63093 l 5.417366,-7.81783 c 0.142934,-0.206224 0.437859,-0.232803 0.615365,-0.05546 z"
     id="path3-1"
     style="display:inline;fill:none;stroke:#ffffff;stroke-width:1;stroke-linecap:round;stroke-linejoin:round" /><path
     class="b"
     d="M 32.313419,5.5000009 H 15.686581 c -1.266563,0 -2.293356,1.0259056 -2.293356,2.2913755 V 24.403847 c 0,1.265469 1.026793,2.291377 2.293356,2.291377 h 16.626838 c 1.266564,0 2.293357,-1.025908 2.293357,-2.291377 V 7.7913764 c 0,-1.2654699 -1.026793,-2.2913755 -2.293357,-2.2913755 z"
     id="path4"
     style="fill:none;stroke:#ffffff;stroke-width:1;stroke-linecap:round;stroke-linejoin:round" /><path
     class="r"
     d="M 7.4096797,41.338989 C 8.0600029,42.184913 8.875479,42.5 10.010006,42.500001 l 1.57009,-10e-7 c 1.461147,0 2.64565,-1.18347 2.64565,-2.643356 v -0.01137 c 0,-1.459885 -1.184502,-2.643354 -2.645649,-2.643354 H 9.8481543 c -1.4627225,0 -2.6484868,-1.184747 -2.6484868,-2.646207 v -5e-6 c 0,-1.464608 1.1883232,-2.651909 2.6542011,-2.651909 h 1.5615274 c 1.134527,0 1.950002,0.315088 2.600324,1.161009"
     id="path1"
     style="stroke-width:1" /><polyline
     class="r"
     points="302.48380544 40.65004656 299.83380917 48.65004656 297.18380544 40.65004656"
     id="polyline2"
     transform="matrix(1.3256754,0,0,1.3245301,-373.48234,-21.938312)"
     style="stroke-width:1" /><path
     class="r"
     d="m 40.800334,35.413777 c 0,-1.938521 -1.572847,-3.510002 -3.513041,-3.510002 h -1.3e-5 c -1.940193,0 -3.51304,1.571481 -3.51304,3.510002 v 3.57622 c 0,1.93852 1.572847,3.510004 3.51304,3.510004 h 1.3e-5 c 1.940194,0 3.513041,-1.571484 3.513041,-3.510004 h -3.513041"
     id="path3"
     style="stroke-width:1" /></svg>
