<?xml version="1.0" encoding="UTF-8" standalone="no"?>
<svg
   viewBox="0 0 48 48"
   version="1.1"
   id="svg1"
   sodipodi:docname="swb_easygo.svg"
   inkscape:version="1.3.2 (091e20ef0f, 2023-11-25, custom)"
   xmlns:inkscape="http://www.inkscape.org/namespaces/inkscape"
   xmlns:sodipodi="http://sodipodi.sourceforge.net/DTD/sodipodi-0.dtd"
   xmlns="http://www.w3.org/2000/svg"
   xmlns:svg="http://www.w3.org/2000/svg">
  <sodipodi:namedview
     id="namedview1"
     pagecolor="#000000"
     bordercolor="#000000"
     borderopacity="0.25"
     inkscape:showpageshadow="2"
     inkscape:pageopacity="0.0"
     inkscape:pagecheckerboard="0"
     inkscape:deskcolor="#d1d1d1"
     inkscape:zoom="12.006084"
     inkscape:cx="31.567328"
     inkscape:cy="21.614041"
     inkscape:window-width="1920"
     inkscape:window-height="1015"
     inkscape:window-x="0"
     inkscape:window-y="0"
     inkscape:window-maximized="1"
     inkscape:current-layer="svg1" />
  <defs
     id="defs1">
    <style
       id="style1">.a{fill:none;stroke:#fff;stroke-linecap:round;stroke-linejoin:round;}</style>
  </defs>
  <circle
     style="fill:none;stroke:#ffffff;stroke-width:1.33333;stroke-linecap:round;stroke-linejoin:round"
     id="path2"
     cx="24"
     cy="24"
     r="18.333336" />
  <circle
     style="fill:none;stroke:#ffffff;stroke-width:1.33333;stroke-linecap:round;stroke-linejoin:round"
     id="circle2"
     cx="24"
     cy="31.352373"
     r="10.980964" />
  <path
     id="path481"
     style="fill:none;stroke:#ffffff;stroke-linecap:round;stroke-linejoin:round"
     class="t"
     d="m 22.915168,30.002373 c 0,-1.4636 -1.1864,-2.65 -2.65,-2.65 v 0 c -1.4636,0 -2.65,1.1864 -2.65,2.65 v 2.7 c 0,1.4636 1.1864,2.65 2.65,2.65 v 0 c 1.4636,0 2.65,-1.1864 2.65,-2.65 h -2.65 m 7.469664,-5.35 c 1.4681,0 2.65,1.1819 2.65,2.65 v 2.7 c 0,1.4681 -1.1819,2.65 -2.65,2.65 -1.4681,0 -2.65,-1.1819 -2.65,-2.65 v -2.7 c 0,-1.4681 1.1819,-2.65 2.65,-2.65 z" />
  <path
     id="path414"
     style="fill:none;stroke:#ffffff;stroke-linecap:round;stroke-linejoin:round"
     class="t"
     d="m 17.320463,16.544271 c -0.3445,0.6029 -0.993701,1.0093 -1.7378,1.0093 v 0 c -1.1046,0 -2,-0.8954 -2,-2 v -1.3 c 0,-1.1046 0.8954,-2 2,-2 v 0 c 1.1046,0 2,0.8954 2,2 v 0.65 c 0,0 -4,0 -4,0 m 9.611557,2.650001 v -5.300003 m 0,3.300002 c 0,1.1046 -0.895399,2 -2,2 v 0 c -1.1046,0 -2,-0.8954 -2,-2 v -1.3 c 0,-1.1046 0.8954,-2 2,-2 v 0 c 1.104601,0 2,0.8954 2,2 m 1.966659,2.8528 c 0.365201,0.3066 0.7594,0.4472 1.6449,0.4472 h 0.4487 c 0.7302,0 1.3221,-0.5932 1.3221,-1.325 v 0 c 0,-0.7318 -0.5919,-1.325 -1.3221,-1.325 h -0.8974 c -0.7302,0 -1.3221,-0.5932 -1.3221,-1.325 v 0 c 0,-0.7318 0.5919,-1.325 1.3221,-1.325 h 0.4487 c 0.8854,0 1.2797,0.1405 1.6449,0.4472 m 5.966658,-0.4472 v 3.3 c 0,1.1046 -0.8954,2 -2,2 v 0 c -1.1046,0 -2,-0.8954 -2,-2 v -3.3 m 4,3.3 v 2.7 c 0,1.1046 -0.8954,2 -2,2 v 0 c -0.5523,0 -1.0523,-0.2238 -1.4142,-0.5858" />
</svg>
