<svg xmlns="http://www.w3.org/2000/svg" id="b" viewBox="0 0 48 48"><defs><style>.p{fill:none;stroke:#fff;stroke-linecap:round;stroke-linejoin:round}</style></defs><g id="c"><circle id="d" cx="24" cy="24" r="21.5" class="p"/><circle id="e" cx="23.795" cy="23.729" r="5.09" class="p"/><g id="f"><path id="g" d="M11.135 21.008a13.087 13.087 0 0 1 10.086-9.767" class="p"/><path id="h" d="M7.152 19.911A17.12 17.12 0 0 1 19.448 7.368" class="p"/></g><g id="i"><path id="j" d="M36.828 27.286a13.087 13.087 0 0 1-10.087 9.767" class="p"/><path id="k" d="M40.81 28.383a17.12 17.12 0 0 1-12.296 12.544" class="p"/></g><ellipse id="l" cx="8.931" cy="42.848" class="p" rx="3.338" ry="2.115"/><path id="m" d="M12.261 42.765V28.653" class="p"/><path id="n" d="M16.26 31.934a3.553 3.553 0 0 1-3.952-3.205" class="p"/><path id="o" d="M41.245 11.17H32.52l-2.512 2.512" class="p"/></g></svg>
