<svg xmlns="http://www.w3.org/2000/svg" xml:space="preserve" id="svg1" version="1.1" viewBox="0 0 48 48"><defs id="defs1"><style id="style1">.a{fill:none;stroke:#fff;stroke-linecap:round;stroke-linejoin:round}</style></defs><path id="path6" d="M33.458 26.598h-6.553c-.264 0-.522-.212-.476-.466l.781-4.345c.046-.253.213-.465.476-.465h6.517c1.273 0 1.329-1.503.297-1.503h-8.164c-.326 0-.644-.268-.588-.59l.965-5.504c.056-.322.262-.59.587-.59v0h15.607c.325 0 .644.268.587.59l-3.64 20.47c-.057.322-.263.59-.588.59H23.659c-.325 0-.643-.268-.587-.59l.965-5.505c.056-.322.262-.59.587-.59h8.463c2.015 0 2.015-1.502.37-1.502zM6.059 13.135c-.325 0-.53.267-.587.589l-.966 5.505c-.057.322.262.59.587.59h6.15L8.788 34.186c-.055.322.154.68.48.68l5.57-.024c.326-.001.622-.159.677-.48L18 19.818h5.05c.326 0 .532-.268.588-.59l.964-5.505c.056-.322-.262-.59-.587-.59z" style="fill:none;stroke:#fff;stroke-width:1;stroke-linecap:round;stroke-linejoin:round;stroke-opacity:1"/></svg>