<svg version="1.2" xmlns="http://www.w3.org/2000/svg" viewBox="0 0 384 384" width="48" height="48"><style>.a{stroke:#000;stroke-miterlimit:10;stroke-width:2}.b{fill:#fff}</style><path class="a" d="m398-8v404h-414v-404z"/><path class="b" d="m127.5 285h-14.3v-125.4h-57.2v-14.6h128.7v14.6h-57.2zm145.9 2.9h-17.7q-16.8 0-27.1-1.7-10.2-1.9-15.7-6.2-5.3-4.4-7.3-12.2-1.9-7.7-1.9-19.6h14.3q0 8.7 1 13.7 1.2 5 4.9 7.3 3.8 2.3 11.5 2.9 7.8 0.7 21 0.7h16.3q13.3 0 21.3-0.9 8-1 12.1-3.6 4.1-2.6 5.4-7.9 1.5-5.3 1.5-14.1v-31q-6.8 9.6-24.7 9.6h-39.3q-15.6 0-25-2.1-9.4-2.2-14.2-6.8-4.8-4.8-6.4-12.2-1.6-7.6-1.6-18.3 0-12.4 1.9-20.6 1.9-8.4 7.4-13.4 5.4-5.1 15.7-7.2 10.3-2.2 27-2.2h21.5q16.7 0 27 2.2 10.3 2.1 15.7 7.2 5.5 5 7.3 13.4 2 8.2 2 20.6v60.8q0 12-2.3 20-2.1 8-7.9 12.8-5.8 4.7-16.4 6.8-10.5 2-27.3 2zm39.6-102.4q0-9.2-1.2-14.7-1-5.6-4.7-8.5-3.8-3-11.5-4-7.7-1.1-21.1-1.1h-19.9q-13.4 0-21.1 1.1-7.8 1-11.5 4-3.7 2.9-4.8 8.5-1.1 5.5-1.1 14.7 0 8.1 1.1 13 1 4.9 4.7 7.5 3.6 2.5 11.3 3.4 7.7 0.8 21 0.8h20.7q13.3 0 21-0.8 7.7-0.9 11.3-3.4 3.7-2.6 4.7-7.5 1.1-4.9 1.1-13z"/><path class="b" d="m109 93.9h-10.8v28.1h-4.3v-28.1h-10.9v-3.5h26zm6.2 15.4v12.7h-4v-18.6q0-1.3-0.1-2.7 0-1.5 0-3h3.8q0 1 0 1.9 0.1 0.8 0.1 1.4 0 0.6 0 1.1 0.1 0.4 0.1 0.6 0.7-2.2 1.5-3.5 0.8-1.1 1.8-1.5 1-0.5 2.5-0.5 0.8 0 1.7 0.3v3.7q-0.8-0.2-2.2-0.2-2.5 0-3.8 2.1-1.4 2.2-1.4 6.2zm18.1 13.1q-3.7 0-5.5-1.9-1.8-1.9-1.8-5.3 0-3.8 2.4-5.8 2.5-2 8-2.1l5.5-0.1v-1.4q0-2.9-1.3-4.2-1.2-1.3-3.9-1.3-2.7 0-4 0.9-1.2 1-1.4 3l-4.3-0.4q1.1-6.6 9.8-6.6 4.6 0 6.9 2.2 2.3 2 2.3 6v10.5q0 1.8 0.5 2.7 0.4 0.9 1.8 0.9 0.6 0 1.3-0.2v2.6q-0.8 0.1-1.6 0.2-0.8 0.1-1.5 0.1-2.3 0-3.3-1.1-1-1.2-1.2-3.8h-0.1q-1.5 2.8-3.6 4-2.1 1.1-5 1.1zm8.6-10.4v-2l-4.4 0.1q-2.9 0-4.3 0.6-1.5 0.5-2.3 1.6-0.8 1.2-0.8 3 0 2 1.1 3 1 1.1 3 1.1 2.3 0 4-1 1.7-1 2.7-2.8 1-1.7 1-3.6zm29.7 10h-3.8q-0.1-0.3-0.2-0.9 0-0.7 0-1.6-0.1-0.8-0.1-1.4h-0.1q-1.1 2.3-2.9 3.3-1.9 1-4.6 1-4.6 0-6.8-3.1-2.2-3.1-2.2-9.3 0-6.4 2.3-9.6 2.2-3.2 6.7-3.2 2.7 0 4.6 1.1 1.8 1 2.9 3.2h0.1l-0.1-2.8v-10h4.1v28.3q0 1.9 0 3.2 0.1 1.2 0.1 1.8zm-16.4-12.2q0 5.1 1.3 7.3 1.4 2.2 4.4 2.2 3.4 0 5-2.4 1.5-2.3 1.5-7.3 0-4.9-1.5-7.1-1.6-2.3-5-2.3-3 0-4.4 2.3-1.3 2.2-1.3 7.3zm22.9-21.1h4v3.8h-4zm0 9.1h4v24.3h-4zm19.3 21.1v3q-1.9 0.5-4 0.5-2.5 0-3.7-1.3-1.2-1.4-1.2-4.2v-16.2h-2.8v-2.9h3l1.2-5.5h2.6v5.5h4.5v2.9h-4.5v15.3q0 1.8 0.6 2.5 0.6 0.7 2 0.7 0.8 0 2.3-0.3zm3.7-30.2h4v3.9h-4zm0 9h4v24.3h-4zm30.6 12.2q0 6.3-2.9 9.5-2.8 3.1-8.1 3.1-5.3 0-8.1-3.3-2.7-3.2-2.7-9.3 0-6.3 2.7-9.5 2.8-3.1 8.2-3.1 5.6 0 8.2 3.1 2.7 3 2.7 9.5zm-4.3 0q0-5.1-1.5-7.3-1.5-2.3-5-2.3-3.6 0-5.2 2.3-1.5 2.3-1.5 7.3 0 4.8 1.5 7.2 1.6 2.4 4.9 2.4 3.7 0 5.2-2.3 1.6-2.4 1.6-7.3zm13.8-2v14.1h-4v-19.1q0-2.1-0.1-3.4 0-1.3 0-1.8h3.8q0 0.5 0 1.1 0.1 0.7 0.1 1.4 0 0.8 0.1 1.7 1.4-2.5 3.2-3.6 1.9-1 4.6-1 4 0 5.8 2 1.9 2.1 1.9 6.5v16.2h-4.1v-15.4q0-3.5-1.1-4.8-1.1-1.4-3.9-1.4-2.9 0-4.6 2-1.7 2-1.7 5.5zm27.1 14.6q-3.7 0-5.5-2-1.8-1.9-1.8-5.3 0-3.7 2.4-5.8 2.5-2 8-2.1l5.5-0.1v-1.3q0-3-1.3-4.3-1.2-1.2-3.9-1.2-2.7 0-4 0.9-1.2 0.9-1.4 2.9l-4.3-0.4q1.1-6.5 9.8-6.5 4.6 0 6.9 2.1 2.3 2.1 2.3 6.1v10.4q0 1.8 0.5 2.7 0.4 0.9 1.8 0.9 0.6 0 1.3-0.1v2.5q-0.8 0.2-1.6 0.3-0.8 0.1-1.5 0.1-2.3 0-3.3-1.2-1-1.2-1.2-3.7h-0.1q-1.5 2.8-3.6 3.9-2.1 1.2-5 1.2zm8.6-10.5v-2l-4.4 0.1q-2.9 0-4.3 0.6-1.5 0.5-2.3 1.7-0.8 1.1-0.8 2.9 0 2 1.1 3.1 1 1 3 1 2.3 0 4-1 1.7-1 2.7-2.7 1-1.8 1-3.7zm11.2-23.3h4v33.3h-4z"/></svg>