<?xml version="1.0" encoding="UTF-8" standalone="no"?>
<svg
   viewBox="0 0 48 48"
   version="1.1"
   id="svg1"
   xmlns="http://www.w3.org/2000/svg"
   xmlns:svg="http://www.w3.org/2000/svg">
  <defs
     id="defs1">
    <style
       id="style1">.a{fill:none;stroke:#fff;stroke-linecap:round;stroke-linejoin:round;}</style>
  </defs>
  <path
     class="a"
     d="M40.5,5.5H7.5a2,2,0,0,0-2,2v33a2,2,0,0,0,2,2h33a2,2,0,0,0,2-2V7.5A2,2,0,0,0,40.5,5.5Z"
     id="path1" />
  <g
     id="g1"
     transform="matrix(1.3175989,0,0,1.3175989,-6.0818373,-5.5800878)"
     style="stroke-width:0.758955">
    <path
       class="t"
       d="m 13.54999,19.5 v 5.95 c 0,0.5523 0.4477,1 1,1 h 0.3"
       id="path395"
       style="fill:none;stroke:#ffffff;stroke-width:0.758955;stroke-linecap:round;stroke-linejoin:round" />
    <line
       class="t"
       x1="12.500004"
       y1="21.149998"
       x2="14.599979"
       y2="21.149998"
       id="line395"
       style="fill:none;stroke:#ffffff;stroke-width:0.758955;stroke-linecap:round;stroke-linejoin:round" />
  </g>
  <g
     id="g3"
     transform="matrix(1.3175989,0,0,1.3175989,-4.8795312,-6.0412515)"
     style="stroke-width:0.758955">
    <path
       class="t"
       d="m 19.5,24.800002 c 0,1.1046 -0.8954,2 -2,2 v 0 c -1.1046,0 -2,-0.8954 -2,-2 v -1.3 c 0,-1.1046 0.8954,-2 2,-2 v 0 c 1.1046,0 2,0.8954 2,2"
       id="path405"
       style="fill:none;stroke:#ffffff;stroke-width:0.758955;stroke-linecap:round;stroke-linejoin:round" />
    <line
       class="t"
       x1="19.500002"
       y1="26.800003"
       x2="19.500002"
       y2="21.5"
       id="line405"
       style="fill:none;stroke:#ffffff;stroke-width:0.758955;stroke-linecap:round;stroke-linejoin:round" />
  </g>
  <g
     id="g2"
     transform="matrix(1.3175989,0,0,1.3175989,-8.0911644,-8.2811647)"
     style="stroke-width:0.758955">
    <path
       class="t"
       d="m 27.5,25.199998 c 0,-1.1046 -0.8954,-2 -2,-2 v 0 c -1.1046,0 -2,0.8954 -2,2 v 1.3 c 0,1.1046 0.8954,2 2,2 v 0 c 1.1046,0 2,-0.8954 2,-2"
       id="path425"
       style="fill:none;stroke:#ffffff;stroke-width:0.758955;stroke-linecap:round;stroke-linejoin:round" />
    <line
       class="t"
       x1="27.500002"
       y1="28.5"
       x2="27.500002"
       y2="20.5"
       id="line425"
       style="fill:none;stroke:#ffffff;stroke-width:0.758955;stroke-linecap:round;stroke-linejoin:round" />
  </g>
  <rect
     class="t"
     x="30.201551"
     y="22.287117"
     width="5.2703938"
     height="6.983273"
     rx="2.6351969"
     ry="2.6351969"
     id="rect373"
     style="fill:none;stroke:#ffffff;stroke-width:0.999999;stroke-linecap:round;stroke-linejoin:round" />
  <circle
     class="t"
     cx="37.425999"
     cy="20.837759"
     r="1.1858377"
     id="circle414"
     style="fill:none;stroke:#ffffff;stroke-width:0.999999;stroke-linecap:round;stroke-linejoin:round" />
</svg>
