<?xml version="1.0" encoding="UTF-8"?><svg id="a" xmlns="http://www.w3.org/2000/svg" viewBox="0 0 48 48"><defs><style>.d{fill:none;stroke:#fff;stroke-linecap:round;stroke-linejoin:round;}</style></defs><circle class="d" cx="14.75" cy="14.75" r="9.25"/><path class="d" d="m28.625 6.7393a9.25 9.25 0 0 1 12.202 2.7052 9.25 9.25 0 0 1-1.6314 12.391 9.25 9.25 0 0 1-12.487-0.54517"/><path class="d" d="m24 14.75a9.25 9.25 0 0 1 2.1641-5.9458"/><path class="d" d="m14.75 24a9.25 9.25 0 0 1 8.5459 5.7102 9.25 9.25 0 0 1-2.0051 10.081 9.25 9.25 0 0 1-10.081 2.0051 9.25 9.25 0 0 1-5.7102-8.5459"/></svg>
