<?xml version="1.0" encoding="UTF-8" standalone="no"?>
<svg
   viewBox="0 0 48 48"
   version="1.1"
   id="svg1"
   sodipodi:docname="talking_tom_gold_run.svg"
   inkscape:version="1.2.2 (b0a8486541, 2022-12-01)"
   xml:space="preserve"
   xmlns:inkscape="http://www.inkscape.org/namespaces/inkscape"
   xmlns:sodipodi="http://sodipodi.sourceforge.net/DTD/sodipodi-0.dtd"
   xmlns="http://www.w3.org/2000/svg"
   xmlns:svg="http://www.w3.org/2000/svg"><sodipodi:namedview
     id="namedview1"
     pagecolor="#505050"
     bordercolor="#eeeeee"
     borderopacity="1"
     inkscape:showpageshadow="0"
     inkscape:pageopacity="0"
     inkscape:pagecheckerboard="0"
     inkscape:deskcolor="#505050"
     inkscape:zoom="6.2976698"
     inkscape:cx="4.6048778"
     inkscape:cy="57.005212"
     inkscape:window-width="1918"
     inkscape:window-height="1053"
     inkscape:window-x="0"
     inkscape:window-y="0"
     inkscape:window-maximized="1"
     inkscape:current-layer="svg1"
     showgrid="false" /><defs
     id="defs1"><style
       id="style1">.a { fill:none;stroke:#fff;stroke-linecap:round;stroke-linejoin:round; }
</style></defs><g
     id="g2728"><path
       style="fill:none;stroke:#ffffff;stroke-width:1;stroke-linecap:round;stroke-linejoin:round;stroke-opacity:1;stop-color:#000000"
       d="m 9.5,5.5 h 29 c 2.216,0 4,1.784 4,4 v 29 c 0,2.216 -1.784,4 -4,4 h -29 c -2.216,0 -4,-1.784 -4,-4 v -29 c 0,-2.216 1.784,-4 4,-4 z"
       id="path2506" /><g
       id="g2578"><path
         style="fill:none;stroke:#ffffff;stroke-width:1;stroke-linecap:round;stroke-linejoin:round;stroke-opacity:1;stop-color:#000000"
         d="M 40.417016,20.856373 36.187963,37.354626 26.568084,36.696492"
         id="path2504" /><path
         style="fill:none;stroke:#ffffff;stroke-width:1;stroke-linecap:round;stroke-linejoin:round;stroke-opacity:1;stop-color:#000000"
         d="m 42.255556,22.17647 -1.83854,-1.320097 -7.642019,-0.288335 c -1.63246,-0.06159 -2.184685,1.061672 -2.442212,1.962461 l -4.004944,14.008738 0.183299,4.335845 11.88487,0.858353 1.298135,-5.683397"
         id="path2502" /><path
         style="fill:none;stroke:#ffffff;stroke-width:1;stroke-linecap:round;stroke-linejoin:round;stroke-opacity:1;stop-color:#000000"
         d="m 41.395917,28.599468 0.85959,-3.763386"
         id="path2500" /><path
         style="fill:none;stroke:#ffffff;stroke-width:1;stroke-linecap:round;stroke-linejoin:round;stroke-opacity:1;stop-color:#000000"
         d="m 36.187963,37.354626 2.208047,4.378809"
         id="path2498" /></g><g
       id="g2572"><path
         style="fill:none;stroke:#ffffff;stroke-width:1;stroke-linecap:round;stroke-linejoin:round;stroke-opacity:1;stop-color:#000000"
         d="m 42.258566,28.991254 c -0.07627,-0.120658 -0.170498,-0.237091 -0.283957,-0.346721 v -2e-6 c -0.943035,0.108352 -1.533842,0.61449 -1.43164,1.515625 0.05076,0.447581 0.209865,0.775519 0.617187,0.953125 -0.550811,0.102448 -0.907258,0.716353 -0.841797,1.267578 0.07952,0.669605 0.306832,1.118562 0.751953,1.197266 -1.803592,0.155535 -2.101289,1.998483 -0.83789,2.679687 1.166656,-0.689836 1.764527,-1.438722 1.351562,-2.564453 l -0.300781,-0.105468 c 0.08688,-0.0059 0.178819,-0.02137 0.279297,-0.05078 0.320452,-0.0938 0.553476,-0.311187 0.694192,-0.579728"
         id="path2496" /><path
         style="fill:none;stroke:#ffffff;stroke-width:1;stroke-linecap:round;stroke-linejoin:round;stroke-opacity:1;stop-color:#000000"
         d="m 42.257454,31.660782 c -0.106669,-0.193301 -0.267998,-0.355677 -0.48597,-0.457655 0.197905,-0.116683 0.363028,-0.278467 0.487037,-0.468598"
         id="path2494" /></g><g
       id="g2658"><path
         style="fill:none;stroke:#ffffff;stroke-width:1;stroke-linecap:round;stroke-linejoin:round;stroke-opacity:1;stop-color:#000000"
         d="M 32.704183,20.312418 C 32.558659,19.030449 31.477977,17.515917 32.282187,16.647596 35.249615,13.44361 33.752964,7.9505969 32.210487,6.4701773 31.692288,5.9728248 30.764496,6.0963358 29.71448,6.3812823 L 26.138424,7.3517311 C 22.919189,8.2253468 22.778877,6.2722823 16.019204,6.844924 9.9558475,7.3585776 8.7738362,10.042649 5.7505768,10.200705"
         id="path2492" /><path
         style="fill:none;stroke:#ffffff;stroke-width:1;stroke-linecap:round;stroke-linejoin:round;stroke-opacity:1;stop-color:#000000"
         d="M 26.83935,34.379341 C 21.841005,37.064789 16.979179,37.075408 13.213758,35.970052 9.7866664,34.964014 7.140241,33.858043 5.7391443,32.53717"
         id="path2490" /><path
         style="fill:none;stroke:#ffffff;stroke-width:1;stroke-linecap:round;stroke-linejoin:round;stroke-opacity:1;stop-color:#000000"
         d="M 31.973469,16.693963 C 30.370826,15.154072 29.089707,12.739965 28.171193,11.189129 27.726042,10.437528 27.832089,9.1017862 28.543679,8.5951284 29.366201,8.0094864 30.7907,6.9745587 31.943293,6.3696973"
         id="path2488" /><path
         style="fill:none;stroke:#ffffff;stroke-width:1;stroke-linecap:round;stroke-linejoin:round;stroke-opacity:1;stop-color:#000000"
         d="m 5.7436482,35.680864 6.0593578,2.196426 c -1.73181,1.258731 -2.5506554,2.684166 -3.7090119,4.039384"
         id="path2478" /><path
         style="fill:none;stroke:#ffffff;stroke-width:1;stroke-linecap:round;stroke-linejoin:round;stroke-opacity:1;stop-color:#000000"
         d="m 14.842519,36.520391 c -0.448928,2.388327 1.649016,4.344372 3.265264,5.652815"
         id="path2474"
         sodipodi:nodetypes="cc" /><path
         style="fill:none;stroke:#ffffff;stroke-width:1;stroke-linecap:round;stroke-linejoin:round;stroke-opacity:1;stop-color:#000000"
         d="m 23.561392,35.889039 c 0.318157,1.001699 0.626977,2.143546 0.541966,3.056087 L 21.96672,38.695417 c -0.825556,-0.09648 -0.847359,-0.297481 -1.210544,-0.447067 -0.484011,0.384278 -1.193525,0.497439 -2.066809,0.554766 -1.061598,0.06969 -1.025193,0.532292 -1.494541,0.807289 -0.886479,-0.891468 -1.071111,-1.831904 -1.152811,-2.779521"
         id="path2470"
         sodipodi:nodetypes="ccscscc" /><path
         style="fill:none;stroke:#ffffff;stroke-width:1;stroke-linecap:round;stroke-linejoin:round;stroke-opacity:1;stop-color:#000000"
         d="m 23.51234,42.055424 c 1.421738,-2.252898 1.707256,-4.895708 1.32154,-5.429275 0.0097,-0.406165 -0.200943,-0.637753 -0.366717,-0.902836"
         id="path2468"
         sodipodi:nodetypes="ccc" /><path
         style="fill:none;stroke:#ffffff;stroke-width:1;stroke-linecap:round;stroke-linejoin:round;stroke-opacity:1;stop-color:#000000"
         d="m 14.744051,38.401677 c -0.752389,0.998808 -1.419597,2.397979 -1.897091,3.852721"
         id="path2462" /></g><g
       id="g2568"><path
         style="fill:none;stroke:#ffffff;stroke-width:1;stroke-linecap:round;stroke-linejoin:round;stroke-opacity:1;stop-color:#000000"
         d="m 18.334422,22.386579 c -1.117292,0.182788 -2.640085,0.349374 -2.320998,1.457553 0.168228,0.584294 2.008132,0.83944 3.218371,0.581495 1.089394,-0.232189 1.846258,-0.792515 2.165048,-1.650282 0.22285,-0.599621 -1.360341,-0.667225 -3.062421,-0.388766 v 0"
         id="path2486" /><g
         id="g2553"><path
           style="fill:none;stroke:#ffffff;stroke-width:1;stroke-linecap:round;stroke-linejoin:round;stroke-opacity:1;stop-color:#000000"
           d="m 19.049695,26.007024 c -3.850357,0.622041 -6.437747,0.479881 -7.163883,0.367128 -1.500605,-0.233011 -1.920423,0.664184 -1.260343,1.80871 1.596725,2.768593 4.27944,5.400004 9.585277,4.678542 4.152206,-0.564596 6.472634,-3.664047 7.279404,-6.319905 0.530398,-1.746053 -0.02983,-3.141998 -2.211932,-2.252492 -0.974465,0.397228 -2.378166,1.095976 -6.228523,1.718017 v 0"
           id="path2484" /><path
           style="fill:none;stroke:#ffffff;stroke-width:1;stroke-linecap:round;stroke-linejoin:round;stroke-opacity:1;stop-color:#000000"
           d="m 12.189474,26.465903 c 0.577099,0.298818 1.219082,0.518128 1.900731,0.668708 0.01571,1.031546 1.088995,1.176442 1.462302,0.217319 2.443958,0.204774 5.141026,-0.287853 7.123234,-1.064091 0.925585,0.902513 1.365285,-0.02235 1.478948,-0.711628 0.633633,-0.380231 1.092289,-0.790162 1.303668,-1.198885"
           id="path2482" /><path
           style="fill:none;stroke:#ffffff;stroke-width:1;stroke-linecap:round;stroke-linejoin:round;stroke-opacity:1;stop-color:#000000"
           d="m 14.606405,32.033339 c -0.527096,-0.540941 -0.341429,-1.331229 0.147421,-1.393989 0.33863,-0.04348 0.542537,0.04901 0.659493,0.302815 0.531741,1.153914 1.868108,1.656544 4.51689,1.135305 2.239378,-0.440676 4.106232,-1.166549 4.148461,-2.483846 0.01815,-0.56605 0.828331,-0.680933 1.034195,-0.505587 0.224983,0.19163 0.433327,0.755537 0.179843,1.114099"
           id="path2480" /></g><path
         style="fill:none;stroke:#ffffff;stroke-width:1;stroke-linecap:round;stroke-linejoin:round;stroke-opacity:1;stop-color:#000000"
         d="M 12.232836,9.4787599 C 10.148545,9.4693595 7.6724876,11.150342 6.8929464,13.25519"
         id="path2458" /><path
         style="fill:none;stroke:#ffffff;stroke-width:1;stroke-linecap:round;stroke-linejoin:round;stroke-opacity:1;stop-color:#000000"
         d="m 20.56737,8.613728 c 2.090698,-0.6107072 4.285088,0.3670814 5.672882,2.248943"
         id="path2456" /><g
         id="g2548"><path
           style="fill:none;stroke:#ffffff;stroke-width:1;stroke-linecap:round;stroke-linejoin:round;stroke-opacity:1;stop-color:#000000"
           d="m 7.2375156,23.663521 c 2.2240964,-1.477182 4.8127784,-1.725177 6.9527054,-0.939817 0.784571,0.28794 1.655897,-5.227437 -1.777268,-6.698498 -3.8504098,-1.649843 -7.5052126,3.284682 -5.1754374,7.638315 v 0"
           id="path2454" /><path
           style="fill:none;stroke:#ffffff;stroke-width:1;stroke-linecap:round;stroke-linejoin:round;stroke-opacity:1;stop-color:#000000"
           d="M 8.5124981,22.850119 C 8.1994705,21.671463 8.2860662,20.638411 8.6303346,19.761022 8.6899555,19.609074 8.9407283,19.119512 9.0391829,18.970565 10.101532,17.363396 12.241511,16.836428 14.275796,17.94079"
           id="path2450"
           sodipodi:nodetypes="cssc" /></g><g
         id="g2544"><path
           style="fill:none;stroke:#ffffff;stroke-width:1;stroke-linecap:round;stroke-linejoin:round;stroke-opacity:1;stop-color:#000000"
           d="m 20.975179,18.994879 c 0.165373,1.312358 1.276061,2.788012 1.874241,2.52312 2.119433,-0.938548 3.847428,-1.636629 6.054868,-0.896771 0.336293,0.112714 0.587897,-4.21e-4 0.618409,-0.426374 0.234613,-3.275293 -2.406678,-6.419242 -4.838991,-6.389411 -2.613156,0.03205 -4.066728,2.346847 -3.708527,5.189436 v 0"
           id="path2452" /><path
           style="fill:none;stroke:#ffffff;stroke-width:1;stroke-linecap:round;stroke-linejoin:round;stroke-opacity:1;stop-color:#000000"
           d="m 21.003253,17.685341 c 1.480334,-3.935495 7.489252,-1.680883 7.009395,2.630546"
           id="path2281"
           sodipodi:nodetypes="cc" /></g></g></g><path
     style="fill:none;stroke:#ffffff;stroke-linecap:round;stroke-linejoin:round;stop-color:#000000"
     d="m 25.479985,16.121244 c -0.147759,0.04315 -0.953775,0.857581 -0.953775,0.857581"
     id="path23419"
     sodipodi:nodetypes="cc" /><path
     style="fill:none;stroke:#ffffff;stroke-linecap:round;stroke-linejoin:round;stop-color:#000000"
     d="m 13.449515,17.724471 c -0.147759,0.04315 -1.161156,0.983511 -1.161156,0.983511"
     id="path23421" /></svg>
