<svg xmlns="http://www.w3.org/2000/svg" xml:space="preserve" width="48" height="48" viewBox="0 0 12.7 12.7"><path fill="none" stroke="#fff" stroke-linecap="round" stroke-linejoin="round" stroke-width=".265" d="m10.345 10.981.533-1.588.532 1.588m-.176-.526h-.713m-1.568.352c.099.127.222.174.394.174h.239a.399.399 0 0 0 .4-.396v-.002a.399.399 0 0 0-.4-.396h-.263a.4.4 0 0 1-.402-.397v0a.4.4 0 0 1 .403-.397h.237c.172 0 .295.047.394.174m2.084.62a1.852 1.852 0 0 1-1.852 1.852 1.852 1.852 0 0 1-1.852-1.852 1.852 1.852 0 0 1 1.852-1.852 1.852 1.852 0 0 1 1.852 1.852zM6.984 2.725c-.375-.12-.985-.2-1.112.473-.072.38.312.604 1.35.429-1.048.302-2.416.754-1.733 1.938.456.79 1.438.494 1.97.292m1.604.461-2.68 2.055-2.68-2.055a.557.557 0 0 1-.219-.442V1.901a.445.445 0 0 1 .446-.445h4.906a.445.445 0 0 1 .445.445v3.975a.557.557 0 0 1-.218.442v0m.083-.021h.668c.061 0 .111.05.111.11v.669a.11.11 0 0 1-.111.111h-.668a.111.111 0 0 1-.112-.111v-.668c0-.062.05-.111.112-.111v0m-.77.547v.232a.111.111 0 0 1-.11.111h-.337m-3.093 0H4.5a.111.111 0 0 1-.111-.111v-.232m-1.437-.547h.668c.061 0 .11.05.11.11v.669a.11.11 0 0 1-.11.111h-.668a.111.111 0 0 1-.112-.111v-.668c0-.062.05-.111.112-.111v0m6.104 2.428a.111.111 0 0 1-.022-.066V7.99c0-.062.05-.111.112-.111h.668c.061 0 .111.05.111.11v.363M7.597 7.88h.668a.11.11 0 0 1 .111.11v.669a.11.11 0 0 1-.11.111h-.669a.111.111 0 0 1-.111-.111V7.99a.11.11 0 0 1 .111-.111v0m-.77.152v.627a.111.111 0 0 1-.11.111h-.668a.111.111 0 0 1-.112-.111v-.627M4.5 7.88h.668a.11.11 0 0 1 .111.11v.669a.11.11 0 0 1-.11.111H4.5a.111.111 0 0 1-.111-.111V7.99a.11.11 0 0 1 .111-.111v0m-1.548 0h.668c.061 0 .11.05.11.11v.669a.11.11 0 0 1-.11.111h-.668a.111.111 0 0 1-.112-.111V7.99c0-.062.05-.111.112-.111v0m5.394 2.463H3.842a.111.111 0 0 1-.111-.111v-.658a.11.11 0 0 1 .111-.111h4.643m-5-4.549H2.021a.55.55 0 0 0-.55.55v5.231a.55.55 0 0 0 .55.55h6.65m2.557-2.589V5.464a.55.55 0 0 0-.55-.55H9.281" class="t"/></svg>
