<svg xmlns="http://www.w3.org/2000/svg" xml:space="preserve" width="48" height="48" viewBox="0 0 12.7 12.7"><path fill="none" stroke="#fff" stroke-linecap="round" stroke-linejoin="round" stroke-width=".265" d="M10.577 9.393a.52.52 0 0 1 .516.526v.535a.52.52 0 0 1-.516.526.52.52 0 0 1-.516-.526V9.92a.52.52 0 0 1 .516-.526zm.516 1.587-.516-.52M9.405 9.394v1.587m2.633-.794a1.852 1.852 0 0 1-1.852 1.853 1.852 1.852 0 0 1-1.852-1.853 1.852 1.852 0 0 1 1.852-1.852 1.852 1.852 0 0 1 1.852 1.852zM6.983 2.724c-.375-.119-.985-.2-1.112.473-.072.381.312.605 1.35.43-1.048.301-2.416.754-1.733 1.938.456.79 1.438.493 1.97.292m1.604.46-2.68 2.056-2.68-2.055a.557.557 0 0 1-.219-.442V1.9a.445.445 0 0 1 .446-.445h4.906a.445.445 0 0 1 .445.445v3.976a.557.557 0 0 1-.218.441v0m.083-.02h.668a.11.11 0 0 1 .111.11v.668c0 .062-.05.112-.111.112h-.668a.111.111 0 0 1-.111-.112v-.668c0-.061.05-.11.11-.11v0m-.768.547v.231a.111.111 0 0 1-.112.112H7.93m-3.094 0H4.5a.111.111 0 0 1-.111-.112v-.231M2.95 6.296h.668c.061 0 .111.05.111.111v.668c0 .062-.05.112-.111.112H2.95a.111.111 0 0 1-.112-.112v-.668c0-.061.05-.11.112-.11v0m6.104 2.428a.111.111 0 0 1-.021-.067V7.99c0-.061.05-.11.11-.11h.669a.11.11 0 0 1 .111.11v.363m-2.328-.474h.668c.062 0 .112.05.112.111v.668c0 .062-.05.112-.112.112h-.668a.111.111 0 0 1-.111-.112V7.99c0-.061.05-.11.111-.11v0m-.769.151v.627a.111.111 0 0 1-.111.112h-.668a.111.111 0 0 1-.111-.112v-.627M4.499 7.88h.668c.062 0 .112.05.112.111v.668c0 .062-.05.112-.112.112H4.5a.111.111 0 0 1-.111-.112V7.99c0-.061.05-.11.111-.11v0m-1.548 0h.668a.11.11 0 0 1 .111.11v.668c0 .062-.05.112-.111.112h-.67a.111.111 0 0 1-.112-.112V7.99c0-.061.05-.11.112-.11v0m5.394 2.463H3.841a.111.111 0 0 1-.11-.112v-.657a.11.11 0 0 1 .11-.112h4.644M3.484 4.914H2.02a.55.55 0 0 0-.55.55v5.23a.55.55 0 0 0 .55.55h6.65m2.557-2.588V5.464a.55.55 0 0 0-.55-.55H9.28" class="t"/></svg>
