<?xml version="1.0" encoding="UTF-8"?>
<!-- Created with Inkscape (http://www.inkscape.org/) -->
<svg version="1.1" viewBox="0 0 48 48" xml:space="preserve" xmlns="http://www.w3.org/2000/svg"><defs><style>.a{fill:none;stroke:#fff;stroke-linecap:round;stroke-linejoin:round;}</style><style>
      .cls-1 {
        fill: none;
        stroke: #fff;
        stroke-linecap: round;
        stroke-linejoin: round;
      }
    </style></defs><g fill-opacity="0" stroke="#fff" stroke-linecap="round" stroke-linejoin="round"><g stroke-width="1.1449"><path transform="matrix(.87341 0 0 .87341 -46.986 3.7408)" d="m60.174 38.66c0.38103 0.84022 0.76206 1.6804 2.3448 2.2129 1.5828 0.53247 4.3672 0.75718 7.4204 0.06349 3.0532-0.69369 6.3749-2.3057 8.6078-3.8308 2.2329-1.525 3.3768-2.963 3.9902-5.271 0.61341-2.308 0.69631-5.4858-0.25708-8.3943-0.95339-2.9085-2.943-5.5475-4.6079-7.247-1.665-1.6995-3.0052-2.4594-4.0156-4.6661-1.0105-2.2067-1.6911-5.8599-2.3718-9.5132"/><path transform="matrix(.87341 0 0 .87341 -46.986 3.7408)" d="m60.021 21.43c2.2245-2.9292 4.4491-5.8584 5.3297-9.0944 0.88069-3.236 0.41755-6.7787-0.04559-10.322"/><path transform="matrix(.87341 0 0 .87341 -46.986 3.7408)" d="m60.228 14.332c0.86356-0.81865 1.7271-1.6373 2.085-3.588 0.35791-1.9507 0.21019-5.0334 0.06246-8.1161"/></g><g><rect transform="rotate(-13.187)" x="9.0408" y="30.775" width="5.8129" height="2.3473"/><circle cx="17.066" cy="34.817" r=".26202"/><circle cx="18.874" cy="34.991" r=".26202"/><circle cx="19.603" cy="33.19" r=".26202"/><circle cx="21.21" cy="33.049" r=".26202"/></g></g><g id="a" class="st0" transform="matrix(.87341 0 0 .87341 -164.49 99.01)">
</g><g id="b" transform="matrix(.87341 0 0 .87341 -164.49 99.01)">
	<g stroke-width="1.1449"><g transform="translate(1.4095 -1.9464)"><g transform="translate(-18.641 -143.15)">
		<path class="st5" d="m233.51 47.774c0.49057 0.63866 1.1057 0.87654 1.9615 0.87654h1.1844c1.1022 0 1.9957-0.8935 1.9957-1.9957v-0.0086c0-1.1022-0.89349-1.9957-1.9957-1.9957h-1.3065c-1.1034 0-1.9978-0.89447-1.9978-1.9978v-4e-6c0-1.1058 0.89639-2.0022 2.0022-2.0022h1.1779c0.85579 0 1.4709 0.23788 1.9615 0.87654" stroke-width="1.1449"/>
	</g><g transform="translate(168.76 -159.15)">
		
			<path class="st5" d="m58 62.65c0 1.1046-0.89543 2-2 2h-8e-6c-1.1046 0-2-0.89543-2-2v-1.3c0-1.1046 0.89543-2 2-2h8e-6c1.1046 0 2 0.89543 2 2" stroke-width="1.1449"/>
		
		<line class="st5" x1="58" x2="58" y1="64.65" y2="59.35"/>
	</g></g><g transform="translate(6.7788 5.3719)"><g transform="translate(-7.2318 -136.1)">
		<g stroke-width="1.1449">
			<path class="st5" d="m223.35 48.65v-8h2.619c1.4806 0 2.681 1.2029 2.681 2.6867 0 1.4838-1.2003 2.6867-2.681 2.6867h-2.619"/>
		
		
			
				<line class="st5" x1="225.97" x2="228.59" y1="46.024" y2="48.648" stroke-width="1.1449"/>
			
		</g>
	</g><path class="st5" d="m227.91-88.456c-0.34448 0.60291-0.99367 1.0093-1.7378 1.0093-1.1046 0-2-0.89543-2-2v-1.3c0-1.1046 0.89543-2 2-2s2 0.89543 2 2v0.65h-4"/></g><g transform="translate(2.4778 10.746)"><g transform="translate(170.17 -143.1)">
		
			<path class="st5" d="m58 62.65c0 1.1046-0.89543 2-2 2h-8e-6c-1.1046 0-2-0.89543-2-2v-1.3c0-1.1046 0.89543-2 2-2h8e-6c1.1046 0 2 0.89543 2 2" fill="none" stroke="#fff" stroke-linecap="round" stroke-linejoin="round" stroke-miterlimit="10" stroke-width="1.1449"/>
		
		<line class="st5" x1="58" x2="58" y1="64.65" y2="59.35" fill="none" stroke="#fff" stroke-linecap="round" stroke-linejoin="round" stroke-miterlimit="10"/>
	</g><path class="st5" d="m221.36-83.799c0-1.4636-1.1864-2.65-2.65-2.65-1.4636 0-2.65 1.1864-2.65 2.65v2.7c0 1.4636 1.1864 2.65 2.65 2.65s2.65-1.1864 2.65-2.65h-2.65"/></g></g>
	
</g><rect class="cls-1" x="5.5" y="5.5" width="37" height="37" rx="4" ry="4"/><style type="text/css">
	.st0{display:none;}
	.st1{display:inline;}
	.st5{fill:none;stroke:#FFFFFF;stroke-linecap:round;stroke-linejoin:round;stroke-miterlimit:10;}
	.st6{fill:#FFFFFF;}
</style></svg>
