<?xml version="1.0" encoding="UTF-8" standalone="no"?>
<svg
   viewBox="0 0 48 48"
   version="1.1"
   id="svg1"
   sodipodi:docname="taptap.svg"
   inkscape:version="1.2.2 (b0a8486541, 2022-12-01)"
   xml:space="preserve"
   xmlns:inkscape="http://www.inkscape.org/namespaces/inkscape"
   xmlns:sodipodi="http://sodipodi.sourceforge.net/DTD/sodipodi-0.dtd"
   xmlns="http://www.w3.org/2000/svg"
   xmlns:svg="http://www.w3.org/2000/svg"><sodipodi:namedview
     id="namedview1"
     pagecolor="#505050"
     bordercolor="#eeeeee"
     borderopacity="1"
     inkscape:showpageshadow="0"
     inkscape:pageopacity="0"
     inkscape:pagecheckerboard="0"
     inkscape:deskcolor="#505050"
     inkscape:zoom="25.190679"
     inkscape:cx="19.253153"
     inkscape:cy="29.614128"
     inkscape:window-width="1918"
     inkscape:window-height="1053"
     inkscape:window-x="0"
     inkscape:window-y="0"
     inkscape:window-maximized="1"
     inkscape:current-layer="svg1"
     showgrid="false" /><defs
     id="defs1"><style
       id="style1">.a { fill:none;stroke:#fff;stroke-linecap:round;stroke-linejoin:round; }
</style></defs><path
     id="path21689"
     style="fill:none;stroke:#ffffff;stroke-width:1;stroke-linecap:round;stroke-linejoin:round;stroke-opacity:1"
     d="m 34.818187,18.881419 c 0.30592,-0.352065 0.87106,-0.697838 1.300738,-0.901689 2.151242,-1.020608 4.972007,-0.410216 6.376192,1.553344 1.658407,2.319056 1.143187,5.717946 -0.769989,7.72999 -1.609589,1.692768 -3.975059,2.511072 -6.272816,2.57306 -0.01434,0.985562 0.07351,1.978007 -0.02476,2.957788 -0.07717,0.769449 -0.889452,1.138627 -1.606121,1.158898 -0.809169,0.02289 -1.618447,0.270617 -2.422769,0.196069 -0.618669,-0.05734 -0.822248,-0.748123 -0.813586,-1.318798 0.06314,-4.159744 -0.06382,-8.3212 -0.01139,-12.480839 0.01207,-0.957665 -0.349584,-1.211962 -0.706922,-1.330696 1.056557,-1.001615 2.879178,-1.169053 4.216617,-0.661152 0.245464,0.09322 0.545374,0.341675 0.734806,0.524025 z m -6.275155,1.035922 c 0.0074,2.520933 -0.01742,5.509605 0.01208,7.56299 0.01578,1.098117 0.416812,1.156012 0.725219,1.342275 -1.097929,0.93819 -2.800479,1.123578 -4.106674,0.694312 -0.345333,-0.11349 -0.551299,-0.23378 -0.842952,-0.585442 -0.124725,-0.0057 0.01052,0.04139 -0.411975,0.382975 -1.799407,1.454802 -4.911108,1.352203 -6.696047,-0.345029 -1.686252,-1.603394 -1.969039,-4.238681 -1.135978,-6.325548 0.741228,-1.915103 2.420877,-3.352364 4.334703,-4.026301 2.206842,-0.824484 4.695426,-0.824478 6.931447,-0.113743 0.610779,0.216645 1.219871,0.70158 1.190173,1.413511 z M 11.303945,30.856965 c 0.68993,-0.03645 1.409647,-0.03447 2.052625,-0.300342 0.690291,-0.285431 0.763158,-1.083805 0.763158,-1.753166 v -10.08233 c 1.059651,-0.119824 2.136167,-0.137311 3.181963,-0.340594 0.763752,-0.148459 1.063832,-0.996246 1.003846,-1.715861 -0.05314,-0.637516 0.09264,-1.297021 -0.05006,-1.920507 -0.145705,-0.63659 -0.879452,-0.729584 -1.458471,-0.661171 -2.955279,0.349175 -5.92037,0.619337 -8.88574,0.864453 -0.8514685,0.07038 -1.9815231,-0.150318 -2.211801,-1.118737 -1.0707898,1.126208 -1.54315,2.920635 -0.9260037,4.370244 0.4068336,0.955608 1.5252782,1.218849 2.497264,1.193658 0.9817505,-0.02544 1.7792503,-0.254358 1.778995,-0.02409 -0.00395,3.566275 -0.030843,7.133117 0.00566,10.698975 0.00254,0.247916 0.1487452,0.480136 0.3871744,0.658565 0.2384293,0.178429 0.8633493,0.183628 1.8613903,0.130903 z m 25.081221,-9.735464 c -0.586289,0.303765 -0.904956,0.958778 -0.927001,1.600462 -0.02746,0.445244 -0.0082,0.916108 -0.01394,1.373947 0.0011,0.74463 -0.0022,1.48937 0.0017,2.233931 0.0146,0.218552 0.24346,0.345881 0.445207,0.310329 0.703664,-0.06002 1.303272,-0.523879 1.747201,-1.04485 0.787141,-0.954234 1.093578,-2.278269 0.841474,-3.485113 -0.108871,-0.559756 -0.558235,-1.054751 -1.135585,-1.133895 -0.324043,-0.05349 -0.667995,-0.01158 -0.95904,0.145189 z m -13.634078,5.58731 c 0.589197,-0.296353 0.904683,-0.953503 0.927001,-1.59239 -0.0042,-0.699149 -0.0015,-1.428939 -0.0023,-2.141273 -0.0043,-0.49988 0.0087,-1.000828 -0.0066,-1.500031 -0.05089,-0.285393 -0.393027,-0.322748 -0.623675,-0.256783 -0.755544,0.165174 -1.37496,0.716695 -1.797931,1.344242 -0.604761,0.917065 -0.824161,2.083183 -0.599208,3.157567 0.108469,0.561316 0.560595,1.055652 1.138651,1.134313 0.32646,0.05795 0.66981,0.0082 0.96406,-0.145645 z" /></svg>
