<?xml version="1.0" encoding="UTF-8"?>
<svg version="1.1" viewBox="0 0 48 48" xmlns="http://www.w3.org/2000/svg">
 <defs>
  <style>.a{fill:none;stroke:#fff;stroke-linecap:round;stroke-linejoin:round;}</style>
 </defs>
 <g class="a">
  <path d="m37.973 27.811 6.303 1.6889"/>
  <path d="m3.2241 18.5 6.7758 1.8156"/>
  <path d="m37.985 20.186 6.2911-1.6857"/>
  <path d="m3.2241 29.5 6.7758-1.8156"/>
  <path d="m13.648 13.898-4.924-4.924"/>
  <path d="m38.776 39.026-4.674-4.674"/>
  <path d="m34.125 13.625 4.6506-4.6506"/>
  <path d="m8.724 39.026 4.924-4.924"/>
  <path d="m27.519 9.9332 1.7307-6.4591"/>
  <path d="m18.25 44.526 1.7663-6.5918"/>
  <path d="m27.511 38.038 1.7386 6.4884"/>
  <path d="m18.25 3.4741 1.7663 6.5918"/>
  <circle cx="24" cy="24" r="21.5"/>
  <circle cx="24" cy="24" r="14.45"/>
  <circle cx="24" cy="24" r="6.5"/>
  <path d="m23.007 13.382 4.56e-4 13.408c0 0.59891 0.61378 0.94158 0.99244 0.94158 0.37866 0 0.99244-0.32405 0.99244-0.94158v-13.408"/>
  <path d="m24 27.788v7.0929"/>
 </g>
</svg>
