<?xml version="1.0" encoding="UTF-8"?>
<!-- Created with Inkscape (http://www.inkscape.org/) -->
<svg version="1.1" viewBox="0 0 48 48" xml:space="preserve" xmlns="http://www.w3.org/2000/svg"><defs><style>.a{fill:none;stroke:#fff;stroke-linecap:round;stroke-linejoin:round;}</style><style>.a{fill:none;stroke:#fff;stroke-linecap:round;stroke-linejoin:round;}</style></defs><g stroke="#fff"><circle class="a" cx="24" cy="24" r="21.5"/><g transform="matrix(.84456 0 0 .84456 3.7306 5.8032)" stroke-width="1.184"><path class="a" d="m4.5 10.28a50.821 50.821 0 0 1 19.5-4.1853 50.821 50.821 0 0 1 19.5 4.1853"/><path class="a" d="m10.479 14.678a10.722 10.722 0 0 1-2.9229-1.8779c4.22-2.4267 12.03-3.2592 12.03-3.2592l4.4143 32.364 4.414-32.364s7.8108 0.8325 12.03 3.2592a10.722 10.722 0 0 1-2.9229 1.8779"/><polyline class="a" points="19.586 9.541 24 13.431 28.414 9.541"/></g></g></svg>