<?xml version="1.0" encoding="UTF-8"?><svg id="a" xmlns="http://www.w3.org/2000/svg" viewBox="0 0 48 48"><defs><style>.d{fill:none;stroke:#fff;stroke-linecap:round;stroke-linejoin:round;}</style></defs><path class="d" d="m43.8 18.69-7.8-5.89-4.23 1.13v-4.39l-7.77-6.04-7.72 6v4.39l-4.28-1.09-7.8 5.89 2.26 5.31-2.26 5.31 7.8 5.89 4.24-1.13v4.39l7.72 6 7.73-6v-4.39l4.31 1.13 7.84-5.89-2.29-5.31z"/><line class="d" x1="16.28" x2="16.28" y1="13.93" y2="34.07"/><line class="d" x1="31.73" x2="31.73" y1="13.93" y2="34.07"/><path class="d" d="m24.02 19.263 1.3378 2.8758 3.1485 0.38368-2.3217 2.161 0.60803 3.1129-2.7727-1.5402-2.7727 1.5402 0.60803-3.1129-2.3217-2.161 3.1485-0.38368z"/></svg>
