<svg xmlns="http://www.w3.org/2000/svg" xml:space="preserve" id="svg1" version="1.1" viewBox="0 0 48 48"><defs id="defs1"><style id="style1"></style></defs><path id="path3268" d="M9.5 5.5h29c2.216 0 4 1.784 4 4v29c0 2.216-1.784 4-4 4h-29c-2.216 0-4-1.784-4-4v-29c0-2.216 1.784-4 4-4z" style="fill:none;fill-opacity:1;stroke:#fff;stroke-width:1;stroke-linecap:round;stroke-linejoin:round;stroke-opacity:1;stop-color:#000"/><path id="path3266" d="M18.479833 16.722542c0-.911112.724258-1.649715 1.617676-1.649715h.000008" style="fill:none;fill-opacity:1;stroke:#fff;stroke-width:1;stroke-linecap:round;stroke-linejoin:round;stroke-opacity:1;stop-color:#000"/><path id="path3264" d="M18.479833 15.072825v4.371754" style="fill:none;fill-opacity:1;stroke:#fff;stroke-width:1;stroke-linecap:round;stroke-linejoin:round;stroke-opacity:1;stop-color:#000"/><path id="path3262" d="M32.704974 17.794862c0 .911112.724249 1.649715 1.617668 1.649715h.000008c.893418 0 1.617676-.738603 1.617676-1.649715v-1.07232c0-.911112-.724258-1.649715-1.617676-1.649715h-.000008c-.893419 0-1.617668.738603-1.617668 1.649715" style="fill:none;fill-opacity:1;stroke:#fff;stroke-width:1;stroke-linecap:round;stroke-linejoin:round;stroke-opacity:1;stop-color:#000"/><path id="path3260" d="M32.704966 15.072825v6.598869" style="fill:none;fill-opacity:1;stroke:#fff;stroke-width:1;stroke-linecap:round;stroke-linejoin:round;stroke-opacity:1;stop-color:#000"/><path id="path3258" d="M16.351281 15.026303c0-1.207225-.959646-2.185873-2.143421-2.185873h-.000008c-1.183775 0-2.143421.978648-2.143421 2.185873v2.227111c0 1.207225.959646 2.185874 2.143421 2.185874h.000008c1.183775 0 2.143421-.978649 2.143421-2.185874H14.20786" style="fill:none;fill-opacity:1;stroke:#fff;stroke-width:1;stroke-linecap:round;stroke-linejoin:round;stroke-opacity:1;stop-color:#000"/><path id="path3256" d="M21.701675 16.717253c0-.911114.724258-1.649717 1.617676-1.649717.893418 0 1.617677.738603 1.617677 1.649717v1.072315c0 .911114-.724259 1.649718-1.617677 1.649718s-1.617676-.738604-1.617676-1.649718z" style="fill:none;fill-opacity:1;stroke:#fff;stroke-width:1;stroke-linecap:round;stroke-linejoin:round;stroke-opacity:1;stop-color:#000"/><path id="path3254" d="M27.129972 15.067536v2.722035c0 .911112.72425 1.649716 1.617669 1.649716h.000008c.893417 0 1.617676-.738604 1.617676-1.649716v-2.722035" style="fill:none;fill-opacity:1;stroke:#fff;stroke-width:1;stroke-linecap:round;stroke-linejoin:round;stroke-opacity:1;stop-color:#000"/><path id="path3252" d="M30.365316 17.789571v1.649717" style="fill:none;fill-opacity:1;stroke:#fff;stroke-width:1;stroke-linecap:round;stroke-linejoin:round;stroke-opacity:1;stop-color:#000"/><path id="path3250" d="M12.188018 22.373099v10.416813h5.300526" style="fill:none;fill-opacity:1;stroke:#fff;stroke-width:1;stroke-linecap:round;stroke-linejoin:round;stroke-opacity:1;stop-color:#000"/><path id="path3248" d="M21.316706 25.893706v6.901143" style="fill:none;fill-opacity:1;stroke:#fff;stroke-width:1;stroke-linecap:round;stroke-linejoin:round;stroke-opacity:1;stop-color:#000"/><path id="path3246" d="M35.464014 31.47572c-.456469.78506-1.316731 1.314192-2.302775 1.314192h-.000013c-1.463701 0-2.650249-1.165941-2.650249-2.604201v-1.692737c0-1.43826 1.186548-2.604201 2.650249-2.604201h.000013c1.463701 0 2.650264 1.165941 2.650264 2.604201v.846368h-5.300526" style="fill:none;fill-opacity:1;stroke:#fff;stroke-width:1;stroke-linecap:round;stroke-linejoin:round;stroke-opacity:1;stop-color:#000"/><path id="path3244" d="M26.222075 32.794846v-8.593873c0-1.006783.830592-1.822942 1.855184-1.822942v0c.913069 0 1.483034.265635 1.873975.76271" style="fill:none;fill-opacity:1;stroke:#fff;stroke-width:1;stroke-linecap:round;stroke-linejoin:round;stroke-opacity:1;stop-color:#000"/><path id="path3242" d="M24.650694 25.893705h3.710368" style="fill:none;fill-opacity:1;stroke:#fff;stroke-width:1;stroke-linecap:round;stroke-linejoin:round;stroke-opacity:1;stop-color:#000"/><path id="path3060" d="M12.095078 35.159693h23.809367" style="fill:none;fill-opacity:1;stroke:#fff;stroke-width:1;stroke-linecap:round;stroke-linejoin:round;stroke-opacity:1;stop-color:#000"/><path id="path3230" d="M22.066705 22.703562a.7499997.7499997 0 0 1-.75.75.7499997.7499997 0 0 1-.75-.75.7499997.7499997 0 0 1 .75-.75.7499997.7499997 0 0 1 .75.75z" class="q" style="fill:#fff;stroke:none;stroke-width:1;stroke-opacity:.39115"/></svg>