<svg xmlns="http://www.w3.org/2000/svg" xml:space="preserve" width="48" height="48"><path fill="none" stroke="#fff" stroke-linecap="round" stroke-linejoin="round" d="M10.904 28v-8h2.33c2.502 0 4.53 1.567 4.53 3.5v1c0 1.933-2.028 3.5-4.53 3.5zm19.073-2.683v.033c0 1.464-1.536 2.65-3.43 2.65v0c-1.895 0-3.431-1.186-3.431-2.65v-2.7c0-1.464 1.536-2.65 3.43-2.65v0c1.895 0 3.431 1.186 3.431 2.65v.033M35.163 28v-8m-3.43 0h6.86M20.44 20v8m22.064 9.504a7 7 0 0 1-.261.005H5.755q-.132 0-.261-.005m0-5.956q.13-.004.26-.004h36.489q.132 0 .26.004m0-15.097a7 7 0 0 1-.26.005H5.755q-.132 0-.26-.005m-.001-5.955q.13-.005.26-.005v0h36.489q.132 0 .26.005M9.5 5.5h29c2.216 0 4 1.784 4 4v29c0 2.216-1.784 4-4 4h-29c-2.216 0-4-1.784-4-4v-29c0-2.216 1.784-4 4-4" class="t"/></svg>
