<svg xmlns="http://www.w3.org/2000/svg" xml:space="preserve" width="48" height="48"><path fill="none" stroke="#fff" stroke-linecap="round" stroke-linejoin="round" d="M12.856 18.193c.614.403 1.227.816 1.833 1.401.114-.834.34-1.538.573-2.235-.614-.403-1.227-.816-1.834-1.401-.114.835-.34 1.538-.572 2.235m3.199 4.65a9 9 0 0 1-.35-.32c-.114.835-.34 1.54-.573 2.236v0c.384.252.767.508 1.149.807m10.102-10.782c-.393-1.203-1.939-.832-2.25.094-.482-.882-2.146-.958-2.245.41-.083 1.15 1.233 2.074 2.515 2.68.482-.342.96-.739 1.334-1.167m-1.468 4.586c-.678-.375-1.692-.182-1.769.877v0c-.047.649.352 1.226.938 1.714m7.199 5.354c.362 1.008.56 1.108 1.01 1.802.185.285.397 1.037-.331 1.429-.79.425-1.2-.115-1.324-.269-.135.3.148.8-.038.845-.16.039-.248-.233-.43-.29-.174-.053-.467.098-.507-.044-.066-.23.509-.407.483-.668-.266.048-.897.295-1.331-.593-.172-.351.012-.971.626-1.254.567-.26.995-.38 1.842-.958m4.258-13.264c.362 1.008.56 1.108 1.01 1.802.185.285.397 1.037-.332 1.429-.789.425-1.2-.115-1.324-.269-.135.3.148.8-.038.845-.159.039-.247-.233-.43-.29-.173-.053-.466.098-.506-.044-.066-.23.508-.407.482-.668-.265.048-.897.295-1.33-.593-.172-.351.012-.971.626-1.254.567-.26.995-.38 1.842-.958m-2.13 6.631c.363 1.008.56 1.109 1.01 1.802.186.286.398 1.037-.33 1.43-.79.425-1.2-.116-1.324-.269-.136.3.147.8-.038.845-.16.038-.248-.233-.43-.29-.174-.053-.467.098-.507-.044-.066-.23.508-.407.483-.668-.266.048-.897.295-1.331-.593-.172-.352.012-.972.626-1.254.567-.26.995-.38 1.842-.959M7.942 19.514l.712-.368m-2.146-.971c.14-.36.362-.606.984-.925l.144-.073c.512-.265 1.154-.038 1.435.506v0c.281.544.094 1.199-.417 1.463m-.451 2.307c.373.095.703.057 1.324-.263l.144-.075c.512-.264.699-.92.418-1.463v0c-.281-.544-.924-.77-1.435-.506m20.092-3.972.763.244m-.83-2.204c.353-.156.685-.172 1.35.041l.154.05c.548.175.842.79.656 1.373v0c-.186.583-.781.914-1.33.74m-1.95 1.312c.196.332.457.538 1.122.75l.155.05c.548.174 1.144-.157 1.33-.74v0c.186-.583-.108-1.198-.657-1.372m-11.668.049.801-.02m-1.504-1.811c.283-.263.591-.387 1.289-.402l.162-.002c.576-.014 1.054.47 1.069 1.082v0c.015.612-.44 1.12-1.016 1.133m-1.415 1.878c.294.25.608.36 1.306.342l.162-.004c.576-.013 1.03-.52 1.016-1.133v0c-.015-.612-.493-1.096-1.069-1.083m6.377 19.25-6.367.527a1.57 1.57 0 0 1-1.688-1.453L15.26 13.292a1.57 1.57 0 0 1 1.425-1.712v0l13.84-1.147a1.57 1.57 0 0 1 1.688 1.453l.017.205M21.068 35.024 16 37.566a1.573 1.573 0 0 1-2.109-.719L4.67 18.482a1.57 1.57 0 0 1 .684-2.12v0l12.414-6.225a1.573 1.573 0 0 1 2.11.718l.221.442m9.096-.178 13.226 4.233a1.57 1.57 0 0 1 1.004 1.989l-6.263 19.574a1.57 1.57 0 0 1-1.972 1.036l-13.226-4.233a1.57 1.57 0 0 1-1.004-1.989l6.264-19.574a1.57 1.57 0 0 1 1.971-1.036"/></svg>
