<?xml version="1.0" encoding="UTF-8"?><svg id="b" xmlns="http://www.w3.org/2000/svg" viewBox="0 0 48 48"><defs><style>.s{fill:#fff;}.t{fill:none;stroke:#fff;stroke-linecap:round;stroke-linejoin:round;}</style></defs><path id="c" class="t" d="M9.5,5.5h29c2.216,0,4,1.784,4,4v29c0,2.216-1.784,4-4,4H9.5c-2.216,0-4-1.784-4-4V9.5c0-2.216,1.784-4,4-4Z"/><path id="d" class="t" d="M18.4798,16.7225c0-.9111.7243-1.6497,1.6177-1.6497h0"/><path id="e" class="t" d="M18.4798,15.0728v4.3718"/><path id="f" class="t" d="M32.705,17.7949c0,.9111.7243,1.6497,1.6177,1.6497h0c.8934,0,1.6177-.7386,1.6177-1.6497v-1.0723c0-.9111-.7243-1.6497-1.6177-1.6497h0c-.8934,0-1.6177.7386-1.6177,1.6497"/><path id="g" class="t" d="M32.705,15.0728v6.5989"/><path id="h" class="t" d="M16.3513,15.0263c0-1.2072-.9596-2.1859-2.1434-2.1859h0c-1.1838,0-2.1434.9786-2.1434,2.1859v2.2271c0,1.2072.9596,2.1859,2.1434,2.1859h0c1.1838,0,2.1434-.9786,2.1434-2.1859h-2.1434"/><path id="i" class="t" d="M21.7017,16.7173c0-.9111.7243-1.6497,1.6177-1.6497s1.6177.7386,1.6177,1.6497v1.0723c0,.9111-.7243,1.6497-1.6177,1.6497s-1.6177-.7386-1.6177-1.6497v-1.0723Z"/><path id="j" class="t" d="M27.13,15.0675v2.722c0,.9111.7243,1.6497,1.6177,1.6497h0c.8934,0,1.6177-.7386,1.6177-1.6497v-2.722"/><path id="k" class="t" d="M30.3653,17.7896v1.6497"/><path id="l" class="t" d="M12.188,22.3731v10.4168h5.3005"/><path id="m" class="t" d="M21.3167,25.8937v6.9011"/><path id="n" class="t" d="M35.464,31.4757c-.4565.7851-1.3167,1.3142-2.3028,1.3142h0c-1.4637,0-2.6502-1.1659-2.6502-2.6042v-1.6927c0-1.4383,1.1865-2.6042,2.6502-2.6042h0c1.4637,0,2.6503,1.1659,2.6503,2.6042v.8464h-5.3005"/><path id="o" class="t" d="M26.2221,32.7948v-8.5939c0-1.0068.8306-1.8229,1.8552-1.8229h0c.9131,0,1.483.2656,1.874.7627"/><path id="p" class="t" d="M24.6507,25.8937h3.7104"/><path id="q" class="t" d="M12.0951,35.1597h23.8094"/><path id="r" class="s" d="M22.0667,22.7036c0,.4142-.3358.75-.75.75h0c-.4142,0-.75-.3358-.75-.75h0c0-.4142.3358-.75.75-.75h0c.4142,0,.75.3358.75.75h0Z"/></svg>