<?xml version="1.0" encoding="UTF-8" standalone="no"?>
<svg
   viewBox="0 0 48 48"
   version="1.1"
   id="svg1"
   sodipodi:docname="circle.svg"
   xml:space="preserve"
   inkscape:version="1.4.4 (dcaf3e7, 2026-05-05)"
   xmlns:inkscape="http://www.inkscape.org/namespaces/inkscape"
   xmlns:sodipodi="http://sodipodi.sourceforge.net/DTD/sodipodi-0.dtd"
   xmlns="http://www.w3.org/2000/svg"
   xmlns:svg="http://www.w3.org/2000/svg"><sodipodi:namedview
     id="namedview1"
     pagecolor="#505050"
     bordercolor="#eeeeee"
     borderopacity="1"
     inkscape:showpageshadow="0"
     inkscape:pageopacity="0"
     inkscape:pagecheckerboard="0"
     inkscape:deskcolor="#505050"
     inkscape:zoom="18.591016"
     inkscape:cx="4.652785"
     inkscape:cy="24.259029"
     inkscape:window-width="2415"
     inkscape:window-height="1560"
     inkscape:window-x="133"
     inkscape:window-y="-12"
     inkscape:window-maximized="1"
     inkscape:current-layer="svg1" /><defs
     id="defs1"><inkscape:path-effect
       effect="bspline"
       id="path-effect3"
       is_visible="true"
       lpeversion="1.3"
       weight="33.333333"
       steps="2"
       helper_size="0"
       apply_no_weight="true"
       apply_with_weight="true"
       only_selected="false"
       uniform="false" /><inkscape:path-effect
       effect="bspline"
       id="path-effect2"
       is_visible="true"
       lpeversion="1.3"
       weight="33.333333"
       steps="2"
       helper_size="0"
       apply_no_weight="true"
       apply_with_weight="true"
       only_selected="false"
       uniform="false" /><style
       id="style1">.a{fill:none;stroke:#fff;stroke-linecap:round;stroke-linejoin:round;}</style></defs><circle
     class="a"
     cx="24"
     cy="24"
     r="21.5"
     id="circle1" /><path
     style="fill:none;stroke:#ffffff;stroke-linecap:round;stroke-linejoin:round;stroke-opacity:1"
     d="m 9.0903328,24.342314 1.5974642,-5.895404 2.320127,11.25832 2.129952,-14.643423 1.217116,19.62599 0.988907,-13.464342 0.950871,5.47702 2.320127,-10.954041 1.825674,14.14897 1.445324,-5.55309"
     id="path1"
     sodipodi:nodetypes="cccccccccc" /><path
     style="fill:none;stroke:#ffffff;stroke-linecap:round;stroke-linejoin:round;stroke-opacity:1"
     d="m 26.244057,21.375594 c -0.06985,-0.615528 -0.139707,-1.231054 0.148723,-2.397453 0.28843,-1.1664 0.935136,-2.883651 2.329835,-3.945163 1.3947,-1.061512 3.537246,-1.467201 5.169609,-1.023452 1.632363,0.443749 2.754346,1.736882 3.337559,3.185406 0.583214,1.448524 0.627586,3.052263 0.282096,4.697304 -0.34549,1.645041 -1.080802,3.331185 -1.882719,4.380335 -0.801918,1.049149 -1.670347,1.461177 -2.265259,2.052898 -0.594913,0.59172 -0.916249,1.363087 -1.242712,2.260068 -0.326464,0.896981 -0.658052,1.919571 -1.283449,2.567178 -0.625397,0.647607 -1.544536,0.920179 -2.438372,0.768037 -0.893837,-0.152142 -1.762268,-0.728983 -2.217174,-1.456905 -0.454906,-0.727922 -0.49624,-1.606866 -0.369458,-2.316849 0.126783,-0.709983 0.421682,-1.250992 0.716583,-1.792006"
     id="path2"
     sodipodi:nodetypes="cccccccccccccc"
     inkscape:original-d="m 26.244057,21.375594 c -0.06985,-0.615528 -0.139708,-1.231054 -0.209561,-1.846579 0.646714,-1.717274 1.29342,-3.434525 1.940148,-5.151836 2.142671,-0.405713 4.285217,-0.811402 6.427891,-1.217116 1.122052,1.293212 2.244035,2.586345 3.366087,3.879557 0.04438,1.603836 0.08875,3.207575 0.133122,4.811411 -0.735355,1.686246 -1.470667,3.37239 -2.206022,5.058636 -0.86848,0.412053 -1.736909,0.824081 -2.605388,1.236134 -0.321346,0.771388 -0.642682,1.542755 -0.964019,2.314122 -0.331589,1.022595 -0.663178,2.045185 -0.994777,3.06781 -0.919195,0.272589 -1.838334,0.545161 -2.757528,0.81775 -0.868479,-0.576873 -1.73691,-1.153714 -2.605387,-1.730586 -0.04134,-0.878972 -0.08267,-1.757916 -0.124004,-2.636872 0.2949,-0.54101 0.589799,-1.082019 0.8847,-1.623033"
     inkscape:path-effect="#path-effect2" /><path
     style="fill:none;stroke:#ffffff;stroke-linecap:round;stroke-linejoin:round;stroke-opacity:1"
     d="m 31.163233,21.477021 c 0.202852,0.253565 0.608558,0.760697 0.865294,1.134709 0.256737,0.374011 0.364498,0.614889 0.405703,1.074487 0.0412,0.459597 0.01585,1.137872 -0.155312,1.844694 -0.17116,0.706822 -0.488111,1.442148 -0.893821,1.990487 -0.40571,0.54834 -0.900144,0.909656 -1.429473,0.855773 -0.529329,-0.05388 -1.09349,-0.522962 -1.328043,-1.137871 -0.234553,-0.614909 -0.13947,-1.375576 0.148967,-1.923923 0.288437,-0.548347 0.770202,-0.884315 1.18225,-1.166409 0.412048,-0.282095 0.754355,-0.510299 0.954039,-0.789224 0.199683,-0.278925 0.256734,-0.608555 0.240885,-0.97306 -0.01585,-0.364505 -0.104595,-0.763863 -0.148969,-0.963546 -0.04437,-0.199683 -0.04437,-0.199683 0.15848,0.05388 z"
     id="path3"
     sodipodi:nodetypes="sccccccccccss"
     inkscape:original-d="m 30.96038,21.223455 c 0.405706,0.507131 0.811411,1.014263 1.217116,1.521394 0.107768,0.240892 0.215529,0.48177 0.323296,0.722662 -0.02536,0.678303 -0.05071,1.356578 -0.07607,2.034866 -0.316964,0.735356 -0.633915,1.470682 -0.950872,2.206022 -0.494463,0.361339 -0.988897,0.722655 -1.48336,1.083994 -0.564195,-0.469106 -1.128356,-0.938184 -1.692551,-1.40729 0.09509,-0.760712 0.190172,-1.521379 0.285261,-2.282091 0.481785,-0.335982 0.96355,-0.67195 1.445325,-1.007925 0.342321,-0.228214 0.684628,-0.456418 1.026942,-0.684627 0.05705,-0.329642 0.114104,-0.659271 0.171156,-0.988907 -0.08875,-0.399374 -0.177496,-0.798732 -0.266244,-1.198098 z"
     inkscape:path-effect="#path-effect3" /></svg>
