<svg xmlns="http://www.w3.org/2000/svg" viewBox="0 0 48 48" fill="none" stroke="#000" stroke-linecap="round" stroke-linejoin="round" xmlns:v="https://vecta.io/nano"><path d="M6.036 7.815h13.79m-8.631-2.377v8.349c0 1.806.278 3.993 1.657 5.16m3.19-7.192c-1.689 5.866-4.004 9.913-7.13 9.913-2.019 0-3.408-1.603-3.408-3.534 0-3.439 3.921-6.585 8.943-6.598 3.336-.009 6.066 2.472 6.066 5.629 0 2.934-2.374 4.633-5.973 5.316M32.424 5.845c-1.725 5.653-3.967 10.962-6.692 15.948m13.29-14.041c1.606 1.918 2.673 3.898 3.502 5.754M26.451 9.973h7.036c1.938 0 3.096 1.184 3.096 3.158 0 2.267-.575 4.503-1.165 6.311-.669 2.048-1.26 2.695-2.213 2.695-.919 0-1.491-.521-2.001-.844m-9.721 3.632l1.478 2.56m-4.355-2.528l1.478 2.56M5.817 29.521h14.447m-9.381-3.002c2.139 3.153 4.942 6.694 7.505 9.225-5.142-2.682-12.102-2.118-12.102 2.408 0 5.156 7.59 4.987 12.508 3.315m6.625-9.444h16.354m-3.784-4.972v6.411c0 2.117-.594 3.617-1.407 4.347m-7.411-10.726v11.445c0 2.046 1.357 3.596 3.221 3.596h6.504" paint-order="fill markers stroke"/></svg>