<?xml version="1.0" encoding="UTF-8"?><svg id="a" xmlns="http://www.w3.org/2000/svg" viewBox="0 0 48 48"><defs><style>.d{fill:none;stroke:#fff;stroke-linecap:round;stroke-linejoin:round;}</style></defs><path class="d" d="m12.5 5.5h29a.5433.5433 61.485 01.45581.83896l-4.9116 7.5721a1.8406 1.8406 151.48 01-1.5442.83896h-29a.5433.5433 61.485 01-.45581-.83896l4.9116-7.5721a1.8406 1.8406 151.48 011.5442-.83896z"/><path class="d" d="m20.214 20.663 7.5721-4.9116a.5433.5433 0 01.83896.45581v19.75a1.8406 1.8406 0 01-.83896 1.5442l-7.5721 4.9116a.5433.5433 0 01-.83896-.45581v-19.75a1.8406 1.8406 0 01.83896-1.5442z"/></svg>
