<svg xmlns="http://www.w3.org/2000/svg" viewBox="0 0 48 48" xmlns:v="https://vecta.io/nano"><circle cx="23.6" cy="14.163" r=".75" fill="#fff"/><path d="M32.703 31c-.953-.141-1.092.56-.594.875.367.232 2.563.047 4.359-1.016l-1.625 4.344 5.031-4.266c-1.687 2.922-1.65 3.839-1.141 4.281.594.516 1.539-.033 3.063-2.078 1.171-1.572 3.016-2.969 3.016-2.969-1.062 1.094-1.234 1.656-.641 2.938s.146 2.516-1.109 2.516c-.538 0-.938-.331-1.061-.774m-12.433.596c2.21 0 3.518-2.472 3.518-3.643 0-.952-.392-1.532-1.496-1.532-1.292 0-3.153 1.758-3.153 3.633 0 1.031.511 1.541 1.131 1.541zm-4.287-6.901l8.156-.406m-5.281-1.656c-1.723 4.233-3.904 7.601-3.066 8.48.668.7 2.423-.486 3.659-2.438m-10.5-1.667c-.437-.172-.937.375-.609.75s2.031.906 4.531-2.312c-.516 1.172.281 1.375.797 1.594-2.484 2.563-2.562 3.781-2.062 4.25.554.519 1.594.734 5.172-4.078m-10.854 4.385c2.21 0 3.485-2.604 3.485-3.775 0-.952-.392-1.532-1.496-1.532-1.292 0-3.12 1.891-3.12 3.766 0 1.031.511 1.541 1.131 1.541zm-.486-10.5c-1.87 3.931-3.239 7.666-4.221 10.43-.464-3.248-1.503-4.994-5.171-4.906l11.866-.331m-7.425-5.767c-1.997 4.089-3.459 7.974-4.508 10.85m17.234-18.66c-1.514 2.877-1.853 4.147-1.631 4.669.109.255.375.388.59.388 1.175 0 3.015-2.086 4.916-4.791l-1.844 4.734 5.219-4.422-1.5 4.281 4.844-3.953c-1.018 1.948-1.585 3.449-1.312 4.077.154.355.562.444.859.267m-16.26-.135l4.606-10.109m-5.689.387c3.588-.365 7.624-.608 11.778-.773" fill="none" stroke="#fff" stroke-linecap="round" stroke-linejoin="round"/></svg>