<svg xmlns="http://www.w3.org/2000/svg" xml:space="preserve" viewBox="0 0 48 48"><path d="m29.03999 28.772051 2.612278 1.114368-4.382846 1.869673-2.612278-1.114368z" style="fill:none;stroke:#fff;stroke-width:1;stroke-linecap:round;stroke-linejoin:round;stroke-dashoffset:1.3;stroke-opacity:1"/><path d="m3.703566 31.173111 20.200491 8.617298 20.392377-8.697824V16.907416L23.904057 8.2095907 3.703566 16.82689ZM19.841511 23.900608 3.703566 30.784874" style="fill:none;stroke:#fff;stroke-width:1;stroke-linecap:round;stroke-linejoin:round;stroke-dashoffset:1.3;stroke-opacity:1"/><path d="m27.765413 23.814547 7.085749 3.022286-.000148-9.834335 2.730721 1.214823v6.576616M23.33933 21.350797l-.711876-3.683927M24.203218 21.138372l.463769-5.590865M24.78649 16.455387c.320352-.162981.856692-.236064 1.301247-.08144M23.393512 16.11032c.483623-.151093.818498-.02214 1.237649.271217M25.853029 17.77424c-.447792-.237072-.800614-.1716-1.266384.04007M25.624063 19.418396c-.399619-.311489-.758452-.308512-1.253986-.181257M24.149293 17.903937c-.399619-.311489-.758452-.308512-1.253986-.181256M22.877156 18.372065c-.412088-.294795-.770495-.277068-1.260378-.129547M22.649986 19.24287c-.218861-.02629-.446802.01555-.713797.09594M23.116551 20.208251c-.199319-.01195-.408414.02921-.649299.101745M23.64289 19.007847l-.560369.142194M22.111813 21.562714c-.158689 1.206872.06627 2.473735 1.691848 2.473735 1.625577 0 1.850537-1.266863 1.691847-2.473735M26.130513 14.46723v-2.552094l4.769772 2.03442v6.025129l-3.480858-1.484668M28.515399 13.104719l.000001 5.680382M27.189019 15.379178l3.562698 1.519573M42.03976 23.710363v-2.78093l-2.077096-.885929v3.593981c.114681.04892.229361.09782.344041.146742M37.833821 26.355792l-1.424314.608155v2.165195l1.146979.489299v1.566943l1.424313.606175 2.077736-.886203.000296-.357843 1.449797-.606175v-4.421514l-1.424043-.606175-1.422333.606175-.000001 1.611932zM24.657144 30.641724v1.949227M27.269422 31.756092v1.949226M34.350739 32.163241l-4.382845 1.869672-1.378607-.588098M29.967894 34.032913v1.152461M34.350739 32.163241v1.15246" style="fill:none;stroke:#fff;stroke-width:1;stroke-linecap:round;stroke-linejoin:round;stroke-dashoffset:1.3;stroke-opacity:1"/><path d="m34.128571 31.969003.455551-1.980599-4.382845 1.869673-.455551 1.980599M22.753639 31.841717l-1.58022.674104-4.693278-2.001825 7.970651-3.400189 2.171732.926309" style="fill:none;stroke:#fff;stroke-width:1;stroke-linecap:round;stroke-linejoin:round;stroke-dashoffset:1.3;stroke-opacity:1"/></svg>