<svg width="48" height="48" version="1.1" viewBox="0 0 48 48" xmlns="http://www.w3.org/2000/svg">
 <g fill="none" stroke="#fff" stroke-linecap="round" stroke-linejoin="round">
  <path d="m16.441 32.286h4.3335l-4.3953 4.4675 4.3953 4.4714h-4.3335l-4.3953-4.4714z"/>
  <path d="m5.7116 29.241h9.1614v3.0569h-2.8272v4.4557h-3.507v-4.4557h-2.8272z"/>
  <g>
   <path d="m14.222 7.4828s1.743 5.7881 10.735 9.741c0 0 7.0573 4.6717 0.09939 17.097"/>
   <path d="m40.993 4.2947s0.14057 3.3737-6.3256 10.332c0 0 9.5587 6.1148-2.0383 19.961"/>
   <path d="m29.986 6.7466a5.1309 4.0062 54.482 0 1-0.28003 6.5035 5.1309 4.0062 54.482 0 1-6.2416-1.8487 5.1309 4.0062 54.482 0 1 0.28003-6.5035 5.1309 4.0062 54.482 0 1 6.2416 1.8487z"/>
  </g>
 </g>
</svg>
