<?xml version="1.0" encoding="UTF-8"?><svg id="a" xmlns="http://www.w3.org/2000/svg" viewBox="0 0 48 48"><defs><style>.bp{fill:none;stroke:#fff;stroke-linecap:round;stroke-linejoin:round;}</style></defs><path id="b" class="bp" d="M9.50023675,5.49755669h29c2.2159996,0,4,1.78399992,4,4v29c0,2.2159996-1.7840004,4-4,4H9.50023675c-2.21600008,0-4-1.7840004-4-4V9.49755669c0-2.21600008,1.78399992-4,4-4Z"/><g id="c"><path id="d" class="bp" d="M16.6827147,32.57405663c2.37924767.87792587,4.866045.69475555,6.76863289.05622101"/><path id="e" class="bp" d="M25.6022799,32.07741356c2.71399879-.85829735,4.4294014-3.285923,4.50850105-5.11942673.09796906-2.27082825-1.74571419-3.12932777-2.28894234-5.31252289"/><g id="f"><g id="g"><path id="h" class="bp" d="M21.94477487,28.52449417c1.23423004-.69394493,2.51597786-1.24271011,3.70269203-1.69156647.26918793,2.02203369.33980179,3.36330986.12627792,4.69642067-.19306755,1.20539474-1.51688576,1.65297318-2.06824493,1.2928009-1.26287651-.82496452-1.3455143-2.4541893-1.76072502-4.29765701h0"/><path id="i" class="bp" d="M22.31356454,30.06601524c1.35770226-.99886322,3.04376984-.47743988,3.30600929,1.70715141"/></g><g id="j"><path id="k" class="bp" d="M24.60598588,22.18727303l1.29244041-1.34344864"/><path id="l" class="bp" d="M19.28955102,23.74001694l-2.40641403-.48167992"/><path id="m" class="bp" d="M19.78201509,26.218256c.1443615.76231766-.22297096,1.47202301-.82045937,1.58517075-.5974884.11314964-1.19887733-.41310692-1.34324074-1.17542458v-.00000191c-.1443615-.76231766.22297096-1.47202301.82046127-1.58517075h0c.59749031-.11314774,1.19887733.41310883,1.34323883,1.17542648h0"/><path id="n" class="bp" d="M27.38911843,24.10166359c.18729973.75291824-.1392498,1.48228645-.72937202,1.62908936-.59012222.14680481-1.22034836-.34454918-1.4076519-1.09746742v-.00000191c-.18730164-.75292015.13925171-1.48228836.72937393-1.62908936.59012222-.1468029,1.22034836.34455109,1.40764999,1.09746933h0"/></g><path id="o" class="bp" d="M23.2317431,25.70611l.27695656.49899673"/><g id="p"><path id="q" class="bp" d="M21.27352166,19.37005234l2.77252579,1.7448864"/><path id="r" class="bp" d="M21.91258454,21.48570061l1.3772068-2.2193222"/></g></g></g><g id="s"><path id="t" class="bp" d="M13.26618791,30.48191261c.94671917-.47768784.83630085-1.92809677.03464985-2.76892471.44524193-.54463959-.03822041-1.44888687-.84443569-1.99290276.30399799-.69444084-.45457268-1.34771156-1.11480808-1.4115181-.13245773-.69016838-.82940292-1.46266937-1.74600315-.85813332-.57763004-.23175621-1.59537745.21133423-1.48422337,1.21583176-.51785946.32900238-.95296335,2.65664482.13390541,3.34064102-.1014204.64904213.2007761,1.33534431.94281673,1.37496185-.09573936.74776459.87027359,2.3229599,1.84429932,1.75534439.60959721.57151604,1.99127197.41541862,2.23379803-.65529823h0"/><path id="u" class="bp" d="M30.31766152,23.82984352c.71300316.27689171,1.60552788-.88304138.89596748-2.48254967.44748688-.26167488.43029022-1.27779961.09230995-1.52156448.3593483-1.75675774-.91931152-3.06085396-1.80166435-2.90978813"/><path id="v" class="bp" d="M9.50733876,23.4026413c-.35863495-4.55101585,2.54970932-10.03645897,8.13804913-11.60882854,5.99422646-1.68657207,10.99312019.97236633,12.20306778,4.72149754"/></g><path id="w" class="bp" d="M5.50047994,15.12903786h0"/><path id="x" class="bp" d="M5.49976325,10.98238277h0"/><g id="y"><path id="z" class="bp" d="M20.99566102,16.72110748c-.83812714,3.99861717-2.68016434,5.97650146-5.77448273,7.47459984-.12041283,2.88361549,1.48587418,5.45768166,1.67473412,7.14373207.28448868,2.53975868-2.60234165,2.01677513-3.83509445-.40348244"/><path id="aa" class="bp" d="M20.87382913,17.24045181c1.75175858,1.7943573,4.99138451,3.92619896,7.3842392,4.52842331"/><path id="ab" class="bp" d="M29.53608537,28.65232849c.91576576.79177475,2.76074409.41453552,2.44651985-1.08231354-.26164055-1.24635315-1.18585014-2.40683556-1.69066429-3.72622681-.74539566-1.94817734-.76922035-3.14243317-.61790276-4.54881477.17121315-1.59128952-.13780975-2.67180824-.76457214-3.6417799"/><path id="ac" class="bp" d="M7.57785392,26.20347977c-2.18156767-4.85352898-2.1908536-7.90632248-1.41521597-9.83917427"/><path id="ad" class="bp" d="M8.72218156,18.55147552c-1.7051096-1.12379837-2.78090525-2.10334778-3.22170162-3.42243767"/><path id="ae" class="bp" d="M11.89920545,12.96434212c-1.1213789-1.59498501-4.07946014-4.15678883-6.3994422-1.98195934"/><path id="af" class="bp" d="M11.60054517,12.54853439c1.82394886-1.29129028,6.43202877-.42282486,8.55902386,1.18328667"/><path id="ag" class="bp" d="M14.8094523,11.81818295c4.08967781-2.66942596,9.49436378-1.70679474,11.9084816.84325027"/><path id="ah" class="bp" d="M20.50066781,10.22896862c-.04397011-1.90365219,1.07736206-4.64933634,3.52282333-4.2633338,2.50769424.39582586,2.79445267,3.40395498,1.62132263,5.79326773"/><path id="ai" class="bp" d="M9.74634099,30.88032341c-2.03444815,2.67913437-1.09367561,4.89988327,1.37925434,3.77064514.22282028,2.92235184,3.09358025,2.35764694,4.61761093.46749878"/><path id="aj" class="bp" d="M15.61725545,34.42117882c.06079006,1.15631485.71671009,1.90731812,1.90419674,2.19490433"/><path id="ak" class="bp" d="M29.18417764,29.63794899c-.0308609,1.94711876-.84229088,3.42245865-2.61947441,4.32249069"/></g><g id="al"><g id="am"><path id="an" class="bp" d="M31.46698022,20.06269836c2.7264328-.0206604,6.87482452.28738594,10.47740173.96550369"/><path id="ao" class="bp" d="M41.71360421,24.46772766c-2.76420593.12219238-6.97774506-.03589058-10.62088203-.59347916"/><path id="ap" class="bp" d="M32.9880259,24.12226677c-.06750107,1.56255531-.08821106,3.13069725-.06911087,4.70357132"/><path id="aq" class="bp" d="M37.94232583,15.65753174c1.06324005.25886917,2.04819107.70808792,2.76000977,1.50954819,1.25104141,1.40859985,1.32201767,3.52653122,1.21060562,5.40717888-.11140823,1.88064766-.43194199,3.97538757-1.84054184,5.22642899h0c-1.40859985,1.25104141-3.52653122,1.32201576-5.40717697,1.21060562-.94642639-.05607033-1.94707489-.16509247-2.86711884-.43910027"/><path id="ar" class="bp" d="M29.70393586,16.90643883c.11269188-.1298008.23405457-.25318146.36478996-.36929321.80213165-.71240997,1.83428955-1.04215431,2.92165756-1.1734581"/><path id="as" class="bp" d="M33.80977654,15.97395897c-.22423935,1.36725044-.40200043,2.74005318-.53815842,4.11780167"/><path id="at" class="bp" d="M37.31070733,20.37193871c.06660843-1.47101212.09149933-2.94701195.08052826-4.42726994"/><path id="au" class="bp" d="M36.40687203,28.88843155c.25550461-1.47664833.45594406-2.95986938.6074791-4.44890976"/></g><g id="av"><path id="aw" class="bp" d="M36.73973107,16.51646614c-.37310791.35588646-.76160431.47069168-1.27708054.45851517-.51547623-.01218033-.89812088-.14519882-1.25400543-.51830673-.35588837-.37310791-.47069168-.76160431-.45851517-1.27708054.01218033-.51547718.14519882-.89811897.51830673-1.25400639s.76160431-.47069168,1.27708054-.45851517c.51547623.01218033.89811707.14519787,1.25400543.51830482.35588837.37310791.47069168.76160526.45851517,1.27708149-.01218033.51547623-.14519882.89811897-.51830673,1.25400543h0"/><path id="ax" class="bp" d="M33.86942697,16.01773453c-5.61499214-4.07824421-5.10511971-5.4134922-3.80189705-6.06915283l3.28519249-1.65280533"/><path id="ay" class="bp" d="M34.90808129,13.54037952c-1.24448776-2.88292217-2.38325119-5.11155987-1.39680099-5.30416012.89168549-.17409706,1.60948181,2.70570087,2.15210342,5.23915958"/><path id="az" class="bp" d="M37.05905175,16.11250687c6.10111618-3.05348015,5.81600952-4.44339561,4.64637375-5.30090046l-2.96585846-2.17438412"/><path id="ba" class="bp" d="M36.33656335,13.55154705c1.70504761-2.63681698,3.19740295-4.6459198,2.25650787-4.99933529-.85050201-.31946182-2.03562164,2.40155888-2.99059296,4.8100605"/></g></g><g id="bb"><g id="bc"><path id="bd" class="bp" d="M26.52183557,33.95119667c1.03403091-.11278915,1.72528267-.5354805,3.10341263.29500961.55943871-1.06741714,2.08575821-1.05272293,3.01935196-.67036057"/><path id="be" class="bp" d="M29.08812928,38.80028725c.61748505-.13085556,1.17084122-.370224,1.8671875-.90039062,1.35676765.27486801,3.27403831-.03609848,3.71679878-1.11328125,2.84733963-.18040466,2.566082-3.13900375,1.15039062-4.8046875l.09766006-.00979996-.11132812-.92382812c-.3803978-.14597511-.81036758-.22081566-1.26171875-.20898438-.65966415.01729012-1.36426544.21834183-2.01953125.64257812l.2265625.74414062c-.4284935.24913788-.72571182.62453079-.765625,1.1640625"/><path id="bf" class="bp" d="M32.87313104,31.24370956c-.23155212-.83353996-.14562988-1.62817192.63010406-2.33823395"/><path id="bg" class="bp" d="M35.22296166,30.88782883l.33081436-.45849037c1.4875946-.08189964,1.97032166-.70478821,2.09259415-1.53097916"/></g><g id="bh"><path id="bi" class="bp" d="M19.5323565,42.50244331c.09379005-.25549316.16051292-.56232071.19890213-.9319191.97141075-.70609283,1.66830254-2.40923691.68112755-3.95743942-1.61632538-2.53491592-4.25176811-.80063248-5.18545532,1.86873245-.88485622.75057983-1.49862576,1.82360458-1.61932659,3.01477051"/><path id="bj" class="bp" d="M16.35894608,40.17336464c.50925827.31494522,1.06788254.65925217,1.75690651.89409256"/></g><g id="bk"><path id="bl" class="bp" d="M19.63567758,36.12301445c-.65662575-1.37565231.07292938-1.95314407,1.42331505-1.93000793.95924187.01644135,1.73876953.10129929,2.3545742.70635986.36964226-1.28672791,1.47746849-1.89787674,2.63190842-1.57468033.46974564.13150787.66809464.86824417.49840355,1.27273178,1.53173828,1.01444244,2.11003685,2.61546326,2.07089806,3.55043793,1.04507828,1.28860474,1.28918076,2.38866806,1.47278786,3.4744873.20469856.32191086.34243965.6122818.43842316.87946701"/><path id="bm" class="bp" d="M23.31450486,34.72147179l1.60181618,7.77626801"/><path id="bn" class="bp" d="M19.64348817,36.00444603c1.80304909.218647,5.63298225-.49170303,6.9708271-1.45052338"/><path id="bo" class="bp" d="M22.06198907,40.23382378c2.37863541-.29442215,3.85092163-.70627594,5.08780289-1.39282227"/></g></g></svg>