<?xml version="1.0" encoding="UTF-8" standalone="no"?>
<svg
   viewBox="0 0 48 48"
   version="1.1"
   id="svg1"
   sodipodi:docname="toca_world.svg"
   inkscape:version="1.2.2 (b0a8486541, 2022-12-01)"
   xml:space="preserve"
   xmlns:inkscape="http://www.inkscape.org/namespaces/inkscape"
   xmlns:sodipodi="http://sodipodi.sourceforge.net/DTD/sodipodi-0.dtd"
   xmlns="http://www.w3.org/2000/svg"
   xmlns:svg="http://www.w3.org/2000/svg"><sodipodi:namedview
     id="namedview1"
     pagecolor="#505050"
     bordercolor="#eeeeee"
     borderopacity="1"
     inkscape:showpageshadow="0"
     inkscape:pageopacity="0"
     inkscape:pagecheckerboard="0"
     inkscape:deskcolor="#505050"
     inkscape:zoom="17.8125"
     inkscape:cx="21.108772"
     inkscape:cy="10.835088"
     inkscape:window-width="1918"
     inkscape:window-height="1053"
     inkscape:window-x="0"
     inkscape:window-y="0"
     inkscape:window-maximized="1"
     inkscape:current-layer="svg1"
     showgrid="false" /><defs
     id="defs1"><style
       id="style1">.a { fill:none;stroke:#fff;stroke-linecap:round;stroke-linejoin:round; }
</style></defs><path
     style="fill:none;stroke:#ffffff;stroke-linecap:round;stroke-linejoin:round;stroke-opacity:1;stop-color:#000000"
     d="m 9.5,5.5 h 29 c 2.216,0 4,1.784 4,4 v 29 c 0,2.216 -1.784,4 -4,4 h -29 c -2.216,0 -4,-1.784 -4,-4 v -29 c 0,-2.216 1.784,-4 4,-4 z"
     id="path3192" /><g
     id="g3295"
     style="display:inline"><path
       style="fill:none;stroke:#ffffff;stroke-linecap:round;stroke-linejoin:round;stroke-opacity:1;stop-color:#000000"
       d="m 16.682477,32.5765 c 2.379247,0.877926 4.866045,0.694755 6.768634,0.05622"
       id="path3178" /><path
       style="fill:none;stroke:#ffffff;stroke-linecap:round;stroke-linejoin:round;stroke-opacity:1;stop-color:#000000"
       d="m 25.602044,32.079855 c 2.713999,-0.858297 4.429402,-3.285923 4.508501,-5.119426 0.09797,-2.270829 -1.745715,-3.129328 -2.288942,-5.312523"
       id="path3176" /><g
       id="g3278"
       style="display:inline"><g
         id="g3264"><path
           style="fill:none;stroke:#ffffff;stroke-linecap:round;stroke-linejoin:round;stroke-opacity:1;stop-color:#000000"
           d="m 21.944539,28.526937 c 1.23423,-0.693944 2.515978,-1.24271 3.702692,-1.691567 0.269187,2.022034 0.339802,3.363309 0.126278,4.696421 -0.193067,1.205395 -1.516886,1.652974 -2.068245,1.292802 -1.262877,-0.824965 -1.345515,-2.45419 -1.760725,-4.297656 v 0"
           id="path3190" /><path
           style="fill:none;stroke:#ffffff;stroke-linecap:round;stroke-linejoin:round;stroke-opacity:1;stop-color:#000000"
           d="m 22.313328,30.068458 c 1.357702,-0.998863 3.04377,-0.47744 3.30601,1.707152"
           id="path3188" /></g><g
         id="g3260"><path
           style="fill:none;stroke:#ffffff;stroke-linecap:round;stroke-linejoin:round;stroke-opacity:1;stop-color:#000000"
           d="m 24.60575,22.189716 1.29244,-1.343448"
           id="path3182" /><path
           style="fill:none;stroke:#ffffff;stroke-linecap:round;stroke-linejoin:round;stroke-opacity:1;stop-color:#000000"
           d="M 19.289315,23.742461 16.8829,23.26078"
           id="path3180" /><path
           style="fill:none;stroke:#ffffff;stroke-linecap:round;stroke-linejoin:round;stroke-opacity:1;stop-color:#000000"
           d="m 19.781779,26.2207 a 1.4048302,1.1010776 79.27677 0 1 -0.82046,1.58517 1.4048302,1.1010776 79.27677 0 1 -1.34324,-1.175426 1.4048302,1.1010776 79.27677 0 1 0.820461,-1.58517 1.4048302,1.1010776 79.27677 0 1 1.343239,1.175426 v 0"
           id="path3174" /><path
           style="fill:none;stroke:#ffffff;stroke-linecap:round;stroke-linejoin:round;stroke-opacity:1;stop-color:#000000"
           d="m 27.388881,24.104106 a 1.4048302,1.1010776 76.030283 0 1 -0.729372,1.62909 1.4048302,1.1010776 76.030283 0 1 -1.407651,-1.09747 1.4048302,1.1010776 76.030283 0 1 0.729374,-1.62909 1.4048302,1.1010776 76.030283 0 1 1.407649,1.09747 v 0"
           id="path3172" /></g><path
         style="fill:none;stroke:#ffffff;stroke-linecap:round;stroke-linejoin:round;stroke-opacity:1;stop-color:#000000"
         d="m 23.231506,25.708554 0.276956,0.498996"
         id="path3170" /><g
         id="g3254"><path
           style="fill:none;stroke:#ffffff;stroke-linecap:round;stroke-linejoin:round;stroke-opacity:1;stop-color:#000000"
           d="m 21.273285,19.372496 2.772525,1.744887"
           id="path3168" /><path
           style="fill:none;stroke:#ffffff;stroke-linecap:round;stroke-linejoin:round;stroke-opacity:1;stop-color:#000000"
           d="m 21.912347,21.488144 1.377207,-2.219322"
           id="path3166" /></g></g></g><g
     id="g3314"><path
       style="fill:none;stroke:#ffffff;stroke-linecap:round;stroke-linejoin:round;stroke-opacity:1;stop-color:#000000"
       d="m 13.265951,30.484356 c 0.946719,-0.477688 0.836301,-1.928097 0.03465,-2.768925 0.445242,-0.54464 -0.03822,-1.448887 -0.844436,-1.992902 0.303998,-0.69444 -0.454573,-1.347712 -1.114808,-1.411518 -0.132458,-0.690169 -0.829403,-1.46267 -1.7460028,-0.858133 -0.5776303,-0.231756 -1.5953775,0.211334 -1.4842234,1.215831 -0.5178593,0.329003 -0.9529634,2.656644 0.1339056,3.34064 -0.1014204,0.649042 0.2007759,1.335344 0.9428171,1.374961 -0.095739,0.747765 0.8702735,2.322959 1.8442995,1.755344 0.609597,0.571516 1.991272,0.415418 2.233798,-0.655298 v 0"
       id="path3164" /><path
       style="fill:none;stroke:#ffffff;stroke-linecap:round;stroke-linejoin:round;stroke-opacity:1;stop-color:#000000"
       d="m 30.317425,23.832286 c 0.713004,0.276892 1.605528,-0.883042 0.895968,-2.482549 0.447487,-0.261675 0.430291,-1.277799 0.09231,-1.521565 0.359348,-1.756757 -0.919312,-3.060853 -1.801664,-2.909788"
       id="path3160" /><path
       style="fill:none;stroke:#ffffff;stroke-linecap:round;stroke-linejoin:round;stroke-opacity:1;stop-color:#000000"
       d="M 9.5071017,23.405085 C 9.1484666,18.854068 12.056811,13.368626 17.645151,11.796256 c 5.994226,-1.686572 10.993121,0.972366 12.203068,4.721498"
       id="path3158" /></g><path
     style="fill:none;stroke:#ffffff;stroke-linecap:round;stroke-linejoin:round;stroke-opacity:1;stop-color:#000000"
     d="m 5.500243,15.131481 v 0"
     id="path3154" /><path
     style="fill:none;stroke:#ffffff;stroke-linecap:round;stroke-linejoin:round;stroke-opacity:1;stop-color:#000000"
     d="m 5.4995266,10.984826 v 0"
     id="path3150" /><g
     id="g3309"
     style="display:inline"><path
       style="fill:none;stroke:#ffffff;stroke-linecap:round;stroke-linejoin:round;stroke-opacity:1;stop-color:#000000"
       d="m 20.995425,16.72355 c -0.838128,3.998617 -2.680165,5.976501 -5.774483,7.4746 -0.120413,2.883616 1.485874,5.457682 1.674735,7.143732 0.284489,2.53976 -2.602342,2.016775 -3.835095,-0.403482"
       id="path3186" /><path
       style="fill:none;stroke:#ffffff;stroke-linecap:round;stroke-linejoin:round;stroke-opacity:1;stop-color:#000000"
       d="m 20.873593,17.242896 c 1.751759,1.794358 4.991384,3.9262 7.384239,4.528423"
       id="path3184" /><path
       style="fill:none;stroke:#ffffff;stroke-linecap:round;stroke-linejoin:round;stroke-opacity:1;stop-color:#000000"
       d="m 29.535849,28.654771 c 0.915766,0.791775 2.760746,0.414535 2.446519,-1.082313 -0.261641,-1.246353 -1.18585,-2.406835 -1.690665,-3.726226 -0.745396,-1.948177 -0.76922,-3.142433 -0.617902,-4.548815 0.171213,-1.591289 -0.137809,-2.671809 -0.764572,-3.64178"
       id="path3162" /><path
       style="fill:none;stroke:#ffffff;stroke-linecap:round;stroke-linejoin:round;stroke-opacity:1;stop-color:#000000"
       d="M 7.577617,26.205923 C 5.3960494,21.352395 5.3867638,18.2996 6.1624014,16.366748"
       id="path3156" /><path
       style="fill:none;stroke:#ffffff;stroke-linecap:round;stroke-linejoin:round;stroke-opacity:1;stop-color:#000000"
       d="M 8.7219452,18.553919 C 7.0168354,17.430121 5.9410397,16.450572 5.500243,15.131481"
       id="path3152" /><path
       style="fill:none;stroke:#ffffff;stroke-linecap:round;stroke-linejoin:round;stroke-opacity:1;stop-color:#000000"
       d="M 11.898969,12.966785 C 10.77759,11.3718 7.8195087,8.8099963 5.4995266,10.984826"
       id="path3148" /><path
       style="fill:none;stroke:#ffffff;stroke-linecap:round;stroke-linejoin:round;stroke-opacity:1;stop-color:#000000"
       d="m 11.600308,12.550978 c 1.823949,-1.29129 6.432028,-0.422825 8.559023,1.183287"
       id="path3146" /><path
       style="fill:none;stroke:#ffffff;stroke-linecap:round;stroke-linejoin:round;stroke-opacity:1;stop-color:#000000"
       d="m 14.809216,11.820626 c 4.089678,-2.6694261 9.494364,-1.706795 11.908483,0.84325"
       id="path3144" /><path
       style="fill:none;stroke:#ffffff;stroke-linecap:round;stroke-linejoin:round;stroke-opacity:1;stop-color:#000000"
       d="m 20.500431,10.231412 c -0.04397,-1.9036521 1.077362,-4.6493362 3.522823,-4.2633336 2.507694,0.3958259 2.794453,3.4039553 1.621323,5.7932676"
       id="path3142" /><path
       style="fill:none;stroke:#ffffff;stroke-linecap:round;stroke-linejoin:round;stroke-opacity:1;stop-color:#000000"
       d="m 9.746104,30.882767 c -2.0344481,2.679136 -1.0936759,4.899882 1.379254,3.770647 0.22282,2.922353 3.09358,2.357648 4.617611,0.467499"
       id="path3140" /><path
       style="fill:none;stroke:#ffffff;stroke-linecap:round;stroke-linejoin:round;stroke-opacity:1;stop-color:#000000"
       d="m 15.617019,34.423623 c 0.06079,1.156314 0.71671,1.907318 1.904197,2.194904"
       id="path3138" /><path
       style="fill:none;stroke:#ffffff;stroke-linecap:round;stroke-linejoin:round;stroke-opacity:1;stop-color:#000000"
       d="m 29.18394,29.640393 c -0.03086,1.947119 -0.842291,3.42246 -2.619475,4.322489"
       id="path3136" /></g><g
     id="g3384"><g
       id="g3367"><path
         style="fill:none;stroke:#ffffff;stroke-linecap:round;stroke-linejoin:round;stroke-opacity:1;stop-color:#000000"
         d="m 31.466743,20.065141 c 2.726434,-0.02066 6.874824,0.287386 10.477403,0.965504"
         id="path3114" /><path
         style="fill:none;stroke:#ffffff;stroke-linecap:round;stroke-linejoin:round;stroke-opacity:1;stop-color:#000000"
         d="m 41.713369,24.470171 c -2.764207,0.122193 -6.977744,-0.03589 -10.620882,-0.593479"
         id="path3112" /><path
         style="fill:none;stroke:#ffffff;stroke-linecap:round;stroke-linejoin:round;stroke-opacity:1;stop-color:#000000"
         d="m 32.987788,24.124711 c -0.0675,1.562555 -0.08821,3.130698 -0.06911,4.703572"
         id="path3110" /><path
         style="fill:none;stroke:#ffffff;stroke-linecap:round;stroke-linejoin:round;stroke-opacity:1;stop-color:#000000"
         d="m 37.94209,15.659975 c 1.06324,0.258869 2.048193,0.708087 2.760008,1.509548 1.251041,1.408599 1.322017,3.526532 1.210607,5.40718 -0.11141,1.880647 -0.431942,3.975387 -1.840541,5.226429 v 0 c -1.408599,1.251042 -3.526532,1.322016 -5.407179,1.210606 -0.946425,-0.05607 -1.947076,-0.165093 -2.867119,-0.4391"
         id="path3108" /><path
         style="fill:none;stroke:#ffffff;stroke-linecap:round;stroke-linejoin:round;stroke-opacity:1;stop-color:#000000"
         d="m 29.703699,16.908882 c 0.112692,-0.129801 0.234055,-0.253181 0.36479,-0.369293 0.802132,-0.71241 1.83429,-1.042154 2.921658,-1.173458"
         id="path3106" /><path
         style="fill:none;stroke:#ffffff;stroke-linecap:round;stroke-linejoin:round;stroke-opacity:1;stop-color:#000000"
         d="m 33.809539,15.976402 c -0.224238,1.36725 -0.401999,2.740053 -0.538158,4.117801"
         id="path3104" /><path
         style="fill:none;stroke:#ffffff;stroke-linecap:round;stroke-linejoin:round;stroke-opacity:1;stop-color:#000000"
         d="m 37.310469,20.374382 c 0.06661,-1.471012 0.0915,-2.947012 0.08053,-4.42727"
         id="path3102" /><path
         style="fill:none;stroke:#ffffff;stroke-linecap:round;stroke-linejoin:round;stroke-opacity:1;stop-color:#000000"
         d="m 36.406637,28.890875 c 0.255504,-1.476649 0.455943,-2.959869 0.607481,-4.44891"
         id="path3100" /></g><g
       id="g3357"><path
         style="fill:none;stroke:#ffffff;stroke-linecap:round;stroke-linejoin:round;stroke-opacity:1;stop-color:#000000"
         d="m 36.739493,16.518909 c -0.373108,0.355887 -0.761604,0.470691 -1.27708,0.458515 -0.515477,-0.01218 -0.898119,-0.145198 -1.254006,-0.518306 -0.355887,-0.373108 -0.470692,-0.761604 -0.458515,-1.27708 0.01218,-0.515477 0.145198,-0.898119 0.518305,-1.254006 0.373108,-0.355887 0.761605,-0.470692 1.277081,-0.458515 0.515476,0.01218 0.898118,0.145198 1.254006,0.518305 0.355887,0.373108 0.470691,0.761605 0.458514,1.277081 -0.01218,0.515476 -0.145197,0.898119 -0.518305,1.254006 v 0"
         id="path3098" /><path
         style="fill:none;stroke:#ffffff;stroke-linecap:round;stroke-linejoin:round;stroke-opacity:1;stop-color:#000000"
         d="M 33.869191,16.020178 C 28.254198,11.941934 28.764071,10.606686 30.067294,9.9510251 L 33.352485,8.2982194"
         id="path3096" /><path
         style="fill:none;stroke:#ffffff;stroke-linecap:round;stroke-linejoin:round;stroke-opacity:1;stop-color:#000000"
         d="M 34.907843,13.542823 C 33.663356,10.659901 32.524592,8.4312628 33.511045,8.2386626 34.402729,8.0645654 35.120527,10.944364 35.663148,13.477822"
         id="path3094" /><path
         id="path3092"
         style="fill:none;stroke:#ffffff;stroke-linecap:round;stroke-linejoin:round;stroke-opacity:1;stop-color:#000000"
         d="M 37.058815 16.11495 C 43.159932 13.06147 42.874824 11.671555 41.705188 10.81405 L 38.739332 8.6396658 " /><path
         style="fill:none;stroke:#ffffff;stroke-linecap:round;stroke-linejoin:round;stroke-opacity:1;stop-color:#000000"
         d="M 36.336328,13.55399 C 38.041374,10.917173 39.533729,8.9080706 38.592835,8.5546555 37.742332,8.2351928 36.557211,10.956214 35.60224,13.364716"
         id="path3090" /></g></g><g
     id="g3345"><g
       id="g3324"><path
         style="fill:none;stroke:#ffffff;stroke-linecap:round;stroke-linejoin:round;stroke-opacity:1;stop-color:#000000"
         d="m 26.521598,33.953641 c 1.03403,-0.11279 1.725282,-0.535482 3.103413,0.29501 0.559438,-1.067416 2.085759,-1.052723 3.019352,-0.670359"
         id="path3122" /><path
         style="fill:none;stroke:#ffffff;stroke-linecap:round;stroke-linejoin:round;stroke-opacity:1;stop-color:#000000"
         d="m 29.087892,38.80273 c 0.617485,-0.130856 1.170842,-0.370223 1.867187,-0.90039 1.356768,0.274867 3.274038,-0.0361 3.716797,-1.113282 2.847341,-0.180406 2.566082,-3.139002 1.150391,-4.804687 l 0.09766,-0.0098 -0.111328,-0.923828 c -0.380397,-0.145975 -0.810368,-0.220815 -1.261719,-0.208984 -0.659666,0.01729 -1.364267,0.218342 -2.019531,0.642578 l 0.226562,0.744141 c -0.428494,0.249138 -0.725712,0.624532 -0.765625,1.164062"
         id="path3120" /><path
         style="fill:none;stroke:#ffffff;stroke-linecap:round;stroke-linejoin:round;stroke-opacity:1;stop-color:#000000"
         d="m 32.872895,31.246153 c -0.231554,-0.83354 -0.145628,-1.628171 0.630104,-2.338234"
         id="path3118" /><path
         style="fill:none;stroke:#ffffff;stroke-linecap:round;stroke-linejoin:round;stroke-opacity:1;stop-color:#000000"
         d="m 35.222724,30.890272 0.330813,-0.458491 c 1.487594,-0.0819 1.970321,-0.704789 2.092594,-1.530979"
         id="path3116" /></g><g
       id="g3318"><path
         style="fill:none;stroke:#ffffff;stroke-linecap:round;stroke-linejoin:round;stroke-opacity:1;stop-color:#000000"
         d="m 19.532119,42.504886 c 0.09379,-0.255494 0.160512,-0.56232 0.198902,-0.931918 0.971411,-0.706093 1.668303,-2.409236 0.681128,-3.95744 -1.616326,-2.534915 -4.251769,-0.800632 -5.185455,1.868734 -0.884856,0.75058 -1.498626,1.823605 -1.619327,3.01477"
         id="path3128" /><path
         style="fill:none;stroke:#ffffff;stroke-linecap:round;stroke-linejoin:round;stroke-opacity:1;stop-color:#000000"
         d="m 16.35871,40.175809 c 0.509259,0.314947 1.067883,0.659253 1.756907,0.894091"
         id="path3088" /></g><g
       id="g3330"><path
         style="fill:none;stroke:#ffffff;stroke-linecap:round;stroke-linejoin:round;stroke-opacity:1;stop-color:#000000"
         d="m 19.63544,36.125459 c -0.656625,-1.375654 0.07293,-1.953144 1.423315,-1.930006 0.959241,0.01644 1.73877,0.101298 2.354574,0.706358 0.369642,-1.286728 1.477468,-1.897875 2.631909,-1.57468 0.469746,0.131509 0.668095,0.868244 0.498404,1.272731 1.531738,1.014443 2.110036,2.615465 2.070898,3.550439 1.045078,1.288603 1.289181,2.388667 1.472787,3.474488 0.204699,0.321911 0.342439,0.612283 0.438424,0.879467"
         id="path3130" /><path
         style="fill:none;stroke:#ffffff;stroke-linecap:round;stroke-linejoin:round;stroke-opacity:1;stop-color:#000000"
         d="m 23.314268,34.723916 1.601817,7.77627"
         id="path3126" /><path
         style="fill:none;stroke:#ffffff;stroke-linecap:round;stroke-linejoin:round;stroke-opacity:1;stop-color:#000000"
         d="m 19.643252,36.006889 c 1.803049,0.218648 5.632982,-0.491704 6.970826,-1.450524"
         id="path3124" /><path
         style="fill:none;stroke:#ffffff;stroke-linecap:round;stroke-linejoin:round;stroke-opacity:1;stop-color:#000000"
         d="m 22.061752,40.236267 c 2.378636,-0.294422 3.850921,-0.706276 5.087802,-1.392822"
         id="path2901" /></g></g></svg>
