<?xml version="1.0" encoding="UTF-8"?><svg id="a" xmlns="http://www.w3.org/2000/svg" viewBox="0 0 48 48"><defs><style>.d{fill:none;stroke:#fff;stroke-linecap:round;stroke-linejoin:round;}.c{fill:#fff;stroke-width:0px}</style></defs><rect class="d" x="5.5" y="5.5" width="37" height="37" rx="4" ry="4"/><rect class="d" x="19.86" y="22.675" width="4" height="5.3" rx="2" ry="2"/><circle class="c" cx="32.449" cy="20.225" r=".75"/><line class="d" x1="32.499" x2="32.499" y1="22.675" y2="27.975"/><path class="d" d="m16.235 21.025v5.95c0 0.5523 0.4477 1 1 1h0.3"/><line class="d" x1="15.185" x2="17.285" y1="22.675" y2="22.675"/><path class="d" d="m38.569 26.968c-0.3448 0.6019-0.9934 1.0073-1.7367 1.0073-1.1046 0-2-0.8954-2-2v-1.3c0-1.1046 0.8954-2 2-2 0.7419 0 1.3894 0.4039 1.7347 1.0039"/><path class="d" d="m29.922 26.966c-0.3445 0.6029-0.9937 1.0093-1.7378 1.0093-1.1046 0-2-0.8954-2-2v-1.3c0-1.1046 0.8954-2 2-2s2 0.8954 2 2v0.65h-4"/><path class="d" d="m11.261 19.87v1.83h-1.83"/><path class="d" d="m11.261 21.7-1.294-1.294"/><path class="d" d="m12.555 20.406-2.588 2.588"/><path class="d" d="m11.261 23.2 3.24e-4 0.33008"/><path class="d" d="m12.322 22.761 0.23363 0.23317"/><path class="d" d="m13.091 21.7-0.33008 3.23e-4"/></svg>
