<?xml version="1.0" encoding="UTF-8"?><svg id="a" xmlns="http://www.w3.org/2000/svg" viewBox="0 0 48 48"><defs><style>.d{fill:none;stroke:#fff;stroke-linecap:round;stroke-linejoin:round;}</style></defs><circle class="d" cx="33.25" cy="14.75" r="9.25"/><circle class="d" cx="33.25" cy="33.25" r="9.25"/><path class="d" d="m11.667 36.333v6.1667h-6.1667v-18.5h6.1667v6.1667h6.1667v-6.1667h6.1667v18.5h-6.1667v-6.1667z"/><circle class="d" cx="33.25" cy="14.75" r="3.0833"/><circle class="d" cx="33.25" cy="33.25" r="3.0833"/><path class="d" d="m17.833 13.429h6.1667"/><path class="d" d="m5.5 13.429h6.1667"/><path class="d" d="m40.941 38.389h1.5588"/><path class="d" d="m24 38.389 1.5588-1e-6"/><path class="d" d="m39.064 40.444h3.436"/><path class="d" d="m24 40.444 3.436 1e-6"/><path class="d" d="m24 42.5 18.5 1e-6"/><path class="d" d="m24 24h18.5"/><path class="d" d="m39.064 26.056h3.436"/><path class="d" d="m24 26.056 3.436 1e-6"/><path class="d" d="m40.941 28.111h1.5588"/><path class="d" d="m24 28.111 1.5588-1e-6"/><path class="d" d="m17.833 15.19h6.1667"/><path class="d" d="m5.5 15.19h6.1667"/><path class="d" d="m17.833 16.952h6.1667"/><path class="d" d="m5.5 16.952h6.1667"/><path class="d" d="m17.833 18.714h6.1667"/><path class="d" d="m5.5 18.714h6.1667"/><path class="d" d="m17.833 20.476h6.1667"/><path class="d" d="m5.5 20.476h6.1667"/><path class="d" d="m17.833 22.238h6.1667"/><path class="d" d="m5.5 22.238h6.1667"/><path class="d" d="m17.833 11.667h6.1667v-6.1667h-18.5v6.1667h6.1667v12.333h6.1667z"/><path class="d" d="m11.667 42.5h6.1667"/><rect class="d" x="24" y="5.5" width="18.5" height="18.5"/></svg>
