<svg width="48" height="48" xml:space="preserve" xmlns="http://www.w3.org/2000/svg">
    <rect x="5.5" y="5.5" width="37" height="37" rx="4" ry="4" style="display:inline;fill:none;stroke:#fff;stroke-linecap:round;stroke-linejoin:round"/>
    <path d="M8.78 13.564a.502.502 0 0 0-.505.504v4.233c0 .278.226.503.504.502h4.489v15.095a.471.471 45 0 0 .47.471h4.58a.471.471 135 0 0 .471-.471V18.803h2.287a2.619 2.619 0 1 0 0-5.239z" style="fill:none;fill-rule:evenodd;stroke:#fff;stroke-width:1;stroke-linecap:round;stroke-linejoin:round;stroke-dasharray:none" transform="translate(-.65 .033)"/>
    <path d="M32.274 13.617a8.1 8.1 0 0 0-8.1 8.1 8.1 8.1 0 0 0 .014.494h-.013v11.72a.472.472 0 0 0 .47.471h4.635a.472.472 0 0 0 .471-.47v-4.518a8.1 8.1 0 0 0 2.523.402 8.1 8.1 0 0 0 8.1-8.1 8.1 8.1 0 0 0-8.1-8.099zm-.005 5.697a2.396 2.396 0 0 1 2.396 2.397 2.396 2.396 0 0 1-2.396 2.396 2.396 2.396 0 0 1-2.397-2.396 2.396 2.396 0 0 1 2.397-2.397z" style="fill:none;fill-rule:evenodd;stroke:#fff;stroke-width:.999997;stroke-linecap:round;stroke-linejoin:round"/>
</svg>
