<svg version="1.1" viewBox="0 0 48 48" xml:space="preserve" xmlns="http://www.w3.org/2000/svg"><g fill="none" stroke="#fff" stroke-linecap="round" stroke-linejoin="round"><g stroke-width="1px"><path d="M 14.5,17 C 0,27 12,42 24,42 37,42 48,27 34,17"/><path d="m24.5 13c0-1.75 2.5-4 4.25-4"/><path d="m22.75 13c0-3 2.5-5.5 5.75-5.5"/><path d="m27 13.49c2.5-2 5.25-2.5 9.5-1.5-1.5 1.5-2.75 3.25-6 4-1.25-1.75-2.25-2-3.5-2.5z"/></g><path d="m21 13.49c-2.5-2.0001-5.25-2.5001-9.5001-1.5001 1.5 1.5001 2.75 3.2502 6 4.0002 1.25-1.7501 2.25-2.0001 3.5-2.5001z" stroke-width="1px"/><g stroke-width="1px"><path d="m17 20.493c5 0 7-2.993 7-4.993 0 2 2 4.993 7 4.993-4-7.0033-10-7-14 0z"/><path d="m28.5 7.5 0.25 1.5"/><path d="m24.5 13h-1.75"/></g></g></svg>
