<svg xmlns="http://www.w3.org/2000/svg" xml:space="preserve" x="0%" y="0%" viewBox="0 0 48 48"><path fill="none" stroke="#0FF" stroke-linecap="square" stroke-width=".41" d="M19.804 17.116c22.698-4.234 28.972 3.798 16.953 10.644m-8.553 3.124C5.498 35.118-.776 27.086 11.243 20.24" style="stroke:#fff;stroke-linecap:round;stroke-linejoin:round;stroke-opacity:1;stroke-width:1;stroke-miterlimit:4;stroke-dasharray:none"/><path d="M27.02 24.649v-6.306h2.049a2.12 2.12 0 0 1 2.128 2.129 2.12 2.12 0 0 1-2.128 2.128h-2.05" class="cls-2" style="fill:none;fill-opacity:1;fill-rule:nonzero;stroke:#fff;stroke-width:.923377;stroke-linecap:round;stroke-linejoin:round;stroke-miterlimit:4;stroke-dasharray:none;stroke-opacity:1"/><path d="M15.135 18.343h4.099M17.185 24.649v-6.306" class="cls-2" style="fill:none;fill-opacity:1;fill-rule:nonzero;stroke:#fff;stroke-width:.923379;stroke-linecap:round;stroke-linejoin:round;stroke-miterlimit:4;stroke-dasharray:none;stroke-opacity:1"/><path d="M23.127 24.649v0a2.035 2.035 0 0 1-2.05-2.05v-2.127c0-1.183.946-2.129 2.05-2.129v0a2.12 2.12 0 0 1 2.128 2.129v2.049a2.12 2.12 0 0 1-2.128 2.128z" class="cls-2" style="fill:none;fill-opacity:1;fill-rule:nonzero;stroke:#fff;stroke-width:.923377;stroke-linecap:round;stroke-linejoin:round;stroke-miterlimit:4;stroke-dasharray:none;stroke-opacity:1"/><path d="M163.5 40.7v8h4" class="cls-2" style="fill:none;fill-opacity:1;fill-rule:nonzero;stroke:#fff;stroke-width:2.10869;stroke-linecap:round;stroke-linejoin:round;stroke-miterlimit:4;stroke-dasharray:none;stroke-opacity:1" transform="matrix(.47423 0 0 .47423 -59.418 6.705)"/><path d="M183.4 48.7v-8l5.3 8v-8" class="cls-2" style="fill:none;fill-opacity:1;fill-rule:nonzero;stroke:#fff;stroke-width:2.10869;stroke-linecap:round;stroke-linejoin:round;stroke-miterlimit:4;stroke-dasharray:none;stroke-opacity:1" transform="matrix(.47423 0 0 .47423 -56.311 6.705)"/><path d="m268.6 40.7-2.6 8-2.6-8" class="cls-2" style="fill:none;fill-opacity:1;fill-rule:nonzero;stroke:#fff;stroke-width:2.10869;stroke-linecap:round;stroke-linejoin:round;stroke-miterlimit:4;stroke-dasharray:none;stroke-opacity:1" transform="matrix(.47423 0 0 .47423 -100.806 6.705)"/><g style="fill:none;fill-opacity:1;fill-rule:nonzero;stroke:#fff;stroke-width:2.10869;stroke-linecap:round;stroke-linejoin:round;stroke-miterlimit:4;stroke-dasharray:none;stroke-opacity:1"><path d="M93.5 44.7h2.7M97.5 48.7h-4v-8h4" class="cls-2" style="fill:none;fill-opacity:1;fill-rule:nonzero;stroke:#fff;stroke-width:2.10869;stroke-linecap:round;stroke-linejoin:round;stroke-miterlimit:4;stroke-dasharray:none;stroke-opacity:1" transform="matrix(.47423 0 0 .47423 -29.215 6.705)"/></g><g style="fill:none;fill-opacity:1;fill-rule:nonzero;stroke:#fff;stroke-width:2.10869;stroke-linecap:round;stroke-linejoin:round;stroke-miterlimit:4;stroke-dasharray:none;stroke-opacity:1"><path d="M93.5 44.7h2.7M97.5 48.7h-4v-8h4" class="cls-2" style="fill:none;fill-opacity:1;fill-rule:nonzero;stroke:#fff;stroke-width:2.10869;stroke-linecap:round;stroke-linejoin:round;stroke-miterlimit:4;stroke-dasharray:none;stroke-opacity:1" transform="matrix(.47423 0 0 .47423 -16.672 6.705)"/></g><g style="fill:none;fill-opacity:1;fill-rule:nonzero;stroke:#fff;stroke-width:2.10869;stroke-linecap:round;stroke-linejoin:round;stroke-miterlimit:4;stroke-dasharray:none;stroke-opacity:1"><path d="M93.5 44.7h2.7M97.5 48.7h-4v-8h4" class="cls-2" style="fill:none;fill-opacity:1;fill-rule:nonzero;stroke:#fff;stroke-width:2.10869;stroke-linecap:round;stroke-linejoin:round;stroke-miterlimit:4;stroke-dasharray:none;stroke-opacity:1" transform="matrix(.47423 0 0 .47423 -23.228 6.705)"/></g></svg>