<svg version="1.1" viewBox="0 0 48 48" xmlns="http://www.w3.org/2000/svg"><defs><style>.a{fill:none;stroke:#fff;stroke-linecap:round;stroke-linejoin:round;}</style></defs><circle class="a" cx="24" cy="24" r="21.5"/><g transform="matrix(1.4602 0 0 1.4356 -21.428 -19.05)" fill="none" stroke="#fff" stroke-linecap="round" stroke-linejoin="round" stroke-width=".69069"><line class="t" x1="24.82" x2="30.12" y1="22.435" y2="22.435"/><line class="t" x1="27.47" x2="27.47" y1="30.435" y2="22.435"/></g><g fill="none" stroke="#fff" stroke-linecap="round" stroke-linejoin="round"><circle cx="24" cy="24" r="17.921" stop-color="#000000" style="paint-order:fill markers stroke"/><path class="t" d="m25.785 26.918c0.41898-1.028 1.4409-1.7539 2.6351-1.7539h1.6697c1.2131 0 2.085 0.3319 2.7804 1.2228"/><path class="t" d="m25.807 35.103c0.69543 0.89108 1.5673 1.2228 2.7804 1.2228h1.6789c1.5624 0 2.8289-1.2466 2.8289-2.7843v-0.012c0-1.5377-1.2665-2.7843-2.8289-2.7843h-1.852c-0.99663 0-1.873-0.5067-2.3777-1.2726"/><path d="m34.001 4.9829-8.3441 13.586 6.1421-1.5224-7.9238 10.109 4.9311-0.56641-15.397 16.126 7.8384-12.276-5.0461 0.72549 6.4796-9.6248-4.7918 0.85614z" stop-color="#000000" style="paint-order:fill markers stroke"/></g></svg>
