<?xml version="1.0" encoding="UTF-8"?><svg id="a" xmlns="http://www.w3.org/2000/svg" viewBox="0 0 48 48"><defs><style>.b{fill:none;stroke:#fff;stroke-linecap:round;stroke-linejoin:round;}</style></defs><circle class="b" cx="24" cy="24" r="21.5"/><line class="b" x1="14.8142" y1="13.1577" x2="22.5532" y2="13.1577"/><line class="b" x1="18.6837" y1="24.6425" x2="18.6837" y2="13.1577"/><circle class="b" cx="24" cy="24" r="17.921"/><path class="b" d="M25.785,26.918c.419-1.028,1.4409-1.7539,2.6351-1.7539h1.6697c1.2131,0,2.085.3319,2.7804,1.2228"/><path class="b" d="M25.807,35.103c.6954.8911,1.5673,1.2228,2.7804,1.2228h1.6789c1.5624,0,2.8289-1.2466,2.8289-2.7843v-.012c0-1.5377-1.2665-2.7843-2.8289-2.7843h-1.852c-.9966,0-1.873-.5067-2.3777-1.2726"/><path class="b" d="M34.001,4.9829l-8.3441,13.586,6.1421-1.5224-7.9238,10.109,4.9311-.5664-15.397,16.126,7.8384-12.276-5.0461.7255,6.4796-9.6248-4.7918.8561L34.001,4.9829Z"/></svg>