<svg xmlns="http://www.w3.org/2000/svg" xml:space="preserve" viewBox="0 0 48 48"><path d="M13.842 21.81c-10.774 0-13.51-8.165-3.557-9.929 0 0-.106-4.722 8.687-5.514 4.73-.426 8.26.43 11.5 3.048 0 0 3.57-1.464 8.057.262 3.289 1.265 3.71 3.794 2.015 4.994 7.137 2.48 1.456 7.14-4.074 7.14zM18.413 35.956c0 2.863 2.482 5.78 5.587 5.78s5.587-2.917 5.587-5.78c-.001-5.143-4.76-9.202-5.587-12.394-.828 3.192-5.586 7.25-5.587 12.394" style="fill:none;stroke:#fff;stroke-width:1;stroke-linecap:round;stroke-linejoin:round;stroke-opacity:1"/></svg>