<svg xmlns="http://www.w3.org/2000/svg" viewBox="0 0 48 48"><path d="M30.258 38.977v1.379a.933.933 0 0 1-.932.932H18.674a.933.933 0 0 1-.932-.932v-6.812c0-.515.417-.932.932-.932h10.652c.515 0 .932.417.932.932v1.378M26.028 27.845v4.766h-4.055v-4.766M17.742 34.922v4.055H7.527A2.03 2.03 0 0 1 5.5 36.95v0c0-1.12.909-2.028 2.027-2.028zM30.258 34.912v4.055h10.215A2.03 2.03 0 0 0 42.5 36.94v0a2.03 2.03 0 0 0-2.027-2.028z" style="fill:none;stroke:#fff;stroke-width:1;stroke-linecap:round;stroke-linejoin:round"/><path d="m17.797 24.535 6.248-3.986 6.248 3.986-6.248 3.967zM30.204 14.634 24 10.687l-6.203 3.947L24 18.588z" style="fill:none;stroke:#fff;stroke-width:1;stroke-linecap:round;stroke-linejoin:round"/><path d="m30.287 14.634 6.21 3.954-6.249 3.986L24 18.594l-6.248 3.98-6.249-3.986 6.21-3.954-6.21-3.954 6.249-3.967L24 10.68l6.248-3.967 6.249 3.98Z" style="fill:none;stroke:#fff;stroke-width:1;stroke-linecap:round;stroke-linejoin:round"/></svg>