<svg xmlns="http://www.w3.org/2000/svg" viewBox="0 0 48 48"><path d="M30.258 38.977v1.379a.933.933 0 0 1-.932.932H18.674a.933.933 0 0 1-.932-.932v-6.812c0-.515.417-.932.932-.932h10.652c.515 0 .932.417.932.932v1.378M26.028 27.845v4.766h-4.055v-4.766M17.742 34.922v4.055H7.527A2.03 2.03 0 0 1 5.5 36.95v0c0-1.12.909-2.028 2.027-2.028zM30.258 34.912v4.055h10.215A2.03 2.03 0 0 0 42.5 36.94v0a2.03 2.03 0 0 0-2.027-2.028zM13.964 24.824l1.042 1.801c.217.38.529.677.894.894l3.725-6.448h-7.45c0 .42.109.84.326 1.22z" style="fill:none;stroke:#fff;stroke-width:1;stroke-linecap:round;stroke-linejoin:round"/><path d="m24 13.486-3.725-6.448a2.46 2.46 0 0 0-.894.894l-6.88 11.92a2.45 2.45 0 0 0-.325 1.22h7.45zM32.1 27.52a2.46 2.46 0 0 0 .894-.895l.433-.745 2.072-3.59c.217-.379.325-.799.325-1.219h-7.45l1.586 3.116zM24 13.486l3.725-6.448a2.4 2.4 0 0 0-1.22-.325h-5.01c-.434 0-.854.122-1.22.325z" style="fill:none;stroke:#fff;stroke-width:1;stroke-linecap:round;stroke-linejoin:round"/><path d="M28.375 21.071h-8.75L15.9 27.52c.366.217.786.325 1.22.325h13.76c.434 0 .854-.122 1.22-.325z" style="fill:none;stroke:#fff;stroke-width:1;stroke-linecap:round;stroke-linejoin:round"/><path d="m32.06 13.892-3.441-5.96a2.46 2.46 0 0 0-.894-.894L24 13.486l4.375 7.586h7.436c0-.42-.108-.84-.325-1.22z" style="fill:none;stroke:#fff;stroke-width:1;stroke-linecap:round;stroke-linejoin:round"/></svg>