<svg xmlns="http://www.w3.org/2000/svg" viewBox="0 0 48 48"><path d="M5.5 6.722h37v16.904h-37zM30.258 38.968v1.378a.933.933 0 0 1-.932.932H18.674a.933.933 0 0 1-.932-.932v-6.812c0-.515.417-.932.932-.932h10.652c.515 0 .932.417.932.932v1.379M21.973 23.626h4.055v8.976h-4.055zM17.742 34.913v4.055H7.527A2.03 2.03 0 0 1 5.5 36.94v0c0-1.119.909-2.027 2.027-2.027z" style="fill:none;stroke:#fff;stroke-linecap:round;stroke-linejoin:round"/><path d="M10.087 20.284a1.29 1.29 0 0 1-1.29 1.29 1.29 1.29 0 0 1-1.29-1.29 1.29 1.29 0 0 1 1.29-1.29 1.29 1.29 0 0 1 1.29 1.29M30.258 34.912v4.055h10.215A2.03 2.03 0 0 0 42.5 36.94v0a2.03 2.03 0 0 0-2.027-2.028z" style="fill:none;stroke:#fff;stroke-linecap:round;stroke-linejoin:round"/></svg>