<svg xmlns="http://www.w3.org/2000/svg" xml:space="preserve" viewBox="0 0 48 48"><g fill="none" stroke="#fff" stroke-dashoffset="3" stroke-linecap="round" stroke-linejoin="round"><path d="M11.645 26.376v10.945M6.253 23.313c-.557.406-1.204 1.36-1.453 2.103M4.462 12.488c.418-1.982 1.579-3.85 3.116-4.891M10.884 6.997h25.352M8.16 10.3h26.09c4.191 0 8.446 1.56 9.136 7.524.257-2.366.662-7.072-3.17-10.253"/><path d="M23.64 12.681v27.763c0 .31-.25.56-.56.56h-2.933a.56.56 0 0 1-.559-.56V12.681M7.783 24.418h8.71M42.09 26.774a6.67 6.475 0 0 1-6.671 6.475 6.67 6.475 0 0 1-6.67-6.475 6.67 6.475 0 0 1 6.67-6.475 6.67 6.475 0 0 1 6.67 6.475"/><path d="M42.09 26.774c-.263 6.005-7.822 12.23-10.539 14.23"/></g></svg>