<?xml version="1.0" encoding="UTF-8"?><svg id="b" xmlns="http://www.w3.org/2000/svg" viewBox="0 0 48 48"><defs><style>.e{fill:none;stroke:#fff;stroke-linecap:round;stroke-linejoin:round;}</style></defs><path id="d" class="e" d="M28.2632,24.435c-5.5578-.0008-10.064,4.4901-10.0648,10.0307v.0005c-.0008,5.5406,4.504,10.0329,10.0618,10.0337h.003c5.5578-.0006,10.0628-4.4926,10.0623-10.0332v-.0005c-.0006-5.5399-4.5053-10.0307-10.0623-10.0312ZM24.143,13.876c-5.5578-.0015-10.0645,4.4889-10.066,10.0295v.003c0,3.3125,1.6403,6.4115,4.3831,8.2812,1.0622-4.5424,5.1245-7.7558,9.8031-7.7546,2.0263.0006,4.0053.6109,5.6779,1.7513.1747-.7468.2629-1.5111.2629-2.2779.0001-5.5399-4.5041-10.0313-10.0611-10.0325ZM19.7405,3.5c-5.5578-.0015-10.0645,4.4889-10.066,10.0295v.003c-.0006,3.4028,1.7291,6.574,4.5944,8.4233.9347-4.6979,5.0701-8.082,9.8744-8.0804,1.94.0007,3.8384.5604,5.4667,1.6117.1278-.6437.192-1.2984.1916-1.9546.0001-5.5399-4.504-10.0313-10.0611-10.0325Z"/></svg>