<?xml version="1.0" encoding="UTF-8" standalone="no"?>
<svg
   id="Layer_1"
   data-name="Layer 1"
   version="1.1"
   viewBox="0 0 48 48"
   sodipodi:docname="traffic_light.svg"
   xml:space="preserve"
   inkscape:version="1.4.3 (0d15f75042, 2025-12-25)"
   xmlns:inkscape="http://www.inkscape.org/namespaces/inkscape"
   xmlns:sodipodi="http://sodipodi.sourceforge.net/DTD/sodipodi-0.dtd"
   xmlns="http://www.w3.org/2000/svg"
   xmlns:svg="http://www.w3.org/2000/svg"><sodipodi:namedview
     id="namedview1"
     pagecolor="#505050"
     bordercolor="#ffffff"
     borderopacity="1"
     inkscape:showpageshadow="0"
     inkscape:pageopacity="0"
     inkscape:pagecheckerboard="1"
     inkscape:deskcolor="#505050"
     inkscape:zoom="13.847518"
     inkscape:cx="18.234315"
     inkscape:cy="24.408706"
     inkscape:window-width="1600"
     inkscape:window-height="1000"
     inkscape:window-x="0"
     inkscape:window-y="0"
     inkscape:window-maximized="1"
     inkscape:current-layer="Layer_1" /><defs
     id="defs1"><style
       id="style1">
      .cls-1 {
        fill: none;
        stroke: #fff;
        stroke-linecap: round;
        stroke-linejoin: round;
      }
    </style></defs><path
     id="path2"
     style="display:inline;fill:none;stroke:#ffffff;stroke-width:0.999996;stroke-linecap:round;stroke-linejoin:round;paint-order:stroke fill markers"
     d="M 28.471181,24.456265 A 10.554191,10.521599 0 0 0 17.915399,34.976818 10.554191,10.521599 0 0 0 28.471181,45.500001 10.554191,10.521599 0 0 0 39.024319,34.976818 10.554191,10.521599 0 0 0 28.471181,24.456265 Z M 24.149933,13.3821 a 10.554191,10.521599 0 0 0 -10.557037,10.521869 10.554191,10.521599 0 0 0 4.596963,8.685165 10.554191,10.521599 0 0 1 10.281322,-8.132869 10.554191,10.521599 0 0 1 5.954922,1.8367 10.554191,10.521599 0 0 0 0.275714,-2.388996 A 10.554191,10.521599 0 0 0 24.149933,13.3821 Z M 19.53272,2.4999989 A 10.554191,10.521599 0 0 0 8.9756814,13.021868 10.554191,10.521599 0 0 0 13.794246,21.856026 10.554191,10.521599 0 0 1 24.150295,13.381503 10.554191,10.521599 0 0 1 29.883614,15.071782 10.554191,10.521599 0 0 0 30.084601,13.021868 10.554191,10.521599 0 0 0 19.53272,2.4999989 Z" /></svg>
