<svg xmlns="http://www.w3.org/2000/svg" viewBox="0 0 48 48" fill="none" stroke="#000" stroke-linejoin="round" xmlns:v="https://vecta.io/nano"><circle cx="24" cy="24" r="21.5"/><g stroke-linecap="round"><path d="M30.692 44.432L17.308 3.568m5.121 33.069l-5.656-17.402L10.9 36.637"/><path d="M12.858 30.764h7.613"/><path d="M23.009 13.833h14.806m-9.266-2.54v8.924c0 1.931.298 4.268 1.779 5.515m-4.822 2.864a3.94 3.94 0 0 0 .592.043c3.356 0 5.841-4.324 7.654-10.594m-10.42 3.918c1.513-2.372 4.799-4.142 8.707-4.152 3.582-.01 6.514 2.642 6.514 6.016 0 3.136-2.549 4.952-6.413 5.682" paint-order="fill markers stroke"/></g></svg>