<?xml version="1.0" encoding="UTF-8"?>
<svg data-name="Layer 1" version="1.1" viewBox="0 0 48 48" xml:space="preserve" xmlns="http://www.w3.org/2000/svg"><defs><style>
      .cls-1 {
        fill: none;
        stroke: #fff;
        stroke-linecap: round;
        stroke-linejoin: round;
      }
    </style></defs><g fill="none" stroke="#fff" stroke-linecap="round" stroke-linejoin="round"><circle class="b" cx="38.885" cy="36.296" r="1.35"/><circle class="b" cx="30.779" cy="36.296" r="1.35"/><rect x="29.248" y="27.159" width="11.107" height="4.9885"/><path d="m30.749 40.272v1.1519c0 0.44304-0.42918 0.80066-0.75888 0.80066h-1.4703c-0.52529 0-0.79276-0.32554-0.79276-0.66514v-2.0056c-0.52018-0.53269-0.9711-1.0225-0.9711-1.8944v-10.879c0.0084 0.01427-0.72546-3.5227 6.7533-3.5227h3.8644c5.4052 0.07366 5.4754 3.5227 5.4754 3.5227v10.879c0 0.9695-0.82854 1.5853-1.118 1.8944v2.0056c-0.02039 0.54427-0.38375 0.66514-0.68648 0.66514h-1.373c-0.62398 0-0.86301-0.38122-0.86301-0.80066v-1.1519z"/></g><g fill="none" stroke="#fff" stroke-linecap="round" stroke-linejoin="round"><rect x="6.5411" y="30.73" width="16.054" height="12.068" rx="1.8398" ry="1.8398"/><rect x="26.667" y="6.559" width="16.093" height="13.085" rx="1.8972" ry="1.8972"/><rect x="6.5899" y="6.5927" width="16.072" height="20.096" rx="2.0647" ry="2.0647"/></g></svg>
