<?xml version="1.0" encoding="UTF-8" standalone="no"?>
<svg
   viewBox="0 0 48 48"
   version="1.1"
   id="svg1"
   sodipodi:docname="triple_a.svg"
   inkscape:version="1.2.2 (b0a8486541, 2022-12-01)"
   xml:space="preserve"
   xmlns:inkscape="http://www.inkscape.org/namespaces/inkscape"
   xmlns:sodipodi="http://sodipodi.sourceforge.net/DTD/sodipodi-0.dtd"
   xmlns="http://www.w3.org/2000/svg"
   xmlns:svg="http://www.w3.org/2000/svg"><sodipodi:namedview
     id="namedview1"
     pagecolor="#505050"
     bordercolor="#eeeeee"
     borderopacity="1"
     inkscape:showpageshadow="0"
     inkscape:pageopacity="0"
     inkscape:pagecheckerboard="0"
     inkscape:deskcolor="#505050"
     inkscape:zoom="6.2976698"
     inkscape:cx="-39.856012"
     inkscape:cy="42.714212"
     inkscape:window-width="1918"
     inkscape:window-height="1053"
     inkscape:window-x="0"
     inkscape:window-y="0"
     inkscape:window-maximized="1"
     inkscape:current-layer="svg1"
     showgrid="false" /><defs
     id="defs1"><style
       id="style1">.a { fill:none;stroke:#fff;stroke-linecap:round;stroke-linejoin:round; }
</style></defs><g
     id="g2421"><path
       style="display:inline;fill:none;stroke:#ffffff;stroke-width:1;stroke-linecap:round;stroke-linejoin:round;stroke-opacity:1;stop-color:#000000"
       d="M 28.648283,21.210355 A 10.498933,3.503884 0 0 1 35.001069,20.496116 10.498933,3.503884 0 0 1 45.500002,24 v 0 a 10.498933,3.503884 0 0 1 -10.498933,3.503884 10.498933,3.503884 0 0 1 -6.358751,-0.715753"
       id="path2367" /><path
       style="display:inline;fill:none;stroke:#ffffff;stroke-width:1;stroke-linecap:round;stroke-linejoin:round;stroke-opacity:1;stop-color:#000000"
       d="M 26.788131,28.642316 A 3.503884,10.498933 0 0 1 27.503884,35.001067 3.503884,10.498933 0 0 1 24,45.5 3.503884,10.498933 0 0 1 20.496114,35.001067 3.503884,10.498933 0 0 1 21.211868,28.642314"
       id="path2365" /><path
       style="display:inline;fill:none;stroke:#ffffff;stroke-width:1;stroke-linecap:round;stroke-linejoin:round;stroke-opacity:1;stop-color:#000000"
       d="M 19.357683,26.788131 A 10.498933,3.503884 0 0 1 12.998931,27.503884 10.498933,3.503884 0 0 1 2.4999981,24 10.498933,3.503884 0 0 1 12.998931,20.496116 a 10.498933,3.503884 0 0 1 6.358752,0.715753"
       id="path2363" /><path
       style="display:inline;fill:none;stroke:#ffffff;stroke-width:1;stroke-linecap:round;stroke-linejoin:round;stroke-opacity:1;stop-color:#000000"
       d="M 21.211868,19.357686 A 3.503884,10.498933 0 0 1 20.496114,12.998933 3.503884,10.498933 0 0 1 24,2.5 a 3.503884,10.498933 0 0 1 3.503883,10.498933 3.503884,10.498933 0 0 1 -0.714238,6.352784"
       id="path2361" /><path
       style="display:inline;fill:none;stroke:#ffffff;stroke-width:1;stroke-linecap:round;stroke-linejoin:round;stroke-opacity:1;stop-color:#000000"
       d="m 29.254955,25.311604 a 10.498933,3.503884 45 0 1 5.001595,3.989706 10.498933,3.503884 45 0 1 4.946246,9.901486 10.498933,3.503884 45 0 1 -9.901487,-4.946246 10.498933,3.503884 45 0 1 -3.989705,-5.001595"
       id="path2359" /><path
       style="display:inline;fill:none;stroke:#ffffff;stroke-width:1;stroke-linecap:round;stroke-linejoin:round;stroke-opacity:1;stop-color:#000000"
       d="M 22.688397,29.254954 A 3.503884,10.498933 45 0 1 18.698691,34.25655 3.503884,10.498933 45 0 1 8.7972031,39.202796 3.503884,10.498933 45 0 1 13.74345,29.30131 3.503884,10.498933 45 0 1 18.745045,25.311605"
       id="path2357" /><path
       style="display:inline;fill:none;stroke:#ffffff;stroke-width:1;stroke-linecap:round;stroke-linejoin:round;stroke-opacity:1;stop-color:#000000"
       d="M 18.743654,22.687575 A 10.498933,3.503884 45 0 1 13.74345,18.698691 10.498933,3.503884 45 0 1 8.7972038,8.7972044 10.498933,3.503884 45 0 1 18.698691,13.74345 a 10.498933,3.503884 45 0 1 3.988878,5.000204"
       id="path2355" /><path
       style="display:inline;fill:none;stroke:#ffffff;stroke-width:1;stroke-linecap:round;stroke-linejoin:round;stroke-opacity:1;stop-color:#000000"
       d="m 25.313826,18.74131 a 3.503884,10.498933 45 0 1 3.987483,-4.99786 3.503884,10.498933 45 0 1 9.901487,-4.9462462 3.503884,10.498933 45 0 1 -4.946246,9.9014882 3.503884,10.498933 45 0 1 -4.99786,3.987483"
       id="path2353" /><path
       style="display:inline;fill:none;stroke:#ffffff;stroke-width:1;stroke-linecap:round;stroke-linejoin:round;stroke-opacity:1;stop-color:#000000"
       d="m 29.212931,22.508487 a 10.498933,3.503884 15 0 1 6.320157,0.954307 10.498933,3.503884 15 0 1 9.234319,6.101815 10.498933,3.503884 15 0 1 -11.048063,0.667169 10.498933,3.503884 15 0 1 -5.956116,-2.33673"
       id="path2351" /><path
       style="display:inline;fill:none;stroke:#ffffff;stroke-width:1;stroke-linecap:round;stroke-linejoin:round;stroke-opacity:1;stop-color:#000000"
       d="m 25.491561,29.209261 a 3.503884,10.498933 15 0 1 -0.954356,6.323826 3.503884,10.498933 15 0 1 -6.101815,9.234319 3.503884,10.498933 15 0 1 -0.667168,-11.048062 3.503884,10.498933 15 0 1 2.336729,-5.956116"
       id="path2349" /><path
       style="display:inline;fill:none;stroke:#ffffff;stroke-width:1;stroke-linecap:round;stroke-linejoin:round;stroke-opacity:1;stop-color:#000000"
       d="m 18.79074,25.491563 a 10.498933,3.503884 15 0 1 -6.323827,-0.954356 10.498933,3.503884 15 0 1 -9.234319,-6.101818 10.498933,3.503884 15 0 1 11.048063,-0.667167 10.498933,3.503884 15 0 1 5.952858,2.334905"
       id="path2347" /><path
       style="display:inline;fill:none;stroke:#ffffff;stroke-width:1;stroke-linecap:round;stroke-linejoin:round;stroke-opacity:1;stop-color:#000000"
       d="m 22.508384,18.794853 a 3.503884,10.498933 15 0 1 0.95441,-6.32794 3.503884,10.498933 15 0 1 6.101815,-9.2343189 3.503884,10.498933 15 0 1 0.667168,11.0480619 3.503884,10.498933 15 0 1 -2.331542,5.946848"
       id="path2345" /><path
       style="display:inline;fill:none;stroke:#ffffff;stroke-width:1;stroke-linecap:round;stroke-linejoin:round;stroke-opacity:1;stop-color:#000000"
       d="m 28.737013,26.627594 a 10.498933,3.503884 60 0 1 3.797973,5.147669 10.498933,3.503884 60 0 1 2.215015,10.844285 10.498933,3.503884 60 0 1 -8.283919,-7.340401 10.498933,3.503884 60 0 1 -2.559328,-5.864053"
       id="path2343" /><path
       style="display:inline;fill:none;stroke:#ffffff;stroke-width:1;stroke-linecap:round;stroke-linejoin:round;stroke-opacity:1;stop-color:#000000"
       d="m 21.372408,28.737013 a 3.503884,10.498933 60 0 1 -5.147669,3.797974 3.503884,10.498933 60 0 1 -10.8442845,2.215014 3.503884,10.498933 60 0 1 7.3404015,-8.283918 3.503884,10.498933 60 0 1 5.864051,-2.559328"
       id="path2341" /><path
       style="display:inline;fill:none;stroke:#ffffff;stroke-width:1;stroke-linecap:round;stroke-linejoin:round;stroke-opacity:1;stop-color:#000000"
       d="M 19.261776,21.371164 A 10.498933,3.503884 60 0 1 15.465013,16.224738 10.498933,3.503884 60 0 1 13.25,5.3804536 a 10.498933,3.503884 60 0 1 8.283919,7.3404004 10.498933,3.503884 60 0 1 2.556021,5.852344"
       id="path2339" /><path
       style="display:inline;fill:none;stroke:#ffffff;stroke-width:1;stroke-linecap:round;stroke-linejoin:round;stroke-opacity:1;stop-color:#000000"
       d="m 26.631544,19.259144 a 3.503884,10.498933 60 0 1 5.143718,-3.794129 3.503884,10.498933 60 0 1 10.844285,-2.215014 3.503884,10.498933 60 0 1 -7.340401,8.283919 3.503884,10.498933 60 0 1 -5.864052,2.559328"
       id="path2337" /><path
       style="display:inline;fill:none;stroke:#ffffff;stroke-width:1;stroke-linecap:round;stroke-linejoin:round;stroke-opacity:1;stop-color:#000000"
       d="m 27.77082,20.100701 a 3.503884,10.498933 75 0 1 5.948523,-2.332479 3.503884,10.498933 75 0 1 11.048063,0.667168 3.503884,10.498933 75 0 1 -9.234319,6.101816 3.503884,10.498933 75 0 1 -6.32794,0.95441"
       id="path2335" /><path
       style="display:inline;fill:none;stroke:#ffffff;stroke-width:1;stroke-linecap:round;stroke-linejoin:round;stroke-opacity:1;stop-color:#000000"
       d="m 27.895047,27.763227 a 10.498933,3.503884 75 0 1 2.336729,5.956116 10.498933,3.503884 75 0 1 -0.667168,11.048063 10.498933,3.503884 75 0 1 -6.101815,-9.234319 10.498933,3.503884 75 0 1 -0.95441,-6.32794"
       id="path2333" /><path
       style="display:inline;fill:none;stroke:#ffffff;stroke-width:1;stroke-linecap:round;stroke-linejoin:round;stroke-opacity:1;stop-color:#000000"
       d="M 20.236772,27.895049 A 3.503884,10.498933 75 0 1 14.280656,30.231778 3.503884,10.498933 75 0 1 3.2325937,29.56461 3.503884,10.498933 75 0 1 12.466913,23.462793 3.503884,10.498933 75 0 1 18.794854,22.508383"
       id="path2331" /><path
       style="display:inline;fill:none;stroke:#ffffff;stroke-width:1;stroke-linecap:round;stroke-linejoin:round;stroke-opacity:1;stop-color:#000000"
       d="m 20.104951,20.236772 a 10.498933,3.503884 75 0 1 -2.336729,-5.956115 10.498933,3.503884 75 0 1 0.667166,-11.0480624 10.498933,3.503884 75 0 1 6.101817,9.2343184 10.498933,3.503884 75 0 1 0.954252,6.316131"
       id="path2329" /><path
       style="display:inline;fill:none;stroke:#ffffff;stroke-width:1;stroke-linecap:round;stroke-linejoin:round;stroke-opacity:1;stop-color:#000000"
       d="m 29.422824,23.908934 a 10.498933,3.503884 30 0 1 5.856324,2.557147 10.498933,3.503884 30 0 1 7.340401,8.28392 10.498933,3.503884 30 0 1 -10.844286,-2.215015 10.498933,3.503884 30 0 1 -5.147669,-3.797974"
       id="path2327" /><path
       style="display:inline;fill:none;stroke:#ffffff;stroke-width:1;stroke-linecap:round;stroke-linejoin:round;stroke-opacity:1;stop-color:#000000"
       d="m 24.093248,29.415094 a 3.503884,10.498933 30 0 1 -2.559327,5.864053 3.503884,10.498933 30 0 1 -8.28392,7.340401 3.503884,10.498933 30 0 1 2.215014,-10.844284 3.503884,10.498933 30 0 1 3.797975,-5.14767"
       id="path2325" /><path
       style="display:inline;fill:none;stroke:#ffffff;stroke-width:1;stroke-linecap:round;stroke-linejoin:round;stroke-opacity:1;stop-color:#000000"
       d="m 18.580837,24.092098 a 10.498933,3.503884 30 0 1 -5.859982,-2.558179 10.498933,3.503884 30 0 1 -7.3404017,-8.28392 10.498933,3.503884 30 0 1 10.8442847,2.215015 10.498933,3.503884 30 0 1 5.14767,3.797974"
       id="path2323" /><path
       style="display:inline;fill:none;stroke:#ffffff;stroke-width:1;stroke-linecap:round;stroke-linejoin:round;stroke-opacity:1;stop-color:#000000"
       d="m 23.906755,18.584907 a 3.503884,10.498933 30 0 1 2.559328,-5.864052 3.503884,10.498933 30 0 1 8.283918,-7.3404005 3.503884,10.498933 30 0 1 -2.215013,10.8442845 3.503884,10.498933 30 0 1 -3.794129,5.14372"
       id="path1465" /></g></svg>
