<?xml version="1.0" encoding="UTF-8" standalone="no"?>
<svg
   viewBox="0 0 48 48"
   version="1.1"
   id="svg1"
   sodipodi:docname="truckers_of_europe_3.svg"
   inkscape:version="1.2.2 (b0a8486541, 2022-12-01)"
   xml:space="preserve"
   xmlns:inkscape="http://www.inkscape.org/namespaces/inkscape"
   xmlns:sodipodi="http://sodipodi.sourceforge.net/DTD/sodipodi-0.dtd"
   xmlns="http://www.w3.org/2000/svg"
   xmlns:svg="http://www.w3.org/2000/svg"><sodipodi:namedview
     id="namedview1"
     pagecolor="#505050"
     bordercolor="#eeeeee"
     borderopacity="1"
     inkscape:showpageshadow="0"
     inkscape:pageopacity="0"
     inkscape:pagecheckerboard="0"
     inkscape:deskcolor="#505050"
     inkscape:zoom="17.8125"
     inkscape:cx="21.277193"
     inkscape:cy="30.315789"
     inkscape:window-width="1918"
     inkscape:window-height="1053"
     inkscape:window-x="0"
     inkscape:window-y="0"
     inkscape:window-maximized="1"
     inkscape:current-layer="svg1"
     showgrid="false" /><defs
     id="defs1"><style
       id="style1">.a { fill:none;stroke:#fff;stroke-linecap:round;stroke-linejoin:round; }
</style></defs><path
     style="fill:none;stroke:#ffffff;stroke-width:1;stroke-linecap:round;stroke-linejoin:round;stroke-opacity:1;stop-color:#000000"
     d="m 9.5,5.5 h 29 c 2.216,0 4,1.784 4,4 v 29 c 0,2.216 -1.784,4 -4,4 h -29 c -2.216,0 -4,-1.784 -4,-4 v -29 c 0,-2.216 1.784,-4 4,-4 z"
     id="path2592" /><g
     id="g2782"><g
       id="g2675"
       style="display:inline"><path
         style="fill:none;stroke:#ffffff;stroke-width:1;stroke-linecap:round;stroke-linejoin:round;stroke-opacity:1;stop-color:#000000"
         d="M 33.857905,28.629272 24.204458,27.353124 8.5842531,26.993954 C 8.8237695,21.34247 9.7624847,15.87018 11.956,12.015161 c 0.560255,-0.984627 1.669935,-1.554021 3.204762,-1.68145 l 10.492165,-0.8711121 6.296941,2.1401911 1.889655,0.0785 c 1.154636,5.390874 0.603138,11.519261 0.01838,16.947982 z"
         id="path2590" /><g
         id="g2649"><path
           style="fill:none;stroke:#ffffff;stroke-width:1;stroke-linecap:round;stroke-linejoin:round;stroke-opacity:1;stop-color:#000000"
           d="m 9.584122,21.11655 12.929194,-0.289024 1.734558,-8.726067 c -4.870788,0.09131 -9.456469,0.332549 -12.697347,0.984288"
           id="path2588" /><path
           style="fill:none;stroke:#ffffff;stroke-width:1;stroke-linecap:round;stroke-linejoin:round;stroke-opacity:1;stop-color:#000000"
           d="m 30.168183,20.376754 c 0,0 0.77945,-0.809794 0.828635,-1.329737 l 0.347934,-3.67809 -4.707988,-1.503656 c -0.449546,-0.143578 -1.078953,0.05919 -1.212859,0.88488 l -1.026671,6.330647 3.461142,-1.122015 z"
           id="path2586" /></g><g
         id="g2660"><path
           style="fill:none;stroke:#ffffff;stroke-width:1;stroke-linecap:round;stroke-linejoin:round;stroke-opacity:1;stop-color:#000000"
           d="m 13.988144,23.069926 2.075666,-0.02957 -0.481606,1.173583 -1.313115,-0.06521 z"
           id="path2580" /><path
           style="fill:none;stroke:#ffffff;stroke-width:1;stroke-linecap:round;stroke-linejoin:round;stroke-opacity:1;stop-color:#000000"
           d="m 15.905106,23.432568 4.206971,-0.02919"
           id="path2578" /><path
           style="fill:none;stroke:#ffffff;stroke-width:1;stroke-linecap:round;stroke-linejoin:round;stroke-opacity:1;stop-color:#000000"
           d="m 10.305589,23.471418 3.78119,-0.02623"
           id="path2576" /><path
           style="fill:none;stroke:#ffffff;stroke-width:1;stroke-linecap:round;stroke-linejoin:round;stroke-opacity:1;stop-color:#000000"
           d="m 13.759997,27.125685 c -0.158523,-0.220289 -0.244401,-0.4898 -0.244401,-0.767004 0,-0.697834 0.532935,-1.263541 1.190345,-1.263541 0.65741,0 1.190346,0.565706 1.190346,1.263541 v 0 c 0,0.295179 -0.09736,0.581043 -0.27518,0.807984"
           id="path2574" /></g><g
         id="g2654"><path
           style="fill:none;stroke:#ffffff;stroke-width:1;stroke-linecap:round;stroke-linejoin:round;stroke-opacity:1;stop-color:#000000"
           d="m 29.669771,20.290704 c -0.114414,2.290511 -0.133913,3.810014 -0.398626,6.405662"
           id="path2584" /><path
           style="fill:none;stroke:#ffffff;stroke-width:1;stroke-linecap:round;stroke-linejoin:round;stroke-opacity:1;stop-color:#000000"
           d="M 31.742434,25.670901 28.98983,25.101234"
           id="path2582" /><path
           style="fill:none;stroke:#ffffff;stroke-width:1;stroke-linecap:round;stroke-linejoin:round;stroke-opacity:1;stop-color:#000000"
           d="m 24.297334,22.502692 -0.248902,3.44378"
           id="path2556" /></g></g><g
       id="g2681"><path
         style="fill:none;stroke:#ffffff;stroke-width:1;stroke-linecap:round;stroke-linejoin:round;stroke-opacity:1;stop-color:#000000"
         d="m 34.493344,15.083917 8.006307,3.700294"
         id="path2546" /><path
         style="fill:none;stroke:#ffffff;stroke-width:1;stroke-linecap:round;stroke-linejoin:round;stroke-opacity:1;stop-color:#000000"
         d="m 34.167281,28.5431 8.331852,1.913931"
         id="path2544" /><path
         style="fill:none;stroke:#ffffff;stroke-width:1;stroke-linecap:round;stroke-linejoin:round;stroke-opacity:1;stop-color:#000000"
         d="M 38.585143,27.896596 37.19231,30.924948"
         id="path2542" /><path
         style="fill:none;stroke:#ffffff;stroke-width:1;stroke-linecap:round;stroke-linejoin:round;stroke-opacity:1;stop-color:#000000"
         d="m 40.989491,28.564037 -1.374135,2.820895"
         id="path2540" /></g></g><g
     id="g2761"><g
       id="g2729"><path
         style="fill:none;stroke:#ffffff;stroke-width:1;stroke-linecap:round;stroke-linejoin:round;stroke-opacity:1;stop-color:#000000"
         d="m 8.5588507,28.242173 0.034378,2.513054 c -0.5160669,1.421562 -0.4429113,2.951742 -0.6146159,4.436784 5.3329082,0.04253 10.4842172,0.756338 15.8895002,1.402096 l 2.609594,0.51462 0.189806,-2.885612"
         id="path2564" /><path
         style="fill:none;stroke:#ffffff;stroke-width:1;stroke-linecap:round;stroke-linejoin:round;stroke-opacity:1;stop-color:#000000"
         d="m 24.745974,29.074519 -0.308971,4.263588 -0.01417,1.297351"
         id="path2554" /><g
         id="g2711"><path
           style="fill:none;stroke:#ffffff;stroke-width:1;stroke-linecap:round;stroke-linejoin:round;stroke-opacity:1;stop-color:#000000"
           d="M 10.627683,32.157203 10.010334,24.625995"
           id="path2572" /><path
           style="fill:none;stroke:#ffffff;stroke-width:1;stroke-linecap:round;stroke-linejoin:round;stroke-opacity:1;stop-color:#000000"
           d="m 20.352959,24.536444 -2.165346,8.060763"
           id="path2570" /><g
           id="g2689"><path
             style="fill:none;stroke:#ffffff;stroke-width:1;stroke-linecap:round;stroke-linejoin:round;stroke-opacity:1;stop-color:#000000"
             d="m 11.560193,31.056129 c 2.355055,0.358681 4.004915,0.314728 5.963368,0.248336"
             id="path2568" /><path
             style="fill:none;stroke:#ffffff;stroke-width:1;stroke-linecap:round;stroke-linejoin:round;stroke-opacity:1;stop-color:#000000"
             d="m 11.504056,29.814019 c 2.443513,0.358681 4.155343,0.314728 6.187357,0.248336"
             id="path2566" /></g><path
           style="fill:none;stroke:#ffffff;stroke-width:1;stroke-linecap:round;stroke-linejoin:round;stroke-opacity:1;stop-color:#000000"
           d="m 8.1552066,33.939606 1.1789234,0.200885 0.897529,-1.072192 8.205048,0.502125 1.260913,1.488646 3.435426,0.171027"
           id="path2558" /><g
           id="g2697"><path
             style="fill:none;stroke:#ffffff;stroke-width:1;stroke-linecap:round;stroke-linejoin:round;stroke-opacity:1;stop-color:#000000"
             d="m 9.3119818,30.492446 -0.670582,-0.08582"
             id="path2560" /><path
             style="fill:none;stroke:#ffffff;stroke-width:1;stroke-linecap:round;stroke-linejoin:round;stroke-opacity:1;stop-color:#000000"
             d="M 8.2359987,32.246382 9.462082,32.43026"
             id="path2552" /></g><g
           id="g2693"><path
             style="fill:none;stroke:#ffffff;stroke-width:1;stroke-linecap:round;stroke-linejoin:round;stroke-opacity:1;stop-color:#000000"
             d="m 20.771056,31.181096 2.343061,-0.137791"
             id="path2562" /><path
             style="fill:none;stroke:#ffffff;stroke-width:1;stroke-linecap:round;stroke-linejoin:round;stroke-opacity:1;stop-color:#000000"
             d="m 19.572622,33.118705 3.397721,0.07018"
             id="path2550" /></g></g><path
         style="fill:none;stroke:#ffffff;stroke-width:1;stroke-linecap:round;stroke-linejoin:round;stroke-opacity:1;stop-color:#000000"
         d="m 26.673006,33.582153 c 0.04732,-1.990292 1.643059,-4.27661 3.071558,-4.237402 0.901145,0.02473 1.432963,1.051264 1.716919,1.614747 l 1.979647,-0.271427 0.46614,-0.599287 -0.08972,-1.508732"
         id="path2548" /></g><g
       id="g2685"><path
         style="fill:none;stroke:#ffffff;stroke-width:1;stroke-linecap:round;stroke-linejoin:round;stroke-opacity:1;stop-color:#000000"
         d="m 33.203328,32.729695 6.074308,0.383085 c -0.104683,1.370185 -0.182276,2.825067 -0.693468,4.000029 l -5.651292,-0.163997 z"
         id="path2538" /><path
         style="fill:none;stroke:#ffffff;stroke-width:1;stroke-linecap:round;stroke-linejoin:round;stroke-opacity:1;stop-color:#000000"
         d="m 34.827536,32.831176 c 0.04809,1.462491 -0.04535,2.940543 -0.304457,4.166437"
         id="path2536" /></g><g
       id="g2636"><path
         style="fill:none;stroke:#ffffff;stroke-width:1;stroke-linecap:round;stroke-linejoin:round;stroke-opacity:1;stop-color:#000000"
         d="m 29.58434,40.171501 c -1.433042,0 -2.58672,-1.990369 -2.58672,-4.462707 0,-2.472338 1.153678,-4.462708 2.58672,-4.462708"
         id="path2534" /><path
         style="display:inline;fill:none;stroke:#ffffff;stroke-width:1;stroke-linecap:round;stroke-linejoin:round;stroke-opacity:1;stop-color:#000000"
         d="m 27.430255,31.104595 2.154085,0.141491 c 1.43304,0 2.58672,1.990372 2.58672,4.462708 0,2.472336 -1.15368,4.462707 -2.58672,4.462707 L 27.381384,40.0268 c -1.184684,0 -2.17845,-1.360267 -2.487318,-3.228571"
         id="path2532" /></g><g
       id="g2645"><path
         style="fill:none;stroke:#ffffff;stroke-width:1;stroke-linecap:round;stroke-linejoin:round;stroke-opacity:1;stop-color:#000000"
         d="m 15.351348,38.729204 c -1.115365,0 -2.030142,-1.435448 -2.165186,-3.302763"
         id="path2530" /><path
         style="fill:none;stroke:#ffffff;stroke-width:1;stroke-linecap:round;stroke-linejoin:round;stroke-opacity:1;stop-color:#000000"
         d="m 17.473652,35.83586 c -0.229467,1.663652 -1.089969,2.893344 -2.122304,2.893344 l -1.858594,-0.122621 c -0.999496,0 -1.83792,-1.152707 -2.098506,-2.735925"
         id="path2528" /></g><g
       id="g2641"><path
         style="fill:none;stroke:#ffffff;stroke-width:1;stroke-linecap:round;stroke-linejoin:round;stroke-opacity:1;stop-color:#000000"
         d="m 41.055504,39.419496 c -1.025029,0 -1.850236,-1.561259 -1.850236,-3.500574 0,-1.939315 0.825207,-3.500576 1.850236,-3.500576"
         id="path2526" /><path
         style="fill:none;stroke:#ffffff;stroke-width:1;stroke-linecap:round;stroke-linejoin:round;stroke-opacity:1;stop-color:#000000"
         d="m 42.506589,38.095859 c -0.338368,0.807444 -0.861695,1.323637 -1.451085,1.323637 l -1.575737,-0.113504 c -0.784899,0 -1.452638,-0.915452 -1.722415,-2.215095"
         id="path2524" /><path
         style="fill:none;stroke:#ffffff;stroke-width:1;stroke-linecap:round;stroke-linejoin:round;stroke-opacity:1;stop-color:#000000"
         d="m 39.514724,32.30736 1.54078,0.110986 c 0.58939,0 1.112717,0.516193 1.451085,1.323637"
         id="path2273" /></g></g></svg>
