<svg xmlns="http://www.w3.org/2000/svg" viewBox="0 0 48 48"><path d="M9.5 5.5h29c2.216 0 4 1.784 4 4v29c0 2.216-1.784 4-4 4h-29c-2.216 0-4-1.784-4-4v-29c0-2.216 1.784-4 4-4" style="fill:none;stroke:#fff;stroke-linecap:round;stroke-linejoin:round"/><path d="M22.685 21.22v4.83a2.936 2.936 0 0 0 2.927 2.926 2.936 2.936 0 0 0 2.927-2.927v-4.83M28.54 26.195v2.928M17.12 24.146a2.936 2.936 0 0 1 2.926-2.927M17.12 21.22v7.903M12.578 18.877v8.782c0 .878.586 1.464 1.464 1.464h.439M10.968 21.22h3.22M36.593 27.66c-.44.877-1.464 1.463-2.488 1.463a2.936 2.936 0 0 1-2.928-2.928v-1.902a2.936 2.936 0 0 1 2.928-2.928 2.936 2.936 0 0 1 2.927 2.928v1.024h-5.854" style="fill:none;stroke:#fff;stroke-linecap:round;stroke-linejoin:round"/></svg>