<?xml version="1.0" encoding="UTF-8" standalone="no"?>
<svg
   viewBox="0 0 48 48"
   version="1.1"
   id="svg1"
   sodipodi:docname="true_farm_shrimp.svg"
   inkscape:version="1.2.2 (b0a8486541, 2022-12-01)"
   xml:space="preserve"
   xmlns:inkscape="http://www.inkscape.org/namespaces/inkscape"
   xmlns:sodipodi="http://sodipodi.sourceforge.net/DTD/sodipodi-0.dtd"
   xmlns="http://www.w3.org/2000/svg"
   xmlns:svg="http://www.w3.org/2000/svg"><sodipodi:namedview
     id="namedview1"
     pagecolor="#505050"
     bordercolor="#eeeeee"
     borderopacity="1"
     inkscape:showpageshadow="0"
     inkscape:pageopacity="0"
     inkscape:pagecheckerboard="0"
     inkscape:deskcolor="#505050"
     inkscape:zoom="12.59534"
     inkscape:cx="1.1909167"
     inkscape:cy="16.911017"
     inkscape:window-width="1912"
     inkscape:window-height="1054"
     inkscape:window-x="0"
     inkscape:window-y="0"
     inkscape:window-maximized="1"
     inkscape:current-layer="svg1"
     showgrid="false" /><defs
     id="defs1"><style
       id="style1">.a { fill:none;stroke:#fff;stroke-linecap:round;stroke-linejoin:round; }
</style></defs><g
     id="g5578"><g
       id="g5540"><path
         style="fill:none;stroke:#ffffff;stroke-width:1;stroke-linecap:round;stroke-linejoin:round;stroke-opacity:1;stop-color:#000000"
         d="M 10.212878,19.944105 C 7.7240278,20.020605 5.4557538,19.348788 3.5141855,17.474536"
         id="path1803" /><path
         style="fill:none;stroke:#ffffff;stroke-width:1;stroke-linecap:round;stroke-linejoin:round;stroke-opacity:1;stop-color:#000000"
         d="m 35.85759,19.70416 c 8.077878,-4.282568 6.08676,-9.289122 0.340255,-8.468067 -4.989202,0.712853 -10.297823,3.394183 -15.353906,5.596369"
         id="path1801" /></g><g
       id="g5534"><path
         style="fill:none;stroke:#ffffff;stroke-width:1;stroke-linecap:round;stroke-linejoin:round;stroke-opacity:1;stop-color:#000000"
         d="m 14.191604,27.268234 c 1.380377,0.84553 1.728446,1.590018 1.786986,2.310326"
         id="path1793" /><path
         style="fill:none;stroke:#ffffff;stroke-width:1;stroke-linecap:round;stroke-linejoin:round;stroke-opacity:1;stop-color:#000000"
         d="m 15.514882,26.418491 c 0.98629,0.637072 1.672039,1.830231 1.736741,2.991778"
         id="path1791" /><path
         style="fill:none;stroke:#ffffff;stroke-width:1;stroke-linecap:round;stroke-linejoin:round;stroke-opacity:1;stop-color:#000000"
         d="m 18.654082,25.983402 c 0.557971,1.172406 0.230486,2.268488 -0.26195,3.335008"
         id="path1789" /></g><g
       id="g5528"><path
         style="fill:none;stroke:#ffffff;stroke-width:1;stroke-linecap:round;stroke-linejoin:round;stroke-opacity:1;stop-color:#000000"
         d="m 24.083354,25.541396 1.169508,1.548452 c -0.130285,0.545618 -0.231853,1.040312 -0.293407,1.532056"
         id="path1787"
         sodipodi:nodetypes="ccc" /><path
         style="fill:none;stroke:#ffffff;stroke-width:1;stroke-linecap:round;stroke-linejoin:round;stroke-opacity:1;stop-color:#000000"
         d="m 25.890924,25.281067 1.69341,2.708378 -0.07723,2.004693"
         id="path1785" /><path
         style="fill:none;stroke:#ffffff;stroke-width:1;stroke-linecap:round;stroke-linejoin:round;stroke-opacity:1;stop-color:#000000"
         d="m 28.641594,25.239634 0.97265,2.397149 c 0.198886,0.490166 0.148432,1.09479 -0.04653,1.586535 l -0.678752,1.712039"
         id="path1783" /><path
         style="fill:none;stroke:#ffffff;stroke-width:1;stroke-linecap:round;stroke-linejoin:round;stroke-opacity:1;stop-color:#000000"
         d="m 29.916076,24.899069 0.827878,1.776161 c 2.801581,0.972733 2.932857,1.657651 3.071439,4.041293"
         id="path1781" /><path
         style="fill:none;stroke:#ffffff;stroke-width:1;stroke-linecap:round;stroke-linejoin:round;stroke-opacity:1;stop-color:#000000"
         d="m 30.59895,24.637194 c 1.081767,0.444589 2.085388,1.014013 3.150393,1.73668 l 0.278689,0.93164"
         id="path1777"
         sodipodi:nodetypes="ccc" /></g><g
       id="g5550"><path
         style="fill:none;stroke:#ffffff;stroke-width:1;stroke-linecap:round;stroke-linejoin:round;stroke-opacity:1;stop-color:#000000"
         d="m 44.485815,23.112994 -6.545292,-0.880273 c -0.837829,0.423211 -1.355363,0.386853 -2.455357,0.508989 -0.981634,0.492762 -2.734931,0.83937 -4.241684,0.770115 -1.900217,2.565608 -5.769594,1.091662 -6.733232,1.897856 -4.489732,0.268006 -5.545034,-0.234823 -5.98693,0.486211 -1.867241,-0.101295 -3.076353,-0.262135 -3.224183,0.627927 -1.045068,0.450052 -2.128568,1.30016 -1.8868,1.870573 0.383179,0.904046 0.84471,1.572226 1.12907,2.327486 0.498954,0.115927 0.901891,0.515012 1.760492,1.136678 1.024562,0.741828 2.578459,0.05433 2.971506,0.902397 0.901373,0.04049 4.139342,-4.747889 4.692926,-2.180038 1.903403,-0.390537 0.326496,2.094797 -0.384545,2.805157 0.676332,0.466105 2.048345,1.362589 2.570921,2.132562 0.501847,0.739429 -2.574968,0.639392 -4.040845,0.38832 -2.467295,-0.42259 -4.001166,-0.385181 -5.151029,0.946929 C 13.79596,35.853606 11.495804,35.714204 10.137178,34.353945 4.1744379,30.290607 6.5664955,22.76733 9.5858995,21.063042 10.479173,19.999473 12.305838,18.803783 14.316819,18.353294 15.665054,16.92719 22.250925,16.817918 26.46448,17.47686 c 3.808435,0.595588 8.972907,1.673961 9.819049,3.017233 l 5.593919,1.382372"
         id="path1805" /><path
         style="fill:none;stroke:#ffffff;stroke-width:1;stroke-linecap:round;stroke-linejoin:round;stroke-opacity:1;stop-color:#000000"
         d="m 19.16486,32.712276 c -0.258295,1.474954 -1.662689,1.983504 -1.34739,3.322599"
         id="path1771" /><path
         style="fill:none;stroke:#ffffff;stroke-width:1;stroke-linecap:round;stroke-linejoin:round;stroke-opacity:1;stop-color:#000000"
         d="m 14.349704,30.77464 c -1.524977,2.534974 -3.596511,1.924994 -4.060406,3.599402"
         id="path1769" /><path
         style="fill:none;stroke:#ffffff;stroke-width:1;stroke-linecap:round;stroke-linejoin:round;stroke-opacity:1;stop-color:#000000"
         d="m 7.4235832,31.349292 0.7084244,-0.907104 c 1.7402815,0.109872 3.6455644,-0.842719 4.4256154,-2.245639 l 0.70169,0.164594"
         id="path1767" /><path
         style="fill:none;stroke:#ffffff;stroke-width:1;stroke-linecap:round;stroke-linejoin:round;stroke-opacity:1;stop-color:#000000"
         d="m 6.8331295,25.809123 c 2.4868841,-0.433756 2.4720387,0.512467 3.7310335,0.408449 0.92555,-0.07647 2.174166,-0.814489 3.003202,0.02168 0.345487,0.348461 0.34786,0.867803 0.156132,1.321133"
         id="path1765" /><path
         style="fill:none;stroke:#ffffff;stroke-width:1;stroke-linecap:round;stroke-linejoin:round;stroke-opacity:1;stop-color:#000000"
         d="M 16.15946,25.712894 C 15.765499,23.109752 14.051529,24.398006 12.299889,22.925135 11.428804,22.192681 10.530361,21.348979 9.2247682,21.493949"
         id="path1763" /><path
         style="fill:none;stroke:#ffffff;stroke-width:1;stroke-linecap:round;stroke-linejoin:round;stroke-opacity:1;stop-color:#000000"
         d="m 14.167269,18.5641 c 1.390247,1.952463 3.483029,1.901274 4.518593,3.787454 0.545767,0.994065 0.807077,2.041777 0.806983,3.097037"
         id="path1761" /><path
         style="fill:none;stroke:#ffffff;stroke-width:1;stroke-linecap:round;stroke-linejoin:round;stroke-opacity:1;stop-color:#000000"
         d="m 20.26624,17.397538 c 0.434266,4.001257 4.629764,4.803923 4.151767,7.795078"
         id="path1557" /></g></g></svg>
