<svg xmlns="http://www.w3.org/2000/svg" xml:space="preserve" id="svg1" version="1.1" viewBox="0 0 48 48"><path id="path31" d="M31.032 40.748c.31 0 .56.26.56.58v.592a.57.57 0 0 1-.56.58.569.569 0 0 1-.56-.58v-.591c0-.322.25-.58.56-.58zm1.852.239.213-.238v1.75m-8.51-4.53c.31 0 .56.259.56.58v.591c0 .322-.25.58-.56.58a.569.569 0 0 1-.56-.58v-.59c0-.322.25-.58.56-.58zm1.852.239.213-.239v1.751m9.279-2.485c.42 0 .759.364.759.816v.832c0 .452-.339.816-.76.816-.42 0-.758-.364-.758-.816v-.832c0-.452.338-.816.759-.816zm5.254 0c.42 0 .759.364.759.816v.832c0 .452-.339.816-.76.816-.42 0-.758-.364-.758-.816v-.832c0-.452.338-.816.759-.816zm-2.772.336.29-.336V39.7m2.527-5.874.29-.335v2.463m-2.772-2.463c.42 0 .76.364.76.816v.831c0 .453-.34.817-.76.817s-.759-.364-.759-.817v-.831c0-.452.339-.816.76-.816zm-13.962 0c.42 0 .759.364.759.816v.831c0 .453-.339.817-.759.817s-.759-.364-.759-.817v-.831c0-.452.339-.816.759-.816zm7.736.335.29-.335v2.463M30.04 33.49c.42 0 .759.364.759.816v.831c0 .453-.339.817-.76.817-.42 0-.758-.364-.758-.817v-.831c0-.452.338-.816.759-.816zm-2.772.335.29-.335v2.463m-1.397-8.165.422-.503v3.697m2.37-3.194.421-.503v3.697m6.268-3.697c.613 0 1.106.546 1.106 1.224v1.248c0 .679-.493 1.225-1.106 1.225-.613 0-1.106-.546-1.106-1.225V28.51c0-.678.493-1.224 1.106-1.224zm-3.898.503.422-.503v3.697M40.082 20.5c.613 0 1.107.547 1.107 1.225v1.248c0 .679-.494 1.225-1.107 1.225-.612 0-1.106-.546-1.106-1.225v-1.248c0-.678.494-1.225 1.106-1.225zm-3.84.504.422-.503v3.697M28.981 20.5c.613 0 1.106.547 1.106 1.225v1.248c0 .679-.493 1.225-1.106 1.225-.613 0-1.106-.546-1.106-1.225v-1.248c0-.678.493-1.225 1.106-1.225zm-3.84.504.421-.503v3.697m-9.964-9.461a6.098 6.098 0 1 0-3.444 11.13H22.65m6.495-11.141a6.1 6.1 0 0 1 9.425 3.936m-26.282-4.988a9.042 9.042 0 0 1 18.03.429" style="display:inline;fill:none;stroke:#fff;stroke-width:1;stroke-linecap:round;stroke-linejoin:round;stroke-opacity:1"/><defs id="defs1"><style id="style1">.a{fill:none;stroke:#fff;stroke-linecap:round;stroke-linejoin:round}</style></defs></svg>