<?xml version="1.0" encoding="UTF-8" standalone="no"?>
<!-- Created with Inkscape (http://www.inkscape.org/) -->

<svg
   width="48"
   height="48"
   viewBox="0 0 48 48"
   version="1.1"
   id="svg1"
   xml:space="preserve"
   inkscape:version="1.4 (e7c3feb100, 2024-10-09)"
   sodipodi:docname="sherpa.svg"
   xmlns:inkscape="http://www.inkscape.org/namespaces/inkscape"
   xmlns:sodipodi="http://sodipodi.sourceforge.net/DTD/sodipodi-0.dtd"
   xmlns="http://www.w3.org/2000/svg"
   xmlns:svg="http://www.w3.org/2000/svg"><sodipodi:namedview
     id="namedview1"
     pagecolor="#ffffff"
     bordercolor="#000000"
     borderopacity="0.25"
     inkscape:showpageshadow="2"
     inkscape:pageopacity="0.0"
     inkscape:pagecheckerboard="0"
     inkscape:deskcolor="#d1d1d1"
     inkscape:document-units="px"
     inkscape:zoom="12.297942"
     inkscape:cx="15.368426"
     inkscape:cy="22.605409"
     inkscape:window-width="1916"
     inkscape:window-height="1025"
     inkscape:window-x="0"
     inkscape:window-y="0"
     inkscape:window-maximized="0"
     inkscape:current-layer="layer1" /><defs
     id="defs1" /><g
     inkscape:label="Layer 1"
     inkscape:groupmode="layer"
     id="layer1"><path
       style="display:inline;fill:#000000"
       d="M 25.817868,8.892823 C 25.719861,8.7096959 25.579463,8.2389139 25.505872,7.8466408 l -0.133801,-0.713224 1.007777,0.057706 c 0.916811,0.052497 1.024756,0.1062112 1.195875,0.5950773 0.165491,0.4727872 0.125068,0.591588 -0.336343,0.9884766 -0.620789,0.5339803 -1.174342,0.579988 -1.421512,0.1181463 z"
       id="path35"
       inkscape:label="Ro" /><path
       style="fill:none;stroke:#000000;stroke-opacity:1"
       d="m 32.965612,9.1951508 c 0.25752,-0.4811804 0.07058,-0.9987589 -0.494438,-1.3689756 l -0.463361,-0.303606 v 1.1164012 c 0,1.0295051 0.02977,1.108615 0.382525,1.0163686 0.210389,-0.055018 0.469262,-0.2621026 0.575274,-0.4601882 z"
       id="path34"
       inkscape:label="Po" /><path
       style="fill:none;stroke:#000000;stroke-opacity:1"
       d="m 28.674445,14.068044 c -0.902789,-0.471249 -1.497074,-2.148993 -2.281097,-2.150964 -0.105294,1.068616 -2.172055,2.469839 -2.206113,0.671656 0.09108,-1.299262 0.177543,-2.6383826 -0.12501,-3.9156777 0.0011,-1.2635896 -3.274988,-0.1019413 -1.500209,0.2921456 1.909251,0.4155388 0.07449,2.2216641 -0.927968,2.3597461 0.806778,-0.01523 2.387708,0.431379 1.277606,1.433618 -0.7561,0.707512 -2.311595,1.114976 -3.078929,0.269843 -0.529156,-1.230179 0.0059,-2.622734 -0.248069,-3.912334 0.08002,-1.2240743 -1.464505,-2.871328 0.09849,-3.6666502 1.117937,-0.1662163 2.182174,0.8002349 3.395862,0.4278544 1.705094,0.078875 3.579114,-0.6103997 5.154038,0.2803768 1.265636,1.0402462 0.360821,2.6322115 -0.574642,3.4019813 0.560819,0.8528197 1.345012,2.0953527 2.264485,2.4091207 0.476202,-1.579983 -0.337708,-3.4516707 -0.201692,-4.8814302 1.00317,-1.0870566 2.814843,-2.0713814 4.090471,-0.8167456 1.266176,0.8562524 1.631879,2.8111091 0.16671,3.6783539 -1.620911,0.7468319 -1.746908,2.5134539 -2.929449,3.6340799 -0.584182,0.692703 -1.600695,1.258369 -2.374485,0.485026 z"
       id="path31"
       inkscape:label="ERP" /><path
       style="fill:none;stroke:#000000;stroke-opacity:1;fill-opacity:1"
       d="M 17.792578,14.534727 C 16.16328,14.122179 17.00261,11.934106 15.899443,11.182928 14.478548,10.870418 14.872297,13.977793 13.403687,12.919499 12.458327,11.766508 13.324468,10.136238 12.757684,8.8166494 12.349721,7.1683527 10.444358,7.3124697 9.2446295,7.9196138 7.7253297,7.6686992 7.381718,10.087121 9.1251128,9.3806704 10.290627,9.3440656 12.244429,8.9174258 12.549909,10.492734 12.699722,12.143454 11.058474,13.050957 9.7439363,13.566486 8.8353076,14.365432 6.6180948,13.377374 8.2295977,12.475766 9.4443488,12.382704 10.541243,10.758601 8.7353898,10.577061 7.2194555,10.910783 5.1536564,10.142302 5.467523,8.2466455 6.0543126,6.18173 8.5388062,5.7612451 10.387723,5.7208562 c 1.257569,0.1729767 2.988718,-0.4486642 3.813724,0.8010179 0.29426,1.2527302 1.817499,2.8551378 2.506485,0.9247069 0.502439,-1.7276214 2.451107,-0.6456134 1.745897,0.8152629 -0.251833,1.5554919 -0.03798,3.1934541 0.592016,4.6364291 0.258493,0.813206 -0.22637,1.985334 -1.253267,1.636454 z"
       id="path28"
       inkscape:label="SH" /><path
       style="fill:#000000"
       d="m 36.555693,10.488304 c -0.06203,0.374156 1.620704,0.38789 1.725164,0.283436 0.09486,-0.09486 -0.434336,-2.4047584 -0.545226,-2.1829822 -0.176155,0.4546284 -1.086559,1.7518572 -1.179938,1.8995462 z"
       id="path27"
       sodipodi:nodetypes="ssss"
       inkscape:label="Ao" /><path
       style="fill:none;stroke:#000000;stroke-linecap:round;stroke-linejoin:round;stroke-opacity:1"
       d="m 40.349264,14.544727 c -0.510143,-0.453121 -0.744874,-1.134605 -1.264351,-1.579215 -0.709531,-0.08586 -1.441976,-0.02082 -2.128518,-0.253878 -0.681201,-0.151493 -1.189269,0.359692 -1.651721,0.742186 -0.642736,0.192191 -1.213324,-0.484533 -1.183322,-1.09324 1.436741,-2.6547845 0.676634,-1.078407 3.245458,-6.4510028 0.455599,-0.4805892 1.354695,-0.056773 1.378991,0.5726453 0.995472,2.2674568 2.17617,4.4501395 3.416816,6.5908145 0.321202,0.465905 0.525706,1.209503 0.02865,1.63382 -0.302561,0.39052 -0.857787,0.671633 -1.320386,0.346065 -0.219393,-0.122006 -0.331074,-0.353368 -0.521619,-0.508195 z"
       id="path25"
       sodipodi:nodetypes="scccccccccss"
       inkscape:label="A" /><path
       style="display:inline;fill:#000000"
       d="M 8.9927769,46.436897 C 8.8150767,43.81933 11.246861,41.590841 10.354116,38.92927 9.7593346,35.706789 9.7956866,32.502579 9.2382889,29.441383 6.8884776,25.241852 12.640119,23.827866 15.704089,24.161588 c 2.63244,-2.074412 5.58666,5.491713 6.747734,1.32945 -3.5081,-1.966889 -0.248883,-4.242297 1.917807,-5.113449 1.272703,-3.579202 5.472888,-4.406062 8.258417,-1.899859 2.944349,1.058143 7.075223,4.35288 2.171834,6.142794 -2.037641,1.550979 -6.449386,4.531558 -3.904986,7.20354 -0.260142,3.119663 1.718838,5.669067 1.849655,8.578652 0.05415,5.07049 7.77691,0.637114 6.905858,5.993616 -1.463438,2.673737 -0.157472,-4.020541 -3.643072,-2.638335 -3.055514,-0.350759 -6.016959,-2.805058 -8.081612,-5.143266 -1.314987,-1.402637 -3.393543,-8.105518 -0.351109,-4.348097 1.037366,1.882401 2.125687,6.819047 4.796708,5.46561 -0.487568,-1.078775 -1.928475,-6.374852 -2.647528,-2.727271 -2.104385,-2.4609 2.240601,-5.585535 -0.766322,-7.804053 1.636574,-1.39456 2.917944,-3.035103 4.270374,-4.715297 3.129911,-0.06736 4.841254,-3.916663 0.766202,-4.427895 -2.832749,-1.391479 -6.421915,-4.616247 -8.652415,-0.312458 -1.050668,1.971531 -5.588239,2.94209 -2.480602,5.688053 1.982615,3.172734 -3.264449,0.778479 -3.245607,2.579483 -1.32345,-1.966903 -1.818467,-4.662668 -4.745268,-3.217242 -3.432391,-0.681212 -7.2462008,2.145269 -4.631753,5.600349 -0.08073,3.580224 0.881691,6.964205 0.757352,10.716901 -0.819039,1.765035 -1.1719594,6.321926 -1.5935461,6.178809 L 9.1665811,46.920511 8.9927769,46.436894 Z"
       id="path1"
       inkscape:label="Contour" /></g></svg>
