<?xml version="1.0" encoding="UTF-8"?><svg id="b" xmlns="http://www.w3.org/2000/svg" viewBox="0 0 48 48"><defs><style>.d{fill:none;stroke:#fff;stroke-linecap:round;stroke-linejoin:round;}</style></defs><path class="d" d="M31.1661,9.8503l2.6384-4.134c-3.896-1.4604-8.27-1.6112-12.2572-.4226-3.9873,1.1886-7.5648,3.7097-10.0253,7.0649-2.6477,3.6106-3.977,8.1665-3.6865,12.6339.2906,4.4674,2.1988,8.8133,5.2918,12.0505l2.1802-3.1254c-2.4478-2.6536-3.8758-6.2253-3.9322-9.8351-.0564-3.6097,1.2593-7.2243,3.6229-9.9532,1.9385-2.2381,4.5617-3.875,7.4241-4.6327,2.8624-.7576,5.9518-.6328,8.7438.3532v.0006Z"/><path class="d" d="M33.5153,25.0915c-.6308.0122-1.2641-.13-1.8291-.4108.5536-.588,1.2655-1.0254,2.0402-1.2538.7862-.2317,1.635-.2471,2.4291-.0441l-.3642.2137-.1506.8228c-.6246.4211-1.3721.6575-2.1253.6721h0Z"/><path class="d" d="M18.0841,34.6856c-.5943.2385-1.1188.6484-1.4937,1.1675s-.5991,1.1459-.6386,1.7851c-.0395.6392.106,1.2888.4142,1.85.3082.5613.7782,1.0326,1.3387,1.3424.534.2951,1.1457.4428,1.7559.4448.6102.002,1.2181-.1399,1.7734-.3926,1.1107-.5055,1.9897-1.443,2.571-2.5159.544-1.004.8462-2.1381.8739-3.2797l2.1194-.3631c1.1666.7571,2.4546,1.3265,3.7995,1.68,1.9507.5126,4.054.5607,5.9643-.0861.4089-.1385.8125-.3108,1.1536-.5753.3412-.2645.6179-.6302.7097-1.0521.0708-.3253.027-.6743-.1218-.9721s-.4018-.5422-.7045-.6808l1.3117-.9194c-.1212-.0302-.2428-.0587-.3647-.0855-1.076-.2364-2.1812-.3397-3.2825-.3068,1.0291-.1913,2.0403-.4788,3.0161-.8573.2121-.0823.4225-.1688.631-.2596-.1738-.2325-.286-.5093-.3311-.7961-.045-.2868-.0202-.5794.0119-.8679l.0456-.4092c.1785.0854.3825.1166.5784.0885s.3829-.1153.5303-.2473c.1928-.1727.3127-.4145.3819-.6638.1208-.4349.0965-.9088-.0682-1.3291-.7569-1.7472-1.4634-3.5161-2.1184-5.3039-.7687-2.0982-1.4666-4.2223-2.0918-6.3677l.4411-.3768-1.9787-4.9182-2.2964,2.6858c-2.6319-1.1759-5.6596-1.444-8.4573-.7489-2.7977.6951-5.3477,2.3491-7.1231,4.6202-1.6877,2.1588-2.6684,4.8613-2.7578,7.6001-.0894,2.7388.7129,5.4994,2.2562,7.7637l2.1505,3.3471ZM18.0644,34.6938c1.1221-.6626,2.181-1.432,3.1577-2.2947,3.8895-3.4351,6.3253-8.1826,9.5198-12.2718,1.6489-2.1108,3.51-4.0558,5.5463-5.796M34.3091,9.4282c-2.504,2.8297-4.8419,5.8063-6.9976,8.9095-2.4272,3.4939-4.635,7.1625-7.4594,10.3439-1.0589,1.1928-2.2006,2.3121-3.4141,3.3471M36.6644,27.4722c-.1645.0173-.3216.0978-.4317.2212s-.1724.2886-.171.454c.0013.1654.0663.3295.1785.4511s.2706.1995.4353.2141c.1418.0126.2841-.0201.4187-.0668.1345-.0467.2639-.1074.3985-.1539.3656-.1262.7681-.1435,1.1431-.0489"/><path class="d" d="M28.9321,11.1612l.5495-1.636"/><path class="d" d="M14.3918,32.5577l1.4003-1.3455"/><path class="d" d="M33.0861,36.7966c-.3893,1.065-.6154,2.1894-.6679,3.3221-.0414.8927.0247,1.7903.1964,2.6672l3.6844-1.3795-3.8503-1.6938M32.6159,42.7863c-2.2301.6345-4.5788.8496-6.8871.6306-2.5953-.2462-5.137-1.0423-7.409-2.3207.4082.1309.8387.1921,1.2673.1802.6541-.0183,1.2984-.2071,1.8781-.5103.4266-.2231.8208-.508,1.1664-.8431l9.9806,2.8496"/><path class="d" d="M35.8453,14.7083c.2389,1.1346.0724,2.3502-.4627,3.3788-.5168.9933-1.3732,1.806-2.3922,2.27-.0785.5929-.2921,1.1674-.6199,1.6676-.4493.6855-1.1147,1.2271-1.8771,1.5279-.1837,1.1904-.7897,2.3113-1.685,3.1169-.9748.8771-2.2859,1.3703-3.5972,1.3532.4762.2906.9309.6164,1.3593.9738.2284.1906.4507.3916.6329.6267s.324.5072.3739.8005c.0502.2951.004.6059-.1298.8736-.1339.2678-.3548.4912-.621.6281.3109.5321.4332,1.1719.3405,1.7811-.0524.3443-.1717.6783-.3492.9779"/><path class="d" d="M22.1945,31.4748c.5612.9084.8666,1.973.8723,3.0407.0053.9897-.245,1.9772-.7017,2.8551-.3555.6834-.8535,1.3179-1.5301,1.6862-.4781.2602-1.0332.3766-1.5755.3304-.5423-.0462-1.0698-.2549-1.497-.5923M20.335,33.1623c.4333.3897.7381.9199.857,1.4904.1189.5705.0511,1.1783-.1904,1.7086-.2513.5517-.6795,1.0081-1.1627,1.3742-.6305.4778-1.3656.8169-2.1384.9864-.1938-.2692-.305-.597-.315-.9286-.0101-.3315.0811-.6655.2582-.9459.2827-.4477.7884-.7466,1.317-.7784l-.8827-1.3919"/></svg>