<?xml version="1.0" encoding="UTF-8"?>
<svg data-name="Layer 1" version="1.1" viewBox="0 0 48 48" xml:space="preserve" xmlns="http://www.w3.org/2000/svg"><defs><style>
      .cls-1 {
        fill: none;
        stroke: #fff;
        stroke-linecap: round;
        stroke-linejoin: round;
      }
    </style></defs><g fill="none" stroke="#fff" stroke-linecap="round" stroke-linejoin="round"><path transform="translate(-.025672 -.11143)" d="m30.438 11.45 2.3609-3.6992c-3.4862-1.3068-7.4001-1.4417-10.968-0.37813s-6.7691 3.3195-8.9708 6.3218c-2.3692 3.2308-3.5587 7.3075-3.2987 11.305s1.9675 7.8863 4.7352 10.783l1.9509-2.7967c-2.1903-2.3745-3.4681-5.5705-3.5186-8.8006-0.05049-3.23 1.1268-6.4644 3.2418-8.9063 1.7346-2.0027 4.0819-3.4674 6.6432-4.1454 2.5613-0.67794 5.3258-0.56628 7.8241 0.31603z"/><path transform="translate(-.0035754 .26468)" d="m32.518 24.712c-0.56447 0.01094-1.1311-0.11632-1.6367-0.36758 0.49537-0.52612 1.1324-0.91759 1.8256-1.1219 0.70352-0.20732 1.463-0.22112 2.1736-0.03949l-0.32587 0.19125-0.1348 0.73629c-0.55893 0.3768-1.2278 0.58832-1.9018 0.60138z"/><path transform="translate(-.025672 -.11143)" d="m18.732 33.673c-0.53183 0.21337-1.0011 0.58016-1.3366 1.0447s-0.53611 1.0254-0.57141 1.5973c-0.03531 0.57195 0.09482 1.1532 0.37062 1.6554 0.27581 0.5023 0.69638 0.92401 1.1979 1.2012 0.47787 0.26408 1.0252 0.39623 1.5712 0.39802 0.54598 0.0018 1.09-0.12515 1.5869-0.35132 0.99388-0.45234 1.7804-1.2912 2.3006-2.2513 0.48679-0.89842 0.75717-1.9132 0.78194-2.9347l1.8965-0.32492c1.0439 0.67744 2.1964 1.187 3.3999 1.5033 1.7455 0.45867 3.6276 0.50176 5.337-0.07707 0.36593-0.12391 0.72701-0.27807 1.0323-0.51478 0.30534-0.2367 0.55287-0.56395 0.63502-0.94145 0.06334-0.29106 0.0242-0.60338-0.109-0.86982-0.1332-0.26644-0.35954-0.48516-0.63038-0.60916l1.1737-0.82269c-0.10842-0.02701-0.21722-0.05251-0.32636-0.07649-0.96286-0.21155-1.9518-0.30398-2.9372-0.27452 0.92084-0.17122 1.8257-0.42842 2.6989-0.76716 0.18976-0.07362 0.37804-0.15107 0.56467-0.2323-0.15553-0.20805-0.25596-0.45576-0.29624-0.71238-0.04028-0.25662-0.01808-0.51847 0.01068-0.77663l0.04079-0.36613c0.15974 0.07638 0.34226 0.10433 0.51754 0.07923 0.17528-0.0251 0.34262-0.10314 0.47451-0.22128 0.17248-0.15451 0.27978-0.37086 0.34175-0.59399 0.10809-0.38918 0.08634-0.81325-0.06101-1.1893-0.67725-1.5634-1.3095-3.1463-1.8956-4.746-0.68789-1.8775-1.3123-3.7782-1.8718-5.6979l0.39474-0.33719-1.7706-4.4009-2.0549 2.4033c-2.3551-1.0522-5.0643-1.2921-7.5677-0.67009-2.5034 0.62203-4.7852 2.102-6.3739 4.1342-1.5102 1.9317-2.3877 4.35-2.4677 6.8007-0.07999 2.4507 0.63792 4.921 2.0189 6.9471zm-0.01762 0.0074c1.0041-0.59289 1.9516-1.2814 2.8256-2.0533 3.4804-3.0738 5.66-7.3219 8.5185-10.981 1.4755-1.8888 3.1408-3.6292 4.9629-5.1864m-1.771-4.3874c-2.2406 2.5321-4.3326 5.1956-6.2616 7.9724-2.1719 3.1264-4.1475 6.4091-6.6748 9.2559-0.94753 1.0673-1.9691 2.0689-3.055 2.995m18.099-4.0772c-0.14721 0.01552-0.28775 0.08754-0.38633 0.19797-0.09858 0.11043-0.15424 0.25821-0.15302 0.40624 0.0012 0.14802 0.05932 0.29486 0.15971 0.40365 0.10039 0.10879 0.2421 0.17848 0.38954 0.19156 0.12692 0.01127 0.25426-0.01797 0.37464-0.05974 0.12038-0.04176 0.23611-0.0961 0.35654-0.13769 0.32714-0.11297 0.68729-0.12839 1.0229-0.04378"/><path transform="translate(-.025672 -.11143)" d="m28.439 12.623 0.49166-1.4639"/><path transform="translate(-.025672 -.11143)" d="m15.428 31.769 1.253-1.204"/><path transform="translate(-.025672 -.11143)" d="m32.156 35.562c-0.34837 0.95294-0.55066 1.9591-0.59766 2.9727-0.03704 0.79878 0.02212 1.602 0.17578 2.3867l3.2969-1.2344-3.4453-1.5156m0.14954 2.7503c-1.9955 0.56776-4.0972 0.7602-6.1627 0.56429-2.3223-0.22026-4.5967-0.93269-6.6297-2.0766 0.36529 0.11716 0.7505 0.17192 1.134 0.16122 0.58532-0.01634 1.1618-0.1853 1.6806-0.45665 0.38172-0.19962 0.73444-0.45458 1.0437-0.75443l8.9308 2.5499"/><path transform="translate(-.025672 -.11143)" d="m34.625 15.797c0.21378 1.0153 0.06481 2.103-0.41406 3.0234-0.46246 0.88884-1.2288 1.616-2.1406 2.0312-0.07022 0.5305-0.26134 1.0446-0.55469 1.4922-0.40205 0.6134-0.99744 1.098-1.6797 1.3672-0.16438 1.0652-0.7066 2.0682-1.5078 2.7891-0.87223 0.78481-2.0455 1.2262-3.2188 1.2109 0.42611 0.26005 0.83301 0.55156 1.2163 0.87138 0.20439 0.17055 0.40325 0.35039 0.56633 0.56078 0.16308 0.21039 0.2899 0.45385 0.33456 0.71628 0.04494 0.26409 0.0036 0.54215-0.11618 0.78175-0.1198 0.2396-0.31745 0.4395-0.55569 0.562 0.27817 0.47612 0.38762 1.0486 0.30469 1.5938-0.04686 0.30808-0.1536 0.60694-0.3125 0.875"/><path transform="translate(-.025672 -.11143)" d="m22.41 30.8c0.50218 0.81286 0.77545 1.7655 0.78056 2.7209 0.0047 0.8856-0.21924 1.7692-0.62793 2.5548-0.31809 0.6115-0.76377 1.1793-1.3692 1.5088-0.42779 0.23284-0.92455 0.33701-1.4098 0.29564-0.48529-0.04137-0.95725-0.22811-1.3395-0.52999m2.302-5.0402c0.3877 0.34873 0.6605 0.82315 0.76687 1.3336 0.10637 0.5105 0.04576 1.0544-0.17039 1.5289-0.22486 0.49369-0.60805 0.90205-1.0404 1.2297-0.56422 0.42758-1.222 0.731-1.9135 0.88267-0.17338-0.24091-0.27289-0.53423-0.28188-0.8309-9e-3 -0.29667 0.07257-0.59548 0.23104-0.84645 0.25298-0.40064 0.70548-0.6681 1.1785-0.69654l-0.78984-1.2455"/></g></svg>
