<?xml version="1.0" encoding="UTF-8"?><svg id="a" xmlns="http://www.w3.org/2000/svg" viewBox="0 0 48 48"><defs><style>.d{fill:none;stroke:#fff;stroke-linecap:round;stroke-linejoin:round;}</style></defs><path class="d " d="m35.512 10.418c-2.9505-3.0817-7.0815-4.9175-11.512-4.9175-6.4448-3e-7 -12.255 3.8832-14.722 9.8374-2.4663 5.9542-1.1028 12.808 3.4544 17.365l8.7633 8.7633c1.3829 1.383 3.6251 1.383 5.0079 0l8.7633-8.7632c4.5572-4.5572 5.9208-11.411 3.4544-17.365-0.77072-1.8607-1.8682-3.5191-3.2094-4.9199z"/><circle class="d" cx="24.003" cy="21.432" r="5.3114"/><path class="d" d="m12.733 32.702c-1.3828-1.3828-1.3828-3.6248 0-5.0077 1.3828-1.3828 3.6248-1.3828 5.0077 1e-6l6.2596 6.2596 15.628-15.628"/></svg>
