<svg version="1.1" viewBox="0 0 48 48" xmlns="http://www.w3.org/2000/svg"><defs><style>.a{fill:none;stroke:#fff;stroke-linecap:round;stroke-linejoin:round;}</style><style>.a{fill:none;stroke:#fff;stroke-linecap:round;stroke-linejoin:round;}</style></defs><g fill="none" stroke="#fff" stroke-linecap="round" stroke-linejoin="round"><path d="m17.473 14.133 7.2651 19.729 7.2646-19.729h-3.1137l-4.1509 11.279-4.1511-11.279h-16.087v3.1151h6.4006l4e-4 16.614h3.1137l-1e-4 -16.614 4.6084 2.16e-4" stop-color="#000000" style="paint-order:markers stroke fill"/><g transform="matrix(1.6164 0 0 1.6457 -17.641 -1.3039)" stroke-width=".61312"><path class="t" d="m35.812 18.069c0-1.1046 0.8954-2 2-2"/><line class="t" x1="35.812" x2="35.812" y1="16.069" y2="21.369"/></g><path class="t" d="m36.503 32.202c-0.55687 0.99219-1.6063 1.661-2.8091 1.661-1.7855 0-3.2329-1.4736-3.2329-3.2914v-2.1394c0-1.8178 1.4474-3.2914 3.2329-3.2914s3.2329 1.4736 3.2329 3.2914v1.0697h-6.4658"/></g></svg>
