<?xml version="1.0" encoding="UTF-8"?>
<svg id="b" version="1.1" viewBox="0 0 48 48" xmlns="http://www.w3.org/2000/svg"><defs><style>.c{fill:#fff;}.d{fill:none;stroke:#fff;stroke-linecap:round;stroke-linejoin:round;}</style></defs><path class="d" d="m10.171 13.794-3.4027 19.805c-0.2617 1.396-0.0872 2.7919 0.5235 4.0134 2.7047 5.5839 11.691 3.7517 11.604-7.5906"/><line class="d" x1="12.003" x2="14.446" y1="21.297" y2="20.425"/><line class="d" x1="4.5" x2="8.6879" y1="23.828" y2="22.432"/><rect class="d" x="18.198" y="7.7739" width="23.034" height="12.564"/><line class="d" x1="23.433" x2="36.258" y1="17.056" y2="17.056"/><circle class="c" cx="22.037" cy="11.054" r=".75"/><circle class="c" cx="25.876" cy="11.054" r=".75"/><circle class="c" cx="29.715" cy="11.054" r=".75"/><circle class="c" cx="33.554" cy="11.054" r=".75"/><circle class="c" cx="37.393" cy="11.054" r=".75"/><circle class="c" cx="22.037" cy="13.672" r=".75"/><circle class="c" cx="25.876" cy="13.672" r=".75"/><circle class="c" cx="29.715" cy="13.672" r=".75"/><circle class="c" cx="33.554" cy="13.672" r=".75"/><circle class="c" cx="37.393" cy="13.672" r=".75"/><g fill="none" stroke="#fff" stroke-linecap="round" stroke-linejoin="round"><path class="a" d="m37 28.6a8.46 8.46 0 1 0 8.46 8.46 8.45 8.45 0 0 0-8.46-8.46zm3.43 11.76-6.23 0.09a3 3 0 0 1-3-3 3 3 0 0 1 3.1-3.12l-1.3-1.33 8.76 8.65zm-6.08-6a3.25 3.25 0 0 1 5.69 0.09 4.8 4.8 0 0 1 0.43 1 2.94 2.94 0 0 1 2.53 2.8 1.89 1.89 0 0 1-1.8 2.11h-0.74"/><path d="m43.5 23.566c-0.07723 4.952-1.511 6.6889-1.511 6.6889" stop-color="#000000" style="paint-order:fill markers stroke"/><path d="m31.198 26.707c-0.17249 2.786 0.38434 3.8456 0.38434 3.8456" stop-color="#000000" style="paint-order:fill markers stroke"/><path class="d" d="m18.896 30.022c-0.0872 1.396 0 3.0537 0.6107 4.2752 1.7918 3.6413 6.3403 4.0663 9.2068 0.66628"/><path class="d" d="m30.492 31.647c0.44568-1.3803 0.70619-3.0235 0.70619-4.9398"/></g></svg>
