<?xml version="1.0" encoding="UTF-8"?>
<svg xmlns="http://www.w3.org/2000/svg" version="1.1" viewBox="0 0 48 48">
  <path d="M15.14,23.95c0,2.41-1.95,4.36-4.36,4.36s-4.36-1.95-4.36-4.36,1.95-4.36,4.36-4.36,4.36,1.95,4.36,4.36Z" fill="none" stroke="#fff" stroke-linecap="round" stroke-linejoin="round"/>
  <path d="M24.37,6.78c-1.76-1.76-4.65-1.71-6.33.17-1.58,1.75-1.34,4.5.33,6.18l10.87,10.87-10.87,10.87c-1.67,1.67-1.92,4.42-.33,6.18,1.69,1.88,4.58,1.93,6.33.17l17.21-17.21L24.37,6.78Z" fill="none" stroke="#fff" stroke-linecap="round" stroke-linejoin="round"/>
  <polyline points="35.41 30.16 29.24 23.99 35.41 17.82" fill="none" stroke="#fff" stroke-linecap="round" stroke-linejoin="round"/>
</svg>