<svg xmlns="http://www.w3.org/2000/svg" xml:space="preserve" viewBox="0 0 48 48"><path d="M13.54 8.028h18.735a4.517 4.517 0 0 1 4.528 4.527v26.418a4.517 4.517 0 0 1-4.528 4.527H13.54a4.517 4.517 0 0 1-4.527-4.527V12.555a4.517 4.517 0 0 1 4.527-4.527M12.615 7.995V6.764c0-1.254.874-2.264 1.96-2.264v0c1.086 0 1.96 1.01 1.96 2.264V7.9M36.93 15.68a2.26 2.26 0 0 1 2.058 2.254v3.885c0 1.184-.9 2.15-2.058 2.254" style="vector-effect:none;fill:none;stroke:#fff;stroke-width:1;stroke-linecap:round;stroke-linejoin:round;stroke-opacity:1;stop-color:#000"/><path d="M14.505 12.561H31.31a2.26 2.26 0 0 1 2.264 2.264v6.603a2.26 2.26 0 0 1-2.264 2.264H14.505a2.26 2.26 0 0 1-2.263-2.264v-6.603a2.26 2.26 0 0 1 2.263-2.264" style="vector-effect:none;fill:none;stroke:#fff;stroke-width:1;stroke-linecap:round;stroke-linejoin:round;stroke-opacity:1;stop-color:#000"/><path d="M17.518 31.856a.75.75 0 0 1-.75.75.75.75 0 0 1-.75-.75.75.75 0 0 1 .75-.75.75.75 0 0 1 .75.75M30.65 31.856a.75.75 0 0 1-.75.75.75.75 0 0 1-.75-.75.75.75 0 0 1 .75-.75.75.75 0 0 1 .75.75M20.801 31.856a.75.75 0 0 1-.75.75.75.75 0 0 1-.75-.75.75.75 0 0 1 .75-.75.75.75 0 0 1 .75.75M24.084 31.856a.75.75 0 0 1-.75.75.75.75 0 0 1-.75-.75.75.75 0 0 1 .75-.75.75.75 0 0 1 .75.75M27.367 31.856a.75.75 0 0 1-.75.75.75.75 0 0 1-.75-.75.75.75 0 0 1 .75-.75.75.75 0 0 1 .75.75M17.518 35.084a.75.75 0 0 1-.75.75.75.75 0 0 1-.75-.75.75.75 0 0 1 .75-.75.75.75 0 0 1 .75.75M30.65 35.084a.75.75 0 0 1-.75.75.75.75 0 0 1-.75-.75.75.75 0 0 1 .75-.75.75.75 0 0 1 .75.75M20.801 35.084a.75.75 0 0 1-.75.75.75.75 0 0 1-.75-.75.75.75 0 0 1 .75-.75.75.75 0 0 1 .75.75M24.084 35.084a.75.75 0 0 1-.75.75.75.75 0 0 1-.75-.75.75.75 0 0 1 .75-.75.75.75 0 0 1 .75.75M27.367 35.084a.75.75 0 0 1-.75.75.75.75 0 0 1-.75-.75.75.75 0 0 1 .75-.75.75.75 0 0 1 .75.75M20.801 28.628a.75.75 0 0 1-.75.75.75.75 0 0 1-.75-.75.75.75 0 0 1 .75-.75.75.75 0 0 1 .75.75M24.084 28.628a.75.75 0 0 1-.75.75.75.75 0 0 1-.75-.75.75.75 0 0 1 .75-.75.75.75 0 0 1 .75.75M27.367 28.628a.75.75 0 0 1-.75.75.75.75 0 0 1-.75-.75.75.75 0 0 1 .75-.75.75.75 0 0 1 .75.75M20.801 38.312a.75.75 0 0 1-.75.75.75.75 0 0 1-.75-.75.75.75 0 0 1 .75-.75.75.75 0 0 1 .75.75M24.084 38.312a.75.75 0 0 1-.75.75.75.75 0 0 1-.75-.75.75.75 0 0 1 .75-.75.75.75 0 0 1 .75.75M27.367 38.312a.75.75 0 0 1-.75.75.75.75 0 0 1-.75-.75.75.75 0 0 1 .75-.75.75.75 0 0 1 .75.75" style="fill:#fff;stroke-width:1;stroke-linecap:round;stroke-linejoin:round;stroke-opacity:.656326"/></svg>