<?xml version="1.0" encoding="UTF-8" standalone="no"?>
<svg
   id="Layer_1"
   data-name="Layer 1"
   version="1.1"
   viewBox="0 0 48 48"
   sodipodi:docname="ultra_alarmsvg.svg"
   inkscape:version="1.3.2 (091e20ef0f, 2023-11-25)"
   xml:space="preserve"
   xmlns:inkscape="http://www.inkscape.org/namespaces/inkscape"
   xmlns:sodipodi="http://sodipodi.sourceforge.net/DTD/sodipodi-0.dtd"
   xmlns="http://www.w3.org/2000/svg"
   xmlns:svg="http://www.w3.org/2000/svg"><sodipodi:namedview
     id="namedview1"
     pagecolor="#242424"
     bordercolor="#000000"
     borderopacity="0.25"
     inkscape:showpageshadow="2"
     inkscape:pageopacity="0.0"
     inkscape:pagecheckerboard="0"
     inkscape:deskcolor="#535353"
     inkscape:zoom="12.59534"
     inkscape:cx="0.99243057"
     inkscape:cy="29.812614"
     inkscape:window-width="1918"
     inkscape:window-height="1053"
     inkscape:window-x="0"
     inkscape:window-y="0"
     inkscape:window-maximized="1"
     inkscape:current-layer="Layer_1" /><defs
     id="defs1"><style
       id="style1">
      .cls-1 {
        fill: none;
        stroke: #fff;
        stroke-linecap: round;
        stroke-linejoin: round;
      }
    </style></defs><g
     id="g21"><g
       id="g19"><ellipse
         style="fill:none;stroke:#ffffff;stroke-width:1;stroke-linecap:round;stroke-linejoin:round;stroke-opacity:1"
         id="path7"
         cx="23.999998"
         cy="28.647573"
         rx="1.2679381"
         ry="1.2652953" /><path
         id="path8"
         style="fill:none;stroke:#ffffff;stroke-width:1;stroke-linecap:round;stroke-linejoin:round;stroke-opacity:1"
         d="m 23.09158,29.527706 -3.387553,3.492516" /><path
         id="path10"
         style="fill:none;stroke:#ffffff;stroke-width:1;stroke-linecap:round;stroke-linejoin:round;stroke-opacity:1"
         d="m 23.999999,21.360529 v 6.020086" /></g><g
       id="g20"><ellipse
         style="fill:none;stroke:#ffffff;stroke-width:1;stroke-linecap:round;stroke-linejoin:round;stroke-opacity:1"
         id="path2"
         cx="23.999998"
         cy="28.660072"
         rx="13.813573"
         ry="13.784781" /><path
         id="path4"
         style="fill:none;stroke:#ffffff;stroke-width:1;stroke-linecap:round;stroke-linejoin:round;stroke-opacity:1"
         d="m 31.912146,39.923839 2.890438,3.576646" /><path
         id="path6"
         style="fill:none;stroke:#ffffff;stroke-width:1;stroke-linecap:round;stroke-linejoin:round;stroke-opacity:1"
         d="m 16.022728,39.87699 -2.928302,3.623495" /><path
         id="rect10"
         style="fill:none;stroke:#ffffff;stroke-width:1;stroke-linecap:round;stroke-linejoin:round;stroke-opacity:1"
         d="m 20.441021,7.5286201 h 7.117954 c 0.250148,0 0.45153,0.200963 0.45153,0.4505896 v 1.6321778 c 0,0.2496266 -0.201382,0.4505895 -0.45153,0.4505895 h -7.117954 c -0.250148,0 -0.451531,-0.2009629 -0.451531,-0.4505895 V 7.9792097 c 0,-0.2496266 0.201383,-0.4505896 0.451531,-0.4505896 z" /><path
         id="path12"
         style="fill:none;stroke:#ffffff;stroke-width:1;stroke-linecap:round;stroke-linejoin:round;stroke-opacity:1"
         d="m 23.999999,10.0627 v 4.814762" /><path
         id="rect13"
         style="fill:none;stroke:#ffffff;stroke-width:1;stroke-linecap:round;stroke-linejoin:round;stroke-opacity:1"
         d="m 28.845439,15.754192 2.295682,-3.341632 c 0.282891,-0.411775 0.842828,-0.516011 1.255464,-0.233715 v 0 l 2.281079,1.560564 c 0.412635,0.282301 0.517088,0.841071 0.234204,1.252846 l -2.097605,3.053304" /><path
         id="path14"
         style="fill:none;stroke:#ffffff;stroke-width:1;stroke-linecap:round;stroke-linejoin:round;stroke-opacity:1"
         d="m 19.173363,15.781576 -2.314485,-3.369 C 16.575989,12.000798 16.016052,11.896561 15.603414,12.17886 l -2.28108,1.560565 c -0.412637,0.282299 -0.517093,0.841069 -0.234204,1.252846 l 2.108087,3.068563" /></g></g><g
     id="g18"><path
       style="fill:none;stroke:#ffffff;stroke-width:1;stroke-linecap:round;stroke-linejoin:round;stroke-opacity:1"
       d="m 33.105614,4.582493 c 4.420809,-0.6078709 7.84209,2.1537762 8.580141,5.865311"
       id="path15"
       sodipodi:nodetypes="cc" /><path
       style="fill:none;stroke:#ffffff;stroke-width:1;stroke-linecap:round;stroke-linejoin:round;stroke-opacity:1"
       d="m 33.826702,7.733979 c 2.368908,-0.3041732 4.202215,1.0777292 4.597702,2.934946"
       id="path16"
       sodipodi:nodetypes="cc" /><path
       style="fill:none;stroke:#ffffff;stroke-width:1;stroke-linecap:round;stroke-linejoin:round;stroke-opacity:1"
       d="M 14.894381,4.582493 C 10.473572,3.9746221 7.0522949,6.7362692 6.3142445,10.447804"
       id="path17"
       sodipodi:nodetypes="cc" /><path
       style="fill:none;stroke:#ffffff;stroke-width:1;stroke-linecap:round;stroke-linejoin:round;stroke-opacity:1"
       d="M 14.173294,7.733979 C 11.804385,7.4298058 9.971078,8.8117082 9.5755913,10.668925"
       id="path18"
       sodipodi:nodetypes="cc" /></g></svg>
