<?xml version="1.0" encoding="UTF-8"?>
<svg version="1.1" viewBox="0 0 48 48" xmlns="http://www.w3.org/2000/svg"><defs><style>.a{fill:none;stroke:#fff;stroke-linecap:round;stroke-linejoin:round;}</style></defs><circle class="a" cx="24" cy="24" r="21.5"/><path class="a" d="m39.65 17.791c-2.8099-8.4744-10.024-9.8856-11.421-10.304-1.3974-.41805-4.8716-.54746-6.5813.089175-5.2424 2.0132-8.2766 7.9479-8.2766 7.9479-1.2093.64212-3.888 4.7433-3.4401 9.4449-.45715-1.038-1.6037-1.6611-1.6037-1.6611"/><path class="a" d="m32.116 14.225c.9909 2.402-.10566 13.083-2.1209 17.875-2.0152 4.7924-4.8914 6.994-4.8914 6.994"/><path class="a" d="m3.8649 16.461c2.444 1.7791 2.1155 5.4843 4.4625 6.8477.53881 4.4977-1.7475 6.4577-4.968 6.6898"/><path class="a" d="m4.1685 32.29s3.5735-.48442 4.7685-1.908c1.9955-2.377.99409-5.4126.99409-5.4126s1.0361-.56466 3.4158.46247c1.3197 1.6426 1.222 4.2495 1.0638 5.5782-.1697 1.4253-3.5004 7.5401-6.6697 7.0263"/><path class="a" d="m21.086 35.53c3.0424-.04499 8.5064-2.5391 8.5064-2.5391m-13.8-3.0246s3.5616 4.6139 5.2935 5.5637"/><path class="a" d="m25.185 30.245c-.53838-1.175-3.1745-2.0808-5.3919-1.2227-.38308 2.0994-.06852 4.4372 1.8253 4.7387 1.8938.30159 3.4154-1.4164 3.5666-3.516z"/><path class="a" d="m21.265 21.848c-2.5587-3.6614-4.891.28849-5.4184 1.3398l.47483.85801"/><path class="a" d="m27.038 23.189c3.9139-1.8612 4.5772 1.5431 4.3091 3.3877l-.92789 1.0321"/><path class="a" d="m20.456 23.784a1.3743 1.7714 11.338 01-1.6957 1.4667 1.3743 1.7714 11.338 01-.99924-2.007 1.3743 1.7714 11.338 011.6957-1.4667 1.3743 1.7714 11.338 01.99924 2.007z"/><path class="a" d="m29.776 25.923a1.3743 1.7714 11.338 01-1.6957 1.4667 1.3743 1.7714 11.338 01-.99924-2.007 1.3743 1.7714 11.338 011.6957-1.4667 1.3743 1.7714 11.338 01.99924 2.007z"/><path class="a" d="m21.648 7.5767s.29965-2.7689-.36806-3.227c-.66771-.45805-2.7471 1.8117-3.848 3.6635-.97897.92199-3.1193-.2671-4.5014 1.2204.37848 1.0542 2.6345 3.0538 2.6345 3.0538"/><path class="a" d="m23.342 25.878-.19768.59819"/><path class="a" d="m15.683 27.723c-.38348 4.1984 2.8671 8.8301 3.4743 9.1259-1.764-.57477-3.8678-2.8446-4.7679-5.6906"/><path class="a" d="m32.554 9.1268c6.6039 6.5039 9.5116 26.218-7.4506 29.967"/><path class="a" d="m34.864 38.015c4.7403-2.4062 6.516-8.087 5.0761-15.741"/><path class="a" d="m35.282 11.017c.68168-1.4369 2.7514-1.6254 2.7514-1.6254l1.1294-.58115"/><path class="a" d="m41.466 11.487c-.97909 2.2154-2.5546 3.4383-3.1468 3.2825"/><path class="a" d="m15.709 33.881c.27254 4.6555-1.7809 9.0901-1.7809 9.0901"/><path class="a" d="m19.157 36.849.5378 2.802 5.3146-4.9051"/><path class="a" d="m16.52 43.872c-.01005-.80886.60059-2.7973 3.1752-4.2219-1.2123 2.2745-.8274 4.291-.8274 4.291"/><path class="a" d="m19.695 39.651c2.9266 8.7833 10.207 1.7364 0 0"/><path class="a" d="m25.93 34.454c1.0438.76556 1.0809 2.6682 1.0809 2.6682"/><path class="a" d="m27.217 39.068c.33966 1.713-.0227 6.1942-.0227 6.1942"/><path class="a" d="m27.217 39.068c2.4999.0043 3.2121 1.8857 3.019 2.7771-.21747 1.0037.67835 2.4931.67835 2.4931"/><path class="a" d="m30.752 36.992c1.5264.73888-.40598 3.0437 3.2892 6.0209"/><path class="a" d="m36.956 16.852c3.5823-.05059 4.2044 3.4968 3.8528 4.4725-.35166.97572-2.1479 1.8103-3.0553.6694"/><path class="a" d="m14.984 8.4178c-1.4981-6.4818 3.6116-4.2551 4.4077-3.0093"/><path class="a" d="m28.399 17.45c.02629 1.2524-.0548 2.5066-.31364 3.639 3.6299-3.8169 2.3952-11.496.14408-13.602-4.702.65302-9.889 7.9103-11.389 12.582 1.1602-1.9884 6.8252-6.1419 8.5687-8.3427.09412 1.2915-1.7864 7.7532-3.4162 10.748 3.4658-.56843 5.0216-2.0847 6.3371-4.8517"/><path class="a" d="m13.371 15.525c-1.7527-1.3597.54982-4.7921 2.1937-3.237"/><path class="a" d="m13.347 25.432c-.546-3.6538.92673-7.0505.92673-7.0505"/></svg>
