<?xml version="1.0" encoding="UTF-8" standalone="no"?>
<svg
   viewBox="0 0 48 48"
   version="1.1"
   id="svg1"
   sodipodi:docname="unionpay_app.svg"
   inkscape:version="1.2.2 (b0a8486541, 2022-12-01)"
   xml:space="preserve"
   xmlns:inkscape="http://www.inkscape.org/namespaces/inkscape"
   xmlns:sodipodi="http://sodipodi.sourceforge.net/DTD/sodipodi-0.dtd"
   xmlns="http://www.w3.org/2000/svg"
   xmlns:svg="http://www.w3.org/2000/svg"><sodipodi:namedview
     id="namedview1"
     pagecolor="#505050"
     bordercolor="#eeeeee"
     borderopacity="1"
     inkscape:showpageshadow="0"
     inkscape:pageopacity="0"
     inkscape:pagecheckerboard="0"
     inkscape:deskcolor="#505050"
     inkscape:zoom="8.90625"
     inkscape:cx="-13.473684"
     inkscape:cy="41.992982"
     inkscape:window-width="1918"
     inkscape:window-height="1053"
     inkscape:window-x="0"
     inkscape:window-y="0"
     inkscape:window-maximized="1"
     inkscape:current-layer="svg1"
     showgrid="false" /><defs
     id="defs1"><style
       id="style1">.a { fill:none;stroke:#fff;stroke-linecap:round;stroke-linejoin:round; }
</style></defs><g
     id="g22689"><g
       id="g22641"><path
         style="fill:none;stroke:#ffffff;stroke-linecap:round;stroke-linejoin:round"
         d="m 9.1197279,20.687395 7.8130691,1.95e-4"
         id="path22620" /><path
         style="fill:none;stroke:#ffffff;stroke-linecap:round;stroke-linejoin:round"
         d="M 8.6115544,23.687176 H 17.44097"
         id="path22618" /><path
         style="fill:none;stroke:#ffffff;stroke-linecap:round;stroke-linejoin:round"
         d="m 16.152346,25.768532 0.360717,0.905029 c 0.307158,0.770648 -0.244492,1.207419 -0.809518,1.207419 l -5.097415,-1e-6 c -0.565026,0 -1.116676,-0.43677 -0.8095187,-1.207418 l 1.1906227,-2.987236"
         id="path22616" /></g><g
       id="g22647"><path
         style="fill:none;stroke:#ffffff;stroke-linecap:round;stroke-linejoin:round"
         d="M 19.891639,22.282037 V 27.88098"
         id="path22614" /><path
         style="fill:none;stroke:#ffffff;stroke-linecap:round;stroke-linejoin:round"
         d="m 27.578728,26.078733 v 1.064784 c 0,0.415464 -0.341766,0.737463 -0.76629,0.737463 h -0.881374"
         id="path22612" /><path
         style="fill:none;stroke:#ffffff;stroke-linecap:round;stroke-linejoin:round"
         d="m 20.391395,20.119022 0.642984,0.568373 h 5.778059 c 0.424523,0 0.76629,0.334473 0.76629,0.749936 v 2.615823"
         id="path22610" /><path
         style="fill:none;stroke:#ffffff;stroke-linecap:round;stroke-linejoin:round"
         d="m 21.55362,25.290357 2.380603,-2.329795 2.379938,2.329388 5.123068,-5.013974"
         id="path22606" /></g><g
       id="g22653"><path
         style="fill:none;stroke:#ffffff;stroke-linecap:round;stroke-linejoin:round"
         d="M 31.248876,22.486964 V 27.88098"
         id="path22608" /><path
         style="fill:none;stroke:#ffffff;stroke-linecap:round;stroke-linejoin:round"
         d="m 33.591736,23.574968 1.8443,1.804939"
         id="path22604" /><path
         style="fill:none;stroke:#ffffff;stroke-linecap:round;stroke-linejoin:round"
         d="m 33.239646,21.640412 h 6.1488"
         id="path22602" /><path
         style="fill:none;stroke:#ffffff;stroke-linecap:round;stroke-linejoin:round"
         d="m 37.880923,20.138782 v 7.004734 c 0,0.415464 -0.341766,0.737463 -0.76629,0.737463 h -0.881374"
         id="path22600" /></g><path
       style="fill:none;stroke:#ffffff;stroke-linecap:round;stroke-linejoin:round"
       d="m 9.5,5.5 h 29 c 2.216,0 4,1.784 4,4 v 29 c 0,2.216 -1.784,4 -4,4 h -29 c -2.216,0 -4,-1.784 -4,-4 v -29 c 0,-2.216 1.784,-4 4,-4 z"
       id="rect22447" /></g></svg>
