<?xml version="1.0" encoding="UTF-8" standalone="no"?>
<!-- Created with Inkscape (http://www.inkscape.org/) -->

<svg
   width="48.0px"
   height="48.0px"
   viewBox="0 0 48.0 48.0"
   version="1.1"
   id="SVGRoot"
   sodipodi:docname="uniqlo.svg"
   inkscape:version="1.1.2 (0a00cf5339, 2022-02-04)"
   xmlns:inkscape="http://www.inkscape.org/namespaces/inkscape"
   xmlns:sodipodi="http://sodipodi.sourceforge.net/DTD/sodipodi-0.dtd"
   xmlns="http://www.w3.org/2000/svg"
   xmlns:svg="http://www.w3.org/2000/svg">
  <sodipodi:namedview
     id="namedview24974"
     pagecolor="#ffffff"
     bordercolor="#666666"
     borderopacity="1.0"
     inkscape:pageshadow="2"
     inkscape:pageopacity="0.0"
     inkscape:pagecheckerboard="0"
     inkscape:document-units="px"
     showgrid="true"
     inkscape:zoom="11.075084"
     inkscape:cx="35.981668"
     inkscape:cy="45.642994"
     inkscape:window-width="1884"
     inkscape:window-height="1017"
     inkscape:window-x="36"
     inkscape:window-y="70"
     inkscape:window-maximized="1"
     inkscape:current-layer="layer1">
    <inkscape:grid
       type="xygrid"
       id="grid25052" />
  </sodipodi:namedview>
  <defs
     id="defs24969" />
  <g
     inkscape:label="Layer 1"
     inkscape:groupmode="layer"
     id="layer1">
    <polyline
       class="cls-2"
       points="163.5 40.7 163.5 48.7 167.5 48.7"
       id="polyline5852"
       style="fill:none;fill-opacity:1;fill-rule:nonzero;stroke:#ffffff;stroke-linecap:round;stroke-linejoin:round;stroke-opacity:1"
       transform="translate(-141.55,-15.6)" />
    <line
       class="cls-2"
       x1="34"
       y1="14.9"
       x2="34"
       y2="22.9"
       id="line5854"
       style="fill:none;fill-opacity:1;fill-rule:nonzero;stroke:#ffffff;stroke-linecap:round;stroke-linejoin:round;stroke-opacity:1" />
    <polyline
       class="cls-2"
       points="183.4 48.7 183.4 40.7 188.7 48.7 188.7 40.7"
       id="polyline5940"
       style="fill:none;fill-opacity:1;fill-rule:nonzero;stroke:#ffffff;stroke-linecap:round;stroke-linejoin:round;stroke-opacity:1"
       transform="translate(-159.4,-25.8)" />
    <path
       class="cls-2"
       d="m 14,14.9 v 5.3 c 0,1.5 1.2,2.7 2.6,2.7 1.4,0 2.7,-1.2 2.7,-2.7 v -5.3"
       id="path6156"
       style="fill:none;fill-opacity:1;fill-rule:nonzero;stroke:#ffffff;stroke-linecap:round;stroke-linejoin:round;stroke-opacity:1" />
    <path
       class="cls-2"
       d="m 31.299999,33.1 v 0 c -1.5,0 -2.6,-1.2 -2.6,-2.6 v -2.7 c 0,-1.5 1.2,-2.7 2.6,-2.7 v 0 c 1.5,0 2.7,1.2 2.7,2.7 v 2.6 c 0,1.5 -1.2,2.7 -2.7,2.7 z"
       id="path6482"
       style="fill:none;fill-opacity:1;fill-rule:nonzero;stroke:#ffffff;stroke-linecap:round;stroke-linejoin:round;stroke-opacity:1" />
    <g
       id="g6500"
       style="fill:none;fill-opacity:1;fill-rule:nonzero;stroke:#ffffff;stroke-opacity:1;stroke-linejoin:round;stroke-linecap:round"
       transform="translate(-199.4,-15.6)">
      <line
         class="cls-2"
         x1="218.60001"
         y1="48.700001"
         x2="216"
         y2="46"
         id="line6496"
         style="fill:none;fill-opacity:1;fill-rule:nonzero;stroke:#ffffff;stroke-opacity:1;stroke-linejoin:round;stroke-linecap:round" />
      <path
         class="cls-2"
         d="m 216,48.7 v 0 c -1.5,0 -2.6,-1.2 -2.6,-2.6 v -2.7 c 0,-1.5 1.2,-2.7 2.6,-2.7 v 0 c 1.5,0 2.6,1.2 2.6,2.7 V 46 c 0,1.5 -1.1,2.7 -2.6,2.7 z"
         id="path6498"
         style="fill:none;fill-opacity:1;fill-rule:nonzero;stroke:#ffffff;stroke-opacity:1;stroke-linejoin:round;stroke-linecap:round" />
    </g>
  </g>
</svg>
