<svg xmlns="http://www.w3.org/2000/svg" viewBox="0 0 48 48" fill="none" stroke="#fff" stroke-linejoin="round" xmlns:v="https://vecta.io/nano"><path d="M40.5 5.5h-33a2 2 0 0 0-2 2v33a2 2 0 0 0 2 2h33a2 2 0 0 0 2-2v-33a2 2 0 0 0-2-2z"/><path d="M22.029 25.971v10.511h5.255m6.57-24.964v10.511m-11.825 0V11.518l6.964 10.511V11.518m-17.455 0v7.029c0 1.923 1.559 3.482 3.482 3.482s3.482-1.559 3.482-3.482v-7.029" stroke-linecap="round"/><path d="M33 25.971c1.929 0 3.482 1.553 3.482 3.482V33c0 1.929-1.553 3.482-3.482 3.482S29.518 34.929 29.518 33v-3.547c0-1.929 1.553-3.482 3.482-3.482z"/><path d="M18.482 36.482L15 33.042m0-7.071c1.929 0 3.482 1.553 3.482 3.482V33c0 1.929-1.553 3.482-3.482 3.482S11.518 34.929 11.518 33v-3.547c0-1.929 1.553-3.482 3.482-3.482z" stroke-linecap="round"/></svg>