<?xml version="1.0" encoding="UTF-8"?><svg id="a" xmlns="http://www.w3.org/2000/svg" viewBox="0 0 48 48"><defs><style>.e,.f{fill:none;stroke:#fff;stroke-linejoin:round;}.f{stroke-linecap:round;}</style></defs><path class="f" d="M22.346,25.155v8.4h4.2M31.455,14.445v8.4M22.346,22.845v-8.4l5.565,8.4v-8.4"/><path class="e" d="M31.402,33.555h0c-1.4967.0111-2.7189-1.1932-2.73-2.6899,0-.0134,0-.0268,0-.0401v-2.835c0-1.575,1.26-2.835,2.73-2.835h0c1.575,0,2.835,1.26,2.835,2.835v2.73c0,1.575-1.26,2.835-2.835,2.835Z"/><path class="f" d="M13.763,14.445v5.565c0,1.575,1.26,2.835,2.73,2.835s2.835-1.26,2.835-2.835v-5.565"/><path class="e" d="M16.493,33.555h0c-1.4967.0111-2.7189-1.1932-2.73-2.6899,0-.0134,0-.0268,0-.0401v-2.835c0-1.575,1.26-2.835,2.73-2.835h0c1.575,0,2.73,1.26,2.73,2.835v2.73c0,1.575-1.155,2.835-2.73,2.835Z"/><path class="f" d="M19.223,33.555l-2.73-2.835"/><rect class="f" x="5.5" y="5.5" width="37" height="37" rx="4" ry="4"/></svg>