<?xml version="1.0" encoding="UTF-8"?><svg id="a" xmlns="http://www.w3.org/2000/svg" viewBox="0 0 48 48"><defs><style>.b{fill:none;stroke:#fff;stroke-linecap:round;stroke-linejoin:round;}.c{fill:#fff;stroke-width:0px;}</style></defs><path class="b" d="M40.5,5.5H7.5c-1.1046,0-2,.8954-2,2v33c0,1.1046.8954,2,2,2h33c1.1046,0,2-.8954,2-2V7.5c0-1.1046-.8954-2-2-2Z"/><circle class="b" cx="16.1622" cy="16.1622" r="6.6622"/><line class="b" x1="13.1622" y1="16.1622" x2="19.1622" y2="16.1622"/><line class="b" x1="16.1622" y1="13.1622" x2="16.1622" y2="19.1622"/><circle class="b" cx="31.8378" cy="16.1622" r="6.6622"/><line class="b" x1="28.8745" y1="16.1622" x2="34.8745" y2="16.1622"/><circle class="b" cx="31.8378" cy="31.8378" r="6.6622"/><circle class="c" cx="31.8745" cy="34.5811" r=".75"/><circle class="c" cx="31.8745" cy="29.0946" r=".75"/><line class="b" x1="28.8745" y1="31.8378" x2="34.8745" y2="31.8378"/><circle class="b" cx="16.1622" cy="31.8378" r="6.6622"/><line class="b" x1="14.0408" y1="29.7165" x2="18.2835" y2="33.9592"/><line class="b" x1="18.2835" y1="29.7165" x2="14.0408" y2="33.9592"/></svg>