<?xml version="1.0" encoding="UTF-8"?><svg id="b" xmlns="http://www.w3.org/2000/svg" viewBox="0 0 48 48"><defs><style>.d{fill:none;stroke:#fff;stroke-linecap:round;stroke-linejoin:round;}</style></defs><line class="d" x1="6.5676" y1="39.4173" x2="41.4324" y2="39.4173"/><line class="d" x1="24" y1="42.5" x2="24" y2="39.4173"/><path class="d" d="M6.5676,15.5723v12.2253c0,4.1651,3.3765,7.5415,7.5415,7.5415s7.5415-3.3765,7.5415-7.5415v-12.2253"/><path class="d" d="M26.8064,31.2534c1.3908,3.1358,4.7308,4.0857,7.1663,4.0857,4.1199,0,7.4598-3.3399,7.4598-7.4598h0c0-4.1199-3.3399-7.4598-7.4598-7.4598h-.1696c-4.1165,0-7.4536-3.3371-7.4536-7.4536h0c0-4.1233,3.3426-7.4659,7.4659-7.4659,2.4355,0,5.7755.95,7.1663,4.0857"/></svg>