<?xml version="1.0" encoding="UTF-8"?>
<!-- Created with Inkscape (http://www.inkscape.org/) -->
<svg version="1.1" viewBox="0 0 48 48" xml:space="preserve" xmlns="http://www.w3.org/2000/svg"><defs><style>.a{fill:none;stroke:#fff;stroke-linecap:round;stroke-linejoin:round;}</style></defs><g><circle class="a" cx="24" cy="24" r="21.5"/><g transform="translate(-64.477 1.544)" fill-opacity="0" stroke="#fff" stroke-linecap="round" stroke-linejoin="round"><path d="m88.78 14.684 0.30776 5.9793-0.74741 0.01466-0.48362-0.41034"/><path d="m89.836 13.659 4.8069-0.79137"/><path d="m86.23 13.834-5.1293-0.68879"/><path d="m86.539 22.808 0.3627-0.23834 3.1503-0.22798"/><path d="m85.927 38.508 0.0379 5.301"/><path d="m95.834 38.466 0.20788 4.1146"/><path d="m79.438 15.987c-0.0252-0.40119-0.01139-0.79497-0.09084-1.2095s-0.25216-0.84974-0.3316-1.1433c-0.07945-0.29361-0.06563-0.44559 0.04145-0.54922 0.10708-0.10363 0.30742-0.15889 0.54232-0.56996 0.23489-0.41106 0.50432-1.1779 0.52504-1.8756 0.020727-0.69776-0.20725-1.3264-0.48704-1.5613s-0.6114-0.075995-0.81174-0.37307-0.26943-1.0501 0.076001-1.7686c0.34543-0.71849 1.1053-1.4024 1.7168-1.6718 0.6114-0.26943 1.0743-0.12435 1.8066 0.16235 0.73231 0.28671 1.734 0.71502 2.7047 0.88428 0.97065 0.16926 1.9102 0.079448 2.5734 0.11399 0.66322 0.034544 1.0501 0.19344 1.171 0.19343 0.1209-1.5e-6 -0.02418-0.15889-0.23144-0.3627-0.20726-0.2038-0.47668-0.4525-0.51468-0.55613-0.038-0.10363 0.15544-0.062176 0.56995 0.020726 0.41451 0.082903 1.0501 0.20725 1.5199 0.23143 0.46978 0.024179 0.77374-0.051813 0.84974-0.17271 0.07599-0.1209-0.07599-0.2867-0.27979-0.48014-0.2038-0.19344-0.45941-0.41451-0.41796-0.48014 0.04145-0.06563 0.37996 0.024179 0.87738 0.20726 0.49742 0.18308 1.1537 0.45941 1.6753 0.53195 0.52159 0.072538 0.90846-0.058721 1.3402 0.114 0.43178 0.17272 0.90846 0.64939 1.3299 1.6546 0.42142 1.0052 0.78756 2.5388 0.72538 3.8756-0.06218 1.3368-0.55267 2.4767-0.61484 3.3679-0.06217 0.8912 0.30397 1.5337 0.25906 3.1054-0.04491 1.5717-0.50086 4.0725-1.0535 5.7236-0.55268 1.6511-1.2021 2.4525-2.4249 3.1157-1.2228 0.66322-3.019 1.1882-4.6218 1.2297-1.6028 0.04145-3.0121-0.40069-4.3109-1.1399s-2.487-1.7755-3.0328-2.5907c-0.54577-0.8152-0.44905-1.4093-0.55989-1.8869-0.11084-0.47756-0.42923-0.83853-0.7472-1.0508s-0.63548-0.27575-1.1264-0.62259c-0.49095-0.34684-1.1553-0.977-1.4924-1.7611-0.33707-0.78406-0.34684-1.722-0.05861-2.3424 0.28822-0.6204 0.87441-0.92327 1.3507-0.81335 0.47629 0.10992 0.84266 0.6326 1.1089 0.97944 0.26624 0.34684 0.43232 0.51781 0.48325 0.399 0.05093-0.11881-0.01329-0.52739-0.0385-0.92858z"/><path d="m95.752 19.759c0.51921-0.4898 1.0384-0.97959 1.3322-1.6006 0.2938-0.62105 0.36219-1.3733 0.31822-1.9449-0.04397-0.57155-0.20028-0.96234-0.23448-1.3971-0.03419-0.43477 0.05374-0.91349 0.20517-1.0942 0.15144-0.18074 0.36638-0.06351 0.51293-0.06351 0.14655-1e-6 0.22471-0.11724 0.35393-1.2613 0.12922-1.1441 0.30949-3.3149 0.02165-5.1366-0.28785-1.8217-1.0438-3.2942-1.7998-4.7668"/><path d="m109.03 17.762c-0.92816 0.60575-1.8563 1.2115-2.5158 2.1445s-1.0503 2.1934-1.2506 2.9115c-0.20029 0.71811-0.21005 0.89395-0.26623 0.97455-0.0562 0.0806-0.15876 0.06595-0.24915 0.07572-0.0904 0.0098-0.16852 0.04396-0.24668 0.43477-0.0782 0.39081-0.15632 1.1382-0.24425 1.5852-0.0879 0.44698-0.18563 0.59353-0.31753 0.69367-0.13189 0.10014-0.29798 0.15388-0.44942 0.03664-0.15143-0.11724-0.28821-0.40546-0.43965-1.2823-0.15144-0.87688-0.31753-2.3424-0.2418-3.058 0.0757-0.71566 0.39324-0.68146 0.87949-0.59177 0.48626 0.08969 1.1412 0.23486 1.7962 0.38004"/><path d="m102.79 22.764c-0.57714-0.04625-1.1543-0.09251-1.521-0.0037-0.36669 0.08885-0.52294 0.31281-0.57242 0.78678-0.0495 0.47397 8e-3 1.1979 0.22136 1.9948 0.21354 0.79688 0.58333 1.6667 0.91145 2.1224 0.32813 0.45573 0.61459 0.4974 0.92448 0.48958 0.3099-0.0078 0.64323-0.0651 0.76984-0.32922 0.12662-0.26411 0.0465-0.73503-0.0336-1.206"/><path d="m100.82 23.084c-0.51339-0.04358-1.0268-0.08716-1.4397-0.01-0.41295 0.07717-0.72544 0.27508-0.73846 1.223-0.01302 0.94793 0.27344 2.6458 0.72135 3.5081s1.0209 0.88723 1.4593 0.73224 0.72394-0.51406 1.0094-0.87313"/><path d="m98.155 23.776c-0.67764-0.20624-1.3553-0.41248-1.7309 1.1e-5 -0.37565 0.41249-0.44931 1.4437-0.32777 2.2208s0.43826 1.3 0.7955 1.44 0.75498-0.10312 0.96859-0.50455c0.2136-0.40144 0.24307-0.96122 0.34909-1.2999 0.10602-0.33867 0.2886-0.45622 0.47118-0.57377"/><path d="m97.402 16.213c2.2397 0.60595 4.4794 1.2119 6.06 1.7507 1.5806 0.53881 2.5022 1.0105 3.4238 1.4821"/><path d="m77.299 15.592c-0.42246-0.70772-0.84492-1.4154-0.99886-2.4203-0.15394-1.0049-0.03936-2.307-0.03415-2.9528 0.0052-0.64583-0.09896-0.63542-0.27604-0.44791-0.17709 0.1875-0.42708 0.55208-0.625 0.33332-0.19792-0.21876-0.34375-1.0208-0.10937-1.776 0.23438-0.75522 0.84895-1.4635 0.96874-1.7135 0.11979-0.25-0.2552-0.041669-0.52083 0.036456-0.26563 0.078125-0.42187 0.026042-0.38619-0.25667 0.03569-0.28272 0.2633-0.79604 0.49092-1.3094"/><path d="m67.053 24.27c1.4976-1.0799 2.9953-2.1598 4.6499-2.977 1.6546-0.81715 3.466-1.3715 5.2775-1.9258"/><path d="m77.33 19.791c-0.63078 0.92916-1.2616 1.8583-1.6681 2.6432-0.40654 0.7849-0.58882 1.4255-0.58101 1.7432 0.0078 0.31771 0.20573 0.3125 0.94012 0.23177 0.73439-0.08073 2.0052-0.23698 2.598-0.21501 0.59282 0.02197 0.50762 0.22214 0.24773 0.53584-0.25989 0.3137-0.69446 0.7409-1.1438 0.98028s-0.91334 0.29094-1.1122 0.40143-0.13258 0.2799 0.38302 0.97597c0.51561 0.69607 1.4805 1.9188 2.4454 3.9296s1.9298 4.8098 2.3975 6.8943c0.46772 2.0845 0.43826 3.4545 0.4088 4.8245"/><path d="m82.023 38.847c0.08895-1.8563 0.1779-3.7125 0.07506-5.4435-0.10284-1.731-0.39746-3.3367-0.43098-4.6139-0.03352-1.2772 0.19407-2.2258 0.42166-3.1745"/><path d="m81.667 28.79c0.56114 1.231 1.1223 2.4621 2.6772 3.166 1.5549 0.70391 4.1033 0.88069 5.7827 0.13673s2.4896-2.4086 2.7376-3.4916c0.24796-1.0831-0.06634-1.5845-0.38064-2.086"/><path d="m95.603 26.318c-0.1289-0.0074-0.2578-0.01473-0.35539-0.01657-0.0976-0.0018-0.16389 0.0018-0.25596-0.0755-0.09207-0.07734-0.20992-0.2357-0.29647-0.31488-0.08655-0.07918-0.14179-0.07918-0.24307 0.16758s-0.24859 0.74025-0.18598 1.3056c0.06261 0.56532 0.33514 1.2024 0.56163 1.5044 0.2265 0.30199 0.40695 0.26885 0.51376 0.19335 0.1068-0.0755 0.13995-0.19335 0.16941-0.27989 0.02946-0.08655 0.05524-0.14179 0.69691-0.3027 0.64167-0.16091 1.8992-0.42748 3.1567-0.69406"/><path d="m102.21 28.344c0.0599 0.50781 0.11979 1.0156 0.0234 1.3138-0.0964 0.29818-0.34895 0.38672-0.96094 0.22656-0.61199-0.16016-1.5833-0.56901-2.0779-0.93225-0.49456-0.36325-0.51238-0.68087-0.5302-0.99851"/><path d="m86.49 38.481c1.1859 0.25043 2.9342 0.47389 4.5854 0.46698 1.6511-0.0069 3.205-0.24418 4.0999-0.50566 0.89493-0.26148 1.1309-0.54717 1.1716-0.7158 0.04065-0.16863-0.11402-0.22019-1.02-0.45589-0.906-0.23571-2.5632-0.65554-4.5667-0.61871-2.0035 0.03683-4.3531 0.53032-5.2162 0.91579-0.86313 0.38546-0.23976 0.66287 0.94611 0.9133z"/><path d="m103.59 27.35c0.71441-0.27781 1.4288-0.55562 1.8634-0.64296 0.43454-0.08734 0.58922 0.01577 0.93173 0.5277 0.34251 0.51192 0.87283 1.4326 1.2857 1.9317 0.4129 0.49911 0.70837 0.57662 1.0038 0.65414"/><path d="m102.23 29.658c0.83855 0.11415 1.6771 0.2283 2.4862 0.0064 0.80912-0.22191 1.5888-0.77986 2.3685-1.3378"/><path d="m77.671 17.877c-0.03683-0.16941-0.07366-0.33882 0.01842-0.41616 0.09207-0.07734 0.31304-0.06261 0.53033 0.12522 0.21729 0.18783 0.43089 0.54874 0.53033 0.91335 0.09944 0.36461 0.08471 0.73288 0.06998 1.1012"/><path d="m91.378 14.417c0.5599-0.07292 1.7161-0.08854 2.3542-0.08854 0.63802 0 0.75781 0.01562 0.85417 0.125 0.09636 0.10938 0.16927 0.3125-0.03126 0.59896-0.20053 0.28646-0.67448 0.65625-1.1979 0.82812s-1.0963 0.14583-1.5156-0.07552c-0.41927-0.22136-0.68489-0.63802-0.83594-0.91146s-0.1875-0.40364 0.3724-0.47656z"/><path d="m85.019 14.536c-0.68869-0.02578-2.0072 0.05524-2.7511 0.23202-0.74394 0.17678-0.91334 0.4493-0.85442 0.70711 0.05893 0.2578 0.34618 0.50086 0.82128 0.6445 0.47509 0.14363 1.138 0.18782 1.7052 0.08839 0.56716-0.09944 1.0386-0.3425 1.3369-0.59662s0.42353-0.51928 0.45667-0.71816c0.03315-0.19888-0.02578-0.33145-0.71447-0.35723z"/><path d="m91.968 17.28c0.33882 0.08839 0.67764 0.17678 0.9244 0.19151 0.24675 0.01473 0.40143-0.04419 0.55611-0.10312"/><path transform="translate(-.30936 .27186)" d="m82.952 17.192c0.40511 0.05892 0.81023 0.11785 1.2227 0.04419 0.41248-0.07366 0.83232-0.2799 1.2522-0.48613"/><path d="m89.687 23.837c0.0845 0.15005 0.16899 0.30009 0.1957 0.69509 0.0267 0.39499-0.0044 1.0349-0.13043 1.4175-0.12604 0.38257-0.347 0.50778-0.55086 0.52571-0.20386 0.01793-0.3906-0.07143-0.57735-0.16078"/><path d="m94.636 28.572c-0.46204 0.41867-0.92408 0.83734-1.1395 1.3878s-0.18415 1.2328-0.06956 1.7328c0.11459 0.5 0.3125 0.8177 0.33075 1.6483 0.01825 0.83061-0.14316 2.1741-0.15358 3.3486-0.01041 1.1745 0.13016 2.1799 0.16356 2.9391 0.0334 0.75919-0.04037 1.2721-0.11415 1.785"/><path d="m85.99 41.718c0.66466-0.06757 1.3293-0.13513 2.1825-0.20017 0.85317-0.06503 1.8948-0.12753 2.749-0.11712 0.85417 0.01042 1.5208 0.09375 2.3287 0.04573s1.757-0.22739 2.7061-0.40676"/><path d="m103.56 29.789c0.0882 2.5759 0.17637 5.1518 0.26456 7.7278"/><path d="m73.625 35c-0.04167 0.16667-0.08333 0.33333-0.09973 0.8179-0.0164 0.48457-0.0075 1.287 0.0014 2.0895"/><path d="m73.532 35.94c-0.33351-0.27169-0.66702-0.54338-0.86502-1.3042-0.198-0.76086-0.2605-2.0108-0.323-3.2608"/><path d="m73.969 33.5c-0.20833-1.0208-0.41667-2.0417-0.35416-2.7813 0.0625-0.73959 0.39583-1.1979 0.72916-1.6562"/></g></g></svg>
