<?xml version="1.0" encoding="UTF-8" standalone="no"?>
<svg
   id="Layer_1"
   data-name="Layer 1"
   version="1.1"
   viewBox="0 0 48 48"
   xml:space="preserve"
   xmlns="http://www.w3.org/2000/svg"
   xmlns:svg="http://www.w3.org/2000/svg"><defs
     id="defs1"><style
       id="style1">
      .cls-1 {
        fill: none;
        stroke: #fff;
        stroke-linecap: round;
        stroke-linejoin: round;
      }
    </style></defs><rect
     class="cls-1"
     x="5.5"
     y="5.5"
     width="37"
     height="37"
     rx="4"
     ry="4"
     id="rect1" /><g
     id="g2223"
     transform="matrix(1.1711693,0,0,1.1711693,-189.93357,-47.087834)"
     style="stroke-width:0.853847"><path
       class="cls-2"
       d="m 188.3,64.7 v -3.3 c 0,-1.1 -0.9,-2 -2,-2 v 0 c -1.1,0 -2,0.9 -2,2"
       id="path2223"
       style="fill:none;stroke:#ffffff;stroke-width:0.853847;stroke-linecap:round;stroke-linejoin:round" /><line
       class="cls-2"
       x1="184.3"
       y1="64.699997"
       x2="184.3"
       y2="59.299999"
       id="line2223"
       style="fill:none;stroke:#ffffff;stroke-width:0.853847;stroke-linecap:round;stroke-linejoin:round" /></g><path
     class="cls-2"
     d="m 32.900956,28.657516 v -9.369348 h 3.045045 c 1.756751,0 3.162152,1.405402 3.162152,3.162154 0,1.756753 -1.405401,3.162163 -3.162152,3.162163 h -3.045045"
     id="path2165-5"
     style="fill:none;stroke:#ffffff;stroke-width:1;stroke-linecap:round;stroke-linejoin:round" /><path
     class="cls-2"
     d="m 17.40239,28.686812 v -9.369351 h 3.045044 c 1.756753,0 3.162156,1.405406 3.162156,3.162157 0,1.756753 -1.405403,3.162155 -3.162156,3.162155 H 17.40239"
     id="path2165"
     style="fill:none;stroke:#ffffff;stroke-width:1;stroke-linecap:round;stroke-linejoin:round" /><path
     class="cls-2"
     d="m 8.8918468,19.317461 v 6.207196 c 0,1.756757 1.4054002,3.162155 3.0450412,3.162155 1.639636,0 3.162158,-1.405398 3.162158,-3.162155 v -6.207196"
     id="path2226"
     style="fill:none;stroke:#ffffff;stroke-width:1;stroke-linecap:round;stroke-linejoin:round" /></svg>
