<?xml version="1.0" encoding="UTF-8"?><svg version="1.1" viewBox="0 0 48 48" xmlns="http://www.w3.org/2000/svg"><path d="m15 5.5h17c0 1.1.036 2.9-.49 3.9-.68 1.2-2 2.1-3.5 2.1h-9c-1.5 0-2.8-.84-3.5-2.1-.52-.96-.49-2.8-.49-3.9zm19-.0011c0 1.1.054 3.4-.73 4.9-1 1.9-3 3.1-5.2 3.1h-9c-2.3 0-4.2-1.3-5.2-3.1-.79-1.4-.73-3.8-.73-4.9m21-.003c3.9 0 6.8 3.1 7 7l.98 23c.16 3.9-3.1 7-7 7h-23c-3.9 0-7.2-3.1-7-7l.98-23c.16-3.9 3.1-7 7-7m.5 21 3.3-3.5 3.3 3.5 3.3-3.5 3.3 3.5 3.3-3.5 3.3 3.5-10 9.5zm10-10 2.7 2.6c.0015.0015.0015.0037 2e-4.0051l-2.6 2.8c-.0013.0014-.0034.0014-.005-3.8e-5l-2.7-2.6c-.0013-.0014-.0014-.0035-9.3e-5-.0049l2.6-2.8c.0013-.0014.0034-.0014.0048-6.5e-5z" fill="none" stroke="#fff" stroke-linecap="round" stroke-linejoin="round"/></svg>