<?xml version="1.0" encoding="UTF-8" standalone="no"?>
<svg
   viewBox="0 0 48 48"
   version="1.1"
   id="svg1"
   xml:space="preserve"
   xmlns="http://www.w3.org/2000/svg"
   xmlns:svg="http://www.w3.org/2000/svg"><defs
     id="defs1"><style
       id="style1">.a{fill:none;stroke:#fff;stroke-linecap:round;stroke-linejoin:round;}</style></defs><path
     class="a"
     d="M40.5,5.5H7.5a2,2,0,0,0-2,2v33a2,2,0,0,0,2,2h33a2,2,0,0,0,2-2V7.5A2,2,0,0,0,40.5,5.5Z"
     id="path1" /><path
     class="t"
     d="m 37.392899,26.686833 v 0.06718 c 0,2.985602 -2.420124,5.405735 -5.405742,5.405735 v 0 c -2.985598,0 -5.40575,-2.420134 -5.40575,-5.405736 v -5.507759 c 0,-2.985597 2.420152,-5.40574 5.40575,-5.40574 v 0 c 2.985618,0 5.405742,2.420143 5.405742,5.40574 v 0.06718"
     id="path410"
     style="fill:none;stroke:#ffffff;stroke-width:1;stroke-linecap:round;stroke-linejoin:round" /><path
     class="t"
     d="M 10.607101,15.840252 V 26.75374 c 0,2.985609 2.420139,5.405752 5.405747,5.405752 2.985617,0 5.405753,-2.420143 5.405753,-5.405753 V 15.840252"
     id="path412"
     style="fill:none;stroke:#ffffff;stroke-width:1;stroke-linecap:round;stroke-linejoin:round" /></svg>
