<svg xmlns="http://www.w3.org/2000/svg" xml:space="preserve" id="svg1" version="1.1" viewBox="0 0 48 48"><defs id="defs1"><style id="style1">.a{fill:none;stroke:#fff;stroke-linecap:round;stroke-linejoin:round}</style></defs><path id="path784" d="M9.5 5.5h29c2.216 0 4 1.784 4 4v29c0 2.216-1.784 4-4 4h-29c-2.216 0-4-1.784-4-4v-29c0-2.216 1.784-4 4-4z" style="fill:none;stroke:#fff;stroke-width:1;stroke-linecap:round;stroke-linejoin:round;stroke-opacity:1"/><path id="path782" d="M21.014623 18.283996c.587782.766445 1.324834 1.051927 2.350254 1.051928l1.419096-.000001c1.320629 0 2.391219-1.072279 2.391219-2.395001v-.01028c0-1.322723-1.07059-2.395-2.391219-2.395h-1.565382c-1.322055 0-2.393783-1.073437-2.393783-2.397586v-.000006c0-1.327 1.074041-2.4027397 2.398946-2.4027397h1.411356c1.02542 0 1.762472.2854807 2.350254 1.0519207" style="fill:none;stroke:#fff;stroke-width:1;stroke-linecap:round;stroke-linejoin:round;stroke-opacity:1"/><path id="path780" d="M12.119431 9.7352589v6.4204471c0 1.75639 1.421577 3.180227 3.175194 3.180227 1.753605 0 3.175193-1.423837 3.175193-3.180227V9.7352589" style="fill:none;stroke:#fff;stroke-width:1;stroke-linecap:round;stroke-linejoin:round;stroke-opacity:1"/><path id="path778" d="M29.530182 19.335933V9.7352589h2.156733c2.316083 0 4.193657 1.8805281 4.193657 4.2002891v1.200086c0 2.31976-1.877574 4.200299-4.193657 4.200299z" style="fill:none;stroke:#fff;stroke-width:1;stroke-linecap:round;stroke-linejoin:round;stroke-opacity:1"/><path id="path776" d="M25.806904 22.80105v6.616314H29.0759" style="fill:none;stroke:#fff;stroke-width:1;stroke-linecap:round;stroke-linejoin:round;stroke-opacity:1"/><path id="path774" d="M31.62728 29.417364V22.80105h1.471049c1.579737 0 2.860373 1.295973 2.860373 2.894637v.827039c0 1.598664-1.280636 2.894638-2.860373 2.894638z" style="fill:none;stroke:#fff;stroke-width:1;stroke-linecap:round;stroke-linejoin:round;stroke-opacity:1"/><path id="path772" d="M21.089813 22.801055v0c1.199803 0 2.165711.977477 2.165711 2.191653v2.232998c0 1.214176-.965908 2.191653-2.165711 2.191653v0c-1.199802 0-2.16571-.977477-2.16571-2.191653v-2.232998c0-1.214176.965908-2.191653 2.16571-2.191653z" style="fill:none;stroke:#fff;stroke-width:1;stroke-linecap:round;stroke-linejoin:round;stroke-opacity:1"/><path id="path770" d="M16.372724 24.992707c0-1.210416-.969626-2.191652-2.165711-2.191652h-.000008c-1.196085 0-2.165705.981236-2.165705 2.191652v2.232999c0 1.210416.96962 2.191653 2.165705 2.191653h.000008c1.196085 0 2.16571-.981237 2.16571-2.191653h-2.16571" style="fill:none;stroke:#fff;stroke-width:1;stroke-linecap:round;stroke-linejoin:round;stroke-opacity:1"/><path id="path768" d="M12.33132 32.709932h3.583911" style="fill:none;stroke:#fff;stroke-width:1;stroke-linecap:round;stroke-linejoin:round;stroke-opacity:1"/><path id="path766" d="M14.123272 38.258381v-5.548449" style="fill:none;stroke:#fff;stroke-width:1;stroke-linecap:round;stroke-linejoin:round;stroke-opacity:1"/><path id="path764" d="M32.770854 35.484157h1.763531" style="fill:none;stroke:#fff;stroke-width:1;stroke-linecap:round;stroke-linejoin:round;stroke-opacity:1"/><path id="path762" d="M35.475698 38.258381h-2.704844v-5.548449h2.704844" style="fill:none;stroke:#fff;stroke-width:1;stroke-linecap:round;stroke-linejoin:round;stroke-opacity:1"/><path id="path760" d="M17.439002 38.264637V32.70365h1.775363c1.003685 0 1.817337.836161 1.817337 1.86762 0 1.031457-.813652 1.86762-1.817337 1.86762h-1.775363" style="fill:none;stroke:#fff;stroke-width:1;stroke-linecap:round;stroke-linejoin:round;stroke-opacity:1"/><path id="path758" d="m19.214372 36.438873 1.7752 1.824364" style="fill:none;stroke:#fff;stroke-width:1;stroke-linecap:round;stroke-linejoin:round;stroke-opacity:1"/><path id="path756" d="M27.663162 38.25836v-5.548448h1.217179c1.307109 0 2.366739 1.086804 2.366739 2.427446v.693556c0 1.340641-1.05963 2.427446-2.366739 2.427446z" style="fill:none;stroke:#fff;stroke-width:1;stroke-linecap:round;stroke-linejoin:round;stroke-opacity:1"/><path id="path754" d="M25.545797 36.42039h-2.396729" style="fill:none;stroke:#fff;stroke-width:1;stroke-linecap:round;stroke-linejoin:round;stroke-opacity:1"/><path id="polyline1320" d="m22.555473 38.258346 1.79196-5.548481 1.791959 5.548481" style="fill:none;stroke:#fff;stroke-width:1;stroke-linecap:round;stroke-linejoin:round;stroke-opacity:1"/></svg>