<svg xmlns="http://www.w3.org/2000/svg" xml:space="preserve" viewBox="0 0 48 48"><path d="M22.835455 22.409865h3.033684v4.372106h-3.033684zM18.625955 26.273925v-6.37855M21.196664 23.507791l-.09005.336046M33.292915 21.901819l-8.94061-6.057006-8.940612 6.057006M30.078645 26.273925v-6.37855M27.507938 23.507791l.09005.336046M25.659958 5.9829351a1.3076604 1.3076968 0 0 1-1.30766 1.3076966 1.3076604 1.3076968 0 0 1-1.307661-1.3076966 1.3076604 1.3076968 0 0 1 1.307661-1.3076969 1.3076604 1.3076968 0 0 1 1.30766 1.3076969" style="fill:none;stroke:#fff;stroke-width:1;stroke-linecap:round;stroke-linejoin:round;stroke-dashoffset:1.3;stroke-opacity:1"/><path d="m23.90472 10.984412-1.96691-2.9087302c-.353181-.5222988-.742245-1.2130178-.742245-2.1303125 0-1.8696498 1.43779-3.1166462 3.156733-3.1166462 1.718939 0 3.15673 1.2469964 3.15673 3.1166462 0 .9172947-.389064 1.6080137-.742246 2.1303125l-1.966905 2.9087302c-.167147.247184-.728011.247184-.895157 0M26.097908 28.927623l3.638672 6.352424c1.818614 3.174949.726757 7.195087-2.448105 9.013751l-.0021.0012c-3.174861 1.818664-7.19489.726779-9.013501-2.448171L5.3762554 19.331652c-1.8186132-3.174949-.726757-7.195088 2.4481047-9.013751v0l.00208-.0012c3.1748589-1.81862 7.1948849-.7267343 9.0134979 2.448217l2.225974 3.886124" style="fill:none;stroke:#fff;stroke-width:1;stroke-linecap:round;stroke-linejoin:round;stroke-dashoffset:1.3;stroke-opacity:1"/><path d="m29.986442 41.378716 12.637304-22.062309c1.818611-3.174947.726753-7.19509-2.448105-9.013752v0l-.0021-.0012c-3.17483-1.8186449-7.19486-.7267571-9.013472 2.448189l-2.234868 3.901651" style="fill:none;stroke:#fff;stroke-width:1;stroke-linecap:round;stroke-linejoin:round;stroke-dashoffset:1.3;stroke-opacity:1"/></svg>