<?xml version="1.0" encoding="UTF-8"?>
<!-- Created with Inkscape (http://www.inkscape.org/) -->
<svg version="1.1" viewBox="0 0 48 48" xml:space="preserve" xmlns="http://www.w3.org/2000/svg"><defs><style>.a{fill:none;stroke:#fff;stroke-linecap:round;stroke-linejoin:round;}</style></defs><circle class="a" cx="24" cy="24" r="21.5"/><g transform="matrix(1.1367 0 0 1.1367 -63.953 -3.2323)" fill-opacity="0" stroke="#fff" stroke-linecap="round" stroke-linejoin="round" stroke-width=".87977"><g transform="translate(0 .21025)"><path d="m69.596 22.383v5.057h-4.8912"/><path d="m62.691 27.492c-0.57218-0.34888-1.1444-0.69776-1.4546-1.3627-0.31027-0.66495-0.35862-1.6459 0.15607-2.4197s1.5924-1.3402 2.5941-1.3299c1.0017 0.01037 1.9275 0.59758 2.3765 1.3333s0.42142 1.62 0.17962 2.2297c-0.2418 0.60968-0.69775 0.94473-1.0397 1.1485-0.34197 0.2038-0.56995 0.27634-0.79792 0.34888"/></g><path transform="translate(0 .075537)" d="m82.736 27.627v-5.3679c0-0.16926 0-0.33851-0.09154-0.63731-0.09154-0.2988-0.27461-0.72711-0.65803-1.0294-0.38343-0.30225-0.96718-0.47841-1.487-0.45077-0.51987 0.02764-0.97582 0.25906-1.2245 0.45768s-0.29016 0.36442-0.33161 0.53022"/><path transform="translate(0 .044449)" d="m86.466 27.637c-0.41796-0.1589-0.83592-0.31779-1.1589-0.76685s-0.55095-1.1882-0.48013-1.9447c0.07081-0.75648 0.44041-1.5302 1.0846-2.0155 0.64422-0.48532 1.563-0.68221 2.399-0.51295 0.83593 0.16926 1.5889 0.70466 2.0311 1.3212s0.5734 1.3143 0.50259 1.9775c-0.07081 0.66322-0.34369 1.2919-0.76339 1.639-0.4197 0.34715-0.98618 0.41278-1.4421 0.12089-0.45596-0.29189-0.80138-0.94127-0.89464-1.6598-0.09326-0.71849 0.06563-1.506 0.50087-2.1399 0.43524-0.63386 1.1468-1.114 1.9793-1.2971 0.83248-0.18307 1.7858-0.06909 2.4456 0.4197 0.65976 0.48878 1.0259 1.3523 1.0812 2.1503 0.05526 0.79793-0.20034 1.5302-0.51295 1.9741-0.31261 0.44387-0.68221 0.59931-1.0518 0.75475"/><path d="m76.124 23.482v4.2206"/><path d="m74.023 27.595c-0.70833-0.28822-1.4167-0.57643-1.8392-1.1871-0.42256-0.61064-0.55933-1.5437-0.3053-2.3228s0.89884-1.4044 1.5925-1.656c0.69368-0.25158 1.4362-0.12945 1.8866 0.10822s0.60872 0.59087 0.76702 0.94408"/><path transform="matrix(-1 0 0 1 152.25 0)" d="m74.023 27.595c-0.70833-0.28822-1.4167-0.57643-1.8392-1.1871-0.42256-0.61064-0.55933-1.5437-0.3053-2.3228s0.89884-1.4044 1.5925-1.656c0.69368-0.25158 1.4362-0.12945 1.8866 0.10822s0.60872 0.59087 0.76702 0.94408"/></g></svg>
