<?xml version="1.0" encoding="UTF-8"?><svg id="b" xmlns="http://www.w3.org/2000/svg" viewBox="0 0 48 48"><defs><style>.h{fill:none;stroke:#fff;stroke-linecap:round;stroke-linejoin:round;}</style></defs><rect id="c" class="h" x="5.5" y="5.5" width="37" height="37" rx="4" ry="4"/><path id="d" class="h" d="M5.5,31.8336s4.5211-1.5586,6.6963-6.3578c2.4103-.7852,4.8682-1.5513,6.966-2.4615,1.1201.8294,2.046,1.9309,3.4573,2.3527-1.3139,1.0677-2.8882,1.9726-4.7229,2.7147-.8491-.7851-2.3801.967-3.7822,1.7964-1.2041.7123,1.3529,4.2785,2.5501,3.6912.9011-.4421.9981-.2721.876-1.6789-.0446-.5142,1.2275-.9044,1.4491-2.2139,0,0,9.0043-1.9469,11.6983-4.6409,1.2748-1.2748,1.3732-2.8699,1.2148-3.8389-.0903-.5524,1.0637-.3591,1.1479-.3254.4062.2696,2.2319,4.076,4.1574,5.8616,1.0293,1.3272,1.9318,2.9764,4.7074,6.0674l.5846,2.0716"/><path id="e" class="h" d="M5.5,28.3119s3.3623-4.7523,6.1211-6.3148c-.0494-.0659.6003-1.5359,6.3633-4.3662l-1.2676-.4346.2607-.7666,1.5713-.5967,1.6641,1.002.2393-1.3291.6016-.2959,1.0762.5996,2.6426-2.2676-7.0186-1.1016s-.9042,1.5731-4.5939,2.5253c-.2579.2778-1.9524,1.1376-1.9471,1.6208.006.536-3.1936,1.5096-2.2614-1.9431,0,0,.6302-1.1234,3.0298-1.555,0,0,4.0563-2.247,6.2488-2.9893,2.4362.1084,4.5164.2405,6.3278.3905-.0403-.0028,2.2946-1.6325,4.4651,1.2301.052.0096,2.0275,1.301,2.4476,1.3558,0,0,.54-1.1676.5472-1.167,0,0,.1296-2.1866,1.6266-2.478,1.7782-.3461,3.4516,1.466,3.4516,1.466,0,0-1.0067,4.0738-3.5067,5.7201l2.4222,1.9429c-.1426-.0793,1.7457,2.4357,2.9062,6.4087.579,1.8661,1.6921,1.9313,3.582,5.4822"/><path id="f" class="h" d="M28.7102,11.3384c-.1958-.1523-.2875-1.6688,1.0435-1.4168.9227.1747.6673,1.5478,2.3334,1.5031"/><path id="g" class="h" d="M27.4472,32.9459c0-2.0692,1.8968-3.7006,4.0657-3.2887,1.4227.2702,2.5589,1.4862,2.7005,2.9112.1054,1.0599-.234,2.1058-.9749,2.7483-1.3724,1.1903-5.7913,4.398-5.7913,4.398h6.785"/></svg>