<svg xmlns="http://www.w3.org/2000/svg" id="a" viewBox="0 0 48 48"><defs><style>.t{fill:none;stroke:#fff;stroke-linecap:round;stroke-linejoin:round}</style></defs><circle cx="24" cy="24" r="21.5" class="t"/><path d="M19.3012 26.547c-.3445.6028-.9937 1.0092-1.7378 1.0092v0c-1.1046 0-2-.8954-2-2v-1.3c0-1.1046.8954-2 2-2v0c1.1046 0 2 .8954 2 2v.65h-4M20.5666 18.9625l2.3086 8.029c.1822.6335.8434.9994 1.4769.8172l.344-.099" class="t"/><rect width="4" height="5.3" x="25.2623" y="20.6675" class="t" rx="2" ry="2"/><path d="m23.5016 19.4641 1.4-.5M31.4297 18.8752v6.7217M35.8827 18.8752v6.7217M31.4297 22.2234h4.453" class="t"/><circle cx="37.9631" cy="26.8558" r=".75" style="fill:#fff;fill-opacity:1;stroke:none;stroke-width:0;stroke-opacity:0"/><path d="m38.7193 18.6805-.5992 5.9198M14.4264 21.806 11.86 26.1502l-1.2818-4.7778M15.634 30.5214c12.8948 7.1577 15.1277 1.1146 15.8171-2.5364" class="t"/></svg>
