<?xml version="1.0" encoding="UTF-8"?>
<!-- Created with Inkscape (http://www.inkscape.org/) -->
<svg width="48" height="48" version="1.1" viewBox="0 0 48 48" xml:space="preserve" xmlns="http://www.w3.org/2000/svg"><defs><style>
      .cls-1 {
        fill: none;
        stroke: #fff;
        stroke-linecap: round;
        stroke-linejoin: round;
      }
    </style></defs><g><g transform="matrix(.90126 0 0 .90126 2.8342 -3.0778)" fill="none" stroke="#fff" stroke-linecap="round" stroke-linejoin="round" stroke-width="1.1096"><path d="m6.314 15.548c5.357 4.0304 6.2713 3.7164 11.903 2.2709 5.6321-1.4455 6.3231-0.19153 12.747 2.6259 5.033 2.2074 6.667-1.6648 6.2923-2.9522-0.42815-1.4709-1.8337-1.9298-1.8337-1.9298-0.50446 2.4689 1.79 4.3274 3.1197 5.0235 1.3298 0.69619 2.1128 0.73557 2.1128 0.73557 0.02016 1.3524-0.9749 1.8943-0.9749 1.8943-2.3432-0.71379-4.1222-0.10382-5.1308 0.90338-1.4848 1.4826-2.1596 3.1792-4.3715 3.5664"/><path d="m31.596 25.684c-5.3692 0.4701-3.2364 6.3599-0.19832 7.8931-5.7399-0.37078-4.5022-5.1785-8.9413-8.4126-4.637-3.3783-7.8114-3.17-10.704-4.0354-2.8928-0.86538-5.1552-3.2219-5.1552-3.2219"/></g><g transform="matrix(1.229 0 0 1.229 -68.132 -13.486)" stroke-width=".8137"><path class="cls-2" d="m62.583 36.55c0-1.6 1.5-2.9 3.2-2.6 1.1 0.2 2 1.2 2.1 2.3 0 0.8-0.2 1.7-0.8 2.2-1.1 0.9-4.5 3.5-4.5 3.5h5.3" fill="none" stroke="#fff" stroke-linecap="round" stroke-linejoin="round"/><g transform="translate(3.819 -39.071)"><circle class="cls-7" cx="66" cy="80.7" r=".8" fill="#fff" stroke-width=".8137"/></g><g transform="translate(17.854 9.3285)" fill="none" stroke="#fff" stroke-linecap="round" stroke-linejoin="round"><line class="cls-2" x1="58" x2="54" y1="25.6" y2="31.7"/><path class="cls-2" d="m56 32.6c-1.5 0-2.7-1.2-2.7-2.6v-2.7c0-1.5 1.2-2.6 2.6-2.6 1.5 0 2.6 1.2 2.6 2.6v2.7c0.2 1.5-1 2.6-2.5 2.6z"/></g></g><rect class="cls-1" x="6" y="6" width="36" height="36" rx="3.8919" ry="3.8919" stroke-width=".99998"/></g></svg>
