<svg xmlns="http://www.w3.org/2000/svg" xml:space="preserve" viewBox="0 0 48 48"><path d="M7.961 13.329H40.04a3.455 3.455 0 0 1 3.461 3.464v14.414a3.455 3.455 0 0 1-3.461 3.464H7.96A3.455 3.455 0 0 1 4.5 31.207V16.793a3.455 3.455 0 0 1 3.461-3.464" style="fill:none;fill-opacity:.466567;stroke:#fff;stroke-width:1;stroke-linecap:round;stroke-linejoin:round;stroke-dashoffset:1.3;stroke-opacity:1"/><path d="M13.25 16.938v5.401H8.11v3.385h5.14v5.338h3.577v-5.338h5.334V22.34h-5.334v-5.401zM32.764 26.618a2.581 2.584 0 0 1-2.582 2.583 2.581 2.584 0 0 1-2.581-2.583 2.581 2.584 0 0 1 2.581-2.584 2.581 2.584 0 0 1 2.582 2.584M39.84 21.382a2.581 2.584 0 0 1-2.581 2.584 2.581 2.584 0 0 1-2.582-2.584A2.581 2.584 0 0 1 37.26 18.8a2.581 2.584 0 0 1 2.581 2.583" style="fill:none;fill-opacity:.466567;stroke:#fff;stroke-width:1;stroke-linecap:round;stroke-linejoin:round;stroke-dashoffset:1.3;stroke-opacity:1"/></svg>