<svg xmlns="http://www.w3.org/2000/svg" xml:space="preserve" width="48" height="48"><path fill="none" stroke="#fff" stroke-linecap="round" stroke-linejoin="round" d="m30.683 32.82 5.714 3.411c1.334.796 2.142.471 2.142-.875V25.273c0-1.032-1.083-1.385-1.659-.936l-6.197 3.743m.021-3.854v9.993A2.7 2.7 0 0 1 28 36.927H14.638a2.7 2.7 0 0 1-2.706-2.708v-9.993m6.485-5.144a3.372 3.372 0 1 1-3.37-3.373c1.86 0 3.37 1.51 3.37 3.373m7.164-.959a.991.991 0 1 1-1.983 0 .991.991 0 0 1 1.983 0m1.29 3.789a.991.991 0 1 1-1.983 0 .991.991 0 0 1 1.982 0m-6.668-.783a5.55 5.55 0 0 1-5.157 3.503 5.55 5.55 0 0 1-5.546-5.55 5.547 5.547 0 1 1 11.093 0v0c0 .723-.139 1.414-.39 2.047h2.504v0a5.5 5.5 0 0 1-.39-2.047c0-3.066 2.483-5.55 5.546-5.55s5.546 2.484 5.546 5.55a5.548 5.548 0 0 1-10.702 2.048m8.07.782a.991.991 0 1 1-1.982 0 .991.991 0 0 1 1.982 0m1.207-3.789a.991.991 0 1 1-1.983 0 .991.991 0 0 1 1.983 0m-3.16-2.347a.991.991 0 1 1-1.983 0 .991.991 0 0 1 1.983 0m9.256-4.833a1.862 1.862 0 1 1-3.724 0 1.862 1.862 0 0 1 3.724 0M9.5 5.5h29c2.216 0 4 1.784 4 4v29c0 2.216-1.784 4-4 4h-29c-2.216 0-4-1.784-4-4v-29c0-2.216 1.784-4 4-4"/></svg>
