<?xml version="1.0" encoding="UTF-8"?>
<svg data-name="Layer 1" version="1.1" viewBox="0 0 48 48" xml:space="preserve" xmlns="http://www.w3.org/2000/svg"><defs><style>
      .cls-1 {
        fill: none;
        stroke: #fff;
        stroke-linecap: round;
        stroke-linejoin: round;
      }
    </style><style>.q{fill:#fff;}.r,.s{fill:none;stroke:#fff;stroke-linecap:round;stroke-linejoin:round;}.s{stroke-width:1.0050968px;}</style></defs><g><line class="r" x1="15.091" x2="15.091" y1="13.577" y2="21.789" stroke="#fff"/><polyline class="r" transform="matrix(1.0265 0 0 1.0265 -298.03 -28.149)" points="302.48 40.65 299.83 48.65 297.18 40.65" stroke-width=".97421"/><polyline class="r" transform="matrix(1.0265 0 0 1.0265 -193.02 -28.15)" points="205.83 48.641 205.83 40.65 209.83 48.65 213.83 40.662 213.83 48.65" stroke-width=".9742"/><path class="r" d="m20.83 34.413v-8.2117h2.6883c1.5198 0 2.7519 1.2347 2.7519 2.7578 0 1.5231-1.2321 2.7578-2.7519 2.7578h-2.6883"/><g transform="matrix(1.0265 0 0 1.0265 -301.69 -15.524)" stroke="#fff" stroke-width=".97422"><polyline class="r" points="332.48 40.65 329.83 44.65 327.18 40.65"/><line class="r" x1="329.83" x2="329.83" y1="48.65" y2="44.65"/></g><g transform="matrix(1.0265 0 0 1.0265 -62.017 -15.524)" stroke-width=".97421"><line class="r" x1="91.606" x2="88.062" y1="46" y2="46"/><polyline class="r" points="87.184 48.65 89.834 40.65 92.484 48.65"/></g><rect x="6.9168" y="26.192" width="8.231" height="8.231" fill="none" stroke="#fff" stroke-linecap="round" stroke-linejoin="round"/><circle cx="36.921" cy="17.683" r="4.0621" fill="none" stroke="#fff" stroke-linecap="round" stroke-linejoin="round"/></g></svg>
