<?xml version="1.0" encoding="UTF-8"?><svg id="a" xmlns="http://www.w3.org/2000/svg" viewBox="0 0 48 48"><defs><style>.b{fill:none;stroke:#fff;stroke-linecap:round;stroke-linejoin:round;}</style></defs><rect class="b" x="4.5" y="9.5" width="39" height="29" rx="4" ry="4"/><path class="b" d="M4.5,27.625h13c1.7796,0,3.2222,1.4426,3.2222,3.2222s-1.4426,3.2222-3.2222,3.2222"/><path class="b" d="M4.5,20.375h13c1.7796,0,3.2222-1.4426,3.2222-3.2222s-1.4426-3.2222-3.2222-3.2222"/><path class="b" d="M43.5,27.625h-13c-1.7796,0-3.2222,1.4426-3.2222,3.2222s1.4426,3.2222,3.2222,3.2222"/><path class="b" d="M43.5,20.375h-13c-1.7796,0-3.2222-1.4426-3.2222-3.2222s1.4426-3.2222,3.2222-3.2222"/><path class="b" d="M12.5,20.375v7.25"/><path class="b" d="M35.5,20.375v7.25"/></svg>