<svg xmlns="http://www.w3.org/2000/svg" xml:space="preserve" id="svg1" version="1.1" viewBox="0 0 48 48"><defs id="defs1"><style id="style1">.a{fill:none;stroke:#fff;stroke-linecap:round;stroke-linejoin:round}</style></defs><path id="path55707" d="M24 2.5A21.499 21.499 0 0 0 2.5 24a21.499 21.499 0 0 0 2.535 10.01l-2.26 10.745 10.053-2.424A21.499 21.499 0 0 0 24 45.5 21.499 21.499 0 0 0 45.5 24 21.499 21.499 0 0 0 24 2.5z" style="fill:none;stroke:#fff;stroke-width:1;stroke-linecap:round;stroke-linejoin:round;stroke-opacity:1"/><path id="path55705" d="M23.998 27.103A3.1 3.103 0 1 1 27.094 24a3.096 3.099 0 0 1-3.096 3.103z" style="fill:none;stroke:#fff;stroke-width:1;stroke-linecap:round;stroke-linejoin:round;stroke-opacity:1"/><path id="path55158" d="M32.958 25.177A9.716 9.726 0 0 0 33.04 24a9.716 9.726 0 0 0-.082-1.177l2.546-1.996a.588.589 0 0 0 .147-.771L33.24 15.87a.588.589 0 0 0-.735-.26l-3.006 1.214a9.222 9.231 0 0 0-2.035-1.178l-.453-3.197a.588.589 0 0 0-.588-.506H21.59a.588.589 0 0 0-.589.506l-.452 3.197a9.034 9.043 0 0 0-2.035 1.178l-3.018-1.213a.588.589 0 0 0-.735.259l-2.411 4.186a.588.589 0 0 0 .147.77l2.54 1.997A9.799 9.808 0 0 0 14.955 24a9.716 9.726 0 0 0 .083 1.177l-2.541 1.996a.588.589 0 0 0-.147.771l2.411 4.186a.588.589 0 0 0 .735.26l3.006-1.214a9.222 9.231 0 0 0 2.035 1.178l.453 3.197a.588.589 0 0 0 .588.506H26.4a.588.589 0 0 0 .588-.506l.453-3.197a9.034 9.043 0 0 0 2.035-1.178l3.005 1.213a.588.589 0 0 0 .735-.259l2.412-4.186a.588.589 0 0 0-.147-.77z" style="fill:none;stroke:#fff;stroke-width:1;stroke-linecap:round;stroke-linejoin:round;stroke-opacity:1"/></svg>