<?xml version="1.0" encoding="UTF-8" standalone="no"?>
<svg
   viewBox="0 0 48 48"
   version="1.1"
   id="svg1"
   xml:space="preserve"
   xmlns="http://www.w3.org/2000/svg"
   xmlns:svg="http://www.w3.org/2000/svg"><defs
     id="defs1"><style
       id="style1">.a{fill:none;stroke:#fff;stroke-linecap:round;stroke-linejoin:round;}</style></defs><path
     id="rect1"
     style="opacity:1;fill:none;stroke:#ffffff;stroke-width:1;stroke-linecap:round;stroke-linejoin:round;stroke-dashoffset:0.5"
     d="M 5.5000007,22.886598 V 9.4570851 c 0,-0.656395 0.5282788,-1.184829 1.1844821,-1.184829 h 9.2235062 m 3.259973,0 h 10.021675 c 0.656202,0 1.184481,0.528434 1.184481,1.184829 V 40.262634 c 0,0.656395 -0.528279,1.184829 -1.184481,1.184829 H 19.34741 m -3.439421,0 H 6.6844828 c -0.6562033,0 -1.1844821,-0.528434 -1.1844821,-1.184829 V 27.314281" /><ellipse
     style="opacity:1;fill:none;stroke:#ffffff;stroke-width:1;stroke-linecap:round;stroke-linejoin:round;stroke-dashoffset:0.5"
     id="path2"
     cx="22.835243"
     cy="19.19306"
     rx="2.9612045"
     ry="2.9620719" /><ellipse
     style="fill:none;stroke:#ffffff;stroke-width:1;stroke-linecap:round;stroke-linejoin:round;stroke-dashoffset:0.5"
     id="path2-1"
     cx="39.301903"
     cy="9.5146084"
     rx="2.9612045"
     ry="2.9620719" /><ellipse
     style="fill:none;stroke:#ffffff;stroke-width:1;stroke-linecap:round;stroke-linejoin:round;stroke-dashoffset:0.5"
     id="path2-9"
     cx="39.538795"
     cy="29.064287"
     rx="2.9612045"
     ry="2.9620719" /><path
     style="opacity:1;fill:none;stroke:#ffffff;stroke-width:1;stroke-linecap:round;stroke-linejoin:round;stroke-dashoffset:0.5"
     d="M 36.745708,11.009905 25.279062,17.520302"
     id="path3" /><path
     style="opacity:1;fill:none;stroke:#ffffff;stroke-width:1;stroke-linecap:round;stroke-linejoin:round;stroke-dashoffset:0.5"
     d="m 25.309072,20.821083 11.821166,6.52003"
     id="path4" /><path
     style="opacity:1;fill:none;stroke:#ffffff;stroke-width:1;stroke-linecap:round;stroke-linejoin:round;stroke-dashoffset:0.5"
     d="M 9.1883798,35.151223 H 26.672343 l -3.481088,-6.350959 -3.169673,4.816017 -5.283065,-8.271945 z"
     id="path5" /></svg>
