<?xml version="1.0" encoding="UTF-8"?><svg id="b" xmlns="http://www.w3.org/2000/svg" viewBox="0 0 48 48"><defs><style>.c{fill:none;stroke:#fff;stroke-linecap:round;stroke-linejoin:round;}</style></defs><path class="c" d="M27.0368,33.5107l6.8782-21.7489c.583-1.8418,2.5498-2.8633,4.3926-2.2812,1.8428.583,2.8643,2.5488,2.2812,4.3926l-6.7657,21.3933c-2.1643,4.8458-7.4353,3.5841-9.1876,2.5747,1.9154-2.3108,1.9626-3.0841,2.4013-4.3305Z"/><path class="c" d="M17.0709,31.1031l4.6185-14.6018c.583-1.8418,2.5488-2.8633,4.3926-2.2812,1.8428.583,2.8643,2.5498,2.2812,4.3926l-5.1373,16.2419c-1.8708,3.8178-7.7867,5.573-12.9456.0496,4.9907.9533,6.3729-2.4809,6.7905-3.8011Z"/><path class="c" d="M10.6768,32.5137c-.3496,0-.7051-.0527-1.0566-.1641-1.8428-.583-2.8643-2.5488-2.2812-4.3926l2.3789-7.5225c.583-1.8418,2.5498-2.8633,4.3926-2.2812,1.8428.583,2.8643,2.5488,2.2812,4.3926l-2.3789,7.5225c-.4717,1.4912-1.8506,2.4453-3.3359,2.4453Z"/></svg>