<?xml version="1.0" encoding="UTF-8" standalone="no"?>
<!-- Created with Inkscape (http://www.inkscape.org/) -->

<svg
   width="48"
   height="48"
   viewBox="0 0 12.7 12.7"
   version="1.1"
   id="svg1"
   inkscape:version="1.3.2 (091e20e, 2023-11-25, custom)"
   sodipodi:docname="wdr_aktuell.svg"
   xmlns:inkscape="http://www.inkscape.org/namespaces/inkscape"
   xmlns:sodipodi="http://sodipodi.sourceforge.net/DTD/sodipodi-0.dtd"
   xmlns="http://www.w3.org/2000/svg"
   xmlns:svg="http://www.w3.org/2000/svg">
  <sodipodi:namedview
     id="namedview1"
     pagecolor="#000000"
     bordercolor="#000000"
     borderopacity="0.25"
     inkscape:showpageshadow="2"
     inkscape:pageopacity="0.0"
     inkscape:pagecheckerboard="0"
     inkscape:deskcolor="#d1d1d1"
     inkscape:document-units="px"
     showgrid="true"
     inkscape:zoom="22.627417"
     inkscape:cx="25.7873"
     inkscape:cy="26.494407"
     inkscape:window-width="1920"
     inkscape:window-height="1027"
     inkscape:window-x="1912"
     inkscape:window-y="-8"
     inkscape:window-maximized="1"
     inkscape:current-layer="layer1">
    <inkscape:grid
       id="grid1"
       units="px"
       originx="0"
       originy="0"
       spacingx="0.26458334"
       spacingy="0.26458334"
       empcolor="#0099e5"
       empopacity="0.30196078"
       color="#0099e5"
       opacity="0.14901961"
       empspacing="5"
       dotted="false"
       gridanglex="30"
       gridanglez="30"
       visible="true" />
  </sodipodi:namedview>
  <defs
     id="defs1" />
  <g
     inkscape:label="Ebene 1"
     inkscape:groupmode="layer"
     id="layer1">
    <rect
       style="fill:none;stroke:#ffffff;stroke-width:0.26458333;stroke-dasharray:none;stroke-opacity:1"
       id="rect1"
       width="8.6221647"
       height="3.47928"
       x="2.0658543"
       y="6.5095782"
       ry="0.55506277" />
    <path
       class="cls-2"
       d="m 8.6353382,8.8685024 c -0.079375,0.15875 -0.2645833,0.2645833 -0.4497916,0.2645833 v 0 c -0.2910417,0 -0.5291667,-0.238125 -0.5291667,-0.5291666 V 8.2599607 c 0,-0.2910416 0.238125,-0.5291666 0.5291667,-0.5291666 v 0 c 0.2910416,0 0.5291666,0.238125 0.5291666,0.5291666 V 8.4451691 H 7.6563799"
       id="path2228"
       style="fill:none;stroke:#ffffff;stroke-width:0.264583;stroke-linecap:round;stroke-linejoin:round" />
    <path
       class="cls-2"
       d="m 9.148795,7.0155923 v 1.8520833 c 0,0.15875 0.1058333,0.2645833 0.2645833,0.2645833 h 0.079375"
       id="path2208"
       style="fill:none;stroke:#ffffff;stroke-width:0.264583;stroke-linecap:round;stroke-linejoin:round" />
    <g
       id="g2187"
       transform="matrix(0.26458333,0,0,0.26458333,-60.969922,-8.0003385)">
      <path
         class="cls-2"
         d="m 254,59.3 v 3.3 c 0,1.1 0.9,2 2,2 v 0 c 1.1,0 2,-0.9 2,-2 v -3.3"
         id="path2187"
         style="fill:none;stroke:#ffffff;stroke-linecap:round;stroke-linejoin:round" />
      <line
         class="cls-2"
         x1="258"
         y1="62.700001"
         x2="258"
         y2="64.699997"
         id="line2187"
         style="fill:none;stroke:#ffffff;stroke-linecap:round;stroke-linejoin:round" />
    </g>
    <polyline
       class="cls-2"
       points="280 40.7 278 48.7 276 40.7 274 48.7 272 40.7"
       id="polyline2180"
       style="fill:none;stroke:#ffffff;stroke-linecap:round;stroke-linejoin:round"
       transform="matrix(0.26458333,0,0,0.26458333,-68.721106,-6.9286769)" />
    <path
       class="cls-2"
       d="M 5.8815335,5.9486552 V 3.8319885 h 0.47625 c 0.5027083,0 0.9260416,0.4233334 0.9260416,0.9260417 v 0.2645833 c 0,0.5027083 -0.4233333,0.9260417 -0.9260416,0.9260417 z"
       id="path2227"
       style="fill:none;stroke:#ffffff;stroke-width:0.264583;stroke-linecap:round;stroke-linejoin:round" />
    <g
       id="g2168"
       transform="matrix(0.26458333,0,0,0.26458333,-51.293625,-6.9177461)">
      <path
         class="cls-2"
         d="m 223.4,48.7 v -8 h 2.6 c 1.5,0 2.7,1.2 2.7,2.7 0,1.5 -1.2,2.7 -2.7,2.7 h -2.6"
         id="path2168"
         style="fill:none;stroke:#ffffff;stroke-linecap:round;stroke-linejoin:round" />
      <line
         class="cls-2"
         x1="226"
         y1="46"
         x2="228.60001"
         y2="48.599998"
         id="line2168"
         style="fill:none;stroke:#ffffff;stroke-linecap:round;stroke-linejoin:round" />
    </g>
    <g
       id="g2219"
       transform="matrix(0.26458333,0,0,0.26458333,-11.771201,-7.9853425)">
      <path
         class="cls-2"
         d="m 58,62.7 c 0,1.1 -0.9,2 -2,2 v 0 c -1.1,0 -2,-0.9 -2,-2 v -1.3 c 0,-1.1 0.9,-2 2,-2 v 0 c 1.1,0 2,0.9 2,2"
         id="path2219"
         style="fill:none;stroke:#ffffff;stroke-linecap:round;stroke-linejoin:round" />
      <line
         class="cls-2"
         x1="58"
         y1="64.699997"
         x2="58"
         y2="59.299999"
         id="line2219"
         style="fill:none;stroke:#ffffff;stroke-linecap:round;stroke-linejoin:round" />
    </g>
    <g
       id="g2201"
       transform="matrix(0.26458333,0,0,0.26458333,-36.677865,-7.9474209)">
      <line
         class="cls-2"
         x1="154"
         y1="56.599998"
         x2="154"
         y2="64.699997"
         id="line2199"
         style="fill:none;stroke:#ffffff;stroke-linecap:round;stroke-linejoin:round" />
      <line
         class="cls-2"
         x1="154"
         y1="63"
         x2="157.60001"
         y2="59.299999"
         id="line2200"
         style="fill:none;stroke:#ffffff;stroke-linecap:round;stroke-linejoin:round" />
      <line
         class="cls-2"
         x1="155.2"
         y1="61.799999"
         x2="158"
         y2="64.599998"
         id="line2201"
         style="fill:none;stroke:#ffffff;stroke-linecap:round;stroke-linejoin:round" />
    </g>
    <g
       id="g2209"
       transform="matrix(0.26458333,0,0,0.26458333,-59.467582,-7.9862828)">
      <path
         class="cls-2"
         d="m 246,57.7 v 6 c 0,0.6 0.4,1 1,1 h 0.3"
         id="path2209"
         style="fill:none;stroke:#ffffff;stroke-linecap:round;stroke-linejoin:round" />
      <line
         class="cls-2"
         x1="244.89999"
         y1="59.299999"
         x2="247.10001"
         y2="59.299999"
         id="line2209"
         style="fill:none;stroke:#ffffff;stroke-linecap:round;stroke-linejoin:round" />
    </g>
    <path
       class="cls-2"
       d="m 9.8309238,7.0279946 v 1.8520833 c 0,0.15875 0.105833,0.2645833 0.2645832,0.2645833 h 0.07938"
       id="path2208-2"
       style="fill:none;stroke:#ffffff;stroke-width:0.264583;stroke-linecap:round;stroke-linejoin:round" />
  </g>
</svg>
