<?xml version="1.0" encoding="UTF-8" standalone="no"?>
<svg
   viewBox="0 0 48 48"
   version="1.1"
   id="svg1"
   sodipodi:docname="weapon_master.svg"
   inkscape:version="1.2.2 (b0a8486541, 2022-12-01)"
   xml:space="preserve"
   xmlns:inkscape="http://www.inkscape.org/namespaces/inkscape"
   xmlns:sodipodi="http://sodipodi.sourceforge.net/DTD/sodipodi-0.dtd"
   xmlns="http://www.w3.org/2000/svg"
   xmlns:svg="http://www.w3.org/2000/svg"><sodipodi:namedview
     id="namedview1"
     pagecolor="#505050"
     bordercolor="#eeeeee"
     borderopacity="1"
     inkscape:showpageshadow="0"
     inkscape:pageopacity="0"
     inkscape:pagecheckerboard="0"
     inkscape:deskcolor="#505050"
     inkscape:zoom="50.381358"
     inkscape:cx="26.29941"
     inkscape:cy="36.759628"
     inkscape:window-width="1918"
     inkscape:window-height="1053"
     inkscape:window-x="0"
     inkscape:window-y="0"
     inkscape:window-maximized="1"
     inkscape:current-layer="g4070"
     showgrid="false" /><defs
     id="defs1"><style
       id="style1">.a { fill:none;stroke:#fff;stroke-linecap:round;stroke-linejoin:round; }
</style></defs><path
     style="fill:none;stroke:#ffffff;stroke-width:1;stroke-linecap:round;stroke-linejoin:round;stroke-opacity:1"
     d="m 9.5,5.5 h 29 c 2.216,0 4,1.784 4,4 v 29 c 0,2.216 -1.784,4 -4,4 h -29 c -2.216,0 -4,-1.784 -4,-4 v -29 c 0,-2.216 1.784,-4 4,-4 z"
     id="path3885" /><g
     id="g4070"><g
       id="g4018"><path
         style="fill:none;stroke:#ffffff;stroke-width:1;stroke-linecap:round;stroke-linejoin:round;stroke-opacity:1"
         d="m 19.885248,22.17634 -5.604142,-4.108627 c -0.701409,-0.514231 -1.807865,-0.420453 -2.541058,0.592214 -0.733192,1.012667 -0.366559,2.054677 0.34188,2.5924 l 6.808009,5.167449"
         id="path3883" /><path
         style="fill:none;stroke:#ffffff;stroke-width:1;stroke-linecap:round;stroke-linejoin:round;stroke-opacity:1"
         d="m 19.768278,22.150432 c -0.70141,-0.514232 -1.807864,-0.420454 -2.541058,0.592214 -0.733193,1.012668 -0.36656,2.054676 0.34188,2.5924"
         id="path3881" /></g><g
       id="g4011"><path
         style="fill:none;stroke:#ffffff;stroke-width:1;stroke-linecap:round;stroke-linejoin:round;stroke-opacity:1"
         d="m 22.806099,19.959301 1.643906,2.577084 1.233442,0.906836 v 1.226689 l -2.53086,0.572731 V 23.91144 l -1.377111,-1.001017 -1.835385,-2.844731 v 3.271081"
         id="path3879" /><path
         style="fill:none;stroke:#ffffff;stroke-width:1;stroke-linecap:round;stroke-linejoin:round;stroke-opacity:1"
         d="m 20.750446,20.831 v -1.950189 l 0.630264,-0.751462 h 0.552797 l 0.804105,0.693841 V 20.831 Z"
         id="path3877" /></g><g
       id="g4046"><path
         style="fill:none;stroke:#ffffff;stroke-width:1;stroke-linecap:round;stroke-linejoin:round;stroke-opacity:1"
         d="m 40.980965,41.453098 v -3.133197 c 0,-0.570329 -0.332341,-1.172215 -0.783579,-1.521013 l -3.362157,-2.598881 0.0015,-0.997321 -6.916633,-5.34642 c 0,-0.586921 -0.216459,-1.079075 -0.667157,-1.325463 -0.543631,0.08069 -1.001177,0.177689 -1.538914,0.183139 0.476818,0.557864 0.683632,1.220254 0.689903,1.762672"
         id="path3875" /><path
         style="fill:none;stroke:#ffffff;stroke-width:1;stroke-linecap:round;stroke-linejoin:round;stroke-opacity:1"
         d="m 28.403928,28.476614 c 0.474761,0.156082 1.463099,-0.05766 1.516168,-0.620348"
         id="path3873" /><path
         style="fill:none;stroke:#ffffff;stroke-width:1;stroke-linecap:round;stroke-linejoin:round;stroke-opacity:1"
         d="m 25.026564,25.072131 2.731578,2.111456"
         id="path3871" /><path
         id="path4038"
         style="fill:none;stroke:#ffffff;stroke-width:1;stroke-linecap:round;stroke-linejoin:round;stroke-opacity:1"
         d="M 33.856969 36.947088 L 35.754809 38.414081 L 35.754809 42.186307 " /><path
         style="fill:none;stroke:#ffffff;stroke-width:1;stroke-linecap:round;stroke-linejoin:round;stroke-opacity:1"
         d="m 35.97349,38.576 0.8208,0.634463 4.046635,-0.562376"
         id="path3865" /></g><g
       id="g4023"><path
         style="fill:none;stroke:#ffffff;stroke-width:1;stroke-linecap:round;stroke-linejoin:round;stroke-opacity:1"
         d="m 15.71631,24.243288 v 1.351729 l 2.85815,2.209294 0.994742,1.423527 0.756382,3.694282 0.338926,4.840678 0.776189,0.723422 2.31485,-0.194111 0.296031,-0.974524 -0.384115,-4.951586"
         id="path3863" /></g><g
       id="g4028"
       style="display:inline"><path
         style="fill:none;stroke:#ffffff;stroke-width:1;stroke-linecap:round;stroke-linejoin:round;stroke-opacity:1"
         d="m 19.625563,29.14733 4.146375,3.205066 c 1.108081,0.856525 1.482681,2.480385 1.628021,3.873351 l 0.636766,6.102871"
         id="path3861" /><path
         style="fill:none;stroke:#ffffff;stroke-width:1;stroke-linecap:round;stroke-linejoin:round;stroke-opacity:1"
         d="m 33.007552,42.434995 c 0.04781,-0.886122 0.03636,-1.695896 -0.169182,-2.633372 L 31.017457,38.394094 V 36.1227"
         id="path3853"
         sodipodi:nodetypes="cccc" /><path
         style="fill:none;stroke:#ffffff;stroke-width:1;stroke-linecap:round;stroke-linejoin:round;stroke-opacity:1"
         d="m 24.114343,35.231991 1.285616,0.993756"
         id="path3855" /><path
         style="fill:none;stroke:#ffffff;stroke-width:1;stroke-linecap:round;stroke-linejoin:round;stroke-opacity:1"
         d="m 23.691187,32.280072 6.05304,4.678881 0.432524,0.611181 v 1.365229 l 1.407407,3.545239"
         id="path3847"
         sodipodi:nodetypes="ccccc" /></g><g
       id="g4034"><path
         style="display:inline;fill:none;stroke:#ffffff;stroke-width:1;stroke-linecap:round;stroke-linejoin:round;stroke-opacity:1"
         d="m 19.450752,25.088923 10.516162,8.128786 v 1.705265 l 1.378354,1.06544 v -1.705265 l 1.627364,1.25792"
         id="path3851" /></g></g><g
     id="g3967"><path
       style="fill:none;stroke:#ffffff;stroke-width:1;stroke-linecap:round;stroke-linejoin:round;stroke-opacity:1"
       d="M 39.960303,7.1266509 V 19.300075"
       id="path3845" /><path
       style="fill:none;stroke:#ffffff;stroke-width:1;stroke-linecap:round;stroke-linejoin:round;stroke-opacity:1"
       d="M 8.0396968,7.1266509 V 19.300075"
       id="path3843" /><path
       style="fill:none;stroke:#ffffff;stroke-width:1;stroke-linecap:round;stroke-linejoin:round;stroke-opacity:1"
       d="M 24,7.1266509 V 19.300075"
       id="path3841" /><g
       id="g3942"><path
         style="fill:none;stroke:#ffffff;stroke-width:1;stroke-linecap:round;stroke-linejoin:round;stroke-opacity:1"
         d="m 11.467997,13.213363 h 3.220978"
         id="path3839" /><g
         id="g3936"><path
           style="fill:none;stroke:#ffffff;stroke-width:1;stroke-linecap:round;stroke-linejoin:round;stroke-opacity:1"
           d="m 16.431471,15.694085 c 0.39502,0.506678 0.890358,0.695404 1.579495,0.695404 h 0.953707 c 0.887533,0 1.607019,-0.710386 1.607027,-1.586693 v -4e-6 c 0,-0.876307 -0.719494,-1.586695 -1.607027,-1.586695 h -1.053751 c -0.887532,0 -1.607018,-0.710388 -1.607018,-1.586695 v -3e-6 c 0,-0.876307 0.719486,-1.586694 1.607018,-1.586694 h 0.953708 c 0.689136,0 1.184474,0.188726 1.579495,0.695404"
           id="path3837" /><path
           style="fill:none;stroke:#ffffff;stroke-width:1;stroke-linecap:round;stroke-linejoin:round;stroke-opacity:1"
           d="M 18.437794,17.180104 V 9.2466219"
           id="path3835" /></g></g><g
       id="g3950"><g
         id="g3928"><path
           style="fill:none;stroke:#ffffff;stroke-width:1;stroke-linecap:round;stroke-linejoin:round;stroke-opacity:1"
           d="m 32.391774,15.694085 c 0.39502,0.506678 0.890358,0.695404 1.579495,0.695404 h 0.953707 c 0.887533,0 1.607019,-0.710386 1.607027,-1.586693 v -4e-6 c 0,-0.876307 -0.719494,-1.586695 -1.607027,-1.586695 h -1.053751 c -0.887532,0 -1.607018,-0.710388 -1.607018,-1.586695 v -3e-6 c 0,-0.876307 0.719486,-1.586694 1.607018,-1.586694 h 0.953708 c 0.689136,0 1.184474,0.188726 1.579495,0.695404"
           id="path3833" /><path
           style="fill:none;stroke:#ffffff;stroke-width:1;stroke-linecap:round;stroke-linejoin:round;stroke-opacity:1"
           d="M 34.398098,17.180104 V 9.2466219"
           id="path3831" /></g><g
         id="g3932"><path
           style="fill:none;stroke:#ffffff;stroke-width:1;stroke-linecap:round;stroke-linejoin:round;stroke-opacity:1"
           d="m 27.4283,13.213363 h 3.220978"
           id="path3829" /><path
           style="fill:none;stroke:#ffffff;stroke-width:1;stroke-linecap:round;stroke-linejoin:round;stroke-opacity:1"
           d="m 29.038789,11.626667 v 3.173392"
           id="path3613" /></g></g></g></svg>
