<svg xmlns="http://www.w3.org/2000/svg" xml:space="preserve" id="svg1" version="1.1" viewBox="0 0 48 48"><defs id="defs1"><style id="style1">.a{fill:none;stroke:#fff;stroke-linecap:round;stroke-linejoin:round}</style></defs><path id="path4" d="m33.772 6.599-.107-.814c-.143-1.084-.792-1.262-1.453-1.283v0c-.22-.006-.443.005-.647.005H20.547c-1.362 0-2.344.745-2.167 2.077l1.645 12.396c-.464-.066-.933-.1-1.403-.101-5.561 0-10.069 4.506-10.068 10.063 0 2.952 1.27 5.606 3.296 7.447m5.803 2.571c.319.03.642.046.97.046 5.561 0 10.072-4.505 10.07-10.064 0-.456-.032-.858-.13-1.596l-1.53-11.544c-.136-1.019-.06-2.007 1.372-2.023l4.773-.052a1.379 1.379 0 0 0 1.323-1.573l-.105-.799m2.748-2.359c-.22-.007-.442.004-.647.004H25.48c-1.363 0-2.344.746-2.168 2.078l1.646 12.396c-.465-.067-.934-.1-1.403-.102-5.561.001-10.07 4.507-10.069 10.064 0 5.558 4.508 10.063 10.069 10.064 5.562 0 10.072-4.506 10.07-10.064 0-.456-.031-.858-.13-1.597l-1.53-11.544c-.135-1.018-.06-2.007 1.373-2.023l4.772-.052a1.379 1.379 0 0 0 1.323-1.573l-.836-6.368c-.142-1.085-.792-1.263-1.453-1.283Z" style="display:inline;fill:none;fill-opacity:.266292;stroke:#fff;stroke-width:1stroke-linecap:round;stroke-linejoin:round;stroke-dasharray:none"/></svg>
