<?xml version="1.0" encoding="UTF-8" standalone="no"?>
<!-- Created with Inkscape (http://www.inkscape.org/) -->

<svg
   width="48"
   height="48"
   viewBox="0 0 48 48"
   version="1.1"
   id="svg1"
   xml:space="preserve"
   xmlns="http://www.w3.org/2000/svg"
   xmlns:svg="http://www.w3.org/2000/svg"><defs
     id="defs1" /><g
     id="layer1"
     transform="matrix(0.79955507,0,0,0.81223671,5.1317678,4.9793393)"><path
       style="fill:none;stroke:#ffffff;stroke-linecap:round;stroke-linejoin:round;stroke-opacity:1"
       d="m 3.630786,19.485218 2.0708928,8.337361 1.1161304,-0.02689 1.1026832,-5.177232 h 1.1430253 l 1.3312883,5.150337 h 1.062341 l 2.017103,-8.229781"
       id="path1" /><path
       style="fill:none;stroke:#ffffff;stroke-linecap:round;stroke-linejoin:round;stroke-opacity:1"
       d="m 17.049128,25.692552 3.051063,-1.96341"
       id="path2" /><path
       style="fill:none;stroke:#ffffff;stroke-linecap:round;stroke-linejoin:round;stroke-opacity:1"
       d="M 20.306183,26.491291 Z"
       id="path3" /><path
       style="fill:none;stroke:#ffffff;stroke-linecap:round;stroke-linejoin:round;stroke-opacity:1"
       d="m 20.263534,23.463724 c -0.349245,-0.493719 -0.863404,-0.868618 -1.440265,-1.050169 -0.576861,-0.181552 -1.213055,-0.168696 -1.782111,0.03601 -0.569056,0.204707 -1.06765,0.600071 -1.396664,1.107495 -0.329015,0.507424 -0.486528,1.123945 -0.441228,1.727002 0.0453,0.603057 0.293149,1.189128 0.694277,1.641705 0.401127,0.452578 0.95319,0.769019 1.546442,0.886417 0.593251,0.117397 1.224227,0.03507 1.767492,-0.230626 0.543265,-0.265693 0.995647,-0.713196 1.267215,-1.253548 0.03966,-0.07892 0.07558,-0.159726 0.107578,-0.242052"
       id="path4" /><path
       style="fill:none;stroke:#ffffff;stroke-linecap:round;stroke-linejoin:round;stroke-opacity:1"
       d="m 23.003216,19.950637 0.0269,7.088889 0.247232,0.58954 0.285261,0.15214 3.705697,0.01115"
       id="path5" /><path
       style="fill:none;stroke:#ffffff;stroke-linecap:round;stroke-linejoin:round;stroke-opacity:1"
       d="m 29.55309,22.174326 0.01902,5.762283"
       id="path6" /><path
       style="opacity:1;fill:none;stroke:#ffffff;stroke-linecap:round;stroke-linejoin:round;stroke-dasharray:none;stroke-opacity:1"
       id="path7"
       d="m 29.857334,20.272633 a 0.28526148,0.28526148 0 0 1 -0.281303,0.285234 0.28526148,0.28526148 0 0 1 -0.28911,-0.27732 0.28526148,0.28526148 0 0 1 0.273282,-0.292929 0.28526148,0.28526148 0 0 1 0.296692,0.269191 l -0.284822,0.01582 z" /><path
       style="fill:none;stroke:#ffffff;stroke-linecap:round;stroke-linejoin:round;stroke-opacity:1"
       d="m 32.576862,28.088748 v -4.96355 l 0.342314,-0.456418 3.137876,-0.03804 0.722663,0.703645 v 4.640253"
       id="path8" /><path
       style="display:inline;fill:none;stroke:#ffffff;stroke-linecap:round;stroke-linejoin:round;stroke-opacity:1"
       d="m 39.804173,20.063455 v 7.745676"
       id="path9" /><path
       style="display:inline;fill:none;stroke:#ffffff;stroke-linecap:round;stroke-linejoin:round;stroke-opacity:1"
       d="m 43.878722,22.672242 -3.173576,2.097787 v 0.806841 l 3.119786,2.218814"
       id="path10" /></g><rect
     class="cls-1"
     x="5.5"
     y="5.5"
     width="37"
     height="37"
     rx="4"
     ry="4"
     id="rect1"
     style="fill:none;stroke:#ffffff;stroke-linecap:round;stroke-linejoin:round" /></svg>
