<?xml version="1.0" encoding="UTF-8" standalone="no"?>
<svg
   viewBox="0 0 48 48"
   version="1.1"
   id="svg1"
   sodipodi:docname="wetv.svg"
   inkscape:version="1.3.2 (091e20ef0f, 2023-11-25)"
   xml:space="preserve"
   xmlns:inkscape="http://www.inkscape.org/namespaces/inkscape"
   xmlns:sodipodi="http://sodipodi.sourceforge.net/DTD/sodipodi-0.dtd"
   xmlns="http://www.w3.org/2000/svg"
   xmlns:svg="http://www.w3.org/2000/svg"><sodipodi:namedview
     id="namedview1"
     pagecolor="#505050"
     bordercolor="#eeeeee"
     borderopacity="1"
     inkscape:showpageshadow="0"
     inkscape:pageopacity="0"
     inkscape:pagecheckerboard="0"
     inkscape:deskcolor="#505050"
     inkscape:zoom="6.2976698"
     inkscape:cx="-46.763328"
     inkscape:cy="13.894028"
     inkscape:window-width="1918"
     inkscape:window-height="1053"
     inkscape:window-x="0"
     inkscape:window-y="0"
     inkscape:window-maximized="1"
     inkscape:current-layer="svg1" /><defs
     id="defs1"><style
       id="style1">.a { fill:none;stroke:#fff;stroke-linecap:round;stroke-linejoin:round; }
</style></defs><path
     style="fill:none;fill-opacity:0;stroke-opacity:1;stroke:#ffffff;stroke-linecap:round;stroke-linejoin:round;"
     d="m 40.904782,27.313492 c -5.648816,5.52215 -13.839438,9.919212 -21.313191,12.820302 -3.94819,1.532571 -5.909997,0.480056 -7.163377,-3.187194 -1.101876,-3.904093 -1.300106,-8.003539 -1.300106,-12.946601 0,-4.943061 0.19823,-9.042506 1.300106,-12.9466 1.25338,-3.6672507 3.215187,-4.7197637 7.163377,-3.1871927 7.473753,2.9010887 15.664375,7.2981507 21.313191,12.8203017 0,0 1.595218,1.43596 1.595218,3.313491 0,1.877532 -1.595218,3.313493 -1.595218,3.313493 z"
     id="path6" /><path
     style="fill:none;fill-opacity:0;stroke-opacity:1;stroke:#ffffff;stroke-linecap:round;stroke-linejoin:round;"
     d="M 33.251472,26.593691 C 27.986852,30.916244 20.353303,34.358119 13.387865,36.628995 9.7082057,37.828639 7.8798267,37.004767 6.7116849,34.134166 5.6847469,31.078172 5.5000001,27.869263 5.5000001,23.999999 c 0,-3.869263 0.1847468,-7.07817 1.2116848,-10.134165 1.1681418,-2.870601 2.9965208,-3.694474 6.6761801,-2.494829 6.965438,2.270875 14.598987,5.71275 19.863607,10.035304 0,0 1.486722,1.124022 1.486722,2.59369 0,1.46967 -1.486722,2.593692 -1.486722,2.593692 z"
     id="path5" /><path
     style="fill:none;fill-opacity:0;stroke-opacity:1;stroke:#ffffff;stroke-linecap:round;stroke-linejoin:round;"
     d="m 27.557193,24.62581 c -3.167612,2.148734 -6.459392,3.920055 -10.281122,5.359865 -1.263439,0.475991 -1.373369,-0.709788 -1.492271,-1.719757 -0.120173,-1.217151 -0.1857,-2.118709 -0.1857,-4.379427 0,-2.260719 0.06552,-3.162277 0.1857,-4.379428 0.118902,-1.009969 0.228832,-2.195748 1.492271,-1.719756 3.82173,1.43981 7.11351,3.21113 10.281122,5.359865 0,0 0.413269,0.288453 0.413269,0.739318 0,0.450866 -0.413269,0.73932 -0.413269,0.73932 z"
     id="path4" /></svg>
