<svg xmlns="http://www.w3.org/2000/svg" xml:space="preserve" id="svg1" version="1.1" viewBox="0 0 48 48"><defs id="defs1"><style id="style1">.a{fill:none;stroke:#fff;stroke-linecap:round;stroke-linejoin:round}</style></defs><path id="path6" d="M33.965 31.59h-4.75m-.643-6.518h6.035c1.939 0 3.5 1.561 3.5 3.5v6.035c0 1.939-1.561 3.5-3.5 3.5h-6.035a3.492 3.492 0 0 1-3.5-3.5v-6.035c0-1.939 1.561-3.5 3.5-3.5zm3.017 4.142v4.75m-18.196-8.892h6.035c1.939 0 3.5 1.561 3.5 3.5v6.035c0 1.939-1.561 3.5-3.5 3.5h-6.035a3.492 3.492 0 0 1-3.5-3.5v-6.035c0-1.939 1.561-3.5 3.5-3.5zm15.18-15.179h6.034c1.939 0 3.5 1.561 3.5 3.5v6.035c0 1.939-1.561 3.5-3.5 3.5h-6.035a3.492 3.492 0 0 1-3.5-3.5v-6.035c0-1.939 1.561-3.5 3.5-3.5zm-15.18 0h6.035c1.939 0 3.5 1.561 3.5 3.5v6.035c0 1.939-1.561 3.5-3.5 3.5h-6.035a3.492 3.492 0 0 1-3.5-3.5v-6.035c0-1.939 1.561-3.5 3.5-3.5zM9.5 5.5h29c2.216 0 4 1.784 4 4v29c0 2.216-1.784 4-4 4h-29c-2.216 0-4-1.784-4-4v-29c0-2.216 1.784-4 4-4z" style="fill:none;fill-opacity:.266292;stroke:#fff;stroke-width:1stroke-linecap:round;stroke-linejoin:round;stroke-dasharray:none;stroke-opacity:1"/></svg>
