<?xml version="1.0" encoding="UTF-8" standalone="no"?>
<svg
   viewBox="0 0 48 48"
   version="1.1"
   id="svg1"
   sodipodi:docname="weather_clock_widgets.svg"
   inkscape:version="1.2.2 (b0a8486541, 2022-12-01)"
   xml:space="preserve"
   xmlns:inkscape="http://www.inkscape.org/namespaces/inkscape"
   xmlns:sodipodi="http://sodipodi.sourceforge.net/DTD/sodipodi-0.dtd"
   xmlns="http://www.w3.org/2000/svg"
   xmlns:svg="http://www.w3.org/2000/svg"><sodipodi:namedview
     id="namedview1"
     pagecolor="#505050"
     bordercolor="#eeeeee"
     borderopacity="1"
     inkscape:showpageshadow="0"
     inkscape:pageopacity="0"
     inkscape:pagecheckerboard="0"
     inkscape:deskcolor="#505050"
     inkscape:zoom="12.59534"
     inkscape:cx="14.291"
     inkscape:cy="19.372245"
     inkscape:window-width="1918"
     inkscape:window-height="1053"
     inkscape:window-x="0"
     inkscape:window-y="0"
     inkscape:window-maximized="1"
     inkscape:current-layer="svg1"
     showgrid="false" /><defs
     id="defs1"><style
       id="style1">.a { fill:none;stroke:#fff;stroke-linecap:round;stroke-linejoin:round; }
</style></defs><g
     id="g13798"><path
       style="fill:none;stroke:#ffffff;stroke-linecap:round;stroke-linejoin:round"
       d="m 9.5,5.5 h 29 c 2.216,0 4,1.784 4,4 v 29 c 0,2.216 -1.784,4 -4,4 h -29 c -2.216,0 -4,-1.784 -4,-4 v -29 c 0,-2.216 1.784,-4 4,-4 z"
       id="path13715" /><g
       id="g13758"><path
         style="fill:none;stroke:#ffffff;stroke-linecap:round;stroke-linejoin:round"
         d="M 15.247201,14.155405"
         id="path13713" /><path
         style="fill:none;stroke:#ffffff;stroke-linecap:round;stroke-linejoin:round"
         d="m 15.247201,14.155405 c 1.823762,-0.09715 3.721128,0.943182 4.350858,3.3234 a 2.8133364,2.7850168 0 0 1 0.02045,5.549793 H 11.75507 c -3.7661089,-0.505998 -4.2813421,-5.934352 0,-6.66299 a 4.1463999,4.1046614 0 0 1 3.492135,-2.210203 z"
         id="path13711" /><path
         style="fill:none;stroke:#ffffff;stroke-linecap:round;stroke-linejoin:round"
         d="m 17.340847,14.576396 a 2.5434524,2.5178495 0 1 1 3.508492,3.3234"
         id="path13709" /><path
         style="fill:none;stroke:#ffffff;stroke-linecap:round;stroke-linejoin:round"
         d="M 19.622594,12.111171 V 10.68223"
         id="path13707" /><path
         style="fill:none;stroke:#ffffff;stroke-linecap:round;stroke-linejoin:round"
         d="M 17.066874,13.159598 16.044585,12.147601"
         id="path13705" /><path
         style="fill:none;stroke:#ffffff;stroke-linecap:round;stroke-linejoin:round"
         d="m 22.178315,18.223633 1.022287,1.00795"
         id="path13703" /><path
         style="fill:none;stroke:#ffffff;stroke-linecap:round;stroke-linejoin:round"
         d="m 23.237405,15.689592 h 1.44347"
         id="path13701" /><path
         style="fill:none;stroke:#ffffff;stroke-linecap:round;stroke-linejoin:round"
         d="m 22.178318,13.159598 1.022287,-1.011997"
         id="path13699" /></g><g
       id="g13748"><path
         style="fill:none;stroke:#ffffff;stroke-linecap:round;stroke-linejoin:round"
         d="m 28.210398,10.656386 h 2.68066 c 0.742543,0 1.34033,0.597788 1.34033,1.34033 v 2.680661 c 0,0.742543 -0.597787,1.34033 -1.34033,1.34033 h -2.68066 c -0.742543,0 -1.34033,-0.597787 -1.34033,-1.34033 v -2.680661 c 0,-0.742542 0.597787,-1.34033 1.34033,-1.34033 z"
         id="path13697" /><path
         style="fill:none;stroke:#ffffff;stroke-linecap:round;stroke-linejoin:round"
         d="m 35.247129,17.693119 h 2.680661 c 0.742543,0 1.34033,0.597787 1.34033,1.34033 v 2.68066 c 0,0.742543 -0.597787,1.340331 -1.34033,1.340331 h -2.680661 c -0.742542,0 -1.34033,-0.597788 -1.34033,-1.340331 v -2.68066 c 0,-0.742543 0.597788,-1.34033 1.34033,-1.34033 z"
         id="path13695" /><path
         style="fill:none;stroke:#ffffff;stroke-linecap:round;stroke-linejoin:round"
         d="m 35.247129,10.656386 h 2.680661 c 0.742543,0 1.34033,0.597788 1.34033,1.34033 v 2.680661 c 0,0.742543 -0.597787,1.34033 -1.34033,1.34033 h -2.680661 c -0.742542,0 -1.34033,-0.597787 -1.34033,-1.34033 v -2.680661 c 0,-0.742542 0.597788,-1.34033 1.34033,-1.34033 z"
         id="path13693" /><path
         style="fill:none;stroke:#ffffff;stroke-linecap:round;stroke-linejoin:round"
         d="m 28.210398,17.693119 h 2.68066 c 0.742543,0 1.34033,0.597787 1.34033,1.34033 v 2.68066 c 0,0.742543 -0.597787,1.340331 -1.34033,1.340331 h -2.68066 c -0.742543,0 -1.34033,-0.597788 -1.34033,-1.340331 v -2.68066 c 0,-0.742543 0.597787,-1.34033 1.34033,-1.34033 z"
         id="path13691" /></g><g
       id="g13770"><path
         id="l"
         class="s"
         d="m 24.570379,36.007914 c 0,0.4142 -0.3358,0.75 -0.75,0.75 -0.4142,0 -0.75,-0.3358 -0.75,-0.75 0,-0.4142 0.3358,-0.75 0.75,-0.75 0.4142,0 0.75,0.3358 0.75,0.75 z"
         style="fill:#ffffff;stroke-width:0px" /><circle
         id="m"
         class="s"
         cx="23.820379"
         cy="30.607914"
         r="0.75"
         style="fill:#ffffff;stroke-width:0px" /><path
         style="fill:none;stroke:#ffffff;stroke-linecap:round;stroke-linejoin:round"
         d="m 8.7318792,31.915114 c 0,-1.6 1.4999998,-2.9 3.1999998,-2.6 1.1,0.2 2,1.2 2.1,2.3 0,0.8 -0.2,1.7 -0.8,2.2 -1.1,0.9 -4.4999998,3.5 -4.4999998,3.5 h 5.2999998"
         id="path13689" /><path
         style="fill:none;stroke:#ffffff;stroke-linecap:round;stroke-linejoin:round"
         d="m 31.398179,30.327514 -3.945,6.0162"
         id="path13687" /><path
         style="fill:none;stroke:#ffffff;stroke-linecap:round;stroke-linejoin:round"
         d="m 29.453079,37.243614 v 0 c -1.5,0 -2.7,-1.2 -2.7,-2.6 v -2.7 c 0,-1.5 1.2,-2.6 2.6,-2.6 v 0 c 1.5,0 2.6,1.2 2.6,2.6 v 2.7 c 0.2,1.5 -1,2.6 -2.5,2.6 z"
         id="path13685" /><path
         style="fill:none;stroke:#ffffff;stroke-linecap:round;stroke-linejoin:round"
         d="m 38.692079,30.327514 -3.945,6.0162"
         id="path13683" /><path
         style="fill:none;stroke:#ffffff;stroke-linecap:round;stroke-linejoin:round"
         d="m 36.747079,37.243614 v 0 c -1.5,0 -2.7,-1.2 -2.7,-2.6 v -2.7 c 0,-1.5 1.2,-2.6 2.6,-2.6 v 0 c 1.5,0 2.6,1.2 2.6,2.6 v 2.7 c 0.2,1.5 -1,2.6 -2.5,2.6 z"
         id="path13681" /><path
         style="fill:none;stroke:#ffffff;stroke-linecap:round;stroke-linejoin:round"
         d="m 16.104779,36.643614 c 0.6,0.5 1.1,0.7 2.5,0.7 h 0.3 c 1.1,0 2,-0.9 2,-2 v 0 c 0,-1.1 -0.9,-2 -2,-2"
         id="path13679" /><path
         style="fill:none;stroke:#ffffff;stroke-linecap:round;stroke-linejoin:round"
         d="m 16.104779,30.027814 c 0.6,-0.5 1.2,-0.7 2.5,-0.7 h 0.3 c 1.1,0 2,0.9 2,2 v 0 c 0,1.1 -0.9,2 -2,2"
         id="path13677" /><path
         style="fill:none;stroke:#ffffff;stroke-linecap:round;stroke-linejoin:round"
         d="m 17.404779,33.343614 h 1.5"
         id="q" /></g></g></svg>
