<svg xmlns="http://www.w3.org/2000/svg" xml:space="preserve" id="svg1" version="1.1" viewBox="0 0 48 48"><defs id="defs1"><style id="style1">.a{fill:none;stroke:#fff;stroke-linecap:round;stroke-linejoin:round}</style></defs><path id="path2" d="M18.235 27.409c1.839 2.321 4.205 4.34 6.326 2.42 1.81-1.636 4.459-4.264 4.767-6.919.147-1.267-.015-2.109-.844-2.125-1.404-.027-3.589 3.617-5.737 3.96-3.268.523-3.518-2.557-5.603-3.16-2.37-.687-3.714 2.022-5.984 2.069-1.628.033-3.12-1.727-4.461-3.436-.67-.854-1.134-1.093-1.705-.84-.463.205-.51.85-.494 1.456.046 1.185 1.317 3.545 2.691 5.592 1.121 1.67 2.31 3.132 2.956 3.574.751.515 2.365.465 4.034-1.29 1.955-2.057 2.724-2.982 4.054-1.301z" style="fill:none;fill-opacity:.261961;stroke:#fff;stroke-linecap:round;stroke-linejoin:round;stroke-opacity:.976471"/><path id="path1" d="M18.152 18.71c0 .977-.882 1.77-1.97 1.77-1.09 0-1.972-.793-1.972-1.77 0-.978.883-1.77 1.971-1.77 1.089 0 1.971.792 1.971 1.77z" style="fill:none;fill-opacity:.261961;stroke:#fff;stroke-linecap:round;stroke-linejoin:round;stroke-opacity:.976471"/><path id="path17" d="M35.124 24.192c-2-.175-2.844-1.399-.92-2.553.827-.497 2.765-1.46.608-1.494l-3.479-.057c-1.11-.018-3.124-.516-1.906-1.81 5.874-6.24 15.733-3.711 11.515 4.081 6.007 4.836.577 9.993-2.494 10.597-5.803 1.142-9.932-2.067-9.25-5.684.27-1.441 1.603-2.664 3.277-2.658 2.06.032 2.707 1.48 2.704 2.979 1.485.158 2.881-1.19 2.293-2.45-.306-.654-.768-.812-2.348-.95z" style="fill:none;fill-opacity:.261961;stroke:#fff;stroke-linecap:round;stroke-linejoin:round;stroke-opacity:.976471"/></svg>