<svg xmlns="http://www.w3.org/2000/svg" xml:space="preserve" width="48" height="48" viewBox="0 0 12.7 12.7"><path fill="none" stroke="#fff" stroke-linecap="round" stroke-linejoin="round" stroke-width=".265" d="M6.986 10.321h.57m2.237 0h.57m0 .586h-.57m-2.237 0h-.57m-.793-.954h.792v1.292h-.792zm4.17 0h.793v1.292h-.793zm-2.807-.07h2.237v1.362H7.556zm.258 0v-.865m1.72 0v.864m-.362-6.418v4.077m-.996 0V3.464m-.3 3.651 1.597-.368m-1.597-.64 1.597-.369m-1.597-.64 1.597-.368m-1.597-.64 1.597-.37M2.777 8.455v.45l.645.645H6.88l.531-.531h2.444V7.541H7.41l-.842.842M2.777 2.55V2.1l.645-.646H6.88l.531.532h2.444v1.477H7.41l-.842-.842M3.415 6.779h1.271M3.415 4.216h1.271m-2.5 1.587h3.73v1.951h-3.73zm0-2.563h3.73v1.95h-3.73zm-.642-.622h5.013v5.758H1.544z"/></svg>
