<?xml version="1.0" encoding="UTF-8" standalone="no"?>
<svg
   id="Layer_1"
   data-name="Layer 1"
   version="1.1"
   viewBox="0 0 48 48"
   xml:space="preserve"
   xmlns="http://www.w3.org/2000/svg"
   xmlns:svg="http://www.w3.org/2000/svg"><defs
     id="defs1"><style
       id="style1">
      .cls-1 {
        fill: none;
        stroke: #fff;
        stroke-linecap: round;
        stroke-linejoin: round;
      }
    </style></defs><ellipse
     style="fill:none;stroke:#ffffff;stroke-width:0.999999;stroke-linecap:round;stroke-linejoin:round;stroke-dashoffset:0.5"
     id="path1-8"
     cx="9.776865"
     cy="40.614712"
     rx="1.8858157"
     ry="1.8852903" /><ellipse
     style="fill:none;stroke:#ffffff;stroke-width:0.999999;stroke-linecap:round;stroke-linejoin:round;stroke-dashoffset:0.5"
     id="path1"
     cx="30.701223"
     cy="39.974346"
     rx="1.8858157"
     ry="1.8852903" /><path
     style="fill:none;stroke:#ffffff;stroke-width:0.999999;stroke-linecap:round;stroke-linejoin:round;stroke-dashoffset:0.5"
     d="m 33.870455,39.13437 c -0.35538,-1.463074 -1.760881,-2.606227 -3.424941,-2.490187 -1.593326,0.111102 -3.428558,1.364298 -3.060927,3.816468 H 13.115674 c -0.09991,-1.624402 -1.741392,-3.283409 -3.5699438,-3.111082 -1.595161,0.150333 -3.0147496,1.420957 -3.0043692,3.111082"
     id="path2" /><path
     style="fill:none;stroke:#ffffff;stroke-width:0.999999;stroke-linecap:round;stroke-linejoin:round;stroke-dashoffset:0.5"
     d="M 31.452995,23.454724 31.047139,36.656858"
     id="path3" /><path
     style="fill:none;stroke:#ffffff;stroke-width:0.999999;stroke-linecap:round;stroke-linejoin:round;stroke-dashoffset:0.5"
     d="m 14.737142,28.376717 c -0.195687,3.182231 3.010146,2.96389 5.30662,3.654653 -0.643925,1.810411 -1.380955,3.490374 -2.211092,5.039885 l 3.979965,-0.147366 c 0.459336,-1.268752 1.107924,-3.115727 1.945761,-5.540925 0.322202,-1.186349 -1.852382,-1.137032 -3.552516,-2.74099"
     id="path4" /><path
     style="fill:none;stroke:#ffffff;stroke-width:0.999999;stroke-linecap:round;stroke-linejoin:round;stroke-dashoffset:0.5"
     d="m 21.812635,36.923889 c 0.819899,0.277958 1.531824,0.84092 1.960502,2.151531 l -6.412167,0.147365 c -0.213819,-0.871501 0.168125,-1.948962 0.4717,-2.15153"
     id="path5" /><path
     style="fill:none;stroke:#ffffff;stroke-width:0.999999;stroke-linecap:round;stroke-linejoin:round;stroke-dashoffset:0.5"
     d="m 13.557893,27.551473 c 1.169941,1.028987 3.766882,1.150134 6.647987,1.090501"
     id="path6" /><path
     style="fill:none;stroke:#ffffff;stroke-width:0.999999;stroke-linecap:round;stroke-linejoin:round;stroke-dashoffset:0.5"
     d="m 15.700594,30.73214 -1.560932,1.829744 C 12.903702,31.551589 10.57761,30.064393 9.7768652,29.467219 l -2.9112108,3.83149 c -0.2823593,0.380842 -0.3342819,1.548287 1.0023608,1.002083 l 1.90885,-0.648407 3.5451768,1.621016 c 1.113622,0.480883 2.054903,0.413855 2.830198,-0.294729 l 3.102164,-3.094667"
     id="path7" /><path
     style="fill:none;stroke:#ffffff;stroke-width:0.999999;stroke-linecap:round;stroke-linejoin:round;stroke-dashoffset:0.5"
     d="m 10.934519,30.27325 c -0.661491,1.089447 -1.0797808,2.06742 -1.1576538,3.379135"
     id="path8" /><path
     style="fill:none;stroke:#ffffff;stroke-width:0.999999;stroke-linecap:round;stroke-linejoin:round;stroke-dashoffset:0.5"
     d="m 13.557893,27.551473 c 3.639619,-1.565588 1.896476,-9.183903 7.709339,-7.191415 1.203411,0.515157 1.802392,1.238808 2.878384,1.614021 0.95376,0.332587 2.648606,0.02406 4.031694,-0.759891 2.744116,-1.555408 3.964027,-0.479333 3.945066,0.578733 -0.11375,0.925648 -1.023485,1.719629 -2.585661,1.882851 l -4.879142,2.10732 C 23.205706,25.480139 21.770454,24.967446 20.534897,23.85261"
     id="path9" /><path
     style="fill:none;stroke:#ffffff;stroke-width:0.999999;stroke-linecap:round;stroke-linejoin:round;stroke-dashoffset:0.5"
     d="m 22.596672,25.157641 c -0.580586,1.582014 -0.547462,3.120202 -0.600648,4.664556"
     id="path10" /><path
     style="fill:none;stroke:#ffffff;stroke-width:0.999999;stroke-linecap:round;stroke-linejoin:round;stroke-dashoffset:0.5"
     d="m 30.705156,20.437698 c 0.818632,-1.060993 1.896174,-2.066521 3.10292,-3.044369 l -3.512613,-1.677666 c -1.053521,1.672448 -2.244485,2.598984 -3.491768,3.219867 -1.527842,0.667567 -2.509894,1.649291 -3.121269,2.844373"
     id="path11" /><path
     style="fill:none;stroke:#ffffff;stroke-width:0.999999;stroke-linecap:round;stroke-linejoin:round;stroke-dashoffset:0.5"
     d="m 26.063649,13.464882 15.395047,-0.03126"
     id="path12" /><path
     style="fill:none;stroke:#ffffff;stroke-width:0.999999;stroke-linecap:round;stroke-linejoin:round;stroke-dashoffset:0.5"
     d="m 38.811206,13.449252 c -0.05705,-2.958051 -1.62577,-4.7743502 -4.210967,-5.1424112 -0.537132,-0.07647 -1.83822,-0.157605 -2.835107,0.0521 -3.584836,0.754128 -4.47635,2.4964812 -4.565488,5.1036322"
     id="path13" /><path
     style="fill:none;stroke:#ffffff;stroke-width:0.999999;stroke-linecap:round;stroke-linejoin:round;stroke-dashoffset:0.5"
     d="M 33.630882,7.9733918 34.397343,6.7229587 C 33.6412,6.4274667 32.549979,6.4590005 31.963172,6.7437997 l 0.748707,1.2295921"
     id="path14" /><path
     style="fill:none;stroke:#ffffff;stroke-width:0.999999;stroke-linecap:round;stroke-linejoin:round;stroke-dashoffset:0.5"
     d="m 23.593353,11.349564 c -2.020555,0.248895 -3.632548,1.932345 -5.294979,3.438694 -0.445621,-1.228026 -0.67951,-2.279659 -0.792162,-3.230288 -1.414447,0.815398 -1.994333,0.211491 -2.459872,-0.458492 -0.635676,-0.914836 -0.32037,-2.3319282 1.521785,-2.0423762 -0.863738,-1.431511 1.098227,-3.2437662 2.686279,-1.823947 0.386175,-2.4716387 2.384072,-1.7377236 2.817164,-1.1835073 0.686746,0.8788103 0.64943,1.7292183 -0.208464,2.5128983 0.951846,0.816508 1.315559,1.8094072 1.730249,2.7870182 z"
     id="path15" /><path
     style="fill:none;stroke:#ffffff;stroke-width:0.999999;stroke-linecap:round;stroke-linejoin:round;stroke-dashoffset:0.5"
     d="m 23.593353,11.349564 c 0.981307,1.682155 2.349629,2.548698 3.147802,3.542897 0.401858,0.499472 -0.167374,1.099409 -0.667084,1.208752 0.342877,1.665539 -0.929649,2.649202 -2.13116,3.148623 -0.301006,0.125117 -1.774235,0.385773 -2.382079,0.09378 -0.657681,-0.315931 -1.716596,-0.864976 -2.1576,-2.2629 -0.916012,-0.840568 -1.578112,-1.451891 -1.104858,-2.292461"
     id="path16" /><path
     style="fill:none;stroke:#ffffff;stroke-width:0.999999;stroke-linecap:round;stroke-linejoin:round;stroke-dashoffset:0.5"
     d="m 23.134544,13.481472 0.684381,0.739881"
     id="path17" /><path
     style="fill:none;stroke:#ffffff;stroke-width:0.999999;stroke-linecap:round;stroke-linejoin:round;stroke-dashoffset:0.5"
     d="m 21.922413,14.424145 0.659759,0.745375"
     id="path18" /><path
     style="fill:none;stroke:#ffffff;stroke-width:0.999999;stroke-linecap:round;stroke-linejoin:round;stroke-dashoffset:0.5"
     d="m 21.10773,17.314268 c 0.988647,0.801464 2.725249,0.680266 3.443729,-0.260369"
     id="path19" /><path
     style="fill:none;stroke:#ffffff;stroke-width:0.999999;stroke-linecap:round;stroke-linejoin:round;stroke-dashoffset:0.5"
     d="m 40.075357,13.449252 c -0.331112,0.625852 -1.163513,1.631118 -1.823108,1.677274 l -11.383765,0.0342"
     id="path20" /><path
     style="fill:none;stroke:#ffffff;stroke-width:0.999999;stroke-linecap:round;stroke-linejoin:round;stroke-dashoffset:0.5"
     d="m 32.962109,16.989285 c 0.89115,-0.385318 1.772643,-0.828497 2.555479,-1.862759"
     id="path21" /></svg>
