<svg xmlns="http://www.w3.org/2000/svg" xml:space="preserve" width="48" height="48"><path fill="none" stroke="#fff" stroke-linecap="round" stroke-linejoin="round" d="M36.008 41.624c.49.639 1.106.877 1.962.877h1.184a1.996 1.996 0 0 0 1.996-1.996v-.009a1.996 1.996 0 0 0-1.996-1.996h-1.307a2 2 0 0 1-1.997-1.997v0c0-1.106.896-2.002 2.002-2.002h1.178c.856 0 1.47.237 1.961.876m4.509 3.124a7 7 0 0 1-7 7 7 7 0 0 1-7-7 7 7 0 0 1 7-7 7 7 0 0 1 7 7m-8.932-21.327L30.291 34.52 24 17.173 17.708 34.52l-6.277-17.347m31.894 16.26A21.4 21.4 0 0 0 45.5 24c0-11.874-9.626-21.5-21.5-21.5v0C12.125 2.5 2.5 12.126 2.5 24c0 4.118.9 7.865 3.125 11.33l-.348 2.633c-.27 2.05-.717 4.146.243 4.919s3.138.46 5.086.198l2.689-.362C16.614 44.71 20.127 45.487 24 45.5c3.388 0 6.593-.784 9.444-2.18" class="t"/></svg>
