<svg xmlns="http://www.w3.org/2000/svg" xml:space="preserve" id="svg1" version="1.1" viewBox="0 0 48 48"><defs id="defs1"><style id="style1">.a{fill:none;stroke:#fff;stroke-linecap:round;stroke-linejoin:round}</style></defs><path id="path33190" d="M7.327 6.447h6.99c1.013 0 1.828.814 1.828 1.827v31.555a1.823 1.823 0 0 1-1.827 1.827h-6.99A1.823 1.823 0 0 1 5.5 39.83V8.274c0-1.013.815-1.827 1.827-1.827z" style="fill:none;stroke:#fff;stroke-width:1;stroke-linecap:round;stroke-linejoin:round;stroke-opacity:1"/><path id="path33188" d="M15.549 12.254a4.726 4.726 0 1 1-9.452 0 4.726 4.726 0 0 1 9.452 0z" style="fill:none;stroke:#fff;stroke-width:1;stroke-linecap:round;stroke-linejoin:round;stroke-opacity:1"/><path id="path33186" d="M15.549 35.85a4.726 4.726 0 1 1-9.452-.001 4.726 4.726 0 0 1 9.452 0z" style="fill:none;stroke:#fff;stroke-width:1;stroke-linecap:round;stroke-linejoin:round;stroke-opacity:1"/><path id="path33184" d="m9.335 10.767 2.974 2.973" style="fill:none;stroke:#fff;stroke-width:1;stroke-linecap:round;stroke-linejoin:round;stroke-opacity:1"/><path id="path33182" d="M12.31 10.767 9.334 13.74" style="fill:none;stroke:#fff;stroke-width:1;stroke-linecap:round;stroke-linejoin:round;stroke-opacity:1"/><path id="path33180" d="m9.335 34.362 2.974 2.974" style="fill:none;stroke:#fff;stroke-width:1;stroke-linecap:round;stroke-linejoin:round;stroke-opacity:1"/><path id="path33178" d="m12.31 34.362-2.975 2.974" style="fill:none;stroke:#fff;stroke-width:1;stroke-linecap:round;stroke-linejoin:round;stroke-opacity:1"/><path id="path33176" d="M33.286 41.04H15.678" style="fill:none;stroke:#fff;stroke-width:1;stroke-linecap:round;stroke-linejoin:round;stroke-opacity:1"/><path id="path33174" d="M41.483 38.06v1.154a1.823 1.823 0 0 1-1.827 1.827h-3.881" style="fill:none;stroke:#fff;stroke-width:1;stroke-linecap:round;stroke-linejoin:round;stroke-opacity:1"/><path id="path33172" d="M39.59 30.397h.066c1.012 0 1.827.815 1.827 1.827v1.797" style="fill:none;stroke:#fff;stroke-width:1;stroke-linecap:round;stroke-linejoin:round;stroke-opacity:1"/><path id="path33170" d="M16.144 30.397H27.58" style="fill:none;stroke:#fff;stroke-width:1;stroke-linecap:round;stroke-linejoin:round;stroke-opacity:1"/><path id="path33168" d="m34.966 34.362 2.974 2.974" style="fill:none;stroke:#fff;stroke-width:1;stroke-linecap:round;stroke-linejoin:round;stroke-opacity:1"/><path id="path33166" d="m37.94 34.362-2.974 2.974" style="fill:none;stroke:#fff;stroke-width:1;stroke-linecap:round;stroke-linejoin:round;stroke-opacity:1"/><path id="path33164" d="M41.179 35.85a4.726 4.726 0 1 1-9.452-.001 4.726 4.726 0 0 1 9.452 0z" style="fill:none;stroke:#fff;stroke-width:1;stroke-linecap:round;stroke-linejoin:round;stroke-opacity:1"/><path id="path33162" d="m31.022 13.987 11.272 21.588a1.823 1.823 0 0 1-.774 2.465l-1.335.697" style="fill:none;stroke:#fff;stroke-width:1;stroke-linecap:round;stroke-linejoin:round;stroke-opacity:1"/><path id="path33160" d="m36.724 40.544-1.401.73a1.823 1.823 0 0 1-2.465-.773L18.252 12.528a1.823 1.823 0 0 1 .774-2.465v0l6.197-3.235a1.823 1.823 0 0 1 2.465.774l.576 1.103" style="fill:none;stroke:#fff;stroke-width:1;stroke-linecap:round;stroke-linejoin:round;stroke-opacity:1"/><path id="path33158" d="M33.835 14.409c-1.342.774-3.44-.349-4.688-2.508-1.247-2.16-1.17-4.539.172-5.313 1.342-.775 3.44.348 4.688 2.507 1.247 2.16 1.17 4.539-.172 5.314z" style="fill:none;stroke:#fff;stroke-width:1;stroke-linecap:round;stroke-linejoin:round;stroke-opacity:1"/><path id="path33156" d="m30.47 13.552-3.118 1.8c-.738.426-1.804-.04-2.381-1.04-.578-1-.448-2.157.289-2.582l3.118-1.8" style="fill:none;stroke:#fff;stroke-width:1;stroke-linecap:round;stroke-linejoin:round;stroke-opacity:1"/><path id="path33154" d="m31.568 8.86.018 3.277" style="fill:none;stroke:#fff;stroke-width:1;stroke-linecap:round;stroke-linejoin:round;stroke-opacity:1"/><path id="path33152" d="m32.992 11.325-2.83-1.654" style="fill:none;stroke:#fff;stroke-width:1;stroke-linecap:round;stroke-linejoin:round;stroke-opacity:1"/><path id="path33112" d="m36.685 40.564-1.362.71a1.823 1.823 0 0 1-2.465-.773L18.252 12.528a1.823 1.823 0 0 1 .774-2.465v0l6.197-3.235a1.823 1.823 0 0 1 2.465.774l.576 1.103" style="fill:none;stroke:#fff;stroke-width:1;stroke-linecap:round;stroke-linejoin:round;stroke-opacity:1"/></svg>