<?xml version="1.0" encoding="UTF-8"?><svg id="a" xmlns="http://www.w3.org/2000/svg" viewBox="0 0 48 48"><defs><style>.b{fill:none;stroke:#fff;stroke-linecap:round;stroke-linejoin:round;}</style></defs><path class="b" d="M31.2172,19.1322c0-3.9752-3.2226-7.1977-7.1978-7.1977-2.6171,0-4.9011,1.4014-6.1609,3.4901-1.2599-2.0887-3.5438-3.4901-6.1609-3.4901-3.9752,0-7.1977,3.2225-7.1977,7.1977,0,.9087.1755,1.7746.4827,2.5752,2.38,6.8458,12.8759,14.3581,12.8759,14.3581,0,0,10.4958-7.5123,12.8759-14.3581.3072-.8005.4828-1.6665.4828-2.5752h-.0001Z"/><path class="b" d="M23.9999,30.8876c3.1506,3.0372,6.1414,5.1778,6.1414,5.1778,0,0,10.4958-7.5123,12.8759-14.3581.3072-.8005.4828-1.6665.4828-2.5752h-.0001c0-3.9752-3.2226-7.1977-7.1978-7.1977-2.6003,0-4.8717,1.3834-6.1364,3.4499"/></svg>