<?xml version="1.0" encoding="UTF-8"?><svg id="a" xmlns="http://www.w3.org/2000/svg" viewBox="0 0 48 48"><defs><style>.d{fill:none;stroke:#fff;stroke-linecap:round;stroke-linejoin:round;}</style></defs><path class="d" d="m24.605 32.457a8.5 8.5 0 0 1 0.25334 2.0597v0a8.5 8.5 0 0 1-8.5 8.5 8.5 8.5 0 0 1-8.5-8.5 8.5 8.5 0 0 1 2.613-6.1314"/><circle class="d" cx="24" cy="24" r="8.5"/><path class="d" d="m8.8862 16.31 1.9466 7.3451 3.5534-0.96265"/><path class="d" d="m28.074 36.606 3.7988-6.627 2.1072 1.2253c1.1913 0.69277 1.5859 2.2508 0.88129 3.4799s-2.2415 1.664-3.4328 0.97126l-2.1072-1.2253"/><line class="d" x1="31.429" x2="32.291" y1="35.655" y2="39.056"/><line class="d" x1="22.681" x2="24.402" y1="12.319" y2="10.598"/><path class="d" d="m28.015 12.377-2.6374 2.6374-5.3921-5.3921 2.6374-2.6374"/><path class="d" d="m16.73 38.45-3.7933-6.6003 1.4462-0.83876c1.553-0.90073 3.555-0.33808 4.4715 1.2567l0.47416 0.82504c0.91656 1.5948 0.40062 3.6178-1.1524 4.5185z"/><path class="d" d="m37.337 16.307c1.3058 0.34988 2.0662 1.7168 1.705 3.0648l-0.66428 2.4791c-0.36119 1.348-1.7032 2.1515-3.009 1.8016s-2.0662-1.7168-1.705-3.0648l0.66428-2.4791c0.36119-1.348 1.7032-2.1515 3.009-1.8016z"/><path class="d" d="m32.338 12.497a8.5 8.5 0 0 1 4.026-1.0139 8.5 8.5 0 0 1 8.5 8.5v0a8.5 8.5 0 0 1-7.3117 8.4165"/><path class="d" d="m32.232 26.038a8.5 8.5 0 0 1 7.9088 8.4794v0a8.5 8.5 0 0 1-8.5 8.5 8.5 8.5 0 0 1-7.6522-4.7995"/><path class="d" d="m16.142 27.191a8.5 8.5 0 0 1-4.5053 1.2922 8.5 8.5 0 0 1-8.5-8.5 8.5 8.5 0 0 1 8.5-8.5 8.5 8.5 0 0 1 4.0107 1.0057"/><path class="d" d="m18.53 17.506a8.5 8.5 0 0 1-3.0304-6.5064 8.5 8.5 0 0 1 8.5-8.5 8.5 8.5 0 0 1 8.5 8.5v0a8.5 8.5 0 0 1-3.025 6.5018"/><path class="d" d="m27.721 20.194-1.8605 7.613-1.8605-7.613-1.8605 7.613-1.8605-7.613"/></svg>
