<svg viewBox="0 0 48 48" xml:space="preserve" xmlns="http://www.w3.org/2000/svg"><path style="display:inline;fill:none;stroke:#fff;stroke-width:1;stroke-linecap:round;stroke-linejoin:round;stroke-dasharray:none" d="M17.485 11.778c1.592 3.428 2.562 9.54 5.106 12.05 1.659 1.636 7.783 1.23 8.422-1.957"/><path style="fill:none;stroke:#fff;stroke-width:1;stroke-linecap:round;stroke-linejoin:round;stroke-dasharray:none" d="M30.997 11.837C26.545 11.059 13.156 23.19 5.192 29.1"/><g style="stroke-width:1.31596263;stroke-dasharray:none"><path class="cls-2" d="M16.693 33.397c0-1.6 1.5-2.9 3.2-2.6 1.1.2 2 1.2 2.1 2.3 0 .8-.2 1.7-.8 2.2-1.1.9-4.5 3.5-4.5 3.5h5.3" style="fill:none;stroke:#fff;stroke-linecap:round;stroke-linejoin:round;stroke-width:1.31596263;stroke-dasharray:none" transform="translate(24.28 -9.592) scale(.7599)"/><g style="stroke-width:1.31596263;stroke-dasharray:none"><path class="cls-2" d="M83.6 32c.6.5 1.1.7 2.5.7h.3c1.1 0 2-.9 2-2v0c0-1.1-.9-2-2-2M83.6 25.3c.6-.5 1.2-.7 2.5-.7h.3c1.1 0 2 .9 2 2v0c0 1.1-.9 2-2 2M84.9 28.7h1.5" style="fill:none;stroke:#fff;stroke-linecap:round;stroke-linejoin:round;stroke-width:1.31596263;stroke-dasharray:none" transform="translate(-32.414 -4.959) scale(.7599)"/></g></g><g style="stroke-width:.79514643;stroke-dasharray:none"><path class="cls-2" style="fill:none;stroke:#fff;stroke-linecap:round;stroke-linejoin:round;stroke-width:.79514643;stroke-dasharray:none" d="M218.6 48.7 216 46M216 48.7v0c-1.5 0-2.6-1.2-2.6-2.6v-2.7c0-1.5 1.2-2.7 2.6-2.7v0c1.5 0 2.6 1.2 2.6 2.7V46c0 1.5-1.1 2.7-2.6 2.7z" transform="translate(-247.579 -21.517) scale(1.25763)"/></g></svg>