<svg viewBox="0 0 48 48" version="1.1" id="svg1" xml:space="preserve" xmlns="http://www.w3.org/2000/svg"><defs id="defs1"><style id="style1"></style></defs><path style="display:inline;fill:none;stroke:#fff;stroke-width:1.07126;stroke-linecap:round;stroke-linejoin:round" d="M17.485 11.778c1.592 3.428 2.562 9.54 5.106 12.05 1.659 1.636 7.783 1.23 8.422-1.957" id="path1"/><path style="fill:none;stroke:#fff;stroke-width:1.07126;stroke-linecap:round;stroke-linejoin:round" d="M30.997 11.837C26.545 11.059 13.156 23.19 5.192 29.1" id="path2"/><g id="g2" transform="matrix(.7599 0 0 .7599 24.28 -9.592)"><path class="cls-2" d="M16.693 33.397c0-1.6 1.5-2.9 3.2-2.6 1.1.2 2 1.2 2.1 2.3 0 .8-.2 1.7-.8 2.2-1.1.9-4.5 3.5-4.5 3.5h5.3" id="path2238" style="fill:none;stroke:#fff;stroke-linecap:round;stroke-linejoin:round"/><g id="g2281" transform="translate(-74.607 6.097)"><path class="cls-2" d="M83.6 32c.6.5 1.1.7 2.5.7h.3c1.1 0 2-.9 2-2v0c0-1.1-.9-2-2-2" id="path2280" style="fill:none;stroke:#fff;stroke-linecap:round;stroke-linejoin:round"/><path class="cls-2" d="M83.6 25.3c.6-.5 1.2-.7 2.5-.7h.3c1.1 0 2 .9 2 2v0c0 1.1-.9 2-2 2" id="path2281" style="fill:none;stroke:#fff;stroke-linecap:round;stroke-linejoin:round"/><path class="cls-2" id="line2281" style="fill:none;stroke:#fff;stroke-linecap:round;stroke-linejoin:round" d="M84.9 28.7h1.5"/></g></g><g id="g2294" transform="matrix(1.25763 0 0 1.25763 -247.579 -21.517)"><path class="cls-2" id="line2293" style="fill:none;stroke:#fff;stroke-linecap:round;stroke-linejoin:round" d="M218.6 48.7 216 46"/><path class="cls-2" d="M216 48.7v0c-1.5 0-2.6-1.2-2.6-2.6v-2.7c0-1.5 1.2-2.7 2.6-2.7v0c1.5 0 2.6 1.2 2.6 2.7V46c0 1.5-1.1 2.7-2.6 2.7z" id="path2294" style="fill:none;stroke:#fff;stroke-linecap:round;stroke-linejoin:round"/></g></svg>