<?xml version="1.0" encoding="UTF-8"?><svg id="a" xmlns="http://www.w3.org/2000/svg" viewBox="0 0 48 48"><defs><style>.d{fill:none;stroke:#fff;stroke-linecap:round;stroke-linejoin:round;}</style></defs><path class="d" d="m31.779 17.953c-0.30707-2.698-0.15092-5.4594 0.49412-8.1634-2.7694-2.1009-5.9678-3.5657-9.3675-4.2902-2.4432 5.8507-1.5788 12.56 2.2675 17.601 3.8721 5.0187 10.128 7.5904 16.41 6.7465 0.18254-3.5009-0.41528-6.9987-1.7502-10.24-7.1152-0.19663-13.764-3.5865-18.102-9.2297"/><path class="d" d="m16.221 30.047c0.30707 2.698 0.15092 5.4594-0.49412 8.1634 2.7694 2.1009 5.9678 3.5657 9.3675 4.2902 2.4432-5.8507 1.5788-12.56-2.2675-17.601-3.8721-5.0187-10.128-7.5904-16.41-6.7465-0.18254 3.5009 0.41528 6.9987 1.7502 10.24 7.1152 0.19663 13.764 3.5865 18.102 9.2297"/></svg>
