<svg xmlns="http://www.w3.org/2000/svg" xml:space="preserve" width="48" height="48"><path fill="none" stroke="#fff" stroke-linecap="round" stroke-linejoin="round" d="m34.152 25.222 2.607 2.612m-5.214.002v-7.963h2.607c1.474 0 2.669 1.198 2.669 2.675s-1.195 2.674-2.669 2.674h-2.607M12.471 22.56v7.963m0-4.678c0 1.1.891 1.99 1.99 1.99v0c1.1 0 1.992-.89 1.992-1.99v-1.294c0-1.1-.892-1.991-1.991-1.991v0c-1.1 0-1.99.891-1.99 1.99m29.767 2.28a1.99 1.99 0 0 1-1.73 1.005v0a1.99 1.99 0 0 1-1.99-1.99V24.55c0-1.099.89-1.99 1.99-1.99v0c1.1 0 1.991.891 1.991 1.99v.647h-3.98m-19.064-5.325v6.968c0 .55.445.995.995.995h.299m8.04-3.374a3.16 3.16 0 0 1-3.158 3.159 3.16 3.16 0 0 1-3.16-3.159 3.16 3.16 0 0 1 3.16-3.158 3.16 3.16 0 0 1 3.158 3.158M9.481 27.836 5.5 22.561m3.981 0L5.5 27.836m24.092 1.605a6.46 6.46 0 0 1-3.961 1.358 6.46 6.46 0 0 1-3.962-1.358m.047-10.229a6.455 6.455 0 0 1 8.374.466M16.767 29.44c2.594 2.903 6.218 4.286 9.743 4.855 3.785.61 4.922.091 6.673-1.671.976-.876 1.59-1.99 2.087-3.186m-.627-11.38a28 28 0 0 0-.478-1.307c-.728-1.85-2.555-3.972-6.043-3.531-5.518.698-11.624 3.751-13.382 7.444m24.054 8.775c-.644 3.903-1.877 6.976-3.54 8.628-1.661 1.653-2.485 1.766-4.097 2.074-4.187.801-11.975-3.352-17.519-8.032M7.785 20.665q.115-.213.27-.43v0c3.806-6.812 27.77-18.557 29.972-8.693a53 53 0 0 1 1.223 9.129" class="t"/></svg>
