<?xml version="1.0" encoding="UTF-8" standalone="no"?>
<svg
   viewBox="0 0 48 48"
   version="1.1"
   id="svg1"
   sodipodi:docname="xunlei_welfare.svg"
   inkscape:version="1.2.2 (b0a8486541, 2022-12-01)"
   xml:space="preserve"
   xmlns:inkscape="http://www.inkscape.org/namespaces/inkscape"
   xmlns:sodipodi="http://sodipodi.sourceforge.net/DTD/sodipodi-0.dtd"
   xmlns="http://www.w3.org/2000/svg"
   xmlns:svg="http://www.w3.org/2000/svg"><sodipodi:namedview
     id="namedview1"
     pagecolor="#505050"
     bordercolor="#eeeeee"
     borderopacity="1"
     inkscape:showpageshadow="0"
     inkscape:pageopacity="0"
     inkscape:pagecheckerboard="0"
     inkscape:deskcolor="#505050"
     inkscape:zoom="12.59534"
     inkscape:cx="29.137762"
     inkscape:cy="28.105634"
     inkscape:window-width="1918"
     inkscape:window-height="1053"
     inkscape:window-x="0"
     inkscape:window-y="0"
     inkscape:window-maximized="1"
     inkscape:current-layer="svg1"
     showgrid="false" /><defs
     id="defs1"><style
       id="style1">.a { fill:none;stroke:#fff;stroke-linecap:round;stroke-linejoin:round; }
</style></defs><path
     style="fill:none;stroke:#ffffff;stroke-linecap:round;stroke-linejoin:round;stroke-dashoffset:3.6;stroke-opacity:1"
     d="M 31.687604,40.094028 C 28.4568,36.666556 24.646937,33.664922 21.193005,32.02417 14.274802,28.737754 12.159596,25.068772 13.21998,19.618384 14.094093,15.125425 9.2062724,12.485514 5.4992397,10.83631 l 6.9803413,2.19631 c 3.186708,-1.651395 6.249694,0.741848 7.988207,3.717041 6.247544,-5.128113 12.674783,-8.5198854 19.858897,-10.3641274 -1.869331,2.705858 -3.133275,4.6459194 -4.788901,7.8369454 l 1.274938,-0.282821 c -1.681963,2.452866 -3.592045,4.582813 -5.044006,7.602681 3.744347,0.677643 8.069033,2.086439 10.731366,3.938909 -5.338501,0.805163 -10.627709,1.673994 -15.269799,3.378347 v 0 c 1.500879,3.558159 2.781638,6.031007 4.302414,9.327883"
     id="path3275" /><path
     style="fill:none;stroke:#ffffff;stroke-linecap:round;stroke-linejoin:round;stroke-dashoffset:3.6;stroke-opacity:1"
     d="m 36.163734,36.163734 h 4.672529 v 4.672529 h -4.672529 z"
     id="path3273" /><path
     style="fill:none;stroke:#ffffff;stroke-linecap:round;stroke-linejoin:round;stroke-dashoffset:3.6;stroke-opacity:1"
     d="m 45.5,38.499996 a 7,7 0 0 1 -7,7 7,7 0 0 1 -7,-7 7,7 0 0 1 7,-7 7,7 0 0 1 7,7 z"
     id="path3223" /></svg>
