<svg xmlns="http://www.w3.org/2000/svg" xml:space="preserve" id="svg1" version="1.1" viewBox="0 0 48 48"><defs id="defs1"><style id="style1">.a{fill:none;stroke:#fff;stroke-linecap:round;stroke-linejoin:round}</style></defs><path id="path13919" d="M17.631094 35.359279a6.3155476 6.31592 0 0 1-6.315546 6.315921 6.3155476 6.31592 0 0 1-6.3155488-6.315921 6.3155476 6.31592 0 0 1 6.3155488-6.315919 6.3155476 6.31592 0 0 1 6.315546 6.315919z" style="fill:none;stroke:#fff;stroke-width:1;stroke-linecap:round;stroke-linejoin:round;stroke-opacity:1;stop-color:#000"/><path id="path13917" d="M43.000001 35.600618a6.3155476 6.31592 0 0 1-6.315548 6.315919 6.3155476 6.31592 0 0 1-6.315547-6.315919 6.3155476 6.31592 0 0 1 6.315547-6.315922 6.3155476 6.31592 0 0 1 6.315548 6.315922z" style="fill:none;stroke:#fff;stroke-width:1;stroke-linecap:round;stroke-linejoin:round;stroke-opacity:1;stop-color:#000"/><path id="path13915" d="m17.502957 20.657975.665455-1.412669c.321402-.682294.909476-1.424416 1.663643-1.424416h3.677116" style="fill:none;stroke:#fff;stroke-width:1;stroke-linecap:round;stroke-linejoin:round;stroke-opacity:1;stop-color:#000"/><path id="path13913" d="m13.490224 29.176449 1.492574-3.168529" style="fill:none;stroke:#fff;stroke-width:1;stroke-linecap:round;stroke-linejoin:round;stroke-opacity:1;stop-color:#000"/><path id="path13911" d="M19.813539 35.005678c.09117.742204.286727 1.183807 1.183738 1.183807h5.242659c.862484 0 1.323968-.429889 1.323968-1.254326 0-3.766311 4.05784-8.159193 9.492443-8.159193h2.800276c.597402 0 1.327666-.38644 1.327666-1.267355 0-.880914-.701921-1.327481-1.327666-1.327481h-11.01088c0-2.254104-2.709683-3.459833-5.173312-3.459833H11.847189c-1.202119 0-2.0593556.871563-2.0593556 1.851499 0 .490513-.0067.981074 0 1.471542.01088.788026.6206946 1.420158 1.7358226 1.423589 7.552252.02322 7.594767 3.878368 8.289883 9.537751z" style="fill:none;stroke:#fff;stroke-width:1;stroke-linecap:round;stroke-linejoin:round;stroke-opacity:1;stop-color:#000"/><path id="path13909" d="M17.707644 8.6362235a10.210703 7.9524537 0 0 1 7.496096-2.5527604 10.210703 7.9524537 0 0 1 7.491104 2.5485616" style="fill:none;stroke:#fff;stroke-width:1;stroke-linecap:round;stroke-linejoin:round;stroke-opacity:1;stop-color:#000"/><path id="path13907" d="M19.524967 11.528054a6.7935279 4.7890094 0 0 1 5.678773-2.1604772 6.7935279 4.7890094 0 0 1 5.678488 2.1601712" style="fill:none;stroke:#fff;stroke-width:1;stroke-linecap:round;stroke-linejoin:round;stroke-opacity:1;stop-color:#000"/><path id="path13105" d="M21.246893 14.253157a5.2390604 4.7890094 0 0 1 3.956847-1.650164 5.2390604 4.7890094 0 0 1 3.955051 1.648277" style="fill:none;stroke:#fff;stroke-width:1;stroke-linecap:round;stroke-linejoin:round;stroke-opacity:1;stop-color:#000"/></svg>