<?xml version="1.0" encoding="UTF-8"?><svg id="a" xmlns="http://www.w3.org/2000/svg" viewBox="0 0 48 48"><defs><style>.c{fill:none;stroke:#fff;stroke-linecap:round;stroke-linejoin:round;}</style></defs><path id="b" class="c" d="M33.868,23.799l-4.353,12.76-4.353-12.76M18.485,36.559v-12.76M14.132,23.799h8.706M15.469,4.5l9.702,10.44M19.148,14.94l10.057.001,5.274-5.537M8.66,16.857h30.68c1.19,0,2.147.958,2.147,2.147v22.35c.0028,1.1824-.9535,2.1432-2.136,2.146-.0037,0-.0073,0-.011,0H8.66c-1.183.0028-2.1442-.954-2.147-2.137,0-.0033,0-.0067,0-.01v-22.35c0-1.188.957-2.146,2.147-2.146Z"/></svg>