<?xml version="1.0" encoding="UTF-8"?><svg id="a" xmlns="http://www.w3.org/2000/svg" viewBox="0 0 48 48"><defs><style>.d{fill:none;stroke:#fff;stroke-linecap:round;stroke-linejoin:round;}</style></defs><path class="d" d="m32.485 37.113a16.679 16.679 0 0 1-10.307 3.5658 16.679 16.679 0 0 1-16.679-16.679 16.679 16.679 0 0 1 16.679-16.679 16.679 16.679 0 0 1 16.679 16.679 16.679 16.679 0 0 1-0.48028 3.9737"/><path class="d" d="m26.495 7.8898-8.6335 32.22"/><path class="d" d="m6.0683 19.683 22.36 5.9914"/><path class="d" d="m10.385 12.206 27.904 7.4768"/><path class="d" d="m6.0684 28.318 20.851 5.5871"/><path class="d" d="m26.659 33.363c-2.2732 2.9716-5.323 5.3534-8.7968 6.7477-3.9789-5.069-5.4063-12.044-3.7384-18.269 1.6679-6.2245 6.3915-11.552 12.372-13.952 3.631 4.6258 5.1372 10.839 4.1052 16.621"/><circle class="d" cx="32.493" cy="30.651" r="6.4562"/><circle class="d" cx="32.493" cy="30.651" r="4.3041"/><path class="d" d="m37.569 36.773-0.171 0.171 3.7349 3.7349 1.368-1.368-3.7349-3.7349-0.171 0.171"/><path class="d" d="m36.505 35.709 1.0634 1.0633 1.026-1.026-1.0611-1.0611"/></svg>
