<?xml version="1.0" encoding="UTF-8"?><svg id="a" xmlns="http://www.w3.org/2000/svg" viewBox="0 0 48 48"><defs><style>.d{fill:none;stroke:#fff;stroke-linecap:round;stroke-linejoin:round;}</style></defs><rect class="d" x="7.5" y="13.5" width="22" height="13"/><rect class="d" x="31.5" y="13.5" width="4" height="21"/><path class="d" d="m9.5 28.5v6m3.5999-6v6m3.5999-6v6m3.5999-6v6m3.5999-6v6m3.5999-6v6"/><path class="d" d="m38.5 13.5h5v21.5c0 1.385-1.115 2.5-2.5 2.5h-34c-1.385 0-2.5-1.115-2.5-2.5v-24.5h34v24.5c0 1.385 1.115 2.5 2.5 2.5v-24"/><path class="d" d="m20.833 22.167-4.5-4.5-8.8333 8.8333m22 0-6.5-6.5-6.5 6.5"/></svg>
