<?xml version="1.0" encoding="UTF-8"?><svg id="b" xmlns="http://www.w3.org/2000/svg" viewBox="0 0 48 48"><defs><style>.h{fill:none;stroke:#fff;stroke-linecap:round;stroke-linejoin:round;}</style></defs><path id="c" class="h" d="M34.3388,23.1129c0,8.0714-6.5431,14.6145-14.6145,14.6145s-14.6145-6.5431-14.6145-14.6145h0c0-8.0714,6.5431-14.6145,14.6145-14.6145s14.6145,6.5431,14.6145,14.6145h0Z"/><path id="d" class="h" d="M33.6763,33.6197l.5362-.9288c.571-.9889,1.8267-1.3254,2.8157-.7545l4.8295,2.7883c.9889.571,1.3254,1.8267.7545,2.8157l-.5362.9288c-.571.9889-1.8267,1.3254-2.8157.7545l-4.8295-2.7883c-.9889-.571-1.3254-1.8267-.7545-2.8157Z"/><path id="e" class="h" d="M31.7716,31.5733l2.2708,1.311"/><path id="f" class="h" d="M19.6794,19.8609c1.8185,0,3.2926,1.4748,3.2926,3.294s-1.4742,3.294-3.2926,3.294h0c-1.8184.0001-3.2926-1.4745-3.2928-3.2936v-.0007c.0001-1.8192,1.4743-3.2938,3.2927-3.2937h0Z"/><path id="g" class="h" d="M17.2535,12.5214l-.5189,2.6724c-.8634.3184-1.6666.7807-2.3756,1.3675l-2.5662-.8851-2.4733,4.2818,2.0554,1.7876c-.1626.9051-.1626,1.8319,0,2.737l-2.0554,1.787,2.4733,4.28,2.5638-.8835c.7091.5875,1.5133,1.0494,2.378,1.3657l.5189,2.6725h4.942l.5089-2.6457c.8603-.3432,1.6645-.8131,2.386-1.3942l2.5661.8851,2.4707-4.28-2.0533-1.7891c.1646-.9034.1646-1.8292,0-2.7327l2.0554-1.7914-2.4731-4.28-2.564.8835c-.7094-.5869-1.5135-1.0486-2.378-1.3652l-.5189-2.6726-4.9417-.0008Z"/></svg>