<?xml version="1.0" encoding="UTF-8" standalone="no"?>
<svg
   viewBox="0 0 48 48"
   version="1.1"
   id="svg1"
   sodipodi:docname="yamato_transport.svg"
   inkscape:version="1.2.2 (b0a8486541, 2022-12-01)"
   xml:space="preserve"
   xmlns:inkscape="http://www.inkscape.org/namespaces/inkscape"
   xmlns:sodipodi="http://sodipodi.sourceforge.net/DTD/sodipodi-0.dtd"
   xmlns="http://www.w3.org/2000/svg"
   xmlns:svg="http://www.w3.org/2000/svg"><path
     style="fill:none;stroke:#ffffff;stroke-width:1;stroke-linecap:round;stroke-linejoin:round;stroke-dashoffset:3.6;stroke-opacity:1"
     d="m 34.153257,20.791863 8.522065,-3.385696 0.824672,2.191447 -8.588175,5.590265 2.775147,11.462837 h -3.518922 l -4.984413,-6.101501 h -8.12217 l -4.984413,6.101501 h -3.518923 l 1.858247,-7.675547 -1.65184,-1.956711 v 1.93539 c 0,2.984724 -2.026364,5.010235 -5.0122016,5.010235 H 5.7560002 V 32.936044 L 7.779574,31.543739 V 29.817721 L 5.2765037,28.405552 v -1.615183 l 2.3142224,0.09004 C 6.1457706,26.554686 4.5000159,24.699989 4.5000159,23.581157 v -4.252488 l 2.369232,2.4804 0.9399167,-0.06389 C 6.7514578,21.048109 5.8732178,18.321845 5.8732178,16.421427 v -4.475223 c 0,-0.501757 0.6398738,-0.848025 1.0292582,-0.397623 l 3.15678,3.651469 h 5.932242 l 3.15678,-3.651469 c 0.389384,-0.450402 1.029258,-0.10414 1.029258,0.397623 v 4.475223 c 0,1.338049 -0.435371,3.085497 -1.045857,4.308134 l 15.021578,0.0623 z"
     id="path14631" /><path
     style="fill:none;stroke:#ffffff;stroke-width:1;stroke-linecap:round;stroke-linejoin:round;stroke-dashoffset:3.6;stroke-opacity:1"
     d="m 14.579905,18.456647 c 0.861582,-0.490809 1.527893,-0.768725 2.569362,-0.903518"
     id="path14629" /><path
     style="fill:none;stroke:#ffffff;stroke-width:1;stroke-linecap:round;stroke-linejoin:round;stroke-dashoffset:3.6;stroke-opacity:1"
     d="M 11.380823,18.456647 C 10.519242,17.965838 9.8529303,17.687922 8.811461,17.553129"
     id="path14627" /><path
     style="fill:none;stroke:#ffffff;stroke-width:1;stroke-linecap:round;stroke-linejoin:round;stroke-dashoffset:3.6;stroke-opacity:1"
     d="m 10.373818,24.022238 c 0.626597,-0.190922 1.111179,-0.299029 1.868601,-0.351462"
     id="path14625" /><path
     style="fill:none;stroke:#ffffff;stroke-width:1;stroke-linecap:round;stroke-linejoin:round;stroke-dashoffset:3.6;stroke-opacity:1"
     d="M 8.562281,24.022238 C 7.9356856,23.831316 7.4511015,23.723209 6.6936798,23.670776"
     id="path14603" /><sodipodi:namedview
     id="namedview1"
     pagecolor="#505050"
     bordercolor="#eeeeee"
     borderopacity="1"
     inkscape:showpageshadow="0"
     inkscape:pageopacity="0"
     inkscape:pagecheckerboard="0"
     inkscape:deskcolor="#505050"
     inkscape:zoom="12.59534"
     inkscape:cx="9.2891501"
     inkscape:cy="23.024389"
     inkscape:window-width="1918"
     inkscape:window-height="1053"
     inkscape:window-x="0"
     inkscape:window-y="0"
     inkscape:window-maximized="1"
     inkscape:current-layer="svg1"
     showgrid="false" /><defs
     id="defs1"><style
       id="style1">.a { fill:none;stroke:#fff;stroke-linecap:round;stroke-linejoin:round; }
</style></defs></svg>
