<svg xmlns="http://www.w3.org/2000/svg" xml:space="preserve" id="svg1" version="1.1" viewBox="0 0 48 48"><defs id="defs1"><style id="style1">.a{fill:none;stroke:#fff;stroke-linecap:round;stroke-linejoin:round}</style></defs><path id="path12331" d="M34.340441 23.114483a14.614483 14.614483 0 0 1-14.614483 14.614483A14.614483 14.614483 0 0 1 5.1114752 23.114483 14.614483 14.614483 0 0 1 19.725958 8.5000001 14.614483 14.614483 0 0 1 34.340441 23.114483Z" style="fill:none;stroke:#fff;stroke-width:1;stroke-linecap:round;stroke-linejoin:round;stroke-opacity:1"/><path id="path12329" d="m33.67793 33.621271.536216-.928754c.570957-.988926 1.826748-1.325414 2.815675-.754457l4.829513 2.78832c.988926.570957 1.325415 1.826748.754458 2.815675l-.536216.928754c-.570957.988926-1.826749 1.325415-2.815675.754458l-4.829513-2.788321c-.988927-.570957-1.325415-1.826749-.754458-2.815675Z" style="fill:none;stroke:#fff;stroke-width:1;stroke-linecap:round;stroke-linejoin:round;stroke-opacity:1"/><path id="path12327" d="m31.77321 31.574861 2.270802 1.311049" style="fill:none;stroke:#fff;stroke-width:1;stroke-linecap:round;stroke-linejoin:round;stroke-opacity:1"/><path id="path12325" d="M19.681028 19.862482a3.2926392 3.2940055 0 0 1 0 6.58801v0a3.2925876 3.2939539 0 0 1-3.292795-3.293644v-.000672a3.292536 3.2939023 0 0 1 3.292743-3.293694z" style="fill:none;stroke:#fff;stroke-width:1;stroke-linecap:round;stroke-linejoin:round;stroke-opacity:1"/><path id="path12128" d="m17.255136 12.522992-.518922 2.672414a8.1485023 8.1518835 0 0 0-2.375642 1.36749l-2.56621-.885087-2.4733009 4.281803 2.0554459 1.787638a7.7341595 7.7373687 0 0 0 0 2.737049l-2.0554459 1.786965 2.4733009 4.280048 2.563834-.883486a8.0779044 8.0812564 0 0 0 2.378018 1.365683l.518922 2.672466h4.942007l.508851-2.645652a9.2929418 9.296798 0 0 0 2.385971-1.394151l2.566105.88514 2.470668-4.280048-2.053329-1.789083a7.6156356 7.6187957 0 0 0 0-2.732657l2.055446-1.791409-2.473093-4.280048-2.563989.883486a8.1024871 8.1058493 0 0 0-2.377966-1.365166l-.518923-2.672569z" style="fill:none;stroke:#fff;stroke-width:1;stroke-linecap:round;stroke-linejoin:round;stroke-opacity:1"/></svg>