<?xml version="1.0" encoding="UTF-8"?><svg id="a" xmlns="http://www.w3.org/2000/svg" viewBox="0 0 48 48"><defs><style>.d{fill:none;stroke:#fff;stroke-linecap:round;stroke-linejoin:round;}</style></defs><path class="d" d="m21 28v11.5c0 1.6569 1.3431 3 3 3s3-1.3431 3-3v-14.258l14.621-14.621c1.1713-1.1715 1.1713-3.0707 0-4.2422-0.56252-0.56264-1.3255-0.87879-2.1211-0.87891-0.7956 1.201e-4 -1.5586 0.31627-2.1211 0.87891l-17.621 17.621-13.379-13.379c-1.1713-1.1715-1.1713-3.0707 0-4.2422 0.56252-0.56264 1.3255-0.87879 2.1211-0.87891 0.7956 1.201e-4 1.5586 0.31627 2.1211 0.87891l11.379 11.379"/></svg>
