<svg xmlns="http://www.w3.org/2000/svg" xml:space="preserve" width="48" height="48" viewBox="0 0 12.7 12.7"><path fill="none" stroke="#fff" stroke-linecap="round" stroke-linejoin="round" stroke-width=".265" d="M3.346 11.048H9.31m-.453-.618.79 1.08m-5.849-1.08-.79 1.08m2.42-9.31c-.6.012-1.768.032-2.499.526v2.425h3.502M7.272 2.2c.6.012 1.769.032 2.5.52L9.77 5.15H6.43M5.7 1.775H7c.175 0 .316.142.302.36l-.953.983-.952-.983c-.014-.218.127-.36.302-.36zm.65 3.376V3.063M4.604 7.71a.614.614 0 0 1-.614.613.614.614 0 0 1-.614-.613.614.614 0 0 1 .614-.614.614.614 0 0 1 .614.614zm4.721 0a.614.614 0 0 1-.614.613.614.614 0 0 1-.614-.613.614.614 0 0 1 .614-.614.614.614 0 0 1 .614.614zM2.45 9.05h7.8m-7.8.002c.192.554.477.993.953 1.377h5.895c.476-.384.76-.824.953-1.377V2.035c-.94-.599-2.378-.845-3.9-.845-1.524 0-2.963.247-3.902.845z"/></svg>
