<?xml version="1.0" encoding="UTF-8" standalone="no"?>
<svg
   viewBox="0 0 48 48"
   version="1.1"
   id="svg1"
   sodipodi:docname="yango.svg"
   inkscape:version="1.3.2 (091e20ef0f, 2023-11-25)"
   xml:space="preserve"
   xmlns:inkscape="http://www.inkscape.org/namespaces/inkscape"
   xmlns:sodipodi="http://sodipodi.sourceforge.net/DTD/sodipodi-0.dtd"
   xmlns="http://www.w3.org/2000/svg"
   xmlns:svg="http://www.w3.org/2000/svg"><sodipodi:namedview
     id="namedview1"
     pagecolor="#505050"
     bordercolor="#eeeeee"
     borderopacity="1"
     inkscape:showpageshadow="0"
     inkscape:pageopacity="0"
     inkscape:pagecheckerboard="0"
     inkscape:deskcolor="#505050"
     inkscape:zoom="12.59534"
     inkscape:cx="14.01312"
     inkscape:cy="17.903447"
     inkscape:window-width="1918"
     inkscape:window-height="1053"
     inkscape:window-x="0"
     inkscape:window-y="0"
     inkscape:window-maximized="1"
     inkscape:current-layer="svg1" /><defs
     id="defs1"><style
       id="style1">.a { fill:none;stroke:#fff;stroke-linecap:round;stroke-linejoin:round; }
</style></defs><path
     style="fill:none;stroke:#ffffff;stroke-width:1;stroke-linecap:round;stroke-linejoin:round"
     d="M 9.5000003,5.4999999 H 38.5 c 2.216,0 4,1.7839997 4,4.0000004 V 38.5 c 0,2.216 -1.784,4 -4,4 H 9.5000003 c -2.2160001,0 -4.0000005,-1.784 -4.0000005,-4 V 9.5000003 c 0,-2.2160007 1.7840004,-4.0000004 4.0000005,-4.0000004 z"
     id="path7" /><g
     id="g9"><path
       style="fill:none;stroke:#ffffff;stroke-width:1;stroke-linecap:round;stroke-linejoin:round"
       d="m 20.553224,27.710543 v -7.421087 l 4.948622,7.421087 v -7.421087"
       id="path6" /><g
       id="g7"><path
         style="fill:none;stroke:#ffffff;stroke-width:1;stroke-linecap:round;stroke-linejoin:round"
         d="M 13.643992,20.289456 11.216366,24 8.7887406,20.289456"
         id="path5" /><path
         style="fill:none;stroke:#ffffff;stroke-width:1;stroke-linecap:round;stroke-linejoin:round"
         d="M 11.216366,27.710544 V 24.000001"
         id="path4" /></g><path
       style="fill:none;stroke:#ffffff;stroke-width:1;stroke-linecap:round;stroke-linejoin:round"
       d="m 36.691891,27.710544 v 0 c -1.400553,0 -2.427626,-1.113163 -2.427626,-2.411854 v -2.504617 c 0,-1.391454 1.120443,-2.504617 2.427626,-2.504617 v 0 c 1.400553,0 2.520996,1.113163 2.520996,2.504617 v 2.411854 c 0,1.391454 -1.120443,2.504617 -2.520996,2.504617 z"
       id="path3" /><path
       style="fill:none;stroke:#ffffff;stroke-width:1;stroke-linecap:round;stroke-linejoin:round"
       d="m 32.441075,22.794073 c 0,-1.391454 -1.120442,-2.504617 -2.520995,-2.504617 v 0 c -1.400554,0 -2.520996,1.113163 -2.520996,2.504617 v 2.504617 c 0,1.391454 1.120442,2.411854 2.520996,2.411854 v 0 c 1.400553,0 2.520995,-1.113163 2.520995,-2.411854 H 29.92008"
       id="path2" /><g
       id="g8"><path
         style="fill:none;stroke:#ffffff;stroke-width:1;stroke-linecap:round;stroke-linejoin:round"
         d="M 17.889621,25.205877 H 14.528295"
         id="path1" /><path
         style="fill:none;stroke:#ffffff;stroke-width:1;stroke-linecap:round;stroke-linejoin:round"
         d="m 13.687963,27.710494 2.520995,-7.421087 2.520996,7.421087"
         id="polyline2397" /></g></g></svg>
