<svg xmlns="http://www.w3.org/2000/svg" width="48" height="48"><circle cx="24" cy="24" r="21.5" class="a" style="fill:none;stroke:#fff;stroke-width:1.00157;stroke-linecap:round;stroke-linejoin:round;stroke-miterlimit:4;stroke-dasharray:none;stroke-opacity:1"/><g style="fill:none;fill-opacity:1;fill-rule:nonzero;stroke:#fff;stroke-linecap:round;stroke-linejoin:round;stroke-opacity:1"><path d="m298.6 40.7-2.6 4-2.6-4M296 48.7v-4" class="cls-2" style="fill:none;fill-opacity:1;fill-rule:nonzero;stroke:#fff;stroke-linecap:round;stroke-linejoin:round;stroke-opacity:1" transform="translate(-284.55 -20.7)"/></g><g style="fill:none;fill-opacity:1;fill-rule:nonzero;stroke:#fff;stroke-linecap:round;stroke-linejoin:round;stroke-opacity:1"><path d="M93.5 44.7h2.7M97.5 48.7h-4v-8h4" class="cls-2" style="fill:none;fill-opacity:1;fill-rule:nonzero;stroke:#fff;stroke-linecap:round;stroke-linejoin:round;stroke-opacity:1" transform="translate(-75.983 -20.7)"/></g><path d="M36.45 28v0c-1.5 0-2.6-1.2-2.6-2.6v-2.7c0-1.5 1.2-2.7 2.6-2.7v0c1.5 0 2.7 1.2 2.7 2.7v2.6c0 1.5-1.2 2.7-2.7 2.7zM30.383 22.7c0-1.5-1.2-2.7-2.7-2.7v0c-1.5 0-2.7 1.2-2.7 2.7v2.7c0 1.5 1.2 2.6 2.7 2.6v0c1.5 0 2.7-1.2 2.7-2.6h-2.7" class="cls-2" style="fill:none;fill-opacity:1;fill-rule:nonzero;stroke:#fff;stroke-linecap:round;stroke-linejoin:round;stroke-opacity:1"/></svg>