<?xml version="1.0" encoding="UTF-8" standalone="no"?>
<svg
   viewBox="0 0 48 48"
   version="1.1"
   id="svg1"
   sodipodi:docname="yoomoney.svg"
   inkscape:version="1.2.2 (b0a8486541, 2022-12-01)"
   xml:space="preserve"
   xmlns:inkscape="http://www.inkscape.org/namespaces/inkscape"
   xmlns:sodipodi="http://sodipodi.sourceforge.net/DTD/sodipodi-0.dtd"
   xmlns="http://www.w3.org/2000/svg"
   xmlns:svg="http://www.w3.org/2000/svg"><sodipodi:namedview
     id="namedview1"
     pagecolor="#505050"
     bordercolor="#eeeeee"
     borderopacity="1"
     inkscape:showpageshadow="0"
     inkscape:pageopacity="0"
     inkscape:pagecheckerboard="0"
     inkscape:deskcolor="#505050"
     inkscape:zoom="12.59534"
     inkscape:cx="20.166189"
     inkscape:cy="29.931706"
     inkscape:window-width="1918"
     inkscape:window-height="1053"
     inkscape:window-x="0"
     inkscape:window-y="0"
     inkscape:window-maximized="1"
     inkscape:current-layer="svg1"
     showgrid="false" /><defs
     id="defs1"><style
       id="style1">.a { fill:none;stroke:#fff;stroke-linecap:round;stroke-linejoin:round; }
</style></defs><path
     style="fill:none;stroke:#ffffff;stroke-width:1;stroke-linecap:round;stroke-linejoin:round;stroke-dashoffset:3.6;stroke-opacity:1"
     d="m 29.638789,10.299493 a 13.859738,13.700326 0 0 0 -13.033451,9.14038 V 13.887211 H 4.4999804 l 6.8628806,20.927522 h 5.242477 V 28.55761 A 13.859738,13.700326 0 0 0 29.638789,37.700507 13.859738,13.700326 0 0 0 43.500001,23.998742 13.859738,13.700326 0 0 0 29.638789,10.299493 Z"
     id="path10253" /><path
     style="fill:none;stroke:#ffffff;stroke-width:1;stroke-linecap:round;stroke-linejoin:round;stroke-dashoffset:3.6;stroke-opacity:1"
     d="m 35.228467,23.999584 a 5.5887141,5.5191158 0 0 1 -5.588714,5.519114 5.5887141,5.5191158 0 0 1 -5.588712,-5.519114 5.5887141,5.5191158 0 0 1 5.588712,-5.519117 5.5887141,5.5191158 0 0 1 5.588714,5.519117 z"
     id="path10164" /></svg>
