<?xml version="1.0" encoding="UTF-8"?><svg id="b" xmlns="http://www.w3.org/2000/svg" viewBox="0 0 48 48"><defs><style>.o{fill:none;stroke:#fff;stroke-linecap:round;stroke-linejoin:round;}</style></defs><path id="c" class="o" d="m18.1251,5.3213l5.6362,3.2541,5.3782-3.1051,11.7343,6.7748v13.2808l-5.5257,3.1903v7.5228l-11.154,6.4398-11.4561-6.6142v-7.2703l-5.5384-3.1976v-13.8964l10.9255-6.3788Z"/><path id="d" class="o" d="m16.2646,13.2424l7.4442,4.2979,7.5954-4.3852,3.9743,2.2946v4.931l-7.5816,4.3772v8.8934l-3.9075,2.256-3.8123-2.201v-9.1128l-7.6746-4.431v-4.739l2.364-1.2963,1.5982-.8848Z"/><path id="e" class="o" d="m12.2733,19.1101v9.6191"/><path id="f" class="o" d="m12.4538,28.5938l7.4736,5.0816"/><path id="g" class="o" d="m27.4064,33.8735l7.9993-5.1947-.1119-8.1031"/><path id="h" class="o" d="m31.4865,13.2523l-7.8388-4.5257-7.3533,4.528"/><path id="i" class="o" d="m23.7976,35.8181l.1235,6.5839"/><path id="j" class="o" d="m35.2721,15.5726l5.457-3.338"/><path id="k" class="o" d="m12.3706,15.6194l-5.2444-3.6114"/><path id="l" class="o" d="m23.802,17.3514v-8.391"/><path id="m" class="o" d="m27.8421,24.8711l6.9466,4.0106"/><path id="n" class="o" d="m19.8225,24.5394l-6.9512,4.3554"/></svg>