<?xml version="1.0" encoding="UTF-8"?><svg id="a" xmlns="http://www.w3.org/2000/svg" viewBox="0 0 48 48"><defs><style>.d{fill:none;stroke:#fff;stroke-linecap:round;stroke-linejoin:round;}</style></defs><rect class="d" x="5.5" y="5.5" width="37" height="37" rx="4" ry="4"/><path class="d" d="m22.5 12.082c1.7251 0 3.114 1.3889 3.114 3.1142v2.0242c0 1.7253-1.3888 3.1142-3.114 3.1142s-3.114-1.3889-3.114-3.1142v-2.0242c0-1.7253 1.3888-3.1142 3.114-3.1142z"/><path class="d" d="m28.728 12.082v5.1384c0 1.72 1.3941 3.1142 3.114 3.1142s3.114-1.3942 3.114-3.1142v-5.1384"/><line class="d" x1="34.956" x2="34.956" y1="17.221" y2="20.335"/><path class="d" d="m16.111 30.779c0-1.72 1.3941-3.1142 3.114-3.1142s3.114 1.3942 3.114 3.1142v5.1384"/><line class="d" x1="16.111" x2="16.111" y1="27.665" y2="35.917"/><path class="d" d="m22.339 30.779c0-1.72 1.3941-3.1142 3.114-3.1142s3.114 1.3942 3.114 3.1142v5.1384"/><path class="d" d="m37.548 34.346c-0.53638 0.93877-1.5472 1.5716-2.7057 1.5716-1.7198 0-3.114-1.3942-3.114-3.1142v-2.0242c0-1.72 1.3941-3.1142 3.114-3.1142s3.114 1.3942 3.114 3.1142v1.0121h-6.2279"/><path class="d" d="m16.272 17.221v4.2041c0 1.72-1.3941 3.1142-3.114 3.1142-0.85992 0-1.6384-0.34848-2.2019-0.91214"/><path class="d" d="m16.272 12.082v5.1384c0 1.72-1.3941 3.1142-3.114 3.1142s-3.114-1.3942-3.114-3.1142v-5.1384"/></svg>
