<?xml version="1.0" encoding="utf-8"?>
<svg
	version="1.1"
	xmlns="http://www.w3.org/2000/svg"
	xmlns:xlink="http://www.w3.org/1999/xlink"
	x="0%" y="0%"
	width="100%" height="100%"
	viewBox="0 0 48.0 48.0"
	enable-background="new 0 0 48.0 48.0"
	xml:space="preserve">
	<path
		fill="#FFFFFF"
		stroke="#FFFFFF"
		fill-opacity="0.000"
		stroke-opacity="1.000"
		fill-rule="nonzero"
		stroke-width="1.000"
		stroke-linejoin="round"
		stroke-linecap="square"
		d="M21.23,13.54C20.49,14.51,19.52,13.80,20.00,12.79L23.12,6.05Q23.81,4.16,24.90,6.18L25.52,7.53Q25.81,8.60,26.72,7.15L29.92,2.99C30.72,2.07,31.48,1.80,30.78,3.82L27.00,11.90C26.57,12.96,26.08,12.96,25.40,12.02L24.63,10.81C24.18,10.09,24.40,9.60,23.66,10.67L21.23,13.54z"/>
	<path
		fill="#FFFFFF"
		stroke="#FFFFFF"
		fill-opacity="0.000"
		stroke-opacity="1.000"
		fill-rule="nonzero"
		stroke-width="1.000"
		stroke-linejoin="round"
		stroke-linecap="square"
		d="M29.73,17.14C28.63,17.69,28.08,16.62,28.96,15.93L34.74,11.27Q36.20,9.88,36.28,12.17L36.24,13.66Q36.02,14.75,37.48,13.85L42.19,11.54C43.32,11.06,44.12,11.16,42.60,12.66L35.63,18.24C34.77,19.00,34.33,18.78,34.14,17.63L33.98,16.21C33.90,15.36,34.31,15.02,33.17,15.65L29.73,17.14z"/>
	<path
		fill="#FFFFFF"
		stroke="#FFFFFF"
		fill-opacity="0.000"
		stroke-opacity="1.000"
		fill-rule="nonzero"
		stroke-width="1.000"
		stroke-linejoin="round"
		stroke-linecap="square"
		d="M32.98,34.67C31.75,37.59,25.76,39.77,21.99,39.63"/>
	<path
		fill="#FFFFFF"
		stroke="#FFFFFF"
		fill-opacity="0.000"
		stroke-opacity="1.000"
		fill-rule="nonzero"
		stroke-width="1.000"
		stroke-linejoin="round"
		stroke-linecap="square"
		d="M18.74,32.10C20.12,32.10,21.24,33.21,21.24,34.59C21.24,35.97,20.12,37.09,18.74,37.09C17.35,37.09,16.23,35.97,16.23,34.59C16.23,33.21,17.35,32.10,18.74,32.10z"/>
	<path
		fill="#FFFFFF"
		stroke="#FFFFFF"
		fill-opacity="0.000"
		stroke-opacity="1.000"
		fill-rule="nonzero"
		stroke-width="1.000"
		stroke-linejoin="round"
		stroke-linecap="square"
		d="M20.93,34.02C17.99,37.01,15.86,33.50,18.64,32.26"/>
	<path
		fill="#FFFFFF"
		stroke="#FFFFFF"
		fill-opacity="0.000"
		stroke-opacity="1.000"
		fill-rule="nonzero"
		stroke-width="1.000"
		stroke-linejoin="round"
		stroke-linecap="square"
		d="M30.11,28.07C31.50,28.07,32.62,29.19,32.62,30.58C32.62,31.96,31.50,33.08,30.11,33.08C28.73,33.08,27.61,31.96,27.61,30.58C27.61,29.19,28.73,28.07,30.11,28.07z"/>
	<path
		fill="#FFFFFF"
		stroke="#FFFFFF"
		fill-opacity="0.000"
		stroke-opacity="1.000"
		fill-rule="nonzero"
		stroke-width="1.000"
		stroke-linejoin="round"
		stroke-linecap="square"
		d="M32.34,30.02C29.37,33.01,27.23,29.48,29.84,28.24"/>
	<path
		fill="#FFFFFF"
		stroke="#FFFFFF"
		fill-opacity="0.000"
		stroke-opacity="1.000"
		fill-rule="nonzero"
		stroke-width="1.000"
		stroke-linejoin="round"
		stroke-linecap="square"
		d="M17.78,42.18C14.73,45.06,9.61,43.95,9.02,40.34"/>
	<path
		fill="#FFFFFF"
		stroke="#FFFFFF"
		fill-opacity="0.000"
		stroke-opacity="1.000"
		fill-rule="nonzero"
		stroke-width="1.000"
		stroke-linejoin="round"
		stroke-linecap="square"
		d="M41.09,25.53C43.32,31.13,39.09,34.81,36.04,33.91"/>
	<path
		fill="#FFFFFF"
		stroke="#FFFFFF"
		fill-opacity="0.000"
		stroke-opacity="1.000"
		fill-rule="nonzero"
		stroke-width="1.000"
		stroke-linejoin="round"
		stroke-linecap="square"
		d="M10.58,5.10Q13.03,2.64,17.11,6.70C18.26,7.84,17.42,8.91,13.82,8.97C12.54,9.08,11.98,10.56,11.79,11.74C11.68,14.12,13.79,15.06,16.13,15.92C21.96,17.73,26.69,19.88,28.83,21.22Q30.67,22.46,31.29,23.06C32.49,24.40,33.05,23.18,34.03,22.28C35.20,20.61,37.03,22.71,36.64,23.86C36.45,24.79,35.44,25.98,35.10,26.25C34.31,26.89,34.28,27.34,34.82,28.26C35.07,29.79,36.06,31.24,35.91,33.81C36.03,36.19,35.05,37.97,34.30,38.36C35.35,39.32,34.79,40.17,33.29,39.06C32.09,39.93,29.17,41.12,27.75,41.57C27.51,43.16,26.11,44.00,26.37,42.04C25.14,42.71,22.38,42.90,19.69,42.30C19.25,42.22,18.39,42.21,16.66,41.54C14.24,40.28,11.72,35.93,11.74,34.75C10.03,35.17,8.09,34.24,7.10,32.97C6.53,31.98,6.95,30.51,7.51,30.12C8.80,29.77,10.26,30.12,10.80,30.32L10.26,22.67C10.02,21.29,9.06,19.42,6.90,15.17C6.84,13.55,7.71,9.37,9.91,7.99C9.40,6.75,9.85,5.77,10.58,5.10z"/>
</svg>