<?xml version="1.0" encoding="UTF-8" standalone="no"?>
<svg
   viewBox="0 0 48 48"
   version="1.1"
   id="svg1"
   sodipodi:docname="zebullo.svg"
   inkscape:version="1.3 (0e150ed, 2023-07-21)"
   xmlns:inkscape="http://www.inkscape.org/namespaces/inkscape"
   xmlns:sodipodi="http://sodipodi.sourceforge.net/DTD/sodipodi-0.dtd"
   xmlns="http://www.w3.org/2000/svg"
   xmlns:svg="http://www.w3.org/2000/svg">
  <sodipodi:namedview
     id="namedview1"
     pagecolor="#ffffff"
     bordercolor="#000000"
     borderopacity="0.25"
     inkscape:showpageshadow="2"
     inkscape:pageopacity="0.0"
     inkscape:pagecheckerboard="0"
     inkscape:deskcolor="#d1d1d1"
     showguides="true"
     inkscape:zoom="9.8333333"
     inkscape:cx="29.847458"
     inkscape:cy="23.79661"
     inkscape:window-width="1280"
     inkscape:window-height="625"
     inkscape:window-x="0"
     inkscape:window-y="25"
     inkscape:window-maximized="0"
     inkscape:current-layer="svg1">
    <sodipodi:guide
       position="9.7796463,15.784694"
       orientation="0,-1"
       id="guide1"
       inkscape:locked="false" />
  </sodipodi:namedview>
  <defs
     id="defs1">
    <style
       id="style1">.a{fill:none;stroke:#fff;stroke-linecap:round;stroke-linejoin:round;}</style>
  </defs>
  <path
     class="a"
     d="M40.5,5.5H7.5a2,2,0,0,0-2,2v33a2,2,0,0,0,2,2h33a2,2,0,0,0,2-2V7.5A2,2,0,0,0,40.5,5.5Z"
     id="path1"
     style="fill:none" />
  <circle
     class="t"
     cx="32.803379"
     cy="23.048784"
     r="0.66861975"
     id="circle414"
     style="fill:none;stroke:#ffffff;stroke-width:1;stroke-linecap:round;stroke-linejoin:round;stroke-dasharray:none" />
  <path
     class="t"
     d="m 26.913346,23.524556 v 5.200376 c 0,0.41031 0.332601,0.742911 0.742911,0.742911 h 0.222873"
     id="path394-4"
     style="fill:none;stroke:#ffffff;stroke-width:1;stroke-linecap:round;stroke-linejoin:round;stroke-dasharray:none" />
  <path
     class="t"
     d="m 24.884227,23.537147 v 5.200376 c 0,0.410309 0.332601,0.742911 0.742911,0.742911 h 0.222873"
     id="path394"
     style="fill:none;stroke:#ffffff;stroke-width:1;stroke-linecap:round;stroke-linejoin:round;stroke-dasharray:none" />
  <path
     class="t"
     d="m 20.473624,25.507204 v 2.451606 c 0,0.82062 0.665202,1.485822 1.485822,1.485822 v 0 c 0.820619,0 1.485821,-0.665202 1.485821,-1.485822 v -2.451606"
     id="path373"
     style="fill:none;stroke:#ffffff;stroke-width:1;stroke-linecap:round;stroke-linejoin:round;stroke-dasharray:none" />
  <line
     class="t"
     x1="23.445269"
     y1="27.958813"
     x2="23.445269"
     y2="29.444633"
     id="line374"
     style="fill:none;stroke:#ffffff;stroke-width:1;stroke-linecap:round;stroke-linejoin:round;stroke-dasharray:none" />
  <path
     class="t"
     d="m 15.175304,28.476125 c -0.255933,0.447901 -0.738231,0.74982 -1.291031,0.74982 v 0 c -0.820619,0 -1.485822,-0.665202 -1.485822,-1.485822 v -0.965784 c 0,-0.820619 0.665203,-1.485822 1.485822,-1.485822 v 0 c 0.82062,0 1.485822,0.665203 1.485822,1.485822 v 0.482892 c 0,0 -2.971644,0 -2.971644,0"
     id="path414"
     style="fill:none;stroke:#ffffff;stroke-width:1;stroke-linecap:round;stroke-linejoin:round;stroke-dasharray:none" />
  <path
     class="t"
     d="m 16.438537,26.857001 c 0,-0.820619 0.665202,-1.485821 1.485821,-1.485821 v 0 c 0.82062,0 1.485822,0.665202 1.485822,1.485821 v 0.965785 c 0,0.820619 -0.665202,1.485821 -1.485822,1.485821 v 0 c -0.820619,0 -1.485821,-0.665202 -1.485821,-1.485821"
     id="path426"
     style="fill:none;stroke:#ffffff;stroke-width:1;stroke-linecap:round;stroke-linejoin:round;stroke-dasharray:none" />
  <line
     class="t"
     x1="16.438538"
     y1="29.308609"
     x2="16.438538"
     y2="23.365322"
     id="line426"
     style="fill:none;stroke:#ffffff;stroke-width:1;stroke-linecap:round;stroke-linejoin:round;stroke-dasharray:none" />
  <polyline
     class="t"
     points="337.1838 40.65 342.4838 40.65 337.1838 48.65 342.4838 48.65"
     id="polyline381"
     style="fill:none;stroke:#ffffff;stroke-linecap:round;stroke-linejoin:round;stroke-width:1.34605646;stroke-dasharray:none"
     transform="matrix(0.74291089,0,0,0.74291089,-242.87206,-6.9258542)" />
  <circle
     style="fill:none;stroke:#ffffff;stroke-width:1;stroke-linecap:round;stroke-linejoin:round;stroke-miterlimit:4.1;stroke-dasharray:none"
     id="path2"
     cx="37.905163"
     cy="26.682665"
     r="3.2053261" />
  <circle
     style="fill:none;stroke:#ffffff;stroke-width:1;stroke-linecap:round;stroke-linejoin:round;stroke-miterlimit:4.1;stroke-dasharray:none"
     id="path2-5"
     cx="30.542885"
     cy="27.458138"
     r="2.1117215" />
  <path
     style="fill:none;stroke:#ffffff;stroke-width:1;stroke-linecap:round;stroke-linejoin:round;stroke-miterlimit:4.1;stroke-dasharray:none"
     d="m 36.152511,27.216887 c -0.02605,-1.740378 1.037152,-2.502647 2.393716,-2.268542"
     id="path3"
     sodipodi:nodetypes="cc" />
  <path
     style="fill:none;stroke:#ffffff;stroke-width:1;stroke-linecap:round;stroke-linejoin:round;stroke-miterlimit:4.1;stroke-dasharray:none"
     d="m 33.134623,21.383817 c 0.610326,0.01386 0.840185,0.293963 1.020834,0.629763"
     id="path3-2"
     sodipodi:nodetypes="cc" />
</svg>
