<svg xmlns="http://www.w3.org/2000/svg" xml:space="preserve" width="48" height="48"><path fill="none" stroke="#fff" stroke-linecap="round" stroke-linejoin="round" d="M13.249 24.92v-8.416c0-.5 1.21-.793 1.647-.54M16.776 4.5a.906.906 0 0 0-.914.901v18.395c-.393 1.48-2.302 2.773-2.613 1.123.101.713-.242 2.204 1.492 2.204h3.425c.483 1.043 1.036 1.477 2.776 1.528.067 1.116.54 2.038 1.623 2.38v2.543c-3.76.282-9.966 1.172-9.966 3.643v1.76l.076.313c0 .66.542 1.194 1.21 1.194s1.212-.534 1.212-1.194c0-.579-.418-1.061-.974-1.17.2-2.72 5.38-2.47 8.723-2.46.018 1.687.015 3.382.561 4.874-1.352.612-1.218 2.781.204 2.965m11.14-18.58v-8.415c0-.5-1.21-.794-1.647-.541m-7.669 15.069c1.082-.342 1.556-1.265 1.623-2.381 1.74-.051 2.293-.485 2.776-1.528h3.425c1.734 0 1.391-1.49 1.492-2.203-.311 1.65-2.22.357-2.613-1.124M24.39 43.501c1.423-.184 1.557-2.353.204-2.965.546-1.492.543-3.187.56-4.875 3.344-.01 8.524-.26 8.724 2.46a1.2 1.2 0 0 0-.974 1.171c0 .66.542 1.194 1.211 1.194s1.211-.534 1.211-1.194l.077-.314V37.22c0-2.471-6.206-3.36-9.967-3.643v-2.542m6.704-7.236V5.403c0-.5-.408-.902-.915-.902H16.776"/></svg>
