<?xml version="1.0" encoding="UTF-8"?>
<svg width="48" height="48" version="1.1" viewBox="0 0 12.7 12.7" xmlns="http://www.w3.org/2000/svg"><defs><style>.a{fill:none;stroke:#fff;stroke-linecap:round;stroke-linejoin:round;}</style></defs><g fill="none" stroke="#fff" stroke-linecap="round" stroke-linejoin="round"><g transform="matrix(1.1826 0 0 1.2155 -.49574 -1.9985)" stroke-width=".22068"><path d="m4.0113 9.9034a0.52917 0.11811 0 0 1-0.26458 0.10228 0.52917 0.11811 0 0 1-0.52917 0 0.52917 0.11811 0 0 1-0.26458-0.10228"/><path d="m2.949 9.8918v-0.89962"/><path d="m4.0123 9.9061v-0.89962"/></g><g transform="matrix(-1.1826 0 0 1.2155 9.5056 -1.9985)" stroke-width=".22068"><path d="m4.0113 9.9034a0.52917 0.11811 0 0 1-0.26458 0.10228 0.52917 0.11811 0 0 1-0.52917 0 0.52917 0.11811 0 0 1-0.26458-0.10228"/><path d="m2.949 9.8918v-0.89962"/><path d="m4.0123 9.9061v-0.89962"/></g><path d="m4.2494 8.9486h0.51111" stroke-width=".26458"/><path d="m2.5177 6.6805a2.086 2.1993 0 0 1 0.069567-2.076 2.086 2.1993 0 0 1 1.6779-1.0889" stroke-width=".26905"/><path d="m2.5177 6.6805s1.3148 3.3698 3.9235-0.73913" stroke-width=".26458"/><path d="m6.4412 5.9413c0.026632-0.0044544 2.3738-3.5515-2.176-2.4258" stroke-width=".26458"/><path d="m4.2652 3.5155a2.5892 2.4617 0 0 1 2.8031-0.56341 2.5892 2.4617 0 0 1 1.6332 2.2381" stroke-width=".26905"/><g stroke-width=".26458"><path d="m6.018 8.9311s1.6866 0.29621 2.193-1.1452"/><path d="m8.7014 5.1902s1.5172 0.87431 1.385 2.5875"/><path d="m10.086 7.7777 0.0066 1.1714"/><path d="m10.807 6.6676c-1.6869 2.2823-3.295 0.60778-3.295 0.60778s0.080834-0.33597 0.37495-0.39127c0 0 1.0551 1.3076 2.92-0.2165z"/><path d="m10.098 7.602s0.72023-0.15187 1.1463-0.86268"/><path d="m10.105 7.9707s0.77798-0.061728 1.1397-1.2314"/></g><ellipse transform="matrix(.80552 -.59256 .5247 .85129 0 0)" cx="3.214" cy="9.2795" rx=".35261" ry=".4755" stroke-width=".26503"/><ellipse cx="7.5816" cy="6.0537" rx=".065052" ry=".065043" stroke-width=".13229"/><path d="m9.1199 7.9268v1.0231s0.39584 0.48955 0.97316-8.039e-4" stroke-width=".26458"/><path d="m2.9919 8.9311c-1.2193 0.020529-2.4506-2.1968-0.57224-3.947" stroke-width=".26458"/></g></svg>
