<?xml version="1.0" encoding="UTF-8"?><svg id="a" xmlns="http://www.w3.org/2000/svg" viewBox="0 0 48 48"><defs><style>.d{fill:none;stroke:#fff;stroke-linecap:round;stroke-linejoin:round;}</style></defs><rect class="d" x="4.5" y="8.5" width="39" height="31" rx="4" ry="4"/><line class="d" x1="8.2" x2="13.5" y1="25.5" y2="25.5"/><line class="d" x1="10.85" x2="10.85" y1="33.5" y2="25.5"/><rect class="d" x="16.067" y="25.5" width="5.3" height="8" rx="2.65" ry="2.65"/><rect class="d" x="18.018" y="14.5" width="5.3" height="8" rx="2.65" ry="2.65"/><path class="d" d="m34.5 33.5v-8l5.3 8v-8"/><path class="d" d="m31.93 25.5-2 8-2-8-2 8-2-8"/><path class="d" d="m10.7 14.5h5.3l-5.3 8h5.3"/><path class="d" d="m25.33 14.5h5.3l-5.3 8h5.3"/><rect class="d" x="32.654" y="14.5" width="5.3" height="8" rx="2.65" ry="2.65"/></svg>
