<svg xmlns="http://www.w3.org/2000/svg" viewBox="0 0 48 48"><g style="fill:none;stroke:#fff;stroke-linecap:round;stroke-linejoin:round"><path d="M5.532 31.973h5.054l-5.054 7.628h5.054M11.749 34.547v3.147c0 1.053.854 1.907 1.907 1.907h0a1.907 1.907 0 0 0 1.907-1.907v-3.147M21.024 34.548v5.721a1.907 1.907 0 0 1-1.907 1.907h0a1.896 1.896 0 0 1-1.348-.559"/><path d="M17.21 37.694v-1.24a1.907 1.907 0 0 1 3.814 0v1.24a1.907 1.907 0 0 1-3.814 0ZM26.235 38.639a1.905 1.905 0 0 1-1.657.962h0a1.907 1.907 0 0 1-1.907-1.907v-1.24c0-1.053.854-1.907 1.907-1.907h0c1.053 0 1.907.854 1.907 1.907v.62h-3.814M28.132 36.454c0-1.053.854-1.907 1.907-1.907h0M28.132 34.547v5.054M31.686 31.973v7.628M31.686 36.944l4.1-4.945M35.786 39.601l-3.141-3.814M40.58 35.787a1.907 1.907 0 0 1 0 3.814h-3.147v-7.628h3.147a1.907 1.907 0 0 1 0 3.814h0ZM40.58 35.787h-3.147M18.091 5.581v4.307M17.243 9.887h1.697M19.339 15.533v3.937l.885 1.279-.885 1.284.885 1.216-2.174 2.523-1.205-.889v-9.349a4.174 4.174 0 0 1-2.922-3.979 4.17 4.17 0 0 1 4.169-4.169 4.17 4.17 0 0 1 4.169 4.169 4.158 4.158 0 0 1-1.312 3.035 4.164 4.164 0 0 1-1.609.943Z"/><path d="M18.091 7.385h2.126a4.169 4.169 0 0 1 3.093 6.999l1.96 3.415 1.404.668-.128 1.554 1.373.614-.63 3.27-1.488-.171-4.654-8.108a4.16 4.16 0 0 1-1.808-.004"/><path d="M20.217 7.385h1.623a4.138 4.138 0 0 1 2.076.568 4.157 4.157 0 0 1 1.961 2.663c.14.606.146 1.244.004 1.865l3.401 1.983 1.55-.12.663 1.411 1.496-.152 1.084 3.149-1.375.593-8.077-4.709a4.165 4.165 0 0 1-.833.589"/></g></svg>