<svg xmlns="http://www.w3.org/2000/svg" xml:space="preserve" style="clip-rule:evenodd;stroke-linecap:round;stroke-linejoin:round;stroke-miterlimit:1.5" viewBox="0 0 48 48"><path d="M882 0h48v48h-48z" style="fill:none" transform="translate(-882)"/><path d="m27.237 20.147 3.771-3.554s.313 2.899.897 4.263M19.584 20.452c-1.27-1.524-2.374-2.61-3.329-3.307a10.8 10.8 0 0 0-1.396 4.533M30.702 20.952c3.198.824 5.391 2.482 5.559 5.442.125 2.22-1.028 4.801-2.998 6.123-2.397 1.609-5.741 2.265-10.492 2.273-4.068.007-7.082-.696-9.161-1.953-1.944-1.175-2.932-2.825-2.743-5.308.206-2.719 1.896-4.747 4.875-5.957M18.772 20.707q1.843-.35 4.075-.416c1.801-.052 3.546-.006 5.15.177" style="fill:none;stroke:#fff;stroke-width:1px"/><path d="M19.473 30.029c.198 1.38 2.026 1.876 2.586-1.109M18.809 34.549c-.783 1.579-1.661 3.57-2.667 6.111 1.384 1.097 2.706 1.375 4.769.874q.433-1.625.816-3.335M25.526 41.281c-1.717.033-3.123-.009-4.327.012M29.307 34.453c1.464 3.276.407 3.016 2.483 5.243-1.918 1.412-3.952 2.094-6.102 2.033-.056-1.133-.286-2.317-.582-3.461M25.021 29.926c-.842 1.161-2.854 2.821-2.962-1.006" style="fill:none;stroke:#fff;stroke-width:1px"/><path d="m23.181 20.133-.014-3.639" style="fill:none;stroke:#fff;stroke-width:1.04px" transform="matrix(1 .00334 -.00365 .9149 .113 1.565)"/><path d="M21.39 15.19c-1.134.301-4.479 1.347-4.362-2.303.117-3.619 3.889-2.286 4.342-1.932.122-.184.668-3.693 4.495-3.51 3.733.178 4.712 3.59 4.712 3.59.871-.759 4.186-.557 3.969 2.145-.259 3.211-4.345 2.38-4.879 1.443 0 0-1.081 2.353-4.66 2.306-2.156-.029-3.617-1.739-3.617-1.739" style="fill:none;stroke:#fff;stroke-width:1px"/><path d="M16.048 11.577c-.54-3.53 3.859-5.961 6.878-3.774" style="fill:none;stroke:#fff;stroke-width:1.11px" transform="matrix(.87234 0 0 .92929 3.323 .777)"/><path d="M22.205 6.232h-1.564m2.328-1.843-1.142-1.222" style="fill:none;stroke:#fff;stroke-width:.89px" transform="matrix(1.14669 0 0 1.08767 -8.153 3.787)"/><path d="m19.807 6.794-.405-1.747" style="fill:none;stroke:#fff;stroke-width:.91px" transform="matrix(.97828 .24092 -.20748 1.11202 2.137 -5.193)"/><path d="m21.959 7.195.998-1.576" style="fill:none;stroke:#fff;stroke-width:1px" transform="translate(.099 .116)"/><ellipse cx="18.611" cy="26.611" rx=".488" ry=".56" style="fill:#fff" transform="matrix(1.53562 0 0 1.3387 -9.277 -8.264)"/><ellipse cx="18.611" cy="26.611" rx=".488" ry=".56" style="fill:#fff" transform="matrix(1.53562 0 0 1.3387 -3.116 -8.483)"/></svg>