<svg xmlns="http://www.w3.org/2000/svg" xml:space="preserve" id="svg1" version="1.1" viewBox="0 0 48 48"><defs id="defs1"><style id="style1">.a{fill:none;stroke:#fff;stroke-linecap:round;stroke-linejoin:round}</style></defs><path id="path14884" d="M38.535 9.465C41.625 12.555 42.5 19.631 42.5 24c0 4.37-.876 11.446-3.965 14.535C35.445 41.625 28.369 42.5 24 42.5c-4.37 0-11.446-.876-14.535-3.965C6.375 35.445 5.5 28.369 5.5 24c0-4.37.876-11.446 3.965-14.535C12.555 6.375 19.631 5.5 24 5.5c4.37 0 11.446.876 14.535 3.965z" style="fill:none;stroke:#fff;stroke-width:1;stroke-linecap:round;stroke-linejoin:round"/><path id="path14882" d="M6.971 13.921a27.008 27.008 0 0 1 .1 0A27.008 27.008 0 0 1 34.079 40.93v0a27.008 27.008 0 0 1 0 .1" style="fill:none;stroke:#fff;stroke-width:1;stroke-linecap:round;stroke-linejoin:round"/><path id="path14868" d="M5.515 24.71a16.294 16.294 0 0 1 1.556-.074 16.294 16.294 0 0 1 16.293 16.293 16.294 16.294 0 0 1-.074 1.552" style="fill:none;stroke:#fff;stroke-width:1;stroke-linecap:round;stroke-linejoin:round"/></svg>