<svg xmlns="http://www.w3.org/2000/svg" xml:space="preserve" viewBox="0 0 48 48"><circle cx="43.877" cy="11.654" r=".75" class="q" style="fill:#fff;stroke:none;stroke-width:1"/><path d="M42.37 20.923c.09 1.105.13 2.152.13 3.077 0 4.37-.876 11.446-3.965 14.535C35.445 41.625 28.369 42.5 24 42.5c-4.37 0-11.446-.876-14.535-3.965C6.375 35.445 5.5 28.369 5.5 24c0-4.37.876-11.446 3.965-14.535C12.555 6.375 19.631 5.5 24 5.5c3.762 0 9.53.65 13.034 2.802" style="fill:none;stroke:#fff;stroke-width:1;stroke-linecap:round;stroke-linejoin:round"/><path d="M6.971 13.921a27.008 27.008 0 0 1 .1 0A27.008 27.008 0 0 1 34.079 40.93v0a27.008 27.008 0 0 1 0 .1M5.515 24.71a16.294 16.294 0 0 1 1.556-.074 16.294 16.294 0 0 1 16.293 16.293 16.294 16.294 0 0 1-.074 1.552M30.953 11.452v6.473M30.953 15.255c0-.894.732-1.619 1.636-1.619h0c.903 0 1.635.725 1.635 1.619v2.67M36.766 13.636v4.289M39.728 17.925v-5.34a1.14 1.14 0 0 1 1.145-1.133v0c.563 0 .915.165 1.156.474M38.758 13.636h2.29M43.877 13.636v4.289" style="fill:none;stroke:#fff;stroke-width:1;stroke-linecap:round;stroke-linejoin:round"/><circle cx="36.766" cy="11.654" r=".75" class="q" style="fill:#fff;stroke:none;stroke-width:1"/></svg>