<?xml version="1.0" encoding="UTF-8" standalone="no"?>
<!-- Created with Inkscape (http://www.inkscape.org/) -->

<svg
   width="48"
   height="48"
   viewBox="0 0 12.7 12.7"
   version="1.1"
   id="svg1"
   xml:space="preserve"
   inkscape:version="1.4.3 (0d15f75042, 2025-12-25)"
   sodipodi:docname="svitlo_app.svg"
   xmlns:inkscape="http://www.inkscape.org/namespaces/inkscape"
   xmlns:sodipodi="http://sodipodi.sourceforge.net/DTD/sodipodi-0.dtd"
   xmlns="http://www.w3.org/2000/svg"
   xmlns:svg="http://www.w3.org/2000/svg"><sodipodi:namedview
     id="namedview1"
     pagecolor="#505050"
     bordercolor="#ffffff"
     borderopacity="1"
     inkscape:showpageshadow="0"
     inkscape:pageopacity="0"
     inkscape:pagecheckerboard="1"
     inkscape:deskcolor="#505050"
     inkscape:document-units="mm"
     showgrid="true"
     inkscape:zoom="8.7537599"
     inkscape:cx="23.418508"
     inkscape:cy="27.07408"
     inkscape:window-width="1371"
     inkscape:window-height="699"
     inkscape:window-x="0"
     inkscape:window-y="0"
     inkscape:window-maximized="1"
     inkscape:current-layer="svg1"><inkscape:grid
       id="grid1"
       units="mm"
       originx="0"
       originy="0"
       spacingx="1"
       spacingy="1"
       empcolor="#0099e5"
       empopacity="0.30196078"
       color="#0099e5"
       opacity="0.14902"
       empspacing="5"
       enabled="true"
       visible="true" /></sodipodi:namedview><defs
     id="defs1"><style
       id="style1">.b{fill:none;stroke:#000;stroke-linecap:round;stroke-linejoin:round;}</style></defs><g
     inkscape:label="Layer 1"
     inkscape:groupmode="layer"
     id="layer1"><path
       id="rect1"
       style="display:inline;opacity:1;fill:none;stroke:#ffffff;stroke-width:0.306917;stroke-linecap:round;stroke-linejoin:round;stroke-dasharray:none;stroke-opacity:1"
       d="M 6.3808149,1.6375245 C 6.1378058,1.6408697 2.12339,4.9520124 1.753087,5.3942565 1.2910337,5.9460758 1.8535738,6.1125604 2.3111718,6.0644378 l 0.9495235,0.0018 -0.9093606,0.003 v 4.5498002 c 0,0.392464 0.3160828,0.708546 0.708546,0.708546 h 6.6802331 c 0.3924632,0 0.7085462,-0.316082 0.7085462,-0.708546 V 6.0866173 c 0.161849,0.022118 0.849259,0.088499 0.757701,-0.3998309 C 11.192059,5.3951022 10.917714,5.2615102 10.473836,4.9003125 10.395688,4.8367208 10.439451,4.0214512 10.414491,3.4352649 10.379381,2.6107 10.262265,2.8930266 9.5434953,2.8573984 9.0500543,2.8329393 9.2567376,3.3245098 9.2431726,3.7871401 9.3536776,4.1524962 6.830354,1.6313417 6.3808149,1.6375245 Z" /><rect
       style="opacity:1;fill:none;stroke:#ffffff;stroke-width:0.26458333;stroke-linecap:round;stroke-linejoin:round;stroke-dasharray:none;stroke-opacity:1"
       id="rect8"
       width="1.4104961"
       height="2.8737211"
       x="7.4347649"
       y="6.7756543" /></g></svg>
