<?xml version="1.0" encoding="UTF-8"?>
<svg version="1.1" viewBox="0 0 48 48" xml:space="preserve" xmlns="http://www.w3.org/2000/svg"><defs><style>.a{fill:none;stroke:#fff;stroke-linecap:round;stroke-linejoin:round;}</style></defs><path d="m22.805 32.688c-1.2663 1.2954-3.2145 4.0071-7.4411 3.981-5.0631-0.03136-8.3458-3.981-8.3601-8.3019-0.015043-4.5433 3.3167-7.7114 7.0343-8.2874" fill="none" stroke="#fff" stroke-linecap="round" stroke-linejoin="round" style="paint-order:stroke fill markers"/><path d="m22.014 27.11s3.0156-3.022 4.9346-4.8705 3.8449-2.2408 5.9682-2.2799 6.6264 1.8481 7.6551 5.7274c1.0287 3.8794 0.02408 6.5848-2.3667 8.8581-2.3908 2.2733-5.7628 2.4276-8.2574 1.6929-2.4947-0.73469-5.0478-3.8717-7.5704-6.4308s-6.2761-5.5005-6.7465-8.8014c-0.47046-3.3009 1.5422-6.4576 2.8293-7.5134 1.2871-1.0558 5.2413-3.6087 9.448-1.1387 3.4175 2.0066 4.114 4.4542 4.3385 5.9779" fill="none" stroke="#fff" stroke-linecap="round" stroke-linejoin="round" stroke-width="1px"/></svg>
