<?xml version="1.0" encoding="utf-8"?>
<!-- Generator: Adobe Illustrator 28.0.0, SVG Export Plug-In . SVG Version: 6.00 Build 0)  -->
<svg version="1.1" id="Layer_1" xmlns="http://www.w3.org/2000/svg" xmlns:xlink="http://www.w3.org/1999/xlink" x="0px" y="0px"
	 viewBox="0 0 28 30" style="enable-background:new 0 0 28 30;" xml:space="preserve">
<style type="text/css">
	.st0{fill:none;stroke:#EEEEEE;stroke-width:1.5;stroke-linecap:round;stroke-linejoin:round;}
</style>
<g>
	<path class="st0" d="M13.2,15L1.1,26.8c0.4,1.3,1.6,2.3,3.1,2.3c0.6,0,1.2-0.2,1.6-0.5L19.3,21L13.2,15z"/>
	<path class="st0" d="M13.2,15l6.1-6.1l5.8,3.3c1,0.5,1.7,1.6,1.8,2.8c0,1.2-0.7,2.2-1.7,2.8L19.3,21L13.2,15z M13.2,15L1.1,26.9
		C1,26.6,1,26.4,1,26V4c0-0.3,0-0.6,0.1-0.8L13.2,15z"/>
	<path class="st0" d="M13.2,15l6.1-6.1L5.9,1.3C5.4,1,4.8,0.9,4.2,0.9c-1.5,0-2.8,1-3.1,2.3L13.2,15z"/>
</g>
</svg>
