<svg xmlns="http://www.w3.org/2000/svg" viewBox="0 0 384 192"><defs><style>.a{fill:#fff648;}.b{fill:#d6cc0f;}.c{fill:#ede60a;}.d{fill:none;stroke:#000;stroke-linecap:round;stroke-linejoin:round;stroke-width:6px;}</style></defs><rect class="a" x="22" y="45" width="340" height="90" rx="17.6166"/><rect class="b" x="22" y="57" width="340" height="90" rx="17.6166"/><rect class="c" x="22" y="51" width="340" height="90" rx="17.6166"/><path d="M143.7227,111.2236V74.8486h13.0019c10.9756,0,17.6895,6.82,17.6895,18.1519,0,11.3672-6.7139,18.2231-17.7959,18.2231Zm12.5752-6.5893c6.8378,0,10.4433-3.5166,10.4433-11.6338,0-8.0811-3.6055-11.5625-10.4258-11.5625h-4.9013v23.1963Z"/><path d="M178.8438,97.69c0-8.4541,5.1513-14.1026,13.4277-14.1026s13.4277,5.6485,13.4277,14.1026c0,8.4013-5.1513,14.0668-13.4277,14.0668S178.8438,106.0908,178.8438,97.69Zm19.165-.0533c0-4.76-1.9541-8.2768-5.7022-8.2768-3.8183,0-5.7724,3.5171-5.7724,8.2768s1.9541,8.2593,5.7724,8.2593C196.0547,105.8955,198.0088,102.3965,198.0088,97.6362Z"/><path d="M218.1934,111.2236H210.627V83.9424h7.2109v4.8135h.3193c1.2256-3.18,4.1563-5.169,8.2061-5.169,5.6836,0,9.4131,3.9077,9.4131,10.2661v17.3706H228.21v-16.02c.0185-3.3393-1.8116-5.3286-4.8487-5.3286-3.0547,0-5.15,2.0606-5.1679,5.5772Z"/><path d="M240.4385,103.604c0-6.0923,4.85-7.9038,10.249-8.4009,4.7422-.4619,6.6064-.6928,6.6064-2.4511v-.1065c0-2.2383-1.4736-3.5347-4.0488-3.5347-2.7178,0-4.334,1.3321-4.85,3.1441l-6.998-.5684c1.0488-4.9736,5.3466-8.1,11.8828-8.1,6.0742,0,11.58,2.7354,11.58,9.2363v18.4h-7.1758V107.44h-.2129c-1.3321,2.54-3.9424,4.2984-7.9746,4.2984C244.293,111.7388,240.4385,109.0034,240.4385,103.604Zm16.9092-2.1313V98.5776c-.9063.604-3.6055.9947-5.2579,1.2256-2.664.3731-4.4218,1.4209-4.4218,3.5523,0,2.0781,1.6689,3.1616,3.9961,3.1616C254.9854,106.5171,257.3477,104.332,257.3477,101.4727Z"/><path d="M285.2412,89.626h-5.1328V102.84c0,2.0957,1.0478,2.6641,2.5576,2.6641a10.3327,10.3327,0,0,0,1.8828-.2485l1.1895,5.63a14.7235,14.7235,0,0,1-4.1026.71c-5.4882.2309-9.1289-2.4155-9.0937-7.7617V89.626h-3.7295V83.9424h3.7295V77.4062h7.5664v6.5362h5.1328Z"/><path d="M288.77,97.7075c0-8.4189,5.2041-14.1206,13.2325-14.1206,7.2109,0,12.8232,4.5825,12.8232,13.854V99.519H296.2471v.0176c0,4.0674,2.3984,6.5718,6.1806,6.5718,2.5225,0,4.4766-1.0835,5.24-3.1616l6.998.4619c-1.0664,5.062-5.6133,8.3476-12.3623,8.3476C293.9023,111.7563,288.77,106.3569,288.77,97.7075ZM307.7031,94.83a5.3769,5.3769,0,0,0-5.5771-5.5947,5.7621,5.7621,0,0,0-5.8789,5.5947Z"/><path class="d" d="M48.49,68.8838h57.0429a0,0,0,0,1,0,0v38.7581a18.2848,18.2848,0,0,1-18.2848,18.2848H66.7746A18.2848,18.2848,0,0,1,48.49,107.6419V68.8838a0,0,0,0,1,0,0Z"/><path class="d" d="M64.0071,101.3351l13.0042,13.0041,13.0041-13.0041a16.5306,16.5306,0,0,0,4.8417-11.6889h0a9.0887,9.0887,0,0,0-8.4916-9.1647,8.9232,8.9232,0,0,0-9.3542,8.9127,8.9233,8.9233,0,0,0-9.3543-8.9127,9.0887,9.0887,0,0,0-8.4916,9.1647h0A16.5306,16.5306,0,0,0,64.0071,101.3351Z"/><path class="d" d="M105.5327,68.8838h5.9183a15.664,15.664,0,1,1,0,31.3279h-5.9183"/></svg>