<svg xmlns="http://www.w3.org/2000/svg" viewBox="0 0 340 102"><defs><style>.a{fill:#fff648;}.b{fill:#d6cc0f;}.c{fill:#ede60a;}.d{fill:none;stroke:#000;stroke-linecap:round;stroke-linejoin:round;stroke-width:6px;}</style></defs><rect class="a" width="340" height="90" rx="17.6166"/><rect class="b" y="12" width="340" height="90" rx="17.6166"/><rect class="c" y="6" width="340" height="90" rx="17.6166"/><path class="d" d="M55.6841,21h18.65c6.4245,0,11.4437,1.3562,14.222,4.5228C91.08,28.399,91.82,31.5772,91.0882,36.2441a9.2615,9.2615,0,0,1,2.6566,2.0483c2.375,2.7069,2.8386,6.561,1.9407,11.1766-2.151,11.045-9.51,14.8634-18.91,14.8634H75.3227a2.3339,2.3339,0,0,0-2.3048,1.97l-.12.6414-1.829,11.59-.0951.4965A2.334,2.334,0,0,1,68.6689,81H58.9655a2.1685,2.1685,0,0,1-2.3422-2.375c1.2956-8.2327,2.5366-15.9852,3.84-24.2168a8.2459,8.2459,0,0,1,2.2845-.0813h6.53c10.7464,0,19.1627-4.3636,21.6207-16.99.0729-.3731.1339-.7354.19-1.0924a13.2576,13.2576,0,0,0-2.0193-.8524c-.1809-.056-.3669-.1185-.5545-.1737-.375-.11-.76-.21-1.1586-.298s-.8115-.1637-1.2331-.2317a30.3194,30.3194,0,0,0-4.8248-.3517H65.6234a2.29,2.29,0,0,0-1.0055.2276,2.33,2.33,0,0,0-1.2993,1.742q-2.9759,18.9381-5.9876,37.87l-.0248.1655h-10.44a1.5993,1.5993,0,0,1-1.5807-1.85L53.0482,23.251A2.6679,2.6679,0,0,1,55.6841,21Z"/><path d="M121.7227,66.2236V29.8486h13.0019c10.9756,0,17.6895,6.82,17.6895,18.1519,0,11.3672-6.7139,18.2231-17.7959,18.2231Zm12.5752-6.5893c6.8378,0,10.4433-3.5166,10.4433-11.6338,0-8.0811-3.6055-11.5625-10.4258-11.5625h-4.9013V59.6343Z"/><path d="M156.8438,52.69c0-8.4541,5.1513-14.1026,13.4277-14.1026s13.4277,5.6485,13.4277,14.1026c0,8.4013-5.1513,14.0668-13.4277,14.0668S156.8438,61.0908,156.8438,52.69Zm19.165-.0533c0-4.76-1.9541-8.2768-5.7022-8.2768-3.8183,0-5.7724,3.5171-5.7724,8.2768s1.9541,8.2593,5.7724,8.2593C174.0547,60.8955,176.0088,57.3965,176.0088,52.6362Z"/><path d="M196.1934,66.2236H188.627V38.9424h7.2109v4.8135h.3193c1.2256-3.18,4.1563-5.169,8.2061-5.169,5.6836,0,9.4131,3.9077,9.4131,10.2661V66.2236H206.21V50.2031c.0185-3.3393-1.8116-5.3286-4.8487-5.3286-3.0547,0-5.15,2.0606-5.1679,5.5772Z"/><path d="M218.4385,58.604c0-6.0923,4.85-7.9038,10.249-8.4009,4.7422-.4619,6.6064-.6928,6.6064-2.4511v-.1065c0-2.2383-1.4736-3.5347-4.0488-3.5347-2.7178,0-4.334,1.3321-4.85,3.1441l-6.998-.5684c1.0488-4.9736,5.3466-8.1,11.8828-8.1,6.0742,0,11.58,2.7354,11.58,9.2363v18.4h-7.1758V62.44h-.2129c-1.3321,2.54-3.9424,4.2984-7.9746,4.2984C222.293,66.7388,218.4385,64.0034,218.4385,58.604Zm16.9092-2.1313V53.5776c-.9063.604-3.6055.9947-5.2579,1.2256-2.664.3731-4.4218,1.4209-4.4218,3.5523,0,2.0781,1.6689,3.1616,3.9961,3.1616C232.9854,61.5171,235.3477,59.332,235.3477,56.4727Z"/><path d="M263.2412,44.626h-5.1328V57.84c0,2.0957,1.0478,2.6641,2.5576,2.6641a10.3327,10.3327,0,0,0,1.8828-.2485l1.1895,5.63a14.7235,14.7235,0,0,1-4.1026.71c-5.4882.2309-9.1289-2.4155-9.0937-7.7617V44.626h-3.73V38.9424h3.73V32.4062h7.5664v6.5362h5.1328Z"/><path d="M266.77,52.7075c0-8.4189,5.2041-14.1206,13.2325-14.1206,7.2109,0,12.8232,4.5825,12.8232,13.854V54.519H274.2471v.0176c0,4.0674,2.3984,6.5718,6.1806,6.5718,2.5225,0,4.4766-1.0835,5.24-3.1616l6.998.4619c-1.0664,5.062-5.6133,8.3476-12.3623,8.3476C271.9023,66.7563,266.77,61.3569,266.77,52.7075ZM285.7031,49.83a5.3769,5.3769,0,0,0-5.5771-5.5947,5.7621,5.7621,0,0,0-5.8789,5.5947Z"/></svg>