<?xml version="1.0" encoding="UTF-8"?><svg xmlns="http://www.w3.org/2000/svg" viewBox="0 0 473.8338 199"><defs><style>.q,.r,.s{stroke-width:0px;}.t{stroke:#fff;stroke-linecap:round;stroke-linejoin:round;}.t,.u{fill:none;}.r,.v{fill:#ff0;}.u{stroke:#ff0;stroke-miterlimit:10;stroke-width:.25px;}.s{fill:#fff;}.v{font-family:OpenSans-Regular, 'Open Sans';font-size:6px;font-variation-settings:'wght' 400, 'wdth' 100;}</style></defs><g id="a"><rect class="q" x="33.8338" width="440" height="199"/></g><g id="b"><rect class="u" x="85.8338" y="87" width="8" height="14"/><rect class="u" x="95.8338" y="87" width="8" height="14"/><rect class="u" x="105.8338" y="87" width="8" height="14"/><rect class="u" x="125.8338" y="87" width="8" height="14"/><rect class="u" x="135.8338" y="87" width="8" height="14"/><rect class="u" x="145.8338" y="87" width="8" height="14"/><rect class="u" x="155.8338" y="87" width="8" height="14"/><rect class="u" x="165.8338" y="87" width="8" height="14"/><rect class="u" x="175.8338" y="87" width="8" height="14"/><rect class="u" x="185.8338" y="87" width="8" height="14"/><rect class="u" x="195.8338" y="87" width="8" height="14"/><rect class="u" x="205.8338" y="87" width="8" height="14"/><rect class="u" x="85.8338" y="103" width="8" height="14"/><rect class="u" x="95.8338" y="103" width="8" height="14"/><rect class="u" x="105.8338" y="103" width="8" height="14"/><rect class="u" x="115.8338" y="103" width="8" height="14"/><rect class="u" x="125.8338" y="103" width="8" height="14"/><rect class="u" x="135.8338" y="103" width="8" height="14"/><rect class="u" x="145.8338" y="103" width="8" height="14"/><rect class="u" x="155.8338" y="103" width="8" height="14"/><rect class="u" x="125.8338" y="71" width="8" height="14"/><rect class="u" x="135.8338" y="71" width="8" height="14"/><rect class="u" x="145.8338" y="71" width="8" height="14"/><rect class="u" x="155.8338" y="71" width="8" height="14"/><rect class="u" x="165.8338" y="71" width="8" height="14"/><rect class="u" x="175.8338" y="71" width="8" height="14"/><rect class="u" x="185.8338" y="71" width="8" height="14"/><rect class="u" x="195.8338" y="71" width="8" height="14"/><rect class="u" x="205.8338" y="71" width="8" height="14"/><rect class="u" x="215.8338" y="71" width="8" height="14"/><rect class="u" x="225.8338" y="71" width="8" height="14"/><rect class="u" x="235.8338" y="71" width="8" height="14"/><rect class="u" x="245.8338" y="71" width="8" height="14"/><rect class="u" x="255.8338" y="71" width="8" height="14"/><rect class="u" x="445.8338" y="71" width="8" height="14"/><rect class="u" x="435.8338" y="71" width="8" height="14"/><rect class="u" x="385.8338" y="71" width="8" height="14"/><rect class="u" x="395.8338" y="71" width="8" height="14"/><rect class="u" x="265.8338" y="71" width="8" height="14"/><rect class="u" x="275.8338" y="71" width="8" height="14"/><rect class="u" x="285.8338" y="71" width="8" height="14"/><rect class="u" x="295.8338" y="71" width="8" height="14"/><rect class="u" x="305.8338" y="71" width="8" height="14"/><rect class="u" x="315.8338" y="71" width="8" height="14"/><rect class="u" x="325.8338" y="71" width="8" height="14"/><rect class="u" x="335.8338" y="71" width="8" height="14"/><rect class="u" x="345.8338" y="71" width="8" height="14"/><rect class="u" x="355.8338" y="71" width="8" height="14"/><rect class="u" x="365.8338" y="71" width="8" height="14"/><rect class="u" x="375.8338" y="71" width="8" height="14"/><rect class="u" x="85.8338" y="55" width="8" height="14"/><rect class="u" x="95.8338" y="55" width="8" height="14"/><rect class="u" x="105.8338" y="55" width="8" height="14"/><rect class="u" x="415.8338" y="55" width="8" height="14"/><rect class="u" x="115.8338" y="55" width="8" height="14"/><rect class="u" x="125.8338" y="55" width="8" height="14"/><rect class="u" x="135.8338" y="55" width="8" height="14"/><rect class="u" x="145.8338" y="55" width="8" height="14"/><rect class="u" x="155.8338" y="55" width="8" height="14"/><rect class="u" x="165.8338" y="55" width="8" height="14"/><rect class="u" x="175.8338" y="55" width="8" height="14"/><rect class="u" x="185.8338" y="55" width="8" height="14"/><rect class="u" x="195.8338" y="55" width="8" height="14"/><rect class="u" x="205.8338" y="55" width="8" height="14"/><rect class="u" x="215.8338" y="55" width="8" height="14"/><rect class="u" x="225.8338" y="55" width="8" height="14"/><rect class="u" x="235.8338" y="55" width="8" height="14"/><rect class="u" x="245.8338" y="55" width="8" height="14"/><rect class="u" x="255.8338" y="55" width="8" height="14"/><rect class="u" x="265.8338" y="55" width="8" height="14"/><rect class="u" x="275.8338" y="55" width="8" height="14"/><rect class="u" x="285.8338" y="55" width="8" height="14"/><rect class="u" x="295.8338" y="55" width="8" height="14"/><rect class="u" x="305.8338" y="55" width="8" height="14"/><rect class="u" x="315.8338" y="55" width="8" height="14"/><rect class="u" x="325.8338" y="55" width="8" height="14"/><rect class="u" x="335.8338" y="55" width="8" height="14"/><rect class="u" x="345.8338" y="55" width="8" height="14"/><rect class="u" x="355.8338" y="55" width="8" height="14"/><rect class="u" x="365.8338" y="55" width="8" height="14"/><rect class="u" x="375.8338" y="55" width="8" height="14"/><rect class="u" x="385.8338" y="55" width="8" height="14"/><rect class="u" x="395.8338" y="55" width="8" height="14"/><rect class="u" x="345.8338" y="39" width="8" height="14"/><rect class="u" x="355.8338" y="39" width="8" height="14"/><rect class="u" x="365.8338" y="39" width="8" height="14"/><rect class="u" x="375.8338" y="39" width="8" height="14"/><rect class="u" x="385.8338" y="39" width="8" height="14"/><rect class="u" x="395.8338" y="39" width="8" height="14"/><rect class="u" x="405.8338" y="55" width="8" height="14"/><rect class="u" x="405.8338" y="39" width="8" height="14"/><rect class="u" x="85.8338" y="39" width="8" height="14"/><rect class="u" x="95.8338" y="39" width="8" height="14"/><rect class="u" x="105.8338" y="39" width="8" height="14"/><rect class="u" x="415.8338" y="39" width="8" height="14"/><rect class="u" x="115.8338" y="39" width="8" height="14"/><rect class="u" x="125.8338" y="39" width="8" height="14"/><rect class="u" x="135.8338" y="39" width="8" height="14"/><rect class="u" x="145.8338" y="39" width="8" height="14"/><rect class="u" x="155.8338" y="39" width="8" height="14"/><rect class="u" x="165.8338" y="39" width="8" height="14"/><rect class="u" x="175.8338" y="39" width="8" height="14"/><rect class="u" x="185.8338" y="39" width="8" height="14"/><rect class="u" x="195.8338" y="39" width="8" height="14"/><rect class="u" x="205.8338" y="39" width="8" height="14"/><rect class="u" x="215.8338" y="39" width="8" height="14"/><rect class="u" x="225.8338" y="39" width="8" height="14"/><rect class="u" x="235.8338" y="39" width="8" height="14"/><rect class="u" x="245.8338" y="39" width="8" height="14"/><rect class="u" x="255.8338" y="39" width="8" height="14"/><rect class="u" x="265.8338" y="39" width="8" height="14"/><rect class="u" x="275.8338" y="39" width="8" height="14"/><rect class="u" x="285.8338" y="39" width="8" height="14"/><rect class="u" x="295.8338" y="39" width="8" height="14"/><rect class="u" x="305.8338" y="39" width="8" height="14"/><rect class="u" x="315.8338" y="39" width="8" height="14"/><rect class="u" x="325.8338" y="39" width="8" height="14"/><rect class="u" x="335.8338" y="39" width="8" height="14"/><rect class="u" x="85.8338" y="135" width="8" height="14"/><rect class="u" x="115.8338" y="87" width="8" height="14"/><rect class="u" x="95.8338" y="135" width="8" height="14"/><rect class="u" x="105.8338" y="135" width="8" height="14"/><rect class="u" x="115.8338" y="135" width="8" height="14"/><rect class="u" x="125.8338" y="135" width="8" height="14"/><rect class="u" x="135.8338" y="135" width="8" height="14"/><rect class="u" x="145.8338" y="135" width="8" height="14"/><rect class="u" x="155.8338" y="135" width="8" height="14"/><rect class="u" x="165.8338" y="135" width="8" height="14"/><rect class="u" x="175.8338" y="135" width="8" height="14"/><rect class="u" x="185.8338" y="135" width="8" height="14"/><rect class="u" x="195.8338" y="135" width="8" height="14"/><rect class="u" x="205.8338" y="135" width="8" height="14"/><rect class="u" x="215.8338" y="135" width="8" height="14"/><rect class="u" x="225.8338" y="135" width="8" height="14"/><rect class="u" x="235.8338" y="135" width="8" height="14"/><rect class="u" x="245.8338" y="135" width="8" height="14"/><rect class="u" x="255.8338" y="135" width="8" height="14"/><rect class="u" x="265.8338" y="135" width="8" height="14"/><rect class="u" x="275.8338" y="135" width="8" height="14"/><rect class="u" x="285.8338" y="135" width="8" height="14"/><rect class="u" x="295.8338" y="135" width="8" height="14"/><rect class="u" x="305.8338" y="135" width="8" height="14"/><rect class="u" x="315.8338" y="135" width="8" height="14"/><rect class="u" x="325.8338" y="135" width="8" height="14"/><rect class="u" x="335.8338" y="135" width="8" height="14"/><rect class="u" x="345.8338" y="135" width="8" height="14"/><rect class="u" x="355.8338" y="135" width="8" height="14"/><rect class="u" x="365.8338" y="135" width="8" height="14"/><rect class="u" x="375.8338" y="135" width="8" height="14"/><rect class="u" x="345.8338" y="119" width="8" height="14"/><rect class="u" x="355.8338" y="119" width="8" height="14"/><rect class="u" x="365.8338" y="119" width="8" height="14"/><rect class="u" x="375.8338" y="119" width="8" height="14"/><rect class="u" x="85.8338" y="119" width="8" height="14"/><rect class="u" x="95.8338" y="119" width="8" height="14"/><rect class="u" x="105.8338" y="119" width="8" height="14"/><rect class="u" x="115.8338" y="119" width="8" height="14"/><rect class="u" x="125.8338" y="119" width="8" height="14"/><rect class="u" x="135.8338" y="119" width="8" height="14"/><rect class="u" x="145.8338" y="119" width="8" height="14"/><rect class="u" x="155.8338" y="119" width="8" height="14"/><rect class="u" x="165.8338" y="119" width="8" height="14"/><rect class="u" x="175.8338" y="119" width="8" height="14"/><rect class="u" x="185.8338" y="119" width="8" height="14"/><rect class="u" x="195.8338" y="119" width="8" height="14"/><rect class="u" x="205.8338" y="119" width="8" height="14"/><rect class="u" x="215.8338" y="119" width="8" height="14"/><rect class="u" x="225.8338" y="119" width="8" height="14"/><rect class="u" x="235.8338" y="119" width="8" height="14"/><rect class="u" x="245.8338" y="119" width="8" height="14"/><rect class="u" x="255.8338" y="119" width="8" height="14"/><rect class="u" x="265.8338" y="119" width="8" height="14"/><rect class="u" x="275.8338" y="119" width="8" height="14"/><rect class="u" x="285.8338" y="119" width="8" height="14"/><rect class="u" x="295.8338" y="119" width="8" height="14"/><rect class="u" x="305.8338" y="119" width="8" height="14"/><rect class="u" x="315.8338" y="119" width="8" height="14"/><rect class="u" x="325.8338" y="119" width="8" height="14"/><rect class="u" x="335.8338" y="119" width="8" height="14"/><rect class="u" x="85.8338" y="167" width="8" height="14"/><rect class="u" x="95.8338" y="167" width="8" height="14"/><rect class="u" x="105.8338" y="167" width="8" height="14"/><rect class="u" x="115.8338" y="167" width="8" height="14"/><rect class="u" x="125.8338" y="167" width="8" height="14"/><rect class="u" x="135.8338" y="167" width="8" height="14"/><rect class="u" x="145.8338" y="167" width="8" height="14"/><rect class="u" x="155.8338" y="167" width="8" height="14"/><rect class="u" x="165.8338" y="167" width="8" height="14"/><rect class="u" x="175.8338" y="167" width="8" height="14"/><rect class="u" x="185.8338" y="167" width="8" height="14"/><rect class="u" x="195.8338" y="167" width="8" height="14"/><rect class="u" x="205.8338" y="167" width="8" height="14"/><rect class="u" x="215.8338" y="167" width="8" height="14"/><rect class="u" x="225.8338" y="167" width="8" height="14"/><rect class="u" x="235.8338" y="167" width="8" height="14"/><rect class="u" x="245.8338" y="167" width="8" height="14"/><rect class="u" x="255.8338" y="167" width="8" height="14"/><rect class="u" x="265.8338" y="167" width="8" height="14"/><rect class="u" x="275.8338" y="167" width="8" height="14"/><rect class="u" x="285.8338" y="167" width="8" height="14"/><rect class="u" x="295.8338" y="167" width="8" height="14"/><rect class="u" x="305.8338" y="167" width="8" height="14"/><rect class="u" x="315.8338" y="167" width="8" height="14"/><rect class="u" x="325.8338" y="167" width="8" height="14"/><rect class="u" x="85.8338" y="183" width="8" height="14"/><rect class="u" x="95.8338" y="183" width="8" height="14"/><rect class="u" x="105.8338" y="183" width="8" height="14"/><rect class="u" x="115.8338" y="183" width="8" height="14"/><rect class="u" x="125.8338" y="183" width="8" height="14"/><rect class="u" x="135.8338" y="183" width="8" height="14"/><rect class="u" x="145.8338" y="183" width="8" height="14"/><rect class="u" x="155.8338" y="183" width="8" height="14"/><rect class="u" x="165.8338" y="183" width="8" height="14"/><rect class="u" x="175.8338" y="183" width="8" height="14"/><rect class="u" x="185.8338" y="183" width="8" height="14"/><rect class="u" x="195.8338" y="183" width="8" height="14"/><rect class="u" x="205.8338" y="183" width="8" height="14"/><rect class="u" x="255.8338" y="183" width="8" height="14"/><rect class="u" x="265.8338" y="183" width="8" height="14"/><rect class="u" x="275.8338" y="183" width="8" height="14"/><rect class="u" x="285.8338" y="183" width="8" height="14"/><rect class="u" x="295.8338" y="183" width="8" height="14"/><rect class="u" x="305.8338" y="183" width="8" height="14"/><rect class="u" x="315.8338" y="183" width="8" height="14"/><rect class="u" x="325.8338" y="183" width="8" height="14"/><rect class="u" x="335.8338" y="183" width="8" height="14"/><rect class="u" x="345.8338" y="183" width="8" height="14"/><rect class="u" x="85.8338" y="151" width="8" height="14"/><rect class="u" x="95.8338" y="151" width="8" height="14"/><rect class="u" x="105.8338" y="151" width="8" height="14"/><rect class="u" x="115.8338" y="151" width="8" height="14"/><rect class="u" x="125.8338" y="151" width="8" height="14"/><rect class="u" x="135.8338" y="151" width="8" height="14"/><rect class="u" x="145.8338" y="151" width="8" height="14"/><rect class="u" x="155.8338" y="151" width="8" height="14"/><rect class="u" x="165.8338" y="151" width="8" height="14"/><rect class="u" x="175.8338" y="151" width="8" height="14"/><rect class="u" x="185.8338" y="151" width="8" height="14"/><rect class="u" x="195.8338" y="151" width="8" height="14"/><rect class="u" x="205.8338" y="151" width="8" height="14"/><rect class="u" x="215.8338" y="151" width="8" height="14"/><rect class="u" x="225.8338" y="151" width="8" height="14"/><rect class="u" x="235.8338" y="151" width="8" height="14"/><rect class="u" x="245.8338" y="151" width="8" height="14"/><rect class="u" x="255.8338" y="151" width="8" height="14"/><rect class="u" x="275.8338" y="151" width="8" height="14"/><rect class="u" x="285.8338" y="151" width="8" height="14"/><rect class="u" x="295.8338" y="151" width="8" height="14"/><rect class="u" x="305.8338" y="151" width="8" height="14"/><rect class="u" x="315.8338" y="151" width="8" height="14"/><rect class="u" x="325.8338" y="151" width="8" height="14"/><rect class="u" x="85.8338" y="23" width="8" height="14"/><rect class="u" x="95.8338" y="23" width="8" height="14"/><rect class="u" x="105.8338" y="23" width="8" height="14"/><rect class="u" x="115.8338" y="23" width="8" height="14"/><rect class="u" x="125.8338" y="23" width="8" height="14"/><rect class="u" x="135.8338" y="23" width="8" height="14"/><rect class="u" x="145.8338" y="23" width="8" height="14"/><rect class="u" x="155.8338" y="23" width="8" height="14"/><rect class="u" x="165.8338" y="23" width="8" height="14"/><rect class="u" x="175.8338" y="23" width="8" height="14"/><rect class="u" x="85.8338" y="71" width="8" height="14"/><rect class="u" x="95.8338" y="71" width="8" height="14"/><rect class="u" x="105.8338" y="71" width="8" height="14"/><rect class="u" x="115.8338" y="71" width="8" height="14"/><path class="r" d="m2.3994,45.5127v2.083c0,.1602.0249.291.0742.3926.0913.1875.2617.2812.5107.2812.3574,0,.6011-.1641.7305-.4922.0703-.1758.1055-.417.1055-.7236v-1.541h.5273v3.1377h-.498l.0059-.4629c-.0674.1191-.1504.2197-.25.3018-.1978.1641-.437.2461-.7188.2461-.439,0-.7378-.1494-.897-.4482-.0864-.1602-.1294-.374-.1294-.6416v-2.1328h.5391Z"/><path class="r" d="m5.165,45.5273h.5156v.416c.106-.1426.2212-.2529.3467-.3311.1782-.1172.3877-.1758.6284-.1758.3564,0,.6592.1362.9077.4087s.373.6616.373,1.1675c0,.6836-.1797,1.1719-.5381,1.4648-.2275.1855-.4922.2783-.7944.2783-.2373,0-.436-.0518-.5967-.1553-.0942-.0586-.1992-.1592-.3149-.3018v1.6025h-.5273v-4.374Zm1.9839,2.4595c.1636-.2061.2456-.5142.2456-.9243,0-.25-.0361-.4648-.1089-.6445-.1372-.3457-.3877-.5186-.7524-.5186-.3667,0-.6172.1826-.7524.5479-.0728.1953-.1089.4434-.1089.7441,0,.2422.0361.4482.1089.6182.1372.3242.3877.4863.7524.4863.2471,0,.4521-.103.6157-.3091Z"/><path class="r" d="m8.502,45.5273h.5156v.416c.106-.1426.2212-.2529.3467-.3311.1782-.1172.3877-.1758.6284-.1758.3564,0,.6592.1362.9077.4087s.373.6616.373,1.1675c0,.6836-.1797,1.1719-.5381,1.4648-.2275.1855-.4922.2783-.7944.2783-.2373,0-.436-.0518-.5967-.1553-.0942-.0586-.1992-.1592-.3149-.3018v1.6025h-.5273v-4.374Zm1.9839,2.4595c.1636-.2061.2456-.5142.2456-.9243,0-.25-.0361-.4648-.1089-.6445-.1372-.3457-.3877-.5186-.7524-.5186-.3667,0-.6172.1826-.7524.5479-.0728.1953-.1089.4434-.1089.7441,0,.2422.0361.4482.1089.6182.1372.3242.3877.4863.7524.4863.2471,0,.4521-.103.6157-.3091Z"/><path class="r" d="m13.8208,45.5991c.208.1045.3662.2397.4746.4058.105.1582.1748.3428.21.5537.0308.1445.0464.375.0464.6914h-2.2822c.0098.3193.0845.5752.2236.7681.1396.1929.356.2896.6484.2896.2734,0,.4912-.0913.6538-.2739.0913-.1055.1558-.2285.1938-.3677h.5186c-.0137.1152-.0591.2437-.1362.3853s-.1631.2573-.2583.3472c-.1587.1562-.3555.2617-.5903.3164-.126.0312-.2681.0469-.4272.0469-.3882,0-.7173-.1421-.9868-.4263-.27-.2842-.4048-.6821-.4048-1.1938,0-.5039.1357-.9131.4077-1.2275.2715-.3145.627-.4717,1.0654-.4717.2217,0,.436.0522.6436.1567Zm.189,1.2319c-.0215-.2285-.0708-.4111-.1479-.5479-.1436-.2539-.3828-.3809-.7178-.3809-.2402,0-.4414.0874-.604.2622-.1631.1748-.249.397-.2588.6665h1.7285Z"/><path class="r" d="m15.2344,45.5127h.501v.542c.041-.1055.1416-.2339.3018-.3853s.3447-.2271.5537-.2271c.0098,0,.0264.001.0498.0029s.0635.0059.1201.0117v.5566c-.0312-.0059-.0601-.0098-.0864-.0117s-.0552-.0029-.0864-.0029c-.2656,0-.4697.0854-.6123.2563s-.2139.3677-.2139.5903v1.8047h-.5273v-3.1377Z"/><path class="r" d="m19.2905,45.6797c.2217.1719.355.4678.3999.8877h-.5127c-.0312-.1934-.1025-.354-.2139-.4819s-.29-.1919-.5361-.1919c-.3359,0-.5762.1641-.7207.4917-.0938.2124-.1406.4751-.1406.7871,0,.314.0664.5781.1992.793.1328.2144.3418.3218.627.3218.2188,0,.3921-.0664.52-.1997s.2163-.3159.2651-.5474h.5127c-.0586.416-.2051.7202-.4395.9126s-.5342.2886-.8994.2886c-.4102,0-.7373-.1499-.9814-.4497s-.3662-.6743-.3662-1.1235c0-.5508.1338-.9795.4014-1.2861s.6084-.46,1.0225-.46c.3535,0,.6411.0859.8628.2578Z"/><path class="r" d="m21.8994,46.7515c.1211-.0156.2021-.0664.2432-.1519.0234-.0474.0352-.1147.0352-.2031,0-.1802-.064-.311-.1914-.3926-.1279-.0815-.3105-.1221-.5483-.1221-.2749,0-.4697.0747-.585.2236-.064.0825-.106.2051-.1255.3682h-.4922c.0098-.3877.1353-.6577.376-.8096s.5205-.2275.8384-.2275c.3687,0,.668.0703.8984.2109.228.1406.3423.3594.3423.6562v1.8076c0,.0547.0112.0986.0337.1318s.0698.0498.1421.0498c.0234,0,.0498-.0015.0791-.0044s.0605-.0073.0938-.0132v.3896c-.082.0234-.1445.0381-.1875.0439s-.1016.0088-.1758.0088c-.1816,0-.3135-.0645-.3955-.1934-.043-.0684-.0732-.165-.0908-.29-.1074.1406-.2617.2627-.4629.3662s-.4229.1553-.665.1553c-.291,0-.5288-.0884-.7134-.2646-.1846-.1768-.2769-.3975-.2769-.6631,0-.2905.0908-.5156.2725-.6758.1816-.1597.4199-.2583.7148-.2954l.8408-.1055Zm-1.1104,1.4248c.1113.0874.2432.1313.3955.1313.1855,0,.3652-.043.5391-.1289.293-.1421.4395-.375.4395-.6987v-.4243c-.0645.041-.147.0757-.2485.103s-.2007.0469-.2983.0586l-.3184.041c-.1914.0254-.335.0654-.4312.1196-.1631.0918-.2446.2378-.2446.4385,0,.1523.0557.272.167.3599Z"/><path class="r" d="m23.8682,47.666c.0161.1758.0605.3105.1348.4043.1353.1699.3706.2549.7056.2549.1992,0,.3745-.0425.5264-.1274.1514-.085.2271-.2163.2271-.394,0-.1348-.0605-.2373-.1816-.3076-.0776-.043-.2305-.0928-.4585-.1494l-.4258-.1055c-.272-.0664-.4722-.1406-.6016-.2227-.23-.1426-.3452-.3398-.3452-.5918,0-.2969.1084-.5371.3252-.7207s.5083-.2754.8745-.2754c.479,0,.8242.1387,1.0361.416.1323.1758.1968.3652.1929.5684h-.498c-.0103-.1187-.0532-.2261-.1289-.3232-.124-.1382-.3389-.207-.645-.207-.2036,0-.3584.0381-.4634.1138-.105.0762-.1572.1763-.1572.3008,0,.1362.0688.2451.207.3271.0796.0483.1968.0913.3521.1284l.3555.085c.3857.0918.6445.1807.7759.2666.2051.1348.3076.3467.3076.6357,0,.2793-.1074.5205-.3218.7236-.2148.2031-.5415.3047-.9805.3047-.4727,0-.8071-.106-1.0039-.3179s-.3022-.4741-.3159-.7866h.5068Z"/><path class="r" d="m28.4927,45.5991c.208.1045.3662.2397.4746.4058.105.1582.1748.3428.21.5537.0308.1445.0464.375.0464.6914h-2.2822c.0098.3193.0845.5752.2236.7681.1396.1929.356.2896.6484.2896.2734,0,.4912-.0913.6538-.2739.0913-.1055.1558-.2285.1938-.3677h.5186c-.0137.1152-.0591.2437-.1362.3853s-.1631.2573-.2583.3472c-.1587.1562-.3555.2617-.5903.3164-.126.0312-.2681.0469-.4272.0469-.3882,0-.7173-.1421-.9868-.4263-.27-.2842-.4048-.6821-.4048-1.1938,0-.5039.1357-.9131.4077-1.2275.2715-.3145.627-.4717,1.0654-.4717.2217,0,.436.0522.6436.1567Zm.189,1.2319c-.0215-.2285-.0708-.4111-.1479-.5479-.1436-.2539-.3828-.3809-.7178-.3809-.2402,0-.4414.0874-.604.2622-.1631.1748-.249.397-.2588.6665h1.7285Z"/><path class="r" d="m2.8945,60.3462h.5273v4.3037h-.5273v-4.3037Z"/><path class="r" d="m6.4863,61.8252c.2773.2695.416.6655.416,1.1885,0,.5054-.1221.9233-.3667,1.2529-.2441.3296-.6235.4946-1.1372.4946-.4287,0-.769-.146-1.0215-.4375-.252-.292-.3779-.6836-.3779-1.1753,0-.5269.1328-.9463.3984-1.2588.2656-.312.6226-.4683,1.0708-.4683.4014,0,.7407.1348,1.0181.4038Zm-.3276,2.0854c.1284-.2642.1929-.5586.1929-.8823,0-.2925-.0464-.5303-.1392-.7139-.1465-.2886-.3999-.4331-.7588-.4331-.3188,0-.5503.123-.6953.3687-.145.2461-.2173.5425-.2173.8896,0,.3335.0723.6113.2173.834.145.2222.3745.3335.6895.3335.3457,0,.5825-.1323.7109-.3965Z"/><path class="r" d="m7.7944,61.5122l.6035,2.4727.6123-2.4727h.5918l.6152,2.458.6416-2.458h.5273l-.9111,3.1377h-.5479l-.6387-2.4287-.6182,2.4287h-.5479l-.9053-3.1377h.5771Z"/><path class="r" d="m13.8208,61.5986c.208.1045.3662.2397.4746.4058.105.1582.1748.3428.21.5537.0308.1445.0464.375.0464.6914h-2.2822c.0098.3193.0845.5752.2236.7681.1396.1929.356.2896.6484.2896.2734,0,.4912-.0913.6538-.2739.0913-.1055.1558-.2285.1938-.3677h.5186c-.0137.1152-.0591.2437-.1362.3853s-.1631.2573-.2583.3472c-.1587.1562-.3555.2617-.5903.3164-.126.0312-.2681.0469-.4272.0469-.3882,0-.7173-.1421-.9868-.4263-.27-.2842-.4048-.6821-.4048-1.1938,0-.5039.1357-.9131.4077-1.2275.2715-.3145.627-.4717,1.0654-.4717.2217,0,.436.0522.6436.1567Zm.189,1.2319c-.0215-.2285-.0708-.4111-.1479-.5479-.1436-.2539-.3828-.3809-.7178-.3809-.2402,0-.4414.0874-.604.2622-.1631.1748-.249.397-.2588.6665h1.7285Z"/><path class="r" d="m15.2344,61.5122h.501v.542c.041-.1055.1416-.2339.3018-.3853s.3447-.2271.5537-.2271c.0098,0,.0264.001.0498.0029s.0635.0059.1201.0117v.5566c-.0312-.0059-.0601-.0098-.0864-.0117s-.0552-.0029-.0864-.0029c-.2656,0-.4697.0854-.6123.2563s-.2139.3677-.2139.5903v1.8047h-.5273v-3.1377Z"/><path class="r" d="m19.2905,61.6792c.2217.1719.355.4678.3999.8877h-.5127c-.0312-.1934-.1025-.354-.2139-.4819s-.29-.1919-.5361-.1919c-.3359,0-.5762.1641-.7207.4917-.0938.2124-.1406.4751-.1406.7871,0,.314.0664.5781.1992.793.1328.2144.3418.3218.627.3218.2188,0,.3921-.0664.52-.1997s.2163-.3159.2651-.5474h.5127c-.0586.416-.2051.7202-.4395.9126s-.5342.2886-.8994.2886c-.4102,0-.7373-.1499-.9814-.4497s-.3662-.6743-.3662-1.1235c0-.5508.1338-.9795.4014-1.2861s.6084-.46,1.0225-.46c.3535,0,.6411.0859.8628.2578Z"/><path class="r" d="m21.8994,62.751c.1211-.0156.2021-.0664.2432-.1519.0234-.0474.0352-.1147.0352-.2031,0-.1802-.064-.311-.1914-.3926-.1279-.0815-.3105-.1221-.5483-.1221-.2749,0-.4697.0747-.585.2236-.064.0825-.106.2051-.1255.3682h-.4922c.0098-.3877.1353-.6577.376-.8096s.5205-.2275.8384-.2275c.3687,0,.668.0703.8984.2109.228.1406.3423.3594.3423.6562v1.8076c0,.0547.0112.0986.0337.1318s.0698.0498.1421.0498c.0234,0,.0498-.0015.0791-.0044s.0605-.0073.0938-.0132v.3896c-.082.0234-.1445.0381-.1875.0439s-.1016.0088-.1758.0088c-.1816,0-.3135-.0645-.3955-.1934-.043-.0684-.0732-.165-.0908-.29-.1074.1406-.2617.2627-.4629.3662s-.4229.1553-.665.1553c-.291,0-.5288-.0884-.7134-.2646-.1846-.1768-.2769-.3975-.2769-.6631,0-.2905.0908-.5156.2725-.6758.1816-.1597.4199-.2583.7148-.2954l.8408-.1055Zm-1.1104,1.4248c.1113.0874.2432.1313.3955.1313.1855,0,.3652-.043.5391-.1289.293-.1421.4395-.375.4395-.6987v-.4243c-.0645.041-.147.0757-.2485.103s-.2007.0469-.2983.0586l-.3184.041c-.1914.0254-.335.0654-.4312.1196-.1631.0918-.2446.2378-.2446.4385,0,.1523.0557.272.167.3599Z"/><path class="r" d="m23.8682,63.6655c.0161.1758.0605.3105.1348.4043.1353.1699.3706.2549.7056.2549.1992,0,.3745-.0425.5264-.1274.1514-.085.2271-.2163.2271-.394,0-.1348-.0605-.2373-.1816-.3076-.0776-.043-.2305-.0928-.4585-.1494l-.4258-.1055c-.272-.0664-.4722-.1406-.6016-.2227-.23-.1426-.3452-.3398-.3452-.5918,0-.2969.1084-.5371.3252-.7207s.5083-.2754.8745-.2754c.479,0,.8242.1387,1.0361.416.1323.1758.1968.3652.1929.5684h-.498c-.0103-.1187-.0532-.2261-.1289-.3232-.124-.1382-.3389-.207-.645-.207-.2036,0-.3584.0381-.4634.1138-.105.0762-.1572.1763-.1572.3008,0,.1362.0688.2451.207.3271.0796.0483.1968.0913.3521.1284l.3555.085c.3857.0918.6445.1807.7759.2666.2051.1348.3076.3467.3076.6357,0,.2793-.1074.5205-.3218.7236-.2148.2031-.5415.3047-.9805.3047-.4727,0-.8071-.106-1.0039-.3179s-.3022-.4741-.3159-.7866h.5068Z"/><path class="r" d="m28.4927,61.5986c.208.1045.3662.2397.4746.4058.105.1582.1748.3428.21.5537.0308.1445.0464.375.0464.6914h-2.2822c.0098.3193.0845.5752.2236.7681.1396.1929.356.2896.6484.2896.2734,0,.4912-.0913.6538-.2739.0913-.1055.1558-.2285.1938-.3677h.5186c-.0137.1152-.0591.2437-.1362.3853s-.1631.2573-.2583.3472c-.1587.1562-.3555.2617-.5903.3164-.126.0312-.2681.0469-.4272.0469-.3882,0-.7173-.1421-.9868-.4263-.27-.2842-.4048-.6821-.4048-1.1938,0-.5039.1357-.9131.4077-1.2275.2715-.3145.627-.4717,1.0654-.4717.2217,0,.436.0522.6436.1567Zm.189,1.2319c-.0215-.2285-.0708-.4111-.1479-.5479-.1436-.2539-.3828-.3809-.7178-.3809-.2402,0-.4414.0874-.604.2622-.1631.1748-.249.397-.2588.6665h1.7285Z"/><path class="r" d="m11.5283,79.6655c.0161.1758.0605.3105.1348.4043.1353.1699.3706.2549.7056.2549.1992,0,.3745-.0425.5264-.1274.1514-.085.2271-.2163.2271-.394,0-.1348-.0605-.2373-.1816-.3076-.0776-.043-.2305-.0928-.4585-.1494l-.4258-.1055c-.272-.0664-.4722-.1406-.6016-.2227-.23-.1426-.3452-.3398-.3452-.5918,0-.2969.1084-.5371.3252-.7207s.5083-.2754.8745-.2754c.479,0,.8242.1387,1.0361.416.1323.1758.1968.3652.1929.5684h-.498c-.0103-.1187-.0532-.2261-.1289-.3232-.124-.1382-.3389-.207-.645-.207-.2036,0-.3584.0381-.4634.1138-.105.0762-.1572.1763-.1572.3008,0,.1362.0688.2451.207.3271.0796.0483.1968.0913.3521.1284l.3555.085c.3857.0918.6445.1807.7759.2666.2051.1348.3076.3467.3076.6357,0,.2793-.1074.5205-.3218.7236-.2148.2031-.5415.3047-.9805.3047-.4727,0-.8071-.106-1.0039-.3179s-.3022-.4741-.3159-.7866h.5068Z"/><path class="r" d="m14.1709,77.5269h.5156v.416c.106-.1426.2212-.2529.3467-.3311.1782-.1172.3877-.1758.6284-.1758.3564,0,.6592.1362.9077.4087s.373.6616.373,1.1675c0,.6836-.1797,1.1719-.5381,1.4648-.2275.1855-.4922.2783-.7944.2783-.2373,0-.436-.0518-.5967-.1553-.0942-.0586-.1992-.1592-.3149-.3018v1.6025h-.5273v-4.374Zm1.9839,2.4595c.1636-.2061.2456-.5142.2456-.9243,0-.25-.0361-.4648-.1089-.6445-.1372-.3457-.3877-.5186-.7524-.5186-.3667,0-.6172.1826-.7524.5479-.0728.1953-.1089.4434-.1089.7441,0,.2422.0361.4482.1089.6182.1372.3242.3877.4863.7524.4863.2471,0,.4521-.103.6157-.3091Z"/><path class="r" d="m19.4897,77.5986c.208.1045.3662.2397.4746.4058.105.1582.1748.3428.21.5537.0308.1445.0464.375.0464.6914h-2.2822c.0098.3193.0845.5752.2236.7681.1396.1929.356.2896.6484.2896.2734,0,.4912-.0913.6538-.2739.0913-.1055.1558-.2285.1938-.3677h.5186c-.0137.1152-.0591.2437-.1362.3853s-.1631.2573-.2583.3472c-.1587.1562-.3555.2617-.5903.3164-.126.0312-.2681.0469-.4272.0469-.3882,0-.7173-.1421-.9868-.4263-.27-.2842-.4048-.6821-.4048-1.1938,0-.5039.1357-.9131.4077-1.2275.2715-.3145.627-.4717,1.0654-.4717.2217,0,.436.0522.6436.1567Zm.189,1.2319c-.0215-.2285-.0708-.4111-.1479-.5479-.1436-.2539-.3828-.3809-.7178-.3809-.2402,0-.4414.0874-.604.2622-.1631.1748-.249.397-.2588.6665h1.7285Z"/><path class="r" d="m22.9614,77.6792c.2217.1719.355.4678.3999.8877h-.5127c-.0312-.1934-.1025-.354-.2139-.4819s-.29-.1919-.5361-.1919c-.3359,0-.5762.1641-.7207.4917-.0938.2124-.1406.4751-.1406.7871,0,.314.0664.5781.1992.793.1328.2144.3418.3218.627.3218.2188,0,.3921-.0664.52-.1997s.2163-.3159.2651-.5474h.5127c-.0586.416-.2051.7202-.4395.9126s-.5342.2886-.8994.2886c-.4101,0-.7373-.1499-.9814-.4497s-.3662-.6743-.3662-1.1235c0-.5508.1338-.9795.4014-1.2861s.6084-.46,1.0225-.46c.3535,0,.6411.0859.8628.2578Z"/><path class="r" d="m23.8887,76.3462h.5361v.5977h-.5361v-.5977Zm0,1.1807h.5361v3.123h-.5361v-3.123Z"/><path class="r" d="m26.9033,78.751c.1211-.0156.2021-.0664.2432-.1519.0234-.0474.0352-.1147.0352-.2031,0-.1802-.064-.311-.1914-.3926-.1279-.0815-.3105-.1221-.5483-.1221-.2749,0-.4697.0747-.585.2236-.064.0825-.106.2051-.1255.3682h-.4922c.0098-.3877.1353-.6577.376-.8096s.5205-.2275.8384-.2275c.3687,0,.668.0703.8984.2109.228.1406.3423.3594.3423.6562v1.8076c0,.0547.0112.0986.0337.1318s.0698.0498.1421.0498c.0234,0,.0498-.0015.0791-.0044s.0605-.0073.0938-.0132v.3896c-.082.0234-.1445.0381-.1875.0439s-.1016.0088-.1758.0088c-.1816,0-.3135-.0645-.3955-.1934-.043-.0684-.0732-.165-.0908-.29-.1074.1406-.2617.2627-.4629.3662s-.4229.1553-.665.1553c-.291,0-.5288-.0884-.7134-.2646-.1846-.1768-.2769-.3975-.2769-.6631,0-.2905.0908-.5156.2725-.6758.1816-.1597.4199-.2583.7148-.2954l.8408-.1055Zm-1.1104,1.4248c.1113.0874.2432.1313.3955.1313.1855,0,.3652-.043.5391-.1289.293-.1421.4395-.375.4395-.6987v-.4243c-.0645.041-.147.0757-.2485.103s-.2007.0469-.2983.0586l-.3184.041c-.1914.0254-.335.0654-.4312.1196-.1631.0918-.2446.2378-.2446.4385,0,.1523.0557.272.167.3599Z"/><path class="r" d="m28.5732,76.3462h.5273v4.3037h-.5273v-4.3037Z"/><path class="r" d="m8.2236,94.751c.1211-.0156.2021-.0664.2432-.1519.0234-.0474.0352-.1147.0352-.2031,0-.1802-.064-.311-.1914-.3926-.1279-.0815-.3105-.1221-.5483-.1221-.2749,0-.4697.0747-.585.2236-.064.0825-.106.2051-.1255.3682h-.4922c.0098-.3877.1353-.6577.376-.8096s.5205-.2275.8384-.2275c.3687,0,.668.0703.8984.2109.228.1406.3423.3594.3423.6562v1.8076c0,.0547.0112.0986.0337.1318s.0698.0498.1421.0498c.0234,0,.0498-.0015.0791-.0044s.0605-.0073.0938-.0132v.3896c-.082.0234-.1445.0381-.1875.0439s-.1016.0088-.1758.0088c-.1816,0-.3135-.0645-.3955-.1934-.043-.0684-.0732-.165-.0908-.29-.1074.1406-.2617.2627-.4629.3662s-.4229.1553-.665.1553c-.291,0-.5288-.0884-.7134-.2646-.1846-.1768-.2769-.3975-.2769-.6631,0-.2905.0908-.5156.2725-.6758.1816-.1597.4199-.2583.7148-.2954l.8408-.1055Zm-1.1104,1.4248c.1113.0874.2432.1313.3955.1313.1855,0,.3652-.043.5391-.1289.293-.1421.4395-.375.4395-.6987v-.4243c-.0645.041-.147.0757-.2485.103s-.2007.0469-.2983.0586l-.3184.041c-.1914.0254-.335.0654-.4312.1196-.1631.0918-.2446.2378-.2446.4385,0,.1523.0557.272.167.3599Z"/><path class="r" d="m9.8936,92.3462h.5273v4.3037h-.5273v-4.3037Z"/><path class="r" d="m11.3174,92.6362h.5332v.876h.501v.4307h-.501v2.0479c0,.1094.0371.1826.1113.2197.041.0215.1094.0322.2051.0322.0254,0,.0527-.0005.082-.002s.0635-.0044.1025-.0098v.4189c-.0605.0176-.1235.0303-.189.0381s-.1362.0117-.2124.0117c-.2461,0-.4131-.063-.501-.189s-.1318-.2896-.1318-.4907v-2.0771h-.4248v-.4307h.4248v-.876Z"/><path class="r" d="m14.8169,93.5986c.208.1045.3662.2397.4746.4058.105.1582.1748.3428.21.5537.0308.1445.0464.375.0464.6914h-2.2822c.0098.3193.0845.5752.2236.7681.1396.1929.356.2896.6484.2896.2734,0,.4912-.0913.6538-.2739.0913-.1055.1558-.2285.1938-.3677h.5186c-.0137.1152-.0591.2437-.1362.3853s-.1631.2573-.2583.3472c-.1587.1562-.3555.2617-.5903.3164-.126.0312-.2681.0469-.4272.0469-.3882,0-.7173-.1421-.9868-.4263-.27-.2842-.4048-.6821-.4048-1.1938,0-.5039.1357-.9131.4077-1.2275.2715-.3145.627-.4717,1.0654-.4717.2217,0,.436.0522.6436.1567Zm.189,1.2319c-.0215-.2285-.0708-.4111-.1479-.5479-.1436-.2539-.3828-.3809-.7178-.3809-.2402,0-.4414.0874-.604.2622-.1631.1748-.249.397-.2588.6665h1.7285Z"/><path class="r" d="m16.2305,93.5122h.501v.542c.041-.1055.1416-.2339.3018-.3853s.3447-.2271.5537-.2271c.0098,0,.0264.001.0498.0029s.0635.0059.1201.0117v.5566c-.0312-.0059-.0601-.0098-.0864-.0117s-.0552-.0029-.0864-.0029c-.2656,0-.4697.0854-.6123.2563s-.2139.3677-.2139.5903v1.8047h-.5273v-3.1377Z"/><path class="r" d="m18.2139,93.5122h.501v.4453c.1484-.1836.3057-.3154.4717-.3955s.3506-.1201.5537-.1201c.4453,0,.7461.1553.9023.4658.0859.1699.1289.4131.1289.7295v2.0127h-.5361v-1.9775c0-.1914-.0283-.3457-.085-.4629-.0938-.1953-.2637-.293-.5098-.293-.125,0-.2275.0127-.3076.0381-.1445.043-.2715.1289-.3809.2578-.0879.1035-.145.2104-.1714.3208s-.0396.2681-.0396.4731v1.6436h-.5273v-3.1377Z"/><path class="r" d="m23.2324,94.751c.1211-.0156.2021-.0664.2432-.1519.0234-.0474.0352-.1147.0352-.2031,0-.1802-.064-.311-.1914-.3926-.1279-.0815-.3105-.1221-.5483-.1221-.2749,0-.4697.0747-.585.2236-.064.0825-.106.2051-.1255.3682h-.4922c.0098-.3877.1353-.6577.376-.8096s.5205-.2275.8384-.2275c.3687,0,.668.0703.8984.2109.228.1406.3423.3594.3423.6562v1.8076c0,.0547.0112.0986.0337.1318s.0698.0498.1421.0498c.0234,0,.0498-.0015.0791-.0044s.0605-.0073.0938-.0132v.3896c-.082.0234-.1445.0381-.1875.0439s-.1016.0088-.1758.0088c-.1816,0-.3135-.0645-.3955-.1934-.043-.0684-.0732-.165-.0908-.29-.1074.1406-.2617.2627-.4629.3662s-.4229.1553-.665.1553c-.291,0-.5288-.0884-.7134-.2646-.1846-.1768-.2769-.3975-.2769-.6631,0-.2905.0908-.5156.2725-.6758.1816-.1597.4199-.2583.7148-.2954l.8408-.1055Zm-1.1104,1.4248c.1113.0874.2432.1313.3955.1313.1855,0,.3652-.043.5391-.1289.293-.1421.4395-.375.4395-.6987v-.4243c-.0645.041-.147.0757-.2485.103s-.2007.0469-.2983.0586l-.3184.041c-.1914.0254-.335.0654-.4312.1196-.1631.0918-.2446.2378-.2446.4385,0,.1523.0557.272.167.3599Z"/><path class="r" d="m24.9932,92.6362h.5332v.876h.501v.4307h-.501v2.0479c0,.1094.0371.1826.1113.2197.041.0215.1094.0322.2051.0322.0254,0,.0527-.0005.082-.002s.0635-.0044.1025-.0098v.4189c-.0605.0176-.1235.0303-.189.0381s-.1362.0117-.2124.0117c-.2461,0-.4131-.063-.501-.189s-.1318-.2896-.1318-.4907v-2.0771h-.4248v-.4307h.4248v-.876Z"/><path class="r" d="m28.4927,93.5986c.208.1045.3662.2397.4746.4058.105.1582.1748.3428.21.5537.0308.1445.0464.375.0464.6914h-2.2822c.0098.3193.0845.5752.2236.7681.1396.1929.356.2896.6484.2896.2734,0,.4912-.0913.6538-.2739.0913-.1055.1558-.2285.1938-.3677h.5186c-.0137.1152-.0591.2437-.1362.3853s-.1631.2573-.2583.3472c-.1587.1562-.3555.2617-.5903.3164-.126.0312-.2681.0469-.4272.0469-.3882,0-.7173-.1421-.9868-.4263-.27-.2842-.4048-.6821-.4048-1.1938,0-.5039.1357-.9131.4077-1.2275.2715-.3145.627-.4717,1.0654-.4717.2217,0,.436.0522.6436.1567Zm.189,1.2319c-.0215-.2285-.0708-.4111-.1479-.5479-.1436-.2539-.3828-.3809-.7178-.3809-.2402,0-.4414.0874-.604.2622-.1631.1748-.249.397-.2588.6665h1.7285Z"/><path class="r" d="m7.2275,108.3462h.5273v4.3032h-.5273v-4.3032Z"/><path class="r" d="m8.5459,108.3462h.5361v.5977h-.5361v-.5977Zm0,1.1807h.5361v3.1226h-.5361v-3.1226Z"/><path class="r" d="m11.623,109.6382c.0996.0684.2007.168.3037.2988v-.3955h.4863v2.853c0,.3984-.0586.7129-.1753.9434-.2178.4258-.6294.6387-1.2349.6387-.3369,0-.6201-.0752-.8496-.2266-.23-.1514-.3584-.3887-.3857-.7109h.5361c.0254.1406.0757.249.1514.3252.1187.1172.3052.1758.5596.1758.4023,0,.665-.1426.7896-.4277.0737-.168.1079-.4678.1021-.8994-.105.1602-.2314.2793-.3794.3574s-.3433.1172-.5864.1172c-.3389,0-.6348-.1201-.8887-.3613s-.3809-.6406-.3809-1.1973c0-.5249.1279-.9351.3838-1.23s.5645-.4424.9268-.4424c.2451,0,.459.0605.6416.1816Zm.0649.5654c-.1597-.1875-.3628-.2812-.6094-.2812-.3691,0-.6221.1738-.7578.5215-.0718.1855-.1079.4287-.1079.729,0,.3535.0713.623.2144.8076.1426.1846.3345.2764.5757.2764.377,0,.6421-.1709.7954-.5127.0854-.1934.1284-.4189.1284-.6768,0-.3882-.0796-.6763-.2388-.8638Z"/><path class="r" d="m14.8975,110.751c.1211-.0156.2022-.0664.2432-.1519.0234-.0474.0352-.1147.0352-.2031,0-.1802-.064-.311-.1914-.3926-.1279-.0815-.3105-.1221-.5483-.1221-.2749,0-.4697.0747-.585.2236-.064.0825-.106.2051-.1255.3682h-.4922c.0098-.3877.1353-.6577.376-.8096s.5205-.2275.8384-.2275c.3687,0,.668.0703.8984.2109.228.1406.3423.3594.3423.6562v1.8071c0,.0547.0112.0986.0337.1318s.0698.0498.1421.0498c.0234,0,.0498-.001.0791-.0039s.0605-.0078.0938-.0137v.3896c-.082.0234-.1445.0381-.1875.0439s-.1016.0088-.1758.0088c-.1816,0-.3135-.0645-.3955-.1934-.043-.0684-.0732-.165-.0908-.29-.1074.1406-.2617.2627-.4629.3662s-.4229.1553-.665.1553c-.291,0-.5288-.0879-.7134-.2646s-.2769-.3975-.2769-.6631c0-.29.0908-.5156.2725-.6758.1816-.1592.4199-.2578.7148-.2949l.8408-.1055Zm-1.1103,1.4248c.1113.0869.2432.1309.3955.1309.1855,0,.3652-.043.5391-.1289.293-.1416.4395-.375.4395-.6982v-.4248c-.0645.041-.147.0762-.2485.1035s-.2007.0469-.2983.0586l-.3184.041c-.1914.0254-.335.0654-.4312.1191-.1631.0918-.2446.2383-.2446.4385,0,.1523.0557.2725.167.3604Z"/><path class="r" d="m16.6582,108.6362h.5332v.876h.501v.4307h-.501v2.0474c0,.1094.0371.1826.1113.2197.041.0215.1094.0322.2051.0322.0254,0,.0527,0,.082-.002.0293-.001.0635-.0039.1025-.0098v.4189c-.0605.0176-.1235.0303-.189.0381s-.1362.0117-.2124.0117c-.2461,0-.4131-.0625-.501-.1885s-.1318-.29-.1318-.4912v-2.0767h-.4248v-.4307h.4248v-.876Z"/><path class="r" d="m18.7471,109.5122v2.0825c0,.1602.0249.291.0742.3926.0913.1875.2617.2812.5107.2812.3574,0,.6011-.1641.7305-.4922.0703-.1758.1055-.417.1055-.7236v-1.5405h.5273v3.1372h-.498l.0059-.4629c-.0674.1191-.1504.2197-.25.3018-.1978.1641-.437.2461-.7188.2461-.439,0-.7378-.1494-.897-.4482-.0864-.1602-.1294-.374-.1294-.6416v-2.1323h.5391Z"/><path class="r" d="m21.5713,109.5122h.501v.542c.041-.1055.1416-.2339.3018-.3853s.3447-.2271.5537-.2271c.0098,0,.0264.001.0498.0029s.0635.0059.1201.0117v.5566c-.0312-.0059-.0601-.0098-.0864-.0117s-.0552-.0029-.0864-.0029c-.2656,0-.4697.0854-.6123.2563s-.2139.3677-.2139.5903v1.8042h-.5273v-3.1372Z"/><path class="r" d="m25.4927,109.5986c.208.1045.3662.2397.4746.4058.105.1582.1748.3428.21.5537.0308.1445.0464.375.0464.6909h-2.2822c.0098.3193.0845.5752.2236.7686.1396.1924.356.2891.6484.2891.2734,0,.4912-.0908.6538-.2734.0913-.1055.1558-.2285.1938-.3682h.5186c-.0137.1152-.0591.2441-.1362.3857s-.1631.2568-.2583.3467c-.1587.1562-.3555.2617-.5903.3164-.126.0312-.2681.0469-.4272.0469-.3882,0-.7173-.1416-.9868-.4258-.27-.2842-.4048-.6826-.4048-1.1943,0-.5034.1357-.9126.4077-1.2271.2715-.3145.627-.4717,1.0654-.4717.2217,0,.436.0522.6436.1567Zm.189,1.2319c-.0215-.2285-.0708-.4111-.1479-.5479-.1436-.2539-.3828-.3809-.7178-.3809-.2402,0-.4414.0874-.604.2622-.1631.1748-.249.397-.2588.6665h1.7285Z"/><path class="r" d="m27.2051,111.665c.0161.1758.0605.3105.1348.4043.1353.1699.3706.2549.7056.2549.1992,0,.3745-.042.5264-.127.1514-.085.2271-.2168.2271-.3945,0-.1348-.0605-.2373-.1816-.3076-.0776-.043-.2305-.0928-.4585-.1494l-.4258-.1055c-.272-.0664-.4722-.1406-.6016-.2227-.23-.1421-.3452-.3394-.3452-.5913,0-.2969.1084-.5371.3252-.7207s.5083-.2754.8745-.2754c.479,0,.8242.1387,1.0361.416.1323.1758.1968.3652.1929.5684h-.498c-.0103-.1187-.0532-.2261-.1289-.3232-.124-.1382-.3389-.207-.645-.207-.2036,0-.3584.0381-.4634.1138-.105.0762-.1572.1763-.1572.3008,0,.1362.0688.2451.207.3271.0796.0483.1968.0913.3521.1284l.3555.085c.3857.0918.6445.1802.7759.2661.2051.1348.3076.3467.3076.6357,0,.2793-.1074.5205-.3218.7236-.2148.2031-.5415.3047-.9805.3047-.4727,0-.8071-.1055-1.0039-.3174s-.3022-.4746-.3159-.7871h.5068Z"/><path class="r" d="m0,29.5127h.501v.4453c.1484-.1836.3057-.3154.4717-.3955s.3506-.1201.5537-.1201c.4453,0,.7461.1553.9023.4658.0859.1699.1289.4131.1289.7295v2.0127h-.5361v-1.9775c0-.1914-.0283-.3457-.085-.4629-.0938-.1953-.2637-.293-.5098-.293-.125,0-.2275.0127-.3076.0381-.1445.043-.2715.1289-.3809.2578-.0879.1035-.145.2104-.1714.3208s-.0396.2681-.0396.4731v1.6436h-.5273v-3.1377Z"/><path class="r" d="m3.8643,29.5127v2.083c0,.1602.0249.291.0742.3926.0913.1875.2617.2812.5107.2812.3574,0,.6011-.1641.7305-.4922.0703-.1758.1055-.417.1055-.7236v-1.541h.5273v3.1377h-.498l.0059-.4629c-.0674.1191-.1504.2197-.25.3018-.1978.1641-.437.2461-.7188.2461-.439,0-.7378-.1494-.897-.4482-.0864-.1602-.1294-.374-.1294-.6416v-2.1328h.5391Z"/><path class="r" d="m6.6738,29.5127h.5215v.4453c.125-.1543.2383-.2666.3398-.3369.1738-.1191.3711-.1787.5918-.1787.25,0,.4512.0615.6035.1846.0859.0703.1641.1738.2344.3105.1172-.168.2549-.2925.4131-.3735s.3359-.1216.5332-.1216c.4219,0,.709.1523.8613.457.082.1641.123.3848.123.6621v2.0889h-.5479v-2.1797c0-.209-.0522-.3525-.1567-.4307s-.2319-.1172-.3823-.1172c-.207,0-.3853.0693-.5347.208s-.2241.3701-.2241.6943v1.8252h-.5361v-2.0479c0-.2129-.0254-.3682-.0762-.4658-.0801-.1465-.2295-.2197-.4482-.2197-.1992,0-.3804.0771-.5435.2314s-.2446.4336-.2446.8379v1.6641h-.5273v-3.1377Z"/><path class="r" d="m11.6279,28.332h.5127v1.5615c.1157-.1504.2539-.2651.4146-.3442.1611-.0791.3354-.1187.5239-.1187.3921,0,.71.1343.9541.4028s.3662.6646.3662,1.188c0,.4961-.1206.9082-.3618,1.2363s-.5752.4922-1.0029.4922c-.2393,0-.4409-.0576-.606-.1729-.0977-.0684-.2026-.1777-.3145-.3281v.4014h-.4863v-4.3184Zm2.0166,3.6123c.1416-.2266.2129-.5254.2129-.8965,0-.3301-.0713-.6035-.2129-.8203-.1426-.2168-.3516-.3252-.6279-.3252-.2412,0-.4521.0889-.6333.2666s-.272.4707-.272.8789c0,.2949.0371.5342.1118.7178.1392.3457.3984.5186.7788.5186.2861,0,.5-.1133.6426-.3398Z"/><path class="r" d="m16.9468,29.5991c.208.1045.3662.2397.4746.4058.105.1582.1748.3428.21.5537.0308.1445.0464.375.0464.6914h-2.2822c.0098.3193.0845.5752.2236.7681.1396.1929.356.2896.6484.2896.2734,0,.4912-.0913.6538-.2739.0913-.1055.1558-.2285.1938-.3677h.5186c-.0137.1152-.0591.2437-.1362.3853s-.1631.2573-.2583.3472c-.1587.1562-.3555.2617-.5903.3164-.126.0312-.2681.0469-.4272.0469-.3882,0-.7173-.1421-.9868-.4263-.27-.2842-.4048-.6821-.4048-1.1938,0-.5039.1357-.9131.4077-1.2275.2715-.3145.627-.4717,1.0654-.4717.2217,0,.436.0522.6436.1567Zm.189,1.2319c-.0215-.2285-.0708-.4111-.1479-.5479-.1436-.2539-.3828-.3809-.7178-.3809-.2402,0-.4414.0874-.604.2622-.1631.1748-.249.397-.2588.6665h1.7285Z"/><path class="r" d="m18.3604,29.5127h.501v.542c.041-.1055.1416-.2339.3018-.3853s.3447-.2271.5537-.2271c.0098,0,.0264.001.0498.0029s.0635.0059.1201.0117v.5566c-.0312-.0059-.0601-.0098-.0864-.0117s-.0552-.0029-.0864-.0029c-.2656,0-.4697.0854-.6123.2563s-.2139.3677-.2139.5903v1.8047h-.5273v-3.1377Z"/><path class="r" d="m20.6572,31.666c.0161.1758.0605.3105.1348.4043.1353.1699.3706.2549.7056.2549.1992,0,.3745-.0425.5264-.1274.1514-.085.2271-.2163.2271-.394,0-.1348-.0605-.2373-.1816-.3076-.0776-.043-.2305-.0928-.4585-.1494l-.4258-.1055c-.272-.0664-.4722-.1406-.6016-.2227-.23-.1426-.3452-.3398-.3452-.5918,0-.2969.1084-.5371.3252-.7207s.5083-.2754.8745-.2754c.479,0,.8242.1387,1.0361.416.1323.1758.1968.3652.1929.5684h-.498c-.0103-.1187-.0532-.2261-.1289-.3232-.124-.1382-.3389-.207-.645-.207-.2036,0-.3584.0381-.4634.1138-.105.0762-.1572.1763-.1572.3008,0,.1362.0688.2451.207.3271.0796.0483.1968.0913.3521.1284l.3555.085c.3857.0918.6445.1807.7759.2666.2051.1348.3076.3467.3076.6357,0,.2793-.1074.5205-.3218.7236-.2148.2031-.5415.3047-.9805.3047-.4727,0-.8071-.106-1.0039-.3179s-.3022-.4741-.3159-.7866h.5068Z"/><rect class="u" x="405.8338" y="71" width="8" height="14"/><rect class="u" x="415.8338" y="71" width="8" height="14"/><rect class="u" x="425.8338" y="71" width="8" height="14"/><path class="r" d="m15.0664,128.6562c-.3086,0-.5796-.0684-.813-.2061-.2339-.1377-.415-.3301-.5444-.5791-.1294-.248-.1938-.5322-.1938-.8535s.0654-.6045.1968-.8506c.1318-.2461.3164-.4365.5537-.5723.2378-.1357.5112-.2031.8198-.2031.3755,0,.6851.0996.9287.2998.2441.2002.3975.4756.46.8262h-.519c-.0503-.2051-.1543-.3672-.313-.4883-.1582-.1211-.3501-.1816-.5757-.1816-.3042,0-.5513.1084-.7412.3252s-.2847.499-.2847.8447c0,.3506.0947.6348.2847.8535.1899.2197.437.3291.7412.3291.2339,0,.4297-.0605.5884-.1816.1582-.1211.2607-.2881.3066-.501h.5127c-.0664.3555-.2231.6338-.4692.8359s-.5586.3027-.9385.3027Z"/><path class="r" d="m18.1543,128.0312l.9512-2.6025h.5439l-1.4697,3.7285c-.0752.1914-.1421.3359-.2002.4316-.0586.0957-.1318.167-.2192.2129s-.2041.0684-.3501.0684h-.6133v-.4688h.4565c.1001,0,.1753-.0107.2256-.0312.0498-.0215.0903-.0557.1216-.1035s.0698-.1279.1157-.2412l.1631-.3809-1.2515-3.2158h.5444l.9819,2.6025Z"/><path class="r" d="m21.6553,125.9297h-.2563c-.3047,0-.5225.1016-.6538.3057-.1313.2051-.1973.457-.1973.7568v1.627h-.5127v-3.1904h.4438l.0688.4814c.0918-.1455.2104-.2627.3564-.3496.146-.0879.3486-.1318.6069-.1318h.144v.501Z"/><path class="r" d="m22.7148,124.5283c0,.0957-.0312.1748-.0938.2373s-.1421.0938-.2378.0938c-.0962,0-.1753-.0312-.2378-.0938s-.0938-.1416-.0938-.2373c0-.0967.0312-.1758.0938-.2383s.1416-.0938.2378-.0938c.0957,0,.1753.0312.2378.0938s.0938.1416.0938.2383Zm-.0752.9004v3.1904h-.5127v-3.1904h.5127Z"/><path class="r" d="m23.8545,124.2402v4.3789h-.5127v-4.3789h.5127Z"/><path class="r" d="m25.0698,124.2402v4.3789h-.5132v-4.3789h.5132Z"/><path class="r" d="m26.3599,124.5283c0,.0957-.0312.1748-.0938.2373s-.1421.0938-.2378.0938c-.0962,0-.1753-.0312-.2378-.0938s-.0938-.1416-.0938-.2373c0-.0967.0312-.1758.0938-.2383s.1416-.0938.2378-.0938c.0957,0,.1753.0312.2378.0938s.0938.1416.0938.2383Zm-.0752.9004v3.1904h-.5132v-3.1904h.5132Z"/><path class="r" d="m28.4253,128.6562c-.3086,0-.5796-.0684-.813-.2061-.2339-.1377-.415-.3301-.5444-.5791-.1294-.248-.1938-.5322-.1938-.8535s.0654-.6045.1968-.8506c.1318-.2461.3159-.4365.5537-.5723s.5112-.2031.8198-.2031c.3755,0,.6851.0996.9287.2998.2441.2002.3975.4756.46.8262h-.519c-.0503-.2051-.1543-.3672-.313-.4883-.1582-.1211-.3501-.1816-.5757-.1816-.3042,0-.5513.1084-.7412.3252s-.2847.499-.2847.8447c0,.3506.0947.6348.2847.8535.1899.2197.437.3291.7412.3291.2339,0,.4297-.0605.5884-.1816.1582-.1211.2607-.2881.3066-.501h.5127c-.0664.3555-.2231.6338-.4692.8359s-.5586.3027-.9385.3027Z"/><path class="r" d="m17.4937,159.4869c0,.9541-.5225,1.4316-1.5674,1.4316-.4087,0-.7422-.0928-1.0005-.2793-.2578-.1855-.4077-.4502-.4492-.793h.5205c.0415.1982.1465.3516.3159.459s.3862.1611.6504.1611c.6816,0,1.0225-.333,1.0225-.998v-.3711c-.2271.3877-.5884.582-1.084.582-.2935,0-.5547-.0635-.7837-.1924-.2295-.1279-.4092-.3135-.5391-.5576-.1304-.2432-.1953-.5322-.1953-.8672,0-.3174.0649-.5986.1953-.8418.1299-.2441.3105-.4336.542-.5703s.4912-.2041.7808-.2041c.2559,0,.4746.0498.6562.1514.1821.1016.3242.2451.4277.4307l.0679-.5449h.4399v3.0039Zm-.6318-.8145c.0869-.1758.1304-.375.1304-.5977,0-.2275-.0435-.4307-.1304-.6104-.0864-.1797-.2095-.3193-.3687-.418-.1587-.0996-.3394-.1484-.542-.1484-.314,0-.5669.1084-.7588.3252s-.2881.4961-.2881.8389.0962.623.2881.8398.4448.3252.7588.3252c.2026,0,.3833-.0488.542-.1455.1592-.0967.2822-.2334.3687-.4092Z"/><path class="r" d="m19.7954,156.9782h-.2544c-.3013,0-.5171.1016-.647.3037-.1304.2021-.1953.4521-.1953.75v1.6104h-.5083v-3.1592h.4399l.0684.4766c.0908-.1445.2085-.2598.353-.3467s.3447-.1299.6011-.1299h.1426v.4951Z"/><path class="r" d="m20.6895,156.6471c.2271-.1348.4873-.2012.7803-.2012.2896,0,.5454.0596.7686.1797.2227.1191.3984.293.5264.5195.1279.2275.1963.4941.2046.7998,0,.0449-.0044.1172-.0122.2168h-2.4536v.043c.0083.3096.1035.5576.2852.7432.1816.1865.4189.2793.7124.2793.2271,0,.4204-.0566.5791-.1699.1592-.1143.2656-.2725.3193-.4746h.5142c-.062.3223-.2168.5859-.4648.79-.2476.2041-.5513.3066-.9106.3066-.314,0-.5884-.0674-.8237-.2012-.2358-.1348-.4185-.3242-.5483-.5703-.1304-.2451-.1953-.5273-.1953-.8457,0-.3223.063-.6045.189-.8486.126-.2432.3027-.4326.5298-.5664Zm1.4526.4678c-.1753-.1494-.3975-.2236-.666-.2236-.2393,0-.4502.0791-.6318.2354-.1816.1572-.2852.3613-.3096.6133h1.9077c-.0244-.2676-.1245-.4766-.3003-.625Z"/><path class="r" d="m24.1616,156.6471c.2271-.1348.4873-.2012.7808-.2012.2891,0,.5449.0596.7681.1797.2231.1191.3984.293.5264.5195.1279.2275.1963.4941.2046.7998,0,.0449-.0044.1172-.0127.2168h-2.4531v.043c.0083.3096.1035.5576.2852.7432.1816.1865.4189.2793.7124.2793.2271,0,.4204-.0566.5791-.1699.1592-.1143.2656-.2725.3193-.4746h.5142c-.062.3223-.2168.5859-.4648.79-.2476.2041-.5513.3066-.9106.3066-.314,0-.5884-.0674-.8237-.2012-.2354-.1348-.4185-.3242-.5483-.5703-.1304-.2451-.1953-.5273-.1953-.8457,0-.3223.063-.6045.189-.8486.126-.2432.3027-.4326.5298-.5664Zm1.4526.4678c-.1753-.1494-.3975-.2236-.666-.2236-.2393,0-.4502.0791-.6318.2354-.1816.1572-.2852.3613-.3096.6133h1.9077c-.0244-.2676-.1245-.4766-.3003-.625Z"/><path class="r" d="m27.5347,155.3053v2.875l1.6045-1.6973h.6069l-1.2139,1.2949,1.3008,1.8643h-.6133l-1.0532-1.499-.6318.6631v.8359h-.5083v-4.3369h.5083Z"/><text class="v" transform="translate(60.9554 192.6504)"><tspan x="0" y="0">Hebrew</tspan></text><text class="v" transform="translate(66.1849 160.65)"><tspan x="0" y="0">Greek</tspan></text><text class="v" transform="translate(64.7201 128.4788)"><tspan x="0" y="0">Cyrillic</tspan></text><text class="v" transform="translate(57.1527 112.7552)"><tspan x="0" y="0">Ligatures</tspan></text><text class="v" transform="translate(56.7865 32.7708)"><tspan x="0" y="0">Numbers</tspan></text><text class="v" transform="translate(52.9163 48.6498)"><tspan x="0" y="0">Uppercase</tspan></text><text class="v" transform="translate(53.2415 64.6498)"><tspan x="0" y="0">Lowercase</tspan></text><text class="v" transform="translate(63.3226 80.3071)"><tspan x="0" y="0">Special</tspan></text><text class="v" transform="translate(57.0999 96.7612)"><tspan x="0" y="0">Alternate</tspan></text><rect class="u" x="215.8338" y="183" width="8" height="14"/><rect class="u" x="225.8338" y="183" width="8" height="14"/><rect class="u" x="235.8338" y="183" width="8" height="14"/><rect class="u" x="245.8338" y="183" width="8" height="14"/></g><g id="c"><polyline class="t" points="197.8338 40.65 197.8338 48.65 201.8338 48.65"/><line class="t" x1="169.8338" y1="40.65" x2="169.8338" y2="48.65"/><line class="t" x1="169.8338" y1="152.65" x2="169.8338" y2="160.65"/><path class="t" d="m181.8338,40.65v6c0,1.1046-.8954,2-2,2h0c-1.1046,0-2-.8954-2-2v-.6642"/><line class="t" x1="198.6338" y1="96.65" x2="201.0338" y2="96.65"/><line class="t" x1="198.6338" y1="88.65" x2="201.0338" y2="88.65"/><line class="t" x1="199.8338" y1="88.65" x2="199.8338" y2="96.65"/><path class="t" d="m207.8338,88.65h4v6c0,1.1046-.8954,2-2,2h0c-1.1046,0-2-.8954-2-2v-.6642"/><polyline class="t" points="97.8338 25.739 99.8338 24.65 99.8338 32.65"/><line class="t" x1="97.8338" y1="96.65" x2="101.8338" y2="96.65"/><line class="t" x1="97.8338" y1="89.739" x2="99.8338" y2="88.65"/><line class="t" x1="99.8338" y1="88.65" x2="99.8338" y2="96.65"/><polyline class="t" points="205.8338 48.6412 205.8338 40.65 209.8338 48.65 213.8338 40.6622 213.8338 48.65"/><polyline class="t" points="195.8338 160.6412 195.8338 152.65 199.8338 160.65 203.8338 152.6622 203.8338 160.65"/><line class="t" x1="317.1838" y1="40.65" x2="322.4838" y2="48.65"/><line class="t" x1="322.4838" y1="40.65" x2="317.1838" y2="48.65"/><line class="t" x1="297.1838" y1="120.65" x2="302.4838" y2="128.65"/><line class="t" x1="302.4838" y1="120.65" x2="297.1838" y2="128.65"/><line class="t" x1="307.1838" y1="152.65" x2="312.4838" y2="160.65"/><line class="t" x1="312.4838" y1="152.65" x2="307.1838" y2="160.65"/><path class="t" d="m309.8338,175.35l2.3119,3.4896c.2112.3187.568.5104.9503.5104h0"/><path class="t" d="m309.8338,175.35l-2.3119-3.4896c-.2112-.3187-.568-.5104-.9503-.5104h0"/><line class="t" x1="312.4838" y1="171.35" x2="307.1838" y2="179.35"/><path class="t" d="m237.1838,48.65v-8h2.619c1.4807,0,2.681,1.2029,2.681,2.6867s-1.2003,2.6867-2.681,2.6867h-2.619"/><path class="t" d="m247.1838,128.65v-8h2.619c1.4807,0,2.681,1.2029,2.681,2.6867s-1.2003,2.6867-2.681,2.6867h-2.619"/><path class="t" d="m247.1838,160.65v-8h2.619c1.4807,0,2.681,1.2029,2.681,2.6867s-1.2003,2.6867-2.681,2.6867h-2.619"/><path class="t" d="m257.1838,48.65v-8h2.619c1.4807,0,2.681,1.2029,2.681,2.6867s-1.2003,2.6867-2.681,2.6867h-2.619"/><line class="t" x1="259.8028" y1="46.0235" x2="262.4217" y2="48.648"/><line class="t" x1="277.1838" y1="40.65" x2="282.4838" y2="40.65"/><line class="t" x1="279.8338" y1="48.65" x2="279.8338" y2="40.65"/><line class="t" x1="267.1838" y1="120.65" x2="272.4838" y2="120.65"/><line class="t" x1="269.8338" y1="128.65" x2="269.8338" y2="120.65"/><line class="t" x1="277.1838" y1="152.65" x2="282.4838" y2="152.65"/><line class="t" x1="279.8338" y1="160.65" x2="279.8338" y2="152.65"/><polyline class="t" points="217.2043 48.65 217.2043 40.65 222.5043 48.65 222.5043 40.65"/><polyline class="t" points="207.1838 160.65 207.1838 152.65 212.4838 160.65 212.4838 152.65"/><line class="t" x1="157.1812" y1="40.65" x2="157.1812" y2="48.65"/><line class="t" x1="162.4812" y1="40.65" x2="162.4812" y2="48.65"/><line class="t" x1="157.1812" y1="44.6349" x2="162.4812" y2="44.6349"/><polyline class="t" points="302.4838 40.65 299.8338 48.65 297.1838 40.65"/><polyline class="t" points="301.8338 59.35 299.8338 64.65 297.8338 59.35"/><polyline class="t" points="313.1338 59.35 311.4838 64.65 309.8338 59.35 308.1838 64.65 306.5338 59.35"/><polyline class="t" points="313.8338 40.65 311.8338 48.65 309.8338 40.65 307.8338 48.65 305.8338 40.65"/><path class="t" d="m151.8338,59.35v6c0,1.1046-.8954,2-2,2h0c-.5523,0-1.0523-.2238-1.4142-.5858"/><rect class="t" x="147.8338" y="59.35" width="4" height="5.3" rx="2" ry="2" transform="translate(299.6676 124) rotate(180)"/><path class="t" d="m331.8338,62.65v2.7c0,1.1046-.8954,2-2,2h0c-.5523,0-1.0523-.2238-1.4142-.5858"/><path class="t" d="m331.8338,59.35v3.3c0,1.1046-.8954,2-2,2h0c-1.1046,0-2-.8954-2-2v-3.3"/><line class="t" x1="321.8338" y1="59.35" x2="317.8338" y2="64.65"/><line class="t" x1="321.8338" y1="64.65" x2="317.8338" y2="59.35"/><rect class="t" x="227.8338" y="59.35" width="4" height="5.3" rx="2" ry="2"/><path class="t" d="m287.8338,59.35v3.3c0,1.1046.8954,2,2,2h0c1.1046,0,2-.8954,2-2v-3.3"/><line class="t" x1="291.8338" y1="62.65" x2="291.8338" y2="64.65"/><path class="t" d="m287.8338,171.35v3.3c0,1.1046.8954,2,2,2h0c1.1046,0,2-.8954,2-2v-3.3"/><path class="t" d="m205.8338,61.35c0-1.1046.8954-2,2-2h0c1.1046,0,2,.8954,2,2v3.3"/><line class="t" x1="205.8338" y1="59.35" x2="205.8338" y2="64.65"/><path class="t" d="m209.8338,61.35c0-1.1046.8954-2,2-2h0c1.1046,0,2,.8954,2,2v3.3"/><line class="t" x1="157.8338" y1="56.65" x2="157.8338" y2="64.65"/><path class="t" d="m157.8338,61.35c0-1.1046.8954-2,2-2h0c1.1046,0,2,.8954,2,2v3.3"/><path class="t" d="m258.8338,61.35c0-1.1046.8954-2,2-2h0"/><line class="t" x1="258.8338" y1="59.35" x2="258.8338" y2="64.65"/><polyline class="t" points="332.4838 40.65 329.8338 44.65 327.1838 40.65"/><line class="t" x1="329.8338" y1="48.65" x2="329.8338" y2="44.65"/><polyline class="t" points="292.4838 152.65 289.8338 156.65 287.1838 152.65"/><line class="t" x1="289.8338" y1="160.65" x2="289.8338" y2="156.65"/><polyline class="t" points="111.8338 171.35 109.8338 176.35 107.8338 171.35"/><line class="t" x1="109.8338" y1="179.35" x2="109.8338" y2="176.35"/><polyline class="t" points="337.1838 40.65 342.4838 40.65 337.1838 48.65 342.4838 48.65"/><polyline class="t" points="137.1838 152.65 142.4838 152.65 137.1838 160.65 142.4838 160.65"/><polyline class="t" points="407.1838 40.65 412.4838 40.65 407.1838 48.65 412.4838 48.65"/><polyline class="t" points="377.1839 40.65 382.4839 40.65 377.1839 48.65 382.4839 48.65"/><polyline class="t" points="337.8338 59.35 341.8338 59.35 337.8338 64.65 341.8338 64.65"/><line class="t" x1="187.8338" y1="56.65" x2="187.8338" y2="64.65"/><line class="t" x1="187.8346" y1="62.9506" x2="191.4557" y2="59.3471"/><line class="t" x1="188.9871" y1="61.8038" x2="191.8338" y2="64.638"/><circle class="s" cx="169.8338" cy="56.9" r=".7"/><line class="t" x1="169.8338" y1="59.35" x2="169.8338" y2="64.65"/><path class="t" d="m267.3422,47.7735c.4906.6387,1.1057.8765,1.9615.8765h1.1844c1.1022,0,1.9957-.8935,1.9957-1.9957v-.0086c0-1.1022-.8935-1.9957-1.9957-1.9957h-1.3065c-1.1034,0-1.9978-.8945-1.9978-1.9978h0c0-1.1058.8964-2.0022,2.0022-2.0022h1.1779c.8558,0,1.4709.2379,1.9615.8765"/><path class="t" d="m268.1889,64.2028c.3652.3066.7594.4472,1.6449.4472h.4487c.7302,0,1.3221-.5932,1.3221-1.325h0c0-.7318-.5919-1.325-1.3221-1.325h-.8974c-.7302,0-1.3221-.5932-1.3221-1.325h0c0-.7318.5919-1.325,1.3221-1.325h.4487c.8854,0,1.2797.1405,1.6449.4472"/><polyline class="t" points="131.3111 32.65 131.3107 24.65 127.0172 30.0236 132.3172 30.0236"/><polyline class="t" points="158.179 32.65 162.4838 24.65 157.1838 24.65"/><path class="t" d="m90.3303,112.65v-6.6c0-.7732.6268-1.4,1.4-1.4h0c.689,0,1.1192.204,1.4142.5858"/><line class="t" x1="86.5232" y1="107.35" x2="92.0374" y2="107.35"/><path class="t" d="m87.5732,112.65v-6.6c0-.7732.6268-1.4,1.4-1.4h0c.1653,0,.3157.0117.4529.0349"/><path class="t" d="m129.5053,96.65v-7.2c0-.4418.3582-.8.8-.8h.9071"/><line class="t" x1="128.4553" y1="91.35" x2="131.2124" y2="91.35"/><path class="t" d="m181.1499,59.35v6c0,1.1046-.887,2-1.9812,2h0c-.5471,0-1.0424-.2239-1.4009-.5858"/><circle class="s" cx="181.1499" cy="56.95" r=".75"/><line class="t" x1="139.8338" y1="91.35" x2="139.8338" y2="99.35"/><circle class="s" cx="139.8338" cy="89.7" r=".75"/><line class="t" x1="149.8338" y1="88.65" x2="149.8338" y2="96.65"/><path class="t" d="m199.1838,56.65v7c0,.5523.4477,1,1,1h.3"/><path class="t" d="m279.8338,57.7v5.95c0,.5523.4477,1,1,1h.3"/><line class="t" x1="278.7838" y1="59.35" x2="280.8838" y2="59.35"/><path class="t" d="m148.1338,105.7v5.95c0,.5523.4477,1,1,1h.3"/><path class="t" d="m151.2838,105.7v5.95c0,.5523.4477,1,1,1h.3"/><line class="t" x1="147.0838" y1="107.35" x2="152.3338" y2="107.35"/><path class="t" d="m111.7021,63.6427c-.3448.6019-.9934,1.0073-1.7367,1.0073h0c-1.1046,0-2-.8954-2-2v-1.3c0-1.1046.8954-2,2-2h0c.7419,0,1.3894.4039,1.7347,1.0039"/><path class="t" d="m171.4338,94.65c0,1.1046-.8954,2-2,2h0c-1.1046,0-2-.8954-2-2v-3.3"/><path class="t" d="m172.2338,96.65c-.4418,0-.8-.3582-.8-.8v-4.5"/><path class="t" d="m111.4338,94.65c0,1.1046-.8954,2-2,2h0c-1.1046,0-2-.8954-2-2v-1.3c0-1.1046.8954-2,2-2h0c1.1046,0,2,.8954,2,2"/><path class="t" d="m112.2338,96.65c-.4418,0-.8-.3582-.8-.8v-4.5"/><path class="t" d="m91.4338,174.65c0,1.1046-.8954,2-2,2h0c-1.1046,0-2-.8954-2-2v-1.3c0-1.1046.8954-2,2-2h0c1.1046,0,2,.8954,2,2"/><path class="t" d="m92.2338,176.65c-.4418,0-.8-.3582-.8-.8v-4.5"/><path class="t" d="m91.8338,62.65c0,1.1046-.8954,2-2,2h0c-1.1046,0-2-.8954-2-2v-1.3c0-1.1046.8954-2,2-2h0c1.1046,0,2,.8954,2,2"/><line class="t" x1="91.8338" y1="64.65" x2="91.8338" y2="59.35"/><path class="t" d="m163.5723,111.6407c-.3445.6029-.9937,1.0093-1.7378,1.0093h0c-1.1046,0-2-.8954-2-2v-1.3c0-1.1046.8954-2,2-2h0c1.1046,0,2,.8954,2,2v.65s-4,0-4,0"/><path class="t" d="m159.8331,110.65c0,1.1046-.8954,2-2,2h0c-1.1046,0-2-.8954-2-2v-1.3c0-1.1046.8954-2,2-2h0c1.1046,0,2,.8954,2,2"/><line class="t" x1="159.8331" y1="110.65" x2="159.8331" y2="107.35"/><line class="t" x1="179.9642" y1="96.65" x2="177.8338" y2="91.35"/><path class="t" d="m181.8338,91.35l-2.5396,7.1992c-.1693.4799-.6228.8008-1.1317.8008h-.3287"/><path class="t" d="m222.0915,64.65v-3.3c0-1.1046-.8954-2-2-2h0c-1.1046,0-2,.8954-2,2"/><line class="t" x1="218.0915" y1="64.65" x2="218.0915" y2="59.35"/><path class="t" d="m112.4838,45.9673v.0328c0,1.4636-1.1864,2.65-2.65,2.65h0c-1.4636,0-2.65-1.1864-2.65-2.65v-2.7c0-1.4636,1.1864-2.65,2.65-2.65h0c1.4636,0,2.65,1.1864,2.65,2.65v.0328"/><path class="t" d="m262.4875,125.9778v.0328c0,1.4636-1.1864,2.65-2.65,2.65h0c-1.4636,0-2.65-1.1864-2.65-2.65v-2.7c0-1.4636,1.1864-2.65,2.65-2.65h0c1.4636,0,2.65,1.1864,2.65,2.65v.0328"/><path class="t" d="m287.1838,40.65v5.35c0,1.4636,1.1864,2.65,2.65,2.65s2.65-1.1864,2.65-2.65v-5.35"/><line class="t" x1="127.8338" y1="44.65" x2="130.4418" y2="44.65"/><polyline class="t" points="131.8338 48.65 127.8338 48.65 127.8338 40.65 131.8338 40.65"/><line class="t" x1="127.8338" y1="156.65" x2="130.4418" y2="156.65"/><polyline class="t" points="131.8338 160.65 127.8338 160.65 127.8338 152.65 131.8338 152.65"/><path class="t" d="m117.1838,48.65v-8h1.8c1.933,0,3.5,1.567,3.5,3.5v1c0,1.933-1.567,3.5-3.5,3.5h-1.8Z"/><line class="t" x1="137.8338" y1="44.65" x2="140.4338" y2="44.65"/><polyline class="t" points="137.8338 48.65 137.8338 40.65 141.8338 40.65"/><circle class="t" cx="379.8338" cy="57.2" r=".9"/><path class="t" d="m131.5716,63.6407c-.3445.6029-.9937,1.0093-1.7378,1.0093h0c-1.1046,0-2-.8954-2-2v-1.3c0-1.1046.8954-2,2-2h0c1.1046,0,2,.8954,2,2v.65s-4,0-4,0"/><line class="t" x1="369.1338" y1="57.7" x2="370.5338" y2="57.2"/><polyline class="t" points="358.9338 57.7 359.8338 57.2 360.7338 57.7"/><circle class="s" cx="351.2088" cy="57.4" r=".75"/><circle class="s" cx="348.4588" cy="57.4" r=".75"/><line class="t" x1="287.3338" y1="79.5" x2="292.3338" y2="79.5"/><line class="t" x1="287.3338" y1="76.5" x2="292.3338" y2="76.5"/><line class="t" x1="337.3338" y1="80.65" x2="342.3338" y2="80.65"/><polyline class="t" points="277.3338 80.65 282.3338 78 277.3338 75.35"/><polyline class="t" points="272.4838 74.8 269.8338 72.6501 267.1838 74.8"/><circle class="s" cx="299.8259" cy="80.65" r=".75"/><circle class="s" cx="299.8259" cy="75.35" r=".75"/><line class="t" x1="297.3338" y1="78" x2="302.3338" y2="78"/><path class="t" d="m107.2959,112.65v-6.6c0-.7732.6268-1.4,1.4-1.4h0c.1653,0,.3157.0117.4529.0349"/><path class="t" d="m110.053,112.65v-6.6c0-.7732.6268-1.4,1.4-1.4h.545c.689,0,1.1288.204,1.4238.5858"/><polyline class="t" points="106.2459 107.35 113.4217 107.35 113.4217 112.65"/><circle class="t" cx="149.8338" cy="30" r="2.65"/><path class="t" d="m152.2496,25.6257c-.4416-.5783-1.1145-.9757-2.2297-.9757h-.1861c-1.4636,0-2.65,1.1864-2.65,2.65v2.7"/><circle class="t" cx="179.8338" cy="27.3" r="2.65"/><path class="t" d="m177.418,31.6743c.4416.5783,1.1145.9757,2.2297.9757h.1861c1.4636,0,2.65-1.1864,2.65-2.65v-2.7"/><path class="t" d="m107.1838,27.3c0-1.6355,1.4816-2.925,3.1759-2.5994,1.1113.2136,1.9988,1.1747,2.1094,2.301.0823.8378-.1828,1.6644-.7615,2.1722-1.072.9408-4.5238,3.4762-4.5238,3.4762h5.3"/><path class="t" d="m121.8338,61.35c0-1.1046-.8954-2-2-2h0c-1.1046,0-2,.8954-2,2v1.3c0,1.1046.8954,2,2,2h0c1.1046,0,2-.8954,2-2"/><line class="t" x1="121.8338" y1="64.65" x2="121.8338" y2="56.65"/><path class="t" d="m97.8338,61.35c0-1.1046.8954-2,2-2h0c1.1046,0,2,.8954,2,2v1.3c0,1.1046-.8954,2-2,2h0c-1.1046,0-2-.8954-2-2"/><line class="t" x1="97.8338" y1="64.65" x2="97.8338" y2="56.65"/><path class="t" d="m237.8338,62.65c0,1.1046.8954,2,2,2h0c1.1046,0,2-.8954,2-2v-1.3c0-1.1046-.8954-2-2-2h0c-1.1046,0-2,.8954-2,2"/><line class="t" x1="237.8338" y1="59.35" x2="237.8338" y2="67.35"/><path class="t" d="m251.8338,62.65c0,1.1046-.8954,2-2,2h0c-1.1046,0-2-.8954-2-2v-1.3c0-1.1046.8954-2,2-2h0c1.1046,0,2,.8954,2,2"/><line class="t" x1="251.8338" y1="59.35" x2="251.8338" y2="67.35"/><polyline class="t" points="97.6244 107.347 102.0432 107.353 102.0432 112.65"/><path class="t" d="m98.6744,112.65v-6.603c0-.7732.6268-1.397,1.4-1.397h.545c.689,0,1.1288.201,1.4238.5827"/><path class="t" d="m100.4838,44.65c1.1046,0,2,.8954,2,2s-.8954,2-2,2h-3.3v-8h3.3c1.1046,0,2,.8954,2,2s-.8954,2-2,2h0Z"/><line class="t" x1="100.4838" y1="44.6501" x2="97.1838" y2="44.6501"/><path class="t" d="m139.0196,64.65v-6.6c0-.7732.6268-1.4,1.4-1.4h0c.689,0,1.1192.204,1.4142.5858"/><line class="t" x1="137.8338" y1="59.35" x2="140.6338" y2="59.35"/><line class="t" x1="357.9338" y1="76.1" x2="361.7338" y2="79.9"/><line class="t" x1="361.7338" y1="76.1" x2="357.9338" y2="79.9"/><path class="t" d="m131.4088,105.7v5.95c0,.5523.4477,1,1,1h.3"/><path class="t" d="m128.1311,112.6508v-6.6015c0-.7732.6268-1.4,1.4-1.4h0c.1653,0,.3157.0117.4529.0349"/><line class="t" x1="126.9588" y1="107.35" x2="132.4588" y2="107.35"/><path class="t" d="m142.8617,105.7v5.95c0,.5523.4477,1,1,1h.3"/><line class="t" x1="143.9117" y1="107.35" x2="135.7769" y2="107.35"/><path class="t" d="m139.584,112.6508v-6.6015c0-.7732.6268-1.4,1.4-1.4h0c.1653,0,.3157.0117.4529.0349"/><path class="t" d="m136.8269,112.6508v-6.6c0-.7732.6268-1.4,1.4-1.4h0c.1653,0,.3157.0117.4529.0349"/><line class="t" x1="116.9722" y1="107.3508" x2="119.6408" y2="107.3508"/><path class="t" d="m118.0266,112.6508v-6.6015c0-.7732.6268-1.4,1.4-1.4h.545c.689,0,1.1288.204,1.4238.5858v6.4142c0,.5523.4477,1,1,1h.3"/><polyline class="t" points="259.8481 75.6467 259.8481 72.65 261.591 75.65 263.3338 72.6546 263.3338 75.65"/><line class="t" x1="256.3338" y1="72.65" x2="258.6431" y2="72.65"/><line class="t" x1="257.4884" y1="75.65" x2="257.4884" y2="72.65"/><path class="t" d="m89.5837,82.3874c.5015-.2494.5015-.7402.5015-.9874v-.6553"/><circle class="s" cx="89.8338" cy="80.65" r=".75"/><circle class="s" cx="99.8338" cy="80.65" r=".75"/><circle class="s" cx="99.8338" cy="75.35" r=".75"/><circle class="s" cx="109.8338" cy="80.65" r=".75"/><line class="t" x1="109.8338" y1="72.65" x2="109.8338" y2="78.6"/><line class="t" x1="121.3338" y1="72.65" x2="118.3338" y2="82.8"/><line class="t" x1="128.3338" y1="72.65" x2="131.3338" y2="82.8"/><line class="t" x1="157.8338" y1="78" x2="161.8338" y2="78"/><path class="t" d="m140.8338,72.65s-2,2.2732-2,5.075,2,5.075,2,5.075"/><path class="t" d="m148.8338,72.65s2,2.2732,2,5.075c0,2.8018-2,5.075-2,5.075"/><line class="t" x1="169.8259" y1="78.3" x2="169.8259" y2="78.6"/><circle class="s" cx="169.8338" cy="80.65" r=".75"/><path class="t" d="m167.6338,74.85c0-.6075.2462-1.1575.6444-1.5556s.9481-.6444,1.5556-.6444c1.215,0,2.2.985,2.2,2.2,0,.6075-.2052,1.2033-.6444,1.5556-.4553.3652-1.5635.9635-1.5635,1.8944"/><polyline class="t" points="180.6338 73.2 179.0338 73.2 179.0338 82.8 180.6338 82.8"/><polyline class="t" points="189.0338 73.2 190.6338 73.2 190.6338 82.8 189.0338 82.8"/><line class="t" x1="207.8338" y1="78" x2="211.8338" y2="78"/><line class="t" x1="209.8338" y1="76" x2="209.8338" y2="80"/><line class="t" x1="219.8338" y1="74.4796" x2="219.8338" y2="72.65"/><line class="t" x1="219.8338" y1="74.4796" x2="218.7287" y2="75.85"/><line class="t" x1="218.2338" y1="73.4746" x2="219.8338" y2="74.4796"/><line class="t" x1="219.8338" y1="74.4796" x2="220.9389" y2="75.85"/><line class="t" x1="221.4338" y1="73.4746" x2="219.8338" y2="74.4796"/><circle class="t" cx="197.8338" cy="74.15" r="1.5"/><circle class="t" cx="201.8338" cy="79.15" r="1.5"/><line class="t" x1="197.2324" y1="80.65" x2="202.4324" y2="72.65"/><path class="t" d="m233.2611,80.65h-.676c-.4478,0-.8687-.2143-1.1321-.5764l-2.7747-3.8142c-.3567-.4682-.9838-1.0845-.9838-1.9977,0-.8621.7002-1.6117,1.6742-1.6117.9486,0,1.6212.7495,1.6212,1.6117,0,.913-.7398,1.6936-2.1069,1.9529-1.524.2891-2.4766,1.1253-2.4766,2.5038,0,1.1145.7026,1.9315,2.107,1.9315,1.8463,0,2.9329-1.7507,4.5378-3.9023"/><line class="t" x1="237.882" y1="80.65" x2="239.1956" y2="73.2"/><line class="t" x1="240.482" y1="80.65" x2="241.7956" y2="73.2"/><line class="t" x1="237.2061" y1="78.5" x2="241.9061" y2="78.5"/><line class="t" x1="237.7615" y1="75.35" x2="242.4615" y2="75.35"/><path class="t" d="m251.4853,76.0654s-.2285,2.4078-.288,3.2846c-.0397.5846.5937.9324,1.131.9324,1.2223,0,1.9129-1.0768,1.9901-2.5747.1582-3.066-1.7231-4.5077-4.2803-4.5077-2.4624,0-4.4435,1.9117-4.6777,4.5077-.1958,2.1708.9813,5.0923,4.1021,5.0923,1.1157,0,2.036-.1431,2.7401-.6205"/><path class="t" d="m251.2669,78.4733c-.0707.8064-.7759,1.4613-1.5839,1.4613h0c-.8081,0-1.4058-.6537-1.3351-1.4601l.0832-.949c.0707-.8064.7831-1.4601,1.5912-1.4601h0c.8081,0,1.3995.6468,1.3288,1.4532"/><path class="t" d="m308.5533,78.5829v-3.8658h1.2656c.7155,0,1.2955.5813,1.2955,1.2983s-.58,1.2983-1.2955,1.2983h-1.2656"/><line class="t" x1="309.8188" y1="77.3137" x2="311.0843" y2="78.5819"/><circle class="t" cx="309.8338" cy="76.65" r="4"/><path class="t" d="m321.1022,77.8481c-.2515.439-.7245.7347-1.2667.7347h0c-.8057,0-1.4588-.6531-1.4588-1.4588v-.9482c0-.8057.6531-1.4588,1.4588-1.4588h0c.5411,0,1.0134.2946,1.2653.7322"/><circle class="t" cx="319.8338" cy="76.65" r="4"/><line class="t" x1="327.8338" y1="77.725" x2="331.8338" y2="77.725"/><line class="t" x1="329.8338" y1="75.725" x2="329.8338" y2="79.725"/><path id="d" class="t" d="m401.8338,56.6974c0,.5552-.4501,1.0052-1.0052,1.0052-.6171,0-.8042-.3245-.9948-.5026s-.3777-.5026-.9948-.5026c-.5552,0-1.0052.4501-1.0052,1.0052"/><path class="t" d="m371.8338,77.4974c0,.5552-.4501,1.0052-1.0052,1.0052-.6171,0-.8042-.3245-.9948-.5026s-.3777-.5026-.9948-.5026c-.5552,0-1.0052.4501-1.0052,1.0052"/><line class="t" x1="387.9338" y1="57.2" x2="391.7338" y2="57.2"/><circle class="t" cx="379.8338" cy="38.1" r=".9"/><line class="t" x1="369.1338" y1="38.375" x2="370.5338" y2="37.875"/><polyline class="t" points="358.9338 38.375 359.8338 37.875 360.7338 38.375"/><circle class="s" cx="351.2088" cy="38.125" r=".75"/><circle class="s" cx="348.4588" cy="38.125" r=".75"/><path id="e" class="t" d="m401.8338,37.5974c0,.5552-.4501,1.0052-1.0052,1.0052-.6171,0-.8042-.3245-.9948-.5026s-.3777-.5026-.9948-.5026c-.5552,0-1.0052.4501-1.0052,1.0052"/><line class="t" x1="387.9338" y1="38.1" x2="391.7338" y2="38.1"/><path class="t" d="m351.4338,72.65c-.8837,0-1.6.7163-1.6,1.6v1.875c0,.8837-.7163,1.6-1.6,1.6.8837,0,1.6.7163,1.6,1.6v1.875c0,.8837.7163,1.6,1.6,1.6"/><polyline class="t" points="380.6838 80.65 383.3338 78 380.6838 75.35"/><line class="t" x1="383.3338" y1="78" x2="376.3338" y2="78"/><path class="t" d="m187.3422,95.7735c.4906.6387,1.1057.8765,1.9615.8765h1.1844c1.1022,0,1.9957-.8954,1.9957-2h0c0-1.1046-.8935-2-1.9957-2h-1.3086c-1.1022,0-1.9957-.8954-1.9957-2h0c0-1.1046.8935-2,1.9957-2h1.1844c.8558,0,1.4709.2379,1.9615.8765"/><line class="t" x1="189.8338" y1="88.65" x2="189.8338" y2="87.65"/><line class="t" x1="189.8338" y1="97.65" x2="189.8338" y2="96.65"/><path class="t" d="m117.4347,31.9752c.5523.4628,1.1485.6748,2.4876.6748h.312c1.1043,0,1.9995-.8952,1.9995-1.9995h0c0-1.1043-.8952-1.9995-1.9995-1.9995"/><path class="t" d="m117.4338,25.3182c.5535-.4613,1.1503-.6717,2.4894-.6681l.3111.0018c1.1043,0,1.9995.8952,1.9995,1.9995h0c0,1.1043-.8952,1.9995-1.9995,1.9995"/><line class="t" x1="118.6973" y1="28.6509" x2="120.2343" y2="28.6509"/><path class="t" d="m157.434,128.0252c.5523.4628,1.1485.6748,2.4876.6748h.312c1.1043,0,1.9995-.8952,1.9995-1.9995h0c0-1.1043-.8952-1.9995-1.9995-1.9995"/><path class="t" d="m157.4331,121.3682c.5535-.4613,1.1503-.6717,2.4894-.6681l.3111.0018c1.1043,0,1.9995.8952,1.9995,1.9995h0c0,1.1043-.8952,1.9995-1.9995,1.9995"/><line class="t" x1="158.6966" y1="124.7009" x2="160.2336" y2="124.7009"/><path class="t" d="m131.5832,176.2029c-.3659.3066-.7609.4471-1.648.4471h-.5267c-.7316,0-1.3247-.5931-1.3247-1.3247h0c0-.7316.5931-1.3247,1.3247-1.3247"/><path class="t" d="m131.5838,171.7927c-.3667-.3056-.7621-.445-1.6492-.4426l-.5261.0012c-.7316,0-1.3247.5931-1.3247,1.3247h0c0,.7316.5931,1.3247,1.3247,1.3247"/><line class="t" x1="130.7468" y1="174.0006" x2="129.4085" y2="174.0006"/><path class="t" d="m169.1838,28.65c-1.1046,0-2,.8954-2,2h0c0,1.1046.8954,2,2,2h1.3c1.1046,0,2-.8954,2-2h0c0-1.1046-.8954-2-2-2"/><path class="t" d="m170.4838,28.65c1.1046,0,2-.8954,2-2h0c0-1.1046-.8954-2-2-2h-1.3c-1.1046,0-2,.8954-2,2h0c0,1.1046.8954,2,2,2"/><line class="t" x1="169.1838" y1="28.65" x2="170.4838" y2="28.65"/><rect class="t" x="227.1838" y="40.6501" width="5.3" height="8" rx="2.65" ry="2.65"/><rect class="t" x="227.1817" y="152.65" width="5.3" height="8" rx="2.65" ry="2.65"/><rect class="t" x="227.1817" y="120.6479" width="5.3" height="8" rx="2.65" ry="2.65"/><rect class="t" x="87.1838" y="88.65" width="5.3" height="8" rx="2.65" ry="2.65"/><line class="t" x1="91.8566" y1="25.5922" x2="87.8048" y2="31.7081"/><rect class="t" x="87.1838" y="24.65" width="5.3" height="8" rx="2.65" ry="2.65"/><line class="t" x1="252.4838" y1="48.65" x2="249.8337" y2="46.0317"/><rect class="t" x="247.1838" y="40.6501" width="5.3" height="8" rx="2.65" ry="2.65"/><path class="t" d="m152.4838,43.3001c0-1.4636-1.1864-2.65-2.65-2.65h0c-1.4636,0-2.65,1.1864-2.65,2.65v2.7c0,1.4636,1.1864,2.65,2.65,2.65h0c1.4636,0,2.65-1.1864,2.65-2.65h-2.65"/><g id="f"><path class="t" d="m451.9198,79.694c-.4921.5845-1.2293.956-2.0532.956h0c-1.4817,0-2.6828-1.2011-2.6828-2.6828v-2.6345c0-1.4817,1.2011-2.6828,2.6828-2.6828h0c.8288,0,1.5699.3758,2.062.9664"/><line class="t" x1="446.1838" y1="75.6779" x2="449.1838" y2="75.6779"/><line class="t" x1="446.1838" y1="77.6412" x2="449.1838" y2="77.6412"/></g><g id="g"><path class="t" d="m392.4838,74.75c0-1.1598-.9402-2.1-2.1-2.1h0c-1.1598,0-2.1.9402-2.1,2.1v3.7772c0,.4365-.1428.861-.4066,1.2088l-.6934.914h5.3"/><line class="t" x1="389.3838" y1="76.925" x2="387.1838" y2="76.925"/></g><g id="h"><polyline class="t" points="402.4838 72.65 399.8338 76.65 397.1838 72.65"/><line class="t" x1="399.8338" y1="80.65" x2="399.8338" y2="76.65"/><line class="t" x1="397.3338" y1="76.65" x2="402.3338" y2="76.65"/><line class="t" x1="397.3338" y1="78.65" x2="402.3338" y2="78.65"/></g><g id="i"><line class="t" x1="405.8338" y1="76.65" x2="413.8338" y2="76.65"/><line class="t" x1="405.8338" y1="78.65" x2="413.8338" y2="78.65"/><polyline class="t" points="413.8338 72.65 411.8338 80.65 409.8338 72.65 407.8338 80.65 405.8338 72.65"/></g><g id="j"><path class="t" d="m417.3338,72.65h1.619c1.4807,0,2.681,1.2029,2.681,2.6867s-1.2003,2.6867-2.681,2.6867l2.681,2.6245"/><line class="t" x1="418.9528" y1="72.65" x2="422.6338" y2="72.65"/><line class="t" x1="417.3338" y1="75.35" x2="422.6338" y2="75.35"/></g><g id="k"><path class="t" d="m441.166,76.65c1.1046,0,2,.8954,2,2s-.8954,2-2,2h-3.3v-8h3.3c1.1046,0,2,.8954,2,2s-.8954,2-2,2h0Z"/><line class="t" x1="441.166" y1="76.65" x2="437.866" y2="76.65"/><line class="t" x1="437.866" y1="80.65" x2="436.866" y2="80.65"/><line class="t" x1="437.866" y1="72.65" x2="436.866" y2="72.65"/><line class="t" x1="438.866" y1="81.65" x2="438.866" y2="80.65"/><line class="t" x1="440.866" y1="81.65" x2="440.866" y2="80.65"/><line class="t" x1="438.866" y1="72.65" x2="438.866" y2="71.65"/><line class="t" x1="440.866" y1="72.65" x2="440.866" y2="71.65"/></g><g id="l"><path class="t" d="m427.3422,79.7735c.4906.6387,1.1057.8765,1.9615.8765h1.1844c1.1022,0,1.9957-.8954,1.9957-2h0c0-1.1046-.8935-2-1.9957-2h-1.3086c-1.1022,0-1.9957-.8954-1.9957-2h0c0-1.1046.8935-2,1.9957-2h1.1844c.8558,0,1.4709.2379,1.9615.8765"/><line class="t" x1="429.8338" y1="81.6466" x2="429.8338" y2="71.6466"/></g><path class="t" d="m97.1838,124.65h3.3s0,0,0,0c1.1046,0,2,.8954,2,2s-.8954,2-2,2h-3.3v-8h4.3"/><path class="t" d="m347.6838,124.65h3.3s0,0,0,0c1.1046,0,2,.8954,2,2s-.8954,2-2,2h-3.3v-8"/><path class="t" d="m110.4838,124.65c1.1046,0,2,.8954,2,2s-.8954,2-2,2h-3.3v-8h3.3c1.1046,0,2,.8954,2,2s-.8954,2-2,2h0Z"/><line class="t" x1="110.4838" y1="124.65" x2="107.1838" y2="124.65"/><path class="t" d="m100.4838,156.65c1.1046,0,2,.8954,2,2s-.8954,2-2,2h-3.3v-8h3.3c1.1046,0,2,.8954,2,2s-.8954,2-2,2h0Z"/><line class="t" x1="100.4838" y1="156.65" x2="97.1838" y2="156.65"/><polyline class="t" points="118.0838 144.65 118.0838 139.35 121.5838 139.35"/><polyline class="t" points="117.2338 128.65 117.2338 120.65 122.4338 120.65"/><polyline class="t" points="107.2338 160.65 107.2338 152.65 112.4338 152.65"/><polyline class="t" points="133.2838 130.25 133.2838 128.2 126.2838 128.2 126.2838 130.25"/><path class="t" d="m132.1838,128.2v-7.55h-3.8c0,3.0757-.2262,5.0944-1.1,7.55"/><polyline class="t" points="132.4338 145.65 132.4338 144.65 127.2338 144.65 127.2338 145.65"/><path class="t" d="m131.7838,144.65v-5.3h-3.102c0,2.1591-.1846,3.5762-.898,5.3"/><polyline class="t" points="110.5189 144.65 107.8338 144.65 107.8338 139.35 110.5189 139.35"/><line class="t" x1="110.5189" y1="142" x2="107.8338" y2="142"/><path class="t" d="m110.5189,139.35c.7262,0,1.3149.5932,1.3149,1.325s-.5887,1.325-1.3149,1.325"/><path class="t" d="m110.5189,142c.7262,0,1.3149.5932,1.3149,1.325s-.5887,1.325-1.3149,1.325"/><path class="t" d="m141.5716,143.6407c-.3445.6029-.9937,1.0093-1.7378,1.0093h0c-1.1046,0-2-.8954-2-2v-1.3c0-1.1046.8954-2,2-2h0c1.1046,0,2,.8954,2,2v.65s-4,0-4,0"/><line class="t" x1="149.8338" y1="139.35" x2="149.8338" y2="144.6299"/><path class="t" d="m153.3338,144.6503l-1.0692-1.8889c-.2662-.4703-.7649-.7611-1.3054-.7611h-2.2509c-.5405,0-1.0392.2908-1.3054.7611l-1.0692,1.8889"/><path class="t" d="m146.3338,139.35l1.0692,1.8889c.2662.4703.7649.7611,1.3054.7611h2.2509c.5405,0,1.0392-.2908,1.3054-.7611l1.0692-1.8889"/><line class="t" x1="149.8338" y1="120.65" x2="149.8338" y2="128.65"/><path class="t" d="m153.8338,128.65l-1.6139-2.8512c-.4019-.71-1.1546-1.1488-1.9704-1.1488h-.8315c-.8158,0-1.5685.4389-1.9704,1.1488l-1.6139,2.8512"/><path class="t" d="m145.8338,120.65l1.6139,2.8512c.4019.71,1.1546,1.1488,1.9704,1.1488h.8315c.8158,0,1.5685-.4389,1.9704-1.1488l1.6139-2.8512"/><line class="t" x1="187.8338" y1="139.35" x2="187.8338" y2="144.6299"/><path class="t" d="m191.8338,144.65l-1.0692-1.8889c-.2662-.4703-.7649-.7611-1.3054-.7611h-1.6254"/><path class="t" d="m187.8338,142h1.6254c.5405,0,1.0392-.2908,1.3054-.7611l1.0692-1.8889"/><line class="t" x1="187.1838" y1="120.65" x2="187.1838" y2="128.65"/><path class="t" d="m187.1838,124.65h1.0389c1.0061,0,1.9453-.5044,2.5009-1.3431l1.7602-2.6569"/><path class="t" d="m187.1838,124.65h1.0389c1.0061,0,1.9453.5044,2.5009,1.3431l1.7602,2.6569"/><circle class="t" cx="99.8338" cy="142.025" r="2.65"/><path class="t" d="m101.4838,136.675h-1.65c-1.4636,0-2.65,1.1864-2.65,2.65v2.7"/><path class="t" d="m158.0788,144.2029c.3659.3066.7609.4471,1.648.4471h.5379c.7316,0,1.3247-.5931,1.3247-1.3247h0c0-.7316-.5931-1.3247-1.3247-1.3247"/><path class="t" d="m158.0782,139.7927c.3667-.3056.7621-.445,1.6492-.4426l.5373.0012c.7316,0,1.3247.5931,1.3247,1.3247h0c0,.7316-.5931,1.3247-1.3247,1.3247"/><line class="t" x1="158.9152" y1="142.0006" x2="160.2647" y2="142.0006"/><polyline class="t" points="171.8338 144.65 171.8338 139.35 167.8338 144.65 167.8338 139.35"/><polyline class="t" points="181.8338 144.65 181.8338 139.35 177.8338 144.65 177.8338 139.35"/><path class="t" d="m178.4338,136.65c0,.7732.6268,1.4,1.4,1.4s1.4-.6268,1.4-1.4"/><polyline class="t" points="207.3338 144.6442 207.3338 139.35 209.8338 144.65 212.3338 139.3581 212.3338 144.65"/><line class="t" x1="217.8338" y1="139.35" x2="217.8338" y2="144.65"/><line class="t" x1="221.8338" y1="139.35" x2="221.8338" y2="144.65"/><line class="t" x1="217.8338" y1="141.99" x2="221.8338" y2="141.99"/><path class="t" d="m381.8338,144.65v-5.3s-2.2239,0-2.2239,0c-.9809,0-1.7761.7969-1.7761,1.78s.7952,1.78,1.7761,1.78h2.2239"/><line class="t" x1="379.6099" y1="142.9099" x2="377.875" y2="144.6487"/><line class="t" x1="267.8338" y1="139.35" x2="271.8338" y2="139.35"/><line class="t" x1="269.8338" y1="144.65" x2="269.8338" y2="139.35"/><rect class="t" x="227.8338" y="139.35" width="4" height="5.3" rx="2" ry="2"/><rect class="t" x="227.8338" y="171.35" width="4" height="5.3" rx="2" ry="2"/><path class="t" d="m261.7021,143.6427c-.3448.6019-.9934,1.0073-1.7367,1.0073h0c-1.1046,0-2-.8954-2-2v-1.3c0-1.1046.8954-2,2-2h0c.7419,0,1.3894.4039,1.7347,1.0039"/><path class="t" d="m247.8338,142.65c0,1.1046.8954,2,2,2h0c1.1046,0,2-.8954,2-2v-1.3c0-1.1046-.8954-2-2-2h0c-1.1046,0-2,.8954-2,2"/><line class="t" x1="247.8338" y1="139.35" x2="247.8338" y2="147.35"/><path class="t" d="m247.8338,174.65c0,1.1046.8954,2,2,2h0c1.1046,0,2-.8954,2-2v-1.3c0-1.1046-.8954-2-2-2h0c-1.1046,0-2,.8954-2,2"/><line class="t" x1="247.8338" y1="173.35" x2="247.8338" y2="179.35"/><polyline class="t" points="237.8338 144.65 237.8338 139.35 241.8338 139.35 241.8338 144.65"/><line class="t" x1="301.8338" y1="139.35" x2="297.8338" y2="144.65"/><line class="t" x1="301.8338" y1="144.65" x2="297.8338" y2="139.35"/><line class="t" x1="279.9642" y1="144.65" x2="277.8338" y2="139.35"/><path class="t" d="m281.8338,139.35l-2.5396,7.1992c-.1693.4799-.6228.8008-1.1317.8008h-.3287"/><line class="t" x1="280.1793" y1="125.7792" x2="277.3565" y2="120.4792"/><path class="t" d="m282.6565,120.4792l-3.335,7.1352c-.2466.5277-.7764.8648-1.3589.8648h-.6061"/><line class="t" x1="289.8338" y1="137.2" x2="289.8338" y2="146.8"/><rect class="t" x="287.1838" y="138.35" width="5.3" height="7.3" rx="2.65" ry="2.65" transform="translate(431.8338 -147.8338) rotate(90)"/><polyline class="t" points="311.8338 139.35 311.8338 144.65 307.8338 144.65 307.8338 139.35"/><polyline class="t" points="311.8338 144.6457 312.5338 144.6457 312.5338 145.8207"/><path class="t" d="m321.8338,139.325v3h-2.5c-.8284,0-1.5-.6716-1.5-1.5v-1.5"/><polyline class="t" points="329.8338 139.325 329.8338 144.625 326.5338 144.625 326.5338 139.325"/><polyline class="t" points="333.1338 139.325 333.1338 144.625 329.8338 144.625"/><polyline class="t" points="329.8338 120.65 329.8338 128.65 325.8338 128.65 325.8338 120.65"/><polyline class="t" points="333.8338 120.65 333.8338 128.65 329.8338 128.65"/><polyline class="t" points="339.8338 139.325 339.8338 144.625 336.5338 144.625 336.5338 139.325"/><polyline class="t" points="343.1338 139.325 343.1338 144.625 339.8338 144.625"/><polyline class="t" points="343.1338 144.625 343.8338 144.625 343.8338 145.8"/><polyline class="t" points="350.5189 144.625 347.8338 144.625 347.8338 139.325"/><line class="t" x1="350.5189" y1="141.975" x2="347.8338" y2="141.975"/><path class="t" d="m350.5189,141.975c.7262,0,1.3149.5932,1.3149,1.325s-.5887,1.325-1.3149,1.325"/><rect class="t" x="369.1338" y="139.35" width="4" height="5.3" rx="2" ry="2"/><line class="t" x1="366.5338" y1="144.65" x2="366.5338" y2="139.35"/><line class="t" x1="366.5338" y1="142" x2="369.1338" y2="142"/><line class="t" x1="89.1487" y1="142" x2="91.8338" y2="142"/><path class="t" d="m89.1487,142c-.7262,0-1.3149.5932-1.3149,1.325s.5887,1.325,1.3149,1.325h.6966c1.0962,0,1.9848-.8954,1.9848-2"/><path class="t" d="m88.3338,139.875c.482-.4827.8197-.525,1.75-.525,1.0561,0,1.75.4645,1.75,1.7201v3.5799"/><path class="t" d="m121.8301,94.65c0,1.1046-.8886,2-1.9848,2h-.6966c-.7262,0-1.3149-.5932-1.3149-1.325s.5887-1.325,1.3149-1.325h2.6851"/><path class="t" d="m118.3338,91.875c.482-.4827.8197-.525,1.75-.525,1.0561,0,1.75.4645,1.75,1.7201v3.5799"/><line class="t" x1="321.8338" y1="139.65" x2="321.8338" y2="144.625"/><path class="t" d="m322.4864,120.65v5h-2.5c-1.5464,0-2.8-1.2536-2.8-2.8v-2.2"/><line class="t" x1="322.4864" y1="125.65" x2="322.4864" y2="128.65"/><path class="t" d="m319.8338,157.65h-1.2c-1.5464,0-2.8-1.2536-2.8-2.8v-2.2"/><path class="t" d="m319.8338,157.65h1.2c1.5464,0,2.8-1.2536,2.8-2.8v-2.2"/><line class="t" x1="319.8338" y1="152.65" x2="319.8338" y2="160.65"/><path class="t" d="m319.8338,176.65h-1.2c-1.5464,0-2.8-1.2536-2.8-2.8v-2.2"/><path class="t" d="m319.8338,176.65h1.2c1.5464,0,2.8-1.2536,2.8-2.8v-2.2"/><line class="t" x1="319.8338" y1="170.65" x2="319.8338" y2="179.65"/><path class="t" d="m357.9787,140.3573c.3448-.6019.9934-1.0073,1.7367-1.0073h0c1.1046,0,2,.8954,2,2v1.3c0,1.1046-.8954,2-2,2h0c-.7419,0-1.3894-.4039-1.7347-1.0039"/><line class="t" x1="361.7154" y1="142" x2="359.2154" y2="142"/><path class="t" d="m357.0269,122.1705c.5204-.9085,1.4994-1.5205,2.6214-1.5205h0c1.6673,0,3.0189,1.3516,3.0189,3.0189v1.9623c0,1.6673-1.3516,3.0189-3.0189,3.0189h0c-1.1198,0-2.0972-.6097-2.6184-1.5153"/><line class="t" x1="362.6672" y1="124.65" x2="358.8936" y2="124.65"/><path class="t" d="m202.0413,144.65v-5.3s-3.8,0-3.8,0v2.8858c0,.9055-.3597,1.7739-1,2.4142h0"/><path class="t" d="m202.5413,128.65v-8h-4.2906s0,4.3559,0,4.3559c0,1.3668-.543,2.6776-1.5094,3.6441h0"/><polyline class="t" points="237.1838 128.65 237.1838 120.65 242.4838 120.65 242.4838 128.65"/><polyline class="t" points="237.1838 160.65 237.1838 152.65 242.4838 152.65 242.4838 160.65"/><polyline class="t" points="311.9838 120.65 311.9838 128.65 306.6838 128.65 306.6838 120.65"/><polyline class="t" points="311.9838 128.65 312.9838 128.65 312.9838 130"/><polyline class="t" points="339.8338 120.65 339.8338 128.65 335.8338 128.65 335.8338 120.65"/><polyline class="t" points="343.8338 120.65 343.8338 128.65 339.8338 128.65"/><polyline class="t" points="343.8338 128.65 344.8338 128.65 344.8338 130"/><path class="t" d="m382.4838,128.65v-8s-2.619,0-2.619,0c-1.4806,0-2.6809,1.2029-2.6809,2.6867,0,1.4838,1.2003,2.6867,2.6809,2.6867h2.619"/><line class="t" x1="379.8648" y1="126.0235" x2="377.246" y2="128.648"/><line class="t" x1="137.8338" y1="124.65" x2="140.4418" y2="124.65"/><polyline class="t" points="141.8338 128.65 137.8338 128.65 137.8338 120.65 141.8338 120.65"/><polyline class="t" points="172.4838 128.65 172.4838 120.65 167.1838 128.65 167.1838 120.65"/><path class="t" d="m178.4338,117.6042c0,.7732.6268,1.4,1.4,1.4s1.4-.6268,1.4-1.4"/><polyline class="t" points="182.4838 128.65 182.4838 120.65 177.1838 128.65 177.1838 120.65"/><polyline class="t" points="205.8338 128.6412 205.8338 120.65 209.8338 128.65 213.8338 120.6622 213.8338 128.65"/><line class="t" x1="217.1838" y1="120.65" x2="217.1838" y2="128.65"/><line class="t" x1="222.4838" y1="120.65" x2="222.4838" y2="128.65"/><line class="t" x1="217.1838" y1="124.6349" x2="222.4838" y2="124.6349"/><line class="t" x1="147.1838" y1="152.65" x2="147.1838" y2="160.65"/><line class="t" x1="152.4838" y1="152.65" x2="152.4838" y2="160.65"/><line class="t" x1="147.1838" y1="156.6349" x2="152.4838" y2="156.6349"/><rect class="t" x="286.834" y="120.7" width="6" height="8" rx="3" ry="3" transform="translate(414.534 -165.134) rotate(90)"/><line class="t" x1="289.834" y1="120.65" x2="289.834" y2="128.65"/><line class="t" x1="299.8338" y1="169.2" x2="299.8338" y2="178.8"/><rect class="t" x="297.1838" y="170.35" width="5.3" height="7.3" rx="2.65" ry="2.65" transform="translate(473.8338 -125.8338) rotate(90)"/><rect class="t" x="296.834" y="152.7" width="6" height="8" rx="3" ry="3" transform="translate(456.534 -143.134) rotate(90)"/><line class="t" x1="299.834" y1="152.65" x2="299.834" y2="160.65"/><rect class="t" x="368.5338" y="120.6311" width="5.3" height="8" rx="2.65" ry="2.65"/><line class="t" x1="365.8338" y1="128.6689" x2="365.8338" y2="120.6689"/><line class="t" x1="365.8338" y1="124.6689" x2="368.5338" y2="124.6689"/><path id="m" class="t" d="m408.4338,37.6c0,.7732.6268,1.4,1.4,1.4s1.4-.6268,1.4-1.4"/><path id="n" class="t" d="m408.4338,56.65c0,.7732.6268,1.4,1.4,1.4s1.4-.6268,1.4-1.4"/><path id="o" class="t" d="m419.9655,64.65l-.5,1.1023h.5c.4142,0,.75.3358.75.75s-.3358.75-.75.75h-1.1803"/><path id="p" class="t" d="m419.9655,48.65l-.5,1.1023h.5c.4142,0,.75.3358.75.75s-.3358.75-.75.75h-1.1803"/><line class="t" x1="91.606" y1="46" x2="88.0616" y2="46"/><polyline class="t" points="87.1838 48.65 89.8338 40.65 92.4838 48.65"/><path class="t" d="m137.3838,31.9752c.5523.4628,1.0881.6748,2.4272.6748h.2301c1.2386,0,2.2428-1.0041,2.2428-2.2428h0c0-1.2387-1.0041-2.2428-2.2428-2.2428h-2.6572v-3.5145h4.9"/><line class="t" x1="218.3338" y1="156.65" x2="221.3338" y2="156.65"/><line class="t" x1="217.8338" y1="152.65" x2="221.8338" y2="152.65"/><line class="t" x1="221.8338" y1="160.65" x2="217.8338" y2="160.65"/><polyline class="t" points="262.4838 152.65 257.1838 152.65 261.1588 156.65 257.1838 160.65 262.4838 160.65"/><line class="t" x1="91.606" y1="158" x2="88.0616" y2="158"/><polyline class="t" points="87.1838 160.65 89.8338 152.65 92.4838 160.65"/><polygon class="t" points="117.1838 160.65 119.8338 152.65 122.4838 160.65 117.1838 160.65"/><polyline class="t" points="187.1838 160.65 189.8338 152.65 192.4838 160.65"/><rect class="t" x="157.1838" y="152.65" width="5.3" height="8" rx="2.65" ry="2.65"/><line class="t" x1="158.6338" y1="156.65" x2="161.0338" y2="156.65"/><line class="t" x1="277.8338" y1="171.35" x2="281.8338" y2="171.35"/><path class="t" d="m281.8338,176.3036c-.212.214-.5049.3464-.8284.3464h0c-.647,0-1.1716-.5295-1.1716-1.1827v-4.1173"/><path class="t" d="m170.8338,176.3036c-.212.214-.5049.3464-.8284.3464h0c-.647,0-1.1716-.5295-1.1716-1.1827v-4.1173"/><line class="t" x1="189.9642" y1="171.35" x2="187.8338" y2="176.65"/><path class="t" d="m187.1299,169.3275c.1287-.2724.3609-.4946.666-.6023h0c.6102-.2153,1.281.1096,1.4983.7256l2.5396,7.1992"/><line class="t" x1="187.6838" y1="40.6635" x2="187.6838" y2="48.6635"/><line class="t" x1="187.6838" y1="45.877" x2="191.9838" y2="40.6904"/><line class="t" x1="191.9838" y1="48.6635" x2="188.6899" y2="44.6635"/><line class="t" x1="177.6838" y1="152.65" x2="177.6838" y2="160.65"/><line class="t" x1="177.6838" y1="157.8635" x2="181.9838" y2="152.6769"/><line class="t" x1="181.9838" y1="160.65" x2="178.6899" y2="156.65"/><line class="t" x1="177.8338" y1="171.35" x2="177.8338" y2="176.65"/><line class="t" x1="177.8338" y1="174.804" x2="181.8338" y2="171.3678"/><line class="t" x1="181.8338" y1="176.65" x2="178.7697" y2="174"/><path class="t" d="m197.8338,171.35v3.3c0,1.1046.8954,2,2,2h0c1.1046,0,2-.8954,2-2v-3.3"/><line class="t" x1="201.8338" y1="174.65" x2="201.8338" y2="176.65"/><line class="t" x1="197.8338" y1="174.65" x2="197.8338" y2="179.35"/><rect class="t" x="157.8843" y="171.35" width="4" height="5.3" rx="2" ry="2"/><line class="t" x1="157.8843" y1="174.0006" x2="161.8843" y2="174.0006"/><path class="t" d="m151.2824,179.35v-6c0-1.1046-.8954-2-2-2h0c-1.1046,0-2,.8954-2,2"/><line class="t" x1="147.2824" y1="176.65" x2="147.2824" y2="171.35"/><polyline class="t" points="211.7684 171.35 209.7684 176.65 207.7684 171.35"/><path class="t" d="m242.8338,176.3036c-.212.214-.5049.3464-.8284.3464h0c-.647,0-1.1716-.5295-1.1716-1.1827v-4.1173"/><line class="t" x1="236.8338" y1="171.35" x2="242.8338" y2="171.35"/><line class="t" x1="238.3338" y1="171.35" x2="238.3338" y2="176.65"/><path class="t" d="m325.8338,160.6496h2.6702v-.2264c-1.5554-.5481-2.6702-2.0307-2.6702-3.7736,0-2.2091,1.7909-4,4-4s4,1.7909,4,4c0,1.7429-1.1148,3.2255-2.6702,3.7736v.2267h2.6702"/><rect class="t" x="257.3338" y="171.35" width="4" height="5.3" rx="2" ry="2"/><line class="t" x1="262.3338" y1="171.35" x2="259.3338" y2="171.35"/><rect class="t" x="257.0225" y="185.275" width="5.6226" height="7.45" rx="2.8113" ry="2.8113"/><line class="t" x1="257.0225" y1="185.275" x2="259.8338" y2="185.275"/><path class="t" d="m169.8338,185.2002c1.5526,0,2.8113,1.2587,2.8113,2.8113v1.8274c0,1.5526-1.2587,2.8113-2.8113,2.8113h0c-1.5526,0-2.8113-1.2587-2.8113-2.8113v-4.6387"/><path class="t" d="m326.6749,171.3504c-.4396.5246-.6411,1.0911-.6411,2.3632v1.0372c0,1.0491.8505,1.8996,1.8996,1.8996h0c1.0491,0,1.8996-.8505,1.8996-1.8996"/><path class="t" d="m332.999,171.3496c.4382.5258.6381,1.0928.6347,2.3649l-.0017,1.0364c0,1.0491-.8505,1.8996-1.8996,1.8996h0c-1.0491,0-1.8996-.8505-1.8996-1.8996"/><line class="t" x1="329.8329" y1="172.5499" x2="329.8329" y2="174.7509"/><line class="t" x1="91.606" y1="126" x2="88.0616" y2="126"/><polyline class="t" points="87.1838 128.65 89.8338 120.65 92.4838 128.65"/><line class="t" x1="220.9446" y1="172.6588" x2="219.9446" y2="172.6588"/><path class="t" d="m221.9451,169.3271c-.496-.5269-.9586-.6683-2.0003-.6683-1.1024,0-1.9997.8976-1.9997,2h0c0,1.1046.8952,2,1.9995,2"/><path class="t" d="m221.4423,178.9825c.2476-.1716.4288-.4371.485-.7557h0c.1124-.6372-.318-1.2457-.9613-1.3591,0,0-1.1193-.2-1.4984-.2661-.8864-.1547-1.5225-1.0026-1.5225-1.9427h0c0-1.1046.8952-2,1.9995-2"/><path class="t" d="m141.331,178.9825c.2476-.1716.4288-.4371.485-.7557h0c.1124-.6372-.318-1.2457-.9613-1.3591,0,0-1.1193-.2-1.4984-.2661-.8864-.1547-1.5225-1.0026-1.5225-1.9427h0c0-4.1728,4-6.0088,4-6.0088h-4"/><line class="t" x1="159.7088" y1="89.7" x2="159.7088" y2="96.65"/><line class="t" x1="158.6588" y1="91.35" x2="160.7588" y2="91.35"/><path class="t" d="m270.681,178.9825c.2476-.1716.4288-.4371.485-.7557h0c.1124-.6372-.318-1.2457-.9613-1.3591,0,0-1.1193-.2-1.4984-.2661-.8864-.1547-1.5225-1.0026-1.5225-1.9427h0v-1.3088c0-1.1046.8952-2,1.9995-2,.7368,0,1.0745.0876,1.6364.6683"/><path class="t" d="m97.8338,175.9752c.3925.5248,1.1776.6748,1.9996.6748h.0009c1.1043,0,1.9995-.8952,1.9995-1.9995h0c0-1.1043-.8952-1.9995-1.9995-1.9995"/><path class="t" d="m97.8338,179.35v-8.6977c0-1.1051.8953-2.0013,2.0005-2.0023h0s0,.0018,0,.0018c1.1043,0,1.9995.8952,1.9995,1.9995h0c0,1.1043-.8952,1.9995-1.9995,1.9995"/><path class="t" d="m119.8338,171.8423c-1.953.9848-2.325,1.5337-2.325,2.8178s1.0409,1.99,2.325,1.99,2.325-.7059,2.325-1.99c0-1.5666-1.2158-2.1547-2.325-2.8178-.6411-.3832-1.4931-.6015-1.4308-1.472.0458-.6401.5632-1.1703,1.5564-1.1703.6025,0,1.021.2163,1.5752.6965"/><line class="t" x1="87.5338" y1="185.2" x2="92.1338" y2="192.65"/><path class="t" d="m92.1338,185.2v2.8403c0,.9719-.7879,1.7597-1.7597,1.7597h0"/><path class="t" d="m87.5338,192.65v-2.8403c0-.9719.7879-1.7597,1.7597-1.7597h0"/><line class="t" x1="97.2243" y1="192.65" x2="102.5243" y2="192.65"/><path class="t" d="m101.5243,192.65v-5.45c0-1.1046-.8954-2-2-2h-1.2065c-.3933,0-.7649.0929-1.094.258"/><path class="t" d="m132.4838,192.65v-5.45c0-1.1046-.8954-2-2-2h-1.2065c-.3933,0-1.1183.0345-1.5935.258"/><line class="t" x1="127.6838" y1="192.65" x2="127.6838" y2="188.15"/><path class="t" d="m162.2338,192.65v-5.45c0-1.1046-.8954-2-2-2h-1.2065c-.3933,0-1.1183.0345-1.5935.258v7.192"/><path class="t" d="m232.2338,192.65v-5.45c0-1.1046-.8954-2-2-2h-1.2065c-.3933,0-1.1183.0345-1.5935.258v7.192h4.8Z"/><path class="t" d="m336.1838,185.2l1,7.45h1.801c2.0035,0,3.6979-1.4822,3.9644-3.4679l.5345-3.9821"/><path class="t" d="m336.8281,190h.5305c.9474,0,1.7647-.6647,1.958-1.5921l.6683-3.2079"/><line class="t" x1="117.5338" y1="185.7" x2="122.1338" y2="185.7"/><path class="t" d="m120.8338,192.65v-5.65c0-.718.582-1.3,1.3-1.3"/><line class="t" x1="148.5338" y1="185.7" x2="151.1338" y2="185.7"/><path class="t" d="m149.8338,192.65v-4.65c0-1.0932.4006-1.8478,1.3-2.3"/><line class="t" x1="139.8338" y1="185.2002" x2="139.8338" y2="192.6502"/><line class="t" x1="178.3975" y1="185.2" x2="178.3975" y2="188.3991"/><path class="t" d="m331.8335,192.65v-5.45c0-1.1046-.8953-2-1.9998-2h-1.2064c-.3932,0-.7648.0929-1.0939.258"/><path class="t" d="m202.5413,194.8v-7.6c0-1.1046-.8953-2-1.9998-2h-1.2064c-.3932,0-.7648.0929-1.0939.258"/><path class="t" d="m352.6838,192.65v-5.45c0-1.1046-.8954-2-2-2h-1.9065c-.3933,0-1.1183.0345-1.5935.258"/><path class="t" d="m348.2838,185.2181v6.1319c0,.718-.582,1.3-1.3,1.3"/><polyline class="t" points="297.1838 192.65 302.4838 192.65 298.4838 185.2972"/><path class="t" d="m317.263,185.2h3.5822c.9088,0,1.6088.8017,1.4863,1.7021l-.4586,3.3716c-.1776,1.3055-1.2924,2.279-2.61,2.279h0"/><line class="t" x1="317.263" y1="188.35" x2="317.263" y2="194.8"/><polyline class="t" points="207.1838 183.8 207.1838 185.2 212.4838 185.2 210.4838 192.5528"/><path class="t" d="m302.8338,185.2l-.1758,1.5409c-.1128.9882-.557,1.9091-1.2604,2.6124l-.4581.4581"/><path class="t" d="m187.8338,185.3709c.3128-.1106.6494-.1707,1-.1707h0c1.6568,0,3,1.3431,3,3v1.45c0,1.6569-1.3431,3-3,3h0c-.3506,0-.6872-.0602-1-.1707"/><polyline class="t" points="250.0285 194.8133 250.0285 187.3633 249.6285 185.2133"/><polyline class="t" points="309.8338 194.8 309.8338 189.35 307.8338 185.2"/><path class="t" d="m309.8338,189.35h0c1.1046,0,2-.8954,2-2v-2.15"/><path class="t" d="m111.0069,192.65v-6.0277c0-.7855-.6367-1.4223-1.4221-1.4223h0c-.2796,0-.5439.0661-.7779.1835"/><path class="t" d="m111.0069,190.7105c0,1.0711-.8682,1.9395-1.9392,1.9395h0c-.3813,0-.7416-.0901-1.0608-.2502"/><path class="t" d="m292.3338,194.8v-6c0-2.3916-1.1641-3.6-2.6-3.6h0c-1.3255,0-2.4,1.0745-2.4,2.4h0c0,1.1986.8787,2.1921,2.0271,2.3712"/><path class="t" d="m279.3609,190.046c-1.1484-.1791-2.0271-1.1725-2.0271-2.3711h0c0-1.3254,1.0745-2.3999,2.4-2.3999h0c1.4359,0,2.6,1.2083,2.6,3.5998v.4591c0,2.3433-1.0706,3.3911-2.3913,3.3911h0c-1.3282,0-1.7-.1486-2.3061-.4268"/><path class="t" d="m238.4838,192.65h2.7v-6.0277c0-.7855-.6367-1.4223-1.4221-1.4223h0c-.2796,0-.5439.0661-.7779.1835"/><path class="t" d="m266.891,192.725l2.0952-.3953c1.6651-.3142,2.9515-1.6434,3.2111-3.3178l.5794-3.7369"/><line class="t" x1="267.1838" y1="185.275" x2="269.073" y2="192.3123"/><line class="t" x1="222.2338" y1="192.65" x2="220.4338" y2="192.65"/><path class="t" d="m222.2338,192.65v-5.45c0-1.1046-.8954-2-2-2h-.7066c-.3933,0-1.063.0834-1.6633.7603l-.9302,6.6897"/><path class="t" d="m217.0568,185.2c.4418,0,.8.3582.8.8"/></g></svg>