<?xml version="1.0" encoding="UTF-8"?><svg id="b" xmlns="http://www.w3.org/2000/svg" viewBox="0 0 48 48"><defs><style>.d{fill:none;stroke:#fff;stroke-linecap:round;stroke-linejoin:round;}</style></defs><path id="c" class="d" d="m40.5,5.5H7.5c-1.1046,0-2,.8954-2,2v33c0,1.1046.8954,2,2,2h33c1.1046,0,2-.8954,2-2V7.5c0-1.1046-.8954-2-2-2Z"/><polyline class="d" points="12.5739 29.5 12.5739 17.8415 20.2977 29.5 20.2977 17.8415"/><path class="d" d="m30.6192,25.5904v.0478c0,2.1329-1.729,3.8619-3.8619,3.8619h0c-2.1329,0-3.8619-1.729-3.8619-3.8619v-3.9348c0-2.1329,1.729-3.8619,3.8619-3.8619h0c2.1329,0,3.8619,1.729,3.8619,3.8619v.0478"/><circle class="d" cx="35.5238" cy="17.8415" r="3.3415"/></svg>