<?xml version="1.0" encoding="UTF-8"?><svg id="b" xmlns="http://www.w3.org/2000/svg" viewBox="0 0 48 48"><defs><style>.c{fill:none;stroke:#000;stroke-linecap:round;stroke-linejoin:round;}</style></defs><polyline class="c" points="33.4337 19.9541 36.4803 18.4406 34.5197 29.5594"/><line class="c" x1="32.5197" y1="29.5594" x2="36.5197" y2="29.5594"/><path class="c" d="m25.2509,29.5594h0c-2.0341,0-3.3923-1.649-3.0337-3.6831l.6617-3.7526c.3587-2.0341,2.2984-3.6831,4.3325-3.6831h0c2.0341,0,3.3923,1.649,3.0337,3.6831l-.6617,3.7526c-.3587,2.0341-2.2984,3.6831-4.3325,3.6831Z"/><path class="c" d="m14.5714,29.5594h0c-2.0341,0-3.3923-1.649-3.0337-3.6831l.6617-3.7526c.3587-2.0341,2.2984-3.6831,4.3325-3.6831h0c2.0341,0,3.3923,1.649,3.0337,3.6831l-.6617,3.7526c-.3587,2.0341-2.2984,3.6831-4.3325,3.6831Z"/><ellipse class="c" cx="24" cy="24" rx="21.5" ry="12"/></svg>