<?xml version="1.0" encoding="UTF-8"?><svg id="a" xmlns="http://www.w3.org/2000/svg" viewBox="0 0 48 48"><defs><style>.b{fill:#000;}.c{stroke-linecap:round;}.c,.d{fill:none;stroke:#000;stroke-linejoin:round;}</style></defs><g><path class="c" d="m9.5,12.7496l3.6715-1.9989v14.686"/><path class="c" d="m24.9498,12.4797l-7.4386,11.2272"/><path class="d" d="m21.2362,25.436c-2.687,0-4.8644-2.1781-4.8644-4.8644v-4.9565c0-2.687,2.1781-4.8644,4.8644-4.8644s4.8644,2.1781,4.8644,4.8644v4.9565c0,2.687-2.1781,4.8644-4.8644,4.8644Z"/><path class="c" d="m36.6532,25.436v-14.686l-7.8827,9.8658h9.7295"/><circle class="b" cx="17.2116" cy="36.9683" r=".75"/><g><path class="c" d="m19.9412,28.4364v5.4669c-.0002,1.8298,1.4829,3.3133,3.3127,3.3135,1.8298.0002,3.3133-1.4829,3.3135-3.3127v-5.4677m.0007,5.4669v3.3131m10.0914-3.3131c.0004,1.8294-1.4823,3.3127-3.3117,3.3131h-.0014c-1.8294.0004-3.3127-1.4823-3.3131-3.3117v-2.1552c-.0004-1.8294,1.4823-3.3127,3.3117-3.3131h.0014c1.8294-.0004,3.3127,1.4823,3.3131,3.3117v.0014"/><path class="c" d="m36.6596,37.2164v-8.78"/></g></g><rect class="c" x="5.5" y="5.5" width="37" height="37" rx="2" ry="2"/></svg>