<?xml version="1.0" encoding="UTF-8"?><svg id="b" xmlns="http://www.w3.org/2000/svg" viewBox="0 0 48 48"><defs><style>.c{fill:none;stroke:#000;stroke-linecap:round;stroke-linejoin:round;}</style></defs><path class="c" d="m40.5,5.5H7.5c-1.1046,0-2,.8954-2,2v33c0,1.1046.8954,2,2,2h33c1.1046,0,2-.8954,2-2V7.5c0-1.1046-.8954-2-2-2Z"/><polyline class="c" points="12.7838 12.9549 15.4558 11.5 15.4558 22.1879"/><path class="c" d="m21.009,16.844c-1.4757,0-2.672,1.1963-2.672,2.672h0c0,1.4757,1.1963,2.672,2.672,2.672h1.7368c1.4757,0,2.672-1.1963,2.672-2.672h0c0-1.4757-1.1963-2.672-2.672-2.672"/><path class="c" d="m22.7458,16.844c1.4757,0,2.672-1.1963,2.672-2.672h0c0-1.4757-1.1963-2.672-2.672-2.672h-1.7368c-1.4757,0-2.672,1.1963-2.672,2.672h0c0,1.4757,1.1963,2.672,2.672,2.672"/><line class="c" x1="21.009" y1="16.844" x2="22.7458" y2="16.844"/><path class="c" d="m30.8074,16.844c-1.4757,0-2.672,1.1963-2.672,2.672h0c0,1.4757,1.1963,2.672,2.672,2.672h1.7368c1.4757,0,2.672-1.1963,2.672-2.672h0c0-1.4757-1.1963-2.672-2.672-2.672"/><path class="c" d="m32.5442,16.844c1.4757,0,2.672-1.1963,2.672-2.672h0c0-1.4757-1.1963-2.672-2.672-2.672h-1.7368c-1.4757,0-2.672,1.1963-2.672,2.672h0c0,1.4757,1.1963,2.672,2.672,2.672"/><line class="c" x1="30.8074" y1="16.844" x2="32.5442" y2="16.844"/><polyline class="c" points="12.7838 27.2669 15.4558 25.8121 15.4558 36.5"/><path class="c" d="m21.009,31.156c-1.4757,0-2.672,1.1963-2.672,2.672h0c0,1.4757,1.1963,2.672,2.672,2.672h1.7368c1.4757,0,2.672-1.1963,2.672-2.672h0c0-1.4757-1.1963-2.672-2.672-2.672"/><path class="c" d="m22.7458,31.156c1.4757,0,2.672-1.1963,2.672-2.672h0c0-1.4757-1.1963-2.672-2.672-2.672h-1.7368c-1.4757,0-2.672,1.1963-2.672,2.672h0c0,1.4757,1.1963,2.672,2.672,2.672"/><line class="c" x1="21.009" y1="31.156" x2="22.7458" y2="31.156"/><path class="c" d="m30.8074,31.156c-1.4757,0-2.672,1.1963-2.672,2.672h0c0,1.4757,1.1963,2.672,2.672,2.672h1.7368c1.4757,0,2.672-1.1963,2.672-2.672h0c0-1.4757-1.1963-2.672-2.672-2.672"/><path class="c" d="m32.5442,31.156c1.4757,0,2.672-1.1963,2.672-2.672h0c0-1.4757-1.1963-2.672-2.672-2.672h-1.7368c-1.4757,0-2.672,1.1963-2.672,2.672h0c0,1.4757,1.1963,2.672,2.672,2.672"/><line class="c" x1="30.8074" y1="31.156" x2="32.5442" y2="31.156"/></svg>