<?xml version="1.0" encoding="UTF-8"?><svg id="b" xmlns="http://www.w3.org/2000/svg" viewBox="0 0 48 48"><defs><style>.m{fill-rule:evenodd;}.m,.n{fill:none;stroke:#000;stroke-linecap:round;stroke-linejoin:round;}</style></defs><path id="c" class="n" d="m11.3026,27.1748v.907c0,3.6278,3.6278,3.6278,3.6278,3.6278h1.8139v-4.5348h-5.4417Z"/><path id="d" class="n" d="m36.6974,34.4304v-.907c0-3.6278-3.6278-3.6278-3.6278-3.6278h-1.8139l-.0424,4.5263,5.4841.0085Z"/><polyline class="n" points="16.7444 34.4295 16.7444 31.7087 16.7444 27.1739"/><path class="n" d="m16.7444,18.1043v-4.5348h-4.5348v-4.5348s5.4417,0,9.0696-4.5348h9.9765v13.6043"/><polyline class="n" points="31.2556 34.4295 31.2556 34.4227 31.2556 29.8947 31.2556 27.1739"/><path id="e" class="n" d="m11.3026,27.1748h24.4878c.907,0,.907-.907.907-.907v-7.2556s0-.907-.907-.907H15.8374c-4.5348,0-4.5348,4.5348-4.5348,4.5348v4.5348Z"/><path id="f" class="m" d="m23.093,20.8261h3.6278v3.6278h-3.6278v-3.6278Z"/><path id="g" class="m" d="m30.3487,20.8261h3.6278v3.6278h-3.6278v-3.6278Z"/><path id="h" class="m" d="m15.8374,20.8261h3.6278v3.6278h-3.6278v-3.6278Z"/><path id="i" class="n" d="m36.6974,34.4304H12.2096c-.907,0-.907.907-.907.907v7.2556s0,.907.907.907h19.953c4.5348,0,4.5348-4.5348,4.5348-4.5348v-4.5348Z"/><path id="j" class="m" d="m24.907,40.7791h-3.6278v-3.6278h3.6278v3.6278Z"/><path id="k" class="m" d="m17.6513,40.7791h-3.6278v-3.6278h3.6278v3.6278Z"/><path id="l" class="m" d="m32.1626,40.7791h-3.6278v-3.6278h3.6278v3.6278Z"/></svg>