<?xml version="1.0" encoding="UTF-8"?><svg id="a" xmlns="http://www.w3.org/2000/svg" viewBox="0 0 48 48"><defs><style>.aa{fill:none;stroke:#000;stroke-linecap:round;stroke-linejoin:round;}</style></defs><g id="e"><g id="f"><path id="g" class="aa" d="M19.38948658,25.87790087c-3.61149979,0-6.53919983,2.9048996-6.53929996,6.48820114.00580025,1.09469986.29059982,2.17020035.82800007,3.12630081l-1.15130043,3.52310181,3.666399-1.00590134c.97480011.54869843,2.07550049.83959961,3.19619942.84469986,3.61149979,0,6.53919983-2.9048996,6.53930092-6.48820114,0-3.58329964-2.92779922-6.48810005-6.53929901-6.48820114Z"/><path id="h" class="aa" d="M18.06088665,29.71760156v3.59499931"/><path id="i" class="aa" d="M19.85848644,31.51510217h-3.59499931"/></g><path id="j" class="aa" d="M42.49918583,15.88086107v22.61914062c0,2.2159996-1.7840004,4-4,4H9.49918583c-2.2159977,0-4-1.7840004-4-4V9.5000017c0-2.2159977,1.7840023-4,4-4h22.61914062"/><g id="k"><path id="l" class="aa" d="M35.54938725,27.75780084c2.77449799,0,5.02370071,2.23119926,5.02370071,4.98340034-.00439835.84080124-.22320175,1.66690063-.63610077,2.40119934l.8844986,2.70600128-2.81669998-.77259827c-.74890137.42139816-1.5943985.64490128-2.45550156.6487999-2.7745018,0-5.02370071-2.23120117-5.02370071-4.98339844,0-2.75219917,2.24919891-4.98340034,5.02370071-4.98340034l.000103-.00000381Z"/><path id="m" class="aa" d="M34.87458637,31.90540102c0,.53290176-.43199921.96480179-.96480179.96480179h0c-.53290176,0-.96480179-.43199921-.96480179-.96479988h0c0-.53289986.43199921-.96479988.96480179-.96479988h0c.53290176,0,.96480179.43199921.96480179.96479797Z"/></g><g id="n"><path id="o" class="aa" d="M36.85658482,37.52840212c-.11109924,1.57899857-.2983017,3.15409851-.60910034,4.9571991"/><path id="p" class="aa" d="M16.72608593,38.26670244c.18530083,1.33649826.55970001,2.70489883.89089966,4.22480011"/></g><g id="q"><path id="r" class="aa" d="M13.44968536,29.69540193c-1.77810001-.17650032-3.54160023-3.3654995-.35980034-5.13310051-2.99180031-1.03739929-.34990025-4.77490044,1.91629982-4.08180046-.17399979-3.76650047,4.68570042-4.53269958,6.94099903-2.6651001,2.44330025-6.31579971,11.30659866-4.45769978,10.74790192,1.36440086,3.88600159-1.53499985,6.15940094.85429955,4.36569977,3.79389954,4.11640167-1.21430016,5.38729858,5.14539909,1.96480179,6.21349907"/><path id="s" class="aa" d="M25.57358578,30.27790239c1.27400017-.15250015,2.75359917-.90380096,3.57360077-2.31550026-.58320045,1.65239906.54570007,2.03859901,2.32800102,1.8743"/><path id="t" class="aa" d="M24.81048611,24.86800173c-.17630005-1.28240013.6977005-1.48310089,1.95940018-1.19799995.04159927-1.62120056,2.86190033-2.07509995,2.32369995.72200012"/><path id="u" class="aa" d="M21.86208561,20.2751024c.22030067-1.33699989,1.97240067-1.26029968,2.54450035-.64690018.09180069-.66600037.34070015-1.07019997.75779915-1.1935997"/><path id="v" class="aa" d="M16.78098515,21.57980135c.50869942-.47310066,1.70499992-.06690025,1.79700089.6147995"/><path id="w" class="aa" d="M13.90058544,13.03860166c.60830021-.92510033,2.03759956-.83920002,2.00519943.31649971-.01570034.56309986-.39369965.94659996-.96409988.86130047.0472002.93430042-.72329998,1.20230007-1.18299961,1.17529964-.05370045-.0031004-1.1274004.05319977-1.24020004-.8427-1.09700012.09939957-2.25650024-.67459965-1.57429981-2.10330009.3185997-.66730022,1.46549988-1.02449989,2.23029995-.50090027.42269993.28929996.60290051.61069965.72609997,1.09399986v-.00019932Z"/></g><g id="x"><path id="y" class="aa" d="M37.84671238,11.96410539c-.9249382.00129128-1.67579651-.74890804-1.67708588-1.67561531-.00128555-.92670822.7474823-1.6789999,1.6724205-1.68029022.9249382-.00129128,1.67579651.74890804,1.67708588,1.67561531v.00233746c.00128555.92541695-.74643707,1.67666149-1.67008972,1.67795086-.00077438.00000095-.00155258.00000191-.00233078.00000191Z"/><path id="z" class="aa" d="M41.39914921,10.75354841c.02031708-.15499306.03121948-.31107903.03264999-.46739578-.00143051-.15631676-.01233292-.31240273-.03264999-.46739578l1.00998306-.79223824c.09443283-.07226849.11954498-.20411301.05831146-.30614471l-.95632935-1.66159487c-.05731964-.10313559-.18240356-.14725018-.29156494-.10282803l-1.19192123.48141909c-.24802017-.18965101-.51924515-.34672546-.80706024-.46739721l-.17960358-1.26898193c-.01638412-.11615229-.11617661-.20213604-.23325348-.20098114h-1.91733551c-.11707687-.0011549-.21686935.08482885-.23325348.20098114l-.17960358,1.26898193c-.28818512.11992073-.55949783.27704906-.80705261.46739721l-1.19658661-.48141909c-.10916138-.04442215-.2342453-.00030756-.29156494.10282803l-.95633698,1.66159487c-.06123352.10203171-.03612137.23387623.05831146.30614471l1.00765228.79223824c-.02023697.15500069-.03114319.31108189-.03264999.46739578.00143051.15631676.01233292.31240273.03264999.46739578l-1.00765228.79223728c-.09443283.07226849-.11954498.20411301-.05831146.30614471l.95633698,1.66159534c.05731964.10313511.18240356.14724922.29156494.10282707l1.19192123-.48141766c.24802017.18964958.51923752.34672356.80705261.46739578l.17960358,1.26898289c.01638412.11615276.11617661.20213604.23325348.20098114h1.91267014c.11707687.0011549.21686935-.08482838.23325348-.20098114l.17960358-1.26898289c.28818512-.11991978.55949783-.27704811.80705261-.46739578l1.19192123.48141766c.10916138.04442215.2342453.00030804.29156494-.10282707l.95633316-1.66159534c.06123352-.10203171.03612137-.23387623-.05831146-.30614471l-1.0006485-.79223728Z"/></g></g></svg>