<?xml version="1.0" encoding="UTF-8"?><svg id="a" xmlns="http://www.w3.org/2000/svg" viewBox="0 0 48 48"><defs><style>.b{fill:none;stroke:#000;stroke-linecap:round;stroke-linejoin:round;}</style></defs><path class="b" d="m40.5,5.5H7.5c-1.1046,0-2,.8954-2,2v33c0,1.1046.8954,2,2,2h33c1.1046,0,2-.8954,2-2V7.5c0-1.1046-.8954-2-2-2Z"/><polyline class="b" points="30.7148 22.5605 30.7144 13.5 25.8518 19.586 31.8544 19.586"/><polyline class="b" points="21.0087 22.5605 21.0082 13.5 16.1456 19.586 22.1482 19.586"/><line class="b" x1="17.5381" y1="34.5" x2="22.0683" y2="34.5"/><line class="b" x1="17.5381" y1="26.6729" x2="19.8032" y2="25.4395"/><line class="b" x1="19.8032" y1="25.4395" x2="19.8032" y2="34.5"/><line class="b" x1="27.2442" y1="34.5" x2="31.7744" y2="34.5"/><line class="b" x1="27.2442" y1="26.6729" x2="29.5093" y2="25.4395"/><line class="b" x1="29.5093" y1="25.4395" x2="29.5093" y2="34.5"/></svg>