<?xml version="1.0" encoding="UTF-8"?><svg id="a" xmlns="http://www.w3.org/2000/svg" viewBox="0 0 48 48"><defs><style>.b{fill:none;stroke:#000;stroke-linecap:round;stroke-linejoin:round;}</style></defs><path class="b" d="M38.5,5.5H9.5c-2.2091,0-4,1.7909-4,4v29c0,2.2091,1.7909,4,4,4h29c2.2091,0,4-1.7909,4-4V9.5c0-2.2091-1.7909-4-4-4Z"/><path class="b" d="M11.5009,18.7632c.5523.4628,1.1485.6748,2.4876.6748h.312c1.1043,0,1.9995-.8952,1.9995-1.9995h0c0-1.1043-.8952-1.9995-1.9995-1.9995"/><path class="b" d="M11.5,12.1062c.5535-.4613,1.1503-.6717,2.4894-.6681l.3111.0018c1.1043,0,1.9995.8952,1.9995,1.9995h0c0,1.1043-.8952,1.9995-1.9995,1.9995"/><line class="b" x1="12.7635" y1="15.4389" x2="14.3005" y2="15.4389"/><path class="b" d="M33.2,32.5c-1.1046,0-2,.8954-2,2h0c0,1.1046.8954,2,2,2h1.3c1.1046,0,2-.8954,2-2h0c0-1.1046-.8954-2-2-2"/><path class="b" d="M34.5,32.5c1.1046,0,2-.8954,2-2h0c0-1.1046-.8954-2-2-2h-1.3c-1.1046,0-2,.8954-2,2h0c0,1.1046.8954,2,2,2"/><line class="b" x1="33.2" y1="32.5" x2="34.5" y2="32.5"/></svg>