<svg xmlns="http://www.w3.org/2000/svg" viewBox="0 0 33.7825 40"><defs><style>.a{fill:none;stroke:#000;stroke-linecap:round;stroke-linejoin:round;}</style></defs><path class="a" d="M23.3777,25.1891a5.8866,5.8866,0,0,1,.8187-.6561c1.6166,1.1394,2.0864,2.4437,2.4482,4.3614a17.9133,17.9133,0,0,1,.1584,3.9408,1.4918,1.4918,0,0,1,.461-.0613,1.9167,1.9167,0,0,1,.3214.0341c.3942.073,6.4313-.08,6.4313-.08l.9106-5.9187.9106,5.9187s4.5151,2.5717,4.5529,3.11c.0928,1.3238-12.1992,5.5948-12.1992,5.5948s-.7841-4.1726-1.0707-4.9076a1.2686,1.2686,0,0,0-.6019-.6223c-.0532.43-.1121.86-.1741,1.2993L21.62,37.1238c-.0531-.4349-.1006-.864-.1306-1.3044a1.2561,1.2561,0,0,0-.6252.6048c-.3024.7222-1.2286,4.8864-1.2286,4.8864S7.4728,37.0147,7.61,35.6947c.06-.5783,4.5529-2.9665,4.5529-2.9665l.9106-5.9187.9105,5.9187s6.2276.0337,6.5459-.0121a2.3849,2.3849,0,0,1,.3281-.0233,1.4094,1.4094,0,0,1,.4558.0738,17.7466,17.7466,0,0,1,.29-3.9334,6.3749,6.3749,0,0,1,1.7769-3.6412ZM23.2385,28.36a1.2844,1.2844,0,0,0,.8569,2.2191h0a1.2885,1.2885,0,0,0,1.3061-1.2631h0a1.2885,1.2885,0,0,0-1.2632-1.306h0A1.2755,1.2755,0,0,0,23.2385,28.36ZM23.002,38.3944a1.3657,1.3657,0,0,1,2.3116,1.0045c-.0171.5085-.4636.9121-.7817,1.3668A8.0579,8.0579,0,0,0,23.88,43.5a8.0719,8.0719,0,0,0-.56-2.7718c-.2744-.4416-.7037-.7276-.7357-1.3921a1.37,1.37,0,0,1,.4128-.9647Z" transform="translate(-7.1088 -4)"/><path class="a" d="M11.7073,5.3765,13.3009,4.5v6.3744h1.5936" transform="translate(-7.1088 -4)"/><circle class="a" cx="12.6687" cy="2.6514" r="2.149"/><path class="a" d="M17.8648,10.0777a1.9571,1.9571,0,0,0,1.753.7968h.1593a2.1425,2.1425,0,0,0,2.1514-2.1336V6.5717" transform="translate(-7.1088 -4)"/><path class="a" d="M32.0706,10.3167a2.4993,2.4993,0,0,0,1.9123.5578h.2391a2.0717,2.0717,0,1,0,0-4.1434H32.0706V4.5h4.2231" transform="translate(-7.1088 -4)"/><path class="a" d="M29.1337,8.8027h-4.223L28.3369,4.5v6.3744" transform="translate(-7.1088 -4)"/><path class="a" d="M13.0734,17.7036V15.4272" transform="translate(-7.1088 -4)"/><path class="a" d="M34.9273,17.7036V15.4272" transform="translate(-7.1088 -4)"/><path class="a" d="M13.0734,23.1671V20.8907" transform="translate(-7.1088 -4)"/><path class="a" d="M34.9273,23.1671V20.8907" transform="translate(-7.1088 -4)"/><line class="a" x1="6.1921" y1="6.8744" x2="4.5985" y2="6.8744"/></svg>