<svg xmlns="http://www.w3.org/2000/svg" viewBox="0 0 48 48"><defs><style>.a{fill:none;stroke:#000;stroke-linecap:round;stroke-linejoin:round;}</style></defs><path class="a" d="M31.076,24A7.076,7.076,0,1,1,24,16.924,7.08,7.08,0,0,1,31.076,24Z"/><path class="a" d="M29,29,42.5,42.5m-37-37L19,19m0,10L5.5,42.5m37-37L29,19"/><path class="a" d="M24,24a10.7526,10.7526,0,0,1-2.5-6.5,8.8107,8.8107,0,0,1,9-9c6.783,0,12,6.5,12,14.748,0,10.252-7,19.252-18,19.252-10.24,0-16-7-16-13.5,0-5.5,4-8.5,7.5-8.5,4,0,7.5,4,7.5,8,0,3-1.5,5-4,5s-4-2-4-4.5c0-3.5,3.239-7.5,9.5-7.5A8.8832,8.8832,0,0,1,34,30c0,2.609-1.391,4.5-4,4.5s-4.5-2.599-4.5-5.5a10.9669,10.9669,0,0,1,1.037-4.544"/></svg>