<?xml version="1.0" encoding="UTF-8"?><svg id="a" xmlns="http://www.w3.org/2000/svg" viewBox="0 0 48 48"><defs><style>.b{fill:none;stroke:#000;stroke-linecap:round;stroke-linejoin:round;}</style></defs><g><path class="b" d="m37.4902,26.3783c0,2.9064-2.3561,5.2626-5.2626,5.2626h0c-2.9064,0-5.2626-2.3561-5.2626-5.2626v-3.4207c0-2.9064,2.3561-5.2626,5.2626-5.2626h0c2.9064,0,5.2626,2.3561,5.2626,5.2626"/><path class="b" d="m43.3523,17.6951h-4.357c-.8312,0-1.5051.6739-1.5051,1.5051v11.7567c0,1.578,1.2792,2.8572,2.8572,2.8572h3.1526"/></g><g><path class="b" d="m34.1197,31.2902c-1.9713-.7601-3.3699-2.6727-3.3699-4.9119v-3.4207c0-2.2393,1.3986-4.1519,3.3699-4.9119"/><path class="b" d="m41.275,17.6951v14.3208c0,.9931.8051,1.7982,1.7982,1.7982h.4268"/></g><g><line class="b" x1="19.9208" y1="29.4455" x2="8.2848" y2="29.4455"/><polyline class="b" points="15.2577 15.3682 8.2848 36.4186 11.4353 36.4186"/></g><path class="b" d="m38.9862,14.4207c.3371-.5602.1562-1.2877-.4041-1.6248-.3688-.2219-.8096-.2181-1.1642-.0305-.0004-.4012-.2035-.7924-.5723-1.0143-.5602-.3371-1.2877-.1562-1.6247.4041-.0771.1281-.1258.265-.1503.4039-.2451,1.1666.5971,3.1154.5971,3.1154,0,0,2.1162-.1687,3.0322-.9317.1112-.0868.2094-.1939.2864-.322Z"/><polygon class="b" points="6.6216 16.9842 8.0369 18.5506 10.0736 19.1058 8.5072 20.5211 7.952 22.5578 6.5367 20.9915 4.5 20.4362 6.0663 19.0209 6.6216 16.9842"/><path class="b" d="m11.4353,15.3682h1.6484c1.2978,0,2.4494.8317,2.8575,2.0637l5.6057,16.9231c.4081,1.2319,1.5597,2.0637,2.8575,2.0637h3.2353"/><path class="b" d="m13.0838,15.3682h3.8224c1.2978,0,2.4494.8317,2.8575,2.0637l5.6057,16.9231c.4081,1.2319,1.5597,2.0637,2.8575,2.0637h1.0165"/><line class="b" x1="16.833" y1="20.1237" x2="11.4353" y2="36.4186"/></svg>