<?xml version="1.0" encoding="UTF-8"?><svg id="a" xmlns="http://www.w3.org/2000/svg" viewBox="0 0 48 48"><defs><style>.c{fill:none;stroke:#000;stroke-linecap:round;stroke-linejoin:round;}</style></defs><line class="c" x1="19.5" y1="24" x2="19.5" y2="15"/><g><polyline class="c" points="29.6496 33.3307 28.2058 37.9682 26.7621 33.3307 25.3183 37.9682 23.8746 33.3307"/><path class="c" d="m31.1185,37.5769c.3195.2683.6645.3913,1.4393.3913h.3926c.6389,0,1.1569-.5191,1.1569-1.1594h0c0-.6403-.518-1.1594-1.1569-1.1594h-.7852c-.6389,0-1.1569-.5191-1.1569-1.1594h0c0-.6403.518-1.1594,1.1569-1.1594h.3926c.7747,0,1.1197.1229,1.4393.3913"/><g><path class="c" d="m17.3927,37.9682v-2.8875c0-.9665-.7835-1.75-1.75-1.75h0c-.9665,0-1.75.7835-1.75,1.75"/><line class="c" x1="13.8927" y1="37.9682" x2="13.8927" y2="33.3307"/></g><path class="c" d="m22.3724,37.085c-.3014.5276-.8695.8831-1.5206.8831h0c-.9665,0-1.75-.7835-1.75-1.75v-1.1375c0-.9665.7835-1.75,1.75-1.75h0c.9665,0,1.75.7835,1.75,1.75v.5688s-3.5,0-3.5,0"/></g><circle id="b" class="c" cx="24" cy="24" r="21.5"/><g><circle class="c" cx="12.7059" cy="24" r="4.5"/><circle class="c" cx="24" cy="24" r="4.5"/><path class="c" d="m39.3254,26.002c-.7367,1.4806-2.2652,2.498-4.0313,2.498-2.4853,0-4.5-2.0147-4.5-4.5s2.0147-4.5,4.5-4.5c1.7664,0,3.2951,1.0178,4.0317,2.4989"/></g><line class="c" x1="17.2059" y1="24" x2="17.2059" y2="28.5"/></svg>