<?xml version="1.0" encoding="UTF-8"?><svg id="a" xmlns="http://www.w3.org/2000/svg" viewBox="0 0 48 48"><defs><style>.c{fill:none;stroke:#000;stroke-linecap:round;stroke-linejoin:round;}</style></defs><circle id="b" class="c" cx="24" cy="24" r="21.5"/><g><circle class="c" cx="12.7059" cy="24" r="4.5"/><circle class="c" cx="24" cy="24" r="4.5"/><path class="c" d="m39.3254,26.002c-.7367,1.4806-2.2652,2.498-4.0313,2.498-2.4853,0-4.5-2.0147-4.5-4.5s2.0147-4.5,4.5-4.5c1.7664,0,3.2951,1.0178,4.0317,2.4989"/></g><line class="c" x1="19.5" y1="24" x2="19.5" y2="15"/><g><g><path class="c" d="m24.8527,35.0807c0-.9665.7835-1.75,1.75-1.75h0c.9665,0,1.75.7835,1.75,1.75v2.8875"/><line class="c" x1="24.8527" y1="33.3307" x2="24.8527" y2="37.9682"/><path class="c" d="m28.3527,35.0807c0-.9665.7835-1.75,1.75-1.75h0c.9665,0,1.75.7835,1.75,1.75v2.8875"/></g><g><path class="c" d="m23.102,36.2182c0,.9665-.7835,1.75-1.75,1.75h0c-.9665,0-1.75-.7835-1.75-1.75v-1.1375c0-.9665.7835-1.75,1.75-1.75h0c.9665,0,1.75.7835,1.75,1.75"/><line class="c" x1="23.102" y1="37.9682" x2="23.102" y2="33.3307"/></g><g><path class="c" d="m17.1849,37.9682v-5.775c0-.6765.5485-1.225,1.225-1.225h0c.6029,0,.9793.1785,1.2374.5125"/><line class="c" x1="16.1473" y1="33.3307" x2="18.5973" y2="33.3307"/></g></g><line class="c" x1="17.2059" y1="24" x2="17.2059" y2="28.5"/></svg>