<?xml version="1.0" encoding="UTF-8"?><svg id="a" xmlns="http://www.w3.org/2000/svg" viewBox="0 0 48 48"><defs><style>.b{fill:none;stroke:#000;stroke-linecap:round;stroke-linejoin:round;}</style></defs><path class="b" d="m29.7289,33.5462-18.9708-3.3184l3.3928-5.8549m16.5742,6.8645c-2.3849,5.4624-4.1886,6.0557-6.6568,6.1845-2.4682.1289-5.038-1.274-6.0361-3.2653l-7.2741-18.3364m.0002,14.4069v-14.4064"/><path class="b" d="m37.242,17.7813l-3.3915,5.8528m-1.2173,11.8332l-7.0847-17.8463c-.4516-1.1375-2.0507-1.1672-2.5443-.0473l-2.9671,6.7325m22.4629-9.1439c0-2.629-1.9557-4.8509-4.5718-5.194-2.6161-.3432-4.8667.8846-7.0209,6.2422m11.5375,16.6381c0,2.3711-1.5985,4.4467-3.8973,5.0603-2.2988.6137-4.7247-.3874-5.9146-2.4409m4.6089-17.6858v14.4064m5.2582-17.026l-.0552,17.6858"/><path class="b" d="m27.9631,23.6818l-2.9671,6.7325c-.4936,1.1199-2.0927,1.0902-2.5443-.0473l-7.0847-17.8258c-.9794-2.1477-3.6158-3.0546-5.9146-2.4409-2.2988.6137-3.8973,2.6892-3.8973,5.0603v.0002s-.0552,17.6858-.0552,17.6858v.0002c0,2.629,1.9557,4.8509,4.5718,5.194,2.6161.3432,5.5059-1.2767,7.2899-5.5742"/><path class="b" d="m17.1733,17.0857l1.0981-2.6225c1.0053-2.2496,3.1923-3.7472,5.6605-3.876,2.4682-.1289,4.9168.8942,6.0507,3.2906l7.2595,18.3111"/></svg>