<svg xmlns="http://www.w3.org/2000/svg" viewBox="0 0 48 48"><defs><style>.a{fill:none;stroke:#000;stroke-linecap:round;stroke-linejoin:round;}</style></defs><path class="a" d="M31.253,11.9025a16.3835,16.3835,0,0,0-6.9658-2.57,16.6586,16.6586,0,1,0-4.004,33.0746,16.8566,16.8566,0,0,0,5.2949-.25,3.8029,3.8029,0,0,0,1.8933-6.4093l-1.17-1.17a2.5835,2.5835,0,0,1,.3316-3.9327,2.6776,2.6776,0,0,1,3.4171.3792l1.6021,1.6021a3.8107,3.8107,0,0,0,6.31-1.5273,16.7022,16.7022,0,0,0,.6753-7.6689,16.3761,16.3761,0,0,0-2.685-6.9067"/><circle class="a" cx="17.3119" cy="17.3055" r="2.8035"/><circle class="a" cx="15.2527" cy="32.9047" r="2.8035"/><circle class="a" cx="12.6979" cy="24.6352" r="2.8035"/><path class="a" d="M28.7744,23.4159a4.2136,4.2136,0,0,0-8.0173-1.8222l-.01-.0122S18.9709,24.9,17.0812,25.166c.7186,1.5437,4.0563,3.8526,8.416,2.3654l-.005-.0061A4.2188,4.2188,0,0,0,28.7744,23.4159Z"/><path class="a" d="M25.512,19.3036C26.3967,15.7973,39.119,3.1548,42.0734,5.87S31.7839,21.429,28.5979,22.2063"/></svg>