<?xml version="1.0" encoding="UTF-8"?><svg id="a" xmlns="http://www.w3.org/2000/svg" viewBox="0 0 48 48"><defs><style>.ag{fill:none;stroke:#000;stroke-linecap:round;stroke-linejoin:round;}.ah{fill:#000;stroke-width:0px;}</style></defs><path id="b" class="ag" d="M38.5001,5.5H9.5001c-2.2091,0-4,1.7909-4,4v29c0,2.2091,1.7909,4,4,4h29c2.2091,0,4-1.7909,4-4V9.5c0-2.2091-1.7909-4-4-4Z"/><g id="c"><polyline id="d" class="ag" points="19.0978 23.7439 15.3706 12.2755 11.5 23.7439"/><line id="e" class="ag" x1="12.7902" y1="19.8733" x2="17.8076" y2="19.8733"/></g><path id="f" class="ag" d="M28.0563,19.8733h0c0,2.1503-1.7203,3.8706-3.8706,3.8706h0c-2.1503,0-3.8706-1.7203-3.8706-3.8706v-3.8706c0-2.1503,1.7203-3.8706,3.8706-3.8706h0c2.1503,0,3.7272,1.7203,3.7272,3.8706h0"/><g id="g"><line id="h" class="ag" x1="28.9022" y1="12.2755" x2="36.5" y2="12.2755"/><line id="i" class="ag" x1="32.7728" y1="23.7439" x2="32.7728" y2="12.2755"/></g><g id="j"><line id="k" class="ag" x1="8" y1="26.3254" x2="11.9194" y2="26.3254"/><line id="l" class="ag" x1="8" y1="30.2448" x2="10.5476" y2="30.2448"/><line id="m" class="ag" x1="8" y1="26.3254" x2="8" y2="34.1642"/></g><g id="n"><circle id="o" class="ah" cx="13.3273" cy="26.6194" r=".7742"/><line id="p" class="ag" x1="13.3273" y1="28.971" x2="13.3273" y2="34.1642"/></g><g id="q"><g id="r"><path id="s" class="ag" d="M14.7352,30.9307c0-1.0778.8819-1.9597,1.9597-1.9597h0c1.0778,0,1.9597.8819,1.9597,1.9597v1.2738c0,1.0778-.8819,1.9597-1.9597,1.9597h0c-1.0778,0-1.9597-.8819-1.9597-1.9597"/></g><line id="t" class="ag" x1="14.7352" y1="34.1642" x2="14.7352" y2="26.3254"/></g><path id="u" class="ag" d="M23.4361,33.1844c-.294.5879-.9798.9798-1.6657.9798h0c-1.0778,0-1.9597-.8819-1.9597-1.9597v-1.2738c0-1.0778.8819-1.9597,1.9597-1.9597h0c1.0778,0,1.9597.8819,1.9597,1.9597v.6859h-3.9194"/><g id="v"><path id="w" class="ag" d="M25.0072,30.9307c0-1.0778.8819-1.9597,1.9597-1.9597h0"/><line id="x" class="ag" x1="25.0072" y1="28.971" x2="25.0072" y2="34.1642"/></g><g id="y"><path id="z" class="ag" d="M31.9757,34.1642v-3.2335c0-1.0778-.8819-1.9597-1.9597-1.9597h0c-1.0778,0-1.9597.8819-1.9597,1.9597v3.2335"/><line id="aa" class="ag" x1="28.0563" y1="30.9307" x2="28.0563" y2="28.971"/></g><path id="ab" class="ag" d="M36.9129,33.1844c-.294.5879-.9798.9798-1.6657.9798h0c-1.0778,0-1.9597-.8819-1.9597-1.9597v-1.2738c0-1.0778.8819-1.9597,1.9597-1.9597h0c1.0778,0,1.9597.8819,1.9597,1.9597v.6859h-3.9194"/><g id="ac"><g id="ad"><line id="ae" class="ag" x1="39.0201" y1="27.3053" x2="39.0201" y2="34.1642"/></g><line id="af" class="ag" x1="37.9423" y1="28.971" x2="40" y2="28.971"/></g></svg>