<?xml version="1.0" encoding="UTF-8"?><svg id="b" xmlns="http://www.w3.org/2000/svg" viewBox="0 0 48 48"><defs><style>.c{fill:none;stroke:#000;stroke-linecap:round;stroke-linejoin:round;}</style></defs><path class="c" d="m29.5426,14.2752c1.0078,0,1.9147.907,1.9147,1.9147s-.907,1.9147-1.9147,1.9147-1.9147-.907-1.9147-1.9147.907-1.9147,1.9147-1.9147h0Zm-11.0853,0c1.0078,0,1.9147.907,1.9147,1.9147s-.907,1.9147-1.9147,1.9147-1.9147-.907-1.9147-1.9147.8062-1.9147,1.9147-1.9147Z"/><path class="c" d="m35.7907,22.0349H12.2093c-1.0078,0-1.9147.8062-1.9147,1.9147h0v5.9457c0,7.5581,6.1473,13.6047,13.7054,13.6047s13.7054-6.1473,13.7054-13.6047v-6.0465c0-1.0078-.907-1.814-1.9147-1.814h0Z"/><path class="c" d="m24,6.4147h0c7.5581,0,13.7054,6.1473,13.7054,13.7054h0c0,1.0078-.8062,1.9147-1.9147,1.9147H12.2093c-1.0078,0-1.9147-.8062-1.9147-1.9147h0c0-7.6589,6.1473-13.7054,13.7054-13.7054Z"/><line class="c" x1="11.7054" y1="4.5" x2="15.938" y2="8.7326"/><line class="c" x1="36.2946" y1="4.5" x2="31.9612" y2="8.8333"/><circle class="c" cx="24" cy="38.8643" r="1.7132"/><path class="c" d="m24,36.345c0-.2016.1008-.4031.3023-.5039l3.0233-1.7132h0c.4031-.3023.7054-.6046.7054-1.0078v-1.3101"/><path class="c" d="m24,36.9496v-9.0698"/><path class="c" d="m25.7132,27.6783l-1.7132-2.9225-1.7132,3.0233,3.4264-.1008Z"/><circle class="c" cx="19.7674" cy="31.0039" r="1.2093"/><path class="c" d="m19.7674,32.314v1.7132c0,.3023.3023.5039.7054.7054l3.124,1.3101c.2016.1008.4031.2016.4031.4031"/><path class="c" d="m29.3411,28.7868v2.4186h-2.4186v-2.4186h2.4186Z"/></svg>