<svg xmlns="http://www.w3.org/2000/svg" viewBox="0 0 48 48"><defs><style>.a{fill:none;stroke:#000;stroke-linecap:round;stroke-linejoin:round;}</style></defs><path class="a" d="M19.8,3a1.06,1.06,0,0,0-1,.88L18,9.45a15.2,15.2,0,0,0-3.55,2.07L9.19,9.4a1,1,0,0,0-1.28.46l-4.2,7.27A1.06,1.06,0,0,0,4,18.48L8.39,22A17.67,17.67,0,0,0,8.24,24a17.35,17.35,0,0,0,.15,2.05L4,29.52a1.06,1.06,0,0,0-.25,1.35l4.2,7.27a1,1,0,0,0,1.28.46l5.23-2.12A15.71,15.71,0,0,0,18,38.55l.79,5.57a1.06,1.06,0,0,0,1,.88h8.4a1.05,1.05,0,0,0,1-.88L30,38.55a15.4,15.4,0,0,0,3.55-2.07L38.8,38.6a1,1,0,0,0,1.28-.46l4.2-7.27A1.06,1.06,0,0,0,44,29.52L39.6,26.05A17.35,17.35,0,0,0,39.74,24,17.5,17.5,0,0,0,39.6,22L44,18.48a1.06,1.06,0,0,0,.25-1.35l-4.2-7.27a1.05,1.05,0,0,0-1.28-.46l-5.23,2.12A15.71,15.71,0,0,0,30,9.45l-.79-5.57a1.07,1.07,0,0,0-1-.88Z"/><circle class="a" cx="24" cy="24.03" r="9.64"/><line class="a" x1="19.63" y1="32.63" x2="32.59" y2="19.65"/></svg>