<?xml version="1.0" encoding="UTF-8"?><svg id="Layer_2" xmlns="http://www.w3.org/2000/svg" viewBox="0 0 48 48"><defs><style>.cls-1{fill:none;stroke:#000;stroke-linecap:round;stroke-linejoin:round;}</style></defs><rect class="cls-1" x="5.5" y="5.5" width="37" height="37" rx="4" ry="4"/><g id="Layer_3-2"><g id="Layer_86"><path id="_64" class="cls-1" d="m36.9443,27.3216c-2.0136-2.1361-7.5815-1.2694-8.8947-1.0506-1.9173-1.8647-4.7975-4.7188-5.2528-5.5417,1.2081-1.9698,2.749-4.0709,2.8102-5.7868,0-1.961-.7879-4.0622-2.9591-4.0622-.7539.0226-1.4454.4243-1.8385,1.0681-1.0068,2.6789.499,5.4454,1.9873,8.7546-.8755,2.4513-3.1867,5.4541-4.8326,8.3169-2.2324.8755-6.8549,2.6789-7.4239,5.4804-.1438.7117.1032,1.4459.6478,1.926.5305.4675,1.2194.7148,1.926.6916,2.854,0,2.7052-4.6312,4.8501-8.098,1.6109-.5603,7.494-2.3025,10.0853-2.7752,3.0203,2.6264,4.9551,4.4736,6.5397,4.7713,1.2265.3359,2.493-.386,2.8289-1.6125.2021-.7378.0245-1.5279-.4739-2.1082v.0263Z"/></g></g></svg>