<?xml version="1.0" encoding="UTF-8"?><svg id="b" xmlns="http://www.w3.org/2000/svg" viewBox="0 0 48 48"><defs><style>.c{fill:none;stroke:#000;stroke-linecap:round;stroke-linejoin:round;}</style></defs><rect class="c" x="5.5" y="5.5" width="37" height="37" rx="4" ry="4"/><path class="c" d="M31.2105,34c-1.1363,0-2.2206-.6559-2.7132-1.7607l-4.4978-10.0887-2.6351,5.911h.8378c1.6396,0,2.9688,1.3293,2.9688,2.9688s-1.3293,2.9688-2.9688,2.9688h-5.4119c-1.0055,0-1.9427-.5091-2.4903-1.3524-.5474-.8436-.6306-1.9068-.2213-2.8253l5.886-13.2028c.7095-1.5911,2.2934-2.6188,4.0351-2.6188h.0002c1.7419,0,3.3256,1.0282,4.0346,2.6191l5.886,13.2025c.6675,1.4976-.0051,3.2527-1.5027,3.9205-.3927.1751-.8032.2579-1.2073.2579Z"/></svg>