<svg xmlns="http://www.w3.org/2000/svg" viewBox="0 0 48 48"><defs><style>.a{fill:none;stroke:#000;stroke-linecap:round;stroke-linejoin:round;}</style></defs><path class="a" d="M10.66,16.83a2.78,2.78,0,0,1,2.79,2.77v9.87a2.79,2.79,0,0,1-5.57,0V19.61a2.77,2.77,0,0,1,2.76-2.78Z"/><path class="a" d="M37.34,16.83a2.77,2.77,0,0,1,2.78,2.76v9.88a2.79,2.79,0,0,1-5.57,0V19.61a2.78,2.78,0,0,1,2.78-2.78Z"/><path class="a" d="M24,6.82A10.55,10.55,0,0,0,13.45,17.37h0V33.49a2,2,0,0,0,2,2h17.1a2,2,0,0,0,2-2V17.37A10.55,10.55,0,0,0,24,6.82Z"/><path class="a" d="M22.84,35.5v5.22a2.79,2.79,0,0,1-2.78,2.78h0a2.8,2.8,0,0,1-2.79-2.78V35.5"/><path class="a" d="M30.73,35.5v5.22a2.8,2.8,0,0,1-2.79,2.78h0a2.79,2.79,0,0,1-2.78-2.78V35.5"/><line class="a" x1="17.27" y1="35.5" x2="30.73" y2="35.5"/><line class="a" x1="17.09" y1="4.5" x2="19.01" y2="8.07"/><line class="a" x1="30.91" y1="4.5" x2="28.89" y2="8.02"/><line class="a" x1="18.5" y1="28.655" x2="29.5" y2="17.655"/><line class="a" x1="18.5" y1="17.655" x2="29.5" y2="28.655"/></svg>