<?xml version="1.0" encoding="UTF-8"?><svg id="a" xmlns="http://www.w3.org/2000/svg" viewBox="0 0 48 48"><defs><style>.c{fill:none;stroke:#000;stroke-linecap:round;stroke-linejoin:round;}</style></defs><path id="b" class="c" d="M39.2448,26.0019c.0872-.6639,.134-1.3324,.1401-2.0019-.0061-.6695-.0529-1.3381-.1401-2.0019l4.3342-3.3933c.4052-.3095,.513-.8743,.2502-1.3113l-4.104-7.1169c-.246-.4417-.7828-.6307-1.2512-.4404l-5.115,2.062c-1.0643-.8123-2.2283-1.4851-3.4634-2.0019l-.7707-5.4353c-.0703-.4975-.4986-.8658-1.001-.8608h-8.228c-.5024-.0049-.9307,.3633-1.001,.8608l-.7708,5.4353c-1.2367,.5136-2.401,1.1867-3.4634,2.0019l-5.135-2.062c-.4684-.1903-1.0052-.0013-1.2512,.4404l-4.104,7.1169c-.2628,.437-.155,1.0017,.2502,1.3113l4.3242,3.3933c-.0869,.6639-.1337,1.3324-.1401,2.0019,.0061,.6695,.0529,1.3381,.1401,2.0019l-4.3242,3.3933c-.4052,.3095-.513,.8743-.2502,1.3113l4.104,7.1169c.246,.4417,.7828,.6307,1.2512,.4404l5.115-2.062c1.0643,.8123,2.2282,1.4851,3.4634,2.0019l.7708,5.4353c.0703,.4975,.4986,.8658,1.001,.8608h8.208c.5024,.0049,.9307-.3633,1.001-.8608l.7708-5.4353c1.2367-.5136,2.401-1.1867,3.4634-2.0019l5.115,2.062c.4685,.1903,1.0052,.0013,1.2512-.4404l4.104-7.1169c.2628-.437,.155-1.0017-.2502-1.3113l-4.2942-3.3933Z"/><circle class="c" cx="24" cy="24" r="12.0117"/><circle class="c" cx="18.4946" cy="29.5054" r="4.0039"/><path class="c" d="M12.6599,20.1677c4.3478-2.7168,9.9953-2.0733,13.6205,1.5519s4.2687,9.2728,1.5519,13.6205"/></svg>