<?xml version="1.0" encoding="UTF-8"?><svg id="b" xmlns="http://www.w3.org/2000/svg" viewBox="0 0 48 48"><defs><style>.c{fill:none;stroke:#000;stroke-linecap:round;stroke-linejoin:round;}.d{fill:#000;stroke-width:1px;}</style></defs><path class="c" d="m31.3697,9.3304v1.8874l-2.6563,1.5279v-3.1956c0-2.4166-1.9572-4.3739-4.3639-4.3739h-.689c-2.4166,0-4.3738,1.9573-4.3738,4.3739v10.9547c0,.5093-.2696.9787-.719,1.2383l-3.9145,2.2569-2.6763-1.5478,3.535-2.0371c.689-.3995,1.1184-1.1384,1.1184-1.9373v-9.1373c0-3.7747,3.0657-6.8404,6.8404-6.8404h1.0685c3.7748,0,6.8305,3.0557,6.8305,6.8304Z"/><path class="c" d="m28.7134,32.2185v3.0357l-3.595-2.0771c-.689-.3894-1.5478-.3894-2.2369,0l-3.595,2.0771-2.6563,1.5279-1.6577.9586c-3.2655,1.8874-7.4496.7689-9.337-2.4965l-.2696-.4693-.2696-.4594c-1.8874-3.2754-.7689-7.4496,2.5065-9.3369l1.6976-.9787,2.6763,1.5479-2.896,1.6677c-2.097,1.2083-2.8161,3.8846-1.6077,5.9716l.3395.5892c1.2083,2.097,3.8846,2.8161,5.9817,1.6077l2.836-1.6377,2.6563-1.5378,3.9944-2.3068.0099.01c.4394-.2596.9787-.2596,1.4181,0h.0099l3.9944,2.3068Z"/><path class="c" d="m16.6303,29.5223v4.2241l-2.836,1.6377c-2.0971,1.2083-4.7734.4893-5.9817-1.6077l-.3395-.5892c-1.2083-2.0871-.4893-4.7634,1.6077-5.9716l2.896-1.6677,3.535,2.0471c.689.3994,1.1184,1.1284,1.1184,1.9273Z"/><path class="c" d="m22.8816,14.8228l-3.595-2.0771v-3.1956c0-2.4166,1.9572-4.3739,4.3738-4.3739h.689c2.4067,0,4.3639,1.9573,4.3639,4.3739v3.1956l-3.595,2.0771c-.689.3995-1.5478.3995-2.2369,0Z"/><path class="c" d="m33.3469,24l-3.9145,2.2569c-.4494.2596-.719.729-.719,1.2383v4.7235l-3.9944-2.3068h-.0099c-.4394-.2596-.9787-.2596-1.4181,0l-.0099-.01-3.9944,2.3068v-4.7135c0-.5093-.2696-.9786-.719-1.2383l-3.9145-2.2569,3.9145-2.2569c.4494-.2596.719-.729.719-1.2383v-4.7134l3.9944,2.3068.0099-.01c.4394.2596.9787.2596,1.4181,0l.0099.01,3.9944-2.3068v4.7134c0,.5093.2696.9787.719,1.2383l3.9145,2.2569Z"/><path class="c" d="m40.5169,33.1972l-.3395.5991c-1.2083,2.0771-3.8746,2.7961-5.9717,1.5878l-2.836-1.6377v-4.2241c0-.7989.4294-1.5279,1.1184-1.9273l3.535-2.0471,2.896,1.6677c2.097,1.2083,2.8061,3.8846,1.5977,5.9816Z"/><path class="c" d="m16.6303,29.5223v4.2241l-2.836,1.6377c-2.0971,1.2083-4.7734.4893-5.9817-1.6077l-.3395-.5892c-1.2083-2.0871-.4893-4.7634,1.6077-5.9716l2.896-1.6677,3.535,2.0471c.689.3994,1.1184,1.1284,1.1184,1.9273Z"/><path class="c" d="m22.8816,14.8228l-3.595-2.0771v-3.1956c0-2.4166,1.9572-4.3739,4.3738-4.3739h.689c2.4067,0,4.3639,1.9573,4.3639,4.3739v3.1956l-3.595,2.0771c-.689.3995-1.5478.3995-2.2369,0Z"/><path class="c" d="m33.3469,24l-3.9145,2.2569c-.4494.2596-.719.729-.719,1.2383v4.7235l-3.9944-2.3068h-.0099c-.4394-.2596-.9787-.2596-1.4181,0l-.0099-.01-3.9944,2.3068v-4.7135c0-.5093-.2696-.9786-.719-1.2383l-3.9145-2.2569,3.9145-2.2569c.4494-.2596.719-.729.719-1.2383v-4.7134l3.9944,2.3068.0099-.01c.4394.2596.9787.2596,1.4181,0l.0099.01,3.9944-2.3068v4.7134c0,.5093.2696.9787.719,1.2383l3.9145,2.2569Z"/><path class="c" d="m40.5169,33.1972l-.3395.5991c-1.2083,2.0771-3.8746,2.7961-5.9717,1.5878l-2.836-1.6377v-4.2241c0-.7989.4294-1.5279,1.1184-1.9273l3.535-2.0471,2.896,1.6677c2.097,1.2083,2.8061,3.8846,1.5977,5.9816Z"/><path class="c" d="m19.2866,27.4951v4.7135l-2.6563,1.5378v-4.2241c0-.7989-.4294-1.5279-1.1184-1.9273l-3.535-2.0471-2.6763-1.5479-1.6976-.9786c-3.2755-1.8874-4.3939-6.0615-2.5065-9.3369l.2696-.4594.2696-.4694c1.8874-3.2654,6.0715-4.3838,9.337-2.4965l1.6577.9587v3.0357l-2.836-1.6377c-2.0971-1.2083-4.7734-.4893-5.9817,1.6077l-.3395.5892c-1.2083,2.0871-.4893,4.7633,1.6077,5.9716l2.896,1.6677,2.6763,1.5478,3.9145,2.2569c.4494.2596.719.729.719,1.2383Z"/><path class="c" d="m15.5118,20.415l-3.535,2.0371-2.896-1.6677c-2.097-1.2083-2.8161-3.8846-1.6077-5.9716l.3395-.5892c1.2083-2.097,3.8846-2.8161,5.9817-1.6077l2.836,1.6377v4.2241c0,.7989-.4294,1.5378-1.1184,1.9373Z"/><path class="c" d="m36.0232,25.5479l-3.535,2.0471c-.689.3994-1.1184,1.1284-1.1184,1.9273v9.1472c0,3.7748-3.0557,6.8305-6.8305,6.8305h-1.0685c-3.7747,0-6.8404-3.0657-6.8404-6.8405v-1.8773l2.6563-1.5279v3.1956c0,2.4166,1.9572,4.3739,4.3738,4.3739h.689c2.4067,0,4.3639-1.9573,4.3639-4.3739v-10.9547c0-.5093.2696-.9786.719-1.2383l3.9145-2.2569,2.6763,1.5479Z"/><path class="c" d="m25.1184,33.1772l3.595,2.0771v3.1956c0,2.4166-1.9572,4.3739-4.3639,4.3739h-.689c-2.4166,0-4.3738-1.9573-4.3738-4.3739v-3.1956l3.595-2.0771c.689-.3894,1.5478-.3894,2.2369,0Z"/><path class="c" d="m40.3971,23.0214l-1.6976.9786-2.6763-1.5478,2.896-1.6677c2.097-1.2083,2.8061-3.8846,1.5977-5.9816l-.3395-.5892c-1.2083-2.0871-3.8746-2.8061-5.9717-1.5977l-2.836,1.6377-2.6563,1.5379-3.9944,2.3068-.0099-.01c-.4394.2596-.9787.2596-1.4181,0l-.0099.01-3.9944-2.3068v-3.0457l3.595,2.0771c.689.3995,1.5478.3995,2.2369,0l3.595-2.0771,2.6563-1.5279,1.6577-.9587c3.2655-1.8873,7.4496-.7689,9.337,2.4965l.2696.4694.2696.4594c1.8874,3.2754.7689,7.4496-2.5065,9.3369Z"/><path class="c" d="m29.4324,21.7431l3.9145,2.2569-3.9145,2.2569c-.4494.2596-.719.729-.719,1.2383v4.7235l-3.9944-2.3068h-.0099c-.4394-.2596-.9787-.2596-1.4181,0l-.0099-.01-3.9944,2.3068v-4.7135c0-.5093-.2696-.9786-.719-1.2383l-3.9145-2.2569,3.9145-2.2569c.4494-.2596.719-.729.719-1.2383v-4.7134l3.9944,2.3068.0099-.01c.4394.2596.9787.2596,1.4181,0l.0099.01,3.9944-2.3068v4.7134c0,.5093.2696.9787.719,1.2383Z"/><path class="c" d="m38.9192,20.7845l-2.896,1.6677-3.535-2.0371c-.689-.3995-1.1184-1.1384-1.1184-1.9373v-4.2241l2.836-1.6377c2.0971-1.2083,4.7634-.4893,5.9717,1.5977l.3395.5892c1.2083,2.097.4993,4.7733-1.5977,5.9816Z"/><path class="c" d="m16.6303,14.2536v4.2241c0,.7989-.4294,1.5378-1.1184,1.9373l-3.535,2.0371-2.896-1.6677c-2.097-1.2083-2.8161-3.8846-1.6077-5.9716l.3395-.5892c1.2083-2.097,3.8846-2.8161,5.9817-1.6077l2.836,1.6377Z"/><path class="c" d="m28.7134,35.2543v3.1956c0,2.4166-1.9572,4.3739-4.3639,4.3739h-.689c-2.4166,0-4.3738-1.9573-4.3738-4.3739v-3.1956l3.595-2.0771c.689-.3894,1.5478-.3894,2.2369,0l3.595,2.0771Z"/><path class="c" d="m42.9036,34.3156l-.2696.4594-.2696.4693c-1.8874,3.2655-6.0715,4.3839-9.337,2.4965l-1.6577-.9586v-3.0358l2.836,1.6377c2.0971,1.2083,4.7634.4893,5.9717-1.5878l.3395-.5991c1.2083-2.097.4993-4.7734-1.5977-5.9816l-2.896-1.6677-2.6763-1.5479-3.9145-2.2569c-.4494-.2596-.719-.729-.719-1.2383v-4.7134l2.6563-1.5379v4.2241c0,.7989.4294,1.5378,1.1184,1.9373l3.535,2.0371,2.6763,1.5478,1.6976.9787c3.2755,1.8873,4.3939,6.0615,2.5065,9.3369Z"/><path class="c" d="m33.3469,24l-3.9145,2.2569c-.4494.2596-.719.729-.719,1.2383v4.7235l-3.9944-2.3068h-.0099c-.4394-.2596-.9787-.2596-1.4181,0l-.0099-.01-3.9944,2.3068v-4.7135c0-.5093-.2696-.9786-.719-1.2383l-3.9145-2.2569,3.9145-2.2569c.4494-.2596.719-.729.719-1.2383v-4.7134l3.9944,2.3068.0099-.01c.4394.2596.9787.2596,1.4181,0l.0099.01,3.9944-2.3068v4.7134c0,.5093.2696.9787.719,1.2383l3.9145,2.2569Z"/><path class="c" d="m38.9192,20.7845l-2.896,1.6677-3.535-2.0371c-.689-.3995-1.1184-1.1384-1.1184-1.9373v-4.2241l2.836-1.6377c2.0971-1.2083,4.7634-.4893,5.9717,1.5977l.3395.5892c1.2083,2.097.4993,4.7733-1.5977,5.9816Z"/><circle class="d" cx="24" cy="24" r=".75"/></svg>