<?xml version="1.0" encoding="UTF-8"?><svg id="a" xmlns="http://www.w3.org/2000/svg" viewBox="0 0 48 48"><defs><style>.b{fill:#000;}.c{fill:none;stroke:#000;stroke-linecap:round;stroke-linejoin:round;}</style></defs><g><path class="c" d="m12.2432,8.6887l18.3351,21.7602c1.6688-.7069,3.3102-.1128,4.7168,1.4499l3.0444,3.5029c1.505,2.1596,1.152,5.4336-1.0502,7.02-1.8654,1.3903-4.4233,1.4194-6.354-.078l-3.9316-4.5621c-.925-1.5172-.4833-3.4761-.3355-4.9136L11.1524,14.411c-.8725-1.9381-.4413-4.2457,1.0916-5.7226l-.0008.0004Z"/><path class="c" d="m23.9782,29.6683l-2.8496,3.4037c.7369,1.7089.6438,3.6922-.6834,5.315l-3.4353,4.0737c-1.6316,1.3813-4.614,1.4128-6.4309-.0691-2.0341-1.6067-2.3966-4.793-.9822-6.9144v-.0002s3.8659-4.4961,3.8659-4.4961c1.2325-.8189,2.8107-.8621,4.2176-.5653l3.4759-4.1044"/><path class="c" d="m24.0623,22.7157l11.7942-13.9486c1.0157,1.424,2.2765,3.3914.7835,5.9188l-9.6603,11.4921"/><path class="c" d="m15.1222,33.2313c2.0099-1.1684,4.4977.8715,3.3648,3.2111l-3.3104,4.012c-2.2031,1.2288-4.5472-1.0548-3.4917-3.2873l3.4373-3.9358Z"/><path class="c" d="m29.4056,36.2011c-.7933-2.1853,1.6554-4.2719,3.757-2.742l3.3612,3.9695c.8186,2.386-1.8446,4.2881-3.8545,2.8534l-3.2637-4.0809Z"/></g><circle class="b" cx="24.1397" cy="26.1312" r=".75"/><g><path class="c" d="m24.1624,15.6155v-2.2546"/><path class="c" d="m24.1227,11.1853v-2.2546"/><path class="c" d="m24.1643,6.7546v-2.2546"/></g></svg>