<?xml version="1.0" encoding="UTF-8"?><svg id="b" xmlns="http://www.w3.org/2000/svg" viewBox="0 0 48 48"><defs><style>.d{fill:#000;}</style></defs><circle class="d" cx="16.978" cy="30.9284" r=".75"/><circle class="d" cx="21.605" cy="30.9284" r=".75"/><circle class="d" cx="26.232" cy="30.9284" r=".75"/><circle class="d" cx="30.859" cy="30.9284" r=".75"/><circle class="d" cx="35.486" cy="30.9284" r=".75"/><circle class="d" cx="40.113" cy="30.9284" r=".75"/><circle class="d" cx="16.978" cy="26.5504" r=".75"/><circle class="d" cx="16.978" cy="21.6174" r=".7477"/><circle class="d" cx="16.978" cy="17.2404" r=".75"/><circle class="d" cx="16.978" cy="12.4654" r=".75"/><circle class="d" cx="16.978" cy="8.0884" r=".75"/><circle class="d" cx="21.605" cy="26.5504" r=".75"/><circle class="d" cx="12.224" cy="30.9284" r=".75"/><circle class="d" cx="16.978" cy="35.42" r=".75"/><circle class="d" cx="21.605" cy="35.42" r=".75"/><circle class="d" cx="12.224" cy="35.42" r=".75"/><circle class="d" cx="12.224" cy="26.5504" r=".75"/><circle class="d" cx="7.887" cy="30.9284" r=".75"/><circle class="d" cx="16.978" cy="39.9116" r=".75"/><circle class="d" cx="26.232" cy="39.9116" r=".75"/><circle class="d" cx="7.887" cy="39.9116" r=".75"/><circle class="d" cx="7.887" cy="21.6174" r=".75"/><circle class="d" cx="26.11" cy="21.6174" r=".7477"/><circle class="d" cx="30.447" cy="17.2404" r=".75"/><circle class="d" cx="35.201" cy="12.4654" r=".75"/><circle class="d" cx="39.829" cy="8.0884" r=".75"/></svg>