<?xml version="1.0" encoding="UTF-8"?><svg id="a" xmlns="http://www.w3.org/2000/svg" viewBox="0 0 48 48"><defs><style>.b{fill:none;stroke:#000;stroke-linecap:round;stroke-linejoin:round;}</style></defs><path class="b" d="M42.3828,31.0142c.406-2.8871-.325-5.3841-.9344-7.0227-.4257-1.1509-.7705-2.0677-1.0757-2.8871-1.3799-3.7258-1.6032-4.4093-2.5573-8.1351l-.3596-1.2087c-.0036-.0123-.0134-.022-.0261-.026l-1.2382-.3839c-3.8158-1.1899-4.4855-1.4826-8.2607-3.1016-.8317-.3512-1.7661-.7608-2.9228-1.2485-1.3602-.5657-3.4305-1.346-5.9266-1.4241-3.8365-.1365-7.51,1.3655-10.9406,4.4477l.0612-.0195c-.8732.7412-1.7661,1.5996-2.6798,2.5944,0,0-.1258.1349.2232-.0975,1.1982-.9363,5.1157-4.4477,15.7718.1561,4.2835,1.8511,8.4314,3.5325,9.799,4.083.2599.1046.5402.3983.6263.6564.4522,1.3548,1.8333,5.4601,3.3768,9.7353,3.8355,10.5925-.1422,14.0452-1.2179,15.099-.2241.2508-.1018.1951-.1018.1951,1.5429-1.0729,2.7806-2.1458,3.8158-3.1992,2.5978-2.5164,4.1407-5.2669,4.5675-8.2125v-.0006Z"/><path class="b" d="M31.7637,16.9238l5.6629-5.1889"/></svg>