<?xml version="1.0" encoding="UTF-8"?><svg id="b" xmlns="http://www.w3.org/2000/svg" viewBox="0 0 48 48"><defs><style>.c{fill:none;stroke:#000;stroke-linecap:round;stroke-linejoin:round;}</style></defs><path class="c" d="m24.0047,32.9758c0-1.6589,1.1007-1.5852,2.7223-.6855,1.296.7623,2.6007,1.5086,3.897,2.2704.2451.144.4177.3072.5516-.1467.1458-.4944.5785-.6648,1.0454-.7157.4079-.0445.8008.058,1.1936.1489.7322.1694,1.4635.3432,2.3095.5421-.226-.5234-.4018-.9188-.5681-1.3184-.2235-.5371-.4743-1.0657-.6501-1.6196-.2062-.6494-.2305-1.2922.428-1.7273.2849-.1882.09-.2931-.0612-.4014-.398-.285-.8113-.5485-1.1953-.8523-.9202-.7281-.8543-1.4776.1942-1.9922.9461-.4644,1.9171-.8738,2.8743-1.314.2616-.1203.5132-.2642.7893-.4077-1.0751-1.0928-1.128-1.7349-.2935-2.9568.5129-.7511,1.0303-1.4989,1.5398-2.2525.0741-.1096.2465-.2194.1324-.3691-.0543-.0712-.2168-.0715-.3305-.0721-.9263-.0054-1.8527-.0012-2.779-.0038-1.2444-.0035-1.5447-.2294-1.8611-1.4768-.0766-.302-.1595-.341-.3908-.1683-.5888.4395-1.1776.8796-1.7766,1.3036-.5988.4238-1.1849.8776-1.8217,1.23-.9607.5316-1.8485-.0469-1.8741-1.1809-.0075-.3329.0301-.6687.0679-1.0007.1648-1.4485.3374-2.896.5099-4.3679-1.976.3813-2.265.2105-3.0926-1.7009-.4919-1.136-1.0053-2.2619-1.5206-3.4183-.2445.1986-.2914.4316-.3801.6318-.5054,1.1407-.994,2.2894-1.4997,3.4299-.492,1.1097-1.2792,1.5113-2.3469,1.1405-.4547-.1579-.4551-.0067-.4095.3781.1846,1.5577.3545,3.1174.514,4.6782.0614.6011-.0949,1.1368-.6287,1.4587-.52.3136-1.0186.1364-1.475-.174-.6906-.4697-1.3685-.9597-2.0489-1.4455-.5249-.3747-1.0452-.7562-1.6054-1.1621-.0468.1694-.0722.2462-.0892.325-.2628,1.2217-.6133,1.5148-1.8322,1.5193-.9263.0034-1.8527-.0023-2.779.0046-.131.001-.3078-.0754-.3856.0831-.0771.157.0823.2615.1587.3737.5819.8545,1.1827,1.6954,1.7506,2.5598.5262.8011.4521,1.5694-.1631,2.2903-.1.1172-.2907.1664-.2833.4255,1.1629.5265,2.3503,1.0439,3.5208,1.5997,1.1536.5478,1.2159,1.3258.1863,2.0895-.4526.3357-.9188.6514-1.4401,1.0194.8492.4718.9335,1.1519.6847,1.9235-.1339.4152-.3102.8164-.479,1.2186-.2227.5307-.4569,1.0561-.7379,1.7028.3729-.0859.5872-.135.8014-.1848.6859-.1593,1.3687-.3361,2.0586-.4738.7916-.158,1.4342.0312,1.6396.5824.1982.5318.4087.3767.7297.1865,1.3461-.7977,2.6923-1.5959,4.0544-2.3633,1.1765-.6628,2.3397-.5375,2.4451.8365.2901,3.7787-.9725,12.5134-.9725,12.5134h0c-11.425-.5063-20.5322-9.9337-20.5322-21.4892C2.5,12.12,12.1259,2.4893,24,2.4893s21.5,9.6307,21.5,21.5107c0,10.3498-7.3058,18.9924-17.0393,21.0471"/></svg>