<svg xmlns="http://www.w3.org/2000/svg" viewBox="0 0 48 48"><defs><style>.a{fill:none;stroke:#000;stroke-linecap:round;stroke-linejoin:round;}</style></defs><path class="a" d="M18.248,22.25c2.4641-1.34,4.9377-2.67,6.6523-1.9207,1.7239.7589,2.689,3.6072.6839,7.1488s-6.98,7.7673-10.2407,10.55c-3.2512,2.7827-4.7972,4.1038-5.4717,2.258-.6653-1.8551-.4591-6.8865,1.0774-10.4281C12.4952,26.3259,15.3716,24.2834,18.248,22.25Z"/><path class="a" d="M24.3662,19.9922a5.6981,5.6981,0,0,0,1.6115-4.1881c.1031-2.4361-.45-6.4368.3186-8.6948a3.8335,3.8335,0,0,1,4.1881-2.5766,2.074,2.074,0,0,1,1.93,1.6115c.0937.5716-.253.8527.965,1.2837,1.2274.44,4.02,1.0212,4.8347,1.6115.8151.6-.3373,1.2086-1.6116,1.293a14.3579,14.3579,0,0,1-3.86-.6465c-1.19-.2717-2.1643-.3654-2.258,1.293a15.3612,15.3612,0,0,0,1.93,7.0832c1.2461,2.0425,2.9514,2.7452,1.293,6.1182s-6.69,9.4256-10.3063,12.2364c-3.626,2.8109-5.8372,2.3705-8.0577,1.93"/><path class="a" d="M20.4966,38.3468v2.9045"/><path class="a" d="M23.0732,36.7447v3.373"/><path class="a" d="M17.9856,43.3314q2.1925-3.0452,6.062.1686"/><path class="a" d="M21.34,41.8978q2.1924-3.045,6.0526.1781"/></svg>