<svg xmlns="http://www.w3.org/2000/svg" viewBox="0 0 48 48"><defs><style>.a{fill:none;stroke:#000;stroke-linecap:round;stroke-linejoin:round;}</style></defs><path class="a" d="M25.22,9.252S9.5356,32.8234,8.6986,34.2881a5.0442,5.0442,0,0,0,0,4.46"/><path class="a" d="M28.8993,9.252S13.2145,32.8234,12.3775,34.2881a5.0442,5.0442,0,0,0,0,4.46"/><path class="a" d="M21.5415,9.252S5.8567,32.8234,5.02,34.2881a5.0442,5.0442,0,0,0,0,4.46"/><path class="a" d="M27.0628,15.6948S38.4644,32.8234,39.3014,34.2881a5.0442,5.0442,0,0,1,0,4.46"/><path class="a" d="M25.22,18.4724s9.5657,14.351,10.4027,15.8157a5.0442,5.0442,0,0,1,0,4.46"/><path class="a" d="M28.9013,12.924S42.1434,32.8234,42.98,34.2881a5.0442,5.0442,0,0,1,0,4.46"/><line class="a" x1="15.7001" y1="29.1685" x2="27.4342" y2="29.1685"/><line class="a" x1="13.6861" y1="32.2406" x2="29.4461" y2="32.2406"/><line class="a" x1="12.2551" y1="35.3114" x2="31.1561" y2="35.3114"/></svg>