<?xml version="1.0" encoding="UTF-8"?><svg id="a" xmlns="http://www.w3.org/2000/svg" viewBox="0 0 48 48"><defs><style>.h{fill:none;stroke:#000;stroke-linecap:round;stroke-linejoin:round;}.i{fill:#000;stroke-width:0px;}</style></defs><rect class="h" x="5.5" y="5.5" width="37" height="37" rx="4" ry="4"/><line class="h" x1="20.8747" y1="10.4987" x2="14.5" y2="27.5013"/><line class="h" x1="24.7968" y1="10.4987" x2="18.4221" y2="27.5013"/><line class="h" x1="28.7189" y1="10.4987" x2="22.3442" y2="27.5013"/><line class="h" x1="29.4611" y1="14.7493" x2="30.3316" y2="14.7493"/><line class="h" x1="27.8674" y1="19" x2="31.9063" y2="19"/><line class="h" x1="26.2737" y1="23.2507" x2="33.5" y2="23.2507"/><path id="b" class="h" d="M27.6439,38.4133v-5.4367h.8835c1.4951,0,2.7184,1.2233,2.7184,2.7184h0c0,1.4951-1.2233,2.7183-2.7184,2.7183h-.8835Z"/><g id="c"><path id="d" class="h" d="M16.8222,37.8017c.3398.4078.7476.6116,1.3592.6116h.8155c.7476,0,1.3592-.6116,1.3592-1.3592h0c0-.7475-.6116-1.3592-1.3592-1.3592h-.8835c-.7476,0-1.3592-.6116-1.3592-1.3592h0c0-.7475.6116-1.3592,1.3592-1.3592h.8155c.6116,0,1.0194.1359,1.3592.6116"/></g><path id="e" class="h" d="M22.1707,32.9766v3.6018c0,1.0194.8155,1.8349,1.7669,1.8349s1.7669-.8155,1.7669-1.8349v-3.6018"/><circle id="f" class="i" cx="25.7046" cy="31.0315" r=".75"/><circle id="g" class="i" cx="22.1707" cy="31.0315" r=".75"/></svg>