<?xml version="1.0" encoding="UTF-8"?><svg id="a" xmlns="http://www.w3.org/2000/svg" viewBox="0 0 48 48"><defs><style>.b{fill:#000;}.c{fill:none;stroke:#000;stroke-linecap:round;stroke-linejoin:round;}</style></defs><path class="c" d="M13.6383,37.6192h19.907c5.4972.0007,9.954-4.4551,9.9547-9.9523.0003-2.5107-.9482-4.9287-2.6555-6.7696-.4138-6.2164-5.7887-10.9202-12.005-10.5064-3.9084.2602-7.4021,2.5293-9.2291,5.9942-4.0145-2.5654-9.3486-1.3906-11.914,2.624-.8919,1.3958-1.3631,3.0189-1.3573,4.6753-2.9402,3.7487-2.2848,9.1712,1.4639,12.1114,1.6573,1.2998,3.7328,1.9484,5.8353,1.8235Z"/><path class="c" d="M14.3019,23.6843h18.5799c2.1989,0,3.9814,1.7825,3.9814,3.9814h0c0,2.1989-1.7825,3.9814-3.9814,3.9814H14.3019c-2.1989,0-3.9814-1.7825-3.9814-3.9814h0c0-2.1989,1.7825-3.9814,3.9814-3.9814Z"/><circle class="b" cx="14.9654" cy="27.6657" r=".75"/><circle class="b" cx="20.7119" cy="27.6657" r=".75"/><circle class="b" cx="26.4584" cy="27.6657" r=".75"/><circle class="b" cx="32.2182" cy="27.6657" r=".75"/></svg>