<?xml version="1.0" encoding="UTF-8"?><svg id="b" xmlns="http://www.w3.org/2000/svg" viewBox="0 0 48 48"><defs><style>.c{fill:none;stroke:#000;stroke-linecap:round;stroke-linejoin:round;}</style></defs><path class="c" d="m37.5,43.5c1.1,0,2-.9,2-2V6.5c0-1.1-.9-2-2-2H10.5c-1.1,0-2,.9-2,2v29.2c0,4.3,3.5,7.8,7.8,7.8h21.2Z"/><polyline class="c" points="35 33.5 30 18 24.7 33.5"/><line class="c" x1="26.5" y1="28.3" x2="33.3" y2="28.3"/><line class="c" x1="13" y1="18.7" x2="26.6" y2="18.7"/><path class="c" d="m19.8,14.5c0,7.6-.2,9.1-6.1,15.2"/><path class="c" d="m23.9,26.8c-1.5-1.5-3.8-4.9-4.1-7.8"/></svg>