<svg xmlns="http://www.w3.org/2000/svg" viewBox="0 0 48 48"><defs><style>.a{fill:none;stroke:#000;stroke-linecap:round;stroke-linejoin:round;}</style></defs><path class="a" d="M35.62,16.2838C35.104,5.0293,23.789,6.2351,21.6587,9.3679c-2.9211,4.2956-1.5064,11.4417,2.1048,13.0157,1.2085.5268,2.8566-.8806,6.5294.6659.8591,1.6681,4.8358,3.3912,5.928.8376-1.7469.2864-4.8346-1.4892-5.0806-2.8924"/><path class="a" d="M22.8286,8.317C20.47,6.1032,15.2009,5.9886,11.3348,7.5637A4.8693,4.8693,0,0,1,13.54,8.6519s-5.527,2.929-5.9852,6.4761a11.15,11.15,0,0,1,3.9806.7119"/><path class="a" d="M18.7806,37.1177c2.7206,3.4651,8.7631,4.3815,8.7631,4.3815a8.0933,8.0933,0,0,0,2.9783-2.8065c5.4984,2.4342,8.3335,1.976,11.7987,1.1742.0572-4.9257-1.06-6.93-1.06-6.93a5.17,5.17,0,0,0,2.1478,0c.9164-5.0689-5.298-12.1424-8.8776-13.2019-.2864,1.4891-.9183,2.459-2.3779,2.6757"/><path class="a" d="M23.2767,27.6386c1.6323,1.0023,8.3049,1.1169,9.2786.8019-1.0024-1.661-1.8328-4.21-4.6393-4.21S23.2767,27.6386,23.2767,27.6386Z"/><path class="a" d="M25.11,16.9282c1.2314-.9451,5.3266-.9164,4.9257,3.2647C27.9446,20.7083,25.0236,20.1642,25.11,16.9282Z"/><path class="a" d="M30.98,19.9638c.1145-2.1192,1.4891-4.353,4.897-3.3506A3.4419,3.4419,0,0,1,30.98,19.9638Z"/><polyline class="a" points="12.394 18.732 23.019 29.815 21.072 32.192 10.075 21.167 4.834 26.092"/><line class="a" x1="10.6129" y1="21.7061" x2="13.1218" y2="19.4911"/><path class="a" d="M15.2452,21.7061c1.104.1386,3.0486-.425,3.6213-3.3768s-1.6037-4.2076-3.8947-4.2649-5.6989,2.3017-3.1044,6.5342"/><path class="a" d="M8.8792,32.5858c2.3411.0859,4.9614-2.3626,6.5078-1.8042s3.995,3.0714,3.995,3.0714"/><path class="a" d="M15.3656,32.9724c.8806.7732,3.0928,2.04,4.4459.7087.494.9451,1.0954,3.9091-2.9854,3.4151-.1074.8591-1.3317,1.0954-2.62,1.1168"/><line class="a" x1="21.0716" y1="32.192" x2="19.8115" y2="33.6811"/><path class="a" d="M4.5,18.9042a27.7926,27.7926,0,0,1,6.7572.4658"/><path class="a" d="M14.3776,16.1956A3.5392,3.5392,0,0,1,17.406,18.625"/><path class="a" d="M14.5064,18.4961a5.388,5.388,0,0,1,1.3854-1.544"/></svg>