<?xml version="1.0" encoding="UTF-8"?><svg id="a" xmlns="http://www.w3.org/2000/svg" viewBox="0 0 48 48"><defs><style>.b{fill:none;stroke:#000;stroke-linecap:round;stroke-linejoin:round;}</style></defs><g><path class="b" d="m40.2503,19.0455c.059-1.2446-.4483-2.8238-1.6835-4.4506l-1.0357,3.3784c.9975.1979,1.75.5401,2.7191,1.0722h0Z"/><path class="b" d="m32.5444,9.1843c-.7766-.4208-1.7572-.835-2.9355-1.1316l1.471-3.5527c1.104,1.6963,1.4556,3.2622,1.4645,4.6843h0Z"/><path class="b" d="m7.7497,19.0455c-.059-1.2446.4483-2.8238,1.6835-4.4506l1.0357,3.3784c-.9975.1979-1.75.5401-2.7191,1.0722h0Z"/><path class="b" d="m15.4556,9.1843c.7766-.4208,1.7572-.835,2.9355-1.1316l-1.471-3.5527c-1.104,1.6963-1.4556,3.2622-1.4645,4.6843h0Z"/></g><ellipse class="b" cx="11.8531" cy="25.0812" rx="3.6789" ry="5.36" transform="translate(-6.2145 4.0307) rotate(-15.3446)"/><ellipse class="b" cx="18.6888" cy="16.3478" rx="3.8555" ry="5.8688" transform="translate(-1.9062 2.4781) rotate(-7.2191)"/><ellipse class="b" cx="36.1469" cy="25.0812" rx="5.36" ry="3.6789" transform="translate(2.3944 53.3024) rotate(-74.6554)"/><ellipse class="b" cx="29.3112" cy="16.3478" rx="5.8688" ry="3.8555" transform="translate(9.4097 43.3723) rotate(-82.7809)"/><path class="b" d="m30.0909,43.27c3.7524.803,4.3289-.7185,4.8209-1.1781,1.0533-.9838,1.6463-3.3118,1.1855-5.7641-.4448-2.3665-4.3587-5.216-5.5216-7.136-1.8324-3.0256-1.9388-5.7413-6.5759-5.8762-4.6371.1348-4.7435,2.8507-6.5759,5.8762-1.1629,1.9201-5.0767,4.7695-5.5216,7.136-.4608,2.4523.1322,4.7802,1.1855,5.7641.492.4596,1.0685,1.9811,4.8209,1.1781,1.622-.3471,3.6345-1.9796,6.091-1.8865,2.4565-.093,4.469,1.5394,6.091,1.8865h0Z"/></svg>