<?xml version="1.0" encoding="UTF-8"?><svg id="a" xmlns="http://www.w3.org/2000/svg" viewBox="0 0 48 48"><defs><style>.b{fill:none;stroke:#000;stroke-linecap:round;stroke-linejoin:round;}</style></defs><path class="b" d="m24,20.2051v-7.5897h7.5897"/><path class="b" d="m31.5897,12.6154l-7.5897,7.5897"/><path class="b" d="m31.5897,5.9744v6.641"/><path class="b" d="m17.359,5.9744v14.2308h6.641"/><path class="b" d="m33.6578,24.7739c1.297-.526,3.6058-1.2238,4.3004-.3817.7518.9113-.1984,2.8888-1.0731,4.4253"/><path class="b" d="m9.7692,25.3831c2.051,1.6288,8.1095,4.1221,14.5642,4.1221,6.1531,0,9.9095-2.2293,11.8579-3.5909"/><path class="b" d="m26.8462,5.9744l4.7436,4.7436"/><path class="b" d="m22.1026,5.9744l5.6923,6.641"/><path class="b" d="m17.359,7.8718l6.641,7.5897"/><path class="b" d="m17.359,13.5641l6.641,6.641"/><path class="b" d="m40.5,5.5H7.5c-1.1046,0-2,.8954-2,2v33c0,1.1046.8954,2,2,2h33c1.1046,0,2-.8954,2-2V7.5c0-1.1046-.8954-2-2-2Z"/></svg>