<svg xmlns="http://www.w3.org/2000/svg" viewBox="0 0 48 48"><defs><style>.a{fill:none;stroke:#000;stroke-linecap:round;stroke-linejoin:round;}</style></defs><circle class="a" cx="24" cy="24.49" r="2.23"/><line class="a" x1="24" y1="22.25" x2="24" y2="13.16"/><line class="a" x1="22.5" y1="26.05" x2="15.95" y2="32.61"/><circle class="a" cx="24" cy="24.56" r="14.35"/><path class="a" d="M13.78,7.26a5,5,0,1,0-7.12,7Z"/><line class="a" x1="6.72" y1="7.19" x2="6.1" y2="6.57"/><line class="a" x1="10.22" y1="10.75" x2="11.32" y2="11.87"/><path class="a" d="M34.22,7.26a5,5,0,1,1,7.12,7Z"/><line class="a" x1="41.28" y1="7.19" x2="41.9" y2="6.57"/><line class="a" x1="37.78" y1="10.75" x2="36.68" y2="11.87"/><path class="a" d="M36.34,37.55A17.9,17.9,0,0,0,28.53,7.22V6.14A1.65,1.65,0,0,0,26.89,4.5H21.11a1.65,1.65,0,0,0-1.64,1.64V7.22a17.9,17.9,0,0,0-7.81,30.33L9.77,40.81a1.79,1.79,0,1,0,3.11,1.79l1.64-2.84a17.82,17.82,0,0,0,19,0l1.64,2.84a1.79,1.79,0,0,0,3.11-1.79Z"/></svg>