<?xml version="1.0" encoding="UTF-8"?><svg id="a" xmlns="http://www.w3.org/2000/svg" viewBox="0 0 48 48"><defs><style>.b{fill:none;stroke:#000;stroke-linecap:round;stroke-linejoin:round;}</style></defs><path class="b" d="M37.8,24.3v.7c0,7.6-6.2,13.8-13.8,13.8s-13.8-6.2-13.8-13.8c0-3.1,1-6.1,2.9-8.5"/><path class="b" d="M27.5,2.9h-7.1c-.3,0-.5,.2-.5,.5V15.7c0,.3,.2,.5,.5,.5h7.1c.3,0,.5-.2,.5-.5V3.5c.1-.3-.2-.6-.5-.6Z"/><path class="b" d="M34.6,8c5.9,3.7,9.5,10.1,9.5,17,0,11-9.1,20.1-20.1,20.1S3.9,36,3.9,25c0-6.9,3.5-13.3,9.4-17"/></svg>