<?xml version="1.0" encoding="UTF-8"?><svg id="a" xmlns="http://www.w3.org/2000/svg" viewBox="0 0 48 48"><defs><style>.b{fill:none;stroke:#000;stroke-linecap:round;stroke-linejoin:round;}</style></defs><rect class="b" x="5.5" y="5.5" width="37" height="37" rx="4" ry="4"/><path class="b" d="M21.95,28.95c-2.002,2.002-5.0128,2.6009-7.6285,1.5174-2.6157-1.0835-4.3212-3.636-4.3212-6.4672,0-2.8312,1.7055-5.3837,4.3212-6.4672,2.6157-1.0835,5.6265-.4846,7.6285,1.5174l-9.8995,9.8995"/><path class="b" d="M35.95,28.95c-2.002,2.002-5.0128,2.6009-7.6285,1.5174-2.6157-1.0835-4.3212-3.636-4.3212-6.4672,0-2.8312,1.7055-5.3837,4.3212-6.4672,2.6157-1.0835,5.6265-.4846,7.6285,1.5174l-9.8995,9.8995"/></svg>