<?xml version="1.0" encoding="UTF-8"?><svg id="a" xmlns="http://www.w3.org/2000/svg" viewBox="0 0 48 48"><defs><style>.c{fill:none;stroke:#000;stroke-linecap:round;stroke-linejoin:round;}</style></defs><path id="b" class="c" d="M11.172,19.535l-4.454,4.465,4.454,4.465v-8.93ZM36.828,19.535l4.454,4.465-4.454,4.465v-8.93ZM19.535,36.828l4.465,4.454,4.465-4.454h-8.93ZM19.535,11.172l4.465-4.454,4.465,4.454h-8.93ZM27.3059,29.6322l-1.9487-3.967,3.8108.1393-7.7533-7.8596v11.5283l2.3486-2.9169,1.9242,3.9077,1.6184-.8318ZM33.045,24c0,4.9954-4.0496,9.045-9.045,9.045s-9.045-4.0496-9.045-9.045c0-4.9954,4.0496-9.045,9.045-9.045s9.045,4.0496,9.045,9.045ZM45.5,24c0,11.8741-9.6259,21.5-21.5,21.5S2.5,35.8741,2.5,24,12.1259,2.5,24,2.5s21.5,9.6259,21.5,21.5Z"/></svg>