<svg xmlns="http://www.w3.org/2000/svg" viewBox="0 0 48 48"><defs><style>.a{fill:none;stroke:#000;stroke-linecap:round;stroke-linejoin:round;}</style></defs><path class="a" d="M33.3842,33.6861a3.8592,3.8592,0,0,1-3.4-2.0333L27.1274,26.33l-2.8182,5.2521a3.9016,3.9016,0,0,1-.4609.7008,3.8739,3.8739,0,0,1-2.9551,1.4028H8.3582a3.8589,3.8589,0,0,1-3.4-5.6829l6.2568-11.6558a3.8588,3.8588,0,0,1,6.7994,0L20.8718,21.67l2.8559-5.3224a3.8588,3.8588,0,0,1,6.7994,0l2.8571,5.3237,2.8572-5.3237a3.8584,3.8584,0,1,1,6.7993,3.65L36.7839,31.6528A3.8589,3.8589,0,0,1,33.3842,33.6861Z"/><path class="a" d="M20.8756,33.6868a3.86,3.86,0,0,1-3.4034-2.0346l-4.3309-8.0679"/><line class="a" x1="27.1274" y1="26.3304" x2="25.65" y2="23.5837"/><line class="a" x1="19.3944" y1="24.4166" x2="20.8718" y2="21.6698"/><line class="a" x1="31.9068" y1="24.4166" x2="33.3842" y2="21.6698"/></svg>