<?xml version="1.0" encoding="UTF-8"?><svg id="b" xmlns="http://www.w3.org/2000/svg" viewBox="0 0 48 48"><defs><style>.f{fill:none;stroke:#000;stroke-linecap:round;stroke-linejoin:round;}</style></defs><path class="f" d="M33,16.7546h6.5c2.2,0,4,1.8,4,4v17.5c0,2.2-1.8,4-4,4H8.5c-2.2,0-4-1.8-4-4v-17.5c0-2.2,1.8-4,4-4h6.5"/><rect class="f" x="8.4965" y="20.753" width="4" height="4" rx=".6" ry=".6"/><rect class="f" x="15.2465" y="20.753" width="4" height="4" rx=".6" ry=".6"/><rect class="f" x="21.9965" y="20.753" width="4" height="4" rx=".6" ry=".6"/><rect class="f" x="28.7465" y="20.753" width="4" height="4" rx=".6" ry=".6"/><rect class="f" x="35.4965" y="20.753" width="4" height="4" rx=".6" ry=".6"/><rect class="f" x="8.4965" y="27.503" width="4" height="4" rx=".6" ry=".6"/><rect class="f" x="15.2465" y="27.503" width="4" height="4" rx=".6" ry=".6"/><rect class="f" x="21.9965" y="27.503" width="4" height="4" rx=".6" ry=".6"/><rect class="f" x="28.7465" y="27.503" width="4" height="4" rx=".6" ry=".6"/><rect class="f" x="35.4965" y="27.503" width="4" height="4" rx=".6" ry=".6"/><rect class="f" x="8.4965" y="34.253" width="4" height="4" rx=".6" ry=".6"/><rect class="f" x="15.2465" y="34.253" width="17.5" height="4" rx=".6" ry=".6"/><rect class="f" x="35.4965" y="34.253" width="4" height="4" rx=".6" ry=".6"/><rect class="f" x="14.9965" y="5.7454" width="18" height="13" rx="2" ry="2"/><line class="f" x1="26.4839" y1="11.679" x2="25.5102" y2="12.3864"/><line class="f" x1="25.1382" y1="11.2417" x2="25.5102" y2="12.3864"/><line class="f" x1="26.4839" y1="13.0939" x2="25.5102" y2="12.3864"/><line class="f" x1="25.1382" y1="13.5312" x2="25.5102" y2="12.3864"/><line class="f" x1="24.3065" y1="12.3864" x2="25.4937" y2="12.3832"/><path class="f" d="M23.1723,9.7688c-.6013-.5567-1.3991-.9031-2.2834-.9031-1.8665,0-3.3797,1.5131-3.3797,3.3797s1.5131,3.3797,3.3797,3.3797c.8844,0,1.6821-.3464,2.2834-.9031"/></svg>