<?xml version="1.0" encoding="UTF-8"?><svg id="b" xmlns="http://www.w3.org/2000/svg" viewBox="0 0 48 48"><defs><style>.c{fill:none;stroke:#000;stroke-linecap:round;stroke-linejoin:round;}</style></defs><g><path class="c" d="m31.7018,15.5695c.4576.3834.9016.5591,2.0111.5591h.2393c1.1824,0,2.1411-.9586,2.1411-2.1411h0c0-1.1824-.9586-2.1411-2.1411-2.1411h-2.2503v-2.3464h4.1389"/><polyline class="c" points="27.8475 10.4026 29.5047 9.5003 29.5047 16.1288"/><g><path class="c" d="m23.6843,30.2075c0,1.9478,1.6644,3.5267,3.7176,3.5267h0c2.0532,0,3.7176-1.579,3.7176-3.5267v-2.2924c0-1.9478-1.6644-3.5267-3.7176-3.5267h0c-2.0532,0-3.7176,1.579-3.7176,3.5267"/><line class="c" x1="23.6755" y1="24.3929" x2="23.6755" y2="38.5"/><line class="c" x1="19.762" y1="29.0192" x2="13.4742" y2="29.0192"/><polyline class="c" points="11.9068 33.6925 16.6236 19.6373 21.3403 33.7348"/></g></g><path class="c" d="m40.5,5.5H7.5c-1.1046,0-2,.8954-2,2v33c0,1.1046.8954,2,2,2h33c1.1046,0,2-.8954,2-2V7.5c0-1.1046-.8954-2-2-2Z"/></svg>