<?xml version="1.0" encoding="UTF-8"?><svg id="a" xmlns="http://www.w3.org/2000/svg" viewBox="0 0 48 48"><defs><style>.c{fill:none;stroke:#000;stroke-linecap:round;stroke-linejoin:round;}</style></defs><path id="b" class="c" d="M29.493,28.898c0,.3756-.3049.68-.681.68h-.001c-.3761,0-.681-.3044-.681-.68h0c0-.3756.3049-.68.681-.68h0c.3761-.0006.6814.3034.682.679v.001ZM19.778,25.721c0,.3756-.3049.68-.681.68h-.001c-.3761,0-.681-.3044-.681-.68h0c0-.3756.3049-.68.681-.68h0c.3761-.0006.6814.3034.682.679v.001ZM26.142,25.913c-.2417-.1958-.4896-.3872-.742-.573-3.1316-2.3063-6.318-3.2939-7.117-2.206h0c-.3243.4425-.2109,1.1875.322,2.115M19.362,26.34c.6992.8696,1.6388,1.7745,2.706,2.606M23.952,30.249c2.6754,1.628,5.0111,2.1372,5.673,1.237.3239-.4414.2119-1.1841-.318-2.109M28.549,28.284c-.2576-.3207-.5492-.6479-.87-.976M25.4,29.28c-3.131,2.307-6.318,3.295-7.117,2.207-.799-1.088,1.092-3.84,4.224-6.146s6.319-3.294,7.118-2.206c.798,1.087-1.093,3.839-4.225,6.145ZM25.023,32.73c-.3262.5332-.6949.8134-1.07.813-.3744-.0006-.7424-.2807-1.068-.813M22.883,21.894c.3261-.5339.6948-.8148,1.07-.815.3751,0,.7439.2804,1.07.814M24.635,27.311c0,.3756-.3049.68-.681.68h0c-.3761,0-.681-.3044-.681-.68h0c0-.3752.3043-.6794.68-.68.3761-.0006.6814.3034.682.679v.001ZM38.265,18.461c1.053,0,1.902,1.032,1.902,2.314v8.84c0,1.282-.849,2.314-1.903,2.314s-1.902-1.032-1.902-2.315v-8.839c0-1.282.848-2.314,1.902-2.314h.001ZM9.735,18.461c1.055,0,1.903,1.032,1.903,2.314v8.84c0,1.282-.848,2.314-1.902,2.314s-1.903-1.032-1.903-2.315v-8.839c0-1.282.849-2.314,1.903-2.314h-.001ZM13.772,18.799v14.744c-.0022,1.2758,1.0302,2.3118,2.306,2.314.0033,0,.0067,0,.01,0h1.918v5.33c0,1.281.848,2.313,1.902,2.313s1.903-1.032,1.903-2.314v-5.329h4.378v5.33c0,1.281.849,2.313,1.903,2.313s1.902-1.032,1.902-2.314v-5.329h1.918c1.2758.0033,2.3127-1.0282,2.316-2.304,0-.0033,0-.0067,0-.01v-14.745l-20.456.001ZM31.156,4.5l-2.468,4.232M16.844,4.501l2.468,4.232M13.772,16.511c.228-4.926,4.72-8.855,10.228-8.855s10,3.93,10.228,8.855H13.772Z"/></svg>