<svg xmlns="http://www.w3.org/2000/svg" viewBox="0 0 48 48"><defs><style>.a{fill:none;stroke:#000;stroke-linecap:round;stroke-linejoin:round;}</style></defs><circle class="a" cx="24.9357" cy="34.2193" r="3.023"/><line class="a" x1="22.7981" y1="36.3569" x2="20.0413" y2="39.1137"/><path class="a" d="M13.1389,20.67a3.07,3.07,0,1,1,3.07,3.07h-.01A3.07,3.07,0,0,1,13.1389,20.67Z"/><path class="a" d="M31.7789,23.74a3.07,3.07,0,1,1,3.07-3.07h0A3.07,3.07,0,0,1,31.7789,23.74Z"/><path class="a" d="M5.4989,28.31V40A1.94,1.94,0,0,0,7.378,41.9991q.03.0009.0609.0009h33.1a2,2,0,0,0,2-2V28.31"/><path class="a" d="M38.9889,13.72l2.58-2.56a3.0158,3.0158,0,0,0-4.27-4.26h0l-2.55,2.6a18.39,18.39,0,0,0-21.51,0l-2.57-2.57A3.22,3.22,0,0,0,8.4889,6a3,3,0,0,0-2.12,5.15l2.62,2.56a18.41,18.41,0,0,0-3.47,10.8v3.8h37v-3.8A18.57,18.57,0,0,0,38.9889,13.72Zm-19.87,7a2.93,2.93,0,1,1-2.94-2.92h.01a2.93,2.93,0,0,1,2.94,2.9Zm12.65,2.92a2.92,2.92,0,1,1,2.92-2.92h0a2.92,2.92,0,0,1-2.91,2.9Z"/></svg>