<?xml version="1.0" encoding="UTF-8"?><svg id="b" xmlns="http://www.w3.org/2000/svg" viewBox="0 0 48 48"><defs><style>.c{fill:none;stroke:#000;stroke-linecap:round;stroke-linejoin:round;}</style></defs><path class="c" d="m39.81,16.7l2.73-2.7c1.2426-1.2411,1.2439-3.2546.0028-4.4972-.0009-.0009-.0019-.0019-.0028-.0028h0c-1.2355-1.2482-3.249-1.2584-4.4971-.0229-.0077.0076-.0153.0152-.0229.0229l-2.72,2.7c-6.7727-4.8793-15.9073-4.8793-22.68,0l-2.62-2.66c-1.2484-1.2509-3.2746-1.2529-4.5255-.0045-.0015.0015-.003.003-.0045.0045h0c-1.2382,1.2445-1.2382,3.2555,0,4.5l2.72,2.68c-2.3916,3.3056-3.6826,7.2799-3.69,11.36v9.29c0,1.1322.9178,2.05,2.05,2.05h34.9c1.1126-.0271,2.0003-.9371,2-2.05v-9.29c.0134-4.0817-1.2603-8.0638-3.64-11.38Zm-24,14.49c-1.9882.0055-3.6045-1.6018-3.61-3.59s1.6018-3.6045,3.59-3.61c1.9882-.0055,3.6045,1.6018,3.61,3.59,0,.0067,0,.0133,0,.02,0,1.9827-1.6072,3.59-3.5899,3.5901-.0067,0-.0134,0-.0201,0h.02Zm16.4074-1.5102c-1.1541.0096-2.0974-.9182-2.107-2.0722-.0096-1.1541.9182-2.0974,2.0722-2.107,1.1541-.0096,2.0974.9182,2.107,2.0722,0,.0077,0,.0154,0,.0231,0,1.1509-.933,2.0839-2.0839,2.0839h.0116Z"/><path class="c" d="m38.0966,28.3645c.0337-.2568.0518-.5154.0542-.7743-.0024-.259-.0205-.5176-.0542-.7743l1.6764-1.3125c.1567-.1197.1984-.3382.0968-.5072l-1.5874-2.7528c-.0951-.1709-.3028-.2439-.484-.1704l-1.9784.7976c-.4117-.3142-.8619-.5744-1.3396-.7743l-.2981-2.1023c-.0272-.1924-.1928-.3349-.3872-.333h-3.1825c-.1943-.0019-.36.1405-.3872.333l-.2981,2.1023c-.4784.1987-.9287.459-1.3396.7743l-1.9862-.7976c-.1812-.0736-.3888-.0005-.484.1704l-1.5874,2.7528c-.1016.169-.06.3875.0968.5072l1.6726,1.3125c-.0336.2568-.0517.5154-.0542.7743.0024.259.0205.5176.0542.7743l-1.6726,1.3125c-.1567.1197-.1984.3382-.0968.5072l1.5874,2.7528c.0951.1709.3028.2439.484.1704l1.9784-.7976c.4117.3142.8619.5744,1.3396.7743l.2981,2.1023c.0272.1924.1928.3349.3872.333h3.1748c.1943.0019.36-.1405.3872-.333l.2981-2.1023c.4784-.1987.9287-.459,1.3396-.7743l1.9784.7976c.1812.0736.3888.0005.484-.1704l1.5874-2.7528c.1016-.169.06-.3875-.0968-.5072l-1.661-1.3125Z"/></svg>