<svg xmlns="http://www.w3.org/2000/svg" viewBox="0 0 48 48"><defs><style>.a{fill:none;stroke:#000;stroke-linecap:round;stroke-linejoin:round;}</style></defs><path class="a" d="M39,13.71l2.59-2.55a3,3,0,0,0-4.28-4.27h0L34.76,9.49a18.44,18.44,0,0,0-21.52,0L10.67,6.92A3.14,3.14,0,0,0,8.5,6a3,3,0,0,0-2.12.88,3,3,0,0,0,0,4.26L9,13.7A18.55,18.55,0,0,0,5.5,24.51V40.08a2,2,0,0,0,2,2h33.1a2,2,0,0,0,2-2V24.51A18.51,18.51,0,0,0,39,13.71Zm-25.86,7a3.07,3.07,0,1,1,3.07,3.07,3.08,3.08,0,0,1-3.07-3.07ZM24,40.05a7,7,0,1,1,7-7v0a7,7,0,0,1-7,7Zm7.79-16.29a3.07,3.07,0,1,1,3.06-3.07,3.07,3.07,0,0,1-3.06,3.07Z"/><line class="a" x1="24" y1="28.58" x2="24" y2="37.1"/><polyline class="a" points="21.09 34.06 24 37.29 26.91 34.06"/></svg>