<?xml version="1.0" encoding="UTF-8"?><svg id="b" xmlns="http://www.w3.org/2000/svg" viewBox="0 0 48 48"><defs><style>.c{fill:none;stroke:#000;stroke-linecap:round;stroke-linejoin:round;}</style></defs><path class="c" d="m40.5,5.5H7.5c-1.1046,0-2,.8954-2,2v33c0,1.1046.8954,2,2,2h33c1.1046,0,2-.8954,2-2V7.5c0-1.1046-.8954-2-2-2Z"/><line class="c" x1="5.5" y1="36.5" x2="42.5" y2="36.5"/><line class="c" x1="17.8333" y1="36.5" x2="17.8333" y2="42.5"/><line class="c" x1="30.1667" y1="36.5" x2="30.1667" y2="42.5"/><path class="c" d="m15.215,23.125c0,1.3807-1.1193,2.5-2.5,2.5h0c-1.3807,0-2.5-1.1193-2.5-2.5v-1.625c0-1.3807,1.1193-2.5,2.5-2.5h0c1.3807,0,2.5,1.1193,2.5,2.5"/><line class="c" x1="15.215" y1="25.625" x2="15.215" y2="19"/><path class="c" d="m37.785,23.125c0,1.3807-1.1193,2.5-2.5,2.5h0c-1.3807,0-2.5-1.1193-2.5-2.5v-1.625c0-1.3807,1.1193-2.5,2.5-2.5h0c1.3807,0,2.5,1.1193,2.5,2.5"/><line class="c" x1="37.785" y1="25.625" x2="37.785" y2="19"/><path class="c" d="m30.3435,25.625v-4.125c0-1.3807-1.1193-2.5-2.5-2.5h0c-1.3807,0-2.5,1.1193-2.5,2.5"/><line class="c" x1="25.3435" y1="25.625" x2="25.3435" y2="19"/><path class="c" d="m17.7883,23.125c0,1.3807,1.1193,2.5,2.5,2.5h0c1.3807,0,2.5-1.1193,2.5-2.5v-1.625c0-1.3807-1.1193-2.5-2.5-2.5h0c-1.3807,0-2.5,1.1193-2.5,2.5"/><line class="c" x1="17.7883" y1="19" x2="17.7883" y2="29"/></svg>