<?xml version="1.0" encoding="utf-8"?>
<!-- Generator: Adobe Illustrator 25.3.0, SVG Export Plug-In . SVG Version: 6.00 Build 0)  -->
<svg version="1.1" id="Layer_1" xmlns="http://www.w3.org/2000/svg" xmlns:xlink="http://www.w3.org/1999/xlink" x="0px" y="0px"
	 viewBox="0 0 48 48" style="enable-background:new 0 0 48 48;" xml:space="preserve">
<style type="text/css">
	.st0{fill:none;stroke:#000000;}
	.st1{fill:none;stroke:#000000;stroke-linejoin:round;}
</style>
<path class="st0" d="M23.8,8.4c-3.9,3.2-9.9,4.2-15.1,4.4c0,6.7,0.1,6,0.1,10.5C9,28.3,11.2,32.9,15,36l8.4,6.5h0.7l8.6-6.5
	c3.7-3.1,5.9-7.7,6-12.5V13.1C32.9,12.6,27.5,11.1,23.8,8.4z"/>
<path class="st0" d="M11.7,26.5c-0.4,1.9-0.7,3.9-0.7,5.9c0,0.9-0.3,6,1.2,4.8"/>
<path class="st0" d="M16.6,16.9c-1.8,2-3.2,4.4-4.1,6.9"/>
<path class="st0" d="M34,12.4c0.3-0.9-0.1-2.7-1.8-2.6c-4.6,0.1-9.1,1.6-12.7,4.4"/>
<path class="st0" d="M26.4,29c2.9,3.5,5.9,6,7.8,6.2c3.7,0.5,4.2-1,2.5-2.4"/>
<path class="st0" d="M18.7,17c0.9,1.9,1.9,3.8,3,5.6"/>
<path class="st0" d="M23,7.3c-0.3-2.2-5.4-3-6.2,1.2c-0.2,1.8,0,3.6,0.7,5.3"/>
<path class="st0" d="M10.4,24.4c-0.7-0.1-1.6-0.2-2.2-0.3c-3.9-0.7-3.6-3.8,0.5-3.5"/>
<path class="st0" d="M21.2,25.1c-2.8-0.1-5.5-0.2-8-0.5"/>
<path class="st0" d="M38.7,22.1c3.7,0.1,6,2.4,0.8,2.8c-2.5,0.2-6.9,0.3-11.8,0.3"/>
<path class="st1" d="M21.6,10l-0.3-2.5L24,7.3l-0.2,1.2"/>
<path class="st1" d="M15.8,14.6l1.1,3l4-1.4l-2-2.8L15.8,14.6z"/>
<path class="st1" d="M10.4,23.6l2.7,0.2v2.8l-2.8-0.4L10.4,23.6z"/>
<path class="st1" d="M34.8,33.8l0.9,0.5l1.8-2.3l-0.9-0.7"/>
<path class="st1" d="M14.4,35.3l-0.4,2c-0.1,0.5-0.5,0.6-1,0.3l-2.6-1.9l2.1-2.2"/>
<path class="st0" d="M22.7,22.5h3.8c0.9,0,1.4,0.4,1.3,1.1l-0.5,4.5c-0.1,0.8-1,0.9-1.4,0.9L22,28.7c-0.6-0.1-1-0.1-0.9-1.1l0.2-4.4
	C21.3,22.5,21.9,22.5,22.7,22.5z"/>
</svg>
