<svg xmlns="http://www.w3.org/2000/svg" viewBox="0 0 48 48"><defs><style>.a{fill:none;stroke:#000;stroke-linecap:round;stroke-linejoin:round;}</style></defs><polyline class="a" points="35.226 9.245 31.026 13.445 32.563 19.182 38.3 20.719 42.5 16.52"/><line class="a" x1="32.563" y1="19.1822" x2="13.5563" y2="38.1888"/><path class="a" d="M11.3632,14.8034V11.7067a5.4347,5.4347,0,1,1,10.8693,0l-.0165,6.2777"/><path class="a" d="M28.0282,18.8373c-2.7114.5291-8.7954-1.521-11.23-3.6371-2.435,2.1161-8.519,4.1662-11.23,3.6371a17.339,17.339,0,0,0,5.7941,14.3539"/><path class="a" d="M23.5386,35.8164a6.4531,6.4531,0,0,0,9.126-9.126"/><line class="a" x1="32.6646" y1="26.6904" x2="35.5082" y2="23.8467"/><line class="a" x1="20.695" y1="38.66" x2="23.5386" y2="35.8164"/><line class="a" x1="28.1016" y1="41.728" x2="28.1016" y2="37.7065"/><line class="a" x1="35.5083" y1="38.66" x2="32.6646" y2="35.8164"/><line class="a" x1="38.5762" y1="31.2533" x2="34.5547" y2="31.2534"/></svg>