<svg xmlns="http://www.w3.org/2000/svg" viewBox="0 0 48 48"><defs><style>.a{fill:none;stroke:#000;stroke-linecap:round;stroke-linejoin:round;}</style></defs><path class="a" d="M5.5058,28.31V40.0416a1.9471,1.9471,0,0,0,1.947,1.9471h33.1A1.9472,1.9472,0,0,0,42.5,40.0417V28.31"/><path class="a" d="M39.005,13.7171l2.59-2.5506a3.0222,3.0222,0,1,0-4.2822-4.2659l-.0017.0018L34.76,9.5016a18.41,18.41,0,0,0-21.515,0l-2.57-2.57a3.1736,3.1736,0,0,0-2.1709-.9151,2.9784,2.9784,0,0,0-2.1221.8761,3.0179,3.0179,0,0,0,0,4.2641l2.5993,2.5507A18.4969,18.4969,0,0,0,5.5058,24.5136V28.31H42.5V24.5136A18.4965,18.4965,0,0,0,39.005,13.7171Zm-19.87,6.98a2.9206,2.9206,0,1,1-2.9206-2.9206h0a2.9206,2.9206,0,0,1,2.9208,2.92v0Zm12.6559,2.9206a2.9206,2.9206,0,1,1,2.9206-2.9206,2.9206,2.9206,0,0,1-2.9206,2.9206h0Z"/><polyline class="a" points="21.99 33.864 19.799 33.864 19.799 31.685"/><path class="a" d="M21.351,37.9736a4.0312,4.0312,0,0,0,5.68.0023,3.9807,3.9807,0,0,0,.0023-5.6505,4.0312,4.0312,0,0,0-5.68-.0023l-.0023.0023-1.5518,1.5392"/></svg>