<?xml version="1.0" encoding="UTF-8"?><svg id="b" xmlns="http://www.w3.org/2000/svg" viewBox="0 0 48 48"><defs><style>.g{fill:none;stroke:#000;stroke-linecap:round;stroke-linejoin:round;}</style></defs><g id="c"><g id="d"><path id="e" class="g" d="M6.1801,6.9009l33.8243-1.3958c.4181-.0173.8103.2043,1.0145.5731l1.3292,2.4003c.2063.3725.2021.8274-.011,1.196l-9.5072,16.4429c-.1941.3357-.6114.4639-.9578.2943l-4.8349-2.3669c-.3342-.1636-.4737-.5697-.3117-.9072.0014-.0029.0028-.0058.0043-.0087l4.5761-9.1917c.0992-.1993.0196-.442-.1777-.5422-.0611-.031-.1291-.0457-.1974-.0426l-24.7346,1.1107c-.3608.0162-.6663-.266-.6823-.6303-.0004-.0093-.0006-.0186-.0006-.0279l-.0133-6.1871c-.0008-.3846.2995-.7012.6801-.7169Z"/><path id="f" class="g" d="M18.219,16.8954l6.1754.5521c.3608.0323.6273.3537.5954.718-.0008.0087-.0017.0173-.0028.026l-1.4244,11.1962c-.0579.4548-.1494.9046-.2738,1.3456l-3.1687,11.2334c-.1049.3718-.4789.5962-.8525.5115l-6.007-1.3623c-.3539-.0803-.5764-.4351-.4969-.7924.0018-.0082.0038-.0163.0059-.0244l2.689-10.2571c.1163-.4436.2091-.8931.278-1.3467l1.6994-11.1798c.0582-.3828.4009-.6542.783-.6201Z"/></g></g></svg>