<?xml version="1.0" encoding="UTF-8"?><svg id="a" xmlns="http://www.w3.org/2000/svg" viewBox="0 0 48 48"><defs><style>.b{fill:none;stroke:#000;stroke-linecap:round;stroke-linejoin:round;}</style></defs><path class="b" d="M38.5,5.5H9.4999c-2.2091,0-4,1.7909-4,4v29c0,2.2091,1.7909,4,4,4h29c2.2091,0,4-1.7909,4-4V9.5c0-2.2091-1.7909-4-4-4Z"/><path class="b" d="M15.7629,27.2518v-6.5035h2.1291c1.2037,0,2.1795.9779,2.1795,2.1842s-.9758,2.1842-2.1795,2.1842l2.1289,2.1336"/><polyline class="b" points="27.4208 27.2518 27.4208 20.7482 32.2985 27.2518 32.2985 20.7482"/><line class="b" x1="21.6002" y1="24" x2="25.0633" y2="24"/><polyline class="b" points="25.6649 27.2518 21.6002 27.2518 21.6002 20.7482 25.6649 20.7482"/><polyline class="b" points="14.1906 27.2518 11.3453 20.7482 8.5 27.2518 12.1582 27.2518"/><polyline class="b" points="39.5 27.2518 36.6547 20.7482 33.8094 27.2518 37.4676 27.2518"/></svg>