<svg xmlns="http://www.w3.org/2000/svg" viewBox="0 0 48 48"><defs><style>.a{fill:none;stroke:#000;stroke-linecap:round;stroke-linejoin:round;}.b{fill:#000;}</style></defs><path class="a" d="M40.5,5.5H7.5a2,2,0,0,0-2,2v33a2,2,0,0,0,2,2h33a2,2,0,0,0,2-2V7.5A2,2,0,0,0,40.5,5.5Z"/><path class="a" d="M16.7324,24.925a2,2,0,0,1,2-2h0"/><line class="a" x1="16.7324" y1="22.925" x2="16.7324" y2="28.225"/><circle class="b" cx="20.5374" cy="20.475" r="0.7"/><line class="a" x1="20.5374" y1="22.925" x2="20.5374" y2="28.225"/><path class="a" d="M38.0373,27.2157A1.9994,1.9994,0,0,1,36.3,28.225h0a2,2,0,0,1-2-2v-1.3a2,2,0,0,1,2-2h0a2,2,0,0,1,2,2v.65h-4"/><path class="a" d="M26.38,26.225a2,2,0,0,1-2,2h0a2,2,0,0,1-2-2v-1.3a2,2,0,0,1,2-2h0a2,2,0,0,1,2,2"/><line class="a" x1="26.38" y1="28.225" x2="26.38" y2="22.925"/><path class="a" d="M32.3609,28.225v-3.3a2,2,0,0,0-2-2h0a2,2,0,0,0-2,2v3.3"/><line class="a" x1="28.3609" y1="24.925" x2="28.3609" y2="22.925"/><line class="a" x1="9.7005" y1="28.2012" x2="12.2991" y2="20.225"/><line class="a" x1="14.9005" y1="28.225" x2="12.2991" y2="20.225"/><line class="a" x1="14.0303" y1="25.5488" x2="10.5646" y2="25.5488"/></svg>