<?xml version="1.0" encoding="UTF-8"?>
<svg id="Layer_1" data-name="Layer 1" xmlns="http://www.w3.org/2000/svg" version="1.1" viewBox="0 0 48 48">
  <defs>
    <style>
      .cls-1 {
        fill: none;
        stroke:#000;
        stroke-linecap: round;
        stroke-linejoin: round;
      }
    </style>
  </defs>
  <path class="cls-1" d="M5.5,19.6v18.9c0,2.2,1.8,4,4,4h29c2.2,0,4-1.8,4-4V9.5c0-2.2-1.8-4-4-4H9.5c-2.2,0-4,1.8-4,4v10.1"/>
  <path class="cls-1" d="M25.1,32v-16h5.2c3,0,5.4,2.4,5.4,5.4,0,2.9-2.4,5.3-5.4,5.4h-5.2"/>
  <line class="cls-1" x1="30.3" y1="26.7" x2="35.6" y2="32"/>
  <line class="cls-1" x1="12.3" y1="32" x2="17.6" y2="16"/>
  <line class="cls-1" x1="22.7" y1="32" x2="17.6" y2="16"/>
  <line class="cls-1" x1="21" y1="26.6" x2="14.1" y2="26.6"/>
</svg>