<svg xmlns="http://www.w3.org/2000/svg" viewBox="0 0 48 48"><defs><style>.a{fill:none;stroke:#000;stroke-linecap:round;stroke-linejoin:round;}.b{fill:#000;}</style></defs><path class="a" d="M17.5029,35.9586a8.2387,8.2387,0,0,1-8.0967-7.8622,8.4956,8.4956,0,0,1,.1728-2.055,8.3632,8.3632,0,0,1,.7406-2.0982,4.7729,4.7729,0,0,0,.45-1.2342,2.5031,2.5031,0,0,0,.074-.5616,3.1782,3.1782,0,0,0-6.1218-1.2343,6.9938,6.9938,0,0,1-.216-1.79,7.1216,7.1216,0,1,1,14.2308-.5929q.0061.1484.0062.2967a7.3685,7.3685,0,0,1-1.3577,4.4988c-1.1293,1.74-2.4191,3.351-2.4191,5.5541a7.1092,7.1092,0,0,0,4.937,6.7883,8.201,8.201,0,0,1-2.3883.3209Zm8.2879-8.0967a2.8509,2.8509,0,0,0-1.1787,4.2211,8.3745,8.3745,0,0,1-3.5361,3.1412,4.7272,4.7272,0,0,1,3.8508-7.4734,4.5316,4.5316,0,0,1,.9072.0926Zm.432-4.758a4.4812,4.4812,0,0,1-.8331,2A8.2506,8.2506,0,0,0,23.347,21.87a8.935,8.935,0,0,0-.7344-.6171h0a4.9373,4.9373,0,0,1-2.0426-3.999,5.1619,5.1619,0,0,1,.21-1.4379,3.2339,3.2339,0,0,0,1.5,1.9563,4.9241,4.9241,0,0,0,.58.3394l.8393.395v-.0556a5.4,5.4,0,0,0,1.0923-2.61,4.1288,4.1288,0,0,1,.2962,3.6163h0a3.567,3.567,0,0,1,1.1972,2.919,3.8391,3.8391,0,0,1-.0617.7529Z"/><path class="a" d="M36.771,10.7056A16.6213,16.6213,0,0,1,43.5,24h0a16.6212,16.6212,0,0,1-6.7154,13.2944M33.219,15.4779A10.6973,10.6973,0,0,1,37.6709,24a10.6968,10.6968,0,0,1-4.4656,8.5425M29.8647,19.9094a5.1271,5.1271,0,0,1,0,8.1812"/><circle class="b" cx="21.2131" cy="22.4797" r="0.75"/></svg>