<?xml version="1.0" encoding="UTF-8"?><svg id="b" xmlns="http://www.w3.org/2000/svg" viewBox="0 0 48 48"><defs><style>.c{fill:none;stroke:#000;stroke-linecap:round;stroke-linejoin:round;}</style></defs><g><path class="c" d="m38.647,22.2547c.3948,4.4881,2.6954,3.5784,3.5148,2.9026"/><g><path class="c" d="m4.959,23.0135c.4813-2.5836,4.9113-1.655,4.9113-1.655.9563-1.541,2.5587-2.5663,4.3586-2.7889.2796-.0666,7.6352-.7401,10.2332.001s2.5668,1.4256,3.688,2.7089c1.4722.2938,2.9835.3366,4.47.1266,3.6619-1.0301,7.5618.5031,9.5417,3.7512"/><path class="c" d="m4.5372,26.3765s-.2773-2.9244.6827-3.2882c2.0166-.7637,2.0399,5.7328,1.8022,5.9081l8.2509,3.9713c-.8675-2.0161-1.2458-4.2089-1.1039-6.3991.1077-1.4117,1.5002-3.2245,3.6228-1.12,2.1226,2.1045,2.0082,9.7934,2.0082,9.7934,3.0028.7354,6.111.9404,9.1843.6058,3.8609-.1831,7.6802-.8804,11.3567-2.0734,2.3162-.7732,2.7608-1.6395,3.1009-2.7387s-.9465-1.0172-.419-3.2728-.8612-2.6056-.8612-2.6056"/><path class="c" d="m23.1146,24.5556c-2.4678-.0972-1.7141.5756.1981,2.3772s3.0895,1.6122,5.5879,1.7616.0919-1.4154.0919-1.4154c0,0-3.4101-2.6262-5.8779-2.7234Z"/><path class="c" d="m15.2732,32.9682c1.6738,3.577,4.2016,1.6018,4.2016,1.6018"/><path class="c" d="m4.5374,26.3769c.2437,4.4982,2.4849,2.62,2.4849,2.62"/></g></g><g><path class="c" d="m40.6126,15.4963c-.9665,0-1.75.7835-1.75,1.75h0c0,.9665.7835,1.75,1.75,1.75h1.1375c.9665,0,1.75-.7835,1.75-1.75h0c0-.9665-.7835-1.75-1.75-1.75"/><path class="c" d="m41.7501,15.4963c.9665,0,1.75-.7835,1.75-1.75h0c0-.9665-.7835-1.75-1.75-1.75h-1.1375c-.9665,0-1.75.7835-1.75,1.75h0c0,.9665.7835,1.75,1.75,1.75"/><line class="c" x1="40.6126" y1="15.4963" x2="41.7501" y2="15.4963"/></g></svg>