<?xml version="1.0" encoding="UTF-8"?><svg id="b" xmlns="http://www.w3.org/2000/svg" viewBox="0 0 48 48"><defs><style>.c{fill:none;stroke:#000;stroke-linecap:round;stroke-linejoin:round;}</style></defs><path class="c" d="m4.5351,24.9103v-2.6507c0-.4677.2854-.888.7202-1.0603l3.6509-1.3904v-11.0028c.0744-.6006.5475-1.0738,1.1481-1.1481.7237-.0896,1.383.4244,1.4725,1.1481v.6802c5.4914,3.6809,14.2836,7.1518,22.2856,7.1518h5.8315c1.1048,0,2.0005.8957,2.0005,2.0005v.8902h0c1.0512.011,1.896.8692,1.8905,1.9205v4.2511c-.0327,1.0458-.9045,1.8685-1.9505,1.8405v.9202c0,1.1048-.8957,2.0005-2.0005,2.0005h-2.2006s-2.3106,7.742-2.3106,7.742c-.1089.3891-.4662.656-.8702.6502h-4.051c-.0897.0109-.1804.0109-.2701,0-.489-.1665-.7707-.678-.6502-1.1803l1.2903-4.3211h-.6202c-.0894.0146-.1806.0146-.2701,0-.485-.1705-.7618-.6808-.6402-1.1803l.3901-1.2103c-6.3573.9808-12.4333,3.3027-17.8245,6.8117v.6202c.0105.083.0105.167,0,.2501h0c-.0691.7209-.7094,1.2494-1.4304,1.1803-.7209-.0691-1.2494-.7094-1.1803-1.4304v-11.0028s-3.6509-1.3904-3.6509-1.3904c-.4609-.1629-.7667-.6015-.7602-1.0903Z"/><line class="c" x1="8.9062" y1="27.3609" x2="8.9062" y2="19.819"/><path class="c" d="m29.3814,30.9618c2.6538-.332,5.308-.5524,7.982-.5001"/></svg>