<?xml version="1.0" encoding="UTF-8"?><svg id="a" xmlns="http://www.w3.org/2000/svg" viewBox="0 0 48 48"><defs><style>.b{fill:none;stroke:#000;stroke-linecap:round;stroke-linejoin:round;}</style></defs><path class="b" d="m27.6747,31.3376l8.579-3.4089c1.8165-.683,2.7363-2.7088,2.0533-4.5261-.6821-1.8165-2.7045-2.7397-4.5261-2.0533l-1.0702.4021,5.2591-10.3999c.8761-1.7315.1819-3.8457-1.5505-4.7218-1.7289-.8769-3.8466-.1819-4.7218,1.5505l-1.9821,3.9197c-.9254-.4638-1.954-.4693-2.8491-.1193-.3415-.393-.7649-.7239-1.2772-.9397-.4934-.2084-1.0058-.2845-1.5073-.2636-.3138-.3287-.6967-.6019-1.1397-.7943-1.7821-.7774-3.8508.0412-4.6239,1.8216l-5.2433,12.0622"/><path class="b" d="m36.1997,14.8534c2.2461-.6017,3.8999-2.6513,3.8999-5.0872,0-2.9084-2.3577-5.2662-5.2662-5.2662s-5.2662,2.3577-5.2662,5.2662c0,.6753.1271,1.3209.3587,1.9143"/><path class="b" d="m15.1628,23.9646l12.5119,7.373c.9708.5721,1.3683,1.7743.9298,2.8123l-3.3691,7.9758c-.524,1.2406-2.0137,1.7454-3.184,1.0791l-13.0146-7.41c-1.0308-.5869-1.4285-1.8736-.9085-2.9398l3.8718-7.9387c.5749-1.1789,2.0327-1.6175,3.1627-.9516Z"/></svg>