<?xml version="1.0" encoding="UTF-8"?><svg id="a" xmlns="http://www.w3.org/2000/svg" viewBox="0 0 48 48"><defs><style>.b{fill:none;stroke:#000;stroke-linecap:round;stroke-linejoin:round;}</style></defs><g><g><path class="b" d="m22.39,22.64H7.76V7.05c0-.76.62-1.37,1.38-1.37s1.38.61,1.38,1.37v.6c0-1.09.88-1.97,1.97-1.97,1.08,0,1.96.88,1.96,1.97,0-.55.22-1.04.58-1.39.36-.36.85-.58,1.39-.58,1.09,0,1.97.88,1.97,1.97,0-.55.22-1.04.58-1.39.35-.36.85-.58,1.39-.58,1.09,0,1.97.88,1.97,1.97v-.6c0-.76.62-1.37,1.38-1.37s1.37.61,1.37,1.37v1.79"/><line class="b" x1="10.5161" y1="7.647" x2="10.5161" y2="10.9076"/><line class="b" x1="14.4543" y1="7.647" x2="14.4543" y2="10.9076"/><line class="b" x1="18.3924" y1="7.647" x2="18.3924" y2="10.9076"/><line class="b" x1="22.3306" y1="7.647" x2="22.3306" y2="8.8156"/></g><g><path class="b" d="m7.76,22.06h-.88c-.81,0-1.45.69-1.37,1.51.06.72.71,1.24,1.42,1.24h.54c-1.09,0-1.97.88-1.97,1.97,0,.54.22,1.04.58,1.39.35.36.84.58,1.39.58-1.09,0-1.97.88-1.97,1.97,0,.54.22,1.04.58,1.39.35.36.84.58,1.39.58-1.09,0-1.97.88-1.97,1.97s.88,1.97,1.97,1.97h-.54c-.71,0-1.36.52-1.42,1.24-.08.82.56,1.51,1.37,1.51h19.53c.77,0,1.34-.73,1.16-1.48l-1.18-4.9"/><line class="b" x1="7.4691" y1="36.6267" x2="10.7297" y2="36.6267"/><line class="b" x1="7.4691" y1="32.6885" x2="10.7297" y2="32.6885"/><line class="b" x1="7.4691" y1="28.7503" x2="10.7297" y2="28.7503"/><line class="b" x1="7.4691" y1="24.8122" x2="10.7297" y2="24.8122"/></g><g><path class="b" d="m22.39,16.59l-1.51-6.3c-.18-.75.39-1.48,1.17-1.48h.28l2.75.02,16.04.13c.81,0,1.45.69,1.37,1.51-.06.72-.71,1.24-1.42,1.24h-.54c1.09,0,1.97.89,1.97,1.97,0,1.09-.88,1.97-1.97,1.97.55,0,1.04.22,1.39.58.36.35.58.85.58,1.39,0,1.09-.88,1.97-1.97,1.97.55,0,1.04.22,1.39.58.36.35.58.85.58,1.39,0,1.09-.88,1.97-1.97,1.97h.54c.71,0,1.36.52,1.42,1.24.08.82-.56,1.51-1.37,1.51h-1.01"/><line class="b" x1="40.5309" y1="11.7138" x2="37.2703" y2="11.7138"/><line class="b" x1="40.5309" y1="15.652" x2="37.2703" y2="15.652"/><line class="b" x1="40.5309" y1="19.5901" x2="37.2703" y2="19.5901"/><line class="b" x1="40.5309" y1="23.5283" x2="40.1063" y2="23.5283"/></g><g><path class="b" d="m25.61,23.38l13.02-3.13c.75-.18,1.48.39,1.48,1.17v19.53c0,.8-.69,1.44-1.51,1.37-.72-.07-1.25-.71-1.25-1.43v-.54c0,1.09-.88,1.97-1.96,1.97-1.09,0-1.97-.88-1.97-1.97,0,.55-.22,1.04-.58,1.39-.36.36-.85.58-1.39.58-1.09,0-1.97-.88-1.97-1.97,0,.55-.22,1.04-.58,1.39-.35.36-.84.58-1.39.58-1.09,0-1.97-.88-1.97-1.97v.54c0,.72-.53,1.36-1.24,1.43-.82.07-1.51-.57-1.51-1.37v-1.57"/><line class="b" x1="37.3547" y1="40.353" x2="37.3547" y2="37.0924"/><line class="b" x1="33.4165" y1="40.353" x2="33.4165" y2="37.0924"/><line class="b" x1="29.4783" y1="40.353" x2="29.4783" y2="37.0924"/><line class="b" x1="25.5402" y1="40.353" x2="25.5402" y2="39.3784"/></g></g><g><path class="b" d="m29.4186,26.6131c-.0126-1.6979-1.39-3.069-3.0879-3.074h-.72v-6.8727c.012-.7738-.5161-1.4517-1.2693-1.6293-.8726-.1861-1.7308.3704-1.9169,1.243-.0235.1103-.0354.2228-.0355.3355v6.9235h-.697c-1.7033.0051-3.0828,1.3846-3.0879,3.0879l-1.6478,5.1742c-.1529.4863.1173,1.0046.6037,1.1576.0899.0283.1837.0426.2779.0425h12.3238c.5098.0005.9236-.4123.9241-.9222.0001-.0943-.0142-.188-.0425-.2779l-1.6247-5.188Z"/><line class="b" x1="18.5811" y1="26.6131" x2="29.4186" y2="26.6131"/><line class="b" x1="23.9999" y1="31.1964" x2="23.9999" y2="26.6131"/><line class="b" x1="26.8385" y1="26.6131" x2="27.6785" y2="31.1964"/><line class="b" x1="21.1612" y1="26.6131" x2="20.3212" y2="31.1964"/></g></svg>