<?xml version="1.0" encoding="UTF-8"?><svg id="a" xmlns="http://www.w3.org/2000/svg" viewBox="0 0 48 48"><defs><style>.b{fill:none;stroke:#000;stroke-linecap:round;stroke-linejoin:round;}</style></defs><path class="b" d="m24,43.5c9.0432-3.1174,15.4885-10.3631,16.5-19.5889.2804-4.0049.2566-8.0254-.0714-12.0267-.0898-1.3069-1.1582-2.3314-2.4677-2.3663-4.0911-.126-8.8455-.8077-12.52-4.4273-.7988-.7877-2.0822-.7877-2.881,0-3.6749,3.6192-8.4293,4.3013-12.5199,4.4273-1.3095.0349-2.3779,1.0594-2.4677,2.3663-.3283,4.0013-.3524,8.0217-.0723,12.0267,1.0115,9.2258,7.4568,16.4715,16.5,19.5889Z"/><g><g><path class="b" d="m24.585,14.476v-.9639c0-.4107-.3329-.7437-.7437-.7437s-.7437.333-.7437.7437v.3207c0-.5878-.4765-1.0644-1.0644-1.0644h0c-.5878,0-1.0644.4765-1.0644,1.0644,0-.5878-.4765-1.0644-1.0643-1.0644h0c-.5878,0-1.0644.4765-1.0644,1.0644,0-.5878-.4765-1.0644-1.0644-1.0644s-1.0644.4765-1.0644,1.0644v-.3207c0-.4107-.3329-.7437-.7437-.7437s-.7437.333-.7437.7437v8.4246h8.7245"/><line class="b" x1="16.7114" y1="13.8328" x2="16.7114" y2="15.5952"/><line class="b" x1="18.8402" y1="13.8328" x2="18.8402" y2="15.5952"/><line class="b" x1="20.9689" y1="13.8328" x2="20.9689" y2="15.5952"/><line class="b" x1="23.0976" y1="13.8328" x2="23.0976" y2="14.4644"/></g><g><path class="b" d="m15.224,21.6238h-.4803c-.4348,0-.7825.3731-.7402.8167.0369.3867.3837.6707.7721.6707h.2887c-.5878,0-1.0644.4765-1.0644,1.0644h0c0,.5878.4765,1.0644,1.0644,1.0644-.5878,0-1.0644.4765-1.0644,1.0643h0c0,.5879.4765,1.0644,1.0644,1.0644-.5878,0-1.0644.4765-1.0644,1.0644s.4765,1.0644,1.0644,1.0644h-.2888c-.3884,0-.7353.284-.7721.6707-.0423.4436.3054.8167.7402.8167h10.5565c.4193,0,.7284-.3921.6304-.7998l-1.982-8.2483"/><line class="b" x1="15.0644" y1="29.4975" x2="16.8268" y2="29.4975"/><line class="b" x1="15.0644" y1="27.3687" x2="16.8268" y2="27.3687"/><line class="b" x1="15.0644" y1="25.24" x2="16.8268" y2="25.24"/><line class="b" x1="15.0644" y1="23.1112" x2="16.8268" y2="23.1112"/></g><g><path class="b" d="m32.7061,23.9046h.5502c.4348,0,.7825-.3731.7402-.8167-.0369-.3867-.3837-.6707-.7721-.6707h-.2887c.5878,0,1.0644-.4765,1.0644-1.0644h0c0-.5878-.4765-1.0644-1.0644-1.0644.5878,0,1.0644-.4765,1.0644-1.0643h0c0-.5879-.4765-1.0644-1.0644-1.0644.5878,0,1.0644-.4765,1.0644-1.0644s-.4765-1.0644-1.0644-1.0644h.2888c.3884,0,.7353-.284.7721-.6707.0423-.4436-.3054-.8167-.7402-.8167l-10.3114-.0804c-.4193,0-.7284.3921-.6304.7998l1.5843,6.5933"/><line class="b" x1="32.9356" y1="16.031" x2="31.1732" y2="16.031"/><line class="b" x1="32.9356" y1="18.1598" x2="31.1732" y2="18.1598"/><line class="b" x1="32.9356" y1="20.2885" x2="31.1732" y2="20.2885"/><line class="b" x1="32.9356" y1="22.4172" x2="32.7061" y2="22.4172"/></g><g><path class="b" d="m23.3451,30.9848v.8475c0,.4348.3731.7825.8167.7402.3867-.0369.6707-.3837.6707-.7721v-.2887c0,.5878.4765,1.0644,1.0644,1.0644h0c.5878,0,1.0644-.4765,1.0644-1.0644,0,.5878.4765,1.0644,1.0643,1.0644h0c.5878,0,1.0644-.4765,1.0644-1.0644,0,.5878.4765,1.0644,1.0644,1.0644s1.0644-.4765,1.0644-1.0644v.2888c0,.3884.284.7353.6707.7721.4436.0423.8167-.3054.8167-.7402v-10.5565c0-.4193-.3921-.7284-.7998-.6304l-7.8168,1.8783"/><line class="b" x1="31.2187" y1="31.5117" x2="31.2187" y2="29.7492"/><line class="b" x1="29.09" y1="31.5117" x2="29.09" y2="29.7492"/><line class="b" x1="26.9613" y1="31.5117" x2="26.9613" y2="29.7492"/><line class="b" x1="24.8325" y1="31.5117" x2="24.8325" y2="30.9848"/></g></g></svg>