<?xml version="1.0" encoding="UTF-8"?><svg id="b" xmlns="http://www.w3.org/2000/svg" viewBox="0 0 48 48"><defs><style>.e{fill:none;stroke:#000;stroke-linecap:round;stroke-linejoin:round;}</style></defs><g id="c"><path id="d" class="e" d="M38.5,5.5H9.5c-2.2091,0-4,1.7909-4,4v29c0,2.2091,1.7909,4,4,4h29c2.2091,0,4-1.7909,4-4V9.5c0-2.2091-1.7909-4-4-4Z"/></g><path class="e" d="M26.0557,31.5v-15h4.9107c2.7762,0,5.0268,2.2554,5.0268,5.0376s-2.2506,5.0376-5.0268,5.0376h-4.9107"/><path class="e" d="M18.1943,24c2.0711,0,3.75,1.6789,3.75,3.75s-1.6789,3.75-3.75,3.75h-6.1875v-15h6.1875c2.0711,0,3.75,1.6789,3.75,3.75s-1.6789,3.75-3.75,3.75h0Z"/><line class="e" x1="18.1943" y1="24" x2="12.0068" y2="24"/></svg>