<?xml version="1.0" encoding="UTF-8"?><svg id="b" xmlns="http://www.w3.org/2000/svg" viewBox="0 0 48 48"><defs><style>.c{fill:#000;}.d{fill:none;stroke:#000;stroke-linecap:round;stroke-linejoin:round;}</style></defs><line class="d" x1="19.8884" y1="41.1722" x2="18.9894" y2="42.7703"/><line class="d" x1="21.8611" y1="41.2471" x2="21.1619" y2="42.9951"/><line class="d" x1="23.8172" y1="41.3719" x2="23.1846" y2="43.4695"/><line class="d" x1="25.5569" y1="41.322" x2="25.0825" y2="43.2947"/><line class="d" x1="27.6795" y1="40.7476" x2="27.5047" y2="42.7204"/><line class="d" x1="23.7167" y1="13.8878" x2="23.7167" y2="18.749"/><line class="d" x1="35.2376" y1="22.2242" x2="35.2376" y2="27.0854"/><g><line class="d" x1="12.5623" y1="14.8354" x2="12.5623" y2="19.6966"/><polyline class="d" points="15.1751 19.6966 13.1736 17.266 15.1751 14.8518"/><line class="d" x1="13.1736" y1="17.266" x2="12.5623" y2="17.266"/></g><g><line class="d" x1="12.8679" y1="22.8179" x2="12.8679" y2="27.6791"/><polyline class="d" points="15.4808 27.6791 13.4793 25.2485 15.4808 22.8343"/><line class="d" x1="13.4793" y1="25.2485" x2="12.8679" y2="25.2485"/></g><rect class="d" x="17.8357" y="13.8879" width="3.2205" height="4.8611" rx="1.6103" ry="1.6103"/><path class="d" d="m20.7968,30.8531v1.7592c0,.9536-.773,1.7266-1.7266,1.7266h0c-.9536,0-1.7266-.773-1.7266-1.7266v-2.7128"/><path class="d" d="m20.7968,30.8531v1.7592c0,.9536.773,1.7266,1.7266,1.7266h0c.9536,0,1.7266-.773,1.7266-1.7266v-2.7128"/><rect class="d" x="32.2583" y="13.8879" width="3.2205" height="4.8611" rx="1.6103" ry="1.6103"/><polyline class="d" points="23.7167 26.7335 23.7167 21.8723 26.9372 21.8723 26.9372 26.7335"/><polyline class="d" points="26.3772 19.0973 26.3772 14.2361 29.5978 19.0973 29.5978 14.2361"/><polyline class="d" points="27.4358 35.0611 27.4358 30.1999 30.6564 35.0611 30.6564 30.1999"/><g><polyline class="d" points="21.5656 20.7398 19.5987 23.7087 17.6319 20.7398"/><line class="d" x1="19.5987" y1="26.6775" x2="19.5987" y2="23.7087"/></g><path class="d" d="m30.1101,26.9051v-4.8612h1.5915c.8997,0,1.6291.7309,1.6291,1.6326s-.7294,1.6326-1.6291,1.6326h-1.5915"/><path class="d" d="m11.9307,31.8328c.6826,1.798.633,3.9377.4666,4.9532"/><path class="d" d="m8.8443,32.4266c.2397.9045.8405,2.2474,1.9044,3.6585"/><path class="d" d="m6.5702,34.8543c1.0655,1.2985,2.4061,2.394,3.8046,3.0433"/><path class="d" d="m6.5702,28.5532c.1498,1.0322.378,1.5784.9323,2.6303"/><path class="d" d="m7.8776,21.579c.0574,1.6446-.2232,3.8355-.8414,5.0985"/><path class="d" d="m5.2448,20.889c-.1574.9224-.0918,2.7639.2903,4.4893"/><path class="d" d="m2.5,22.8694c.4303,1.6236,1.6861,3.6385,2.6888,4.8096"/><path class="d" d="m10.7195,10.9924c-.954,1.3409-2.5085,2.91-3.7669,3.5373"/><path class="d" d="m8.3648,8.6553c-.5642.7465-1.3535,2.4116-1.8083,4.1192"/><path class="d" d="m4.728,9.5696c-.2303,1.6638.1497,4.0074.6221,5.475"/><path class="d" d="m6.37,16.6667c-.2847.8934-.3227,1.4594-.2437,2.78"/><circle class="c" cx="8.5346" cy="28.3534" r=".75"/><circle class="c" cx="3.8732" cy="16.6667" r=".75"/><circle class="c" cx="11.9307" cy="40.2732" r=".75"/><path class="d" d="m13.1736,38.7083c1.3542,1.3818,2.774,2.0976,4.17,2.6303"/><path class="d" d="m11.2634,6.6865c1.2153-.7991,3.3642-1.7732,5.2954-2.1561"/><path class="d" d="m36.0693,31.8328c-.6826,1.798-.633,3.9377-.4666,4.9532"/><path class="d" d="m39.1557,32.4266c-.2397.9045-.8405,2.2474-1.9044,3.6585"/><path class="d" d="m41.4298,34.8543c-1.0655,1.2985-2.4061,2.394-3.8046,3.0433"/><path class="d" d="m41.4298,28.5532c-.1498,1.0322-.378,1.5784-.9323,2.6303"/><path class="d" d="m40.1224,21.579c-.0574,1.6446.2232,3.8355.8414,5.0985"/><path class="d" d="m42.7552,20.889c.1574.9224.0918,2.7639-.2903,4.4893"/><path class="d" d="m45.5,22.8694c-.4303,1.6236-1.6861,3.6385-2.6888,4.8096"/><path class="d" d="m37.2805,10.9924c.954,1.3409,2.5085,2.91,3.7669,3.5373"/><path class="d" d="m39.6352,8.6553c.5642.7465,1.3535,2.4116,1.8083,4.1192"/><path class="d" d="m43.272,9.5696c.2303,1.6638-.1497,4.0074-.6221,5.475"/><path class="d" d="m41.63,16.6667c.2847.8934.3227,1.4594.2437,2.78"/><circle class="c" cx="39.4654" cy="28.3534" r=".75"/><circle class="c" cx="44.1268" cy="16.6667" r=".75"/><circle class="c" cx="36.0693" cy="40.2732" r=".75"/><path class="d" d="m34.8264,38.7083c-1.3542,1.3818-2.774,2.0976-4.17,2.6303"/><path class="d" d="m36.7366,6.6865c-1.2153-.7991-3.3642-1.7732-5.2954-2.1561"/></svg>