<?xml version="1.0" encoding="UTF-8"?><svg id="b" xmlns="http://www.w3.org/2000/svg" viewBox="0 0 48 48"><defs><style>.d{fill:none;stroke:#000;stroke-linecap:round;stroke-linejoin:round;}</style></defs><g><g><g><g><g><path class="d" d="m8.3005,14.3696h4.8152"/><path class="d" d="m10.7081,21.6379v-7.2682"/></g><g><path class="d" d="m14.9465,14.3696v7.2682"/><path class="d" d="m19.7617,14.3696v7.2682"/><path class="d" d="m14.9465,17.9899h4.8152"/></g><g><path class="d" d="m34.8845,14.3696v7.2682"/><path class="d" d="m39.6997,14.3696v7.2682"/><path class="d" d="m34.8845,17.9899h4.8152"/></g><g><path class="d" d="m21.6379,19.2066h4.7244"/><path class="d" d="m26.3622,14.3696v7.2682m-4.7244-.0216v-2.4098c0-2.7244,1.9951-4.8369,4.7244-4.8369"/></g><g><path class="d" d="m33.0082,21.6379v-7.2682"/><path class="d" d="m28.2839,14.3696v7.2682m4.7244-2.4314c0-2.7244-1.9951-4.8369-4.7244-4.8369"/></g></g><path class="d" d="m13.0247,33.6305v-7.2682"/><path class="d" d="m8.3003,26.3622v7.2682m4.7243-2.4314c0-2.7244-1.995-4.8369-4.7243-4.8369"/></g><path class="d" d="m15.6591,26.3622v7.2682"/></g><g><path class="d" d="m19.4553,24.8359l.6541-.3634.6541.3634"/><path class="d" d="m18.2938,29.9963h2.3694"/><path class="d" d="m21.9265,33.6305h-3.6341v-7.2682h3.6341"/></g><path class="d" d="m29.1417,33.6305v-7.2682"/><path class="d" d="m24.4173,26.3622v7.2682m4.7243-2.4314c0-2.7244-1.995-4.8369-4.7243-4.8369"/></g><path id="c" class="d" d="m40.5,5.5H7.5c-1.1046,0-2,.8954-2,2v33c0,1.1046.8954,2,2,2h33c1.1046,0,2-.8954,2-2V7.5c0-1.1046-.8954-2-2-2Z"/></svg>