<?xml version="1.0" encoding="UTF-8"?><svg id="a" xmlns="http://www.w3.org/2000/svg" viewBox="0 0 48 48"><defs><style>.c{fill:none;stroke:#000;stroke-linecap:round;stroke-linejoin:round;}</style></defs><path id="b" class="c" d="M16.5046,8.8424c.7333-3.244,5.428-4.1294,8.8961-2.6442,1.807,.7739,.4394,4.5621,1.6154,6.5822,1.8836,3.2356,4.301,1.9806,6.3652,1.4225-.0625-.6407,.0215-1.0529-1.4466-1.5431-1.476-.4928,.7806-4.3617,5.4249-2.0976,6.2881,3.0655,5.1745,15.1274,.6751,22.7604-1.6878-.8117-2.6832-2.3157-3.5443-3.9541-.7742,1.9025,.3046,3.7278,.9885,5.5695-2.6411-1.7923-4.6476-4.1073-6.1964-6.7992-.1161,3.5421,2.1069,6.0705,3.8095,8.8245-6.0705,7.9163-12.5275,6.8652-19.2402-.1206,2.0573-2.5962,3.6998-5.4629,3.93-8.7521-1.9027,2.379-3.4913,4.9055-5.5213,6.7751-.2751-1.713,.2537-3.7352,.7957-5.7624-1.0218,.5846-2.0139,1.4362-2.845,3.7371-3.0807-2.9284-7.2555-17.9464,.3375-22.4711,1.1923-.6435,2.3686-.522,3.5766-.1264,3.4311,1.1235,1.5741,3.376-.0434,3.7513,1.7784,1.9381,4.3894,.9469,6.3521,.3052-.0826-1.8071,.0862-3.564,.4581-5.2802-1.1917-.45-2.3958-.8822-4.3874-.1768Z"/></svg>