<svg xmlns="http://www.w3.org/2000/svg" viewBox="0 0 48 48"><defs><style>.s{fill:none;stroke:#000;stroke-width:1;stroke-linecap:round;stroke-linejoin:round}</style></defs><path d="M12.224842 25.91703c-.346763-.537868-.547722-1.184109-.547722-1.903241 0-11.005717 11.825328-20.023477 12.315925-20.3899351V22.329241l7.762719-1.786996c2.320924-.533939 4.454695 1.091501 4.454695 3.471544 0 11.240186-12.217414 20.362357-12.217414 20.362357l-.02165-15.227922c-.002-1.249129-.419655-2.383983-1.11318-3.290291-1.186079-1.548607-3.179957-2.427327-5.278256-2.052987l.195057-.0434-.02562.002c-1.28459.23839-2.385954 1.058013-2.982931 2.220445l-.01971.03747c-.426206 1.000826-1.894525.935303-2.521894-.104432" class="s"/><path d="M22.020841 43.759465c-4.131577-1.42251-13.5729342-5.437845-16.7982055-13.234056C1.0496842 20.433882 8.8813548 7.824393 8.8813548 7.824393s2.6755802.6876128 6.0663502 2.267739M28.93241 42.612785c4.837821-1.469648 11.255943-5.822037 13.844835-12.087376 4.174922-10.091527-3.664641-22.7049572-3.664641-22.7049572s-7.382457 1.8973299-13.149329 6.6199832" class="s"/><path d="m22.875457 25.932931-6.743643 1.552412c-2.320935.533927-4.454694-1.091512-4.454694-3.471554m12.315925-1.684548-6.218055 1.432363" class="s"/></svg>