<?xml version="1.0" encoding="UTF-8"?><svg id="a" xmlns="http://www.w3.org/2000/svg" viewBox="0 0 48 48"><defs><style>.b{fill:none;stroke:#000;stroke-linecap:round;stroke-linejoin:round;}</style></defs><path class="b" d="M38.5,5.5H9.5c-2.2091,0-4,1.7909-4,4v29c0,2.2091,1.7909,4,4,4h29c2.2091,0,4-1.7909,4-4V9.5c0-2.2091-1.7909-4-4-4Z"/><path class="b" d="M21.0236,28.5345v-9.069h2.0405c2.1913,0,3.9677,1.7764,3.9677,3.9677v1.1336c0,2.1913-1.7764,3.9677-3.9677,3.9677h-2.0405Z"/><path class="b" d="M16.241,24c1.2522,0,2.2673,1.0151,2.2673,2.2673s-1.0151,2.2673-2.2673,2.2673h-3.741v-9.069h3.741c1.2522,0,2.2673,1.0151,2.2673,2.2673s-1.0151,2.2673-2.2673,2.2673h0Z"/><line class="b" x1="16.241" y1="24" x2="12.5" y2="24"/><rect class="b" x="29.4918" y="19.4655" width="6.0082" height="9.069" rx="3.0041" ry="3.0041"/></svg>