<?xml version="1.0" encoding="UTF-8"?><svg id="b" xmlns="http://www.w3.org/2000/svg" viewBox="0 0 48 48"><defs><style>.c{fill:none;stroke:#000;stroke-linecap:round;stroke-linejoin:round;}</style></defs><path class="c" d="M9.5,5.5h19c7.7268,0,14,6.2732,14,14v19c0,2.2077-1.7923,4-4,4h-19c-7.7268,0-14-6.2732-14-14V9.5c0-2.2077,1.7923-4,4-4Z"/><path class="c" d="M29,24c2.7614,0,5,2.2386,5,5s-2.2386,5-5,5-5-2.2386-5-5v-5h5Z"/><path class="c" d="M24,19c0-2.7614,2.2386-5,5-5s5,2.2386,5,5-2.2386,5-5,5h-5v-5Z"/><path class="c" d="M24,29c0,2.7614-2.2386,5-5,5s-5-2.2386-5-5,2.2386-5,5-5h5v5Z"/></svg>