<?xml version="1.0" encoding="UTF-8"?><svg id="a" xmlns="http://www.w3.org/2000/svg" viewBox="0 0 48 48"><defs><style>.c{fill:none;stroke:#000;stroke-linecap:round;stroke-linejoin:round;}</style></defs><path class="c" d="m5.5425,14.2608c7.304-4.5331,13.8436-5.3293,15.3298-2.2613.8918,5.4143-9.183,11.6248-15.3723,12.421"/><path class="c" d="m5.5849,34.6758c13.472-1.4863,30.1926-14.7884,22.4215-21.9968,17.6336,9.6183,2.8451,25.2985-11.9114,29.7042"/><path class="c" d="m30.5543,42.5c6.3485-5.5311,7.2509-8.5354,7.6968-12.3785-.0955,5.2232-1.7517,9.4697-4.066,12.2617"/><path class="c" d="m34.6946,18.571c3.2486,5.1383,3.5564,8.9282,3.5671,11.8265"/><path class="c" d="m15.7234,10.2267c6.1574-.4246,9.1406.5945,12.6333,2.6541"/><rect class="c" x="5.5" y="5.5" width="37" height="37" rx="2" ry="2"/></svg>