<?xml version="1.0" encoding="UTF-8"?><svg id="a" xmlns="http://www.w3.org/2000/svg" viewBox="0 0 48 48"><defs><style>.c{stroke-width:.8662px;}.c,.d{fill:none;stroke:#000;stroke-linecap:round;stroke-linejoin:round;}</style></defs><path id="b" class="d" d="M9.5,5.5c-2.2091,0-4,1.7909-4,4v29c0,2.2091,1.7909,4,4,4h29c2.2091,0,4-1.7909,4-4V9.5c0-2.2091-1.7909-4-4-4H9.5Z"/><path class="d" d="M34.0045,29.6513c-.6509,1.1393-1.8777,1.9072-3.2837,1.9072h0c-2.0872,0-3.7793-1.692-3.7793-3.7793v-2.4565c0-2.0872,1.692-3.7793,3.7793-3.7793h0c2.0872,0,3.7793,1.692,3.7793,3.7793v1.2283s-7.5585,0-7.5585,0"/><path class="c" d="M19.7358,24c2.0872,0,3.7793,1.692,3.7793,3.7793s-1.692,3.7793-3.7793,3.7793h-6.2358v-15.117h6.2358c2.0872,0,3.7793,1.692,3.7793,3.7793s-1.692,3.7793-3.7793,3.7793h0Z"/><line class="c" x1="19.7358" y1="24" x2="13.5" y2="24"/><line class="d" x1="26.9415" y1="16.4415" x2="34.5" y2="16.4415"/></svg>