<svg xmlns="http://www.w3.org/2000/svg" viewBox="0 0 48 48"><defs><style>.a,.b{fill:none;stroke:#000;stroke-linecap:round;stroke-linejoin:round;}.b{stroke-width:0.8662px;}</style></defs><path class="a" d="M40.5,42.5H7.5a2,2,0,0,1-2-2V7.5a2,2,0,0,1,2-2h33a2,2,0,0,1,2,2v33A2,2,0,0,1,40.5,42.5Z"/><path class="a" d="M27.7933,28.86a3.2488,3.2488,0,0,1-2.8239,1.64h0a3.25,3.25,0,0,1-3.25-3.25V25.1375a3.25,3.25,0,0,1,3.25-3.25h0a3.25,3.25,0,0,1,3.25,3.25v1.0562l-6.5,0"/><path class="a" d="M36.907,30.5V25.1375a3.25,3.25,0,0,0-3.25-3.25h0a3.25,3.25,0,0,0-3.25,3.25V30.5"/><line class="a" x1="30.407" y1="25.1375" x2="30.407" y2="21.8875"/><path class="b" d="M16.4555,24a3.25,3.25,0,0,1,0,6.5H11.093v-13h5.3625a3.25,3.25,0,0,1,0,6.5Z"/><line class="b" x1="16.4555" y1="24" x2="11.093" y2="24"/></svg>