<?xml version="1.0" encoding="UTF-8"?><svg id="b" xmlns="http://www.w3.org/2000/svg" viewBox="0 0 48 48"><defs><style>.c{fill:none;stroke:#000;stroke-linecap:round;stroke-linejoin:round;}</style></defs><path class="c" d="M40.5001,16.0504h-8.5504V7.5c0-1.1-.9-2-2-2h-11.8993c-1.1,0-2,.9-2,2v8.5504H7.4999c-1.1,0-2,.9-2,2v11.8992c0,1.1.9,2,2,2h8.5504v8.5503c0,1.1.9,2,2,2h11.8993c1.1,0,2-.9,2-2v-8.5503h8.5504c1.1,0,2-.9,2-2v-11.8992c0-1.1-.9-2-2-2Z"/><path class="c" d="M17.9264,30.0629c-1.485-1.0939-1.3168-7.0659,5.0757-7.0659.9976,0,2.7758.8123,4.3194.729,1.58-.0853,2.9142-1.0798,2.9142-2.271,0-2.3551-3.4295-2.2991-6.6449-.1682,3.1402-2.3551,5.1869-5.8318,12.1682-.4486"/><path class="c" d="M29.7665,17.9988c1.8781-.1326,3.8127,4.8035,7.2893,5.2241"/><path class="c" d="M24,25.3242c2.7311,1.3738,6.431.8993,8.4221-1.3447-.6076,3.1649-2.2425,4.0363-3.9528,4.2326,1.2126.2664,2.8292,0,2.8292,0-1.758,2.1571-3.3409,2.8046-5.5068,1.8509.757.8126,1.5386,1.0846,2.7039,1.0958-2.1361,1.1467-3.8394.9575-5.1221-.1781.0206.66.2875,1.2775.5236,1.5237h0c-4.7082,0-8.5249-3.8167-8.5249-8.5249,0-1.3159.2981-2.5621.8306-3.6749h.0001s.2982.6277,1.1498,1.2585c-.6519-1.2512-.2944-2.4708,1.1257-4.165,0,0-.3476.7689.1886,2.0937.0105-2.1869.9428-3.3925,3.1993-3.7938,0,0-.4341.3031-.3815,1.4912.1577-.7465,2.1473-2.8231,6.3044-.7965l-.0002.0004c-5.5309.1812-7.871,4.0244-6.7702,6.8297"/></svg>