<?xml version="1.0" encoding="UTF-8"?><svg id="b" xmlns="http://www.w3.org/2000/svg" viewBox="0 0 48 48"><defs><style>.d{fill:none;stroke:#000;stroke-linecap:round;stroke-linejoin:round;}</style></defs><path id="c" class="d" d="M38.5,5.5H9.5c-2.2091,0-4,1.7909-4,4v29c0,2.2091,1.7909,4,4,4h29c2.2091,0,4-1.7909,4-4V9.5c0-2.2091-1.7909-4-4-4Z"/><line class="d" x1="30.0292" y1="20.7683" x2="25.1511" y2="27.2317"/><line class="d" x1="30.0292" y1="27.2317" x2="25.1511" y2="20.7683"/><path class="d" d="M36.5,24.7927c0,1.347-1.092,2.439-2.439,2.439h0c-1.347,0-2.439-1.092-2.439-2.439v-1.5854c0-1.347,1.092-2.439,2.439-2.439h0c1.347,0,2.439,1.092,2.439,2.439"/><line class="d" x1="36.5" y1="27.2317" x2="36.5" y2="20.7683"/><path class="d" d="M16.378,27.2317v-4.0244c0-1.347-1.092-2.439-2.439-2.439h0c-1.347,0-2.439,1.092-2.439,2.439"/><line class="d" x1="11.5" y1="27.2317" x2="11.5" y2="20.7683"/><path class="d" d="M23.2386,26.0009c-.4201.7353-1.2118,1.2308-2.1192,1.2308h0c-1.347,0-2.439-1.092-2.439-2.439v-1.5854c0-1.347,1.092-2.439,2.439-2.439h0c1.347,0,2.439,1.092,2.439,2.439v.7927s-4.878,0-4.878,0"/></svg>