<?xml version="1.0" encoding="UTF-8"?><svg id="a" xmlns="http://www.w3.org/2000/svg" viewBox="0 0 48 48"><defs><style>.b{fill:none;stroke:#000;stroke-linecap:round;stroke-linejoin:round;}</style></defs><line class="b" x1="22.802" y1="19.94" x2="22.802" y2="29.865"/><polyline class="b" points="28.8176 29.741 28.8176 19.94 33.3176 29.865 37.8186 19.94 37.8186 29.865"/><path class="b" d="m14.276,24.902c1.3648,0,2.4814,1.1166,2.4814,2.4814s-1.1166,2.4814-2.4814,2.4814h-4.0943v-9.9256h4.0943c1.3648,0,2.4814,1.1166,2.4814,2.4814s-1.1166,2.4814-2.4814,2.4814Z"/><line class="b" x1="14.276" y1="24.902" x2="10.181" y2="24.902"/><path class="b" d="m7.3083,14.823c-1.3705,0-2.4882,1.111-2.4815,2.4815l.0654,13.391c.0067,1.3705,1.111,2.4815,2.4815,2.4815h33.318c1.3705,0,2.4882-1.111,2.4815-2.4815l-.0654-13.391c-.0068-1.3705-1.111-2.4815-2.4815-2.4815h-15.353l-2.4718,2.4718-2.4718-2.4718H7.3083Z"/></svg>