<?xml version="1.0" encoding="UTF-8"?><svg id="b" xmlns="http://www.w3.org/2000/svg" viewBox="0 0 48 48"><defs><style>.k{fill:none;stroke:#000;stroke-linecap:round;stroke-linejoin:round;}</style></defs><g id="c"><path class="k" d="m10.0537,38.5132c0,1.3499.7202,2.5972,1.8892,3.2721s2.6093.6749,3.7783,0c1.0106-.5834,1.6833-1.5953,1.8477-2.7307,5.802,4.576,14.1509,3.9899,19.2455-1.3953,5.1443-5.4378,5.2271-13.9219.1897-19.459-5.0373-5.5371-13.4914-6.2548-19.3901-1.6463l-.0036-7.5441c0-1.3499-.7202-2.5972-1.8892-3.2721s-2.6093-.6749-3.7783,0-1.8892,1.9222-1.8892,3.2721v29.5033Z"/><path id="d" class="k" d="m19.0182,7.072s-.7376-.876-.3573-2.1899c.3803-1.3139,1.9709-1.5905,1.9709-1.5905,0,0,.4034.3688.3688,1.2217.7031-.0346,1.36-.3342,2.4089.3342-.0691.7953-1.5675,3.354-4.3913,2.2245Z"/><g><circle id="e" class="k" cx="26.6259" cy="27.8276" r="10.0978"/><path id="f" class="k" d="m22.031,25.7717c.6614,1.124.6622,2.3837.0017,2.8136-.6605.4299-1.7322-.1328-2.3936-1.2567-.6614-1.124-.6622-2.3837-.0017-2.8136.6605-.4299,1.7322.1328,2.3936,1.2567Z"/><path id="g" class="k" d="m25.6128,22.616c.3157,1.406-.1186,2.7293-.9702,2.9556-.8515.2264-1.7978-.7299-2.1135-2.1358h0c-.3157-1.406.1186-2.7293.9702-2.9556.8515-.2264,1.7978.7299,2.1135,2.1358Z"/><path id="h" class="k" d="m26.374,26.8989c-.3138.0011-.4063.1464-.654.3383-.1362.109-3.1711,2.9496-3.1711,2.9496,0,0-2.6066,2.6461-.3611,4.4734,2.2455,1.8272,4.5131-.6165,4.5131-.6165,0,0,2.2676,2.4437,4.5131.6165,2.2455-1.8272-.3602-4.4734-.3602-4.4734,0,0-3.0358-2.8406-3.172-2.9496-.2512-.2548-.3652-.3061-.654-.3382h-.654Z"/><path id="i" class="k" d="m30.8901,25.7717c-.6614,1.124-.6622,2.3837-.0017,2.8136.6605.4299,1.7322-.1328,2.3936-1.2567.6614-1.124.6622-2.3837.0017-2.8136-.6605-.4299-1.7322.1328-2.3936,1.2567Z"/><path id="j" class="k" d="m27.2857,22.616c-.3157,1.406.1186,2.7293.9702,2.9556.8515.2264,1.7978-.7299,2.1135-2.1358h0c.3157-1.406-.1186-2.7293-.9702-2.9556-.8515-.2264-1.7978.7299-2.1135,2.1358h0Z"/></g></g></svg>