<svg xmlns="http://www.w3.org/2000/svg" viewBox="0 0 48 48"><defs><style>.a{fill:none;stroke:#000;stroke-linecap:round;stroke-linejoin:round;}.b{fill:#000;}</style></defs><path class="a" d="M24,43.5a17.6865,17.6865,0,0,1-3.633-4.09,7.16,7.16,0,0,0-1.0225,2.454,15.9314,15.9314,0,0,1-5.9987-12.2019c-.392.1363-1.244,1.3974-1.244,1.3974s-3.3232-4.2036,1.3349-9.7933a4.1309,4.1309,0,0,1-3.3629-4.6353"/><path class="a" d="M22.8437,33.2636a3.9006,3.9006,0,0,0-2.1586-2.045,1.5229,1.5229,0,0,0-1.4088.5453s-1.1134-2.6812,1.5451-2.9766A22.4115,22.4115,0,0,1,24,28.9464"/><path class="a" d="M14.3683,22.0615a2.7674,2.7674,0,0,1,3.3743-1.2156"/><path class="a" d="M20.8214,28.7873c0-2.0223-.4885-8.2027-2.0677-9.4525a9.8435,9.8435,0,0,0-3.522-1.6814"/><path class="a" d="M20.4692,34.8428A5.2058,5.2058,0,0,0,24,36.32"/><path class="a" d="M11.8007,6.7353C9.3239,7.7919,7.7561,9.3825,7.7561,11.7229s1.5906,5.9305,7.4756,5.9305a5.6288,5.6288,0,0,0,.6136-2.1359,5.03,5.03,0,0,0-.6136-2.2723s-3.8173-.0454-3.8173-3.1811A14.7335,14.7335,0,0,1,11.8007,6.7353Z"/><circle class="b" cx="16.7712" cy="23.6293" r="0.75"/><path class="a" d="M24,43.5a17.6865,17.6865,0,0,0,3.633-4.09,7.16,7.16,0,0,1,1.0225,2.454,15.9314,15.9314,0,0,0,5.9987-12.2019c.392.1363,1.244,1.3974,1.244,1.3974s3.3232-4.2036-1.3349-9.7933a4.1309,4.1309,0,0,0,3.3629-4.6353"/><path class="a" d="M25.1563,33.2636a3.9006,3.9006,0,0,1,2.1586-2.045,1.5229,1.5229,0,0,1,1.4088.5453s1.1134-2.6812-1.5451-2.9766A22.4115,22.4115,0,0,0,24,28.9464"/><path class="a" d="M33.6317,22.0615a2.7674,2.7674,0,0,0-3.3743-1.2156"/><path class="a" d="M27.1786,28.7873c0-2.0223.4885-8.2027,2.0677-9.4525a9.8435,9.8435,0,0,1,3.522-1.6814"/><path class="a" d="M27.5308,34.8428A5.2058,5.2058,0,0,1,24,36.32"/><path class="a" d="M36.1993,6.7353c2.4768,1.0566,4.0446,2.6472,4.0446,4.9876s-1.5906,5.9305-7.4756,5.9305a5.6288,5.6288,0,0,1-.6136-2.1359,5.03,5.03,0,0,1,.6136-2.2723s3.8173-.0454,3.8173-3.1811A14.7335,14.7335,0,0,0,36.1993,6.7353Z"/><circle class="b" cx="31.2288" cy="23.6293" r="0.75"/><path class="a" d="M34.8367,12.7585a4.1193,4.1193,0,0,0-2.31-2.2513A4.1119,4.1119,0,0,1,33.89,8.65c-3.1953-2.6245-6.711.1533-6.711.1533a20.6267,20.6267,0,0,1,2.28-3.4254,8.4809,8.4809,0,0,0-8.6374,2.0195C20.8072,6.0338,20.6226,4.5,20.6226,4.5c-4.61.6561-6.1265,3.8429-5.8112,5.4363-1.3974.2812-1.8048,2.013-1.78,2.7575"/></svg>