<?xml version="1.0" encoding="UTF-8"?><svg id="a" xmlns="http://www.w3.org/2000/svg" viewBox="0 0 48 48"><defs><style>.b{fill:none;stroke:#000;stroke-linecap:round;stroke-linejoin:round;}</style></defs><path class="b" d="M23.1735,5.5741c-2.9877,0-5.9348.6932-8.6093,2.0248.3157.2667.6119.5319.8754.7908,2.1964,2.1568,3.5227,4.9571,4.435,7.6338.7868,2.3087.9823,4.5909.7863,8.8143-2.4235-2.2097-4.1309-3.9613-5.8829-5.9698-2.2809-2.6148-3.3846-4.7684-4.3593-7.696-.0646-.1939-.1271-.4021-.1871-.6215-2.639,2.3812-4.5698,5.4443-5.58,8.8521.6671-.1161,1.5678-.2291,2.546-.2294.6717-.0003,1.3807.0526,2.076.1938,2.0233.4109,4.2056,1.2118,5.2035,1.9246s2.2674,1.6233,3.1719,2.7799l2.174,2.7799s-2.1337.3363-5.738-.499c-2.5207-.5842-4.562-2.174-5.6312-2.8868-.7429-.4953-2.8446-2.1432-4.0585-3.1029-.3579,1.4829-.5388,3.003-.5391,4.5285,0,7.5596,4.4096,14.4245,11.2846,17.5681-.0182-.6547-.0303-1.3905-.0223-2.2787.0166-1.8531.3564-3.671.6415-4.8827s1.1405-3.3502,1.1405-3.3502c0,0,1.2118,3.4928,1.9246,4.9896s1.2118,2.1028,2.281,3.0651c-.7841.2138-1.3433.3975-2.1028.8554-.6553.3951-1.3144.96-1.9246,1.4969-.2614.23-.4729.4293-.6883.6237,2.1689.8132,4.4665,1.2297,6.7828,1.2296,10.3721-.0005,18.8926-8.1918,19.3017-18.5558-2.6702.3143-7.2328.8803-8.9657,1.2697-.499,1.0692-.7128,1.4523-1.782,2.7354s-1.6929,1.7196-3.2611,2.4324-2.6037.8609-4.651,1.1405c-2.6133.3568-5.0565.0624-5.0565.0624.4959-2.2934.4899-3.059,1.4813-4.6043,1.102-1.7175,2.2922-2.4436,2.2922-2.4436l-.5346-6.5578,3.1008,4.9541s.8895-.3673,2.2097-.891c.9511-.3773,1.5814-.541,3.8492-.2851,1.525.1721,2.3166,1.39,2.3166,1.39l9.0125.4633c.0031-.1425.0045-.2851.0045-.4277,0-10.6688-8.6488-19.3176-19.3176-19.3176l.0006.0012Z"/><path class="b" d="M16.9008,31.9485s-.8554,2.1384-1.1405,3.3502-.6249,3.0296-.6415,4.8827c-.008.8883.0041,1.6241.0223,2.2787.0146.5276.0331,1.0022.049,1.4635.5372-.3653.8736-.6493,1.2006-.9445.2154-.1944.4269-.3937.6883-.6237.6101-.5369,1.2693-1.1018,1.9246-1.4969.7595-.4579,1.3186-.6415,2.1028-.8554-1.0692-.9623-1.5682-1.5682-2.281-3.0651s-1.9246-4.9896-1.9246-4.9896h0Z"/><path class="b" d="M21.9976,19.6882l.5346,6.5578s-1.1901.7261-2.2922,2.4436c-.9914,1.5453-.9854,2.311-1.4813,4.6043,0,0,2.4432.2945,5.0565-.0624,2.0473-.2796,3.0829-.4277,4.651-1.1405s2.1919-1.1494,3.2611-2.4324c1.0692-1.2831,1.2831-1.6661,1.782-2.7354,1.733-.3894,6.2955-.9554,8.9657-1.2697,1.205-.1418,2.0248-.2317,2.0248-.2317l-2.0136-.1025-9.0125-.4633s-.7917-1.2179-2.3166-1.39c-2.2678-.2559-2.8981-.0922-3.8492.2851-1.3202.5237-2.2097.891-2.2097.891l-3.1008-4.9541h0Z"/><path class="b" d="M7.1977,19.1727c-.9782.0004-1.879.1134-2.546.2294-.7071.123-1.1517.2495-1.1517.2495,0,0,.3624.2891.8955.7106,1.2138.9598,3.3156,2.6076,4.0585,3.1029,1.0692.7128,3.1105,2.3026,5.6312,2.8868,3.6044.8353,5.738.499,5.738.499l-2.174-2.7799c-.9046-1.1567-2.174-2.0671-3.1719-2.7799s-3.1801-1.5138-5.2035-1.9246c-.6953-.1412-1.4044-.1941-2.076-.1938h0Z"/><path class="b" d="M9.1317,3.792s.388,4.1542,1.1004,6.7583c.06.2193.1225.4275.1871.6215.9746,2.9276,2.0784,5.0813,4.3593,7.696,1.752,2.0085,3.4593,3.7601,5.8829,5.9698.196-4.2233.0005-6.5056-.7863-8.8143-.9122-2.6766-2.2386-5.4769-4.435-7.6338-.2636-.2588-.5597-.5241-.8754-.7908-2.2209-1.8761-5.433-3.8068-5.433-3.8068h0Z"/></svg>