<?xml version="1.0" encoding="UTF-8"?><svg id="a" xmlns="http://www.w3.org/2000/svg" viewBox="0 0 48 48"><defs><style>.c{fill:none;stroke:#000;stroke-linecap:round;stroke-linejoin:round;}</style></defs><line class="c" x1="24.1579" y1="14.8294" x2="24.1579" y2="27.4996"/><path class="c" d="m24.1579,27.4996c0-3.132,2.539-5.671,5.671-5.671s5.671,2.539,5.671,5.671-2.539,5.671-5.671,5.671c-7.7385,0-7.8533-7.5838-12.7921-7.5838-4.2497,0-4.5368,3.2734-4.5368,3.2734"/><path class="c" d="m40.5,5.5H7.5c-1.1046,0-2,.8954-2,2v33c0,1.1046.8954,2,2,2h33c1.1046,0,2-.8954,2-2V7.5c0-1.1046-.8954-2-2-2Z"/></svg>