<svg xmlns="http://www.w3.org/2000/svg" viewBox="0 0 48 48"><defs><style>.a,.c,.d{fill:none;stroke:#000;}.a,.d{stroke-linecap:round;}.a{stroke-linejoin:round;}.b{fill:#000;}</style></defs><path class="a" d="M31.0736,10.4588c-4.7895-2.1168-3.719-3.1336-10.746-5.48S5.1836,11.1951,8.2013,19.1751a10.4954,10.4954,0,0,0,7.2758,6.9242m16.96,2.3739c2.0688,2.9087,1.7258,6.986-2.6773,8.2951M16.92,38.027c3.2414,1.965,8.035,4.5526,9.9513,4.8092,3.7071.4963,10.1093-1.8454,11.6207-8.1185a11.6779,11.6779,0,0,0-.4005-6.9146m-.8578-1.8086a9.1908,9.1908,0,0,0-3.3414-3.4979M15.0809,31.68a9.1341,9.1341,0,0,0-4.0775-1.3737c-5.1332-.0905-8.0943,5.0922-5.611,9.981s9.75,4.0025,11.5273-2.26,6.36-7.2938,6.36-7.2938-5.2144-1.3669-8.084,3.314c0,0-2.8947,6.8786-5.4112,4.7416-2.7456-2.3316.5014-7.0388,4.25-3.22"/><path class="a" d="M13.0583,16.7546s-.9825-5.58,3.5541-6.5071a8.7564,8.7564,0,0,1,7.1646,1.283s-.3727,1.7119-1.82,1.875a2.6528,2.6528,0,0,0,3.0242-.3843,2.4565,2.4565,0,0,1-.564,2.2491s1.7764-.0061,2.371-.6412"/><path class="a" d="M26.6132,13.637s2.0244,4.1837,4.9476,4.093,8.2818-3.17,7.9339,1.2039l1.1869-1.4171.6927,1.6764.2008-2.3268.9744.1605-.0267-1.3423a10.0521,10.0521,0,0,1-5.0668-.2928s1.2629-1.8995,4.9761-.9729c0,0,1.6566-.28.8421-1.6336s-1.5712.6582-1.5712.6582A18.0211,18.0211,0,0,1,39.7022,11.98a6.8063,6.8063,0,0,1-2.7233-3.4752l-.78,1.5825a1.5392,1.5392,0,0,0-2.21,1.2154s-2.6583-.66-2.7555-2.0518a5.5244,5.5244,0,0,0-.018,2.5515s-2.0969.0131-2.5022-.8867c0,0,.0368,3.7547.9161,4.1118A3.6666,3.6666,0,0,1,26.6132,13.637Z"/><path class="a" d="M31.3288,34.49l2.7755-16.5562"/><path class="a" d="M20.292,32.5234,31.3288,34.49"/><path class="a" d="M20.1022,15.439l9.391,1.6729m2.9371.5232,1.674.2982"/><path class="a" d="M29.214,38.9805l.7836-4.6746"/><path class="a" d="M17.4039,37.0008l11.81,1.98"/><path class="a" d="M33.28,24.4361s1.8035,2.24,3.121,1.9546,5.7207-2.9139,6.02,2.0486"/><path class="a" d="M32.854,26.6756s1.7981,2.2374,3.5578,1.744,3.4383-2.3177,3.8718.6551"/><path class="a" d="M12.2407,16.7235s2.9437,2.0352,5.107,1.469,6.6192-2.7117,8.6486,2.1712"/><path class="a" d="M11.8137,20.4363a4.2422,4.2422,0,0,0,3.9716.8491c2.9109-.7562,6.3455-3.6236,7.6632.2638"/><path class="a" d="M24,19.698a3.3924,3.3924,0,0,1,.8387,1.522"/><path class="a" d="M38.8368,12.993a.84.84,0,0,1-1-.551,2.2733,2.2733,0,0,0-2.1721-1.4492"/><circle class="b" cx="36.072" cy="12.9201" r="0.75"/><path class="c" d="M20.1022,15.439c-.8748-.0235-2.3668.1884-2.7871,2.5235m-.5029,2.998C16.0506,25.6612,14.9233,33.04,14.9233,33.04a2.2305,2.2305,0,0,0,.2015,1.3735"/><path class="d" d="M41.4142,28.8744a3.918,3.918,0,0,0-.2023-.97"/></svg>