<svg xmlns="http://www.w3.org/2000/svg" viewBox="0 0 48 48"><defs><style>.a,.b,.c{fill:none;stroke:#000;}.a{stroke-linecap:round;}.a,.b{stroke-linejoin:round;}.d{fill:#000;}</style></defs><path class="a" d="M14.3186,4.5,11.7171,7.24l-.8658,18.6554c-1.6634.5335-1.14,3.2032-1.14,3.2032L6.03,40.5357l.82,2.9642H41.1506l.82-2.9642L38.2891,29.0984s.5231-2.67-1.14-3.2032L36.2829,7.24,33.6814,4.5H14.3186Z"/><path class="a" d="M10.8518,25.8955H24"/><path class="a" d="M9.7119,29.0983H24"/><path class="a" d="M6.0313,40.5367H24"/><path class="a" d="M24,8.7717s-4.951.0424-6.3838.115c-1.8639.0944-2.9759.59-3.47,2.07-.4332,1.2965-.3129,5.8153-.1672,6.9351s.6551,2.9865,2.7621,3.2246S24,21.2754,24,21.2754s5.1521.0787,7.2592-.1594,2.6164-2.1048,2.7621-3.2246.266-5.6386-.1673-6.9351c-.4943-1.4794-1.6063-1.9752-3.47-2.07C28.951,8.8141,24,8.7717,24,8.7717Z"/><path class="a" d="M37.1482,25.8955H24"/><path class="a" d="M38.2881,29.0983H24"/><path class="a" d="M41.9685,40.5367H24"/><path class="b" d="M11.5538,31.4907l-2.132,6.723h20.991l-1.4381-6.723H11.5538Z"/><path class="a" d="M32.4148,31.49h3.48c1.6349,4.5947,1.6154,4.7739,2.2589,6.7226H34.099L32.4146,31.49"/><path class="c" d="M10.1681,34.8073H29.7949"/><path class="c" d="M37.0527,34.8073h-3.74"/><path class="c" d="M13.7863,38.0444,15.34,31.6751"/><path class="c" d="M18.1311,38.1807l.8152-6.505"/><path class="c" d="M22.1968,38.0079l.1068-6.4041"/><path class="c" d="M26.2958,38.0476l-.8-6.2847"/><path class="a" d="M17.3167,17.5618a1.2206,1.2206,0,0,0,.2065-.8259v-.2581"/><circle class="d" cx="23.385" cy="16.9891" r="0.75"/><line class="a" x1="25.4157" y1="14.9798" x2="27.4819" y2="14.9798"/><polyline class="a" points="20.925 12.502 20.099 12.502 20.099 17.458 20.925 17.458"/><polyline class="a" points="29.86 12.502 30.686 12.502 30.686 17.458 29.86 17.458"/></svg>