<svg xmlns="http://www.w3.org/2000/svg" viewBox="0 0 48 48"><defs><style>.a,.b{fill:none;stroke:#000;stroke-linecap:round;stroke-linejoin:round;}.b{stroke-width:1px;}</style></defs><path class="a" d="M37.1216,30.5109c.9576-3.66,3.4955-13.3263,3.4955-13.3263l-1.1827-3.3412.9166-2.2471s-1.1531-1.2419-2.5724-2.6611-4.4056-.5914-4.4056-.5914L29.9727,4.5H17.9977l-3.4,3.8734s-2.9863-.8279-4.4056.5913-2.5724,2.6612-2.5724,2.6612L8.536,13.873,7.3829,17.1846s3.43,12.9507,3.8142,14.5474c.7984,3.1046,1.3306,4.3169,3.5777,5.9136s6.298,4.3169,6.978,4.7308A5.2044,5.2044,0,0,0,24,43.5c.7392,0,1.5671-.71,2.2472-1.1236.4476-.2848,2.5194-1.6758,4.5-3.0264"/><path class="a" d="M18.7148,31.5164a19.367,19.367,0,0,1-2.846-3.7761,3.5831,3.5831,0,0,1,.3253-3.2229,1.4919,1.4919,0,0,0-.5914-1.7445c-.2956-.3252-2.72-2.8976-3.282-3.489s-1.1236-.8574-1.1236-2.0106,4.3761-6.4458,4.3761-6.4458,3.6959.71,4.1986.71a13.4221,13.4221,0,0,0,2.5724-.7391A5.96,5.96,0,0,1,24,10.4727l-1.6558.3253A5.96,5.96,0,0,1,24,10.4727a5.96,5.96,0,0,1,1.6558.3253,13.4241,13.4241,0,0,0,2.5724.7391c.5027,0,4.1986-.71,4.1986-.71s4.3761,5.2927,4.3761,6.4458-.5618,1.4193-1.1236,2.0106-2.9863,3.1638-3.282,3.489a1.4919,1.4919,0,0,0-.5914,1.7445,3.5831,3.5831,0,0,1,.3253,3.2229,19.367,19.367,0,0,1-2.846,3.7761"/><path class="a" d="M32.19,14.8192a14.0621,14.0621,0,0,0-3.7256-.0887,13.2634,13.2634,0,0,0-2.6611.8574c-.1182.207-.2365.207-.1182.9462.1182.71.8279,4.1987.887,4.82s.207,1.0348-.4731,1.1827a16.7966,16.7966,0,0,1-2.1584.4139,16.7945,16.7945,0,0,1-2.1585-.4139c-.65-.1479-.5322-.5618-.4731-1.1827s.7392-4.08.8871-4.82c.1182-.71.0295-.7392-.1183-.9462a12.6133,12.6133,0,0,0-2.6611-.8574,12.92,12.92,0,0,0-3.7256.0887"/><path class="a" d="M24,28.7456V22.95"/><path class="a" d="M29.1448,31.0815c.2661.1774.1183.5027-.1478.6505-.2366.1774-3.5777,2.75-3.8734,3.0455-.3253.2957-.7984.7392-1.1236.7392s-.7983-.4731-1.1236-.7392c-.3252-.2957-3.6368-2.8681-3.8734-3.0455s-.4139-.5027-.1478-.6505c.2661-.1774,1.1236-.5914,2.2767-1.2123A12.639,12.639,0,0,1,24,28.7456a12.639,12.639,0,0,1,2.8681,1.1236C28.0212,30.49,28.8491,30.9337,29.1448,31.0815Z"/><path class="b" d="M38.3722,37.5a2,2,0,0,1,0,4h-3.3v-8h3.3a2,2,0,0,1,0,4Z"/><line class="b" x1="38.3722" y1="37.5" x2="35.0722" y2="37.5"/><circle class="a" cx="37.5" cy="37.5" r="7"/></svg>