<?xml version="1.0" encoding="UTF-8"?><svg id="b" xmlns="http://www.w3.org/2000/svg" viewBox="0 0 48 48"><defs><style>.d{fill:none;stroke:#000;stroke-linecap:round;stroke-linejoin:round;}</style></defs><circle id="c" class="d" cx="24" cy="24" r="21.5"/><polygon class="d" points="24 24 24 9 39 9 24 24"/><polygon class="d" points="24 24 39 24 39 39 24 24"/><polygon class="d" points="24 24 24 39 9 39 24 24"/><polygon class="d" points="24 24 9 24 9 9 24 24"/><path class="d" d="m35,24c0-3.04-1.23-5.79-3.22-7.78"/><path class="d" d="m24,35c3.04,0,5.79-1.23,7.78-3.22"/><path class="d" d="m13,24c0,3.04,1.23,5.79,3.22,7.78"/><path class="d" d="m24,13c-3.04,0-5.79,1.23-7.78,3.22"/><line class="d" x1="16.22" y1="16.22" x2="24" y2="9"/><line class="d" x1="39" y1="24" x2="31.78" y2="16.22"/><line class="d" x1="24" y1="39" x2="31.78" y2="31.78"/><line class="d" x1="9" y1="24" x2="16.22" y2="31.78"/></svg>