<svg xmlns="http://www.w3.org/2000/svg" viewBox="0 0 48 48"><defs><style>.a{fill:none;stroke:#000;stroke-linecap:round;stroke-linejoin:round;}</style></defs><circle class="a" cx="24" cy="24" r="21.5"/><line class="a" x1="24" y1="2.5" x2="24" y2="45.5"/><path class="a" d="M38.19,7.8505C34.1272,17.65,22.4061,37.69,13.312,42.657"/><path class="a" d="M43.3017,33.4787C36.2124,23.58,24.7425,11.7618,5.944,12.3276"/><path class="a" d="M45.2683,20.8433C34.46,30.9419,19.3921,35.1789,4.8653,33.81"/><path class="a" d="M32.2794,4.1527C39.9266,17.194,42.1894,36.5335,24,45.5"/><path class="a" d="M42.0445,12.308C32.8069,12.5692,29.9352,13.74,24,16.0859"/><path class="a" d="M24,40.7663c5.6473,0,13.5053-1.38,19.3017-7.2876C43.706,20.8433,39.8072,11.8979,24,4.1527"/><path class="a" d="M24,8.5112c4.9387.3176,6.8691,1.2462,12.128,4.1713"/><path class="a" d="M9.8105,7.8505C13.8728,17.65,25.5939,37.69,34.688,42.657"/><path class="a" d="M4.6983,33.4787C11.7876,23.58,23.2575,11.7618,42.056,12.3276"/><path class="a" d="M2.7317,20.8433C13.54,30.9419,28.6079,35.1789,43.1347,33.81"/><path class="a" d="M15.7206,4.1527C8.0734,17.194,5.8106,36.5335,24,45.5"/><path class="a" d="M5.9555,12.308C15.1931,12.5692,18.0648,13.74,24,16.0859"/><path class="a" d="M24,40.7663c-5.6473,0-13.5053-1.38-19.3017-7.2876C4.294,20.8433,8.1928,11.8979,24,4.1527"/><path class="a" d="M24,8.5112c-4.9387.3176-6.8691,1.2462-12.128,4.1713"/></svg>