<?xml version="1.0" encoding="UTF-8"?><svg id="b" xmlns="http://www.w3.org/2000/svg" viewBox="0 0 48 48"><defs><style>.c{fill:none;stroke:#000;stroke-linecap:round;stroke-linejoin:round;}</style></defs><path class="c" d="m40.5,5.5H7.5c-1.1,0-2,.9-2,2v33c0,1.1.9,2,2,2h33c1.1,0,2-.9,2-2V7.5c0-1.1-.9-2-2-2Z"/><g><line class="c" x1="34.5" y1="14.3775" x2="34.5" y2="25.6086"/><g><path class="c" d="m23.9905,25.6086v-11.2311h3.6768c2.0787,0,3.7638,1.6887,3.7638,3.7719s-1.6851,3.7719-3.7638,3.7719h-3.6768"/><line class="c" x1="27.6673" y1="21.9213" x2="31.3438" y2="25.6058"/></g><rect class="c" x="30.0315" y="27.7017" width="4.4685" height="5.9208" rx="2.2343" ry="2.2343"/><g><path class="c" d="m18.6931,33.6225v-3.6865c0-1.2339,1.0003-2.2343,2.2343-2.2343h0c1.2339,0,2.2343,1.0003,2.2343,2.2343v3.6865"/><path class="c" d="m23.1617,29.936c0-1.2339,1.0003-2.2343,2.2343-2.2343h0c1.2339,0,2.2343,1.0003,2.2343,2.2343v3.6865"/></g><g><path class="c" d="m18.1328,19.9931c1.5507,0,2.8078,1.2571,2.8078,2.8078s-1.2571,2.8078-2.8078,2.8078h-4.6328v-11.2311h4.6328c1.5507,0,2.8078,1.2571,2.8078,2.8078s-1.2571,2.8078-2.8078,2.8078h0Z"/><line class="c" x1="18.1328" y1="19.9931" x2="13.5" y2="19.9931"/></g></g></svg>