<?xml version="1.0" encoding="UTF-8"?><svg id="b" xmlns="http://www.w3.org/2000/svg" viewBox="0 0 48 48"><defs><style>.c{fill:none;stroke:#000;stroke-linecap:round;stroke-linejoin:round;}</style></defs><path class="c" d="m11.0904,14.0059c-1.3765-1.8423-.999-4.4516.8433-5.8281,1.7021-1.2718,4.0889-1.0581,5.5379.496"/><path class="c" d="m18.1422,11.302c-1.2813-2.1175-.6033-4.8728,1.5142-6.1541s4.8728-.6033,6.1541,1.5142h0c1.4206-1.4597,3.7556-1.4914,5.2153-.0707,1.2525,1.219,1.4774,3.1498.5386,4.6241"/><path class="c" d="m17.9584,22.3231c2.7544,1.0311,4.6832,3.3636,5.7863,6.9977"/><path class="c" d="m23.7447,29.3208c.2163-2.4155.9626-4.1784,2.2388-5.2888"/><path class="c" d="m32.6567,20.7115c.0273,2.2816-1.8003,4.1534-4.0819,4.1806-2.0439.0244-3.7984-1.4494-4.1271-3.4668"/><path class="c" d="m25.1075,20.2357c-.7246,2.0874-3.0284,2.4227-4.3479.7679-.9662,1.0455-2.0261,1.3123-3.1798.8004.9626,1.0058.0541,3.0824-1.8603,2.7796"/><path class="c" d="m11.0904,14.0059c-2.9724,1.1573-4.4438,4.5051-3.2864,7.4775,1.1573,2.9724,4.5051,4.4438,7.4775,3.2864.1523-.0593.3021-.1251.4488-.1971,1.7305,1.3844,3.4502,2.758,4.283,5.8945.8436,3.1257.7895,8.0252.7355,12.9138l5.6025.119c-.1947-5.0076-.4002-10.0044.4326-13.2815.8328-3.2663,2.6931-4.8129,4.5642-6.3596,2.6102,2.5453,5.1626,2.8409,7.6574.8869,3.0608-2.0874,1.2438-6.1757-1.6764-7.1816,1.4023-2.2862.6857-5.2763-1.6006-6.6786-1.1032-.6766-2.4308-.8849-3.6883-.5787"/></svg>