<?xml version="1.0" encoding="UTF-8"?><svg id="a" xmlns="http://www.w3.org/2000/svg" viewBox="0 0 48 48"><defs><style>.d{fill:none;stroke:#000;stroke-linecap:round;stroke-linejoin:round;}</style></defs><g id="b"><path class="d" d="M42.5,34.6479h-1.2949s-4.4472-2.2516-4.6641-2.5116c-.2169-.2599,1.4427-1.2086,1.335-2.1577s-.5266-2.3588-.5606-2.6272c-.034-.2684,3.2518-1.5929,1.1929-4.4885-2.0589-2.8956-2.0078-2.7168-2.4804-4.049s.1679-3.5344-3.1305-7.1115c-3.2985-3.5771-6.5623-4.3749-9.9093-4.6717-3.3471-.2968-7.6421,1.5153-9.6701,4.3028-2.0282,2.7875-2.8994,6.2681-3.3954,9.4669-.4961,3.1988-1.1722,5.2505-.9852,6.3971.187,1.1467,2.0167,2.3704,2.0167,2.3704,0,0-.6402-2.1997-.4121-3.5875s.2453-.8325.2453-.8325c0,0,.1593,3.5497,1.8714,4.748,1.7122,1.1983,3.4116.9739,3.4116.9739,0,0-.5088-.4641-.8803-1.6481s-.3429-1.1644-.3429-1.1644c0,0,.8811,2.526,3.989,3.0564l.0911,1.3565s-1.1313-.6811-4.4503-1.1455-4.7695-1.7797-7.1231-1.7797h-1.8537"/><path class="d" d="M31.5653,10.4019s5.6893,2.1432,7.1943,10.0191"/><path class="d" d="M25.6907,30.471s2.3913.2961,3.0341.3552,1.5526-1.1125,2.2659-1.8875c.7133-.775,1.5851-1.7449,1.8271-3.3185.2628-1.7092-.0265-2.7212.7461-4.3563s1.09-3.8135,1.09-3.8135"/><path class="d" d="M21.8404,19.489c1.4678-1.3564,2.1599-4.1362,2.1599-4.1362l.3477,1.442s.343-1.8003.3841-2.4099c.0411-.6096.1391-1.9553.1391-1.9553,0,0,.7397,1.3094,1.2338,2.9806s.7344,3.408.7344,3.408c.4875.2288,1.1305.1745,1.1305.1745l-.1977-3.0826s.7043,1.4161.9393,2.2599l.2349.8439,2.1056.0328s.383-.7735.4708-1.1883c.0878-.4148.2441-1.6494.2441-1.6494,0,0,.313,1.068.2973,1.8278-.0157.7598-.0157,1.0338-.0157,1.0338l.9656-.6479.6919,2.5233"/><path class="d" d="M22.8171,20.133s1.8026-2.0718,3.7971-.391"/><ellipse class="d" cx="25.2296" cy="21.2165" rx="1.3447" ry="2.1172"/><path class="d" d="M31.5324,20.7666s1.2507-1.619,2.1732.1787"/><path class="d" d="M31.5118,20.07c.5-.2986.9031.2549.9002,1.2364s-.4105,2.0193-.9105,2.3179-.9031-.2549-.9002-1.2364.4105-2.0193.9105-2.3179Z"/><path class="d" d="M27.4829,26.5437s.3987,1.4759,1.2668,1.4705c.7416-.0046,1.3871-1.2211,1.3832-1.6718-.0763-.3396-1.8667-.7602-2.65.2013-.205.75,0,0,0,0h0Z"/><path class="d" d="M24.8824,8.9589s-.5933-1.1904-1.1738-.7854-2.9971,5.9645-1.8687,11.3157,2.6359,5.7548,3.8593,7.5214-.009,3.4608-.009,3.4608"/><path class="d" d="M24.1029,27.3468c1.3499,1.9499,1.0745,3.9968,1.0745,3.9968,0,0-1.1131-.0824-1.523-.3588-.4099-.2764-.7736-.1511-2.3273,0s-2.4906.1296-2.4906.1296"/><path class="d" d="M30.5383,29.7932c4.0081.1175,5.4217-3.2268,5.4217-3.2268,0,0,.1442.566-.0895,1.1258-.2337.5599-.3545.8782-.3545.8782l2.63-1.926"/><path class="d" d="M17.6409,11.659c-.295-1.2049-.4308-1.8472-.1226-2.135.3082-.2877,2.0401-.0227,2.0401-.0227"/><path class="d" d="M23.6541,30.9845c-6.8239-3.6517-5.7983-14.5591-5.7983-14.5591"/><path class="d" d="M23.271,34.3994c2.4121-2.8332,9.4901-4.9378,9.4901-4.9378"/><path class="d" d="M36.5412,32.1368c-3.9294.3473-13.2702,2.2629-13.2702,2.2629"/><path class="d" d="M23.271,34.3994l-3.3858-3.3092"/><path class="d" d="M23.271,34.3994l-4.5852-2.0484"/><path class="d" d="M26.6551,42.4163s-.9435-3.3381-3.3842-8.0161c-8.2342,1.8036-10.8875,4.7063-11.8929,5.8112s-1.822,2.2886-1.822,2.2886"/><path class="d" d="M11.3791,40.2113c9.3489-1.7367,14.7635,1.0721,14.7635,1.0721"/><path class="d" d="M24.5394,37.0593c-2.9605,1.4988-5.0194,2.6699-5.0194,2.6699,0,0-1.0214-2.1936-1.4571-3.8088"/><path class="d" d="M18.6864,32.3515c-5.1846,2.1329-9.4914,3.5666-9.8691,3.6792-.3777.1126-3.3167-1.2615-3.3167-1.2615"/></g><path id="c" class="d" d="M9.5,5.5h29c2.216,0,4,1.784,4,4v29c0,2.216-1.784,4-4,4H9.5c-2.216,0-4-1.784-4-4V9.5c0-2.216,1.784-4,4-4Z"/></svg>