<?xml version="1.0" encoding="UTF-8"?><svg id="a" xmlns="http://www.w3.org/2000/svg" viewBox="0 0 48 48"><defs><style>.c{fill:none;stroke:#000;stroke-linecap:round;stroke-linejoin:round;}</style></defs><path id="b" class="c" d="M9.5,5.5h29c2.216,0,4,1.784,4,4v29c0,2.216-1.784,4-4,4H9.5c-2.216,0-4-1.784-4-4V9.5c0-2.216,1.784-4,4-4Z"/><polyline class="c" points="24.0355 20 24.0355 28 28.0355 28"/><polyline class="c" points="30.2646 20 30.2646 28 34.2646 28"/><polyline class="c" points="39.1621 20 36.5121 24 33.8621 20"/><line class="c" x1="36.5121" y1="28" x2="36.5121" y2="24"/><path class="c" d="M16.3989,20v5.35c0,1.4636,1.1864,2.65,2.65,2.65s2.65-1.1864,2.65-2.65v-5.35"/><path class="c" d="M12.1379,24c1.1046,0,2,.8954,2,2s-.8954,2-2,2h-3.3v-8h3.3c1.1046,0,2,.8954,2,2s-.8954,2-2,2h0Z"/><line class="c" x1="12.1379" y1="24" x2="8.8379" y2="24"/></svg>