<?xml version="1.0" encoding="UTF-8"?><svg id="b" xmlns="http://www.w3.org/2000/svg" viewBox="0 0 48 48"><defs><style>.c{fill:none;stroke:#000;stroke-linecap:round;stroke-linejoin:round;}</style></defs><rect class="c" x="5.5" y="5.5" width="37" height="37" rx="2" ry="2"/><line class="c" x1="14.8993" y1="24.0005" x2="9.6538" y2="24.0005"/><path class="c" d="m14.5907,24.0005c1.7023.0051,3.081,1.3838,3.0861,3.0861-.0056,1.7019-1.3842,3.0801-3.0861,3.0852h-5.0907v-12.3434h5.0907c1.7023.0051,3.081,1.3838,3.0861,3.0861-.0051,1.7023-1.3838,3.081-3.0861,3.0861Z"/><path class="c" d="m30.478,17.8292v8.1768c0,2.3141,1.8507,4.1658,4.011,4.1658s4.011-1.8517,4.011-4.1658v-8.1768"/><path class="c" d="m20.0669,17.8292v8.1768c0,2.3141,1.8507,4.1658,4.0101,4.1658s4.0119-1.8517,4.0119-4.1658v-8.1768"/></svg>