<?xml version="1.0" encoding="UTF-8"?><svg id="a" xmlns="http://www.w3.org/2000/svg" viewBox="0 0 48 48"><defs><style>.c{fill:none;stroke:#000;stroke-linecap:round;stroke-linejoin:round;}</style></defs><path id="b" class="c" d="M5.5,19.6v18.9c0,2.2091,1.7909,4,4,4h29c2.2091,0,4-1.7909,4-4V9.5c0-2.2091-1.7909-4-4-4H9.5c-2.2091,0-4,1.7909-4,4v10.1"/><path class="c" d="M22.1473,26.6345v.0655c0,2.9271-2.3729,5.3-5.3,5.3h0c-2.9271,0-5.3-2.3729-5.3-5.3v-5.4c0-2.9271,2.3729-5.3,5.3-5.3h0c2.9271,0,5.3,2.3729,5.3,5.3v.0655"/><circle class="c" cx="31.1527" cy="26.7" r="5.3"/><path class="c" d="M35.9843,17.9514c-.8832-1.1565-2.229-1.9514-4.4594-1.9514h-.3721c-2.9271,0-5.3,2.3729-5.3,5.3v5.4"/></svg>