<?xml version="1.0" encoding="UTF-8"?><svg id="a" xmlns="http://www.w3.org/2000/svg" viewBox="0 0 48 48"><defs><style>.h{fill:none;stroke:#000;stroke-linecap:round;stroke-linejoin:round;}.i{fill:#000;stroke-width:0px;}</style></defs><path id="c" class="h" d="M38.5006,5.4992H9.4994c-2.2001,0-4.0002,1.8001-4.0002,4.0002v29.0012c0,2.2001,1.8001,4.0002,4.0002,4.0002h29.0012c2.2001,0,4.0002-1.8001,4.0002-4.0002V9.4994c0-2.2001-1.8001-4.0002-4.0002-4.0002Z"/><path id="d" class="h" d="M34.7195,23.1184h7.7805"/><path id="e" class="h" d="M28.3764,23.1184h4.9362"/><path id="f" class="h" d="M5.5,23.1184h14.5667"/><path id="g" class="h" d="M42.5,29.9187l-2.953-2.953h0s-.4901.4901-.4901.4901l-5.0409-5.0409h0s-3.1798,3.1798-3.1798,3.1798l-6.6229-6.6229-15.2562,15.2562-.4901-.4901-2.9669,2.9669"/><circle class="i" cx="24.4897" cy="33.9589" r=".75"/><circle class="i" cx="14.1713" cy="33.9589" r=".75"/><circle class="i" cx="26.4488" cy="37.5581" r=".75"/><circle class="i" cx="22.0312" cy="38.9222" r=".75"/><circle class="i" cx="9.7305" cy="37.5507" r=".75"/><circle class="i" cx="19.1999" cy="32.7181" r=".75"/><circle class="i" cx="21.159" cy="27.1018" r=".75"/><circle class="i" cx="27.4937" cy="27.4283" r=".75"/><circle class="i" cx="24.1893" cy="21.7164" r=".75"/><circle class="i" cx="35.3305" cy="27.5589" r=".75"/><circle class="i" cx="35.3958" cy="31.7385" r=".75"/><circle class="i" cx="39.1182" cy="34.6773" r=".75"/><circle class="i" cx="37.6162" cy="38.366" r=".75"/><circle class="i" cx="33.8937" cy="40.0324" r=".75"/><circle class="i" cx="30.8243" cy="35.9181" r=".75"/><circle class="i" cx="30.759" cy="30.8242" r=".75"/><circle class="i" cx="29.1264" cy="40.3589" r=".75"/><circle class="i" cx="16.4254" cy="37.616" r=".75"/><circle class="i" cx="22.0312" cy="18.0608" r=".75"/><circle class="i" cx="26.2986" cy="18.0608" r=".75"/><circle class="i" cx="24.3557" cy="16.584" r=".75"/><circle class="i" cx="26.52" cy="13.4246" r=".75"/><circle class="i" cx="24.5771" cy="11.9478" r=".75"/><circle class="i" cx="26.1103" cy="10.1382" r=".75"/><circle class="i" cx="26.3892" cy="7.0833" r=".75"/><circle class="i" cx="21.5204" cy="8.2279" r=".75"/><circle class="i" cx="23.5763" cy="9.9496" r=".75"/><circle class="i" cx="21.9401" cy="11.5718" r=".75"/><circle class="i" cx="22.0731" cy="14.9158" r=".75"/><circle class="i" cx="24" cy="14.1658" r=".75"/><circle class="i" cx="24.3263" cy="7.5599" r=".75"/></svg>