<svg xmlns="http://www.w3.org/2000/svg" viewBox="0 0 48 48"><defs><style>.a{fill:none;stroke:#000;stroke-linecap:round;stroke-linejoin:round;}</style></defs><path class="a" d="M18.7,35.47c1.2,1,2.2,1.4,4.8,1.4h.6a5.2949,5.2949,0,0,0,5.2-5.2h0a5.2949,5.2949,0,0,0-5.2-5.2H18.7v-5.6H29.3"/><rect class="a" x="7" y="9.12" width="34" height="34" rx="1.9563"/><line class="a" x1="7" y1="14.62" x2="41" y2="14.62"/><path class="a" d="M12.5,9.12V6.62A2.5,2.5,0,0,1,15,4.12h0a2.5,2.5,0,0,1,2.5,2.5v2.5"/><path class="a" d="M30.5,9.12V6.62A2.5,2.5,0,0,1,33,4.12h0a2.5,2.5,0,0,1,2.5,2.5v2.5"/></svg>