<?xml version="1.0" encoding="UTF-8"?><svg xmlns="http://www.w3.org/2000/svg" viewBox="0 0 48 48"><defs><style>.c{fill:none;stroke:#000;stroke-linecap:round;stroke-linejoin:round;}</style></defs><g id="a"><g><path class="c" d="m21.9073,26.3333c0,2.5926,2.0741,4.6667,4.6667,4.6667s4.4938-2.0741,4.4938-4.6667v-4.6667c0-2.5926-2.0741-4.6667-4.4938-4.6667s-4.6667,2.0741-4.6667,4.6667v4.6667Z"/><g><line class="c" x1="14.9322" y1="18.925" x2="18.4322" y2="17"/><line class="c" x1="18.4322" y1="17" x2="18.4322" y2="31"/></g></g></g><g id="b"><path class="c" d="m38.5,5.5h-4v1c0,1.933-1.567,3.5-3.5,3.5s-3.5-1.567-3.5-3.5v-1h-8v1c0,1.933-1.567,3.5-3.5,3.5s-3.5-1.567-3.5-3.5v-1h-3c-2.2091,0-4,1.7908-4,4v29c0,2.2091,1.7909,4,4,4h29c2.2092,0,4-1.7909,4-4V9.5c0-2.2092-1.7908-4-4-4Z"/></g></svg>