<?xml version="1.0" encoding="UTF-8"?><svg xmlns="http://www.w3.org/2000/svg" viewBox="0 0 48 48"><defs><style>.c{fill:none;stroke:#000;stroke-linecap:round;stroke-linejoin:round;}</style></defs><g id="a"><line class="c" x1="18.7858" y1="20.7375" x2="21.0358" y2="19.5"/><line class="c" x1="21.0358" y1="19.5" x2="21.0358" y2="28.5"/><circle class="c" cx="26.2142" cy="22.5" r="3"/><path class="c" d="M23.5476,27.3889c.4444.6667,1.2222,1.1111,2.4444,1.1111h.2222c1.6667,0,3-1.3333,3-3v-3"/></g><g id="b"><path class="c" d="M38.5,5.5H9.5c-2.2091,0-4,1.7909-4,4v29c0,2.2091,1.7909,4,4,4h24s9-9,9-9V9.5c0-2.2091-1.7909-4-4-4Z"/><line class="c" x1="33.5" y1="5.5" x2="33.5" y2="42.5"/><line class="c" x1="14.5" y1="14.5" x2="14.5" y2="42.5"/><line class="c" x1="42.5" y1="33.5" x2="5.5" y2="33.5"/><line class="c" x1="42.5" y1="14.5" x2="14.5" y2="14.5"/></g></svg>