<?xml version="1.0" encoding="UTF-8"?><svg xmlns="http://www.w3.org/2000/svg" viewBox="0 0 48 48"><defs><style>.g{fill:none;stroke:#000;stroke-linecap:round;stroke-linejoin:round;}</style></defs><g id="a"><path class="g" d="M15.38872286,29.32860553c0-2.07407446,1.65925535-3.73332982,3.5950603-3.73332982s3.73332982,1.65925535,3.73332982,3.73332982c0,.9678972-.41481911,1.93580494-1.10617727,2.6271631-1.52098583,1.24444679-6.22222339,4.83950708-6.22222339,4.83950708h7.32841121"/><path class="g" d="M29.97845904,31.19527571h-1.82000427c-1.54000854,0-2.8,1.26000214-2.8,2.8h0c0,1.53999786,1.25999146,2.8,2.8,2.8h1.82000427c1.54000854,0,2.8-1.26000214,2.8-2.8h0c0-1.53999786-1.26001282-2.8-2.8-2.8Z"/><path class="g" d="M29.97845904,31.19527571c1.54000854,0,2.8-1.26000214,2.8-2.8h0c0-1.53999786-1.25999146-2.8-2.8-2.8h-1.82000427c-1.54000854,0-2.8,1.26000214-2.8,2.8h0c0,1.53999786,1.25999146,2.8,2.8,2.8"/></g><g id="b"><path id="c" class="g" d="M11.53207112,9.56735587h24.93585777c2.209139,0,4,1.79086101,4,4.00000001v24.93264198c0,2.209139-1.79086101,4-4.00000001,4H11.53207111c-2.209139,0-4-1.79086101-4-4.00000001V13.56735587c0-2.209139,1.79086101-4,4.00000001-4Z"/><path id="d" class="g" d="M13.71517468,5.50000214v4.06813574"/><path id="e" class="g" d="M34.13964367,5.50000215v4.06813574"/><path id="f" class="g" d="M9.73128891,19.89056182h28.36000729"/></g></svg>