<?xml version="1.0" encoding="UTF-8"?><svg xmlns="http://www.w3.org/2000/svg" viewBox="0 0 48 48"><defs><style>.d{fill:none;stroke:#000;stroke-linecap:round;stroke-linejoin:round;}</style></defs><g id="a"><line class="d" x1="16.1254" y1="22.78" x2="20.3307" y2="20.8"/><line class="d" x1="20.3307" y1="20.8" x2="15.9282" y2="35.2"/><path class="d" d="M29.9729,25.6c2.651,0,4.143,2.149,3.3325,4.8s-3.6165,4.8-6.2675,4.8-4.143-2.149-3.3325-4.8,3.6165-4.8,6.2675-4.8Z"/><path class="d" d="M35.1635,22.5778c-.385-1.0667-1.412-1.7778-3.3676-1.7778h-.3556c-2.6667,0-5.4522,2.1333-6.2675,4.8l-1.4675,4.8"/></g><g id="b"><polygon class="d" points="5.5 42.2697 33.8769 42.2697 42.5 13.8928 14.1231 13.8928 5.5 42.2697"/><polygon class="d" points="42.5 13.8416 14.1231 13.8416 5.5 5.7303 33.8769 5.7303 42.5 13.8416"/><line class="d" x1="5.5" y1="42.2697" x2="5.5" y2="5.7303"/></g></svg>