<svg xmlns="http://www.w3.org/2000/svg" viewBox="0 0 48 48"><defs><style>.a{fill:none;stroke:#000;stroke-linecap:round;stroke-linejoin:round;}</style></defs><path class="a" d="M12.2554,26.2033A5.2724,5.2724,0,0,1,17.3912,20.87a5.3078,5.3078,0,0,1,3.7531,9.0864c-2.1729,1.7778-8.8889,6.9136-8.8889,6.9136H22.7246"/><polyline class="a" points="33.745 36.87 33.745 20.87 25.145 31.67 35.745 31.67"/><rect class="a" x="7" y="9.12" width="34" height="34" rx="1.9563"/><line class="a" x1="7" y1="14.62" x2="41" y2="14.62"/><path class="a" d="M12.5,9.12V6.62A2.5,2.5,0,0,1,15,4.12h0a2.5,2.5,0,0,1,2.5,2.5v2.5"/><path class="a" d="M30.5,9.12V6.62A2.5,2.5,0,0,1,33,4.12h0a2.5,2.5,0,0,1,2.5,2.5v2.5"/></svg>