<?xml version="1.0" encoding="UTF-8"?><svg xmlns="http://www.w3.org/2000/svg" viewBox="0 0 48 48"><defs><style>.c{fill:none;stroke:#000;stroke-linecap:round;stroke-linejoin:round;}</style></defs><g id="a"><path class="c" d="M25.5411,30.6667c0,2.963,2.3704,5.3333,5.3333,5.3333s5.1358-2.3704,5.1358-5.3333v-5.3333c0-2.963-2.3704-5.3333-5.1358-5.3333s-5.3333,2.3704-5.3333,5.3333v5.3333Z"/><path class="c" d="M11.9916,34.7784c1.1045.9255,2.2971,1.3496,4.9752,1.3496h.6239c2.2086,0,3.9991-1.7904,3.9991-3.9991h0c0-2.2086-1.7904-3.9991-3.9991-3.9991"/><path class="c" d="M11.9898,21.4644c1.107-.9226,2.3007-1.3435,4.9788-1.3363l.6221.0036c2.2086,0,3.9991,1.7904,3.9991,3.9991h0c0,2.2086-1.7904,3.9991-3.9991,3.9991"/><line class="c" x1="14.5167" y1="28.1299" x2="17.5907" y2="28.1299"/></g><g id="b"><path class="c" d="M38.5,5.5h-4v1c0,1.933-1.567,3.5-3.5,3.5s-3.5-1.567-3.5-3.5v-1h-8v1c0,1.933-1.567,3.5-3.5,3.5s-3.5-1.567-3.5-3.5v-1h-3c-2.2091,0-4,1.7908-4,4v29c0,2.2091,1.7909,4,4,4h29c2.2092,0,4-1.7909,4-4V9.5c0-2.2092-1.7908-4-4-4Z"/></g></svg>