<?xml version="1.0" encoding="UTF-8"?><svg xmlns="http://www.w3.org/2000/svg" viewBox="0 0 48 48"><defs><style>.c{fill:none;stroke:#000;stroke-linecap:round;stroke-linejoin:round;}</style></defs><g id="a"><line class="c" x1="14.2796" y1="22.2" x2="18.2796" y2="20"/><line class="c" x1="18.2796" y1="20" x2="18.2796" y2="36"/><polyline class="c" points="25.9048 36 34.5048 20 23.9048 20"/></g><g id="b"><path class="c" d="M38.5,5.5h-4v1c0,1.933-1.567,3.5-3.5,3.5s-3.5-1.567-3.5-3.5v-1h-8v1c0,1.933-1.567,3.5-3.5,3.5s-3.5-1.567-3.5-3.5v-1h-3c-2.2091,0-4,1.7908-4,4v29c0,2.2091,1.7909,4,4,4h29c2.2092,0,4-1.7909,4-4V9.5c0-2.2092-1.7908-4-4-4Z"/></g></svg>