<svg xmlns="http://www.w3.org/2000/svg" viewBox="0 0 48 48"><defs><style>.a,.b{fill:none;stroke:#000;stroke-linecap:round;stroke-linejoin:round;}.b{fill-rule:evenodd;}</style></defs><circle class="a" cx="19.8535" cy="28.9095" r="5"/><path class="a" d="M24.2979,20.7613A4.5481,4.5481,0,0,0,20.2238,18.91h-.37a4.9792,4.9792,0,0,0-5,5v5"/><path class="b" d="M43.5,25.7931V11.8621a4,4,0,0,0-4-4H8.5a4,4,0,0,0-4,4V36.1379a4,4,0,0,0,4,4"/><path class="b" d="M43.5,36.1379V11.8621a4,4,0,0,0-4-4H8.5a4,4,0,0,0-4,4V36.1379a4,4,0,0,0,4,4h31A4,4,0,0,0,43.5,36.1379Z"/><path class="b" d="M35.2069,40.1379V15.819a3.1379,3.1379,0,0,0-3.1379-3.138H4.5"/></svg>