<svg xmlns="http://www.w3.org/2000/svg" viewBox="0 0 48 48"><defs><style>.a{fill:none;stroke:#000;stroke-linecap:round;stroke-linejoin:round;}</style></defs><path class="a" d="M17.391,22.5a2.9657,2.9657,0,0,1,2.8889-3,2.9856,2.9856,0,0,1,2.1111,5.1111c-1.2222,1-5,3.8889-5,3.8889H23.28"/><circle class="a" cx="27.609" cy="25.5" r="3"/><path class="a" d="M30.2757,20.6111A2.7289,2.7289,0,0,0,27.8312,19.5H27.609a2.9875,2.9875,0,0,0-3,3v3"/><path class="a" d="M40.5,5.5H7.5a2,2,0,0,0-2,2v33a2,2,0,0,0,2,2h26l9-9V7.5A2,2,0,0,0,40.5,5.5Z"/><line class="a" x1="33.5" y1="5.5" x2="33.5" y2="42.5"/><line class="a" x1="14.5" y1="14.5" x2="14.5" y2="42.5"/><line class="a" x1="42.5" y1="33.5" x2="5.5" y2="33.5"/><line class="a" x1="42.5" y1="14.5" x2="14.5" y2="14.5"/></svg>