<svg xmlns="http://www.w3.org/2000/svg" viewBox="0 0 48 48"><defs><style>.a{fill:none;stroke:#000;stroke-linecap:round;stroke-linejoin:round;}</style></defs><path class="a" d="M11.532,25A5.9314,5.9314,0,0,1,17.31,19,5.9713,5.9713,0,0,1,21.532,29.2222c-2.4445,2-10,7.7778-10,7.7778H23.31"/><line class="a" x1="27.468" y1="37" x2="36.468" y2="37"/><line class="a" x1="27.468" y1="21.475" x2="31.968" y2="19"/><line class="a" x1="31.968" y1="19" x2="31.968" y2="37"/><circle class="a" cx="32.5" cy="11" r="2.5"/><circle class="a" cx="15.5" cy="11" r="2.5"/><path class="a" d="M7.5,5.5a2,2,0,0,0-2,2v33a2,2,0,0,0,2,2h33a2,2,0,0,0,2-2V7.5a2,2,0,0,0-2-2Z"/></svg>