<?xml version="1.0" encoding="UTF-8"?><svg xmlns="http://www.w3.org/2000/svg" viewBox="0 0 48 48"><defs><style>.c{fill:none;stroke:#000;stroke-linecap:round;stroke-linejoin:round;}</style></defs><g id="a"><g><g><line class="c" x1="14.9322" y1="20.925" x2="18.4322" y2="19"/><line class="c" x1="18.4322" y1="19" x2="18.4322" y2="33"/></g><g><path class="c" d="m27.611,26c1.9012,0,3.4568,1.5556,3.4568,3.4568h0c0,1.9012-1.5556,3.4568-3.4568,3.4568h-1.3827c-2.4198,0-3.284-.3457-4.321-1.2099"/><path class="c" d="m21.9073,20.2963c1.037-.8642,2.0741-1.2099,4.321-1.2099h1.3827,0c1.9012,0,3.4568,1.5555,3.4568,3.4568h0c0,1.9012-1.5556,3.4568-3.4568,3.4568h-3.4568"/></g></g></g><g id="b"><path class="c" d="m8.0988,7.8588c-1.0601,0-1.9194.8593-1.9194,1.9194v31.8025c0,1.06.8593,1.9193,1.9193,1.9193h31.8025c1.06,0,1.9193-.8592,1.9194-1.9192h0V9.7782c0-1.0601-.8593-1.9194-1.9194-1.9194H8.0988Z"/><line class="c" x1="12.8166" y1="10.258" x2="12.8166" y2="4.5"/><line class="c" x1="35.1834" y1="10.258" x2="35.1834" y2="4.5"/></g></svg>