<?xml version="1.0" encoding="UTF-8"?><svg xmlns="http://www.w3.org/2000/svg" viewBox="0 0 48 48"><defs><style>.g{fill:none;stroke:#000;stroke-linecap:round;stroke-linejoin:round;}</style></defs><g id="a"><line class="g" x1="17.23839915" y1="27.13527276" x2="20.03839962" y2="25.59527417"/><line class="g" x1="20.03839962" y1="25.59527417" x2="20.03840106" y2="36.79527684"/><path class="g" d="M24.32730342,35.85055784c.77316329.64785493,1.60795774.94471846,3.48263807.94471781l.43676056-.00000033c1.54603625,0,2.79934626-1.25331001,2.79934626-2.79934626v-.0000056c0-1.54603625-1.25331001-2.79934626-2.79934626-2.79934626"/><path class="g" d="M24.32604832,26.53074083c.77489281-.64578528,1.61047805-.94041561,3.48515168-.9354023l.43550206.00254055c1.54603625,0,2.79934626,1.25331001,2.79934626,2.79934626v.0000056c0,1.54603625-1.25331001,2.79934626-2.79934626,2.79934626"/><line class="g" x1="26.09488382" y1="31.1965772" x2="28.24670206" y2="31.1965772"/></g><g id="b"><path id="c" class="g" d="M11.53207811,9.56734879l24.93585777-.00000109c2.209139-.0000001,4.00000008,1.79086083,4.00000018,3.99999982l.00000109,24.93264198c.0000001,2.209139-1.79086083,4.00000008-3.99999982,4.00000018l-24.93585777.00000109c-2.209139.0000001-4.00000008-1.79086083-4.00000018-3.99999982l-.00000109-24.93264198c-.0000001-2.209139,1.79086083-4.00000008,3.99999982-4.00000018Z"/><path id="d" class="g" d="M13.71518149,5.49999497l.00000018,4.06813574"/><path id="e" class="g" d="M34.13965049,5.49999407l.00000018,4.06813574"/><path id="f" class="g" d="M9.73129636,19.89055481l28.36000729-.00000124"/></g></svg>