<svg xmlns="http://www.w3.org/2000/svg" viewBox="0 0 48 48"><defs><style>.a,.b{fill:none;stroke:#000;stroke-linecap:round;stroke-linejoin:round;}.b{stroke-width:0.9965px;}</style></defs><path class="a" d="M15.803,8.577a2.5135,2.5135,0,1,1-2.516,2.516v-.002A2.5141,2.5141,0,0,1,15.8,8.576h.002Zm16.394,0a2.5141,2.5141,0,0,1,2.515,2.513v.001a2.5141,2.5141,0,0,1-2.515,2.513h0a2.514,2.514,0,0,1,0-5.028h0Z"/><path class="a" d="M7.5,5.5a2,2,0,0,0-2,2v33a2,2,0,0,0,2,2h33a2,2,0,0,0,2-2V7.5a2,2,0,0,0-2-2Z"/><path class="a" d="M25.3847,31a5.9751,5.9751,0,0,0,6,6,5.7905,5.7905,0,0,0,5.7778-6V25a5.9315,5.9315,0,0,0-5.7778-6,6.12,6.12,0,0,0-6,6Z"/><line class="b" x1="35.8291" y1="21.2222" x2="26.9402" y2="34.7778"/><path class="a" d="M18.1709,27.8889a4.4575,4.4575,0,0,1,4.4444,4.4444h0a4.4575,4.4575,0,0,1-4.4444,4.4445H16.3931c-3.1111,0-4.2222-.4445-5.5556-1.5556"/><path class="a" d="M10.8376,20.5556C12.1709,19.4445,13.5042,19,16.3931,19h1.7778a4.4575,4.4575,0,0,1,4.4444,4.4444h0a4.4575,4.4575,0,0,1-4.4444,4.4445H13.7264"/></svg>