<svg xmlns="http://www.w3.org/2000/svg" viewBox="0 0 48 48"><defs><style>.a{fill:none;stroke:#000;stroke-linecap:round;stroke-linejoin:round;}</style></defs><path class="a" d="M12.3,26.2033A5.2724,5.2724,0,0,1,17.4358,20.87a5.3077,5.3077,0,0,1,3.7531,9.0864C19.0161,31.7342,12.3,36.87,12.3,36.87H22.7692"/><path class="a" d="M31.7494,28.7712A3.9623,3.9623,0,0,1,35.7,32.7219h0a3.9623,3.9623,0,0,1-3.9506,3.9506h-1.58c-2.7654,0-3.7531-.3951-4.9383-1.3827"/><path class="a" d="M25.2309,22.2527c1.1851-.9876,2.37-1.3827,4.9382-1.3827h1.58A3.9623,3.9623,0,0,1,35.7,24.8206h0a3.9622,3.9622,0,0,1-3.9506,3.9506H27.7987"/><rect class="a" x="7" y="9.12" width="34" height="34" rx="1.9563"/><line class="a" x1="7" y1="14.62" x2="41" y2="14.62"/><path class="a" d="M12.5,9.12V6.62A2.5,2.5,0,0,1,15,4.12h0a2.5,2.5,0,0,1,2.5,2.5v2.5"/><path class="a" d="M30.5,9.12V6.62A2.5,2.5,0,0,1,33,4.12h0a2.5,2.5,0,0,1,2.5,2.5v2.5"/></svg>