<?xml version="1.0" encoding="UTF-8"?><svg xmlns="http://www.w3.org/2000/svg" viewBox="0 0 48 48"><defs><style>.g{fill:none;stroke:#000;stroke-linecap:round;stroke-linejoin:round;}</style></defs><g id="a"><path class="g" d="M25.07874181,33.08114526c0,2.07407251,1.65925906,3.7333263,3.73333158,3.7333263s3.59505691-1.65925379,3.59505691-3.7333263v-3.7333263c0-2.07407251-1.65925906-3.7333263-3.59505691-3.7333263s-3.73333158,1.65925379-3.73333158,3.7333263v3.7333263Z"/><path class="g" d="M15.59412481,35.9593836c.77316329.64785493,1.60795774.94471846,3.48263807.94471781l.43676056-.00000033c1.54603625,0,2.79934626-1.25331001,2.79934626-2.79934626v-.0000056c0-1.54603625-1.25331001-2.79934626-2.79934626-2.79934626"/><path class="g" d="M15.59286971,26.63956659c.77489281-.64578528,1.61047805-.94041561,3.48515168-.9354023l.43550206.00254055c1.54603625,0,2.79934626,1.25331001,2.79934626,2.79934626v.0000056c0,1.54603625-1.25331001,2.79934626-2.79934626,2.79934626"/><line class="g" x1="17.36170521" y1="31.30540296" x2="19.51352345" y2="31.30540296"/></g><g id="b"><path id="c" class="g" d="M11.53204131,9.56735447l24.93586075-.00000002c2.20913926,0,4.00000048,1.79086121,4.00000048,4.00000047l.00000002,24.93264496c0,2.20913926-1.79086121,4.00000048-4.00000047,4.00000048l-24.93586075.00000002c-2.20913926,0-4.00000048-1.79086121-4.00000048-4.00000047l-.00000002-24.93264496c0-2.20913926,1.79086121-4.00000048,4.00000047-4.00000048Z"/><path id="d" class="g" d="M13.71514513,5.50000026v4.06813622"/><path id="e" class="g" d="M34.13961656,5.50000025v4.06813622"/><path id="f" class="g" d="M9.7312589,19.89056165l28.36001067-.00000002"/></g></svg>