<?xml version="1.0" encoding="UTF-8"?><svg xmlns="http://www.w3.org/2000/svg" viewBox="0 0 48 48"><defs><style>.c{fill:none;stroke:#000;stroke-linecap:round;stroke-linejoin:round;}</style></defs><g id="a"><path class="c" d="M11.6624,25.3333c0-2.963,2.3704-5.3333,5.1358-5.3333s5.3333,2.3704,5.3333,5.3333c0,1.3827-.5926,2.7654-1.5803,3.7531-2.1728,1.7778-8.8889,6.9136-8.8889,6.9136h10.4692"/><path class="c" d="M26.4066,34.6504c1.1045.9255,2.2971,1.3496,4.9752,1.3496h.6239c2.2086,0,3.9991-1.7904,3.9991-3.9991h0c0-2.2086-1.7904-3.9991-3.9991-3.9991"/><path class="c" d="M26.4048,21.3364c1.107-.9226,2.3007-1.3435,4.9788-1.3363l.6221.0036c2.2086,0,3.9991,1.7904,3.9991,3.9991h0c0,2.2086-1.7904,3.9991-3.9991,3.9991"/><line class="c" x1="28.9317" y1="28.0019" x2="32.0058" y2="28.0019"/></g><g id="b"><circle class="c" cx="32.5" cy="11" r="2.5"/><circle class="c" cx="15.5" cy="11" r="2.5"/><rect class="c" x="5.5" y="5.5" width="37" height="37" rx="4" ry="4"/></g></svg>