<svg xmlns="http://www.w3.org/2000/svg" viewBox="0 0 48 48"><defs><style>.a,.b{fill:none;stroke:#000;stroke-linecap:round;stroke-linejoin:round;}.b{stroke-width:0.9965px;}</style></defs><path class="a" d="M24.2827,31a5.975,5.975,0,0,0,6,6A5.79,5.79,0,0,0,36.06,31V25a5.9314,5.9314,0,0,0-5.7778-6,6.12,6.12,0,0,0-6,6Z"/><line class="b" x1="34.7271" y1="21.2222" x2="25.8382" y2="34.7778"/><line class="a" x1="11.9396" y1="37" x2="20.9396" y2="37"/><line class="a" x1="11.9396" y1="21.475" x2="16.4396" y2="19"/><line class="a" x1="16.4396" y1="19" x2="16.4396" y2="37"/><circle class="a" cx="32.5" cy="11" r="2.5"/><circle class="a" cx="15.5" cy="11" r="2.5"/><path class="a" d="M7.5,5.5a2,2,0,0,0-2,2v33a2,2,0,0,0,2,2h33a2,2,0,0,0,2-2V7.5a2,2,0,0,0-2-2Z"/></svg>