<svg xmlns="http://www.w3.org/2000/svg" viewBox="0 0 48 48"><defs><style>.a,.b{fill:none;stroke:#000;stroke-linecap:round;stroke-linejoin:round;}.b{fill-rule:evenodd;}</style></defs><path class="a" d="M18.6827,23.91a4.9429,4.9429,0,0,1,4.8148-5A4.976,4.976,0,0,1,27.016,27.428c-2.037,1.6667-8.3333,6.4815-8.3333,6.4815h9.8148"/><line class="a" x1="11.2094" y1="20.972" x2="14.9594" y2="18.9095"/><line class="a" x1="14.9594" y1="18.9095" x2="14.9594" y2="33.9095"/><path class="b" d="M43.5,25.7931V11.8621a4,4,0,0,0-4-4H8.5a4,4,0,0,0-4,4V36.1379a4,4,0,0,0,4,4"/><path class="b" d="M43.5,36.1379V11.8621a4,4,0,0,0-4-4H8.5a4,4,0,0,0-4,4V36.1379a4,4,0,0,0,4,4h31A4,4,0,0,0,43.5,36.1379Z"/><path class="b" d="M35.2069,40.1379V15.819a3.1379,3.1379,0,0,0-3.1379-3.138H4.5"/></svg>