<?xml version="1.0" encoding="UTF-8"?><svg xmlns="http://www.w3.org/2000/svg" viewBox="0 0 48 48"><defs><style>.c{fill:none;stroke:#000;stroke-linecap:round;stroke-linejoin:round;}</style></defs><g id="a"><line class="c" x1="14.2796" y1="22.2" x2="18.2796" y2="20"/><line class="c" x1="18.2796" y1="20" x2="18.2796" y2="36"/><circle class="c" cx="29.2048" cy="30.6667" r="5.3333"/><path class="c" d="M33.9456,21.9753c-.7901-1.1852-2.1728-1.9753-4.3457-1.9753h-.3951c-2.963,0-5.3333,2.3704-5.3333,5.3333v5.3333"/></g><g id="b"><path class="c" d="M38.5,5.5h-4v1c0,1.933-1.567,3.5-3.5,3.5s-3.5-1.567-3.5-3.5v-1h-8v1c0,1.933-1.567,3.5-3.5,3.5s-3.5-1.567-3.5-3.5v-1h-3c-2.2091,0-4,1.7908-4,4v29c0,2.2091,1.7909,4,4,4h29c2.2092,0,4-1.7909,4-4V9.5c0-2.2092-1.7908-4-4-4Z"/></g></svg>