<?xml version="1.0" encoding="UTF-8"?><svg id="a" xmlns="http://www.w3.org/2000/svg" viewBox="0 0 48 48"><defs><style>.b{fill:none;stroke:#000;stroke-linecap:round;stroke-linejoin:round;}</style></defs><path class="b" d="m19.83,8.77l-2.77,2.84H6.29c-.9886,0-1.79.8014-1.79,1.79v23.22c0,.9902.7998,1.7945,1.79,1.8h35.42c.9902-.0055,1.79-.8098,1.79-1.8V13.4c0-.9886-.8014-1.79-1.79-1.79h-10.77l-2.77-2.84h-8.34Zm18.9162,5.58c1.1645,0,2.1086.8954,2.1086,2s-.944,2-2.1086,2c-1.1584-.1133-1.9995-1.1063-1.8801-2.2051.1024-.9423.8878-1.6873,1.8801-1.7949Z"/><g><circle class="b" cx="24" cy="26.2231" r="8.5069"/><g><polygon class="b" points="26.4543 21.9723 21.5457 21.9723 19.0914 26.2231 21.5457 30.4739 26.4543 30.4739 28.9086 26.2231 26.4543 21.9723"/><line class="b" x1="28.9086" y1="26.2231" x2="31.3693" y2="30.4852"/><line class="b" x1="16.6372" y1="21.9723" x2="19.0914" y2="26.2231"/><line class="b" x1="24" y1="17.7163" x2="21.5457" y2="21.9722"/><line class="b" x1="26.4543" y1="30.4741" x2="24" y2="34.73"/><line class="b" x1="21.5457" y1="30.4741" x2="16.6304" y2="30.4741"/><line class="b" x1="26.4543" y1="21.9722" x2="31.3693" y2="21.9722"/></g></g></svg>