<svg xmlns="http://www.w3.org/2000/svg" viewBox="0 0 48 48"><defs><style>.a,.b,.c{fill:none;stroke:#000;stroke-linecap:round;stroke-linejoin:round;}.d{fill:#000;}</style></defs><circle class="a" cx="24" cy="24" r="21.5"/><path class="a" d="M27.849,45.1564l-.0183-10.7712s.1388.0337.3755.0691c.1184.0176.2611.0357.4232.05s.3435.0258.539.03.4054.0009.6242-.0136a6.3106,6.3106,0,0,0,.6781-.0822,5.3006,5.3006,0,0,0,.7009-.1727c.1171-.0378.234-.0806.35-.1284s.2307-.1007.3439-.16c.2194-.1141.421-.2325.6056-.3522s.3524-.2407.5045-.3605.2881-.2381.41-.3522.2285-.2242.3215-.3269a4.5935,4.5935,0,0,0,.4023-.5079,2.2505,2.2505,0,0,0,.1231-.1994V27.765a5.1623,5.1623,0,0,0-.3474-.4466,5.7983,5.7983,0,0,0-.4188-.4339,5.9867,5.9867,0,0,0-1.0249-.7715,5.7316,5.7316,0,0,0-.594-.3094,5.3371,5.3371,0,0,0-.64-.2383,4.9689,4.9689,0,0,0-.6786-.1538,4.7227,4.7227,0,0,0-.7122-.0544c-.2123.0067-.4122.0207-.6007.0438a5.0116,5.0116,0,0,0-.5332.0939,4.1612,4.1612,0,0,0-.4752.1406,3.6465,3.6465,0,0,0-.8095.4125,4.1,4.1,0,0,0-.3522.2671c-.1128.0954-.2215.1975-.3279.305s-.21.2207-.3132.3395a4.8357,4.8357,0,0,0-.4028.5381,5.4967,5.4967,0,0,0-.33.5871,6.52,6.52,0,0,0-.2642.628q-.1167.3222-.2053.6582c-.0592.2235-.11.45-.1527.68s-.0784.46-.1075.6918-.052.4633-.07.6941-.03.4608-.0384.6879V45.4837"/><path class="a" d="M20.1583,45.1577V34.3852s-.1388.0337-.3755.0691c-.1184.0176-.2611.0357-.4232.05s-.3435.0258-.539.03-.4054.0009-.6242-.0136a6.3106,6.3106,0,0,1-.6781-.0822,5.3006,5.3006,0,0,1-.7009-.1727c-.1171-.0378-.234-.0806-.35-.1284s-.2307-.1007-.3439-.16c-.2194-.1141-.421-.2325-.6056-.3522s-.3524-.2407-.5045-.3605-.2881-.2381-.41-.3522-.2285-.2242-.3215-.3269a4.5935,4.5935,0,0,1-.4023-.5079,2.2821,2.2821,0,0,1-.1231-.1994V27.765a5.1623,5.1623,0,0,1,.3474-.4466,5.7983,5.7983,0,0,1,.4188-.4339,5.9823,5.9823,0,0,1,1.025-.7715,5.72,5.72,0,0,1,.5939-.3094,5.3371,5.3371,0,0,1,.64-.2383,4.9689,4.9689,0,0,1,.6786-.1538,4.7227,4.7227,0,0,1,.7122-.0544c.2123.0067.4122.0207.6007.0438a5.0116,5.0116,0,0,1,.5332.0939,4.1612,4.1612,0,0,1,.4752.1406,3.6465,3.6465,0,0,1,.8095.4125,4.1,4.1,0,0,1,.3522.2671c.1128.0954.2215.1975.3279.305s.21.2207.3132.3395a4.8357,4.8357,0,0,1,.4028.5381,5.4967,5.4967,0,0,1,.33.5871,6.52,6.52,0,0,1,.2642.628q.1167.3222.2053.6582c.0592.2235.11.45.1527.68s.0784.46.1075.6918.052.4633.07.6941.03.4608.0384.6879V45.4837"/><path class="a" d="M13.822,5.113q-.0313.2539-.05.5093a10.2237,10.2237,0,1,0,20.4474,0q-.0029-.25-.018-.4991a21.8766,21.8766,0,0,0-20.38-.01Z"/><path class="b" d="M30.851,13.3043l2.023,3.6343c.2.3456-.1178.9024-.7088,1.2436l-.0192.0111c-.591.3412-1.2318.3376-1.4314-.008l-1.9463-3.5027"/><path class="c" d="M17.231,13.3043l-2.06,3.6356c-.2.3456.1178.9024.7088,1.2436l.0192.0111c.591.3412,1.2318.3376,1.4314-.008l1.9168-3.491"/><circle class="d" cx="19.003" cy="10.408" r="0.75"/><circle class="d" cx="29.044" cy="10.408" r="0.75"/><circle class="d" cx="31.495" cy="29.871" r="0.75"/><circle class="d" cx="16.511" cy="29.871" r="0.75"/></svg>