<?xml version="1.0" encoding="UTF-8"?><svg id="b" xmlns="http://www.w3.org/2000/svg" viewBox="0 0 48 48"><defs><style>.k{fill:none;stroke:#000;stroke-linecap:round;stroke-linejoin:round;}</style></defs><path id="c" class="k" d="M38.5,5.5H9.5c-2.2091,0-4,1.7909-4,4v29c0,2.2091,1.7909,4,4,4h29c2.2091,0,4-1.7909,4-4V9.5c0-2.2091-1.7909-4-4-4Z"/><path id="d" class="k" d="M42.5,28.4061L5.5,38.708"/><path id="e" class="k" d="M29.9211,5.5l8.686,37"/><path id="f" class="k" d="M10.4767,37.3224l1.0878,5.1776"/><path id="g" class="k" d="M5.5,24l27.164-6.816"/><path id="h" class="k" d="M11.6907,5.5l3.9915,15.9451"/><path id="i" class="k" d="M24,33.5571c2.6218-4.4608,6.7012-8.9077,6.6786-13.3824-.0126-2.4893-2.7188-5.8378-6.6786-5.9337-3.7115-.0899-6.6001,2.9767-6.5361,6.7571.0508,3.002,3.4817,7.864,6.5361,12.5591Z"/><circle id="j" class="k" cx="24" cy="20.4" r="2.5"/></svg>