<?xml version="1.0" encoding="UTF-8"?><svg id="b" xmlns="http://www.w3.org/2000/svg" viewBox="0 0 48 48"><defs><style>.f{fill:none;stroke:#000;stroke-linecap:round;stroke-linejoin:round;}</style></defs><path id="c" class="f" d="M38.5,5.5H9.5c-2.2091,0-4,1.7909-4,4v29c0,2.2091,1.7909,4,4,4h29c2.2091,0,4-1.7909,4-4V9.5c0-2.2091-1.7909-4-4-4Z"/><g id="d"><path id="e" class="f" d="M22.9839,27.3515v.0834c0,3.7235-3.0185,6.7419-6.742,6.7419h0c-3.7235,0-6.7419-3.0185-6.7419-6.7419v-6.8691c0-3.7235,3.0185-6.7419,6.7419-6.7419h0c3.7235,0,6.7419,3.0185,6.7419,6.7419v.0834"/></g><line class="f" x1="27.5599" y1="13.8232" x2="27.5599" y2="34.1768"/><line class="f" x1="27.5599" y1="27.0875" x2="38.5" y2="13.8916"/><line class="f" x1="38.5" y1="34.1768" x2="30.1196" y2="24"/></svg>