<svg xmlns="http://www.w3.org/2000/svg" viewBox="0 0 48 48"><defs><style>.a{fill:none;stroke:#000;stroke-linecap:round;stroke-linejoin:round;}</style></defs><path class="a" d="M40.7782,17.1919a7.3159,7.3159,0,0,1,1.12,4.7574l1.2577-3.9038c1.0488,1.9233,1.0345,3.6185.1608,7.072l1.037-1.6646a5.53,5.53,0,0,1-1.2579,4.3964L44.5,26.5341c-1.2623,9.6126-8.8545,12.62-19.07,12.62m-2.6739-.0716c-8.6023-.48-13.8757-3.39-18.2134-9.23l2.5381.7145c-1.6993-1.0118-4.2-3.8547-3.4408-6.46l3.4176,2.8355c-1.4931-2.3048-3.317-4.8979-2.8849-8.08l2.9032,2.198a11.6151,11.6151,0,0,1,1.961-4.48"/><path class="a" d="M33.9087,27.7917,35.37,29.5423l.804-1.959Z"/><path class="a" d="M35.3189,31.6007c.5808.9661.8679,1.0482,2.0617.8808a9.4013,9.4013,0,0,0-1.5748,1.2552c-.7937.9529-.7654,2.5328-1.7547,3.2807a1.19,1.19,0,0,1-.8837.193,1.1243,1.1243,0,0,1-.7721-.4659c-.5469-.9077-.0229-2.1261-.18-3.1742-.091-.6066-.4393-1.7872-.4393-1.7872C33.1373,32.7269,34.3748,32.642,35.3189,31.6007Z"/><ellipse class="a" cx="26.9504" cy="25.2693" rx="0.9018" ry="1.3528"/><ellipse class="a" cx="38.2739" cy="25.4614" rx="0.7215" ry="1.1724"/><path class="a" d="M9.8276,10.3846a10.6878,10.6878,0,0,1,1.8835-6.0938A15.6937,15.6937,0,0,1,16.923,6.51m2.9825,2.6957a16.0728,16.0728,0,0,1,1.5643,2.25"/><path class="a" d="M32.391,12.0139A13.7365,13.7365,0,0,1,33.59,8.8832m1.6621-2.3516A13.2348,13.2348,0,0,1,37.447,4.5464a7.9222,7.9222,0,0,1,1.7235,2.4344"/><path class="a" d="M20.5077,9.9285c5.8342-1.1744,8.1436-.8079,12.0149.9045"/><path class="a" d="M10.6207,13.6458l3.6073-5.411C16.65,4.6021,33.2741,3.47,38.473,8.6684l4.509,4.5089L41.1784,14.981l-4.5091-4.5089c-3.6341-3.634-17.3533-3.1056-19.7357.4679l-3.6073,5.411Z"/><path class="a" d="M17.8328,10.1212a5.8933,5.8933,0,0,1,.7921,7.1606,5.2762,5.2762,0,0,1-6.534,2.2126,5.735,5.735,0,0,1-3.3416-6.2972,5.4967,5.4967,0,0,1,5.23-4.67"/><path class="a" d="M37.4948,7.7489C39.2408,6.523,41.4313,7.0875,42.66,9.08a6.2111,6.2111,0,0,1-.23,6.6706,3.4651,3.4651,0,0,1-5.2373.7559,5.9882,5.9882,0,0,1-1.4087-6.4341"/><path class="a" d="M11.4976,19.28l-.3466,1.9981,1.43.446,1.0678-1.8326"/><path class="a" d="M11.8483,21.6076a7.8448,7.8448,0,0,0-.01,1.9813c.2585,1.0746,1.5439,1.84,1.5227,2.9455-.049,2.5483-3.5282,4.1151-3.77,6.6525-.3508,3.6854,3.9715,6.3483,3.5544,10.5223"/><circle class="a" cx="26.2225" cy="24.7707" r="6.7638"/><path class="a" d="M25.5672,31.6156l-.2063,2.0209"/><path class="a" d="M25.5466,32.9523a1.3413,1.3413,0,0,0-1.41,1.0353l-.1349,1.5177a1.1838,1.1838,0,0,0,.7218,1.2117,1.4523,1.4523,0,0,0,1.525-1.08l.1867-1.2646A1.3572,1.3572,0,0,0,25.5466,32.9523Z"/><path class="a" d="M23.4959,38.2877l-.7128,1.1235a1.0337,1.0337,0,0,0,.0745,1.2293,1.2681,1.2681,0,0,0,1.6158-.2266l.6516-.9064a1.1849,1.1849,0,0,0-.1288-1.4648A1.1707,1.1707,0,0,0,23.4959,38.2877Z"/><path class="a" d="M20.3879,40.404l-1.3107.2291c-.4044.0707-.8808.4726-.859.8826a1.268,1.268,0,0,0,1.2552,1.0424l1.1089-.1281a1.1849,1.1849,0,0,0,.9966-1.0812A1.1709,1.1709,0,0,0,20.3879,40.404Z"/><path class="a" d="M17.0715,43.7092a.8861.8861,0,0,0-.3137-1.0227,1.2182,1.2182,0,0,0-1.5106.17l-.7486.8524"/><path class="a" d="M24.9731,36.1023,24.55,38.2689"/><path class="a" d="M23.323,40.1817l-2.3709,1.1359"/><path class="a" d="M19.05,41.6423,16.4,43.0815"/></svg>