<svg xmlns="http://www.w3.org/2000/svg" viewBox="0 0 48 48"><defs><style>.a{fill:none;stroke:#000;stroke-linecap:round;stroke-linejoin:round;}</style></defs><path class="a" d="M14.9756,8.9973,24,4.5V7.8816l-3.22,1.47"/><path class="a" d="M11.9844,25.7176S8.7037,18.3567,8.496,14.5917"/><path class="a" d="M8.4956,14.5907A79.5058,79.5058,0,0,1,24,12.4855"/><path class="a" d="M11.9844,25.7176s7.5556-5.9384,8.4063-13.0505"/><path class="a" d="M14.6333,30.9693a27.7479,27.7479,0,0,0,7.4275-18.2686"/><path class="a" d="M24,12.4856S22.5311,28.225,16.9639,35.08"/><path class="a" d="M16.9636,35.08S20.6582,41.2586,24,43.5"/><path class="a" d="M24,39.5879V37.8728l-2.2971.8578.6243-1.5216-2.0682-.8667-.0317-1.6439,1.4856-.6791,1.39,1.196-.528-2.4111L24,31.7613"/><path class="a" d="M33.0244,8.9973,24,4.5m0,3.3816,3.22,1.47"/><path class="a" d="M36.0156,25.7176s3.2807-7.3609,3.4884-11.1259"/><path class="a" d="M39.5044,14.5907A79.5058,79.5058,0,0,0,24,12.4855"/><path class="a" d="M36.0156,25.7176S28.46,19.7792,27.6093,12.6671"/><path class="a" d="M33.3667,30.9693a27.7479,27.7479,0,0,1-7.4275-18.2686"/><path class="a" d="M24,12.4856S25.4689,28.225,31.0361,35.08"/><path class="a" d="M31.0364,35.08S27.3418,41.2586,24,43.5"/><path class="a" d="M24,39.5879V37.8728l2.2971.8578-.6243-1.5216,2.0682-.8667.0317-1.6439-1.4856-.6791-1.39,1.196.528-2.4111L24,31.7613"/></svg>