<?xml version="1.0" encoding="UTF-8"?><svg id="b" xmlns="http://www.w3.org/2000/svg" viewBox="0 0 48 48"><defs><style>.d{fill:none;stroke:#000;stroke-linecap:round;stroke-linejoin:round;}</style></defs><path id="c" class="d" d="m39.267,33.7583v.0428c0,1.9132-1.551,3.4642-3.4642,3.4642h0c-1.9132,0-3.4642-1.551-3.4642-3.4642v-3.5295c0-1.9132,1.551-3.4642,3.4642-3.4642h0c1.9132,0,3.4642,1.551,3.4642,3.4642v.0428m-22.0007,3.4439v.0428c0,1.9132-1.551,3.4642-3.4642,3.4642h0c-1.9132,0-3.4642-1.551-3.4642-3.4642v-3.5295c0-1.9132,1.551-3.4642,3.4642-3.4642h0c1.9132,0,3.4642,1.551,3.4642,3.4642v.0428m8.054,1.722h-4.3139m4.3139,0c1.4439,0,2.6145,1.1705,2.6145,2.6145s-1.1705,2.6145-2.6145,2.6145h-4.3139v-10.4579h4.3139c1.4439,0,2.6145,1.1705,2.6145,2.6145s-1.1705,2.6145-2.6145,2.6145h0Zm4.2671-18.5755c0,3.3913-2.7492,6.1405-6.1405,6.1405h0c-3.3913,0-6.1405-2.7492-6.1405-6.1405h0c0-3.3913,2.7492-6.1405,6.1405-6.1405h0c3.3913,0,6.1405,2.7492,6.1405,6.1405Zm-12.3486,6.5198c4.7606,3.4749,9.3289,1.6739,11.9562-.8798m-11.9644.8806c-5.2778.5187-9.8789,1.1793-12.7473,1.9438v2.8852h39v-6.0723h0c-4.2085-.0306-9.2207.0994-14.2941.363"/></svg>