<?xml version="1.0" encoding="UTF-8"?><svg id="a" xmlns="http://www.w3.org/2000/svg" viewBox="0 0 48 48"><defs><style>.b{fill:none;stroke:#000;stroke-linecap:round;stroke-linejoin:round;}</style></defs><path class="b" d="M18.4483,25.7181v.043c0,1.9187-1.5554,3.4741-3.4741,3.4741h0c-1.9187,0-3.4741-1.5554-3.4741-3.4741v-3.5397c0-1.9187,1.5554-3.4741,3.4741-3.4741h0c1.9187,0,3.4741,1.5554,3.4741,3.4741v.043"/><path class="b" d="M21.1358,29.2352v-10.4879h2.3598c2.5341,0,4.5885,2.0543,4.5885,4.5885v1.311c0,2.5341-2.0543,4.5885-4.5885,4.5885h-2.3598Z"/><line class="b" x1="30.8627" y1="18.7648" x2="30.8627" y2="29.2528"/><line class="b" x1="30.8627" y1="25.5997" x2="36.5" y2="18.8001"/><line class="b" x1="36.5" y1="29.2528" x2="32.1817" y2="24.0088"/><rect class="b" x="5.5" y="5.5" width="37" height="37" rx="4" ry="4"/></svg>