<?xml version="1.0" encoding="UTF-8"?><svg id="b" xmlns="http://www.w3.org/2000/svg" viewBox="0 0 48 48"><defs><style>.e{fill:none;stroke:#000;stroke-linecap:round;stroke-linejoin:round;}</style></defs><path id="c" class="e" d="M26.9102,22.2221c-4.5101,5.1023,4.544,13.5004,12.5597,17.213M29.3023,37.7051c-8.5693-6.853-11.0071-14.8457-4.3108-18.7413M22.3252,17.3475c-6.8407,2.7204-9.8995,8.353-2.3661,18.7642M11.4616,34.6652c-4.6293-10.526-.0714-16.8202,7.6831-18.6324M30.9467,13.143l-.8013,4.0896,5.6175,4.9666-6.458-2.1599-1.5209,3.6649-3.1899-5.4245-6.5575-2.7015,4.4865-1.1926-2.5318-5.3345,5.9628,4.6874,4.9927-.5954Z"/><rect id="d" class="e" x="5.5" y="5.5" width="37" height="37" rx="4" ry="4"/></svg>