<svg xmlns="http://www.w3.org/2000/svg" viewBox="0 0 48 48"><defs><style>.a,.b,.c,.d{fill:none;stroke:#000;}.a,.b{stroke-linecap:round;}.a{stroke-width:1px;}.d{stroke-linecap:round;stroke-linejoin:round;}</style></defs><path class="a" d="M10.3,5.5H37.6a4.23,4.23,0,0,1,4.2,4.2V38.4a4.23,4.23,0,0,1-4.2,4.2H10.3a4.23,4.23,0,0,1-4.2-4.2V9.7A4.29,4.29,0,0,1,10.3,5.5Z"/><path class="b" d="M12.8,8.2H35.5a3.33,3.33,0,0,1,3.3,3.3V34.2a3.33,3.33,0,0,1-3.3,3.3H12.8a3.33,3.33,0,0,1-3.3-3.3V11.5A3.4,3.4,0,0,1,12.8,8.2Z"/><path class="c" d="M10.3,9.5,6.9,6.7"/><path class="c" d="M37.6,9.1l3-2.6"/><path class="c" d="M37.6,36.5c.1.3,3.1,4.5,3.1,4.5"/><path class="c" d="M10.6,36.8,7.2,41.2"/><path class="d" d="M31.8,26.3A3.69,3.69,0,0,1,28.1,30h0a3.69,3.69,0,0,1-3.7-3.7V23.9a3.69,3.69,0,0,1,3.7-3.7h0a3.69,3.69,0,0,1,3.7,3.7"/><path class="d" d="M33.3,30a1.54,1.54,0,0,1-1.5-1.5V20.1"/><line class="d" x1="26.9" y1="18.1" x2="29.3" y2="17.3"/></svg>