<svg xmlns="http://www.w3.org/2000/svg" viewBox="0 0 48 48"><defs><style>.a{fill:none;stroke:#000;stroke-linecap:round;stroke-linejoin:round;}</style></defs><path class="a" d="M37.42,13.2a2.6,2.6,0,0,0-2.6-2.61h0a2.61,2.61,0,1,0,1.84,4.47,2.53,2.53,0,0,0,.75-1.86Zm5.07-7A25.3,25.3,0,0,1,40.78,16,25.79,25.79,0,0,1,35,24.16c-1.23,1.24-2.71,2.57-4.42,4l-.46,8.58a.77.77,0,0,1-.36.59l-8.69,5.08a.6.6,0,0,1-.37.09.77.77,0,0,1-.52-.2l-1.45-1.45a.72.72,0,0,1-.18-.72l1.93-6.26-6.37-6.38L7.9,29.43H7.7a.74.74,0,0,1-.53-.21L5.72,27.79a.7.7,0,0,1-.11-.88l5.08-8.7a.81.81,0,0,1,.59-.37l8.58-.46Q22,14.8,23.85,13A26.37,26.37,0,0,1,32,7.12a25.44,25.44,0,0,1,9.77-1.61.78.78,0,0,1,.54.21A.7.7,0,0,1,42.49,6.23Z"/><path class="a" d="M28.18,15.88h3.7a2.26,2.26,0,0,1,2.26,2.26V20.1a0,0,0,0,1,0,0H25.91a0,0,0,0,1,0,0V18.15a2.26,2.26,0,0,1,2.26-2.26Z" transform="translate(21.52 -15.96) rotate(45)"/><line class="a" x1="30.62" y1="28.16" x2="20.52" y2="33.87"/><line class="a" x1="19.86" y1="17.38" x2="14.15" y2="27.49"/></svg>