<?xml version="1.0" encoding="UTF-8"?><svg id="a" xmlns="http://www.w3.org/2000/svg" viewBox="0 0 48 48"><defs><style>.b{fill:none;stroke:#000;stroke-linecap:round;stroke-linejoin:round;}.c{fill:#000;stroke-width:0px;}</style></defs><path class="b" d="M38.5,5.5H9.5c-2.2091,0-4,1.7909-4,4v29c0,2.2091,1.7909,4,4,4h29c2.2091,0,4-1.7909,4-4V9.5c0-2.2091-1.7909-4-4-4Z"/><path class="b" d="M20.0049,23.9407c0-1.2444,1.0182-2.2626,2.2626-2.2626h0c1.2444,0,2.2626,1.0182,2.2626,2.2626v3.7333"/><line class="b" x1="20.0049" y1="21.678" x2="20.0049" y2="27.7871"/><path class="b" d="M24.5301,23.9407c0-1.2444,1.0182-2.2626,2.2626-2.2626h0c1.2444,0,2.2626,1.0182,2.2626,2.2626v3.7333"/><path class="b" d="M31.5188,23.9407c0-1.2444,1.0182-2.2626,2.2626-2.2626"/><line class="b" x1="31.5188" y1="21.678" x2="31.5188" y2="27.7871"/><circle class="c" cx="17.4551" cy="18.9629" r=".75"/><line class="b" x1="17.4551" y1="21.678" x2="17.4551" y2="27.7871"/><path class="b" d="M15.2068,26.6558c-.3394.6788-1.1313,1.1313-1.9232,1.1313h0c-1.2444,0-2.2626-1.0182-2.2626-2.2626v-1.4707c0-1.2444,1.0182-2.2626,2.2626-2.2626h0c.7919,0,1.5838.4525,1.9232,1.1313"/><circle class="c" cx="36.229" cy="18.9629" r=".75"/><line class="b" x1="36.229" y1="21.678" x2="36.229" y2="27.7871"/></svg>