<?xml version="1.0" encoding="UTF-8"?><svg id="a" xmlns="http://www.w3.org/2000/svg" viewBox="0 0 48 48"><defs><style>.c{fill:none;stroke:#000;stroke-linecap:round;stroke-linejoin:round;}</style></defs><path class="c" d="m42.2076,11.444c-8.4364-8.5273-22.1882-8.601-30.7156-.1646-3.0067,2.9746-5.0794,6.7624-5.9638,10.8983l11.4301,2.7254c.7567-5.5611,5.708-9.4317,11.0589-8.6453,1.9152.2815,3.7073,1.1466,5.1497,2.486l9.0408-7.2999Z"/><path class="c" d="m6.4047,21.6975c4.158-11.1018,16.6042-16.7589,27.7992-12.6355,2.2562.831,4.3567,2.0297,6.2148,3.5467"/><path class="c" d="m42.4718,41.556c-8.4364,8.5273-22.1882,8.601-30.7156.1646-3.0067-2.9746-5.0794-6.7624-5.9639-10.8983l11.418-2.7254c.7567,5.5611,5.708,9.4317,11.0589,8.6453,1.9153-.2815,3.7073-1.1466,5.1497-2.486l9.0528,7.2999Z"/><path class="c" d="m40.3226,43.1048l-7.516-5.9552c-3.3322,3.1155-9.3208,2.9899-13.3759-.2805-2.1627-1.7442-3.4319-4.1323-3.469-6.5271l-9.2209,2.3172"/></svg>