<svg xmlns="http://www.w3.org/2000/svg" viewBox="0 0 48 48"><defs><style>.a{fill:none;stroke:#000;stroke-linecap:round;stroke-linejoin:round;}</style></defs><path class="a" d="M17.49,6.89a7,7,0,1,1-7.09,7.05A7.1,7.1,0,0,1,17.49,6.89Zm14.18,0a7,7,0,1,1-7.09,7.05A7.1,7.1,0,0,1,31.67,6.89ZM17.49,10.26a3.68,3.68,0,1,0,3.72,3.68A3.68,3.68,0,0,0,17.49,10.26Zm14.18,0a3.68,3.68,0,1,0,3.72,3.68A3.67,3.67,0,0,0,31.67,10.26ZM15,27.8V21H33.82v5.87l3.89-2.37,5.58-3.39.1,6.67.11,6.54-5.79-3.21-3.89-2.16v5.56h-16M13.43,24.05,16,30l6.47.5L17.5,34.77,19,41.07l-5.55-3.36L8,41.11l1.48-6.32L4.5,30.59,11,30.05l2.47-6Z"/></svg>