<?xml version="1.0" encoding="UTF-8" standalone="no"?>
<!-- Created with Inkscape (http://www.inkscape.org/) -->

<svg
   width="48mm"
   height="48mm"
   viewBox="0 0 48 48"
   version="1.1"
   id="svg1"
   xml:space="preserve"
   inkscape:version="1.3.2 (091e20ef0f, 2023-11-25)"
   sodipodi:docname="CityApp - Your guide to VDL.svg"
   xmlns:inkscape="http://www.inkscape.org/namespaces/inkscape"
   xmlns:sodipodi="http://sodipodi.sourceforge.net/DTD/sodipodi-0.dtd"
   xmlns="http://www.w3.org/2000/svg"
   xmlns:svg="http://www.w3.org/2000/svg"><sodipodi:namedview
     id="namedview1"
     pagecolor="#505050"
     bordercolor="#ffffff"
     borderopacity="1"
     inkscape:showpageshadow="0"
     inkscape:pageopacity="0"
     inkscape:pagecheckerboard="1"
     inkscape:deskcolor="#d1d1d1"
     inkscape:document-units="mm"
     inkscape:zoom="2.8284272"
     inkscape:cx="-53.209784"
     inkscape:cy="59.573745"
     inkscape:window-width="2560"
     inkscape:window-height="1011"
     inkscape:window-x="0"
     inkscape:window-y="0"
     inkscape:window-maximized="1"
     inkscape:current-layer="layer1" /><defs
     id="defs1" /><g
     inkscape:label="Layer 1"
     inkscape:groupmode="layer"
     id="layer1"><path
       style="fill:none;fill-opacity:1;stroke:#000000;stroke-width:1;stroke-linecap:square;stroke-linejoin:miter;stroke-dasharray:none;stroke-opacity:1;paint-order:normal"
       d="m 6.218256,39.414865 c 1.3905538,-3.40276 5.779899,-3.396675 8.097924,-3.667627 2.318025,-0.270951 8.876018,-0.59069 8.925166,-7.622662 -1.261884,2.820011 -3.785932,3.239747 -5.896668,3.70565 -3.005997,0.663514 -10.8290297,1.859726 -11.126422,7.584639 z"
       id="path16"
       sodipodi:nodetypes="cscsc" /><path
       style="fill:none;fill-opacity:1;stroke:#000000;stroke-width:1;stroke-linecap:square;stroke-linejoin:miter;stroke-dasharray:none;stroke-opacity:1;paint-order:normal"
       d="m 23.038946,33.831761 c 3.313244,-3.172849 2.03844,-6.254442 1.711295,-9.436741 1.641853,0.290397 3.109248,4.576829 3.10592,5.952168 -0.0056,2.324726 -1.968637,3.36985 -4.817215,3.484573 z"
       id="path17"
       sodipodi:nodetypes="ccsc" /><path
       style="fill:none;fill-opacity:1;stroke:#000000;stroke-width:1;stroke-linecap:square;stroke-linejoin:miter;stroke-dasharray:none;stroke-opacity:1;paint-order:normal"
       d="m 42.216768,28.303373 c -8.163444,1.503524 -9.851485,-3.922946 -11.308916,-7.511112 -1.322846,-3.25682 -1.280686,-6.056662 -4.119166,-6.079903 5.721104,-2.173445 5.48635,0.263274 5.94084,1.47587 0.91598,2.443891 1.38897,4.908551 3.19579,7.314328 1.618102,2.154501 2.399544,3.297717 6.291452,4.800817 z"
       id="path18"
       sodipodi:nodetypes="cscssc" /><path
       style="fill:none;fill-opacity:1;stroke:#000000;stroke-width:1;stroke-linecap:square;stroke-linejoin:miter;stroke-dasharray:none;stroke-opacity:1;paint-order:normal"
       d="m 36.124007,29.633275 c -5.797498,3.22542 -6.861581,-1.078867 -7.505031,-2.762485 -1.197865,-3.134273 -2.15714,-12.164351 -9.107899,-7.330205 -0.62569,0.435158 -2.58718,1.267786 -3.799116,1.673365 -0.440942,0.147563 -0.474114,0.427343 0.0056,0.737713 2.745499,1.776488 2.752074,7.377181 0.529004,7.972851 -1.39836,0.374689 -1.695714,-0.585595 -2.016472,-2.487804 3.149949,-0.795131 1.364039,-5.121535 -0.766337,-4.028052 -0.220071,-0.812675 -0.520153,-1.517458 -0.977972,-1.975277 -1.101898,-1.101898 1.291627,-2.854554 1.670441,-3.073262 2.576706,-1.487662 4.352234,-1.842963 6.976964,-3.11273 1.492527,-2.044999 3.966271,-2.432897 5.491373,-1.956543 -1.229604,0.498941 -1.525495,0.65796 -1.953088,1.131271 -0.240036,0.265701 -0.543956,0.587359 0.05756,0.748533 3.009871,0.806492 3.049382,1.902075 3.871858,3.708623 0.81055,1.780354 1.170963,4.601934 2.379248,6.543141 0.772442,1.240991 0.96018,2.815691 5.14392,4.210861 z"
       id="path19"
       sodipodi:nodetypes="csssssccssccsssscc" /><path
       style="fill:none;fill-opacity:1;stroke:#000000;stroke-width:1;stroke-linecap:square;stroke-linejoin:miter;stroke-dasharray:none;stroke-opacity:1;paint-order:normal"
       d="m 24.468604,8.9068548 0.576613,2.8183432 c 1.397409,-0.199879 2.385975,0.116432 3.314795,0.665863 0.980251,-0.488551 1.954931,-0.685275 3.292505,-0.378516 l 0.796771,-3.2212962 -2.650212,1.0654371 -1.282943,-1.796389 -1.483784,1.8591484 z"
       id="path20"
       sodipodi:nodetypes="ccccccccc" /></g></svg>
