<?xml version="1.0" encoding="UTF-8"?><svg id="b" xmlns="http://www.w3.org/2000/svg" viewBox="0 0 48 48"><defs><style>.c{fill:#000;}.d{fill:none;stroke:#000;stroke-linecap:round;stroke-linejoin:round;}</style></defs><path class="d" d="m7.5,42.5h33c1.1046,0,2-.8954,2-2V7.5c0-1.1046-.8954-2-2-2H7.5c-1.1046,0-2,.8954-2,2v33c0,1.1046.8954,2,2,2Z"/><g><rect class="d" x="28.6321" y="24.0486" width="4.2024" height="5.5682" rx="2.1012" ry="2.1012"/><g><path class="d" d="m25.1418,26.1498c0-1.1605.9407-2.1012,2.1012-2.1012h0"/><line class="d" x1="25.1418" y1="24.0486" x2="25.1418" y2="29.6168"/></g><line class="d" x1="17.0447" y1="21.212" x2="17.0447" y2="29.6168"/><g><path class="d" d="m23.1525,27.5156c0,1.1605-.9407,2.1012-2.1012,2.1012h0c-1.1605,0-2.1012-.9407-2.1012-2.1012v-1.3658c0-1.1605.9407-2.1012,2.1012-2.1012h0c1.1605,0,2.1012.9407,2.1012,2.1012"/><line class="d" x1="23.1525" y1="29.6168" x2="23.1525" y2="24.0486"/></g><path class="d" d="m15.0682,26.7983v.0344c0,1.5376-1.2465,2.7841-2.7841,2.7841h0c-1.5376,0-2.7841-1.2465-2.7841-2.7841v-2.8367c0-1.5376,1.2465-2.7841,2.7841-2.7841h0c1.5376,0,2.7841,1.2465,2.7841,2.7841v.0344"/><g><line class="d" x1="30.7333" y1="21.9474" x2="30.7333" y2="18.3832"/><line class="d" x1="33.9009" y1="23.3237" x2="37.0527" y2="20.1719"/><line class="d" x1="34.9358" y1="26.8327" x2="38.5" y2="26.8327"/></g></g><g><polyline class="d" points="21.9521 34.9686 20.2953 39.3591 18.6385 34.9686"/><rect class="d" x="34.864" y="34.9686" width="3.3136" height="4.3905" rx="1.6568" ry="1.6568"/><g><circle class="c" cx="23.6089" cy="32.939" r=".75"/><line class="d" x1="23.6089" y1="34.9686" x2="23.6089" y2="39.3591"/></g><path class="d" d="m33.0403,38.523c-.2854.4995-.8232.8361-1.4396.8361h0c-.915,0-1.6568-.7418-1.6568-1.6568v-1.0769c0-.915.7418-1.6568,1.6568-1.6568h0c.915,0,1.6568.7418,1.6568,1.6568v.5385s-3.3136,0-3.3136,0"/><g><path class="d" d="m28.4438,36.6254c0-.915-.7418-1.6568-1.6568-1.6568h0c-.915,0-1.6568.7418-1.6568,1.6568v1.0769c0,.915.7418,1.6568,1.6568,1.6568h0c.915,0,1.6568-.7418,1.6568-1.6568"/><line class="d" x1="28.4438" y1="39.3591" x2="28.4438" y2="32.7319"/></g></g></svg>