<?xml version="1.0" encoding="UTF-8"?><svg id="b" xmlns="http://www.w3.org/2000/svg" viewBox="0 0 48 48"><defs><style>.c{fill:none;stroke:#000;stroke-linecap:round;stroke-linejoin:round;}</style></defs><path class="c" d="m32.4163,30.6017c8.7945.2931,9.9671-4.1041,9.9671-4.1041m-11.1397-1.5635c2.9315-.5863,5.4721-2.7361,7.5242-6.7424m-14.462,3.3224c5.5698-5.4721,4.6904-7.1333,4.6904-7.1333m-7.7196,3.0292c0,.8095-.6125,1.4657-1.368,1.4657s-1.368-.6562-1.368-1.4657c.0919-.7324.6783-1.2769,1.368-1.2703.7213-.0017,1.3199.5969,1.368,1.368v-.0977Zm9.3808,20.4227c-1.368-.684-3.5178-2.5406-4.8858-3.1269-2.3452-.8794-4.1041-.684-4.0064,0,0,1.7589,1.4657,2.9315,3.2246,3.9087-1.4657.9772-3.5178,3.8109-2.5406,4.2995,1.7589.7817,8.7945-4.0064,8.599-4.5927M10.0393,7.3452c-2.5406,5.9607,4.3972,6.8402,4.3972,6.8402M5.642,5c-.3909,4.8858,1.368,8.8922,8.9899,10.5534m-.2931-1.368c1.0749,6.3516,4.7881,7.1333,5.5698,7.231,5.2767.7817,11.9214.4886,12.3123,8.0127.1954,2.6383-1.4657,6.2539-1.1726,9.0876,1.6612-.684,3.6155-.7817,5.179-1.5635,2.052-.9772,3.6155-2.7361,4.2995-3.9087,3.9087-6.8402,1.2703-12.8986-3.7132-16.9049-3.0292-2.4429-14.1689-1.6612-22.4748-1.9543Z"/></svg>