<?xml version="1.0" encoding="UTF-8"?><svg id="b" xmlns="http://www.w3.org/2000/svg" viewBox="0 0 48 48"><defs><style>.c{fill:none;stroke:#000;stroke-linecap:round;stroke-linejoin:round;}</style></defs><circle class="c" cx="24" cy="24" r="10.7"/><path class="c" d="m14.7,29.4h0Z"/><path class="c" d="m24,13.3h0Z"/><path class="c" d="m24,34.7h0Z"/><path class="c" d="m33.3,18.6h0Z"/><path class="c" d="m33.3,18.6c-2.7-.2-5.3.6-7.4,2,.3-2.5-.4-5.1-1.9-7.4-1.5,2.3-2.2,4.9-1.9,7.4-2-1.5-4.7-2.2-7.4-2h0c1.2,2.4,3.1,4.3,5.4,5.4-2.3,1-4.2,2.9-5.4,5.4,2.7.2,5.3-.6,7.4-2-.3,2.5.4,5.1,1.9,7.4,1.5-2.3,2.2-4.9,1.9-7.4,2,1.5,4.7,2.2,7.4,2h0c-1.2-2.4-3.1-4.3-5.4-5.4,2.3-1,4.2-2.9,5.4-5.4Z"/><path class="c" d="m33.3,18.6c1.8,0,3.7.5,5.4,1.4,5.1,3,6.9,9.5,3.9,14.7-3,5.1-9.5,6.9-14.7,3.9-1.7-1-3-2.4-3.9-3.9"/><path class="c" d="m24,34.7c-.9,1.6-2.2,3-3.9,3.9-5.1,3-11.7,1.2-14.7-3.9s-1.2-11.7,3.9-14.6c1.7-1,3.6-1.4,5.4-1.4"/><path class="c" d="m14.7,18.6c-.9-1.6-1.4-3.4-1.4-5.4,0-5.9,4.8-10.7,10.7-10.7s10.7,4.8,10.7,10.7c0,2-.5,3.8-1.4,5.4"/><path class="c" d="m33.3,29.4c.9,1.6,1.4,3.4,1.4,5.4,0,5.9-4.8,10.7-10.7,10.7s-10.7-4.8-10.7-10.7c0-2,.5-3.8,1.4-5.4"/><path class="c" d="m24,13.3c.9-1.6,2.2-3,3.9-3.9,5.1-3,11.7-1.2,14.7,3.9,3,5.1,1.2,11.7-3.9,14.7-1.7,1-3.5,1.4-5.4,1.4"/><path class="c" d="m14.7,29.4c-1.8,0-3.7-.5-5.4-1.4-5.1-3-6.9-9.5-3.9-14.7,3-5.2,9.5-6.9,14.7-3.9,1.7,1,3,2.4,3.9,3.9"/></svg>