<?xml version="1.0" encoding="UTF-8"?><svg id="b" xmlns="http://www.w3.org/2000/svg" viewBox="0 0 48 48"><defs><style>.c{fill:none;stroke:#000;stroke-linecap:round;stroke-linejoin:round;}</style></defs><path class="c" d="m40.5,5.5H7.5c-1.1046,0-2,.8954-2,2v33c0,1.1046.8954,2,2,2h33c1.1046,0,2-.8954,2-2V7.5c0-1.1046-.8954-2-2-2Zm-1.277,14.757v6.236c.0044,2.0175-1.6275,3.6566-3.645,3.661-.005,0-.01,0-.015,0h-.167c-2.0175.0044-3.6566-1.6275-3.661-3.645,0-.005,0-.01,0-.015v-6.237m-2.872,9.194l-.16-7.035m-8.228,7.035v-6.09m12.289-8.409l-7.453,7.453c-.638.637-1.61.579-2.301,0l-3.084-2.584m-2.9647,9.595c-1.19.553-2.0143.79-3.3443.79-2.7835,0-5.04-2.2565-5.04-5.04h0c.0017-2.7836,2.2564-5.0406,5.04-5.045,1.33-.005,2.1543.233,3.3443.785"/></svg>