<?xml version="1.0" encoding="UTF-8"?><svg id="a" xmlns="http://www.w3.org/2000/svg" viewBox="0 0 48 48"><defs><style>.c{fill:none;stroke:#000;stroke-linecap:round;stroke-linejoin:round;}</style></defs><path id="b" class="c" d="M38.5,5.5H9.5c-2.2091,0-4,1.7909-4,4v29c0,2.2091,1.7909,4,4,4h29c2.2091,0,4-1.7909,4-4V9.5c0-2.2091-1.7909-4-4-4Z"/><rect class="c" x="9.5" y="19.8437" width="3.0993" height="8.2649"/><path class="c" d="M33.0245,28.1086v-8.2649h1.8596c1.997,0,3.6159,1.6189,3.6159,3.6159v1.0331c0,1.997-1.6189,3.6159-3.6159,3.6159h-1.8596Z"/><path class="c" d="M21.7624,25.337v.0339c0,1.512-1.2257,2.7377-2.7377,2.7377h0c-1.512,0-2.7377-1.2257-2.7377-2.7377v-2.7894c0-1.512,1.2257-2.7377,2.7377-2.7377h0c1.512,0,2.7377,1.2257,2.7377,2.7377v.0339"/><path class="c" d="M24.5508,25.4185c0,1.512,1.2257,2.7377,2.7377,2.7377s2.7377-1.2257,2.7377-2.7377v-2.7894c0-1.512-1.2257-2.7377-2.7377-2.7377s-2.7377,1.2257-2.7377,2.7377v2.7894Z"/></svg>