<?xml version="1.0" encoding="utf-8"?>
<!-- Generator: Adobe Illustrator 25.2.3, SVG Export Plug-In . SVG Version: 6.00 Build 0)  -->
<svg version="1.1" id="Layer_1" xmlns="http://www.w3.org/2000/svg" xmlns:xlink="http://www.w3.org/1999/xlink" x="0px" y="0px"
	 viewBox="0 0 48 48" style="enable-background:new 0 0 48 48;" xml:space="preserve">
<style type="text/css">
	.st0{fill:none;stroke:#000000;stroke-linecap:round;stroke-linejoin:round;}
</style>
<path class="st0" d="M4.7,12.5h38.9 M4.7,12.5h38.9 M4.6,39.9h38.9l-0.9,1.8H5.5L4.6,39.9z M19,25.9c0.3,1.3,1.5,2.2,2.9,2
	c1.3-0.3,2.2-1.6,1.9-2.9c0,0,0,0,0,0l-0.5-2.4c-0.3-1.3-1.6-2.2-2.9-1.9c0,0,0,0,0,0c-1.3,0.3-2.1,1.6-1.9,2.9c0,0,0,0,0,0.1
	L19,25.9z M11.6,29.9l-1.5-7.2l6.3,6.2l-1.5-7.2 M29,26.3l-1.5-7.2 M25,19.6l4.8-1 M31.6,18.2l1.5,7.2 M32.3,21.8l2.3-0.5
	 M31.6,18.2l3.6-0.8 M33.1,25.5l3.6-0.8 M10.1,33.9l29.3-5.7 M30.9,39.9c0,0,3-1,4.3-1.6s3.6-2.1,3.6-2.1s1.9-2.9,2.7-4.6
	s2-5.4,2-5.4 M4.6,6.7h38.9v33.2H4.6V6.7z"/>
</svg>
