<svg xmlns="http://www.w3.org/2000/svg" viewBox="0 0 48 48"><defs><style>.a{fill:none;stroke:#000;stroke-linecap:round;stroke-linejoin:round;}</style></defs><path class="a" d="M4.6607,12.5448H43.5785m-38.9178,0H43.5785m-39,27.3155H43.5109L42.59,41.7032l-37.0895,0ZM19.0362,25.8548a2.4424,2.4424,0,1,0,4.7791-1.0061l-.5125-2.4346a2.4776,2.4776,0,0,0-2.9472-1.9221A2.401,2.401,0,0,0,18.5237,23.42Zm-7.364,3.9961-1.5186-7.2137,6.2977,6.2076-1.5186-7.2137m14.03,4.67-1.5186-7.2137M25.0091,19.6l4.7791-1.0061m1.8049-.38,1.5187,7.2137m-.7594-3.6068,2.3445-.4936m-3.1038-3.1133L35.2,17.4544m-2.0882,7.973,3.6068-.7593M10.1548,33.9222,39.476,28.2209M30.924,39.86S33.881,38.89,35.2,38.272s3.6245-2.0769,3.6245-2.0769,1.8646-2.9289,2.647-4.6018S43.467,26.177,43.467,26.177M4.6163,6.7109H43.5484V39.86H4.6163Z"/></svg>