<svg xmlns="http://www.w3.org/2000/svg" viewBox="0 0 48 48"><defs><style>.a{fill:none;stroke:#000;stroke-linecap:round;stroke-linejoin:round;}.b{fill:#000;}</style></defs><path class="a" d="M16.4484,27.2938h0a2.09,2.09,0,0,1-2.084-2.0841V23.8551a2.09,2.09,0,0,1,2.084-2.084h0a2.09,2.09,0,0,1,2.0841,2.084V25.21A2.09,2.09,0,0,1,16.4484,27.2938Z"/><path class="a" d="M20.7737,23.9594a2.09,2.09,0,0,1,2.084-2.0841h0a2.09,2.09,0,0,1,2.084,2.0841v3.3344"/><line class="a" x1="20.7737" y1="21.8753" x2="20.7737" y2="27.2938"/><path class="a" d="M24.9417,23.9594a2.09,2.09,0,0,1,2.084-2.0841h0A2.09,2.09,0,0,1,29.11,23.9594v3.3344"/><circle class="b" cx="37.6664" cy="19.2703" r="0.8336"/><line class="a" x1="37.6664" y1="21.7711" x2="37.6664" y2="27.2938"/><path class="a" d="M22.3821,31.2111A6.945,6.945,0,0,1,16.4735,34.46h0A6.9443,6.9443,0,0,1,9.5,27.545c0-.0194,0-.0388,0-.0581V20.5134A6.9444,6.9444,0,0,1,16.4154,13.54h.0581a6.5528,6.5528,0,0,1,5.9645,3.6925"/><path class="a" d="M31.4543,23.8551a2.09,2.09,0,0,1,2.084-2.084h0a2.09,2.09,0,0,1,2.084,2.084V25.21a2.09,2.09,0,0,1-2.084,2.0841h0a2.09,2.09,0,0,1-2.084-2.0841"/><line class="a" x1="31.4543" y1="27.2938" x2="31.4543" y2="18.9577"/><path class="a" d="M40.5,42.5H7.5a2,2,0,0,1-2-2V7.5a2,2,0,0,1,2-2h33a2,2,0,0,1,2,2v33A2,2,0,0,1,40.5,42.5Z"/></svg>