<svg xmlns="http://www.w3.org/2000/svg" viewBox="0 0 48 48"><defs><style>.a{fill:none;stroke:#000;stroke-linecap:round;stroke-linejoin:round;}</style></defs><path class="a" d="M31.7029,4.5c-9.276,0-21.6983,10.9215-21.6983,29.3109,0,16.4365,18.3712,9.0952,22.2046-.9584-3.402,4.5618-6.9775,6.0033-9.62,6.0033-4.7719,0-7.0881-4.7356-7.0881-10.4153,0-12.5127,8.8258-23.94,16.2014-23.94,4.195,0,6.2925,3.11,6.2925,6.9441,0,5.8579-3.4935,8.5341-6.5095,8.5341A3.9074,3.9074,0,0,1,27.58,15.4215c4.1227.434,6.2926-4.7681,6.2926-7.2272A4.54,4.54,0,0,0,31.7029,4.5"/></svg>