<?xml version="1.0" encoding="UTF-8"?><svg id="a" xmlns="http://www.w3.org/2000/svg" viewBox="0 0 48 48"><defs><style>.b{fill:#000;}.c{fill:none;stroke:#000;stroke-linecap:round;stroke-linejoin:round;}</style></defs><line class="c" x1="13" y1="19.87478872" x2="13" y2="28.67584287"/><circle class="b" cx="28.3279926" cy="20.09429119" r=".75"/><line class="c" x1="28.3279926" y1="22.73476985" x2="28.3279926" y2="28.67585"/><path class="c" d="M35,26.47545321c0,1.21021886-.95846721,2.20039679-2.12992352,2.20039679s-2.12992352-.99018212-2.12992352-2.20040099v-1.4302598c0-1.21021886.95846721-2.20040099,2.12992352-2.20040099s2.12992352.99018212,2.12992352,2.20040099"/><line class="c" x1="35" y1="28.67585" x2="35" y2="22.73476985"/><path class="c" d="M19.45365085,28.67585v-3.63066079c0-1.21021886-.95845908-2.20040099-2.12992352-2.20040099s-2.12992352.99018212-2.12992352,2.20040099"/><line class="c" x1="15.19380381" y1="28.67585" x2="15.19380381" y2="22.73476985"/><path class="c" d="M25.91693828,24.93517084c0-1.21021886-.95846721-2.20040099-2.12992352-2.20040099s-2.12992352.99018212-2.12992352,2.20040099v1.4302598c0,1.21021886.95846721,2.20040099,2.12992352,2.20040099s2.12992352-.99018212,2.12992352-2.20040099"/><line class="c" x1="25.91693828" y1="28.67585" x2="25.91693828" y2="19.87425025"/><rect class="c" x="5.5" y="5.5" width="37" height="37" rx="4" ry="4"/></svg>