<?xml version="1.0" encoding="UTF-8"?><svg id="b" xmlns="http://www.w3.org/2000/svg" viewBox="0 0 48 48"><defs><style>.c{fill:none;stroke:#000;stroke-linecap:round;stroke-linejoin:round;}</style></defs><path class="c" d="m33.2179,43.4293c-2.7936,1.3278-5.919,2.0707-9.2179,2.0707-11.8741,0-21.5-9.6259-21.5-21.5S12.1259,2.5,24,2.5s21.5,9.6259,21.5,21.5c0,3.8476-1.0107,7.4592-2.7811,10.5836"/><polygon class="c" points="18.8785 18.4299 16.6355 22.0467 18.5421 25.5794 21.4299 24.7103 24.486 21.7944 22.9159 18.0654 18.8785 18.4299"/><polygon class="c" points="20.5607 12.9907 24.7383 12.9907 26.785 13.9439 28.1869 12.0935 24.6822 10.1869 22.0467 11.1402 20.5607 12.9907"/><polygon class="c" points="34.5514 21.3178 32.6168 24 35.9533 26.757 37.215 25.1028 37.7196 22.6916 39.1495 22.0187 37.4673 19.5794 34.4673 20.028 34.5514 21.3178"/><polygon class="c" points="14.0841 35.0561 15.0093 32.729 16.6355 33.0374 17.0841 34.1589 14.5607 35.4206 14.0841 35.0561"/><path class="c" d="m20.1963,39.6262v-3.4206s1.8224-.785,1.9626-.785,1.8411.5047,1.8411.5047l.1776,1.9907-1.2336,2.5234-2.7477-.8131Z"/><g><path class="c" d="m34.0133,41.5484l-7.6046-7.6046c-.5456-.5456-.5456-1.4302,0-1.9758h0c.5456-.5456,1.4302-.5456,1.9758,0l6.6361,6.6361"/><path class="c" d="m35.0205,38.6041l-2.5182-2.5182c-.5456-.5456-.5456-1.4302,0-1.9758h0c.5456-.5456,1.4302-.5456,1.9758,0l2.5182,2.5182"/><path class="c" d="m36.9963,36.6283l-1.8208-1.8208c-.5456-.5456-.5456-1.4302,0-1.9758h0c.5456-.5456,1.4302-.5456,1.9758,0l1.8208,1.8208"/><path class="c" d="m38.9721,34.6525l-1.0589-1.0589c-.5456-.5456-.5456-1.4302,0-1.9758h0c.5456-.5456,1.4302-.5456,1.9758,0l2.0275,2.0275c1.3366,1.3366,2.1114,3.2349,3.5836,4.707l-7.1477,7.1477c-1.5496-1.7046-5.0092-2.0625-6.9347-2.3245-1.0912-.1485-1.3753-.678-1.2203-1.6852s1.7046-1.1622,2.9831-.7748"/></g></svg>