<?xml version="1.0" encoding="UTF-8"?><svg id="b" xmlns="http://www.w3.org/2000/svg" viewBox="0 0 48 48"><defs><style>.m{fill:none;stroke:#000;stroke-linecap:round;stroke-linejoin:round;}</style></defs><g id="c"><g id="d"><g id="e"><line id="f" class="m" x1="33.0964" y1="27.075" x2="29.5964" y2="29"/><line id="g" class="m" x1="29.5964" y1="29" x2="29.5964" y2="15"/></g><path id="h" class="m" d="m26.1786,16.225c-1.05-.875-1.925-1.225-4.2-1.225h-.525c-2.45,0-4.55,2.1-4.55,4.55h0c0,2.45,2.1,4.55,4.55,4.55h4.725v4.9h-9.275"/></g></g><g id="i"><path id="j" class="m" d="m39.9012,40.1412c1.0601,0,1.9194-.8593,1.9194-1.9194V6.4193c0-1.06-.8593-1.9193-1.9193-1.9193H8.0988c-1.06,0-1.9193.8592-1.9194,1.9192h0v31.8026c0,1.0601.8593,1.9194,1.9194,1.9194h31.8024Z"/><line id="k" class="m" x1="35.1834" y1="37.742" x2="35.1834" y2="43.5"/><line id="l" class="m" x1="12.8166" y1="37.742" x2="12.8166" y2="43.5"/></g></svg>