<?xml version="1.0" encoding="UTF-8"?><svg id="b" xmlns="http://www.w3.org/2000/svg" viewBox="0 0 48 48"><defs><style>.d{fill:#000;}.e{fill:none;stroke:#000;stroke-linecap:round;stroke-linejoin:round;}</style></defs><circle class="d" cx="24" cy="30.5648" r=".75"/><path class="e" d="M20.9081,22.4135c0-.8538.3461-1.6268.9056-2.1863.5595-.5595,1.3325-.9056,2.1863-.9056,1.7076,0,3.0919,1.3843,3.0919,3.0919,0,.8538-.2884,1.6911-.9056,2.1863-.6399.5133-2.1974,1.3541-2.1974,2.6624"/><rect class="e" x="8.5" y="4.5" width="31" height="39" rx="4" ry="4"/><path class="e" d="M33,37c0,.5552-.4501,1.0052-1.0052,1.0052-.6171,0-.8042-.3245-.9948-.5026-.1906-.1781-.3777-.5026-.9948-.5026-.5552,0-1.0052.4501-1.0052,1.0052"/><path class="e" d="M26,37c0,.5552-.4501,1.0052-1.0052,1.0052-.6171,0-.8042-.3245-.9948-.5026-.1906-.1781-.3777-.5026-.9948-.5026-.5552,0-1.0052.4501-1.0052,1.0052"/><path class="e" d="M19,37c0,.5552-.4501,1.0052-1.0052,1.0052-.6171,0-.8042-.3245-.9948-.5026-.1906-.1781-.3777-.5026-.9948-.5026-.5552,0-1.0052.4501-1.0052,1.0052"/><rect class="e" x="11.1" y="8.5" width="9" height="9"/><rect id="c" class="e" x="13.7016" y="11.1016" width="3.7969" height="3.7969"/><path class="e" d="M28.8654,14.3265v.0328c0,1.4636-1.1864,2.65-2.65,2.65h0c-1.4636,0-2.65-1.1864-2.65-2.65v-2.7c0-1.4636,1.1864-2.65,2.65-2.65h0c1.4636,0,2.65,1.1864,2.65,2.65v.0328"/><path class="e" d="M31.5682,16.3896c.5523.4628,1.1485.6748,2.4876.6748h.312c1.1043,0,1.9995-.8952,1.9995-1.9995h0c0-1.1043-.8952-1.9995-1.9995-1.9995"/><path class="e" d="M31.5673,9.7326c.5535-.4613,1.1503-.6717,2.4894-.6681l.3111.0018c1.1043,0,1.9995.8952,1.9995,1.9995h0c0,1.1043-.8952,1.9995-1.9995,1.9995"/><line class="e" x1="32.8307" y1="13.0653" x2="34.3678" y2="13.0653"/></svg>