<?xml version="1.0" encoding="UTF-8"?><svg id="a" xmlns="http://www.w3.org/2000/svg" viewBox="0 0 48 48"><defs><style>.b{fill:none;stroke:#000;stroke-linecap:round;stroke-linejoin:round;}</style></defs><path class="b" d="m26.5547,15.1539l-.0963,21.8212"/><path class="b" d="m21.8482,36.8574l-.0321-21.7035,9.7447-.2139.0214,22.6127"/><path class="b" d="m17.976,36.975l15.9059,1.0376"/><path class="b" d="m31.4644,40.3124l5.7548-4.7707"/><path class="b" d="m40.6315,35.5417c0,5.1273-1.7756,7.78-5.3269,7.9583l-24.3563-1.7222c-4.8456-.5562-4.3428-2.7704-1.2729-3.7759l5.1023-1.9575.1391-23.3722c0-5.4553,1.3585-7.0919,5.7227-7.3058l13.4778-.8664c4.3642,0,6.5464,2.7241,6.5464,8.1722l-.0321,22.8694-10.6432-.1711-8.1722-.1925-8.2257,3.6903"/><path class="b" d="m14.9809,35.9268l25.5864-9.5735"/></svg>