<svg xmlns="http://www.w3.org/2000/svg" viewBox="0 0 48 48"><defs><style>.a{fill:none;stroke:#000;stroke-linecap:round;stroke-linejoin:round;}</style></defs><line class="a" x1="11.1501" y1="11.4129" x2="16.3706" y2="8.7523"/><line class="a" x1="33.2964" y1="27.2812" x2="38.1901" y2="24.7871"/><line class="a" x1="21.4442" y1="16.6592" x2="11.1501" y2="11.4129"/><line class="a" x1="19.6894" y1="14.0361" x2="16.3706" y2="12.3446"/><line class="a" x1="19.6894" y1="9.687" x2="16.3706" y2="7.9956"/><line class="a" x1="33.2964" y1="10.6188" x2="26.5482" y2="7.1796"/><line class="a" x1="28.1494" y1="41.3694" x2="24.7039" y2="39.6134"/><line class="a" x1="28.1494" y1="35.4425" x2="24.7039" y2="33.6865"/><line class="a" x1="38.2591" y1="30.2754" x2="34.8136" y2="28.5194"/><line class="a" x1="38.1901" y1="24.7871" x2="36.7199" y2="24.0378"/><line class="a" x1="36.7199" y1="24.0378" x2="38.3776" y2="23.193"/><line class="a" x1="38.3776" y1="23.193" x2="33.2964" y2="20.6033"/><line class="a" x1="21.4442" y1="43.5" x2="11.2818" y2="38.3207"/><line class="a" x1="21.4442" y1="43.5" x2="26.5912" y2="40.8768"/><line class="a" x1="28.1494" y1="41.3694" x2="38.3776" y2="36.1566"/><line class="a" x1="28.1494" y1="35.4425" x2="38.3776" y2="30.2297"/><line class="a" x1="21.4442" y1="16.6592" x2="21.4442" y2="43.5"/><line class="a" x1="33.2964" y1="10.6188" x2="33.2964" y2="27.2812"/><line class="a" x1="38.3776" y1="23.193" x2="38.3776" y2="36.1566"/><line class="a" x1="28.1494" y1="35.4425" x2="28.1494" y2="41.3694"/><line class="a" x1="24.7039" y1="33.6865" x2="24.7039" y2="39.6134"/><line class="a" x1="34.8136" y1="28.5194" x2="24.7039" y2="33.6865"/><line class="a" x1="16.3706" y1="7.9956" x2="16.3706" y2="12.3446"/><line class="a" x1="19.6894" y1="9.687" x2="19.6894" y2="14.0361"/><line class="a" x1="21.4442" y1="16.6592" x2="33.2964" y2="10.6188"/><line class="a" x1="19.6894" y1="14.0361" x2="26.5482" y2="10.5405"/><line class="a" x1="19.6894" y1="9.687" x2="26.5482" y2="6.1914"/><line class="a" x1="16.3706" y1="7.9956" x2="23.2294" y2="4.5"/><line class="a" x1="26.5482" y1="6.1914" x2="23.2294" y2="4.5"/><line class="a" x1="26.5482" y1="6.1914" x2="26.5482" y2="10.5405"/><line class="a" x1="12.9412" y1="25.8205" x2="9.6224" y2="24.129"/><line class="a" x1="12.9412" y1="21.4714" x2="9.6224" y2="19.78"/><line class="a" x1="9.6224" y1="19.78" x2="9.6224" y2="24.129"/><line class="a" x1="12.9412" y1="21.4714" x2="12.9412" y2="25.8205"/><line class="a" x1="12.9412" y1="25.8205" x2="18.03" y2="23.1706"/><line class="a" x1="14.6006" y1="29.0544" x2="11.2818" y2="27.3629"/><line class="a" x1="11.2818" y1="24.9747" x2="11.2818" y2="27.3629"/><line class="a" x1="14.6006" y1="24.9564" x2="14.6006" y2="29.0544"/><line class="a" x1="14.6006" y1="29.0544" x2="18.0059" y2="27.2812"/><line class="a" x1="12.9412" y1="21.4714" x2="18.03" y2="18.8216"/><line class="a" x1="9.6224" y1="19.78" x2="14.7112" y2="17.1301"/><line class="a" x1="18.03" y1="18.8216" x2="14.7112" y2="17.1301"/><line class="a" x1="18.03" y1="18.8216" x2="18.03" y2="23.1706"/><line class="a" x1="18.03" y1="23.1706" x2="18.03" y2="27.2812"/><line class="a" x1="11.1501" y1="11.4129" x2="11.1501" y2="19.0114"/><line class="a" x1="11.2818" y1="27.3629" x2="11.2818" y2="38.2536"/><line class="a" x1="25.686" y1="18.6242" x2="25.686" y2="20.5164"/></svg>