<svg xmlns="http://www.w3.org/2000/svg" viewBox="0 0 48 48"><defs><style>.a{fill:none;stroke:#000;stroke-linecap:round;stroke-linejoin:round;}</style></defs><path class="a" d="M26.8849,15.1729c4.4723-.5409,5.15,5.3177.6454,5.3177-1.9726,0-5.6359-1.7044-7.14-1.7044a1.396,1.396,0,0,0-1.0953,2.4771"/><path class="a" d="M26.8849,15.1729c2.1271.3,1.518,2.1089.55,2.1089-2.6588,0-4.4223-1.6271-6.94-1.6271-3.4134,0-4.1315,4.9223-1.2,5.6177"/><rect class="a" x="26.3562" y="23.2979" width="2.3953" height="2.3953" transform="translate(-9.2506 26.6581) rotate(-45)"/><line class="a" x1="27.553" y1="22.8041" x2="27.553" y2="20.4906"/><line class="a" x1="27.553" y1="26.1947" x2="27.553" y2="29.6717"/><path class="a" d="M30.8755,26.272c-.8045,1.9407-2.1226,3.8133-6.0041,3.8133a4.6788,4.6788,0,0,1-4.7405-4.94c0-2.7861.6863-4.0633,2.7679-5.4041"/><polyline class="a" points="24.999 27.717 24.999 20.686 20.431 22.618"/><line class="a" x1="22.0398" y1="28.9672" x2="24.9987" y2="27.7173"/><line class="a" x1="22.0398" y1="21.9405" x2="22.0398" y2="28.7309"/><path class="a" d="M30.8755,26.272c.3954,2.818-1.6408,6.59-6.595,6.59-3.85,0-7.2039-2.7271-7.2039-6.5631,0-3.9861,3.2815-5.7768,5.8222-6.5586"/><circle class="a" cx="24" cy="24" r="21.5"/><line class="a" x1="4.3846" y1="32.8128" x2="39.4123" y2="38.9891"/><line class="a" x1="15.1874" y1="4.3837" x2="9.011" y2="39.4117"/><line class="a" x1="38.9891" y1="8.5876" x2="32.8128" y2="43.6152"/><line class="a" x1="43.616" y1="15.1873" x2="8.588" y2="9.011"/></svg>