<?xml version="1.0" encoding="UTF-8"?><svg id="b" xmlns="http://www.w3.org/2000/svg" viewBox="0 0 48 48"><defs><style>.c{fill:#000;}.d{stroke-dasharray:0 0 2.9986 2.9986;}.d,.e{fill:none;stroke:#000;stroke-linecap:round;stroke-linejoin:round;}</style></defs><g><path class="e" d="m16.6759,18.7748c.8486-.3356,1.7481-.5245,2.66-.5586,3.3773-.1551,6.1837,3.099,6.1837,3.099-.6885,5.6794-4.39,10.5444-9.68,12.7227m-4.8547-11.3379c-.7979,1.0828-1.4681,2.2542-1.9973,3.4907-.5227,1.1561-.852,2.3902-.9745,3.653m.036,1.28c.0473,3.5181,1.5293,6.8643,4.1029,9.2634,4.4162,3.9025,6.7038,2.1943,7.1641.5653s.453-3.3341-2.7219-2.61"/><path class="e" d="m21.4369,38.6419s.2481,3.1464,2.11,3.4973,4.2831-1.4952,3.5655-2.0092c-.4997-.4086-.9087-.917-1.2007-1.4927"/><path class="e" d="m19.5227,41.1928c.7805.1487,1.5864.0883,2.336-.175"/><path class="e" d="m27.091,39.9842s3.3447-.9383,1.0093-2.0883"/><path class="e" d="m16.883,33.6175s4.1215,4.0475,6.8708,3.9476c1.7626-.1629,3.3754-1.0598,4.4436-2.4713.7533.615.8655,1.7242.2506,2.4775-.1008.1234-.2178.2326-.348.3246"/><path class="e" d="m20.03,22.2756s2.3542-3.1875-2.9764-3.4819-6.6063,4.6868-6.1921,5.8735,2.3539.9346,2.3539.9346c-1.2302.8916-1.5411,2.5933-.7056,3.8623,1.3884,2.4056,5.0452,2.6459,8.4145-1.088s.3199-6.4412-.8943-6.1005Z"/><path class="e" d="m24.8882,24.2c.3908,1.0639.6534,2.1706.7823,3.2967-.0912.7528-2.9617,1.2632-2.9617,1.2632"/><path class="e" d="m20.34,31.85s.43,1.869-.3035,2.287-3.1534-.519-3.1534-.519"/><path class="e" d="m20.6754,36.2805c.4317-.7018,1.1817-1.1456,2.0046-1.1863,1.222.0775,1.5733,2.2954,1.5733,2.2954"/><path class="e" d="m27.7983,35.2809s-1.45-2.8324-3.4283-2.9137-1.9384,1.1454-1.9384,1.1454"/><path class="e" d="m23.421,33.9825c-.6911-.2163-1.4251-.2575-2.1361-.12-.7357.154-1.3688.6188-1.7361,1.2745"/><path class="e" d="m8.645,25.91s-4.9266.8038-4.0377,4.7545c.8889,3.9507,5.4289.2265,2.6007-1.7944"/><circle class="e" cx="11.8547" cy="14.4334" r="1.7661"/><path class="e" d="m12.4905,12.6709l6.8306-5.3627c-1.2961-.3206-2.665.0705-3.5961,1.0274-1.8076,1.6461-2.0918,2.3843-1.8408,3.1993"/><circle class="e" cx="10.8843" cy="9.6584" r="1.7661"/><path class="e" d="m12.1576,11.0329l8.382,2.2712c-1.0681.801-2.481.9753-3.7118.4578-2.3067-.81-2.8566-1.3788-2.9436-2.227"/><path class="e" d="m35.6534,12.883v-7.6482"/><circle class="c" cx="19.823" cy="24.1845" r=".75"/><circle class="c" cx="18.3248" cy="21.471" r=".75"/><path class="d" d="m17.6683,10.7928l23.5828-3.4728"/><path class="e" d="m28.1,37.8959c-.6189.4982-1.3943.7609-2.1886.7416"/><circle class="e" cx="35.4184" cy="21.0768" r="8.0816"/><path class="e" d="m30.3039,16.5519c-.6082.0049-1.2108.1171-1.78.3313-1.3197,2.1309-1.553,4.7607-.6289,7.0906.7255-3.1459,3.7413-5.2106,6.9366-4.7489-.9102-1.6487-2.6444-2.6725-4.5277-2.673Z"/><path class="e" d="m39.9433,15.9623c-.005-.6082-.1171-1.2108-.3313-1.78-2.1309-1.3198-4.7607-1.553-7.0906-.6288,3.1458.7256,5.2103,3.7413,4.7486,6.9365,1.6488-.9101,2.6728-2.6444,2.6733-4.5277Z"/><path class="e" d="m40.5329,25.6017c.6082-.0049,1.2107-.117,1.78-.3312,1.3198-2.1309,1.553-4.7607.6288-7.0906-.7254,3.1459-3.7412,5.2106-6.9365,4.7489.9102,1.6487,2.6445,2.6725,4.5277,2.6729Z"/><path class="e" d="m30.8935,26.1913c.0049.6082.117,1.2107.3312,1.78,2.1309,1.3197,4.7607,1.553,7.0906.6289-3.1459-.7255-5.2106-3.7413-4.7489-6.9366-1.6486.9102-2.6724,2.6445-2.6729,4.5277Z"/></g><path class="e" d="m37.2,36.4155c0-1.6355,1.4816-2.925,3.1759-2.5994,1.1113.2136,1.9988,1.1747,2.1094,2.301.0823.8378-.1828,1.6644-.7615,2.1722-1.072.9408-4.5238,3.4762-4.5238,3.4762h5.3"/></svg>