<svg xmlns="http://www.w3.org/2000/svg" viewBox="0 0 48 48"><defs><style>.a{fill:none;stroke:#000;stroke-linecap:round;stroke-linejoin:round;}</style></defs><path class="a" d="M11.7426,43.5h0a1.969,1.969,0,0,0,1.8392-1.266L27.2767,6.399A2.9533,2.9533,0,0,1,30.0354,4.5h9.9428a1.9689,1.9689,0,0,0-1.8391,1.266L24.4442,41.601A2.9534,2.9534,0,0,1,21.6855,43.5H11.7426"/><path class="a" d="M16.9564,33.4038,14.97,14.1712a1,1,0,0,0-1.895-.3326L8.39,23.5261a4,4,0,0,0-.388,2.0371L9.1891,41.575A2,2,0,0,0,11.1877,43.5h.5549"/></svg>