<?xml version="1.0" encoding="UTF-8"?><svg id="a" xmlns="http://www.w3.org/2000/svg" viewBox="0 0 48 48"><defs><style>.b{fill:none;stroke:#000;stroke-linecap:round;stroke-linejoin:round;}</style></defs><path class="b" d="M26.926,5.5H9.5c-2.2091,0-4,1.7909-4,4v29c0,2.2091,1.7909,4,4,4h29c2.2091,0,4-1.7909,4-4V9.5c0-2.2091-1.7909-4-4-4h-1.264"/><path class="b" d="M29.5275,32.759V8.8663c0-1.8591,1.5071-3.3663,3.3663-3.3663h.8525M29.5275,22.5414c0-3.3059-2.7047-6.0106-6.0106-6.0106h0c-3.3059,0-6.0106,2.7047-6.0106,6.0106v3.9069c0,3.3059,2.7047,6.0106,6.0106,6.0106h0c3.3059,0,6.0106-2.7047,6.0106-6.0106"/></svg>