<?xml version="1.0" encoding="UTF-8"?><svg id="a" xmlns="http://www.w3.org/2000/svg" viewBox="0 0 48 48"><defs><style>.b{fill:#000;}.c{fill:none;stroke:#000;stroke-linecap:round;stroke-linejoin:round;}</style></defs><rect class="c" x="5.5" y="5.5" width="37" height="37" rx="4" ry="4"/><rect class="c" x="10.66" y="10.19" width="12.4" height="12.4" rx="1.34" ry="1.34"/><rect class="c" x="14.63" y="14.17" width="4.45" height="4.45" rx=".48" ry=".48"/><circle class="c" cx="32.42" cy="32.31" r="5.27"/><circle class="c" cx="32.42" cy="30.76" r="1.55"/><path class="c" d="M29.47,35.92c.65-.93,1.73-1.53,2.95-1.53s2.22.56,2.88,1.43"/><rect class="c" x="20.45" y="26.56" width="2.61" height="11.52" rx="1.09" ry="1.09"/><rect class="c" x="15.55" y="30.63" width="2.61" height="7.44" rx="1.09" ry="1.09"/><rect class="c" x="10.66" y="33.26" width="2.61" height="4.81" rx="1.09" ry="1.09"/><path class="c" d="M29.61,10.19h5.66c1.3586,0,2.46,1.1014,2.46,2.46h0c0,1.3586-1.1014,2.46-2.46,2.46h-5.66c-1.3586,0-2.46-1.1014-2.46-2.46h0c0-1.3586,1.1014-2.46,2.46-2.46Z"/><circle class="b" cx="35.09" cy="12.65" r=".75"/><path class="c" d="M35.26,22.6h-5.66c-1.3586,0-2.46-1.1014-2.46-2.46h0c0-1.3586,1.1014-2.46,2.46-2.46h5.66c1.3586,0,2.46,1.1014,2.46,2.46h0c0,1.3586-1.1014,2.46-2.46,2.46Z"/><circle class="b" cx="29.78" cy="20.14" r=".75"/></svg>