<svg xmlns="http://www.w3.org/2000/svg" viewBox="0 0 48 48"><defs><style>.a{fill:none;stroke:#000;stroke-linecap:round;stroke-linejoin:round;}</style></defs><path class="a" d="M40.5,5.5H7.5a2,2,0,0,0-2,2v33a2,2,0,0,0,2,2h33a2,2,0,0,0,2-2V7.5A2,2,0,0,0,40.5,5.5Z"/><path class="a" d="M17.4,25.1807a3.4508,3.4508,0,1,0-6.9,0v2.293a3.4508,3.4508,0,1,0,6.9,0"/><line class="a" x1="17.3998" y1="31.0021" x2="17.3998" y2="16.8913"/><path class="a" d="M20.7184,25.2263a3.4508,3.4508,0,1,1,6.9,0v2.293a3.4508,3.4508,0,1,1-6.9,0"/><line class="a" x1="20.7184" y1="31.0466" x2="20.7184" y2="16.9358"/><path class="a" d="M37.5,27.5809a3.4508,3.4508,0,1,1-6.9,0V25.288a3.4508,3.4508,0,1,1,6.9,0"/><line class="a" x1="37.5" y1="31.1078" x2="37.5" y2="21.7595"/></svg>