<?xml version="1.0" encoding="UTF-8"?><svg id="a" xmlns="http://www.w3.org/2000/svg" viewBox="0 0 48 48"><defs><style>.b{fill:none;stroke:#000;stroke-linecap:round;stroke-linejoin:round;}</style></defs><rect class="b" x="22.9" y="6.55" width="19.6" height="19.6" rx="4.7" ry="4.7"/><path class="b" d="M26.9,33.65v7.7M26.9,38.25c0-1.1.9-1.9,1.9-1.9h0c1.1,0,1.9.9,1.9,1.9v3.2M12.3,38.25c0-1.1.9-1.9,1.9-1.9h0M12.3,36.25v5.1M40.6,38.25c0-1.1.9-1.9,1.9-1.9h0M40.6,36.25v5.1M22.9,34.65v5.8c0,.5.4,1,1,1h.3M21.9,36.25h2M37.4,40.45c-.3.6-1,1-1.7,1h0c-1.1,0-1.9-.9-1.9-1.9v-1.3c0-1.1.9-1.9,1.9-1.9h0c1.1,0,1.9.9,1.9,1.9v.6h-3.9M5.5,38.25c0-1.1.9-1.9,1.9-1.9h0c1.1,0,1.9.9,1.9,1.9v1.3c0,1.1-.9,1.9-1.9,1.9h0c-1.1,0-1.9-.9-1.9-1.9M5.5,41.35v-7.7M16.2,38.25c0-1.1.9-1.9,1.9-1.9s1.9.9,1.9,1.9v1.3c0,1.1-.9,1.9-1.9,1.9s-1.9-.9-1.9-1.9v-1.3Z"/></svg>