<?xml version="1.0" encoding="UTF-8"?><svg id="a" xmlns="http://www.w3.org/2000/svg" viewBox="0 0 48 48"><defs><style>.b{fill:none;stroke:#000;stroke-linecap:round;stroke-linejoin:round;}</style></defs><path class="b" d="M8,8c-2.2091,0-4,1.7909-4,4v24c0,2.2091,1.7909,4,4,4h32c2.2091,0,4-1.7909,4-4V12c0-2.2091-1.7909-4-4-4H8Z"/><line class="b" x1="21.5988" y1="31.9806" x2="27.3666" y2="31.9806"/><line class="b" x1="21.5988" y1="20.445" x2="27.3666" y2="20.445"/><line class="b" x1="21.5988" y1="26.2128" x2="25.3594" y2="26.2128"/><line class="b" x1="21.5988" y1="20.445" x2="21.5988" y2="31.9806"/><polyline class="b" points="30.0712 17.5496 33.9454 23.3347 30.0712 29.1198"/><polyline class="b" points="37.8196 17.5496 33.9454 23.3347 37.8196 29.1198"/><line class="b" x1="10.1804" y1="17.5605" x2="18.8942" y2="17.5605"/><line class="b" x1="14.5373" y1="29.1089" x2="14.5373" y2="17.5605"/><line class="b" x1="18.8942" y1="17.5605" x2="18.8942" y2="19.1215"/><line class="b" x1="10.1804" y1="17.5605" x2="10.1804" y2="19.1215"/></svg>