<?xml version="1.0" encoding="UTF-8"?><svg id="a" xmlns="http://www.w3.org/2000/svg" viewBox="0 0 48 48"><defs><style>.b{fill:none;stroke:#000;stroke-linecap:round;stroke-linejoin:round;}</style></defs><path class="b" d="M15.2438,34.5927l4.2572,4.2038c.7821,.6017,1.189,1.3892,1.1496,2.398l3.3238,3.2543v.0511l.0258-.0256,.0263,.0256v-.0511l3.3232-3.2543c-.0394-1.0089,.368-1.7964,1.1501-2.398l10.0322-9.9067c.3946-.6896,1.6208-1.74,2.7569-1.6807l3.5748-3.2798-3.5748-3.1878c-1.0854-.0622-2.1149-.7073-2.7569-1.6248l-10.0322-9.8978c-.6317-.5854-.8502-1.4028-1.1501-2.564l-3.3494-3.1551-3.3497,3.1551c-.2999,1.1611-.5179,1.9786-1.1496,2.564l-3.9203,3.8677"/><path class="b" d="M12.9857,15.6469l-3.5177,3.4705c-.642,.9174-1.6715,1.5625-2.7569,1.6248l-3.5748,3.1878,3.5748,3.2798c1.1361-.0593,2.3622,.9911,2.7569,1.6807l3.4395,3.3965"/><path class="b" d="M20.1404,10.4047l1.79,1.5171,.0042,1.1637h4.6613l.0042-1.1637,1.79-1.5171h-8.2498Zm3.0405,5.7172c-.417,.0012-.8325,.0075-1.2378,.0127l.019,6.4577-1.4875,1.3351,1.5066,1.3627,.0701,7.1379c1.8913,.0679,2.8151,.1148,4.4488-.6486l.0493-6.4893,1.5066-1.3627-1.4896-1.3351,.019-5.9922c-.3328-.169-1.8252-.4826-3.4045-.4782h0Zm-1.1468,18.4745l.0064,1.0241-1.8366,1.6547h8.123l-1.8366-1.6547,.0064-1.0241h-4.4626Z"/><path class="b" d="M26.075,13.0832c-6.2218,0-15.7114,.0106-15.7114,.0106,1.0158,1.0071,2.0476,2.0228,3.0704,3.0369l-.158,16.2792-3.0395,2.1844s11.7316,.001,16.5274,.001c5.5743,0,11.0132-6.0327,7.8232-14.6528l3.7067,2.8079s-.703-1.4323-1.1374-2.1001c-2.3559-3.6205-6.8261-7.5668-11.0804-7.5668l-.001-.0002Zm-7.9679,3.0475s4.2752,.014,6.1983,.014c2.1871,0,4.0883,1.2763,5.1853,2.7572,1.8655,2.5184,2.0655,7.89,.0282,10.6846-1.1317,1.5523-4.0469,2.8468-5.4315,2.8468-1.9935,0-5.9805-.028-5.9805-.028l.0002-16.2747Z"/></svg>