<svg xmlns="http://www.w3.org/2000/svg" viewBox="0 0 48 48"><defs><style>.a{fill:none;stroke:#000;stroke-linecap:round;stroke-linejoin:round;}</style></defs><path class="a" d="M21.5347,4.5c6.0018,3.2878,10.1941,8.4685,16.6882,11.9989-4.3023,4.8343-6.8646,10.9382-11.3438,15.6194-5.6362-4.3362-11.726-6.9468-17.102-11.3094C12.1336,14.6292,17.7992,10.726,21.5347,4.5Z"/><path class="a" d="M32.8667,23.9763l.4946,11.59c.0558,2.0571.5147,2.474,1.5515,2.7929,1.6212.4987,5.5028,2.9764,1.1379,3.2756-.6087.0417-1.6206,0-1.6206,0-1.5387-.199-3.95.1029-3.7927-2.1722l-.1135-11.9156"/><path class="a" d="M18.8557,26.8486l-.1483,7.4074c-.0017,1.5134-.3493,5.0552,2.8963,5.7237,1.57.3232,4.3978,3.2919-.31,3.5169a15.4529,15.4529,0,0,1-3.62-.6551c-1.81-.4225-1.5737-1.8682-1.6206-3.1722a95.2794,95.2794,0,0,0,.0518-14.4839"/><path class="a" d="M20.3279,16.4989c-1.8022.2318-3.6486.8893-5.7236,3.7583,2.0169,2.3434,9.5,1.9524,7.9993-2.1377C20.54,21.7631,15.9516,19.356,20.3279,16.4989Z"/><path class="a" d="M29.6374,14.0854c-3.045.5629-3.47,2.9272-5.1719,4.4134,7.1125,1.1291,9.7578-2.0755,7.8958-3.2411C29.452,18.8464,26.0388,16.4626,29.6374,14.0854Z"/></svg>