<svg xmlns="http://www.w3.org/2000/svg" viewBox="0 0 48 48"><defs><style>.a{fill:none;stroke:#000;stroke-linecap:round;stroke-linejoin:round;}</style></defs><path class="a" d="M8.4,6.5v35a2,2,0,0,0,2,2h2.33V4.5H10.4A2,2,0,0,0,8.4,6.5Z"/><path class="a" d="M12.73,4.5v39H37.6a2,2,0,0,0,2-2V6.5a2,2,0,0,0-2-2Z"/><line class="a" x1="20.0566" y1="27.982" x2="24.0566" y2="27.982"/><line class="a" x1="20.0566" y1="31.982" x2="22.6566" y2="31.982"/><line class="a" x1="20.0566" y1="27.982" x2="20.0566" y2="35.982"/><path class="a" d="M27.0176,35.982v-8h2.6a2.7,2.7,0,0,1,0,5.4h-2.6"/><line class="a" x1="29.8074" y1="33.3752" x2="32.3176" y2="35.982"/><path class="a" d="M27.1176,19.218a2.3842,2.3842,0,0,0,2,.9h1.2a2.0059,2.0059,0,0,0,2-2h0a2.0059,2.0059,0,0,0-2-2h-1.3a2.0059,2.0059,0,0,1-2-2h0a2.0059,2.0059,0,0,1,2-2h1.2a2.1472,2.1472,0,0,1,2,.9"/><path class="a" d="M25.4566,17.418h0a2.6888,2.6888,0,0,1-2.7,2.7h0a2.6888,2.6888,0,0,1-2.7-2.7v-2.7a2.6888,2.6888,0,0,1,2.7-2.7h0a2.6057,2.6057,0,0,1,2.6,2.7h0"/></svg>