<?xml version="1.0" encoding="UTF-8"?>
<svg id="Layer_1" data-name="Layer 1" xmlns="http://www.w3.org/2000/svg" version="1.1" viewBox="0 0 48 48">
  <defs>
    <style>
      .cls-1 {
        fill: none;
        stroke:#000;
        stroke-linecap: round;
        stroke-linejoin: round;
      }

      .cls-2 {
        fill:#000;
      }
    </style>
  </defs>
  <path class="cls-1" d="M10.1,35.3v-9.4h2.1c2.3,0,4.1,1.8,4.1,4.1h0v1.2c0,2.3-1.8,4.1-4.1,4.1h-2.1Z"/>
  <path class="cls-1" d="M31.6,35.3v-9.4h2.1c2.3,0,4.1,1.8,4.1,4.1h0v1.2c0,2.3-1.8,4.1-4.1,4.1h-2.1Z"/>
  <path class="cls-1" d="M26.3,29v7.1c0,1.3-1.1,2.4-2.4,2.4h0c-.6,0-1.2-.2-1.7-.7"/>
  <path class="cls-1" d="M23.9,35.3h0c-1.3,0-2.4-1.1-2.4-2.4v-1.5c0-1.3,1.1-2.4,2.4-2.4h0c1.3,0,2.4,1.1,2.4,2.4v1.5c0,1.3-1.1,2.4-2.4,2.4Z"/>
  <circle class="cls-2" cx="19" cy="26.1" r=".8"/>
  <line class="cls-1" x1="19" y1="29" x2="19" y2="35.3"/>
  <circle class="cls-2" cx="29" cy="26.1" r=".8"/>
  <line class="cls-1" x1="29" y1="29" x2="29" y2="35.3"/>
  <path class="cls-1" d="M38.5,5.5H9.5c-2.2,0-4,1.8-4,4v29c0,2.2,1.8,4,4,4h29c2.2,0,4-1.8,4-4V9.5c0-2.2-1.8-4-4-4Z"/>
</svg>