<?xml version="1.0" encoding="UTF-8"?><svg id="b" xmlns="http://www.w3.org/2000/svg" viewBox="0 0 48 48"><defs><style>.c{fill:none;stroke:#000;stroke-linecap:round;stroke-linejoin:round;}.d{fill:#000;stroke-width:0px;}</style></defs><path class="c" d="M38.5,5.5H9.5c-2.2091,0-4,1.7909-4,4v29c0,2.2091,1.7909,4,4,4h29c2.2091,0,4-1.7909,4-4V9.5c0-2.2091-1.7909-4-4-4Z"/><path class="c" d="M37.632,29v-10h-3.2739c-1.8548.0101-3.3502,1.522-3.3401,3.3768.01,1.8405,1.4996,3.3301,3.3401,3.3401h3.2739"/><line class="c" x1="34.359" y1="25.717" x2="31.085" y2="28.997"/><circle class="d" cx="26.288" cy="19.312" r=".75"/><path class="c" d="M27.5482,28.0057s-1.1828,1.2858-1.9193,1.2858h0c-.5483-.0098-.9849-.4622-.9751-1.0105.0018-.1013.0191-.2016.0512-.2977l1.25-6.3139h-1.875"/><polyline class="c" points="20.692 31.5 20.692 27.396 10.357 27.396 10.357 31.5"/><path class="c" d="M19.0506,27.3955v-10.8955h-6.3806c0,3.1716.597,7.8731-1.3433,10.8955"/></svg>