<svg xmlns="http://www.w3.org/2000/svg" viewBox="0 0 48 48"><defs><style>.a,.b{fill:none;stroke:#000;stroke-linecap:round;}.a{stroke-linejoin:round;}</style></defs><path class="a" d="M28.5236,14.59s-8.0631-6.738-16.794,3.0151"/><path class="a" d="M11.73,17.6043s-2.3047.199-3.3834-.7379c-.6431-.5585-.2223,3.5,1.9756,5.4181"/><path class="a" d="M11.3424,19.98s-3.591,7.05.9729,13.4355"/><path class="a" d="M12.3155,33.4151s.13,2.9228-1.8551,1.9425c0,0,.2925,2.8092,1.1646,3.4906"/><path class="a" d="M11.6244,38.8477s-3.7981-.7879,1.674,4.063a7.6539,7.6539,0,0,1,5.5344-3.1029"/><path class="a" d="M14.5584,41.8243s1.4725,3.5134,8.09.3671c0,0,3.8438-.0441,7.9589-4.2607"/><path class="a" d="M22.6484,42.1916l5.99.1771,1.234-2.0642,1.15.0811,3.585-2.25L33.89,36.5239l2.694-2.6859-1.1309-3.6313,2.9027-1.49-1.4924-4.3439,2.9419-4.2194-4.186-4.1152.2066-5.8265-4.4613.0078L28.2113,4.5005,22.949,6.3265,19.9514,4.8709,15.934,10.3672,12.4407,9.98l1.01,3.81-2.0139,1.5414.2927,2.273"/><path class="a" d="M19.3407,19.3547a4.8562,4.8562,0,0,1-3.5436-.9059c-.6339-.5469-.117,2.6648,2.0473,4.4623"/><path class="a" d="M13.8238,39.7818s-.4157-1.0071.6175-1.0408"/><path class="b" d="M12.8452,36.5241A4.8267,4.8267,0,0,1,10.46,35.3578"/><path class="b" d="M22.1764,36.9907c-1.6414,0-3.3042-.49-3.3436-3.5756-.0494-3.8607,5.277-3.7843,5.7474-1.4508.8156,3.9681-2.5287,4.4546-1.7932.6525"/><ellipse class="a" cx="21.6815" cy="33.8649" rx="0.917" ry="1.0648"/><path class="b" d="M15.7048,34.3148c-.48-.584-1.2009-.7543-3.39-.9"/></svg>