<svg xmlns="http://www.w3.org/2000/svg" viewBox="0 0 48 48"><defs><style>.a{fill:none;stroke:#000;stroke-linecap:round;stroke-linejoin:round;}</style></defs><path class="a" d="M17.59,34.1733c-.89,1.3069-1.8944,2.6152-2.91,3.8267C7.3,37.79,4.5,33,4.5,33A44.83,44.83,0,0,1,9.31,13.48,16.47,16.47,0,0,1,18.69,10l1,2.31A32.6875,32.6875,0,0,1,24,12a32.9643,32.9643,0,0,1,4.33.3l1-2.31a16.47,16.47,0,0,1,9.38,3.51A44.8292,44.8292,0,0,1,43.5,33s-2.8,4.79-10.18,5a47.4193,47.4193,0,0,1-2.86-3.81m6.46-2.9c-3.84,1.9454-7.5555,3.89-12.92,3.89s-9.08-1.9446-12.92-3.89"/><circle class="a" cx="17.847" cy="26.23" r="3.35"/><circle class="a" cx="30.153" cy="26.23" r="3.35"/></svg>