<?xml version="1.0" encoding="UTF-8"?><svg id="b" xmlns="http://www.w3.org/2000/svg" viewBox="0 0 48 48"><defs><style>.c{fill:none;stroke:#000;stroke-linecap:round;stroke-linejoin:round;}</style></defs><path class="c" d="m17.59,34.1733c-.89,1.3069-1.8944,2.6152-2.91,3.8267-7.38-.21-10.18-5-10.18-5,.1049-6.7869,1.7496-13.4614,4.81-19.52,2.6902-2.1046,5.9681-3.3207,9.38-3.48l1,2.31c1.4283-.1983,2.8681-.3018,4.31-.31,1.4484.0048,2.8948.105,4.33.3l1-2.31c3.4152.1679,6.6935,1.3947,9.38,3.51,3.0506,6.0542,4.6883,12.7214,4.79,19.5,0,0-2.8,4.79-10.18,5-1.0166-1.2213-1.9711-2.4929-2.86-3.81m6.46-2.9c-3.84,1.9454-7.5555,3.89-12.92,3.89s-9.08-1.9446-12.92-3.89"/><path class="c" d="m16.08,23.3946c-.9475.5918-1.583,1.636-1.583,2.8354,0,1.8502,1.4999,3.35,3.35,3.35s3.35-1.4998,3.35-3.35c0-.6211-.1805-1.1954-.475-1.694l-4.642-1.1414Z"/><path class="c" d="m31.92,23.3946c.9475.5918,1.583,1.636,1.583,2.8354,0,1.8502-1.4999,3.35-3.35,3.35s-3.35-1.4998-3.35-3.35c0-.6211.1805-1.1954.475-1.694l4.642-1.1414Z"/></svg>