<?xml version="1.0" encoding="UTF-8"?><svg id="b" xmlns="http://www.w3.org/2000/svg" viewBox="0 0 48 48"><defs><style>.f{fill:none;stroke:#000;stroke-linecap:round;stroke-linejoin:round;}</style></defs><path class="f" d="M9.5,5.5h29c2.216,0,4,1.784,4,4v29c0,2.216-1.784,4-4,4H9.5c-2.216,0-4-1.784-4-4V9.5c0-2.216,1.784-4,4-4"/><path class="f" d="M5.5,20.2794h18.9501c.2427,0,.5654.0572.6746.274l1.3947,2.7682c.1344.2667.52.364.8186.364h15.162"/><path class="f" d="M10.7508,20.1995v-5.9331h27.0425v9.3391M12.9016,18.9359h13.549M25.4292,20.9359h1.0215"/><path class="f" d="M34.8139,19.7447c0,1.5878-1.2871,2.8749-2.8749,2.8749h0c-1.5878,0-2.8749-1.2871-2.8749-2.8749h0c0-1.5878,1.2871-2.8749,2.8749-2.8749h0c1.5878,0,2.8749,1.2871,2.8749,2.8749h0"/></svg>