<?xml version="1.0" encoding="UTF-8"?><svg id="a" xmlns="http://www.w3.org/2000/svg" viewBox="0 0 48 48"><defs><style>.b{fill:none;stroke:#000;stroke-linecap:round;stroke-linejoin:round;}</style></defs><path class="b" d="M38.5,5.5H9.5c-2.2091,0-4,1.7909-4,4v29c0,2.2091,1.7909,4,4,4h29c2.2091,0,4-1.7909,4-4V9.5c0-2.2091-1.7909-4-4-4Z"/><path class="b" d="M16.24,27.394h14.666c7.9606,0,6.3313-9.6933.1807-9.7233-.4024-7.1159-11.323-8.6729-13.441-2.0767-7.227.1097-8.3707,11.8-1.4055,11.8h-.0002Z"/><path class="b" d="M24.447,32.984l-3.8703-1.8225-2.4826,3.9293"/><path class="b" d="M19.156,33.891l2.5198,1.1731"/><path class="b" d="M5.5,35.227h37"/><circle class="b" cx="15.475" cy="32.486" r="1.349"/></svg>