<svg xmlns="http://www.w3.org/2000/svg" viewBox="0 0 48 48"><defs><style>.a{fill:none;stroke:#000;stroke-linecap:round;stroke-linejoin:round;}</style></defs><path class="a" d="M15.7368,12.5355,14.5235,13.6,10.8377,12.51s-.9782.0414-1.2753.3424-1.9672,2.8-1.9672,2.8-.5218,1.1743-.1064,1.74,2.9481,3.0414,2.9481,3.0414l-.0747,1.6265L6.4614,23.8921a1.3845,1.3845,0,0,0-.5934,1.094A12.4231,12.4231,0,0,0,6.4337,28.5a2.5255,2.5255,0,0,0,.7714.8612,3.921,3.921,0,0,0,1.5418.5055c.6687.0016,2.781.0836,2.781.0836l.7809,1.2912L10.6967,34.45s-.42,1.3078-.1128,1.7042S13.4,38.6517,13.4,38.6517a1.4354,1.4354,0,0,0,1.8085.19c1.0477-.6334,3.3166-2.24,3.3166-2.24l1.3859.6311.8354,3.3354s.2854,1.1228,1.0426,1.2708,4.1194.0805,4.1194.0805a2.1829,2.1829,0,0,0,1.2281-1.3281c.2411-.9386.8816-3.36.8816-3.36l1.4372-.5644c1.5477,1.3511,4.2667,2.5278,4.65,2.2312.7278-.44,2.7212-2.0685,2.7212-2.0685a1.5616,1.5616,0,0,0,.4057-2.1676c-.782-1.4054-1.6171-3.2048-1.6171-3.2048l.8422-1.369,3.8236-.2259c2.3676-.04,1.7582-3.0353,1.8248-5.1274-.2164-1.2179-2.5684-1.757-4.2694-2.5706l-.2315-1.5232L40.7371,17.43a2.0793,2.0793,0,0,0-.325-1.6954c-.5906-.9463-1.333-2.3841-1.333-2.3841s-.3414-.8949-2.0628-.5626a34.7264,34.7264,0,0,0-3.4025.8645l-1.266-.88.3472-3.898a1.3379,1.3379,0,0,0-.7681-1.5653c-1.0544-.4237-3.157-1.1565-3.157-1.1565a1.7736,1.7736,0,0,0-1.8483.6512c-.6012.9579-2.0405,3.0936-2.0405,3.0936l-1.58.0148L21.3323,6.9187A1.6178,1.6178,0,0,0,19.26,6.1616a33.1356,33.1356,0,0,0-3.1418,1.1455s-.7818.0673-.6809,1.7935.3,3.4351.3,3.4351Z"/><circle class="a" cx="24" cy="24" r="21.5"/><circle class="a" cx="23.9998" cy="23.9995" r="9.1626"/><circle class="a" cx="23.9998" cy="23.9995" r="5.8717"/><circle class="a" cx="23.9998" cy="23.9995" r="12.054"/></svg>