<?xml version="1.0" encoding="UTF-8"?><svg id="b" xmlns="http://www.w3.org/2000/svg" viewBox="0 0 48 48"><defs><style>.c{fill:none;stroke:#000;stroke-linecap:round;stroke-linejoin:round;}</style></defs><ellipse class="c" cx="32.6538" cy="35.8074" rx="3.3407" ry="1.706" transform="translate(-12.4555 53.516) rotate(-69.071)"/><path class="c" d="m41.8089,21.4445c.1767.0088.3174.1551.3174.3339v13.1761c0,.185-.1499.3349-.3349.3349h-2.6815c-.185,0-.3349-.1499-.3349-.3349v-13.1761c0-.1788.1407-.3251.3174-.3339"/><path class="c" d="m42.1264,22.3988h.6361c1.6099,1.1912,2.6931,3.4176,2.6931,5.9676s-1.0831,4.7763-2.693,5.9676h-.6362"/><path class="c" d="m32.3762,11.2832c-.1833,1.0367-.2035,2.1668-.1808,3.2814"/><path class="c" d="m27.7733,12.4937s1.8727-.7053,2.8595-2.3629"/><path class="c" d="m30.3856,7.5096c2.3757-2.6058,4.5652-3.7466,7.7143-4.4797.6964-.1621,1.3658.3547,1.3885,1.0693.0834,2.617-.3159,5.9961-1.9309,9.7593"/><circle class="c" cx="40.4506" cy="20.9555" r="1.4433"/><path class="c" d="m39.0274,20.7169c-.5008-.6219-1.198-1.992-1.4242-2.6563.1606-.4376.6522-.7621,1.2352-.8594.6605.5338,1.2907,1.2397,1.6246,2.311"/><line class="c" x1="38.1057" y1="17.4747" x2="37.6487" y2="16.7677"/><path class="c" d="m38.7749,34.6942c-.8664.683-2.3041.6742-2.9216.2426-.0119-.0083-.0234-.0167-.0346-.0253-.2235-.1713-.4631-.529-.5201-.9151"/><path class="c" d="m9.2251,34.6942c.8664.683,2.3041.6742,2.9216.2426.0119-.0083.0234-.0167.0346-.0253.2235-.1713.4631-.529.5201-.9151"/><path class="c" d="m36.5,21.4388c.4782-.3684.961-.2963,1.4067.0046.3123.2097.6065.5323.8682.893"/><path class="c" d="m24,36.8889c-2.6617,0-4.8195-2.1578-4.8195-4.8195s2.1578-4.8195,4.8195-4.8195c2.6617,0,4.8195,2.1578,4.8195,4.8195,0,2.6617-2.1578,4.8195-4.8195,4.8195h0Z"/><ellipse class="c" cx="15.3462" cy="35.8074" rx="1.706" ry="3.3407" transform="translate(-11.7783 7.8443) rotate(-20.929)"/><path class="c" d="m27.7789,41.7709c1.6808-.6704,3.122-1.6267,4.3288-2.8304q.0005,0,.0005-.0005"/><path class="c" d="m15.8915,38.94q0,.0005.0005.0005c1.2068,1.2037,2.648,2.16,4.3288,2.8304"/><path class="c" d="m34.4486,35.7984c.3143-.572.5977-1.1733.8502-1.8019,1.0522-2.6227,1.569-5.7252,1.569-9.1693,0-1.1862-.1252-2.3203-.3679-3.3884-1.0192-4.486-4.1119-7.8095-8.7267-8.9451-1.1326-.2793-2.394-.4261-3.7733-.4261-1.3794,0-2.6408.1469-3.7733.4261-4.6148,1.1357-7.7075,4.4592-8.7267,8.9451-.2427,1.0682-.3679,2.2023-.3679,3.3884,0,3.4441.5168,6.5465,1.569,9.1693.2525.6286.5359,1.23.8502,1.8019"/><path class="c" d="m8.9077,21.4445c.1767.0088.3174.1551.3174.3339v13.1761c0,.185-.1499.3349-.3349.3349h-2.6815c-.185,0-.3349-.1499-.3349-.3349v-13.1761c0-.1788.1407-.3251.3174-.3339"/><path class="c" d="m5.8736,22.3988h-.6361c-1.6099,1.1912-2.6931,3.4176-2.6931,5.9676,0,2.5499,1.0831,4.7763,2.693,5.9676h.6362"/><path class="c" d="m15.8046,14.5645c.0227-1.1145.0025-2.2447-.1808-3.2814"/><path class="c" d="m17.3672,10.1308c.9867,1.6576,2.8595,2.3629,2.8595,2.3629"/><path class="c" d="m17.6144,7.5096c-2.3757-2.6058-4.5652-3.7466-7.7143-4.4797-.6964-.1621-1.3658.3547-1.3885,1.0693-.0834,2.617.3159,5.9961,1.9309,9.7593"/><path class="c" d="m37.0064,21.1893c-.699-12.3036-9.7376-12.3036-13.0064-12.3036-3.2688,0-12.3074,0-13.0064,12.3036"/><circle class="c" cx="7.5494" cy="20.9555" r="1.4433"/><path class="c" d="m7.537,19.5122c.3339-1.0713.9641-1.7772,1.6246-2.311.5829.0974,1.0746.4218,1.2352.8594-.2262.6643-.9234,2.0343-1.4242,2.6563"/><line class="c" x1="9.8943" y1="17.4747" x2="10.3513" y2="16.7677"/><path class="c" d="m11.7155,16.7891l-.8153.3001-1.1202-.6561-.0691-1.0946c1.6246-3.5371,4.6701-8.8248,14.2892-8.8248,9.6191,0,12.6646,5.2877,14.2892,8.8248l-.0691,1.0946-1.1202.6561-.8153-.3001"/><path class="c" d="m9.2251,22.3364c.2618-.3607.556-.6833.8682-.893.4457-.3009.9285-.3731,1.4067-.0046"/><ellipse class="c" cx="24" cy="42.8915" rx="3.7791" ry="2.1085"/><path class="c" d="m20.2209,42.8915v-1.9935c0-1.1645,1.692-2.1085,3.7791-2.1085,2.0871,0,3.7791.944,3.7791,2.1085v1.9935"/></svg>