<svg xmlns="http://www.w3.org/2000/svg" viewBox="0 0 48 48"><defs><style>.a{fill:none;stroke:#000;stroke-linecap:round;stroke-linejoin:round;}.b{fill:#000;}</style></defs><ellipse class="a" cx="27.95" cy="26.78" rx="5" ry="4.9"/><ellipse class="a" cx="27.95" cy="26.78" rx="8.9" ry="8.7"/><circle class="b" cx="15.95" cy="18.18" r="0.8"/><path class="a" d="M36.65,25.08h3.4a2.19,2.19,0,0,1,0,3.3h-3.4"/><path class="a" d="M22.15,13.08h10.9a1.11,1.11,0,0,1,1.1,1.1h0a1.11,1.11,0,0,1-1.1,1.1H22.15a1.11,1.11,0,0,1-1.1-1.1h0A1,1,0,0,1,22.15,13.08Z"/><path class="a" d="M18.05,16.18v-1.6h-5.8v1.6"/><path class="a" d="M21.45,13.28c.2-.7.1-2.1,1.5-2.4a25.27,25.27,0,0,1,9.5,0c1.2.2,1.4,2.1,1.9,3l2.2,2.5,4,1.1a1.09,1.09,0,0,1,.8.8l.8,5a22.82,22.82,0,0,1,.4,4.5v7.6c0,1.4-1.8,2.1-2.7,2.1H7.15c-1.6,0-1.7-1-1.7-2.4V19.38L7,17.48l1.9-.1,1.8-1.2h8.6l1.8-2.2"/><path class="a" d="M8.25,22.28c1.4-1.3,5.5-2.1,5.6,0v15.3"/></svg>