<?xml version="1.0" encoding="UTF-8"?><svg id="a" xmlns="http://www.w3.org/2000/svg" viewBox="0 0 48 48"><defs><style>.b{fill:none;stroke:#000;stroke-linecap:round;stroke-linejoin:round;}</style></defs><polyline class="b" points="18.3109 33.3562 18.3109 13.8921 35.5646 11.5014 35.5646 29.3989"/><circle class="b" cx="14.3516" cy="33.3562" r="3.9593"/><circle class="b" cx="31.6053" cy="29.3989" r="3.9593"/><path class="b" d="M5.5,24.8024c4.1789,0,7.7551-2.5654,9.25-6.2054,1.4696,3.6205,5.0711,6.2054,9.25,6.2054s7.7551-2.5654,9.25-6.2054c1.4949,3.6401,5.0711,6.2054,9.25,6.2054"/><path class="b" d="M38.5,5.5H9.5c-2.2091,0-4,1.7909-4,4v29c0,2.2091,1.7909,4,4,4h29c2.2091,0,4-1.7909,4-4V9.5c0-2.2091-1.7909-4-4-4Z"/></svg>