<svg xmlns="http://www.w3.org/2000/svg" viewBox="0 0 48 48"><defs><style>.a{fill:none;stroke:#000;stroke-linecap:round;stroke-linejoin:round;}</style></defs><path class="a" d="M26.6583,4.5,17.3756,9.8167V21.0675l9.2476,5.179-.0556-11.1823L17.3793,9.8257"/><path class="a" d="M26.7539,4.5539,35.8565,9.639l-9.0544,5.3947"/><path class="a" d="M35.8539,9.663V19.6991l3.9174,2.2437v2.1263L34.3231,27.19l-5.3247-3.05V22.0343l5.4424-3.1171,1.4119.7778"/><path class="a" d="M34.3384,27.0932l.0019-1.9391s5.3032-3.1053,5.4065-3.16"/><path class="a" d="M34.3633,25.2143l-5.2-2.9785"/><path class="a" d="M26.7307,26.2521l2.6837-1.5372"/><path class="a" d="M29.8515,17.8345l-1.8186,1.0416V21l1.8854-1.08V17.8261"/><path class="a" d="M32.7285,16.0843v2.14l1.9179-1.0984V15.0339Z"/><path class="a" d="M12.2289,13.49,8.8784,11.7868V7.7423l3.3716,1.93Z"/><path class="a" d="M15.766,11.5775l-3.5782,2.05"/><path class="a" d="M8.8785,7.7542l3.3994-1.947,3.396,1.9451v3.6386"/><path class="a" d="M15.552,7.9588,12.261,9.7344"/><path class="a" d="M17.18,10.7555l-1.5115.88"/><path class="a" d="M12.1235,13.6516,8.2287,15.7763V30.2651l12.136,6.7656-.114-14.0147"/><path class="a" d="M8.3953,15.8274,17.294,21.03"/><path class="a" d="M32.1693,26.2164v4.0309L20.4126,36.981"/><path class="a" d="M16.7615,35.6392v5.3672L21.1153,43.5l2.1716-1.2438V39.8778l-2.1336-1.3292V36.7867"/><path class="a" d="M21.1233,43.3854v-2.293l1.9358-1.1087"/><path class="a" d="M21.128,41.1318l-2.27-1.3V36.3374"/><path class="a" d="M23.4362,35.4052l-.0646,1.8613,4.37,2.5029,2.092-1.1982V36.1264l-2.0849,1.1941V39.755"/><path class="a" d="M27.75,32.9513V34.76l2.1054,1.2059"/><path class="a" d="M25.5075,34.1139v1.9455l2.18,1.2488"/></svg>