<?xml version="1.0" encoding="UTF-8"?><svg id="a" xmlns="http://www.w3.org/2000/svg" viewBox="0 0 48 48"><defs><style>.ac{fill:none;stroke:#000;stroke-linecap:round;stroke-linejoin:round;}</style></defs><g id="b"><g id="c"><path id="d" class="ac" d="M38.0233109,18.7991724c0,1.52489853-1.2362442,2.76107216-2.76123428,2.76107216h0c-1.52498627,0-2.76123428-1.23617363-2.76123428-2.76107025v-.00000191c0-1.52489853,1.2362442-2.76107216,2.76123428-2.76107216h0c1.52498627,0,2.76123428,1.23617363,2.76123428,2.76107025v.00000191Z"/><path id="e" class="ac" d="M16.05780339,27.7250948c0,1.52489853-1.23624802,2.76107025-2.76123428,2.76107025h-.00000095c-1.52498627,0-2.76123238-1.23617172-2.76123333-2.76107025,0-1.52489853,1.23624611-2.76107216,2.76123238-2.76107216h.00000095c1.52498722,0,2.76123524,1.23617172,2.76123524,2.76106834v.00000381Z"/><g id="f"><path id="g" class="ac" d="M39.14067388,13.02168751c-.31807709-.00659943-.65218735.00049591-.99860764.01947021-2.14139938.11726952-3.54065704-.04348946-6.25638962,1.14453697h-6.34009552c-6.63236618,1.29756546-10.40547943,4.46463013-13.61456108,6.60833168l-6.22719193,2.51486969c-1.26563549.51118469-.73186111,2.24763489-.27836466,3.69249344.36953068,1.17733765,2.73285151,1.36235809,4.45967436,1.43261719-.03170109-.1033287-.05962753-.20787811-.08370972-.31338501-.42047405-2.14557457.79064178-4.18912506,2.70510387-4.56439209.00022697-.00004387.000453-.00008774.00067902-.00013161,1.72007465-.33682442,3.45680237.79082489,4.08008385,2.64917564l15.23997498-6.15091133c-.11500168-.26925087-.20314407-.55063629-.26279068-.83893776-.42047501-2.14557648.79064178-4.18912315,2.70510483-4.56439018.00022507-.00004578.00045013-.00008965.0006752-.00013351,1.75643539-.34072304,3.52153397.84402084,4.10928345,2.75817871l4.06840515-1.64089203c.37401199-1.98719215-1.08073044-2.70066833-3.30727386-2.74650002Z"/><path id="h" class="ac" d="M20.5048058,17.42901134c.67258263,1.82814598.83256149,3.43118668,2.31131554,5.03168297"/><path id="i" class="ac" d="M29.3305676,15.43189335l.95326233-.11371613"/><path id="j" class="ac" d="M28.75511289,16.4994936l-7.51633453,2.63318062"/><path id="k" class="ac" d="M18.62865567,16.77074146l.15629959,2.42539597-5.18361092,1.52116013.9035759-1.69493103"/><path id="l" class="ac" d="M30.60516858,16.36466122l.79812813,1.50576019"/><path id="m" class="ac" d="M41.25957417,14.26894093l-.43559265.14935493"/><path id="n" class="ac" d="M39.92442632,13.36528683l-.81422424.30878258"/></g></g><g id="o"><path id="p" class="ac" d="M5.26636815,23.4308157l-1.76637888-3.69709778c2.37662268-1.0881424,4.43918657-2.57547379,7.41649771-2.9000988.98845577-2.15737724,3.72709751-3.57520485,6.15384388-3.92700577l1.46021271,3.46549225"/><path id="q" class="ac" d="M11.07638669,16.51702213l4.07041359,1.99336433"/><path id="r" class="ac" d="M7.3936913,17.81112766l.60475826,1.83806419c.19025135.57823563.93986893,1.19133568,1.52117157,1.01057434l3.70696831-1.15271378-.94763851-2.29365158"/></g><g id="s"><path id="t" class="ac" d="M25.11032796,10.83352852l8.27371979-3.3289175"/><path id="u" class="ac" d="M25.61249471,11.92862034l8.27371979-3.32891655"/><path id="v" class="ac" d="M24.40291333,10.27224541l1.02430344,2.56360531"/><path id="w" class="ac" d="M23.64695287,10.55610752l-3.85876846,1.4741478,1.32427597,3.27322388"/><path id="x" class="ac" d="M24.54138494,12.91013813l-1.00943375.39944077.38625908,1.08003044"/><path id="y" class="ac" d="M18.85798192,13.01515102l.75400162,1.88900757"/></g></g><g id="z"><path id="aa" class="ac" d="M44.50001073,33.49538898c0,3.8659935-3.1340065,7-7,7s-7-3.1340065-7-7,3.1340065-7,7-7,7,3.1340065,7,7Z"/><path id="ab" class="ac" d="M34.8500092,32.1168642c0-1.59999847,1.5-2.90000153,3.20000076-2.59999847,1.09999847.20000076,2,1.20000076,2.09999847,2.29999924,0,.79999924-.20000076,1.70000076-.79999924,2.20000076-1.09999847.90000153-4.5,3.5-4.5,3.5h5.29999924"/></g></svg>