<?xml version="1.0" encoding="UTF-8"?><svg id="b" xmlns="http://www.w3.org/2000/svg" viewBox="0 0 48 48"><defs><style>.k{fill:none;stroke:#000;stroke-linecap:round;stroke-linejoin:round;}</style></defs><g id="c"><path id="d" class="k" d="M38.5,24.8094v3.3577c0,1.3687-1.1095,2.4783-2.4782,2.4784-.0067,0-.0134,0-.0201,0h0c-.6607.0041-1.295-.259-1.7588-.7295"/><path id="e" class="k" d="M38.5,20.7022v4.1072c0,1.3742-1.114,2.4883-2.4883,2.4883-.0033,0-.0067,0-.01,0h0c-1.3703-.0055-2.4783-1.1179-2.4783-2.4883v-4.1072"/><path id="f" class="k" d="M14.1668,25.9986c-.4308.7876-1.251,1.2835-2.1485,1.2991h0c-1.3742.0055-2.4927-1.104-2.4983-2.4783,0-.0033,0-.0067,0-.01v-1.6189c0-1.3742,1.114-2.4883,2.4883-2.4883.0033,0,.0067,0,.01,0h0c1.3703.0055,2.4783,1.1179,2.4783,2.4883v.8094h-4.9966"/><path id="g" class="k" d="M30.4955,24.8094c0,1.3742-1.114,2.4883-2.4883,2.4883h0c-1.3703-.0055-2.4783-1.1179-2.4783-2.4883v-1.6189c0-1.3703,1.108-2.4828,2.4783-2.4883h0c1.3742,0,2.4883,1.114,2.4883,2.4883"/><line id="h" class="k" x1="30.4955" y1="27.2977" x2="30.4955" y2="20.7022"/><path id="i" class="k" d="M17.5245,23.1905c0-1.3742,1.114-2.4883,2.4883-2.4883h0c1.3703.0055,2.4783,1.1179,2.4783,2.4883v1.6189c0,1.3703-1.108,2.4828-2.4783,2.4883h0c-1.3742,0-2.4883-1.114-2.4883-2.4883"/><line id="j" class="k" x1="17.5245" y1="27.2977" x2="17.5245" y2="17.3545"/></g><rect class="k" x="5.5" y="5.5" width="37" height="37" rx="4" ry="4"/></svg>