<svg xmlns="http://www.w3.org/2000/svg" viewBox="0 0 48 48"><defs><style>.a{fill:none;stroke:#000;stroke-linecap:round;stroke-linejoin:round;}</style></defs><circle class="a" cx="19.14" cy="33.67" r="7.52"/><circle class="a" cx="38.99" cy="37.8" r="3.4"/><line class="a" x1="21.21" y1="26.44" x2="39.99" y2="34.55"/><line class="a" x1="38.99" y1="41.2" x2="19.14" y2="41.2"/><path class="a" d="M10.18,17.5A7.33,7.33,0,0,0,4.5,24.79a7.5,7.5,0,0,0,1.65,4.7"/><path class="a" d="M41.72,35.78c2.07-1.72,2.83-10.28-.48-13.55a18.18,18.18,0,0,0-13.82-5.69"/><path class="a" d="M22.67,20.79c2.49,0,5-2.49,5-6.47S25.78,6.8,20,6.8,13.16,10.6,13.16,14"/><path class="a" d="M13.62,19.69a6.21,6.21,0,0,0-4.93,6.09c0,3.13,3.5,5,3.5,5"/><path class="a" d="M14.61,19.79c-3.34,0-5.1-3.25-5.1-3.25.71-1.17,3.16-2.53,4.68-2.81l.63,1.58a7.17,7.17,0,0,0,4.32.91S18.87,19.79,14.61,19.79Z"/><line class="a" x1="15.81" y1="12.56" x2="15.81" y2="11.43"/><line class="a" x1="18.97" y1="12.56" x2="18.97" y2="11.43"/><line class="a" x1="6.15" y1="29.49" x2="13.94" y2="39.09"/><path class="a" d="M37.45,30.92c1.44.56,6,1.9,6-.42"/></svg>