<?xml version="1.0" encoding="UTF-8"?><svg id="a" xmlns="http://www.w3.org/2000/svg" viewBox="0 0 48 48"><defs><style>.i{fill:none;stroke:#000;stroke-linecap:round;stroke-linejoin:round;}</style></defs><g id="b"><path id="c" class="i" d="M5.6475,9.0286s4.2986,4.8186,7.0938,6.2961c2.6889,1.4213,5.7986,1.9721,8.8483,2.2275m5.9615-.081c2.8824-.3201,5.7561-.7425,8.3052-2.014,2.5642-1.2791,6.6437-5.4556,6.6437-5.4556"/><ellipse id="d" class="i" cx="24.5624" cy="17.305" rx="3.0074" ry="1.9649"/><ellipse id="e" class="i" cx="23.3295" cy="21.0154" rx="1.4796" ry="1.0796"/><ellipse id="f" class="i" cx="22.2902" cy="23.5456" rx=".9422" ry=".7126"/><path id="g" class="i" d="M5.5,22.4121c.6204,.5869,1.2398,1.1729,1.9262,1.4642s1.4397,.2887,2.183-.0774c.7433-.3661,1.4774-1.0957,2.2116-1.8254,.6795,.7597,1.3598,1.5204,2.1542,1.8951,.7943,.3748,1.7034,.3656,2.5124-.0137,.809-.3793,1.5187-1.1289,2.2285-1.8785,.7175,.7187,1.4388,1.4411,1.9151,1.798,.4763,.3569,.7151,.3557,.9539,.3545m1.4271-.0088c.299-.002,.598-.0041,1.1095-.3204,.5115-.3163,1.2313-.943,1.9533-1.5716,.6444,.6352,1.2897,1.2713,2.1662,1.5977s1.9851,.3447,2.8347-.0658c.8496-.4105,1.4413-1.2503,2.0329-2.0898,.6162,.7625,1.2332,1.5261,2.1409,1.9225,.9077,.3964,2.1068,.4276,3.0073,.1146,.9005-.313,1.5035-.9702,2.1064-1.6274,.4839,.5827,.9686,1.1665,1.278,1.4861,.3094,.3196,.4539,.3808,.5774,.4331"/><path id="h" class="i" d="M19.1445,25.6046c.1489-.0045,.2716,.0486,.2761,.0529,.2281,.2211,.4892,.6962,.9927,1.1232,.2746,.2329,.5649,.3406,.7904,.4368,.2255,.0962,.381,.1762,.4803,.2799,.1416,.1479,.2441,.3804,.2439,.5276-.0001,.0869-.058,.1916-.1985,.399-.1405,.2074-.3668,.5345-.3252,.9776,.0722,.7704,.5169,1.491,.6996,2.0819,.1738,.562,.2129,1.7838,.174,2.7267-.041,.7805-.4267,1.9951-.5805,2.358-.0646,.1524-.4169,.8565-.7318,1.4711-.2454,.4791-.3825,.7434-.4727,.9171l-2.9271,.0151c.2205-.3427,.3496-.5025,.6391-1.074,.2478-.4892,.4745-1.0071,.5862-1.5033,.0558-.2481,.0846-.4927,.0548-.7412s-.1332-.5154-.346-.7072c-.35-.3155-.827-.3432-1.2366-.2439s-.8012,.3198-1.144,.6221c-.623,.5495-1.1372,1.5021-1.5619,2.3504-.3436,.6863-.4974,1.0731-.5843,1.282l-6.1227,.0019c-.0045-.4309-.0223-1.1358,.0454-1.5166,.1648-.9273,.5202-1.8448,.9265-2.7475,.5074-1.127,1.152-2.2058,1.8625-3.2372,.6859-.9956,1.4019-1.96,2.2483-2.755,.8696-.8169,1.7698-1.606,2.7777-1.8833,.2335-.0642,.4848-.0254,.8301,.0151,.3453,.0405,.8149,.0622,1.2612-.2118,.3057-.1877,.4972-.396,.6183-.5503,.1211-.1542,.166-.2276,.2855-.3158,.1341-.0805,.2976-.1026,.4387-.1513Z"/></g><line class="i" x1="16.3193" y1="30.4055" x2="15.0681" y2="29.068"/></svg>