<?xml version="1.0" encoding="UTF-8"?><svg id="b" xmlns="http://www.w3.org/2000/svg" viewBox="0 0 48 48"><defs><style>.f{fill:none;stroke:#000;stroke-linecap:round;stroke-linejoin:round;}</style></defs><path id="c" class="f" d="m17.1429,30.6776s4.8453-1.9381,9.6905,0"/><path id="d" class="f" d="m40.65,15.6084v3.6038c0,.4144-.333.74-.74.74h-12.4912c-2.1016,0-2.5974,1.8204-2.7084,2.8342-.0444.37-.3552.6512-.7326.6512h-3.7148c-.407,0-.7326-.3182-.74-.7253-.0074-2.0719.6068-7.8439,7.8663-7.8439h3.8257v-3.293h-3.515v-2.3754h9.805v2.3754h-3.515v3.293h5.92c.407,0,.74.333.74.74"/><path id="e" class="f" d="m15.3666,23.1102l2.9072,15.5048h7.7524l2.9072-15.5048"/><path class="f" d="m40.5,5.5H7.5c-1.1046,0-2,.8954-2,2v33c0,1.1046.8954,2,2,2h33c1.1046,0,2-.8954,2-2V7.5c0-1.1046-.8954-2-2-2Z"/></svg>