<?xml version="1.0" encoding="UTF-8"?><svg id="b" xmlns="http://www.w3.org/2000/svg" viewBox="0 0 48 48"><defs><style>.j{fill:none;stroke:#000;stroke-linecap:round;stroke-linejoin:round;}</style></defs><path id="c" class="j" d="m15.4923,31.8169v4.879c0,.6822.5702,1.2351,1.2736,1.2351h16.9541v-11.5212H15.4923v2.769"/><path id="d" class="j" d="m6.2862,25.9716l-.7862,5.1729,3.4255-.5317,9.2838,1.7023c-.0128.186-.0071.3761.0188.568.2061,1.5351,1.6172,2.6122,3.1518,2.4061,1.5348-.2061,2.6117-1.6175,2.4056-3.1526-.2061-1.535-1.6172-2.6121-3.152-2.4059-.2893.0389-.5624.1208-.8136.238l-10.426-1.9118-3.1077-2.0853h0"/><path id="e" class="j" d="m33.72,34.4866l8.7801,2.2716v-9.4395l-8.7801,2.0869"/><path id="f" class="j" d="m25.5704,16.9016c-.0023,3.7723,3.0532,6.8323,6.8247,6.8346,3.7715.0023,6.8308-3.0539,6.8332-6.8262v-.0084c.0012-3.7723-3.0552-6.8314-6.8268-6.8326-3.7715-.0012-6.8299,3.0559-6.8311,6.8282v.0044"/><path id="g" class="j" d="m30.3507,16.9016c-.0008,1.1317.9158,2.0498,2.0473,2.0505,1.1315.0008,2.0493-.916,2.0501-2.0477v-.0028c.0008-1.1317-.9158-2.0498-2.0473-2.0505s-2.0493.916-2.0501,2.0477v.0028"/><path id="h" class="j" d="m9.2521,16.9016c-.0012,3.7723,3.0552,6.8314,6.8268,6.8326,3.7715.0012,6.8299-3.0559,6.8311-6.8282v-.0044c0-3.7723-3.0574-6.8304-6.829-6.8304s-6.829,3.0581-6.829,6.8304"/><path id="i" class="j" d="m14.0324,16.9016c-.0002,1.1317.917,2.0492,2.0484,2.0494,1.1315.0002,2.0488-.9171,2.049-2.0488v-.0005c.0002-1.1317-.917-2.0492-2.0484-2.0494-1.1315-.0002-2.0488.9171-2.049,2.0488v.0005"/></svg>