<?xml version="1.0" encoding="UTF-8"?><svg id="a" xmlns="http://www.w3.org/2000/svg" viewBox="0 0 48 48"><defs><style>.f{fill:none;stroke:#000;stroke-linecap:round;stroke-linejoin:round;}</style></defs><path id="b" class="f" d="M20.3713,35.9858c.2999.2828,1.6297,1.473,3.5627,1.3455,1.5682-.1035,2.6199-1.0141,2.9689-1.3455"/><path id="c" class="f" d="M14.661,28.0826c1.3915,2.583,3.7321,3.9877,5.2279,3.1375,1.4957-.8502,1.5802-3.6333.1887-6.2163-1.3915-2.583-3.7321-3.9877-5.2279-3.1375-1.4958.8502-1.5802,3.6334-.1887,6.2163"/><path id="d" class="f" d="M24,42.5c-5.6741,0-8.3561-5.428-9.1624-7.4635-.1889-.4769-.4641-.9096-.8201-1.2789-1.3132-1.3622-4.5323-5.4358-4.5323-12.6354,0-10.4443,7.2573-15.6222,14.5147-15.6222s14.5147,5.1779,14.5147,15.6222c0,7.241-2.9144,10.9537-4.3503,12.4396-.4676.4839-.863,1.0329-1.1562,1.6386-2.8127,5.8107-6.0987,7.2995-9.0082,7.2995h0"/><path id="e" class="f" d="M33.1408,28.0826c-1.3915,2.583-3.7321,3.9877-5.2279,3.1375-1.4957-.8502-1.5802-3.6333-.1887-6.2163,1.3915-2.583,3.7321-3.9877,5.2279-3.1375,1.4957.8502,1.5802,3.6334.1887,6.2163"/></svg>