<?xml version="1.0" encoding="UTF-8"?><svg id="b" xmlns="http://www.w3.org/2000/svg" viewBox="0 0 48 48"><defs><style>.aa{fill:none;stroke:#000;stroke-linecap:round;stroke-linejoin:round;}</style></defs><path id="c" class="aa" d="m29.6923,30.7621h0"/><path id="d" class="aa" d="m26.1346,12.9671h0"/><path id="e" class="aa" d="m9.7692,16.5261h0"/><path id="f" class="aa" d="m33.25,16.5261h0"/><path id="g" class="aa" d="m14.0385,30.7621h-4.2692v-4.2708"/><path id="h" class="aa" d="m14.4533,16.5261v-3.559h2.4313"/><path id="i" class="aa" d="m33.0422,16.5261v-3.559h-2.4306"/><path id="j" class="aa" d="m7.6346,23.6441h-2.1346v-10.677h4.2692v10.677"/><path id="k" class="aa" d="m38.2308,23.6441v-10.677h4.2692v10.677h-2.1346"/><path id="l" class="aa" d="m16.8846,12.9671v-4.2708h4.2692v4.2708"/><path id="m" class="aa" d="m26.1346,12.9671v-4.2708h4.2692v4.2708"/><path id="n" class="aa" d="m9.7692,23.6441h2.1346v2.1354h-4.2692v-2.1354"/><path id="o" class="aa" d="m40.3654,23.6441v2.1354h-4.2692v-2.1354h2.1346"/><path id="p" class="aa" d="m18.3077,30.7621v4.2708h-4.2692v-4.2708"/><path id="q" class="aa" d="m33.9615,30.7621h4.2692v-4.2708"/><path id="r" class="aa" d="m29.6923,30.7621v4.2708h4.2692v-4.2708"/><path id="s" class="aa" d="m18.3077,30.7621h11.3846"/><path id="t" class="aa" d="m21.1538,12.9671h4.9808"/><path id="u" class="aa" d="m9.7692,16.5261h4.2692"/><path id="v" class="aa" d="m33.25,16.5261h4.9808"/><path id="w" class="aa" d="m16.2976,20.7969h2.5615v4.2708h-2.5615v-4.2708"/><path id="x" class="aa" d="m9.7692,35.0329h4.2692v4.2708h-4.2692v-4.2708"/><path id="y" class="aa" d="m33.9615,35.0329h4.2692v4.2708h-4.2692v-4.2708"/><path id="z" class="aa" d="m29.2832,20.7969h2.5615v4.2708h-2.5615v-4.2708"/></svg>