<?xml version="1.0" encoding="UTF-8"?><svg id="b" xmlns="http://www.w3.org/2000/svg" viewBox="0 0 48 48"><defs><style>.m{fill:none;stroke:#000;stroke-linecap:round;stroke-linejoin:round;}</style></defs><path id="c" class="m" d="m22.1684,15.1496c-.3084-3.0978-2.9219-5.517-6.1004-5.517-3.386,0-6.1308,2.7453-6.1308,6.1318,0,2.4353,1.4194,4.539,3.4759,5.5286"/><path id="d" class="m" d="m18.0219,21.1736c-.0176.201-.1805.3637-.3822.3853-2.4448.2619-4.3252,2.6696-4.3252,5.6002,0,3.1055,2.1534,5.6231,4.8097,5.6231h18.3364c2.9184,0,5.2842-2.6605,5.2842-5.9424,0-3.1452-2.1728-5.7196-4.9224-5.9287-.2104-.016-.381-.1633-.4211-.3693-.6143-3.1547-3.4478-5.5254-6.7978-5.5254-2.1772,0-4.1166.9858-5.3761,2.5541-.123.1533-.3296.2234-.5113.1472-.4846-.2033-.9965-.3016-1.5692-.3016-2.1641,0-3.9405,1.6519-4.125,3.7575h0"/><path id="e" class="m" d="m19.7698,37.4741c-.4274.6615-1.2136.9117-1.7571.5604-.5435-.3513-.6377-1.1722-.2104-1.8338,0,0,.4982-.8575,2.2782-1.728,0,0,.3507-.201.3255.1823-.1088,1.9905-.6362,2.8191-.6362,2.8191"/><path id="f" class="m" d="m36.8874,37.4741c-.4274.6615-1.2136.9117-1.7571.5604-.5435-.3513-.6377-1.1722-.2104-1.8338,0,0,.4982-.8575,2.2782-1.728,0,0,.3507-.201.3255.1823-.1088,1.9905-.6362,2.8191-.6362,2.8191"/><path id="g" class="m" d="m28.3286,37.4741c-.4274.6615-1.2136.9117-1.7571.5604-.5435-.3513-.6377-1.1722-.2104-1.8338,0,0,.4982-.8575,2.2782-1.728,0,0,.3507-.201.3255.1823-.1088,1.9905-.6362,2.8191-.6362,2.8191"/><path id="h" class="m" d="m23.7649,41.7798c-.4274.6615-1.2136.9116-1.7571.5604-.5435-.3513-.6377-1.1723-.2104-1.8338,0,0,.4982-.8575,2.2782-1.728,0,0,.3507-.201.3255.1823-.1089,1.9905-.6362,2.8191-.6362,2.8191"/><path id="i" class="m" d="m32.3238,41.7798c-.4274.6615-1.2136.9116-1.7571.5604-.5435-.3513-.6377-1.1723-.2104-1.8338,0,0,.4982-.8575,2.2782-1.728,0,0,.3507-.201.3255.1823-.1089,1.9905-.6362,2.8191-.6362,2.8191"/><path id="j" class="m" d="m13.9675,21.5352l-4.074,2.4266.9472-4.5361-4.5855-.6608,3.432-3.1125-3.3214-3.2309,4.6078-.4987-.7923-4.5671,4.0214,2.3071,2.0442-4.1618,1.8966,4.2295,4.0989-2.1635-.9472,4.5361,4.5854.6608-3.6382,2.699"/><path id="k" class="m" d="m22.1684,15.1496c.0651,1.0342-.0235,1.7088-.1291,2.2678"/><path id="l" class="m" d="m13.4131,21.2929c1.0132.5269,1.955.5306,2.9103.6332"/></svg>