<?xml version="1.0" encoding="UTF-8"?><svg id="a" xmlns="http://www.w3.org/2000/svg" viewBox="0 0 48 48"><defs><style>.b{fill:none;stroke:#000;stroke-linecap:round;stroke-linejoin:round;}</style></defs><path class="b" d="m24.0402,42.5c10.2152,0,18.4598-8.2848,18.4598-18.5402,0-10.2152-8.2446-18.4598-18.4598-18.4598C13.7848,5.5,5.5,13.7446,5.5,23.9598c0,10.2554,8.2848,18.5402,18.5402,18.5402Z"/><path class="b" d="m35.7435,27.0877s-4.7456,3.8133-11.7179,3.8133c-6.943,0-11.769-3.8133-11.769-3.8133"/><path class="b" d="m20.9727,18.7578l-1.5727-3.5228c-.5843-1.3087-2.442-1.3087-3.0262,0l-1.5727,3.5228"/><path class="b" d="m33.2793,18.7578l-1.5727-3.5228c-.5843-1.3087-2.442-1.3087-3.0262,0l-1.5727,3.5228"/></svg>