<?xml version="1.0" encoding="UTF-8"?><svg id="b" xmlns="http://www.w3.org/2000/svg" viewBox="0 0 48 48"><defs><style>.l{fill:none;stroke:#000;stroke-linecap:round;stroke-linejoin:round;}</style></defs><path id="c" class="l" d="m40.1724,42.5H7.8276c-1.2856,0-2.3276-1.0421-2.3276-2.3276V7.8276c0-1.2856,1.0421-2.3276,2.3276-2.3276h32.3447c1.2855,0,2.3276,1.0421,2.3276,2.3276v32.3447c0,1.2855-1.0421,2.3276-2.3276,2.3276"/><path id="d" class="l" d="m36.4396,16.059c-.0845,2.1409-1.8885,3.8079-4.0293,3.7234-2.141-.0845-3.8079-1.8885-3.7234-4.0293.0845-2.1409,1.8884-3.8079,4.0293-3.7234"/><path id="e" class="l" d="m17.8762,18.7934c-1.5946,1.4309-4.0474,1.2982-5.4783-.2964-1.4309-1.5946-1.2982-4.0474.2964-5.4783,1.5946-1.4309,4.0474-1.2982,5.4783.2964"/><path id="f" class="l" d="m35.3063,35.946c-1.515,1.5151-3.9712,1.515-5.4862,0-1.5151-1.515-1.5151-3.9712,0-5.4862,1.515-1.515,3.9712-1.5151,5.4862,0"/><path id="g" class="l" d="m15.2852,29.3235c2.1425,0,3.8794,1.7369,3.8794,3.8794s-1.7369,3.8794-3.8794,3.8794-3.8794-1.7368-3.8794-3.8794"/><path id="h" class="l" d="m15.2852,33.2029l-4.3489-3.3309"/><path id="i" class="l" d="m37.8668,33.3731l-5.3036-.1702"/><path id="j" class="l" d="m20.6844,16.0855l-5.5706-.2198"/><path id="k" class="l" d="m36.4426,12.4249l-3.8794,3.4812"/></svg>