<?xml version="1.0" encoding="UTF-8"?><svg id="b" xmlns="http://www.w3.org/2000/svg" viewBox="0 0 48 48"><defs><style>.g{fill:none;stroke:#000;stroke-linecap:round;stroke-linejoin:round;}</style></defs><path id="c" class="g" d="m19.5242,20.7233c-.0249.3475-.9948,1.5405-1.2433,1.7128-.5181.3592-.7204.1946-1.1718.5492-.2861.2248-.6436.4651-1.0817.5492-.2425.0465-.1352-.1822-.6807.1675-.3039.1948-.0341.4045,0,.5958.0458.2572.0801.1022.5968.5958.2697.2577.2939.4874.5968.5958.1894.0677.327.0306.5968,0,.5657-.0642.3141.4925.5968.5958.65.2375.5947,1.0916,1.1935,1.1915.2419.0403.3287-.086.5968,0,.2454.0788.527.2984.5968.5958.0919.3917-.2219.7561-.5968,1.1915-.3032.3522-.3595.2979-.5968.5958-.317.398-.2321.5145-.5968,1.1915-.369.6852-.5719.7812-.5968,1.1915-.0104.1716-.0005.5774,0,.5958.0104.414.0335.4687,0,.5958-.078.2961-.6803.5554-.9076.5213-.4473-.0671-.4393-1.6103-.46-1.8494-.042-.4826.1561-.7524.174-1.055.0619-1.0466.2369-1.3712,0-1.7873-.1512-.2655-.231-.1485-.5968-.5958-.2065-.2525-.5194-.6444-.5968-1.1915-.0487-.3446.0531-.3467,0-.5958-.0986-.462-.4825-.6111-1.1935-1.1915-.4387-.3581-.8278-.6757-1.1935-1.1915-.1901-.268-.459-.6473-.5968-1.1915-.1813-.7163.0887-.8332,0-1.7873-.02-.2149-.1071-.9985-.5968-1.7873-.2079-.3349-.3543-.5634-.5968-.5958-.4622-.0617-.7102.6644-1.1935.5958-.2888-.041-.5121-.3446-.5968-.5958-.0226-.0671-.1052-.3239,0-.5958.0583-.1507.2378-.299.5968-.5958.3663-.3028.5504-.4571.5968-.5958.0873-.2613-.0701-.3545,0-.5958.1198-.4129.7549-.7409,1.1935-.5958.252.0833.1977.243.5968.5958.1938.1713.6125.4925,1.1936.5958.2934.0522.4401.0782.5968,0,.3859-.1928.2014-.7035.5968-1.1915.3637-.4489.9545-.5535,1.1935-.5958.5909-.1046.6716.1195,1.1935,0,.5609-.1284.5447-.4049,1.1935-.5958.2841-.0836.7847-.2309,1.1935,0,.3681.2079.3193.5289.5968.5958.3873.0934.5771-.5094,1.1935-.5958.4707-.066,1.0306.1914,1.1935.5958.0809.2007.043.3856,0,.5958-.1299.6347-.4747.6731-.5968,1.1915-.1327.5634.1515.7,0,1.1915-.0995.3227-.2984.2234-.6154.4841-.1451.1193-.1803.3103-.5782.7075-.1989.1986-.4054.3899-.5968.5958-.4361.4692-.5056.5048-.5968.5958"/><path id="d" class="g" d="m23.1048,23.7021c-.1389-.1766-.733-1.0879-.5968-1.1915.1682-.128.466.1237.5968,0,.1084-.1025-.0696-.3004,0-.5958.0671-.2848.332-.5228.5968-.5958.3151-.0869.5353.0862.5968,0,.1183-.166-.7385-.7519-.5968-1.1915.0879-.2727.4795-.2393.5968-.5958.0788-.2395-.0758-.3218,0-.5958.0767-.277.3206-.5033.5968-.5958.0785-.0263.3412-.1143.5968,0,.3233.1445.273.451.5968.5958.182.0813.4148.0813.5968,0,.3231-.1444.2881-.4569.5968-.5958.2045-.092.3062.0064.5968,0,.6668-.0145,1.1573-.5547,1.1935-.5958.3005-.3402.1482-.4763.5968-1.1915.2395-.3819.3966-.5242.5968-.5958.0569-.0203.3316-.1185.5968,0,.3218.1439.2894.455.5968.5958.1592.0729.2628.0329.5968,0,.0425-.0042.4262-.0028,1.1935,0,1.137.0041,1.0864.0261,1.1936,0,.6032-.1472.5916-.4489,1.1935-.5958.4163-.1016.4074.046,1.1935,0,.7148-.0418,1.0591-.1836,1.1936,0,.0513.07.0125.1061,0,.5958-.0051.1995.1616.3874.1647.6206.0069.5312.0257.4976-.003.5709-.1238.3153-.2158.3925-.3606.7075-.054.1175-.0712.1633-.0497.6082.0316.6535.2123.505.2487,1.0674.0284.4398.0747.5281,0,.5958-.2007.1818-1.2969-.1571-1.5416-.6702-.2573-.5392-.0729-.9966-.2487-1.117-.2414-.1653-1.3327.6707-1.4919,1.2008-.0315.1049-.1696.2696.345.7354.5201.4708.7451.646.7926.6888.2891.2606.6016.6124.3544.9495-.3323.4527-.9641.1883-1.1936.5958-.2057.3653.2302.7058,0,1.1915-.0664.14-.2432.2919-.5968.5958-.3935.3381-.5398.3878-.5968.5958-.0762.2784.1102.4664,0,.5958-.1414.166-.5769.0074-.5968,0-.7698-.2881-.8009-1.1738-1.1935-1.1915-.4708-.0213-.729,1.238-1.1935,1.1915-.1043-.0104-.2684-.2055-.5968-.5958-.3158-.3754-.383-.5133-.5968-.5958-.2734-.1055-.5319-.022-.5968,0-.1077.0365-.3003.132-.5968.5958-.422.66-.2616.8313-.5968,1.1915-.2842.3054-.512.3032-.5968.5958-.018.0621-.012.24,0,.5958.0124.3657.0182.5496,0,.5958-.1244.3166-.4547.2804-.5968.5958-.0976.2166.0156.3284,0,.5958-.0359.616-.71,1.2797-1.1936,1.1915-.1922-.035-.327-.222-.5968-.5958-.2387-.3308-.4944-.6851-.5968-1.1915-.1102-.5451.0916-.6019,0-1.1915-.0464-.299-.1511-.9723-.5968-1.1915-.4276-.2103-.7432.2071-1.1935,0-.4192-.1928-.6106-.7682-.5968-1.1915.0147-.4523.2649-.7701.5968-1.1915.26-.3302.39-.4954.5967-.5958"/><path id="e" class="g" d="m35.0403,29.064c-.7043.3451-1.0408.2698-1.1935.5958-.1185.2529-.0235.5278,0,.5958.145.4194.552.579.5968.5958.5155.1927.799-.2112,1.1935,0,.301.1612.254.4595.5968.5958.1887.075.3562.0455.5968,0,.4134-.0782.9445-.1788,1.1936-.5958.1785-.2987.1179-.602,0-1.1915-.0915-.4577-.2118-1.0593-.5968-1.1915-.075-.0257-.0822-.007-.5968,0-.4364.0059-.4812-.007-.5968,0-.4566.0275-.5397.2754-1.1935.5958"/><path id="f" class="g" d="m5.5,12.6806h37v22.6388H5.5V12.6806"/></svg>