<?xml version="1.0" encoding="UTF-8"?><svg id="a" xmlns="http://www.w3.org/2000/svg" viewBox="0 0 48 48"><defs><style>.i{fill:none;stroke:#000;stroke-linecap:round;stroke-linejoin:round;}</style></defs><path id="b" class="i" d="M26.3036,24h15.2036c-.0509-1.5629-.3091-3.1122-.7679-4.6071h-14.4357v4.6071"/><path id="c" class="i" d="M21.6964,24H6.4929c.0509-1.5629.3091-3.1122.7679-4.6071h14.4357v4.6071"/><path id="d" class="i" d="M9.0268,14.7857h29.9464M13.25,10.1786h21.5M20.1607,6.7232v8.0625M27.8393,6.7232v8.0625"/><path id="e" class="i" d="M7.1071,28.6071h33.7857M17.8571,24v9.2143M30.1429,24v9.2143"/><path id="f" class="i" d="M21.6964,33.2143h-12.6696c2.7638,4.5264,7.4155,7.5711,12.6696,8.2928v-8.2928"/><path id="g" class="i" d="M26.3036,33.2143h12.6696c-2.7638,4.5264-7.4155,7.5711-12.6696,8.2928v-8.2928"/><path id="h" class="i" d="M2.5,24c-.0013,11.8741,9.6236,21.501,21.4977,21.5022,11.8741.0013,21.501-9.6236,21.5023-21.4977v-.0045c.0013-11.8741-9.6236-21.501-21.4977-21.5022-11.8741-.0013-21.501,9.6236-21.5023,21.4977,0,.0015,0,.003,0,.0045"/></svg>