<?xml version="1.0" encoding="UTF-8"?><svg id="a" xmlns="http://www.w3.org/2000/svg" viewBox="0 0 48 48"><defs><style>.b{fill:none;stroke:#000;stroke-linecap:round;stroke-linejoin:round;}</style></defs><path class="b" d="m4.5,35.8696c2.4163.6359,4.875,1.2717,9.75,1.2717,8.4783,0,11.0217-2.5435,19.5-2.5435,4.875,0,7.2913.6359,9.75,1.2717V12.1304c-2.4587-.6359-4.875-1.2717-9.75-1.2717-8.4783,0-11.0217,2.5435-19.5,2.5435-4.875,0-7.3337-.6359-9.75-1.2717v23.7391Z"/><path class="b" d="m43.5,29.9348c-2.4587-.6359-4.875-1.2717-9.75-1.2717-8.4783,0-11.0217,2.5435-19.5,2.5435-4.875,0-7.3337-.6359-9.75-1.2717"/><path class="b" d="m43.5,18.0652c-2.4587-.6359-4.875-1.2717-9.75-1.2717-8.4783,0-11.0217,2.5435-19.5,2.5435-4.875,0-7.3337-.6359-9.75-1.2717"/><path class="b" d="m43.5,24c-2.4587-.6359-4.875-1.2717-9.75-1.2717-8.4783,0-11.0217,2.5435-19.5,2.5435-4.875,0-7.3337-.6359-9.75-1.2717"/></svg>