<?xml version="1.0" encoding="UTF-8"?><svg id="b" xmlns="http://www.w3.org/2000/svg" viewBox="0 0 48 48"><defs><style>.e{fill:none;stroke:#000;stroke-linecap:round;stroke-linejoin:round;}</style></defs><path id="c" class="e" d="m36.3738,28.0318s-.0595-2.9708-2.4751-2.9307c0,0-2.4744-.0173-2.4744,2.792s-2.4751,2.792-2.4751,2.792c-2.415.0392-2.4744-2.9006-2.4744-2.9006,0-2.839-2.4744-2.8212-2.4744-2.8212-2.4158-.0399-2.4751,2.8906-2.4751,2.8906,0,2.8282-2.4751,2.8112-2.4751,2.8112-2.4158.0392-2.4751-2.9107-2.4751-2.9107,0-2.8482-2.4736-2.8313-2.4736-2.8313-2.4166-.0392-2.4751,2.9307-2.4751,2.9307"/><path id="d" class="e" d="m36.3738,20.4237s-.0595-2.9708-2.4751-2.9307c0,0-2.4744-.0173-2.4744,2.792s-2.4751,2.792-2.4751,2.792c-2.415.0392-2.4744-2.9006-2.4744-2.9006,0-2.839-2.4744-2.8212-2.4744-2.8212-2.4158-.0399-2.4751,2.8906-2.4751,2.8906,0,2.8282-2.4751,2.8112-2.4751,2.8112-2.4158.0392-2.4751-2.9107-2.4751-2.9107,0-2.8482-2.4736-2.8313-2.4736-2.8313-2.4166-.0392-2.4751,2.9307-2.4751,2.9307"/><rect class="e" x="5.5" y="5.5" width="37" height="37" rx="2" ry="2"/></svg>