<?xml version="1.0" encoding="UTF-8"?><svg id="a" xmlns="http://www.w3.org/2000/svg" viewBox="0 0 48 48"><defs><style>.p{fill:none;stroke:#000;stroke-linecap:round;stroke-linejoin:round;}</style></defs><path id="b" class="p" d="M24,10.9464v10.75"/><path id="c" class="p" d="M24,26.3036v10.75"/><path id="d" class="p" d="M17.8571,14.7857h12.2857"/><path id="e" class="p" d="M17.8571,17.8571h12.2857"/><path id="f" class="p" d="M17.8571,30.1429h12.2857"/><path id="g" class="p" d="M17.8571,33.2143h12.2857"/><path id="h" class="p" d="M17.8571,7.4911v14.2054h-7.525c.4746-2.921,1.8742-5.6125,3.9929-7.6786v4.3M17.8571,40.5089v-14.2054h-7.525c.4746,2.921,1.8742,5.6125,3.9929,7.6786v-4.3M30.1429,7.4911v14.2054h7.525c-.4746-2.921-1.8742-5.6125-3.9929-7.6786v4.3M30.1429,40.5089v-14.2054h7.525c-.4746,2.921-1.8742,5.6125-3.9929,7.6786v-4.3"/><path id="i" class="p" d="M17.8571,7.4911c-9.1176,3.4647-13.7002,13.6647-10.2355,22.7824,1.7927,4.7176,5.5179,8.4428,10.2355,10.2355M30.1429,7.4911c9.1176,3.4647,13.7002,13.6647,10.2355,22.7824-1.7927,4.7176-5.5179,8.4428-10.2355,10.2355"/><path id="j" class="p" d="M14.7857,21.6964v4.6071"/><path id="k" class="p" d="M33.2143,21.6964v4.6071"/><path id="l" class="p" d="M2.5,24c0,11.8741,9.6259,21.5,21.5,21.5s21.5-9.6259,21.5-21.5S35.8741,2.5,24,2.5,2.5,12.1259,2.5,24"/><path id="m" class="p" d="M21.6964,21.6964h4.6071v4.6071h-4.6071v-4.6071"/><path id="n" class="p" d="M21.6964,37.0536h4.6071v4.6071h-4.6071v-4.6071"/><path id="o" class="p" d="M21.6964,6.3393h4.6071v4.6071h-4.6071v-4.6071"/></svg>