<?xml version="1.0" encoding="UTF-8"?><svg id="b" xmlns="http://www.w3.org/2000/svg" viewBox="0 0 48 48"><defs><style>.d{fill:none;stroke:#000;stroke-linecap:round;stroke-linejoin:round;}</style></defs><path id="c" class="d" d="m10.9574,20.2629c-.0242.2756-.2466.4987-.5218.5281-3.3548.3578-5.9356,3.6594-5.9356,7.6784,0,4.2579,2.9539,7.7095,6.5978,7.7095h25.1535c4.0033,0,7.2487-3.6477,7.2487-8.1473,0-4.313-2.9817-7.8433-6.7545-8.1286-.2874-.0218-.5205-.2238-.5756-.5065-.8427-4.325-4.7296-7.5752-9.325-7.5752-2.9877,0-5.649,1.3526-7.3766,3.5041-.1678.209-.4487.3051-.6958.2012-.6659-.2798-1.3692-.4152-2.1564-.4152-2.9688,0-5.4057,2.2648-5.6586,5.1517"/></svg>