<?xml version="1.0" encoding="UTF-8"?><svg id="a" xmlns="http://www.w3.org/2000/svg" viewBox="0 0 48 48"><defs><style>.i{fill:none;stroke:#000;stroke-linecap:round;stroke-linejoin:round;}</style></defs><path id="b" class="i" d="M18.1176,17.3584c-.2309-.1653-.5138-.2627-.8194-.2627h-6.1465c-.7783,0-1.4092.6311-1.4092,1.4096v.6567"/><path id="c" class="i" d="M28.0313,20.2383c-.229-.4687-.7103-.7916-1.267-.7916h-6.1464c-.7783,0-1.4093.6311-1.4093,1.4096v.9816h-9.4662"/><path id="d" class="i" d="M38.0731,24.8017v-.8882c0-.7044-.6309-1.2755-1.4092-1.2755h-6.1465c-.7783,0-1.4092.5711-1.4092,1.2755v.8882H9.7425"/><path id="e" class="i" d="M5.5192,11.8854l.0092,15.9482h36.9716l-.0092-15.9482"/><path id="f" class="i" d="M5.5,6.7857h36.9908v5.0996H5.5v-5.0996"/><path id="g" class="i" d="M5.5284,27.8335h36.9716v13.3807H5.5284v-13.3807"/><path id="h" class="i" d="M18.5083,31.4932h11.1147v5.2777h-11.1147v-5.2777"/></svg>