<?xml version="1.0" encoding="UTF-8"?><svg id="a" xmlns="http://www.w3.org/2000/svg" viewBox="0 0 48 48"><path id="e" d="M40.0712,22.0405v-14.0179s0-4.8851-4.6019-1.0619" style="fill:none; stroke:#000; stroke-linecap:round; stroke-linejoin:round;"/><path id="f" d="M31.2214,7.9518c1.1328-1.4868,3.0443-1.9117,4.2479-.9912,1.2035.9205,1.2744,2.9027.1416,4.3894l-4.3895-3.3983" style="fill:none; stroke:#000; stroke-linecap:round; stroke-linejoin:round;"/><path id="g" d="M6.3005,22.0405v6.655c0,4.8851,3.8233,8.9205,8.4957,8.9205h18.4075c4.6727,0,8.4957-4.0354,8.4957-8.9205v-6.655c-11.7829.8891-23.6161.8891-35.399,0" style="fill:none; stroke:#000; stroke-linecap:round; stroke-linejoin:round;"/><path id="h" d="M13.3803,14.1112h0" style="fill:none; stroke:#000; stroke-linecap:round; stroke-linejoin:round;"/><path id="i" d="M13.9935,22.4004l-2.0292-2.6253c1.7194-1.2851,2.5433-3.4466,2.1157-5.5501" style="fill:none; stroke:#000; stroke-linecap:round; stroke-linejoin:round;"/><path id="j" d="M11.2733,22.3628c-1.9861-.8035-3.1751-3.0892-2.6964-5.1774.7211-2.3353,3.1956-3.6472,5.5332-2.9335,2.3855.5323,3.8908,2.894,3.3661,5.2811-.0575.2185-.1337.4317-.2277.6372" style="fill:none; stroke:#000; stroke-linecap:round; stroke-linejoin:round;"/><path id="k" d="M11.3108,36.8226l-1.8952,5.6784h2.4778l1.6699-4.9799" style="fill:none; stroke:#000; stroke-linecap:round; stroke-linejoin:round;"/><path id="l" d="M33.2038,37.6159l1.4867,4.814h2.4778l-1.4332-5.2226" style="fill:none; stroke:#000; stroke-linecap:round; stroke-linejoin:round;"/></svg>