<?xml version="1.0" encoding="UTF-8"?><svg id="b" xmlns="http://www.w3.org/2000/svg" viewBox="0 0 48 48"><defs><style>.k{fill:none;stroke:#000;stroke-linecap:round;stroke-linejoin:round;}</style></defs><path id="c" class="k" d="M32.806,26.96c-3.3566-4.1958-8.806-4.2062-8.806-4.2062,0,0-5.4494.0103-8.806,4.2062"/><path id="d" class="k" d="M26.59,25.924l4.144,8.288s0,1.036-1.036,1.036-4.144-3.108-4.144-3.108h-2.072,1.036-2.072s-3.108,3.108-4.144,3.108-1.036-1.036-1.036-1.036l4.144-8.288"/><path id="e" class="k" d="M22.446,32.14l-2.072-2.072v-2.072h7.252v2.072l-2.072,2.072h-3.108"/><path id="f" class="k" d="M20.892,17.34c-.0007,1.7165,1.3903,3.1085,3.1068,3.1092,1.7165.0007,3.1085-1.3903,3.1092-3.1068v-.0024c.0007-1.7165-1.3903-3.1085-3.1068-3.1092-1.7165-.0007-3.1085,1.3903-3.1092,3.1068v.0024"/><path id="g" class="k" d="M25.6077,22.924l.9823,3"/><path id="h" class="k" d="M22.279,22.9442l-.869,2.9798"/><path id="i" class="k" d="M24.646,20.3801l.5804,2.4832"/><path id="j" class="k" d="M22.8514,22.5456l.5835-2.1494"/><path class="k" d="M38.5,5.5H9.5c-2.2091,0-4,1.7909-4,4v29c0,2.2091,1.7909,4,4,4h29c2.2091,0,4-1.7909,4-4V9.5c0-2.2091-1.7909-4-4-4Z"/></svg>