<svg xmlns="http://www.w3.org/2000/svg" viewBox="0 0 48 48"><defs><style>.a{fill:none;stroke:#000;stroke-linecap:round;stroke-linejoin:round;}</style></defs><path class="a" d="M5,22.4211a15.9487,15.9487,0,0,0,.5687,2.5014,10.1053,10.1053,0,0,1-.1026,4.2993m1.7783-10.846c.0105,1.7-.0782,4.8563-.0367,5.9507.03.7943.6117,1.4949.7788,2.8629a19.4385,19.4385,0,0,1-.4417,5.6868m2.6089-19.4446c.2755,1.7295,1.3582,8.7061,1.0748,9.8689-.3195,1.3875.426,2.8043.7817,5.6184.3049,2.4037-.2267,6.2535-2.0031,8.3934m2.16-27.4569c1.1236,2.12,3.5371,7.0645,2.7945,9.351a5.5333,5.5333,0,0,0,.64,5.4034c.64,1.0651.3557,4.8661-.0356,5.6184-.3908.7465.2131,3.4786-.3195,4.6218-.5,1.065-.0391,4.2211-2.989,5.6673M13.5654,7.266a30.2166,30.2166,0,0,1,4.27,7.8756c2.0617,5.53-1.2019,5.55.4016,7.0841,1.6122,1.534,3.3515,4.8953,3.3515,5.6868.0131,1.7588-2.7653,1.5047-2.3646,2.3646a1.9413,1.9413,0,0,1-.7387,2.4525c-.8042.4016,1.1041.3518,0,1.71s1.0064,2.8141-.854,4.9247c-1.8566,2.1105-5.3742,1.153-5.3742,1.153"/><path class="a" d="M43,22.4211a15.9487,15.9487,0,0,1-.5687,2.5014,10.1053,10.1053,0,0,0,.1026,4.2993m-1.7783-10.846c-.0105,1.7.0783,4.8563.0367,5.9507-.03.7943-.6117,1.4949-.7788,2.8629a19.442,19.442,0,0,0,.4417,5.6868M37.8463,13.4316c-.2755,1.7295-1.3582,8.7061-1.0748,9.8689.3195,1.3875-.426,2.8043-.7817,5.6184-.3049,2.4037.2267,6.2535,2.0031,8.3934M35.8335,9.8554c-1.1237,2.12-3.5372,7.0645-2.7946,9.351a5.5333,5.5333,0,0,1-.64,5.4034c-.64,1.0651-.3557,4.8661.0356,5.6184.3908.7465-.213,3.4786.3195,4.6218.5,1.065.0391,4.2211,2.989,5.6673M34.4346,7.266a30.2166,30.2166,0,0,0-4.27,7.8756c-2.0617,5.53,1.2019,5.55-.4016,7.0841-1.6122,1.534-3.3515,4.8953-3.3515,5.6868-.0131,1.7588,2.7653,1.5047,2.3646,2.3646a1.9413,1.9413,0,0,0,.7387,2.4525c.8042.4016-1.1041.3518,0,1.71s-1.0064,2.8141.854,4.9247c1.8566,2.1105,5.3742,1.153,5.3742,1.153"/></svg>