<?xml version="1.0" encoding="UTF-8"?><svg id="a" xmlns="http://www.w3.org/2000/svg" viewBox="0 0 48 48"><defs><style>.b{fill:none;stroke:#000;stroke-linecap:round;stroke-linejoin:round;}</style></defs><path class="b" d="M38.5001,5.5H9.5001c-2.2091,0-4,1.7909-4,4v29c0,2.2091,1.7909,4,4,4h29c2.2091,0,4-1.7909,4-4V9.5c0-2.2091-1.7909-4-4-4Z"/><path class="b" d="M19.3652,16.0328l15.3907-6.5328c1.1959,2.8174-.3587,5.4975-3.2076,6.7067l-15.3907,6.5328c-1.1954-2.8162.382-5.5073,3.2076-6.7067Z"/><path class="b" d="M14.6621,26.2308l15.3907-6.5328c1.1959,2.8174-.3587,5.4974-3.2076,6.7067l-15.3907,6.5328c-1.1954-2.8162.382-5.5073,3.2076-6.7067Z"/><path class="b" d="M21.1517,31.7933l15.3907-6.5328c1.1959,2.8174-.3587,5.4974-3.2076,6.7067l-15.3907,6.5328c-1.1954-2.8162.382-5.5073,3.2076-6.7067Z"/></svg>