<svg xmlns="http://www.w3.org/2000/svg" viewBox="0 0 48 48"><defs><style>.a{fill:none;stroke:#000;stroke-linecap:round;stroke-linejoin:round;}</style></defs><path class="a" d="M25.3959,24.4424c-1.9732.4136-3.9551.8186-5.17,0-1.2064-.81-1.6372-2.8436-1.5079-4.3085a8.8676,8.8676,0,0,1,1.0857-3.0159c.25-.6635.0689-1.1116.2068-1.5079a3.0436,3.0436,0,0,1,1.0771-1.0772"/><path class="a" d="M7.0937,15.3946a19.9426,19.9426,0,0,1-.4395-3.8776,2.0036,2.0036,0,0,1,.6463-1.2925c.1809-.2671.1379-.629.4394-.8617.293-.224.9479-.3188,1.3357-.5945s.5256-.7325,1.1374-1.0168a5.5583,5.5583,0,0,1,2.4817-.3275c.7669.0862,1.2063.3533,1.551.3447.3533,0,.5946-.2844.8272-.25.2241.0345.4222.3964.8445.5515a10.5319,10.5319,0,0,1,1.4218.31c.3446.1982.4049.6635.6893.8444.2844.19.8014.1034,1.12.3533a1.6185,1.6185,0,0,1,.4308,1.2926,7.1113,7.1113,0,0,1-.2757,1.0254c-.0431.31.0862.6462.06.9134a2,2,0,0,1-.2585.6807c-.0775.2068-.0775.4136-.1723.6118a2.1426,2.1426,0,0,1-.4653.5773"/><path class="a" d="M9.0239,19.0568a6.63,6.63,0,0,0,.87,2.37,5.9194,5.9194,0,0,0,1.9388,1.508,16.3185,16.3185,0,0,0,1.9388,1.0771.9992.9992,0,0,0,.853,0,2.0633,2.0633,0,0,0,1.0771-.4308,6.36,6.36,0,0,0,1.0772-1.7234,13.1737,13.1737,0,0,0,1.0857-2.37,16.4042,16.4042,0,0,0,.2154-1.9388A16.8306,16.8306,0,0,0,18.511,15.61a17.1058,17.1058,0,0,0-.2154-3.016,1.0632,1.0632,0,0,1-1.0857.4309,15.9128,15.9128,0,0,1-2.37-.8617,4.41,4.41,0,0,0-2.3352-.405,1.5191,1.5191,0,0,0-1.12.8186c-.0172.19.4136.0689.4136.2844a2.1111,2.1111,0,0,1-.8445,1.0168c-.4049.25-.7669.19-.9133.6893a18.323,18.323,0,0,0-.1465,2.12c-.0776.5773-.3016.6807-.517.7841"/><path class="a" d="M35.5208,20.5648a3.7766,3.7766,0,0,0,1.732,2.1542,6.8976,6.8976,0,0,0,3.6535.6462,1.37,1.37,0,0,0,1.3012-1.2925c.0775-.5687.0086-1.1633.0689-1.7923a11.1568,11.1568,0,0,0,.181-1.8785,8.5577,8.5577,0,0,0-.4826-1.5424c-.1292-.4653-.0948-.9048-.2068-1.3184a4.6909,4.6909,0,0,0-.6463-1.2236c-.2757-.4308-.5687-.9134-1.0685-.8617a6.5241,6.5241,0,0,0-1.6372.879c-.4136.2154-.5514.043-.922.1292A2.1955,2.1955,0,0,0,36.167,15.61c-.3446.7065-.4308,1.775-.6376,2.1542-.2154.3877-.5429.0861-.87-.2154"/><path class="a" d="M33.694,19.0482a23.8876,23.8876,0,0,1-1.0771-2.1542,4.5874,4.5874,0,0,1-.4309-2.5851,4.102,4.102,0,0,1,1.7234-2.8,7.6459,7.6459,0,0,1,3.7742-.6376,3.5935,3.5935,0,0,1,3.6536,1.0771.7914.7914,0,0,1,.2154.8617c1.0857.6462.87,1.5079.224,2.8"/><path class="a" d="M24.5429,35.6443c-5.1788,3.2313-8.6255.8617-4.1017-7.9706a1.3845,1.3845,0,0,0-1.5079.6463,27.0483,27.0483,0,0,0-1.2926,3.2313,7.0063,7.0063,0,0,1-1.5079,2.37,8.73,8.73,0,0,0-1.7148,2.1542,4.0373,4.0373,0,0,0-.0086,2.37"/><path class="a" d="M25.6114,36.506c-.6463.6463-.2155,2.5851-1.7234,4.093"/><path class="a" d="M33.2631,25.5109a2.7812,2.7812,0,0,1,3.2314,1.0771,5.5843,5.5843,0,0,1,2.37,1.7233A17.8123,17.8123,0,0,1,40.7,32.1975c1.2839-2.8,1.2925-5.6009-.4394-6.678a8.991,8.991,0,0,1,3.24,2.1542"/><path class="a" d="M31.2123,28.32c4.7393,2.37.2154,7.54-1.9388,11.8482"/><path class="a" d="M23.4571,14.3175a3.4544,3.4544,0,0,1,1.9475,1.7234,6.0418,6.0418,0,0,1,.2154,3.6622c-.3361,1.06-1.1116,1.551-.922,2.3093.1895.75,1.3442,1.7578,1.3528,2.43,0,.6807-1.146,1.034-1.5252,2.1025-.37,1.0685.0086,2.8435-.2068,4.1447-.2068,1.31-1.0254,2.1284-1.0771,2.8-.0431.6721.6807,1.1977,1.0771,1.5079.405.3189.4912.4309.4309.6463a3.7885,3.7885,0,0,1-.4309.8617q1.2925,1.0772,1.9388-1.2925,2.37-.2156,2.8-4.7393,1.9475.2154,2.1628-2.5851c.6118-.56,1.2236-1.1288,1.2926-1.7234.06-.5859-.4309-1.1977-.44-1.7233,0-.5171.4739-.9479.4309-1.508-.0345-.5515-.6032-1.2322-.6377-1.7234-.0431-.4825.4395-.7755.4222-1.2925a7.0661,7.0661,0,0,0-.6807-1.6975c-.1637-.4481.0431-.6032.0345-1.3184a6.7824,6.7824,0,0,0-.75-2.9384,5.0749,5.0749,0,0,0-2.3352-2.0594,6.4012,6.4012,0,0,0-2.5075-.6032,8.8874,8.8874,0,0,0-1.2925.2154c-.3275.0259-.6463-.1292-1.215-.112a5.3964,5.3964,0,0,0-2.0163.5429A2.6384,2.6384,0,0,0,20.2,13.2318a2.6035,2.6035,0,0,0,.0344,1.5166"/><path class="a" d="M20.01,36.9368a3.849,3.849,0,0,1,2.37-2.37"/><path class="a" d="M4.5,25.52a5.3625,5.3625,0,0,1,2.3783-1.2926q2.1456,5.3856,5.5923,4.9547,1.7234,3.2314,1.4046,4.3a6.501,6.501,0,0,0,.6462-4.5239q2.0422-1.93.1034-3.869a10.7261,10.7261,0,0,1,3.24,1.9388"/><path class="a" d="M13.1255,20.3493a2.9488,2.9488,0,0,0,2.5764.4309"/><path class="a" d="M20.01,21.8573a2.7968,2.7968,0,0,0,2.37.8617"/><path class="a" d="M39.7258,20.9956a1.577,1.577,0,0,1,1.508-.4308"/></svg>