<?xml version="1.0" encoding="UTF-8"?><svg id="a" xmlns="http://www.w3.org/2000/svg" viewBox="0 0 48 48"><defs><style>.b{fill:none;stroke:#000;stroke-linecap:round;stroke-linejoin:round;}</style></defs><path class="b" d="m40.5,5.5H7.5c-1.1046,0-2,.8954-2,2v33c0,1.1046.8954,2,2,2h33c1.1046,0,2-.8954,2-2V7.5c0-1.1046-.8954-2-2-2Z"/><path class="b" d="m28.166,27.4286c.5714.4286,1.1429.5714,2.2857.5714h.5714c1,0,1.8571-.8571,1.8571-1.8571h0c0-1-.8572-1.8571-1.8571-1.8571h-1.2857c-1,0-1.8571-.8571-1.8571-1.8571h0c0-1,.8572-1.8571,1.8571-1.8571h.5714c1.2857,0,1.8571.1429,2.2857.5714"/><path class="b" d="m23.9254,18v8.5714c0,.8571.5714,1.4286,1.4286,1.4286h.4286"/><line class="b" x1="22.354" y1="20.2857" x2="25.4969" y2="20.2857"/><path class="b" d="m20.4054,26.5714c-.4286.8571-1.4286,1.4286-2.4286,1.4286h0c-1.5714,0-2.8571-1.2857-2.8571-2.8571v-1.8571c0-1.5714,1.2857-2.8571,2.8571-2.8571h0c1.5714,0,2.8571,1.2857,2.8571,2.8571v1h-5.7143"/></svg>