<?xml version="1.0" encoding="UTF-8"?><svg id="a" xmlns="http://www.w3.org/2000/svg" viewBox="0 0 48 48"><defs><style>.b{fill:none;stroke:#000;stroke-linecap:round;stroke-linejoin:round;}</style></defs><path class="b" d="M31.9429,36.6827c-6.0967-.4763-9.2185-2.7456-10.5705-5.081-.7049-1.2294-.8963-2.6872-.5325-4.0568,.3608-1.3726,1.2626-2.5403,2.4993-3.2365,1.2291-.7047,2.6866-.896,4.056-.5325,1.3726,.3608,2.5403,1.2626,3.2365,2.4993,1.2297,2.09,1.758,4.9038,1.3112,10.4075m-5.4088,5.8173c-8.8907,0-18.3963-10.9807-20.6502-16.798-.7779-1.9668-.6964-3.4012,.2463-4.2615,1.6798-1.5159,3.5235,.451,5.2441,2.2123,.451,.4917,1.1473,1.1881,1.6798,1.5983-.4093-1.0658-1.352-2.7456-1.9668-3.8513-2.0484-3.6466-3.9736-7.0886-1.5567-8.4814,2.2539-1.3112,4.3838,1.4743,6.4738,4.1791,.4917,.6556,1.1473,1.4743,1.7206,2.09-.4093-1.1881-1.1881-2.9503-1.8029-4.2207-1.9252-4.1791-3.605-7.7841-1.3928-9.0954,.5732-.3278,1.2288-.451,1.9252-.2454,1.9261,.4908,3.4827,3.1133,5.6959,7.0054,.5325,.9427,1.2288,2.1715,1.8437,3.0734-.0862-.7271-.1955-1.4513-.3278-2.1715-.5741-3.5235-1.1473-7.0886,1.1881-7.9073,2.7049-.9435,4.3439,3.5226,6.5969,9.7917,.9427,2.5808,2.4586,6.8016,3.4004,7.9073,.3694-.614,.8195-2.0484,.9834-2.991,.3278-1.9252,.6556-3.5643,1.9252-4.1375,.9843-.451,2.4178-.287,3.4836,1.5159,2.1715,3.6466,2.3762,13.3569-3.4827,17.6175-1.5983,1.1473-3.8513,1.5159-5.8182,1.3529-.4093,2.253-1.5159,5.8173-5.408,5.8173"/></svg>