<svg id="Layer_2" data-name="Layer 2" xmlns="http://www.w3.org/2000/svg" viewBox="0 0 48 48"><defs><style>.cls-1{fill:none;stroke:#000;stroke-linecap:round;stroke-linejoin:round;}</style></defs><path class="cls-1" d="M24,2.51A21.5,21.5,0,0,0,11.39,41.43c.44-10,.83-20,3-29.12,1.23.75,2.35,2.25,3.79,2.63a7.44,7.44,0,0,1,.53-2.53c1.77,1.1,4.26,3.56,6,3.25a22.57,22.57,0,0,1,10.37.44c1.38,8.72-2.62,12.65-7.49,15.82,4.68.67,8.43,3.5,11.89,7A21.5,21.5,0,0,0,24,2.51Zm.34,17.43a2.24,2.24,0,1,0,2.27,2.23,2.23,2.23,0,0,0-2.27-2.23Zm0,0"/></svg>