<?xml version="1.0" encoding="UTF-8"?><svg id="a" xmlns="http://www.w3.org/2000/svg" viewBox="0 0 48 48"><defs><style>.b{stroke-width:1px;}.b,.c,.d{fill:none;stroke:#000;stroke-linejoin:round;}.c{stroke-width:1px;}.c,.d{stroke-linecap:round;}.e{fill:#000;stroke-width:0px;}</style></defs><circle class="d" cx="24" cy="24" r="21.5"/><path class="d" d="m3.1438,28.4701c2.4475-8.2513,11.0285-14.0193,20.8563-14.0192,9.8309,0,18.4137,5.7715,20.8583,14.0262"/><path class="d" d="m13.5619,16.7921c-1.7455-3.6656-1.2274-7.0253,1.656-10.3945-5.7009,2.86-8.5726,7.9362-6.484,13.5555"/><path class="d" d="m39.9354,16.7902c-.0506,1.0263-.2687,2.0843-.6694,3.1625"/><path class="d" d="m34.4381,16.7921c1.7455-3.6656,1.2274-7.0253-1.656-10.3945,4.6072,2.3113,7.3667,6.0701,7.1535,10.3936"/><path class="b" d="m21.0966,26.6121c-1.932.4076-3.9419,1.1276-5.8347.9563-1.7344-.157-2.7572-3.5487-3.2034-4.1653,3.5091-.377,6.7825,1.194,9.0377,3.209h.0003Zm5.8077,0c1.932.4076,3.9419,1.1276,5.8347.9563,1.7344-.157,2.7572-3.5487,3.2034-4.1653-3.5091-.377-6.7825,1.194-9.0377,3.209h-.0003Z"/><circle class="e" cx="23.991" cy="40.2658" r=".75"/><line class="c" x1="23.991" y1="34.119" x2="23.991" y2="38.3855"/><circle class="c" cx="32.3195" cy="35.2037" r="1.0847"/><circle class="c" cx="35.2121" cy="38.8194" r="1.0847"/><line class="c" x1="31.8856" y1="39.9041" x2="35.646" y2="34.119"/><path class="c" d="m16.6905,39.9041h-.5062c-.2893,0-.6508-.1446-.7955-.4339l-2.0248-2.7479c-.2893-.3616-.7231-.7955-.7231-1.4463s.5062-1.157,1.2293-1.157c.6508,0,1.157.5062,1.157,1.157s-.5062,1.2293-1.5186,1.4463c-1.0847.2169-1.8078.7955-1.8078,1.8078,0,.7955.5062,1.374,1.5186,1.374,1.3017,0,2.0971-1.3017,3.2541-2.8202"/><line class="c" x1="26.4536" y1="39.9041" x2="27.4659" y2="34.4806"/><line class="c" x1="28.3337" y1="39.9041" x2="29.3461" y2="34.4806"/><line class="c" x1="26.0197" y1="38.3132" x2="29.4184" y2="38.3132"/><line class="c" x1="26.3812" y1="35.9992" x2="29.78" y2="35.9992"/><path class="c" d="m18.1989,39.2534c.3616.4339.7955.6508,1.4463.6508h.8678c.7955,0,1.4463-.6508,1.4463-1.4463s-.6508-1.4463-1.4463-1.4463h-.9401c-.7955,0-1.4463-.6508-1.4463-1.4463s.6508-1.4463,1.4463-1.4463h.8678c.6508,0,1.0847.1446,1.4463.6508"/><line class="c" x1="20.0068" y1="34.1191" x2="20.0068" y2="33.396"/><line class="c" x1="20.0068" y1="40.6273" x2="20.0068" y2="39.9042"/><path class="d" d="m3.726,31.1574h40.5479"/></svg>