<?xml version="1.0" encoding="UTF-8"?><svg id="b" xmlns="http://www.w3.org/2000/svg" viewBox="0 0 48 48"><defs><style>.c{fill:none;stroke:#000;stroke-linecap:round;stroke-linejoin:round;}</style></defs><g><path class="c" d="m14,5.5h-6.5c-1.1045,0-2,.8954-2,2v6.5"/><path class="c" d="m42.5,14v-6.5c0-1.1046-.8955-2-2-2h-6.5"/><path class="c" d="m34,42.5h6.5c1.1045,0,2-.8954,2-2v-6.5"/><path class="c" d="m5.5,34v6.5c0,1.1046.8955,2,2,2h6.5"/></g><g><g><line class="c" x1="16.2812" y1="20.0625" x2="16.2812" y2="16.5"/><line class="c" x1="31.7188" y1="20.0625" x2="31.7188" y2="16.5"/><path class="c" d="m21.625,28.375h1.1875c1.3117,0,2.375-1.0633,2.375-2.375v-9.5"/></g><path class="c" d="m31.125,32.273c-1.9362,2.5662-4.8917,3.227-7.125,3.227-2.2333,0-5.1888-.6608-7.125-3.227"/></g></svg>