<?xml version="1.0" encoding="UTF-8"?><svg id="b" xmlns="http://www.w3.org/2000/svg" viewBox="0 0 48 48"><defs><style>.d{fill:none;stroke:#000;stroke-linecap:round;stroke-linejoin:round;}</style></defs><path id="c" class="d" d="m32.1585,27.2483c1.0878.6679,1.3668,1.0718,1.7587,1.5528m-1.6937-4.1724c1.5278,1.1458,2.2187,1.9247,3.2335,3.7644m-2.8116-6.316c1.4988.9109,3.8094,3.4565,4.6903,5.9511m-25.807,3.7494c3.6454,1.8837,8.0008,1.4898,13.032-.8089l1.6367,1.2758c-6.271,3.8764-10.2434,4.5063-15.1456.5179l.4769-.9848Zm11.5502-8.8696c1.9647-.3599,3.1045-.025,3.6254,1.8017m-12.1341-1.4958c0,1.0525-.4378,1.9057-.9778,1.9057-.5397-.0011-.9768-.854-.9768-1.9057.0003-1.0513.4374-1.9036.9768-1.9047.5399,0,.9776.8526.9778,1.9047Zm.093-5.5401c-.093-.097-1.3848.4799-1.7237,1.0428m12.4151-.8799c1.1278.302,1.7097,1.3358,2.0027,1.9177m-10.0884,9.5325c-.4579-.7079-.8379-.9818-1.2398-2.1037,1.0898-1.4868,2.2566-2.5216,3.1685-5.0422m-9.3775-6.694c-2.5016.7899-.8859,3.9974.07,5.3772m2.1197-3.7354c-6.9839,9.5025-4.2623,25.0321,8.0158,26.3539,6.191.6659,11.2542-4.6143,13.4409-8.6017,3.5694.4279,5.8321-3.9574,2.7946-6.118.5199.132,1.0668-.26,1.6767-1.8517,3.2815-5.6851,2.0417-12.938-2.8726-15.8235-1.7147-3.7714-3.4595-4.4153-6.243-4.5563-3.7294-3.9774-5.3262-1.2548-6.8439,1.7197-1.8177-1.0178-4.8922-.9499-5.5791.3719-1.5018,3.4565-7.3908,3.4625-4.1394-.8449-3.0975,1.9987-5.3372,4.6133-1.7167,8.4037,4.2073,4.4043,5.0022-7.7608,10.5754-2.4066,2.2666-1.1468,4.7703-3.5664,7.4058,1.5908,6.229-3.5115,9.5625,2.1397,4.5193,4.4583,3.7514,2.0367,4.2033,4.5793,4.8942,7.0869"/></svg>