<?xml version="1.0" encoding="UTF-8"?><svg id="b" xmlns="http://www.w3.org/2000/svg" viewBox="0 0 48 48"><defs><style>.c{fill:none;stroke:#000;stroke-linecap:round;stroke-linejoin:round;}</style></defs><path class="c" d="m36.92,35.46l-7.45,7.45c-.38.38-.88.59-1.41.59h-8.2c-.53,0-1.04-.21-1.41-.59l-7.44-7.44c-.38-.38-.59-.88-.59-1.41V15.89l6.56,6.56V4.5l20.02,20.02c.38.38.59.9.59,1.43l-.07,8.12c0,.52-.21,1.03-.59,1.4Z"/><path class="c" d="m24.71,38.14l6.05-6.05v-3.82s-3.17-3.17-3.17-3.17l-3.59,3.59-3.59-3.59-3.17,3.17v3.82l6.05,6.05c.39.39,1.02.39,1.41,0Z"/></svg>