<?xml version="1.0" encoding="UTF-8"?><svg id="b" xmlns="http://www.w3.org/2000/svg" viewBox="0 0 48 48"><defs><style>.c{fill:none;stroke:#000;stroke-linecap:round;stroke-linejoin:round;}</style></defs><path class="c" d="m15.5106,18.573h-7.8706c-1.1476,0-2.0778.9302-2.0779,2.0778v19.7714c0,1.1476.9303,2.0778,2.0779,2.0778h32.72c1.1476,0,2.0778-.9302,2.0779-2.0778v-19.7714c0-1.1476-.9303-2.0778-2.0779-2.0778h-7.8706"/><path class="c" d="m14.5204,35.7634h19.2029c.2324,0,.4208.1884.4208.4208v2.4854c0,.2324-.1884.4208-.4208.4208H14.5204c-.2324,0-.4208-.1884-.4208-.4208v-2.4854c0-.2324.1884-.4208.4208-.4208Z"/><path class="c" d="m11.1541,29.78h2.5247c.2324,0,.4208.1884.4208.4208v2.5247c0,.2324-.1884.4208-.4208.4208h-2.5247c-.2324,0-.4208-.1884-.4208-.4208v-2.5247c0-.2324.1884-.4208.4208-.4208Z"/><path class="c" d="m17.0068,29.78h2.5247c.2324,0,.4208.1884.4208.4208v2.5247c0,.2324-.1884.4208-.4208.4208h-2.5247c-.2324,0-.4208-.1884-.4208-.4208v-2.5247c0-.2324.1884-.4208.4208-.4208Z"/><path class="c" d="m28.7123,29.78h2.5247c.2324,0,.4208.1884.4208.4208v2.5247c0,.2324-.1884.4208-.4208.4208h-2.5247c-.2324,0-.4208-.1884-.4208-.4208v-2.5247c0-.2324.1884-.4208.4208-.4208Z"/><path class="c" d="m34.565,29.78h2.5247c.2324,0,.4208.1884.4208.4208v2.5247c0,.2324-.1884.4208-.4208.4208h-2.5247c-.2324,0-.4208-.1884-.4208-.4208v-2.5247c0-.2324.1884-.4208.4208-.4208Z"/><path class="c" d="m11.1541,23.7965h2.5247c.2324,0,.4208.1884.4208.4208v2.5247c0,.2324-.1884.4208-.4208.4208h-2.5247c-.2324,0-.4208-.1884-.4208-.4208v-2.5247c0-.2324.1884-.4208.4208-.4208Z"/><path class="c" d="m34.565,23.7965h2.5247c.2324,0,.4208.1884.4208.4208v2.5247c0,.2324-.1884.4208-.4208.4208h-2.5247c-.2324,0-.4208-.1884-.4208-.4208v-2.5247c0-.2324.1884-.4208.4208-.4208Z"/><path class="c" d="m19.8844,26.9713c-.0751.1153-.2051.1915-.3529.1915h-2.5247c-.2324,0-.4208-.1884-.4208-.4208v-2.5247c0-.0831.0241-.1606.0657-.2258"/><path class="c" d="m31.3989,23.8288c.1521.0634.2589.2135.2589.3885v2.5247c0,.2324-.1884.4208-.4208.4208h-2.5247c-.2264,0-.4111-.1788-.4204-.403"/><path class="c" d="m22.8596,29.78h2.5247c.2324,0,.4208.1884.4208.4208v2.5247c0,.2324-.1884.4208-.4208.4208h-2.5247c-.2324,0-.4208-.1884-.4208-.4208v-2.5247c0-.2324.1884-.4208.4208-.4208Z"/><path class="c" d="m24,28.8723h0c-2.4894,0-8.4894-4.8723-8.4894-7.1915V5.5h16.9787v16.1809c0,2.1156-6.0638,7.1915-8.4894,7.1915Z"/><line class="c" x1="22.4894" y1="10.4587" x2="17.5176" y2="12.7386"/><line class="c" x1="30.5106" y1="12.7516" x2="25.5106" y2="10.4587"/><polygon class="c" points="25.0731 24.1277 22.9269 24.1277 21.1011 19.9043 26.9096 19.9043 25.0731 24.1277"/></svg>