<?xml version="1.0" encoding="UTF-8"?><svg id="a" xmlns="http://www.w3.org/2000/svg" viewBox="0 0 48 48"><defs><style>.cm{fill:none;stroke:#000;stroke-linecap:round;stroke-linejoin:round;}</style></defs><g id="b"><g id="c"><path id="d" class="cm" d="M39.99385047,30.81598963c-.53526306.2646904-1.1837616.04536057-1.44845581-.48989868-.26469421-.53525352-.04536057-1.18373871.48991013-1.4484272.53526688-.2646904,1.1837616-.04534912,1.44845581.48990059.26469421.53525352.04534912,1.1837368-.48991013,1.44842529Z"/><path id="e" class="cm" d="M32.92113471,26.07415499c1.87826157.85174179,3.58392334,1.00495529,3.96388626,1.81915283.43854141.93973351-.83563995.90961838-.86568069,1.73767662-.01742172.4802475.41749954,1.29176903,1.20969772,1.37174034-.41732025.67808151-.03639984,1.51630974.35582733,1.79398155.67629623.47877121,1.42581558-.55207062,1.90642166.36685944.41640472.79617691-.4971962,2.24462509-.9604454,4.25425339"/><path id="f" class="cm" d="M35.34378409,28.24647441l-1.49066925-.47974014"/><path id="g" class="cm" d="M34.82748389,29.34881129l-.22833252-.07348061"/><path id="h" class="cm" d="M38.27507377,34.17398371l-.52360535,1.47580338"/><path id="i" class="cm" d="M37.0856359,33.91513743l-.0802002.22605515"/></g><g id="j"><path id="k" class="cm" d="M38.46039939,30.38075175l-3.10743713,1.54970551-1.4526329.71833038-17.6372509,8.72168732"/><path id="l" class="cm" d="M33.11780143,30.62553706c-1.49645996-2.66113472-4.49002838-.13571739-3.22662544,3.96846771.87918282,2.85604858-2.15403366,4.73847198-4.90696335,2.55036545-1.9035778-1.51301956-4.49471855-.21458435-4.42564583,2.05121994.09115982,2.99017334-1.62275314,3.65530396-3.04441261,3.15353394"/><path id="m" class="cm" d="M35.03321052,34.49878611c1.20644379,2.80454636-2.61766052,3.65049362-5.11237526.15520096-1.73603821-2.43232727-5.07322121-1.16456985-5.00539017,2.3513298.0468998,2.43115234-2.55783081,3.70209503-4.3165493,2.2718277-2.32097626-1.88751984-3.88992882-.92926407-4.35413551.50507355"/></g></g><g id="n"><path id="o" class="cm" d="M23.99999785,33.42032923c-.00160027-.8320961.61349869-1.50451469,1.30653381-1.50577164l2.09158325-.00370026c.56081009,0,1.01229477-.45147705,1.01229477-1.0122757h0v-9.50539398h-8.82082558v9.50539398c0,.56079865.45148659,1.0122757,1.01229477,1.0122757l2.09158707.00370026c.69303513.00119972,1.30813599.67367554,1.30653191,1.50577164Z"/><g id="p"><g id="q"><path id="r" class="cm" d="M18.26884818,23.14210047c-.14511108.0490303-.28809929.08727074-.42397118.11012459-.54348755.09140968-.97311974-.06339073-.96941376-.75889397.0053997-1.01657295.15792465-1.79309273.24165916-2.682827l-2.46505547-2.50624084"/><path id="s" class="cm" d="M13.77783275,16.95918383c-.42562866-.43000221-.80042553-1.00635815-1.08890343-1.70258331"/><path id="t" class="cm" d="M6.5162394,18.54279055c.25889683,1.03188133,1.0396347,1.72488594,1.75837469,1.92940521"/><path id="u" class="cm" d="M6.91605878,16.31059184c.07961798.80023575.35557508,1.68047714,1.30398893,2.27314758"/><path id="v" class="cm" d="M7.74843574,13.44608607c-.42838287.84849739-.56497765,1.83835506.9594059,3.23205948"/><path id="w" class="cm" d="M11.85234141,14.71163096c-.93262577-1.15825653-1.84536743-2.6039753-2.53856564-4.08888149-.84220123.92451-1.78727102,1.7841444,1.00513363,5.0008688"/><path id="x" class="cm" d="M6.61922956,20.75340953c.29491043.75344658.84040976,1.34325218,1.9207387,1.58379555"/><path id="y" class="cm" d="M6.98146844,23.1245605c.42093372.57781601,1.30819559.88459969,2.22196531.82074547"/><path id="z" class="cm" d="M7.66107106,25.04447474c.66029406.51275635,2.03863478.35205078,2.64879084-.04879951"/><path id="aa" class="cm" d="M8.78742766,26.88385691c1.11965561.19212532,2.04748058-.12906265,2.81604862-.8764019"/><path id="ab" class="cm" d="M13.27737498,26.30474772l-.77915001,1.00587082"/><path id="ac" class="cm" d="M14.5153234,27.19135775l-.66518021,1.16606331"/><path id="ad" class="cm" d="M14.98055911,29.63897433c.38667297-.48102188.65173626-1.20003319.89975071-1.85281372"/><path id="ae" class="cm" d="M17.39315581,28.76616969c.12033844-.31274223.19048691-.70487022.20539856-1.21068954l.49897194-.25932312"/></g><g id="af"><path id="ag" class="cm" d="M29.73114944,23.14210429c.14511108.0490303.28809929.08727074.42397118.11012459.54348755.09140968.97311974-.06339073.96941376-.75889397-.0053997-1.01657295-.15792465-1.79309273-.24165916-2.682827l2.46505547-2.50624084"/><path id="ah" class="cm" d="M34.22216392,16.95918955c.42562866-.43000221.80042648-1.00635815,1.08890533-1.70258331"/><path id="ai" class="cm" d="M41.4837606,18.54279246c-.25889969,1.03188133-1.0396347,1.72488594-1.75837708,1.92940521"/><path id="aj" class="cm" d="M41.08394217,16.31059374c-.07962036.80023575-.35557556,1.68047714-1.30398941,2.27314758"/><path id="ak" class="cm" d="M40.25156379,13.44608988c.42838287.84849739.56497955,1.83835506-.95940781,3.23205948"/><path id="al" class="cm" d="M36.14765525,14.71163478c.93262482-1.15825653,1.84536743-2.6039753,2.53856659-4.08888054.84220123.92451,1.78726959,1.7841444-1.00513458,5.00086784"/><path id="am" class="cm" d="M41.38076758,20.75341334c-.29491043.75344658-.84040833,1.34325218-1.92073822,1.58379555"/><path id="an" class="cm" d="M41.01853156,23.12456431c-.42093277.57781601-1.30819702.88459969-2.22196579.82074547"/><path id="ao" class="cm" d="M40.33892798,25.04447665c-.66029358.51275635-2.03863525.35205078-2.64879227-.04879951"/><path id="ap" class="cm" d="M39.21256995,26.88385691c-.34403992.05904007-.66996765.06959915-.97872543.03424072"/><path id="aq" class="cm" d="M32.37063575,28.43351283c-.08784866-.21581459-.17029953-.4350853-.25094986-.64735222"/><path id="ar" class="cm" d="M30.52740073,28.52111544c-.07198906-.26696396-.11470413-.58392715-.12595749-.9656353l-.49897385-.25932312"/></g></g><g id="as"><path id="at" class="cm" d="M15.74334502,34.33664241v-1.26361847"/><path id="au" class="cm" d="M16.79866385,34.68816676v-1.26361465"/><path id="av" class="cm" d="M17.8621347,34.9966804v-1.26361847"/><path id="aw" class="cm" d="M15.57504439,32.3335258l-.46908092.51585388"/><path id="ax" class="cm" d="M16.39175582,31.2480556c.30021667-.31649208.79812241-.57165337,1.23426056-.56750488"/></g><g id="ay"><path id="az" class="cm" d="M15.46766734,11.60287585l.0257597-1.51839161c.01312351-.77289391-.22368622-.80426693-.45785236-.66925526l-1.48297977.85503292c-.09234047.6474781-.03330994,1.12555218.15480137,1.96774006.22573376,1.01061821-.96392822,1.24861717-.2061367,2.07013321"/><path id="ba" class="cm" d="M12.43702102,11.71893229c-.18628311-.62337971-.26395702-1.11669731,1.08275414-1.33912086"/></g><g id="bb"><path id="bc" class="cm" d="M18.17511153,15.51708617c-.37110329-.73297119-1.71385765-.66523933-2.42790794-.13893604-.46549988-1.15869904,1.80745888-1.19025421,1.6551609-2.39019966-.64942551-.945611-.4115181-2.60692501.97722816-2.14010525.19109726.06424046.2976017.06513023.48543549,0,1.38425827-.47996616,1.62665558,1.19449425,1.00316048,2.144907"/><path id="bd" class="cm" d="M19.29972243,20.02719416c2.05198479.34810448,2.07060242-1.53720856.42308235-3.71546555l-1.42517281.02103043c-.92394829.01363945-1.28567314.47817802-1.26680183.83294678"/><path id="be" class="cm" d="M18.63405013,9.64139952v1.25466442"/><path id="bf" class="cm" d="M21.48143935,14.41199698c.20745659.71188164,1.20790672.84984303,1.99542809.7387228"/><path id="bg" class="cm" d="M20.42897391,13.40990081c.52064133.29145908,1.25668144.25304985,1.85611153-.07415009"/><path id="bh" class="cm" d="M29.82488608,15.51708712c.37110329-.73297119,1.71385765-.66523933,2.42790604-.13893604.46549988-1.15869904-1.80745888-1.19025421-1.65516281-2.39019966.64942741-.945611.4115181-2.60692501-.97722816-2.14010525-.19109726.06424046-.2976017.06513023-.48543549,0-1.38425827-.4799614-1.62665367,1.19449902-1.00315857,2.14491177"/><path id="bi" class="cm" d="M28.70027518,20.02719416c-2.05198479.34810448-2.07060432-1.53720856-.42308235-3.71546555l1.42517471.02103043c.92394829.01363945,1.28567314.47817802,1.26680183.83294678"/><path id="bj" class="cm" d="M29.36594748,9.64140048v1.25466442"/><path id="bk" class="cm" d="M26.51856017,14.41199698c-.20745659.71188164-1.20790672.84984303-1.99542809.7387228"/><path id="bl" class="cm" d="M27.57102561,13.40990081c-.52063942.29145908-1.25668144.25304985-1.85611153-.07415009"/><path id="bm" class="cm" d="M25.01873183,16.21868052c-.63768005.79684067-.84410095,1.73199081-1.01873016,2.81007004-.1746273-1.07807922-.38105011-2.01322937-1.01873016-2.81007004"/></g><g id="bn"><path id="bo" class="cm" d="M32.53232932,11.60287966l-.02576065-1.51839161c-.01311874-.77289772.22369003-.80427074.45785522-.66925907l1.48298264.85503292c.09233856.6474781.03332138,1.12555218-.15480042,1.96774006-.22573471,1.01061821.96392441,1.24861717.20613861,2.07013321"/><path id="bp" class="cm" d="M35.5629766,11.71893325c.18628311-.62337685.26395798-1.11669445-1.08275223-1.339118"/></g><g id="bq"><path id="br" class="cm" d="M21.35135818,12.42294135c1.01228714-.20165634,1.60123444-.66488743.46806526-2.53797817-1.02516747-1.69456863.97452164-2.76208115,1.68932152-2.08480501"/><path id="bs" class="cm" d="M26.64863944,12.42294135c-1.01228714-.20165634-1.60123444-.66488743-.46806526-2.53797817,1.02516747-1.69456768-.97452164-2.76208115-1.68931961-2.08480501"/><path id="bt" class="cm" d="M22.6300962,11.64704432s.35084152.22731781,1.36989975.22731781,1.36990166-.22731781,1.36990166-.22731781"/><path id="bu" class="cm" d="M23.99999595,5.49903836v2.8382144"/><path id="bv" class="cm" d="M23.15825057,5.96610274h1.68349457"/></g><g id="bw"><path id="bx" class="cm" d="M23.99999785,40.68863215v1.40467834"/><path id="by" class="cm" d="M22.45426726,41.29586329c-.11853409-.04949188-.22362137-.1084671-.31624222-.1758461"/><path id="bz" class="cm" d="M25.54573226,41.29586329c.82641029-.34505844.99920654-1.15109634.85028648-2.0510025"/><path id="ca" class="cm" d="M27.33266807,41.00399317c.29138565-.06887054.50807762-.19526672.65749741-.36587524"/></g></g><g id="cb"><path id="cc" class="cm" d="M8.02578998,31.33086314l1.07531834-2.24959755c.23743916-.4967289.82849216-.70547676,1.3252306-.46804047l2.24964237,1.0752964c.49673939.23743439.70548916.82847595.46805,1.32520676l-1.07531834,2.24959564c-.23744011.4967308-.82849312.70547867-1.32523251.46804428l-2.24964046-1.07529831c-.49673939-.23743439-.70548964-.82847786-.46805-1.32520676Z"/><path id="cd" class="cm" d="M7.9893744,29.93166461l.57445097.27458"/><path id="ce" class="cm" d="M9.61883998,33.1933433l-.27458477.57443619"/><path id="cf" class="cm" d="M11.82556415,28.57681002l-.2737484.57268715"/><path id="cg" class="cm" d="M34.31963325,38.31800379l-.6918335,1.4649353-3.29439545-1.55575562"/><path id="ch" class="cm" d="M32.6070478,38.05069651l-.46425247.98303986"/><path id="ci" class="cm" d="M31.62496543,38.83330455l-.77033997,1.63117218"/><path id="cj" class="cm" d="M28.54308105,39.40759577l4.25091743,1.93944168"/><path id="ck" class="cm" d="M19.39998794,35.23614039l1.35113525.61644363"/><path id="cl" class="cm" d="M12.75295043,32.2034904l1.0208559.46575546"/></g></svg>