<?xml version="1.0" encoding="UTF-8"?><svg id="b" xmlns="http://www.w3.org/2000/svg" viewBox="0 0 48 48"><defs><style>.h{fill:none;stroke:#000;stroke-linecap:round;stroke-linejoin:round;}</style></defs><g id="c"><path id="d" class="h" d="M39.5,15.5h-9c-1.1046,0-2-.8954-2-2V4.5H10.5c-1.1046,0-2,.8954-2,2v35c0,1.1046.8954,2,2,2h27c1.1046,0,2-.8954,2-2V15.5Z"/><line id="e" class="h" x1="28.5" y1="4.5" x2="39.5" y2="15.5"/></g><g id="f"><path id="g" class="h" d="M24,19.5c-5.5218.0026-9.9974,4.4782-10,10h0c.0026,5.5218,4.4782,9.9974,10,10h0c5.5218-.0026,9.9974-4.4782,10-10h0c-.0026-5.5218-4.4782-9.9974-10-10ZM21.9256,21.407l1.1442,1.2512-.707,1.3256-2.3256,1.3581-.8744,2.986,4.0047,1.2698-4.2837,6.5023c-.4684-.3631-.8972-.7747-1.2791-1.2279l-.6419-5.3721,2.2-1.1581-3.1302-1.3721c.87-2.7508,3.095-4.8598,5.8884-5.5814l.0047.0186h-.0001ZM27.7209,22.021c1.0247.5082,1.9336,1.2223,2.6698,2.0977l-4.0651.1488,1.3953-2.2465ZM30.8651,24.7373c2.4453,3.5043,1.8425,8.2905-1.3953,11.0791l-.4279-4.7488-2.7907-.7907-.6465-3.1628,5.2605-2.3767h0Z"/></g></svg>