<svg id="Layer_2" data-name="Layer 2" xmlns="http://www.w3.org/2000/svg" viewBox="0 0 48 48"><defs><style>.cls-1{fill:none;stroke:#000;stroke-linecap:round;stroke-linejoin:round;}</style></defs><path class="cls-1" d="M19,38.85H13.65a3.91,3.91,0,0,0,0-.49,3.68,3.68,0,0,0-4-3.67V11.93L10,12a3.69,3.69,0,0,0,3.69-3.69,3.55,3.55,0,0,0,0-.46h6.77a3.55,3.55,0,0,0,0,.46A3.69,3.69,0,0,0,24.08,12l.36,0V24.54m3.29-1.74V4.5H6.41V42.15H20.72M10,6.6a1.67,1.67,0,1,1,0,3.33A1.65,1.65,0,0,1,10,6.6Zm14.09,0a1.67,1.67,0,1,1,0,3.33,1.66,1.66,0,0,1,0-3.33Zm10,9.37c-3.51,0-6.36,1.88-6.36,4.18s2.85,4.18,6.36,4.18,6.35-1.86,6.35-4.18S37.6,16,34.09,16ZM31.74,29.35a7.65,7.65,0,0,0,2.35.3c3.48,0,6.31-1.85,6.34-4.14h0V22.79c0,2.31-2.84,4.18-6.35,4.18a12.69,12.69,0,0,1-3.35-.56m-5.35-1.93c-3.51,0-6.35,1.87-6.35,4.18s2.84,4.18,6.35,4.18,6.36-1.87,6.36-4.18-2.85-4.18-6.36-4.18Zm15,3.63c0,2.31-2.84,4.18-6.35,4.18a9.33,9.33,0,0,1-2.35-.3v2.68a9.33,9.33,0,0,0,2.35.3c3.48,0,6.31-1.85,6.34-4.14h0ZM19,31.31V34h0c0,2.29,2.87,4.14,6.35,4.14s6.32-1.85,6.35-4.14h0V31.31c0,2.31-2.85,4.18-6.36,4.18S19,33.62,19,31.31Zm21.4,2.12c0,2.31-2.84,4.18-6.35,4.18a9.33,9.33,0,0,1-2.35-.3V40a9.33,9.33,0,0,0,2.35.3c3.48,0,6.31-1.85,6.34-4.14h0ZM19,36.64v2.72h0c0,2.29,2.87,4.14,6.35,4.14s6.32-1.85,6.35-4.14h0V36.64c0,2.31-2.85,4.18-6.36,4.18S19,39,19,36.64Zm-9,.06A1.66,1.66,0,1,1,10,40a1.65,1.65,0,0,1,0-3.32Zm0,0,9-.06v-8m12.71,8v-8m-4-8.51v4.63m12.71,8.65V20.15"/></svg>