<?xml version="1.0" encoding="UTF-8"?><svg id="a" xmlns="http://www.w3.org/2000/svg" viewBox="0 0 48 48"><defs><style>.b{fill:none;stroke:#000;stroke-linecap:round;stroke-linejoin:round;}</style></defs><path class="b" d="M10.125,33.25c-2.5543,0-4.625,2.0707-4.625,4.625s2.0707,4.625,4.625,4.625h4.1245c2.5543,0,4.625-2.0707,4.625-4.625s-2.0707-4.625-4.625-4.625h-4.1245Z"/><path class="b" d="M10.125,19.375c-2.5543,0-4.625,2.0707-4.625,4.625,0,2.5543,2.0707,4.625,4.625,4.625h16.5c2.5543,0,4.625-2.0707,4.625-4.625,0-2.5543-2.0707-4.625-4.625-4.625H10.125Z"/><path class="b" d="M10.125,5.5c-2.5543,0-4.625,2.0707-4.625,4.625s2.0707,4.625,4.625,4.625h27.75c2.5543,0,4.625-2.0707,4.625-4.625s-2.0707-4.625-4.625-4.625H10.125Z"/></svg>