<svg id="Layer_2" data-name="Layer 2" xmlns="http://www.w3.org/2000/svg" viewBox="0 0 48 48"><defs><style>.cls-1{fill:none;stroke:#000;stroke-linecap:round;stroke-linejoin:round;}</style></defs><path class="cls-1" d="M23.26,22.32a1.71,1.71,0,1,0,2.42,2.42"/><path class="cls-1" d="M25.28,13.26l-.61,3.49a4.38,4.38,0,0,1-.19.82,2,2,0,0,1-.26.5,4.39,4.39,0,0,1-.57.62L5.79,36.55a1,1,0,0,0,0,1.42L10,42.21a1,1,0,0,0,1.42,0L29.31,24.35a4.39,4.39,0,0,1,.62-.57,2,2,0,0,1,.5-.26,4.38,4.38,0,0,1,.82-.19l3.49-.61A10.78,10.78,0,0,0,39.31,20L28,8.69A10.78,10.78,0,0,0,25.28,13.26Zm-2,9.06a1.71,1.71,0,0,1,2.42,2.42l-2.42,2.43a1.72,1.72,0,0,1-2.43-2.43Z"/><path class="cls-1" d="M39.31,20a43,43,0,0,0,3-3.27,2.28,2.28,0,0,0,0-1.74A5.7,5.7,0,0,0,41,13.44L34.56,7A5.7,5.7,0,0,0,33,5.67a2.28,2.28,0,0,0-1.74,0,43,43,0,0,0-3.27,3"/></svg>