<svg xmlns="http://www.w3.org/2000/svg" viewBox="0 0 48 48"><defs><style>.a{fill:none;stroke:#000;stroke-linecap:round;stroke-linejoin:round;}</style></defs><path class="a" d="M43.4628,37.4871V10.5129a1.9981,1.9981,0,0,0-1.9981-1.9981H6.4981A1.9981,1.9981,0,0,0,4.5,10.5129V37.4871a1.9981,1.9981,0,0,0,1.9981,1.9981H41.4647A1.9981,1.9981,0,0,0,43.4628,37.4871Z"/><path class="a" d="M14.7512,36.9926l19.7322.0616M4.6185,36.7651l5.3695.2585m29.3619.115,4.1428.0034s.1381-4.04-.7906-5.4791c-.8373-.9534-3.1987-1.3557-4.8857-2.3084-4.9276-5.9894-8.25-6.9775-8.25-6.9775l-24.9481.0189"/><circle class="a" cx="12.0718" cy="37.0236" r="2.0838"/><circle class="a" cx="36.8371" cy="37.0146" r="2.0838"/><rect class="a" x="7.2774" y="24.8682" width="8.3852" height="4.4914" rx="0.7003"/><rect class="a" x="18.5426" y="24.8702" width="7.7307" height="4.4914" rx="0.7003"/><path class="a" d="M29.1624,24.8792h1.3731a8.431,8.431,0,0,1,2.2325,1.6374L34.74,28.67c.262.2861-.3122.7-.7.7H29.3031a.6986.6986,0,0,1-.7-.7V25.5794c0-.388.1716-.7.5594-.7Z"/><line class="a" x1="25.5119" y1="14.2114" x2="21.0622" y2="19.9878"/><line class="a" x1="25.5119" y1="19.9878" x2="21.0622" y2="14.2114"/><path class="a" d="M19.137,18.8879a2.2328,2.2328,0,0,1-1.9333,1.1,2.2027,2.2027,0,0,1-2.225-2.18V16.3913a2.2025,2.2025,0,0,1,2.2249-2.18h0a2.2028,2.2028,0,0,1,2.225,2.18V17.1h-4.45"/><line class="a" x1="7.0419" y1="14.2114" x2="10.1566" y2="14.2114"/><path class="a" d="M8.3611,19.9878v-7.195A1.5419,1.5419,0,0,1,9.9186,11.267h.6064a1.8532,1.8532,0,0,1,1.5839.6384v6.9909a1.1014,1.1014,0,0,0,1.1126,1.09h.3337"/></svg>