<?xml version="1.0" encoding="UTF-8"?><svg id="a" xmlns="http://www.w3.org/2000/svg" viewBox="0 0 48 48"><defs><style>.b{fill:none;stroke:#000;stroke-linecap:round;stroke-linejoin:round;}</style></defs><polyline class="b" points="4.5 31.7199 7.6718 22.1619 15.1412 22.1619"/><line class="b" x1="20.92" y1="16.2801" x2="9.6533" y2="16.2801"/><path class="b" d="M26.7855,30.9969c.7881.4429,1.8057.7229,3.1127.7229,4.1003,0,8.7661-5.0052,13.6018-13.0982"/><path class="b" d="M20.92,16.2801l-3.8034,13.5168c-.2545,1.0746.3959,1.9229,1.7249,1.9229,1.9512,0,13.8947-5.1399,13.8947-10.1734,0-1.5717-1.0954-2.2705-2.231-2.2785-3.9133-.0276-6.235,2.392-6.2626,7.0403-.0017.2848.0233.6151.0829.9692"/><line class="b" x1="42.5388" y1="31.7199" x2="39.925" y2="27.7504"/><line class="b" x1="37.5587" y1="23.8861" x2="34.3008" y2="18.5659"/></svg>