<svg xmlns="http://www.w3.org/2000/svg" viewBox="0 0 48 48"><defs><style>.a,.b,.c{fill:none;stroke:#000;}.a{stroke-linecap:round;}.a,.c{stroke-linejoin:round;}.b{stroke-miterlimit:4.4;}</style></defs><path class="a" d="M36.429,30.8386V39.853A2.87,2.87,0,0,1,33.5526,42.73H20.3919M11.3513,40.35a1.1335,1.1335,0,0,1-.1071-.4973V11.7038a2.87,2.87,0,0,1,2.8764-2.8765H33.5527a2.87,2.87,0,0,1,2.8764,2.8765v9.61"/><path class="a" d="M26.88,21.0014s.0631,3.6656-3.0435,3.6656-3.0434-3.6656-3.0434-3.6656,2.5928.5845,3.0434-1.0973C24.2869,21.5859,26.88,21.0014,26.88,21.0014Z"/><path class="a" d="M17.198,18.1841l1.9953,1.777L17.198,21.738"/><path class="a" d="M30.475,18.1841,28.48,19.9611,30.475,21.738"/><path class="a" d="M42.7024,20.9929s-.4441.2986-6.3147.6391c-.5879.0341-1.23.0686-1.932.1033L17.9629,33.8015c.3719.5615,2.2864.89,2.2864.89a2.1,2.1,0,0,1,1.5612,2.0329A2.2341,2.2341,0,0,1,19.7,38.828c-.9851.1271-2.32.3315-6.2962-1.71,0,0-3.3752,2.2652-1.483,5.5426s6.4918,1.45,8.1746.0691l7.091-5.37a2.8034,2.8034,0,0,1-1.6858-2.4246,2.2311,2.2311,0,0,1,2.2309-2.2312,2.4089,2.4089,0,0,1,1.0781.2776c.9119.4565,1.31,1.1038,2.7539,1.15l4.8825-3.5093,2.5429-1.8808s2.742-6.72,3.7137-7.7484m-9.7666,4.3882L21.7183,33.5879m13.82-4.8464L30.774,32.2273m-6.6012,4.8294-5.1271,3.7509"/><path class="a" d="M11.244,12.69H36.429"/><path class="a" d="M11.244,15.3688H36.429"/><path class="a" d="M39.2167,14.9655l-2.7875-1.1964L38.46,12.4685"/><path class="b" d="M12.9907,37.4952s2.7877,4.4473,5.2888,6.3093"/><path class="b" d="M21.801,23.8664a3.7121,3.7121,0,0,1,4.0721,0"/><path class="c" d="M38.9889,28.7411h-3.45l1.1836-3.5029-3.7861.1427,1.52-3.6457"/><path class="b" d="M16.564,38.5449a26.4455,26.4455,0,0,0,3.8283,4.184"/><path class="c" d="M10.2156,8.8975S5.049,6.6476,7.1437,4.5992,10.2156,8.8975,10.2156,8.8975Z"/><path class="c" d="M12.268,7.3234s-2.2541-3.768.6747-3.8228S12.268,7.3234,12.268,7.3234Z"/><path class="c" d="M9.1961,10.9984s-3.4907,2.6634-3.8742-.2409S9.1961,10.9984,9.1961,10.9984Z"/></svg>