<?xml version="1.0" encoding="UTF-8"?><svg id="b" xmlns="http://www.w3.org/2000/svg" viewBox="0 0 48 48"><defs><style>.d{fill:none;stroke:#000;stroke-linecap:round;stroke-linejoin:round;}</style></defs><path class="d" d="M43.1121,14.394c-.4627-1.7238-1.8092-3.0703-3.533-3.533-2.314-.894-24.732-1.332-31.236.025-1.7241.4628-3.0706,1.8098-3.533,3.534-1.045,4.583-1.124,14.491.026,19.177.4627,1.7238,1.8092,3.0703,3.533,3.533,4.583,1.055,26.371,1.203,31.236,0,1.7238-.4627,3.0703-1.8092,3.533-3.533,1.114-4.993,1.193-14.287-.026-19.203"/><line class="d" x1="21" y1="24" x2="24.9" y2="24"/><polyline class="d" points="19.942 30 22.058 18 28.058 18"/></svg>