<?xml version="1.0" encoding="UTF-8"?><svg id="a" xmlns="http://www.w3.org/2000/svg" viewBox="0 0 48 48"><defs><style>.b{fill:none;stroke:#000;stroke-linecap:round;stroke-linejoin:round;}</style></defs><path class="b" d="M4.5,11.5c0-1.6569,1.3431-3,3-3h8.718c.8337,0,1.6466.2604,2.325.745l4.914,3.51c.6784.4846,1.4913.745,2.325.745h14.718c1.6569,0,3,1.3431,3,3v20c0,1.6569-1.3431,3-3,3H7.5c-1.6569,0-3-1.3431-3-3V11.5Z"/><path class="b" d="M22.8532,26.6377c-1.8021,0-3.2765,1.4744-3.2765,3.2765h0c0,1.8021,1.4744,3.2765,3.2765,3.2765h2.1298c1.8021,0,3.2765-1.4744,3.2765-3.2765h0c0-1.8021-1.4744-3.2765-3.2765-3.2765M25.1467,26.6377c1.8021,0,3.2765-1.4744,3.2765-3.2765h0c0-1.8021-1.4744-3.2765-3.2765-3.2765h-2.1298c-1.8021,0-3.2765,1.4744-3.2765,3.2765h0c0,1.8021,1.4744,3.2765,3.2765,3.2765M22.8532,26.6377h2.2936"/></svg>