<?xml version="1.0" encoding="UTF-8"?><svg xmlns="http://www.w3.org/2000/svg" viewBox="0 0 48 48"><defs><style>.c{fill:none;stroke:#000;stroke-linecap:round;stroke-linejoin:round;}</style></defs><g id="a"><path class="c" d="m4.5,11.5c0-1.6569,1.3431-3,3-3h8.7181c.8337,0,1.6465.2605,2.325.7451l4.9138,3.5099c.6784.4846,1.4913.7451,2.325.7451h14.7181c1.6569,0,3,1.3431,3,3v20c0,1.6569-1.3431,3-3,3H7.5c-1.6569,0-3-1.3431-3-3V11.5Z"/></g><g id="b"><path class="c" d="m22.264,34.5v-13.0164c0-1.6478,1.3358-2.9836,2.9836-2.9836.002,0,.0039,0,.0059,0h0c1.4653,0,2.3833.4355,3.013,1.2476"/><line class="c" x1="19.7336" y1="24.2612" x2="25.7066" y2="24.2612"/></g></svg>