<?xml version="1.0" encoding="UTF-8"?><svg id="a" xmlns="http://www.w3.org/2000/svg" viewBox="0 0 48 48"><defs><style>.b{fill:none;stroke:#000;stroke-linecap:round;stroke-linejoin:round;}</style></defs><g><path class="b" d="m41.6801,13.015h-16.91c-2-.1-5.93-4.23-8.19-4.23H6.6801c-1.204-.0003-2.1803.9754-2.1806,2.1794,0,.0169.0002.0337.0006.0506h0v7.29h39v-3.42c.0221-1.0104-.7791-1.8475-1.7895-1.8696-.0102-.0002-.0203-.0004-.0305-.0004Z"/><path class="b" d="m4.5001,18.295v18.72c-.0111,1.2039.956,2.1889,2.1599,2.1999.0034,0,.0067,0,.0101,0h34.65c1.204,0,2.18-.9759,2.1801-2.1799,0-.0067,0-.0134,0-.0201h0v-18.72"/></g><g><path class="b" d="m40.0562,26.7086c0-2.3487-2.1713-4.1903-4.6163-3.6268-1.3328.3072-2.4177,1.3832-2.7335,2.7139-.3818,1.6085.2792,3.0998,1.4424,3.9383.2806.2023.4298.5407.4298.8867v1.9046h3.4972v-1.9761c0-.3038.1287-.6052.3781-.7786.9682-.6734,1.6023-1.7932,1.6023-3.0619Z"/><line class="b" x1="34.5785" y1="34.5005" x2="38.0757" y2="34.5005"/></g></svg>