<?xml version="1.0" encoding="UTF-8"?><svg id="a" xmlns="http://www.w3.org/2000/svg" viewBox="0 0 48 48"><defs><style>.b{fill:#000;}.c{fill:none;stroke:#000;stroke-linecap:round;stroke-linejoin:round;}</style></defs><path class="c" d="m41.6801,13.015h-16.91c-2-.1-5.93-4.23-8.19-4.23H6.6801c-1.204-.0003-2.1803.9754-2.1806,2.1794,0,.0169.0002.0337.0006.0506v7.29h39v-3.42c.0221-1.0104-.7791-1.8475-1.7895-1.8696-.0102-.0002-.0203-.0004-.0305-.0004Z"/><path class="c" d="m4.5001,18.2951v18.72c-.0111,1.2039.956,2.1889,2.1599,2.1999h34.6601c1.204,0,2.18-.9759,2.1801-2.1799v-18.7401"/><g><rect class="c" x="29.028" y="27.8562" width="8.6478" height="6.8988"/><path class="c" d="m29.9025,27.8562v-1.6518c0-1.905,1.5443-3.4494,3.4494-3.4494s3.4494,1.5443,3.4494,3.4494v1.6518"/><circle class="b" cx="33.3519" cy="31.3056" r=".75"/></g></svg>