<?xml version="1.0" encoding="UTF-8"?><svg xmlns="http://www.w3.org/2000/svg" viewBox="0 0 48 48"><defs><style>.c{fill:none;stroke:#000;stroke-linecap:round;stroke-linejoin:round;}</style></defs><g id="a"><path class="c" d="m4.5,11.5c0-1.6569,1.3431-3,3-3h8.7181c.8337,0,1.6465.2605,2.325.7451l4.9138,3.5099c.6784.4846,1.4913.7451,2.325.7451h14.7181c1.6569,0,3,1.3431,3,3v20c0,1.6569-1.3431,3-3,3H7.5c-1.6569,0-3-1.3431-3-3V11.5Z"/></g><g id="b"><path class="c" d="m20.0135,31.4975c.7849,1.0219,1.7691,1.4025,3.1384,1.4025h1.895c1.7635,0,3.1931-1.4327,3.1931-3.2h0c0-1.7673-1.4296-3.2-3.1931-3.2h-2.0938c-1.7635,0-3.1931-1.4327-3.1931-3.2h0c0-1.7673,1.4296-3.2,3.1931-3.2h1.895c1.3693,0,2.3535.3806,3.1384,1.4025"/><line class="c" x1="24" y1="34.5" x2="24" y2="18.5"/></g></svg>