<?xml version="1.0" encoding="UTF-8"?><svg xmlns="http://www.w3.org/2000/svg" viewBox="0 0 48 48"><defs><style>.c{fill:none;stroke:#000;stroke-linecap:round;stroke-linejoin:round;}</style></defs><g id="a"><path class="c" d="m4.5,11.5c0-1.6569,1.3431-3,3-3h8.7181c.8337,0,1.6465.2605,2.325.7451l4.9138,3.5099c.6784.4846,1.4913.7451,2.325.7451h14.7181c1.6569,0,3,1.3431,3,3v20c0,1.6569-1.3431,3-3,3H7.5c-1.6569,0-3-1.3431-3-3V11.5Z"/></g><g id="b"><path class="c" d="m29.2072,27.175c.0326-.2286.0498-.4592.0515-.6902-.0018-.2275-.019-.4547-.0515-.6799l1.4834-1.1331c.1314-.108.1662-.2949.0824-.443l-1.401-2.4311c-.0817-.1506-.2627-.2168-.4224-.1545l-1.7512.7005c-.3669-.2751-.7644-.5067-1.1846-.6902l-.2678-1.8542c-.0257-.1731-.1753-.3006-.3502-.2987h-2.7813c-.1747-.0096-.3311.1077-.3708.2781l-.2575,1.8542c-.4214.1812-.8192.4129-1.1846.6902l-1.7512-.7005c-.1595-.0674-.344,0-.4224.1545l-1.4113,2.4311c-.0814.1505-.0422.3378.0927.443l1.4731,1.1434c-.0206.2262-.0206.4537,0,.6799v.6902l-1.4731,1.1537c-.1405.1063-.1802.3004-.0927.4533l1.4319,2.4414c.0783.1548.2658.2188.4224.1442l1.7512-.7005c.363.2809.7613.513,1.1846.6902l.2575,1.8645c.0303.169.1786.2911.3502.2884h2.7401c.1702-.0014.3162-.1217.3502-.2884l.309-1.8645c.427-.1764.8288-.4085,1.1949-.6902l1.7409.7005c.1602.0608.341.0005.4327-.1442l1.401-2.4311c.0852-.1512.0506-.3417-.0824-.4533l-1.4937-1.1537Zm-5.2124.8653c-.8534,0-1.5452-.6918-1.5452-1.5452s.6918-1.5452,1.5452-1.5452h0c.8477,0,1.5349.6872,1.5349,1.5349h0c.0057.8534-.6815,1.5498-1.5348,1.5555h0Z"/></g></svg>