<?xml version="1.0" encoding="UTF-8"?><svg id="a" xmlns="http://www.w3.org/2000/svg" viewBox="0 0 48 48"><defs><style>.d{fill:none;stroke:#000;stroke-linecap:round;stroke-linejoin:round;}</style></defs><circle id="b" class="d" cx="24" cy="24" r="21.5"/><path id="c" class="d" d="M33.5056,30.1229c2.7632,.0189,4.1298-.1513,5.068-1.2979,1.3641-1.6672,1.0478-3.8895,.1684-4.8618-.8793-.9723-1.5386-1.1284-1.5386-1.1284,0,0,.1622-1.1101,.1622-1.8476,.0376-2.9044-1.7948-5.1997-4.1293-6.3497-2.0568-.9885-5.4173-.6188-6.9235,.9578l-.6089,.6374s-1.2849-.7873-1.8564-1.0601c-2.6201-1.2342-5.622-.7828-7.5634,1.2879-.2817,.3103-.7668,1.1231-.7668,1.1231,0,0-.7309-.2162-1.1594-.175-2.2745,.2185-3.68,1.6527-3.6594,3.9413,.0041,.4575,.1852,1.3682,.1852,1.3682,0,0-.5556,.1687-.9342,.4168-1.0684,.7004-1.5491,1.8677-1.4325,3.4791,.1017,1.4054,.5116,2.1645,1.6138,2.9886,.524,.3917,1.0182,.6114,3.1904,.5671,2.5032-.0511,2.826-.0808,2.826-.0808,0,0-.3506,1.3014,1.0949,2.3164,1.3193,.9264,4.1922,1.5362,5.741,1.5032,1.5488-.033,3.9771-.7139,5.2378-1.7336,1.2607-1.0197,2.1051-2.1543,2.1051-2.1543,0,0,1.7951,.093,3.1794,.1024Z"/></svg>