<?xml version="1.0" encoding="UTF-8"?><svg id="b" xmlns="http://www.w3.org/2000/svg" viewBox="0 0 48 48"><defs><style>.c{fill:none;stroke:#000;stroke-linecap:round;stroke-linejoin:round;}</style></defs><path class="c" d="m20.2408,7.9362c-.03,8.4359-2.983,11.9719-3.1837,14.4808s.6935,6.1083.582,9.1687c-.0673,1.8474-.4331,4.2997-.7533,5.4945s-.5503,5.8691,1.3523,6.1618c1.9027.2927,10.4095.4836,11.9154-.2696s1.213-3.4788,1.0076-5.8923-.9615-3.6319-1.0612-5.4945c-.164-3.0626.673-7.4309.7703-9.1687.0973-1.7378-3.1987-7.19-3.2921-14.4808h-7.3373Z"/><path class="c" d="m26.2757,29.8862l-4.605.0424"/><path class="c" d="m26.2757,26.2191h-4.611v8.073h4.611"/><path class="c" d="m21.1372,4.5h5.5029c.477,0,.9186.4268,1.1618,1.1228l.8081,2.3133h-9.3079l.7074-2.2811c.2203-.7103.6545-1.1551,1.1277-1.1551h0Z"/></svg>