<?xml version="1.0" encoding="UTF-8"?><svg id="a" xmlns="http://www.w3.org/2000/svg" viewBox="0 0 48 48"><defs><style>.b{fill:none;stroke:#000;stroke-linecap:round;stroke-linejoin:round;}</style></defs><path class="b" d="M21.9812,24.4985l-1.7598,.5988"/><path class="b" d="M22.0264,22.5639l-1.7598,.5988"/><path class="b" d="M21.8858,20.657l-1.7598,.5988"/><path class="b" d="M21.8642,18.7501l-1.7598,.5988"/><path class="b" d="M22.1259,35.1251v-7.1413c-1.086-.2269-1.9928-.6804-2.5968-1.5167h2.5968v-9.8819c-.6007,.3959-.866,.5649-2.0027,.7439-.21-5.0204-.2135-9.6009,4.5368-12.8291,.473,2.2357,1.6708,5.0136,3.3939,7.2329v14.7863h2.7151c-.3838,.6435-1.1852,1.6194-2.7274,1.593v7.1505"/><line class="b" x1="30.082" y1="36.8514" x2="34.4881" y2="43.499"/><line class="b" x1="34.4881" y1="36.8514" x2="30.082" y2="43.499"/><path class="b" d="M13.5119,43.5v-6.6476l3.3621,6.6476,3.3621-6.6476v6.6476"/><path class="b" d="M22.9213,43.5l2.2694-6.6476,2.1854,6.6476"/><path class="b" d="M23.6777,41.2564h2.9418"/></svg>