<svg xmlns="http://www.w3.org/2000/svg" viewBox="0 0 48 48"><defs><style>.a{fill:none;stroke:#000;stroke-linecap:round;stroke-linejoin:round;}</style></defs><path class="a" d="M5.4756,18.268A10.0321,10.0321,0,0,1,15.5077,8.2359a13.1521,13.1521,0,0,1,4.815.7086,13.2849,13.2849,0,0,1,5.6886,4.3323c2.2622,2.73-13.0369,18.3835-15.5683,15.805a22.3862,22.3862,0,0,1-3.8109-5.7079,12.37,12.37,0,0,1-1.1566-5.1056Z"/><path class="a" d="M40.0013,33.0064q.01.23.01.4615A10.0321,10.0321,0,0,1,29.98,43.5a14.2254,14.2254,0,0,1-5.7569-1.8163"/><path class="a" d="M18.144,36.1636c.9385,1.5055,6.0593.0078,11.4379-3.3452s8.9772-7.2915,8.0386-8.7969"/><path class="a" d="M37.62,24.0219c-.9385-1.5055-6.0592-.0077-11.4379,3.3452s-8.9771,7.2915-8.0386,8.7969a47.327,47.327,0,0,0,6.0784,5.52"/><path class="a" d="M37.62,24.0219S39.9945,29.9376,40,33.007"/><path class="a" d="M36.0614,17.2767s3.1866-4.9868,3.5116-5.009c-1.6345.8738-5.55,1.3153-5.55,1.3153C26.74,17.94,10.3441,38.436,10.3441,38.436S29.18,19.7931,36.0624,17.2762Z"/><path class="a" d="M27.7435,28.5631l.1147-.5231"/><path class="a" d="M24.3332,30.9494l-.9762.2778"/><path class="a" d="M21.5216,34.2508l.9485-.6989"/><path class="a" d="M26.9489,32.9946l.1258-.5805"/><path class="a" d="M32.3164,28.2012l.9042-.2891"/><path class="a" d="M32.0734,26.4281l.9319-.73"/><path class="a" d="M25.92,10.9419c.8128-.7553,3.5894-3.3688,4.1036-5.5184M35.22,4.5c-2.2917,2.8192-4.3589,5.7541-7.6195,8.0736m7.1907-2.8829c-2.2971.7357-6.1029,4.5385-7.5955,5.9724"/><path class="a" d="M30.6594,23.5575a25.9279,25.9279,0,0,1,5.7218-4.72m-.9711,3.08a63.1462,63.1462,0,0,0,7.0044-7.5857"/><path class="a" d="M42.5245,18.5456a22.5886,22.5886,0,0,0-4.482,3.4477"/><path class="a" d="M8.4867,11.1026c-2.1309,4.9643,2.3374,11.02,7.7583,15.5239"/><path class="a" d="M23.8308,18.7814C22.4385,16.9,16.7237,8.5688,8.4865,11.1027"/><path class="a" d="M25.8125,34.8938s3.9162,7.3377,8.7609,7.4954"/><path class="a" d="M34.9086,28.798s4.8761,6.8024,2.118,11.8107"/></svg>