<?xml version="1.0" encoding="UTF-8"?><svg id="a" xmlns="http://www.w3.org/2000/svg" viewBox="0 0 48 48"><defs><style>.c{fill:none;stroke:#000;stroke-linecap:round;stroke-linejoin:round;}</style></defs><polygon class="c" points="23.3764 23.4257 43.5 20.8892 33.9455 42.1119 16.7813 38.9835 23.3764 23.4257"/><line class="c" x1="32.3708" y1="22.292" x2="24.4226" y2="40.3762"/><line class="c" x1="20.024" y1="31.3341" x2="38.8095" y2="31.3341"/><line class="c" x1="12.2084" y1="35.7775" x2="9.9255" y2="37.5813"/><line class="c" x1="9.1761" y1="23.6967" x2="6.2816" y2="23.4013"/><line class="c" x1="15.6046" y1="13.1314" x2="13.9136" y2="10.764"/><line class="c" x1="27.8366" y1="10.0875" x2="28.1483" y2="7.6637"/><line class="c" x1="38.5466" y1="16.8505" x2="40.8014" y2="15.3862"/><path class="c" d="M31.4695,20.4032c-1.5567-1.2794-3.5251-2.0024-5.5891-2.0024-3.0332,0-5.7131,1.5426-7.2966,3.8843-.4163.6156-.7568,1.2865-1.008,1.999"/><path class="c" d="M33.8027,19.6693c-2.0829-2.2475-5.0209-3.551-8.1312-3.551-4.7857,0-8.8724,3.048-10.4209,7.3048-.4293,1.18-.6635,2.453-.6635,3.7796"/><path class="c" d="M37.2788,19.451c-2.4741-3.6118-6.6291-5.9814-11.3376-5.9814-5.2474,0-9.8074,2.9431-12.1193,7.2686-1.0297,1.9265-1.6135,4.1271-1.6135,6.4642,0,2.7519.8095,5.3148,2.2033,7.4635"/><line class="c" x1="9.5309" y1="30.0702" x2="4.5" y2="31.0425"/><line class="c" x1="11.0669" y1="17.9369" x2="7.0154" y2="15.1889"/><line class="c" x1="21.4951" y1="10.5808" x2="20.5228" y2="5.8881"/><line class="c" x1="33.9244" y1="12.4832" x2="36.4187" y2="8.4669"/></svg>