<svg xmlns="http://www.w3.org/2000/svg" viewBox="0 0 48 48"><defs><style>.a{fill:none;stroke:#000;stroke-linecap:round;stroke-linejoin:round;}</style></defs><path class="a" d="M18.5568,32.2943c-1.5681.2589-6.2257-3.8827,1.8949-7.3038a7.2157,7.2157,0,0,1,7.476,1.4469c2.9158,3.0389,1.5971,9.707-4.1686,11.6448-5.753,1.9334-10.5174,1.183-13.5741-2.894-5.744-7.6615,3.6991-15.1307,10.2322-15.71,6.2376-.5531,8.0361,1.0874,11.817,1.6192S43.3409,17.5348,43.5,17.5489"/><path class="a" d="M4.5005,19.8916c-.0546.4366,4.6676.3353,7.2-.8269,3.5176-1.614,13.57.4506,13.57.4506"/><path class="a" d="M20.1274,25.1305c-1.5275,1.3566-2.0966,2.4958-.1925,4.3387s.2716,2.799-1.3781,2.8251"/><path class="a" d="M4.5005,19.8916c4.3138-5.7743,10.14-6.5218,22.7727-10.99"/><path class="a" d="M25.0206,9.6849c-3.7659,2.2966-7.2892,5.0836-10.8047,6.7959,12.1692-6.3482,14.72,3.37,26.0138,2.6087"/><path class="a" d="M16.2141,10.5551,9.9086,15.2482"/><path class="a" d="M10.8741,12.8634,8.0633,16.3942"/><path class="a" d="M21.6851,18.9665c-10.583,7.5967-12.9008,19.1173.0382,19.6891"/><path class="a" d="M20.2493,38.9426c5.0271.0765,9.3289-2.0232,13.9487-3.1687"/><path class="a" d="M41.02,24.4048C28.6485,32.2855,33.3441,36.52,27.99,37.6356"/><path class="a" d="M24.2129,24.6156c5.9434-1.0277,7.4312,4.8005,14.2362,1.5479"/><path class="a" d="M31.5473,26.4669l2.5473-.5462"/><path class="a" d="M33.4884,21.1252a15.3234,15.3234,0,0,1,3.7758.6268"/><path class="a" d="M25.0751,14.7873a8.151,8.151,0,0,1,7.4,1.8313"/><path class="a" d="M20.2545,14.4179l4.4-.7621"/><path class="a" d="M15.904,25.9207l-1.9882,1.8145"/></svg>