<svg xmlns="http://www.w3.org/2000/svg" viewBox="0 0 48 48"><defs><style>.a{fill:none;stroke:#000;stroke-linecap:round;stroke-linejoin:round;}</style></defs><path class="a" d="M5.5,15.1758V40.5a2,2,0,0,0,2,2h33a2,2,0,0,0,2-2V7.5a2,2,0,0,0-2-2H15.291"/><circle class="a" cx="9.5" cy="9.4329" r="7"/><path class="a" d="M12.1759,8.1146a2.6785,2.6785,0,0,0-2.82-2.6779,2.7817,2.7817,0,0,0-2.532,2.83v2.4849A2.6788,2.6788,0,0,0,9.5,13.4329h0a2.6788,2.6788,0,0,0,2.6759-2.6817H9.5"/><circle class="a" cx="24.365" cy="34.883" r="3.2442"/><line class="a" x1="30.3869" y1="34.883" x2="27.6091" y2="34.883"/><path class="a" d="M21.1208,34.883H19.9651a7.1777,7.1777,0,0,0-7.1777,7.1777v.4461"/><path class="a" d="M24.365,25.8805h0a3.5685,3.5685,0,0,0,3.5685,3.5685h3.71a3.5686,3.5686,0,0,0,3.5686-3.5685V24.0556A5.5556,5.5556,0,0,0,29.657,18.5H19.0729a5.5556,5.5556,0,0,0-5.5556,5.5556v1.8249a3.5686,3.5686,0,0,0,3.5686,3.5685h3.71a3.5686,3.5686,0,0,0,3.5686-3.5685h0"/></svg>