<?xml version="1.0" encoding="UTF-8"?><svg id="a" xmlns="http://www.w3.org/2000/svg" viewBox="0 0 48 48"><defs><style>.b{fill:none;stroke:#000;stroke-linecap:round;stroke-linejoin:round;}</style></defs><path class="b" d="M45.5,24c0,11.8741-9.6259,21.5-21.5,21.5S2.5,35.8741,2.5,24,12.1259,2.5,24,2.5s21.5,9.6259,21.5,21.5Z"/><g><path class="b" d="M12,12l24,24"/><path class="b" d="M12,36L36,12"/></g><path class="b" d="M26.2735,9.8656c0-1.3117-1.1367-2.4484-2.4484-2.3609-1.2242,.0874-2.186,1.2242-2.186,2.4484v2.186c0,1.3117,1.0493,2.3609,2.3609,2.3609s2.3609-1.0493,2.3609-2.3609h-2.3609"/><g><line class="b" x1="34.6813" y1="20.5" x2="34.6813" y2="27.5"/><line class="b" x1="39.3187" y1="20.5" x2="39.3187" y2="27.5"/><line class="b" x1="34.6813" y1="23.9995" x2="39.3187" y2="23.9995"/></g><path class="b" d="M20.5,40.5v-7l3.5,7,3.5-7v7"/><path class="b" d="M9.25,20.5v7h3.5001"/></svg>