<?xml version="1.0" encoding="UTF-8"?><svg id="a" xmlns="http://www.w3.org/2000/svg" viewBox="0 0 48 48"><defs><style>.h{fill:none;stroke:#000;stroke-linecap:round;stroke-linejoin:round;}</style></defs><g id="b"><g id="c"><path id="d" class="h" d="M27.1079,28.7557c-1.7852-1.4908-4.3793-1.4979-6.1726-.0169v.0169"/><path id="e" class="h" d="M24.0097,30.7333c-1.0697,0-1.9368.8672-1.9368,1.9368s.8672,1.9368,1.9368,1.9368,1.9365-.8668,1.9368-1.9362h0c.0003-1.0697-.8665-1.9371-1.9362-1.9375h-.0006Z"/><path id="f" class="h" d="M30.0539,25.4063c-3.5098-2.8955-8.5799-2.8955-12.0896,0"/><path id="g" class="h" d="M32.9585,21.8916c-5.1967-4.3047-12.7204-4.3047-17.9171,0"/></g></g><path class="h" d="M41.8561,23.3304l-15.7152-15.2178c-1.1933-1.1556-3.0884-1.1556-4.2817,0l-15.7153,15.2178c-1.3569,1.3139-.4267,3.6116,1.4621,3.6116h1.9913v12.1224c0,.9332.7565,1.6896,1.6896,1.6896h25.4263c.9332,0,1.6896-.7565,1.6896-1.6896v-12.1224h1.9911c1.8888,0,2.819-2.2977,1.4621-3.6116Z"/></svg>