<svg xmlns="http://www.w3.org/2000/svg" viewBox="0 0 48 48"><defs><style>.a{fill:none;stroke:#000;stroke-linecap:round;stroke-linejoin:round;}</style></defs><path class="a" d="M37.4319,7.4164c6.1377,4.06,7.918,21.242-1.6236,28.5058C26.347,43.1249,17.02,42.2577,9.1565,35.2131c-1.05-.9407.3008-.3862,1.2319-.1751,8.465,1.92,16.0387.6053,21.8554-4.9249,7.0549-6.7075,5.5086-15.8177,4.7946-20.9056-.2143-1.5269-1.0688-2.7585.3936-1.7911Z"/><path class="a" d="M8.4543,7.3715C5.1468,7.3467,3.3154,22.5163,10.16,25.5661c5.1841,2.31-5.5745-4.0171,3.2033-13.51l-.0159-4.6479Z"/><path class="a" d="M19.01,17.0458c-1.3872.4625,2.0987,3.9569,3.98,4.0038A4.3408,4.3408,0,0,0,27.5891,17.26l.143-4.4327,1.8231-.0119c1.4311-.0094-2.2059-5.6346-2.681-5.6362l-3.4556-.0119-.0954,6.0175A20.1706,20.1706,0,0,1,19.01,17.0458Z"/></svg>