<svg xmlns="http://www.w3.org/2000/svg" viewBox="0 0 48 48"><defs><style>.a,.b,.c{fill:none;stroke:#000;}.a,.b{stroke-linecap:round;}.a{stroke-linejoin:round;}</style></defs><path class="a" d="M6.0282,23.876c-1.5042.0883-1.4641-3.3981,1.5784-6.9187,3.3249-3.8472,3.3226-2.77,3.3226-2.77s.7659-3.1626,6.75-3.11"/><path class="a" d="M17.6793,11.078a5.0406,5.0406,0,0,1,1.6235.4119,6.1227,6.1227,0,0,1,3.9606,4.2218"/><path class="a" d="M20.7546,21.5256s-.3853-3.4009,1.3241-4.4894a11.9773,11.9773,0,0,0,2.9776-2.9585,35.941,35.941,0,0,0-1.4333,5.1372c-.2288,1.7442-.97,2.7671-2.1878,3.165"/><path class="a" d="M10.8565,29.2686c-6.2416-1.574-3.8622-13.5312.0727-15.0808s4.4095,2.65,4.4095,2.65-2.1213-3.4246-2.029-.31-.134,8.6509-6.7547,10.0175"/><path class="a" d="M13.6973,17.8779a2.9294,2.9294,0,0,0,1.6414-1.0405,2.1913,2.1913,0,0,1,1.8546-.6688m2.2638,1.595a10.4451,10.4451,0,0,1,1.2975,3.762"/><path class="a" d="M21.583,12.9927s-2.1952,4.1983-8.3368,7.4605"/><path class="a" d="M12.076,23.3191s.4106-.0379.7316,1.46,2.8284,2.5943,3.0069,2.6875a5.3784,5.3784,0,0,1,1.29,1.1652c.303.4068,1.3924.6955,2.2374-.5925s2.2916-2.895,2.0627-4.226"/><path class="a" d="M15.3176,27.467c-.2607.2766-2.3528,1.7943-2.7832,2.6577"/><path class="a" d="M23.39,22.9345c1.1376-.9744-.1473-1.9146,5.07-1.2463s-.741-1.052-5.47,4.31m-2.5925,4.148q-.2038.4676-.3924.9713"/><path class="a" d="M13.0632,35.1867s-6.3058,1.2517-7,5.4579c-.5687,3.4435.655,4.0743,1.6481,4.8554"/><path class="a" d="M11.0642,41.8645c-.0193.0934-1.84-6.8034,7.9605-9.191"/><path class="a" d="M19.0247,32.6735s3.5493,3.4846,3.5948,5.9652a2.7463,2.7463,0,0,1-1.4279,2.7406"/><path class="a" d="M10.277,32.53l26.908-10.517"/><path class="a" d="M20.0058,31.1178s-1.3307,1.9864,2.0387,2.9366,2.5916-.75,4.19-1.6219,2.3629-4.6586,5.6482-5.3583"/><path class="a" d="M25.1363,45.29s4.0091-8.4608,5.6374-8.9423"/><path class="a" d="M31.8828,27.0742s-4.5947,2.8312-3.0888,6.2582,3.9539,3.6738,6.774,1.5982"/><path class="a" d="M37.185,22.0126s2.5984.8316-.5123,4.3971l8.34-7.4731"/><path class="a" d="M45.0126,18.9366l-11.5457.1343s4.9289.3841,3.7181,2.9417"/><path class="a" d="M12.8858,34.7166c-2.9025-2.8942-3.88-2.0184-3.88-2.0184m4.092.6261c-.2192-.8429-3.1624-2.7776-3.1624-2.7776-.7341-.1951-2.9654,1.5972-3.0169,2.1375a4.96,4.96,0,0,0-1.221,2.408C3.62,36.9974,2.6436,39.8384,3.04,40.7c.3864.84,1.6883.9712,2.7415.8106"/><path class="a" d="M8.3419,34.825l1.6422.0959,1.0039.9224"/><path class="a" d="M22.62,38.6387a4.1146,4.1146,0,0,0,4.1569,2.825"/><path class="a" d="M14.452,23.0288a18.291,18.291,0,0,1,.1216,1.881c-.0418.2172.1929.6056,1.0989.6751"/><path class="a" d="M14.3611,11.3488c-.127-.7309-1.5378-7.9471,8.2125-6.3579.93.0733,3.57.6175,4.7452.1105"/><path class="a" d="M19.3028,11.49s8.9246-3.5448,3.2708-6.499"/><path class="a" d="M34.0517,17.3519c-1.5119-2.2016-3.6133-3.7123-6.88-1.7351,1.4762-4.2685-.1936-10.3467,1.0251-12.69"/><path class="a" d="M39.3691,17.1012c-.6769-2.476-2.07-6.8557-.6914-8.7112"/><path class="a" d="M37.6146,33.7572a47.2267,47.2267,0,0,1-1.8575,7.8864"/><path class="b" d="M41.0212,32.6967s-2.5257,1.0834-3.7058.3,3.76-2.6481,3.76-2.6481"/><path class="b" d="M38.2161,31.6254s-2.4895.6746-2.3826.002.2243-1.7517,4.8182-4.3235"/><path class="b" d="M37.0619,29.628s-2.0384.8108-1.8678-.2941A5.89,5.89,0,0,1,36.6727,26.41"/><path class="b" d="M40.6517,27.3039l1.0877-.3726"/><path class="b" d="M41.0754,30.349l.8644-.49"/><path class="b" d="M41.0212,32.6967l2.8794-1.1334s2.0071-.1544.7157-4.692c-.7576-2.6623-1.1431-3.72-1.6237-4.1806"/><path class="b" d="M36.0859,27.2s-1.2385.1112-1.3445-.7953c-.0174-.1487.2909-1.2932,1.9-2.1321"/><path class="c" d="M21.4043,23.8134l-.65-2.2878"/><path class="a" d="M5.5922,34.8489A21.4054,21.4054,0,1,1,44.9653,28.27m-.96,3.2831A21.4221,21.4221,0,0,1,25.1363,45.29"/></svg>