<svg xmlns="http://www.w3.org/2000/svg" viewBox="0 0 48 48"><defs><style>.a{fill:none;stroke:#000;stroke-linecap:round;stroke-linejoin:round;}</style></defs><path class="a" d="M17.7283,31.5213h-8.43l-2.106,5.4438"/><path class="a" d="M7.1918,36.965v5.7794H18.3585"/><path class="a" d="M17.0417,31.5177l-.9506,5.4471v5.7794"/><path class="a" d="M20.04,33.2718c1.2349.2119,2.08.6422,2.08,1.1386,0,.4437-.675.8346-1.7,1.0639m-4.1615.0172c-1.0693-.2266-1.7792-.6261-1.7792-1.0811,0-.4986.8526-.9306,2.0965-1.1415"/><path class="a" d="M17.7283,31.5213l9.6087,0,2.1874,5.4438-8.8982,0m-4.5347,0H7.1924"/><path class="a" d="M29.5244,36.965v5.7794H18.3577"/><path class="a" d="M19.6746,31.5177l.716,4.1024.2346,1.3447v5.7794"/><path class="a" d="M10.7635,33.5992h1.6874"/><path class="a" d="M10.04,35.3832h1.6874"/><path class="a" d="M24.975,33.5992H23.2876"/><path class="a" d="M25.6988,35.3832H24.0113"/><path class="a" d="M15.0363,27.5678h-8.43L4.5,33.0116"/><path class="a" d="M4.5,33.0115v5.7793H7.1655"/><path class="a" d="M14.35,27.5651l-.6643,3.8063-.0217.1244"/><path class="a" d="M17.3482,29.3183c1.2349.2119,2.08.6422,2.08,1.1386,0,.4437-.675.8346-1.7,1.0639m-4.3468-.0246c-.9652-.2321-1.5939-.6112-1.5939-1.0394,0-.4986.8526-.9306,2.0965-1.1415"/><path class="a" d="M15.0363,27.5678h9.6911l1.5293,3.9531M8.6015,33.0116H4.5"/><path class="a" d="M16.9836,27.5651l.683,3.9137"/><path class="a" d="M8.0717,29.6466H9.7591"/><path class="a" d="M22.2831,29.6466H20.5957"/><path class="a" d="M39.2907,30.38c0,1.1436-1.8845,2.0707-4.2091,2.0707h0c-2.3246,0-4.2091-.9271-4.2091-2.0707h0c0-1.1437,1.8845-2.0708,4.2091-2.0708h0c2.3246,0,4.2091.9271,4.2091,2.0708Z"/><path class="a" d="M39.2907,33.4585c0,1.1436-1.8845,2.0707-4.2091,2.0707s-4.2091-.9271-4.2091-2.0707"/><path class="a" d="M39.2907,36.5092c0,1.1436-1.8845,2.0707-4.2091,2.0707s-4.2091-.9271-4.2091-2.0707"/><path class="a" d="M39.2907,39.56c0,1.1436-1.8845,2.0707-4.2091,2.0707s-4.2091-.9271-4.2091-2.0707h.0006V30.38"/><path class="a" d="M35.0814,28.3088l0-6.1"/><path class="a" d="M43.5,37.4892c0,1.1436-1.8845,2.0708-4.2091,2.0708"/><path class="a" d="M38.64,20.1376V6.8842a1.6286,1.6286,0,0,0-1.6286-1.6286H10.14A1.6286,1.6286,0,0,0,8.5114,6.8842V27.5134"/><path class="a" d="M14.7126,23.8075l4.87-7.8931,7.7335,4.6426L31.67,12.5205"/><path class="a" d="M43.5,31.3879c0,1.1436-1.8845,2.0707-4.2091,2.0707"/><path class="a" d="M43.5,34.4386c0,1.1436-1.8845,2.0707-4.2091,2.0707"/><path class="a" d="M39.2909,39.56c2.3246,0,4.2091-.9272,4.2091-2.0708V22.2083"/><path class="a" d="M43.5,22.2083c0,1.1436-1.8845,2.0707-4.2091,2.0707h0c-2.3246,0-4.2091-.9271-4.2091-2.0707h0c0-1.1437,1.8845-2.0707,4.2091-2.0707h0c2.3246,0,4.2091.927,4.2091,2.0707Z"/><path class="a" d="M43.5,25.259c0,1.1436-1.8845,2.0707-4.2091,2.0707s-4.2091-.9271-4.2091-2.0707"/><path class="a" d="M43.5,28.31c0,1.1436-1.8845,2.0708-4.2091,2.0708"/><line class="a" x1="39.2907" y1="39.5599" x2="39.2907" y2="30.3804"/><line class="a" x1="28.8532" y1="35.2945" x2="30.8731" y2="35.2945"/></svg>