<?xml version="1.0" encoding="UTF-8"?><svg id="a" xmlns="http://www.w3.org/2000/svg" viewBox="0 0 48 48"><defs><style>.b{fill:none;stroke:#000;stroke-linecap:round;stroke-linejoin:round;}</style></defs><g><polygon class="b" points="19.9812 45 28.0188 45 32.0376 38.0392 28.0188 31.0784 19.9812 31.0784 15.9623 38.0392 19.9812 45"/><polygon class="b" points="32.0376 38.0392 40.0753 38.0392 44.0941 31.0784 40.0753 24.1176 32.0376 24.1176 28.0188 31.0784 32.0376 38.0392"/><polygon class="b" points="32.0376 23.8824 40.0753 23.8824 44.0941 16.9216 40.0753 9.9608 32.0376 9.9608 28.0188 16.9216 32.0376 23.8824"/><polygon class="b" points="19.9812 16.9216 28.0188 16.9216 32.0376 9.9608 28.0188 3 19.9812 3 15.9624 9.9608 19.9812 16.9216"/><polygon class="b" points="7.9247 23.8824 15.9624 23.8824 19.9812 16.9216 15.9624 9.9608 7.9247 9.9608 3.9059 16.9216 7.9247 23.8824"/><polygon class="b" points="7.9247 38.0392 15.9624 38.0392 19.9812 31.0784 15.9624 24.1176 7.9247 24.1176 3.9059 31.0784 7.9247 38.0392"/></g><line class="b" x1="7.9247" y1="24.1176" x2="11.9435" y2="31.0784"/><line class="b" x1="19.9812" y1="31.0784" x2="11.9435" y2="31.0784"/><line class="b" x1="7.9247" y1="38.0392" x2="11.9435" y2="31.0784"/><line class="b" x1="19.9812" y1="31.0784" x2="24" y2="38.0392"/><line class="b" x1="32.0376" y1="38.0392" x2="24" y2="38.0392"/><line class="b" x1="19.9812" y1="45" x2="24" y2="38.0392"/><line class="b" x1="32.2617" y1="24.1176" x2="36.2805" y2="31.0784"/><line class="b" x1="44.3181" y1="31.0784" x2="36.2805" y2="31.0784"/><line class="b" x1="32.2617" y1="38.0392" x2="36.2805" y2="31.0784"/><line class="b" x1="32.0376" y1="9.9608" x2="36.0565" y2="16.9216"/><line class="b" x1="44.0941" y1="16.9216" x2="36.0565" y2="16.9216"/><line class="b" x1="32.0376" y1="23.8824" x2="36.0565" y2="16.9216"/><line class="b" x1="19.9812" y1="3" x2="24" y2="9.9608"/><line class="b" x1="32.0376" y1="9.9608" x2="24" y2="9.9608"/><line class="b" x1="19.9812" y1="16.9216" x2="24" y2="9.9608"/><line class="b" x1="7.9247" y1="9.9608" x2="11.9435" y2="16.9216"/><line class="b" x1="19.9812" y1="16.9216" x2="11.9435" y2="16.9216"/><line class="b" x1="7.9247" y1="23.8824" x2="11.9435" y2="16.9216"/></svg>