<?xml version="1.0" encoding="UTF-8"?><svg id="b" xmlns="http://www.w3.org/2000/svg" viewBox="0 0 48 48"><defs><style>.c{fill:#000;}.d{fill:none;stroke:#000;stroke-linecap:round;stroke-linejoin:round;}</style></defs><g><g><path class="d" d="m12.2074,21.7524v5.5611c0,1.0238-.8299,1.8537-1.8537,1.8537h0c-.5119,0-.9753-.2075-1.3107-.5429"/><rect class="d" x="8.5" y="21.7524" width="3.7074" height="4.9123" rx="1.8537" ry="1.8537" transform="translate(20.7074 48.4171) rotate(180)"/></g><rect class="d" x="14.3896" y="21.7524" width="3.7074" height="4.9123" rx="1.8537" ry="1.8537"/><rect class="d" x="35.7926" y="21.7524" width="3.7074" height="4.9123" rx="1.8537" ry="1.8537"/><g><circle class="c" cx="20.2247" cy="19.4816" r=".75"/><line class="d" x1="20.2247" y1="21.7524" x2="20.2247" y2="26.6647"/></g><g><circle class="c" cx="27.9466" cy="19.4816" r=".75"/><line class="d" x1="27.9466" y1="21.7524" x2="27.9466" y2="26.6647"/></g><g><path class="d" d="m22.2945,23.6061c0-1.0238.8299-1.8537,1.8537-1.8537h0c1.0238,0,1.8537.8299,1.8537,1.8537v1.2049c0,1.0238-.8299,1.8537-1.8537,1.8537h0c-1.0238,0-1.8537-.8299-1.8537-1.8537"/><line class="d" x1="22.2945" y1="26.6647" x2="22.2945" y2="19.2499"/></g><g><path class="d" d="m30.0673,23.6061c0-1.0238.8299-1.8537,1.8537-1.8537h0c1.0238,0,1.8537.8299,1.8537,1.8537v1.2049c0,1.0238-.8299,1.8537-1.8537,1.8537h0c-1.0238,0-1.8537-.8299-1.8537-1.8537"/><line class="d" x1="30.0673" y1="26.6647" x2="30.0673" y2="19.2499"/></g></g><path class="d" d="m40.5,5.5H7.5c-1.1046,0-2,.8954-2,2v33c0,1.1046.8954,2,2,2h33c1.1046,0,2-.8954,2-2V7.5c0-1.1046-.8954-2-2-2Z"/></svg>