<?xml version="1.0" encoding="UTF-8"?><svg id="b" xmlns="http://www.w3.org/2000/svg" viewBox="0 0 48 48"><defs><style>.c{fill:none;stroke:#000;stroke-linecap:round;stroke-linejoin:round;}</style></defs><path class="c" d="m39.5,15.5h-9c-1.1046,0-2-.8954-2-2V4.5H10.5c-1.1046,0-2,.8954-2,2v35c0,1.1046.8954,2,2,2h27c1.1046,0,2-.8954,2-2V15.5Z"/><line class="c" x1="28.5" y1="4.5" x2="39.5" y2="15.5"/><path class="c" d="m39.5,15.5h-9c-1.1046,0-2-.8954-2-2V4.5H10.5c-1.1046,0-2,.8954-2,2v35c0,1.1046.8954,2,2,2h27c1.1046,0,2-.8954,2-2V15.5Z"/><line class="c" x1="28.5" y1="4.5" x2="39.5" y2="15.5"/><line class="c" x1="15" y1="22" x2="33" y2="22"/><line class="c" x1="15" y1="27.5" x2="33" y2="27.5"/><line class="c" x1="15" y1="33" x2="26" y2="33"/></svg>