<?xml version="1.0" encoding="UTF-8"?><svg id="b" xmlns="http://www.w3.org/2000/svg" viewBox="0 0 48 48"><defs><style>.c{fill:none;stroke:#000;stroke-linecap:round;stroke-linejoin:round;}</style></defs><path class="c" d="m36.5198,41.8866c-4.807-1.2886-10.6369-8.2802-10.6369-8.2802"/><path class="c" d="m12.1874,33.0638c-7.5725-10.6167-5.7789-22.0562.3369-26.4183.9775-.6972,1.9595-1.3011,2.8127-1.787,1.3709-.7807,3.1138-.2409,3.8048,1.1773l3.4834,7.1494c.6231,1.2789.1596,2.8219-1.0651,3.5457l-8.772,5.1845s.9646,3.6041,4.0033,7.8645c3.0388,4.2604,6.1324,6.346,6.1324,6.346l7.7582-6.6059c1.0832-.9223,2.693-.8581,3.6993.1475l5.6256,5.6215c1.1159,1.1151,1.0588,2.9388-.1258,3.9808-.7372.6485-1.6279,1.3804-2.6054,2.0776-6.1158,4.3621-17.5158,2.3331-25.0883-8.2836Z"/><path class="c" d="m11.7684,7.1846c-.3468,4.9646,4.3654,12.7534,4.3654,12.7534"/><path class="c" d="m15.701,20.1939c.882,2.2442,2.4744,5.2036,4.0796,7.4541,1.6052,2.2505,3.8848,4.7197,5.7195,6.2844"/></svg>