<svg xmlns="http://www.w3.org/2000/svg" viewBox="0 0 48 48"><defs><style>.a{fill:none;stroke:#000;stroke-linecap:round;stroke-linejoin:round;}</style></defs><path class="a" d="M13.1676,18.573H7.64a2.0779,2.0779,0,0,0-2.0779,2.0778V40.4222A2.0779,2.0779,0,0,0,7.64,42.5H40.36a2.0779,2.0779,0,0,0,2.0779-2.0778V20.6508A2.0779,2.0779,0,0,0,40.36,18.573H35.076"/><rect class="a" x="14.0996" y="35.7634" width="20.0445" height="3.327" rx="0.4208"/><rect class="a" x="10.7333" y="29.78" width="3.3663" height="3.3663" rx="0.4208"/><rect class="a" x="16.586" y="29.78" width="3.3663" height="3.3663" rx="0.4208"/><path class="a" d="M25.8051,30.3553v2.37a.4208.4208,0,0,1-.4208.4208H22.86a.4208.4208,0,0,1-.4207-.4207v-2.37"/><rect class="a" x="28.2915" y="29.78" width="3.3663" height="3.3663" rx="0.4208"/><rect class="a" x="34.1442" y="29.78" width="3.3663" height="3.3663" rx="0.4208"/><rect class="a" x="10.7333" y="23.7965" width="3.3663" height="3.3663" rx="0.4208"/><path class="a" d="M18.2755,27.1628H17.0068a.4208.4208,0,0,1-.4208-.4208v-.8747"/><path class="a" d="M31.6578,25.8673v.8747a.4208.4208,0,0,1-.4208.4208H29.9683"/><rect class="a" x="34.1442" y="23.7965" width="3.3663" height="3.3663" rx="0.4208"/><path class="a" d="M34.2525,23.8775,24.1219,31.646,13.9913,23.8775a2.1035,2.1035,0,0,1-.8237-1.67V7.1832A1.6832,1.6832,0,0,1,14.8508,5.5H33.393a1.6832,1.6832,0,0,1,1.6832,1.6832h0V22.208A2.1036,2.1036,0,0,1,34.2525,23.8775Z"/><polyline class="a" points="20.001 9.573 20.001 21.573 18.001 21.573"/><line class="a" x1="18.2081" y1="13.4696" x2="21.7943" y2="13.4696"/><line class="a" x1="18.2081" y1="16.9868" x2="21.7943" y2="16.9868"/><line class="a" x1="23.8978" y1="16.9868" x2="30.2426" y2="16.9868"/><line class="a" x1="23.8978" y1="13.4696" x2="30.2426" y2="13.4696"/><line class="a" x1="28.7253" y1="21.573" x2="28.7253" y2="13.4696"/><line class="a" x1="28.346" y1="11.9523" x2="29.2081" y2="9.573"/><line class="a" x1="24.4095" y1="9.573" x2="25.3805" y2="11.7109"/><path class="a" d="M25.484,13.47v4.1891a3.485,3.485,0,0,1-.8049,2.2275l-1.402,1.6868"/></svg>