<?xml version="1.0" encoding="UTF-8"?>
<svg id="Layer_2" data-name="Layer 2" xmlns="http://www.w3.org/2000/svg" version="1.1" viewBox="0 0 48 48">
  <defs>
    <style>
      .cls-1 {
        fill: none;
        stroke:#000;
        stroke-linecap: round;
        stroke-linejoin: round;
      }
    </style>
  </defs>
  <path class="cls-1" d="M16.5,42.6L32.3,5.5M30,22.4l10.1,2.4M36.3,20.2v3.6M24.7,40c2.6-4,5.7-7.5,13.6-10.7M28.5,26.4c3.6,3.2,6.5,7.2,8.5,11.6M14.8,15h4.9c0,2.7-2.1,4.9-4.8,5,0,0,0,0,0,0-2.8,0-5-2.3-5-5s2.3-5,5-5c.8,0,1.7.2,2.4.6"/>
  <path class="cls-1" d="M38.5,5.5H9.5c-2.2,0-4,1.8-4,4v29c0,2.2,1.8,4,4,4h29c2.2,0,4-1.8,4-4V9.5c0-2.2-1.8-4-4-4Z"/>
</svg>