<svg xmlns="http://www.w3.org/2000/svg" viewBox="0 0 48 48"><defs><style>.a{fill:none;stroke:#000;stroke-linecap:round;stroke-linejoin:round;}</style></defs><path class="a" d="M24,4.5A16.24,16.24,0,0,0,7.76,20.74h0c0,8.51,7.74,15.58,16.24,16.18V43.5c8-2.23,16.24-12.47,16.24-22.76S33,4.5,24,4.5Z"/><path class="a" d="M32.575,24.248a30.6953,30.6953,0,0,1-3.1184-.5494,1.5391,1.5391,0,0,0-1.485.2871c-.2623.2672-1.02,1.0147-1.8067,1.7869a14.2014,14.2014,0,0,1-6.4843-6.4892c.7672-.7871,1.485-1.5394,1.777-1.8017a1.54,1.54,0,0,0,.2871-1.485,30.5975,30.5975,0,0,1-.5494-3.1234.99.99,0,0,0-1.0866-.8829c-.0174.0018-.0347.004-.0519.0067H15.84a.7426.7426,0,0,0-.6732.6782c-.2723,3.8064,1.8512,7.88,2.2819,8.6622v.03l.0594.1138h0a17.5411,17.5411,0,0,0,6.4348,6.4348h0l.2178.1238h0c.99.5246,4.9251,2.5046,8.6028,2.2324a.7425.7425,0,0,0,.688-.6732V25.3865a.99.99,0,0,0-.8242-1.1317c-.0172-.0028-.0346-.005-.0519-.0068Z"/></svg>