<?xml version="1.0" encoding="UTF-8"?><svg id="b" xmlns="http://www.w3.org/2000/svg" viewBox="0 0 48 48"><defs><style>.c{fill:none;stroke:#000;stroke-linecap:round;stroke-linejoin:round;}</style></defs><path class="c" d="m38.6591,40.3009c4.0655-3.7527,6.4109-9.2645,6.4109-15.8123,0-1.5245-.1368-2.9905-.3909-4.3977h-20.2491v8.3264h11.5709c-.5082,2.6777-2.0327,4.945-4.3195,6.4695"/><path class="c" d="m5.2364,33.6555c3.5377,7.0168,10.7891,11.8445,19.1936,11.8445,5.805,0,10.6718-1.9155,14.2291-5.1991l-6.9777-5.4141c-1.9155,1.29-4.3586,2.0718-7.2514,2.0718-5.59,0-10.3395-3.7723-12.04-8.8541"/><path class="c" d="m5.2364,14.3641c-1.4659,2.8927-2.3064,6.1568-2.3064,9.6359s.8405,6.7432,2.3064,9.6359l5.5705-4.3391s1.5832-1.2118,1.5832-1.2118c-.43-1.29-.6841-2.6582-.6841-4.085s.2541-2.795.6841-4.085"/><path class="c" d="m24.43,11.0609c3.1664,0,5.9809,1.0945,8.2286,3.2055l6.1568-6.1568c-3.7332-3.4791-8.5805-5.6095-14.3855-5.6095-8.4045,0-15.6559,4.8277-19.1936,11.8641l7.1536,5.5509c1.7005-5.0818,6.45-8.8541,12.04-8.8541Z"/></svg>