<?xml version="1.0" encoding="UTF-8"?><svg id="a" xmlns="http://www.w3.org/2000/svg" viewBox="0 0 48 48"><defs><style>.b,.c{fill:none;stroke:#000;stroke-linecap:round;stroke-linejoin:round;}.c{stroke-width:1px;}</style></defs><path class="b" d="M42.5797,32.8149l1.2184-2.1109c.2563-.4407,.1435-.9942-.246-1.312l-4.3255-3.3927c.082-.656,.1435-1.3222,.1435-1.9988s-.0615-1.3427-.1435-1.9988l4.3358-3.3927c.3895-.3075,.5022-.861,.246-1.312l-4.1-7.1033c-.2563-.4407-.7892-.6253-1.2505-.4407l-5.1045,2.0603c-1.0558-.8098-2.214-1.4965-3.4645-2.0193l-.7688-5.4325c-.0922-.4817-.5125-.861-1.025-.861h-8.2c-.5125,0-.9327,.3792-1.0147,.861l-.7688,5.4325c-1.2391,.5168-2.4041,1.1958-3.4645,2.0193l-5.1045-2.0603c-.4685-.1788-.9976,.0077-1.2505,.4407l-4.1,7.1033c-.2563,.4407-.1435,.9942,.246,1.312l4.3255,3.3927c-.0893,.6626-.1372,1.3302-.1435,1.9988,0,.6765,.0615,1.3427,.1435,1.9988l-4.3255,3.3927c-.3895,.3075-.5023,.861-.246,1.312l4.1,7.1033c.2562,.4407,.7893,.6252,1.2505,.4407l5.1045-2.0603c1.0558,.8097,2.214,1.4965,3.4645,2.0193l.7688,5.4325c.082,.4817,.5022,.861,1.0147,.861h8.2c.5125,0,.9327-.3793,1.0147-.861l.7688-5.4325c.59-.2461,1.1633-.529,1.7164-.8467"/><circle class="b" cx="23.9951" cy="24.0005" r="9.264"/><line class="b" x1="23.9951" y1="14.7365" x2="42.1348" y2="14.7365"/><line class="b" x1="31.0115" y1="30.0567" x2="19.1591" y2="44.1818"/><line class="b" x1="8.7636" y1="22.0017" x2="16.2545" y2="29.0921"/><g><path class="c" d="M39.3722,38.5c1.1046,0,2,.8954,2,2s-.8954,2-2,2h-3.3v-8h3.3c1.1046,0,2,.8954,2,2s-.8954,2-2,2h0Z"/><line class="c" x1="39.3722" y1="38.5" x2="36.0722" y2="38.5"/></g><circle class="b" cx="38.5" cy="38.5" r="7"/></svg>