<?xml version="1.0" encoding="UTF-8"?><svg id="b" xmlns="http://www.w3.org/2000/svg" viewBox="0 0 48 48"><defs><style>.c{fill:none;stroke:#000;stroke-linecap:round;stroke-linejoin:round;}</style></defs><path class="c" d="m37.5,42.5h0c2.7614,0,5-2.2386,5-5V10.5c0-2.7614-2.2386-5-5-5h0c-2.7614,0-5,2.2386-5,5v27c0,2.7614,2.2386,5,5,5Z"/><path class="c" d="m24,42.5h0c2.7614,0,5-2.2386,5-5v-16c0-2.7614-2.2386-5-5-5h0c-2.7614,0-5,2.2386-5,5v16c0,2.7614,2.2386,5,5,5Z"/><circle class="c" cx="10.5" cy="37.5" r="5"/></svg>