<?xml version="1.0" encoding="UTF-8"?><svg id="b" xmlns="http://www.w3.org/2000/svg" viewBox="0 0 48 48"><defs><style>.d{fill:none;stroke:#000;stroke-linecap:round;stroke-linejoin:round;}</style></defs><path class="d" d="M4.5,18.4602c0-5.3847,4.3653-9.75,9.75-9.75h14.1818c2.4477,0,4.4318,1.9841,4.4318,4.4318v21.7159c0,2.4477-1.9841,4.4318-4.4318,4.4318H8.9318c-2.4477,0-4.4318-1.9841-4.4318-4.4318v-16.3977Z"/><path class="d" d="M32.8636,18.3361l6.4261-4.6091c1.7639-1.2586,4.2102-.0089,4.2102,2.1627v17.222c0,2.145-2.4109,3.4036-4.1748,2.1893l-6.4616-4.4673"/><path class="d" d="M4.5,18.4602c0-5.3847,4.3653-9.75,9.75-9.75h14.1818c2.4477,0,4.4318,1.9841,4.4318,4.4318v21.7159c0,2.4477-1.9841,4.4318-4.4318,4.4318H8.9318c-2.4477,0-4.4318-1.9841-4.4318-4.4318v-16.3977Z"/><circle class="d" cx="11.1477" cy="32.642" r="3.1023"/></svg>