<?xml version="1.0" encoding="UTF-8"?><svg id="Layer_2" xmlns="http://www.w3.org/2000/svg" viewBox="0 0 48 48"><defs><style>.cls-1{fill:none;stroke:#000;stroke-linecap:round;stroke-linejoin:round;}</style></defs><path class="cls-1" d="m42.5319,33.3132c0,3.4139-2.7633,6.1773-6.1773,6.1773-2.2615,0-4.2442-1.2206-5.3161-3.036l-.1239-.2168-6.9146-12.0077-5.2665-9.1452-.1735-.2912-.0433-.0806c-.4461-.855-.6939-1.8278-.6939-2.8563,0-1.0471.2602-2.0385.7249-2.9059l.1673-.2912c1.0781-1.7844,3.0422-2.9802,5.2851-2.9802,2.5031,0,4.0904.9482,5.6259,3.6246v.0062l12.0138,20.7996.0682.1115c.5266.9046.824,1.9641.824,3.0918Z"/><path class="cls-1" d="m17.8227,33.3132c0,1.0657-.2726,2.0694-.7497,2.9492l-.1115.1983c-1.0781,1.8154-3.0546,3.0298-5.3161,3.0298-3.4139,0-6.1773-2.7634-6.1773-6.1773,0-1.0409.254-2.0199.7125-2.8811l.2354-.4089.0062-.0124c1.0967-1.7286,3.0236-2.8749,5.2231-2.8749,3.4077,0,6.1773,2.7634,6.1773,6.1773Z"/><path class="cls-1" d="m24,24.23l-6.927,12.0324"/><path class="cls-1" d="m6.4222,30.0108l12.1254-21.0599"/></svg>