<?xml version="1.0" encoding="UTF-8"?><svg id="b" xmlns="http://www.w3.org/2000/svg" viewBox="0 0 48 48"><defs><style>.e{fill:none;stroke:#000;stroke-linecap:round;stroke-linejoin:round;}.f{fill:#000;stroke-width:0px;}</style></defs><g id="c"><path id="d" class="e" d="M38.5,5.5H9.5c-2.2091,0-4,1.7909-4,4v29c0,2.2091,1.7909,4,4,4h29c2.2091,0,4-1.7909,4-4V9.5c0-2.2091-1.7909-4-4-4Z"/></g><path class="e" d="M20.2442,22.3462v5.0769c0,1.6993,1.3776,3.0769,3.0769,3.0769h0c1.6993,0,3.0769-1.3776,3.0769-3.0769v-5.0769"/><line class="e" x1="26.3981" y1="27.4231" x2="26.3981" y2="30.5"/><line class="e" x1="32.7632" y1="18.1923" x2="32.7632" y2="30.5"/><line class="e" x1="32.7644" y1="27.8855" x2="38.3354" y2="22.3418"/><line class="e" x1="34.5375" y1="26.1212" x2="38.917" y2="30.4815"/><circle class="f" cx="29.4708" cy="18.5769" r=".75"/><line class="e" x1="29.4708" y1="22.3462" x2="29.4708" y2="30.5"/><line class="e" x1="17.2368" y1="30.5" x2="13.1597" y2="26.4718"/><rect class="e" x="9.083" y="18.1923" width="8.1539" height="12.3077" rx="4.0769" ry="4.0769"/></svg>