<?xml version="1.0" encoding="UTF-8"?><svg id="b" xmlns="http://www.w3.org/2000/svg" viewBox="0 0 48 48"><defs><style>.c{fill:none;stroke:#000;stroke-linecap:round;stroke-linejoin:round;}.d{fill:#000;stroke-width:0px;}</style></defs><path class="c" d="M9.5,42.5h29c2.2091,0,4-1.7909,4-4V9.5c0-2.2091-1.7909-4-4-4H9.5c-2.2091,0-4,1.7909-4,4v29c0,2.2091,1.7909,4,4,4Z"/><polyline class="c" points="26.6637 21.0621 24.4464 26.9379 22.2291 21.0621"/><path class="c" d="M13.9346,21.0621v6.6519c0,1.2246-.9927,2.2173-2.2173,2.2173h0c-.6123,0-1.1666-.2482-1.5678-.6494"/><rect class="c" x="9.5" y="21.0621" width="4.4346" height="5.8759" rx="2.2173" ry="2.2173" transform="translate(23.4346 48) rotate(180)"/><rect class="c" x="16.0853" y="21.0621" width="4.4346" height="5.8759" rx="2.2173" ry="2.2173"/><path class="c" d="M36.2827,23.2794c0-1.2246.9927-2.2173,2.2173-2.2173h0"/><line class="c" x1="36.2827" y1="21.0621" x2="36.2827" y2="26.9379"/><path class="c" d="M29.7033,23.2794c0-1.2246.9927-2.2173,2.2173-2.2173h0c1.2246,0,2.2173.9927,2.2173,2.2173v1.4413c0,1.2246-.9927,2.2173-2.2173,2.2173h0c-1.2246,0-2.2173-.9927-2.2173-2.2173"/><line class="c" x1="29.7033" y1="26.9379" x2="29.7033" y2="18.0687"/><circle class="d" cx="27.2652" cy="26.7242" r=".75"/></svg>