<svg xmlns="http://www.w3.org/2000/svg" viewBox="0 0 48 48"><defs><style>.a{fill:none;stroke:#000;stroke-linecap:round;stroke-linejoin:round;}</style></defs><path class="a" d="M40.5,5.5H7.5a2,2,0,0,0-2,2v33a2,2,0,0,0,2,2h33a2,2,0,0,0,2-2V7.5A2,2,0,0,0,40.5,5.5Z"/><path class="a" d="M17.1749,21.1094a3.8413,3.8413,0,0,0-4.0438-3.84A3.9893,3.9893,0,0,0,9.5,21.327v3.5636a3.8416,3.8416,0,0,0,3.8375,3.8457h0a3.8416,3.8416,0,0,0,3.8374-3.8458H13.3375"/><path class="a" d="M19.77,24.0038a2.8681,2.8681,0,0,1,2.8681-2.8681h0"/><line class="a" x1="19.7698" y1="24.0038" x2="19.7698" y2="28.7363"/><path class="a" d="M30.083,25.8682a2.8681,2.8681,0,0,1-2.8681,2.8681h0a2.8682,2.8682,0,0,1-2.8682-2.8681V24.0038a2.8682,2.8682,0,0,1,2.8682-2.8681h0a2.8681,2.8681,0,0,1,2.8681,2.8681"/><line class="a" x1="30.083" y1="28.7363" x2="30.083" y2="21.1357"/><path class="a" d="M32.7637,24.0038a2.8681,2.8681,0,0,1,2.8681-2.8681h0A2.8681,2.8681,0,0,1,38.5,24.0038v1.8644a2.8681,2.8681,0,0,1-2.8681,2.8681h0a2.8681,2.8681,0,0,1-2.8681-2.8681"/><line class="a" x1="32.7637" y1="28.7363" x2="32.7637" y2="17.2637"/></svg>