<?xml version="1.0" encoding="UTF-8"?><svg id="b" xmlns="http://www.w3.org/2000/svg" viewBox="0 0 48 48"><defs><style>.d{fill:none;stroke:#000;stroke-linecap:round;stroke-linejoin:round;}</style></defs><rect class="d" x="5.5" y="5.5" width="37" height="37" rx="4" ry="4"/><path class="d" d="M14.1171,22.1419v-7.4325h1.7783c1.0053,0,1.8203.8167,1.8203,1.8242s-.815,1.8242-1.8203,1.8242h-1.7783"/><line class="d" x1="15.8953" y1="18.3579" x2="17.6734" y2="22.1405"/><polyline class="d" points="24.8578 22.1412 24.8578 14.7094 28.4564 22.1412 28.4564 14.7094"/><polyline class="d" points="30.2282 22.1412 30.2282 14.7094 33.8268 22.1412 33.8268 14.7094"/><polyline class="d" points="39.1972 14.7094 37.3979 19.4253 35.5986 14.7094"/><line class="d" x1="37.3979" y1="22.1412" x2="37.3979" y2="19.4253"/><line class="d" x1="22.49" y1="19.6794" x2="20.0835" y2="19.6794"/><polyline class="d" points="19.4874 22.1412 21.2867 14.7094 23.086 22.1412"/><path class="d" d="M12.4014,16.5087c0-.9937-.8056-1.7993-1.7993-1.7993h0c-.9937,0-1.7993.8056-1.7993,1.7993v3.8339c0,.9937.8056,1.7993,1.7993,1.7993h0c.9937,0,1.7993-.8056,1.7993-1.7993v-.9847h-1.7993"/><path class="d" d="M21.7182,28.684c0-1.4082,1.2757-2.5185,2.7346-2.2382.9569.1839,1.7211,1.0115,1.8163,1.9812.0709.7213-.1574,1.4331-.6557,1.8704-.9231.81-3.8952,2.9931-3.8952,2.9931h4.5635"/></svg>