<?xml version="1.0" encoding="UTF-8"?><svg id="b" xmlns="http://www.w3.org/2000/svg" viewBox="0 0 48 48"><defs><style>.c{fill:none;stroke:#000;stroke-linecap:round;stroke-linejoin:round;}</style></defs><path class="c" d="m43.2244,33.6359c.6638-1.2497-.0292-2.94-1.7667-2.94h-18.1387c-.5867,0-1.0624.4756-1.0624,1.0624v3.5119s.3457-1.8084,4.787-1.8084c5.1593,0,6.1699,8.2442-3.936,8.2442-5.6912,0-11.8611-6.1167-11.8611-10.9779,0-5.3509,1.7552-7.6313,4.1487-10.2443,1.702,7.1273,9.6271,10.2122,16.8076,10.2122s14.4673-6.0635,12.3731-12.9474l.001-.0003c-2.6778-8.8249-10.8772-15.2481-20.5769-15.2481C12.1259,2.5,2.5,12.1259,2.5,24s9.6259,21.5,21.5,21.5c8.4096,0,15.6915-4.8282,19.2249-11.8639l-.0005-.0003Z"/><path class="c" d="m2.7862,27.5078c5.8009-10.8006,12.8927-16.5449,24.8779-16.5449,11.4178,0,17.1936,8.0428,17.1936,8.0428"/><path class="c" d="m18.1905,3.2961c7.417,3.0571,17.771,9.6525,15.7292,27.2834"/><path class="c" d="m6.4149,21.6908c0,8.5835,3.5644,21.8092,18.3639,21.8092,12.1756,0,18.229-12.1311,18.229-12.1311"/></svg>