<?xml version="1.0" encoding="UTF-8"?><svg id="a" xmlns="http://www.w3.org/2000/svg" viewBox="0 0 48 48"><defs><style>.b{fill:#000;}.c{fill:none;stroke:#000;stroke-linecap:round;stroke-linejoin:round;}</style></defs><path class="c" d="M18.1736,26.384c-.3358-1.1755.4198-2.267,1.5953-2.5189h0"/><line class="c" x1="17.6698" y1="24.4528" x2="19.0132" y2="29.7425"/><circle class="b" cx="21.616" cy="20.8425" r=".75"/><line class="c" x1="22.2038" y1="23.2774" x2="23.5472" y2="28.567"/><path class="c" d="M24.4707,19.9189l1.7632,7.0528c.084.5038.7557.9236,1.2594.7557h.3358"/><path class="c" d="M28.0811,18.9953l1.7632,7.0528c.084.5038.7557.9236,1.2594.7557h.3359"/><path class="c" d="M38.6604,21.3462c-.3359-1.1755-1.3434-1.7632-2.5189-1.5953h0c-1.1755.3358-1.7632,1.3434-1.5953,2.5189l.3359,1.3434c.3359,1.1755,1.3434,1.7632,2.5189,1.5953h0c1.1755-.3358,1.7632-1.3434,1.5953-2.5189"/><line class="c" x1="39.5" y1="24.6208" x2="37.5689" y2="16.6443"/><path class="c" d="M13.8075,25.2925c-.4198-1.4274-1.8472-2.3509-3.2745-1.9311h0c-1.4274.4198-2.3509,1.8472-1.9311,3.2745l.5877,2.6868c.4198,1.4274,1.8472,2.3509,3.2745,1.9311h0c1.4274-.4198,2.3509-1.8472,1.9311-3.2745l-2.6868.5877"/><path class="c" d="M31.5978,20.0209c.4198-.4198.4285-.8952.3359-1.1755l-.1679-.5877"/><circle class="b" cx="31.5236" cy="18.3236" r=".75"/><rect class="c" x="5.5" y="5.5" width="37" height="37" rx="4" ry="4"/></svg>