<svg xmlns="http://www.w3.org/2000/svg" viewBox="0 0 48 48"><defs><style>.a{fill:none;stroke:#000;stroke-linecap:round;stroke-linejoin:round;}</style></defs><path class="a" d="M11.6631,4.7141,23.7983,7.3035,35.9634,4.5l-.03,6.2792L24.2017,13.9363,11.8274,11.0232Z"/><path class="a" d="M11.7428,15.231l2.35,7.6038,2.0218.04c.7071,3.1371.7618,3.7745,1.25,6.0253h1.6582c1.0208,3.6351,2.6093,7.28,3.64,10.5168h2.51c1.4939-3.8043,2.9579-7.3,4.4916-11.1641l1.5337-.04,1.5785-6.8369h1.6184l1.3345-6.2693-7.564.1245-.8067,6.1448H25.74l-.1693,6.8768H22.419L22.0156,21.5H20.1134L19.75,15.226Z"/><path class="a" d="M12.3105,34.8853l4.0483,8.2114,1.1752-2.1014L22.4289,43.5l-3.9637-8.047-1.0507,1.8176Z"/><path class="a" d="M25.4964,43.3008,29.5,35.5725l.8914,2.0616,5.9456-2.3853L31.8453,42.773l-.8465-2.0217Z"/><path class="a" d="M24.0025,39.2923V28.3372"/></svg>