<svg xmlns="http://www.w3.org/2000/svg" id="b" viewBox="0 0 48 48"><defs><style>.j{fill:none;stroke:#000;stroke-linecap:round;stroke-linejoin:round;}</style></defs><path class="j" d="m7.6506,14.8946v18.2104" id="c"/><path class="j" d="m9.8982,11.7462v24.5081" id="c"/><path class="j" d="m12.3939,8.1836v31.6329" id="c"/><path class="j" d="m14.7601,4.5v39" id="c"/><path class="j" d="m14.7601,24.041h18.4798"/><path id="d" class="j" d="m17.2161,8.4046v13.3129h13.5197v-13.3536"/><path class="j" d="m40.3494,14.8946v18.2104" id="e"/><path class="j" d="m38.1018,11.7462v24.5081" id="e"/><path class="j" d="m35.6061,8.1836v31.6329" id="e"/><path class="j" d="m33.2399,4.5v39" id="e"/><path id="f" class="j" d="m17.2161,8.4046v13.3129h13.5197v-13.3536"/><path class="j" d="m21.8745,15.2006v1.933h4.1809v-1.9389" id="f"/><path class="j" d="m19.4894,11.8047v7.5987h8.9838v-7.6221" id="f"/><path id="h" class="j" d="m17.2161,39.7339v-13.3129h13.5197v13.3536"/><path class="j" d="m21.8745,32.9379v-1.933h4.1809v1.9389" id="h"/><path class="j" d="m19.4894,36.3337v-7.5987h8.9838v7.6221" id="h"/></svg>