<?xml version="1.0" encoding="utf-8"?>
<!-- Generator: Adobe Illustrator 25.3.0, SVG Export Plug-In . SVG Version: 6.00 Build 0)  -->
<svg version="1.1" id="Layer_1" xmlns="http://www.w3.org/2000/svg" xmlns:xlink="http://www.w3.org/1999/xlink" x="0px" y="0px"
	 viewBox="0 0 48 48" style="enable-background:new 0 0 48 48;" xml:space="preserve">
<style type="text/css">
	.st0{fill:none;stroke:#000000;stroke-linecap:round;stroke-linejoin:round;stroke-opacity:0.99;}
	.st1{fill:none;stroke:#000000;stroke-linecap:round;stroke-linejoin:round;}
	.st2{fill:none;stroke:#000000;stroke-linejoin:round;}
	.st3{fill:none;stroke:#000000;stroke-width:0.99;stroke-linejoin:round;}
</style>
<rect x="4.5" y="14.8" class="st0" width="39" height="24.5"/>
<path class="st1" d="M4.5,14.8L12,8.7h24.8l6.7,6.2"/>
<circle class="st0" cx="14.4" cy="18.2" r="2"/>
<circle class="st0" cx="8.2" cy="18.2" r="1.6"/>
<circle class="st0" cx="20.4" cy="18.2" r="1.6"/>
<circle class="st0" cx="11.7" cy="32.3" r="2.8"/>
<path class="st1" d="M11.7,32.4l1.7-1.8"/>
<rect x="31.4" y="24.4" class="st0" width="10.4" height="10.6"/>
<rect x="20.1" y="25.7" class="st0" width="9.2" height="8.2"/>
<circle class="st0" cx="22.7" cy="31" r="1.1"/>
<circle cx="21.8" cy="27.8" r="0.8"/>
<circle cx="24.7" cy="27.8" r="0.8"/>
<circle cx="27.6" cy="27.8" r="0.8"/>
<rect x="23.5" y="14.8" class="st0" width="20" height="5.8"/>
<path class="st1" d="M26.6,18.7l1.4-1.3l0.8,1.5l1.3-2.1l1.2,2.8l1.2-1.5l0.6,0.6l0.5-0.6h3.5l0.7,0.5l1.4-2l0.6,2.6"/>
<circle class="st1" cx="11.9" cy="25.4" r="0.8"/>
<path class="st1" d="M12,26.2V28"/>
<circle class="st1" cx="16.7" cy="25.4" r="0.8"/>
<path class="st1" d="M16.7,26.2V28"/>
<circle class="st1" cx="7.4" cy="25.4" r="0.8"/>
<path class="st1" d="M7.4,26.2V28"/>
<path class="st2" d="M31.7,25.3h1.1"/>
<path class="st2" d="M31.7,27.5h1.1"/>
<path class="st2" d="M31.7,29.7h1.1"/>
<path class="st2" d="M31.7,32h1.1"/>
<path class="st2" d="M31.7,34.2h1.1"/>
<path class="st2" d="M32.8,26.4h1.1"/>
<path class="st2" d="M32.8,28.6h1.1"/>
<path class="st2" d="M32.8,30.8h1.1"/>
<path class="st2" d="M32.8,33.1h1.1"/>
<path class="st3" d="M33.9,25.3H35"/>
<path class="st3" d="M33.9,27.5H35"/>
<path class="st3" d="M33.9,29.7H35"/>
<path class="st3" d="M33.9,32H35"/>
<path class="st3" d="M33.9,34.2H35"/>
<path class="st2" d="M35,26.4h1.1"/>
<path class="st2" d="M35,28.6h1.1"/>
<path class="st2" d="M35,30.8h1.1"/>
<path class="st2" d="M35,33.1h1.1"/>
<path class="st3" d="M36.1,25.3h1.1"/>
<path class="st3" d="M36.1,27.5h1.1"/>
<path class="st3" d="M36.1,29.7h1.1"/>
<path class="st3" d="M36.1,32h1.1"/>
<path class="st3" d="M36.1,34.2h1.1"/>
<path class="st2" d="M37.3,26.4h1.1"/>
<path class="st2" d="M37.3,28.6h1.1"/>
<path class="st2" d="M37.3,30.8h1.1"/>
<path class="st2" d="M37.3,33.1h1.1"/>
<path class="st3" d="M38.4,34.2h1.1"/>
<path class="st3" d="M38.4,32h1.1"/>
<path class="st3" d="M38.4,29.7h1.1"/>
<path class="st3" d="M38.4,27.5h1.1"/>
<path class="st3" d="M38.4,25.3h1.1"/>
<path class="st2" d="M39.5,26.4h1.1"/>
<path class="st2" d="M39.5,28.6h1.1"/>
<path class="st2" d="M39.5,30.8h1.1"/>
<path class="st2" d="M39.5,33.1h1.1"/>
<path class="st3" d="M40.6,25.3h1.1"/>
<path class="st3" d="M40.6,27.5h1.1"/>
<path class="st3" d="M40.6,29.7h1.1"/>
<path class="st3" d="M40.6,32h1.1"/>
<path class="st3" d="M40.6,34.2h1.1"/>
</svg>
