<?xml version="1.0" encoding="UTF-8"?><svg id="a" xmlns="http://www.w3.org/2000/svg" viewBox="0 0 48 48"><defs><style>.b{fill:none;stroke:#000;stroke-linecap:round;stroke-linejoin:round;}</style></defs><path class="b" d="M16.012,14.467l.1632,1.0605c.0539.35.1225.6986.145,1.052.0344.5403-.0626,1.0791-.1183,1.6176-.2067,1.9971.1646,4.0447,1.0179,5.862s2.1821,3.4029,3.7954,4.5981c.1341.0993.2714.1968.4243.2635.258.1125.5463.1317.8278.1337,2.0152.014,4.0234-.8103,5.4473-2.2362"/><path class="b" d="M15.547,14.5779c.0632-.0798.1323-.155.2065-.2247.1736-.1632.3742-.2958.5855-.406.4628-.2414.9735-.3753,1.4841-.483,4.5417-.9573,9.4738.1259,13.1964,2.8981"/><path class="b" d="M15.436,11.3886c.0666.066.1313.1339.194.2035.0785.0872.1549.1785.2045.2848.0496.1063.0704.2304.0343.342-.0197.0609-.0552.1154-.0907.1687-.0356.0533-.072.1069-.0939.1671-.0265.0725-.0307.1515-.0243.2284.0065.0769.0233.1525.038.2282.0189.0972.0345.196.0288.2949-.0057.0989-.0341.1987-.0953.2765-.0577.0734-.1402.1226-.2226.1665-.0824.0439-.1678.085-.2372.1474-.0601.054-.1066.1234-.1312.2004-.0245.077-.0267.1613-.0034.2386.0305.1015.1055.1888.2013.2342.0958.0455.2108.0484.3087.0079"/><path class="b" d="M15.436,11.3886l.3149-.3259c.1132-.1171.2326-.2299.3716-.3147.139-.0848.2924-.1428.4456-.198,1.02-.3677,2.0509-.7136,3.1112-.9396,3.8757-.8261,8.0838.0538,11.3038,2.3636"/><path class="b" d="M31.0189,16.3624c-.0075-.1162-.0146-.2325-.0211-.3487-.0753-1.3451-.0803-2.6941-.015-4.0396"/><path class="b" d="M20.6925,23.1168l.0378,1.0984,2.4042-.0645c-.0167-.0639-.0346-.1275-.0537-.1907-.0448-.1486-.0978-.2983-.1938-.4201-.1278-.1621-.3201-.2599-.5137-.3315-.5343-.1975-1.1283-.2299-1.6808-.0916h0Z"/><path class="b" d="M21.9335,21.5766c-.2287-.1422-.4339-.322-.605-.53-.0884-.1075-.1688-.2245-.2123-.3567-.0623-.1892-.0445-.3968.0085-.5888.053-.192.1397-.3726.2163-.5564.3874-.9296.5195-1.9641.3781-2.9612"/><path class="b" d="M31.0189,16.3624c-.0077.2274-.0213.4546-.0408.6814-.0805.9391-.2608,1.8662-.4076,2.7971-.0218.1384-.0429.2769-.0632.4155"/><path class="b" d="M30.5083,20.2566l.319-.0165c.0519-.0027.104-.0071.1547-.0188.0507-.0117.0997-.0295.1489-.0465.0982-.0338.1993-.0626.303-.0682.1037-.0056.2111.0135.2987.0692.0743.0473.1306.1182.179.1918.165.2511.2522.5447.3194.8375.0845.3679.1411.7442.1333,1.1216-.0078.3774-.0818.7568-.2481,1.0957-.1841.3751-.4809.694-.8419.9045-.361.2105-.7847.3118-1.2018.2873"/><path class="b" d="M30.3974,23.8426c-.1181.0223-.2333.06-.3418.1118-.1438.0687-.2767.1632-.3794.2851-.1571.1864-.2358.4253-.3009.6603-.1291.4657-.218.966-.0745,1.4275.0429.1381.1071.2713.2021.3802s.2229.1924.3649.2194c.1317.025.2706.0003.3908-.059.1203-.0593.2225-.1518.3028-.2591.1051-.1405.1734-.3059.217-.4759s.0632-.3451.0776-.52c.0305-.3683.0388-.7384.0248-1.1077"/><path class="b" d="M16.8975,16.3446c.1079.0867.2048.1871.2877.2979.054.0722.1021.149.141.2304.0804.1682.1204.3556.1156.542.1264.1451.2752.2708.4394.3712.4338.2653.9874.3437,1.4647.1682.2386-.0877.4553-.2365.6184-.4315.1632-.195.2718-.4361.3042-.6882.0275-.2146.0004-.4327-.0427-.6447-.0301-.1478-.0685-.2953-.1352-.4306s-.1635-.2588-.2918-.3383c-.1384-.0858-.3056-.1156-.4684-.1125s-.3232.0374-.4824.0716c-.3307.071-.6659.1439-.9657.3005-.1499.0783-.2899.1774-.4056.3007-.1157.1233-.2068.2713-.2543.4337-.0216.0739-.0341.1505-.0372.2275"/><path class="b" d="M28.7192,16.9183c-.1304.2599-.3984.4455-.6875.4762-.1443.0153-.293-.0052-.433.0329-.0855.0233-.1643.0679-.2337.1231-.0693.0552-.1296.121-.1852.1901-.1112.1381-.2055.2908-.3326.4144-.1466.1427-.3329.2415-.5296.2976s-.4039.0706-.6081.0578c-.4084-.0256-.8012-.1579-1.1941-.2723-.1374-.04-.281-.081-.386-.1782-.0555-.0514-.0975-.1167-.1256-.187-.0281-.0703-.0426-.1456-.0473-.2211-.0095-.1511.0196-.3016.0489-.4502.062-.3146.1258-.6302.1434-.9503.0089-.1623.0064-.3281.0564-.4828.025-.0773.0633-.1512.1184-.211s.1275-.1049.2073-.1205c.0558-.0109.1132-.0077.1699-.0048s.1135.0048.1703.0048h.5898c.2014,0,.4051.0092.5977.068.1926.0587.3694.1612.5313.281.3034.2244.5643.506.7649.8256l.2173.811"/><path class="b" d="M17.2252,10.3211c.0035-.3745.0465-.7487.1281-1.1143.202-.9049.6445-1.755,1.2699-2.4395.6254-.6845,1.4322-1.2017,2.3152-1.4843"/><path class="b" d="M19.274,9.7029c-.0308-.275-.0471-.5516-.0489-.8284-.0033-.495.0405-.9936.1777-1.4692.3368-1.1675,1.2629-2.1485,2.4091-2.5519"/><path class="b" d="M18.3528,25.9732c-.0262.375-.039.7509-.0383,1.1268.0004.2645.0076.5289.0163.7933.0128.3878.029.776.0775,1.1609.0464.3681.1224.7362.1003,1.1066-.0111.1852-.0472.3701-.1213.5402-.0741.1701-.1874.325-.3367.4351-.1533.1132-.3428.1765-.5334.1783"/><path class="b" d="M28.8657,27.0475l.4344-.7204-.4276.7204c-.3166.6316-.6038,1.278-.8604,1.9363-.746,1.9141-1.2317,3.9297-1.4394,5.9734"/><path class="b" d="M18.0509,31.1362c.3324.8787.739,1.7293,1.2141,2.5399.7312,1.2475,1.6205,2.3943,2.521,3.5257.335.4208.6732.8415,1.0619,1.2132s.8317.6953,1.3321.8926c.3278.1292.6758.2025,1.0261.2401.2497.0268.5026.0358.7514.0025.2489-.0332.4943-.1098.7062-.2447.2299-.1463.4138-.3569.5573-.5885s.2487-.4847.3445-.7397c.7199-1.9163.9364-4.0194.6219-6.042"/><ellipse class="b" cx="26.005" cy="40.4339" rx=".5385" ry=".879" transform="translate(-4.4833 3.2637) rotate(-6.6128)"/><path class="b" d="M17.5182,31.3144c-.3331.0556-.6563.1709-.9494.3386-.2242.1283-.4298.2863-.6337.4449-1.2161.9461-2.3998,1.9341-3.5401,2.9705-.5736.5214-1.138,1.057-1.6239,1.6609-.346.4299-.6522.8961-.864,1.4057-.273.6569-.3828,1.3701-.4394,2.0792-.0713.8934-.0615,1.7933.0293,2.685"/><path class="b" d="M30.4573,11.6148c.0395-.1517.1129-.2946.2132-.415.0439-.0526.0934-.1015.1523-.1364.0589-.0349.1281-.0553.1962-.0483.0542.0056.1061.0284.1493.0616s.0782.0766.1049.1241c.0534.0951.074.2047.0901.3126.0793.5312.0691,1.0711.0689,1.6082-.0009,2.3214.193,4.6686.9209,6.8729.2605.7889.5887,1.5577.776,2.3672.3372,1.4574.1998,3.0029-.2654,4.4247-.3719,1.1369-.9466,2.2-1.3061,3.341-.1622.5147-.28,1.0439-.3394,1.5803-.1181,1.0672-.0016,2.16.3411,3.1776.3694,1.0973.9984,2.1129,1.1942,3.2542.0876.5105.0848,1.0389-.0333,1.5432-.137.5851-.4301,1.1329-.8409,1.5716-.4108.4386-.9382.767-1.5131.942"/><path class="b" d="M27.9356,29.2767c.0131.2926.0538.584.1215.869.1191.5015.3205.9797.5411,1.4456.2765.5837.5851,1.1537.8118,1.7585.339.9045.4885,1.8756.4776,2.8415-.008.7125-.1019,1.4283-.012,2.1352.0374.2943.1069.5853.2164.8611.1604.4042.4072.7738.7189,1.077"/><path class="b" d="M31.2742,24.3268l.0962,1.5595c.0317.514.0699,1.0296.1808,1.5325.1109.5029.2933.9902.5443,1.4398.5021.8992,1.2724,1.6107,1.995,2.3448.5937.6031,1.1705,1.2756,1.3764,2.0965.1674.6674.0733,1.3679.0202,2.0539-.0438.5657-.0585,1.1397.0555,1.6955.2002.9759.8113,1.8606,1.6532,2.3934"/><path class="b" d="M28.4395,28.2966l2.087.6404c.969.2973,1.9663.5144,2.9019.9047.9503.3964,1.7975,1.0215,2.5006,1.7736,1.1029,1.1799,1.8574,2.6842,2.1301,4.276.2004,1.1694.1449,2.365.1634,3.5512.0212,1.3587.1406,2.7159.3568,4.0575"/><path class="b" d="M35.925,31.6161c.2331-.3242.4662-.6483.6214-1.0566.1552-.4083.2324-.9008.2266-1.459-.0057-.5582-.0946-1.182-.2173-1.6192-.1228-.4372-.2795-.6877-.2667-1.0499.0128-.3622.1952-.8361.3428-1.3868s.2604-1.1782.1681-1.7899c-.0923-.6117-.3896-1.2076-.6802-1.7873-.2906-.5796-.5746-1.143-.7881-1.6664s-.3567-1.0072-.4136-1.555c-.0569-.5478-.0276-1.1598.0337-1.8188s.1547-1.3649.04-2.0644c-.1146-.6995-.4372-1.3923-.7852-2.0927-.348-.7003-.7214-1.4081-1.0146-2.1025-.2932-.6945-.5061-1.3756-.6841-1.9342s-.3211-.9947-.5512-1.2612c-.2302-.2664-.5475-.3632-.8951-.3302-.3476.033-.7255.1958-1.1027.5281-.3773.3323-.7539.834-1.0842,1.3903-.3303.5563-.6142,1.1671-.8981,1.778"/><path class="b" d="M21.6137,9.3401c-.0355-.2761-.0712-.5521-.1122-1.4206-.0412-.8685-.0879-2.3293.2084-2.9116.2963-.5823.9356-.2859,1.5748.0105"/><path class="b" d="M22.8016,9.308c.0624-1.7635.125-3.527.4779-4.2895.3529-.7626.9962-.5241,1.6394-.2857"/><path class="b" d="M24.4646,9.4188c.0113-1.785.0215-3.5699.362-4.3165s1.0108-.4548,1.681-.163"/><path class="b" d="M25.3471,9.5297c.3339-1.928.6677-3.8559,1.1673-4.5904.4996-.7344,1.1649-.2753,1.8303.1839"/><path class="b" d="M26.3653,9.814c.0867-.4071.1732-.8143.5-1.7479s.8935-2.3939,1.4743-2.9428c.5808-.5489,1.1757-.1866,1.7705.1757"/><path class="b" d="M27.2364,9.9249c.2435-.7383.487-1.4765,1.0158-2.404.5288-.9274,1.3429-2.0439,1.8596-2.222.5167-.1781.7358.5821.955,1.3424"/><path class="b" d="M29.6122,11.1053c.0045-.2274.0091-.4549.0522-.7813.043-.3264.1245-.7517.2862-1.1148.1617-.3631.4037-.6639.664-.7697.2603-.1057.539-.0164.7918.1839.2528.2003.4798.5114.6327,1.0131.1529.5017.2318,1.194.2932,2.0768.0614.8828.1053,1.9561.2858,2.8461.1805.8901.4977,1.597.7206,2.1914.2229.5945.3515,1.0766.4166,1.8131.0651.7364.0666,1.7271.1018,2.5352s.1041,1.4338.173,2.0596"/><path class="b" d="M34.0244,23.1583c-.0333.3524-.0666.7048.0057,1.1295.0721.4247.2495.9216.4173,1.5682.1678.6467.3259,1.4431.394,2.2694.068.8263.0459,1.6825.0239,2.5387"/><path class="b" d="M17.7332,8.0997c-.3216.1576-.6431.3153-.9321.6229s-.5455.7653-.6841,1.1507-.1591.6985-.1796,1.0116"/><path class="b" d="M18.627,6.7675c-.5421.178-1.0842.3559-1.5216.5797-.4374.2238-.7702.4934-1.2175,1.0153-.4473.5218-1.0091,1.2958-1.3878,2.0519-.3787.7561-.5743,1.4941-.697,2.2309-.1227.7368-.1727,1.4723-.2088,2.1844-.0361.712-.0584,1.4005-.0937,1.9691-.0352.5686-.0834,1.0172-.2699,1.6132-.1865.5959-.5114,1.339-.7516,1.9217s-.3958,1.005-.4735,1.4464c-.0777.4415-.0774.9022-.0374,1.3553s.1196.8989.2458,1.3338.299.8593.4406,1.3201c.1416.4609.2522.9585.2646,1.575.0124.6165-.0731,1.3521-.2089,2.1691-.1358.8171-.3218,1.7158-.3206,2.5963.0011.8805.1897,1.7427.3782,2.6049"/><path class="b" d="M15.2443,14.5703c-.0157.4266-.0315.8531.0011,1.313.0329.4599.1145.9531.1553,1.4843.0408.5313.0408,1.1006.08,1.7305.0391.6299.1176,1.3204.0895,2.1281-.0281.8077-.1626,1.7326-.2284,2.4919-.0657.7593-.0628,1.3528.0132,1.9459.076.593.225,1.1855.4285,1.7318s.4614,1.0465.678,1.58.3917,1.1005.4614,1.762c.0697.6616.0341,1.4179-.0985,2.008-.1326.59-.362,1.0138-.5313,1.8051-.1692.7914-.2782,1.9503-.0448,3.0686.2334,1.1183.8093,2.196,1.3851,3.2736"/></svg>