<?xml version="1.0" encoding="UTF-8"?><svg id="b" xmlns="http://www.w3.org/2000/svg" viewBox="0 0 48 48"><defs><style>.j{fill:none;stroke:#000;stroke-linecap:round;stroke-linejoin:round;}</style></defs><path id="c" class="j" d="M9.5,18.3285v11.3429"/><path id="d" class="j" d="M9.5,24.9924c0-1.5661,1.2698-2.836,2.836-2.836s2.8355,1.2698,2.8355,2.836v4.679"/><path id="e" class="j" d="M22.4864,28.3248c-.4598.8044-1.326,1.3467-2.3185,1.3467-1.4739,0-2.6689-1.1945-2.6689-2.6684v-1.7349c0-1.4739,1.195-2.6684,2.6689-2.6684s2.6684,1.1945,2.6684,2.6684v.8672h-5.3373"/><path id="f" class="j" d="M38.1501,28.3248c-.4598.8044-1.326,1.3467-2.3185,1.3467-1.4739,0-2.6689-1.1945-2.6689-2.6684v-1.7349c0-1.4739,1.195-2.6684,2.6689-2.6684s2.6684,1.1945,2.6684,2.6684v.8672h-5.3373"/><path id="g" class="j" d="M25.2358,25.1113c0-1.5263,1.2376-2.7639,2.7639-2.7639s2.7634,1.2376,2.7634,2.7639v1.7962c0,1.5263-1.2371,2.7639-2.7634,2.7639s-2.7639-1.2376-2.7639-2.7639"/><path id="h" class="j" d="M25.2358,29.6715v-11.0546"/><rect id="i" class="j" x="5.5" y="5.5" width="37" height="37" rx="4" ry="4"/></svg>