<?xml version="1.0" encoding="UTF-8"?><svg id="b" xmlns="http://www.w3.org/2000/svg" viewBox="0 0 48 48"><defs><style>.c{fill:none;stroke:#000;stroke-linecap:round;stroke-linejoin:round;}</style></defs><path class="c" d="M26.8512,32.2377c.4906.6387,1.1057.8765,1.9615.8765h1.1844c1.1022,0,1.9957-.8935,1.9957-1.9957v-.0086c0-1.1022-.8935-1.9957-1.9957-1.9957h-1.3065c-1.1034,0-1.9978-.8945-1.9978-1.9978,0-1.1058.8964-2.0022,2.0022-2.0022h1.1779c.8558,0,1.4709.2379,1.9615.8765"/><path class="c" d="M14.5635,33.1142v-8h2.619c1.4807,0,2.681,1.2029,2.681,2.6867s-1.2003,2.6867-2.681,2.6867h-2.619"/><path class="c" d="M17.1826,30.4875l2.6189,2.6245"/><path class="c" d="M8.8878,29.1141h2.6"/><path class="c" d="M8.8878,33.1142v-8h4"/><path class="c" d="M39.1122,17.5511c0-1.4635-1.1864-2.65-2.65-2.65s-2.65,1.1865-2.65,2.65v2.7c0,1.4636,1.1865,2.65,2.65,2.65s2.65-1.1864,2.65-2.65v-2.7Z"/><path class="c" d="M22.3251,14.9009v8h4"/><path class="c" d="M28.3994,14.8858v8h4"/><path class="c" d="M16.419,18.8858h2.608"/><path class="c" d="M20.419,22.8858h-4v-8h4"/><path class="c" d="M21.5393,29.1141h2.608"/><path class="c" d="M25.5393,33.1142h-4v-8h4"/><path class="c" d="M8.8878,14.9009v8"/><path class="c" d="M14.1878,14.9009v8"/><path class="c" d="M8.8878,18.8858h5.3"/><path class="c" d="M33.8122,25.1141v8"/><path class="c" d="M39.1122,25.1141v8"/><path class="c" d="M33.8122,29.0989h5.3"/><path class="c" d="M38.5,5.5H9.5c-2.2091,0-4,1.7909-4,4v29c0,2.2091,1.7909,4,4,4h29c2.2091,0,4-1.7909,4-4V9.5c0-2.2091-1.7909-4-4-4Z"/></svg>