<?xml version="1.0" encoding="UTF-8"?><svg id="a" xmlns="http://www.w3.org/2000/svg" viewBox="0 0 48 48"><defs><style>.b{fill:#000;}.c{fill:none;stroke:#000;stroke-linecap:round;stroke-linejoin:round;}</style></defs><g><path class="c" d="m27.7547,16.2108c-2.4224-6.2981-14.5342-6.2981-14.5342,4.3602-11.6273,0-11.6273,15.5031,0,15.5031h9.6894m2.9068-13.0807c2.9068-7.2671,11.1429-4.3602,11.1429,1.9379,8.7205,0,8.7205,11.1429,0,11.1429h-11.6273"/><g><path class="c" d="m12.736,24.6406v7.7516"/><path class="c" d="m12.736,29.5337c0-1.0703.8676-1.9379,1.9379-1.9379s1.9379.8676,1.9379,1.9379v3.1975"/></g><path class="c" d="m22.6561,31.7051c-.345.6047-.9878.9779-1.684.9777h0c-1.0703,0-1.9379-.8676-1.9379-1.9379v-1.2596c0-1.0703.8676-1.9379,1.9379-1.9379h0c1.0703,0,1.9379.8676,1.9379,1.9379v.6298h-3.8758m6.2981-5.1839v6.7826c0,.5351.4338.9689.9689.9689h.2907m1.56-.4331c.3537.2975.7354.4331,1.5939.4331h.4351c.7073,0,1.2809-.5746,1.2809-1.2839h0c0-.7093-.5736-1.2839-1.2809-1.2839h-.8691c-.7073,0-1.2809-.5746-1.2809-1.2839h0c0-.7093.5736-1.2839,1.2809-1.2839h.4351c.8575,0,1.2402.1366,1.5939.4331"/></g><circle class="b" cx="34.0528" cy="25.0766" r=".75"/><path class="c" d="m34.0528,27.4505v5.1354"/></svg>