<svg xmlns="http://www.w3.org/2000/svg" viewBox="0 0 48 48"><defs><style>.a{fill:none;stroke:#000;stroke-linecap:round;stroke-linejoin:round;}</style></defs><line class="a" x1="7.29" y1="26.28" x2="17.68" y2="36.67"/><path class="a" d="M13.4,32.39a3.67,3.67,0,0,1,0-5.2h0a3.68,3.68,0,0,1,5.19,0l4.29,4.29"/><path class="a" d="M29.35,16.43a3.68,3.68,0,0,1,0-5.19h0"/><line class="a" x1="26.75" y1="13.84" x2="33.63" y2="20.72"/><path class="a" d="M29.23,22.5a3.66,3.66,0,0,1-.94,3.57h0a3.69,3.69,0,0,1-5.2,0l-1.68-1.69a3.67,3.67,0,0,1,0-5.2h0a3.68,3.68,0,0,1,5.19,0l.84.85-5.19,5.19"/><path class="a" d="M41.84,9.89a3.68,3.68,0,0,1-.94,3.57h0a3.69,3.69,0,0,1-5.2,0L34,11.77a3.68,3.68,0,0,1,0-5.19h0a3.67,3.67,0,0,1,5.2,0l.84.84-5.19,5.19"/><polygon class="a" points="6.03 36.67 17.68 36.67 11.86 42.5 6.03 36.67"/></svg>