<svg xmlns="http://www.w3.org/2000/svg" viewBox="0 0 48 48"><defs><style>.a{fill:none;stroke:#000;stroke-linecap:round;stroke-linejoin:round;}</style></defs><path class="a" d="M40.8025,30.6882v5.6983H10.87L5.5,40.9956V7.0044H40.8029v6.13"/><path class="a" d="M39.2744,27.2959H42.5"/><path class="a" d="M39.2744,16.5439H42.5"/><path class="a" d="M40.8872,16.5439v10.752"/><path class="a" d="M18.3442,23.6671a3.5622,3.5622,0,1,0,7.1232,0V20.0383A3.6137,3.6137,0,0,0,21.8386,16.41a3.5021,3.5021,0,0,0-3.4944,3.6288Z"/><path class="a" d="M33.764,21.92a2.688,2.688,0,0,1,0,5.376H29.3288V16.5439H33.764a2.688,2.688,0,0,1,0,5.376Z"/><line class="a" x1="33.764" y1="21.9199" x2="29.3288" y2="21.9199"/></svg>