<?xml version="1.0" encoding="UTF-8"?><svg id="b" xmlns="http://www.w3.org/2000/svg" viewBox="0 0 48 48"><defs><style>.c{fill:none;stroke:#000;stroke-linecap:round;stroke-linejoin:round;stroke-width:1px;}</style></defs><path class="c" d="M15.1063,5.5c-2.0099.0752-2.3299,2.1199-2.0099,3.0799.362,1.09,2.0799,1.04,2.0799,1.04,0,0,.135,1.05.217,2.5899-.642.0028-1.16.526-1.16,1.17,0,.646.524,1.17,1.17,1.17h.0581c-.0057,1.67-.119,3.5799-.466,5.3899-.926,4.8399-3.8699,9.1198-3.8699,9.1198,0,0,.053,3.2399,2.7199,6.4598,2.6699,3.2199,5.4699,4.2799,5.4699,4.2799,0,0-.925.898-1.29,1.75s-.0752.951-.0752.951h12.0997s.287-.101-.0752-.951c-.362-.85-1.29-1.75-1.29-1.75,0,0,2.7999-1.06,5.4699-4.2799,2.6699-3.2199,2.7199-6.4598,2.7199-6.4598,0,0-2.9499-4.2799-3.8699-9.1198-.347-1.81-.461-3.7199-.466-5.3899h.0581c.645,0,1.17-.523,1.17-1.17,0-.644-.521-1.17-1.16-1.17.0822-1.54.217-2.5899.217-2.5899,0,0,1.72.0531,2.0799-1.04.362-1.09-.109-3.6099-2.9799-2.9799-1.87.411-2.1299,3.1899-2.1499,6.6098h-11.5997c-.0263-3.4199-.282-6.1998-2.1499-6.6098-.359-.0788-.682-.108-.969-.0975l.0512-.0025ZM18.2363,14.5498h11.5997c.0068,2.6399-.0246,5.4199-.629,7.6798,4.8899,6.9298.0866,11.5997-5.1599,9.4897-5.2499,2.0799-9.9997-2.5699-5.1599-9.4897-.604-2.2599-.636-5.0399-.629-7.6798h-.022Z"/><path class="c" d="M25.1061,32.0993V14.5998"/><path class="c" d="M27.306,32.1993V14.5998"/><path class="c" d="M20.7062,32.1993V14.6998"/><path class="c" d="M22.9061,32.0993V14.5998"/><path class="c" d="M25.1061,10.6999v1.52"/><path class="c" d="M27.306,10.6999v1.52"/><path class="c" d="M20.7062,10.6999v1.52"/><path class="c" d="M22.9061,10.6999v1.52"/></svg>