<?xml version="1.0" encoding="UTF-8"?><svg id="a" xmlns="http://www.w3.org/2000/svg" viewBox="0 0 48 48"><defs><style>.n{fill:none;stroke:#000;stroke-linecap:round;stroke-linejoin:round;}.o{fill:#000;stroke-width:0px;}</style></defs><path id="b" class="n" d="m40.5,5.5H7.5c-1.1046,0-2,.8954-2,2v33c0,1.1046.8954,2,2,2h33c1.1046,0,2-.8954,2-2V7.5c0-1.1046-.8954-2-2-2Z"/><polyline id="c" class="n" points="37.5 19.3327 34.2236 29.2238 30.9472 19.3327"/><g id="d"><line id="e" class="n" x1="22.2847" y1="19.3326" x2="28.8376" y2="19.3326"/><line id="f" class="n" x1="25.5612" y1="29.2237" x2="25.5612" y2="19.3326"/></g><g id="g"><circle id="h" class="o" cx="19.7457" cy="19.6417" r=".75"/><line id="i" class="n" x1="19.7457" y1="22.6708" x2="19.7457" y2="29.2237"/></g><g id="j"><line id="k" class="n" x1="10.5" y1="19.3326" x2="10.5" y2="29.2237"/><line id="l" class="n" x1="17.0528" y1="19.3326" x2="17.0528" y2="29.2237"/><line id="m" class="n" x1="10.5" y1="24.2594" x2="17.0528" y2="24.2594"/></g></svg>