<?xml version="1.0" encoding="UTF-8"?><svg id="b" xmlns="http://www.w3.org/2000/svg" viewBox="0 0 48 48"><defs><style>.c{fill:none;stroke:#000;stroke-linecap:round;stroke-linejoin:round;}</style></defs><path class="c" d="m14.3571,11.011c-1.4792,3.4029-2.9442,6.9197-4.3847,10.5494-2.0003,5.0407-3.8183,9.9597-5.4725,14.7363"/><path class="c" d="m21.7747,11.5055c-1.3681,3.3711-2.7221,6.833-4.055,10.3846-1.8801,5.0097-3.6119,9.9156-5.2088,14.7033"/><path class="c" d="m4.9945,25.912c2.6846-.767,5.5674-1.4947,8.6374-2.1428,2.6145-.552,5.1255-.9957,7.5165-1.3517"/><path class="c" d="m24.1814,36.5934c1.253-5.0805,2.8992-10.5864,5.0769-16.3846,1.1545-3.0741,2.3628-5.9759,3.5934-8.7033-.3367,3.1111-.6201,6.3446-.8346,9.6937-.2905,4.5352-.4292,8.8822-.4511,13.0205,2.125-4.9505,4.6655-10.1988,7.7143-15.6264,1.3929-2.4798,2.8049-4.842,4.2197-7.0879-.9849,4.0761-1.9109,8.3992-2.7362,12.956-.7883,4.3522-1.4156,8.536-1.9121,12.5275"/><path class="c" d="m22.3517,31.0055c-1.3517,2.0934-2.9194,2.6191-3.5769,1.7802-.478-.6099.3724-1.8906.8242-2.4561.8913-1.1156,2.2915-1.7031,2.5385-2.7857.2143-.9396-.4615-1.1044-1.1044-1.1044-.7747,0-1.2561.9663-1.1374,1.4176.1505,1.3795,1.6015,4.9298,2.0275,5.7527"/></svg>