<?xml version="1.0" encoding="UTF-8"?><svg id="b" xmlns="http://www.w3.org/2000/svg" viewBox="0 0 48 48"><defs><style>.c{fill:none;stroke:#000;stroke-linecap:round;stroke-linejoin:round;}</style></defs><path class="c" d="M27.7289,6.3815c2.8167,9.1682,1.6569,22.1865-2.3749,22.1865s-7.8427-11.1957-4.6394-24.0644c-8.5055,6.7933-7.9124,38.9926,2.2644,38.9926,10.1277,0,14.5256-24.7984,4.7498-37.1148Z"/><path class="c" d="M19.3941,34.3326c1.0194,0,3.3089,2.7958,3.3089,5.4667,0,1.0194-.5161,1.3548-1.1613,1.3548-1.3548,0-3.071-3.5484-3.071-5.1355,0-1.4839.4806-1.6861.9234-1.6861Z"/><path class="c" d="M28.7552,35.8135c-1.2172-.1368-4.3363,3.4974-4.1123,4.7359.0615.3399.1014.46.4055.46,1.0187,0,4.0554-3.7642,4.0554-4.7579,0-.3587-.1362-.4142-.3486-.4381Z"/></svg>