<?xml version="1.0" encoding="UTF-8"?><svg id="a" xmlns="http://www.w3.org/2000/svg" viewBox="0 0 48 48"><defs><style>.b{fill:none;stroke:#000;stroke-linecap:round;stroke-linejoin:round;}</style></defs><polyline class="b" points="38.578 18.078 24 3.5 9.422 18.078"/><path class="b" d="m25.8606,5.3644c9.9607.9427,17.7506,9.3281,17.7506,19.5244,0,10.829-8.7823,19.6112-19.6112,19.6112S4.3888,35.7177,4.3888,24.8888c0-5.5819,2.332-10.5933,6.0657-14.1657v-6.351h5.0113v2.8778c2.0467-.9923,4.2919-1.6498,6.6611-1.8731"/><rect class="b" x="15.4677" y="16.3333" width="3.6865" height="3.6865"/><rect class="b" x="22.1567" y="16.3333" width="3.6865" height="3.6865"/><rect class="b" x="28.8458" y="16.3333" width="3.6865" height="3.6865"/><rect class="b" x="15.4677" y="23.0455" width="3.6865" height="3.6865"/><rect class="b" x="22.1567" y="23.0455" width="3.6865" height="3.6865"/><rect class="b" x="28.8458" y="23.0455" width="3.6865" height="3.6865"/><rect class="b" x="15.4677" y="29.7578" width="3.6865" height="3.6865"/><rect class="b" x="22.1567" y="29.7578" width="3.6865" height="3.6865"/><rect class="b" x="28.8458" y="29.7578" width="3.6865" height="3.6865"/><rect class="b" x="15.4677" y="36.47" width="3.6865" height="3.6865"/><rect class="b" x="22.1567" y="36.47" width="3.6865" height="3.6865"/><rect class="b" x="28.8458" y="36.47" width="3.6865" height="3.6865"/></svg>