<svg xmlns="http://www.w3.org/2000/svg" viewBox="0 0 48 48"><defs><style>.a{fill:none;stroke:#000;stroke-linecap:round;stroke-linejoin:round;}</style></defs><path class="a" d="m40.9 21.9-15.2-15.2c-0.89-0.899-2.37-0.899-3.27 0l-15.2 15.2c-0.899 0.91-1.64 2.66-1.64 3.95v13.9c0 1.23 1.04 2.27 2.31 2.27h14.2l-6.27-6.27c-0.32 0.13-0.66 0.2-1.01 0.2-1.75 0-3.17-1.43-3.17-3.17 0-1.75 1.42-3.18 3.17-3.18 1.73 0 3.15 1.43 3.15 3.18 0 0.38-0.1 0.71-0.18 1.03l4.88 4.85v-17.8c-1.04-0.52-1.77-1.55-1.77-2.85 0-1.67 1.41-3.09 3.16-3.09 1.74 0 3.16 1.42 3.16 3.09 0 1.3-0.73 2.33-1.77 2.85v12.6l4.85-4.86c-0.11-0.32-0.16-0.63-0.16-0.96 0-1.74 1.43-3.17 3.17-3.17s3.16 1.43 3.16 3.17-1.42 3.16-3.16 3.16c-0.39 0-0.75-0.1-1.11-0.19l-6.75 6.8v4.71h14.8c1.27 0 2.31-1.04 2.31-2.27v-13.9c0-1.29-0.74-3.04-1.63-3.95z"/></svg>
