<svg xmlns="http://www.w3.org/2000/svg" viewBox="0 0 48 48"><defs><style>.a{fill:none;stroke:#000;stroke-linecap:round;stroke-linejoin:round;}</style></defs><path class="a" d="M37.28,41.08a1.63,1.63,0,0,0,1.63-1.63V26.17H41a2.45,2.45,0,0,0,1.59-4.32L25.94,7.64a3,3,0,0,0-3.88,0L5.37,21.85A2.45,2.45,0,0,0,7,26.17H9.09V39.45a1.63,1.63,0,0,0,1.63,1.63Z"/><line class="a" x1="24" y1="41.08" x2="24" y2="18.32"/><line class="a" x1="24" y1="18.32" x2="26.72" y2="15.61"/><circle class="a" cx="27.71" cy="14.62" r="1.4"/><circle class="a" cx="32.16" cy="37.12" r="1.4"/><circle class="a" cx="20.29" cy="14.62" r="1.4"/><circle class="a" cx="15.02" cy="32.1" r="1.4"/><line class="a" x1="24" y1="18.32" x2="21.28" y2="15.61"/><line class="a" x1="20.29" y1="37.37" x2="20.29" y2="33.52"/><circle class="a" cx="20.29" cy="32.12" r="1.4"/><circle class="a" cx="15.05" cy="37.37" r="1.4"/><line class="a" x1="20.29" y1="37.37" x2="16.45" y2="37.37"/><line class="a" x1="28.13" y1="32.12" x2="33.02" y2="32.12"/><circle class="a" cx="34.42" cy="32.12" r="1.4"/><circle class="a" cx="28.13" cy="27.42" r="1.4"/><line class="a" x1="28.13" y1="32.12" x2="28.13" y2="28.82"/><line class="a" x1="20.27" y1="26.92" x2="20.27" y2="23.08"/><circle class="a" cx="20.27" cy="21.68" r="1.4"/><circle class="a" cx="15.02" cy="26.92" r="1.4"/><line class="a" x1="20.27" y1="26.92" x2="16.42" y2="26.92"/><polyline class="a" points="24 41.08 27.96 37.12 30.75 37.12"/><circle class="a" cx="15.02" cy="18.52" r="1.4"/><line class="a" x1="15.02" y1="21.68" x2="15.02" y2="19.92"/><line class="a" x1="24" y1="41.08" x2="16.01" y2="33.09"/><circle class="a" cx="32.34" cy="18.52" r="1.4"/><line class="a" x1="32.34" y1="25.96" x2="35.06" y2="23.25"/><circle class="a" cx="36.05" cy="22.26" r="1.4"/><circle class="a" cx="28.63" cy="22.26" r="1.4"/><line class="a" x1="32.34" y1="25.96" x2="29.62" y2="23.25"/><line class="a" x1="32.34" y1="27.93" x2="32.34" y2="19.92"/><line class="a" x1="24" y1="30.65" x2="15.02" y2="21.68"/><line class="a" x1="24" y1="36.27" x2="32.34" y2="27.93"/></svg>