<svg xmlns="http://www.w3.org/2000/svg" viewBox="0 0 48 48"><defs><style>.a{fill:none;stroke:#000;stroke-linecap:round;stroke-linejoin:round;}</style></defs><path class="a" d="M30.0117,18.4551a10.1084,10.1084,0,0,1,0,20.2167c-5.3879,0-16.96-1.9206-20.0785-7.7585"/><path class="a" d="M30.0117,18.4551H10.729a6.2293,6.2293,0,1,0,3.8741,11.0715l.0174.0218Z"/><polyline class="a" points="13.971 34.794 5.707 37.653 9.933 30.913"/><path class="a" d="M23.7335,23.0406c-1.9206,3.4711-1.7375,11.394,3.998,15.537"/><path class="a" d="M17.3829,27.5573c-.74,1.5191.0531,6.2,2.3134,9.5944"/><circle class="a" cx="31.9623" cy="25.732" r="2.7904"/><circle class="a" cx="41.4482" cy="15.3091" r="2.0518"/><circle class="a" cx="34.9852" cy="11.38" r="2.0518"/><path class="a" d="M33.2593,18.99c.9855-1.2234,3.2427-3.4574,6.1124-3.79"/><path class="a" d="M30.5772,18.471A8.9341,8.9341,0,0,1,33.31,12.5386"/></svg>