<?xml version="1.0" encoding="UTF-8"?><svg id="a" xmlns="http://www.w3.org/2000/svg" viewBox="0 0 48 48"><defs><style>.b{fill:none;stroke:#000;stroke-linecap:round;stroke-linejoin:round;}.c{fill:#000;stroke-width:0px;}</style></defs><path class="b" d="m32.7432,20.4927c.628.8335.9659,1.1494,1.2292,1.1494.4042,0,1.0268.6852,1.0268,1.1301,0,.1575-.1751.4945-.3892.7489l-.3892.4625.2217,1.7512c.4243,3.3519,1.0679,5.7432,2.0971,7.7913.2976.5922.5411,1.1586.5411,1.2587,0,.5106-2.8022-.5883-3.0394-1.1919-.0741-.1886-.2451-.8246-.3801-1.4133-.1349-.5887-.4008-1.432-.591-1.874-.3228-.7505-.3896-.8089-1.0096-.8835-1.5234-.1833-2.8454-.2364-2.797-.1122.0642.1649,1.4814,1.3911,2.0021,1.7323.7013.4595,1.1766,1.5225,1.4275,3.1924.4125,2.7457,1.2691,5.7138,1.9326,6.6963.3016.4466.2645,1.1092-.0795,1.4206-.7884.7135-5.25-1.2456-7.6402-3.6355-1.3228-1.3228-1.5355-1.779-1.6082-3.4502-.0735-1.6885-.1834-2.3506-.4883-2.9401-.1948-.3768-.3228-.4468-.7417-.4058-.6408.0627-1.1192.7404-1.5546,2.2025-.4109,1.3796-.8382,1.7681-2.7243,2.4767-1.6939.6364-2.1027.6897-2.4703.3221-.5262-.5262-.1905-1.3196.669-1.5815.2386-.0728.3603-.2353.3603-.4816,0-.4624-.3952-2.6014-.8189-4.4316-.2956-1.2772-.3537-1.3895-.761-1.4709-.8149-.163-1.0232-1.2571-.4215-1.8409.4126-.4004.4003-.4308.4003-1.4357-.0308-1.7232.6333-3.2516,1.6314-4.5998.5051-.676.7036-.921,1.6103-1.6026,1.9544-1.4692,3.821-2.1572,5.8522-2.1572.5905-.0262,1.1738.005,1.7603.0618,2.096.3278,3.829,1.4591,5.1421,3.1118h0Zm1.4777,3.4909c-1.9757.0659-5.053.2004-6.3159.5266-1.5564.402-2.0703.6344-6.6444,3.0043-1.1008.5703-2.523,1.2302-3.1767,1.4131-.7125.1993-1.471-.0175-1.3157.0277m10.833-11.5744l-.099-.6963c-.0289-.2979.0375-.7093.1471-.9142.2454-.4586.9268-.49,2.5623-.1179.6156.14,1.2126.2188,1.3266.1751.114-.0437.5538-.6446.9774-1.3353.9012-1.4695,1.7866-2.442,2.8399-3.1192.8995-.5783,2.729-1.2506,3.4159-1.2554.2694-.0018.6231-.1009.7862-.2201.2745-.2007.2248-.2654-.6678-.8716-1.1772-.7994-3.3778-1.9233-4.0159-2.0509-.3772-.0754-.586.0091-1.0686.4329l-.5998.5266.0563-.7914.0563-.7914-1.1208-.2808c-4.3755-1.0963-8.5764-.6188-12.994,1.4769-1.7958.8519-2.2382,1.296-2.0798,2.088.1178.5888.0074.5994-.5617.0542l-.4428-.4242-.9269.6965c-1.3044.9802-3.2303,3.0008-3.8669,4.0569-.6252,1.0374-.5997,1.3945.1617,2.2617.2746.3128.467.6011.4274.6406-.0396.0396-.3004.0064-.5795-.0736-.5512-.1581-.7672-.0077-.6031.4198.0825.2149-.0007.2377-.5493.1501-.7602-.1216-.7527-.1339-1.3881,2.303-.2957,1.1342-.4187,2.1114-.485,3.8427-.0648,1.689.0874,3.3758.4941,3.2947-.4898.8942-.3364,1.9467,1.3101,6.6321.6974,1.9844.7655,2.3123.8317,4.0029.062,1.5826.0247,1.9754-.2651,2.7963-.4053,1.1481-.4017,1.0463-.0373,1.0463.4293,0,1.5811-1.314,2.0504-2.3392.7179-1.5682,1.0141-4.1193.6857-5.9065-.3717-2.0226-.3762-2.3191-.0419-2.7712.266-.3597.3341-.7772.41-2.5126.131-2.9942,1.0025-5.7194,2.3939-7.4849.5701-.7235.9559-.7559,1.5793-.1324l.6585.8902m15.5941.5631c-.1104.0038-.2174.0176-.3211.0115-2.7321-.163-5.2668.2305-6.459.5384-1.5564.402-2.0703.6344-6.6444,3.0043-1.1008.5703-2.5338.8382-3.1537,1.1145-.5164.2301-.799.5531-1.0476.8037"/><path class="b" d="m23.6529,11.6811c1.5819-.347,3.2577-.5228,4.9984-.5228,1.9967,0,3.9808.3158,5.8774.9357"/><path class="b" d="m10.1893,33.3948c-.229-1.1723.4709-3.2384.4262-4.4319-.2529-6.7453,2.4006-11.6862,6.7218-14.6288"/><circle class="c" cx="20.4433" cy="12.6961" r=".75"/></svg>