<?xml version="1.0" encoding="UTF-8"?><svg id="b" xmlns="http://www.w3.org/2000/svg" viewBox="0 0 48 48"><defs><style>.c{fill:none;stroke:#000;stroke-linecap:round;stroke-linejoin:round;}</style></defs><polygon class="c" points="34.25 13.75 13.75 13.75 24 24 34.25 13.75"/><polygon class="c" points="13.75 34.25 34.25 34.25 24 24 13.75 34.25"/><polygon class="c" points="34.25 13.75 34.25 34.25 44.5 24 34.25 13.75"/><polygon class="c" points="13.75 34.25 13.75 13.75 3.5 24 13.75 34.25"/><g><path class="c" d="m20.68,40.812c.2453.3193.5528.4383.9808.4383h.5922c.5511,0,.9978-.4468.9978-.9979v-.0043c0-.5511-.4467-.9979-.9978-.9979h-.6533c-.5517,0-.9989-.4472-.9989-.9989h0c0-.5529.4482-1.0011,1.0011-1.0011h.589c.4279,0,.7355.1189.9808.4383"/><path class="c" d="m27.4,38.575c0-.7318-.5932-1.325-1.325-1.325s-1.325.5932-1.325,1.325v1.35c0,.7318.5932,1.325,1.325,1.325s1.325-.5932,1.325-1.325h-1.325"/></g></svg>