<?xml version="1.0" encoding="UTF-8"?><svg id="b" xmlns="http://www.w3.org/2000/svg" viewBox="0 0 48 48"><defs><style>.c{fill:none;stroke:#000;stroke-linecap:round;stroke-linejoin:round;}</style></defs><polygon class="c" points="34.25 13.75 13.75 13.75 24 24 34.25 13.75"/><polygon class="c" points="13.75 34.25 34.25 34.25 24 24 13.75 34.25"/><polygon class="c" points="34.25 13.75 34.25 34.25 44.5 24 34.25 13.75"/><polygon class="c" points="13.75 34.25 13.75 13.75 3.5 24 13.75 34.25"/><g><path class="c" d="m20.85,37.25v2.675c0,.7318.5932,1.325,1.325,1.325s1.325-.5932,1.325-1.325v-2.675"/><g><line class="c" x1="25" y1="37.25" x2="25" y2="41.25"/><polyline class="c" points="27.15 41.25 25.505 39.25 27.15 37.2635"/><line class="c" x1="25.503" y1="39.25" x2="25" y2="39.25"/></g></g></svg>