<?xml version="1.0" encoding="UTF-8"?><svg id="a" xmlns="http://www.w3.org/2000/svg" viewBox="0 0 48 48"><defs><style>.b{fill:none;stroke:#000;stroke-linecap:round;stroke-linejoin:round;}</style></defs><path class="b" d="m8.5,24h3.1822m0-1.8764v3.7528m-3.1822-3.7528v3.7528"/><path class="b" d="m13.5265,22.124v2.8616c0,.4922.399.8912.8912.8912h1.4342c.4922,0,.8912-.399.8912-.8912h0v-2.8616"/><path class="b" d="m18.5875,25.876v-3.7528l2.3173,3.7528,2.3173-3.7528v3.7528"/><path class="b" d="m25.0665,25.876v-3.7528l2.3173,3.7528,2.3173-3.7528v3.7528"/><path class="b" d="m34.3437,23.9919h-2.7982m2.7982,1.8847h-2.7982v-3.7528h2.7982"/><path class="b" d="m39.5,25.8769l-1.711-1.8764m-1.6009,1.8764v-3.7528h2.3085c.4925,0,.892.3987.893.8912l.0002.094c.001.4912-.3964.8902-.8876.8912-.0006,0-.0012,0-.0018,0h-2.3123"/><path class="b" d="m40.5,5.5H7.5c-1.1046,0-2,.8954-2,2v33c0,1.1046.8954,2,2,2h33c1.1046,0,2-.8954,2-2V7.5c0-1.1046-.8954-2-2-2Z"/></svg>