<svg xmlns="http://www.w3.org/2000/svg" viewBox="0 0 48 48"><defs><style>.a{fill:none;stroke:#000;stroke-linecap:round;stroke-linejoin:round;}</style></defs><path class="a" d="M24.2647,25.691c0-6.8707-9.1558-21.191-9.1558-21.191S5.953,18.82,5.953,25.691a9.1559,9.1559,0,1,0,18.3117,0Z"/><path class="a" d="M42.047,12.4491c0-2.4031-3.2025-7.412-3.2025-7.412s-3.2024,5.0089-3.2024,7.412a3.2025,3.2025,0,1,0,6.4049,0Z"/><path class="a" d="M38.0986,28.1282c0-3.3955-4.5249-10.4727-4.5249-10.4727s-4.5249,7.0772-4.5249,10.4727a4.5249,4.5249,0,0,0,9.05,0Z"/><path class="a" d="M29.359,40.4474c0-2.2907-3.0526-7.0651-3.0526-7.0651s-3.0525,4.7744-3.0525,7.0651a3.0526,3.0526,0,1,0,6.1051,0Z"/></svg>