<svg xmlns="http://www.w3.org/2000/svg" viewBox="0 0 48 48"><defs><style>.a{fill:none;stroke:#000;stroke-linecap:round;stroke-linejoin:round;}</style></defs><path class="a" d="M23.3879,11.012c5.2889-.2846,10.7913,2.7631,12.6175,9.736a8.1587,8.1587,0,0,1,.0593,16.2581H13.2606c-10.9218-1.4823-12.416-17.3847,0-19.5192A12.0248,12.0248,0,0,1,23.3879,11.012Z"/><line class="a" x1="43.5" y1="13.8217" x2="37.8443" y2="13.8217"/><line class="a" x1="40.6722" y1="16.6495" x2="40.6722" y2="10.9939"/><circle class="a" cx="24" cy="25.6355" r="7.6542"/><line class="a" x1="16.3458" y1="25.6355" x2="31.6542" y2="25.6355"/><line class="a" x1="17.3905" y1="21.7783" x2="30.6114" y2="21.7783"/><line class="a" x1="17.3911" y1="29.4928" x2="30.6114" y2="29.4928"/><line class="a" x1="24.0013" y1="33.2897" x2="24.0013" y2="17.9813"/><ellipse class="a" cx="24" cy="25.6355" rx="3.8572" ry="7.6542"/></svg>