<?xml version="1.0" encoding="UTF-8"?><svg id="a" xmlns="http://www.w3.org/2000/svg" viewBox="0 0 48 48"><defs><style>.b{fill:none;stroke:#000;stroke-linecap:round;stroke-linejoin:round;}</style></defs><path class="b" d="m40.5,5.5H7.5c-1.1,0-2,.9-2,2v33c0,1.1.9,2,2,2h33c1.1,0,2-.9,2-2V7.5c0-1.1-.9-2-2-2Z"/><line class="b" x1="10.2611" y1="12.5525" x2="10.2611" y2="20.878"/><path class="b" d="m30.1742,18.0681h0c0,1.561-1.2488,2.8098-2.8098,2.8098h0c-1.561,0-2.8098-1.2488-2.8098-2.7058v-2.8098c0-1.561,1.2488-2.8098,2.8098-2.7058h0c1.561,0,2.7058,1.2488,2.7058,2.7058h0"/><line class="b" x1="12.6087" y1="16.7153" x2="15.3145" y2="16.7153"/><polyline class="b" points="12.6087 20.878 12.6087 12.5525 16.7715 12.5525"/><line class="b" x1="19.0079" y1="16.7153" x2="21.7137" y2="16.7153"/><polyline class="b" points="19.0079 20.878 19.0079 12.5525 23.1707 12.5525"/><path class="b" d="m34.9291,20.878h0c-1.561,0-2.7058-1.2488-2.7058-2.7058v-2.8098c0-1.561,1.2488-2.8098,2.7058-2.8098h0c1.561,0,2.8098,1.2488,2.8098,2.8098v2.7058c0,1.561-1.2488,2.8098-2.8098,2.8098Z"/><line class="b" x1="30.7738" y1="27.122" x2="30.7738" y2="35.4475"/><line class="b" x1="9.5" y1="27.122" x2="14.9115" y2="27.122"/><line class="b" x1="12.2058" y1="35.4475" x2="12.2058" y2="27.122"/><path class="b" d="m19.0222,35.4475h0c-1.561,0-2.7058-1.2488-2.7058-2.7058v-2.8098c0-1.561,1.2488-2.8098,2.7058-2.8098h0c1.561,0,2.8098,1.2488,2.8098,2.8098v2.7058c0,1.561-1.2488,2.8098-2.8098,2.8098Z"/><path class="b" d="m35.6902,35.4475h0c-1.561,0-2.7058-1.2488-2.7058-2.7058v-2.8098c0-1.561,1.2488-2.8098,2.7058-2.8098h0c1.561,0,2.8098,1.2488,2.8098,2.8098v2.7058c0,1.561-1.2488,2.8098-2.8098,2.8098Z"/><line class="b" x1="24.0695" y1="27.122" x2="24.0695" y2="35.4475"/><line class="b" x1="24.0695" y1="32.5336" x2="28.4403" y2="27.122"/><line class="b" x1="28.4403" y1="35.4475" x2="25.1102" y2="31.2847"/></svg>