<?xml version="1.0" encoding="UTF-8"?><svg id="a" xmlns="http://www.w3.org/2000/svg" viewBox="0 0 48 48"><defs><style>.b{fill:none;stroke:#000;stroke-linecap:round;stroke-linejoin:round;}</style></defs><path class="b" d="M45,20.5736v6.8151c-3.2279,1.4897-8.0388,2.0853-9.6627,2.2725-.3918.0745-.7583.1089-1.1118.1089l-5.1728-5.7694,5.172-5.7709c.2982,0,.6119.0292.9584.0882,1.6622.1771,6.5546.7484,9.8168,2.2557ZM13.7772,18.2299l5.1707,5.7709-5.1707,5.7694c-.3551,0-.7223-.0344-1.1132-.1089-1.6239-.1886-6.4356-.7828-9.6641-2.2741v-6.8122c3.2631-1.5088,8.1552-2.0801,9.8167-2.2571.317-.0567.6384-.0861.9606-.0882ZM18.2202,34.2078l5.7808-5.1629,5.7808,5.1622c0,.3527-.0367.72-.1104,1.1103-.1886,1.62-.7867,6.4227-2.2793,9.6442h-6.8251c-1.5111-3.2553-2.0832-8.1392-2.2609-9.7983-.0557-.3156-.0847-.6355-.0866-.9561l.0008.0008ZM20.5669,3.0386h6.8236c1.4936,3.224,2.0915,8.0257,2.2801,9.6465.0737.3903.1097.7544.1097,1.1087l-5.7808,5.1637-5.7808-5.1637c0-.2959.0292-.6096.0874-.9553.1779-1.6599.7498-6.543,2.2609-9.7998Z"/><path class="b" d="M11.265,29.4827c1.387,3.2428,3.9851,5.8409,7.2279,7.2474"/><path class="b" d="M29.4911,11.2665c3.2428,1.3967,5.8507,3.9949,7.2474,7.2377"/><path class="b" d="M11.265,18.5041c1.3967-3.233,3.9949-5.8312,7.2279-7.2279"/><path class="b" d="M29.4911,36.7399c3.2526-1.4065,5.8605-4.0144,7.2474-7.2572"/><path class="b" d="M6.0785,28.4669c1.6507,6.593,6.8274,11.7893,13.4205,13.44"/><path class="b" d="M41.8957,19.5004v-.0098c-1.6507-6.5833-6.847-11.7698-13.4302-13.4009"/><path class="b" d="M6.0883,19.5004c1.6605-6.5833,6.8372-11.76,13.4107-13.4009"/><path class="b" d="M28.4655,41.9069c6.6028-1.6409,11.7991-6.8372,13.44-13.44"/></svg>