<?xml version="1.0" encoding="UTF-8"?><svg id="Layer_2" xmlns="http://www.w3.org/2000/svg" viewBox="0 0 48 48"><defs><style>.cls-1{fill:none;stroke:#000;stroke-linecap:round;stroke-linejoin:round;}.cls-2{fill:#000;stroke-width:1px;}</style></defs><path class="cls-1" d="m40.5,5.5H7.5c-1.1046,0-2,.8954-2,2v33c0,1.1046.8954,2,2,2h33c1.1046,0,2-.8954,2-2V7.5c0-1.1046-.8954-2-2-2Z"/><line class="cls-1" x1="13.0464" y1="19.5722" x2="13.0464" y2="28.9557"/><line class="cls-1" x1="19.263" y1="19.5722" x2="19.263" y2="28.9557"/><line class="cls-1" x1="13.0464" y1="24.2463" x2="19.263" y2="24.2463"/><circle class="cls-2" cx="10.3211" cy="19.8654" r=".75"/><line class="cls-1" x1="10.3211" y1="22.7391" x2="10.3211" y2="28.9557"/><path class="cls-1" d="m28.9914,25.0673c0-1.2956,1.0503-2.3459,2.3459-2.3459h0"/><line class="cls-1" x1="28.9914" y1="22.7214" x2="28.9914" y2="28.938"/><path class="cls-1" d="m26.2391,27.7542c-.404.7072-1.1655,1.1838-2.0383,1.1838h0c-1.2956,0-2.3459-1.0503-2.3459-2.3459v-1.5248c0-1.2956,1.0503-2.3459,2.3459-2.3459h0c1.2956,0,2.3459,1.0503,2.3459,2.3459v.7624s-4.6918,0-4.6918,0"/><path class="cls-1" d="m33.8082,25.0673c0-1.2956,1.0503-2.3459,2.3459-2.3459h0c1.2956,0,2.3459,1.0503,2.3459,2.3459v1.5248c0,1.2956-1.0503,2.3459-2.3459,2.3459h0c-1.2956,0-2.3459-1.0503-2.3459-2.3459"/><line class="cls-1" x1="33.8082" y1="28.938" x2="33.8082" y2="19.5545"/></svg>