<?xml version="1.0" encoding="UTF-8"?><svg id="b" xmlns="http://www.w3.org/2000/svg" viewBox="0 0 48 48"><defs><style>.d{fill:none;stroke:#000;stroke-linecap:round;stroke-linejoin:round;}</style></defs><polyline class="d" points="27.5847 7 31.5847 11 27.5847 15"/><path class="d" d="M35.5464,11h1.9536c2.2091,0,4,1.7909,4,4v18c0,2.2091-1.7909,4-4,4h-20.738"/><path class="d" d="M12.4536,37h-1.9536c-2.2091,0-4-1.7909-4-4V15c0-2.2091,1.7909-4,4-4h20.738"/><polyline class="d" points="20.4153 41 16.4153 37 20.4153 33"/><path class="d" d="M27.9626,17.6509c1.3211,0,2.392,1.071,2.392,2.392s-1.071,2.392-2.392,2.392-2.392-1.071-2.392-2.392,1.071-2.392,2.392-2.392"/><polygon class="d" points="15.6589 30.3491 32.3411 30.3491 27.4346 25.0444 25.8925 26.5864 21.4626 21.8762 15.6589 30.3491"/></svg>