<?xml version="1.0" encoding="UTF-8"?><svg id="b" xmlns="http://www.w3.org/2000/svg" viewBox="0 0 48 48"><defs><style>.i{stroke-width:1px;}.i,.j{fill:none;stroke:#000;stroke-linecap:round;stroke-linejoin:round;}</style></defs><g><line id="c" class="j" x1="9.5" y1="20.1079" x2="9.5" y2="27.8921"/><polyline id="d" class="i" points="11.4633 27.7948 11.4633 20.1079 15.3554 27.8921 19.2475 20.1079 19.2475 27.8921"/><path id="e" class="j" d="m21.0374,27.0164c.4865.5838,1.0703.8757,1.9461.8757h1.1676c1.0703,0,1.9461-.8757,1.9461-1.9461h0c0-1.0703-.8757-1.9461-1.9461-1.9461h-1.2649c-1.0703,0-1.9461-.8757-1.9461-1.9461h0c0-1.0703.8757-1.9461,1.9461-1.9461h1.1676c.8757,0,1.4595.1946,1.9461.8757"/><polyline id="f" class="i" points="27.6799 20.1079 27.6799 27.8921 31.572 27.8921"/><path id="g" class="j" d="m33.343,27.8921v-7.7842h2.5299c1.4595,0,2.6272,1.1676,2.6272,2.6272s-1.1676,2.6272-2.6272,2.6272h-2.5299"/></g><path id="h" class="j" d="m40.5,5.5H7.5c-1.1046,0-2,.8954-2,2v33c0,1.1046.8954,2,2,2h33c1.1046,0,2-.8954,2-2V7.5c0-1.1046-.8954-2-2-2Z"/></svg>