<?xml version="1.0" encoding="UTF-8"?><svg id="a" xmlns="http://www.w3.org/2000/svg" viewBox="0 0 48 48"><defs><style>.b{fill:none;stroke:#000;stroke-linecap:round;stroke-linejoin:round;}</style></defs><path class="b" d="m18.6493,24.389c1.9153.1724,4.1713-.4342,3.5636-2.0436"/><path class="b" d="m23.4755,27.4039c-.1367.9293-1.0407,1.6304-2.0173,1.5663-.9766-.0652-1.6578-.8715-1.5211-1.8007.1367-.9293,1.0407-1.6294,2.0173-1.5653.9776.0652,1.6578.8704,1.5211,1.7997Z"/><path class="b" d="m37.6691,26.1424l1.621-.1997c1.5117-.1861,1.7997-.718,1.5253-1.6725"/><path class="b" d="m44.3685,19.0267l.1304-.656c-.7201-1.2236-1.4402-1.5379-2.1592-2.0078l-2.1308.1282"/><line class="b" x1="38.9085" y1="21.4739" x2="40.7481" y2="21.1144"/><path class="b" d="m40.7481,21.1144c.8452-.165,1.5064-.5803,1.7419-1.0512l1.6252.2355.2523-1.272"/><polyline class="b" points="35.5435 23.2147 35.758 22.0899 38.9085 21.4739"/><path class="b" d="m39.8052,22.7669c.8284,1.3203,1.6588,2.6386,3.9232,2.6333l-2.0541-2.955"/><path class="b" d="m32.8997,25.9595l-4.4845-.288-.6886,3.3576c-1.0954.1083-1.6241.307-3.0559.1745"/><path class="b" d="m37.2328,28.0178c-.1566,1.7692-1.724,2.0814-3.529,1.8323l-5.9773-.821"/><line class="b" x1="35.4689" y1="27.9421" x2="32.9565" y2="21.7725"/><path class="b" d="m24.9588,22.2802c-1.4759.061-3.0822-.0242-4.5066-.2754"/><path class="b" d="m28.7095,21.6621c-.9009.3437-2.2591.5561-3.7508.6181"/><path class="b" d="m25.1753,23.9222l.226,1.7156c2.011.082,3.8559.2491,5.2488-.7085,1.5947-1.0975,1.9563-2.0541,1.7986-3.1673"/><path class="b" d="m26.2392,17.3847c-1.21-.6591-2.2664-1.2425-3.2619-1.4192-1.5842-.2807-2.5334-.5162-4.7421.3227"/><path class="b" d="m30.895,21.7672l1.2194.0116c1.3666.0137,2.3022-.4478,3.0328-1.0092.945-.7274,3.5584-1.0512,5.8469-1.4149.615-1.0029.4205-2.0015-.0652-2.3221l-1.4927-.9839c-2.6133.1777-4.7042.2176-6.608,1.0186-.9219.389-2.3022.4499-3.8653.4142"/><path class="b" d="m26.2192,17.371c1.3876,1.1458,2.1603,2.7069,2.7773,4.3836"/><path class="b" d="m14.5086,21.0681c-.3974-.8883-.9997-1.9269-1.9321-1.4864"/><path class="b" d="m11.8353,15.1498l4.0798-2.6627c.9019.4436,1.3792,1.0659,1.3351,1.8554-.0347.6002-.3627.9755-.6202,1.3161"/><line class="b" x1="17.0809" y1="18.9321" x2="14.5075" y2="21.0671"/><polyline class="b" points="12.5754 19.5807 11.6577 17.9492 11.8343 15.1487"/><path class="b" d="m16.6289,15.6575c-.2176.2901-.3837.555-.2733.9135l.7243,2.36"/><line class="b" x1="17.5392" y1="21.3467" x2="18.3445" y2="25.5684"/><path class="b" d="m10.4477,30.0466c-.0999.7726-.8094,1.3897-1.5842,1.3771-.7748-.0126-1.3224-.6497-1.2215-1.4234.0999-.7726.8094-1.3897,1.5842-1.3771.7748.0126,1.3224.6497,1.2215,1.4223v.0011Z"/><path class="b" d="m40.5999,27.4091c0,.2302-.0158.4646-.0463.7022-.3932,3.0307-3.1736,5.4485-6.2106,5.3991-1.7629-.0284-3.2241-.8809-4.064-2.1834"/><path class="b" d="m13.7159,26.565c.6791.9671,1.0029,2.2044.8284,3.5468-.3921,3.0307-3.1726,5.4485-6.2106,5.4001-3.037-.0494-5.1815-2.5461-4.7883-5.5767.3921-3.0317,3.1726-5.4495,6.2106-5.4001.2754.0042.5424.0294.8021.0725"/><path class="b" d="m16.4418,28.1839c.2397-6.0719-3.8222-7.5793-8.5843-6.7404-1.1553.2029-2.5377.5876-2.2349,1.6862"/><line class="b" x1="14.2973" y1="22.5651" x2="13.5236" y2="23.6499"/><line class="b" x1="12.6952" y1="24.8105" x2="9.8884" y2="28.7421"/></svg>