<?xml version="1.0" encoding="UTF-8"?><svg id="a" xmlns="http://www.w3.org/2000/svg" viewBox="0 0 48 48"><defs><style>.c{fill:none;stroke:#000;stroke-linecap:round;stroke-linejoin:round;}</style></defs><path id="b" class="c" d="M12.593,37.193h22.814M15.147,35.199h17.705M16.89,33.681h14.22M28.292,32.909l6.788,6.788M19.708,32.909l-6.788,6.788M4.5,41.453l8.989-8.847c-2.9293-2.8947-4.5822-6.8388-4.592-10.957,0-8.34,6.762-15.103,15.103-15.103s15.103,6.762,15.103,15.103h0c0,4.15-1.708,8.118-4.592,10.958l8.989,8.847M19.708,30.909v1.726M28.292,30.909v1.726M29.802,27.427c.0006.8273-.6697,1.4984-1.497,1.499h-.001c-.8273,0-1.498-.6707-1.498-1.498v-.001c0-.8273.6707-1.498,1.498-1.498s1.498.6707,1.498,1.498ZM21.194,27.427c.0006.8273-.6697,1.4984-1.497,1.499h-.001c-.8273,0-1.498-.6707-1.498-1.498v-.001c0-.8273.6707-1.498,1.498-1.498s1.498.6707,1.498,1.498ZM19.132,14.365h9.736c.553,0,.997.444.997.996v5.138c.0011.5495-.4435.9959-.993.997-.0013,0-.0027,0-.004,0h-9.736c-.5495.0011-.9959-.4435-.997-.993,0-.0013,0-.0027,0-.004v-5.137c0-.552.444-.996.997-.996v-.001ZM18.764,11.905h10.472c1.648-.0033,2.9867,1.33,2.99,2.978,0,.004,0,.008,0,.012v13.43c.0033,1.648-1.33,2.9867-2.978,2.99-.004,0-.008,0-.012,0h-10.472c-1.648.0033-2.9867-1.33-2.99-2.978,0-.004,0-.008,0-.012v-13.43c-.0033-1.648,1.33-2.9867,2.978-2.99.004,0,.008,0,.012,0Z"/></svg>