<?xml version="1.0" encoding="UTF-8"?><svg id="a" xmlns="http://www.w3.org/2000/svg" viewBox="0 0 48 48"><defs><style>.f{fill:none;stroke:#000;stroke-linecap:round;stroke-linejoin:round;}</style></defs><g id="b"><path id="c" class="f" d="m4.6747,14.5819c1.2328-.8984,10.5881-1.5489,21.0917-1.4666,10.5037.0823,18.3296.8674,17.6438,1.7701-.6858.9027-9.6336,1.5941-20.173,1.5588-10.5394-.0353-18.8313-.7844-18.6943-1.6889l.1317-.1733Z"/><path id="d" class="f" d="m43.1732,18.5339c-1.8752.7956-10.1922,1.3605-19.7013,1.3381-9.509-.0224-17.4484-.6255-18.8066-1.4287"/><path id="e" class="f" d="m4.5637,14.7677s-1.019,11.2088,5.0949,16.1184c0,0,3.8668,3.9776,14.3084,3.9833,10.5168.3705,14.3744-3.9833,14.3744-3.9833,6.1139-4.9096,5.0949-16.1184,5.0949-16.1184"/></g></svg>