<?xml version="1.0" encoding="UTF-8"?><svg id="a" xmlns="http://www.w3.org/2000/svg" viewBox="0 0 48 48"><defs><style>.b,.c{fill:none;stroke:#000;stroke-linecap:round;stroke-linejoin:round;}.c{stroke-width:1.0529px;}</style></defs><path class="c" d="M24,35.441c-.3784,0-.735-.1759-.9661-.4764l-7.5537-9.8452c-.2815-.368-.3309-.8634-.1255-1.2789s.6285-.6789,1.0916-.6789h2.9962l-6.6323-8.6443c-.2815-.368-.3309-.8634-.1255-1.2789s.6285-.6789,1.0916-.6789h20.4474c.4631,0,.8862.2634,1.0916.6789s.1559.9109-.1255,1.2789l-6.6323,8.6443h2.9962c.4631,0,.8862.2634,1.0916.6789s.1559.9109-.1255,1.2789l-7.5537,9.8452c-.2311.3005-.5876.4764-.9661.4764Z"/><path class="b" d="M38.5,5.5H9.5c-2.2091,0-4,1.7909-4,4v29c0,2.2091,1.7909,4,4,4h29c2.2091,0,4-1.7909,4-4V9.5c0-2.2091-1.7909-4-4-4Z"/></svg>