<?xml version="1.0" encoding="UTF-8"?><svg id="a" xmlns="http://www.w3.org/2000/svg" viewBox="0 0 48 48"><defs><style>.c{fill:none;stroke:#000;stroke-linecap:round;stroke-linejoin:round;}</style></defs><path id="b" class="c" d="M9.5,5.5h29c2.216,0,4,1.784,4,4v29c0,2.216-1.784,4-4,4H9.5c-2.216,0-4-1.784-4-4V9.5c0-2.216,1.784-4,4-4ZM16.09,11.992l-2.543,1.452M26.884,21.246l-.765.437M24.267,22.74l-1.883,1.076M20.244,25.038l-5.739,3.277c-.52.296-.957.92-.957,1.517v4.775c0,.328-.086,1.034.37,1.297.455.262.974-.027,1.258-.19l19.94-11.464c.599-.345.67-1.264-.074-1.68l-10.868-6.08c-1.248-.698-1.668-.493-2.727.111l-7.9,4.51"/></svg>