<?xml version="1.0" encoding="UTF-8"?><svg id="a" xmlns="http://www.w3.org/2000/svg" viewBox="0 0 48 48"><defs><style>.b{fill:none;stroke:#000;stroke-linecap:round;stroke-linejoin:round;}</style></defs><path class="b" d="M24.0005,35.4405c-.3784-.0003-.7352-.1761-.966-.476l-7.554-9.846c-.4087-.5336-.3074-1.2975.2262-1.7062.2123-.1626.4724-.2508.7398-.2508h2.996l-6.632-8.645c-.4087-.5336-.3074-1.2975.2262-1.7062.2123-.1626.4724-.2508.7398-.2508h20.448c.6727.0012,1.217.5475,1.2158,1.2202-.0005.2663-.0882.5251-.2498.7368l-6.632,8.645h2.996c.6727.0012,1.217.5475,1.2158,1.2202-.0005.2663-.0882.5251-.2498.7368l-7.554,9.846c-.2308.2999-.5876.4757-.966.476"/><path class="b" d="M38.5,5.5H9.5c-2.2091,0-4,1.7909-4,4v29c0,2.2091,1.7909,4,4,4h29c2.2091,0,4-1.7909,4-4V9.5c0-2.2091-1.7909-4-4-4"/></svg>