<?xml version="1.0" encoding="UTF-8"?><svg id="a" xmlns="http://www.w3.org/2000/svg" viewBox="0 0 48 48"><defs><style>.b{fill:none;stroke:#000;stroke-linecap:round;stroke-linejoin:round;}</style></defs><path class="b" d="M30.996,24.053c-1.3753-.0751-2.4522-1.2204-2.4521-2.6079,0-1.4423,1.1607-2.6116,2.5924-2.6116s2.5924,1.1693,2.5924,2.6116c0,.2887-.0475.5754-.1406.8485"/><path class="b" d="M14.412,22.293c-.093-.2729-.1405-.5595-.1405-.8481,0-1.4423,1.1607-2.6116,2.5924-2.6116h0c1.4317,0,2.5924,1.1693,2.5924,2.6116,0,1.3884-1.0783,2.5342-2.4546,2.608"/><rect class="b" x="4.5" y="14.228" width="39" height="19.544" rx="1" ry="1"/><path class="b" d="M4.5,15.527s16.821,4.4075,19.5,4.4075c2.4747,0,19.5-4.4075,19.5-4.4075"/><path class="b" d="M27.802,26.217l15.698-10.689"/><path class="b" d="M4.5,15.527l15.67,10.67"/><path class="b" d="M4.5,32.492s16.821-7.3187,19.5-7.3187c2.4747,0,19.5,7.3187,19.5,7.3187"/></svg>