<?xml version="1.0" encoding="UTF-8"?><svg id="b" xmlns="http://www.w3.org/2000/svg" viewBox="0 0 48 48"><defs><style>.c{fill:none;stroke:#000;stroke-linecap:round;stroke-linejoin:round;}</style></defs><path class="c" d="M38.5,5.5H9.5c-2.2091,0-4,1.7909-4,4v29c0,2.2091,1.7909,4,4,4h29c2.2091,0,4-1.7909,4-4V9.5c0-2.2091-1.7909-4-4-4Z"/><line class="c" x1="9.5" y1="18.6226" x2="9.5" y2="29.3774"/><path class="c" d="M12.6573,29.3774v-10.7549h3.5209c1.9905,0,3.6042,1.6171,3.6042,3.6119s-1.6136,3.6119-3.6042,3.6119h-3.5209"/><line class="c" x1="21.4431" y1="18.6226" x2="28.5681" y2="18.6226"/><line class="c" x1="25.0056" y1="29.3774" x2="25.0056" y2="18.6226"/><polyline class="c" points="38.5 18.6226 34.9375 29.3774 31.3749 18.6226"/></svg>