<?xml version="1.0" encoding="UTF-8"?><svg id="a" xmlns="http://www.w3.org/2000/svg" viewBox="0 0 48 48"><defs><style>.b{fill:none;stroke:#000;stroke-linecap:round;stroke-linejoin:round;}.c{fill:#000;stroke-width:0px;}</style></defs><path class="b" d="m40.5,5.5H7.5c-1.1046,0-2,.8954-2,2v33c0,1.1046.8954,2,2,2h33c1.1046,0,2-.8954,2-2V7.5c0-1.1046-.8954-2-2-2Z"/><circle class="c" cx="14.4131" cy="14.8799" r=".75"/><line class="b" x1="14.4131" y1="18.9135" x2="14.4131" y2="31.8701"/><path class="b" d="m25.9867,30.777c.8927.7496,1.8566,1.0931,4.0211,1.0931h1.0969c1.7851,0,3.2322-1.4502,3.2322-3.2391h0c0-1.7889-1.4471-3.2392-3.2322-3.2392h-2.1938c-1.7851,0-3.2322-1.4502-3.2322-3.2391h0c0-1.7889,1.4471-3.2392,3.2322-3.2392h1.0969c2.1645,0,3.1284.3435,4.0211,1.0931"/><path class="b" d="m20.0676,14.8799v14.5456c0,1.3501,1.0945,2.4446,2.4446,2.4446h.7334"/><line class="b" x1="17.5007" y1="18.9135" x2="22.6344" y2="18.9135"/></svg>