<?xml version="1.0" encoding="UTF-8"?><svg id="a" xmlns="http://www.w3.org/2000/svg" viewBox="0 0 48 48"><defs><style>.b{fill:none;stroke:#000;stroke-linecap:round;stroke-linejoin:round;}</style></defs><path class="b" d="M24,3.5c1.6155,0,5.0188,4.162,6.5114,4.7802,1.4926.6182,6.8419.0818,7.9843,1.2241,1.1424,1.1424.6059,6.4918,1.2241,7.9843s4.7802,4.8959,4.7802,6.5114-4.162,5.0188-4.7802,6.5114c-.6182,1.4926-.0818,6.8419-1.2241,7.9843-1.1424,1.1424-6.4918.6059-7.9843,1.2241s-4.8959,4.7802-6.5114,4.7802-5.0188-4.162-6.5114-4.7802c-1.4926-.6182-6.8419-.0818-7.9843-1.2241-1.1424-1.1424-.6059-6.4918-1.2241-7.9843s-4.7802-4.8959-4.7802-6.5114,4.162-5.0188,4.7802-6.5114c.6182-1.4926.0818-6.8419,1.2241-7.9843,1.1424-1.1424,6.4918-.6059,7.9843-1.2241s4.8959-4.7802,6.5114-4.7802Z"/><circle class="b" cx="24" cy="18.0607" r="2.8605"/><path class="b" d="M24,24.9535c-1.8431,0-3.3372,1.4941-3.3372,3.3372v4.9662h6.6744v-4.9662c0-1.8431-1.4941-3.3372-3.3372-3.3372Z"/></svg>