<?xml version="1.0" encoding="UTF-8"?><svg id="a" xmlns="http://www.w3.org/2000/svg" viewBox="0 0 48 48"><defs><style>.b{fill:none;stroke:#000;stroke-linecap:round;stroke-linejoin:round;}</style></defs><path class="b" d="M38.5,5.5H9.5c-2.2091,0-4,1.7909-4,4v29c0,2.2091,1.7909,4,4,4h29c2.2091,0,4-1.7909,4-4V9.5c0-2.2091-1.7909-4-4-4Z"/><path class="b" d="M15.582,18.5761v6.1229c0,1.1272-.9137,2.041-2.041,2.041h0c-1.1272,0-2.041-.9137-2.041-2.041v-.6778"/><path class="b" d="M22.2866,25.6746c-.3516.6153-1.0141,1.03-1.7734,1.03h0c-1.1272,0-2.041-.9137-2.041-2.041v-1.3266c0-1.1272.9137-2.041,2.041-2.041h0c1.1272,0,2.041.9137,2.041,2.041v.6633h-4.082"/><path class="b" d="M32.418,21.26v8.1639M32.418,24.6276c0,1.1272.9137,2.041,2.041,2.041h0c1.1272,0,2.041-.9137,2.041-2.041v-1.3266c0-1.1272-.9137-2.041-2.041-2.041h0c-1.1272,0-2.041.9137-2.041,2.041"/><path class="b" d="M29.2596,25.7103c-.3516.6153-1.0141,1.03-1.7734,1.03h0c-1.1272,0-2.041-.9137-2.041-2.041v-1.3266c0-1.1272.9137-2.041,2.041-2.041h0c1.1272,0,2.041.9137,2.041,2.041v.6633h-4.082"/></svg>