<svg xmlns="http://www.w3.org/2000/svg" viewBox="0 0 48 48"><defs><style>.a{fill:none;stroke:#000;stroke-linecap:round;stroke-linejoin:round;}</style></defs><circle class="a" cx="31.1943" cy="8.0942" r="3.5942"/><path class="a" d="M18.8238,37.6167c-.1155-.0436-.6668-.1686-1.1895-.3339-.5159-.1631-1.0033-.3664-1.1138-.4126C10.2444,34.25,6.79,29.08,6.79,22.16q0-.8356.081-1.6683"/><path class="a" d="M40.77,18.2946a17.2071,17.2071,0,0,1,.44,3.8658h0a17.21,17.21,0,0,1-8.0207,14.5513"/><path class="a" d="M9.7994,12.438A17.21,17.21,0,0,1,28.1941,5.4694"/><path class="a" d="M10.238,32.5006C12.69,39.9331,17.1773,43.5,21.7489,43.5a6.5619,6.5619,0,0,0,2.9419-.4658,11.9343,11.9343,0,0,0,1.4054-.6811,11.1739,11.1739,0,0,0,1.864-1.511,11.8171,11.8171,0,0,0,1.6292-1.9387,38.0736,38.0736,0,0,0,4.5449-10.1988c.7812-2.7821,1.3524-5.6234,1.9718-8.4462.1809-.8361.3306-1.6623.4305-2.384a16.06,16.06,0,0,0,3.4373-1.7623,15.44,15.44,0,0,0-2.4106-4.5765c-4.3472,2.3359-10.6285,3.6758-17.2314,3.6758A44.0853,44.0853,0,0,1,8.9946,13.7181a15.6512,15.6512,0,0,0-1.8011,4.7887,42.8922,42.8922,0,0,0,12.9846,1.8694,60.54,60.54,0,0,0,9.2408-.64c-1.2127,11.5574-5.657,19.7061-10.7912,19.7061-2.5234,0-5.2757-1.8485-7.2477-5.4957"/></svg>