<?xml version="1.0" encoding="UTF-8"?><svg id="b" xmlns="http://www.w3.org/2000/svg" viewBox="0 0 48 48"><defs><style>.c{fill:none;stroke:#000;stroke-linecap:round;stroke-linejoin:round;}.d{fill:#000;stroke-width:1px;}</style></defs><path class="c" d="m40.256,19.442v2.7c0,1.1-.9,2-2,2-.6,0-1.1-.2-1.4-.6"/><path class="c" d="m11.744,13.342v6c0,1.1-.9,2-2,2s-2-.9-2-2v-.7"/><path class="c" d="m17.724,20.342c-.3.6-1,1-1.7,1-1.1,0-2-.9-2-2v-1.3c0-1.1.9-2,2-2s2,.9,2,2v.7h-4"/><path class="c" d="m33.675,20.342c-.3.6-1,1-1.7,1-1.1,0-2-.9-2-2v-1.3c0-1.1.9-2,2-2s2,.9,2,2v.7h-4"/><path class="c" d="m40.256,16.042v3.3c0,1.1-.9,2-2,2s-2-.9-2-2v-3.3"/><line class="c" x1="20.305" y1="15.942" x2="20.305" y2="21.342"/><path class="c" d="m20.305,17.942c0-1.1.9-2,2-2"/><path class="c" d="m24.395,20.942c.4.3.8.4,1.6.4h.4c.7,0,1.3-.6,1.3-1.3s-.6-1.3-1.3-1.3h-.9c-.7,0-1.3-.6-1.3-1.3s.6-1.3,1.3-1.3h.4c.9,0,1.3.1,1.6.4"/><path class="c" d="m43.5,37.501V10.501c0-1.1046-.8954-2-2-2H6.5c-1.1046,0-2,.8954-2,2v27c0,1.1046.8954,2,2,2h35c1.1046,0,2-.8954,2-2Z"/><path class="c" d="m36.3028,34.259c.4.3.8.4,1.6.4h.4c.7,0,1.3-.6,1.3-1.3s-.6-1.3-1.3-1.3h-.9c-.7,0-1.3-.6-1.3-1.3s.6-1.3,1.3-1.3h.4c.9,0,1.3.1,1.6.4"/><line class="c" x1="19.6982" y1="29.259" x2="19.6982" y2="34.659"/><path class="c" d="m32.3562,33.659c-.3.6-1,1-1.7,1-1.1,0-2-.9-2-2v-1.3c0-1.1.9-2,2-2s2,.9,2,2v.7h-4"/><polyline class="c" points="8.3972 34.559 8.3972 26.659 12.3972 34.659 16.3972 26.659 16.3972 34.659"/><line class="c" x1="24.0382" y1="31.759" x2="26.8382" y2="34.559"/><line class="c" x1="22.8382" y1="32.959" x2="26.4382" y2="29.259"/><line class="c" x1="22.8382" y1="26.559" x2="22.8382" y2="34.659"/><circle class="d" cx="19.6982" cy="26.859" r=".7"/><path class="c" d="m34.7678,28.609c.5-.2.5-.7.5-1v-.7"/><circle class="d" cx="35.0178" cy="26.909" r=".75"/></svg>