<?xml version="1.0" encoding="utf-8"?>
<!-- Generator: Adobe Illustrator 25.2.3, SVG Export Plug-In . SVG Version: 6.00 Build 0)  -->
<svg version="1.1" id="Layer_1" xmlns="http://www.w3.org/2000/svg" xmlns:xlink="http://www.w3.org/1999/xlink" x="0px" y="0px"
	 viewBox="0 0 48 48" style="enable-background:new 0 0 48 48;" xml:space="preserve">
<style type="text/css">
	.st0{fill:none;stroke:#000000;stroke-linecap:round;stroke-linejoin:round;}
</style>
<path class="st0" d="M6.7,19.2h35.8l0,0v19.6c0,2-1.6,3.7-3.7,3.7H10.3c-2,0-3.7-1.6-3.7-3.7V19.2L6.7,19.2z"/>
<path class="st0" d="M30,30.4l-7.8-4.9c-0.2-0.1-0.5-0.1-0.7,0.2c0,0.1-0.1,0.2-0.1,0.3v9.7c0,0.3,0.2,0.5,0.5,0.5
	c0.1,0,0.2,0,0.3-0.1l7.8-4.9c0.2-0.1,0.3-0.5,0.1-0.7C30.1,30.5,30.1,30.5,30,30.4z"/>
<path class="st0" d="M37.5,5.9l-1.1,4.3l-5.2,1l1.1-4.3l-5.5,1l-1.1,4.3l-5.2,1l1-4.3l-5.4,1l-1.1,4.3l-5.2,1l1.1-4.3l-4.4,0.8
	c-0.7,0.1-1.1,0.7-1,1.4c0,0,0,0,0,0l1.1,6.2l35.2-6.5l-1.2-6.2c-0.1-0.7-0.7-1.1-1.4-1c0,0,0,0,0,0L37.5,5.9z"/>
</svg>
