<?xml version="1.0" encoding="UTF-8"?><svg id="a" xmlns="http://www.w3.org/2000/svg" viewBox="0 0 48 48"><defs><style>.d{fill:none;stroke:#000;stroke-linecap:round;stroke-linejoin:round;}</style></defs><path id="c" class="d" d="M38.5006,5.4992H9.4994c-2.2001,0-4.0002,1.8001-4.0002,4.0002v29.0012c0,2.2001,1.8001,4.0002,4.0002,4.0002h29.0012c2.2001,0,4.0002-1.8001,4.0002-4.0002V9.4994c0-2.2001-1.8001-4.0002-4.0002-4.0002Z"/><path class="d" d="M5.5,31.8505c4.5624-2.961,14.7573,1.0786,15.0701,10.6495,0,0,1.4019-23.6869-15.0701-23.6869"/><path class="d" d="M25.9532,5.5c3.9276,15.3381.7516,24.4276-3.6168,31.3131.4205-9.5888-7.5701-27.1309-10.514-31.3131"/><path class="d" d="M42.5,27.5607c-4.3722.2018-12.1678,4.5377-15.9579,14.9393,0-12.5122,2.2242-18.7243,15.9579-23.6869"/></svg>