<?xml version="1.0" encoding="UTF-8"?><svg id="b" xmlns="http://www.w3.org/2000/svg" viewBox="0 0 48 48"><defs><style>.c{fill:none;stroke:#000;stroke-linecap:round;stroke-linejoin:round;}</style></defs><path class="c" d="M28.1794,7.751l14.3206,5.9618-5.9003,14.1977c-.1844-4.8555-3.7492-6.4535-7.4983-6.7608.3073-2.5814,3.196-2.7043,3.196-2.7043-2.9655-2.9655-6.8223.3073-6.8223.3073-.0615-1.1678-1.366-2.0897-1.366-2.0897l4.0703-8.912Z"/><path class="c" d="M9.1724,10.8241c1.0909.5224,1.7056.8605,1.7056.8605,0,0,7.0988-.7375,9.3115.338l-2.7504-5.6084-8.2666,4.4099Z"/><path class="c" d="M5.5,15.6182l5.3011,10.4485,8.0515-3.7953c-.1998-7.0528-9.5419-5.8081-13.3526-6.6532Z"/><path class="c" d="M32.3895,31.3985l-9.1578,10.1873-11.2782-10.0336c2.1512-2.0897,2.7811-3.196,2.7811-3.196,2.9809,3.1499,7.0835,2.1358,7.0835,2.1358.7068-2.4738,1.8746-4.4252,1.8746-4.4252,2.3202-.2305,6.6379-.2766,8.6968,5.3318Z"/></svg>