<?xml version="1.0" encoding="UTF-8"?><svg id="a" xmlns="http://www.w3.org/2000/svg" viewBox="0 0 48 48"><defs><style>.c{fill:none;stroke:#000;stroke-linecap:round;stroke-linejoin:round;}</style></defs><path id="b" class="c" d="M9.5,5.5c-2.2091,0-4,1.7909-4,4v29c0,2.2091,1.7909,4,4,4h29c2.2091,0,4-1.7909,4-4V9.5c0-2.2091-1.7909-4-4-4H9.5Z"/><path class="c" d="M10.5,23.0908v10.8194c0,2.7187,5.271,5.6594,10.1536,0"/><path class="c" d="M21.042,16.0644v10.8194c0,2.7187,5.271,5.6594,10.1536,0"/><path class="c" d="M16.2842,22.7301c1.7339.7629,2.802,1.9142,2.802,1.9142"/><path class="c" d="M15.0307,24.3762c1.7339.7629,2.802,1.9142,2.802,1.9142"/><path class="c" d="M32.2359,10.8565v8.822c0,4.1821-4.7439,4.1405-4.7439,1.3732,0-3.4123,5.7634-1.7061,10.008.3745"/><path class="c" d="M32.2359,14.7265c1.8934.2913,4.7023-.3953,4.7023-.3953"/></svg>