<?xml version="1.0" encoding="UTF-8"?><svg id="a" xmlns="http://www.w3.org/2000/svg" viewBox="0 0 48 48"><defs><style>.m{fill:#000;}.n{fill:none;stroke:#000;stroke-linecap:round;stroke-linejoin:round;}</style></defs><path id="b" class="n" d="M40.5,5.5H7.5c-1.1046,0-2,.8954-2,2V40.5c0,1.1046,.8954,2,2,2H40.5c1.1046,0,2-.8954,2-2V7.5c0-1.1046-.8954-2-2-2Z"/><g><g id="c"><line id="d" class="n" x1="37.3838" y1="19.4955" x2="29.5846" y2="29.8295"/><line id="e" class="n" x1="37.3838" y1="29.8295" x2="29.5846" y2="19.4955"/></g><g id="f"><path id="g" class="n" d="M22.9705,16.0508v11.6989c0,1.1699,.7799,1.9498,1.9498,1.9498h.5849"/><line id="h" class="n" x1="21.0207" y1="19.3655" x2="25.1153" y2="19.3655"/></g><g id="i"><g id="j"><path id="k" class="n" d="M17.2455,19.0704v11.6989c0,2.1448-1.7548,3.8996-3.8996,3.8996h0c-.9749,0-1.9498-.39-2.7297-1.1699"/></g><circle id="l" class="m" cx="17.2455" cy="14.3909" r=".75"/></g></g></svg>