<svg xmlns="http://www.w3.org/2000/svg" viewBox="0 0 48 48"><defs><style>.a{fill:none;stroke:#000;stroke-linecap:round;stroke-linejoin:round;}</style></defs><line class="a" x1="9.9019" y1="18.5981" x2="9.9019" y2="32.6962"/><line class="a" x1="38.0981" y1="18.5981" x2="38.0981" y2="32.6962"/><circle class="a" cx="24" cy="18.5981" r="14.0981"/><circle class="a" cx="24" cy="18.5981" r="9.0779"/><circle class="a" cx="24" cy="18.5981" r="4.0576"/><path class="a" d="M7.5324,32.6962h4.7389a0,0,0,0,1,0,0v8.4343A2.3695,2.3695,0,0,1,9.9019,43.5h0a2.3695,2.3695,0,0,1-2.3695-2.3695V32.6962a0,0,0,0,1,0,0Z"/><path class="a" d="M35.7286,32.6962h4.7389a0,0,0,0,1,0,0v8.4343A2.3695,2.3695,0,0,1,38.0981,43.5h0a2.3695,2.3695,0,0,1-2.3695-2.3695V32.6962a0,0,0,0,1,0,0Z"/></svg>