<svg xmlns="http://www.w3.org/2000/svg" viewBox="0 0 48 48"><defs><style>.a{fill:none;stroke:#000;stroke-linecap:round;stroke-linejoin:round;}</style></defs><path class="a" d="M13.15,20.67a3.07,3.07,0,1,1,3.06,3.07,3.07,3.07,0,0,1-3.06-3.07Z"/><path class="a" d="M31.79,23.74a3.07,3.07,0,1,1,3.07-3.07,3.07,3.07,0,0,1-3.07,3.07Z"/><path class="a" d="M24,30.47a2.61,2.61,0,0,1,1.59,4.69l1.24,4.31H21.16l1.23-4.31A2.62,2.62,0,0,1,24,30.47Z"/><path class="a" d="M5.51,28.31V40a1.94,1.94,0,0,0,1.94,2h33.1a2,2,0,0,0,2-2V28.31"/><path class="a" d="M39,13.72l2.58-2.56A3,3,0,0,0,37.31,6.9h0L34.76,9.5a18.39,18.39,0,0,0-21.51,0L10.68,6.93A3.22,3.22,0,0,0,8.5,6a3,3,0,0,0-2.12,5.15L9,13.71a18.41,18.41,0,0,0-3.47,10.8v3.8h37v-3.8A18.57,18.57,0,0,0,39,13.72Zm-19.87,7a2.93,2.93,0,1,1-2.93-2.92A2.93,2.93,0,0,1,19.14,20.7Zm12.65,2.92a2.92,2.92,0,1,1,2.92-2.92A2.92,2.92,0,0,1,31.79,23.62Z"/><line class="a" x1="5.51" y1="34.97" x2="19.28" y2="34.97"/><line class="a" x1="28.72" y1="34.97" x2="42.5" y2="34.97"/></svg>