<?xml version="1.0" encoding="UTF-8"?><svg id="a" xmlns="http://www.w3.org/2000/svg" viewBox="0 0 48 48"><defs><style>.k{fill:none;stroke:#000;stroke-linecap:round;stroke-linejoin:round;}</style></defs><path id="b" class="k" d="m24.0213,5L5.8094,13.8929l18.0533,7.9803,18.3279-7.9803L24.0213,5Z"/><path id="c" class="k" d="m5.8094,13.8929v4.3425l18.0533,8.6589,18.3279-8.6589v-4.3425"/><path id="d" class="k" d="m23.8627,21.8733v5.0211"/><path id="e" class="k" d="m38.239,20.1023l3.9516,1.7709-18.3279,8.779L5.8094,22.0516l3.8924-1.9493"/><path id="f" class="k" d="m42.1906,21.8732v4.4582l-18.3279,8.6278L5.8094,26.3314v-4.2797"/><path id="g" class="k" d="m23.8627,30.6522v4.307"/><path id="h" class="k" d="m38.2838,28.1869l3.9068,1.7342-18.3279,8.8722L5.8349,29.9466l3.8572-1.7597"/><path id="i" class="k" d="m42.1906,29.9211v4.3596l-18.3279,8.7193-18.0533-8.8212v-4.2322"/><path id="j" class="k" d="m23.8627,38.7933v4.2067"/></svg>