<?xml version="1.0" encoding="UTF-8"?><svg id="a" xmlns="http://www.w3.org/2000/svg" viewBox="0 0 48 48"><defs><style>.b{fill:none;stroke:#000;stroke-linecap:round;stroke-linejoin:round;}</style></defs><path class="b" d="m39.111,31.9123l-15.111,11.5877-15.111-11.5877c-.7748-.594-1.2289-1.5148-1.2287-2.491V7.0107c0-1.3866,1.1241-2.5107,2.5107-2.5107h27.658c1.3866,0,2.5107,1.1241,2.5107,2.5107h0v22.4114c0,.976-.4541,1.8964-1.2287,2.4903Z"/><path class="b" d="m24,7.7514c-7.1815,0-13,5.8185-13,13s5.8185,13,13,13,13-5.8185,13-13-5.8185-13-13-13Zm5.9653,12.0722l-4.1935-2.5161c-.4036-.2464-.4036-.8335,0-1.0798l4.1935-2.5161m-11.9306,0l4.1935,2.5161c.4089.2464.4089.8335,0,1.0798l-4.1935,2.5161m12.9165,4.3495c-.41,3.2706-3.2015,5.8042-6.5827,5.8042h-.737c-3.3812,0-6.1727-2.5336-6.5827-5.8042-.0553-.4376.2902-.8292.7324-.8292h12.4375c.4422,0,.7877.3869.7324.8292Z"/></svg>