<?xml version="1.0" encoding="UTF-8"?><svg id="b" xmlns="http://www.w3.org/2000/svg" viewBox="0 0 48 48"><defs><style>.ag{fill:none;stroke:#000;stroke-linecap:round;stroke-linejoin:round;}</style></defs><g id="c"><path id="d" class="ag" d="M18.1276,21.1406l-7.0014,10.5054-1.1078,2.9091c1.1914,1.5711,3.1659,1.2059,4.1597.6085l7.7318-4.6474c.5449-.3276.9104-.3416,1.3572-.2874l2.4626-1.4554"/><path id="e" class="ag" d="M10.4448,34.9401c.7727-.1683,1.5553-.1543,2.3706-.9099l6.314-5.8516c.3913-.3627,1.2174-.6495,1.5798-.2579l2.1164,2.2872"/></g><path id="f" class="ag" d="M21.6564,19.3635c-1.6194-1.555-3.2575-3.0988-4.8909-4.6454-.3829-.3626-.8804-.2425-1.2616.086l-.8986.7747c-.6466.5574-.3335,1.1499.1312,1.63h0c4.2248,5.0219,8.6001,9.7646,14.3351,14.4222.376.3054.8894.3603,1.3613-.111l.7518-.7506c.5166-.5158.4701-1.0386.1219-1.4398-1.3913-1.6028-2.8449-3.1685-4.34-4.7096"/><g id="g"><path id="h" class="ag" d="M34.0174,12.6443c2.1581,2.4016,2.5063,5.5789.7778,7.0967h0c-1.7285,1.5178-4.8792.8013-7.0373-1.6003-2.1581-2.4016-2.5063-5.5789-.7778-7.0967,1.7285-1.5178,4.8792-.8013,7.0373,1.6003h0"/><path id="i" class="ag" d="M33.1155,13.0708c1.5568,1.4622,2.0925,3.3966,1.1965,4.3207h0c-.896.9241-2.8845.4879-4.4413-.9743s-2.0925-3.3966-1.1965-4.3207c.896-.9241,2.8845-.4879,4.4413.9743h0"/><path id="j" class="ag" d="M33.1003,20.4821c-1.4073.8392-2.8295,1.7051-4.3971,2.522l-2.5505,2.3716c-2.1521.5347-6.084-2.0605-5.3011-5.1394l2.4427-2.6493c.7831-1.9267,1.6504-3.3321,2.641-4.4602"/><path id="k" class="ag" d="M27.3683,24.2474c-2.2669.2741-5.9452-2.3281-5.2698-5.3639"/><path id="l" class="ag" d="M28.8087,22.9478c-2.2882.2943-5.9849-2.2925-5.5356-5.3419"/><path id="m" class="ag" d="M31.0211,21.7212c-2.8837.143-7.2592-2.9258-6.4024-6.658"/></g><path id="n" class="ag" d="M19.3742,32.0405c1.3516,2.1784,2.3931,4.6084,3.0006,7.2306-.1906.4416-.835.698.3408,1.697.108.5824.1309,1.0739.0199,1.5235"/><path id="o" class="ag" d="M5.5,21.3822c3.1839.8498,6.3609,2.5919,9.1159,5.0276"/><path id="p" class="ag" d="M17.3358,33.2648c1.0034,1.6415,1.8775,3.4809,2.6173,5.5257-.3556,1.2337-.2482,2.4675.6193,3.7012"/><path id="q" class="ag" d="M5.5035,23.7951c2.9621.9744,5.5797,2.4754,7.8266,4.5432"/><path id="r" class="ag" d="M13.7058,35.3965c1.605,2.449,2.5993,5.1152,2.8315,7.1035"/><path id="s" class="ag" d="M5.5039,29.055c2.059.4496,3.8958,1.5727,5.4536,3.0342"/><path id="t" class="ag" d="M5.5018,33.0064c3.6027,1.352,6.2864,4.7137,7.4969,9.3008"/><path id="u" class="ag" d="M5.5029,35.2645c2.3856,1.3685,4.6286,3.0219,5.192,7.2214"/><path id="v" class="ag" d="M7.8911,36.9047l-1.2182.7212"/><path id="w" class="ag" d="M8.4056,39.8211l-2.001,1.207"/><path id="x" class="ag" d="M8.5151,26.4731l-.7045,1.5546"/><path id="y" class="ag" d="M22.2931,33.1287l1.8142,2.1595c.9591-.4538,1.4052-2.0556.946-2.8055l-2.7602.6461h0"/><path id="z" class="ag" d="M34.4993,24.9228l2.6481,1.579c.7481-.068,1.2485-.3888,1.6929-.7667.0985-1.1192-.3545-2.1112-1.1129-2.64l-3.2281,1.8276h0"/><path id="aa" class="ag" d="M12.0598,21.6986l1.3427-2.8487c-.8549-.5785-2.0475-.8914-3.1698-.4035-.1454.55-.2528.9033-.117,1.4184l1.9441,1.8338h0"/><path id="ab" class="ag" d="M21.1038,13.0538l-.0669.4614"/><path id="ac" class="ag" d="M32.5268,30.1372h.3992"/><path id="ad" class="ag" d="M14.8131,19.909l-.0794.2655"/><path id="ae" class="ag" d="M6.8695,19.3309l.1123.2157"/><path id="af" class="ag" d="M9.5,5.5h29c2.216,0,4,1.784,4,4v29c0,2.216-1.784,4-4,4H9.5c-2.216,0-4-1.784-4-4V9.5c0-2.216,1.784-4,4-4Z"/></svg>