<svg xmlns="http://www.w3.org/2000/svg" viewBox="0 0 48 48"><defs><style>.a{fill:none;stroke:#000;stroke-linecap:round;stroke-linejoin:round;}</style></defs><path class="a" d="M4.5,9.8527H32.7947a0,0,0,0,1,0,0v19.225a9.07,9.07,0,0,1-9.07,9.07H13.57a9.07,9.07,0,0,1-9.07-9.07V9.8527A0,0,0,0,1,4.5,9.8527Z"/><path class="a" d="M12.197,25.9493l6.45,6.45,6.45-6.45a8.2,8.2,0,0,0,2.4016-5.798h0a4.5082,4.5082,0,0,0-4.212-4.5459,4.4262,4.4262,0,0,0-4.64,4.4209,4.4261,4.4261,0,0,0-4.64-4.4209,4.5082,4.5082,0,0,0-4.212,4.5459h0A8.2,8.2,0,0,0,12.197,25.9493Z"/><path class="a" d="M32.7947,9.8527H35.73a7.77,7.77,0,0,1,0,15.5394H32.7947"/></svg>