<?xml version="1.0" encoding="UTF-8"?><svg id="b" xmlns="http://www.w3.org/2000/svg" viewBox="0 0 48 48"><defs><style>.c{fill:none;stroke:#000;stroke-linecap:round;stroke-linejoin:round;}</style></defs><path class="c" d="m40.5,5.5H7.5c-1.1046,0-2,.8954-2,2v33c0,1.1046.8954,2,2,2h33c1.1046,0,2-.8954,2-2V7.5c0-1.1046-.8954-2-2-2Z"/><path class="c" d="m32.585,33.06c-.262.143-.56.202-.895.19-.3175-.0184-.6307-.0824-.93-.19l-8.09-3.222c-.154-.06-.31-.227-.405-.37-.1498-.2227-.1726-.5074-.06-.751l.359-.835c.0954-.2498.3192-.428.584-.465.191-.036.394-.024.585.047l3.973,1.587c.286.131.501.143.632.036.131-.096.167-.215.12-.334l-4.63-10.607c-.071-.202-.215-.298-.394-.298s-.322.095-.393.298c-2.088,4.76-4.116,9.533-6.216,14.281-.18.43-.633.644-1.348.644h-1.933c-.764,0-1.038-.25-.835-.751l7.91-16.87c.13-.286.31-.477.536-.584.227-.096.525-.144.895-.144h2.768c.37,0,.668.048.895.144.226.095.405.286.537.584l7.552,16.142c.179.418.083.74-.322.966l-.895.502Zm3.008,1.11l6.907,3.3485m-29.28-12.0945l-7.72-3.3394M21.9674,5.5l1.2186,7.11,19.314-2.9708m-7.1539,1.1004l4.6055,25.5435m-31.7146-12.9951L22.1834,6.7605m4.3586,27.0025l-3.1573,8.737m-17.8847-4.3029l8.025-2.9091-2.6126,7.212"/></svg>