<?xml version="1.0" encoding="UTF-8"?><svg id="b" xmlns="http://www.w3.org/2000/svg" viewBox="0 0 48 48"><defs><style>.c{stroke-width:1px;}.c,.d,.e{fill:none;stroke:#000;stroke-linecap:round;stroke-linejoin:round;}.d{stroke-width:1px;}</style></defs><circle class="e" cx="24.0012" cy="22.2915" r="12.7335"/><polyline class="d" points="13.3481 20.3765 13.3481 24.6558 15.4878 24.6558"/><line class="e" x1="30.2844" y1="20.3765" x2="30.2844" y2="24.6561"/><polyline class="d" points="21.4686 24.6558 21.4686 20.3765 24.3036 24.6558 24.3036 20.3765"/><path class="e" d="m28.7116,23.2212v.0177c0,.7829-.6346,1.4176-1.4176,1.4176h0c-.7829,0-1.4176-.6346-1.4176-1.4176v-1.4443c0-.7829.6346-1.4176,1.4176-1.4176h0c.7829,0,1.4176.6346,1.4176,1.4176v.0177"/><path class="e" d="m17.0606,24.6561l1.4176-4.2793,1.4176,4.2793m-.4696-1.4176h-1.896"/><path class="e" d="m31.8572,24.6561l1.4176-4.2793,1.4176,4.2793m-.4695-1.4176h-1.896"/><path class="c" d="m42.268,12.2123c-12.5642-8.7247-24.7808-9.2061-36.5833.1004-.8626,13.4719,3.6182,24.3252,18.2882,30.1873,13.5444-5.4218,19.4882-15.6154,18.2951-30.2886v.0009Z"/><path class="c" d="m22.7165,9.6235c.8351,1.9982,1.0782,6.337,1.3348,6.4841.2396-.1504.598-5.6859,1.253-6.362m.034,25.21c-.8824-2.742-1.2138-6.4158-1.3364-6.5912-.1115.1457-.5161,3.8417-1.3795,6.5865"/></svg>