<?xml version="1.0" encoding="UTF-8"?><svg id="b" xmlns="http://www.w3.org/2000/svg" viewBox="0 0 48 48"><defs><style>.f{fill:none;stroke:#000;stroke-linecap:round;stroke-linejoin:round;}</style></defs><path class="f" d="M41.3206,39.2951c2.136,0,2.7445-2.1836,1.6301-3.8902L26.4294,10.1024c-.7498-1.1484-1.8323-1.3975-2.4294-1.3975s-1.6796.2491-2.4294,1.3975L5.0492,35.4049c-1.1143,1.7066-.5059,3.8902,1.6301,3.8902h34.6413Z"/><path class="f" d="M27.1912,31.8942c0-1.6304-1.3217-2.952-2.9521-2.952-1.6304,0-2.9521,1.3217-2.9521,2.952,0,.6812.2356,1.3414.6606,1.8611-1.8277-.0076-3.4585-1.0558-2.4342-2.8153l2.4283-4.1709h4.6685l4.7024,8.0772h5.8975l-11.1058-19.076h-4.1353l-3.6053,6.1927,5.4479-.0009,1.8134,3.1148-9.0745.0005-5.6874,9.7689h13.3759c1.6304,0,2.9521-1.3217,2.9521-2.952"/></svg>