<?xml version="1.0" encoding="UTF-8"?><svg id="a" xmlns="http://www.w3.org/2000/svg" viewBox="0 0 48 48"><defs><style>.b{fill:none;stroke:#000;stroke-linecap:round;stroke-linejoin:round;}</style></defs><circle class="b" cx="24" cy="24" r="21.5"/><path class="b" d="m22.3056,21.2349l-1.3826,5.5303-1.3826-5.5303-1.3826,5.5303-1.3826-5.5303"/><path class="b" d="m6,21.2349v5.5303h2.7651"/><path class="b" d="m42,21.2349v5.5303"/><path class="b" d="m40.236,26.7651l-2.2121-2.7651m-.6913.8295l2.9034-3.5947m-2.9034,0v5.5303"/><path class="b" d="m35.5686,21.2349v5.5303"/><path class="b" d="m33.8047,26.7651l-2.2121-2.7651m-.6913.8295l2.9034-3.5947m-2.9034,0v5.5303"/><path class="b" d="m14.2659,24.8986c0,1.0369-.8295,1.8665-1.8665,1.8665s-1.8665-.8295-1.8665-1.7974v-1.8665c0-1.0369.8295-1.8665,1.8665-1.7974,1.0369,0,1.7974.8295,1.7974,1.7974"/><path class="b" d="m23.8183,21.8775c.4938-.4938.79-.4938,1.7775-.4938,1.0863,0,1.7775.4938,1.7775,1.6788v3.555m-.0987-1.975c0,1.0863-.8888,1.975-1.975,1.975h-.6913c-.6913,0-1.2838-.5925-1.2838-1.2838s.5925-1.2838,1.2838-1.2838h2.6663"/><path class="b" d="m29.1373,21.2349v5.5303"/></svg>