<svg xmlns="http://www.w3.org/2000/svg" viewBox="0 0 48 48"><defs><style>.a{fill:none;stroke:#000;stroke-linecap:round;stroke-linejoin:round;}</style></defs><path class="a" d="M21.6227,12.4518a3.8757,3.8757,0,0,0,2.6232.6559h.6559a2.1315,2.1315,0,0,0,0-4.2629H23.4262a2.17,2.17,0,0,1-2.1315-2.1314A2.17,2.17,0,0,1,23.4262,4.582h.6558c1.4756,0,2.1314.1639,2.6233.6558"/><path class="a" d="M31.378,12.4518a3.8758,3.8758,0,0,0,2.6233.6559h.6558a2.1315,2.1315,0,0,0,0-4.2629H33.1815A2.17,2.17,0,0,1,31.05,6.7134,2.17,2.17,0,0,1,33.1815,4.582h.6558c1.4756,0,2.1314.1639,2.6233.6558"/><path class="a" d="M17.2778,11.55a3.1734,3.1734,0,0,1-2.7872,1.64,3.2887,3.2887,0,0,1-3.2791-3.2791V7.7791A3.2887,3.2887,0,0,1,14.4906,4.5a3.1733,3.1733,0,0,1,2.7872,1.64"/><path class="a" d="M13.3921,18.53H34.447L32.2757,41.4734,23.9883,43.5,15.701,41.4734l-.5749-4.7209"/><path class="a" d="M14.402,29.0243H33.1646"/></svg>