<?xml version="1.0" encoding="UTF-8"?><svg id="b" xmlns="http://www.w3.org/2000/svg" viewBox="0 0 48 48"><defs><style>.c{fill:none;stroke:#000;stroke-linecap:round;stroke-linejoin:round;}</style></defs><path class="c" d="M23.6426,4.5c3.1556,0,5.7131,2.5916,5.7131,5.7958,0,3.1994-2.5575,5.7958-5.7131,5.7958s-5.7131-2.5964-5.7131-5.7958c0-3.2042,2.5575-5.7958,5.7131-5.7958Z"/><path class="c" d="M20.1515,23.2877c-.5348,0-.778.3566-.778,1.0697v5.1102h-6.8217l-.0049-11.577h22.906l-.0049,11.577h-7.6483v-5.0081c0-.8104-.2804-1.2156-.8412-1.2156"/><path class="c" d="M19.3736,29.3412l-.0389,8.4506c0,.6126-.2366,1.0227-.7099,1.2301l.0097,4.4781h9.8849l.0097-4.4781c-.4733-.2075-.7293-.6175-.7293-1.2301v-8.3241"/></svg>