<?xml version="1.0" encoding="UTF-8"?><svg id="a" xmlns="http://www.w3.org/2000/svg" viewBox="0 0 48 48"><defs><style>.e{fill:none;stroke:#000;stroke-linecap:round;stroke-linejoin:round;}</style></defs><path class="e" d="M28.17606247,23.97410543c1.29559315-.79750141,2.67621436-1.88555634,4.00338553-3.21272751,3.75518949-3.75518949,5.64629211-7.95247119,4.22385017-9.37491313s-5.61972364.46866067-9.37491313,4.22385017c-1.32717117,1.32717117-2.4152261,2.70779238-3.21272751,4.00338553-.79750141-1.29559315-1.88560107-2.67621436-3.21277224-4.00338553-3.75518949-3.75518949-7.95247119-5.64629211-9.37491313-4.22385017s.46866067,5.61972364,4.22385017,9.37491313c1.32717117,1.32717117,2.70779238,2.4152261,4.00343026,3.21272751-1.29563788.79750141-2.67625909,1.88560107-4.00343026,3.21277224-3.75518949,3.75518949-5.64629211,7.95247119-4.22385017,9.37491313s5.61972364-.46866067,9.37491313-4.22385017c1.32717117-1.32717117,2.41527082-2.70779238,3.21277224-4.00343026.79750141,1.29563788,1.88555634,2.67625909,3.21272751,4.00343026,3.75518949,3.75518949,7.95247119,5.64629211,9.37491313,4.22385017s-.46866067-5.61972364-4.22385017-9.37491313c-1.32717117-1.32717117-2.70779238-2.41527082-4.00338553-3.21277224Z"/><path class="e" d="M10.81648491,7.02625813c.91603079,1.76610736,1.20183239,3.28305434.67419866,4.14778741-.05862597.0952672-.13190843.18320616-.21251914.26381687s-.16854966.15389317-.26381687.21251914c-.86473306.52030549-2.36702355.24183213-4.12580267-.65954217"/><path class="e" d="M36.95633946,41.15390115c-1.0919087-2.04458072-1.37038206-3.77404684-.54961847-4.59481043.82076359-.82076359,2.5648862-.53496198,4.61679517.57160321"/><circle class="e" cx="24" cy="24" r="21.5"/><path class="e" d="M41.01618791,10.86625919c-1.92732878,1.04061097-3.58351244,1.35572557-4.45557375.70351164-.05129772-.03664123-.10259545-.08061071-.15389317-.13190843s-.10259545-.10992369-.14656493-.17587791c-.63755743-.87206131-.32977108-2.51358848.6961834-4.41893252"/><path class="e" d="M6.88121664,37.01344199c1.81740508-.93801553,3.36366505-1.20916064,4.21374162-.60824444.06595422.04396948.12458019.0952672.18320616.15389317.05129772.05129772.0952672.10259545.13190843.15389317.63022918.84274832.35908407,2.41099303-.59358795,4.2577111"/></svg>