<svg xmlns="http://www.w3.org/2000/svg" viewBox="0 0 48 48">
  <defs>
    <style>
      .a {
        fill: none;
        stroke:#000;
        stroke-linecap: round;
        stroke-linejoin: round;
      }
    </style>
  </defs>
<path class="a" d="M20.0073 8.06788C22.6691 8.05334 25.3333 8.05091 27.9952 8.07031C28.6982 9.18303 29.4133 10.2885 30.1212 11.3988C30.9552 12.7103 31.7988 14.0145 32.6303 15.3285C32.4509 15.3309 32.0945 15.3382 31.9152 15.3406C26.4436 15.3285 20.9673 15.3333 15.4958 15.3382C13.6897 15.2897 12.2279 16.9649 12.0727 18.6812C11.9903 20.0097 12.0824 21.343 12.0242 22.6739C10.6982 22.657 9.37454 22.6764 8.05091 22.6618C8.14788 20.6812 7.82788 18.657 8.28363 16.7079C8.94303 14.1649 11.1248 12.0849 13.6945 11.5442C15.0836 11.3164 16.497 11.4158 17.8982 11.3939C18.6036 10.2885 19.3042 9.17818 20.0073 8.06788Z" stroke="#000" stroke-linejoin="round"/>
<path class="a" d="M22.8873 20.4703C25.6339 19.7358 28.7127 21.937 28.9406 24.7661C29.3648 27.583 26.8679 30.4121 24.0097 30.3006C21.2291 30.417 18.7539 27.7503 19.0327 24.9915C19.1176 22.8364 20.8315 20.9697 22.8873 20.4703Z" stroke="#000" stroke-linejoin="round"/>
<path class="a" d="M30.1212 11.3988C31.9394 11.4376 33.8618 11.1903 35.5661 11.9661C37.983 12.9842 39.7552 15.36 39.9055 17.9976C40.0049 20.4339 39.9103 22.8727 39.9564 25.3115C38.6255 25.3624 37.297 25.3188 35.9661 25.3358C35.9418 23.2776 35.9733 21.217 35.9515 19.1564C35.9491 17.8254 35.2655 16.497 34.1188 15.7988C33.4521 15.4157 32.657 15.4376 31.9152 15.3406C32.0945 15.3382 32.4509 15.3309 32.6303 15.3285C31.7988 14.0145 30.9552 12.7103 30.1212 11.3988Z" stroke="#000" stroke-linejoin="round"/>
<path class="a" d="M8.05091 28.0024C9.3794 27.9927 10.7079 28.0024 12.0364 27.9976C12.0752 29.4085 11.9782 30.8267 12.0897 32.2352C12.2764 33.9127 13.8061 35.3091 15.5079 35.2679C18.3345 35.2752 21.1636 35.2727 23.9903 35.2679C24.0097 36.6012 23.9976 37.937 24 39.2727C20.9212 39.2727 17.8449 39.2727 14.7661 39.2727C11.3818 39.1467 8.39031 36.2691 8.09697 32.8994C8 31.2703 8.07515 29.6364 8.05091 28.0024Z" stroke="#000" stroke-linejoin="round"/>
<path class="a" d="M33.5079 30.8412C35.3915 30.097 37.6994 31.4739 37.9103 33.4909C38.257 35.3939 36.6085 37.3261 34.6764 37.28C32.7855 37.3745 31.0933 35.5685 31.3285 33.6849C31.3988 32.4194 32.3176 31.2558 33.5079 30.8412Z" stroke="#000" stroke-linejoin="round"/>
</svg>
