<svg xmlns="http://www.w3.org/2000/svg" viewBox="0 0 48 48"><defs><style>.a{fill:none;stroke:#000;stroke-linecap:round;stroke-linejoin:round;}</style></defs><path class="a" d="M19.021,14.72c.1282-.588-1.0814-.9745-.9178-1.5536.2848-1.0078,1.7422-1.3,2.7744-1.4626.9607-.1509,2.2421-.2373,2.8736.504.1786.21-.1634.6156.0132.8269.3351.4012,1.1529-.0541,1.5371.3.1934.1784.012.5927.2147.76.6751.5585,2.2616-.5787,2.6165.2235.3058.6913-1.64,1.098-1.3714,1.8049.1347.3552.7413.1624,1.1162.2188.5419.0815,1.134.3951,1.6349.1724.8541-.38.7266-2.1506,1.6534-2.2691a2.008,2.008,0,0,1,1.8862,1.5486c.1247.596-.3856,1.21-.8272,1.628-.5116.4846-1.3344.4808-1.9327.8523-.3585.2226-1.1064.4112-.9719.8118.1759.5243,1.2534-.3051,1.6536.0757.2324.2212.1621.6455.0936.9593-.06.2762-.5661.4868-.4266.7325.2166.3816,1.0157-.3116,1.3139.01.3015.3251.0869.9205-.0869,1.3289a1.7108,1.7108,0,0,1-.6344.6954c-.1656.113-.5609.0148-.5611.2156,0,.2994.56.209.8358.3233.2666.11.7.0759.7919.35.174.519-.4385,1.0216-.7957,1.4358-.4648.5391-1.253.7391-1.6947,1.2974a2.2208,2.2208,0,0,0-.5069,1.13c-.0414.4483.4644.887.3176,1.3124-.49,1.4208-2.82,1.4679-3.5353,2.7893-.3651.6746.1657,1.6228-.2071,2.2932-.6362,1.1442-2.1075,1.55-3.1349,2.36-.351.2765-1.2412.4561-1.0343.8526.2369.4542.9652-.44,1.4761-.4183.4367.018,1.0822.0476,1.2279.4606.1316.3728-.37.7018-.601,1.0219-.1254.1734-.5237.2931-.4236.4823.25.472,1.219-.5895,1.5859-.202.3813.4027-.01,1.1633-.2949,1.6393-.2036.34-.6194.4931-.9317.7363a14.7714,14.7714,0,0,1-2.8271,2.17c-.4531.2008-1.0405.5254-1.4625.2651-.3348-.2065.017-.96-.3359-1.1334-.3015-.1484-.6044.3824-.94.3644a1.1057,1.1057,0,0,1-.9188-.4751c-.1733-.338.3974-.8281.1648-1.1282-.2958-.3814-1.0378.1187-1.4379-.15a.81.81,0,0,1-.351-.6555c.0072-.1926.3635-.3022.31-.4875-.0986-.3432-.8366-.1257-.966-.4584-.2359-.6066.3483-1.2848.7319-1.81.2693-.3687,1.0652-.4179,1.0531-.8748-.0112-.4259-1.0006-.337-1.0231-.7624-.0941-1.7779,2.5545-2.4784,3.9155-3.622,1.5489-1.3015,3.1972-2.48,4.8269-3.6783.2294-.1686.7522-.2142.6966-.4939-.13-.6525-1.7283.19-1.9421-.44-.2834-.8349,1.0834-1.393,1.685-2.0364.1953-.2089.6882-.3113.6228-.59-.1158-.4932-1.1107-.0669-1.4508-.4418-.2069-.2282.0716-.7341-.1833-.9067-.2879-.1951-.7054.3257-1.0251.1894a1.2784,1.2784,0,0,1-.7566-1.1471c.0552-.6994,1.7234-.92,1.4188-1.5512-.179-.3711-.86.2685-1.23.089a.9144.9144,0,0,1-.4823-.71c-.0249-.332.6-.6136.4313-.9005-.239-.4068-1.0553.227-1.4106-.0829-.2478-.2163.0708-.7727-.193-.9691-.73-.5435-2.1728.9948-2.7162.2635-.4187-.5637,1.3319-1.5022.7937-1.9525-.2386-.2-.4761.49-.7867.5019a.8008.8008,0,0,1-.74-.3966c-.1569-.3687.0954-.8289.3237-1.158.3478-.5017,1.2924-.4965,1.4783-1.0783Z"/><ellipse class="a" cx="29.5665" cy="12.4043" rx="1.0014" ry="1.2833"/><ellipse class="a" cx="26.388" cy="9.9866" rx="1.0882" ry="1.5455"/><path class="a" d="M21.8691,4.9219a5.3272,5.3272,0,0,1,2.0485,2.8122,2.4879,2.4879,0,0,1-.143,2.089,2.0875,2.0875,0,0,1-1.598.5981,3.17,3.17,0,0,1-2.4249-.6858,3.8812,3.8812,0,0,1-.7312-3.415,2.4991,2.4991,0,0,1,1.4712-1.7789A1.7118,1.7118,0,0,1,21.8691,4.9219Z"/></svg>