<svg id="Layer_2" data-name="Layer 2" xmlns="http://www.w3.org/2000/svg" viewBox="0 0 48 48"><defs><style>.cls-1{fill:none;stroke:#000;stroke-linecap:round;stroke-linejoin:round;}</style></defs><path class="cls-1" d="M17.55,20a7.59,7.59,0,1,0,0,8,7.59,7.59,0,0,1,0-8Z"/><path class="cls-1" d="M30.45,20a7.59,7.59,0,0,0-12.9,0,7.64,7.64,0,0,1,0,8,7.59,7.59,0,0,0,12.9,0,7.64,7.64,0,0,1,0-8Z"/><path class="cls-1" d="M36.91,16.41A7.6,7.6,0,0,0,30.45,20a7.59,7.59,0,0,1,0,8,7.59,7.59,0,1,0,6.46-11.59Z"/></svg>