<?xml version="1.0" encoding="UTF-8"?><svg id="a" xmlns="http://www.w3.org/2000/svg" viewBox="0 0 48 48"><defs><style>.z{stroke-linejoin:round;}.z,.aa{fill:none;stroke:#000;stroke-linecap:round;}</style></defs><g id="b"><path id="c" class="z" d="M38.5,5.5H9.5c-2.2091,0-4,1.7909-4,4v29c0,2.2091,1.7909,4,4,4h29c2.2091,0,4-1.7909,4-4V9.5c0-2.2091-1.7909-4-4-4Z"/><path id="d" class="z" d="M23.2693,42.5l-1.0447-1.2845.634-.9592-1.5158-2.1102s2.9018-5.0477,5.4123-5.2057l.5569,2.4039,1.2212,1.4338.1734.6635s1.5894.0425,1.8489,1.3799c.2595,1.3374.9187,2.8039,3.0641,3.6785"/><path id="e" class="z" d="M40.7661,42.4822l-2.5222-2.8026.6323-1.6913-.785-1.4797.4198-1.4622s-.4496-5.8415-5.9651-4.8918c0,0-3.0167.9969-2.6264,4.5346s2.6746,4.6962,3.9627,4.5331c1.288-.1631,1.5117.4935,1.0096,1.8856"/><path id="f" class="z" d="M29.9526,34.9531s1.3275-2.5063,2.6912-2.8779c1.4211-.3873,3.4235-.4932,5.6853,3.6047"/><path id="g" class="z" d="M32.0356,30.3902l-.98-3.9801,2.1421,3.6612"/><path id="h" class="z" d="M34.5331,30.1133l1.8001-3.6503-.7236,3.9631"/><path id="i" class="z" d="M36.9058,31.3348l2.74-1.8796-2.2811,2.4336"/><path id="j" class="z" d="M38.1319,33.3959l3.0401-.6424-2.8393,1.3068"/><path id="k" class="z" d="M30.8363,31.3631l-3.1055-1.6005,2.7092,2.1561"/><path id="l" class="z" d="M29.8894,33.849l-2.776.6378,2.7767-.1703"/><path id="m" class="z" d="M30.1867,36.0382l-1.6534.7399"/><path id="n" class="z" d="M22.5633,23.2118c1.0839.0445,1.9255.3288,1.4609,3.766-.3934,2.911,2.0556,6.1133,2.0556,6.1133"/><path id="o" class="z" d="M24.2425,34.3542s-.4191-3.8942-1.1656-5.1741"/><path id="p" class="z" d="M21.5558,26.8813l1.117-.2053"/><path id="q" class="z" d="M21.1735,25.6282l1.2688-.2416"/><path id="r" class="z" d="M20.9988,24.387l1.2524-.2663"/><path id="s" class="z" d="M23.8647,23.8056l1.7115-.853.0276-1.5158h-5.3701v1.6042l1.4034.6971"/><path id="t" class="z" d="M22.5134,29.3407l-.0727-2.3073"/><path id="u" class="z" d="M28.6505,14.5595c0,1.1204-2.6102,2.7426-3.5805,3.3028s-3.6802,2.0096-4.6505,1.4494c-.9703-.5602-1.07-3.6318-1.07-4.7522s.0998-4.192,1.07-4.7522c.9703-.5602,3.6802.8892,4.6505,1.4494.9703.5602,3.5805,2.1824,3.5805,3.3028Z"/><path id="v" class="z" d="M30.742,39.5555s.9823-.1832,1.1613-.9356"/><path id="w" class="z" d="M32.4694,34.4122l.1322,1.6265.5958-.1349"/><path id="x" class="z" d="M32.9885,37.3233l.6848-.1849"/><path id="y" class="aa" d="M33.6731,39.237c.5218-.105,2.8472-.2324,2.0355-4.253-.339-1.6792-1.7443-.898-1.7443-.898"/></g></svg>