<?xml version="1.0" encoding="UTF-8"?><svg id="b" xmlns="http://www.w3.org/2000/svg" viewBox="0 0 48 48"><defs><style>.d{fill:none;stroke:#000;stroke-linecap:round;stroke-linejoin:round;}</style></defs><path class="d" d="M42.5,33.525V5.5H5.5v37h28.023"/><path class="d" d="M40.361,32.643c4.7675-9.0299,1.3122-20.2149-7.7177-24.9825s-20.2149-1.3122-24.9825,7.7177c-4.7675,9.0299-1.3122,20.2149,7.7177,24.9825,5.3859,2.8436,11.8268,2.8524,17.2205.0233"/><circle class="d" cx="39" cy="39" r="6.5"/><path class="d" d="M10.278,19.909v8.687h3.794M27.728,28.596v-8.686h1.954c2.0987-.0006,3.8004,1.7003,3.801,3.799v1.087c.0006,2.0987-1.7003,3.8004-3.799,3.801h-.001l-1.955-.001ZM16.184,24.322l4.414-4.414,4.414,4.414-4.414,4.415-4.414-4.415ZM20.598,28.737l-1.181,1.181M26.194,23.142l-1.182,1.181M16.184,24.323l-1.181,1.181"/><circle class="d" cx="20.008" cy="15.82" r="2.401"/><path class="d" d="M9.405,19.909h1.745M9.405,28.596h.873M26.855,28.596h.873M26.855,19.909h.873M35.673,19.909v8.687h3.795M34.8,19.909h1.745M34.8,28.596h.873"/><path class="d" d="M37.148,39.002h2.282M40.648,42.502h-3.5v-7h3.5"/></svg>