<?xml version="1.0" encoding="UTF-8"?><svg id="a" xmlns="http://www.w3.org/2000/svg" viewBox="0 0 48 48"><defs><style>.b{fill:none;stroke:#000;stroke-linecap:round;stroke-linejoin:round;}</style></defs><path class="b" d="M22.774,30.0357s1.067-1.21,1.227-1.425c.16.215,1.227,1.425,1.227,1.425M24.001,26.9177l-1.595-1.932M25.6,24.9827l-1.599,1.935v1.693M27.599,28.6707c.0005,2.2743-1.61,4.1184-3.5971,4.119h-.0009c-1.9871,0-3.598-1.8437-3.598-4.118v-.001c.0005-2.2739,1.6112-4.117,3.598-4.117s3.598,1.8437,3.598,4.118M27.043,23.1287c0,.5335-.4325.966-.966.966s-.966-.4325-.966-.966.4325-.966.966-.966.966.4325.966.966M22.891,23.1287c0,.5335-.4325.966-.966.966s-.966-.4325-.966-.966.4325-.966.966-.966.966.4325.966.966M14.959,13.9137c-.033-.05-.092.004-.434-.648-.416-.794.138-1.741.9-2.116.763-.374,1.718-.035,2.133.759.0381.0742.0715.1507.1.229l-2.699,1.776ZM33.042,13.9137c.034-.05.093.004.435-.648.416-.794-.138-1.741-.9-2.116-.763-.375-1.718-.035-2.134.759-.0381.0742-.0715.1507-.1.229l2.699,1.776ZM35.245,35.2237c.1573-.1333.3113-.27.462-.41M35.707,34.8137c2.694-2.499,4.345-5.86,4.345-9.559-.002-3.846-1.825-7.521-5.04-10.16.0834-.1287.1608-.2612.232-.397,1.041-2.073.34-4.548-1.567-5.526-1.906-.978-4.292-.09-5.332,1.981-.0967.194-.1797.3937-.249.599-1.343-.3097-2.7167-.4667-4.095-.468-1.383.007-2.76.17-4.095.483-.0699-.2103-.1538-.4158-.251-.615-.737-1.468-2.194-2.398-3.728-2.378h0c-.5583.0065-1.1074.1427-1.604.398-1.907.977-2.61,3.452-1.57,5.526.0747.1467.157.2887.247.426-3.211,2.63-5.038,6.294-5.052,10.132,0,7.716,7.188,13.971,16.052,13.971,4.38,0,8.35-1.526,11.246-4.001"/><rect class="b" x="5.5" y="5.5" width="37" height="37" rx="4" ry="4"/></svg>