<?xml version="1.0" encoding="UTF-8"?><svg id="a" xmlns="http://www.w3.org/2000/svg" viewBox="0 0 48 48"><defs><style>.b{fill:none;stroke:#000;stroke-linecap:round;stroke-linejoin:round;}</style></defs><path class="b" d="M37.944,20.283l5.556,5.56-14.944,14.958-5.613.057.057-5.619,14.944-14.956ZM26.765,25.927c-1.4205,2.3156-3.6451,3.6776-6.007,3.678-2.3623,0-4.5873-1.3621-6.008-3.678M17.167,19.921c0,.8998-.7292,1.6294-1.629,1.63-.8994-.0011-1.628-.7306-1.628-1.63s.7286-1.6289,1.628-1.63c.8998.0006,1.629.7302,1.629,1.63M27.606,19.921c0,.8998-.7292,1.6294-1.629,1.63-.8994-.0011-1.628-.7306-1.628-1.63s.7286-1.6289,1.628-1.63c.8998.0006,1.629.7302,1.629,1.63M20.28,39.676c-8.789-.2582-15.78-7.4637-15.78-16.264.0006-8.9858,7.2789-16.27,16.257-16.27,6.9568-.0004,13.1429,4.4297,15.388,11.02"/></svg>