<?xml version="1.0" encoding="UTF-8"?>
<svg id="a" xmlns="http://www.w3.org/2000/svg" version="1.1" viewBox="0 0 48 48">
  <defs>
    <style>
      .cls-1 {
        fill: none;
        stroke:#000;
        stroke-linecap: round;
        stroke-linejoin: round;
      }
    </style>
  </defs>
  <path class="cls-1" d="M38.5,5.5H9.5c-2.2,0-4,1.8-4,4v29c0,2.2,1.8,4,4,4h29c2.2,0,4-1.8,4-4V9.5c0-2.2-1.8-4-4-4Z"/>
  <g>
    <polyline class="cls-1" points="8.5 19.4 8.5 28.6 13.1 28.6"/>
    <line class="cls-1" x1="15.6" y1="19.4" x2="15.6" y2="28.6"/>
    <g>
      <line class="cls-1" x1="26.8" y1="28.6" x2="31.3" y2="28.6"/>
      <line class="cls-1" x1="26.8" y1="19.4" x2="31.3" y2="19.4"/>
      <line class="cls-1" x1="26.8" y1="24" x2="29.7" y2="24"/>
      <line class="cls-1" x1="26.8" y1="19.4" x2="26.8" y2="28.6"/>
    </g>
    <polyline class="cls-1" points="18.2 28.6 18.2 19.4 24.2 28.6 24.2 19.4"/>
    <path class="cls-1" d="M33.6,27.6c.6.7,1.3,1,2.2,1h1.3c1.3,0,2.3-1,2.3-2.3h0c0-1.3-1-2.3-2.3-2.3h-1.5c-1.3,0-2.3-1-2.3-2.3h0c0-1.3,1-2.3,2.3-2.3h1.3c1,0,1.7.3,2.2,1"/>
  </g>
</svg>