<?xml version="1.0" encoding="UTF-8"?><svg id="a" xmlns="http://www.w3.org/2000/svg" viewBox="0 0 48 48"><defs><style>.c{fill:none;stroke:#000;stroke-linecap:round;stroke-linejoin:round;}.d{fill:#000;stroke-width:0px;}</style></defs><path class="c" d="M9.5,20.444v6.1843h3.0921"/><path class="c" d="M19.0029,22.4539l-1.5461,4.1744-1.5461-4.1744"/><path class="c" d="M30.0102,22.6085v4.6382c0,.8503-.6957,1.5461-1.5461,1.5461h0c-.4638,0-.8503-.1546-1.0823-.4638"/><path class="c" d="M28.4641,22.5312h0c.8503,0,1.5461.6957,1.5461,1.5461v1.0049c0,.8503-.6957,1.5461-1.5461,1.5461h0c-.8503,0-1.5461-.6957-1.5461-1.5461v-1.0049c0-.8503.6957-1.5461,1.5461-1.5461Z"/><path class="c" d="M25.4129,26.6283v-2.551c0-.8503-.6957-1.5461-1.5461-1.5461h0c-.8503,0-1.5461.6957-1.5461,1.5461M22.3208,26.6283v-4.1744"/><path class="c" d="M36.3243,21.449s-.1546,1.8553-.2319,2.551c0,.4638.4638.6957.8503.6957.9276,0,1.4688-.8503,1.5461-2.0099.1546-2.3964-1.3142-3.4787-3.3241-3.4787s-3.4014,1.4688-3.6333,3.4787c-.1546,1.7007.773,3.9425,3.1695,3.9425,1.0932,0,1.5461,0,2.0872-.4638"/><path class="c" d="M36.0924,23.3043c-.0773.6184-.6184,1.1596-1.2369,1.1596h0c-.6184,0-1.0822-.5411-1.0049-1.1596v-.6957c.1546-.6184.6957-1.1596,1.3142-1.1596h0c.6184,0,1.0822.4638,1.0049,1.1596"/><circle class="d" cx="14.2519" cy="20.5986" r=".75"/><path class="c" d="M14.2519,22.4539v4.1744"/><circle class="d" cx="20.6619" cy="20.5986" r=".75"/><path class="c" d="M20.6619,22.4539v4.1744"/><path id="b" class="c" d="M9.5,5.5h29c2.216,0,4,1.784,4,4v29c0,2.216-1.784,4-4,4H9.5c-2.216,0-4-1.784-4-4V9.5c0-2.216,1.784-4,4-4Z"/></svg>