<?xml version="1.0" encoding="UTF-8"?><svg id="a" xmlns="http://www.w3.org/2000/svg" viewBox="0 0 48 48"><defs><style>.b{fill:none;stroke:#000;stroke-linecap:round;stroke-linejoin:round;}</style></defs><path class="b" d="m22.0588,20.1596l4.916-1.8127,1.5628,4.9208-2.3388,4.0144-4.666.046-3.8725-4.0604,2.3287-6.2159,9.1853-1.8132,4.3915,8.0289-5.0281,8.0286-9.1955.0486-6.7271-8.0772,5.4333-9.842,12.2904-.7769,7.1155,10.6185-5.6921,13.2082s-11.1258-.5182-16.0419,2.3307c-2.0701-7.1222-6.4685-13.5509-9.5734-15.9044,5.6923-7.0156,8.287-10.3822,8.287-15.1735,7.3534,2.3311,17.8465-.6345,17.9753,0,1.1572,5.6978,10.0908,15.5395,10.0908,15.5395H5.5"/><line class="b" x1="33.2223" y1="7.2595" x2="12.5973" y2="42.6735"/><line class="b" x1="13.1142" y1="5.3265" x2="34.3444" y2="41.2532"/></svg>