<?xml version="1.0" encoding="UTF-8"?><svg id="b" xmlns="http://www.w3.org/2000/svg" viewBox="0 0 48 48"><defs><style>.c{fill:none;stroke:#000;stroke-linecap:round;stroke-linejoin:round;}</style></defs><path class="c" d="M32.5,42.5h6c2.2091,0,4-1.7909,4-4V9.5c0-2.2091-1.7909-4-4-4H9.5c-2.2091,0-4,1.7909-4,4v29c0,2.2091,1.7909,4,4,4h6"/><path class="c" d="M24,30.9562v-8.6625c0-2.8995-2.3505-5.25-5.25-5.25h0c-2.8995,0-5.25,2.3505-5.25,5.25"/><path class="c" d="M34.5,30.9562v-8.6625c0-2.8995-2.3505-5.25-5.25-5.25h0c-2.8995,0-5.25,2.3505-5.25,5.25"/><line class="c" x1="13.5" y1="30.9562" x2="13.5" y2="17.0438"/></svg>