<?xml version="1.0" encoding="UTF-8"?><svg id="b" xmlns="http://www.w3.org/2000/svg" viewBox="0 0 48 48"><defs><style>.c{fill:none;stroke:#000;stroke-linecap:round;stroke-linejoin:round;}</style></defs><polygon class="c" points="41.0512 41.4636 42.5 41.4943 41.3289 40.7597 40.6157 39.2921 38.4534 39.4192 38.0021 38.2719 37.1846 36.966 35.5637 36.9493 33.4779 36.821 33.3629 35.3838 32.7906 34.2498 33.3354 32.7255 31.8067 31.5269 33.2621 29.7902 32.0522 28.573 30.7351 27.4321 31.4666 25.7557 29.7918 24.7741 30.6028 23.0113 30.7555 21.4203 28.5121 20.761 28.9693 19.0288 27.9372 17.9284 28.0706 16.2692 27.5566 14.9045 26.1105 14.0657 26.2457 12.3096 24.0404 12.021 24.156 10.2192 23.5861 8.8477 23.0154 7.4406 21.4951 6.8297 20.3688 6.1969 19.9636 7.4662 21.3804 8.823 19.7792 10.3423 21.5766 11.7564 21.0257 13.2196 19.6024 14.6449 21.0036 16.1338 20.3628 17.558 21.0201 19.0564 19.8839 20.4219 20.5266 21.9432 20.256 23.381 19.3363 24.7161 19.892 26.2806 18.8682 27.5554 18.6402 28.98 17.7297 30.2077 18.7795 32.0829 18.319 33.5247 17.1596 34.621 17.5106 36.9508 15.4131 37.2664 13.8359 37.3697 12.5023 37.8768 10.8655 37.8745 10.0757 39.2776 8.4161 39.2561 7.5914 40.5902 5.5 41.8031 24 41.2347 41.0512 41.4636"/></svg>