<?xml version="1.0" encoding="utf-8"?>
<!-- Generator: Adobe Illustrator 25.3.0, SVG Export Plug-In . SVG Version: 6.00 Build 0)  -->
<svg version="1.1" id="Layer_1" xmlns="http://www.w3.org/2000/svg" xmlns:xlink="http://www.w3.org/1999/xlink" x="0px" y="0px"
	 viewBox="0 0 48 48" style="enable-background:new 0 0 48 48;" xml:space="preserve">
<style type="text/css">
	.st0{fill:none;stroke:#000000;stroke-linecap:round;stroke-linejoin:round;}
</style>
<path class="st0" d="M13.3,5.5L31,7.7c1.2,0.3,2.1,1.4,2.1,2.6v31.4c0.1,0.9-0.5,1.7-1.4,1.8c-0.2,0-0.4,0-0.7-0.1l-17.4-4.6
	c-1.2-0.1-2.1-1.2-2-2.4V7.1C11.7,6.4,12,5.7,13.3,5.5z"/>
<path class="st0" d="M32.6,43.1l3.2-2.7c0.3-0.3,0.4-0.8,0.4-1.2l0.2-30.3c0.1-1.5-1.1-2.9-2.6-3c0,0-0.1,0-0.1,0L21,4.6
	c-1.2-0.1-2.4-0.1-3.6,0.1l-4.1,0.8"/>
<path class="st0" d="M20.5,33.6l1.8,3.4l1.9-1.4L20.5,33.6z"/>
<path class="st0" d="M19.5,23.3c-0.9-1.5-1.4-3.1-1.5-4.8c0-2.4,4.2-2.6,4.2-2.6"/>
<path class="st0" d="M22.3,15.9c2.6-0.2,5.8,0.2,5.7,2.3s-1.4,4.1-2.3,5.5"/>
<path class="st0" d="M20.3,14.2c1.5-0.9,3.3-1.3,5-1.1"/>
<path class="st0" d="M20.9,20.6l3.7-0.7"/>
<path class="st0" d="M22.4,23.3c-1.7,3.1-4.2,5.6-7.2,7.3"/>
<path class="st0" d="M22.4,23.3l4.8,7.1l2.6-1.3C27.2,27.6,24.8,25.1,22.4,23.3z"/>
<line class="st0" x1="22.3" y1="10.6" x2="22.5" y2="34.7"/>
</svg>
