<svg xmlns="http://www.w3.org/2000/svg" viewBox="0 0 48 48"><defs><style>.a,.b{fill:none;stroke-linecap:round;stroke-linejoin:round;}.a{stroke:#000;}.b{stroke:#000;}</style></defs><path class="a" d="M13.3,5.54,31,7.73a2.62,2.62,0,0,1,2.08,2.63V41.73A1.61,1.61,0,0,1,31,43.44L13.64,38.81a2.27,2.27,0,0,1-2-2.39V7.05C11.68,6.37,12,5.65,13.3,5.54Z"/><path class="b" d="M32.56,43.13l3.21-2.66a1.55,1.55,0,0,0,.39-1.24l.16-30.31a2.81,2.81,0,0,0-2.69-3L21,4.56a12.3,12.3,0,0,0-3.59.13l-4.07.85"/><path class="b" d="M20.5,33.64,22.25,37l1.9-1.44Z"/><path class="b" d="M19.55,23.31A10.5,10.5,0,0,1,18,18.49c0-2.42,4.25-2.62,4.25-2.62"/><path class="b" d="M22.28,15.87c2.62-.2,5.8.18,5.71,2.3s-1.39,4.1-2.33,5.48"/><path class="b" d="M20.32,14.25a7.94,7.94,0,0,1,5-1.11"/><path class="b" d="M20.87,20.64l3.69-.71"/><path class="b" d="M22.39,23.31a18.18,18.18,0,0,1-7.24,7.33"/><path class="b" d="M22.39,23.31l4.76,7.14L29.8,29.1C27.22,27.62,24.75,25.07,22.39,23.31Z"/><line class="b" x1="22.28" y1="10.65" x2="22.45" y2="34.66"/></svg>