<svg xmlns="http://www.w3.org/2000/svg" viewBox="0 0 48 48"><defs><style>.a{fill:none;stroke:#000;stroke-linecap:round;stroke-linejoin:round;}</style></defs><path class="a" d="M41.1728,36.9192A21.4933,21.4933,0,1,0,2.5072,23.9928"/><path class="a" d="M43.5411,15.0316A32.6237,32.6237,0,0,0,31.26,12.2564c-12.1668,0-14.979,11.019-14.979,13.946s.1722,6.2556,4.5913,9.7564c-1.7361-3.9958-2.3458-7.03-.2869-11.5284,1.693.6457,3.9743,2.2167,4.5123,4.1967A9.3637,9.3637,0,0,1,29.4665,24.43c1.6141,1.2483,1.6141,3.4435,1.6141,6.2628s-2.26,5.3589-2.26,7.1882,5.3158,5.1436,5.3158,5.1436-2.2127,1.6357-3.7965.947c-.8736.9039-1.9067,1.528-5.07,1.528s-4.67-.7748-5.1867-1.485c-1.2483.28-3.5367-.0861-3.8022-.9254,1.9513-.9039,4.0748-2.7189,4.3044-3.9743-5.6243.6887-18.0781,1.32-18.0781-14.8642"/><path class="a" d="M30.34,12.2791c5.052,3.8225,12.0536,10.8242,12.0536,19.2032a14.4919,14.4919,0,0,1-1.2206,5.4371"/><path class="a" d="M11.55,6.4709C9.5662,13.806,10.8862,21.36,13.7558,25.6285"/><path class="a" d="M2.9384,28.2971c4.5044,2.3244,7.3739,2.0948,11.6208.5452"/><path class="a" d="M6.25,35.7756c5.9542-.3907,7.9073-2.2846,8.8829-4.4081"/><path class="a" d="M16.1446,33.8569a5.6158,5.6158,0,0,1-3.7956,5.1154"/><path class="a" d="M25.1909,22.14c1.033,0,1.033,1.1908,2.1667,1.1908s1.3915-1.0043,1.3628-1.736c-.3444.6026-1.22.3443-1.22.3443a2.4929,2.4929,0,0,0,.6026-1.2913c0-.6026-.5452-2.1091-2.9125-2.1091s-2.9126,1.5065-2.9126,2.1091a2.4929,2.4929,0,0,0,.6026,1.2913s-.8752.2583-1.22-.3443c-.0287.7317.2292,1.736,1.3629,1.736S24.1578,22.14,25.1909,22.14Z"/></svg>