<?xml version="1.0" encoding="UTF-8"?><svg id="b" xmlns="http://www.w3.org/2000/svg" viewBox="0 0 48 48"><defs><style>.c{fill:none;stroke:#000;stroke-linecap:round;stroke-linejoin:round;}</style></defs><path class="c" d="m14.6792,13.1084c2.7052-1.8838,5.7667-2.9649,8.8535-2.9649,5.1593,0,9.5901,2.4894,12.7642,6.4407"/><path class="c" d="m7.0971,22.7676c.5765-1.411,1.2822-2.7407,2.0935-3.9693"/><path class="c" d="m32.7916,17.0696c.011-.4887-.388-.8878-.8767-.8767l-4.7248.1066c-.9814-.0002-1.9.3419-2.5803,1.0222-1.5776,1.5776-1.2758,4.4372.6741,6.3871s4.8094,2.2517,6.3871.6741c.6804-.6804,1.014-1.601,1.0138-2.5824l.1068-4.7309Z"/><path class="c" d="m29.7633,11.4406l-2.8886-7.5661c-.2247-.5886-1.0267-.6645-1.3578-.1284l-4.0344,6.532"/><path class="c" d="m36.0173,16.2296v-3.2209c0-.16-.1504-.2773-.3056-.2384l-2.5854.6493"/><path class="c" d="m16.5048,13.8177c-.1622-.1622-.3679-.2649-.5906-.3414l-8.1675-2.3331c-.3478-.0986-.6689.2227-.5701.5705l2.3556,8.2514c.0761.19.1738.3664.3184.5068.4774.4637,3.3047.3256,5.1423-1.512s2.5145-4.1398,1.512-5.1423Z"/><path class="c" d="m45.194,16.6093c-1.0575-.1119-9.2073,0-9.2073,0-.1003.0044-.1975.0279-.2815.0724-.7876.4177-.5018,2.4993.6385,4.6494,1.1403,2.1501,2.7031,3.5544,3.4907,3.1368.0845-.0448.2159-.189.2159-.189,2.2837-2.5807,4.5718-6.1078,5.3514-7.2116.1299-.1839.0162-.4343-.2076-.458Z"/><path class="c" d="m7.6457,21.5296l-2.5147-4.73c-.1457-.274.0529-.6046.3633-.6046h2.9563"/><path class="c" d="m40.4316,23.8423c.2872.3011,1.3799,6.4774-6.2712,6.2054-7.1809-.2553-16.3085-5.3298-20.1064-6.5638-3.2077-1.0423-7.4043-1.8511-10.0851,1.1702-1.4994,1.6898-3.2322,6.8666,2.9389,9.1702"/><polyline class="c" points="33.8574 14.0607 31.1684 14.8243 22.1285 13.8828 16.7845 11.8429"/><polyline class="c" points="22.1285 13.8828 20.6764 20.8482 15.5684 24.0503"/><line class="c" x1="20.6764" y1="20.8482" x2="22.0523" y2="26.8155"/><polyline class="c" points="32.7461 19.0846 34.9742 25.1009 32.4666 29.9064"/><line class="c" x1="31.1684" y1="14.8243" x2="31.6751" y2="16.1927"/><line class="c" x1="34.9742" y1="25.1009" x2="37.0673" y2="29.7703"/><path class="c" d="m10.7607,39.0883c3.4784,4.4753,11.6322,6.6016,18.1018,4.9913,4.5835-1.1409,8.9033-3.8821,9.6399-7.9582"/><path class="c" d="m26.3217,35.5271c-.3562,1.6233-1.8027,2.8382-3.533,2.8382-1.9976,0-3.617-1.6194-3.617-3.617,0-.4945.0992-.9658.2789-1.3951"/><path class="c" d="m15.4391,42.671c1.4235.1825,3.146-.0174,4.6625-.98,1.3487-.8561,2.1466-1.8455,2.3495-3.3423"/><path class="c" d="m23.5962,44.6026c2.7051-.616,4.6498-2.1125,5.7131-3.5602,1.6124-2.1954,1.7343-3.2893,1.8634-4.4982"/><path class="c" d="m9.6028,29.4882c-.3143.6987-.5011,1.5735-.5011,2.5229,0,2.2888,1.0859,4.1442,2.4255,4.1442s2.4255-1.8554,2.4255-4.1442c0-.2877-.0172-.5686-.0498-.8399"/><path class="c" d="m7.3778,28.5467c-.2244.8502-.3799,1.7448-.4727,2.6979-.5426,5.5691,2.3219,8.0266,5.1862,8.0266,2.6827,0,4.8896-2.7333,5.1586-7.1146"/><path class="c" d="m40.4316,23.8423c1.2288.2692,4.4842,3.7602,3.8139,6.6203-.5373,2.2928-1.5168,4.1197-6.7447,5.9787-5.8936,2.0957-20.3672-4.4628-25.9736-6.5319-1.7709-.6536-7.4626-3.6436-8.1137,1.4557"/></svg>