<svg xmlns="http://www.w3.org/2000/svg" viewBox="0 0 48 48"><defs><style>.a{fill:none;stroke:#000;stroke-linecap:round;stroke-linejoin:round;}</style></defs><circle class="a" cx="33.25" cy="33.25" r="11.07"/><path class="a" d="M42.5,27.18V7.45a2,2,0,0,0-2-1.95H24V27.18"/><path class="a" d="M24,24H5.5V40.55a2,2,0,0,0,2,2H27.18"/><path class="a" d="M24,5.5H7.45a2,2,0,0,0-1.95,2V24H24Z"/><line class="a" x1="36.33" y1="12.09" x2="30.17" y2="18.24"/><line class="a" x1="30.17" y1="12.09" x2="36.33" y2="18.24"/><line class="a" x1="14.37" y1="37.6" x2="14.37" y2="28.9"/><line class="a" x1="18.72" y1="33.25" x2="10.01" y2="33.25"/><line class="a" x1="37.6" y1="32.11" x2="28.9" y2="32.11"/><line class="a" x1="37.6" y1="34.92" x2="28.9" y2="34.92"/><line class="a" x1="18.7" y1="15.15" x2="10" y2="15.15"/></svg>