<?xml version="1.0" encoding="UTF-8"?><svg id="b" xmlns="http://www.w3.org/2000/svg" viewBox="0 0 48 48"><defs><style>.c{fill:none;stroke:#000;stroke-linecap:round;stroke-linejoin:round;}</style></defs><path class="c" d="M38.5,5.5H9.5c-2.2,0-4,1.8-4,4v29c0,2.2,1.8,4,4,4h29c2.2,0,4-1.8,4-4V9.5c0-2.2-1.8-4-4-4Z"/><path class="c" d="M31.7223,25.2267v2.9826c0,1.2202-.9891,2.2093-2.2093,2.2093h0c-.6101,0-1.1624-.2473-1.5622-.6471"/><path class="c" d="M31.7223,21.5813v3.6454c0,1.2202-.9891,2.2093-2.2093,2.2093h0c-1.2202,0-2.2093-.9891-2.2093-2.2093v-3.6454"/><path class="c" d="M9.5,23.7907c0-1.2202.9891-2.2093,2.2093-2.2093h0c1.2202,0,2.2093.9891,2.2093,2.2093v3.6454"/><line class="c" x1="9.5" y1="21.5813" x2="9.5" y2="27.4361"/><path class="c" d="M13.9187,23.7907c0-1.2202.9891-2.2093,2.2093-2.2093h0c1.2202,0,2.2093.9891,2.2093,2.2093v3.6454"/><path class="c" d="M25.0327,25.2267c0,1.2202-.9891,2.2093-2.2093,2.2093h0c-1.2202,0-2.2093-.9891-2.2093-2.2093v-1.4361c0-1.2202.9891-2.2093,2.2093-2.2093h0c1.2202,0,2.2093.9891,2.2093,2.2093"/><line class="c" x1="25.0327" y1="27.4361" x2="25.0327" y2="21.5813"/><path class="c" d="M38.5,25.2267c0,1.2202-.9891,2.2093-2.2093,2.2093h0c-1.2202,0-2.2093-.9891-2.2093-2.2093v-1.4361c0-1.2202.9891-2.2093,2.2093-2.2093h0c1.2202,0,2.2093.9891,2.2093,2.2093"/><line class="c" x1="38.5" y1="27.4361" x2="38.5" y2="21.5813"/></svg>