<?xml version="1.0" encoding="UTF-8"?><svg id="a" xmlns="http://www.w3.org/2000/svg" viewBox="0 0 48 48"><defs><style>.b{fill:none;stroke:#000;stroke-linecap:round;stroke-linejoin:round;}</style></defs><path class="b" d="m21.94,42.5H7.5c-1.1,0-2-.9-2-2v-10.33"/><polyline class="b" points="5.5 26.06 5.5 21.94 5.5 17.83 5.5 13.72"/><path class="b" d="m42.5,9.61v-2.11c0-1.1-.9-2-2-2h-14.44"/><line class="b" x1="42.5" y1="17.83" x2="42.5" y2="13.72"/><polyline class="b" points="42.5 38.39 42.5 34.28 42.5 30.17 42.5 26.06"/><path class="b" d="m21.94,5.5H7.5c-1.1,0-2,.9-2,2v2.11"/><line class="b" x1="26.06" y1="9.61" x2="26.06" y2="5.5"/><polyline class="b" points="26.06 13.72 26.06 21.94 26.06 38.39 26.06 42.5"/><polyline class="b" points="21.94 9.61 21.94 13.72 21.94 17.83"/><polyline class="b" points="21.94 34.28 21.94 30.17 21.94 26.06"/><polyline class="b" points="17.83 17.83 17.83 13.72 17.83 9.61"/><line class="b" x1="17.83" y1="26.06" x2="17.83" y2="21.94"/><polyline class="b" points="9.61 17.83 9.61 13.72 9.61 9.61"/><line class="b" x1="9.61" y1="26.06" x2="9.61" y2="21.94"/><line class="b" x1="30.17" y1="17.83" x2="30.17" y2="21.94"/><line class="b" x1="30.17" y1="9.61" x2="30.17" y2="13.72"/><polyline class="b" points="30.17 34.28 30.17 38.39 30.17 42.5"/><polyline class="b" points="13.72 13.72 13.72 17.83 13.72 21.94"/><line class="b" x1="13.72" y1="9.61" x2="13.72" y2="5.5"/><polyline class="b" points="13.72 38.39 13.72 34.28 13.72 30.17 13.72 26.06"/><polyline class="b" points="34.28 9.61 34.28 13.72 34.28 17.83 34.28 21.94 34.28 26.06 34.28 30.17"/><line class="b" x1="38.39" y1="26.06" x2="38.39" y2="21.94"/><polyline class="b" points="38.39 13.72 38.39 9.61 38.39 5.5"/><polyline class="b" points="13.72 26.06 17.83 26.06 21.94 26.06"/><polyline class="b" points="30.17 26.06 34.28 26.06 38.39 26.06"/><line class="b" x1="9.61" y1="26.06" x2="5.5" y2="26.06"/><line class="b" x1="42.5" y1="21.94" x2="38.39" y2="21.94"/><polyline class="b" points="30.17 21.94 26.06 21.94 21.94 21.94 17.83 21.94 13.72 21.94"/><line class="b" x1="21.94" y1="17.83" x2="17.83" y2="17.83"/><polyline class="b" points="34.28 17.83 38.39 17.83 42.5 17.83"/><line class="b" x1="34.28" y1="9.61" x2="30.17" y2="9.61"/><line class="b" x1="17.83" y1="9.61" x2="13.72" y2="9.61"/><line class="b" x1="26.06" y1="9.61" x2="21.94" y2="9.61"/><line class="b" x1="9.61" y1="9.61" x2="5.5" y2="9.61"/><line class="b" x1="42.5" y1="30.17" x2="38.39" y2="30.17"/><line class="b" x1="34.28" y1="30.17" x2="30.17" y2="30.17"/><polyline class="b" points="5.5 30.17 13.72 30.17 17.83 30.17"/><line class="b" x1="13.72" y1="13.72" x2="9.61" y2="13.72"/><line class="b" x1="42.5" y1="13.72" x2="38.39" y2="13.72"/><polyline class="b" points="21.94 13.72 26.06 13.72 30.17 13.72"/><polyline class="b" points="30.17 34.28 34.28 34.28 38.39 34.28 42.5 34.28"/><line class="b" x1="21.94" y1="34.28" x2="17.83" y2="34.28"/><line class="b" x1="9.61" y1="34.28" x2="5.5" y2="34.28"/><polyline class="b" points="9.61 38.39 13.72 38.39 17.83 38.39 21.94 38.39 26.06 38.39"/><polyline class="b" points="34.28 38.39 38.39 38.39 42.5 38.39"/><line class="b" x1="30.17" y1="42.5" x2="34.28" y2="42.5"/><line class="b" x1="38.39" y1="38.39" x2="38.39" y2="42.5"/></svg>