<?xml version="1.0" encoding="UTF-8"?><svg id="b" xmlns="http://www.w3.org/2000/svg" viewBox="0 0 48 48"><defs><style>.c{fill:none;stroke:#000;stroke-linecap:round;stroke-linejoin:round;}</style></defs><path class="c" d="m27.6405,6.6371c1.0874-1.4969-1.0083-3.0191-2.0957-1.5223-2.6364,4.2591-3.4385,5.0485-2.5404,5.7009.8981.6524,1.4008-.3545,4.6361-4.1786Z"/><path class="c" d="m18.6157,19.0617c1.0874-1.4969-1.0083-3.0191-2.0957-1.5223-2.6364,4.2591-3.4385,5.0485-2.5404,5.7009s1.4008-.3545,4.6361-4.1786Z"/><path class="c" d="m26.207,31.5122c0,1.8502,2.5902,1.8502,2.5902,0-.37-4.9954-.185-6.1055-1.2951-6.1055s-.9251,1.1101-1.2951,6.1055Z"/><path class="c" d="m26.207,16.1556c0,1.8502,2.5902,1.8502,2.5902,0-.37-4.9954-.185-6.1055-1.2951-6.1055s-.9251,1.1101-1.2951,6.1055Z"/><path class="c" d="m35.9212,19.5645c1.7606.5687,2.5567-1.8961.7961-2.4648-4.8673-1.1833-5.8668-1.7005-6.208-.6442-.3412,1.0564.772,1.2214,5.4118,3.109h0Z"/><path class="c" d="m21.3077,14.8444c1.7606.5687,2.5567-1.8961.7961-2.4648-4.8673-1.1833-5.8668-1.7005-6.208-.6442-.3412,1.0564.772,1.2214,5.4118,3.109h0Z"/><path class="c" d="m12.0215,25.8319c-1.7595.5719-.9589,3.0353.8006,2.4633,4.6364-1.8959,5.7494-2.0631,5.4062-3.1189s-1.3417-.5367-6.2068.6555h0Z"/><path class="c" d="m26.6254,21.0855c-1.7595.5719-.9589,3.0353.8006,2.4633,4.6364-1.8959,5.7494-2.0631,5.4062-3.1189-.3431-1.0557-1.3417-.5367-6.2068.6555h0Z"/><path class="c" d="m12.695,10.6661c-1.0865-1.4975-3.183.0237-2.0964,1.5212,3.2332,3.8259,3.7354,4.8331,4.6338,4.1811.8985-.6519.0968-1.4417-2.5374-5.7022h0Z"/><path class="c" d="m21.7135,23.0945c-1.0865-1.4975-3.183.0237-2.0964,1.5212,3.2332,3.8259,3.7354,4.8331,4.6338,4.1811.8985-.6519.0968-1.4417-2.5374-5.7022h0Z"/><path class="c" d="m11.2467,43.4895v-8.423l4.2162,8.4325,4.2162-8.4198v8.4198"/><path class="c" d="m26.109,39.2838c1.1643,0,2.1081.9438,2.1081,2.1081s-.9438,2.1081-2.1081,2.1081h-3.4784v-8.4325h3.4784c1.1643,0,2.1081.9438,2.1081,2.1081s-.9438,2.1081-2.1081,2.1081Z"/><line class="c" x1="26.109" y1="39.2838" x2="22.6306" y2="39.2838"/><path class="c" d="m31.335,42.5756c.5171.6732,1.1655.9239,2.0675.9239h1.2484c1.1618,0,2.1036-.9418,2.1036-2.1036v-.0091c0-1.1618-.9418-2.1036-2.1036-2.1036h-1.3771c-1.163,0-2.1058-.9428-2.1058-2.1058h0c0-1.1656.9448-2.1104,2.1104-2.1104h1.2416c.9021,0,1.5504.2507,2.0675.9239"/></svg>