<svg xmlns="http://www.w3.org/2000/svg" viewBox="0 0 48 48"><defs><style>.a{fill:none;stroke:#000;stroke-linecap:round;stroke-linejoin:round;}</style></defs><path class="a" d="M21.37,23.278c2.0026,1.4.9541,5.0915-4.5466,9.5846,0,0-4.29-3.2485-4.3641-6.3856s3.1415-3.0577,4.3573.42c0,0,2.5516-5.02,4.5534-3.62Z"/><rect class="a" x="8.4636" y="5.5917" width="16.706" height="8.5626" rx="1.4457"/><path class="a" d="M23.371,14.492l.0432,1.9248c.1262,2.2233,4.6832,2.6157,4.6832,5.7892V36.033m-3.8986,3.8986H9.1368A3.593,3.593,0,0,1,5.536,36.3308V22.2058c0-2.8237,4.0791-3.2065,4.4038-5.7445l.0642-1.6085"/><path class="a" d="M36.631,25.454c1.6087,1.25,3.2319,2.4806,4.8313,3.7422a3.2317,3.2317,0,0,1,.5273,4.1549,3.0634,3.0634,0,0,1-3.9,1.0764,19.5449,19.5449,0,0,1-1.9177-1.4006c-1.1494-.8949-2.3131-1.7712-3.4532-2.678a3.2317,3.2317,0,0,1-.5273-4.1549,3.0634,3.0634,0,0,1,3.9-1.0764,3.1528,3.1528,0,0,1,.5395.3364Z"/><path class="a" d="M27.371,36.172c2.037.0083,4.074-.0072,6.1109.0162a3.2317,3.2317,0,0,1,2.9467,2.89,3.0656,3.0656,0,0,1-2.275,3.2784,11.8714,11.8714,0,0,1-2.257.0958c-1.546-.0076-3.092.0082-4.6379-.0145a3.2317,3.2317,0,0,1-2.9467-2.89A3.0656,3.0656,0,0,1,26.587,36.27a3.142,3.142,0,0,1,.784-.0975Z"/><path class="a" d="M30.3,42.417l.0078-6.0531"/><path class="a" d="M35.33,32.132l3.6823-4.8042"/></svg>