<svg xmlns="http://www.w3.org/2000/svg" viewBox="0 0 48 48"><defs><style>.a{fill:none;stroke:#000;stroke-linecap:round;stroke-linejoin:round;}</style></defs><line class="a" x1="33.1654" y1="26.9169" x2="37.2273" y2="38.0065"/><path class="a" d="M23.2792,43.5,10.7727,7.3831c4.4416.2338,10.2857-.7013,14.1818-2.8831L31.538,22.4739"/><line class="a" x1="28.4034" y1="22.1731" x2="29.6774" y2="17.4957"/><line class="a" x1="24.6429" y1="35.9805" x2="26.7403" y2="28.2796"/><line class="a" x1="10.8506" y1="39.487" x2="15.6826" y2="21.6184"/><path class="a" d="M28.3631,13.8792A37.6558,37.6558,0,0,0,14.304,17.6213"/><path class="a" d="M14.7782,24.963c3.0075-.2422,8.93-1.9565,10.9166-3.2812,1.9573.8907,10.0909.5065,10.87,2.3377s-6.3506,4.48-10.4805,4.2467-11.53-2.475-11.53-2.475"/><path class="a" d="M11.7765,36.0633c3.1261-2.6932,8.9159-6.7776,13.9691-4.1315"/><path class="a" d="M22.5976,41.5316c2.4349-3.4861,4.2247-7.4487,13.5376-6.2661"/></svg>