<svg id="Layer_2" data-name="Layer 2" xmlns="http://www.w3.org/2000/svg" viewBox="0 0 48 48"><defs><style>.cls-1{fill:none;stroke:#000;stroke-linecap:round;stroke-linejoin:round;}</style></defs><path class="cls-1" d="M19,20.23a2.69,2.69,0,1,1,2.68-2.69A2.69,2.69,0,0,1,19,20.23M24,2.5A21.5,21.5,0,0,0,19.43,45V25.72h0A1.76,1.76,0,0,1,21.12,24h2.95V2.5M38.13,34.72A1.68,1.68,0,1,1,39.81,33a1.68,1.68,0,0,1-1.68,1.68m-5.61,0A1.68,1.68,0,1,1,34.19,33a1.68,1.68,0,0,1-1.67,1.68m-5.62,0A1.68,1.68,0,1,1,28.58,33a1.68,1.68,0,0,1-1.68,1.68"/><path class="cls-1" d="M19.43,45A21.5,21.5,0,1,0,24,2.5"/></svg>