<?xml version="1.0" encoding="UTF-8"?><svg id="a" xmlns="http://www.w3.org/2000/svg" viewBox="0 0 48 48"><defs><style>.b{fill:none;stroke:#000;stroke-linecap:round;stroke-linejoin:round;}</style></defs><path class="b" d="m38.1499,14.995c-1.7834,0-7.2041,8.8583-14.1499,8.8583s-12.3665-8.8583-14.1499-8.8583h-5.3501v15.0063c0,1.652,1.3516,3.0036,3.0036,3.0036h2.3465v-5.1625c0-2.018.9857-3.0505,2.9919-3.0505,3.203,0,7.4738,7.2274,11.158,7.2274s7.9549-7.2274,11.158-7.2274c2.0063,0,2.9919,1.0325,2.9919,3.0505v2.1589c0,1.6588,1.3448,3.0036,3.0036,3.0036h2.3465v-15.9018c0-1.1643-.9438-2.1081-2.1081-2.1081h-3.242Z"/></svg>