<?xml version="1.0" encoding="UTF-8"?><svg id="b" xmlns="http://www.w3.org/2000/svg" viewBox="0 0 48 48"><defs><style>.c{fill:none;stroke:#000;stroke-linecap:round;stroke-linejoin:round;}</style></defs><path class="c" d="M24,35.8628s6.4505-7.1761,6.4505-12.8895c0-3.5625-2.888-6.4505-6.4505-6.4505s-6.4505,2.888-6.4505,6.4505c0,5.7134,6.4505,12.8895,6.4505,12.8895Z"/><path class="c" d="M24.0067,26.251c-1.8102.0037-3.2807-1.4608-3.2844-3.271-.0037-1.8102,1.4608-3.2807,3.271-3.2844,1.8102-.0037,3.2807,1.4608,3.2844,3.271,0,.0022,0,.0045,0,.0067,0,1.8065-1.4645,3.271-3.271,3.271v.0067Z"/><path class="c" d="M8.4557,35.6593c-2.4823-3.2655-3.9557-7.3407-3.9557-11.761s1.4734-8.4956,3.9557-11.761"/><path class="c" d="M13.5929,16.0266c-1.6593,2.1902-2.6416,4.9114-2.6416,7.8717s.9823,5.6814,2.6416,7.8717"/><path class="c" d="M39.5443,12.1372c2.4823,3.2654,3.9557,7.3407,3.9557,11.761s-1.4734,8.4955-3.9557,11.761"/><path class="c" d="M34.4071,31.77c1.6593-2.1903,2.6416-4.9115,2.6416-7.8717s-.9823-5.6815-2.6416-7.8717"/></svg>