<?xml version="1.0" encoding="UTF-8"?><svg id="a" xmlns="http://www.w3.org/2000/svg" viewBox="0 0 48 48"><defs><style>.b{fill:none;stroke:#000;stroke-linecap:round;stroke-linejoin:round;}</style></defs><rect class="b" x="5.5" y="5.5" width="37" height="37" rx="4" ry="4"/><path class="b" d="M22,22.705v-8l5.3,8v-8"/><path class="b" d="M29.075,33.295v-8l5.3,8v-8"/><path class="b" d="M13.625,14.705v5.35c0,1.4636,1.1864,2.65,2.65,2.65s2.65-1.1864,2.65-2.65v-5.35"/><line class="b" x1="30.375" y1="18.705" x2="32.983" y2="18.705"/><path class="b" d="M34.375,22.705h-4v-8h4"/><line class="b" x1="13.625" y1="29.295" x2="16.225" y2="29.295"/><path class="b" d="M13.625,33.295v-8h4"/><path class="b" d="M23.35,25.295h0c1.4636,0,2.65,1.1864,2.65,2.65v2.7c0,1.4636-1.1864,2.65-2.65,2.65h0c-1.4636,0-2.65-1.1864-2.65-2.65v-2.7c0-1.4636,1.1864-2.65,2.65-2.65Z"/></svg>