<?xml version="1.0" encoding="UTF-8"?><svg id="a" xmlns="http://www.w3.org/2000/svg" viewBox="0 0 48 48"><defs><style>.b{fill:#000;}.c{fill:none;stroke:#000;stroke-linecap:round;stroke-linejoin:round;}</style></defs><g><path class="c" d="M5.3284,22.0607c-.1566,.8157-.0873,1.6588,.2005,2.4379,.1166,.3491,.2694,.6851,.4557,1.0025-.0029,.0288-.0029,.0578,0,.0866-.2189,1.7231,.5225,3.428,1.9322,4.443,.224,.1712,.4618,.3236,.7109,.4557,.2396,.6872,.6772,1.2881,1.2577,1.7271,.4249,.3318,.9003,.5934,1.4081,.7747,.5895,.7948,2.0053,1.8576,3.1807,1.759,0,0,.5132,1.0505,1.9321,1.1073-.1155,.7646-.0467,1.5457,.2005,2.2785h27.8932c.0042-.929-.2498-1.8409-.7337-2.6339l-.0456-.0592c.3813-2.7829-1.4731-5.3805-4.2289-5.924-.1413-.0273-.2871-.0501-.4283-.0638h-.0593c-1.0029-.9707-2.1732-1.7518-3.4541-2.3058l.0501-.2142h.0593c1.5129-.6562,2.4106-1.7726,2.602-3.2263,.1441-1.1656-.1463-2.3434-.8157-3.3084,.0007-.0152,.0007-.0304,0-.0456,.184-1.3824-.0593-2.7881-.6972-4.0283-.481-.8902-1.2304-1.6062-2.1418-2.0461-.2461-.8339-1.3078-1.4719-2.4471-1.44-.9114,.0228-1.8729,.4557-2.2421,1.1347-2.1753,.7825-3.7486,2.6915-4.1012,4.9761-2.0724,1.519-2.3459,4.5101-.5833,6.3797-1.3211,.0088-2.6381,.1462-3.9326,.4101h-.0501c-1.267-.9098-3.184-1.2305-4.5432-.7838-.6853-.3225-1.4355-.2734-1.4355-.2734-.2074-.687-.5797-1.3127-1.0846-1.8228l-.082-.0729c-.0752-.4203-.1756-.8358-.3008-1.2441-.1808-.6456-.5336-1.23-1.0208-1.6906"/><path class="c" d="M3.8358,12.5745c1.1866-.3632,.9221,2.3938,1.7745,3.0404m-1.5225-3.0699c-.1274-.3602-.4948-1.2844,.2173-1.3696,.937-.2055,1.3814,2.9329,2.0543,3.5105m-1.5254-3.2556c-.1085-.3899-.4495-1.5005,.3917-1.5628,.6608-.0465,1.8138,3.92,2.1326,4.3291m1.784,1.645s.1871-.2711,.4489-.6516c.5545-.7652,.4815-2.6046,1.613-2.8071,1.0176-.0501-.5885,4.8387-.4051,5.5686-.0179,.4721-.126,.9333-.3376,1.358,.055,1.3565,1.0276,2.5514,.2016,2.485M5.9793,10.807c.6185-2.8219,2.8128,3.5113,3.5856,4.4212m-1.8668,7.0697c-.7582-.061-.3265-1.8204-.8821-2.1454-1.6208-1.7937-4.1287-7.2268-3.0584-7.569"/><path class="c" d="M35.0716,22.5251c-.2216,.0351,.0477,.1467-.1458,.1959-1.8014,.7154-3.8654,.2299-5.5913-.4921-.8989,.3653,1.0479,.6594,1.1755,1.1345,1.4302,1.6666,3.1294,.5047,4.6164-.3918,.0848,.5098,.4138-.4794-.0591-.4474"/><path class="c" d="M5.9846,25.5876s2.3612,2.4931,5.243,1.5158c2.8818-.9773,2.855-4.1932,2.855-4.1932"/><path class="c" d="M8.6279,30.4853s3.6642,1.1057,5.6073-1.0111c1.9431-2.1167,.9322-5.1079,.9322-5.1079"/><path class="c" d="M11.2931,32.9871s2.5781,1.0081,5.1574-1.8723c2.5794-2.8804-.6839-6.3704-.6839-6.3704"/><path class="c" d="M14.4744,34.747s4.7135,.7444,5.602-3.6722c.8886-4.4166-3.1957-6.1651-3.1957-6.1651"/><path class="c" d="M16.4059,35.8545s4.7339,.8695,6.4841-3.1216c1.7501-3.9912-1.5899-6.9948-1.5899-6.9948"/><path class="c" d="M43.7172,35.4171s-.2371,1.0725-.4543,1.6358c-.2311,.5994-.75,1.0801-.75,1.0801"/><path class="c" d="M38.9853,29.4519s1.9352,1.9594,1.7957,3.7479-.9132,2.2495-.9132,2.2495c0,0,.883,.3737,1.1248,1.2093,.2418,.8356-.0795,1.4744-.0795,1.4744"/><path class="c" d="M5.2909,22.1571c.1802-.71,.2035-.8442,.5483-1.2946,.3448-.4504,.9863-.7157,.9863-.7172"/><path class="c" d="M12.8849,19.9857s-.3759-.5345-1.1245-.7216c-.7487-.1872-1.1737,.0974-1.1737,.0974"/><path class="c" d="M22.9672,32.7449s7.2481,2.8646,11.5803,3.0524c4.3322,.1878,5.2662-.3031,5.2662-.3031"/><path class="c" d="M35.63,19.7788c-.1271,.9459-.7894,1.6393-1.4792,1.5487,0,0,0,0,0,0-.6899-.0905-1.1461-.9307-1.019-1.8766,0,0,0,0,0,0,.1271-.9459,.7894-1.6393,1.4792-1.5487,0,0,0,0,0,0,.6899,.0905,1.1461,.9307,1.019,1.8766,0,0,0,0,0,0Z"/><path class="c" d="M32.0572,19.345c-.1271,.9459-.7894,1.6393-1.4792,1.5487,0,0,0,0,0,0-.6899-.0905-1.1461-.9307-1.019-1.8766,0,0,0,0,0,0,.1271-.9459,.7894-1.6393,1.4792-1.5487,0,0,0,0,0,0,.6899,.0905,1.1461,.9307,1.019,1.8766,0,0,0,0,0,0Z"/></g><circle class="b" cx="33.8946" cy="20.2936" r=".7842"/><circle class="b" cx="30.4208" cy="19.8209" r=".7842"/></svg>