<?xml version="1.0" encoding="UTF-8"?><svg id="a" xmlns="http://www.w3.org/2000/svg" viewBox="0 0 48 48"><defs><style>.d{fill:none;stroke:#000;stroke-linecap:round;stroke-linejoin:round;}</style></defs><path id="b" class="d" d="M31.5539,39.3926c1.1254.0616,1.3807-.2393,1.9954-1.4349l8.6033-16.733c.7308-1.4214.3556-2.6277-1.5754-2.7334l-19.0995-1.0452c-1.1249-.0696-1.3807.2393-1.9954,1.4349l-8.6033,16.733c-.7308,1.4214-.3556,2.6277,1.5754,2.7334l19.0995,1.0452Z"/><path id="c" class="d" d="M26.5222,30.5555c1.1254.0616,1.3807-.2393,1.9954-1.4349l8.6033-16.733c.7308-1.4214.3556-2.6277-1.5754-2.7334l-19.0995-1.0452c-1.1249-.0696-1.3807.2393-1.9954,1.4349L5.8474,26.777c-.7308,1.4214-.3556,2.6277,1.5754,2.7334l19.0995,1.0452Z"/></svg>