<?xml version="1.0" encoding="UTF-8"?><svg id="Layer_2" xmlns="http://www.w3.org/2000/svg" viewBox="0 0 48 48"><defs><style>.cls-1{fill:none;stroke:#000;stroke-linecap:round;stroke-linejoin:round;}</style></defs><path class="cls-1" d="m11.3785,23.6127h9.5084c1.1038,0,2,.8962,2,2v18.0364h-11.5084c-1.1038,0-2-.8962-2-2v-16.0364c0-1.1038.8962-2,2-2Z"/><path class="cls-1" d="m26.9587,14.1726v-7.5235c0-1.1046.8954-2,2-2h9.5085c1.1046,0,2,.8954,2,2v35c0,1.1046-.8954,2-2,2h-6.7901"/><path class="cls-1" d="m18.1687,23.6127v-7.4401c0-1.1046.8954-2,2-2h9.5084c1.1046,0,2,.8954,2,2v27.4765h-8.7902"/></svg>