<svg version="1.1" viewBox="0 0 48 48" xmlns="http://www.w3.org/2000/svg">
 <defs>
  <style>.a{fill:none;stroke:#000;stroke-linecap:round;stroke-linejoin:round;}</style>
  <style>.cls-1{fill:none;stroke:#000;stroke-linecap:round;stroke-linejoin:round;}</style>
 </defs>
 <polyline class="a" points="4.5 41.03 43.5 24 4.5 6.97"/>
 <path class="cls-1" d="m42.427 36.247c0.0213-0.16214 0.03273-0.32544 0.03423-0.48897-0.0015-0.16353-0.01293-0.32682-0.03423-0.48897l1.0586-0.8288c0.09898-0.0756 0.1253-0.21353 0.06112-0.32027l-1.0024-1.7383c-0.06008-0.1079-0.19119-0.15404-0.3056-0.10757l-1.2493 0.50364c-0.25996-0.1984-0.54424-0.36272-0.84591-0.48897l-0.18825-1.3275c-0.01718-0.12151-0.12177-0.21146-0.24448-0.21026h-2.0097c-0.12271-0.0012-0.22731 0.08874-0.24448 0.21026l-0.18825 1.3275c-0.30206 0.12545-0.58644 0.28983-0.84591 0.48897l-1.2542-0.50364c-0.11442-0.04647-0.24552-3.23e-4 -0.3056 0.10757l-1.0024 1.7383c-0.06418 0.10674-0.03786 0.24467 0.06112 0.32027l1.0562 0.8288c-0.02122 0.16215-0.03265 0.32544-0.03423 0.48897 0.0015 0.16353 0.01293 0.32682 0.03423 0.48897l-1.0562 0.8288c-0.09898 0.0756-0.1253 0.21353-0.06112 0.32027l1.0024 1.7383c0.06008 0.1079 0.19119 0.15404 0.3056 0.10757l1.2493-0.50364c0.25996 0.1984 0.54424 0.36272 0.84591 0.48897l0.18825 1.3275c0.01718 0.12151 0.12177 0.21146 0.24448 0.21026h2.0048c0.12271 0.0012 0.22731-0.08874 0.24448-0.21026l0.18825-1.3275c0.30206-0.12545 0.58644-0.28983 0.84591-0.48897l1.2493 0.50364c0.11442 0.04647 0.24552 3.23e-4 0.3056-0.10757l1.0024-1.7383c0.06418-0.10674 0.03786-0.24467-0.06112-0.32027z"/>
</svg>
