<?xml version="1.0" encoding="UTF-8"?><svg id="b" xmlns="http://www.w3.org/2000/svg" viewBox="0 0 48 48"><defs><style>.c{fill:none;stroke:#000;stroke-linecap:round;stroke-linejoin:round;}</style></defs><path class="c" d="m40.5,5.5H7.5c-1.1046,0-2,.8954-2,2v33c0,1.1046.8954,2,2,2h33c1.1046,0,2-.8954,2-2V7.5c0-1.1046-.8954-2-2-2Z"/><circle class="c" cx="24" cy="24" r="12"/><line class="c" x1="24" y1="36" x2="24" y2="42.5"/><line class="c" x1="12" y1="24" x2="36" y2="24"/><path class="c" d="m14.9211,31.846l.5372.0592c5.6773.6253,11.4061.6252,17.0833-.0004l.5331-.0587"/><path class="c" d="m33.0789,16.154l-.5372-.0592c-5.6773-.6253-11.4061-.6252-17.0833.0004l-.5331.0587"/></svg>