<?xml version="1.0" encoding="UTF-8"?><svg id="b" xmlns="http://www.w3.org/2000/svg" viewBox="0 0 48 48"><defs><style>.c{fill:none;stroke:#000;stroke-linecap:round;stroke-linejoin:round;}</style></defs><path class="c" d="M38.5,5.5H9.5c-2.2091,0-4,1.7909-4,4v29c0,2.2091,1.7909,4,4,4h29c2.2091,0,4-1.7909,4-4V9.5c0-2.2091-1.7909-4-4-4Z"/><path class="c" d="M6.7559,8.1926c-.5549,3.3164.0262,6.824,1.6117,9.7871"/><path class="c" d="M6.7559,8.1926c.2986.3927.7609.6468,1.2424.7345"/><path class="c" d="M7.9982,8.9271c.142-.6787.3205-1.4188.8414-1.9134"/><path class="c" d="M8.8397,7.0137c3.1857-.1646,6.55.7193,8.955,2.8855"/><path class="c" d="M11.14,18.503c-1.7654,3.7637-2.0504,8.4716.2001,12.107"/><path class="c" d="M13.936,22.432c.0267,1.0077-.0869,2.4252.9024,3.0221"/><path class="c" d="M17.17,19.925c-.4251,2.3339,1.0481,4.6021,3.1185,5.5998"/><path class="c" d="M24.263,16.777c-2.5265,2.1367-4.037,5.4349-3.9747,8.7474"/><path class="c" d="M24.263,16.777c-.1999,3.3698,1.9474,6.8224,5.3012,7.6781,1.6693.7646,3.6782.01,5.2308,1.008,1.0943.8093,1.438,2.238,1.4839,3.5279"/><path class="c" d="M25.084,25.509c1.5939-1.8466,4.5527-1.5737,6.2227.0262.612.6011,2.015,1.4051.6634,2.1691"/><path class="c" d="M25.554,26.855c-.0589.6248-.034,1.257.0551,1.8777"/><path class="c" d="M25.609,28.733c.0326,2.1789,3.4563,3.1628,4.2368.9296.4708-1.1381.254-2.3844.2644-3.5778"/><path class="c" d="M37.818,32.98c.159,2.2124-1.1938,4.3244-3.1504,5.301"/><path class="c" d="M39.679,28.065c1.8878,1.5026,3.467,4.2577,2.0943,6.5935-.5671,1.0053-1.466,1.7786-2.4153,2.4111"/><path class="c" d="M37.433,16.332c2.2823-2.4572,2.158-6.1402,1.7515-9.2568-1.8237.4334-2.0059-1.8887-3.8048-.9836-3.0348.4554-6.2889,1.3133-8.468,3.6211"/><path class="c" d="M26.036,9.5231c4.9277,1.112,10.063,3.7222,12.301,8.4913,1.2505,2.6953,1.2348,5.8087.5059,8.6438"/><path class="c" d="M26.036,9.5231c-5.5216-.6569-11.683.4635-15.712,4.5597"/><path class="c" d="M10.324,14.083c-3.2991,5.1474-4.2692,12.138-1.1572,17.599.484.8811,1.0502,1.7161,1.679,2.5001"/><path class="c" d="M10.846,34.182c.2586,2.2286,1.9667,4.5129,4.4246,4.3207"/><path class="c" d="M15.271,38.502c-.9059-.632-1.5438-4.0084.0373-2.2206.6147.4261,1.2627.8201,1.9726,1.0662"/><path class="c" d="M12.859,33.135c4.732,3.7542,11.48,3.9528,16.927,1.7343,1.5229-.5891,2.9852-1.3288,4.3829-2.1716"/><path class="c" d="M21.64,34.046c1.3351,1.2104,3.5756,1.0008,4.2408-.8101"/><path class="c" d="M12.907,27.693c.6915-1.6967,2.4229-2.8426,4.1871-3.135,1.4726.0351,3.0868.5284,3.9041,1.8477"/><path class="c" d="M15.32,26.578c-.663,1.5945-.5253,4.0743,1.4496,4.6243,1.9267.8059,3.3248-1.2273,3.1663-2.9751.0189-.3657.0456-.7384-.0204-1.101"/><path class="c" d="M19.212,35.994c-1.1044.3785-1.1421,1.8184-2.6438,1.4637-1.2602.9596-2.8282,3.2575-.7536,4.3113.2875.2324.6017.4327.9374.5881"/><path class="c" d="M15.76,41.846c-.1933.1343-.3684.302-.4832.51"/><path class="c" d="M20.32,36.24c-2.6505.4912-.5101,3.1329.8608,3.8699,1.0615.8249,2.1944,1.5535,3.346,2.2451"/><path class="c" d="M21.549,36.291c-.4918,1.5862-.0538,3.343.843,4.7006"/><path class="c" d="M24.03,36.251c-.7273,1.6215-1.2356,3.5101-.7271,5.2709"/><path class="c" d="M24.751,36.179c1.9076-.1421,3.8406,2.0498,1.6322,3.3384-.9306.8027-2.0036,1.4214-3.0802,2.0045"/><path class="c" d="M27.471,35.628c2.4127-.2297,4.2631,1.7823,5.7044,3.4567.1767.5312-.2058,1.0674-.4334,1.5228"/><path class="c" d="M33.04,40.111c1.6607.9221,3.3621,1.8405,5.2082,2.3318"/><ellipse class="c" cx="27.894" cy="27.8" rx=".8127" ry="1.4444"/><ellipse class="c" cx="17.55" cy="28.202" rx=".8339" ry="1.3846"/><path class="c" d="M33.526,29.331c1.3493.8009,2.9323,2.2378,2.2862,3.9856-.4084,1.1558-1.3326,2.0298-2.2585,2.7868"/></svg>