<?xml version="1.0" encoding="UTF-8"?><svg id="a" xmlns="http://www.w3.org/2000/svg" viewBox="0 0 48 48"><defs><style>.c{fill:none;stroke:#000;stroke-linecap:round;stroke-linejoin:round;}</style></defs><circle class="c" cx="24" cy="17.1639" r="2.1963"/><path class="c" d="M26.1963,30.8361c0,1.213-.9833,2.1963-2.1963,2.1963s-2.1963-.9833-2.1963-2.1963h0c0-1.213.9833-2.1963,2.1963-2.1963s2.1963.9833,2.1963,2.1963Z"/><path class="c" d="M19.3926,17.1639c0,1.213-.9833,2.1963-2.1963,2.1963h0c-1.213,0-2.1963-.9833-2.1963-2.1963h0c0-1.213.9833-2.1963,2.1963-2.1963s2.1963.9833,2.1963,2.1963Z"/><path class="c" d="M19.3926,30.8361c0,1.213-.9833,2.1963-2.1963,2.1963s-2.1963-.9833-2.1963-2.1963c0-1.213.9833-2.1963,2.1963-2.1963h0c1.213,0,2.1963.9833,2.1963,2.1963h0Z"/><path class="c" d="M19.3926,24c0,1.213-.9833,2.1963-2.1963,2.1963s-2.1963-.9833-2.1963-2.1963h0c0-1.213.9833-2.1963,2.1963-2.1963h0c1.213,0,2.1963.9833,2.1963,2.1963h0Z"/><path class="c" d="M33,17.1639c0,1.213-.9833,2.1963-2.1963,2.1963h0c-1.213,0-2.1963-.9833-2.1963-2.1963h0c0-1.213.9833-2.1963,2.1963-2.1963,1.213,0,2.1963.9833,2.1963,2.1963h0Z"/><path class="c" d="M33,30.8361c0,1.213-.9833,2.1963-2.1963,2.1963h0c-1.213,0-2.1963-.9833-2.1963-2.1963s.9833-2.1963,2.1963-2.1963h0c1.213,0,2.1963.9833,2.1963,2.1963h0Z"/><path class="c" d="M33,24c0,1.213-.9833,2.1963-2.1963,2.1963h0c-1.213,0-2.1963-.9833-2.1963-2.1963h0c0-1.213.9833-2.1963,2.1963-2.1963h0c1.213,0,2.1963.9833,2.1963,2.1963h0Z"/><path class="c" d="M26.1963,24c0,1.213-.9833,2.1963-2.1963,2.1963s-2.1963-.9833-2.1963-2.1963h0c0-1.213.9833-2.1963,2.1963-2.1963h0c1.213,0,2.1963.9833,2.1963,2.1963h0Z"/><path id="b" class="c" d="M23.5,40.5887v4.6883M24,2.8539v4.616M2.5,24h4.7657M40.5302,24h4.7845M40.5301,24c0,9.1293-7.4008,16.5302-16.5301,16.5302S7.4699,33.1293,7.4699,24c0-9.1293,7.4008-16.5302,16.5301-16.5302,9.1293,0,16.5301,7.4008,16.5301,16.5302ZM45.5,24c0,11.8741-9.6259,21.5-21.5,21.5S2.5,35.8741,2.5,24,12.1259,2.5,24,2.5s21.5,9.6259,21.5,21.5Z"/></svg>