<?xml version="1.0" encoding="UTF-8"?><svg id="a" xmlns="http://www.w3.org/2000/svg" viewBox="0 0 48 48"><defs><style>.b{fill:none;stroke:#000;stroke-linecap:round;stroke-linejoin:round;}</style></defs><path class="b" d="M15.5,5.5c-5.5228,0-10,4.4772-10,10v27h11v-26c0-.554.446-1,1-1s1,.446,1,1v26h11v-26c0-.554.446-1,1-1s1,.446,1,1v26h11V15.5c0-5.5228-4.4772-10-10-10-3.4617.0046-6.6747,1.7992-8.4941,4.7441-1.8216-2.9485-5.04-4.7436-8.5059-4.7441Z"/><path class="b" d="M16.5,23c0-.554.446-1,1-1s1,.446,1,1"/><path class="b" d="M29.5,23c0-.554.446-1,1-1s1,.446,1,1"/><path class="b" d="M16.5,39H5.5"/><path class="b" d="M29.5,39h-11"/><path class="b" d="M42.5,39h-11"/></svg>