<?xml version="1.0" encoding="UTF-8"?><svg id="a" xmlns="http://www.w3.org/2000/svg" viewBox="0 0 48 48"><defs><style>.b{fill:none;stroke:#000;stroke-linecap:round;stroke-linejoin:round;}.c{fill:#000;stroke-width:0px;}</style></defs><path class="b" d="m40.5,5.5H7.5c-1.1046,0-2,.8954-2,2v33c0,1.1046.8954,2,2,2h33c1.1046,0,2-.8954,2-2V7.5c0-1.1046-.8954-2-2-2Z"/><path class="b" d="m14.3155,21.1811c0-2.0338,1.6487-3.6825,3.6825-3.6825h0c2.0338,0,3.6825,1.6487,3.6825,3.6825v6.0761"/><line class="b" x1="14.3155" y1="17.4986" x2="14.3155" y2="27.2572"/><path class="b" d="m21.6805,21.1811c0-2.0338,1.6487-3.6825,3.6825-3.6825h0c2.0338,0,3.6825,1.6487,3.6825,3.6825v6.0761"/><circle class="c" cx="32.9345" cy="30.0276" r=".75"/><line class="b" x1="32.9345" y1="17.2224" x2="32.9345" y2="26.1716"/></svg>