<?xml version="1.0" encoding="UTF-8"?><svg id="b" xmlns="http://www.w3.org/2000/svg" viewBox="0 0 48 48"><defs><style>.g{fill:none;stroke:#000;stroke-linecap:round;stroke-linejoin:round;}</style></defs><g id="e"><path id="f" class="g" d="M21.5878,19.2364c-3.2742-10.6171-9.3181-13.9058-13.7495-10.1827-3.0287,2.3857-2.9402,6.2169-.7385,9.0945,1.5601,2.0391,4.5107,4.0225,6.8756,5.0129,1.9487.8162,5.7521,2.0015,6.9432,5.1637,1.0377,2.7549.6561,6.3897-.4186,8.2817-1.6526,2.9093-4.1459,4.7658-6.9739,3.3088-2.6651-1.3731-2.8231-5.6701-1.2374-8.1688,1.3178-2.0766,4.2027-6.3321,11.8121-6.2847M26.4122,19.2364c3.2742-10.6171,9.3181-13.9058,13.7495-10.1827,3.0287,2.3857,2.9402,6.2169.7385,9.0945-1.5601,2.0391-4.5107,4.0225-6.8756,5.0129-1.9487.8162-5.7521,2.0015-6.9432,5.1637-1.0377,2.7549-.6561,6.3897.4186,8.2817,1.6526,2.9093,4.1459,4.7658,6.9739,3.3088,2.6651-1.3731,2.8231-5.6701,1.2374-8.1688-1.3178-2.0766-4.2027-6.3321-11.8121-6.2847"/></g></svg>