<?xml version="1.0" encoding="UTF-8"?><svg id="a" xmlns="http://www.w3.org/2000/svg" viewBox="0 0 48 48"><defs><style>.b{stroke-width:1px;}.b,.c,.d{fill:none;stroke:#000;stroke-linecap:round;stroke-linejoin:round;}.e{fill:#000;stroke-width:0px;}.d{stroke-width:1px;}</style></defs><path class="b" d="m18.122,26.1264h0c-.7928,0-1.4416-.6487-1.4416-1.4416v-.937c0-.7928.6487-1.4416,1.4416-1.4416h0c.7928,0,1.4416.6487,1.4416,1.4416v.937c0,.7928-.6487,1.4416-1.4416,1.4416Z"/><path class="d" d="m9.0798,23.6759c0-.7928.6487-1.4415,1.4415-1.4415s1.4415.6487,1.4415,1.4415v2.3785"/><line class="d" x1="9.0798" y1="22.2344" x2="9.0798" y2="26.1264"/><path class="d" d="m11.9628,23.6759c0-.7928.6487-1.4415,1.4415-1.4415s1.4415.6487,1.4415,1.4415v2.3785"/><line class="d" x1="24.6569" y1="20.2883" x2="24.6569" y2="26.1264"/><path class="d" d="m24.6569,23.6759c0-.7928.6487-1.4415,1.4415-1.4415s1.4415.6487,1.4415,1.4415v2.4506"/><path class="d" d="m21.4143,23.6759c0-.7928.6487-1.4415,1.4415-1.4415"/><line class="d" x1="21.4143" y1="22.2344" x2="21.4143" y2="26.1264"/><circle class="e" cx="29.4369" cy="20.5045" r=".75"/><line class="d" x1="29.4369" y1="22.2344" x2="29.4369" y2="26.1264"/><path class="d" d="m31.3097,24.6845c0,.7928.6487,1.4415,1.4415,1.4415s1.4415-.6487,1.4415-1.4415v-.937c0-.7928-.6487-1.4415-1.4415-1.4415s-1.4415.6487-1.4415,1.4415"/><line class="d" x1="31.3097" y1="22.2339" x2="31.3097" y2="28"/><path class="c" d="m37.4786,26.1264h0c-.7928,0-1.4416-.6487-1.4416-1.4416v-.937c0-.7928.6487-1.4416,1.4416-1.4416h0c.7928,0,1.4416.6487,1.4416,1.4416v.937c0,.7928-.6487,1.4416-1.4416,1.4416Z"/><path class="c" d="m40.5,5.5H7.5c-1.1046,0-2,.8954-2,2v33c0,1.1046.8954,2,2,2h33c1.1046,0,2-.8954,2-2V7.5c0-1.1046-.8954-2-2-2Z"/></svg>