<?xml version="1.0" encoding="UTF-8"?><svg id="b" xmlns="http://www.w3.org/2000/svg" viewBox="0 0 48 48"><defs><style>.c{fill:none;stroke:#000;stroke-linecap:round;stroke-linejoin:round;}</style></defs><path class="c" d="m20.5635,25.9686c-.7227,0-1.2003-.0515-2.865-.5808-3.9605-1.2592-8.1631-7.027-7.0739-10.3297-.8137-2.3101-.6236-3.359.5709-5.9203,1.6338,4.8223,6.6903,5.3932,6.5029,10.1365-.0341.862-.1411,2.0559-.3367,2.802,1.647.214,3.2017,1.4962,3.2017,1.4962,0,0,1.5547-1.2821,3.2017-1.4962-.1956-.7461-.3027-1.9401-.3367-2.802-.1874-4.7432,5.7387-6.0784,8.1982-9.3775,1.1946,2.5612.4216,4.0018-1.1243,5.1612,1.0892,3.3027-3.1134,9.0706-7.0739,10.3297-1.6646.5292-2.1422.5808-2.865.5808Z"/><path class="c" d="m11.1956,9.1378c3.6541.3829,4.8399,2.0554,4.8399,2.0554,1.0541-.8081,1.9588-1.3703,4.528-1.3703,2.5693,0,3.474.5622,4.528,1.3703,0,0,2.8811-.9135,6.5351-1.2964"/><path class="c" d="m30.5024,15.0581c.1405,7.8878-4.2865,11.1554-14.3,15.6878s-6.8514,10.7514-2.0027,12.7541c4.0054-7.6419,20.8-12.1919,16.3027-28.4419Z"/><path class="c" d="m11.6506,33.6528c-4.2356-4.7614-4.1705-14.1589-1.0259-18.5947-.9047,4.9101-.564,10.629,4.0879,16.426"/><path class="c" d="m22.9931,10.0808c2.362-1.593,11.0052-1.1186,15.3093-5.5808,1.827,2.1608,3.3906,6.5704-6.781,9.5919"/><path class="c" d="m28.306,15.4652c.5973.65,1.3527,3.1973-3.2149,4.4973-.2811-2.073,1.4054-5.1473,3.2149-4.4973Z"/><line class="c" x1="25.9123" y1="16.6972" x2="26.4614" y2="17.503"/><path class="c" d="m12.494,15.2338c-.5973.65-1.3527,3.1973,3.2149,4.4973.2811-2.073-1.4054-5.1473-3.2149-4.4973Z"/><line class="c" x1="14.8877" y1="16.4658" x2="14.3386" y2="17.2716"/></svg>