<?xml version="1.0" encoding="UTF-8"?><svg id="b" xmlns="http://www.w3.org/2000/svg" viewBox="0 0 48 48"><defs><style>.c{fill:none;stroke:#000;stroke-linecap:round;stroke-linejoin:round;}</style></defs><path class="c" d="M40.5,5.5H7.5c-1.1046,0-2,.8954-2,2v33c0,1.1046.8954,2,2,2h33c1.1046,0,2-.8954,2-2V7.5c0-1.1046-.8954-2-2-2Z"/><path class="c" d="M36,30H12c-.5523,0-1,.4477-1,1v5c0,.5523.4477,1,1,1h24c.5523,0,1-.4477,1-1v-5c0-.5523-.4477-1-1-1Z"/><path class="c" d="M37,26v-14c0-.5523-.4477-1-1-1h-9.25c-.5523,0-1,.4477-1,1v14c0,.5523.4477,1,1,1h9.25c.5523,0,1-.4477,1-1Z"/><path class="c" d="M22.2493,16.4999v-4.5c0-.5523-.4477-1-1-1h-9.2509c-.5523,0-1,.4477-1,1v4.5c0,.5523.4477,1,1,1h9.2509c.5523,0,1-.4477,1-1Z"/><path class="c" d="M22.2493,26.25v-4.5c0-.5523-.4477-1-1-1h-9.2509c-.5523,0-1,.4477-1,1v4.5c0,.5523.4477,1,1,1h9.2509c.5523,0,1-.4477,1-1Z"/></svg>