<?xml version="1.0" encoding="UTF-8"?><svg id="b" xmlns="http://www.w3.org/2000/svg" viewBox="0 0 48 48"><defs><style>.f{fill:none;stroke:#000;stroke-linecap:round;stroke-linejoin:round;}</style></defs><g id="d"><path id="e" class="f" d="M36.1725,7.699c-.1029.4472-.2524,1.0916-.3321,1.4321l-.145.619h-9.4577c-8.2372,0-9.5076.0095-9.8447.0734-1.8854.3577-3.4235,1.7366-4.0068,3.5922-.0671.2136-.4429,1.7539-.8349,3.4229s-.8627,3.668-1.0459,4.4424c-.4514,1.908-.5023,2.1984-.4681,2.6703.0638.8797.3418,1.508.9256,2.0929.3017.3021.4796.4351.7661.5724.6987.3348.3116.3189,7.7879.3199l6.753.0008.0604-.2792c.1462-.6753.5523-2.4172.5676-2.4348.0208-.0239.2286.1734,3.2351,3.0725,1.3285,1.2811,2.4154,2.3417,2.4153,2.3569,0,.0152-.1038.0928-.2306.1725-.1268.0796-1.962,1.2853-4.0782,2.6794-2.1162,1.3941-3.8477,2.506-3.8477,2.471,0-.0351.1311-.6136.2913-1.2857.1602-.672.2913-1.2483.2913-1.2805,0-.0455-1.2569-.0558-5.6319-.0459-3.0976.007-5.6318-.0039-5.6317-.0243.0001-.0203.1495-.6661.3319-1.435.1824-.7689.3079-1.3889.2789-1.3777-.053.0203-.5267.3303-4.2767,2.7985-1.1215.7382-2.6029,1.7099-3.292,2.1593l-1.2529.8172.1362.1445c.3578.3795,5.9413,5.6683,5.9842,5.6683.0164,0,.1669-.5953.3345-1.323.1676-.7276.3247-1.3719.3491-1.4315l.0444-.1086,9.6509-.0128,9.6509-.0129.3726-.1063c1.2702-.3624,2.36-1.1482,3.0679-2.212.5148-.7738.5878-1.0012,1.3589-4.2361.0955-.4005.3478-1.4602.5606-2.3547.2129-.8946.545-2.2819.738-3.083.3286-1.3638.3511-1.4921.353-2.0149.0049-1.3574-.6267-2.4111-1.7507-2.9207-.6465-.2932-.3372-.2819-7.7866-.2829l-6.8246-.0008-.308,1.323c-.1694.7277-.3166,1.3392-.3272,1.3591-.0106.0198-.8957-.7995-1.9669-1.8207-1.0712-1.0212-2.3372-2.2254-2.8133-2.6761-.4761-.4507-.8657-.8355-.8657-.8552s1.1255-.7761,2.5011-1.681,3.2049-2.1081,4.0651-2.6739c.8602-.5658,1.5701-1.0226,1.5776-1.0151.0075.0074-.1177.5677-.2782,1.2451-.1604.6773-.2917,1.2598-.2917,1.2943,0,.051,1.0595.0628,5.6319.0628,5.3314,0,5.6319.0045,5.632.085,0,.0467-.144.682-.32,1.4117s-.3097,1.337-.2972,1.3496c.0126.0125.4023-.2262.8662-.5306,2.9686-1.9478,4.6015-3.0173,6.1704-4.0411.9805-.6399,1.7835-1.1765,1.7843-1.1924s-.6808-.6714-1.5147-1.4565-2.1989-2.0775-3.0335-2.872c-.8345-.7944-1.5342-1.4443-1.5548-1.4442-.0205,0-.1216.366-.2246.8132M36.4633,7.2501c-.0287.0749-.6134,2.571-.6134,2.6188,0,.0148-4.233.027-9.4068.0271-10.1019.0003-9.9132-.004-10.648.2435-1.4457.487-2.637,1.6425-3.1586,3.0636-.0821.2237-.4943,1.8706-.9158,3.6597-.4216,1.7891-.9273,3.9193-1.1239,4.7337l-.3573,1.4808.0012.704c.0011.6375.0132.7368.1286,1.0509.3214.8754.9858,1.5195,1.8847,1.827l.3156.108,6.7759.0131,6.776.0131.3331-1.4588c.1832-.8023.3493-1.4528.3691-1.4454.0199.0074,1.1543,1.0949,2.5209,2.4167,1.3666,1.3218,2.7067,2.6143,2.9779,2.8722.4383.4169.4849.477.4202.5418-.0401.0401-1.1434.7758-2.4518,1.635-3.1611,2.0757-3.8942,2.5577-5.0736,3.3358-.5474.3612-1.0207.6668-1.0517.679-.0414.0164-.0448-.027-.0127-.1633.0241-.1021.1751-.7409.3356-1.4197.1605-.6787.2918-1.2414.2918-1.2502,0-.0089-2.5344-.0161-5.6319-.0161-4.7277,0-5.6319-.0106-5.6319-.0663,0-.0365.1311-.6184.2913-1.2931.1602-.6748.2913-1.2444.2913-1.266,0-.0215-1.1853.7409-2.6339,1.6942-1.4487.9534-2.9616,1.948-3.3622,2.2102-1.9826,1.2982-2.2829,1.4988-2.2957,1.5338-.0212.0576,5.6204,5.4442,5.7033,5.4457.0398.0006.0698-.1154.4316-1.6668l.2347-1.0067,9.7125-.0129,9.7124-.013.437-.1355c1.4523-.4502,2.597-1.4004,3.229-2.6805.2585-.5236.3922-.9516.6521-2.0877.0916-.4005.5751-2.4324,1.0744-4.5153.8428-3.5155.9095-3.827.9303-4.3453.0268-.6632-.0506-1.0641-.305-1.5793-.3246-.6576-.9068-1.158-1.6483-1.4168l-.3884-.1355-6.8493-.0133-6.8492-.0133-.3002,1.2756c-.1651.7016-.3137,1.3466-.3302,1.4334-.0166.0868-.0445.1578-.0621.1578-.0291,0-.8867-.8091-4.7562-4.4871-1.0098-.9598-1.2599-1.2216-1.2099-1.2667.0346-.0313.9696-.652,2.0778-1.3794,1.1082-.7274,3.0281-1.9881,4.2664-2.8015s2.2617-1.4688,2.2741-1.4564c.0124.0124-.1214.6327-.2973,1.3783-.176.7457-.32,1.37-.32,1.3874,0,.0175,2.5457.0318,5.6571.0318h5.6571l-.027.1092c-.1656.6694-.5979,2.5368-.5892,2.5455.0062.0063.3164-.19.6891-.4361,1.7711-1.1693,7.2069-4.7252,7.4708-4.8872l.1901-.1166-.2872-.2672c-.3275-.3047-3.2934-3.1093-4.6145-4.3634-.6282-.5964-.8898-.8163-.9097-.7646"/></g></svg>