<?xml version="1.0" encoding="UTF-8"?><svg id="a" xmlns="http://www.w3.org/2000/svg" viewBox="0 0 48 48"><defs><style>.d{fill:none;stroke:#000;stroke-linecap:round;stroke-linejoin:round;}.c{fill:#000;stroke-width:0px;}</style></defs><circle class="d" cx="24" cy="24" r="21.5"/><path class="d" d="m36.364 29.42a13.5 13.5 0 01-6.9183 6.9332m-3.9875 1.0683a13.5 13.5 0 01-1.4587.079034 13.5 13.5 0 01-7.9791-2.6104m-2.9104-2.9104a13.5 13.5 0 01-2.6104-7.9791 13.5 13.5 0 01.07903-1.4587m1.0683-3.9875a13.5 13.5 0 016.9332-6.9183m3.959-1.0564a13.5 13.5 0 011.4606-.079245 13.5 13.5 0 017.9729 2.6058m2.9203 2.92a13.5 13.5 0 012.6068 7.9742v0a13.5 13.5 0 01-.07903 1.4587"/><circle class="d" cx="24" cy="24" r="3"/><circle class="c" cx="24" cy="24" r=".75"/><circle class="d" cx="27.494" cy="10.96" r="5"/><circle class="d" cx="37.04" cy="20.504" r="5"/><circle class="d" cx="33.546" cy="33.546" r="5"/><circle class="d" cx="20.504" cy="37.04" r="5"/><circle class="d" cx="10.96" cy="27.496" r="5"/><circle class="d" cx="14.454" cy="14.454" r="5"/><path class="d" d="m42.62 34.75 1.9411 7.2443s-5.0221 2-12.656 2"/></svg>
