<?xml version="1.0" encoding="UTF-8"?><svg id="b" xmlns="http://www.w3.org/2000/svg" viewBox="0 0 48 48"><defs><style>.c{fill:none;stroke:#000;stroke-linecap:round;stroke-linejoin:round;}</style></defs><rect class="c" x="5.5" y="5.5" width="37" height="37" rx="4" ry="4"/><path class="c" d="M10.5,23.3242c0-1.1484.931-2.0794,2.0794-2.0794h0c1.1484,0,2.0794.931,2.0794,2.0794v3.431"/><line class="c" x1="10.5" y1="21.2448" x2="10.5" y2="26.7552"/><path class="c" d="M14.6588,23.3242c0-1.1484.931-2.0794,2.0794-2.0794h0c1.1484,0,2.0794.931,2.0794,2.0794v3.431"/><polyline class="c" points="27.1244 21.2448 31.2832 21.2448 27.1244 26.7552 31.2832 26.7552"/><path class="c" d="M20.9076,23.3242c0-1.1484.931-2.0794,2.0794-2.0794s2.0794.931,2.0794,2.0794v1.3516c0,1.1484-.931,2.0794-2.0794,2.0794s-2.0794-.931-2.0794-2.0794v-1.3516Z"/><path class="c" d="M33.3412,23.3242c0-1.1484.931-2.0794,2.0794-2.0794s2.0794.931,2.0794,2.0794v1.3516c0,1.1484-.931,2.0794-2.0794,2.0794s-2.0794-.931-2.0794-2.0794v-1.3516Z"/></svg>