<svg xmlns="http://www.w3.org/2000/svg" viewBox="0 0 48 48">
  <defs>
    <style>
      .a {
        fill: none;
        stroke:#000;
        stroke-linecap: round;
        stroke-linejoin: round;
      }
    </style>
  </defs>
<path class="a" d="M12.2206 10.177C12.2109 9.57334 12.5212 8.9285 13.1152 8.71274C13.9806 8.52122 14.8727 8.61819 15.7503 8.6085C19.2242 8.60607 22.6982 8.62062 26.1721 8.59637C26.8364 8.5891 27.6533 8.63031 28 9.30425C28.3418 10.0824 28.1964 10.9721 28.2182 11.8012C28.4145 11.8861 28.6133 11.9733 28.8097 12.0606C28.6594 12.0606 28.3588 12.0606 28.2085 12.0606C28.2279 14.1624 28.2206 16.2643 28.2158 18.3636C26.7855 18.3636 25.3552 18.3564 23.9249 18.3758C23.9345 17.9564 23.9418 17.5346 23.9515 17.1152C24.3758 17.0982 24.8024 17.0788 25.2291 17.0643C25.2194 16.6715 25.2121 16.2764 25.2073 15.8836C24.7952 15.8836 24.383 15.8836 23.9709 15.8861C23.9612 15.4618 23.9491 15.0376 23.937 14.6158C24.3152 14.417 24.6958 14.223 25.0764 14.0315C24.8945 13.6655 24.7127 13.2994 24.5309 12.9358C24.2085 13.0812 23.8861 13.2291 23.5636 13.3746C23.0618 12.8509 22.543 12.3418 22.0145 11.8449C22.32 11.3721 22.6327 10.9018 22.9503 10.4364C22.8145 10.3661 22.543 10.2255 22.4097 10.1576C22.063 10.6303 21.7188 11.1055 21.3794 11.583C20.5964 11.5636 19.8109 11.5418 19.0255 11.5515C18.6473 11.0982 18.3055 10.6133 17.9927 10.1115C17.8642 10.1988 17.6097 10.3733 17.4812 10.463C17.7964 10.9188 18.1115 11.3794 18.4218 11.84C17.8958 12.3346 17.3794 12.8388 16.8752 13.3552C16.56 13.2097 16.2449 13.0643 15.9297 12.9188C15.7382 13.2897 15.537 13.6558 15.3333 14.0194C15.7115 14.2158 16.0921 14.4097 16.4703 14.6036C16.48 14.9285 16.4873 15.2509 16.4945 15.5758C15.0618 15.5758 13.6291 15.5709 12.1964 15.5685C12.24 13.7721 12.1745 11.9733 12.2206 10.177Z" stroke="#000" stroke-linejoin="round"/>
<path class="a" d="M28.2085 12.0606C28.3588 12.0606 28.6594 12.0606 28.8097 12.0606C31.457 13.0836 33.9951 14.3952 36.6133 15.4958C37.183 15.7745 37.9297 15.9758 38.1455 16.6497C38.4218 17.3624 37.92 18.0533 37.68 18.6982C36.5721 18.2545 35.36 18.3539 34.1939 18.3612C32.2012 18.3709 30.2085 18.3612 28.2158 18.3636C28.2206 16.2642 28.2279 14.1624 28.2085 12.0606Z" stroke="#000" stroke-linejoin="round"/>
<path class="a" d="M9.85697 16.3951C10.3782 15.6582 11.3624 15.5491 12.1964 15.5685C13.6291 15.5709 15.0618 15.5757 16.4945 15.5757C17.9612 15.6315 19.4545 15.4182 20.8994 15.7188C22.1382 16.2933 22.9091 17.5054 23.9248 18.3757C25.3551 18.3564 26.7855 18.3636 28.2158 18.3636C30.2085 18.3612 32.2012 18.3709 34.1939 18.3612C35.36 18.3539 36.5721 18.2545 37.68 18.6982C38.3103 19.2218 38.6351 20.0267 38.6012 20.8412C38.5964 25.8497 38.623 30.8606 38.5891 35.8691C38.6254 37.0424 37.5709 38.0897 36.3976 38.0461C28.223 38.08 20.0461 38.0509 11.8739 38.0606C10.8679 38.1454 9.84484 37.5757 9.52 36.5988C9.31394 35.7309 9.40848 34.8315 9.39394 33.9491C9.39394 28.6909 9.40121 23.4303 9.38909 18.1721C9.38666 17.5539 9.44484 16.8921 9.85697 16.3951ZM14.8994 23.1927C14.9309 25.9636 14.8703 28.737 14.9236 31.5079C14.7951 32.4121 16.3103 32.6182 16.3951 31.7164C16.4921 29.5927 16.3903 27.4618 16.4388 25.3382C16.9697 26.0242 17.4521 26.7588 17.7042 27.5976C17.8376 28.24 18.9042 28.2254 19.0061 27.5661C19.2558 26.7515 19.7236 26.0436 20.2424 25.3794C20.2618 27.4109 20.1915 29.4448 20.2667 31.4764C20.1818 32.0412 20.8291 32.5188 21.3358 32.2448C21.9224 32.0242 21.7818 31.2897 21.8279 30.7976C21.7648 28.303 21.9127 25.7988 21.7551 23.3115C21.3091 22.8921 20.5358 23.0933 19.9661 23.1273C19.3164 23.7964 18.8897 24.6448 18.3442 25.3964C17.8182 24.657 17.4036 23.8376 16.8 23.1588C16.1745 22.9673 15.5297 23.1248 14.8994 23.1927ZM26.223 23.2873C26.1479 23.9782 26.1091 24.6982 26.2788 25.3794C26.4533 25.6461 26.7927 25.8788 27.1248 25.7503C27.6776 25.6727 27.6727 25.0303 27.7624 24.6085C28.1236 24.6085 28.4824 24.6085 28.8436 24.6061C28.8994 26.9915 28.7539 29.3842 28.9115 31.7624C29.0885 32.6254 30.5236 32.3636 30.4 31.4836C30.4776 29.1951 30.4024 26.8994 30.4291 24.6085C30.783 24.6085 31.137 24.6109 31.4933 24.6133C31.6097 24.9891 31.5345 25.583 32.0194 25.7212C32.5285 25.9345 33.12 25.5103 33.0764 24.9576C33.057 24.383 33.2897 23.5976 32.88 23.1588C31.2218 22.9721 29.5394 23.1491 27.8715 23.0764C27.3285 23.1273 26.6933 22.9382 26.223 23.2873Z" stroke="#000" stroke-linejoin="round"/>
</svg>
