<?xml version="1.0" encoding="UTF-8"?><svg id="a" xmlns="http://www.w3.org/2000/svg" viewBox="0 0 48 48"><defs><style>.b{fill:none;stroke:#000;stroke-linecap:round;stroke-linejoin:round;}</style></defs><path class="b" d="M21.8929,15.995c0,.8308-.6752,1.5043-1.508,1.5043h0c-.8314-.0021-1.5043-.6749-1.5043-1.5043-.0021-.8308.6714-1.5059,1.5042-1.508h0c.8329,0,1.508.6735,1.508,1.5042,0,.0013,0,.0025,0,.0038ZM29.1383,18.24c0,.8308-.6752,1.5043-1.508,1.5043h0c-.8314-.0021-1.5043-.6749-1.5043-1.5043-.0021-.8308.6714-1.5059,1.5042-1.508h0c.8329,0,1.508.6735,1.508,1.5042,0,.0013,0,.0025,0,.0038ZM34.2331,20.6702v9.2598c.0042,1.9747-1.5932,3.5788-3.5678,3.583-.0063,0-.0126,0-.0189,0h-13.2888c-1.9746.0084-3.5822-1.5856-3.5905-3.5603,0-.0088,0-.0177,0-.0265v-9.2523"/><rect class="b" x="5.5" y="5.5" width="37" height="37" rx="4" ry="4"/></svg>