<svg xmlns="http://www.w3.org/2000/svg" viewBox="0 0 48 48"><defs><style>.a{fill:none;stroke:#000;stroke-linecap:round;stroke-linejoin:round;}.b{fill:#000;}</style></defs><path class="a" d="M24,38.253a39.2967,39.2967,0,0,1-4.1176-4.7619A37.8618,37.8618,0,0,1,24,33.2453a37.8618,37.8618,0,0,1,4.1176.2458A39.2967,39.2967,0,0,1,24,38.253ZM32.37,9.9122a5.91,5.91,0,0,1,5.1284-2.9445h6.0365V12.929a5.9747,5.9747,0,0,1-3.45,5.4133M24,8.2905a20.8307,20.8307,0,0,0-11.2627,3.18c.2265-.017.5629-.037.79-.037a11.0782,11.0782,0,0,1,3.1441.4683,46.7341,46.7341,0,0,0-5.8325,1.4332q.34-.0253.68-.0254a3.5452,3.5452,0,0,1,1.85.545A21.1268,21.1268,0,0,0,3.7758,25.8061a7.6553,7.6553,0,0,1,4.1595-1.46C5.8219,25.4611,3.7126,27.8613,3.5,30.2414a15.8231,15.8231,0,0,1,3.9907-1.15,8.6089,8.6089,0,0,0-3.1725,3.32,10.12,10.12,0,0,1,4.6579-1.1358c3.3527,0,6.47,2.68,8.46,5.6532a10.8777,10.8777,0,0,1,.8349,1.5586,3.8679,3.8679,0,0,0,3.306,2.5453A3.3117,3.3117,0,0,0,24,39.9786a3.3117,3.3117,0,0,0,2.423,1.0537,3.8679,3.8679,0,0,0,3.306-2.5453,10.8777,10.8777,0,0,1,.8349-1.5586c1.99-2.9735,5.1073-5.6532,8.46-5.6532a10.12,10.12,0,0,1,4.6579,1.1358,8.6089,8.6089,0,0,0-3.1725-3.32,15.8231,15.8231,0,0,1,3.9907,1.15c-.2126-2.38-2.3219-4.78-4.4353-5.8955a7.6553,7.6553,0,0,1,4.16,1.46,21.1268,21.1268,0,0,0-9.5936-11.9518,3.5452,3.5452,0,0,1,1.85-.545q.3407,0,.68.0254a46.7341,46.7341,0,0,0-5.8325-1.4332,11.0782,11.0782,0,0,1,3.1441-.4683c.2271,0,.5635.02.79.037A20.8307,20.8307,0,0,0,24,8.2905Zm4.7537.57a61.4169,61.4169,0,0,0-1.618,14.0453h0a61.7427,61.7427,0,0,0,.3925,6.95,10.9671,10.9671,0,0,1,3.3339,2.5375c.0062-.0421.0157-.1037.0223-.1458.86-5.4614,5.4725-10.0914,10.9088-11.5891M28.9146,24.3994c-.81-1.737-.4268-3.63.856-4.2283s2.9794.3251,3.7894,2.0622h0c.81,1.737.4267,3.63-.8561,4.2283h0c-1.2828.5981-2.9793-.3251-3.7893-2.0622Zm.6981-1.2241a1.5828,1.5828,0,1,1,1.5828,1.5827h0a1.5828,1.5828,0,0,1-1.5828-1.5827Z"/><path class="a" d="M7.9152,18.3423a5.9747,5.9747,0,0,1-3.45-5.4133V6.9677h6.0365A5.91,5.91,0,0,1,15.63,9.9122M6.2068,20.6587c5.4363,1.4977,10.0493,6.1277,10.9088,11.5891.0066.0421.0161.1037.0223.1458a10.9671,10.9671,0,0,1,3.3339-2.5375,61.7427,61.7427,0,0,0,.3925-6.95h0a61.4169,61.4169,0,0,0-1.618-14.0453m-.1609,15.5386c-.81,1.7371-2.5065,2.66-3.7893,2.0622h0c-1.2828-.5982-1.6661-2.4913-.8561-4.2283h0c.81-1.7371,2.5066-2.66,3.7894-2.0622s1.666,2.4913.856,4.2283Zm-.6981-1.2241a1.5828,1.5828,0,0,1-1.5828,1.5827h0a1.5828,1.5828,0,1,1,1.5828-1.5827Z"/><path class="b" d="M17.3068,22.7352a.75.75,0,0,1-.75.75h0a.75.75,0,1,1,.75-.75Z"/><path class="b" d="M31.4432,21.9852a.75.75,0,1,1,0,1.5h0a.75.75,0,1,1,0-1.5Z"/></svg>