<?xml version="1.0" encoding="UTF-8"?><svg id="a" xmlns="http://www.w3.org/2000/svg" viewBox="0 0 48 48"><defs><style>.b{fill:none;stroke:#000;stroke-linecap:round;stroke-linejoin:round;}</style></defs><path class="b" d="M17.0008,16.4059l6.3934-10.9059M10.7797,42.5l7.5782-12.503"/><path class="b" d="M26.4753,16.4059l6.3934-10.9059"/><path class="b" d="M5.5199,36.135l6.3934-10.9059"/><path class="b" d="M33.4696,20.8333l8.4922-14.6924"/><path class="b" d="M27.1056,42.4477l-6.726-11.8095"/><path class="b" d="M36.7409,42.5l-6.8368-11.8884M42.4801,36.5484l-5.7543-9.871"/><path class="b" d="M38.5,5.5H9.5c-2.2091,0-4,1.7909-4,4v29c0,2.2091,1.7909,4,4,4h29c2.2091,0,4-1.7909,4-4V9.5c0-2.2091-1.7909-4-4-4Z"/><path class="b" d="M17.6144,31.1325c-1.4285,1.9661-3.7265,2.2468-5.507,1.0755-1.7805-1.1713-2.1974-3.4657-1.1073-5.3797l5.9998-10.4205c.7306-1.2144,1.5716-1.5143,2.3324-1.4695.7608.0449,1.4529.4549,1.9354,1.282l2.5537,4.286,2.7755-4.286c.542-.7741,1.1746-1.2372,1.9354-1.282.7608-.0449,1.6246.2693,2.3324,1.4695l5.9554,10.4402c1.1829,1.8245.6732,4.2085-1.1073,5.3797-1.7804,1.1713-4.2489.5985-5.5877-1.2834l-1.4993-2.2714-1.1655,1.8598c-.9652,1.4703-2.0885,2.3396-3.5589,2.337s-2.6982-.8493-3.5777-2.3383l-1.1211-1.8223-1.5885,2.4235Z"/></svg>