<?xml version="1.0" encoding="UTF-8"?><svg id="a" xmlns="http://www.w3.org/2000/svg" viewBox="0 0 48 48"><defs><style>.b{fill:none;stroke:#000;stroke-linecap:round;stroke-linejoin:round;}</style></defs><path class="b" d="M24,10.762c5.7136,0,10.3454,4.6318,10.3454,10.3454s-4.6318,10.3454-10.3454,10.3454-10.3454-4.6318-10.3454-10.3454,4.6318-10.3454,10.3454-10.3454ZM24,16.1515c-2.7375-.0004-4.9571,2.2183-4.9578,4.9559-.0004,2.7377,2.2187,4.9574,4.9564,4.9578h.0014c2.7377.0004,4.9574-2.2187,4.9578-4.9564v-.0014c-.0007-2.7375-2.2203-4.9562-4.9578-4.9559Z"/><path class="b" d="M27.5277,42.4999h10.9723c2.2091,0,4-1.7909,4-4V9.5c0-2.2091-1.7909-4-4-4H9.5c-2.2091,0-4,1.7909-4,4v28.9999c0,2.2091,1.7909,4,4,4h10.9723v-5.9219c0-1.0755.8719-1.9474,1.9474-1.9474h3.1607c1.0755,0,1.9474.8719,1.9474,1.9474v5.922h0Z"/></svg>