<svg xmlns="http://www.w3.org/2000/svg" viewBox="0 0 48 48"><defs><style>.a{fill:none;stroke:#000;stroke-linecap:round;stroke-linejoin:round;}</style></defs><path class="a" d="M5.5765,16.8939l8.8457.0137"/><path class="a" d="M5.5765,16.8939,5.55,28.4933l8.898.0411-.0261-11.6268"/><path class="a" d="M5.55,28.4933l8.8143,13.6206,3.2452.0274L14.4483,28.5344l14.97,11.36L29.3761,5.5,14.4222,16.9076"/><path class="a" d="M31.5533,17.0532A4.2105,4.2105,0,0,1,35.33,19.8205a7.1314,7.1314,0,0,1,.0039,5.66,4.2934,4.2934,0,0,1-3.7731,2.8309"/><path class="a" d="M31.7,12.2344c2.5725-.0372,4.9613,1.9469,6.2565,5.1968a14.7381,14.7381,0,0,1,.0061,10.5169c-1.2914,3.2516-3.6779,5.239-6.25,5.2053"/><path class="a" d="M31.6518,8.2587c3.8441-.0459,7.4126,2.7221,9.3464,7.25a19.2141,19.2141,0,0,1,.0039,14.6426c-1.9314,4.5242-5.4984,7.2857-9.3425,7.2327"/><path class="a" d="M10.3257,6.16,38.0282,42.5"/></svg>