<?xml version="1.0" encoding="UTF-8"?><svg id="a" xmlns="http://www.w3.org/2000/svg" viewBox="0 0 48 48"><defs><style>.b{fill:none;stroke:#000;stroke-linecap:round;stroke-linejoin:round;}</style></defs><path class="b" d="M16.2907,7.9595c-6.5118,0-11.7907,5.2789-11.7907,11.7907,0,6.5118,5.2789,11.7907,11.7907,11.7907,2.8312-.0005,5.5676-1.0198,7.7093-2.8715,2.1417,1.8517,4.8781,2.8709,7.7093,2.8715,6.5118,0,11.7907-5.2789,11.7907-11.7907s-5.2789-11.7907-11.7907-11.7907c-2.8318.0001-5.569,1.0194-7.7111,2.8715-2.1412-1.8513-4.8769-2.8705-7.7075-2.8715Z"/><path class="b" d="M13.5444,24.3695v-10.9808l5.4527,10.9935,5.4527-10.9771v10.9771"/><path class="b" d="M33.048,21.6331v3.7102c0,1.5179-1.2206,2.7483-2.7264,2.7483-.7529,0-1.4345-.3075-1.9279-.805"/><path class="b" d="M33.048,17.0982v4.5347c0,1.5179-1.2206,2.7483-2.7264,2.7483s-2.7264-1.2304-2.7264-2.7483v-4.5347"/><path class="b" d="M14.2981,35.2332h0c1.0018,0,1.814.8121,1.814,1.814v1.1791c0,1.0018-.8121,1.814-1.814,1.814h0c-1.0018,0-1.814-.8121-1.814-1.814v-1.1791c0-1.0018.8121-1.814,1.814-1.814Z"/><path class="b" d="M24.7356,35.2332h0c1.0018,0,1.814.8121,1.814,1.814v1.1791c0,1.0018-.8121,1.814-1.814,1.814h0c-1.0018,0-1.814-.8121-1.814-1.814v-1.1791c0-1.0018.8121-1.814,1.814-1.814Z"/><path class="b" d="M39.0395,35.2332h0c1.0018,0,1.814.8121,1.814,1.814v1.1791c0,1.0018-.8121,1.814-1.814,1.814h0c-1.0018,0-1.814-.8121-1.814-1.814v-1.1791c0-1.0018.8121-1.814,1.814-1.814Z"/><path class="b" d="M28.2601,37.0472c0-1.0018.8121-1.814,1.814-1.814s1.814.8121,1.814,1.814v2.993"/><line class="b" x1="28.2601" y1="35.2332" x2="28.2601" y2="40.0402"/><path class="b" d="M31.888,37.0472c0-1.0018.8121-1.814,1.814-1.814s1.814.8121,1.814,1.814v2.993"/><path class="b" d="M21.212,39.1269c-.3127.5459-.901.9136-1.5751.9136-1.0018,0-1.814-.8121-1.814-1.814v-1.1791c0-1.0018.8121-1.814,1.814-1.814.6729,0,1.2602.3663,1.5733.9105"/><path class="b" d="M10.7745,37.0472c0-1.0018-.8121-1.814-1.814-1.814s-1.814.8121-1.814,1.814v1.1791c0,1.0018.8121,1.814,1.814,1.814s1.814-.8121,1.814-1.814"/><line class="b" x1="10.7745" y1="40.0402" x2="10.7745" y2="32.7844"/></svg>