<?xml version="1.0" encoding="UTF-8"?><svg id="b" xmlns="http://www.w3.org/2000/svg" viewBox="0 0 48 48"><defs><style>.c{fill:none;stroke:#000;stroke-linecap:round;stroke-linejoin:round;}</style></defs><path class="c" d="m7.5,42.5h33c1.1046,0,2-.8954,2-2V7.5c0-1.1046-.8954-2-2-2H7.5c-1.1046,0-2,.8954-2,2v33c0,1.1046.8954,2,2,2Z"/><g><polyline class="c" points="9.9626 20.1321 9.9626 12.1409 13.9626 20.1409 17.9626 12.1531 17.9626 20.1409"/><g><path class="c" d="m25.4443,25.7202v7.6042c0,1.3999-1.1348,2.5347-2.5347,2.5347h0c-.6999,0-1.3336-.2837-1.7923-.7424"/><rect class="c" x="20.3749" y="25.7202" width="5.0695" height="6.717" rx="2.5347" ry="2.5347" transform="translate(45.8192 58.1574) rotate(-180)"/></g><g><path class="c" d="m24.0023,18.1409v2.7c0,1.1046-.8954,2-2,2h0c-.5523,0-1.0523-.2238-1.4142-.5858"/><path class="c" d="m24.0023,14.8409v3.3c0,1.1046-.8954,2-2,2h0c-1.1046,0-2-.8954-2-2v-3.3"/></g><line class="c" x1="17.8037" y1="25.7202" x2="17.8037" y2="32.4372"/><line class="c" x1="28.0374" y1="25.7202" x2="28.0374" y2="32.4372"/><g><path class="c" d="m15.0321,28.2549c0-1.3999-1.1348-2.5347-2.5347-2.5347h0c-1.3999,0-2.5347,1.1348-2.5347,2.5347v1.6476c0,1.3999,1.1348,2.5347,2.5347,2.5347h0c1.3999,0,2.5347-1.1348,2.5347-2.5347"/><line class="c" x1="15.0321" y1="32.4372" x2="15.0321" y2="22.2983"/></g></g></svg>