<?xml version="1.0" encoding="UTF-8"?><svg id="b" xmlns="http://www.w3.org/2000/svg" viewBox="0 0 48 48"><defs><style>.cd{fill:none;stroke:#000;stroke-linecap:round;stroke-linejoin:round;}</style></defs><g id="f"><g id="g"><path id="h" class="cd" d="M43.5,19.66884509v8.66231814h-6.31066721c-1.3805863,0-2.49203666-1.11225098-2.49203666-2.49383366v-3.67465081c0-1.38158268,1.11145035-2.49383366,2.49203666-2.49383366h6.31066721Z"/><g id="i"><path id="j" class="cd" d="M40.48797471,23.464371c0,.71059463-.60059552,1.28664672-1.34146716,1.28664672h0c-.74087164,0-1.34146716-.57605014-1.34146716-1.28664477v-.00000196c0-.71059463.60059552-1.28664672,1.34146716-1.28664672h0c.74087164,0,1.34146716.57605014,1.34146716,1.28664477v.00000196Z"/><path id="k" class="cd" d="M39.14650755,24.79255441v1.02972768"/></g></g><g id="l"><path id="m" class="cd" d="M42.80811734,28.43619805v5.32148572c0,4.14474218-3.33435889,7.48150099-7.47611389,7.48150099H7.89360627c-1.09157856,0-2.31674975-1.22372997-2.31674975-2.31609447l.00000098-29.84618204c0-1.09179095,1.22331253-2.316093,2.31431655-2.316093h27.44082941c4.141755,0,7.47611389,3.33676126,7.47611389,7.48150148v5.32148767"/><g id="n"><path id="o" class="cd" d="M12.38821167,10.91327348v-1.24629336"/><path id="p" class="cd" d="M12.38821167,14.65489704v-1.24641766"/><path id="q" class="cd" d="M12.38821167,18.39664489v-1.247416"/><path id="r" class="cd" d="M12.38821167,22.13801984v-1.24778989"/><path id="s" class="cd" d="M12.38821167,25.87814784v-1.24641962"/><path id="t" class="cd" d="M12.38821167,29.61765139v-1.24641766"/><path id="u" class="cd" d="M12.38821167,37.09803268v-1.24666823"/><path id="v" class="cd" d="M14.52077366,38.70543328h-1.24639222"/><path id="w" class="cd" d="M18.25970366,38.70543328h-1.24726527"/><path id="x" class="cd" d="M21.99688755,38.70543328h-1.24514723"/><path id="y" class="cd" d="M25.734322,38.70543328h-1.24552112"/><path id="z" class="cd" d="M29.47337533,38.70543328h-1.245895"/><path id="aa" class="cd" d="M33.2109331,38.70543328h-1.24551916"/><path id="ab" class="cd" d="M36.90625144,38.34706559c-.38190495.14838417-.78549142.2537459-1.2048986.31023219"/><path id="ac" class="cd" d="M39.64799367,35.9206921c-.19774508.36821403-.43772568.70999367-.71359551,1.01898087"/><path id="ad" class="cd" d="M40.27698503,32.28555585v1.12047845c0,.04227467-.00037193.0845376-.00133503.12656171"/><path id="ae" class="cd" d="M40.27698503,28.54505396v1.24629238"/><path id="af" class="cd" d="M40.27698503,17.32292384v1.24778989"/><path id="ag" class="cd" d="M40.18228789,13.58628903c.06217485.32606855.09469714.66286042.09469714,1.00763311v.23442025"/><path id="ah" class="cd" d="M38.29120302,10.45091629c.32483532.25998159.61827587.55749674.87370916.88605917"/><path id="ai" class="cd" d="M34.8169282,9.2945261h.16447501c.36819837,0,.72730209.03728299,1.07394421.10810813"/><path id="aj" class="cd" d="M31.07887126,9.2945261h1.2465175"/><path id="ak" class="cd" d="M27.34081431,9.2945261h1.24689138"/><path id="al" class="cd" d="M23.60288265,9.2945261h1.24527055"/><path id="am" class="cd" d="M19.86532292,9.2945261h1.24639222"/><path id="an" class="cd" d="M16.12726597,9.2945261h1.24626693"/><path id="ao" class="cd" d="M12.38821167,9.2945261h1.24689041"/><path id="ap" class="cd" d="M12.38821167,33.35840385v-1.24704407"/></g></g><g id="aq"><g id="ar"><path id="as" class="cd" d="M10.44635257,10.73884642c0,.54785985-.4438077.99198761-.99127311.99198761s-.99127311-.44412776-.99127311-.99198761.4438077-.99198761.99127311-.99198761.99127311.44412776.99127311.99198761Z"/><path id="at" class="cd" d="M8.45427125,10.73884642h-3.95427125"/></g><g id="au"><path id="av" class="cd" d="M10.44635257,37.0631457c-.00000098.54785985-.44380868.99198663-.99127311.99198663s-.99127213-.44412678-.99127311-.99198663c.00000098-.54785985.44380868-.99198663.99127311-.99198663s.99127213.44412678.99127311.99198663Z"/><path id="aw" class="cd" d="M8.45427125,37.0631457h-3.95427125"/></g><g id="ax"><path id="ay" class="cd" d="M10.44635257,15.12622849c-.00000098.54785887-.44380868.99198663-.99127311.99198663s-.99127213-.44412776-.99127311-.99198663c0-.54785985.4438077-.99198859.99127213-.99198859h.00000098c.54746541,0,.99127311.44412874.99127311.99198761v.00000098Z"/><path id="az" class="cd" d="M8.45427125,15.12623045h-3.95427125"/></g><g id="ba"><path id="bb" class="cd" d="M10.44635257,19.51361154c-.00000098.54785985-.44380868.99198663-.99127311.99198663s-.99127213-.44412678-.99127311-.99198663c.00000098-.54785985.44380868-.99198663.99127311-.99198663s.99127213.44412678.99127311.99198663Z"/><path id="bc" class="cd" d="M8.45427125,19.5136135h-3.95427125"/></g><g id="bd"><path id="be" class="cd" d="M10.44635257,23.90099655c-.00000098.54785985-.44380868.99198663-.99127311.99198663s-.99127213-.44412678-.99127311-.99198663c.00000098-.54785985.44380868-.99198663.99127311-.99198663s.99127213.44412678.99127311.99198663Z"/><path id="bf" class="cd" d="M8.45427125,23.90099459h-3.95427125"/></g><g id="bg"><path id="bh" class="cd" d="M10.44635257,28.28837764c0,.54785985-.4438077.99198859-.99127213.99198859h-.00000098c-.54746541,0-.99127311-.44412874-.99127311-.99198859h0c.00000098-.54785985.44380868-.99198663.99127311-.99198663s.99127213.44412678.99127311.99198663Z"/><path id="bi" class="cd" d="M8.45427125,28.28837764h-3.95427125"/></g><g id="bj"><path id="bk" class="cd" d="M10.44635257,32.67576069c-.00000098.54785985-.44380868.99198663-.99127311.99198663s-.99127213-.44412678-.99127311-.99198663c0-.54785985.4438077-.99198859.99127213-.99198859h.00000098c.54746541,0,.99127311.44412874.99127311.99198859h0Z"/><path id="bl" class="cd" d="M8.45427125,32.67576069h-3.95427125"/></g></g><g id="bm"><path id="bn" class="cd" d="M15.21299008,19.51692955c1.6286133-3.11475219,4.80081489-5.27069778,8.48146551-5.4171029"/><path id="bo" class="cd" d="M14.39965485,26.98392137c-.23051793-.8575087-.35357567-1.7600326-.35357567-2.69172751,0-1.03187899.15094461-2.0279725.43164561-2.96676735"/><path id="bp" class="cd" d="M25.86443661,14.24957424c3.30329496.59570759,6.0485529,2.82965754,7.39154693,5.84489121"/><path id="bq" class="cd" d="M19.30212,17.34371273c-2.15391172,1.53416574-3.55315028,4.07440445-3.56191607,6.94848113-.0042077,1.38303125.78480922,3.04807112.04783599,5.17758036"/><path id="br" class="cd" d="M20.98380078,16.4177103c.96154323-.39192551,2.01149799-.60758192,3.11106422-.60758192,3.28591019,0,6.25537893,1.86810158,7.48520463,4.73416416,1.16885276,2.72396009,1.26134182,5.91555682.877127,8.67879265"/><path id="bs" class="cd" d="M27.33699714,18.31284919c1.38266324.77477202,2.43753921,2.0409548,2.86835483,3.16070114,1.11295373,2.89270055,1.13656929,6.75026624.32457496,9.98995931"/><path id="bt" class="cd" d="M19.68145472,32.9353087c.88796776-1.83244921,1.20126935-3.231493,1.33054614-5.43700112.11554281-1.97115148-.58357682-3.49647705-.0498679-4.61811631.17423523-.36617038.2873879-.55307078.48037619-.79277145"/><path id="bu" class="cd" d="M23.06303886,20.96981501c.32562615-.10444169.67225653-.16075572,1.03182614-.16075572,1.08409201,0,2.08100181.48892078,2.67833414,1.3110218.40462592.55688403.49702689.92346157.64256091,1.5163699.78799705,3.21031848.28326535,6.88634347-.87744412,9.90084307"/><path id="bv" class="cd" d="M23.42401397,32.47244842c-.17286887.49060621-.36536975.96790909-.57477775,1.42773129"/><path id="bw" class="cd" d="M24.08070428,24.02865643c.486376,2.11159985.39062375,4.37934546-.09700702,6.51164612"/><path id="bx" class="cd" d="M26.10740243,27.18223805c.02044437-1.08297426-.1349262-2.15100088-.32609205-3.20308151-.19553308-1.07611314-.9238844-1.61105726-1.68644539-1.55575331-.84715144.06143491-1.81355324.74565387-1.60492434,1.98060436.47834233,2.83146727.29488913,6.42930878-1.36604191,9.19917279"/><path id="by" class="cd" d="M24.5498482,33.85067787c.64132571-1.40822653,1.1284397-2.98142333,1.37682199-4.59821809"/><path id="bz" class="cd" d="M28.72172948,22.41384268c1.0866779,3.34569882.81629305,7.20558614-.21475596,10.38226654"/><path id="ca" class="cd" d="M19.35181564,28.20811919c.29072156-2.37911497-.55244828-3.4276427-.23759634-5.03489453.45703664-2.33307207,2.54223343-4.06198397,4.98064765-4.06198397,1.49450828,0,2.83887453.65307085,3.77165587,1.69361971"/><path id="cb" class="cd" d="M18.19040538,31.99821493c.32099465-.5464563.56155077-1.11880085.74375311-1.71861141"/><path id="cc" class="cd" d="M16.88499189,30.92516727c.40447715-1.15646947.91514405-1.82130895.85519882-3.68654472-.05482435-1.70600888-.56712971-2.66797689-.22026443-4.36564476.63142456-3.0904006,3.34256287-5.4053695,6.57493872-5.4053695.49983397,0,.98692447.05540965,1.45563774.16051886"/></g></g></svg>