<svg xmlns="http://www.w3.org/2000/svg" viewBox="0 0 48 48"><defs><style>.a{fill:none;stroke:#000;stroke-linecap:round;stroke-linejoin:round;}</style></defs><line class="a" x1="19.338" y1="15.9075" x2="19.338" y2="22.8829"/><line class="a" x1="8.5084" y1="15.9075" x2="11.9943" y2="15.9075"/><line class="a" x1="8.5084" y1="19.3952" x2="10.7741" y2="19.3952"/><line class="a" x1="8.5084" y1="15.9075" x2="8.5084" y2="22.8829"/><path class="a" d="M21.69,22.8822v-6.974h2.2665a2.3538,2.3538,0,0,1,0,4.7075H21.69"/><path class="a" d="M24.1224,20.61l2.186,2.2712"/><path class="a" d="M17.0122,22.8811l-2.2674-6.9736-2.354,6.9754m.7858-2.3558h3.05"/><line class="a" x1="36.0824" y1="32.0908" x2="39.5" y2="32.0908"/><line class="a" x1="36.0824" y1="25.2573" x2="39.5" y2="25.2573"/><line class="a" x1="36.0824" y1="28.6749" x2="38.3025" y2="28.6749"/><line class="a" x1="36.0824" y1="25.2573" x2="36.0824" y2="32.0925"/><path class="a" d="M8.5,32.0908V25.2573h2.2219a2.3067,2.3067,0,1,1,0,4.6134H8.5"/><path class="a" d="M29.0533,32.0908V25.2573L33.58,32.0925V25.2573"/><path class="a" d="M15.32,25.2573v6.8352m4.5285-6.8352v6.8352M15.32,28.6749h4.5285"/><path class="a" d="M22.2215,29.7288a2.2639,2.2639,0,1,0,4.5269,0v-2.305a2.2972,2.2972,0,0,0-2.3067-2.3067,2.2255,2.2255,0,0,0-2.22,2.3067Z"/><path class="a" d="M40.5,5.5H7.5a2,2,0,0,0-2,2v33a2,2,0,0,0,2,2h33a2,2,0,0,0,2-2V7.5A2,2,0,0,0,40.5,5.5Z"/></svg>