<svg xmlns="http://www.w3.org/2000/svg" viewBox="0 0 48 48"><defs><style>.a{fill:none;stroke:#000;stroke-linecap:round;stroke-linejoin:round;}</style></defs><rect class="a" x="5.5" y="5.5" width="37" height="37" rx="2"/><polyline class="a" points="20.229 19.697 20.229 28.19 23.982 28.338"/><line class="a" x1="15.0502" y1="27.9865" x2="18.4422" y2="28.1201"/><line class="a" x1="15.0502" y1="19.9056" x2="18.4422" y2="19.7692"/><line class="a" x1="15.0502" y1="23.946" x2="17.2364" y2="23.9451"/><line class="a" x1="15.0502" y1="19.9056" x2="15.0502" y2="27.9865"/><line class="a" x1="25.9143" y1="28.4145" x2="30.086" y2="28.5789"/><line class="a" x1="25.9143" y1="19.4689" x2="30.086" y2="19.3013"/><line class="a" x1="25.9143" y1="23.9417" x2="28.5995" y2="23.9407"/><line class="a" x1="25.9143" y1="19.4689" x2="25.9143" y2="28.4145"/><line class="a" x1="9.5" y1="20.2045" x2="13.5506" y2="20.0449"/><line class="a" x1="11.4834" y1="27.9233" x2="11.4834" y2="20.1263"/><path class="a" d="M32.24,22.3447a3.2322,3.2322,0,0,1,3.05-3.2526,3.1131,3.1131,0,0,1,3.21,3.166,3.0751,3.0751,0,0,1-.9577,2.3254c-1.2989,1.1424-5.3023,4.08-5.3023,4.08l6.26.2466"/></svg>