<svg id="Layer_2" data-name="Layer 2" xmlns="http://www.w3.org/2000/svg" viewBox="0 0 48 48"><defs><style>.cls-1{fill:none;stroke:#000;stroke-linecap:round;stroke-linejoin:round;}</style></defs><path class="cls-1" d="M24,2.5A21.43,21.43,0,0,0,3.66,30.89c6.28.63,13.63-.25,13.73-11,.13-14.24,6-15.79,10.82-17A27.05,27.05,0,0,0,24,2.5Zm4.21.42c-3.68,5.13-6.62,11.94,2.65,17.41,12.31,7.25,10.66,13.1,9.28,17.84A22.54,22.54,0,0,0,45.5,24,21.5,21.5,0,0,0,28.21,2.92ZM24,20.85A3.15,3.15,0,0,0,20.85,24h0A3.15,3.15,0,0,0,24,27.15h0A3.15,3.15,0,0,0,27.15,24h0A3.15,3.15,0,0,0,24,20.85Zm6.64,8.88a13.32,13.32,0,0,0-6.89,2.05c-12.4,7-16.67,2.67-20.09-.89A22.09,22.09,0,0,0,24,45.5a21.5,21.5,0,0,0,16.14-7.33c-1.85-4.1-4.64-8.31-9.5-8.44Z"/></svg>