<?xml version="1.0" encoding="UTF-8"?><svg id="b" xmlns="http://www.w3.org/2000/svg" viewBox="0 0 48 48"><defs><style>.ah{fill:none;stroke:#000;stroke-linecap:round;stroke-linejoin:round;}</style></defs><circle id="c" class="ah" cx="24" cy="24" r="21.5"/><path id="d" class="ah" d="M17.0339,28.9651c1.6378,1.4591,3.13,2.9182,6.9662,4.3773,2.8691-1.1098,5.0333-2.7586,6.7197-4.1969"/><path id="e" class="ah" d="M20.9024,31.9114c.0094.0053-.4106,2.7955-2.968,3.6071-.6627.2103-1.926.8004-1.926.8004-3.5469,1.4741-2.5466,3.7932-3.5913,5.7942"/><path id="f" class="ah" d="M26.6137,32.1086c-.4366,2.252-.0221,4.0252,2.7266,4.4855,4.0987.6448,5.0603,3.1284,5.3278,6.0191"/><path id="g" class="ah" d="M29.3403,36.5941c.3155,2.6997,1.0308,5.3284-2.6473,8.7366-4.9499-3.6899-6.6514-8.0393-8.7586-9.8122"/><path id="h" class="ah" d="M17.0339,28.9651c-.3908-.6817.6294,5.4257.8504,6.0534.2755.7825-2.856-2.8054-3.0016-5.1529"/><path id="i" class="ah" d="M10.3304,17.7843c.1847-15.6843,26.3737-14.8221,26.761.2799"/><path id="j" class="ah" d="M13.532,18.3095c-1.2765-.8814-4.8714-1.7375-5.0526,3.5769-.251,7.3618,6.4033,7.9792,6.4033,7.9792-1.2031-3.8714-1.7789-7.7772-1.3507-11.556Z"/><path id="k" class="ah" d="M32.4731,30.3655c1.9117.0043,3.8355.1823,5.5183-3.1101.4316-.8444,1.3519-4.2541.9374-6.8095-.3784-2.3324-2.2625-2.9889-4.8462-2.3347,0,0-.2418,4.1495-.5129,6.2081-.2674,2.0307-1.0966,6.0461-1.0966,6.0461Z"/><path id="l" class="ah" d="M30.8658,27.8215c-.2712,2.7374-.6861,4.8562-.9573,8.1183,1.051-1.7306,2.397-3.2694,2.5646-5.5742"/><path id="m" class="ah" d="M18.7304,13.9196c-1.7029,2.2808-2.2186,5.0156-2.3269,7.906"/><path id="n" class="ah" d="M20.3576,14.2379c.3145,2.5056.7302,5.0467,1.415,7.5523-1.6251-2.2417-2.9154-4.6926-3.0421-7.8707"/><path id="o" class="ah" d="M25.0269,15.2815c1.1209,2.1301,2.4769,3.4541,3.9265,4.4571-.6658-1.4293-1.3555-2.8613-1.6095-4.2449"/><path id="p" class="ah" d="M20.3576,14.2379c1.2893,2.7052,2.7596,5.4009,5.0761,8.0521-.7131-2.4415-1.0101-4.8071-.4068-7.0086"/><path id="q" class="ah" d="M18.5182,27.45c-2.6658-1.571-3.2731-4.3428-3.7142-7.2116"/><path id="r" class="ah" d="M18.5182,27.45c-.7428.0914-1.4857-.1057-2.2285.4068l.7443,1.1082"/><path id="s" class="ah" d="M14.8039,20.2385l1.5995,1.5871"/><path id="t" class="ah" d="M30.8658,27.8215c-.786.2897-1.7202.1999-2.4076-.1061,3.5547-1.9205,5.3419-5.6454,2.2807-9.6696"/><path id="u" class="ah" d="M30.1143,14.1672l1.1054,6.8648c-.8337-.6073-1.6202-1.1082-2.2663-1.2935"/><path id="v" class="ah" d="M38.9288,20.446c1.8861,1.8015,4.1892,1.0859,4.6234,1.0859-.4136,2.2746-1.3515,2.8025-4.6234,2.4681"/><path id="w" class="ah" d="M38.7212,24.7875c.1473,1.0145,1.9196.7477,3.3028.7877-1.7124,1.3492-3.2368,2.2956-4.0326,1.6803"/><path id="x" class="ah" d="M36.8274,15.817c1.0178.87,3.4941.8467,3.5187.7111l-1.9172,2.4605"/><path id="y" class="ah" d="M20.5168,22.6038c-1.4694-.9007-3.1295-.3118-4.9131,1.2404"/><path id="z" class="ah" d="M27.167,22.7899c2.647-1.4657,3.3416.2657,4.8061,1.4976"/><path id="aa" class="ah" d="M37.9914,27.2555c-.0451.2197.95,1.189,2.0163,2.2096-1.1901.0637-2.2943-.0445-3.2958-.358"/><path id="ab" class="ah" d="M35.754,29.9826l.5734,3.5871-1.5903-1.2735-.6721,1.5461-1.0918-.874-1.4661.4269"/><path id="ac" class="ah" d="M8.472,20.2385c-1.5326,1.3955-2.6979,2.4951-4.6082,2.2873.7167.6406,1.4436,1.0217,3.6177,1.4743M7.4816,24c-.3739,1.1397-1.6209,1.1853-2.6353,1.5929.7165.5418,1.6148,1.0447,2.8966,1.1626-.3515.6303-1.1034,1.1717-1.8707,1.7096l2.1007-.05-.615,2.1655,3.3251-2.6306"/><path id="ad" class="ah" d="M10.3976,16.585c-.7016.4258-1.9889,1.0466-2.8186.9249.1082,2.0149.5735,2.1454.8931,2.7285"/><path id="ae" class="ah" d="M17.8783,22.4005c.182,1.8168.0517,3.2552,1.1399,3.1826.9587-.064.6272-1.2388.6319-3.2574"/><path id="af" class="ah" d="M28.4534,22.29c-.6561,2.0542-.4309,3.1977.1792,3.3462.8151.1984,1.1964-.7754,1.4539-3.0643"/><path id="ag" class="ah" d="M11.455,17.6528c2.8489-14.7965,23.713-11.0046,24.299.202"/></svg>