<?xml version="1.0" encoding="UTF-8"?><svg id="a" xmlns="http://www.w3.org/2000/svg" viewBox="0 0 48 48"><defs><style>.c{fill:#000;}.d{fill:none;stroke:#000;stroke-linecap:round;stroke-linejoin:round;}</style></defs><g id="b"><path class="d" d="M30.3088,35.8331h0c-.9016,0-1.6325-.7309-1.6325-1.6325v-1.0611c0-.9016.7309-1.6325,1.6325-1.6325h0c.9016,0,1.6325.7309,1.6325,1.6325v1.0611c0,.9016-.7309,1.6325-1.6325,1.6325Z"/><path class="d" d="M14.6765,35.8331h0c-.9016,0-1.6325-.7309-1.6325-1.6325v-1.0611c0-.9016.7309-1.6325,1.6325-1.6325h0c.9016,0,1.6325.7309,1.6325,1.6325v1.0611c0,.9016-.7309,1.6325-1.6325,1.6325Z"/><path class="d" d="M19.7678,31.5068v2.6936c0,.9016.7309,1.6325,1.6325,1.6325s1.6325-.7309,1.6325-1.6325v-2.6936"/><line class="d" x1="23.0328" y1="34.2004" x2="23.0328" y2="35.8329"/><circle class="c" cx="27.3099" cy="29.507" r=".75"/><line class="d" x1="27.3099" y1="31.5068" x2="27.3099" y2="35.8329"/><path class="d" d="M7.6467,35.1179c.4004.5213.9025.7155,1.6011.7155h.9668c.8997,0,1.629-.7293,1.629-1.629v-.007c0-.8997-.7293-1.629-1.629-1.629h-1.0664c-.9006,0-1.6307-.7301-1.6307-1.6307h0c0-.9026.7317-1.6343,1.6343-1.6343h.9615c.6985,0,1.2006.1942,1.6011.7155"/><path class="d" d="M37.717,35.468c.2981.2503.6199.365,1.3426.365h.3662c.596,0,1.0791-.4842,1.0791-1.0815h0c0-.5973-.4832-1.0815-1.0791-1.0815h-.7325c-.596,0-1.0791-.4842-1.0791-1.0815h0c0-.5973.4832-1.0815,1.0791-1.0815h.3662c.7227,0,1.0445.1147,1.3426.365"/><line class="d" x1="25.0897" y1="30.16" x2="25.0897" y2="35.8329"/><line class="d" x1="24.2327" y1="31.5068" x2="25.9468" y2="31.5068"/><path class="d" d="M17.5093,29.303v5.7137c0,.4508.3654.8162.8162.8162h.2449"/><path class="d" d="M36.411,35.8329v-2.6936c0-.9016-.7309-1.6325-1.6325-1.6325s-1.6325.7309-1.6325,1.6325"/><line class="d" x1="33.146" y1="35.8329" x2="33.146" y2="31.5068"/><path class="d" d="M28.6223,18.703v-6.5299h2.1377c1.2085,0,2.1883.9819,2.1883,2.193s-.9797,2.193-2.1883,2.193h-2.1377"/><line class="d" x1="30.7608" y1="16.5596" x2="32.8993" y2="18.7014"/><line class="d" x1="35.9276" y1="12.1731" x2="40.2537" y2="12.1731"/><line class="d" x1="38.0906" y1="18.703" x2="38.0906" y2="12.1731"/><polyline class="d" points="7.7592 18.703 7.7592 12.1731 12.0852 18.703 12.0852 12.1731"/><path class="d" d="M19.3938,16.5131v.0267c0,1.1946-.9684,2.163-2.163,2.163s-2.163-.9684-2.163-2.163v-2.2038c0-1.1946.9684-2.163,2.163-2.163h0c1.1946,0,2.163.9684,2.163,2.163v.0267"/><line class="d" x1="22.3756" y1="15.4381" x2="24.5043" y2="15.4381"/><polyline class="d" points="25.6405 18.703 22.3756 18.703 22.3756 12.1731 25.6405 12.1731"/><path class="d" d="M15.1772,27.2426c-.9016,0-1.6325-.7309-1.6325-1.6325v-1.0611c0-.9016.7309-1.6325,1.6325-1.6325s1.6325.7309,1.6325,1.6325v1.0611c0,.9016-.7309,1.6325-1.6325,1.6325Z"/><path class="d" d="M19.9007,27.2426h0c-.9016,0-1.6325-.7309-1.6325-1.6325v-1.0611c0-.9016.7309-1.6325,1.6325-1.6325h0c.9016,0,1.6325.7309,1.6325,1.6325v1.0611c0,.9016-.7309,1.6325-1.6325,1.6325Z"/><line class="d" x1="22.9943" y1="20.7127" x2="22.9943" y2="27.2426"/><line class="d" x1="22.9943" y1="25.8558" x2="25.9491" y2="22.9141"/><line class="d" x1="23.933" y1="24.9196" x2="26.2592" y2="27.2328"/><path class="d" d="M27.8183,26.8777c.2981.2503.6199.365,1.3426.365h.3662c.596,0,1.0791-.4842,1.0791-1.0815s-.4832-1.0815-1.0791-1.0815h-.7325c-.596,0-1.0791-.4842-1.0791-1.0815h0c0-.5973.4832-1.0815,1.0791-1.0815h.3662c.7227,0,1.0445.1147,1.3426.365"/><path class="d" d="M10.4544,23.9776c.9016,0,1.6325.7309,1.6325,1.6325s-.7309,1.6325-1.6325,1.6325h-2.6936v-6.5299h2.6936c.9016,0,1.6325.7309,1.6325,1.6325s-.7309,1.6325-1.6325,1.6325Z"/><line class="d" x1="10.4544" y1="23.9776" x2="7.7608" y2="23.9776"/><path class="d" d="M40.2537,27.2932h-.5518c-.3655,0-.709-.1749-.9241-.4705l-2.2648-3.1133c-.2911-.3821-.803-.8852-.803-1.6306,0-.7037.5715-1.3155,1.3665-1.3155.7743,0,1.3233.6118,1.3233,1.3155,0,.7452-.6038,1.3824-1.7197,1.594-1.244.236-2.0215.9185-2.0215,2.0437,0,.9097.5735,1.5766,1.7198,1.5766,1.507,0,2.394-1.429,3.7039-3.1852"/></g><rect class="d" x="4.5" y="8.5" width="39" height="31" rx="4" ry="4"/></svg>