<svg xmlns="http://www.w3.org/2000/svg" viewBox="0 0 48 48"><defs><style>.a{fill:none;stroke:#000;stroke-linecap:round;stroke-linejoin:round;}</style></defs><path class="a" d="M5.5008,24.06c-.035-1.0444,1.1408-1.8476,2.835-1.1532l1.7058-1.73s-.9862-1.8068.12-2.4507c1.5663-.9116,4.8531,2.4507,4.8531,2.4507l1.85-1.874S12.97,15.7479,14.51,14.2078c1.111-1.111,2.6188.4342,2.6188.4342L18.907,12.84s-1.3785-1.5527-.4325-2.4987c.9441-.9441,2.7148,0,2.7148,0L22.751,8.5634s-1.2943-2.9552,1.1773-2.9552c2.1572,0,1.0331,2.9312,1.0331,2.9312l1.7057,1.73s1.6548-1.0931,2.5948,0c.7331.8526-.36,2.3785-.36,2.3785l1.826,1.9462s1.9291-1.1619,2.6668-.0721c1.1225,1.6582-1.826,4.2285-1.826,4.2285l1.6819,1.802s2.4168-2.9883,4.18-1.97c1.3159.76.2883,2.5468.2883,2.5468l1.73,1.7058S42.5,22.2146,42.5,24.06c0,2.4626-3.1954.985-3.1954.985l-1.73,1.6818s.9191,1.7362.0481,2.5468c-.9219.8579-2.6429-.24-2.6429-.24l-1.97,1.73s1.59,1.7436.48,2.6428c-1.53,1.24-4.2285-1.73-4.2285-1.73l-1.97,1.922s3.0193,2.35,2.0182,4.0844c-.6306,1.0923-2.5227.1922-2.5227.1922l-1.56,1.5136s.5965,3.0033-1.1785,3.0033c-2.1636,0-1.5857-3.0033-1.5857-3.0033l-1.4176-1.5377s-1.8748,1.14-2.5467-.024C17.4,35.9243,20.997,32.9255,20.997,32.9255l-1.898-1.874s-2.7336,3.6728-4.6369,2.4746c-1.3477-.8483.12-2.7869.12-2.7869l-1.7058-1.73s-1.5962,1.359-2.6428.3123c-.9546-.9545-.0721-2.5707-.0721-2.5707L8.48,25.0451S5.5712,26.167,5.5006,24.06Z"/><path class="a" d="M21.641,19.062h4.7174a2.5794,2.5794,0,0,1,2.5794,2.5794v4.7174a2.5793,2.5793,0,0,1-2.5793,2.5793H21.6411a2.5794,2.5794,0,0,1-2.5794-2.5794V21.6413A2.5793,2.5793,0,0,1,21.641,19.062Z" transform="translate(-9.9412 23.9996) rotate(-44.9996)"/></svg>