<?xml version="1.0" encoding="UTF-8"?><svg id="a" xmlns="http://www.w3.org/2000/svg" viewBox="0 0 48 48"><defs><style>.b{stroke-width:1px;}.b,.c{fill:none;stroke:#000;stroke-linecap:round;stroke-linejoin:round;}.d{fill:#000;stroke-width:0px;}</style></defs><path class="c" d="m40.5,5.5H7.5c-1.1046,0-2,.8954-2,2v33c0,1.1046.8954,2,2,2h33c1.1046,0,2-.8954,2-2V7.5c0-1.1046-.8954-2-2-2Z"/><polyline class="c" points="21.3515 21.8124 21.3515 13.8124 26.6515 21.8124 26.6515 13.8124"/><path class="c" d="m29.3685,21.8124v-8h1.8c1.9,0,3.5,1.6,3.5,3.5v1c0,1.9-1.6,3.5-3.5,3.5h-1.8Z"/><polyline class="c" points="13.3315 21.8124 13.3315 13.8124 18.6315 21.8124 18.6315 13.8124"/><polyline class="b" points="25.7256 27.778 25.7256 34.1871 28.9302 34.1871"/><polyline class="b" points="20.0329 27.778 24.1988 27.778 20.0329 34.1871 24.1988 34.1871"/><path class="b" d="m8.5801,33.4661c.4006.4807.8813.721,1.6023.721h.9614c.8813,0,1.6023-.721,1.6023-1.6023h0c0-.8813-.721-1.6023-1.6023-1.6023h-1.0415c-.8813,0-1.6023-.721-1.6023-1.6023h0c0-.8813.721-1.6023,1.6023-1.6023h.9614c.721,0,1.2017.1602,1.6023.721"/><path class="c" d="m30.4476,27.7784v4.246c0,1.2017.9614,2.1631,2.083,2.1631s2.083-.9614,2.083-2.1631v-4.246"/><path class="c" d="m16.3481,34.1876h0c-1.2017,0-2.083-.9614-2.083-2.083v-2.1631c0-1.2017.9614-2.1631,2.083-2.1631h0c1.2017,0,2.1631.9614,2.1631,2.1631v2.083c0,1.2017-.9614,2.1631-2.1631,2.1631Z"/><line class="b" x1="36.1352" y1="27.778" x2="36.1352" y2="34.1871"/><line class="b" x1="36.1352" y1="31.944" x2="39.5" y2="27.778"/><line class="b" x1="39.5" y1="34.1871" x2="36.9363" y2="30.9826"/><circle class="d" cx="33.6487" cy="26.1627" r=".75"/><circle class="d" cx="31.4055" cy="26.1627" r=".75"/><circle class="d" cx="17.5051" cy="26.1627" r=".75"/><circle class="d" cx="15.2619" cy="26.1627" r=".75"/></svg>