<svg xmlns="http://www.w3.org/2000/svg" viewBox="0 0 48 48"><defs><style>.a{fill:none;stroke:#000;stroke-linecap:round;stroke-linejoin:round;}</style></defs><path class="a" d="M9.5742,24.5787c0,.0207-4.8629-1.5138-4.8629-1.5138"/><path class="a" d="M9.5742,27.5532H4.5"/><path class="a" d="M9.5742,30.7108,4.7287,32.1333"/><path class="a" d="M13.9265,25.0112s5.0408-3.9859,8.9.5064"/><path class="a" d="M24,16.3315c4.1,0,8.7947-2.1895,12.3757-3.4486s2.9713.64,2.54,1.61a20.0459,20.0459,0,0,0-.5343,4.3456l.0447,15.2985a1.3949,1.3949,0,0,1-1.398,1.3979H10.9722a1.3935,1.3935,0,0,1-1.398-1.3979l.0447-15.2985a20.0459,20.0459,0,0,0-.5343-4.3456c-.4316-.9694-1.0414-2.8686,2.54-1.61S19.9,16.3315,24,16.3315"/><path class="a" d="M38.4258,24.5787c0,.0207,4.8629-1.5138,4.8629-1.5138"/><path class="a" d="M38.4258,27.5532H43.5"/><path class="a" d="M38.4258,30.7108l4.8455,1.4226"/></svg>