<svg xmlns="http://www.w3.org/2000/svg" viewBox="0 0 48 48"><defs><style>.a{fill:none;stroke:#000;stroke-linecap:round;stroke-linejoin:round;}</style></defs><path class="a" d="M37.5971,4.5274c1.0258,3.6294.63,5.9825-.6617,8.4452-.227.4229-5.9159-2.4274-5.63-2.78C34.07,8.4153,34.9387,7.39,37.5971,4.5274ZM10.4057,4.5c-1.03,3.6294-.6343,5.9825.6617,8.4452.227.4229,5.9159-2.4314,5.6262-2.78C13.9333,8.3878,13.06,7.3621,10.4057,4.5Z"/><path class="a" d="M29.1871,20.9245a6.7991,6.7991,0,1,1-6.9417-6.7969A6.9668,6.9668,0,0,1,29.1871,20.9245ZM31.09,37.5134c0,3.29-3.7593,5.9637-8.4178,5.9864s-8.4684-2.6115-8.5353-5.9c-.065-3.2891,3.64-5.9991,8.2964-6.0687S30.957,34.2258,31.09,37.5134Z"/><path class="a" d="M17.1853,25.2973c-2.2787,2.0985-2.267,4.8364,0,7.62M32.9928,15.404a45.1788,45.1788,0,0,0-10.5556-1.2779"/></svg>