<?xml version="1.0" encoding="UTF-8"?><svg id="a" xmlns="http://www.w3.org/2000/svg" viewBox="0 0 48 48"><defs><style>.r{fill:none;stroke:#000;stroke-linecap:round;stroke-linejoin:round;}</style></defs><circle id="b" class="r" cx="24" cy="24" r="21.5"/><rect id="c" class="r" x="13.5245" y="10.2777" width="3" height="3"/><rect id="d" class="r" x="9.8995" y="16.9485" width="3" height="3"/><circle id="e" class="r" cx="32.8777" cy="15.2014" r="3"/><circle id="f" class="r" cx="32.8777" cy="15.2014" r="6"/><path id="g" class="r" d="M28.5626,11.0324l4.34,4.0378-4.2324,4.4086"/><path id="h" class="r" d="M16.1686,35.9809c-1.1792,.4526-2.5138,.1811-3.4223-.6963s-1.2265-2.2017-.8153-3.396"/><path id="i" class="r" d="M16.2514,38.8156c-1.9873,.4224-4.0535-.1896-5.4901-1.6262-1.4367-1.4367-2.0487-3.5028-1.6262-5.4901"/><path id="j" class="r" d="M13.9996,29.8558c1.1623-.3777,2.4382-.0713,3.3024,.7928,.8642,.8642,1.1705,2.1401,.7928,3.3024"/><path id="k" class="r" d="M13.8591,27.057c1.9762-.3841,4.0133,.2484,5.4244,1.6843s2.0079,3.4837,1.5894,5.4529"/><circle id="l" class="r" cx="15.0039" cy="32.9468" r="1"/><rect id="m" class="r" x="17.1495" y="16.9485" width="3" height="3"/><path id="n" class="r" d="M11.3995,16.9485v-2.0771h7.2725v2.0771"/><path id="o" class="r" d="M15.0245,13.2777v1.5936"/><path id="p" class="r" d="M24,2.5V45.5"/><path id="q" class="r" d="M45.5,24H2.5"/><g><polyline class="r" points="28.5626 35.5974 31.0879 38.1227 33.6133 35.5974"/><line class="r" x1="31.0879" y1="38.0915" x2="31.0879" y2="30.3797"/><polyline class="r" points="38.6639 30.2961 36.1386 27.7708 33.6133 30.2961"/><line class="r" x1="36.1386" y1="27.802" x2="36.1386" y2="35.5139"/></g></svg>