<svg xmlns="http://www.w3.org/2000/svg" viewBox="0 0 48 48"><defs><style>.a{fill:none;stroke:#000;stroke-linecap:round;stroke-linejoin:round;}</style></defs><path class="a" d="M17.2715,8.9334,37.0677,37.5523a4.3038,4.3038,0,0,1,.6954,1.683c-.0081.6233-1.5413,1.9634-1.5413,1.9634l-20.1291-.03s-.7939-.3732-.8977-.7488c-.0958-.3467.819-1.415.819-1.415l1.7376-1.7132-.2944-13.6388s-.1507-1.24-.5919-1.5982a1.6543,1.6543,0,0,0-1.4825-.22c-.9352.3076-2.0938,2.0832-2.0938,2.0832l-.3878-1.0418-.8481.894-.18-2.4017-1.5378-.1525.0226,2.7641-.781-.4486-.8078,1.5963-.1334-1.7687L6.9446,24.8767l.0447-2.4993L5.5,17.82l5.083-1.952L9.4589,14.6159l2.1675.6935-.492-1.1583,2.0785.8416-.0277-1.204,1.0566.9571,1.1046-1.0164-.3936-3.3785,2.3745,2.4713Z"/><path class="a" d="M10.357,23.9794,10.39,26.313l-4.0918.0483-.2269,8.07a3.0147,3.0147,0,0,0,.2784.5915,6.1693,6.1693,0,0,0,.6387.6556l7.8795-.0276a3.4783,3.4783,0,0,0,.9577-.414,2.6213,2.6213,0,0,0,.4348-.6553L16.2435,26.29,12.13,26.264,12.0523,23.77"/><path class="a" d="M6.41,28.1413l9.614-.009"/><path class="a" d="M9.8871,28.2955,15.6817,35.18"/><path class="a" d="M6.41,28.1413l6.3651,7.5153"/><path class="a" d="M12.972,28.2287l3.2633,3.8048"/><path class="a" d="M6.1829,31.4292l3.4976,4.2094"/><path class="a" d="M9.8871,28.2955,6.183,31.43"/><path class="a" d="M12.972,28.2287l-6.5044,6.58"/><path class="a" d="M16.0243,28.1315,8.8915,35.572"/><path class="a" d="M16.2432,31.4,12.154,35.6349"/><path class="a" d="M10.39,26.3137l1.74-.0491"/><line class="a" x1="34.2459" y1="6.8013" x2="34.2459" y2="23.3095"/><line class="a" x1="42.5" y1="15.0554" x2="27.6377" y2="15.0554"/></svg>