<svg xmlns="http://www.w3.org/2000/svg" viewBox="0 0 48 48"><defs><style>.a{fill:none;stroke:#000;stroke-linecap:round;stroke-linejoin:round;}</style></defs><polyline class="a" points="4.459 41.03 43.459 24 4.459 6.97"/><path class="a" d="M42.3862,36.247a3.5123,3.5123,0,0,0,0-.9779l1.0586-.8288a.2446.2446,0,0,0,.0611-.32l-1.0024-1.7383a.2445.2445,0,0,0-.3056-.1076l-1.2493.5037a3.8346,3.8346,0,0,0-.8459-.489l-.1883-1.3275a.2446.2446,0,0,0-.2445-.21H37.66a.2446.2446,0,0,0-.2445.21l-.1882,1.3275a3.75,3.75,0,0,0-.8459.489l-1.2542-.5037a.2445.2445,0,0,0-.3056.1076L33.8194,34.12a.2445.2445,0,0,0,.0611.32l1.0562.8288a4.0782,4.0782,0,0,0-.0342.4889,4.0375,4.0375,0,0,0,.0342.489l-1.0562.8288a.2445.2445,0,0,0-.0611.32l1.0024,1.7383a.2444.2444,0,0,0,.3056.1075l1.2493-.5036a3.834,3.834,0,0,0,.8459.489l.1882,1.3275a.2445.2445,0,0,0,.2445.21H39.66a.2445.2445,0,0,0,.2445-.21l.1883-1.3275a3.76,3.76,0,0,0,.8459-.489l1.2493.5036a.2444.2444,0,0,0,.3056-.1075l1.0024-1.7383a.2446.2446,0,0,0-.0612-.32Z"/></svg>