<?xml version="1.0" encoding="UTF-8"?><svg id="b" xmlns="http://www.w3.org/2000/svg" viewBox="0 0 48 48"><defs><style>.j{fill:none;stroke:#000;stroke-linecap:round;stroke-linejoin:round;}</style></defs><g id="c"><path id="d" class="j" d="M3.3453,35.8098L8.8984,5.0016l1.103,32.6339L17.4563,5.0396"/><path id="e" class="j" d="M19.7383,7.5119l10.1173-.4184"/><path id="f" class="j" d="M25.0252,7.3978l-1.3312,31.5309"/><path id="g" class="j" d="M29.0569,41.439l4.7163-36.8558"/><path id="h" class="j" d="M32.2518,18.1236l9.5848,25.2932"/><path id="i" class="j" d="M33.9254,5.496c2.3962-.0887,4.7924-.1775,6.5483.0507,1.756.2282,2.8716.7734,3.4929,1.6418s.748,2.0602.6656,3.1886c-.0824,1.1284-.374,2.1933-1.3376,3.2076-.9636,1.0143-2.599,1.9778-4.5262,2.8019-1.9271.8241-4.1458,1.5087-6.3645,2.1933"/></g></svg>