<svg xmlns="http://www.w3.org/2000/svg" viewBox="0 0 48 48"><defs><style>.a{fill:none;stroke:#000;stroke-linecap:round;stroke-linejoin:round;}</style></defs><path class="a" d="M11.86,14.47h3.82a.49.49,0,0,1,.47.4l.36,2.53a7,7,0,0,1,1.61.94l2.37-1a.47.47,0,0,1,.58.2L23,20.88a.48.48,0,0,1-.12.61l-2,1.58a7.24,7.24,0,0,1,0,1.86l2,1.58a.47.47,0,0,1,.11.61l-1.9,3.3a.47.47,0,0,1-.58.2l-2.38-1a6.66,6.66,0,0,1-1.61.94l-.35,2.53a.49.49,0,0,1-.47.4H11.86a.48.48,0,0,1-.47-.4L11,30.6a6.86,6.86,0,0,1-1.62-.94l-2.37,1a.47.47,0,0,1-.58-.2l-1.91-3.3a.49.49,0,0,1,.12-.61l2-1.58a6.21,6.21,0,0,1,0-1.86l-2-1.58a.49.49,0,0,1-.12-.61l1.91-3.3a.47.47,0,0,1,.58-.2l2.37,1A6.91,6.91,0,0,1,11,17.4l.35-2.53a.48.48,0,0,1,.47-.4Zm1.91,6.19A3.34,3.34,0,1,0,17.1,24,3.34,3.34,0,0,0,13.77,20.66Z"/><path class="a" d="M36.07,9.29h0a18.28,18.28,0,0,1,0,29.42m-4-24.16a11.84,11.84,0,0,1,5,9.45,11.84,11.84,0,0,1-5,9.45m-3.68-14a5.67,5.67,0,0,1,0,9.1"/></svg>