<?xml version="1.0" encoding="UTF-8"?><svg id="a" xmlns="http://www.w3.org/2000/svg" viewBox="0 0 48 48"><defs><style>.b{fill:none;stroke:#000;stroke-linecap:round;stroke-linejoin:round;}</style></defs><path class="b" d="M26.7354,10.3872c-6.1755-.3877-6.5632,6.0093-5.4278,8.1694,3.9601,0,6.7571-2.8801,5.4278-8.1694Z"/><line class="b" x1="14.6418" y1="34.103" x2="14.6418" y2="23.6389"/><polyline class="b" points="19.3747 23.6389 19.3747 35.1714 14.6418 23.6389 13.7199 23.6389"/><polyline class="b" points="23.7695 35.8571 23.7695 23.6389 27.1962 23.6389 27.2884 25.1832"/><line class="b" x1="30.6844" y1="23.3981" x2="30.6844" y2="34.3471"/><polyline class="b" points="29.0248 34.9255 34.4031 33.0508 34.4031 30.8688"/><line class="b" x1="22.4173" y1="35.6247" x2="24.9988" y2="36.0895"/><line class="b" x1="18.4527" y1="23.6389" x2="20.2967" y2="23.6389"/><line class="b" x1="29.7624" y1="23.3981" x2="31.6064" y2="23.3981"/><line class="b" x1="13.4125" y1="33.8264" x2="15.8712" y2="34.3796"/><line class="b" x1="23.7695" y1="28.318" x2="26.4817" y2="28.2949"/><line class="b" x1="26.4817" y1="29.1708" x2="26.4817" y2="27.419"/><line class="b" x1="13.3472" y1="13.3356" x2="13.3472" y2="12.068"/><line class="b" x1="14.5528" y1="12.9439" x2="13.3472" y2="13.3356"/><line class="b" x1="14.0923" y1="14.3611" x2="13.3472" y2="13.3356"/><line class="b" x1="12.6021" y1="14.3611" x2="13.3472" y2="13.3356"/><line class="b" x1="12.1416" y1="12.9439" x2="13.3472" y2="13.3356"/><line class="b" x1="18.0588" y1="13.3356" x2="18.0588" y2="12.068"/><line class="b" x1="19.2643" y1="12.9439" x2="18.0588" y2="13.3356"/><line class="b" x1="18.8038" y1="14.3611" x2="18.0588" y2="13.3356"/><line class="b" x1="17.3137" y1="14.3611" x2="18.0588" y2="13.3356"/><line class="b" x1="16.8532" y1="12.9439" x2="18.0588" y2="13.3356"/><line class="b" x1="13.3472" y1="17.5221" x2="13.3472" y2="16.2545"/><line class="b" x1="14.5528" y1="17.1304" x2="13.3472" y2="17.5221"/><line class="b" x1="14.0923" y1="18.5477" x2="13.3472" y2="17.5221"/><line class="b" x1="12.6021" y1="18.5477" x2="13.3472" y2="17.5221"/><line class="b" x1="12.1416" y1="17.1304" x2="13.3472" y2="17.5221"/><line class="b" x1="18.0588" y1="17.5221" x2="18.0588" y2="16.2545"/><line class="b" x1="19.2643" y1="17.1304" x2="18.0588" y2="17.5221"/><line class="b" x1="18.8038" y1="18.5477" x2="18.0588" y2="17.5221"/><line class="b" x1="17.3137" y1="18.5477" x2="18.0588" y2="17.5221"/><line class="b" x1="16.8532" y1="17.1304" x2="18.0588" y2="17.5221"/><path class="b" d="M24,4.5c2.0745,4.94,8.2518,7.4374,14.0603,3.9953v24.7092c0,7.0378-13,3.6572-14.0603,10.2955-1.0603-6.6383-14.0603-3.2577-14.0603-10.2955V8.4953c5.8085,3.4421,11.9858.9447,14.0603-3.9953Z"/><polyline class="b" points="38.0603 21.2494 24 21.2494 9.9397 21.2494"/><line class="b" x1="34.6528" y1="13.3356" x2="34.6528" y2="12.068"/><line class="b" x1="33.4472" y1="12.9439" x2="34.6528" y2="13.3356"/><line class="b" x1="33.9077" y1="14.3611" x2="34.6528" y2="13.3356"/><line class="b" x1="35.3979" y1="14.3611" x2="34.6528" y2="13.3356"/><line class="b" x1="35.8584" y1="12.9439" x2="34.6528" y2="13.3356"/><line class="b" x1="29.9412" y1="13.3356" x2="29.9412" y2="12.068"/><line class="b" x1="28.7357" y1="12.9439" x2="29.9412" y2="13.3356"/><line class="b" x1="29.1962" y1="14.3611" x2="29.9412" y2="13.3356"/><line class="b" x1="30.6863" y1="14.3611" x2="29.9412" y2="13.3356"/><line class="b" x1="31.1468" y1="12.9439" x2="29.9412" y2="13.3356"/><line class="b" x1="34.6528" y1="17.5221" x2="34.6528" y2="16.2545"/><line class="b" x1="33.4472" y1="17.1304" x2="34.6528" y2="17.5221"/><line class="b" x1="33.9077" y1="18.5477" x2="34.6528" y2="17.5221"/><line class="b" x1="35.3979" y1="18.5477" x2="34.6528" y2="17.5221"/><line class="b" x1="35.8584" y1="17.1304" x2="34.6528" y2="17.5221"/><line class="b" x1="29.9412" y1="17.5221" x2="29.9412" y2="16.2545"/><line class="b" x1="28.7357" y1="17.1304" x2="29.9412" y2="17.5221"/><line class="b" x1="29.1962" y1="18.5477" x2="29.9412" y2="17.5221"/><line class="b" x1="30.6863" y1="18.5477" x2="29.9412" y2="17.5221"/><line class="b" x1="31.1468" y1="17.1304" x2="29.9412" y2="17.5221"/></svg>