<?xml version="1.0" encoding="UTF-8"?><svg id="b" xmlns="http://www.w3.org/2000/svg" viewBox="0 0 48 48"><defs><style>.c{fill:none;stroke:#000;}</style></defs><circle class="c" cx="12.8328" cy="24.0187" r="3.7399"/><path class="c" d="m20.7261,35.5666c-.9419,0-1.8843-.3583-2.6043-1.075-1.4456-1.4389-1.4511-3.7764-.0128-5.222,1.3979-1.4045,2.1678-3.2694,2.1678-5.2508,0-1.972-.7733-3.8402-2.1767-5.2603-1.4334-1.45-1.4195-3.7881.0305-5.2214,1.4494-1.4328,3.7875-1.42,5.2214.0305,2.7791,2.8112,4.309,6.5228,4.309,10.4512,0,3.9473-1.5332,7.6627-4.3178,10.4606-.7217.7244-1.6691,1.0872-2.6171,1.0872Z"/><path class="c" d="m28.6972,43.5c-.9419,0-1.8838-.3583-2.6049-1.075-1.445-1.4389-1.4506-3.7764-.0122-5.222,3.5102-3.5257,5.4428-8.2085,5.4428-13.1843,0-4.9924-1.9437-9.6863-5.4738-13.2159-1.4422-1.4422-1.4422-3.7798,0-5.222,1.4422-1.4411,3.7787-1.4411,5.2209,0,4.9247,4.9252,7.6372,11.473,7.6372,18.4379,0,6.9416-2.697,13.4738-7.5928,18.3941-.7222.7244-1.6697,1.0872-2.6171,1.0872Z"/></svg>