<?xml version="1.0" encoding="UTF-8"?><svg id="b" xmlns="http://www.w3.org/2000/svg" viewBox="0 0 48 48"><defs><style>.c{fill:none;stroke:#000;stroke-linecap:round;stroke-linejoin:round;}</style></defs><path class="c" d="m7.5,42.5h33c1.1046,0,2-.8954,2-2V7.5c0-1.1046-.8954-2-2-2H7.5c-1.1046,0-2,.8954-2,2v33c0,1.1046.8954,2,2,2Z"/><g><polyline class="c" points="31.389 18.5 31.389 29.5 36.889 29.5"/><polyline class="c" points="11.111 29.5 11.111 18.5 18.3985 29.5 18.3985 18.5"/><path class="c" d="m28.6063,22.1438c0-2.0124-1.6314-3.6437-3.6437-3.6437h0c-2.0124,0-3.6437,1.6314-3.6437,3.6437v3.7125c0,2.0124,1.6314,3.6437,3.6437,3.6437h0c2.0124,0,3.6437-1.6314,3.6437-3.6437h-3.6438"/></g></svg>