<?xml version="1.0" encoding="UTF-8"?><svg id="a" xmlns="http://www.w3.org/2000/svg" viewBox="0 0 48 48"><defs><style>.i{fill:none;stroke:#000;stroke-linecap:round;stroke-linejoin:round;}</style></defs><path id="b" class="i" d="M26.2919,9.4375c0,2.7269-2.2137,4.9375-4.9443,4.9375-2.7307,0-4.9443-2.2106-4.9443-4.9375h0c0-2.7269,2.2137-4.9375,4.9443-4.9375h0c2.7307,0,4.9443,2.2106,4.9443,4.9375Z"/><path id="c" class="i" d="M10.758,20.3097h16.9803c5.265,0,9.5037,4.2328,9.5037,9.4906v4.2092c0,5.2578-4.2386,9.4906-9.5037,9.4906H10.758"/><path id="d" class="i" d="M21.3476,14.3745v5.9339"/><g id="e"><path id="f" class="i" d="M28.706,27.2065c.9478,0,1.7108.7619,1.7108,1.7084s-.763,1.7084-1.7108,1.7084-1.7108-.7619-1.7108-1.7084.763-1.7084,1.7108-1.7084Z"/><path id="g" class="i" d="M23.3251,37.0586h-4.5293l2.2646-2.5557,2.2646,2.5557Z"/><path id="h" class="i" d="M13.1601,29.4629c.9478,0,1.7108.7619,1.7108,1.7084s-.763,1.7084-1.7108,1.7084-1.7108-.7619-1.7108-1.7084.763-1.7084,1.7108-1.7084Z"/></g></svg>