<svg xmlns="http://www.w3.org/2000/svg" viewBox="0 0 48 48"><defs><style>.a{fill:none;stroke:#000;stroke-linecap:round;stroke-linejoin:round;}</style></defs><path class="a" d="M24,30.0812a68.0266,68.0266,0,0,1-9.46-.558"/><path class="a" d="M16.1071,29.7124l-.0185,1.8318A54.48,54.48,0,0,0,24,32.036a54.48,54.48,0,0,0,7.9115-.4918l.0058-1.8343"/><path class="a" d="M24,32.0362v1.8251H17.2364"/><path class="a" d="M24,30.0812a68.0271,68.0271,0,0,0,9.46-.558"/><path class="a" d="M24,33.8613h6.7637"/><path class="a" d="M19.163,24.883a5.9268,5.9268,0,1,1,9.5.2331"/><path class="a" d="M12.811,31.215l-7.2657,6.72m36.959.0263L35.22,31.215m-3.5527-3.291-7.6445-7.08-7.6543,7.08"/><path class="a" d="M18.946,31.856V42.5"/><path class="a" d="M29.054,31.856V42.5"/><path class="a" d="M40.5,5.5H7.5a2,2,0,0,0-2,2v33a2,2,0,0,0,2,2h33a2,2,0,0,0,2-2V7.5A2,2,0,0,0,40.5,5.5Z"/></svg>