<?xml version="1.0" encoding="UTF-8"?><svg id="a" xmlns="http://www.w3.org/2000/svg" viewBox="0 0 48 48"><defs><style>.ax{fill:none;stroke:#000;stroke-linecap:round;stroke-linejoin:round;}</style></defs><g id="e"><path id="f" class="ax" d="M9.5,5.5h29c2.2159996,0,4,1.78399992,4,4v29c0,2.2159996-1.7840004,4-4,4H9.5c-2.21600008,0-4-1.7840004-4-4V9.5c0-2.21600008,1.78399992-4,4-4Z"/><g id="g"><path id="h" class="ax" d="M13.32548499,20.7752037c.41239357-.49700928.75506878-1.01512909,1.10364532-1.53145981l.27975845,2.25481415c.0983696.7928524-.12129211,1.17148018-.20422459,1.69594955l.39944077.62030029c-.8054924.35404015-1.09280205.91752625-1.03051281,1.62231636-.33681297.30860329-.6166687.63707542-.43608952,1.1261425-.20135689,3.42439461-1.45377541,6.27937317-2.53926468,9.22478104.29466057.53588867.57902241,1.07450104.60111904,1.68244171,1.12676716.5701561,2.25378132,1.05817032,3.38010406,1.7772789l1.57407475-1.29043579c-.02828979-1.29124069.31080818-2.05781555.74045944-2.69507599"/><path id="i" class="ax" d="M11.56632876,17.77809143l-.54401112.00530052c-.24758339,1.29422951-.9222126,2.17807579-1.80410099,3.09096336.67864037.37385368.75389576,1.52993965-.3335104,1.51525116,1.07698059.3430481,2.24470711.65349579,2.91812134,1.14152145l.02495956-.93184662h.64208031l.97299194-1.67521667"/><path id="j" class="ax" d="M24.16074634,14.59157944c-.13645935.22450638-.19846916.49004364.00720024.90541744l1.832407,3.70076847c.80327415.65014648,1.12648964,1.59257507.42496681,2.04039383.4817543.24219131.72475815.50123787.62495804,1.15072823l-1.99379921.64552879c-.58797455.20423126-.72682762-.55447578-1.03676224-.94636917.1115303-.85936165-.28107452-1.42297935-1.21741867-2.25948906-.59254265,1.98301506.45206833,2.13872337-.37568092,3.37198639.12007141.54234505.23360252,1.09170151.67280388,1.2918644-.23174286,1.30076981.19018364,2.54952431,1.32578087,4.91104126l-.52954292.58892441,1.7491436,6.8830986c-.37655449,1.28907394-3.12385559.97042847-4.98810005,1.1542511l-.70052147-3.06481171"/><path id="k" class="ax" d="M11.48886943,17.30819893c1.63616753-2.06554317,1.23955727-3.64808846,3.0892849-3.83837223,1.08303452-.111413,2.26799965-.14896488,2.26629829-1.26434135l.51571846.01327038c-.17761803-.46365547-.17828751-.63517189-.51825905-1.29707146-1.75876141-.09740734-3.18108273-.54787827-4.14191818-.83964729,2.21267223-.70320797,4.01348495-1.53604507,5.02793312-2.19732618.34287453-.22350693.80382538-.42332458.45785141-.98013067-.29370689-.47268915.1919117-.56980419.93881226-.56113434,1.10914803.01287794,1.13593483.21563005.56740952.87379551.97276306,1.19989586,2.40758514,1.90272903,6.13135719,3.27640915-.99264717.36254406-2.8507061.54052734-4.52184868.41971397-.22120285.79820061-.11329842,1.19836235-.47510719,1.81363869.60919571-.13983822.91510201.01074028,1.22943497.58969212.53572845.0984602,1.08791733.24931335,1.5816803.2142334l-.28766632.36186695"/></g><g id="l"><path id="m" class="ax" d="M21.7291286,12.87154388c-1.17640686,3.2348156-3.53429985,7.39120483-7.19053078,10.25418663"/><path id="n" class="ax" d="M15.17174029,13.45048904l5.03513145,2.78480339"/></g><g id="o"><path id="p" class="ax" d="M13.53014636,27.19316101c3.41147614-.60251427,7.35323334-.09086037,9.81266785.49926376"/><path id="q" class="ax" d="M23.23630404,25.26049995c-3.16082382.72740746-6.0106144,1.13983154-9.76791668,1.38744926"/><path id="r" class="ax" d="M14.61667132,24.28155136l8.13890839.97064972"/><path id="s" class="ax" d="M22.44249225,23.54442406c-2.49689293.46387482-5.41898918.59718895-8.29061699.76973724"/></g><g id="t"><path id="u" class="ax" d="M18.13485217,36.4169426l.51600456,1.737854c1.74846077-2.13491821,1.530159-6.77882957,1.63626671-11.00888062"/><path id="v" class="ax" d="M17.42231631,26.61191559c-.41694641,6.16091156-.46945381,7.80571747.15771675,11.70858002"/></g><path id="w" class="ax" d="M25.36256099,37.35982513c.52632904,1.92491913.34368896,3.5545845.0555706,5.14031601"/><path id="x" class="ax" d="M21.28501582,38.0434494l-.10953712.87210464c1.34375.22396469-.20893097,1.57685471.88917351,3.58293533"/><path id="y" class="ax" d="M14.65503097,39.13739395c.51426315.77973175-.11020374,1.53821182-.33153915,3.35365295"/><path id="z" class="ax" d="M11.58159232,37.46835327c-.44078541.46458054-.83870316.95765305-.7199049,1.79410934-.53240776.80076981-.73781872,1.7908287-.50019932,3.03735733"/><g id="aa"><path id="ab" class="ax" d="M8.86305308,22.38960457c.02651405,1.25465775.1699276,2.5481472.02165413,3.74463844-.26773262,2.16045761-.81797504,4.45273209.64614105,5.79721451-.40567303-.81924629.27729034-1.38747787,1.06563759-.84441948.76821613.44352341,1.30709267-1.20439529-.09739017-1.67662239-.03534985-.39563179-.06610966-.72122002-.51772308-.98933601.61603355-1.54218292,1.06683826-3.31323242,1.38346577-5.27013969"/><path id="ac" class="ax" d="M8.64132762,27.97702026l1.38694954.32954597"/></g><g id="ad"><path id="ae" class="ax" d="M25.04766345,23.03762054c-.38202858,1.33078003,1.46482468,3.06830597,1.07143974,4.94009209l1.73156166-.24006844c-.39157867-3.30602837.29993629-3.34920311-.70107079-5.48575211"/><path id="af" class="ax" d="M26.29787517,28.08155823l-.70126915,1.15093422.36645699.60663986-.00930023.45676613,1.08679962.582798,1.21359634-.4072876c.27233887-.87132835.14295769-1.89496231-.47179985-2.72271919"/></g><g id="ag"><path id="ah" class="ax" d="M5.49807477,16.03779221c1.76926327-.65939713,4.672894-1.32467175,7.66241789-1.72956657"/><path id="ai" class="ax" d="M14.09352565,10.50111675c.28780842,1.00207329.59604073,2.0736742.84772873,2.94824314"/><path id="aj" class="ax" d="M13.18156028,7.30663586c.01368999.05796909.21573162.76665878.49460125,1.73987865"/><path id="ak" class="ax" d="M23.42449641,27.09168053l1.83805275.32272339"/><path id="al" class="ax" d="M11.03035331,24.91552925l2.84010887.49866486"/><path id="am" class="ax" d="M13.37897563,27.27938461l-3.02765083.56552124"/><path id="an" class="ax" d="M25.3386085,25.04549599l-2.28919601.42758942"/></g><g id="ao"><g id="ap"><path id="aq" class="ax" d="M30.81634212,18.05117607h2.39999199"/><path id="ar" class="ax" d="M30.81634212,10.05117702h2.39999199"/><path id="as" class="ax" d="M32.01633716,10.05117702v8.00000095"/></g><g id="at"><path id="au" class="ax" d="M35.37210345,18.05117607h2.3999939"/><path id="av" class="ax" d="M35.37210345,10.05117702h2.3999939"/><path id="aw" class="ax" d="M36.5721004,10.05117702v8.00000095"/></g></g></g></svg>