<?xml version="1.0" encoding="UTF-8"?><svg id="b" xmlns="http://www.w3.org/2000/svg" viewBox="0 0 48 48"><defs><style>.c{fill:none;stroke:#000;stroke-linecap:round;stroke-linejoin:round;}</style></defs><line class="c" x1="11.68" y1="20.0291" x2="11.68" y2="27.9709"/><polyline class="c" points="3.5 27.9709 3.5 20.0291 8.7614 27.9709 8.7614 20.0291"/><path class="c" d="m14.6979,27.0774c.4964.5956,1.092.8935,1.9854.8935h1.1913c1.092,0,1.9854-.8935,1.9854-1.9854h0c0-1.092-.8934-1.9854-1.9854-1.9854h-1.2905c-1.092,0-1.9854-.8935-1.9854-1.9854h0c0-1.092.8934-1.9854,1.9854-1.9854h1.1913c.8934,0,1.4891.1985,1.9854.8935"/><line class="c" x1="35.4259" y1="25.2905" x2="31.8521" y2="25.2905"/><polyline class="c" points="30.9587 27.9709 33.639 20.0291 36.3194 27.9709"/><polyline class="c" points="39.238 27.9709 39.238 20.0291 44.4994 27.9709 44.4994 20.0291"/><path class="c" d="m22.8779,27.0774c.4964.5956,1.092.8935,1.9854.8935h1.1913c1.092,0,1.9854-.8935,1.9854-1.9854h0c0-1.092-.8934-1.9854-1.9854-1.9854h-1.2905c-1.092,0-1.9854-.8935-1.9854-1.9854h0c0-1.092.8934-1.9854,1.9854-1.9854h1.1913c.8934,0,1.4891.1985,1.9854.8935"/><path class="c" d="m3.5,17.0509l6.0757-.0035c2.4682-5.7224,8.1212-9.4836,14.4242-9.4836s11.9573,3.7618,14.4252,9.4842l6.0746.0029M3.5003,30.949l6.0757.0035c2.4682,5.7224,8.1212,9.4836,14.4242,9.4836s11.9573-3.7618,14.4252-9.4842l6.0746-.0029"/></svg>