<?xml version="1.0" encoding="UTF-8"?><svg id="a" xmlns="http://www.w3.org/2000/svg" viewBox="0 0 48 48"><defs><style>.b{fill:none;stroke:#000;stroke-linecap:round;stroke-linejoin:round;}</style></defs><line class="b" x1="29.6574" y1="19" x2="29.6574" y2="28.9999"/><line class="b" x1="36.2823" y1="19" x2="36.2823" y2="28.9999"/><line class="b" x1="29.6574" y1="23.9812" x2="36.2823" y2="23.9812"/><path class="b" d="M25.0237,24c1.3807,0,2.5,1.1193,2.5,2.5s-1.1193,2.5-2.5,2.5h-4.125v-9.9999h4.125c1.3807,0,2.5,1.1193,2.5,2.5s-1.1193,2.5-2.5,2.5h0Z"/><line class="b" x1="25.0237" y1="24" x2="20.8987" y2="24"/><polyline class="b" points="11.7177 29 11.7177 19 18.3427 29 18.3427 19"/><path class="b" d="M38.5,5.4999H9.5c-2.2091,0-4,1.7909-4,4v29c0,2.2091,1.7909,4,4,4h29c2.2091,0,4-1.7909,4-4V9.4999c0-2.2091-1.7909-4-4-4Z"/></svg>