<?xml version="1.0" encoding="utf-8"?>
<!-- Generator: Adobe Illustrator 25.2.3, SVG Export Plug-In . SVG Version: 6.00 Build 0)  -->
<svg version="1.1" id="Layer_1" xmlns="http://www.w3.org/2000/svg" xmlns:xlink="http://www.w3.org/1999/xlink" x="0px" y="0px"
	 viewBox="0 0 48 48" style="enable-background:new 0 0 48 48;" xml:space="preserve">
<style type="text/css">
	.st0{fill:none;stroke:#000000;stroke-linecap:round;stroke-linejoin:round;}
</style>
<path class="st0" d="M5.9,35.5l14-0.9 M4.6,15.9l14-0.9 M4.6,14.4c-0.1-1.2,0.8-2.2,2-2.4l9.5-0.6c1.2-0.1,2.3,0.8,2.4,2.1
	c0,0,0,0,0,0l1.5,22.4c0.1,1.2-0.9,2.3-2.1,2.4c0,0,0,0,0,0l-9.5,0.6c-1.2,0.1-2.3-0.8-2.4-2c0,0,0,0,0,0C5.6,29.4,5,21.9,4.6,14.4
	L4.6,14.4z M18.8,16.1l1.7-9.5l20.2,3l-3.8,27.8l-17-2.9 M39.7,15.6l3.8,2l-5.3,10.2 M33.6,37.1l-2.2,4.2L20,35.7 M22.4,10.8l14.4,2
	 M22,13.8l13.7,1.9 M20.8,22.1l14,2 M21.3,19.3l14.4,2.1 M21.7,16.5l11.9,1.6 M20.4,24.9l10.5,1.5 M19.4,27.6l14.3,2.1"/>
<path d="M13.7,36.7c0,0.4-0.3,0.8-0.7,0.8c-0.4,0-0.8-0.3-0.8-0.7c0-0.4,0.3-0.8,0.7-0.8C13.4,36,13.7,36.3,13.7,36.7z"/>
</svg>
