<?xml version="1.0" encoding="UTF-8"?><svg id="b" xmlns="http://www.w3.org/2000/svg" viewBox="0 0 48 48"><defs><style>.g{fill:none;stroke:#000;stroke-linecap:round;stroke-linejoin:round;}</style></defs><g id="c"><path id="d" class="g" d="M30.3104,14.7866l-7.4136,8.88,2.9328,5.2954-4.2363-3.5031-8.4726,6.5174,7.1692-8.1468-3.7475-6.3545,5.1325,4.8066,8.6356-7.495Z"/><path id="e" class="g" d="M29.0483,42.5c.9806-2.0568,1.7615-4.2801,3.9919-5.2954-.8353-2.1745-.5978-4.0425.0815-5.7842,2.9574-7.5519,4.5325-16.4862,6.1916-25.3365-.4653-.5358-1.0099-.913-2.1182-.1629-2.5407,7.2289-5.4785,14.1269-6.7618,22.4036l.2444,2.2811-1.9552,6.1915.3259,5.7027ZM33.1217,31.4198l-2.4439-.8142"/><path id="f" class="g" d="M34.2828,7.2069H8.6867v31.863h17.7945-.0418"/></g></svg>