<?xml version="1.0" encoding="UTF-8"?><svg id="a" xmlns="http://www.w3.org/2000/svg" viewBox="0 0 48 48"><defs><style>.b{fill:none;stroke:#000;stroke-linecap:round;stroke-linejoin:round;}.c{fill:#000;stroke-width:0px;}</style></defs><path class="b" d="m40.5,5.5H7.5c-1.1046,0-2,.8954-2,2v33c0,1.1046.8954,2,2,2h33c1.1046,0,2-.8954,2-2V7.5c0-1.1046-.8954-2-2-2Z"/><circle class="c" cx="16.5" cy="32.75" r=".75"/><circle class="c" cx="16.5" cy="32.75" r=".75"/><circle class="c" cx="19" cy="32.75" r=".75"/><circle class="c" cx="16.5" cy="30.25" r=".75"/><circle class="c" cx="19" cy="30.25" r=".75"/><circle class="c" cx="16.5" cy="27.75" r=".75"/><circle class="c" cx="16.5" cy="27.75" r=".75"/><circle class="c" cx="19" cy="27.75" r=".75"/><circle class="c" cx="16.5" cy="25.25" r=".75"/><circle class="c" cx="19" cy="25.25" r=".75"/><circle class="c" cx="16.5" cy="22.75" r=".75"/><circle class="c" cx="16.5" cy="22.75" r=".75"/><circle class="c" cx="19" cy="22.75" r=".75"/><circle class="c" cx="16.5" cy="20.25" r=".75"/><circle class="c" cx="19" cy="20.25" r=".75"/><circle class="c" cx="16.5" cy="17.75" r=".75"/><circle class="c" cx="16.5" cy="17.75" r=".75"/><circle class="c" cx="19" cy="17.75" r=".75"/><circle class="c" cx="21.5" cy="27.75" r=".75"/><circle class="c" cx="24" cy="22.75" r=".75"/><circle class="c" cx="21.5" cy="25.25" r=".75"/><circle class="c" cx="21.5" cy="25.25" r=".75"/><circle class="c" cx="24" cy="25.25" r=".75"/><circle class="c" cx="26.5" cy="25.25" r=".75"/><circle class="c" cx="26.5" cy="27.75" r=".75"/><circle class="c" cx="21.5" cy="30.25" r=".75"/><circle class="c" cx="24" cy="27.75" r=".75"/><circle class="c" cx="26.5" cy="30.25" r=".75"/><circle class="c" cx="16.5" cy="15.25" r=".75"/><circle class="c" cx="19" cy="15.25" r=".75"/><circle class="c" cx="29" cy="32.75" r=".75"/><circle class="c" cx="29" cy="32.75" r=".75"/><circle class="c" cx="31.5" cy="32.75" r=".75"/><circle class="c" cx="29" cy="30.25" r=".75"/><circle class="c" cx="31.5" cy="30.25" r=".75"/><circle class="c" cx="29" cy="27.75" r=".75"/><circle class="c" cx="29" cy="27.75" r=".75"/><circle class="c" cx="31.5" cy="27.75" r=".75"/><circle class="c" cx="29" cy="25.25" r=".75"/><circle class="c" cx="31.5" cy="25.25" r=".75"/><circle class="c" cx="29" cy="22.75" r=".75"/><circle class="c" cx="29" cy="22.75" r=".75"/><circle class="c" cx="31.5" cy="22.75" r=".75"/><circle class="c" cx="29" cy="20.25" r=".75"/><circle class="c" cx="31.5" cy="20.25" r=".75"/><circle class="c" cx="29" cy="17.75" r=".75"/><circle class="c" cx="29" cy="17.75" r=".75"/><circle class="c" cx="31.5" cy="17.75" r=".75"/><circle class="c" cx="29" cy="15.25" r=".75"/><circle class="c" cx="31.5" cy="15.25" r=".75"/></svg>