<?xml version="1.0" encoding="UTF-8"?><svg id="a" xmlns="http://www.w3.org/2000/svg" viewBox="0 0 48 48"><defs><style>.b{fill:none;stroke:#000;stroke-linecap:round;stroke-linejoin:round;}</style></defs><path class="b" d="m22.5202,17.8291H5.7436c-.6379,1.3894-1.0564,2.8694-1.2408,4.3873h18.0178"/><path class="b" d="m22.5202,30.2824H5.7946c-.6696-1.4273-1.1066-2.9525-1.2946-4.5179h18.0204"/><path class="b" d="m29.935,34.1602c-2.7939,2.9557-6.6818,4.6306-10.7491,4.6306-4.0129,0-7.8536-1.6306-10.6409-4.5175,4.1758-.0082,9.7992-.0314,13.9749-.0575m5.5514-.0498c.3271-.002,1.5364-.0039,1.8635-.0058"/><path class="b" d="m33.5901,27.364c-.2347,1.0053-.5741,1.9832-1.0125,2.9178-1.5019.0005-3.0038.0004-4.5058.0004"/><path class="b" d="m8.4353,13.8413c2.794-2.9567,6.6825-4.632,10.7505-4.632,4.0772,0,7.9735,1.6829,10.7685,4.6512l-21.5185-.0192"/><path class="b" d="m22.5202,35.0324V13.1932l15.6682,12.1227v-12.1227h5.3115v21.8392l-15.4294-11.9371v11.9371h-5.5504Z"/><path class="b" d="m28.5127,17.8291c3.3714.0086.75-.0182,4.1214.0125.6349,1.3865,1.0298,2.6012,1.2136,4.115"/></svg>