<svg xmlns="http://www.w3.org/2000/svg" viewBox="0 0 48 48"><defs><style>.a{fill:none;stroke:#000;stroke-linecap:round;stroke-linejoin:round;}</style></defs><path class="a" d="M40.5,5.5H7.5a2,2,0,0,0-2,2v33a2,2,0,0,0,2,2h33a2,2,0,0,0,2-2V7.5A2,2,0,0,0,40.5,5.5Z"/><path class="a" d="M26.1953,24.0031a6.7484,6.7484,0,0,0,6.7485-6.7484h0a6.7484,6.7484,0,0,0-6.7485-6.7484"/><path class="a" d="M26.1953,37.5a6.7485,6.7485,0,0,0,6.7485-6.7484h0a6.7485,6.7485,0,0,0-6.7485-6.7485"/><path class="a" d="M15.0593,35.2226C16.9232,36.7843,18.9356,37.5,23.4549,37.5h2.74"/><path class="a" d="M15.0562,12.7551c1.8681-1.5568,3.8825-2.267,8.4018-2.2549l2.74.0061"/><line class="a" x1="19.3204" y1="24.0031" x2="26.1953" y2="24.0031"/></svg>