<?xml version="1.0" encoding="UTF-8"?><svg xmlns="http://www.w3.org/2000/svg" viewBox="0 0 48 48"><defs><style>.c{fill:none;stroke:#000;stroke-linecap:round;stroke-linejoin:round;}</style></defs><g id="a"><g><g><path class="c" d="m22.0256,24c-3.3551,0-6.075,2.7199-6.075,6.075h0c0,3.3551,2.7199,6.075,6.075,6.075h3.9488c3.3551,0,6.075-2.7199,6.075-6.075h0c0-3.3551-2.7199-6.075-6.075-6.075"/><path class="c" d="m25.9744,24c3.3551,0,6.075-2.7199,6.075-6.075h0c0-3.3551-2.7199-6.075-6.075-6.075h-3.9488c-3.3551,0-6.075,2.7199-6.075,6.075h0c0,3.3551,2.7199,6.075,6.075,6.075"/></g><line class="c" x1="22.0256" y1="24" x2="25.9744" y2="24"/></g></g><g id="b"><circle class="c" cx="24" cy="24" r="21.5"/></g></svg>