<?xml version="1.0" encoding="UTF-8"?><svg id="a" xmlns="http://www.w3.org/2000/svg" viewBox="0 0 48 48"><defs><style>.b{fill:none;stroke:#000;stroke-linecap:round;stroke-linejoin:round;}</style></defs><path class="b" d="M40.5,5.5H7.5c-1.1,0-2,.9-2,2V40.5c0,1.1,.9,2,2,2H40.5c1.1,0,2-.9,2-2V7.5c0-1.1-.9-2-2-2Z"/><g><path class="b" d="M30.1,30.25c-1.6,1.5-3.7,2.4-5.9,2.4s-4.4-.9-6-2.4"/><path class="b" d="M22.1,17.55c-1.4-1.4-3.3-2.2-5.3-2.2-1.9,0-3.8,.8-5.2,2.1"/><path class="b" d="M36.4,17.55c-1.4-1.4-3.3-2.2-5.3-2.2-1.9,0-3.8,.8-5.2,2.1"/></g></svg>