<svg xmlns="http://www.w3.org/2000/svg" viewBox="0 0 48 48"><defs><style>.a{fill:none;stroke:#000;stroke-linecap:round;stroke-linejoin:round;}</style></defs><path class="a" d="M21.8719,26.9991a5.9833,5.9833,0,0,0-.8092,2.0564,5.4051,5.4051,0,0,0,1.12,4.6685c1.6867,1.8662,4.8192,2.2538,7.422,1.72,2.0675-.4239,4.0088-1.9806,5.52-3.3944,1.4644-1.37,2.5252-2.6052,2.9057-2.5456.773.1212-2.9507,12.3913-13.3354,13.0883S9.5587,38.5645,8.9807,28.096C8.2834,15.4637,22.6151,4.6783,22.6151,4.6783S34.7415,3.15,39.0426,9.0511c-.32,1.5048-2.7565,3.8493-5.74,6.5"/><path class="a" d="M34.6093,5.8946c-.4164.2573-3.2216,4.5857-7.341,7.8763-.7044.5626-1.44,1.132-2.1853,1.724m-3.1246,2.6693a18.9419,18.9419,0,0,0-5.7391,9.3569A9.12,9.12,0,0,0,24.8368,39.16,14.1855,14.1855,0,0,0,37.5242,29.8"/><path class="a" d="M22.0219,33.4563V17.31a1.6134,1.6134,0,0,1,1.4471-1.7449H33.7023a1.6134,1.6134,0,0,1,1.447,1.7449v14.7m0,4.47v5.2751a1.6135,1.6135,0,0,1-1.447,1.745H23.469a1.3943,1.3943,0,0,1-1.1952-.7584"/></svg>