<?xml version="1.0" encoding="UTF-8"?><svg id="a" xmlns="http://www.w3.org/2000/svg" viewBox="0 0 48 48"><defs><style>.h{fill:none;stroke:#000;stroke-linecap:round;stroke-linejoin:round;}</style></defs><circle id="b" class="h" cx="24.0003" cy="25.2656" r="7.3394"/><path id="c" class="h" d="M21.3226,18.4344c-3.7733-1.4852-5.6282-5.7481-4.143-9.5215,1.1035-2.8036,3.8077-4.6484,6.8206-4.6532,4.0534-.0033,7.3421,3.28,7.3454,7.3334,.0025,3.025-1.8512,5.7416-4.6688,6.8423"/><path id="d" class="h" d="M16.6619,25.4327c-2.4681,3.2154-7.0755,3.8213-10.2909,1.3532-3.2154-2.4681-3.8213-7.0755-1.3532-10.2909,2.4681-3.2154,7.0755-3.8213,10.2909-1.3532,1.7633,1.3535,2.8182,3.4331,2.8687,5.6554"/><path id="e" class="h" d="M30.1067,29.3352c3.9012-1.1005,7.9559,1.17,9.0563,5.0712,1.1005,3.9012-1.17,7.9559-5.0712,9.0563-3.9012,1.1005-7.9559-1.17-9.0563-5.0712-.5822-2.064-.2326-4.2795,.9571-6.0639"/><path id="f" class="h" d="M22.0039,32.3216c2.2521,3.3703,1.3456,7.9281-2.0247,10.1801s-7.9281,1.3456-10.1801-2.0247c-2.2521-3.3703-1.3456-7.9281,2.0247-10.1801,1.785-1.1928,4.0027-1.5442,6.069-.9617"/><path id="g" class="h" d="M29.8232,20.7891c.0964-4.0523,3.4597-7.2592,7.512-7.1627,4.0523,.0964,7.2592,3.4597,7.1627,7.512-.0964,4.0523-3.4597,7.2592-7.512,7.1627-2.2234-.0529-4.3029-1.1112-5.6543-2.8775"/></svg>