<?xml version="1.0" encoding="UTF-8"?><svg id="a" xmlns="http://www.w3.org/2000/svg" viewBox="0 0 48 48"><defs><style>.b{fill:none;stroke:#000;stroke-linecap:round;stroke-linejoin:round;}</style></defs><line class="b" x1="32.4512" y1="34.5854" x2="38.5" y2="34.5854"/><line class="b" x1="32.4512" y1="13.4146" x2="38.5" y2="13.4146"/><line class="b" x1="32.4512" y1="24" x2="36.395" y2="24"/><line class="b" x1="32.4512" y1="13.4146" x2="32.4512" y2="34.5854"/><polyline class="b" points="20.9281 34.5854 20.9281 13.4146 28.9427 34.5854 28.9427 13.4146"/><path class="b" d="M9.5,30.578c0,2.2132,1.7941,4.0073,4.0073,4.0073s4.0073-1.7941,4.0073-4.0073v-13.1561c0-2.2132-1.7941-4.0073-4.0073-4.0073s-4.0073,1.7941-4.0073,4.0073v13.1561Z"/><line class="b" x1="11.5073" y1="18.089" x2="13.5073" y2="17"/><line class="b" x1="13.5073" y1="17" x2="13.5073" y2="31"/><path class="b" d="M9.5,5.5c-2.2091,0-4,1.7909-4,4v29c0,2.2091,1.7909,4,4,4h29c2.2091,0,4-1.7909,4-4V9.5c0-2.2091-1.7909-4-4-4H9.5Z"/></svg>