<svg xmlns="http://www.w3.org/2000/svg" viewBox="0 0 48 48"><defs><style>.a,.b{fill:none;stroke:#000;stroke-linecap:round;stroke-linejoin:round;}</style></defs><path class="a" d="M40.5,5.5H7.5a2,2,0,0,0-2,2h0v33a2,2,0,0,0,2,2h33a2,2,0,0,0,2-2h0V7.5a2,2,0,0,0-2-2Z"/><line class="b" x1="32.4512" y1="34.5854" x2="38.5" y2="34.5854"/><line class="b" x1="32.4512" y1="13.4146" x2="38.5" y2="13.4146"/><line class="b" x1="32.4512" y1="24" x2="36.395" y2="24"/><line class="b" x1="32.4512" y1="13.4146" x2="32.4512" y2="34.5854"/><polyline class="b" points="20.928 34.585 20.928 13.415 28.943 34.585 28.943 13.415"/><path class="b" d="M9.5,30.578a4.0073,4.0073,0,1,0,8.0146,0V17.422a4.0073,4.0073,0,1,0-8.0146,0Z"/><line class="b" x1="11.5073" y1="18.089" x2="13.5073" y2="17"/><line class="b" x1="13.5073" y1="17" x2="13.5073" y2="31"/></svg>