<?xml version="1.0" encoding="UTF-8"?><svg id="a" xmlns="http://www.w3.org/2000/svg" viewBox="0 0 48 48"><defs><style>.b{fill:none;stroke:#000;stroke-linecap:round;stroke-linejoin:round;}</style></defs><path class="b" d="m13.8086,10.2195h-2.2684v-3.642s2.4157-.6878,2.9438-.7055,4.1299,0,4.1299,0v13.2939h-4.8033c-.0049-2.9822-.0021-5.9646-.0021-8.9468v.0004Z"/><path class="b" d="m20.5379,13.0429l3.1539,5.4697s.5637,1.3368,2.5569.2057c1.9932-1.1311,6.3492-3.6704,6.3492-3.6704,0,0,1.3294-.6069.4623-2.1106-.867-1.5037-3.0485-5.287-3.0485-5.287,0,0-.5429-1.4685-2.388-.402-1.845,1.0666-6.399,3.6993-6.399,3.6993,0,0-1.5114.6652-.6868,2.0953h0Z"/><path class="b" d="m32.1551,7.8575l1.967,3.4114h3.0034s1.8664.0955.9057-1.5707c-.9608-1.6662-2.6685-4.628-2.6685-4.628,0,0-.76-1.283-1.4998,0-.7398,1.283-1.7079,2.7872-1.7079,2.7872h0Z"/><path class="b" d="m10.7036,43.2327v-2.3293c-1.3454,0-1.3204-1.7861.0248-1.7861v-2.7868c-1.3795,0-1.3761-1.6419-.016-1.6419v-2.6831c-1.376,0-1.332-1.7453.0159-1.7453l.0821-4.6082s-.0443-2.4303,3.1414-2.4303h19.9513c.7853,0,.8636.6262.0662.6262v4.2953l.5737.4785v14.8782H10.6992l.0044-.2673Z"/><path class="b" d="m16.7786,31.6285v7.8085s-.059.921.9198.921h13.9275s.5704-.0023.5704-.9892v-7.5059s.2177-1.2694-1.2677-1.2694h-13.2273s-.923-.1406-.923,1.035h.0004Z"/><path class="b" d="m20.5766,34.331h7.9513"/><path class="b" d="m20.5766,36.6966h7.9513"/><path class="b" d="m33.4466,24.6895H13.328c-1.6903,0-1.5284,3.3227.1817,3.3627h20.2672"/><path class="b" d="m12.5954,26.2819h21.223"/><path class="b" d="m10.7927,30.2605l2.8429.0013c1.091,0,1.1411,1.7465.004,1.7465h-2.8666"/><path class="b" d="m10.6406,39.1324l2.8429.0013c1.091,0,1.1411,1.7465.004,1.7465h-2.8666"/><path class="b" d="m10.8269,34.6879l2.8429.0013c1.091,0,1.1411,1.6488.004,1.6488h-2.8666"/></svg>