<svg viewBox="0 0 48 48" xmlns="http://www.w3.org/2000/svg">
  <defs>
    <style>
      .a {
        fill: none;
        stroke:#000;
        stroke-linecap: round;
        stroke-linejoin: round;
      }
    </style>
  </defs>
<path class="a" d="M24.8503 35.6483C24.6558 35.8393 24.3442 35.8393 24.1497 35.6483C22.8743 34.396 21.7308 33.2446 20.7194 32.1942C19.769 31.2073 18.8891 30.2847 18.0796 29.4264H14.9158C15.755 30.4038 16.7034 31.4441 17.7615 32.5477C19.1228 33.9675 20.7167 35.5769 22.5436 37.3764L24.8503 35.6483ZM24.8503 35.6483C26.1257 34.396 27.2692 33.2446 28.2806 32.1942C29.231 31.2073 30.1109 30.2847 30.9204 29.4264H34.123C33.2821 30.4031 32.328 31.4429 31.2601 32.5459C29.8847 33.9666 28.2835 35.5768 26.456 37.3767L24.5 39.299L22.544 37.3767L24.8503 35.6483ZM24.1049 11.9685C24.1996 12.0907 24.3454 12.1621 24.5 12.1621C24.6546 12.1621 24.8004 12.0907 24.8951 11.9685C25.7541 10.8608 26.772 10.0083 27.9498 9.40399C29.1266 8.80021 30.361 8.5 31.6591 8.5C34.0118 8.5 35.9589 9.35702 37.534 11.0836C39.1116 12.8128 39.9091 14.9701 39.9091 17.5913C39.9091 17.7152 39.9037 17.8391 39.8929 17.9632H37.7273V17.5913C37.7273 15.7373 37.1597 14.1595 36.0057 12.8946C34.8492 11.6269 33.3888 10.9877 31.6591 10.9877C30.3017 10.9877 29.0464 11.4097 27.9051 12.2385C26.866 12.9931 26.1141 13.944 25.6616 15.0858H23.3384C22.8859 13.944 22.134 12.9931 21.0949 12.2385C19.9536 11.4097 18.6983 10.9877 17.3409 10.9877C15.6112 10.9877 14.1508 11.6269 12.9943 12.8946C11.8403 14.1595 11.2727 15.7373 11.2727 17.5913V17.9632H9.10707C9.09629 17.8391 9.09091 17.7152 9.09091 17.5913C9.09091 14.9701 9.88842 12.8128 11.466 11.0836C13.0411 9.35702 14.9882 8.5 17.3409 8.5C18.639 8.5 19.8734 8.80021 21.0502 9.40399C22.228 10.0083 23.2459 10.8608 24.1049 11.9685ZM18.8125 24.9387H7.5V22.451H19.767C19.9354 22.451 20.098 22.4957 20.2627 22.596C20.4322 22.6993 20.5564 22.8277 20.6452 22.9834L20.645 22.9835L20.6524 22.9955L22.0046 25.2189C22.1071 25.3874 22.2989 25.4799 22.4945 25.4552C22.69 25.4305 22.8528 25.2932 22.9102 25.1046L25.0579 18.0419C25.1392 17.7746 25.2698 17.5749 25.4437 17.4244C25.6013 17.288 25.7823 17.2193 26.0114 17.2193C26.2251 17.2193 26.4176 17.2665 26.5963 17.3593C26.7606 17.4446 26.9006 17.5741 27.016 17.7639L27.0177 17.7667L29.762 22.2135C29.8531 22.3611 30.0141 22.451 30.1875 22.451H41.5V24.9387H29.2727C29.1043 24.9387 28.9418 24.8939 28.7771 24.7937C28.6075 24.6904 28.4833 24.5619 28.3946 24.4063L28.3863 24.3923L26.9943 22.1253C26.8912 21.9575 26.6993 21.8658 26.5041 21.891C26.3088 21.9163 26.1465 22.0538 26.0896 22.2423L23.9421 29.3477C23.942 29.3478 23.942 29.3479 23.942 29.348C23.8607 29.6152 23.7302 29.8148 23.5563 29.9652C23.3987 30.1016 23.2177 30.1703 22.9886 30.1703C22.7749 30.1703 22.5824 30.1232 22.4037 30.0304C22.2394 29.945 22.0994 29.8155 21.984 29.6257L21.9823 29.623L19.238 25.1761C19.1469 25.0285 18.9859 24.9387 18.8125 24.9387Z" stroke="#000" stroke-linejoin="round"/>
</svg>
