<?xml version="1.0" encoding="UTF-8"?><svg id="a" xmlns="http://www.w3.org/2000/svg" viewBox="0 0 48 48"><defs><style>.b{fill:none;stroke:#000;stroke-linecap:round;stroke-linejoin:round;}</style></defs><path class="b" d="M38.5,5.5H9.5c-2.2091,0-4,1.7909-4,4v29c0,2.2091,1.7909,4,4,4h29c2.2091,0,4-1.7909,4-4V9.5c0-2.2091-1.7909-4-4-4Z"/><path class="b" d="M17.7118,21.95h0c-1.1,0-2-.9-2-2v-1.3c0-1.1.9-2,2-2h0c1.1,0,2,.9,2,2v1.3c0,1.1-.9,2-2,2Z"/><path class="b" d="M25.9744,21.95v-3.3c0-1.1-.9-2-2-2s-2,.9-2,2"/><line class="b" x1="21.9744" y1="21.95" x2="21.9744" y2="16.55"/><path class="b" d="M31.9882,20.85c-.3.6-1,1-1.7,1h0c-1.1,0-2-.9-2-2v-1.3c0-1.1.9-2,2-2h0c1.1,0,2,.9,2,2v.7h-4"/><path class="b" d="M24.9077,31.45h0c-1.1,0-2-.9-2-2v-1.3c0-1.1.9-2,2-2h0c1.1,0,2,.9,2,2v1.3c0,1.1-.9,2-2,2Z"/><path class="b" d="M29.1262,28.113c0-1.0796.8833-1.963,1.963-1.963"/><line class="b" x1="29.1262" y1="26.15" x2="29.1262" y2="31.45"/><path class="b" d="M11.5077,31.05c.4.3.8.4,1.6.4h.4c.7,0,1.3-.6,1.3-1.3h0c0-.7-.6-1.3-1.3-1.3h-.9c-.7,0-1.3-.6-1.3-1.3h0c0-.7.6-1.3,1.3-1.3h.4c.9,0,1.3.1,1.6.4"/><path class="b" d="M20.7077,30.45c-.3.6-1,1-1.7,1h0c-1.1,0-2-.9-2-2v-1.3c0-1.1.9-2,2-2h0c.7,0,1.4.4,1.7,1"/><path class="b" d="M36.3923,30.45c-.3.6-1,1-1.7,1h0c-1.1,0-2-.9-2-2v-1.3c0-1.1.9-2,2-2h0c1.1,0,2,.9,2,2v.7h-4"/></svg>