<svg id="Layer_2" data-name="Layer 2" xmlns="http://www.w3.org/2000/svg" viewBox="0 0 48 48"><defs><style>.cls-1{fill:#000;}.cls-2{fill:none;stroke:#000;stroke-linecap:round;stroke-linejoin:round;fill-rule:evenodd;}</style></defs><circle class="cls-1" cx="22.22" cy="13.94" r="0.75"/><path class="cls-2" d="M27.4,26.77c1,1,3.51,3.1,5.92,3.1,3.12,0,7.09-2.82,7.09-5.91,0-3.55-3.81-6.37-3.81-9.49,0-1.64,1.47-3.25,2.44-4.14a.55.55,0,0,0-.28-.94,3.05,3.05,0,0,0-3.83,1c-2.12,2.86-2,5.14-.55,7.55s2.84,3.61,2.84,5.47-2.08,3-3.59,3A4.94,4.94,0,0,1,29,21.61a5.35,5.35,0,0,1,1.48-3.44c.23-.28.43-.58.63-.88a7.5,7.5,0,0,0,1.29-4.45,8.35,8.35,0,0,0-16.69,0,8.26,8.26,0,0,0,1.64,4.95h0c.76,1.35,2.34,2.23,2.34,4s-1.86,3.56-5.36,3.56-4.1-2-4.1-3.56,1.21-3.33,2.9-3.33,1.83,1.84,1.83,2.26a7.27,7.27,0,0,1-.4,1.46.19.19,0,0,0,.27.24c.74-.35,1.78-.31,1.78-2.24a3.81,3.81,0,0,0-3.93-3.79c-2.06,0-5.07,1.08-5.07,5.66s4.41,6.5,7,6.5c2.36,0,5.62-2,6.67-3.37.1-.13.11-.16.18-.14s0,.08,0,.17c-.08.54-.25,2.08-1,2.73-1.11.95-7.12,2.81-7.07,5.95.07,3.79,6,4.74,6,6.31,0,1.27-1.66,2.17-2.79,2.33a.23.23,0,0,0-.09.43,3.3,3.3,0,0,0,1.67.5c1.32,0,4.29-1.11,4.29-4a3.57,3.57,0,0,0-3.37-3.67c-.88,0-2.48-.76-2.48-1.6s.58-1.73,2.37-2.33a10.69,10.69,0,0,0,4.68-3.4.33.33,0,0,1,.58,0,7.4,7.4,0,0,0,2.44,2.94c1.75,1,4.36,2.64,4.36,4.46s-1.62,2.19-2.61,2.19a3.06,3.06,0,0,1-2.89-2.86c0-1.26,1.12-1.22,1.87-1.06a.33.33,0,0,0,.35-.51,2,2,0,0,0-1.8-.95c-1.79,0-3.23,1-3.23,3.52s2.81,4.27,5.58,4.27,5.83-1.72,5.83-4.12-2.88-4.81-4.3-5.83S27.24,28.92,27,27A.25.25,0,0,1,27.4,26.77Zm-4.56-9a4.21,4.21,0,1,1,4.21-4.21A4.21,4.21,0,0,1,22.84,17.8Z"/></svg>