<?xml version="1.0" encoding="UTF-8"?><svg id="b" xmlns="http://www.w3.org/2000/svg" viewBox="0 0 48 48"><defs><style>.c{fill:none;stroke:#000;stroke-linecap:round;stroke-linejoin:round;}</style></defs><path class="c" d="m13.6422,14.8361c5.3507-5.3508,14.0259-5.3509,19.3767-.0002,0,0,.0002.0002.0002.0002"/><path class="c" d="m30.1809,36.3905c-5.3704,3.1005-12.1537,2.2074-16.5386-2.1774-4.3848-4.3849-5.2778-11.1682-2.1774-16.5386"/><path class="c" d="m35.1956,17.6744c2.1299,3.689,2.4228,8.1587.7927,12.0941"/><path class="c" d="m18.1131,19.308c2.8812-2.8812,7.5524-2.8812,10.4336,0h0"/><path class="c" d="m9.1703,10.3652c7.8203-7.8203,20.4995-7.8203,28.3197,0"/><circle class="c" cx="23.3302" cy="24.5251" r="2.6349"/><path class="c" d="m41.4571,38.1295c.0253-.1927.0389-.3868.0407-.5812-.0018-.1944-.0154-.3885-.0407-.5812l1.2583-.9852c.1177-.0899.1489-.2538.0727-.3807l-1.1915-2.0663c-.0714-.1283-.2273-.1831-.3633-.1279l-1.485.5987c-.309-.2358-.6469-.4312-1.0055-.5812l-.2238-1.578c-.0204-.1444-.1448-.2514-.2906-.2499h-2.3888c-.1459-.0014-.2702.1055-.2906.2499l-.2238,1.578c-.3591.1491-.6971.3445-1.0055.5812l-1.4908-.5987c-.136-.0552-.2918-.0004-.3633.1279l-1.1915,2.0663c-.0763.1269-.045.2908.0726.3807l1.2555.9852c-.0252.1927-.0388.3868-.0407.5812.0018.1944.0154.3885.0407.5812l-1.2555.9852c-.1177.0899-.1489.2538-.0726.3807l1.1915,2.0663c.0714.1283.2273.1831.3633.1279l1.485-.5987c.309.2358.6469.4312,1.0055.5812l.2238,1.578c.0204.1444.1448.2514.2906.2499h2.383c.1459.0014.2702-.1055.2906-.2499l.2238-1.578c.3591-.1491.6971-.3445,1.0055-.5812l1.485.5987c.136.0552.2918.0004.3633-.1279l1.1915-2.0663c.0763-.1269.045-.2908-.0727-.3807l-1.2467-.9852Zm-4.426,1.5054c-1.1524.0016-2.0879-.9313-2.0896-2.0837-.0016-1.1524.9313-2.0879,2.0837-2.0896,1.1524-.0016,2.0879.9313,2.0896,2.0837,0,.001,0,.002,0,.0029.0016,1.1508-.9299,2.085-2.0807,2.0866-.001,0-.002,0-.003,0Z"/></svg>