<svg xmlns="http://www.w3.org/2000/svg" viewBox="0 0 48 48"><defs><style>.a{fill:none;stroke:#000;stroke-linecap:round;stroke-linejoin:round;}</style></defs><path class="a" d="M40.5,5.5H7.5a2,2,0,0,0-2,2v33a2,2,0,0,0,2,2h33a2,2,0,0,0,2-2V7.5A2,2,0,0,0,40.5,5.5Z"/><line class="a" x1="38.5" y1="21.7305" x2="31.5129" y2="30.9885"/><line class="a" x1="38.5" y1="30.9885" x2="31.5129" y2="21.7305"/><path class="a" d="M28.4911,29.2255a3.4927,3.4927,0,0,1-3.0356,1.763h0a3.4936,3.4936,0,0,1-3.4935-3.4936V25.2241a3.4935,3.4935,0,0,1,3.4935-3.4936h0a3.4936,3.4936,0,0,1,3.4936,3.4936V26.36H21.962"/><line class="a" x1="9.5" y1="21.7305" x2="14.391" y2="21.7305"/><path class="a" d="M11.5714,30.9885V19.457a2.4455,2.4455,0,0,1,2.4455-2.4455h.952a2.881,2.881,0,0,1,2.487,1.0232V29.239a1.7468,1.7468,0,0,0,1.7468,1.7468h.524"/></svg>