<svg xmlns="http://www.w3.org/2000/svg" viewBox="0 0 48 48"><defs><style>.a{fill:none;stroke:#000;stroke-linecap:round;stroke-linejoin:round;}.b{fill:#000;}</style></defs><circle class="a" cx="24" cy="24" r="21.5"/><path class="a" d="M8.0931,38.4644A9.99,9.99,0,1,0,3.0411,19.185"/><circle class="b" cx="26.715" cy="7.8645" r="0.75"/><circle class="b" cx="22.6756" cy="25.9486" r="0.75"/><circle class="b" cx="35.5758" cy="23.25" r="0.75"/><circle class="b" cx="40.7418" cy="28.7664" r="0.75"/><circle class="b" cx="19.7637" cy="41.0888" r="0.75"/><path class="a" d="M29.24,31.14a5.3071,5.3071,0,0,0,5.3071,5.3071"/><path class="a" d="M34.5466,36.4474A5.3071,5.3071,0,0,0,29.24,41.7545"/><path class="a" d="M29.24,41.7545a5.3071,5.3071,0,0,0-5.3071-5.3071"/><path class="a" d="M23.9324,36.4474A5.3071,5.3071,0,0,0,29.24,31.14"/><path class="a" d="M38.1588,12.812a3.333,3.333,0,0,0,3.333,3.333"/><path class="a" d="M41.4918,16.145a3.333,3.333,0,0,0-3.333,3.333"/><path class="a" d="M38.1588,19.478a3.3331,3.3331,0,0,0-3.333-3.333"/><path class="a" d="M34.8258,16.145a3.333,3.333,0,0,0,3.333-3.333"/><path class="a" d="M15.9716,7.4874a4.542,4.542,0,0,0,4.5421,4.542"/><path class="a" d="M20.5137,12.0294a4.5421,4.5421,0,0,0-4.5421,4.5421"/><path class="a" d="M15.9716,16.5715A4.5421,4.5421,0,0,0,11.43,12.0294"/><path class="a" d="M11.43,12.0294a4.542,4.542,0,0,0,4.5421-4.542"/></svg>