<?xml version="1.0" encoding="UTF-8"?><svg id="a" xmlns="http://www.w3.org/2000/svg" viewBox="0 0 48 48"><defs><style>.f{fill:none;stroke:#000;stroke-linecap:round;stroke-linejoin:round;}</style></defs><path id="b" class="f" d="m31.686,10.8418c.2456-.016.4845-.0077.7145.0304.2238.037.4401.1005.647.1908,3.3105,1.4453,3.0773,9.2976-.5203,17.5382-3.5976,8.2406-9.1706,11.3407-12.4982,9.9353-3.8554-1.6283-3.0874-6.9291.5102-15.1697.2462-.564.5028-1.113.7664-1.65-1.1667-1.5627-2.3377-3.1259-3.4699-4.6461-.7931,1.2962-1.5225,2.6898-2.1684,4.1691-4.4823,10.267-3.5179,19.1434,2.0769,21.5859,6.001,2.6198,15.7591-2.5945,19.2619-12.1827,3.5028-9.5882,5.3434-21.5323-4.105-23.7572h0c-1.01-.1588-2.2145-.3671-3.7182-.4313"/><circle id="c" class="f" cx="24.0092" cy="12.3279" r="3.4766"/><path id="d" class="f" d="m22.7122,4.6095c-4.2627.7163-7.1375,4.7527-6.4211,9.0154.1745,1.0068.5445,1.9697,1.0891,2.8343.0303.0502-.0174-.0299,0,0,2.7197,3.6531,5.6243,7.5411,8.3925,11.2404,0,0,.4089.483.8879.4025.4789-.0805.6869-.6705.6869-.6705,1.3348-4.6851,3.1149-9.2767,4.2935-13.3692.1418-1.013.2244-2.1429.0867-3.0319-.7163-4.2627-4.7527-7.1375-9.0154-6.4211h0Z"/><path id="e" class="f" d="m17.2487,8.3477c-6.0148,2.7465-8.5199,5.6113-9.0276,9.4586-.5077,3.8473,1.8392,5.7574,4.9275,5.1094-.4675-.8228-1.058-2.5338-.8115-4.2658.2466-1.732,1.8751-3.8996,3.8782-5.1021"/></svg>