<svg xmlns="http://www.w3.org/2000/svg" viewBox="0 0 48 48"><defs><style>.a{fill:none;stroke:#000;stroke-linecap:round;stroke-linejoin:round;}</style></defs><circle class="a" cx="24" cy="24" r="21.5"/><path class="a" d="M21.707,2.6226S24.0353,6.53,24.0386,9.0542s-.9187,1.3182,1.7592,8.3851,1.6771,13.264,2.7062,15.415,3.9566,3.4926,4.6251,5.5907,1.14,4.4441,1.14,4.4441"/><path class="a" d="M24.456,2.5048s3.598,6.4028,3.598,8.0079.11,5.1249,2.31,6.2807,3.2141,4.2135,2.9049,7.1238M40.44,32.53a6.4741,6.4741,0,0,1,1.8911,2.7047"/><path class="a" d="M3.8463,16.511s4.3716,1.1913,7.0311,7.304m1.9757,12.546a54.72,54.72,0,0,1-.4971,5.7123"/><path class="a" d="M10.327,40.592s1.012-.9287,5.3066-1.0756m5.1872.1367c8.4121.1406,23.839-9.6994,23.839-9.6994"/><path class="a" d="M20.28,2.8243l-.5855,10.597-2.3023,2.0234"/><path class="a" d="M5.0119,13.915s3.8822,2.1467,5.3953.4544,7.0218-3.5724,6.7491-6.2545a9.2349,9.2349,0,0,1,.7986-4.7479"/><path class="a" d="M32.002,4.0448,29.2782,6.6691l3.2036,2.7336"/><path class="a" d="M13.689,24.594a17.4255,17.4255,0,0,1-2.5153-3.7446,4.09,4.09,0,0,1-.5176-1.72,3.0472,3.0472,0,1,1,6.0944,0,4.0442,4.0442,0,0,1-.51,1.6855,17.9847,17.9847,0,0,1-2.5515,3.7788Z"/><path class="a" d="M18.167,39.519a17.4255,17.4255,0,0,1-2.5153-3.7446,4.09,4.09,0,0,1-.5176-1.72,3.0472,3.0472,0,0,1,6.0944,0,4.0452,4.0452,0,0,1-.51,1.6855,17.9847,17.9847,0,0,1-2.5515,3.7788Z"/><path class="a" d="M37.401,30.854a17.4255,17.4255,0,0,1-2.5153-3.7446,4.09,4.09,0,0,1-.5176-1.72,3.0472,3.0472,0,1,1,6.0944,0,4.0457,4.0457,0,0,1-.51,1.6855,17.9847,17.9847,0,0,1-2.5515,3.7788Z"/><path class="a" d="M37.3,18.958a17.4255,17.4255,0,0,1-2.5153-3.7446,4.09,4.09,0,0,1-.5176-1.72,3.0472,3.0472,0,1,1,6.0944,0,4.0452,4.0452,0,0,1-.51,1.6855A17.9847,17.9847,0,0,1,37.3,18.9581Z"/><path class="a" d="M10.791,34.734a17.4255,17.4255,0,0,1-2.5153-3.7446,4.09,4.09,0,0,1-.5176-1.72,3.0472,3.0472,0,1,1,6.0944,0,4.0437,4.0437,0,0,1-.51,1.6855,17.9847,17.9847,0,0,1-2.5515,3.7788Z"/></svg>