<?xml version="1.0" encoding="UTF-8"?><svg id="a" xmlns="http://www.w3.org/2000/svg" viewBox="0 0 48 48"><defs><style>.b{fill:none;stroke:#000;stroke-linecap:round;stroke-linejoin:round;}</style></defs><path class="b" d="M35.2801,14.2482v13.0292M36.9964,32.0282c.002.9499-.7664,1.7216-1.7163,1.7236h0c-.9499.002-1.7216-.7664-1.7236-1.7163,0-.0024,0-.0049,0-.0073,0-.9499.77-1.7199,1.7199-1.7199.9499-.002,1.7216.7664,1.7236,1.7163,0,.0012,0,.0024,0,.0037h-.0036ZM30.2626,24.0493c0,5.3182-4.3113,9.6295-9.6295,9.6295-5.3182.002-9.6311-4.3076-9.6331-9.6258,0-.0012,0-.0024,0-.0036,0-5.3182,4.3113-9.6295,9.6295-9.6295h0c5.3182,0,9.6295,4.3113,9.6295,9.6295h.0036Z"/><rect class="b" x="5.5" y="5.5" width="37" height="37" rx="4" ry="4"/></svg>