<svg xmlns="http://www.w3.org/2000/svg" viewBox="0 0 48 48"><defs><style>.a{fill:none;stroke:#000;stroke-linecap:round;stroke-linejoin:round;}</style></defs><path class="a" d="M5.51,28.31V40a1.94,1.94,0,0,0,1.94,2h33.1a2,2,0,0,0,2-2V28.31"/><path class="a" d="M39,13.72l2.58-2.56A3,3,0,0,0,37.31,6.9h0L34.76,9.5a18.39,18.39,0,0,0-21.51,0L10.68,6.93A3.22,3.22,0,0,0,8.5,6a3,3,0,0,0-2.12,5.15L9,13.71a18.41,18.41,0,0,0-3.47,10.8v3.8h37v-3.8A18.57,18.57,0,0,0,39,13.72Zm-19.87,7a2.93,2.93,0,1,1-2.93-2.92A2.93,2.93,0,0,1,19.14,20.7Zm12.65,2.92a2.92,2.92,0,1,1,2.92-2.92A2.92,2.92,0,0,1,31.79,23.62Z"/><rect class="a" x="13.71" y="31.65" width="5.28" height="7" rx="2.64"/><path class="a" d="M29,31.65V36a2.64,2.64,0,0,0,2.64,2.64h0A2.65,2.65,0,0,0,34.29,36V31.65"/><path class="a" d="M21.75,38.06a3,3,0,0,0,2.17.59h.6a1.75,1.75,0,0,0,1.74-1.75h0a1.74,1.74,0,0,0-1.74-1.75H23.33a1.76,1.76,0,0,1-1.75-1.75h0a1.75,1.75,0,0,1,1.75-1.75h.59a3,3,0,0,1,2.18.59"/></svg>