<?xml version="1.0" encoding="UTF-8"?><svg id="a" xmlns="http://www.w3.org/2000/svg" viewBox="0 0 48 48"><defs><style>.d{fill:none;stroke:#000;stroke-linecap:round;stroke-linejoin:round;}</style></defs><circle class="d" cx="33.5" cy="12" r="3"/><path class="d" d="m33.5 13.5a1.5 1.5 0 01-1.0607-.43934 1.5 1.5 0 01-.43934-1.0607"/><circle class="d" cx="37.25" cy="17.75" r="2"/><circle class="d" cx="13.75" cy="37.5" r="1.5"/><circle class="d" cx="10.5" cy="31.75" r="1.75"/><path class="d" d="m4.501 28.959c1.9921-.28483 3.4034-1.9131 5.499-1.9587 2.2669-.04926 4.5733 2 7 2s4.5733-2 7-2 4.5733 2 7 2 4.7331-2.0493 7-2c2.0955.045536 3.5069 1.6739 5.499 1.9587"/><path class="d" d="m30.318 22.281.6468 6.7166m-13.93-6e-4.6468-6.7166m13.475 8.7106.33214 3.449c-2.4448.70433-4.9609 1.0595-7.4894 1.0595s-5.0446-.35519-7.4894-1.0595l.33214-3.449m.65152-6.785-3.779-4.2153 4.4995-4.5963a9 9 0 0011.57 0l4.4995 4.5963-3.779 4.2153"/></svg>
