<svg xmlns="http://www.w3.org/2000/svg" viewBox="0 0 48 48"><defs><style>.a{fill:none;stroke:#000;stroke-linecap:round;stroke-linejoin:round;}</style></defs><path class="a" d="M23.7255,23.9881a4.83,4.83,0,0,1,2.5707-4.2706,4.34,4.34,0,0,0,2.26-3.8494V8.2236A2.7236,2.7236,0,0,0,25.8328,5.5H8.2235A2.7235,2.7235,0,0,0,5.5,8.2235V39.7764A2.7236,2.7236,0,0,0,8.2235,42.5H25.8328a2.7235,2.7235,0,0,0,2.7235-2.7235V32.1081a4.34,4.34,0,0,0-2.26-3.8494A4.83,4.83,0,0,1,23.7255,23.9881Z"/><path class="a" d="M27.8642,41.5743H28.88a2.7235,2.7235,0,0,0,2.7235-2.7236V9.1493A2.7235,2.7235,0,0,0,28.88,6.4257H27.8643"/><path class="a" d="M36.1442,41.5743h3.6323A2.7236,2.7236,0,0,0,42.5,38.8507V9.1493a2.7236,2.7236,0,0,0-2.7235-2.7236H36.1442"/><path class="a" d="M32.5119,41.5743h3.6323a2.7236,2.7236,0,0,0,2.7235-2.7236V9.1493a2.7236,2.7236,0,0,0-2.7235-2.7236H32.5119"/><path class="a" d="M28.88,41.5743h3.6323a2.7235,2.7235,0,0,0,2.7235-2.7236V9.1493a2.7235,2.7235,0,0,0-2.7235-2.7236H28.88"/></svg>