<?xml version="1.0" encoding="UTF-8"?><svg id="b" xmlns="http://www.w3.org/2000/svg" viewBox="0 0 48 48"><defs><style>.c{fill:none;stroke:#000;stroke-linecap:round;stroke-linejoin:round;}</style></defs><path class="c" d="m8.8184,43.5v-23.8184c0-8.3689,6.8126-15.1816,15.1816-15.1816s15.1816,6.8126,15.1816,15.1816-6.8126,15.1816-15.1816,15.1816c-4.7616,0-8.6472,3.8753-8.6472,8.6369h-6.5344c0-5.1533,2.5869-9.7294,6.5344-12.4709,2.453-1.7109,5.4316-2.7106,8.6472-2.7106,4.7616,0,8.6472-3.8753,8.6472-8.6369,0-4.7719-3.8856-8.6472-8.6472-8.6472s-8.6472,3.8753-8.6472,8.6472v11.3475"/><line class="c" x1="32.6422" y1="19.6788" x2="39.1814" y2="19.6788"/><line class="c" x1="8.8186" y1="19.6788" x2="15.3578" y2="19.6788"/></svg>