<?xml version="1.0" encoding="UTF-8"?><svg id="a" xmlns="http://www.w3.org/2000/svg" viewBox="0 0 48 48"><defs><style>.b{fill:none;stroke:#000;stroke-linecap:round;stroke-linejoin:round;}</style></defs><circle class="b" cx="24" cy="24.0223" r="4.4685"/><circle class="b" cx="14.5267" cy="24.0223" r="1.7874"/><circle class="b" cx="33.4733" cy="24.0223" r="1.7874"/><circle class="b" cx="24" cy="14.549" r="1.7874"/><circle class="b" cx="24" cy="33.4957" r="1.7874"/><path class="b" d="m14.1692,30.2783v3.5748h4.0217"/><path class="b" d="m18.1909,14.1915h-4.0217v3.8839"/><g><path class="b" d="m24,6.8631l-4.2004-.0894c-.6138-.0432-1.3293-.1332-1.8321-.715-.9886-.7531-2.0199-.9119-3.128,0-1.2006,1.2374-1.0617,2.4237,0,3.5748.7138.6205,1.5535.6778,2.4577.4469.4756-.1497.91-.0847,1.3406,0,1.3406,1.7874,1.7874,4.2451,1.1171,8.2668-.6044.3255-1.1285.7683-1.564,1.3406-2.78.5717-5.4866.4423-8.0434-1.1171-.1264-.4951-.1117-.9696,0-1.4299.4469-1.7874-.6256-2.9492-2.1449-3.128-1.2512-.0894-2.5119.7985-2.5024,2.413.0381.5271.2015,1.039.6256,1.5193.4727.4151.716.9488.715,1.6087l.0894,4.3792m0,0l-.1341,4.3345c-.0752.6442-.2899,1.2428-.6703,1.7874-.7531.9886-.9119,2.0199,0,3.128,1.2374,1.2006,2.4237,1.0617,3.5748,0,.6205-.7138.6778-1.5535.4469-2.4577-.1497-.4756-.0847-.91,0-1.3406,1.7874-1.3406,4.2451-1.7874,8.2668-1.1171.3201.588.7508,1.1178,1.3406,1.564.5717,2.78.4423,5.4866-1.1171,8.0434-.4951.1264-.9696.1117-1.4299,0-1.7874-.4469-2.9492.6256-3.128,2.1449-.0894,1.2512.7985,2.5119,2.413,2.5024.5271-.0381,1.039-.2015,1.5193-.6256.4151-.4727.9488-.716,1.6087-.715l4.3792-.0894m0,0l4.2004.0894c.8205.0273,1.3449.3395,1.7427.7597.9886.7531,2.0199.9119,3.128,0,1.2006-1.2374,1.0617-2.4237,0-3.5748-.7138-.6205-1.5535-.6778-2.4577-.4469-.4756.1497-.91.0847-1.3406,0-1.3406-1.7874-1.7874-4.2451-1.1171-8.2668.6974-.3686,1.2353-.8116,1.564-1.3406,2.78-.5717,5.4866-.4423,8.0434,1.1171.1264.4951.1117.9696,0,1.4299-.4469,1.7874.6256,2.9492,2.1449,3.128,1.2512.0894,2.5119-.7985,2.5024-2.413-.0381-.5271-.2015-1.039-.6256-1.5193-.4727-.4151-.6266-1.0828-.6256-1.7427l-.0894-4.2898m0,0l.1341-4.3345c.0752-.6442.2899-1.2428.6703-1.7874.7531-.9886.9119-2.0199,0-3.128-1.2374-1.2006-2.4237-1.0617-3.5748,0-.6205.7138-.6778,1.5535-.4469,2.4577.1497.4756.0847.91,0,1.3406-1.7874,1.3406-4.2451,1.7874-8.2668,1.1171-.317-.6827-.7695-1.1811-1.3406-1.564-.5717-2.78-.4423-5.4866,1.1171-8.0434.4951-.1264.9696-.1117,1.4299,0,1.7874.4469,2.9492-.6256,3.128-2.1449.0894-1.2512-.7985-2.5119-2.413-2.5024-.5271.0381-1.039.2015-1.5193.6256-.4151.4727-.9488.716-1.6087.715l-4.3792.0894"/><path class="b" d="m29.8091,14.1915h4.0217v3.8839"/><path class="b" d="m33.8308,30.2783v3.5748h-4.0217"/></g></svg>