<svg id="Layer_2" data-name="Layer 2" xmlns="http://www.w3.org/2000/svg" viewBox="0 0 48 48"><defs><style>.cls-1{fill:none;stroke:#000;stroke-linecap:round;stroke-linejoin:round;}</style></defs><path class="cls-1" d="M40.48,15.76c0-5.58-5.85-11.26-11.6-11.26A1.87,1.87,0,0,0,27,6.18L25.48,22.05a15.16,15.16,0,0,1-5.26-4.33,7.83,7.83,0,0,1,.74-.58c.57-.39-1.08-3.78-1.77-4.61s-1.91.67-6.5,3.48S7,21.81,7.75,22.65s3.61-.41,5.18-1.35,4.46-.07,4.73-.05c.08,0,.19-.15.33-.39,1.61,1.83,4.15,4.18,7.12,5l-1,10.59A8.16,8.16,0,0,1,23,36.32c-.68-.13-1.9,3.44-2,4.51S22.77,41.71,28,43s7.84.09,8.18-1.2c.28-1-2.84-2.26-4.61-2.71s-3.21-3.1-3.39-3.31c0,0-.15,0-.3,0l.94-9.66C36.35,25.37,40.48,20.44,40.48,15.76ZM30.55,8.48c3.17.94,6.2,4.29,6.2,7.28,0,2.79-2.58,5.73-7.55,6.51Z"/><line class="cls-1" x1="20.22" y1="17.72" x2="17.99" y2="20.86"/><line class="cls-1" x1="24.07" y1="36.45" x2="27.89" y2="35.74"/><line class="cls-1" x1="25.48" y1="22.05" x2="25.11" y2="25.86"/><line class="cls-1" x1="29.2" y1="22.27" x2="28.83" y2="26.08"/></svg>