<svg id="Layer_2" data-name="Layer 2" xmlns="http://www.w3.org/2000/svg" viewBox="0 0 48 48"><defs><style>.cls-1{fill:none;stroke:#000;stroke-linecap:round;stroke-linejoin:round;}</style></defs><path class="cls-1" d="M18.17,15.39H9L5.63,31.56h0A10.94,10.94,0,0,0,16.57,42.5H24"/><path class="cls-1" d="M5.63,31.56H12a5,5,0,0,0,5,5H24"/><line class="cls-1" x1="24" y1="30.52" x2="24" y2="5.5"/><line class="cls-1" x1="13.08" y1="21.11" x2="24" y2="30.52"/><path class="cls-1" d="M29.83,15.39H39l3.41,16.17h0A10.94,10.94,0,0,1,31.43,42.5H24"/><path class="cls-1" d="M42.37,31.56H36a5,5,0,0,1-5,5H24"/><line class="cls-1" x1="34.92" y1="21.11" x2="24" y2="30.52"/></svg>