<svg xmlns="http://www.w3.org/2000/svg" viewBox="0 0 48 48"><defs><style>.a{fill:none;stroke:#000;stroke-linecap:round;stroke-linejoin:round;}.b{fill:#000;}</style></defs><path class="a" d="M7.5,5.5a2,2,0,0,0-2,2v33a2,2,0,0,0,2,2h33a2,2,0,0,0,2-2V7.5a2,2,0,0,0-2-2Z"/><path class="a" d="M11.6351,22.35V10.5h3.8793a3.98,3.98,0,0,1,0,7.9591H11.6351"/><polyline class="a" points="11.635 37.5 11.635 25.65 19.485 37.5 19.485 25.65"/><circle class="b" cx="24" cy="24.0045" r="0.75"/><line class="a" x1="24" y1="27.4458" x2="24" y2="37.5"/><line class="a" x1="24" y1="10.5" x2="24" y2="20.5542"/><path class="a" d="M36.3649,18.3758v.0486A3.9251,3.9251,0,0,1,32.44,22.35h0a3.9252,3.9252,0,0,1-3.9252-3.9251V14.4252A3.9252,3.9252,0,0,1,32.44,10.5h0a3.9252,3.9252,0,0,1,3.9251,3.9252v.0485"/><path class="a" d="M36.3649,33.5263v.0485A3.9252,3.9252,0,0,1,32.44,37.5h0a3.9252,3.9252,0,0,1-3.9252-3.9252V29.5756A3.9252,3.9252,0,0,1,32.44,25.6505h0a3.9251,3.9251,0,0,1,3.9251,3.9251v.0486"/></svg>