<?xml version="1.0" encoding="UTF-8"?><svg id="a" xmlns="http://www.w3.org/2000/svg" viewBox="0 0 48 48"><defs><style>.u{fill:#000;}.v{fill:none;stroke:#000;stroke-linecap:round;stroke-linejoin:round;}</style></defs><rect id="b" class="v" x="35.6239" y="31.7627" width="5.4481" height="8.2236" rx="2.65" ry="2.65"/><g id="c"><path id="d" class="v" d="m28.6549,39.9863v-8.2236h2.6922c1.522,0,2.7559,1.2365,2.7559,2.7618s-1.2339,2.7618-2.7559,2.7618h-2.6922"/><line id="e" class="v" x1="31.3471" y1="37.2864" x2="34.0391" y2="39.9843"/></g><path id="f" class="v" d="m21.6859,39.9863v-8.2236h2.6922c1.522,0,2.7559,1.2365,2.7559,2.7618s-1.2339,2.7618-2.7559,2.7618h-2.6922"/><g id="g"><path id="h" class="v" d="m37.7564,20.8772v2.5258c0,1.0333-.8376,1.8709-1.8709,1.8709h0c-.5166,0-.9843-.2094-1.3229-.548"/><path id="i" class="v" d="m37.7564,17.7902v3.087c0,1.0333-.8376,1.8709-1.8709,1.8709h0c-1.0333,0-1.8709-.8376-1.8709-1.8709v-3.087"/></g><g id="j"><path id="k" class="v" d="m32.3919,20.6901c0,1.0333-.8376,1.8709-1.8709,1.8709h0c-1.0333,0-1.8709-.8376-1.8709-1.8709v-1.2161c0-1.0333.8376-1.8709,1.8709-1.8709h0c1.0333,0,1.8709.8376,1.8709,1.8709"/><line id="l" class="v" x1="32.3919" y1="22.5611" x2="32.3919" y2="17.6031"/></g><path id="m" class="v" d="m22.5435,21.7411c.4589.5974,1.0343.82,1.8349.82h1.1079c1.0311,0,1.8669-.8358,1.8669-1.8669v-.008c0-1.0311-.8358-1.8669-1.8669-1.8669h-1.2221c-1.0322,0-1.8689-.8367-1.8689-1.8689h0c0-1.0344.8385-1.8729,1.8729-1.8729h1.1019c.8006,0,1.376.2225,1.8349.82"/><path id="n" class="v" d="m21.2072,21.6187c-.3225.563-.9292.9423-1.6246.9423h0c-1.0333,0-1.8709-.8376-1.8709-1.8709v-1.2161c0-1.0333.8376-1.8709,1.8709-1.8709h0c.694,0,1.2997.3779,1.6227.9391"/><g id="o"><circle id="p" class="u" cx="16.086" cy="15.3112" r=".75"/><line id="q" class="v" x1="16.086" y1="17.6031" x2="16.086" y2="22.5611"/></g><path id="r" class="v" d="m9.611,22.5611v-7.4837h2.45c1.3851,0,2.5079,1.1253,2.5079,2.5134s-1.1229,2.5134-2.5079,2.5134h-2.45"/><path id="s" class="v" d="m15.2532,28.8931c-4.4034-1.4917-9.3414-5.2787-9.5863-9.8754-.3301-6.1976,8.2101-11.2377,18.3377-11.2377s18.3377,5.0313,18.3377,11.2377c-.4308,8.6596-10.9202,11.4038-18.811,11.234-.1568-.0025-.3141-.0062-.4704-.011"/><path id="t" class="v" d="m15.2532,28.8931l-1.2131,11.3269,9.0209-9.9792"/></svg>