<?xml version="1.0" encoding="UTF-8"?><svg id="b" xmlns="http://www.w3.org/2000/svg" viewBox="0 0 48 48"><defs><style>.c{fill:none;stroke:#000;stroke-linecap:round;stroke-linejoin:round;}</style></defs><path class="c" d="m14.7155,18.0651c-3.1363.4839-5.6744,1.1623-7.301,3.2286-1.7034,2.1637-2.4214,5.7693-2.4214,8.6218,0,2.6597-.0429,6.1373,2.6049,8.2182,2.9039,2.2822,8.6834,3.0452,12.6942,3.0452,4.2429,0,9.7694-.1687,12.7676-2.8617,2.4204-2.174,2.7891-6.3881,2.6416-10.4196-.3302-9.0254-4.6961-10.0527-10.3462-11.0066,3.2653-2.3114,6.127-8.9153,6.2371-11.8137-5.1731,2.3848-7.0809,4.4393-8.9887,10.1627-2.825-.8071-6.2004.8071-6.2004.8071-2.8617-4.9163-7.3377-6.4939-9.8325-7.191.2568,4.9896,8.1449,9.2088,8.1449,9.2088Z"/><path class="c" d="m35.7295,31.4381l1.4577.1834-.2201-1.706,2.2197.532-.2752-2.8434,3.0085.5136s1.7977-1.5776,2.0729-3.357l-7.1359.2018.4219,3.1552-1.5495.2201"/><path class="c" d="m28.4958,6.7229c1.103,1.1428,1.7017,3.3141,1.7017,3.3141"/><path class="c" d="m9.8059,10.037c-.557,1.3508.0387,4.5013.0387,4.5013"/><path class="c" d="m8.1752,38.5441c-.7608,1.1123-.7791,2.1763-.7791,2.1763,0,0,.6952.8227,5.8967-.2582"/><path class="c" d="m31.3894,39.4527c1.5603,1.1576,1.5786,2.3317.5513,2.6619s-5.7809.3182-7.1188-1.0791"/><path class="c" d="m20.5815,20.6507c3.2567-.0329,7.6169,3.2768,7.1829,9.4397-.434,6.163-2.0833,8.0075-11.1975,7.2046-9.1142-.8029-8.6974-3.7077-8.4415-9.2661s3.8627-7.2914,12.4561-7.3782Z"/></svg>