<svg xmlns="http://www.w3.org/2000/svg" viewBox="0 0 48 48"><defs><style>.a{fill:none;stroke:#000;stroke-linecap:round;stroke-linejoin:round;}.b{fill:#000;}</style></defs><path class="a" d="M40.5,5.5H7.5a2,2,0,0,0-2,2v33a2,2,0,0,0,2,2h33a2,2,0,0,0,2-2V7.5A2,2,0,0,0,40.5,5.5Z"/><rect class="a" x="8.061" y="9.0792" width="31.878" height="8.5386" rx="1.2644"/><circle class="b" cx="35.746" cy="13.348" r="0.75"/><circle class="b" cx="32.092" cy="13.348" r="0.75"/><circle class="b" cx="28.438" cy="13.348" r="0.75"/><circle class="a" cx="13.76" cy="13.348" r="2.911"/><rect class="a" x="8.061" y="19.731" width="31.878" height="8.5386" rx="1.2644"/><circle class="b" cx="35.746" cy="23.999" r="0.75"/><circle class="b" cx="32.092" cy="23.999" r="0.75"/><circle class="b" cx="28.438" cy="23.999" r="0.75"/><circle class="a" cx="13.76" cy="23.999" r="2.911"/><rect class="a" x="8.061" y="30.382" width="31.878" height="8.5386" rx="1.2644"/><circle class="b" cx="35.746" cy="34.651" r="0.75"/><circle class="b" cx="32.092" cy="34.651" r="0.75"/><circle class="b" cx="28.438" cy="34.651" r="0.75"/><circle class="a" cx="13.76" cy="34.651" r="2.911"/></svg>