<?xml version="1.0" encoding="UTF-8"?>
<svg id="a" xmlns="http://www.w3.org/2000/svg" version="1.1" viewBox="0 0 48 48">
  <defs>
    <style>
      .cls-1 {
        fill: none;
        stroke:#000;
        stroke-linecap: round;
        stroke-linejoin: round;
      }
    </style>
  </defs>
  <path class="cls-1" d="M38.5,5.5H9.5c-2.2,0-4,1.8-4,4v29c0,2.2,1.8,4,4,4h29c2.2,0,4-1.8,4-4V9.5c0-2.2-1.8-4-4-4ZM38.6,22.1h-7.7v-4.9h-4.9v-7.7h11.7c.6,0,1,.4,1,1v11.7ZM27,21v6h-6v-6h6ZM22.1,9.4v7.7h-5s0,4.9,0,4.9h-7.7v-11.7c0-.6.4-1,1-1h11.7ZM37.6,38.6H10.4c-.6,0-1-.4-1-1v-11.7h7.7v4.9h13.8v-4.9h7.7v11.7c0,.6-.4,1-1,1Z"/>
</svg>