<svg xmlns="http://www.w3.org/2000/svg" viewBox="0 0 48 48"><defs><style>.a{fill:none;stroke:#000;stroke-linecap:round;stroke-linejoin:round;}</style></defs><path class="a" d="M42.9426,29.8535c-.2706-1.5577-4.7375-5.5846-6.8575-6.0408"/><path class="a" d="M32.95,27.6523a53.2,53.2,0,0,1,3.6967-4.507c1.0269-.9262,1.9556-5.0592.5447-8.1206S34.69,8.5379,31.83,6.377s-12.9426-2.3411-18.2046.3268-7.99,8.9233-7.7037,9.731,1.5516,1.1116,1.5516,1.1116"/><path class="a" d="M7.4723,17.5469s.5229-1.261,2.9367-.4768,4.3184,5.3893,2.0694,7.3587-3.71,1.1832-4.7623.3755-.6265,1.49,1.06,3.65"/><path class="a" d="M8.7763,28.4542s1.4567.4966,1.6867-.723"/><path class="a" d="M13.6455,33.7655s9.9116.3033,10.7071.0836,1.458-2.79.0572-4.13-2.0366-2.4592-6.3963-2.4169-7.5506.4288-7.5506.4288"/><path class="a" d="M17.5393,27.6973s-.1461,1.9574.6118,2.2546c.6135.1171,1.6877.314,1.9992-.5454-.2348-.9357-.3858-1.8053-.388-1.8052"/><path class="a" d="M21.3121,27.921s-.0218,1.1625.5387,1.4364a1.3762,1.3762,0,0,0,1.5807-.3857"/><path class="a" d="M13.1594,27.7241s-1.3288,2.13.2306,2.5081,3.4858.2793,3.0518-.7854-.5523-1.8584-.4238-1.9219"/><path class="a" d="M14.06,33.5856s-.9463-1.7316-.3021-1.8047,2.02-.3923,2.5511.5481c.1346.7489.0213.5051-.1311,1.4324"/><path class="a" d="M21.08,33.8908a5.1023,5.1023,0,0,1-.6043-2.4512c.07-.7875,1.2745-.5637,1.8838-.5637s1.3736.1025,1.2367,1.0837-.396,1.94-.9545,1.93"/><path class="a" d="M13.1755,32.6788s-1.77,1.1716-1.0666,2.04,1.8268.7072,2.7531.6778"/><path class="a" d="M14.5448,35.5341s-1.0743,1.7142.1137,2.1464,7.047.2064,7.355.1023,5.4913-2.5373,5.6025-2.73,2.2923-3.2511,2.2923-3.2511"/><path class="a" d="M28.7881,33.6509a19.1324,19.1324,0,0,0,5.0577-4.279"/><path class="a" d="M21.3057,37.8927a8.7909,8.7909,0,0,0-1.0514,1.4129A4.3142,4.3142,0,0,0,21.033,43.5"/><path class="a" d="M33.7964,26.8237s1.5121,9.1693-2.9151,12.8526"/><path class="a" d="M28.5162,33.95c.4108-.0333,3.0512,3.4963,2.3649,5.727"/><path class="a" d="M22.83,37.428a11.82,11.82,0,0,0,.077,3.1913A3.3159,3.3159,0,0,0,24.31,41.8171"/><path class="a" d="M24.7883,36.8885a3.0707,3.0707,0,0,0,2.31,1.391,3.7539,3.7539,0,0,0,2.7986-2.1316"/><path class="a" d="M25.8215,38.1828s-1.3037,3.8877-1.5479,5.0483"/><path class="a" d="M29.23,37.2728a35.115,35.115,0,0,0-.5079,5.2719"/><path class="a" d="M14.0651,11.5707s.9406.8713,2.875-.0808a6.6677,6.6677,0,0,1,4.5761-.6125"/><path class="a" d="M22.1354,12.8747a4.682,4.682,0,0,0-4.0189.3417c-2.4278,1.3023-5.2864.6766-6.1012-.6841"/><path class="a" d="M17.808,21.4278a.57.57,0,0,1,.8441.2793c.3433.6159.9947,2.031.4774,2.4209"/><path class="a" d="M15.6079,22.6462s-.3687-.2554-.71.2338a1.22,1.22,0,0,0-.0479,1.4352"/><circle class="a" cx="26.2669" cy="19.8733" r="5.0888"/><path class="a" d="M34.3564,26.1053s4.302,5.6493,3.0088,11.615"/><path class="a" d="M12.1884,8.4349A2.806,2.806,0,0,1,10.9949,4.73"/><path class="a" d="M9.3523,10.0729s-.36-1.946-2.268-.4271-2.1525-1.2247-1.63-1.5252"/><path class="a" d="M7.84,11.6949a2.459,2.459,0,0,0-2.7821,1.1158"/><path class="a" d="M30.2677,7.3108c.2113-.1969.8762-2.5676,2.5488-2.8108"/><path class="a" d="M36.1743,15.4924a2.16,2.16,0,0,1,2.1733-.9718"/><circle class="a" cx="26.8018" cy="19.5731" r="1"/><circle class="a" cx="9.1529" cy="20.9046" r="0.9552"/><path class="a" d="M7.3717,24.6246A4.0227,4.0227,0,0,1,5.7732,21.264a4.273,4.273,0,0,1,4.0056-4.3274"/><path class="a" d="M13.89,31.8138a.9491.9491,0,0,0-.1789-1.4582"/><path class="a" d="M29.7142,30.0558a8.2744,8.2744,0,0,0,1.584-2.0411c.217-.7034-.3332-1.2169-.1124-1.83a5.3534,5.3534,0,0,1,1.4185-1.5137"/></svg>