<svg xmlns="http://www.w3.org/2000/svg" viewBox="0 0 48 48"><defs><style>.a{fill:none;stroke:#000;stroke-linecap:round;stroke-linejoin:round;}</style></defs><path class="a" d="M34.42,14.9871h0a2.2417,2.2417,0,0,1-2.2351-2.2352V11.2991A2.2417,2.2417,0,0,1,34.42,9.064h0a2.2418,2.2418,0,0,1,2.2352,2.2351v1.4528A2.2418,2.2418,0,0,1,34.42,14.9871Z"/><path class="a" d="M21.34,9.064v3.6879a2.2417,2.2417,0,0,0,2.2351,2.2351h0A2.2417,2.2417,0,0,0,25.81,12.7519V9.064"/><line class="a" x1="25.8101" y1="12.7519" x2="25.8101" y2="14.9871"/><line class="a" x1="29.3495" y1="7.1641" x2="29.3495" y2="14.9871"/><line class="a" x1="28.1202" y1="9.064" x2="30.467" y2="9.064"/><path class="a" d="M18.1889,6.0466V13.87a1.0558,1.0558,0,0,0,.99,1.1176,1.0813,1.0813,0,0,0,.1273,0h.3352"/><path class="a" d="M11.3676,12.7519a2.2418,2.2418,0,0,0,2.2351,2.2352h0a2.2417,2.2417,0,0,0,2.2352-2.2352V11.2991A2.2418,2.2418,0,0,0,13.6027,9.064h0a2.2417,2.2417,0,0,0-2.2351,2.2351"/><line class="a" x1="11.3676" y1="9.064" x2="11.3676" y2="18.0045"/><path class="a" d="M28.7888,27.9572v6.1166A1.7063,1.7063,0,0,0,30.4951,35.78h0"/><polyline class="a" points="27.559 29.857 32.801 29.857 35.036 35.78 37.271 29.857"/><circle class="a" cx="32.4153" cy="31.8687" r="10.0847"/><path class="a" d="M22.3305,31.8687a10.0828,10.0828,0,0,1,7.2815-9.6816,10.0847,10.0847,0,1,0,0,19.3632A10.083,10.083,0,0,1,22.3305,31.8687Z"/><path class="a" d="M11.1287,31.8687A10.0828,10.0828,0,0,1,18.41,22.1871a10.0847,10.0847,0,1,0,0,19.3632A10.083,10.083,0,0,1,11.1287,31.8687Z"/><path class="a" d="M16.7241,31.8687a10.0827,10.0827,0,0,1,7.2814-9.6816,10.0847,10.0847,0,1,0,0,19.3632A10.0829,10.0829,0,0,1,16.7241,31.8687Z"/></svg>