<?xml version="1.0" encoding="UTF-8"?><svg id="b" xmlns="http://www.w3.org/2000/svg" viewBox="0 0 48 48"><defs><style>.c{fill:none;stroke:#000;stroke-linecap:round;stroke-linejoin:round;}</style></defs><path class="c" d="M25.9459,13.5786c-.9342-3.5121-3.6394-6.5113-7.5855-7.5673-4.0667-1.0883-8.4901.4269-11.0734,3.7509-1.4593,1.8777-2.1382,3.9753-2.2351,6.0475-.6415,8.1125,4.8257,19.527,7.493,24.549.8111,1.5271,2.559,2.2942,4.232,1.8572,5.5018-1.437,17.6034-5.1414,23.1395-11.1069.9188-.9228,1.6592-2.0074,2.1839-3.1993,2.3617-5.3819-.0868-11.6598-5.4687-14.0215-3.0793-1.3513-6.4469-1.1204-9.2104.3285-.5925.3107-1.3033.0083-1.4753-.6382Z"/></svg>