<?xml version="1.0" encoding="UTF-8"?><svg id="a" xmlns="http://www.w3.org/2000/svg" viewBox="0 0 48 48"><defs><style>.ab{fill:none;stroke:#000;stroke-linecap:round;stroke-linejoin:round;}</style></defs><g id="b"><path id="c" class="ab" d="M25.1074,23.0248l.0955.0004"/><path id="d" class="ab" d="M27.5127,22.9791c.2331.0575.4661.149.6992.309"/><path id="e" class="ab" d="M23.083,22.7642c-.3316.036-.6529.1124-.9948.2218"/><path id="f" class="ab" d="M29.3742,24.2995c.4282-1.0554,1.3947-1.3312,2.229-1.2951,1.144.0495,2.199.909,2.0907,1.8734-.1511,1.3448-.8843,1.9696-2.1426,1.9707-1.4307.0013-2.7925-1.0321-2.177-2.5491Z"/><path id="g" class="ab" d="M18.9616,22.5719c.9003-.0434,1.7406.5679,1.7188,2.0138-.0779,1.3544-1.1865,1.7581-1.7705,1.7689-1.4744.0272-2.3449-.8363-2.3035-1.8922.0651-1.6583,1.2871-1.8389,2.3552-1.8905Z"/><g id="h"><path id="i" class="ab" d="M22.7524,24.6813c.2922.9315,1.3859.7956,2.2942.0819.6707.5135,1.301.9942,2.2289.1757"/><path id="j" class="ab" d="M26.1388,25.3646c-.0883.928-.434,1.8136-1.0954,1.8336-.9088.0274-.9401-1.5262-1.0155-1.9071"/></g></g><g id="k"><path id="l" class="ab" d="M31.6922,37.6525c2.4951-.2019,8.3972-1.6193,5.4461-4.3604,1.4773-.6355,3.1486-1.2032,3.5142-2.1958.3904-1.0597-.4252-1.6179-1.5114-2.5112l3.4282-1.4989c.6675-.2918,1.0988-.9942.8678-1.7464-.7246-2.359-1.2207-3.581-2.7833-5.0755-1.0424-.997-2.4122-.6307-4.3446.6167-.4836.3122-.7923.6666-1.1458,1.1635"/><path id="m" class="ab" d="M34.5068,34.749l.5052.6139c.321-.6032.7028-.5818.9673-.2337.1392-.6832.6079-.763.9657-.505.2154-.1385.3097-.8624.6463-.4155"/></g><g id="n"><path id="o" class="ab" d="M15.2453,27.1609c1.3452-.0762,2.0149,1.0355,2.3063,1.7038.44,1.009.0415,2.6197-1.586,2.8649-1.0225.1541-2.1869-.5743-2.5219-1.8488-.2101-.7995-.015-2.617,1.8016-2.7199Z"/><path id="p" class="ab" d="M18.4661,36.1102c.5442,1.5385-1.0669,1.1501-1.8237.2879-.7971-.908-1.0405-1.3315-1.3015-2.0815-.4134-1.1876.4823-1.9843,1.5941-.8282.7843.8155,1.0611,1.2928,1.5312,2.6219Z"/><path id="q" class="ab" d="M28.2428,36.5003c-.2735,1.609,1.2475.9504,1.846-.0286.6304-1.0312.7979-1.4901.927-2.2737.2046-1.2409-.814-1.8725-1.712-.5431-.6335.9378-.8248,1.4554-1.0611,2.8454Z"/><path id="r" class="ab" d="M32.6534,29.7622c.8076-2.2944,2.4273-2.8973,3.2778-2.3518,1.371.8792.6081,3.301-1.6309,4.2997.6541,2.9067-.5585,5.4678-2.7972,5.959-3.5866,1.1562-7.5121.6363-10.1911.4272-3.1733-.0924-4.0678-.2282-4.2206-1.0621"/><path id="s" class="ab" d="M36.0886,27.3885c.4514-3.7949-1.2509-6.5742-3.2146-7.9509,1.1288-1.2607,2.4355-2.2357,2.5294-5.1571.1418-1.9725-2.7439-1.2673-3.8684-.7247-2.1556,1.0401-2.7677,1.9256-3.8796,3.8321l-1.4496-.0939c2.0785-1.9838,2.8168-5.8999,1.0044-6.1681-2.1913-.3242-4.5067,2.2527-4.9631,2.9367-1.0062,1.508-1.2205,2.6288-.7094,3.3558-2.9547.2964-5.6318,1.913-7.2634,4.5294"/><path id="t" class="ab" d="M31.4981,13.5765c1.4536.8416,2.6998,2.781,2.8154,4.222"/><path id="u" class="ab" d="M22.756,13.5156c1.8985-.8143,4.8352-.3473,5.3134.2366"/></g><g id="v"><path id="w" class="ab" d="M16.1301,31.7297l2.849,3.6666c.312.4015.8736.7815,1.3692.67,1.2387-.2788,2.0825-1.4403,2.1185-1.7275.0474-.3785.0915-.5026-.1316-.8229L8.2017,13.2297c-.4684-.6723-1.6217-1.3207-2.2142-1.0633-.4206.1828-.8539.2155-1.2618.9278-.5048.8815-.0702,1.679.4013,2.3757l8.5414,12.6213"/><path id="x" class="ab" d="M13.2344,20.4372c2.0736-1.2701,3.3376-1.7211,4.0395-3.2214.164-.3505-.0069-1.0619-.1638-1.5132-.7209-2.0742-3.3311-5.7964-4.2892-6.029-.3975-.0965-.7096-.0869-1.0303,0-1.844.4995-3.2497,1.5616-4.6409,2.6799"/><path id="y" class="ab" d="M16.8146,15.0233c-1.9481,1.4601-3.0747,2.1369-5.0145,3.314"/><path id="z" class="ab" d="M15.693,12.9505c-1.7592,1.1559-3.5031,2.2461-5.382,3.3068"/><path id="aa" class="ab" d="M9.0082,14.3884c1.6919-1.3014,3.6072-2.4316,5.3806-3.2784"/></g></svg>