<svg xmlns="http://www.w3.org/2000/svg" viewBox="0 0 48 48"><defs><style>.a{fill:none;stroke:#000;stroke-linecap:round;stroke-linejoin:round;}</style></defs><path class="a" d="M40.5,5.5H7.5a2,2,0,0,0-2,2v33a2,2,0,0,0,2,2h33a2,2,0,0,0,2-2V7.5A2,2,0,0,0,40.5,5.5Z"/><path class="a" d="M15.1482,24.6078a3.246,3.246,0,0,0,3.2764,3.9777h0a4.9512,4.9512,0,0,0,4.679-3.9777l.4559-2.5855a3.246,3.246,0,0,0-3.2763-3.9777h0a4.9514,4.9514,0,0,0-4.6791,3.9777"/><line class="a" x1="16.3055" y1="18.0446" x2="13.5" y2="33.9554"/><path class="a" d="M26.0267,24.6078a3.246,3.246,0,0,0,3.2763,3.9777h0a4.9514,4.9514,0,0,0,4.6791-3.9777l.4559-2.5855a3.246,3.246,0,0,0-3.2764-3.9777h0a4.9512,4.9512,0,0,0-4.679,3.9777"/><line class="a" x1="27.1839" y1="18.0446" x2="24.3784" y2="33.9554"/></svg>