<svg xmlns="http://www.w3.org/2000/svg" viewBox="0 0 48 48"><defs><style>.a{fill:none;stroke:#000;stroke-linecap:round;stroke-linejoin:round;}.b{fill:#000;}</style></defs><path class="a" d="M15.6239,32.4347c-.2582-.8785-.2112-1.9179-.4292-2.9373a9.6229,9.6229,0,0,0-1.643-3.8594c-6.0322-8.0843.2213-14.9314,6.2234-15.0219,8.6342.0436,11.29,7.6585,8.6242,13.0234a37.9029,37.9029,0,0,0-2.2868,4.0338,13.2321,13.2321,0,0,0-1.1334,4.8151,28.5563,28.5563,0,0,1-9.3585-.057"/><path class="a" d="M15.6239,32.4347a1.802,1.802,0,0,0-.1173,2.6691,75.6256,75.6256,0,0,0,9.6234.1945,1.9977,1.9977,0,0,0-.1475-2.81"/><path class="a" d="M15.8117,35.3251a1.7857,1.7857,0,0,0,.1375,2.0857,42.9563,42.9563,0,0,0,8.6711.1441,1.8,1.8,0,0,0,.1341-2.2"/><path class="a" d="M17.4178,37.6824a1.4318,1.4318,0,0,0,.1543,1.8106c.7377.7042,4.0271.7344,5.2174.0906.6572-.5265.6-1.08.3689-1.8241m1.1,2.5618h6.0691M27.9567,27.7639H39.4243m-9.3317-3.7455H37.01c2.4343-.057,2.5584,1.4218,2.5684,1.8308v7.4037m-5.2174-11.424V25.182m1.1233,10.7031.9523,2.6523,2.4042-.6438M6.5135,17.1177l2.0521.4158m-.8885-6.4581,2.2734,1.633m2.4444-6.9979,1.8442,3.6381m6.039-.8886L20.2613,4.5m8.034,1.2574-2.19,3.4872m4.2685,3.5879,2.6389-1.8375M31.93,17.4128l2.3639-.3252"/><circle class="b" cx="28.2719" cy="30.8152" r="0.75"/><circle class="b" cx="32.2486" cy="30.8018" r="0.75"/><circle class="b" cx="36.2388" cy="30.8018" r="0.75"/><circle class="b" cx="28.2484" cy="36.0393" r="0.75"/><path class="a" d="M16.6131,23.1668c.6472-.0168,1.2172.8852,1.6631.8852.6371-.0336,1.3178-.8987,1.9683-.8584.5633-.0134,1.3278.8852,1.8576.8584.59,0,.8718-.902,1.61-.9389"/><path class="a" d="M22.2765,24.052l-2.0454,7.93-2.0923-7.9435"/><circle class="a" cx="36.6177" cy="38.6313" r="4.8687"/></svg>