<?xml version="1.0" encoding="UTF-8"?><svg id="b" xmlns="http://www.w3.org/2000/svg" viewBox="0 0 48 48"><defs><style>.c{fill:none;stroke:#000;stroke-linecap:round;stroke-linejoin:round;}.d{fill:#000;stroke-width:0px;}</style></defs><path class="c" d="m35.0638,42.5H12.9362c-4.1069,0-7.4362-3.3293-7.4362-7.4362V12.9362c0-4.1069,3.3293-7.4362,7.4362-7.4362h22.1277c4.1069,0,7.4362,3.3293,7.4362,7.4362v22.1277c0,4.1069-3.3293,7.4362-7.4362,7.4362Z"/><line class="c" x1="9.1968" y1="20.367" x2="9.1968" y2="23.2394"/><line class="c" x1="38.8191" y1="21.6489" x2="38.8191" y2="24.5213"/><line class="c" x1="30.3556" y1="23.5851" x2="30.3556" y2="30.8617"/><line class="c" x1="26.1239" y1="26.1489" x2="26.1239" y2="35.1596"/><line class="c" x1="21.8921" y1="22.5957" x2="21.8921" y2="31.0638"/><line class="c" x1="17.6603" y1="20.367" x2="17.6603" y2="27.3936"/><line class="c" x1="13.4286" y1="17.1277" x2="13.4286" y2="23.8723"/><line class="c" x1="34.5874" y1="21.6489" x2="34.5874" y2="27.5851"/><circle class="d" cx="26.1239" cy="35.2447" r=".75"/></svg>