<?xml version="1.0" encoding="UTF-8"?><svg id="b" xmlns="http://www.w3.org/2000/svg" viewBox="0 0 48 48"><defs><style>.c{fill:none;stroke:#000;stroke-linecap:round;stroke-linejoin:round;}</style></defs><path class="c" d="m44.84,18.717c.438,1.7269.6597,3.5015.66,5.283h0c0,11.8741-9.6259,21.5-21.5,21.5-1.7729,0-3.539-.2194-5.258-.653"/><path class="c" d="m3.153,29.258c-.4336-1.719-.653-3.4851-.653-5.258C2.5,12.1259,12.1259,2.5,24,2.5c1.7815.0003,3.5561.222,5.283.66"/><path class="c" d="m33.487,12.724l-7.53,7.969"/><path class="c" d="m27.307,22.043l7.969-7.53"/><path class="c" d="m35.276,14.513l5.362.193,3.501-3.742-1.043-6.06-6.06-1.043-3.742,3.5.193,5.363,1.789,1.789Z"/><path class="c" d="m13.663,31.526l-1.468,3.557.722.722,3.557-1.468"/><path class="c" d="m16.474,34.337l10.626-10.627.207-1.667-1.35-1.35-1.667.207-10.627,10.626,2.811,2.811Z"/><path class="c" d="m12.556,35.444l-6.608,6.608"/></svg>