<svg xmlns="http://www.w3.org/2000/svg" id="a" viewBox="0 0 48 48"><defs><style>.c{fill:none;stroke:#000;stroke-linecap:round;stroke-linejoin:round;}</style></defs><path class="c" d="m16.7012,36.15v-13.64m0-4.999v-5.6614h8.1434c4.9966,0,7.2472,4.0507,7.7544,5.6327m.0117,5.0281c-.5251,1.6831-2.8321,5.6613-7.7661,5.6613h-8.1434" id="b"/><rect class="c" x="11.9637" y="17.5113" width="24.0726" height="4.999"/><line class="c" x1="30.3529" y1="17.5113" x2="30.3529" y2="22.5106"/><path class="c" d="m40.5,5.5H7.5c-1.1046,0-2,.8954-2,2v33c0,1.1046.8954,2,2,2h33c1.1046,0,2-.8954,2-2V7.5c0-1.1046-.8954-2-2-2Z"/></svg>