<?xml version="1.0" encoding="UTF-8"?><svg id="a" xmlns="http://www.w3.org/2000/svg" viewBox="0 0 48 48"><defs><style>.b{fill:none;stroke:#000;stroke-linecap:round;stroke-linejoin:round;}</style></defs><path class="b" d="M33.31,34.99c.86-1.8,1.34-3.81,1.34-5.93,0-7.61-6.16-13.77-13.76-13.77-7.61,0-13.77,6.16-13.77,13.77,0,3.03,.98,5.84,2.64,8.11l-2.06,2.06c-2.25-3.18-3.57-7.06-3.57-11.24,0-10.78,8.74-19.53,19.53-19.53,10.78,0,19.53,8.75,19.53,19.53,0,4.36-1.43,8.39-3.85,11.64l-6.03-4.64Z"/><line class="b" x1="37.3893" y1="14.1059" x2="31.6627" y2="20.4939"/><line class="b" x1="10.0844" y1="13.9539" x2="13.1665" y2="17.6558"/><polygon class="b" points="11.3645 22.0748 28.3551 31.6636 25.4953 34.243 11.3645 22.0748"/></svg>