<?xml version="1.0" encoding="UTF-8"?><svg id="b" xmlns="http://www.w3.org/2000/svg" viewBox="0 0 48 48"><defs><style>.c{fill:none;stroke:#000;stroke-linecap:round;stroke-linejoin:round;}</style></defs><path class="c" d="m7.0723,34.3129c.7957,1.1914,1.8505,2.2246,3.132,2.9793,3.0937,1.8183,6.176,3.6398,9.2364,5.445,2.8497,1.6839,6.3282,1.6834,9.1779,0,3.0604-1.8052,6.1427-3.6267,9.2364-5.445,2.8786-1.6971,4.6977-4.751,4.7213-8.0202.0261-3.5147.0261-7.0293,0-10.5441-.023-3.2691-1.8421-6.3238-4.7213-8.0202-2.3218-1.3642-6.9454-4.0936-9.2364-5.445-2.851-1.6836-6.3269-1.6836-9.1779,0-3.0607,1.8051-6.143,3.6266-9.2364,5.445-1.2365.7289-2.2615,1.7177-3.0484,2.8565"/><rect class="c" x="9.7968" y="16.2721" width="3.8876" height="5.1511" rx="1.9438" ry="1.9438"/><path class="c" d="m19.8066,20.4442c-.3351.5849-.9654.979-1.6879.979h0c-1.0735,0-1.9438-.8703-1.9438-1.9438v-1.2635c0-1.0735.8703-1.9438,1.9438-1.9438h0c.721,0,1.3504.3926,1.6859.9757"/><path class="c" d="m14.8908,28.1721c-.3351.5849-.9654.979-1.6879.979h0c-1.0735,0-1.9438-.8703-1.9438-1.9438v-1.2635c0-1.0735.8703-1.9438,1.9438-1.9438h0c.721,0,1.3504.3926,1.6859.9757"/><polyline class="c" points="5.4041 21.4232 5.4041 16.2721 8.437 16.2721"/><path class="c" d="m20.6227,29.1511v-5.1511s-3.0329,0-3.0329,0c0,3.3034-.6138,5.0606-.6138,5.0606"/><polyline class="c" points="28.7465 29.1511 28.7465 24 31.7794 24"/><g><line class="c" x1="7.9158" y1="29.3322" x2="5.7725" y2="24"/><line class="c" x1="9.7968" y1="24" x2="7.2418" y2="31.2429"/></g><g><line class="c" x1="24.9653" y1="29.3322" x2="22.822" y2="24"/><line class="c" x1="26.8463" y1="24" x2="24.2912" y2="31.2429"/></g><g><path class="c" d="m33.5486,24v3.2073c0,1.0735.8703,1.9438,1.9438,1.9438h0c1.0735,0,1.9438-.8703,1.9438-1.9438v-3.2073"/><line class="c" x1="37.4362" y1="27.2073" x2="37.4362" y2="29.1511"/></g></svg>