<?xml version="1.0" encoding="UTF-8"?><svg id="a" xmlns="http://www.w3.org/2000/svg" viewBox="0 0 48 48"><defs><style>.b{fill:none;stroke:#000;stroke-linecap:round;stroke-linejoin:round;}</style></defs><path class="b" d="m19.7521,26.697s.981,2,3.28,2.617c2.3.616,4.1499-.626,4.1499-.626"/><path class="b" d="m26.634,22.105c1.231-.753,2.78-.21,3.614.969"/><path class="b" d="m19.6751,20.24c1.23-.754,2.78-.211,3.614.968"/><path class="b" d="m17.8391,13.3871l-2.553,10.2169c-1.04,4.1669.319,8.1599,6.0969,11.4069,6.6279.077,9.7999-2.701,10.9829-6.8299l2.899-10.1249s-3.424-2.246-8.3809-3.574c-4.9579-1.328-9.0459-1.095-9.0459-1.095h.001Z"/><path class="b" d="m42.0568,24c0,9.2549-1.21,11.4019-9.0289,16.0298-7.8179,4.6269-10.2379,4.6269-18.0558,0-7.8199-4.6279-9.0289-6.7749-9.0289-16.0298s1.21-11.4019,9.0289-16.0298c7.8179-4.6269,10.2379-4.6269,18.0558,0,7.8199,4.6279,9.0289,6.7749,9.0289,16.0298Z"/></svg>