<svg xmlns="http://www.w3.org/2000/svg" viewBox="0 0 48 48"><defs><style>.a{fill:none;stroke:#000;stroke-linecap:round;stroke-linejoin:round;}</style></defs><path class="a" d="M23.942,2.5044a21.4693,21.4693,0,0,1,18.99,31.5943l.55,2.079,1.929,7.1964a1.6691,1.6691,0,0,1-1.1794,1.999,1.6093,1.6093,0,0,1-.87,0l-7.1964-1.929-2.1089-.46a21.4893,21.4893,0,1,1-10.115-40.48Z"/><path class="a" d="M7.3,28.8c2.16.1038,3.56,4.0407,5.9,4,1.5582-2.3726.9411-6.0765-1.2-7.3C9.299,23.9565,7.1794,26.5155,7.3,28.8Z"/><path class="a" d="M16.5,36s2.4-.0454,3.2-.8a3.9234,3.9234,0,0,0,1-3.2c-.1655-1.4046-1.2513-2.7638-.7-4a4.6539,4.6539,0,0,1,4-2.5A4.6539,4.6539,0,0,1,28,28c.5513,1.2362-.5265,2.6692-.7,4a3.88,3.88,0,0,0,1,3.2c.8.7546,3.2.8,3.2.8s-4.8648,2.5-7.5,2.5S16.5,36,16.5,36Z"/><path class="a" d="M40.7,28.8c-2.16.1038-3.56,4.0407-5.9,4-1.5582-2.3726-.9411-6.0765,1.2-7.3C38.701,23.9565,40.8206,26.5155,40.7,28.8Z"/><circle class="a" cx="12.75" cy="20.5" r="2"/><circle class="a" cx="24" cy="20.5" r="2"/><circle class="a" cx="35.2444" cy="20.5017" r="1.999"/></svg>