<?xml version="1.0" encoding="UTF-8"?><svg id="a" xmlns="http://www.w3.org/2000/svg" viewBox="0 0 48 48"><defs><style>.w{fill:none;stroke:#000;stroke-linecap:round;stroke-linejoin:round;}</style></defs><path id="b" class="w" d="m40.5,5.5H7.5c-1.1046,0-2,.8954-2,2v33c0,1.1046.8954,2,2,2h33c1.1046,0,2-.8954,2-2V7.5c0-1.1046-.8954-2-2-2Z"/><g><g id="c"><g id="d"><path id="e" class="w" d="m7.615,22.975v-8h2.6c1.5,0,2.7,1.2,2.7,2.7s-1.2,2.7-2.7,2.7h-2.6"/></g><g id="f"><g id="g"><path id="h" class="w" d="m10.3438,20.372l2.5712,2.603"/></g></g></g><g id="i"><polyline id="j" class="w" points="20.1899 22.975 17.5899 14.975 14.8899 22.975"/><line id="k" class="w" x1="15.7899" y1="20.275" x2="19.2899" y2="20.275"/></g><g id="l"><line id="m" class="w" x1="22.1647" y1="14.975" x2="22.1647" y2="22.975"/></g><g id="n"><polyline id="o" class="w" points="24.1395 22.975 24.1395 14.975 29.4395 22.975 29.4395 14.975"/></g><g id="p"><polyline id="q" class="w" points="36.7144 14.975 34.1144 18.975 31.4144 14.975"/><line id="r" class="w" x1="34.1144" y1="22.975" x2="34.1144" y2="18.975"/></g><polyline id="s" class="w" points="10.6678 33.025 10.6678 25.025 14.6678 33.025 18.6678 25.025 18.6678 33.025"/><path id="t" class="w" d="m20.5582,30.325c0,1.5,1.2,2.7,2.6,2.7,1.5,0,2.7-1.2,2.7-2.7v-2.7c0-1.5-1.2-2.7-2.7-2.7s-2.6,1.2-2.6,2.7v2.7Z"/><path id="u" class="w" d="m27.8512,30.325c0,1.5,1.2,2.7,2.6,2.7,1.5,0,2.7-1.2,2.7-2.7v-2.7c0-1.5-1.2-2.7-2.7-2.7s-2.6,1.2-2.6,2.7v2.7Z"/><path id="v" class="w" d="m35.085,33.025v-8h1.3c2.2,0,4,1.8,4,4h0c0,2.2-1.8,4-4,4h-1.3Z"/></g></svg>