<?xml version="1.0" encoding="UTF-8"?><svg id="a" xmlns="http://www.w3.org/2000/svg" viewBox="0 0 48 48"><defs><style>.b{fill:none;stroke:#000;stroke-linecap:round;stroke-linejoin:round;}</style></defs><path class="b" d="M31.3051,24.4131l-1.4063,3.6721-1.4063-3.6721"/><path class="b" d="M32.7106,24.3787c0-1.1331,1.0418-2.0266,2.2332-1.801.7814.148,1.4055.8139,1.4833,1.5942.0579.5804-.1286,1.1531-.5355,1.505-.7538.6518-3.181,2.4085-3.181,2.4085h3.7268"/><path class="b" d="M16.1661,10.4247c3.0079-4.3804,8.1513-7.2173,13.4605-7.4247"/><path class="b" d="M8.8623,19.9407c-.9705-5.2243.6604-10.8669,4.2683-14.7679"/><path class="b" d="M10.4247,31.839c-4.3804-3.0079-7.2173-8.1513-7.4247-13.4605"/><path class="b" d="M19.9417,39.1375c-5.2243.9705-10.8669-.6604-14.7679-4.2683"/><path class="b" d="M31.84,37.5753c-3.0079,4.3804-8.1513,7.2173-13.4605,7.4247"/><path class="b" d="M39.1436,28.0563c.9705,5.2243-.6604,10.8669-4.2683,14.7679"/><path class="b" d="M37.5753,16.1651c4.3804,3.008,7.2173,8.1513,7.4247,13.4605"/><path class="b" d="M28.0593,8.8613c5.2243-.9705,10.8669.6604,14.7679,4.2683"/><path class="b" d="M17.789,16.343l-.7948,8.9625c.3094-.0585.6242-.088.9391-.088,1.3236,0,2.639.5449,3.5749,1.4808.9359.9359,1.4808,2.2513,1.4808,3.5749,0,1.1999-.4444,2.3949-1.2285,3.3033"/><rect class="b" x="23.8994" y="17.4267" width="2.629" height="2.629" transform="translate(-.7935 1.1177) rotate(-2.5)"/></svg>