<?xml version="1.0" encoding="UTF-8"?><svg id="a" xmlns="http://www.w3.org/2000/svg" viewBox="0 0 48 48"><defs><style>.f{fill:none;stroke:#000;stroke-linecap:round;stroke-linejoin:round;}</style></defs><path id="b" class="f" d="M9.5,5.5h29c2.216,0,4,1.784,4,4v29c0,2.216-1.784,4-4,4H9.5c-2.216,0-4-1.784-4-4V9.5c0-2.216,1.784-4,4-4Z"/><path id="c" class="f" d="M17.8522,13.6442c0,2.3267-1.8862,4.2129-4.2129,4.2129s-4.2129-1.8862-4.2129-4.2129,1.8862-4.2129,4.2129-4.2129,4.2129,1.8862,4.2129,4.2129Z"/><path id="d" class="f" d="M30.1478,34.3558c0-2.3267,1.8862-4.2129,4.2129-4.2129h0c2.3267,0,4.2129,1.8862,4.2129,4.2129s-1.8862,4.2129-4.2129,4.2129-4.2129-1.8862-4.2129-4.2129Z"/><path id="e" class="f" d="M19.7871,24c0-2.3267,1.8862-4.2129,4.2129-4.2129h0c2.3267,0,4.2129,1.8862,4.2129,4.2129h0c0,2.3267-1.8862,4.2129-4.2129,4.2129h0c-2.3267,0-4.2129-1.8862-4.2129-4.2129h0Z"/></svg>