<?xml version="1.0" encoding="UTF-8" standalone="no"?>
<svg
   viewBox="0 0 48 48"
   version="1.1"
   id="svg8"
   sodipodi:docname="raspi_check.svg"
   inkscape:version="1.1.1 (1:1.1+202109281949+c3084ef5ed)"
   xmlns:inkscape="http://www.inkscape.org/namespaces/inkscape"
   xmlns:sodipodi="http://sodipodi.sourceforge.net/DTD/sodipodi-0.dtd"
   xmlns="http://www.w3.org/2000/svg"
   xmlns:svg="http://www.w3.org/2000/svg">
  <sodipodi:namedview
     id="namedview10"
     pagecolor="#505050"
     bordercolor="#ffffff"
     border
     inkscape:pageshadow="0"
     inkscape:page
     inkscape:pagecheckerboard="1"
     showgrid="false"
     inkscape:zoom="22.627417"
     inkscape:cx="37.034718"
     inkscape:cy="6.2755727"
     inkscape:window-width="1920"
     inkscape:window-height="1047"
     inkscape:window-x="0"
     inkscape:window-y="0"
     inkscape:window-maximized="1"
     inkscape:current-layer="g15761"
     showguides="false"
     inkscape:object-paths="true"
     inkscape:snap-global="true"
     inkscape:object-nodes="true"
     inkscape:snap-center="true"
     inkscape:snap-smooth-nodes="true"
     inkscape:snap-midpoints="true" />
  <defs
     id="defs4">
    <inkscape:path-effect
       effect="fillet_chamfer"
       id="path-effect14916"
       is_visible="true"
       lpeversion="1"
       satellites_param="F,0,0,1,0,1.8267296,0,1 @ F,0,0,1,0,0,0,1 @ F,0,0,1,0,0,0,1 @ F,0,0,1,0,0,0,1 @ F,0,0,1,0,0,0,1 @ F,0,0,1,0,0,0,1 @ F,0,0,1,0,0,0,1 @ F,0,0,1,0,0,0,1 @ F,0,1,1,0,1.8267296,0,1"
       unit="px"
       method="auto"
       mode="F"
       radius="0"
       chamfer_steps="1"
       flexible="false"
       use_knot_distance="true"
       apply_no_radius="true"
       apply_with_radius="true"
       only_selected="false"
       hide_knots="false" />
    <style
       id="style2">.a{fill:none;stroke:#000;stroke-linecap:round;stroke-linejoin:round;}</style>
  </defs>
  <g
     id="g15761"
     transform="matrix(0.91069962,0,0,0.91053497,3.1892444,2.4610779)"
     fill="#ffffff">
    <path
       id="path2960"
       fill="#ffffff"
       d="m 13.654297,18.193359 a 5.6799102,5.6799102 0 0 0 -5.6796876,5.679688 5.6799102,5.6799102 0 0 0 5.6796876,5.679687 5.6799102,5.6799102 0 0 0 5.679687,-5.679687 5.6799102,5.6799102 0 0 0 -0.06055,-0.828125 5.6799102,5.6799102 0 0 1 -3.22461,-4.322266 5.6799102,5.6799102 0 0 0 -2.394531,-0.529297 z" />
    <circle
       fill="#ffffff"
       id="circle3044"
       cx="21.667616"
       cy="17.898603"
       r="5.6799102" />
    <path
       id="circle3046"
       fill="#ffffff"
       d="m 26.503906,9.3203125 c -2.050354,0.00621 -3.938212,1.1169735 -4.939453,2.9062495 0.03448,-0.0029 0.06899,-0.0055 0.103516,-0.0078 3.136754,1.23e-4 5.679564,2.542934 5.679687,5.679688 -0.0057,0.420517 -0.05812,0.839098 -0.15625,1.248046 0.002,-0.0059 0.0039,-0.01172 0.0059,-0.01758 0.05507,0.0259 0.109761,0.0526 0.164062,0.08008 l -0.148437,-0.166015 c 0,0 1.052138,-0.932498 1.558593,-1.386719 0.473694,-0.424844 0.355469,-1.630859 0.355469,-1.630859 l 2.851563,-2.53711 C 31.298531,11.025946 29.058407,9.3204792 26.503906,9.3203125 Z"
       sodipodi:nodetypes="ccccccccsccc" />
    <path
       id="circle3048"
       fill="#ffffff"
       d="m 34.388672,16.013672 -2.94336,2.617187 c 0,0 -0.06265,-0.01248 -0.162109,-0.02734 -0.04806,-0.0072 -0.102604,-0.01432 -0.166015,-0.02148 -0.06488,-0.0073 -0.137375,-0.01463 -0.212891,-0.01953 -0.377092,-0.02446 -0.855281,-0.0022 -1.121094,0.230469 -0.326895,0.286236 -0.642988,0.570931 -0.994141,0.884765 -0.0068,0.173243 0.04111,0.350579 0.08659,0.497367 1.405457,1.201288 2.185197,2.944765 2.190754,4.793649 -5.4e-5,0.430416 -0.0439,0.85971 -0.130859,1.28125 0.02342,0.0021 0.04686,0.0041 0.07031,0.0059 3.136754,-1.23e-4 5.679565,-2.542933 5.679688,-5.679687 -2e-6,-1.798731 -0.852008,-3.491151 -2.296875,-4.5625 z"
       sodipodi:nodetypes="ccssscccccccc" />
    <path
       id="circle3050"
       fill="#ffffff"
       d="m 27.197266,19.128906 a 5.6799102,5.6799102 0 0 1 -5.529297,4.449219 5.6799102,5.6799102 0 0 1 -2.396485,-0.550781 5.6799102,5.6799102 0 0 1 0.0625,0.845703 5.6799102,5.6799102 0 0 1 -0.728515,2.757812 6.3457007,6.3457007 0 0 0 6.115234,4.683594 6.3457007,6.3457007 0 0 0 6.345703,-6.345703 6.3457007,6.3457007 0 0 0 -3.86914,-5.839844 z" />
    <path
       id="circle3052"
       fill="#ffffff"
       d="m 19.316406,24.130859 a 5.6799102,5.6799102 0 0 1 -0.09961,0.808594 5.6799102,5.6799102 0 0 0 0.09961,-0.808594 z m -0.117187,0.900391 a 5.6799102,5.6799102 0 0 1 -0.1875,0.673828 5.6799102,5.6799102 0 0 0 0.1875,-0.673828 z m -0.244141,0.841797 a 5.6799102,5.6799102 0 0 1 -0.263672,0.578125 5.6799102,5.6799102 0 0 0 0.263672,-0.578125 z m -0.349609,0.757812 a 5.6799102,5.6799102 0 0 1 -4.951172,2.921875 5.6799102,5.6799102 0 0 1 -1.277344,-0.158203 6.3457007,6.3457007 0 0 0 -0.0957,1.042969 6.3457007,6.3457007 0 0 0 6.345703,6.345703 6.3457007,6.3457007 0 0 0 5.183594,-2.707031 5.5520482,5.5520482 0 0 1 -0.154297,-1.244141 5.5520482,5.5520482 0 0 1 0.228516,-1.578125 6.3457007,6.3457007 0 0 0 0.835937,0.06055 6.3457007,6.3457007 0 0 1 -6.115234,-4.683594 z" />
    <path
       id="circle3054"
       fill="#ffffff"
       d="m 7.9804688,23.974609 a 4.4187946,4.4187946 0 0 0 -2.03125,3.716797 4.4187946,4.4187946 0 0 0 4.4199222,4.417969 4.4187946,4.4187946 0 0 0 2.033203,-0.507813 A 6.3457007,6.3457007 0 0 1 12.28125,30.4375 6.3457007,6.3457007 0 0 1 12.375,29.402344 5.6799102,5.6799102 0 0 1 7.9824219,23.974609 a 4.4187946,4.4187946 0 0 0 -0.00195,0 z" />
    <path
       id="circle3056"
       fill="#ffffff"
       d="m 12.396484,31.605469 a 4.4187946,4.4187946 0 0 1 -2.027343,0.503906 4.4187946,4.4187946 0 0 1 -0.195313,-0.01367 4.4187946,4.4187946 0 0 0 4.41211,4.337891 4.4187946,4.4187946 0 0 0 1.390624,-0.232422 6.3457007,6.3457007 0 0 1 -3.580078,-4.595703 z" />
    <path
       id="circle3058"
       fill="#ffffff"
       d="m 23.808594,34.066406 a 6.3457007,6.3457007 0 0 1 -5.181641,2.716797 6.3457007,6.3457007 0 0 1 -2.009765,-0.339844 5.1835871,5.1835871 0 0 0 -0.09375,0.921875 5.1835871,5.1835871 0 0 0 5.183593,5.183594 5.1835871,5.1835871 0 0 0 5.158203,-4.6875 5.5520482,5.5520482 0 0 1 -3.05664,-3.794922 z" />
    <path
       id="circle3060"
       fill="#ffffff"
       d="m 30.554688,27.445312 a 6.3457007,6.3457007 0 0 1 -5.833985,3.869141 6.3457007,6.3457007 0 0 1 -0.835937,-0.06055 5.5520482,5.5520482 0 0 0 -0.228516,1.578125 5.5520482,5.5520482 0 0 0 5.550781,5.550781 5.5520482,5.5520482 0 0 0 5.552735,-5.550781 5.5520482,5.5520482 0 0 0 -4.205078,-5.386719 z" />
    <path
       id="circle3062"
       fill="#ffffff"
       d="m 36.345703,22.46875 c -0.800311,2.264326 -2.938255,3.780593 -5.339844,3.787109 -0.02345,-0.0018 -0.04689,-0.0038 -0.07031,-0.0059 6.57e-4,-0.0052 0.0013,-0.01042 0.002,-0.01563 -0.08477,0.415886 -0.211056,0.822218 -0.376953,1.212891 2.31371,0.581719 3.997131,2.576506 4.181641,4.955078 2.767784,-0.08297 4.969866,-2.348165 4.974609,-5.117188 -5.99e-4,-2.154144 -1.347351,-4.078298 -3.371094,-4.816406 z M 30.9375,26.234375 c 0.04246,-0.208548 0.0744,-0.419101 0.0957,-0.630859 -0.0213,0.211758 -0.05324,0.422311 -0.0957,0.630859 z"
       sodipodi:nodetypes="ccccccccccc" />
    <path
       id="circle3064"
       fill="#ffffff"
       d="m 34.384766,30.830078 a 5.5520482,5.5520482 0 0 1 0.162109,0.486328 c -0.04689,-0.165292 -0.100638,-0.32743 -0.162109,-0.486328 z m 3.443359,0.421875 c -0.844966,0.689385 -1.914785,1.115283 -3.085937,1.150391 -0.0011,-0.01369 -0.0027,-0.02735 -0.0039,-0.04102 a 5.5520482,5.5520482 0 0 1 0.02148,0.470703 5.5520482,5.5520482 0 0 1 -0.884766,3.00586 4.0251184,4.0251184 0 0 1 1.179688,1.894531 3.6175814,3.6175814 0 0 0 0.664062,0.06836 3.6175814,3.6175814 0 0 0 3.617188,-3.617187 3.6175814,3.6175814 0 0 0 -1.507813,-2.931641 z m -3.279297,0.06836 a 5.5520482,5.5520482 0 0 1 0.115234,0.494141 c -0.03117,-0.167565 -0.06935,-0.331926 -0.115234,-0.494141 z m 0.115234,0.494141 a 5.5520482,5.5520482 0 0 1 0.06641,0.460938 c -0.01564,-0.155617 -0.03816,-0.309098 -0.06641,-0.460938 z" />
    <path
       id="circle3066"
       fill="#ffffff"
       d="m 33.878906,35.832031 a 5.5520482,5.5520482 0 0 1 -4.671875,2.550781 5.5520482,5.5520482 0 0 1 -1.960937,-0.373046 4.0251184,4.0251184 0 0 0 -0.0918,0.80664 4.0251184,4.0251184 0 0 0 4.025391,4.023438 4.0251184,4.0251184 0 0 0 4.02539,-4.023438 4.0251184,4.0251184 0 0 0 -1.326172,-2.984375 z" />
    <path
       id="circle3068"
       fill="#ffffff"
       d="m 26.863281,37.859375 a 5.1835871,5.1835871 0 0 1 -2.550781,3.974609 3.4537034,3.4537034 0 0 0 2.861328,1.529297 3.4537034,3.4537034 0 0 0 2.316406,-0.896484 4.0251184,4.0251184 0 0 1 -2.335937,-3.650391 4.0251184,4.0251184 0 0 1 0.08984,-0.80664 5.5520482,5.5520482 0 0 1 -0.38086,-0.150391 z" />
    <path
       id="path3439"
       fill="#ffffff"
       d="m 30.554688,27.445312 a 6.3457007,6.3457007 0 0 1 -5.833985,3.869141 6.3457007,6.3457007 0 0 1 -0.835937,-0.06055 5.5520482,5.5520482 0 0 0 -0.228516,1.578125 5.5520482,5.5520482 0 0 0 5.550781,5.550781 5.5520482,5.5520482 0 0 0 5.552735,-5.550781 5.5520482,5.5520482 0 0 0 -4.205078,-5.386719 z" />
    <path
       fill="#ffffff"
       d="M 8.1285273,22.559957 C 6.8465267,21.930444 3.5556592,20.99432 0.87679471,20.276985 4.4450959,19.878543 6.4773668,19.8693 9.4991839,20.000988"
       id="path4072"
       sodipodi:nodetypes="ccc" />
    <path
       fill="#ffffff"
       d="M 10.408087,19.212577 C 9.5063049,16.671434 9.298203,13.071709 9.646282,10.374474 c 2.825843,0.370877 5.784775,1.574571 8.411673,3.13873"
       id="path4187"
       sodipodi:nodetypes="ccc" />
    <path
       fill="#ffffff"
       d="m 20.383419,12.365773 c -0.448309,-3.0960283 0.306219,-5.5363685 1.510702,-7.7783967 0.144701,2.3320942 0.353441,3.5885264 1.260971,5.8377377"
       id="path4189"
       sodipodi:nodetypes="ccc" />
    <path
       fill="#ffffff"
       d="M 9.933625,19.581845 8.3762664,18.205865"
       id="path6512"
       sodipodi:nodetypes="cc" />
    <path
       fill="#ffffff"
       d="m 19.056715,12.854342 -0.41143,-1.606521"
       id="path6717"
       sodipodi:nodetypes="cc" />
    <path
       id="path8104"
       fill="#ffffff"
       d="M 39.793377,6.5364287 29.126953,16.025391 c 0,0 0.118225,1.206015 -0.355469,1.630859 -0.506455,0.454221 -1.558593,1.386719 -1.558593,1.386719 l 0.154297,0.173828 c 0.409708,0.1899 0.820507,0.420615 1.180735,0.692936 0.278368,-0.249167 0.821731,-0.754652 1.23528,-1.116764 0.478741,-0.419131 1.66211,-0.16211 1.662109,-0.16211 L 42.111626,9.1437269 a 1.8270454,1.8270454 93.353522 0 0 0.151133,-2.579185 1.7459993,1.7459993 0.65226874 0 0 -2.469382,-0.028113 z"
       sodipodi:nodetypes="ccsccccccc" />
    <path
       fill="#ffffff"
       d="M 40.067102,8.6278485 31.208951,16.508152"
       id="path14034"
       sodipodi:nodetypes="cc" />
  </g>
</svg>
