<svg xmlns="http://www.w3.org/2000/svg" viewBox="0 0 48 48"><defs><style>.a,.b{fill:none;stroke:#000;stroke-linecap:round;}.a{stroke-linejoin:round;}.b{stroke-miterlimit:3.6428;}</style></defs><circle class="a" cx="24" cy="18.4063" r="5.2239"/><path class="a" d="M13.167,31.5881q-.0025.0726-.0026.1458a4.005,4.005,0,0,0,5.5295,3.7011"/><path class="a" d="M11.1843,23.863a4.1289,4.1289,0,0,0,3.9288,7.2611"/><path class="a" d="M36.372,36.8087a3.4092,3.4092,0,0,0,2.6859-6.046"/><path class="a" d="M28.7328,37.82a3.8732,3.8732,0,1,0,6.6536-2.81"/><path class="a" d="M18.9827,35.5459a5.1143,5.1143,0,0,0-.0267.522,5.0446,5.0446,0,0,0,9.9687,1.0955"/><path class="a" d="M26.2238,40.5961a3.5218,3.5218,0,0,0,5.0156.734"/><path class="a" d="M15.0669,28.9539A6.011,6.011,0,0,0,21,35.8938a5.9964,5.9964,0,0,0,4.81-2.4089"/><path class="a" d="M36.124,32.1483A5.2252,5.2252,0,0,0,37.6622,22.22"/><path class="a" d="M32.53,26.0171c.0352.0007.07.0011.1058.0011a5.2242,5.2242,0,0,0,3.0889-9.4372"/><path class="a" d="M25.92,30.7581a5.2246,5.2246,0,1,0,6.2274-3.5041"/><path class="a" d="M18.85,19.2854A5.2242,5.2242,0,1,0,21,26.397"/><path class="a" d="M33.3672,14.3345a5.2257,5.2257,0,0,0-9.8256-1.1318"/><path class="a" d="M21.1878,22.8074a5.9145,5.9145,0,1,0,7.9235-3.32"/><path class="a" d="M11.3126,22.7486A52.2739,52.2739,0,0,0,4.5,20.5539a45.8531,45.8531,0,0,1,8.1128-.2388"/><path class="a" d="M13.3987,19.6342a19.98,19.98,0,0,1-.726-8.3073,22.2971,22.2971,0,0,1,7.993,3.0582"/><path class="a" d="M22.6866,13.3491a11.71,11.71,0,0,1,1.4005-7.4145,13.7671,13.7671,0,0,0,1.1111,5.279"/><path class="b" d="M12.9925,19.9521l-1.5034-1.328"/><path class="b" d="M21.4905,13.8238l-.4311-1.6831"/><path class="a" d="M30.3069,20.195c.2594-.2322.7471-.6864,1.1325-1.0238.4461-.3906,1.549-.1511,1.549-.1511l9.9405-8.84A1.7022,1.7022,0,0,0,43.07,7.7769a1.6273,1.6273,0,0,0-2.301-.0265l0,0-9.9406,8.8417s.11,1.1237-.3313,1.52c-.472.4232-1.3514,1.2025-1.3514,1.2025"/><path class="a" d="M41.0235,9.7l-8.2554,7.3427"/></svg>