<?xml version="1.0" encoding="UTF-8"?><svg id="b" xmlns="http://www.w3.org/2000/svg" viewBox="0 0 48 48"><defs><style>.d{fill:none;stroke:#000;stroke-linecap:round;stroke-linejoin:round;}</style></defs><path class="d" d="m16.5304,12.7493h3.7247c.9449,0,1.5258.8336,1.2334,1.7698l-1.0949,3.5057c-.424,1.3574-1.7617,2.3697-3.1316,2.3697h0"/><line class="d" x1="15.9529" y1="16.0246" x2="14.7704" y2="22.7311"/><line class="d" x1="26.4479" y1="20.4956" x2="31.9587" y2="20.4956"/><path class="d" d="m30.9189,20.4956l.9992-5.6668c.2025-1.1485-.5644-2.0795-1.7129-2.0795h-1.2545c-.4089,0-.8123.0966-1.1848.2683"/><line class="d" x1="14.329" y1="12.7495" x2="12.9631" y2="20.4958"/><path class="d" d="m36.9775,20.4956l.9992-5.6668c.2025-1.1485-.5643-2.0795-1.7126-2.0795h-1.2544c-.4089,0-.8122.0966-1.1847.2683"/><line class="d" x1="26.0265" y1="16.6226" x2="22.9072" y2="16.6226"/><line class="d" x1="33.7171" y1="25.2687" x2="37.1341" y2="33.015"/><path class="d" d="m38.5,25.2687l-.5207,2.9532c-.1782,1.0105-1.1418,1.8297-2.1523,1.8297h0"/><path class="d" d="m32.3512,33.015l.5207-2.9532c.1782-1.0105,1.1418-1.8297,2.1523-1.8297h0"/><line class="d" x1="31.5981" y1="25.2689" x2="30.2322" y2="33.0152"/><line class="d" x1="13.3332" y1="25.2687" x2="12.7467" y2="28.595"/><line class="d" x1="15.445" y1="25.2687" x2="14.8585" y2="28.595"/><polyline class="d" points="17.9185 23.813 17.6618 25.2687 23.1726 25.2687 19.745 32.9139"/><path class="d" d="m25.2237,25.4464c.3455-.115.7065-.1775,1.0711-.1775h0c1.7227,0,2.873,1.3966,2.5692,3.1193l-.2658,1.5077c-.3038,1.7227-1.9466,3.1193-3.6693,3.1193h0c-.3646,0-.7036-.0626-1.0085-.1775"/><polyline class="d" points="9.5 35.2507 10.8659 27.5044 10.8442 25.2689"/><rect id="c" class="d" x="5.5" y="5.5" width="37" height="37" rx="2" ry="2"/></svg>