<svg xmlns="http://www.w3.org/2000/svg" viewBox="0 0 48 48"><defs><style>.a{fill:none;stroke:#000;stroke-linecap:round;stroke-linejoin:round;}.b{fill:#000;}</style></defs><path class="a" d="M33.38,5.48c3.27,0,11.51,4.74,8.45,10.47a46.12,46.12,0,0,1-6.15-2.79c-1.13,2,4.51,4.25,4.51,4.25s-.63,2.44-5.89-.27a13.19,13.19,0,0,1-.69,4.55c3.12,1.14,3.69,6.88,1.46,7-1.82.1-.33-4.39-2.37-4.43C31.18,27.68,29,28.79,28,29.18c0,2.19-2.46,4.63-3.95,5.43v2.08c0,3.46,4.18,3,4.18,4.66A1,1,0,0,1,27,42.52H22.51a2.26,2.26,0,0,1-2.05-2.08V35.12a7.36,7.36,0,0,1-2.38-3.4,8,8,0,0,1-5.59,2.49c-3.44,0-6.78-1.53-7-6.43a10.25,10.25,0,0,0,6.27,2.68c3.84,0,3.8-2.6,4.09-5.2.24-2.13,1.1-8.52,8.39-9.21,4.17-.39,3.86-3.35,3.86-5.73S29.73,5.48,33.38,5.48Z"/><circle class="b" cx="36.82" cy="10.56" r="0.75"/></svg>