<svg viewBox="0 0 48 48" xmlns="http://www.w3.org/2000/svg">
  <defs>
    <style>
      .a {
        fill: none;
        stroke:#000;
        stroke-linecap: round;
        stroke-linejoin: round;
      }
    </style>
  </defs>
<line class="a" x1="28.5" y1="15.5" x2="36.5" y2="15.5" stroke="#000" stroke-linecap="round" stroke-linejoin="round"/>
<line class="a" x1="32.5" y1="18.5" x2="36.5" y2="18.5" stroke="#000" stroke-linecap="round" stroke-linejoin="round"/>
<line class="a" x1="28.5" y1="18.5" x2="30.5" y2="18.5" stroke="#000" stroke-linecap="round" stroke-linejoin="round"/>
<line class="a" x1="28.5" y1="21.5" x2="36.5" y2="21.5" stroke="#000" stroke-linecap="round" stroke-linejoin="round" stroke-dasharray="2 2"/>
<path class="a" d="M11.5 21.5L12.5 20.5L13.5 21L14.5 20.5L15.5 21L16.5 20.5L17.5 21L18.5 20.5L19.5 21.5" stroke="#000" stroke-linecap="round" stroke-linejoin="round"/>
<path class="a" d="M15.5 24.5L16.5 24L17.5 24.5L18.5 24L19.5 24.5" stroke="#000" stroke-linecap="round" stroke-linejoin="round"/>
<path class="a" d="M11.5 24.5L12.5 24L13.5 24.5" stroke="#000" stroke-linecap="round" stroke-linejoin="round"/>
<path class="a" d="M11.5 27.5L15.5 27L19.5 27.5" stroke="#000" stroke-linecap="round" stroke-linejoin="round" stroke-dasharray="2 2"/>
<path class="a" d="M26.5 13C26.5198 13 26.5396 13 26.5593 13M26.5593 13C34.5198 13 38.5025 13 39.5 13V24.5H27L24.5 27.5V13H26.5593Z" stroke="#000" stroke-linecap="round" stroke-linejoin="round"/>
<path class="a" d="M24.5 16L21.5 17.5C19.6321 15.6024 13.7057 13.7049 8 17.5V35C10.0377 33.5768 15.7943 31.5844 21.5 35C24.0472 33.4187 30.1094 31.9639 35 35V25" stroke="#000" stroke-linecap="round" stroke-linejoin="round"/>
</svg>
