<?xml version="1.0" encoding="UTF-8"?><svg id="b" xmlns="http://www.w3.org/2000/svg" viewBox="0 0 48 48"><defs><style>.d{fill:none;stroke:#000;stroke-linecap:round;stroke-linejoin:round;}</style></defs><path class="d" d="M24,16.5466c-7.4951-.18-10.0664-3.4712-14.2318-3.4712s-4.2682,3.0855-4.2682,4.7311,2.3912,6.5309,8.0994,7.5851v-3.3683c1.7227-.1543-.5914-1.9027,1.2599-2.9312s4.8596-2.5455,9.1407-2.5455Z"/><path class="d" d="M14.2359,21.1355c.1863,1.3764,1.0348,4.2304,1.6262,5.5418"/><path class="d" d="M24.9642,30.5984c-.8678-.1157-2.6805-.1157-2.6805-.1157"/><path class="d" d="M16.6527,33.3561c2.3527,2.237,3.4712,3.5097,5.9588,3.2397s6.3638-3.259,7.5594-4.6668c-.8292,1.3885-.5207,3.934-1.0028,5.1296s-4.204,5.4767-6.0167,5.4767c-1.292,0,.0193-1.4849-.8678-2.3141s-4.9368-4.9753-5.631-6.8652Z"/><path class="d" d="M19.0247,20.3046c-.0579.9449.8567,2.3011,3.3829,1.3561-1.0309-1.8005-3.7493-1.5915-4.7328-1.1287"/><path class="d" d="M24,13.564c1.6842,0,3.7411.2571,5.0525.7457,1.3113.4885,2.9055.8999,2.9055-1.3628s-4.1911-7.4823-4.8082-7.4823-2.6484.7457-3.1498.7457-2.5327-.7457-3.1498-.7457-4.8082,5.2196-4.8082,7.4823,1.5942,1.8513,2.9055,1.3628,3.3683-.7457,5.0525-.7457Z"/><path class="d" d="M24,16.5466c7.4951-.18,10.0664-3.4712,14.2318-3.4712s4.2682,3.0855,4.2682,4.7311-2.3912,6.5309-8.0994,7.5851v-3.3683c-1.7227-.1543.5914-1.9027-1.2599-2.9312s-4.8596-2.5455-9.1407-2.5455Z"/><path class="d" d="M33.7641,21.1355c-.1863,1.3764-1.0348,4.2304-1.6262,5.5418"/><path class="d" d="M31.2059,18.4662c1.1121,4.6257-1.1699,7.9283-3.979,8.7961,0,0-.4885-.7907-2.2627-2.1791,1.5813,1.8127.0193,2.2755-1.3403,2.2755s-2.9216-.4628-1.3403-2.2755c-1.7741,1.3885-2.2627,2.1791-2.2627,2.1791-2.8091-.8678-5.091-4.1704-3.979-8.7961"/><path class="d" d="M28.9753,20.3046c.0579.9449-.8567,2.3011-3.3829,1.3561,1.0309-1.8005,3.7493-1.5915,4.7328-1.1287"/></svg>