<?xml version="1.0" encoding="UTF-8"?><svg id="a" xmlns="http://www.w3.org/2000/svg" viewBox="0 0 48 48"><defs><style>.ae{fill:none;stroke:#000;stroke-linecap:round;stroke-linejoin:round;}</style></defs><circle id="b" class="ae" cx="24" cy="24" r="21.5"/><path id="c" class="ae" d="m10.703,7.105c-.0749,1.0788.2991,1.5906-1.2655,4.5512-4.7886,6.7823-3.0514,12.75-.375,15.25-1.2198-1.6354-1.1421-3.2708-1.5312-4.9062l1.375,2.4062c-2.4005-6.6067,0-8.3431.5312-9.9062-.7218,5.6.6144,11.8784,2.5938,15.3125-.6796-1.6875-1.6098-3.375-1.3438-5.0625,1.8654,4.1863,4.4794,5.5281,7.5938,4.9688-.6691-.804-1.5318-1.5251-1.6562-2.5625-2.2751-1.9367-2.8067-4.8324-3.4688-7.6562.7705,1.2002,1.7312,1.2585,2.75.9688-.7419-.5041-1.6078-.9744-1.4688-1.7188,1.2834.4753,2.578,1.0404,3.7812.875l-.75-.8438c.7633.0911,1.5414.1156,2.4688-.5312,2.2002-.3115,2.9477-1.38,3.7812-2.6562-1.9418,1.58-5.3819,2.2731-6.5312-.9062,3.119.5701,6.4926,1.925,7.6875-3.4375-4.8928,5.0814-7.4062.907-7.0312-1.5312"/><path id="d" class="ae" d="m17.5836,3.4798c-3.7522,4.6572-5.667,9.8655-4.4273,16.0202"/><path id="e" class="ae" d="m24,2.5c4.1799,3.4271,5.5141,7.7749,6.9375,12.0938-.2124,1.3517-.357,2.6897.25,3.8775-.6006.9256-1.2962,1.8132-1.0938,3.06-.2813.8229-.7624,1.6459-.5,2.4688-.4578.9891-.1077,1.6781-3.3125,3.6875,1.4557-.1159,2.8729-.251,4-.5312l1.4688-1.6875c1.216-.2515,2.2208-.7292,2.2812-2.2188,2.3349-1.1913,2.3045-2.6273,2.2812-4.0625.5166-1.234,1.051-2.4603,1-3.9375l.375-1.4375"/><path id="f" class="ae" d="m13.0716,12.6833c4.501-6.7813,10.3024-5.2537,16.2828-2.5834"/><path id="g" class="ae" d="m15.1832,7.0312c3.9352-4.9265,10.8179-2.5927,11.2124-2.1225"/><path id="h" class="ae" d="m37.125,37.625l-3.0312-.6562-10.0938,8.5312"/><path id="i" class="ae" d="m23.0938,40.6562l-4.8416,4.0612"/><path id="j" class="ae" d="m23.5,35.9062l-.4062,4.75"/><path id="k" class="ae" d="m20.0938,32.875l-.7188.5625.7812,5.5938,3.3438-3.125c-2.432-2.0228-4.4417-4.0456-6.3796-6.0683"/><path id="l" class="ae" d="m20.7895,33.5l.8355-.625c4.6721-.6594,8.218-2.5254,11.75-4.4062l.6875.625c-2.6113,2.7521-5.1853,5.4635-8.6875,9.1875l-1.875-1.5938"/><path id="m" class="ae" d="m32.0559,38.6911c-.7254.1831-1.2122,1.1005-2.2016.5901-4.3437-3.1184,3.1937-4.2582,1.4473-7.2768"/><path id="n" class="ae" d="m37.125,37.625c.2404,1.1454.9926,1.4914,1.6365,2.0066"/><path id="o" class="ae" d="m13.667,28.7805c-.0534,3.3099-2.0906,4.2816-4.4483,4.8757h2.4375l-1.5312,1.2812c2.3735-.019,3.8665-.5982,5.3438-1.1875.2073,3.1606-2.4604,5.0635-4.8227,7.1"/><path id="p" class="ae" d="m18.25,34c.296,4.3137-1.0273,7.3634-4.5625,8.6868l.2188-3.1556-2.394,1.9704"/><path id="q" class="ae" d="m33.375,28.4688l.7188-2.0312c1.4834.107,3.2832-1.8947,5-3.3438l-1.1505-1.2812c-.5436-1.0256-1.0872-2.1567-1.6307-2.625"/><path id="r" class="ae" d="m35.8125,23.8281c.7103-.161,1.4205-1.1322,2.1307-2.0156"/><path id="s" class="ae" d="m39.0938,23.0938c1.9145,5.1155-.3045,9.1124-5.4688,12.3125l.4688,1.5625"/><path id="t" class="ae" d="m38.4432,23.6562c.5977,5.1177-1.7457,7.4167-3.1307,8.5938.8868-2.2711,1.9286-4.3533,2.0199-7.5937"/><path id="u" class="ae" d="m31.1875,18.4712c-2.393-.135-4.6942-.5635-7.8906,1.8725,2.9936-.9089,5.3137-1.0181,6.974-.3438"/><path id="v" class="ae" d="m14.2188,23.1562c3.8972-4.0667,5.5138,4.5909,2.4062,4"/><path id="w" class="ae" d="m30.0938,21.5312c-2.0982.659-4.8105,3.0837-5.0339-1.6472"/><path id="x" class="ae" d="m20.0625,30.0312c.6736.6087,1.3649.4468,1.8125,0"/><path id="y" class="ae" d="m29.3329,14.5247c-2.0882-.0683-4.8315.5541-5.6141,1.0691"/><path id="z" class="ae" d="m15.9798,22.1562c.1472,3.3638,1.2591,3.0834,2.1037,3.8125"/><path id="aa" class="ae" d="m25.375,21.3103c1.5477-.7701,2.2947-.1242,2.7975,1.0292"/><path id="ab" class="ae" d="m39.0938,23.0938c.6877.533,1.401,1.2195,1.9184.7344,1.75,2.7683,2.3106,4.1925,4.1879,3.8551-1.8447-1.6497-2.4141-3.5313-2.9946-5.4108,1.0278,1.1813,2.009,2.5255,3.2614,2.9206"/><path id="ac" class="ae" d="m18.3491,12.2235c3.6079-.5267,8.8996.8449,12.2447,3.0203"/><path id="ad" class="ae" d="m39.036,30.4498c.5997.4803,1.3564-.1388,2.0646-.4185-.2877,2.2815-.4188,4.5526.1687,6.7758"/></svg>