<?xml version="1.0" encoding="UTF-8"?><svg id="a" xmlns="http://www.w3.org/2000/svg" viewBox="0 0 48 48"><defs><style>.c{fill:none;stroke:#000;stroke-linecap:round;stroke-linejoin:round;}</style></defs><path id="b" class="c" d="m19.928,41.073c6.073.55,13.322-2.06,14.45-5.6l9.122-28.621m-23.88,34.288c4.305-1.41,5.792-3.303,6.53-5.669l5.477-17.548m3.017-2.897l-6.49,20.445c-.74,2.33-4.078,5.343-8.428,5.622m0,0c3.883.233,9.496-2.546,10.487-5.622l7.48-23.23m-18.073,28.9c6.17.113,11.772-2.83,12.681-5.669l8.302-25.942m-36.084-.43c2.216-.415,5.405-1.11,6.502,1.339m-2.909.782c-.677-.981-1.15-2.181-3.592-2.121.712-1.586,9.422-6.043,9.283,5.938.438-2.414-1.063-6.134,2.143-6.835,1.438-.314,2.024.199,2.857-.877,1.288,1.09,1.211,4.165,2.22,5.916-1.676.83-3.17,1.712-3.51,2.92,1.848-1.396,3.478-3.585,6.962-1.147,1.174.823,1.524.816,2.08.866.3,3.575-3.015,2.938-5.505,2.747-3.313.236-4.309,1.005-6.026,2.21m-5.289,14.452c-7.812-1.864-5.478-12.333-2.005-18.917m7.765.554c-.493-.944-.37-.828-1.824-1.875-.885-.638-.841-1.503-1.126-2.956-.835-4.266-8.156,1.18-7.884,3.197,2.57.709,3.83,1.523,7.873,2.18,2.93.477,4.124,2.377.908,4.876,6.969-6.327,13.529-.772,13.258,2.42.65-1.86,1.329-4.203-1.69-6.025m1.69,6.024c-5.679-2.709-13.011.296-14.468,4.743,1.928-1.315,7.114-3.55,10.424,1.328-5.334-1.042-8.27.815-8.017,5.047m-2.407-6.375c-2.932,2.14-4.305,8.212,1.752,9.98,0-4.465,1.768-4.472,3.41-4.659-.141.693-.224,1.385.007,2.078,1.477.61,1.83,2.124,1.538,3.404m-4.955-.823l5.634,1.65"/></svg>