<?xml version="1.0" encoding="UTF-8"?><svg id="b" xmlns="http://www.w3.org/2000/svg" viewBox="0 0 48 48"><defs><style>.by{fill:none;stroke:#000;stroke-linecap:round;stroke-linejoin:round;}</style></defs><rect id="d" class="by" x="5.5" y="5.5" width="37" height="37" rx="4" ry="4"/><path id="e" class="by" d="M14.1466,24.5011c.502.6365,1.0041,1.273,1.412,1.8782.4079.6051.7217,1.1789.9279,1.6764s.3048.9189.381,1.2461c.0762.3272.13.5603.2824.8024.1524.2421.4034.4931.7217.7037.3183.2107.7037.381,1.1251.5693.4214.1883.8786.3945,1.3403.5648.4617.1703.9279.3048,1.4075.4303.4796.1255.9727.2421,1.4433.3317.4707.0896.9189.1524,1.412.009.4931-.1434,1.031-.4931,1.7571-.9413.7262-.4482,1.6406-.9951,2.2098-1.3716.5693-.3765.7934-.5827,1.0175-.7889"/><path id="f" class="by" d="M22.596,28.5779c.3407-.0784,1.022-.2353,1.589-.3407s1.0197-.1591,1.2596-.009c.2398.1502.2667.5043.186.8113-.0807.3071-.2689.567-.5894.7889-.3205.2219-.7732.4057-1.1654.4303-.3922.0247-.7239-.1098-.9951-.2936-.2712-.1838-.4819-.4169-.5491-.6656s.009-.5132.0202-.6231c.0112-.1098-.0426-.065-.0695-.0426q-.0269.0224.3138-.056h0Z"/><path id="g" class="by" d="M16.4327,25.792c.5648-.3855,1.1296-.771,1.7661-.9727s1.3447-.2196,2.053-.2376"/><path id="h" class="by" d="M25.6038,23.8018c.8427-.3138,1.6854-.6275,2.4429-.6993.7575-.0717,1.4299.0986,2.1023.2689"/><path id="i" class="by" d="M10.9461,5.7017c-.5558.9144-1.1116,1.8288-.9637,2.685s.9996,1.654,1.8512,2.4519"/><path id="j" class="by" d="M9.3056,16.594c.3586-1.013.7172-2.0261,1.1923-2.9405s1.0668-1.7302,1.5016-2.3802c.4348-.65.7127-1.1341.9234-1.4075s.3541-.3362,1.1296-.6231c.7755-.2869,2.1829-.7979,3.5725-1.1251,1.3896-.3272,2.7612-.4707,3.5097-.52.7486-.0493.8741-.0045,1.6456.3723.7715.3767,2.1889,1.0854,3.1485,1.576.9596.4907,1.4613.7634,2.6765,1.6998,1.2153.9364,3.144,2.5365,4.4337,3.4729,1.2897.9364,1.9401,1.2091,2.4322,1.3169.4921.1078.8258.0508,1.5798-.444.7541-.4947,1.9284-1.427,2.5784-2.1129.65-.6858.7755-1.1251.7217-1.6271-.0538-.502-.2869-1.0668-.6903-1.7616-.4034-.6948-.9772-1.5195-1.4837-2.2905-.5065-.771-.9458-1.4882-1.3851-2.2054"/><path id="k" class="by" d="M11.0426,12.7198c.3802-.5285.7605-1.057,1.614-1.5184.8535-.4615,2.1803-.8559,3.5699-1.1787,1.3896-.3227,2.8419-.5738,4.3032-.7024s2.9318-.135,4.4022-.1414"/><path id="l" class="by" d="M35.8479,16.2789c.4437.393.8875.7861,1.3344,1.3502.4469.5642.897,1.2995,1.1791,1.8257s.3962.8431.3899,1.3249c-.0063.4818-.1331,1.1284-.2599,1.775"/><path id="m" class="by" d="M32.5198,14.7005c.3043.8368.6086,1.6735.9572,3.0301.3487,1.3566.7417,3.2329.7956,4.7417s-.2314,2.6498-.6973,3.5087c-.4659.859-1.1125,1.4358-1.7591,2.0127"/><path id="n" class="by" d="M30.4279,13.141c.1712.9065.3423,1.813.5103,2.9541s.3328,2.5166.374,3.5721c.0412,1.0555-.0412,1.7908-.2029,2.5008-.1616.71-.4025,1.3946-.9857,2.1046-.5832.71-1.5087,1.4453-2.4342,2.1807"/><path id="o" class="by" d="M28.336,27.6894c.4564-.4881.9128-.9762,1.2425-1.4992.3296-.523.5325-1.0808.7353-1.6387"/><path id="p" class="by" d="M33.2805,23.1632h0c-.1775.6783-.355,1.3566-.7068,1.9588-.3518.6022-.878,1.1284-1.4897,1.626s-1.309.9667-2.0063,1.4358"/><path id="q" class="by" d="M30.1046,27.5563c-.0571.5452-.1141,1.0903-.2694,1.6989-.1553.6086-.4089,1.2805-.6593,1.8605s-.4976,1.0681-.9826,1.4358-1.2076.6149-1.9303.8621"/><path id="r" class="by" d="M25.8637,36.0951c.7227-.3233,1.4453-.6466,2.1458-1.084.7005-.4374,1.3788-.9889,1.9778-1.6292.5991-.6403,1.1189-1.3692,1.5943-2.6561.4754-1.2869.9065-3.1315,1.3376-4.9762"/><path id="s" class="by" d="M24.8368,34.8209c.6149-.1141,1.2298-.2282,1.7147-.4216.4849-.1933.8399-.4659,1.0618-.7417s.3106-.5547.3994-.8336"/><path id="t" class="by" d="M24.6846,34.7639c.412.1521.8241.3043,1.2805.393.4564.0887.9572.1141,1.3376.0507.3804-.0634.6403-.2155.9002-.3677"/><path id="u" class="by" d="M34.5547,21.5468c.4374.4437.8748.8875,1.2266,1.3154s.6181.8399.6117,1.2868c-.0063.4469-.2853.9287-.71,1.3851-.4247.4564-.9952.8875-1.5151,1.2678-.5198.3804-.9889.71-1.458,1.0396"/><path id="v" class="by" d="M35.6577,26.187c.5832-.2853,1.1664-.5705,1.9208-.71.7544-.1395,1.6799-.1331,2.3043.1014s.9477.6973,1.271,1.1601"/><path id="w" class="by" d="M35.2583,26.6434c.7734-.0571,1.5467-.1141,2.2282-.0507.6815.0634,1.271.2472,1.813.6466.542.3994,1.0364,1.0143,1.439,1.645s.7132,1.2773.8843,1.7496c.1712.4723.2029.7702.2346,1.0681"/><path id="x" class="by" d="M32.6529,28.374c.1141.6403.2282,1.2805.4818,1.8796.2536.5991.6466,1.1569,1.065,1.496.4184.3391.8621.4596,1.3059.58"/><path id="y" class="by" d="M34.1363,31.0364c.3677.1458.7353.2916,1.1854.412s.9826.2155,1.42.2377c.4374.0222.7797-.0285,1.2076-.0634.4279-.0349.9414-.0539,1.3597.0888.4184.1426.7417.4469.8906.7956s.1236.7417.0539,1.0016c-.0697.2599-.1838.3867-.2979.5135"/><path id="z" class="by" d="M40.6022,29.3249c.1331.6276.2662,1.2552.3265,1.7876.0602.5325.0475.9699-.0761,1.3883-.1236.4184-.3582.8177-.5927,1.2171"/><path id="aa" class="by" d="M35.1638,27.0527c.5705.4894,1.1411.9789,1.7486,1.8965.6075.9176,1.2521,2.2634,1.8967,3.6092"/><path id="ab" class="by" d="M27.4192,31.3323c.0359.8203.0717,1.6406.1076,2.4609"/><path id="ac" class="by" d="M22.1209,32.6233c.0135.3541.0269.7082.0448,1.0601.0179.3519.0403.7015.1165,1.0018.0762.3003.2062.5513.4169.836.2107.2846.502.6029.7172.8225.2152.2196.3541.3407.5962.3541.2421.0135.5872-.0807.9189-.3048.3317-.2241.65-.5782.9682-.9323"/><path id="ad" class="by" d="M27.3661,10.916c.317,1.2742.6339,2.5483.8241,3.6514.1902,1.103.2536,2.0349.1997,2.8368-.0539.8019-.225,1.4738-.3962,2.1458"/><path id="ae" class="by" d="M28.5832,14.7575c.2599.8621.5198,1.7242.8526,2.5547s.7385,1.6292,1.0491,2.2155c.3106.5864.5261.9604.7417,1.3344"/><path id="af" class="by" d="M24.9889,10.6498c.374,1.084.748,2.168.9667,3.2647.2187,1.0967.2821,2.206.2726,3.1442-.0095.9382-.0919,1.7052-.1743,2.4723"/><path id="ag" class="by" d="M19.3978,12.1902c-.0127.0507-.0254.1014-.1109.8051-.0856.7037-.2441,2.0602-.2187,3.3059.0254,1.2457.2345,2.3803.3772,3.0459s.2187.8621.2948,1.0586"/><path id="ah" class="by" d="M21.3185,15.7274v.3803c0,.7417,0,1.4833-.0095,2.0983-.0095.6149-.0285,1.103-.0475,1.5911"/><path id="ai" class="by" d="M19.645,20.4818c.4818-.2155.9636-.4311,1.4453-.6466"/><path id="aj" class="by" d="M21.7559,19.683c.6339-.0951,1.2678-.1902,1.9588-.206.691-.0159,1.439.0475,2.187.1109"/><path id="ak" class="by" d="M26.8336,19.1886c.393.1014.7861.2029,1.1791.3043"/><path id="al" class="by" d="M17.3629,15.1949c.038.1268.0761.2536.2853.9667.2092.7132.5895,2.0127.9065,2.8558.317.8431.5705,1.2298.8241,1.6165"/><path id="am" class="by" d="M17.6672,17.8574c.0571.6149.1141,1.2298.1902,1.7623.0761.5325.1712.9826.2662,1.4326"/><path id="an" class="by" d="M15.8986,14.3582c.0063,1.401.0127,2.8019.1173,3.7972.1046.9953.3074,1.5848.5293,2.0856.2219.5008.4628.9128.7036,1.3249"/><path id="ao" class="by" d="M17.2868,21.5087c.2282-.1331.4564-.2662.6846-.3994"/><path id="ap" class="by" d="M16.0507,18.2187c-.1395.8875-.2789,1.775-.3835,2.412-.1046.6371-.1743,1.0238-.2441,1.4105"/><path id="aq" class="by" d="M14.0919,16.7353c.1204.9002.2409,1.8003.3962,2.6181.1553.8178.3455,1.5531.5832,2.1775.2377.6244.523,1.1379.748,1.5119.225.374.3899.6086.5547.8431"/><path id="ar" class="by" d="M13.9017,21.6799h0c.3613.6466.7227,1.2932,1.0935,1.7052.3708.412.7512.5895,1.1315.767"/><path id="as" class="by" d="M12.4184,18.561c.1331.8938.2662,1.7876.5008,2.6529.2346.8653.5705,1.7021.8304,2.3074.2599.6054.4437.9794.6276,1.3534"/><path id="at" class="by" d="M12.1331,19.8162c.1585,1.4263.317,2.8526.6022,4.019.2853,1.1664.6973,2.0729,1.1442,2.8146.4469.7417.9287,1.3185,1.4422,1.7338.5135.4152,1.0586.6688,1.5119.7734.4533.1046.8146.0602,1.1759.0159"/><path id="au" class="by" d="M16.9826,30.599c-.3994-.038-.7987-.0761-1.3344-.2567-.5357-.1807-1.2076-.504-1.7718-1.0174-.5642-.5135-1.0206-1.2171-1.477-1.9208"/><path id="av" class="by" d="M10.2694,17.5151c-.1141,1.0143-.2282,2.0285-.2694,2.9572-.0412.9287-.0095,1.7718.1236,2.6212.1331.8495.3677,1.7052.7005,2.3328.3328.6276.7639,1.0269,1.1284,1.2932.3645.2662.6624.3994,1.0079.4691s.7385.0761,1.1315.0824"/><path id="aw" class="by" d="M14.2631,25.2552c.2536.7036.5071,1.4073.7385,2.1775s.4406,1.607.542,2.2979c.1014.691.0951,1.2361-.0254,1.8922-.1204.6561-.355,1.4231-.5959,2.0254s-.4881,1.0396-.6371,1.5024c-.149.4628-.1997.9509-.2155,1.29-.0159.3391.0032.5293.0222.7195"/><path id="ax" class="by" d="M14.0539,35.1823h0c-.5008.393-1.0016.7861-1.4739,1.0143-.4723.2282-.916.2916-1.3597.355"/><path id="ay" class="by" d="M11.0111,36.4754c.5261-.4374,1.0523-.8748,1.4263-1.3629s.5959-1.0269.8019-1.5658.3962-1.0776.4976-1.7021c.1014-.6244.1141-1.3344.1268-2.0444"/><path id="az" class="by" d="M13.5684,31.0365c-.3855.502-.771,1.0041-1.1744,1.3963-.4034.3922-.8248.6746-1.3223.8337s-1.0713.195-1.6025.2398c-.5312.0448-1.0198.0986-1.3671.1905-.3474.0919-.5536.2219-.7598.3519"/><path id="ba" class="by" d="M10.8655,26.8006c-.7351.1569-1.4702.3138-2.1045.5222s-1.1677.4684-1.5106.9996c-.3429.5312-.4953,1.3335-.4841,2.1157s.186,1.5442.3407,2.0709.2891.818.4236,1.1094"/><path id="bb" class="by" d="M11.3092,26.9216h0c-.2152.2779-.4303.5558-.5065.8203-.0762.2645-.0134.5155.1905.6701.204.1546.5491.2129.9122.307.3631.0941.7441.2241,1.1251.3541"/><path id="bc" class="by" d="M11.242,29.2749c-.4079.4796-.8158.9592-1.2977,1.5756-.4819.6163-1.0377,1.3694-1.2708,1.8445-.2331.4751-.1434.6724-.0538.8696"/><path id="bd" class="by" d="M7.6112,34.3849h0c.3183.2241.6365.4482.9167.5558s.5222.0986.7643.0896"/><path id="be" class="by" d="M8.8618,33.5377c.1165.3765.2331.7531.3227.9884s.1524.3295.2152.4236"/><path id="bf" class="by" d="M16.5134,42.3054c-.3317-.6007-.6634-1.2013-.6634-1.905,0-.7038.3317-1.5106.8606-2.0709s1.2551-.8741,1.9857-1.0041,1.4658-.0762,2.0709.13c.6051.2062,1.0803.5648,1.4075,1.0175.3272.4527.5065.9996.5065,1.5285s-.1793,1.0399-.381,1.4389c-.2017.3989-.4258.6858-.65.9727"/><path id="bg" class="by" d="M25.0121,41.9289c.009-.8786.0179-1.7571.26-2.3936.2421-.6365.7172-1.031,1.4209-1.1341.7038-.1031,1.6361.0852,2.3578.4438.7217.3586,1.2327.8875,1.542,1.3985.3093.511.4169,1.0041.3227,1.3627-.0941.3586-.39.5827-.6858.8068"/><path id="bh" class="by" d="M28.347,38.2174c.4662-.6544.9324-1.3089,1.5151-1.9006s1.282-1.1206,1.9812-1.6495"/><path id="bi" class="by" d="M30.5255,39.2125c.6544-.3586,1.3089-.7172,2.1516-1.1072s1.8737-.8113,2.9046-1.2327"/><path id="bj" class="by" d="M17.9926,37.1685c-.3855-.5648-.771-1.1296-1.2551-1.654-.4841-.5245-1.0668-1.0085-1.6495-1.4927"/><path id="bk" class="by" d="M17.105,32.6502c.6096.6993,1.2192,1.3985,1.5958,2.0306s.52,1.1968.6096,1.5733.1255.5648.1614.7531"/><path id="bl" class="by" d="M21.704,37.303c-.4124.4034-.8248.8068-1.2372,1.2103"/><path id="bm" class="by" d="M25.8727,38.1098c.2689-.0986.5379-.1972.8068-.009.2689.1883.5379.6634.8068,1.1385"/><path id="bn" class="by" d="M21.6771,37.1147c.1614.3407.3227.6813.4841,1.022"/><path id="bo" class="by" d="M30.391,33.7798c1.0937.4841,2.1874.9682,3.6084,1.6092s3.1691,1.4389,4.1821,2.1785,1.2909,1.4209,1.4165,2.2099.0986,1.6854.0717,2.5819"/><path id="bp" class="by" d="M31.5206,34.8555c.4393-.3407.8786-.6813,1.3178-1.022"/><path id="bq" class="by" d="M21.5158,32.4888c-.1434.2689-.2869.5379-.511.7172-.2241.1793-.5289.2689-1.1161.3272s-1.4568.0852-2.304.121c-.8472.0359-1.6719.0807-2.4967.1255"/><path id="br" class="by" d="M12.1564,36.7651c-.4034.6275-.8068,1.2551-1.2103,2.1561-.4034.901-.8068,2.0754-1.2103,3.2498"/><path id="bs" class="by" d="M14.8459,35.0976c-.4482,2.3488-.8965,4.6976-1.3447,7.0464"/><path id="bt" class="by" d="M35.0976,36.3348c-.5289,1.9275-1.0579,3.8549-1.5868,5.7824"/><path id="bu" class="by" d="M16.7163,38.225c.4057.1712.8114.3423,1.2171.5135"/><path id="bv" class="by" d="M16.317,39.7274c.3106.0761.6212.1521.9319.2282"/><path id="bw" class="by" d="M30.0856,39.6133c-.4311.2853-.8621.5705-1.2932.8558"/><path id="bx" class="by" d="M31.0364,40.7353c-.5769.2536-1.1537.5071-1.7306.7607"/></svg>