<?xml version="1.0" encoding="UTF-8"?><svg id="a" xmlns="http://www.w3.org/2000/svg" viewBox="0 0 48 48"><defs><style>.b{fill:none;stroke:#000;stroke-linecap:round;stroke-linejoin:round;}</style></defs><path class="b" d="m40.5,5.5H7.5c-1.1046,0-2,.8954-2,2v33c0,1.1046.8954,2,2,2h33c1.1046,0,2-.8954,2-2V7.5c0-1.1046-.8954-2-2-2Z"/><path class="b" d="m12.6085,31.5v-15h4.9107c2.7762,0,5.0268,2.2554,5.0268,5.0376s-2.2506,5.0376-5.0268,5.0376h-4.9107"/><line class="b" x1="17.5192" y1="26.5753" x2="22.4295" y2="31.4962"/><path class="b" d="m25.751,29.8565c.9198,1.1975,2.0732,1.6435,3.6778,1.6435h2.2207c2.0666,0,3.7419-1.6753,3.7419-3.7419v-.0162c0-2.0666-1.6753-3.7419-3.7419-3.7419h-2.4496c-2.0688,0-3.746-1.6771-3.746-3.746h0c0-2.0733,1.6807-3.754,3.754-3.754h2.2086c1.6046,0,2.758.446,3.6778,1.6435"/></svg>