<svg xmlns="http://www.w3.org/2000/svg" viewBox="0 0 48 48"><defs><style>.a{fill:none;stroke:#000;stroke-linecap:round;stroke-linejoin:round;}</style></defs><path class="a" d="M10.7,19.6c-.1,2,.3,2.4,1.2,3.2"/><ellipse class="a" cx="13.5" cy="24.5" rx="2.1" ry="2.5"/><path class="a" d="M37.1,26.7c2.8-1.8,3.2-3.5,1.5-4.9"/><ellipse class="a" cx="36.5" cy="21.1" rx="2.1" ry="2.2"/><circle class="a" cx="34.9" cy="26" r="2.3"/><circle class="a" cx="31.4" cy="37.2" r="2.1"/><ellipse class="a" cx="26.4" cy="38.3" rx="1.9" ry="2.5"/><ellipse class="a" cx="21.3" cy="39.5" rx="1.9" ry="2.6"/><ellipse class="a" cx="16.2" cy="29.8" rx="1.9" ry="2.2"/><path class="a" d="M12.1,26.2c-1.4,2.5.2,3.2,2.2,3.8"/><path class="a" d="M14.3,30c-.3,2.6-.1,4.7,2.7,5"/><path class="a" d="M17.3,35.6c-1.4,1.5.3,3.3,2.3,3.3"/><path class="a" d="M22.2,41.7c2,2.1,3.6,1.5,4.9-1.1"/><path class="a" d="M27.1,40.6c3.3,1.8,4.7,1,4.9-1.4"/><path class="a" d="M33.4,37.6c1.7.3,2.8-.3,1.9-3.8"/><path class="a" d="M36.2,32.3c1.6-1.1,2.6-2.6.6-5.1"/><path class="a" d="M17.5,19.2c0,.2.1.4.1.6h0a2.08,2.08,0,0,1-1.9,2.3h0A1.71,1.71,0,0,1,14.1,21"/><path class="a" d="M13.9,20.6a2.2,2.2,0,0,1-.1-.8,2.08,2.08,0,0,1,1.9-2.3,1.85,1.85,0,0,1,.7.2"/><path class="a" d="M21.3,17.4a2.18,2.18,0,0,1,.8.5"/><path class="a" d="M20.2,21.6a2.26,2.26,0,0,1-2-2.2,1.7,1.7,0,0,1,.1-.7"/><path class="a" d="M22.7,19.6a2.34,2.34,0,0,1-2.1,2.1"/><path class="a" d="M26.8,18.7A2,2,0,0,1,25,20.9a1.93,1.93,0,0,1-1.8-1.8"/><path class="a" d="M31.1,18.6a4.3,4.3,0,0,1-.7,1.4"/><path class="a" d="M35.3,17a1.09,1.09,0,0,1,.1.5h0c0,.9-1.1,1.7-2.4,1.7s-2.4-.7-2.4-1.7h0a1.07,1.07,0,0,1,.2-.6"/><path class="a" d="M36.3,17.2a3.71,3.71,0,0,0-.9.2"/><path class="a" d="M38.7,20.7c.9-1,1.2-1.9.8-2.5"/><path class="a" d="M24.7,5.8a49.67,49.67,0,0,1-.7,7.3c-4.2-.2-7,.8-9.9,1.7-2.2,1-3.9,3-5.5,5.1l-.7,1.4c3.4-1.3,6.2-5.8,9-4.4.5.5-2.3,2.9-3.7,4.5,2.5-1.4,5.1-2.8,7.3-3.8.9-.3,2.4-1.1,1.5.8a20.45,20.45,0,0,0-2.2,4c1.1-1.1,2.2-2.1,3.5-3.3s2.4-1.9,4.1,0A12.49,12.49,0,0,0,32,22.8,33.42,33.42,0,0,0,28.4,17a61.93,61.93,0,0,1,7.5,0A33.12,33.12,0,0,0,40,18.3a9.11,9.11,0,0,0-8-4.7c1.9-.9,6.3-.8,6.8-.7a1.57,1.57,0,0,0,1.4-.7C38.6,11,36.5,10,32.3,11c-2.4.5-6.5,2.9-6,.6L27.2,5A6.67,6.67,0,0,0,24.7,5.8Z"/><circle class="a" cx="25.3" cy="28.6" r="3"/><circle class="a" cx="25.3" cy="28.6" r="7.1"/><path class="a" d="M18.4,27.4h0A2.48,2.48,0,0,1,16,24.8a2.55,2.55,0,0,1,2.4-2.6,2.26,2.26,0,0,1,2.1,1.4"/><path class="a" d="M32.3,30.1a2.27,2.27,0,0,1,1.6-.6,2.35,2.35,0,0,1,2.3,2.4h0a2.35,2.35,0,0,1-2.3,2.4h0a2.29,2.29,0,0,1-2.3-2.1"/><path class="a" d="M20.9,34.2h0a2.18,2.18,0,0,1-2,2.4h0a2.25,2.25,0,0,1-2-2.4h0a2.25,2.25,0,0,1,2-2.4H19"/><path class="a" d="M29.6,23v-.4a3,3,0,0,1,.2-1"/><path class="a" d="M30.7,20.6a1.85,1.85,0,0,1,.7-.2,2,2,0,0,1,1.9,2.1h0a2,2,0,0,1-1.9,2.1h-.3"/></svg>