<?xml version="1.0" encoding="UTF-8"?><svg id="a" xmlns="http://www.w3.org/2000/svg" viewBox="0 0 48 48"><defs><style>.b{fill:none;stroke:#000;stroke-linecap:round;stroke-linejoin:round;}</style></defs><path class="b" d="m41.9,14l-27.9,27.9c-.8.8-2,.8-2.8,0l-5.1-5.1c-.8-.8-.8-2,0-2.8L34,6.1c.8-.8,2-.8,2.8,0l5.1,5.1c.8.8.8,2.1,0,2.8Z"/><line class="b" x1="20" y1="20" x2="23.7" y2="23.7"/><line class="b" x1="7" y1="33.1" x2="10.6" y2="36.8"/><line class="b" x1="11.3" y1="28.7" x2="13.4" y2="30.8"/><line class="b" x1="15.7" y1="24.4" x2="17.7" y2="26.4"/><line class="b" x1="33.1" y1="7" x2="36.8" y2="10.6"/><line class="b" x1="24.4" y1="15.7" x2="26.4" y2="17.7"/><line class="b" x1="28.7" y1="11.3" x2="30.8" y2="13.4"/></svg>