<?xml version="1.0" encoding="UTF-8"?><svg id="a" xmlns="http://www.w3.org/2000/svg" viewBox="0 0 48 48"><defs><style>.b{fill:none;stroke:#000;stroke-linecap:round;stroke-linejoin:round;}</style></defs><path class="b" d="M15.9574,31.7088c1.4468,1.6772,3.3545,2.9398,5.5293,3.5941.3594.1014.7188.1935,1.0874.2673.7465.1474,1.5114.2212,2.2947.2212,6.5154,0,11.7959-5.2805,11.7959-11.7867,0-2.009-.4976-3.889-1.3823-5.5385v-.0092"/><path class="b" d="M32.6007,15.1116c-2.0735-1.8062-4.7737-2.8937-7.7318-2.8937-6.5062,0-11.7867,5.2713-11.7867,11.7867,0,.7557.0737,1.4745.212,2.1933v.0092"/><polyline class="b" points="40.95 10.8356 44.3321 16.7151 41.033 19.406 41.033 28.594 44.3321 31.2941 40.9224 37.2105 36.932 35.6991 28.9698 40.2977 28.2878 44.5 21.4591 44.5 20.7772 40.2977 12.8149 35.6991 8.8246 37.2105 8.2256 36.1691"/><polyline class="b" points="37.1071 12.2363 37.0887 12.2456 36.932 12.3101 28.9698 7.7115 28.2878 3.5 21.4591 3.5 20.7772 7.7115 12.8149 12.3101 8.8246 10.7895 5.4056 16.7151 8.714 19.406 8.714 28.594 5.4056 31.2941 7.1289 34.2707"/><circle class="b" cx="24.8729" cy="7.649" r="1.8431"/><circle class="b" cx="24.8729" cy="40.3357" r="1.8431"/><circle class="b" cx="10.7192" cy="15.8207" r="1.8431"/><circle class="b" cx="39.0266" cy="32.164" r="1.8431"/><path class="b" d="M23.7117,12.5692l1.5759,7.1973,17.1409-10.9112-20.6613,27.8033-1.5114-7.4277L3.6679,38.8059,23.7117,12.5692Z"/></svg>