<?xml version="1.0" encoding="UTF-8"?><svg id="b" xmlns="http://www.w3.org/2000/svg" viewBox="0 0 48 48"><defs><style>.c{fill:none;stroke:#000;stroke-linecap:round;stroke-linejoin:round;}</style></defs><path class="c" d="M8.5,32.3372v-7.0267h2.3004c1.3005,0,2.3548,1.0565,2.3548,2.3599s-1.0543,2.3599-2.3548,2.3599h-2.3004"/><path class="c" d="M26.2649,29.9902v.0288c0,1.2855-1.0421,2.3276-2.3276,2.3276h0c-1.2855,0-2.3276-1.0421-2.3276-2.3276v-2.3715c0-1.2855,1.0421-2.3276,2.3276-2.3276h0c1.2855,0,2.3276,1.0421,2.3276,2.3276v.0288"/><rect class="c" x="14.8794" y="25.3087" width="4.6552" height="7.0267" rx="2.3276" ry="2.3276"/><polyline class="c" points="32.9952 32.3372 32.9952 25.3105 28.34 32.3372 28.34 25.3105"/><polyline class="c" points="39.5 32.3372 39.5 25.3105 34.8448 32.3372 34.8448 25.3105"/><line class="c" x1="29.2449" y1="15.6535" x2="33.9" y2="15.6535"/><line class="c" x1="31.5725" y1="22.6802" x2="31.5725" y2="15.6535"/><rect class="c" x="16.0658" y="15.6535" width="4.6552" height="7.0267" rx="2.3276" ry="2.3276"/><path class="c" d="M27.4513,15.6535v4.3917h-2.1958c-1.3583,0-2.4593-1.1011-2.4593-2.4593v-1.9323"/><line class="c" x1="27.4513" y1="20.0452" x2="27.4513" y2="22.6802"/><polyline class="c" points="9.4953 22.6802 9.4953 15.6535 14.1505 15.6535 14.1505 22.6802"/><line class="c" x1="37.7337" y1="20.3526" x2="34.6206" y2="20.3526"/><polyline class="c" points="33.8495 22.6802 36.1771 15.6535 38.5047 22.6802"/><rect class="c" x="5.5" y="5.5" width="37" height="37" rx="2" ry="2"/></svg>