<?xml version="1.0" encoding="UTF-8"?><svg id="b" xmlns="http://www.w3.org/2000/svg" viewBox="0 0 48 48"><defs><style>.l{fill:none;stroke:#000;stroke-linecap:round;stroke-linejoin:round;}</style></defs><path id="c" class="l" d="M14.1259,43.2989v-12.4707l1.7588-3.6729-1.7588-3.6729v-1.7534c0-.9194,1.1478-1.8362,2.0745-1.8362h15.9212c.9267,0,2.0745.9168,2.0745,1.8362v1.7534l-1.7588,3.6729,1.7588,3.6729v12.4707H14.1259Z"/><path id="d" class="l" d="M14.3172,23.4825h19.6877"/><path id="e" class="l" d="M14.3172,30.8282h19.6877"/><path id="f" class="l" d="M28.848,27.1553h3.3982"/><path id="g" class="l" d="M16.0759,27.1553h3.62"/><path id="h" class="l" d="M19.6986,30.7017v-4.4319h9.1528v4.4319"/><path id="i" class="l" d="M26.1463,31.0416v2.2913c0,1.2484-.8854,2.2535-1.9852,2.2535s-1.9852-1.005-1.9852-2.2535v-2.2913"/><path id="j" class="l" d="M26.1463,23.3956c0-1.2484-.8854-2.2535-1.9852-2.2535s-1.9852,1.005-1.9852,2.2535"/><path id="k" class="l" d="M37.9321,31.2486c4.1926,0,7.5679-3.2424,7.5679-7.2699,0-6.6665-4.4061-9.3308-9.4955-8.6567-1.2948-4.8322-6.1478-6.444-9.5231-4.8667-3.0123-6.7668-9.0232-6.2026-11.7726-5.0413-3.3762,1.4261-6.8116,5.7743-4.6408,11.2948-4.1926,0-7.5679,3.2424-7.5679,7.2699s3.3753,7.2699,7.5679,7.2699"/></svg>