<svg xmlns="http://www.w3.org/2000/svg" viewBox="0 0 48 48"><defs><style>.a{fill:none;stroke:#000;stroke-linecap:round;stroke-linejoin:round;}</style></defs><path class="a" d="M22.2333,17.6284c4.1785,1.297,5.1241,5.7269,5.1241,7.8871V33.503c0,1.8085,5.4255,7.3345,5.4255,9.997H12.8391s3.0142-3.6672,3.617-5.2748,3.7677-5.6767,3.7677-5.6767a9.62,9.62,0,0,1-3.5667-6.2293s-9.1932-1.8085-9.1932-4.17c0-1.0047,2.06-1.507,2.06-2.7127s-2.6122-2.5118-2.6122-3.8682c0-1.5322,1.7833-1.5573,2.21-1.5573s.7536.2763.9545.2512,2.3512-2.2434,3.2654-2.2607c.9545-.018,1.6075.6531,1.3564,1.4066s-2.6877,3.19-2.4616,3.7678,3.5154.5456,4.0815.5714c.312.0141.9977.1833,1.47.1821.2763-.0007.6155-.354.6782-1.1806.0391-.5156-1.0333-.5275-.746-2.4782a2.2629,2.2629,0,0,1,2.2991-1.8224,2.4629,2.4629,0,0,1,2.39,2.6177c0,1.5574-.4521,1.3564-.427,1.8085S21.8234,17.5011,22.2333,17.6284Z"/><path class="a" d="M41.0887,38.0691a7.3446,7.3446,0,0,0-4.513-1.6022c-4.7264-.467-7.5118-2.1319-9.1932-2.7306a28.8174,28.8174,0,0,0-7.1587-1.1878"/><path class="a" d="M14.7227,12.9445c-.031-.46,15.5016-7.0566,25.7128-8.4445"/></svg>