<?xml version="1.0" encoding="UTF-8"?><svg id="b" xmlns="http://www.w3.org/2000/svg" viewBox="0 0 48 48"><defs><style>.p{fill:none;stroke:#000;stroke-linecap:round;stroke-linejoin:round;}</style></defs><path id="c" class="p" d="M11,26.9964v10.5"/><path id="d" class="p" d="M11,5.9964v10"/><circle id="e" class="p" cx="11" cy="21.4964" r="5.5"/><circle id="f" class="p" cx="29.5" cy="37.4964" r="5.5"/><path id="g" class="p" d="M24,37.4964h-7.5"/><path id="h" class="p" d="M42.5,37.4964h-7.5"/><circle id="i" class="p" cx="31.1364" cy="16.7145" r="2.1788"/><path id="j" class="p" d="M29.7311,15.0495c-.4085-.6858-2.4331-3.9344-4.7345-5.2629-1.4015-.8089-3.193-.329-4.0024,1.0725-.8089,1.4015-.3285,3.193,1.0725,4.0024,2.3651,1.365,6.1234,1.4598,6.9301,1.4636"/><path id="k" class="p" d="M31.8702,14.6624c.3911-.7005,2.1962-4.0735,2.1962-6.7289,0-1.6183-1.3116-2.9299-2.9299-2.9299s-2.9299,1.3116-2.9299,2.9299c0,2.736,1.797,6.0326,2.1924,6.7249"/><path id="l" class="p" d="M33.2778,16.319c.8127-.012,4.6335-.1328,6.9283-1.4575,1.4009-.8094,1.8814-2.6009,1.0725-4.0024-.8094-1.401-2.6009-1.8814-4.0024-1.0725-2.3716,1.3694-4.3348,4.5769-4.734,5.2615"/><path id="m" class="p" d="M32.5417,18.3796c.4085.6858,2.4331,3.9339,4.7345,5.2629,1.4015.8089,3.193.329,4.0024-1.0725.8089-1.4015.3285-3.193-1.0725-4.0024-2.3651-1.365-6.119-1.4596-6.9257-1.4634"/><path id="n" class="p" d="M30.4042,18.7691c-.3911.6999-2.1977,4.0716-2.1977,6.7264,0,1.6183,1.3116,2.9299,2.9299,2.9299s2.9299-1.3116,2.9299-2.9299c0-2.736-1.8074-6.0347-2.2029-6.7265"/><path id="o" class="p" d="M28.9934,17.1095c-.8127.012-4.6318.1334-6.9266,1.4581-1.401.8094-1.8814,2.6009-1.0725,4.0024.8094,1.4015,2.6009,1.8814,4.0024,1.0725,2.3716-1.3694,4.3313-4.5816,4.7306-5.2662"/></svg>