<?xml version="1.0" encoding="UTF-8"?><svg id="b" xmlns="http://www.w3.org/2000/svg" viewBox="0 0 48 48"><defs><style>.c{stroke-miterlimit:10;}.c,.d{fill:none;stroke:#000;}.d{stroke-linecap:round;stroke-linejoin:round;}</style></defs><circle class="c" cx="24" cy="24" r="4"/><path class="d" d="m40.6508,27.4025c-4.3417-2.5067-11.2419-2.6802-12.7228-2.6879.0421-.2326.072-.4698.072-.7145,0-.2458-.0299-.4839-.0723-.7175,1.4922-.0215,8.5099-.2526,12.7231-2.685,2.5726-1.4854,3.4541-4.7749,1.9688-7.3475-1.4854-2.5726-4.7749-3.4541-7.3475-1.9688-4.3537,2.5137-7.9612,8.4271-8.6945,9.6834-.3643-.3096-.7797-.5541-1.2389-.7181.7184-1.2858,4.0401-7.493,4.0401-12.3678,0-2.9706-2.4081-5.3787-5.3788-5.3787s-5.3788,2.4081-5.3788,5.3787c0,5.0232,3.3123,11.0987,4.0374,12.3687-.4591.1642-.8743.409-1.2383.7189-.7504-1.259-4.4675-7.246-8.6923-9.6852-2.5726-1.4853-5.8622-.6038-7.3475,1.9688-1.4853,2.5726-.6038,5.8622,1.9688,7.3475,4.3417,2.5067,11.2419,2.6802,12.7228,2.6879-.0421.2326-.072.4698-.072.7145,0,.2458.0299.4839.0723.7175-1.4922.0215-8.5099.2525-12.7231,2.685-2.5726,1.4853-3.4541,4.7749-1.9688,7.3475,1.4854,2.5726,4.7749,3.454,7.3475,1.9688,4.3538-2.5136,7.9612-8.4271,8.6945-9.6833.3643.3096.7797.5541,1.2389.7181-.7184,1.2858-4.0401,7.493-4.0401,12.3677,0,2.9706,2.4081,5.3788,5.3788,5.3788s5.3788-2.4081,5.3788-5.3788c0-5.0231-3.3123-11.0986-4.0374-12.3687.4591-.1643.8743-.4091,1.2383-.719.7504,1.259,4.4674,7.246,8.6923,9.6852,2.5726,1.4853,5.8622.6039,7.3475-1.9688,1.4853-2.5726.6038-5.8622-1.9688-7.3475Z"/></svg>