<?xml version="1.0" encoding="UTF-8"?><svg id="a" xmlns="http://www.w3.org/2000/svg" viewBox="0 0 48 48"><defs><style>.e{fill:none;stroke:#000;stroke-linecap:round;stroke-linejoin:round;}</style></defs><path class="e" d="M13.56410335,35.5596199l-3.13076972.37948866-2.27692339-.56922938-2.65641024-.37948866.56923073-1.89743608,1.9923078-5.88205258,2.18205168-4.17435902.85384588-1.3282049,4.36410335-1.61282139"/><path class="e" d="M14.67410353,16.39551473l-3.51025657,5.36974397"/><path class="e" d="M32.53846418,20.1903869l4.36410154,1.61282139.85384768,1.3282049,2.18205077,4.17435902,1.99230644,5.88205258.56922938,1.99230644-2.65640979.37948866-2.27692475.56922938-3.03589846-.47435902"/><path class="e" d="M24.06641178,38.59551835c1.04359021,0,1.3282049.18974433,3.13076881.18974433.47435902,0,1.70769175-.85384768,3.03589846-1.51794742,1.406252-.660582,2.86623274-1.2001386,4.36410154-1.61282139.37948866-.75897371-5.50256392-12.04871985-6.16666727-12.33333454-1.40075101-.4908077-2.88076331-.71602618-4.36410335-.66410335-1.48252394-.0383875-2.96010604.18646183-4.36410335.66410335-.75897371.28461469-6.54615412,11.57436083-6.16666727,12.33333454,1.49268901.42862119,2.95141665.96771817,4.36410335,1.61282139.94714013.62639986,1.96649341,1.13607741,3.03589846,1.51794742,1.70769175,0,1.99230825-.18974433,3.13077062-.18974433Z"/><path class="e" d="M28.2407708,23.22628536c.84565049-.80423202,1.73230506-1.56422087,2.65640979-2.27692294.45235506-.37090603.96606968-.65987085,1.51794923-.85384588l.85384768-3.7-4.83846237-1.89743608s-2.94102629-.32256428-4.43051333-.32256428c-1.51794923,0-4.45897552.28461559-4.45897552.28461559l-4.93333363,1.89743608.85384588,3.7000009c.52869034.24221545,1.03640906.52780729,1.51794832.85384588.92410654.71270206,1.8107575,1.47269092,2.65640979,2.27692294"/><path class="e" d="M36.87410534,21.7652587l-3.51025748-5.40769266"/><path class="e" d="M17.07437531,15.40911853c.07026248-2.54152054,2.1391702-4.06127206,5.06112579-6.30261862l-14.2943351-2.6578339c2.98333867,3.4433725,4.06914626,7.60388043,3.13570251,12.25269347-.3912226,1.5780023,1.12764587,1.62543929,1.12764587,1.62543929"/><path class="e" d="M8.15642517,35.370147l-2.18205168,5.70682435,3.10980262.47415997,6.38439789.00020267,1.24301103-1.75171414,4.2240724-1.01408572"/><path class="e" d="M39.8436083,35.55989133l2.31487072,5.51708002-3.10980353.47415997-6.38439789.00020267-1.24301013-1.75171414-4.2240724-1.01408572"/></svg>