<svg id="Layer_2" data-name="Layer 2" xmlns="http://www.w3.org/2000/svg" viewBox="0 0 48 48"><defs><style>.cls-1{fill:none;stroke:#000;stroke-linecap:round;stroke-linejoin:round;}</style></defs><path class="cls-1" d="M24,2.5A21.5,21.5,0,1,0,45.5,24,21.44,21.44,0,0,0,24,2.5ZM9.05,24.78A14.84,14.84,0,0,1,23.22,9.05h1.56a15.49,15.49,0,0,1,13.1,9.38A14.36,14.36,0,0,1,39,25.17a1.85,1.85,0,0,1-2.05,1.66.36.36,0,0,1-.29-.09L26.44,24a1.89,1.89,0,0,0-2.34,1.37,1.64,1.64,0,0,0,0,1l2.73,10.16a1.88,1.88,0,0,1-1.36,2.34.37.37,0,0,0-.3.1,14.36,14.36,0,0,1-6.74-1.07A15.32,15.32,0,0,1,9.05,24.78Z"/></svg>