<?xml version="1.0" encoding="UTF-8"?><svg id="b" xmlns="http://www.w3.org/2000/svg" viewBox="0 0 48 48"><defs><style>.c{fill:#000;}.d{fill:none;stroke:#000;stroke-linecap:round;stroke-linejoin:round;}</style></defs><path class="d" d="m37.8392,24.0818l4.908-.7726-.1316-.8601c-.2107-1.3731-1.4799-2.3138-2.8351-2.1005-1.3557.2135-2.2835,1.5002-2.0726,2.8731l.1313.86Zm-1.4086-2.6505c-.0004-.0316-.0032-.0632-.0082-.0944v-1.4193c-.4911.3116-4.8723,3.0301-8.3173,3.0722-1.5294.018-2.441-.5015-2.9139-1.3233-.4729-.8218-.9711-1.7787-.9711-1.7787h12.203v-.587c.0076-3.817-1.7364-7.4263-4.7312-9.7916l1.5707-2.4573c.4585-.7163.3251-1.7263-.2963-2.2537-.6224-.5287-1.4979-.375-1.9564.3414l-1.816,2.8405c-1.5967-.7318-3.3327-1.1097-5.0891-1.1077-1.7526-.0028-3.4852.3733-5.0791,1.1024l-1.8186-2.843c-.4585-.7174-1.3347-.8701-1.9571-.3414-.6224.5285-.7548,1.5382-.2963,2.2555l1.5718,2.458c-2.9992,2.3653-4.7463,5.9775-4.7389,9.798v2.3875c-.0133,3.3571-.3079,3.9392-1.2662,6.1722-.9827,2.2881-2.2312,5.0652.5124,6.8105,1.4619.9296,3.5407,1.755,5.9699,2.3228v4.0162c0,1.3885,1.1153,2.5135,2.4913,2.5135s2.4916-1.1252,2.4916-2.5135v-3.2853c.6694.0436,1.3493.0662,2.0356.0662.0262,0,.0505-.0026.0767-.0036.0269,0,.0531.0036.0808.0036.7063,0,1.4045-.0246,2.0916-.0708v3.2891c0,1.3885,1.1151,2.5135,2.4913,2.5135s2.4916-1.1249,2.4916-2.5135v-4.0291c2.4092-.5675,4.4695-1.3885,5.9222-2.3128,2.7453-1.7463,1.4961-4.5257.5126-6.8169-.9837-2.2902-1.2575-2.7224-1.2575-6.4209l.0002.0007Zm-6.8638-7.9064c.9657,0,1.7483.79,1.7483,1.7643s-.7826,1.7645-1.7483,1.7645-1.7483-.79-1.7483-1.7645.7828-1.7643,1.7483-1.7643Zm-10.903,0c.9657,0,1.7483.79,1.7483,1.7643s-.7826,1.7645-1.7483,1.7645-1.7483-.79-1.7483-1.7645.7828-1.7643,1.7483-1.7643Zm-3.7483,11.5801h4m1.3914-2.1238c-3.875-.2243-8.4748-3.0938-8.4748-3.0938h12.36s-.4983.9543-.9711,1.7743c-.4729.82-1.386,1.4075-2.9139,1.3192l-.0002.0003Zm-9.9955.215c.2117-1.3721-.7197-2.657-2.0798-2.8705-1.3601-.2135-2.6329.7264-2.8446,2.0985l-.1324.859,4.9244.772.1324-.8591Zm27.5278.8856l.7232,4.7182c.2107,1.3731,1.4799,2.3138,2.8351,2.1003,1.3557-.2133,2.2835-1.5002,2.0728-2.8731h.0001s-.7232-4.7179-.7232-4.7179m-37.4926-.0258l-.7247,4.7128c-.2117,1.3721.7197,2.657,2.0798,2.8705,1.3601.2135,2.6329-.7264,2.8446-2.0987l.7247-4.7128"/><path class="c" d="m24.1734,33.3153c-.4142,0-.7498-.3354-.7498-.75s.3356-.75.7498-.75c.4144,0,.7502.3362.7502.75,0,.414-.3358.75-.75.75h-.0002Z"/><path class="c" d="m24.1734,29.8848c-.4142,0-.7498-.3354-.7498-.75s.3356-.75.7498-.75c.4144,0,.7502.3362.7502.75,0,.414-.3358.75-.75.75h-.0002Z"/><path class="c" d="m24.1734,26.5903c-.4142,0-.7498-.3354-.7498-.75s.3356-.75.7498-.75c.4144,0,.7502.3362.7502.75,0,.414-.3358.75-.75.75h-.0002Z"/></svg>