<?xml version="1.0" encoding="UTF-8"?><svg id="b" xmlns="http://www.w3.org/2000/svg" viewBox="0 0 48 48"><defs><style>.g{fill:none;stroke:#000;stroke-linecap:round;stroke-linejoin:round;stroke-width:1px;}</style></defs><path id="c" class="g" d="m23.9632,3.5s-.27,2.7966-4.994,6.3939c0,0,2.798,1.2947,2.6886,7.8258m-1.012,1.5239c-1.5211-.4716-5.8999.0078-13.2247-7.6218l1.7131,4.8782c1.8683,1.4263,14.6851,5.2992,13.5593,21.6648l1.2698,6.3351m.0736-41s.27,2.7966,4.994,6.3939c0,0-2.798,1.2947-2.6885,7.8258m1.0119,1.5239c1.5211-.4716,5.9001.0078,13.2247-7.6218l-1.7131,4.8782c-1.8684,1.4263-14.6851,5.2992-13.5593,21.6648l-1.2698,6.3351"/><path id="d" class="g" d="m19.8673,16.6337s.0056-1.2949-2.6904-3.2006c-1.8982-1.3417-3.5449-2.5399-4.1435-3.6829l1.3087,5.1158,5.5252,1.7677Zm8.2653,0s-.0056-1.2949,2.6905-3.2006c1.8981-1.3417,3.5448-2.5399,4.1434-3.6829l-1.3087,5.1158-5.5252,1.7677Z"/><path id="e" class="g" d="m19.5755,38.5331c.5618-9.7752-2.2255-9.0636-11.4981-20.2585,0,0,1.5105,3.8822,2.1932,5.5558l-1.8758,3.4852,3.5831-1.2427s2.0434,1.8059,2.2804,2.66l-2.6857,6.0793,5.0483-2.8667s2.2902,3.6222,2.9546,6.5876Zm8.8489,0c-.5618-9.7752,2.2255-9.0636,11.4981-20.2585,0,0-1.5105,3.8822-2.1931,5.5558l1.8758,3.4852-3.5831-1.2427s-2.0435,1.8059-2.2805,2.66l2.6857,6.0793-5.0483-2.8667s-2.2902,3.6222-2.9546,6.5876Z"/><path id="f" class="g" d="m21.9236,7.1815c1.1859,2.0744,1.0802,8.857,1.0802,8.857-1.4772,1.8674-2.2,3.2274-3.5042,4.8399.7969.803,2.7792,2.154,4.4636,8.5124m2.1131-22.2093c-1.1859,2.0744-1.0802,8.857-1.0802,8.857,1.4772,1.8674,2.2,3.2274,3.5042,4.8399-.7969.803-2.7792,2.154-4.4636,8.5124"/></svg>