<?xml version="1.0" encoding="UTF-8"?><svg id="a" xmlns="http://www.w3.org/2000/svg" viewBox="0 0 48 48"><defs><style>.j{fill:none;stroke:#000;stroke-linecap:round;stroke-linejoin:round;}</style></defs><path id="b" class="j" d="M38,24.7267v2.4369c-.0029.9958-.8089,1.8023-1.8041,1.8052h0c-.4833.0321-.9528-.1692-1.2629-.5415"/><path id="c" class="j" d="M38,21.7481v2.9786c-.0029.9958-.8089,1.8023-1.8041,1.8052h0c-.9952-.0029-1.8012-.8094-1.8041-1.8052v-2.9786"/><path id="d" class="j" d="M28.0268,19.0403v6.3181c-.0284.4701.3294.8742.7992.9026.0342.0021.0686.0021.1028,0h.271"/><path id="e" class="j" d="M31.2093,19.0403v6.3181c-.0284.4701.3294.8742.7992.9026.0342.0021.0686.0021.1028,0h.271"/><path id="f" class="j" d="M25.7463,25.3584c-.3081.5584-.8959.9044-1.5334.9026h0c-.9952-.0029-1.8012-.8094-1.8041-1.8052v-1.1734c.0029-.9958.809-1.8022,1.8041-1.8051h0c.9951.0029,1.8011.8094,1.804,1.8051v.6317h-3.6081"/><line id="g" class="j" x1="16.7907" y1="19.0403" x2="16.7907" y2="26.261"/><path id="h" class="j" d="M16.7907,23.2824c.0029-.9958.8089-1.8023,1.8041-1.8052h0c.9951.003,1.8011.8095,1.8041,1.8052v2.9786"/><path id="i" class="j" d="M10.0903,25.4487c.4338.5479,1.1066.8508,1.8041.8123h1.0824c.9952-.0029,1.8012-.8094,1.8041-1.8052h0c-.0029-.9958-.809-1.8022-1.8041-1.8051h-1.1728c-.9952-.0029-1.8012-.8094-1.8041-1.8052h0c.0029-.9958.8089-1.8023,1.8041-1.8052h1.0824c.7046-.0801,1.3967.2315,1.8041.8123"/><path class="j" d="M38.5,5.5H9.5c-2.2091,0-4,1.7909-4,4v29c0,2.2091,1.7909,4,4,4h29c2.2091,0,4-1.7909,4-4V9.5c0-2.2091-1.7909-4-4-4Z"/></svg>