<?xml version="1.0" encoding="UTF-8"?><svg id="b" xmlns="http://www.w3.org/2000/svg" viewBox="0 0 48 48"><defs><style>.c{fill:none;stroke:#000;stroke-linecap:round;stroke-linejoin:round;}</style></defs><line class="c" x1="21.9175" y1="29.9757" x2="17.3971" y2="11.449"/><line class="c" x1="19.9514" y1="30.5838" x2="12.2603" y2="15.5789"/><line class="c" x1="18.6309" y1="31.9106" x2="9.181" y2="21.7596"/><line class="c" x1="23.8484" y1="29.7087" x2="23.7563" y2="10.0018"/><line class="c" x1="25.6671" y1="29.9469" x2="30.1804" y2="11.449"/><line class="c" x1="27.6262" y1="30.5838" x2="35.3173" y2="15.5789"/><line class="c" x1="28.9467" y1="31.9106" x2="38.3966" y2="21.7596"/><path class="c" d="m23.7563,10.0018c-10.4274,0-16.3504,9.8914-14.9052,18.5045l4.569,3.4776.7553,5.7848,7.9879.0371c.3739.406.9716.6453,1.6255.6461.654-.0007,1.2517-.2401,1.6255-.6461l7.9879-.0371.7553-5.7848,4.569-3.4776c1.4452-8.6131-4.5428-18.5045-14.9702-18.5045Z"/><path class="c" d="m25.8698,41.5759c-.3791.4845-1.1464.7893-1.9841.7884-.8377-.0009-1.6033-.3075-1.9798-.7929m-.2048-.0695l-10.1294-.0128-.9674-7.41-5.8528-4.4547c-.5252-4.3933-.2954-8.2814,1.3354-11.9388,1.6916-3.7932,4.7547-7.1192,8.2862-9.3051,2.9676-1.8369,6.614-2.7458,10.1041-2.7449,3.1664.0008,6.454.8602,9.1657,2.4951,3.4972,2.1085,6.7075,5.219,8.3639,8.9516,1.7113,3.8562,1.782,8.7985,1.0598,12.6122l-5.9052,4.3845-.9674,7.41-10.1294.0128"/></svg>