<?xml version="1.0" encoding="UTF-8"?><svg xmlns="http://www.w3.org/2000/svg" viewBox="0 0 48 48"><defs><style>.d{fill:none;stroke:#000;stroke-linecap:round;stroke-linejoin:round;}</style></defs><g id="a"><path class="d" d="m31.1685,21.7844v9.5367c0,1.7557-1.4232,3.1789-3.1789,3.1789h0c-1.7557,0-3.1789-1.4232-3.1789-3.1789v-1.0556"/><path class="d" d="m17.0833,24.8224c.7797,1.0151,1.7575,1.3932,3.1177,1.3932h1.8825c1.7519,0,3.172-1.4202,3.172-3.172v-.0137c0-1.7519-1.4202-3.172-3.172-3.172h-2.0766c-1.7538,0-3.1755-1.4217-3.1755-3.1755h0c0-1.7575,1.4248-3.1823,3.1823-3.1823h1.8722c1.3603,0,2.338.3781,3.1177,1.3932"/></g><g id="b"><path id="c" class="d" d="m40.5,5.5H7.5c-1.1046,0-2,.8954-2,2v33c0,1.1046.8954,2,2,2h33c1.1046,0,2-.8954,2-2V7.5c0-1.1046-.8954-2-2-2Z"/></g></svg>