<svg xmlns="http://www.w3.org/2000/svg" viewBox="0 0 48 48"><defs><style>.a{fill:none;stroke:#000;stroke-linecap:round;stroke-linejoin:round;}</style></defs><path class="a" d="M23.9941,18.4067c1.9829-3.4046,5.612-4.5269,10.0268-2.9556C32.038,19.4917,27.3987,20.8386,23.9941,18.4067Z"/><circle class="a" cx="16.0791" cy="17.3218" r="4.4522"/><path class="a" d="M11.124,41.8648a8.9642,8.9642,0,0,0,4.0406-7.0337c0-5.9113-5.35-6.3228-5.35-14.4415C7.9439,18.7809,3.2822,10.8388,5.6617,6.36c.636-1.1972,8.4554,2.9556,8.4554,2.9556,4.4521-2.2447,5.6494-3.18,11.71-3.18S43,11.71,43,17.0225c0,10.7-8.7921,9.4281-12.496,16.5366a19.0434,19.0434,0,0,0-1.7584,8.3057Z"/><line class="a" x1="14.9915" y1="13.0084" x2="14.1171" y2="9.3153"/></svg>