<?xml version="1.0" encoding="UTF-8"?><svg id="a" xmlns="http://www.w3.org/2000/svg" viewBox="0 0 48 48"><defs><style>.c{fill:none;stroke:#000;stroke-linecap:round;stroke-linejoin:round;}</style></defs><path class="c" d="M5.5,24h37"/><path id="b" class="c" d="M9.5,5.5h29c2.216,0,4,1.784,4,4v29c0,2.216-1.784,4-4,4H9.5c-2.216,0-4-1.784-4-4V9.5c0-2.216,1.784-4,4-4Z"/><path class="c" d="M32.9778,15.6449v2.7c0,1.1046-.8954,2-2,2h0c-.5523,0-1.0523-.2238-1.4142-.5858"/><path class="c" d="M32.9778,12.3449v3.3c0,1.1046-.8954,2-2,2h0c-1.1046,0-2-.8954-2-2v-3.3"/><line class="c" x1="23.2628" y1="9.6449" x2="23.2628" y2="17.6449"/><line class="c" x1="23.2636" y1="15.9455" x2="26.8848" y2="12.342"/><line class="c" x1="24.4161" y1="14.7986" x2="27.2628" y2="17.6329"/><path class="c" d="M17.8091,17.1977c.3652.3066.7594.4472,1.6449.4472h.4487c.7302,0,1.3221-.5932,1.3221-1.325h0c0-.7318-.5919-1.325-1.3221-1.325h-.8974c-.7302,0-1.3221-.5932-1.3221-1.325h0c0-.7318.5919-1.325,1.3221-1.325h.4487c.8854,0,1.2797.1405,1.6449.4472"/><path class="c" d="M26.9325,31.9308c0-1.1046.8954-2,2-2h0"/><line class="c" x1="26.9325" y1="29.9308" x2="26.9325" y2="35.2308"/><path class="c" d="M9.8419,34.7837c.3652.3066.7594.4472,1.6449.4472h.4487c.7302,0,1.3221-.5932,1.3221-1.325h0c0-.7318-.5919-1.325-1.3221-1.325h-.8974c-.7302,0-1.3221-.5932-1.3221-1.325h0c0-.7318.5919-1.325,1.3221-1.325h.4487c.8854,0,1.2797.1405,1.6449.4472"/><path class="c" d="M34.8683,34.7837c.3652.3066.7594.4472,1.6449.4472h.4487c.7302,0,1.3221-.5932,1.3221-1.325h0c0-.7318-.5919-1.325-1.3221-1.325h-.8974c-.7302,0-1.3221-.5932-1.3221-1.325h0c0-.7318.5919-1.325,1.3221-1.325h.4487c.8854,0,1.2797.1405,1.6449.4472"/><path class="c" d="M31.7717,28.2809v5.95c0,.5523.4477,1,1,1h.3"/><line class="c" x1="30.7217" y1="29.9308" x2="32.8217" y2="29.9308"/><path class="c" d="M15.0774,33.2308c0,1.1046.8954,2,2,2h0c1.1046,0,2-.8954,2-2v-1.3c0-1.1046-.8954-2-2-2h0c-1.1046,0-2,.8954-2,2"/><line class="c" x1="15.0774" y1="29.9308" x2="15.0774" y2="37.9308"/><path class="c" d="M21.0166,31.9308c0-1.1046.8954-2,2-2s2,.8954,2,2v1.3c0,1.1046-.8954,2-2,2s-2-.8954-2-2v-1.3Z"/></svg>