<svg xmlns="http://www.w3.org/2000/svg" viewBox="0 0 48 48"><defs><style>.a{fill:none;stroke:#000;stroke-linecap:round;stroke-linejoin:round;}</style></defs><path class="a" d="M40.4,5.6a47.15,47.15,0,0,1-32.9,0c-1-.4-2.3.9-2,2,3.2,10.8,3.7,21.7,0,32.9-.3,1,1,2.4,2,2,10.6-4.6,21.4-5.5,32.9,0,1,.5,2.3-.9,2-2-2.4-9.6-4.3-19.2,0-32.9A1.65,1.65,0,0,0,40.4,5.6Z"/><path class="a" d="M31.1,31.1l8.1,8.1"/><path class="a" d="M23.7,8.9v5.2m0,19.9v4.4"/><circle class="a" cx="24" cy="24" r="9.8"/><path class="a" d="M22.7,16.7l1.8,3.6,4,.6-2.9,2.8.7,3.9-3.5-1.9-3.5,1.9.7-3.9-2.9-2.8,4-.6Z"/><path class="a" d="M11.5,7.1l.3,1.6,1.5.7-1.4.8-.2,1.7-1.2-1.1-1.6.4.7-1.5L8.7,8.2l1.7.2Z"/><circle class="a" cx="11.6" cy="32.9" r="2.1"/><circle class="a" cx="34.8" cy="15.2" r="1.8"/><path class="a" d="M13.5,7.6a69.36,69.36,0,0,1,2.3,10.8m.1,11.2a49.42,49.42,0,0,1-2.3,10.5"/><path class="a" d="M34.5,7.6a59.49,59.49,0,0,0-2.3,10.8M32,29.8A53.16,53.16,0,0,0,34.2,40"/><path class="a" d="M40.6,13.3c-1.4.4-2.8.8-4.2,1.1m-3.5.7c-1.2.2-2.3.3-3.5.5m-10.7,0A53.23,53.23,0,0,1,7.1,13.2"/><path class="a" d="M40.8,34.4a61.87,61.87,0,0,0-11.2-2.3M18.2,32c-1.5.1-3.1.4-4.6.6m-4.1,1a18.66,18.66,0,0,0-2.2.7"/><path class="a" d="M39.6,23.7H33.8M14,23.7H8.3"/></svg>