<?xml version="1.0" encoding="UTF-8"?><svg id="b" xmlns="http://www.w3.org/2000/svg" viewBox="0 0 48 48"><defs><style>.c{fill:none;stroke:#000;stroke-linecap:round;stroke-linejoin:round;}</style></defs><path class="c" d="m39.8389,38.5331c-4.4269,4.8197-11.0122,7.6166-18.2306,6.8375-9.7989-1.0575-17.7473-8.8861-18.9429-18.6691C1.4076,16.4089,7.4549,7.3135,16.3084,3.924c.8649-.3311,1.6933.5791,1.2539,1.3944-1.9577,3.633-2.9059,7.8945-2.4493,12.4155,1.1121,11.0109,10.704,19.4569,21.7691,19.2627.7172-.0126,1.4241-.0605,2.121-.1425.9219-.1084,1.4637.9953.8357,1.6789Z"/><path class="c" d="m39.8389,38.5331c-4.4269,4.8197-11.0122,7.6166-18.2306,6.8375-9.7989-1.0575-17.7473-8.8861-18.9429-18.6691C1.4076,16.4089,7.4549,7.3135,16.3084,3.924c.8649-.3311,1.6933.5791,1.2539,1.3944-1.9577,3.633-2.9059,7.8945-2.4493,12.4155,1.1121,11.0109,10.704,19.4569,21.7691,19.2627.7172-.0126,1.4241-.0605,2.121-.1425.9219-.1084,1.4637.9953.8357,1.6789Z"/></svg>