<?xml version="1.0" encoding="UTF-8"?><svg id="a" xmlns="http://www.w3.org/2000/svg" viewBox="0 0 48 48"><defs><style>.b{fill:none;stroke:#000;stroke-linecap:round;stroke-linejoin:round;}</style></defs><rect class="b" x="5.5001" y="5.5" width="37" height="37" rx="4" ry="4"/><path class="b" d="M35.333,5.5006v33.794l-11.333-3.7404M12.667,5.5002v33.794l11.333-3.7404"/><circle class="b" cx="24" cy="24.0002" r="7.9643"/><path class="b" d="M22.3551,26.203c.3652.3066.7594.4472,1.6449.4472h.4487c.7302,0,1.3221-.5932,1.3221-1.325h0c0-.7318-.5919-1.325-1.3221-1.325h-.8974c-.7302,0-1.3221-.5932-1.3221-1.325h0c0-.7318.5919-1.325,1.3221-1.325h.4487c.8854,0,1.2797.1405,1.6449.4472"/></svg>