<svg xmlns="http://www.w3.org/2000/svg" viewBox="0 0 33.0438 40"><defs><style>.a{fill:none;stroke:#000;stroke-linecap:round;stroke-linejoin:round;}.b{fill:#000;}</style></defs><path class="a" d="M24,4.5c8.1258,0,16.0219,11.4016,16.0219,21.75-.007,9.5346-7.1632,17.2577-15.9837,17.25H24" transform="translate(-7.4781 -4)"/><path class="a" d="M24,4.5C15.8742,4.5,7.9781,15.9016,7.9781,26.25c.007,9.5346,7.1632,17.2577,15.9837,17.25H24" transform="translate(-7.4781 -4)"/><path class="b" d="M24.8128,24.2774a.75.75,0,0,1-1.5,0h0a.75.75,0,0,1,1.5,0Zm0,4.7068a.75.75,0,0,1-1.5,0h0a.75.75,0,0,1,.75-.75h0a.75.75,0,0,1,.75.75Z" transform="translate(-7.4781 -4)"/><path class="a" d="M10.9753,27.6817a2.3722,2.3722,0,0,0,2.376,2.3684l.02,0a2.2979,2.2979,0,0,0,2.3081-2.2875q0-.04-.0011-.0807V25.3134a2.3538,2.3538,0,0,0-2.307-2.3682,2.43,2.43,0,0,0-2.3958,2.3682Zm.6212,1.4911,3.5492-5.35" transform="translate(-7.4781 -4)"/><path class="a" d="M22.0665,27.7408H17.3638l3.8154-4.7957V30.05" transform="translate(-7.4781 -4)"/><path class="a" d="M26.0593,25.3134a2.3539,2.3539,0,0,1,2.3071-2.3682,2.43,2.43,0,0,1,2.3957,2.3682,2.3829,2.3829,0,0,1-.71,1.6666c-.976.7894-3.9929,3.07-3.9929,3.07H30.762" transform="translate(-7.4781 -4)"/><path class="a" d="M35.2873,26.4976a1.7762,1.7762,0,0,0,0-3.5524H34.1338a1.7762,1.7762,0,0,0,0,3.5524h0a1.7762,1.7762,0,0,0,0,3.5523h1.1535a1.7762,1.7762,0,0,0,0-3.5523" transform="translate(-7.4781 -4)"/><line class="a" x1="26.6557" y1="22.4976" x2="27.8092" y2="22.4976"/></svg>