<svg xmlns="http://www.w3.org/2000/svg" viewBox="0 0 48 48"><defs><style>.a{fill:none;stroke:#000;stroke-linecap:round;stroke-linejoin:round;}</style></defs><path class="a" d="M21.1413,30.4992c0,4.7372,4.4663,2.4722,4.8083,2.3574,1.449-.4865,9.2629-5.4373,10.5456-6.0882s5.47-2.3326,5.1036,2.9464c-.3213,4.634-5.1344,6.8726-5.1036,6.8979"/><path class="a" d="M25.95,22.1716c-1.9,1.3329-4.8083,3.59-4.8083,8.3276"/><path class="a" d="M9.6768,12.7775c.85-.5639,8.27-4.815,12.3546-7.15a5.9237,5.9237,0,0,1,5.3349.0134L38.3109,11.96c1.4714.8494,1.4624,2.2108-.0179,3.0447-3.9443,2.2222-10.99,6.2184-12.3433,7.1677"/><path class="a" d="M22.0785,33.0915S10.3792,26.097,9.928,25.8127a8.4535,8.4535,0,0,1-3.5352-6.53,6.5939,6.5939,0,0,1,3.2847-6.5054"/><path class="a" d="M32.2109,18.5569l4.35,2.5112a9.7423,9.7423,0,0,1,5.0415,7.4967"/><path class="a" d="M15.1311,28.8975l-6.129,3.2543a1.704,1.704,0,0,0-.0529,2.9808l12.3915,7.1536a5.329,5.329,0,0,0,5.3284,0l9.8271-5.6733"/></svg>