<svg xmlns="http://www.w3.org/2000/svg" viewBox="0 0 48 48"><defs><style>.a{fill:none;stroke:#000;stroke-linecap:round;stroke-linejoin:round;}</style></defs><path class="a" d="M7.646,28.5251a3.48,3.48,0,0,0,2.9193,1.3137h1.7516a2.9279,2.9279,0,0,0,2.9194-2.9194h0A2.9279,2.9279,0,0,0,12.3169,24H10.4194A2.9279,2.9279,0,0,1,7.5,21.0807h0a2.9279,2.9279,0,0,1,2.9194-2.9193H12.171A3.134,3.134,0,0,1,15.09,19.4751"/><path class="a" d="M18.1117,29.8388V18.1612l5.8388,11.6776,5.8388-11.6776V29.8388"/><path class="a" d="M32.91,28.5251a3.48,3.48,0,0,0,2.9193,1.3137h1.7516A2.9279,2.9279,0,0,0,40.5,26.9194h0A2.9279,2.9279,0,0,0,37.5806,24H35.6831a2.9279,2.9279,0,0,1-2.9194-2.9194h0a2.9279,2.9279,0,0,1,2.9194-2.9193h1.7516a3.134,3.134,0,0,1,2.9193,1.3137"/><circle class="a" cx="24" cy="24" r="21.5"/></svg>