<?xml version="1.0" encoding="UTF-8"?><svg id="a" xmlns="http://www.w3.org/2000/svg" viewBox="0 0 48 48"><defs><style>.j{fill:none;stroke:#000;stroke-linecap:round;stroke-linejoin:round;}</style></defs><path id="b" class="j" d="M22.3832,28.2741l4.223,4.2142c1.4142,1.415,3.7076,1.4157,5.1226,.0015l.0015-.0015,8.0396-8.0396"/><path id="c" class="j" d="M27.101,22.0544c-1.3794,4.692-5.6847,7.9147-10.5752,7.9159-.2124-.0086-.4245-.0233-.6361-.0442v9.2765c0,.5855,.4747,1.0602,1.0602,1.0602h24.49c.5855,0,1.0602-.4747,1.0602-1.0602h0V23.1235c0-.5855-.4747-1.0602-1.0602-1.0602h-14.3388v-.0088Z"/><circle id="d" class="j" cx="16.5258" cy="18.9446" r="11.0258"/><path id="e" class="j" d="M6.7634,13.4847c-1.2662-1.4223-1.1396-3.6018,.2827-4.868,1.4223-1.2662,3.6018-1.1396,4.868,.2827h0"/><path id="f" class="j" d="M21.4644,9.085c1.1586-1.5096,3.3216-1.7941,4.8311-.6355s1.7941,3.3216,.6355,4.8311c-.1691,.2203-.3642,.4193-.581,.5928"/><path id="g" class="j" d="M16.782,12.345v7.1032l3.9756,3.3837"/><path id="h" class="j" d="M39.611,37.8687l-7.2533-5.9458"/><path id="i" class="j" d="M18.7963,37.8687l7.2533-5.9458"/></svg>