<svg xmlns="http://www.w3.org/2000/svg" viewBox="0 0 48 48"><defs><style>.a{fill:none;stroke:#000;stroke-linecap:round;stroke-linejoin:round;}</style></defs><path class="a" d="M7.5,5.5a2,2,0,0,0-2,2V24.059a6.3874,6.3874,0,0,1,1.404-.176H6.91a6.4,6.4,0,0,1,5.303,2.816,6.414,6.414,0,0,1,8.89-1.8034q.15.099.2933.2064a6.4493,6.4493,0,0,1,1.11,9.277l-.05.064-.052.057-6.799,8H40.5a2,2,0,0,0,2-2V7.5a2,2,0,0,0-2-2Z"/><path class="a" d="M10.417,30.354a2.2458,2.2458,0,0,0-1.745,3.664l3.603,4.229,3.569-4.186.017-.02.018-.023a2.2492,2.2492,0,1,0-3.604-2.68,2.2433,2.2433,0,0,0-1.856-.984Z"/></svg>