<?xml version="1.0" encoding="UTF-8"?><svg id="b" xmlns="http://www.w3.org/2000/svg" viewBox="0 0 48 48"><defs><style>.c{fill:none;stroke:#000;stroke-linecap:round;stroke-linejoin:round;}</style></defs><path class="c" d="m24.4804,43.5c-1.1847,0-2.3872-.3631-3.4425-1.1377-2.3935-1.757-2.9562-5.1158-1.4807-7.6923l2.276-3.9746c.2352-.4107-.0613-.9222-.5346-.9222h-5.4277c-1.5798,0-3.1506-.5407-4.2725-1.653-1.9233-1.9069-2.2477-4.779-.9685-7.0116l7.7405-13.515c1.5753-2.7506,5.0686-3.9355,7.8652-2.4435,2.8934,1.5436,3.9196,5.1604,2.3017,7.9853l-2.3706,4.1391c-.2352.4107.0613.9223.5346.9223h5.4307c1.5796,0,3.1499.5413,4.271,1.6539,1.9218,1.9073,2.246,4.7782.967,7.0111l-7.8616,13.7259c-1.0687,1.8668-3.0206,2.9123-5.028,2.9123Z"/></svg>