<?xml version="1.0" encoding="UTF-8"?><svg xmlns="http://www.w3.org/2000/svg" viewBox="0 0 48 48"><defs><style>.c{fill:none;stroke:#000;stroke-linecap:round;stroke-linejoin:round;}</style></defs><g id="a"><path class="c" d="m4.5,11.5c0-1.6569,1.3431-3,3-3h8.7181c.8337,0,1.6465.2605,2.325.7451l4.9138,3.5099c.6784.4846,1.4913.7451,2.325.7451h14.7181c1.6569,0,3,1.3431,3,3v20c0,1.6569-1.3431,3-3,3H7.5c-1.6569,0-3-1.3431-3-3V11.5Z"/></g><g id="b"><path class="c" d="m20.6265,29.9113c-2.6139-2.6024-2.6231-6.831-.0207-9.4448s6.831-2.6231,9.4448-.0207l-9.4241,9.4656Z"/><path class="c" d="m27.3735,23.0887c2.6139,2.6024,2.6231,6.831.0208,9.4448-2.6024,2.6139-6.831,2.6231-9.4448.0208l9.4241-9.4656Z"/></g></svg>