<?xml version="1.0" encoding="UTF-8"?><svg id="b" xmlns="http://www.w3.org/2000/svg" viewBox="0 0 48 48"><defs><style>.am{fill:none;stroke:#000;stroke-linecap:round;stroke-linejoin:round;}</style></defs><path id="f" class="am" d="M9.5,5.4996h29c2.216,0,4,1.784,4,4v29c0,2.216-1.784,4-4,4H9.5c-2.216,0-4-1.784-4-4V9.4996c0-2.216,1.784-4,4-4Z"/><g id="g"><path id="h" class="am" d="M26.5389,25.2339c1.8474-3.9553,1.1043-8.4978-1.2851-8.8471-5.7671-.8429-3.6224,9.2264-6.6727,8.7132-2.556-.4301-3.9632-5.9333-5.7243-5.1516-1.3883.6162.4243,5.6573,1.3615,6.722"/><path id="i" class="am" d="M17.1707,27.3628c-.397.2229-.8217.3657-1.2238.3649-1.4495-.0027-1.4046-.1372-1.1225.2439.9951,1.3442,2.5741,2.4724,5.2846,2.404h0c3.1848.0516,5.5218-1.2885,6.5089-3.7472.3506-1.2856-1.4347-.7501-3.3858.0121-1.2281.4797-1.9098.3228-2.8286.0804"/><path id="j" class="am" d="M18.1153,26.4176l.7908.3367"/><g id="k"><path id="l" class="am" d="M23.6115,12.2601c.8292-1.8638,2.5853-4.1866,4.4754-4.8994.8502,2.5399,1.1479,5.1842.3542,7.3809"/><path id="m" class="am" d="M12.2735,18.4604c-1.676-1.7209-2.8356-4.2054-3.5756-6.6385.6848-.6219,4.4111,1.084,6.115,1.769"/></g><g id="n"><path id="o" class="am" d="M23.2969,9.2395c-2.6056.2096-5.227,1.1006-7.4055,2.7989"/><path id="p" class="am" d="M38.711,24.8829c-.369-3.6392-1.9978-7.9165-5.88-10.4185l1.6148-.6199c-.8371-1.3662-2.1458-2.4711-3.7291-3.261"/><path id="q" class="am" d="M24.3598,30.209c1.5852-.1977,3.0231.3499,4.1855,1.4436"/><path id="r" class="am" d="M27.1773,36.4353c.3439,1.08.2606,2.1584.1354,3.2302-.4123-.5637-.9506-1.1625-1.5532-1.5642"/><path id="s" class="am" d="M14.3818,29.6189c.1161.4989.3094,1.0726.5628,1.6704"/></g></g><g id="t"><g id="u"><path id="v" class="am" d="M34.6152,24.928c.2438-1.8074.3063-4.2661-1.362-4.2189-1.7859.0505-2.0663,1.7642-1.6775,4.1076.2209,1.3317-.2866,2.2578.0023,3.7384"/><path id="w" class="am" d="M31.5141,27.0057c.5685-1.7278,2.4198-2.2358,4.2305-1.8042,2.4089.5742,3.1908,2.7376,3.0854,4.5488-.1887,3.2434.0325,6.5312-1.6731,7.7547-.8924.6401-2.7258.8946-3.9834.6285"/><path id="x" class="am" d="M37.0729,28.896c-1.348-.7727-2.2846-1.3747-3.8565-1.0367-2.2804.4903-2.2129,1.9728-1.7565,3.4125"/><path id="y" class="am" d="M36.7576,31.8085c-.799-.305-1.5504-.6806-2.4691-.8249-2.1026-.3301-3.0694.1359-3.3687,1.2306-.2367.8657.0564,1.3791.5873,1.5512"/><path id="z" class="am" d="M35.6864,34.4188c-1.16-.3412-1.4628-.4398-3.0288-.6123-1.8007-.1984-1.9796.7739-2.0209,1.4185-.0543.8484.3686,1.7482.8989,1.6742.8831-.1233,1.8633-.0356,3.4125.3147"/><path id="aa" class="am" d="M32.1265,39.0183c-3.5232.6206-4.5051-5.6119-2.5796-6.4823"/></g><path id="ab" class="am" d="M27.7307,34.9403c-.938-1.0773-1.668-1.601-2.4179-2.2742"/></g><g id="ac"><path id="ad" class="am" d="M17.0108,32.3369l-1.3919.0797c-.4828.0277-.7719.788-.7059,1.2668l.3295,2.3936"/><g id="ae"><path id="af" class="am" d="M10.1177,42.5004c-.1842-.3201-.3386-.6466-.4-.998l.4656-.7718c.0971-1.0704,1.2643-1.3379,1.6738-.5182.8036.2413-.1503-1.0063.655-1.1322l1.5514-.2424.0134-.2035"/><path id="ag" class="am" d="M15.606,39.6647c-.4076-.1036-.757-.263-.9609-.4103-.5326-.3846-.3466-1.2181-.5586-2.1068.3781.2797.7884.3822,1.3334.3659"/></g></g><g id="ah"><path id="ai" class="am" d="M25.0909,35.2042c-.2532,1.5838-1.347,3.3882-2.7852,4.2447l1.2912,3.0508"/><path id="aj" class="am" d="M19.1197,30.577c-2.7775,1.1458-3.041,5.5765-2.2058,8.1156l.3443,3.8073"/><path id="ak" class="am" d="M20.7107,30.4066c1.3627-.1088,3.8003,1.8783,2.3382,5.564-.9448,2.3817-2.7719,4.1256-4.6048,3.5104-.4683-.1572-1.4506-.7846-1.8256-2.0331"/><path id="al" class="am" d="M21.1377,42.4996l-.5037-1.377-1.334-.3335.2295,1.7111"/></g></svg>