<?xml version="1.0" encoding="UTF-8"?><svg id="b" xmlns="http://www.w3.org/2000/svg" viewBox="0 0 48 48"><defs><style>.d{fill:#000;}.e{fill:none;stroke:#000;stroke-linecap:round;stroke-linejoin:round;}</style></defs><path id="c" class="e" d="m40.5,5.5H7.5c-1.1046,0-2,.8954-2,2v33c0,1.1046.8954,2,2,2h33c1.1046,0,2-.8954,2-2V7.5c0-1.1046-.8954-2-2-2Z"/><path class="e" d="m5.5,7.5v3.2305c0,4.3342,2.7921,8.1751,6.915,9.5122l23.1701,7.5146c4.1228,1.3371,6.915,5.178,6.915,9.5122v3.2305"/><g><polyline class="e" points="24.8162 17 24.8162 10 29.4537 17 29.4537 10"/><g><polyline class="e" points="36.0369 10 33.7181 13.5 31.3994 10"/><line class="e" x1="33.7181" y1="17" x2="33.7181" y2="13.5"/></g><path class="e" d="m12.1018,16.233c.4292.5588.9675.767,1.7163.767h1.0363c.9644,0,1.7462-.7818,1.7462-1.7462v-.0075c0-.9644-.7818-1.7462-1.7462-1.7462h-1.1432c-.9655,0-1.7481-.7827-1.7481-1.7481h0c0-.9675.7843-1.7519,1.7519-1.7519h1.0307c.7488,0,1.2871.2082,1.7163.767"/><rect class="e" x="18.2331" y="10" width="4.6375" height="7" rx="2.3187" ry="2.3187"/></g><g><polyline class="e" points="30.6111 31.2489 27.8749 38.5 25.1386 31.2489"/><g><circle class="d" cx="22.1872" cy="27.8969" r=".75"/><line class="e" x1="22.1872" y1="31.2489" x2="22.1872" y2="38.5"/></g><path class="e" d="m17.3889,27.5549v9.577c0,.7556.6125,1.3681,1.3681,1.3681h.4104"/></g></svg>