<?xml version="1.0" encoding="UTF-8"?><svg id="a" xmlns="http://www.w3.org/2000/svg" viewBox="0 0 48 48"><defs><style>.b{fill:none;stroke:#000;stroke-linecap:round;stroke-linejoin:round;}</style></defs><circle class="b" cx="24" cy="24" r="21.5"/><path class="b" d="M3.3,29.6c.1,.2,.6,1.1,.7,1.2,2.2,2.9,5.2,4.6,8.7,5.6,2.6,.7,5.3,.8,8,.5,1.4-.2,3-.6,4.8-1.3,1-.4,2.5-1,4.1-2,.1-.1,1.6-.9,2.8-2,3.1-2.7,5.3-6.1,6.2-10.1,1-4.7,.1-9-3.1-12.7-2.8-3.3-6.4-4.9-10.5-5.6-1.9-.3-3.9-.3-5.8,0-.6,.1-1.1,.1-1.4,.2"/><path class="b" d="M20.8,36.5V18.8c0-.5-.1-.7-.7-.7h-3.2c-.8,0-1-.3-1-1v-3.2c0-.4,.2-.7,.6-.9,2-1,4.1-2.1,6.1-3.1,.5-.3,1-.4,1.6-.4h4.2c1,0,1.2,.2,1.2,1.2v22.6"/></svg>