<?xml version="1.0" encoding="UTF-8"?><svg id="a" xmlns="http://www.w3.org/2000/svg" viewBox="0 0 48 48"><defs><style>.b{fill:none;stroke:#000;stroke-linecap:round;stroke-linejoin:round;}</style></defs><path class="b" d="m15.9982,43.9545h.01c10.3624,4.181,22.3451-.3201,27.3162-10.5124,5.2012-10.6724.7802-23.5354-9.8923-28.7465C22.7697-.5056,9.8968,3.9254,4.6956,14.5879c-2.6706,5.4712-2.8807,11.7927-.6301,17.394"/><circle class="b" cx="11.0868" cy="36.9132" r="8.582"/><path class="b" d="m2.8241,39.1485c.0399.0798.2395.4391.2794.479.8782,1.1576,2.0757,1.8362,3.4727,2.2353,1.0378.2794,2.1156.3193,3.1933.1996.5588-.0798,1.1975-.2395,1.916-.5189.3992-.1597.9979-.3992,1.6366-.7983.0399-.0399.6387-.3592,1.1177-.7983,1.2374-1.0777,2.1156-2.4349,2.4748-4.0316.3992-1.8761.0399-3.5925-1.2374-5.0694-1.1177-1.3172-2.5547-1.9559-4.1912-2.2353-.7584-.1197-1.5567-.1197-2.3152,0-.2395.0399-.4391.0399-.5588.0798"/><path class="b" d="m9.8095,41.9028v-6.5793c0-.1996-.0399-.2794-.2794-.2794h-1.2773c-.3193,0-.3992-.1197-.3992-.3992v-1.2773c0-.1597.0798-.2794.2395-.3593.7983-.3992,1.6366-.8382,2.4349-1.2374.1996-.1197.3992-.1597.6387-.1597h1.6765c.3992,0,.479.0798.479.479v8.5352"/><path class="b" d="m25.8549,24.13c1.3223-.6781,2.2367-2.0395,2.2367-3.6276,0-2.2597-1.8318-4.0915-4.0915-4.0915s-4.0915,1.8318-4.0915,4.0915c0,1.5881.9144,2.9495,2.2367,3.6276h-.0156l-1.1102,7.6518h5.9613l-1.1102-7.6518h-.0156Z"/></svg>