<svg xmlns="http://www.w3.org/2000/svg" viewBox="0 0 48 48"><defs><style>.a{fill:none;stroke:#000;stroke-linecap:round;stroke-linejoin:round;}</style></defs><path class="a" d="M8.4,6.5v35a2,2,0,0,0,2,2h2.33V4.5H10.4A2,2,0,0,0,8.4,6.5Z"/><path class="a" d="M12.73,4.5v39H37.6a2,2,0,0,0,2-2V6.5a2,2,0,0,0-2-2Z"/><path class="a" d="M19.3354,30.9v-6.971a6.83,6.83,0,1,1,13.6592,0V30.9"/><path class="a" d="M19.3354,25.56a2.67,2.67,0,0,0,0,5.3408"/><path class="a" d="M32.9946,30.9a2.67,2.67,0,0,0,0-5.3408"/></svg>