<svg xmlns="http://www.w3.org/2000/svg" viewBox="0 0 48 48"><defs><style>.a{fill:none;stroke:#000;stroke-linecap:round;stroke-linejoin:round;}</style></defs><path class="a" d="M9.17,24.589A4.3091,4.3091,0,0,0,4.511,29.1957V35.054S4.0451,39.0506,9.17,39.0506V23.4846a14.83,14.83,0,0,1,29.66,0v15.566c5.122,0,4.6593-3.9966,4.6593-3.9966V29.1957A4.3031,4.3031,0,0,0,38.83,24.589"/><path class="a" d="M11.8628,25.22V38.9981"/><path class="a" d="M14.387,27.9546,19.93,28.84,17.942,35.13l-3.555.059"/><path class="a" d="M33.529,27.9546l-5.1326.8856,1.8091,6.0791,3.3235.2062"/><path class="a" d="M18.1734,34.4755s3.7021,4.4384,5.5217,4.87"/><path class="a" d="M22.4856,35.5273a11.7108,11.7108,0,0,0,3.0395,3.1237"/><path class="a" d="M24.0632,34.37a16.2975,16.2975,0,0,0,3.2289,3.4182"/><path class="a" d="M28.6909,36.6842a24.0293,24.0293,0,0,0-4.5646-4.6067"/><path class="a" d="M27.9547,29.5322s-3.597-.6489-4.6067-.0295-3.0922,2.3033-2.3349,3.1027"/><path class="a" d="M27.9547,35.7376l1.7459-1.42"/><path class="a" d="M36.0532,25.22V38.9981"/></svg>