<svg xmlns="http://www.w3.org/2000/svg" viewBox="0 0 48 48"><defs><style>.a{fill:none;stroke:#000;stroke-linecap:round;stroke-linejoin:round;}.b{fill:#000;}</style></defs><path class="a" d="M23.0668,17.8076H36.7552m3.1059,5.8111,0,9.9618a1.8528,1.8528,0,0,1-1.6391,1.66l-1.8751-.0083-.0023,5.7106a2.0613,2.0613,0,0,1-4.1226.0081l.0023-5.7107H28.1l-.0022,5.7106a2.0613,2.0613,0,0,1-4.1226.0081l.0026-5.7107-1.8748.0083a1.8836,1.8836,0,0,1-1.5418-1.1851,1.2935,1.2935,0,0,1-.0978-.4752"/><circle class="b" cx="25.5644" cy="12.2733" r="0.75"/><path class="a" d="M34.6708,8.03l1.3659-3.0439"/><path class="a" d="M24.1074,4.9864,25.4734,8.03"/><circle class="a" cx="20.0412" cy="24.753" r="2.7843"/><circle class="a" cx="20.0412" cy="30.631" r="2.7843"/><circle class="a" cx="20.0412" cy="18.772" r="2.7843"/><circle class="a" cx="39.8907" cy="19.8013" r="3.6093"/><path class="a" d="M20.5173,15.8686a9.6991,9.6991,0,0,1,19.3082.1685"/><path class="a" d="M13.4527,19.7284a7.8343,7.8343,0,0,0-.0272,10.01h.0272"/><path class="a" d="M8.0216,14.95a15.4041,15.4041,0,0,0,0,19.6054"/><circle class="b" cx="34.6708" cy="12.2733" r="0.75"/></svg>