<?xml version="1.0" encoding="UTF-8"?><svg id="b" xmlns="http://www.w3.org/2000/svg" viewBox="0 0 48 48"><defs><style>.c{fill:none;stroke:#000;stroke-linecap:round;stroke-linejoin:round;}</style></defs><path class="c" d="m40.5,5.5H7.5c-1.1046,0-2,.8954-2,2v33c0,1.1046.8954,2,2,2h33c1.1046,0,2-.8954,2-2V7.5c0-1.1046-.8954-2-2-2Z"/><path class="c" d="m33.593,16.863c1.228,0,2.232,1.013,2.232,2.25s-1.004,2.25-2.232,2.25h-3.683v-8.999h3.683c1.228,0,2.232,1.012,2.232,2.25,0,1.237-1.004,2.25-2.232,2.25v-.001Z"/><path class="c" d="m33.593,16.863h-3.683"/><path class="c" d="m12.286,20.242c.558.675,1.228,1.012,2.232,1.012h1.34c1.228,0,2.232-1.012,2.232-2.25h0c0-1.237-1.004-2.25-2.232-2.25h-1.451c-1.228,0-2.232-1.012-2.232-2.249h0c0-1.237,1.004-2.25,2.232-2.25h1.34c1.004,0,1.673.225,2.232,1.013"/><path class="c" d="m20.303,21.164c.714.854,1.571,1.281,2.857,1.281h1.714c1.5729-.0022,2.8489-1.2741,2.856-2.847h0c-.0066-1.5733-1.2827-2.8458-2.856-2.848h-1.857c-1.5737-.0016-2.8504-1.2743-2.857-2.848h0c.0072-1.5733,1.2837-2.8454,2.857-2.847h1.714c1.285,0,2.142.284,2.856,1.281"/><path class="c" d="m11.062,34.842v-7.9l4,8,4-8v8"/><path class="c" d="m23.39,34.942h0c-1.1,0-2-.9-2-2v-1.3c0-1.1.9-2,2-2h0c1.1,0,2,.9,2,2v1.3c0,1.1-.9,2-2,2Z"/><path class="c" d="m31.177,29.542l-2,5.4-2-5.4"/><path class="c" d="m36.638,34.107c-.3.6-1,1-1.7,1h0c-1.1,0-2-.9-2-2v-1.3c0-1.1.9-2,2-2h0c1.1,0,2,.9,2,2v.7h-4"/></svg>