<?xml version="1.0" encoding="UTF-8"?><svg id="a" xmlns="http://www.w3.org/2000/svg" viewBox="0 0 48 48"><defs><style>.b{fill:none;stroke:#000;stroke-linecap:round;stroke-linejoin:round;}</style></defs><path class="b" d="m40.5,5.5H7.5c-1.1046,0-2,.8954-2,2v33c0,1.1046.8954,2,2,2h33c1.1046,0,2-.8954,2-2V7.5c0-1.1046-.8954-2-2-2Z"/><g><path class="b" d="m10.8118,30.247c.9811,1.2773,2.2114,1.7531,3.923,1.7531h2.3688c2.2044,0,3.9914-1.787,3.9914-3.9914v-.0172c0-2.2044-1.787-3.9914-3.9914-3.9914h-2.6129c-2.2068,0-3.9957-1.7889-3.9957-3.9957h0c0-2.2115,1.7928-4.0043,4.0043-4.0043h2.3558c1.7116,0,2.9419.4758,3.923,1.7531"/><path class="b" d="m24.2118,30.247c.9811,1.2773,2.2114,1.7531,3.923,1.7531h2.3688c2.2044,0,3.9914-1.787,3.9914-3.9914v-.0172c0-2.2044-1.787-3.9914-3.9914-3.9914h-2.6129c-2.2068,0-3.9957-1.7889-3.9957-3.9957h0c0-2.2115,1.7928-4.0043,4.0043-4.0043h2.3558c1.7116,0,2.9419.4758,3.923,1.7531"/><path class="b" d="m37.505,32v-16"/></g></svg>