<?xml version="1.0" encoding="UTF-8"?><svg id="b" xmlns="http://www.w3.org/2000/svg" viewBox="0 0 48 48"><defs><style>.d{fill:none;stroke:#000;stroke-linecap:round;stroke-linejoin:round;}</style></defs><path class="d" d="m20.4308,14.6474c-4.0876,6.1412-.3578,8.2539-.3578,11.0064s-2.3397,3.0829-2.3397,5.4501,2.6975,3.2481,2.6975,5.6979-2.1195,3.771-2.1195,6.331c0,.48.1916.9813.503,1.479"/><path class="d" d="m2.8922,23.6078c3.6691,2.4182,4.0784-.9552,7.2164-.9542"/><path class="d" d="m11.7326,39.114c-1.0185.2477-1.624.9948-1.624.9948"/><path class="d" d="m9.1177,26.0117c-1.6791-.1652-3.2712,2.0448-5.9709,1.4904"/><path class="d" d="m8.7323,28.9845c-1.6791-.0826-2.8149,2.0217-4.8482,1.6439"/><path class="d" d="m8.7323,31.8196c-1.101.1101-2.4749,1.8739-3.8524,1.3498"/><path class="d" d="m9.6682,34.3795c-.9084-.1376-2.551,1.4342-3.2986,1.4465"/><path class="d" d="m10.4664,36.9945c-1.2937-.0551-1.775.9578-2.3601,1.112"/><path class="d" d="m18.0774,15.3948c-2.8765,6.2665-.2341,7.9468-.2341,10.0388,0,1.6791-2.6425,3.6059-2.6425,5.7804s2.7801,4.0463,2.7801,5.9731-2.6022,4.1882-2.0168,6.5533"/><path class="d" d="m22.9288,23.162c.3629.361.7223.351,1.0712.351"/><path class="d" d="m24,21.6186c-.116,0-.4036.0855-.4036.0855"/><path class="d" d="m20.0386,17.7324c.3922.455,3.2607-.9488,2.8356,2.0753-.3342-.2409-1.2984-.1754-1.7254-.1554-.9037.0423-1.4405-.7643-1.1102-1.9198Z"/><path class="d" d="m24,5.037c-.2294.3303-1.083,2.498-1.083,2.498-.7963-.0206-2.6513.1858-2.6513.1858.289.4335,1.8993,1.7548,1.8993,1.7548,0,0-.2064,1.4658-1.0116,2.5806,0,0-2.3948-1.4451-4.356-1.8786,0,0,.8051,1.4038.8258,2.7251-.4129-.3303-1.9612-.7226-3.0347-.9084,1.5277,1.7135,1.8374,4.0463,1.8374,4.0463,4.0257-1.6516,5.5488-1.7961,7.5742-1.7961"/><path class="d" d="m14.8981,16.6804c-1.5414.8258-3.3306,3.7435-3.3306,3.7435-2.1195-1.4313-5.9456,2.3951-6.964,1.2801,3.1827-2.2863,3.5487-6.6083,3.2204-8.1065,1.6241.7157,2.2847,2.4498,2.4223,3.5784,1.8718-.9084,2.8627-1.1561,4.6519-.4955Z"/><path class="d" d="m15.5587,36.0862c.6881,2.1745-2.4061,4.0888-1.8086,6.5862"/><path class="d" d="m25.0712,23.162c-.3629.361-.7223.351-1.0712.351"/><path class="d" d="m24,21.6186c.116,0,.4036.0855.4036.0855"/><path class="d" d="m19.3514,23.162c1.2858,2.6019,3.8411,2.8408,4.6486,2.8408"/><path class="d" d="m16.4258,16.0404c-2.8489,5.1817-.8671,7.026-.8671,8.8977s-2.6975,4.0188-2.5324,6.0006,1.2625,3.2756,1.2625,3.2756c0,0-2.4462,1.5842-3.4646,1.6117-.757-.5643-1.0542-2.1622-1.0266-3.1119,1.7754-.1514,3.1526-2.1057,3.1526-2.1057"/><path class="d" d="m27.5692,14.6474c4.0876,6.1412.3578,8.2539.3578,11.0064s2.3397,3.0829,2.3397,5.4501c0,2.3672-2.6975,3.2481-2.6975,5.6979,0,2.4498,2.1195,3.771,2.1195,6.331,0,.48-.1916.9813-.503,1.479"/><path class="d" d="m45.1078,23.6078c-3.6691,2.4182-4.0784-.9552-7.2164-.9542"/><path class="d" d="m36.2674,39.114c1.0185.2477,1.624.9948,1.624.9948"/><path class="d" d="m38.8823,26.0117c1.6791-.1652,3.2712,2.0448,5.9709,1.4904"/><path class="d" d="m39.2677,28.9845c1.6791-.0826,2.8149,2.0217,4.8482,1.6439"/><path class="d" d="m39.2677,31.8196c1.101.1101,2.4749,1.8739,3.8524,1.3498"/><path class="d" d="m38.3318,34.3795c.9084-.1376,2.551,1.4342,3.2986,1.4465"/><path class="d" d="m37.5336,36.9945c1.2937-.0551,1.775.9578,2.3601,1.112"/><path class="d" d="m29.9226,15.3948c2.8765,6.2665.2341,7.9468.2341,10.0388,0,1.6791,2.6425,3.6059,2.6425,5.7804s-2.7801,4.0463-2.7801,5.9731c0,1.9268,2.6022,4.1882,2.0168,6.5533"/><path class="d" d="m27.9614,17.7324c-.3922.455-3.2607-.9488-2.8356,2.0753.3342-.2409,1.2984-.1754,1.7254-.1554.9037.0423,1.4405-.7643,1.1102-1.9198Z"/><path class="d" d="m24,5.037c.2294.3303,1.083,2.498,1.083,2.498.7963-.0206,2.6513.1858,2.6513.1858-.289.4335-1.8993,1.7548-1.8993,1.7548,0,0,.2064,1.4658,1.0116,2.5806,0,0,2.3948-1.4451,4.356-1.8786,0,0-.8051,1.4038-.8258,2.7251.4129-.3303,1.9612-.7226,3.0347-.9084-1.5277,1.7135-1.8374,4.0463-1.8374,4.0463-4.0257-1.6516-5.5488-1.7961-7.5742-1.7961"/><path class="d" d="m33.1019,16.6804c1.5414.8258,3.3306,3.7435,3.3306,3.7435,2.1195-1.4313,5.9456,2.3951,6.964,1.2801-3.1827-2.2863-3.5487-6.6083-3.2204-8.1065-1.6241.7157-2.2847,2.4498-2.4223,3.5784-1.8718-.9084-2.8627-1.1561-4.6519-.4955Z"/><path class="d" d="m32.4413,36.0862c-.6881,2.1745,2.4061,4.0888,1.8086,6.5862"/><path class="d" d="m28.6486,23.162c-1.2858,2.6019-3.8411,2.8408-4.6486,2.8408"/><path class="d" d="m31.5742,16.0404c2.8489,5.1817.8671,7.026.8671,8.8977,0,1.8718,2.6975,4.0188,2.5324,6.0006s-1.2625,3.2756-1.2625,3.2756c0,0,2.4462,1.5842,3.4646,1.6117.757-.5643,1.0542-2.1622,1.0266-3.1119-1.7754-.1514-3.1526-2.1057-3.1526-2.1057"/><circle id="c" class="d" cx="24" cy="24" r="21.5"/></svg>