<?xml version="1.0" encoding="UTF-8"?><svg id="b" xmlns="http://www.w3.org/2000/svg" viewBox="0 0 48 48"><defs><style>.c{fill:none;stroke:#000;stroke-linecap:round;stroke-linejoin:round;}</style></defs><path class="c" d="M7.5299,18.4903c-.151,2.392,10.4679,2.557,11.5859,2.425,0,0-13.6589,19.6109-12.1519,21.8828.894,1.348,7.5279-4.187,15.9659-12.6299,2.864-3,3.547-1.943,4.545-.39,2.546,3.893,7.164,10.6519,8.4389,10.0449,2.258-1.059-4.402-19.3659-4.402-19.3659,0,0,10.4349-3.611,9.5919-6.136-.712-2.126-12.4279-1.131-12.4279-1.131l-.035-.141c-.267-1.131-2.05-8.4959-3.61-8.0279-1.914.569-3.581,8.6829-5.001,8.9189-5.775,1.082-12.3899,2.966-12.4999,4.547"/></svg>