<?xml version="1.0" encoding="UTF-8"?><svg id="a" xmlns="http://www.w3.org/2000/svg" viewBox="0 0 48 48"><defs><style>.b{fill:none;stroke:#000;}</style></defs><path class="b" d="M18.0844,29.3959c1.283.4892,2.7197-.1544,3.2088-1.4374s-.1544-2.7197-1.4374-3.2088l-13.7546-5.244c-1.283-.4892-1.9266-1.9258-1.4374-3.2088s1.9258-1.9266,3.2088-1.4374l13.7546,5.244c1.283.4892,2.7197-.1544,3.2088-1.4374s-.1544-2.7197-1.4374-3.2088l-3.7877-1.4441c-1.283-.4892-1.9266-1.9258-1.4374-3.2088s1.9258-1.9266,3.2088-1.4374l14.1116,5.3801c6.4152,2.4458,9.633,9.629,7.1872,16.0441s-9.629,9.633-16.0441,7.1872l-14.1116-5.3801c-1.283-.4892-1.9266-1.9258-1.4374-3.2088s1.9258-1.9266,3.2088-1.4374l3.7877,1.4441Z"/></svg>