<svg xmlns="http://www.w3.org/2000/svg" viewBox="0 0 48 48"><defs><style>.a{fill:none;stroke:#000;stroke-linecap:round;stroke-linejoin:round;}</style></defs><path class="a" d="M41,32.5l2.5-24H14c-3.3,0-6.6581,3.7179-7,7l-2.5,24H34C37.3,39.5,40.6581,35.7821,41,32.5Z"/><path class="a" d="M12.1,20.6a2.3842,2.3842,0,0,0,2,.9h1.2a2,2,0,0,0,0-4H14a2,2,0,0,1,0-4h1.2a2.1472,2.1472,0,0,1,2,.9"/><path class="a" d="M20,13.5h2.7036v8"/><path class="a" d="M28,13.5l2,8,2-8,2,8,2-8"/><path class="a" d="M17,26.5v4h5.3v4"/><path class="a" d="M25.7,34.5v-8H27a4,4,0,0,1,0,8Z"/></svg>