<?xml version="1.0" encoding="UTF-8"?><svg id="a" xmlns="http://www.w3.org/2000/svg" viewBox="0 0 48 48"><rect x="5.5" y="5.5" width="37" height="37" rx="4" ry="4" style="fill:none; stroke:#000; stroke-linecap:round; stroke-linejoin:round;"/><path d="M9.8342,27.124c.4906.6387,1.1057.8765,1.9615.8765h1.1844c1.1022,0,1.9957-.8935,1.9957-1.9957v-.0086c0-1.1022-.8935-1.9957-1.9957-1.9957h-1.3065c-1.1034,0-1.9978-.8945-1.9978-1.9978,0-1.1058.8964-2.0022,2.0022-2.0022h1.1779c.8558,0,1.4709.2379,1.9615.8765" style="fill:none; stroke:#000; stroke-linecap:round; stroke-linejoin:round;"/><path d="M17.892,20v5.35c0,1.4636,1.1864,2.65,2.65,2.65s2.65-1.1864,2.65-2.65v-5.35" style="fill:none; stroke:#000; stroke-linecap:round; stroke-linejoin:round;"/><line x1="34.324" y1="24" x2="36.934" y2="24" style="fill:none; stroke:#000; stroke-linecap:round; stroke-linejoin:round;"/><path d="M38.324,28h-4v-8h4" style="fill:none; stroke:#000; stroke-linecap:round; stroke-linejoin:round;"/><path d="M29.408,24c1.1046,0,2,.8954,2,2s-.8954,2-2,2h-3.3v-8h3.3c1.1046,0,2,.8954,2,2s-.8954,2-2,2Z" style="fill:none; stroke:#000; stroke-linecap:round; stroke-linejoin:round;"/><line x1="29.408" y1="24" x2="26.112" y2="24" style="fill:none; stroke:#000; stroke-linecap:round; stroke-linejoin:round;"/><path d="M23.192,18.5l-2.65-2.65-2.65,2.65" style="fill:none; stroke:#000; stroke-linecap:round; stroke-linejoin:round;"/></svg>