<?xml version="1.0" encoding="UTF-8"?><svg id="a" xmlns="http://www.w3.org/2000/svg" viewBox="0 0 48 48"><defs><style>.h{fill:none;stroke:#000;stroke-linecap:round;stroke-linejoin:round;}</style></defs><path id="b" class="h" d="m8.3486,27.2904C-2.8208,16.3345,12.7456-1.1098,24.2272,11.6221c10.7594-12.7319,26.5794,4.5434,15.5047,15.6683l-15.5047,15.5751-15.8786-15.5751Z"/><path id="c" class="h" d="m24.2673,28.4684c-2.5061-2.1029-3.4294-5.5486-2.3105-8.6227,1.1189-3.0742,4.041-5.1203,7.3125-5.1203,3.2715,0,6.1936,2.0461,7.3125,5.1203,1.1189,3.0742.1956,6.5199-2.3105,8.6227"/><path id="d" class="h" d="m14.939,28.032c-2.6593-2.2314-3.0897-6.1613-.9764-8.9154,2.1133-2.7541,6.0207-3.3555,8.8643-1.3643"/><path id="e" class="h" d="m34.2714,28.4683c.8471.3112,1.7212.7856,2.6576,1.6376"/><path id="f" class="h" d="m24.2673,28.4683c-2.9296,2.0101-5.207,4.5955-6.6134,7.9495"/><path id="g" class="h" d="m14.939,28.032c-1.5193.9075-2.4273,1.8149-2.9619,2.7224"/></svg>