<svg xmlns="http://www.w3.org/2000/svg" viewBox="0 0 48 48"><defs><style>.a{fill:none;stroke:#000;stroke-linecap:round;stroke-linejoin:round;}</style></defs><path class="a" d="M24.0871,22.5469a10.64,10.64,0,0,0-5.1417,3.89c-1.52,2.1908-5.5442,7.78-5.5442,9.97S19.5266,44.5,19.5266,44.5s-8.54-3.1745-9.3893-6.1254a36.3973,36.3973,0,0,1-.8942-10.82c.2682-2.5932,2.1908-9.8811,3.2192-11.446S21.4045,4.5731,24.0871,3.5c2.638.8495,6.3043,5.0523,8.54,7.8691s6.4384,13.4581,6.2149,15.8724S37.411,39.4029,36.6509,40.8784a29.1777,29.1777,0,0,0-3.13-6.9749c-.5366-.9389-5.1865-8.3163-5.1865-8.3163S25.2049,22.9046,24.0871,22.5469Z"/><path class="a" d="M14.9149,32.5828c1.2454,4.8113,6.6713,8.9512,8.8667,8.9512,1.7563,0,8.6876-3.5754,9.0012-8.8444"/><path class="a" d="M19.3843,25.8454c.2181.65-.4405,3.92-1.3108,4.5782,0,0,6.7252-.9515,7.4908-7.015-.0577,2.8515-.9751,5.9094-2.3394,7.015,2.2817-.4705,5.4761-4.2547,5.4761-4.2547"/><path class="a" d="M22.5192,39.2445a6.2746,6.2746,0,0,1,2.7286,0"/><line class="a" x1="24" y1="12.6171" x2="20.5982" y2="14.9694"/><polyline class="a" points="22.449 15.455 20.065 17.275 22.299 20.082 18.356 22.497"/><polyline class="a" points="24 15.973 22.37 17.588 24 19.987"/><line class="a" x1="24" y1="12.6171" x2="27.4018" y2="14.9694"/><polyline class="a" points="25.551 15.455 27.935 17.275 25.701 20.082 29.644 22.497"/><polyline class="a" points="24 15.973 25.63 17.588 24 19.987"/><path class="a" d="M15.58,31.46a5.9192,5.9192,0,0,0,5.0027,1.8086"/><path class="a" d="M20.5825,33.2688a5.6784,5.6784,0,0,0-3.7676-3.734"/><path class="a" d="M31.26,30.2445a5.6041,5.6041,0,0,0-4.64,2.5862,4.359,4.359,0,0,0,5.4474-1.2931"/><line class="a" x1="29.802" y1="31.7751" x2="29.2916" y2="31.979"/><line class="a" x1="17.6266" y1="31.4602" x2="18.2146" y2="31.7566"/><path class="a" d="M26.507,30.4236a14.3736,14.3736,0,0,1,3.76-1.763"/><path class="a" d="M21.3762,31.1238a14.5072,14.5072,0,0,0-1.3686-1.231"/><path class="a" d="M18.8831,28.9894c-.4088-.2207-1.2274-.6968-1.2274-.6968"/><path class="a" d="M23.2717,36.0493a1.3975,1.3975,0,0,0,1.0875,0"/></svg>