<svg xmlns="http://www.w3.org/2000/svg" viewBox="0 0 48 48"><defs><style>.a{fill:none;stroke:#000;stroke-linecap:round;stroke-linejoin:round;}</style></defs><path class="a" d="M8.442,11.1484,4.0546,15.5549a1.9171,1.9171,0,0,0,.0018,2.6992L22.6552,36.8528a1.8981,1.8981,0,0,0,2.6842.0055l.0054-.0055L43.9436,18.2541a1.9171,1.9171,0,0,0,.0018-2.6992L39.558,11.1484a1.9078,1.9078,0,0,0-1.3449-.56H9.7905a1.9078,1.9078,0,0,0-1.3449.56Z"/><path class="a" d="M17.894,27.3627a8.5947,8.5947,0,0,1,12.113,0"/><path class="a" d="M14.5558,24.0245a13.4015,13.4015,0,0,1,18.8848,0"/><path class="a" d="M11.2175,20.6862a18.226,18.226,0,0,1,25.6567,0"/></svg>