<?xml version="1.0" encoding="UTF-8"?><svg id="a" xmlns="http://www.w3.org/2000/svg" viewBox="0 0 48 48"><defs><style>.c{fill:none;stroke:#000;stroke-linecap:round;stroke-linejoin:round;}</style></defs><path id="b" class="c" d="m31.101,15.45c-.727-2.05-3.944-4.035-7.626-3.68-3.789.363-6.673,3.17-7.054,6.425-.253,2.166,1.039,1.685,1.427.735,1.047-2.56,4.865-4.943,7.42-5.052,1.604-.068,3.484.422,4.695,1.15.464.279.882.713,1.138.422h0m-8.757,14.376c-4.8237-.9508-8.2942-5.1083-8.294-9.936,0-5.5969,4.624-10.134,10.328-10.134,5.704,0,10.328,4.5371,10.328,10.134h0c.0005,4.5902-3.1434,8.6076-7.663,9.792m8.966-4.625c-.141,1.213-.748,2.424-1.702,3.14l-.67-.45c-.232-1.155.354-2.657,1.54-3.16.4.025.59.276.832.47h0m.14-6.105c-.797.421-.79,4.24-.394,4.5l1.116.016c.434-1.331.514-3.28.18-4.43l-.902-.086h0m-23.407,6.105c.141,1.213.748,2.424,1.702,3.14l.67-.45c.232-1.155-.354-2.657-1.54-3.16-.4.025-.59.276-.832.47h0m-.14-6.105c.797.421.79,4.24.394,4.5l-1.116.016c-.434-1.331-.514-3.28-.18-4.43l.902-.086h0m8.264,20.051l4.3,3.155m-6.582-2.404l1.086-1.629m0,0l1.196.878c.37-1.913.38-3.964.385-6.014.001-.865.335-1.483.886-1.946.404-2.019.48-3.605.572-5.978.035-.917.09-2.045.908-2.19,1.66-.295,2.036,1.118,2.175,2.08.205,1.414-.4,2.532-.61,3.793m-5,13.652l-1.405-1.108c-.403.393-.767.797-1.11,1.207m10.739-11.35c.45-.628,1.53-.583,1.876-.04.112.323.116.508-.079.928-.728.455-1.402,1.243-2.095,1.914.31-.986.391-2.055.298-2.801m0,0c-.0134-.1102-.0324-.2197-.057-.328-.108-.465-1.493-1.328-2.494-1.839-.2-.101-.426-.212-.673-.235m-.661,5.14l.564-1.145.78.88c-.757.454-.647.736-.557,1.019.375,1.382.887,2.584.332,4.155m-12.743-4.298c1.046.534,1.993,1.835,2.33,3.645.259,1.4.382,3.011.733,4.36m-.591-9.08c-.5193-.3726-1.1111-.6319-1.737-.761m0,0c-.1878-.0384-.3779-.0651-.569-.08-2.198-.171-4.084,1.467-3.149,2.982m-.238,6.939c.047-1.974.215-4.013,1.23-5.782-.3493-.3693-.6804-.7554-.992-1.157.728-1.352,1.908-1.614,2.983-1.066-.8098.5956-1.4873,1.3525-1.99,2.223m6.454-5.054l.55-.965m10.582.097c2.495-.483,4.29-1.494,5.546-2.785m1.9-3.026c.1851-.4971.3309-1.008.436-1.528m.056-4.483c-.836-5.2-4.697-10.54-12.013-10.54s-11.174,5.335-12.012,10.533m.054,4.487c.101.498.239.993.417,1.478m1.887,3.045c1.538,1.599,3.895,2.776,7.373,3.062l2.259-2.01c.276-.245.54-.309.786-.285m-8.359,4.279l.538-1.359c-1.653-.11-3.129.008-3.729.995m5.145,8.63l-.799-.63.606-.91c-.236-1.997-1.204-4.902-3.215-6.329.411-.332.916-.408,1.454-.397m19.33,1.548c-.997,2.925-2.67,5.433-5.106,7.925m2.203-8.882c.134-.286.262-.573.385-.86.242-.567.686-.848,1.167-.853m5.63,10.228c-.941-3.125-2.056-6.135-4.278-7.558.243-.711.49-1.454-.185-2.138-.353-.357-.772-.537-1.167-.532-1.059-.228-2.133-.404-3.302-.25l-.288-.851-2.719-.004m-1.719,9.289c-.387.779-.957,1.558-1.609,2.07l.465.34m1.075.015c1.74-1.147,5.235-6.096,6.545-8.896-.313-.437-.751-.59-1.273-.553m0,0l-.477-1.41m-6.192,2.987c.208.656.894.47,1.748.057.522-.252.713-.528,1.052-.748-.33,1.397-.915,2.819-.808,4.172.04.507-.163,1.236-.526,1.966M40.5,5.5H7.5c-1.1046,0-2,.8954-2,2v33c0,1.1046.8954,2,2,2h33c1.1046,0,2-.8954,2-2V7.5c0-1.1046-.8954-2-2-2Z"/></svg>