<?xml version="1.0" encoding="UTF-8"?><svg id="b" xmlns="http://www.w3.org/2000/svg" viewBox="0 0 48 48"><defs><style>.p{fill:none;stroke:#000;stroke-linecap:round;stroke-linejoin:round;}</style></defs><g id="c"><circle id="d" class="p" cx="24" cy="24" r="21.5"/><circle id="e" class="p" cx="23.7951" cy="23.729" r="5.0895"/><g id="f"><path id="g" class="p" d="m11.1345,21.0084c1.1835-4.9364,5.1147-8.7431,10.0866-9.7672"/><path id="h" class="p" d="m7.1519,19.9112c1.4781-6.1254,6.2013-10.9438,12.296-12.5437"/></g><g id="i"><path id="j" class="p" d="m36.8279,27.2859c-1.1835,4.9364-5.1147,8.7431-10.0866,9.7672"/><path id="k" class="p" d="m40.8105,28.3831c-1.4781,6.1254-6.2013,10.9438-12.296,12.5437"/></g><ellipse id="l" class="p" cx="8.9314" cy="42.8478" rx="3.3379" ry="2.1151"/><path id="m" class="p" d="m12.2611,42.7652v-14.1118"/><path id="n" class="p" d="m16.2609,31.934c-.1374.0161-.2757.0242-.414.0242-1.8367,0-3.3705-1.3999-3.538-3.2289"/><path id="o" class="p" d="m41.2449,11.1705h-8.7249l-2.5117,2.5117"/></g></svg>