<svg xmlns="http://www.w3.org/2000/svg" viewBox="0 0 48 48"><defs><style>.a{fill:none;stroke:#000;stroke-linecap:round;stroke-linejoin:round;}</style></defs><path class="a" d="M39.9918,5.5H22.3965a2.5179,2.5179,0,0,0-2.5078,2.5078v7.77H32.2222V28.1113h7.77A2.5179,2.5179,0,0,0,42.5,25.6035V8.0081A2.5179,2.5179,0,0,0,39.9922,5.5M24.9041,13.0442a2.5291,2.5291,0,1,1,2.5283-2.5284,2.5266,2.5266,0,0,1-2.5283,2.5284m12.58,12.56a2.5284,2.5284,0,1,1,2.5078-2.5078,2.5265,2.5265,0,0,1-2.5078,2.5078m0-12.5595a2.5284,2.5284,0,1,1,2.5078-2.5284,2.5265,2.5265,0,0,1-2.5078,2.5284M8.0078,19.8891H25.6032a2.5057,2.5057,0,0,1,2.5078,2.5078V39.9923A2.518,2.518,0,0,1,25.6031,42.5H8.0078A2.5179,2.5179,0,0,1,5.5,39.9923V22.3969a2.5179,2.5179,0,0,1,2.5078-2.5078m8.7978,8.7978a2.5055,2.5055,0,1,0,1.7739.7338,2.5178,2.5178,0,0,0-1.7739-.7338m-6.29-6.29a2.509,2.509,0,0,0-2.1727,3.7617,2.5567,2.5567,0,0,0,.9188.9188,2.5091,2.5091,0,0,0,3.7617-2.1728h0a2.5179,2.5179,0,0,0-2.5078-2.5078m12.56,12.56a2.5087,2.5087,0,1,0,2.5078,2.5078h0a2.5137,2.5137,0,0,0-2.4872-2.5078Z"/></svg>