<?xml version="1.0" encoding="UTF-8"?><svg id="b" xmlns="http://www.w3.org/2000/svg" viewBox="0 0 48 48"><defs><style>.c{fill:none;stroke:#000;stroke-linecap:round;stroke-linejoin:round;}</style></defs><ellipse class="c" cx="8.9222" cy="15.4687" rx="2.7244" ry="5.7038"/><path class="c" d="m8.9222,21.1724s8.6489-.5445,11.6976-.6874c2.0875-.0979,3.7839-2.2459,3.7839-5.0163s-1.4271-4.8001-3.7839-5.0163c-2.9172-.2676-11.6976-.6874-11.6976-.6874"/><ellipse class="c" cx="23.4389" cy="7.35" rx="3.8547" ry="2.4269" transform="translate(14.6132 30.2741) rotate(-86.3539)"/><path class="c" d="m23.6841,3.5032h2.7032c1.3376.0852,2.3122,1.8766,2.1768,4.0012s-1.3295,3.7778-2.6671,3.6925h-2.7032"/><path class="c" d="m28.2471,5.2187h3.3925c1.1087.0707,1.9166,1.5555,1.8044,3.3166s-1.0526,3.0167-2.2108,3.0607"/><path class="c" d="m37.271,21.4387c.7082-.657,1.1534-1.6086,1.1534-2.6674,0-1.9823-1.5607-3.5893-3.486-3.5893s-3.486,1.607-3.486,3.5893c0,1.8323,1.3335,3.344,3.0558,3.5622"/><path class="c" d="m21.8855,29.4113c-2.5624.4813-4.3144,1.4544-4.3144,2.5766,0,1.6002,3.5624,2.8974,7.957,2.8974s7.957-1.2972,7.957-2.8974c0-1.0964-1.6725-2.0506-4.1393-2.5427"/><line class="c" x1="17.571" y1="31.988" x2="17.571" y2="34.6115"/><path class="c" d="m20.9843,20.4454c.457.4072,1.2571.645,2.0354.6234s9.174-.0861,9.174-.0861"/><path class="c" d="m23.0802,11.6265c1.9073-.0499,10.1453.0066,11.075,0s2.0006,1.7138,1.7895,3.7077"/><path class="c" d="m36.4688,18.4525l-2.0015,1.8347c-.2102.1927-.3082.4796-.2549.7598.1892.9945.7314,3.3497,1.7593,4.2597,1.3188,1.1676,4.3867-.8649,2.4527-2.7893s-3.3753-2.7636-3.3753-2.7636"/><path class="c" d="m33.1606,6.5865c3.5028.4495,4.6368,4.0615,2.3941,6.2988"/><path class="c" d="m21.8068,31.2746c0,.7483,1.666,1.355,3.7212,1.355s3.7212-.6066,3.7212-1.355c0-2.5155,1.0931-10.2772,1.0931-10.2772"/><path class="c" d="m21.8068,31.1519c0-2.6235.9824-10.0818.9824-10.0818"/><path class="c" d="m22.1996,26.0251c-.0447,1.2061,1.1985,2.0489,3.3284,2.1712,2.1963.1262,3.9737-.4579,4.0665-1.2741"/><path class="c" d="m22.5365,23.084c-.1942,1.0768,1.3193,2.1002,3.2509,2.1579s4.0173-.1861,4.1944-1.5424"/><polyline class="c" points="19.4246 30.1292 15.3656 30.1292 12.8574 32.0024 11.8051 35.0872 14.8178 35.0872 15.034 34.1934 17.571 34.1934"/><polygon class="c" points="17.571 34.6115 11.3727 37.653 9.2537 41.9342 12.9295 44.5 15.6827 42.9576 15.6827 41.7612 17.8161 40.608 17.8161 41.7612 19.5747 40.6657 19.5747 38.5805 21.1747 38.2007 21.0594 36.298 17.571 34.6115"/><polyline class="c" points="12.9295 44.5 14.0826 39.6566 21.0594 36.298"/><path class="c" d="m31.4813,38.5808c-1.4576.5981-3.5846.975-5.9534.975-2.3687,0-4.4957-.3769-5.9534-.975"/><line class="c" x1="33.4849" y1="31.988" x2="33.4849" y2="34.6115"/><polyline class="c" points="31.6313 30.1292 35.6904 30.1292 38.1985 32.0024 39.2508 35.0872 36.2381 35.0872 36.0219 34.1934 33.4849 34.1934"/><polygon class="c" points="33.4849 34.6115 39.6833 37.653 41.8022 41.9342 38.1265 44.5 35.3733 42.9576 35.3733 41.7612 33.2399 40.608 33.2399 41.7612 31.4813 40.6657 31.4813 38.5805 29.8812 38.2007 29.9965 36.298 33.4849 34.6115"/><polyline class="c" points="38.1265 44.5 36.9733 39.6566 29.9965 36.298"/></svg>