<svg id="Layer_2" data-name="Layer 2" xmlns="http://www.w3.org/2000/svg" viewBox="0 0 48 48"><defs><style>.cls-1{fill:none;stroke:#000;stroke-linecap:round;stroke-linejoin:round;}</style></defs><path class="cls-1" d="M19.89,3.5a1,1,0,0,0-1,.86l-.77,5.43a15.36,15.36,0,0,0-3.46,2L9.54,9.75a1,1,0,0,0-1.25.44L4.19,17.3a1,1,0,0,0,.25,1.31L8.76,22a16.66,16.66,0,0,0-.14,2,16.52,16.52,0,0,0,.14,2L4.44,29.39a1,1,0,0,0-.25,1.31l4.1,7.11a1,1,0,0,0,1.25.44l4.82-2,6.07-10.07L12,20.12l19-9.78c-.38-.2-.76-.38-1.16-.55l-.77-5.43a1.05,1.05,0,0,0-1-.86ZM38.81,9.68a1,1,0,0,0-.35.07L33.64,11.7,27.57,21.77,36,27.88,17,37.66c.38.2.76.38,1.16.55l.77,5.43a1,1,0,0,0,1,.86h8.2a1,1,0,0,0,1-.86l.77-5.43a15.36,15.36,0,0,0,3.46-2l5.11,2.06a1,1,0,0,0,1.25-.44l4.1-7.11a1,1,0,0,0-.25-1.31L39.23,26a16.52,16.52,0,0,0,.14-2,16.52,16.52,0,0,0-.14-2l4.33-3.39a1,1,0,0,0,.25-1.31l-4.1-7.11a1,1,0,0,0-.9-.51Z"/></svg>