<svg xmlns="http://www.w3.org/2000/svg" viewBox="0 0 48 48"><defs><style>.a{fill:none;stroke:#000;stroke-linecap:round;stroke-linejoin:round;}</style></defs><path class="a" d="M40.5,5.5H7.5a2,2,0,0,0-2,2v33a2,2,0,0,0,2,2h33a2,2,0,0,0,2-2V7.5A2,2,0,0,0,40.5,5.5Z"/><line class="a" x1="20.811" y1="30.2261" x2="27.0371" y2="30.2261"/><line class="a" x1="20.811" y1="17.7739" x2="27.0371" y2="17.7739"/><line class="a" x1="20.811" y1="24" x2="24.8703" y2="24"/><line class="a" x1="20.811" y1="17.7739" x2="20.811" y2="30.2261"/><path class="a" d="M30.25,30.2261V17.7739h2.8018A5.4478,5.4478,0,0,1,38.5,23.2217v1.5566a5.4478,5.4478,0,0,1-5.4478,5.4478Z"/><line class="a" x1="9.5" y1="17.7739" x2="17.7496" y2="17.7739"/><line class="a" x1="13.6248" y1="30.2261" x2="13.6248" y2="17.7739"/></svg>