<svg xmlns="http://www.w3.org/2000/svg" viewBox="0 0 48 48"><defs><style>.a{fill:none;stroke:#000;stroke-linecap:round;stroke-linejoin:round;}</style></defs><path class="a" d="M11.1887,5.5646c-.6207,6.5086-1.0311,12.6694.6852,15.3131"/><path class="a" d="M5.9816,8.271a43.9938,43.9938,0,0,0,12.7437-.7879"/><path class="a" d="M31.4349,5.5646c-.8256,5.19-1.38,10.29-4.9331,15.6557"/><path class="a" d="M38.9715,8.2367A28.1078,28.1078,0,0,1,42.5,14.9512"/><path class="a" d="M25.7139,10.5662a65.692,65.692,0,0,1,8.4958-.4453c1.0531.0479,2.4029.9674,2.4323,2.0212a22.1136,22.1136,0,0,1-.925,7.3311,2.0061,2.0061,0,0,1-2.0212,1.5073l-2.5007-.2056"/><path class="a" d="M37.7382,27.1468v8.4616c.055,1.537-.6229,1.4043-1.199,1.4046-.78,0-2.0212,0-2.0212,0"/><path class="a" d="M41.8834,31.3605,25.1657,32.628"/><path class="a" d="M29.722,27.6264s.0541,10.3159.0342,11.6818a2.3431,2.3431,0,0,0,2.5693,2.4323c1.6134-.0449,7.4339-.2056,7.4339-.2056"/><path class="a" d="M20.0956,25.2284l1.7129,2.4665"/><path class="a" d="M17.9717,25.9478l1.7129,2.5693"/><path class="a" d="M13.21,26.633l4.5562,10.2429-3.8025-.4111"/><path class="a" d="M5.9473,30.3328c5.0871.2676,9.7517.3994,13.2919-.788"/><path class="a" d="M7.3861,36.4991c-2.1989,8.054,6.3592,5.6463,9.5921,5.4469"/><path class="a" d="M16.43,10.532c-.78,4.7694-4.5413,7.7081-6.6459,9.1124-1.275.8508-4.1669,1.873-4.2822-1.0962-.0761-1.958,2.05-4.1952,3.8026-5.4812,2.3562-1.7292,6.1482-2.2953,8.7356-.7536,3.79,2.258,2.4708,5.5972.3083,7.4681a9.91,9.91,0,0,1-3.8711,2.0212"/></svg>