<?xml version="1.0" encoding="UTF-8"?><svg id="a" xmlns="http://www.w3.org/2000/svg" viewBox="0 0 48 48"><defs><style>.c{fill:none;stroke:#000;stroke-linecap:round;stroke-linejoin:round;}</style></defs><path class="c" d="m9.5,21.44h29"/><path class="c" d="m9.5,26.56h29"/><path class="c" d="m20.2757,16.32h18.2243"/><path class="c" d="m20.2757,11.2h18.2243"/><path class="c" d="m9.5,31.68h29"/><path class="c" d="m9.5,36.8h29"/><path class="c" d="m7.5,5.5h33c1.1046,0,2,.8954,2,2v33c0,1.1046-.8954,2-2,2H7.5c-1.1046,0-2-.8954-2-2V7.5c0-1.1046.8954-2,2-2Z"/><line class="c" x1="9.5" y1="11.2" x2="12.8856" y2="11.2"/><line class="c" x1="11.1928" y1="16.3104" x2="11.1928" y2="11.2"/><line class="c" x1="14.8016" y1="11.2096" x2="14.8016" y2="16.32"/><line class="c" x1="18.1872" y1="11.2096" x2="18.1872" y2="16.32"/><line class="c" x1="14.8016" y1="13.7552" x2="18.1872" y2="13.7552"/></svg>