<?xml version="1.0" encoding="UTF-8"?><svg id="b" xmlns="http://www.w3.org/2000/svg" viewBox="0 0 48 48"><defs><style>.bx{fill:none;stroke:#000;stroke-linecap:round;stroke-linejoin:round;}</style></defs><g id="c"><g id="d"><path id="e" class="bx" d="M6.574,41.2264l6.7438-3.3478.9824,1.2421v3.379"/><path id="f" class="bx" d="M14.3002,39.1207l-6.2565,3.1059"/></g><path id="g" class="bx" d="M42.4984,26.2639l-4.8355,2.4005,2.0002.9927-18.1065,8.9886,1.9999.9928-5.7633,2.8611"/><g id="h"><path id="i" class="bx" d="M31.0483,20.8106l7.2814-3.6144-.0003-4.1503-.8259-1.479-8.0449,3.9937,1.5896,1.0978,7.2811-3.6124"/><path id="j" class="bx" d="M31.0483,16.6584v4.1523l-1.5901-.7889.0004-4.4611"/></g><g id="k"><path id="l" class="bx" d="M19.1128,20.7313l-7.2814-3.6144.0003-4.1503.8259-1.479,8.0449,3.9937-1.5896,1.0978-7.2811-3.6124"/><path id="m" class="bx" d="M19.1128,16.579v4.1523l1.5901-.7889-.0004-4.4611"/></g><g id="n"><path id="o" class="bx" d="M5.5016,29.363l4.5114-2.2383"/><path id="p" class="bx" d="M5.5009,33.515l4.5124-2.24-.0003-4.1503-.8259-1.479-3.6856,1.8297"/></g><g id="q"><path id="r" class="bx" d="M20.7445,5.561l1.5896,1.0978,2.3339-1.1579"/><path id="s" class="bx" d="M22.3341,10.811l6.9004-3.4253v-1.8849"/><path id="t" class="bx" d="M22.3341,6.6588v4.1523l-1.5901-.7889.0004-4.4611"/></g><g id="u"><path id="v" class="bx" d="M5.5008,19.8079l4.1699,2.0701-1.5897,1.0978-2.5804-1.2802"/><path id="w" class="bx" d="M9.5953,26.3767l.0759-.0377-.0004-4.4611"/><path id="x" class="bx" d="M8.0811,22.9757v3.2187"/></g><path id="y" class="bx" d="M29.2338,7.3851l13.265,6.5851"/><path id="z" class="bx" d="M36.3217,5.5004l6.0489,3.0028"/><g id="aa"><path id="ab" class="bx" d="M40.9414,9.4758v1.9999"/><path id="ac" class="bx" d="M31.2523,5.5013v1.164"/><path id="ad" class="bx" d="M32.6364,5.5014v1.8514"/><path id="ae" class="bx" d="M34.0206,6.0404v1.9999"/><path id="af" class="bx" d="M35.4048,6.7259v1.9999"/><path id="ag" class="bx" d="M36.7889,7.4133v1.9999"/><path id="ah" class="bx" d="M38.1731,8.1008v1.9999"/><path id="ai" class="bx" d="M39.5572,8.7883v1.9999"/></g><g id="aj"><path id="ak" class="bx" d="M25.3023,15.4444v-1.2569"/><path id="al" class="bx" d="M20.6914,19.9478h8.7672"/><path id="am" class="bx" d="M19.6504,14.9305h11.0796"/><path id="an" class="bx" d="M23.9848,14.9297v5.0171"/><path id="ao" class="bx" d="M20.7036,16.941h8.7544"/><g id="ap"><path id="aq" class="bx" d="M22.2707,18.2041v.4482"/><path id="ar" class="bx" d="M25.7504,18.2041v.4482"/><path id="as" class="bx" d="M27.669,18.2041v.4482"/></g></g><g id="at"><path id="au" class="bx" d="M11.8316,16.7776l-.6681.3316-5.6617-2.8108"/><path id="av" class="bx" d="M11.1635,11.6709v5.4382"/><path id="aw" class="bx" d="M16.5031,9.0203l-5.3396,2.6506"/><path id="ax" class="bx" d="M5.5525,8.8852l5.6111,2.7856-.3088-1.7754-3.8935-1.933"/><path id="ay" class="bx" d="M5.5939,8.6413l5.0681-2.5158,5.8411,2.8998v4.3692"/><path id="az" class="bx" d="M14.5553,8.0585l-3.7006,1.8369"/><g id="ba"><path id="bb" class="bx" d="M9.8125,13.3219v1.0604"/><path id="bc" class="bx" d="M8.3178,12.5818v1.0584"/><path id="bd" class="bx" d="M6.8232,11.8392v1.0587"/></g></g><g id="be"><path id="bf" class="bx" d="M20.7452,9.9482h-4.242"/><path id="bg" class="bx" d="M17.8346,5.5003v4.4469"/><path id="bh" class="bx" d="M20.7446,6.9415h-8.3833"/><path id="bi" class="bx" d="M19.3105,8.1963v.4482"/></g><g id="bj"><path id="bk" class="bx" d="M42.5,21.9031L5.8344,40.1049"/><path id="bl" class="bx" d="M5.5006,16.0433l17.7845,8.8287,3.713-.0004,15.5015-7.6954"/><path id="bm" class="bx" d="M5.5,35.4543l12.9901-6.4487v-1.5622l-8.8202-4.3786"/><g id="bn"><path id="bo" class="bx" d="M28.5776,25.5711l1.0139-.5033"/><path id="bp" class="bx" d="M30.2601,26.4073l1.0139-.5033"/></g><g id="bq"><path id="br" class="bx" d="M18.1697,30.7723l1.0139-.5033"/><path id="bs" class="bx" d="M19.8522,31.6084l1.0139-.5033"/></g><g id="bt"><path id="bu" class="bx" d="M18.3943,25.7018l1.0139.5033"/><path id="bv" class="bx" d="M20.0768,24.8656l1.0139.5033"/></g></g></g><path id="bw" class="bx" d="M9.5,5.5h29c2.216,0,4,1.784,4,4v29c0,2.216-1.784,4-4,4H9.5c-2.216,0-4-1.784-4-4V9.5c0-2.216,1.784-4,4-4Z"/></svg>