<svg xmlns="http://www.w3.org/2000/svg" viewBox="0 0 48 48"><defs><style>.a{fill:none;stroke:#000;stroke-linecap:round;stroke-linejoin:round;}</style></defs><path class="a" d="M7.5,22.19V20.8066h6.3867V22.19"/><path class="a" d="M10.6934,20.8066V26.874"/><path class="a" d="M9.416,27.1934h2.5547"/><path class="a" d="M16.2285,20.8066h1.3838V26.874H16.2285"/><path class="a" d="M17.6123,24h4.6836"/><path class="a" d="M23.68,20.8066H22.2959V26.874H23.68"/><ellipse class="a" cx="28.7358" cy="24" rx="3.2998" ry="2.9805"/><path class="a" d="M35.0236,27.1934V21.126m-1.2773,0h4.6542a1.4909,1.4909,0,1,1,0,2.98H35.0236"/><path class="a" d="M37.8389,24.1064l1.5966,3.087H40.5"/><path class="a" d="M33.9592,27.1934h2.5546"/><path class="a" d="M43.5,37.5v-27a2,2,0,0,0-2-2H6.5a2,2,0,0,0-2,2v27a2,2,0,0,0,2,2h35A2,2,0,0,0,43.5,37.5Z"/></svg>