<svg id="Layer_2" data-name="Layer 2" xmlns="http://www.w3.org/2000/svg" viewBox="0 0 48 48"><defs><style>.cls-1{fill:none;stroke:#000;stroke-linecap:round;stroke-linejoin:round;}</style></defs><path class="cls-1" d="M24,4.5C13.92,4.5,5.74,10.82,5.74,18.61a12.66,12.66,0,0,0,5.06,9.73L7.34,35l10.2-3.21a22.88,22.88,0,0,0,6.46.93c10.08,0,18.26-6.31,18.26-14.1S34.08,4.5,24,4.5Zm0,4.15a5,5,0,0,1,5,5v4.15h.71a1,1,0,0,1,.95.95h0V26a1,1,0,0,1-.95.95H18.31a1,1,0,0,1-.95-.95h0V18.73a1,1,0,0,1,.95-.95H19V13.63A5,5,0,0,1,24,8.65Z"/><circle class="cls-1" cx="13.63" cy="40.6" r="2.9"/><circle class="cls-1" cx="24" cy="40.6" r="2.9"/><circle class="cls-1" cx="34.37" cy="40.6" r="2.9"/><line class="cls-1" x1="19.02" y1="17.78" x2="28.98" y2="17.78"/></svg>