<?xml version="1.0" encoding="UTF-8"?><svg id="b" xmlns="http://www.w3.org/2000/svg" viewBox="0 0 48 48"><defs><style>.c{fill:none;stroke:#000;stroke-linecap:round;stroke-linejoin:round;}</style></defs><path class="c" d="m30.15,4.5c2.44,0,3.66.81,3.66,2.44v34.12c0,1.62-.81,2.44-2.44,2.44h-15.23c-1.63,0-2.44-.81-2.44-2.44V6.94c0-1.63,1.22-2.44,3.66-2.44h12.8Z"/><path class="c" d="m18.69,17.27c.82,0,1.5.68,1.5,1.5s-.68,1.5-1.5,1.5-1.5-.68-1.5-1.5.68-1.5,1.5-1.5Z"/><path class="c" d="m23.81,17.27c.82,0,1.5.68,1.5,1.5s-.68,1.5-1.5,1.5-1.5-.68-1.5-1.5.68-1.5,1.5-1.5Z"/><path class="c" d="m28.93,17.27c.82,0,1.5.68,1.5,1.51s-.68,1.49-1.5,1.49-1.5-.67-1.5-1.49.68-1.51,1.5-1.51Z"/><path class="c" d="m18.69,22.5c.82,0,1.5.68,1.5,1.5s-.68,1.5-1.5,1.5-1.5-.68-1.5-1.5.68-1.5,1.5-1.5Z"/><path class="c" d="m23.81,22.5c.82,0,1.5.68,1.5,1.5s-.68,1.5-1.5,1.5-1.5-.68-1.5-1.5.68-1.5,1.5-1.5Z"/><path class="c" d="m28.93,22.5c.82,0,1.5.68,1.5,1.51s-.68,1.49-1.5,1.49-1.5-.67-1.5-1.49.68-1.51,1.5-1.51Z"/><path class="c" d="m18.69,27.73c.82,0,1.5.68,1.5,1.5s-.68,1.5-1.5,1.5-1.5-.68-1.5-1.5.68-1.5,1.5-1.5Z"/><path class="c" d="m23.81,27.73c.82,0,1.5.68,1.5,1.5s-.68,1.5-1.5,1.5-1.5-.68-1.5-1.5.68-1.5,1.5-1.5Z"/><path class="c" d="m28.93,27.73c.82,0,1.5.68,1.5,1.51s-.68,1.49-1.5,1.49-1.5-.67-1.5-1.49.68-1.51,1.5-1.51Z"/><path class="c" d="m17.86,4.56c.06,1.43.91,2.15,2.53,2.15h7.31c1.45-.05,2.21-.78,2.27-2.21"/></svg>