<?xml version="1.0" encoding="UTF-8"?><svg id="b" xmlns="http://www.w3.org/2000/svg" viewBox="0 0 48 48"><defs><style>.e{fill:none;stroke:#000;stroke-linecap:round;stroke-linejoin:round;}</style></defs><g><line class="e" x1="8.5" y1="23.5854" x2="16.2369" y2="23.5854"/><line class="e" x1="12.3683" y1="35.0098" x2="12.3683" y2="23.5854"/><g><path class="e" d="m20.7256,35.0057v-11.4155"/><path class="e" d="m35.8307,35.0057v-11.4155"/><g><line class="e" x1="25.2111" y1="23.5903" x2="25.2111" y2="35.0057"/><polyline class="e" points="31.3465 35.0061 26.6519 29.2984 31.3465 23.6292"/><g><line class="e" x1="26.6462" y1="29.298" x2="25.2111" y2="29.298"/><circle class="e" cx="20.7256" cy="16.6594" r="3.6693"/><path class="e" d="m22.6955,16.6594c0,.7038-.3755,1.3541-.9849,1.706-.6095.3519-1.3604.3519-1.9699,0-.6095-.3519-.9849-1.0022-.9849-1.706h3.9398Z"/><circle class="e" cx="35.8307" cy="16.6594" r="3.6693"/><path class="e" d="m37.8006,16.6594c0,.7038-.3755,1.3541-.9849,1.706-.6095.3519-1.3604.3519-1.9699,0-.6095-.3519-.9849-1.0022-.9849-1.706h3.9398Z"/></g></g></g></g><g id="c"><path id="d" class="e" d="m40.5,5.5H7.5c-1.1046,0-2,.8954-2,2v33c0,1.1046.8954,2,2,2h33c1.1046,0,2-.8954,2-2V7.5c0-1.1046-.8954-2-2-2Z"/></g></svg>