<?xml version="1.0" encoding="UTF-8"?><svg id="a" xmlns="http://www.w3.org/2000/svg" viewBox="0 0 48 48"><defs><style>.b{stroke-width:1px;}.b,.c{fill:none;stroke:#000;stroke-linecap:round;stroke-linejoin:round;}</style></defs><path class="c" d="M38.5,5.5001H9.5c-2.2091,0-4,1.7909-4,4v29c0,2.2091,1.7909,4,4,4h29c2.2091,0,4-1.7909,4-4V9.5001c0-2.2091-1.7909-4-4-4Z"/><polyline class="b" points="23.3386 17.7509 23.3386 30.2469 29.5867 30.2469"/><line class="c" x1="32.2518" y1="30.2491" x2="38.5" y2="30.2491"/><line class="c" x1="32.2518" y1="17.7527" x2="38.5" y2="17.7527"/><line class="c" x1="32.2518" y1="24.0009" x2="36.3132" y2="24.0009"/><line class="c" x1="32.2518" y1="17.7527" x2="32.2518" y2="30.2491"/><line class="c" x1="9.5" y1="17.7527" x2="17.7791" y2="17.7527"/><line class="c" x1="13.6396" y1="30.2491" x2="13.6396" y2="17.7527"/><line class="c" x1="20.5033" y1="17.768" x2="20.5033" y2="30.2338"/></svg>