<svg xmlns="http://www.w3.org/2000/svg" viewBox="0 0 48 48"><defs><style>.a{fill:none;stroke:#000;stroke-linecap:round;stroke-linejoin:round;}</style></defs><path class="a" d="M23.8416,43.325a17.0752,17.0752,0,0,0-5.01-2.1949C11.03,39.3817,4.4819,34.0247,5.6137,26.6243,5.9972,22.9316,9.24,17.2719,9.24,17.2719,6.6124,14.2564,3.794,11.4456,4.6594,4.6748c1.14,3.231,2.2456,6.5068,4.9625,7.6346-1.1695-1.857-.6588-3.354-.668-4.9625A7.81,7.81,0,0,0,13.63,12.9774c8.4772-5.5946,14.6027-3.7788,20.136-.0954,2.9689-.8331,4.7092-2.6217,5.2487-5.3443a4.76,4.76,0,0,1-.5726,4.6762C41.9736,11.1,42.1929,7.5321,43.5,4.77c-.1717,5.3923-1.3725,10.0626-5.0695,12.6541,0,0,3.8121,5.6957,3.5665,9.8924-.5434,9.9364-6.2467,12.3378-12.5063,13.74-2.1109.473-3.9511,1.6706-5.65,2.2687Z"/><path class="a" d="M9.5261,24.7632c3.3068.6048,10.5132,1.8457,10.1873,4.366a6.3265,6.3265,0,0,1-3.7934,2.696C11.1006,32.5746,7.99,24.4267,9.5261,24.7632Z"/><circle class="a" cx="15.2641" cy="28.1394" r="1.9921"/><path class="a" d="M38.6272,24.7632C35.32,25.368,28.114,26.6089,28.44,29.1292a6.3265,6.3265,0,0,0,3.7934,2.696C37.0527,32.5746,40.1631,24.4267,38.6272,24.7632Z"/><circle class="a" cx="32.8892" cy="28.1394" r="1.9921"/><path class="a" d="M27.3862,31.9506c0,1.8755-1.5149,7.1017-3.3836,7.1017s-3.3836-5.2262-3.3836-7.1017a3.3836,3.3836,0,1,1,6.7672,0Z"/><path class="a" d="M9.24,17.2716a30.0461,30.0461,0,0,0,4.3547,3.0177c2.0393,1.15,4.4276,1.6265,6.41,2.8724a17.1146,17.1146,0,0,1,3.9977,3.3731,29.9476,29.9476,0,0,1,3.3157-2.8591c2.0455-1.3219,4.5522-1.8032,6.6234-3.0844,2.1679-1.341,4.4891-3.1678,4.4891-3.1678"/></svg>