<?xml version="1.0" encoding="UTF-8"?><svg id="a" xmlns="http://www.w3.org/2000/svg" viewBox="0 0 48 48"><defs><style>.b{fill:none;stroke:#000;stroke-linecap:round;stroke-linejoin:round;}</style></defs><path class="b" d="M9.5,14.0606h3.6601v3.6601h-3.6601v-3.6601ZM13.1601,30.5769h-3.6601v-3.6601h3.6601v3.6601ZM9.5,33.7281h3.6601v3.6601h-3.6601v-3.6601Z"/><line class="b" x1="9.5" y1="10.6119" x2="38.5" y2="10.6119"/><line class="b" x1="16.3068" y1="15.8907" x2="38.5" y2="15.8907"/><line class="b" x1="16.3068" y1="28.7469" x2="38.5" y2="28.7469"/><line class="b" x1="16.3068" y1="35.5403" x2="38.5" y2="35.5403"/><line class="b" x1="38.5" y1="23.7265" x2="9.5" y2="23.7265"/><path class="b" d="M38.5,5.5H9.5c-2.2091,0-4,1.7909-4,4v29c0,2.2091,1.7909,4,4,4h29c2.2091,0,4-1.7909,4-4V9.5c0-2.2091-1.7909-4-4-4Z"/></svg>