<?xml version="1.0" encoding="UTF-8"?><svg id="a" xmlns="http://www.w3.org/2000/svg" viewBox="0 0 48 48"><defs><style>.b{fill:none;stroke:#000;stroke-linecap:round;stroke-linejoin:round;}</style></defs><path class="b" d="M30.1008,21.4006c-.4057,1.5152-1.7211,2.2284-2.824,2.2284h-6.5536c-1.1029,0-2.4183-.7132-2.824-2.2284"/><path class="b" d="M33.8658,9.4669c1.3469,0,2.6256.4716,3.5107,1.4038l5.4261,5.153c1.0183,1.019.8397,2.7653,0,3.6056l-16.294,17.65c-.6577.848-2.0725,1.2529-2.5086,1.2529s-1.851-.405-2.5086-1.253L5.1974,19.6292c-.8397-.8403-1.0183-2.5866,0-3.6056l5.4261-5.153c.8851-.9322,2.1638-1.4039,3.5107-1.4039l19.7316.0002Z"/><path class="b" d="M4.4998,17.7086h10.783c1.0104,0,1.4722.4179,1.7699,1.3167l6.9468,19.508,6.9468-19.508c.2977-.8989.7595-1.3167,1.7699-1.3167h10.783"/></svg>