<?xml version="1.0" encoding="UTF-8"?><svg id="b" xmlns="http://www.w3.org/2000/svg" viewBox="0 0 48 48"><defs><style>.c{fill:none;stroke:#000;stroke-linecap:round;stroke-linejoin:round;}</style></defs><path class="c" d="m39.8049,37.4004c0,2.8164-7.0761,5.0996-15.8049,5.0996s-15.8049-2.2832-15.8049-5.0996"/><path class="c" d="m8.1951,10.5996c0-2.8164,7.0761-5.0996,15.8049-5.0996s15.8049,2.2832,15.8049,5.0996"/><path class="c" d="m39.8049,23.8848c-1.4212,1.3681-7.0761,3.5718-15.8049,3.5718s-14.4291-2.1581-15.8049-3.5718"/><path class="c" d="m39.8049,15.9038c-1.4212,1.3681-7.0761,3.5718-15.8049,3.5718s-14.4291-2.1581-15.8049-3.5718"/><path class="c" d="m39.8049,31.7264c-1.4212,1.3681-7.0761,3.5718-15.8049,3.5718s-14.4291-2.1581-15.8049-3.5718"/><line class="c" x1="8.1951" y1="37.3871" x2="8.1951" y2="10.5863"/><line class="c" x1="39.8049" y1="10.5863" x2="39.8049" y2="37.3871"/></svg>