<svg id="Layer_2" data-name="Layer 2" xmlns="http://www.w3.org/2000/svg" viewBox="0 0 48 48"><defs><style>.cls-1{fill:none;stroke:#000;stroke-linecap:round;stroke-linejoin:round;}</style></defs><path class="cls-1" d="M43.18,29c-.84-2.52-5.66-10.93-7.53-13.82-1.89-3.11-4.08-4.4-7.35-4.34a221.8,221.8,0,0,0-23,1.47.92.92,0,0,0-.72.61.9.9,0,0,0,.58,1.15c1.37.08,6.38.28,8.69.49a4.4,4.4,0,0,1,3.68,2.69c1,1.89,3.27,7.64,4.13,9.85a4.22,4.22,0,0,1,.08,3.46,3.07,3.07,0,0,1-3.23,1C17,31.29,7.41,29.21,6.46,29c-1.2-.28-1.6,2-.31,2.41,1.72.66,9.87,3.43,16.43,5.21a14.29,14.29,0,0,0,7.73,0c3.15-.61,7.54-1.51,10.2-2.24a4.69,4.69,0,0,0,.6-.2A3.94,3.94,0,0,0,43.18,29Zm-14.27,5.1a2.05,2.05,0,1,1-.09-4.1h0a2.05,2.05,0,0,1,.05,4.1Zm7.42-8.91c-1.41.36-6.34,1.08-8.32,1.3-2.17.31-3.39-.1-4.09-1.69-.58-1-3-7.17-3.36-8.07-.73-1.9.22-2.45,1.37-2.56.95-.12,5.45-.5,7.07-.64,2.44-.19,3.7.75,4.92,2.87,1.38,2.32,2.62,4.47,3.68,6.37C38.2,23.85,37.73,24.84,36.33,25.2Zm3.29,6.61A1.85,1.85,0,1,1,41.46,30,1.84,1.84,0,0,1,39.62,31.81Z"/></svg>