<?xml version="1.0" encoding="utf-8"?>
<!-- Generator: Adobe Illustrator 25.2.3, SVG Export Plug-In . SVG Version: 6.00 Build 0)  -->
<svg version="1.1" id="Layer_1" xmlns="http://www.w3.org/2000/svg" xmlns:xlink="http://www.w3.org/1999/xlink" x="0px" y="0px"
	 viewBox="0 0 48 48" style="enable-background:new 0 0 48 48;" xml:space="preserve">
<style type="text/css">
	.st0{fill:none;stroke:#000000;stroke-linecap:round;stroke-linejoin:round;}
</style>
<circle class="st0" cx="39.2" cy="8.8" r="3.3"/>
<path class="st0" d="M8.8,5.5c1.8,0,3.3,1.5,3.3,3.3s-1.5,3.3-3.3,3.3H5.5V5.5H8.8"/>
<path class="st0" d="M35.9,39.2c0-1.8,1.5-3.3,3.3-3.3c1.8,0,3.3,1.5,3.3,3.3v3.3h-6.6V39.2"/>
<circle class="st0" cx="8.8" cy="39.2" r="3.3"/>
<line class="st0" x1="12.1" y1="39.2" x2="35.9" y2="39.2"/>
<line class="st0" x1="39.2" y1="35.9" x2="39.2" y2="12.1"/>
<line class="st0" x1="35.9" y1="8.8" x2="12.1" y2="8.8"/>
<circle class="st0" cx="24" cy="24" r="7.5"/>
<line class="st0" x1="36.9" y1="11.1" x2="29.3" y2="18.7"/>
<line class="st0" x1="11.1" y1="36.9" x2="18.7" y2="29.3"/>
<line class="st0" x1="8.8" y1="12.1" x2="8.8" y2="35.9"/>
<circle cx="39.2" cy="8.8" r="0.8"/>
<circle cx="8.8" cy="8.8" r="0.8"/>
<circle cx="39.2" cy="39.2" r="0.8"/>
<circle cx="8.8" cy="39.2" r="0.8"/>
<line class="st0" x1="5.5" y1="13.8" x2="5.5" y2="3.8"/>
<line class="st0" x1="34.2" y1="42.5" x2="44.2" y2="42.5"/>
<circle class="st0" cx="39.2" cy="44.1" r="1.6"/>
<circle class="st0" cx="42.5" cy="44.1" r="1.6"/>
<circle class="st0" cx="35.9" cy="44.1" r="1.6"/>
</svg>
