<svg xmlns="http://www.w3.org/2000/svg" viewBox="0 0 48 48"><defs><style>.a{fill:none;stroke:#000;stroke-linecap:round;stroke-linejoin:round;}.b{fill:#000;}</style></defs><circle class="a" cx="39.2" cy="8.8" r="3.3"/><path class="a" d="M8.82,5.5a3.3,3.3,0,1,1,0,6.6H5.5V5.5H8.82"/><path class="a" d="M35.9,39.19a3.3,3.3,0,1,1,6.6,0v3.32H35.9V39.19"/><circle class="a" cx="8.8203" cy="39.2" r="3.3"/><line class="a" x1="12.1203" y1="39.2" x2="35.9" y2="39.2"/><line class="a" x1="39.2" y1="35.8899" x2="39.2" y2="12.1"/><line class="a" x1="35.9" y1="8.8" x2="12.1203" y2="8.8"/><circle class="a" cx="24" cy="24" r="7.5"/><line class="a" x1="36.8665" y1="11.1335" x2="29.2917" y2="18.7083"/><line class="a" x1="11.1537" y1="36.8665" x2="18.7201" y2="29.3001"/><line class="a" x1="8.8203" y1="12.1" x2="8.8203" y2="35.9"/><circle class="b" cx="39.2" cy="8.8" r="0.75"/><circle class="b" cx="8.8101" cy="8.8" r="0.75"/><circle class="b" cx="39.2" cy="39.2" r="0.75"/><circle class="b" cx="8.8101" cy="39.2" r="0.75"/><line class="a" x1="5.5" y1="13.8" x2="5.5" y2="3.8"/><line class="a" x1="34.2" y1="42.5" x2="44.2" y2="42.5"/><circle class="a" cx="39.2" cy="44.1286" r="1.6286"/><circle class="a" cx="42.5" cy="44.1286" r="1.6286"/><circle class="a" cx="35.9" cy="44.1286" r="1.6286"/></svg>