<?xml version="1.0" encoding="UTF-8"?><svg id="a" xmlns="http://www.w3.org/2000/svg" viewBox="0 0 48 48"><defs><style>.b{fill:#000;}.c{fill:none;stroke:#000;stroke-linecap:round;stroke-linejoin:round;}</style></defs><path class="b" d="M28.364,26.844c0,.4142-.3358.75-.75.75s-.75-.3358-.75-.75.3358-.75.75-.75.75.3358.75.75M18.92,26.844c0,.4142-.3358.75-.75.75s-.75-.3358-.75-.75.3358-.75.75-.75.75.3358.75.75"/><path class="c" d="M9.5,5.5h29c2.216,0,4,1.784,4,4v29c0,2.216-1.784,4-4,4H9.5c-2.216,0-4-1.784-4-4V9.5c0-2.216,1.784-4,4-4"/><path class="c" d="M26.194,27.442c.225-1.794,1.527-3.108,2.906-2.935,1.38.172,2.315,1.767,2.089,3.56-.0678.5731-.2589,1.1247-.56,1.617M21.806,27.442c-.225-1.794-1.527-3.108-2.906-2.935-1.38.172-2.315,1.767-2.089,3.56.0678.5731.2589,1.1247.56,1.617"/><path class="c" d="M20.513,30.39c-.759-1.066-1.944-1.281-2.778-.748-1.312.84-2.351,2.085-3.273,1.98-.595-.067-1.19-.608-1.226-.146-.066.822,1.726,1.538,2.96,1.228,1.68-.422,2.1-.693,3.95-.695,0-2.198,2.317-3.212,3.854-3.212s3.853,1.014,3.853,3.212c1.85.002,2.27.273,3.95.695,1.235.31,3.027-.406,2.961-1.228-.036-.462-.631.08-1.226.146-.922.105-1.961-1.14-3.273-1.98-.834-.533-2.019-.318-2.778.749M17.072,21.634c.344-.107,1.14.125,2.431.958.947.611,1.824,1.907,1.95,3.082M15.709,22.271c.314-.054.957.14,1.65.44"/><path class="c" d="M21.503,25.713c.378,1.04.363,2.556.165,3.679M22.137,30.841l.341.567M23.179,35.64c.224.075.486.118.821.118.96,0,1.32-.354,1.922-.801M21.203,33.503l.133.536M20,41.744l.355.511M9.78,34.26c-.3424-.2251-.667-.4762-.971-.751-.54-.509-.825-1.055-.625-1.775.218-.783,2.339-1.926,4.386-2.45-.127-1.192.024-2.384.383-3.576-2.355-.511-4.089-2.208-4.272-3.597-.037-.278,2.321.174,3.432.035.732-.092,1.29-.106,1.803-.058M15.449,36.661l-.956-.431c-2.172.104-4.937.145-5.268-1.184"/><path class="c" d="M9.08,23.262c-.096,2.047,1.775,3.316,3.515,3.77M30.928,21.634c-.344-.107-1.14.125-2.431.958-.947.611-1.824,1.907-1.95,3.082M32.291,22.271c-.314-.054-.957.14-1.65.44M16.863,23.975c-1.359-.038-2.608.024-3.214-.357-.355-.223.344-.345,1.277-.346M31.137,23.975c1.359-.038,2.608.024,3.214-.357.355-.223-.344-.345-1.277-.346M26.497,25.713c-.378,1.04-.363,2.556-.165,3.679M16.09,25.4c-.846,1.229-1.06,3.01-.341,4.161M31.91,25.4c.846,1.229,1.06,3.01.341,4.161M25.863,30.841l-.341.567M18.372,20.748c-1.06-1.607-1.85-3.128-3.05-5.277-.372-.668-1.082-.863-1.637-.44-.462.352-.44.983-.145,1.533.576,1.072.691,1.464.786,2.11-2.947-.73-3.043-3.45-4.34-4.252-.734-.453-1.492.368-1.5.992-.01.845.702,2.104,1.814,3.305,1.059,1.145,2.588,1.86,3.815,2.167.238.06.442.118.622.18M29.765,33.093c-.3388.14-.6956.2316-1.06.272-.756.09-1.577,0-2.242-.265-.918-.366-1.33-.754-2.463-.754s-1.545.388-2.463.754c-.665.265-1.486.356-2.243.265-.364-.0405-.7205-.1321-1.059-.272M26.797,33.503l-.133.536M28,41.744l-.355.511M11.17,37.516c-.72.734-1.13,1.939-.825,2.928.262.85.511,1.135.916,1.718M36.83,37.516c.72.734,1.13,1.939.825,2.928-.262.85-.511,1.135-.916,1.718"/><path class="c" d="M38.22,34.26c.3424-.2251.667-.4762.971-.751.54-.509.825-1.055.625-1.775-.218-.783-2.339-1.926-4.386-2.45.127-1.192-.024-2.384-.383-3.576,2.355-.511,4.089-2.208,4.272-3.597.037-.278-2.321.174-3.432.035-.732-.092-1.29-.106-1.803-.058M32.244,36.8l1.263-.57c2.172.104,4.937.145,5.268-1.184"/><path class="c" d="M38.92,23.262c.096,2.047-1.775,3.316-3.515,3.77M28.361,20.263c-1.34-.44-2.945-.618-4.361-.618s-3.02.178-4.361.618M25.167,22.776c0,.676-.5225,1.224-1.167,1.224h0c-.6445,0-1.167-.548-1.167-1.224.0005-.6756.5229-1.223,1.167-1.223s1.1665.5474,1.167,1.223M20.285,39.912c-.544.6584-1.5667.8795-2.52.545-1.1975-.4204-1.8857-1.5663-1.5371-2.5596,0-.0001,0-.0003.0001-.0004.3487-.9932,1.6021-1.4576,2.7996-1.0372.0001,0,.0003.0001.0004.0002,1.1481.4032,1.8365,1.4788,1.57,2.453M27.916,39.544c.5004.3281,1.1927.3912,1.834.167,1.0323-.3607,1.6256-1.3443,1.325-2.1969,0,0,0,0,0,0-.301-.8525-1.3817-1.251-2.4139-.89h0c-.605.2117-1.0872.6521-1.294,1.182"/><path class="c" d="M27.524,40.37c.5835-.789.6062-1.7705.055-2.377-.6609-.727-1.9116-.6713-2.7936.1246-.0001.0001-.0003.0003-.0004.0004-.3247.293-.5675.6607-.696,1.054M20.23,40.434c-.0013-.0166-.0023-.0333-.003-.05-.0481-.9811.8741-1.8271,2.06-1.89,1.1863-.0629,2.1873.6816,2.2359,1.6629,0,.0004,0,.0007,0,.0011.0059.1168-.0021.234-.024.35"/><path class="c" d="M20.359,37.906c.1438-.3481.3811-.6672.684-.92.8799-.7342,2.0833-.7378,2.688-.0081,0,0,0,0,0,0h0c.4208.5082.453,1.2643.083,1.945"/><path class="c" d="M23.753,37.012c.2317-.265.5312-.4807.868-.625,1.0528-.452,2.2068-.1118,2.578.76h0c.0817.1922.1203.4009.114.616M24.9,36.287c.131-.1998.2934-.3819.48-.538.8794-.7347,2.083-.7391,2.6883-.0098.0002.0003.0005.0006.0007.0009h0c.2232.2694.3419.6151.34.991M17.59,36.757c.1216-.2887.3221-.5533.578-.763.7441-.6103,1.7629-.6142,2.2755-.0086.0002.0002.0003.0004.0005.0006h0c.3563.4223.3835,1.0506.07,1.616M20.48,35.868c.2024-.2394.4729-.4322.78-.556.8923-.3605,1.8658-.0603,2.1744.6706.0002.0005.0004.0009.0006.0014h0c.0999.2382.1196.5035.057.768M19.564,40.537c.932-.3,2.247.03,3.066,1.11.851-.976,2.208-2.073,3.818.207.178-.741.64-1.669,1.866-1.625M29.628,20.748c1.06-1.607,1.85-3.128,3.05-5.277.372-.668,1.082-.863,1.637-.44.462.352.44.983.145,1.533-.576,1.072-.691,1.464-.786,2.11,2.947-.73,3.043-3.45,4.34-4.252.734-.453,1.492.368,1.5.992.01.845-.702,2.104-1.814,3.305-1.059,1.145-2.588,1.86-3.815,2.167-.21.0504-.4176.1104-.622.18M20.14,8.912c0,2.05,1.65,3.7,3.7,3.7h.266c2.05,0,3.7-1.65,3.7-3.7v-3.412M12.472,8.912c0,2.05,1.65,3.7,3.7,3.7h.267c2.05,0,3.7-1.65,3.7-3.7v-3.412M27.806,8.912c0,2.05,1.65,3.7,3.7,3.7h.267c2.05,0,3.7-1.65,3.7-3.7v-3.412M5.5,11.077c.6954.9665,1.8143,1.5381,3.005,1.535h.267c2.05,0,3.7-1.65,3.7-3.7v-3.412M35.473,8.912c0,2.05,1.65,3.7,3.7,3.7h.267c1.2246.0031,2.371-.6016,3.06-1.614"/></svg>