<svg xmlns="http://www.w3.org/2000/svg" viewBox="0 0 48 48"><defs><style>.a{fill:none;stroke:#000;stroke-linecap:round;stroke-linejoin:round;}</style></defs><path class="a" d="M40.5,5.5H7.5a2,2,0,0,0-2,2v33a2,2,0,0,0,2,2h33a2,2,0,0,0,2-2V7.5A2,2,0,0,0,40.5,5.5Z"/><path class="a" d="M39.207,24.21H33.1159L27.9493,36.915,20.051,11.084,14.8844,23.789H8.7933"/><path class="a" d="M38.5757,11.5729,36.1908,14.29l3.0162,1.9924L35.6,16.5165l.7239,3.5417L33.607,17.6733,31.6146,20.69,31.38,17.0822l-3.5417.7239L30.2232,15.09,27.207,13.0971l3.6073-.2346L30.09,9.3208l2.7166,2.3849L34.7994,8.69l.2346,3.6073Z"/></svg>