<?xml version="1.0" encoding="UTF-8"?><svg id="a" xmlns="http://www.w3.org/2000/svg" viewBox="0 0 48 48"><defs><style>.b{fill:none;stroke:#000;stroke-linecap:round;stroke-linejoin:round;}</style></defs><path class="b" d="M24,35.0293h-11.0452V9.1326c4.9823,2.9798,5.173,10.9896,5.7131,15.1978-1.3878.1969-2.4551,1.3899-2.4551,2.8321,0,1.5799,1.031,2.6727,2.8606,3.0196,2.5984.4927,4.9267.7469,4.9267,4.8472"/><line class="b" x1="16.2127" y1="27.1626" x2="12.9548" y2="27.1626"/><path class="b" d="M24,43.5c0-1.7641,4.4181-3.2897,4.4181-9.2494,0-4.6247-4.4181-8.6057-4.4181-13.7787,0-7.5568,2.1742-12.6822,0-15.9719-2.1742,3.2897,0,8.415,0,15.9719,0,5.173-4.4181,9.154-4.4181,13.7787,0,5.9597,4.4181,7.4853,4.4181,9.2494"/><path class="b" d="M24,35.0293h11.0452V9.1326c-4.9823,2.9798-5.173,10.9896-5.7131,15.1978,1.3878.1969,2.4551,1.3899,2.4551,2.8321,0,1.5799-1.031,2.6727-2.8606,3.0196-2.5984.4927-4.9267.7469-4.9267,4.8472"/><line class="b" x1="31.7873" y1="27.1626" x2="35.0452" y2="27.1626"/><line class="b" x1="24" y1="35.0293" x2="24" y2="43.5"/></svg>