<?xml version="1.0" encoding="UTF-8"?><svg id="a" xmlns="http://www.w3.org/2000/svg" viewBox="0 0 48 48"><defs><style>.d{fill:none;stroke:#000;stroke-linecap:round;stroke-linejoin:round;}</style></defs><path class="d" d="m14.75 7.5v.625a2 2 135 01-2 2h-.625a2 2 135 00-2 2v.625a2 2 135 01-2 2h-.625a2 2 135 00-2 2v14.5a2 2 45 002 2h.625a2 2 45 012 2v.625a2 2 45 002 2h.625a2 2 45 012 2v.625a2 2 45 002 2h14.5a2 2 135 002-2v-.625a2 2 135 012-2h.625a2 2 135 002-2v-.625a2 2 135 012-2h.625a2 2 135 002-2v-14.5a2 2 45 00-2-2h-.625a2 2 45 01-2-2v-.625a2 2 45 00-2-2h-.625a2 2 45 01-2-2v-.625a2 2 45 00-2-2h-14.5a2 2 135 00-2 2z"/></svg>
