<?xml version="1.0" encoding="UTF-8"?><svg id="a" xmlns="http://www.w3.org/2000/svg" viewBox="0 0 48 48"><defs><style>.d{fill:none;stroke:#000;stroke-linecap:round;stroke-linejoin:round;}</style></defs><g id="b"><path class="d" d="M8.2221,30.0079c13.1459,.262,24.5422-3.1344,31.1573-16.6266"/><path class="d" d="M8.2221,32.9739c16.9728-.262,24.5422-4.0046,29.3327-16.1868"/><path class="d" d="M8.8771,36.9691c14.5307-.655,22.7645-6.2034,27.3772-13.0524,0,0-1.2163,4.4818-7.2232,9.7963-6.0069,5.3145-19.5926,6.5215-19.5926,6.5215"/></g><g id="c"><path class="d" d="M37.1151,4.5113C17.3634,3.9873,2.393,21.746,10.4022,43.5c24.8042-.3462,34.6379-22.4557,26.7129-38.9887Z"/><path class="d" d="M10.1402,27.6594s1.0011-1.6935,1.5251-2.0865l1.6935,2.5263-.0842-4.0046s1.9555-1.8245,3.2186-2.3111c0,0-2.2643-.4398-3.1812-.0842,0,0,.1778-2.6573,.4772-3.0877,0,0-1.7871,2.5637-2.0491,3.6584,0,0-1.4783,.3088-1.9181,.7392l1.1789,1.2163c.0094,0-1.1696,2.8257-.8608,3.4338Z"/><path class="d" d="M20.4043,22.4852c1.1321-1.5625,3.1812-3.0502,3.1812-3.0502,0,0-1.9555-2.5637-2.6947-2.7882,0,0,3.3496,.0842,4.9215,1.0854l3.4338-2.0491s-.4398,2.3485-.6924,3.1344c0,0,2.6105,.9544,3.5274,2.4327l-4.3976-.262s-.6082,2.8257-1.1321,3.6584c0,0-1.6935-3.1812-1.6935-3.4338-.0094,.0094-4.014,.8327-4.4537,1.2725Z"/><path class="d" d="M15.9225,15.1684c.9169-.655,2.7882-1.7403,3.6958-1.9555l1.4316,1.6561,.7859-2.7415s3.5648-1.1321,4.7438-1.1321c0,0-2.6947-.7392-3.4338-.7859,0,0,1.5625-1.8713,2.0023-2.0491,0,0-3.6584,1.2163-4.2666,2.2175,0,0-2.2175,.0468-2.9567,.524l.7859,1.3099-2.7882,2.9567Z"/><path class="d" d="M29.5924,12.3895c.7392-.4772,2.7415-2.0491,2.7415-2.0491,0,0-1.1321-2.1333-1.6935-2.4795,0,0,2.3485,.4398,3.2186,1.3473l2.0491-1.4783-.4398,2.8725s1.6561,2.3953,1.8245,3.2654c0,0-1.6093-1.2631-2.2643-1.3473l-.393,3.7426-1.4783-3.9204-3.5648,.0468Z"/></g></svg>