<?xml version="1.0" encoding="UTF-8"?><svg id="a" xmlns="http://www.w3.org/2000/svg" viewBox="0 0 48 48"><defs><style>.g,.h,.i{fill:none;stroke:#000;stroke-linejoin:round;}.h{stroke-width:1px;}.i{stroke-linecap:round;}</style></defs><g id="c"><path id="d" class="h" d="M31.6163,13.799l2.5848,2.5848c.4033.4033.3979,1.0588-.0121,1.4554l-2.467,2.3728-3.9339-3.9339,2.3728-2.467c.3965-.4099,1.0521-.4154,1.4554-.0121Z"/><path id="e" class="g" d="M13.5,34.5v-3.9339s14.288-14.288,14.288-14.288l3.9339,3.9339-14.288,14.288h-3.9339Z"/><path id="f" class="i" d="M38.5006,5.4991H9.4994c-2.2001,0-4.0002,1.8001-4.0002,4.0002v29.0013c0,2.2001,1.8001,4.0002,4.0002,4.0002h29.0013c2.2001,0,4.0002-1.8001,4.0002-4.0002V9.4993c0-2.2001-1.8001-4.0002-4.0002-4.0002Z"/></g></svg>