<?xml version="1.0" encoding="UTF-8"?><svg id="b" xmlns="http://www.w3.org/2000/svg" viewBox="0 0 48 48"><defs><style>.c{fill:#000;}.d{fill:none;stroke:#000;stroke-linecap:round;stroke-linejoin:round;}</style></defs><path class="d" d="m25.0148,14.5266c.8212.0332,1.6406.1053,2.4553.216l.7906-1.8263c2.7001.1327,5.2919,1.1026,7.4158,2.775,2.4118,4.7864,3.7066,10.0575,3.787,15.4167,0,0-2.2137,3.787-8.0483,3.953-.8037-.9656-1.5583-1.9709-2.2611-3.0122m-10.175-.0132c-.7036,1.0332-1.4977,2.0676-2.3006,3.0254-5.8346-.166-8.0483-3.953-8.0483-3.953.0829-5.3657,1.3832-10.6426,3.8028-15.4325,2.1269-1.6639,4.7184-2.6253,7.4158-2.7513l.7906,1.8263c.7213-.1001,1.4463-.1697,2.173-.2086m0,18.245c-3.5951-.2629-6.2477-1.6466-8.98-3.0309m20.4291,0c-2.7994,1.4182-5.5152,2.8359-9.2466,3.0482"/><ellipse class="d" cx="19.556" cy="25.472" rx="1.6869" ry="1.9766"/><ellipse class="d" cx="28.444" cy="25.472" rx="1.6869" ry="1.9766"/><rect class="d" x="5.4136" y="5.521" width="17.3988" height="37" rx="2" ry="2"/><rect class="d" x="25.0147" y="5.521" width="17.3988" height="37" rx="2" ry="2"/><line class="d" x1="31.7614" y1="8.1028" x2="36.7614" y2="8.1028"/><circle class="c" cx="14.113" cy="8.1028" r=".75"/></svg>