<?xml version="1.0" encoding="UTF-8"?><svg id="a" xmlns="http://www.w3.org/2000/svg" viewBox="0 0 48 48"><defs><style>.b{fill:none;stroke:#000;stroke-linecap:round;stroke-linejoin:round;stroke-width:1px;}</style></defs><path class="b" d="M18.8854,22.0842c4.7055-3.0034,3.7366-11.2726-1.573-13.1229-4.4705-2.0182-10.1491,.3673-11.8649,4.9612-1.9189,3.318-.3792,7.1517,.2268,10.6054,1.4812,4.4723,5.9682,6.7407,8.7866,10.2565,2.5285,2.5794,4.8255,5.576,7.9625,7.4233,3.842,1.2185,6.1277-2.9632,8.6408-5.0495,3.0858-2.8675,6.3122-5.5999,9.1245-8.7464,2.0153-3.5351,3.7041-7.4626,3.2523-11.618-.2121-4.9354-4.7672-9.2063-9.7524-8.7567-9.6122,.5844-10.4538,14.2579-1.0681,16.0906-1.8783,.9461-4.1467,2.2428-5.9914,2.7863-1.0895-3.8672-3.4503-8.1253-7.7438-4.8298Z"/><path class="b" d="M31.828,14.2322c2.1587-2.9482,7.1395,.8225,4.6312,3.677-2.3406,3.1671-7.2478-.7031-4.6312-3.677Z"/></svg>