<?xml version="1.0" encoding="UTF-8"?><svg id="a" xmlns="http://www.w3.org/2000/svg" viewBox="0 0 48 48"><defs><style>.b{fill:none;stroke:#000;stroke-linecap:round;stroke-linejoin:round;}</style></defs><path class="b" d="m32.5,5.5H14.5c-1.1046,0-2,.8954-2,2v33c0,1.1046.8954,2,2,2h18c1.1046,0,2-.8954,2-2V7.5c0-1.1046-.8954-2-2-2Z"/><path class="b" d="m12.5,39.5h-5c-1.1,0-2-.9-2-2V10.5c0-1.1.9-2,2-2h5"/><path class="b" d="m34.5,8.5h6c1.1,0,2,.9,2,2v27c0,1.1-.9,2-2,2h-6"/><polygon class="b" points="19.5 18.03 28.5 24.03 19.5 30 19.5 18 19.5 18.03"/></svg>