<svg id="Layer_2" data-name="Layer 2" xmlns="http://www.w3.org/2000/svg" viewBox="0 0 48 48"><defs><style>.cls-1{fill:none;stroke:#000;stroke-linecap:round;stroke-linejoin:round;}</style></defs><path class="cls-1" d="M25.9,2.5a22,22,0,0,1,6.87,1.8l-3,5.13a15.63,15.63,0,0,0-3.92-1V2.5Zm-4.06,0V8.39a15.63,15.63,0,0,0-3.92,1L15,4.37a21.62,21.62,0,0,1,6.84-1.84ZM36.31,6.3a21.51,21.51,0,0,1,5.1,5l-5.23,3a15.49,15.49,0,0,0-2.86-2.86l3-5.18Zm-24.82.1,2.93,5.08a15.8,15.8,0,0,0-2.86,2.86L6.45,11.39A21.32,21.32,0,0,1,11.49,6.4Zm10.35,6.09v5.62A6,6,0,0,0,20,19.19l-4.88-2.81a11.45,11.45,0,0,1,6.76-3.89Zm4.06,0a11.38,11.38,0,0,1,6.75,3.88l-4.87,2.82a6,6,0,0,0-1.88-1.08V12.49Zm17.58,2.32a21.82,21.82,0,0,1,1.94,7H39.27a15.63,15.63,0,0,0-1-3.92ZM4.4,14.89l5.11,2.95a15.63,15.63,0,0,0-1,3.92h-6A21.4,21.4,0,0,1,4.4,14.89Zm30.27,5a11.34,11.34,0,0,1,0,7.79l-4.86-2.81a5.57,5.57,0,0,0,.1-1.08,5.67,5.67,0,0,0-.1-1.09l4.86-2.81Zm-21.6,0,4.86,2.8a6.59,6.59,0,0,0-.1,1.09,5.57,5.57,0,0,0,.1,1.08l-4.86,2.81a11.31,11.31,0,0,1,0-7.78Zm32.36,2c.08.71.12,1.42.13,2.13,0,.19,0,.38,0,.57,0,.42,0,.83-.07,1.25h0a21.53,21.53,0,0,1-1.82,7l-5.41-3.13a15.55,15.55,0,0,0,1-3.91h6.19c0-.42,0-.83.07-1.25,0-.19,0-.38,0-.57,0-.71-.05-1.42-.13-2.13Zm-43,3.95h6a15.55,15.55,0,0,0,1,3.91L4.25,32.78a21.63,21.63,0,0,1-1.81-7Zm25.34,2.57,4.87,2.81a11.4,11.4,0,0,1-6.75,3.89V29.47A6,6,0,0,0,27.78,28.39Zm-7.82,0a5.87,5.87,0,0,0,1.88,1.08v5.62a11.42,11.42,0,0,1-6.76-3.89L20,28.39Zm-8.4,4.85a15.8,15.8,0,0,0,2.86,2.86l-3.11,5.39a21.5,21.5,0,0,1-5.07-5.18l5.32-3.07Zm24.62,0,5.46,3.15a21.51,21.51,0,0,1-5.16,5.18L33.32,36.1a16.13,16.13,0,0,0,2.86-2.86Zm-18.26,4.9a15.12,15.12,0,0,0,3.92,1V45.5a21.49,21.49,0,0,1-7-2l3.11-5.4Zm11.89,0L33,43.61A21.74,21.74,0,0,1,25.9,45.5V39.19A15.44,15.44,0,0,0,29.81,38.15Z"/></svg>