<?xml version="1.0" encoding="UTF-8"?><svg id="b" xmlns="http://www.w3.org/2000/svg" viewBox="0 0 48 48"><defs><style>.e{fill:none;stroke:#000;stroke-linecap:round;stroke-linejoin:round;}</style></defs><path id="c" class="e" d="m4.5,17.7042l6.2472.4214,13.1208,13.1208,12.4324-12.4324,7.1997-1.0907-19.5115,19.5115L4.5,17.7042Z"/><path id="d" class="e" d="m11.4899,15.2669l4.8012.754,7.8094,7.8094,7.7424-7.7424,4.6672-.6997-12.4662,12.4662-12.5539-12.5875Z"/><path class="e" d="m28.7196,13.3081c0-1.4044-1.1386-2.543-2.543-2.543-.9246,0-1.7316.4951-2.1767,1.2331-.4451-.738-1.252-1.2331-2.1767-1.2331-1.4044,0-2.543,1.1385-2.543,2.543,0,.3211.062.627.1706.9098.8409,2.4187,4.5491,5.0728,4.5491,5.0728,0,0,3.7082-2.6541,4.5491-5.0728.1086-.2828.1706-.5888.1706-.9098h0Z"/></svg>