<?xml version="1.0" encoding="UTF-8"?><svg id="a" xmlns="http://www.w3.org/2000/svg" viewBox="0 0 48 48"><defs><style>.d{fill:none;stroke:#000;stroke-linecap:round;stroke-linejoin:round;}</style></defs><path id="b" class="d" d="M42.5,17v-7.5c0-2.2091-1.7909-4-4-4H9.5c-2.2091,0-4,1.7909-4,4v29c0,2.2091,1.7909,4,4,4h29c2.2091,0,4-1.7909,4-4v-7.5"/><path id="c" class="d" d="M44.4862,17h-15.4865c-.4179,0-.7568.3388-.7568.7568v12.4865c0,.4179.3388.7568.7568.7568h15.4865c.4179,0,.7568-.3388.7568-.7568v-12.4865c0-.4179-.3388-.7568-.7568-.7568Z"/><circle class="d" cx="34.743" cy="24" r="2.5"/></svg>