<?xml version="1.0" encoding="UTF-8"?><svg id="Layer_1" xmlns="http://www.w3.org/2000/svg" viewBox="0 0 48 48"><defs><style>.cls-1{fill:none;stroke:#000;stroke-linecap:round;stroke-linejoin:round;}</style></defs><path class="cls-1" d="M24.0725,16.3683c.4427-.2719,2.8284-1.5395,6.6774.0492,3.9591,1.634,6.4156.215,6.7202.0218-.957-1.5736-2.0954-2.9429-3.354-3.8637.0837-.0229.1695-.0459.26-.073,1.6692-.4827,2.093-1.8958,2.1824-3.106.1007-1.3727.1706-1.3938.4688-2.6288.2862-1.1861-.0327-1.4234-.3271-1.1839-.1587.1288-1.5382.4477-2.3565,1.0858-1.3212,1.0309-2.1356,2.9911-2.5049,4.0747-.007.0167-.0567.1673-.0734.2196-.1721.4152-.5148.4139-.5148.4139v.0002c-.166-.0182-.333-.0277-.5009-.0277-.1499,0-.2987.0081-.4477.0224-.0033.0007-.005,0-.0086.0002-.4381.0644-.6792-.4704-.7293-.5979-.5117-1.4698-1.8888-4.3679-4.9831-5.1475,0,0-.562-.4306-.3906.2976.1627.6959.4996,1.3993.4249,2.4222-.0343.4721-.3273,2.8935,1.8982,4.1534.2112.1196.3994.2202.5682.3049-1.1203.8972-2.1385,2.1455-3.0093,3.5626Z"/><path class="cls-1" d="M38.6827,38.5113c-2.7269-1.6896-3.6448-2.2837-3.5874-2.93,0,0,.0007-.1051.0277-.2653.0659-.3429.2756-.9278.9438-1.2612.0222-.0107.0407-.0231.0578-.0356,2.1246-1.2331,3.6771-3.2183,4.2246-5.6966-.5519,1.3689-4.6374,2.4328-9.5999,2.4328s-9.0473-1.0638-9.5985-2.4328c.1226.5563.2974,1.0867.5165,1.5909.1844,1.0379.4326,3.4812-.7407,5.6201-1.0339,1.8839-6.1375,4.4527-13.7117,2.9779,0,0-.304-.2119-.3956-.0374-.1358.258.4203.4666.9933.6179,5.2733,1.3964,13.2325.8284,15.7321-1.2311,1.1403-.9388,1.5804-2.2037,1.6923-3.5652l.0009.0021s.0306-.3565.4763-.0886c.1277.0769.5886.3772.6623.7163.0642.4829.0686,1.0759-.1807,1.4914-.3565.5937-.3605.6792.1088,1.0146.2882.2057,1.4652,1.0707,3.1027,2.0545.0044.0029.0063.005.0105.0075.3466.2086.828.7196.828.7196h0c.7372.853,2.3418,2.5697,3.0403,2.2468.3299-.1525-.0141-.8403-.0141-.8403,0,0,.5486.7124.8434.4697.224-.1853-.1312-.8944-.1312-.8944,0,0,.4789.4152.7638.2613.3486-.1879-.0514-1.2786-2.7926-2.9447-2.742-1.6672-3.4852-1.9228-3.5507-2.6671,0,0-.0011-.0376.0011-.1015.0215-.1642.1147-.5115.5132-.4743.5932.0961,1.2047.1473,1.8312.1473.717,0,1.4149-.0659,2.0881-.1914l.0002.0011s.035-.007.0453-.0088c.0787-.0099.2323-.0046.233.186-.0248.242-.0919.4851-.2341.6981-.4011.6007-.2693.6829.1495,1.0691.2587.238,1.4439,1.2808,3.0678,2.2897.0031.0024.0046.0046.0086.0066.3462.2082.9449.7805.9449.7805v-.0002c.6728.6829,1.9099,1.8274,2.5844,1.7586.4556-.0468.0846-.832.0846-.832,0,0,.5759.5557.8583.3923.3163-.1827-.131-.7634-.131-.7634,0,0,.3708.1963.6328.131.2613-.0662.3264-.7333-2.4-2.422h0Z"/><path class="cls-1" d="M30.6042,24.9883c0,.6492-.1675,1.128-.4984,1.4229-.3178.2827-.8539.4201-1.6393.4201-.7876,0-1.3293-.1381-1.6558-.4213-.3394-.2946-.5116-.773-.5116-1.4214v-4.8287"/><path class="cls-1" d="M34.8539,20.1598v4.8287c0,.6482-.1763,1.1256-.5245,1.42-.3364.2846-.8737.423-1.6426.423-.7865,0-1.3227-.1374-1.6393-.4197-.3309-.2946-.4984-.7732-.4984-1.4231v-4.8481"/></svg>