<svg xmlns="http://www.w3.org/2000/svg" viewBox="0 0 48 48"><defs><style>.a{fill:none;stroke:#000;stroke-linecap:round;stroke-linejoin:round;}</style></defs><path class="a" d="M42,29.4V39a1.9956,1.9956,0,0,1-2,2H6a1.9956,1.9956,0,0,1-2-2V12a1.9956,1.9956,0,0,1,2-2H40a1.9956,1.9956,0,0,1,2,2V22"/><path class="a" d="M6,10A3.375,3.375,0,0,1,9,7H37a3.375,3.375,0,0,1,3,3"/><path class="a" d="M44.5,22v7.4H37a3.9988,3.9988,0,0,1-4.0541-3.7A4.0163,4.0163,0,0,1,37,22Z"/><path class="a" d="M17,26l6,9,6-9L23,15.737Z"/><path class="a" d="M17,26l6,4,6-4"/></svg>