<?xml version="1.0" encoding="UTF-8"?><svg id="b" xmlns="http://www.w3.org/2000/svg" viewBox="0 0 48 48"><defs><style>.d{fill:none;stroke:#000;stroke-linecap:round;stroke-linejoin:round;}</style></defs><path class="d" d="M17.5647,14.5046l2.9599-5.3221c.9035-1.6246,3.2367-1.6345,4.154-.0177l8.3424,14.7044"/><path class="d" d="M26.033,37.387c2.5213,3.6576,8.0728,3.5393,10.4047-.3788l5.6581-11.3043"/><path class="d" d="M27.6667,14.4316l2.9193-5.2491c.9035-1.6246,3.2367-1.6345,4.154-.0177l7.1835,12.5172"/><path class="d" d="M31.7802,21.682c1.3704,2.4155.1947,5.4811-2.4395,6.3608h0c-2.0002.668-4.1934-.1732-5.234-2.0073"/><path class="d" d="M31.7802,21.682c1.3704,2.4155.1947,5.4811-2.4395,6.3608h0c-2.0002.668-4.1934-.1732-5.234-2.0073l-1.229-2.1663-8.3424-14.7044c-.9173-1.6168-3.2505-1.6069-4.154.0177l-4.5809,8.2367c-.4046.7275-.4001,1.6134.0118,2.3367l9.771,17.1589c2.3495,4.126,8.278,4.1797,10.7018.0969l5.7493-11.506"/><path class="d" d="M41.9235,21.682c1.3704,2.4155.1947,5.4811-2.4395,6.3608h0c-2.0002.668-4.1934-.1732-5.234-2.0073l-1.229-2.1663"/></svg>