<svg xmlns="http://www.w3.org/2000/svg" viewBox="0 0 48 48"><defs><style>.a{fill:none;stroke:#000;stroke-linecap:round;stroke-linejoin:round;}</style></defs><path class="a" d="M42.8534,13.6572a21.479,21.479,0,1,1-9.8711-9.1967"/><path class="a" d="M35.8565,27.8262s3.04-8.3663-2.6217-12.7406c-2.8855-2.2295-3.581-5.7269-2.1277-8.244a6.762,6.762,0,0,1,9.2371-2.4751c3.2342,1.8673,3.6384,5.9461,2.4751,9.2371-4.643,9.7789-11.4388,25.9048-17.9024,24.8458-3.7892-.6208-.5925-14.1586-.5925-14.1586C19.626,38.1723,11.9223,41.787,9.7108,40.0645s-1.6051-7.0307,1.1389-12.22a30.6713,30.6713,0,0,0,3.0179-11.3928"/></svg>