<?xml version="1.0" encoding="UTF-8"?><svg id="b" xmlns="http://www.w3.org/2000/svg" viewBox="0 0 48 48"><defs><style>.k{fill:none;stroke:#000;stroke-linecap:round;stroke-linejoin:round;}</style></defs><path id="c" class="k" d="M11.5525,37.4872v-11.6094l5.8111,11.6222,5.8111-11.6045v11.6045"/><path id="d" class="k" d="M26.0439,37.4093v-11.6222h2.615c2.8082,0,5.0847,2.2765,5.0847,5.0847v1.4528c0,2.8082-2.2765,5.0847-5.0847,5.0847h-2.615Z"/><g id="e"><g id="f"><path id="g" class="k" d="M30.5053,17.5959c.486-1.6047,2.1808-2.9055,3.7855-2.9055s2.5116,1.3008,2.0255,2.9055l-.572,1.8886c-.486,1.6047-2.1808,2.9055-3.7855,2.9055s-2.5116-1.3008-2.0255-2.9055"/><path id="h" class="k" d="M29.0533,22.39l3.52-11.6222"/></g><path id="i" class="k" d="M23.7891,10.5l-6.4256,11.6222.6145-11.6222-6.4256,11.6222.6145-11.6222"/><path id="j" class="k" d="M27.1788,20.8141c-.7658.8759-1.8877,1.4663-2.9687,1.4663-1.6047,0-2.5116-1.3008-2.0255-2.9055l.572-1.8886c.486-1.6047,2.1808-2.9055,3.7855-2.9055s2.5116,1.3008,2.0255,2.9055l-.286.9443h-5.8111"/></g><path class="k" d="M40.5,5.5H7.5c-1.1046,0-2,.8954-2,2v33c0,1.1046.8954,2,2,2h33c1.1046,0,2-.8954,2-2V7.5c0-1.1046-.8954-2-2-2Z"/></svg>