<?xml version="1.0" encoding="UTF-8"?><svg id="b" xmlns="http://www.w3.org/2000/svg" viewBox="0 0 48 48"><defs><style>.d{fill:none;stroke:#000;stroke-linecap:round;stroke-linejoin:round;}</style></defs><path class="d" d="M30.4848,33.929c-1.7846,0-3.4927-.7313-4.7246-2.0227l-1.7602-1.8441-1.7602,1.8441c-1.2319,1.2914-2.94,2.0227-4.7246,2.0227s-3.4927-.7313-4.7246-2.0227l-6.4848-6.7962c-2.4904-2.6094-2.3926-6.7431.2168-9.2324,2.6073-2.4904,6.742-2.3947,9.2324.2168l1.7602,1.8441,1.7602-1.8441c1.2319-1.2914,2.94-2.0227,4.7246-2.0227s3.4927.7313,4.7246,2.0227l1.7602,1.8441,1.7602-1.8441c2.4883-2.6116,6.624-2.7072,9.2324-.2168,2.6094,2.4893,2.7072,6.623.2168,9.2324l-6.4848,6.7962c-1.2319,1.2914-2.94,2.0227-4.7246,2.0227Z"/><line class="d" x1="21.6722" y1="27.6233" x2="24" y2="30.0621"/></svg>