<svg xmlns="http://www.w3.org/2000/svg" viewBox="0 0 48 48"><defs><style>.a{fill:none;stroke:#000;stroke-linecap:round;stroke-linejoin:round;}.b{fill:#000;}</style></defs><path class="a" d="M32.38,26.3131a1.6511,1.6511,0,0,1-1.6463-1.6463v-1.07a1.6463,1.6463,0,1,1,3.2926,0v1.07A1.6511,1.6511,0,0,1,32.38,26.3131Z"/><path class="a" d="M37.2,26.3115h0a1.6511,1.6511,0,0,1-1.6463-1.6463v-1.07A1.6512,1.6512,0,0,1,37.2,21.9487h0a1.6512,1.6512,0,0,1,1.6463,1.6464v1.07A1.6511,1.6511,0,0,1,37.2,26.3115Z"/><path class="a" d="M21.2963,23.4667A1.6512,1.6512,0,0,1,22.9426,21.82"/><line class="a" x1="21.2963" y1="21.8203" x2="21.2963" y2="26.1831"/><circle class="b" cx="19.394" cy="19.8612" r="0.75"/><line class="a" x1="19.394" y1="21.8368" x2="19.394" y2="26.1996"/><path class="a" d="M24.0514,19.6373v5.7621a.7778.7778,0,0,0,.8232.8232h.247"/><path class="a" d="M40.43,19.5986v5.7621a.7778.7778,0,0,0,.8232.8232H41.5"/><path class="a" d="M26.1316,24.6166a1.6463,1.6463,0,0,0,3.2926,0v-1.07a1.6463,1.6463,0,0,0-3.2926,0"/><line class="a" x1="26.1316" y1="21.9002" x2="26.1316" y2="28.4855"/><polyline class="a" points="13.085 19.595 11.439 26.18 9.793 19.595 8.146 26.18 6.5 19.595"/><line class="a" x1="14.4065" y1="19.6447" x2="14.4065" y2="26.23"/><path class="a" d="M14.4065,23.5136a1.6463,1.6463,0,0,1,3.2926,0V26.23"/><path class="a" d="M24.333,20.8432c2.8951-1.8667,5.3682-2.74,5.8048-2.4517,3.2447,1.8223-9.3923,13.1631-11.8247,10.9974-.5651-.4069-.1736-1.8909.9758-3.7046"/><path class="a" d="M43.5,37.5v-27a2,2,0,0,0-2-2H6.5a2,2,0,0,0-2,2v27a2,2,0,0,0,2,2h35A2,2,0,0,0,43.5,37.5Z"/></svg>