<svg xmlns="http://www.w3.org/2000/svg" viewBox="0 0 48 48"><defs><style>.a,.b,.c{fill:none;stroke:#000;stroke-linecap:round;stroke-linejoin:round;}.c{stroke-width:0.9793px;}</style></defs><path class="a" d="M7.5,5.5a2,2,0,0,0-2,2v33a2,2,0,0,0,2,2h33a2,2,0,0,0,2-2V7.5a2,2,0,0,0-2-2Z"/><polyline class="a" points="23.504 13.131 21.32 21.869 19.135 13.131 16.951 21.869 14.766 13.131"/><line class="a" x1="26.2349" y1="13.131" x2="26.2349" y2="21.869"/><polyline class="a" points="28.965 13.131 28.965 21.869 33.334 21.869"/><polyline class="a" points="35.519 13.131 35.519 21.869 39.888 21.869"/><path class="b" d="M25.8678,24.51l-3.7416,6.4743"/><path class="b" d="M31.6176,24.51l-5.1265,8.9188"/><path class="b" d="M22.1262,30.9847c-2,3.4641,2.33,5.964,4.33,2.5"/><path class="c" d="M42.5,24.51h-27A7.01,7.01,0,0,1,8.49,17.5h0a7.01,7.01,0,0,1,7.01-7.01h27"/></svg>