<svg xmlns="http://www.w3.org/2000/svg" viewBox="0 0 48 48"><defs><style>.a{fill:none;stroke:#000;stroke-linecap:round;stroke-linejoin:round;}</style></defs><path class="a" d="M33.9816,4.5A17.7936,17.7936,0,0,1,28.64,8.3942c-3.65,1.9211-9.032,2.5879-13.4734,5.4508a15.0148,15.0148,0,0,0-6.7284,9.47c-1.2726,4.967-.8676,9.9323,3.4888,14.8274A16.4643,16.4643,0,0,0,37.72,36.2731c2.6342-3.6022,3.3479-11.3108,1.246-15.575a15.3042,15.3042,0,0,0-5.7316-6.4793"/><path class="a" d="M33.9816,4.5a7.2682,7.2682,0,0,1-.7476,9.7188,10.4473,10.4473,0,0,1-3.83,2.1683c-1.3971.4831-2.8465.795-4.2694,1.1959A22.6069,22.6069,0,0,0,19.18,20.11a13.1881,13.1881,0,0,0-4.5112,4.5755,11.4463,11.4463,0,0,0-1.4021,6.4716,12.6348,12.6348,0,0,0,2.2743,6.2376,13.2594,13.2594,0,0,0,13.0675,5.4513"/><circle class="a" cx="24.2303" cy="27.5142" r="8.4332"/></svg>