<?xml version="1.0" encoding="UTF-8"?><svg id="a" xmlns="http://www.w3.org/2000/svg" viewBox="0 0 48 48"><defs><style>.z{fill:none;stroke:#000;stroke-linecap:round;stroke-linejoin:round;}</style></defs><path id="e" class="z" d="M7.32684596,6.44911831h6.98940017c1.01291366,0,1.82784243.81393036,1.82784243,1.82684355v31.55229757c.00221043,1.00672675-.812109,1.82463073-1.81883575,1.82684307-.00266911.00000763-.00533821.00000763-.00800732,0h-6.98940064c-1.00672485.0027616-1.82507606-.81111059-1.82783814-1.81783734-.00000715-.00266624-.00000858-.0053363-.00000429-.00800636V8.27596185c0-1.01291319.8149302-1.82684355,1.82684355-1.82684355Z"/><path id="f" class="z" d="M15.54814088,12.25562026c0,2.60987417-2.11572059,4.72559476-4.72559476,4.72559476s-4.72559476-2.11572059-4.72559476-4.72559476,2.11572059-4.72559476,4.72559476-4.72559476,4.72559476,2.11572059,4.72559476,4.72559476Z"/><path id="g" class="z" d="M15.54814088,35.84959657c-.00027559,2.60987226-2.11622027,4.72537162-4.72609444,4.72509317-2.60987417-.00027463-4.72537114-2.11622027-4.72509507-4.72609253,0-2.60987226,2.11572059-4.72559476,4.72559476-4.72559476s4.72559476,2.1157225,4.72559476,4.72559476v.00099937Z"/><path id="h" class="z" d="M9.33467375,10.7687482l2.97374507,2.97274475"/><path id="i" class="z" d="M12.30941913,10.7687482l-2.97574571,2.97274475"/><path id="j" class="z" d="M9.33467375,34.36172514l2.97374507,2.97374412"/><path id="k" class="z" d="M12.30941913,34.36172514l-2.97474443,2.97374412"/><path id="l" class="z" d="M33.28362012,41.03915416H15.67713049"/><path id="m" class="z" d="M41.47991995,38.05941004v1.15390042c.00221233,1.00672675-.81210995,1.82463073-1.81883671,1.82684307-.00266624.00000763-.0053363.00000763-.00800636,0h-3.88066787"/><path id="n" class="z" d="M39.58708064,30.39706484h.06599623c1.0119143,0,1.82684307.81493068,1.82684307,1.82684307v1.79684686"/><path id="o" class="z" d="M16.14308919,30.39706484h11.43502062"/><path id="p" class="z" d="M34.96347643,34.36172514l2.97374412,2.97374412"/><path id="q" class="z" d="M37.93722054,34.36172514l-2.97374412,2.97374412"/><path id="r" class="z" d="M41.17594515,35.84959657c-.00027463,2.60987226-2.11622027,4.72537162-4.72609253,4.72509317-2.60987608-.00027463-4.72537352-2.11622027-4.72509698-4.72609253,0-2.60987226,2.11572059-4.72559476,4.72559666-4.72559476,2.60987226,0,4.72559285,2.1157225,4.72559285,4.72559476v.00099937Z"/><path id="s" class="z" d="M31.01981423,13.98847248l11.27103321,21.58614995c.46783633.89142215.12445146,1.99331745-.76696688,2.46115378-.00231914.00121678-.00464209.00242975-.00696504.00363509l-1.33488466.69693886"/><path id="t" class="z" d="M36.72132516,40.54319448l-1.40088089.72993697c-.89130391.46806138-1.99328693.12495496-2.46134831-.76634514-.00115194-.00219326-.00229625-.00439034-.00344056-.00658742l-14.60474518-27.97060195c-.46783633-.8914212-.12445146-1.99331745.76697069-2.46115282.00231723-.00121774.00463827-.0024288.00696313-.00363605h0l6.19646935-3.23472238c.89142215-.46783585,1.99331745-.12445146,2.46115378.76696974.00121678.00231866.00242785.00464018.00363509.00696409l.57595084,1.10290515"/><path id="u" class="z" d="M33.83257285,14.41043624c-1.34188403.77393383-3.43970568-.34897006-4.68759791-2.50778445-1.24689286-2.15981471-1.16989979-4.53861099.17198614-5.31254481,1.34188403-.77493367,3.43970378.34797022,4.68759791,2.50678557,1.24689476,2.15981471,1.16989789,4.53861051-.17198614,5.3135437Z"/><path id="v" class="z" d="M30.4678615,13.55350934l-3.11773278,1.79984591c-.73793761.42596313-1.80384623-.03999653-2.38079644-1.03991082-.57794957-.99991429-.44796156-2.15681471.28897479-2.58177847l3.11773278-1.79984591"/><path id="w" class="z" d="M31.56576887,8.86191112l.01799811,3.2767186"/><path id="x" class="z" d="M32.9896466,11.32669999l-2.82975736-1.65385851"/><path id="y" class="z" d="M36.68233086,40.56319322l-1.36188277.70993823c-.89130391.46806138-1.99328693.12495496-2.46134831-.76634514-.00115194-.00219326-.00229625-.00439034-.00344056-.00658742l-14.60474899-27.97060195c-.46783633-.8914212-.12445146-1.99331745.76697069-2.46115282.00231723-.00121774.00463827-.0024288.00696313-.00363605h0l6.19646935-3.23472238c.89142215-.46783585,1.99331745-.12445146,2.46115378.76696974.00121678.00231866.00242785.00464018.00363509.00696409l.57595084,1.10290515"/></svg>