<?xml version="1.0" encoding="UTF-8"?><svg id="a" xmlns="http://www.w3.org/2000/svg" viewBox="0 0 48 48"><defs><style>.c{fill:none;stroke:#000;stroke-linecap:round;stroke-linejoin:round;}</style></defs><path id="b" class="c" d="M38.5001,5.5H9.5001c-2.2091,0-4,1.7909-4,4v29c0,2.2091,1.7909,4,4,4h29c2.2091,0,4-1.7909,4-4V9.5c0-2.2091-1.7909-4-4-4Z"/><path class="c" d="M26.8133,31.5v-15h4.9107c2.7762,0,5.0268,2.2554,5.0268,5.0376s-2.2506,5.0376-5.0268,5.0376h-4.9107"/><line class="c" x1="31.724" y1="26.5753" x2="36.6343" y2="31.4962"/><polyline class="c" points="23.6242 21.5625 20.5304 31.5 17.4367 21.5625 14.3429 31.5 11.2492 21.5625"/><line class="c" x1="26.8133" y1="16.5" x2="24.6669" y2="16.5"/></svg>