<svg id="Layer_2" data-name="Layer 2" xmlns="http://www.w3.org/2000/svg" viewBox="0 0 48 48"><defs><style>.cls-1{fill:none;stroke:#000;stroke-linecap:round;stroke-linejoin:round;}</style></defs><path class="cls-1" d="M32.07,36.83A2.4,2.4,0,0,1,28.88,38a2.36,2.36,0,0,1-1.14-1.13L24,29l2.7-5.56,3.21,6.81,7.43-15.66h-6L26.7,23.41h0l-.54,1L24,29h0l-3.71,7.9a2.4,2.4,0,0,1-4.33,0L4.73,13.19A2.4,2.4,0,0,1,5.88,10a2.33,2.33,0,0,1,1-.22h11.2a2.36,2.36,0,0,1,2.12,1.27L24,18.24l-2.67,5.18-4.68-8.86h-6L18.1,30.22l.76-1.58h0l3-6.35,3.72-7h0L27.81,11a2.36,2.36,0,0,1,2.12-1.27H41.11a2.39,2.39,0,0,1,2.39,2.4,2.33,2.33,0,0,1-.23,1Z"/></svg>