<?xml version="1.0" encoding="UTF-8"?><svg id="a" xmlns="http://www.w3.org/2000/svg" viewBox="0 0 48 48"><defs><style>.ap{fill:none;stroke:#000;stroke-linecap:round;stroke-linejoin:round;}</style></defs><path id="b" class="ap" d="M33.2492,11.4865s-2.5239,5.1179-3.2471,6.4839c-.7232,1.366-3.6964,7.7945-1.2053,11.8927,0,0-1.9977-.3804-3.0207-2.9379"/><path id="c" class="ap" d="M26.4013,28.346s.2273,2.5575.6252,3.3531c0,0-4.4409-1.8567-2.4033-7.633"/><path id="d" class="ap" d="M35.1536,14.4788s1.1367,4.3193-.2842,6.7631c-1.4208,2.4438-3.5541,3.7616-3.5541,3.7616,0,0,1.8442-3.1716,1.8743-5.3021"/><path id="e" class="ap" d="M32.7532,21.4354s-2.1615,2.7079-4.59,3.4611"/><path id="f" class="ap" d="M34.4764,12.5544s.6941-3.3659-1.346-3.1305c-2.04.2354-2.6939-.7585-2.6939-.7585,0,0-.7062-.1569-1.0462-.0785-.34.0785-2.7108-2.9072-10.6322,4.3058"/><path id="g" class="ap" d="M34.4001,12.8146s3.1451-.68,5.7378,8.1179c0,0,.5192,1.4831-.6735,3.5048-.9972,1.6903-.4545,2.3899-.4545,2.3899"/><path id="h" class="ap" d="M38.8991,25.7927s-1.2689,1.8551-3.2665,2.4501c0,0,1.3163-1.6094,1.3948-2.7079"/><path id="i" class="ap" d="M38.1259,22.7626s-.5231,4.8385-5.3355,5.0739c0,0,6.9047-7.0878,3.1124-11.0109"/><path id="j" class="ap" d="M34.5428,22.161s.8827,1.2783.4119,2.926"/><path id="k" class="ap" d="M34.8251,10.4345s1.7426-.765.9775,2.6776"/><path id="l" class="ap" d="M34.2726,27.7753s.425,1.9126,2.3801,2.8051c0,0-.2125.765-1.1901,1.6576,0,0-.7225.34-.255,1.1476,0,0-.9775.7225-2.0401.68"/><path id="m" class="ap" d="M34.2726,34.1506l.2975.935s-1.4026.7225-2.1676,3.6127l-5.1852-.3825s-1.1476.34-1.6151,3.6977"/><path id="n" class="ap" d="M23.9414,26.8662s-1.3994,1.9291-.5069,4.0117c.8925,2.0826-7.3103-4.0377.17-12.0281"/><path id="o" class="ap" d="M21.2669,18.9349s-5.2702,6.3328-2.5076,9.4779c0,0,.3825-2.7626,1.7851-4.3352"/><path id="p" class="ap" d="M17.8668,26.6702s-1.8276,2.5076,2.6776,5.4403c0,0,1.2326.6375,1.4026.085.17-.5525.85,1.1051.85,1.1051h0"/><path id="q" class="ap" d="M29.8652,8.1784s.2528-1.4076-1.0954-2.5972"/><path id="r" class="ap" d="M18.6041,12.3815s2.9342-6.8201,6.4236-4.3617"/><path id="s" class="ap" d="M25.5828,8.0991s1.1896-1.6654-.793-2.5377"/><path id="t" class="ap" d="M14.7841,5.5c-.4555,1.2755-.3831,2.0439-.2245,2.4405.1586.3965.3172,2.3791.3172,2.3791,0,0,2.7315-.4465,3.7792,2.2866"/><path id="u" class="ap" d="M18.6105,13.0617s-1.2755,2.1865-1.7765,2.1865c0,0,.5011-2.3232-3.462-3.4164,0,0,1.1844-.7288,1.3666-1.5943"/><path id="v" class="ap" d="M5.6769,12.5606s1.6821-1.1388,7.3762-.8655"/><path id="w" class="ap" d="M5.6736,17.2981s3.2342-2.2776,3.7809-2.7787,2.3899-2.0438,4.3486-2.4537"/><path id="x" class="ap" d="M16.6518,15.4304s-3.1431,6.7418-3.1887,10.4315"/><path id="y" class="ap" d="M5.6281,22.5822s2.1865.7288,3.8264,2.5509c1.6399,1.8221,3.2342,1.7765,3.2342,1.7765,0,0,.5922-.1367.7744-.9566"/><path id="z" class="ap" d="M13.0987,26.5453s-5.0563-4.1908,3.2798-11.0237"/><path id="aa" class="ap" d="M6.4016,12.0636s1.8503-3.4046,5.551-6.5132"/><path id="ab" class="ap" d="M17.3911,21.0006s-2.1878,6.1708-5.7781,7.2367c0,0,3.5342,1.0098,5.3293-2.3"/><path id="ac" class="ap" d="M18.6814,20.3835s2.5805-8.1343,7.3489-9.8172"/><path id="ad" class="ap" d="M13.1294,28.2882s-5.5555,5.054-3.1993,9.9907c0,0,.3927-2.3561,1.1781-3.3659"/><path id="ae" class="ap" d="M11.052,33.9593s.3927,5.105,6.7318,5.8342c0,0-2.4683-1.9073-2.861-5.8903"/><path id="af" class="ap" d="M10.4349,36.7642s1.3464,5.105,3.2537,5.6098"/><path id="ag" class="ap" d="M13.4082,38.1667s3.3098,4.2635,4.3196,4.2074"/><path id="ah" class="ap" d="M15.4838,27.8446s1.4586,9.7611,8.8635,8.8635c0,0-1.9073,4.4879-8.6392-.1683"/><path id="ai" class="ap" d="M18.7375,38.5033s3.4781,3.5903,5.6098,2.4683c0,0,.0847,1.0422-.5953,1.5284"/><path id="aj" class="ap" d="M19.9156,31.9398s-1.122,1.7391-.8415,2.861"/><path id="ak" class="ap" d="M8.9203,24.9275s-3.0837,1.5979-3.4203,2.1028"/><path id="al" class="ap" d="M9.483,33.6482l-2.0774,2.8916s-.3927.6171-1.7391.2805"/><path id="am" class="ap" d="M23.6181,38.335s1.1781,1.1781,2.0756,2.6366"/><path id="an" class="ap" d="M29.293,26.2277c.1954-.0977,1.7584-1.4165,3.1749-1.0746"/><path id="ao" class="ap" d="M31.7353,25.5439s.3908,1.3188-.3419,2.4911l-1.8073-1.8561"/><rect class="ap" x="5.5" y="5.5" width="37" height="37" rx="4" ry="4"/></svg>