<?xml version="1.0" encoding="UTF-8"?><svg id="b" xmlns="http://www.w3.org/2000/svg" viewBox="0 0 48 48"><defs><style>.c{fill:none;stroke:#000;stroke-linecap:round;stroke-linejoin:round;}</style></defs><path class="c" d="m33.4409,43.3377c-.9798.4827-1.9797.9018-2.8845,1.1875-2.819.8353-5.7694,1.1359-8.699.8865h-.0002c-3.4049-.3506-6.6765-1.5111-9.5412-3.3845-2.4127-1.5741-2.9575-2.2212-2.9575-3.5126,0-2.5939,2.8521-7.1372,7.7318-12.3164,2.7714-2.9415,6.6317-6.3894,7.0492-6.296.8115.1815,7.3,6.5106,9.729,9.49.7416.9096,1.4058,1.7874,1.9885,2.6242m-29.757,3.8013c-2.0304-3.1447-3.2364-6.7499-3.5069-10.4833-.1534-1.7556-.0296-3.5244.3669-5.2415.713-3.9571,2.5232-7.6344,5.2243-10.6129,1.0781-1.1218,1.1744-1.1491,2.4887-.7064,1.5959.5377,3.3,1.7148,5.9436,4.1049l1.5422,1.3945-.8422,1.0346c-3.9093,4.8024-8.0366,11.61-9.5915,15.8217-.8455,2.29-1.1865,4.588-.8227,5.5449.2456.6458.02.4052-.8024-.8565Zm34.5642-3.9767c-.0042-.0112-.0084-.0225-.0127-.0337-1.2715-3.8786-5.5213-11.094-9.4238-16l-1.2277-1.5442,1.329-1.22c1.3019-1.2532,2.7218-2.3777,4.24-3.3579.9463-.6131,2.0093-1.0235,3.122-1.2054.3886,0,1.7563,1.4194,2.8605,2.9685,1.7557,2.5044,2.9825,5.3403,3.6055,8.3347.4177,2.6806.4401,5.408.0663,8.0951-.3579,1.7476-.8982,3.4528-1.6119,5.0876-.0807.168-.1632.3351-.2473.5014M22.2116,7.747c-1.9424-.9654-3.9952-1.6907-6.1129-2.16-.6747-.1003-1.3571-.1387-2.0387-.1148-1.266.064-1.21-.0022.8215-.9618,1.5922-.7657,3.2752-1.3263,5.0085-1.6683,2.7512-.4523,5.5576-.456,8.31-.0109,2.2738.4758,4.4633,1.2905,6.495,2.417l.4509.2775-1.0344-.0523c-2.0552-.1034-5.0508.7266-8.267,2.2919-.6079.3165-1.2341.5963-1.8755.8379-.0614-.0113-.8522-.3966-1.7574-.8562Z"/><circle class="c" cx="38.5" cy="38.5" r="7"/><g><path class="c" d="m39.5357,38.5c1.1046,0,2,.8954,2,2s-.8954,2-2,2h-3.3v-8h3.3c1.1046,0,2,.8954,2,2s-.8954,2-2,2h0Z"/><line class="c" x1="39.5357" y1="38.5" x2="36.2357" y2="38.5"/></g></svg>