<?xml version="1.0" encoding="UTF-8"?><svg id="a" xmlns="http://www.w3.org/2000/svg" viewBox="0 0 48 48"><defs><style>.n{fill:none;stroke:#000;stroke-linecap:round;stroke-linejoin:round;}</style></defs><g id="c"><g id="d"><g id="e"><circle id="f" class="n" cx="31.7605" cy="31.5777" r="2.5597"/><g id="g"><path id="h" class="n" d="M8.4466,20.7487l6.1003-6.1043,1.4369,7.9126,8.0291-.0302.0648-11.005"/><path id="i" class="n" d="M19.9744,37.7208l4.1633-4.1633-.2275-10.8487"/><path id="j" class="n" d="M33.8666,14.5878l-1.9735,7.9268-7.9377.0219"/></g><path id="k" class="n" d="M33.2382,37.5965c-2.8566,1.9772-6.2302,3.0344-9.6833,3.0344-9.5188,0-17.2353-7.8643-17.2353-17.5654,0-9.7011,7.7165-17.5655,17.2353-17.5655h0c9.5188,0,17.2353,7.8643,17.2353,17.5655h0c0,3.9382-1.2986,7.7622-3.6872,10.8579"/><path id="l" class="n" d="M24.1346,11.4712c2.1511,1.7374,4.8142,2.8161,7.5338,3.0517.7299.0632,1.4634.0673,2.1909.0121"/><circle id="m" class="n" cx="39.0917" cy="39.9114" r="2.5886"/></g></g></g></svg>