<svg xmlns="http://www.w3.org/2000/svg" viewBox="0 0 48 48"><defs><style>.a{fill:none;stroke:#000;stroke-linecap:round;stroke-linejoin:round;}</style></defs><path class="a" d="M3.8762,18.8456l17.7656-.7373L39.4777,39.6359c1.66-1.5649,3.4312-4.1809,5.0223-8.915L30.34,17.7153l13.15-.7061a10.7835,10.7835,0,0,0-1.5007-2.8366l-15.896-.2077L16.3585,5.5231a7.03,7.03,0,0,0-3.395,1.8194l5.3348,6.6224-12.3846.3915A8.0661,8.0661,0,0,0,3.877,18.8456Z"/><path class="a" d="M3.9725,18.2493,3.5,20.5777l16.7278-.6625L36.2947,42.4769a18.437,18.437,0,0,0,3.9179-3.5354"/><path class="a" d="M32.0246,19.0355l11.9-.55a4.238,4.238,0,0,0-.4357-1.4762"/><path class="a" d="M13.618,6.7747a19.1344,19.1344,0,0,0-1.9,1.4683l4.1313,5.5276"/></svg>