<svg xmlns="http://www.w3.org/2000/svg" viewBox="0 0 48 48"><defs><style>.a{fill:none;stroke:#000;stroke-linecap:round;stroke-linejoin:round;}</style></defs><path class="a" d="M40.5,5.5H7.5a2,2,0,0,0-2,2v33a2,2,0,0,0,2,2h33a2,2,0,0,0,2-2V7.5A2,2,0,0,0,40.5,5.5Z"/><path class="a" d="M24.4248,30.8492V17.1508h4.4846a4.6005,4.6005,0,0,1,0,9.201H24.4248"/><line class="a" x1="28.9094" y1="26.3518" x2="33.3936" y2="30.8458"/><path class="a" d="M21.3492,23.4007v4.0239a3.4245,3.4245,0,0,1-3.4246,3.4246h0"/><path class="a" d="M21.3492,17.1508v6.25a3.4245,3.4245,0,0,1-3.4246,3.4246h0A3.4245,3.4245,0,0,1,14.5,23.4007v-6.25"/></svg>