<svg xmlns="http://www.w3.org/2000/svg" viewBox="0 0 48 48"><defs><style>.a{fill:none;stroke:#000;stroke-linecap:round;stroke-linejoin:round;}.b{fill:#000;}</style></defs><circle class="a" cx="24" cy="24" r="21.5"/><circle class="b" cx="36.7279" cy="11.2721" r="0.75"/><circle class="b" cx="36.7279" cy="11.2721" r="0.75"/><circle class="b" cx="42" cy="24" r="0.75"/><circle class="b" cx="42" cy="24" r="0.75"/><circle class="b" cx="36.7279" cy="36.7279" r="0.75"/><circle class="b" cx="36.7279" cy="36.7279" r="0.75"/><circle class="b" cx="24" cy="42" r="0.75"/><circle class="b" cx="24" cy="42" r="0.75"/><circle class="b" cx="11.2721" cy="36.7279" r="0.75"/><circle class="b" cx="11.2721" cy="36.7279" r="0.75"/><circle class="b" cx="6" cy="24" r="0.75"/><circle class="b" cx="6" cy="24" r="0.75"/><circle class="b" cx="11.2721" cy="11.2721" r="0.75"/><circle class="b" cx="11.2721" cy="11.2721" r="0.75"/><circle class="b" cx="24" cy="6" r="0.75"/><circle class="b" cx="24" cy="6" r="0.75"/><circle class="a" cx="24" cy="24" r="15.0698"/><line class="a" x1="21.29" y1="32.5" x2="30.2333" y2="15.5"/><line class="a" x1="24" y1="27.3487" x2="17.7667" y2="15.5"/></svg>