<?xml version="1.0" encoding="UTF-8"?><svg id="b" xmlns="http://www.w3.org/2000/svg" viewBox="0 0 48 48"><defs><style>.i{fill:none;stroke:#000;stroke-linecap:round;stroke-linejoin:round;}</style></defs><g id="c"><path id="d" class="i" d="M26.7909,4.5005c-.2324.0052-.4701.0439-.7051.1214l-13.7454,4.5534c-1.2475.4132-1.919,1.7511-1.5057,2.9986l7.2162,21.7777V13.442c0-1.3146,1.0589-2.371,2.3735-2.371h10.2974l-1.6375-4.946c-.3358-1.0124-1.281-1.6452-2.2935-1.6245ZM20.4347,11.1175c-1.3146,0-2.371,1.0563-2.371,2.371v27.638c0,1.3146,1.0563,2.3735,2.371,2.3735h14.4815c1.312,0,2.371-1.0589,2.371-2.3735V13.4885c0-1.3146-1.0589-2.371-2.371-2.371h-14.4815Z"/><g id="e"><g id="f"><rect class="i" x="21.6219" y="18.2288" width="2.4152" height="2.4445"/></g><g id="g"><rect class="i" x="26.3812" y="18.2009" width="2.4152" height="2.4445"/></g><g id="h"><rect class="i" x="31.2268" y="18.2386" width="2.4152" height="2.4445"/></g></g></g></svg>