<svg xmlns="http://www.w3.org/2000/svg" viewBox="0 0 48 48"><defs><style>.a{fill:none;stroke:#000;stroke-linecap:round;stroke-linejoin:round;}</style></defs><path class="a" d="M7.4474,5.5H40.5526A1.9474,1.9474,0,0,1,42.5,7.4474V40.5526A1.9474,1.9474,0,0,1,40.5526,42.5H7.4474A1.9474,1.9474,0,0,1,5.5,40.5526V7.4474A1.9474,1.9474,0,0,1,7.4474,5.5Z"/><path class="a" d="M10.3684,7.4474V9.3947l.9737.9737H13.29l.9737-.9737V7.4474"/><path class="a" d="M12.3158,10.3684l-.9737.9737V13.29l.9737.9737L13.29,13.29V11.3421Z"/><path class="a" d="M10.3684,7.4474h3.8948"/><path class="a" d="M11.3421,7.4474V5.5h0"/><path class="a" d="M13.29,7.4474V5.5"/><path class="a" d="M11.3421,15.2368V42.5"/><path class="a" d="M13.29,15.2368V42.5"/><path class="a" d="M11.3421,39.5789H13.29"/><path class="a" d="M11.3421,36.6579H13.29"/><path class="a" d="M11.3421,33.7368H13.29"/><path class="a" d="M11.3421,30.8158H13.29"/><path class="a" d="M11.3421,27.8947H13.29"/><path class="a" d="M11.3421,24.9737H13.29"/><path class="a" d="M11.3421,22.0526H13.29"/><path class="a" d="M11.3421,19.1316H13.29"/><path class="a" d="M11.3421,16.2105H13.29"/><path class="a" d="M29.8421,11.3421h5.8421"/><path class="a" d="M32.7632,8.4211v5.8421"/><path class="a" d="M28.6048,35.853a.949.949,0,1,1,.949-.949.949.949,0,0,1-.949.949Z"/><path class="a" d="M34.1432,35.853a.949.949,0,1,1,.949-.949.949.949,0,0,1-.949.949Z"/><path class="a" d="M31.3662,29.9958h0a6.7829,6.7829,0,0,1,6.7829,6.7829h0a.9645.9645,0,0,1-.9645.9645H25.5167a.9645.9645,0,0,1-.9645-.9645h0a6.7829,6.7829,0,0,1,6.7828-6.783Z"/><line class="a" x1="25.509" y1="28.9845" x2="27.438" y2="31.2481"/><line class="a" x1="37.2235" y1="28.9845" x2="35.2944" y2="31.2481"/></svg>