<?xml version="1.0" encoding="UTF-8"?><svg id="b" xmlns="http://www.w3.org/2000/svg" viewBox="0 0 48 48"><defs><style>.c{fill:none;stroke:#000;stroke-linecap:round;stroke-linejoin:round;}</style></defs><path class="c" d="m40.5,5.5H7.5c-1.1046,0-2,.8954-2,2v33c0,1.1046.8954,2,2,2h33c1.1046,0,2-.8954,2-2V7.5c0-1.1046-.8954-2-2-2Z"/><path class="c" d="m38.0568,29.5481c0,1.1218-.9094,2.0312-2.0312,2.0312s-2.0312-.9094-2.0312-2.0312.9094-2.0312,2.0312-2.0312,2.0312.9094,2.0312,2.0312Z"/><path class="c" d="m9.9432,27.875h5.7357l1.8582-5.0194h.7579l2.4655,6.7759h.746l3.8263-13.2108h.9465l4.2928,13.2108h3.3044"/></svg>