<?xml version="1.0" encoding="UTF-8" standalone="no"?>
<!-- Created with Inkscape (http://www.inkscape.org/) -->

<svg
   width="48"
   height="48"
   viewBox="0 0 48 48.000002"
   version="1.1"
   id="svg5"
   inkscape:version="1.1.1 (3bf5ae0d25, 2021-09-20)"
   sodipodi:docname="2player.svg"
   xmlns:inkscape="http://www.inkscape.org/namespaces/inkscape"
   xmlns:sodipodi="http://sodipodi.sourceforge.net/DTD/sodipodi-0.dtd"
   xmlns="http://www.w3.org/2000/svg"
   xmlns:svg="http://www.w3.org/2000/svg">
  <sodipodi:namedview
     id="namedview7"
     pagecolor="#505050"
     bordercolor="#eeeeee"
     borderopacity="1"
     inkscape:pageshadow="0"
     inkscape:pageopacity="0"
     inkscape:pagecheckerboard="0"
     inkscape:document-units="px"
     showgrid="false"
     units="px"
     inkscape:zoom="12.103445"
     inkscape:cx="4.7507134"
     inkscape:cy="24.662399"
     inkscape:window-width="1896"
     inkscape:window-height="1035"
     inkscape:window-x="10"
     inkscape:window-y="31"
     inkscape:window-maximized="1"
     inkscape:current-layer="layer1"
     inkscape:snap-bbox="true"
     inkscape:snap-midpoints="false"
     inkscape:object-paths="true"
     inkscape:snap-smooth-nodes="true"
     inkscape:snap-intersection-paths="true" />
  <defs
     id="defs2"><style
   id="style8081">.a{fill:none;stroke:#fff;stroke-linecap:round;stroke-linejoin:round;}</style>

	

	
	
	
	
	
	
	
	
	
	
	
	
	
	
	
	
	
	
	
	
	
	
	
	
	
	
	
	
	
	
	
	
	
	
	
	
	
	
	
	
	
	
	
	
	
	
	
	
	
	
	
	
	
	
	
	
	
	
	
	
	
	
	
	
	
	
	
	
	
	
	
	
	
	
	
	
	
	
	
	
	
	
	
	
	
	
	
	
	
	
	
	
	
	
	
	
	
	
	
	
	
	
	
	
	
	
	
	
	
	
	
	
	
	
	
	
	
	
	
	
	
	
	
	
	
	
	
	
	
	
	
	
	

	
	
	
	
	
	
	
	
	
	
	
	
	
	
	
	
	
	
	
	
	
	
	
	
	
	
	
	
	
	
	
	
	
	
	
	
	
	
	
	
	
	
	
	
	
	
	
	
	
	
	
	
	
	
	
	
	
	
	
	
	
	
	
	
	
	
	
	
	
	
	
	
	
	
	
	
	
	
	
	
	
	
	
	
	
	
	
	
	
	
	
	
	
	
	
	
	
	
	
	
	
	
	
	
	
	
	
	
	
	
	
	
	
	
	
	
	
	
	
	
	
	
	
	
	
	
	

	
	
	
	
	
	
	
	
	
	
	
	
	
	
	
	
	
	
	
	
	
	
	
	
	
	
	
	
	
	
	
	
	
	
	
	
	
	
	
	
	
	
	
	
	
	
	
	
	
	
	
	
	
	
	
	
	
	
	
	
	
	
	
	
	
	
	
	
	
	
	
	
	
	
	
	
	
	
	
	
	
	
	
	
	
	
	
	
	
	
	
	
	
	
	
	
	
	
	
	
	
	
	
	
	
	
	
	
	
	
	
	
	
	
	
	
	
	
	
	
	
	
	
	
	
	
	
	
	
	
	
</defs>
  <g
     inkscape:label="Layer 1"
     inkscape:groupmode="layer"
     id="layer1">
    <path
       id="rect1119"
       style="fill:none;stroke:#ffffff;stroke-width:0.999997;stroke-linecap:round;stroke-linejoin:bevel;stroke-dashoffset:92;stop-color:#000000"
       d="M 24.888893,42.412151 14.054487,39.511359 C 12.464507,39.08566 11.526708,37.461091 11.951796,35.86883 l 0.700926,-2.625465 m 1.498311,-5.612248 1.941744,-7.273217 m 7.01833,-14.7700507 10.834406,2.9007918 c 1.242534,0.332675 2.086777,1.397507 2.193539,2.6069139"
       sodipodi:nodetypes="csscccccc" />
    <path
       style="fill:none;stroke:#ffffff;stroke-width:0.999997px;stroke-linecap:butt;stroke-linejoin:round;stroke-opacity:1"
       d="m 18.428334,11.967982 0.76617,-1.013045 3.236696,-1.2321225 1.405174,1.6327665 3.816341,0.97241 0.118139,-1.510756 2.016417,0.612965 v 3.79281 l -2.016417,0.612964 -0.118139,-1.510755 -3.816341,0.972409 -1.405174,1.632768 -3.236696,-1.232123 -0.76617,-1.013045 z"
       id="path1790"
       sodipodi:nodetypes="ccccccccccccccc" />
    <rect
       style="fill:none;stroke:#ffffff;stroke-width:0.999997;stroke-linecap:round;stroke-linejoin:bevel;stroke-miterlimit:4;stroke-dasharray:none;stroke-dashoffset:92;stop-color:#000000"
       id="rect1379"
       width="1.7347677"
       height="7.2049742"
       x="15.124933"
       y="9.7241182"
       rx="0.34752432" />
    <g
       id="g6868"
       style="stroke-width:1.32233"
       transform="matrix(0.75569627,0,0,0.75678116,5.8632903,5.8372523)">
      <path
         id="rect5691"
         style="fill:none;stroke:#ffffff;stroke-width:1.32233;stroke-linecap:round;stroke-linejoin:round;stroke-dashoffset:92;stop-color:#000000"
         d="M 14.557138,2.927409 V 2.3858948 c 0,-0.1915959 0.154245,-0.345841 0.345841,-0.345841 h 5.001682 c 0.191596,0 0.345841,0.1542451 0.345841,0.345841 v 1.3990103"
         sodipodi:nodetypes="cssssc" />
      <path
         id="path6491"
         style="fill:none;stroke:#ffffff;stroke-width:1.32233;stroke-linecap:round;stroke-linejoin:round;stroke-dashoffset:92;stop-color:#000000"
         d="M 29.53157,4.7900878 V 4.3412543 c 0,-0.158804 -0.127846,-0.2866499 -0.28665,-0.2866499 h -4.145639 c -0.158804,0 -0.28665,0.1278459 -0.28665,0.2866499 v 1.1595682"
         sodipodi:nodetypes="cssssc" />
    </g>
    <g
       id="g6882"
       transform="matrix(0.75569627,0,0,-0.75678116,5.8632903,20.815958)"
       style="stroke-width:1.32233">
      <path
         id="path6878"
         style="fill:none;stroke:#ffffff;stroke-width:1.32233;stroke-linecap:round;stroke-linejoin:round;stroke-dashoffset:92;stop-color:#000000"
         d="M 14.557138,2.927409 V 2.3858948 c 0,-0.1915959 0.154245,-0.345841 0.345841,-0.345841 h 5.001682 c 0.191596,0 0.345841,0.1542451 0.345841,0.345841 v 1.3990103"
         sodipodi:nodetypes="cssssc" />
      <path
         id="path6880"
         style="fill:none;stroke:#ffffff;stroke-width:1.32233;stroke-linecap:round;stroke-linejoin:round;stroke-dashoffset:92;stop-color:#000000"
         d="M 29.53157,4.7900878 V 4.3412543 c 0,-0.158804 -0.127846,-0.2866499 -0.28665,-0.2866499 h -4.145639 c -0.158804,0 -0.28665,0.1278459 -0.28665,0.2866499 v 1.1595682"
         sodipodi:nodetypes="cssssc" />
    </g>
    <path
       id="path7432"
       style="fill:none;stroke:#ffffff;stroke-width:0.999997;stroke-linecap:round;stroke-linejoin:bevel;stroke-dashoffset:92;stop-color:#000000"
       d="M 34.026745,19.702979 31.907223,27.6421"
       sodipodi:nodetypes="cc" />
    <path
       style="fill:none;stroke:#ffffff;stroke-width:0.999997px;stroke-linecap:butt;stroke-linejoin:round;stroke-opacity:1"
       d="m 29.571667,36.032018 -0.766171,1.013045 -3.236695,1.232123 -1.405174,-1.632767 -3.816341,-0.97241 -0.11814,1.510756 -2.016417,-0.612965 v -3.792809 l 2.016417,-0.612965 0.11814,1.510755 3.816341,-0.972409 1.405174,-1.632767 3.236695,1.232123 0.766171,1.013044 z"
       id="path7434"
       sodipodi:nodetypes="ccccccccccccccc" />
    <rect
       style="fill:none;stroke:#ffffff;stroke-width:0.999997;stroke-linecap:round;stroke-linejoin:bevel;stroke-miterlimit:4;stroke-dasharray:none;stroke-dashoffset:92;stop-color:#000000"
       id="rect7436"
       width="1.7347677"
       height="7.2049742"
       x="-32.867649"
       y="-38.275883"
       rx="0.34752432"
       transform="scale(-1)" />
    <g
       id="g7442"
       style="stroke-width:1.32233"
       transform="matrix(-0.75569627,0,0,-0.75678116,42.13671,42.162748)">
      <path
         id="path7438"
         style="fill:none;stroke:#ffffff;stroke-width:1.32233;stroke-linecap:round;stroke-linejoin:round;stroke-dashoffset:92;stop-color:#000000"
         d="M 14.557138,2.927409 V 2.3858948 c 0,-0.1915959 0.154245,-0.345841 0.345841,-0.345841 h 5.001682 c 0.191596,0 0.345841,0.1542451 0.345841,0.345841 v 1.3990103"
         sodipodi:nodetypes="cssssc" />
      <path
         id="path7440"
         style="fill:none;stroke:#ffffff;stroke-width:1.32233;stroke-linecap:round;stroke-linejoin:round;stroke-dashoffset:92;stop-color:#000000"
         d="M 29.53157,4.7900878 V 4.3412543 c 0,-0.158804 -0.127846,-0.2866499 -0.28665,-0.2866499 h -4.145639 c -0.158804,0 -0.28665,0.1278459 -0.28665,0.2866499 v 1.1595682"
         sodipodi:nodetypes="cssssc" />
    </g>
    <g
       id="g7450"
       transform="matrix(-0.75569627,0,0,0.75678116,42.13671,27.184043)"
       style="stroke-width:1.32233">
      <path
         id="path7446"
         style="fill:none;stroke:#ffffff;stroke-width:1.32233;stroke-linecap:round;stroke-linejoin:round;stroke-dashoffset:92;stop-color:#000000"
         d="M 14.557138,2.927409 V 2.3858948 c 0,-0.1915959 0.154245,-0.345841 0.345841,-0.345841 h 5.001682 c 0.191596,0 0.345841,0.1542451 0.345841,0.345841 v 1.3990103"
         sodipodi:nodetypes="cssssc" />
      <path
         id="path7448"
         style="fill:none;stroke:#ffffff;stroke-width:1.32233;stroke-linecap:round;stroke-linejoin:round;stroke-dashoffset:92;stop-color:#000000"
         d="M 29.53157,4.7900878 V 4.3412543 c 0,-0.158804 -0.127846,-0.2866499 -0.28665,-0.2866499 h -4.145639 c -0.158804,0 -0.28665,0.1278459 -0.28665,0.2866499 v 1.1595682"
         sodipodi:nodetypes="cssssc" />
    </g>
    <path
       class="a"
       d="m 40.5,5.5 h -33 a 2,2 0 0 0 -2,2 v 33 a 2,2 0 0 0 2,2 h 33 a 2,2 0 0 0 2,-2 v -33 a 2,2 0 0 0 -2,-2 z"
       id="path8085" />
    <path
       id="path9196"
       style="fill:none;stroke:#ffffff;stroke-width:1px;stroke-linecap:butt;stroke-linejoin:miter;stroke-opacity:1"
       d="m 17.523438,26.121094 c -0.335785,0.0015 -0.67584,0.08323 -0.990235,0.255859 L 5.5,32.435547 V 37.1875 l 13.050781,-7.166016 c 1.006066,-0.552426 1.369792,-1.816107 0.8125,-2.822265 -0.383138,-0.691738 -1.101118,-1.081427 -1.839843,-1.078125 z" />
    <path
       id="path9971"
       style="fill:none;stroke:#ffffff;stroke-width:1px;stroke-linecap:butt;stroke-linejoin:miter;stroke-opacity:1"
       d="M 41.095703,5.5917969 29.0625,19.048828 c -0.765089,0.855558 -0.688303,2.168081 0.171875,2.931641 0.860177,0.763561 2.17827,0.687588 2.943359,-0.167969 L 42.5,10.269531 V 7.5 A 2,2 0 0 0 41.095703,5.5917969 Z" />
    <path
       id="path10500"
       style="fill:none;stroke:#ffffff;stroke-width:1px;stroke-linecap:butt;stroke-linejoin:miter;stroke-opacity:1"
       d="m 7.7988281,26.728516 c -0.3357843,0.0015 -0.6758393,0.08323 -0.9902343,0.255859 L 5.5,27.703125 v 4.751953 l 3.3261719,-1.826172 c 1.006065,-0.552426 1.3697911,-1.816107 0.8125,-2.822265 C 9.2555336,27.114903 8.5375537,26.725214 7.7988281,26.728516 Z" />
    <path
       id="path10502"
       style="fill:none;stroke:#ffffff;stroke-width:1px;stroke-linecap:butt;stroke-linejoin:miter;stroke-opacity:1"
       d="m 42.5,10.353516 -3.513672,3.929687 c -0.765089,0.855558 -0.68635,2.168081 0.173828,2.931641 0.860177,0.763561 2.176317,0.687588 2.941406,-0.167969 L 42.5,16.601562 Z" />
    <path
       class="st5"
       d="m 7.5785043,10.30392 c 0,-1.6355199 1.4816303,-2.9249799 3.1758907,-2.5993799 1.11134,0.21358 1.99881,1.1747196 2.10943,2.3009799 0.0823,0.83776 -0.18281,1.6644 -0.7615,2.17224 -1.07201,0.94078 -4.5238207,3.47616 -4.5238207,3.47616 h 5.3000007"
       id="path19031" />
  </g>
  <style
     type="text/css"
     id="style16480">
	.st0{display:none;}
	.st1{display:inline;}
	.st2{fill:none;stroke:#FFFF00;stroke-width:0.25;stroke-miterlimit:10;}
	.st3{fill:none;stroke:#FFFF00;stroke-width:0.1;stroke-miterlimit:10;}
	.st4{fill:#FFFF00;}
	.st5{fill:none;stroke:#FFFFFF;stroke-linecap:round;stroke-linejoin:round;stroke-miterlimit:10;}
	.st6{fill:#FFFFFF;}
</style>
</svg>
