<?xml version="1.0" encoding="UTF-8" standalone="no"?>
<!-- Created with Inkscape (http://www.inkscape.org/) -->

<svg
   width="48"
   height="48"
   viewBox="0 0 48 48.000002"
   version="1.1"
   id="svg5"
   inkscape:version="1.1.1 (3bf5ae0d25, 2021-09-20)"
   sodipodi:docname="amethyst.svg"
   xmlns:inkscape="http://www.inkscape.org/namespaces/inkscape"
   xmlns:sodipodi="http://sodipodi.sourceforge.net/DTD/sodipodi-0.dtd"
   xmlns="http://www.w3.org/2000/svg"
   xmlns:svg="http://www.w3.org/2000/svg">
  <sodipodi:namedview
     id="namedview7"
     pagecolor="#505050"
     bordercolor="#eeeeee"
     borderopacity="1"
     inkscape:pageshadow="0"
     inkscape:pageopacity="0"
     inkscape:pagecheckerboard="0"
     inkscape:document-units="px"
     showgrid="false"
     units="px"
     inkscape:zoom="9.7135701"
     inkscape:cx="5.0959636"
     inkscape:cy="22.082509"
     inkscape:window-width="1896"
     inkscape:window-height="1035"
     inkscape:window-x="10"
     inkscape:window-y="31"
     inkscape:window-maximized="1"
     inkscape:current-layer="layer1"
     showguides="true"
     inkscape:guide-bbox="true"
     inkscape:snap-global="false">
    <sodipodi:guide
       position="24,24"
       orientation="-1,0"
       id="guide890"
       inkscape:label=""
       inkscape:locked="false"
       inkscape:color="rgb(0,0,255)" />
  </sodipodi:namedview>
  <defs
     id="defs2" />
  <g
     inkscape:label="Layer 1"
     inkscape:groupmode="layer"
     id="layer1">
    <path
       id="path1005"
       style="fill:none;stroke:#ffffff;stroke-width:1;stroke-linecap:round;stroke-linejoin:round;stroke-miterlimit:4;stroke-dasharray:none;stroke-opacity:1"
       d="M 24.000002,3.2620131 5.556683,16.303669 c 0.046327,5.13091 0.021086,10.261735 0,15.39265 l 3.7297802,2.637867 C 10.013035,19.074604 16.60144,13.002092 16.60144,13.002092 c 0,0 0.19962,0.613673 2.41272,0.867406 2.213102,0.253731 9.50177,-1.18366 11.550796,1.108447 2.049027,2.292107 -0.385601,4.258681 1.323835,5.963209 1.709438,1.70453 6.325584,2.221149 5.814933,3.78366 -0.510652,1.56251 -3.82605,0.652352 -7.927193,0.64334 -4.101144,-0.009 -3.470006,1.366769 -6.686946,1.284984 -4.880353,3.455457 -0.473533,11.499961 -3.451911,14.988654 l -0.01131,0.0034 4.373633,3.092795 18.44332,-13.041656 c -0.04633,-5.13091 -0.02109,-10.261734 0,-15.39265 z" />
    <ellipse
       style="fill:none;stroke:#ffffff;stroke-width:1;stroke-linecap:round;stroke-linejoin:round;stroke-miterlimit:4;stroke-dasharray:none;stroke-dashoffset:92;stop-color:#000000"
       id="path2232"
       cx="26.85162"
       cy="17.234467"
       rx="1.1474658"
       ry="1.1487514" />
  </g>
</svg>
