<?xml version="1.0" encoding="UTF-8"?>
<svg width="48" height="48" version="1.1" viewBox="0 0 48 48" xml:space="preserve" xmlns="http://www.w3.org/2000/svg"><g fill="none" stroke="#fff" stroke-linecap="round"><g stroke-linejoin="round"><path d="m24 2.5c-2.06 0-3.79 5.88-3.79 10"/><path d="m20.4 11.2h7.15"/><path d="m20.2 17.7h7.58"/><path d="m20.2 24h7.58"/><path d="m20.2 42.2v-29.6"/><path d="m20.2 30.1h7.58"/></g><g><path d="m8.09 37.9h12.1"/><path d="m16 37.9v3.36"/><path d="m12.3 37.9v2.51"/></g><g stroke-linejoin="round"><path d="m24 2.5c2.06 0 3.79 5.88 3.79 10"/><path d="m27.8 42.2v-29.6"/><path d="m27.8 36.1h-7.58"/></g><g><path d="m39.9 37.9h-12.1"/><path d="m32 37.9v3.36"/><path d="m35.7 37.9v2.51"/></g><path d="m20.4 11.2-6.28 18.2-6.06 5.38v3.12c0 1.01 1.12 1.77 2.12 2.04 0.915 0.244 10 2.24 10 2.24v3.35h2.32v-3.14h1.47" stroke-linejoin="round"/><path d="m27.6 11.2 6.28 18.2 6.06 5.38v3.12c0 1.01-1.12 1.77-2.12 2.04-0.915 0.244-10 2.24-10 2.24v3.35h-2.32v-3.14h-1.47" stroke-linejoin="round"/></g></svg>
