<?xml version="1.0" encoding="UTF-8" standalone="no"?>
<!-- Created with Inkscape (http://www.inkscape.org/) -->

<svg
   width="48"
   height="48"
   viewBox="0 0 48 48"
   version="1.1"
   id="svg5"
   inkscape:version="1.1.1 (3bf5ae0, 2021-09-20)"
   sodipodi:docname="calef.svg"
   xmlns:inkscape="http://www.inkscape.org/namespaces/inkscape"
   xmlns:sodipodi="http://sodipodi.sourceforge.net/DTD/sodipodi-0.dtd"
   xmlns="http://www.w3.org/2000/svg"
   xmlns:svg="http://www.w3.org/2000/svg">
  <sodipodi:namedview
     id="namedview7"
     pagecolor="#505050"
     bordercolor="#eeeeee"
     borderopacity="1"
     inkscape:pageshadow="0"
     inkscape:pageopacity="0"
     inkscape:pagecheckerboard="true"
     inkscape:document-units="px"
     showgrid="false"
     units="px"
     width="48px"
     inkscape:object-paths="true"
     inkscape:snap-intersection-paths="true"
     inkscape:zoom="6.8737763"
     inkscape:cx="40.589043"
     inkscape:cy="30.332672"
     inkscape:window-width="1920"
     inkscape:window-height="1015"
     inkscape:window-x="0"
     inkscape:window-y="0"
     inkscape:window-maximized="1"
     inkscape:current-layer="layer1" />
  <defs
     id="defs2">
    <style
       id="style5821">.cls-1{fill:none;stroke:#fff;stroke-linecap:round;stroke-linejoin:round;}</style>
    <style
       id="style6060">.a{fill:none;stroke:#fff;stroke-linecap:round;stroke-linejoin:round;}</style>
  </defs>
  <g
     inkscape:label="Layer 1"
     inkscape:groupmode="layer"
     id="layer1">
    <path
       id="rect6204"
       style="fill:none;stroke:#ffffff;stroke-width:1;stroke-linecap:round;stroke-linejoin:round;stroke-miterlimit:4;stroke-dasharray:none"
       d="m 12.287433,7.9765672 h 5.086752 m 3.807259,0 h 1.290888 c 0.935864,0 1.689285,0.753428 1.689285,1.6893018 v 21.280045 c 0,0.62274 -0.333593,1.164699 -0.832555,1.45765 m -4.70838,0.231653 H 7.1892862 c -0.9358642,0 -1.6892854,-0.753429 -1.6892854,-1.689303 V 9.665869 c 0,-0.9358738 0.7534212,-1.6893018 1.6892854,-1.6893018 h 1.290888"
       sodipodi:nodetypes="cccsssccssssc" />
    <path
       id="rect11197"
       style="fill:none;stroke:#ffffff;stroke-width:1;stroke-linecap:round;stroke-linejoin:round;stroke-miterlimit:4;stroke-dasharray:none"
       d="m 9.5905889,5.6008057 h 1.5864281 c 0.615171,0 1.110415,0.4952504 1.110415,1.1104269 v 0.9741109 0.9072093 c 0,0.6151765 -0.495244,1.1104267 -1.110415,1.1104267 H 9.5905889 c -0.6151705,0 -1.1104152,-0.4952502 -1.1104152,-1.1104267 V 7.6853435 6.7112326 c 0,-0.6151765 0.4952447,-1.1104269 1.1104152,-1.1104269 z"
       sodipodi:nodetypes="ssscsssscss" />
    <path
       id="rect11279"
       style="fill:none;stroke:#ffffff;stroke-width:1;stroke-linecap:round;stroke-linejoin:round;stroke-miterlimit:4;stroke-dasharray:none"
       d="m 18.484601,5.6008057 h 1.586428 c 0.61517,0 1.110415,0.4952504 1.110415,1.1104269 v 1.8813202 c 0,0.6151765 -0.495245,1.1104267 -1.110415,1.1104267 h -1.586428 c -0.615171,0 -1.110415,-0.4952502 -1.110415,-1.1104267 V 6.7112326 c 0,-0.6151765 0.495244,-1.1104269 1.110415,-1.1104269 z" />
    <path
       id="rect1231"
       style="fill:none;stroke:#ffffff;stroke-width:1;stroke-linecap:round;stroke-linejoin:round;stroke-miterlimit:4;stroke-dasharray:none"
       d="M 16.779327,27.883884 H 7.7108962 V 12.7279 H 21.950722 v 15.155984 h -1.049376"
       sodipodi:nodetypes="cccccc" />
    <path
       style="fill:none;stroke:#ffffff;stroke-width:1;stroke-linecap:butt;stroke-linejoin:miter;stroke-opacity:1;stroke-miterlimit:4;stroke-dasharray:none"
       d="M 14.83081,12.7279 V 27.883884"
       id="path1266" />
    <path
       style="fill:none;stroke:#ffffff;stroke-width:1;stroke-linecap:butt;stroke-linejoin:miter;stroke-opacity:1;stroke-miterlimit:4;stroke-dasharray:none"
       d="M 10.905744,12.7279 V 27.883884"
       id="path1348" />
    <path
       style="fill:none;stroke:#ffffff;stroke-width:1;stroke-linecap:butt;stroke-linejoin:round;stroke-opacity:1;stroke-miterlimit:4;stroke-dasharray:none"
       d="m 18.755875,12.7279 v 7.577992"
       id="path1350"
       sodipodi:nodetypes="cc" />
    <path
       style="fill:none;stroke:#ffffff;stroke-width:1;stroke-linecap:butt;stroke-linejoin:miter;stroke-opacity:1;stroke-miterlimit:4;stroke-dasharray:none"
       d="M 22.408722,20.305892 H 7.2528952"
       id="path1437" />
    <path
       style="fill:none;stroke:#ffffff;stroke-width:1;stroke-linecap:butt;stroke-linejoin:miter;stroke-opacity:1;stroke-miterlimit:4;stroke-dasharray:none"
       d="M 22.408722,16.380786 H 7.2528952"
       id="path1439" />
    <path
       style="fill:none;stroke:#ffffff;stroke-width:1;stroke-linecap:butt;stroke-linejoin:round;stroke-opacity:1;stroke-miterlimit:4;stroke-dasharray:none"
       d="M 15.189134,24.230998 H 7.2528952"
       id="path1441"
       sodipodi:nodetypes="cc" />
    <path
       id="rect1516"
       style="fill:none;stroke:#ffffff;stroke-width:1;stroke-linecap:round;stroke-linejoin:round;stroke-miterlimit:4;stroke-dasharray:none"
       d="M 26.922595,31.982428 V 29.713931 H 42.499999 V 42.399194 H 26.922595 v -3.076091"
       sodipodi:nodetypes="cccccc" />
    <path
       style="fill:none;stroke:#ffffff;stroke-width:1;stroke-linecap:round;stroke-linejoin:miter;stroke-opacity:1;stroke-miterlimit:4;stroke-dasharray:none"
       d="M 29.559277,32.237311 H 39.863316"
       id="path1551" />
    <rect
       style="fill:none;stroke:#ffffff;stroke-width:1;stroke-linecap:round;stroke-linejoin:round;stroke-miterlimit:4;stroke-dasharray:none"
       id="rect1577"
       width="10.168989"
       height="4.9176197"
       x="29.626802"
       y="34.958191" />
    <path
       style="fill:none;stroke:#ffffff;stroke-width:1;stroke-linecap:round;stroke-linejoin:round;stroke-opacity:1;stroke-miterlimit:4;stroke-dasharray:none"
       d="m 18.347273,24.414156 c 0,0 0.03162,9.855222 7.078101,11.309692 m 0.729578,-2.001187 -1.497379,4.107224 3.197421,-1.223817 z"
       id="path2216"
       sodipodi:nodetypes="cccccc" />
  </g>
</svg>
