<?xml version="1.0" encoding="UTF-8"?>
<svg width="48" height="48" version="1.1" viewBox="0 0 48 48" xml:space="preserve" xmlns="http://www.w3.org/2000/svg"><g><g><path d="m45.5 20.5-5.38-11.1c-2.16 1.04-4.76 0.137-5.8-2.02l-29.8 14.4c1.04 2.15 0.134 4.75-2.03 5.79l5.38 11.1c2.16-1.05 4.76-0.142 5.8 2.01l29.8-14.4c-1.04-2.15-0.134-4.75 2.03-5.79l-5.38-11.1" fill="none" stop-color="#000000" stroke="#fff" stroke-linecap="round" stroke-linejoin="round"/><line class="st0" x1="12.6" x2="15.9" y1="25.4" y2="32"/><line class="st0" x1="23.7" x2="27.1" y1="28.2" y2="26.6"/><line class="st0" x1="20.5" x2="23.8" y1="21.6" y2="20"/><line class="st0" x1="22.1" x2="24.3" y1="24.9" y2="23.9"/><line class="st0" x1="20.5" x2="23.7" y1="21.6" y2="28.2"/></g><g stroke-width="1"><polyline class="st0" transform="matrix(.833 -.402 .402 .833 -161 13.7)" points="179 101 179 93 183 101 187 93 187 101"/><polyline class="st0" transform="matrix(.833 -.402 .402 .833 -183 24.5)" points="192 101 192 93 198 101 198 93"/><polyline class="st0" transform="matrix(.833 -.402 .402 .833 -52.2 -38.8)" points="63.8 101 61.2 93 58.5 101"/></g><line class="st0" x1="36.8" x2="39.8" y1="19.1" y2="17.7"/><path class="st0" d="m13.1 30.7c0.603 1.25 0.0863 2.73-1.16 3.33-1.25 0.603-2.73 0.0863-3.33-1.16l-1.09-2.25c-0.603-1.25-0.0863-2.73 1.16-3.33 1.25-0.603 2.65-0.0461 3.25 1.2"/></g><style type="text/css">
	.st0{fill:none;stroke:#FFFFFF;stroke-linecap:round;stroke-linejoin:round;stroke-miterlimit:10;}
	.st1{fill:#FFFFFF;}
	.st2{fill:none;stroke:#FFFFFF;stroke-width:1;stroke-linecap:round;stroke-linejoin:round;stroke-miterlimit:10;}
	.st3{fill:none;stroke:#FFFFFF;stroke-width:1;stroke-linecap:round;stroke-linejoin:round;stroke-miterlimit:10;}
	.st4{fill:none;stroke:#FFFFFF;stroke-width:1;stroke-linecap:round;stroke-linejoin:round;stroke-miterlimit:10;}
</style></svg>
