<?xml version="1.0" encoding="UTF-8" standalone="no"?>
<!-- Created with Inkscape (http://www.inkscape.org/) -->

<svg
   width="48"
   height="48"
   viewBox="0 0 48 48.000002"
   version="1.1"
   id="svg5"
   inkscape:version="1.2.1 (9c6d41e410, 2022-07-14)"
   xml:space="preserve"
   sodipodi:docname="fleksy.svg"
   xmlns:inkscape="http://www.inkscape.org/namespaces/inkscape"
   xmlns:sodipodi="http://sodipodi.sourceforge.net/DTD/sodipodi-0.dtd"
   xmlns="http://www.w3.org/2000/svg"
   xmlns:svg="http://www.w3.org/2000/svg"><sodipodi:namedview
     id="namedview7"
     pagecolor="#505050"
     bordercolor="#eeeeee"
     borderopacity="1"
     inkscape:pageshadow="0"
     inkscape:pageopacity="0"
     inkscape:pagecheckerboard="0"
     inkscape:document-units="px"
     showgrid="false"
     units="px"
     inkscape:zoom="8"
     inkscape:cx="-18.6875"
     inkscape:cy="21.4375"
     inkscape:window-width="1920"
     inkscape:window-height="1022"
     inkscape:window-x="0"
     inkscape:window-y="30"
     inkscape:window-maximized="1"
     inkscape:current-layer="layer1"
     inkscape:showpageshadow="0"
     inkscape:deskcolor="#505050" /><defs
     id="defs2" /><g
     inkscape:label="Layer 1"
     inkscape:groupmode="layer"
     id="layer1"><circle
       style="fill:none;stroke:#ffffff;stroke-width:0.999999;stroke-linecap:round;stroke-linejoin:round;stroke-dashoffset:92;stop-color:#000000"
       id="path1320"
       cx="24"
       cy="24"
       r="20.5" /><circle
       style="fill:none;stroke:#ffffff;stroke-width:0.999997;stroke-linecap:round;stroke-linejoin:round;stroke-dashoffset:92;stop-color:#000000"
       id="circle1322"
       cx="24"
       cy="14.471642"
       r="5.2783589" /><circle
       style="fill:none;stroke:#ffffff;stroke-width:0.999999;stroke-linecap:round;stroke-linejoin:round;stroke-dashoffset:92;stop-color:#000000"
       id="circle1328"
       cx="24"
       cy="-24"
       r="20.5"
       transform="rotate(90)" /><circle
       style="fill:none;stroke:#ffffff;stroke-width:0.999997;stroke-linecap:round;stroke-linejoin:round;stroke-dashoffset:92;stop-color:#000000"
       id="circle1330"
       cx="24"
       cy="-33.528358"
       r="5.2783589"
       transform="rotate(90)" /><circle
       style="fill:none;stroke:#ffffff;stroke-width:0.999999;stroke-linecap:round;stroke-linejoin:round;stroke-dashoffset:92;stop-color:#000000"
       id="circle1334"
       cx="-24"
       cy="-24"
       r="20.5"
       transform="scale(-1)" /><circle
       style="fill:none;stroke:#ffffff;stroke-width:0.999997;stroke-linecap:round;stroke-linejoin:round;stroke-dashoffset:92;stop-color:#000000"
       id="circle1336"
       cx="-24"
       cy="-33.528358"
       r="5.2783589"
       transform="scale(-1)" /><circle
       style="fill:none;stroke:#ffffff;stroke-width:0.999999;stroke-linecap:round;stroke-linejoin:round;stroke-dashoffset:92;stop-color:#000000"
       id="circle1340"
       cx="-24"
       cy="24"
       r="20.5"
       transform="rotate(-90)" /><circle
       style="fill:none;stroke:#ffffff;stroke-width:0.999997;stroke-linecap:round;stroke-linejoin:round;stroke-dashoffset:92;stop-color:#000000"
       id="circle1342"
       cx="-24"
       cy="14.471642"
       r="5.2783589"
       transform="rotate(-90)" /><path
       id="circle1410"
       style="fill:none;stroke:#ffffff;stroke-width:0.999997;stroke-linecap:round;stroke-linejoin:round;stroke-dashoffset:92;stop-color:#000000"
       d="M 20.740234 -29.390625 A 5.2783589 5.2783589 0 0 0 24 -28.25 A 5.2783589 5.2783589 0 0 0 27.259766 -29.390625 L 24.943359 -31.707031 C 24.420286 -32.230105 23.579714 -32.230105 23.056641 -31.707031 L 20.740234 -29.390625 z "
       transform="rotate(90)" /><path
       id="rect1417"
       style="fill:none;stroke:#ffffff;stroke-width:1;stroke-linecap:round;stroke-linejoin:round;stroke-dashoffset:92;stop-color:#000000"
       d="M 36.946329 3.0052038 A 5.2783589 5.2783589 0 0 0 35.447871 6.1167499 L 38.723764 6.1167499 C 39.463502 6.1167499 40.057875 5.5223763 40.057875 4.7826382 L 40.057875 1.4984587 A 5.2783589 5.2783589 0 0 0 36.946329 3.0052038 z "
       transform="rotate(45)" /><path
       id="rect1419"
       style="fill:none;stroke:#ffffff;stroke-width:1;stroke-linecap:round;stroke-linejoin:round;stroke-dashoffset:92;stop-color:#000000"
       d="M 27.824376 1.4984587 L 27.824376 4.7826382 C 27.824376 5.5223763 28.418749 6.1167499 29.158487 6.1167499 L 32.43438 6.1167499 A 5.2783589 5.2783589 0 0 0 30.935922 3.0052038 A 5.2783589 5.2783589 0 0 0 27.824376 1.4984587 z "
       transform="rotate(45)" /><path
       id="rect1421"
       style="fill:none;stroke:#ffffff;stroke-width:1;stroke-linecap:round;stroke-linejoin:round;stroke-dashoffset:92;stop-color:#000000"
       d="M 28.213837 -5.7272887 C 27.972487 -5.4859392 27.824376 -5.1525073 27.824376 -4.7826382 L 27.824376 -1.5067451 A 5.2783589 5.2783589 0 0 0 30.935922 -3.0052038 A 5.2783589 5.2783589 0 0 0 32.43438 -6.1167499 L 29.158487 -6.1167499 C 28.788618 -6.1167499 28.455186 -5.9686383 28.213837 -5.7272887 z "
       transform="rotate(45)" /></g></svg>
