<?xml version="1.0" encoding="UTF-8" standalone="no"?>
<!-- Created with Inkscape (http://www.inkscape.org/) -->

<svg
   width="48"
   height="48"
   viewBox="0 0 48 48.000002"
   version="1.1"
   id="svg5"
   inkscape:version="1.1.1 (3bf5ae0d25, 2021-09-20)"
   sodipodi:docname="goryon.svg"
   xmlns:inkscape="http://www.inkscape.org/namespaces/inkscape"
   xmlns:sodipodi="http://sodipodi.sourceforge.net/DTD/sodipodi-0.dtd"
   xmlns="http://www.w3.org/2000/svg"
   xmlns:svg="http://www.w3.org/2000/svg">
  <sodipodi:namedview
     id="namedview7"
     pagecolor="#505050"
     bordercolor="#eeeeee"
     borderopacity="1"
     inkscape:pageshadow="0"
     inkscape:pageopacity="0"
     inkscape:pagecheckerboard="0"
     inkscape:document-units="px"
     showgrid="false"
     units="px"
     inkscape:zoom="6.3282237"
     inkscape:cx="-4.6616557"
     inkscape:cy="18.409589"
     inkscape:window-width="1896"
     inkscape:window-height="1035"
     inkscape:window-x="10"
     inkscape:window-y="31"
     inkscape:window-maximized="1"
     inkscape:current-layer="layer1" />
  <defs
     id="defs2" />
  <g
     inkscape:label="Layer 1"
     inkscape:groupmode="layer"
     id="layer1">
    <path
       id="path855"
       style="fill:none;stroke:#ffffff;stroke-width:0.999996;stroke-linecap:round;stroke-linejoin:round;stroke-dashoffset:92;stop-color:#000000"
       d="M 20.85141,2.4998474 18.245681,11.18982 a 19.047297,17.577704 0 0 0 -0.211848,0.07142 L 11.996168,3.1770569 c 0,0 1.204224,6.4404428 1.816596,9.9015421 A 19.047297,17.577704 0 0 0 4.9522253,27.921656 19.047297,17.577704 0 0 0 24,45.500002 19.047297,17.577704 0 0 0 43.047775,27.921656 19.047297,17.577704 0 0 0 30.959203,11.56546 l 1.885448,-3.997123 -4.242255,3.296106 a 19.047297,17.577704 0 0 0 -2.53423,-0.412675 L 24.892409,4.8224641 22.861317,10.420024 a 19.047297,17.577704 0 0 0 -0.304531,0.01852 z" />
    <path
       sodipodi:type="star"
       style="fill:none;stroke:#ffffff;stroke-width:0.737941;stroke-linecap:round;stroke-linejoin:round;stroke-dashoffset:92;stop-color:#000000"
       id="path1236"
       inkscape:flatsided="true"
       sodipodi:sides="3"
       sodipodi:cx="24.086182"
       sodipodi:cy="32.518421"
       sodipodi:r1="4.0329366"
       sodipodi:r2="2.0164683"
       sodipodi:arg1="-0.53761754"
       sodipodi:arg2="0.50958001"
       inkscape:rounded="0"
       inkscape:randomized="0"
       inkscape:transform-center-x="0.028267472"
       inkscape:transform-center-y="0.98365476"
       d="m 27.550197,30.45319 -3.40748,6.097771 -3.577085,-5.999849 z"
       transform="matrix(1.3558266,0,0,1.3544189,-8.5398383,-7.2853001)" />
    <g
       id="g2345">
      <ellipse
         style="fill:none;stroke:#ffffff;stroke-width:1;stroke-linecap:round;stroke-linejoin:round;stroke-dashoffset:92;stop-color:#000000"
         id="path1075"
         cx="16.65052"
         cy="25.078382"
         rx="4.8409686"
         ry="4.8359423" />
      <circle
         style="fill:none;stroke:#ffffff;stroke-width:1;stroke-linecap:round;stroke-linejoin:round;stroke-dashoffset:92;stop-color:#000000"
         id="path2052"
         cx="17.556517"
         cy="26.193609"
         r="1.2190249" />
    </g>
    <g
       id="g2351"
       transform="matrix(-1,0,0,1,47.913306,0)">
      <ellipse
         style="fill:none;stroke:#ffffff;stroke-width:1;stroke-linecap:round;stroke-linejoin:round;stroke-dashoffset:92;stop-color:#000000"
         id="ellipse2347"
         cx="16.65052"
         cy="25.078382"
         rx="4.8409686"
         ry="4.8359423" />
      <circle
         style="fill:none;stroke:#ffffff;stroke-width:1;stroke-linecap:round;stroke-linejoin:round;stroke-dashoffset:92;stop-color:#000000"
         id="circle2349"
         cx="17.556517"
         cy="26.193609"
         r="1.2190249" />
    </g>
  </g>
</svg>
