<?xml version="1.0" encoding="UTF-8" standalone="no"?>
<!-- Created with Inkscape (http://www.inkscape.org/) -->

<svg
   width="48"
   height="48"
   viewBox="0 0 48 48.000002"
   version="1.1"
   id="svg5"
   inkscape:version="1.1.1 (3bf5ae0d25, 2021-09-20)"
   sodipodi:docname="iconify.svg"
   xmlns:inkscape="http://www.inkscape.org/namespaces/inkscape"
   xmlns:sodipodi="http://sodipodi.sourceforge.net/DTD/sodipodi-0.dtd"
   xmlns="http://www.w3.org/2000/svg"
   xmlns:svg="http://www.w3.org/2000/svg">
  <sodipodi:namedview
     id="namedview7"
     pagecolor="#505050"
     bordercolor="#eeeeee"
     borderopacity="1"
     inkscape:pageshadow="0"
     inkscape:pageopacity="0"
     inkscape:pagecheckerboard="0"
     inkscape:document-units="px"
     showgrid="false"
     units="px"
     inkscape:zoom="15.93989"
     inkscape:cx="15.652555"
     inkscape:cy="16.970004"
     inkscape:window-width="1896"
     inkscape:window-height="1035"
     inkscape:window-x="10"
     inkscape:window-y="31"
     inkscape:window-maximized="1"
     inkscape:current-layer="layer1"
     showguides="true"
     inkscape:guide-bbox="true"
     inkscape:snap-global="true"
     inkscape:object-paths="true" />
  <defs
     id="defs2" />
  <g
     inkscape:label="Layer 1"
     inkscape:groupmode="layer"
     id="layer1">
    <path
       id="path7941"
       style="fill:none;stroke:#ffffff;stroke-width:1;stroke-linecap:round;stroke-linejoin:round;stroke-dashoffset:92;stop-color:#000000"
       d="M 24,2.5 C 21.376759,2.5 9.8413172,13.975343 7.3474163,22.309419 h 0.036276 A 17.575897,17.573071 0 0 0 6.4244,27.927226 17.575897,17.573071 0 0 0 24,45.5 17.575897,17.573071 0 0 0 41.5756,27.927226 17.575897,17.573071 0 0 0 40.650569,22.309419 h 0.004 C 38.160697,13.975343 26.62324,2.5 24,2.5 Z" />
    <ellipse
       style="fill:none;stroke:#ffffff;stroke-width:1;stroke-linecap:round;stroke-linejoin:round;stroke-dashoffset:92;stop-color:#000000"
       id="path8531"
       cx="24.000521"
       cy="17.731958"
       rx="4.0397882"
       ry="4.0391388" />
    <path
       style="fill:none;stroke:#ffffff;stroke-width:1px;stroke-linecap:butt;stroke-linejoin:round;stroke-opacity:1"
       d="m 18.129516,23.77494 c 2.409723,0.09995 3.193037,3.520691 5.871005,3.972566 2.67797,0.451874 4.021498,-0.809966 4.021498,-0.809966 1.199073,1.086073 1.957575,2.666411 1.957575,4.423879 0,3.30162 -2.676922,5.978111 -5.979073,5.978111 -3.302151,0 -5.979073,-2.676491 -5.978965,-5.95288 z"
       id="path12089"
       sodipodi:nodetypes="cscsscc" />
  </g>
</svg>
