<?xml version="1.0" encoding="UTF-8" standalone="no"?>
<!-- Created with Inkscape (http://www.inkscape.org/) -->

<svg
   width="48"
   height="48"
   viewBox="0 0 48 48"
   version="1.1"
   id="svg5"
   inkscape:version="1.1.1 (3bf5ae0d25, 2021-09-20, custom)"
   sodipodi:docname="macrodroid.svg"
   xmlns:inkscape="http://www.inkscape.org/namespaces/inkscape"
   xmlns:sodipodi="http://sodipodi.sourceforge.net/DTD/sodipodi-0.dtd"
   xmlns="http://www.w3.org/2000/svg"
   xmlns:svg="http://www.w3.org/2000/svg">
  <sodipodi:namedview
     id="namedview7"
     pagecolor="#505050"
     bordercolor="#eeeeee"
     borderopacity="1"
     inkscape:pageshadow="0"
     inkscape:pageopacity="0"
     inkscape:pagecheckerboard="0"
     inkscape:document-units="px"
     showgrid="false"
     units="px"
     inkscape:object-paths="true"
     inkscape:zoom="7.3333333"
     inkscape:cx="14.931818"
     inkscape:cy="33.75"
     inkscape:window-width="1914"
     inkscape:window-height="1055"
     inkscape:window-x="0"
     inkscape:window-y="19"
     inkscape:window-maximized="1"
     inkscape:current-layer="layer1" />
  <defs
     id="defs2">
    <style
       id="style1698">.a{fill:none;stroke:#fff;stroke-linecap:round;stroke-linejoin:round;}</style>
    <style
       id="style1807">.a{fill:none;stroke:#fff;stroke-linecap:round;stroke-linejoin:round;}</style>
    <style
       id="style2127">.cls-1{fill:none;stroke:#fff;stroke-linecap:round;stroke-linejoin:round;}</style>
    <style
       id="style2286">.a{fill:none;stroke:#fff;stroke-linecap:round;stroke-linejoin:round;}</style>
  </defs>
  <g
     inkscape:label="Layer 1"
     inkscape:groupmode="layer"
     id="layer1">
    <g
       id="g2310"
       transform="translate(-0.00984614,0.01997021)">
      <path
         class="a"
         d="M 5.51,27.25 V 40 a 1.94,1.94 0 0 0 1.94,2 h 33.1 a 2,2 0 0 0 2,-2 V 27.25 Z"
         id="path2290" />
      <path
         class="a"
         d="m 39,13.72 2.58,-2.56 A 3.0158125,3.0158125 0 0 0 37.31,6.9 v 0 l -2.55,2.6 a 18.39,18.39 0 0 0 -21.51,0 L 10.68,6.93 A 3.22,3.22 0 0 0 8.5,6 3,3 0 0 0 6.38,11.15 L 9,13.71 a 18.41,18.41 0 0 0 -3.47,10.8 v 2.74 h 37 V 24.51 A 18.57,18.57 0 0 0 39,13.72 Z m -19.87,7 a 2.93,2.93 0 1 1 -2.93,-2.92 2.93,2.93 0 0 1 2.94,2.9 z m 12.65,2.92 a 2.92,2.92 0 1 1 2.92,-2.92 2.92,2.92 0 0 1 -2.91,2.9 z"
         id="path2292" />
    </g>
    <path
       id="path2539"
       style="fill:none;stroke:#ffffff;stroke-linecap:round;stroke-linejoin:round;stroke-dashoffset:1.9;paint-order:markers fill stroke;stop-color:#000000"
       d="m 20.430664,29.390625 c -0.539935,-0.01402 -1.070327,0.25912 -1.359375,0.759766 l -3.53125,6.117187 c -0.420434,0.728212 -0.171572,1.659644 0.556641,2.080078 0.728213,0.420433 1.659645,0.171573 2.080078,-0.55664 l 2.210938,-3.830078 2.269531,3.93164 c 0.420433,0.728212 1.351865,0.977075 2.080078,0.556641 0.286973,-0.165684 0.498536,-0.410719 0.625,-0.691407 l 2.191406,-3.796874 2.269531,3.93164 c 0.420433,0.728212 1.351865,0.977075 2.080078,0.556641 0.728214,-0.420433 0.977075,-1.351866 0.556641,-2.080078 l -3.53125,-6.113282 v -0.002 c -0.128018,-0.267608 -0.334974,-0.500603 -0.611328,-0.660156 -0.227566,-0.131386 -0.475278,-0.196751 -0.720703,-0.203125 -0.539935,-0.01402 -1.070327,0.25912 -1.359375,0.759766 l -2.267578,3.927734 -2.207031,-3.822266 v -0.002 C 21.634678,29.986251 21.427721,29.753303 21.151367,29.59375 20.923801,29.462364 20.676089,29.396999 20.430664,29.390625 Z" />
  </g>
</svg>
