<svg width="48" height="48" version="1.1" viewBox="0 0 48 48" xmlns="http://www.w3.org/2000/svg">
 <defs>
  <style>.a{fill:none;stroke:#fff;stroke-linecap:round;stroke-linejoin:round;}</style>
  <style>.a{fill:none;stroke:#fff;stroke-linecap:round;stroke-linejoin:round;}</style>
 </defs>
 <g transform="matrix(.93726 0 0 .93485 1.5252 1.5277)" fill="none" stroke="#fff" stroke-linecap="round" stroke-linejoin="round" stroke-width="1.0683px">
  <path d="m6.3755 29.456s0.19382-8.1436 2.5972-8.8556c2.4204-0.717 0.8027 4.7867 1.1436 6.8388"/>
  <path d="m10.217 24.47c0.10622-2.591 2.0156-6.4301 3.6112-5.3366 1.1452 0.78486-1.2936 5.6369-0.63914 7.5282"/>
  <path d="m19.414 21.196s-0.42599-2.5939-2.6418-0.40526c-2.2158 2.1886-1.6938 4.956-0.47988 4.9244 1.9818-0.05159 3.6523-6.1034 3.6523-6.1034s-2.2943 6.3005-0.752 5.5807c1.5423-0.71981 3.3749-4.2619 3.7279-6.1423 0 0-1.3807 4.7736-1.2475 6.048 0 0 1.0432-5.8918 3.5076-6.1996 0 0 0.44914-0.47202-0.1348 1.3826-0.58393 1.8546 0.10705 2.299 3.0893-1.3371 0 0-2.4497 5.1211-0.86622 5.2662 1.5835 0.14508 4.1878-4.2066 4.0867-5.2823s-1.9318 0.92326-0.16935 2.3425c1.7624 1.4193 5.3231-0.66452 4.8573-1.8968-0.46582-1.2323-3.1267-0.91318-3.7696 2.8878-0.64296 3.801 2.9918 1.0738 5.4049-0.65157 2.4131-1.7254 4.5379-3.6012 3.7395-4.7566-0.805-1.1649-3.2853 1.2304-4.1451 5.697-0.85981 4.4666 2.8845 0.1611 2.8845 0.1611"/>
  <path d="m36.619 26.706s-19.987-0.7201-27.268 4.8096"/>
 </g>
 <path class="a" d="m40.5 5.5h-33a2 2 0 0 0-2 2v33a2 2 0 0 0 2 2h33a2 2 0 0 0 2-2v-33a2 2 0 0 0-2-2z"/>
</svg>
