<?xml version="1.0" encoding="UTF-8" standalone="no"?>
<!-- Created with Inkscape (http://www.inkscape.org/) -->

<svg
   width="48"
   height="48"
   viewBox="0 0 48 48"
   version="1.1"
   id="svg5"
   inkscape:version="1.1.1 (3bf5ae0d25, 2021-09-20)"
   sodipodi:docname="mobilbank.svg"
   xmlns:inkscape="http://www.inkscape.org/namespaces/inkscape"
   xmlns:sodipodi="http://sodipodi.sourceforge.net/DTD/sodipodi-0.dtd"
   xmlns="http://www.w3.org/2000/svg"
   xmlns:svg="http://www.w3.org/2000/svg">
  <sodipodi:namedview
     id="namedview7"
     pagecolor="#505050"
     bordercolor="#eeeeee"
     borderopacity="1"
     inkscape:pageshadow="0"
     inkscape:pageopacity="0"
     inkscape:pagecheckerboard="0"
     inkscape:document-units="px"
     showgrid="false"
     units="px"
     inkscape:object-paths="true"
     inkscape:zoom="14.666667"
     inkscape:cx="11.079545"
     inkscape:cy="20.556818"
     inkscape:window-width="1914"
     inkscape:window-height="1055"
     inkscape:window-x="0"
     inkscape:window-y="19"
     inkscape:window-maximized="1"
     inkscape:current-layer="layer1" />
  <defs
     id="defs2" />
  <g
     inkscape:label="Layer 1"
     inkscape:groupmode="layer"
     id="layer1">
    <g
       id="g7157"
       transform="matrix(0.92496452,0,0,0.92857104,1.7329977,3.2500179)"
       style="stroke-width:1.07902">
      <path
         style="fill:none;stroke:#ffffff;stroke-width:1.07902px;stroke-linecap:round;stroke-linejoin:round;stroke-opacity:1"
         d="m 18.450725,23.563151 c 0,0 1.047887,4.847633 5.72343,4.847633 4.675544,0 5.311406,-4.864267 5.311406,-4.864267"
         id="path4543"
         sodipodi:nodetypes="csc" />
      <path
         style="fill:none;stroke:#ffffff;stroke-width:1.07902px;stroke-linecap:round;stroke-linejoin:round;stroke-opacity:1"
         d="m 20.797868,31.054116 c 0,0 1.011672,9.372712 1.804051,12.654165"
         id="path4545" />
      <path
         style="fill:none;stroke:#ffffff;stroke-width:1.07902px;stroke-linecap:round;stroke-linejoin:round;stroke-opacity:1"
         d="m 24.430337,45.5 c 0,0 1.817902,-4.553764 2.623399,-14.253308"
         id="path4547" />
      <path
         style="fill:none;stroke:#ffffff;stroke-width:1.07902px;stroke-linecap:round;stroke-linejoin:round;stroke-opacity:1"
         d="m 25.995976,14.410653 c -2.93046,2.192946 -4.041162,3.789701 -2.958771,7.491138 1.082391,3.701438 1.511575,3.788282 1.511575,3.788282 0,0 -0.783487,-3.774516 2.414608,-6.257844 3.198094,-2.483328 4.759967,-5.677117 3.322611,-10.4809726 -1.437356,-4.8038557 -5.602777,-9.75907226 -5.602777,-9.75907226 0,0 0.350948,6.82522646 -2.719178,10.06606666 -1.808025,1.9085592 -5.958612,4.3020462 -4.242222,8.9065082 1.716389,4.604462 3.247668,3.903978 3.247668,3.903978 0,0 -2.710691,-4.640443 0.705016,-7.586484 3.415706,-2.946042 5.02683,-4.032706 5.098594,-7.055466 0,0 2.153336,4.790919 -0.777124,6.983866 z"
         id="path6202"
         sodipodi:nodetypes="sscsscsscscs" />
    </g>
  </g>
</svg>
