<?xml version="1.0" encoding="UTF-8" standalone="no"?>
<!-- Created with Inkscape (http://www.inkscape.org/) -->

<svg
   width="48"
   height="48"
   viewBox="0 0 48 48"
   version="1.1"
   id="svg5"
   inkscape:version="1.1.1 (3bf5ae0d25, 2021-09-20, custom)"
   sodipodi:docname="monocles_mail.svg"
   xmlns:inkscape="http://www.inkscape.org/namespaces/inkscape"
   xmlns:sodipodi="http://sodipodi.sourceforge.net/DTD/sodipodi-0.dtd"
   xmlns="http://www.w3.org/2000/svg"
   xmlns:svg="http://www.w3.org/2000/svg">
  <sodipodi:namedview
     id="namedview7"
     pagecolor="#505050"
     bordercolor="#eeeeee"
     borderopacity="1"
     inkscape:pageshadow="0"
     inkscape:pageopacity="0"
     inkscape:pagecheckerboard="0"
     inkscape:document-units="px"
     showgrid="false"
     units="px"
     inkscape:zoom="10.370899"
     inkscape:cx="9.7870007"
     inkscape:cy="33.603643"
     inkscape:window-width="1884"
     inkscape:window-height="1025"
     inkscape:window-x="15"
     inkscape:window-y="34"
     inkscape:window-maximized="1"
     inkscape:current-layer="layer1" />
  <defs
     id="defs2">
    <style
       id="style951">.a{fill:none;stroke:#fff;stroke-linecap:round;stroke-linejoin:round;}.b{fill:#fff;}</style>
    <style
       id="style1059">.a{fill:none;stroke:#fff;stroke-linecap:round;stroke-linejoin:round;}.b{fill:#fff;}</style>
    <style
       id="style1170">.cls-1{fill:none;stroke:#fff;stroke-linecap:round;stroke-linejoin:round;}</style>
  </defs>
  <g
     inkscape:label="Layer 1"
     inkscape:groupmode="layer"
     id="layer1">
    <path
       class="a"
       d="m 23.999032,29.502343 c 0,0 2.266148,-1.798599 3.653307,-1.112632 4.651269,2.302884 6.686123,9.254506 16.389587,3.936205 -6.623252,12.202467 -17.169917,7.002921 -20.042894,2.731628 -2.871285,4.270926 -13.417708,9.470838 -20.0409599,-2.731628 9.7039469,5.318301 11.7383179,-1.633321 16.3895869,-3.936205 1.387159,-0.685968 3.651373,1.112632 3.651373,1.112632 z"
       id="path1063"
       style="stroke-width:1" />
    <path
       class="cls-1"
       d="M 43.53,32.477709 V 12.68 c 0,-1.104569 -0.895431,-2 -2,-2 H 6.4699998 v 0.03 c -1.1045695,0 -2,0.895431 -2,2 v 0 19.820612 M 39.68,14.53 24,26.07 8.3199998,14.53"
       id="path1174"
       sodipodi:nodetypes="cssccsccccc" />
  </g>
</svg>
