<svg width="48" height="48" version="1.1" viewBox="0 0 48 48" xmlns="http://www.w3.org/2000/svg">
 <g fill="none" stroke="#fff" stroke-linecap="round">
  <path d="m14.197 20.326c-0.22726 0.11761-0.48548 0.18408-0.75929 0.18408-0.91086 0-1.6492-0.73554-1.6492-1.6429 0-0.63844 0.36558-1.1918 0.89958-1.4637" stop-color="#000000" stroke-linejoin="round" style="paint-order:stroke fill markers"/>
  <ellipse cx="33.269" cy="9.0438" rx="3.6565" ry="3.6424" stop-color="#000000" stroke-linejoin="round" style="paint-order:stroke fill markers"/>
  <g>
   <path d="m12.424 17.571 18.954-11.645"/>
   <path d="m14.075 20.382 20.532-7.9486"/>
   <path d="m24.631 16.296v29.206"/>
   <path d="m24.631 16.296 6.754 25.109"/>
   <path d="m24.631 16.296-6.754 25.109"/>
  </g>
  <path transform="matrix(1.7425 0 0 1.7351 -19.167 -13.857)" d="m32.394 22.011-1.4646-0.48551-1.1924 0.97936 0.0092-1.543-1.2999-0.83137 1.4703-0.4681 0.38899-1.4932 0.89954 1.2537 1.5403-0.09146-0.91434 1.2429z" stop-color="#000000" stroke-linejoin="round" stroke-width=".57512" style="paint-order:stroke fill markers"/>
  <path d="m13.236 2.5a4.0568 4.0412 0 0 0-3.1252 3.9266 4.0568 4.0412 0 0 0 4.0574 4.0418 4.0568 4.0412 0 0 0 3.8854-2.8983 3.5288 3.5151 0 0 1-2.1802 0.76486 3.5288 3.5151 0 0 1-3.5284-3.5148 3.5288 3.5151 0 0 1 0.89109-2.3202z" stop-color="#000000" stroke-linejoin="round" style="paint-order:stroke fill markers"/>
 </g>
</svg>
