<svg width="48" height="48" version="1.1" viewBox="0 0 48 48" xmlns="http://www.w3.org/2000/svg">
 <g fill="none" stroke="#fff" stroke-linecap="round" stroke-linejoin="round" stroke-miterlimit="4.6667">
  <path d="m21.872 26.999c-0.42762 0.72865-0.71094 1.4187-0.80926 2.0564-0.32273 2.093 0.16868 3.6158 1.1199 4.6683 1.6867 1.8662 4.8191 2.2537 7.4218 1.7201 2.0674-0.42388 4.0087-1.9806 5.5201-3.3943 1.4644-1.3698 2.5252-2.6052 2.9056-2.5456 0.77302 0.12119-2.9506 12.391-13.335 13.088-10.384 0.69693-15.136-4.0278-15.714-14.496-0.69731-12.632 13.634-23.417 13.634-23.417s12.126-1.5279 16.427 4.3726c-0.31973 1.5048-2.7564 3.8492-5.7399 6.4994"/>
  <path d="m34.609 5.8951c-0.4164 0.25732-3.2215 4.5856-7.3408 7.8761-0.70433 0.56262-1.4403 1.132-2.1852 1.7239m-3.1245 2.6693c-2.4979 2.3669-4.7216 5.2683-5.739 9.3566-1.7269 6.9394 3.7914 11.762 8.6173 11.639 5.1545-0.1308 10.52-3.522 12.687-9.3598"/>
  <path d="m22.022 33.456v-16.146c0-0.96666 0.64537-1.7449 1.447-1.7449h10.233c0.80165 0 1.447 0.77822 1.447 1.7449v14.7m0 4.47v5.275c0 0.96666-0.64537 1.7449-1.447 1.7449h-10.233c-0.49755 0-0.9349-0.29978-1.1951-0.75834" stop-color="#000000" stroke-dashoffset="1.9" style="paint-order:markers fill stroke"/>
 </g>
</svg>
