<svg width="48" height="48" version="1.1" viewBox="0 0 48 48" xmlns="http://www.w3.org/2000/svg">
 <defs>
  <style>.a{fill:none;stroke:#fff;stroke-linecap:round;stroke-linejoin:round;}</style>
 </defs>
 <g stroke-miterlimit="8.8">
  <line class="st0" x1="30.439" x2="39.939" y1="20.44" y2="34.44"/>
  <polyline class="st0" transform="matrix(1.8367 0 0 1.7516 -289.36 -149.34)" points="169.2 93 169.2 101 173.2 101" stroke-width=".55753"/>
  <g>
   <line class="st0" x1="39.939" x2="30.439" y1="20.44" y2="34.44"/>
   <path class="st0" d="m8.0547 29.767c0 2.5926 2.1248 4.6667 4.6038 4.6667 2.656 0 4.7808-2.0741 4.7808-4.6667v-4.6667c0-2.5926-2.1248-4.6667-4.7808-4.6667-2.656 0-4.6038 2.0741-4.6038 4.6667z"/>
   <path class="a" d="m40.5 5.5h-33a2 2 0 0 0-2 2v33a2 2 0 0 0 2 2h33a2 2 0 0 0 2-2v-33a2 2 0 0 0-2-2z"/>
  </g>
 </g>
 <style type="text/css">.st0{fill:none;stroke:#FFFFFF;stroke-linecap:round;stroke-linejoin:round;stroke-miterlimit:10;}
	.st1{fill:#FFFFFF;}
	.st2{fill:none;stroke:#FFFFFF;stroke-width:1;stroke-linecap:round;stroke-linejoin:round;stroke-miterlimit:10;}
	.st3{fill:none;stroke:#FFFFFF;stroke-width:1;stroke-linecap:round;stroke-linejoin:round;stroke-miterlimit:10;}
	.st4{fill:none;stroke:#FFFFFF;stroke-width:1;stroke-linecap:round;stroke-linejoin:round;stroke-miterlimit:10;}</style>
</svg>
