<svg width="48" height="48" version="1.1" viewBox="0 0 48 48" xmlns="http://www.w3.org/2000/svg">
 <g fill="none" stroke="#fff">
  <path d="m21.891 24a9.6953 9.7432 0 0 1-9.6953 9.7432 9.6953 9.7432 0 0 1-9.6953-9.7432 9.6953 9.7432 0 0 1 9.6953-9.7432 9.6953 9.7432 0 0 1 9.6953 9.7432zm-6.9512 0a2.7442 2.7577 0 0 1-2.7442 2.7577 2.7442 2.7577 0 0 1-2.7442-2.7577 2.7442 2.7577 0 0 1 2.7442-2.7577 2.7442 2.7577 0 0 1 2.7442 2.7577z" stop-color="#000000" stroke-linecap="round" style="paint-order:stroke fill markers"/>
  <rect x="24.675" y="12.172" width="6.2215" height="23.657" ry=".60131" stop-color="#000000" stroke-linecap="round" style="paint-order:stroke fill markers"/>
  <path d="m33.68 18.06v3.9493l1.9825 1.9898-1.9825 1.9923v3.9493h3.9299l1.98-1.9923 1.9825 1.9923h3.9274v-3.9493l-1.98-1.9923 1.98-1.9898v-3.9493h-3.9274l-1.9825 1.9923-1.98-1.9923z" stroke-linejoin="round"/>
 </g>
</svg>
