<svg width="48" height="48" version="1.1" viewBox="0 0 48 48" xmlns="http://www.w3.org/2000/svg">
 <defs>
  <style>.a{fill:none;stroke:#fff;stroke-linecap:round;stroke-linejoin:round;}</style>
 </defs>
 <g stroke="#fff" stroke-linecap="round" stroke-linejoin="round">
  <circle class="a" cx="24" cy="24" r="21.5"/>
  <g fill="none">
   <path d="m21.707 2.6226s2.3283 3.9074 2.3316 6.4316c0.0033 2.5243-0.91874 1.3182 1.7592 8.3851 2.6779 7.0669 1.6771 13.264 2.7062 15.415 1.0291 2.1513 3.9566 3.4926 4.6251 5.5907 0.66846 2.0981 1.1396 4.4441 1.1396 4.4441"/>
   <path d="m24.456 2.5048s3.598 6.4028 3.598 8.0079c0 1.605 0.11028 5.1249 2.3099 6.2807 2.1996 1.1558 3.2141 4.2135 2.9049 7.1238m7.1714 8.6126c1.4233 1.2054 1.8911 2.7047 1.8911 2.7047"/>
   <path d="m3.8463 16.511s4.3716 1.1913 7.0311 7.304m1.9757 12.546c-0.05506 1.7493-0.21392 3.6492-0.49709 5.7123"/>
   <path d="m10.327 40.592s1.012-0.92865 5.3066-1.0756m5.1872 0.1367c8.4121 0.14061 23.839-9.6994 23.839-9.6994"/>
   <path d="m20.28 2.8243-0.58549 10.597-2.3023 2.0234"/>
   <path d="m5.0119 13.915s3.8822 2.1467 5.3953 0.45444c1.5132-1.6923 7.0218-3.5724 6.7491-6.2545-0.27273-2.6821 0.7986-4.7479 0.7986-4.7479"/>
   <path d="m32.002 4.0448-2.7238 2.6243 3.2036 2.7336"/>
   <path d="m13.689 24.594c-1.4666-1.5596-2.3486-3.4818-2.5153-3.7446-0.16668-0.26283-0.51762-1.1011-0.51762-1.7196 0-1.6829 1.3643-3.0472 3.0472-3.0472s3.0472 1.3643 3.0472 3.0472c0 0.58945-0.33873 1.4126-0.5101 1.6855-0.17137 0.27282-1.0848 2.2192-2.5515 3.7788z"/>
   <path d="m18.167 39.519c-1.4666-1.5596-2.3486-3.4818-2.5153-3.7446-0.16668-0.26283-0.51762-1.1011-0.51762-1.7196 0-1.6829 1.3643-3.0472 3.0472-3.0472s3.0472 1.3643 3.0472 3.0472c0 0.58945-0.33873 1.4126-0.5101 1.6855-0.17137 0.27282-1.0848 2.2192-2.5515 3.7788z"/>
   <path d="m37.401 30.854c-1.4666-1.5596-2.3486-3.4818-2.5153-3.7446-0.16668-0.26283-0.51762-1.1011-0.51762-1.7196 0-1.6829 1.3643-3.0472 3.0472-3.0472s3.0472 1.3643 3.0472 3.0472c0 0.58945-0.33873 1.4126-0.5101 1.6855-0.17137 0.27282-1.0848 2.2192-2.5515 3.7788z"/>
   <path d="m37.3 18.958c-1.4666-1.5596-2.3486-3.4818-2.5153-3.7446-0.16668-0.26283-0.51762-1.1011-0.51762-1.7196 0-1.6829 1.3643-3.0472 3.0472-3.0472s3.0472 1.3643 3.0472 3.0472c0 0.58945-0.33873 1.4126-0.5101 1.6855-0.17137 0.27282-1.0848 2.2192-2.5515 3.7788z"/>
   <path d="m10.791 34.734c-1.4666-1.5596-2.3486-3.4818-2.5153-3.7446-0.16668-0.26283-0.51762-1.1011-0.51762-1.7196 0-1.6829 1.3643-3.0472 3.0472-3.0472 1.6829 0 3.0472 1.3643 3.0472 3.0472 0 0.58945-0.33873 1.4126-0.5101 1.6855-0.17137 0.27282-1.0848 2.2192-2.5515 3.7788z"/>
  </g>
 </g>
</svg>
