<?xml version="1.0" encoding="UTF-8" standalone="no"?>
<!-- Created with Inkscape (http://www.inkscape.org/) -->

<svg
   width="48"
   height="48"
   viewBox="0 0 48 48.000002"
   version="1.1"
   id="svg5"
   inkscape:version="1.1.1 (3bf5ae0, 2021-09-20)"
   sodipodi:docname="papertag.svg"
   xmlns:inkscape="http://www.inkscape.org/namespaces/inkscape"
   xmlns:sodipodi="http://sodipodi.sourceforge.net/DTD/sodipodi-0.dtd"
   xmlns="http://www.w3.org/2000/svg"
   xmlns:svg="http://www.w3.org/2000/svg">
  <sodipodi:namedview
     id="namedview7"
     pagecolor="#505050"
     bordercolor="#eeeeee"
     borderopacity="1"
     inkscape:pageshadow="0"
     inkscape:pageopacity="0"
     inkscape:pagecheckerboard="0"
     inkscape:document-units="px"
     showgrid="false"
     units="px"
     inkscape:zoom="6.8737762"
     inkscape:cx="0.3637011"
     inkscape:cy="22.185767"
     inkscape:window-width="1896"
     inkscape:window-height="1035"
     inkscape:window-x="10"
     inkscape:window-y="31"
     inkscape:window-maximized="1"
     inkscape:current-layer="layer1" />
  <defs
     id="defs2" />
  <g
     inkscape:label="Layer 1"
     inkscape:groupmode="layer"
     id="layer1">
    <path
       id="rect877"
       style="fill:none;stroke:#ffffff;stroke-width:1;stroke-linecap:round;stroke-linejoin:round;stroke-miterlimit:4;stroke-dasharray:none"
       d="m 13.815404,7.492945 c -0.530898,0 -1.001766,0.426483 -1.057144,0.955346 l -0.58763,5.604886 H 6.4537905 c -0.528001,0 -0.953791,0.426483 -0.953791,0.955344 v 5.344606 c 0,0.528862 0.42579,0.955345 0.953791,0.955345 h 4.9579415 l -0.564007,5.383057 H 6.4537905 c -0.528001,0 -0.953791,0.426483 -0.953791,0.955344 v 5.344607 c 0,0.528861 0.42579,0.955344 0.953791,0.955344 H 10.088827 L 9.5011965,39.55171 c -0.05538,0.528862 0.328401,0.955345 0.8592995,0.955345 h 6.679488 c 0.530898,0 1.004719,-0.426483 1.060096,-0.955345 l 0.58763,-5.604886 h 8.542778 l -0.58763,5.604886 c -0.05538,0.528862 0.328399,0.955345 0.859297,0.955345 h 6.682443 c 0.530897,0 1.001765,-0.426483 1.057143,-0.955345 l 0.58763,-5.604886 h 5.716839 c 0.528,0 0.95379,-0.426483 0.95379,-0.955344 v -5.344607 c 0,-0.528861 -0.42579,-0.955344 -0.95379,-0.955344 h -4.957942 l 0.564007,-5.383057 h 4.393935 c 0.528,0 0.95379,-0.426483 0.95379,-0.955345 v -5.344606 c 0,-0.528861 -0.42579,-0.955344 -0.95379,-0.955344 h -3.635037 l 0.58763,-5.604886 C 38.554183,7.919428 38.170402,7.492945 37.639505,7.492945 h -6.679489 c -0.530897,0 -1.00472,0.426483 -1.060096,0.955346 l -0.58763,5.604886 h -8.542778 l 0.58763,-5.604886 C 21.412522,7.919428 21.028743,7.492945 20.497845,7.492945 Z m 6.195211,13.815527 h 8.542777 l -0.564006,5.383057 h -8.542778 z" />
  </g>
</svg>
