<?xml version="1.0" encoding="UTF-8"?>
<svg width="48" height="48" version="1.1" viewBox="0 0 48 48" xml:space="preserve" xmlns="http://www.w3.org/2000/svg"><defs><style>.a{fill:none;stroke:#fff;stroke-linecap:round;stroke-linejoin:round;}</style></defs><g stroke-linecap="round" stroke-linejoin="round"><path class="a" d="m20.4 9.41h-11.1c-0.988 0-1.79 0.801-1.79 1.79v29.5c0 0.988 0.801 1.79 1.79 1.79h29.5c0.988 0 1.79-0.801 1.79-1.79v-29.5c0-0.988-0.801-1.79-1.79-1.79h-11.1"/><path d="m24 33.2 11.4 9.35h3.3c0.988 0 1.79-0.801 1.79-1.79v-2.31l-13.2-10.8" fill="none" stroke="#fff"/><path d="m27.3 16.3h6.72l-10-10.8-10 10.8h6.72l-3.7e-4 11.3-13.2 10.8v2.31c0 0.988 0.801 1.79 1.79 1.79h3.3l14-11.5a1.92 1.92 115 0 0 0.707-1.49l-5.1e-5 -1.97z" fill="none" stroke="#fff"/></g></svg>
