<?xml version="1.0" encoding="UTF-8"?>
<svg width="48" height="48" version="1.1" viewBox="0 0 48 48" xml:space="preserve" xmlns="http://www.w3.org/2000/svg"><defs><style>.a{fill:none;stroke:#000;stroke-linecap:round;stroke-linejoin:round;}</style></defs><g stroke="#fff"><g transform="matrix(1.17 0 0 1.17 -4.76 -1.97)" fill="none" stroke-linecap="round" stroke-linejoin="round" stroke-width=".857"><path d="m18.9 28.2s-1.35 2.85 0.0125 3.42c2.24 0.931 2.99-7.62 2.06-14.9"/><path d="m32.8 28s-0.137 4-3.46 3.55c-3.48-0.474-3.06-9.33-2.13-14.4"/><path d="m14.8 19.4s1.87-2.64 6.66-3.1c5.12-0.491 11.1 2.47 11.7 0.334 0.376-1.53-1.35-1.91-3.13-0.902"/></g><path class="a" d="m8.1 7.86a1.92 1.92 0 0 0-1.92 1.92v31.8a1.92 1.92 0 0 0 1.92 1.92h31.8a1.92 1.92 0 0 0 1.92-1.92v-31.8a1.92 1.92 0 0 0-1.92-1.92z"/><line class="a" x1="12.8" x2="12.8" y1="10.3" y2="4.5"/><line class="a" x1="35.2" x2="35.2" y1="10.3" y2="4.5"/><line class="a" x1="18.4" x2="18.4" y1="10.3" y2="4.5"/><line class="a" x1="24" x2="24" y1="10.3" y2="4.5"/><line class="a" x1="29.6" x2="29.6" y1="10.3" y2="4.5"/></g></svg>
