<?xml version="1.0" encoding="UTF-8" standalone="no"?>
<!-- Created with Inkscape (http://www.inkscape.org/) -->

<svg
   width="48"
   height="48"
   viewBox="0 0 48 48"
   version="1.1"
   id="svg5"
   inkscape:version="1.1.1 (3bf5ae0d25, 2021-09-20)"
   sodipodi:docname="quakedroid.svg"
   xmlns:inkscape="http://www.inkscape.org/namespaces/inkscape"
   xmlns:sodipodi="http://sodipodi.sourceforge.net/DTD/sodipodi-0.dtd"
   xmlns="http://www.w3.org/2000/svg"
   xmlns:svg="http://www.w3.org/2000/svg">
  <sodipodi:namedview
     id="namedview7"
     pagecolor="#505050"
     bordercolor="#eeeeee"
     borderopacity="1"
     inkscape:pageshadow="0"
     inkscape:pageopacity="0"
     inkscape:pagecheckerboard="0"
     inkscape:document-units="px"
     showgrid="false"
     units="px"
     showguides="true"
     inkscape:guide-bbox="true"
     inkscape:object-paths="false"
     inkscape:snap-intersection-paths="false"
     inkscape:zoom="16"
     inkscape:cx="17.71875"
     inkscape:cy="19.09375"
     inkscape:window-width="1884"
     inkscape:window-height="1025"
     inkscape:window-x="15"
     inkscape:window-y="34"
     inkscape:window-maximized="1"
     inkscape:current-layer="layer1">
    <sodipodi:guide
       position="24,44.417554"
       orientation="-1,0"
       id="guide2635"
       inkscape:label=""
       inkscape:locked="false"
       inkscape:color="rgb(0,0,255)" />
  </sodipodi:namedview>
  <defs
     id="defs2" />
  <g
     inkscape:label="Layer 1"
     inkscape:groupmode="layer"
     id="layer1">
    <g
       id="g7259"
       transform="matrix(1.0125518,0,0,1.012448,-0.26578617,-2.3057683)"
       style="stroke-width:0.987654">
      <path
         style="fill-opacity:0;stroke:#ffffff;stroke-width:0.987654;stroke-linecap:round;stroke-linejoin:round;paint-order:stroke fill markers;stop-color:#000000"
         d="M 22.366911,27.577957 C 16.482868,26.780912 11.947393,21.737642 11.947392,15.635054 c -1e-6,-2.98225 1.083135,-5.7115199 2.700574,-7.9255069 -2.900321,2.4384479 -4.602541,6.0636709 -4.602541,10.0864689 0,7.16841 5.405112,13.074386 12.362109,13.864706"
         id="path2659"
         sodipodi:nodetypes="cscsc" />
      <path
         style="fill:none;stroke:#ffffff;stroke-width:0.987654px;stroke-linecap:round;stroke-linejoin:round;stroke-opacity:1"
         d="m 24,44.254883 -1.563054,-8.294976 v -4.00713 -0.264675 m 0,-4.102562 v -1.595697 -1.99031 c 0,-2.090601 -2.313722,-2.313722 -2.313722,-2.313722 H 24"
         id="path2776"
         sodipodi:nodetypes="ccccccscc" />
      <path
         style="fill:none;stroke:#ffffff;stroke-width:0.987654px;stroke-linecap:round;stroke-linejoin:round;stroke-opacity:1"
         d="m 24,44.254883 1.563054,-8.294976 v -4.00713 -0.290163 m 0,-4.075378 v -1.597393 -1.99031 c 0,-2.090601 2.313722,-2.313722 2.313722,-2.313722 H 24"
         id="path3031"
         sodipodi:nodetypes="ccccccscc" />
      <path
         style="fill-opacity:0;stroke:#ffffff;stroke-width:0.987654;stroke-linecap:round;stroke-linejoin:round;paint-order:stroke fill markers;stop-color:#000000"
         d="m 25.563054,27.587236 c 5.884043,-0.797045 10.419518,-5.840315 10.419519,-11.942903 10e-7,-2.98225 -1.083135,-5.7115199 -2.700574,-7.9255069 2.900321,2.4384479 4.602541,6.0636709 4.602541,10.0864689 0,7.16841 -5.405112,13.074386 -12.362109,13.864706"
         id="path8208"
         sodipodi:nodetypes="cscsc" />
    </g>
  </g>
</svg>
