<svg width="48" height="48" version="1.1" viewBox="0 0 48 48" xmlns="http://www.w3.org/2000/svg">
 <path d="m24 2.5a21.501 21.546 0 0 0-16.171 7.3578h21.19l1.4451-2.648s1.0923-1.1593 2.3397-0.46662c1.2474 0.69266 0.53995 2.1011-0.07111 3.3077h7.6086a21.501 21.546 0 0 0-16.341-7.5509zm-18.332 10.346a21.501 21.546 0 0 0-3.1678 11.199 21.501 21.546 0 0 0 17.601 21.143l-10.033-9.6564 2.9063-4.6317c-4.8602-2.7831-1.9153-8.7577-1.9153-8.7577h-2.4659v9.7139c-1.3055-0.08025-2.3213-1.8228-2.3213-1.8228v-7.7992c0-2.4945 1.4451-2.5101 1.4451-2.5101s20.383 0.42724 20.791-0.15171c0.40834-0.57895-2.5003-5.9304-2.5003-5.9304zm36.825 0.20917-6.1681 0.68728-0.07111 11.125c3.0118 0 4.0151-0.57718 5.5855 0.94703 1.5703 1.5242-2.7319 8.252-2.7319 8.252l-2.397-1.986c2.5952-3.8519 1.5942-3.7766 1.5942-3.7766h-2.3213l-2.7067 5.4086-2.4842-1.5998 1.8488-3.8456h-5.0235l-4.1243 6.574 9.1592 8.9071a21.501 21.546 0 0 0 12.848-19.704 21.501 21.546 0 0 0-3.0072-10.99zm-22.842 14.994-4.6977 7.482 10.288 9.969a21.501 21.546 0 0 0 3.6013-0.51719l-9.9185-9.6449 4.5739-7.2889z" fill="none" stop-color="#000000" stroke="#fff" stroke-dashoffset="1.9" stroke-linecap="round" stroke-linejoin="round" style="paint-order:markers fill stroke"/>
</svg>
