<svg width="48" height="48" version="1.1" viewBox="0 0 48 48" xmlns="http://www.w3.org/2000/svg">
 <g transform="matrix(1.0264 0 0 1.0267 -.63333 -.64104)" fill="none" stroke="#fff" stroke-linecap="round" stroke-linejoin="round" stroke-width=".97411">
  <path d="m32.771 33.742c-2.323 2.0928-5.3983 3.3666-8.7712 3.3666-5.87 0-10.839-3.8582-12.509-9.177m-0.17643-7.2491c1.4691-5.6335 6.5917-9.7914 12.685-9.7914 7.2397 0 13.109 5.869 13.109 13.109 0 1.3283-0.19756 2.6105-0.56491 3.8187" stop-color="#000000" style="paint-order:stroke fill markers"/>
  <g transform="rotate(15,24,24)">
   <path d="m37.109 24c0 2.8349-5.869 5.1331-13.109 5.1331s-13.109-2.2982-13.109-5.1331" stop-color="#000000" style="paint-order:stroke fill markers"/>
   <path d="m35.137 16.984c4.477 1.6032 7.3708 4.1491 7.3708 7.0159 0 4.851-8.2862 8.7835-18.508 8.7835s-18.508-3.9325-18.508-8.7835c-1e-7 -2.8895 2.94-5.4532 7.4778-7.0539" stop-color="#000000" style="paint-order:stroke fill markers"/>
  </g>
 </g>
</svg>
