<?xml version="1.0" encoding="UTF-8" standalone="no"?>
<!-- Created with Inkscape (http://www.inkscape.org/) -->

<svg
   width="48"
   height="48"
   viewBox="0 0 48 48"
   version="1.1"
   id="svg5"
   inkscape:version="1.1.1 (3bf5ae0d25, 2021-09-20)"
   sodipodi:docname="secure_box.svg"
   xmlns:inkscape="http://www.inkscape.org/namespaces/inkscape"
   xmlns:sodipodi="http://sodipodi.sourceforge.net/DTD/sodipodi-0.dtd"
   xmlns="http://www.w3.org/2000/svg"
   xmlns:svg="http://www.w3.org/2000/svg">
  <sodipodi:namedview
     id="namedview7"
     pagecolor="#505050"
     bordercolor="#eeeeee"
     borderopacity="1"
     inkscape:pageshadow="0"
     inkscape:pageopacity="0"
     inkscape:pagecheckerboard="0"
     inkscape:document-units="px"
     showgrid="false"
     units="px"
     inkscape:object-paths="true"
     inkscape:snap-intersection-paths="true"
     inkscape:zoom="11.313709"
     inkscape:cx="7.7715364"
     inkscape:cy="31.257963"
     inkscape:window-width="1884"
     inkscape:window-height="1025"
     inkscape:window-x="15"
     inkscape:window-y="34"
     inkscape:window-maximized="1"
     inkscape:current-layer="layer1" />
  <defs
     id="defs2">
    <style
       id="style997">.a{fill:none;stroke:#fff;stroke-linecap:round;stroke-linejoin:round;}</style>
    <style
       id="style23747">.a{fill:none;stroke:#fff;stroke-linecap:round;stroke-linejoin:round;}</style>
  </defs>
  <g
     inkscape:label="Layer 1"
     inkscape:groupmode="layer"
     id="layer1">
    <g
       id="g21929"
       transform="matrix(0.98911126,0,0,0.98911195,0.03378332,0.44680893)"
       style="stroke-width:1.01101">
      <path
         id="path855"
         style="fill:none;stroke:#ffffff;stroke-width:1.01101;stroke-linecap:round;stroke-linejoin:round;stroke-miterlimit:10;paint-order:stroke fill markers;stop-color:#000000"
         d="m 11.721527,18.110086 c 1.835209,-5.058353 6.683393,-8.6720102 12.375591,-8.6720102 3.76327,0 7.15763,1.5794932 9.530557,4.0474752 m 2.721799,4.873911 c 0.130851,0.671849 3.858737,11.104685 1.948357,24.136896"
         sodipodi:nodetypes="csccc" />
      <path
         id="circle937"
         style="fill:none;stroke:#ffffff;stroke-width:1.01101;stroke-linecap:round;stroke-linejoin:round;stroke-miterlimit:10;paint-order:stroke fill markers;stop-color:#000000"
         d="M 15.748017,7.1729475 C 12.371699,8.9389417 9.6242125,11.742251 7.9292178,15.158352 M 36.378222,9.9558982 c 1.317806,1.0744128 2.458334,2.5677018 3.408615,4.4192168"
         sodipodi:nodetypes="cccc" />
      <path
         id="circle939"
         style="fill:none;stroke:#ffffff;stroke-width:1.01101;stroke-linecap:round;stroke-linejoin:round;stroke-miterlimit:10;paint-order:stroke fill markers;stop-color:#000000"
         d="M 5.526392,9.9301324 C 6.6904772,8.2995284 8.0639701,6.8287025 9.6075955,5.5569295 M 38.472149,5.4632259 c 1.518011,1.2343041 2.874184,2.6599666 4.031767,4.2402362"
         sodipodi:nodetypes="cccc" />
      <path
         style="fill:none;stroke:#ffffff;stroke-width:1.01101px;stroke-linecap:round;stroke-linejoin:round;stroke-opacity:1"
         d="m 10.940048,23.485726 c 0,0 0.469984,4.584179 0.388327,10.184295 m -0.327707,6.05512 c -0.09354,0.934177 -0.209991,1.862697 -0.353472,2.771217"
         id="path1049"
         sodipodi:nodetypes="cccc" />
      <path
         style="fill:none;stroke:#ffffff;stroke-width:1.01101px;stroke-linecap:round;stroke-linejoin:round;stroke-opacity:1"
         d="m 15.205207,42.496358 c 0.338707,-1.491396 0.468237,-2.999969 0.585326,-4.51669 m 18.319691,-0.01695 c -0.06435,1.430302 -0.172259,2.942826 -0.334455,4.533637"
         id="path1051"
         sodipodi:nodetypes="cccc" />
      <path
         style="fill:none;stroke:#ffffff;stroke-width:1.01101px;stroke-linecap:round;stroke-linejoin:round;stroke-opacity:1"
         d="m 19.763443,40.051289 c 0.05024,-0.69998 0.09101,-1.402267 0.139792,-2.092339 m 9.459883,2.23303 c -0.06938,0.796944 -0.155262,1.578919 -0.235839,2.304378"
         id="path1055"
         sodipodi:nodetypes="cccc" />
      <path
         style="fill:none;stroke:#ffffff;stroke-width:1.01101px;stroke-linecap:round;stroke-linejoin:round;stroke-opacity:1"
         d="m 24.687933,37.998687 c -0.02496,0.897143 -0.06638,1.790074 -0.128062,2.663039 -0.04163,0.589129 -0.156005,1.26853 -0.217257,1.834632"
         id="path1059"
         sodipodi:nodetypes="csc" />
      <path
         id="path14053"
         style="fill:none;stroke:#ffffff;stroke-width:1.01101;stroke-linecap:round;stroke-linejoin:round;stroke-miterlimit:10;paint-order:stroke fill markers;stop-color:#000000"
         d="m 19.544181,16.946644 c 0,-2.460881 1.994938,-4.455819 4.455819,-4.455819 2.460881,0 4.455819,1.994938 4.455819,4.455819 v 2.387935"
         sodipodi:nodetypes="csc" />
      <rect
         style="fill:none;stroke:#ffffff;stroke-width:1.01101;stroke-linecap:round;stroke-linejoin:round;stroke-miterlimit:10;paint-order:stroke fill markers;stop-color:#000000"
         id="rect14441"
         width="17.085285"
         height="15.951982"
         x="15.457357"
         y="19.504301"
         ry="1.5845" />
      <path
         style="fill:none;stroke:#ffffff;stroke-width:1.01101px;stroke-linecap:butt;stroke-linejoin:miter;stroke-opacity:1"
         d="m 19.544181,16.946644 v 2.557657"
         id="path14636" />
      <circle
         style="fill:none;stroke:#ffffff;stroke-width:1.01101;stroke-linecap:round;stroke-linejoin:round;stroke-miterlimit:10;paint-order:stroke fill markers;stop-color:#000000"
         id="path14693"
         cx="24"
         cy="26.855469"
         r="2.2799873" />
    </g>
    <path
       class="a"
       d="M 40.5,5.5 H 7.5000001 a 2,2 0 0 0 -2,2 v 33 a 2,2 0 0 0 2,2 H 40.5 a 2,2 0 0 0 2,-2 v -33 a 2,2 0 0 0 -2,-2 z"
       id="path23751" />
  </g>
</svg>
