<svg width="48" height="48" version="1.1" viewBox="0 0 48 48" xmlns="http://www.w3.org/2000/svg">
 <defs>
  <style>.a{fill:none;stroke:#fff;stroke-linecap:round;stroke-linejoin:round;}</style>
  <style>.a{fill:none;stroke:#fff;stroke-linecap:round;stroke-linejoin:round;}</style>
 </defs>
 <g stroke-miterlimit="7">
  <g fill="none" stroke="#fff">
   <g stroke-linecap="round" stroke-linejoin="round">
    <path d="m11.628 18.36c1.8152-5.0033 6.6106-8.5776 12.241-8.5776 3.7223 0 7.0797 1.5623 9.4268 4.0034m2.6922 4.8208c0.12943 0.66453 3.8167 10.984 1.9271 23.874" stop-color="#000000" style="paint-order:stroke fill markers"/>
    <path d="m15.61 7.5417c-3.3396 1.7468-6.0571 4.5196-7.7337 7.8985m28.139-5.1458c1.3035 1.0627 2.4316 2.5397 3.3715 4.3711" stop-color="#000000" style="paint-order:stroke fill markers"/>
    <path d="m5.5 10.269c1.1514-1.6129 2.5099-3.0677 4.0368-4.3256m28.55-0.092683c1.5015 1.2209 2.8429 2.631 3.9879 4.1941" stop-color="#000000" style="paint-order:stroke fill markers"/>
    <g>
     <path d="m10.855 23.677s0.46487 4.5343 0.3841 10.073m-0.32414 5.9892c-0.09252 0.924-0.2077 1.8424-0.34962 2.741"/>
     <path d="m15.073 42.48c0.33502-1.4752 0.46314-2.9673 0.57895-4.4675m18.12-0.01676c-0.06365 1.4147-0.17038 2.9108-0.33081 4.4843"/>
     <path d="m19.582 40.062c0.04969-0.69236 0.09002-1.387 0.13827-2.0696m9.3569 2.2087c-0.06863 0.78827-0.15357 1.5617-0.23327 2.2793"/>
     <path d="m24.453 38.032c-0.02469 0.88738-0.06566 1.7706-0.12667 2.634-0.04118 0.58272-0.15431 1.2547-0.21489 1.8147"/>
    </g>
    <path d="m19.365 17.209c0-2.4341 1.9732-4.4073 4.4073-4.4073 2.4341 0 4.4073 1.9732 4.4073 4.4073v2.3619" stop-color="#000000" style="paint-order:stroke fill markers"/>
    <rect x="15.323" y="19.739" width="16.899" height="15.778" ry="1.5672" stop-color="#000000" style="paint-order:stroke fill markers"/>
   </g>
   <path d="m19.365 17.209v2.5298"/>
   <ellipse cx="23.772" cy="27.01" rx="2.2552" ry="2.2552" stop-color="#000000" stroke-linecap="round" stroke-linejoin="round" style="paint-order:stroke fill markers"/>
  </g>
  <path class="a" d="m40.5 5.5h-33a2 2 0 0 0-2 2v33a2 2 0 0 0 2 2h33a2 2 0 0 0 2-2v-33a2 2 0 0 0-2-2z"/>
 </g>
</svg>
