<?xml version="1.0" encoding="UTF-8" standalone="no"?>
<!-- Created with Inkscape (http://www.inkscape.org/) -->

<svg
   width="48"
   height="48"
   viewBox="0 0 48 48.000002"
   version="1.1"
   id="svg5"
   inkscape:version="1.1.1 (3bf5ae0, 2021-09-20)"
   sodipodi:docname="sheepy_horn.svg"
   xmlns:inkscape="http://www.inkscape.org/namespaces/inkscape"
   xmlns:sodipodi="http://sodipodi.sourceforge.net/DTD/sodipodi-0.dtd"
   xmlns="http://www.w3.org/2000/svg"
   xmlns:svg="http://www.w3.org/2000/svg">
  <sodipodi:namedview
     id="namedview7"
     pagecolor="#505050"
     bordercolor="#eeeeee"
     borderopacity="1"
     inkscape:pageshadow="0"
     inkscape:pageopacity="0"
     inkscape:pagecheckerboard="0"
     inkscape:document-units="px"
     showgrid="false"
     units="px"
     inkscape:zoom="4.8604938"
     inkscape:cx="-8.9497079"
     inkscape:cy="15.739142"
     inkscape:window-width="1896"
     inkscape:window-height="1035"
     inkscape:window-x="10"
     inkscape:window-y="31"
     inkscape:window-maximized="1"
     inkscape:current-layer="layer1"
     inkscape:object-paths="true" />
  <defs
     id="defs2" />
  <g
     inkscape:label="Layer 1"
     inkscape:groupmode="layer"
     id="layer1">
    <path
       style="fill:none;stroke:#ffffff;stroke-width:1px;stroke-linecap:round;stroke-linejoin:round;stroke-opacity:1"
       d="M 7.1674546,21.998589 H 17.2658 c 0,0 1.415233,-9.687154 -5.170654,-9.563723 -6.5858868,0.12343 -4.9276914,9.563723 -4.9276914,9.563723 z"
       id="path888"
       sodipodi:nodetypes="cczc" />
    <path
       style="fill:none;stroke:#ffffff;stroke-width:1px;stroke-linecap:round;stroke-linejoin:round;stroke-opacity:1"
       d="m 14.381844,12.889396 c 0,0 -3.389785,1.283483 -1.653744,4.118257 1.736041,2.834774 4.339794,-0.221619 4.339794,-0.221619"
       id="path1303" />
    <path
       style="fill:none;stroke:#ffffff;stroke-width:1px;stroke-linecap:round;stroke-linejoin:round;stroke-opacity:1"
       d="M 25.823745,21.998589 H 35.92209 c 0,0 1.415233,-9.687154 -5.170654,-9.563723 -6.585886,0.12343 -4.927691,9.563723 -4.927691,9.563723 z"
       id="path1385"
       sodipodi:nodetypes="cczc" />
    <path
       style="fill:none;stroke:#ffffff;stroke-width:1px;stroke-linecap:round;stroke-linejoin:round;stroke-opacity:1"
       d="m 33.038134,12.889396 c 0,0 -3.389785,1.283483 -1.653744,4.118257 1.736041,2.834774 4.339794,-0.221619 4.339794,-0.221619"
       id="path1387" />
    <path
       style="fill:none;stroke:#ffffff;stroke-width:1px;stroke-linecap:round;stroke-linejoin:round;stroke-opacity:1"
       d="m 7.4425949,26.793061 c 0.217863,0.191604 29.1729701,0 29.1729701,0 0,0 1.783541,10.250359 -7.327536,12.691665 C 20.176953,41.926031 15.535417,39.202468 12.650947,34.860923 9.7664772,30.519378 9.7881364,28.628576 9.7881364,26.843099"
       id="path1422" />
    <path
       style="fill:none;stroke:#ffffff;stroke-width:1px;stroke-linecap:round;stroke-linejoin:round;stroke-opacity:1"
       d="m 19.546801,39.989601 c 0,0 0.536525,-4.780587 5.357515,-5.423472 4.820989,-0.642886 7.807811,3.341882 7.807811,3.341882"
       id="path1537" />
    <circle
       style="fill:none;stroke:#ffffff;stroke-width:1;stroke-linecap:round;stroke-linejoin:round"
       id="path1739"
       cx="24"
       cy="24"
       r="21.5" />
  </g>
</svg>
