<svg width="48" height="48" version="1.1" viewBox="0 0 48 48" xmlns="http://www.w3.org/2000/svg">
 <g fill="none" stroke="#fff" stroke-linecap="round" stroke-linejoin="round">
  <path d="m21.212 30.347c0 4.6196 4.3555 2.4108 4.689 2.2989 1.4131-0.47448 9.0331-5.3024 10.284-5.9371s5.3338-2.2748 4.9769 2.8732c-0.31331 4.5191-5.007 6.7021-4.9769 6.7268"/>
  <path d="m25.901 22.226c-1.8532 1.2998-4.689 3.5013-4.689 8.121"/>
  <path d="m10.032 13.065c0.82912-0.54989 8.0643-4.6955 12.048-6.9722 1.438-0.82184 3.7677-0.81532 5.2026 0.013068l10.673 6.1616c1.4349 0.82838 1.4261 2.156-0.01745 2.9692-3.8464 2.167-10.717 6.0641-12.037 6.9898"/>
  <path d="m22.126 32.875s-11.409-6.821-11.849-7.0982c-0.44049-0.27718-3.2362-2.317-3.4475-6.3684-0.2113-4.0515 2.052-5.5805 3.2032-6.344"/>
  <path d="m32.007 18.701 4.2419 2.4489c4.7401 2.7365 4.9164 7.3107 4.9164 7.3107"/>
  <path d="m15.351 28.785-5.977 3.1736a1.6617 1.6617 91.016 0 0-0.051538 2.9068l12.084 6.9761a5.1965 5.1965-180 0 0 5.1962 0l9.5833-5.5325"/>
 </g>
</svg>
