<svg width="48" height="48" version="1.1" viewBox="0 0 48 48" xmlns="http://www.w3.org/2000/svg">
 <g fill="none">
  <g stroke="#fff" stroke-linecap="round" stroke-linejoin="round">
   <path d="m13.647 22.573v-17.073l3.5461 3.5463h15.63l3.3067-3.307v6.6327m0 7.3523v6.9685c1e-6 6.0941-5.1036 11.034-11.197 11.034h-11.285v-2.9865" stop-color="#000000" style="paint-order:stroke fill markers"/>
   <path d="m13.647 22.419-5.7966 12.405s4.6744 2.7098 7.7773-2.6521l1.9022 0.67048s2.7727-7.4286-3.8829-10.424z"/>
   <path d="m36.13 26.693 4.0194 8.2491s-3.9178 1.8437-6.6577-1.1688"/>
   <path d="m19.082 37.727v4.7729h2.6397"/>
   <path d="m24.933 37.727v4.7729h2.6397"/>
   <path d="m29.32 21.468-3.371 1.9464v-3.8928z" stop-color="#000000" style="paint-order:stroke fill markers"/>
   <ellipse cx="20.775" cy="16.027" rx="4.7489" ry="4.7493" stop-color="#000000" style="paint-order:stroke fill markers"/>
   <ellipse cx="32.807" cy="16.027" rx="4.7489" ry="4.7493" stop-color="#000000" style="paint-order:stroke fill markers"/>
   <path d="m28.059 16.027h-2.5544m-9.4784 0h-2.3785s-2.1166 0.0021-2.1166 2.1168"/>
   <path d="m25.791 26.816c0 0.92288-0.74808 1.671-1.6709 1.671s-1.6709-0.74814-1.6709-1.671" stop-color="#000000" style="paint-order:stroke fill markers"/>
   <path d="m30.979 26.816c0 0.92288-0.74808 1.671-1.6709 1.671s-1.6709-0.74814-1.6709-1.671" stop-color="#000000" style="paint-order:stroke fill markers"/>
   <path d="m28.542 30.187c0 0.92288-0.74808 1.671-1.6709 1.671s-1.6709-0.74815-1.6709-1.671" stop-color="#000000" style="paint-order:stroke fill markers"/>
  </g>
  <circle cx="21.546" cy="14.813" r="1.1172" stop-color="#000000" style="paint-order:stroke fill markers"/>
  <circle cx="20.775" cy="16.027" r="1.777" stop-color="#000000" stroke="#fff" stroke-linecap="round" stroke-linejoin="round" style="paint-order:stroke fill markers"/>
  <circle cx="32.807" cy="16.027" r="1.777" stop-color="#000000" stroke="#fff" stroke-linecap="round" stroke-linejoin="round" style="paint-order:stroke fill markers"/>
 </g>
</svg>
