<?xml version="1.0" encoding="UTF-8"?>
<svg width="48" height="48" version="1.1" viewBox="0 0 48 48" xml:space="preserve" xmlns="http://www.w3.org/2000/svg"><g fill="none" stroke="#fff" stroke-linecap="round"><path d="m9.94 24.6c-4.7 0-4.43 4.38-4.43 4.38v5.57s-0.443 3.8 4.43 3.8v-14.8c0-7.78 6.3-14.1 14.1-14.1 7.77 0 14.1 6.31 14.1 14.1v14.8c4.87 0 4.43-3.8 4.43-3.8v-5.57s0.278-4.38-4.43-4.38" stop-color="#000000" stroke-linejoin="round"/><path d="m12.5 25.2v13.1"/><g stroke-linejoin="round"><path d="m14.9 27.8 5.27 0.842-1.89 5.98-3.38 0.0561"/><path d="m33.1 27.8-4.88 0.842 1.72 5.78 3.16 0.196"/><path d="m18.5 34s3.52 4.22 5.25 4.63"/><path d="m22.6 35c0.653 1.05 1.69 2.1 2.89 2.97"/><path d="m24.1 33.9c0.764 1.1 1.77 2.21 3.07 3.25"/><path d="m28.5 36.1s-1.85-2.55-4.34-4.38"/><path d="m27.8 29.3s-3.42-0.617-4.38-0.0281c-0.959 0.589-2.94 2.19-2.22 2.95"/><path d="m27.8 35.2 1.66-1.35"/></g><path d="m35.5 25.2v13.1"/></g></svg>
