<?xml version="1.0" encoding="UTF-8" standalone="no"?>
<!-- Created with Inkscape (http://www.inkscape.org/) -->

<svg
   width="48"
   height="48"
   viewBox="0 0 48 48.000002"
   version="1.1"
   id="svg5"
   inkscape:version="1.2 (dc2aedaf03, 2022-05-15)"
   xml:space="preserve"
   sodipodi:docname="spotube.svg"
   xmlns:inkscape="http://www.inkscape.org/namespaces/inkscape"
   xmlns:sodipodi="http://sodipodi.sourceforge.net/DTD/sodipodi-0.dtd"
   xmlns="http://www.w3.org/2000/svg"
   xmlns:svg="http://www.w3.org/2000/svg"><sodipodi:namedview
     id="namedview7"
     pagecolor="#505050"
     bordercolor="#eeeeee"
     borderopacity="1"
     inkscape:pageshadow="0"
     inkscape:pageopacity="0"
     inkscape:pagecheckerboard="0"
     inkscape:document-units="px"
     showgrid="false"
     units="px"
     inkscape:zoom="9.7209876"
     inkscape:cx="24.534544"
     inkscape:cy="21.448438"
     inkscape:window-width="1920"
     inkscape:window-height="1007"
     inkscape:window-x="0"
     inkscape:window-y="0"
     inkscape:window-maximized="1"
     inkscape:current-layer="layer1"
     inkscape:showpageshadow="0"
     inkscape:deskcolor="#505050" /><defs
     id="defs2" /><g
     inkscape:label="Layer 1"
     inkscape:groupmode="layer"
     id="layer1"><path
       style="fill:none;stroke:#ffffff;stroke-width:1;stroke-linecap:round;stroke-linejoin:round;stop-color:#000000;stroke-dasharray:none"
       d="m 9.9368256,24.571446 c -4.704312,0 -4.4265054,4.378321 -4.4265054,4.378321 v 5.56953 c 0,0 -0.4426509,3.803444 4.4265054,3.803444 V 23.495245 C 9.9368256,15.715957 16.233123,9.4096003 24,9.4096003 c 7.766876,0 14.063174,6.3063567 14.063174,14.0856447 v 14.827496 c 4.869157,0 4.426506,-3.803444 4.426506,-3.803444 v -5.56953 c 0,0 0.277806,-4.378321 -4.426506,-4.378321"
       id="path2420"
       sodipodi:nodetypes="ccccscscccc" /><path
       style="fill:none;stroke:#ffffff;stroke-width:1;stroke-linecap:round;stroke-linejoin:miter;stroke-opacity:1;stroke-dasharray:none"
       d="M 12.506149,25.211886 V 38.322741"
       id="path2422" /><path
       style="fill:none;stroke:#ffffff;stroke-width:1;stroke-linecap:round;stroke-linejoin:round;stroke-opacity:1;stroke-dasharray:none"
       d="m 14.917401,27.802694 5.272927,0.841667 -1.890725,5.975842 -3.382202,0.05611"
       id="path2979"
       sodipodi:nodetypes="cccc" /><path
       style="fill:none;stroke:#ffffff;stroke-width:1;stroke-linecap:round;stroke-linejoin:round;stroke-opacity:1;stroke-dasharray:none"
       d="m 33.082597,27.802694 -4.87785,0.841667 1.721407,5.779453 3.156443,0.196389"
       id="path2981"
       sodipodi:nodetypes="cccc" /><path
       style="fill:none;stroke:#ffffff;stroke-width:1;stroke-linecap:round;stroke-linejoin:round;stroke-opacity:1;stroke-dasharray:none"
       d="m 18.508251,33.960748 c 0,0 3.520193,4.22303 5.246911,4.631511"
       id="path2983"
       sodipodi:nodetypes="cc" /><path
       style="fill:none;stroke:#ffffff;stroke-width:1;stroke-linecap:round;stroke-linejoin:round;stroke-opacity:1;stroke-dasharray:none"
       d="m 22.64545,34.956871 c 0.653253,1.049092 1.693274,2.102922 2.885373,2.969828"
       id="path2985"
       sodipodi:nodetypes="cc" /><path
       style="fill:none;stroke:#ffffff;stroke-width:1;stroke-linecap:round;stroke-linejoin:round;stroke-opacity:1;stroke-dasharray:none"
       d="m 24.147586,33.94687 c 0.763613,1.104648 1.774671,2.209678 3.074934,3.254448"
       id="path2987"
       sodipodi:nodetypes="cc" /><path
       style="fill:none;stroke:#ffffff;stroke-width:1;stroke-linecap:round;stroke-linejoin:round;stroke-opacity:1;stroke-dasharray:none"
       d="m 28.486945,36.079095 c 0,0 -1.84953,-2.55306 -4.339359,-4.376674"
       id="path2989" /><path
       style="fill:none;stroke:#ffffff;stroke-width:1;stroke-linecap:round;stroke-linejoin:round;stroke-opacity:1;stroke-dasharray:none"
       d="m 27.788051,29.345752 c 0,0 -3.421194,-0.617223 -4.380667,-0.02806 -0.959472,0.589167 -2.940315,2.188335 -2.217983,2.945837"
       id="path2991" /><path
       style="fill:none;stroke:#ffffff;stroke-width:1;stroke-linecap:round;stroke-linejoin:round;stroke-opacity:1;stroke-dasharray:none"
       d="m 27.788051,35.15326 1.658368,-1.347618"
       id="path2993" /><path
       style="fill:none;stroke:#ffffff;stroke-width:1;stroke-linecap:round;stroke-linejoin:miter;stroke-opacity:1;stroke-dasharray:none"
       d="M 35.493851,25.211886 V 38.322741"
       id="path3035" /></g></svg>
