<svg width="48" height="48" version="1.1" viewBox="0 0 48 48" xmlns="http://www.w3.org/2000/svg">
 <g transform="matrix(1.1962 0 0 1.199 -4.7856 -4.7351)" fill="none" stroke="#fff" stroke-width=".83501">
  <g stroke-linecap="round" stroke-linejoin="round">
   <path d="m6.0907 19.665c5.4029-4.619 12.417-7.4082 20.082-7.4082 5.8001 0 11.227 1.597 15.866 4.3752" stop-color="#000000" style="paint-order:stroke fill markers"/>
   <path d="m39.879 21.966c-4.1304-2.0458-8.7834-3.1958-13.705-3.196-4.253 0.01175-8.4578 0.90072-12.352 2.6113 2.0516-0.4504 4.1438-0.69057 6.2441-0.7168 6.1423-1.28e-4 11.866 1.7907 16.678 4.8787" stop-color="#000000" style="paint-order:stroke fill markers"/>
   <path d="m15.286 30.183c4.0841-2.3071 7.5489-3.668 12.538-3.9023-2.0768-0.43985-4.2277-0.67578-6.4355-0.67578-4.6157 0-7.7929 0.96421-11.727 2.7774" stop-color="#000000" style="paint-order:stroke fill markers"/>
   <path d="m17.707 35.675c4.7055-2.8935 10.245-4.5622 16.174-4.5622 0.38958 0 0.77748 0.0072 1.1636 0.02149" stop-color="#000000" style="paint-order:stroke fill markers"/>
  </g>
  <g>
   <path d="m6.0907 19.665 3.5714 8.7181"/>
   <path d="m42.039 16.632-2.16 5.3339"/>
   <path d="m36.76 25.558-1.6716 5.5785"/>
   <path d="m15.286 30.183 2.4203 5.4912"/>
  </g>
 </g>
</svg>
