<svg width="48" height="48" version="1.1" viewBox="0 0 48 48" xmlns="http://www.w3.org/2000/svg">
 <path d="m25.732 7.4819 19.083 11.031a1.1561 1.1561 0 0 1 0 2.0019l-19.083 11.031a3.4663 3.4663 0 0 0-1.7315 3.0009v4.9715a1.154 1.154 0 0 0 1.7315 0.99906l7.9755-4.6104a3.4663 3.4663 0 0 0 1.7315-3.0009v-5.0829a3.4663 3.4663 0 0 0-1.7315-3.0009l-7.9755-4.6104a3.4663 3.4663 0 0 1-1.7315-3.0009v-8.7306a1.154 1.154 0 0 1 1.7315-0.99906zm-3.463 0-19.083 11.031a1.1561 1.1561 0 0 0 1e-7 2.0019l19.083 11.031a3.4663 3.4663 0 0 1 1.7315 3.0009v4.9715a1.154 1.154 0 0 1-1.7315 0.99906l-7.9755-4.6104a3.4663 3.4663 0 0 1-1.7315-3.0009v-5.0829a3.4663 3.4663 0 0 1 1.7315-3.0009l7.9755-4.6104a3.4663 3.4663 0 0 0 1.7315-3.0009v-8.7306a1.154 1.154 0 0 0-1.7315-0.99906z" fill="none" stroke="#fff" stroke-width="1px"/>
</svg>
