<?xml version="1.0" encoding="UTF-8" standalone="no"?>
<!-- Created with Inkscape (http://www.inkscape.org/) -->

<svg
   width="48"
   height="48"
   viewBox="0 0 48 48.000002"
   version="1.1"
   id="svg5"
   inkscape:version="1.2.1 (9c6d41e410, 2022-07-14)"
   xml:space="preserve"
   sodipodi:docname="subwaytooter.svg"
   xmlns:inkscape="http://www.inkscape.org/namespaces/inkscape"
   xmlns:sodipodi="http://sodipodi.sourceforge.net/DTD/sodipodi-0.dtd"
   xmlns="http://www.w3.org/2000/svg"
   xmlns:svg="http://www.w3.org/2000/svg"><sodipodi:namedview
     id="namedview7"
     pagecolor="#505050"
     bordercolor="#eeeeee"
     borderopacity="1"
     inkscape:pageshadow="0"
     inkscape:pageopacity="0"
     inkscape:pagecheckerboard="0"
     inkscape:document-units="px"
     showgrid="false"
     units="px"
     inkscape:zoom="9.7209876"
     inkscape:cx="-1.9545339"
     inkscape:cy="11.778639"
     inkscape:window-width="1916"
     inkscape:window-height="1050"
     inkscape:window-x="0"
     inkscape:window-y="26"
     inkscape:window-maximized="1"
     inkscape:current-layer="layer1"
     inkscape:showpageshadow="0"
     inkscape:deskcolor="#505050" /><defs
     id="defs2" /><g
     inkscape:label="Layer 1"
     inkscape:groupmode="layer"
     id="layer1"><path
       style="fill:none;stroke:#ffffff;stroke-width:1px;stroke-linecap:round;stroke-linejoin:round;stroke-opacity:1"
       d="m 20.046921,7.7196636 c 0,0 -0.671471,-1.5321006 0.559921,-3.0434714 1.231393,-1.5113707 2.478565,-0.4890118 2.478565,-0.4890118 0,0 0.702647,-1.038651 2.387627,-0.9944464 1.68498,0.044204 3.062216,1.1065322 3.062216,1.1065322 0,0 -1.353136,-2.0174719 0.515407,-1.7803175 1.868544,0.2371544 1.168436,1.5965801 1.168436,1.5965801 0,0 0.483341,-1.4165592 1.764914,-1.1730631 1.281573,0.2434961 0.429241,1.7528299 0.429241,1.7528299 0,0 1.605229,-0.059183 3.26941,0.7548491 1.664182,0.8140317 1.162013,2.9146789 1.162013,2.9146789 0,0 1.306301,-0.6911438 2.497814,0.4495606 1.191512,1.1407043 0.591969,2.9152968 0.591969,2.9152968 0,0 1.681407,-0.03582 1.532196,2.25382 -0.149211,2.289646 -2.412558,1.466142 -2.412558,1.466142 0,0 -0.60193,1.052963 -1.879184,1.096619 -1.277254,0.04366 -1.972811,-0.94858 -1.972811,-0.94858 0,0 -1.516336,0.570507 -3.069608,-0.109776 -1.553272,-0.680288 -2.187518,-1.811665 -2.187518,-1.811665 0,0 -1.534509,0.542841 -3.489116,0.100186 -1.954606,-0.442669 -1.627586,-1.802461 -1.627586,-1.802461 0,0 -1.064463,0.651797 -1.865167,0.309433 -0.800704,-0.342365 -0.547447,-1.764793 -0.547447,-1.764793 0,0 -1.252863,-0.122752 -1.889088,-0.8009027 C 19.890341,9.0395534 20.046921,7.7196636 20.046921,7.7196636 Z"
       id="path312" /><path
       style="fill:none;stroke:#ffffff;stroke-width:1px;stroke-linecap:round;stroke-linejoin:round;stroke-opacity:1"
       d="m 20.072941,8.0579121 c 0,0 -6.042408,0.5378928 -9.169281,7.0103909 -3.1268733,6.472498 6.196198,11.954579 12.380395,3.617485"
       id="path922" /><path
       style="fill:none;stroke:#ffffff;stroke-width:1px;stroke-linecap:round;stroke-linejoin:round;stroke-opacity:1"
       d="m 37.886977,16.435062 c 1.049478,2.33542 -0.877028,5.077098 -0.877028,5.077098 0,0 0.797538,0.44506 2.216765,0.76569 1.419227,0.320631 2.252262,0.0974 2.252262,0.0974 0,0 0.576888,0.863021 -0.507718,3.170808 -1.084605,2.307787 -4.339662,2.8118 -10.341574,0.229813"
       id="path924"
       sodipodi:nodetypes="ccscsc" /><path
       style="fill:none;stroke:#ffffff;stroke-width:1px;stroke-linecap:round;stroke-linejoin:round;stroke-opacity:1"
       d="m 32.257214,26.492743 c 0,0 1.019217,0.94013 1.130578,2.646822 0.111359,1.706692 -0.353378,2.418301 -0.353378,2.418301 0,0 -0.593487,-0.510303 -0.43141,0.89837"
       id="path926" /><path
       style="fill:none;stroke:#ffffff;stroke-width:1px;stroke-linecap:round;stroke-linejoin:round;stroke-opacity:1"
       d="m 13.937165,22.581828 c -2.437983,4.763263 -5.00236,4.080784 -5.00236,4.080784 0,0 0.4296952,0.63924 0.9789745,0.969445 0.5492775,0.330203 1.0019065,0.07256 1.0019065,0.07256 0,0 -0.825663,0.67205 -1.2426029,1.534048 -0.4169398,0.861998 -0.085887,1.055296 -0.085887,1.055296 0,0 -1.3063724,0.66621 -2.1460195,2.064077 C 6.60153,33.755906 6.3149402,37.03998 6.3149402,37.03998 l 0.7552911,-0.633036 c 0,0 -0.3323389,0.889305 0.2807626,3.429261 0.6131014,2.539955 2.4059944,2.843822 2.4059944,2.843822 l 0.2767367,-0.635891 c 0,0 0.412106,1.073025 1.046744,1.590906 0.634638,0.51788 1.124366,0.415166 1.124366,0.415166 l 0.70372,-0.877058 c 0,0 1.30414,1.532336 8.032977,2.129412 6.728837,0.597076 10.892863,-0.324176 11.345146,-0.606564 0.452283,-0.282389 1.745843,-1.468711 1.934904,-3.905146 0.189062,-2.436435 -1.10728,-2.163621 -2.761867,-1.92762 -1.654586,0.236 -4.934976,-1.53617 -6.662156,-3.689515"
       id="path928" /><path
       style="fill:none;stroke:#ffffff;stroke-width:1px;stroke-linecap:round;stroke-linejoin:round;stroke-opacity:1"
       d="m 30.240142,30.672975 c 0,0 1.834718,1.735925 3.480991,2.364529 1.646272,0.628603 1.69439,0.742449 1.06693,3.212857 -0.62746,2.470409 -4.913701,4.711065 -10.029117,-1.109999"
       id="path930" /><path
       style="fill:none;stroke:#ffffff;stroke-width:1px;stroke-linecap:round;stroke-linejoin:round;stroke-opacity:1"
       d="m 33.637249,29.137528 10.454936,6.498258 -3.902842,4.851839 -5.651562,-3.493839"
       id="path307" /><path
       style="fill:none;stroke:#ffffff;stroke-width:1px;stroke-linecap:round;stroke-linejoin:round;stroke-opacity:1"
       d="m 6.4645113,35.035375 c 0,0 -2.3067725,0.929394 -2.5203261,3.701247 -0.2135536,2.771854 0.6345879,1.239819 0.6345879,1.239819 0,0 -0.3162686,1.809074 0.6399097,2.536993 0.9561783,0.727919 1.1041127,-0.505384 1.1041127,-0.505384 0,0 0.6797758,1.044498 1.2490587,1.266514 0.5692827,0.222016 0.158245,-0.71677 0.158245,-0.71677 0,0 0.9503665,0.617193 1.3866297,0.09337"
       id="path309" /><path
       style="fill:none;stroke:#ffffff;stroke-width:1px;stroke-linecap:round;stroke-linejoin:round;stroke-opacity:1"
       d="m 22.345073,12.039996 c 0,0 -0.578053,0.170658 -0.545457,1.317032 0.0326,1.146376 1.022261,1.535103 1.022261,1.535103 0,0 -0.761435,0.518689 -0.723572,1.110248 0.03786,0.591561 0.935025,0.992886 0.935025,0.992886 0,0 -0.652902,0.587292 -0.08611,1.390135 0.566797,0.802843 1.459058,0.719108 1.459058,0.719108"
       id="path311" /><path
       style="fill:none;stroke:#ffffff;stroke-width:1px;stroke-linecap:round;stroke-linejoin:round;stroke-opacity:1"
       d="m 21.580998,12.918406 c 0,0 -3.132716,-0.636106 -6.56106,2.801987 -3.428344,3.438093 -2.001206,6.443733 -1.083339,6.986106"
       id="path313" /><path
       style="fill:none;stroke:#ffffff;stroke-width:1px;stroke-linecap:round;stroke-linejoin:round;stroke-opacity:1"
       d="m 31.070531,24.150449 -2.301479,-4.383797 c 0,0 -1.372617,2.032572 -1.027031,4.636662 0.345585,2.604091 3.824465,1.934453 3.32851,-0.252865 z"
       id="path315" /><path
       style="fill:none;stroke:#ffffff;stroke-width:1px;stroke-linecap:round;stroke-linejoin:round;stroke-opacity:1"
       d="m 38.583288,23.991292 0.837335,-1.596191"
       id="path319" /><path
       style="fill:none;stroke:#ffffff;stroke-width:1px;stroke-linecap:round;stroke-linejoin:round;stroke-opacity:1"
       d="m 37.797754,22.129391 c 0,0 -0.193043,0.920437 -0.819797,1.201543"
       id="path375" /><path
       style="fill:none;stroke:#ffffff;stroke-width:1px;stroke-linecap:round;stroke-linejoin:round;stroke-opacity:1"
       d="m 31.208861,20.451356 0.192878,-0.225502"
       id="path377" /><path
       style="fill:none;stroke:#ffffff;stroke-width:1px;stroke-linecap:round;stroke-linejoin:round;stroke-opacity:1"
       d="m 40.106303,33.444118 -2.066674,2.806265 3.48935,2.369926"
       id="path937" /><path
       style="fill:none;stroke:#ffffff;stroke-width:1px;stroke-linecap:round;stroke-linejoin:round;stroke-opacity:1"
       d="m 40.487064,15.887188 c 0,0 1.035263,1.491172 0.289981,2.443523 -0.745282,0.95235 -1.178931,0.586359 -1.178931,0.586359 0,0 0.642176,0.577474 0.323012,1.049014 -0.319166,0.471538 -1.120383,0.395215 -1.120383,0.395215 0,0 0.447288,1.553225 -1.119296,1.138087"
       id="path993" /><path
       style="fill:none;stroke:#ffffff;stroke-width:1px;stroke-linecap:round;stroke-linejoin:round;stroke-opacity:1"
       d="m 40.676317,22.317279 c 0,0 0.969059,-1.696071 0.0113,-3.729655"
       id="path995"
       sodipodi:nodetypes="cc" /><path
       style="fill:none;stroke:#ffffff;stroke-width:1px;stroke-linecap:butt;stroke-linejoin:miter;stroke-opacity:1"
       d="m 33.787987,43.248466 c 0,0 3.156708,0.124604 2.359763,-5.209602"
       id="path1151"
       sodipodi:nodetypes="cc" /></g></svg>
