<?xml version="1.0" encoding="UTF-8" standalone="no"?>
<!-- Created with Inkscape (http://www.inkscape.org/) -->

<svg
   width="48"
   height="48"
   viewBox="0 0 48 48.000002"
   version="1.1"
   id="svg5"
   inkscape:version="1.2.1 (9c6d41e410, 2022-07-14)"
   xml:space="preserve"
   sodipodi:docname="tusky.svg"
   xmlns:inkscape="http://www.inkscape.org/namespaces/inkscape"
   xmlns:sodipodi="http://sodipodi.sourceforge.net/DTD/sodipodi-0.dtd"
   xmlns="http://www.w3.org/2000/svg"
   xmlns:svg="http://www.w3.org/2000/svg"><sodipodi:namedview
     id="namedview7"
     pagecolor="#505050"
     bordercolor="#eeeeee"
     borderopacity="1"
     inkscape:pageshadow="0"
     inkscape:pageopacity="0"
     inkscape:pagecheckerboard="0"
     inkscape:document-units="px"
     showgrid="false"
     units="px"
     inkscape:zoom="13.747552"
     inkscape:cx="18.912457"
     inkscape:cy="20.403632"
     inkscape:window-width="1916"
     inkscape:window-height="1050"
     inkscape:window-x="0"
     inkscape:window-y="26"
     inkscape:window-maximized="1"
     inkscape:current-layer="layer1"
     inkscape:showpageshadow="0"
     inkscape:deskcolor="#505050" /><defs
     id="defs2"><style
       id="style530">.a{fill:none;stroke:#fff;stroke-linecap:round;stroke-linejoin:round;}</style></defs><g
     inkscape:label="Layer 1"
     inkscape:groupmode="layer"
     id="layer1"><path
       style="fill:none;stroke:#ffffff;stroke-width:1px;stroke-linecap:round;stroke-linejoin:round;stroke-opacity:1"
       d="m 7.5843412,37.811051 c 1.6214956,-2.956894 2.6971068,-3.494133 2.6971068,-3.494133 m 19.234691,0.02203 c -0.918707,1.170177 -0.780912,3.915256 0.336589,5.828866 0.603702,1.03378 1.189682,2.650579 1.600902,3.918773"
       id="path362"
       sodipodi:nodetypes="cccsc" /><path
       style="fill:none;stroke:#ffffff;stroke-width:1px;stroke-linecap:round;stroke-linejoin:round;stroke-opacity:1"
       d="m 24.295497,26.626312 c 0,0 -2.148182,-2.053746 -0.820266,-3.412485 1.593289,-1.630272 3.067077,0.905254 3.440515,1.58605"
       id="path460"
       sodipodi:nodetypes="csc" /><path
       style="fill:none;stroke:#ffffff;stroke-width:1px;stroke-linecap:round;stroke-linejoin:round;stroke-opacity:1"
       d="m 18.631777,30.506628 c 0,0 2.246609,5.391653 0.149458,6.324163 -2.097151,0.932511 -2.754131,-2.132196 -2.754131,-2.132196 0.02445,0.763359 -0.384729,2.176513 -1.483706,2.098281 -1.346964,-0.09588 -1.56354,-2.119003 -1.557956,-3.156102 -2.526783,4.951629 -4.0850054,-2.07104 -2.182536,-7.326604 0.781203,-2.989885 2.211491,-5.065415 2.211491,-5.065415 0,0 -1.703524,-2.312216 -0.755113,-3.109249 0.948411,-0.797034 1.201115,0.400152 1.201115,0.400152 0,0 0.0725,-2.802412 1.21253,-2.861912 1.140024,-0.0595 0.857343,1.345487 0.857343,1.345487 0,0 0.682086,-1.103978 1.477216,-0.804419 0.79513,0.299558 0.3003,1.538165 0.3003,1.538165 0,0 3.882463,-1.792293 7.825561,0.130206 3.943098,1.922499 3.193289,6.535388 5.104362,5.802714 1.911073,-0.732674 -0.323424,-3.126097 -1.042604,-3.913821 -0.71918,-0.787725 -1.826348,-3.293127 0.145969,-5.179894 l 0.935469,1.694305 1.498107,-0.306807 c 0,0 -1.405597,2.439181 1.008218,3.431898 2.413814,0.992717 4.204163,4.132486 3.958813,7.270209 -0.108746,1.390731 -1.34595,2.802107 -2.769912,4.044506"
       id="path462"
       sodipodi:nodetypes="cscscccscscscssscccssc" /><path
       style="fill:none;stroke:#ffffff;stroke-width:1px;stroke-linecap:round;stroke-linejoin:round;stroke-opacity:1"
       d="m 33.776252,27.532515 c 0,0 -1.309218,3.287655 -5.346093,3.160645 -1.59581,-0.05021 -2.764064,0.906047 -2.567423,2.280238 0.213966,1.495267 1.827237,1.711538 3.574139,1.3602 4.122058,-0.82903 5.085345,-3.777327 4.339377,-6.801083 z"
       id="path464"
       sodipodi:nodetypes="csssc" /><path
       style="fill:none;stroke:#ffffff;stroke-width:1px;stroke-linecap:round;stroke-linejoin:round;stroke-opacity:1"
       d="m 22.062488,42.232144 c 0,0 1.223165,1.620206 1.403016,3.186673 m -4.868448,-0.599563 c -0.346749,-1.304259 -0.75946,-2.566736 -1.880176,-2.890355 -1.143823,-0.330291 -2.193883,0.182335 -3.031726,0.896475"
       id="path466"
       sodipodi:nodetypes="cccsc" /><path
       style="fill:none;stroke:#ffffff;stroke-width:1px;stroke-linecap:round;stroke-linejoin:round;stroke-opacity:1"
       d="M 28.776936,12.274764 26.174609,9.4781637 28.489341,8.4848095 Z"
       id="path468" /><path
       style="fill:none;stroke:#ffffff;stroke-width:1px;stroke-linecap:round;stroke-linejoin:round;stroke-opacity:1"
       d="M 31.881964,12.372666 31.989161,8.5540814 34.335642,9.469921 Z"
       id="path470" /><path
       style="fill:none;stroke:#ffffff;stroke-width:1px;stroke-linecap:round;stroke-linejoin:round;stroke-opacity:1"
       d="m 34.346385,14.280324 2.683771,-2.71854 1.090586,2.270542 z"
       id="path472" /><circle
       class="a"
       cx="24"
       cy="24"
       r="21.5"
       id="circle534"
       style="stroke-linejoin:round;stroke-linecap:round" /></g></svg>
