<svg width="48" height="48" version="1.1" viewBox="0 0 48 48" xmlns="http://www.w3.org/2000/svg">
 <defs>
  <style>.a{fill:none;stroke:#fff;stroke-linecap:round;stroke-linejoin:round;}</style>
 </defs>
 <path class="a" d="m8.4 6.5v35a2 2 0 0 0 2 2h2.33v-39h-2.33a2 2 0 0 0-2 2z"/>
 <path class="a" d="m12.73 4.5v39h24.87a2 2 0 0 0 2-2v-35a2 2 0 0 0-2-2z"/>
 <g transform="translate(0 1.5192)">
  <ellipse class="st1" cx="25.523" cy="30.672" rx=".75" ry=".68377"/>
  <path class="st0" d="m19.584 19.485c0-1.467 0.53638-2.9341 1.6091-3.9121 1.0728-0.97803 2.4137-1.467 4.291-1.467 3.2183 0 5.9002 2.4451 5.9002 5.3791 0 1.467-0.53638 2.9341-1.6091 3.9121-1.3409 0.97803-4.291 2.4451-4.291 4.6456"/>
 </g>
 <style type="text/css">.st0{fill:none;stroke:#FFFFFF;stroke-linecap:round;stroke-linejoin:round;stroke-miterlimit:10;}
	.st1{fill:#FFFFFF;}
	.st2{fill:none;stroke:#FFFFFF;stroke-width:0.9976;stroke-linecap:round;stroke-linejoin:round;stroke-miterlimit:10;}
	.st3{fill:none;stroke:#FFFFFF;stroke-width:0.9965;stroke-linecap:round;stroke-linejoin:round;stroke-miterlimit:10;}
	.st4{fill:none;stroke:#FFFFFF;stroke-width:0.8662;stroke-linecap:round;stroke-linejoin:round;stroke-miterlimit:10;}</style>
</svg>
