<?xml version="1.0" encoding="UTF-8" standalone="no"?>
<!-- Created with Inkscape (http://www.inkscape.org/) -->

<svg
   width="48"
   height="48"
   viewBox="0 0 48 48"
   version="1.1"
   id="svg5"
   inkscape:version="1.1.1 (3bf5ae0d25, 2021-09-20)"
   sodipodi:docname="zdfheute.svg"
   xmlns:inkscape="http://www.inkscape.org/namespaces/inkscape"
   xmlns:sodipodi="http://sodipodi.sourceforge.net/DTD/sodipodi-0.dtd"
   xmlns="http://www.w3.org/2000/svg"
   xmlns:svg="http://www.w3.org/2000/svg">
  <sodipodi:namedview
     id="namedview7"
     pagecolor="#505050"
     bordercolor="#eeeeee"
     borderopacity="1"
     inkscape:pageshadow="0"
     inkscape:pageopacity="0"
     inkscape:pagecheckerboard="0"
     inkscape:document-units="px"
     showgrid="false"
     units="px"
     inkscape:zoom="7.3333333"
     inkscape:cx="2.9318182"
     inkscape:cy="30.068182"
     inkscape:window-width="1874"
     inkscape:window-height="1015"
     inkscape:window-x="20"
     inkscape:window-y="39"
     inkscape:window-maximized="1"
     inkscape:current-layer="layer1" />
  <defs
     id="defs2">
	

	
	
	
	
	
	
	
	
	
	
	
	
	
	
	
	
	
	
	
	
	
	
	
	
	
	
	
	
	
	
	
	
	
	
	
	
	
	
	
	
	
	
	
	
	
	
	
	
	
	
	
	
	
	
	
	
	
	
	
	
	
	
	
	
	
	
	
	
	
	
	
	
	
	
	
	
	
	
	
	
	
	
	
	
	
	
	
	
	
	
	
	
	
	
	
	
	
	
	
	
	
	
	
	
	
	
	
	
	
	
	
	
	
	
	
	
	
	
	
	
	
	
	
	
	
	
	
	
	
<style
   id="style7482">.a{fill:none;stroke:#fff;stroke-linecap:round;stroke-linejoin:round;}</style>
</defs>
  <g
     inkscape:label="Layer 1"
     inkscape:groupmode="layer"
     id="layer1">
    <g
       id="g7358"
       transform="translate(-80.074644,-19.518784)">
      <g
         id="g5447"
         transform="translate(-160.05853,-74.564925)">
		<path
   class="st0"
   d="m 263.2,121.2 v 3.3 c 0,1.1 0.9,2 2,2 v 0 c 1.1,0 2,-0.9 2,-2 v -3.3"
   id="path5443" />

		<line
   class="st0"
   x1="267.20001"
   y1="124.5"
   x2="267.20001"
   y2="126.5"
   id="line5445" />

	</g>
      <g
         id="g5465"
         transform="translate(-39.582939,-74.564925)">
		<line
   class="st0"
   x1="129.2"
   y1="118.5"
   x2="129.2"
   y2="126.5"
   id="line5461" />

		<path
   class="st0"
   d="m 129.2,123.2 c 0,-1.1 0.9,-2 2,-2 v 0 c 1.1,0 2,0.9 2,2 v 3.3"
   id="path5463" />

	</g>
      <polyline
         class="st0"
         points="317.2,121.2 321.2,121.2 317.2,126.5 321.2,126.5  "
         id="polyline5481"
         transform="translate(-227.58294,-86.31501)" />
      <path
         class="st0"
         d="m 100.07928,50.935075 c -0.300003,0.6 -1.000003,1 -1.700003,1 v 0 c -1.100003,0 -2.000003,-0.9 -2.000003,-2 v -1.3 c 0,-1.1 0.9,-2 2.000003,-2 v 0 c 1.1,0 2.000003,0.9 2.000003,2 v 0.7 h -4.000006"
         id="path5601" />
      <g
         id="g5609"
         transform="translate(-143.81314,-88.564925)">
		<path
   class="st0"
   d="m 254.5,133.5 v 6 c 0,0.6 0.4,1 1,1 h 0.3"
   id="path5605" />

		<line
   class="st0"
   x1="253.5"
   y1="135.2"
   x2="255.60001"
   y2="135.2"
   id="line5607" />

	</g>
      <g
         id="g5745"
         transform="translate(7.179274,-86.31501)">
		<g
   id="g5741">
			<path
   class="st0"
   d="m 93.2,123.2 c 0,-1.1 -0.9,-2 -2,-2 v 0 c -1.1,0 -2,0.9 -2,2 v 1.3 c 0,1.1 0.9,2 2,2 v 0 c 1.1,0 2,-0.9 2,-2"
   id="path5739" />

		</g>

		<line
   class="st0"
   x1="93.199997"
   y1="126.5"
   x2="93.199997"
   y2="118.5"
   id="line5743" />

	</g>
      <g
         id="g5801"
         transform="translate(-6.0585251,-86.31501)">
		<g
   id="g5797">
			<g
   id="g5795">
				<path
   class="st0"
   d="m 110.3,126.5 v -6.6 c 0,-0.8 0.6,-1.4 1.4,-1.4 v 0 c 0.7,0 1.1,0.2 1.4,0.6"
   id="path5793" />

			</g>

		</g>

		<line
   class="st0"
   x1="109.2"
   y1="121.2"
   x2="112"
   y2="121.2"
   id="line5799" />

	</g>
      <path
         class="st0"
         d="m 118.23223,50.935075 c -0.3,0.6 -1,1 -1.7,1 v 0 c -1.1,0 -2,-0.9 -2,-2 v -1.3 c 0,-1.1 0.9,-2 2,-2 v 0 c 1.1,0 2,0.9 2,2 v 0.7 h -4"
         id="path7103" />
      <path
         style="fill:none;stroke:#ffffff;stroke-width:1px;stroke-linecap:round;stroke-linejoin:miter;stroke-opacity:1"
         d="m 89.617058,54.852579 h 4.000003"
         id="path7138" />
    </g>
    <circle
       class="a"
       cx="24"
       cy="24"
       r="21.5"
       id="circle7486" />
  </g>
  <style
     type="text/css"
     id="style5246">
	.st0{fill:none;stroke:#FFFFFF;stroke-linecap:round;stroke-linejoin:round;stroke-miterlimit:10;}
	.st1{fill:#FFFFFF;}
	.st2{fill:none;stroke:#FFFFFF;stroke-width:0.9976;stroke-linecap:round;stroke-linejoin:round;stroke-miterlimit:10;}
	.st3{fill:none;stroke:#FFFFFF;stroke-width:0.9965;stroke-linecap:round;stroke-linejoin:round;stroke-miterlimit:10;}
	.st4{fill:none;stroke:#FFFFFF;stroke-width:0.8662;stroke-linecap:round;stroke-linejoin:round;stroke-miterlimit:10;}
</style>
</svg>
