<svg width="48" height="48" version="1.1" viewBox="0 0 48 48" xmlns="http://www.w3.org/2000/svg">
 <g stroke-miterlimit="8">
  <path class="st0" d="m25.514 17.197h5.8385c3.8932 0 7.0786 3.2669 7.0786 7.2599 0 3.9929-3.1854 7.2599-7.0786 7.2599h-2.3005"/>
  <path class="st0" d="m38.427 31.482"/>
  <line class="st0" x1="38.427" x2="45.506" y1="16.963" y2="16.963"/>
  <line class="st0" x1="38.427" x2="43.028" y1="24.222" y2="24.222"/>
  <line class="st0" x1="38.427" x2="38.427" y1="16.963" y2="31.482"/>
  <path class="st0" d="m19.672 21.916c0-2.7224 2.1236-4.9004 4.6011-4.9004s4.7781 2.178 4.7781 4.9004c0 1.2705-0.5309 2.541-1.4157 3.4484-1.9466 1.6335-7.9634 6.3524-7.9634 6.3524h9.3792"/>
  <path d="m27.782 31.82c-2.4928 3.6584-6.686 6.0596-11.439 6.0596-7.6455 0-13.843-6.2142-13.843-13.88s6.1979-13.88 13.843-13.88c5.1789 0 9.6935 2.8513 12.068 7.0736" fill-opacity="0" stop-color="#000000" stroke="#fff" stroke-linecap="round" stroke-linejoin="round" style="paint-order:stroke fill markers"/>
 </g>
 <style type="text/css">.st0{fill:none;stroke:#FFFFFF;stroke-linecap:round;stroke-linejoin:round;stroke-miterlimit:10;}
	.st1{fill:#FFFFFF;}
	.st2{fill:none;stroke:#FFFFFF;stroke-width:1;stroke-linecap:round;stroke-linejoin:round;stroke-miterlimit:10;}
	.st3{fill:none;stroke:#FFFFFF;stroke-width:1;stroke-linecap:round;stroke-linejoin:round;stroke-miterlimit:10;}
	.st4{fill:none;stroke:#FFFFFF;stroke-width:1;stroke-linecap:round;stroke-linejoin:round;stroke-miterlimit:10;}</style>
</svg>
