<?xml version="1.0" encoding="UTF-8"?><svg id="b" xmlns="http://www.w3.org/2000/svg" viewBox="0 0 48 48"><defs><style>.d{stroke-linejoin:round;}.d,.e{fill:none;stroke:#fff;stroke-linecap:round;}</style></defs><path class="d" d="M7.5556,24v-1.0278s0-1.0278,1.0278-1.0278c1.0278,0,1.0278-1.0278,1.0278-1.0278v-2.0555s0-1.0278,1.0278-1.0278c1.0278,0,1.0278-1.0278,1.0278-1.0278v-2.0555s0-1.0278,1.0278-1.0278,1.0278-1.0278,1.0278-1.0278v-2.0555s0-1.0278,1.0278-1.0278h2.0555c1.0278,0,1.0278,1.0278,1.0278,1.0278v2.0555s0,1.0278,1.0278,1.0278h10.2778c1.0278,0,1.0278-1.0278,1.0278-1.0278v-2.0555s0-1.0278,1.0278-1.0278h2.0555c1.0278,0,1.0278,1.0278,1.0278,1.0278v2.0555s0,1.0278,1.0278,1.0278,1.0278,1.0278,1.0278,1.0278v2.0555s0,1.0278,1.0278,1.0278c1.0278,0,1.0278,1.0278,1.0278,1.0278v2.0555s0,1.0278,1.0278,1.0278,1.0278,1.0278,1.0278,1.0278v1.0278M40.4444,32.2221h-1.0278c-1.0278,0-1.0278,1.0278-1.0278,1.0278,0,0,0,1.0278-1.0278,1.0278s-1.0278,1.0278-1.0278,1.0278c0,0,0,1.0278-1.0278,1.0278h-2.0555c-1.0278,0-1.0278,1.0278-1.0278,1.0278,0,0,0,1.0278-1.0278,1.0278h-14.3892c-1.0278,0-1.0278-1.0278-1.0278-1.0278,0,0,0-1.0278-1.0278-1.0278h-2.0555c-1.0278,0-1.0278-1.0278-1.0278-1.0278,0,0,0-1.0278-1.0278-1.0278s-1.0278-1.0278-1.0278-1.0278c0,0,0-1.0278-1.0278-1.0278h-1.0278"/><path class="e" d="M17.8336,21.9442v4.1111"/><path class="e" d="M30.167,21.9442v4.1111"/><path class="d" d="M17.8336,32.2219v1.0278s0,1.0278,1.0278,1.0278h10.2778c1.0278,0,1.0278-1.0278,1.0278-1.0278v-1.0278"/><path class="d" d="M21.944,28.1115h4.1111"/><path class="d" d="M23.9998,28.1115v6.1666"/><path class="d" d="M38.3889,30.1673h4.1111"/><path class="d" d="M38.3889,26.0558h4.1111"/><path class="d" d="M5.5,26.0558h4.1111"/><path class="d" d="M5.5,30.1673h4.1111"/></svg>