<?xml version="1.0" encoding="UTF-8"?><svg id="a" xmlns="http://www.w3.org/2000/svg" viewBox="0 0 48 48"><defs><style>.d{fill:none;stroke:#fff;stroke-linecap:round;stroke-linejoin:round;}</style></defs><g id="b"><path id="c" class="d" d="M23.4306,22.1454c1.876,1.7566,1.6354,2.9683,1.5843,4.6562-.2543,8.4041,.7051,11.65,2.3977,12.4698,5.3074,1.597,14.7685-6.515,8.6016-22.9053-2.6859-6.6435-13.982-11.5109-22.8087-4.1558-2.729,2.5804-3.801,5.2597,0,9.6647,2.5305,2.6651,3.6207,4.7838-1.2564,4.6391-10.6362-.6994-7.1757,5.4116-5.7988,7.0552,5.5575,6.4346,12.109,7.3622,15.2702,3.4793,15.4967-21.2265,22.7168-15.5871,22.0355-11.9842-.7769,7.6233-8.3205,11.5427-13.7949,12.1537-6.3408,.7078-14.0734-1.8094-17.2496-8.7988-2.2622-5.7238,8.4046-7.4736,14.1463-8.8158"/></g></svg>