<svg xmlns="http://www.w3.org/2000/svg" viewBox="0 0 48 48"><defs><style>.a{fill:none;stroke:#fff;stroke-linecap:round;stroke-linejoin:round;}</style></defs><line class="a" x1="9.5" y1="31.0304" x2="16.5821" y2="31.0304"/><line class="a" x1="9.5" y1="18.8137" x2="13.0411" y2="16.8661"/><line class="a" x1="13.0411" y1="16.8661" x2="13.0411" y2="31.0304"/><path class="a" d="M19.2637,29.53a4.25,4.25,0,0,0,3.5654,1.6044h2.1393a3.5758,3.5758,0,0,0,3.5654-3.5654h0a3.5758,3.5758,0,0,0-3.5654-3.5654H22.6509a3.5758,3.5758,0,0,1-3.5654-3.5654h0a3.5758,3.5758,0,0,1,3.5654-3.5654H24.79a3.8278,3.8278,0,0,1,3.5654,1.6044"/><line class="a" x1="31.4179" y1="31.0303" x2="38.5" y2="31.0303"/><line class="a" x1="31.4179" y1="16.8661" x2="38.5" y2="16.8661"/><line class="a" x1="31.4179" y1="23.9482" x2="36.0213" y2="23.9482"/><line class="a" x1="31.4179" y1="16.8661" x2="31.4179" y2="31.0303"/><path class="a" d="M40.5,5.5H7.5a2,2,0,0,0-2,2v33a2,2,0,0,0,2,2h33a2,2,0,0,0,2-2V7.5A2,2,0,0,0,40.5,5.5Z"/></svg>