<svg xmlns="http://www.w3.org/2000/svg" viewBox="0 0 48 48"><defs><style>.a{fill:none;stroke:#fff;stroke-linecap:round;stroke-linejoin:round;}</style></defs><path class="a" d="M16.6432,38.717A7.3568,7.3568,0,0,0,24,31.36h0a7.3568,7.3568,0,0,0-7.3568-7.3568h0A7.3567,7.3567,0,0,0,24,16.6466h0A7.3567,7.3567,0,0,0,16.6432,9.29"/><path class="a" d="M4.5033,36.2342c2.0319,1.7026,4.2258,2.4828,9.1525,2.4828h2.9874"/><path class="a" d="M4.5,11.7415C6.5364,10.0443,8.7324,9.27,13.6591,9.2832l2.9874.0067"/><path class="a" d="M43.5,28.8464v.1206a9.75,9.75,0,0,1-9.75,9.75h0A9.75,9.75,0,0,1,24,28.967V19.033a9.75,9.75,0,0,1,9.75-9.75h0a9.75,9.75,0,0,1,9.75,9.75v.1206"/><path class="a" d="M38.9492,24.683a4.7776,4.7776,0,0,0,0-1.365L40.43,22.16a.3491.3491,0,0,0,.084-.448l-1.4-2.4255a.3463.3463,0,0,0-.427-.1505l-1.743.7035a5.3114,5.3114,0,0,0-1.183-.6895l-.2625-1.855a.36.36,0,0,0-.35-.294h-2.8a.3534.3534,0,0,0-.3465.294l-.2625,1.855a5.1761,5.1761,0,0,0-1.183.6895l-1.743-.7035a.35.35,0,0,0-.427.1505l-1.4,2.4255a.3506.3506,0,0,0,.084.448l1.477,1.1585a4.7776,4.7776,0,0,0,0,1.365L27.07,25.8415a.3491.3491,0,0,0-.084.448l1.4,2.4255a.3463.3463,0,0,0,.427.1505l1.743-.7035a5.3114,5.3114,0,0,0,1.183.69l.2625,1.855a.3534.3534,0,0,0,.3465.294h2.8a.3534.3534,0,0,0,.3464-.294l.2625-1.855a5.1788,5.1788,0,0,0,1.1831-.69l1.743.7035a.35.35,0,0,0,.4269-.1505l1.4-2.4255a.3506.3506,0,0,0-.0839-.448Zm-5.201,1.3175a2,2,0,1,1,2-2A1.9986,1.9986,0,0,1,33.7482,26.0005Z"/></svg>