<?xml version="1.0" encoding="UTF-8"?><svg id="b" xmlns="http://www.w3.org/2000/svg" viewBox="0 0 48 48"><defs><style>.c{fill:none;stroke:#fff;stroke-linecap:round;stroke-linejoin:round;}</style></defs><ellipse class="c" cx="25.1689" cy="31.984" rx="2.2968" ry="2.8299"/><path class="c" d="M25.1689,29.1541c0-4.8806.3691-10.8276-4.2654-12.3041"/><path class="c" d="M23.1272,33.2685c-2.921,1.8325-11.5339,2.4887-11.5339-7.5186,0-6.0632,3.2674-7.608,3.2674-7.608"/><path class="c" d="M9.5209,36.1298c-1.6325-2.8744-3.6832-2.7103-3.6832-2.7103,1.8866-.6562,2.5839-1.6566,2.5839-5.5859,0-6.5132,4.493-10.5138,4.493-10.5138v-2.1514s.5517-3.8143,7.1959-3.8143c2.1737,0,2.7342,1.5585,3.6229,4.1834,0,0-4.6756,2.6249-8.6129,2.6249-1.7362,0-2.2059-.8426-2.2059-.8426"/><path class="c" d="M8.7831,24.6696c-2.8223.5472-5.2831-1.0934-5.2831-5.0717s3.6349-5.4958,5.2831-5.4958,3.7383,3.6076,3.7383,3.6076"/><path class="c" d="M20.9035,23.002c-.7873,0-1.4437,1.3038-1.5942,3.0353l1.2114,1.066-1.1625.8187c.2071,1.5392.8166,2.6634,1.5453,2.6634.8985,0,1.6269-1.2263,1.6269-3.7917,0-2.4929-.7284-3.7917-1.6269-3.7917Z"/><path class="c" d="M29.4016,23.002c-.7873,0-1.4437,1.3038-1.5942,3.0353l1.2114,1.066-1.1625.8187c.2071,1.5392.8166,2.6634,1.5453,2.6634.8985,0,1.6269-1.2263,1.6269-3.7917,0-2.4929-.7284-3.7917-1.6269-3.7917Z"/><path class="c" d="M12.9146,15.1684c3.1766.4512,6.5864.5383,9.8578-2.1028"/><path class="c" d="M25.1689,29.1541c0-4.8806-.3691-10.8276,4.2654-12.3041"/><path class="c" d="M27.2105,33.2685c2.921,1.8325,11.5339,2.4887,11.5339-7.5186,0-6.0632-3.2674-7.608-3.2674-7.608"/><path class="c" d="M36.1027,32.8169c2.1222-1.5302,5.0342-1.2841,5.0342,1.997s-7.6559,8.941-17.4035,8.941c-7.3141,0-14.5325-5.6599-14.5325-8.941s2.912-3.5272,5.0342-1.997"/><path class="c" d="M40.8168,36.1298c1.6325-2.8744,3.6832-2.7103,3.6832-2.7103-1.8866-.6562-2.5839-1.6566-2.5839-5.5859,0-6.5132-4.493-10.5138-4.493-10.5138v-2.1514s-.5517-3.8143-7.1959-3.8143c-2.1737,0-2.7342,1.5585-3.6229,4.1834,0,0,4.6756,2.6249,8.6129,2.6249,1.7362,0,2.2059-.8426,2.2059-.8426"/><path class="c" d="M29.1962,11.5054s-4.0204-2.7762-4.7929-7.2603c-.2734,2.6249-3.2618,7.2603-3.2618,7.2603"/><path class="c" d="M37.4232,15.1684c-3.1766.4512-6.5864.5383-9.8578-2.1028"/><path class="c" d="M37.4232,17.3198c2.0458-2.6709,5.4363-3.4365,6.5847-.7023,1.7142,4.0814-3.1282,5.9104-3.1282,5.9104"/><path class="c" d="M11.9898,34.062c1.1484,1.1757,8.6584,3.4178,12.9968,3.4178s9.7795-.6289,13.3887-4.1014"/><path class="c" d="M34.7052,35.798c-2.5763,5.1265-7.7864,6.248-10.9718,6.248-3.2948,0-7.4921-.9933-9.2214-6.7171"/><path class="c" d="M19.8456,41.4376c.7604-3.6093,3.9561-2.3787,4.3253-.7177.7382-1.8251,4.3838-3.0054,4.8168.3224"/></svg>