<?xml version="1.0" encoding="UTF-8"?><svg id="b" xmlns="http://www.w3.org/2000/svg" viewBox="0 0 48 48"><defs><style>.c{fill:none;stroke:#fff;stroke-linecap:round;stroke-linejoin:round;}</style></defs><path class="c" d="M9.5,42.5h29c2.2091,0,4-1.7909,4-4V9.5c0-2.2091-1.7909-4-4-4H9.5c-2.2091,0-4,1.7909-4,4v29c0,2.2091,1.7909,4,4,4Z"/><polyline class="c" points="13.5 32.8222 13.5 26.9198 22.3222 26.9198 22.3222 32.8222"/><polyline class="c" points="22.3222 26.9198 19.3524 15.1778 16.4769 15.1778 13.5 26.9198"/><line class="c" x1="31.5593" y1="24" x2="26.5849" y2="24"/><path class="c" d="M26.5849,15.1778h4.4573c1.6241,0,2.9407,1.3166,2.9407,2.9408v2.9407c0,1.6241-1.3166,2.9407-2.9407,2.9407h.517c1.6241,0,2.9407,1.3166,2.9407,2.9407v2.9407c0,1.6241-1.3166,2.9407-2.9407,2.9407h-4.9743"/><line class="c" x1="26.5849" y1="15.1778" x2="26.5849" y2="32.8222"/></svg>