<svg id="Layer_2" data-name="Layer 2" xmlns="http://www.w3.org/2000/svg" viewBox="0 0 48 48"><defs><style>.cls-1{fill:none;stroke:#fff;stroke-linecap:round;stroke-linejoin:round;}</style></defs><path class="cls-1" d="M40.5,5.5H7.5a2,2,0,0,0-2,2v33a2,2,0,0,0,2,2h33a2,2,0,0,0,2-2V7.5A2,2,0,0,0,40.5,5.5Z"/><path class="cls-1" d="M9.94,33.89V14h6.65a6.67,6.67,0,0,1,0,13.33H9.94"/><line class="cls-1" x1="16.59" y1="27.37" x2="23.17" y2="33.96"/><path class="cls-1" d="M38.06,28.91a5,5,0,0,1-5,5h0a5,5,0,0,1-5-5v-8"/><line class="cls-1" x1="38.06" y1="33.89" x2="38.06" y2="20.94"/></svg>