<?xml version="1.0" encoding="UTF-8"?><svg id="b" xmlns="http://www.w3.org/2000/svg" viewBox="0 0 48 48"><defs><style>.c{fill:none;stroke:#fff;stroke-linecap:round;stroke-linejoin:round;}</style></defs><rect class="c" x="5.5" y="5.5" width="37" height="37" rx="4" ry="4"/><path class="c" d="M32.75,19.5h0c-2.3472,0-4.25-1.9028-4.25-4.25h0c0-2.3472-1.9028-4.25-4.25-4.25h-.5c-2.3472,0-4.25,1.9028-4.25,4.25h0c0,2.3472-1.9028,4.25-4.25,4.25h0c-2.3472,0-4.25,1.9028-4.25,4.25v.5c0,2.3472,1.9028,4.25,4.25,4.25h0c2.3472,0,4.25,1.9028,4.25,4.25h0c0,2.3472,1.9028,4.25,4.25,4.25h.5c2.3472,0,4.25-1.9028,4.25-4.25h0c0-2.3472,1.9028-4.25,4.25-4.25h0c2.3472,0,4.25-1.9028,4.25-4.25v-.5c0-2.3472-1.9028-4.25-4.25-4.25Z"/><path class="c" d="M33.3692,27.0052h0c-1.6597-1.6597-1.6597-4.3507,0-6.0104h0c1.6597-1.6597,1.6597-4.3507,0-6.0104l-.3536-.3536c-1.6597-1.6597-4.3507-1.6597-6.0104,0h0c-1.6597,1.6597-4.3507,1.6597-6.0104,0h0c-1.6597-1.6597-4.3507-1.6597-6.0104,0l-.3536.3536c-1.6597,1.6597-1.6597,4.3507,0,6.0104h0c1.6597,1.6597,1.6597,4.3507,0,6.0104h0c-1.6597,1.6597-1.6597,4.3507,0,6.0104l.3536.3536c1.6597,1.6597,4.3507,1.6597,6.0104,0h0c1.6597-1.6597,4.3507-1.6597,6.0104,0h0c1.6597,1.6597,4.3507,1.6597,6.0104,0l.3536-.3536c1.6597-1.6597,1.6597-4.3507,0-6.0104Z"/></svg>