<?xml version="1.0" encoding="UTF-8"?>
<svg id="Layer_1" data-name="Layer 1" xmlns="http://www.w3.org/2000/svg" version="1.1" viewBox="0 0 48 48">
  <defs>
    <style>
      .cls-1 {
        fill: none;
        stroke:#fff;
        stroke-linecap: round;
        stroke-linejoin: round;
      }
    </style>
  </defs>
  <path class="cls-1" d="M9.5,5.5c-2.2,0-4,1.8-4,4v29c0,2.2,1.8,4,4,4h29c2.2,0,4-1.8,4-4V9.5c0-2.2-1.8-4-4-4H9.5Z"/>
  <line class="cls-1" x1="19.7" y1="19.2" x2="24.4" y2="19.2"/>
  <line class="cls-1" x1="18.8" y1="24" x2="21.9" y2="24"/>
  <line class="cls-1" x1="19.7" y1="19.2" x2="18" y2="28.8"/>
  <path class="cls-1" d="M31,27.7c.5.7,1.3,1.2,2.2,1h1.4c1.4,0,2.5-1,2.8-2.4h0c.2-1-.4-2.1-1.5-2.3-.2,0-.3,0-.5,0h-1.6c-1.1,0-2-.8-2-1.9,0-.2,0-.3,0-.5h0c.3-1.4,1.4-2.3,2.8-2.4h1.4c.9-.1,1.7.3,2.2,1"/>
  <line class="cls-1" x1="9.3" y1="28.7" x2="14.1" y2="19.2"/>
  <line class="cls-1" x1="15.5" y1="28.8" x2="14.1" y2="19.2"/>
  <line class="cls-1" x1="15" y1="25.6" x2="10.9" y2="25.6"/>
  <line class="cls-1" x1="22.4" y1="28.7" x2="27.2" y2="19.2"/>
  <line class="cls-1" x1="28.6" y1="28.8" x2="27.2" y2="19.2"/>
  <line class="cls-1" x1="28.1" y1="25.6" x2="24" y2="25.6"/>
</svg>