<?xml version="1.0" encoding="UTF-8"?><svg id="b" xmlns="http://www.w3.org/2000/svg" viewBox="0 0 48 48"><defs><style>.c{fill:none;stroke:#fff;stroke-linecap:round;stroke-linejoin:round;}</style></defs><path class="c" d="M9.5,42.5h29c2.2091,0,4-1.7909,4-4V9.5c0-2.2091-1.7909-4-4-4H9.5c-2.2091,0-4,1.7909-4,4v29c0,2.2091,1.7909,4,4,4Z"/><line class="c" x1="21.0223" y1="19.2304" x2="21.0223" y2="31.5726"/><path class="c" d="M21.0223,26.4814c0-1.7041,1.3814-3.0855,3.0855-3.0855h0c1.7041,0,3.0855,1.3814,3.0855,3.0855v5.0911"/><path class="c" d="M17.6711,26.4043c0,1.7041-1.3814,3.0855-3.0855,3.0855h0c-1.7041,0-3.0855-1.3814-3.0855-3.0855v-2.0056c0-1.7041,1.3814-3.0855,3.0855-3.0855h0c1.7041,0,3.0855,1.3814,3.0855,3.0855"/><line class="c" x1="17.6711" y1="29.4898" x2="17.6711" y2="21.3132"/><path class="c" d="M36.5,26.4043c0,1.7041-1.3814,3.0855-3.0855,3.0855h0c-1.7041,0-3.0855-1.3814-3.0855-3.0855v-2.0056c0-1.7041,1.3814-3.0855,3.0855-3.0855h0c1.7041,0,3.0855,1.3814,3.0855,3.0855"/><line class="c" x1="36.5" y1="29.4898" x2="36.5" y2="21.3132"/><polyline class="c" points="24 19.0559 26.6338 21.3132 30.3289 16.4274"/></svg>