<?xml version="1.0" encoding="UTF-8"?><svg id="a" xmlns="http://www.w3.org/2000/svg" viewBox="0 0 48 48"><defs><style>.b{stroke-dasharray:3.8 2;}.b,.c{fill:none;stroke:#fff;stroke-linecap:round;stroke-linejoin:round;}</style></defs><rect class="b" x="4.9" y="10.65" width="33.7" height="26.7" rx="3.5" ry="3.5"/><path class="c" d="M23.9,24.85c0-1.3,1.1-2.4,2.4-2.4h0c1.3,0,2.4,1.1,2.4,2.4v3.9M23.9,22.55v6.2"/><path class="c" d="M28.6,24.85c0-1.3,1.1-2.4,2.4-2.4h0c1.3,0,2.4,1.1,2.4,2.4v3.9M16.9,19.35v9.4M16.9,24.85c0-1.3,1.1-2.4,2.4-2.4h0c1.3,0,2.4,1.1,2.4,2.4v3.9M14.8,26.45c0,1.3-1.1,2.4-2.4,2.4h0c-1.3,0-2.4-1.1-2.4-2.4v-1.5c0-1.3,1.1-2.4,2.4-2.4h0c1.3,0,2.4,1.1,2.4,2.4M14.8,28.75v-6.2"/><circle class="c" cx="41.8" cy="33.75" r="1.3"/><path class="c" d="M38.6,30.15l2.4,2.6M42.5,25.05l-3.9,5.1"/></svg>