<svg xmlns="http://www.w3.org/2000/svg" viewBox="0 0 48 48"><defs><style>.a{fill:none;stroke:#fff;stroke-linecap:round;stroke-linejoin:round;}</style></defs><path class="a" d="M8.86,28.36v5.9358a5.148,5.148,0,0,0,5.148,5.148h0"/><path class="a" d="M14.0081,8.5561h0a5.148,5.148,0,0,0-5.148,5.148V19.64"/><path class="a" d="M8.86,19.64A4.36,4.36,0,0,1,4.5,24"/><path class="a" d="M4.5,24a4.36,4.36,0,0,1,4.36,4.36"/><path class="a" d="M39.14,19.64V13.7041a5.148,5.148,0,0,0-5.148-5.148h0"/><path class="a" d="M33.9919,39.4439h0a5.148,5.148,0,0,0,5.148-5.148V28.36"/><path class="a" d="M39.14,28.36A4.36,4.36,0,0,1,43.5,24"/><path class="a" d="M43.5,24a4.36,4.36,0,0,1-4.36-4.36"/><path class="a" d="M31.7749,20.4228l1.3414-1.3266a1.5625,1.5625,0,0,0,.0014-2.21l-.0014-.0014h0a1.5625,1.5625,0,0,0-2.21-.0112l-.0112.0112-1.3365,1.3267a9.532,9.532,0,0,0-11.1438,0l-1.2873-1.307a1.5722,1.5722,0,0,0-2.2236-.0022l-.0022.0022h0a1.5674,1.5674,0,0,0,0,2.2111l1.3364,1.3168a9.5517,9.5517,0,0,0-1.813,5.5817V30.579a1.0072,1.0072,0,0,0,1.0072,1.0073H32.5807a1.0072,1.0072,0,0,0,.9827-1.0073V26.0144A9.5371,9.5371,0,0,0,31.7749,20.4228Zm-11.7924,7.12a1.7689,1.7689,0,1,1,1.764-1.7738v.01a1.7639,1.7639,0,0,1-1.7639,1.7639h0Zm8.068,0a1.7689,1.7689,0,1,1,1.7541-1.7835v.02a1.7639,1.7639,0,0,1-1.7639,1.7639h.01Z"/></svg>