<svg xmlns="http://www.w3.org/2000/svg" viewBox="0 0 48 48"><defs><style>.a{fill:none;stroke:#fff;stroke-linecap:round;stroke-linejoin:round;}</style></defs><polyline class="a" points="16.794 18.907 16.794 29.093 21.857 29.093"/><line class="a" x1="21.8342" y1="24.7166" x2="19.5402" y2="24.7166"/><polyline class="a" points="15.025 29.093 11.734 18.907 8.316 29.093"/><line class="a" x1="9.455" y1="25.6551" x2="13.8856" y2="25.6551"/><line class="a" x1="27.7105" y1="20.9908" x2="27.7105" y2="26.9239"/><path class="a" d="M27.7105,24.4764a1.4959,1.4959,0,0,1,1.5-1.4832h0a1.4958,1.4958,0,0,1,1.5,1.4832v2.4475"/><path class="a" d="M26.2227,26.1822a1.4539,1.4539,0,0,1-1.2747.7417h0a1.496,1.496,0,0,1-1.5-1.4833v-.9641a1.496,1.496,0,0,1,1.5-1.4833h0a1.4538,1.4538,0,0,1,1.2747.7416"/><path class="a" d="M35.1971,25.4406a1.4959,1.4959,0,0,1-1.5,1.4833h0a1.496,1.496,0,0,1-1.5-1.4833v-.9642a1.4959,1.4959,0,0,1,1.5-1.4832h0a1.4958,1.4958,0,0,1,1.5,1.4832"/><line class="a" x1="35.1971" y1="26.9239" x2="35.1971" y2="22.9932"/><path class="a" d="M39.6843,26.9239V24.4764a1.4958,1.4958,0,0,0-1.5-1.4832h0a1.4959,1.4959,0,0,0-1.5,1.4832v2.4475"/><line class="a" x1="36.6849" y1="24.4764" x2="36.6849" y2="22.9932"/><path class="a" d="M7.48,5.5a2,2,0,0,0-2,2v33a2,2,0,0,0,2,2H40.52a2,2,0,0,0,2-2V7.5a2,2,0,0,0-2-2Z"/></svg>