<svg id="Layer_2" data-name="Layer 2" xmlns="http://www.w3.org/2000/svg" viewBox="0 0 48 48"><defs><style>.cls-1{fill:none;stroke:#fff;stroke-linecap:round;stroke-linejoin:round;}</style></defs><polyline class="cls-1" points="19.73 12.33 19.73 22.07 24.6 22.07"/><polyline class="cls-1" points="25.98 25.93 25.98 35.67 30.86 35.67"/><line class="cls-1" x1="37.4" y1="12.33" x2="37.4" y2="22.07"/><path class="cls-1" d="M27.78,22.09V12.32h1.66a4.88,4.88,0,0,1,4.89,4.88h0a4.89,4.89,0,0,1-4.89,4.89Z"/><line class="cls-1" x1="9.55" y1="25.92" x2="16.91" y2="25.92"/><line class="cls-1" x1="13.23" y1="35.67" x2="13.23" y2="25.92"/><line class="cls-1" x1="33.58" y1="25.9" x2="33.58" y2="35.68"/><line class="cls-1" x1="34.84" y1="30.79" x2="38.45" y2="25.94"/><line class="cls-1" x1="34.84" y1="30.79" x2="38.45" y2="35.69"/><line class="cls-1" x1="34.84" y1="30.79" x2="33.58" y2="30.79"/><line class="cls-1" x1="10.3" y1="22.07" x2="13.57" y2="12.3"/><line class="cls-1" x1="16.71" y1="22.1" x2="13.57" y2="12.3"/><line class="cls-1" x1="15.66" y1="18.82" x2="11.39" y2="18.82"/><line class="cls-1" x1="16.57" y1="35.67" x2="19.84" y2="25.9"/><line class="cls-1" x1="22.98" y1="35.7" x2="19.84" y2="25.9"/><line class="cls-1" x1="21.93" y1="32.42" x2="17.66" y2="32.42"/><path class="cls-1" d="M7.5,5.5a2,2,0,0,0-2,2v33a2,2,0,0,0,2,2h33a2,2,0,0,0,2-2V7.5a2,2,0,0,0-2-2Z"/></svg>