<?xml version="1.0" encoding="UTF-8"?><svg id="b" xmlns="http://www.w3.org/2000/svg" viewBox="0 0 48 48"><defs><style>.c{fill:none;stroke:#fff;stroke-linecap:round;stroke-linejoin:round;}</style></defs><path class="c" d="m39.23,26c.0871-.6632.1339-1.3311.14-2-.0061-.6689-.0529-1.3368-.14-2l4.33-3.39c.4049-.3092.5125-.8734.25-1.31l-4.1-7.11c-.2457-.4413-.782-.6301-1.25-.44l-5.11,2.06c-1.0633-.8115-2.2261-1.4836-3.46-2l-.77-5.43c-.0702-.497-.4981-.8649-1-.86h-8.22c-.5019-.0049-.9298.363-1,.86l-.77,5.43c-1.2355.5131-2.3987,1.1855-3.46,2l-5.13-2.06c-.468-.1901-1.0043-.0013-1.25.44l-4.1,7.11c-.2625.4366-.1549,1.0008.25,1.31l4.32,3.39c-.0868.6633-.1335,1.3311-.14,2,.0061.6689.0529,1.3368.14,2l-4.32,3.39c-.4049.3092-.5125.8734-.25,1.31l4.1,7.11c.2457.4413.782.6301,1.25.44l5.11-2.06c1.0633.8115,2.2261,1.4836,3.46,2l.77,5.43c.0702.497.4981.8649,1,.86h8.2c.5019.0049.9298-.363,1-.86l.77-5.43c1.2355-.5131,2.3987-1.1855,3.46-2l5.11,2.06c.468.1901,1.0043.0013,1.25-.44l4.1-7.11c.2625-.4366.1549-1.0008-.25-1.31l-4.29-3.39Z"/><path class="c" d="m20.5485,29.4756c-.4792.7037-1.0201,1.4082-1.5669,2.0605-3.9738-.1131-5.4815-2.6923-5.4815-2.6923.0565-3.6545.9421-7.2484,2.59-10.5108,1.4486-1.1332,3.2136-1.7881,5.0508-1.8738l.5385,1.2438c.7691-.1068,1.5443-.1625,2.3208-.1669.7799.0026,1.5588.0565,2.3315.1615l.5385-1.2438c1.839.0904,3.6042.751,5.0508,1.89,1.6426,3.26,2.5245,6.85,2.5792,10.5,0,0-1.5077,2.5792-5.4815,2.6923-.5474-.6576-1.0614-1.3423-1.54-2.0515m3.4785-1.5615c-2.0677,1.0475-4.0683,2.0946-6.9569,2.0946s-4.8892-1.0471-6.9569-2.0946"/></svg>