<?xml version="1.0" encoding="UTF-8"?><svg id="b" xmlns="http://www.w3.org/2000/svg" viewBox="0 0 48 48"><defs><style>.c{fill:none;stroke:#fff;stroke-linecap:round;stroke-linejoin:round;}</style></defs><path class="c" d="m43.5,14.87c.0221-1.0104-.7791-1.8475-1.7895-1.8696-.0102-.0002-.0203-.0004-.0305-.0004h-16.91c-2-.1-5.93-4.23-8.19-4.23H6.68c-1.204-.0003-2.1803.9754-2.1806,2.1794,0,.0169.0002.0337.0006.0506h0v26c-.0111,1.2039.956,2.1889,2.1599,2.1999.0034,0,.0067,0,.0101,0h34.65c1.204,0,2.18-.9759,2.1801-2.1799,0-.0067,0-.0134,0-.0201h0V14.87Z"/><path class="c" d="m24.4076,22.7396l1.0292,2.2456,2.2457,1.0295c.2251.1032.3239.3694.2207.5945-.0448.0976-.1231.1759-.2207.2207l-2.2457,1.0291-1.0292,2.2457c-.1031.2251-.3692.3239-.5943.2208-.0977-.0448-.176-.1231-.2208-.2208l-1.0291-2.246h0s-2.2457-1.0292-2.2457-1.0292c-.2251-.1031-.3239-.3692-.2208-.5943.0448-.0977.1231-.176.2208-.2208l2.2457-1.0292,1.0291-2.2456c.1031-.2251.3692-.3239.5943-.2208.0977.0448.176.1231.2208.2208Z"/><path class="c" d="m32.9411,28.73h0c-1.2746-.7359-1.7113-2.3658-.9754-3.6404.2339-.4051.5703-.7415.9754-.9754h0c.4505-.2601.6048-.8361.3447-1.2866h0s-1.5299-2.6497-1.5299-2.6497c-.2601-.4505-.8361-.6048-1.2866-.3448,0,0,0,0,0,0h0c-1.2746.7359-2.9045.2992-3.6404-.9754-.2339-.4051-.357-.8647-.357-1.3325h0c.0001-.5202-.4215-.942-.9417-.9421h-3.06c-.5202,0-.9419.4217-.9419.9419h0c0,1.4718-1.1931,2.665-2.6649,2.665-.4678,0-.9274-.1231-1.3325-.357h0c-.4505-.2601-1.0265-.1057-1.2866.3448l-1.5299,2.6497c-.2601.4505-.1058,1.0265.3447,1.2866h0c1.2746.7359,1.7113,2.3658.9754,3.6404-.2339.4051-.5703.7415-.9754.9754h0c-.4505.2601-.6048.8361-.3447,1.2866h0s1.5299,2.6497,1.5299,2.6497c.2601.4505.8361.6049,1.2867.3448h0c1.2746-.7359,2.9045-.2992,3.6404.9754.2339.4051.357.8647.357,1.3325h0c-.0002.5202.4214.942.9416.9422h3.0601c.5202,0,.9419-.4217.9419-.9419h0c0-1.4718,1.1931-2.6649,2.6649-2.6649.4678,0,.9273.1231,1.3325.357h0c.4505.2601,1.0265.1057,1.2866-.3447l1.5299-2.6497c.2602-.4504.106-1.0265-.3444-1.2867,0,0-.0002-.0001-.0003-.0002Z"/></svg>