<svg id="Layer_2" data-name="Layer 2" xmlns="http://www.w3.org/2000/svg" viewBox="0 0 48 48"><defs><style>.cls-1{fill:none;stroke:#fff;stroke-linecap:round;stroke-linejoin:round;}</style></defs><path class="cls-1" d="M24.53,21.13a5.48,5.48,0,0,1-4.47,4.48c-3.95.85-9.1.68-12.7-1.29-5-2.71-3.13-10,2.9-10.69,4.59-.48,7.77-.76,11.51.46C23.47,14.64,25.7,15.31,24.53,21.13Z"/><path class="cls-1" d="M10.26,13.63a21,21,0,0,1,.86-3.55c1-2,2.4-4.42,8.73-5.25A50.43,50.43,0,0,1,26.13,5c3.89.3,5.79,2.64,7.2,7.2A52.18,52.18,0,0,1,35,19.75l.09,23.48H6.88c-1.21-5.1-.54-13.38.48-18.91"/><path class="cls-1" d="M35,19.75a53.53,53.53,0,0,1,6.43,1.44c.56.28,1.14.59,1.17,1.08.58,7.34,1.25,15.92.61,21H35.12"/></svg>