<?xml version="1.0" encoding="UTF-8"?><svg id="a" xmlns="http://www.w3.org/2000/svg" viewBox="0 0 48 48"><defs><style>.k{fill:none;stroke:#fff;stroke-linecap:round;stroke-linejoin:round;}</style></defs><g id="b"><path id="c" class="k" d="M19.505,8.5v-3c0-.5523.4477-1,1-1h6.67c.5523,0,1,.4477,1,1v3"/><path id="d" class="k" d="M28.175,8.5h4.63c1.1046,0,2,.8954,2,2v31c0,1.1046-.8954,2-2,2H15.195c-1.1046,0-2-.8954-2-2V10.5c0-1.1046.8954-2,2-2h4.31"/><path id="e" class="k" d="M19.5,8.5h8.67"/></g><g id="f"><path id="g" class="k" d="M25.3585,21.0594l-4.267,6.3168h5.817l-4.267,6.3168"/><path id="h" class="k" d="M24,16.1022v2.2481"/><path id="i" class="k" d="M20.5155,16.9442l.969,1.7785"/><path id="j" class="k" d="M27.4845,16.9442l-.969,1.7785"/></g></svg>