<svg xmlns="http://www.w3.org/2000/svg" viewBox="0 0 48 48"><defs><style>.a{fill:none;stroke:#fff;stroke-linecap:round;stroke-linejoin:round;}</style></defs><path class="a" d="M31.93,40.88C28,37.67,15,22.2,15,22.2c-1.64-2.15-4.53-5-4.53-9.18a7.5,7.5,0,0,1,7.7-7.42A7.36,7.36,0,0,1,25.58,13c0,4.2-3.4,7.78-9.69,9C8.88,23.33,4.5,27.17,4.5,33.51c0,5.13,3.23,8.89,9.69,8.89,8.49,0,13.23-8.83,18.11-16"/><polyline class="a" points="13.05 7.4 7.32 12.19 13.07 19.83"/><path class="a" d="M36,24.45a4.48,4.48,0,0,0-4.47,4.49h0A4.48,4.48,0,0,0,36,33.42H37.5"/><path class="a" d="M37.5,33.42H39a4.48,4.48,0,0,1,4.48,4.49h0A4.48,4.48,0,0,1,39,42.4"/><path class="a" d="M43.07,26c-1.23-1-2.57-1.51-5.57-1.51H36"/><path class="a" d="M31.93,40.88c1.24,1,2.58,1.52,5.57,1.52H39"/></svg>