<?xml version="1.0" encoding="UTF-8"?><svg id="b" xmlns="http://www.w3.org/2000/svg" viewBox="0 0 48 48"><defs><style>.g{fill:none;stroke:#fff;stroke-linecap:round;stroke-linejoin:round;stroke-width:1px;}</style></defs><g id="c"><path id="d" class="g" d="m34.7461,7.1858c.023,1.3371-.0414,2.6757-.1927,4.0043-.1411,1.2395-.358,2.4712-.6714,3.6788-.5986,2.3065-1.5508,4.5209-2.813,6.542"/><path id="e" class="g" d="m33.8967,29.9273c.7415-.8501,1.4397-1.7379,2.091-2.6589.9092-1.2856,1.7268-2.6354,2.4573-4.0302,1.0947-2.09,1.9948-4.2833,2.6609-6.5467.9246-3.1418,1.3956-6.4167,1.3941-9.6918l-2.4072.0151c.1025,2.9679-.2804,5.952-1.1289,8.7979-.4939,1.6567-1.1434,3.2637-1.8633,4.8355-.646,1.4104-1.3513,2.7979-2.2066,4.0921-.6011.9096-1.2751,1.771-2.0134,2.5733"/><path id="f" class="g" d="m26.4302,27.3005c-.5054.4443-1.0191.8793-1.5406,1.3045-1.2745,1.0391-2.5998,2.0225-4.0255,2.8419-1.2759.7333-2.6271,1.3321-4.0152,1.8209-2.8874,1.0168-5.9416,1.5581-9.0026,1.5954l-.0054-.025L17.7901,6.339h7.8095l9.6125,27.9165-5.9846.0273c-1.0469.8072-2.1366,1.559-3.2629,2.2511-1.2307.7563-2.5056,1.4414-3.8202,2.0401-1.7611.8021-3.5924,1.4483-5.4628,1.9447-1.7496.4643-3.5346.7979-5.3357.9796-1.9415.1959-3.9009.2149-5.8459.0569l.7358-2.4192c1.2152.0913,2.4363.1048,3.6533.0404,1.5018-.0794,2.9967-.2774,4.4713-.5726,1.9765-.3957,3.9191-.9667,5.7854-1.7284,2.1392-.873,4.1765-1.9966,6.0513-3.3469.5864-.4223,1.1569-.8667,1.7099-1.3319l-6.3341-20.8695-3.4184,11.7493,3.3683.0152c.4589-.0223.9233.1838,1.2147.539.2478.3021.3672.6947.3918,1.0847.0308.4867-.0852.992-.3788,1.3814-.2733.3625-.6954.6091-1.1453.6691l-4.64.0276-2.1846,7.0884"/></g></svg>