<?xml version="1.0" encoding="UTF-8"?><svg id="d" xmlns="http://www.w3.org/2000/svg" viewBox="0 0 48 48"><defs><style>.e{fill:none;stroke:#fff;stroke-linecap:round;stroke-linejoin:round;}</style></defs><path class="e" d="M8.2825,41.6527c-1.8951-3.7711-2.9009-8.1137.2259-9.8509,2.4401-1.3556,4.7602.0578,7.5484-1.0945"/><path class="e" d="M26.3123,10.1345c1.168-3.5767-1.5364-4.7597-3.4493-4.6242s-7.8024,1.1598-9.5044,7.3354c-1.8695,6.7833-4.4434,7.3053-4.0819,10.2265.4167,3.367,2.7112,3.3298,3.4794,3.39"/><path class="e" d="M11.0691,24.4288c-1.1297-3.3589,2.0377-4.3607,5.9231-7.0639,3.1392-2.184,4.0417-10.033,8.0411-7.1681"/><path class="e" d="M14.5636,36.5993c1.1749,1.1447,3.5849,1.9584,5.5129,1.883-.0904.9789-.2109,1.5073-.7381,1.5971s-4.6286-.7901-5.3321-1.9738c-.3158-.5313.5573-1.5062.5573-1.5062Z"/><path class="e" d="M12.3343,42.4435c.8134-1.446,1.9294-4.0367,1.9294-4.0367"/><path class="e" d="M19.4979,40.0328c-.28,1.266-.5512,2.4107-.5512,2.4107"/><path class="e" d="M15.0378,36.9961c.8513-2.0085,2.0684-5.277,2.0684-5.277-1.3451-1.2954-3.8071-3.6752-3.8071-3.6752,0,0-1.04-2.8369-.7689-3.8812s1.6719-2.8518,2.3799-2.6861.6326,1.0996.6326,1.0996"/><path class="e" d="M19.8054,38.4868c-.1574-1.3566,2.3647-6.1502,2.0032-7.8974-.3615-1.7472-3.7355-3.7355-5.5129-4.338l-.8736-1.7623s1.5787,1.1786,1.6523,0c.0531-.8495-1.183-1.5569-1.6224-1.8226-.6965-.4212-1.5146,2.0954-1.5146,2.0954l.5701,2.333"/><path class="e" d="M20.173,36.7065c.3892,1.2748,3.0101,5.7935,3.0101,5.7935"/><path class="e" d="M25.9847,42.4435c1.2314-1.5703,3.1631-5.9986,3.6828-8.0998,1.1749.4293,3.0614,1.254,3.0614,1.254,0,0-1.0393-6.0099-3.502-7.5011-1.2652,4.2024-1.6579,9.9366-4.7786,9.8283-2.6042-.0904-3.5003-3.4216-3.5003-3.4216"/><path class="e" d="M30.3561,29.1904c5.31.0283,8.1718-2.1859,10.1902,0,2.189,2.3707.0753,8.9001-1.0694,11.9879"/><path class="e" d="M26.2212,7.0354c4.4032-.9609,5.9058,5.8793,7.5239,8.8078,1.0022,1.8139,2.9904,2.9126,2.8097,4.8014-.2338,2.4436-3.2234,5.1691-2.9522,6.5704s2.0986,1.3493,2.0986,1.3493"/><path class="e" d="M26.2106,11.5014c2.5418.7908,2.8496,6.0481,8.5192,5.7071"/><path class="e" d="M31.2712,21.5628c-.1624,1.5022-.5755,3.2299-1.0614,4.4464-.8134,2.036-4.8127,5.2682-6.1568,5.2957-1.1071.0226-2.2926-.8962-2.2926-.8962"/><path class="e" d="M22.5392,27.9675c1.1184.6213,1.9431.4293,2.7451,0"/><path class="e" d="M26.3051,26.6166c-.6163.305-1.0004-.0904-1.5088-.0791s-.9422.305-.9422.305c0,0-.4338-.2937-.9422-.305s-.8925.3841-1.5088.0791"/><path class="e" d="M24.9206,24.5267c-.2372.1695-.8686.5299-1.0665.5299s-.8292-.3604-1.0665-.5299"/><path class="e" d="M16.2977,18.7573c.3309-1.2635,6.3178-.742,6.2008,1.3264-.1285,2.2711-1.2448,3.4704-3.2507,3.4023-2.0059-.068-3.6691-1.9837-2.9501-4.7288Z"/><line class="e" x1="19.3727" y1="20.3931" x2="19.4699" y2="19.6042"/><path class="e" d="M17.4375,19.8668c1.0377-.2509,2.0754-1.1525,3.7596.4295"/><path class="e" d="M17.6966,16.7469c2.3799-.1518,4.2315.7596,4.2315.7596"/><path class="e" d="M25.2098,20.0837s-.5513-.4338-1.3557-.4338-1.3557.4338-1.3557.4338"/><path class="e" d="M31.4106,18.7573c-.3309-1.2635-6.3178-.742-6.2008,1.3264.1285,2.2711,1.2448,3.4704,3.2507,3.4023,2.0059-.068,3.6691-1.9837,2.9501-4.7288Z"/><line class="e" x1="28.3355" y1="20.3931" x2="28.2384" y2="19.6042"/><path class="e" d="M30.1018,19.8203c-1.0377-.2509-1.9065-1.106-3.5906.4761"/><path class="e" d="M30.1683,17.2244c-1.2201-1.1826-4.2627.3058-4.2627.3058"/><path class="e" d="M31.0545,22.9958c1.8012.788,4.0358-1.6885,3.7945-4.6303-.1096-1.3357-2.6113-2.1913-3.2994,1.1237"/></svg>