<?xml version="1.0" encoding="UTF-8"?><svg id="b" xmlns="http://www.w3.org/2000/svg" viewBox="0 0 48 48"><defs><style>.c,.d{fill:none;stroke:#fff;stroke-linejoin:round;}.d{stroke-linecap:round;}</style></defs><circle class="d" cx="24" cy="24" r="7"/><path class="c" d="M36.3037,23.9999c3.1308-1.7205,6.4878-4.9262,6.3159-10.7499-4.9575-3.0608-9.4124-1.7565-12.4677.0947.0754-3.5716-1.0224-8.0817-6.1519-10.8447-5.1295,2.7629-6.2272,7.2731-6.1519,10.8447-3.0554-1.8511-7.5102-3.1555-12.4677-.0947-.1719,5.8237,3.1851,9.0295,6.3159,10.7499-3.1308,1.7205-6.4878,4.9263-6.3159,10.7501,4.9575,3.0608,9.4124,1.7565,12.4677-.0947-.0754,3.5716,1.0224,8.0817,6.1519,10.8447,5.1295-2.7629,6.2272-7.2731,6.1519-10.8447,3.0554,1.8511,7.5102,3.1555,12.4677.0947.1719-5.8237-3.1851-9.0296-6.3159-10.7501Z"/></svg>