<?xml version="1.0" encoding="UTF-8"?><svg id="a" xmlns="http://www.w3.org/2000/svg" viewBox="0 0 48 48"><defs><style>.b{fill:none;stroke:#fff;stroke-linecap:round;stroke-linejoin:round;}</style></defs><path class="b" d="m24,37c-7.1797,0-13-5.8203-13-13s5.8203-13,13-13V2.5C12.1259,2.5,2.5,12.1259,2.5,24s9.6259,21.5,21.5,21.5v-8.5Z"/><path class="b" d="m24,19.2056h4.8785v4.4579c0,1.3463-1.093,2.4392-2.4392,2.4392h0c-1.3463,0-2.4392-1.093-2.4392-2.4392v-4.4579h0Z"/><path class="b" d="m30.8785,19.2056h4.8785v4.4579c0,1.3463-1.093,2.4392-2.4392,2.4392h0c-1.3463,0-2.4392-1.093-2.4392-2.4392v-4.4579h0Z"/><path class="b" d="m30.8785,10.3084h4.8785v4.4579c0,1.3463-1.093,2.4392-2.4392,2.4392h0c-1.3463,0-2.4392-1.093-2.4392-2.4392v-4.4579h0Z"/><path class="b" d="m30.8785,28.1028h4.8785v4.4579c0,1.3463-1.093,2.4392-2.4392,2.4392h0c-1.3463,0-2.4392-1.093-2.4392-2.4392v-4.4579h0Z"/><path class="b" d="m37.757,19.2056h4.8785v4.4579c0,1.3463-1.093,2.4392-2.4392,2.4392h0c-1.3463,0-2.4392-1.093-2.4392-2.4392v-4.4579h0Z"/></svg>