<?xml version="1.0" encoding="UTF-8"?><svg id="a" xmlns="http://www.w3.org/2000/svg" viewBox="0 0 48 48"><defs><style>.aw{fill:none;stroke:#fff;stroke-linecap:round;stroke-linejoin:round;}</style></defs><g id="b"><path id="c" class="aw" d="M42.50907087,37.48632669v1.00976562c0,2.2159996-1.7840004,4-4,4H9.50907087c-2.2159977,0-4-1.7840004-4-4V9.49609232c0-2.2159977,1.7840023-4,4-4h29c2.2159996,0,4,1.7840023,4,4v20.95117188"/><g id="d"><path id="e" class="aw" d="M28.50767851,18.89605188c-2.31000328.7098732-3.94193459,1.89668655-4.3812561,4.06823921,1.32233238-2.35852814,3.37434959-3.10762978,5.41943359-2.99210167"/><path id="f" class="aw" d="M22.11284781,24.71939325c.22013855-.45324135.88659286-.63805962,1.27073288-.36084175"/><path id="g" class="aw" d="M25.16207075,16.90103769l3.11974335-.53087425"/><path id="h" class="aw" d="M13.08962965,19.83428049l3.35771561-1.16946793"/><path id="i" class="aw" d="M20.7908206,25.73293734c-1.47484589-.27980995-2.19937134,1.18744278-.94099426,1.91193199.88853073.51155853,3.2249279.65798569,4.75536728-.18115234.99297714-.54444885,1.14830399-2.15196991-.52091408-1.79740524-.49240685.10459328-.69556427.36856651-1.45729256.3961525-.62142563.02251053-1.22522926-.21361923-1.83616638-.3295269Z"/><g id="j"><path id="k" class="aw" d="M12.3430438,22.72092867c-.13568497.52804565-.58656788,3.00250053,2.20701218,3.81106949,1.05314445.30481911,3.02766609.47623062,4.40099335-1.73649979.64594078-1.0407505.45754242-2.67355347-1.61458778-4.01351166-1.44051266-.93151855-4.25276947-.94343376-4.99341774,1.93894196Z"/><path id="l" class="aw" d="M11.34720564,21.72948122c.34056854.47216034.68113899.72133255,1.02170753.88915825"/><path id="m" class="aw" d="M14.74018526,20.28213549c-.30573082.21751595-.55354214.53873253-.71353626.92489433.00715351-.00073814.0143137-.00140572.02147961-.00200081.60024166-.00043297,1.08724403.48569679,1.08789062,1.0859375-.00131702.58454514-.46464443,1.06340218-1.04882812,1.08398438.33049583.67650795.92662048,1.09097672,1.57031345,1.09179688,1.01186943-.00008202,1.83209801-1.00477409,1.83203125-2.24404526v-.00009537c.00005722-.6487484-.22914505-1.26577568-.6285038-1.69197655"/></g></g><g id="n"><path id="o" class="aw" d="M26.79880857,34.50700235c.57531548-.90026093,1.65265846-.27152634,1.31249809,1.04221725,2.36149406.16603851,3.0275631,1.68584061,2.6947937,2.75016403-.76450729,2.50739288-2.97550964,2.09872055-4.26524162,1.42686081-3.46134377-1.80311203-7.17599869-4.91834641-8.17319107-6.56911087-1.38960648-2.30036926.70842552-3.60613632,3.66212082-1.71062279l4.76902008,3.06049156Z"/><path id="p" class="aw" d="M20.84378576,35.803473c.16767883-1.44366455.52258682-2.83806229,1.36751938-4.23946953"/></g><g id="q"><path id="r" class="aw" d="M24.87933493,42.5223794c-.97015762-1.51055145-1.60522652-3.21027374-1.86266708-4.98532104"/><path id="s" class="aw" d="M41.2787776,24.5346303c.42416763.21670341.83568954.45716286,1.23258591.72022438"/><path id="t" class="aw" d="M23.3640151,32.3087182c1.50171471-5.28868484,6.27285957-8.99482346,11.78552818-9.15478325"/></g><g id="u"><path id="v" class="aw" d="M24.94840765,29.28383684c-3.86835289,1.6166935-8.32735825,1.298069-10.74886608.18200493-2.42211056-1.11634254-2.9608469-2.48522758-3.91529465-5.16753006"/><path id="w" class="aw" d="M23.13530111,6.80671835c.21073532-.48926497.50374985-.93880224.86632347-1.32909775"/><path id="x" class="aw" d="M6.86477995,18.05076647c.33886051,2.29434776,1.34014988,5.42836952,3.88987637,6.30342293-.61067581-2.07406998-.69161892-2.90426826-.49231815-4.60263062,4.24938965-2.51935959,6.44796371-5.10978317,9.07343864-8.3454361,2.93001556,1.34691048,5.19345284,1.96826077,8.93984795,2.13554001,2.07276917,2.02084351,2.46325111,3.71559525,2.65397644,5.38417244"/><path id="y" class="aw" d="M5.52134848,9.06403303c.53293037-.20436287,1.0988512-.30914974,1.66962194-.30914974,2.57537794,0,4.6631341,2.08775616,4.6631341,4.66313457h0c0,2.57537842-2.08775616,4.66313457-4.6631341,4.66313457-.57846451,0-1.15187931-.10762978-1.69097042-.31739616"/><path id="z" class="aw" d="M30.84933996,5.49367428c.79216576.86079359,1.23185539,1.98788738,1.23185539,3.15771246,0,1.47446728-.69734955,2.86206818-1.88053131,3.74191761"/><path id="aa" class="aw" d="M10.50236654,10.13622904c5.2777195-4.64827156,13.14889145-4.41108513,16.62244987-1.546628,4.27213478,3.52299976,4.3157711,7.7026968,3.82375526,11.56717396-.33590698,2.63834763.80774117,1.72190666.35671997,3.73174667"/><path id="ab" class="aw" d="M15.51287508,7.2900219c1.31810856.49692297,2.57143307,1.66493654,3.27965641,2.84685469"/><path id="ac" class="aw" d="M11.81065512,12.7682271c4.95923615-5.18665552,11.34141541-5.48634529,17.0954895-2.39136314"/><path id="ad" class="aw" d="M31.1433177,16.50207376c3.27056885.13464928,2.77952957,4.94985962-.06760979,5.56629944"/><path id="ae" class="aw" d="M7.90725565,21.59510279c-3.3080349,1.21546173-.39606571,6.01109695,3.32563019,5.08140564"/><path id="af" class="aw" d="M5.61138201,38.5301652c1.48266697-.3747406,3.57534695-.98174286,5.14562607-1.74990082,2.32098293-1.13539124,1.50353813-3.82824326.5378685-5.97627258-.47757912-1.06232262-1.18834496-2.70485115-1.74456596-3.99912643"/></g><g id="ag"><path id="ah" class="aw" d="M17.93174314,31.91713572c-.27318192.70780945-.83644485,1.24822235-1.56465912,1.89925766,1.41310501,1.16184235,2.97371674,2.02156067,4.69362259,2.31217957"/><path id="ai" class="aw" d="M20.94770002,39.19868326c.35114479.58944321.66154289,1.27645111.91227722,2.07029343-.85633278.4034996-1.72897911.79886627-2.54055405,1.22468567"/><path id="aj" class="aw" d="M15.15388918,42.49552774c-1.3858881-1.8902626-2.02603531-3.00064468-1.15626812-5.13658905.64892101-1.59359741,1.99071217-1.97098923,2.72902679-3.25502396"/><path id="ak" class="aw" d="M21.80903769,41.36101007l.74036598,1.13462448"/><path id="al" class="aw" d="M15.98758173,35.01933146c1.35970974,1.4904213,3.79388142,2.5760231,6.06452847,2.89160538.19149017-.22805023.34303284-.47438049.47916794-.74333191"/><path id="am" class="aw" d="M23.35670233,40.31282282c-.52049255.23997116-1.0411129.49009705-1.5403347.81782532"/></g><g id="an"><path id="ao" class="aw" d="M44.11410856,33.95134974c0-2.60207748-2.1094017-4.71147919-4.71147919-4.71147919s-4.71147919,2.1094017-4.71147919,4.71147919,2.1094017,4.71147919,4.71147919,4.71147919,4.71147919-2.1094017,4.71147919-4.71147919Z"/><path id="ap" class="aw" d="M36.17501402,38.90582132l.6745491-.99612808"/></g><g id="aq"><path id="ar" class="aw" d="M42.16500425,22.17723703c0-1.98165131-1.60522842-3.58809853-3.58538055-3.58809853h-.00000381c-1.98015213,0-3.58538055,1.60644722-3.58538055,3.58809853s1.60522842,3.58809853,3.58538055,3.58809853c1.98015213.00000191,3.58538437-1.60644341,3.58538437-3.58809471v-.00000381Z"/><path id="as" class="aw" d="M36.12344313,25.95038843l.51332092-.75861549"/></g><g id="at"><path id="au" class="aw" d="M25.83015394,30.35121775c-.11863327-1.73797417,1.19273758-3.24296188,2.92902565-3.36148643,1.73628807-.11852264,3.23999977,1.19430351,3.35863304,2.93227768.11863327,1.73797607-1.19273376,3.24296379-2.92902565,3.36149025h0c-1.73628998.11852264-3.24000168-1.19430161-3.35863495-2.93227768l.00000191-.00000381Z"/><path id="av" class="aw" d="M31.35356092,33.29878092l-.49552155-.63460922"/></g></g></svg>