<svg xmlns="http://www.w3.org/2000/svg" viewBox="0 0 48 48"><defs><style>.a{fill:none;stroke:#fff;stroke-linecap:round;stroke-linejoin:round;}</style></defs><path class="a" d="M40.5,5.5H7.5a2,2,0,0,0-2,2v33a2,2,0,0,0,2,2h33a2,2,0,0,0,2-2V7.5A2,2,0,0,0,40.5,5.5Z"/><line class="a" x1="24.19" y1="24" x2="20.88" y2="28.38"/><line class="a" x1="27.5" y1="19.62" x2="25.74" y2="21.95"/><line class="a" x1="29.7" y1="31.3" x2="20.88" y2="19.62"/><path class="a" d="M31.81,27.64a3.72,3.72,0,0,0,2.72.74h.75a2.19,2.19,0,0,0,2.18-2.19h0A2.19,2.19,0,0,0,35.28,24H33.79a2.18,2.18,0,0,1-2.18-2.19h0a2.18,2.18,0,0,1,2.18-2.19h.74a3.73,3.73,0,0,1,2.73.74"/><path class="a" d="M17.15,25.08a3.31,3.31,0,0,1-3.31,3.3h0a3.3,3.3,0,0,1-3.3-3.3V22.92a3.3,3.3,0,0,1,3.3-3.3h0a3.31,3.31,0,0,1,3.31,3.3"/><line class="a" x1="17.15" y1="28.38" x2="17.15" y2="19.62"/></svg>