<?xml version="1.0" encoding="UTF-8"?><svg id="a" xmlns="http://www.w3.org/2000/svg" viewBox="0 0 48 48"><defs><style>.b{fill:none;stroke:#fff;stroke-linecap:round;stroke-linejoin:round;}</style></defs><path class="b" d="M9.5,5.5h29c2.216,0,4,1.784,4,4v29c0,2.216-1.784,4-4,4H9.5c-2.216,0-4-1.784-4-4V9.5c0-2.216,1.784-4,4-4"/><path class="b" d="M34.864,25.797l3.97.103c.552.0142.988.473.974,1.025l-.265,10.28c-.0142.552-.473.988-1.025.974l-3.97-.102c-.5521-.0142-.9882-.4732-.974-1.0253,0-.0002,0-.0005,0-.0007l.265-10.28c.0142-.552.473-.988,1.025-.974"/><path class="b" d="M39.688,31.61c.778.7798,1.215,1.8364,1.215,2.938h0c0,1.2623-.5731,2.4564-1.558,3.246M33.579,37.25c-.6435-.7532-.997-1.7114-.997-2.702.0003-1.0565.4025-2.0732,1.125-2.844M14.969,36.194c-.9296,1.7339-2.1601,3.2888-3.634,4.592-1.085.958-2.47.212-3.404-.863-.803-.926-1.293-2.52-.722-3.604.9-1.708,2.155-2.92,3.625-3.86.956-.612,2.54-.531,3.397.21.908.786,1.366,2.369.738,3.525M10.63,41.404l-.06.912M34.905,38.146c.268,1.49.402,2.836.335,4.216M33.693,27.909c-4.515,3.304-8.319,6.524-13.813,9.322l-4.627-1.333"/><path class="b" d="M14.281,37.774c1.453.3,3.505.122,5.599-.543,6.357,1.415,7.802-.884,13.857-6.5M26.489,13.725c1.605.535,2.818,1.41,3.406,2.652.8207,1.7263,1.5065,3.5137,2.051,5.346.535,1.782.995,3.719,1.54,6.136M9.791,22.08c.275-2.464.9-4.544,2.12-5.792,1.204-1.233,2.301-1.952,3.455-2.389M9.968,32.803c-.197-2.388-.372-4.937-.357-7.337"/><path class="b" d="M31.946,21.723l-2.406.024c-2.169.393-2.9.384-4.25-.106-6.255-2.269-13.008-4.687-16.79,2.359-.478.891.984,2.246,1.702.966,1.9-3.39,5.016-4.937,9.744-5.072"/><path class="b" d="M29.326,21.579c-5.061-3.872-13.376-2.588-15.935-1.904M17.375,30.573c.85-.27,2.038-.524,3.13-.295.052,1.175-.31,2.13-1.361,2.301-1.177-.125-1.669-.94-1.77-2.006M15.006,30.31c-.385-.283-.619-1.954.456-2.144s1.273,1.528.956,1.819c-.4934-.0466-.9886.0674-1.412.325M21.64,29.139c-.65-.342-.749-2,.49-2.183,1.24-.182,1.345,1.283,1.06,1.941-.62-.188-1.084-.102-1.55.242M20.924,14.583c-1.673,1.071-3.55,2.429-4.305,3.86,2.289-.927,4.778-1.91,7.405-2.422"/><path class="b" d="M42.5,14.925c-1.579-.1926-2.7661-1.5333-2.766-3.124-.0011,1.738-1.411,3.1461-3.1491,3.1449-1.7364-.0011-3.1438-1.4085-3.1449-3.1449h0c-.031,1.7378-1.4649,3.1214-3.2026,3.0904-1.6941-.0302-3.0602-1.3963-3.0904-3.0904,0,1.738-1.409,3.147-3.147,3.147s-3.147-1.409-3.147-3.147c-.031,1.7378-1.4648,3.1214-3.2026,3.0904-1.6941-.0302-3.0602-1.3963-3.0904-3.0904h0c-.0006,1.738-1.4101,3.1465-3.1481,3.1459-1.7371-.0006-3.1452-1.4087-3.1459-3.1459.0001,1.5904-1.1864,2.9309-2.765,3.124M27.147,11.801l-.073-6.092M33.44,11.801l-.402-6.053M39.734,11.801l-.543-6.014M20.853,11.801l.073-6.092M14.56,11.801l.402-6.053M8.266,11.801l.543-6.014"/></svg>