<?xml version="1.0" encoding="UTF-8"?><svg id="a" xmlns="http://www.w3.org/2000/svg" viewBox="0 0 48 48"><defs><style>.b{fill:none;stroke:#fff;stroke-linecap:round;stroke-linejoin:round;}</style></defs><path class="b" d="m13 38.655v-23.655c0-1.108.892-2 2-2h4.5c1.108 0 2 .892 2 2v27.5l-16-7.2376v-11.762c0-1.108.892-2 2-2h3.5c1.108 0 2 .892 2 2"/><path class="b" d="m35 23.5c0-1.108.892-2 2-2h3.5c1.108 0 2 .892 2 2v11.762l-16 7.2376v-27.5c0-1.108.892-2 2-2h4.5c1.108 0 2 .892 2 2v23.655"/><path class="b" d="m24 9.5c-.11962-.44642-1.7797-2-3-2 1.2203 0 2.8804-1.5536 3-2 .11962.44642 1.7797 2 3 2-1.2203 0-2.8804 1.5536-3 2z"/></svg>
