<?xml version="1.0" encoding="UTF-8"?><svg id="b" xmlns="http://www.w3.org/2000/svg" viewBox="0 0 48 48"><defs><style>.d{fill:none;stroke:#fff;stroke-linejoin:round;}</style></defs><path class="d" d="M18.8764,6.4976c-1.2295-.1143-2.5025-.1488-3.5756,0,0,11.1554,2.0469,21.7992,9.9274,35.1038.2455-.0809.4784-.1657.7006-.2542M18.8764,6.4976c-.3975,2.9115-1.1184,9.4186-.8209,12.1553.3718,3.4209,4.2389,5.8006,5.3544,8.4035.8924,2.0823,2.0511,10.3948,2.5189,14.2908M18.8764,6.4976c1.3027.1211,2.5565.3317,3.4723.5091M25.9288,41.3473c1.5775-.6289,2.6098-1.4448,3.7617-2.3491M22.3487,7.0067c.8791.1702,1.4466.3097,1.4466.3097,0,7.3687,1.4329,18.4218,8.9039,29.5773-1.2454.7231-2.1595,1.4378-3.0087,2.1045M22.3487,7.0067c-.1802,2.5435-.4325,8.2254,0,10.6052.5407,2.9746,1.9279,4.8383,2.8795,8.0316,1.1399,3.8253,1.1622,7.8096,2.2719,9.9652.7213,1.4012,1.5594,2.688,2.1904,3.3895"/></svg>