<svg xmlns="http://www.w3.org/2000/svg" viewBox="0 0 48 48"><defs><style>.a{fill:none;stroke:#fff;stroke-linecap:round;stroke-linejoin:round;}</style></defs><rect class="a" x="20.2038" y="12.8505" width="5.2913" height="22.1939" rx="0.7863"/><rect class="a" x="25.495" y="12.8505" width="5.2913" height="22.1939" rx="0.7863"/><rect class="a" x="32.7338" y="13.9896" width="4.5564" height="21.0548" rx="0.7863" transform="translate(-4.0662 7.2018) rotate(-11.1038)"/><rect class="a" x="39.2376" y="16.0841" width="4.2624" height="18.9603" rx="0.7863"/><line class="a" x1="25.495" y1="25.7939" x2="30.7863" y2="25.7939"/><line class="a" x1="25.495" y1="30.2584" x2="30.7863" y2="30.2584"/><line class="a" x1="20.2038" y1="30.8371" x2="25.495" y2="30.8371"/><line class="a" x1="20.2038" y1="28.3568" x2="25.495" y2="28.3568"/><line class="a" x1="20.2038" y1="18.8215" x2="25.495" y2="18.8215"/><line class="a" x1="20.2038" y1="16.3413" x2="25.495" y2="16.3413"/><line class="a" x1="41.3688" y1="29.5327" x2="41.3688" y2="21.5958"/><rect class="a" x="14.2511" y="16.0841" width="4.2624" height="18.9603" rx="0.7863" transform="translate(4.7543 -2.4839) rotate(10.1353)"/><rect class="a" x="7.7795" y="17.2476" width="4.2624" height="17.7877" rx="0.7863" transform="translate(11.8896 -1.7455) rotate(24.8218)"/><line class="a" x1="15.684" y1="29.4707" x2="17.0807" y2="21.6577"/></svg>