<svg xmlns="http://www.w3.org/2000/svg" viewBox="0 0 48 48"><defs><style>.a{fill:none;stroke:#fff;stroke-linecap:round;stroke-linejoin:round;}.b{fill:#fff;}</style></defs><path class="a" d="M16.976,44.107a8.6775,8.6775,0,0,1-6.0263-.8214c-2.6867-1.6649-7.39-11.057-7.39-11.057-3.748-10.144,3.6021-14.895,3.6021-14.895-1.9929-4.2588-.9878-5.395.4079-7.4276A22.9391,22.9391,0,0,1,12.0008,5.66a4.64,4.64,0,0,1,4.291.2765C15.96,1.5631,19.5294,4.37,19.5294,4.37,32.86,2.6355,33.35,14.9144,33.35,14.9144L35.2872,19.9s1.5265-4.3218-.0361-5.4163a2.11,2.11,0,0,1,1.46-3.8084c2.4824,0,1.6358,1.8357,1.5886,2.1269-.1327.8176,1.72,2.99,3.8359,3.3324,2.093.339,5.6835,7.2388,1.2492,16.185,0,0-2.1161,6.799-12.669,11.382s-17.013-1.2009-17.633-2.6657-1.5141-3.3407,2.531-4.2053,13.024-2.69,16.662-7.4538A13.87,13.87,0,0,0,35.2868,19.9"/><path class="a" d="M16.292,5.9365l1.0149,1.2244s2.6368-1.0167,4.4431,4.4482c0,0,4.2814.0051,6.1012,3.2657a8.4,8.4,0,0,1,1.1612,6.2909m-1.34,2.4978c-3.6577,3.5863-5.4322,3.1859-8.6357,2.7343,0,0-2.5172-7.1217-9.4253-6.691s-4.9443,10.004-4.9443,10.004"/><path class="a" d="M19.036,26.398l1.1812,1.5161a7.5735,7.5735,0,0,0,3.3394.3995A20.3042,20.3042,0,0,0,27.53,25.5165"/><path class="a" d="M26.175,33.536S25.9472,28.52,27.61,27.98s2.5444-.1225,2.4232,2.0738-.0271,1.4395-.0271,1.4395"/><path class="a" d="M28.093,27.817c-.2736-.2736-1.3262-5.8795.9543-6.66s3.3814-.0564,2.9956,2.488-.007,2.2423.4167,5.361"/><path class="a" d="M31.646,20.949c.94-2.6834,3.7532-1.5879,3.7032-.0046"/><path class="a" d="M17.307,7.1609s-2.7967,1.39-2.4672,3.685c0,0-2.6681-1.5408-4.2542.1895a4.6147,4.6147,0,0,0,1.7453,7.2575"/><path class="a" d="M22.762,14.528s-.5448.7047,1.949,1.9725,1.7343,6.1246-.4062,7.626-5.8871,1.82-9.7764-4.9109c0,0,6.7147-1.1514,8.2337-4.6877Z"/><path class="a" d="M16.2,21.35s7.9324-.8876,6.5613-6.8212"/><circle class="a" cx="13.275" cy="14.869" r="1.5579"/><circle class="a" cx="17.872" cy="11.275" r="1.4621"/><path class="a" d="M7.0866,10.119a3.24,3.24,0,0,1-.7973-2.07"/><path class="a" d="M8.0129,8.9321c0-.12-.2727-2.7579-1.062-3.4736"/><path class="a" d="M9.4551,7.6986c-.3089-.9318-.8336-3.9727-.1275-5.131"/><path class="a" d="M11.384,6.16c-.0585-.1972-.8471-2.7071-.3538-3.5012"/><path class="a" d="M42.12,16.225s-2.5257,4.38-6.2765,1.8658"/><circle class="b" cx="17.203" cy="16.251" r="0.75"/><circle class="b" cx="20.518" cy="13.895" r="0.75"/><path class="a" d="M19.355,24.071s-.8547-2.976,3.5325-1.8864"/><path class="a" d="M21.785,21.699s.3995-2.1549,4.1282-.47"/><path class="a" d="M20.217,27.914s-3.4018-.1439-6.23,5.1474"/><path class="a" d="M33.351,14.914a6.18,6.18,0,0,1-2.3833,2.7623"/><path class="a" d="M39.783,18.636s1.9038,7.3865-2.3461,13.168-12.575,7.8806-12.575,7.8806"/></svg>