<svg xmlns="http://www.w3.org/2000/svg" viewBox="0 0 48 48"><defs><style>.a{fill:none;stroke:#fff;stroke-linecap:round;stroke-linejoin:round;}</style></defs><path class="a" d="M24,42.5s5.8929-1.916,9.4875-5.4344a.2114.2114,0,0,0,.0772-.1358c-1.12-.9132-3.8056-5.1626-3.983-7.3428s.6954-2.1407,1.5154.1808,4.4286,5.2676,4.4286,5.2676c.36.0911.5261-.1016.4016-.4757-2.8578-4.5795-1.492-6.4855-1.4522-5.8041s2.8824,3.8282,3.0269,3.8816c1.3191-1.8865,2.3843-4.3606,3.6211-8.9757,2.2614-8.4387-4.3792-16.5674-7.9323-13.1215-1.7038,1.6524-1.26,2.8646-.2846,3.5042,0,0-1.227,1.6324-3.9195.7231s-2.1328-3.6184-2.2511-5.2441S26.7111,6.4665,24,5.7329s-2.8361.5008-2.8361.5008C16.5866,6.03,17.6053,8.81,17.6053,8.81c2.9238-1.4856,5.0334,1.6994,3.0677,4.8946s-5.6034.4673-5.6034.4673c1-.767,1.4434-1.9792-.26-3.6316C11.2561,7.0941,4.6155,15.2228,6.8769,23.6615c1.2368,4.6151,2.302,7.0892,3.6211,8.9757.1445-.0534,2.987-3.2,3.0269-3.8816S14.9305,29.98,12.0727,34.56c-.089.4455.4016.4757.4016.4757s3.6085-2.9462,4.4286-5.2677,1.6927-2.3609,1.5154-.1807-2.8626,6.43-3.983,7.3428a.2114.2114,0,0,0,.0772.1358C18.1071,40.584,24,42.5,24,42.5"/></svg>