<svg xmlns="http://www.w3.org/2000/svg" viewBox="0 0 48 48"><defs><style>.a{fill:none;stroke:#fff;stroke-linecap:round;stroke-linejoin:round;}</style></defs><path class="a" d="M7.48,5.5a2,2,0,0,0-2,2v33a2,2,0,0,0,2,2H40.52a2,2,0,0,0,2-2V7.5a2,2,0,0,0-2-2Z"/><path class="a" d="M27.3975,22.9507a3.2287,3.2287,0,0,1,3.2287-3.2288h0"/><line class="a" x1="27.3975" y1="19.7219" x2="27.3975" y2="28.2781"/><path class="a" d="M24.9062,25.0493a3.2288,3.2288,0,0,1-3.2287,3.2288h0a3.2288,3.2288,0,0,1-3.2288-3.2288V22.9507a3.2288,3.2288,0,0,1,3.2288-3.2288h0a3.2288,3.2288,0,0,1,3.2287,3.2288"/><line class="a" x1="24.9062" y1="28.2781" x2="24.9062" y2="19.7219"/><path class="a" d="M9.5,22.9507a3.2287,3.2287,0,0,1,3.2287-3.2288h0a3.2287,3.2287,0,0,1,3.2287,3.2288v2.0986a3.2287,3.2287,0,0,1-3.2287,3.2288h0A3.2287,3.2287,0,0,1,9.5,25.0493"/><line class="a" x1="9.5" y1="28.2781" x2="9.5" y2="15.3632"/><path class="a" d="M38.5,25.0493a3.2287,3.2287,0,0,1-3.2287,3.2288h0a3.2287,3.2287,0,0,1-3.2287-3.2288V22.9507a3.2287,3.2287,0,0,1,3.2287-3.2288h0A3.2287,3.2287,0,0,1,38.5,22.9507"/><line class="a" x1="38.5" y1="19.7219" x2="38.5" y2="32.6368"/></svg>