<svg xmlns="http://www.w3.org/2000/svg" viewBox="0 0 48 48"><defs><style>.a{fill:none;stroke:#fff;stroke-linecap:round;stroke-linejoin:round;}</style></defs><path class="a" d="M40.3335,34.0415v7.709a1.5,1.5,0,0,1-1.5,1.5H11.521A3.8545,3.8545,0,0,1,7.6665,39.396h0a3.8545,3.8545,0,0,1,3.8545-3.8545H38.8335a1.5,1.5,0,0,0,1.5-1.5V6.25a1.5,1.5,0,0,0-1.5-1.5H11.521A3.8545,3.8545,0,0,0,7.6665,8.604V39.396"/><ellipse class="a" cx="24.125" cy="19.9533" rx="11.271" ry="9.3364"/><path class="a" d="M19.5541,20.1464c.5033-.4262,2.392-2.0282,2.568-2.1689a.7338.7338,0,0,0,.188-.8118,13.86,13.86,0,0,1-.36-1.6954.638.638,0,0,0-.7245-.4787l-.0222.0024H18.4463a.4486.4486,0,0,0-.44.3743,8.3135,8.3135,0,0,0,1.4948,4.7l-.0007.0007.0128.0173.0407.06.0022-.0019a10.7452,10.7452,0,0,0,4.22,3.4883l-.004.0032s.05.0242.1412.0653l.0045.0022h0a13.3367,13.3367,0,0,0,5.6171,1.215.4544.4544,0,0,0,.4514-.3644V22.268a.5685.5685,0,0,0-.5529-.6168l-.0212-.0023q-1.0312-.1044-2.045-.2982a1.1814,1.1814,0,0,0-.979.1559c-.17.1464-2.1,1.7106-2.6163,2.1294"/><line class="a" x1="16.1565" y1="26.5541" x2="32.0935" y2="13.3525"/></svg>