<?xml version="1.0" encoding="UTF-8"?><svg id="b" xmlns="http://www.w3.org/2000/svg" viewBox="0 0 48 48"><defs><style>.e{fill:none;stroke:#fff;stroke-linecap:round;stroke-linejoin:round;}</style></defs><g id="c"><path id="d" class="e" d="M38.5,5.5H9.5c-2.2091,0-4,1.7909-4,4v29c0,2.2091,1.7909,4,4,4h29c2.2091,0,4-1.7909,4-4V9.5c0-2.2091-1.7909-4-4-4Z"/></g><line class="e" x1="24.8351" y1="24" x2="19.3315" y2="24"/><path class="e" d="M19.3315,12.5h4.8297c2.1171,0,3.8333,1.7162,3.8333,3.8333v3.8333c0,2.1171-1.7162,3.8333-3.8333,3.8333h.6739c2.1171,0,3.8333,1.7162,3.8333,3.8333v3.8333c0,2.1171-1.7162,3.8333-3.8333,3.8333h-5.5036"/><line class="e" x1="19.3315" y1="12.5" x2="19.3315" y2="35.5"/></svg>