<svg xmlns="http://www.w3.org/2000/svg" viewBox="0 0 48 48"><defs><style>.a{fill:none;stroke:#fff;stroke-linecap:round;stroke-linejoin:round;}</style></defs><path class="a" d="M11.2,10.1H36.7a1.22,1.22,0,0,1,1.2,1.2V36.9a1.22,1.22,0,0,1-1.2,1.2H11.2A1.22,1.22,0,0,1,10,36.9V11.2A1.2,1.2,0,0,1,11.2,10.1Z"/><circle class="a" cx="14.5" cy="33.4" r="1.6"/><path class="a" d="M27.4,14.4H29c2.5,0,4.4,2.5,4.4,5.7v4.1c0,3.1-2,5.7-4.4,5.7H27.4c-2.5,0-4.4-2.5-4.4-5.7V20.1C22.9,16.9,24.9,14.4,27.4,14.4Z"/><path class="a" d="M25,19.2,31,25l-2.7,2.6V17l2.6,2.5-5.9,6"/><path class="a" d="M12.5,5.4V10"/><path class="a" d="M15.8,5.4V10"/><path class="a" d="M19,5.4V10"/><path class="a" d="M22.3,5.4V10"/><path class="a" d="M25.6,5.4V10"/><path class="a" d="M28.8,5.4V10"/><path class="a" d="M32.1,5.4V10"/><path class="a" d="M35.3,5.4V10"/><path class="a" d="M12.5,38v4.6"/><path class="a" d="M15.8,38v4.6"/><path class="a" d="M19,38v4.6"/><path class="a" d="M22.3,38v4.6"/><path class="a" d="M25.6,38v4.6"/><path class="a" d="M28.8,38v4.6"/><path class="a" d="M32.1,38v4.6"/><path class="a" d="M35.3,38v4.6"/><path class="a" d="M5.5,12.5H10"/><path class="a" d="M5.5,15.8H10"/><path class="a" d="M5.5,19.1H10"/><path class="a" d="M5.5,22.4H10"/><path class="a" d="M5.5,25.7H10"/><path class="a" d="M5.5,28.9H10"/><path class="a" d="M5.5,32.2H10"/><path class="a" d="M37.9,12.5h4.6"/><path class="a" d="M37.9,15.8h4.6"/><path class="a" d="M37.9,19.1h4.6"/><path class="a" d="M37.9,22.4h4.6"/><path class="a" d="M37.9,25.7h4.6"/><path class="a" d="M37.9,28.9h4.6"/><path class="a" d="M37.9,32.2h4.6"/><path class="a" d="M5.5,35.6H10"/><path class="a" d="M37.9,35.6h4.6"/></svg>