<?xml version="1.0" encoding="UTF-8"?><svg id="a" xmlns="http://www.w3.org/2000/svg" viewBox="0 0 48 48"><defs><style>.b{fill:none;stroke:#fff;stroke-linecap:round;stroke-linejoin:round;}</style></defs><path class="b" d="m41.5,17.5h-9c-1.1046,0-2-.8954-2-2V6.5c0-.5523-.4477-1-1-1h-11c-.5523,0-1,.4477-1,1v9c0,1.1046-.8954,2-2,2H6.5c-.5523,0-1,.4477-1,1v11c0,.5523.4477,1,1,1h9c1.1046,0,2,.8954,2,2v9c0,.5523.4477,1,1,1h11c.5523,0,1-.4477,1-1v-9c0-1.1046.8954-2,2-2h9c.5523,0,1-.4477,1-1v-11c0-.5523-.4477-1-1-1Z"/></svg>