<svg xmlns="http://www.w3.org/2000/svg" viewBox="0 0 48 48"><defs><style>.a{fill:none;stroke:#fff;stroke-linecap:round;stroke-linejoin:round;}</style></defs><path class="a" d="M5.7786,20.9965,18.72,12.826l6.2329,6.09"/><path class="a" d="M25.2219,22.1991,34.9448,15.8l7.2587,6.1447"/><path class="a" d="M5.5065,38.0492H42.5"/><path class="a" d="M5.9453,30.4977H42.5"/><path class="a" d="M31.3072,15.9765S28.43,13.215,23.2991,14.3249"/><path class="a" d="M42.5,24.5152a2.5193,2.5193,0,0,1-3.7913,1.1483,2.5676,2.5676,0,0,1-2.9073-.007,2.5678,2.5678,0,0,1-2.9073-.0069,2.5678,2.5678,0,0,1-2.9073-.0069,2.568,2.568,0,0,1-2.9073-.007,2.5678,2.5678,0,0,1-2.9073-.0069,2.5676,2.5676,0,0,1-2.9073-.007,2.5678,2.5678,0,0,1-2.9073-.0069A2.5678,2.5678,0,0,1,15.45,25.608a2.568,2.568,0,0,1-2.9073-.007,2.5678,2.5678,0,0,1-2.9073-.0069v.0014A2.9171,2.9171,0,0,1,5.5,24.5043"/><path class="a" d="M7.2986,5.5H40.7014A1.7987,1.7987,0,0,1,42.5,7.2986V40.7014A1.7987,1.7987,0,0,1,40.7014,42.5H7.2986A1.7987,1.7987,0,0,1,5.5,40.7014V7.2986A1.7987,1.7987,0,0,1,7.2986,5.5Z"/></svg>