<?xml version="1.0" encoding="UTF-8"?><svg id="a" xmlns="http://www.w3.org/2000/svg" viewBox="0 0 48 48"><defs><style>.b{fill:none;stroke:#fff;stroke-linecap:round;stroke-linejoin:round;}</style></defs><path class="b" d="m27.5336,20.6253c-5.0592,1.9387-7.7754-8.1693-1.5551-8.5529,15.1568-2.3326,23.3261,19.4384,6.6039,25.6587-4.6652,1.1611-6.2203-6.2203-2.7162-7.7754,7.7754-3.8877,1.9387-11.2795-2.3326-9.3304Z"/><path class="b" d="m21.6969,25.2905c1.1715,4.6652-6.9978,7.3814-8.5529,3.4937L6.5401,12.0724c-.781-2.0734-.394-3.5006,1.1611-4.2816l5.8367-1.9387c2.0734-.781,3.3693-.2626,3.8877,1.5551l4.2713,17.8834Z"/><path class="b" d="m20.9194,32.9518c2.6333,0,4.7793,2.1356,4.7793,4.7793,0,2.6333-2.146,4.7689-4.7793,4.7689s-4.7793-2.1356-4.7793-4.7689c0-2.6436,2.146-4.7793,4.7793-4.7793Z"/></svg>