<svg xmlns="http://www.w3.org/2000/svg" viewBox="0 0 48 48"><defs><style>.a{fill:none;stroke:#fff;stroke-linecap:round;stroke-linejoin:round;}</style></defs><path class="a" d="M24.7313,24a2.2566,2.2566,0,0,1,2.25,2.25h0a2.2566,2.2566,0,0,1-2.25,2.25h-.9a3.66,3.66,0,0,1-2.8125-.7875"/><path class="a" d="M21.0188,20.2875A3.8278,3.8278,0,0,1,23.8313,19.5h.9a2.2566,2.2566,0,0,1,2.25,2.25h0a2.2566,2.2566,0,0,1-2.25,2.25h-2.25"/><path class="a" d="M40.5,5.5H7.5a2,2,0,0,0-2,2v33a2,2,0,0,0,2,2h26l9-9V7.5A2,2,0,0,0,40.5,5.5Z"/><line class="a" x1="33.5" y1="5.5" x2="33.5" y2="42.5"/><line class="a" x1="14.5" y1="14.5" x2="14.5" y2="42.5"/><line class="a" x1="42.5" y1="33.5" x2="5.5" y2="33.5"/><line class="a" x1="42.5" y1="14.5" x2="14.5" y2="14.5"/></svg>