<svg id="Layer_1" data-name="Layer 1" xmlns="http://www.w3.org/2000/svg" viewBox="0 0 48 48"><defs><style>.cls-1,.cls-2{fill:none;stroke:#fff;stroke-linecap:round;stroke-linejoin:round;}.cls-1{stroke-width:0.96px;}</style></defs><line class="cls-1" x1="27.43" y1="37" x2="36.43" y2="37"/><line class="cls-1" x1="27.43" y1="21.45" x2="31.93" y2="19"/><line class="cls-1" x1="31.93" y1="19" x2="31.93" y2="37"/><path class="cls-1" d="M18.7,37a4.5,4.5,0,0,0,4.5-4.5h0A4.51,4.51,0,0,0,18.7,28h0a4.5,4.5,0,0,0,4.5-4.5h0A4.51,4.51,0,0,0,18.7,19"/><path class="cls-1" d="M11.57,35.48c1.24,1,2.59,1.52,5.6,1.52H18.7"/><path class="cls-1" d="M11.57,20.5c1.25-1,2.59-1.51,5.6-1.5H18.7"/><path class="cls-2" d="M15.8,8.58a2.51,2.51,0,1,1-2.51,2.51h0A2.51,2.51,0,0,1,15.8,8.58Zm16.4,0a2.51,2.51,0,0,1,2.51,2.51h0A2.51,2.51,0,0,1,32.2,13.6h0a2.51,2.51,0,1,1,0-5Z"/><path class="cls-2" d="M7.5,5.5a2,2,0,0,0-2,2v33a2,2,0,0,0,2,2h33a2,2,0,0,0,2-2V7.5a2,2,0,0,0-2-2Z"/></svg>