<?xml version="1.0" encoding="UTF-8"?><svg xmlns="http://www.w3.org/2000/svg" viewBox="0 0 48 48"><defs><style>.c{fill:none;stroke:#fff;stroke-linecap:round;stroke-linejoin:round;}</style></defs><g id="a"><path class="c" d="M25.8685,30.6667c0,2.963,2.3704,5.3333,5.3333,5.3333s5.1358-2.3704,5.1358-5.3333v-5.3333c0-2.963-2.3704-5.3333-5.1358-5.3333s-5.3333,2.3704-5.3333,5.3333v5.3333Z"/><path class="c" d="M11.6624,25.3333c0-2.963,2.3704-5.3333,5.1358-5.3333s5.3333,2.3704,5.3333,5.3333c0,1.3827-.5926,2.7654-1.5803,3.7531-2.1728,1.7778-8.8889,6.9136-8.8889,6.9136h10.4692"/></g><g id="b"><rect class="c" x="6.5" y="7.5" width="35" height="36" rx="4" ry="4"/><line class="c" x1="33.5" y1="4.5" x2="33.5" y2="10.5"/><line class="c" x1="14.5" y1="4.5" x2="14.5" y2="10.5"/></g></svg>