<svg xmlns="http://www.w3.org/2000/svg" viewBox="0 0 48 48"><defs><style>.a{fill:none;stroke:#fff;stroke-linecap:round;stroke-linejoin:round;}</style></defs><line class="a" x1="18.7858" y1="20.7375" x2="21.0358" y2="19.5"/><line class="a" x1="21.0358" y1="19.5" x2="21.0358" y2="28.5"/><circle class="a" cx="26.2142" cy="25.5" r="3"/><path class="a" d="M28.8809,20.6111A2.7289,2.7289,0,0,0,26.4365,19.5h-.2223a2.9875,2.9875,0,0,0-3,3v3"/><path class="a" d="M40.5,5.5H7.5a2,2,0,0,0-2,2v33a2,2,0,0,0,2,2h26l9-9V7.5A2,2,0,0,0,40.5,5.5Z"/><line class="a" x1="33.5" y1="5.5" x2="33.5" y2="42.5"/><line class="a" x1="14.5" y1="14.5" x2="14.5" y2="42.5"/><line class="a" x1="42.5" y1="33.5" x2="5.5" y2="33.5"/><line class="a" x1="42.5" y1="14.5" x2="14.5" y2="14.5"/></svg>