<svg xmlns="http://www.w3.org/2000/svg" viewBox="0 0 48 48"><defs><style>.a{fill:none;stroke:#fff;stroke-linecap:round;stroke-linejoin:round;}</style></defs><path class="a" d="M24.6923,25.5a2.9875,2.9875,0,0,0,3,3,2.8952,2.8952,0,0,0,2.8889-3v-3a2.9657,2.9657,0,0,0-2.8889-3,3.06,3.06,0,0,0-3,3Z"/><path class="a" d="M21.0854,23.9444a2.2288,2.2288,0,0,1,2.2223,2.2223h0a2.2288,2.2288,0,0,1-2.2223,2.2222h-.8889a3.6144,3.6144,0,0,1-2.7777-.7778"/><path class="a" d="M17.4188,20.2778A3.78,3.78,0,0,1,20.1966,19.5h.8888a2.2288,2.2288,0,0,1,2.2223,2.2222h0a2.2288,2.2288,0,0,1-2.2223,2.2222H18.8632"/><path class="a" d="M40.5,5.5H7.5a2,2,0,0,0-2,2v33a2,2,0,0,0,2,2h26l9-9V7.5A2,2,0,0,0,40.5,5.5Z"/><line class="a" x1="33.5" y1="5.5" x2="33.5" y2="42.5"/><line class="a" x1="14.5" y1="14.5" x2="14.5" y2="42.5"/><line class="a" x1="42.5" y1="33.5" x2="5.5" y2="33.5"/><line class="a" x1="42.5" y1="14.5" x2="14.5" y2="14.5"/></svg>