<?xml version="1.0" encoding="UTF-8"?><svg xmlns="http://www.w3.org/2000/svg" viewBox="0 0 48 48"><defs><style>.c{fill:none;stroke:#fff;stroke-linecap:round;stroke-linejoin:round;}</style></defs><g id="a"><path class="c" d="M11.6624,25.3333c0-2.963,2.3704-5.3333,5.1358-5.3333s5.3333,2.3704,5.3333,5.3333c0,1.3827-.5926,2.7654-1.5803,3.7531-2.1728,1.7778-8.8889,6.9136-8.8889,6.9136h10.4692"/><path class="c" d="M26.3048,34.6504c1.1045.9255,2.1762,1.3496,4.8543,1.3496h.4601c2.4773,0,4.4855-2.0082,4.4855-4.4855h0c0-2.4773-2.0082-4.4856-4.4855-4.4856h-5.3145v-7.0289h9.8"/></g><g id="b"><rect class="c" x="6.5" y="7.5" width="35" height="36" rx="4" ry="4"/><line class="c" x1="33.5" y1="4.5" x2="33.5" y2="10.5"/><line class="c" x1="14.5" y1="4.5" x2="14.5" y2="10.5"/></g></svg>