<svg xmlns="http://www.w3.org/2000/svg" viewBox="0 0 48 48"><defs><style>.a{fill:none;stroke:#fff;stroke-linecap:round;stroke-linejoin:round;}</style></defs><line class="a" x1="11.9396" y1="37" x2="20.9396" y2="37"/><line class="a" x1="11.9396" y1="21.475" x2="16.4396" y2="19"/><line class="a" x1="16.4396" y1="19" x2="16.4396" y2="37"/><line class="a" x1="27.0604" y1="37" x2="36.0604" y2="37"/><line class="a" x1="27.0604" y1="21.475" x2="31.5604" y2="19"/><line class="a" x1="31.5604" y1="19" x2="31.5604" y2="37"/><circle class="a" cx="32.5" cy="11" r="2.5"/><circle class="a" cx="15.5" cy="11" r="2.5"/><path class="a" d="M7.5,5.5a2,2,0,0,0-2,2v33a2,2,0,0,0,2,2h33a2,2,0,0,0,2-2V7.5a2,2,0,0,0-2-2Z"/></svg>