<svg xmlns="http://www.w3.org/2000/svg" viewBox="0 0 48 48"><defs><style>.a{fill:none;stroke:#fff;stroke-linecap:round;stroke-linejoin:round;}</style></defs><path class="a" d="M10.8376,25a5.9314,5.9314,0,0,1,5.7777-6,5.9712,5.9712,0,0,1,4.2222,10.2222c-2.4444,2-10,7.7778-10,7.7778H22.6153"/><circle class="a" cx="31.2736" cy="31" r="6"/><path class="a" d="M36.6069,21.2222C35.718,19.8889,34.1625,19,31.7181,19h-.4445a5.9751,5.9751,0,0,0-6,6v6"/><circle class="a" cx="32.5" cy="11" r="2.5"/><circle class="a" cx="15.5" cy="11" r="2.5"/><path class="a" d="M7.5,5.5a2,2,0,0,0-2,2v33a2,2,0,0,0,2,2h33a2,2,0,0,0,2-2V7.5a2,2,0,0,0-2-2Z"/></svg>