<svg xmlns="http://www.w3.org/2000/svg" viewBox="0 0 48 48"><defs><style>.a{fill:none;stroke:#fff;stroke-linecap:round;stroke-linejoin:round;}</style></defs><path class="a" d="M10.8376,25a5.9314,5.9314,0,0,1,5.7777-6,5.9712,5.9712,0,0,1,4.2222,10.2222c-2.4444,2-10,7.7778-10,7.7778H22.6153"/><path class="a" d="M32.718,27.8889a4.4575,4.4575,0,0,1,4.4445,4.4444h0a4.4575,4.4575,0,0,1-4.4445,4.4445H30.94c-3.1111,0-4.2223-.4445-5.5556-1.5556"/><path class="a" d="M25.3847,20.5556C26.7181,19.4445,28.0514,19,30.94,19H32.718a4.4575,4.4575,0,0,1,4.4445,4.4444h0a4.4575,4.4575,0,0,1-4.4445,4.4445H28.2736"/><circle class="a" cx="32.5" cy="11" r="2.5"/><circle class="a" cx="15.5" cy="11" r="2.5"/><path class="a" d="M7.5,5.5a2,2,0,0,0-2,2v33a2,2,0,0,0,2,2h33a2,2,0,0,0,2-2V7.5a2,2,0,0,0-2-2Z"/></svg>