<svg id="Layer_1" data-name="Layer 1" xmlns="http://www.w3.org/2000/svg" viewBox="0 0 48 48"><defs><style>.cls-1{fill:none;stroke:#fff;stroke-linecap:round;stroke-linejoin:round;}</style></defs><path class="cls-1" d="M18,35.43c1.35,1.12,2.47,1.57,5.4,1.57h.67A6,6,0,0,0,30,31.15h0a6,6,0,0,0-5.85-5.85H18V19H30"/><path class="cls-1" d="M15.8,8.58a2.51,2.51,0,1,1-2.51,2.51h0A2.51,2.51,0,0,1,15.8,8.58Zm16.4,0a2.51,2.51,0,0,1,2.51,2.51h0A2.51,2.51,0,0,1,32.2,13.6h0a2.51,2.51,0,1,1,0-5Z"/><path class="cls-1" d="M7.5,5.5a2,2,0,0,0-2,2v33a2,2,0,0,0,2,2h33a2,2,0,0,0,2-2V7.5a2,2,0,0,0-2-2Z"/></svg>