<?xml version="1.0" encoding="UTF-8"?><svg id="a" xmlns="http://www.w3.org/2000/svg" viewBox="0 0 48 48"><defs><style>.b{fill:none;stroke:#fff;stroke-linecap:round;stroke-linejoin:round;}</style></defs><path class="b" d="M24,16.92c4.6944,0,8.5,3.8056,8.5,8.5s-3.8056,8.5-8.5,8.5-8.5-3.8056-8.5-8.5h0c0-4.6944,3.8056-8.5,8.5-8.5Z"/><path class="b" d="M39.5,12.02h-8l-2.5944-4h-9.8113l-2.5944,4h-8c-2.2092,0-4,1.7909-4,4v18.8c0,2.2091,1.7908,4,4,4h31c2.2092,0,4-1.7909,4-4v-18.8c0-2.2091-1.7908-4-4-4Z"/><circle class="b" cx="38.5" cy="17.02" r="2"/></svg>