<?xml version="1.0" encoding="UTF-8"?><svg id="a" xmlns="http://www.w3.org/2000/svg" viewBox="0 0 48 48"><defs><style>.b{fill:none;stroke:#fff;stroke-linecap:round;stroke-linejoin:round;}</style></defs><path class="b" d="m43.5 9c-16.253 0-39 10.024-39 19.702 0 6.2981 7.6273 10.298 19.5 10.298 1.6126 0 5.9663 0 7.9744-.53807l3.0834-7.8819c-1.9674.52715-14.144.92399-14.144-4.8383 0-7.3491 17.997-12.317 20.292-12.317z"/><path class="b" d="m32.166 30.854-4.2247 8.1459"/><path class="b" d="m32.984 35.881c-3.9113.93661-22.985.43558-22.985-8.1713 0-10.939 25.897-17.499 32.873-17.499"/><path class="b" d="m34.164 32.866c-3.3846.66199-18.281.40407-18.281-6.217 0-9.3543 23.882-15.041 26.265-15.041"/></svg>
