<?xml version="1.0" encoding="UTF-8"?><svg id="a" xmlns="http://www.w3.org/2000/svg" viewBox="0 0 48 48"><defs><style>.b{fill:none;stroke:#fff;stroke-linecap:round;stroke-linejoin:round;}</style></defs><path class="b" d="m10.35 5.45h27.3a4.23 4.23 0 014.2 4.2v28.7a4.23 4.23 0 01-4.2 4.2h-27.3a4.23 4.23 0 01-4.2-4.2v-28.7a4.29 4.29 0 014.2-4.2z"/><path class="b" d="m12.65 8.2h22.7a3.33 3.33 0 013.3 3.3v22.7a3.33 3.33 0 01-3.3 3.3h-22.7a3.33 3.33 0 01-3.3-3.3v-22.7a3.4 3.4 0 013.3-3.3z"/><path class="b" d="m31.8 26.3a3.69 3.69 0 01-3.7 3.7 3.69 3.69 0 01-3.7-3.7v-2.4a3.69 3.69 0 013.7-3.7 3.69 3.69 0 013.7 3.7"/><path class="b" d="m33.3 30a1.54 1.54 0 01-1.5-1.5v-8.4"/><line class="b" x1="26.9" x2="29.3" y1="18.1" y2="17.3"/><path class="b" d="m7.2459 41.161 3.3867-4.3646"/><path class="b" d="m7.1879 6.9402 2.9769 2.4484"/><path class="b" d="m40.789 41.161-3.3867-4.3646"/><path class="b" d="m40.847 6.9402-2.9769 2.4484"/></svg>
