<svg xmlns="http://www.w3.org/2000/svg" viewBox="0 0 48 48"><defs><style>.a{fill:none;stroke:#fff;stroke-linecap:round;stroke-linejoin:round;}</style></defs><path class="a" d="M14.7647,34.3816a15.058,15.058,0,0,0,18.4707-.0007"/><path class="a" d="M36.3673,13.905a15.0578,15.0578,0,0,0-24.7348-.001"/><line class="a" x1="23.9996" y1="22.4912" x2="23.1049" y2="13.9339"/><line class="a" x1="15.7548" y1="12.7284" x2="23.9996" y2="22.4912"/><line class="a" x1="5.6845" y1="23.4274" x2="14.7308" y2="23.4274"/><polygon class="a" points="13.24 23.427 7.176 23.427 4.79 40.564 15.625 40.564 13.24 23.427"/><line class="a" x1="4.7898" y1="40.5635" x2="15.6255" y2="40.5635"/><line class="a" x1="5.2073" y1="37.5647" x2="15.208" y2="37.5647"/><path class="a" d="M13.24,23.4274,15.9161,15.74a9.7194,9.7194,0,0,0-5.7085-1.9516A9.7192,9.7192,0,0,0,4.5,15.7392l2.6757,7.6882Z"/><line class="a" x1="10.2076" y1="13.7883" x2="10.2076" y2="8.0148"/><line class="a" x1="7.3208" y1="10.5338" x2="13.0944" y2="10.5338"/><line class="a" x1="33.2684" y1="23.4274" x2="42.3147" y2="23.4274"/><polygon class="a" points="40.824 23.427 34.76 23.427 32.374 40.564 43.209 40.564 40.824 23.427"/><line class="a" x1="32.3737" y1="40.5635" x2="43.2094" y2="40.5635"/><line class="a" x1="32.7912" y1="37.5647" x2="42.7918" y2="37.5647"/><path class="a" d="M40.8235,23.4274,43.5,15.74a9.3246,9.3246,0,0,0-11.4161-.0007L34.76,23.4274Z"/><line class="a" x1="37.7915" y1="13.7883" x2="37.7915" y2="11.9877"/></svg>