<svg xmlns="http://www.w3.org/2000/svg" viewBox="0 0 48 48"><defs><style>.a{fill:none;stroke:#fff;stroke-linecap:round;stroke-linejoin:round;}</style></defs><path class="a" d="M16.1921,27.0537,11.08,21.749c-3.1369-3.2552-6.7283-.1526-6.5757,2.8291a3.7941,3.7941,0,0,0,6.6722,2.1863L16.1922,21.46"/><path class="a" d="M21.3917,15.8059l5.0154-4.9188c3.5974-3.5283,9.4056,1.23,5.2083,5.4011L16.3768,31.43c-4.4062,4.3783,1.9256,8.8767,5.4011,5.401l4.5331-4.5331"/><path class="a" d="M26.3106,15.9023l-4.9189-5.2082c-3.3439-3.5407-9.0789,1.3882-5.4011,5.1117L31.5184,31.5275c4.2089,4.2611-1.8413,9.3729-5.4976,5.7869l-5.0153-4.9188"/><path class="a" d="M31.8079,21.3032,36.92,26.6079c3.137,3.2553,6.7283.1527,6.5757-2.829a3.7941,3.7941,0,0,0-6.6722-2.1863l-5.0153,5.3046"/></svg>