<?xml version="1.0" encoding="UTF-8"?><svg id="a" xmlns="http://www.w3.org/2000/svg" viewBox="0 0 48 48"><defs><style>.c{fill:none;stroke:#fff;stroke-linecap:round;stroke-linejoin:round;}.d{fill:#fff;stroke-width:0px;}</style></defs><path id="b" class="c" d="m24,43.5s-4.4727-4.837-6.4401-7.6691c-2.5181-3.6248-6.349-11.5582-6.349-11.5582-.8151-1.8093-1.2366-3.7709-1.2366-5.7551,0-7.7417,6.2795-14.0176,14.0258-14.0176s14.0257,6.2759,14.0257,14.0176h0c0,1.9842-.4215,3.9458-1.2366,5.7551,0,0-3.8309,7.9334-6.349,11.5582-.8141,1.1719-2.0572,2.6871-3.2314,4.0568l-5.648-6.3689,1.5611-1.8015-1.4685-1.9488,1.5343-1.6766-1.4891-1.9458.0028-2.3314c-2.5736-.9379-4.4111-3.4056-4.4111-6.3022,0-3.7037,3.0042-6.7061,6.71-6.7061s6.71,3.0024,6.71,6.7061c0,2.9424-1.8961,5.4421-4.5337,6.3455v8.5118"/><circle class="d" cx="24" cy="15.8122" r=".75"/></svg>