<?xml version="1.0" encoding="UTF-8"?><svg id="b" xmlns="http://www.w3.org/2000/svg" viewBox="0 0 48 48"><defs><style>.d{fill:#fff;}.e{fill:none;stroke:#fff;stroke-linecap:round;stroke-linejoin:round;}</style></defs><path class="e" d="M16.1193,34.4356c.9332-.1623,1.5885-1.0143,1.7996-1.42M16.8858,35.5513c.8265,0,1.6107-1.0143,1.8996-1.5214M18.4188,36.1937c.2932.0541.8109-.2254,1.0331-.3719M15.5528,33.3875c-.4532-1.2712-.5221-1.7694-.4999-1.8595M38.9137,34.3679l-1.3663-1.2171M38.1806,35.3146l-1.2997-1.2171M37.3141,36.0584l-.8998-.9467"/><path class="e" d="M9.6395,32.8829l1.1891,3.4259c.1034.2978.4533.4268.7253.2674l3.3104-1.9406M15.8016,36.2998l-4.5283,3.3521c-.426.3153-1.022.2422-1.3378-.1835-.7429-1.0014-1.9755-2.8299-2.3049-4.3359"/><path class="e" d="M8.6801,31.9439V11.6527c0-.8554.5454-1.6105,1.3737-1.8242,2.3257-.6002,7.5076-1.6747,14.7998-1.6747,6.7835,0,10.8956.5917,12.8692.9817.8563.1692,1.4237.9283,1.4237,1.8011v15.7415M11.5011,33.9411v-15.981c0-.5568.2362-1.0853.713-1.3727,1.4588-.8793,5.3475-2.627,13.3918-2.7917,8.1511-.1669,11.0163,1.2593,11.9306,1.9674.2839.2199.3876.5729.3876.9321v8.6664M15.8265,30.4394c-.0447-2.5369,1.2575-4.3728,3.2167-5.6327M32.2821,31.0036c0-.1977-.2919-.6456-1.6575-.9139M32.2821,31.0036c2.5465-.3217,6.1707-.9139,5.4019-5.263M32.2821,31.0036c0,.0731-.0966.16-.287.2492M23.3047,31.0036c0,.1246.3057.2891.8808.4366M23.3047,31.0036c0-.0775.0546-.1933.2055-.3217M23.3047,31.0036c-.5304,1.0164-1.7266,2.6399-3.285,3.3906M21.4685,10.2225s1.0312,1.1823,4.1374,1.3164c3.1061.1342,4.5135-1.3164,4.5135-1.3164M24.4596,22.8572c1.1303-.1951,2.2843-.297,3.403-.3165,1.9463-.034,3.993.3375,5.8541,1.0184M24.4596,22.8572c0,2.5787.4446,6.2324,2.054,7.0587M24.4596,22.8572c-1.986.3428-3.8984.9733-5.4164,1.9495M26.5136,29.9159c.4005-.0261.8484-.0407,1.349-.0407,1.2198,0,2.1124.0869,2.762.2145M26.5136,29.9159c-1.8226.1188-2.661.4747-3.0034.766M33.7167,23.5591c.2119,2.0599-1.3967,5.6168-3.0921,6.5306M33.7167,23.5591c1.4904.5452,2.8618,1.2888,3.9673,2.1815M37.684,25.7406c1.6108,1.3007,2.6573,2.9178,2.6849,4.6988.0155.9977-.3275,1.9606-.936,2.8508M31.9951,31.2528c-.3072.1439-.8585.2936-1.6415.4009M31.9951,31.2528c.1897,1.0434,1.8189,2.5876,3.2849,3.5M30.3536,31.6537c-.6655.0911-1.4984.1516-2.491.1516-1.6515,0-2.9063-.1673-3.6771-.3651M30.3536,31.6537c-.0722,2.6939.494,5.5783,1.9285,6.1313M32.2821,37.785c-1.6989.4667-3.4867.677-5.1717.5531-1.7486-.1287-3.5462-.4413-5.1782-.9905M32.2821,37.785c1.3366-.3671,2.6181-.893,3.7514-1.5395M24.1855,31.4402c-.0735,3.7356-1.5328,5.4948-2.2533,5.9074M21.9322,37.3476c-.5813-.1957-1.1417-.4213-1.6714-.6794M23.5102,30.6819c-4.7439.1005-4.6819-4.6276-4.467-5.8752"/><circle class="d" cx="17.6763" cy="10.6211" r=".75"/><circle class="d" cx="34.1096" cy="10.6211" r=".75"/></svg>