<svg xmlns="http://www.w3.org/2000/svg" viewBox="0 0 48 48"><defs><style>.a{fill:none;stroke:#fff;stroke-linecap:round;stroke-linejoin:round;}</style></defs><circle class="a" cx="10.77" cy="11.41" r="1.21"/><circle class="a" cx="22.09" cy="6.92" r="1.21"/><circle class="a" cx="39.25" cy="14.7" r="2.08"/><circle class="a" cx="37.76" cy="25.52" r="2.13"/><circle class="a" cx="39.34" cy="34.82" r="1.21"/><circle class="a" cx="29.19" cy="36.8" r="1.11"/><circle class="a" cx="19.09" cy="40.62" r="2.09"/><circle class="a" cx="28.08" cy="26.11" r="1.1"/><circle class="a" cx="21.64" cy="15.44" r="1.95"/><circle class="a" cx="10.7" cy="26.08" r="3.67"/><path class="a" d="M23.47,7.55,37,13.7"/><path class="a" d="M38.92,17.05l-.84,6.1"/><path class="a" d="M38.18,28l.94,5.51"/><path class="a" d="M37.91,35.1l-7.28,1.42"/><path class="a" d="M27.91,37.29l-6.54,2.47"/><path class="a" d="M29,35.32l-.8-7.72"/><path class="a" d="M17.85,38.48l-5.16-8.95"/><path class="a" d="M14.11,28.06l13.85,8"/><path class="a" d="M14.67,26.09l12,0"/><path class="a" d="M22.79,17.34l4.55,7.55"/><path class="a" d="M13.52,23.34l6.42-6.24"/><path class="a" d="M10.76,12.87l0,9.31"/><path class="a" d="M12.11,10.88l8.62-3.42"/><path class="a" d="M22,8.3l-.26,4.82"/><path class="a" d="M23.88,15.35l13.18-.56"/><path class="a" d="M35.32,25.67,29.46,26"/></svg>