<?xml version="1.0" encoding="UTF-8"?><svg id="a" xmlns="http://www.w3.org/2000/svg" viewBox="0 0 48 48"><defs><style>.b{fill:none;stroke:#fff;stroke-linecap:round;stroke-linejoin:round;}</style></defs><path class="b" d="M40.0121,11.3116c-1.3106-1.332-3.1322-2.0212-4.9883-1.8874h0c-1.5393.1123-2.9863.7827-4.0736,1.8872-2.5026,2.5446-2.5026,6.6479,0,9.1925,2.481,2.5233,6.5209,2.5407,9.0232.0389.0129-.0129.0258-.0259.0386-.0389M10.967,15.9683c-.0006,1.2959-1.0512,2.3461-2.3471,2.3461s-2.3465-1.0502-2.3471-2.3461c0-1.2962,1.0508-2.3471,2.3471-2.3471h0c1.2962,0,2.3471,1.0508,2.3471,2.3471h0M34.037,40.1543c-.0006,1.2959-1.0512,2.3461-2.3471,2.3461s-2.3465-1.0502-2.3471-2.3461c0-1.2962,1.0508-2.3471,2.3471-2.3471h0c1.2962,0,2.3471,1.0508,2.3471,2.3471h0M18.658,40.1543c-.0006,1.2959-1.0512,2.3461-2.3471,2.3461s-2.3465-1.0502-2.3471-2.3461c0-1.2962,1.0508-2.3471,2.3471-2.3471h0c1.2962,0,2.3471,1.0508,2.3471,2.3471h0M41.728,32.1561c0,1.2962-1.0508,2.3471-2.3471,2.3471h0c-1.2962,0-2.3471-1.0508-2.3471-2.3471h0c0-1.2962,1.0508-2.3471,2.3471-2.3471h0c1.2962,0,2.3471,1.0508,2.3471,2.3471h0M34.0378,32.1561c0,1.2962-1.0508,2.3471-2.3471,2.3471h0c-1.2962,0-2.3471-1.0508-2.3471-2.3471h0c0-1.2962,1.0508-2.3471,2.3471-2.3471h0c1.2962,0,2.3471,1.0508,2.3471,2.3471h0M18.6588,32.1561c0,1.2962-1.0508,2.3471-2.3471,2.3471h0c-1.2962,0-2.3471-1.0508-2.3471-2.3471h0c0-1.2962,1.0508-2.3471,2.3471-2.3471h0c1.2962,0,2.3471,1.0508,2.3471,2.3471h0M26.349,32.1561c0,1.2962-1.0508,2.3471-2.3471,2.3471h-.001c-1.2962,0-2.3471-1.0508-2.3471-2.3471h0c0-1.2962,1.0508-2.3471,2.3471-2.3471s2.3471,1.0508,2.3471,2.3471M26.348,24.0359c-.0011,1.2955-1.0516,2.3451-2.3471,2.3451-1.2962,0-2.3471-1.0508-2.3471-2.3471h0c.0006-1.2959,1.0512-2.3461,2.3471-2.3461s2.3471,1.0508,2.3471,2.3471h0M10.968,32.1551c0,1.2959-1.0502,2.3465-2.3461,2.3471-1.2962,0-2.3471-1.0508-2.3471-2.3471h0c0-1.2962,1.0508-2.3471,2.3471-2.3471h0c1.2962,0,2.3471,1.0508,2.3471,2.3471h0M10.969,24.0349c-.0006,1.2955-1.0506,2.3455-2.3461,2.3461-1.2962,0-2.3471-1.0508-2.3471-2.3471h0c0-1.2962,1.0508-2.3471,2.3471-2.3471h0c1.2962,0,2.3471,1.0508,2.3471,2.3471h0M18.6603,15.9657c0,1.2959-1.0502,2.3465-2.3461,2.3471-1.2962,0-2.3471-1.0508-2.3471-2.3471h0c0-1.2962,1.0508-2.3471,2.3471-2.3471h0c1.2962,0,2.3471,1.0508,2.3471,2.3471h0M18.6613,7.8455c-.0006,1.2955-1.0506,2.3455-2.3461,2.3461-1.2962,0-2.3471-1.0508-2.3471-2.3471h0c.0017-1.2943,1.0508-2.343,2.3451-2.3441,1.2962,0,2.3471,1.0508,2.3471,2.3471h0M26.3505,7.8475c-.0006,1.2959-1.0512,2.3461-2.3471,2.3461s-2.3471-1.0508-2.3471-2.3471h0c.0006-1.2955,1.0506-2.3455,2.3461-2.3461,1.2962,0,2.3471,1.0508,2.3471,2.3471h0"/></svg>