<svg xmlns="http://www.w3.org/2000/svg" viewBox="0 0 48 48"><defs><style>.a{fill:none;stroke:#fff;stroke-linecap:round;stroke-linejoin:round;}</style></defs><polyline class="a" points="32.925 15.998 35.01 19.286 38.298 17.202"/><path class="a" d="M35.6816,14.75a9.24,9.24,0,0,0-9.23-9.25H20.9738a9.24,9.24,0,0,0-9.23,9.25h0a9.24,9.24,0,0,0,9.23,9.25h6.0524a9.24,9.24,0,0,1,9.23,9.25h0a9.24,9.24,0,0,1-9.23,9.25H21.5484"/><path class="a" d="M35.6816,14.75a9.24,9.24,0,0,0-9.23-9.25H20.9738a9.24,9.24,0,0,0-9.23,9.25h0a9.24,9.24,0,0,0,9.23,9.25h6.0524a9.24,9.24,0,0,1,9.23,9.25h0a9.24,9.24,0,0,1-9.23,9.25H21.5484"/><path class="a" d="M35.6816,14.75a13.6206,13.6206,0,0,1-.6719,4.5363"/><polyline class="a" points="15.075 32.002 12.99 28.714 9.702 30.798"/><path class="a" d="M12.3184,33.25a9.24,9.24,0,0,0,9.23,9.25"/><path class="a" d="M12.3184,33.25a9.24,9.24,0,0,0,9.23,9.25"/><path class="a" d="M12.3184,33.25a13.6206,13.6206,0,0,1,.6719-4.5363"/><polyline class="a" points="32.002 32.925 28.714 35.01 30.798 38.298"/><path class="a" d="M33.25,35.6816a9.24,9.24,0,0,0,9.25-9.23V20.9738a9.24,9.24,0,0,0-9.25-9.23h0a9.24,9.24,0,0,0-9.25,9.23v6.0524a9.24,9.24,0,0,1-9.25,9.23h0a9.24,9.24,0,0,1-9.25-9.23V21.5484"/><path class="a" d="M33.25,35.6816a9.24,9.24,0,0,0,9.25-9.23V20.9738a9.24,9.24,0,0,0-9.25-9.23h0a9.24,9.24,0,0,0-9.25,9.23v6.0524a9.24,9.24,0,0,1-9.25,9.23h0a9.24,9.24,0,0,1-9.25-9.23V21.5484"/><path class="a" d="M33.25,35.6816a13.6206,13.6206,0,0,1-4.5363-.6719"/><polyline class="a" points="15.998 15.075 19.286 12.99 17.202 9.702"/><path class="a" d="M14.75,12.3184a9.24,9.24,0,0,0-9.25,9.23"/><path class="a" d="M14.75,12.3184a9.24,9.24,0,0,0-9.25,9.23"/><path class="a" d="M14.75,12.3184a13.6206,13.6206,0,0,1,4.5363.6719"/></svg>