<svg id="Layer_2" data-name="Layer 2" xmlns="http://www.w3.org/2000/svg" viewBox="0 0 48 48"><defs><style>.cls-1{fill:none;stroke:#fff;stroke-linecap:round;stroke-linejoin:round;}</style></defs><path class="cls-1" d="M7.45,5.5a2,2,0,0,0-1.95,2v33.1a2,2,0,0,0,2,2h33.1a2,2,0,0,0,2-2V7.45a2,2,0,0,0-2-1.95Zm9.73,2.92a2.44,2.44,0,1,1-2.43,2.44A2.44,2.44,0,0,1,17.18,8.42Zm6.82,0a2.44,2.44,0,1,1-2.43,2.44A2.43,2.43,0,0,1,24,8.42Zm6.82,0a2.44,2.44,0,1,1-2.44,2.44A2.43,2.43,0,0,1,30.82,8.42Zm-20,6.33a2.44,2.44,0,1,1-2.44,2.43A2.43,2.43,0,0,1,10.86,14.75Zm26.28,0a2.44,2.44,0,1,1-2.43,2.43A2.43,2.43,0,0,1,37.14,14.75Zm-19,1.46H29.84a2,2,0,0,1,1.95,1.95V29.84a2,2,0,0,1-1.95,1.95H18.16a2,2,0,0,1-1.95-1.95V18.16A2,2,0,0,1,18.16,16.21Zm-7.3,5.36A2.43,2.43,0,1,1,8.42,24,2.43,2.43,0,0,1,10.86,21.57Zm26.28,0A2.43,2.43,0,1,1,34.71,24,2.43,2.43,0,0,1,37.14,21.57ZM10.86,28.38a2.44,2.44,0,1,1-2.44,2.44A2.43,2.43,0,0,1,10.86,28.38Zm26.28,0a2.44,2.44,0,1,1-2.43,2.44A2.44,2.44,0,0,1,37.14,28.38Zm-20,6.33a2.44,2.44,0,1,1-2.43,2.43A2.43,2.43,0,0,1,17.18,34.71Zm6.82,0a2.44,2.44,0,1,1-2.43,2.43A2.43,2.43,0,0,1,24,34.71Zm6.82,0a2.44,2.44,0,1,1-2.44,2.43A2.43,2.43,0,0,1,30.82,34.71Z"/></svg>