<svg xmlns="http://www.w3.org/2000/svg" viewBox="0 0 48 48"><defs><style>.a{fill:none;stroke:#fff;stroke-linecap:round;stroke-linejoin:round;}</style></defs><circle class="a" cx="25.2114" cy="20.1675" r="9.2901"/><path class="a" d="M21.4942,28.6834c-1.2267,1.349-7.09,4.4687-5.1589,6.339S20.4,31.21,21.8081,33.0448c1.0118,1.3184-.6678,2.793-.6678,4.97s.7905,5.4814,3.182,5.4853c2.6061.0043,1.0424-2.79,1.0424-4.17s.512-1.9862,1.3092-1.9862,1.8182,1.22,2.2781,3.09,1.59,3.4165,3.8939,2.6981c2.7623-.8614,2.5754-2.6368,2.5141-3.7713s-1.441-4.4764-4.2311-3.74S28.7374,39.3,28.952,40.434"/><path class="a" d="M28.0052,29.03c1.9433-.078,5.7375-.6758,5.9444,1.2788s-4.162,1.5384-4.6449,1.5154-1.1959.0406-1.1729.7381c.0185.5593.6439.7359,1.1728.8048s1.7747-.1443,3.1869,2.2159"/><path class="a" d="M23.0052,9.2182,21.9921,4.5,19.57,7.5354l-2.8207-.5366-.5519,2.6828H12.61l3.66,4.2549a9.4609,9.4609,0,0,1,2.9935-3.2431A10.13,10.13,0,0,1,23.0052,9.2182Z"/></svg>