<svg xmlns="http://www.w3.org/2000/svg" viewBox="0 0 48 48"><defs><style>.a{fill:none;stroke:#fff;stroke-linecap:round;stroke-linejoin:round;}.b{fill:#fff;}</style></defs><rect class="a" x="14.9901" y="9.4682" width="13.5573" height="19.545" rx="6.7786"/><line class="a" x1="28.5473" y1="22.2346" x2="28.5473" y2="42.5705"/><path class="a" d="M21.0908,29.0132v3.7283c-4.8015,0-12.0885,6.27-12.0885,9.829"/><path class="a" d="M42.5,42.5705s-2.9374-8.9817-7.6416-8.9817V16.211A10.7816,10.7816,0,0,0,24.0769,5.43h0A10.7815,10.7815,0,0,0,13.2954,16.211V33.5888C9.7366,34.888,6.0084,39.972,5.5,42.5705"/><path class="a" d="M19.029,22.1781c.2633.874,2.5234.9332,2.895,0"/><path class="a" d="M19.029,17.33c-.283-.874-2.7124-.9332-3.1118,0"/><path class="a" d="M25.18,17.33c-.283-.874-2.7123-.9332-3.1118,0"/><path class="a" d="M18.1534,24.4659a3.1642,3.1642,0,0,0,2.3231.7626,3.1783,3.1783,0,0,0,2.4079-.89"/><circle class="b" cx="18.0753" cy="17.6796" r="0.75"/><circle class="b" cx="24.4302" cy="17.6796" r="0.75"/></svg>