<?xml version="1.0" encoding="UTF-8"?><svg id="a" xmlns="http://www.w3.org/2000/svg" viewBox="0 0 48 48"><defs><style>.b{fill:none;stroke:#fff;stroke-linecap:round;stroke-linejoin:round;}</style></defs><path class="b" d="M13.618,18.847c.3-.25.6-.35,1.25-.35h.4c.55,0,1,.45,1,1h0c0,.55-.45,1-1,1h-1,1c.55,0,1,.45,1,1s-.45,1-1,1h-.4c-.7,0-.95-.1-1.25-.35M29.2,29.497l4.3-8h-5.3M20.968,24.097c0-1.5,1.2-2.7,2.6-2.7s2.7,1.2,2.7,2.7c0,.7-.3,1.4-.8,1.9l-4.5,3.5h5.3M13.227,26.497l.755-2h.199l1.887,5h.201l3.774-10h13.457"/><path class="b" d="M38.5,5.5041H9.5c-2.2091,0-4,1.7909-4,4v29c0,2.2091,1.7909,4,4,4h29c2.2091,0,4-1.7909,4-4V9.5041c0-2.2091-1.7909-4-4-4Z"/></svg>