<?xml version="1.0" encoding="UTF-8"?><svg id="a" xmlns="http://www.w3.org/2000/svg" viewBox="0 0 48 48"><defs><style>.b{fill:none;stroke:#fff;stroke-linecap:round;stroke-linejoin:round;}.c{fill:#fff;stroke-width:0px;}</style></defs><path class="b" d="M38.5,5.5H9.5c-2.2091,0-4,1.7909-4,4v29c0,2.2091,1.7909,4,4,4h29c2.2091,0,4-1.7909,4-4V9.5c0-2.2091-1.7909-4-4-4Z"/><polyline class="b" points="10.4208 21.089 12.4208 20 12.4208 28"/><polyline class="b" points="36.5731 28 36.5727 20 32.2792 25.3736 37.5792 25.3736"/><path class="b" d="M15.0958,22.65c0-1.6355,1.4816-2.925,3.1759-2.5994,1.1113.2136,1.9988,1.1747,2.1094,2.301.0823.8378-.1828,1.6644-.7615,2.1722-1.072.9408-4.5238,3.4762-4.5238,3.4762h5.3"/><circle class="c" cx="22.8708" cy="26.65" r=".75"/><circle class="c" cx="22.8708" cy="21.35" r=".75"/><path class="b" d="M25.3467,27.3252c.5523.4628,1.1485.6748,2.4876.6748h.312c1.1043,0,1.9995-.8952,1.9995-1.9995h0c0-1.1043-.8952-1.9995-1.9995-1.9995"/><path class="b" d="M25.3458,20.6682c.5535-.4613,1.1503-.6717,2.4894-.6681l.3111.0018c1.1043,0,1.9995.8952,1.9995,1.9995h0c0,1.1043-.8952,1.9995-1.9995,1.9995"/><line class="b" x1="26.6092" y1="24.0009" x2="28.1463" y2="24.0009"/></svg>