<?xml version="1.0" encoding="UTF-8"?><svg id="a" xmlns="http://www.w3.org/2000/svg" viewBox="0 0 48 48"><defs><style>.b{fill:none;stroke:#fff;stroke-linecap:round;stroke-linejoin:round;}.c{fill:#fff;stroke-width:0px;}</style></defs><path class="b" d="M8.2591,9.8794c1.8245,0,3.3035,1.479,3.3035,3.3035h0c0,1.8245-1.479,3.3035-3.3035,3.3035h0"/><path class="b" d="M13.675,16.486v-4.1761"/><circle class="b" cx="17.772" cy="14.398" r="2.088"/><circle class="c" cx="13.675" cy="10.495" r=".75"/><circle class="b" cx="17.723" cy="19.332" r="1.5865"/><path class="b" d="M21.812,16.486v-4.1761"/><circle class="c" cx="21.812" cy="10.495" r=".75"/><path class="b" d="M24.121,16.486v-5.6246"/><path class="b" d="M24.121,12.31h1.234"/><path class="b" d="M31.166,12.31v2.088c0,1.1532-.9349,2.088-2.088,2.088s-2.088-.9348-2.088-2.088v-2.088"/><path class="b" d="M35.207,12.31c-1.1532,0-2.088.9348-2.088,2.088v2.088"/><path class="b" d="M36.747,16.486v-6.607"/><path class="b" d="M37.222,14.398l2.5189-2.088"/><path class="b" d="M37.222,14.398l2.5189,2.088"/><path class="b" d="M38.5,5.5H9.5c-2.2091,0-4,1.7909-4,4v29c0,2.2091,1.7909,4,4,4h29c2.2091,0,4-1.7909,4-4V9.5c0-2.2091-1.7909-4-4-4Z"/><path class="b" d="M11.843,38.65v-14.65h4.0228v10.353h-4.0228"/><path class="b" d="M19.902,24v10.353"/><path class="b" d="M23.454,24h4.6975v10.353h-4.6975v-6.004h4.6975"/><path class="b" d="M36.157,24v14.65h-16.255M31.636,24v10.353h4.5218"/></svg>