<?xml version="1.0" encoding="UTF-8"?><svg id="b" xmlns="http://www.w3.org/2000/svg" viewBox="0 0 48 48"><defs><style>.c{fill:none;stroke:#fff;stroke-linecap:round;stroke-linejoin:round;}</style></defs><path class="c" d="M10.5,18.6876v10.6248h2.3906c2.5234,0,4.6484-2.125,4.6484-4.6484v-1.3281c0-2.5234-2.125-4.6484-4.6484-4.6484h-2.3906Z"/><polyline class="c" points="20.4805 29.3124 20.4805 18.6876 27.5195 29.3124 27.5195 18.6876"/><path class="c" d="M30.5939,28.1171c.6641.7969,1.4609,1.1953,2.6562,1.1953h1.5937c1.4609,0,2.6562-1.1953,2.6562-2.6562s-1.1953-2.6562-2.6562-2.6562h-1.7265c-1.4609,0-2.6562-1.1953-2.6562-2.6562s1.1953-2.6562,2.6562-2.6562h1.5937c1.1953,0,1.9922.2656,2.6562,1.1953"/><path class="c" d="M38.5,5.5H9.5c-2.2091,0-4,1.7909-4,4v29c0,2.2091,1.7909,4,4,4h29c2.2091,0,4-1.7909,4-4V9.5c0-2.2091-1.7909-4-4-4Z"/></svg>