<?xml version="1.0" encoding="UTF-8"?><svg id="a" xmlns="http://www.w3.org/2000/svg" viewBox="0 0 48 48"><defs><style>.an{fill:none;stroke:#fff;stroke-linecap:round;stroke-linejoin:round;}</style></defs><path id="b" class="an" d="M38.5391,24c0,8.0858-6.5094,14.6407-14.5391,14.6407s-14.5391-6.5549-14.5391-14.6407c0-8.0858,6.5094-14.6407,14.5391-14.6407s14.5391,6.5549,14.5391,14.6407Z"/><path id="c" class="an" d="M31.3203,11.3208l3.4297-5.9403"/><path id="d" class="an" d="M13.25,42.6195l3.4297-5.9403"/><path id="e" class="an" d="M33.229,12.6345l2.1619-2.6624"/><path id="f" class="an" d="M12.609,38.0279l2.1619-2.6624"/><path id="g" class="an" d="M29.2283,10.3247l1.2248-3.2035"/><path id="h" class="an" d="M17.5469,40.8788l1.2248-3.2035"/><path id="i" class="an" d="M36.6792,16.6797l5.9403-3.4297"/><path id="j" class="an" d="M5.3805,34.75l5.9403-3.4297"/><path id="k" class="an" d="M37.6753,18.7717l3.2035-1.2248"/><path id="l" class="an" d="M7.1212,30.4531l3.2035-1.2248"/><path id="m" class="an" d="M35.3655,14.771l2.6624-2.1619"/><path id="n" class="an" d="M9.9721,35.391l2.6624-2.1619"/><path id="o" class="an" d="M38.6407,24h6.8593"/><path id="p" class="an" d="M2.5,24h6.8593"/><path id="q" class="an" d="M38.4573,26.3098l3.3867.5411"/><path id="r" class="an" d="M6.156,21.1491l3.3867.5411"/><path id="s" class="an" d="M38.4573,21.6902l3.3867-.5411"/><path id="t" class="an" d="M6.156,26.8509l3.3867-.5411"/><path id="u" class="an" d="M36.6792,31.3203l5.9403,3.4297"/><path id="v" class="an" d="M5.3805,13.25l5.9403,3.4297"/><path id="w" class="an" d="M35.3655,33.229l2.6624,2.1619"/><path id="x" class="an" d="M9.9721,12.609l2.6624,2.1619"/><path id="y" class="an" d="M7.1212,17.5469l3.2035,1.2248"/><path id="z" class="an" d="M31.3203,36.6792l3.4297,5.9403"/><path id="aa" class="an" d="M13.25,5.3805l3.4297,5.9403"/><path id="ab" class="an" d="M29.2283,37.6753l1.2248,3.2035"/><path id="ac" class="an" d="M17.5469,7.1212l1.2248,3.2035"/><path id="ad" class="an" d="M33.229,35.3655l2.1619,2.6624"/><path id="ae" class="an" d="M12.609,9.9721l2.1619,2.6624"/><path id="af" class="an" d="M24,38.6407v6.8593"/><path id="ag" class="an" d="M24,2.5v6.8593"/><path id="ah" class="an" d="M21.6902,38.4573l-.5411,3.3867"/><path id="ai" class="an" d="M26.8509,6.156l-.5411,3.3867"/><path id="aj" class="an" d="M26.3098,38.4573l.5411,3.3867"/><path id="ak" class="an" d="M21.1491,6.156l.5411,3.3867"/><path id="al" class="an" d="M37.6753,29.2283l3.2035,1.2248"/><path id="am" class="an" d="M35.1115,24c0,6.1798-4.9748,11.1895-11.1115,11.1895h0c-6.1367,0-11.1115-5.0097-11.1115-11.1895h0c0-6.1798,4.9748-11.1895,11.1115-11.1895h0c6.1367,0,11.1115,5.0097,11.1115,11.1895Z"/></svg>