<?xml version="1.0" encoding="UTF-8"?><svg id="a" xmlns="http://www.w3.org/2000/svg" viewBox="0 0 48 48"><defs><style>.d{fill:none;stroke:#fff;stroke-linecap:round;stroke-linejoin:round;}</style></defs><path id="b" class="d" d="M16.7,12.1c-2.5,0-4.5,2-4.5,4.5s2,4.5,4.5,4.5,4.5-2,4.5-4.5-2.1-4.5-4.5-4.5ZM28,21l-7.2,7.2c-.3.3-.7.3-1,0h0l-1.4-1.4c-.3-.3-.7-.3-1,0l-7.8,7.8c-.3.3-.3.7,0,1,.1.1.3.2.5.2h27.8c.4,0,.7-.3.7-.7,0-.1,0-.3-.1-.4l-9.5-13.6c-.2-.3-.7-.3-1-.1h0Z"/><path class="d" d="M38,5.5H9c-2.2,0-4,1.8-4,4v29c0,2.2,1.8,4,4,4h29c2.2,0,4-1.8,4-4V9.5c0-2.2-1.8-4-4-4Z"/></svg>