<?xml version="1.0" encoding="UTF-8"?><svg id="a" xmlns="http://www.w3.org/2000/svg" viewBox="0 0 48 48"><defs><style>.b{fill:none;stroke:#fff;stroke-linecap:round;stroke-linejoin:round;}</style></defs><path class="b" d="M16.0277,15.4579l7.9703-3.5392v26.8492h-12.9702c-2.0193.0044-3.6598-1.6289-3.6642-3.6482,0-.0053,0-.0107,0-.016V9.1642c-.0044-2.0193,1.6289-3.6598,3.6482-3.6642.0053,0,.0107,0,.016,0h25.9444c2.0193-.0044,3.6598,1.6289,3.6642,3.6482,0,.0053,0,.0107,0,.016v25.9394c.0044,2.0193-1.6289,3.6598-3.6482,3.6642-.0053,0-.0107,0-.016,0h-.5389M31.5764,38.7678h-7.5794M31.5754,38.7678l2.9024,2.8304c.7728.7538,1.9556,1.6726,1.9556-.204v-2.6264"/></svg>