<?xml version="1.0" encoding="UTF-8"?><svg id="a" xmlns="http://www.w3.org/2000/svg" viewBox="0 0 48 48"><defs><style>.b{fill:none;stroke:#fff;stroke-linecap:round;stroke-linejoin:round;}.c{fill:#fff;stroke-width:0px;}</style></defs><circle class="b" cx="22.4877" cy="25.9111" r="17.5122"/><path class="b" d="m39.9766,13.3845c5.5958,7.7251,5.292,18.2028-.7424,25.5968"/><path class="b" d="m4.9755,25.9111V9.2727"/><path class="b" d="m13.0927,23.9501c.4071-1.3465.8142-2.693,1.6839-3.9143s2.2019-2.3169,3.6559-2.9431c1.454-.6262,3.0298-.7829,4.6055-.9397"/><path class="b" d="m23.7258,17.9751c-.3115-1.1043-.623-2.2086-.9362-3.0054s-.6281-1.2862-1.3885-1.484c-.7605-.1977-1.9664-.1038-3.1638.2181-1.1972.322-2.3856.872-3.3563,1.6036-.9707.7317-1.7237,1.645-2.2494,2.5273-.5256.8824-.8239,1.734-.951,2.8628-.1271,1.1288-.083,2.5348-.0388,3.9409"/><path class="b" d="m10.9075,27.9697c1.2272-.586,2.4544-1.1719,3.6817-1.758"/><path class="b" d="m11.8863,30.6753c1.742-.8318,3.484-1.6636,5.226-2.4953"/><path class="b" d="m13.4311,33.4058c1.5121-.722,3.0241-1.4439,4.5362-2.166"/><path class="b" d="m15.4457,35.67c1.0131-.4837,2.0262-.9675,3.0392-1.4512"/><path class="b" d="m29.0747,25.3262c1.3364,2.0125,2.6727,4.0251,3.3489,5.2915.6762,1.2664.6921,1.7865.512,2.199-.1801.4124-.5562.7172-.9432.8967-.387.1795-.7849.2336-1.1395.0991-.3546-.1346-.6659-.4579-1.2454-1.2683s-1.4272-2.1079-2.2748-3.4054"/><path class="b" d="m30.8527,33.8126c-.1911.6216-.3821,1.2433-.7543,1.6732-.3722.4299-.9254.6682-1.4742.6347-.5487-.0335-1.093-.3389-1.7939-1.1452-.7009-.8063-1.5586-2.1135-2.4162-3.4208"/><path class="b" d="m26.8303,34.9754c-.1798.5656-.3595,1.1312-.7622,1.5637s-1.0283.7316-1.5422.687c-.5138-.0446-.9159-.4331-1.5268-1.2636-.6109-.8304-1.4305-2.1028-2.2502-3.3752"/><path class="b" d="m23.3928,36.4671c-.3018.5349-.6036,1.0698-1.1137,1.4457-.5101.376-1.2284.5931-1.7807.4509-.5523-.1421-.9384-.6436-1.3245-1.145"/><path class="b" d="m25.995,23.9501c1.8385-.8492,3.6771-1.6984,4.7603-1.6984,1.0833,0,1.4115.8492,1.5543,1.7972.1428.948.1002,1.9947-.0639,2.7792-.1641.7845-.4497,1.3069-.7353,1.8292"/><path class="b" d="m13.7812,6.4971c7.5396-3.422,16.3978-2.2009,22.7084,3.1303"/><circle class="c" cx="38.3184" cy="11.3974" r=".75"/></svg>