<?xml version="1.0" encoding="UTF-8"?><svg id="a" xmlns="http://www.w3.org/2000/svg" viewBox="0 0 48 48"><defs><style>.k{fill:none;stroke:#fff;stroke-linecap:round;stroke-linejoin:round;}</style></defs><path id="b" class="k" d="M34.6505,16.1575c0,2.5662-1.1487,3.8045-2.4158,6.7616-.3236.7547-2.7099,8.6162-2.7099,8.6162h-11.0495s-1.9184-7.515-2.282-8.1268c-1.5252-2.5746-2.8438-4.4498-2.8438-7.251,0-5.8864,4.7686-10.6575,10.6505-10.6575s10.6505,4.7717,10.6505,10.6575h0"/><path id="c" class="k" d="M29.2512,38.7219c0,2.0864-2.3495,3.7781-5.248,3.7781s-5.248-1.6917-5.248-3.7781h10.4961"/><path id="d" class="k" d="M24,31.2713v-7.6889"/><path id="e" class="k" d="M27.8419,23.5824h-7.6838"/><path id="f" class="k" d="M18.6602,36.2835l10.7278-2.3221"/><path id="g" class="k" d="M25.4158,36.9703l3.9722-.784"/><path id="h" class="k" d="M18.6152,34.1764l3.969-.8444"/><path id="i" class="k" d="M29.2512,38.7219l.2735-7.1866"/><path id="j" class="k" d="M18.4753,31.5353l.2799,7.1866"/></svg>