<?xml version="1.0" encoding="UTF-8"?><svg id="a" xmlns="http://www.w3.org/2000/svg" viewBox="0 0 48 48"><defs><style>.f{fill:none;stroke:#fff;stroke-linecap:round;stroke-linejoin:round;}</style></defs><path id="b" class="f" d="M29.8108,33.0404c0,1.1293-3.2099,2.0185-7.1254,2.0185s-7.1103-.9192-7.1103-2.0485"/><path id="c" class="f" d="M29.8108,40.942v-10.6644s.7667-.7044,1.4594-1.4133c2.2802-2.3334,3.3965-5.9879,3.3965-5.9879,3.038-8.0879.4295-10.7386.4295-10.7386-.603-.8024-1.902-.3499-1.902-.3499-.2031-1.8569-.7362-3.0507-.7362-3.0507-1.3963-4.2975-13.2524-3.0772-13.2524-3.0772-7.8449,1.0877-7.3371,9.5765-7.3371,9.5765-.0066,11.2624,3.7066,15.0335,3.7066,15.0335v10.1599l.0003.0228c0,1.1293,3.2746,2.047,7.2792,2.047"/><path id="d" class="f" d="M22.5314,42.4999c3.2537,0,6.3543-.725,7.2794-1.5579"/><path id="e" class="f" d="M27.219,10.4087c2.9877-2.6867,5.9753,1.3794,5.9753,1.3794,0,0-3.6432,1.1274-3.0148,6.6186"/></svg>