<?xml version="1.0" encoding="UTF-8"?><svg id="b" xmlns="http://www.w3.org/2000/svg" viewBox="0 0 48 48"><defs><style>.g{fill:none;stroke:#fff;stroke-linecap:round;stroke-linejoin:round;}</style></defs><path id="c" class="g" d="m41.8703,29.3668c1.0575-3.7539,2.3401-13.2512-10.3878-17.2679,0,0,.2025-2.0421-1.7101-2.2073-1.9126-.1652-2.1976,1.9971-2.1976,1.9971-14.8655.7808-14.5805,15.5862-14.5805,15.5862,1.9102-.2589,3.8505-.1904,5.7377.2027,1.8301.3829,5.5802,1.3064,9.2853,1.9971,1.4325.2703,2.8726.4805,4.1626.6607,0,0,1.672.2161,2.8876.3979,1.2156.1818,3.5094.5331,4.5001.5331s2.0218-.8373,2.3026-1.8995h0"/><path id="d" class="g" d="m5.5017,33.6312c-.045.7508.81.6532,1.5.4054s6.1577-1.5466,12.3679,2.9355c6.2102,4.4821,17.2272-5.6017,15.7491-6.1288"/><path id="e" class="g" d="m18.7321,27.685c1.155-7.4552,3.8776-11.5545,6.0002-13.6942,1.3875-1.4115,2.1376-2.1629,5.7302-1.6899l.0461.0075c1.0955.1868,1.944,1.0523,2.2638,2.1176.5846,1.947,2.0587,7.8224-.5128,15.6923"/><path id="f" class="g" d="m12.8744,27.5199l-7.3727,6.1113"/></svg>