<?xml version="1.0" encoding="UTF-8"?><svg id="a" xmlns="http://www.w3.org/2000/svg" viewBox="0 0 48 48"><defs><style>.v{fill:none;stroke:#fff;stroke-linecap:round;stroke-linejoin:round;}</style></defs><path id="b" class="v" d="M24.0669,32.7098s-2.6409,1.1658-2.7067-.7855"/><path id="c" class="v" d="M17.585,13.0929s-4.9874-7.5411-9.691-4.4193c-4.2826,2.8425-2.382,9.8254,2.2508,12.1048"/><path id="d" class="v" d="M14.3817,38.1895c-10.3398-4.0949-5.0932-15.5774-5.0932-15.5774,0,0,2.3648-6.0709,6.0605-7.5305"/><path id="e" class="v" d="M33.8619,38.1895c10.3398-4.0949,5.0932-15.5774,5.0932-15.5774,0,0-2.3648-6.0709-6.0605-7.5305"/><path id="f" class="v" d="M29.7036,34.2641c-.7911,1.2481-2.6302,3.3204-5.3586,1.4522h-.5561c-2.7284,1.8681-4.5675-.2041-5.3586-1.4522"/><path id="g" class="v" d="M24.0669,32.7098s2.6409,1.1658,2.7067-.7855"/><path id="h" class="v" d="M30.5488,13.0929s4.9874-7.5411,9.691-4.4193c4.2826,2.8425,1.8696,9.5143-2.1779,12.0346"/><path id="i" class="v" d="M16.7132,11.8321s5.6506-3.1983,14.4843,0"/><path id="j" class="v" d="M20.5855,39.4869c2.33.7923,4.651.7986,6.9627,0"/><path id="k" class="v" d="M29.237,30.5693s4.781,1.0465,4.8096-2.7289c.0149-1.9597-1.2308-3.6842-2.989-4.5504-2.285-1.1258-5.47-1.6712-5.47,4.0357"/><path id="l" class="v" d="M19.0642,30.5693s-4.7809,1.0465-4.8096-2.7289c-.0149-1.9597,1.2308-3.6842,2.989-4.5504,2.285-1.1258,5.4699-1.6712,5.4699,4.0357"/><path id="m" class="v" d="M24.0669,32.7098l.0206,3.0065"/><path id="n" class="v" d="M17.9904,26.1344c-.0005.7165.58,1.2978,1.2966,1.2983s1.298-.5799,1.2985-1.2965v-.0019c.0005-.7165-.58-1.2978-1.2966-1.2983s-1.298.5799-1.2985,1.2965v.0019"/><path id="o" class="v" d="M27.5482,26.1344c0,.7165.5809,1.2974,1.2975,1.2974s1.2975-.5809,1.2975-1.2974h0c0-.7165-.5809-1.2974-1.2975-1.2974s-1.2975.5809-1.2975,1.2974"/><path id="p" class="v" d="M33.8619,38.1895c-2.0278.7471-4.6212.56-6.3137,1.2974"/><path id="q" class="v" d="M14.3817,38.1895c2.2651.8925,4.3769.6487,6.2039,1.2974"/><path id="r" class="v" d="M32.8945,15.0816c-.9785-.4217-1.9739-.692-2.9811-.8559.0938-.357.4501-.8524.6354-1.1328"/><path id="s" class="v" d="M17.585,13.0929c.2428.3008.4291.5922.5766.9298-.8931.2712-1.7161.4599-2.8126,1.0588"/><path id="t" class="v" d="M25.5876,27.3257c.0048,1.6218,0,3.0918,3.6494,3.2436"/><path id="u" class="v" d="M22.7135,27.3257c-.0174,1.4061,0,2.8351-3.6493,3.2436"/></svg>