<svg xmlns="http://www.w3.org/2000/svg" viewBox="0 0 48 48"><defs><style>.a{fill:none;stroke:#fff;stroke-linecap:round;stroke-linejoin:round;}</style></defs><circle class="a" cx="24" cy="24" r="21.5"/><path class="a" d="M20.4446,24.5125s5.7063-.9421,7.447-2.7424a2.4667,2.4667,0,0,0,.167-3.3646c-1.4318-1.8565-5.702-1.3692-6.4941.2358-1.3876,2.8121-2.7179,8.7544-1.542,10.2464,1,1.2687,5.2.9681,7.6776-.1229,3-1.3207,6.6491-3.7779,7.3523-6.98a8.7057,8.7057,0,0,0-3.4993-9.049c-3.4038-2.3608-8.8979-2.2826-12.5886-.4005-3.858,1.9676-5.62,5.9294-6.2727,10.2108a12.9565,12.9565,0,0,0,3.3334,10.65,12.1676,12.1676,0,0,0,6.9774,3.6355c3.1509.5149,8.9732-.9268,8.9732-.9268"/></svg>