<?xml version="1.0" encoding="UTF-8"?><svg id="a" xmlns="http://www.w3.org/2000/svg" viewBox="0 0 48 48"><defs><style>.b{fill:none;stroke:#fff;stroke-linecap:round;stroke-linejoin:round;}</style></defs><path class="b" d="M40.13,38.2c3.34-3.79,5.37-8.75,5.37-14.2,0-11.87-9.63-21.5-21.5-21.5S2.5,12.13,2.5,24c0,5.4,1.99,10.33,5.29,14.1"/><path class="b" d="M7.9946,26.9401c1.2361-1.8089,3.3331-1.3735,4.2916-.6688-.9196.5574-1.3934,1.0868-1.3934,1.0868,2.4872,1.3368,5.5316-1.2037,5.4342-2.0901-.1393-1.268-9.7259-3.4277-10.8406,0-1.1095,3.4117,4.4031,8.8898,7.9981,8.6948"/><path class="b" d="M11.2069,23.5011c3.1851-6.5876,21.5597-15.6018,23.8996-14.8145,2.8063.9442,3.3859,11.1611,2.5499,13.0421s-7.6603,11.7184-13.0683,15.174c.6114-1.2959.3606-2.5499.3606-2.5499-1.7139,1.4631-4.8908,1.6721-4.8908,1.6721,0,0,1.268-1.3275,1.6163-2.0571-1.7557,1.235-4.013,1.3186-5.49,1.2908"/><path class="b" d="M37.7408,15.718c-.4049,2.9941-4.8498,7.23-6.4383,8.5677"/><path class="b" d="M8.6643,23.4721c-.6941-1.4228-.8892-3.9448.4206-5.0456s5.6886.5228,5.6886.5228"/><path class="b" d="M30.6005,9.8364c.4373,1.7763,1.9979,3.323,2.5831,3.3787s3.7727-1.9452,3.7727-1.9452"/><path class="b" d="M28.2092,14.6225c1.0172-1.0032,4.1795-1.8803,4.1795-1.8803"/><line class="b" x1="34.5217" y1="11.0275" x2="35.2123" y2="12.3071"/><path class="b" d="M27.7668,18.7783c.3316.3958.9629,2.1781-.6375,3.4486-1.369,1.0868-2.5592.7942-3.1293.0627s-.7478-2.0692.5167-3.1142,2.9261-.7838,3.2501-.3971Z"/><path class="b" d="M24.2204,19.4528c-.0903,1.5096,1.6481,2.7219,3.4131,2.2722"/><path class="b" d="M40.1474,38.1955c-11.9131,1.547-25.1441,1.0865-32.3743-.0906l-.2053,2.8683c1.7142.3645,14.4953,2.7897,32.5797,0v-2.7777Z"/><path class="b" d="M29.6087,32.4879c-.351,4.0979,1.445,6.5129,1.445,6.5129"/><path class="b" d="M10.3584,33.0535c-.1522,1.6684-1.27,3.8492-1.27,3.8492.8569-.2961,1.3795-.6932,1.3795-.6932,0,.7106-.4903,2.2087-.4903,2.2087"/></svg>