<?xml version="1.0" encoding="UTF-8"?><svg id="b" xmlns="http://www.w3.org/2000/svg" viewBox="0 0 48 48"><defs><style>.c{fill:none;stroke:#fff;stroke-linecap:round;stroke-linejoin:round;}</style></defs><line class="c" x1="25.6491" y1="9.551" x2="24" y2="10.0868"/><line class="c" x1="24" y1="8.3528" x2="24" y2="10.0868"/><line class="c" x1="25.0192" y1="11.4896" x2="24" y2="10.0868"/><line class="c" x1="22.3509" y1="9.551" x2="24" y2="10.0868"/><line class="c" x1="22.9808" y1="11.4896" x2="24" y2="10.0868"/><line class="c" x1="32.6061" y1="11.4151" x2="30.9569" y2="11.9509"/><line class="c" x1="30.9569" y1="10.2169" x2="30.9569" y2="11.9509"/><line class="c" x1="31.9761" y1="13.3537" x2="30.9569" y2="11.9509"/><line class="c" x1="29.3078" y1="11.4151" x2="30.9569" y2="11.9509"/><line class="c" x1="29.9377" y1="13.3537" x2="30.9569" y2="11.9509"/><line class="c" x1="37.6989" y1="16.5079" x2="36.0498" y2="17.0437"/><line class="c" x1="36.0498" y1="15.3098" x2="36.0498" y2="17.0437"/><line class="c" x1="37.069" y1="18.4466" x2="36.0498" y2="17.0437"/><line class="c" x1="34.4006" y1="16.5079" x2="36.0498" y2="17.0437"/><line class="c" x1="35.0305" y1="18.4466" x2="36.0498" y2="17.0437"/><line class="c" x1="39.563" y1="23.4648" x2="37.9139" y2="24.0007"/><line class="c" x1="37.9139" y1="22.2667" x2="37.9139" y2="24.0007"/><line class="c" x1="38.9331" y1="25.4035" x2="37.9139" y2="24.0007"/><line class="c" x1="36.2647" y1="23.4648" x2="37.9139" y2="24.0007"/><line class="c" x1="36.8947" y1="25.4035" x2="37.9139" y2="24.0007"/><line class="c" x1="37.6989" y1="30.4218" x2="36.0498" y2="30.9576"/><line class="c" x1="36.0498" y1="29.2236" x2="36.0498" y2="30.9576"/><line class="c" x1="37.069" y1="32.3604" x2="36.0498" y2="30.9576"/><line class="c" x1="34.4006" y1="30.4218" x2="36.0498" y2="30.9576"/><line class="c" x1="35.0305" y1="32.3604" x2="36.0498" y2="30.9576"/><line class="c" x1="32.6061" y1="35.5146" x2="30.9569" y2="36.0504"/><line class="c" x1="30.9569" y1="34.3164" x2="30.9569" y2="36.0504"/><line class="c" x1="31.9761" y1="37.4533" x2="30.9569" y2="36.0504"/><line class="c" x1="29.3078" y1="35.5146" x2="30.9569" y2="36.0504"/><line class="c" x1="29.9377" y1="37.4533" x2="30.9569" y2="36.0504"/><line class="c" x1="15.3939" y1="11.4151" x2="17.0431" y2="11.9509"/><line class="c" x1="17.0431" y1="10.2169" x2="17.0431" y2="11.9509"/><line class="c" x1="16.0239" y1="13.3537" x2="17.0431" y2="11.9509"/><line class="c" x1="18.6922" y1="11.4151" x2="17.0431" y2="11.9509"/><line class="c" x1="18.0623" y1="13.3537" x2="17.0431" y2="11.9509"/><line class="c" x1="10.3011" y1="16.5079" x2="11.9502" y2="17.0437"/><line class="c" x1="11.9502" y1="15.3098" x2="11.9502" y2="17.0437"/><line class="c" x1="10.931" y1="18.4466" x2="11.9502" y2="17.0437"/><line class="c" x1="13.5994" y1="16.5079" x2="11.9502" y2="17.0437"/><line class="c" x1="12.9695" y1="18.4466" x2="11.9502" y2="17.0437"/><line class="c" x1="8.437" y1="23.4648" x2="10.0861" y2="24.0007"/><line class="c" x1="10.0861" y1="22.2667" x2="10.0861" y2="24.0007"/><line class="c" x1="9.0669" y1="25.4035" x2="10.0861" y2="24.0007"/><line class="c" x1="11.7353" y1="23.4648" x2="10.0861" y2="24.0007"/><line class="c" x1="11.1053" y1="25.4035" x2="10.0861" y2="24.0007"/><line class="c" x1="10.3011" y1="30.4218" x2="11.9502" y2="30.9576"/><line class="c" x1="11.9502" y1="29.2236" x2="11.9502" y2="30.9576"/><line class="c" x1="10.931" y1="32.3604" x2="11.9502" y2="30.9576"/><line class="c" x1="13.5994" y1="30.4218" x2="11.9502" y2="30.9576"/><line class="c" x1="12.9695" y1="32.3604" x2="11.9502" y2="30.9576"/><line class="c" x1="15.3939" y1="35.5146" x2="17.0431" y2="36.0504"/><line class="c" x1="17.0431" y1="34.3164" x2="17.0431" y2="36.0504"/><line class="c" x1="16.0239" y1="37.4533" x2="17.0431" y2="36.0504"/><line class="c" x1="18.6922" y1="35.5146" x2="17.0431" y2="36.0504"/><line class="c" x1="18.0623" y1="37.4533" x2="17.0431" y2="36.0504"/><line class="c" x1="25.6491" y1="37.4142" x2="24" y2="37.95"/><line class="c" x1="24" y1="36.216" x2="24" y2="37.95"/><line class="c" x1="25.0192" y1="39.3528" x2="24" y2="37.95"/><line class="c" x1="22.3509" y1="37.4142" x2="24" y2="37.95"/><line class="c" x1="22.9808" y1="39.3528" x2="24" y2="37.95"/><circle class="c" cx="24" cy="24" r="21.5"/></svg>