<?xml version="1.0" encoding="UTF-8"?><svg id="a" xmlns="http://www.w3.org/2000/svg" viewBox="0 0 48 48"><defs><style>.d{fill:none;stroke:#fff;stroke-linecap:round;stroke-linejoin:round;}</style></defs><g><path id="b" class="d" d="m15.6183,29.8226c-.7803,0-1.8052.3924-1.8052,1.3526,0,.8112.8082,1.4688,1.8052,1.4688h.0001c.997,0,1.8051-.6577,1.8051-1.4688,0-.9602-1.0295-1.3526-1.8052-1.3526m-1.9039,10.997v-5.0601c-2.1456-.3259-4.0177-1.1893-5.2247-2.4096l.9331-2.38h1.8358V11.4613c0-1.6644,2.6449-6.3034,4.3597-6.9613,1.7148.6579,4.3597,5.2968,4.3597,6.9613v19.5086h1.8358l.9331,2.3799c-1.2069,1.2202-3.0791,2.0837-5.2247,2.4096v5.0601s.5604,0,.5604,0c-.0264,1.022-.3104,1.9859-.7897,2.6803h-3.3494c-.4793-.6946-.7632-1.6584-.7897-2.6803h.5605Z"/><line class="d" x1="15.6183" y1="29.8226" x2="15.6183" y2="12.4685"/></g><g><path id="c" class="d" d="m32.3817,18.1774c.7803,0,1.8052-.3924,1.8052-1.3526,0-.8112-.8082-1.4688-1.8052-1.4688h-.0001c-.997,0-1.8051.6577-1.8051,1.4688,0,.9602,1.0295,1.3526,1.8052,1.3526m1.9039-10.997v5.0601c2.1456.3259,4.0177,1.1893,5.2247,2.4096l-.9331,2.38h-1.8358v19.5086c0,1.6644-2.6449,6.3034-4.3597,6.9613-1.7148-.6579-4.3597-5.2968-4.3597-6.9613v-19.5086h-1.8358l-.9331-2.3799c1.2069-1.2202,3.0791-2.0837,5.2247-2.4096v-5.0601s-.5604,0-.5604,0c.0264-1.022.3104-1.9859.7897-2.6803h3.3494c.4793.6946.7632,1.6584.7897,2.6803h-.5605Z"/><line class="d" x1="32.3817" y1="18.1774" x2="32.3817" y2="35.5315"/></g></svg>