<?xml version="1.0" encoding="UTF-8"?><svg id="a" xmlns="http://www.w3.org/2000/svg" viewBox="0 0 48 48"><defs><style>.b{fill:none;stroke:#fff;stroke-linecap:round;stroke-linejoin:round;}</style></defs><path class="b" d="M37.8673,10.8549l5.6333.0007-10.834,10.833h-5.6333l10.834-10.8337Z"/><path class="b" d="M37.8673,10.8549h-19.776c-1.766-.0001-3.4599.7013-4.7087,1.95l-8.8832,8.8835h5.6335l6.2476-6.2472c.6244-.6244,1.4713-.9751,2.3543-.9751h15.521"/><path class="b" d="M10.1333,21.688h5.6335l3.1933-3.1932c.2676-.2676.6305-.418,1.009-.418h10.676"/><path class="b" d="M11.7963,34.0009v-9.316h3.0394c1.7184,0,3.1114,1.4008,3.1114,3.1287s-1.393,3.1287-3.1114,3.1287h-3.0394"/><path class="b" d="M36.2043,31.672v3.1441c0,1.2863-1.0391,2.329-2.3211,2.329-.641,0-1.2212-.2606-1.6412-.6822"/><path class="b" d="M36.2043,27.829v3.8428c0,1.2863-1.0391,2.329-2.3211,2.329s-2.3211-1.0427-2.3211-2.329v-3.8428"/><line class="b" x1="20.9383" y1="24.6849" x2="20.9383" y2="34.0009"/><path class="b" d="M28.5663,31.672c0,1.2863-1.0313,2.329-2.3034,2.329h-.8085c-.8428,0-1.526-.6908-1.526-1.543s.6832-1.543,1.526-1.543h3.1162"/><path class="b" d="M24.5053,28.44c.5594-.5621.9513-.6114,2.0309-.6114,1.2256,0,2.0309.5409,2.0309,2.0031v4.1688"/></svg>