<?xml version="1.0" encoding="UTF-8"?><svg id="b" xmlns="http://www.w3.org/2000/svg" viewBox="0 0 48 48"><defs><style>.e{fill:none;stroke:#fff;stroke-linecap:round;stroke-linejoin:round;}</style></defs><path id="d" class="e" d="M21.081,27.0755c.1061-4.6499,3.1153-8.1262,7.5842-8.903,1.552-.2698,3.1798-.0796,4.7695-.1645,1.1848-.0633,2.024-.9547,2.1063-2.102.0843-1.1753-.5921-2.2378-1.7646-2.3903-4.4972-.5846-8.8014-.0882-12.4903,2.8319-3.6967,2.9262-5.068,6.9849-5.1512,11.5235-.0884,4.8223-.0234,11.3049-.0258,16.1315-7.9706-3.1438-13.6091-10.9148-13.6091-20.0027C2.5,12.1259,12.1259,2.5,24,2.5s21.5,9.6259,21.5,21.5-9.6259,21.5-21.5,21.5c-.9609,0-1.9071-.063-2.8344-.1864.0238-5.9141-.2193-12.3279-.0845-18.2381Z"/></svg>