<?xml version="1.0" encoding="UTF-8"?><svg id="b" xmlns="http://www.w3.org/2000/svg" viewBox="0 0 48 48"><defs><style>.h{fill:none;stroke:#fff;stroke-linecap:round;stroke-linejoin:round;}</style></defs><g id="c"><path id="d" class="h" d="M39.5,15.5h-9c-1.1046,0-2-.8954-2-2V4.5H10.5c-1.1046,0-2,.8954-2,2v35c0,1.1046.8954,2,2,2h27c1.1046,0,2-.8954,2-2V15.5Z"/><line id="e" class="h" x1="28.5" y1="4.5" x2="39.5" y2="15.5"/></g><g id="f"><path id="g" class="h" d="M14,23.0897c0-.8497.6888-1.5385,1.5385-1.5385h4.4708c.4275,0,.8444.1336,1.1923.3821l2.5199,1.7999c.3479.2485.7648.3821,1.1923.3821h7.5477c.8497,0,1.5385.6888,1.5385,1.5385v10.2564c0,.8497-.6888,1.5385-1.5385,1.5385H15.5385c-.8497,0-1.5385-.6888-1.5385-1.5385v-12.8206h0Z"/></g></svg>