<?xml version="1.0" encoding="UTF-8"?><svg id="b" xmlns="http://www.w3.org/2000/svg" viewBox="0 0 48 48"><defs><style>.g{fill:none;stroke:#fff;stroke-linecap:round;stroke-linejoin:round;}</style></defs><path id="c" class="g" d="M5.5005,17.2785h0c0-3.0356,2.4439-5.4795,5.4795-5.4795h26.04c3.0356,0,5.4795,2.4439,5.4795,5.4795"/><path id="d" class="g" d="M5.5005,23.5771h0c0-3.0356,2.4439-5.4795,5.4795-5.4795h26.04c3.0356,0,5.4795,2.4439,5.4795,5.4795"/><path id="e" class="g" d="M5.5,24.0914h5.5612c2.3208.0342,3.7741.9938,4.2304,2.8634s1.9748,2.4146,4.5866,2.4146h8.2436c2.6118,0,4.1303-.545,4.5866-2.4146.4563-1.8696,1.9096-2.8292,4.2304-2.8634h5.5612"/><path id="f" class="g" d="M9.5,5.5h29c2.216,0,4,1.784,4,4v29c0,2.216-1.784,4-4,4H9.5c-2.216,0-4-1.784-4-4V9.5c0-2.216,1.784-4,4-4Z"/></svg>