<?xml version="1.0" encoding="UTF-8"?><svg id="b" xmlns="http://www.w3.org/2000/svg" viewBox="0 0 48 48"><defs><style>.c{fill:none;stroke:#fff;stroke-linecap:round;stroke-linejoin:round;}</style></defs><g><path class="c" d="m37.9413,27.8362c.5924-.2403,1.647-.5589,1.9642-.1743.3434.4163-.0906,1.3195-.4901,2.0213"/><path class="c" d="m27.03,28.1145c.9368.7439,3.7041,1.8828,6.6523,1.8828,2.8105,0,4.5262-1.0182,5.4162-1.6402"/></g><g><path class="c" d="m41.68,13h-16.91c-2-.1-5.93-4.23-8.19-4.23H6.68c-1.204-.0003-2.1803.9754-2.1806,2.1794,0,.0169.0002.0337.0006.0506h0v7.29h39v-3.42c.0221-1.0104-.7791-1.8475-1.7895-1.8696-.0102-.0002-.0203-.0004-.0305-.0004Z"/><path class="c" d="m43.5,18.28H4.5v18.72c-.0111,1.2039.956,2.1889,2.1599,2.1999.0034,0,.0067,0,.0101,0h34.65c1.204,0,2.18-.9759,2.1801-2.1799,0-.0067,0-.0134,0-.0201h0v-18.72Z"/></g></svg>