<?xml version="1.0" encoding="UTF-8"?><svg id="b" xmlns="http://www.w3.org/2000/svg" viewBox="0 0 48 48"><defs><style>.d{fill:none;stroke:#fff;stroke-linecap:round;stroke-linejoin:round;}</style></defs><g><path class="d" d="m41.68,13h-16.91c-2-.1-5.93-4.23-8.19-4.23H6.68c-1.204-.0003-2.1803.9754-2.1806,2.1794,0,.0169.0002.0337.0006.0506h0v7.29h39v-3.42c.0221-1.0104-.7791-1.8475-1.7895-1.8696-.0102-.0002-.0203-.0004-.0305-.0004Z"/><path class="d" d="m4.5,18.28v18.72c-.0111,1.2039.956,2.1889,2.1599,2.1999.0034,0,.0067,0,.0101,0h34.65c1.204,0,2.18-.9759,2.1801-2.1799,0-.0067,0-.0134,0-.0201h0v-18.72"/></g><g id="c"><path class="d" d="m39.225,25.904c0-1.7397-1.4103-3.1499-3.1499-3.1499h0c-1.7397,0-3.1499,1.4103-3.1499,3.1499v5.6657c0,.6547-.2142,1.2915-.6099,1.8131l-1.0401,1.371h7.9499"/><line class="d" x1="34.575" y1="29.1665" x2="31.2751" y2="29.1665"/></g></svg>