<?xml version="1.0" encoding="UTF-8"?><svg id="b" xmlns="http://www.w3.org/2000/svg" viewBox="0 0 48 48"><defs><style>.c{fill:none;stroke:#fff;stroke-linecap:round;stroke-linejoin:round;}</style></defs><path class="c" d="m22.6412,33.9863c-1.4538,1.4872-3.6905,4.6005-8.543,4.5705-5.8129-.036-9.5817-4.5705-9.5981-9.5313-.0173-5.2161,3.8078-8.8533,8.076-9.5146"/><path class="c" d="m21.733,27.5823s3.4622-3.4695,5.6653-5.5917,4.4143-2.5726,6.852-2.6175c2.4377-.0449,7.6077,2.1218,8.7887,6.5755,1.181,4.4539.0276,7.5599-2.7172,10.1698-2.7448,2.6099-6.6162,2.7871-9.4802,1.9436-2.8641-.8435-5.7953-4.445-8.6915-7.3831-2.8962-2.9381-7.2055-6.315-7.7455-10.1047-.5401-3.7897,1.7706-7.4139,3.2483-8.626s6.0175-4.1431,10.8471-1.3073c3.9236,2.3037,4.7232,5.1138,4.981,6.8631"/></svg>