<svg id="Layer_2" data-name="Layer 2" xmlns="http://www.w3.org/2000/svg" viewBox="0 0 48 48"><defs><style>.cls-1{fill:none;stroke:#fff;stroke-linecap:round;stroke-linejoin:round;}</style></defs><path class="cls-1" d="M37.94,29.52a5,5,0,0,0,.05-.67,4.89,4.89,0,0,0-.05-.66l1.44-1.1a.34.34,0,0,0,.08-.43L38.1,24.3a.33.33,0,0,0-.41-.15l-1.7.68a5.76,5.76,0,0,0-1.15-.67l-.26-1.8a.34.34,0,0,0-.34-.29h-2.7a.35.35,0,0,0-.36.27l-.25,1.8a5.49,5.49,0,0,0-1.15.67l-1.7-.68a.32.32,0,0,0-.41.15L26.3,26.64a.34.34,0,0,0,.09.43l1.43,1.11a3.64,3.64,0,0,0,0,.66v.67l-1.43,1.12a.34.34,0,0,0-.09.44l1.39,2.37a.31.31,0,0,0,.41.14l1.7-.68a5.09,5.09,0,0,0,1.15.67l.25,1.81a.34.34,0,0,0,.34.28H34.2a.35.35,0,0,0,.34-.28l.3-1.81A5.09,5.09,0,0,0,36,32.9l1.69.68a.35.35,0,0,0,.42-.14l1.36-2.36a.35.35,0,0,0-.08-.44Zm-5.06.84a1.5,1.5,0,0,1,0-3h0a1.49,1.49,0,0,1,1.49,1.49h0A1.5,1.5,0,0,1,32.88,30.36Z"/><path class="cls-1" d="M41.68,13H24.77c-2-.1-5.93-4.23-8.19-4.23H6.68A2.18,2.18,0,0,0,4.5,11h0v7.29h39V14.87A1.83,1.83,0,0,0,41.68,13Z"/><path class="cls-1" d="M43.5,18.28H4.5V37A2.18,2.18,0,0,0,6.67,39.2H41.32A2.18,2.18,0,0,0,43.5,37h0Z"/></svg>