<?xml version="1.0" encoding="UTF-8"?><svg id="a" xmlns="http://www.w3.org/2000/svg" viewBox="0 0 48 48"><defs><style>.d{fill:none;stroke:#fff;stroke-linecap:round;stroke-linejoin:round;}</style></defs><rect class="d" x="5.5" y="5.5" width="37" height="37" rx="4" ry="4"/><path class="d" d="m23.2 25-2.65 4-2.65-4"/><line class="d" x1="20.55" x2="20.55" y1="33" y2="29"/><path class="d" d="m32.1 25v5.35c0 1.4636 1.1864 2.65 2.65 2.65s2.65-1.1864 2.65-2.65v-5.35"/><path class="d" d="m30.6 23v-8h1.8c1.933 0 3.5 1.567 3.5 3.5v1c0 1.933-1.567 3.5-3.5 3.5z"/><line class="d" x1="10.6" x2="13.2" y1="19" y2="19"/><path class="d" d="m10.6 23v-8h4"/><path class="d" d="m10.6 27.65c0-1.6355 1.4816-2.925 3.1759-2.5994 1.1113.21358 1.9988 1.1747 2.1094 2.301.0823.83776-.18282 1.6644-.7615 2.1722-1.072.94078-4.5238 3.4762-4.5238 3.4762h5.3"/><rect class="d" x="16.4" y="15" width="5.3" height="8" rx="2.65" ry="2.65"/><rect class="d" x="25" y="25" width="5.3" height="8" rx="2.65" ry="2.65"/><rect class="d" x="23.5" y="15" width="5.3" height="8" rx="2.65" ry="2.65"/></svg>
