<?xml version="1.0" encoding="UTF-8"?><svg id="a" xmlns="http://www.w3.org/2000/svg" viewBox="0 0 48 48"><defs><style>.e{fill:none;stroke:#fff;stroke-linecap:round;stroke-linejoin:round;}</style></defs><path id="b" class="e" d="M23.51914738,31.5176676l3.22759438,1.18816757h11.78145218c3.09764862,0,3.87224197,2.48777008,3.84845352,3.59565353l-13.09330368,4.88772583c-.7720108.28819275-1.67866707.22264099-2.47205734,0l-10.72459602-3.0095253v-16.04037094h3.35109901l12.94918823,4.8810997c2.23911285.84401703,1.44085312,3.85190582-.5371666,4.05920029"/><path id="c" class="e" d="M9.03967617,22.21706565c1.96116257,0,3.54000568,1.60539627,3.54000568,3.59954262v12.1404438c0,1.99414825-1.57884312,3.59954071-3.54000568,3.59954071-1.96116209,0-3.54000378-1.60539627-3.54000378-3.59954071v-12.1404438c0-1.99414635,1.57884216-3.59954262,3.54000378-3.59954262Z"/><path id="d" class="e" d="M34.43151043,23.35722334l5.65924072-5.68244171c2.14865112-2.15745926,2.45188904-3.6487751,2.4052887-5.96559334-.05459976-2.7140913-2.61764145-5.129848-5.76289749-5.26201248-1.42634201-.05993462-3.14687729.59476757-4.80213737,1.98282909-1.65525818-1.38806152-3.37579346-2.04276419-4.80213165-1.98282909-3.14525795.13216448-5.70830345,2.54792118-5.7628994,5.26201248-.04660034,2.31681919.25663757,3.80813503,2.4052887,5.96559334l5.65923882,5.68244171c.58825111.59066391,1.29175568,1.05270386,2.50050354,1.05270386,1.20874977,0,1.91225243-.46203804,2.50050545-1.05270386Z"/></svg>