<svg xmlns="http://www.w3.org/2000/svg" viewBox="0 0 48 48"><defs><style>.a{fill:none;stroke:#fff;stroke-linecap:round;stroke-linejoin:round;}</style></defs><rect class="a" x="5.5" y="11.6667" width="6.1667" height="6.1667"/><rect class="a" x="5.5" y="5.5" width="6.1667" height="6.1667"/><rect class="a" x="24" y="5.5" width="6.1667" height="6.1667"/><rect class="a" x="30.1667" y="5.5" width="6.1667" height="6.1667"/><rect class="a" x="36.3333" y="5.5" width="6.1667" height="6.1667"/><rect class="a" x="11.6667" y="11.6667" width="6.1667" height="6.1667"/><rect class="a" x="11.6667" y="17.8333" width="6.1667" height="6.1667"/><rect class="a" x="30.1667" y="11.6667" width="6.1667" height="6.1667"/><rect class="a" x="30.1667" y="17.8333" width="6.1667" height="6.1667"/><rect class="a" x="24" y="36.3333" width="6.1667" height="6.1667" transform="translate(66.5 12.3333) rotate(90)"/><rect class="a" x="36.3333" y="36.3333" width="6.1667" height="6.1667" transform="translate(78.8333 0) rotate(90)"/><rect class="a" x="36.3333" y="30.1667" width="6.1667" height="6.1667" transform="translate(72.6667 -6.1667) rotate(90)"/><rect class="a" x="24" y="24" width="6.1667" height="6.1667" transform="translate(54.1667 0) rotate(90)"/><rect class="a" x="17.8333" y="36.3333" width="6.1667" height="6.1667" transform="translate(60.3333 18.5) rotate(90)"/><rect class="a" x="11.6667" y="36.3333" width="6.1667" height="6.1667" transform="translate(54.1667 24.6667) rotate(90)"/><rect class="a" x="5.5" y="36.3333" width="6.1667" height="6.1667" transform="translate(48 30.8333) rotate(90)"/><rect class="a" x="11.6667" y="30.1667" width="6.1667" height="6.1667" transform="translate(48 18.5) rotate(90)"/><rect class="a" x="17.8333" y="11.6667" width="6.1667" height="6.1667"/></svg>