<?xml version="1.0" encoding="UTF-8"?><svg id="b" xmlns="http://www.w3.org/2000/svg" viewBox="0 0 48 48"><defs><style>.ak{fill:none;stroke:#fff;stroke-linecap:round;stroke-linejoin:round;}</style></defs><path id="e" class="ak" d="M20.129,28.2215s-1.6809-1.8484-1.8059-3.4638c-.1105-1.4278.3525-3.4494,1.7819-3.9566,1.4294-.5072,2.4829,1.0168,2.8466,1.9416.1715.4361.6358,1.942-.1216,4.2334"/><path id="f" class="ak" d="M24.5224,26.7002c.7367.0137,1.4916.1582,2.816.8337,1.3306.6787,1.2884.6915,2.0342.8782.6591-.0424.4426.086,1.1183-.2126.2892-.0302.9956-.836,2.0131-.3378.3445.0411,1.6859,1.5011.5969,3.2149-1.0721,1.6872-1.5495,1.5282-2.759,3.0646-.0743.0944-3.951,4.2267-5.7911,4.2267M24.5224,26.7002c-.5307-.0115-1.7941.1561-3.0378.8337-1.3117.7146-1.2884.6915-2.0342.8782-.6591-.0424-.4426.086-1.1183-.2126-.2892-.0302-.9064-.9253-1.9239-.4271-.6345.298-1.7751,1.5904-.6861,3.3042,1.0721,1.6872,1.5495,1.5282,2.759,3.0646.0743.0944,3.951,4.2267,5.7911,4.2267"/><path id="g" class="ak" d="M16.9001,25.8212c.0057-.0309-1.7363-.0817-3.2904,1.7978-.7473.9038-1.3624,2.6519-.2162,2.7221"/><path id="h" class="ak" d="M14.1823,29.7386c-1.1753,1.1966-.3248,3.2106.6434,2.1655"/><path id="i" class="ak" d="M14.8257,31.904c-.0067.0054-.142,1.5399,1.3644,1.5794,1.7391-.0149,2.7106,1.0985,2.7106,1.0985"/><path id="j" class="ak" d="M16.2351,25.8891c.0208-.9823-.116-7.02,4.1673-6.6226.955.0888,1.5636.5452,1.8288.8679"/><path id="k" class="ak" d="M19.0881,40.1344s.2231.7202-.4846,1.9686c-.7164,1.2638-.0685,1.701.473,1.8495.9102.2495,2.7174-.4682,3.6251-2.5429.5937-1.3569.0098-3.0619-1.5434-4.2502-2.6263-2.304-3.7335-1.3411-3.731-1.3391,0,0-1.2187.8344.1205,2.8942.5641.7261,1.4991,1.0973,1.5404,1.4198"/><path id="l" class="ak" d="M22.9549,40.3091s.6357.7505,1.4744.7465c.8387-.0054,1.4428-.7385,1.4428-.7385"/><path id="m" class="ak" d="M29.7759,40.1344s-.2231.7202.4846,1.9686c.7164,1.2638.0685,1.701-.473,1.8495-.9102.2495-2.7174-.4682-3.6251-2.5429-.5937-1.3569-.0098-3.0619,1.5434-4.2502,2.6263-2.304,3.7335-1.3411,3.731-1.3391,0,0,1.2187.8344-.1205,2.8942-.5641.7261-1.4991,1.0973-1.5404,1.4198"/><path id="n" class="ak" d="M16.4922,19.5011s-2.481,2.2797.2211,2.6293"/><path id="o" class="ak" d="M17.2124,14.8445c0,.1116-.2119,2.1328-.4573,3.0931-.2454.9603-.3189,1.0916-.2629,1.5634"/><path id="p" class="ak" d="M25.589,6.8214c-1.1698-1.3846-2.4534-1.996-3.2777-2.211,0,0-2.4442-.6197-4.3181-.3964-6.9306.826-6.8543,7.3399-5.1531,9.0337,2.0523,2.0435,4.1381,1.2171,4.1381,1.2171,1.0302-.2494,4.4061-1.8294,4.9424-2.0663,2.2413-.9899,7.464-2.5668,10.5576-.08"/><path id="q" class="ak" d="M24.5491,5.7966s3.3769-2.2624,6.5159-1.7096c2.5869.5685,4.407,1.6836,4.4561,4.4217.0473,2.6372-1.5291,3.6387-1.9077,3.9861s-1.1513.684-1.5984.7073"/><path id="r" class="ak" d="M31.4065,11.6484c.0507.0295.2836,4.3685.4286,5.2619.1514.933.5427,2.0451.5316,2.715.1837.0713,2.179,2.2496-.1029,2.5038"/><path id="s" class="ak" d="M31.9793,25.8212c-.0057-.0309,1.7363-.0817,3.2904,1.7978.7473.9038,1.3624,2.6519.2162,2.7221"/><path id="t" class="ak" d="M34.6408,29.7386c1.1848,1.2046.4735,3.3346-.6434,2.1655"/><path id="u" class="ak" d="M33.9974,31.904c.0067.0054.142,1.5399-1.3644,1.5794-1.7391-.0149-2.7106,1.0985-2.7106,1.0985"/><path id="v" class="ak" d="M16.8339,29.6812s-.1234.9862.8582,1.7567c2.3104,1.911,3.3559.56,5.1308,2.0993.822.7129.984.9045,1.6074.9045"/><path id="w" class="ak" d="M32.0266,29.6812s.1234.9862-.8582,1.7567c-2.3104,1.911-3.3559.56-5.1308,2.0993-.822.7129-.984.9045-1.6074.9045"/><path id="x" class="ak" d="M19.2881,32.3805s3.1245,4.5736,5.1421,4.4843"/><path id="y" class="ak" d="M29.5724,32.3805s-3.1245,4.5736-5.1421,4.4843"/><path id="z" class="ak" d="M24.1644,16.6178c.5153-.6398,1.1206-1.2368,1.8667-1.5989.4639-.2272,1.0401-.2946,1.504-.0297.361.1724.7075.575.694.9977-.0179.5041-.3313.9221-.798,1.1518-.3892.2442-.7439.2623-1.8172.2782"/><path id="aa" class="ak" d="M21.3761,19.2593s-.9067-4.5041,3.6329-6.3913c.035-.0585,3.0535-.7039,1.95,1.9529"/><path id="ab" class="ak" d="M26.0901,17.4079c.6062-.149,2.0284.6219,1.2014,1.5509-.5883.6609-1.2979.02-2.3705-.2486-1.0726-.2685-2.4723-.2246-3.2898.9383"/><path id="ac" class="ak" d="M28.6126,28.1742c-.0009.0054,1.7805-1.5874,1.8572-3.6033.0512-1.3469-.3119-2.9766-1.6776-3.6592-1.3568-.6782-2.5618.9063-2.9255,1.831-.1715.4361-.8017,1.8567.2346,4.2486"/><path id="ad" class="ak" d="M32.6443,25.8891c-.0208-.9823.116-7.02-4.1673-6.6226-.955.0888-1.5636.5452-1.8288.8679"/><path id="ae" class="ak" d="M26.8478,13.0287c2.2655.028,4.7795,1.5259,4.7795,1.5259"/><path id="af" class="ak" d="M17.0706,16.112s1.4691.0948,2.9191-.5752c.8688-.4014,1.8972-.9654,3.11-1.4828"/><path id="ag" class="ak" d="M28.2047,15.7671c.1393.06,1.2394-.1028,3.673,1.38"/><path id="ah" class="ak" d="M16.6837,18.2132c.7045-.0997,1.9791.1802,4.8433-1.5817"/><ellipse id="ai" class="ak" cx="21.2396" cy="25.422" rx="1.1029" ry="1.6812" transform="translate(-3.3469 3.2206) rotate(-8.0401)"/><ellipse id="aj" class="ak" cx="27.6118" cy="25.4102" rx="1.6812" ry="1.1029" transform="translate(-1.4106 49.1965) rotate(-81.9599)"/></svg>