<?xml version="1.0" encoding="UTF-8"?><svg id="a" xmlns="http://www.w3.org/2000/svg" viewBox="0 0 48 48"><defs><style>.b{fill:none;stroke:#fff;stroke-linecap:round;stroke-linejoin:round;}</style></defs><polyline class="b" points="27.8049 20.9561 27.8049 17.5317 42.9293 17.5317 42.9293 20.9561"/><line class="b" x1="35.3195" y1="17.5317" x2="35.3195" y2="14.9634"/><line class="b" x1="27.2341" y1="26.6634" x2="43.5" y2="26.6634"/><line class="b" x1="9.6366" y1="16.7707" x2="22.2878" y2="16.7707"/><line class="b" x1="13.4415" y1="18.4829" x2="13.4415" y2="14.9634"/><line class="b" x1="18.4829" y1="18.4829" x2="18.4829" y2="14.9634"/><rect class="b" x="11.1585" y="20.3854" width="9.5122" height="2.9488"/><path class="b" d="M4.7854,32.2756c.6659-.9512,1.522-2.2829,2.0927-3.9,.3805-.9512,.5707-1.8073,.761-2.5683"/><path class="b" d="M4.5,20.1c.4756,.1902,.9512,.5707,1.522,.9512,.6659,.4756,1.1415,.9512,1.522,1.3317"/><path class="b" d="M5.7366,15.8195c.4756,.1902,.9512,.5707,1.522,.9512,.6659,.4756,1.1415,.9512,1.522,1.3317"/><line class="b" x1="10.5878" y1="25.9976" x2="21.3366" y2="25.9976"/><line class="b" x1="22.6683" y1="28.9463" x2="9.2561" y2="28.9463"/><path class="b" d="M16.0098,20.5756c.0951,1.7122,0,3.0439,0,4.0902-.0951,2.6634-.3805,3.3293-.5707,3.7098-.6659,1.522-1.8073,2.378-2.378,2.7585-1.7122,1.2366-3.4244,1.5219-4.3756,1.6171"/><path class="b" d="M22.5732,33.0366c-.761-.1902-1.9976-.4756-3.2341-1.3317-1.4268-.8561-2.2829-1.9024-2.8537-2.5683"/><path class="b" d="M30.3732,21.3366h9.8927c-.5707,.6659-1.3317,1.4268-2.2829,2.0927-.9512,.761-1.9024,1.3317-2.6634,1.7122v6.5634c0,.0951,0,.4756-.2854,.761-.3805,.4756-1.0463,.4756-1.1415,.4756h-2.0927"/></svg>