<?xml version="1.0" encoding="UTF-8"?><svg id="b" xmlns="http://www.w3.org/2000/svg" viewBox="0 0 48 48"><defs><style>.j{fill:none;stroke:#fff;stroke-linecap:round;stroke-linejoin:round;}</style></defs><rect id="d" class="j" x="5.501" y="5.5" width="37" height="37" rx="4" ry="4"/><path id="e" class="j" d="M14.2277,42.4908c-1.4973-1.1604-2.3947-3.1697-4.5399-3.413l-3.4836-5.2767c-1.311-2.1631-.7941-4.0268,1.5508-5.591,3.0493-1.6812,3.0114-.4397,6.7649-2.672l7.1245-5.8605c1.296-1.0553,2.5621-1.1526,3.7982-.2919.5619.479,1.0938.7185,1.5957.7185l10.1586,10.1043c1.783,2.2379,1.5283,4.2064-.7641,5.9054-3.3188,1.467-6.6076,3.5926-9.8664,6.3769"/><path id="f" class="j" d="M22.7457,25.8524c3.1585,1.1138,4.664,2.2279,4.3376,4.3561"/><path id="g" class="j" d="M42.501,22.3945c-2.2224-1.0726-3.9152-2.7535-5.7891-4.2903-1.1412-.9359-2.5759-1.5782-3.5829-2.6929-1.1945-1.0349-2.6653-.8691-3.6409.1123-1.3106,1.1825-2.0146,2.3374-4.5299,3.5746"/><path id="h" class="j" d="M38.265,33.7535l4.236-2.3774"/><path id="i" class="j" d="M36.7699,20.5982c3.1382,3.2335,3.5641,2.6814,1.371,4.4459-2.4841,1.9986-2.634,2.6382-5.9333-.8757-2.7793-2.9601-2.7529-3.1235-.7641-4.2887,2.5642-1.5023,4.0352-.612,5.3265.7185Z"/></svg>