<svg xmlns="http://www.w3.org/2000/svg" viewBox="0 0 48 48"><defs><style>.a{fill:none;stroke:#fff;stroke-linecap:round;stroke-linejoin:round;}</style></defs><path class="a" d="M5.5,15.1758V40.5a2,2,0,0,0,2,2h33a2,2,0,0,0,2-2V7.5a2,2,0,0,0-2-2H15.291"/><circle class="a" cx="9.5" cy="9.4329" r="7"/><path class="a" d="M12.1759,8.1146a2.6785,2.6785,0,0,0-2.82-2.6779,2.7817,2.7817,0,0,0-2.532,2.83v2.4849A2.6788,2.6788,0,0,0,9.5,13.4329h0a2.6788,2.6788,0,0,0,2.6759-2.6817H9.5"/><path class="a" d="M34.5972,22.5237a11.503,11.503,0,0,0-21.9988,2.9721"/><path class="a" d="M12.5984,28.5043a11.503,11.503,0,0,0,21.9841,3.0066"/></svg>