<svg xmlns="http://www.w3.org/2000/svg" viewBox="0 0 48 48"><defs><style>.a{fill:none;stroke:#fff;stroke-linecap:round;stroke-linejoin:round;}</style></defs><path class="a" d="M5.5,15.1758V40.5a2,2,0,0,0,2,2h33a2,2,0,0,0,2-2V7.5a2,2,0,0,0-2-2H15.291"/><circle class="a" cx="9.5" cy="9.4329" r="7"/><path class="a" d="M12.1759,8.1146a2.6785,2.6785,0,0,0-2.82-2.6779,2.7817,2.7817,0,0,0-2.532,2.83v2.4849A2.6788,2.6788,0,0,0,9.5,13.4329h0a2.6788,2.6788,0,0,0,2.6759-2.6817H9.5"/><path class="a" d="M30.4341,17v5.5236h3.6088m0,7.0855H30.4341v1.153a8.2385,8.2385,0,1,1-8.2385-8.2385h1.153V17m-1.153,12.6091a1.1527,1.1527,0,1,0,1.153,1.153v-1.153Z"/><line class="a" x1="34.0429" y1="26.0663" x2="32.7546" y2="26.0663"/><line class="a" x1="26.8912" y1="23.5289" x2="26.8912" y2="20.9824"/><line class="a" x1="26.8912" y1="28.7843" x2="26.8912" y2="26.5629"/><path class="a" d="M25.7206,33.8641a4.6816,4.6816,0,0,0,1.0725-2.1426"/><path class="a" d="M20.8577,35.2641a4.7305,4.7305,0,0,0,2.4912.0507"/><path class="a" d="M17.5652,31.5457a4.6769,4.6769,0,0,0,1.0216,2.22"/><path class="a" d="M19.57,26.8682a4.7156,4.7156,0,0,0-1.614,1.8721"/><path class="a" d="M23.3486,26.0663h-1.153"/><line class="a" x1="26.8912" y1="18.2885" x2="26.8912" y2="17.0002"/><line class="a" x1="23.3486" y1="22.5236" x2="23.3486" y2="29.6091"/><line class="a" x1="30.4341" y1="22.5236" x2="30.4341" y2="29.6091"/></svg>