<?xml version="1.0" encoding="UTF-8"?><svg id="b" xmlns="http://www.w3.org/2000/svg" viewBox="0 0 48 48"><defs><style>.c{fill:none;stroke:#fff;stroke-linecap:round;stroke-linejoin:round;}</style></defs><path class="c" d="m29.7122,8.3231c.392.7274.2629,1.3899-.7373,1.4608,1.516.4272,2.1222,4.0377,2.0395,4.9197-.0826.882.951,1.888.951,1.888,0,0-1.2678.1654-.6754.9233-.2205.1516-.4824.441,0,.7993-.7166.3308-.069.9647-.4686,1.3919s-2.0118-.2481-2.8662,0c-.4429.1286-.9936,1.0315-1.4243,1.8742h16.9691v-13.2572h-13.7878Z"/><path class="c" d="m15.5705,16.318c1.3385-.332,2.6667.8093,3.2789.8405s.9961-.2594,1.7744-.7598c-1.6813-2.1774-1.4883-5.2918,0-6.3392,0,0,.0964-1.0887,1.4883-1.7364H4.5v13.2572h10.5872c.5734-.4493,1.7598-.9246,2.4771-.9096,1.323.0276,3.1835-.4134,3.8174-1.6123-.0689,1.2678-.7579,2.5219-.7579,2.5219h-5.5366"/><path class="c" d="m11.8558,18.2894c.5499-.9027,1.3904-1.3904,1.9819-1.5253"/><path class="c" d="m17.5939,18.5281c-2.1064-.4981-3.4138.415-3.4138.415"/><path class="c" d="m28.9247,14.7978c.2853-.2594.4462-.358.4462-.358"/><path class="c" d="m17.6671,27.1535v9.3925c0,1.7291-1.4017,3.1308-3.1308,3.1308h0c-.8645,0-1.6472-.3504-2.2138-.9169"/><rect class="c" x="11.4054" y="27.1535" width="6.2617" height="8.2967" rx="3.1308" ry="3.1308" transform="translate(29.0725 62.6038) rotate(-180)"/><path class="c" d="m26.6491,33.8703c-.5392.9438-1.5555,1.58-2.7203,1.58h0c-1.7291,0-3.1308-1.4017-3.1308-3.1308v-2.0351c0-1.7291,1.4017-3.1308,3.1308-3.1308h0c1.7291,0,3.1308,1.4017,3.1308,3.1308v1.0175s-6.2617,0-6.2617,0"/><path class="c" d="m30.1905,30.2844c0-1.7291,1.4017-3.1308,3.1308-3.1308s3.1308,1.4017,3.1308,3.1308v2.035c0,1.7291-1.4017,3.1308-3.1308,3.1308s-3.1308-1.4017-3.1308-3.1308v-2.035Z"/><line class="c" x1="23.9288" y1="25.3309" x2="26.2577" y2="24.2427"/></svg>