<?xml version="1.0" encoding="UTF-8"?><svg id="b" xmlns="http://www.w3.org/2000/svg" xmlns:xlink="http://www.w3.org/1999/xlink" viewBox="0 0 48 48"><defs><style>.f{mask:url(#e);}.g{fill:none;stroke:#fff;stroke-linecap:round;stroke-linejoin:round;}</style><mask id="e" x="17.1711" y="6.4934" width="180.1447" height="97.3816" maskUnits="userSpaceOnUse"/></defs><g id="d"><path class="g" d="M23.7566,6.9934h12.6579c3.3609,0,6.0855,2.7246,6.0855,6.0855h0c0,3.3609-2.7246,6.0855-6.0855,6.0855h-12.6579c-3.3609,0-6.0855-2.7246-6.0855-6.0855h0c0-3.3609,2.7246-6.0855,6.0855-6.0855Z"/></g><path class="g" d="M23.7566,31.3355h12.6579c3.3609,0,6.0855,2.7246,6.0855,6.0855h0c0,3.3609-2.7246,6.0855-6.0855,6.0855h-12.6579c-3.3609,0-6.0855-2.7246-6.0855-6.0855h0c0-3.3609,2.7246-6.0855,6.0855-6.0855Z"/><path class="g" d="M11.5855,31.3355h0c3.3609,0,6.0855,2.7246,6.0855,6.0855h0c0,3.3609-2.7246,6.0855-6.0855,6.0855h0c-3.3609,0-6.0855-2.7246-6.0855-6.0855h0c0-3.3609,2.7246-6.0855,6.0855-6.0855Z"/><path class="g" d="M11.5855,19.1645h0c3.3609,0,6.0855,2.7246,6.0855,6.0855h0c0,3.3609-2.7246,6.0855-6.0855,6.0855h0c-3.3609,0-6.0855-2.7246-6.0855-6.0855h0c0-3.3609,2.7246-6.0855,6.0855-6.0855Z"/><path class="g" d="M23.7566,19.1645h12.6579c3.3609,0,6.0855,2.7246,6.0855,6.0855h0c0,3.3609-2.7246,6.0855-6.0855,6.0855h-12.6579c-3.3609,0-6.0855-2.7246-6.0855-6.0855h0c0-3.3609,2.7246-6.0855,6.0855-6.0855Z"/><g class="f"><path class="g" d="M23.7566,6.9934h12.6579c3.3609,0,6.0855,2.7246,6.0855,6.0855h0c0,3.3609-2.7246,6.0855-6.0855,6.0855h-12.6579c-3.3609,0-6.0855-2.7246-6.0855-6.0855h0c0-3.3609,2.7246-6.0855,6.0855-6.0855Z"/></g><path class="g" d="M11.5855,6.9934h0c3.3609,0,6.0855,2.7246,6.0855,6.0855h0c0,3.3609-2.7246,6.0855-6.0855,6.0855h0c-3.3609,0-6.0855-2.7246-6.0855-6.0855h0c0-3.3609,2.7246-6.0855,6.0855-6.0855Z"/><path class="g" d="M23.7566,13.0789h12.6579"/><circle class="g" cx="11.5855" cy="13.0789" r="2.9211"/></svg>