<?xml version="1.0" encoding="UTF-8"?><svg id="b" xmlns="http://www.w3.org/2000/svg" viewBox="0 0 48 48"><defs><style>.f{fill:none;stroke:#fff;stroke-linecap:round;stroke-linejoin:round;}</style></defs><g id="d"><path class="f" d="M6.3594,14.5908c-.4748-3.6081,2.334-6.8103,5.973-6.8103h23.3352c3.6392,0,6.4477,3.2022,5.973,6.8103l-1.4211,10.7994,1.4211,10.7994c.4748,3.6081-2.3338,6.8103-5.973,6.8103H12.3324c-3.6392,0-6.4477-3.2022-5.973-6.8103l1.4211-10.7994-1.4211-10.7994Z"/></g><g id="e"><path class="f" d="M6.3594,14.5908c-.4748-3.6081,2.334-6.8103,5.973-6.8103h23.3352c3.6392,0,6.4477,3.2022,5.973,6.8103l-1.4211,10.7994,1.4211,10.7994c.4748,3.6081-2.3338,6.8103-5.973,6.8103H12.3324c-3.6392,0-6.4477-3.2022-5.973-6.8103l1.4211-10.7994-1.4211-10.7994Z"/></g><path class="f" d="M10.1527,8.1869c1.1736-1.9118,3.2835-3.1869,5.6912-3.1869h16.3122c2.4072,0,4.5168,1.2746,5.6905,3.1858"/><polyline class="f" points="27.6689 19.6209 31.6327 17.4626 31.6327 33.3179"/><path class="f" d="M14.5154,31.9805c1.0945.9171,2.2763,1.3374,4.9302,1.3374h.6183c2.1886,0,3.9629-1.7742,3.9629-3.9629h0c0-2.1886-1.7742-3.9629-3.9629-3.9629"/><path class="f" d="M14.5136,18.7869c1.097-.9142,2.2799-1.3313,4.9337-1.3242l.6165.0036c2.1886,0,3.9629,1.7742,3.9629,3.9629h0c0,2.1886-1.7742,3.9629-3.9629,3.9629"/><line class="f" x1="17.0176" y1="25.3921" x2="20.0639" y2="25.3921"/></svg>