<?xml version="1.0" encoding="UTF-8"?><svg id="b" xmlns="http://www.w3.org/2000/svg" viewBox="0 0 48 48"><defs><style>.d{fill:none;stroke:#fff;stroke-linecap:round;stroke-linejoin:round;}</style></defs><path class="d" d="M5.5,16.6829c0-2.6991,0-4.0486.4239-5.119.6135-1.5496,1.8404-2.7765,3.39-3.39,1.0704-.4239,2.4199-.4239,5.119-.4239h21.1343c2.6991,0,4.0486,0,5.119.4239,1.5496.6135,2.7765,1.8404,3.39,3.39.4239,1.0704.4239,2.4199.4239,5.119v14.6343c0,2.6991,0,4.0486-.4239,5.119-.6135,1.5496-1.8404,2.7765-3.39,3.39-1.0704.4239-2.4199.4239-5.119.4239H14.4329c-2.6989,0-4.0486,0-5.119-.4239-1.5496-.6135-2.7765-1.8404-3.39-3.39-.4239-1.0704-.4239-2.4199-.4239-5.119v-14.6343Z"/><path class="d" d="M36.375,30.0357h.9286c1.6667,0,3.0179,1.3511,3.0179,3.0179h0c0,1.6667-1.3511,3.0179-3.0179,3.0179h-.9286c-1.6667,0-3.0179-1.3511-3.0179-3.0179h0c0-1.6667,1.3511-3.0179,3.0179-3.0179Z"/><path class="d" d="M11.3036,40.25c3.2052,0,5.8036-2.5984,5.8036-5.8036v-16.4821H5.5"/><path class="d" d="M44.5,17.9643h-27.3929"/></svg>