<?xml version="1.0" encoding="UTF-8"?><svg id="b" xmlns="http://www.w3.org/2000/svg" viewBox="0 0 48 48"><defs><style>.d{fill:none;stroke:#fff;stroke-linecap:round;stroke-linejoin:round;}</style></defs><path class="d" d="M8.383,14.0712l.0084-.0082c1.6514-1.6189,4.3022-1.609,5.9412.0298l2.7541,2.7541c1.3191,1.3193,1.3191,3.4582,0,4.7771l-.9923.9925c-.9895.9893-.9895,2.5934,0,3.583l5.2842,5.2838c.9893.9893,2.5934.9893,3.5827,0l.9923-.9923c1.3191-1.3191,3.458-1.3191,4.7771,0l3.1761,3.1761c1.6387,1.6387,1.6487,4.2892.03,5.9406v.0017l-.0348.034-.1744.1744c-.001.0008-.0021.0008-.0034,0-.0008-.0009-.0021-.001-.003-.0002,0,0-.0001.0001-.0002.0002-3.7451,3.5205-9.6356,3.4512-13.2956-.2088l-12.034-12.034c-3.66-3.66-3.7295-9.5505-.2092-13.2956.001-.001.001-.0026,0-.0036h0c-.0011-.0009-.0012-.0025-.0002-.0036,0,0,.0001-.0002.0002-.0002l.1788-.1788.022-.0217Z"/><path class="d" d="M24.0145,5.4068c-.2301,0-.4589.0057-.687.014-1.2747.1324-2.2687,1.2098-2.2687,2.5195v16.4675c0,1.3992,1.1343,2.5335,2.5335,2.5335h16.4675c1.3098,0,2.3871-.994,2.5195-2.2687.0083-.2281.014-.4569.014-.687,0-10.2608-8.318-18.5787-18.5787-18.5787Z"/></svg>