<?xml version="1.0" encoding="UTF-8"?><svg id="b" xmlns="http://www.w3.org/2000/svg" viewBox="0 0 48 48"><defs><style>.d{fill:none;stroke:#fff;stroke-linecap:round;stroke-linejoin:round;}</style></defs><path class="d" d="M39.7867,8.7767h-.0093c-1.105-2.7393-4.0021-4.4386-7.0479-3.9371l-22.4529,3.6679c-.2971.0464-.6036.1207-.8821.2136-.0093.0093-.0186.0093-.0186.0093"/><path class="d" d="M8.7352,38.3238c1.1236,2.7393,4.0207,4.4386,7.0571,3.9464l22.4529-3.6679c.3157-.0557.6221-.13.9193-.2229"/><path class="d" d="M4.7733,15.5689c0-2.0761,0-3.1142.3262-3.9376.4719-1.192,1.4157-2.1357,2.6077-2.6077.8234-.3262,1.8613-.3262,3.9376-.3262h25.2571c2.0761,0,3.1142,0,3.9376.3259,1.1921.4719,2.136,1.4158,2.6079,2.6079.3259.8234.3259,1.8616.3259,3.9376v15.9714c0,2.0761,0,3.1142-.3259,3.9376-.4719,1.1921-1.4158,2.136-2.6079,2.6079-.8234.3259-1.8616.3259-3.9376.3259H11.6447c-2.0761,0-3.1142,0-3.9378-.3259-1.1919-.472-2.1356-1.4159-2.6074-2.6079-.3262-.8234-.3262-1.8616-.3262-3.9376v-15.9714Z"/><rect class="d" x="12.202" y="16.126" width="24.1429" height="14.8571" rx=".9286" ry=".9286"/></svg>