<?xml version="1.0" encoding="UTF-8"?><svg id="a" xmlns="http://www.w3.org/2000/svg" viewBox="0 0 48 48"><defs><style>.h{fill:none;stroke:#fff;stroke-linecap:round;stroke-linejoin:round;}</style></defs><path id="b" class="h" d="M36.4439,36.8639c.2692-.7378.7111-1.3206,1.3479-1.4376h1.9152c1.0358,0,1.7857-.7857,1.8274-1.6966V12.7456c0-.9045-.5183-2.1451-1.4481-2.3281-1.4169-.2788-.4815-2.4094-3.0413-2.4094h-1.0945c-2.2416,0-1.0186-2.5082-3.3931-2.5082H15.4427c-2.3745,0-1.1515,2.5082-3.3931,2.5082h-1.0945c-2.5598,0-1.6245,2.1306-3.0413,2.4094-.9298.1829-1.4481,1.4235-1.4481,2.3281v20.984c.0417.9108.7916,1.6966,1.8274,1.6966h1.9152c.6368.117,1.139.6806,1.3479,1.4376.2287.8285.6944,1.216,1.4517,1.216h1.3223c1.3993,0,1.4595.8929,2.0945,1.8434.4372.6543,1.2597.5551,1.6249,1.4969.3254.8392,1.0457,1.0798,2.1357,1.0798h7.6294c1.09,0,1.8103-.2407,2.1357-1.0798.3652-.9418,1.1649-.8585,1.6249-1.4969.1657-.23.3454-.802.3454-1.6456v-7.6488c0-1.6663-.6524-1.7093-1.6013-2.5694-.4927-1.5985-2.7769-1.9717-2.8333-3.4552v-5.6196c0-2.2693-2.3877-1.8303-2.3877-3.9434v-2.5889c0-.6085.2634-1.8977,1.2429-2.313,1.1442-.4851,1.0487-2.1599,2.6411-2.1599h1.5425c1.5924,0,1.4969,1.6747,2.6411,2.1599.9795.4153,1.2429,1.7046,1.2429,2.313v4.4831c0,2.4191,1.7731,2.1858,1.8853,3.4877.1237,1.4357,2.4966,1.4536,2.5307,2.877l.0312,1.304c-.1312,1.8988-2.2044,1.5646-2.4291,2.9326-.2089,1.2718-2.1378.8491-2.1378,2.7018v6.2015c0,1.2338,1.5296,2.1369,2.1546.4237Z"/><path id="c" class="h" d="M25.1716,38.1616c1.3134,0,2.1075-.7184,2.0928-2.4428-.0123-1.4389-.4436-1.6599-1.158-2.4276-.7712-.8288-.8702-2.2172-2.2864-2.2172s-1.5152,1.3884-2.2864,2.2172c-.7144.7677-1.1457.9887-1.158,2.4276-.0147,1.7244.7793,2.4428,2.0928,2.4428h2.7033Z"/><path id="d" class="h" d="M13.719,19.1973c-1.4144-.0178-1.9483.3241-2.4449,1.5809-.5199,1.3159-2.4492,1.19-2.4492,2.4615v1.442c0,.7386.2862,1.3349,1.2669,1.6995,1.3409.4985,1.5014,2.2574,2.7226,2.2574h1.0306c1.0137,0,1.6358-.5008,2.1282-1.2209.6878-1.0058,1.6686-1.2579,2.1597-2.2493.5223-1.0545,1.6117-.8201,1.9375-1.7284.0933-.2601.3592-1.0384-.8292-1.546-1.5291-.6532-.8963-2.6384-2.6121-2.66l-2.91-.0366Z"/><g id="e"><path id="f" class="h" d="M36.256,20.0785c.1113-.4602.4222-.7949.9138-.8378,1.1047-.0963,1.1239,1.1084,1.5198,1.8885.322.6345,1.5627.3902,2.0429-1.2164.0816-.2729.174-.4655.3219-.5206"/><path id="g" class="h" d="M27.4852,24.5371c-.8515-.5903-1.0344-2.1911-2.398-2.3452-.9801-.1108-.7926,1.1415-1.8725.7526-1.1089-.3994-2.6318-1.382-3.0751-.1988-.3928,1.0486.9806,1.4282,1.5955,1.8317.6472.4247.9077.8079.2154,1.1904-.2903.1604-.8296.8796-.2319,1.498,1.219,1.2614.8452,2.0619-.7031,1.2874-.9341-.4673-.6865-1.2503-2.3483-1.3655-1.7228-.1194-1.5818.6263-2.0074,1.2353-.3537.5062-3.4604.0213-4.4149.8165-.8404.7-1.0511,1.4169.1373,1.6637l2.8833.5987c1.6322.3389,1.3648,1.5207.8427,2.0826-.7999.8609-1.2874.4412-2.5945.5514-2.566.2163-1.4574-1.4172-3.6693-1.4673-1.5197-.0344-.8431-.9409-2.0548-.8543-.7294.0521-.8832.4101-1.2712.8614"/></g></svg>