<?xml version="1.0" encoding="UTF-8"?><svg id="a" xmlns="http://www.w3.org/2000/svg" viewBox="0 0 48 48"><defs><style>.b{fill:none;stroke:#fff;stroke-linecap:round;stroke-linejoin:round;}</style></defs><rect class="b" x="5.5" y="5.5" width="37" height="37" rx="4" ry="4"/><circle class="b" cx="24" cy="24" r="9.0848"/><line class="b" x1="16.1502" y1="5.5" x2="16.1502" y2="19.3707"/><path class="b" d="M31.85,14.36c2.8,2.28,4.58,5.75,4.58,9.64,0,6.87-5.56,12.43-12.43,12.43s-12.43-5.56-12.43-12.43c0-3.89,1.78-7.36,4.58-9.64"/><line class="b" x1="31.8498" y1="5.5" x2="31.8498" y2="19.3707"/><line class="b" x1="20.5182" y1="5.5" x2="20.5182" y2="42.5"/><line class="b" x1="22.8394" y1="5.5" x2="22.8394" y2="42.5"/><line class="b" x1="25.1606" y1="5.5" x2="25.1606" y2="42.5"/><line class="b" x1="27.4818" y1="5.5" x2="27.4818" y2="42.5"/><line class="b" x1="29.803" y1="42.5" x2="29.803" y2="5.5"/><line class="b" x1="18.197" y1="5.5" x2="18.197" y2="42.5"/></svg>