<?xml version="1.0" encoding="UTF-8"?><svg id="a" xmlns="http://www.w3.org/2000/svg" viewBox="0 0 48 48"><defs><style>.b{fill:none;stroke:#fff;stroke-linecap:round;stroke-linejoin:round;}.c{fill:#fff;stroke-width:0px;}</style></defs><path class="b" d="M38.5,5.5H9.5c-2.2091,0-4,1.7909-4,4v29c0,2.2091,1.7909,4,4,4h29c2.2091,0,4-1.7909,4-4V9.5c0-2.2091-1.7909-4-4-4Z"/><line class="b" x1="31.3496" y1="20" x2="31.3496" y2="28"/><line class="b" x1="33.36" y1="20" x2="38.56" y2="20"/><line class="b" x1="35.96" y1="28" x2="35.96" y2="20"/><line class="b" x1="9.44" y1="20" x2="9.44" y2="28"/><line class="b" x1="14.74" y1="20" x2="14.74" y2="28"/><line class="b" x1="9.44" y1="23.9" x2="14.74" y2="23.9"/><path class="b" d="M27.3393,24c1.1,0,2,.9,2,2s-.9,2-2,2h-3.3v-8h3.3c1.1,0,2,.9,2,2s-.9,2-2,2Z"/><line class="b" x1="27.3393" y1="24" x2="24.0393" y2="24"/><line class="b" x1="21.1421" y1="25.3" x2="17.5421" y2="25.3"/><polyline class="b" points="16.6421 28 19.3421 20 22.0421 28"/><circle class="c" cx="38.3602" cy="14.578" r=".75"/></svg>