<?xml version="1.0" encoding="UTF-8"?><svg id="b" xmlns="http://www.w3.org/2000/svg" viewBox="0 0 48 48"><defs><style>.s{fill:none;stroke:#fff;stroke-linecap:round;stroke-linejoin:round;}</style></defs><circle id="c" class="s" cx="24" cy="24" r="21.5"/><path id="d" class="s" d="M22.8125,30.8125c.2778-.9619.8507-1.6598,1.7188-2.0938-3.701-4.0744-11.8973,1.6273-14.4375-6.9375"/><path id="e" class="s" d="M33.375,30.75c-.6883.2982-1.5216,1.1941-2.5,2.6875l-4.5625.0938c-4.6883-4.4093-8.7295-5.353-12.1562-2.7188"/><path id="f" class="s" d="M21.5625,35.7188c-.8855.0334-1.6543-.2362-2.125-1.2812-.7068-1.2506-1.5506-1.7506-2.5312-1.5-1.4887.3086-1.9464-1.2156-2.75-2.125-8.8383-.3514,4.7526,16.4159,14.0312,6.625,8.8889.5418,9.9154-8.8002,7.625-9.25"/><path id="g" class="s" d="M29.1875,28.375c3.6292,1.767,11.4829.4037,7.125-9.1562-.5563-1.2657-.3486-2.0096-.25-2.8438.1759-1.9224-.9894-3.8939-3.7812-3.1562-1.452.4389-2.7979.2061-4-.9375-1.8456-1.7291-4.475-.7595-4.9688.7188l-.6875,1.8438c-.24.8672-.8423,1.4951-1.625,2-1.3941.0666-2.6233-.0584-3.6875-.375.385-1.3718-1.7047-4.4406-3.8437-1.4688-1.4875-.7354-2.2474-.0157-3.0938.5312-1.9637-.3444-2.8056.8438-2.2188,1.875.2289.4025.2081.9233-.0625,1.5625-.8854,2.5417,1.0833,3.8438,3.4688,2.125,2.404-1.5596,4.1669-.4765,5.5625,1,4.2822,3.9602,6.875,2.548,8.4375.7188"/><path id="h" class="s" d="M24.7812,19.5938c-1,3.8125,2.2833,3.8452,3.6562,2.7812"/><path id="i" class="s" d="M23.489,24.3776c-.9931-3.8693-1.9523-4.3788-2.8622-.0066"/><ellipse id="j" class="s" cx="25.7481" cy="15.8475" rx="2.6894" ry="2.215"/><path id="k" class="s" d="M23.0586,15.8475c2.1938-1.2527,3.8451-.81,5.3789,0"/><ellipse id="l" class="s" cx="33.0631" cy="18.3917" rx="2.8756" ry="2.4258"/><path id="m" class="s" d="M30.5772,17.1723c2.2429.2382,3.7955,1.1379,5.0419,2.331"/><path id="n" class="s" d="M30.5557,13.4039c.7278-4.9427-5.0885-9.1905-5.193-1.9813"/><path id="o" class="s" d="M35.061,13.5954c.8738-.7912.14-5.6373-4.9954-3.601"/><circle id="p" class="s" cx="14.8603" cy="17.2965" r="1"/><path id="q" class="s" d="M32.243,17.5004c-1.1237,1.4228.8777,3.3341,2.0958,1.0791"/><path id="r" class="s" d="M26.9263,15.2293c.6602,1.961-2.4583,2.621-2.0636-.0496"/></svg>