<?xml version="1.0" encoding="UTF-8"?><svg id="b" xmlns="http://www.w3.org/2000/svg" viewBox="0 0 48 48"><defs><style>.aj{fill:none;stroke:#fff;stroke-linecap:round;stroke-linejoin:round;}</style></defs><circle id="c" class="aj" cx="24" cy="24" r="21.5"/><path id="d" class="aj" d="M28.3491,8.2265h-3.7324"/><path id="e" class="aj" d="M28.3757,8.2408c-.2208,1.0776-.4417,2.1552-.599,3.211s-.251,2.0899-.3447,3.1239"/><path id="f" class="aj" d="M27.4309,14.6156c.7662-.0118,1.5325-.0237,2.314-.0628s1.5782-.1057,2.3749-.1722"/><path id="g" class="aj" d="M32.1338,14.386c-.1667,4.0312-.3333,8.0624.1315,11.8483.4649,3.7859,1.5612,7.3262,2.6575,10.8665"/><path id="h" class="aj" d="M34.9163,37.101h-6.6069"/><path id="i" class="aj" d="M28.2745,37.093c-.6406-1.6055-1.2812-3.2109-1.7534-4.9386-.4722-1.7277-.7758-3.5774-1.0795-5.4272"/><path id="j" class="aj" d="M25.4256,26.7043h-.7403"/><path id="k" class="aj" d="M24.5859,26.7043V8.2286"/><path id="l" class="aj" d="M19.6598,8.2155h3.7324"/><path id="m" class="aj" d="M19.6331,8.2298c.2208,1.0776.4417,2.1552.599,3.211s.251,2.0899.3447,3.1239"/><path id="n" class="aj" d="M20.5779,14.6046c-.7662-.0118-1.5325-.0237-2.314-.0628-.7815-.0392-1.5782-.1057-2.3749-.1722"/><path id="o" class="aj" d="M15.875,14.375c.1667,4.0312.3333,8.0625-.1315,11.8483-.4649,3.7858-1.5612,7.3261-2.6575,10.8665"/><path id="p" class="aj" d="M13.0925,37.09h6.6069"/><path id="q" class="aj" d="M19.7344,37.082c.6406-1.6055,1.2812-3.2109,1.7534-4.9386.4721-1.7277.7758-3.5774,1.0795-5.4272"/><path id="r" class="aj" d="M22.5832,26.6933h.7403"/><path id="s" class="aj" d="M23.4229,26.6933V8.2176"/><path id="t" class="aj" d="M24.9808,21.8098h.7844"/><path id="u" class="aj" d="M23.2793,21.7988h-1.0275"/><path id="v" class="aj" d="M22.0639,13.2251h1.3258"/><path id="w" class="aj" d="M24.6051,13.2141h1.4142"/><path id="x" class="aj" d="M28.5776,18.9644c-.4947.9099-.9893,1.8198-1.484,2.7298"/><path id="y" class="aj" d="M27.0938,21.7188c.4869.8355.9739,1.6709,1.4608,2.5064"/><path id="z" class="aj" d="M28.5773,24.2004c.4845-.882.969-1.764,1.4534-2.646"/><path id="aa" class="aj" d="M28.5905,18.9575c.4759.8529.9518,1.7058,1.4277,2.5587"/><path id="ab" class="aj" d="M28.5469,24.2344v5.3125"/><path id="ac" class="aj" d="M18.2344,19.1523c.0438-.218.0877-.436.3077-.6333.2201-.1973.6163-.3738,1.0133-.3694.397.0044.7946.1898,1.0056.3624s.2352.3322.2594.4918"/><path id="ad" class="aj" d="M18.2344,19.1719v7.1094"/><path id="ae" class="aj" d="M20.8203,19.0625v7.3181"/><path id="af" class="aj" d="M18.2734,21.9062h2.3984"/><path id="ag" class="aj" d="M18.2356,26.2569c.0203.2283.0405.4567.255.6546.2145.198.6233.3655,1.0275.3756.4042.0101.8038-.1372,1.0192-.3094.2155-.1722.2468-.3692.2781-.5662"/><path id="ah" class="aj" d="M18.8594,27.4688c-.1172.5443-.2344,1.0885-.3516,1.6328"/><path id="ai" class="aj" d="M20,27.4688c.1693.4974.3385.9948.5078,1.4922"/></svg>