<?xml version="1.0" encoding="utf-8"?>
<!-- Generator: Adobe Illustrator 26.0.3, SVG Export Plug-In . SVG Version: 6.00 Build 0)  -->
<svg version="1.1" id="Layer_1" xmlns="http://www.w3.org/2000/svg" xmlns:xlink="http://www.w3.org/1999/xlink" x="0px" y="0px"
	 viewBox="0 0 48 48" style="enable-background:new 0 0 48 48;" xml:space="preserve">
<style type="text/css">
	.st0{fill:none;stroke:#fff;stroke-linecap:round;stroke-linejoin:round;}
</style>
<g>
	<line class="st0" x1="38.5" y1="26.7" x2="32.7" y2="34.4"/>
	<line class="st0" x1="38.5" y1="34.4" x2="32.7" y2="26.7"/>
	<path class="st0" d="M9.5,34.4v-4.6c0-1.6,1.3-2.9,2.9-2.9l0,0c1.6,0,2.9,1.3,2.9,2.9v4.6"/>
	<path class="st0" d="M15.3,29.8c0-1.6,1.3-2.9,2.9-2.9l0,0c1.6,0,2.9,1.3,2.9,2.9v4.6"/>
	<path class="st0" d="M29.7,31.5c0,1.6-1.3,2.9-2.9,2.9h0l0,0c-1.6,0-2.9-1.3-2.9-2.9c0,0,0,0,0,0v-1.9c0-1.6,1.3-2.9,2.9-2.9
		c0,0,0,0,0,0l0,0c1.6,0,2.9,1.3,2.9,2.9"/>
	<line class="st0" x1="29.7" y1="34.4" x2="29.7" y2="26.7"/>
	<line class="st0" x1="11.3" y1="13.6" x2="11.3" y2="24.1"/>
	<line class="st0" x1="18.3" y1="13.6" x2="18.3" y2="24.1"/>
	<line class="st0" x1="11.3" y1="18.8" x2="18.3" y2="18.8"/>
	<path class="st0" d="M30.9,20.6c0,1.9,1.6,3.5,3.5,3.4c1.9,0,3.4-1.5,3.4-3.4v-3.5c0-1.9-1.6-3.5-3.5-3.4c-1.9,0-3.4,1.5-3.4,3.4
		L30.9,20.6z"/>
	<path class="st0" d="M25.6,18.8c1.4,0,2.6,1.2,2.6,2.6s-1.2,2.6-2.6,2.6c0,0,0,0,0,0h-4.3V13.6h4.3c1.4,0,2.6,1.2,2.6,2.6
		S27.1,18.8,25.6,18.8C25.6,18.8,25.6,18.8,25.6,18.8z"/>
	<line class="st0" x1="25.6" y1="18.8" x2="21.3" y2="18.8"/>
	<line class="st0" x1="34.4" y1="20.1" x2="34.4" y2="17.5"/>
	<path class="st0" d="M5.5,19.6v20.9c0,1.1,0.9,2,2,2h33c1.1,0,2-0.9,2-2v-33c0-1.1-0.9-2-2-2h-33c-1.1,0-2,0.9-2,2V19.6"/>
</g>
</svg>
