<svg xmlns="http://www.w3.org/2000/svg" viewBox="0 0 48 48"><defs><style>.a{fill:none;stroke:#fff;stroke-linecap:round;stroke-linejoin:round;}</style></defs><path class="a" d="M5.38,31.6a10.13,10.13,0,0,0-1.45.12,21.5,21.5,0,0,0,12,12.21,10.75,10.75,0,0,0,.15-1.8A10.53,10.53,0,0,0,5.55,31.6H5.38Zm0-5.31a15.3,15.3,0,0,0-2.78.26A21.5,21.5,0,0,0,21.08,45.3a16,16,0,0,0,.32-3.17A15.84,15.84,0,0,0,5.55,26.29H5.43Zm.12-5.17a21.33,21.33,0,0,0-2.88.2A21.79,21.79,0,0,0,2.5,24,21.51,21.51,0,0,0,24,45.5a22.19,22.19,0,0,0,2.31-.12,20.84,20.84,0,0,0,.26-3.25,21,21,0,0,0-21-21Zm16.68,7.43v.8A21,21,0,0,1,24,32.06h1.74V28.55Zm6.39,0v3.51h3.51V28.55ZM15.93,22.14v1.72a21.7,21.7,0,0,1,2.66,1.79h.85V22.14Zm6.3,0v3.51h3.51V22.14Zm6.39,0v3.51h3.51V22.14Zm0-6.21h3.51v3.51H28.62Zm-6.39,0h3.51v3.51H22.23Zm-6.3,0h3.51v3.51H15.93ZM45.5,24A21.5,21.5,0,1,1,24,2.5,21.51,21.51,0,0,1,45.5,24Z"/></svg>