<svg xmlns="http://www.w3.org/2000/svg" viewBox="0 0 48 48"><defs><style>.a{fill:none;stroke:#fff;stroke-linecap:round;stroke-linejoin:round;}</style></defs><path class="a" d="M23.8119,35.8391V41.974c19.8155-4.5265,21.6349-23.47,15.7248-29.1234.3554-2.3869.98-5.5362.282-6.0644S35.958,7.9227,33.8953,8.4081c-5.8271-2.2887-11.9424-4.075-20.4494.2821-2.0925-.6835-5.0732-3.01-6.0292-2.1155s.1868,4.6541.282,6.9812C-.8357,32.55,17.8134,35.3536,23.8122,35.839Z"/><path class="a" d="M16.7956,15.706c4.7519-.2175,9.7558-.0572,14.174-.7756"/><path class="a" d="M22.4371,11.7578c-.4366,6.0048-.4993,13.538,1.0225,16.29"/><path class="a" d="M27.9026,18.421c-1.4681,3.8634-3.5558,8.3122-8.25,9.59-2.92.7951-4.3025-3.6226.2352-6.8214,3.1629-2.23,8.1466-2.2,10.6948-.336,5.44,3.98-.342,7.861-5.2535,8.8851"/></svg>