<svg xmlns="http://www.w3.org/2000/svg" viewBox="0 0 48 48"><defs><style>.a{fill:none;stroke:#fff;stroke-linecap:round;stroke-linejoin:round;}</style></defs><path class="a" d="M40.83,25.11a2,2,0,0,0,1.05-.55,2.15,2.15,0,0,0-1.25-3.5.45.45,0,0,1-.42-.42V20.5a5.27,5.27,0,0,0,.7-.91c2.25-3,3.27-14,1.05-14.91-2.72-.91-8.24,1.75-10.63,4.83a.59.59,0,0,1-.28-.5,1.94,1.94,0,0,0-1-1.88A2.17,2.17,0,0,0,27.14,8c-.14.22-.36.36-.55.28a.44.44,0,0,1-.42-.42A2,2,0,0,0,25,6.38,2.11,2.11,0,0,0,22,7.85c-.08.22-.22.41-.41.41s-.42-.08-.56-.27a2.13,2.13,0,0,0-4,1v.16a.61.61,0,0,1-.27.5h0c-2.31-3-8-5.74-10.77-4.83-2.25.78-1.2,11.83,1.11,14.83a11.79,11.79,0,0,0,1.05,1.25.59.59,0,0,1-.5.41,1.57,1.57,0,0,0-1,.36,2.14,2.14,0,0,0,.83,3.72.61.61,0,0,1,.42.5.59.59,0,0,1-.36.56,2.06,2.06,0,0,0-.78.55,2.1,2.1,0,0,0,1.53,3.42.54.54,0,0,1,.5.36.4.4,0,0,1-.14.55,1.81,1.81,0,0,0-.56,1.53,2.2,2.2,0,0,0,1.33,1.8,1.72,1.72,0,0,0,1.25.14.44.44,0,0,1,.56.22.58.58,0,0,1,.08.56,1.86,1.86,0,0,0-.14,1.39,2.14,2.14,0,0,0,1.53,1.52,2.45,2.45,0,0,0,1.53-.22,38.25,38.25,0,0,1-1.67,4.28.72.72,0,0,0,1,.91c2.31-1,6.17-2.86,6.17-2.72a2.12,2.12,0,0,0,3.41,1.47,1.6,1.6,0,0,0,.64-1,.6.6,0,0,1,.55-.41.52.52,0,0,1,.56.41,1.3,1.3,0,0,0,.5.84A2.11,2.11,0,0,0,29,40.71a.54.54,0,0,1,.36-.5.52.52,0,0,1,.56.14,2.07,2.07,0,0,0,1.47.7h0A2.11,2.11,0,0,0,33.19,40a1.83,1.83,0,0,0,.28-1.39.76.76,0,0,1,.22-.55.43.43,0,0,1,.56,0,1.85,1.85,0,0,0,1.38.22,2.17,2.17,0,0,0,1.61-1.47,2.09,2.09,0,0,0-.13-1.47.45.45,0,0,1,.08-.56.88.88,0,0,1,.55-.22,2.1,2.1,0,0,0,2.53-1.67,1.94,1.94,0,0,0-.55-1.8.5.5,0,0,1-.14-.55.56.56,0,0,1,.5-.37,1.71,1.71,0,0,0,1.38-.55,2.11,2.11,0,0,0-.69-3.5.55.55,0,0,1-.36-.55A.44.44,0,0,1,40.83,25.11Z"/><path class="a" d="M35.22,11.68a.56.56,0,0,0,.69.69,1.78,1.78,0,0,1,.84-.14,2,2,0,0,1,1.61.84,1.79,1.79,0,0,1,.41,1.33,2,2,0,0,1-.36,1.11.41.41,0,0,0,0,.55c.08.09.14.23.28.23a1.7,1.7,0,0,0,.78-.56C40.71,14,40.94,8.46,39.69,8s-3.42.42-5,1.67C35.5,10.12,35.36,11.26,35.22,11.68Z"/><path class="a" d="M9.57,16.37l.22-.22a.49.49,0,0,0,0-.56A2.06,2.06,0,0,1,11,12.37a1.75,1.75,0,0,1,1.25.09.5.5,0,0,0,.55-.14.53.53,0,0,0,.14-.56,1.91,1.91,0,0,1,0-1.25,2,2,0,0,1,.42-.78C11.79,8.49,9.46,7.57,8.21,8s-1,5.94.25,7.69A1.51,1.51,0,0,0,9.57,16.37Z"/><circle class="a" cx="15.65" cy="24.97" r="2.58"/><path class="a" d="M26.7,25a2.59,2.59,0,1,1-5.17,0C21.53,23.59,26.7,23.5,26.7,25Z"/><circle class="a" cx="32.5" cy="24.97" r="2.58"/></svg>