<?xml version="1.0" encoding="UTF-8"?><svg id="a" xmlns="http://www.w3.org/2000/svg" viewBox="0 0 48 48"><defs><style>.v{fill:none;stroke:#fff;stroke-linecap:round;stroke-linejoin:round;}</style></defs><path id="e" class="v" d="M25.30079621,10.20972435c-3.60682994,4.5997821,1.23294155,15.29127638-1.62392382,24.97582018"/><path id="f" class="v" d="M30.85353526,8.64279799c-4.55078558,1.88591057.43797903,6.03571412-3.2218479,7.14666169-1.8179149.55197397-3.10585225-.54197421-3.64582765-1.85991178"/><path id="g" class="v" d="M30.85153455,18.37333914c-.49597686,4.13880439-5.07475908,4.20280054-6.79967987.66396819"/><path id="h" class="v" d="M28.39665061,26.42495877c-.72196601,1.06394891-3.10285404.98395276-3.79682149-.12999302"/><path id="i" class="v" d="M30.07757095,27.97888429l.07599662-1.49892973c.04699866-.93795541.70396721-1.69092009,1.84691286-1.6569213.73996672.02299963,1.46692974.89595758,1.46692974,1.69392021v1.34493577c.0009994.82696059.43997784,1.72291817,2.06190285,1.66292154,1.46493094-.0539983,1.93990697-1.41493216,1.68991878-2.90786165"/><path id="j" class="v" d="M28.33065375,38.62838265c-1.21494275-1.01595084-2.03990263-2.72587295-1.09694829-4.04680968.73996481-1.03995178,2.93086128-1.42293311,3.74982283-.19499048.81296131,1.21994358.16299241,2.04590477.14899313,2.9178614-.00999976.56797396.44497867,1.15894564,1.46393153,1.07294735"/><path id="k" class="v" d="M20.85600653,31.42972146c3.29584381-5.36274558-2.17389707-4.75777463.1969912-8.27760878,1.51692853-2.25189441-2.25589393-6.0667128-5.57173725-4.42179196"/><path id="l" class="v" d="M38.332182,32.02669338c1.60892514-.79796263,3.73082272-6.70368374.60297215-8.12061661-1.55692565-.70496662-1.764916.59797132-3.18385149.4319788-.63097071-.07299651-1.35793755-.3419848-1.70991829-2.00690515"/><path id="m" class="v" d="M28.3576529,30.5907604c3.53883236-.7029659,5.52573799,1.28993997,6.40769629,3.30484416.2339901.53297576,1.29993782.80296347,1.39093312.06899698.1619911-1.31093888,1.31893793-2.40988599,2.54287912-1.52192745,2.53288127,1.83791441-.1799918,7.25165628-3.05785418,5.74472751"/><path id="n" class="v" d="M37.23523371,14.75650945c-1.01995227.87495866-.66196747,1.76991683-.31998458,2.93786092.31998458,1.09694829-.00500083,2.07290201-1.50192794,2.25489453-2.80986861.33998409-2.45788405-3.64282753-1.2799383-6.77167941,2.70687284-7.18066096-5.75972809-10.41150778-10.19251922-4.09280704-1.34293696-1.6479219-3.28784476-3.76282223-6.75668073-3.57283115-2.92586235.15999229-5.19875377,1.68791997-5.6437334,5.54773822"/><path id="o" class="v" d="M34.65235556,10.28072109c5.89972278,1.20194288,7.97462169,7.39965,3.11285189,13.45436423"/><path id="p" class="v" d="M33.93738919,36.76346909c4.13680558,1.86091214.38398073,5.75772738-3.83881933,5.71572955-2.58187874-.02599975-5.10975918-.95595611-6.42469568-2.81586503-2.80186766,2.94086294-7.87962782,4.08880751-10.18451922,1.02695191-2.42788574-3.2228473.09599518-4.28879883-.00999976-6.96166906-.06999639-1.80691383-2.53088056-1.23694107-1.76291624-5.01576186"/><path id="q" class="v" d="M12.4344045,37.92441353c-3.07985441-.82496179-4.79477353-4.37979413-4.9597657-6.75968085-.23698879-3.4388367,1.9179096-6.41369652,5.09375919-6.32070241,4.63478125.13499385,6.28770303,5.0597604,4.84677112,8.95457493,1.86791178-.4479807,3.4038385,1.03794916,2.85286585,2.92486104-.71496637,2.44988501-3.18084947,1.9069114-3.95481307,1.09094806"/><path id="r" class="v" d="M11.70743956,20.52923742c-.19199132,1.76691672.09599518,3.09985392,1.32993709,4.34679475"/><path id="s" class="v" d="M9.72053297,25.72599048c-2.11489985-2.07990165-3.53183319-5.8517228-.57997252-8.16961408,1.91490949-1.50292925,4.66477956-.72096661,5.73172954.45997735,1.0799489,1.19394383,1.15594552,2.99485743.88695818,4.6797792"/><path id="t" class="v" d="M12.13941836,13.62156285c-.4939771,1.07194986-.46497818,2.03690346.12599445,3.14985079"/><path id="u" class="v" d="M9.07156347,17.61537363c-1.38193468-1.86191154-.77996288-4.49978739.53297481-5.65073304,1.73191852-1.51692853,4.31579607-1.0539501,5.60973461.05299795,1.58592551,1.35593588,1.8549119,4.04180885,4.04680777,3.64982717,1.88591057-.33698397,2.55487959-3.21484826.71696518-4.3027962-.5749736-.33998409-1.11494709-.368983-1.56992552-.47097747-.69996769-.15799253-1.44793154-.81096155-1.12594625-2.39888683"/></svg>