<?xml version="1.0" encoding="UTF-8"?><svg id="b" xmlns="http://www.w3.org/2000/svg" viewBox="0 0 48 48"><defs><style>.c{fill:none;stroke:#fff;stroke-linecap:round;stroke-linejoin:round;}</style></defs><path class="c" d="M38.5,5.5H9.5c-2.2,0-4,1.8-4,4v29c0,2.2,1.8,4,4,4h29c2.2,0,4-1.8,4-4V9.5c0-2.2-1.8-4-4-4Z"/><line class="c" x1="11" y1="20.9" x2="11" y2="27.1"/><line class="c" x1="20.1" y1="20.9" x2="24.2" y2="20.9"/><line class="c" x1="22.1" y1="27.1" x2="22.1" y2="20.9"/><line class="c" x1="14.8" y1="24" x2="16.8" y2="24"/><polyline class="c" points="14.8 27.1 14.8 20.9 17.8 20.9"/><line class="c" x1="26.4" y1="20.9" x2="30.5" y2="20.9"/><line class="c" x1="28.5" y1="27.1" x2="28.5" y2="20.9"/><line class="c" x1="32.9" y1="20.9" x2="37" y2="20.9"/><line class="c" x1="34.9" y1="27.1" x2="34.9" y2="20.9"/></svg>