<svg xmlns="http://www.w3.org/2000/svg" viewBox="0 0 48 48"><defs><style>.a{fill:none;stroke:#fff;stroke-linecap:round;stroke-linejoin:round;}</style></defs><path class="a" d="M12.3,33.1815l-5.878-8.2366s3.5942-2.0592,5.878-1.9469c0,0-3.2947-2.0592-3.2573-3.1075s2.8829-2.77,6.7766-3.3695"/><path class="a" d="M17.28,8.4715l-1.46,8.4613s.599,5.2415,9.6594,5.6534,7.9746-6.2524,7.9746-6.814.1123-7.0012-2.6582-7.6751a14.4049,14.4049,0,0,0-5.0169-.337l-.8237,2.808s-2.2464-2.5459-4.1558-2.5459A14.6328,14.6328,0,0,0,17.28,8.4715Z"/><path class="a" d="M40.52,37.7609a16.4083,16.4083,0,0,0-3.9587-4.8789l5.4662-8.2367c-.7862-.2995-3.407-1.1606-3.407-1.1606s1.7222-1.5724,1.7222-3.2572c0-1.273-3.0637-4.1558-6.8483-4.7548"/><path class="a" d="M10.74,30.9958a34.007,34.007,0,0,0-5.1478,4.1183"/><path class="a" d="M16.1288,15.14a13.3961,13.3961,0,0,0,9.6121,3.8143c4.942,0,6.33-1.3478,7.7513-2.4335"/><path class="a" d="M26.9429,27.1708c0,1.855-.6029,4.0639-3.5981,4.0639s-3.0326-2.77-2.92-5.279c2.2464.7114,8.4639,2.2838,13.0677.2247.71,2.471-.3382,4.5676-1.9481,4.5676S28.6612,29.5874,28.7,27.19"/><path class="a" d="M26.34,35.5777s-6.6643,2.3212-7.413,2.5459-2.5459-3.4819-1.8346-4.1558,2.6337-1.0858,3.3011-.4119.2623,3.988.2623,3.988"/><circle class="a" cx="24" cy="24" r="21.5"/></svg>