<?xml version="1.0" encoding="UTF-8"?><svg id="a" xmlns="http://www.w3.org/2000/svg" viewBox="0 0 48 48"><defs><style>.c{fill:none;stroke:#fff;stroke-linecap:round;stroke-linejoin:round;}</style></defs><path class="c" d="M22.7611,21.5039l-1.1499-2.0998c-2.0542-3.7514-6.3324-5.9379-10.494-4.9514-1.7521.4153-3.4121,1.318-4.7641,2.7081-3.6336,3.7361-3.6336,9.942,0,13.6782,1.352,1.3902,3.0121,2.2929,4.7641,2.7082,4.1617.9865,8.4398-1.2001,10.4941-4.9514l5.0333-9.1916c2.0542-3.7514,6.3324-5.9379,10.4941-4.9514,1.7521.4153,3.4121,1.318,4.7641,2.7082,3.6336,3.7361,3.6335,9.9421,0,13.6782-.2249.2313-.4583.449-.6993.6533-4.6157,3.9129-11.7538,2.2258-14.6601-3.0816l-1.0486-1.9148"/><polygon class="c" points="39.2889 23.9999 33.0215 20.1249 33.0215 27.8749 39.2889 23.9999"/></svg>