<svg xmlns="http://www.w3.org/2000/svg" viewBox="0 0 48 48"><defs><style>.a{fill:none;stroke:#fff;stroke-linecap:round;stroke-linejoin:round;}</style></defs><path class="a" d="M40.5,5.5H7.5a2,2,0,0,0-2,2v33a2,2,0,0,0,2,2h33a2,2,0,0,0,2-2V7.5A2,2,0,0,0,40.5,5.5Z"/><polyline class="a" points="24.73 12.5 24.73 35.5 36.23 35.5"/><line class="a" x1="11.77" y1="35.5" x2="16.77" y2="35.5"/><line class="a" x1="11.77" y1="12.5" x2="16.77" y2="12.5"/><line class="a" x1="22.23" y1="12.5" x2="27.23" y2="12.5"/><line class="a" x1="36.23" y1="29.99" x2="36.23" y2="35.5"/><line class="a" x1="14.27" y1="12.5" x2="14.27" y2="35.5"/><line class="a" x1="22.23" y1="35.5" x2="24.73" y2="35.5"/></svg>