<?xml version="1.0" encoding="UTF-8"?><svg id="b" xmlns="http://www.w3.org/2000/svg" viewBox="0 0 48 48"><defs><style>.c{fill:none;stroke:#fff;stroke-linecap:round;stroke-linejoin:round;}</style></defs><path class="c" d="M31.4716,19.3942h-10.2153c-.2905,0-.533.2432-.5192.5334.1006,2.1123.7946,4.0611,1.8976,5.7165.1131.1698-.0017.3935-.2057.3935h-3.0819c-.2296,0-.4231.1941-.408.4232.0856,1.3021.5633,2.4927,1.3061,3.4729.1515.1999-.0016.4867-.2525.4867h-3.7474c-.2672,0-.4933.2252-.4688.4913.233,2.5314,2.2482,4.5467,4.7797,4.7797.2661.0245.4913-.2016.4913-.4688v-3.7474c0-.2508.2868-.404.4867-.2525.9802.7428,2.1708,1.2204,3.4729,1.3061.2291.0151.4232-.1784.4232-.408v-3.082c0-.204.2237-.3188.3935-.2057,1.6554,1.103,3.6042,1.7971,5.7165,1.8977.2902.0138.5334-.2287.5334-.5192v-10.2153c0-.3325-.2695-.602-.602-.602Z"/><path class="c" d="M36.687,42.4154H11.313c-3.2104,0-5.813-2.6026-5.813-5.813v-15.1868c0-2.9653,1.4749-5.7365,3.9346-7.3927l10.8464-7.3031c2.2483-1.5138,5.1897-1.5138,7.438,0l10.8464,7.3031c2.4597,1.6562,3.9346,4.4273,3.9346,7.3927v15.1868c0,3.2104-2.6026,5.813-5.813,5.813Z"/></svg>