<svg id="Layer_2" data-name="Layer 2" xmlns="http://www.w3.org/2000/svg" viewBox="0 0 48 48"><defs><style>.cls-1{fill:none;stroke:#fff;stroke-linecap:round;stroke-linejoin:round;stroke-width:1.05px;}</style></defs><path class="cls-1" d="M5.5,40.55a2,2,0,0,0,2,2h33.1a2,2,0,0,0,2-2V7.45a2,2,0,0,0-2-1.95H7.45a2,2,0,0,0-1.95,2Z"/><path class="cls-1" d="M24,35.44A1.2,1.2,0,0,1,23,35l-7.55-9.84a1.23,1.23,0,0,1-.13-1.28,1.22,1.22,0,0,1,1.1-.68h3l-6.63-8.64a1.24,1.24,0,0,1-.13-1.28,1.22,1.22,0,0,1,1.1-.68H34.22a1.22,1.22,0,0,1,1.1.68,1.24,1.24,0,0,1-.13,1.28l-6.63,8.64h3a1.22,1.22,0,0,1,1.1.68,1.23,1.23,0,0,1-.13,1.28L25,35A1.2,1.2,0,0,1,24,35.44Z"/></svg>