<?xml version="1.0" encoding="UTF-8"?><svg id="b" xmlns="http://www.w3.org/2000/svg" viewBox="0 0 48 48"><defs><style>.c{fill:none;stroke:#fff;stroke-linecap:round;stroke-linejoin:round;}</style></defs><path class="c" d="M29.5768,12.4417c.5308-.2202,1.1128-.3417,1.7232-.3417"/><path class="c" d="M26.8,16.6c0-.6104.1215-1.1924.3417-1.7232"/><path class="c" d="M27.1417,18.3232c-.2202-.5308-.3417-1.1128-.3417-1.7232"/><path class="c" d="M31.3,21.1c-.6104,0-1.1924-.1215-1.7232-.3417"/><path class="c" d="M33.0232,20.7583c-.5308.2202-1.1128.3417-1.7232.3417"/><path class="c" d="M35.8,16.6c0,.6104-.1215,1.1924-.3417,1.7232"/><path class="c" d="M35.4583,14.8768c.2202.5308.3417,1.1128.3417,1.7232"/><path class="c" d="M31.3,12.1c.6104,0,1.1924.1215,1.7232.3417"/><path class="c" d="M18.9,21.1c.3-.3,1.1-.1,1.1-.1"/><path class="c" d="M18.1167,22.2333l.7833-1.1333"/><path class="c" d="M14.9833,26.7667l1.5667-2.2667"/><path class="c" d="M11.85,31.3l1.5667-2.2667"/><path class="c" d="M9.5,34.7l.7833-1.1333"/><path class="c" d="M10.1,35.8c-.6,0-.6-1.1-.6-1.1"/><path class="c" d="M11.49,35.8h-1.39"/><path class="c" d="M17.05,35.8h-2.78"/><path class="c" d="M22.61,35.8h-2.78"/><path class="c" d="M28.17,35.8h-2.78"/><path class="c" d="M33.73,35.8h-2.78"/><path class="c" d="M37.9,35.8h-1.39"/><path class="c" d="M38.4,34.6c.4.4-.5,1.2-.5,1.2"/><path class="c" d="M37.425,33.625l.975.975"/><path class="c" d="M33.525,29.725l1.95,1.95"/><path class="c" d="M30.6,26.8l.975.975"/><path class="c" d="M29.6,26.8c.3-.3,1,0,1,0"/><path class="c" d="M28.2,28.2l1.4-1.4"/><path class="c" d="M27.2,28.2c.3.3,1,0,1,0"/><path class="c" d="M26.3,27.3l.9.9"/><path class="c" d="M22.7,23.7l1.8,1.8"/><path class="c" d="M20,21l.9.9"/><path class="c" d="M40.0317,5.8038c-.4718-.1957-.9891-.3037-1.5317-.3037"/><path class="c" d="M42.5,9.5c0-.5426-.108-1.0599-.3037-1.5317"/><path class="c" d="M42.5,10.95v-1.45"/><path class="c" d="M42.5,16.75v-2.9"/><path class="c" d="M42.5,22.55v-2.9"/><path class="c" d="M42.5,28.35v-2.9"/><path class="c" d="M42.5,34.15v-2.9"/><path class="c" d="M42.5,38.5v-1.45"/><path class="c" d="M42.1962,40.0317c.1957-.4718.3037-.9891.3037-1.5317"/><path class="c" d="M38.5,42.5c.5426,0,1.0599-.108,1.5317-.3037"/><path class="c" d="M37.05,42.5h1.45"/><path class="c" d="M31.25,42.5h2.9"/><path class="c" d="M25.45,42.5h2.9"/><path class="c" d="M19.65,42.5h2.9"/><path class="c" d="M13.85,42.5h2.9"/><path class="c" d="M9.5,42.5h1.45"/><path class="c" d="M7.9683,42.1963c.4718.1957.9891.3037,1.5317.3037"/><path class="c" d="M5.5,38.5c0,.5426.108,1.0599.3037,1.5317"/><path class="c" d="M5.5,37.05v1.45"/><path class="c" d="M5.5,31.25v2.9"/><path class="c" d="M5.5,25.45v2.9"/><path class="c" d="M5.5,19.65v2.9"/><path class="c" d="M5.5,13.85v2.9"/><path class="c" d="M5.5,9.5v1.45"/><path class="c" d="M5.8037,7.9683c-.1957.4718-.3037.9891-.3037,1.5317"/><path class="c" d="M9.5,5.5c-.5426,0-1.0599.108-1.5317.3037"/><path class="c" d="M10.95,5.5h-1.45"/><path class="c" d="M16.75,5.5h-2.9"/><path class="c" d="M22.55,5.5h-2.9"/><path class="c" d="M28.35,5.5h-2.9"/><path class="c" d="M34.15,5.5h-2.9"/><path class="c" d="M38.5,5.5h-1.45"/></svg>