<svg xmlns="http://www.w3.org/2000/svg" viewBox="0 0 48 48"><defs><style>.a{fill:none;stroke:#fff;stroke-linecap:round;stroke-linejoin:round;}</style></defs><path class="a" d="M4.9968,15.1177l3.864-6.693,29.8755-.1532L43.3,15.3164Z"/><path class="a" d="M4.9968,15.1177v2.0838L43.3,17.2028V15.3164m-2.002,1.8864L43.5,26.53,26.38,26.63m-3.4436,0H4.5l2.0838-9.4268M4.5,26.63l2.1832,9.4267,6.68.0315m21.1061.25,6.45-.0826L43.5,26.53M11.8928,17.2028,24.4464,27.9185l11.908-7.9377L33,17.2025M13.2326,29.1108l.1987,10.6177,21.038-.2981v-10.32"/><path class="a" d="M13.2735,31.294H10.7514l-.1987-2.1832H37.5453l-.1987,2.1832H34.4693M15.3164,37.1983,26.63,37M15.3164,34.56H26.63M15.3164,31.74,26.63,31.641"/></svg>