<?xml version="1.0" encoding="UTF-8"?><svg id="b" xmlns="http://www.w3.org/2000/svg" viewBox="0 0 48 48"><defs><style>.d{fill:none;stroke:#fff;stroke-linecap:round;stroke-linejoin:round;}</style></defs><path class="d" d="M19.107,10.6986c.203-2.9355,2.3332-5.1986,4.8932-5.1986,2.56,0,4.6901,2.2631,4.8932,5.1986"/><path class="d" d="M21.8967,10.7838c.0873-1.2623,1.0033-2.2356,2.1042-2.2356,1.1009,0,2.0169.9733,2.1042,2.2356"/><circle class="d" cx="24.0006" cy="14.4617" r="2.1399"/><path class="d" d="M24.0006,16.6014v4.1245"/><path class="d" d="M15.3061,25.1428l.0309-4.4165h17.419v4.4165M7.0068,25.1428h33.9865c.7747,0,1.3983.6236,1.3983,1.3983v14.5605c0,.7747-.6236,1.3983-1.3983,1.3983H7.0068c-.7747,0-1.3983-.6236-1.3983-1.3983v-14.5605c0-.7747.6236-1.3983,1.3983-1.3983Z"/><path class="d" d="M12.8085,29.004c-.5406,0-.9759.4354-.9759.9759v1.5178h-1.5178c-.5406,0-.9759.4354-.9759.9759v2.5401c0,.5406.4354.9759.9759.9759h1.5178v1.5178c0,.5406.4354.9759.9759.9759h2.5401c.5406,0,.9759-.4354.9759-.9759v-1.5178h1.5178c.5406,0,.9759-.4354.9759-.9759v-2.5401c0-.5406-.4354-.9759-.9759-.9759h-1.5178v-1.5178c0-.5406-.4354-.9759-.9759-.9759h-2.5401ZM35.1935,29.004c.5406,0,.9759.4354.9759.9759v1.5178h1.5178c.5406,0,.9759.4354.9759.9759v2.5401c0,.5406-.4354.9759-.9759.9759h-1.5178v1.5178c0,.5406-.4354.9759-.9759.9759h-2.5401c-.5406,0-.9759-.4354-.9759-.9759v-1.5178h-1.5178c-.5406,0-.9759-.4354-.9759-.9759v-2.5401c0-.5406.4354-.9759.9759-.9759h1.5178v-1.5178c0-.5406.4354-.9759.9759-.9759h2.5401Z"/></svg>