<?xml version="1.0" encoding="UTF-8"?><svg id="b" xmlns="http://www.w3.org/2000/svg" viewBox="0 0 48 48"><defs><style>.j{fill:none;stroke:#fff;stroke-linecap:round;stroke-linejoin:round;}</style></defs><g id="c"><path id="d" class="j" d="m31.4426,17.5633c1.1565-3.0723,2.4042-6.3555,4.9782-8.5299,2.6923-2.3311,5.0886.3693,5.4573,2.7204"/><path id="e" class="j" d="m41.8781,11.7539c.3834,2.7215-.8411,4.7207-2.7498,6.795-2.5768,2.4956-5.6302,4.5431-8.9334,5.9463-6.5985,2.6407-14.6129,2.7343-20.7254-1.2089-1.9166-1.3791-4.1386-2.9793-4.4867-5.4955-.6259-6.6972,7.4171-7.5968,12.1329-6.7934,5.2736.8089,10.6356,2.7587,14.4026,6.6719.46.5628.8625,1.1738,1.1855,1.8253"/><path id="f" class="j" d="m29.7873,21.4651c-4.356-4.0219-10.1052-7.3536-16.2348-6.7291-1.8463.0449-3.9438.7972-4.0013,2.9461-.0651,2.3806,2.3497,3.6933,4.2517,4.4948,5.1101,2.1121,11.005,1.4376,15.9844-.7118Z"/><path id="g" class="j" d="m31.4426,17.5633c.9132-2.638,2.762-4.9496,4.9924-6.6058,2.2926-1.5384,3.6219.6291,3.1597,2.5396-1.0821,3.2968-5.0191,5.2172-6.8909,5.9974"/><path id="h" class="j" d="m18.2006,26.4497c-1.2047,5.7662,1.3532,12.3653,6.9734,14.7507,3.2873,1.3202,7.3058,1.4155,10.3976-1.1122,5.3228-5.3797,2.7726-12.582-.8015-17.8664"/><path id="i" class="j" d="m18.2006,26.4497c.36,4.4702,2.1227,8.9291,5.9482,11.518,3.4686,2.3723,9.1473,1.1385,10.6641-2.9732,1.492-4.5528-1.0778-7.8221-2.9796-10.9781"/></g></svg>