<?xml version="1.0" encoding="UTF-8"?><svg id="b" xmlns="http://www.w3.org/2000/svg" viewBox="0 0 48 48"><defs><style>.c{fill-rule:evenodd;}.c,.d{fill:none;stroke:#fff;stroke-linecap:round;stroke-linejoin:round;}</style></defs><path class="d" d="M35.0181,18.9872c.0104,0,.0104-.0104.0104-.0104.0208-.0416.0312-.0831.0312-.1351l.291-3.1281.3014-3.1385v-.0935l.0208-.0624.0208-.1351c.0208-.0831.052-.1663.0831-.239.0624-.1559.1455-.3014.2494-.4365.1039-.1247.2182-.239.3533-.3326.1247-.0935.2598-.1559.4053-.2078s.291-.0831.4365-.0831c.0312-.0104.0727-.0104.1039,0h.1039l.1039.0104.1663.0208c.5196.052,1.0496.1143,1.5692.1767.1247.0104.2494.0104.3741,0,.2078-.0208.4053-.0935.582-.1871.1871-.1039.3429-.239.478-.4053.1247-.1559.2182-.3429.2806-.5404.052-.1975.0727-.4053.052-.6131-.052-.4157-.2702-.7898-.5924-1.0496-.3326-.2598-.7482-.3845-1.1639-.3326-.53.0624-1.0496.1143-1.5796.1767l-.2286.0208-.291.0416c-.0935.0104-.1871.0312-.2806.052s-.1871.052-.2806.0831c-.3637.1039-.7067.2702-1.0288.478-.3118.1975-.5924.4469-.8418.7171-.239.2806-.4469.582-.6027.9041s-.2702.6651-.3222,1.0184c-.0312.1767-.052.3533-.0624.53v.3949l.0104.0935.3014,3.1385.1871,2.1408"/><path class="d" d="M26.3406,17.1997s.6131-8.5629.6131-8.5632c-.0208-.9353-.3741-1.8394-.9977-2.5461-.6443-.7378-1.5277-1.2263-2.4941-1.3926-.1691-.0291-2.3242-.2077-2.4214-.1975-.1975.0208-.4053.0831-.582.1767-.1871.0935-.3533.2182-.4884.3845-.1247.1559-.2286.3326-.291.53s-.0831.4053-.0624.6131c.0104.2078.0727.4053.1663.5924.0935.1767.2286.3429.3845.478.1663.1247.3429.2286.5404.291s.4053.0831.6131.0624l1.8498-.1559c.3637-.0104.7275.1039,1.0184.3326.3118.239.53.5924.6027.9873.0003.0015.6339,8.4074.6339,8.4073"/><path class="d" d="M16.9145,17.2029l15.6461-.0015c.3411,0,.6787.067.9939.1967.3149.1299.601.3203.842.5603.2413.24.4324.5248.5625.8382.1304.3136.1975.6497.1972.9888v23.7147"/><path class="d" d="M21.0758,42.5239l1.789-14.9429"/><path class="d" d="M35.1609,41.5288h2.6777v-.362c0-.3287.1312-.6443.3648-.8769.2334-.2326.5503-.3636.881-.3641.3304.0005.6474.1315.881.3641.2336.2326.3648.5483.3648.8769v2.3333H15.9993v-2.3333c0-.3287.1312-.6443.3648-.8769.2336-.2326.5503-.3636.881-.3641.3307.0005.6476.1315.8815.3641.2339.2326.3653.548.3659.8769v.362l2.7111-.001"/><path class="d" d="M21.8284,20.887h4.1534c0,2.6303-.9373,4.7949-2.0767,4.7949s-2.0767-2.1646-2.0767-4.7949Z"/><path class="d" d="M25.9817,20.887h4.1534c0,2.6303-.9373,4.7949-2.0767,4.7949s-2.0767-2.1646-2.0767-4.7949Z"/><path class="c" d="M25.3429,20.889c.3014.1247.53.3949.6027.7275v.052"/><path class="c" d="M25.9041,22.1568c0,.0104-.0104.0104-.0104.0208-.1351.3845-.5092.6651-.9457.6651-.5612,0-1.0184-.4573-1.0184-1.0184,0-.4157.2598-.7794.6235-.9353"/><path class="c" d="M30.1129,21.5333c-.052-.2702-.2182-.4988-.4469-.6443"/><path class="c" d="M28.5645,20.889c-.2806.1767-.4677.4884-.4677.8522,0,.5716.4573,1.0184,1.0184,1.0184.4365,0,.8002-.2598.9457-.6443"/><path class="d" d="M16.9145,27.5795h7.6922"/><path class="d" d="M15.6261,17.2029h1.2884v10.3766h-1.2836c-.6476.0008-1.2889-.1256-1.8876-.3717-.5985-.2459-1.1424-.6066-1.6008-1.0619-.4583-.455-.8222-.9957-1.0706-1.5906-.2484-.5952-.3766-1.2329-.3771-1.8772v-.5625c-.001-.6448.1259-1.2836.3735-1.8795.2474-.5959.6104-1.1376,1.0685-1.5939.4581-.4563,1.0018-.8181,1.6005-1.0652.5987-.2469,1.2405-.374,1.8887-.374Z"/><path class="d" d="M21.8268,18.8139l8.3098.5343"/><path class="d" d="M23.2098,43.5v-4.8904"/><path class="d" d="M29.702,43.5v-3.1557c0-.3595-.1437-.7045-.3992-.9585-.2553-.2543-.602-.3972-.9633-.3972-.1791,0-.3564.0349-.5218.1029-.1656.068-.3159.1676-.4425.2935-.1266.1261-.2273.2754-.2958.44-.0685.1646-.1037.3409-.1037.5192v3.1557"/><path class="d" d="M33.4679,38.6096v4.8904"/><ellipse class="d" cx="27.9191" cy="34.6246" rx="1.9373" ry="1.9274"/><path class="d" d="M27.9191,31.4279v1.2693"/><path class="d" d="M22.9081,31.2526h11.9745"/><path class="d" d="M7.2448,39.2837c.1946-.4054.4796-.7607.8334-1.0393.3541-.2783.7671-.4726,1.2083-.5673.6422-.1414,1.3134-.0642,1.9057.22.6498.3079,1.1634.8429,1.4429,1.5031.1665.3849.2484.801.2395,1.2202-.0089.4192-.1078.8316-.2905,1.2092-.1812.3782-.4418.7134-.7638.9828-.3223.2698-.6987.4677-1.1041.5805-.6923.1916-1.4313.125-2.0774-.1879-.5933-.2814-1.0748-.7525-1.3674-1.3378-.2022-.3999-.3098-.8408-.3144-1.2886-.0046-.4479.0938-.8909.2878-1.2947Z"/><path class="d" d="M10.7166,43.3873c-.1668-.3849-.2487-.801-.2398-1.2202.0089-.4192.1078-.8316.2908-1.2092.1812-.3782.4415-.7134.7638-.9831.322-.2695.6984-.4674,1.1038-.5802"/><path class="d" d="M9.2865,37.6771c.2025.4011.3101.8429.3144,1.2917.0043.4488-.0947.8927-.2896,1.2975-.1946.4051-.4796.7601-.8334,1.0384-.3541.2783-.7674.472-1.2083.5664"/><path class="d" d="M38.7219,35.2185c-.0906,1.5661-.2346,4.0055-3.5656,4.2495"/></svg>