<?xml version="1.0" encoding="UTF-8"?><svg id="b" xmlns="http://www.w3.org/2000/svg" viewBox="0 0 48 48"><defs><style>.e{fill:none;stroke:#fff;stroke-linecap:round;stroke-linejoin:round;}</style></defs><path class="e" d="M43.5,23.0659v3.6025c0,1.4739-1.1947,2.6686-2.6686,2.6686-.7369,0-1.404-.2987-1.8869-.7815"/><path class="e" d="M43.5,18.6625v4.403c0,1.4739-1.1947,2.6686-2.6686,2.6686s-2.6686-1.1947-2.6686-2.6686v-4.403"/><path class="e" d="M35.315,23.0659c0,1.4739-1.1947,2.6686-2.6686,2.6686s-2.6685-1.1947-2.6685-2.6686v-1.7345c0-1.4739,1.1947-2.6686,2.6685-2.6686s2.6686,1.1947,2.6686,2.6686"/><line class="e" x1="35.315" y1="25.7346" x2="35.315" y2="18.6625"/><path class="e" d="M21.7925,23.0659c0,1.4739,1.1947,2.6686,2.6686,2.6686s2.6686-1.1947,2.6686-2.6686v-1.7345c0-1.4739-1.1947-2.6686-2.6686-2.6686s-2.6686,1.1947-2.6686,2.6686"/><line class="e" x1="21.7925" y1="18.6625" x2="21.7925" y2="29.3375"/><path class="e" d="M11.7453,17.3387c-3.9994,0-7.2453,2.5655-7.2453,5.7245,0,1.9955,1.2986,3.7468,3.2666,4.7708l-.6514,2.6151c-.0386.1449.1173.2636.2471.1891l3.2665-1.9362c.3726.0497.7439.0759,1.1165.0759,3.9994,0,7.2453-2.56,7.2453-5.7148,0-3.1589-3.2459-5.7245-7.2453-5.7245h0Z"/></svg>