<?xml version="1.0" encoding="UTF-8"?><svg id="b" xmlns="http://www.w3.org/2000/svg" viewBox="0 0 48 48"><defs><style>.f{fill:none;stroke:#fff;stroke-linecap:round;stroke-linejoin:round;}</style></defs><path class="f" d="M6.0985,28.82h35.803M13.8485,16.55h19.418c1.187,0,1.403,1.013.657,1.837-2.923,3.232-6.867,4.687-10.307,5.489-1.006.235-.818.802-.374,1.265.978,1.02,2.064,2.448,2.064,5.002v8.929c0,2.169-1.614,3.443-3.556,3.443-1.734,0-3.229-.364-5.203-1.375M24.0085,5.485v4.064M7.0195,16.324v-5.182c-.0011-.8781.7099-1.5909,1.588-1.592.0013,0,.0027,0,.004,0h30.798c.8781-.0006,1.5904.7109,1.591,1.589v5.128"/></svg>