<?xml version="1.0" encoding="UTF-8"?><svg id="a" xmlns="http://www.w3.org/2000/svg" viewBox="0 0 48 48"><defs><style>.b{fill:none;stroke:#fff;stroke-linecap:round;stroke-linejoin:round;}</style></defs><line class="b" x1="35.5244" y1="15.4634" x2="37.9905" y2="22.5772"/><path class="b" d="M36.9472,19.6369c-.2846-.9485.1897-2.0867,1.2331-2.3713h0c.9485-.2846,2.0867.1897,2.3713,1.2331l.9485,2.9404"/><line class="b" x1="17.2182" y1="24.4743" x2="18.9255" y2="29.122"/><path class="b" d="M26.9878,25.897c.4307.2005.8862.4348,1.8284.1256l.2584-.1256c.664-.2846.9485-1.1382.7588-1.8022h0c-.1897-.664-.8537-.9485-1.5176-.7588l-.7588.2846c-.664.1897-1.3279-.0949-1.5176-.7588h0c-.1897-.664.0949-1.3279.7588-1.5176l.2755-.1216c.7576-.3431,1.336-.256,1.7154.0286"/><path class="b" d="M12.6653,23.336l2.1816,6.2602c.1897.4743.664.7588,1.2331.5691h.1897"/><path class="b" d="M35.3347,22.4824c-.0948.664-.5691,1.2331-1.2331,1.4228h0c-.9485.2846-2.0867-.1897-2.3713-1.2331l-.4743-1.2331c-.2846-.9485.1897-2.0867,1.2331-2.3713h0c.664-.1897,1.3279,0,1.897.2846"/><path class="b" d="M21.107,26.3713c.2846.9485,1.4228,1.5176,2.3713,1.2331h0c.9485-.2846,1.5176-1.4228,1.2331-2.3713l-.4743-1.2331c-.2846-.9485-1.4228-1.5176-2.3713-1.2331h0c-.9485.2846-1.5176,1.4228-1.2331,2.3713"/><line class="b" x1="20.0637" y1="23.4309" x2="22.5298" y2="30.5447"/><line class="b" x1="6.5" y1="25.4228" x2="9.061" y2="32.5366"/><line class="b" x1="8.1125" y1="30.1653" x2="10.294" y2="24.1897"/><line class="b" x1="12.855" y1="31.2087" x2="8.6816" y2="28.7425"/><line class="b" x1="16.1748" y1="21.6287" x2="15.7005" y2="22.0081"/><line class="b" x1="18.2615" y1="19.542" x2="17.7873" y2="19.9214"/><line class="b" x1="16.1748" y1="19.9214" x2="15.7005" y2="19.542"/><line class="b" x1="18.2615" y1="22.0081" x2="17.7873" y2="21.6287"/><circle class="b" cx="24" cy="24" r="21.5"/></svg>