<?xml version="1.0" encoding="UTF-8"?><svg id="a" xmlns="http://www.w3.org/2000/svg" viewBox="0 0 48 48"><defs><style>.b{fill:none;stroke:#fff;stroke-linecap:round;stroke-linejoin:round;}</style></defs><path class="b" d="M9.5,5.5h29c2.216,0,4,1.784,4,4v29c0,2.216-1.784,4-4,4H9.5c-2.216,0-4-1.784-4-4V9.5c0-2.216,1.784-4,4-4"/><path class="b" d="M17.078,28.699c5.532-5.023,6.922-11.503,6.938-20.356.016,8.853,1.405,15.333,6.937,20.356"/><path class="b" d="M24,8.343c-6.302,0-11.411,5.11-11.411,11.412s5.109,11.411,11.411,11.411,11.411-5.11,11.411-11.411-5.109-11.412-11.411-11.412"/><path class="b" d="M18.385,9.91c0,5.54.755,9.023,3.625,11.319"/><path class="b" d="M18.395,9.91c0,6.549-1.054,10.222-5.408,12.458M29.615,9.91c0,5.54-.755,9.023-3.625,11.319"/><path class="b" d="M29.605,9.91c0,6.549,1.054,10.222,5.408,12.458M31.105,39.646v-5.843h1.873c1.059,0,1.917.879,1.917,1.963,0,1.083-.858,1.962-1.917,1.962h-1.873M19.103,33.803v5.843M22.893,33.803v5.843M19.103,36.714h3.79M13.218,39.006c.351.466.791.64,1.403.64h.847c.788,0,1.427-.653,1.427-1.458v-.006c0-.805-.639-1.457-1.427-1.457h-.934c-.79,0-1.429-.654-1.429-1.46h0c0-.807.641-1.462,1.432-1.462h.842c.612,0,1.052.174,1.403.64M26.996,33.803c1.05,0,1.895.864,1.895,1.936v1.971c0,1.073-.845,1.936-1.895,1.936h0c-1.05,0-1.894-.863-1.894-1.936v-1.97c0-1.072.845-1.936,1.894-1.936"/></svg>