<svg xmlns="http://www.w3.org/2000/svg" viewBox="0 0 48 48"><defs><style>.a{fill:none;stroke:#fff;stroke-linecap:round;stroke-linejoin:round;}</style></defs><path class="a" d="M39.6,18.79V6.45a2,2,0,0,0-2-1.95H10.35a2,2,0,0,0-1.95,2v35.1a2,2,0,0,0,1.95,2h27.3a2,2,0,0,0,2-2V24.49"/><line class="a" x1="15.22" y1="12.7" x2="32.77" y2="12.7"/><line class="a" x1="32.77" y1="20.23" x2="15.22" y2="20.23"/><line class="a" x1="15.22" y1="27.77" x2="24.97" y2="27.77"/><line class="a" x1="15.22" y1="35.3" x2="21.07" y2="35.3"/><path class="a" d="M26,32.84V35.3H28.4a1,1,0,0,0,.68-.29L44.59,19.5l-2.85-2.85L26.23,32.16A1,1,0,0,0,26,32.84Z"/><path class="a" d="M46.78,17.29a.75.75,0,0,0,0-1.06h0l-1.73-1.77a.75.75,0,0,0-1.06,0l-2.25,2.2,2.85,2.85Z"/></svg>