<svg xmlns="http://www.w3.org/2000/svg" viewBox="0 0 48 48"><defs><style>.a{fill:none;stroke:#fff;stroke-linecap:round;stroke-linejoin:round;}</style></defs><path class="a" d="M40.5,5.5H7.5a2,2,0,0,0-2,2v33a2,2,0,0,0,2,2h33a2,2,0,0,0,2-2V7.5A2,2,0,0,0,40.5,5.5Z"/><path class="a" d="M19.4268,30.1245c1.0153.8526,2.1115,1.2432,4.5732,1.2432h1.2475a3.68,3.68,0,0,0,3.6759-3.6838h0A3.68,3.68,0,0,0,25.2475,24h-2.495a3.68,3.68,0,0,1-3.6759-3.6839h0a3.68,3.68,0,0,1,3.6759-3.6838H24c2.4617,0,3.5579.3906,4.5732,1.2432"/></svg>