<svg xmlns="http://www.w3.org/2000/svg" viewBox="0 0 48 48"><defs><style>.a{fill:none;stroke:#fff;stroke-linecap:round;stroke-linejoin:round;}</style></defs><path class="a" d="M40.5,5.5H7.5a2,2,0,0,0-2,2v33a2,2,0,0,0,2,2h33a2,2,0,0,0,2-2V7.5A2,2,0,0,0,40.5,5.5Z"/><path class="a" d="M29.5605,12.8789V29.5605A5.5606,5.5606,0,0,1,24,35.1211h0a5.543,5.543,0,0,1-3.9318-1.6286"/><rect class="a" x="18.4395" y="12.8789" width="11.1211" height="14.7354" rx="5.5605" transform="translate(48 40.4933) rotate(180)"/></svg>