<svg xmlns="http://www.w3.org/2000/svg" viewBox="0 0 48 48"><defs><style>.a{fill:none;stroke:#fff;stroke-linecap:round;stroke-linejoin:round;}</style></defs><path class="a" d="M40.5,5.5H7.5a2,2,0,0,0-2,2v33a2,2,0,0,0,2,2h33a2,2,0,0,0,2-2V7.5A2,2,0,0,0,40.5,5.5Z"/><path class="a" d="M18.44,22.0538A5.5606,5.5606,0,0,0,24,27.6144h0a5.5606,5.5606,0,0,0,5.5605-5.5606V18.44A5.5606,5.5606,0,0,0,24,12.8789h0A5.5606,5.5606,0,0,0,18.44,18.44"/><line class="a" x1="18.4395" y1="12.8789" x2="18.4395" y2="35.1211"/></svg>