<?xml version="1.0" encoding="UTF-8"?><svg id="a" xmlns="http://www.w3.org/2000/svg" viewBox="0 0 48 48"><defs><style>.g{fill:none;stroke:#fff;stroke-linecap:round;stroke-linejoin:round;}</style></defs><path id="b" class="g" d="M38.5,5.5H9.5c-2.2091,0-4,1.7909-4,4v29c0,2.2091,1.7909,4,4,4h29c2.2091,0,4-1.7909,4-4V9.5c0-2.2091-1.7909-4-4-4Z"/><polyline id="c" class="g" points="10.9565 17 10.9565 30.913 17.913 30.913"/><path id="d" class="g" d="M26.9565,29.2609c-.5217,1.0435-1.7391,1.7391-2.9565,1.7391h0c-1.913,0-3.4783-1.5652-3.4783-3.4783v-2.2609c0-1.913,1.5652-3.4783,3.4783-3.4783h0c1.913,0,3.4783,1.5652,3.4783,3.4783v1.2174h-6.9565"/><line id="e" class="g" x1="37.0435" y1="21.7826" x2="30.087" y2="31"/><line id="f" class="g" x1="37.0435" y1="31" x2="30.087" y2="21.7826"/></svg>