<?xml version="1.0" encoding="UTF-8"?><svg id="a" xmlns="http://www.w3.org/2000/svg" viewBox="0 0 48 48"><defs><style>.b{fill:none;stroke:#fff;stroke-linecap:round;stroke-linejoin:round;}</style></defs><path class="b" d="M5.5643,25.1751l1.6745-.5608c.9998-2.1963,2.9177-4.6291,5.3982-7.1029M37.3588,5.5c-.0711.5646-.1967,1.141-.5744,1.7553M35.8128,8.3855c-.1519.1363-.3196.2745-.5033.4147-1.0154-1.1926-1.3746-2.2858-1.2228-3.3003M42.4348,10.3063c-1.691-.6347-3.124-2.4854-3.6462-4.7952M36.7844,7.2553c-.2674.4221-.5947.8032-.9716,1.1312M38.2135,9.289c-1.6015.441-2.2586,1.0514-2.8495,1.8731.7009,1.1653,2.4397,2.0103,3.7179,1.4379-.2677.8431-.4615,2.9303.7594,3.6634.2619-.1528.808-.5841,1.1945-1.1127.2814.4546.7779.8002,1.3999.921M11.3441,42.4981c.699-1.6784.0477-4.2767-2.0337-7.8077M6.9837,32.2147c.0419,1.9587.9998,3.8581,1.2656,5.4128.3278,1.9098-.0222,3.3751-.8231,4.2932M35.7349,39.6738c-.2969,1.0758-.7817,1.9548-1.4944,2.8203M22.1931,34.4557c1.3143-.2736,2.684.1363,3.4833.5257.3495,1.0066-.589,3.0598-2.3141,2.831-1.8147-.2414-1.5343-1.9373-1.1682-3.3567M16.0015,17.5932c-2.2742,2.0366-4.044,5.3486-5.9483,7.1817M8.81,31.1593c-1.0125-1.4087-.5471-3.3684.8246-4.1219M33.6633,16.9c1.1828,2.1612,1.2559,5.1188.8217,7.9645M33.3897,29.3603c-1.5645,3.7413-.3281,6.8634-3.2613,7.983-2.2781.9791-4.7207,1.5185-7.1993,1.5898M36.1633,35.6386c.4488-1.6063.5354-2.832.0662-4.82-.3232-1.3727-.2483-2.8262-.2901-4.2495M32.6985,15.5829c.2385-1.2111-.4284-2.2966-1.4399-3.0559-.4725-.3515-.9962-.6283-1.5528-.8207-1.0637-.3726-2.153-.6677-3.2594-.883M28.561,17.1006c.0818-1.3367-.2502-2.502-1.7329-2.6694M30.9724,28.8608l.844.1538c.2989-.2307.5598-.5092.7788-.8178.3754-.5331.6211-1.1465.7175-1.7913M27.8289,28.265l1.6083.3271c1.4817-1.3824,1.9188-2.8223,2.1486-4.375M22.2253,27.2613l3.7189.6016c.5121-.6299.9317-1.3221,1.2773-2.0629M17.1571,26.3277c1.3707-3.6313,3.6322-9.1999,5.9804-11.2998M18.9493,26.5896l1.1244.0458c.8012-.6075,1.4691-1.4837,1.9033-2.4221.2268-.4897.3894-.9969.4761-1.4924M22.6137,13.553l.0078-.0039M24.9385,13.0303h.0039M30.3338,14.3776c.3962,1.9695-.4702,5.2911-2.7755,9.2047M18.7497,7.12c.5708-.1306,1.1533-.2037,1.7387-.2181M24.1538,10.2343c0,.0902-.001.1824-.0029.2765M17.5406,7.5795c.256-.4965.6455-.6805,1.2091-.4605M11.0345,16.8747c.4723-.8397,1.0404-1.6218,1.693-2.3306M15.0542,8.7496c.6046-.5588,1.4408-.9842,2.4864-1.1702M19.1138,13.6621c.7827-.0711,1.3921-.2492,1.766-.5754M20.0737,10.5536c-.8402-.1227-1.4379.0195-1.765.4605M20.6647,11.6284c-.1323-.3902-.3323-.754-.5909-1.0748.3797-1.0358,2.1661-4.5649,3.7033-2.3219.4469.6513.4322,1.4837.3456,2.2255.5121,1.0251,1.7709,2.6967.0195,3.0325-1.0144.1937-2.0834.0974-3.2623-.403M18.5307,12.159c.1616.5111.3865,1.0027.5841,1.5031-1.3532,1.0446-2.9712,3.715-3.8766,1.9179-.2823-.5588-.369-1.2549-.3651-2.0327-1.177-1.2257-1.4574-2.6032-.1343-3.1669,1.2364-.5257,2.3861.295,3.5699.6328M20.8789,13.0867c.0115-.4947-.0609-.9878-.2142-1.4583M18.3087,11.0141c.0195.3991.1051.7769.222,1.1449M26.1408,40.3904c-.1217.552-.0633,1.1994.2268,1.9772.3592-.882,1.7144-2.134,3.3003-2.2255,3.8912-.2239,5.5822-1.5304,6.3328-3.9525.0584-.1902.1129-.3745.1636-.553M37.4474,37.498c1.0057,1.7222,1.5109,3.6332-.2336,4.9962M16.9146,39.0771c-.1928-.6162-.661-1.1381-1.8692-2.0434-2.8271-2.0026-5.9191-4.0548-4.8735-7.981.4984-1.6024,2.3073-2.7385,4.375-6.0262.9336-1.4837,3.1786-5.3651,5.9152-7.8827M17.157,26.3277c-.552,1.4603-1.1127,2.8593-1.766,4.6437-.5082,1.3883-.6065,2.2995-.2687,3.3762.8441,2.1281,3.0676,3.0491,5.0624,3.8678-.1859.5909-.1168,1.436-.7671,1.5625-.6678-.0633-1.028-.073-1.323.4605-.4916.8908-.4819,1.7339-.4449,2.2615M20.1857,38.2145c.6231.2405,1.3289.477,2.1398.7087.2064.0084.4079.0117.6046.0097l-.1528,1.0368c.5169.1256,1.1682.1343,1.3045.5939l.5637,1.5898"/><rect class="b" x="5.5" y="5.5" width="37" height="37" rx="4" ry="4"/></svg>