<?xml version="1.0" encoding="UTF-8" standalone="no"?>
<svg
   xmlns:dc="http://purl.org/dc/elements/1.1/"
   xmlns:cc="http://creativecommons.org/ns#"
   xmlns:rdf="http://www.w3.org/1999/02/22-rdf-syntax-ns#"
   xmlns:svg="http://www.w3.org/2000/svg"
   xmlns="http://www.w3.org/2000/svg"
   xmlns:sodipodi="http://sodipodi.sourceforge.net/DTD/sodipodi-0.dtd"
   xmlns:inkscape="http://www.inkscape.org/namespaces/inkscape"
   version="1.1"
   id="svg2"
   width="245.75999"
   height="245.75999"
   viewBox="0 0 245.75999 245.75999"
   sodipodi:docname="litecoin.svg"
   inkscape:version="1.0.2-2 (e86c870879, 2021-01-15)">
  <metadata
     id="metadata8">
    <rdf:RDF>
      <cc:Work
         rdf:about="">
        <dc:format>image/svg+xml</dc:format>
        <dc:type
           rdf:resource="http://purl.org/dc/dcmitype/StillImage" />
        <dc:title></dc:title>
      </cc:Work>
    </rdf:RDF>
  </metadata>
  <defs
     id="defs6" />
  <sodipodi:namedview
     pagecolor="#ffffff"
     bordercolor="#666666"
     borderopacity="1"
     objecttolerance="10"
     gridtolerance="10"
     guidetolerance="10"
     inkscape:pageopacity="0"
     inkscape:pageshadow="2"
     inkscape:window-width="1920"
     inkscape:window-height="1017"
     id="namedview4"
     showgrid="false"
     showborder="false"
     inkscape:pagecheckerboard="true"
     inkscape:zoom="1.7659506"
     inkscape:cx="21.055519"
     inkscape:cy="168.90157"
     inkscape:window-x="-8"
     inkscape:window-y="-8"
     inkscape:window-maximized="1"
     inkscape:current-layer="g10" />
  <g
     inkscape:groupmode="layer"
     inkscape:label="Image"
     id="g10">
    <path
       style="fill:#ffffff;stroke-width:0.48"
       d="m 22.032435,230.06424 c -5.40523,-0.85955 -15.7717748,-3.5655 -20.2851448,-5.29498 -1.38883196,-0.53218 -2.925509,-0.96761 -3.414835,-0.96761 -1.066435,0 -16.3836232,-7.69619 -20.4600142,-10.28023 -1.583999,-1.0041 -3.376425,-2.28126 -3.983169,-2.83814 -0.606744,-0.55688 -1.642104,-1.23506 -2.300803,-1.50707 -0.658699,-0.27201 -2.830104,-1.89856 -4.825344,-3.61456 -4.322836,-3.71784 -14.565116,-13.73771 -14.58392,-14.26723 -0.0073,-0.20502 -1.288168,-1.74278 -2.846416,-3.41725 -1.558249,-1.67447 -3.177645,-3.77039 -3.598658,-4.65761 -0.421014,-0.88722 -1.086383,-1.93403 -1.4786,-2.32625 -0.882782,-0.88278 -5.313738,-7.77776 -6.048262,-9.41166 -0.296705,-0.66 -1.897993,-4.008 -3.558417,-7.44 -1.660424,-3.432 -3.242577,-6.996 -3.515894,-7.92 -0.273316,-0.924 -1.047097,-3.516 -1.719512,-5.76 -4.141211,-13.82014 -5.254375,-21.091 -5.254375,-34.32 0,-12.80821 1.221735,-21.176878 4.730048,-32.399988 0.701468,-2.244004 1.441801,-4.836004 1.645184,-5.760004 0.386157,-1.754369 4.820841,-12.062416 5.369092,-12.480002 0.51608,-0.393082 1.889048,-3.26196 1.889048,-3.947246 0,-0.349205 1.566,-2.982802 3.48,-5.852434 1.914,-2.869636 3.927351,-5.966323 4.474113,-6.881534 0.546763,-0.915206 2.328763,-3.136502 3.96,-4.936204 1.631237,-1.799703 2.965887,-3.414603 2.965887,-3.588667 0,-0.415278 10.375974,-10.793913 10.791145,-10.793913 0.175586,0 1.791732,-1.33465 3.591435,-2.965887 1.799702,-1.631237 4.016764,-3.413237 4.926801,-3.96 0.910037,-0.546762 3.829752,-2.452113 6.488251,-4.234113 2.658504,-1.782 5.078208,-3.24 5.377123,-3.24 0.611098,0 4.454419,-1.879547 4.825243,-2.359749 C -10.90789,12.098461 -2.0633098,8.298161 0.43244124,7.588926 1.7524412,7.213812 4.6684402,6.330009 6.9124402,5.624919 18.197515,2.079018 26.499785,0.87760796 39.552425,0.90162396 c 12.23051,0.0225 19.03253,0.95033704 29.52,4.02669504 3.696,1.084171 8.20096,2.39753 10.01101,2.918576 1.81005,0.521046 5.96722,2.344023 9.23816,4.05106 3.27094,1.707037 6.15874,3.103703 6.41732,3.103703 0.25858,0 2.67211,1.458 5.363405,3.24 2.69129,1.782 5.64404,3.672 6.56167,4.2 0.91763,0.528 3.12708,2.31 4.90988,3.96 1.78281,1.65 3.39532,3 3.58335,3 0.44656,0 10.79521,10.348652 10.79521,10.79521 0,0.188032 1.35,1.800536 3,3.583347 1.65,1.782807 3.432,3.992256 3.96,4.909887 0.528,0.91763 2.418,3.870379 4.2,6.561671 1.782,2.691288 3.24,5.104819 3.24,5.363395 0,0.258581 1.37115,3.115325 3.04701,6.348317 1.67585,3.232996 3.40385,7.012171 3.84,8.398171 6.05904,19.254596 7.16627,25.430164 7.20757,40.200004 0.0371,13.27871 -1.12984,21.42302 -4.71126,32.87999 -0.70146,2.244 -1.44422,4.836 -1.65056,5.76 -0.49644,2.22304 -3.02028,7.94854 -5.62854,12.76869 -1.15732,2.13878 -2.10422,4.22935 -2.10422,4.64572 0,0.41636 -0.27666,1.04245 -0.61481,1.39131 -0.33814,0.34886 -1.56166,2.14323 -2.71893,3.9875 -1.15727,1.84428 -2.38726,3.63636 -2.7333,3.9824 -0.34604,0.34604 -0.958,1.32213 -1.35991,2.16909 -0.40191,0.84697 -2.12768,3.05089 -3.83505,4.89762 -1.70737,1.84672 -3.11189,3.54154 -3.12116,3.76626 -0.046,1.11622 -16.7734,16.45564 -18.92826,17.35768 -0.6389,0.26744 -1.58119,0.86595 -2.09398,1.33002 -1.29905,1.17563 -8.837605,6.10371 -9.336925,6.10371 -0.5157,0 -5.33416,2.41722 -5.65768,2.83822 -0.52973,0.68936 -9.72866,4.36149 -15.6,6.22739 -13.66768,4.34356 -20.45736,5.35058 -35.63684,5.2855 -8.32178,-0.0357 -12.82992,-0.27577 -16.68315,-0.88852 z m 36.50798,-14.68787 c 5.49471,-1.08509 14.72105,-3.89677 17.43649,-5.31368 0.69053,-0.36031 1.66071,-0.65645 2.15594,-0.65808 0.79082,-0.002 3.23744,-1.25657 14.52192,-7.44296 1.44467,-0.792 3.88426,-2.4646 5.42131,-3.71689 1.53705,-1.25229 3.347175,-2.56355 4.022495,-2.91391 0.67533,-0.35037 1.84145,-1.26976 2.59138,-2.04311 0.74993,-0.77335 2.65478,-2.61104 4.233,-4.08377 4.01697,-3.74847 9.1064,-9.40343 10.76599,-11.96232 0.77049,-1.188 1.80193,-2.592 2.29209,-3.12 1.44566,-1.55726 3.9714,-5.40412 3.9714,-6.04868 0,-0.32765 0.30057,-0.93673 0.66794,-1.35352 1.26241,-1.43225 6.53206,-12.03132 6.53206,-13.13821 0,-0.60917 0.19349,-1.31279 0.42999,-1.56359 0.78428,-0.83173 4.24903,-12.36878 5.39846,-17.976 1.02254,-4.98821 1.13103,-6.74541 1.12617,-18.24 -0.006,-13.33355 -0.17332,-14.84902 -2.70851,-24.479988 -1.0248,-3.89313 -3.23864,-10.503374 -3.7778,-11.280004 -0.18327,-0.264 -0.46825,-1.19213 -0.63327,-2.06251 -0.23916,-1.26142 -3.00782,-6.80675 -6.51931,-13.057492 -0.22246,-0.396 -0.66475,-1.281763 -0.98287,-1.968369 -0.31812,-0.686602 -1.41137,-2.306602 -2.42943,-3.6 -1.01806,-1.293394 -2.45681,-3.295767 -3.19723,-4.449715 -0.7404,-1.153949 -2.1022,-2.891736 -3.0262,-3.861749 -0.924,-0.970018 -2.87875,-3.049877 -4.34388,-4.621915 -3.72808,-4.000089 -9.61239,-9.327167 -12.06719,-10.924455 -1.137915,-0.740413 -3.127165,-2.179165 -4.420565,-3.197226 -1.2934,-1.018062 -2.9134,-2.111302 -3.6,-2.429423 -0.6866,-0.31812 -1.57237,-0.760414 -1.96837,-0.982876 -6.25074,-3.511486 -11.79607,-6.280147 -13.05749,-6.519311 -0.87038,-0.165024 -1.79851,-0.449996 -2.06251,-0.633271 -0.87163,-0.605112 -7.60332,-2.812366 -12.24,-4.013377 -8.84048,-2.289899 -10.67172,-2.478575 -24,-2.472777 -12.01936,0.0052 -13.05325,0.07731 -18.77026,1.308658 -5.03786,1.085069 -13.8856348,3.730031 -16.7497248,5.007176 -0.396,0.176584 -1.583999,0.562024 -2.63999896,0.856535 -1.532036,0.427273 -7.25718304,3.334414 -12.72000024,6.459019 -0.396,0.226503 -1.281763,0.672104 -1.968369,0.990224 -0.686602,0.318121 -2.306602,1.411361 -3.6,2.429423 -1.293394,1.018061 -3.282648,2.456813 -4.420555,3.197226 -2.454807,1.597288 -8.339112,6.924366 -12.06719,10.924455 -1.465138,1.572038 -3.419885,3.651897 -4.343885,4.621915 -0.924,0.970013 -2.285792,2.7078 -3.026204,3.861749 -0.740413,1.153948 -2.179165,3.156321 -3.197226,4.449715 -1.018062,1.293398 -2.111302,2.913398 -2.429423,3.6 -0.31812,0.686606 -0.762236,1.572369 -0.986924,1.968369 -3.355678,5.9142 -6.262974,11.730612 -6.507632,13.019332 -0.169221,0.89137 -0.464101,1.83667 -0.65529,2.10067 -0.880315,1.21557 -3.986175,11.562694 -5.054512,16.839024 -2.717911,13.423298 -2.611229,26.726568 0.319175,39.800968 1.081747,4.82637 4.149584,14.63255 4.797827,15.336 0.231115,0.2508 0.42021,0.94786 0.42021,1.54903 0,1.13342 5.39993,11.86347 6.5482,13.01174 0.35849,0.3585 0.6518,0.97546 0.6518,1.37103 0,0.74488 2.409715,4.48996 3.971402,6.1722 0.490161,0.528 1.521603,1.932 2.292091,3.12 1.659589,2.55889 6.749013,8.21385 10.765989,11.96232 1.578216,1.47273 3.483067,3.31042 4.233,4.08377 0.749933,0.77335 1.916049,1.69274 2.591376,2.04311 0.675321,0.35036 2.485444,1.66162 4.022496,2.91391 1.537046,1.25229 3.979982,2.92489 5.428747,3.71689 11.2171052,6.13209 13.76010624,7.44 14.46576424,7.44 0.442229,0 1.48469296,0.3158 2.31659196,0.70177 3.87541,1.79807 10.2058298,3.75901 17.3525348,5.37522 8.21617,1.85806 28.77837,1.80334 38.42798,-0.10227 z m -30.50798,-10.5393 c -2.508,-0.34412 -6.37168,-1.07786 -8.58595,-1.63054 -2.21427,-0.55268 -4.4364,-1.00488 -4.93809,-1.00488 -1.308945,0 -9.1198148,-3.08016 -13.4487618,-5.30344 -2.03104796,-1.0431 -3.90097,-1.89656 -4.155389,-1.89656 -0.544085,0 -6.413625,-3.72968 -8.4263282,-5.35434 -0.766992,-0.61911 -1.99679,-1.44966 -2.732889,-1.84566 -3.679982,-1.97972 -16.156262,-14.49705 -18.294451,-18.35464 -0.452025,-0.81551 -1.257379,-1.98364 -1.789675,-2.59584 -1.264771,-1.45461 -5.788459,-8.75346 -5.788459,-9.33952 0,-0.24968 -0.776696,-1.99628 -1.725992,-3.88133 -3.964209,-7.87186 -6.581901,-17.41055 -7.878493,-28.70867 -1.73379,-15.10772 1.514943,-34.181038 7.946713,-46.655172 0.911774,-1.768346 1.657772,-3.463158 1.657772,-3.766254 0,-0.607671 2.78909,-5.171256 5.04,-8.246587 0.792,-1.082079 1.889064,-2.715178 2.43792,-3.629117 2.476934,-4.124491 14.420452,-16.068009 18.544943,-18.544943 0.913939,-0.548856 2.547038,-1.64592 3.629117,-2.43792 3.0753312,-2.25091 7.6389162,-5.04 8.2465872,-5.04 0.303096,0 1.99790804,-0.742487 3.766257,-1.649972 12.7172688,-6.526286 32.1177388,-9.787801 47.1477588,-7.926259 11.3988,1.411799 20.8454,4.048044 28.40258,7.926259 1.76835,0.907485 3.46316,1.649972 3.76626,1.649972 0.60767,0 5.17125,2.78909 8.24658,5.04 1.08208,0.792 2.71518,1.889064 3.62912,2.43792 4.12449,2.476934 16.068015,14.420452 18.544945,18.544943 0.54886,0.913939 1.64592,2.547038 2.43792,3.629117 2.25091,3.075331 5.04,7.638916 5.04,8.246587 0,0.303096 0.74249,1.997908 1.64997,3.766254 3.91638,7.631554 6.10633,15.286774 7.71684,26.975182 2.16104,15.68384 -0.88483,34.97307 -7.64081,48.38866 -0.9493,1.88505 -1.726,3.63165 -1.726,3.88133 0,0.58606 -4.52369,7.88491 -5.78846,9.33952 -0.53229,0.6122 -1.33765,1.79518 -1.78967,2.62884 -2.22896,4.11085 -14.586805,16.30296 -18.908945,18.65536 -1.27211,0.69237 -2.31293,1.43088 -2.31293,1.64113 0,0.21026 -1.458,1.26712 -3.24,2.34858 -4.30128,2.61037 -3.93371,2.41839 -9.96,5.20205 -6.88473,3.18019 -10.07395,4.39853 -12.72,4.85928 -1.188,0.20686 -4.212,0.83065 -6.72,1.38619 -9.22126,2.0426 -20.16444,2.51518 -29.27999,1.26447 z m 65.39095,-38.03542 c 1.75189,-4.95 3.31732,-9.34309 3.47873,-9.76241 0.26633,-0.69188 -2.76181,-0.76457 -32.7281,-0.78567 -25.5901,-0.018 -32.99107,-0.15402 -32.88599,-0.60437 0.0746,-0.31961 0.26021,-1.58606 0.41252,-2.81433 0.29321,-2.36447 6.10665,-28.07918 6.91568,-30.59022 0.51442,-1.59666 0.72697,-1.77613 7.8962,-6.66773 2.64,-1.80128 5.81075,-4.10761 7.04612,-5.12516 1.23536,-1.01756 2.43481,-1.8501 2.66544,-1.8501 0.49186,0 4.61692,-2.94259 4.84238,-3.45428 0.0847,-0.19216 0.86001,-0.78576 1.72298,-1.3191 1.43381,-0.88614 1.71849,-1.49787 3.30323,-7.098168 0.95382,-3.37065 2.06768,-7.74845 2.47525,-9.72845 0.40757,-1.98 1.19608,-5.071764 1.75224,-6.870584 0.55616,-1.79883 0.92799,-3.3538 0.82628,-3.4555 -0.1017,-0.10171 -1.12634,0.56005 -2.27697,1.47058 -1.15062,0.91052 -2.30068,1.6555 -2.55567,1.6555 -0.25499,0 -2.22259,1.34212 -4.37245,2.98248 -2.14985,1.640374 -4.67719,3.422374 -5.61629,3.960004 -1.66185,0.9514 -4.34413,2.81841 -8.33444,5.80122 -3.62012,2.70609 -3.66844,2.65447 -2.41428,-2.58012 0.61191,-2.55397 1.57678,-6.69558 2.14415,-9.203584 0.56738,-2.508 2.2017,-8.983466 3.63182,-14.389927 1.43011,-5.406456 2.60021,-10.344215 2.60021,-10.972799 0,-0.62858 0.76239,-3.956727 1.6942,-7.395883 0.9318,-3.439152 1.61229,-6.334901 1.5122,-6.435 -0.26477,-0.264768 -26.89511,6.061843 -32.71764,7.772784 l -1.91125,0.561619 -2.25793,9.789599 c -1.24186,5.384285 -2.48981,11.38571 -2.77323,13.336507 -0.28341,1.950792 -1.15496,6.27079 -1.93676,9.6 -3.078645,13.109844 -5.227995,22.964652 -5.507735,25.253102 -0.1613598,1.32 -0.8802898,4.82163 -1.5976098,7.7814 l -1.30423,5.3814 -3.35058,2.24515 c -1.842813,1.23483 -4.51673496,3.13319 -5.942037,4.21859 -1.425307,1.0854 -2.941545,2.18301 -3.369422,2.43914 -4.423272,2.64778 -4.206216,2.38309 -5.0008612,6.09841 -0.413597,1.93375 -0.973579,4.8119 -1.2444,6.3959 -0.401112,2.34601 -1.80096,8.47465 -3.649924,15.9796 -0.266976,1.08366 -0.249452,1.08851 1.208688,0.33448 0.813777,-0.42083 1.872667,-1.15821 2.353094,-1.63863 1.13087,-1.13087 13.9554432,-10.14523 13.9554432,-9.80924 0,0.43072 -5.30653,26.75746 -5.574015,27.65379 -0.237542,0.79599 2.210741,0.84 46.7245188,0.84 h 46.97519 z"
       id="path837" />
  </g>
</svg>
