<svg xmlns="http://www.w3.org/2000/svg" viewBox="0 0 48 48"><defs><style>.a{fill:none;stroke:#fff;stroke-linecap:round;stroke-linejoin:round;}</style></defs><polyline class="a" points="11.862 28.309 11.862 19.691 16.171 28.309 20.48 19.691 20.48 28.309"/><polyline class="a" points="28.199 28.309 25.398 19.691 22.489 28.309"/><line class="a" x1="23.4586" y1="25.4005" x2="27.2292" y2="25.4005"/><path class="a" d="M30.4285,28.3092V19.6908H31.829a4.3092,4.3092,0,0,1,0,8.6184Z"/><path class="a" d="M40.5,5.5H7.5a2,2,0,0,0-2,2v33a2,2,0,0,0,2,2h33a2,2,0,0,0,2-2V7.5A2,2,0,0,0,40.5,5.5Z"/></svg>