<?xml version="1.0" encoding="UTF-8"?><svg id="b" xmlns="http://www.w3.org/2000/svg" viewBox="0 0 48 48"><defs><style>.ay{fill:#fff;}.az{fill:none;stroke:#fff;stroke-linecap:round;stroke-linejoin:round;}</style></defs><g id="f"><g id="g"><path id="h" class="az" d="M40.5084,24.8226c.559-.8533.5686-1.99-.2407-3.4914h0c-.598,2.9653-6.5868,2.9462-9.514,2.4573-.4019-.8915-1.289-1.4648-2.267-1.4649-1.3727.0007-2.4853,1.1133-2.4859,2.4859-.0005,1.3735,1.1125,2.4873,2.4859,2.488.2951-.0022.5875-.057.8634-.1616.1382.0074.2778.0143.4224.0525"/><path id="i" class="az" d="M28.3786,34.2093c-1.4142-.4038-2.8073-.8332-4.2273-1.5289-.4658-.5488-1.1898-.8711-1.958-.8716h0c-1.3623-.0004-2.4666.9921-2.4654,2.2158.0015,1.0017.7517,1.8778,1.8291,2.136,2.7054,1.2766,6.8996,2.1468,9.5467,2.3713l.8184-1.3949"/></g><g id="j"><path id="k" class="az" d="M21.4901,29.7985c-3.1156,1.4953-11.2647-2.9532-9.6497-7.0013-1.3318,4.3956-2.6843,5.978.4115,8.3645,2.1163,1.6315,6.1709,1.9324,9.2383-1.3632Z"/><path id="l" class="az" d="M12.0125,26.0814l-.4306.7118"/><path id="m" class="az" d="M13.0264,27.3173l-.2709.8014"/><path id="n" class="az" d="M14.0217,27.812l-.1819,1.3609"/><path id="o" class="az" d="M14.9595,28.6041l-.2482,1.1687"/><path id="p" class="az" d="M16.1086,29.1682l-.4457.8041"/><path id="q" class="az" d="M17.0737,29.634l-.4146,1.0253"/><path id="r" class="az" d="M18.0364,29.8952l-.0568.6096"/></g><path id="s" class="az" d="M28.8424,13.7026c.2159,1.0619.3615,2.1238.1197,3.1857"/><g id="t"><path id="u" class="az" d="M29.7576,12.6035c-.5663,1.1029-1.8407,1.3125-3.6693,1.0832-2.7079-1.3624-1.335-3.3467.6418-3.8515l.167-1.0915c-.7031-.5553-.9643-2.3368.1102-2.2625.795.055,1.2323.6647,1.4127,1.158l.1507-1.663c.0791-.873,1.296-1.0493,1.8915-.0496l-.2644,1.5377c-.4798.9773-1.6794.2807-1.6862-.0901"/><path id="v" class="az" d="M31.6861,7.2903c-.4134.3394-1.1557.2411-1.2305-.3974-.1394-1.1904-.1041-2.0464.8888-2.3951.6045-.2123,1.6306.7896,1.3673,1.7053l-1.0256,1.0872Z"/><path id="w" class="az" d="M32.5064,11.4239c-.8505.041-.9093,1.4338.202,1.6176"/><path id="x" class="az" d="M33.1336,7.9247c-.5776.2261-.8694-.9275-.6324-1.4083.2215-.4493.3907-.4971.9169-.496,1.0721.0023.9147,1.1868-.2137,1.7802-.6328,1.114-.9746,1.3764-.6981,3.6234.416-.0662.9195.1067,1.257.657.2244.3658-.0535,1.236-1.055.9606-1.5512.1711-3.8302-1.2957-3.6893-1.6855-1.3951.2278-2.1452-1.184-2.133-2.026"/><path id="y" class="az" d="M27.9689,7.0691c.3778.8025-.5564,1.0323-1.5219.7007"/></g><g id="z"><path id="aa" class="az" d="M38.8298,27.0593c-.9885-.0397-2.1686-1.2429-1.3543-1.6633,1.48-.7641,2.2213-.1674,1.9966,1.4589"/><path id="ab" class="az" d="M37.4095,26.3208c-.982,1.1877-2.0902,1.7337-3.4788,1.8683"/><path id="ac" class="az" d="M39.32,27.2273c1.3263-.8732,2.8438.9783,1.8973,1.9081-.854.8389-2.4946-.2792-2.4733-1.171l.576-.7371Z"/><path id="ad" class="az" d="M40.1867,31.7835c-.8158-.1343-1.5389-.1669-1.7491-.9029-.222-.7776.2837-1.1916,1.1182-1.4225.5327-.1473,2.0544.3243,1.784,1.3285-.2746,1.0197-1.2818,1.1838-2.2724,1.4705"/><path id="ae" class="az" d="M39.6432,32.2993c-.7063.0722-1.4076.911-1.2739,1.5284.2005.9258,2.123,1.375,2.603.1197.3923-1.026-.6705-1.7155-1.3291-1.6481Z"/><path id="af" class="az" d="M38.3366,34.1076c-2.5568-.1763-4.3488.1421-5.6917-2.4464-1.2371-2.3846-1.9737-4.4869-.4518-4.7195,1.6859-.2577,2.0158,1.8556.7996,2.2278"/><path id="ag" class="az" d="M36.4387,34.2395c-1.1451,2.461-5.6689,2.2194-6.6735-.318.2512-1.2016.7727-2.7165,2.3431-3.2184"/><path id="ah" class="az" d="M29.7678,33.9673l-1.215-1.4423c-.1369-1.2766.559-2.6819,1.5354-3.204"/></g><g id="ai"><path id="aj" class="az" d="M22.3614,37.7788c-.6323,1.0279-1.2408,2.0653-1.8221,3.1134-2.7177-2.656-6.2034-4.6578-10.0432-7.779-.7166-1.9466-2.2358-4.0179-4.0087-6.0887l3.4251-5.31c.8303-2.7415,1.546-6.0041,2.491-8.2245l1.6761-6.62"/><path id="ak" class="az" d="M25.231,8.9032c-1.4576-1.0219-2.8581-2.0587-4.095-3.1798-2.2749-2.812-8.4031-.8353-6.857,2.7224,1.7395.106,3.4921,1.5677,4.5296,2.7126,3.3962,3.7479,8.5382,9.6382,14.9751,11.0473-.1374.1678-.2746.3358-.4115.5038"/><path id="al" class="az" d="M41.1052,20.1278c.3244-.4142.4468-.74.1912-.9291l-7.2076-3.5091c-.42-.4275-.8589-.8401-1.3125-1.2405"/><path id="am" class="az" d="M28.8721,28.377c-.8843,1.1741-1.7511,2.347-2.5941,3.5275"/><path id="an" class="az" d="M28.1093,39.8731l-2.2862,3.7381c-2.0719-1.4914-2.9254-1.1263-5.1911-2.8772"/><path id="ao" class="az" d="M32.8313,19.3099l-3.8692-2.4216c-3.9947-1.025-3.5171-2.9665-5.211-4.4446-1.8449-2.2396-3.8162-4.4934-6.3604-6.3056"/><path id="ap" class="az" d="M15.9783,6.8307c.6452-.6938,1.9649-1.2064,3.4627-.9337"/><path id="aq" class="az" d="M36.5207,21.463l-.4731.937"/><path id="ar" class="az" d="M24.7218,39.179l-.8359,1.6266"/></g><g id="as"><path id="at" class="az" d="M25.4522,24.0787c0,2.0302-1.6458,3.676-3.676,3.676s-3.676-1.6458-3.676-3.676,1.6458-3.676,3.676-3.676h0c2.0302,0,3.676,1.6458,3.676,3.676Z"/><path id="au" class="az" d="M17.2932,19.1622c0,1.3629-1.1048,2.4677-2.4677,2.4677s-2.4677-1.1048-2.4677-2.4677,1.1048-2.4677,2.4677-2.4677h0c1.3629,0,2.4677,1.1048,2.4677,2.4677h0Z"/><g id="av"><circle id="aw" class="ay" cx="15.3892" cy="18.8679" r=".75"/><circle id="ax" class="ay" cx="22.6159" cy="23.6404" r=".75"/></g></g></g></svg>