<?xml version="1.0" encoding="UTF-8"?><svg id="b" xmlns="http://www.w3.org/2000/svg" viewBox="0 0 48 48"><defs><style>.c{fill:#fff;}.d{fill:none;stroke:#fff;stroke-linecap:round;stroke-linejoin:round;}</style></defs><path class="d" d="M9.5,5.5h29c2.216,0,4,1.784,4,4v29c0,2.216-1.784,4-4,4H9.5c-2.216,0-4-1.784-4-4V9.5c0-2.216,1.784-4,4-4Z"/><path class="d" d="M6.1674,23.879c1.5499,0,2.9821,1.1557,3.7571,3.0318.775,1.8761.775,4.1874,0,6.0635-.775,1.8761-2.2072,3.0318-3.7571,3.0318"/><path class="d" d="M41.756,23.454c-1.5499,0-2.9821,1.1557-3.7571,3.0318-.775,1.8761-.775,4.1874,0,6.0635.775,1.8761,2.2072,3.0318,3.7571,3.0318"/><path class="d" d="M18.8269,15.6993c-.6012,2.6244-2.2599,4.7519-3.705,4.7519h0c-1.4451,0-2.1292-2.1275-1.528-4.7519h0c.6012-2.6244,2.2599-4.7519,3.705-4.7519h0c1.4451,0,2.1292,2.1275,1.528,4.7519h0Z"/><path class="d" d="M28.926,15.706c.6012,2.6244,2.2599,4.7518,3.705,4.7519,1.4451,0,2.1293-2.1273,1.5281-4.7517v-.0002c-.6012-2.6244-2.26-4.7518-3.705-4.7519-1.4451,0-2.1293,2.1273-1.5281,4.7517,0,0,0,.0001,0,.0002Z"/><path class="c" d="M17.9528,13.323c0,.4142-.3358.75-.75.75s-.75-.3358-.75-.75.3358-.75.75-.75.75.3358.75.75Z"/><path class="c" d="M31.4908,13.323c0,.4142-.3358.75-.75.75s-.75-.3358-.75-.75.3358-.75.75-.75.75.3358.75.75Z"/><path class="d" d="M14.917,24.12l5.1729,3.4286,3.9699-3.1278,4.0902,3.0075,4.9323-3.2481"/><path class="d" d="M17.323,25.935c0,16,13.339,15.256,13.219.0984"/><path class="d" d="M18.226,32.301c3.0075-.4812,9.6241.8421,10.707,1.5639"/></svg>