<?xml version="1.0" encoding="UTF-8"?><svg id="a" xmlns="http://www.w3.org/2000/svg" viewBox="0 0 48 48"><defs><style>.e{fill:none;stroke:#fff;stroke-linecap:round;stroke-linejoin:round;}</style></defs><path class="e" d="M9.1714,19.4374c1.6357-2.4938,5.2289-4.6121,5.2289-4.6121.429-3.1105,6.1942-5.7384,9.5997-5.7384"/><path class="e" d="M23.4793,10.1327c.5475-.6704,1.9686-4.6658,1.9686-4.6658,2.2256,1.2871,5.1216,4.1027,5.2289,9.2511-1.448-.2883-1.8301-.6972-1.8301-.6972"/><path class="e" d="M35.7985,12.7606c-2.6547-3.1105-6.3101-3.0393-6.3101-3.0393"/><path class="e" d="M37.4878,15.1471c2.9764,5.8456,2.7541,17.3366-10.4097,22.0312,3.5451-2.9764,5.6099-7.1222,3.5988-11.6271,1.8502.5363,2.4115,2.0379,2.4115,2.0379.994-3.9686-.025-6.3819-2.0629-7.7763,1.3944.1609,2.1988.6704,2.8424,1.3407-.3218-2.3597-1.6089-3.6468-2.601-4.2635"/><path class="e" d="M31.4431,28.5514c-1.1913,2.6516-2.8041,5.071-6.8532,5.3928,2.4938-1.3944,2.8692-5.2289.1073-5.2289s-3.8345,3.2982-3.0033,5.2289c-3.0033.1341-4.9875-.429-4.9875-2.5474s5.2289-1.877,5.2289-4.6658c0-1.8502-1.6893-2.5407-3.7004-2.5407-2.2122,0-4.4244,2.5407-5.0412,2.7552s-2.8424-1.3676-2.8692-2.7083,1.448-3.191,1.448-3.191"/><path class="e" d="M26.5273,14.0209c2.3597,2.6547-.5631,5.1752,2.4133,7.9372"/><path class="e" d="M27.734,27.0528c.7508-3.4323-3.4591-3.6468-.2494-8.4201"/><path class="e" d="M23.4793,25.0417c.6882-3.0837-.4916-5.7384-2.0299-5.6043-1.5847.1381-1.7063,2.2524-3.5297,1.9575-2.1025-.3401-.3218-2.8424-2.467-2.9228"/><path class="e" d="M24.6905,14.718c-1.8904.4357-2.5468,2.7792-1.8188,5.5101"/><path class="e" d="M11.5103,21.4025c-.8573-1.288-3.4717-.9997-3.15.5556s1.9642,2.2793,1.9642,2.2793"/><path class="e" d="M14.7958,20.7782c-.9653-.1006-2.2122,1.1061-2.4133,2.0916"/><path class="e" d="M15.9824,23.2317c.0117-.7522-1.3676-1.6692-2.6949,1.1061"/><path class="e" d="M22.8252,9.1761c-.2435-1.1417-1.7413-1.6645-1.7413-1.6645.1341,1.1664-.3145,2.1414-.3145,2.1414"/><path class="e" d="M30.6013,13.5451c1.6912.1339,4.3593,2.6947,4.7347,4.6387.3218-3.1507-.0509-5.6788-2.8812-7.827"/><path class="e" d="M37.9674,27.6428s-2.8795-3.8345-2.0483-7.5618c-1.9038,6.9718-.2086,9.5733-2.0886,13.2467"/><path class="e" d="M15.3132,25.3464s-.4268,1.6528.0937,3.0884c-1.2445-.2391-2.0998-1.5442-2.0998-1.5442"/><path class="e" d="M18.1939,29.802c-1.4272-.1783-2.787-1.3671-2.787-1.3671-.0177,1.0682.2563,2.4119,1.3109,3.2283"/><path class="e" d="M21.1002,24.9455c-1.6889.8873-2.9871,2.876-2.7352,4.7776"/><path class="e" d="M18.5398,18.4285c1.3374-.4927,2.3094-3.3485,3.315-3.6502-2.2883-1.3676-3.3653-.6838-4.5853,1.9709"/><path class="e" d="M17.7594,15.782c1.6647.5261,2.2406.503,3.3222-.3509"/><path class="e" d="M25.7564,10.7294c1.2872.5115,1.8234,1.8636,1.8234,1.8636"/><path class="e" d="M17.157,14.1944c.5363.6868,1.2964.6021,1.2964.6021"/><path class="e" d="M24.1609,11.6612c-2.239,1.0994-3.0793,2.714-3.0793,2.714"/><path class="e" d="M32.3795,39.499c6.4127-3.1039,10.838-9.6805,10.838-17.2815,0-10.6127-8.6049-19.2176-19.2176-19.2176S4.7824,11.6049,4.7824,22.2176c0,7.601,4.4254,14.1776,10.838,17.2815"/><path class="e" d="M19.5281,44.3444c.3669.4777.827.6556,1.4671.6556h.8859c.8244,0,1.4927-.6683,1.4927-1.4927v-.0064c0-.8244-.6683-1.4927-1.4927-1.4927h-.9772c-.8253,0-1.4943-.669-1.4943-1.4943h0c0-.8271.6705-1.4975,1.4975-1.4975h.881c.6401,0,1.1002.1779,1.4671.6556"/><path class="e" d="M28.9122,40.9985c0-1.0947-.8874-1.9821-1.9821-1.9821h0c-1.0947,0-1.9821.8874-1.9821,1.9821v2.0195c0,1.0947.8874,1.9821,1.9821,1.9821h0c1.0947,0,1.9821-.8874,1.9821-1.9821h-1.9821"/></svg>