<svg xmlns="http://www.w3.org/2000/svg" viewBox="0 0 41.9977 37.3655"><defs><style>.a{fill:none;stroke:#fff;stroke-linecap:round;stroke-linejoin:round;}</style></defs><path class="a" d="M18.6476,32.8a1.9355,1.9355,0,0,1-1.7,1,2.0055,2.0055,0,0,1-2-2V30.5a2,2,0,0,1,3.9993,0v.7H14.9482" transform="translate(-3.0017 -5.3174)"/><path class="a" d="M25.0864,32.8a1.9353,1.9353,0,0,1-1.7,1,2.0055,2.0055,0,0,1-2-2V30.5a2,2,0,0,1,3.9992-.08q.0008.04,0,.08v.7H21.3871" transform="translate(-3.0017 -5.3174)"/><path class="a" d="M28.0259,33.4a2.3636,2.3636,0,0,0,1.6.4h.4a1.3,1.3,0,0,0,.0509-2.5995c-.0169,0-.0339,0-.0509,0h-.9a1.3,1.3,0,0,1-.0509-2.6c.0169,0,.0339,0,.0509,0h.4c.9,0,1.3.1,1.6.4" transform="translate(-3.0017 -5.3174)"/><line class="a" x1="30.7631" y1="20.4837" x2="30.7631" y2="28.4822"/><path class="a" d="M33.7648,30.5a2.0055,2.0055,0,0,1,2-2h0a2.0055,2.0055,0,0,1,2,2v3.3" transform="translate(-3.0017 -5.3174)"/><path class="a" d="M42.2033,33.8a2.0055,2.0055,0,0,1-2-2V30.5a2,2,0,0,1,3.9992-.08q.0008.04,0,.08v1.3A2.0055,2.0055,0,0,1,42.2033,33.8Z" transform="translate(-3.0017 -5.3174)"/><path class="a" d="M7.9879,40.0829a2.8393,2.8393,0,0,0,2.7395,2.1H37.2226a2.8394,2.8394,0,0,0,2.76-2.1m4.4092-16.307a3.12,3.12,0,0,0-3.03-3.9293h-7.859L25.7347,6.849a2,2,0,0,0-3.4994,0L14.4667,19.8466H6.6081a3.1192,3.1192,0,0,0-2.9994,3.9293M23.985,11.8481l4.7691,7.9985H19.2158Z" transform="translate(-3.0017 -5.3174)"/><path class="a" d="M4.51,30.5577a2,2,0,0,1,2-2h0a2,2,0,0,1,2,2v3.3" transform="translate(-3.0017 -5.3174)"/><line class="a" x1="1.5083" y1="23.2403" x2="1.5083" y2="28.5403"/><path class="a" d="M8.51,30.5577a2,2,0,0,1,2-2h0a2,2,0,0,1,2,2v3.3" transform="translate(-3.0017 -5.3174)"/></svg>