<svg xmlns="http://www.w3.org/2000/svg" viewBox="0 0 48 48"><defs><style>.a{fill:none;stroke:#fff;stroke-linecap:round;stroke-linejoin:round;}</style></defs><path class="a" d="M40.5,5.5H7.5a2,2,0,0,0-2,2v33a2,2,0,0,0,2,2h33a2,2,0,0,0,2-2V7.5A2,2,0,0,0,40.5,5.5Z"/><path class="a" d="M24.9912,21.5975v6.6038A2.2012,2.2012,0,0,1,22.79,30.4025h0a2.1943,2.1943,0,0,1-1.5565-.6447"/><rect class="a" x="20.5887" y="21.5975" width="4.4025" height="5.8334" rx="2.2013" transform="translate(45.5799 49.0283) rotate(-180)"/><path class="a" d="M9.5,23.7987a2.2012,2.2012,0,0,1,2.2013-2.2012h0a2.2012,2.2012,0,0,1,2.2012,2.2012v3.6321"/><line class="a" x1="9.5" y1="21.5975" x2="9.5" y2="27.4308"/><path class="a" d="M13.9025,23.7987a2.2013,2.2013,0,0,1,2.2013-2.2012h0a2.2012,2.2012,0,0,1,2.2013,2.2012v3.6321"/><path class="a" d="M31.457,26.32a2.2,2.2,0,0,1-1.9127,1.1108h0A2.2012,2.2012,0,0,1,27.3431,25.23V23.7987a2.2012,2.2012,0,0,1,2.2012-2.2012h0a2.2012,2.2012,0,0,1,2.2013,2.2012v.7154H27.3431"/><path class="a" d="M38.5,27.4308V23.7987a2.2012,2.2012,0,0,0-2.2013-2.2012h0a2.2012,2.2012,0,0,0-2.2012,2.2012v3.6321"/><line class="a" x1="34.0975" y1="23.7987" x2="34.0975" y2="21.5975"/></svg>