<?xml version="1.0" encoding="UTF-8"?><svg id="a" xmlns="http://www.w3.org/2000/svg" viewBox="0 0 48 48"><defs><style>.b{fill:none;stroke:#fff;stroke-linecap:round;stroke-linejoin:round;}</style></defs><path class="b" d="M38.5,5.5H9.5c-2.2091,0-4,1.7909-4,4v29c0,2.2091,1.7909,4,4,4h29c2.2091,0,4-1.7909,4-4V9.5c0-2.2091-1.7909-4-4-4Z"/><rect class="b" x="21.5" y="16.758" width="5" height="5"/><path class="b" d="M21.5,19.258h5"/><path class="b" d="M24,16.758v5"/><path class="b" d="M5.5,33.517c0,2.2091,1.7909,4,4,4h29c2.2091,0,4-1.7909,4-4"/><path class="b" d="M5.5,28.691c0,2.2091,1.7909,4,4,4h29c2.2091,0,4-1.7909,4-4"/></svg>