<?xml version="1.0" encoding="UTF-8"?><svg id="a" xmlns="http://www.w3.org/2000/svg" viewBox="0 0 48 48"><defs><style>.n{fill:none;stroke:#fff;stroke-linecap:round;stroke-linejoin:round;}</style></defs><g><g><g id="b"><path id="c" class="n" d="M28.2946,10.4017h5.5898v8.3846c0,1.5372-1.2577,2.7949-2.7949,2.7949h0c-1.5372,0-2.7949-1.2577-2.7949-2.7949v-.9782"/></g><polyline id="d" class="n" points="14.1156 21.581 14.1156 10.4015 19.7054 21.581 25.2952 10.4015 25.2952 21.581"/></g><g><path id="e" class="n" d="M21.1238,37.5985v-11.1795h1.8167c3.0744,0,5.5898,2.5154,5.5898,5.5898h0c0,3.0744-2.5154,5.5898-5.5898,5.5898h-1.8167Z"/><g id="f"><line id="g" class="n" x1="31.9102" y1="26.419" x2="37.5" y2="26.419"/><line id="h" class="n" x1="31.9102" y1="32.0088" x2="35.5436" y2="32.0088"/><line id="i" class="n" x1="31.9102" y1="26.419" x2="31.9102" y2="37.5985"/></g><g id="j"><path id="k" class="n" d="M10.5,37.5985v-11.1795h3.6334c2.0962,0,3.7731,1.6769,3.7731,3.7731s-1.6769,3.7731-3.7731,3.7731h-3.6334"/></g></g></g><g id="l"><path id="m" class="n" d="M40.5,5.5H7.5c-1.1046,0-2,.8954-2,2V40.5c0,1.1046,.8954,2,2,2H40.5c1.1046,0,2-.8954,2-2V7.5c0-1.1046-.8954-2-2-2Z"/></g></svg>