<?xml version="1.0" encoding="UTF-8"?><svg id="a" xmlns="http://www.w3.org/2000/svg" viewBox="0 0 48 48"><defs><style>.b{fill:none;stroke:#fff;stroke-linecap:round;stroke-linejoin:round;}.c{fill:#fff;stroke-width:0px;}</style></defs><circle class="b" cx="24" cy="24" r="21.5"/><path class="b" d="m6.4652,16.769c-2.0637,4.5257-2.0651,9.9444,0,14.468m35.07-14.468c2.0637,4.5257,2.0651,9.9444,0,14.468"/><path class="b" d="m8.6048,18.813c-1.173,3.321-1.1597,7.0492,0,10.375m30.79-10.375c1.173,3.321,1.1597,7.0492,0,10.375"/><line class="b" x1="21.85" y1="18.65" x2="21.85" y2="26.75"/><line class="b" x1="21.85" y1="25.05" x2="25.45" y2="21.35"/><line class="b" x1="23.05" y1="23.85" x2="25.85" y2="26.65"/><path class="b" d="m18.2,21.35v6c0,1.1-.9,2-2,2h0c-.5,0-1-.2-1.4-.6"/><circle class="c" cx="18.2" cy="19.05" r=".75"/><path class="b" d="m33.2,26.75v-3.3c0-1.1-.9-2-2-2s-2,.9-2,2"/><line class="b" x1="29.2" y1="26.75" x2="29.2" y2="21.35"/></svg>