<svg xmlns="http://www.w3.org/2000/svg" viewBox="0 0 48 48"><defs><style>.a,.b{fill:none;stroke:#fff;stroke-linecap:round;}.a{stroke-linejoin:round;}</style></defs><path class="a" d="M24,43.47c1.69,0,15.25-7.77,15.25-16.94v-20c-4,0-15.25-2-15.25-2s-11.26,2-15.25,2v20C8.75,35.7,22.31,43.47,24,43.47Z"/><path class="a" d="M24.2293,28.2039l0-12.6h0a3.5855,3.5855,0,0,0-3.586-3.5605"/><path class="a" d="M24.2291,23.0808a6.8027,6.8027,0,0,0,6.8017-6.8016"/><path class="a" d="M34.4316,12.8783A6.8028,6.8028,0,0,0,27.63,19.68"/><path class="a" d="M32.9346,15.4469h4.4048"/><path class="a" d="M32.6463,17.8632h4.4048"/><path class="a" d="M32.2072,20.28H36.612"/><path class="a" d="M30.5331,22.6958h4.4048"/><path class="a" d="M29.0584,23.8147l3.1147,3.1147"/><path class="a" d="M26.518,24.8333l3.1146,3.1147"/><path class="a" d="M26.3206,27.9294l3.9648,3.9648"/><path class="a" d="M31.7045,33.3133l1.3235,1.3235"/><path class="a" d="M29.8409,33.6359l-1.0222,1.0222"/><path class="a" d="M32.3394,31.9345h1.4463"/><path class="a" d="M25.1455,30.1238l1.2,1.2"/><path class="a" d="M25.1455,32.3237l1.2,1.2"/><path class="a" d="M25.1455,34.5236l1.2,1.2"/><path class="a" d="M24.2292,23.0808a6.8027,6.8027,0,0,1-6.8017-6.8016"/><path class="a" d="M14.0267,12.8783A6.8028,6.8028,0,0,1,20.8284,19.68"/><path class="a" d="M15.5238,15.4469H11.119"/><path class="a" d="M15.812,17.8632H11.4073"/><path class="a" d="M16.2511,20.28H11.8464"/><path class="a" d="M17.9252,22.6958H13.52"/><path class="a" d="M19.4,23.8147l-3.1147,3.1147"/><path class="a" d="M21.94,24.8333,18.8257,27.948"/><path class="a" d="M22.1377,27.9294,18.173,31.8942"/><path class="a" d="M16.7538,33.3133,15.43,34.6368"/><path class="a" d="M18.6174,33.6359,19.64,34.6581"/><path class="a" d="M16.1189,31.9345H14.6726"/><path class="a" d="M23.3128,30.1238l-1.2,1.2"/><path class="a" d="M23.3128,32.3237l-1.2,1.2"/><path class="a" d="M23.3128,34.5236l-1.2,1.2"/><path class="b" d="M24,10.36V8.2016"/><path class="b" d="M22.3572,10.3514l-1.0794-1.87"/><path class="b" d="M25.6428,10.3514l1.0794-1.87"/></svg>