<svg xmlns="http://www.w3.org/2000/svg" xml:space="preserve" viewBox="0 0 48 48"><path d="M10.34 10.595c4.345-3.25 11.36-6.86 14.166-6.86 3.85 0 15.625 6.798 17.55 10.132 1.925 3.335 1.925 16.931 0 20.266v0c-1.925 3.334-13.7 10.132-17.55 10.132S8.882 37.467 6.956 34.133c-1.68-2.911-1.893-13.641-.64-18.54" style="fill:none;stroke:#fff;stroke-width:1;stroke-linecap:round;stroke-linejoin:round;stroke-opacity:1"/><path d="M11.103 12.691A3.3 3.3 0 0 1 7.8 15.993 3.3 3.3 0 0 1 4.5 12.69 3.3 3.3 0 0 1 7.801 9.39a3.3 3.3 0 0 1 3.302 3.301M28.87 17.955a4.452 4.456 0 0 1-4.451 4.456 4.452 4.456 0 0 1-4.452-4.456 4.452 4.456 0 0 1 4.452-4.456 4.452 4.456 0 0 1 4.452 4.456M16.466 31.467c-.616-1.16.102-3.382 1.064-4.68 1.165-1.573 3.285-2.725 6.976-2.725 3.692 0 5.812 1.152 6.977 2.725.962 1.298 1.68 3.52 1.064 4.68-.938 1.763-4.925 1.923-8.04 1.923-3.116 0-7.103-.16-8.04-1.923" style="fill:none;stroke:#fff;stroke-width:1;stroke-linecap:round;stroke-linejoin:round;stroke-opacity:1"/></svg>