<svg xmlns="http://www.w3.org/2000/svg" viewBox="0 0 48 48"><defs><style>.a{fill:none;stroke:#fff;stroke-linecap:round;stroke-linejoin:round;}</style></defs><path class="a" d="M18.25,9.79a2,2,0,0,1-2.06,2.06,1.82,1.82,0,0,1,2.06,2.05,1.81,1.81,0,0,1,2.05-2.05A1.82,1.82,0,0,1,18.25,9.79Zm4.8,5.92a1.19,1.19,0,0,1-1.22,1.22,1.08,1.08,0,0,1,1.22,1.23,1.08,1.08,0,0,1,1.22-1.23A1.08,1.08,0,0,1,23.05,15.71Zm-8.87,1s0,3.68-3.67,3.68q3.68,0,3.67,3.67,0-3.68,3.68-3.67Q14.19,20.42,14.18,16.74ZM24,22.86l4.89,3.68A8.53,8.53,0,0,1,27,28.39s1.75,12.2,0,12.83-3.89,0-3.48-.86a8.6,8.6,0,0,0,1.07-5.26c0,3.14-.59,3.68-2.53,4.9-2.39-.32-4.76-3-4.76-3,1.64-1.22.58-.72,3-3.17s5.92-5.91,2.45-2.45a20.11,20.11,0,0,1-7,4.9,44.12,44.12,0,0,1-4.32-4.58,29.52,29.52,0,0,0,3.45-.93l1.77-.61c-3.67,1.22-4.89.57-6.12,0a11.12,11.12,0,0,1-2-3.35s12.24,1.22,14.69-1.22A3.07,3.07,0,0,1,24,22.86Zm3.67,0,11-17.13"/></svg>