<svg xmlns="http://www.w3.org/2000/svg" viewBox="0 0 48 48"><defs><style>.a,.b,.c{fill:none;stroke:#fff;}.a{stroke-miterlimit:5.3333;}.b,.c{stroke-linejoin:round;}.c{stroke-linecap:round;}</style></defs><path class="a" d="M28.81,11.7065c3.158-.8459,3.5023.5314,5.2322.7845a14.0252,14.0252,0,0,0,3.92.0042c1.3876-.1127,1.5088.208,2.1318,1.7545a105.1889,105.1889,0,0,1,3.32,10.28c.7876,3.2441-3.631,3.9326-8.3328,7.3677-1.4929,1.0907-4.7351,2.067-8.4374,3.0586s-6.9984,1.7667-8.8368,1.5683c-5.79-.6248-9.9611.9875-10.9017-2.2157A105.19,105.19,0,0,1,4.6381,23.7465c-.234-1.6508-.2894-1.9891.9686-2.5849A14.0236,14.0236,0,0,0,9,19.1984c1.3715-1.0839.9809-2.4487,4.1388-3.2946l7.8354-2.0987Z"/><path class="b" d="M31.5861,25.9388,29.3533,17.623,15.6225,21.2946,17.8553,29.61l6.8653-1.8358Z"/><path class="b" d="M30.6065,15.5432c1.45.58,3.573,8.3084,4.0272,11.1439s-3.279,4.1416-8.7059,5.5952-9.3135,2.1884-10.3384-.4942S12.5373,21.3508,13.503,20.1245s5.4985-2.2424,8.3592-3.0086,7.2942-2.1522,8.744-1.5725Z"/><circle class="c" cx="35.8655" cy="21.0419" r="1.0268" transform="translate(-3.1121 6.5559) rotate(-10.0121)"/><circle class="c" cx="38.5186" cy="17.8269" r="1.0268" transform="translate(-2.5127 6.9682) rotate(-10.0121)"/><line class="c" x1="9.0215" y1="24.5966" x2="10.299" y2="29.8976"/><line class="c" x1="12.3107" y1="26.6084" x2="7.0097" y2="27.8858"/></svg>