<?xml version="1.0" encoding="UTF-8"?><svg id="b" xmlns="http://www.w3.org/2000/svg" viewBox="0 0 48 48"><defs><style>.c{fill:none;stroke:#fff;stroke-linecap:round;stroke-linejoin:round;}</style></defs><g><path class="c" d="m43.4998,38.3207v-17.6718"/><path class="c" d="m38.6248,35.2738v-14.6249"/><path class="c" d="m43.4998,38.3207l-4.875-3.0469"/><path class="c" d="m4.5,38.3207l4.875-3.0469"/><path class="c" d="m26.4374,38.3207l-4.875-3.0469"/><path class="c" d="m4.5,38.3207v-17.6718"/><path class="c" d="m9.375,35.2738v-14.6249"/><path class="c" d="m26.4374,38.3207v-17.6718"/><path class="c" d="m21.5624,35.2738v-14.6249"/></g><path class="c" d="m9.375,20.6489c0-3.3655,2.7282-6.0937,6.0937-6.0937s6.0937,2.7282,6.0937,6.0937"/><path class="c" d="m26.4374,20.6489c0-3.3655,2.7282-6.0937,6.0937-6.0937s6.0937,2.7282,6.0937,6.0937"/><path class="c" d="m4.5,20.6489c0-4.6481,2.9296-8.7915,7.3117-10.3412,4.3821-1.5496,9.2652-.169,12.1872,3.4458"/><path class="c" d="m24.0011,13.7532c2.922-3.6148,7.805-4.9954,12.1872-3.4458,4.3821,1.5497,7.3117,5.6931,7.3117,10.3411"/></svg>