<?xml version="1.0" encoding="UTF-8"?><svg id="b" xmlns="http://www.w3.org/2000/svg" viewBox="0 0 48 48"><defs><style>.c{fill:none;stroke:#fff;stroke-linecap:round;stroke-linejoin:round;}</style></defs><path class="c" d="m31.3441,36.927c-.8864,0-1.7094-.1352-2.4692-.3379h0c-1.2662,1.8923-2.9757,3.5143-4.875,4.6633,1.7094,1.0138,3.6088,1.5544,5.6347,1.5544,7.8506,0,13.1688-8.7183,13.8019-16.0849-.2532,1.0138-1.836,10.2051-12.0925,10.2051h0Z"/><path class="c" d="m33.3068,13.8135c-3.7987,0-5.5714,2.3654-5.5714,2.3654,3.862.4055,8.6737,3.3792,8.6737,9.3941,0,5.8798-3.6088,8.5831-6.5844,9.4617-.3166.5407-.6331,1.0813-.9497,1.5544.7597.2027,1.6461.3379,2.4692.3379,10.1932,0,11.8393-9.1913,12.0925-10.2051.0633-.4731.0633-1.0138.0633-1.4868,0-8.1776-5.9513-11.4216-10.1932-11.4216h0Z"/><path class="c" d="m16.5925,36.927c2.1526,0,4.0519-.6758,5.5714-1.8248-.5065.1352-1.1396.2703-1.7727.2703-2.9123,0-8.8003-2.2978-8.8003-9.7996,0-6.0825,4.7484-8.9886,8.6737-9.3941,0,0-1.836-2.3654-5.5714-2.3654-4.2419,0-10.1932,3.1764-10.1932,11.4892,0,.4731,0,.9462.0633,1.4868.1899.9462,1.7727,10.1375,12.0292,10.1375h0Z"/><path class="c" d="m20.3912,35.4402c.6331,0,1.2662-.1352,1.7727-.2703h0c.6964-.5407,1.3295-1.1489,1.836-1.8248h0c-.3799-.4731-2.026-2.9061-2.026-6.1501,0-3.0413,1.5195-4.3253,2.026-4.6633h0c-1.013-.811-2.2159-1.0813-2.9123-1.0813-1.0763,0-3.9886.811-4.6851,4.3253h0c0,.1352-.0633.2703-.0633.4055-.0633.6083-.1266,1.2165-.1266,1.9599,0,2.8385,1.1396,5.4067,2.026,6.9611.823.2027,1.5195.3379,2.1526.3379h0Z"/><path class="c" d="m24.0633,18.6795c-4.7484,0-6.9643,3.7171-7.5974,7.0963.6964-3.5143,3.6088-4.3253,4.6851-4.3253.6964,0,1.836.2703,2.9123,1.0813h0c1.1396.8786,2.0893,2.433,2.0893,4.866,0,2.0951-.7597,4.1902-2.0893,5.9473h0c-1.6461,2.1627-4.2419,3.6495-7.4075,3.6495-10.2565,0-11.8393-9.1914-12.0925-10.2051.6331,7.3666,5.9513,16.0849,13.8019,16.0849,7.6607,0,13.4854-8.2452,13.4854-15.1387-.0633-4.7984-2.5958-9.0562-7.7873-9.0562h0Z"/><path class="c" d="m24.1899,15.841s-1.6461-1.6896-1.7727-3.9874c-.0633-1.6896.5698-4.1902,3.039-5.6094,5.7614-3.3116,10.763,1.4868,10.1932,4.5957,0,0-4.3052-2.0951-8.2305.4055-2.9123,1.8923-3.2289,4.5957-3.2289,4.5957Z"/></svg>