<svg xmlns="http://www.w3.org/2000/svg" viewBox="0 0 48 48"><defs><style>.a,.b{fill:none;}.b{stroke:#fff;stroke-linecap:round;stroke-linejoin:round;}</style></defs><path class="a" d="M19.1712,19.1712A37.0294,37.0294,0,0,1,19.4918,24a37.0294,37.0294,0,0,1-.3206,4.8288,36.5254,36.5254,0,0,1,9.6576,0,36.5254,36.5254,0,0,1,0-9.6576A37.0294,37.0294,0,0,1,24,19.4918,37.0294,37.0294,0,0,1,19.1712,19.1712Z"/><path class="b" d="M6.9675,6.9675A5.3453,5.3453,0,0,1,10.4866,5.5c4.1588,0,7.6494,5.8,8.6846,13.6712A37.0294,37.0294,0,0,0,24,19.4918a37.0294,37.0294,0,0,0,4.8288-.3206C29.864,11.3,33.3546,5.5,37.5134,5.5a5.3453,5.3453,0,0,1,3.5191,1.4675A5.3453,5.3453,0,0,1,42.5,10.4865c0,4.1589-5.8,7.65-13.6712,8.6847a36.5254,36.5254,0,0,0,0,9.6576C36.7,29.864,42.5,33.3546,42.5,37.5134A5.0106,5.0106,0,0,1,37.5134,42.5c-4.1588,0-7.6494-5.8-8.6846-13.6712a36.5254,36.5254,0,0,0-9.6576,0C18.136,36.7,14.6454,42.5,10.4866,42.5a5.3453,5.3453,0,0,1-3.5191-1.4675A5.3453,5.3453,0,0,1,5.5,37.5134c0-4.1588,5.8-7.6494,13.6712-8.6846A37.0294,37.0294,0,0,0,19.4918,24a37.0294,37.0294,0,0,0-.3206-4.8288C11.3,18.136,5.5,14.6454,5.5,10.4865A5.3453,5.3453,0,0,1,6.9675,6.9675Z"/></svg>