<?xml version="1.0" encoding="UTF-8"?><svg id="b" xmlns="http://www.w3.org/2000/svg" viewBox="0 0 48 48"><defs><style>.f{fill:none;stroke:#fff;stroke-linecap:round;stroke-linejoin:round;}</style></defs><path id="c" class="f" d="M38.5006,5.4992H9.4994c-2.2001,0-4.0002,1.8001-4.0002,4.0002v29.0012c0,2.2001,1.8001,4.0002,4.0002,4.0002h29.0012c2.2001,0,4.0002-1.8001,4.0002-4.0002V9.4993c0-2.2001-1.8001-4.0002-4.0002-4.0002h0Z"/><path id="d" class="f" d="M21.0846,42.4999c-.6339-1.877-1.3257-3.5383-.8689-5.7441-1.7117-2.2344-3.3023-9.2537-1.8874-14.8201,3.1593.8016,6.2507,1.7809,8.8332,4.0915,1.7563-1.6997,3.3381-3.4367,7.2252-4.6813-1.3686-3.9985-1.6315-7.4-1.3379-10.5008,3.8633-.2758,7.0917,1.7661,9.3735,4.0373"/><ellipse id="e" class="f" cx="38.3587" cy="26.3818" rx="1.5709" ry="1.7271" transform="translate(-7.0127 36.8138) rotate(-47.4675)"/><line class="f" x1="27.59" y1="36.5279" x2="27.646" y2="35.1049"/><line class="f" x1="26.057" y1="34.8639" x2="27.63" y2="34.9799"/></svg>