<svg xmlns="http://www.w3.org/2000/svg" viewBox="0 0 48 48"><defs><style>.a{fill:none;stroke:#fff;stroke-linecap:round;stroke-linejoin:round;}</style></defs><path class="a" d="M30.263,20H37.8a1,1,0,0,1,1,1v7l-1.59-.762L35.62,28l-1.59-.762L32.44,28l-1.59-.762L29.263,28V21A1,1,0,0,1,30.263,20Z"/><path class="a" d="M32.118,22.517h3.8268"/><path class="a" d="M32.118,25.104h3.8268"/><path class="a" d="M21.1443,30.8943A9.75,9.75,0,1,1,14.25,14.25c5.3848,0,7.8492,5.2872,9.75,9.75,2.11,4.9541,4.3652,9.75,9.75,9.75a9.75,9.75,0,1,0-6.8943-16.6443"/><line class="a" x1="7.75" y1="24" x2="20.75" y2="24"/><line class="a" x1="9.75" y1="20" x2="18.75" y2="20"/><line class="a" x1="9.75" y1="28" x2="18.75" y2="28"/></svg>