<?xml version="1.0" encoding="UTF-8"?><svg id="b" xmlns="http://www.w3.org/2000/svg" viewBox="0 0 48 48"><defs><style>.d{fill:none;stroke:#fff;stroke-linecap:round;stroke-linejoin:round;}</style></defs><path class="d" d="M4.5,19.8537v-4.7427h4.6735"/><path class="d" d="M43.5,28.1463v4.7427h-4.6735"/><path class="d" d="M7.9391,28.7749v-9.5499l6.3268,9.5499v-9.5499"/><path class="d" d="M21.3872,27.5704c-.4118.7198-1.1866,1.2045-2.0747,1.2045h0c-1.3191,0-2.3875-1.0684-2.3875-2.3875v-1.5519c0-1.3191,1.0684-2.3875,2.3875-2.3875h0c1.3179,0,2.3875,1.0684,2.3875,2.3875v.7759h-4.7749"/><path class="d" d="M25.6118,20.4785v7.1027c0,.6589.5348,1.1937,1.1937,1.1937h.3581"/><path class="d" d="M24.3584,22.4481h2.5069"/><path class="d" d="M31.0755,20.4785v7.1027c0,.6589.5348,1.1937,1.1937,1.1937h.3581"/><path class="d" d="M29.8221,22.4481h2.5069"/><path class="d" d="M35.2858,24.8356c0-1.3191,1.0684-2.3875,2.3875-2.3875,1.3179,0,2.3875,1.0684,2.3875,2.3875v1.5519c0,1.3191-1.0696,2.3875-2.3875,2.3875-1.3191,0-2.3875-1.0684-2.3875-2.3875v-1.5519Z"/></svg>