<?xml version="1.0" encoding="UTF-8"?><svg id="b" xmlns="http://www.w3.org/2000/svg" viewBox="0 0 48 48"><defs><style>.c{fill:none;stroke:#fff;stroke-linecap:round;stroke-linejoin:round;}</style></defs><path class="c" d="M38.5,5.5H9.5c-2.2091,0-4,1.7909-4,4v29c0,2.2091,1.7909,4,4,4h29c2.2091,0,4-1.7909,4-4V9.5c0-2.2091-1.7909-4-4-4Z"/><path class="c" d="M28.407,25.2863c0,1.8149-1.4713,3.2862-3.2862,3.2862h0c-1.8149,0-3.2862-1.4713-3.2862-3.2862v-2.1361c0-1.8149,1.4713-3.2862,3.2862-3.2862h0c1.8149,0,3.2862,1.4713,3.2862,3.2862"/><line class="c" x1="28.407" y1="28.5725" x2="28.407" y2="19.8639"/><path class="c" d="M18.5725,28.5725v-5.4223c0-1.8149-1.4713-3.2862-3.2862-3.2862h0c-1.8149,0-3.2862,1.4713-3.2862,3.2862"/><line class="c" x1="12" y1="28.5725" x2="12" y2="19.8639"/><path class="c" d="M33.376,28.5725v-10.8446c0-1.2705,1.0299-2.3004,2.3004-2.3004h0c1.1322,0,1.8389.3352,2.3237.9625"/><line class="c" x1="31.4275" y1="19.8639" x2="36.0283" y2="19.8639"/></svg>