<?xml version="1.0" encoding="UTF-8"?><svg id="b" xmlns="http://www.w3.org/2000/svg" viewBox="0 0 48 48"><defs><style>.c{fill:none;stroke:#fff;stroke-linecap:round;stroke-linejoin:round;}</style></defs><path class="c" d="M24.3309,14.4844v-.7076M24.3309,18.462v-1.4016M9.288,35.4123V13.5058l15.0429,21.9064v-13.9756"/><path class="c" d="M17.6477,20.7446c1.8012-3.8236,6.6043-6.3899,10.2827-4.1404"/><path class="c" d="M17.057,19.0975c1.9483-5.3441,7.8528-9.1813,11.6862-4.4737"/><path class="c" d="M31.2286,16.038c.0221.9089-.6968,1.6636-1.6057,1.6857-.9089.0221-1.6636-.6968-1.6857-1.6057-.0006-.0267-.0006-.0534,0-.0801.0221-.9089.7768-1.6278,1.6857-1.6057.8778.0214,1.5843.7279,1.6057,1.6057M32.29,36.2037c.7185-1.1904,1.2407-2.4887,1.5468-3.845M32.7919,32.191c-1.7281,4.0702-5.9376,7.2027-10.461,6.9045-3.4113-.0458-6.5994-2.3158-7.6296-5.5994M18.5161,22.4103c2.9133-2.8441,7.9181-3.5575,11.2125-.9776,2.4074,1.9591,3.8596,5.1735,3.6842,8.2797"/><path class="c" d="M33.1321,16.3616c.766,3.2362.6939,6.6143-.2096,9.8148-1.2037,4.6852-4.2203,9.4581-9.1296,10.8109-2.4444.7856-5.1481-.501-6.3665-2.6998-1.3129-2.2095-1.8977-4.9825-1.3548-7.5049M29.405,9.1092c1.5302,1.7057,2.6394,3.7203,3.3402,5.8782M23.5882,5.614c1.0351.27,2.037.6725,2.9639,1.2057"/><path class="c" d="M34.2334,29.7778c.2242-3.3177-.422-6.8489-2.4513-9.5497M28.7344,40.0263c1.2798-.8995,2.3805-2.03,3.2456-3.3333M21.7851,42.7398c1.282-.1801,2.5384-.5098,3.7437-.9825M13.2451,41.7339c1.5218.6062,3.1256.982,4.7583,1.115M23.4264,5.1735c0,.9237-.7488,1.6725-1.6725,1.6725h0c-.9237.0005-1.673-.7478-1.6735-1.6715v-.001c-.0005-.9237.7478-1.673,1.6715-1.6735.0006,0,.0013,0,.0019,0,.9237,0,1.6725.7488,1.6725,1.6725v.001M29.7042,7.8938c0,.9237-.7488,1.6725-1.6725,1.6725h-.001c-.9237,0-1.6725-.7488-1.6725-1.6725-.0005-.9237.7478-1.673,1.6715-1.6735.0003,0,.0006,0,.001,0,.9237-.0005,1.673.7478,1.6735,1.6715v.0019M21.6058,42.8265c.0005.9237-.7478,1.6729-1.6715,1.6735h-.002c-.9237,0-1.6725-.7488-1.6725-1.6725v-.001c0-.9237.7488-1.6725,1.6725-1.6725.9237-.0005,1.673.7478,1.6735,1.6715v.001M28.9284,41.1014c.0005.9237-.7478,1.6729-1.6715,1.6735h-.0019c-.9237,0-1.6725-.7488-1.6725-1.6725v-.001c0-.9237.7488-1.6725,1.6725-1.6725.9237-.0005,1.673.7478,1.6735,1.6715v.001M34.9868,31.0877c0,.6944-.5629,1.2573-1.2573,1.2573h0c-.6944,0-1.2573-.5629-1.2573-1.2573h0c0-.6944.5629-1.2573,1.2573-1.2573h0c.6944,0,1.2573.5629,1.2573,1.2573h0M36.3748,18.7632c-.266-.696-.5786-1.3733-.9357-2.0273M37.4206,27.9269c.2414-1.9242.2001-3.8734-.1228-5.7856M34.6876,35.9942c.8383-1.4245,1.5035-2.944,1.9815-4.5263"/><path class="c" d="M35.1525,37.2885c0,.9097-.7375,1.6472-1.6472,1.6472-.9089-.0011-1.6452-.7382-1.6452-1.6472.0005-.9089.7373-1.6457,1.6462-1.6462.9093.0005,1.6462.7378,1.6462,1.6472M38.6057,20.4903c-.0005.9089-.7373,1.6457-1.6462,1.6462-.9093-.0005-1.6462-.7378-1.6462-1.6472.0011-.9089.7382-1.6452,1.6472-1.6452.9086.0011,1.6447.7376,1.6452,1.6462M38.711,29.7154c-.0005.9089-.7373,1.6457-1.6462,1.6462-.9089-.0011-1.6452-.7382-1.6452-1.6472.0011-.9082.737-1.6441,1.6452-1.6452.9093,0,1.6466.7369,1.6472,1.6462M36.0775,15.2641c-.0005.9086-.7367,1.6451-1.6452,1.6462-.9093,0-1.6466-.7369-1.6472-1.6462.0005-.9093.7378-1.6462,1.6472-1.6462.9089.0011,1.6452.7382,1.6452,1.6472"/></svg>