<?xml version="1.0" encoding="UTF-8"?><svg id="b" xmlns="http://www.w3.org/2000/svg" viewBox="0 0 48 48"><defs><style>.f{fill:none;stroke:#fff;stroke-linecap:round;stroke-linejoin:round;}</style></defs><line class="f" x1="24" y1="11.4282" x2="24" y2="3.5"/><line class="f" x1="20.489" y1="8.8798" x2="24" y2="11.4282"/><line class="f" x1="27.511" y1="8.8798" x2="24" y2="11.4282"/><line class="f" x1="13.1125" y1="17.7141" x2="6.2465" y2="13.75"/><line class="f" x1="9.15" y1="19.4806" x2="13.1125" y2="17.7141"/><line class="f" x1="12.6611" y1="13.3993" x2="13.1125" y2="17.7141"/><line class="f" x1="13.1125" y1="30.2859" x2="6.2465" y2="34.25"/><line class="f" x1="12.6611" y1="34.6007" x2="13.1125" y2="30.2859"/><line class="f" x1="9.15" y1="28.5194" x2="13.1125" y2="30.2859"/><line class="f" x1="24" y1="36.5718" x2="24" y2="44.5"/><line class="f" x1="27.511" y1="39.1202" x2="24" y2="36.5718"/><line class="f" x1="20.489" y1="39.1202" x2="24" y2="36.5718"/><line class="f" x1="34.8875" y1="30.2859" x2="41.7535" y2="34.25"/><line class="f" x1="38.85" y1="28.5194" x2="34.8875" y2="30.2859"/><line class="f" x1="35.3389" y1="34.6007" x2="34.8875" y2="30.2859"/><line class="f" x1="34.8875" y1="17.7141" x2="41.7535" y2="13.75"/><line class="f" x1="35.3389" y1="13.3993" x2="34.8875" y2="17.7141"/><line class="f" x1="38.85" y1="19.4806" x2="34.8875" y2="17.7141"/><polygon class="f" points="34.8875 30.2859 34.8875 17.7141 24 11.4282 13.1125 17.7141 13.1125 30.2859 24 36.5718 34.8875 30.2859"/><path class="f" d="M23.1863,19.5335c-.1637-1.4016-.9331-1.8498-1.8354-1.7554s-1.6459.699-1.4324,2.0973c.1614,1.0575,1.0703,1.8575,1.9727,1.7631s1.4192-1.0424,1.2951-2.1049Z"/><path class="f" d="M18.9044,21.6648c-.9703-.9473-1.8159-.8163-2.4325-.1998s-.8057,1.5178.1998,2.4325c.7604.6917,1.923.739,2.5396.1224s.4287-1.637-.3069-2.3551Z"/><path class="f" d="M23.9943,30.7219c2.1542,0,4.8838-.5945,4.8838-2.378s-2.1095-5.1395-4.8838-5.1395-4.8838,3.356-4.8838,5.1395,2.7295,2.378,4.8838,2.378Z"/><path class="f" d="M24.8022,19.5335c.1637-1.4016.9331-1.8498,1.8354-1.7554s1.6459.699,1.4324,2.0973c-.1614,1.0575-1.0703,1.8575-1.9727,1.7631s-1.4192-1.0424-1.2951-2.1049Z"/><path class="f" d="M28.7825,22.0919c.5972-1.2416,1.4501-1.4105,2.253-1.0361s1.2967,1.1692.6545,2.3919c-.4856.9247-1.5792,1.3738-2.3821.9994s-.9781-1.414-.5254-2.3552Z"/></svg>