<?xml version="1.0" encoding="UTF-8"?><svg xmlns="http://www.w3.org/2000/svg" viewBox="0 0 48 48"><defs><style>.c{fill:none;stroke:#fff;stroke-linecap:round;stroke-linejoin:round;}</style></defs><g id="a"><path class="c" d="M16.9282,27.492c0-2.3704,1.8963-4.366,4.1086-4.482s4.2667,1.6727,4.2667,4.0431c0,1.1062-.4741,2.2372-1.2642,3.0687-1.7383,1.5133-7.1111,5.9035-7.1111,5.9035l8.3753-.4389"/><path class="c" d="M28.7236,34.3275c.8836.6941,1.8377.9834,3.9802.8711l.4992-.0262c1.7669-.0926,3.1993-1.6,3.1993-3.3669h0c0-1.7669-1.4324-3.1242-3.1993-3.0316"/><path class="c" d="M28.7222,23.6763c.8856-.7845,1.8405-1.1712,3.983-1.2778l.4977-.0232c1.7669-.0926,3.1993,1.2647,3.1993,3.0316h0c0,1.7669-1.4324,3.2743-3.1993,3.3669"/><line class="c" x1="30.7437" y1="28.9028" x2="33.2029" y2="28.7739"/></g><g id="b"><path class="c" d="M39.1534,41.4179l-24.7176,1.0792c-1.6882.0737-3.0971-1.275-3.0971-2.9648V14.3211c0-1.5887,1.2511-2.8955,2.8382-2.9648l25.9564-1.1333c1.0129-.0442,1.8583.765,1.8583,1.7789v26.4512c0,1.5887-1.2511,2.8955-2.8382,2.9648Z"/><path class="c" d="M11.3387,22.1165v-2.9701c0-.9532.7506-1.7373,1.7029-1.7789l27.0917-1.1829c1.0129-.0442,1.8583.765,1.8583,1.7789v3.8035"/><path class="c" d="M36.6613,10.2477v-2.3735c0-1.3518-1.1271-2.4308-2.4777-2.3719l-25.9047,1.131c-1.2697.0554-2.2706,1.1009-2.2706,2.3719v25.6502c0,1.3475,1.1202,2.4249,2.4667,2.3723l2.8636-.1118"/></g></svg>