<?xml version="1.0" encoding="UTF-8"?><svg xmlns="http://www.w3.org/2000/svg" viewBox="0 0 48 48"><defs><style>.c{fill:none;stroke:#fff;stroke-linecap:round;stroke-linejoin:round;}</style></defs><g id="a"><circle class="c" cx="24" cy="24" r="21.5"/></g><g id="b"><path class="c" d="M22.7,24c-2.2091,0-4,1.7909-4,4h0c0,2.2091,1.7909,4,4,4h2.6c2.2091,0,4-1.7909,4-4h0c0-2.2091-1.7909-4-4-4"/><path class="c" d="M25.3,24c2.2091,0,4-1.7909,4-4h0c0-2.2091-1.7909-4-4-4h-2.6c-2.2091,0-4,1.7909-4,4h0c0,2.2091,1.7909,4,4,4"/><line class="c" x1="22.7" y1="24" x2="25.3" y2="24"/></g></svg>