<?xml version="1.0" encoding="UTF-8"?><svg id="b" xmlns="http://www.w3.org/2000/svg" viewBox="0 0 48 48"><defs><style>.d{fill:none;stroke:#fff;stroke-linecap:round;stroke-linejoin:round;}</style></defs><path class="d" d="M36.52,6.53l-4.32,4.32c-2.38-1.49-5.19-2.35-8.2-2.35-8.56,0-15.5,6.94-15.5,15.5,0,3.01.86,5.82,2.35,8.2l-4.3199,4.3199c-2.54-3.52-4.03-7.84-4.03-12.52C2.5,12.13,12.13,2.5,24,2.5c4.68,0,9,1.49,12.52,4.03Z"/><path class="d" d="M45.5,24c0,11.87-9.63,21.5-21.5,21.5-4.68,0-9-1.49-12.52-4.03l4.32-4.32c2.38,1.4901,5.19,2.35,8.2,2.35,8.56,0,15.5-6.94,15.5-15.5,0-3.01-.86-5.82-2.35-8.2l4.3199-4.32c2.54,3.52,4.03,7.84,4.03,12.52Z"/></svg>