<svg xmlns="http://www.w3.org/2000/svg" viewBox="0 0 48 48"><defs><style>.a{fill:none;stroke:#fff;stroke-linecap:round;stroke-linejoin:round;}.b{fill:#fff;}</style></defs><path class="a" d="M24,11.57l1,1.86,2.07.26-1.47,1.48.39,2L24,16.29l-1.83,1,.31-2.06L21,13.8l2.06-.34L24,11.57ZM12,13.34s2.72,3.4,6.3,4.15a40.8,40.8,0,0,0,.34,4.78,44.2,44.2,0,0,0,1.46,4.78c0-.41.16-.83.21-1.23a11.1,11.1,0,0,1,0-6.41,12.92,12.92,0,0,1,1.78,1.71A4.8,4.8,0,0,1,24,20.75a4.92,4.92,0,0,1,1.93.38,12.5,12.5,0,0,1,1.78-1.72,11,11,0,0,1,0,6.44c0,.42.08,1.68.2,1.27a42.93,42.93,0,0,0,1.47-4.82,39.1,39.1,0,0,0,.34-4.81c3.58-.75,6.3-4.15,6.3-4.15-2.55,16.46-8.91,18-8.91,18,1.47,0,1.51,2,1,2.18a3.06,3.06,0,0,0-2.08.31,10.51,10.51,0,0,1,1,1.59,5.85,5.85,0,0,0-1.51,1,7.7,7.7,0,0,0-.8-3.14,3.22,3.22,0,0,1-.71.08,3.38,3.38,0,0,1-.72-.08,7.5,7.5,0,0,0-.8,3.14,6,6,0,0,0-1.51-1,10.92,10.92,0,0,1,1-1.61,3.36,3.36,0,0,0-2-.29c-.53-.22-.49-2.15,1-2.18l0,0v0s-6.36-1.57-8.91-18Z"/><path class="b" d="M22.27,23.1a.75.75,0,0,0,0,1.49.75.75,0,0,0,.74-.75h0A.75.75,0,0,0,22.27,23.1Z"/><path class="b" d="M25.7,23.1a.75.75,0,1,0,.75.74h0A.75.75,0,0,0,25.7,23.1Z"/><path class="a" d="M22.2,4.86,6.69,11.25V27C6.69,35.44,24,43.5,24,43.5S41.31,35.44,41.31,27V11.25L25.8,4.86A4.68,4.68,0,0,0,22.2,4.86Z"/></svg>