<?xml version="1.0" encoding="UTF-8"?><svg id="b" xmlns="http://www.w3.org/2000/svg" viewBox="0 0 48 48"><defs><style>.c{fill:none;stroke:#fff;stroke-linecap:round;stroke-linejoin:round;}</style></defs><path class="c" d="m38.7605,17.1352c0-6.7112-5.4405-12.1517-12.1517-12.1517v12.1517h12.1517Z"/><path class="c" d="m26.6088,7.7841c-5.0858,0-9.2087,4.1229-9.2087,9.2087s4.1229,9.2087,9.2087,9.2087c2.5429,0,4.8451-1.0307,6.5115-2.6972l-6.5115-6.3691"/><line class="c" x1="26.6088" y1="17.1352" x2="26.6088" y2="26.2015"/><path class="c" d="m14.4085,38.8097v4.6903c8.2472,0,18.7118-5.0819,18.7118-12.4289v-7.5668"/><path class="c" d="m26.6089,4.9835c-.459,0-.9103.0305-1.3559.08l.0072-.0059s-7.5993,1.0686-11.8391-.5576c.1821,2.2941,2.2242,4.0395,3.723,5.023-1.6779,2.0836-2.687,4.7287-2.687,7.6122,0,8.7088-.9558,17.4127-5.2176,21.6745,7.1437,0,10.1058.3924,14.9844-6.2866"/><circle class="c" cx="22.875" cy="15.5801" r="1.5551"/></svg>