<?xml version="1.0" encoding="UTF-8"?><svg id="b" xmlns="http://www.w3.org/2000/svg" viewBox="0 0 48 48"><defs><style>.d{fill:none;stroke:#fff;stroke-linecap:round;stroke-linejoin:round;}</style></defs><path class="d" d="M8.9871,41.1062c.3354-3.4269,2.0181-7.3178,4.4573-9.7736,1.1579-1.1668,2.5018-2.1328,3.9767-2.8585-.8609-.2675-1.6432-.7418-2.2784-1.3815-1.039-1.0459-1.6215-2.4606-1.6203-3.9348v-5.1339c-.0018-1.3959.3024-2.7753.8911-4.0411-1.7383-2.2521-2.1078-4.898-.7517-6.2629.74-.7439,1.905-.9993,3.2387-.7097,1.1748.2535,2.3954.9125,3.4532,1.8543.8618-.2514,1.755-.3787,2.6528-.3783h2.1526c.857,0,1.7012.117,2.5134.3412.9866-.8092,2.0941-1.3746,3.1617-1.6067,1.3347-.2886,2.4997-.0341,3.2387.7097,1.2694,1.2771,1.0266,3.6755-.4329,5.8242.661,1.3263,1.0045,2.7882,1.0032,4.2702v5.133c.0012,1.4742-.5813,2.8889-1.6203,3.9348-.6777.6823-1.5219,1.1757-2.449,1.4312,1.4205.7136,2.7308,1.6574,3.8743,2.8078h.0019c2.4402,2.4568,4.1356,6.297,4.472,9.7239"/><path class="d" d="M23.8674,18.0522c3.5515,0,6.4306,1.9105,6.4306,4.2672h0v1.087c-.0005,1.7555-1.4159,3.1782-3.1617,3.1782h-6.5378c-1.7454-.0005-3.1602-1.4232-3.1607-3.1782v-1.087c0-2.3565,2.8785-4.2669,6.4296-4.2672"/><path class="d" d="M5,21.398l2.0035-.0079,1.0164-2.813,1.5491,6.2841.539-3.456,3.4111.0437"/><path class="d" d="M34.6864,21.7889l1.798.0095,1.0164-2.813,1.5491,6.2841.539-3.456,3.4111.0437"/><path class="d" d="M23.7631,20.0138h.3607c.8728-.0004,1.5808.4882,1.5813,1.0912v.0007h0c0,.603-.7075,1.0919-1.5803,1.0919h-.3607c-.8728.0004-1.5808-.4882-1.5813-1.0912v-.0007h0c0-.603.7075-1.0919,1.5803-1.0919h0"/><path class="d" d="M21.161,23.349c.7292,1.8046,2.2677,1.4975,2.7629-.8326.4943,2.3593,2.0337,2.6674,2.7629.8628"/><path class="d" d="M19.8283,13.7002c.4361,0,.7897.3557.7897.7946v1.049c.0005.4388-.3526.795-.7887.7955h-.001c-.4361,0-.7897-.3557-.7897-.7946v-1.05c0-.4388.3536-.7946.7897-.7946"/><path class="d" d="M28.1795,13.668c.4361,0,.7897.3557.7897.7946v1.049c0,.4388-.3536.7946-.7897.7946h0c-.4361,0-.7897-.3557-.7897-.7946v-1.048c-.0005-.4388.3526-.795.7887-.7955.0003,0,.0006,0,.001,0"/><path class="d" d="M20.1549,28.6126c-.492,1.1829-.5018,2.5173-.0292,4.003"/><path class="d" d="M22.9061,36.918l1.0042-.2359c-.3831-3.3567-1.5472-4.4564-3.7379-4.0723-2.1185.3003-2.7932,1.8855-1.7958,5.1115l.9739-.1999"/><path class="d" d="M19.2579,36.9998l.2408,1.1153M22.7491,36.4237l.312,1.088M28.934,28.4088c.195,1.5898-.0549,2.9049-.7497,3.9455"/><path class="d" d="M28.4983,32.9919c0,.329-.2654.5957-.5928.5957s-.5928-.2667-.5928-.5957.2654-.5957.5928-.5957.5928.2667.5928.5957"/></svg>