<svg xmlns="http://www.w3.org/2000/svg" viewBox="0 0 48 48"><defs><style>.a{fill:none;stroke:#fff;stroke-linecap:round;stroke-linejoin:round;}</style></defs><rect class="a" x="8.5" y="4.5" width="31" height="39" rx="4" ry="4"/><path class="a" d="M28,27.32,35.4,38.05a.56.56,0,0,1-.45.87H13.05a.56.56,0,0,1-.39-1l6.14-6.13a.54.54,0,0,1,.78,0l1.09,1.08a.54.54,0,0,0,.78,0l5.68-5.68A.55.55,0,0,1,28,27.32Z"/><polygon class="a" points="19.55 9.08 12.5 9.08 12.5 20.23 16.03 17.2 19.55 20.23 19.55 9.08"/></svg>
