<?xml version="1.0" encoding="UTF-8"?><svg id="a" xmlns="http://www.w3.org/2000/svg" viewBox="0 0 48 48"><defs><style>.b{fill:none;stroke:#fff;stroke-linecap:round;stroke-linejoin:round;}</style></defs><path class="b" d="m19.5762,21.8574v-3.3224c0-.4922.265-.9475.6927-1.1921.4277-.2435.9547-.2394,1.3783.0113l9.4025,5.5653c.4205.2497.6774.704.6723,1.1931-.0041.4891-.2691.9393-.6948,1.1808l-2.3585,1.3384-9.0924-4.7744Zm9.0924,4.7744h.001l-7.0582,4.0346c-.4246.2343-.9424.2272-1.3599-.0205-.4185-.2466-.6743-.6958-.6743-1.1808.0102.4758.2681.9137.6804,1.1532.4226.2466.9434.2497,1.3681.0082l7.0429-3.9947Zm-9.0914-4.7744l-.001-.001,4.0049,2.1027h-.002l-4.0019-2.1017Zm4.0019,2.1017l5.0906,2.6727-7.0582,4.0346c-.4246.2343-.9424.2272-1.3599-.0205-.4185-.2466-.6743-.6958-.6743-1.1808v-3.4033l4.0019-2.1027Zm.002,0l-4.0049,2.1027v-4.2055l4.0049,2.1027Zm.9326,18.5348c-.1709.0041-.3418.0061-.5137.0061-10.2108,0-18.5-8.2892-18.5-18.5S13.7892,5.5,24,5.5s18.5,8.2892,18.5,18.5c0,.1719-.002.3428-.0061.5137v16.9191c0,.5822-.4809,1.0611-1.0642,1.0611h-16.916Zm-.5137-31.9176c-7.4092,0-13.4238,6.0145-13.4238,13.4238s6.0145,13.4238,13.4238,13.4238,13.4238-6.0145,13.4238-13.4238-6.0145-13.4238-13.4238-13.4238Z"/><path class="b" d="m19.5762,21.8574v-3.3224c0-.4922.265-.9475.6927-1.1921.4277-.2435.9547-.2394,1.3783.0113l9.4025,5.5653c.4205.2497.6774.704.6723,1.1931-.0041.4891-.2691.9393-.6948,1.1808l-2.3585,1.3384-9.0924-4.7744Zm9.0924,4.7744h.001l-7.0582,4.0346c-.4246.2343-.9424.2272-1.3599-.0205-.4185-.2466-.6743-.6958-.6743-1.1808.0102.4758.2681.9137.6804,1.1532.4226.2466.9434.2497,1.3681.0082l7.0429-3.9947Zm-9.0914-4.7744l-.001-.001,4.0049,2.1027h-.002l-4.0019-2.1017Zm4.0019,2.1017l5.0906,2.6727-7.0582,4.0346c-.4246.2343-.9424.2272-1.3599-.0205-.4185-.2466-.6743-.6958-.6743-1.1808v-3.4033l4.0019-2.1027Zm.002,0l-4.0049,2.1027v-4.2055l4.0049,2.1027Zm.9326,18.5348c-.1709.0041-.3418.0061-.5137.0061-10.2108,0-18.5-8.2892-18.5-18.5S13.7892,5.5,24,5.5s18.5,8.2892,18.5,18.5c0,.1719-.002.3428-.0061.5137v16.9191c0,.5822-.4809,1.0611-1.0642,1.0611h-16.916Zm-.5137-31.9176c-7.4092,0-13.4238,6.0145-13.4238,13.4238s6.0145,13.4238,13.4238,13.4238,13.4238-6.0145,13.4238-13.4238-6.0145-13.4238-13.4238-13.4238Z"/><path class="b" d="m19.5762,21.8574v-3.3224c0-.4922.265-.9475.6927-1.1921.4277-.2435.9547-.2394,1.3783.0113l9.4025,5.5653c.4205.2497.6774.704.6723,1.1931-.0041.4891-.2691.9393-.6948,1.1808l-2.3585,1.3384-9.0924-4.7744Zm9.0924,4.7744h.001l-7.0582,4.0346c-.4246.2343-.9424.2272-1.3599-.0205-.4185-.2466-.6743-.6958-.6743-1.1808.0102.4758.2681.9137.6804,1.1532.4226.2466.9434.2497,1.3681.0082l7.0429-3.9947Zm-9.0914-4.7744l-.001-.001,4.0049,2.1027h-.002l-4.0019-2.1017Zm4.0019,2.1017l5.0906,2.6727-7.0582,4.0346c-.4246.2343-.9424.2272-1.3599-.0205-.4185-.2466-.6743-.6958-.6743-1.1808v-3.4033l4.0019-2.1027Zm.002,0l-4.0049,2.1027v-4.2055l4.0049,2.1027Zm.9326,18.5348c-.1709.0041-.3418.0061-.5137.0061-10.2108,0-18.5-8.2892-18.5-18.5S13.7892,5.5,24,5.5s18.5,8.2892,18.5,18.5c0,.1719-.002.3428-.0061.5137v16.9191c0,.5822-.4809,1.0611-1.0642,1.0611h-16.916Zm-.5137-31.9176c-7.4092,0-13.4238,6.0145-13.4238,13.4238s6.0145,13.4238,13.4238,13.4238,13.4238-6.0145,13.4238-13.4238-6.0145-13.4238-13.4238-13.4238Z"/></svg>