<?xml version="1.0" encoding="UTF-8"?><svg id="b" xmlns="http://www.w3.org/2000/svg" viewBox="0 0 48 48"><defs><style>.d{stroke-linecap:round;stroke-linejoin:round;}.d,.e{fill:none;stroke:#fff;}</style></defs><path class="d" d="M9.4977,21.5069h3.122"/><path class="d" d="M9.4977,15.5069h3.122"/><path class="d" d="M9.4977,27.5069h3.122"/><path class="d" d="M38.5023,25.6291v-11.7716c0-1.1045-.8954-2-2-2h-15.7982c-1.1046,0-2,.8955-2,2v15.7982c0,1.1046.8954,2,2,2h.5728M38.5023,25.6291v4.0266c0,1.1046-.8954,2-2,2h-15.2254M38.5023,25.6291l-4.4141-4.0083c-.7877-.7152-1.9974-.6886-2.7528.0605l-10.0585,9.9744"/><path class="d" d="M18.6827,16.3442h-2.4803c-1.1046,0-2,.8954-2,2v15.7982c0,1.1045.8954,2,2,2h15.7982c1.1046,0,2-.8955,2-2v-2.5088"/><circle class="e" cx="25.8817" cy="18.5069" r="2.5"/></svg>