<?xml version="1.0" encoding="UTF-8"?><svg id="a" xmlns="http://www.w3.org/2000/svg" viewBox="0 0 48 48"><defs><style>.d{fill:none;stroke:#fff;stroke-linecap:round;stroke-linejoin:round;}</style></defs><line class="d" x1="26.221" y1="12.5" x2="26.221" y2="29.6963"/><path class="d" d="M26.221,22.6028c0-2.3743,1.9248-4.2991,4.2991-4.2991h0c2.3743,0,4.2991,1.9248,4.2991,4.2991v7.0935"/><path class="d" d="M13.1808,25.3972c0,2.3743,1.9248,4.2991,4.2991,4.2991h0c2.3743,0,4.2991-1.9248,4.2991-4.2991v-2.7944c0-2.3743-1.9248-4.2991-4.2991-4.2991h0c-2.3743,0-4.2991,1.9248-4.2991,4.2991"/><line class="d" x1="13.1808" y1="18.3037" x2="13.1808" y2="35.5"/><path id="c" class="d" d="M38.5006,5.4992H9.4994c-2.2001,0-4.0002,1.8001-4.0002,4.0002v29.0012c0,2.2001,1.8001,4.0002,4.0002,4.0002h29.0012c2.2001,0,4.0002-1.8001,4.0002-4.0002V9.4994c0-2.2001-1.8001-4.0002-4.0002-4.0002Z"/></svg>