<?xml version="1.0" encoding="UTF-8"?><svg id="b" xmlns="http://www.w3.org/2000/svg" viewBox="0 0 48 48"><defs><style>.d{fill:none;stroke:#fff;stroke-linecap:round;stroke-linejoin:round;}</style></defs><path class="d" d="M11.5,31.9612v-15.9224h5.2127c2.9469,0,5.3359,2.3941,5.3359,5.3474s-2.389,5.3474-5.3359,5.3474h-5.2127"/><path class="d" d="M26.2668,30.2166c.9764,1.2711,2.2007,1.7446,3.904,1.7446h2.3573c2.1937,0,3.972-1.7783,3.972-3.972v-.0171c0-2.1937-1.7783-3.972-3.972-3.972h-2.6002c-2.1961,0-3.9763-1.7803-3.9763-3.9763h0c0-2.2008,1.7841-3.9849,3.9849-3.9849h2.3444c1.7033,0,2.9276.4735,3.904,1.7446"/><path id="c" class="d" d="M38.5,5.5H9.5c-2.2091,0-4,1.7909-4,4v29c0,2.2091,1.7909,4,4,4h29c2.2091,0,4-1.7909,4-4V9.5c0-2.2091-1.7909-4-4-4Z"/></svg>