<?xml version="1.0" encoding="UTF-8"?><svg id="a" xmlns="http://www.w3.org/2000/svg" viewBox="0 0 48 48"><defs><style>.f{fill:none;stroke:#fff;stroke-linecap:round;stroke-linejoin:round;}</style></defs><path id="b" class="f" d="m25.1695,27.9712l1.5207-1.504c.6922-.6914.6929-1.813.0016-2.5052-.0005-.0005-.001-.001-.0016-.0016h0c-.6883-.6953-1.8099-.701-2.5051-.0127-.0043.0042-.0085.0085-.0127.0127l-1.5152,1.504c-3.7728-2.718-8.8612-2.718-12.6339,0l-1.4595-1.4818c-.6954-.6968-1.8241-.698-2.5209-.0025-.0008.0008-.0017.0017-.0025.0025h0c-.6898.6932-.6898,1.8135,0,2.5067l1.5152,1.4929c-1.3323,1.8414-2.0514,4.0553-2.0555,6.3281v5.175c0,.6307.5113,1.142,1.142,1.142h19.4411c.6198-.0151,1.1143-.522,1.1141-1.142v-5.175c.0075-2.2737-.7021-4.4919-2.0277-6.3393Zm-13.3693,8.0717c-1.1075.0031-2.0079-.8923-2.0109-1.9998s.8923-2.0079,1.9998-2.0109c1.1075-.0031,2.0079.8923,2.0109,1.9998,0,.0037,0,.0074,0,.0111,0,1.1045-.8953,1.9998-1.9998,1.9999-.0037,0-.0074,0-.0112,0h.0111Zm9.1468,0c-1.1075.0092-2.0128-.8811-2.022-1.9886-.0092-1.1075.8811-2.0128,1.9886-2.022s2.0128.8811,2.022,1.9886c0,.0074,0,.0148,0,.0222,0,1.1045-.8953,1.9998-1.9998,1.9998h0,.0111Z"/><g id="c"><path id="d" class="f" d="m15.5218,15.3931c10.47,0,18.9577,8.4876,18.9577,18.9577"/><path id="e" class="f" d="m15.5218,7.3725c14.8996,0,26.9782,12.0786,26.9782,26.9782"/></g></svg>