<?xml version="1.0" encoding="UTF-8"?><svg id="b" xmlns="http://www.w3.org/2000/svg" viewBox="0 0 48 48"><defs><style>.c{fill:none;stroke:#fff;stroke-linecap:round;stroke-linejoin:round;}</style></defs><g><polyline class="c" points="31.0666 30 31.066 18 24.6259 26.0605 32.5759 26.0605"/><path class="c" d="m15.4241,21.975c0-2.4533,2.2224-4.3875,4.7638-3.8991,1.667.3204,2.9982,1.7621,3.1642,3.4515.1234,1.2566-.2742,2.4966-1.1422,3.2584-1.608,1.4112-6.7857,5.2142-6.7857,5.2142h7.95"/></g><path class="c" d="m11.8635,6.2584C6.2117,10.1321,2.5,16.6305,2.5,24c0,11.8741,9.6259,21.5,21.5,21.5s21.5-9.6259,21.5-21.5S35.8741,2.5,24,2.5c-2.7988,0-5.4648.5513-7.9172,1.5244"/></svg>