<?xml version="1.0" encoding="UTF-8"?><svg id="b" xmlns="http://www.w3.org/2000/svg" viewBox="0 0 48 48"><defs><style>.c{fill:none;stroke:#fff;stroke-linecap:round;stroke-linejoin:round;}</style></defs><path class="c" d="m17,32.5v5c0,2.7614-2.2386,5-5,5h0c-2.7614,0-5-2.2386-5-5"/><path class="c" d="m7,37.5c0-2.7614,2.2386-5,5-5h25c2.2,0,4-1.8,4-4V9.5c0-2.2-1.8-4-4-4H11c-2.2,0-4,1.8-4,4v28"/><path class="c" d="m29.1876,18.467l-9.1448-5.2652c-.822-.4733-1.8482.12-1.8482,1.0685v10.5304c0,.9485,1.0262,1.5418,1.8482,1.0685l9.1448-5.2652c.8237-.4742.8237-1.6628,0-2.137Z"/></svg>