<?xml version="1.0" encoding="UTF-8"?><svg id="a" xmlns="http://www.w3.org/2000/svg" viewBox="0 0 48 48"><defs><style>.b{fill:none;stroke:#fff;stroke-linecap:round;stroke-linejoin:round;}</style></defs><path class="b" d="M42.4964,22.3142c0,7.1917-5.8091,13.0217-12.9751,13.0217h0c-7.1645-.002-12.9715-5.8314-12.9715-13.0217,0-7.1903,5.807-13.0197,12.9715-13.0217,7.1659-.002,12.9767,5.8264,12.9787,13.0181v.0036h-.0036ZM10.713,35.3359l-2.8144,2.7248c-1.3983,1.3588-2.3985.3585-2.3985-.9967V11.164c0-.882.9859-1.8715,1.8643-1.8715h10.7271c7.1778.0119,12.987,5.8403,12.9751,13.0181,0,.0012,0,.0024,0,.0036.0119,7.1784-5.7967,13.0079-12.9751,13.0217h-7.3785Z"/></svg>