<?xml version="1.0" encoding="UTF-8"?><svg id="b" xmlns="http://www.w3.org/2000/svg" viewBox="0 0 48 48"><defs><style>.d{fill:none;stroke:#fff;stroke-linecap:round;stroke-linejoin:round;}</style></defs><path id="c" class="d" d="M35.208,20.125c1.387,0,2.503,1.145,2.503,2.567v2.616c0,1.422-1.116,2.567-2.503,2.567s-2.504-1.145-2.504-2.567v-2.616c0-1.422,1.117-2.567,2.504-2.567ZM20.264,20.125c1.387,0,2.504,1.145,2.504,2.567v2.616c0,1.422-1.117,2.567-2.504,2.567s-2.503-1.145-2.503-2.567v-2.616c0-1.422,1.116-2.567,2.503-2.567ZM30.239,25.276v.032c0,1.418-1.12,2.567-2.503,2.567s-2.504-1.15-2.504-2.567v-2.616c0-1.418,1.121-2.567,2.504-2.567s2.503,1.15,2.503,2.567v.032M10.289,27.874v-7.749h2.474c1.399,0,2.533,1.165,2.533,2.603,0,1.437-1.134,2.602-2.533,2.602h-2.473M9.5,5.5h29c2.216,0,4,1.784,4,4v29c0,2.216-1.784,4-4,4H9.5c-2.216,0-4-1.784-4-4V9.5c0-2.216,1.784-4,4-4Z"/></svg>