<svg xmlns="http://www.w3.org/2000/svg" viewBox="0 0 48 48"><defs><style>.a{fill:none;stroke:#fff;stroke-linecap:round;stroke-linejoin:round;}</style></defs><polygon class="a" points="29.995 10.322 41.349 17.143 34.773 35.677 26.052 35.878 23.245 29.344 29.995 10.322"/><line class="a" x1="26.0523" y1="35.8777" x2="34.2162" y2="12.8699"/><polygon class="a" points="5.512 7.661 4.5 14.955 10.741 31.147 12.68 31.242 17.108 29.671 10.804 12.847 5.512 7.661"/><polyline class="a" points="5.512 7.661 6.06 14.829 12.68 31.242"/><polyline class="a" points="7.536 32.412 18.373 30.093 19.891 28.153 21.258 30.888 19.849 32.707 8.632 35.026 7.536 32.412 9.138 30.388 10.363 30.167"/><line class="a" x1="19.8907" y1="28.1534" x2="16.7718" y2="28.7748"/><polyline class="a" points="17.977 33.094 19.891 37.978 18.71 39.665 14.662 40.339 12.235 34.281"/><line class="a" x1="16.3066" y1="33.6139" x2="18.71" y2="39.6648"/><polyline class="a" points="41.349 17.143 43.5 16.758 36.812 35.348 34.773 35.677"/><polyline class="a" points="29.995 10.322 32.904 10.241 43.5 16.758"/><line class="a" x1="18.3727" y1="30.093" x2="19.8485" y2="32.7073"/></svg>