<svg xmlns="http://www.w3.org/2000/svg" viewBox="0 0 48 48"><defs><style>.a{fill:none;stroke:#fff;stroke-linecap:round;stroke-linejoin:round;}</style></defs><path class="a" d="M13.6672,27.9623V19.916h2.662a2.7161,2.7161,0,1,1,0,5.4313h-2.662"/><path class="a" d="M28.9064,28.0928V20.0465h2.662a2.716,2.716,0,1,1,0,5.4312h-2.662"/><path class="a" d="M21.0238,25.4267a2.8575,2.8575,0,0,0,5.7149,0V22.5733A2.8709,2.8709,0,0,0,23.8273,19.72a2.78,2.78,0,0,0-2.8035,2.8534Z"/><path class="a" d="M40.5,5.5H7.5a2,2,0,0,0-2,2v33a2,2,0,0,0,2,2h33a2,2,0,0,0,2-2V7.5A2,2,0,0,0,40.5,5.5Z"/></svg>