<?xml version="1.0" encoding="UTF-8"?><svg id="b" xmlns="http://www.w3.org/2000/svg" viewBox="0 0 48 48"><defs><style>.c{fill:#fff;}.d{fill:none;stroke:#fff;stroke-linecap:round;stroke-linejoin:round;}</style></defs><path class="d" d="m29.1609,8.4886c-2.7098-3.1647-7.6198-3.1682-10.3331-.0066-2.6573,3.0962-5.4668,6.88-8.0865,11.427-2.6073,4.5254-4.4895,8.8745-5.8523,12.7427-1.3801,3.9171,1.063,8.1556,5.1444,8.9236,4.0156.7556,8.7057,1.299,13.9641,1.2943,5.2251-.0047,9.9345-.5498,13.9671-1.3041,4.0794-.7631,6.5266-4.9947,5.1522-8.9107-1.3536-3.8567-3.2285-8.192-5.8631-12.7457-2.6101-4.5114-5.4292-8.3096-8.0929-11.4204Z"/><g><ellipse class="d" cx="20.6626" cy="21.1392" rx="3.3373" ry="3.971"/><ellipse class="d" cx="27.3373" cy="21.1392" rx="3.3373" ry="3.971"/><circle class="c" cx="20.6626" cy="21.1392" r=".75"/><circle class="c" cx="27.2669" cy="21.1392" r=".75"/></g><path class="d" d="m15.5537,24.367c-1.9151,3.3796-.7886,7.7062,3.4922,5.4531"/></svg>