<svg xmlns="http://www.w3.org/2000/svg" viewBox="0 0 48 48"><defs><style>.a{fill:none;stroke:#fff;stroke-linecap:round;stroke-linejoin:round;}</style></defs><path class="a" d="M40.5,5.5H7.5a2,2,0,0,0-2,2v33a2,2,0,0,0,2,2h33a2,2,0,0,0,2-2V7.5A2,2,0,0,0,40.5,5.5Z"/><path class="a" d="M9.5,28.2152v-8.43h2.76a2.8313,2.8313,0,0,1,0,5.6626H9.5"/><line class="a" x1="30.9288" y1="22.6301" x2="26.7136" y2="28.2152"/><line class="a" x1="30.9288" y1="28.2152" x2="26.7136" y2="22.6301"/><path class="a" d="M17.1329,24.7377A2.1076,2.1076,0,0,1,19.2405,22.63h0"/><line class="a" x1="17.1329" y1="22.6301" x2="17.1329" y2="28.2152"/><line class="a" x1="32.909" y1="22.6301" x2="32.909" y2="28.2152"/><path class="a" d="M34.9005,27.744a2.3707,2.3707,0,0,0,1.7334.4712h.4728A1.3948,1.3948,0,0,0,38.5,26.8189h0a1.3948,1.3948,0,0,0-1.3933-1.3963H36.161a1.3948,1.3948,0,0,1-1.3932-1.3963h0A1.3947,1.3947,0,0,1,36.161,22.63h.4729a2.37,2.37,0,0,1,1.7333.4712"/><path class="a" d="M24.7165,26.1076a2.1076,2.1076,0,0,1-2.1076,2.1076h0a2.1076,2.1076,0,0,1-2.1076-2.1076v-1.37A2.1076,2.1076,0,0,1,22.6089,22.63h0a2.1076,2.1076,0,0,1,2.1076,2.1076"/><line class="a" x1="24.7165" y1="28.2152" x2="24.7165" y2="22.6301"/><line class="a" x1="34.3317" y1="20.6555" x2="31.4864" y2="20.6555"/></svg>