<?xml version="1.0" encoding="UTF-8"?><svg id="a" xmlns="http://www.w3.org/2000/svg" viewBox="0 0 48 48"><defs><style>.b{fill:none;stroke:#fff;stroke-linecap:round;stroke-linejoin:round;}</style></defs><path class="b" d="M33.3769,25.0641l2.0967-13.1134c.206-1.2362-.5575-2.436-1.7695-2.7754l-12.7013-3.6116c-.303-.0848-.6302-.0848-.9332,0l-12.7013,3.6116c-1.212.3393-1.9755,1.5392-1.7816,2.7754l2.8239,17.5734c.3272,2.024,1.5028,3.8177,3.2359,4.9084l6.993,4.3873c1.1514.7393,2.63.7393,3.7934,0l3.1269-1.9634"/><circle class="b" cx="20.5345" cy="18.4177" r="4.3155"/><circle class="b" cx="33.7132" cy="33.7699" r="8.7301"/><path class="b" d="M18.3767,22.1537v4.9533c0,1.1917.9661,2.1577,2.1577,2.1577s2.1577-.9661,2.1577-2.1577v-4.95"/><polyline class="b" points="29.0635 33.5632 32.4275 36.9272 37.9663 30.3351"/></svg>