<?xml version="1.0" encoding="UTF-8"?><svg id="a" xmlns="http://www.w3.org/2000/svg" viewBox="0 0 48 48"><defs><style>.e{fill:none;stroke:#fff;stroke-linecap:round;stroke-linejoin:round;}</style></defs><g id="b"><path id="c" class="e" d="M14.541,43.311c-5.2806,1.0663-4.2679-2.5648-3.8925-6.2315.5509-5.3803,1.3731-10.5114,3.4615-16.0712,1.4501-3.8605,5.7104-9.0504,6.3568-8.1884.6465.8619,2.1316,3.8594-.5387,9.5891-1.0228,2.1947-2.0402,7.2881-1.8316,13.3601.0926,2.6941,2.4047,6.3385-3.5555,7.542Z"/><path id="d" class="e" d="M25.3527,4.5099c16.1164.378,14.9885,14.5558,12.314,18.6716-2.7537,4.2377-8.3801,6.5087-12.5669,6.0152-2.9681-.3498-4.1046-2.1549-2.9681-2.8013,1.1365-.6464,8.6824-.5653,9.3249-8.0807.5111-5.9788-3.5029-9.8274-11.8517-8.4039-7.4959,1.2781-8.1235,3.9319-10.0473,3.1245-2.9196-1.2253,2.072-8.8473,15.7951-8.5254Z"/></g></svg>