<?xml version="1.0" encoding="UTF-8"?><svg id="a" xmlns="http://www.w3.org/2000/svg" viewBox="0 0 48 48"><defs><style>.g{fill:none;stroke:#fff;stroke-linecap:round;stroke-linejoin:round;}</style></defs><path id="b" class="g" d="M24.1807,16.0205h-12.0106c-5.4201.1805-6.7616,3.5735-6.6653,7.9753.1726,7.8955,2.1448,10.1728,8.9551,10.2453"/><circle id="c" class="g" cx="19.2639" cy="10.6782" r="1.5003"/><path id="d" class="g" d="M23.8193,31.9795h12.0106c5.4201-.1805,6.7616-3.5735,6.6653-7.9753-.1726-7.8955-2.1448-10.1728-8.9551-10.2453"/><circle id="e" class="g" cx="28.7361" cy="37.3218" r="1.5003"/><path id="f" class="g" d="M32.8947,31.9795c1.7285,8.6856-3.766,9.684-9.0754,9.6063-4.7703-.0699-9.3947-.4807-9.3593-6.0683v-5.4131c.0624-4.8944,1.7638-6.0541,6.159-6.1207l6.762.0328c4.3953-.0666,6.0966-1.2264,6.159-6.1207v-5.4131c.0354-5.5876-4.589-5.9984-9.3593-6.0683-5.3094-.0778-10.804.9207-9.0754,9.6063"/></svg>