<svg xmlns="http://www.w3.org/2000/svg" viewBox="0 0 48 48"><defs><style>.a{fill:none;stroke:#fff;stroke-linecap:round;stroke-linejoin:round;}</style></defs><path class="a" d="M14.25,19.8545h0a9.75,9.75,0,0,1,9.75,9.75v9.75a0,0,0,0,1,0,0H14.25a9.75,9.75,0,0,1-9.75-9.75v0A9.75,9.75,0,0,1,14.25,19.8545Z"/><path class="a" d="M24,39.3545h9.75a9.75,9.75,0,0,0,9.75-9.75h0a9.75,9.75,0,0,0-9.75-9.75h0a9.75,9.75,0,0,0-9.75,9.75"/><path class="a" d="M24,8.6455h0a12.72,12.72,0,0,1,12.72,12.72v12.72a0,0,0,0,1,0,0H24a12.72,12.72,0,0,1-12.72-12.72v0A12.72,12.72,0,0,1,24,8.6455Z" transform="translate(22.1372 -10.7127) rotate(45)"/></svg>