<?xml version="1.0" encoding="UTF-8"?><svg id="a" xmlns="http://www.w3.org/2000/svg" viewBox="0 0 48 48"><defs><style>.c{fill:none;stroke:#fff;stroke-linecap:round;stroke-linejoin:round;}</style></defs><path class="c" d="M28.5445,30.0042v-12.0083h2.7019c2.9015,0,5.2536,2.3521,5.2536,5.2536v1.501c0,2.9015-2.3521,5.2536-5.2536,5.2536h-2.7019Z"/><path class="c" d="M11.5,30.0042v-12.0083h3.9313c2.2225,0,4.0242,1.8056,4.0242,4.0329s-1.8017,4.0329-4.0242,4.0329h-3.9313"/><line class="c" x1="15.4313" y1="26.0616" x2="19.3622" y2="30.0011"/><line class="c" x1="28.4887" y1="26.8618" x2="23.2351" y2="26.8618"/><line class="c" x1="28.4887" y1="21.1382" x2="23.2351" y2="21.1382"/><path class="c" d="M38.5,5.5001H9.5c-2.2091,0-4,1.7909-4,4v29c0,2.2091,1.7909,4,4,4h29c2.2091,0,4-1.7909,4-4V9.5001c0-2.2091-1.7909-4-4-4Z"/></svg>