<svg xmlns="http://www.w3.org/2000/svg" viewBox="0 0 48 48"><defs><style>.a{fill:none;stroke:#fff;stroke-linecap:round;stroke-linejoin:round;}</style></defs><path class="a" d="M36.5512,41.3362A20.3106,20.3106,0,0,0,7.8277,12.6127"/><path class="a" d="M17.4022,22.1872a6.77,6.77,0,0,0-9.5745-9.5745"/><path class="a" d="M26.9767,31.7617a6.77,6.77,0,0,0-9.5745-9.5745"/><path class="a" d="M36.5512,41.3362a6.77,6.77,0,1,0-9.5745-9.5745"/><line class="a" x1="36.5512" y1="12.6127" x2="37.5304" y2="11.6335"/><path class="a" d="M17.4022,22.1872c12.1041-12.1042,19.149-9.5745,19.149-9.5745"/><path class="a" d="M26.9767,31.7617c12.1041-12.1042,9.5745-19.149,9.5745-19.149"/><path class="a" d="M26.9767,22.1872,14.6277,34.5361a5.3468,5.3468,0,0,1-7.5616,0h0a5.3469,5.3469,0,0,1,0-7.5617l.8976-.8976"/></svg>