<?xml version="1.0" encoding="UTF-8"?><svg id="b" xmlns="http://www.w3.org/2000/svg" viewBox="0 0 48 48"><defs><style>.d{fill:none;stroke:#fff;stroke-linecap:round;stroke-linejoin:round;}</style></defs><path class="d" d="M34.5,17.4737l-1.7261,9.7894c-.3178,1.8022-2.0363,3.2631-3.8385,3.2631h0c-1.8022,0-3.0055-1.461-2.6878-3.2631l.1911-1.0836"/><path class="d" d="M13.5,30.5263l2.3015-13.0526h4.2732c2.4158,0,4.0281,1.9626,3.6012,4.3836-.4269,2.421-2.7313,4.3836-5.1471,4.3836h-4.2732"/><line class="d" x1="18.5288" y1="26.2409" x2="22.0465" y2="30.523"/><path id="c" class="d" d="M38.5,5.5H9.5c-2.2091,0-4,1.7909-4,4v29c0,2.2091,1.7909,4,4,4h29c2.2091,0,4-1.7909,4-4V9.5c0-2.2091-1.7909-4-4-4Z"/></svg>