<?xml version="1.0" encoding="UTF-8"?><svg id="b" xmlns="http://www.w3.org/2000/svg" viewBox="0 0 48 48"><defs><style>.d{fill:none;stroke:#fff;stroke-linecap:round;stroke-linejoin:round;}</style></defs><path class="d" d="M18.58,42.5v-18.03c0-8.25,6.7-14.94,14.94-14.94h8.98"/><path class="d" d="M25.34,42.5v-17.48c0-4.82,3.92-8.73,8.74-8.73h8.42"/><path class="d" d="M22.67,42.5v-17.39c0-6.44,5.23-11.67,11.67-11.67h8.16"/><path class="d" d="M29.51,42.5v-16.89c0-2.83,2.3-5.13,5.14-5.13h7.85"/><path class="d" d="M42.5,9.5v29c0,2.208-1.792,4-4,4H9.5c-2.208,0-4-1.792-4-4V9.5c0-2.208,1.792-4,4-4h29c2.208,0,4,1.792,4,4Z"/></svg>