<svg xmlns="http://www.w3.org/2000/svg" viewBox="0 0 48 48"><defs><style>.a{fill:none;stroke:#fff;stroke-linecap:round;stroke-linejoin:round;}</style></defs><path class="a" d="M6.6008,15.6386H36.9589A2.1008,2.1008,0,0,1,39.06,17.7394h0V35.02a2.1007,2.1007,0,0,1-2.1008,2.1008H6.6008A2.1009,2.1009,0,0,1,4.5,35.02v-17.28A2.1009,2.1009,0,0,1,6.6008,15.6386Z"/><path class="a" d="M8.94,13.8647V12.98a2.1007,2.1007,0,0,1,2.1007-2.1008H41.3992A2.1008,2.1008,0,0,1,43.5,12.98h0l0,17.28a2.101,2.101,0,0,1-2.1009,2.1009h-.412"/><path class="a" d="M14.9516,30.6148V22.2115m-1.05-.067,3.7809.067m0,0a2.8362,2.8362,0,0,1,0,5.6723H13.9018"/><path class="a" d="M13.9018,29.459h3.7814"/><circle class="a" cx="23.8807" cy="23.7201" r="1.5756"/><circle class="a" cx="28.0823" cy="28.9722" r="1.5756"/><line class="a" x1="23.2505" y1="30.5478" x2="28.7126" y2="22.1445"/><path class="a" d="M4.5129,19.84H39.0468M4.5131,24.042h5.252"/><path class="a" d="M33.8077,24.042H39.06"/></svg>