<?xml version="1.0" encoding="UTF-8"?><svg id="b" xmlns="http://www.w3.org/2000/svg" viewBox="0 0 48 48"><defs><style>.l{fill:none;stroke:#fff;stroke-linecap:round;stroke-linejoin:round;}</style></defs><rect id="c" class="l" x="5.5" y="5.5" width="37" height="37" rx="4" ry="4"/><g id="d"><path id="e" class="l" d="M28.0194,29.9595c-1.127,1.3387-2.8153,2.1893-4.7022,2.1893h0c-3.3932,0-6.144-2.7507-6.144-6.144v-6.0333c0-3.3932,2.7507-6.144,6.144-6.144h0c1.8981,0,3.5952.8607,4.7223,2.2132"/><line id="f" class="l" x1="14.8831" y1="20.7618" x2="21.7536" y2="20.7618"/><line id="g" class="l" x1="14.8831" y1="25.2581" x2="21.7536" y2="25.2581"/></g><line id="h" class="l" x1="32.0891" y1="33.7574" x2="29.5729" y2="33.7574"/><polyline id="i" class="l" points="28.9498 35.6387 30.831 29.9595 32.7123 35.6387"/><line id="j" class="l" x1="33.4888" y1="29.9841" x2="37.1717" y2="29.9841"/><line id="k" class="l" x1="35.3303" y1="35.5431" x2="35.3303" y2="29.9841"/></svg>