<?xml version="1.0" encoding="UTF-8"?><svg id="a" xmlns="http://www.w3.org/2000/svg" viewBox="0 0 48 48"><defs><style>.c{fill:none;stroke:#fff;stroke-linecap:round;stroke-linejoin:round;}</style></defs><path id="b" class="c" d="M9.5,5.5h29c2.216,0,4,1.784,4,4v29c0,2.216-1.784,4-4,4H9.5c-2.216,0-4-1.784-4-4V9.5c0-2.216,1.784-4,4-4ZM11.652,32.57c1.034.812,2.15,1.184,4.659,1.184h1.27c2.068,0,3.745-1.571,3.745-3.51h0c0-1.939-1.677-3.51-3.745-3.51h-2.541c-2.068,0-3.745-1.571-3.745-3.51h0c0-1.938,1.677-3.51,3.745-3.51h1.27c2.508,0,3.625.372,4.66,1.185M28.642,26.214l8.063,7.508M25.378,29.252l10.256-9.546M25.376,12.562v21.192"/></svg>