<svg xmlns="http://www.w3.org/2000/svg" viewBox="0 0 48 48"><defs><style>.a{fill:none;stroke:#fff;stroke-linecap:round;stroke-linejoin:round;}</style></defs><rect class="a" x="26.47" y="26.5" width="16.03" height="16"/><path class="a" d="M5.5,26.5h16a0,0,0,0,1,0,0v16a0,0,0,0,1,0,0h0a16,16,0,0,1-16-16v0A0,0,0,0,1,5.5,26.5Z"/><path class="a" d="M5.5,5.5h16a0,0,0,0,1,0,0v0a16,16,0,0,1-16,16h0a0,0,0,0,1,0,0V5.5A0,0,0,0,1,5.5,5.5Z"/><path class="a" d="M26.47,5.5h0a16,16,0,0,1,16,16v0a0,0,0,0,1,0,0h-16a0,0,0,0,1,0,0V5.5A0,0,0,0,1,26.47,5.5Z"/></svg>