<?xml version="1.0" encoding="UTF-8"?><svg id="b" xmlns="http://www.w3.org/2000/svg" viewBox="0 0 48 48"><defs><style>.c{fill:none;stroke:#fff;stroke-linecap:round;stroke-linejoin:round;}</style></defs><line class="c" x1="10.5" y1="29.2801" x2="10.5" y2="36.6958"/><line class="c" x1="15.4129" y1="29.2801" x2="15.4129" y2="36.6958"/><line class="c" x1="10.5" y1="32.9739" x2="15.4129" y2="32.9739"/><path class="c" d="M17.1569,24.0446c0-1.0239.83-1.8539,1.8539-1.8539h0c1.0239,0,1.8539.83,1.8539,1.8539v3.059"/><line class="c" x1="17.1569" y1="22.1906" x2="17.1569" y2="27.1035"/><path class="c" d="M20.8648,24.0446c0-1.0239.83-1.8539,1.8539-1.8539h0c1.0239,0,1.8539.83,1.8539,1.8539v3.059"/><path class="c" d="M23.9579,33.6368c0-1.0239.83-1.8539,1.8539-1.8539h0c1.0239,0,1.8539.83,1.8539,1.8539v3.059"/><line class="c" x1="23.9579" y1="31.7829" x2="23.9579" y2="36.6958"/><path class="c" d="M27.6657,33.6368c0-1.0239.83-1.8539,1.8539-1.8539h0c1.0239,0,1.8539.83,1.8539,1.8539v3.059"/><path class="c" d="M31.8367,24.0446c0-1.0239.83-1.8539,1.8539-1.8539h0"/><line class="c" x1="31.8367" y1="22.1906" x2="31.8367" y2="27.1035"/><path class="c" d="M10.6469,26.291c.4547.592,1.0249.8125,1.8182.8125h1.0979c1.0217,0,1.8499-.8282,1.8499-1.8499v-.008c0-1.0217-.8282-1.8499-1.8499-1.8499h-1.211c-1.0228,0-1.8519-.8291-1.8519-1.8519h0c0-1.025.8309-1.8559,1.8559-1.8559h1.0919c.7933,0,1.3635.2205,1.8182.8125"/><path class="c" d="M36.2949,20.6612v5.5154c0,.5119.415.927.927.927h.2781"/><line class="c" x1="35.3216" y1="22.1906" x2="37.2683" y2="22.1906"/><path class="c" d="M30.0202,25.2496c0,1.0239-.83,1.8539-1.8539,1.8539h0c-1.0239,0-1.8539-.83-1.8539-1.8539v-1.2051c0-1.0239.83-1.8539,1.8539-1.8539h0c1.0239,0,1.8539.83,1.8539,1.8539"/><line class="c" x1="30.0202" y1="27.1035" x2="30.0202" y2="22.1906"/><path class="c" d="M37.2569,35.7602c-.3193.5589-.9211.9356-1.6108.9356h0c-1.0239,0-1.8539-.83-1.8539-1.8539v-1.2051c0-1.0239.83-1.8539,1.8539-1.8539h0c1.0239,0,1.8539.83,1.8539,1.8539v.6025s-3.7078,0-3.7078,0"/><path class="c" d="M17.8315,33.6368c0-1.0239.83-1.8539,1.8539-1.8539s1.8539.83,1.8539,1.8539v1.2051c0,1.0239-.83,1.8539-1.8539,1.8539s-1.8539-.83-1.8539-1.8539v-1.2051Z"/><path class="c" d="M33.8611,16.9863l-8.7211-5.3597c-.6992-.4297-1.5807-.4297-2.28,0l-8.7211,5.3597"/><rect class="c" x="5.5" y="5.5" width="37" height="37" rx="4" ry="4"/></svg>