<svg xmlns="http://www.w3.org/2000/svg" viewBox="0 0 48 48"><defs><style>.a{fill:none;stroke:#fff;stroke-linecap:round;stroke-linejoin:round;}</style></defs><path class="a" d="M14.4866,14.54c-.0118-2.4628,1.8283-4.7418,4.82-5.9691a12.9832,12.9832,0,0,1,9.6438.0347c2.9705,1.2488,4.7722,3.5409,4.7189,6.0034"/><path class="a" d="M21.2945,7.49a3.08,3.08,0,0,1,1.3443-2.6,2.3951,2.3951,0,0,1,2.667.0309,3.0923,3.0923,0,0,1,1.2936,2.63"/><path class="a" d="M9.7971,36.6468,38.2,36.6135"/><path class="a" d="M23.846,36.6294v4.3027"/><path class="a" d="M33.6689,14.1634c-2.2021,18.4916,5.89,14.1639,4.5313,22.45"/><path class="a" d="M14.4866,14.54c2.2021,18.4916-6.0479,13.82-4.6895,22.1065"/><circle class="a" cx="23.846" cy="42.216" r="1.284"/></svg>