<svg id="Layer_2" data-name="Layer 2" xmlns="http://www.w3.org/2000/svg" viewBox="0 0 48 48"><defs><style>.cls-1{fill:none;stroke:#fff;stroke-linecap:round;stroke-linejoin:round;}</style></defs><path class="cls-1" d="M41,5H7A2,2,0,0,0,5,7V41a2,2,0,0,0,2,2H41a2,2,0,0,0,2-2V7A2,2,0,0,0,41,5ZM39,22H31.08V16.92H26V9H39ZM27.08,20.92v6.16H20.92V20.92ZM22,9v7.92H16.92V22H9V9ZM37.12,39H9V26h7.92v5.08H31.08V26H39V37.12A1.88,1.88,0,0,1,37.12,39Z"/><path class="cls-1" d="M28.9,16.75c-.28-2.32,2.71-5.28,7.53-5A5.26,5.26,0,0,1,35,16.45c-2.19,2.4-3.88,2-3.88,2"/><path class="cls-1" d="M19.05,16.75c.29-2.32-3.1-5.61-8.37-4.27a5.49,5.49,0,0,0,1.91,4.6c2.28,2.13,4.29,1.35,4.29,1.35"/><path class="cls-1" d="M24,31.08c.08,1.37-.09,5.31-2.5,5.67"/></svg>