<svg xmlns="http://www.w3.org/2000/svg" viewBox="0 0 48 48"><defs><style>.a{fill:none;stroke:#fff;stroke-linecap:round;stroke-linejoin:round;}</style></defs><path class="a" d="M15.73,28.3878c-.0122,6.3-1.188,11.6746-8.4477,13.464"/><path class="a" d="M32.27,28.3878c.0122,6.3,1.188,11.6746,8.4477,13.464"/><path class="a" d="M21.34,35.3007c.0523,4.2939-2.4148,6.7908-6.4076,8.1993"/><path class="a" d="M26.6758,35.3007c-.0522,4.2939,2.4148,6.7908,6.4077,8.1993"/><path class="a" d="M24,15.69V5.0491a.5484.5484,0,0,0-1.06-.198L15.93,22.968c4.0068,2.1225,3.342,4.75,3.57,9.2484a.5762.5762,0,0,0,.5694.5446h7.8614a.5762.5762,0,0,0,.5694-.5446c.2284-4.4982-.4364-7.1259,3.57-9.2484L25.06,4.8511a.5484.5484,0,0,0-1.06.198V15.69"/><circle class="a" cx="24" cy="17.498" r="1.8081"/></svg>