<svg xmlns="http://www.w3.org/2000/svg" viewBox="0 0 48 48"><defs><style>.a{fill:none;stroke:#fff;stroke-linecap:round;stroke-linejoin:round;}</style></defs><path class="a" d="M7.48,5.5a2,2,0,0,0-2,2v33a2,2,0,0,0,2,2H40.52a2,2,0,0,0,2-2V7.5a2,2,0,0,0-2-2Z"/><path class="a" d="M32.956,28.1882V19.82h2.74a2.81,2.81,0,0,1,0,5.6208h-2.74"/><line class="a" x1="35.6956" y1="25.4408" x2="38.435" y2="28.1861"/><line class="a" x1="16.8519" y1="19.82" x2="22.3959" y2="19.82"/><line class="a" x1="19.6239" y1="28.1882" x2="19.6239" y2="19.82"/><path class="a" d="M9.6657,27.2713a2.3407,2.3407,0,0,0,2.0518.9169h1.2389a2.09,2.09,0,0,0,2.0876-2.092h0a2.09,2.09,0,0,0-2.0876-2.0921H11.5876A2.09,2.09,0,0,1,9.5,21.912h0a2.09,2.09,0,0,1,2.0876-2.092h1.2389a2.3407,2.3407,0,0,1,2.0518.9169"/><polygon class="a" points="26.552 19.812 27.592 23.011 30.956 23.011 28.234 24.989 29.274 28.188 26.552 26.211 23.831 28.188 24.87 24.989 22.148 23.011 25.513 23.011 26.552 19.812"/></svg>