<?xml version="1.0" encoding="UTF-8"?><svg id="a" xmlns="http://www.w3.org/2000/svg" viewBox="0 0 48 48"><defs><style>.aa{fill:none;stroke:#fff;stroke-linecap:round;stroke-linejoin:round;}</style></defs><path id="b" class="aa" d="M5.5,29.7255V9.8795c0-2.216,1.784-4,4-4h15.022"/><path id="c" class="aa" d="M42.5,19.5385v19.341c0,2.216-1.784,4-4,4H9.5c-2.216,0-4-1.784-4-4v-3.332"/><path id="d" class="aa" d="M38.5,5.8795c2.216,0,4,1.784,4,4"/><path id="e" class="aa" d="M28.723,24.5795c3.3971,3.1285,3.6148,8.4185.4864,11.8157-1.5831,1.719-3.8134,2.6972-6.1504,2.6973-4.6182-.0018-8.3606-3.747-8.3588-8.3652.0018-4.6182,3.747-8.3606,8.3652-8.3588.3752.0001.7499.0255,1.1217.076"/><path id="f" class="aa" d="M21.454,31.7015c-3.21.168-4.523-3.952-2.95-5.655.852,2.132,1.473,3.312,2.95,5.655h0"/><path id="g" class="aa" d="M22.975,32.4475c1.541,2.82,5.738,1.776,6.362-.457-2.261.394-3.592.484-6.362.457h0"/><path id="h" class="aa" d="M12.838,33.0345l-.742.096-.004-1.822,1.603.26c-.06.383.106.824.127,1.339.051,1.288-1.04,1.772-1.202,2.926"/><path id="i" class="aa" d="M9.296,30.0115l1.664,1.485.851-.79c-.13-.883-.847-1.794-1.559-1.778-.974.335-1.205.597-1.145,1.325l-1.453.778c-.194.147-.19.227-.167.373"/><path id="j" class="aa" d="M7.777,31.6095l1.962,2.059,1.247-1.067c-.214-.713-.464-1.274-1.006-1.958"/><path id="k" class="aa" d="M7.358,31.3665l-1.707,1.085,2.583,2.978,1.202-.875-1.61-2.926"/><path id="l" class="aa" d="M8.411,35.5415c.616.836,1.06,1.819,2.534,1.635,2.279.696,2.691,1.066,4.88,1.007l-.855,3.12"/><path id="m" class="aa" d="M12.933,34.9635c1.053.173,2.105.347,3.158.535"/><path id="n" class="aa" d="M23.843,39.1045c-.319.467-1.055.437-1.556.978-.476.515-.747,1.635-1.045,2.794"/><path id="o" class="aa" d="M11.673,42.8795l2.133-1.508c.312-.221,1.147-.037,1.147-.037l.966.604.326.94"/><path id="p" class="aa" d="M31.326,28.1465c.896-.705,1.156-3.059.91-3.65-.211-.448-.488-.865-.995-1.167l-.331-.177c-.44.034-.993-.18-1.294.2l-.687.872c-.124.374.282.828.684.765l.79-.572.226.448-.458,1.269"/><path id="q" class="aa" d="M29.417,23.6095c-.447-.303-.983-.518-1.218-1.085l1.142-.643c.617-.147,1.69.833,2.116,1.538"/><path id="r" class="aa" d="M31.614,27.8555c2.282,1.627,1.107,5.619-.817,6.382"/><path id="s" class="aa" d="M29.205,25.3215c-2.445-1.262-4.937-2.756-6.64-4.163l.924-1.366c1.656.773,3.529,1.703,4.97,2.804"/><path id="t" class="aa" d="M29.73,21.5215c2.513,1.352,5.78-.217,7.512-2.119l3.199-3.513c1.18-1.297-1.882-4.46-4.281-6.283-1.948-1.69-6.331-3.971-7.365-2.449-1.129,1.664-1.838,3.59-2.632,5.627-.8,2.055-.687,5.714,1.347,7.38l-.82,1.024"/><path id="u" class="aa" d="M40.338,16.0435l.83.13.551-3.173c-.354-2.584-3.17-4.805-4.119-5.498-2.27-1.653-5.294-2.64-7.007-2.323l-2.326,1.467.285.675"/><path id="v" class="aa" d="M36.69,21.8735c-.818.122-1.185-.755-.764-1.276"/><path id="w" class="aa" d="M36.377,20.4395c2.77.12,3.864-1.183,5.737-3.76l-1.299-.883"/><path id="x" class="aa" d="M24.37,13.0825c.226.863,1.259.858,1.602.221"/><path id="y" class="aa" d="M25.938,12.7895c-1.296-2.698-.457-4.332,1.324-7.276l1.435.916"/><path id="z" class="aa" d="M27.49,14.9535l3.94-5.041c.302.791.442,1.606.364,2.453l2.9-1.98-.556,3.544c.728-.44,1.522-.67,2.365-.745l-2.813,5.747c-.697-.72-1.372-1.484-2.819-2.438-1.446-.954-2.428-1.227-3.38-1.54h0"/></svg>