<?xml version="1.0" encoding="UTF-8"?><svg id="b" xmlns="http://www.w3.org/2000/svg" viewBox="0 0 48 48"><defs><style>.c{fill:none;stroke:#fff;stroke-linecap:round;stroke-linejoin:round;}</style></defs><path class="c" d="m33.0248,36.1661c-.294.587-.9779.9779-1.6629.9779h0c-1.0792-.0027-1.9536-.8766-1.9569-1.9559v-1.2719c0-1.0759.8799-1.9558,1.9569-1.9558h0c1.0759,0,1.9558.8799,1.9558,1.9558v.6849h-3.9127m-11.5751,2.5428v-5.2816m3.9117,5.2816v-3.2278c0-1.0759-.8799-1.9558-1.9558-1.9558h0c-1.0759,0-1.9558.8799-1.9558,1.9558m5.7876,3.2278v-5.2816m3.9127,5.2816v-3.2278c0-1.0759-.8799-1.9558-1.9569-1.9558h0c-1.0759,0-1.9558.8799-1.9558,1.9558m15.0968,2.2498c-.293.587-.9779.9779-1.6629.9779h0c-1.0788-.0033-1.9526-.877-1.9559-1.9559v-1.2719c0-1.0759.8799-1.9558,1.9559-1.9558h0c.6849,0,1.3699.391,1.6629.9779m1.4849-1.0759h2.1518m-1.0759-1.5649v5.8685c0,.587.391.9779.9779.9779h.293m-33.6434-1.7439l2.6548-2.7898c.453-.475,1.1299-.7229,1.8459-.7229,1.4799,0,2.6798,1.1769,2.6798,2.6288,0,1.4509-1.1999,2.6278-2.6798,2.6278-.6962.0019-1.3662-.2653-1.8699-.7459m.9369-2.7658l-2.6548,2.7888c-.453.476-1.1299.7229-1.8459.7229-1.4799,0-2.6798-1.1769-2.6798-2.6278,0-1.4519,1.1999-2.6288,2.6798-2.6288.6961-.0017,1.3661.2655,1.8699.7459m22.9732-10.6892l-3.3707,6.3025m5.6316-10.5222c.302-.565.9049-1.0199,1.4219-1.0199s1.0829.48,1.3849,1.0439l5.6196,10.4982m-4.7546-17.3907l-5.9325,11.0881h4.1437m-17.1047-.28l-2.6548-4.9596m14.0579,0l-5.6186,10.4972c-.302.565-.8689,1.0449-1.4099,1.0449-.542,0-1.1089-.48-1.4099-1.0449l-2.9648-5.5386h5.6786m-21.0304,6.5835l5.6186-10.4982c.302-.564.8679-1.0439,1.4099-1.0439s1.1089.48,1.4099,1.0439l5.6196,10.4982"/></svg>