<?xml version="1.0" encoding="UTF-8"?><svg id="a" xmlns="http://www.w3.org/2000/svg" viewBox="0 0 48 48"><defs><style>.c{fill:none;stroke:#fff;stroke-linecap:round;stroke-linejoin:round;}</style></defs><path class="c" d="M24,38.5001v6.9999"/><path class="c" d="M24,2.5004v5"/><path class="c" d="M45.4998,24.0002h-6.9999v-11.3809"/><path class="c" d="M2.5002,24.0002h6.9999v-11.3809"/><path class="c" d="M41.8468,12.0113c2.3813,3.5448,3.653,7.7185,3.6531,11.9889,0,11.874-9.6258,21.4998-21.4998,21.4998S2.5002,35.8742,2.5002,24.0002c0-4.2716,1.2725-8.4465,3.6552-11.9919"/><path class="c" d="M7.2601,10.5083C11.3415,5.4443,17.4959,2.5,24,2.5c6.5164.0001,12.6811,2.9556,16.7618,8.0361"/><path class="c" d="M38.4998,24.0002c-.0001,5.1802-2.7638,9.9668-7.2499,12.5569-4.4863,2.5902-10.0136,2.5902-14.4999,0-4.4862-2.5901-7.2498-7.3767-7.2499-12.5569"/><path class="c" d="M17.492,19.0952c2.2537-.153,4.577.4922,6.5083,2.2154,4.7515-4.2392,11.8739-1.9544,14.4999,2.6892"/><path class="c" d="M9.5001,24.0002c1.1603-2.0521,3.199-3.6436,5.5231-4.4149"/><path class="c" d="M44.3648,11.3743l-20.3648-3.874L3.6351,11.3743l20.3648,3.874,20.3648-3.874Z"/><path class="c" d="M24,10.3773l-7.8999,1.6439v5.0275"/><path class="c" d="M15.742,19.9992l-1.1026,4.463h2.922l-1.1025-4.4625"/><circle class="c" cx="16.1" cy="18.5483" r="1.5"/><path class="c" d="M18.571,29.2062l4.6878,4.6876c.4041.3953,1.0983.3664,1.5373-.055l6.8968-6.8966"/></svg>