<?xml version="1.0" encoding="UTF-8"?><svg id="b" xmlns="http://www.w3.org/2000/svg" viewBox="0 0 48 48"><defs><style>.d{fill:none;stroke:#fff;stroke-linecap:round;stroke-linejoin:round;}</style></defs><path class="d" d="M17.15,10.82h13.7c1.1123,0,2.1797.4391,2.9699,1.2218.7903.7828,1.2396,1.8459,1.2501,2.9582v26.39c0,.5528-.2167,1.0835-.6038,1.478-.3871.3946-.9136.6215-1.4662.632H15c-.5596,0-1.0963-.2223-1.492-.618-.3957-.3957-.618-.9324-.618-1.492V15c.0052-.5542.1196-1.1019.3365-1.6119.2169-.51.5322-.9723.9277-1.3604.3956-.3882.8638-.6946,1.3778-.9018s1.0638-.3112,1.618-.3059Z"/><path class="d" d="M28.22,4.5h-8.44l-1.05,6.32h10.54l-1.05-6.32Z"/><path class="d" d="M24,9.16c.8284,0,1.5-.6716,1.5-1.5s-.6716-1.5-1.5-1.5-1.5.6716-1.5,1.5.6716,1.5,1.5,1.5Z"/><path class="d" d="M12.93,18.2h22.14"/><path class="d" d="M12.93,38.23h22.14"/><path class="d" d="M19.4506,25.8972c0-2.8076,2.5434-5.0213,5.4523-4.4624,1.9077.3667,3.4315,2.0166,3.6213,3.9501.1413,1.4382-.3139,2.8573-1.3075,3.7293-1.8404,1.615-7.7661,5.9676-7.7661,5.9676h9.0988"/></svg>