<svg xmlns="http://www.w3.org/2000/svg" viewBox="0 0 48 48"><defs><style>.a{fill:none;stroke:#fff;stroke-linecap:round;stroke-linejoin:round;}</style></defs><path class="a" d="M32,41.56c-2.11-3.6-2.38-5.15-2.38-6.82s5.26-6.43,5.26-11a10.94,10.94,0,0,0-11.1-10.48c-7.13,0-10,5.16-10,8.93s-1.94,5-1.94,5.82,1.71,1.44,1.71,1.44a10,10,0,0,0,.23,2.88c.31.92-.95,3.55,2.66,3.55,1,0,1-.56,2.21-.56s2.17,2.11,2.17,4A14.22,14.22,0,0,1,20,43.5"/><path class="a" d="M18.14,22.25c2.66,2.81,7,7.5,6.58,15.63"/><path class="a" d="M27.57,40.06c-1.26-2.69-2.11-9.12,1.14-16.44"/><path class="a" d="M20.4,21.64c.92,0,.92.79,1.85.79s.93-.79,1.86-.79.93.79,1.85.79.93-.79,1.86-.79"/><line class="a" x1="24" y1="10.04" x2="24" y2="4.5"/><line class="a" x1="31.48" y1="11.92" x2="35.39" y2="8.01"/><line class="a" x1="36.71" y1="17.45" x2="42.25" y2="17.45"/><line class="a" x1="16.52" y1="11.92" x2="12.61" y2="8.01"/><line class="a" x1="11.29" y1="17.45" x2="5.75" y2="17.45"/></svg>