<?xml version="1.0" encoding="UTF-8"?><svg id="a" xmlns="http://www.w3.org/2000/svg" viewBox="0 0 48 48"><defs><style>.ag{fill:none;stroke:#fff;stroke-linecap:round;stroke-linejoin:round;}</style></defs><g id="e"><path id="f" class="ag" d="M9.50014162,5.5h29c2.2159996,0,4,1.78399992,4,4v29c0,2.2159996-1.7840004,4-4,4H9.50014162c-2.21600008,0-4-1.7840004-4-4V9.5c0-2.21600008,1.78399992-4,4-4Z"/><g id="g"><path id="h" class="ag" d="M17.69684649,12.78648472v24.95191479"/><path id="i" class="ag" d="M25.02316523,11.83779621v26.70978069"/><path id="j" class="ag" d="M11.40479898,19.10160637v12.95617867"/><path id="k" class="ag" d="M33.2460103,17.49741745v15.80754471"/></g><g id="l"><path id="m" class="ag" d="M5.65705442,8.69022083l16.93737888-3.1895113"/><path id="n" class="ag" d="M5.50042248,14.36635971l36.99964666-4.79168987"/><path id="o" class="ag" d="M25.02394152,18.10143089l17.47652817-1.28379059"/><path id="p" class="ag" d="M17.69769907,18.63960075l7.32624245-.53816986"/><path id="q" class="ag" d="M5.50038052,19.53559113l12.19731855-.89599037"/></g><g id="r"><path id="s" class="ag" d="M35.35615587,40.77668381l-4.9702034-.46249008v-4.54462433l1.73713684-.39442062"/><path id="t" class="ag" d="M32.12226915,36.00660324l1.40771484.11205673,1.8632164-.23122787v-1.96733856l-1.40771484-.11205673-1.8632164.23122787v1.96733856Z"/><path id="u" class="ag" d="M36.65427065,38.83942413l-1.29867172.38929749v2.2408638h0l2.59960175.37445831,3.14067841-.9414711v-2.2408638l-.89833832-.12939835"/><path id="v" class="ag" d="M36.12554598,35.86421585l2.55911255-.08626938,1.51226807.50569916v2.79793549l-2.55911255.08626938-1.51226807-.50569916v-2.79793549Z"/></g><g id="w"><path id="x" class="ag" d="M5.50034952,36.39238739l24.88624191,2.7466507"/><path id="y" class="ag" d="M25.02359438,32.83573532l17.47634888.99643326"/><path id="z" class="ag" d="M5.50036526,31.72260094l12.197124.69542885"/><path id="aa" class="ag" d="M35.39281893,35.31167603l7.10759735.50070953"/><path id="ab" class="ag" d="M25.02335024,34.58118057l7.099823.50016022"/><path id="ac" class="ag" d="M5.49946165,33.20578384l12.19757175.85928345"/><path id="ad" class="ag" d="M40.19773531,37.8569603l2.30280304.20022583"/><path id="ae" class="ag" d="M25.0240674,36.53762054l5.3632946.4663353"/><path id="af" class="ag" d="M5.5005827,34.84006882l12.19714117,1.06053162"/></g></g></svg>