<svg xmlns="http://www.w3.org/2000/svg" viewBox="0 0 48 48"><defs><style>.a{fill:none;stroke:#fff;stroke-linecap:round;stroke-linejoin:round;}</style></defs><line class="a" x1="38.8357" y1="40.73" x2="38.8357" y2="33.575"/><path class="a" d="M38.8357,45.5c7.065-2.715,6.66-8.154,6.66-11.4V31.64a25.2144,25.2144,0,0,0-6.66-1.14,25.2144,25.2144,0,0,0-6.66,1.14V34.1C32.1757,37.346,31.7707,42.785,38.8357,45.5Z"/><line class="a" x1="35.2582" y1="37.1525" x2="42.4132" y2="37.1525"/><path class="a" d="M34.54,42.7435a21.5027,21.5027,0,1,1,10.9586-18.97"/><path class="a" d="M45.5,23.9456a21.46,21.46,0,0,1-1.2654,7.3388"/><path class="a" d="M21.8191,9.7723a9.5544,9.5544,0,0,0-9.5542,9.5544c0,7.4771,7.3137,16.49,9.2073,18.6986a.5772.5772,0,0,0,.8138.064.5681.5681,0,0,0,.0677-.0684c1.8615-2.2158,9.02-11.222,9.02-18.6942A9.5543,9.5543,0,0,0,21.82,9.7723Zm0,13.1251A3.5708,3.5708,0,1,1,25.39,19.3266v0A3.5708,3.5708,0,0,1,21.8191,22.8974Z"/></svg>