<svg xmlns="http://www.w3.org/2000/svg" viewBox="0 0 48 48"><defs><style>.a{fill:none;stroke:#fff;stroke-linecap:round;stroke-linejoin:round;}</style></defs><line class="a" x1="23.9389" y1="21.9076" x2="23.9389" y2="14.7526"/><line class="a" x1="20.3539" y1="18.3376" x2="27.5239" y2="18.3376"/><path class="a" d="M24.0139,26.6776c7.065-2.715,6.705-8.13,6.66-11.4v-2.46a25.2144,25.2144,0,0,0-6.66-1.14,25.2144,25.2144,0,0,0-6.66,1.14v2.46C17.2339,18.5476,16.8739,23.9626,24.0139,26.6776Z"/><path class="a" d="M24,4.5A13.09,13.09,0,0,0,10.91,17.59h0c0,10.25,10,22.61,12.61,25.63a.8.8,0,0,0,1.21,0c2.55-3,12.36-15.38,12.36-25.63A13.09,13.09,0,0,0,24,4.5Z"/></svg>