<?xml version="1.0" encoding="UTF-8"?><svg id="b" xmlns="http://www.w3.org/2000/svg" viewBox="0 0 48 48"><defs><style>.d{fill:none;stroke:#fff;stroke-linecap:round;stroke-linejoin:round;}</style></defs><line class="d" x1="19.4677" y1="27.8196" x2="22.8304" y2="27.8196"/><path class="d" d="M16.507,21.6059c-3.1434,0-6.433,2.3758-6.433,8.0778,0,6.6158,5.6654,13.8163,14.328,13.8163s13.5239-6.5792,13.5239-13.4873-4.3861-10.1246-6.9082-12.3543-5.1172-5.7751-5.1172-8.8088.731-4.3496.731-4.3496c-4.6785,3.8013-6.3964,6.7985-6.3964,10.746,0,6.7619,7.0909,9.284,7.0909,13.0487,0,3.4358-2.7779,4.6785-5.5923,4.6785s-5.9578-1.9007-5.9578-5.3365c0-1.8276,1.06-2.6134,2.6134-2.6134,1.1148,0,1.8458.8224,2.7596,2.7962,1.1331-2.3027,0-6.2137-4.642-6.2137Z"/><path class="d" d="M25.115,24.3303c3.2346,1.9907,3.7098,3.7452,3.0884,6.7058,3.2896-2.7779,1.2062-7.6026,1.2062-7.6026,4.313,2.2662,2.7413,7.2371,2.7413,7.2371,3.0337-2.0469,1.9738-5.6289,1.9738-5.6289,3.1434,4.4958-.7676,11.9157-.7676,11.9157,3.4358-2.8875,4.564-7.3134,4.564-7.3134"/></svg>