<?xml version="1.0" encoding="UTF-8"?><svg id="b" xmlns="http://www.w3.org/2000/svg" viewBox="0 0 48 48"><defs><style>.c{fill:none;stroke:#fff;stroke-linecap:round;stroke-linejoin:round;}</style></defs><circle class="c" cx="31.8361" cy="31.3469" r="3.1422"/><circle class="c" cx="25.5517" cy="31.3469" r="3.1422"/><circle class="c" cx="19.2674" cy="31.3469" r="3.1422"/><circle class="c" cx="12.983" cy="31.3469" r="3.1422"/><circle class="c" cx="37.0581" cy="30.2845" r="2.0798"/><circle class="c" cx="7.761" cy="30.2845" r="2.0798"/><polyline class="c" points="28.2383 17.4027 36.8046 15.4444 36.8135 15.4444 37.1444 16.9109 29.2129 18.7261"/><rect class="c" x="41.5874" y="14.1755" width="1.7675" height="1.5042" transform="translate(87.1984 20.0361) rotate(167.1504)"/><rect class="c" x="36.9178" y="13.9978" width="4.7512" height="3.3093" transform="translate(81.0838 22.1744) rotate(167.1504)"/><path class="c" d="M39.1379,30.2845l.7034-.5559c.5482-.4332.638-1.2302.2-1.7745l-1.8277-2.2713c-.7907-.9826-1.984-1.5541-3.2453-1.5541H9.8508c-1.2613,0-2.4546.5715-3.2453,1.5541l-1.8277,2.2713c-.438.5443-.3482,1.3414.2,1.7745l.7034.5559"/><path class="c" d="M8.7932,24.2677l2.784-2.4054c.4136-.3574.942-.554,1.4886-.554h18.6876c.5466,0,1.075.1966,1.4886.554l2.784,2.4054"/><path class="c" d="M13.685,21.3083l3.6049-4.8502c.3346-.4501.8624-.7155,1.4232-.7155h7.393c.5609,0,1.0886.2653,1.4232.7155l3.6049,4.8502"/><path class="c" d="M19.5139,15.7426l.5603-1.4007c.1613-.4032.5518-.6676.9861-.6676h2.6986c.4343,0,.8248.2644.9861.6676l.5603,1.4007"/><line class="c" x1="31.8361" y1="34.4891" x2="12.983" y2="34.4891"/><line class="c" x1="6.829" y1="32.1436" x2="11.4644" y2="34.0972"/><line class="c" x1="37.96" y1="32.1577" x2="33.3027" y2="34.1248"/></svg>