<?xml version="1.0" encoding="UTF-8"?><svg id="a" xmlns="http://www.w3.org/2000/svg" viewBox="0 0 48 48"><defs><style>.b{fill:none;stroke:#fff;stroke-linecap:round;stroke-linejoin:round;}</style></defs><path class="b" d="M5.5,24.9737v13.5263c0,2.2091,1.7909,4,4,4h29c2.2091,0,4-1.7909,4-4v-15.2595c-.5169.4646-1.1947.755-1.9474.755-1.6183,0-2.9211-1.3028-2.9211-2.9211v-5.3553c0-1.6183-1.3028-2.9211-2.9211-2.9211s-2.9211,1.3028-2.9211,2.9211v1.4605c0,1.6183-1.3028,2.9211-2.9211,2.9211s-2.9211-1.3028-2.9211-2.9211v-1.4605c0-1.6183-1.3028-2.9211-2.9211-2.9211s-2.9211,1.3028-2.9211,2.9211v9.25c0,1.6183-1.3028,2.9211-2.9211,2.9211s-2.9211-1.3028-2.9211-2.9211v-9.25c0-1.6183-1.3028-2.9211-2.9211-2.9211v.0045c-1.6183,0-2.9211,1.3028-2.9211,2.9211v6.3289c0,1.6183-1.3028,2.9211-2.9211,2.9211ZM42.5,9.5c0-2.2091-1.7909-4-4-4H9.5c-2.2091,0-4,1.7909-4,4h37Z"/></svg>