<svg xmlns="http://www.w3.org/2000/svg" viewBox="0 0 48 48"><defs><style>.a{fill:none;stroke:#fff;stroke-linecap:round;stroke-linejoin:round;}</style></defs><rect class="a" x="5.5" y="22.2793" width="5.6055" height="3.4414" rx="0.7814"/><path class="a" d="M18.2832,27.9114l-4.5165-7.8228H22.8Z"/><path class="a" d="M27.1564,19.9636,22.64,27.7864h9.033Z"/><path class="a" d="M7.5,5.5a2,2,0,0,0-2,2v9.2949H33.002a1.3931,1.3931,0,0,1,1.3964,1.3965V29.8086a1.3931,1.3931,0,0,1-1.3964,1.3965H5.5V40.5a2,2,0,0,0,2,2h33a2,2,0,0,0,2-2V7.5a2,2,0,0,0-2-2Z"/></svg>