<?xml version="1.0" encoding="UTF-8"?><svg id="b" xmlns="http://www.w3.org/2000/svg" viewBox="0 0 48 48"><defs><style>.c{fill:none;stroke:#fff;stroke-linecap:round;stroke-linejoin:round;}</style></defs><path class="c" d="M21.381,25.7983v-8h2.619c1.4807,0,2.681,1.2029,2.681,2.6867s-1.2003,2.6867-2.681,2.6867h-2.619"/><line class="c" x1="24" y1="23.1718" x2="26.6188" y2="25.7963"/><path class="c" d="M16.9847,21.7983c1.1046,0,2,.8954,2,2s-.8954,2-2,2h-3.3v-8h3.3c1.1046,0,2,.8954,2,2s-.8954,2-2,2h0Z"/><line class="c" x1="16.9847" y1="21.7983" x2="13.6847" y2="21.7983"/><path class="c" d="M32.3153,21.7983c1.1046,0,2,.8954,2,2s-.8954,2-2,2h-3.3v-8h3.3c1.1046,0,2,.8954,2,2s-.8954,2-2,2h0Z"/><line class="c" x1="32.3153" y1="21.7983" x2="29.0153" y2="21.7983"/><line class="c" x1="13.6847" y1="30.2017" x2="34.3153" y2="30.2017"/><path class="c" d="M38.5,5.5H9.5c-2.2091,0-4,1.7909-4,4v29c0,2.2091,1.7909,4,4,4h29c2.2091,0,4-1.7909,4-4V9.5c0-2.2091-1.7909-4-4-4Z"/></svg>