<?xml version="1.0" encoding="UTF-8"?><svg id="a" xmlns="http://www.w3.org/2000/svg" viewBox="0 0 48 48"><defs><style>.c{fill:none;stroke:#fff;stroke-linecap:round;stroke-linejoin:round;}</style></defs><path class="c" d="M38.5,42.5H9.5c-2.2,0-4-1.8-4-4V9.5c0-2.2,1.8-4,4-4h29c2.2,0,4,1.8,4,4v29c0,2.2-1.8,4-4,4Z"/><line class="c" x1="19.717" y1="18.15" x2="19.717" y2="28.15"/><line class="c" x1="23.283" y1="28.15" x2="28.283" y2="28.15"/><line class="c" x1="23.283" y1="18.15" x2="28.283" y2="18.15"/><line class="c" x1="23.283" y1="23.15" x2="26.5429" y2="23.15"/><line class="c" x1="23.283" y1="18.15" x2="23.283" y2="28.15"/><path class="c" d="M31.8489,28.15v-10h3.2738c1.8508,0,3.3512,1.5036,3.3512,3.3584s-1.5004,3.3584-3.3512,3.3584h-3.2738"/><line class="c" x1="35.1227" y1="24.8668" x2="38.3962" y2="28.1475"/><line class="c" x1="9.5261" y1="18.15" x2="16.1511" y2="18.15"/><line class="c" x1="12.8386" y1="28.15" x2="12.8386" y2="18.15"/></svg>