<?xml version="1.0" encoding="UTF-8"?><svg id="a" xmlns="http://www.w3.org/2000/svg" viewBox="0 0 48 48"><defs><style>.b{fill:#fff;stroke-width:0px;}.c{fill:none;stroke:#fff;stroke-linecap:round;stroke-linejoin:round;stroke-width:1px;}</style></defs><path class="c" d="m22.3762,27.5116c.5221,1.5191,1.0442,3.0384,1.5664,4.5576"/><path class="c" d="m20.6988,32.0702c.3586,3.8096.7172,7.6192,1.0759,11.4287h4.3347c.3586-3.8096.7172-7.6192,1.0759-11.4287"/><line class="c" x1="20.1464" y1="32.0702" x2="27.7396" y2="32.0702"/><path class="c" d="m23.9146,15.2193c1.4686-1.77,3.0642-3.7063,3.5031-6.0095.4374-2.2952-1.1204-4.7087-3.5031-4.7087s-3.9406,2.4135-3.5031,4.7087c.439,2.3032,2.0345,4.2396,3.5031,6.0095Z"/><path class="c" d="m27.0009,36.3055c2.7773-1.1476,4.706-4.0501,4.665-7.0584-5.111-.0078-10.2221.009-15.3333.0503-.0156,3.0188,1.9187,5.8883,4.7112,7.0275"/><path class="c" d="m16.0772,24.6059c2.5981.0037,5.1964-.0075,7.7946,0,.855,1.4764,2.9897,2.1534,4.3818.9981.9248-1.2651,1.931-1.063,3.4127-.9981"/><path class="c" d="m25.757,13.1181c3.722,1.0093,5.9562,4.3125,5.908,7.5752-5.111.0078-10.2221-.009-15.3333-.0503-.0192-3.2762,2.2547-6.5156,5.9241-7.5249"/><path class="c" d="m12.8138,11.1903c2.6088-.3806,5.2174-.7611,7.8262-1.1417"/><path class="c" d="m27.4468,9.0657c2.5798-.3707,5.1596-.7414,7.7393-1.1121"/><circle class="b" cx="25.6198" cy="18.4794" r=".75"/><circle class="b" cx="27.4956" cy="16.6035" r=".75"/><circle class="b" cx="27.8117" cy="18.7999" r=".75"/><circle class="c" cx="23.8898" cy="8.1108" r="1.4531"/></svg>