<?xml version="1.0" encoding="UTF-8"?><svg id="a" xmlns="http://www.w3.org/2000/svg" viewBox="0 0 48 48"><defs><style>.b{fill:none;stroke:#fff;stroke-linecap:round;stroke-linejoin:round;}</style></defs><g><path class="b" d="m33.4309,43.3266c-2.8474,1.3921-6.0479,2.1734-9.4309,2.1734-11.8741,0-21.5-9.6259-21.5-21.5S12.1259,2.5,24,2.5s21.5,9.6259,21.5,21.5c0,3.3832-.7814,6.5839-2.1736,9.4314"/><circle class="b" cx="38.5" cy="38.5" r="7"/><g><line class="b" x1="36.6536" y1="34.4921" x2="36.6536" y2="42.5079"/><polyline class="b" points="40.3464 42.5079 40.3464 40.4552 38.2728 38.5 40.3464 36.5448 40.3464 34.4921"/></g></g><path class="b" d="m26.1235,29.1265c1.312,1.312,3.1245,2.1235,5.1265,2.1235,4.0041,0,7.25-3.2459,7.25-7.25s-3.2459-7.25-7.25-7.25c-3.5036,0-6.4267,2.4852-7.1027,5.7889l-.2946,2.9222c-.676,3.3037-3.5991,5.7889-7.1027,5.7889-4.0041,0-7.25-3.2459-7.25-7.25s3.2459-7.25,7.25-7.25c2.002,0,3.8145.8115,5.1265,2.1235"/></svg>