<?xml version="1.0" encoding="UTF-8"?><svg id="b" xmlns="http://www.w3.org/2000/svg" viewBox="0 0 48 48"><defs><style>.d{fill:none;stroke:#fff;stroke-linecap:round;stroke-linejoin:round;}</style></defs><path class="d" d="M34.8742,19.671h1.5648"/><path class="d" d="M37.2743,22.071h-2.4v-4.8h2.4"/><path class="d" d="M34.8742,28.3291h1.5648"/><path class="d" d="M37.2743,30.7291h-2.4v-4.8h2.4"/><path class="d" d="M15.5257,25.929l-1.2,4.8-1.2-4.8-1.2,4.8-1.2-4.8"/><path class="d" d="M11.5357,17.2709h3.18"/><path class="d" d="M13.1258,22.071v-4.8"/><path class="d" d="M20.8816,17.2709v4.8"/><path class="d" d="M20.8816,25.929v4.8"/><path class="d" d="M25.9082,22.0656v-4.7947l2.4,4.8,2.4-4.7927v4.7927"/><path class="d" d="M26.8133,30.203c.2943.3832.6634.526,1.1769.526h.7106c.6613,0,1.1974-.5361,1.1974-1.1975v-.0051c0-.6613-.5361-1.1974-1.1974-1.1974h-.7839c-.662,0-1.1987-.5367-1.1987-1.1988,0-.6634.5379-1.2012,1.2013-1.2012h.7068c.5134,0,.8825.1427,1.1769.5259"/></svg>