<svg xmlns="http://www.w3.org/2000/svg" viewBox="0 0 48 48"><defs><style>.a{fill:none;stroke:#fff;stroke-linecap:round;stroke-linejoin:round;}</style></defs><path class="a" d="M40.5,42.5H7.5a2.0059,2.0059,0,0,1-2-2V7.5a2.0059,2.0059,0,0,1,2-2h33a2.0059,2.0059,0,0,1,2,2v33A2.0059,2.0059,0,0,1,40.5,42.5Z"/><line class="a" x1="10.5" y1="15.6028" x2="21.6263" y2="15.6028"/><line class="a" x1="16.0631" y1="32.3972" x2="16.0631" y2="15.6028"/><line class="a" x1="13.8589" y1="32.3972" x2="18.2674" y2="32.3972"/><line class="a" x1="10.5" y1="17.8071" x2="10.5" y2="15.6028"/><line class="a" x1="21.6263" y1="17.8071" x2="21.6263" y2="15.6028"/><path class="a" d="M33.3014,24a4.1986,4.1986,0,0,1,0,8.3972H26.3737V15.6028h6.9277a4.1986,4.1986,0,0,1,0,8.3972Z"/><line class="a" x1="33.3014" y1="24" x2="26.3737" y2="24"/><line class="a" x1="24.1695" y1="15.6028" x2="26.3737" y2="15.6028"/><line class="a" x1="24.1695" y1="32.3972" x2="26.3737" y2="32.3972"/></svg>