<?xml version="1.0" encoding="UTF-8"?><svg id="a" xmlns="http://www.w3.org/2000/svg" viewBox="0 0 48 48"><defs><style>.ad{fill:none;stroke:#fff;stroke-linecap:round;stroke-linejoin:round;}.ae{fill:#fff;stroke-width:0px;}</style></defs><path id="b" class="ad" d="M19.6425,24.7168c-1.5418,9.2455,1.3708,12.6899,6.1476,17.7832"/><path id="c" class="ad" d="M17.943,23.0345h-5.9741"/><path id="d" class="ad" d="M11.9491,23.0868l-5.1126,2.8526"/><path id="e" class="ad" d="M11.8804,22.9495l-5.0267-3.0013"/><path id="f" class="ad" d="M18.6047,21.4873l-4.2243-4.2243"/><path id="g" class="ad" d="M14.3293,17.2859l-5.6322-1.598"/><path id="h" class="ad" d="M14.3779,17.1403l-1.4322-5.6767"/><path id="i" class="ad" d="M20.1666,20.8611v-5.9741"/><path id="j" class="ad" d="M20.1142,14.8672l-2.8526-5.1126"/><path id="k" class="ad" d="M20.2515,14.7985l3.0013-5.0267"/><path id="l" class="ad" d="M22.3399,23.0846h5.9741"/><path id="m" class="ad" d="M28.3338,23.0323l5.1126-2.8526"/><path id="n" class="ad" d="M28.4025,23.1696l5.0267,3.0013"/><path id="o" class="ad" d="M21.6783,24.6318l4.2243,4.2243"/><path id="p" class="ad" d="M25.9536,28.8332l5.6322,1.598"/><path id="q" class="ad" d="M25.9051,28.9788l1.4322,5.6767"/><path id="r" class="ad" d="M27.6945,15.4076l4.2243-4.2243"/><path id="s" class="ad" d="M31.8959,11.1322l1.598-5.6322"/><path id="t" class="ad" d="M32.0415,11.1808l5.6767-1.4322"/><circle id="u" class="ae" cx="40.3395" cy="12.2723" r=".75"/><circle id="v" class="ae" cx="34.9491" cy="8.1351" r=".75"/><circle id="w" class="ae" cx="26.9381" cy="11.5683" r=".75"/><circle id="x" class="ae" cx="20.1666" cy="10.5953" r=".75"/><circle id="y" class="ae" cx="11.3335" cy="14.2404" r=".75"/><circle id="z" class="ae" cx="7.6772" cy="23.0516" r=".75"/><circle id="aa" class="ae" cx="20.1404" cy="23.0516" r=".75"/><circle id="ab" class="ae" cx="28.9495" cy="31.8787" r=".75"/><circle id="ac" class="ae" cx="32.6058" cy="23.0846" r=".75"/></svg>