<?xml version="1.0" encoding="UTF-8"?><svg id="a" xmlns="http://www.w3.org/2000/svg" viewBox="0 0 48 48"><defs><style>.l{fill:none;stroke:#fff;stroke-linecap:round;stroke-linejoin:round;}</style></defs><g id="b"><path id="c" class="l" d="M7.5843,37.8111c1.6215-2.9569,2.6971-3.4941,2.6971-3.4941m19.2347,.022c-.9187,1.1702-.7809,3.9153,.3366,5.8289,.6037,1.0338,1.1897,2.6506,1.6009,3.9188"/><path id="d" class="l" d="M24.2955,26.6263s-2.1482-2.0537-.8203-3.4125c1.5933-1.6303,3.0671,.9053,3.4405,1.5861"/><path id="e" class="l" d="M18.6318,30.5066s2.2466,5.3917,.1495,6.3242-2.7541-2.1322-2.7541-2.1322c.0245,.7634-.3847,2.1765-1.4837,2.0983-1.347-.0959-1.5635-2.119-1.558-3.1561-2.5268,4.9516-4.085-2.071-2.1825-7.3266,.7812-2.9899,2.2115-5.0654,2.2115-5.0654,0,0-1.7035-2.3122-.7551-3.1092s1.2011,.4002,1.2011,.4002c0,0,.0725-2.8024,1.2125-2.8619,1.14-.0595,.8573,1.3455,.8573,1.3455,0,0,.6821-1.104,1.4772-.8044,.7951,.2996,.3003,1.5382,.3003,1.5382,0,0,3.8825-1.7923,7.8256,.1302,3.9431,1.9225,3.1933,6.5354,5.1044,5.8027,1.9111-.7327-.3234-3.1261-1.0426-3.9138-.7192-.7877-1.8263-3.2931,.146-5.1799l.9355,1.6943,1.4981-.3068s-1.4056,2.4392,1.0082,3.4319,4.2042,4.1325,3.9588,7.2702c-.1087,1.3907-1.346,2.8021-2.7699,4.0445"/><path id="f" class="l" d="M33.7763,27.5325s-1.3092,3.2877-5.3461,3.1606c-1.5958-.0502-2.7641,.906-2.5674,2.2802,.214,1.4953,1.8272,1.7115,3.5741,1.3602,4.1221-.829,5.0853-3.7773,4.3394-6.8011Z"/><path id="g" class="l" d="M22.0625,42.2321s1.2232,1.6202,1.403,3.1867m-4.8684-.5996c-.3467-1.3043-.7595-2.5667-1.8802-2.8904-1.1438-.3303-2.1939,.1823-3.0317,.8965"/><path id="h" class="l" d="M28.7769,12.2748l-2.6023-2.7966,2.3147-.9934,.2876,3.79Z"/><path id="i" class="l" d="M31.882,12.3727l.1072-3.8186,2.3465,.9158-2.4537,2.9027Z"/><path id="j" class="l" d="M34.3464,14.2803l2.6838-2.7185,1.0906,2.2705-3.7744,.448Z"/><circle id="k" class="l" cx="24" cy="24" r="21.5"/></g></svg>