<?xml version="1.0" encoding="UTF-8"?><svg id="b" xmlns="http://www.w3.org/2000/svg" viewBox="0 0 48 48"><defs><style>.e{stroke-miterlimit:11.3386;}.e,.f{fill:none;stroke:#fff;stroke-linecap:round;}.f{stroke-linejoin:round;}</style></defs><path class="e" d="M10.6224,9.5012v8.484c0,2.3209,1.8815,4.2025,4.2025,4.2025s4.2025-1.8815,4.2025-4.2025v-8.484"/><path class="e" d="M31.2608,17.9324v.052c0,2.3209-1.8815,4.2025-4.2025,4.2025s-4.2025-1.8815-4.2025-4.2025v-4.2818c0-2.3209,1.8815-4.2025,4.2025-4.2025h0c2.3209,0,4.2025,1.8815,4.2025,4.2025v.052"/><path class="e" d="M25.1442,30.0152c0-2.3209-1.8815-4.2025-4.2025-4.2025s-4.2025,1.8815-4.2025,4.2025v4.2818c0,2.3209,1.8815,4.2025,4.2025,4.2025s4.2025-1.8815,4.2025-4.2025h-4.2025"/><path class="e" d="M33.1751,38.5c-2.3209,0-4.2025-1.8815-4.2025-4.2025v-4.2818c0-2.3209,1.8815-4.2025,4.2025-4.2025s4.2025,1.8815,4.2025,4.2025v4.2818c0,2.3209-1.8815,4.2025-4.2025,4.2025Z"/><g id="c"><path id="d" class="f" d="M38.5,5.5H9.5c-2.2091,0-4,1.7909-4,4v29c0,2.2091,1.7909,4,4,4h29c2.2091,0,4-1.7909,4-4V9.5c0-2.2091-1.7909-4-4-4Z"/></g></svg>