<?xml version="1.0" encoding="UTF-8"?><svg id="d" xmlns="http://www.w3.org/2000/svg" viewBox="0 0 48 48"><defs><style>.e{fill:none;stroke:#fff;stroke-linecap:round;stroke-linejoin:round;}</style></defs><path class="e" d="M15.1406,23.95c0,2.4098-1.9499,4.3597-4.3597,4.3597s-4.3597-1.9499-4.3597-4.3597,1.9499-4.3597,4.3597-4.3597,4.3597,1.9499,4.3597,4.3597Z"/><path class="e" d="M24.37,6.7812c-1.7599-1.7599-4.6497-1.7099-6.3296.17-1.5799,1.7499-1.3399,4.4997.33,6.1796l10.8693,10.8693-10.8693,10.8693c-1.6699,1.6699-1.9199,4.4197-.33,6.1796,1.6899,1.8799,4.5797,1.9299,6.3296.17l17.2088-17.2088L24.37,6.7812Z"/><polyline class="e" points="35.4092 30.1596 29.2396 23.99 35.4092 17.8204"/></svg>