<svg xmlns="http://www.w3.org/2000/svg" viewBox="0 0 48 48"><defs><style>.a{fill:none;stroke:#fff;stroke-linecap:round;stroke-linejoin:round;}</style></defs><path class="a" d="M40.5,5.5H7.5a2,2,0,0,0-2,2v33a2,2,0,0,0,2,2h33a2,2,0,0,0,2-2V7.5A2,2,0,0,0,40.5,5.5Z"/><path class="a" d="M34.5134,23.575a4.5,4.5,0,0,0-4.5-4.5h0a4.5,4.5,0,0,0-4.5,4.5V26.5a4.5,4.5,0,0,0,4.5,4.5h0a4.5,4.5,0,0,0,4.5-4.5"/><path class="a" d="M36.3134,31a1.8,1.8,0,0,1-1.8-1.8V13"/><path class="a" d="M22.0412,26.5a4.5,4.5,0,0,1-4.5,4.5h0a4.5,4.5,0,0,1-4.5-4.5V19.075"/><path class="a" d="M23.8412,31a1.8,1.8,0,0,1-1.8-1.8V19.075"/><line class="a" x1="13.0412" y1="19.075" x2="11.6866" y2="19.075"/><line class="a" x1="22.0412" y1="19.075" x2="20.6866" y2="19.075"/><line class="a" x1="34.5134" y1="13" x2="33.1588" y2="13"/></svg>