<svg xmlns="http://www.w3.org/2000/svg" viewBox="0 0 48 48"><defs><style>.a{fill:none;stroke:#fff;stroke-linecap:round;stroke-linejoin:round;}</style></defs><rect class="a" x="12.09" y="12.09" width="23.81" height="23.81"/><rect class="a" x="17.06" y="17.06" width="13.88" height="13.88"/><line class="a" x1="24" y1="17.06" x2="24" y2="12.09"/><line class="a" x1="30.94" y1="24" x2="35.91" y2="24"/><line class="a" x1="24" y1="30.94" x2="24" y2="35.91"/><line class="a" x1="17.06" y1="24" x2="12.09" y2="24"/><path class="a" d="M22.84,35.91V42.5H7.5a2,2,0,0,1-2-2V25.16h6.59"/><path class="a" d="M12.09,22.84H5.5V7.5a2,2,0,0,1,2-2H22.84v6.59"/><path class="a" d="M25.16,12.09V5.5H40.5a2,2,0,0,1,2,2V22.84H35.91"/><path class="a" d="M35.91,25.16H42.5V40.5a2,2,0,0,1-2,2H25.16V35.91"/><rect class="a" x="21.5" y="21.5" width="5" height="5"/></svg>