<?xml version="1.0" encoding="UTF-8"?><svg id="a" xmlns="http://www.w3.org/2000/svg" viewBox="0 0 48 48"><defs><style>.q{fill:none;stroke:#fff;stroke-linecap:round;stroke-linejoin:round;stroke-width:1px;}</style></defs><g id="b"><path id="c" class="q" d="m32.135,23.3981c0,7.0015-5.0735,12.6266-8.1086,12.6266-3.0773,0-9.066-5.6251-9.066-12.6266,0-.8294.0098-1.5889.1327-3.1452-.707-4.9166,3.7336-7.2744,8.9034-7.3271,5.0479.0515,8.5457,2.9789,8.0026,6.7384.1419,1.4563.1358,2.759.1358,3.734Z"/><path id="d" class="q" d="m24,24.3628c-2.5254.3385-3.689,2.56-3.0966,5.4374.5924,2.8774,4.5065,4.2738,5.9875.804,1.481-3.4698.0576-6.3539-2.8909-6.2414Z"/><path id="e" class="q" d="m18.9708,23.6646s.1269-1.883,1.1213-1.8407c.9944.0423.8886,1.9042.8886,1.9042"/><path id="f" class="q" d="m26.7669,23.6646s.1269-1.883,1.1213-1.8407c.9944.0423.8886,1.9042.8886,1.9042"/><path id="g" class="q" d="m19.8682,13.5254c.0504-2.6405.7203-7.8968-.2306-7.5445,0,0-4.5109.5136-4.6344,6.9867-.0487,2.5525-.017,4.2842.0392,5.4455"/><path id="h" class="q" d="m28.4801,13.7712c.1114-2.7062.0154-8.5835.8429-7.8493,0,0,5.2727,2.1782,2.5278,11.4023"/><path id="i" class="q" d="m23.1737,27.4524s.8378,1.0887,2.0047-.2244"/><path id="j" class="q" d="m24,27.9611v2.6704"/><path id="k" class="q" d="m21.3649,30.3996c2.6351.6882,5.68-.1821,5.68-.1821"/><path id="l" class="q" d="m19.8226,17.6832c-.1594,1.1928.9275,1.1071,1.3614.9874-.4613,1.366,1.1511,2.1899,1.8365.801.2216,1.5984,1.8342,1.1316,1.6963.1244"/><path id="m" class="q" d="m19.1633,37.3361c.0846,2.0523,2.0311,1.206,2.0311,1.206,0,0,.2962,2.2427,2.2427.9521"/><path id="n" class="q" d="m29.5,32c-.2682,2.7122.5421,8.6166,1.5625,12.291,8.6385-3.0044,14.4307-11.145,14.4375-20.291,0-11.8741-9.6259-21.5-21.5-21.5-11.8741,0-21.5,9.6259-21.5,21.5.0066,9.1523,5.8064,17.2971,14.4531,20.2969.5416-4.5958.4375-13.1855.4375-13.1855"/><path id="o" class="q" d="m26.097,37.4529c1.069.3381.9999-.8075.9999-.8075,0,0,1.2064.266.9094-.9621"/><path id="p" class="q" d="m25.5379,44.1362c.8934.6774,1.213-.4248,1.213-.4248,0,0,1.047.6557,1.1796-.6008"/></g></svg>