<?xml version="1.0" encoding="UTF-8"?><svg id="a" xmlns="http://www.w3.org/2000/svg" viewBox="0 0 48 48"><defs><style>.c{fill:none;stroke:#fff;stroke-linecap:round;stroke-linejoin:round;}</style></defs><path id="b" class="c" d="M24.24,31.819c-2,1.18-3.749-.426-3.582-2.652v-10.135c-.167-2.226,1.582-3.831,3.582-2.652l8.523,5.027c1.245.734,2.41,1.275,2.505,2.693.095,1.417-1.361,2.018-2.505,2.692l-8.523,5.027ZM20.186,42.5c-4.6839.0105-8.4895-3.778-8.5-8.462,0-.0127,0-.0254,0-.038V14c-.0111-4.6834,3.7766-8.4889,8.46-8.5.0133,0,.0267,0,.04,0M9.5,5.5h29c2.216,0,4,1.784,4,4v29c0,2.216-1.784,4-4,4H9.5c-2.216,0-4-1.784-4-4V9.5c0-2.216,1.784-4,4-4Z"/></svg>