<svg xmlns="http://www.w3.org/2000/svg" viewBox="0 0 48 48"><defs><style>.a{fill:none;stroke:#fff;stroke-linecap:round;stroke-linejoin:round;}</style></defs><circle class="a" cx="21.566" cy="21.566" r="15.6392"/><path class="a" d="M32.8067,32.8067,35.739,35.739"/><path class="a" d="M35.739,35.739a1.5553,1.5553,0,0,1,1.9549,0l4.8873,4.8873a1.3823,1.3823,0,1,1-1.9549,1.9549L35.739,37.6939A1.5553,1.5553,0,0,1,35.739,35.739Z"/><path class="a" d="M21.5693,12.28a9.2938,9.2938,0,0,0-8.141,13.7593L12.2838,30.85l4.8112-1.1444A9.2853,9.2853,0,1,0,21.5693,12.28Z"/><path class="a" d="M17.8561,21.755c.4193-.4289,1.9932-2.04,2.14-2.1819a.8482.8482,0,0,0,.1567-.8167,16.4756,16.4756,0,0,1-.3-1.7056.5461.5461,0,0,0-.6223-.4791H16.933a.4054.4054,0,0,0-.3666.3765,9.6034,9.6034,0,0,0,1.2456,4.7283l-.0006.0007.0107.0174.034.06.0018-.0019a9.5865,9.5865,0,0,0,3.5168,3.5089l-.0033.0032s.0418.0244.1176.0657l.0037.0023,0,0a9.5368,9.5368,0,0,0,4.6809,1.2223.4057.4057,0,0,0,.3762-.367v-2.299a.5464.5464,0,0,0-.4784-.6228,16.4436,16.4436,0,0,1-1.7041-.3.8458.8458,0,0,0-.8159.1569c-.1419.1472-1.75,1.7209-2.18,2.1421"/></svg>