<?xml version="1.0" encoding="UTF-8"?><svg id="a" xmlns="http://www.w3.org/2000/svg" viewBox="0 0 48 48"><defs><style>.b{fill:none;stroke:#fff;stroke-linecap:round;stroke-linejoin:round;}</style></defs><path class="b" d="M18.1638,21.6538c.6004-.6004,1.4299-.9718,2.3462-.9718,1.8325,0,3.318,1.4855,3.318,3.318h-6.636c0,1.8325,1.4855,3.318,3.318,3.318.9162,0,1.7457-.3714,2.3462-.9718"/><path class="b" d="M25.7087,27.318v-6.636h2.1725c1.2282,0,2.2238.9978,2.2238,2.2286s-.9956,2.2286-2.2238,2.2286h-2.1725"/><line class="b" x1="27.8811" y1="25.1393" x2="30.0534" y2="27.3163"/><polyline class="b" points="16.136 20.682 14.477 27.318 12.818 20.682 11.159 27.318 9.5 20.682"/><circle class="b" cx="35.182" cy="24" r="3.318"/><rect class="b" x="5.5" y="5.5" width="37" height="37" rx="4" ry="4"/></svg>