<?xml version="1.0" encoding="UTF-8"?><svg id="b" xmlns="http://www.w3.org/2000/svg" viewBox="0 0 48 48"><defs><style>.d{fill:none;stroke:#fff;stroke-linecap:round;stroke-linejoin:round;}</style></defs><path class="d" d="M24,33.417c5.944,5.3938,11.603,6.6917,18.5.3095-2.2548-2.5643-4.3769-3.8022-7.118-4.0232,5.8801-4.2885,5.5706-12.8655,5.5706-12.8655-5.9243-.0442-10.8318,3.8906-10.8318,3.8906,1.1495-6.2338-6.1208-14.0592-6.1208-14.0592,0,0-7.2703,7.8254-6.1208,14.0592,0,0-4.9075-3.9348-10.8318-3.8906,0,0-.3095,8.577,5.5706,12.8655-2.7411.2211-4.8633,1.459-7.118,4.0232,6.897,6.3822,12.556,5.0843,18.5-.3095Z"/><line class="d" x1="24" y1="33.417" x2="24" y2="41.3309"/></svg>