<svg id="Layer_2" data-name="Layer 2" xmlns="http://www.w3.org/2000/svg" viewBox="0 0 48 48"><defs><style>.cls-1{fill:none;stroke:#fff;stroke-linecap:round;stroke-linejoin:round;}</style></defs><path class="cls-1" d="M30.93,28.16c2.24,1.08,3.36,3.67,3.63,5.83a8.27,8.27,0,0,1-4.43,8.55,8.38,8.38,0,1,1-5.72-15.61,8.14,8.14,0,0,0,4.5-2.39,6.61,6.61,0,0,0,1.3-1.91,5.35,5.35,0,0,0,.37-1.94,4.54,4.54,0,0,0-.4-1.66,11.31,11.31,0,0,0-2.41-2.78L24,13.31c-.13-.11-.28-.1-.6-.07a7.7,7.7,0,0,1-1.79,0c.34-.25,1.27-.63,1.67-.93-1.21-.83-2.6-.53-3.88-.77A4.6,4.6,0,0,1,22,10a12.41,12.41,0,0,0-.23-1.38,1,1,0,0,0-.44-.48c-.44-.25-.91-.46-1.41-.72A2.84,2.84,0,0,1,21.45,7,5.57,5.57,0,0,1,23,7.11c2.34.55,2.15-.26,2.89-1.06A7.27,7.27,0,0,1,23,4.61a20.83,20.83,0,0,1,2.21-.11h0a8.06,8.06,0,0,1,3.46.76c.5.24,1,.44,1.5.72a3.07,3.07,0,0,1,.58.61,2.17,2.17,0,0,0,.46.49,4.49,4.49,0,0,0,2.29.37c0-.09,0-.17,0-.27.8.26,1.71,1.18,1.7,1.86H31.3c-.14,0,2.88,0,3.06,0-.16.26-.64,1.3-.85,1.53s-.57.49-1,.11c-.09-.09-.31-.07-.48-.07-.74,0-1.49,0-2.24,0a14,14,0,0,0-1.94.2c-.12,0-.29.42-.24.57.13.35.34.43.62.65,1,.82,2.14,1.56,3.18,2.37A8.07,8.07,0,0,1,34,17.23a7.48,7.48,0,0,1,.45,4.82,10.54,10.54,0,0,1-4.16,6.64,17,17,0,0,1-3.05,1.51c-.91.42-1.85.78-2.76,1.2a4.1,4.1,0,0,0-2.29,4.38,4.25,4.25,0,0,0,3.45,3.41,4.13,4.13,0,0,0,4.66-3.06,4.07,4.07,0,0,0-3.09-5.07L26,30.74m-1.33-3.86A5.41,5.41,0,0,0,26.2,24a3.56,3.56,0,0,0-.61-2.81,3.62,3.62,0,0,0-4.14-1.26,3.58,3.58,0,0,0-2.3,3.85c.14,1.66,1.85,3,4.21,3.46m-4.09,3.3c-6.3-2.87-5.81-10.79-.64-14a8.15,8.15,0,0,1,4-1.2h0c2.95-.1,6.91,1.45,8,5.31M17.5,34c-.85.15-1.64.26-2.42.46s-1.5.48-2.27.73a6,6,0,0,1,5.45-4.68h0c.16,0,.85,0,1,0"/><circle class="cls-1" cx="28.81" cy="7.51" r="0.75"/></svg>