<?xml version="1.0" encoding="UTF-8"?><svg id="b" xmlns="http://www.w3.org/2000/svg" viewBox="0 0 48 48"><defs><style>.c{fill:none;stroke:#fff;stroke-linecap:round;stroke-linejoin:round;}</style></defs><path class="c" d="M20.9025,22.659l-1.0151,1.5074c-.1474.5656.2827.761.7999,1.1051-.5268.6729-1.4017,1.9067-1.9022,2.546.7273-.341,6.5133-2.8145,4.3886-3.5801l-2.7332-.8469c1.4885-1.1036,4.5061-3.2528,6.0311-4.2859-1.6363.0332-3.8425-.4994-2.3593-1.7259,1.0517-.9489,2.156-1.8395,3.3664-2.8653-.9118-.4134-1.5441-.7226-2.377-1.0641.1386-.2118.2357-.4742.4225-.6272,1.6281-1.379,3.3203-2.4377,4.7314-4.0934-.7162-.1711-1.2813-.3062-1.8463-.4412-.0622-.1041-.1244-.2082-.1866-.3122,1.0893-1.1584,2.1786-2.3168,3.2679-3.4751.746,0,1.492,0,2.238,0,.0873,1.1763-.6503,2.7466,1.4222,2.9799.04.0045.0689.1073.1639.2661-.7693,1.2695-1.568,2.5876-2.4219,3.9968.5958.2931,1.0834.5329,1.6837.8281-.9341,1.1521-1.7919,2.21-2.692,3.3201.4585.3061.78.5554,1.1322.7487.7978.4378.982.9307.3018,1.6596-.5713.6122-1.069,1.2931-1.6812,2.044.6288.4702,1.1832.8848,1.8595,1.3905-1.0165,1.2947-2.0058,2.5548-2.9952,3.815.0685.1046.137.2093.2055.3139,1.3509.1103,2.0377-1.187,3.1407-1.6821-1.0522-1.0389-1.0462-1.139.0557-2.0705.4742-.4009.9499-.7998,1.512-1.2729-.5524-.2396-.9376-.4066-1.4749-.6396,1.0852-.9194,2.0703-1.7539,2.8506-2.4149-.172-.6509-.5153-1.2674-.3542-1.4582.7018-.8315,1.5503-1.5391,2.3183-2.2659,1.0367.8058-.1813,2.4005,1.4928,2.6903-.4821.8511-.9096,1.6059-1.357,2.3957.2915.2138.5445.3995.8399.6162-.5004.6385-.9516,1.2143-1.4745,1.8814,2.1837.9818.1319,1.7676-.0796,2.6594.3233.2808.6174.5363.9545.8292-.5829.7467-1.1153,1.4287-1.6722,2.1421.3591.1793.6219.3105.9159.4572-.1524.3676-.2841.685-.4515,1.0887.4373-.0288.7564-.0498.9241-.0609v9.1156c-.7903-.6212-1.3636-1.0719-1.8638-1.4651-.7935.7414-1.2254,1.8074-2.2292,2.0958.552-2.6515,1.0911-5.2411,1.6303-7.8306-.1082-.0366-.2165-.0731-.3247-.1097-1.0638.7141-2.8684,1.1077-3.2029,2.4822-.1365,3.0554-.8191,6.1341.2631,9.1571.0615.1718.008.3848.008.7799-.6416-.2686-1.2632-.385-1.6843-.7396-.6017-.5066-1.0567-1.1875-1.4948-1.7007-.8254,1.0303-2.658,2.1472-4.2748,2.9572,2.3098-3.5895,2.7616-5.2441,2.4254-8.2142-.7496.0611-2.531.1415-1.5702-.9816.77-.9078,2.7395-1.926,2.1122-3.5038-2.539,1.2959-4.9534,2.7621-7.505,4.0125-1.4647.6183-.8878,1.7014-.6775,2.8731-.0853.0724-.1706.1449-.2559.2173-.5729-.4317-1.1457-.8635-1.6623-1.2528-.7351.7344-1.4618,1.4606-2.1886,2.1867-.0989-.0697-.1979-.1394-.2968-.2091.1271-.4626.2543-.9252.4162-1.5142-.9961.166-4.177.9223-4.3739-.0962l-.7677-.0034c1.5594-1.7161,3.077-2.5067,4.9504-3.6424.9369-.5744,1.6288-1.2811,1.4171-2.6447-2.2139,1.1513-4.3229,2.3448-6.5758,3.3828,0,0-1.6203.442-2.4494.5446l-.9208-.3962.4886-.8003c1.3405-1.0202,2.6401-1.8128,3.9861-2.8631-.5404-.2941-.9609-.523-1.4546-.7917.5937-1.6007,2.6607-1.3626,3.505-2.7755-.5385-.186-1.0205-.3525-1.7595-.6078,1.0606-.794,1.9319-1.4464,2.8081-2.1024-.9953-.9532-.9935-1.0778.0277-1.961.4829-.4176.9754-.824,1.5616-1.3182-.4942-.2179-.8793-.3877-1.4433-.6364,1.0483-.8993,2.0233-1.7356,3.0868-2.6478-1.1911-.7505-.715-1.3671.0291-1.9806.5892-.4858,1.1559-.9989,1.7251-1.4934.9863.7498-.269,2.3768,1.5013,2.62-.5068.8674-.9436,1.615-1.4202,2.4306.2692.1873.5281.3674.8764.6097-.467.5878-.922,1.1606-1.4293,1.7991l1.0614.9194Z"/></svg>