<?xml version="1.0" encoding="UTF-8"?><svg id="b" xmlns="http://www.w3.org/2000/svg" viewBox="0 0 48 48"><defs><style>.c{fill:none;stroke:#fff;stroke-linecap:round;stroke-linejoin:round;}</style></defs><path class="c" d="M22.9078,34.9548c-1.7422-.1793-3.4161-.7731-4.8819-1.7317-1.2345-.8054-1.5133-1.1365-1.5133-1.7973,0-1.3272,1.4593-3.6519,3.9561-6.3019,1.418-1.5051,3.3932-3.2693,3.6069-3.2215.4152.0929,3.7352,3.3313,4.978,4.8557,1.9654,2.4107,2.8689,4.3845,2.41,5.2644-.3489.6689-2.514,1.9763-4.1047,2.4786-1.4424.4274-2.952.5812-4.451.4536h-.0001ZM14.8453,30.046c-1.0389-1.609-1.656-3.4537-1.7944-5.364-.0785-.8983-.0152-1.8033.1877-2.6819.3648-2.0247,1.291-3.9063,2.6731-5.4303.5516-.574.6009-.588,1.2734-.3614.8166.2751,1.6885.8774,3.0412,2.1003l.7891.7135-.4309.5294c-2.0003,2.4572-4.1121,5.9405-4.9077,8.0955-.4326,1.1717-.6071,2.3475-.4209,2.8371.1257.3304.0102.2073-.4106-.4382ZM32.8517,30.3136c.0639-.7879-.048-1.5802-.3275-2.3196-.6506-1.9846-2.8251-5.6764-4.8219-8.1867l-.6282-.7901.68-.6242c.6661-.6412,1.3927-1.2166,2.1695-1.7181.4842-.3137,1.0281-.5237,1.5974-.6168.1988,0,.8986.7263,1.4636,1.5189.8983,1.2814,1.526,2.7325,1.8448,4.2646.2137,1.3716.2252,2.7671.0339,4.142-.1831.8942-.4596,1.7667-.8248,2.6032-.3232.6726-.7,1.3182-1.1266,1.9305q-.1382.1755-.0604-.2036h0ZM23.0891,15.6831c-.9939-.4939-2.0442-.8651-3.1278-1.1052-.3452-.0513-.6944-.071-1.0431-.0587-.6478.0327-.6191-.0011.4203-.4921.8147-.3918,1.6758-.6786,2.5627-.8536,1.4077-.2315,2.8436-.2333,4.252-.0056,1.1635.2434,2.2837.6603,3.3233,1.2367l.2307.142-.5293-.0268c-1.0516-.0529-2.5843.3718-4.23,1.1727-.311.162-.6315.3051-.9596.4287-.0314-.0058-.436-.2029-.8992-.4381Z"/><rect class="c" x="4.5" y="10" width="39" height="28" rx="4" ry="4"/><path class="c" d="M39,31.9984c.8284,0,1.5.6716,1.5,1.5s-.6716,1.5-1.5,1.5h-2.475v-6h2.475c.8284,0,1.5.6716,1.5,1.5s-.6716,1.5-1.5,1.5h0Z"/><line class="c" x1="39" y1="31.9984" x2="36.525" y2="31.9984"/></svg>