<?xml version="1.0" encoding="UTF-8"?><svg id="b" xmlns="http://www.w3.org/2000/svg" viewBox="0 0 48 48"><defs><style>.c{fill:none;stroke:#fff;stroke-linecap:round;stroke-linejoin:round;}</style></defs><path class="c" d="m39.2028,39.2028c-3.8907,3.8907-9.2657,6.2972-15.2028,6.2972-11.8741,0-21.5-9.6259-21.5-21.5S12.1259,2.5,24,2.5c5.937,0,11.312,2.4065,15.2028,6.2972"/><path class="c" d="m44,15.5885l-7.6777,4.4327v-3.3726c0-1.1046-.8954-2-2-2H13.6777c-1.1046,0-2,.8954-2,2v14.7028c0,1.1046.8954,2,2,2h20.6445c1.1046,0,2-.8954,2-2v-3.3726l7.6777,4.4327c.6667.3849,1.5-.0962,1.5-.866v-15.0909c0-.7698-.8333-1.2509-1.5-.866Z"/><circle class="c" cx="24" cy="24" r="3"/></svg>