<?xml version="1.0" encoding="UTF-8"?><svg id="a" xmlns="http://www.w3.org/2000/svg" viewBox="0 0 48 48"><defs><style>.b{fill:none;stroke:#fff;stroke-linecap:round;stroke-linejoin:round;}</style></defs><circle class="b" cx="24" cy="24" r="21.5"/><path class="b" d="M14.05,20l-2.6,4-2.6-4M11.45,28v-4"/><path class="b" d="M17.517,24h2.7M21.517,28h-4v-8h4"/><path class="b" d="M36.45,28h0c-1.5,0-2.6-1.2-2.6-2.6v-2.7c0-1.5,1.2-2.7,2.6-2.7h0c1.5,0,2.7,1.2,2.7,2.7v2.6c0,1.5-1.2,2.7-2.7,2.7ZM30.383,22.7c0-1.5-1.2-2.7-2.7-2.7h0c-1.5,0-2.7,1.2-2.7,2.7v2.7c0,1.5,1.2,2.6,2.7,2.6h0c1.5,0,2.7-1.2,2.7-2.6h-2.7"/></svg>