<?xml version="1.0" encoding="UTF-8"?><svg id="a" xmlns="http://www.w3.org/2000/svg" viewBox="0 0 48 48"><defs><style>.n{fill:none;stroke:#fff;stroke-linecap:round;stroke-linejoin:round;}</style></defs><path id="b" class="n" d="M9.5,5.5h29c2.216,0,4,1.784,4,4v29c0,2.216-1.784,4-4,4H9.5c-2.216,0-4-1.784-4-4V9.5c0-2.216,1.784-4,4-4Z"/><g id="c"><path id="d" class="n" d="M19.0475,17.0765v14.6275"/><path id="e" class="n" d="M16.39,17.3437c1.8841-.1053,3.456-.2931,5.6516-1.0091"/><path id="f" class="n" d="M16.2358,21.1594h5.6235"/><path id="g" class="n" d="M19.0485,21.3802c-.7356,2.4505-1.8047,4.669-3.0485,6.642"/><path id="h" class="n" d="M19.0628,21.5093c1.0969,1.9029,1.9573,3.4146,2.7299,5.0744"/><path id="i" class="n" d="M23.2843,19.152h7.876v5.1749h-7.876v-5.1749Z"/><path id="j" class="n" d="M32,27.4894v2.7532c0,.5778-.4654,1.0429-1.0434,1.043l-1.6248.0004c-.4784.0001-.7154-.3314-.7154-.7155v-6.2679"/><path id="k" class="n" d="M25.5848,24.3035c.0878,3.609-1.1346,5.8979-3.9791,7.0496"/><path id="l" class="n" d="M24.3845,16.3897l1.3069,2.7614"/><path id="m" class="n" d="M30.2564,16.296c-.5122,1.1655-1.0876,1.9225-1.7259,2.8487"/></g></svg>