<svg xmlns="http://www.w3.org/2000/svg" viewBox="0 0 48 48"><defs><style>.a{fill:none;stroke:#fff;stroke-linecap:round;stroke-linejoin:round;}</style></defs><path class="a" d="M41,20.8116,39.3315,20.77a1.778,1.778,0,0,1-1.7649-1.766v-1.845M34.02,20.8885l1.6685.0412a1.7782,1.7782,0,0,1,1.766,1.766v1.845M7,21.85v4.8321H9.416m16.7075.0791H28.54m-2.416-4.8321H28.54m-2.416,2.416h1.57m-1.57-2.416v4.8321m-6.33-.0726V21.856l2.416,4.8321,2.416-4.8321v4.8321m-9.4333-4.8,3.2015,4.8321m0-4.8321-3.2015,4.8321m14.7909-.0575v-4.832h.7854a2.4236,2.4236,0,0,1,2.4161,2.416h0a2.4236,2.4236,0,0,1-2.4161,2.416h-.7854M10.7086,21.8885V25.09a1.5721,1.5721,0,1,0,3.1419,0V21.8885"/><path class="a" d="M43.5,35.5v-23a2,2,0,0,0-2-2H6.5a2,2,0,0,0-2,2v23a2,2,0,0,0,2,2h35A2,2,0,0,0,43.5,35.5Z"/></svg>