<?xml version="1.0" encoding="UTF-8"?><svg xmlns="http://www.w3.org/2000/svg" width="48" height="48" viewBox="0 0 48 48"><g id="a"/><g id="b"><path id="c" d="M40.815,17.593c1.1,0,2-.9,2-2v-4.808c0-1.1-.9-2-2-2H7.185c-1.1,0-2,.9-2,2v4.808c0,1.1,.9,2,2,2h1.074v13.013h-1.074c-1.1,0-2,.9-2,2v4.808c0,1.1,.9,2,2,2H40.815c1.1,0,2-.9,2-2v-4.808c0-1.1-.9-2-2-2h-1.074v-13.013h1.074ZM15.741,30.606v-13.013h4.519v13.013h-4.519Zm16.519,0h-4.519v-13.013h4.519v13.013Z" style="fill:none; stroke:#fff; stroke-miterlimit:10;"/></g></svg>