<?xml version="1.0" encoding="UTF-8"?><svg xmlns="http://www.w3.org/2000/svg" width="48" height="48" viewBox="0 0 48 48"><g id="a"/><g id="b"><g id="c"><g><path d="M43.387,36.508c-1.971,2.661-3.732,2.154-3.732,0V12.238c-12.23,19.39-15.778,25.727-14.384,27.945" style="fill:none; stroke:#fff; stroke-linecap:round; stroke-linejoin:round;"/><path d="M43.387,8.817s-2.458,1.4-3.732,3.422" style="fill:none; stroke:#fff; stroke-linecap:round; stroke-linejoin:round;"/><path d="M39.028,13.233c-13.8-7.331-15.743,12.186-10.067,16.485h10.694" style="fill:none; stroke:#fff; stroke-linecap:round; stroke-linejoin:round;"/><path d="M36.32,17.549c-1.84-.495-4.628-1.171-6.233,1.997" style="fill:none; stroke:#fff; stroke-linecap:round; stroke-linejoin:round;"/><path d="M26.201,34.993c4.9,1.578,6.252,2.55,7.688,3.648,2.028-1.31,4.985-3.211,5.766-3.211" style="fill:none; stroke:#fff; stroke-linecap:round; stroke-linejoin:round;"/></g><g><path d="M9.16,12.912S.497,26.298,11.532,26.629c2.082,.062,9.777,1.915,2.708,8.635-.843,.797-1.466,1.426-2.167,2.076-9.333,8.65-9.168-5.8-4.196-5.402,3.216,0,9.407,5.95,9.407,5.95,7.96-7.96,7.88-17.608-2.734-17.608s-3.297-12.463-3.297-12.463l6.593,4.663" style="fill:none; stroke:#fff; stroke-linecap:round; stroke-linejoin:round;"/><line x1="19.189" y1="9.906" x2="10.726" y2="32.88" style="fill:none; stroke:#fff; stroke-linecap:round; stroke-linejoin:round;"/></g></g></g></svg>