<svg xmlns="http://www.w3.org/2000/svg" version="1.1" viewBox="0.00 0.00 48.00 48.00"><path fill="none" stroke-width="1.00" stroke="#ffffff" d="M29.32 8.27q7.96.8 10.58 8.39.2.57-.4.62-9.15.78-12.87-5.6a.36.35-61.7 0 0-.66.2q.09 2.31 1.53 4.23 2.75 3.66 5.22 7.68a1.36 1.33-5.6 0 0 .71.57q6.97 2.44 6.62 9.19c-.49 9.41-14.12 11.17-17.48 2.21-1.82-4.87 1.36-9.99 6.13-11.33q.74-.2.28-.81c-2.43-3.23-5.49-6.72-6.1-10.84a.29.29 0 0 0-.51-.15q-3.97 4.68-5.86 10.92-.18.59.43.73 1.83.4 3.41 1.43.59.39.24 1-3.54 6.17.07 12.58a.56.56 0 0 1-.19.74q-4.91 3.15-9.95.43c-7.08-3.81-5.18-13.76 2.13-16.01q.44-.13.55-.57c2-7.86 7.11-16.33 14.85-19.2 1.01-.38 2.19.2 2.19 1.36q.01.62-.44 1.04l-.67.63q-.52.49.19.56Z"/></svg>
